<svg xmlns="http://www.w3.org/2000/svg" width="12" height="12" fill="currentcolor" fill-rule="evenodd" viewBox="0 0 12 12"><path d="M.218 4.092C0 4.52 0 5.08 0 6.2v2.6c0 1.12 0 1.68.218 2.108a2 2 0 0 0 .874.874C1.52 12 2.08 12 3.2 12h5.6c1.12 0 1.68 0 2.108-.218a2 2 0 0 0 .874-.874C12 10.48 12 9.92 12 8.8V6.2c0-1.12 0-1.68-.218-2.108a2 2 0 0 0-.874-.874C10.48 3 9.92 3 8.8 3H3.2c-1.12 0-1.68 0-2.108.218a2 2 0 0 0-.874.874Zm6.488 2.047L5.051 8.213 4.29 7.148a.357.357 0 0 0-.578 0L2.066 9.447a.35.35 0 0 0 .29.553H9.63c.306 0 .479-.334.294-.566l-2.63-3.295a.38.38 0 0 0-.588 0Z M2 1.5A1.5 1.5 0 0 1 3.5 0h5A1.5 1.5 0 0 1 10 1.5H2Z"/></svg>
