<svg xmlns="http://www.w3.org/2000/svg" width="12" height="12" fill="none" viewBox="0 0 12 12"><path fill="currentColor" d="M4.25 1a.75.75 0 1 1 0 1.5c-.5006 0-.6414.0036-.7439.024a1.25 1.25 0 0 0-.982.9821c-.0205.1025-.0241.2433-.0241.7439v2.8c0 .5724.0006.9566.0248 1.2525.0234.2871.0653.4244.1114.515a1.25 1.25 0 0 0 .5463.5463c.0906.0461.2279.088.515.1114.2959.0242.68.0248 1.2525.0248h2.8c.5006 0 .6414-.0036.7439-.024a1.25 1.25 0 0 0 .982-.9821c.0205-.1025.0241-.2433.0241-.7439a.75.75 0 0 1 1.5 0c0 .4287.0036.7526-.0528 1.0365a2.7501 2.7501 0 0 1-2.1607 2.1607c-.2675.0532-.5705.053-.9632.0528-.968-.0005-1.9358 0-2.9037 0-.5342 0-.98 0-1.3443-.0297-.3798-.0311-.7365-.0982-1.0738-.27a2.7504 2.7504 0 0 1-1.2018-1.2018c-.1718-.3373-.239-.694-.27-1.0738C1 8.0604 1 7.6146 1 7.0804c0-.9679.0005-1.9358 0-2.9037-.0002-.3927-.0004-.6957.0528-.9632a2.75 2.75 0 0 1 2.1607-2.1607C3.4975.9964 3.8213 1 4.25 1Z M7 .75A.75.75 0 0 1 7.75 0h3.5a.75.75 0 0 1 .75.75v3.5a.75.75 0 0 1-1.5 0V2.5607L7.2803 5.7803a.75.75 0 0 1-1.0606-1.0606L9.4393 1.5H7.75A.75.75 0 0 1 7 .75Z"/></svg>
