<svg xmlns="http://www.w3.org/2000/svg" width="12" height="12" fill="currentColor" viewBox="0 0 12 12"><path d="M7.3 1.003c.552 0 .996 0 1.354.03.365.029.685.092.98.242a2.5 2.5 0 0 1 1.093 1.093c.151.296.214.616.244.98.029.36.029.803.029 1.355v2.6c0 .552 0 .996-.03 1.354-.03.365-.092.685-.243.98a2.5 2.5 0 0 1-1.092 1.093c-.296.151-.616.214-.98.244-.36.029-.803.029-1.355.029H4.7c-.552 0-.996 0-1.354-.03-.365-.03-.685-.092-.98-.243a2.501 2.501 0 0 1-1.094-1.092c-.15-.296-.213-.616-.243-.98C1 8.297 1 7.854 1 7.302v-2.6c0-.552 0-.996.03-1.354.03-.365.092-.685.242-.98.24-.471.623-.854 1.093-1.094.296-.15.616-.213.98-.243.36-.03.803-.03 1.355-.03h2.6Zm-2.6 1c-.568 0-.965 0-1.273.025-.302.025-.476.071-.608.138a1.503 1.503 0 0 0-.656.656c-.067.132-.113.306-.138.608C2 3.738 2 4.135 2 4.703v2.6c0 .568 0 .965.025 1.273.025.302.071.476.138.608.144.282.374.512.656.656.132.067.306.113.608.138.308.025.705.025 1.273.025h2.6c.568 0 .965 0 1.273-.025.302-.025.476-.071.608-.138.282-.144.512-.374.656-.656.067-.132.113-.306.138-.608C10 8.268 10 7.871 10 7.303v-2.6c0-.568 0-.965-.025-1.273-.025-.302-.071-.476-.138-.608a1.503 1.503 0 0 0-.656-.656c-.132-.067-.306-.113-.608-.138-.308-.025-.705-.025-1.273-.025H4.7ZM6.6 7.51a.5.5 0 0 1 0 .98l-.1.01H4a.5.5 0 0 1 0-1h2.5l.1.01Zm1.5-2a.5.5 0 0 1 0 .98L8 6.5H4a.5.5 0 0 1 0-1h4l.1.01Zm0-2a.5.5 0 0 1 0 .98L8 4.5H4a.5.5 0 0 1 0-1h4l.1.01Z"/></svg>