<svg xmlns="http://www.w3.org/2000/svg" width="12" height="12" fill="currentColor" viewBox="0 0 12 12"><path d="M7.84 1.49a.6.6 0 0 0-1.18.22l.15.8a.6.6 0 0 0 1.18-.22l-.15-.8Zm2.384.286a.6.6 0 0 1 .002.849l-.6.602a.6.6 0 0 1-.85-.847l.6-.602a.6.6 0 0 1 .848-.002Z"/><path fill-rule="evenodd" d="M7.823 4.174a.6.6 0 0 1 .003.849l-.462.465a3.5 3.5 0 1 1-.848-.85l.458-.46a.6.6 0 0 1 .849-.004ZM6.8 7.5a2.3 2.3 0 1 1-4.6 0 2.3 2.3 0 0 1 4.6 0Z M10.99 4.86a.6.6 0 0 1-.7.48l-.8-.15a.6.6 0 0 1 .22-1.18l.8.15a.6.6 0 0 1 .48.7Z"/></svg>
