<svg fill="none" height="12" viewBox="0 0 12 12" width="12" xmlns="http://www.w3.org/2000/svg"><path clip-rule="evenodd" d="m5.47812.00000009h1.04376c.68152-.00000406 1.22354-.00000728 1.66083.03572111.44781.0365868.82964.1131178 1.17927.2912598.56448.28762 1.02342.746559 1.31102 1.311049.1782.34962.2547.73146.2913 1.17926.0357.43729.0357.9793.0357 1.66082v4.81545c0 .50441 0 .91754-.0291 1.23734-.0288.3166-.0919.6418-.2952.8984-.2822.3561-.71047.5651-1.16475.5684-.32736.0024-.62261-.148-.88986-.32-.27002-.1739-.5957-.4281-.99335-.7385l-.9509-.7422c-.3886-.30336-.47235-.35664-.54583-.37659-.08578-.02329-.17623-.02329-.26201 0-.07348.01995-.15723.07323-.54583.37659l-.95091.7422c-.39764.3104-.72333.5646-.99335.7385-.26726.172-.5625.3224-.88986.32-.45428-.0033-.88258-.2123-1.16472-.5684-.2033-.2566-.26644-.5818-.29525-.8984-.029095-.3198-.029088-.73296-.02908-1.23741v-4.81537c-.000001-.68152-.000004-1.22354.03572-1.66083.03659-.4478.11312-.82964.29126-1.17926.28762-.56449.74657-1.02343 1.31105-1.31105.34963-.178142.73146-.2546721 1.17926-.2912588.4373-.03572839.97931-.03572517 1.66083-.03572111zm-1.5794 1.03239991c-.38596.03153-.62154.09125-.8067.18559-.37632.19174-.68228.4977-.87403.87403-.09434.18515-.15405.42074-.18559.8067-.03201.3918-.0324.89296-.0324 1.60128v4.76828c0 .53585.0005.90302.02497 1.17202.02525.2776.07023.3517.08314.368.09405.1187.23681.1883.38824.1894.0208.0002.1069-.01.34122-.1608.22708-.1462.51686-.3718.93926-.7015l.93104-.72672c.02082-.01626.04143-.0324.06187-.04841.28917-.22645.54263-.42494.83724-.50492.25736-.06988.52869-.06987.78605 0 .29461.07998.54807.27847.83724.50493.02044.016.04105.03215.06187.0484l.93103.72672c.4224.3297.71218.5553.93926.7015.23432.1508.32042.161.34122.1608.15143-.0011.29419-.0707.38824-.1894.01291-.0163.05789-.0905.08314-.368.02447-.269.02497-.63618.02497-1.17202v-4.76828c0-.70831-.00039-1.20948-.0324-1.60128-.03153-.38596-.09124-.62154-.18558-.8067-.19175-.37632-.49771-.68229-.87404-.87403-.18515-.09434-.42074-.15406-.8067-.18559-.39179-.03201-.89296-.0324-1.60128-.0324h-1c-.70831 0-1.20948.00039-1.60128.0324z" fill="currentColor" fill-rule="evenodd"/></svg>
