<svg fill="none" height="12" viewBox="0 0 12 12" width="12" xmlns="http://www.w3.org/2000/svg"><path d="m3.52513 2.46445c-.2929-.29289-.76777-.29289-1.06066 0-.2929.29289-.2929.76777 0 1.06066l2.47487 2.47488-2.47487 2.47487c-.2929.29289-.2929.76777 0 1.06066.29289.29289.76776.29289 1.06066 0l2.47487-2.47487 2.47487 2.47487c.2929.29289.76777.29289 1.06066 0 .2929-.29289.2929-.76777 0-1.06066l-2.47487-2.47487 2.47487-2.47488c.2929-.29289.2929-.76777 0-1.06066-.29289-.29289-.76776-.29289-1.06066 0l-2.47487 2.47488z" fill="currentColor"/></svg>
