<svg xmlns="http://www.w3.org/2000/svg" width="12" height="12" viewBox="0 0 12 12" fill="currentColor"><path fill-rule="evenodd" d="M7.271 1.5c.414 0 .757 0 1.039.027.291.029.554.09.802.234.249.143.433.34.604.578.165.23.336.527.543.885l.564.976h.453c.235 0 .426.19.426.426v.101a.785.785 0 0 1-.601.764v4.161c0 .063 0 .136-.004.2a.7.7 0 0 1-.072.268.7.7 0 0 1-.306.306.7.7 0 0 1-.267.07c-.064.006-.139.006-.201.006h-.02c-.076 0-.16 0-.233-.006a.8.8 0 0 1-.287-.076.75.75 0 0 1-.328-.327.8.8 0 0 1-.076-.287c-.006-.073-.005-.157-.005-.234V9.45H2.7v.122c0 .077.001.161-.005.234a.8.8 0 0 1-.076.287.75.75 0 0 1-.328.327.8.8 0 0 1-.287.076c-.072.006-.157.006-.233.006h-.02c-.062 0-.137 0-.201-.005a.7.7 0 0 1-.267-.071.7.7 0 0 1-.306-.306.7.7 0 0 1-.072-.268C.9 9.788.9 9.715.9 9.652v-4.16a.785.785 0 0 1-.6-.765v-.101C.3 4.39.49 4.2.726 4.2h.452l.566-.978c.207-.358.379-.654.544-.884a1.9 1.9 0 0 1 .604-.577 1.9 1.9 0 0 1 .801-.234C3.975 1.5 4.317 1.5 4.73 1.5zM2.96 6.614a.45.45 0 0 0-.219.873l1.2.3a.45.45 0 0 0 .22-.873zm6.082 0-1.2.3a.45.45 0 0 0 .219.873l1.2-.3a.45.45 0 0 0-.219-.873M4.731 2.4c-.431 0-.722 0-.95.023-.217.021-.341.06-.44.118-.1.057-.195.144-.322.321-.134.186-.28.438-.496.81l-.659 1.135.02.001.004.001.011.002.05.01.205.031q.276.044.809.101C3.67 5.027 4.706 5.1 6 5.1s2.33-.073 3.038-.147a19 19 0 0 0 1.014-.133l.05-.009.011-.002h.002q.01-.003.019-.002l-.656-1.133a11 11 0 0 0-.495-.81c-.127-.178-.223-.266-.322-.323s-.223-.097-.44-.118a11 11 0 0 0-.95-.023z" clip-rule="evenodd"/></svg>