<svg xmlns="http://www.w3.org/2000/svg" width="12" height="12" fill="none" viewBox="0 0 12 12"><path fill="currentColor" d="m3.6185 2.9742-2.2094.3817c-.5523.0955-.8285.1432-1.02.287a.99.99 0 0 0-.3533.5049c-.0695.2292-.0197.505.0798 1.0565l.972 5.3863c.0995.5516.1493.8274.2948 1.0195.128.169.306.2936.5086.3559.2304.0709.5065.0232 1.0588-.0722l2.4228-.4187c.5523-.0954.8284-.1431 1.02-.2869a.9941.9941 0 0 0 .1497-.1386l-1.1655-.2088c-.335-.06-.644-.1153-.8987-.1831-.2755-.0733-.5724-.1814-.847-.3919a2.3454 2.3454 0 0 1-.8185-1.1876c-.0987-.3286-.0972-.6433-.071-.9281.0244-.2648.0787-.5773.138-.919l.739-4.257Z M4.2399 9.4715c.2536.1944.6184.2597 1.348.3904l2.8683.5139c.7296.1307 1.0945.1961 1.3982.1015a1.324 1.324 0 0 0 .6699-.4772c.1912-.258.2556-.6292.3845-1.3714l.9503-5.4748c.1289-.7423.1933-1.1134.1005-1.4223a1.3447 1.3447 0 0 0-.4688-.6812C11.2372.856 10.8724.7907 10.1427.66L7.2745.1463C6.5448.0156 6.18-.0497 5.8762.0448a1.3242 1.3242 0 0 0-.6698.4772c-.1913.258-.2557.6292-.3845 1.3714l-.9504 5.4747c-.1288.7422-.1932 1.1133-.1004 1.4223a1.345 1.345 0 0 0 .4688.6811Z"/></svg>
