<svg xmlns="http://www.w3.org/2000/svg" width="12" height="12" viewBox="0 0 12 12" fill="currentColor"><path fill-rule="evenodd" d="M7.3 1.503c1.12 0 1.68 0 2.108.218a2 2 0 0 1 .874.874c.218.428.218.988.218 2.108v2.6c0 1.12 0 1.68-.218 2.108a2 2 0 0 1-.874.874c-.428.218-.988.218-2.108.218H4.7c-1.12 0-1.68 0-2.108-.218a2 2 0 0 1-.874-.874C1.5 8.983 1.5 8.423 1.5 7.303v-2.6c0-1.12 0-1.68.218-2.108a2 2 0 0 1 .874-.874c.428-.218.988-.218 2.108-.218zM3.75 4.628a.625.625 0 0 0-.625.625v2.75a.625.625 0 1 0 1.25 0v-2.75a.625.625 0 0 0-.625-.625M6 3.378a.625.625 0 0 0-.625.625v4a.625.625 0 1 0 1.25 0v-4A.625.625 0 0 0 6 3.378m2.25 1.75a.625.625 0 0 0-.625.625v2.25a.625.625 0 1 0 1.25 0v-2.25a.625.625 0 0 0-.625-.625" clip-rule="evenodd"/></svg>