<svg xmlns="http://www.w3.org/2000/svg" width="12" height="12" viewBox="0 0 12 12" fill="currentColor"><path fill-rule="evenodd" d="M6.193.988c.145.018.287.063.57.151l2.539.794c.322.101.484.151.603.248a.8.8 0 0 1 .238.324c.057.143.057.312.057.65v3.254c0 2.552-2.71 4.031-3.776 4.515a1 1 0 0 1-.288.101 1 1 0 0 1-.272 0 1 1 0 0 1-.288-.101C4.51 10.44 1.8 8.96 1.8 6.409V3.155c0-.338 0-.507.057-.65a.8.8 0 0 1 .238-.324c.119-.097.28-.147.602-.248l2.538-.794c.284-.089.427-.133.572-.151a1.6 1.6 0 0 1 .386 0M8.358 4.21a.6.6 0 0 0-.848.03L5.442 6.468 4.49 5.442a.6.6 0 1 0-.879.816l1.393 1.5a.6.6 0 0 0 .88 0l2.507-2.7a.6.6 0 0 0-.032-.847" clip-rule="evenodd"/></svg>