<svg xmlns="http://www.w3.org/2000/svg" width="8" height="12" fill="currentColor" viewBox="0 0 8 12"><path fill-rule="evenodd" d="M2.15 6.452a.75.75 0 0 1 0-.9c.49-.653.907-1.187 1.305-1.697l.038-.049c.384-.492.751-.961 1.157-1.502a.75.75 0 1 1 1.2.9c-.415.553-.79 1.033-1.172 1.522l-.042.053c-.3.384-.607.777-.946 1.223.34.445.646.838.946 1.223l.042.052c.382.49.757.97 1.172 1.523a.75.75 0 1 1-1.2.9c-.406-.54-.773-1.01-1.157-1.502l-.038-.05A98.062 98.062 0 0 1 2.15 6.452Z" clip-rule="evenodd"/></svg>
