<svg xmlns="http://www.w3.org/2000/svg" width="8" height="12" fill="currentColor" viewBox="0 0 8 12"><path fill-rule="evenodd" d="M5.85 5.552c.2.267.2.633 0 .9-.49.653-.907 1.187-1.304 1.696l-.039.05c-.384.491-.751.961-1.157 1.502a.75.75 0 0 1-1.2-.9 94.04 94.04 0 0 1 1.173-1.523l.04-.052c.3-.385.608-.778.947-1.223-.34-.446-.646-.839-.946-1.223l-.041-.053A93.21 93.21 0 0 1 2.15 3.204a.75.75 0 1 1 1.2-.9c.406.54.773 1.01 1.157 1.502l.039.05c.397.508.814 1.043 1.304 1.696Z" clip-rule="evenodd"/></svg>
