<svg fill="none" height="12" viewBox="0 0 12 12" width="12" xmlns="http://www.w3.org/2000/svg"><g fill="currentColor"><path d="m6.5 3.75c0-.41421-.33579-.75-.75-.75s-.75.33579-.75.75v3c0 .34415.23422.64414.5681.72761l2 .5c.40184.10046.80905-.14386.90951-.54571.10046-.40184-.14386-.80905-.54571-.90951l-1.4319-.35797z"/><path clip-rule="evenodd" d="m12 6c0 3.31371-2.68629 6-6 6s-6-2.68629-6-6 2.68629-6 6-6 6 2.68629 6 6zm-1.5 0c0 2.48528-2.01472 4.5-4.5 4.5s-4.5-2.01472-4.5-4.5 2.01472-4.5 4.5-4.5 4.5 2.01472 4.5 4.5z" fill-rule="evenodd"/></g></svg>
