<svg xmlns="http://www.w3.org/2000/svg" width="12" height="12" fill="currentColor" viewBox="0 0 12 12"><path d="M9.76 9.602c-.021.225-.223.398-.466.398H2.83c-.241 0-.443-.17-.466-.393l-.036-.36h7.463l-.032.355ZM6.105 2c.544 0 .987.41.987.916 0 .372-.24.691-.582.835l1.263 2.891L9.45 4.877c-.306-.159-.512-.453-.512-.792 0-.506.461-.916 1.03-.916.57 0 1.032.41 1.032.916 0 .442-.352.81-.82.897l-.33 3.614H2.264L1.9 4.994c-.507-.057-.9-.442-.9-.909 0-.505.462-.916 1.031-.916.57 0 1.031.41 1.031.916 0 .321-.185.603-.466.767L4.47 6.824l1.328-3.037c-.395-.12-.68-.464-.68-.87 0-.507.442-.917.987-.917Z"/></svg>