<svg xmlns="http://www.w3.org/2000/svg" width="12" height="12" fill="currentColor" viewBox="0 0 12 12"><path d="M8.013 5.362 6.217 9.79c-.073.18-.346.18-.42 0L4.003 5.362h4.011Zm2.698 0c.193 0 .297.21.17.344-.815.873-2.977 3.183-4.03 4.294l1.88-4.638h1.98Zm-7.427 0 1.862 4.592a1189.123 1189.123 0 0 1-4.01-4.247c-.127-.135-.023-.345.17-.345h1.978ZM8.404 2c.262 0 .51.107.681.292.466.507 1.39 1.563 1.865 2.106.118.136.014.34-.175.34H8.721L7.53 2h.873Zm-3.92 0-1.19 2.737h-2.07c-.187 0-.291-.2-.175-.337.46-.54 1.358-1.593 1.812-2.1.17-.19.422-.3.688-.3h.935Zm2.323 0 1.189 2.737H4.02L5.21 2h1.598Z"/></svg>