<svg xmlns="http://www.w3.org/2000/svg" width="12" height="12" fill="currentColor" viewBox="0 0 12 12"><path d="M4.75 2.014c0 .698-.56 1.264-1.25 1.264s-1.25-.566-1.25-1.264C2.25 1.316 2.81.75 3.5.75s1.25.566 1.25 1.264ZM4.75 6c0 .698-.56 1.264-1.25 1.264S2.25 6.698 2.25 6c0-.698.56-1.264 1.25-1.264S4.75 5.302 4.75 6Zm0 3.984c0 .698-.56 1.264-1.25 1.264s-1.25-.566-1.25-1.264c0-.698.56-1.264 1.25-1.264s1.25.566 1.25 1.264Zm5-7.97c0 .698-.56 1.264-1.25 1.264s-1.25-.566-1.25-1.264C7.25 1.316 7.81.75 8.5.75s1.25.566 1.25 1.264ZM9.75 6c0 .698-.56 1.264-1.25 1.264S7.25 6.698 7.25 6c0-.698.56-1.264 1.25-1.264S9.75 5.302 9.75 6Zm0 3.984c0 .698-.56 1.264-1.25 1.264s-1.25-.566-1.25-1.264c0-.698.56-1.264 1.25-1.264s1.25.566 1.25 1.264Z"/></svg>
