<svg xmlns="http://www.w3.org/2000/svg" width="12" height="12" fill="none" viewBox="0 0 12 12">
  <path fill="url(#a)" fill-rule="evenodd" d="M6 12c-3.312 0-6-2.688-6-6s2.688-6 6-6 6 2.688 6 6-2.688 6-6 6Z" clip-rule="evenodd"/>
  <path fill="#fff" fill-rule="evenodd" d="M6 3a.75.75 0 0 0-.75.75v2.5a.75.75 0 0 0 1.5 0v-2.5A.75.75 0 0 0 6 3Zm0 5a.75.75 0 1 0 0 1.5A.75.75 0 0 0 6 8Z" clip-rule="evenodd"/>
  <defs>
    <linearGradient id="a" x1="-6" x2="6" y1="6" y2="18" gradientUnits="userSpaceOnUse">
      <stop stop-color="#FFB73D"/>
      <stop offset="1" stop-color="#FFA000"/>
    </linearGradient>
  </defs>
</svg>
