<svg xmlns="http://www.w3.org/2000/svg" width="12" height="12" viewBox="0 0 12 12" fill="currentColor"><path fill-rule="evenodd" d="M5 2h3c.717 0 1.194 0 1.56.03.356.03.518.081.621.133a1.5 1.5 0 0 1 .656.656c.052.103.103.265.132.62C11 3.806 11 4.283 11 5v3c0 .717 0 1.194-.03 1.56-.03.356-.081.518-.134.621a1.5 1.5 0 0 1-.655.656c-.103.052-.265.103-.62.132C9.194 11 8.717 11 8 11H5c-.717 0-1.194 0-1.56-.03-.356-.03-.518-.081-.621-.134a1.5 1.5 0 0 1-.656-.655c-.052-.103-.103-.265-.132-.62C2 9.194 2 8.717 2 8V5c0-.717 0-1.194.03-1.56.03-.356.081-.518.133-.621a1.5 1.5 0 0 1 .656-.656c.103-.052.265-.103.62-.132C3.806 2 4.283 2 5 2M1 5c0-1.4 0-2.1.272-2.635a2.5 2.5 0 0 1 1.093-1.093C2.9 1 3.6 1 5 1h3c1.4 0 2.1 0 2.635.272a2.5 2.5 0 0 1 1.092 1.093C12 2.9 12 3.6 12 5v3c0 1.4 0 2.1-.273 2.635a2.5 2.5 0 0 1-1.092 1.092C10.1 12 9.4 12 8 12H5c-1.4 0-2.1 0-2.635-.273a2.5 2.5 0 0 1-1.093-1.092C1 10.1 1 9.4 1 8zm7-1H5v5h3V8H6V7h2V6H6V5h2z" clip-rule="evenodd"/></svg>