<svg xmlns="http://www.w3.org/2000/svg" width="12" height="12" fill="currentColor" viewBox="0 0 12 12"><path fill-rule="evenodd" d="M2.287 1.22a.75.75 0 1 0-1.06 1.061l.979.98C.814 4.25 0 5.531 0 5.997 0 6.798 2.4 10 6 10a6.21 6.21 0 0 0 2.436-.504l1.29 1.292a.732.732 0 0 0 1.046-.015.733.733 0 0 0 .015-1.047l-8.5-8.506Zm5.237 7.364L3.416 4.472a3.001 3.001 0 0 0 4.109 4.112Z M9 5.997c0 .184-.016.364-.048.539l1.591 1.592C11.473 7.275 12 6.372 12 5.998c0-.801-2.4-4.003-6-4.003-.497 0-.97.06-1.418.168l.88.88A3.001 3.001 0 0 1 9 5.998Z"/></svg>
