<svg xmlns="http://www.w3.org/2000/svg" width="12" height="12" fill="currentColor" viewBox="0 0 12 12"><path d="m4.559 2.876-.277.653a.337.337 0 0 1-.044.086.15.15 0 0 1-.048.037.322.322 0 0 1-.093.02l-.403.059c-1.136.163-1.703.245-1.942.516a1.015 1.015 0 0 0-.233.866c.07.357.518.723 1.412 1.454l.153.124c.04.033.06.05.074.07.011.02.019.04.022.062a.344.344 0 0 1-.011.103l-.046.245c-.25 1.347-.375 2.02-.178 2.35.17.285.47.465.796.479.378.016.895-.423 1.93-1.3l.177-.15a.351.351 0 0 1 .111-.077.146.146 0 0 1 .082 0c.03.008.057.031.111.077l.178.15c1.034.877 1.55 1.316 1.929 1.3a.979.979 0 0 0 .796-.479c.197-.33.072-1.003-.178-2.35l-.046-.245a.344.344 0 0 1-.01-.103.154.154 0 0 1 .021-.061.339.339 0 0 1 .074-.07l.153-.125c.894-.731 1.342-1.097 1.412-1.454.06-.31-.025-.631-.233-.866-.239-.27-.806-.353-1.942-.516l-.403-.058c-.048-.007-.072-.01-.093-.02a.15.15 0 0 1-.048-.038c-.015-.018-.024-.04-.044-.086l-.277-.653c-.455-1.071-.682-1.607-1-1.77a.965.965 0 0 0-.881 0c-.319.163-.546.699-1.001 1.77Z"/></svg>
