<svg fill="none" height="12" viewBox="0 0 12 12" width="12" xmlns="http://www.w3.org/2000/svg"><path d="m6 0c3.31371 0 6 2.68629 6 6s-2.68629 6-6 6-6-2.68629-6-6 2.68629-6 6-6zm.3007 2.62047c-.80797.86764-1.42198 1.52307-1.84203 1.96629-.14645.15453-.38218.39573-.70718.7236-.7123.75278-.33741 1.29871.48647 1.43541l1.16975.19971c.06805.01162.11379.0762.10218.14425l-.00219.01022-.48159 1.86496c-.2243.86032.11246 1.03859.71488.41046l2.53054-2.76923c.58548-.6806.43884-1.22743-.40431-1.36413l-1.22375-.21584c-.06798-.01199-.11338-.07682-.10139-.14481.00054-.00306.0012-.0061.00196-.00912l.46896-1.84274c.22492-.86578-.14997-1.02258-.7123-.40903z" fill="currentColor"/></svg>
