<svg xmlns="http://www.w3.org/2000/svg" width="12" height="12" fill="currentColor" viewBox="0 0 12 12"><path fill-rule="evenodd" d="m6.464 5.615.724-.725a.8.8 0 0 0 1.042-.077l.534-.534a.8.8 0 0 0 0-1.131L6.85 1.234a.8.8 0 0 0-1.132 0l-.533.533a.8.8 0 0 0-.095 1.018L2.783 5.093a.8.8 0 0 0-1.016.096l-.532.533a.8.8 0 0 0 0 1.131l1.91 1.91a.8.8 0 0 0 1.131 0l.533-.533a.8.8 0 0 0 .079-1.04l.727-.726 3.46 3.46a.6.6 0 1 0 .85-.848l-3.461-3.46ZM1.7 10.75a.5.5 0 0 1 .5-.5h3a.5.5 0 1 1 0 1h-3a.5.5 0 0 1-.5-.5Z" clip-rule="evenodd"/></svg>
