<svg xmlns="http://www.w3.org/2000/svg" width="12" height="12" fill="currentColor" viewBox="0 0 12 12"><path fill-rule="evenodd" d="M6 1a4.5 4.5 0 0 0-4.5 4.5v3.7c0 .199.032.396.095.585a1.11 1.11 0 0 0 1.55.642l.328-.164a.952.952 0 0 1 .998.09l.324.243a2.009 2.009 0 0 0 2.41 0l.324-.243a.952.952 0 0 1 .998-.09l.327.164a1.11 1.11 0 0 0 1.551-.642c.063-.189.095-.386.095-.585V5.5A4.5 4.5 0 0 0 6 1ZM4.1 7.215a.538.538 0 0 1 .682-.152l.057.034c.052.037.17.105.336.175.661.279 1.341.279 1.986-.175a.538.538 0 0 1 .74.118.509.509 0 0 1-.121.721c-.989.695-2.052.695-3.025.285a2.97 2.97 0 0 1-.535-.285.509.509 0 0 1-.12-.721ZM3.5 5.25a.75.75 0 1 1 1.5 0 .75.75 0 0 1-1.5 0Zm3.5 0a.75.75 0 1 1 1.5 0 .75.75 0 0 1-1.5 0Z" clip-rule="evenodd"/></svg>
