<svg xmlns="http://www.w3.org/2000/svg" width="12" height="12" fill="currentColor" viewBox="0 0 12 12"><path d="M5.5 7.998v3H4.093c-.547 0-.746-.058-.946-.167a1.12 1.12 0 0 1-.463-.476c-.107-.204-.164-.407-.164-.967v-1.39H5.5Zm4 0v1.39c0 .56-.057.763-.164.967a1.129 1.129 0 0 1-.464.476c-.182.099-.362.156-.804.166l-.141.001-1.426-.005v-3l2.999.005Zm-4-3.692v2.701H2.287c-.274 0-.373-.029-.473-.084a.564.564 0 0 1-.232-.237c-.054-.103-.082-.204-.082-.484v-.704c0-.286.047-.486.137-.656a.94.94 0 0 1 .386-.396c.167-.091.361-.14.642-.14H5.5Zm3.835-.014c.28 0 .475.048.642.14a.94.94 0 0 1 .386.395c.075.143.12.305.133.52l.004.137v.703c0 .28-.028.382-.082.484a.564.564 0 0 1-.232.238c-.086.047-.17.075-.366.082l-.107.002H6.501V4.292h2.834ZM6 3.998l.001-.1C6.1 1.143 8.024.487 8.883 1.366c.9.922.144 3.016-2.883 2.932-3.027.084-3.745-2.01-2.845-2.932.87-.89 2.787-.207 2.844 2.633Z"/></svg>
