<svg xmlns="http://www.w3.org/2000/svg" width="12" height="12" fill="currentColor" viewBox="0 0 12 13"><path d="M6.598 2.703a1.617 1.617 0 0 1 .398-.257 1.816 1.816 0 0 1 1.194-.1.562.562 0 1 1-.261 1.095c-.23-.055-.397-.016-.514.054a.69.69 0 0 0-.292.409c-.094.31.119.74.542.84a.905.905 0 0 0 .582-.048.872.872 0 0 0 .196-.123.63.63 0 0 0 .2-.291.562.562 0 0 1 .3-.348s.154-.067.178-.075l2.215-.82a.503.503 0 0 1 .662.474c.007.961.008 2.123-.157 3.028-.169.929-.723 2.04-2.088 2.245a2.53 2.53 0 0 1-.92-.038c-.308-.068-.714-.198-1.035-.446v.677c0 .103.064.195.156.24.604.3 1.505 1.099.828 2.11a.235.235 0 0 1-.136.095l-.008.003c-.1.028-2.254.642-2.64.642-.385 0-2.535-.614-2.636-.642l-.008-.003a.235.235 0 0 1-.136-.094c-.677-1.012.224-1.81.828-2.11a.272.272 0 0 0 .156-.241v-.677c-.321.248-.727.378-1.034.446a2.524 2.524 0 0 1-.921.038C.886 8.58.327 7.469.159 6.54c-.165-.905-.164-2.067-.157-3.028a.503.503 0 0 1 .662-.474l2.215.82a6 6 0 0 1 .154.063.5.5 0 0 1 .273.245.56.56 0 0 1 .049.115c.009.03.02.06.035.088a.83.83 0 0 0 .497.374.916.916 0 0 0 .445 0c.423-.1.636-.53.543-.84a.69.69 0 0 0-.293-.409c-.117-.07-.285-.11-.514-.054a.563.563 0 0 1-.261-1.095 1.88 1.88 0 0 1 .955.011c.144.04.282.097.41.175.27.162.48.395.624.67.064.12.116.246.156.378.04.132.047.316.047.316s.007-.187.046-.316c.103-.342.29-.648.553-.877Z M6.598 2.703a1.617 1.617 0 0 1 .398-.257 1.816 1.816 0 0 1 1.194-.1.562.562 0 1 1-.261 1.095c-.23-.055-.397-.016-.514.054a.69.69 0 0 0-.292.409c-.094.31.119.74.542.84a.905.905 0 0 0 .582-.048.872.872 0 0 0 .196-.123.63.63 0 0 0 .2-.291.562.562 0 0 1 .3-.348s.154-.067.178-.075l2.215-.82a.503.503 0 0 1 .662.474c.007.961.008 2.123-.157 3.028-.169.929-.723 2.04-2.088 2.245a2.53 2.53 0 0 1-.92-.038c-.308-.068-.714-.198-1.035-.446v.677c0 .103.064.195.156.24.604.3 1.505 1.099.828 2.11a.235.235 0 0 1-.136.095l-.008.003c-.1.028-2.254.642-2.64.642-.385 0-2.535-.614-2.636-.642l-.008-.003a.235.235 0 0 1-.136-.094c-.677-1.012.224-1.81.828-2.11a.272.272 0 0 0 .156-.241v-.677c-.321.248-.727.378-1.034.446a2.524 2.524 0 0 1-.921.038C.886 8.58.327 7.469.159 6.54c-.165-.905-.164-2.067-.157-3.028a.503.503 0 0 1 .662-.474l2.215.82a6 6 0 0 1 .154.063.5.5 0 0 1 .273.245.56.56 0 0 1 .049.115c.009.03.02.06.035.088a.83.83 0 0 0 .497.374.916.916 0 0 0 .445 0c.423-.1.636-.53.543-.84a.69.69 0 0 0-.293-.409c-.117-.07-.285-.11-.514-.054a.563.563 0 0 1-.261-1.095 1.88 1.88 0 0 1 .955.011c.144.04.282.097.41.175.27.162.48.395.624.67.064.12.116.246.156.378.04.132.047.316.047.316s.007-.187.046-.316c.103-.342.29-.648.553-.877ZM6.75 1.32a.75.75 0 1 1-1.5 0 .75.75 0 0 1 1.5 0Z"/></svg>
