<svg xmlns="http://www.w3.org/2000/svg" width="12" height="12" fill="currentColor" viewBox="0 0 12 12"><path fill-rule="evenodd" d="M3.8 2.698c-1.009 0-1.848.839-1.848 1.902 0 .63.109 1.015.45 1.482.4.546 1.121 1.203 2.471 2.277l1.13.898 1.13-.898c1.35-1.074 2.07-1.731 2.47-2.277.342-.467.451-.851.451-1.482 0-1.063-.84-1.902-1.848-1.902-.533 0-.946.242-1.245.514a2.575 2.575 0 0 0-.433.517l-.002.004a.6.6 0 0 1-1.048-.003l.525-.29-.525.29v.001l.001.002-.001-.003a2.025 2.025 0 0 0-.097-.145 2.567 2.567 0 0 0-.336-.373c-.298-.272-.712-.514-1.245-.514Zm2.203-.229a3.687 3.687 0 0 0-.15-.144c-.438-.4-1.127-.827-2.053-.827C2.104 1.498.752 2.899.752 4.6c0 .842.166 1.486.682 2.19.509.695 1.354 1.444 2.692 2.508l1.231.979c.379.3.913.3 1.291 0l1.231-.98c1.338-1.063 2.184-1.812 2.692-2.506.517-.705.683-1.349.683-2.19 0-1.702-1.352-3.103-3.048-3.103-.926 0-1.615.428-2.053.827a3.69 3.69 0 0 0-.15.144Zm.524 1.262-.524-.292.524.292Zm-.626 5.606Z" clip-rule="evenodd"/></svg>
