<svg xmlns="http://www.w3.org/2000/svg" width="12" height="12" fill="currentColor" viewBox="0 0 12 12"><path fill-rule="evenodd" d="M6.003 2.47a3.687 3.687 0 0 0-.15-.145c-.438-.399-1.126-.827-2.053-.827C2.104 1.498.752 2.9.752 4.601c0 .842.166 1.486.682 2.19.509.694 1.354 1.443 2.692 2.507l1.231.979c.379.301.913.301 1.291 0l1.231-.979c1.338-1.064 2.184-1.813 2.693-2.507.516-.704.682-1.348.682-2.19 0-1.701-1.352-3.103-3.048-3.103-.926 0-1.615.428-2.053.827a3.697 3.697 0 0 0-.15.145Z" clip-rule="evenodd"/></svg>
