<svg xmlns="http://www.w3.org/2000/svg" width="12" height="12" fill="currentColor" viewBox="0 0 12 12"><path fill-rule="evenodd" d="M0 5.76C0 3.045 0 1.687.844.844 1.687 0 3.044 0 5.76 0h.48c2.715 0 4.073 0 4.916.844.844.843.844 2.2.844 4.916v.48c0 2.715 0 4.073-.844 4.916-.843.844-2.2.844-4.916.844h-.48c-2.715 0-4.073 0-4.916-.844C0 10.313 0 8.956 0 6.24v-.48Zm10.403-3.245a.48.48 0 0 1 .308.818L9.585 4.46a.6.6 0 0 1-.493.172l-.773-.063-.96.96a1.44 1.44 0 1 1-.83-.867l.941-.941-.093-.804a.6.6 0 0 1 .172-.493l1.125-1.126a.48.48 0 0 1 .819.307l.037.86.873.051Zm-4.082-.342a3.84 3.84 0 1 0 3.504 3.493l-1.28-.108A2.583 2.583 0 1 1 6.47 3.46l-.15-1.287Z" clip-rule="evenodd"/></svg>
