<svg xmlns="http://www.w3.org/2000/svg" width="12" height="12" viewBox="0 0 12 12" fill="currentColor"><path fill-rule="evenodd" d="M1 5.8c0-2.263 0-3.394.703-4.097S3.537 1 5.8 1h.4c2.263 0 3.394 0 4.097.703S11 3.537 11 5.8v.4c0 2.263 0 3.394-.703 4.097S8.463 11 6.2 11h-.4c-2.263 0-3.394 0-4.097-.703S1 8.463 1 6.2zm8.67-2.704a.4.4 0 0 1 .256.682l-.938.938a.5.5 0 0 1-.412.143l-.644-.052-.799.8q.065.184.066.392a1.2 1.2 0 1 1-.757-1.116l.783-.783-.078-.67a.5.5 0 0 1 .144-.411l.938-.938a.4.4 0 0 1 .682.256l.03.716zM6.266 2.81a3.2 3.2 0 1 0 2.92 2.91L8.12 5.63a2.152 2.152 0 1 1-1.73-1.748z" clip-rule="evenodd"/></svg>