<svg xmlns="http://www.w3.org/2000/svg" width="12" height="12" fill="currentColor" viewBox="0 0 12 12"><path fill-rule="evenodd" d="M4.217.001a.75.75 0 0 1 .794.703l.152 2.49a.75.75 0 0 1-1.498.09L3.515.796a.75.75 0 0 1 .702-.794ZM8.265.26a.75.75 0 0 1 .49.941l-.83 2.644a.75.75 0 1 1-1.432-.45L7.324.751a.75.75 0 0 1 .94-.49Z M4.112 5.505h.02-.02Zm-.017 0h.037C4.33 5.5 5.492 5.48 6.125 6.6a.75.75 0 0 1-1.307.737c-.185-.327-.502-.332-.692-.332h-.014c-.485 0-.747.176-.899.354a1.01 1.01 0 0 0-.24.609C2.973 9.247 4.08 10.5 6 10.5c.9 0 1.66-.398 2.204-.952.56-.567.82-1.22.823-1.642v-.01c0-.387-.126-.65-.241-.813a1.132 1.132 0 0 0-.193-.213H8.59a.75.75 0 0 1 .85-1.237l.002.001.001.001.003.002.007.005.016.012a1.587 1.587 0 0 1 .179.148c.103.095.235.234.364.418.261.372.511.925.514 1.662v.014c0 .917-.495 1.934-1.254 2.705-.777.79-1.906 1.4-3.273 1.4-2.611 0-4.527-1.794-4.527-4.033v-.001a2.5 2.5 0 0 1 .599-1.581c.44-.516 1.117-.876 2.023-.88Z"/></svg>
