<svg xmlns="http://www.w3.org/2000/svg" width="12" height="12" fill="currentColor" viewBox="0 0 12 12"><g clip-path="url(#a)"><path d="M10.718 11.78a.75.75 0 0 0 1.062-1.062L1.282.22A.75.75 0 0 0 .22 1.282l1.73 1.73c-.21.02-.324.06-.438.122a.909.909 0 0 0-.378.378c-.088.163-.134.324-.134.77v3.513c0 1.115.116 1.519.334 1.926.218.408.538.727.945.945.407.218.811.334 1.926.334h3.59c1.044 0 1.465-.102 1.85-.294l1.073 1.074Z M6 0a3 3 0 0 1 3 3h.718c.446 0 .607.046.77.134a.906.906 0 0 1 .378.378c.088.163.134.324.134.77v3.513c0 .276-.007.509-.021.708L5.479 3H8a2 2 0 0 0-3.65-1.13l-.715-.716A2.995 2.995 0 0 1 6 0Zm2.537 4h-.074a.517.517 0 0 0-.258.053.363.363 0 0 0-.152.152.517.517 0 0 0-.053.258v.074c0 .119.019.193.053.258a.363.363 0 0 0 .152.152c.065.034.14.053.258.053h.074a.517.517 0 0 0 .258-.053.363.363 0 0 0 .152-.152A.517.517 0 0 0 9 4.537v-.074a.517.517 0 0 0-.053-.258.363.363 0 0 0-.152-.152A.517.517 0 0 0 8.537 4Z" clip-rule="evenodd"/></g><defs><clipPath id="a"><path d="M0 0h12v12H0z"/></clipPath></defs></svg>
