<svg fill="none" height="12" viewBox="0 0 12 12" width="12" xmlns="http://www.w3.org/2000/svg"><path clip-rule="evenodd" d="m6 11.25c-1.80496 0-3.51265-1.37649-4.41856-3.58142-.998371-2.43001-1.094994-5.75608-.3041-6.58108.39595-.413026.55731-.42521 2.27547-.154568.94296.148538 1.62992.218738 2.44719.218738s1.50423-.0702 2.44719-.218738c1.71811-.270642 1.87951-.258458 2.27551.154568.7909.825.6942 4.15107-.3041 6.58108-.90595 2.20493-2.61364 3.58142-4.4186 3.58142zm-.00009-2.1875c-1.82 0-2.548-1.6572-2.184-2.0715.17357-.19755.34714-.1125.6391.03056.32033.15695.78317.38374 1.5449.38374s1.22458-.22679 1.54491-.38374c.29196-.14306.46553-.22811.63909-.03056.364.4143-.364 2.0715-2.184 2.0715zm-1.92343-3.68187c.72329.06438 1.34811-.33086 1.39557-.8828s-.50041-1.05157-1.2237-1.11596c-.72329-.06438-1.34811.33086-1.39557.8828s.50041 1.05157 1.2237 1.11596zm2.45146-.8828c.04738.55194.67119.94718 1.3933.8828.72212-.06439 1.2691-.56402 1.22171-1.11596-.04738-.55194-.67118-.94718-1.3933-.8828-.72211.06439-1.26909.56402-1.22171 1.11596z" fill="currentColor" fill-rule="evenodd"/></svg>
