<svg xmlns="http://www.w3.org/2000/svg" width="12" height="12" fill="currentColor" viewBox="0 0 12 12"><path fill-rule="evenodd" d="M12 5.538C12 2.479 9.318 0 6.01 0 2.704 0 .022 2.48.022 5.538c0 1.087.34 2.102.925 2.952 0 .946-.409 1.912-.778 2.784-.05.118-.1.235-.147.35-.074.178.057.383.236.376 1.56-.066 2.678-.528 3.355-1.386a6.387 6.387 0 0 0 2.399.462c3.307 0 5.989-2.48 5.989-5.538ZM3.72 3.22a.75.75 0 0 1 1.06 0L6 4.438 7.217 3.22a.75.75 0 0 1 1.06 1.06L7.06 5.5l1.218 1.218a.75.75 0 0 1-1.06 1.06L5.999 6.56 4.78 7.777a.75.75 0 0 1-1.06-1.06l1.218-1.218L3.72 4.28a.75.75 0 0 1 0-1.06Z" clip-rule="evenodd"/></svg>
