<svg xmlns="http://www.w3.org/2000/svg" width="12" height="12" fill="currentColor" viewBox="0 0 12 12"><path d="M10.25 5.66c0-1.868-1.807-3.535-4.241-3.535-2.434 0-4.241 1.667-4.241 3.534 0 .633.2 1.23.556 1.745l.2.288-.025.349c-.032.466-.177.917-.323 1.29-.065.164-.14.331-.21.492.73-.098 1.24-.322 1.574-.633l.426-.394.554.173a4.97 4.97 0 0 0 1.489.224v1a5.974 5.974 0 0 1-1.788-.27c-.66.611-1.619.905-2.791.951a.653.653 0 0 1-.622-.916c.284-.631.65-1.354.694-1.985a4.05 4.05 0 0 1-.734-2.314c0-2.566 2.414-4.534 5.241-4.534 2.827 0 5.241 1.968 5.241 4.534 0 2.567-2.414 4.534-5.241 4.534v-1c2.434 0 4.241-1.666 4.241-3.534Z"/></svg>