<svg fill="none" height="12" viewBox="0 0 12 12" width="12" xmlns="http://www.w3.org/2000/svg"><path d="m6 0c3.31371 0 6 2.68629 6 6s-2.68629 6-6 6-6-2.68629-6-6 2.68629-6 6-6zm.75 2.25h-2.25c-.20711 0-.375.16789-.375.375v3h-.27952c-.15486 0-.21753.0174-.27864.05009-.06111.03268-.10907.08064-.14175.14175-.03269.06111-.05009.12378-.05009.27864v.18404c0 .15486.0174.21753.05009.27864.03268.06111.08064.10907.14175.14175.06111.03269.12378.05009.27864.05009h.27952v.75h-.27952c-.15486 0-.21753.0174-.27864.05009-.06111.03268-.10907.08064-.14175.14175-.03269.06111-.05009.12378-.05009.27864v.18404c0 .15486.0174.21753.05009.27864.03268.06111.08064.10907.14175.14175.06111.03269.12378.05009.27864.05009h.27952v.65452c0 .15486.0174.21753.05009.27864.03268.06111.08064.10907.14175.14175.06111.03269.12378.05009.27864.05009h.18404c.15486 0 .21753-.0174.27864-.05009.06111-.03268.10907-.08064.14175-.14175.03269-.06111.05009-.12378.05009-.27864v-.65452h1.02952c.15486 0 .21753-.0174.27864-.05009.06111-.03268.10907-.08064.14175-.14175.03269-.06111.05009-.12378.05009-.27864v-.18404c0-.15486-.0174-.21753-.05009-.27864-.03268-.06111-.08064-.10907-.14175-.14175-.06111-.03269-.12378-.05009-.27864-.05009h-1.02952v-.75h1.5c1.24264 0 2.25-1.00736 2.25-2.25s-1.00736-2.25-2.25-2.25zm0 1.125c.62132 0 1.125.50368 1.125 1.125s-.50368 1.125-1.125 1.125h-1.5v-2.25z" fill="currentColor"/></svg>
