<svg xmlns="http://www.w3.org/2000/svg" width="12" height="12" fill="currentColor" viewBox="0 0 12 12"><path d="M3 3.124v5.618a.119.119 0 0 1-.092.116c-.449.093-.627.13-.71.15-.19.043-.377.11-.546.208-.4.236-.652.56-.652.993 0 1.068.979 1.352 1.522 1.276 1.024-.142 1.651-.547 1.677-2.287L4.2 4.097c0-.132 0-.198.023-.254a.3.3 0 0 1 .095-.123c.047-.036.11-.053.238-.087l3.64-.97c.206-.055.308-.082.39-.058a.3.3 0 0 1 .17.131c.044.072.044.178.044.391v4.115a.119.119 0 0 1-.092.116c-.45.093-.627.13-.71.15-.19.043-.377.109-.545.208-.402.236-.653.558-.653.992 0 1.066.979 1.35 1.522 1.274C9.365 9.838 9.997 9.42 10 7.598V2.023c0-.524-.01-.803-.119-1.005a1 1 0 0 0-.63-.496C9.006.46 8.7.534 8.09.682l-3.87.944c-.436.106-.654.16-.817.28a1 1 0 0 0-.325.414c-.075.178-.078.39-.078.803Z"/></svg>
