<svg xmlns="http://www.w3.org/2000/svg" width="12" height="12" fill="currentColor" viewBox="0 0 12 12"><path d="M8.713 10.787c.01.01.021.017.031.025a.75.75 0 0 1-.246.146c-.12.042-.27.042-.57.042-.125 0-.189 0-.25-.01a.752.752 0 0 1-.3-.12c-.05-.034-.097-.079-.189-.166L4.535 8.176a.168.168 0 0 0-.026-.023.08.08 0 0 0-.022-.008.163.163 0 0 0-.035-.002h-.808c-.599 0-.899 0-1.14-.084a1.5 1.5 0 0 1-.92-.92C1.5 6.899 1.5 6.599 1.5 6c0-.598 0-.898.084-1.139.101-.29.29-.535.531-.713l6.598 6.64ZM7.929 1c.299 0 .449 0 .569.042a.75.75 0 0 1 .46.46c.042.12.042.27.042.57V6.96l1.786 1.798a.73.73 0 0 1 0 1.028.72.72 0 0 1-1.021 0L3.87 3.857h.002L2.266 2.241a.73.73 0 0 1 0-1.028.72.72 0 0 1 1.021 0l1.94 1.952 1.962-1.87c.092-.086.138-.13.189-.165a.752.752 0 0 1 .3-.12C7.74 1 7.804 1 7.929 1Z"/></svg>