<svg xmlns="http://www.w3.org/2000/svg" width="12" height="12" fill="currentColor" viewBox="0 0 12 12"><path fill-rule="evenodd" d="M8.5 6.54A1.756 1.756 0 0 0 7.241 6C6.273 6 5.5 6.778 5.5 7.723c0 .467.095.825.39 1.216.29.385.774.801 1.538 1.392l.703.544a.605.605 0 0 0 .738 0l.703-.544c.764-.59 1.248-1.007 1.538-1.392.295-.391.39-.749.39-1.216C11.5 6.778 10.727 6 9.759 6a1.757 1.757 0 0 0-1.259.54Z M6.645 1.537c-.26.047-.59.135-1.089.269l-1.243.333c-.499.134-.83.223-1.077.311-.24.086-.34.15-.397.202a1.05 1.05 0 0 0-.325.562c-.016.076-.022.195.024.445.047.26.135.59.269 1.089l1.056 3.941c.134.499.223.83.311 1.077.086.24.15.34.202.397.149.165.345.278.562.325.027.005.057.01.094.01a.75.75 0 1 1-.063 1.5 2.06 2.06 0 0 1-.343-.043 2.55 2.55 0 0 1-1.364-.788c-.238-.264-.383-.568-.5-.896a16.056 16.056 0 0 1-.34-1.165L1.35 5.107a16.06 16.06 0 0 1-.288-1.179C1 3.586.974 3.249 1.047 2.903a2.55 2.55 0 0 1 .788-1.365c.264-.238.568-.383.896-.5.312-.112.703-.216 1.165-.34L5.197.349c.462-.124.852-.228 1.179-.288.342-.062.679-.088 1.025-.015a2.55 2.55 0 0 1 1.365.788c.238.264.383.568.5.896.112.312.216.703.34 1.165l.193.72a.75.75 0 1 1-1.449.388l-.185-.691a15.82 15.82 0 0 0-.311-1.077c-.086-.24-.15-.34-.202-.397a1.05 1.05 0 0 0-.562-.325c-.076-.016-.195-.022-.445.024Z" clip-rule="evenodd"/></svg>
