<svg xmlns="http://www.w3.org/2000/svg" width="12" height="12" fill="currentColor" viewBox="0 0 12 12"><path d="M7.48 4.899a.65.65 0 0 1 .914.924l-2.58 2.552a.65.65 0 0 1-.914 0L3.611 7.098a.65.65 0 0 1 .914-.924l.832.824 2.122-2.1Z"/><path fill-rule="evenodd" d="M8.155.251a.65.65 0 0 1 .65.65V.98c.225.044.438.11.641.213.537.273.972.71 1.245 1.246.175.342.245.71.279 1.116.032.4.032.892.032 1.497V7.58c0 .605 0 1.098-.032 1.498-.034.407-.104.774-.279 1.116a2.85 2.85 0 0 1-1.245 1.245c-.342.174-.709.245-1.116.278-.4.033-.893.033-1.498.033H5.168c-.605 0-1.098 0-1.497-.033-.407-.033-.774-.104-1.116-.278a2.85 2.85 0 0 1-1.246-1.245c-.175-.342-.245-.71-.279-1.116-.032-.4-.032-.893-.032-1.498V5.05c0-.605 0-1.098.032-1.497.034-.407.104-.774.279-1.116.273-.536.71-.973 1.246-1.246.206-.105.421-.17.648-.214V.902A.65.65 0 0 1 4.502.884c.205-.002.427-.003.666-.003h.186a.649.649 0 0 1 1.296 0h.182c.242 0 .466.001.674.003a.65.65 0 0 1 .65-.633ZM4.503 2.185a.65.65 0 0 1-1.283.133 1.55 1.55 0 0 0-.752.71c-.066.128-.115.305-.142.632-.027.334-.027.765-.027 1.391V7.58c0 .626 0 1.057.027 1.391.027.327.076.504.142.632.148.292.385.53.677.678.128.065.305.114.631.14.335.028.765.029 1.392.029h1.664c.627 0 1.058-.001 1.393-.029.326-.026.502-.075.63-.14.292-.149.53-.386.678-.678.066-.128.115-.305.142-.632.027-.334.027-.765.027-1.391V5.05c0-.626 0-1.057-.027-1.391-.027-.327-.076-.504-.142-.632a1.55 1.55 0 0 0-.678-.677l-.067-.03a.65.65 0 0 1-1.283-.136 72.21 72.21 0 0 0-.673-.003h-.18a.65.65 0 0 1-1.3 0h-.184c-.251 0-.47.001-.665.003Z" clip-rule="evenodd"/></svg>
