<svg xmlns="http://www.w3.org/2000/svg" width="12" height="12" viewBox="0 0 12 12" fill="currentColor"><path d="M11 6.8c0 1.12 0 1.68-.218 2.108a2 2 0 0 1-.874.874C9.48 10 8.92 10 7.8 10H4.2c-1.12 0-1.68 0-2.108-.218a2 2 0 0 1-.874-.874C1 8.48 1 7.92 1 6.8v-.86c0-.112 0-.168.022-.21a.2.2 0 0 1 .087-.088c.043-.022.099-.022.211-.022h9.36c.112 0 .168 0 .21.022a.2.2 0 0 1 .088.087c.022.043.022.1.022.211zm-7.44-.05c-.196 0-.294 0-.369.038a.35.35 0 0 0-.153.153C3 7.016 3 7.114 3 7.31v.13c0 .196 0 .294.038.369.034.065.088.12.153.153C3.266 8 3.364 8 3.56 8h.13c.196 0 .294 0 .369-.038a.35.35 0 0 0 .153-.153c.038-.075.038-.173.038-.369v-.13c0-.196 0-.294-.038-.369a.35.35 0 0 0-.153-.153c-.075-.038-.173-.038-.369-.038zM7.8 2c1.12 0 1.68 0 2.108.218a2 2 0 0 1 .874.874c.126.246.178.536.2.951.007.11.01.166-.011.211a.2.2 0 0 1-.088.093c-.044.023-.101.023-.216.023H1.333c-.115 0-.172 0-.216-.023a.2.2 0 0 1-.088-.093c-.02-.045-.018-.1-.012-.21.023-.416.075-.706.2-.952a2 2 0 0 1 .875-.874C2.52 2 3.08 2 4.2 2z"/></svg>