<svg xmlns="http://www.w3.org/2000/svg" width="12" height="12" fill="currentColor" viewBox="0 0 12 12"><path fill-rule="evenodd" d="M8.645 1.612a.75.75 0 0 1 .243 1.033L4.25 10.14a.75.75 0 1 1-1.276-.79l4.638-7.495a.75.75 0 0 1 1.033-.243ZM2.5 3.375a.875.875 0 1 0 1.75 0 .875.875 0 0 0-1.75 0ZM3.375 1.5a1.875 1.875 0 1 0 0 3.75 1.875 1.875 0 0 0 0-3.75ZM7.75 8.625a.875.875 0 1 0 1.75 0 .875.875 0 0 0-1.75 0Zm.875-1.875a1.875 1.875 0 1 0 0 3.75 1.875 1.875 0 0 0 0-3.75Z" clip-rule="evenodd"/></svg>
