<svg xmlns="http://www.w3.org/2000/svg" width="12" height="12" fill="currentColor" viewBox="0 0 12 12"><path fill-rule="evenodd" d="M.218 1.092C0 1.52 0 2.08 0 3.2v5.6c0 1.12 0 1.68.218 2.108a2 2 0 0 0 .874.874C1.52 12 2.08 12 3.2 12h5.6c1.12 0 1.68 0 2.108-.218a2 2 0 0 0 .874-.874C12 10.48 12 9.92 12 8.8V3.2c0-1.12 0-1.68-.218-2.108a2 2 0 0 0-.874-.874C10.48 0 9.92 0 8.8 0H3.2C2.08 0 1.52 0 1.092.218a2 2 0 0 0-.874.874Zm6.488 5.047L5.051 8.213 4.29 7.148a.357.357 0 0 0-.578 0L2.066 9.447a.35.35 0 0 0 .29.553H9.63c.306 0 .479-.334.294-.566l-2.63-3.295a.38.38 0 0 0-.588 0Z" clip-rule="evenodd"/></svg>
