<svg xmlns="http://www.w3.org/2000/svg" width="12" height="12" viewBox="0 0 12 12" fill="currentColor"><path d="M9.481 1.501c.215-.006.459.04.663.197l.085.074.074.085c.157.204.202.448.196.662a2 2 0 0 1-.18.736c-.207.482-.582 1.011-1.062 1.492l-.475.474c-.243.243-.287.295-.314.345a.5.5 0 0 0-.057.187c-.005.057.003.126.07.461l.522 2.607a.947.947 0 0 1-1.702.727L6.284 8.095a5 5 0 0 0-.19-.262l-.007-.007-.013.008c-.06.04-.14.102-.275.208q-.305.24-.588.433a5 5 0 0 0-.186.13l-.01.008.002.007c.003.04.01.097.025.199l.107.748a.82.82 0 0 1-1.497.56l-.57-.882a2 2 0 0 0-.108-.159l-.06-.06a2 2 0 0 0-.158-.108l-.882-.57a.82.82 0 0 1-.332-.945l.059-.134a.82.82 0 0 1 .833-.418l.748.107c.102.015.158.022.199.026h.006l.008-.009.13-.185q.195-.284.433-.588c.106-.135.168-.216.208-.276l.008-.013-.007-.006a5 5 0 0 0-.262-.19L2.452 4.7a.946.946 0 0 1-.303-1.198l.082-.134a.95.95 0 0 1 .949-.37l2.606.521c.337.067.405.076.461.07a.5.5 0 0 0 .188-.056c.05-.027.102-.072.344-.315l.475-.474c.48-.48 1.01-.855 1.491-1.062.24-.103.493-.174.736-.18"/></svg>