<svg xmlns="http://www.w3.org/2000/svg" width="12" height="12" viewBox="0 0 12 12" fill="currentColor"><path d="M11.31 1.76c.163-.03.288.031.288.218V3.7c0 .184-.075.268-.262.302-.748.132-1.994.323-1.994.323-.166.04-.241.158-.241.326v3.254c0 1.876-.496 2.327-1.887 2.571-.74.13-1.611-.24-1.611-1.405 0-.57.356-1.11 1.093-1.252.563-.108-.21.027 1.064-.21.309-.057.344-.168.344-.404 0-.118-.003-.215-.006-.924V2.989c.003-.547.417-.748 1.298-.926a69 69 0 0 0 1.914-.303M3.838 8a.75.75 0 0 1 0 1.5H1.75a.75.75 0 0 1 0-1.5z"/><path d="M6 5a.75.75 0 0 1 0 1.5H1.75a.75.75 0 0 1 0-1.5zm0-3a.75.75 0 0 1 0 1.5H1.75a.75.75 0 0 1 0-1.5z"/></svg>