<svg xmlns="http://www.w3.org/2000/svg" width="12" height="12" fill="currentColor" viewBox="0 0 12 12"><path d="M5.999 2.752A2.5 2.5 0 0 1 8.498 5.25v2.504l-.014.255a2.5 2.5 0 0 1-1.98 2.19v.796a.5.5 0 0 1-1 0v-.794a2.499 2.499 0 0 1-1.99-2.192L3.5 7.754V5.25a2.498 2.498 0 0 1 2.498-2.498Zm0 1c-.827 0-1.498.67-1.498 1.498V6H5v.002h.653a.35.35 0 0 1 .35.35v.3a.35.35 0 0 1-.35.35h-1.15V7H4.5v.754a1.499 1.499 0 0 0 2.997 0V5.25A1.5 1.5 0 0 0 6 3.752Zm0-3.002a4.5 4.5 0 0 1 4.5 4.5.75.75 0 0 1 .749.751v1.5a.75.75 0 0 1-.75.75h-.248a.75.75 0 0 1-.75-.75L9.499 5.25a3.5 3.5 0 0 0-7 0l-.001 2.251a.75.75 0 0 1-.75.75H1.5a.75.75 0 0 1-.75-.75v-1.5a.75.75 0 0 1 .749-.75A4.501 4.501 0 0 1 5.999.75Z"/></svg>