<svg xmlns="http://www.w3.org/2000/svg" width="12" height="12" fill="currentColor" viewBox="0 0 12 12"><path d="M2.584 8.386a4.9 4.9 0 0 1-1.084.473V9.5a4.202 4.202 0 0 0 1.518-.383 4.2 4.2 0 0 0 1.269-.9c.368-.371.65-.81.867-1.317a4.351 4.351 0 0 0 .315-1.654 3.12 3.12 0 0 0-.174-1.07 2.906 2.906 0 0 0-.488-.866 2.282 2.282 0 0 0-.715-.596 1.745 1.745 0 0 0-.868-.214c-.488 0-.89.158-1.225.461A1.47 1.47 0 0 0 1.5 4.098c0 .428.12.788.369 1.07a1.1 1.1 0 0 0 .867.416.943.943 0 0 0 .39-.068c.098-.045.185-.09.26-.146.077-.056.153-.102.228-.147a.513.513 0 0 1 .272-.067c.108 0 .195.067.27.214.077.146.11.315.11.506 0 .315-.077.63-.218.946a3.137 3.137 0 0 1-.585.855c-.25.259-.543.495-.879.709Zm5.032 0a4.9 4.9 0 0 1-1.085.473V9.5a4.203 4.203 0 0 0 1.518-.383 4.205 4.205 0 0 0 1.27-.9c.368-.371.65-.81.866-1.317a4.35 4.35 0 0 0 .315-1.654c0-.383-.054-.743-.174-1.07a2.906 2.906 0 0 0-.487-.866 2.282 2.282 0 0 0-.716-.596 1.745 1.745 0 0 0-.868-.214c-.488 0-.889.158-1.225.461a1.47 1.47 0 0 0-.499 1.137c0 .428.12.788.369 1.07.239.28.531.416.867.416a.943.943 0 0 0 .39-.068c.098-.045.185-.09.261-.146a2.58 2.58 0 0 1 .228-.147.513.513 0 0 1 .27-.067c.11 0 .196.067.272.214.076.146.108.315.108.506 0 .315-.076.63-.216.946a3.138 3.138 0 0 1-.586.855c-.25.259-.542.495-.878.709Z"/></svg>
