<svg xmlns="http://www.w3.org/2000/svg" width="12" height="12" fill="currentColor" viewBox="0 0 12 12"><path fill-rule="evenodd" d="M9.6 0H2.4c-.32 0-.588 0-.809.018-.23.019-.452.06-.663.167a1.7 1.7 0 0 0-.743.743 1.74 1.74 0 0 0-.167.663C0 1.811 0 2.081 0 2.4v3.646c0 .233 0 .42.033.586a1.7 1.7 0 0 0 1.335 1.335C1.534 8 1.721 8 1.954 8H2a.5.5 0 0 0 0-1c-.303 0-.381-.003-.437-.014a.7.7 0 0 1-.55-.55C1.004 6.382 1 6.304 1 6V2.42c0-.345 0-.573.015-.748a.771.771 0 0 1 .061-.29.7.7 0 0 1 .306-.306.771.771 0 0 1 .29-.061C1.848 1 2.077 1 2.42 1h7.16c.345 0 .573 0 .748.015a.788.788 0 0 1 .29.061.7.7 0 0 1 .306.306.773.773 0 0 1 .062.29c.014.175.014.403.014.748v3.16c0 .345 0 .573-.014.748a.77.77 0 0 1-.062.29.7.7 0 0 1-.306.306.574.574 0 0 1-.186.065c-.062.01-.134.01-.295.01H10a.5.5 0 1 0 0 1h.156c.135 0 .281.001.427-.021a1.7 1.7 0 0 0 1.232-.906 1.74 1.74 0 0 0 .167-.663C12 6.189 12 5.919 12 5.6V2.4c0-.32 0-.588-.018-.809a1.736 1.736 0 0 0-.167-.663 1.7 1.7 0 0 0-.743-.743 1.734 1.734 0 0 0-.663-.167C10.19 0 9.92 0 9.601 0ZM7.824 7.836l.017.298a.585.585 0 1 1 1.17-.016l-.045 1.404c.049 1.41-.85 2.57-2.487 2.473-1.88-.112-2.54-1.404-2.54-1.404L3.041 8.54a.52.52 0 0 1 .926-.472l.514.875.086-3.311a.56.56 0 0 1 1.119.027l-.043 1.844a.543.543 0 0 1 1.07.126l-.001.235a.556.556 0 0 1 1.11-.028Z" clip-rule="evenodd"/></svg>
