<svg fill="none" height="12" viewBox="0 0 12 12" width="12" xmlns="http://www.w3.org/2000/svg"><path d="m7.57943.915169.05964-.08577c.18856-.226281.50845-.278599.756-.13844l.08904.061618 2.77379 2.313403.0468.04992c.1886.22628.1824.55035-.0001.76857l-.0767.07647-2.74379 2.28649c-.10783.08986-.24375.13907-.38411.13907-.29823 0-.54565-.21759-.59215-.50268l-.00785-.09732v-1.287l-3.5.00051c-.51284 0-.93551.38604-.99327.88337l-.00673.11663v2.5c0 .51283.38604.9355.88338.99327l.11662.00673h4c.55228 0 1 .44771 1 .99999 0 .5128-.38604.9355-.88338.9933l-.11662.0067h-4c-1.59768 0-2.90366-1.24891-2.99491-2.82372l-.00509-.17627v-2.5c0-1.59769 1.24892-2.90367 2.82373-2.99491l.17627-.00509 3.5-.00052v-1.28598c0-.10527.02768-.20804.07943-.298341l.05964-.08577z" fill="currentColor"/></svg>
