<svg xmlns="http://www.w3.org/2000/svg" width="12" height="12" fill="currentColor" viewBox="0 0 12 12"><path fill-rule="evenodd" d="M4.895 8.343c.63.63 2.731-.63 3.992-1.891C11.41 3.93 11.41 1.409 10.988.988c-.42-.42-2.941-.42-5.463 2.102-1.26 1.26-2.521 3.362-1.891 3.992l1.26 1.261ZM7.848 4.13a.792.792 0 1 0 1.12-1.12.792.792 0 0 0-1.12 1.12Z M3.704 10.14c-.574.575-1.81.708-2.352.739a.238.238 0 0 1-.254-.254c.031-.541.164-1.778.738-2.352a1.32 1.32 0 0 1 1.868 1.868ZM2.543 6.282c.137.056.29-.044.313-.19.068-.422.247-.868.462-1.285.305-.59.73-1.21 1.19-1.762a.274.274 0 0 0-.153-.445l-.529-.1a.528.528 0 0 0-.472.146l-2.26 2.26a.528.528 0 0 0 .176.864l1.273.512Zm3.152 3.152c-.055-.137.044-.289.19-.313.423-.068.868-.247 1.286-.462.588-.305 1.208-.73 1.761-1.19a.274.274 0 0 1 .445.153l.1.529a.528.528 0 0 1-.146.472l-2.26 2.26a.528.528 0 0 1-.864-.176l-.512-1.273Z"/></svg>
