<svg xmlns="http://www.w3.org/2000/svg" width="12" height="12" fill="currentColor" viewBox="0 0 12 12"><path d="M7.646 1.495H4.344c-.503 0-.918 0-1.256.028-.352.028-.675.09-.978.244A2.5 2.5 0 0 0 1.017 2.86c-.154.303-.216.626-.244.978-.028.338-.028.753-.028 1.256v1.812c0 .503 0 .918.028 1.256.028.352.09.675.244.978a2.5 2.5 0 0 0 1.093 1.092c.303.155.626.217.978.245.338.028.753.028 1.256.028H5a.625.625 0 1 0 0-1.25h-.63c-.535 0-.9 0-1.18-.023-.275-.023-.415-.063-.512-.113a1.25 1.25 0 0 1-.547-.547c-.05-.097-.09-.237-.113-.511a16.155 16.155 0 0 1-.023-1.181v-.655L4.252 5.17l-.21 1.835c-.121 1.059 1.16 1.677 1.913.924l1.856-1.856a.625.625 0 0 0-.884-.884L5.325 6.792l.194-1.702c.1-.875-.797-1.52-1.594-1.147l-1.93.902c0-.39.005-.675.023-.906.023-.274.063-.414.113-.511a1.25 1.25 0 0 1 .547-.547c.097-.05.237-.09.511-.113.282-.023.646-.023 1.181-.023h3.25c.535 0 .9 0 1.18.023.275.023.415.063.512.113.236.12.427.311.547.547.065.127.11.317.127.76a.625.625 0 1 0 1.249-.047c-.018-.477-.067-.898-.262-1.281A2.5 2.5 0 0 0 9.88 1.767c-.303-.154-.626-.216-.978-.244-.338-.028-.753-.028-1.256-.028Zm3.024 4.666a.55.55 0 0 1 .78 0l.389.39a.55.55 0 0 1 0 .779l-.39.389-1.168-1.168.39-.39Zm-.928.929 1.168 1.168-2.386 2.386a2.204 2.204 0 0 1-.86.532l-.946.315a.165.165 0 0 1-.21-.209l.316-.945c.108-.325.29-.62.532-.861L9.742 7.09Z"/></svg>
