<svg xmlns="http://www.w3.org/2000/svg" width="12" height="12" fill="currentColor" viewBox="0 0 12 12"><path d="M4.344 1.495h3.302c.503 0 .918 0 1.256.028.352.028.675.09.978.244a2.5 2.5 0 0 1 1.092 1.093c.155.303.217.626.245.978.022.26.026.565.028.921a1.8 1.8 0 0 0-1.458.518L6.472 8.592a3.453 3.453 0 0 0-.834 1.35l-.188.563H4.344c-.503 0-.918 0-1.256-.028-.352-.028-.675-.09-.978-.245A2.5 2.5 0 0 1 1.017 9.14c-.154-.303-.216-.626-.244-.978C.745 7.824.745 7.41.745 6.906V6.34a.65.65 0 0 0 .02-.009L3.252 5.17l-.21 1.835c-.121 1.059 1.16 1.677 1.913.924l1.856-1.856a.625.625 0 0 0-.884-.884L4.325 6.792l.194-1.702c.1-.875-.797-1.52-1.594-1.147L.745 4.962c0-.444.002-.816.028-1.124.028-.352.09-.675.244-.978A2.5 2.5 0 0 1 2.11 1.767c.303-.154.626-.216.978-.244.338-.028.753-.028 1.256-.028Zm6.326 4.666a.55.55 0 0 1 .78 0l.389.39a.55.55 0 0 1 0 .779l-.39.389-1.168-1.168.39-.39Zm-.928.929 1.168 1.168-2.386 2.386a2.204 2.204 0 0 1-.86.532l-.946.315a.165.165 0 0 1-.21-.209l.316-.945c.108-.325.29-.62.532-.861L9.742 7.09Z"/></svg>
