<svg xmlns="http://www.w3.org/2000/svg" width="12" height="12" viewBox="0 0 12 12" fill="currentColor"><path d="M7.392 1.426c.476-.476.713-.713.987-.802a1.2 1.2 0 0 1 .742 0c.274.089.511.326.987.802l.466.466c.476.476.713.713.802.987a1.2 1.2 0 0 1 0 .742c-.089.274-.326.511-.802.987l-.466.466c-.476.476-.713.713-.987.802a1.2 1.2 0 0 1-.742 0c-.274-.089-.511-.326-.987-.802l-.466-.466c-.476-.476-.713-.713-.802-.987a1.2 1.2 0 0 1 0-.742c.089-.274.326-.511.802-.987zm-6.262.229C1 1.912 1 2.248 1 2.92v.66c0 .672 0 1.008.13 1.265a1.2 1.2 0 0 0 .525.524c.257.131.593.131 1.265.131h.66c.672 0 1.008 0 1.265-.13a1.2 1.2 0 0 0 .524-.525c.131-.257.131-.593.131-1.265v-.66c0-.672 0-1.008-.13-1.265a1.2 1.2 0 0 0-.525-.524C4.588 1 4.252 1 3.58 1h-.66c-.672 0-1.008 0-1.265.13a1.2 1.2 0 0 0-.524.525m-.001 5.5C1 7.412 1 7.748 1 8.42v.66c0 .672 0 1.008.13 1.265a1.2 1.2 0 0 0 .525.524C1.912 11 2.248 11 2.92 11h.66c.672 0 1.008 0 1.265-.13a1.2 1.2 0 0 0 .524-.525c.131-.257.131-.593.131-1.265v-.66c0-.672 0-1.008-.13-1.265a1.2 1.2 0 0 0-.525-.524C4.588 6.5 4.252 6.5 3.58 6.5h-.66c-.672 0-1.008 0-1.265.13a1.2 1.2 0 0 0-.524.525m5.499 0c-.13.257-.13.593-.13 1.265v.66c0 .672 0 1.008.13 1.265a1.2 1.2 0 0 0 .525.524C7.412 11 7.748 11 8.42 11h.66c.672 0 1.008 0 1.265-.13a1.2 1.2 0 0 0 .524-.525C11 10.088 11 9.752 11 9.08v-.66c0-.672 0-1.008-.13-1.265a1.2 1.2 0 0 0-.525-.524C10.088 6.5 9.752 6.5 9.08 6.5h-.66c-.672 0-1.008 0-1.265.13a1.2 1.2 0 0 0-.524.525"/></svg>