<svg fill="none" height="12" viewBox="0 0 12 12" width="12" xmlns="http://www.w3.org/2000/svg"><g fill="currentColor"><path d="m7.39235 1.42568c.47523-.475218.71284-.712828.98683-.801854.24101-.078309.50063-.078309.74164 0 .27399.089026.5116.326635.98678.801854l.4667.46669c.4753.47522.7129.71283.8019.98683.0783.24101.0783.50063 0 .74164-.089.27399-.3266.5116-.8019.98682l-.4667.46669c-.47517.47522-.71279.71283-.98678.80186-.24101.07831-.50063.07831-.74164 0-.27399-.08903-.5116-.32664-.98683-.80186l-.46669-.46669c-.47522-.47522-.71283-.71283-.80185-.98682-.07831-.24101-.07831-.50063 0-.74164.08902-.274.32663-.51161.80185-.98683z"/><path d="m1.13079 1.65523c-.13079.25669-.13079.59272-.13079 1.26478v.66c0 .67207 0 1.0081.13079 1.26479.11505.2258.29863.40937.52442.52442.2567.13079.59273.13079 1.26479.13079h.66c.67206 0 1.00809 0 1.26479-.13079.22579-.11505.40937-.29862.52442-.52442.13079-.25669.13079-.59272.13079-1.26479v-.66c0-.67206 0-1.00809-.13079-1.26478-.11505-.2258-.29863-.40938-.52442-.52442-.2567-.1308-.59273-.1308-1.26479-.1308h-.66c-.67206 0-1.00809 0-1.26479.1308-.22579.11504-.40937.29862-.52442.52442z"/><path d="m1.13079 7.15523c-.13079.25669-.13079.59272-.13079 1.26478v.66c0 .67207 0 1.00809.13079 1.26479.11505.2258.29863.4094.52442.5244.25669.1308.59272.1308 1.26478.1308h.66001c.67205 0 1.0081 0 1.26479-.1308.22579-.115.40937-.2986.52442-.5244.13079-.2567.13079-.59272.13079-1.26479v-.66c0-.67206 0-1.00809-.13079-1.26478-.11505-.2258-.29863-.40938-.52442-.52442-.2567-.1308-.59273-.1308-1.26479-.1308h-.66c-.67206 0-1.00809 0-1.26479.1308-.22579.11504-.40937.29862-.52442.52442z"/><path d="m6.63079 7.15523c-.13079.25669-.13079.59272-.13079 1.26478v.66c0 .67207 0 1.00809.13079 1.26479.11505.2258.29863.4094.52442.5244.25669.1308.59272.1308 1.26478.1308h.66001c.67205 0 1.0081 0 1.2648-.1308.2258-.115.4094-.2986.5244-.5244.1308-.2567.1308-.59272.1308-1.26479v-.66c0-.67206 0-1.00809-.1308-1.26478-.115-.2258-.2986-.40938-.5244-.52442-.2567-.1308-.59274-.1308-1.2648-.1308h-.66c-.67206 0-1.00809 0-1.26479.1308-.22579.11504-.40937.29862-.52442.52442z"/></g></svg>
