<svg xmlns="http://www.w3.org/2000/svg" width="12" height="12" viewBox="0 0 12 12" fill="currentColor"><path fill-rule="evenodd" d="M6 0a3 3 0 0 1 3 3h.718c.446 0 .607.047.77.134q.246.132.378.378c.087.163.134.324.134.77v1.42A2.8 2.8 0 0 0 9.955 5.5c-.385 0-.737.08-1.056.216A2.7 2.7 0 0 0 7.844 5.5 2.845 2.845 0 0 0 5 8.347c0 .647.152 1.259.61 1.869.203.27.461.526.753.784H4.205c-1.114 0-1.518-.116-1.926-.334a2.27 2.27 0 0 1-.945-.945C1.116 9.313 1 8.909 1 7.795V4.282c0-.446.047-.607.134-.77a.9.9 0 0 1 .378-.378c.163-.087.324-.134.77-.134H3a3 3 0 0 1 3-3M3.463 4a.5.5 0 0 0-.258.054.36.36 0 0 0-.151.151.5.5 0 0 0-.054.258v.074c0 .119.019.193.054.258a.36.36 0 0 0 .151.151c.065.035.14.054.258.054h.074a.5.5 0 0 0 .258-.054.36.36 0 0 0 .151-.151A.5.5 0 0 0 4 4.537v-.074a.5.5 0 0 0-.054-.258.36.36 0 0 0-.151-.151A.5.5 0 0 0 3.537 4zm5 0a.5.5 0 0 0-.258.054.36.36 0 0 0-.151.151.5.5 0 0 0-.054.258v.074c0 .119.019.193.054.258a.36.36 0 0 0 .151.151c.065.035.14.054.258.054h.074a.5.5 0 0 0 .258-.054.36.36 0 0 0 .151-.151A.5.5 0 0 0 9 4.537v-.074a.5.5 0 0 0-.054-.258.36.36 0 0 0-.151-.151A.5.5 0 0 0 8.537 4zM6 1a2 2 0 0 0-2 2h4a2 2 0 0 0-2-2" clip-rule="evenodd"/><path d="M9.955 7.001c.742 0 1.345.602 1.345 1.345 0 .75-.301 1.127-1.575 2.119l-.58.451a.4.4 0 0 1-.49 0l-.58-.451C6.8 9.473 6.5 9.096 6.5 8.345c0-.742.602-1.344 1.344-1.344.397 0 .751.187 1.055.55.305-.363.658-.55 1.056-.55"/></svg>