<svg xmlns="http://www.w3.org/2000/svg" width="12" height="12" viewBox="0 0 12 12" fill="currentColor"><path d="M9.71 6.344a.5.5 0 0 1 .48.52 4 4 0 0 1-.027.365l-.002.012c-.006.046-.018.167-.066.288l-.02.05-.031.045c-.173.255-.49.786-1.35 1.215-.46.23-1.024.505-2.183.567-.804.043-2.082.048-2.711.05l-.639.002a.5.5 0 0 1-.003-1l.638-.002c.638-.002 1.89-.006 2.662-.048.974-.052 1.398-.269 1.79-.464.553-.276.766-.581.918-.808l.004-.023.002-.013c.005-.041.012-.087.02-.276a.5.5 0 0 1 .519-.48m-7.355-.965v-3.02a.5.5 0 0 1 1 0v3.02a.5.5 0 0 1-1 0m3.958-3.344c0-.01.34-.464.878-.316.082.131.12.29.122.298v.028l-.001.01h.001v.005l.002.078.008.31c.007.267.018.657.034 1.146.05.515.12.818.189 1.021a.5.5 0 0 1-.443.897.87.87 0 0 1-.456-.443L6.63 5.03c-.12-.315-.21-.725-.27-1.354v-.031a147 147 0 0 1-.044-1.485l-.002-.08v-.009l.004.013-.004-.04zm.122.336h.003l-.01-.01z"/></svg>