<svg xmlns="http://www.w3.org/2000/svg" width="12" height="12" fill="currentColor" viewBox="0 0 12 12"><path fill-rule="evenodd" d="M3.328 1H8.68c.258 0 .494 0 .692.016.213.018.446.057.676.175.33.168.597.435.765.765.117.23.157.463.175.676.016.198.016.434.016.692v5.348c0 .258 0 .494-.016.692a1.775 1.775 0 0 1-.175.677 1.75 1.75 0 0 1-.765.764c-.23.118-.463.158-.676.175-.198.016-.434.016-.692.016H3.328c-.258 0-.494 0-.692-.016a1.775 1.775 0 0 1-.677-.175 1.75 1.75 0 0 1-.764-.764 1.774 1.774 0 0 1-.175-.677c-.016-.198-.016-.434-.016-.692V3.324c0-.258 0-.494.016-.692.017-.213.057-.446.175-.676a1.75 1.75 0 0 1 .764-.765c.23-.118.464-.157.677-.175C2.834 1 3.07 1 3.328 1Zm-.693 1.53h.001Zm.002-.001a.626.626 0 0 1 .121-.018c.13-.01.304-.011.596-.011h5.3c.292 0 .467 0 .596.011a.626.626 0 0 1 .12.018.25.25 0 0 1 .105.104.628.628 0 0 1 .018.121c.01.13.01.304.01.596v5.296c0 .292 0 .467-.01.596a.628.628 0 0 1-.018.12.25.25 0 0 1-.105.105.627.627 0 0 1-.12.018c-.13.01-.304.011-.596.011h-5.3c-.292 0-.467 0-.596-.011a.627.627 0 0 1-.12-.018.25.25 0 0 1-.105-.104.628.628 0 0 1-.018-.121 8.339 8.339 0 0 1-.011-.596V3.35c0-.292 0-.467.011-.596a.628.628 0 0 1 .018-.12.25.25 0 0 1 .104-.105Zm-.103.102v.001Zm0 6.734v-.001Zm.1.101h.002Zm6.739 0h-.001Zm.101-.1v-.002Zm0-6.735v.001Zm-.102-.102a.01.01 0 0 1 .001 0Z" clip-rule="evenodd"/></svg>
