<svg fill="none" height="12" viewBox="0 0 12 12" width="12" xmlns="http://www.w3.org/2000/svg"><path clip-rule="evenodd" d="m12 6c0-3.31371-2.68629-6-6-6s-6 2.68629-6 6 2.68629 6 6 6 6-2.68629 6-6zm-6.22418-3.29577c.0611-.12381.21101-.17464.33482-.11354.0493.02433.08921.06424.11354.11354l.95139 1.92772 2.12736.30913c.13664.01985.23131.14671.21146.28335-.00791.05441-.03353.10469-.0729.14307l-1.53938 1.50052.3634 2.11877c.02334.13608-.06806.26532-.20414.28866-.05419.0093-.10993.00047-.1586-.02512l-1.90277-1.00034-1.90277 1.00034c-.12222.06425-.27337.01727-.33762-.10494-.02559-.04867-.03442-.10441-.02512-.1586l.3634-2.11877-1.53938-1.50052c-.09887-.09637-.10089-.25465-.00452-.35352.03838-.03937.08866-.065.14307-.0729l2.12737-.30913z" fill="currentColor" fill-rule="evenodd"/></svg>
