<svg xmlns="http://www.w3.org/2000/svg" width="12" height="12" viewBox="0 0 12 12" fill="currentColor"><path d="M6 5a1 1 0 1 1 0 2 1 1 0 0 1 0-2"/><path fill-rule="evenodd" d="M6 .5a.5.5 0 0 1 .5.5v.528A4.5 4.5 0 0 1 10.472 5.5H11a.5.5 0 0 1 0 1h-.528A4.5 4.5 0 0 1 6.5 10.47V11a.5.5 0 0 1-1 0v-.53A4.5 4.5 0 0 1 1.528 6.5H1a.5.5 0 0 1 0-1h.528A4.5 4.5 0 0 1 5.5 1.528V1A.5.5 0 0 1 6 .5M6.5 3a.5.5 0 0 1-1 0v-.465A3.5 3.5 0 0 0 2.536 5.5H3a.5.5 0 0 1 0 1h-.464A3.5 3.5 0 0 0 5.5 9.464V9a.5.5 0 0 1 1 0v.464A3.5 3.5 0 0 0 9.464 6.5H9a.5.5 0 0 1 0-1h.464A3.5 3.5 0 0 0 6.5 2.535z" clip-rule="evenodd"/></svg>