<svg xmlns="http://www.w3.org/2000/svg" width="12" height="12" fill="currentColor" viewBox="0 0 12 12"><path fill-rule="evenodd" d="M7.137 9.56H5.374A2.012 2.012 0 0 1 3.434 11c-.939 0-1.728-.63-1.953-1.481a1.147 1.147 0 0 1-.28-.096 1.272 1.272 0 0 1-.561-.551 1.259 1.259 0 0 1-.128-.487A6.4 6.4 0 0 1 .5 7.887v-2.49c0-.484 0-.881.027-1.203.028-.334.087-.635.233-.916.228-.44.593-.799 1.041-1.023.287-.143.594-.201.933-.229C3.063 2 3.466 2 3.96 2h1.218c.29 0 .54 0 .746.017.217.017.434.055.642.16.31.155.563.403.72.708.107.204.146.416.164.63.007.087.011.182.014.285h.419c.224 0 .422 0 .613.045.169.04.33.105.477.194.168.1.308.238.466.393l.032.032 1.352 1.328.033.032c.158.155.298.292.4.457.091.145.158.303.198.468.046.188.046.382.046.602v.785c0 .137 0 .269-.009.38a1.12 1.12 0 0 1-.1.405 1.126 1.126 0 0 1-.649.574A1.824 1.824 0 0 1 8.933 11a1.826 1.826 0 0 1-1.796-1.44Zm.33-1.44V4.88h.37c.296 0 .354.003.402.015.057.013.11.035.16.065.042.025.085.063.294.268l1.353 1.328c.208.205.247.247.273.29.03.048.052.1.066.155.011.048.015.105.015.395v.724a1.842 1.842 0 0 0-1.467-.72c-.6 0-1.132.283-1.466.72ZM6.353 3.603c.013.153.014.354.014.665V8.48h-.993a2.012 2.012 0 0 0-1.94-1.44c-.812 0-1.511.47-1.831 1.149-.003-.08-.003-.182-.003-.321V5.42c0-.513 0-.865.023-1.138.022-.267.063-.41.117-.514.123-.237.32-.43.56-.55.106-.054.252-.093.524-.115.278-.023.637-.023 1.16-.023h1.173c.317 0 .521 0 .677.013.15.012.205.032.232.046a.545.545 0 0 1 .24.236.606.606 0 0 1 .047.228ZM3.433 8.12a.908.908 0 0 0-.916.9c0 .497.41.9.916.9a.908.908 0 0 0 .917-.9c0-.497-.41-.9-.917-.9Zm5.5.36a.727.727 0 0 0-.733.72c0 .398.328.72.733.72a.727.727 0 0 0 .734-.72.727.727 0 0 0-.734-.72Z" clip-rule="evenodd"/></svg>