<svg xmlns="http://www.w3.org/2000/svg" width="12" height="12" fill="none" viewBox="0 0 12 12"><path fill="currentColor" d="M6 .5c-1.6569 0-3 1.3432-3 3V5h-.22c-.448 0-.672 0-.8432.0872a.8.8 0 0 0-.3496.3496C1.5 5.608 1.5 5.832 1.5 6.28v3.44c0 .448 0 .6721.0872.8432a.8002.8002 0 0 0 .3496.3496C2.108 11 2.332 11 2.78 11h6.44c.448 0 .672 0 .8432-.0872a.8003.8003 0 0 0 .3496-.3496c.0872-.1711.0872-.3952.0872-.8432V6.28c0-.448 0-.672-.0872-.8432a.8002.8002 0 0 0-.3496-.3496C9.8921 5 9.668 5 9.22 5H4.5V3.5C4.5 2.6716 5.1716 2 6 2c.6528 0 1.21.4175 1.4157 1.0023a.75.75 0 1 0 1.415-.4975C8.4208 1.3381 7.3093.5 6 .5Z"/></svg>
