<svg xmlns="http://www.w3.org/2000/svg" width="12" height="12" fill="currentColor" viewBox="0 0 12 12"><path fill-rule="evenodd" d="M.5 2.929C.5 1.904.5 1.39.7.999.876.655 1.156.375 1.5.2c.393-.2.907-.2 1.933-.2h5.134c1.026 0 1.54 0 1.932.2.345.175.625.455.801.8.2.391.2.904.2 1.929v4.718c0 1.026 0 1.538-.2 1.93a1.832 1.832 0 0 1-.801.8c-.392.2-.906.2-1.932.2h-.19c-.51 0-.85.355-1.189.711C6.848 11.644 6.51 12 6 12c-.51 0-.849-.356-1.188-.712-.34-.356-.68-.712-1.188-.712h-.19c-1.027 0-1.54 0-1.933-.2a1.832 1.832 0 0 1-.801-.8c-.2-.39-.2-.903-.2-1.929V2.93Zm7 .571a1.5 1.5 0 1 0-3 0 1.5 1.5 0 0 0 3 0ZM3 8.113v-.382C3 6.385 4.999 6 6 6s3 .385 3 1.73v.383a.382.382 0 0 1-.377.387H3.377A.382.382 0 0 1 3 8.113Z" clip-rule="evenodd"/></svg>
