<svg xmlns="http://www.w3.org/2000/svg" width="12" height="12" fill="currentColor" viewBox="0 0 12 12"><path fill-rule="evenodd" d="M1 2.4c0-.84 0-1.26.163-1.581A1.5 1.5 0 0 1 1.82.163C2.139 0 2.559 0 3.4 0h5.2c.84 0 1.26 0 1.581.163a1.5 1.5 0 0 1 .655.656c.164.32.164.74.164 1.581v7.2c0 .84 0 1.26-.164 1.581a1.5 1.5 0 0 1-.655.655C9.861 12 9.441 12 8.6 12H3.4c-.84 0-1.26 0-1.581-.164a1.5 1.5 0 0 1-.656-.655C1 10.861 1 10.441 1 9.6V2.4Zm2 .313c0-.25 0-.374.049-.47a.445.445 0 0 1 .194-.194C3.34 2 3.463 2 3.713 2h.244c.25 0 .374 0 .47.049.084.042.152.11.194.194.049.096.049.22.049.47v.244c0 .25 0 .374-.049.47a.445.445 0 0 1-.194.194c-.096.049-.22.049-.47.049h-.244c-.25 0-.374 0-.47-.049a.445.445 0 0 1-.194-.194C3 3.33 3 3.207 3 2.957v-.244Zm.049 2.695C3 5.504 3 5.628 3 5.878v.244c0 .25 0 .374.049.47.042.084.11.152.194.194.096.049.22.049.47.049h.244c.25 0 .374 0 .47-.049a.446.446 0 0 0 .194-.194c.049-.096.049-.22.049-.47v-.244c0-.25 0-.374-.049-.47a.446.446 0 0 0-.194-.194c-.096-.049-.22-.049-.47-.049h-.244c-.25 0-.374 0-.47.049a.446.446 0 0 0-.194.194ZM3 9.043c0-.25 0-.374.049-.47a.446.446 0 0 1 .194-.194c.096-.049.22-.049.47-.049h.244c.25 0 .374 0 .47.049.084.042.152.11.194.194.049.096.049.22.049.47v.244c0 .25 0 .374-.049.47a.446.446 0 0 1-.194.194c-.096.049-.22.049-.47.049h-.244c-.25 0-.374 0-.47-.049a.446.446 0 0 1-.194-.194C3 9.66 3 9.537 3 9.287v-.244Zm4.379-6.8c-.049.096-.049.22-.049.47v.244c0 .25 0 .374.049.47.042.084.11.152.194.194.096.049.22.049.47.049h.244c.25 0 .374 0 .47-.049a.446.446 0 0 0 .195-.194C9 3.33 9 3.207 9 2.957v-.244c0-.25 0-.374-.048-.47a.446.446 0 0 0-.195-.194C8.66 2 8.537 2 8.287 2h-.244c-.25 0-.374 0-.47.049a.446.446 0 0 0-.194.194ZM7.33 5.878c0-.25 0-.374.049-.47a.446.446 0 0 1 .194-.194c.096-.049.22-.049.47-.049h.244c.25 0 .374 0 .47.049a.44.44 0 0 1 .195.194c.048.096.048.22.048.47v.244c0 .25 0 .374-.048.47a.446.446 0 0 1-.195.194c-.096.049-.22.049-.47.049h-.244c-.25 0-.374 0-.47-.049a.446.446 0 0 1-.194-.194c-.049-.096-.049-.22-.049-.47v-.244Zm.049 2.695c-.049.096-.049.22-.049.47v.244c0 .25 0 .374.049.47.042.084.11.152.194.194.096.049.22.049.47.049h.244c.25 0 .374 0 .47-.049a.446.446 0 0 0 .194-.194C9 9.66 9 9.537 9 9.287v-.244c0-.25 0-.374-.049-.47a.446.446 0 0 0-.194-.194c-.096-.049-.22-.049-.47-.049h-.244c-.25 0-.374 0-.47.049a.446.446 0 0 0-.194.194Z" clip-rule="evenodd"/></svg>
