<svg xmlns="http://www.w3.org/2000/svg" width="12" height="12" fill="currentColor" viewBox="0 0 12 12"><path d="M7.3 1c.552 0 .996 0 1.354.03.365.03.685.092.98.242a2.5 2.5 0 0 1 1.093 1.093c.151.296.214.616.244.98.029.36.029.803.029 1.355v2.6c0 .552 0 .996-.03 1.354-.03.365-.092.685-.243.98a2.5 2.5 0 0 1-1.092 1.093c-.296.151-.616.214-.98.244C8.294 11 7.851 11 7.3 11H4.7c-.552 0-.996 0-1.354-.03-.365-.03-.685-.092-.98-.243a2.5 2.5 0 0 1-1.094-1.092c-.15-.296-.213-.616-.243-.98C1 8.294 1 7.851 1 7.3V4.7c0-.552 0-.996.03-1.354.03-.365.092-.685.242-.98.24-.471.623-.854 1.093-1.094.296-.15.616-.213.98-.243C3.706 1 4.149 1 4.7 1h2.6ZM4.7 2c-.568 0-.965 0-1.273.025-.302.025-.476.071-.608.138a1.503 1.503 0 0 0-.656.656c-.067.132-.113.306-.138.608C2 3.735 2 4.132 2 4.7v2.6c0 .568 0 .965.025 1.273.025.302.071.476.138.608.144.282.374.512.656.656.132.067.306.113.608.138C3.735 10 4.132 10 4.7 10h2.6c.568 0 .965 0 1.273-.025.302-.025.476-.071.608-.138.282-.144.512-.374.656-.656.067-.132.113-.306.138-.608C10 8.265 10 7.868 10 7.3V4.7c0-.568 0-.965-.025-1.273-.025-.302-.071-.476-.138-.608a1.503 1.503 0 0 0-.656-.656c-.132-.067-.306-.113-.608-.138C8.265 2 7.868 2 7.3 2H4.7Zm-.563 2.564a1.051 1.051 0 0 1 1.39-.8c.883.32 1.686.812 2.37 1.435.47.43.47 1.172 0 1.6a7.115 7.115 0 0 1-2.365 1.434 1.05 1.05 0 0 1-1.39-.796 7.409 7.409 0 0 1-.005-2.873Zm1.013.142a.058.058 0 0 0-.018.016.089.089 0 0 0-.014.035 6.408 6.408 0 0 0 .005 2.484c.004.018.01.028.014.034a.062.062 0 0 0 .018.017.04.04 0 0 0 .016.005c.003 0 .009 0 .02-.003a6.117 6.117 0 0 0 2.032-1.232.085.085 0 0 0 0-.125 6.115 6.115 0 0 0-2.037-1.233.047.047 0 0 0-.02-.004.042.042 0 0 0-.016.006Z"/></svg>