<svg height="44" viewBox="0 0 44 44" width="44" xmlns="http://www.w3.org/2000/svg"><g fill="none" fill-rule="evenodd" transform=""><path d="m0 0h44v44h-44z"/><path d="m31.1129647 6.3877626c1.7017544 1.70175438 1.8626784 4.5294196.3483782 6.7648151-.2016869.2977284-.4278451.5801774-.6777633.8466316l1.7164204.0000634c1.1980339 0 2.2640452.267322 3.1529341.7568663.8888889.4895442 1.6006554 1.2013107 2.0901996 2.0901996.4895443.8888889.7568663 1.9549002.7568663 3.1529341v.64417c0 1.5104231-.2088576 2.3203995-.6010486 3.0537328-.3921909.7333334-.9677152 1.3088577-1.7010486 1.7010486-.219709.1175017-.4462976.2185469-.6965418.3024494l-.001361 4.6069436c0 2.6745562-.2784768 3.6444149-.8013981 4.6221927s-1.290287 1.7451435-2.2680648 2.2680648-1.9476365.8013981-4.6221927.8013981h-11.6166888c-2.6745562 0-3.6444149-.2784768-4.6221927-.8013981s-1.74514351-1.290287-2.26806479-2.2680648-.80139811-1.9476365-.80139811-4.6221927l-.00036651-4.6066103c-.25063845-.0839681-.47753632-.1851254-.69753632-.3027827-.73333334-.3921909-1.30885763-.9677152-1.70104859-1.7010486-.35950838-.6722222-.56496583-1.4088459-.59671215-2.6903587l-.00433643-1.0075441c0-1.1980339.26732203-2.2640452.75686628-3.1529341.48954426-.8888889 1.20131073-1.6006554 2.09019962-2.0901996.88888889-.4895443 1.9549002-.7568663 3.1529341-.7568663l1.717875-.0000634c-.2499182-.2664542-.4760764-.5489032-.6777633-.8466316-1.5143002-2.2353955-1.3533762-5.06306072.3483782-6.7648151 1.7017544-1.70175437 4.5294196-1.86267841 6.7648151-.34837824.9438995.63941576 1.734226 1.52479265 2.3481752 2.63346932.6124434-1.10867667 1.40277-1.99405356 2.3466694-2.63346932 2.2353955-1.51430017 5.0630607-1.35337613 6.7648151.34837824zm-10.6129647 19.6112374-9 .0002727v4.3083444c0 1.9855557.1167648 2.5902134.4468377 3.2073961.2433219.4549724.5824494.7940999 1.0374218 1.0374218.6171827.3300729 1.2218403.4468377 3.2073961.4468377l4.3083444-.0002727zm3 0v9l4.3083444.0002727c1.9855558 0 2.5902134-.1167648 3.2073961-.4468377.4549724-.2433219.7940999-.5824494 1.0374218-1.0374218.3300729-.6171827.4468377-1.2218404.4468377-3.2073961v-4.3083444zm-3-9-9 .0002727c-.6875731 0-1.2591068.1387451-1.70569059.3846955-.39157633.2156556-.69395826.5180376-.90961394.9096139-.24595032.4465838-.38469547 1.0181175-.38469547 1.7056906l.00230967.9138759c.01390977.7591233.09111192 1.0830207.24417851 1.3692304.11259156.2105279.25987765.357814.47040556.4704055.31568096.168828.67721075.2453635 1.61801186.2464759l9.6650944-.0002604zm12 .0002727-8.999-.0002727-.001 6h9.664l.1906167-.0010916c.8017477-.0109459 1.1349412-.0881325 1.4284896-.2451239.2105279-.1125915.357814-.2598776.4704055-.4704055.1530666-.2862097.2302688-.6101071.2441785-1.3692304l.0023097-.9138759c0-.6875731-.1387451-1.2591068-.3846955-1.7056906-.2156557-.3915763-.5180376-.6939583-.9096139-.9096139-.4465838-.2459504-1.0181175-.3846955-1.7056906-.3846955zm-9-3c5.475-.5246668 7.0431867-4.05681329 5.55-5.55-1.4931867-1.49318672-5.0253332.075-5.55 5.55zm-8.5485454-5.55c-1.4931867 1.49318671.075 5.0253332 5.55 5.55-.5246668-5.475-4.0568133-7.04318672-5.55-5.55z" fill="currentColor" fill-rule="nonzero"/></g></svg>
