<?xml version="1.0" encoding="UTF-8"?>
<svg width="44px" height="44px" viewBox="0 0 44 44" version="1.1" xmlns="http://www.w3.org/2000/svg" xmlns:xlink="http://www.w3.org/1999/xlink">
    <!-- Generator: Sketch 52.5 (67469) - http://www.bohemiancoding.com/sketch -->
    <title>spinner_large</title>
    <desc>Created with Sketch.</desc>
    <g id="Page-1" stroke="none" stroke-width="1" fill="none" fill-rule="evenodd">
        <g id="Kit-Item" transform="translate(-198.000000, -148.000000)" fill="currentColor" fill-rule="nonzero">
            <g id="Circular-Loader-16pt-@Controls.Loaders" transform="translate(64.000000, 2.000000)">
                <path d="M156,190 C155.171573,190 154.5,189.328427 154.5,188.5 C154.5,187.671573 155.171573,187 156,187 C166.49341,187 175,178.49341 175,168 C175,157.50659 166.49341,149 156,149 C145.50659,149 137,157.50659 137,168 C137,170.208337 137.376222,172.363055 138.103381,174.397133 C138.38225,175.177212 137.975939,176.035659 137.19586,176.314528 C136.415781,176.593397 135.557333,176.187086 135.278464,175.407007 C134.435853,173.049975 134,170.553735 134,168 C134,155.849736 143.849736,146 156,146 C168.150264,146 178,155.849736 178,168 C178,180.150264 168.150264,190 156,190 Z" id="spinner_large"></path>
            </g>
        </g>
    </g>
</svg>
