<svg xmlns="http://www.w3.org/2000/svg" width="56" height="56" fill="currentColor" viewBox="0 0 56 56"><path fill-rule="evenodd" d="M33.726 38.11c-3.032 0-5.431-1.482-6.779-4.325-.714-1.496-1.078-3.356-1.078-5.566 0-6.482 2.965-10.35 7.91-10.35 2.966 0 5.23 1.294 6.2 3.14.216.39.31.728.31 1.105 0 .795-.566 1.402-1.482 1.402-.688 0-1.119-.324-1.658-1.011-.903-1.24-1.94-1.806-3.383-1.806-2.938 0-4.5 2.709-4.568 7.183v.202h.067c.768-1.792 2.709-3.14 5.35-3.14 3.747 0 6.375 2.696 6.375 6.375 0 3.948-3.06 6.792-7.264 6.792Zm-.054-2.83c2.17 0 3.895-1.697 3.895-3.827.013-2.237-1.617-3.827-3.855-3.827-2.237 0-3.921 1.59-3.921 3.76 0 2.183 1.711 3.895 3.881 3.895Z M21.263 38C22.289 38 23 37.299 23 36.247V19.942c0-1.2-.752-1.942-1.997-1.942-.739 0-1.286.121-2.161.728l-4.035 2.629c-.588.404-.807.809-.807 1.348 0 .769.533 1.295 1.272 1.295.383 0 .657-.094.998-.337l3.187-2.022h.069v14.606c0 1.052.711 1.753 1.737 1.753Z M28 4a23.93 23.93 0 0 0-16.97 7.03A23.93 23.93 0 0 0 4 28a23.93 23.93 0 0 0 7.03 16.97A23.93 23.93 0 0 0 28 52a23.93 23.93 0 0 0 16.97-7.03A23.93 23.93 0 0 0 52 28a23.93 23.93 0 0 0-7.03-16.97A23.93 23.93 0 0 0 28 4Zm-14.85 9.15A20.93 20.93 0 0 1 28 7a20.93 20.93 0 0 1 14.85 6.15A20.93 20.93 0 0 1 49 28a20.93 20.93 0 0 1-6.15 14.85A20.93 20.93 0 0 1 28 49a20.93 20.93 0 0 1-14.85-6.15A20.93 20.93 0 0 1 7 28a20.93 20.93 0 0 1 6.15-14.85Z" clip-rule="evenodd"/></svg>
