<svg xmlns="http://www.w3.org/2000/svg" width="56" height="56" fill="currentColor" viewBox="0 0 56 56"><path fill-rule="evenodd" d="m37.48 12.592-8.351 4.407H15C9.477 17 5 21.476 5 27c0 5.276 4.086 9.598 9.266 9.974l1.601 8.003a5.077 5.077 0 0 0 9.98-1.866L24.786 37h4.343l8.351 4.407c1.493.787 2.705 1.427 3.701 1.842 1.007.419 2.01.705 3.04.569a5.5 5.5 0 0 0 3.766-2.27c.601-.848.816-1.869.916-2.955C49 37.518 49 36.148 49 34.46V19.538c0-1.687 0-3.058-.098-4.132-.1-1.087-.315-2.107-.916-2.955a5.5 5.5 0 0 0-3.766-2.27c-1.03-.136-2.033.15-3.04.569-.996.414-2.208 1.054-3.7 1.842Zm1.333 2.688c1.575-.831 2.665-1.405 3.52-1.76.857-.357 1.26-.396 1.494-.365a2.5 2.5 0 0 1 1.712 1.032c.137.192.29.567.375 1.493.084.92.086 2.153.086 3.934v14.77c0 1.782-.002 3.014-.086 3.935-.085.925-.238 1.3-.375 1.493a2.5 2.5 0 0 1-1.712 1.032c-.233.03-.637-.008-1.495-.365-.854-.356-1.944-.93-3.52-1.76L31 34.594v-15.19l7.813-4.124ZM15 20h13v14H15a7 7 0 1 1 0-14Zm3.809 24.388L17.33 37h4.409l1.152 6.624a2.077 2.077 0 0 1-4.083.764Z" clip-rule="evenodd"/></svg>
