<svg fill="none" height="56" viewBox="0 0 56 56" width="56" xmlns="http://www.w3.org/2000/svg"><g fill="currentColor"><path d="m25.9642 4h-6.9284c-1.6257-.00001-2.9369-.00003-3.9987.08673-1.0933.08932-2.0536.27804-2.942.73072-1.4112.71905-2.5586 1.86641-3.27765 3.27762-.45268.88844-.6414 1.84872-.73072 2.94203-.08675 1.0618-.08674 2.373-.08673 3.9986v25.9285c-.00001 1.6257-.00002 2.9369.08673 3.9987.08932 1.0933.27804 2.0536.73072 2.942.71905 1.4112 1.86645 2.5586 3.27765 3.2776.8884.4527 1.8487.6414 2.942.7308 1.0618.0867 2.373.0867 3.9987.0867h7.4642c.8284 0 1.5-.6716 1.5-1.5s-.6716-1.5-1.5-1.5h-7.4c-1.7049 0-2.8934-.0012-3.8186-.0768-.9078-.0741-1.4293-.2124-1.8244-.4137-.8467-.4314-1.5351-1.1198-1.9665-1.9665-.2013-.3951-.3396-.9166-.4137-1.8244-.0756-.9252-.0768-2.1137-.0768-3.8186v-25.8c0-1.7049.0012-2.8934.0768-3.8186.0741-.9078.2124-1.42932.4137-1.82436.4314-.84673 1.1198-1.53514 1.9665-1.96657.3951-.20128.9166-.33954 1.8244-.41371.9252-.07559 2.1137-.07676 3.8186-.07676h6.8c1.7049 0 2.8934.00117 3.8186.07676.9078.07417 1.4293.21243 1.8244.41371.8467.43143 1.5351 1.11984 1.9665 1.96657.2013.39504.3396.91656.4137 1.82436.0756.9252.0768 2.1137.0768 3.8186v4.4c0 .8284.6716 1.5 1.5 1.5s1.5-.6716 1.5-1.5v-4.4642c0-1.6257 0-2.9369-.0867-3.9987-.0894-1.09331-.2781-2.05359-.7308-2.94203-.719-1.41121-1.8664-2.55857-3.2776-3.27762-.8884-.45268-1.8487-.6414-2.942-.73072-1.0618-.08676-2.373-.08674-3.9987-.08673z"/><path d="m41.4992 22.5201c0 1.3003-.4772 2.5144-1.4284 3.6382-1.1479 1.3359-2.5363 2.1078-4.0419 1.986-.0192-.156-.0304-.3202-.0304-.4927 0-1.2483.5459-2.5842 1.5154-3.6765.4839-.553 1.0995-1.0129 1.8459-1.3797.7448-.3613 1.4494-.5612 2.112-.5954.0193.1738.0274.3477.0274.5201z"/><path d="m46.5389 42.2619c-.395.9084-.8625 1.7445-1.4042 2.5133-.7384 1.0479-1.343 1.7734-1.8089 2.1762-.7223.6612-1.4961.9998-2.3248 1.0191-.5949 0-1.3123-.1685-2.1474-.5104-.8379-.3402-1.6079-.5087-2.3119-.5087-.7384 0-1.5303.1685-2.3773.5087-.8484.3419-1.5318.52-2.0543.5377-.7947.0337-1.5867-.3146-2.3773-1.0464-.5047-.4382-1.1358-1.1892-1.892-2.2533-.8112-1.1362-1.4782-2.4539-2.0007-3.956-.5596-1.6226-.8401-3.1938-.8401-4.7149 0-1.7424.3782-3.2452 1.1358-4.5046.5954-1.0115 1.3874-1.8095 2.3788-2.3953.9913-.5858 2.0625-.8843 3.216-.9034.6312 0 1.4589.1944 2.4874.5763 1.0257.3833 1.6843.5776 1.973.5776.2159 0 .9475-.2272 2.1878-.6803 1.1729-.4201 2.1627-.5941 2.9737-.5256 2.1974.1766 3.8483 1.0389 4.9462 2.5924-1.9653 1.1854-2.9374 2.8456-2.9181 4.9755.0178 1.659.6223 3.0395 1.8105 4.1356.5385.5088 1.1398.902 1.8089 1.1812-.1451.4189-.2983.8201-.4611 1.2053z"/></g></svg>
