<svg xmlns="http://www.w3.org/2000/svg" width="56" height="56" fill="currentColor" viewBox="0 0 56 56"><path fill-rule="evenodd" d="M12.139 7.603C14.265 6.465 16.364 6 21.383 6H26.5a1.5 1.5 0 0 1 0 3h-5.117c-4.83 0-6.344.454-7.83 1.248a7.925 7.925 0 0 0-3.305 3.306c-.794 1.485-1.248 3-1.248 7.83v13.233c0 4.83.454 6.344 1.248 7.83a7.925 7.925 0 0 0 3.306 3.305c1.485.794 3 1.248 7.83 1.248h13.233c4.829 0 6.344-.454 7.83-1.248a7.925 7.925 0 0 0 3.305-3.306c.794-1.485 1.248-3 1.248-7.83V29.5a1.5 1.5 0 0 1 3 0v5.117c0 5.019-.466 7.117-1.603 9.244a10.924 10.924 0 0 1-4.536 4.536C41.734 49.535 39.636 50 34.617 50H21.383c-5.019 0-7.118-.465-9.244-1.603a10.925 10.925 0 0 1-4.536-4.536C6.465 41.734 6 39.636 6 34.617V21.383c0-5.019.465-7.117 1.603-9.244a10.925 10.925 0 0 1 4.536-4.536Z M34 7.5A1.5 1.5 0 0 1 35.5 6h13A1.5 1.5 0 0 1 50 7.5v13a1.5 1.5 0 0 1-3 0v-9.379l-13.94 13.94a1.5 1.5 0 0 1-2.12-2.122L44.878 9H35.5A1.5 1.5 0 0 1 34 7.5Z" clip-rule="evenodd"/></svg>
