<svg fill="none" height="56" viewBox="0 0 56 56" width="56" xmlns="http://www.w3.org/2000/svg"><path clip-rule="evenodd" d="m20.5607 8.56066c.5857-.58579.5857-1.53553 0-2.12132-.5858-.58579-1.5356-.58579-2.1214 0l-8 7.99996c-.58575.5858-.58575 1.5356 0 2.1214l8 8c.5858.5857 1.5356.5857 2.1214 0 .5857-.5858.5857-1.5356 0-2.1214l-5.4394-5.4393h14.8787c1.7072 0 3.3976.3363 4.9749.9896 1.5772.6533 3.0103 1.6109 4.2175 2.818 1.2071 1.2072 2.1647 2.6403 2.818 4.2175s.9896 3.2677.9896 4.9749-.3363 3.3977-.9896 4.9749-1.6109 3.0103-2.818 4.2175c-1.2072 1.2072-2.6403 2.1647-4.2175 2.818s-3.2677.9896-4.9749.9896h-9.5c-.8284 0-1.5.6716-1.5 1.5s.6716 1.5 1.5 1.5h9.5c2.1012 0 4.1817-.4139 6.1229-1.2179 1.9412-.8041 3.7051-1.9827 5.1908-3.4684s2.6643-3.2496 3.4684-5.1908c.804-1.9412 1.2179-4.0217 1.2179-6.1229s-.4139-4.1817-1.2179-6.1229c-.8041-1.9412-1.9827-3.7051-3.4684-5.1908s-3.2496-2.6643-5.1908-3.4684c-1.9397-.8034-4.0186-1.2173-6.118-1.2179-.0017 0-.0033 0-.0049 0h-14.8787z" fill="currentColor" fill-rule="evenodd"/></svg>
