<svg fill="none" height="56" viewBox="0 0 56 56" width="56" xmlns="http://www.w3.org/2000/svg"><path clip-rule="evenodd" d="m36.1021 6.00131-15.7827-.00131c-2.8878.01849-5.8089.12132-8.411 1.51294-2.03749 1.08965-3.56518 2.77446-4.61031 4.81486-.92382 1.8893-1.27301 3.8424-1.29678 7.5701l-.00131 15.7827c.01849 2.8878.12132 5.8089 1.51294 8.411 1.01134 1.8911 2.50436 3.3841 4.39546 4.3955 2.6021 1.3916 5.5232 1.4944 8.411 1.5129h15.3612c2.8878-.0185 5.8089-.1213 8.411-1.5129 1.8911-1.0114 3.3841-2.5044 4.3955-4.3955 1.3916-2.6021 1.4944-5.5232 1.5129-8.411v-15.3612c-.0185-2.8878-.1213-5.8089-1.5129-8.411-1.0114-1.8911-2.5044-3.38412-4.3955-4.39546-2.5024-1.28173-5.2117-1.49392-7.9895-1.51163zm-27.1021 29.67929v-14.6806c.0053-.3118.00784-.6253.01039-.9399.01863-2.3042.03769-4.6609 1.14801-6.7369.7317-1.3683 1.7965-2.4331 3.1648-3.1648 2.1165-1.13196 4.5448-1.14512 6.8896-1.15782l.1066-.00058h15.3612c3.8376 0 5.3912.30002 6.9962 1.1584 1.3683.7317 2.4331 1.7965 3.1648 3.1648 1.1103 2.076 1.1294 4.4326 1.148 6.7368.0026.3146.0051.6282.0104.94v14.6806l-.0004.0825c-.0125 2.3402-.0256 4.7964-1.158 6.9137-.7317 1.3683-1.7965 2.4331-3.1648 3.1648-2.1165 1.132-4.5447 1.1451-6.8896 1.1578h-15.5744c-2.3449-.0127-4.7731-.0258-6.8896-1.1578-1.3683-.7317-2.4331-1.7965-3.1648-3.1648-1.13213-2.1168-1.14535-4.5724-1.15795-6.9122zm8.5-18.6806c-.8284 0-1.5.6716-1.5 1.5s.6716 1.5 1.5 1.5h21c.8284 0 1.5-.6716 1.5-1.5s-.6716-1.5-1.5-1.5zm-1.5 11c0-.8284.6716-1.5 1.5-1.5h21c.8284 0 1.5.6716 1.5 1.5s-.6716 1.5-1.5 1.5h-21c-.8284 0-1.5-.6716-1.5-1.5zm1.5 8c-.8284 0-1.5.6716-1.5 1.5s.6716 1.5 1.5 1.5h9c.8284 0 1.5-.6716 1.5-1.5s-.6716-1.5-1.5-1.5z" fill="currentColor" fill-rule="evenodd"/></svg>
