<svg xmlns="http://www.w3.org/2000/svg" width="56" height="56" fill="currentColor" viewBox="0 0 56 56"><path fill-rule="evenodd" d="M29.5 4h-.063c-1.347 0-2.448 0-3.343.073-.927.076-1.764.237-2.545.635a6.5 6.5 0 0 0-2.84 2.841c-.399.782-.56 1.618-.636 2.545C20 10.989 20 12.09 20 13.437v10.101a5.501 5.501 0 0 0-2.143.281c-.692.236-1.268.633-1.828 1.11-.535.456-1.14 1.06-1.863 1.783l-.042.043-3.341 3.341-.114.113c-.755.755-1.307 1.307-1.711 1.966a6.5 6.5 0 0 0-.778 1.879c-.18.751-.18 1.531-.18 2.6v5.909c0 1.347 0 2.448.073 3.343.076.927.237 1.764.635 2.545a6.5 6.5 0 0 0 2.841 2.84c.782.399 1.618.56 2.545.636.895.073 1.996.073 3.343.073h21.126c1.347 0 2.448 0 3.343-.073.927-.076 1.763-.237 2.545-.636a6.499 6.499 0 0 0 2.84-2.84c.399-.782.56-1.618.636-2.545.073-.895.073-1.996.073-3.343V13.437c0-1.347 0-2.448-.073-3.343-.076-.927-.237-1.763-.636-2.545a6.5 6.5 0 0 0-2.84-2.84c-.782-.399-1.618-.56-2.545-.636C41.011 4 39.91 4 38.563 4H29.5Zm-6.465 20.762L23 24.735V13.5c0-1.425.001-2.403.063-3.162.06-.74.172-1.139.319-1.427a3.5 3.5 0 0 1 1.529-1.53c.288-.146.686-.257 1.427-.318C27.097 7.001 28.075 7 29.5 7h9c1.425 0 2.403.001 3.162.063.74.06 1.139.172 1.427.318a3.5 3.5 0 0 1 1.53 1.53c.146.288.257.686.318 1.427.062.759.063 1.737.063 3.162v29c0 1.425-.001 2.403-.063 3.162-.06.74-.172 1.139-.319 1.427a3.5 3.5 0 0 1-1.529 1.53c-.288.146-.686.257-1.427.318-.46.037-1 .053-1.671.059.009-.157.009-.35.009-.596v-2.8c0-.56 0-.84-.109-1.054a1 1 0 0 0-.437-.437C39.24 44 38.96 44 38.4 44h-.8c-.56 0-.84 0-1.054.109a1 1 0 0 0-.437.437C36 44.76 36 45.04 36 45.6v2.8c0 .25 0 .443.01.6H32V36.176c0-.891.001-1.593-.17-2.267a5.503 5.503 0 0 0-.739-1.668c-.383-.58-.902-1.052-1.562-1.651l-.115-.104-4.39-3.99-.043-.04c-.757-.689-1.39-1.264-1.946-1.694ZM29 36.332V49h-7v-5.4c0-.56 0-.84-.109-1.054a1 1 0 0 0-.437-.437C21.24 42 20.96 42 20.4 42h-.8c-.56 0-.84 0-1.054.109a1 1 0 0 0-.437.437C18 42.76 18 43.04 18 43.6V49h-.5c-1.425 0-2.403-.001-3.162-.063-.74-.06-1.139-.172-1.427-.319a3.5 3.5 0 0 1-1.53-1.529c-.146-.288-.257-.686-.318-1.427-.062-.759-.063-1.737-.063-3.162v-5.686c0-1.295.01-1.697.097-2.06a3.5 3.5 0 0 1 .419-1.012c.195-.318.473-.61 1.388-1.524l3.341-3.342c.776-.776 1.296-1.295 1.73-1.663.419-.358.662-.49.85-.554a2.5 2.5 0 0 1 1.5-.036c.19.055.44.176.875.513.45.348.995.841 1.806 1.579l4.39 3.99c.828.753 1.042.963 1.19 1.188a2.5 2.5 0 0 1 .336.758c.067.262.078.561.078 1.68Zm-.891-23.786C28 12.76 28 13.04 28 13.6v.8c0 .56 0 .84.109 1.054a1 1 0 0 0 .437.437C28.76 16 29.04 16 29.6 16h.8c.56 0 .84 0 1.054-.109a1 1 0 0 0 .437-.437C32 15.24 32 14.96 32 14.4v-.8c0-.56 0-.84-.109-1.054a1 1 0 0 0-.437-.437C31.24 12 30.96 12 30.4 12h-.8c-.56 0-.84 0-1.054.109a1 1 0 0 0-.437.437ZM36 13.6c0-.56 0-.84.109-1.054a1 1 0 0 1 .437-.437C36.76 12 37.04 12 37.6 12h.8c.56 0 .84 0 1.054.109a1 1 0 0 1 .437.437C40 12.76 40 13.04 40 13.6v.8c0 .56 0 .84-.109 1.054a1 1 0 0 1-.437.437C39.24 16 38.96 16 38.4 16h-.8c-.56 0-.84 0-1.054-.109a1 1 0 0 1-.437-.437C36 15.24 36 14.96 36 14.4v-.8Zm.109 6.946C36 20.76 36 21.04 36 21.6v.8c0 .56 0 .84.109 1.054a1 1 0 0 0 .437.437C36.76 24 37.04 24 37.6 24h.8c.56 0 .84 0 1.054-.109a1 1 0 0 0 .437-.437C40 23.24 40 22.96 40 22.4v-.8c0-.56 0-.84-.109-1.054a1 1 0 0 0-.437-.437C39.24 20 38.96 20 38.4 20h-.8c-.56 0-.84 0-1.054.109a1 1 0 0 0-.437.437ZM28 21.6c0-.56 0-.84.109-1.054a1 1 0 0 1 .437-.437C28.76 20 29.04 20 29.6 20h.8c.56 0 .84 0 1.054.109a1 1 0 0 1 .437.437C32 20.76 32 21.04 32 21.6v.8c0 .56 0 .84-.109 1.054a1 1 0 0 1-.437.437C31.24 24 30.96 24 30.4 24h-.8c-.56 0-.84 0-1.054-.109a1 1 0 0 1-.437-.437C28 23.24 28 22.96 28 22.4v-.8Zm8.109 6.946C36 28.76 36 29.04 36 29.6v.8c0 .56 0 .84.109 1.054a1 1 0 0 0 .437.437C36.76 32 37.04 32 37.6 32h.8c.56 0 .84 0 1.054-.109a1 1 0 0 0 .437-.437C40 31.24 40 30.96 40 30.4v-.8c0-.56 0-.84-.109-1.054a1 1 0 0 0-.437-.437C39.24 28 38.96 28 38.4 28h-.8c-.56 0-.84 0-1.054.109a1 1 0 0 0-.437.437ZM36 37.6c0-.56 0-.84.109-1.054a1 1 0 0 1 .437-.437C36.76 36 37.04 36 37.6 36h.8c.56 0 .84 0 1.054.109a1 1 0 0 1 .437.437C40 36.76 40 37.04 40 37.6v.8c0 .56 0 .84-.109 1.054a1 1 0 0 1-.437.437C39.24 40 38.96 40 38.4 40h-.8c-.56 0-.84 0-1.054-.109a1 1 0 0 1-.437-.437C36 39.24 36 38.96 36 38.4v-.8Zm-18-2c0-.56 0-.84.109-1.054a1 1 0 0 1 .437-.437C18.76 34 19.04 34 19.6 34h.8c.56 0 .84 0 1.054.109a1 1 0 0 1 .437.437C22 34.76 22 35.04 22 35.6v.8c0 .56 0 .84-.109 1.054a1 1 0 0 1-.437.437C21.24 38 20.96 38 20.4 38h-.8c-.56 0-.84 0-1.054-.109a1 1 0 0 1-.437-.437C18 37.24 18 36.96 18 36.4v-.8Z" clip-rule="evenodd"/></svg>
