<svg fill="none" height="56" viewBox="0 0 56 56" width="56" xmlns="http://www.w3.org/2000/svg" xmlns:xlink="http://www.w3.org/1999/xlink"><linearGradient id="a" gradientUnits="userSpaceOnUse" x1="0" x2="56" y1="0" y2="56"><stop offset="0" stop-color="#f060c0"/><stop offset="1" stop-color="#e03fab"/></linearGradient><circle cx="28" cy="28" fill="url(#a)" r="28"/><path clip-rule="evenodd" d="m35.1856 16.1084c-.0792-.1445-.2919-.1445-.3711 0-.3188.582-.6313 1.0222-.9046 1.4073-.5279.7436-.9098 1.2818-.9098 2.2383 0 1.1046.8954 2 2 2 1.1045 0 2-.8954 2-2 0-.9565-.382-1.4947-.9099-2.2383-.2733-.3851-.5858-.8253-.9046-1.4073zm-19.1856 10.6456c0-1.1046.8954-2 2-2h20c1.1046 0 2 .8954 2 2 0 1.9581-.852 3.0641-1.9999 3.5962l-.0397.0181c-.4353.1957-.9117.3102-1.3995.3585-.1859.0184-.3734.0272-.5609.0272-2.9912 0-3.9941-1.9883-4-2-.0045.009-.4747.9402-1.7268 1.5286-.1777.0835-.3711.1601-.5811.2262-.0379.0119-.0763.0234-.1153.0347-.3103.0892-.6552.1555-1.0375.188-.1721.0147-.3518.0225-.5393.0225-2.9912 0-3.9941-1.9883-4-2-.0046.0092-.4871.9647-1.7764 1.5515-.1639.0746-.3408.1433-.5315.2033-.0379.0119-.0763.0235-.1153.0347-.3103.0892-.6552.1555-1.0375.188-.1721.0147-.3518.0225-.5393.0225-2 0-4-1-4-4zm22.0001 6.761c-.6928.1728-1.3763.239-2 .239-1.6399 0-2.9674-.4128-4-.9875-1.0326.5747-2.3601.9875-4 .9875s-2.9674-.4128-4-.9875c-1.0326.5747-2.3601.9875-4 .9875-.6238 0-1.3073-.0662-2-.239v1.414c0 1.1201 0 1.6801.2179 2.108.1918.3763.4978.6822.8741.874.4278.218.9879.218 2.108.218h13.6c1.1201 0 1.6801 0 2.1079-.218.3764-.1918.6823-.4977.8741-.874.218-.4279.218-.9879.218-2.108zm-17.1857-17.4066c.0792-.1445.292-.1445.3712 0 .3188.582.6312 1.0222.9046 1.4073.5278.7436.9098 1.2818.9098 2.2383 0 1.1046-.8954 2-2 2s-2-.8954-2-2c0-.9565.382-1.4947.9098-2.2383.2734-.3851.5858-.8253.9046-1.4073zm7.3711 0c-.0792-.1445-.2919-.1445-.3711 0-.3188.582-.6313 1.0222-.9046 1.4073-.5279.7436-.9099 1.2818-.9099 2.2383 0 1.1046.8955 2 2 2 1.1046 0 2-.8954 2-2 0-.9565-.3819-1.4947-.9098-2.2383-.2733-.3851-.5858-.8253-.9046-1.4073z" fill="#fff" fill-rule="evenodd"/></svg>
