<svg xmlns="http://www.w3.org/2000/svg" width="56" height="56" fill="currentColor" viewBox="0 0 56 56"><path fill-rule="evenodd" d="M6 25.2c0-6.72 0-10.08 1.308-12.648a12 12 0 0 1 5.244-5.244C13.767 6.689 15.16 6.363 17 6.19V3.5a1.5 1.5 0 0 1 3 0v2.535C21.478 6 23.189 6 25.2 6h5.6c2.011 0 3.722 0 5.2.035V3.5a1.5 1.5 0 0 1 3 0v2.691c1.841.172 3.233.498 4.448 1.117a12 12 0 0 1 5.244 5.244C50 15.12 50 18.48 50 25.2v5.6c0 6.72 0 10.08-1.308 12.648a12 12 0 0 1-5.244 5.244C40.88 50 37.52 50 30.8 50h-5.6c-6.72 0-10.08 0-12.648-1.308a12 12 0 0 1-5.244-5.244C6 40.88 6 37.52 6 30.8v-5.6ZM30.8 9h-5.6c-2.08 0-3.774 0-5.2.036V12.5a1.5 1.5 0 0 1-3 0V9.206c-1.476.157-2.381.416-3.086.775a9 9 0 0 0-3.933 3.933c-.403.79-.68 1.833-.827 3.649A43.211 43.211 0 0 0 9.036 20h37.928a43.25 43.25 0 0 0-.117-2.437c-.149-1.816-.425-2.859-.828-3.649a9 9 0 0 0-3.933-3.933c-.705-.36-1.61-.618-3.086-.775V12.5a1.5 1.5 0 0 1-3 0V9.036C34.574 9 32.88 9 30.8 9ZM9 25.2v5.6c0 3.41.002 5.787.154 7.637.148 1.816.424 2.859.827 3.649a9 9 0 0 0 3.933 3.933c.79.403 1.833.68 3.649.828 1.85.15 4.227.153 7.637.153h5.6c3.41 0 5.787-.002 7.637-.154 1.816-.148 2.859-.424 3.649-.827a9 9 0 0 0 3.933-3.933c.403-.79.68-1.833.828-3.649.15-1.85.153-4.227.153-7.637v-5.6c0-.786 0-1.517-.002-2.2H9.002C9 23.683 9 24.414 9 25.2Z" clip-rule="evenodd"/></svg>
