<svg fill="none" height="56" viewBox="0 0 56 56" width="56" xmlns="http://www.w3.org/2000/svg"><g fill="currentColor"><path clip-rule="evenodd" d="m26.5 19.5c0-.8284.6716-1.5 1.5-1.5 5.5233 0 10 4.4767 10 10 0 .8284-.6716 1.5-1.5 1.5s-1.5-.6716-1.5-1.5c0-3.8665-3.1335-7-7-7-.8284 0-1.5-.6716-1.5-1.5z" fill-rule="evenodd"/><path clip-rule="evenodd" d="m6.12765 14.4241c-1.37045 1.8607-2.12765 4.349-2.12765 7.0131v12.5628c0 .5823.08021 1.8036.22836 3.0383.14219 1.1851.37354 2.6316.74709 3.5349.53022 1.2822 1.29318 2.5775 2.3066 3.6287 1.13426 1.3591 2.79055 2.2921 4.46635 2.8867 1.714.6083 3.5839.9114 5.2516.9114h21c2.7876 0 4.9845-.3482 6.7985-1.0801l3.6408 3.6408c.5858.5857 1.5356.5857 2.1214 0 .5857-.5858.5857-1.5356 0-2.1214l-42.00004-41.99996c-.58579-.58579-1.53553-.58579-2.12132 0s-.58579 1.53553 0 2.12132l3.15495 3.15494c-1.38892.5243-2.56791 1.4882-3.46664 2.7085zm5.87235-.1446c-1.3232 0-2.53071.6662-3.45679 1.9236-.9365 1.2716-1.54321 3.1122-1.54321 5.2341v12.5628c0 .4177.06642 1.5092.20699 2.6809.14653 1.2213.34598 2.2748.54077 2.7459.42154 1.0194.99727 1.9807 1.7711 2.7719.82304 1.006 2.02644 1.6346 3.23274 2.0627 1.386.4917 2.9161.7386 4.2484.7386h20.9998c1.8296 0 3.263-.1651 4.4215-.4574l-8.4903-8.4903c-1.659 1.2234-3.7115 1.9477-5.931 1.9477-5.5233 0-10-4.4767-10-10 0-2.2194.7242-4.272 1.9477-5.931l-7.7895-7.7895zm9 13.7205c0 3.8665 3.1335 7 7 7 1.3912 0 2.6859-.4046 3.7751-1.1036l-9.6715-9.6715c-.699 1.0892-1.1036 2.3838-1.1036 3.7751z" fill-rule="evenodd"/><path d="m22 5.5c-1.2099 0-2.2107.59161-2.9205 1.15927-.7233.57852-1.3259 1.28069-1.7391 1.77343-.1021.12174-.1989.24811-.2978.37244-.5157.64836-.4081 1.59196.2403 2.10766.6483.5157 1.592.4081 2.1076-.2403l.2542-.3188c.4071-.48529.8422-.97859 1.3086-1.35158.4821-.38556.8255-.50212 1.0467-.50212h12c.2212 0 .5646.11656 1.0467.50212.4982.39845.9404.89036 1.336 1.38578l.4312.5417c.2729.3432.6355.7992 1.0137 1.273.6259.7841 1.5716 1.2846 2.4227 1.588.8818.3144 1.8632.4889 2.7497.4889h1c1.3232 0 2.5307.6662 3.4568 1.9236.9365 1.2716 1.5432 3.1122 1.5432 5.2341v12.5628c0 .4949-.0006 1.4308-.1051 2.4757-.1069 1.069-.3119 2.1291-.6628 2.9088-.106.2356-.2169.4688-.3329.6971-.3751.7387-.0805 1.6415.6582 2.0167.7386.3751 1.6415.0804 2.0166-.6582.1395-.2747.2707-.5508.3939-.8246.5491-1.2203.7941-2.6602.9122-3.8412.1199-1.1996.1199-2.2595.1199-2.7674v-12.5697c0-2.6641-.7572-5.1524-2.1277-7.0131-1.3808-1.8749-3.4233-3.1446-5.8723-3.1446h-1c-.5241 0-1.1654-.109-1.7424-.3147-.6075-.2166-.9565-.4723-1.0852-.6336-.3291-.41232-.6573-.82535-.9859-1.238-.2922-.36736-.4973-.62518-.5269-.6605-.4132-.49275-1.0158-1.19491-1.7391-1.77343-.7098-.56766-1.7106-1.15927-2.9205-1.15927z"/></g></svg>
