<svg fill="none" height="56" viewBox="0 0 56 56" width="56" xmlns="http://www.w3.org/2000/svg"><path clip-rule="evenodd" d="m28 49c11.598 0 21-9.402 21-21s-9.402-21-21-21-21 9.402-21 21 9.402 21 21 21zm0 3c13.2548 0 24-10.7452 24-24s-10.7452-24-24-24-24 10.7452-24 24 10.7452 24 24 24zm-9.8996-14.1005c-.5858-.5858-.5858-1.5355 0-2.1213l7.7782-7.7782-7.7782-7.7782c-.5858-.5858-.5858-1.5355 0-2.1213s1.5356-.5858 2.1213 0l7.7782 7.7782 7.7782-7.7782c.5858-.5858 1.5355-.5858 2.1213 0s.5858 1.5355 0 2.1213l-7.7782 7.7782 7.7782 7.7782c.5858.5858.5858 1.5355 0 2.1213s-1.5355.5858-2.1213 0l-7.7782-7.7782-7.7782 7.7782c-.5857.5858-1.5355.5858-2.1213 0z" fill="currentColor" fill-rule="evenodd"/></svg>
