<svg xmlns="http://www.w3.org/2000/svg" width="56" height="56" fill="currentColor" viewBox="0 0 56 56"><path fill-rule="evenodd" d="M41.992 10h4.514c.825 0 1.494.654 1.494 1.461 0 .808-.669 1.462-1.494 1.462h-4.45c-1.698 0-2.882.001-3.804.075-.904.072-1.423.207-1.817.403a4.434 4.434 0 0 0-1.958 1.916c-.2.385-.339.893-.412 1.778-.076.901-.077 2.06-.077 3.72v14.37c0 1.66.001 2.819.077 3.72.073.885.211 1.393.412 1.778a4.434 4.434 0 0 0 1.958 1.916c.394.196.913.33 1.817.403.922.074 2.106.075 3.804.075h4.45c.825 0 1.494.654 1.494 1.462 0 .807-.669 1.461-1.494 1.461h-4.514c-1.62 0-2.925 0-3.983-.084-1.089-.087-2.045-.271-2.93-.712a7.39 7.39 0 0 1-3.265-3.194c-.45-.866-.639-1.801-.728-2.867C31 38.11 31 36.831 31 35.247V20.753c0-1.584 0-2.862.086-3.896.09-1.066.277-2.001.728-2.867a7.39 7.39 0 0 1 3.265-3.194c.885-.44 1.841-.624 2.93-.711C39.067 10 40.373 10 41.992 10Zm-27.984 0H9.494C8.669 10 8 10.654 8 11.461c0 .808.669 1.462 1.494 1.462h4.45c1.698 0 2.882.001 3.804.075.904.072 1.423.207 1.817.403a4.434 4.434 0 0 1 1.958 1.916c.2.385.339.893.413 1.778.075.901.076 2.06.076 3.72v14.37c0 1.66-.001 2.819-.076 3.72-.074.885-.212 1.393-.413 1.778a4.434 4.434 0 0 1-1.958 1.916c-.394.196-.913.33-1.817.403-.922.074-2.106.075-3.804.075h-4.45c-.825 0-1.494.654-1.494 1.462C8 45.346 8.669 46 9.494 46h4.514c1.62 0 2.925 0 3.983-.084 1.089-.087 2.045-.271 2.93-.712a7.39 7.39 0 0 0 3.265-3.194c.45-.866.639-1.801.728-2.867C25 38.11 25 36.831 25 35.247V20.753c0-1.584 0-2.862-.086-3.896-.09-1.066-.277-2.001-.728-2.867a7.39 7.39 0 0 0-3.265-3.194c-.885-.44-1.841-.624-2.93-.711C16.933 10 15.627 10 14.008 10Z" clip-rule="evenodd"/></svg>
