<svg xmlns="http://www.w3.org/2000/svg" width="56" height="56" fill="currentColor" viewBox="0 0 56 56"><path fill-rule="evenodd" d="M28.538 6.47a3.657 3.657 0 0 0-1.076 0c-.37.052-.706.126-1.98.55l-13.64 4.547a.5.5 0 0 0-.342.474V30.6c0 4.125 1.257 7.717 3.776 10.838 2.539 3.145 6.415 5.88 11.746 8.145a2.5 2.5 0 0 0 1.956 0c5.33-2.265 9.207-5 11.746-8.145C43.243 38.317 44.5 34.725 44.5 30.6V12.041a.5.5 0 0 0-.342-.474L30.518 7.02c-1.274-.424-1.61-.498-1.98-.55Zm-1.5-2.97a6.655 6.655 0 0 1 1.923 0c.653.092 1.203.24 2.506.674l13.64 4.547a3.5 3.5 0 0 1 2.393 3.32V30.6c0 4.794-1.482 9.055-4.441 12.722-2.94 3.642-7.281 6.63-12.907 9.022a5.5 5.5 0 0 1-4.304 0c-5.626-2.391-9.967-5.38-12.906-9.022C9.982 39.655 8.5 35.394 8.5 30.6V12.041a3.5 3.5 0 0 1 2.393-3.32l13.64-4.547c1.303-.434 1.853-.582 2.506-.675Zm11.423 17.84a1.5 1.5 0 0 1 0 2.12l-12 12a1.5 1.5 0 0 1-2.122 0l-6.5-6.5a1.5 1.5 0 0 1 2.122-2.12l5.439 5.439 10.94-10.94a1.5 1.5 0 0 1 2.12 0Z" clip-rule="evenodd"/></svg>
