<svg height="56" viewBox="0 0 56 56" width="56" xmlns="http://www.w3.org/2000/svg"><g fill="none" fill-rule="evenodd"><path d="m0 0h56v56h-56z"/><path d="m25.2444592 4 .7437329.00540391c2.9808505.04550983 4.5260042.384405 6.126589 1.24040711 1.460766.7812262 2.635953 1.91111055 3.4748855 3.34637876l.174606.31221595.1502614.29140441c.7736455 1.55796176 1.0677727 3.19093736 1.0847421 6.28295866.0045173.8284147-.6633648 1.5036581-1.4917795 1.5081984s-1.5036581-.6633418-1.5081984-1.4917565l-.0079384-.6385297c-.0409257-2.0314979-.2286284-3.119368-.6271577-4.0351716l-.1259476-.2703506-.1295051-.2511433c-.5574287-1.04230102-1.3664639-1.85133622-2.4087649-2.40876489-1.1871171-.63487716-2.3386409-.87284799-5.114517-.89021427l-5.8299267-.00103634c-2.7378969 0-4.0032613.19961773-5.0717536.69789782l-.1326284.06384771-.2511433.12950508c-1.042301.55742867-1.8513362 1.36646387-2.4087649 2.40876489-.6348772 1.1871171-.872848 2.3386409-.8902143 5.114517l-.0010363 24.8299267c0 2.7378969.1996177 4.0032613.6978978 5.0717536l.0638477.1326284.1295051.2511433c.5574287 1.042301 1.3664639 1.8513362 2.4087649 2.4087649 1.1000684.588323 2.1338582.8255377 4.4383686.8797372l.3222533.0062723.6949034.0052411h1.7638251c.8284271 0 1.5.6715729 1.5 1.5s-.6715729 1.5-1.5 1.5h-1.7750476l-.7183413-.0054663c-2.9886971-.046705-4.5257587-.3766336-6.1407581-1.2403447-1.460766-.7812262-2.635953-1.9111106-3.47488549-3.3463788l-.17460603-.3122159-.15026135-.2914044c-.73083823-1.4717568-1.03567256-3.0160402-1.07976869-5.8035755l-.00569734-.7561552v-24.4889184l.00540391-.7437329c.04550983-2.9808505.384405-4.5260042 1.24040711-6.126589.78122618-1.46076599 1.91111058-2.63595299 3.34637878-3.47488549l.3122159-.17460603.2914044-.15026135c1.4717568-.73083823 3.0160402-1.03567256 5.8035755-1.07976869l.7561552-.00569734zm10.7555408 16c8.836556 0 16 7.163444 16 16s-7.163444 16-16 16-16-7.163444-16-16 7.163444-16 16-16zm0 3c-7.1797017 0-13 5.8202983-13 13s5.8202983 13 13 13 13-5.8202983 13-13-5.8202983-13-13-13zm6.8606602 8.3393398c.5491748.5491748.5834982 1.4182372.1029702 2.007398l-.1029702.1139224-8 8c-.5491748.5491748-1.4182372.5834982-2.007398.1029702l-.1139224-.1029702-3.2-3.2c-.5857864-.5857865-.5857864-1.5355339 0-2.1213204.5491748-.5491748 1.4182372-.5834982 2.007398-.1029702l.1139224.1029702 2.1393398 2.1396602 6.9393398-6.9396602c.5857865-.5857864 1.5355339-.5857864 2.1213204 0z" fill="currentColor" fill-rule="nonzero"/></g></svg>
