<svg xmlns="http://www.w3.org/2000/svg" width="56" height="56" viewBox="0 0 56 56" fill="currentColor"><path d="m25.245 4 .743.005c2.981.046 4.526.385 6.127 1.24a8.77 8.77 0 0 1 3.475 3.347l.174.312.15.292c.774 1.558 1.068 3.19 1.085 6.283a1.5 1.5 0 0 1-3 .016l-.008-.638c-.04-2.032-.228-3.12-.627-4.035l-.126-.27-.13-.252A5.77 5.77 0 0 0 30.7 7.891c-1.187-.635-2.339-.873-5.114-.89L19.755 7c-2.738 0-4.004.2-5.072.698l-.133.064-.251.13A5.77 5.77 0 0 0 11.89 10.3c-.635 1.187-.873 2.339-.89 5.115v24.83c0 2.737.2 4.003.698 5.071l.064.133.13.251a5.77 5.77 0 0 0 2.408 2.409c1.1.588 2.134.825 4.438.88l.323.006.695.005h1.763a1.5 1.5 0 0 1 0 3h-1.775l-.718-.005c-2.989-.047-4.526-.377-6.14-1.24a8.77 8.77 0 0 1-3.476-3.347l-.174-.312-.15-.292c-.731-1.472-1.036-3.016-1.08-5.803L8 40.245v-24.49l.005-.743c.046-2.981.385-4.526 1.24-6.127a8.77 8.77 0 0 1 3.347-3.475l.312-.174.292-.15c1.472-.731 3.016-1.036 5.803-1.08L19.756 4zM36 20c8.837 0 16 7.163 16 16s-7.163 16-16 16-16-7.163-16-16 7.163-16 16-16m0 3c-7.18 0-13 5.82-13 13s5.82 13 13 13 13-5.82 13-13-5.82-13-13-13m6.86 8.34a1.5 1.5 0 0 1 .104 2.007l-.103.114-8 8a1.5 1.5 0 0 1-2.008.103l-.114-.103-3.2-3.2a1.5 1.5 0 0 1 2.008-2.225l.114.103 2.139 2.14 6.94-6.94a1.5 1.5 0 0 1 2.12 0"/></svg>