<svg xmlns="http://www.w3.org/2000/svg" width="56" height="56" fill="currentColor" viewBox="0 0 56 56"><path fill-rule="evenodd" d="M28.47 4.005a24 24 0 0 1 2.46 47.816 1.5 1.5 0 0 1-.366-2.978l.068-.009a20.97 20.97 0 0 0 3.678-.805l.012-.003a21.004 21.004 0 0 0 7.378-4.11l.011-.01a20.978 20.978 0 0 0 2.436-2.48l.034-.04a20.998 20.998 0 0 0 4.739-11.551v-.012a21 21 0 0 0-.975-8.396l-.003-.008a21.015 21.015 0 0 0-7.01-9.964l-.007-.006a20.975 20.975 0 0 0-3.224-2.074l-.006-.003a21 21 0 0 0-8.135-2.314h-.008a21.015 21.015 0 0 0-1.918-.055 1.5 1.5 0 0 1-.053-3c.297-.005.593-.004.888.002ZM7.002 28.366a1.5 1.5 0 1 0-3 .053 24 24 0 0 0 .139 2.188 1.5 1.5 0 0 0 2.982-.325 20.72 20.72 0 0 1-.12-1.916Zm2.722 9.979a1.5 1.5 0 1 0-2.61 1.478 24 24 0 0 0 2.496 3.6 1.5 1.5 0 1 0 2.299-1.928 20.986 20.986 0 0 1-2.185-3.15Zm8.827 8.41a1.5 1.5 0 0 0-1.35 2.679 23.998 23.998 0 0 0 4.077 1.606 1.5 1.5 0 1 0 .84-2.88 21.01 21.01 0 0 1-3.567-1.405ZM28 17a1.5 1.5 0 0 1 1.5 1.5v9.281l9.146 4.365a1.5 1.5 0 0 1-1.292 2.708l-10-4.773a1.5 1.5 0 0 1-.854-1.354V18.5A1.5 1.5 0 0 1 28 17Z" clip-rule="evenodd"/></svg>
