<svg xmlns="http://www.w3.org/2000/svg" width="56" height="56" fill="currentColor" viewBox="0 0 56 56"><path fill-rule="evenodd" d="M13 13.5c0-.454.21-1.015.859-1.666.654-.656 1.677-1.316 3.06-1.903C19.679 8.761 23.595 8 28 8c4.405 0 8.322.76 11.081 1.931 1.383.587 2.406 1.247 3.06 1.903.649.65.859 1.212.859 1.666 0 .454-.21 1.015-.859 1.666-.654.656-1.677 1.316-3.06 1.903C36.321 18.239 32.405 19 28 19c-4.405 0-8.322-.76-11.081-1.931-1.383-.587-2.406-1.247-3.06-1.903-.649-.65-.859-1.212-.859-1.666Zm-3 0c0-1.48.713-2.76 1.734-3.784 1.016-1.018 2.41-1.866 4.013-2.547C18.959 5.807 23.292 5 28 5s9.041.807 12.253 2.17c1.603.68 2.997 1.528 4.013 2.546C45.287 10.741 46 12.021 46 13.5v30c0 1.48-.713 2.76-1.734 3.784-1.016 1.018-2.41 1.867-4.013 2.547C37.041 51.193 32.708 52 28 52s-9.041-.807-12.253-2.17c-1.603-.68-2.997-1.528-4.013-2.546C10.713 46.259 10 44.979 10 43.5v-30Zm3 14.839V33.5c0 .454.21 1.015.859 1.666.654.656 1.677 1.316 3.06 1.903C19.679 38.239 23.595 39 28 39c4.405 0 8.322-.76 11.081-1.931 1.383-.587 2.406-1.247 3.06-1.903.649-.65.859-1.212.859-1.666v-5.161c-.803.565-1.733 1.062-2.747 1.492C37.041 31.193 32.708 32 28 32s-9.041-.807-12.253-2.17c-1.014-.43-1.944-.926-2.747-1.491ZM43 23.5c0 .454-.21 1.015-.859 1.666-.654.656-1.677 1.316-3.06 1.903C36.321 28.239 32.405 29 28 29c-4.405 0-8.322-.76-11.081-1.931-1.383-.587-2.406-1.247-3.06-1.903-.649-.65-.859-1.212-.859-1.666v-5.161c.803.565 1.733 1.062 2.747 1.492C18.959 21.193 23.292 22 28 22s9.041-.807 12.253-2.17c1.014-.43 1.944-.926 2.747-1.491V23.5Zm0 14.839c-.803.565-1.733 1.062-2.747 1.492C37.041 41.193 32.708 42 28 42s-9.041-.807-12.253-2.17c-1.014-.43-1.944-.926-2.747-1.491V43.5c0 .454.21 1.015.859 1.666.654.656 1.677 1.316 3.06 1.903C19.679 48.239 23.595 49 28 49c4.405 0 8.322-.76 11.081-1.931 1.383-.587 2.406-1.247 3.06-1.903.649-.65.859-1.212.859-1.666v-5.161Z" clip-rule="evenodd"/></svg>
