<svg xmlns="http://www.w3.org/2000/svg" width="56" height="56" fill="currentColor" viewBox="0 0 56 56"><path fill-rule="evenodd" d="M15.036 8h25.928c1.626 0 2.937 0 3.999.087 1.093.09 2.053.278 2.942.73a7.5 7.5 0 0 1 3.277 3.278c.453.888.642 1.849.731 2.942C52 16.1 52 17.41 52 19.036v12.928c0 1.626 0 2.937-.087 3.999-.09 1.093-.278 2.053-.73 2.942a7.5 7.5 0 0 1-3.278 3.277c-.889.453-1.849.642-2.942.731C43.9 43 42.59 43 40.964 43H30.121l-9.136 9.137c-1.84 1.84-4.985.536-4.985-2.065V43h-.964c-1.626 0-2.937 0-3.999-.087-1.093-.09-2.053-.278-2.942-.73a7.5 7.5 0 0 1-3.278-3.278c-.452-.889-.641-1.849-.73-2.942C4 34.9 4 33.59 4 31.964V19.036c0-1.626 0-2.937.087-3.999.09-1.093.278-2.054.73-2.942a7.5 7.5 0 0 1 3.278-3.278c.889-.452 1.849-.641 2.942-.73C12.1 8 13.41 8 15.036 8Zm-3.755 3.077c-.907.074-1.429.212-1.824.414a4.5 4.5 0 0 0-1.967 1.966c-.2.395-.34.917-.413 1.824C7 16.207 7 17.395 7 19.1v12.8c0 1.705.001 2.893.077 3.819.074.907.212 1.429.413 1.824a4.5 4.5 0 0 0 1.967 1.967c.395.2.917.34 1.824.413.926.076 2.114.077 3.819.077h2.4a1.5 1.5 0 0 1 1.5 1.5v8.379l9.44-9.44A1.5 1.5 0 0 1 29.5 40h11.4c1.705 0 2.893-.001 3.819-.077.907-.074 1.429-.212 1.824-.413a4.5 4.5 0 0 0 1.967-1.967c.2-.395.34-.917.413-1.824C49 34.793 49 33.605 49 31.9V19.1c0-1.705-.001-2.893-.077-3.819-.074-.907-.212-1.429-.413-1.824a4.5 4.5 0 0 0-1.967-1.966c-.395-.202-.917-.34-1.824-.414C43.793 11 42.605 11 40.9 11H15.1c-1.705 0-2.893.001-3.819.077Z" clip-rule="evenodd"/></svg>
