<svg fill="none" height="56" viewBox="0 0 56 56" width="56" xmlns="http://www.w3.org/2000/svg"><path d="m27.2343 42.1432.9648 1.1485zm-10.0911 8.4765-.9648-1.1485zm-8.6432-35.6197c.82843 0 1.5-.6716 1.5-1.5s-.67157-1.5-1.5-1.5zm20.8946 20.6715-.9648 1.1485zm9.4622 7.9482.9648-1.1485zm-33.8568-7.1197v-18h-3v18zm9.5 3.5h-6v3h6zm2.5 9.854v-7.354h-3v7.354zm9.2695-8.8594-10.0911 8.4766 1.9296 2.2971 10.0911-8.4766zm1.9296 2.2971c.2243-.1884.5079-.2917.8009-.2917v-3c-.9988 0-1.9657.3522-2.7305.9946zm-14.1991 6.5623c0 2.1242 2.4815 3.2805 4.108 1.9143l-1.9296-2.2971c.3253-.2733.8216-.042.8216.3828zm.5-6.854c-.2761 0-.5-.2239-.5-.5h3c0-1.3807-1.1193-2.5-2.5-2.5zm-12.5-6.5c0 3.5899 2.91015 6.5 6.5 6.5v-3c-1.933 0-3.5-1.567-3.5-3.5zm3-18c0-1.933 1.567-3.5 3.5-3.5v-3c-3.58985 0-6.5 2.9101-6.5 6.5zm41.5-13.5h-28v3h28zm-34.5 6.5v18h3v-18zm41 18v-18h-3v18zm-11.5 6.5h5v-3h-5zm.5 6.854v-7.354h-3v7.354zm-23.5-6.854h7.6787v-3h-7.6787zm9.9298.82 9.4622 7.9483 1.9296-2.2971-9.4622-7.9483zm-2.2511-.82c.8234 0 1.6206.2904 2.2511.82l1.9296-2.2971c-1.171-.9836-2.6514-1.5229-4.1807-1.5229zm12.8213 6.854c0-.4248.4963-.6561.8216-.3828l-1.9296 2.2971c1.6265 1.3662 4.108.2099 4.108-1.9143zm2.5-9.854c-1.3807 0-2.5 1.1193-2.5 2.5h3c0 .2761-.2239.5-.5.5zm8.5-3.5c0 1.933-1.567 3.5-3.5 3.5v3c3.5899 0 6.5-2.9101 6.5-6.5zm-38 0c0 3.5899 2.9101 6.5 6.5 6.5v-3c-1.933 0-3.5-1.567-3.5-3.5zm6.5-24.5c-3.5899 0-6.5 2.91015-6.5 6.5h3c0-1.933 1.567-3.5 3.5-3.5zm28 3c1.933 0 3.5 1.567 3.5 3.5h3c0-3.58985-2.9101-6.5-6.5-6.5z" fill="currentColor"/></svg>
