<svg xmlns="http://www.w3.org/2000/svg" width="56" height="56" fill="currentColor" viewBox="0 0 56 56"><path fill-rule="evenodd" d="M5.44 5.44a1.5 1.5 0 0 1 2.12 0l42 42a1.5 1.5 0 0 1-2.12 2.122l-6.561-6.56H30.12l-9.136 9.136c-1.84 1.84-4.985.537-4.985-2.065v-7.072h-.964c-1.626 0-2.937 0-3.999-.087-1.093-.089-2.053-.278-2.942-.73a7.5 7.5 0 0 1-3.278-3.278c-.452-.888-.64-1.849-.73-2.942C4 34.902 4 33.591 4 31.965V19.037c0-1.626 0-2.937.087-3.999.09-1.093.278-2.053.73-2.942A7.5 7.5 0 0 1 7.22 9.342l-1.78-1.78a1.5 1.5 0 0 1 0-2.121Zm3.96 6.082a4.5 4.5 0 0 0-1.91 1.936c-.2.395-.34.917-.413 1.825C7 16.208 7 17.396 7 19.1v12.8c0 1.705.001 2.894.077 3.819.074.908.212 1.43.413 1.824a4.5 4.5 0 0 0 1.967 1.967c.395.201.917.34 1.824.413.926.076 2.114.077 3.819.077h2.4a1.5 1.5 0 0 1 1.5 1.5v8.379l9.44-9.44A1.5 1.5 0 0 1 29.5 40h8.379L9.399 11.52Zm35.319-.444c-.926-.076-2.114-.077-3.819-.077H18a1.5 1.5 0 0 1 0-3h22.964c1.626 0 2.937 0 3.999.087 1.093.09 2.053.278 2.942.73a7.5 7.5 0 0 1 3.277 3.278c.453.889.642 1.849.731 2.942C52 16.1 52 17.411 52 19.037v12.928c0 1.626 0 2.937-.087 4-.09 1.092-.278 2.053-.73 2.941a7.499 7.499 0 0 1-1.726 2.223 1.5 1.5 0 1 1-1.983-2.25 4.501 4.501 0 0 0 1.036-1.335c.2-.395.34-.916.413-1.824.077-.925.077-2.114.077-3.82V19.1c0-1.705-.001-2.893-.077-3.818-.074-.908-.212-1.43-.413-1.825a4.5 4.5 0 0 0-1.967-1.966c-.395-.202-.917-.34-1.824-.414Z" clip-rule="evenodd"/></svg>
