<svg fill="none" height="56" viewBox="0 0 56 56" width="56" xmlns="http://www.w3.org/2000/svg"><g clip-rule="evenodd" fill="currentColor" fill-rule="evenodd"><path d="m36.92 21.2075c.4056-1.307-.8206-2.5331-2.1275-2.1275l-11.036 3.425c-.5979.1855-1.066.6536-1.2515 1.2515l-3.425 11.036c-.4056 1.3069.8206 2.5331 2.1275 2.1275l11.036-3.425c.5979-.1856 1.066-.6536 1.2515-1.2515zm-11.7214 3.9911 8.1241-2.5213-2.5213 8.1241-8.1241 2.5213z"/><path d="m52 28c0 13.2548-10.7452 24-24 24s-24-10.7452-24-24 10.7452-24 24-24 24 10.7452 24 24zm-3 0c0 11.598-9.402 21-21 21s-21-9.402-21-21 9.402-21 21-21 21 9.402 21 21z"/></g></svg>
