<svg xmlns="http://www.w3.org/2000/svg" width="56" height="56" fill="none" viewBox="0 0 56 56"><path fill="currentColor" fill-rule="evenodd" d="M34.2418 40H37.2c4.4804 0 6.7206 0 8.4319-.8719a8.0004 8.0004 0 0 0 3.4962-3.4962C50 33.9206 50 31.6804 50 27.2v-6.9c0-4.4804 0-6.7206-.8719-8.4319a8.0002 8.0002 0 0 0-3.4962-3.4962C43.9206 7.5 41.6804 7.5 37.2 7.5H18.8c-4.4804 0-6.7206 0-8.4319.872a7.9999 7.9999 0 0 0-3.4962 3.4961C6 13.5794 6 15.8196 6 20.3v6.9c0 4.4804 0 6.7206.872 8.4319a8.0001 8.0001 0 0 0 3.4961 3.4962C12.0794 40 14.3196 40 18.8 40h2.9582l-1.05 7H13.5c-.8284 0-1.5.6716-1.5 1.5s.6716 1.5 1.5 1.5h29c.8284 0 1.5-.6716 1.5-1.5s-.6716-1.5-1.5-1.5h-7.2082l-1.05-7ZM37.2 10.5H18.8c-2.2897 0-3.8266.0023-5.0101.099-1.1485.0939-1.6976.2614-2.0599.446a4.9993 4.9993 0 0 0-2.185 2.185c-.1846.3623-.3521.9114-.446 2.0599C9.0023 16.4734 9 18.0103 9 20.3v6.9c0 2.2897.0023 3.8266.099 5.0101.0939 1.1485.2614 1.6976.446 2.0599a4.9993 4.9993 0 0 0 2.185 2.185c.3623.1846.9114.3521 2.0599.446 1.1835.0967 2.7204.099 5.0101.099h18.4c2.2897 0 3.8266-.0023 5.0101-.099 1.1485-.0939 1.6976-.2614 2.0599-.446a4.999 4.999 0 0 0 2.185-2.185c.1846-.3623.3521-.9114.446-2.0599.0967-1.1835.099-2.7204.099-5.0101v-6.9c0-2.2897-.0023-3.8266-.099-5.0101-.0939-1.1485-.2614-1.6976-.446-2.0599a4.999 4.999 0 0 0-2.185-2.185c-.3623-.1846-.9114-.3521-2.0599-.446-1.1835-.0967-2.7204-.099-5.0101-.099ZM31.2082 40h-6.4164l-1.05 7h8.5164l-1.05-7Z" clip-rule="evenodd"/></svg>
