<svg xmlns="http://www.w3.org/2000/svg" width="56" height="56" fill="currentColor" viewBox="0 0 56 56"><path d="m29.877 9.715-.002-.004s-.492-1.408-1.898-1.408c-1.407 0-1.91 1.408-1.91 1.408v.004l-.008.024-.033.106a48.842 48.842 0 0 1-.685 1.952 46.524 46.524 0 0 1-2.02 4.637c-.86 1.691-1.834 3.269-2.857 4.396-1.058 1.166-1.898 1.558-2.5 1.558-2.14 0-4.566-1.357-6.659-3.023a27.543 27.543 0 0 1-3.124-2.924l-.17-.192-.04-.045-.007-.009S6.94 14.92 5.556 15.62s-1.043 2.414-1.043 2.414l3.093 15.534h40.732l3.093-15.534s.42-1.658-.942-2.392c-1.362-.734-2.51.554-2.51.554l-.007.008-.04.045a24.316 24.316 0 0 1-.852.911 27.54 27.54 0 0 1-2.442 2.205c-2.093 1.666-4.518 3.023-6.658 3.023-.602 0-1.443-.393-2.5-1.558-1.024-1.127-1.999-2.705-2.858-4.396a46.548 46.548 0 0 1-2.02-4.638 48.535 48.535 0 0 1-.684-1.951l-.034-.106-.008-.024Zm17.621 28.072H8.446l.7 3.52.026.112c.348 1.37.922 2.613 1.907 3.65 2.234 2.357 5.467 2.576 9.491 2.629h14.803c4.024-.053 7.257-.272 9.49-2.629.987-1.039 1.558-2.282 1.907-3.646l.027-.116.7-3.52Z"/></svg>
