<svg xmlns="http://www.w3.org/2000/svg" width="56" height="56" fill="currentColor" viewBox="0 0 56 56"><path d="M48.552 15.57c.62-.63 1.58-.77 2.36-.35h.03a2 2 0 0 1 1.01 2.17L48.515 34H7.48L4.042 17.39a2 2 0 0 1 1.01-2.17c.77-.42 1.74-.27 2.36.35l.07.07c.05.05.13.13.24.23.22.21.53.5.93.85.79.7 1.89 1.63 3.13 2.51 1.25.9 2.59 1.71 3.85 2.24 1.3.56 2.29.7 2.97.56.53-.11 1.34-.63 2.34-1.89.94-1.19 1.84-2.76 2.62-4.39.78-1.61 1.41-3.2 1.85-4.4.22-.6.39-1.09.5-1.43a11.4 11.4 0 0 0 .13-.39.293.293 0 0 1 .02-.063.115.115 0 0 0 .01-.037v-.02c.26-.84 1.03-1.41 1.91-1.41.88 0 1.65.57 1.91 1.41v.02c.01.02.02.06.03.1l.03.09c.025.08.058.18.1.3.11.34.28.83.5 1.43.44 1.2 1.07 2.79 1.85 4.4.78 1.62 1.67 3.2 2.62 4.39 1 1.26 1.81 1.78 2.34 1.89.67.13 1.67-.01 2.97-.56 1.27-.53 2.6-1.35 3.85-2.24 1.24-.89 2.34-1.81 3.13-2.51a29.68 29.68 0 0 0 1.09-1.003c.032-.03.06-.056.08-.077l.07-.07ZM8.306 38l.416 2.01a9.998 9.998 0 0 0 9.79 7.97h18.97c4.74 0 8.83-3.33 9.79-7.97l.416-2.01H8.306Z"/></svg>
