<svg fill="none" height="56" viewBox="0 0 56 56" width="56" xmlns="http://www.w3.org/2000/svg"><g fill="currentColor"><path d="m29 25.7344c0 3.5667-3.5477 5.4018-5.2555 3.5071-1.7668-1.9601-.2959-5.0453 3.2555-5.2415v-5.248c-.0186-1.4625 1.1374-2.5018 2.3541-2.9518l.2377-.0818c.4996-.1624 1.3512-.3936 2.5713-.6994.3932-.0985.7688.1973.8286.623l.0083.1192v1.5997c0 1.1679-.6661 2.1985-1.6455 2.5823l-.1872.0643-2.1673.6751z"/><g clip-rule="evenodd" fill-rule="evenodd"><path d="m38.0801 6.08236c-.9014-.0824-1.9995-.08238-3.3295-.08236h-13.4961c-1.33-.00002-2.4281-.00004-3.3295.08235-.9433.08621-1.7923.27047-2.5962.70967-1.2183.66568-2.3022 1.85758-2.8513 3.1355-.6561 1.52688-.5045 3.16188-.2993 5.37478l.0301.325c.0114.1244.0231.2485.0351.3724-1.2914-.0032-2.61958.4404-3.6974 1.2023-1.43537 1.0148-2.55076 2.6842-2.55076 4.844 0 2.5629 1.46016 4.8214 3.44676 6.3843 1.7085 1.3442 3.9122 2.2681 6.2525 2.5078.3727.868.7737 1.6911 1.2036 2.4647 1.5803 2.8436 3.6063 5.0978 6.0966 6.3901-.0685.7832-.1963 1.3476-.3406 1.7647-.2056.594-.4647.9483-.7429 1.2561-.1108.1226-.2082.221-.3247.3388-.0596.0602-.1242.1254-.1982.2016-.1947.2004-.4308.4543-.6456.7647-.4732.6839-.7427 1.4945-.7427 2.5741v1.8071c0 .8284.6716 1.5 1.5 1.5h13c.8284 0 1.5-.6716 1.5-1.5v-1.8c0-1.0799-.2699-1.8907-.7452-2.5742-.2156-.3101-.4525-.5631-.6475-.7626-.0742-.0759-.139-.1409-.1986-.2007-.1166-.117-.2138-.2145-.3245-.3363-.2776-.3052-.536-.6567-.7413-1.248-.1456-.4195-.2745-.9895-.3426-1.7839 2.492-1.2921 4.5197-3.5467 6.1016-6.3911.4304-.7739.8318-1.5973 1.2049-2.4658 2.338-.2406 4.5395-1.1641 6.2464-2.5071 1.9866-1.5629 3.4468-3.8214 3.4468-6.3843 0-2.1598-1.1154-3.8292-2.5508-4.844-1.0752-.7601-2.3995-1.2034-3.688-1.2023.012-.1239.0237-.2479.0351-.3723l.0301-.3249c.2054-2.2125.3572-3.8474-.2987-5.37444-.549-1.278-1.633-2.47018-2.8514-3.13592-.8039-.43925-1.6529-.62355-2.5962-.70978zm-19.8836 2.98761c-.7232.06609-1.1255.18645-1.4367.3565-.6307.34456-1.2512 1.02693-1.5354 1.68833-.3173.7385-.2844 1.5515-.0376 4.2371.6248 6.7996 2.0894 12.5695 4.3239 16.5902 2.2224 3.9988 5.0639 6.0579 8.4879 6.0579 3.4242 0 6.2671-2.0593 8.4911-6.0582 2.2361-4.0208 3.7024-9.7907 4.3281-16.5901.2472-2.6852.2801-3.498-.0372-4.2366-.2841-.6614-.9047-1.344-1.5353-1.68856-.3113-.17009-.7136-.29046-1.4367-.35656-.7497-.06854-1.7111-.06998-3.1258-.06998h-13.3604c-1.4148 0-2.3762.00144-3.1259.06997zm5.0132 36.75583c-.0983.1421-.2097.3466-.2097.867v.3072h10v-.3c0-.5202-.1114-.7223-.2082-.8614-.0704-.1012-.1672-.2119-.3297-.3782-.036-.0368-.0793-.0803-.1273-.1286-.1365-.1371-.3116-.313-.4698-.4869-.4851-.5333-.9894-1.2265-1.3561-2.2828-.1776-.5115-.3171-1.091-.4123-1.758-.6727.1289-1.372.1959-2.098.1959-.7273 0-1.4277-.0672-2.1014-.1965-.095.6573-.233 1.2295-.4082 1.7354-.3658 1.0569-.8687 1.7516-1.3524 2.2867-.1578.1745-.3324.3511-.4687.489-.0481.0486-.0914.0924-.1275.1296-.1625.1674-.2598.2792-.3307.3816zm-12.9242-26.1958c-.76916.5438-1.29026 1.363-1.29026 2.416 0 1.3956.81061 2.869 2.30936 4.0482.9017.7094 2.0007 1.2663 3.1897 1.5949-.834-2.6323-1.4628-5.557-1.8976-8.681-.6532-.1044-1.5481.0825-2.3112.6219zm35.4242 0c.7692.5438 1.2903 1.363 1.2903 2.416 0 1.3956-.8106 2.869-2.3094 4.0482-.8997.7079-1.996 1.264-3.1821 1.5928.8345-2.6321 1.4639-5.5566 1.8991-8.6804.6523-.1012 1.5426.0865 2.3021.6234z"/></g></g></svg>
