<svg xmlns="http://www.w3.org/2000/svg" width="56" height="56" fill="currentColor" viewBox="0 0 56 56"><path fill-rule="evenodd" d="M39.5 40a1.5 1.5 0 0 1 1.5 1.5v2a1.5 1.5 0 0 1-3 0v-2a1.5 1.5 0 0 1 1.5-1.5Z" clip-rule="evenodd"/><path fill-rule="evenodd" d="M41 41.5a1.5 1.5 0 0 0-3 0v2a1.5 1.5 0 0 0 3 0v-2Z" clip-rule="evenodd"/><path fill-rule="evenodd" d="M49.51 36.457a4.5 4.5 0 0 0-1.967-1.967c-.501-.255-1.02-.368-1.543-.425V32.5a6.5 6.5 0 1 0-13 0v1.565c-.523.057-1.042.17-1.543.425a4.5 4.5 0 0 0-1.966 1.967c-.29.568-.397 1.157-.445 1.75C29 38.77 29 39.453 29 40.243v4.516c0 .79 0 1.473.046 2.034.048.594.155 1.183.445 1.751a4.5 4.5 0 0 0 1.966 1.967c.568.289 1.157.396 1.75.444.562.046 1.245.046 2.035.046h8.516c.79 0 1.473 0 2.034-.046.594-.048 1.183-.155 1.751-.444a4.5 4.5 0 0 0 1.967-1.967c.289-.568.396-1.157.444-1.75.046-.562.046-1.244.046-2.035v-4.516c0-.79 0-1.473-.046-2.034-.048-.594-.155-1.183-.444-1.751Zm-16.058.579c-.408.033-.559.09-.633.127a1.5 1.5 0 0 0-.656.656c-.037.074-.094.225-.127.633C32 38.877 32 39.435 32 40.3v4.4c0 .865.001 1.423.036 1.848.033.408.09.559.127.633a1.5 1.5 0 0 0 .656.656c.074.037.225.094.633.127.425.035.983.036 1.848.036h8.4c.865 0 1.423-.001 1.848-.036.408-.033.559-.09.633-.127a1.5 1.5 0 0 0 .656-.656c.037-.074.094-.225.127-.633.035-.425.036-.983.036-1.848v-4.4c0-.865-.001-1.423-.036-1.848-.033-.408-.09-.559-.127-.633a1.5 1.5 0 0 0-.656-.656c-.074-.037-.225-.094-.633-.127C45.123 37 44.565 37 43.7 37h-8.4c-.865 0-1.423.001-1.848.036ZM36 32.5a3.5 3.5 0 1 1 7 0V34h-7v-1.5Z" clip-rule="evenodd"/><path fill-rule="evenodd" d="M28 5c-5.8 0-11.117.915-15.041 2.446-1.957.764-3.643 1.71-4.865 2.838C6.87 11.413 6 12.836 6 14.5v25c0 1.49.7 2.792 1.725 3.856 1.017 1.056 2.422 1.954 4.055 2.7 3.269 1.494 7.728 2.503 12.696 2.83a1.5 1.5 0 1 0 .197-2.994c-4.723-.31-8.801-1.264-11.646-2.564-1.425-.652-2.472-1.359-3.142-2.054C9.222 40.586 9 39.991 9 39.5v-7.54c.867.636 1.886 1.202 3.007 1.699 3.396 1.503 8.023 2.498 13.157 2.767a1.5 1.5 0 0 0 .158-2.996c-4.884-.256-9.129-1.199-12.1-2.514-1.489-.66-2.586-1.381-3.29-2.095C9.231 28.114 9 27.501 9 27v-7.54c1.099.806 2.448 1.505 3.959 2.094C16.883 23.085 22.201 24 28 24c5.8 0 11.117-.915 15.041-2.446 1.51-.59 2.86-1.288 3.959-2.095v6.717a1.5 1.5 0 0 0 3 0V14.5c0-1.664-.87-3.087-2.094-4.216-1.222-1.128-2.908-2.074-4.865-2.838C39.117 5.915 33.799 5 28 5Zm-17.872 7.489C9.278 13.274 9 13.954 9 14.5c0 .545.277 1.226 1.128 2.012.853.786 2.169 1.564 3.922 2.247C17.546 20.124 22.477 21 28 21s10.454-.876 13.95-2.24c1.753-.684 3.07-1.462 3.922-2.248.85-.786 1.128-1.467 1.128-2.012 0-.545-.277-1.226-1.128-2.011-.853-.787-2.169-1.565-3.922-2.248C38.454 8.876 33.523 8 28 8s-10.454.876-13.95 2.24c-1.753.684-3.07 1.462-3.922 2.248Z" clip-rule="evenodd"/></svg>
