<svg xmlns="http://www.w3.org/2000/svg" width="56" height="56" fill="currentColor" viewBox="0 0 56 56"><path fill-rule="evenodd" d="M21.398 18.003a1.5 1.5 0 0 0-1.395 1.599l1.5 22a1.5 1.5 0 1 0 2.994-.204l-1.5-22a1.5 1.5 0 0 0-1.599-1.395Zm13.204 0a1.5 1.5 0 0 1 1.395 1.599l-1.5 22a1.5 1.5 0 1 1-2.994-.204l1.5-22a1.5 1.5 0 0 1 1.599-1.395Z" clip-rule="evenodd"/><path fill-rule="evenodd" d="M5 9a1.5 1.5 0 1 0 0 3h4.63l2.862 31.42c.112 1.234.204 2.247.345 3.068.146.853.36 1.618.779 2.325a6.5 6.5 0 0 0 2.8 2.557c.742.353 1.523.497 2.386.565.83.065 1.847.065 3.086.065h12.224c1.239 0 2.255 0 3.086-.065.863-.068 1.644-.212 2.386-.565a6.5 6.5 0 0 0 2.8-2.557c.419-.707.633-1.472.78-2.325.14-.821.232-1.833.344-3.067L46.37 12H51a1.5 1.5 0 0 0 0-3H36.368a8.503 8.503 0 0 0-16.736 0H5Zm10.474 34.09c.12 1.307.202 2.201.32 2.893.115.674.247 1.037.403 1.3a3.5 3.5 0 0 0 1.508 1.378c.277.131.65.23 1.332.283.7.055 1.598.056 2.91.056h12.106c1.312 0 2.21-.001 2.91-.056.682-.053 1.055-.152 1.332-.283a3.5 3.5 0 0 0 1.508-1.377c.157-.264.288-.627.403-1.3.118-.693.2-1.587.32-2.895L43.357 12H12.643l2.831 31.09ZM28 5a5.502 5.502 0 0 0-5.293 4h10.586A5.502 5.502 0 0 0 28 5Z" clip-rule="evenodd"/></svg>
