<?xml version="1.0" encoding="UTF-8"?>
<svg width="56px" height="56px" viewBox="0 0 56 56" version="1.1" xmlns="http://www.w3.org/2000/svg" xmlns:xlink="http://www.w3.org/1999/xlink">
    <!-- Generator: Sketch 59 (86127) - https://sketch.com -->
    <title>Icons 56/delete_outline_56 Android</title>
    <desc>Created with Sketch.</desc>
    <g id="Icons-56/delete_outline_56-Android" stroke="none" stroke-width="1" fill="none" fill-rule="evenodd">
        <g id="delete_outline_56-Android">
            <rect x="0" y="0" width="56" height="56"></rect>
            <path d="M30.9320217,4 C31.7817469,4 32.2526392,4.04762083 32.766897,4.19187359 C33.2882679,4.33812163 33.756542,4.57225869 34.186363,4.90160658 C34.6103198,5.22646112 34.9309519,5.57460247 35.440787,6.25438266 L36.3376777,7.45023688 C36.5878259,7.78376785 36.6551292,7.8574132 36.7296424,7.91450846 C36.7638451,7.94071612 36.78912,7.95335359 36.8306078,7.96499119 C36.9209919,7.99034453 37.0202902,8 37.4372039,8 L42.5,8 C45.5375661,8 48,10.4624339 48,13.5 L48,16.2180574 C48,16.8509128 47.9203056,17.2636042 47.6891534,17.6958211 C47.4622002,18.1201868 47.1201868,18.4622002 46.6958211,18.6891534 C46.2636042,18.9203056 45.8509128,19 45.2180574,19 L45,19 L45,41.7444592 C45,45.3105342 44.6286976,46.6036791 43.9314692,47.9073828 C43.2342408,49.2110865 42.2110865,50.2342408 40.9073828,50.9314692 C39.6036791,51.6286976 38.3105342,52 34.7444592,52 L21.2555408,52 C17.6894658,52 16.3963209,51.6286976 15.0926172,50.9314692 C13.7889135,50.2342408 12.7657592,49.2110865 12.0685308,47.9073828 C11.3713024,46.6036791 11,45.3105342 11,41.7444592 L11,19 L10.7819426,19 C10.1490872,19 9.73639584,18.9203056 9.30417886,18.6891534 C8.87981319,18.4622002 8.5377998,18.1201868 8.31084655,17.6958211 C8.07969438,17.2636042 8,16.8509128 8,16.2180574 L8,13.5 C8,10.4624339 10.4624339,8 13.5,8 L18.5627961,8 C18.9797098,8 19.0790081,7.99034453 19.1693922,7.96499119 C19.21088,7.95335359 19.2361549,7.94071612 19.2703576,7.91450846 C19.3448708,7.8574132 19.4121741,7.78376785 19.6623223,7.45023688 L20.559213,6.25438266 C21.0690481,5.57460247 21.3896802,5.22646112 21.813637,4.90160658 C22.243458,4.57225869 22.7117321,4.33812163 23.233103,4.19187359 C23.7473608,4.04762083 24.2182531,4 25.0679783,4 L30.9320217,4 Z M42,19 L14,19 L14,41.7444592 C14,44.5428316 14.1858032,45.5049994 14.7139704,46.4925862 C15.1315994,47.2734845 15.7265155,47.8684006 16.5074138,48.2860296 C17.4950006,48.8141968 18.4571684,49 21.2555408,49 L34.7444592,49 C37.5428316,49 38.5049994,48.8141968 39.4925862,48.2860296 C40.2734845,47.8684006 40.8684006,47.2734845 41.2860296,46.4925862 C41.8141968,45.5049994 42,44.5428316 42,41.7444592 L42,19 Z M31.1007121,7.00067293 L25.0679783,7 C24.4686948,7 24.2516847,7.021946 24.04335,7.08038529 C23.8892905,7.12360002 23.7653057,7.18559239 23.6382982,7.28291117 C23.466546,7.41451538 23.3187831,7.57495586 22.959213,8.05438266 L22.0623223,9.25023688 C21.6621327,9.78382309 21.4260182,10.0421866 21.0950188,10.295813 C20.7580026,10.5540498 20.3884383,10.738832 19.9796391,10.8535029 C19.5781384,10.9661266 19.2297789,11 18.5627961,11 L13.5,11 C12.1192881,11 11,12.1192881 11,13.5 L11,16 L45,16 L45,13.5 C45,12.1192881 43.8807119,11 42.5,11 L37.4372039,11 C36.7702211,11 36.4218616,10.9661266 36.0203609,10.8535029 C35.6115617,10.738832 35.2419974,10.5540498 34.9049812,10.295813 C34.5739818,10.0421866 34.3378673,9.78382309 33.9376777,9.25023688 L33.040787,8.05438266 C32.6812169,7.57495586 32.533454,7.41451538 32.3617018,7.28291117 C32.2346943,7.18559239 32.1107095,7.12360002 31.95665,7.08038529 C31.7691487,7.02778993 31.5746204,7.00475413 31.1007121,7.00067293 Z" id="↳-Icon-Color" fill="currentColor" fill-rule="nonzero"></path>
        </g>
    </g>
</svg>
