<svg xmlns="http://www.w3.org/2000/svg" width="56" height="56" fill="currentColor" viewBox="0 0 56 56"><path fill-rule="evenodd" d="M28 5a5.502 5.502 0 0 0-5.293 4h10.586A5.502 5.502 0 0 0 28 5Zm0-3a8.503 8.503 0 0 0-8.368 7H5a1.5 1.5 0 1 0 0 3h4.63l2.862 31.421c.112 1.234.204 2.246.345 3.067.146.854.36 1.618.779 2.325a6.5 6.5 0 0 0 2.8 2.557c.742.353 1.523.497 2.386.565.83.065 1.847.065 3.086.065H28a1.5 1.5 0 0 0 0-3h-6.053c-1.312 0-2.21-.001-2.91-.056-.682-.053-1.055-.151-1.332-.283a3.5 3.5 0 0 1-1.508-1.377c-.156-.264-.288-.627-.403-1.3-.118-.693-.2-1.587-.32-2.894L12.643 12h30.714L42.14 25.364a1.5 1.5 0 0 0 2.988.272L46.37 12H51a1.5 1.5 0 0 0 0-3H36.368A8.503 8.503 0 0 0 28 2Zm-6.602 16.003a1.5 1.5 0 0 0-1.395 1.6l1.5 22a1.5 1.5 0 1 0 2.994-.205l-1.5-22a1.5 1.5 0 0 0-1.599-1.395Zm14.598 1.6a1.5 1.5 0 0 0-2.992-.205l-.563 8.25a1.5 1.5 0 0 0 2.993.204l.563-8.25ZM42 54c6.627 0 12-5.373 12-12s-5.373-12-12-12-12 5.373-12 12 5.373 12 12 12Zm0-18.5a1.5 1.5 0 0 1 1.5 1.5v6.379l1.94-1.94a1.5 1.5 0 0 1 2.12 2.122l-4.5 4.5a1.5 1.5 0 0 1-2.12 0l-4.5-4.5a1.5 1.5 0 0 1 2.12-2.122l1.94 1.94V37a1.5 1.5 0 0 1 1.5-1.5Z" clip-rule="evenodd"/></svg>
