<svg xmlns="http://www.w3.org/2000/svg" width="56" height="56" fill="currentColor" viewBox="0 0 56 56"><path d="M30.036 4c-1.626 0-2.937 0-3.999.087-1.093.09-2.053.278-2.942.73a7.5 7.5 0 0 0-3.277 3.278c-.568 1.113-.726 2.356-.784 3.847-.018.473-.027.988-.03 1.548a1.5 1.5 0 1 0 3 .02c.003-.546.011-1.024.028-1.452.054-1.403.2-2.095.459-2.601a4.5 4.5 0 0 1 1.966-1.967c.395-.2.917-.34 1.824-.413C27.207 7 28.395 7 30.1 7h6.8c1.705 0 2.893.001 3.819.077.907.074 1.429.212 1.824.413a4.5 4.5 0 0 1 1.967 1.967c.2.395.34.917.413 1.824.076.926.077 2.114.077 3.819v25.8c0 1.705-.001 2.893-.077 3.819-.074.907-.212 1.429-.413 1.824a4.5 4.5 0 0 1-1.967 1.967c-.395.2-.917.34-1.824.413C39.793 49 38.605 49 36.9 49H35a1.5 1.5 0 0 0 0 3h1.964c1.626 0 2.937 0 3.999-.087 1.093-.09 2.053-.278 2.942-.73a7.5 7.5 0 0 0 3.278-3.278c.452-.889.641-1.849.73-2.942C48 43.9 48 42.59 48 40.964V15.036c0-1.626 0-2.937-.087-3.999-.089-1.093-.278-2.053-.73-2.942a7.5 7.5 0 0 0-3.278-3.278c-.889-.452-1.849-.641-2.942-.73C39.901 4 38.59 4 36.964 4h-6.928Z M19.036 18c-1.626 0-2.937 0-3.999.087-1.093.09-2.054.278-2.942.73a7.5 7.5 0 0 0-3.278 3.278c-.452.889-.641 1.849-.73 2.942C8 26.1 8 27.41 8 29.036v11.928c0 1.626 0 2.937.087 3.999.09 1.093.278 2.053.73 2.942a7.5 7.5 0 0 0 3.278 3.277c.888.453 1.849.642 2.942.731C16.1 52 17.41 52 19.036 52h1.928c1.626 0 2.937 0 3.999-.087 1.093-.09 2.053-.278 2.942-.73a7.5 7.5 0 0 0 3.277-3.278c.453-.889.642-1.849.731-2.942C32 43.9 32 42.59 32 40.964V29.036c0-1.626 0-2.937-.087-3.999-.09-1.093-.278-2.053-.73-2.942a7.5 7.5 0 0 0-3.278-3.277c-.889-.453-1.849-.642-2.942-.731C23.9 18 22.59 18 20.964 18h-1.928Zm-5.579 3.49c.395-.2.917-.34 1.824-.413C16.207 21 17.395 21 19.1 21h1.8c1.705 0 2.893.001 3.819.077.907.074 1.429.212 1.824.413a4.5 4.5 0 0 1 1.966 1.967c.202.395.34.917.414 1.824.076.926.077 2.114.077 3.819v11.8c0 1.705-.001 2.893-.077 3.819-.074.907-.212 1.429-.413 1.824a4.5 4.5 0 0 1-1.967 1.967c-.395.2-.917.34-1.824.413C23.793 49 22.605 49 20.9 49h-1.8c-1.705 0-2.893-.001-3.819-.077-.907-.074-1.429-.212-1.824-.413a4.5 4.5 0 0 1-1.966-1.967c-.202-.395-.34-.917-.414-1.824C11 43.793 11 42.605 11 40.9V29.1c0-1.705.001-2.893.077-3.819.074-.907.212-1.429.414-1.824a4.5 4.5 0 0 1 1.966-1.966Z" clip-rule="evenodd"/></svg>
