<svg xmlns="http://www.w3.org/2000/svg" width="56" height="56" fill="currentColor" viewBox="0 0 56 56"><path fill-rule="evenodd" d="M26.234 4.001H28c1.94 0 3.791.817 5.1 2.25l6.137 6.723 6.437 6.56c.174.177.295.3.408.427a7.5 7.5 0 0 1 1.908 4.667c.008.17.008.342.008.592v1.043a1.5 1.5 0 0 1-3 0v-1.265H32.004a5 5 0 0 1-5-5V7h-.703c-2.965 0-5.099.001-6.775.138-1.658.136-2.735.397-3.611.843a9 9 0 0 0-3.934 3.933c-.446.877-.707 1.954-.842 3.612-.137 1.676-.138 3.81-.138 6.774v11.4c0 2.965 0 5.098.138 6.774.135 1.658.396 2.735.842 3.612a9 9 0 0 0 3.934 3.933c.876.446 1.953.707 3.611.843 1.676.137 3.81.138 6.775.138h11.197a1.5 1.5 0 0 1 0 3H26.234c-2.883 0-5.139 0-6.95-.148-1.845-.151-3.36-.462-4.73-1.16a12 12 0 0 1-5.244-5.244c-.698-1.37-1.01-2.886-1.16-4.73-.148-1.812-.148-4.068-.148-6.95V22.233c0-2.883 0-5.14.148-6.951.15-1.844.462-3.36 1.16-4.73a12 12 0 0 1 5.244-5.244c1.37-.698 2.885-1.01 4.73-1.16C21.095 4 23.351 4 26.234 4Zm3.77 3.554v12.443a2 2 0 0 0 2 2H43.88a11.81 11.81 0 0 0-.37-.387l-6.451-6.574-6.174-6.763a3.904 3.904 0 0 0-.88-.719Z M43.502 52.991a1.5 1.5 0 0 1-1.5-1.5V35.114l-4.431 4.432a1.5 1.5 0 0 1-2.122-2.122l6.992-6.991a1.5 1.5 0 0 1 2.122 0l7.006 7.005a1.5 1.5 0 1 1-2.122 2.122l-4.445-4.446v16.377a1.5 1.5 0 0 1-1.5 1.5Z"/></svg>
