<svg xmlns="http://www.w3.org/2000/svg" width="56" height="56" viewBox="0 0 56 56" fill="currentColor"><path d="M23.829 11.685c2.513-1.41 5.71-.683 8.533 1.005 2.897 1.733 5.8 4.682 8.083 8.522 2.286 3.846 3.465 7.784 3.565 11.105.096 3.233-.846 6.31-3.364 7.723a1.55 1.55 0 0 1-2.078-.558 1.46 1.46 0 0 1 .542-2.027c1.082-.607 1.95-2.263 1.865-5.09-.083-2.742-1.076-6.196-3.149-9.684-2.071-3.486-4.636-6.033-7.02-7.458-2.457-1.47-4.354-1.563-5.44-.953a1.55 1.55 0 0 1-2.079-.558 1.46 1.46 0 0 1 .542-2.027"/><path fill-rule="evenodd" d="M20.32 5.788c4.152-2.329 9.136-2.03 13.794.168 4.655 2.197 9.093 6.324 12.408 11.902 3.32 5.585 4.78 11.385 4.413 16.4-.37 5.019-2.596 9.36-6.748 11.69q-.538.3-1.092.541l-7.282 4.084c-4 2.244-9.092 2.025-13.882-.05-4.81-2.083-9.466-6.084-12.798-11.691-3.329-5.6-4.566-11.515-4.018-16.602.546-5.067 2.896-9.46 6.897-11.705l5.029-2.819 1.561-.874.428-.24.167-.094q.536-.38 1.122-.71m-3.143 38.177c1.898 1.677 3.925 2.964 5.95 3.842 4.183 1.812 8.212 1.83 11.15.182l1.118-.628c-1.672-.27-3.355-.81-4.998-1.585-2.533-1.196-5.002-2.964-7.262-5.227zM32.825 8.63c-4.003-1.89-7.893-1.983-10.97-.258-3.071 1.723-4.932 5.043-5.25 9.356-.317 4.316.936 9.519 3.997 14.667 3.064 5.156 7.076 8.814 11.084 10.706 4.003 1.89 7.893 1.983 10.964.26 3.077-1.726 4.94-5.045 5.256-9.357.317-4.317-.939-9.521-4.003-14.677-3.06-5.15-7.071-8.806-11.078-10.697M9.446 32.478a28 28 0 0 0 2.306 4.885 28.4 28.4 0 0 0 3.218 4.402l6.098-3.496a35 35 0 0 1-3.086-4.404 35 35 0 0 1-2.419-4.892zm4.102-19.369c-2.938 1.648-4.935 5.048-5.412 9.473-.231 2.142-.097 4.49.448 6.925l5.985-3.43c-.86-2.99-1.191-5.91-.993-8.603.13-1.766.49-3.448 1.083-4.989z" clip-rule="evenodd"/></svg>