<svg xmlns="http://www.w3.org/2000/svg" width="56" height="56" fill="currentColor" viewBox="0 0 56 56"><path fill-rule="evenodd" d="M28 7.5A1.5 1.5 0 0 0 26.5 6h-5.117c-5.019 0-7.117.465-9.244 1.603a10.925 10.925 0 0 0-4.536 4.536C6.465 14.266 6 16.364 6 21.383v13.234c0 5.019.465 7.117 1.603 9.244a10.925 10.925 0 0 0 4.536 4.536C14.266 49.535 16.364 50 21.383 50H26.5a1.5 1.5 0 0 0 0-3h-5.117c-4.83 0-6.344-.454-7.83-1.248a7.926 7.926 0 0 1-3.305-3.306c-.794-1.485-1.248-3-1.248-7.83V21.384c0-4.83.454-6.344 1.248-7.83a7.926 7.926 0 0 1 3.306-3.305c1.485-.794 3-1.248 7.83-1.248H26.5A1.5 1.5 0 0 0 28 7.5Z M22 28a1.5 1.5 0 0 1 1.5-1.5h21.378l-5.939-5.94a1.5 1.5 0 0 1-.103-2.007l.103-.114a1.5 1.5 0 0 1 2.122 0l8.5 8.5a1.5 1.5 0 0 1 0 2.122l-8.5 8.5a1.5 1.5 0 0 1-2.122-2.122l5.939-5.938L23.5 29.5a1.5 1.5 0 0 1-1.493-1.355L22 28Z"/></svg>
