<?xml version="1.0" encoding="UTF-8"?>
<svg width="56px" height="56px" viewBox="0 0 56 56" version="1.1" xmlns="http://www.w3.org/2000/svg" xmlns:xlink="http://www.w3.org/1999/xlink">
    <!-- Generator: Sketch 61.2 (89653) - https://sketch.com -->
    <title>Icons 56/download_outline_56</title>
    <desc>Created with Sketch.</desc>
    <g id="Icons-56/download_outline_56" stroke="none" stroke-width="1" fill="none" fill-rule="evenodd">
        <g id="download_outline_56">
            <polygon points="0 0 56 0 56 56 0 56"></polygon>
            <path d="M41.5,43.9999999 C42.3284271,43.9999999 43,44.6715728 43,45.4999999 C43,46.328427 42.3284271,46.9999999 41.5,46.9999999 L13.5,46.9999999 C12.6715729,46.9999999 12,46.328427 12,45.4999999 C12,44.6715728 12.6715729,43.9999999 13.5,43.9999999 L41.5,43.9999999 Z M27.5,4.5 C28.3284271,4.5 29,5.17157288 29,6 L29,6 L29,34.378 L39.4393398,23.9393398 C39.9885146,23.390165 40.857577,23.3558416 41.4467378,23.8363696 L41.5606602,23.9393398 C42.1464466,24.5251263 42.1464466,25.4748737 41.5606602,26.0606602 L41.5606602,26.0606602 L28.5606602,39.0606602 C27.9748737,39.6464466 27.0251263,39.6464466 26.4393398,39.0606602 L26.4393398,39.0606602 L13.4393398,26.0606602 C12.8535534,25.4748737 12.8535534,24.5251263 13.4393398,23.9393398 C14.0251263,23.3535534 14.9748737,23.3535534 15.5606602,23.9393398 L15.5606602,23.9393398 L26,34.378 L26,6 C26,5.22030388 26.5948881,4.57955132 27.35554,4.50686658 Z" id="↳-Icon-Color" fill="currentColor" fill-rule="nonzero"></path>
        </g>
    </g>
</svg>
