<svg width="56" height="56" viewBox="0 0 56 56" fill="none" xmlns="http://www.w3.org/2000/svg">
<path fill-rule="evenodd" clip-rule="evenodd" d="M28 4C41.2549 4 52 14.7451 52 28C52 41.2549 41.2549 52 28 52C14.7451 52 4 41.2549 4 28C4 14.7451 14.7451 4 28 4ZM28 7C16.4021 7 7 16.4021 7 28C7 39.5979 16.4021 49 28 49C39.5978 49 49 39.5979 49 28C49 16.4021 39.5978 7 28 7ZM29.3204 10.0022C28.5979 9.95927 28 10.542 28 11.2642V11.9491V25.8598C28 27.2167 28.5361 28.5128 29.4953 29.4742L39.844 39.8399C40.3287 40.3258 41.1271 40.3241 41.581 39.8095C41.6067 39.7808 41.6299 39.7533 41.6517 39.7277C44.362 36.5717 46 32.4655 46 27.9762C46 18.6923 38.9954 11.0473 29.9916 10.0548C29.8064 10.0344 29.5686 10.0169 29.3204 10.0022Z" fill="currentColor"/>
</svg>
