<svg xmlns="http://www.w3.org/2000/svg" width="56" height="56" fill="none" viewBox="0 0 56 56">
  <circle cx="28" cy="28" r="28" fill="url(#a)"/>
  <path fill="#fff" fill-rule="evenodd" d="m29.902 20.25 5.845 5.846-10.668 10.67a11.02 11.02 0 0 1-4.575 2.747l-4.792 1.463a.55.55 0 0 1-.688-.688l1.463-4.792a11.02 11.02 0 0 1 2.748-4.576l10.667-10.67Zm8.032-4.525 2.342 2.342c.903.903.963 2.33.181 3.302l-.18.201-2.921 2.92-5.846-5.846 2.922-2.919a2.477 2.477 0 0 1 3.502 0Z" clip-rule="evenodd"/>
  <defs>
    <linearGradient id="a" x1="0" x2="56" y1="0" y2="56" gradientUnits="userSpaceOnUse">
      <stop stop-color="#8AE6E6"/>
      <stop offset="1" stop-color="#12B3B3"/>
    </linearGradient>
  </defs>
</svg>
