<?xml version="1.0" encoding="UTF-8"?>
<svg width="56px" height="56px" viewBox="0 0 56 56" version="1.1" xmlns="http://www.w3.org/2000/svg" xmlns:xlink="http://www.w3.org/1999/xlink">
    <!-- Generator: Sketch 61.2 (89653) - https://sketch.com -->
    <title>Icons 56/error_outline_56</title>
    <desc>Created with Sketch.</desc>
    <g id="Icons-56/error_outline_56" stroke="none" stroke-width="1" fill="none" fill-rule="evenodd">
        <g id="error_outline_56">
            <rect x="0" y="0" width="56" height="56"></rect>
            <path d="M28,4 C41.254834,4 52,14.745166 52,28 C52,41.254834 41.254834,52 28,52 C14.745166,52 4,41.254834 4,28 C4,14.745166 14.745166,4 28,4 Z M28,7 C16.4020203,7 7,16.4020203 7,28 C7,39.5979797 16.4020203,49 28,49 C39.5979797,49 49,39.5979797 49,28 C49,16.4020203 39.5979797,7 28,7 Z M28,34 C29.1045695,34 30,34.8954305 30,36 C30,37.1045695 29.1045695,38 28,38 C26.8954305,38 26,37.1045695 26,36 C26,34.8954305 26.8954305,34 28,34 Z M28,16.5 C28.8284271,16.5 29.5,17.1715729 29.5,18 L29.5,29 L29.4931334,29.14446 C29.4204487,29.9051119 28.7796961,30.5 28,30.5 C27.1715729,30.5 26.5,29.8284271 26.5,29 L26.5,18 L26.5068666,17.85554 C26.5795513,17.0948881 27.2203039,16.5 28,16.5 Z" id="↳-Icon-Color" fill="currentColor" fill-rule="nonzero"></path>
        </g>
    </g>
</svg>
