<?xml version="1.0" encoding="UTF-8"?>
<svg width="56px" height="56px" viewBox="0 0 56 56" version="1.1" xmlns="http://www.w3.org/2000/svg" xmlns:xlink="http://www.w3.org/1999/xlink">
    <!-- Generator: Sketch 61.2 (89653) - https://sketch.com -->
    <title>Icons 56/event_outline_56</title>
    <desc>Created with Sketch.</desc>
    <g id="Icons-56/event_outline_56" stroke="none" stroke-width="1" fill="none" fill-rule="evenodd">
        <g id="event_outline_56" fill-rule="nonzero">
            <rect x="0" y="0" width="56" height="56"></rect>
            <path d="M38.5,6.5 C39.2796961,6.5 39.9204487,7.09488808 39.9931334,7.85553999 L40,8 L40.001392,9.06699994 C41.9486773,9.20284952 42.9250326,9.54316416 43.9073828,10.0685308 C45.2110865,10.7657592 46.2342408,11.7889135 46.9314692,13.0926172 C47.6286976,14.3963209 48,15.6894658 48,19.2555408 L48,38.7444592 C48,42.3105342 47.6286976,43.6036791 46.9314692,44.9073828 C46.2342408,46.2110865 45.2110865,47.2342408 43.9073828,47.9314692 C42.6036791,48.6286976 41.3105342,49 37.7444592,49 L18.2555408,49 C14.6894658,49 13.3963209,48.6286976 12.0926172,47.9314692 C10.7889135,47.2342408 9.76575919,46.2110865 9.06853082,44.9073828 C8.37130244,43.6036791 8,42.3105342 8,38.7444592 L8,19.2555408 C8,15.6894658 8.37130244,14.3963209 9.06853082,13.0926172 C9.76575919,11.7889135 10.7889135,10.7657592 12.0926172,10.0685308 C13.0751383,9.54307275 14.0516624,9.2027311 15.9996245,9.06692904 L16,8 C16,7.17157288 16.6715729,6.5 17.5,6.5 C18.2796961,6.5 18.9204487,7.09488808 18.9931334,7.85553999 L19,8 L19,9 L37,9 L37,8 C37,7.17157288 37.6715729,6.5 38.5,6.5 Z M45,22 L11,22 L11.0008335,39.0593054 C11.014799,41.6168821 11.2061173,42.5429835 11.7139704,43.4925862 C12.1315994,44.2734845 12.7265155,44.8684006 13.5074138,45.2860296 C14.4950006,45.8141968 15.4571684,46 18.2555408,46 L37.7444592,46 C40.5428316,46 41.5049994,45.8141968 42.4925862,45.2860296 C43.2734845,44.8684006 43.8684006,44.2734845 44.2860296,43.4925862 C44.8141968,42.5049994 45,41.5428316 45,38.7444592 L45,22 Z M18.7180574,37 C19.1638168,37 19.3254599,37.0464128 19.4884229,37.1335664 C19.6513858,37.2207199 19.7792801,37.3486142 19.8664336,37.5115771 C19.9535872,37.6745401 20,37.8361832 20,38.2819426 L20,39.7180574 C20,40.1638168 19.9535872,40.3254599 19.8664336,40.4884229 C19.7792801,40.6513858 19.6513858,40.7792801 19.4884229,40.8664336 C19.3254599,40.9535872 19.1638168,41 18.7180574,41 L17.2819426,41 C16.8361832,41 16.6745401,40.9535872 16.5115771,40.8664336 C16.3486142,40.7792801 16.2207199,40.6513858 16.1335664,40.4884229 C16.0464128,40.3254599 16,40.1638168 16,39.7180574 L16,38.2819426 C16,37.8361832 16.0464128,37.6745401 16.1335664,37.5115771 C16.2207199,37.3486142 16.3486142,37.2207199 16.5115771,37.1335664 C16.6745401,37.0464128 16.8361832,37 17.2819426,37 L18.7180574,37 Z M28.7180574,37 C29.1638168,37 29.3254599,37.0464128 29.4884229,37.1335664 C29.6513858,37.2207199 29.7792801,37.3486142 29.8664336,37.5115771 C29.9535872,37.6745401 30,37.8361832 30,38.2819426 L30,39.7180574 C30,40.1638168 29.9535872,40.3254599 29.8664336,40.4884229 C29.7792801,40.6513858 29.6513858,40.7792801 29.4884229,40.8664336 C29.3254599,40.9535872 29.1638168,41 28.7180574,41 L27.2819426,41 C26.8361832,41 26.6745401,40.9535872 26.5115771,40.8664336 C26.3486142,40.7792801 26.2207199,40.6513858 26.1335664,40.4884229 C26.0464128,40.3254599 26,40.1638168 26,39.7180574 L26,38.2819426 C26,37.8361832 26.0464128,37.6745401 26.1335664,37.5115771 C26.2207199,37.3486142 26.3486142,37.2207199 26.5115771,37.1335664 C26.6745401,37.0464128 26.8361832,37 27.2819426,37 L28.7180574,37 Z M38.7180574,37 C39.1638168,37 39.3254599,37.0464128 39.4884229,37.1335664 C39.6513858,37.2207199 39.7792801,37.3486142 39.8664336,37.5115771 C39.9535872,37.6745401 40,37.8361832 40,38.2819426 L40,39.7180574 C40,40.1638168 39.9535872,40.3254599 39.8664336,40.4884229 C39.7792801,40.6513858 39.6513858,40.7792801 39.4884229,40.8664336 C39.3254599,40.9535872 39.1638168,41 38.7180574,41 L37.2819426,41 C36.8361832,41 36.6745401,40.9535872 36.5115771,40.8664336 C36.3486142,40.7792801 36.2207199,40.6513858 36.1335664,40.4884229 C36.0464128,40.3254599 36,40.1638168 36,39.7180574 L36,38.2819426 C36,37.8361832 36.0464128,37.6745401 36.1335664,37.5115771 C36.2207199,37.3486142 36.3486142,37.2207199 36.5115771,37.1335664 C36.6745401,37.0464128 36.8361832,37 37.2819426,37 L38.7180574,37 Z M18.7180574,27 C19.1638168,27 19.3254599,27.0464128 19.4884229,27.1335664 C19.6513858,27.2207199 19.7792801,27.3486142 19.8664336,27.5115771 C19.9535872,27.6745401 20,27.8361832 20,28.2819426 L20,29.7180574 C20,30.1638168 19.9535872,30.3254599 19.8664336,30.4884229 C19.7792801,30.6513858 19.6513858,30.7792801 19.4884229,30.8664336 C19.3254599,30.9535872 19.1638168,31 18.7180574,31 L17.2819426,31 C16.8361832,31 16.6745401,30.9535872 16.5115771,30.8664336 C16.3486142,30.7792801 16.2207199,30.6513858 16.1335664,30.4884229 C16.0464128,30.3254599 16,30.1638168 16,29.7180574 L16,28.2819426 C16,27.8361832 16.0464128,27.6745401 16.1335664,27.5115771 C16.2207199,27.3486142 16.3486142,27.2207199 16.5115771,27.1335664 C16.6745401,27.0464128 16.8361832,27 17.2819426,27 L18.7180574,27 Z M28.7180574,27 C29.1638168,27 29.3254599,27.0464128 29.4884229,27.1335664 C29.6513858,27.2207199 29.7792801,27.3486142 29.8664336,27.5115771 C29.9535872,27.6745401 30,27.8361832 30,28.2819426 L30,29.7180574 C30,30.1638168 29.9535872,30.3254599 29.8664336,30.4884229 C29.7792801,30.6513858 29.6513858,30.7792801 29.4884229,30.8664336 C29.3254599,30.9535872 29.1638168,31 28.7180574,31 L27.2819426,31 C26.8361832,31 26.6745401,30.9535872 26.5115771,30.8664336 C26.3486142,30.7792801 26.2207199,30.6513858 26.1335664,30.4884229 C26.0464128,30.3254599 26,30.1638168 26,29.7180574 L26,28.2819426 C26,27.8361832 26.0464128,27.6745401 26.1335664,27.5115771 C26.2207199,27.3486142 26.3486142,27.2207199 26.5115771,27.1335664 C26.6745401,27.0464128 26.8361832,27 27.2819426,27 L28.7180574,27 Z M38.7180574,27 C39.1638168,27 39.3254599,27.0464128 39.4884229,27.1335664 C39.6513858,27.2207199 39.7792801,27.3486142 39.8664336,27.5115771 C39.9535872,27.6745401 40,27.8361832 40,28.2819426 L40,29.7180574 C40,30.1638168 39.9535872,30.3254599 39.8664336,30.4884229 C39.7792801,30.6513858 39.6513858,30.7792801 39.4884229,30.8664336 C39.3254599,30.9535872 39.1638168,31 38.7180574,31 L37.2819426,31 C36.8361832,31 36.6745401,30.9535872 36.5115771,30.8664336 C36.3486142,30.7792801 36.2207199,30.6513858 36.1335664,30.4884229 C36.0464128,30.3254599 36,30.1638168 36,29.7180574 L36,28.2819426 C36,27.8361832 36.0464128,27.6745401 36.1335664,27.5115771 C36.2207199,27.3486142 36.3486142,27.2207199 36.5115771,27.1335664 C36.6745401,27.0464128 36.8361832,27 37.2819426,27 L38.7180574,27 Z M37,12 L19,12 L19,12.5 C19,13.3284271 18.3284271,14 17.5,14 C16.7203039,14 16.0795513,13.4051119 16.0068666,12.64446 L16,12.5 L15.9992949,12.0678117 C14.8125382,12.1620207 14.1656215,12.3619571 13.5074138,12.7139704 C12.7265155,13.1315994 12.1315994,13.7265155 11.7139704,14.5074138 C11.2061173,15.4570165 11.014799,16.3831179 11.0008335,18.9406946 L11,19 L44.999,19 L44.9991665,18.9406946 C44.985201,16.3831179 44.7938827,15.4570165 44.2860296,14.5074138 C43.8684006,13.7265155 43.2734845,13.1315994 42.4925862,12.7139704 C41.834562,12.3620552 41.1878225,12.1621322 40.0016975,12.0678905 L40,12.5 C40,13.3284271 39.3284271,14 38.5,14 C37.7203039,14 37.0795513,13.4051119 37.0068666,12.64446 L37,12.5 L37,12 Z" id="↳-Icon-Color" fill="currentColor"></path>
        </g>
    </g>
</svg>
