<svg width="56" height="56" viewBox="0 0 56 56" fill="none" xmlns="http://www.w3.org/2000/svg"><path fill-rule="evenodd" clip-rule="evenodd" d="m36.682 16.815.047.112.121.01 7.784.622c1.101.087 2.12.169 2.921.305.734.124 2.007.39 2.983 1.367a5 5 0 0 1 1.399 4.318c-.218 1.364-1.093 2.325-1.614 2.857-.57.58-1.347 1.243-2.187 1.96l-5.912 5.044-.093.08.028.118 1.81 7.556c.256 1.07.493 2.06.612 2.862.108.736.25 2.024-.376 3.253a5 5 0 0 1-3.664 2.67c-1.36.218-2.544-.311-3.211-.64-.727-.359-1.597-.888-2.537-1.46l-6.689-4.07-.104-.063-.104.064-6.69 4.07c-.939.571-1.809 1.1-2.536 1.459-.667.329-1.85.858-3.211.64a5 5 0 0 1-3.664-2.67c-.625-1.229-.484-2.517-.376-3.253.119-.802.356-1.792.612-2.862l1.81-7.556.028-.119-.093-.08-5.912-5.043c-.84-.717-1.617-1.38-2.187-1.96-.521-.532-1.396-1.493-1.613-2.857a5 5 0 0 1 1.399-4.318c.975-.978 2.248-1.243 2.982-1.367.802-.136 1.82-.218 2.92-.306l.124-.01 7.66-.611.122-.01.047-.112 2.96-7.09c.017-.038.033-.075.048-.113.423-1.012.814-1.95 1.191-2.667.346-.657.991-1.779 2.218-2.402a5 5 0 0 1 4.53 0c1.227.623 1.872 1.745 2.218 2.402.377.717.768 1.655 1.19 2.667l3.009 7.203zm-9.588-9.598c-.656.334-1.12 1.444-2.047 3.664l-2.96 7.09c-.273.654-.41.981-.63 1.23-.194.22-.434.394-.704.51-.304.132-.657.16-1.364.216l-7.662.612c-2.413.193-3.62.29-4.141.811a2 2 0 0 0-.56 1.727c.116.729 1.037 1.515 2.88 3.086l5.817 4.965c.542.462.813.693.983.98a2 2 0 0 1 .27.829c.031.331-.052.678-.218 1.37l-1.78 7.436c-.562 2.346-.843 3.519-.51 4.175a2 2 0 0 0 1.466 1.068c.728.117 1.758-.51 3.819-1.764l6.584-4.005c.604-.368.906-.552 1.23-.623.285-.064.581-.064.867 0 .323.071.625.255 1.23.623l6.583 4.005c2.061 1.254 3.092 1.88 3.819 1.764a2 2 0 0 0 1.465-1.068c.334-.656.053-1.829-.508-4.175l-1.781-7.436c-.166-.692-.25-1.039-.218-1.37a2 2 0 0 1 .27-.83c.17-.286.441-.517.983-.98l5.818-4.964c1.842-1.571 2.763-2.357 2.879-3.085a2 2 0 0 0-.56-1.728c-.52-.522-1.728-.618-4.141-.81l-7.662-.613c-.706-.056-1.06-.084-1.364-.216-.27-.116-.51-.29-.704-.51-.22-.249-.356-.576-.63-1.23l-2.96-7.09c-.927-2.22-1.391-3.33-2.047-3.664a2 2 0 0 0-1.812 0z" fill="currentColor"/></svg>
