<svg xmlns="http://www.w3.org/2000/svg" width="56" height="56" viewBox="0 0 56 56" fill="currentColor"><path d="m20.32 6 15.782.001c3.728.024 5.68.373 7.57 1.297l.42.215a10.6 10.6 0 0 1 4.395 4.395c1.048 1.96 1.458 3.851 1.508 7.583l.005.828v15.362l-.005.828c-.05 3.732-.46 5.624-1.508 7.583a10.6 10.6 0 0 1-4.395 4.395c-1.96 1.048-3.851 1.458-7.583 1.508l-.828.005H20.319l-.828-.005c-3.732-.05-5.623-.46-7.583-1.508a10.6 10.6 0 0 1-4.395-4.395c-1.048-1.96-1.458-3.851-1.508-7.583L6 35.681l.001-15.783c.024-3.728.373-5.68 1.297-7.57l.215-.42a10.6 10.6 0 0 1 4.395-4.395c1.96-1.048 3.851-1.458 7.583-1.508zm13.158 22.047-9.234 11.02a1.5 1.5 0 0 1-1.966.295l-.122-.089-5.097-4.092-7.137 7.024q.11.237.236.472a7.6 7.6 0 0 0 3.165 3.165c1.498.8 2.951 1.116 6.259 1.154l.737.004h15.362l.737-.004c3.308-.038 4.76-.353 6.259-1.154a7.6 7.6 0 0 0 3.165-3.165c.437-.818.73-1.623.911-2.723zM35.68 9H20.319l-.737.004c-3.308.038-4.76.353-6.259 1.154a7.6 7.6 0 0 0-3.165 3.165C9.3 14.928 9 16.482 9 20.32v15.362l.004.737c.01.92.043 1.698.1 2.372l6.803-6.682a1.5 1.5 0 0 1 1.868-.188l.122.089 4.99 4.005 9.284-11.077a1.5 1.5 0 0 1 2.031-.25l.115.092 12.68 11.365.003-.463V20.319l-.004-.737c-.038-3.308-.353-4.76-1.154-6.259a7.6 7.6 0 0 0-3.165-3.165C41.072 9.3 39.518 9 35.68 9M19.5 17a2.5 2.5 0 1 1 0 5 2.5 2.5 0 0 1 0-5"/></svg>