<svg fill="none" height="56" viewBox="0 0 56 56" width="56" xmlns="http://www.w3.org/2000/svg"><g fill="currentColor"><path d="m30.9895 25c0-.465 0-.6975.0511-.8882.1387-.5177.543-.922 1.0607-1.0607.1907-.0511.4238-.0511.89-.0511.4661 0 .6992 0 .8899.0511.5177.1387.922.543 1.0607 1.0607.0511.1907.0511.4232.0511.8882s0 .6975-.0511.8882c-.1387.5177-.543.922-1.0607 1.0607-.1907.0511-.4238.0511-.8899.0511-.4662 0-.6993 0-.89-.0511-.5177-.1387-.922-.543-1.0607-1.0607-.0511-.1907-.0511-.4232-.0511-.8882z"/><path d="m38.9965 25c0-.465 0-.6975.0511-.8882.1387-.5177.543-.922 1.0607-1.0607.1907-.0511.4238-.0511.89-.0511.4661 0 .6992 0 .8899.0511.5177.1387.922.543 1.0607 1.0607.0511.1907.0511.4232.0511.8882s0 .6975-.0511.8882c-.1387.5177-.543.922-1.0607 1.0607-.1907.0511-.4238.0511-.8899.0511-.4662 0-.6993 0-.89-.0511-.5177-.1387-.922-.543-1.0607-1.0607-.0511-.1907-.0511-.4232-.0511-.8882z"/><path d="m34.993 21c0-.465 0-.6975.0511-.8882.1387-.5177.543-.922 1.0607-1.0607.1907-.0511.4238-.0511.89-.0511.4661 0 .6992 0 .8899.0511.5177.1387.922.543 1.0607 1.0607.0511.1907.0511.4232.0511.8882s0 .6975-.0511.8882c-.1387.5177-.543.922-1.0607 1.0607-.1907.0511-.4238.0511-.8899.0511-.4662 0-.6993 0-.89-.0511-.5177-.1387-.922-.543-1.0607-1.0607-.0511-.1907-.0511-.4232-.0511-.8882z"/><path d="m34.9867 29c0-.465 0-.6975.0511-.8882.1387-.5177.543-.922 1.0606-1.0607.1908-.0511.4239-.0511.89-.0511.4662 0 .6992 0 .89.0511.5176.1387.9219.543 1.0606 1.0607.0512.1907.0512.4232.0512.8882s0 .6975-.0512.8882c-.1387.5177-.543.922-1.0606 1.0607-.1908.0511-.4238.0511-.89.0511-.4661 0-.6992 0-.89-.0511-.5176-.1387-.9219-.543-1.0606-1.0607-.0511-.1907-.0511-.4232-.0511-.8882z"/><path d="m19.0013 31c-.8291 0-1.5013-.6722-1.5013-1.5013v-2.9992l-3 .0005c-.8284 0-1.5-.6716-1.5-1.5s.6716-1.5 1.5-1.5l3 .0003v-2.999c0-.8291.6722-1.5013 1.5013-1.5013.8292 0 1.5013.6722 1.5013 1.5013v2.9994l2.9974-.0007c.8284 0 1.5.6716 1.5 1.5s-.6716 1.5-1.5 1.5h-2.9974v2.9987c0 .8291-.6721 1.5013-1.5013 1.5013z"/><g clip-rule="evenodd" fill-rule="evenodd"><path d="m16.7814 40.7113c1.5972-1.8998 3.1201-3.7113 6.1144-3.7113h10.2083c1.8622 0 2.9953.5279 3.8396 1.1944.6973.5506 1.1932 1.1702 1.7709 1.8921.8096 1.0115 1.6161 2.0278 2.4389 3.0283.7065.8375 1.4904 1.6514 2.4515 2.197.8089.4591 1.6861.6882 2.77.6882 1.2256 0 2.3577-.2625 3.3599-.8773.9971-.6116 1.7566-1.5049 2.3506-2.5908 1.2737-2.3288 1.9145-5.8223 1.9145-10.4069 0-6.1512-1.3277-11.6888-4.2013-15.6743-2.8559-3.961-7.282-6.4507-13.632-6.4507h-16.3334c-6.35 0-10.77607 2.4897-13.63198 6.4507-2.87364 3.9855-4.20132 9.5231-4.20132 15.6743 0 4.585.64064 8.0785 1.91432 10.4072.59387 1.0858 1.35337 1.979 2.35049 2.5906 1.0023.6147 2.13445.8772 3.36019.8772 1.0839 0 1.9611-.2291 2.77-.6882.8161-.4632 1.5906-1.1764 2.4455-2.1899zm3.0519-27.7113c-5.446 0-8.9408 2.0739-11.19855 5.2052-2.377 3.2968-3.63475 8.1363-3.63475 13.9198 0 4.4026.6316 7.2951 1.54636 8.9676.40952.7487.84083 1.1993 1.28693 1.4729.44092.2704 1.00441.4345 1.79171.4345.614 0 .9727-.1176 1.2891-.2972.3794-.2154.8859-.6302 1.6274-1.5083.6873-.8357 1.3446-1.6957 2.0373-2.527 1.5287-1.8339 3.8906-4.6675 8.317-4.6675h10.2077c2.5337 0 4.323.7533 5.6991 1.8398.9942.7849 1.788 1.7804 2.4075 2.5573.7458.9353 1.4885 1.8735 2.2483 2.7974.7415.878 1.2481 1.2929 1.6275 1.5083.3164.1796.6751.2972 1.2891.2972.787 0 1.3504-.1641 1.7913-.4345.4461-.2737.8775-.7243 1.2871-1.4732.9149-1.6726 1.5466-4.5652 1.5466-8.9673 0-5.7835-1.2578-10.623-3.6347-13.9198-2.2578-3.1313-5.7526-5.2052-11.1986-5.2052z"/><path d="m19.0013 31c-.8291 0-1.5013-.6722-1.5013-1.5013v-2.9992l-3 .0005c-.8284 0-1.5-.6716-1.5-1.5s.6716-1.5 1.5-1.5l3 .0003v-2.999c0-.8291.6722-1.5013 1.5013-1.5013.8292 0 1.5013.6722 1.5013 1.5013v2.9994l2.9974-.0007c.8284 0 1.5.6716 1.5 1.5s-.6716 1.5-1.5 1.5h-2.9974v2.9987c0 .8291-.6721 1.5013-1.5013 1.5013zm13.99-4c-.4662 0-.6993 0-.89-.0511-.5177-.1387-.922-.543-1.0607-1.0607-.0511-.1907-.0511-.4232-.0511-.8882s0-.6975.0511-.8882c.1387-.5177.543-.922 1.0607-1.0607.1907-.0511.4238-.0511.89-.0511.4661 0 .6992 0 .8899.0511.5177.1387.922.543 1.0607 1.0607.0511.1907.0511.4232.0511.8882s0 .6975-.0511.8882c-.1387.5177-.543.922-1.0607 1.0607-.1907.0511-.4238.0511-.8899.0511zm8.007 0c-.4662 0-.6993 0-.89-.0511-.5177-.1387-.922-.543-1.0607-1.0607-.0511-.1907-.0511-.4232-.0511-.8882s0-.6975.0511-.8882c.1387-.5177.543-.922 1.0607-1.0607.1907-.0511.4238-.0511.89-.0511.4661 0 .6992 0 .8899.0511.5177.1387.922.543 1.0607 1.0607.0511.1907.0511.4232.0511.8882s0 .6975-.0511.8882c-.1387.5177-.543.922-1.0607 1.0607-.1907.0511-.4238.0511-.8899.0511zm-4.0035-4c-.4662 0-.6993 0-.89-.0511-.5177-.1387-.922-.543-1.0607-1.0607-.0511-.1907-.0511-.4232-.0511-.8882s0-.6975.0511-.8882c.1387-.5177.543-.922 1.0607-1.0607.1907-.0511.4238-.0511.89-.0511.4661 0 .6992 0 .8899.0511.5177.1387.922.543 1.0607 1.0607.0511.1907.0511.4232.0511.8882s0 .6975-.0511.8882c-.1387.5177-.543.922-1.0607 1.0607-.1907.0511-.4238.0511-.8899.0511zm-.0064 8c-.4661 0-.6992 0-.89-.0511-.5176-.1387-.9219-.543-1.0606-1.0607-.0511-.1907-.0511-.4232-.0511-.8882s0-.6975.0511-.8882c.1387-.5177.543-.922 1.0606-1.0607.1908-.0511.4239-.0511.89-.0511.4662 0 .6992 0 .89.0511.5176.1387.9219.543 1.0606 1.0607.0512.1907.0512.4232.0512.8882s0 .6975-.0512.8882c-.1387.5177-.543.922-1.0606 1.0607-.1908.0511-.4238.0511-.89.0511z"/></g></g></svg>
