<svg xmlns="http://www.w3.org/2000/svg" width="56" height="56" fill="currentColor" viewBox="0 0 56 56"><path fill-rule="evenodd" d="M40.502 17.234a.401.401 0 0 1 0 .566l-2.72 2.728a.399.399 0 0 1-.565 0l-.714-.715a1 1 0 0 0-1.416 0L19.739 35.2a1 1 0 0 0 0 1.412l.707.709a.401.401 0 0 1 0 .566l-2.715 2.723a.399.399 0 0 1-.565 0l-8.737-8.76a.401.401 0 0 1 0-.566l2.716-2.723a.399.399 0 0 1 .565 0l.609.61a1 1 0 0 0 1.416 0l15.347-15.387a1 1 0 0 0 0-1.413l-.622-.623a.401.401 0 0 1 0-.567l2.72-2.728a.399.399 0 0 1 .566 0l8.756 8.78Zm-4.707 7.04c.95.937 2.479.932 3.423-.015l5.005-5.018c.95-.952.95-2.496 0-3.448l-11.04-11.07a2.427 2.427 0 0 0-3.439 0l-5.004 5.02a2.442 2.442 0 0 0-.106 3.333l-11.61 11.64a2.427 2.427 0 0 0-3.314.117l-5 5.013a2.442 2.442 0 0 0 0 3.447l11.02 11.05c.95.952 2.489.952 3.438 0l5-5.013c.941-.944.95-2.468.025-3.422l2.506-2.512 14.89 14.93c.82.821 2.148.821 2.967 0l3.75-3.76a2.107 2.107 0 0 0 0-2.973l-14.892-14.93 2.382-2.388Zm7.277 21.29L28.816 31.27l2.479-2.484L45.55 43.079l-2.478 2.485ZM9.08 49a1.5 1.5 0 0 0 0 3h17a1.5 1.5 0 0 0 0-3h-17Z" clip-rule="evenodd"/></svg>
