<?xml version="1.0" encoding="UTF-8"?>
<svg width="56px" height="56px" viewBox="0 0 56 56" version="1.1" xmlns="http://www.w3.org/2000/svg" xmlns:xlink="http://www.w3.org/1999/xlink">
    <!-- Generator: Sketch 61.2 (89653) - https://sketch.com -->
    <title>Icons 56/gift_outline_56</title>
    <desc>Created with Sketch.</desc>
    <g id="Icons-56/gift_outline_56" stroke="none" stroke-width="1" fill="none" fill-rule="evenodd">
        <g id="gift_outline_56">
            <polygon points="0 0 56 0 56 56 0 56"></polygon>
            <path d="M39.5606602,6.94409529 C41.8812731,9.26470825 41.7625761,12.7544019 39.4675323,15.5242821 C39.0239699,16.0596161 38.5141113,16.5545383 37.9440418,17.0048345 L42,17.0047555 C46.418278,17.0047555 50,20.5864775 50,25.0047555 L50,25.8636488 C50,27.8775463 49.7215232,28.9575148 49.1986019,29.9352926 C48.6756806,30.9130704 47.9083149,31.6804361 46.9305371,32.2033574 C46.6374362,32.3601095 46.3351526,32.4948964 46.0012829,32.6068015 L46,38.7492147 L45.9947169,39.4553405 C45.9472357,42.4937047 45.5806128,43.6983452 44.9314692,44.9121383 C44.2342408,46.215842 43.2110865,47.2389963 41.9073828,47.9362247 L41.6370527,48.0758134 C40.4597833,48.6604164 39.1644163,48.9805231 36.1053492,49.0034328 L29.5,49.002877 L29.5,49.0047555 L20.2555408,49.0047555 C16.6894658,49.0047555 15.3963209,48.633453 14.0926172,47.9362247 C12.7889135,47.2389963 11.7657592,46.215842 11.0685308,44.9121383 L10.9289421,44.6418081 C10.3443391,43.4645387 10.0242323,42.1691717 10.0013226,39.1101046 L9.99970989,32.6071342 C9.66544656,32.4951635 9.36285432,32.3602648 9.06946289,32.2033574 C8.09168511,31.6804361 7.32431939,30.9130704 6.80139811,29.9352926 C6.27847683,28.9575148 6,27.8775463 6,25.8636488 L6,25.0047555 C6,20.5864775 9.581722,17.0047555 14,17.0047555 L18.0518367,17.0048345 C17.4817672,16.5545383 16.9719086,16.0596161 16.5283462,15.5242821 C14.2333024,12.7544019 14.1146053,9.26470825 16.4352183,6.94409529 C18.7558312,4.62348235 22.2455249,4.74217934 25.0154053,7.03722297 C26.2368505,8.04927759 27.2479146,9.40646503 27.9985412,11.0365048 C28.7479639,9.40646503 29.759028,8.04927759 30.9804732,7.03722297 C33.7503536,4.74217934 37.2400472,4.62348235 39.5606602,6.94409529 Z M26.5,33.003877 L13,33.0047555 L13.0008335,39.0640609 L13.0076616,39.6474023 C13.0439771,41.5853936 13.2132893,42.465636 13.5980919,43.2690409 L13.7139704,43.4973417 C14.1315994,44.27824 14.7265155,44.8731561 15.5074138,45.2907851 C16.4570165,45.7986382 17.3831179,45.9899565 19.9406946,46.003922 L26.5,46.003877 L26.5,33.003877 Z M43,33.0047555 L29.5,33.003877 L29.5,46.003877 L36.0593054,46.003922 C38.6168821,45.9899565 39.5429835,45.7986382 40.4925862,45.2907851 C41.2734845,44.8731561 41.8684006,44.27824 42.2860296,43.4973417 L42.4019081,43.2690409 C42.8416825,42.3508639 43,41.3323276 43,38.7492147 L43,33.0047555 Z M26.5,20.003877 L14,20.0047555 C11.2385763,20.0047555 9,22.2433317 9,25.0047555 L9.0015958,26.1225454 C9.01760373,27.3728945 9.1547935,27.9744208 9.44683771,28.520496 C9.69015959,28.9754684 10.0292871,29.3145959 10.4842595,29.5579178 C11.0303347,29.849962 11.6318609,29.9871517 12.8822101,30.0031597 L26.5,30.002877 L26.5,20.003877 Z M42,20.0047555 L29.5,20.003877 L29.5,30.002877 L43.1177899,30.0031597 C44.3681391,29.9871517 44.9696653,29.849962 45.5157405,29.5579178 C45.9707129,29.3145959 46.3098404,28.9754684 46.5531623,28.520496 C46.8646761,27.9380158 47,27.2924446 47,25.8636488 L47,25.0047555 C47,22.2433317 44.7614237,20.0047555 42,20.0047555 Z M29.5995438,16.6177821 L29.568258,16.9364972 L29.8869731,16.9052114 C36.633782,16.1777258 40.0106971,11.6367729 37.4393398,9.06541564 C34.8679825,6.49405828 30.3270295,9.87097325 29.5995438,16.6177821 Z M26.3963347,16.6177821 C25.668849,9.87097325 21.127896,6.49405828 18.5565386,9.06541564 C15.9851814,11.6367729 19.3620965,16.1777258 26.1089054,16.9052114 L26.1089054,16.9052114 L26.4276204,16.9364972 Z" id="↳-Icon-Color" fill="currentColor" fill-rule="nonzero"></path>
        </g>
    </g>
</svg>
