<svg xmlns="http://www.w3.org/2000/svg" width="56" height="56" fill="currentColor" viewBox="0 0 56 56"><path fill-rule="evenodd" d="M22.44 45.418a32.562 32.562 0 0 0 2.104 3.299C17.667 47.578 11.918 43.097 9.02 37h10.084a34.844 34.844 0 0 0 3.335 8.418ZM22.208 37a31.784 31.784 0 0 0 2.852 6.957 28.484 28.484 0 0 0 2.94 4.32c.054-.065.11-.132.166-.202.75-.919 1.76-2.3 2.774-4.118A31.784 31.784 0 0 0 33.792 37H22.208Zm12.267-3h-12.95A34.051 34.051 0 0 1 21 28c0-2.152.195-4.154.525-6h12.95c.33 1.846.525 3.848.525 6s-.195 4.154-.525 6Zm2.42 3a34.844 34.844 0 0 1-3.335 8.418 32.562 32.562 0 0 1-2.104 3.299C38.333 47.578 44.082 43.097 46.98 37H36.895Zm11.235-3H37.518c.305-1.863.482-3.864.482-6s-.177-4.137-.482-6H48.13c.566 1.901.87 3.915.87 6s-.304 4.099-.87 6Zm-29.648 0H7.87A21.003 21.003 0 0 1 7 28c0-2.085.304-4.099.87-6h10.612A37.155 37.155 0 0 0 18 28c0 2.136.177 4.137.482 6Zm.623-15H9.02c2.897-6.098 8.646-10.578 15.523-11.717a32.57 32.57 0 0 0-2.104 3.3A34.844 34.844 0 0 0 19.105 19Zm5.955-6.957A31.784 31.784 0 0 0 22.208 19h11.584a31.784 31.784 0 0 0-2.852-6.957A28.483 28.483 0 0 0 28 7.723c-.054.065-.11.132-.166.202-.75.918-1.76 2.3-2.774 4.118ZM36.895 19H46.98c-2.897-6.098-8.646-10.578-15.523-11.717a32.57 32.57 0 0 1 2.104 3.3A34.844 34.844 0 0 1 36.895 19ZM28 52c13.255 0 24-10.745 24-24S41.255 4 28 4 4 14.745 4 28s10.745 24 24 24Z" clip-rule="evenodd"/></svg>
