<svg xmlns="http://www.w3.org/2000/svg" width="56" height="56" fill="none" viewBox="0 0 56 56">
  <circle cx="28" cy="28" r="28" fill="url(#a)"/>
  <path fill="#fff" d="M19.419 16h3.83c1.188 0 1.619.124 2.053.356.435.233.776.574 1.009 1.008.232.435.356.866.356 2.055v3.83c0 1.188-.124 1.619-.357 2.053a2.424 2.424 0 0 1-1.008 1.009c-.434.232-.865.356-2.054.356h-3.83c-1.188 0-1.62-.124-2.054-.357a2.423 2.423 0 0 1-1.008-1.008c-.232-.434-.356-.865-.356-2.054v-3.83c0-1.188.124-1.62.356-2.054a2.422 2.422 0 0 1 1.008-1.008c.435-.232.866-.356 2.055-.356Zm13.333 0h3.83c1.188 0 1.62.124 2.054.356.434.233.775.574 1.008 1.008.232.435.356.866.356 2.055v3.83c0 1.188-.124 1.619-.356 2.053a2.423 2.423 0 0 1-1.008 1.009c-.435.232-.866.356-2.055.356h-3.83c-1.188 0-1.619-.124-2.053-.357a2.424 2.424 0 0 1-1.009-1.008c-.232-.434-.356-.865-.356-2.054v-3.83c0-1.188.124-1.62.357-2.054a2.423 2.423 0 0 1 1.008-1.008c.434-.232.865-.356 2.054-.356ZM19.418 29.333h3.83c1.189 0 1.62.124 2.054.357.435.232.776.573 1.009 1.008.232.434.356.865.356 2.054v3.83c0 1.188-.124 1.62-.357 2.054a2.423 2.423 0 0 1-1.008 1.008c-.434.232-.865.356-2.054.356h-3.83c-1.188 0-1.62-.124-2.054-.356a2.422 2.422 0 0 1-1.008-1.008C16.124 38.2 16 37.77 16 36.58v-3.83c0-1.188.124-1.619.356-2.053a2.423 2.423 0 0 1 1.008-1.009c.435-.232.866-.356 2.055-.356Zm13.334 0h3.83c1.188 0 1.62.124 2.054.357.434.232.775.573 1.008 1.008.232.434.356.865.356 2.054v3.83c0 1.188-.124 1.62-.356 2.054a2.422 2.422 0 0 1-1.008 1.008c-.435.232-.866.356-2.055.356h-3.83c-1.188 0-1.619-.124-2.053-.356a2.423 2.423 0 0 1-1.009-1.008c-.232-.435-.356-.866-.356-2.055v-3.83c0-1.188.124-1.619.357-2.053a2.424 2.424 0 0 1 1.008-1.009c.434-.232.865-.356 2.054-.356Z"/>
  <defs>
    <linearGradient id="a" x1="0" x2="56" y1="0" y2="56" gradientUnits="userSpaceOnUse">
      <stop stop-color="#FFC44D"/>
      <stop offset="1" stop-color="#F07300"/>
    </linearGradient>
  </defs>
</svg>
