<svg xmlns="http://www.w3.org/2000/svg" width="56" height="56" fill="currentColor" viewBox="0 0 56 56"><path d="M25.5 4.496a1.5 1.5 0 0 0-3 0v3a1.5 1.5 0 0 0 3 0v-3ZM14.809 6.803a1.5 1.5 0 0 1 2.12 0l2.122 2.121a1.5 1.5 0 1 1-2.121 2.122l-2.121-2.122a1.5 1.5 0 0 1 0-2.121Zm18.382 2.121a1.5 1.5 0 1 0-2.12-2.121l-2.122 2.121a1.5 1.5 0 1 0 2.121 2.122l2.121-2.122Zm-22.19 7.07a1.5 1.5 0 0 1 1.5-1.5h3a1.5 1.5 0 1 1 0 3h-3a1.5 1.5 0 0 1-1.5-1.5Zm24.498 1.5a1.5 1.5 0 0 0 0-3h-3a1.5 1.5 0 1 0 0 3h3Z"/><path fill-rule="evenodd" d="M19.518 15.497A4.433 4.433 0 0 1 24 11.056a4.46 4.46 0 0 1 4.5 4.432v7.57a4.606 4.606 0 0 1 1.5-.245c1.506 0 2.761.685 3.563 1.699a4.465 4.465 0 0 1 2.402-.694c1.503 0 2.762.69 3.569 1.705a4.461 4.461 0 0 1 2.449-.705c2.673 0 4.5 2.193 4.5 4.432v1.585l.017 6.478C46.5 45.983 40.478 53 32.229 53c-5.284 0-8.98-2.026-11.348-4.075a16.395 16.395 0 0 1-2.574-2.81 13.107 13.107 0 0 1-.787-1.235l-.09-.177L12.277 33.4a4.278 4.278 0 0 1 1.05-4.964 4.19 4.19 0 0 1 6.216.708l-.026-13.646Zm.625 27.927-5.135-11.269a1.278 1.278 0 0 1 .313-1.478 1.19 1.19 0 0 1 1.848.313l2.63 4.016a1.5 1.5 0 0 0 2.755-.825l-.037-18.696v-.015c-.008-.702.57-1.414 1.483-1.414.91 0 1.5.713 1.5 1.432v17.348a1.5 1.5 0 0 0 3 .004v-.005l.017-5.585v-.023c-.008-.701.57-1.414 1.483-1.414.931 0 1.512.71 1.517 1.4l-.015.959a4.742 4.742 0 0 0-.002.14v2.5a1.5 1.5 0 0 0 3 0v-2.487l.001-.078c.032-.84.677-1.43 1.464-1.43.932 0 1.535.737 1.535 1.433v2.585a1.5 1.5 0 1 0 3 0v-1.548c0-.79.594-1.47 1.483-1.47.899 0 1.5.731 1.5 1.433v1.59l.017 6.473v.002C43.5 44.643 38.522 50 32.229 50c-4.446 0-7.467-1.684-9.384-3.343a13.397 13.397 0 0 1-2.101-2.292 10.442 10.442 0 0 1-.482-.73 5.652 5.652 0 0 1-.119-.21Z" clip-rule="evenodd"/></svg>
