<svg xmlns="http://www.w3.org/2000/svg" width="56" height="56" fill="currentColor" viewBox="0 0 56 56"><path fill-rule="evenodd" d="M24.787 6.028a1.5 1.5 0 0 0-1.76 1.185L20.728 19H13.5l-.145.007A1.5 1.5 0 0 0 13.5 22h6.642l-2.341 12H9.5l-.144.007A1.5 1.5 0 0 0 9.5 37h7.716l-2.188 11.213-.021.143a1.5 1.5 0 0 0 2.965.431L20.272 37h11.944l-2.188 11.213-.021.143a1.5 1.5 0 0 0 2.965.431L35.272 37H42.5l.145-.007A1.5 1.5 0 0 0 42.5 34h-6.642l2.341-12H46.5l.145-.007A1.5 1.5 0 0 0 46.5 19h-7.716l2.188-11.213.021-.143a1.5 1.5 0 0 0-2.965-.431L35.728 19H23.784l2.188-11.213.021-.143a1.5 1.5 0 0 0-1.206-1.616ZM32.801 34l2.341-12H23.2l-2.341 12H32.8Z" clip-rule="evenodd"/></svg>
