<svg xmlns="http://www.w3.org/2000/svg" width="56" height="56" fill="currentColor" viewBox="0 0 56 56"><path fill-rule="evenodd" d="M49 38v-8c0-11.598-9.402-21-21-21S7 18.402 7 30v10.5a2.5 2.5 0 0 1-5 0v-10a2.5 2.5 0 0 1 2.08-2.465C5.078 15.7 15.406 6 28 6c12.593 0 22.921 9.7 23.92 22.035A2.5 2.5 0 0 1 54 30.5v10a2.5 2.5 0 0 1-5 0V38ZM22 26.5a1.5 1.5 0 0 1 3 0v18a1.5 1.5 0 0 1-3 0v-18ZM14.5 29a1.5 1.5 0 0 0-1.5 1.5v10a1.5 1.5 0 0 0 3 0v-10a1.5 1.5 0 0 0-1.5-1.5ZM31 22.5a1.5 1.5 0 0 1 3 0v26a1.5 1.5 0 0 1-3 0v-26ZM41.5 29a1.5 1.5 0 0 0-1.5 1.5v10a1.5 1.5 0 0 0 3 0v-10a1.5 1.5 0 0 0-1.5-1.5Z" clip-rule="evenodd"/></svg>
