<svg xmlns="http://www.w3.org/2000/svg" width="56" height="56" fill="none" viewBox="0 0 56 56"><path fill="currentColor" d="M25.4592 18.0987c-.6283.377-1.1755.9809-1.5665 1.9584-.3077.7692-1.1806 1.1433-1.9498.8356-.7692-.3077-1.1433-1.1806-.8356-1.9498.609-1.5225 1.5618-2.6686 2.8085-3.4166C25.145 14.7887 26.5558 14.5 28 14.5c4.4732 0 7 3.8491 7 7 0 2.8095-1.7165 4.3539-2.9831 5.4935-.0879.0792-.1738.1564-.2567.232C30.4533 28.4162 29.5 29.4163 29.5 31.5c0 .8284-.6716 1.5-1.5 1.5s-1.5-.6716-1.5-1.5c0-3.4163 1.7967-5.1773 3.2398-6.4921l.0713-.065C31.2386 23.6427 32 22.9491 32 21.5c0-1.8491-1.5177-4-4-4-1.0558 0-1.895.2113-2.5408.5987ZM28 41c1.1046 0 2-.8954 2-2s-.8954-2-2-2-2 .8954-2 2 .8954 2 2 2Z"/><path fill="currentColor" fill-rule="evenodd" d="M28 52c13.2548 0 24-10.7452 24-24S41.2548 4 28 4 4 14.7452 4 28s10.7452 24 24 24Zm0-3c11.598 0 21-9.402 21-21S39.598 7 28 7 7 16.402 7 28s9.402 21 21 21Z" clip-rule="evenodd"/></svg>
