<?xml version="1.0" encoding="UTF-8"?>
<svg width="56px" height="56px" viewBox="0 0 56 56" version="1.1" xmlns="http://www.w3.org/2000/svg" xmlns:xlink="http://www.w3.org/1999/xlink">
    <!-- Generator: Sketch 61.2 (89653) - https://sketch.com -->
    <title>Icons 56/history_outline_56</title>
    <desc>Created with Sketch.</desc>
    <g id="Icons-56/history_outline_56" stroke="none" stroke-width="1" fill="none" fill-rule="evenodd">
        <g id="history_outline_56" fill-rule="nonzero">
            <rect x="0" y="0" width="56" height="56"></rect>
            <path d="M28,4 C41.254834,4 52,14.745166 52,28 C52,41.254834 41.254834,52 28,52 C21.0825364,52 14.6364392,49.0553809 10.1125307,44.0015235 C9.56000167,43.3842689 9.61247204,42.435972 10.2297266,41.8834429 C10.8469811,41.3309139 11.7952781,41.3833843 12.3478071,42.0006388 C16.3084439,46.4252407 21.9448772,49 28,49 C39.5979797,49 49,39.5979797 49,28 C49,16.4020203 39.5979797,7 28,7 C21.4728548,7 15.4513789,9.99779889 11.5060193,15.0001045 L16.5,15 C18.4444444,15 18.4984568,17.8356481 16.662037,17.9931842 L16.5,18 L8,18 C7.22030388,18 6.57955132,17.4051119 6.50686658,16.64446 L6.5,16.5 L6.5,8 C6.5,7.17157288 7.17157288,6.5 8,6.5 C8.77969612,6.5 9.42044868,7.09488808 9.49313342,7.85553999 L9.5,8 L9.49934586,12.710264 C14.0084765,7.25549417 20.7319998,4 28,4 Z M28,16 C28.7796961,16 29.4204487,16.5948881 29.4931334,17.35554 L29.5,17.5 L29.5,27.379 L35.5606602,33.4393398 C36.109835,33.9885146 36.1441584,34.857577 35.6636304,35.4467378 L35.5606602,35.5606602 C35.0114854,36.109835 34.142423,36.1441584 33.5532622,35.6636304 L33.4393398,35.5606602 L26.9393398,29.0606602 C26.6931983,28.8145187 26.5414349,28.4916414 26.50734,28.1482566 L26.5,28 L26.5,17.5 C26.5,16.6715729 27.1715729,16 28,16 Z" id="↳-Icon-Color" fill="currentColor"></path>
        </g>
    </g>
</svg>
