<svg xmlns="http://www.w3.org/2000/svg" width="56" height="56" fill="currentColor" viewBox="0 0 56 56"><path d="M22.936 36.479c3.275-1.972 6.853-1.972 10.128 0C36.002 38.248 37 40.573 37 43.405c0 .882-.715 1.597-1.597 1.597H20.597A1.597 1.597 0 0 1 19 43.405c0-2.832.998-5.157 3.936-6.926Z M21.84 4c-.776 0-1.317 0-1.793.065a7 7 0 0 0-5.982 5.982C14 10.523 14 11.064 14 11.84v.189c0 .95 0 1.515.044 2.058a13.5 13.5 0 0 0 4.512 9.026c.409.36.861.7 1.621 1.27l1.16.87-4.23 5.076A22.032 22.032 0 0 0 12 44.434 7.566 7.566 0 0 0 19.566 52h16.868A7.566 7.566 0 0 0 44 44.434a22.032 22.032 0 0 0-5.107-14.105l-4.23-5.076 1.16-.87c.76-.57 1.212-.91 1.62-1.27a13.5 13.5 0 0 0 4.513-9.026C42 13.544 42 12.98 42 12.03v-.19c0-.775 0-1.316-.065-1.792a7 7 0 0 0-5.982-5.982C35.477 4 34.936 4 34.16 4H21.84Zm-1.385 3.037c.246-.033.563-.037 1.502-.037h12.087c.938 0 1.255.004 1.5.037a4 4 0 0 1 3.419 3.418c.033.246.037.563.037 1.502 0 1.043-.001 1.48-.034 1.889a10.5 10.5 0 0 1-3.51 7.02c-.306.27-.656.534-1.49 1.16L31.6 23.8a1.5 1.5 0 0 0-.252 2.16l5.24 6.29A19.032 19.032 0 0 1 41 44.434 4.566 4.566 0 0 1 36.434 49H19.566A4.566 4.566 0 0 1 15 44.434c0-4.453 1.56-8.764 4.411-12.184l5.241-6.29a1.5 1.5 0 0 0-.252-2.16l-2.365-1.774c-.835-.626-1.184-.89-1.491-1.16a10.5 10.5 0 0 1-3.51-7.02C17.001 13.438 17 13 17 11.956c0-.938.003-1.255.037-1.5a4 4 0 0 1 3.418-3.419Z" clip-rule="evenodd"/></svg>
