<svg xmlns="http://www.w3.org/2000/svg" width="56" height="56" fill="currentColor" viewBox="0 0 56 56"><path fill-rule="evenodd" d="M43.111 4h5.829c.245 0 .51 0 .739.019.26.02.602.073.956.253a2.5 2.5 0 0 1 1.093 1.093c.18.354.232.697.253.956.02.23.02.494.019.739v4.88c0 .245 0 .51-.019.739-.02.26-.073.602-.254.956a2.5 2.5 0 0 1-1.092 1.092c-.354.18-.697.233-.956.254a9.49 9.49 0 0 1-.739.019H46v2.94c0 .245 0 .51-.019.739-.02.26-.073.602-.254.956a2.5 2.5 0 0 1-1.092 1.092c-.354.18-.697.233-.956.254a9.49 9.49 0 0 1-.739.019H40v2.94c0 .245 0 .51-.019.739-.02.26-.073.602-.254.956a2.5 2.5 0 0 1-1.092 1.092c-.354.18-.697.233-.956.254-.23.02-.494.02-.739.019h-3.819l-.029.03-.378.377-.107.107.132.208A14.439 14.439 0 0 1 35 35.5C35 43.508 28.508 50 20.5 50S6 43.508 6 35.5 12.492 21 20.5 21c1.277 0 2.518.166 3.701.477l.159.042.069-.069L40.97 4.908l.036-.036c.128-.13.34-.344.601-.504.224-.137.468-.238.723-.299.297-.071.598-.07.78-.07ZM39.54 21.01h.002Zm6.471-6.471v.002Zm-.469.471h-.002ZM43.122 7l-.03.03L26.55 23.57l-.055.056c-.184.186-.482.488-.847.675a2.428 2.428 0 0 1-1.676.209c-.155-.033-.335-.08-.508-.126l-.027-.007A11.519 11.519 0 0 0 20.5 24C14.149 24 9 29.149 9 35.5S14.149 47 20.5 47 32 41.851 32 35.5a11.44 11.44 0 0 0-1.791-6.167l-.02-.03c-.135-.213-.272-.427-.375-.614a2.423 2.423 0 0 1-.166-2.171c.129-.324.318-.565.464-.732.133-.152.299-.318.456-.475l.403-.403a3.279 3.279 0 0 1 .637-.54 2.49 2.49 0 0 1 .723-.299c.297-.071.598-.07.78-.07l.052.001H37v-2.94c0-.245 0-.51.019-.739.02-.26.073-.602.254-.956a2.5 2.5 0 0 1 1.092-1.092c.354-.18.697-.233.956-.254.23-.02.494-.02.739-.019H43v-2.94c0-.245 0-.51.019-.739.02-.26.073-.602.254-.956a2.5 2.5 0 0 1 1.092-1.092c.354-.18.697-.233.956-.254.23-.02.494-.02.739-.019H49V7h-5.879Zm6.338.011h-.002Zm-.471-.469V6.54Zm0 5.918v-.002Zm.469-.471h.002ZM36.988 24.46l.001-.002Zm.47-.471h.002Z M21 38a3 3 0 1 1-6 0 3 3 0 0 1 6 0Z"/></svg>
