<svg xmlns="http://www.w3.org/2000/svg" width="56" height="56" fill="currentColor" viewBox="0 0 56 56"><path fill-rule="evenodd" d="M28 52c13.255 0 24-10.745 24-24S41.255 4 28 4 4 14.745 4 28s10.745 24 24 24ZM12.128 41.75A20.919 20.919 0 0 1 7 28a20.91 20.91 0 0 1 5.128-13.75l6.392 6.392A11.948 11.948 0 0 0 16 28c0 2.773.94 5.326 2.52 7.358l-6.392 6.393Zm2.121 2.122A20.919 20.919 0 0 0 28 49a20.91 20.91 0 0 0 13.75-5.128l-6.392-6.392A11.948 11.948 0 0 1 28 40c-2.773 0-5.326-.94-7.358-2.52l-6.393 6.392Zm29.623-2.121A20.919 20.919 0 0 0 49 28a20.91 20.91 0 0 0-5.128-13.75l-6.392 6.392A11.948 11.948 0 0 1 40 28c0 2.773-.94 5.326-2.52 7.358l6.392 6.393Zm-2.121-29.623A20.919 20.919 0 0 0 28 7a20.919 20.919 0 0 0-13.75 5.128l6.392 6.392A11.948 11.948 0 0 1 28 16c2.773 0 5.326.94 7.358 2.52l6.393-6.392ZM28 37a9 9 0 1 1 0-18 9 9 0 0 1 0 18Z" clip-rule="evenodd"/></svg>
