<svg xmlns="http://www.w3.org/2000/svg" width="56" height="56" fill="none" viewBox="0 0 56 56"><path fill="currentColor" fill-rule="evenodd" d="M18.5 11C11.819 11 6 16.1189 6 23.5c0 3.1368.775 5.6961 2.5776 8.252 1.7489 2.4797 4.4437 4.9223 8.1668 7.9168.7409.5959 1.5047 1.2269 2.2815 1.8687 1.4996 1.2388 3.048 2.5179 4.5741 3.6625.6627.4971 1.6029.3627 2.1-.3.4971-.6627.3627-1.6029-.3-2.1-1.4749-1.1061-2.9195-2.3001-4.3807-3.5076-.7909-.6537-1.5867-1.3114-2.3947-1.9612-3.7137-2.987-6.1111-5.2037-7.5953-7.3082C9.5988 27.9947 9 26.0447 9 23.5c0-5.6189 4.3685-9.5 9.5-9.5 2.9106 0 5.4209 1.5612 8.3 5.4a1.5001 1.5001 0 0 0 2.4 0c2.8732-3.8309 5.483-5.4 8.3-5.4 5.4162 0 9.2032 3.9654 9.4834 8.9697l.0173.5753c.0246.8193.7022 1.4671 1.5218 1.4548C49.3421 24.9875 50 24.3197 50 23.5c0-.2569-.0073-.4403-.02-.6754C49.6261 16.3092 44.6033 11 37.5 11c-3.6531 0-6.7015 1.854-9.4979 5.1006C25.2281 12.8592 22.2451 11 18.5 11ZM34 32.5v1.5654c-.5229.0564-1.0416.1696-1.543.4251a4.4997 4.4997 0 0 0-1.9665 1.9665c-.2892.5676-.3962 1.1574-.4446 1.7505-.046.5618-.0459 1.244-.0459 2.0347v4.5156c0 .7907-.0001 1.4729.0459 2.0347.0484.5931.1554 1.1829.4446 1.7505a4.4997 4.4997 0 0 0 1.9665 1.9665c.5676.2892 1.1574.3962 1.7505.4446.5618.046 1.244.0459 2.0347.0459h8.5156c.7907 0 1.4729.0001 2.0347-.0459.5931-.0484 1.1829-.1554 1.7505-.4446a4.4997 4.4997 0 0 0 1.9665-1.9665c.2892-.5676.3962-1.1574.4446-1.7505.046-.5618.0459-1.2439.0459-2.0346v-4.5157c0-.7908.0001-1.4729-.0459-2.0347-.0484-.5931-.1554-1.1829-.4446-1.7505a4.4997 4.4997 0 0 0-1.9665-1.9665c-.5014-.2555-1.0201-.3687-1.543-.4251V32.5c0-3.5899-2.9101-6.5-6.5-6.5S34 28.9101 34 32.5Zm3 0V34h7v-1.5c0-1.933-1.567-3.5-3.5-3.5S37 30.567 37 32.5Zm-3.181 4.6635c.0742-.0378.2253-.0943.6328-.1276.425-.0347.9834-.0359 1.8482-.0359h8.4c.8648 0 1.4232.0012 1.8482.0359.4075.0333.5586.0898.6328.1276.2822.1438.5117.3733.6555.6555.0378.0742.0943.2253.1276.6328.0347.425.0359.9834.0359 1.8482v4.4c0 .8648-.0012 1.4232-.0359 1.8482-.0333.4075-.0898.5586-.1276.6328a1.5002 1.5002 0 0 1-.6555.6555c-.0742.0378-.2253.0943-.6328.1276-.425.0347-.9834.0359-1.8482.0359h-8.4c-.8648 0-1.4232-.0012-1.8482-.0359-.4075-.0333-.5586-.0898-.6328-.1276a1.5002 1.5002 0 0 1-.6555-.6555c-.0378-.0742-.0943-.2253-.1276-.6328C33.0012 46.1232 33 45.5648 33 44.7v-4.4c0-.8648.0012-1.4232.0359-1.8482.0333-.4075.0898-.5586.1276-.6328a1.5002 1.5002 0 0 1 .6555-.6555ZM42 41.5c0-.8284-.6716-1.5-1.5-1.5s-1.5.6716-1.5 1.5v2c0 .8284.6716 1.5 1.5 1.5s1.5-.6716 1.5-1.5v-2Z" clip-rule="evenodd"/></svg>
