<?xml version="1.0" encoding="UTF-8"?>
<svg width="56px" height="56px" viewBox="0 0 56 56" version="1.1" xmlns="http://www.w3.org/2000/svg" xmlns:xlink="http://www.w3.org/1999/xlink">
    <!-- Generator: Sketch 61.2 (89653) - https://sketch.com -->
    <title>Icons 56/link_circle_outline_56</title>
    <desc>Created with Sketch.</desc>
    <g id="Icons-56/link_circle_outline_56" stroke="none" stroke-width="1" fill="none" fill-rule="evenodd">
        <g id="link_circle_outline_56" fill-rule="nonzero">
            <rect x="0" y="0" width="56" height="56"></rect>
            <path d="M28,4 C41.254834,4 52,14.745166 52,28 C52,41.254834 41.254834,52 28,52 C14.745166,52 4,41.254834 4,28 C4,14.745166 14.745166,4 28,4 Z M28,7 C16.4020203,7 7,16.4020203 7,28 C7,39.5979797 16.4020203,49 28,49 C39.5979797,49 49,39.5979797 49,28 C49,16.4020203 39.5979797,7 28,7 Z M35.5,19 C36.2796961,19 36.9204487,19.5948881 36.9931334,20.35554 L37,20.5 L37,32.5 C37,33.3284271 36.3284271,34 35.5,34 C34.7203039,34 34.0795513,33.4051119 34.0068666,32.64446 L34,32.5 L34,24.12 L21.5606602,36.5606602 C20.9748737,37.1464466 20.0251263,37.1464466 19.4393398,36.5606602 C18.890165,36.0114854 18.8558416,35.142423 19.3363696,34.5532622 L19.4393398,34.4393398 L31.878,22 L23.5,22 C22.7203039,22 22.0795513,21.4051119 22.0068666,20.64446 L22,20.5 C22,19.7203039 22.5948881,19.0795513 23.35554,19.0068666 L23.5,19 L35.5,19 Z" id="↳-Icon-Color" fill="currentColor"></path>
        </g>
    </g>
</svg>
