<svg fill="none" height="56" viewBox="0 0 56 56" width="56" xmlns="http://www.w3.org/2000/svg"><path clip-rule="evenodd" d="m24 39.5c0-.8284-.6716-1.5-1.5-1.5h-15c-.82843 0-1.5.6716-1.5 1.5s.67157 1.5 1.5 1.5h15c.8284 0 1.5-.6716 1.5-1.5zm0-12c0-.8284-.6716-1.5-1.5-1.5h-15c-.82843 0-1.5.6716-1.5 1.5s.67157 1.5 1.5 1.5h15c.8284 0 1.5-.6716 1.5-1.5zm26-12c0-.8284-.6716-1.5-1.5-1.5h-41c-.82843 0-1.5.6716-1.5 1.5s.67157 1.5 1.5 1.5h41c.8284 0 1.5-.6716 1.5-1.5zm-.1642 19.6874c-.2638-.5931-1.0489-1.0476-2.6193-1.9568l-9.4132-5.4497c-1.576-.9124-2.364-1.3687-3.0107-1.3012-.5641.0588-1.0767.3543-1.4102.813-.3824.526-.3824 1.4365-.3824 3.2575v10.8996c0 1.821 0 2.7315.3824 3.2575.3335.4587.8461.7542 1.4102.813.6467.0674 1.4347-.3888 3.0107-1.3012l9.4133-5.4497c1.5703-.9092 2.3554-1.3637 2.6192-1.9568.23-.5173.23-1.1079 0-1.6252z" fill="currentColor" fill-rule="evenodd"/></svg>
