<svg xmlns="http://www.w3.org/2000/svg" width="56" height="56" fill="currentColor" viewBox="0 0 56 56"><path fill-rule="evenodd" d="M43.64 17.016c.863-2.39-1.45-4.704-3.841-3.84L10.313 23.822c-1.998.721-1.643 3.648.47 3.87l15.38 1.619a1.5 1.5 0 0 1 1.335 1.333l1.627 15.37c.223 2.11 3.148 2.465 3.87.469l10.644-29.468Zm-4.86-6.662c4.78-1.727 9.408 2.901 7.68 7.681L35.817 47.503c-1.803 4.992-9.116 4.105-9.675-1.173l-1.499-14.162-14.173-1.491c-5.28-.556-6.17-7.872-1.175-9.675L38.78 10.354Z" clip-rule="evenodd"/></svg>
