<svg fill="none" height="56" viewBox="0 0 56 56" width="56" xmlns="http://www.w3.org/2000/svg"><g fill="currentColor"><path d="m28 31c-1.6569 0-3 1.3431-3 3 0 1.1104.6033 2.0799 1.5 2.5987v2.9013c0 .8284.6716 1.5 1.5 1.5s1.5-.6716 1.5-1.5v-2.9013c.8967-.5188 1.5-1.4883 1.5-2.5987 0-1.6569-1.3431-3-3-3z"/><path clip-rule="evenodd" d="m28 4c-6.0751 0-11 4.92486-11 11v5.0406c-.3608.0143-.7002.0336-1.0197.0597-1.2601.103-2.3438.319-3.3392.8261-1.5994.815-2.89973 2.1153-3.71465 3.7147-.50718.9954-.72315 2.0791-.8261 3.3392-.10037 1.2285-.10036 2.7496-.10035 4.6544v6.7305c-.00001 1.9049-.00002 3.426.10035 4.6546.10295 1.26.31892 2.3437.8261 3.3391.81492 1.5994 2.11525 2.8998 3.71465 3.7147.9954.5072 2.0791.7231 3.3392.8261 1.2285.1003 2.7496.1003 4.6544.1003h14.7306c1.9049 0 3.4259 0 4.6544-.1003 1.2601-.103 2.3438-.3189 3.3392-.8261 1.5994-.8149 2.8997-2.1153 3.7147-3.7147.5071-.9954.7231-2.0791.8261-3.3391.1003-1.2285.1003-2.7496.1003-4.6544v-6.7307c0-1.9048 0-3.4259-.1003-4.6544-.103-1.2601-.319-2.3438-.8261-3.3392-.815-1.5994-2.1153-2.8997-3.7147-3.7147-.9954-.5071-2.0791-.7231-3.3392-.8261-.3195-.0261-.6589-.0454-1.0197-.0597v-5.0406c0-6.07513-4.9249-11-11-11zm-8 11c0-4.4183 3.5817-8 8-8s8 3.5817 8 8v5h-16zm-5.9969 8.5995c.5019-.2558 1.147-.4213 2.2215-.5091 1.092-.0892 2.4905-.0904 4.4754-.0904h14.6c1.9849 0 3.3834.0012 4.4755.0904 1.0745.0878 1.7195.2533 2.2215.5091 1.0349.5273 1.8762 1.3687 2.4036 2.4036.2557.5019.4212 1.147.509 2.2215.0892 1.092.0904 2.4905.0904 4.4754v6.6c0 1.985-.0012 3.3834-.0904 4.4755-.0878 1.0745-.2533 1.7195-.509 2.2215-.5274 1.0349-1.3687 1.8763-2.4036 2.4036-.502.2557-1.147.4212-2.2215.509-1.0921.0893-2.4905.0904-4.4755.0904h-14.6c-1.9849 0-3.3834-.0011-4.4754-.0904-1.0745-.0878-1.7196-.2533-2.2215-.509-1.0349-.5273-1.8763-1.3687-2.4036-2.4036-.2558-.502-.4213-1.147-.5091-2.2215-.0892-1.0921-.0904-2.4905-.0904-4.4755v-6.6c0-1.9849.0012-3.3834.0904-4.4754.0878-1.0745.2533-1.7196.5091-2.2215.5273-1.0349 1.3687-1.8763 2.4036-2.4036z" fill-rule="evenodd"/></g></svg>
