<svg xmlns="http://www.w3.org/2000/svg" width="56" height="56" fill="none" viewBox="0 0 56 56"><path fill="#07F" d="M6 27.12c0-9.956 0-14.934 3.093-18.027C12.186 6 17.163 6 27.12 6h1.76c9.956 0 14.934 0 18.027 3.093C50 12.186 50 17.163 50 27.12v1.76c0 9.956 0 14.934-3.093 18.027C43.814 50 38.837 50 28.88 50h-1.76c-9.956 0-14.934 0-18.027-3.093C6 43.814 6 38.837 6 28.88v-1.76Z"/><path fill="#fff" d="M29.412 37.699c-10.029 0-15.749-6.875-15.987-18.315h5.023c.165 8.396 3.869 11.953 6.802 12.686V19.384h4.73v7.241c2.897-.311 5.94-3.611 6.966-7.241h4.73c-.788 4.473-4.088 7.773-6.434 9.13 2.346 1.1 6.105 3.978 7.535 9.185H37.57c-1.118-3.484-3.905-6.179-7.59-6.545v6.545h-.568Z"/></svg>
