<svg xmlns="http://www.w3.org/2000/svg" width="56" height="56" fill="none" viewBox="0 0 56 56"><path fill="currentColor" fill-rule="evenodd" d="M19.3833 8c-5.0191 0-7.1177.4654-9.2444 1.6028-1.9517 1.0438-3.4923 2.5844-4.5361 4.5361C4.4654 16.2656 4 18.3642 4 23.3833v9.2334c0 5.0191.4654 7.1177 1.6028 9.2444 1.0438 1.9517 2.5844 3.4923 4.5361 4.5361C12.2656 47.5346 14.3642 48 19.3833 48h17.2334c5.0191 0 7.1177-.4654 9.2444-1.6028 1.9517-1.0438 3.4923-2.5844 4.5361-4.5361C51.5346 39.7344 52 37.6358 52 32.6167v-9.2334c0-5.0191-.4654-7.1177-1.6028-9.2444-1.0438-1.9517-2.5844-3.4923-4.5361-4.5361C43.7344 8.4654 41.6358 8 36.6167 8H19.3833Zm-7.8296 4.2482C13.0389 11.454 14.5538 11 19.3833 11h17.2334c4.8295 0 6.3444.454 7.8296 1.2482.2566.1373.503.2857.739.4452l-9.7607 9.7607c-2.03 2.0299-3.448 3.4435-4.6599 4.3681-1.1772.8982-1.9819 1.1925-2.7647 1.1925-.7828 0-1.5875-.2943-2.7647-1.1925-1.2119-.9246-2.6299-2.3382-4.6599-4.3681l-9.7607-9.7607a8.3743 8.3743 0 0 1 .739-.4452Zm-2.8603 2.5665a8.3549 8.3549 0 0 0-.4452.739C7.454 17.0389 7 18.5538 7 23.3833v9.2334c0 4.8295.454 6.3444 1.2482 7.8296.7642 1.4289 1.8766 2.5413 3.3055 3.3055C13.0389 44.546 14.5538 45 19.3833 45h17.2334c4.8295 0 6.3444-.454 7.8296-1.2482 1.4289-.7642 2.5413-1.8766 3.3055-3.3055C48.546 38.9611 49 37.4462 49 32.6167v-9.2334c0-4.8295-.454-6.3444-1.2482-7.8296a8.3743 8.3743 0 0 0-.4452-.739l-9.7607 9.7607-.0775.0776c-1.9341 1.9341-3.493 3.493-4.8839 4.5543-1.4441 1.1018-2.882 1.8074-4.5845 1.8074-1.7025 0-3.1404-.7056-4.5845-1.8074-1.3909-1.0613-2.9498-2.6202-4.8838-4.5542l-.0776-.0777-9.7607-9.7607Z" clip-rule="evenodd"/></svg>
