<?xml version="1.0" encoding="UTF-8"?>
<svg width="56px" height="56px" viewBox="0 0 56 56" version="1.1" xmlns="http://www.w3.org/2000/svg" xmlns:xlink="http://www.w3.org/1999/xlink">
    <!-- Generator: Sketch 61.2 (89653) - https://sketch.com -->
    <title>Icons 56/market_outline_56</title>
    <desc>Created with Sketch.</desc>
    <g id="Icons-56/market_outline_56" stroke="none" stroke-width="1" fill="none" fill-rule="evenodd">
        <g id="market_outline_56" fill-rule="nonzero">
            <rect x="0" y="0" width="56" height="56"></rect>
            <path d="M28,6 C33.5228475,6 38,10.4771525 38,16 L40.590287,16 C42.8190838,16 43.6272994,16.232064 44.4421143,16.6678318 C45.2569291,17.1035995 45.8964005,17.7430709 46.3321682,18.5578857 C46.767936,19.3727006 47,20.1809162 47,22.409713 L47,36.180574 C47,40.6381677 46.5358719,42.2545989 45.6643365,43.8842285 C44.792801,45.5138581 43.5138581,46.792801 41.8842285,47.6643365 C40.2545989,48.5358719 38.6381677,49 34.180574,49 L21.819426,49 C17.3618323,49 15.7454011,48.5358719 14.1157715,47.6643365 C12.4861419,46.792801 11.207199,45.5138581 10.3356635,43.8842285 C9.46412806,42.2545989 9,40.6381677 9,36.180574 L9,22.409713 C9,20.1809162 9.23206403,19.3727006 9.66783176,18.5578857 C10.1035995,17.7430709 10.7430709,17.1035995 11.5578857,16.6678318 C12.3727006,16.232064 13.1809162,16 15.409713,16 L18,16 C18,10.4771525 22.4771525,6 28,6 Z M40.8302113,19.0006932 L15.409713,19 C13.8305656,19 13.4046629,19.0822456 12.9726823,19.3132714 C12.6806729,19.4694397 12.4694397,19.6806729 12.3132714,19.9726823 C12.0944048,20.3819271 12.0090696,20.7857169 12.0006932,22.1697887 L12,36.180574 C12,39.791763 12.2548416,41.1114409 12.9811031,42.4694319 C13.5730392,43.5762562 14.4237438,44.4269608 15.5305681,45.0188969 C16.8885591,45.7451584 18.208237,46 21.819426,46 L34.180574,46 C37.791763,46 39.1114409,45.7451584 40.4694319,45.0188969 C41.5762562,44.4269608 42.4269608,43.5762562 43.0188969,42.4694319 C43.7451584,41.1114409 44,39.791763 44,36.180574 L44,22.409713 C44,20.8305656 43.9177544,20.4046629 43.6867286,19.9726823 C43.5305603,19.6806729 43.3193271,19.4694397 43.0273177,19.3132714 C42.6180729,19.0944048 42.2142831,19.0090696 40.8302113,19.0006932 Z M19.5429447,22 C19.8710678,22 20.1230979,22.0603366 20.3349497,22.1736363 C20.5468016,22.2869359 20.7130641,22.4531984 20.8263637,22.6650503 C20.9396634,22.8769021 21,23.1289322 21,23.4570553 L21,23.5429447 C21,23.8710678 20.9396634,24.1230979 20.8263637,24.3349497 C20.7130641,24.5468016 20.5468016,24.7130641 20.3349497,24.8263637 C20.1230979,24.9396634 19.8710678,25 19.5429447,25 L19.4570553,25 C19.1289322,25 18.8769021,24.9396634 18.6650503,24.8263637 C18.4531984,24.7130641 18.2869359,24.5468016 18.1736363,24.3349497 C18.0603366,24.1230979 18,23.8710678 18,23.5429447 L18,23.4570553 C18,23.1289322 18.0603366,22.8769021 18.1736363,22.6650503 C18.2869359,22.4531984 18.4531984,22.2869359 18.6650503,22.1736363 C18.8769021,22.0603366 19.1289322,22 19.4570553,22 L19.5429447,22 Z M36.5429447,22 C36.8710678,22 37.1230979,22.0603366 37.3349497,22.1736363 C37.5468016,22.2869359 37.7130641,22.4531984 37.8263637,22.6650503 C37.9396634,22.8769021 38,23.1289322 38,23.4570553 L38,23.5429447 C38,23.8710678 37.9396634,24.1230979 37.8263637,24.3349497 C37.7130641,24.5468016 37.5468016,24.7130641 37.3349497,24.8263637 C37.1230979,24.9396634 36.8710678,25 36.5429447,25 L36.4570553,25 C36.1289322,25 35.8769021,24.9396634 35.6650503,24.8263637 C35.4531984,24.7130641 35.2869359,24.5468016 35.1736363,24.3349497 C35.0603366,24.1230979 35,23.8710678 35,23.5429447 L35,23.4570553 C35,23.1289322 35.0603366,22.8769021 35.1736363,22.6650503 C35.2869359,22.4531984 35.4531984,22.2869359 35.6650503,22.1736363 C35.8769021,22.0603366 36.1289322,22 36.4570553,22 L36.5429447,22 Z M28,9 C24.1340068,9 21,12.1340068 21,16 L35,16 C35,12.1340068 31.8659932,9 28,9 Z" id="Combined-Shape" fill="currentColor"></path>
        </g>
    </g>
</svg>
