<svg height="56" viewBox="0 0 56 56" width="56" xmlns="http://www.w3.org/2000/svg"><g fill="none"><path d="m0 0h56v56h-56z"/><path d="m43.9473684 30.5c4.1776161 0 7.5526316 3.4394197 7.5526316 7.6681318 0 4.1832661-1.6412967 6.2763955-8.3523006 11.5956704l-3.0947943 2.4529953c-.9097167.7210595-2.1960935.7210595-3.1058102 0l-3.449482-2.7349005c-6.4144106-5.1127908-7.9976129-7.2052003-7.9976129-11.3137652 0-4.2287121 3.3750155-7.6681318 7.5526316-7.6681318 1.9557201 0 3.7102731.8076674 5.237748 2.3497872l.2096204.2172128.2096204-.2172128c1.454738-1.4686855 3.1154425-2.2712011 4.9597307-2.3443008zm0 3c-1.5102319 0-2.8918145.881668-4.2061662 2.8185508l-1.2412022 1.8290867-1.2412022-1.8290867c-1.3143517-1.9368828-2.6959343-2.8185508-4.2061662-2.8185508-2.5079362 0-4.5526316 2.0837136-4.5526316 4.6681318 0 2.9522782 1.1870838 4.4661544 7.2157867 9.2446239l2.7842133 2.2062443 3.108272-2.4636788c5.6409848-4.4918095 6.8477676-6.031537 6.8905288-8.8275543l.0011992-.1596351c0-2.5844182-2.0446954-4.6681318-4.5526316-4.6681318zm-15.9473684-27.5c5.5225132 0 9.999458 4.4766105 10 9.9989971l3.0132009.0010029c1.6488762 0 2.5084552.1659924 3.4036774.6447624.831773.4448371 1.4935222 1.1065863 1.9383593 1.9383593.4488469.8392708.6227916 1.6472146.6427813 3.1035613l.0019811.3001161v2.60411c0 .8284271-.6715729 1.5-1.5 1.5-.7796961 0-1.4204487-.5948881-1.4931334-1.35554l-.0068666-.14446v-2.60411l-.0041842-.437427c-.0184567-.8631787-.1000658-1.2037537-.2860178-1.5514538-.1652377-.3089677-.3987486-.5424786-.7077163-.7077163l-.1619-.078565c-.3305037-.1429121-.7243774-.2023162-1.598267-.2106097l-26.2551156-.0010273c-1.195982 0-1.5876884.075642-1.9888808.290202-.3089677.1652377-.5424786.3987486-.7077163.7077163l-.078565.1619c-.1429121.3305037-.2023162.7243774-.2106097 1.598267l-.0010273 14.8454026c0 3.2280236.248238 4.5135052.9580338 5.8407081.6010054 1.1237824 1.4739878 1.9967648 2.5977702 2.5977702l.2950537.1502215c1.1839196.5711887 2.4510085.7901749 5.1948783.8067799l.3507761.0010324h1.4587511c.8284271 0 1.5.6715729 1.5 1.5 0 .7796961-.5948881 1.4204487-1.35554 1.4931334l-.14446.0068666h-1.4587511l-.7599918-.0052906c-3.1717514-.0463211-4.8043683-.4028696-6.4955128-1.3073036-1.6465879-.8806048-2.9478085-2.1818254-3.8284133-3.8284133-.93921994-1.7561886-1.28759884-3.4492607-1.31128506-6.8684055l-.00130914-15.0037879c0-1.6488762.16599237-2.5084552.64476243-3.4036774.44483707-.831773 1.10658627-1.4935222 1.93835927-1.9383593.8392708-.4488469 1.6472146-.6227916 3.1035613-.6427813l20.313317-.0029811-.004059-.2396498c-.1268423-3.7545668-3.2104893-6.7593502-6.995941-6.7593502-3.8659932 0-7 3.1340068-7 7h-3c0-5.5228475 4.4771525-10 10-10zm-8.5 16c.8284271 0 1.5.6715729 1.5 1.5s-.6715729 1.5-1.5 1.5-1.5-.6715729-1.5-1.5.6715729-1.5 1.5-1.5z" fill="currentColor"/></g></svg>
