<svg width="56" height="56" viewBox="0 0 56 56" fill="none" xmlns="http://www.w3.org/2000/svg"><path fill-rule="evenodd" clip-rule="evenodd" d="M22.029 10c-8.474 0-14.971 5.925-14.971 12.806 0 2.468.817 4.782 2.253 6.738a1.5 1.5 0 01.291.888c0 1.638-.425 3.23-.953 4.674-.351.962-.772 1.919-1.17 2.803 3.314-.334 5.494-1.392 6.807-2.955a1.5 1.5 0 011.68-.437 17.062 17.062 0 006.063 1.095c8.474 0 14.97-5.925 14.97-12.806C37 15.925 30.504 10 22.03 10zM4.058 22.806C4.058 13.886 12.309 7 22.028 7 31.749 7 40 13.885 40 22.806c0 8.92-8.251 15.806-17.971 15.806-2.165 0-4.244-.337-6.172-.956-2.254 2.144-5.545 3.181-9.592 3.342-1.618.065-2.726-1.62-2.077-3.08.14-.318.282-.633.423-.946.434-.963.861-1.911 1.22-2.895.41-1.12.689-2.184.756-3.19-1.6-2.346-2.53-5.115-2.53-8.081z" fill="currentColor"/><path fill-rule="evenodd" clip-rule="evenodd" d="M43.012 18.768a1.5 1.5 0 00.377 2.088c3.437 2.385 5.553 5.988 5.553 9.95 0 2.469-.817 4.782-2.253 6.738a1.5 1.5 0 00-.291.888c0 1.638.425 3.23.952 4.674.352.962.773 1.919 1.17 2.803-3.314-.334-5.493-1.392-6.806-2.955a1.5 1.5 0 00-1.68-.437 17.063 17.063 0 01-6.063 1.095c-2.986 0-5.755-.748-8.078-2.026a1.5 1.5 0 00-1.446 2.63c2.77 1.523 6.037 2.396 9.524 2.396 2.164 0 4.244-.337 6.172-.956 2.254 2.144 5.545 3.181 9.592 3.342 1.618.065 2.726-1.62 2.077-3.08-.14-.318-.282-.633-.423-.946-.434-.962-.861-1.911-1.22-2.895-.41-1.12-.69-2.184-.756-3.19 1.6-2.346 2.53-5.115 2.53-8.081 0-5.09-2.725-9.557-6.843-12.415a1.5 1.5 0 00-2.088.377z" fill="currentColor"/></svg>
