<svg fill="none" height="56" viewBox="0 0 56 56" width="56" xmlns="http://www.w3.org/2000/svg"><path clip-rule="evenodd" d="m6 25.6382c0-11.0446 10.2874-19.6382 22.5-19.6382s22.5 8.5936 22.5 19.6382c0 11.0447-10.2874 19.6383-22.5 19.6383-1.8152 0-3.5823-.1876-5.2763-.5426-2.682 1.6885-6.3771 3.0697-10.9962 4.1918-.6174.15-1.2689.0575-1.8202-.2585-1.49327-.856-1.41987-2.5036-.67867-3.804 1.00297-1.7757 1.95047-3.6034 2.64947-5.523-3.91661-3.509-6.3781-8.3335-6.3781-13.702zm22.5-16.6382c-10.9833 0-19.5 7.6479-19.5 16.6382 0 4.6988 2.2908 8.9894 6.0669 12.0533.4737.3843.6674 1.0172.4901 1.6009-.5594 1.8408-1.5269 3.9868-2.8684 6.4228 4.1962-1.102 7.3012-2.3913 9.3979-3.8221.3484-.2378.7808-.3179 1.1913-.2207 1.66.3933 3.411.6041 5.2222.6041 10.9833 0 19.5-7.6479 19.5-16.6383 0-8.9903-8.5167-16.6382-19.5-16.6382z" fill="currentColor" fill-rule="evenodd"/></svg>
