<svg xmlns="http://www.w3.org/2000/svg" width="56" height="56" fill="none" viewBox="0 0 56 56">
  <circle cx="28" cy="28" r="28" fill="url(#a)"/>
  <path fill="#fff" fill-rule="evenodd" d="M28 16c6.627 0 12 4.813 12 10.75S34.627 37.5 28 37.5c-1.182 0-2.324-.153-3.403-.438a24.013 24.013 0 0 1-3.79 2.717c-.231.133-.5.276-.804.43l-.316.155a1.2 1.2 0 0 1-1.637-1.525c.188-.471.338-.884.449-1.238.35-1.115.622-2.265.808-3.444C17.256 32.227 16 29.62 16 26.75 16 20.813 21.373 16 28 16Z" clip-rule="evenodd"/>
  <defs>
    <linearGradient id="a" x1="0" x2="56" y1="0" y2="56" gradientUnits="userSpaceOnUse">
      <stop stop-color="#6CD97E"/>
      <stop offset="1" stop-color="#12B312"/>
    </linearGradient>
  </defs>
</svg>
