<svg xmlns="http://www.w3.org/2000/svg" width="56" height="56" fill="currentColor" viewBox="0 0 56 56"><path d="M22 24a3 3 0 1 0 0-6 3 3 0 0 0 0 6Zm17-3a3 3 0 1 1-6 0 3 3 0 0 1 6 0ZM24.237 33.737a1.75 1.75 0 1 1-2.474-2.474C23.555 29.47 25.987 28.25 29 28.25s5.445 1.22 7.237 3.013a1.75 1.75 0 1 1-2.474 2.474C32.555 32.53 30.987 31.75 29 31.75s-3.555.78-4.763 1.987Z M28.5 6C16.287 6 6 14.594 6 25.638c0 5.369 2.461 10.193 6.378 13.702-.558 1.534-1.433 3.37-2.648 5.52l-.001.003-.241.423a1.54 1.54 0 0 0-.039.071l-.05.103a2.479 2.479 0 0 0 2.83 3.466c4.618-1.122 8.313-2.504 10.995-4.192a25.72 25.72 0 0 0 5.276.542c12.213 0 22.5-8.593 22.5-19.638C51 14.594 40.713 6 28.5 6ZM9 25.638C9 16.648 17.517 9 28.5 9S48 16.648 48 25.638c0 8.99-8.517 16.638-19.5 16.638-1.811 0-3.562-.21-5.222-.604a1.5 1.5 0 0 0-1.191.221c-2.097 1.43-5.202 2.72-9.398 3.822 1.341-2.436 2.309-4.582 2.868-6.423a1.5 1.5 0 0 0-.49-1.6C11.29 34.627 9 30.336 9 25.637Z" clip-rule="evenodd"/></svg>
