<svg fill="none" height="56" viewBox="0 0 56 56" width="56" xmlns="http://www.w3.org/2000/svg"><g fill="currentColor"><path d="m28.5 9c-10.9833 0-19.5 7.6479-19.5 16.6382 0 4.6988 2.2908 8.9894 6.0669 12.0533.4737.3843.6674 1.0172.4901 1.6009-.5594 1.8408-1.5269 3.9868-2.8684 6.4228 4.1962-1.102 7.3012-2.3913 9.3979-3.8221.6842-.467 1.6175-.2909 2.0845.3934.4669.6843.2908 1.6176-.3935 2.0845-2.7177 1.8547-6.6043 3.3533-11.55 4.5547-.6174.15-1.2689.0575-1.8202-.2585-1.10431-.633-1.53725-1.985-1.04573-3.1285.01147-.0267.0237-.053.0367-.079l.05122-.1024c.01209-.0241.02483-.0479.03821-.0714l.24093-.4227.00127-.0023c1.2151-2.15 2.0896-3.9867 2.6482-5.5207-3.91661-3.509-6.3781-8.3335-6.3781-13.702 0-11.0446 10.2874-19.6382 22.5-19.6382 8.6136 0 16.1885 4.233 19.9713 10.5795.3471.5823.6621 1.1825.9429 1.7987.3434.7539.0106 1.6434-.7433 1.9868-.7539.3435-1.6434.0107-1.9868-.7432-.2343-.5142-.498-1.0169-.7897-1.5063-3.1884-5.3492-9.7292-9.1155-17.3944-9.1155z"/><g clip-rule="evenodd" fill-rule="evenodd"><path d="m39 29.5c-3.0376 0-5.5 2.4624-5.5 5.5s2.4624 5.5 5.5 5.5 5.5-2.4624 5.5-5.5-2.4624-5.5-5.5-5.5zm-2.5 5.5c0-1.3807 1.1193-2.5 2.5-2.5s2.5 1.1193 2.5 2.5-1.1193 2.5-2.5 2.5-2.5-1.1193-2.5-2.5z"/><path d="m27.763 26.8221c-.763 1.4973-.763 3.4575-.763 7.3779v1.6c0 3.9204 0 5.8805.763 7.3779.6711 1.3172 1.7419 2.388 3.0591 3.0591 1.4973.763 3.4575.763 7.3779.763h1.6c3.9204 0 5.8805 0 7.3779-.763 1.3172-.6711 2.388-1.7419 3.0591-3.0591.763-1.4974.763-3.4575.763-7.3779v-1.6c0-3.9204 0-5.8806-.763-7.3779-.6711-1.3172-1.7419-2.388-3.0591-3.0591-1.4974-.763-3.4575-.763-7.3779-.763h-1.6c-3.9204 0-5.8806 0-7.3779.763-1.3172.6711-2.388 1.7419-3.0591 3.0591zm12.037-.8221h-1.6c-2.0097 0-3.3365.0023-4.3533.0854-.9817.0802-1.4074.2205-1.6627.3506-.7526.3835-1.3645.9954-1.748 1.748-.1301.2553-.2704.681-.3506 1.6627-.0831 1.0168-.0854 2.3436-.0854 4.3533v1.6c0 2.0097.0023 3.3365.0854 4.3533.0802.9817.2205 1.4074.3506 1.6627.3835.7526.9954 1.3645 1.748 1.748.2553.1301.681.2704 1.6627.3506 1.0168.0831 2.3436.0854 4.3533.0854h1.6c2.0097 0 3.3365-.0023 4.3533-.0854.9817-.0802 1.4074-.2205 1.6627-.3506.7526-.3835 1.3645-.9954 1.748-1.748.1301-.2553.2704-.681.3506-1.6627.0831-1.0168.0854-2.3436.0854-4.3533v-1.6c0-2.0097-.0023-3.3365-.0854-4.3533-.0802-.9817-.2205-1.4074-.3506-1.6627-.3835-.7526-.9954-1.3645-1.748-1.748-.2553-.1301-.681-.2704-1.6627-.3506-1.0168-.0831-2.3436-.0854-4.3533-.0854z"/></g></g></svg>
