<svg fill="none" height="56" viewBox="0 0 56 56" width="56" xmlns="http://www.w3.org/2000/svg"><g fill="currentColor"><path d="m28 4c-3.9849 0-7.5159 1.94386-9.696 4.92855-.4886.66898-.3424 1.60745.3266 2.09605s1.6074.3424 2.096-.3266c1.6395-2.24461 4.2867-3.698 7.2734-3.698 4.9706 0 9 4.0294 9 9v9c0 .9866-.1582 1.9332-.4494 2.8176-.2591.7869.1687 1.6348.9556 1.8939.7868.2591 1.6347-.1687 1.8939-.9555.3897-1.1835.5999-2.4467.5999-3.756v-9c0-6.62742-5.3726-12-12-12z"/><path clip-rule="evenodd" d="m16 17.6213-6.56066-6.5606c-.58579-.5858-.58579-1.53557 0-2.12136.58576-.58579 1.53556-.58579 2.12136 0l35 34.99996c.5857.5858.5857 1.5356 0 2.1214-.5858.5857-1.5356.5857-2.1214 0l-4.4235-4.4236c-2.9974 2.1569-6.606 3.5281-10.5158 3.8092v5.0537c0 .8284-.6716 1.5-1.5 1.5s-1.5-.6716-1.5-1.5v-5.0537c-7.8298-.5625-14.4434-5.4941-17.37908-12.3563-.32584-.7617.02746-1.6433.78911-1.9691.76167-.3258 1.64327.0275 1.96907.7891 2.6622 6.2229 8.8762 10.59 16.1209 10.59 3.6599 0 7.0539-1.1133 9.8616-3.0171l-4.0063-4.0062c-1.733.9703-3.7315 1.5233-5.8553 1.5233-6.6274 0-12-5.3726-12-12zm3 3v4.3787c0 4.9706 4.0295 9 9 9 1.2899 0 2.5141-.2705 3.621-.7577z" fill-rule="evenodd"/><path d="m46.8791 33.09c.3259-.7617-.0274-1.6433-.7891-1.9691-.7616-.3258-1.6432.0275-1.9691.7891-.2977.696-.64 1.369-1.0234 2.0154-.4226.7125-.1875 1.6327.525 2.0553.7126.4226 1.6328.1875 2.0553-.525.4498-.7583.8516-1.5482 1.2013-2.3657z"/></g></svg>
