<svg xmlns="http://www.w3.org/2000/svg" width="56" height="56" fill="none" viewBox="0 0 56 56"><circle cx="28" cy="28" r="28" fill="url(#a)"/><path fill="#fff" fill-rule="evenodd" d="M28.5 15c.166.005.332 0 .5 0a8 8 0 0 1 .4 15.99L29 31h-4.5v2.5h3.811c.388 0 .677.07.922.2.244.131.436.323.567.567.13.245.2.534.2.922v.122c0 .388-.07.677-.2.922a1.371 1.371 0 0 1-.567.567c-.245.13-.534.2-.922.2H24.5v1.311c0 .388-.07.677-.2.922a1.371 1.371 0 0 1-.567.567c-.245.13-.534.2-.922.2h-.122c-.388 0-.677-.07-.922-.2a1.364 1.364 0 0 1-.567-.567c-.13-.245-.2-.534-.2-.922V37h-1.311c-.388 0-.677-.07-.922-.2a1.364 1.364 0 0 1-.567-.567c-.13-.245-.2-.534-.2-.922v-.122c0-.388.07-.677.2-.922.131-.244.323-.436.567-.567.245-.13.534-.2.922-.2H21V31h-1.311c-.388 0-.677-.07-.922-.2a1.364 1.364 0 0 1-.567-.567c-.13-.245-.2-.534-.2-.922v-.122c0-.388.07-.677.2-.922.131-.244.323-.436.567-.567.245-.13.534-.2.922-.2H21V16.513c0-.164.016-.232.045-.293a1.421 1.421 0 0 1 .722-1.02c.245-.13.487-.2 1.156-.2H28.5Zm.5 3.5h-4.5v9H29a4.5 4.5 0 1 0 0-9Z" clip-rule="evenodd"/><defs><linearGradient id="a" x1="-28" x2="28" y1="28" y2="84" gradientUnits="userSpaceOnUse"><stop stop-color="#B1B6BD"/><stop offset="1" stop-color="#99A2AD"/></linearGradient></defs></svg>
