<svg xmlns="http://www.w3.org/2000/svg" width="56" height="56" fill="currentColor" viewBox="0 0 56 56"><path fill-rule="evenodd" d="M52 28C52 14.745 41.255 4 28 4a23.956 23.956 0 0 0-18.5 8.71V8l-.007-.144A1.5 1.5 0 0 0 6.5 8v8.5l.007.145A1.5 1.5 0 0 0 8 18h8.5l.162-.007C18.499 17.836 18.444 15 16.5 15h-4.994A20.96 20.96 0 0 1 28 7c11.598 0 21 9.402 21 21s-9.402 21-21 21a20.94 20.94 0 0 1-15.652-7 1.5 1.5 0 0 0-2.236 2.002A23.94 23.94 0 0 0 28 52c13.255 0 24-10.745 24-24ZM23.498 14.5a1.5 1.5 0 0 0-1.501 1.5l.002 11h-1.497a1.5 1.5 0 1 0 0 3h1.497l-.003 4h-1.497a1.5 1.5 0 1 0 0 3h1.497l.001 3A1.5 1.5 0 0 0 25 40l-.002-3h5.5a1.5 1.5 0 1 0 0-3h-5.5l.003-4h6.286C35.547 30 39 26.463 39 22.207S35.546 14.5 31.285 14.5h-7.787Zm7.79 12.5h-6.285L25 17.5h6.285a4.71 4.71 0 0 1 4.712 4.707c0 2.6-2.108 4.793-4.71 4.793Z" clip-rule="evenodd"/></svg>
