<?xml version="1.0" encoding="UTF-8"?>
<svg width="56px" height="56px" viewBox="0 0 56 56" version="1.1" xmlns="http://www.w3.org/2000/svg" xmlns:xlink="http://www.w3.org/1999/xlink">
    <!-- Generator: Sketch 61.2 (89653) - https://sketch.com -->
    <title>Icons 56/music_outline_56</title>
    <desc>Created with Sketch.</desc>
    <g id="Icons-56/music_outline_56" stroke="none" stroke-width="1" fill="none" fill-rule="evenodd">
        <g id="music_outline_56">
            <polygon opacity="0.4" points="0 0 56 0 56 56 0 56"></polygon>
            <path d="M45,33.9267466 C45,38.4784267 43.0620321,41.8983701 39.9304476,43.5465725 C37.0898929,45.0416013 33.6850885,44.7692169 31.7079358,42.7920642 C29.7307831,40.8149115 29.4583987,37.4101071 30.9534275,34.5695524 C32.6016299,31.4379679 36.0215733,29.5 40.5732534,29.5 L41.9991668,29.4991104 L41.9991668,18.8441104 L20.9991668,23.2191104 L21,38.9267466 C21,43.4784267 19.0620321,46.8983701 15.9304476,48.5465725 C13.0898929,50.0416013 9.68508852,49.7692169 7.7079358,47.7920642 C5.73078309,45.8149115 5.45839874,42.4101071 6.95342755,39.5695524 C8.60162992,36.4379679 12.0215733,34.5 16.5732534,34.5 L17.9991668,34.4991104 L18.0015505,17.5213321 C18.017132,16.012535 18.1523035,15.1646819 18.5040836,14.3124522 L18.5828159,14.129522 C18.9908813,13.2177571 19.6093431,12.4571703 20.4187164,11.8717239 C21.284,11.2458357 22.1425227,10.9172681 23.9259997,10.5457104 L23.9259997,10.5457104 L38.3782516,7.53482458 C41.3519694,6.91530005 44.2648678,8.82375073 44.8843923,11.7974685 C44.9612605,12.166436 45,12.5423274 45,12.9192169 L45,12.9192169 L45,33.9267466 Z M18,37.5 L16.5732534,37.5 C13.1050742,37.5 10.7220969,38.8503538 9.60818222,40.9667917 C8.68966135,42.7119814 8.84784985,44.6893376 9.82925615,45.6707439 C10.8106624,46.6521502 12.7880186,46.8103387 14.5332083,45.8918178 C16.6496462,44.7779031 18,42.3949258 18,38.9267466 L18,37.5 Z M42,32.5 L40.5732534,32.5 C37.1050742,32.5 34.7220969,33.8503538 33.6081822,35.9667917 C32.6896613,37.7119814 32.8478498,39.6893376 33.8292561,40.6707439 C34.8106624,41.6521502 36.7880186,41.8103387 38.5332083,40.8918178 C40.6496462,39.7779031 42,37.3949258 42,33.9267466 L42,32.5 Z M41.947451,12.4093313 C41.665849,11.0576414 40.3418043,10.1901638 38.9901144,10.4717658 L38.9901144,10.4717658 L24.3012499,13.5328201 C23.2392979,13.762289 22.7568664,13.9300944 22.3567086,14.1809399 L22.3567086,14.1809399 L22.176962,14.3024793 C21.7944103,14.5791916 21.5139524,14.9240999 21.3210796,15.3550472 C21.0823962,15.8883515 21,16.3985371 21,17.8335299 L21,17.8335299 L20.9991668,20.1551104 L41.9991668,15.7801104 L42,12.9192169 C42,12.8050079 41.9921738,12.6910006 41.9766038,12.5779931 Z" id="↳-Icon-Color" fill="currentColor" fill-rule="nonzero"></path>
        </g>
    </g>
</svg>
