<svg fill="none" height="56" viewBox="0 0 56 56" width="56" xmlns="http://www.w3.org/2000/svg"><g fill="currentColor"><path clip-rule="evenodd" d="m37.9924 6c-6.6316 0-12.0076 5.376-12.0076 12.0076s5.376 12.0076 12.0076 12.0076 12.0076-5.376 12.0076-12.0076-5.376-12.0076-12.0076-12.0076zm-9.0057 12.0076c0-4.9737 4.032-9.0057 9.0057-9.0057s9.0057 4.032 9.0057 9.0057-4.032 9.0057-9.0057 9.0057-9.0057-4.032-9.0057-9.0057z" fill-rule="evenodd"/><path d="m23.6158 26.4965c.5436-.6259.4768-1.5739-.1491-2.1174s-1.5739-.4768-2.1174.1491l-13.9588 16.0738c-1.95404 2.2501-1.83524 5.6282.27204 7.7355 2.10727 2.1072 5.48536 2.226 7.73546.272l16.0738-13.9588c.6259-.5435.6926-1.4915.1491-2.1174s-1.4915-.6927-2.1174-.1491l-16.0738 13.9588c-1.0601.9206-2.6517.8646-3.6445-.1282-.99282-.9928-1.0488-2.5844-.12817-3.6445z"/></g></svg>
