<svg xmlns="http://www.w3.org/2000/svg" width="56" height="56" fill="currentColor" viewBox="0 0 56 56"><path fill-rule="evenodd" d="M23 31.941c0-4.378 3.51-7.944 7.865-7.944 2.18 0 4.053.951 5.627 2.445 1.562-1.498 3.44-2.445 5.643-2.445 4.355 0 7.865 3.566 7.865 7.944 0 2.335-.612 4.152-2.097 6.017-1.395 1.755-3.578 3.567-6.617 5.981l-.004.004-3.127 2.465a2.73 2.73 0 0 1-3.382 0l-3.127-2.465-.005-.004c-3.041-2.417-5.208-4.23-6.587-5.989C23.587 36.08 23 34.264 23 31.941Zm7.865-4.944c-2.666 0-4.865 2.19-4.865 4.944 0 1.682.38 2.838 1.415 4.158 1.122 1.432 2.992 3.028 6.09 5.49l.003.002 2.956 2.33 2.956-2.33.002-.002c3.101-2.464 4.991-4.062 6.134-5.498C46.61 34.766 47 33.611 47 31.941c0-2.753-2.199-4.944-4.865-4.944-1.566 0-3.048.818-4.46 2.598a1.5 1.5 0 0 1-2.34.012c-1.455-1.796-2.941-2.61-4.47-2.61Z" clip-rule="evenodd"/><path fill-rule="evenodd" d="m17.252 6.536 4.569-1.224c1.84-.493 3.31-.886 4.522-1.107 1.244-.227 2.346-.299 3.439-.067a8.5 8.5 0 0 1 4.55 2.627c.747.83 1.236 1.82 1.662 3.01.414 1.161.808 2.63 1.301 4.47l1.566 5.84a1.5 1.5 0 0 1-2.898.777l-1.549-5.777c-.513-1.918-.877-3.268-1.245-4.3-.363-1.015-.69-1.595-1.067-2.013a5.5 5.5 0 0 0-2.944-1.7c-.55-.117-1.217-.11-2.277.084-1.078.196-2.43.557-4.347 1.07l-4.443 1.19c-1.917.515-3.268.878-4.3 1.246-1.015.363-1.595.69-2.014 1.067a5.5 5.5 0 0 0-1.7 2.943c-.116.551-.11 1.217.084 2.278.197 1.077.557 2.428 1.071 4.345l4.988 18.611c.513 1.918.876 3.268 1.245 4.3.363 1.014.69 1.595 1.067 2.013a5.5 5.5 0 0 0 2.944 1.7c.55.117 1.217.11 2.277-.084 1.078-.196 2.43-.557 4.347-1.07l.977-.262a1.5 1.5 0 0 1 .776 2.897l-1.04.279c-1.84.493-3.31.886-4.522 1.107-1.244.227-2.346.299-3.44.067a8.5 8.5 0 0 1-4.549-2.627c-.747-.83-1.236-1.82-1.662-3.01-.415-1.161-.808-2.63-1.301-4.47L8.317 22.009c-.493-1.84-.886-3.31-1.107-4.522-.227-1.243-.299-2.346-.067-3.438a8.499 8.499 0 0 1 2.627-4.55c.83-.747 1.821-1.236 3.012-1.661 1.16-.415 2.63-.809 4.47-1.302Z" clip-rule="evenodd"/></svg>
