<svg xmlns="http://www.w3.org/2000/svg" width="56" height="56" fill="currentColor" viewBox="0 0 56 56"><path d="M17.038 6h14.931c1.626 0 2.938 0 4 .087 1.093.09 2.054.278 2.942.73a7.5 7.5 0 0 1 3.278 3.278c.68 1.334.782 2.888.81 4.885v.116A1.5 1.5 0 1 1 40 15.13l-.001-.11c-.028-2.054-.16-2.932-.483-3.564a4.5 4.5 0 0 0-1.967-1.966c-.395-.202-.917-.34-1.825-.414C34.8 9 33.61 9 31.905 9H17.102c-1.705 0-2.894.001-3.82.077-.908.074-1.43.212-1.824.414a4.5 4.5 0 0 0-1.967 1.966c-.202.395-.34.917-.414 1.824C9 14.207 9 15.395 9 17.1v20.8c0 1.705.001 2.893.077 3.819.074.907.212 1.429.414 1.824a4.5 4.5 0 0 0 1.967 1.967c.395.2.916.34 1.825.413.925.076 2.114.077 3.819.077h14.803c1.705 0 2.894-.001 3.82-.077.907-.074 1.43-.212 1.824-.413a4.5 4.5 0 0 0 1.967-1.967c.3-.59.44-1.407.477-3.233a1.5 1.5 0 1 1 3 .06c-.037 1.82-.16 3.27-.804 4.535a7.5 7.5 0 0 1-3.278 3.278c-.888.452-1.849.641-2.942.73-1.062.087-2.374.087-4 .087H17.038c-1.626 0-2.938 0-4-.087-1.093-.089-2.054-.278-2.942-.73a7.5 7.5 0 0 1-3.278-3.278c-.453-.888-.642-1.849-.731-2.942C6 40.901 6 39.59 6 37.964V17.036c0-1.626 0-2.937.087-3.999.09-1.093.278-2.054.73-2.942a7.5 7.5 0 0 1 3.279-3.278c.888-.452 1.849-.641 2.942-.73C14.1 6 15.412 6 17.038 6Z"/><path fill-rule="evenodd" d="M49.975 17.854a3.5 3.5 0 0 0-4.95 0L31.318 31.56A4.5 4.5 0 0 0 30 34.743V37.5a1.5 1.5 0 0 0 1.5 1.5h2.757a4.5 4.5 0 0 0 3.182-1.318l13.707-13.707a3.5 3.5 0 0 0 0-4.95l-1.171-1.171Zm-2.829 2.12a.5.5 0 0 1 .708 0l1.171 1.172a.5.5 0 0 1 0 .708L47.5 23.379 45.621 21.5l1.525-1.525ZM43.5 23.622l-10.06 10.06a1.5 1.5 0 0 0-.44 1.06V36h1.257a1.5 1.5 0 0 0 1.061-.44l10.06-10.06-1.878-1.879Z" clip-rule="evenodd"/><path d="M15.5 17a1.5 1.5 0 0 0 0 3h18a1.5 1.5 0 0 0 0-3h-18Zm0 9a1.5 1.5 0 0 0 0 3h10a1.5 1.5 0 0 0 0-3h-10ZM14 36.5a1.5 1.5 0 0 1 1.5-1.5h6a1.5 1.5 0 0 1 0 3h-6a1.5 1.5 0 0 1-1.5-1.5Z"/></svg>
