<svg xmlns="http://www.w3.org/2000/svg" width="56" height="56" viewBox="0 0 56 56" fill="currentColor"><path d="M45 33.927c0 4.551-1.938 7.971-5.07 9.62-2.84 1.495-6.245 1.222-8.222-.755s-2.25-5.382-.755-8.222c1.649-3.132 5.069-5.07 9.62-5.07H42V18.843L21 23.22v15.707c0 4.551-1.938 7.971-5.07 9.62-2.84 1.495-6.245 1.222-8.222-.755s-2.25-5.382-.755-8.222c1.649-3.132 5.069-5.07 9.62-5.07H18l.003-16.979c.015-1.509.15-2.356.502-3.209l.079-.182a5.56 5.56 0 0 1 1.836-2.258c.865-.626 1.723-.955 3.507-1.326l14.452-3.011A5.5 5.5 0 0 1 45 12.919zM18 37.5h-1.427c-3.468 0-5.85 1.35-6.965 3.467-.918 1.745-.76 3.722.221 4.704.982.981 2.959 1.14 4.704.22C16.65 44.779 18 42.396 18 38.928zm24-5h-1.427c-3.468 0-5.85 1.35-6.965 3.467-.918 1.745-.76 3.722.221 4.704.982.981 2.959 1.14 4.704.22C40.65 39.779 42 37.396 42 33.928zm-.053-20.09a2.5 2.5 0 0 0-2.957-1.938l-14.689 3.06c-1.062.23-1.544.398-1.944.649l-.18.122a2.56 2.56 0 0 0-.856 1.052c-.239.533-.321 1.043-.321 2.479v2.321l21-4.375v-2.86q0-.172-.023-.342z"/></svg>