<?xml version="1.0" encoding="UTF-8"?>
<svg width="56px" height="56px" viewBox="0 0 56 56" version="1.1" xmlns="http://www.w3.org/2000/svg" xmlns:xlink="http://www.w3.org/1999/xlink">
    <!-- Generator: Sketch 61.2 (89653) - https://sketch.com -->
    <title>Icons 56/notification_outline_56</title>
    <desc>Created with Sketch.</desc>
    <g id="Icons-56/notification_outline_56" stroke="none" stroke-width="1" fill="none" fill-rule="evenodd">
        <g id="notification_outline_56">
            <rect x="0" y="0" width="56" height="56"></rect>
            <path d="M28.0092056,7 C36.7849135,7 43.5,14.3546378 43.5,23.6616713 L43.4907951,27.3158677 C43.4914196,28.0855619 43.9354655,28.8795736 45.0860051,30.2337299 C45.2228317,30.3947713 45.0813389,30.2307858 45.6302579,30.8658868 C47.6933826,33.2529281 48.5,34.6116039 48.5,36.6764706 C48.5,37.051552 48.4884769,37.3068366 48.4377329,37.6535516 C48.3615396,38.1741531 48.2121622,38.6793216 47.9654779,39.1645455 C47.045801,40.9735345 45.0604421,42 42,42 L36.418,42 L36.3693839,42.1821848 C35.120824,46.6196952 32.2493713,49 28,49 C23.6931877,49 20.8017979,46.5549086 19.5808739,42.0011054 L14,42 C10.8498488,42 8.84651184,40.947392 7.96843473,39.0797576 C7.75039908,38.6160046 7.61971686,38.1358688 7.55374623,37.6382436 C7.50962835,37.3054566 7.5,37.0613876 7.5,36.6764706 C7.5,34.6123617 8.30509896,33.2537468 10.3642473,30.8669198 C10.9121546,30.2318223 10.7709228,30.3958066 10.9074958,30.2347677 C12.0568863,28.8794732 12.5,28.085174 12.5,27.3142415 L12.5,23.6578947 C12.5,14.3581095 19.2306311,7 28.0092056,7 Z M33.2860144,42.000914 L22.7139856,42.000914 C23.6566623,44.753372 25.353158,46 28,46 C30.646842,46 32.3433377,44.753372 33.2860144,42.000914 Z M28.0092056,10 C20.9501237,10 15.5,15.9582239 15.5,23.6578947 L15.5,27.3142415 C15.5,29.0147658 14.7777293,30.309465 13.1954865,32.1751539 C13.1103536,32.2755377 13.0213347,32.3795162 12.913844,32.5043237 C12.7739581,32.666516 12.7739581,32.666516 12.6357527,32.8265787 C11.038651,34.6778321 10.5,35.5868127 10.5,36.6764706 C10.5,37.1969826 10.5399511,37.498339 10.6833441,37.8033302 C11.021228,38.5219956 11.9309721,39 14,39 L42,39 C44.0044689,39 44.9258872,38.5236105 45.2912341,37.8049793 C45.4539899,37.4848413 45.5,37.1704711 45.5,36.6764706 C45.5,35.5875705 44.9603934,34.6786509 43.3605365,32.8276117 C43.2220763,32.6675486 43.2220763,32.6675486 43.0819337,32.5053572 C42.9742462,32.380551 42.8850646,32.2765739 42.7997763,32.1761917 C41.2144636,30.3103184 40.4907944,29.0154961 40.4907944,27.3142415 L40.5,23.6578947 C40.5,15.9536501 35.0640728,10 28.0092056,10 Z" id="↳-Icon-Color" fill="currentColor" fill-rule="nonzero"></path>
        </g>
    </g>
</svg>
