<svg xmlns="http://www.w3.org/2000/svg" width="56" height="56" fill="currentColor" viewBox="0 0 56 56"><path fill-rule="evenodd" d="M41.5 52C47.299 52 52 47.299 52 41.5S47.299 31 41.5 31 31 35.701 31 41.5 35.701 52 41.5 52Zm5.06-15.56a1.5 1.5 0 0 1 0 2.12l-2.939 2.94 2.94 2.94a1.5 1.5 0 0 1-2.122 2.12L41.5 43.622l-2.94 2.94a1.5 1.5 0 0 1-2.12-2.122l2.939-2.939-2.94-2.94a1.5 1.5 0 0 1 2.122-2.12L41.5 39.38l2.94-2.94a1.5 1.5 0 0 1 2.12 0Z M40.165 8h-24.33c-1.765 0-3.181 0-4.326.094-1.177.096-2.199.298-3.14.778a8 8 0 0 0-3.497 3.496c-.48.942-.682 1.964-.778 3.14C4 16.655 4 18.07 4 19.836v16.33c0 1.765 0 3.181.094 4.326.096 1.177.298 2.199.778 3.14a8 8 0 0 0 3.496 3.497c.942.48 1.964.682 3.14.779C12.655 48 14.07 48 15.836 48h11.54a1.5 1.5 0 0 0 0-3H15.9c-1.845 0-3.138-.001-4.147-.084-.991-.08-1.574-.232-2.023-.461a5 5 0 0 1-2.185-2.185c-.229-.449-.38-1.032-.461-2.023C7 39.238 7 37.945 7 36.1V24h42v5.5a1.5 1.5 0 0 0 3 0v-9.665c0-1.765 0-3.181-.093-4.326-.097-1.177-.299-2.199-.779-3.14a8 8 0 0 0-3.496-3.497c-.942-.48-1.964-.682-3.14-.778C43.345 8 41.93 8 40.164 8ZM49 21v-1.1c0-1.845-.001-3.138-.084-4.147-.08-.991-.232-1.574-.461-2.023a5 5 0 0 0-2.185-2.185c-.449-.229-1.032-.38-2.023-.461C43.238 11 41.945 11 40.1 11H15.9c-1.845 0-3.138.001-4.147.084-.991.08-1.574.232-2.023.461a5 5 0 0 0-2.185 2.185c-.229.449-.38 1.032-.461 2.023C7 16.762 7 18.055 7 19.9V21h42Z M12 37.4c0-.84 0-1.26.164-1.581a1.5 1.5 0 0 1 .655-.656c.32-.163.74-.163 1.581-.163h.2c.84 0 1.26 0 1.581.163a1.5 1.5 0 0 1 .655.656c.164.32.164.74.164 1.581v.2c0 .84 0 1.26-.163 1.581a1.5 1.5 0 0 1-.656.656c-.32.163-.74.163-1.581.163h-.2c-.84 0-1.26 0-1.581-.163a1.5 1.5 0 0 1-.655-.656C12 38.861 12 38.441 12 37.6v-.2Z"/></svg>
