<svg fill="none" height="56" viewBox="0 0 56 56" width="56" xmlns="http://www.w3.org/2000/svg"><path clip-rule="evenodd" d="m39.2 11h-22.4c-2.2897 0-3.8266.0023-5.0101.099-1.1485.0939-1.6976.2614-2.05985.446-.94081.4793-1.70572 1.2442-2.18508 2.185-.18457.3623-.3521.9114-.44594 2.0599-.0967 1.1835-.09903 2.7204-.09903 5.0101v.2h42v-.2c0-2.2897-.0023-3.8266-.099-5.0101-.0939-1.1485-.2614-1.6976-.446-2.0599-.4793-.9408-1.2442-1.7057-2.185-2.185-.3623-.1846-.9114-.3521-2.0599-.446-1.1835-.0967-2.7204-.099-5.0101-.099zm-32.2 24.2v-11.2h42v11.2c0 2.2897-.0023 3.8266-.099 5.0101-.0939 1.1485-.2614 1.6976-.446 2.0599-.4793.9408-1.2442 1.7057-2.185 2.185-.3623.1846-.9114.3521-2.0599.446-1.1835.0967-2.7204.099-5.0101.099h-22.4c-2.2897 0-3.8266-.0023-5.0101-.099-1.1485-.0939-1.6976-.2614-2.05985-.446-.94081-.4793-1.70572-1.2442-2.18508-2.185-.18457-.3623-.3521-.9114-.44594-2.0599-.0967-1.1835-.09903-2.7204-.09903-5.0101zm-2.12805-22.8319c-.87195 1.7113-.87195 3.9515-.87195 8.4319v14.4c0 4.4804 0 6.7206.87195 8.4319.76698 1.5053 1.99083 2.7292 3.49613 3.4962 1.71132.8719 3.95152.8719 8.43192.8719h22.4c4.4804 0 6.7206 0 8.4319-.8719 1.5053-.767 2.7292-1.9909 3.4962-3.4962.8719-1.7113.8719-3.9515.8719-8.4319v-14.4c0-4.4804 0-6.7206-.8719-8.4319-.767-1.5053-1.9909-2.72917-3.4962-3.49615-1.7113-.87195-3.9515-.87195-8.4319-.87195h-22.4c-4.4804 0-6.7206 0-8.43192.87195-1.5053.76698-2.72915 1.99085-3.49613 3.49615zm7.29155 23.4509c-.1635.3209-.1635.7409-.1635 1.581v.2c0 .8401 0 1.2601.1635 1.581.1438.2822.3733.5117.6555.6555.3209.1635.7409.1635 1.581.1635h.2c.8401 0 1.2601 0 1.581-.1635.2822-.1438.5117-.3733.6555-.6555.1635-.3209.1635-.7409.1635-1.581v-.2c0-.8401 0-1.2601-.1635-1.581-.1438-.2822-.3733-.5117-.6555-.6555-.3209-.1635-.7409-.1635-1.581-.1635h-.2c-.8401 0-1.2601 0-1.581.1635-.2822.1438-.5117.3733-.6555.6555z" fill="currentColor" fill-rule="evenodd"/></svg>
