<svg fill="none" height="56" viewBox="0 0 56 56" width="56" xmlns="http://www.w3.org/2000/svg"><path clip-rule="evenodd" d="m21.8 4h-.066c-2.1843-.00001-3.9153-.00002-5.3105.11398-1.4268.11657-2.6341.35978-3.7364.92146-1.7875.9108-3.24086 2.36411-4.15166 4.15165-.56168 1.10231-.80489 2.30961-.92146 3.73641-.114 1.3952-.11399 3.1262-.11398 5.3105v.066 19.4.066c-.00001 2.1843-.00002 3.9153.11398 5.3105.11657 1.4268.35978 2.6341.92146 3.7364.9108 1.7875 2.36416 3.2409 4.15166 4.1517 1.1023.5616 2.3096.8049 3.7364.9214 1.3952.114 3.1262.114 5.3105.114h.066 11.4.066c2.1843 0 3.9153 0 5.3105-.114 1.4268-.1165 2.6341-.3598 3.7364-.9214 1.7875-.9108 3.2409-2.3642 4.1517-4.1517.5616-1.1023.8049-2.3096.9214-3.7364.114-1.3952.114-3.1262.114-5.3105v-.066-19.4-.066c0-2.1843 0-3.9153-.114-5.3105-.1165-1.4268-.3598-2.6341-.9214-3.73641-.9108-1.78754-2.3642-3.24085-4.1517-4.15165-1.1023-.56168-2.3096-.80489-3.7364-.92146-1.3952-.114-3.1262-.11399-5.3105-.11398h-.066zm-7.7509 3.70846c.6089-.31027 1.3774-.50303 2.6187-.60445 1.1052-.0903 2.4801-.10221 4.3322-.10377v41.99956c-1.8521-.0016-3.227-.0135-4.3322-.1038-1.2413-.1014-2.0098-.2942-2.6187-.6045-1.2231-.6231-2.2175-1.6175-2.8406-2.8406-.3103-.6089-.5031-1.3774-.6045-2.6187-.1028-1.2587-.104-2.8672-.104-5.1322v-19.4c0-2.265.0012-3.8735.104-5.1322.1014-1.2413.2942-2.0098.6045-2.6187.6231-1.22309 1.6175-2.21746 2.8406-2.84064zm9.9509 41.29154h9.2c2.265 0 3.8735-.0012 5.1322-.104 1.2413-.1014 2.0098-.2942 2.6187-.6045 1.2231-.6231 2.2175-1.6175 2.8406-2.8406.3103-.6089.5031-1.3774.6045-2.6187.1028-1.2587.104-2.8672.104-5.1322v-19.4c0-2.265-.0012-3.8735-.104-5.1322-.1014-1.2413-.2942-2.0098-.6045-2.6187-.6231-1.22309-1.6175-2.21746-2.8406-2.84064-.6089-.31027-1.3774-.50303-2.6187-.60445-1.2587-.10284-2.8672-.10401-5.1322-.10401h-9.2zm13.4-5c-.8401 0-1.2601 0-1.581-.1635-.2822-.1438-.5117-.3733-.6555-.6555-.1635-.3209-.1635-.7409-.1635-1.581v-.2c0-.8401 0-1.2601.1635-1.581.1438-.2822.3733-.5117.6555-.6555.3209-.1635.7409-.1635 1.581-.1635h.2c.8401 0 1.2601 0 1.581.1635.2822.1438.5117.3733.6555.6555.1635.3209.1635.7409.1635 1.581v.2c0 .8401 0 1.2601-.1635 1.581-.1438.2822-.3733.5117-.6555.6555-.3209.1635-.7409.1635-1.581.1635z" fill="currentColor" fill-rule="evenodd"/></svg>
