<svg xmlns="http://www.w3.org/2000/svg" width="56" height="56" fill="none" viewBox="0 0 56 56"><circle cx="28" cy="28" r="28" fill="url(#a)"/><path fill="#fff" d="M30.112 31.259c1.354-1.354 3.486-1.48 4.903-.287l1.024.863c1.17.983 1.288 2.757.264 3.96a3.318 3.318 0 0 1-2.195 1.133c-3.273.44-6.707-1.137-10.303-4.733-3.596-3.596-5.174-7.03-4.733-10.303a3.317 3.317 0 0 1 1.133-2.196c1.204-1.023 2.976-.905 3.96.265l.862 1.024c1.194 1.416 1.07 3.55-.285 4.903l-.735.734a.712.712 0 0 0-.164.75c.267.73.95 1.644 2.046 2.74 1.096 1.097 2.01 1.778 2.74 2.046.26.096.552.031.749-.165l.734-.734Z"/><defs><linearGradient id="a" x1="-28" x2="28" y1="28" y2="84" gradientUnits="userSpaceOnUse"><stop stop-color="#50C750"/><stop offset="1" stop-color="#32B332"/></linearGradient></defs></svg>
