<svg fill="none" height="56" viewBox="0 0 56 56" width="56" xmlns="http://www.w3.org/2000/svg"><path clip-rule="evenodd" d="m6.01384 32.0039c-.09889-1.3186.33399-2.634 1.20942-3.6617 4.84564-6.157 13.40214-7.3497 20.77674-7.3493 7.344.0005 15.9128 1.1694 20.7399 7.3054.8827 1.0303 1.3495 2.355 1.2454 3.7145-.5591 6.696-12.6462 4.1834-12.6464-2.2324l.0013-2.0768c-.0011-1.1254-.6747-2.1459-1.7265-2.6174-2.3321-1.0496-5.0884-1.1249-7.6137-1.125-2.5269-.0001-5.2819.0766-7.617 1.123-1.0533.4734-1.7259 1.4951-1.7252 2.6188l.0001 2.0755c.0003 6.4242-12.08988 8.9308-12.64406 2.2254zm15.64396-4.2077.0001 1.9822c.0003 6.8746-8.9068 11.2329-14.78131 8.2865-2.12308-1.0649-3.62596-3.0726-3.85259-5.8147-.17178-2.0785.53644-4.2067 1.8739-5.801 5.4479-6.8799 14.806-8.4497 23.1021-8.4492 8.2642.0005 17.6322 1.5454 23.0629 8.4022 1.3391 1.5885 2.0802 3.6637 1.9137 5.8389-.1891 2.4617-1.6422 4.7195-3.8599 5.8282-5.8729 2.9361-14.7776-1.4176-14.7778-8.2887l.0012-1.9819c-1.9379-.849-4.2506-.8367-6.3401-.8368-2.0912-.0001-4.4005-.0096-6.3422.8343z" fill="currentColor" fill-rule="evenodd"/></svg>
