<svg xmlns="http://www.w3.org/2000/svg" width="56" height="56" fill="none" viewBox="0 0 56 56">
  <circle cx="28" cy="28" r="28" fill="url(#a)"/>
  <path fill="#fff" d="M36 18a1 1 0 1 0-2 0v2h-2a1 1 0 1 0 0 2h2v2a1 1 0 1 0 2 0v-2h2a1 1 0 1 0 0-2h-2v-2Z"/>
  <path fill="#fff" fill-rule="evenodd" d="M28.657 29.89a12.19 12.19 0 0 1-1.35-1.192c-.523-.524-.92-.981-1.146-1.395 2.08-2.08 2.272-5.387.4-7.607l-.86-1.023c-1.706-2.03-4.747-2.232-6.784-.5a5.33 5.33 0 0 0-1.572 2.322c-.134.397-.22.805-.257 1.219-.526 3.892 1.314 7.898 5.31 11.895 3.995 3.998 7.999 5.837 11.98 5.3 1.285-.12 2.545-.771 3.44-1.807 1.743-2.047 1.54-5.09-.488-6.798l-1.024-.862c-2.223-1.87-5.526-1.676-7.649.447Zm.725 2.103.734-.734c1.354-1.354 3.485-1.48 4.902-.287l1.024.863c1.169.983 1.288 2.757.264 3.96a3.317 3.317 0 0 1-2.195 1.133c-3.272.44-6.705-1.136-10.3-4.733-3.595-3.596-5.172-7.03-4.732-10.303.023-.256.077-.508.159-.752a3.32 3.32 0 0 1 .974-1.444c1.204-1.023 2.976-.905 3.959.265l.861 1.024c1.194 1.416 1.07 3.55-.284 4.903l-.735.734a.712.712 0 0 0-.164.75c.267.73.95 1.644 2.045 2.74 1.096 1.097 2.01 1.778 2.74 2.047.26.095.552.03.748-.166Z" clip-rule="evenodd"/>
  <defs>
    <linearGradient id="a" x1="0" x2="57.466" y1="0" y2="1.547" gradientUnits="userSpaceOnUse">
      <stop stop-color="#70B2FF"/>
      <stop offset="1" stop-color="#5C9CE6"/>
    </linearGradient>
  </defs>
</svg>
