<svg xmlns="http://www.w3.org/2000/svg" width="56" height="56" fill="currentColor" viewBox="0 0 56 56"><path d="M23.5 12.999a2.5 2.5 0 1 0 0-5 2.5 2.5 0 0 0 0 5Z"/><path fill-rule="evenodd" d="m31.899 10.954.807-3.393c.363-1.522 2.254-2.057 3.36-.95L49.39 19.932c1.107 1.107.572 2.998-.95 3.36l-3.393.808a2 2 0 0 0-.95.531l-6.156 6.156a2 2 0 0 0-.578 1.241l-.887 10.193c-.184 2.116-2.756 3.053-4.258 1.551l-8.934-8.934-11.63 11.63a1.5 1.5 0 1 1-2.122-2.122l11.63-11.63-8.934-8.934c-1.502-1.502-.565-4.074 1.551-4.258l10.193-.887a2 2 0 0 0 1.24-.578l6.157-6.155a2 2 0 0 0 .53-.951Zm3.311-.957-.393 1.651a5 5 0 0 1-1.328 2.378l-6.156 6.155a5 5 0 0 1-3.102 1.446l-9.124.794 18.472 18.472.794-9.124a5 5 0 0 1 1.445-3.102l6.156-6.156a5 5 0 0 1 2.378-1.328l1.65-.394L35.21 9.997Z" clip-rule="evenodd"/></svg>
