<svg xmlns="http://www.w3.org/2000/svg" width="56" height="56" fill="currentColor" viewBox="0 0 56 56"><path fill-rule="evenodd" d="m21.161 32.714-8.934-8.934c-1.502-1.502-.565-4.075 1.551-4.259l10.193-.886a2 2 0 0 0 1.24-.578l6.157-6.156a2 2 0 0 0 .53-.95l.808-3.393c.363-1.522 2.254-2.057 3.36-.95L49.39 19.93c1.107 1.107.572 2.998-.95 3.36l-3.393.808a2 2 0 0 0-.95.531l-6.156 6.156a2 2 0 0 0-.578 1.24l-.887 10.194c-.184 2.116-2.756 3.053-4.258 1.55l-8.934-8.933-11.63 11.63a1.5 1.5 0 0 1-2.122-2.122l11.63-11.63Zm13.656-21.069.393-1.651 10.793 10.792-1.651.393a5 5 0 0 0-2.378 1.329l-6.156 6.155a5 5 0 0 0-1.445 3.103l-.794 9.124-18.472-18.473 9.124-.793a5 5 0 0 0 3.102-1.446l6.156-6.155a5 5 0 0 0 1.328-2.378Z" clip-rule="evenodd"/></svg>
