<?xml version="1.0" encoding="UTF-8"?>
<svg width="56px" height="56px" viewBox="0 0 56 56" version="1.1" xmlns="http://www.w3.org/2000/svg" xmlns:xlink="http://www.w3.org/1999/xlink">
    <!-- Generator: Sketch 61.2 (89653) - https://sketch.com -->
    <title>Icons 56/playlist_outline_56</title>
    <desc>Created with Sketch.</desc>
    <g id="Icons-56/playlist_outline_56" stroke="none" stroke-width="1" fill="none" fill-rule="evenodd">
        <g id="playlist_outline_28">
            <polygon id="playlist_outline_56" points="0 0 56 0 56 56 0 56"></polygon>
            <path d="M39.0000001,38.9269134 C39.0000001,43.4785935 37.0620322,46.8985369 33.9304477,48.5467393 C31.089893,50.0417681 27.6850886,49.7693837 25.7079359,47.792231 C23.6689829,45.753278 23.4132633,42.2830816 25.13375,39.4830557 C26.996282,36.4518567 30.7693428,34.615107 35.9995978,34.5053787 L36,17.0553548 L36.0085243,16.7519324 C36.150069,13.4442357 37.8755275,11.1276445 41.0256584,10.0776009 C42.1126233,9.71527922 44.265341,9.16460593 47.5215771,8.41347948 L47.5215771,8.41347948 L49.1694754,8.03749441 C50.107614,7.82556683 51,8.5388476 51,9.50062581 L51,9.50062581 L51,13.7055787 C51,16.7410183 48.9592877,19.3972332 46.0263399,20.1793526 L46.0263399,20.1793526 L39,22.0530433 Z M36.0000001,37.5059677 L35.6070962,37.5189755 C31.5907489,37.6914248 28.9285787,39.0375351 27.6897863,41.053622 C26.6695421,42.71403 26.8125112,44.6541656 27.8292562,45.6709107 C28.8106625,46.652317 30.7880187,46.8105055 32.5332084,45.8919846 C34.6496463,44.7780699 36.0000001,42.3950926 36.0000001,38.9269134 L36.0000001,38.9269134 L36.0000001,37.5059677 Z M27.5,22 C28.3284271,22 29,22.6715729 29,23.5 C29,24.3284271 28.3284271,25 27.5,25 L8.5,25 C7.67157288,25 7,24.3284271 7,23.5 C7,22.6715729 7.67157288,22 8.5,22 L27.5,22 Z M48,11.3820295 C44.9473018,12.088459 42.9270286,12.6060884 41.9743416,12.9236508 L41.9743416,12.9236508 L41.7559676,13.0004516 C39.8300799,13.7147021 38.9680231,15.0549754 39,17.3341557 L39,17.3341557 L39,18.9482083 L45.2533519,17.2806478 C46.8730395,16.8487311 48,15.3818662 48,13.7055787 L48,13.7055787 Z M30.5,10 C31.3284271,10 32,10.6715729 32,11.5 C32,12.3284271 31.3284271,13 30.5,13 L8.5,13 C7.67157288,13 7,12.3284271 7,11.5 C7,10.6715729 7.67157288,10 8.5,10 L30.5,10 Z" id="↳-Icon-Color" fill="currentColor" fill-rule="nonzero"></path>
        </g>
    </g>
</svg>
