<svg xmlns="http://www.w3.org/2000/svg" width="56" height="56" fill="currentColor" viewBox="0 0 56 56"><path d="M8 24C8 12.954 16.954 4 28 4s20 8.954 20 20v1a3 3 0 0 1 3 3v6a3 3 0 1 1-6 0V24c0-9.389-7.611-17-17-17s-17 7.611-17 17v10a3 3 0 1 1-6 0v-6a3 3 0 0 1 3-3v-1Z"/><path fill-rule="evenodd" d="M29.5 46.907C35.42 46.17 40 41.12 40 35V24c0-6.627-5.373-12-12-12s-12 5.373-12 12v11c0 6.12 4.58 11.169 10.5 11.907V50.5a1.5 1.5 0 0 0 3 0v-3.593ZM37 32v-5h-2.5a1.5 1.5 0 0 1 0-3H37a9 9 0 1 0-18 0h8.5a1.5 1.5 0 0 1 0 3H19v5h8.5a1.5 1.5 0 0 1 0 3H19a9 9 0 1 0 18 0h-2.5a1.5 1.5 0 0 1 0-3H37Z" clip-rule="evenodd"/></svg>
