<svg xmlns="http://www.w3.org/2000/svg" width="56" height="56" fill="currentColor" viewBox="0 0 56 56"><path d="M28 16a1.5 1.5 0 0 0-1.5 1.5v21a1.5 1.5 0 0 0 3 0v-21A1.5 1.5 0 0 0 28 16Zm-8.5 8a1.5 1.5 0 0 0-1.5 1.5v13a1.5 1.5 0 0 0 3 0v-13a1.5 1.5 0 0 0-1.5-1.5ZM35 29.5a1.5 1.5 0 0 1 3 0v9a1.5 1.5 0 0 1-3 0v-9Z"/><path fill-rule="evenodd" d="m20.32 6 15.782.001c2.778.018 5.487.23 7.99 1.512a10.586 10.586 0 0 1 4.395 4.395c1.392 2.603 1.494 5.524 1.513 8.411v15.362c-.019 2.887-.121 5.809-1.513 8.41a10.586 10.586 0 0 1-4.395 4.396C41.49 49.88 38.568 49.981 35.68 50H20.319c-2.887-.019-5.808-.121-8.41-1.513a10.586 10.586 0 0 1-4.396-4.395C6.12 41.49 6.018 38.568 6 35.68l.001-15.783c.024-3.728.373-5.68 1.297-7.57 1.045-2.04 2.573-3.725 4.61-4.815C14.511 6.12 17.432 6.018 20.32 6ZM9 21v14.68c.013 2.365.013 4.855 1.158 6.997a7.586 7.586 0 0 0 3.165 3.165c2.117 1.132 4.545 1.145 6.89 1.157h15.574c2.345-.012 4.773-.025 6.89-1.157a7.586 7.586 0 0 0 3.165-3.165c1.145-2.142 1.145-4.632 1.158-6.996V21c-.044-2.595.103-5.317-1.158-7.677a7.586 7.586 0 0 0-3.165-3.165C41.072 9.3 39.518 9 35.68 9H20.319c-2.377.013-4.847.01-6.996 1.158a7.586 7.586 0 0 0-3.165 3.165C8.897 15.683 9.044 18.405 9 21Z" clip-rule="evenodd"/></svg>
