<svg xmlns="http://www.w3.org/2000/svg" width="56" height="56" fill="currentColor" viewBox="0 0 56 56"><path fill-rule="evenodd" d="M29 8.995a1.996 1.996 0 0 0-1.998-2 2 2 0 0 0-1.998 2v18.507a1.5 1.5 0 0 1-3 0v-14.5a2 2 0 0 0-4.002 0v15.501a1.5 1.5 0 0 1-3 0V20A2 2 0 0 0 11 20v15c0 3.93 1.27 7.42 3.597 9.914C16.911 47.391 20.373 49 25.004 49c5.564 0 9.344-2.19 11.747-4.362a17.139 17.139 0 0 0 2.628-3c.278-.407.478-.74.606-.967a7.89 7.89 0 0 0 .169-.315l.03-.06 6.583-12.384a1.979 1.979 0 0 0-3.314-2.14l-5.383 6.952c-.63.814-.946 1.221-1.223 1.268a.72.72 0 0 1-.65-.222c-.19-.207-.19-.722-.19-1.751V14.5c0-1.105-.902-2-2.007-2a1.995 1.995 0 0 0-1.994 2L32 27.502a1.5 1.5 0 1 1-3 0V8.995Zm3 1.007.006-1.007a5 5 0 0 0-5.008-5C24.429 4 22.28 5.906 22 8.4c-.62-.276-1.273-.398-1.997-.398a5 5 0 0 0-5.001 5V15.4a4.976 4.976 0 0 0-2-.4A5 5 0 0 0 8 20v15c0 4.57 1.48 8.83 4.405 11.961C15.344 50.109 19.633 52 25.005 52c6.438 0 10.91-2.56 13.76-5.138a20.131 20.131 0 0 0 3.09-3.53c.332-.485.578-.893.743-1.187a10.672 10.672 0 0 0 .242-.453l.006-.011 6.57-12.361a4.981 4.981 0 0 0-8.336-5.385l-2.072 2.677V14.5c0-2.761-2.246-5-5.008-5-.711 0-1.387.234-2 .502Z" clip-rule="evenodd"/></svg>
