<svg xmlns="http://www.w3.org/2000/svg" width="56" height="56" fill="none" viewBox="0 0 56 56"><path fill="currentColor" d="M37.7445 6c3.566 0 4.8592.3713 6.1629 1.0685 1.3037.6973 2.3268 1.7204 3.0241 3.0241C47.6287 11.3963 48 12.6895 48 16.2555v23.489c0 3.566-.3713 4.8592-1.0685 6.1629-.6973 1.3037-1.7204 2.3268-3.0241 3.0241C42.6037 49.6287 41.3105 50 37.7445 50H33.5c-.8284 0-1.5-.6716-1.5-1.5s.6716-1.5 1.5-1.5h4.2445c2.7983 0 3.7605-.1858 4.7481-.714.7809-.4176 1.3758-1.0125 1.7934-1.7934.5282-.9876.714-1.9498.714-4.7481v-23.489c0-2.7983-.1858-3.7605-.714-4.7481-.4176-.7809-1.0125-1.3758-1.7934-1.7934-.9496-.5079-1.8757-.6992-4.4333-.7132L18.2555 9c-2.7983 0-3.7605.1858-4.7481.714-.7809.4176-1.3758 1.0125-1.7934 1.7934-.5079.9496-.6992 1.8757-.7132 4.4333l-.0003 8.5591c0 .8285-.6717 1.5002-1.5002 1.5002C8.6717 26 8 25.3283 8 24.4997v-8.2442c0-3.566.3713-4.8592 1.0685-6.1629.6973-1.3037 1.7204-2.3268 3.0241-3.024C13.3963 6.3712 14.6895 6 18.2555 6h19.489Z"/><path fill="currentColor" d="M19.4884 25.8664c-.1629.0872-.3246.1336-.7703.1336h-1.4362c-.4457 0-.6074-.0464-.7703-.1336a.9076.9076 0 0 1-.378-.378c-.0872-.1629-.1336-.3246-.1336-.7703v-1.4362c0-.4457.0464-.6074.1336-.7703a.9076.9076 0 0 1 .378-.378c.1629-.0872.3246-.1336.7703-.1336h1.4362c.4457 0 .6074.0464.7703.1336a.9076.9076 0 0 1 .378.378c.0872.1629.1336.3246.1336.7703v1.4362c0 .4457-.0464.6074-.1336.7703a.9076.9076 0 0 1-.378.378ZM38.7181 38c.4457 0 .6074.0464.7703.1336a.9076.9076 0 0 1 .378.378c.0872.1629.1336.3246.1336.7703v1.4362c0 .4457-.0464.6074-.1336.7703a.9076.9076 0 0 1-.378.378c-.1629.0872-.3246.1336-.7703.1336h-1.4362c-.4457 0-.6074-.0464-.7703-.1336a.9076.9076 0 0 1-.378-.378c-.0872-.1629-.1336-.3246-.1336-.7703v-1.4362c0-.4457.0464-.6074.1336-.7703a.9076.9076 0 0 1 .378-.378c.1629-.0872.3246-.1336.7703-.1336h1.4362Zm0-8c.4457 0 .6074.0464.7703.1336a.9076.9076 0 0 1 .378.378c.0872.1629.1336.3246.1336.7703v1.4362c0 .4457-.0464.6074-.1336.7703a.9076.9076 0 0 1-.378.378c-.1629.0872-.3246.1336-.7703.1336h-1.4362c-.4457 0-.6074-.0464-.7703-.1336a.9076.9076 0 0 1-.378-.378c-.0872-.1629-.1336-.3246-.1336-.7703v-1.4362c0-.4457.0464-.6074.1336-.7703a.9076.9076 0 0 1 .378-.378c.1629-.0872.3246-.1336.7703-.1336h1.4362Zm0-8c.4457 0 .6074.0464.7703.1336a.9076.9076 0 0 1 .378.378c.0872.1629.1336.3246.1336.7703v1.4362c0 .4457-.0464.6074-.1336.7703a.9076.9076 0 0 1-.378.378c-.1629.0872-.3246.1336-.7703.1336h-1.4362c-.4457 0-.6074-.0464-.7703-.1336a.9076.9076 0 0 1-.378-.378c-.0872-.1629-.1336-.3246-.1336-.7703v-1.4362c0-.4457.0464-.6074.1336-.7703a.9076.9076 0 0 1 .378-.378c.1629-.0872.3246-.1336.7703-.1336h1.4362Zm-20-8c.4457 0 .6074.0464.7703.1336a.9076.9076 0 0 1 .378.378c.0872.1629.1336.3246.1336.7703v1.4362c0 .4457-.0464.6074-.1336.7703a.9076.9076 0 0 1-.378.378c-.1629.0872-.3246.1336-.7703.1336h-1.4362c-.4457 0-.6074-.0464-.7703-.1336a.9076.9076 0 0 1-.378-.378c-.0872-.1629-.1336-.3246-.1336-.7703v-1.4362c0-.4457.0464-.6074.1336-.7703a.9076.9076 0 0 1 .378-.378c.1629-.0872.3246-.1336.7703-.1336h1.4362Zm20 0c.4457 0 .6074.0464.7703.1336a.9076.9076 0 0 1 .378.378c.0872.1629.1336.3246.1336.7703v1.4362c0 .4457-.0464.6074-.1336.7703a.9076.9076 0 0 1-.378.378c-.1629.0872-.3246.1336-.7703.1336h-1.4362c-.4457 0-.6074-.0464-.7703-.1336a.9076.9076 0 0 1-.378-.378c-.0872-.1629-.1336-.3246-.1336-.7703v-1.4362c0-.4457.0464-.6074.1336-.7703a.9076.9076 0 0 1 .378-.378c.1629-.0872.3246-.1336.7703-.1336h1.4362ZM11 33c-.4581 0-.9106.0219-1.3566.0648-.8247.0792-1.5574-.5251-1.6365-1.3498-.0792-.8246.525-1.5573 1.3497-1.6365A17.1793 17.1793 0 0 1 11 30c9.3888 0 17 7.6112 17 17 0 .554-.0266 1.1022-.0785 1.6434-.0792.8246-.8119 1.4289-1.6365 1.3497-.8247-.0792-1.429-.8118-1.3498-1.6365C24.978 47.9106 25 47.4581 25 47c0-7.732-6.268-14-14-14Z"/><path fill="currentColor" d="M9.763 40.1087A7.0529 7.0529 0 0 1 11 40c3.866 0 7 3.134 7 7 0 .4233-.0374.8365-.1087 1.2371-.1452.8156.3982 1.5945 1.2138 1.7397s1.5945-.3983 1.7398-1.2139C20.9469 48.1896 21 47.6004 21 47c0-5.5228-4.4771-10-10-10a10.051 10.051 0 0 0-1.763.1552c-.8155.1452-1.359.9241-1.2138 1.7397.1453.8156.9242 1.359 1.7398 1.2138Z"/><path fill="currentColor" d="M11 50c1.6569 0 3-1.3431 3-3s-1.3431-3-3-3-3 1.3431-3 3 1.3431 3 3 3Z"/></svg>
