<svg xmlns="http://www.w3.org/2000/svg" width="56" height="56" fill="currentColor" viewBox="0 0 56 56"><path fill-rule="evenodd" d="M28.5 9c-6.873 0-12.854 3.031-16.311 7.523a1.5 1.5 0 1 1-2.378-1.83C13.878 9.411 20.765 6 28.5 6c7.688 0 14.537 3.369 18.613 8.596a1.5 1.5 0 1 1-2.366 1.845C41.28 11.994 35.331 9 28.5 9ZM14.558 37.421a1.5 1.5 0 0 1 .999 1.871c-.037.124-.077.248-.118.374-.572 1.753-1.497 3.774-2.75 6.05 4.196-1.103 7.3-2.392 9.398-3.823a1.5 1.5 0 0 1 1.19-.22c1.66.393 3.412.603 5.223.603 5.003 0 9.542-1.607 12.975-4.222a1.5 1.5 0 0 1 1.817 2.386c-3.969 3.024-9.15 4.837-14.792 4.837a25.72 25.72 0 0 1-5.276-.543c-2.682 1.688-6.377 3.07-10.997 4.192a2.482 2.482 0 0 1-2.865-3.387c.011-.027.023-.053.036-.08l.051-.102a1.54 1.54 0 0 1 .039-.071l.24-.423.002-.002c1.377-2.437 2.319-4.474 2.857-6.126l.1-.315a1.5 1.5 0 0 1 1.87-.999Zm-8.711-3.753.58-2.716H5.083C4.42 30.952 4 30.57 4 29.993c0-.726.515-1.2 1.342-1.2h1.546l.58-2.736H6.06c-.665 0-1.084-.384-1.084-.96 0-.726.515-1.21 1.342-1.21h1.6l.622-2.827c.15-.707.57-1.06 1.289-1.06.665 0 1.073.363 1.073.949 0 .11-.021.272-.043.393l-.547 2.544h2.813l.612-2.816c.15-.717.58-1.07 1.288-1.07.677 0 1.074.363 1.074.949 0 .11-.011.272-.043.393l-.548 2.544h1.396c.676 0 1.095.384 1.095.96 0 .726-.515 1.2-1.342 1.2h-1.61l-.58 2.726h1.45c.665 0 1.084.394 1.084.969 0 .727-.516 1.211-1.342 1.211h-1.643l-.644 2.988c-.15.707-.58 1.06-1.289 1.06-.676 0-1.073-.363-1.073-.949 0-.11.01-.272.043-.383l.58-2.716H8.81l-.644 2.998c-.15.707-.57 1.05-1.289 1.05-.665 0-1.073-.363-1.073-.949 0-.11.021-.272.043-.383Zm3.886-7.803-.666 3.099h3.125l.676-3.1H9.733Z" clip-rule="evenodd"/><path d="M24.765 35c.476 0 .763-.181 1.1-.695l4.27-6.523 3.932-5.95c.169-.262.277-.513.277-.785 0-.614-.475-1.047-1.09-1.047-.574 0-.851.211-1.188.725l-4.101 6.292-4.082 6.14c-.168.252-.267.474-.267.826 0 .634.564 1.017 1.149 1.017Z"/><path fill-rule="evenodd" d="M23.477 28.094c2.11 0 3.467-1.53 3.467-4.067 0-2.567-1.367-4.017-3.467-4.017-2.11 0-3.477 1.46-3.477 4.017 0 2.547 1.357 4.067 3.477 4.067Zm0-1.893c-.584 0-.98-.634-.98-2.164 0-1.55.396-2.134.98-2.134.575 0 .971.584.971 2.124s-.396 2.174-.97 2.174ZM34.533 35C36.653 35 38 33.46 38 30.933c0-2.567-1.367-4.017-3.467-4.017s-3.468 1.46-3.468 4.017c0 2.547 1.348 4.067 3.468 4.067Zm0-1.903c-.585 0-.971-.624-.971-2.164 0-1.55.386-2.134.97-2.134.585 0 .972.584.972 2.134 0 1.54-.387 2.164-.971 2.164Zm16.361 1.853c.648 0 1.106-.504 1.106-1.1 0-.342-.086-.584-.439-.967l-.887-.978c.754-1.078 1.164-2.6 1.164-4.294 0-.776-.41-1.32-1.145-1.32-.734 0-1.125.493-1.145 1.31-.009 1.16-.21 1.915-.524 2.49l-2.614-2.984c1.908-1.099 2.786-2.288 2.786-3.78 0-1.956-1.584-3.327-3.835-3.327-2.242 0-3.901 1.431-3.901 3.377 0 1.069.467 1.976 1.707 3.327a77.049 77.049 0 0 1-.62.353C40.792 28.075 40 29.273 40 30.927 40 33.397 41.88 35 44.798 35c1.67 0 3.243-.544 4.264-1.472l.782.887c.363.404.62.535 1.05.535Zm-5.772-9.214c-.934-.958-1.278-1.532-1.278-2.208 0-.907.64-1.572 1.526-1.572.897 0 1.508.645 1.508 1.572 0 .877-.506 1.522-1.756 2.208Zm-.038 7.127c-1.478 0-2.48-.867-2.48-2.167 0-.898.42-1.543 1.46-2.238.085-.05.276-.162.381-.212l3.157 3.609c-.534.615-1.526 1.008-2.518 1.008Z" clip-rule="evenodd"/></svg>
