<svg xmlns="http://www.w3.org/2000/svg" width="56" height="56" fill="currentColor" viewBox="0 0 56 56"><path d="M7.5 37A1.5 1.5 0 0 1 9 38.5v2.95c0 2.008.145 2.757.558 3.528a3.5 3.5 0 0 0 1.463 1.464c.772.413 1.521.558 3.53.558H17.5a1.5 1.5 0 0 1 0 3h-2.95c-2.46 0-3.678-.235-4.944-.912a6.497 6.497 0 0 1-2.694-2.694C6.235 45.128 6 43.91 6 41.449V38.5A1.5 1.5 0 0 1 7.5 37Zm41 0a1.5 1.5 0 0 1 1.5 1.5v2.95c0 2.46-.235 3.678-.912 4.944a6.498 6.498 0 0 1-2.694 2.694c-1.266.677-2.483.912-4.945.912H38.5a1.5 1.5 0 0 1 0-3h2.95c2.008 0 2.757-.145 3.528-.558a3.5 3.5 0 0 0 1.464-1.464c.413-.771.558-1.52.558-3.529V38.5a1.5 1.5 0 0 1 1.5-1.5Zm-8-7a1.5 1.5 0 0 1 1.5 1.5V36a6 6 0 0 1-5.691 5.992L36 42H20a6 6 0 0 1-6-6v-4.5a1.5 1.5 0 0 1 3 0V36a3 3 0 0 0 3 3h16a3 3 0 0 0 3-3v-4.5a1.5 1.5 0 0 1 1.5-1.5Zm-4.191-15.992A6 6 0 0 1 42 20v3h3.5a1.5 1.5 0 0 1 0 3h-35a1.5 1.5 0 0 1 0-3H14v-3a6 6 0 0 1 6-6h16l.309.008ZM20 17a3 3 0 0 0-3 3v3h22v-3a3 3 0 0 0-3-3H20ZM17.5 6a1.5 1.5 0 0 1 0 3h-2.95c-2.008 0-2.757.145-3.529.558a3.499 3.499 0 0 0-1.463 1.463c-.413.772-.558 1.521-.558 3.53V17.5a1.5 1.5 0 0 1-3 0v-2.95c0-2.46.235-3.678.912-4.944a6.497 6.497 0 0 1 2.694-2.694C10.872 6.235 12.09 6 14.551 6H17.5Zm23.95 0c2.46 0 3.678.235 4.944.912a6.497 6.497 0 0 1 2.694 2.694c.677 1.266.912 2.483.912 4.945V17.5a1.5 1.5 0 0 1-3 0v-2.95c0-2.008-.145-2.757-.558-3.529a3.499 3.499 0 0 0-1.464-1.463C44.207 9.145 43.458 9 41.45 9H38.5a1.5 1.5 0 0 1 0-3h2.95Z"/></svg>