<svg fill="none" height="56" viewBox="0 0 56 56" width="56" xmlns="http://www.w3.org/2000/svg"><path clip-rule="evenodd" d="m25.1206 12.647c1.573-1.6313 4.1858-1.6313 5.7588 0l9.5408 9.8942c.2827.2932.6725.4588 1.0798.4588h7.5v.1 13.8c0 1.7049-.0012 2.8934-.0768 3.8186-.0741.9078-.2124 1.4293-.4137 1.8244-.4314.8467-1.1198 1.5351-1.9665 1.9665-.3951.2013-.9166.3396-1.8244.4137-.9252.0756-2.1137.0768-3.8186.0768h-5.9v-8c0-3.866-3.134-7-7-7s-7 3.134-7 7v8h-5.9c-1.7049 0-2.8934-.0012-3.8186-.0768-.9078-.0741-1.42932-.2124-1.82436-.4137-.84673-.4314-1.53514-1.1198-1.96657-1.9665-.20128-.3951-.33954-.9166-.41371-1.8244-.07559-.9252-.07676-2.1137-.07676-3.8186v-13.8-.1h7.5c.4073 0 .7971-.1656 1.0798-.4588zm-1.1206 32.353h8v-8c0-2.2091-1.7909-4-4-4s-4 1.7909-4 4zm-3 3h-5.9-.0642c-1.6257 0-2.9369 0-3.9987-.0867-1.09331-.0894-2.05359-.2781-2.94203-.7308-1.41121-.719-2.55857-1.8664-3.27762-3.2776-.45268-.8884-.6414-1.8487-.73072-2.942-.08676-1.0618-.08674-2.373-.08673-3.9987v-.0642-13.8-.0642c-.00001-1.6257-.00003-2.9369.08673-3.9987.08932-1.0933.27804-2.0536.73072-2.942.71905-1.4112 1.86641-2.5586 3.27762-3.2776.88844-.4527 1.84872-.6414 2.94203-.7308 1.0618-.0867 2.373-.0867 3.9987-.0867h.0642 6.4769l1.3842-1.4354c2.7528-2.85476 7.325-2.85476 10.0778 0l1.3842 1.4354h6.4769.0642c1.6257 0 2.9369 0 3.9987.0867 1.0933.0894 2.0536.2781 2.942.7308 1.4112.719 2.5586 1.8664 3.2776 3.2776.4527.8884.6414 1.8487.7308 2.942.0867 1.0618.0867 2.373.0867 3.9987v.0642 13.8.0642c0 1.6257 0 2.9369-.0867 3.9987-.0894 1.0933-.2781 2.0536-.7308 2.942-.719 1.4112-1.8664 2.5586-3.2776 3.2776-.8884.4527-1.8487.6414-2.942.7308-1.0618.0867-2.373.0867-3.9987.0867h-.0642-5.9-3-8zm27.9232-28.7186c.0183.223.0322.4614.0428.7186h-6.8286l-4.8215-5h3.5841c1.7049 0 2.8934.0012 3.8186.0768.9078.0741 1.4293.2124 1.8244.4137.8467.4314 1.5351 1.1198 1.9665 1.9665.2013.3951.3396.9166.4137 1.8244zm-33.8232-4.2814h3.5841l-4.8215 5h-6.82856c.0106-.2572.0245-.4956.04272-.7186.07417-.9078.21243-1.4293.41371-1.8244.43143-.8467 1.11984-1.5351 1.96657-1.9665.39504-.2013.91656-.3396 1.82436-.4137.9252-.0756 2.1137-.0768 3.8186-.0768zm12.9 3c-1.6569 0-3 1.3431-3 3s1.3431 3 3 3 3-1.3431 3-3-1.3431-3-3-3z" fill="currentColor" fill-rule="evenodd"/></svg>

