<svg xmlns="http://www.w3.org/2000/svg" width="56" height="56" fill="currentColor" viewBox="0 0 56 56"><path d="M9 39a3 3 0 1 1 0 6 3 3 0 0 1 0-6Zm-1.636-6.994c6.657-.605 12.235 4.972 11.63 11.63a1.5 1.5 0 0 1-2.988-.272c.435-4.791-3.579-8.805-8.37-8.37a1.5 1.5 0 0 1-.272-2.988ZM37.2 11c4.48 0 6.72 0 8.431.872a8 8 0 0 1 3.497 3.496C49.999 17.08 50 19.32 50 23.8v8.4c0 4.48 0 6.72-.872 8.432a8 8 0 0 1-3.496 3.496C43.92 45 41.68 45 37.2 45h-5.7a1.5 1.5 0 0 1 0-3h5.7c2.289 0 3.826-.002 5.01-.099 1.148-.093 1.698-.261 2.06-.446a5 5 0 0 0 2.185-2.184c.184-.363.352-.913.446-2.061.097-1.184.099-2.72.099-5.01v-8.4c0-2.29-.002-3.826-.099-5.01-.094-1.148-.262-1.697-.446-2.06a5.002 5.002 0 0 0-2.185-2.185c-.362-.185-.912-.353-2.06-.446-1.184-.097-2.721-.099-5.01-.099H18.787c-2.29 0-3.827.002-5.01.099-1.148.093-1.697.261-2.06.446a5.003 5.003 0 0 0-2.185 2.185c-.185.363-.353.912-.446 2.06-.02.23-.033.473-.045.732C9.002 20.34 8.34 21 7.52 21c-.837 0-1.517-.685-1.48-1.52.08-1.827.286-3.068.818-4.112a8 8 0 0 1 3.496-3.496C12.066 11 14.307 11 18.787 11H37.2ZM7.417 25.002c10.493-.583 19.163 8.087 18.58 18.581a1.5 1.5 0 0 1-2.995-.166c.483-8.708-6.711-15.903-15.42-15.419a1.501 1.501 0 0 1-.165-2.996Z"/></svg>
