<svg xmlns="http://www.w3.org/2000/svg" width="56" height="56" viewBox="0 0 56 56" fill="currentColor"><path d="m13.91 30 4.528.002c2.03.022 3.1.249 4.212.843a6.04 6.04 0 0 1 2.505 2.505c.627 1.173.845 2.301.845 4.56v4.18c0 2.259-.218 3.386-.845 4.56a6.04 6.04 0 0 1-2.506 2.505c-1.172.627-2.3.845-4.559.845h-4.18c-2.259 0-3.386-.218-4.56-.845a6.04 6.04 0 0 1-2.505-2.505C6.218 45.477 6 44.349 6 42.09l.002-4.528c.022-2.03.249-3.1.843-4.212a6.04 6.04 0 0 1 2.505-2.505c1.174-.627 2.301-.845 4.56-.845m24 0 4.528.002c2.03.022 3.1.249 4.212.843a6.04 6.04 0 0 1 2.505 2.505c.627 1.173.845 2.301.845 4.56v4.18c0 2.259-.218 3.386-.845 4.56a6.04 6.04 0 0 1-2.505 2.505c-1.173.627-2.301.845-4.56.845h-4.18c-2.259 0-3.386-.218-4.56-.845a6.04 6.04 0 0 1-2.505-2.505c-.627-1.173-.845-2.301-.845-4.56l.002-4.528c.022-2.03.249-3.1.843-4.212a6.04 6.04 0 0 1 2.505-2.505c1.173-.627 2.301-.845 4.56-.845m-19.82 3-4.456.001c-1.6.013-2.226.146-2.869.49a3.04 3.04 0 0 0-1.274 1.274c-.364.68-.491 1.34-.491 3.145l.001 4.456c.013 1.6.146 2.225.49 2.869q.444.83 1.274 1.274c.608.325 1.2.462 2.611.487l.534.004h4.18c1.806 0 2.466-.127 3.145-.49a3.04 3.04 0 0 0 1.274-1.275c.325-.608.462-1.2.487-2.611L23 42.09v-4.18c0-1.806-.127-2.466-.49-3.145a3.04 3.04 0 0 0-1.275-1.275c-.68-.363-1.34-.49-3.145-.49m24 0-4.456.001c-1.6.013-2.226.146-2.869.49a3.04 3.04 0 0 0-1.274 1.274c-.364.68-.491 1.34-.491 3.145l.001 4.456c.013 1.6.146 2.225.49 2.869q.443.83 1.274 1.274c.608.325 1.2.462 2.611.487l.534.004h4.18c1.806 0 2.466-.127 3.145-.49a3.04 3.04 0 0 0 1.274-1.275c.325-.608.462-1.2.487-2.611L47 42.09v-4.18c0-1.806-.127-2.466-.49-3.145a3.04 3.04 0 0 0-1.275-1.275c-.68-.363-1.34-.49-3.145-.49M38.228 4.825a6.04 6.04 0 0 1 3.544 0c1.273.385 2.224 1.029 3.821 2.626l3.2 3.203c1.42 1.451 2.017 2.368 2.382 3.574a6.04 6.04 0 0 1 0 3.544c-.386 1.273-1.029 2.224-2.626 3.821l-2.956 2.956c-1.597 1.597-2.548 2.24-3.821 2.626a6.04 6.04 0 0 1-3.544 0c-1.273-.386-2.224-1.029-3.821-2.626l-2.956-2.956c-1.597-1.597-2.24-2.548-2.626-3.821a6.04 6.04 0 0 1 0-3.544c.386-1.273 1.029-2.224 2.626-3.821l3.203-3.2c1.451-1.42 2.368-2.017 3.574-2.382M13.91 6l4.528.002c2.03.022 3.1.249 4.212.843a6.04 6.04 0 0 1 2.505 2.505c.627 1.174.845 2.301.845 4.56v4.18c0 2.259-.218 3.387-.845 4.56a6.04 6.04 0 0 1-2.506 2.505c-1.172.627-2.3.845-4.559.845h-4.18c-2.259 0-3.386-.218-4.56-.845a6.04 6.04 0 0 1-2.505-2.506C6.218 21.478 6 20.35 6 18.09l.002-4.528c.022-2.03.249-3.1.843-4.212A6.04 6.04 0 0 1 9.35 6.845C10.524 6.218 11.651 6 13.91 6M40.9 7.696a3.04 3.04 0 0 0-1.802 0c-.737.223-1.294.6-2.57 1.876l-3.151 3.152c-1.122 1.14-1.47 1.676-1.682 2.375a3.05 3.05 0 0 0 0 1.802c.2.66.522 1.175 1.502 2.19l.374.38 2.956 2.957c1.277 1.276 1.834 1.653 2.57 1.876q.902.273 1.803 0c.66-.2 1.175-.522 2.19-1.502l.38-.374 2.957-2.956c1.277-1.277 1.653-1.834 1.876-2.57q.273-.902 0-1.803c-.223-.737-.6-1.294-1.876-2.57l-3.152-3.151c-1.14-1.122-1.677-1.47-2.375-1.682M18.091 9l-4.457.001c-1.6.013-2.226.146-2.869.49a3.04 3.04 0 0 0-1.274 1.274c-.364.68-.491 1.34-.491 3.145l.001 4.456c.013 1.6.146 2.225.49 2.869q.444.83 1.274 1.274c.608.325 1.2.462 2.611.487l.534.004h4.18c1.806 0 2.466-.127 3.145-.49a3.04 3.04 0 0 0 1.274-1.275c.325-.608.462-1.2.487-2.611L23 18.09v-4.18c0-1.806-.127-2.466-.49-3.145a3.04 3.04 0 0 0-1.275-1.274C20.555 9.127 19.895 9 18.09 9"/></svg>