<svg xmlns="http://www.w3.org/2000/svg" width="56" height="56" fill="currentColor" viewBox="0 0 56 56"><path fill-rule="evenodd" d="M37.004 28.152c0 4.96-4.03 8.98-9.001 8.98-4.971 0-9.001-4.02-9.001-8.98 0-4.96 4.03-8.98 9-8.98 4.972 0 9.002 4.02 9.002 8.98Zm-9.001 5.987c3.314 0 6-2.68 6-5.987 0-3.306-2.686-5.987-6-5.987s-6.001 2.68-6.001 5.987 2.687 5.987 6 5.987Z" clip-rule="evenodd"/><path fill-rule="evenodd" d="M29.265 4.005c-.798 0-1.598.017-2.396-.002-.41-.01-1.849-.044-3.058.923-1.186.949-1.628 2.398-1.895 3.463a10.3 10.3 0 0 1-.884 2.233c-.841.334-1.652.727-2.428 1.173a10.265 10.265 0 0 1-2.22-.704c-.996-.463-2.403-1.034-3.89-.708-1.514.33-2.392 1.469-2.642 1.793a48.31 48.31 0 0 1-1.427 1.76c-.266.314-1.194 1.407-1.204 2.95-.009 1.516.839 2.77 1.5 3.649.407.54.86 1.32 1.209 2.162a18.752 18.752 0 0 0-.582 2.561c-.672.59-1.406 1.08-1.997 1.381-.98.5-2.294 1.257-2.951 2.625-.669 1.391-.314 2.78-.212 3.177.187.731.358 1.47.51 2.209.083.4.373 1.806 1.586 2.764 1.193.944 2.707 1.048 3.807 1.068.65.012 1.504.127 2.352.353.51.742 1.072 1.445 1.681 2.104.028.872-.052 1.724-.186 2.356-.228 1.074-.465 2.569.184 3.94.662 1.396 1.968 1.995 2.34 2.166.686.315 1.368.647 2.038.994.364.188 1.643.85 3.155.51 1.485-.334 2.519-1.444 3.225-2.284a10.326 10.326 0 0 1 1.816-1.65c.864.06 1.75.06 2.614 0a10.33 10.33 0 0 1 1.815 1.65c.707.84 1.74 1.95 3.225 2.284 1.513.34 2.791-.322 3.155-.51.67-.347 1.352-.679 2.038-.994.373-.17 1.679-.77 2.34-2.166.65-1.371.412-2.866.184-3.94a10.283 10.283 0 0 1-.186-2.356 18.833 18.833 0 0 0 1.681-2.104 10.29 10.29 0 0 1 2.353-.353c1.099-.02 2.614-.124 3.807-1.068 1.213-.958 1.502-2.364 1.585-2.764.153-.74.323-1.478.51-2.209.102-.397.457-1.786-.211-3.177-.658-1.368-1.972-2.125-2.951-2.625a10.313 10.313 0 0 1-1.998-1.38 18.78 18.78 0 0 0-.581-2.562 10.34 10.34 0 0 1 1.208-2.162c.662-.878 1.509-2.133 1.5-3.65-.01-1.542-.938-2.635-1.204-2.948a48.17 48.17 0 0 1-1.427-1.761c-.25-.324-1.128-1.462-2.641-1.793-1.487-.325-2.895.245-3.891.708a10.25 10.25 0 0 1-2.22.704 18.81 18.81 0 0 0-2.428-1.173 10.3 10.3 0 0 1-.884-2.233c-.256-1.024-.666-2.348-1.683-3.281-1.192-1.094-2.595-1.1-3.098-1.103h-.043Zm8.892 42.739-1.902.927c-.952.464-1.427.696-2.83-.974-.788-.936-2.02-2.026-3.367-2.806a16.262 16.262 0 0 1-4.11 0c-1.348.78-2.58 1.87-3.367 2.806-1.403 1.67-1.88 1.438-2.83.974l-1.903-.927c-.951-.464-1.427-.696-.974-2.83.249-1.175.35-2.779.15-4.297a15.941 15.941 0 0 1-2.64-3.302c-1.439-.54-3.033-.804-4.24-.826-2.18-.04-2.3-.555-2.538-1.585l-.476-2.062c-.238-1.03-.357-1.546 1.586-2.537 1.085-.554 2.418-1.503 3.48-2.633.129-1.396.44-2.74.907-4.009-.457-1.494-1.245-2.946-1.983-3.926-1.312-1.743-.98-2.154-.313-2.976l1.332-1.644c.666-.822 1-1.233 2.977-.313 1.084.504 2.615.962 4.133 1.111a15.814 15.814 0 0 1 3.81-1.843c.855-1.284 1.475-2.784 1.768-3.959.53-2.115 1.059-2.115 2.117-2.115h2.299c.939.007 1.437.124 1.935 2.115.294 1.175.913 2.675 1.769 3.959 1.36.445 2.64 1.069 3.81 1.843 1.517-.15 3.048-.607 4.132-1.111 1.978-.92 2.311-.51 2.977.313l1.332 1.644c.666.822 1 1.233-.313 2.976-.738.98-1.526 2.432-1.983 3.927a15.77 15.77 0 0 1 .908 4.008c1.062 1.13 2.394 2.08 3.479 2.633 1.943.991 1.824 1.506 1.586 2.537l-.476 2.062c-.238 1.03-.357 1.546-2.538 1.585-1.207.022-2.8.286-4.24.826a15.938 15.938 0 0 1-2.64 3.302c-.2 1.518-.098 3.122.15 4.298.453 2.133-.023 2.365-.974 2.829Z" clip-rule="evenodd"/></svg>
