<svg width="56" height="56" viewBox="0 0 56 56" fill="none" xmlns="http://www.w3.org/2000/svg"><path d="M31.3247 8.3808c.5539 0 1.0898.197 1.5118.5557l20.3351 17.2849c.9823.835 1.1018 2.3081.2668 3.2904a2.334 2.334 0 01-.2668.2668L32.8365 47.0635c-.9823.8349-2.4555.7155-3.2904-.2668l-.1136-.1448a2.3347 2.3347 0 01-.4421-1.3671V36.813l-.3269.0066c-10.5836.2451-18.0843 2.6531-22.548 7.1326l-.2556.2621c-.7523.7876-2.0183.8166-2.817.0536a2 2 0 01-.5688-1.8902l.1088-.4674c3.4303-14.4162 12.221-22.0637 26.0898-22.6699l.3177-.0124v-8.5128c0-1.2893 1.0451-2.3344 2.3343-2.3344zM50.6324 28l-18.642-15.846v8.5473c0 .8284-.6716 1.5-1.5 1.5l-.4432.0024c-12.209.1342-20.0286 5.8393-23.7013 17.3496l-.1045.3357.21-.1557c5.4653-3.9816 13.4873-5.9346 24.039-5.9346l.1444.0069c.7607.0727 1.3556.7134 1.3556 1.4931v8.5463L50.6324 28z" fill="currentColor"/></svg>
