<svg xmlns="http://www.w3.org/2000/svg" width="56" height="56" fill="currentColor" viewBox="0 0 56 56"><path fill-rule="evenodd" d="M26.712 7.288a3 3 0 0 1 2.566 0l19.004 8.989c2.289 1.082 2.29 4.34 0 5.423l-18.998 8.996a3 3 0 0 1-2.568 0L7.718 21.699c-2.289-1.084-2.288-4.34 0-5.423l18.994-8.988Zm20.287 11.7L27.995 10 9.002 18.988 28 27.984l19-8.994Zm-40.856 9.06a1.5 1.5 0 0 1 1.998-.714l19.863 9.407 19.857-9.406a1.5 1.5 0 1 1 1.285 2.712l-19.858 9.405a3 3 0 0 1-2.568 0L6.857 30.047a1.5 1.5 0 0 1-.714-1.998Zm2 8.037a1.5 1.5 0 1 0-1.286 2.71l19.862 9.416a3 3 0 0 0 2.57 0L49.14 38.81a1.5 1.5 0 0 0-1.284-2.71l-19.852 9.4-19.862-9.415Z" clip-rule="evenodd"/></svg>
