<svg xmlns="http://www.w3.org/2000/svg" width="56" height="56" fill="currentColor" viewBox="0 0 56 56"><path d="M36.56 25.56a1.5 1.5 0 0 0-2.12-2.12l-6 6a1.5 1.5 0 0 0 2.12 2.12l6-6Z"/><path fill-rule="evenodd" d="M21 5.5A1.5 1.5 0 0 1 22.5 4h11a1.5 1.5 0 0 1 0 3h-4v5.055a19.914 19.914 0 0 1 11.542 4.782l3.397-3.398a1.5 1.5 0 0 1 2.122 2.122l-3.398 3.397A19.922 19.922 0 0 1 48 32c0 11.046-8.954 20-20 20S8 43.046 8 32c0-10.541 8.155-19.178 18.5-19.945V7h-4A1.5 1.5 0 0 1 21 5.5ZM45 32c0 9.389-7.611 17-17 17s-17-7.611-17-17 7.611-17 17-17 17 7.611 17 17Z" clip-rule="evenodd"/></svg>
