<svg xmlns="http://www.w3.org/2000/svg" width="56" height="56" fill="currentColor" viewBox="0 0 56 56"><path fill-rule="evenodd" d="M38 28c0 5.523-4.477 10-10 10s-10-4.477-10-10 4.477-10 10-10 10 4.477 10 10Zm-3 0a7 7 0 1 1-14 0 7 7 0 0 1 14 0Z" clip-rule="evenodd"/><path fill-rule="evenodd" d="M6 25.2c0-6.72 0-10.08 1.308-12.648a12 12 0 0 1 5.244-5.244C15.12 6 18.48 6 25.2 6h5.6c6.72 0 10.08 0 12.648 1.308a12 12 0 0 1 5.244 5.244C50 15.12 50 18.48 50 25.2v5.6c0 6.72 0 10.08-1.308 12.648a12 12 0 0 1-5.244 5.244C40.88 50 37.52 50 30.8 50h-5.6c-6.72 0-10.08 0-12.648-1.308a12 12 0 0 1-5.244-5.244C6 40.88 6 37.52 6 30.8v-5.6ZM25.2 9h5.6c3.41 0 5.787.002 7.637.154 1.816.148 2.859.424 3.649.827a9 9 0 0 1 3.933 3.933c.403.79.68 1.833.828 3.649.15 1.85.153 4.227.153 7.637v5.6c0 3.41-.002 5.787-.154 7.637-.148 1.816-.424 2.859-.827 3.649a9 9 0 0 1-3.933 3.933c-.79.403-1.833.68-3.649.828-1.85.15-4.227.153-7.637.153h-5.6c-3.41 0-5.787-.002-7.637-.154-1.816-.148-2.859-.424-3.649-.827a9 9 0 0 1-3.933-3.933c-.403-.79-.68-1.833-.827-3.649C9.002 36.587 9 34.21 9 30.8v-5.6c0-3.41.002-5.787.154-7.637.148-1.816.424-2.859.827-3.649a9 9 0 0 1 3.933-3.933c.79-.403 1.833-.68 3.649-.827C19.413 9.002 21.79 9 25.2 9Z" clip-rule="evenodd"/></svg>
