<svg xmlns="http://www.w3.org/2000/svg" width="56" height="56" fill="none" viewBox="0 0 56 56">
  <path fill="url(#a)" d="M28 56c15.464 0 28-12.536 28-28S43.464 0 28 0 0 12.536 0 28s12.536 28 28 28Z"/>
  <path fill="#fff" d="M28 22.5a5.5 5.5 0 1 0 0 11 5.5 5.5 0 1 0 0-11Z"/>
  <path fill="#fff" fill-rule="evenodd" d="M14 23.956c0-3.485 0-5.228.678-6.559a6.222 6.222 0 0 1 2.72-2.719C18.727 14 20.47 14 23.955 14h8.088c3.485 0 5.228 0 6.559.678a6.222 6.222 0 0 1 2.719 2.72C42 18.727 42 20.47 42 23.955v8.088c0 3.485 0 5.228-.678 6.559a6.222 6.222 0 0 1-2.72 2.719C37.273 42 35.53 42 32.045 42h-8.088c-3.485 0-5.228 0-6.559-.678a6.222 6.222 0 0 1-2.719-2.72C14 37.273 14 35.53 14 32.045v-8.088ZM20 28c0 4.416 3.584 8 8 8s8-3.584 8-8-3.584-8-8-8-8 3.584-8 8Z" clip-rule="evenodd"/>
  <defs>
    <linearGradient id="a" x1="0" x2="56" y1="0" y2="56" gradientUnits="userSpaceOnUse">
      <stop stop-color="#FF8880"/>
      <stop offset="1" stop-color="#E62E6B"/>
    </linearGradient>
  </defs>
</svg>
