<svg fill="none" height="56" viewBox="0 0 56 56" width="56" xmlns="http://www.w3.org/2000/svg" xmlns:xlink="http://www.w3.org/1999/xlink"><linearGradient id="a" gradientUnits="userSpaceOnUse" x1="-28" x2="28" y1="28" y2="84"><stop offset="0" stop-color="#ffb73d"/><stop offset="1" stop-color="#ffa000"/></linearGradient><circle cx="28" cy="28" fill="url(#a)" r="28"/><g fill="#fff"><path d="m28 33c2.7614 0 5-2.2386 5-5s-2.2386-5-5-5-5 2.2386-5 5 2.2386 5 5 5z"/><path clip-rule="evenodd" d="m14 25.2c0-3.9204 0-5.8806.763-7.3779.6711-1.3172 1.7419-2.388 3.0591-3.0591 1.4973-.763 3.4575-.763 7.3779-.763h5.6c3.9204 0 5.8806 0 7.3779.763 1.3172.6711 2.388 1.7419 3.0591 3.0591.763 1.4973.763 3.4575.763 7.3779v5.6c0 3.9204 0 5.8806-.763 7.3779-.6711 1.3172-1.7419 2.388-3.0591 3.0591-1.4973.763-3.4575.763-7.3779.763h-5.6c-3.9204 0-5.8806 0-7.3779-.763-1.3172-.6711-2.388-1.7419-3.0591-3.0591-.763-1.4973-.763-3.4575-.763-7.3779zm22 2.8c0 4.4183-3.5817 8-8 8s-8-3.5817-8-8 3.5817-8 8-8 8 3.5817 8 8z" fill-rule="evenodd"/></g></svg>
