<svg xmlns="http://www.w3.org/2000/svg" width="56" height="56" fill="currentColor" viewBox="0 0 56 56"><path d="M46.974 26.998a19 19 0 0 0-28.7-15.32 1.5 1.5 0 1 1-1.535-2.577 22 22 0 0 1 33.238 17.897h3.771c1.03 0 1.618 1.176 1 2l-5.266 7.016a1.25 1.25 0 0 1-2.002-.002l-5.236-7.017c-.615-.824-.027-1.997 1.002-1.997h3.728Zm-34.218 2.008H9.028a19 19 0 0 0 28.706 15.312 1.5 1.5 0 1 1 1.537 2.576A22 22 0 0 1 6.024 29.006h-3.77c-1.031 0-1.619-1.176-1-2l5.266-7.017a1.25 1.25 0 0 1 2.001.003l5.237 7.016c.615.825.027 1.998-1.002 1.998Z"/></svg>
