<svg xmlns="http://www.w3.org/2000/svg" width="56" height="56" fill="currentColor" viewBox="0 0 56 56"><path d="M20 24a4 4 0 1 0 0-8 4 4 0 0 0 0 8Z"/><path fill-rule="evenodd" d="M12.583 36.663c-2.43-2.429-3.644-3.643-4.513-5.06a14.044 14.044 0 0 1-1.682-4.06C6 25.925 6 24.207 6 20.772V18.84c0-4.494 0-6.742.875-8.458a8.026 8.026 0 0 1 3.507-3.507C12.099 6 14.346 6 18.841 6h1.927c3.436 0 5.154 0 6.77.388a14.03 14.03 0 0 1 4.06 1.682c1.418.869 2.633 2.083 5.062 4.513l6.147 6.148c3.972 3.973 5.958 5.96 6.702 8.25a10.03 10.03 0 0 1 0 6.2c-.745 2.29-2.731 4.276-6.704 8.249l-1.379 1.377c-3.972 3.972-5.958 5.958-8.249 6.702a10.032 10.032 0 0 1-6.2 0c-2.29-.744-4.276-2.73-8.248-6.702l-6.146-6.144Zm21.955-21.959 6.147 6.148c2.021 2.022 3.408 3.412 4.396 4.576.966 1.138 1.374 1.861 1.575 2.48a7.03 7.03 0 0 1 0 4.346c-.201.618-.61 1.341-1.575 2.479-.989 1.164-2.376 2.554-4.397 4.575l-1.379 1.378c-2.02 2.02-3.41 3.407-4.575 4.395-1.138.966-1.861 1.374-2.48 1.575a7.032 7.032 0 0 1-4.345 0c-.619-.201-1.342-.609-2.48-1.575-1.164-.988-2.554-2.374-4.575-4.395l-6.146-6.144c-2.53-2.53-3.436-3.463-4.076-4.508a11.046 11.046 0 0 1-1.323-3.192C9.02 25.652 9 24.35 9 20.772V18.84c0-2.296.002-3.839.1-5.026.094-1.153.262-1.705.448-2.07a5.025 5.025 0 0 1 2.196-2.196c.365-.186.917-.354 2.07-.449C15.002 9.002 16.544 9 18.841 9h1.927c3.579 0 4.879.02 6.07.305a11.03 11.03 0 0 1 3.193 1.323c1.044.64 1.977 1.546 4.507 4.076Z" clip-rule="evenodd"/></svg>
