<svg xmlns="http://www.w3.org/2000/svg" width="56" height="56" fill="currentColor" viewBox="0 0 56 56"><path fill-rule="evenodd" d="m38.14 31.786-2.546 2.037c-.281.225-.476.54-.552.893l-2.658 12.401c-.8 3.73-4.757 5.85-8.304 4.448-2.27-.896-4.08-3.118-4.08-5.741V38h-1.358c-4.363 0-8.048-1.377-10.65-3.906C5.359 31.532 4 27.818 4 23.225v-2.021c0-4.593 1.358-8.307 3.993-10.869C10.503 7.896 14.113 6 18.605 6H38.31a5.6 5.6 0 0 1 2.034-1.526c.644-.283 1.295-.385 1.933-.43C42.88 4 43.605 4 44.434 4h.133c.829 0 1.554 0 2.156.043.638.046 1.29.148 1.933.431a5.6 5.6 0 0 1 2.87 2.87c.283.644.385 1.296.431 1.933.044.602.044 1.328.044 2.157v15.132c0 .83 0 1.555-.044 2.157-.046.637-.148 1.289-.43 1.932a5.6 5.6 0 0 1-2.871 2.87c-.644.284-1.295.386-1.933.432-.602.043-1.327.043-2.156.043h-.133c-.829 0-1.554 0-2.156-.043-.638-.046-1.29-.148-1.933-.431a5.6 5.6 0 0 1-2.205-1.74ZM29.45 46.49a3.173 3.173 0 0 1-4.268 2.286c-1.3-.513-2.181-1.738-2.181-2.951V36.5a1.5 1.5 0 0 0-1.5-1.5h-2.86c-3.726 0-6.611-1.166-8.557-3.057C8.17 30.083 7 27.227 7 23.225v-2.021c0-4.002 1.17-6.858 3.084-8.718C12.12 10.506 15.007 9 18.604 9h18.464a6.61 6.61 0 0 0-.024.277C37 9.88 37 10.605 37 11.434v15.132c0 .83 0 1.555.043 2.157l.007.093-3.33 2.665a4.562 4.562 0 0 0-1.612 2.606L29.45 46.489ZM44.435 31c-.865 0-1.47-.002-1.941-.035-.474-.035-.741-.098-.94-.185a2.6 2.6 0 0 1-1.332-1.333c-.088-.198-.15-.465-.185-.94-.034-.47-.035-1.076-.035-1.94V11.433c0-.865.001-1.47.035-1.942.034-.474.097-.74.185-.94a2.6 2.6 0 0 1 1.332-1.332c.199-.087.466-.15.94-.184.47-.034 1.076-.036 1.941-.036h.133c.865 0 1.47.002 1.941.036.474.034.741.097.94.184a2.6 2.6 0 0 1 1.332 1.333c.088.198.15.465.185.94.034.47.035 1.075.035 1.94v15.133c0 .865-.001 1.47-.035 1.942-.034.474-.097.74-.185.94a2.6 2.6 0 0 1-1.332 1.332c-.199.087-.466.15-.94.184-.471.034-1.076.036-1.941.036h-.133Z" clip-rule="evenodd"/></svg>
