<svg xmlns="http://www.w3.org/2000/svg" width="56" height="56" fill="currentColor" viewBox="0 0 56 56"><path fill-rule="evenodd" d="M25.052 4a6.399 6.399 0 0 0-5.761 3.622l-5.177 10.726A11.208 11.208 0 0 0 13 23.22v18.017C13 46.076 16.913 50 21.74 50h15.635a8.741 8.741 0 0 0 8.2-5.73l5.877-15.974c2.105-5.721-2.117-11.795-8.2-11.795H31.5v-6.083C31.5 6.873 28.586 4 25.052 4Zm-3.068 4.929A3.407 3.407 0 0 1 25.052 7c1.882 0 3.456 1.53 3.456 3.417v6.847c0 1.235.998 2.236 2.23 2.236h12.514c4 0 6.777 3.994 5.393 7.757L42.768 43.23A5.749 5.749 0 0 1 37.375 47H21.74c-3.174 0-5.748-2.58-5.748-5.763V23.22c0-1.234.279-2.453.815-3.564L21.984 8.93Z" clip-rule="evenodd"/><path d="M7.5 49.999a1.5 1.5 0 0 0 1.5-1.5v-25a1.5 1.5 0 0 0-3 0v25a1.5 1.5 0 0 0 1.5 1.5Z"/></svg>
