<svg xmlns="http://www.w3.org/2000/svg" width="56" height="56" fill="currentColor" viewBox="0 0 56 56"><path fill-rule="evenodd" d="M30.948 51.999a6.399 6.399 0 0 0 5.761-3.622l5.177-10.726A11.208 11.208 0 0 0 43 32.779V14.764C43 9.923 39.087 6 34.26 6H18.625a8.741 8.741 0 0 0-8.2 5.73L4.547 27.704c-2.105 5.721 2.118 11.795 8.2 11.795H24.5v6.083c0 3.544 2.914 6.417 6.448 6.417Zm3.068-4.929A3.407 3.407 0 0 1 30.948 49c-1.882 0-3.456-1.53-3.456-3.417v-6.848a2.232 2.232 0 0 0-2.23-2.235H12.749c-4 0-6.777-3.994-5.393-7.757l5.877-15.973A5.749 5.749 0 0 1 18.625 9H34.26c3.174 0 5.748 2.58 5.748 5.763V32.78a8.203 8.203 0 0 1-.815 3.564L34.016 47.07Z M48.5 6A1.5 1.5 0 0 0 47 7.5v25a1.5 1.5 0 0 0 3 0v-25A1.5 1.5 0 0 0 48.5 6Z"/></svg>
