<svg width="58" height="58" viewBox="0 0 58 58" fill="none" xmlns="http://www.w3.org/2000/svg">
<path fill-rule="evenodd" clip-rule="evenodd" d="M41.9471 9.77566C42.373 9.17789 42.3038 8.35972 41.7835 7.842C39.9493 6.01676 38.6085 4.71881 36.9745 4.1879C35.4682 3.69847 33.8456 3.69847 32.3392 4.1879C31.3909 4.49603 30.5785 5.04161 29.7422 5.75151C28.9301 6.44098 28.0029 7.36817 26.8534 8.51771L26.8534 8.51772L26.808 8.56312L22.9896 12.3815L8.56459 26.8065L8.51919 26.8519C7.36965 28.0014 6.44246 28.9286 5.75299 29.7408C5.04309 30.577 4.49751 31.3895 4.18939 32.3378C3.69995 33.8441 3.69995 35.4667 4.18938 36.973C4.72029 38.607 6.01824 39.9478 7.84348 41.7821C8.3612 42.3023 9.17937 42.3715 9.77714 41.9456C11.5336 40.6942 13.9895 40.8581 15.565 42.4335C17.1404 44.009 17.3043 46.4649 16.0529 48.2214C15.627 48.8192 15.6962 49.6373 16.2165 50.155C18.0507 51.9803 19.3915 53.2782 21.0255 53.8091C22.5318 54.2986 24.1544 54.2986 25.6608 53.8091C26.6091 53.501 27.4215 52.9554 28.2578 52.2455C29.0699 51.5561 29.9971 50.6289 31.1466 49.4793L31.192 49.4339L45.617 35.0089L49.4354 31.1905L49.4808 31.1451C50.6304 29.9956 51.5575 29.0684 52.247 28.2563C52.9569 27.4201 53.5025 26.6076 53.8106 25.6593C54.3 24.1529 54.3 22.5303 53.8106 21.024C53.2797 19.3901 51.9818 18.0492 50.1565 16.215C49.6388 15.6947 48.8206 15.6255 48.2229 16.0514C46.4664 17.3028 44.0105 17.139 42.435 15.5635C40.8595 13.988 40.6957 11.5321 41.9471 9.77566ZM44.5564 31.8269L41.3744 28.645C40.7886 28.0592 39.8388 28.0592 39.2531 28.645C38.6673 29.2307 38.6673 30.1805 39.2531 30.7663L42.435 33.9483L29.0707 47.3126C27.8651 48.5182 27.0239 49.3577 26.3162 49.9585C25.6219 50.5479 25.1554 50.819 24.7337 50.956C23.8299 51.2496 22.8563 51.2496 21.9525 50.956C21.261 50.7313 20.5675 50.2041 19.1568 48.8389C20.4825 46.0526 19.9931 42.6191 17.6863 40.3122C15.3794 38.0054 11.9459 37.516 9.15962 38.8417C7.7944 37.431 7.26726 36.7376 7.04255 36.046C6.74889 35.1422 6.7489 34.1686 7.04255 33.2648C7.17956 32.8432 7.45057 32.3766 8.04001 31.6823C8.64081 30.9746 9.48036 30.1334 10.6859 28.9278L24.0503 15.5635L27.2322 18.7455C27.818 19.3313 28.7678 19.3312 29.3536 18.7455C29.9393 18.1597 29.9393 17.2099 29.3536 16.6241L26.1716 13.4422L28.9293 10.6844C30.1349 9.47888 30.9761 8.63933 31.6838 8.03853C32.3781 7.44909 32.8446 7.17808 33.2663 7.04107C34.1701 6.74741 35.1437 6.74741 36.0475 7.04107C36.739 7.26578 37.4325 7.79292 38.8432 9.15814C37.5175 11.9444 38.0068 15.378 40.3137 17.6848C42.6206 19.9917 46.0541 20.481 48.8404 19.1553C50.2056 20.5661 50.7327 21.2595 50.9574 21.9511C51.2511 22.8549 51.2511 23.8284 50.9574 24.7322C50.8204 25.1539 50.5494 25.6204 49.96 26.3147C49.3592 27.0225 48.5196 27.8637 47.3141 29.0692L44.5564 31.8269ZM31.4749 20.8668C32.0607 20.281 33.0104 20.281 33.5962 20.8668L37.1317 24.4023C37.7175 24.9881 37.7175 25.9378 37.1317 26.5236C36.5459 27.1094 35.5962 27.1094 35.0104 26.5236L31.4749 22.9881C30.8891 22.4023 30.8891 21.4526 31.4749 20.8668Z" fill="currentColor"/>
</svg>
