<?xml version="1.0" encoding="UTF-8"?>
<svg width="56px" height="56px" viewBox="0 0 56 56" version="1.1" xmlns="http://www.w3.org/2000/svg" xmlns:xlink="http://www.w3.org/1999/xlink">
    <!-- Generator: Sketch 61.2 (89653) - https://sketch.com -->
    <title>Icons 56/users_outline_56</title>
    <desc>Created with Sketch.</desc>
    <g id="Icons-56/users_outline_56" stroke="none" stroke-width="1" fill="none" fill-rule="evenodd">
        <g id="users_outline_56">
            <polygon points="0 0 56 0 56 56 0 56"></polygon>
            <path d="M39.5,31 C45.1088748,31 50,33.6985539 50,39 C50,41.625002 48.1666656,43 46,43 L37.5,43 C36.6715729,43 36,42.3284271 36,41.5 C36,40.6715729 36.6715729,40 37.5,40 L46,40 C46.6666664,40 47,39.7500003 47,39 C47,35.8359312 43.6723772,34 39.5,34 C38.7894461,34 38.0180935,34.0697792 37.2744091,34.2081637 C36.4599624,34.3597157 35.6768657,33.8223333 35.5253137,33.0078866 C35.3737617,32.1934398 35.9111441,31.4103432 36.7255909,31.2587912 C37.652054,31.0863952 38.6070834,31 39.5,31 Z M20.5,29 C27.8559404,29 34,31.8357198 34,38 C34,41.0784271 32.0784271,43 29.5,43 L11.5,43 C8.8137845,43 7,41.5892787 7,38.5 C7,31.954768 13.0650501,29 20.5,29 Z M20.5,32 C14.5138973,32 10,34.1990782 10,38.5 C10,39.7440546 10.3290726,40 11.5,40 L29.5,40 C30.4215729,40 31,39.4215729 31,38 C31,34.1258186 26.3940596,32 20.5,32 Z M39,15 C42.5898509,15 45.5,17.9101491 45.5,21.5 C45.5,25.0898509 42.5898509,28 39,28 C35.4101491,28 32.5,25.0898509 32.5,21.5 C32.5,17.9101491 35.4101491,15 39,15 Z M20.5,11 C24.6421356,11 28,14.3578644 28,18.5 C28,22.6421356 24.6421356,26 20.5,26 C16.3578644,26 13,22.6421356 13,18.5 C13,14.3578644 16.3578644,11 20.5,11 Z M39,18 C37.0670034,18 35.5,19.5670034 35.5,21.5 C35.5,23.4329966 37.0670034,25 39,25 C40.9329966,25 42.5,23.4329966 42.5,21.5 C42.5,19.5670034 40.9329966,18 39,18 Z M20.5,14 C18.0147186,14 16,16.0147186 16,18.5 C16,20.9852814 18.0147186,23 20.5,23 C22.9852814,23 25,20.9852814 25,18.5 C25,16.0147186 22.9852814,14 20.5,14 Z" id="↳-Icon-Color" fill="currentColor" fill-rule="nonzero"></path>
        </g>
    </g>
</svg>
