<svg fill="none" height="56" viewBox="0 0 56 56" width="56" xmlns="http://www.w3.org/2000/svg"><g fill="currentColor"><path clip-rule="evenodd" d="m37.5 24.5c0 5.2484-4.2516 9.5-9.5 9.5s-9.5-4.2516-9.5-9.5 4.2516-9.5 9.5-9.5 9.5 4.2516 9.5 9.5zm-3 0c0-3.5916-2.9084-6.5-6.5-6.5s-6.5 2.9084-6.5 6.5 2.9084 6.5 6.5 6.5 6.5-2.9084 6.5-6.5z" fill-rule="evenodd"/><path d="m28 37.5014c6.4644 0 12.4115 2.232 17.1069 5.9661l-2.25 2.0498c-4.1218-3.1474-9.2693-5.0159-14.8569-5.0159s-10.7351 1.8685-14.8569 5.0159l-2.25-2.0498c4.6954-3.7341 10.6425-5.9661 17.1069-5.9661z"/><path clip-rule="evenodd" d="m52 28c0 13.2548-10.7452 24-24 24s-24-10.7452-24-24 10.7452-24 24-24 24 10.7452 24 24zm-3 0c0 11.598-9.402 21-21 21s-21-9.402-21-21 9.402-21 21-21 21 9.402 21 21z" fill-rule="evenodd"/></g></svg>
