<svg xmlns="http://www.w3.org/2000/svg" width="56" height="56" fill="none" viewBox="0 0 56 56">
  <circle cx="28" cy="28" r="28" fill="url(#a)"/>
  <path fill="#fff" d="M33.5 22.5c0-3.039-2.461-5.5-5.5-5.5a5.499 5.499 0 0 0-5.5 5.5c0 3.039 2.461 5.5 5.5 5.5s5.5-2.461 5.5-5.5ZM17 36.23v1.43c0 .74.6 1.34 1.34 1.34h19.32c.74 0 1.34-.6 1.34-1.34v-1.43C39 31.386 31.671 30 28 30c-3.671 0-11 1.385-11 6.23Z"/>
  <defs>
    <linearGradient id="a" x1="0" x2="56" y1="0" y2="56" gradientUnits="userSpaceOnUse">
      <stop stop-color="#6CF"/>
      <stop offset="1" stop-color="#3F8AE0"/>
    </linearGradient>
  </defs>
</svg>
