<svg xmlns="http://www.w3.org/2000/svg" width="56" height="56" fill="currentColor" viewBox="0 0 56 56"><path d="M40.16 8H21.84c-1.07 0-1.96 0-2.69.06-.76.062-1.472.196-2.147.54a5.5 5.5 0 0 0-2.403 2.403c-.344.675-.478 1.388-.54 2.148-.06.728-.06 1.62-.06 2.688v18.322c0 1.068 0 1.96.06 2.688.062.76.196 1.473.54 2.148a5.5 5.5 0 0 0 2.403 2.404c.675.343 1.388.477 2.148.54.728.059 1.62.059 2.688.059H26.5a1.5 1.5 0 0 0 0-3h-4.6c-1.145 0-1.913-.001-2.505-.05-.574-.046-.849-.13-1.03-.223a2.5 2.5 0 0 1-1.092-1.092c-.093-.181-.177-.456-.224-1.03-.048-.592-.049-1.36-.049-2.505V15.9c0-1.145.001-1.913.05-2.505.046-.574.13-.849.223-1.03a2.5 2.5 0 0 1 1.092-1.092c.181-.093.456-.177 1.03-.223.592-.049 1.36-.05 2.505-.05h18.2c1.145 0 1.913.001 2.505.05.574.046.849.13 1.03.223a2.5 2.5 0 0 1 1.093 1.092c.092.181.176.456.222 1.03.049.592.05 1.36.05 2.505v11.45a1.5 1.5 0 0 0 3 0V15.84c0-1.07 0-1.96-.06-2.69-.062-.76-.196-1.472-.54-2.147A5.5 5.5 0 0 0 44.998 8.6c-.675-.343-1.388-.477-2.148-.54C42.121 8 41.23 8 40.161 8Z M6 21v13.617c0 5.019.465 7.117 1.603 9.244a10.924 10.924 0 0 0 4.536 4.536C14.266 49.535 16.364 50 21.383 50h6.857a1.5 1.5 0 0 0 0-3h-6.857c-4.83 0-6.344-.454-7.83-1.248a7.925 7.925 0 0 1-3.305-3.306c-.794-1.485-1.248-3-1.248-7.83V18a3 3 0 0 0-3 3Z M41.5 52C47.299 52 52 47.299 52 41.5S47.299 31 41.5 31 31 35.701 31 41.5 35.701 52 41.5 52Zm5.06-15.56a1.5 1.5 0 0 1 0 2.12l-2.939 2.94 2.94 2.94a1.5 1.5 0 0 1-2.122 2.12L41.5 43.622l-2.94 2.94a1.5 1.5 0 0 1-2.12-2.122l2.939-2.939-2.94-2.94a1.5 1.5 0 0 1 2.122-2.12L41.5 39.38l2.94-2.94a1.5 1.5 0 0 1 2.12 0Z M35.5 20.5a4.498 4.498 0 0 0-4.5-4.499A4.498 4.498 0 1 0 31 25c2.486 0 4.5-2.013 4.5-4.498ZM21.998 31.746v1.12c0 .624.506 1.13 1.13 1.13h6.604c.334 0 .643-.167.84-.437.41-.561.867-1.098 1.374-1.605a13.446 13.446 0 0 1 4.989-3.165c.407-.146.48-.69.089-.873-1.945-.906-4.415-1.23-6.025-1.23-3.004 0-9 1.124-9 5.06Z"/></svg>
