<svg xmlns="http://www.w3.org/2000/svg" width="56" height="56" viewBox="0 0 56 56" fill="currentColor"><path d="M28 29c7.075 0 13 2.854 13 9 0 3.065-1.855 5-4.375 5h-17.25C16.759 43 15 41.572 15 38.5c0-6.527 5.848-9.5 13-9.5m-14.443.001a1.5 1.5 0 0 1 .03 2.996C9.706 32.225 7 33.984 7 37c0 .75.333 1 1 1h2.5l.145.007A1.5 1.5 0 0 1 10.5 41H8l-.196-.004C5.724 40.916 4 39.546 4 37c0-4.992 4.145-7.69 9.412-7.997zm28.886 0 .145.002C47.855 29.31 52 32.008 52 37c0 2.545-1.724 3.916-3.804 3.996L48 41h-2.5a1.5 1.5 0 0 1-.144-2.993L45.5 38H48c.667 0 1-.25 1-1 0-3.016-2.705-4.775-6.588-5.003a1.5 1.5 0 0 1 .031-2.996M28 32c-5.71 0-10 2.18-10 6.5 0 1.151.245 1.45 1.11 1.494l.265.006h17.25c.834 0 1.375-.565 1.375-2 0-3.892-4.377-6-10-6M16 12q.317 0 .632.028a1.5 1.5 0 1 1-.268 2.988 4 4 0 1 0 .713 7.838l.158-.038a1.5 1.5 0 0 1 .678 2.919l-.352.09-.325.066Q16.626 26 16 26a7 7 0 1 1 0-14m24.004 0a7 7 0 1 1-1.236 13.89l-.325-.065-.352-.09a1.5 1.5 0 0 1 .677-2.919l.159.038a4 4 0 0 0 1.077.146 4 4 0 1 0-.364-7.984 1.5 1.5 0 0 1-.269-2.988q.314-.028.633-.028M28 10a8 8 0 1 1 0 16 8 8 0 0 1 0-16m0 3a5 5 0 1 0 0 10 5 5 0 0 0 0-10"/></svg>