<svg xmlns="http://www.w3.org/2000/svg" width="56" height="56" fill="currentColor" viewBox="0 0 56 56"><path fill-rule="evenodd" d="M6 34.617V21a3 3 0 0 1 3-3v16.617c0 4.83.454 6.344 1.248 7.83a7.925 7.925 0 0 0 3.306 3.305c1.485.794 3 1.248 7.83 1.248H40a3 3 0 0 1-3 3H21.383c-5.019 0-7.117-.465-9.244-1.603a10.925 10.925 0 0 1-4.536-4.536C6.465 41.734 6 39.636 6 34.617Z" clip-rule="evenodd"/><path d="M35.5 20.5a4.498 4.498 0 0 0-4.5-4.499A4.498 4.498 0 1 0 31 25c2.486 0 4.5-2.013 4.5-4.498ZM21.998 31.746v1.12c0 .624.506 1.13 1.13 1.13l15.74.002a1.13 1.13 0 0 0 1.13-1.13v-1.12c0-3.936-5.995-5.062-8.999-5.062-3.004 0-9 1.124-9 5.06Z"/><path fill-rule="evenodd" d="M21.84 8h18.32c1.07 0 1.96 0 2.69.06.76.062 1.472.196 2.147.54a5.5 5.5 0 0 1 2.404 2.403c.343.675.477 1.388.54 2.148.059.728.059 1.62.059 2.688v18.322c0 1.068 0 1.96-.06 2.688-.062.76-.196 1.473-.54 2.148a5.5 5.5 0 0 1-2.403 2.404c-.675.343-1.388.477-2.148.54-.728.059-1.62.059-2.688.059H21.839c-1.068 0-1.96 0-2.688-.06-.76-.062-1.473-.196-2.148-.54a5.5 5.5 0 0 1-2.403-2.403c-.344-.675-.478-1.388-.54-2.148-.06-.728-.06-1.62-.06-2.688V15.839c0-1.068 0-1.96.06-2.688.062-.76.196-1.473.54-2.148A5.5 5.5 0 0 1 17.003 8.6c.675-.343 1.388-.477 2.148-.54C19.879 8 20.77 8 21.839 8Zm-2.445 3.05c-.574.046-.849.13-1.03.223a2.5 2.5 0 0 0-1.092 1.092c-.093.181-.177.456-.224 1.03-.048.592-.049 1.36-.049 2.505v18.2c0 1.145.001 1.913.05 2.505.046.574.13.849.223 1.03a2.5 2.5 0 0 0 1.092 1.093c.181.092.456.176 1.03.222.592.049 1.36.05 2.505.05h18.2c1.145 0 1.913-.001 2.505-.05.574-.046.849-.13 1.03-.223a2.5 2.5 0 0 0 1.093-1.092c.092-.181.176-.456.222-1.03.049-.592.05-1.36.05-2.505V15.9c0-1.145-.001-1.913-.05-2.505-.046-.574-.13-.849-.223-1.03a2.5 2.5 0 0 0-1.092-1.092c-.181-.093-.456-.177-1.03-.223-.592-.05-1.36-.05-2.505-.05H21.9c-1.145 0-1.913.001-2.505.05Z" clip-rule="evenodd"/></svg>
