<svg xmlns="http://www.w3.org/2000/svg" width="56" height="56" fill="currentColor" viewBox="0 0 56 56"><path fill-rule="evenodd" d="M37.745 6c3.566 0 4.859.371 6.162 1.069a7.27 7.27 0 0 1 3.025 3.024C47.629 11.396 48 12.69 48 16.256V38a1.5 1.5 0 0 1-3 0V16.256c0-2.799-.186-3.761-.714-4.749a4.27 4.27 0 0 0-1.793-1.793c-.95-.508-1.876-.7-4.434-.713L18.256 9c-.865 0-1.554.018-2.123.058v-.001a1.5 1.5 0 1 1-.047-2.996c.617-.04 1.33-.061 2.17-.061h19.489Zm6.162 42.931a7.362 7.362 0 0 0 1.679-1.224l2.853 2.854a1.5 1.5 0 0 0 2.122-2.122l-42-42a1.5 1.5 0 1 0-2.122 2.122l2.274 2.274C8.246 11.957 8 13.352 8 16.255v23.49c0 3.565.371 4.859 1.069 6.162a7.27 7.27 0 0 0 3.024 3.024C13.396 49.63 14.69 50 18.256 50h19.489c3.566 0 4.859-.371 6.162-1.069Zm-32.906-32.99c.006-1.187.05-2.022.148-2.671l25.087 25.088a.934.934 0 0 0-.102.154c-.088.163-.134.324-.134.77v1.436c0 .446.046.607.134.77a.906.906 0 0 0 .378.378c.163.088.324.134.77.134h1.436c.446 0 .607-.046.77-.134a.934.934 0 0 0 .154-.102l3.822 3.822a4.365 4.365 0 0 1-.971.7c-.988.528-1.95.714-4.748.714h-19.49c-2.798 0-3.76-.186-4.748-.714a4.27 4.27 0 0 1-1.793-1.794c-.528-.987-.714-1.95-.714-4.748V15.941Zm8.487 22.193c-.162-.088-.324-.134-.77-.134h-1.436c-.446 0-.608.046-.77.134a.908.908 0 0 0-.378.378c-.088.163-.134.324-.134.77v1.436c0 .446.046.607.134.77a.906.906 0 0 0 .378.378c.162.088.324.134.77.134h1.436c.446 0 .608-.046.77-.134a.908.908 0 0 0 .378-.378c.088-.163.134-.324.134-.77v-1.436c0-.446-.046-.607-.134-.77a.908.908 0 0 0-.378-.378Zm0-8c-.162-.088-.324-.134-.77-.134h-1.436c-.446 0-.608.046-.77.134a.908.908 0 0 0-.378.378c-.088.162-.134.324-.134.77v1.436c0 .446.046.607.134.77a.906.906 0 0 0 .378.378c.162.088.324.134.77.134h1.436c.446 0 .608-.046.77-.134a.908.908 0 0 0 .378-.378c.088-.163.134-.324.134-.77v-1.436c0-.446-.046-.608-.134-.77a.908.908 0 0 0-.378-.378Zm0-8c-.162-.088-.324-.134-.77-.134h-1.436c-.446 0-.608.046-.77.134a.908.908 0 0 0-.378.378c-.088.162-.134.324-.134.77v1.436c0 .446.046.608.134.77a.906.906 0 0 0 .378.378c.162.088.324.134.77.134h1.436c.446 0 .608-.046.77-.134a.908.908 0 0 0 .378-.378c.088-.162.134-.324.134-.77v-1.436c0-.446-.046-.608-.134-.77a.908.908 0 0 0-.378-.378Zm20 0c-.163-.088-.324-.134-.77-.134h-1.436c-.446 0-.607.046-.77.134a.908.908 0 0 0-.378.378c-.088.162-.134.324-.134.77v1.436c0 .446.046.608.134.77a.906.906 0 0 0 .378.378c.163.088.324.134.77.134h1.436c.446 0 .607-.046.77-.134a.908.908 0 0 0 .378-.378c.088-.162.134-.324.134-.77v-1.436c0-.446-.046-.608-.134-.77a.908.908 0 0 0-.378-.378Zm0-8c-.163-.088-.324-.134-.77-.134h-1.436c-.446 0-.607.046-.77.134a.908.908 0 0 0-.378.378c-.088.162-.134.324-.134.77v1.436c0 .446.046.608.134.77a.906.906 0 0 0 .378.378c.163.088.324.134.77.134h1.436c.446 0 .607-.046.77-.134a.908.908 0 0 0 .378-.378c.088-.162.134-.324.134-.77v-1.436c0-.446-.046-.607-.134-.77a.908.908 0 0 0-.378-.378Zm0 16c-.163-.088-.324-.134-.77-.134h-1.436c-.394 0-.49.414-.211.693l2.236 2.236c.279.279.693.183.693-.21v-1.437c0-.446-.046-.608-.133-.77a.908.908 0 0 0-.379-.378Z" clip-rule="evenodd"/></svg>
