<svg xmlns="http://www.w3.org/2000/svg" width="56" height="56" fill="currentColor" viewBox="0 0 56 56"><path fill-rule="evenodd" d="M19.036 4h6.928c1.626 0 2.937 0 3.999.087 1.093.09 2.053.278 2.942.73a7.5 7.5 0 0 1 3.277 3.278c.453.889.642 1.849.731 2.942C37 12.1 37 13.41 37 15.036V19.5a1.5 1.5 0 0 1-3 0v-4.4c0-1.705-.001-2.893-.077-3.819-.074-.907-.212-1.429-.413-1.824a4.5 4.5 0 0 0-1.967-1.967c-.395-.2-.917-.34-1.824-.413C28.793 7 27.605 7 25.9 7h-6.8c-1.705 0-2.893.001-3.819.077-.907.074-1.429.212-1.824.413a4.5 4.5 0 0 0-1.966 1.967c-.202.395-.34.917-.414 1.824C11 12.207 11 13.395 11 15.1v25.8c0 1.705.001 2.893.077 3.819.074.907.212 1.429.414 1.824a4.5 4.5 0 0 0 1.966 1.967c.395.2.917.34 1.824.413.926.076 2.114.077 3.819.077h8.4a1.5 1.5 0 0 1 0 3h-8.464c-1.626 0-2.937 0-3.999-.087-1.093-.09-2.054-.278-2.942-.73a7.5 7.5 0 0 1-3.278-3.278c-.452-.889-.641-1.849-.73-2.942C8 43.9 8 42.59 8 40.964V15.036c0-1.626 0-2.937.087-3.999.09-1.093.278-2.053.73-2.942a7.5 7.5 0 0 1 3.278-3.278c.888-.452 1.849-.641 2.942-.73C16.1 4 17.41 4 19.036 4Z M24.588 31c1.697-3.698 5.22-6.385 9.413-6.907A17.965 17.965 0 0 0 30.204 31h-5.616Zm-.71 2a12.022 12.022 0 0 0-.378 3c0 1.036.131 2.041.378 3h5.87a18.118 18.118 0 0 1 0-6h-5.87Zm7.902 0a16.09 16.09 0 0 0-.28 3c0 1.026.096 2.028.28 3h7.44c.184-.972.28-1.974.28-3a16.09 16.09 0 0 0-.28-3h-7.44Zm9.471 0a18.12 18.12 0 0 1 0 6h5.871a12.02 12.02 0 0 0 .378-3c0-1.036-.131-2.041-.378-3h-5.87Zm5.161-2h-5.616A17.965 17.965 0 0 0 37 24.093c4.194.522 7.716 3.209 9.413 6.907Zm0 10h-5.615a17.967 17.967 0 0 1-3.798 6.907c4.194-.522 7.716-3.209 9.413-6.907Zm-7.709 0h-6.406a15.982 15.982 0 0 0 3.203 5.583A15.982 15.982 0 0 0 38.703 41Zm-8.5 0h-5.615c1.697 3.698 5.22 6.385 9.413 6.907A17.967 17.967 0 0 1 30.204 41Zm8.5-10h-6.406a15.98 15.98 0 0 1 3.203-5.583A15.98 15.98 0 0 1 38.703 31Z"/></svg>
