<?xml version="1.0" encoding="UTF-8"?>
<svg width="56px" height="56px" viewBox="0 0 56 56" version="1.1" xmlns="http://www.w3.org/2000/svg" xmlns:xlink="http://www.w3.org/1999/xlink">
    <!-- Generator: Sketch 61.2 (89653) - https://sketch.com -->
    <title>Icons 56/wifi_outline_56</title>
    <desc>Created with Sketch.</desc>
    <g id="Icons-56/wifi_outline_56" stroke="none" stroke-width="1" fill="none" fill-rule="evenodd">
        <g id="wifi_outline_56">
            <rect x="0" y="0" width="56" height="56"></rect>
            <path d="M28,39.5 C29.1045695,39.5 30,40.3954305 30,41.5 C30,42.6045695 29.1045695,43.5 28,43.5 C26.8954305,43.5 26,42.6045695 26,41.5 C26,40.3954305 26.8954305,39.5 28,39.5 Z M28,30 C30.6936651,30 33.2733174,30.7920193 35.4693906,32.2530875 C36.1591154,32.7119679 36.3462518,33.6430964 35.8873714,34.3328211 C35.428491,35.0225459 34.4973625,35.2096823 33.8076377,34.7508019 C32.1001438,33.6147902 30.097737,33 28,33 C25.9031742,33 23.9015907,33.6142541 22.1945591,34.7493407 C21.5047192,35.2080481 20.5736377,35.0206783 20.1149303,34.3308384 C19.6562229,33.6409986 19.8435928,32.7099171 20.5334326,32.2512097 C22.7289152,30.7913287 25.3075068,30 28,30 Z M28,21 C33.3103099,21 38.3242969,22.9342531 42.2245244,26.3778649 C42.8455338,26.9261703 42.9044722,27.8740872 42.3561668,28.4950967 C41.8078615,29.1161062 40.8599445,29.1750445 40.2389351,28.6267391 C36.8817701,25.6626113 32.5719354,24 28,24 C23.4283182,24 19.1187051,25.6624258 15.7616117,28.6262564 C15.1405808,29.1745374 14.1926661,29.1155619 13.6443851,28.494531 C13.0961041,27.8735 13.1550796,26.9255854 13.7761106,26.3773044 C17.6762554,22.9340375 22.6899849,21 28,21 Z M28,12 C35.2857125,12 42.1635496,14.6528604 47.5149619,19.3767956 C48.136027,19.9250379 48.1950614,20.8729489 47.646819,21.494014 C47.0985767,22.115079 46.1506657,22.1741134 45.5296007,21.6258711 C40.7212222,17.3812966 34.5474446,15 28,15 C21.4530976,15 15.2797939,17.3809 10.4715684,21.6248391 C9.85047133,22.1730452 8.90256382,22.1139553 8.35435777,21.4928582 C7.80615171,20.8717611 7.86524159,19.9238536 8.48633871,19.3756475 C13.8375815,14.6524188 20.7148912,12 28,12 Z" id="↳-Icon-Color" fill="currentColor" fill-rule="nonzero"></path>
        </g>
    </g>
</svg>
