<svg fill="none" height="56" viewBox="0 0 56 56" width="56" xmlns="http://www.w3.org/2000/svg"><g fill="currentColor"><path d="m25.9642 4h-6.9284c-1.6257-.00001-2.9369-.00003-3.9987.08673-1.0933.08932-2.0536.27804-2.942.73072-1.4112.71905-2.5586 1.86641-3.27765 3.27762-.45268.88844-.6414 1.84872-.73072 2.94203-.08675 1.0618-.08674 2.373-.08673 3.9986v25.9285c-.00001 1.6257-.00002 2.9369.08673 3.9987.08932 1.0933.27804 2.0536.73072 2.942.71905 1.4112 1.86645 2.5586 3.27765 3.2776.8884.4527 1.8487.6414 2.942.7308 1.0618.0867 2.373.0867 3.9987.0867h10.9642c.8284 0 1.5-.6716 1.5-1.5s-.6716-1.5-1.5-1.5h-10.9c-1.7049 0-2.8934-.0012-3.8186-.0768-.9078-.0741-1.4293-.2124-1.8244-.4137-.8467-.4314-1.5351-1.1198-1.9665-1.9665-.2013-.3951-.3396-.9166-.4137-1.8244-.0756-.9252-.0768-2.1137-.0768-3.8186v-25.8c0-1.7049.0012-2.8934.0768-3.8186.0741-.9078.2124-1.42932.4137-1.82436.4314-.84673 1.1198-1.53514 1.9665-1.96657.3951-.20128.9166-.33954 1.8244-.41371.9252-.07559 2.1137-.07676 3.8186-.07676h6.8c1.7049 0 2.8934.00117 3.8186.07676.9078.07417 1.4293.21243 1.8244.41371.8467.43143 1.5351 1.11984 1.9665 1.96657.2013.39504.3396.91656.4137 1.82436.0756.9252.0768 2.1137.0768 3.8186v5.9c0 .8284.6716 1.5 1.5 1.5s1.5-.6716 1.5-1.5v-5.9642c0-1.6257 0-2.9369-.0867-3.9987-.0894-1.09331-.2781-2.05359-.7308-2.94203-.719-1.41121-1.8664-2.55857-3.2776-3.27762-.8884-.45268-1.8487-.6414-2.942-.73072-1.0618-.08676-2.373-.08674-3.9987-.08673z"/><path d="m48 36h-13v-10.193l13-1.807z"/><path d="m24 27.354v8.646h10v-10.001z"/><path d="m24 37h10v9.001l-10-1.355z"/><path d="m35 46.194v-9.194h13v11z"/></g></svg>
