<svg xmlns="http://www.w3.org/2000/svg" width="56" height="56" fill="currentColor" viewBox="0 0 56 56"><path fill-rule="evenodd" d="m48.897 20.23-4.412 4.336A5 5 0 0 1 40.981 26H35a5 5 0 0 1-5-5v-6.172a5 5 0 0 1 1.465-3.535l4.201-4.202A15.196 15.196 0 0 0 34 7c-8.284 0-15 6.716-15 15 0 1.578.243 3.094.69 4.515a3.613 3.613 0 0 1-.889 3.642L7.762 41.185a3.992 3.992 0 0 0-.001 5.65l1.404 1.404a4.008 4.008 0 0 0 5.665 0l11.034-11.036a3.612 3.612 0 0 1 3.638-.889C30.917 36.76 32.428 37 34 37c8.284 0 15-6.716 15-15 0-.6-.035-1.19-.103-1.77ZM38.252 4.505A18.045 18.045 0 0 0 34 4c-9.941 0-18 8.059-18 18 0 1.887.29 3.707.83 5.417a.612.612 0 0 1-.149.618L5.641 39.063a6.992 6.992 0 0 0-.003 9.893l1.404 1.404a7.008 7.008 0 0 0 9.909 0l11.034-11.035a.612.612 0 0 1 .617-.148A17.99 17.99 0 0 0 34 40c9.941 0 18-8.059 18-18 0-2.15-.377-4.212-1.068-6.123-.236-.653-1.064-.808-1.559-.321l-6.99 6.87A2 2 0 0 1 40.98 23H35a2 2 0 0 1-2-2v-6.172a2 2 0 0 1 .586-1.414l6.8-6.8c.495-.495.341-1.33-.317-1.565a17.856 17.856 0 0 0-1.782-.535l-.035-.009Z" clip-rule="evenodd"/></svg>
