<svg width="36" height="36" viewBox="0 0 36 36" fill="none" xmlns="http://www.w3.org/2000/svg">
<path fill-rule="evenodd" clip-rule="evenodd" d="M21.0221 9.98346H9.60367C5.67894 9.98346 2.49731 13.1651 2.49731 17.0898C2.49731 20.6143 5.06309 23.5395 8.42867 24.0995L9.27327 28.2342C9.69244 30.2862 11.6958 31.61 13.7478 31.1908C15.7999 30.7716 17.1236 28.7683 16.7044 26.7162L16.1896 24.1962H21.0219L26.1886 27.7285C28.6443 29.4074 31.9768 27.6489 31.9768 24.6741L31.9768 9.50568C31.9768 6.53091 28.6443 4.77237 26.1886 6.45127L21.0221 9.98346ZM21.777 21.6841V12.4957L27.5996 8.51506C28.396 7.97055 29.4768 8.54089 29.4768 9.50568L29.4768 24.6741C29.4768 25.6389 28.396 26.2092 27.5996 25.6647L21.777 21.6841ZM19.2739 12.4835V21.6962H15.6789L15.6789 21.6961H9.58545C7.04981 21.6863 4.99731 19.6278 4.99731 17.0898C4.99731 14.5458 7.05965 12.4835 9.60367 12.4835H19.2739ZM11 24.1962H13.638L14.255 27.2166C14.3978 27.9159 13.9467 28.5985 13.2475 28.7414C12.5482 28.8842 11.8655 28.4331 11.7227 27.7339L11 24.1962Z" fill="currentColor"/>
</svg>
