<svg xmlns="http://www.w3.org/2000/svg" width="36" height="36" fill="currentColor" viewBox="0 0 36 36"><path fill-rule="evenodd" d="M10 2.58a1.25 1.25 0 1 1 2.5 0v1.458c.42-.02.883-.033 1.395-.037L21.745 4c.657 0 1.238.013 1.755.038V2.58a1.25 1.25 0 1 1 2.5 0v1.762c.763.176 1.334.42 1.907.727a7.27 7.27 0 0 1 3.024 3.024c.609 1.137.97 2.267 1.051 4.907H32v2.5h-.001L32 21.744c0 3.567-.371 4.86-1.069 6.163a7.27 7.27 0 0 1-3.024 3.024l-.27.14c-1.223.607-2.572.929-5.893.929h-7.489l-.706-.005c-3.038-.048-4.243-.414-5.456-1.064a7.27 7.27 0 0 1-3.024-3.024l-.14-.27C4.322 26.414 4 25.065 4 21.744V13h.018c.082-2.64.442-3.77 1.05-4.907a7.27 7.27 0 0 1 3.025-3.024l.27-.14A7.2 7.2 0 0 1 10 4.342V2.58Zm13.5 3.956V8.08a1.25 1.25 0 1 0 2.5 0V6.945c.255.092.49.201.728.328a4.77 4.77 0 0 1 1.999 1.999c.48.897.698 1.773.757 3.728H6.516c.053-1.775.238-2.661.632-3.481l.125-.247a4.77 4.77 0 0 1 1.999-1.999c.237-.127.473-.236.728-.328V8.08a1.25 1.25 0 1 0 2.5 0V6.536c.5-.025 1.076-.036 1.755-.036h7.813c.542.004 1.014.015 1.432.036Zm-17 15.208V15.5h23v6.244l-.004.632c-.03 2.402-.24 3.365-.77 4.352a4.77 4.77 0 0 1-1.998 1.999c-1.07.572-2.11.773-4.984.773h-7.812c-2.63-.016-3.632-.223-4.66-.773a4.77 4.77 0 0 1-1.999-1.999c-.572-1.07-.773-2.11-.773-4.984Z" clip-rule="evenodd"/></svg>
