<svg fill="none" height="36" viewBox="0 0 36 36" width="36" xmlns="http://www.w3.org/2000/svg"><g fill="currentColor"><path d="m22.0086 24.0539c-.0086.0978-.0086.2139-.0086.4461 0 .2321 0 .3482.0086.4461.0951 1.0877.9575 1.9502 2.0453 2.0453.0979.0086.2139.0086.4461.0086s.3482 0 .4461-.0086c1.0878-.0951 1.9502-.9576 2.0453-2.0453.0086-.0979.0086-.214.0086-.4461 0-.2322 0-.3483-.0086-.4461-.0951-1.0878-.9575-1.9502-2.0453-2.0454-.0979-.0085-.2139-.0085-.4461-.0085s-.3482 0-.4461.0085c-1.0878.0952-1.9502.9576-2.0453 2.0454z"/><path clip-rule="evenodd" d="m10 2.57999c0-.69036.5596-1.25 1.25-1.25s1.25.55964 1.25 1.25v1.4576c.4207-.0203.883-.03245 1.3947-.03628l7.8498-.00132c.6577 0 1.2381.01263 1.7555.0376v-1.4576c0-.69036.5596-1.25 1.25-1.25s1.25.55964 1.25 1.25v1.76179c.7631.17668 1.3342.42021 1.9074.72674 1.3037.69723 2.3268 1.72038 3.0241 3.02408.6085 1.13783.9687 2.2676 1.0506 4.9074h.0179v2.5h-.0011l.0011 6.2444c0 3.5661-.3713 4.8593-1.0685 6.163-.6973 1.3037-1.7204 2.3268-3.0241 3.0241l-.2703.1395c-1.2226.6071-2.5725.929-5.8926.929h-7.489l-.7061-.0053c-3.0383-.0475-4.24299-.4141-5.45678-1.0632-1.30371-.6973-2.32686-1.7204-3.02409-3.0241l-.13959-.2704c-.60709-1.2225-.92894-2.5724-.92894-5.8926v-8.7444h.01794c.08182-2.6398.44208-3.76957 1.05059-4.9074.69723-1.3037 1.72038-2.32685 3.02409-3.02408l.27033-.13959c.48673-.2417.99365-.43819 1.63705-.58715zm13.5 3.95593v1.54407c0 .69035.5596 1.25 1.25 1.25s1.25-.55965 1.25-1.25v-1.13493c.2549.09228.4909.20099.7284.32799.868.46423 1.5343 1.13052 1.9985 1.99855.4799.8973.6986 1.7737.7567 3.7284h-22.9672c.05275-1.7754.23801-2.6612.63113-3.48117l.12553-.24723c.46423-.86803 1.13052-1.53432 1.99855-1.99855.23747-.127.47348-.23571.72839-.32799v1.13493c0 .69035.5596 1.25 1.25 1.25s1.25-.55965 1.25-1.25v-1.54407c.4991-.0247 1.0761-.03593 1.7555-.03593l7.8125.0009c.5416.00311 1.0141.01434 1.432.03503zm-17 15.20848v-6.2444h23v6.2444l-.0036.6315c-.0295 2.4026-.2413 3.3648-.7695 4.3525-.4642.868-1.1305 1.5343-1.9985 1.9985-1.0699.5722-2.1101.7731-4.9839.7731l-7.8125-.0009c-2.6304-.0151-3.6316-.222-4.66039-.7722-.86803-.4642-1.53432-1.1305-1.99855-1.9985-.5722-1.07-.77306-2.1101-.77306-4.984z" fill-rule="evenodd"/></g></svg>
