<svg fill="none" height="36" viewBox="0 0 36 36" width="36" xmlns="http://www.w3.org/2000/svg"><g fill="currentColor"><path d="m23 19c0 2.7614-2.2386 5-5 5s-5-2.2386-5-5 2.2386-5 5-5 5 2.2386 5 5z"/><path clip-rule="evenodd" d="m21.5566 5c1.0347 0 1.6412.30423 2.2354 1.00946.0142.01689.1308.16283.3066.38278.201.25159.4794.60003.7705.96295.5455.68018 1.6565 1.43269 2.6764 1.43269h.6818c3.2727 0 4.7727 2.02022 4.7727 5.38722v10.4377c0 2.9753-2.4421 5.3872-5.4545 5.3872h-19.09095c-3.01247 0-5.45455-2.4119-5.45455-5.3872v-10.4377c0-3.367 1.5-5.38722 4.77273-5.38722h.68182c1.01985 0 2.13085-.75251 2.67635-1.43269.291-.36288.5694-.71128.7704-.96287.1758-.22.2925-.36597.3067-.38286.5942-.70523 1.2007-1.00946 2.2354-1.00946zm3.4434 14c0 3.866-3.134 7-7 7s-7-3.134-7-7 3.134-7 7-7 7 3.134 7 7z" fill-rule="evenodd"/></g></svg>
