<svg xmlns="http://www.w3.org/2000/svg" width="36" height="36" fill="currentColor" viewBox="0 0 36 36"><path d="M30.5 18c0-6.904-5.596-12.5-12.5-12.5S5.5 11.096 5.5 18 11.096 30.5 18 30.5V33C9.716 33 3 26.284 3 18 3 9.716 9.716 3 18 3c8.284 0 15 6.716 15 15 0 8.284-6.716 15-15 15v-2.5c6.904 0 12.5-5.596 12.5-12.5Z"/><path d="M22.856 12.976a1.25 1.25 0 0 1 1.788 1.748L16.07 23.49c-.025.026-.096.1-.17.165a1.45 1.45 0 0 1-1.904 0c-.074-.064-.146-.14-.17-.165l-3.47-3.548a1.251 1.251 0 0 1 1.787-1.748l2.805 2.868 7.907-8.086Z"/></svg>
