<svg xmlns="http://www.w3.org/2000/svg" width="36" height="36" viewBox="0 0 36 36" fill="currentColor"><path d="M31.995 26.707C31.801 31.037 25.51 34 18 34c-7.63 0-14-3.058-14-7.5v-16C4 6.058 10.37 3 18 3c7.51 0 13.8 2.963 13.995 7.293L32 10.5v16zM18 18c-4.42 0-8.419-1.027-11-2.754V18.5c0 2.185 4.822 4.5 11 4.5s11-2.315 11-4.5v-3.255C26.42 16.973 22.422 18 18 18m0-12C11.822 6 7 8.315 7 10.5S11.822 15 18 15s11-2.315 11-4.5S24.178 6 18 6m11 17.245C26.42 24.973 22.422 26 18 26c-4.42 0-8.419-1.027-11-2.754V26.5l.005.12C7.175 28.768 11.935 31 18 31c6.178 0 11-2.315 11-4.5z"/></svg>