<svg fill="none" height="36" viewBox="0 0 36 36" width="36" xmlns="http://www.w3.org/2000/svg"><path d="m11.0054 23.1075c.1445 1.4347 3.1538 2.8925 6.9946 2.8925 3.9369 0 7-1.5316 7-3l.0015-1.7943c-1.6619 1.1246-4.2011 1.7943-7.0015 1.7943-2.7998 0-5.3386-.6694-7.0005-1.7936l.0005 1.7936zm13.9961-6.9018c-1.6619 1.1246-4.2011 1.7943-7.0015 1.7943-2.7998 0-5.3386-.6694-7.0005-1.7936l.0005 1.7936c0 1.4684 3.0631 3 7 3s7-1.5316 7-3zm-7.0015-6.2057c-3.9369 0-7 1.5316-7 3s3.0631 3 7 3 7-1.5316 7-3-3.0631-3-7-3zm-9 3 .00489-.1759c.15944-2.85514 4.19341-4.8241 8.99511-4.8241 4.8997 0 9 2.0501 9 5v10l-.0049.1759c-.1594 2.8551-4.1934 4.8241-8.9951 4.8241-4.8997 0-9-2.0501-9-5z" fill="currentColor"/>
</svg>