<svg fill="none" height="36" viewBox="0 0 36 36" width="36" xmlns="http://www.w3.org/2000/svg"><path d="m23 6c4.8017 0 8.8357 1.96896 8.9951 4.8241l.0049.1759v15l-.0049.1759c-.1594 2.8551-4.1934 4.8241-8.9951 4.8241-4.3474 0-8.0654-1.614-8.8484-4.0384-.3768.0254-.7617.0384-1.1516.0384-4.8997 0-9-2.0501-9-5v-10l.00489-.1759c.15944-2.85514 4.1934-4.8241 8.99511-4.8241 1.2901 0 2.5248.14214 3.6439.40541 1.6378-.88867 3.8962-1.40541 6.3561-1.40541zm7.0015 18.2057c-1.6619 1.1246-4.2011 1.7943-7.0015 1.7943-2.7998 0-5.3386-.6694-7.0005-1.7936l.0005 1.7936.0054.1075c.1445 1.4347 3.1538 2.8925 6.9946 2.8925s6.8501-1.4578 6.9946-2.8925l.0054-.1075zm-24.00199-3.9993.00049 1.7936.00543.1075c.14451 1.4347 3.15374 2.8925 6.99457 2.8925.3406 0 .6747-.0115 1.0008-.0334l.0002-2.9955c-.3291.0192-.6632.0289-1.001.0289-2.7998 0-5.33863-.6694-7.00049-1.7936zm24.00199-1.0007c-1.6619 1.1246-4.2011 1.7943-7.0015 1.7943-2.7998 0-5.3386-.6694-7.0005-1.7936l.0005 1.7936c0 1.4684 3.0631 3 7 3 3.8408 0 6.8501-1.4578 6.9946-2.8925l.0054-.1075zm-24.00199-3.9993.00049 1.7936c0 1.4684 3.06315 3 7 3 .3406 0 .6747-.0115 1.0008-.0334l.0002-2.9955c-.3291.0192-.6632.0289-1.001.0289-2.7998 0-5.33863-.6694-7.00049-1.7936zm24.00199-1.0007c-1.6619 1.1246-4.2011 1.7943-7.0015 1.7943-2.7998 0-5.3386-.6694-7.0005-1.7936l.0005 1.7936c0 1.4684 3.0631 3 7 3 3.8408 0 6.8501-1.4578 6.9946-2.8925l.0054-.1075zm-17.0015-5.2057c-3.93685 0-7 1.5316-7 3s3.06315 3 7 3c.3406 0 .6747-.0115 1.0008-.0334l-.0008-3.9666.0049-.1759c.0348-.624.2547-1.20562.6273-1.73364-.5209-.05895-1.0675-.09046-1.6322-.09046zm10-1c-3.9369 0-7 1.53157-7 3 0 1.4684 3.0631 3 7 3s7-1.5316 7-3c0-1.46843-3.0631-3-7-3z" fill="currentColor"/>
</svg>