<svg xmlns="http://www.w3.org/2000/svg" width="36" height="36" fill="currentColor" viewBox="0 0 36 36"><path d="M19.414 19.414a2 2 0 1 1-2.828-2.828 2 2 0 0 1 2.828 2.828Z"/><path fill-rule="evenodd" d="M7.393 28.607c5.858 5.858 15.356 5.858 21.214 0 5.858-5.858 5.858-15.356 0-21.214-5.858-5.857-15.356-5.857-21.214 0-5.857 5.858-5.857 15.356 0 21.214Zm8.11-15.286 8.598-2.15a.6.6 0 0 1 .727.728l-2.149 8.597a3 3 0 0 1-2.183 2.183L11.9 24.83a.6.6 0 0 1-.727-.728l2.149-8.597a3 3 0 0 1 2.183-2.183Z" clip-rule="evenodd"/></svg>
