<svg xmlns="http://www.w3.org/2000/svg" width="36" height="36" fill="currentColor" viewBox="0 0 36 36"><path d="M14.074 13.292a1.25 1.25 0 0 1 1.318 1.179l.642 11.571a1.25 1.25 0 0 1-2.496.139l-.643-11.572a1.25 1.25 0 0 1 1.18-1.317Zm7.852 0a1.25 1.25 0 0 1 1.179 1.317l-.643 11.572a1.25 1.25 0 0 1-2.496-.139l.642-11.571a1.25 1.25 0 0 1 1.318-1.179Z M18 3.004a5.751 5.751 0 0 1 5.612 4.5H31.5a1.25 1.25 0 0 1 0 2.5h-1.344l-1.696 16.38c-.1.958-.18 1.748-.298 2.389-.105.573-.25 1.1-.509 1.592l-.117.21a5.108 5.108 0 0 1-1.86 1.805l-.335.173c-.582.274-1.191.385-1.856.437-.649.05-1.443.05-2.407.05h-6.156c-.964 0-1.758 0-2.407-.05-.582-.045-1.12-.136-1.636-.342l-.22-.095a5.107 5.107 0 0 1-1.988-1.664l-.207-.315c-.333-.55-.506-1.146-.626-1.802-.059-.32-.108-.677-.155-1.075l-.143-1.313-1.696-16.38H4.5a1.25 1.25 0 1 1 0-2.5h7.888A5.751 5.751 0 0 1 18 3.004Zm-7.973 23.122.138 1.276c.043.36.084.66.132.92.093.507.193.772.306.96l.106.16c.259.364.609.657 1.016.849l.165.066c.184.062.434.111.819.141.53.041 1.21.042 2.213.042h6.156c1.003 0 1.684 0 2.213-.042.514-.04.786-.114.984-.207l.171-.088a2.6 2.6 0 0 0 .95-.922l.082-.158c.081-.177.155-.42.225-.8.096-.523.166-1.2.27-2.197l1.67-16.122H8.357l1.671 16.122ZM18 5.504a3.25 3.25 0 0 0-3 2h6a3.25 3.25 0 0 0-3-2Z" clip-rule="evenodd"/></svg>
