<svg fill="none" height="36" viewBox="0 0 36 36" width="36" xmlns="http://www.w3.org/2000/svg"><path d="m4.00054 14.9646.00029-.0115c.00095-.0203.00253-.0406.00474-.061.00101-.0069.00191-.0145.00291-.0221.00211-.0167.00332-.0247.00463-.0327.00264-.0161.00569-.032.00914-.0479.00263-.0117.00542-.0236.00842-.0355l.00387-.0155c.00154-.0056.00313-.0113.00477-.017.01137-.0385.02518-.0771.04155-.1153l-.03251.0863c.00759-.0236.01607-.0469.02544-.07.00616-.0151.01265-.03.01953-.0447.0099-.0214.02091-.043.03274-.0643.01019-.0179.02042-.0351.03111-.0519.00855-.0136.01793-.0275.02769-.0412.00362-.005.00709-.0098.0106-.0146l.01236-.0157 4.48386-5.98138c.04482-.06113.09751-.11804.15806-.16924.01044-.00831.02026-.01638.0302-.02424.03814-.03014.07957-.05804.12392-.08338l-.0803.05077c.02205-.01555.04463-.03014.06768-.04374l.01262-.00703 3.50004-2c.1511-.08634.3221-.13176.4961-.13176h10c.174 0 .345.04542.4961.13176l3.5 2c.0061.00346.0121.00696.018.01051.0218.01273.0436.02694.0649.04205.0133.00942.0254.01837.0372.02751.0143.01144.0292.02381.0438.03665.0572.04907.1062.10274.1483.16014l4.4917 5.99138c.0069.0089.0092.0121.0115.0153.0131.0181.0256.0367.0374.0557.0262.0423.0499.0875.0702.1351l-.0452-.0927c.0119.0213.0229.0429.0331.0648l.0163.0371c.0095.0233.0156.0396.0214.0561.005.0148.0098.0296.0142.0445.0032.0102.0036.0119.0041.0136l.0026.0102c.0038.0139.0072.0279.0103.042.0035.015.0066.0302.0093.0455l.0017.0101c.0013.008.0025.016.0036.0241.0016.0125.003.0244.0043.0364.0016.0133.0028.0273.0036.0412l.0006.0145c.0003.0064.0005.0127.0007.0191.0003.0138.0004.0275.0002.0412-.0001.0247-.0014.0498-.0036.0747-.0012.0124-.0025.0244-.004.0365-.0014.0114-.0031.0233-.0051.0352l-.0035.0196c-.0016.0086-.0033.0173-.0051.0259-.003.0151-.0064.0298-.0102.0444-.0016.0055-.0031.0115-.0048.0174l-.0062.0216c-.0036.0117-.0073.0233-.0112.0349-.0035.0107-.0074.0214-.0114.032-.0022.0049-.0042.0102-.0063.0154l-.0113.0274c-.0049.0113-.01.0225-.0153.0336s-.0105.0214-.0158.0317c-.0065.0118-.013.0237-.0197.0354l.0003-.0003-.0179.0301c-.0016.0024-.0031.0048-.0046.0073-.0263.041-.0557.0805-.0885.1183l.0696-.09c-.0098.0144-.0201.0287-.0308.0426-.0066.0088-.0137.0178-.0209.0266-.009.0109-.0181.0215-.0274.032l-12.9703 14.9665c-.0825.1026-.1813.1837-.2895.2434l-.0243.0113c-.0039.0021-.0078.0041-.0117.006-.0301.0166-.0613.0302-.0931.0421-.0064.0014-.013.0039-.0197.0063-.0303.0116-.061.0207-.092.0284-.0076.0014-.0153.0033-.023.005-.0304.0072-.0612.0126-.0921.0166-.0094.001-.0184.0021-.0275.003-.0283.003-.0571.0047-.086.0052-.0113.0001-.0227.0001-.034 0-.0287-.0005-.0574-.0022-.086-.0051-.009-.001-.018-.002-.027-.0032-.031-.0038-.062-.0092-.0927-.0161-.0077-.0022-.0154-.004-.023-.0059-.0293-.0068-.0585-.0154-.0873-.0254-.0091-.0041-.0184-.0075-.0277-.0111-.1551-.058-.2971-.1562-.4097-.2938l-12.98529-14.9844c-.00596-.0066-.00949-.0107-.01297-.0149-.01094-.0131-.02171-.0267-.03209-.0406-.00972-.0131-.0193-.0266-.02853-.0404-.00127-.0019-.00197-.0029-.00267-.004l-.00892-.0133c-.00907-.0141-.01777-.0283-.02609-.0428l-.01529-.0281c-.00261-.0049-.00518-.0098-.00771-.0147-.00151-.0025-.00271-.0049-.00391-.0072-.01099-.0224-.01756-.0367-.02379-.0511-.00607-.0144-.01206-.0292-.0177-.0441-.00222-.0051-.00422-.0105-.00617-.016l-.00463-.0137c-.00395-.0116-.00768-.0232-.0112-.0349-.00526-.0175-.01-.0349-.01428-.0524-.00257-.0099-.00491-.0203-.00709-.0307l.00002-.0003c-.00178-.0091-.00237-.012-.00294-.015-.00427-.0214-.00772-.0428-.01048-.0643-.00077-.0065-.00159-.0135-.00234-.0206l-.00159-.017c-.00068-.0077-.00128-.0154-.00179-.023-.00141-.0183-.00212-.0364-.00233-.0545.00014-.0075.00015-.0155.00025-.0235zm18.38026 4.0354h-8.763l4.3822 8.7639zm5.013-1.367-2.664 1.142-2.284 4.568zm-18.78998 0 4.94798 5.708-2.283-4.567zm13.52898-5.633h-8.266l-.714 5h9.694zm-12.36298-1.694-3.206 4.276 4.62998 1.985.72-5.036zm16.45998 0-2.144 1.225.719 5.035 4.631-1.985zm-3.4954-2.306h-9.4688l-1.75 1 1.75 1h9.4688l1.75-1z" fill="currentColor"/>
</svg>