<svg fill="none" height="36" viewBox="0 0 36 36" width="36" xmlns="http://www.w3.org/2000/svg"><g fill="currentColor"><path d="m22.8321 12.5547c.3063-.4595.1821-1.0804-.2774-1.3867-.4595-.3064-1.0804-.1822-1.3867.2773l-8 12c-.3064.4595-.1822 1.0804.2773 1.3867.4595.3064 1.0804.1822 1.3868-.2773z"/><g clip-rule="evenodd" fill-rule="evenodd"><path d="m19.5 21.25c0-1.5188 1.2312-2.75 2.75-2.75s2.75 1.2312 2.75 2.75v1c0 1.5188-1.2312 2.75-2.75 2.75s-2.75-1.2312-2.75-2.75zm2.75-.75c-.4142 0-.75.3358-.75.75v1c0 .4142.3358.75.75.75s.75-.3358.75-.75v-1c0-.4142-.3358-.75-.75-.75z"/><path d="m13.75 11c-1.5188 0-2.75 1.2312-2.75 2.75v1c0 1.5188 1.2312 2.75 2.75 2.75s2.75-1.2312 2.75-2.75v-1c0-1.5188-1.2312-2.75-2.75-2.75zm-.75 2.75c0-.4142.3358-.75.75-.75s.75.3358.75.75v1c0 .4142-.3358.75-.75.75s-.75-.3358-.75-.75z"/><path d="m20.917 4.24886c-1.6098-1.66604-4.2799-1.66604-5.8897 0l-.9673 1.00107c-.334.34566-.8085.51837-1.2866.46826l-1.3793-.14457c-2.30688-.24179-4.35484 1.47665-4.51731 3.79049l-.09714 1.38349c-.03367.4795-.28614.9168-.68455 1.1857l-1.15384.7787c-1.92026 1.296-2.38393 3.9256-1.02274 5.8003l.8179 1.1264c.28241.389.3701.8862.23774 1.3483l-.38331 1.3382c-.63793 2.2272.69715 4.5396 2.94487 5.1007l1.35061.3372c.46635.1164.85316.441 1.04879.88l.56658 1.2716c.9429 2.1161 3.452 3.0294 5.5345 2.0144l1.2514-.6099c.4321-.2106.937-.2106 1.3691 0l1.2513.6099c2.0826 1.015 4.5917.1017 5.5346-2.0144l.5665-1.2716c.1957-.439.5825-.7636 1.0488-.88l1.3506-.3372c2.2478-.5611 3.5829-2.8735 2.9449-5.1007l-.3833-1.3382c-.1323-.4621-.0447-.9593.2377-1.3483l.818-1.1264c1.3611-1.8747.8975-4.5043-1.0228-5.8003l-1.1538-.7787c-.3984-.2689-.6509-.7062-.6846-1.1857l-.0975-1.38865c-.1623-2.31102-2.2077-4.02737-4.5118-3.78587l-1.3845.14511c-.478.05011-.9525-.1226-1.2865-.46826zm-4.0919 1.73716c.627-.64892 1.667-.64892 2.2941 0l.9672 1.00108c.8684.89872 2.1021 1.34775 3.345 1.21747l1.3845-.14511c.8974-.09406 1.6942.57446 1.7574 1.47459l.0975 1.38865c.0875 1.2466.7439 2.3836 1.7798 3.0827l1.1538.7788c.748.5048.9286 1.529.3984 2.2592l-.8179 1.1264c-.7343 1.0113-.9623 2.3042-.6181 3.5056l.3833 1.3383c.2484.8674-.2716 1.7681-1.1471 1.9867l-1.3506.3371c-1.2125.3027-2.2182 1.1466-2.7268 2.2881l-.5666 1.2716c-.3672.8242-1.3445 1.1799-2.1557.7846l-1.2513-.6099c-1.1234-.5475-2.4363-.5475-3.5597 0l-1.2513.6099c-.8112.3953-1.7885.0396-2.1557-.7846l-.5666-1.2716c-.5086-1.1415-1.5144-1.9854-2.72687-2.2881l-1.3506-.3371c-.87549-.2186-1.3955-1.1193-1.14703-1.9868l.38331-1.3382c.34413-1.2014.11615-2.4943-.61812-3.5056l-.81791-1.1264c-.53018-.7302-.34958-1.7544.39836-2.2592l1.15384-.7788c1.03586-.6991 1.6923-1.8361 1.77983-3.0827l.09714-1.38348c.0634-.90297.86265-1.57358 1.76285-1.47922l1.3793.14457c1.2429.13028 2.4766-.31875 3.345-1.21747z"/></g></g></svg>
