<svg fill="none" height="36" viewBox="0 0 36 36" width="36" xmlns="http://www.w3.org/2000/svg"><path clip-rule="evenodd" d="m22.9484 3.65309c-.3876-.2424-.7818-.40567-1.2273-.50835-.4454-.10267-.8474-.14474-2.0093-.14474h-7.9431c-2.00588 0-2.73327.20886-3.4666.60105-.73334.39219-1.30886.96771-1.70105 1.70105-.39219.73333-.60105 1.46072-.60105 3.46664v16.96256c0 2.0059.20886 2.7333.60105 3.4666s.96771 1.3089 1.70105 1.7011c.73333.3921 1.46072.601 3.4666.601h13.9626c2.0059 0 2.7333-.2089 3.4666-.601.7333-.3922 1.3089-.9678 1.7011-1.7011.3921-.7333.601-1.4607.601-3.4666v-10.9431c0-1.1619-.0421-1.5639-.1447-2.0093-.1027-.4455-.266-.8397-.5084-1.2273s-.4969-.7016-1.3185-1.5232l-5.0568-5.05683c-.8216-.82161-1.1356-1.07607-1.5232-1.31848zm-2.0965 2.51117c-.3156-.31278-.8519-.08921-.8519.35515v5.98059c0 .2761.2239.5.5.5h6.0351c.4466 0 .6691-.5408.352-.8552z" fill="currentColor" fill-rule="evenodd"/></svg>
