<svg fill="none" height="36" viewBox="0 0 36 36" width="36" xmlns="http://www.w3.org/2000/svg"><path clip-rule="evenodd" d="m31.6339 8.36673c.4881.48897.4881 1.28174 0 1.77067l-17.0237 17.0522c-.0022.0022-.0047.0047-.0076.0076-.0298.03-.0951.0956-.1622.1527-.0846.0719-.2501.2002-.4923.279-.2912.0948-.605.0948-.8962 0-.2422-.0788-.4077-.2071-.4923-.279-.0671-.0571-.1324-.1227-.1622-.1527-.0029-.0029-.0054-.0054-.0076-.0076l-7.02368-7.0354c-.48816-.489-.48816-1.2818 0-1.7708.48815-.4889 1.27961-.4889 1.76776 0l6.36612 6.3768 16.3661-16.39347c.4882-.48897 1.2796-.48897 1.7678 0z" fill="currentColor" fill-rule="evenodd"/></svg>
