<svg xmlns="http://www.w3.org/2000/svg" width="36" height="36" fill="currentColor" viewBox="0 0 36 36"><path d="M17.625 5.025c0-.41.45-.662.8-.447l6.452 3.966a.525.525 0 0 1 0 .894l-6.452 3.966a.525.525 0 0 1-.8-.447v-2.84a9.375 9.375 0 0 0 0 18.75 9.378 9.378 0 0 0 9.213-7.63 1.125 1.125 0 0 1 2.211.417 11.628 11.628 0 0 1-11.424 9.462C11.205 31.116 6 25.911 6 19.491S11.205 7.866 17.625 7.866v-2.84Z M14.793 23.841a.525.525 0 0 1-.525-.525V17.95l-1.301.511a.42.42 0 0 1-.574-.39v-.73c0-.211.127-.402.32-.484l2.768-1.17a.525.525 0 0 1 .73.483v7.147c0 .29-.235.525-.525.525h-.893Zm3.371-2.317a.904.904 0 0 0-.214.61c0 .322.125.625.376.912.251.287.595.518 1.03.692.436.175.916.262 1.442.262.64 0 1.202-.123 1.687-.37a2.67 2.67 0 0 0 1.12-1.044c.264-.45.395-.97.395-1.564 0-.534-.109-1.003-.327-1.409a2.344 2.344 0 0 0-.915-.944c-.392-.225-.845-.337-1.36-.337-.345 0-.665.057-.959.171-.294.115-.512.266-.653.455h-.1l.13-1.781h2.954c.286 0 .505-.068.656-.202.151-.134.227-.326.227-.575 0-.252-.077-.449-.23-.59-.153-.14-.37-.21-.653-.21h-3.343c-.734 0-1.122.323-1.165.969l-.195 2.924a1.01 1.01 0 0 0 .103.53c.08.156.196.277.348.364a1.02 1.02 0 0 0 .868.06c.114-.046.241-.125.382-.238a2.27 2.27 0 0 1 .55-.298c.19-.07.376-.105.557-.105.243 0 .462.053.656.16.194.106.345.255.453.448.108.192.162.413.162.662 0 .26-.057.491-.17.692-.114.2-.272.357-.474.469a1.395 1.395 0 0 1-.686.169 1.48 1.48 0 0 1-.73-.184 2.203 2.203 0 0 1-.636-.569 1.13 1.13 0 0 0-.338-.288.823.823 0 0 0-.385-.09.706.706 0 0 0-.563.249Z"/></svg>
