<svg fill="none" height="36" viewBox="0 0 36 36" width="36" xmlns="http://www.w3.org/2000/svg"><g fill="currentColor"><path d="m11.2857 13.2857c0-.6904.5597-1.25 1.25-1.25.6904 0 1.25.5596 1.25 1.25v1.5h1.5c.6904 0 1.25.5596 1.25 1.25s-.5596 1.25-1.25 1.25h-1.5v1.5c0 .6904-.5596 1.25-1.25 1.25-.6903 0-1.25-.5596-1.25-1.25v-1.5h-1.49999c-.69035 0-1.25-.5596-1.25-1.25s.55965-1.25 1.25-1.25h1.49999z"/><path d="m19.4657 16.0357c0-.2323 0-.3485.0192-.4451.0789-.3967.389-.7068.7857-.7857.0966-.0192.2128-.0192.4451-.0192s.3485 0 .4451.0192c.3967.0789.7068.389.7857.7857.0192.0966.0192.2128.0192.4451s0 .3485-.0192.4451c-.0789.3967-.389.7068-.7857.7857-.0966.0192-.2128.0192-.4451.0192s-.3485 0-.4451-.0192c-.3967-.0789-.7068-.389-.7857-.7857-.0192-.0966-.0192-.2128-.0192-.4451z"/><path d="m24.4849 15.5906c-.0192.0966-.0192.2128-.0192.4451s0 .3485.0192.4451c.0789.3967.389.7068.7857.7857.0966.0192.2128.0192.4451.0192s.3485 0 .4451-.0192c.3967-.0789.7068-.389.7857-.7857.0192-.0966.0192-.2128.0192-.4451s0-.3485-.0192-.4451c-.0789-.3967-.389-.7068-.7857-.7857-.0966-.0192-.2128-.0192-.4451-.0192s-.3485 0-.4451.0192c-.3967.0789-.7068.389-.7857.7857z"/><path d="m21.9657 13.5357c0-.2323 0-.3485.0192-.4451.0789-.3967.389-.7068.7857-.7857.0966-.0192.2128-.0192.4451-.0192s.3485 0 .4451.0192c.3967.0789.7068.389.7857.7857.0192.0966.0192.2128.0192.4451s0 .3485-.0192.4451c-.0789.3967-.389.7068-.7857.7857-.0966.0192-.2128.0192-.4451.0192s-.3485 0-.4451-.0192c-.3967-.0789-.7068-.389-.7857-.7857-.0192-.0966-.0192-.2128-.0192-.4451z"/><path d="m21.9849 18.0906c-.0192.0966-.0192.2128-.0192.4451s0 .3485.0192.4451c.0789.3967.389.7068.7857.7857.0966.0192.2128.0192.4451.0192s.3485 0 .4451-.0192c.3967-.0789.7068-.389.7857-.7857.0192-.0966.0192-.2128.0192-.4451s0-.3485-.0192-.4451c-.0789-.3967-.389-.7068-.7857-.7857-.0966-.0192-.2128-.0192-.4451-.0192s-.3485 0-.4451.0192c-.3967.0789-.7068.389-.7857.7857z"/><path clip-rule="evenodd" d="m14.0357 6h7.93c4.8253 0 8.0787 2.07665 9.877 5.6731 1.2362 2.4725 1.6587 5.2489 1.6587 8.434 0 5.4887-2.1722 8.9643-5.75 8.9643-1.9309 0-3.1085-.7703-4.8425-2.6158l-.5331-.5668c-1.4054-1.466-2.2404-1.8602-3.6244-1.8602h-1.5014c-1.4498 0-2.2973.4424-3.8292 2.0763l-.5514.5854c-1.6147 1.6763-2.7724 2.3811-4.6194 2.3811-3.57776 0-5.75-3.4756-5.75-8.9643 0-3.1851.4225-5.9615 1.65875-8.434 1.79824-3.59645 5.05166-5.6731 9.87695-5.6731zm7.93 2.53571h-7.93c-6.78838 0-9.0357 4.49459-9.0357 11.60709 0 4.2828 1.36348 6.4643 3.25 6.4643 1.04037 0 1.72265-.4463 3.0205-1.8276l.5594-.5942c1.8413-1.9175 3.1862-2.621 5.4201-2.621h1.5014c2.327 0 3.6893.7719 5.653 2.8665l.5167.5489c1.1768 1.2246 1.842 1.6274 2.8303 1.6274 1.8866 0 3.25-2.1815 3.25-6.4643 0-7.1125-2.2473-11.60709-9.0357-11.60709z" fill-rule="evenodd"/></g></svg>
