<svg xmlns="http://www.w3.org/2000/svg" width="36" height="36" fill="currentColor" viewBox="0 0 36 36"><path d="M16 17a2 2 0 1 0 0-4 2 2 0 0 0 0 4Zm10-2a2 2 0 1 1-4 0 2 2 0 0 1 4 0Z"/><path fill-rule="evenodd" d="M4 15.95V26.2c0 2.266.858 3.963 2.324 4.849 1.426.86 3.161.787 4.582.086.767-.379.927-.442 1.22-.466.27-.023.606.033.854.143.22.097.294.146.323.167.032.023.057.045.193.182.989 1 2.433 1.84 4.504 1.84 2.055 0 3.498-.82 4.49-1.802.146-.144.18-.174.22-.202.033-.024.107-.072.32-.165.249-.109.569-.162.84-.14.287.023.454.088 1.241.469 1.42.686 3.151.75 4.572-.114C31.143 30.159 32 28.464 32 26.2V15.906C31.72 8.094 24.524 3 18 3S4.28 8.094 4 15.906v.044Zm2.5.024V26.2c0 1.631.585 2.388 1.116 2.709.573.345 1.389.376 2.184-.016l.086-.042c.664-.328 1.226-.606 2.032-.674a4.382 4.382 0 0 1 2.072.348c.3.133.55.263.777.427.214.155.373.316.489.433l.018.018C15.864 30 16.693 30.5 18 30.5c1.308 0 2.14-.492 2.733-1.078l.019-.019c.122-.121.285-.282.497-.435.23-.166.48-.296.781-.428a4.35 4.35 0 0 1 2.042-.34c.794.065 1.363.34 2.036.666l.09.044c.796.384 1.612.35 2.186 0 .532-.323 1.116-1.08 1.116-2.71V15.973C29.266 9.796 23.469 5.5 18 5.5S6.734 9.797 6.5 15.974Z" clip-rule="evenodd"/></svg>
