<svg xmlns="http://www.w3.org/2000/svg" width="36" height="36" viewBox="0 0 36 36" fill="currentColor"><path d="M30.045 26.393a.574.574 0 0 0-1.09 0l-.436 1.31a2.87 2.87 0 0 1-1.816 1.816l-1.31.436a.574.574 0 0 0 0 1.09l1.31.436a2.87 2.87 0 0 1 1.816 1.816l.436 1.31a.574.574 0 0 0 1.09 0l.436-1.31a2.87 2.87 0 0 1 1.816-1.815l1.31-.437a.574.574 0 0 0 0-1.09l-1.31-.436a2.87 2.87 0 0 1-1.816-1.816zM26.566 5.247c-.722-.473-1.698-.246-2.18.504L18 15.926c-.855 1.129-1.83.013-1.52-1.185l3.45-7.513c.329-.83-.055-1.758-.858-2.074s-1.723.102-2.052.931l-3.134 6.719c-.293.753-4.113 8.472-4.114 4.645v-5.295c-.015-1.063-.871-1.89-1.913-1.847-1.041.043-1.874.94-1.859 2.005v11.596c.058 2.35 1.114 4.807 2.736 6.072l1.976 1.539c3.818 2.973 7.77 1.142 11.379-2.59l5.37-5.023 3.986-3.3c.66-.592.74-1.607.178-2.267s-1.556-.715-2.217-.123l-4.1 3.402c-.92.722-2.07-.173-1.386-1.079l6.635-7.122c.6-.657.576-1.672-.051-2.269-.628-.595-1.623-.545-2.223.112l-6.47 7.635c-1.396 1.177-2.11-.204-1.546-1.205l6.735-10.227c.481-.75.287-1.743-.436-2.216M10.363 2.262a.383.383 0 0 0-.726 0l-.291.874a1.91 1.91 0 0 1-1.21 1.21l-.874.29a.383.383 0 0 0 0 .727l.874.291c.57.19 1.02.64 1.21 1.21l.29.874c.117.35.611.35.727 0l.291-.874c.19-.57.64-1.02 1.21-1.21l.874-.29a.383.383 0 0 0 0-.727l-.874-.291a1.91 1.91 0 0 1-1.21-1.21z"/></svg>