<svg xmlns="http://www.w3.org/2000/svg" width="36" height="36" fill="currentColor" viewBox="0 0 36 36"><path fill-rule="evenodd" d="M15.65 3.031a1.25 1.25 0 0 1 .98 1.47l-1.4 7h8.14l1.498-7.49a1.25 1.25 0 0 1 2.452.491l-1.4 7h2.822a1.25 1.25 0 0 1 0 2.5H25.42L23.82 22h2.927a1.25 1.25 0 0 1 0 2.5H23.32l-1.5 7.502a1.25 1.25 0 0 1-2.452-.49L20.77 24.5h-8.138l-1.501 7.505a1.25 1.25 0 1 1-2.451-.49l1.4-7.015H7.25a1.25 1.25 0 1 1 0-2.5h3.332l1.6-7.999h-2.94a1.25 1.25 0 1 1 0-2.5h3.44l1.497-7.49a1.25 1.25 0 0 1 1.471-.98ZM21.27 22l1.6-7.999h-8.14L13.132 22h8.139Z" clip-rule="evenodd"/></svg>
