<svg fill="none" height="36" viewBox="0 0 36 36" width="36" xmlns="http://www.w3.org/2000/svg"><g clip-rule="evenodd" fill="currentColor" fill-rule="evenodd"><path d="m7.3934 7.3934c2.7131-2.7131 6.4648-4.3934 10.6066-4.3934s7.8935 1.6803 10.6066 4.3934 4.3934 6.4648 4.3934 10.6066-1.6803 7.8935-4.3934 10.6066-6.4648 4.3934-10.6066 4.3934-7.8935-1.6803-10.6066-4.3934-4.3934-6.4648-4.3934-10.6066 1.6803-7.8935 4.3934-10.6066zm10.6066-1.8934c-3.4521 0-6.5754 1.39774-8.83883 3.66117s-3.66117 5.38673-3.66117 8.83883 1.39774 6.5754 3.66117 8.8388c2.26343 2.2635 5.38673 3.6612 8.83883 3.6612s6.5754-1.3977 8.8388-3.6612c2.2635-2.2634 3.6612-5.3867 3.6612-8.8388s-1.3977-6.5754-3.6612-8.83883c-2.2634-2.26343-5.3867-3.66117-8.8388-3.66117z"/><path d="m9.75 16.3556c0-2.7488 2.2445-4.9556 4.9688-4.9556 1.2388 0 2.3345.4317 3.2754 1.203.9377-.774 2.0382-1.203 3.287-1.203 2.7243 0 4.9688 2.2068 4.9688 4.9556 0 1.4322-.3866 2.5641-1.3058 3.7066-.8445 1.0495-2.1513 2.1183-3.91 3.5002l-.0039.003-1.8186 1.4173c-.7124.5553-1.711.5553-2.4234 0l-1.8186-1.4173-.0039-.003c-1.7587-1.3819-3.0655-2.4507-3.91-3.5002-.9192-1.1425-1.3058-2.2744-1.3058-3.7066zm4.9688-2.4556c-1.3591 0-2.4688 1.103-2.4688 2.4556 0 .8702.1967 1.4472.7537 2.1395.6315.7849 1.6933 1.6766 3.5048 3.1.0006.0005.0013.001.0019.0015l1.4896 1.1609 1.4896-1.1609c.0006-.0005.0012-.001.0019-.0015 1.8115-1.4234 2.8732-2.315 3.5048-3.1.557-.6923.7537-1.2693.7537-2.1395 0-1.3526-1.1097-2.4556-2.4688-2.4556-.8188 0-1.5752.348-2.3062 1.2591-.2358.294-.5917.4658-.9686.4677-.3769.002-.7345-.1663-.9734-.4578-.7571-.9243-1.5188-1.269-2.3142-1.269z"/></g></svg>
