<svg xmlns="http://www.w3.org/2000/svg" width="36" height="36" fill="currentColor" viewBox="0 0 36 36"><path fill-rule="evenodd" d="M3 20.54C3 16.907 5.998 14 9.645 14c1.872 0 3.492.82 4.855 2.257C15.864 14.82 17.483 14 19.355 14 23.002 14 26 16.906 26 20.54c0 1.926-.529 3.443-1.791 4.993-1.191 1.461-3.049 2.965-5.639 4.94l-2.712 2.07c-.8.61-1.915.61-2.715 0l-2.713-2.07c-2.59-1.975-4.447-3.479-5.638-4.94C3.529 23.983 3 22.466 3 20.54Zm6.645-4.04c-2.312 0-4.145 1.832-4.145 4.04 0 1.348.33 2.308 1.23 3.414.972 1.193 2.584 2.523 5.216 4.531l2.554 1.948 2.554-1.948c2.633-2.008 4.244-3.338 5.216-4.531.901-1.106 1.23-2.066 1.23-3.413 0-2.209-1.832-4.041-4.145-4.041-1.254 0-2.481.627-3.685 2.247a1.458 1.458 0 0 1-2.34 0c-1.203-1.62-2.43-2.247-3.685-2.247Z" clip-rule="evenodd"/><path fill-rule="evenodd" d="M11 10.06C11 6.638 13.935 4 17.382 4c1.77 0 3.312.738 4.618 2.042C23.306 4.738 24.848 4 26.618 4 30.065 4 33 6.638 33 10.06c0 1.273-.26 2.39-.904 3.48-.622 1.052-1.562 2.009-2.793 3.04a1.25 1.25 0 1 1-1.605-1.917c1.154-.966 1.839-1.707 2.245-2.396.385-.65.557-1.315.557-2.207 0-1.891-1.66-3.56-3.882-3.56-1.19 0-2.342.567-3.468 2.013a1.459 1.459 0 0 1-2.3 0C19.724 7.067 18.573 6.5 17.382 6.5c-2.222 0-3.882 1.669-3.882 3.56 0 .157.005.306.016.448a1.25 1.25 0 0 1-2.493.187A8.472 8.472 0 0 1 11 10.06Z" clip-rule="evenodd"/></svg>
