<svg xmlns="http://www.w3.org/2000/svg" width="36" height="36" fill="none" viewBox="0 0 36 36"><path fill="currentColor" fill-rule="evenodd" d="M14.7458 4h6.5084c.7793 0 1.4319 0 1.9711.04.5653.042 1.0928.1325 1.6076.3575a4.7496 4.7496 0 0 1 1.9927 1.6337c.3216.4607.5137.9601.6658 1.5062.1451.521.273 1.1608.4258 1.9249L28.8248 14H32.25c.6904 0 1.25.5596 1.25 1.25s-.5596 1.25-1.25 1.25H3.75c-.6904 0-1.25-.5596-1.25-1.25S3.0596 14 3.75 14h3.4253l.9075-4.5377c.1528-.764.2808-1.404.4258-1.9249.1521-.5461.3443-1.0456.6658-1.5062a4.75 4.75 0 0 1 1.9928-1.6337c.5147-.225 1.0422-.3154 1.6076-.3575C13.314 4 13.9665 4 14.7458 4Zm10.7288 5.997L26.2752 14H9.7248l.8006-4.0031c.164-.8199.2744-1.368.3916-1.7888.1129-.4056.2103-.607.3074-.746a2.25 2.25 0 0 1 .9439-.7738c.1554-.068.3719-.124.7917-.1551.4356-.0324.9948-.0332 1.8309-.0332h6.4182c.8361 0 1.3953.0008 1.8309.0332.4199.0312.6363.0872.7917.1551.38.166.7066.4338.944.7738.097.1391.1944.3404.3074.746.1171.4208.2276.969.3915 1.7888Zm-8.7247 15.6018.0001.0262c0 3.5208-2.8542 6.375-6.375 6.375S4 29.1458 4 25.625s2.8542-6.375 6.375-6.375c2.6421 0 4.9088 1.6073 5.8757 3.8974A10.4084 10.4084 0 0 1 18 23c.5956 0 1.1801.0504 1.7494.1474.9668-2.2901 3.2335-3.8974 5.8756-3.8974 3.5208 0 6.375 2.8542 6.375 6.375S29.1458 32 25.625 32s-6.375-2.8542-6.375-6.375l.0001-.0262A7.9138 7.9138 0 0 0 18 25.5c-.426 0-.8435.0338-1.2501.0988ZM6.5 25.625c0-2.1401 1.7349-3.875 3.875-3.875 1.8567 0 3.4084 1.3058 3.7868 3.0491.0065.046.0155.092.0273.1379.04.2233.0609.4532.0609.688 0 2.1401-1.7349 3.875-3.875 3.875S6.5 27.7651 6.5 25.625Zm15.3107-.6869a3.8963 3.8963 0 0 0-.0607.6869c0 2.1401 1.7349 3.875 3.875 3.875s3.875-1.7349 3.875-3.875-1.7349-3.875-3.875-3.875c-1.8562 0-3.4076 1.3052-3.7865 3.0479a1.2632 1.2632 0 0 1-.0278.1402Z" clip-rule="evenodd"/></svg>
