<svg xmlns="http://www.w3.org/2000/svg" width="36" height="36" fill="currentColor" viewBox="0 0 36 36"><path fill-rule="evenodd" d="M18 3C10.923 3 5.25 8.269 5.25 15.5c0 3.335 1.105 5.552 2.502 7.282.653.808 1.368 1.508 2.006 2.132l.067.065c.675.66 1.249 1.23 1.712 1.84.055.073.074.098.091.123a1.566 1.566 0 0 1 .139.258 3.18 3.18 0 0 1 .056.132l.005.014c.034.1.049.162.11.464l.348 1.744c.082.408.156.779.241 1.086.093.333.22.675.448 1 .335.481.796.86 1.333 1.094.364.16.725.217 1.07.242.317.024.695.024 1.112.024h3.02c.416 0 .794 0 1.113-.024a3.203 3.203 0 0 0 1.069-.242 3.179 3.179 0 0 0 1.333-1.093c.228-.326.355-.668.448-1 .085-.308.16-.679.241-1.087l.349-1.744c.06-.302.075-.365.109-.464l.005-.014.006-.015.008-.02a3.18 3.18 0 0 1 .104-.227l.003-.005a1.554 1.554 0 0 1 .165-.246c.463-.61 1.037-1.18 1.712-1.84l.067-.065c.638-.624 1.353-1.324 2.006-2.132 1.397-1.73 2.502-3.947 2.502-7.282C30.75 8.269 25.077 3 18 3ZM7.75 15.5c0-5.769 4.47-10 10.25-10s10.25 4.231 10.25 10c0 2.685-.856 4.36-1.947 5.71-.56.694-1.183 1.304-1.847 1.953l-.03.03c-.654.64-1.362 1.334-1.954 2.114-.05.067-.096.127-.143.193H19.25v-2.982l2.134-2.134a1.25 1.25 0 0 0-1.768-1.768L18 20.232l-1.616-1.616a1.25 1.25 0 1 0-1.768 1.768l2.134 2.134V25.5h-3.08a6.015 6.015 0 0 0-.142-.193c-.592-.78-1.3-1.474-1.954-2.114l-.03-.03c-.664-.649-1.287-1.26-1.847-1.952C8.606 19.86 7.75 18.185 7.75 15.5ZM14.525 28l.205 1.024c.092.46.148.738.206.945.052.19.084.235.088.24a.68.68 0 0 0 .285.234c.007.003.058.026.253.04.215.016.499.017.968.017h2.94c.47 0 .753 0 .968-.017.195-.014.246-.037.252-.04a.679.679 0 0 0 .285-.233c.004-.006.037-.052.09-.24.057-.208.113-.486.205-.946L21.475 28h-6.95Z" clip-rule="evenodd"/></svg>
