<svg fill="none" height="36" viewBox="0 0 36 36" width="36" xmlns="http://www.w3.org/2000/svg"><path d="m8.5 27.2322 18.2322-18.23219" stroke="currentColor" stroke-linecap="round" stroke-linejoin="bevel" stroke-width="2.5"/><path d="m13 8h15v15" stroke="currentColor" stroke-linecap="round" stroke-linejoin="round" stroke-width="2.5"/><path clip-rule="evenodd" d="m11.75 8c0-.69036.5596-1.25 1.25-1.25h15c.6904 0 1.25.55964 1.25 1.25v15c0 .6904-.5596 1.25-1.25 1.25s-1.25-.5596-1.25-1.25v-12.25l-17.36612 17.3661c-.48815.4882-1.27961.4882-1.76776 0-.48816-.4881-.48816-1.2796 0-1.7678l17.09838-17.0983h-11.7145c-.6904 0-1.25-.55964-1.25-1.25z" fill="currentColor" fill-rule="evenodd"/></svg>
