<svg fill="none" height="36" viewBox="0 0 36 36" width="36" xmlns="http://www.w3.org/2000/svg"><path clip-rule="evenodd" d="m6.39795 6.39795c-1.89795 1.89795-1.89795 4.95265-1.89795 11.06205v1.08c0 6.1094 0 9.1641 1.89795 11.0621 1.89795 1.8979 4.95265 1.8979 11.06205 1.8979h1.08c6.1094 0 9.1641 0 11.0621-1.8979 1.8979-1.898 1.8979-4.9527 1.8979-11.0621v-1.08c0-6.1094 0-9.1641-1.8979-11.06205-1.898-1.89795-4.9527-1.89795-11.0621-1.89795h-1.08c-6.1094 0-9.1641 0-11.06205 1.89795zm2.60205 6.30205c.14616 6.9958 3.6539 11.2 9.8038 11.2h.3486v-4.0024c2.2599.2242 3.9687 1.8723 4.6545 4.0024h3.1931c-.877-3.184-3.1819-4.9442-4.621-5.6168 1.4391-.8297 3.4629-2.8477 3.9463-5.5832h-2.9008c-.6296 2.2198-2.4957 4.2378-4.2721 4.4284v-4.4284h-2.9007v7.7581c-1.7989-.4484-4.07-2.6234-4.1711-7.7581z" fill="currentColor" fill-rule="evenodd"/></svg>
