<svg xmlns="http://www.w3.org/2000/svg" width="36" height="36" fill="currentColor" viewBox="0 0 36 36"><path d="M18 5c6.731 0 12.353 4.155 13.695 9.692a6.383 6.383 0 0 0-1.556-.192h-.032l-.313.008-.033.002a6.906 6.906 0 0 0-2.261.502 6.947 6.947 0 0 0-2.64-.512 6.356 6.356 0 0 0-6.36 6.352c0 1.48.327 2.803 1.316 4.141.848 1.147 2.138 2.232 3.755 3.487A15.685 15.685 0 0 1 18 29.488a15.81 15.81 0 0 1-4.53-.655c-1.587 1.25-4.05 2.3-7.386 3.148a.632.632 0 0 1-.467-.063.652.652 0 0 1-.247-.881l.239-.44c1.108-2.064 1.799-3.757 2.073-5.079C5.395 23.34 4 20.434 4 17.244 4 10.482 10.268 5 18 5Z M27.627 17.763a4.418 4.418 0 0 1 2.264-.757L30.14 17A3.856 3.856 0 0 1 34 20.852c0 2.078-.828 3.111-4.13 5.674l-1.529 1.186a1.373 1.373 0 0 1-1.683 0l-1.528-1.186C21.828 23.963 21 22.93 21 20.852A3.856 3.856 0 0 1 24.86 17c.917 0 1.76.259 2.513.763l.127.09.127-.09Z"/></svg>
