<svg fill="none" height="36" viewBox="0 0 36 36" width="36" xmlns="http://www.w3.org/2000/svg"><path d="m28.5 21.7283c0 5.2071-1.8539 6.3293-4.9212 6.7417-1.5935.2143-4.0788-.6214-4.0788-3.6485 0-1.4787 1.2316-2.9477 2.7688-3.2499 1.4256-.2803-.4624.0862 2.7628-.528.5196-.099.4757-.469.4757-.8699 0-.327-.0016-3.3286-.0027-5.1516l-.0046.0274.0073-3.8641c0-.3549-.1096-.5221-.5174-.4201l-10.9431 1.9942c-.457.1143-.5468.3041-.5468.7405v11.2283c0 5.2071-1.8539 6.3293-4.9212 6.7417-1.59353.2143-4.0788-.6214-4.0788-3.6485 0-1.4787 1.23157-2.9477 2.76879-3.2499 1.42563-.2803-.46238.0862 2.76281-.528.5196-.099.4757-.469.4757-.8699 0-.3549-.0019-3.8592-.0029-5.5892l-.0006-.9562.0007-.0008-.0045-3.803s-.0061-2.3605 0-3.5408c.0073-1.41161.7654-1.93039 3-2.39l12-2.2164s3-.9379 3 1.50064z" fill="currentColor"/></svg>
