<svg fill="none" height="36" viewBox="0 0 36 36" width="36" xmlns="http://www.w3.org/2000/svg"><g clip-rule="evenodd" fill="currentColor" fill-rule="evenodd"><path d="m24.5 6.50409c-2.7614 0-5 2.23858-5 5.00001 0 2.7614 2.2386 5 5 5s5-2.2386 5-5c0-2.76143-2.2386-5.00001-5-5.00001zm-7.5 5.00001c0-4.14215 3.3579-7.50001 7.5-7.50001 4.1422 0 7.5 3.35786 7.5 7.50001 0 4.1421-3.3578 7.5-7.5 7.5-4.1421 0-7.5-3.3579-7.5-7.5z"/><path d="m14.9721 15.7989c.5251.4479.5876 1.2366.1397 1.7616l-8.29043 9.7187c-.45613.5347-.42463 1.3302.07234 1.8271.49697.497 1.29246.5285 1.82716.0724l9.71863-8.2905c.5251-.4479 1.3137-.3853 1.7616.1397s.3853 1.3137-.1397 1.7615l-9.7187 8.2905c-1.52642 1.3022-3.79735 1.2122-5.21608-.2065s-1.50864-3.6896-.20651-5.2161l8.29049-9.7187c.4478-.525 1.2365-.5875 1.7615-.1397z"/></g></svg>
