<svg fill="none" height="36" viewBox="0 0 36 36" width="36" xmlns="http://www.w3.org/2000/svg"><path clip-rule="evenodd" d="m28.902 8.0428c-.4305-2.06615-2.4543-3.39216-4.5205-2.96171l-9.2907 1.93557-.2627.05658c-1.0104.22561-1.5533.44774-2.1012.84407-.561.40576-.9907.9343-1.2736 1.56622-.2992.66867-.3995 1.28987-.3995 2.49787v10.339h-.6315c-5.99738 0-9.07892 5.8549-5.90119 9.0326 3.17772 3.1777 9.03269.0962 9.03269-5.9011v-1.7921l.0005-7.9837 12.928-2.6933v6.1233h-.6315c-5.9973 0-9.0788 5.8549-5.9011 9.0326 3.1777 3.1778 9.0326.0962 9.0326-5.9011v-1.792-1.3395-10.2839l-.0089-.26148c-.012-.17397-.0358-.34701-.0714-.51792zm-2.4197 2.3863v-1.6069c0-.09055-.0093-.18087-.0278-.26951-.1395-.66981-.7633-1.11468-1.4295-1.04502l-.1336.02087-9.2908 1.93557c-.867.18064-1.1415.28569-1.4085.47883-.2053.14846-.3534.33066-.4569.56186l-.056.1403c-.0835.2399-.1189.5287-.1246 1.1422l-.0001 1.3351zm-15.4285 15.0228-.0002-.6314-.6313-.0001c-3.9052 0-5.62696 3.2713-4.13343 4.7649 1.49354 1.4935 4.76493-.2283 4.76493-4.1334zm15.4278-3.8449.0007.6306c0 3.9051-3.2713 5.6269-4.7649 4.1334-1.4935-1.4936.2283-4.7649 4.1334-4.7649z" fill="currentColor" fill-rule="evenodd"/></svg>
