<svg xmlns="http://www.w3.org/2000/svg" width="36" height="36" fill="currentColor" viewBox="0 0 36 36"><path fill-rule="evenodd" d="M13.91 5.788a.88.88 0 0 1 .822-.235l12.24 2.824a.88.88 0 0 1 .66.66l2.825 12.242a.88.88 0 0 1-.235.82L22.1 30.222a.88.88 0 0 1-.82.235L9.038 27.633a.88.88 0 0 1-.66-.66L5.552 14.732a.88.88 0 0 1 .235-.821l8.123-8.123Zm1.384-2.671a3.38 3.38 0 0 0-3.151.903L4.02 12.143a3.38 3.38 0 0 0-.903 3.15l2.825 12.242a3.38 3.38 0 0 0 2.533 2.534l12.241 2.824a3.38 3.38 0 0 0 3.151-.903l8.123-8.123a3.38 3.38 0 0 0 .903-3.15L30.07 8.474a3.38 3.38 0 0 0-2.534-2.533L15.294 3.117Zm8.848 12.509a1.25 1.25 0 0 0-1.784-1.752l-5.983 6.092-2.233-2.274a1.25 1.25 0 1 0-1.784 1.752l3.125 3.182a1.25 1.25 0 0 0 1.784 0l6.875-7Z" clip-rule="evenodd"/></svg>
