<svg xmlns="http://www.w3.org/2000/svg" width="36" height="36" viewBox="0 0 36 36" fill="currentColor"><path fill-rule="evenodd" d="M28.902 8.043a3.82 3.82 0 0 0-4.52-2.962L15.09 7.017l-.263.056c-1.01.226-1.553.448-2.101.844a3.87 3.87 0 0 0-1.274 1.567c-.299.668-.4 1.29-.4 2.497v10.34h-.63c-5.998 0-9.08 5.854-5.902 9.032s9.033.096 9.033-5.901v-9.776l12.928-2.693v6.123h-.631c-5.997 0-9.079 5.855-5.901 9.033 3.177 3.178 9.032.096 9.032-5.901V8.822l-.009-.261a4 4 0 0 0-.071-.518m-2.42 2.386V8.822a1.32 1.32 0 0 0-1.457-1.314l-.134.02-9.29 1.936c-.867.18-1.142.286-1.409.479-.205.148-.353.33-.457.562l-.056.14c-.083.24-.119.529-.124 1.142v1.335zM11.054 25.452v-.632h-.632c-3.905 0-5.627 3.272-4.133 4.765 1.493 1.494 4.765-.228 4.765-4.133m15.428-3.845v.63c0 3.906-3.271 5.628-4.765 4.134s.229-4.765 4.134-4.765z" clip-rule="evenodd"/></svg>