<svg xmlns="http://www.w3.org/2000/svg" width="36" height="36" viewBox="0 0 36 36" fill="currentColor"><path d="M28.5 21.728c0 5.207-1.854 6.33-4.921 6.742-1.594.214-4.079-.621-4.079-3.648 0-1.48 1.232-2.948 2.769-3.25 1.425-.28-.463.086 2.763-.528.52-.1.475-.47.475-.87l-.002-5.152-.005.027.007-3.864c0-.354-.11-.522-.517-.42L14.047 12.76c-.457.115-.547.305-.547.741v11.228c0 5.207-1.854 6.33-4.921 6.742-1.594.214-4.079-.621-4.079-3.648 0-1.48 1.232-2.948 2.769-3.25 1.425-.28-.463.086 2.763-.528.52-.1.475-.47.475-.87l-.003-5.59v-.956l-.004-3.803s-.006-2.361 0-3.541c.007-1.412.765-1.93 3-2.39l12-2.217s3-.938 3 1.5z"/></svg>