<svg xmlns="http://www.w3.org/2000/svg" width="36" height="36" fill="currentColor" viewBox="0 0 36 36"><path fill-rule="evenodd" d="M7.9 5.018C9.291 4.274 10.662 4 13.782 4h8.436c3.12 0 4.49.274 5.882 1.018A6.944 6.944 0 0 1 30.98 7.9c.745 1.39 1.02 2.762 1.02 5.88v8.437c0 3.12-.275 4.49-1.019 5.881A6.943 6.943 0 0 1 28.1 30.98c-1.392.745-2.762 1.02-5.882 1.02h-8.436c-3.12 0-4.49-.275-5.882-1.02a6.944 6.944 0 0 1-2.88-2.88C4.276 26.708 4 25.337 4 22.218V13.78c0-3.12.276-4.49 1.02-5.881A6.944 6.944 0 0 1 7.9 5.018ZM13.782 6.5c-2.979 0-3.855.27-4.703.723a4.444 4.444 0 0 0-1.856 1.856c-.453.848-.723 1.724-.723 4.702v8.437c0 2.214.15 3.267.412 4.01l3.502-3.234.034-.03c.463-.428.862-.797 1.217-1.076.376-.296.777-.555 1.264-.704a3.822 3.822 0 0 1 2.244 0c.486.148.888.407 1.264.702.355.28.755.648 1.218 1.075l.034.031.024.022 3.843-3.843.034-.034c.465-.464.865-.865 1.222-1.168.377-.321.783-.604 1.282-.771a3.821 3.821 0 0 1 2.31-.04c.505.15.92.418 1.308.726.368.291.782.677 1.262 1.126l.035.032.49.458v-5.719c0-2.978-.269-3.854-.722-4.702a4.445 4.445 0 0 0-1.856-1.856c-.848-.454-1.724-.723-4.703-.723h-8.436Zm15.712 16.414-2.19-2.044c-.526-.49-.866-.806-1.145-1.027-.267-.212-.395-.268-.469-.29a1.321 1.321 0 0 0-.8.014c-.072.025-.198.085-.458.306-.271.23-.6.558-1.108 1.066l-4.692 4.692a1.25 1.25 0 0 1-1.732.035l-.906-.836c-.506-.467-.834-.768-1.102-.978-.256-.202-.38-.256-.452-.279a1.322 1.322 0 0 0-.776 0c-.073.023-.197.078-.453.279-.268.211-.595.512-1.101.98l-3.755 3.466c.222.18.464.339.724.478.848.454 1.724.724 4.703.724h8.436c2.979 0 3.855-.27 4.703-.724a4.444 4.444 0 0 0 1.856-1.856c.415-.778.677-1.58.717-4.006ZM16 14a2 2 0 1 1-4 0 2 2 0 0 1 4 0Z" clip-rule="evenodd"/></svg>
