<svg width="36" height="36" viewBox="0 0 36 36" fill="none" xmlns="http://www.w3.org/2000/svg">
<path fill-rule="evenodd" clip-rule="evenodd" d="M7.94645 5.03037C9.35002 4.27973 10.7331 4 13.8893 4H22.1107C25.2669 4 26.65 4.27973 28.0535 5.03037C29.3075 5.70097 30.299 6.69253 30.9696 7.94645C31.7203 9.35002 32 10.7331 32 13.8893V22.1107C32 25.2669 31.7203 26.65 30.9696 28.0535C30.299 29.3075 29.3075 30.299 28.0535 30.9696C26.65 31.7203 25.2669 32 22.1107 32H13.8893C10.7331 32 9.35002 31.7203 7.94645 30.9696C6.69253 30.299 5.70097 29.3075 5.03037 28.0535C4.27973 26.65 4 25.2669 4 22.1107V13.8893C4 10.7331 4.27973 9.35002 5.03037 7.94645C5.70097 6.69253 6.69253 5.70097 7.94645 5.03037ZM21.3102 18.2269C21.5022 17.9711 21.8582 17.9246 22.1055 18.1231C22.1454 18.1552 22.181 18.1927 22.2114 18.2345L27.8866 26.062C28.0744 26.321 28.0237 26.6885 27.7733 26.8827C27.6752 26.9589 27.5558 27 27.4332 27H9.56675C9.25374 27 9 26.7375 9 26.4137C9 26.2834 9.04201 26.1567 9.11939 26.0538L13.2648 20.5406C13.4569 20.285 13.813 20.2389 14.0601 20.4377C14.0924 20.4637 14.1219 20.4933 14.1481 20.5259L17 24L21.3102 18.2269ZM12 14C13.1046 14 14 13.1046 14 12C14 10.8954 13.1046 10 12 10C10.8954 10 10 10.8954 10 12C10 13.1046 10.8954 14 12 14Z" fill="currentColor"/>
</svg>
