<svg xmlns="http://www.w3.org/2000/svg" width="36" height="36" fill="currentColor" viewBox="0 0 36 36"><path fill-rule="evenodd" d="M20.72 32.035c-1.777 1.45-4.421 1.25-5.947-.489-2.809-3.203-4.975-6.194-6.449-8.956-1.465-2.745-2.322-5.405-2.322-7.905C6.002 8.153 11.455 3.004 18 3.004c6.545 0 11.998 5.15 11.998 11.68 0 2.5-.857 5.161-2.322 7.906-1.474 2.762-3.64 5.753-6.45 8.956a4.23 4.23 0 0 1-.507.49Zm-4.067-2.137a1.81 1.81 0 0 0 2.694 0c5.46-6.227 8.151-11.328 8.151-15.213 0-5.071-4.253-9.181-9.498-9.181-5.245 0-9.498 4.11-9.498 9.18 0 3.886 2.69 8.987 8.151 15.214Z M18 12a3 3 0 1 0 0 6 3 3 0 0 0 0-6Zm-5.5 3a5.5 5.5 0 1 1 11 0 5.5 5.5 0 0 1-11 0Z" clip-rule="evenodd"/></svg>
