<svg xmlns="http://www.w3.org/2000/svg" width="36" height="36" viewBox="0 0 36 36" fill="currentColor"><path d="M31.75 16.605c.69 0 1.25.56 1.25 1.25V18c0 4.842-3.952 8.75-8.808 8.75H8.167l1.116 1.116a1.25 1.25 0 0 1-1.767 1.768l-3.15-3.15a1.25 1.25 0 0 1 0-1.767l3.15-3.15a1.25 1.25 0 1 1 1.767 1.767l-.916.916h15.825c3.493 0 6.308-2.807 6.308-6.25v-.145c0-.69.56-1.25 1.25-1.25m-14.324-2.892a1.25 1.25 0 0 1 1.832 1.107v6.33a1.25 1.25 0 0 1-2.5 0v-4.261l-.118.062a1.25 1.25 0 0 1-1.164-2.213zm9.29-7.347a1.25 1.25 0 0 1 1.768 0l3.15 3.15a1.25 1.25 0 0 1 0 1.768l-3.15 3.15a1.25 1.25 0 0 1-1.767-1.768l.916-.916H11.808C8.315 11.75 5.5 14.558 5.5 18v.146a1.25 1.25 0 0 1-2.5 0V18c0-4.841 3.952-8.75 8.808-8.75h16.025l-1.116-1.116a1.25 1.25 0 0 1 0-1.768"/></svg>