<svg width="36" height="36" viewBox="0 0 36 36" fill="none" xmlns="http://www.w3.org/2000/svg">
<path d="M8.51477 23.247C7.52245 25.8485 6.88988 27.6737 6.64437 28.7294C6 31.5 6 32.5 8.24292 31.2096C11.2219 29.638 25.6435 21.8526 28.8611 20.1224C31.5 18.7034 32 17.4485 28.6361 15.6485C25.2276 13.8246 10.975 6.24232 8.24292 4.75353C6 3.49999 5.99999 4.5 6.64437 7.23379C6.89624 8.30235 7.53481 10.1447 8.54194 12.7651C9.24312 14.5895 10.8628 15.9256 12.8182 16.2927L20.524 17.7394L21.1807 17.8627C21.3321 17.8921 21.3295 18.1084 21.1807 18.1373L20.5 18.2647L12.7994 19.7057C10.8376 20.0729 9.21352 21.4152 8.51477 23.247Z" fill="currentColor"/>
</svg>
