<svg fill="none" height="36" viewBox="0 0 36 36" width="36" xmlns="http://www.w3.org/2000/svg"><g clip-rule="evenodd" fill="currentColor" fill-rule="evenodd"><path d="m31.6051 7.13567-2.7408-2.74075c-.8518-.85187-1.3933-1.21807-2.1192-1.43809-.6786-.20567-1.3831-.20567-2.0616 0-.7259.22002-1.2674.58622-2.1193 1.43809l-2.7407 2.74075c-.8519.85187-1.2181 1.39335-1.4381 2.11924-.2057.67856-.2057 1.38309 0 2.06159.22.7259.5862 1.2674 1.4381 2.1193l2.7407 2.7407c.8519.8519 1.3934 1.2181 2.1193 1.4381.6785.2057 1.383.2057 2.0616 0 .7259-.22 1.2674-.5862 2.1192-1.4381l2.7408-2.7407c.8519-.8519 1.2181-1.3934 1.4381-2.1193.2056-.6785.2056-1.38303 0-2.06159-.22-.72589-.5862-1.26737-1.4381-2.11924zm-1.7678 1.76776c.585.585.7288.79756.8134 1.07664.0623.20573.0623.40553 0 .61133-.0781.2576-.2066.4585-.686.948l-2.8681 2.8694c-.585.585-.7976.7287-1.0767.8133-.2057.0624-.4055.0624-.6113 0-.2791-.0846-.4916-.2283-1.0766-.8133l-2.7408-2.7408c-.585-.585-.7287-.7975-.8133-1.0766-.0624-.2058-.0624-.4056 0-.61133.0781-.25762.2066-.45854.686-.94805l2.8681-2.86933c.585-.585.7975-.72875 1.0766-.81334.2058-.06236.4056-.06236.6113 0 .2577.07808.4586.20657.9481.686z"/><path d="m12.2237 3.89287h-3.87599c-1.20472 0-1.84656.12394-2.51541.48165-.62524.33438-1.12341.83255-1.45779 1.45779-.35771.66885-.48165 1.31069-.48165 2.51542v3.87597c0 1.2048.12394 1.8466.48165 2.5154.33438.6253.83255 1.1235 1.45779 1.4578.66885.3577 1.31069.4817 2.51541.4817h3.87599c1.2047 0 1.8466-.124 2.5154-.4817.6253-.3343 1.1234-.8325 1.4578-1.4578.3577-.6688.4817-1.3106.4817-2.5154v-3.87597c0-1.20473-.124-1.84657-.4817-2.51542-.3344-.62524-.8325-1.12341-1.4578-1.45779-.6688-.35771-1.3107-.48165-2.5154-.48165zm-4.05696 2.50088 4.05696-.00088c.8273 0 1.0793.04865 1.3364.18618.1896.10139.3309.24269.4323.43226.1375.25716.1862.5091.1862 1.33642v3.87597c0 .8273-.0487 1.0793-.1862 1.3364-.1014.1896-.2427.3309-.4323.4323-.2571.1375-.5091.1862-1.3364.1862h-3.87599c-.82731 0-1.07925-.0487-1.33641-.1862-.18957-.1014-.33088-.2427-.43226-.4323-.12695-.2373-.17817-.4703-.1853-1.1554l-.00088-4.05697c0-.82732.04865-1.07926.18618-1.33642.10138-.18957.24269-.33087.43226-.43226.23738-.12695.47031-.17817 1.15544-.1853z"/><path d="m12.2237 19.3214h-3.87599c-1.20472 0-1.84656.124-2.51541.4817-.62524.3344-1.12341.8325-1.45779 1.4578-.35771.6688-.48165 1.3107-.48165 2.5154v3.876c0 1.2047.12394 1.8466.48165 2.5154.33438.6253.83255 1.1234 1.45779 1.4578.66885.3577 1.31069.4817 2.51541.4817h3.87599c1.2047 0 1.8466-.124 2.5154-.4817.6253-.3344 1.1234-.8325 1.4578-1.4578.3577-.6688.4817-1.3107.4817-2.5154v-3.876c0-1.2047-.124-1.8466-.4817-2.5154-.3344-.6253-.8325-1.1234-1.4578-1.4578-.6688-.3577-1.3107-.4817-2.5154-.4817zm-4.05696 2.5009 4.05696-.0009c.8273 0 1.0793.0487 1.3364.1862.1896.1014.3309.2427.4323.4323.1375.2571.1862.5091.1862 1.3364v3.876c0 .8273-.0487 1.0793-.1862 1.3364-.1014.1896-.2427.3309-.4323.4323-.2571.1375-.5091.1862-1.3364.1862h-3.87599c-.82731 0-1.07925-.0487-1.33641-.1862-.18957-.1014-.33088-.2427-.43226-.4323-.12695-.2374-.17817-.4703-.1853-1.1554l-.00088-4.057c0-.8273.04865-1.0793.18618-1.3364.10138-.1896.24269-.3309.43226-.4323.23738-.1269.47031-.1781 1.15544-.1853z"/><path d="m23.7763 19.3214h3.876c1.2047 0 1.8465.124 2.5154.4817.6252.3344 1.1234.8325 1.4578 1.4578.3577.6688.4816 1.3107.4816 2.5154v3.876c0 1.2047-.1239 1.8466-.4816 2.5154-.3344.6253-.8326 1.1234-1.4578 1.4578-.6689.3577-1.3107.4817-2.5154.4817h-3.876c-1.2047 0-1.8466-.124-2.5154-.4817-.6253-.3344-1.1234-.8325-1.4578-1.4578-.3577-.6688-.4817-1.3107-.4817-2.5154v-3.876c0-1.2047.124-1.8466.4817-2.5154.3344-.6253.8325-1.1234 1.4578-1.4578.6688-.3577 1.3107-.4817 2.5154-.4817zm3.876 2.5-4.057.0009c-.6851.0072-.9181.0584-1.1554.1853-.1896.1014-.3309.2427-.4323.4323-.1375.2571-.1862.5091-.1862 1.3364l.0009 4.057c.0071.6851.0584.918.1853 1.1554.1014.1896.2427.3309.4323.4323.2571.1375.5091.1862 1.3364.1862h3.876c.8273 0 1.0792-.0487 1.3364-.1862.1896-.1014.3309-.2427.4323-.4323.1375-.2571.1861-.5091.1861-1.3364l-.0008-4.057c-.0072-.6851-.0584-.918-.1853-1.1554-.1014-.1896-.2427-.3309-.4323-.4323-.2572-.1375-.5091-.1862-1.3364-.1862z"/></g></svg>
