<svg xmlns="http://www.w3.org/2000/svg" width="36" height="36" viewBox="0 0 36 36" fill="currentColor"><path d="M4.25 9.25c5.903 0 9.671 4.253 12.84 7.935 1.643 1.91 3.127 3.683 4.747 5.003 1.59 1.295 3.205 2.062 5.072 2.062h1.723l-.916-.916a1.25 1.25 0 0 1 1.767-1.767l3.15 3.149a1.25 1.25 0 0 1 0 1.768l-3.15 3.15a1.25 1.25 0 0 1-1.767-1.768l1.116-1.116H26.91c-2.633 0-4.79-1.108-6.651-2.625-1.652-1.346-3.154-3.086-4.594-4.764-1.42 1.668-2.918 3.387-4.568 4.726C9.2 25.624 7.005 26.75 4.35 26.75a1.25 1.25 0 0 1 0-2.5c1.888 0 3.544-.785 5.172-2.105 1.544-1.253 2.969-2.91 4.483-4.689-2.862-3.198-5.715-5.706-9.755-5.706a1.25 1.25 0 0 1 0-2.5m23.466-2.884a1.25 1.25 0 0 1 1.767 0l3.15 3.15a1.25 1.25 0 0 1 0 1.768l-3.15 3.15a1.25 1.25 0 1 1-1.767-1.768l.916-.916h-1.633c-2.608 0-4.878 1.195-6.851 2.853a1.25 1.25 0 0 1-1.608-1.914C20.76 10.825 23.582 9.25 27 9.25h1.832l-1.116-1.116a1.25 1.25 0 0 1 0-1.768"/></svg>