<svg xmlns="http://www.w3.org/2000/svg" width="36" height="36" fill="currentColor" viewBox="0 0 36 36"><rect width="2.5" height="18" x="27" y="27" rx="1.25" transform="rotate(-180 27 27)"/><path d="M9 13.134c0-2.303 0-3.455.483-4.115a2.5 2.5 0 0 1 1.779-1.011c.814-.078 1.803.51 3.783 1.689l8.178 4.865c1.903 1.133 2.855 1.7 3.177 2.433a2.5 2.5 0 0 1 0 2.01c-.322.734-1.274 1.3-3.177 2.433l-8.178 4.865c-1.98 1.178-2.97 1.767-3.783 1.689a2.5 2.5 0 0 1-1.779-1.011C9 26.32 9 25.169 9 22.865v-9.73Z"/><path d="M9.483 9.02C9 9.678 9 10.83 9 13.133v9.732c0 2.303 0 3.455.483 4.115a2.5 2.5 0 0 0 1.779 1.011c.814.078 1.803-.511 3.783-1.689l8.178-4.866c.486-.289.91-.541 1.277-.768v5.081a1.25 1.25 0 1 0 2.5 0v-15.5a1.25 1.25 0 1 0-2.5 0v5.082c-.367-.228-.791-.48-1.277-.77l-8.178-4.865c-1.98-1.178-2.97-1.767-3.783-1.69A2.5 2.5 0 0 0 9.483 9.02Z"/></svg>
