<svg xmlns="http://www.w3.org/2000/svg" width="36" height="36" fill="currentColor" viewBox="0 0 36 36"><rect width="2.5" height="18" x="11.5" y="27" rx="1.25" transform="rotate(-180 11.5 27)"/><path d="M20.955 9.697c1.98-1.178 2.97-1.767 3.783-1.69a2.5 2.5 0 0 1 1.779 1.012c.483.66.483 1.812.483 4.115v9.732c0 2.303 0 3.455-.483 4.115a2.5 2.5 0 0 1-1.779 1.011c-.814.078-1.803-.511-3.783-1.689l-8.178-4.866c-1.903-1.132-2.855-1.698-3.177-2.432a2.5 2.5 0 0 1 0-2.01c.322-.734 1.274-1.3 3.177-2.433l8.178-4.865Z"/><path d="M24.738 8.008c-.814-.078-1.803.511-3.783 1.689l-8.178 4.865c-.486.29-.91.542-1.277.77V10.25a1.25 1.25 0 1 0-2.5 0v15.5a1.25 1.25 0 1 0 2.5 0v-5.081c.367.227.791.48 1.277.768l8.178 4.866c1.98 1.178 2.97 1.767 3.783 1.689a2.5 2.5 0 0 0 1.779-1.011c.483-.66.483-1.812.483-4.116v-9.73c0-2.304 0-3.456-.483-4.116a2.5 2.5 0 0 0-1.779-1.011Z"/></svg>
