<svg xmlns="http://www.w3.org/2000/svg" width="36" height="36" fill="currentColor" viewBox="0 0 36 36"><path fill-rule="evenodd" d="M24.25 5.25a1.25 1.25 0 1 0-2.5 0v25.5a1.25 1.25 0 0 0 2.5 0V5.25Zm-7.5 6a1.25 1.25 0 1 0-2.5 0v13.5a1.25 1.25 0 1 0 2.5 0v-13.5ZM30.748 10c.69 0 1.25.56 1.25 1.25v13.5a1.25 1.25 0 0 1-2.5 0v-13.5c0-.69.56-1.25 1.25-1.25Zm-21.75 4.25a1.25 1.25 0 0 0-2.5 0v7.498a1.25 1.25 0 1 0 2.5 0v-7.499Z" clip-rule="evenodd"/><path fill-rule="evenodd" d="M24.25 5.25a1.25 1.25 0 1 0-2.5 0v25.5a1.25 1.25 0 0 0 2.5 0V5.25Zm-7.5 6a1.25 1.25 0 1 0-2.5 0v13.5a1.25 1.25 0 1 0 2.5 0v-13.5ZM30.748 10c.69 0 1.25.56 1.25 1.25v13.5a1.25 1.25 0 0 1-2.5 0v-13.5c0-.69.56-1.25 1.25-1.25Zm-21.75 4.25a1.25 1.25 0 0 0-2.5 0v7.498a1.25 1.25 0 1 0 2.5 0v-7.499Z" clip-rule="evenodd"/></svg>
