<svg width="36" height="36" viewBox="0 0 36 36" fill="none" xmlns="http://www.w3.org/2000/svg">
<path d="M12.8571 18C12.8571 15.1597 15.1597 12.8571 18 12.8571C20.8403 12.8571 23.1429 15.1597 23.1429 18C23.1429 20.8403 20.8403 23.1429 18 23.1429C15.1597 23.1429 12.8571 20.8403 12.8571 18Z" fill="currentColor"/>
<path fill-rule="evenodd" clip-rule="evenodd" d="M13.8893 4C10.7331 4 9.35002 4.27973 7.94645 5.03037C6.69253 5.70097 5.70097 6.69253 5.03037 7.94645C4.27973 9.35002 4 10.7331 4 13.8893V22.1107C4 25.2669 4.27973 26.65 5.03037 28.0535C5.70097 29.3075 6.69253 30.299 7.94645 30.9696C9.35002 31.7203 10.7331 32 13.8893 32H22.1107C25.2669 32 26.65 31.7203 28.0535 30.9696C29.3075 30.299 30.299 29.3075 30.9696 28.0535C31.7203 26.65 32 25.2669 32 22.1107V13.8893C32 10.7331 31.7203 9.35002 30.9696 7.94645C30.299 6.69253 29.3075 5.70097 28.0535 5.03037C26.65 4.27973 25.2669 4 22.1107 4H13.8893ZM18 10.2857C13.7395 10.2857 10.2857 13.7395 10.2857 18C10.2857 22.2605 13.7395 25.7143 18 25.7143C22.2605 25.7143 25.7143 22.2605 25.7143 18C25.7143 13.7395 22.2605 10.2857 18 10.2857Z" fill="currentColor"/>
</svg>
