<svg xmlns="http://www.w3.org/2000/svg" width="36" height="36" fill="currentColor" viewBox="0 0 36 36"><path fill-rule="evenodd" d="M7.946 5.03C9.35 4.28 10.733 4 13.89 4h8.222c3.156 0 4.539.28 5.942 1.03a7.026 7.026 0 0 1 2.917 2.916C31.72 9.35 32 10.733 32 13.89v8.222c0 3.156-.28 4.539-1.03 5.942a7.026 7.026 0 0 1-2.916 2.917C26.65 31.72 25.267 32 22.11 32h-8.222c-3.156 0-4.539-.28-5.943-1.03a7.026 7.026 0 0 1-2.916-2.916C4.28 26.65 4 25.267 4 22.11v-8.222c0-3.156.28-4.539 1.03-5.943A7.027 7.027 0 0 1 7.946 5.03ZM13.89 6.5c-3.013 0-3.902.274-4.764.735a4.527 4.527 0 0 0-1.89 1.89c-.46.862-.735 1.751-.735 4.764v8.222c0 3.013.274 3.902.735 4.764a4.527 4.527 0 0 0 1.89 1.89c.862.46 1.751.735 4.764.735h8.222c3.013 0 3.902-.274 4.764-.735a4.527 4.527 0 0 0 1.89-1.89c.46-.862.735-1.751.735-4.764v-8.222c0-3.013-.274-3.902-.735-4.764a4.527 4.527 0 0 0-1.89-1.89c-.862-.46-1.751-.735-4.764-.735H13.89Z" clip-rule="evenodd"/><path d="M12 25.25a1.25 1.25 0 1 1 2.5 0v5.5a1.25 1.25 0 1 1-2.5 0v-5.5Zm9.5 0a1.25 1.25 0 1 1 2.5 0v5.5a1.25 1.25 0 1 1-2.5 0v-5.5Zm-12-7c0-.69.56-1.25 1.25-1.25h14.5a1.25 1.25 0 1 1 0 2.5h-14.5c-.69 0-1.25-.56-1.25-1.25Zm0-6c0-.69.56-1.25 1.25-1.25h14.5a1.25 1.25 0 1 1 0 2.5h-14.5c-.69 0-1.25-.56-1.25-1.25Z"/></svg>
