<svg xmlns="http://www.w3.org/2000/svg" width="36" height="36" viewBox="0 0 36 36" fill="currentColor"><path fill-rule="evenodd" d="M21.269 3.996a5.75 5.75 0 0 1 5.75 5.75v11.1c0 1.075-.24 2.137-.7 3.108l-3.152 6.64a4.214 4.214 0 0 1-8.02-1.806v-3.492H8.755c-3.986 0-6.763-3.958-5.407-7.706l3.546-9.8A5.75 5.75 0 0 1 12.3 3.996zm-8.969 2.5a3.25 3.25 0 0 0-3.057 2.145l-3.545 9.8c-.766 2.118.803 4.355 3.056 4.355h7.19c.941 0 1.704.763 1.704 1.703v4.29a1.713 1.713 0 0 0 3.26.734l3.152-6.641a4.75 4.75 0 0 0 .459-2.036v-11.1a3.25 3.25 0 0 0-3.25-3.25z" clip-rule="evenodd"/><path d="M30.754 4.5c.688 0 1.246.558 1.246 1.246v15.508a1.246 1.246 0 0 1-2.492 0V5.746c0-.688.558-1.246 1.246-1.246"/></svg>