<svg xmlns="http://www.w3.org/2000/svg" width="36" height="36" fill="currentColor" viewBox="0 0 36 36"><path d="M18 8.5c2.486 0 4.5 2.014 4.5 4.5s-2.014 4.5-4.5 4.5a4.499 4.499 0 0 1-4.5-4.5A4.5 4.5 0 0 1 18 8.5Zm9 16.857C27 21.071 21.177 20 18 20c-3.177 0-9 1.071-9 5.357 0 1.875.53 2.143 1.588 2.143h14.824c1.059 0 1.588-.268 1.588-2.143ZM11.31 10.934c.07-.23-.014-.486-.232-.587A3.749 3.749 0 0 0 5.75 13.75a3.749 3.749 0 0 0 5.9 3.074c.197-.138.235-.406.125-.62A6.972 6.972 0 0 1 11 13c0-.72.108-1.413.31-2.066ZM9.57 19.74c.105-.072.058-.24-.07-.24-2.647 0-7.5.929-7.5 4.643C2 25.768 2.441 26 3.324 26h2.55a.636.636 0 0 0 .626-.643c0-2.668 1.408-4.465 3.07-5.616Zm19.93 5.617c0 .349.277.643.625.643h2.551C33.56 26 34 25.768 34 24.143c0-3.714-4.853-4.643-7.5-4.643-.128 0-.175.168-.07.24 1.662 1.152 3.07 2.949 3.07 5.617Zm-5.275-9.152c-.11.213-.072.48.125.619a3.749 3.749 0 0 0 5.9-3.074 3.749 3.749 0 0 0-5.328-3.403c-.218.101-.303.357-.232.587A6.98 6.98 0 0 1 25 13c0 1.155-.28 2.245-.775 3.205Z"/></svg>
