<svg xmlns="http://www.w3.org/2000/svg" width="36" height="36" fill="currentColor" viewBox="0 0 36 36"><path fill-rule="evenodd" d="M7.036 29.921c.704.778 1.683.829 2.317.829h15.88l.883.884a1.25 1.25 0 0 0 1.768-1.768l-19.75-19.75a1.25 1.25 0 0 0-1.768 1.768l8.16 8.16c-1.52.254-3.134.699-4.527 1.43-2.013 1.059-3.749 2.837-3.749 5.597 0 1.088.136 2.13.786 2.85Zm9.562-7.614c-1.81.141-3.87.558-5.436 1.38-1.54.81-2.412 1.89-2.412 3.384 0 .481.036.792.082.99a.965.965 0 0 0 .048.154c.061.014.2.035.473.035h13.38l-5.968-5.968c-.055.012-.11.02-.168.025Z M23.872 20.607a1.25 1.25 0 0 0-.744 2.386c2.21.69 3.686 1.785 4.035 3.29.04.171.067.353.08.547a1.25 1.25 0 0 0 2.494-.16 5.848 5.848 0 0 0-.139-.953c-.665-2.861-3.302-4.354-5.726-5.11ZM13.789 9.921A4.25 4.25 0 0 1 18 6.25a4.25 4.25 0 0 1 .967 8.39 1.25 1.25 0 1 0 .566 2.435A6.75 6.75 0 0 0 24.75 10.5c0-3.73-3.02-6.75-6.75-6.75a6.75 6.75 0 0 0-6.688 5.835 1.25 1.25 0 0 0 2.477.336Z"/></svg>
