<svg width="36" height="36" viewBox="0 0 36 36" fill="none" xmlns="http://www.w3.org/2000/svg">
<path d="M28.9286 12.8571C28.9286 10.3709 26.9148 8.35715 24.4286 8.35715C21.9423 8.35715 19.9286 10.3709 19.9286 12.8571C19.9286 15.3434 21.9423 17.3571 24.4286 17.3571C26.9148 17.3571 28.9286 15.3434 28.9286 12.8571ZM24.4286 19.2857C27.605 19.2857 33.4286 20.3878 33.4286 24.7959C33.4286 26.7245 32.8992 27 31.8403 27L22.8275 27.0009C23.0367 26.374 23.1429 25.6372 23.1429 24.7959C23.1429 22.6246 22.3364 20.9282 20.996 19.6627C22.226 19.3898 23.4523 19.2857 24.4286 19.2857ZM11.5714 19.2857C14.7479 19.2857 20.5714 20.3878 20.5714 24.7959C20.5714 26.7245 20.042 27 18.9832 27H4.15966C3.10084 27 2.57143 26.7245 2.57143 24.7959C2.57143 20.3878 8.39496 19.2857 11.5714 19.2857ZM11.5714 8.35715C14.0577 8.35715 16.0714 10.3709 16.0714 12.8571C16.0714 15.3434 14.0577 17.3571 11.5714 17.3571C9.08518 17.3571 7.07143 15.3434 7.07143 12.8571C7.07143 10.3709 9.08518 8.35715 11.5714 8.35715Z" fill="currentColor"/>
</svg>
