<svg xmlns="http://www.w3.org/2000/svg" width="36" height="36" viewBox="0 0 36 36" fill="currentColor"><path fill-rule="evenodd" d="M24 16a6 6 0 1 1-12 0 6 6 0 0 1 12 0m-2.5 0a3.5 3.5 0 1 1-7 0 3.5 3.5 0 0 1 7 0" clip-rule="evenodd"/><path fill-rule="evenodd" d="M18 3A14.96 14.96 0 0 0 7.393 7.393 14.96 14.96 0 0 0 3 18a14.96 14.96 0 0 0 4.393 10.607A14.96 14.96 0 0 0 18 33a14.96 14.96 0 0 0 10.607-4.393A14.96 14.96 0 0 0 33 18a14.96 14.96 0 0 0-4.393-10.607A14.96 14.96 0 0 0 18 3M9.161 9.161A12.46 12.46 0 0 1 18 5.5a12.46 12.46 0 0 1 8.839 3.661A12.46 12.46 0 0 1 30.5 18c0 3.398-1.354 6.477-3.555 8.732A15.93 15.93 0 0 0 18 24a15.93 15.93 0 0 0-8.945 2.732A12.46 12.46 0 0 1 5.5 18a12.46 12.46 0 0 1 3.661-8.839M24.924 28.41A12.44 12.44 0 0 1 18 30.5a12.44 12.44 0 0 1-6.924-2.091A13.44 13.44 0 0 1 18 26.5c2.531 0 4.9.697 6.924 1.909" clip-rule="evenodd"/></svg>