<svg width="36" height="36" viewBox="0 0 36 36" fill="none" xmlns="http://www.w3.org/2000/svg">
<path fill-rule="evenodd" clip-rule="evenodd" d="M18 6.99857C20.7614 6.99857 23 9.23714 23 11.9986C23 14.76 20.7614 16.9986 18 16.9986C15.2386 16.9986 13 14.76 13 11.9986C13 9.23714 15.2386 6.99857 18 6.99857ZM18 9.49857C16.6193 9.49857 15.5 10.6179 15.5 11.9986C15.5 13.3793 16.6193 14.4986 18 14.4986C19.3807 14.4986 20.5 13.3793 20.5 11.9986C20.5 10.6179 19.3807 9.49857 18 9.49857ZM6.05001 12.7843C6.05001 10.3187 8.04874 8.31999 10.5143 8.31999C11.2047 8.31999 11.7643 8.87964 11.7643 9.56999C11.7643 10.2604 11.2047 10.82 10.5143 10.82L10.3677 10.8254C9.35132 10.9004 8.55001 11.7487 8.55001 12.7843C8.55001 13.8691 9.42945 14.7486 10.5143 14.7486L10.6421 14.755C11.2724 14.819 11.7643 15.3514 11.7643 15.9986C11.7643 16.6889 11.2047 17.2486 10.5143 17.2486C8.04874 17.2486 6.05001 15.2498 6.05001 12.7843ZM1.96429 24.0357C1.96429 21.3646 4.20327 19.25 7.71429 19.25C8.40465 19.25 8.96429 19.8096 8.96429 20.5C8.96429 21.1904 8.40465 21.75 7.71429 21.75C5.55305 21.75 4.46429 22.7783 4.46429 24.0357C4.46429 24.6864 4.89124 25.0357 5.46429 25.0357H6.42858L6.55639 25.0422C7.18671 25.1062 7.67858 25.6385 7.67858 26.2857C7.67858 26.9761 7.11894 27.5357 6.42858 27.5357H5.46429L5.2795 27.5312C3.50097 27.4451 1.96429 26.1184 1.96429 24.0357ZM34.0357 24.0357C34.0357 21.3646 31.7967 19.25 28.2857 19.25C27.5954 19.25 27.0357 19.8096 27.0357 20.5C27.0357 21.1904 27.5954 21.75 28.2857 21.75C30.447 21.75 31.5357 22.7783 31.5357 24.0357C31.5357 24.6864 31.1088 25.0357 30.5357 25.0357H29.5714L29.4436 25.0422C28.8133 25.1062 28.3214 25.6385 28.3214 26.2857C28.3214 26.9761 28.8811 27.5357 29.5714 27.5357H30.5357L30.7205 27.5312C32.499 27.4451 34.0357 26.1184 34.0357 24.0357ZM9.67858 25C9.67858 21.4989 13.0519 19.25 18 19.25C22.9481 19.25 26.3214 21.4989 26.3214 25C26.3214 27.4602 24.688 28.8214 22.5 28.8214H13.5C11.3121 28.8214 9.67858 27.4602 9.67858 25ZM23.8214 25C23.8214 23.144 21.7305 21.75 18 21.75C14.2695 21.75 12.1786 23.144 12.1786 25C12.1786 25.9684 12.6022 26.3214 13.5 26.3214H22.5C23.3978 26.3214 23.8214 25.9684 23.8214 25ZM25.5 8.31999C24.8097 8.31999 24.25 8.87964 24.25 9.56999C24.25 10.2172 24.7419 10.7495 25.3722 10.8135L25.5 10.82C26.5849 10.82 27.4643 11.6994 27.4643 12.7843C27.4643 13.8198 26.663 14.6682 25.6466 14.7432L25.5 14.7486C24.8097 14.7486 24.25 15.3082 24.25 15.9986C24.25 16.6889 24.8097 17.2486 25.5 17.2486C27.9656 17.2486 29.9643 15.2498 29.9643 12.7843C29.9643 10.3187 27.9656 8.31999 25.5 8.31999Z" fill="currentColor"/>
</svg>
