<svg fill="none" height="36" viewBox="0 0 36 36" width="36" xmlns="http://www.w3.org/2000/svg"><path d="m19.7313 7.5c2.0059 0 2.7333.20886 3.4666.60105s1.3089.96771 1.7011 1.70105c.3921.7333.601 1.4607.601 3.4666v9.4626c0 2.0059-.2089 2.7333-.601 3.4666-.3922.7333-.9678 1.3089-1.7011 1.7011-.7333.3921-1.4607.601-3.4666.601h-10.96256c-2.00592 0-2.73331-.2089-3.46664-.601-.73334-.3922-1.30886-.9678-1.70105-1.7011s-.60105-1.4607-.60105-3.4666v-9.4626c0-2.0059.20886-2.7333.60105-3.4666.39219-.73334.96771-1.30886 1.70105-1.70105.73333-.39219 1.46072-.60105 3.46664-.60105zm14.4681 4.3454c.1951.2598.3006.5759.3006.9008v10.5077c0 .8284-.6716 1.5-1.5 1.5-.3249 0-.641-.1055-.9008-.3006l-3.2996-2.4783c-.1886-.1416-.2996-.3638-.2996-.5997v-6.7506c0-.2359.111-.4581.2996-.5997l3.2996-2.4782c.6624-.4975 1.6027-.3638 2.1002.2986z" fill="currentColor"/></svg>
