<svg width="36" height="36" viewBox="0 0 36 36" fill="none" xmlns="http://www.w3.org/2000/svg">
<path fill-rule="evenodd" clip-rule="evenodd" d="M18 3C26.2843 3 33 9.71573 33 18C33 26.2843 26.2843 33 18 33C9.71573 33 3 26.2843 3 18C3 9.71573 9.71573 3 18 3ZM18 5.5C11.0964 5.5 5.5 11.0964 5.5 18C5.5 24.9036 11.0964 30.5 18 30.5C24.9036 30.5 30.5 24.9036 30.5 18C30.5 11.0964 24.9036 5.5 18 5.5ZM16.1 11.4798C14.6641 11.4798 13.5 12.6439 13.5 14.0798V21.9202C13.5 22.405 13.6356 22.8803 13.8915 23.2921C14.6492 24.5119 16.2522 24.8864 17.472 24.1287L23.7825 20.2085C24.1219 19.9977 24.4082 19.7114 24.619 19.372C25.3768 18.1522 25.0022 16.5492 23.7825 15.7915L17.472 11.8713C17.0601 11.6154 16.5849 11.4798 16.1 11.4798ZM16.1 13.9798C16.1186 13.9798 16.1369 13.9851 16.1528 13.9949L22.4633 17.9151C22.5102 17.9442 22.5246 18.0059 22.4954 18.0528C22.4873 18.0658 22.4763 18.0768 22.4633 18.0849L16.1528 22.0051C16.1059 22.0342 16.0442 22.0198 16.0151 21.9729C16.0052 21.9571 16 21.9388 16 21.9202V14.0798C16 14.0246 16.0448 13.9798 16.1 13.9798Z" fill="currentColor"/>
</svg>
