<svg xmlns="http://www.w3.org/2000/svg" width="36" height="36" fill="currentColor" viewBox="0 0 36 36"><path fill-rule="evenodd" d="M14.464 14.464A4.984 4.984 0 0 1 18 13c1.38 0 2.63.56 3.535 1.464A4.984 4.984 0 0 1 23 18c0 1.38-.56 2.63-1.465 3.535A4.984 4.984 0 0 1 18 23c-1.38 0-2.63-.56-3.536-1.465A4.984 4.984 0 0 1 13 18c0-1.38.56-2.63 1.464-3.536ZM18 15.5c-.691 0-1.313.277-1.768.732A2.485 2.485 0 0 0 15.5 18c0 .691.277 1.313.732 1.768A2.485 2.485 0 0 0 18 20.5c.691 0 1.313-.277 1.768-.732A2.485 2.485 0 0 0 20.5 18c0-.691-.277-1.313-.732-1.768A2.485 2.485 0 0 0 18 15.5Z M17.75 8C13.154 8 8 11.967 8 17.75a1.25 1.25 0 1 0 2.5 0c0-4.217 3.844-7.25 7.25-7.25a1.25 1.25 0 1 0 0-2.5ZM28 18.25a1.25 1.25 0 0 0-2.5 0c0 3.607-3.237 7.25-7.25 7.25a1.25 1.25 0 1 0 0 2.5c5.487 0 9.75-4.857 9.75-9.75Z M7.393 7.393A14.953 14.953 0 0 1 18 3c4.142 0 7.892 1.679 10.607 4.393A14.953 14.953 0 0 1 33 18c0 4.142-1.679 7.892-4.393 10.607A14.953 14.953 0 0 1 18 33a14.953 14.953 0 0 1-10.607-4.393A14.953 14.953 0 0 1 3 18c0-4.142 1.679-7.892 4.393-10.607ZM18 5.5a12.453 12.453 0 0 0-8.839 3.661A12.453 12.453 0 0 0 5.5 18c0 3.453 1.396 6.574 3.661 8.839A12.453 12.453 0 0 0 18 30.5c3.453 0 6.574-1.396 8.839-3.661A12.453 12.453 0 0 0 30.5 18c0-3.453-1.396-6.574-3.661-8.839A12.453 12.453 0 0 0 18 5.5Z" clip-rule="evenodd"/></svg>
