<svg fill="none" height="24" viewBox="0 0 24 24" width="24" xmlns="http://www.w3.org/2000/svg"><g fill="currentColor"><path d="m9.00001 12.1972c0 2.3211 1.13019 3.8028 2.98059 3.8028s3.0194-1.5155 3.0194-3.8028v-.4113c0-2.32114-1.1136-3.78592-2.9806-3.78592-1.8615 0-3.01939 1.49295-3.01939 3.78592zm1.83929-.4057c0-1.4591.4266-2.3042 1.1579-2.3042s1.169.8507 1.169 2.3042v.4c0 1.4592-.4377 2.3212-1.1634 2.3212-.7313 0-1.1635-.8564-1.1635-2.3212z"/><path clip-rule="evenodd" d="m12 2.09998c5.4671 0 9.9 4.43287 9.9 9.90002 0 5.4671-4.4329 9.9-9.9 9.9-5.46712 0-9.89999-4.4329-9.89999-9.9 0-5.46715 4.43287-9.90002 9.89999-9.90002zm0 1.8c-4.474 0-8.09999 3.62599-8.09999 8.10002 0 4.474 3.62599 8.1 8.09999 8.1s8.1-3.626 8.1-8.1c0-4.47403-3.626-8.10002-8.1-8.10002z" fill-rule="evenodd"/></g></svg>
