<svg xmlns="http://www.w3.org/2000/svg" width="24" height="24" fill="currentColor" viewBox="0 0 24 24"><path fill-rule="evenodd" d="M7.6 20.9h.033c.392 0 .738 0 1.025-.023.306-.025.623-.081.932-.239a2.4 2.4 0 0 0 1.048-1.048c.158-.309.214-.626.239-.931.023-.288.023-.634.023-1.026V6.367c0-.392 0-.738-.023-1.026-.025-.305-.081-.622-.239-.93A2.4 2.4 0 0 0 9.59 3.36a2.448 2.448 0 0 0-.932-.238C8.371 3.1 8.025 3.1 7.633 3.1H6.367c-.392 0-.738 0-1.026.023-.305.025-.622.081-.93.239A2.4 2.4 0 0 0 3.36 4.41a2.447 2.447 0 0 0-.238.931c-.023.288-.023.634-.023 1.026v11.266c0 .392 0 .738.023 1.026.025.305.081.622.239.93a2.4 2.4 0 0 0 1.048 1.05c.309.157.626.213.931.238.288.023.634.023 1.026.023H7.6Zm1.172-1.865c-.012.006-.066.032-.26.047-.205.017-.477.018-.912.018H6.4c-.435 0-.707 0-.912-.018-.194-.015-.248-.041-.26-.047a.6.6 0 0 1-.263-.263c-.006-.012-.032-.066-.048-.26A12.65 12.65 0 0 1 4.9 17.6V6.4c0-.435 0-.707.017-.912.016-.194.042-.248.048-.26a.6.6 0 0 1 .263-.263c.012-.006.066-.032.26-.048.205-.016.477-.017.912-.017h1.2c.435 0 .707 0 .912.017.194.016.248.042.26.048a.6.6 0 0 1 .263.263c.006.012.032.066.048.26.016.205.017.477.017.912v11.2c0 .435 0 .707-.017.912-.016.194-.042.248-.048.26a.6.6 0 0 1-.263.263Zm8.861-8.135h-1.266c-.392 0-.738 0-1.026-.023-.305-.025-.622-.081-.93-.239a2.4 2.4 0 0 1-1.05-1.048 2.448 2.448 0 0 1-.238-.932c-.023-.287-.023-.633-.023-1.025V6.367c0-.392 0-.738.023-1.026.025-.305.081-.622.239-.93a2.4 2.4 0 0 1 1.048-1.05 2.44 2.44 0 0 1 .931-.238c.288-.023.634-.023 1.026-.023h1.266c.392 0 .738 0 1.026.023.305.025.622.081.93.239a2.4 2.4 0 0 1 1.05 1.048c.157.309.213.626.238.931.023.288.023.634.023 1.026v1.266c0 .392 0 .738-.023 1.025-.025.306-.081.623-.239.932a2.4 2.4 0 0 1-1.048 1.048 2.431 2.431 0 0 1-.931.239c-.288.023-.634.023-1.026.023Zm.879-1.817c.194-.016.248-.042.26-.048a.6.6 0 0 0 .263-.263c.006-.012.032-.066.047-.26.017-.205.018-.477.018-.912V6.4c0-.435 0-.707-.018-.912-.015-.194-.041-.248-.047-.26a.6.6 0 0 0-.263-.263c-.012-.006-.066-.032-.26-.048A12.65 12.65 0 0 0 17.6 4.9h-1.2c-.435 0-.707 0-.912.017-.194.016-.248.042-.26.048a.6.6 0 0 0-.263.263c-.006.012-.032.066-.048.26a13.19 13.19 0 0 0-.017.912v1.2c0 .435 0 .707.017.912.016.194.042.248.048.26a.6.6 0 0 0 .263.263c.012.006.066.032.26.048.205.016.477.017.912.017h1.2c.435 0 .707 0 .912-.017ZM17.6 20.9h.033c.392 0 .738 0 1.026-.023.305-.025.622-.081.93-.239a2.4 2.4 0 0 0 1.05-1.048c.157-.309.213-.626.238-.931.023-.288.023-.634.023-1.026v-1.266c0-.392 0-.738-.023-1.026-.025-.305-.081-.622-.239-.93a2.4 2.4 0 0 0-1.048-1.05 2.447 2.447 0 0 0-.931-.238c-.288-.023-.634-.023-1.026-.023h-1.266c-.392 0-.738 0-1.026.023-.305.025-.622.081-.93.239a2.4 2.4 0 0 0-1.05 1.048 2.447 2.447 0 0 0-.238.931c-.023.288-.023.634-.023 1.026v1.266c0 .392 0 .738.023 1.026.025.305.081.622.239.93a2.4 2.4 0 0 0 1.048 1.05c.309.157.626.213.931.238.288.023.634.023 1.025.023H17.6Zm1.172-1.865c-.012.006-.066.032-.26.047-.205.017-.477.018-.912.018h-1.2c-.435 0-.707 0-.912-.018-.194-.015-.248-.041-.26-.047a.6.6 0 0 1-.263-.263c-.006-.012-.032-.066-.048-.26a12.688 12.688 0 0 1-.017-.912v-1.2c0-.435 0-.707.017-.912.016-.194.042-.248.048-.26a.6.6 0 0 1 .263-.263c.012-.006.066-.032.26-.048.205-.016.477-.017.912-.017h1.2c.435 0 .707 0 .912.017.194.016.248.042.26.048a.6.6 0 0 1 .263.263c.006.012.032.066.047.26.017.205.018.477.018.912v1.2c0 .435 0 .707-.018.912-.015.194-.041.248-.047.26a.6.6 0 0 1-.263.263Z" clip-rule="evenodd"/></svg>
