<svg fill="none" height="24" viewBox="0 0 24 24" width="24" xmlns="http://www.w3.org/2000/svg"><path clip-rule="evenodd" d="m12.7248 2.19484c-.4747-.1282-.9749-.1282-1.4496 0-.543.14666-1.0115.5109-1.55576.93409l-.00001.00001-.11369.0883-.09148.07091c-.30909.2396-.37548.28653-.4397.31942-.07229.03701-.14889.06489-.22806.083-.07033.01609-.15135.02282-.54214.03795l-.11566.00448-.14386.00543c-.68895.02567-1.28195.04776-1.79222.28449-.44604.20692-.82922.52845-1.11046.93179-.32173.46141-.44646 1.04155-.59138 1.71559l-.03033.14073-.02449.11312c-.08277.38222-.10346.46085-.13152.52732-.03158.07482-.07234.14542-.12135.21018-.04353.05754-.10127.11477-.39091.37756l-.08572.07777-.10671.09663c-.51127.46251-.95133.86061-1.19006 1.36994-.20868.44525-.29554.93785-.25172 1.42755.05013.5603.32749 1.0849.64974 1.6944h.00001l.06722.1273.05395.1024c.18229.346.21697.4195.2382.4885.0239.0776.03806.1579.04215.239.00363.072-.00382.153-.05677.5405l-.01567.1147-.01963.1426c-.09436.6829-.17558 1.2707-.03106 1.8144.12633.4752.37643.9084.7248 1.2554.39854.3969.94822.6205 1.58685.8803l.13331.0543.10715.0437c.36205.1479.43589.1819.49647.2211.0682.0441.13065.0965.18592.156.0491.0529.09544.1197.30394.4506l.06171.0979.07663.1218c.36671.5839.68234 1.0864 1.14248 1.4099.40222.2828.87227.4539 1.36218.4958.56046.0479 1.12525-.1341 1.78145-.3456l.137-.0441.1102-.0354c.3724-.1194.4509-.1408.5225-.1497.0806-.0101.1621-.0101.2427 0 .0716.0089.15.0303.5224.1497l.1102.0354.1371.0441c.6561.2115 1.2209.3935 1.7814.3456.4899-.0419.9599-.213 1.3622-.4958.4601-.3235.7757-.826 1.1425-1.4099l.0766-.1218.0617-.0979c.2085-.3309.2548-.3977.3039-.4506.0553-.0595.1177-.1119.1859-.156.0606-.0392.1345-.0732.4965-.2211l.1072-.0437.1333-.0543c.6386-.2598 1.1883-.4834 1.5868-.8803.3484-.347.5985-.7802.7248-1.2554.1445-.5437.0633-1.1315-.031-1.8144l-.0197-.1426-.0156-.1147c-.053-.3875-.0604-.4685-.0568-.5405.0041-.0811.0182-.1614.0421-.239.0213-.069.056-.1425.2383-.4885l.0539-.1024.0672-.1273c.3223-.6095.5996-1.1341.6498-1.6944.0438-.4897-.0431-.9823-.2518-1.42755-.2387-.50933-.6787-.90742-1.19-1.36994l-.1067-.09663-.0857-.07777c-.2897-.26279-.3474-.32002-.391-.37756-.049-.06476-.0897-.13536-.1213-.21018-.0281-.06647-.0488-.1451-.1315-.52732l-.0245-.11313-.0303-.14071c-.145-.67404-.2697-1.25419-.5914-1.7156-.2813-.40334-.6644-.72487-1.1105-.93179-.5103-.23673-1.1032-.25882-1.7922-.28449l-.1439-.00543-.1156-.00448c-.3908-.01513-.4718-.02186-.5422-.03795-.0791-.01811-.1557-.04599-.228-.083-.0642-.03289-.1306-.07982-.4397-.31942l-.0915-.07091-.1137-.0883c-.5443-.4232-1.0127-.78744-1.5558-.9341zm-.9803 1.73775c.1674-.04519.3437-.04519.511 0 .1472.03973.3112.1454 1.036.70727l.0915.07092.047.03645c.2369.18391.4421.34322.6751.46254.2051.10499.4224.18408.647.23546.2552.05839.5148.06827.8145.07967l.0594.00228.1157.00448c.9164.03549 1.11.05997 1.2482.12411.1573.07294.2923.18628.3915.32847.0871.12501.1449.31139.339 1.20772l.0244.11312.0126.05811c.0633.29318.1181.54714.2199.78833.0896.21224.2052.41251.3442.59622.158.20878.3505.38323.5728.58462l.044.03992.0858.07777c.6792.61625.8117.75945.8764.89745.0736.1569.1042.3306.0887.5032-.0136.1518-.0891.3317-.5166 1.1431l-.054.1024-.0277.0526c-.14.2652-.2612.495-.3383.7452-.0678.2202-.1079.4479-.1195.678-.0132.2615.0222.5189.063.816l.008.0589.0157.1147c.1242.9086.1337 1.1035.0945 1.2508-.0445.1675-.1327.3202-.2555.4426-.1079.1075-.2815.1967-1.1305.5435l-.1071.0438-.0551.0224c-.2777.1133-.5183.2113-.7381.3535-.1935.1251-.3706.2737-.5274.4425-.1782.1918-.3165.4117-.4763.6656l-.0317.0503-.0617.0979c-.4889.7759-.6069.9313-.7316 1.019-.1418.0997-.3075.16-.4802.1748-.1518.0129-.3421-.0303-1.2154-.3103l-.1102-.0354-.0566-.0182c-.2855-.0918-.5329-.1713-.7927-.2037-.2286-.0285-.4598-.0285-.6884 0-.2598.0324-.5071.1119-.7927.2037l-.0566.0182-.1102.0354c-.87328.28-1.06355.3232-1.2154.3103-.1727-.0148-.3384-.0751-.48019-.1748-.12467-.0877-.24266-.2431-.7316-1.019l-.06171-.0979-.03168-.0503c-.15973-.2539-.29809-.4738-.47626-.6656-.15678-.1688-.33394-.3174-.52739-.4425-.21984-.1422-.46042-.2402-.73815-.3535l-.05506-.0224-.10715-.0438c-.84901-.3468-1.02254-.436-1.13051-.5435-.12281-.1224-.21098-.2751-.25551-.4426-.03915-.1473-.02965-.3422.09453-1.2508l.01567-.1147.00808-.0589c.04081-.2971.07617-.5545.06298-.816-.0116-.2301-.05176-.4578-.11955-.678-.07703-.2502-.19829-.48-.33827-.7452l-.02773-.0526-.05395-.1024c-.42747-.8114-.50306-.9913-.51664-1.1431-.01545-.1726.01517-.3463.08874-.5032.06468-.138.19722-.2812.87642-.89745l.08573-.07777.04405-.03994c.22226-.20138.41479-.37582.57275-.5846.13901-.18371.25464-.38398.34423-.59622.10182-.24119.15663-.49514.2199-.78832l.01256-.05812.02449-.11312c.19409-.89633.25182-1.08271.33898-1.20772.09914-.14219.23422-.25553.39146-.32847.13825-.06414.33182-.08862 1.24824-.12411l.11566-.00448.05941-.00228c.29971-.0114.55932-.02128.81453-.07967.22457-.05138.44188-.13047.64694-.23546.233-.11932.4383-.27863.6752-.46254l.047-.03645.0914-.07091c.7249-.56188.8889-.66755 1.036-.70728zm1.1556 4.9674c0-.49706-.403-.9-.9-.9-.4971 0-.9.40294-.9.9v2.20001h-2.20005c-.49706 0-.9.403-.89999.9 0 .4971.40295.9.90001.9h2.20003v2.2c0 .4971.4029.9.9.9.497 0 .9-.4029.9-.9v-2.2h2.2c.497 0 .9-.403.9-.9 0-.4971-.403-.9-.9-.9h-2.2z" fill="currentColor" fill-rule="evenodd"/></svg>
