<?xml version="1.0" encoding="UTF-8"?>
<svg width="24px" height="24px" viewBox="0 0 24 24" version="1.1" xmlns="http://www.w3.org/2000/svg" xmlns:xlink="http://www.w3.org/1999/xlink">
    <!-- Generator: Sketch 59.1 (86144) - https://sketch.com -->
    <title>add_outline_24</title>
    <desc>Created with Sketch.</desc>
    <g id="Page-1" stroke="none" stroke-width="1" fill="none" fill-rule="evenodd">
        <g id="add_outline_24">
            <rect x="0" y="0" width="24" height="24"></rect>
            <path d="M12.0000395,3 C12.4970741,3 12.9000003,3.40292619 12.9000003,3.89996084 L12.9,11.1 L20.1000491,11.1000495 C20.5970783,11.1000495 21,11.5029712 21,12.0000004 C21,12.4970295 20.5970783,12.8999512 20.1000491,12.8999512 L12.9,12.899 L12.9000003,20.1001261 C12.9000003,20.5971608 12.4970741,21.000087 12.0000395,21.000087 C11.5030048,21.000087 11.1000786,20.5971608 11.1000786,20.1001261 L11.1,12.899 L3.89995086,12.8999512 C3.40292173,12.8999512 3,12.4970295 3,12.0000004 C3,11.5029712 3.40292173,11.1000495 3.89995086,11.1000495 L11.1,11.1 L11.1000786,3.89996084 C11.1000786,3.40292619 11.5030048,3 12.0000395,3 Z" id="↳-Icon-Color" fill="currentColor" fill-rule="nonzero"></path>
        </g>
    </g>
</svg>
