<svg fill="none" height="24" width="24" xmlns="http://www.w3.org/2000/svg"><path clip-rule="evenodd" d="M12.725 2.195a2.78 2.78 0 00-1.45 0c-.543.147-1.011.51-1.556.934l-.113.088-.092.071c-.309.24-.375.287-.44.32a.98.98 0 01-.227.083c-.07.016-.152.022-.543.038l-.115.004-.144.005c-.69.026-1.282.048-1.792.285a2.78 2.78 0 00-1.11.932c-.323.461-.447 1.041-.592 1.715l-.03.141-.025.113c-.083.382-.104.461-.132.527a.98.98 0 01-.12.21c-.044.058-.102.115-.392.378l-.086.078-.106.097c-.512.462-.952.86-1.19 1.37a2.78 2.78 0 00-.252 1.427c.05.56.327 1.085.65 1.694l.067.128.054.102c.182.346.217.42.238.489a.98.98 0 01.042.239c.004.072-.004.153-.057.54l-.015.115-.02.142c-.094.683-.175 1.271-.03 1.815.125.475.376.908.724 1.255.398.397.948.62 1.587.88l.133.055.107.044c.362.148.436.182.497.22a.98.98 0 01.186.157c.049.053.095.12.304.45l.061.098.077.122c.367.584.682 1.086 1.142 1.41a2.78 2.78 0 001.363.496c.56.048 1.125-.134 1.781-.346l.137-.044.11-.035c.373-.12.451-.141.523-.15.08-.01.162-.01.242 0 .072.009.15.03.523.15l.11.035.137.044c.656.212 1.221.394 1.782.346a2.78 2.78 0 001.362-.496c.46-.324.775-.826 1.142-1.41l.077-.122.061-.098c.209-.33.255-.397.304-.45a.981.981 0 01.186-.156c.06-.04.135-.073.497-.221l.107-.044.133-.054c.639-.26 1.189-.484 1.587-.88a2.78 2.78 0 00.725-1.256c.144-.544.063-1.132-.031-1.814l-.02-.143-.015-.115c-.053-.387-.06-.468-.057-.54a.98.98 0 01.042-.24c.021-.068.056-.142.238-.488l.054-.102.067-.127c.323-.61.6-1.135.65-1.695a2.78 2.78 0 00-.252-1.427c-.238-.51-.678-.908-1.19-1.37l-.106-.097-.086-.078c-.29-.263-.348-.32-.391-.377a.98.98 0 01-.121-.21c-.029-.067-.05-.146-.132-.528l-.024-.113-.03-.14c-.146-.675-.27-1.255-.592-1.716a2.78 2.78 0 00-1.11-.932c-.51-.237-1.104-.259-1.793-.285l-.144-.005-.115-.004c-.391-.016-.472-.022-.543-.038a.98.98 0 01-.228-.083c-.064-.033-.13-.08-.44-.32l-.09-.07-.114-.09c-.545-.422-1.013-.786-1.556-.933zm-.98 1.738a.98.98 0 01.51 0c.148.04.312.145 1.036.707l.092.07.047.037c.237.184.442.343.675.463.205.105.422.184.647.235.255.059.515.069.815.08l.059.002.116.005c.916.035 1.11.06 1.248.124a.98.98 0 01.391.328c.088.125.145.312.34 1.208l.024.113.012.058c.064.293.118.547.22.789.09.212.205.412.344.596.158.209.351.383.573.584l.044.04.086.078c.68.616.812.76.876.898.074.156.105.33.09.503-.014.151-.09.331-.517 1.143l-.054.102-.028.053c-.14.265-.261.495-.338.745a2.78 2.78 0 00-.12.678c-.013.262.022.519.063.816l.008.059.016.115c.124.908.134 1.103.094 1.25a.98.98 0 01-.255.443c-.108.107-.282.197-1.13.543l-.108.044-.055.023c-.278.113-.518.211-.738.353a2.78 2.78 0 00-.527.443c-.179.192-.317.411-.477.665l-.031.05-.062.099c-.489.775-.607.93-.732 1.019a.98.98 0 01-.48.174c-.152.013-.342-.03-1.215-.31l-.11-.035-.057-.019c-.286-.091-.533-.17-.793-.203a2.782 2.782 0 00-.688 0c-.26.032-.507.112-.793.203l-.057.019-.11.035c-.873.28-1.063.323-1.215.31a.98.98 0 01-.48-.174c-.125-.088-.243-.244-.732-1.02l-.062-.097-.031-.05c-.16-.255-.298-.474-.477-.666a2.78 2.78 0 00-.527-.443c-.22-.142-.46-.24-.738-.353l-.055-.023-.107-.043c-.85-.347-1.023-.436-1.13-.544a.98.98 0 01-.256-.443c-.04-.147-.03-.342.094-1.25l.016-.115.008-.059c.04-.297.076-.554.063-.816a2.78 2.78 0 00-.12-.678c-.077-.25-.198-.48-.338-.745l-.028-.053-.054-.102c-.427-.812-.503-.992-.516-1.143a.98.98 0 01.089-.504c.064-.138.197-.28.876-.897l.086-.078.044-.04c.222-.201.415-.375.572-.584a2.78 2.78 0 00.345-.596c.102-.242.156-.496.22-.789l.012-.058.025-.113c.194-.896.251-1.083.339-1.208a.98.98 0 01.391-.328c.138-.064.332-.089 1.248-.124l.116-.005.06-.002c.3-.012.559-.021.814-.08a2.78 2.78 0 00.647-.235c.233-.12.438-.279.675-.463l.047-.036.091-.071c.725-.562.89-.668 1.036-.707zM12.9 8.9a.9.9 0 00-1.8 0v2.2H8.9a.9.9 0 000 1.8h2.2v2.2a.9.9 0 101.8 0v-2.2h2.2a.9.9 0 000-1.8h-2.2z" fill="currentColor" fill-rule="evenodd"/></svg>
