<svg fill="none" height="24" viewBox="0 0 24 24" width="24" xmlns="http://www.w3.org/2000/svg"><path d="m14.5903 2.10001c2.1679 0 3.202.1997 4.2763.7742.9716.51964 1.7396 1.28759 2.2592 2.25924.5745 1.07422.7742 2.10836.7742 4.27627v5.18058c0 2.1679-.1997 3.202-.7742 4.2763-.5196.9716-1.2876 1.7396-2.2592 2.2592-1.0743.5745-2.1084.7742-4.2763.7742h-5.18058c-2.16791 0-3.20205-.1997-4.27627-.7742-.97165-.5196-1.7396-1.2876-2.25924-2.2592-.5745-1.0743-.7742-2.1084-.7742-4.2763v-5.18058c0-2.16791.1997-3.20205.7742-4.27627.51964-.97165 1.28759-1.7396 2.25924-2.25924 1.07422-.5745 2.10836-.7742 4.27627-.7742zm0 1.8h-5.18058c-1.89617 0-2.64959.14549-3.42739.56146-.65797.35189-1.16897.86289-1.52086 1.52086-.41597.7778-.56146 1.53122-.56146 3.42739v5.18058c0 1.8962.14549 2.6496.56146 3.4274.35189.658.86289 1.169 1.52086 1.5208.7778.416 1.53122.5615 3.42739.5615h5.18058c1.8962 0 2.6496-.1455 3.4274-.5615.658-.3518 1.169-.8628 1.5208-1.5208.416-.7778.5615-1.5312.5615-3.4274v-5.18058c0-1.89617-.1455-2.64959-.5615-3.42739-.3518-.65797-.8628-1.16897-1.5208-1.52086-.7778-.41597-1.5312-.56146-3.4274-.56146zm-2.5903 3.6c.4588 0 .8375.34333.893.7871l.007.1129-.001 2.69999h2.701c.4588 0 .8375.3433.893.7871l.007.1129c0 .4588-.3433.8375-.7871.893l-.1129.007h-2.701l.001 2.7c0 .4588-.3433.8375-.7871.893l-.1129.007c-.4588 0-.8374-.3433-.893-.7871l-.007-.1129-.001-2.7h-2.69899c-.45883 0-.83746-.3433-.89299-.7871l-.00701-.1129c0-.4588.34333-.8374.7871-.893l.1129-.007h2.69899l.001-2.69999c0-.45883.3433-.83746.7871-.89299z" fill="currentColor"/></svg>
