<svg xmlns="http://www.w3.org/2000/svg" width="24" height="24" fill="currentColor" viewBox="0 0 24 24"><path fill-rule="evenodd" d="M8.1 1.998a.9.9 0 0 1 0 1.8 2.02 2.02 0 0 0-1.912 1.394c-.124.38-.188.781-.188 1.18V9.52c0 .971-.41 1.856-1.074 2.479A3.391 3.391 0 0 1 6 14.479v3.148c0 .399.064.8.188 1.18A2.02 2.02 0 0 0 8.1 20.2a.9.9 0 0 1 0 1.8 3.82 3.82 0 0 1-3.623-2.634 5.605 5.605 0 0 1-.277-1.739V14.48c0-.804-.597-1.48-1.391-1.583a.9.9 0 0 1 0-1.792A1.596 1.596 0 0 0 4.2 9.521V6.372c0-.59.095-1.18.277-1.739A3.82 3.82 0 0 1 8.1 1.998Zm7.798.004a.9.9 0 0 0 0 1.8 2.02 2.02 0 0 1 1.915 1.395c.123.38.187.778.187 1.175V9.52c0 .971.41 1.856 1.074 2.479A3.39 3.39 0 0 0 18 14.476v3.154c0 .397-.064.796-.187 1.175A2.02 2.02 0 0 1 15.9 20.2a.9.9 0 0 0 0 1.8 3.82 3.82 0 0 0 3.624-2.637 5.604 5.604 0 0 0 .276-1.733v-3.154c0-.799.591-1.473 1.38-1.58a.9.9 0 0 0 .028-1.79A1.598 1.598 0 0 1 19.8 9.52V6.372a5.6 5.6 0 0 0-.276-1.733 3.82 3.82 0 0 0-3.626-2.637ZM12.9 8.9a.9.9 0 1 0-1.8 0v2.2H8.902a.9.9 0 0 0 0 1.8H11.1v2.2a.9.9 0 1 0 1.8 0v-2.2h2.2a.9.9 0 1 0 0-1.8h-2.2V8.9Z" clip-rule="evenodd"/></svg>
