<svg xmlns="http://www.w3.org/2000/svg" width="24" height="24" fill="none" viewBox="0 0 24 24"><path fill="currentColor" fill-rule="evenodd" d="M12 7a.9.9 0 0 1 .9.9v3.2h3.2a.9.9 0 0 1 .9.9.9.9 0 0 1-.9.9h-3.2v3.2a.9.9 0 0 1-.9.9.9.9 0 0 1-.9-.9v-3.2H7.9A.9.9 0 0 1 7 12a.9.9 0 0 1 .9-.9h3.2V7.9A.9.9 0 0 1 12 7Z" clip-rule="evenodd"/><path fill="currentColor" fill-rule="evenodd" d="M12 3.9c-4.4735 0-8.1 3.6265-8.1 8.1s3.6265 8.1 8.1 8.1 8.1-3.6265 8.1-8.1-3.6265-8.1-8.1-8.1ZM2.1 12c0-5.4676 4.4324-9.9 9.9-9.9s9.9 4.4324 9.9 9.9-4.4324 9.9-9.9 9.9-9.9-4.4324-9.9-9.9Z" clip-rule="evenodd"/></svg>
