<svg xmlns="http://www.w3.org/2000/svg" width="24" height="24" fill="none" viewBox="0 0 24 24"><path fill="currentColor" d="M14.5903 2.1c2.1679 0 3.202.1997 4.2763.7742.9716.5196 1.7396 1.2876 2.2592 2.2592.5745 1.0743.7742 2.1084.7742 4.2763v5.1806c0 2.1679-.1997 3.202-.7742 4.2763-.5196.9716-1.2876 1.7395-2.2592 2.2592-1.0743.5745-2.1084.7742-4.2763.7742H9.4097c-2.1679 0-3.202-.1997-4.2763-.7742-.9716-.5197-1.7395-1.2876-2.2592-2.2592-.5745-1.0743-.7742-2.1084-.7742-4.2763V9.4097c0-2.1679.1997-3.202.7742-4.2763.5196-.9716 1.2876-1.7395 2.2592-2.2592C6.2077 2.2997 7.2418 2.1 9.4097 2.1h5.1806Zm0 1.8H9.4097c-1.8962 0-2.6496.1455-3.4274.5615-.658.3518-1.169.8628-1.5208 1.5208-.416.7778-.5615 1.5312-.5615 3.4274v5.1806c0 1.8962.1455 2.6496.5615 3.4274.3519.6579.8629 1.1689 1.5208 1.5208.7778.416 1.5313.5615 3.4274.5615h5.1806c1.8962 0 2.6496-.1455 3.4274-.5615.658-.3519 1.169-.8629 1.5208-1.5208.416-.7778.5615-1.5312.5615-3.4274V9.4097c0-1.8962-.1455-2.6496-.5615-3.4274-.3518-.658-.8628-1.169-1.5208-1.5208-.7778-.416-1.5312-.5615-3.4274-.5615Z"/><path fill="currentColor" fill-rule="evenodd" d="M12 7a.9.9 0 0 1 .9.9v3.2h3.2a.9.9 0 0 1 .9.9.9.9 0 0 1-.9.9h-3.2v3.2a.9.9 0 0 1-.9.9.9.9 0 0 1-.9-.9v-3.2H7.9A.9.9 0 0 1 7 12a.9.9 0 0 1 .9-.9h3.2V7.9A.9.9 0 0 1 12 7Z" clip-rule="evenodd"/></svg>
