<svg xmlns="http://www.w3.org/2000/svg" width="24" height="24" fill="currentColor" viewBox="0 0 24 24"><path d="M15 8.5a.9.9 0 1 0 0 1.8c.548 0 .962.18 1.235.445.269.262.465.67.465 1.255a.9.9 0 0 0 1.8 0c0-1.014-.354-1.906-1.01-2.545C16.838 8.82 15.952 8.5 15 8.5Z"/><path fill-rule="evenodd" d="m15.25 1.78-.129.892.13-.891h-.006l-.008-.002-.025-.003a3.849 3.849 0 0 0-.348-.03 6.06 6.06 0 0 0-.875.017c-.66.062-1.623.27-2.333.98-.71.709-.917 1.672-.979 2.332a5.929 5.929 0 0 0-.016.225c-.53-.13-1.085-.2-1.66-.2-3.998 0-6.9 2.903-6.9 6.9 0 1.927.676 4.333 1.81 6.268 1.11 1.893 2.845 3.632 5.09 3.632a6.843 6.843 0 0 0 3-.685 6.842 6.842 0 0 0 3 .685c2.243 0 3.978-1.739 5.088-3.632C21.223 16.333 21.9 13.928 21.9 12c0-3.755-2.562-6.545-6.187-6.869.198-.472.282-.95.317-1.328a6.075 6.075 0 0 0-.013-1.223l-.003-.024-.001-.008v-.005l-.892.129.89-.13-.096-.664-.664-.097Zm-2.32 2.235c.266-.267.717-.412 1.227-.46l.088-.007a3.526 3.526 0 0 1-.007.088c-.048.51-.194.961-.46 1.228-.267.266-.718.412-1.228.46l-.088.007.007-.088c.048-.51.194-.961.46-1.228ZM3.9 12c0-3.003 2.097-5.1 5.1-5.1.852 0 1.635.203 2.334.564.419.216.916.216 1.334 0A5.064 5.064 0 0 1 15 6.9c3.003 0 5.1 2.097 5.1 5.1 0 1.573-.573 3.667-1.564 5.357C17.521 19.09 16.256 20.1 15 20.1a5.044 5.044 0 0 1-2.334-.564 1.454 1.454 0 0 0-1.332 0A5.043 5.043 0 0 1 9 20.1c-1.256 0-2.521-1.011-3.536-2.743C4.474 15.667 3.9 13.573 3.9 12Z" clip-rule="evenodd"/></svg>
