<svg fill="none" height="24" width="24" xmlns="http://www.w3.org/2000/svg"><g clip-rule="evenodd" fill="currentColor" fill-rule="evenodd"><path d="M9.1 13.4a.9.9 0 01.9-.9h4a.9.9 0 110 1.8h-4a.9.9 0 01-.9-.9z"/><path d="M5 3.1A2.9 2.9 0 002.1 6v2c0 1.113.93 1.9 2 1.9V18A2.9 2.9 0 007 20.9h10a2.9 2.9 0 002.9-2.9V9.9c1.07 0 2-.787 2-1.9V6A2.9 2.9 0 0019 3.1zm0 1.8A1.1 1.1 0 003.9 6v2a.1.1 0 00.1.1h16a.1.1 0 00.1-.1V6A1.1 1.1 0 0019 4.9zm2 14.2A1.1 1.1 0 015.9 18V9.9h12.2V18a1.1 1.1 0 01-1.1 1.1z"/><path d="M10 12.5a.9.9 0 100 1.8h4a.9.9 0 000-1.8z"/></g></svg>
