<svg fill="none" height="24" viewBox="0 0 24 24" width="24" xmlns="http://www.w3.org/2000/svg"><g clip-rule="evenodd" fill="currentColor" fill-rule="evenodd"><path d="m9.1 13.4c0-.4971.40294-.9.9-.9h4c.4971 0 .9.4029.9.9 0 .497-.4029.9-.9.9h-4c-.49706 0-.9-.403-.9-.9z"/><path d="m5 3.09998c-1.60163 0-2.9 1.29837-2.9 2.9v2c0 1.11348.92949 1.9 2 1.9v8.10002c0 1.6016 1.29838 2.9 2.9 2.9h10c1.6016 0 2.9-1.2984 2.9-2.9v-8.10002c1.0705 0 2-.78652 2-1.9v-2c0-1.60163-1.2984-2.9-2.9-2.9zm0 1.8c-.60751 0-1.1.49248-1.1 1.1v2c0 .05522.04477.1.1.1h16c.0552 0 .1-.04478.1-.1v-2c0-.60752-.4925-1.1-1.1-1.1zm2 14.20002c-.60751 0-1.1-.4925-1.1-1.1v-8.10002h12.2v8.10002c0 .6075-.4925 1.1-1.1 1.1z"/><path d="m10 12.5c-.49706 0-.9.4029-.9.9 0 .497.40294.9.9.9h4c.4971 0 .9-.403.9-.9 0-.4971-.4029-.9-.9-.9z"/></g></svg>
