<svg fill="none" height="24" width="24" xmlns="http://www.w3.org/2000/svg"><path clip-rule="evenodd" d="M9.892 3.1h4.216c.825 0 1.373 0 1.848.094a4.9 4.9 0 013.85 3.85c.064.323.085.68.091 1.136a2.65 2.65 0 011.986 2.273c.017.15.017.315.017.505v2.877c0 .53 0 .981-.03 1.352-.032.39-.102.768-.286 1.13a2.9 2.9 0 01-1.267 1.267c-.105.053-.21.097-.317.133V18c0 .465 0 .698-.051.888a1.5 1.5 0 01-1.06 1.06C18.697 20 18.464 20 18 20s-.697 0-.888-.051a1.5 1.5 0 01-1.06-1.06C16 18.697 16 18.464 16 18v-.1H8v.1c0 .465 0 .698-.051.888a1.5 1.5 0 01-1.06 1.06C6.697 20 6.464 20 6 20s-.697 0-.888-.051a1.5 1.5 0 01-1.06-1.06C4 18.697 4 18.464 4 18v-.283a2.33 2.33 0 01-.317-.133 2.9 2.9 0 01-1.267-1.267c-.184-.362-.254-.74-.286-1.13-.03-.37-.03-.822-.03-1.352v-2.877c0-.19 0-.355.017-.505A2.65 2.65 0 014.103 8.18c.006-.455.027-.813.091-1.136a4.9 4.9 0 013.85-3.85C8.52 3.1 9.067 3.1 9.892 3.1zM5.904 8.182a2.65 2.65 0 011.98 2.271c.016.15.016.315.016.505V12.1h8.2v-1.142c0-.19 0-.355.017-.505a2.65 2.65 0 011.98-2.271c-.006-.394-.02-.607-.056-.787a3.1 3.1 0 00-2.436-2.435c-.278-.056-.632-.06-1.605-.06h-4c-.972 0-1.327.004-1.605.06A3.1 3.1 0 005.96 7.395c-.036.18-.05.393-.056.787zm-1.25 1.723c.036-.004.09-.005.346-.005s.31.001.345.005a.85.85 0 01.75.75c.004.035.005.088.005.345v1.614c0 .056 0 .143.006.223a1.15 1.15 0 00.622.937c.175.09.337.112.435.12.08.006.167.006.223.006h9.228c.056 0 .143 0 .223-.006a1.15 1.15 0 00.937-.621 1.15 1.15 0 00.12-.435c.006-.08.006-.168.006-.224V11c0-.257.002-.31.005-.345a.85.85 0 01.75-.75c.035-.004.088-.005.345-.005s.31.001.345.005a.85.85 0 01.75.75c.004.035.005.088.005.345v2.8c0 .575 0 .952-.024 1.24-.023.278-.062.394-.096.46a1.1 1.1 0 01-.48.48c-.067.034-.182.073-.46.096-.288.023-.665.024-1.24.024H6.2c-.575 0-.952 0-1.24-.024-.278-.023-.393-.062-.46-.096a1.1 1.1 0 01-.48-.48c-.034-.066-.073-.182-.096-.46A17.426 17.426 0 013.9 13.8V11c0-.257.001-.31.005-.345a.85.85 0 01.75-.75z" fill="currentColor" fill-rule="evenodd"/></svg>
