<svg xmlns="http://www.w3.org/2000/svg" width="24" height="24" fill="currentColor" viewBox="0 0 24 24"><path d="M12.897 2.9a.9.9 0 1 0-1.8 0v11.027l-1.66-1.663a.9.9 0 1 0-1.274 1.272l3.197 3.202a.9.9 0 0 0 1.274 0l3.202-3.201a.9.9 0 0 0-1.273-1.274l-1.666 1.666V2.9Z M16.14 7c.45 0 .606.001.728.014a2.6 2.6 0 0 1 2.318 2.318c.013.122.014.278.014.728v5.44c0 .995 0 1.687-.044 2.226-.044.527-.124.828-.24 1.054a2.6 2.6 0 0 1-1.135 1.137c-.227.115-.527.195-1.055.238-.539.044-1.23.045-2.226.045H9.502c-.995 0-1.687 0-2.225-.045-.528-.043-.829-.123-1.055-.238a2.6 2.6 0 0 1-1.136-1.137c-.116-.226-.196-.527-.239-1.055-.044-.538-.045-1.23-.045-2.225V9.549A2.6 2.6 0 0 1 7.493 7h.604a.9.9 0 0 0 0-1.8h-.781a4.4 4.4 0 0 0-4.312 4.312v6.026c0 .948 0 1.714.05 2.334.052.64.163 1.203.429 1.726a4.4 4.4 0 0 0 1.923 1.922c.522.267 1.086.377 1.725.43.62.05 1.386.05 2.334.05h5.075c.947 0 1.713 0 2.333-.05.64-.053 1.203-.163 1.726-.43a4.4 4.4 0 0 0 1.923-1.922c.266-.523.376-1.087.428-1.726.051-.62.051-1.386.051-2.334v-5.532c0-.375 0-.633-.023-.86a4.4 4.4 0 0 0-3.923-3.923c-.227-.023-.485-.023-.86-.023h-.3a.9.9 0 1 0 0 1.8h.246Z"/></svg>
