<svg xmlns="http://www.w3.org/2000/svg" width="24" height="24" fill="none" viewBox="0 0 24 24"><path fill="currentColor" d="M12.3089 8.2213a.9.9 0 0 1 1.2698.0876l2.7 3.1a.9.9 0 0 1 0 1.1822l-2.7 3.1a.9001.9001 0 0 1-1.3574-1.1822L13.622 12.9H8.4c-.5135 0-.8697-.4129-.9-.9a.9.9 0 0 1 .9-.9h5.222l-1.4007-1.6089c-.3385-.3887-.2579-.9254.0876-1.2698Z"/><path fill="currentColor" fill-rule="evenodd" d="M4.9996 4.9996C6.7902 3.2092 9.2664 2.1 12 2.1s5.2098 1.109 7.0004 2.8996C20.7909 6.7903 21.9 9.2664 21.9 12s-1.1091 5.2098-2.8996 7.0004C17.2098 20.7909 14.7336 21.9 12 21.9s-5.2098-1.1091-7.0004-2.8996C3.2091 17.2098 2.1 14.7336 2.1 12c0-2.7335 1.109-5.2098 2.8996-7.0004ZM12 3.9c-2.237 0-4.2608.9056-5.7276 2.3724C4.8056 7.7392 3.9 9.763 3.9 12c0 2.237.9056 4.2608 2.3724 5.7276C7.7392 19.1944 9.763 20.1 12 20.1c2.237 0 4.2608-.9056 5.7276-2.3724C19.1944 16.2608 20.1 14.237 20.1 12c0-2.237-.9056-4.2608-2.3724-5.7276C16.2608 4.8056 14.237 3.9 12 3.9Z" clip-rule="evenodd"/></svg>
