<svg xmlns="http://www.w3.org/2000/svg" width="24" height="24" fill="none" viewBox="0 0 24 24"><path fill="currentColor" d="M11.0001 5.9a.9.9 0 0 1 .9-.9h.839c1.0869 0 1.9577 0 2.6615.0574.7226.059 1.3482.1832 1.924.4766a4.9002 4.9002 0 0 1 2.1414 2.1414c.2934.5758.4176 1.2014.4766 1.924.0575.7038.0575 1.5745.0575 2.6616v3.5631l1.4435-1.5397a.9.9 0 0 1 1.2721-.041.9.9 0 0 1 .041 1.2721l-2.9941 3.1938a.8967.8967 0 0 1-.2735.2025.902.902 0 0 1-.7779 0 .8957.8957 0 0 1-.2735-.2026l-2.9941-3.1937a.9.9 0 0 1 .041-1.2721.9.9 0 0 1 1.2721.041l1.4434 1.5396v-3.5241c0-1.1349-.0007-1.932-.0515-2.5538-.05-.6114-.1438-.9737-.2864-1.2535a3.0999 3.0999 0 0 0-1.3547-1.3548c-.2798-.1425-.6422-.2364-1.2535-.2863-.6219-.0508-1.4189-.0515-2.5539-.0516h-.8a.9.9 0 0 1-.9-.9zM1.2434 8.4844a.9.9 0 0 0 1.3131 1.231l1.4436-1.5397v3.5631c0 1.0871 0 1.9578.0575 2.6616.059.7226.1831 1.3482.4765 1.924a4.9001 4.9001 0 0 0 2.1414 2.1414c.5759.2934 1.2014.4176 1.9241.4766.7038.0575 1.5744.0575 2.6615.0575h1.839a.9.9 0 0 0 0-1.8h-1.8c-1.135 0-1.932-.0007-2.554-.0515-.6113-.05-.9736-.1438-1.2534-.2864a3.0999 3.0999 0 0 1-1.3547-1.3547c-.1426-.2798-.2365-.6422-.2864-1.2535-.0508-.6219-.0515-1.419-.0515-2.5539v-3.524l1.4433 1.5396a.9.9 0 1 0 1.3131-1.2311l-2.994-3.1938a.8966.8966 0 0 0-.2735-.2026.9005.9005 0 0 0-1.0514.2027z"/></svg>
