<svg xmlns="http://www.w3.org/2000/svg" width="24" height="24" fill="currentColor" viewBox="0 0 24 24"><path d="M14.59 2.1c2.168 0 3.202.2 4.277.774a5.443 5.443 0 0 1 2.259 2.26c.574 1.074.774 2.108.774 4.276v5.18c0 2.168-.2 3.202-.774 4.276a5.443 5.443 0 0 1-2.26 2.26c-1.074.574-2.108.774-4.276.774H9.41c-2.168 0-3.202-.2-4.277-.774a5.443 5.443 0 0 1-2.259-2.26C2.3 17.792 2.1 16.758 2.1 14.59V9.41c0-2.168.2-3.202.774-4.277a5.443 5.443 0 0 1 2.26-2.259C6.207 2.3 7.241 2.1 9.41 2.1h5.18Zm0 1.8H9.41c-1.896 0-2.65.145-3.428.561a3.644 3.644 0 0 0-1.52 1.521C4.044 6.76 3.9 7.514 3.9 9.41v5.18c0 1.896.145 2.65.561 3.428a3.644 3.644 0 0 0 1.521 1.52c.778.416 1.532.562 3.428.562h5.18c1.896 0 2.65-.146 3.428-.562a3.643 3.643 0 0 0 1.52-1.52c.416-.778.562-1.532.562-3.428V9.41c0-1.896-.146-2.65-.562-3.428a3.643 3.643 0 0 0-1.52-1.52c-.778-.417-1.532-.562-3.428-.562Zm-2.28 4.321a.9.9 0 0 1 1.27.088l2.7 3.1a.9.9 0 0 1 0 1.182l-2.7 3.1a.9.9 0 0 1-1.358-1.182l1.401-1.609H8.4a.9.9 0 0 1-.893-.787L7.5 12a.9.9 0 0 1 .9-.9h5.222l-1.4-1.609a.9.9 0 0 1 0-1.183l.087-.087Z"/></svg>
