<svg width="24" height="24" xmlns="http://www.w3.org/2000/svg" xmlns:xlink="http://www.w3.org/1999/xlink"><defs><path d="M20 11a1 1 0 0 1 1 1v.5a1 1 0 0 1-1 1H4a1 1 0 0 1-1-1V12a1 1 0 0 1 1-1h16zm0-5.5a1 1 0 0 1 1 1V7a1 1 0 0 1-1 1H4a1 1 0 0 1-1-1v-.5a1 1 0 0 1 1-1h16zM4 19a1 1 0 0 1-1-1v-.5a1 1 0 0 1 1-1h9a1 1 0 0 1 1 1v.5a1 1 0 0 1-1 1H4z" id="a"/></defs><g fill="none" fill-rule="evenodd"><path d="M0 0L24 0 24 24 0 24z"/><use fill="currentColor" fill-rule="nonzero" xlink:href="#a"/></g></svg>
