<svg xmlns="http://www.w3.org/2000/svg" width="24" height="24" fill="currentColor" viewBox="0 0 24 24"><path fill-rule="evenodd" d="M5 5a9.872 9.872 0 0 1 7-2.9c2.734 0 5.21 1.11 7 2.9a9.872 9.872 0 0 1 2.9 7c0 2.733-1.11 5.21-2.9 7a9.872 9.872 0 0 1-7 2.9A9.872 9.872 0 0 1 5 19a9.872 9.872 0 0 1-2.9-7c0-2.734 1.11-5.21 2.9-7Zm7.9 15a8.861 8.861 0 0 0-2.003-5.625l1.603-1.602 5.09 5.09a8.069 8.069 0 0 1-4.69 2.188V20Zm-1.8 0a7.07 7.07 0 0 0-1.484-4.344L6.944 18.33a8.057 8.057 0 0 0 4.156 1.72V20ZM4 12.9a7.07 7.07 0 0 1 4.344 1.483L5.67 17.056A8.057 8.057 0 0 1 3.95 12.9H4Zm8.5-2.673 1.602-1.602A8.86 8.86 0 0 1 12.145 3.9H12a8.06 8.06 0 0 0-4.478 1.35l4.978 4.977Zm4.556-4.556-1.673 1.673a7.066 7.066 0 0 1-1.391-3.197 8.067 8.067 0 0 1 3.064 1.524Zm2.797 4.337a7.066 7.066 0 0 1-3.197-1.391l1.673-1.673a8.067 8.067 0 0 1 1.524 3.064Zm-6.08 1.492 1.602-1.602a8.858 8.858 0 0 0 4.724 1.957L20.1 12a8.058 8.058 0 0 1-1.35 4.478L13.774 11.5Zm-4.148 1.602 1.602-1.602-5.09-5.09A8.069 8.069 0 0 0 3.95 11.1H4c2.134 0 4.092.75 5.626 2.002Z" clip-rule="evenodd"/></svg>
