<svg width="24" height="24" viewBox="0 0 24 24" fill="none" xmlns="http://www.w3.org/2000/svg"><path fill-rule="evenodd" clip-rule="evenodd" d="M11.728 4.836a1.1 1.1 0 01.558 0c.166.044.346.158 1.096.718l6.173 4.61a.9.9 0 001.077-1.441l-6.173-4.61-.114-.087c-.571-.427-1.05-.786-1.602-.93a2.9 2.9 0 00-1.47-.002c-.551.145-1.031.503-1.603.93l-.114.086-6.188 4.612a.9.9 0 001.076 1.443l6.187-4.612c.75-.56.931-.674 1.097-.717zM12.9 10.89a.9.9 0 00-1.8 0v8.21H8.9v-8.208a.9.9 0 00-1.8 0V19.1H3.902a.9.9 0 100 1.8h16.196a.9.9 0 000-1.8H16.9v-8.207a.9.9 0 00-1.8 0V19.1h-2.2v-8.21z" fill="currentColor"/></svg>
