<svg fill="none" height="24" width="24" xmlns="http://www.w3.org/2000/svg"><path d="M16.9 15.933A6.002 6.002 0 0016 4a6 6 0 00-.9 11.933V19.1h-2.2a.9.9 0 100 1.8h6.2a.9.9 0 100-1.8h-2.2zM20.2 10a4.2 4.2 0 11-8.4 0 4.2 4.2 0 018.4 0zM7.526 4.27A.9.9 0 017.9 5v5.1h.25a.75.75 0 01.75.75v6.65a3.4 3.4 0 11-6.8 0v-6.65a.75.75 0 01.75-.75h.25V6a.9.9 0 01.615-.854l3-1a.9.9 0 01.811.124zM6.1 6.249V10.1H4.9V6.649zM3.9 11.9h3.2v5.6a1.6 1.6 0 11-3.2 0z" clip-rule="evenodd" fill="currentColor" fill-rule="evenodd"/></svg>
