<svg xmlns="http://www.w3.org/2000/svg" width="24" height="24" fill="currentColor" viewBox="0 0 24 24"><path fill-rule="evenodd" d="M8.301 3.9H8.3c-.125 0-.349.056-.68.244a6.32 6.32 0 0 0-1.026.764 16.383 16.383 0 0 0-1.647 1.733l1.717 1.77.034.035c.13.134.285.292.4.484.1.166.173.347.219.536a2.7 2.7 0 0 1 .053.674l.022 4.784c.003.623.01.776.027.85.026.115.032.132.033.134 0 .001.005.016.063.12 0-.001.01.016.04.055.035.045.084.105.153.187.14.165.337.386.614.695.713.8 1.41 1.769 1.894 2.483.31.456.363.515.394.54.057.047.1.07.17.09.04.013.108.022.627.022h1.186c.52 0 .587-.01.626-.021a.443.443 0 0 0 .171-.09c.031-.026.083-.085.394-.542.483-.711 1.177-1.677 1.887-2.474.278-.312.475-.534.616-.7.07-.082.12-.142.154-.188.03-.039.04-.056.04-.056a.815.815 0 0 0 .063-.12c.001-.001.007-.016.034-.134.016-.075.022-.228.022-.856v-4.815c0-.189-.001-.413.051-.634a1.9 1.9 0 0 1 .223-.544c.117-.194.274-.353.408-.488l.034-.035 1.734-1.766a16.359 16.359 0 0 0-1.646-1.73 6.356 6.356 0 0 0-1.025-.763c-.33-.188-.554-.244-.679-.244h-.004v.001c-.5.594-1.768 1.845-3.696 1.845-1.936 0-3.197-1.244-3.697-1.844L8.301 3.9Zm.07-1.8c.104-.001.306-.003.49.047a1.295 1.295 0 0 1 .667.417c.046.052.1.115.15.176l.008.01c.384.46 1.185 1.196 2.314 1.196 1.118 0 1.927-.739 2.317-1.203l.008-.01c.05-.059.102-.121.149-.173a1.31 1.31 0 0 1 .665-.414c.183-.048.383-.047.486-.046h.075c.572 0 1.115.221 1.57.48.465.265.918.616 1.328.979.82.726 1.55 1.573 1.97 2.09l.025.03c.095.113.294.352.37.657.064.254.052.53-.035.777a1.344 1.344 0 0 1-.244.418c-.066.08-.147.161-.21.226L18.6 9.664a6.213 6.213 0 0 0-.19.199.098.098 0 0 0-.007.017 6.36 6.36 0 0 0-.004.274v4.873c0 .461 0 .84-.065 1.138a2.674 2.674 0 0 1-.108.385 2.672 2.672 0 0 1-.176.36 3.567 3.567 0 0 1-.392.529c-.156.184-.368.422-.635.722l-.009.01c-.632.709-1.274 1.6-1.743 2.288l-.054.08c-.217.321-.427.63-.694.847a2.24 2.24 0 0 1-.786.417c-.329.098-.688.098-1.056.097h-1.365c-.367 0-.726.001-1.055-.097a2.239 2.239 0 0 1-.786-.417c-.267-.216-.477-.526-.694-.847a51.974 51.974 0 0 0-.054-.08c-.47-.691-1.115-1.584-1.75-2.295l-.008-.01a45.464 45.464 0 0 1-.633-.718 3.568 3.568 0 0 1-.39-.526 2.673 2.673 0 0 1-.175-.357 2.675 2.675 0 0 1-.11-.383c-.066-.295-.067-.672-.069-1.13v-.107l-.023-4.784a6.195 6.195 0 0 0-.006-.27.1.1 0 0 0-.007-.018 6.223 6.223 0 0 0-.185-.197L3.53 7.766a6.496 6.496 0 0 0-.013-.013 3.921 3.921 0 0 1-.207-.226 1.345 1.345 0 0 1-.241-.418 1.363 1.363 0 0 1-.034-.773c.077-.304.275-.542.37-.654a3.29 3.29 0 0 0 .025-.03c.42-.516 1.15-1.364 1.97-2.091a8.13 8.13 0 0 1 1.33-.98c.454-.26.998-.481 1.57-.481h.071Z" clip-rule="evenodd"/></svg>
