<svg width="24" height="24" fill="none" xmlns="http://www.w3.org/2000/svg"><path d="M10.5 5c2.014 0 3.864.7 5.32 1.87l.598-.599a.926.926 0 011.388 1.223l-.077.088-.6.598A8.5 8.5 0 1110.5 5zm0 1.8a6.7 6.7 0 100 13.4 6.7 6.7 0 000-13.4zm10.189-.583l.11.03 1.58.517a.887.887 0 01.574 1.128.913.913 0 01-1.042.59l-.11-.028-1.58-.518a.887.887 0 01-.574-1.128.913.913 0 011.042-.59zm-3.466-4.715l.043.104.487 1.425a.883.883 0 01-.572 1.123.914.914 0 01-1.104-.456l-.043-.104-.487-1.425a.883.883 0 01.572-1.123.914.914 0 011.104.456zm4.513.762a.9.9 0 01.075 1.188l-.075.084-1.2 1.2a.9.9 0 01-1.347-1.188l.075-.084 1.2-1.2a.9.9 0 011.272 0z" fill="currentColor"/></svg>
