<svg xmlns="http://www.w3.org/2000/svg" width="24" height="24" fill="currentColor" viewBox="0 0 24 24"><path d="M10.5 5c2.014 0 3.864.7 5.32 1.87l.598-.599a.926.926 0 0 1 1.388 1.223l-.077.088-.6.598A8.5 8.5 0 1 1 10.5 5Zm0 1.8a6.7 6.7 0 1 0 0 13.4 6.7 6.7 0 0 0 0-13.4Zm10.189-.583.11.03 1.58.517a.887.887 0 0 1 .574 1.128.913.913 0 0 1-1.042.59l-.11-.028-1.58-.518a.887.887 0 0 1-.574-1.128.913.913 0 0 1 1.042-.59Zm-3.466-4.715.043.104.487 1.425a.883.883 0 0 1-.572 1.123.914.914 0 0 1-1.104-.456l-.043-.104-.487-1.425a.883.883 0 0 1 .572-1.123.914.914 0 0 1 1.104.456Zm4.513.762a.9.9 0 0 1 .075 1.188l-.075.084-1.2 1.2a.9.9 0 0 1-1.347-1.188l.075-.084 1.2-1.2a.9.9 0 0 1 1.272 0Z"/></svg>
