<svg xmlns="http://www.w3.org/2000/svg" width="24" height="24" fill="currentColor" viewBox="0 0 24 24"><path fill-rule="evenodd" d="M17.4 3.9H9.8c-.855 0-1.442 0-1.897.038-.445.036-.684.103-.856.19a2.1 2.1 0 0 0-.918.919c-.088.172-.155.411-.191.856C5.9 6.358 5.9 6.945 5.9 7.8v8.516c.34-.14.71-.216 1.1-.216h11.1V4.6c0-.6-.1-.7-.7-.7ZM4.1 7.762c0-.808 0-1.469.044-2.006.045-.556.142-1.058.381-1.527A3.9 3.9 0 0 1 6.23 2.525c.47-.239.971-.336 1.527-.381C8.293 2.1 8.954 2.1 9.762 2.1h7.668c.254 0 .496 0 .7.017.223.018.478.06.733.19a1.9 1.9 0 0 1 .83.83c.13.255.172.51.19.733.017.204.017.446.017.7v11.89c0 .504 0 .756-.098.949a.9.9 0 0 1-.393.393c-.193.098-.445.098-.949.098h-.305c-.076.322-.113.51-.131.699a4.088 4.088 0 0 0 0 .802c.018.188.055.378.131.699H19a.9.9 0 0 1 0 1.8H7A2.9 2.9 0 0 1 4.1 19V7.762ZM16.312 20.1a5.358 5.358 0 0 1-.08-.523 5.89 5.89 0 0 1 0-1.154 5.5 5.5 0 0 1 .08-.523H7a1.1 1.1 0 0 0 0 2.2h9.312Z" clip-rule="evenodd"/></svg>
