<svg fill="none" height="24" width="24" xmlns="http://www.w3.org/2000/svg"><path clip-rule="evenodd" d="M5.626 2.732a.9.9 0 0 1 1.273 0l6.317 6.317a.928.928 0 0 1 .047.051h6.47c.238 0 .512-.001.759.065a1.9 1.9 0 0 1 1.343 1.343c.067.247.066.521.065.759v.221c0 1.402 0 2.287-.2 3.039a5.9 5.9 0 0 1-3.8 4.059v.52c0 .358.001.693-.075.99a2.4 2.4 0 0 1-1.728 1.729c-.298.076-.632.076-.99.075H8.893c-.358 0-.693.001-.99-.075a2.4 2.4 0 0 1-1.729-1.728c-.076-.298-.075-.632-.075-.99v-.521A5.9 5.9 0 0 1 2.3 14.527c-.201-.752-.201-1.637-.2-3.04v-.154l-.001-.066c0-.238-.001-.512.065-.759a1.9 1.9 0 0 1 1.343-1.343c.247-.066.521-.066.759-.065h2.213L3.505 6.126a.9.9 0 1 1 1.273-1.273L9.024 9.1h1.697L5.626 4.005a.9.9 0 0 1 0-1.273zM9.666 17.1h4.667c1.608 0 2.236-.008 2.728-.14a4.1 4.1 0 0 0 2.9-2.899c.131-.492.14-1.12.14-2.728a8.165 8.165 0 0 0-.007-.368.1.1 0 0 0-.059-.059 8.165 8.165 0 0 0-.368-.006H4.333a8.167 8.167 0 0 0-.368.006.1.1 0 0 0-.059.059 8.128 8.128 0 0 0-.006.368c0 1.608.008 2.236.14 2.728a4.1 4.1 0 0 0 2.899 2.9c.492.131 1.12.139 2.728.139zM7.9 18.9v.12c0 .502.007.584.019.63a.6.6 0 0 0 .432.431c.046.012.127.019.63.019h6.04c.501 0 .583-.007.628-.019a.6.6 0 0 0 .432-.432c.012-.045.02-.127.02-.629v-.12h-6.88z" fill="currentColor" fill-rule="evenodd"/></svg>
