<svg xmlns="http://www.w3.org/2000/svg" width="24" height="24" fill="none" viewBox="0 0 24 24"><path fill="currentColor" fill-rule="evenodd" d="M13.6656 3.8c1.4584 0 1.981.0109 2.4189.1548.9663.3176 1.8097 1.2347 2.0461 2.2248.1075.4504.0785.9243-.0324 2.2625-.212 2.5572-.5677 5.3033-1.1395 6.9903-.0513.1512-.1036.253-.2075.3764a1.6748 1.6748 0 0 1-.4398.3155c-.1755.0688-.2504.0757-.7201.0757H9.6145c-.486 0-.5955-.0048-.6893-.0253a1.1083 1.1083 0 0 1-.294-.1102c-.0846-.0465-.1668-.1118-.523-.4224-1.005-.8763-2.0856-1.8943-2.7384-2.9485-.6416-1.0361-.761-1.9062-.25-2.7107.1983-.3122.4375-.4161.6701-.434.1883-.0144.3917.0286.5721.1134a318.836 318.836 0 0 1 .758 2.2524l.122.3677c.1558.472.6644.7281 1.136.5721.4714-.156.7272-.6655.5714-1.1374l-.123-.3709a348.3328 348.3328 0 0 0-.8378-2.4865.9024.9024 0 0 0-.0548-.1601c-.1234-.3605-.25-.728-.3751-1.0867-.649-1.862.7418-3.8129 2.7292-3.8129h3.3777ZM5.7264 7.7495C5.0278 4.8508 7.2393 2 10.2878 2h3.5339c1.2436-.0004 2.0774-.0007 2.8239.2447 1.5595.5126 2.8526 1.9186 3.2341 3.5165.2203.923.0882 1.897.0106 2.8298-.2114 2.5506-.5778 5.4995-1.2286 7.4197-.0517.1528-.1064.3042-.1811.4475-.101.1934-.2242.3687-.3938.5557-.006.3732-.0359.7475-.0541 1.1202-.0246.506-.0457.9379-.0915 1.2923-.0482.3733-.1315.7344-.3212 1.0775a2.8986 2.8986 0 0 1-1.2578 1.199c-.3516.1729-.7161.2386-1.0909.2686-.356.0285-.788.0285-1.2942.0285h-2.6107c-.4844 0-.899 0-1.2416-.0268-.3615-.0284-.713-.0904-1.0549-.2525a2.8986 2.8986 0 0 1-1.247-1.1338c-.194-.3252-.2893-.6694-.352-1.0269-.0596-.3387-.0992-.7517-.1456-1.2344l-.1029-1.0707c-.0997-.0838-.1974-.1699-.2956-.2556-1.0036-.8751-2.2753-2.0486-3.0858-3.3575-.8217-1.327-1.2763-2.9916-.239-4.6246.529-.8329 1.3236-1.228 2.1242-1.2677Zm3.374 10.246c.0402.4178.0691.8392.1418 1.2529.044.2501.0884.3545.1249.4156.1116.1871.2762.3368.473.4301.0642.0304.1723.0647.4252.0846.264.0207.6076.0213 1.1346.0213h2.543c.5499 0 .9094-.0007 1.185-.0228.2648-.0212.3764-.0579.4415-.0899a1.0995 1.0995 0 0 0 .4771-.4548c.0351-.0635.0772-.1732.1112-.4369.0521-.4027.0623-.8113.0821-1.2165-.2154.0225-.4322.021-.6485.0209H9.6145c-.1713.0001-.3428.0013-.514-.0045Z" clip-rule="evenodd"/></svg>
