<svg fill="none" height="24" viewBox="0 0 24 24" width="24" xmlns="http://www.w3.org/2000/svg"><g fill="currentColor"><g clip-rule="evenodd" fill-rule="evenodd"><path d="m5.49684 4.26623c.35004.3529.34772.92275-.00518 1.27278-1.66333 1.64983-2.69178 3.93448-2.69178 6.46099 0 2.5266 1.02845 4.8112 2.69176 6.461.3529.3501.35522.9199.00518 1.2728s-.91988.3552-1.27278.0052c-1.99008-1.974-3.224162-4.7132-3.224162-7.739 0-3.02577 1.234092-5.76501 3.224182-7.73895.3529-.35004.92275-.34772 1.27278.00518z"/><path d="m18.5009 4.26623c.35-.3529.9199-.35522 1.2728-.00518 1.9901 1.97394 3.2242 4.71318 3.2242 7.73895 0 3.0258-1.2341 5.765-3.2242 7.739-.3529.35-.9228.3477-1.2728-.0052s-.3477-.9227.0052-1.2728c1.6633-1.6498 2.6918-3.9344 2.6918-6.461 0-2.52651-1.0285-4.81116-2.6918-6.46099-.3529-.35003-.3553-.91988-.0052-1.27278z"/><path d="m8.13434 7.24306c.36284.33973.38157.90927.04184 1.2721-.85444.91256-1.3763 2.13674-1.3763 3.48484 0 1.3224.50071 2.6085 1.29841 3.4998.33149.3704.29997.9393-.0704 1.2708-.37038.3315-.93935.3-1.27085-.0704-1.10247-1.2317-1.75716-2.9491-1.75716-4.7002 0-1.8228.70803-3.48226 1.86236-4.7151.33973-.36284.90927-.38157 1.2721-.04184z"/><path d="m15.8648 7.24306c.3629-.33973.9324-.321 1.2721.04184 1.1544 1.23284 1.8624 2.8923 1.8624 4.7151 0 1.7511-.6547 3.4685-1.7572 4.7002-.3315.3704-.9004.4019-1.2708.0704s-.4019-.9004-.0704-1.2708c.7977-.8913 1.2984-2.1774 1.2984-3.4998 0-1.3481-.5219-2.57228-1.3763-3.48484-.3397-.36283-.321-.93237.0418-1.2721z"/></g><path d="m14 12c0 1.1046-.8955 2-2 2-1.1046 0-2.00002-.8954-2.00002-2s.89542-2 2.00002-2c1.1045 0 2 .8954 2 2z"/></g></svg>
