<svg fill="none" height="24" viewBox="0 0 24 24" width="24" xmlns="http://www.w3.org/2000/svg"><path d="m5.49097 3.69785c.38124.39959.36636 1.03258-.03324 1.41382-.00813.00775-.00813.00775-.03267.03123-.01215.01164-.01215.01164-.02077.01995-1.84445 1.77975-2.90429 4.22282-2.90429 6.83715 0 2.6291 1.07194 5.0848 2.93479 6.8665.39912.3817.41322 1.0147.03149 1.4138-.38173.3992-1.01474.4133-1.41386.0315-2.25338-2.1552-3.55242-5.1311-3.55242-8.3118 0-3.1628 1.2844-6.1235 3.51554-8.27638.01253-.01207.01253-.01207.02602-.02499.0267-.02554.0267-.02554.03558-.03402.3996-.38124 1.03259-.36636 1.41383.03324zm13.01803 0c.3813-.3996 1.0143-.41448 1.4139-.03324.0088.00848.0088.00848.0355.03402.0135.01292.0135.01292.0261.02499 2.2311 2.15288 3.5155 5.11358 3.5155 8.27638 0 3.1807-1.299 6.1566-3.5524 8.3118-.3991.3818-1.0321.3677-1.4139-.0315-.3817-.3991-.3676-1.0321.0315-1.4138 1.8629-1.7817 2.9348-4.2374 2.9348-6.8665 0-2.61433-1.0598-5.0574-2.9043-6.83715-.0086-.00831-.0086-.00831-.0208-.01995-.0245-.02348-.0245-.02348-.0326-.03123-.3996-.38124-.4145-1.01423-.0333-1.41382zm-9.67124 3.39645c.37443.40597.34887 1.03862-.05711 1.41306-.96983.89448-1.53065 2.14734-1.53065 3.49264 0 1.3449.56054 2.5975 1.52994 3.492.4059.3745.43134 1.0072.05682 1.4131s-1.00717.4313-1.41307.0568c-1.37558-1.2692-2.17369-3.0527-2.17369-4.9619 0-1.9096.79851-3.69354 2.1747-4.96281.40597-.37443 1.03862-.34887 1.41306.05711zm6.32444 0c.3745-.40598 1.0071-.43154 1.4131-.05711 1.3762 1.26927 2.1747 3.05321 2.1747 4.96281 0 1.9092-.7981 3.6927-2.1737 4.9619-.4059.3745-1.0385.3491-1.4131-.0568-.3745-.4059-.349-1.0386.0569-1.4131.9694-.8945 1.5299-2.1471 1.5299-3.492 0-1.3453-.5608-2.59816-1.5307-3.49264-.4059-.37444-.4315-1.00709-.0571-1.41306zm-3.1622 2.65571c1.2426 0 2.25 1.00739 2.25 2.24999s-1.0074 2.25-2.25 2.25-2.25-1.0074-2.25-2.25 1.0074-2.24999 2.25-2.24999z" fill="currentColor"/></svg>
