<svg xmlns="http://www.w3.org/2000/svg" width="24" height="24" fill="currentColor" viewBox="0 0 24 24"><path d="M16.495 5.266a3.976 3.976 0 0 1 1.494 4.646l-7.513-2.725a4 4 0 0 1 4.141-2.602l1.069-2.925a1 1 0 0 1 1.28-.595c.52.188.787.76.598 1.276l-1.069 2.925Zm-3.198 15.417a22.33 22.33 0 0 1-3.166-.907 21.937 21.937 0 0 1-3.248-1.464l.642-1.57a.248.248 0 0 0-.049-.263.25.25 0 0 0-.353-.013L5.827 17.67A12.784 12.784 0 0 1 3.6 15.82c1.367-3.742 3.232-6.421 5.595-8.037l9.391 3.406c.768 2.75.468 5.997-.9 9.739a13.02 13.02 0 0 1-3.138-.037v-2.255a.25.25 0 0 0-.485-.084l-.766 2.132Z"/></svg>
