<svg fill="none" height="24" viewBox="0 0 24 24" width="24" xmlns="http://www.w3.org/2000/svg"><g fill="currentColor"><path d="m10.5 10.4c0-.49706.4029-.9.9-.9h1.2c.4971 0 .9.40294.9.9 0 .4971-.4029.9-.9.9h-1.2c-.4971 0-.9-.4029-.9-.9z"/><path d="m10.5 15.4c0-.4971.4029-.9.9-.9h1.2c.4971 0 .9.4029.9.9s-.4029.9-.9.9h-1.2c-.4971 0-.9-.4029-.9-.9z"/><g clip-rule="evenodd" fill-rule="evenodd"><path d="m3 7.99998c0-.49706.40294-.9.9-.9h2.27488c.46676-.73332 1.06819-1.37254 1.76946-1.88285l-1.68074-1.68073c-.35147-.35148-.35147-.92132 0-1.2728.35148-.35147.92132-.35147 1.2728 0l2.06478 2.06479c.74712-.27704 1.55532-.4284 2.39882-.4284s1.6517.15136 2.3988.4284l2.0648-2.06479c.3515-.35147.9213-.35147 1.2728 0 .3515.35148.3515.92132 0 1.2728l-1.6807 1.68073c.7012.51031 1.3027 1.14953 1.7694 1.88285h2.2749c.4971 0 .9.40294.9.9 0 .49705-.4029.9-.9.9h-1.4649c.1725.60359.2649 1.24102.2649 1.90002v1.3h3.2c.4971 0 .9.4029.9.9 0 .497-.4029.9-.9.9h-3.2v1.1c0 .7322-.1141 1.4378-.3254 2.1h1.5254c.4971 0 .9.4029.9.9 0 .497-.4029.9-.9.9h-2.4071c-1.2435 1.8117-3.3294 3-5.6929 3-2.36346 0-4.44937-1.1883-5.6929-3h-2.4071c-.49706 0-.9-.403-.9-.9 0-.4971.40294-.9.9-.9h1.52538c-.21132-.6622-.32538-1.3678-.32538-2.1v-1.1h-3.2c-.49706 0-.9-.403-.9-.9 0-.4971.40294-.9.9-.9h3.2v-1.3c0-.659.09238-1.29643.2649-1.90002h-1.4649c-.49706 0-.9-.40295-.9-.9zm3.9 2.80002c0-2.81667 2.28335-5.10001 5.1-5.10001 2.8167 0 5.1 2.28335 5.1 5.10001v4.2c0 2.8166-2.2833 5.1-5.1 5.1-2.81665 0-5.1-2.2834-5.1-5.1z"/><path d="m10.5 10.4c0-.49706.4029-.9.9-.9h1.2c.4971 0 .9.40294.9.9 0 .4971-.4029.9-.9.9h-1.2c-.4971 0-.9-.4029-.9-.9zm0 5c0-.4971.4029-.9.9-.9h1.2c.4971 0 .9.4029.9.9s-.4029.9-.9.9h-1.2c-.4971 0-.9-.4029-.9-.9z"/></g></g></svg>
