<svg fill="none" height="24" viewBox="0 0 24 24" width="24" xmlns="http://www.w3.org/2000/svg"><g stroke="currentColor"><rect height="16" rx="3.75" stroke-width="1.8" width="16" x="4" y="4.00002"/><path d="m16 2.40002v3.2" stroke-linecap="round" stroke-linejoin="round" stroke-width="1.8"/><path d="m8 2.4v3.2" stroke-linecap="round" stroke-linejoin="round" stroke-width="1.8"/><path d="m4 10h16" stroke-width="1.8"/><circle cx="15.5" cy="15.5" r="1"/></g><path clip-rule="evenodd" d="m16 1.5c.4971 0 .9.40294.9.9v.79126c.5324.06661 1.012.18677 1.4611.4156.8749.44581 1.5863 1.15717 2.0321 2.03212.2798.54911.3971 1.1438.4527 1.82478.0541.66209.0541 1.48031.0541 2.49758v4.07736c0 1.0173 0 1.8355-.0541 2.4976-.0556.681-.1729 1.2757-.4527 1.8248-.4458.8749-1.1572 1.5863-2.0321 2.0321-.5491.2798-1.1438.3971-1.8248.4528-.6621.0541-1.4803.054-2.4976.054h-4.07739c-1.01728 0-1.83549.0001-2.49758-.054-.68098-.0557-1.27567-.173-1.82478-.4528-.87495-.4458-1.58631-1.1572-2.03212-2.0321-.27979-.5491-.39711-1.1438-.45274-1.8248-.0541-.6621-.05409-1.4803-.05408-2.4976v-4.07736c-.00001-1.01727-.00002-1.83549.05408-2.49758.05563-.68098.17295-1.27567.45274-1.82478.44581-.87495 1.15717-1.58631 2.03212-2.03212.4491-.22883.9287-.34898 1.46106-.4156v-.79126c0-.49706.40294-.9.9-.9.49705 0 .9.40294.9.9v.70287c.32733-.00284.68032-.00284 1.06121-.00283h.00009 4.07739.0001c.3809-.00001.7339-.00001 1.0612.00283v-.70287c0-.49706.4029-.9.9-.9zm-8.89999 3.51069v.58931c0 .49706.40294.9.9.9.49705 0 .9-.40294.9-.9v-.697c.32483-.00286.6885-.00296 1.09999-.00296h4c.4115 0 .7752.0001 1.1.00296v.697c0 .49706.4029.9.9.9s.9-.40294.9-.9v-.58931c.2784.04891.478.11544.6439.19998.5362.27324.9722.70923 1.2455 1.24549.1289.25307.216.58451.2625 1.15417.0328.40091.0432.88032.0465 1.48971h-14.19684c.00334-.60939.01379-1.0888.04655-1.48971.04654-.56966.13359-.9011.26253-1.15417.27324-.53626.70923-.97225 1.24549-1.24549.16592-.08454.36553-.15107.64388-.19998zm-2.2 5.88931h14.19999v3.1c0 1.065-.0007 1.8096-.0481 2.3897-.0465.5697-.1336.9011-.2625 1.1542-.2733.5363-.7093.9723-1.2455 1.2455-.2531.1289-.5845.216-1.1542.2625-.5802.0474-1.3247.0481-2.3897.0481h-4c-1.06494 0-1.80953-.0007-2.3897-.0481-.56966-.0465-.9011-.1336-1.15417-.2625-.53626-.2732-.97225-.7092-1.24549-1.2455-.12894-.2531-.21599-.5845-.26253-1.1542-.0474-.5801-.0481-1.3247-.0481-2.3897zm10.59999 6.1c.8284 0 1.5-.6716 1.5-1.5s-.6716-1.5-1.5-1.5-1.5.6716-1.5 1.5.6716 1.5 1.5 1.5z" fill="currentColor" fill-rule="evenodd"/></svg>
