<svg width="24" height="24" fill="none" xmlns="http://www.w3.org/2000/svg"><path fill-rule="evenodd" clip-rule="evenodd" d="M3.127 10.782a.9.9 0 011.091-.655L4 11l.218-.873h.004l.02.006.093.02c.084.02.213.047.385.08.343.068.857.159 1.527.25 1.339.183 3.298.367 5.753.367s4.414-.184 5.753-.367c.67-.091 1.184-.182 1.527-.25a15.064 15.064 0 00.478-.1l.02-.005.004-.001a.9.9 0 01.436 1.746L20 11l.218.873-.005.001-.009.003-.032.007-.114.027c-.1.022-.244.053-.432.09-.376.073-.924.17-1.63.266A44.694 44.694 0 0112 12.65c-2.545 0-4.586-.19-5.997-.383A28.799 28.799 0 014.374 12a16.654 16.654 0 01-.547-.116l-.031-.007-.01-.003h-.003L4 11l-.217.873a.9.9 0 01-.656-1.091zm1.091-.655z" fill="currentColor"/><path d="M21 16.5a1.5 1.5 0 01-1.5 1.5H19v1.2c0 .28 0 .42.055.527a.5.5 0 00.218.218c.107.055.247.055.527.055h.4c.28 0 .42 0 .527-.055a.5.5 0 00.218-.218C21 19.62 21 19.48 21 19.2v-2.7z" fill="currentColor"/><path fill-rule="evenodd" clip-rule="evenodd" d="M20.1 19.1h-.2v-.233c.068-.012.134-.026.2-.043v.276zm1.8-2.6v2.722c0 .12 0 .259-.01.38-.011.139-.04.332-.143.534a1.4 1.4 0 01-.611.611 1.409 1.409 0 01-.534.143c-.121.01-.26.01-.38.01H19.778c-.12 0-.259 0-.38-.01a1.409 1.409 0 01-.534-.143 1.4 1.4 0 01-.611-.611 1.409 1.409 0 01-.143-.534c-.01-.121-.01-.26-.01-.38V17.1h1.4a.6.6 0 00.6-.6h1.8z" fill="currentColor"/><path d="M3 16.5A1.5 1.5 0 004.5 18H5v1.2c0 .28 0 .42-.054.527a.5.5 0 01-.219.218C4.62 20 4.48 20 4.2 20h-.4c-.28 0-.42 0-.527-.055a.5.5 0 01-.219-.218C3 19.62 3 19.48 3 19.2v-2.7z" fill="currentColor"/><path fill-rule="evenodd" clip-rule="evenodd" d="M3.9 19.1h.2v-.233a2.4 2.4 0 01-.2-.043v.276zm-1.8-2.6v2.722c0 .12 0 .259.01.38.011.139.04.332.143.534a1.4 1.4 0 00.611.611c.202.103.395.132.534.143.121.01.26.01.38.01H4.222c.12 0 .259 0 .38-.01.139-.011.332-.04.534-.143a1.4 1.4 0 00.611-.611c.103-.202.132-.395.143-.534.01-.121.01-.26.01-.38V17.1H4.5a.6.6 0 01-.6-.6H2.1z" fill="currentColor"/><path fill-rule="evenodd" clip-rule="evenodd" d="M9.662 4.1h4.676c.863 0 1.579 0 2.167.06.619.065 1.173.202 1.691.522.519.321.89.755 1.223 1.28.318.499.638 1.14 1.024 1.911l1.457 2.914V18.9H2.1v-8.112l1.457-2.915c.386-.772.706-1.412 1.024-1.91.334-.526.704-.96 1.223-1.28.518-.321 1.072-.458 1.691-.522C8.083 4.1 8.8 4.1 9.662 4.1zM7.68 5.951c-.464.048-.724.135-.93.263-.206.127-.4.32-.65.714-.262.412-.542.968-.953 1.791L3.9 11.212V17.1h16.2v-5.888L18.853 8.72c-.411-.823-.69-1.38-.952-1.79-.25-.394-.445-.588-.651-.715-.206-.128-.466-.215-.93-.263-.485-.05-1.108-.051-2.028-.051H9.708c-.92 0-1.543.001-2.028.051z" fill="currentColor"/><path fill-rule="evenodd" clip-rule="evenodd" d="M1 10.614v-.229c0-.489.396-.885.885-.885H4V11l-.363.725a.807.807 0 01-.422.389A1.615 1.615 0 011 10.614zm22 0v-.229a.885.885 0 00-.885-.885H20V11l.363.725a.807.807 0 00.422.389 1.615 1.615 0 002.215-1.5zM5.107 14.388a.9.9 0 011.005-.781l2 .25a.9.9 0 01-.224 1.786l-2-.25a.9.9 0 01-.781-1.005zM18.893 14.388a.9.9 0 00-1.005-.781l-2 .25a.9.9 0 00.224 1.786l2-.25a.9.9 0 00.781-1.005z" fill="currentColor"/></svg>
