<svg xmlns="http://www.w3.org/2000/svg" width="24" height="24" fill="none" viewBox="0 0 24 24"><path fill="currentColor" fill-rule="evenodd" d="m16.5615 2.3984-.069-.0126c-.8531-.1561-1.5426-.2823-2.1104-.3428-.5847-.0623-1.1118-.0643-1.631.0687A4.4004 4.4004 0 0 0 10.243 3.844c-.3081.4384-.4928.9322-.6416 1.501-.1444.5524-.2705 1.242-.4266 2.095l-.7945 4.343c-.1561.8531-.2822 1.5427-.3428 2.1104-.0622.5847-.0643 1.1118.0687 1.631a4.4 4.4 0 0 0 1.7323 2.5081c.4384.3081.9322.4928 1.501.6416.5524.1444 1.2419.2705 2.0949.4266l.0693.0126c.8531.1561 1.5425.2823 2.1103.3428.5847.0623 1.1118.0643 1.631-.0686a4.3998 4.3998 0 0 0 2.508-1.7324c.3082-.4384.4929-.9321.6416-1.501.1445-.5524.2706-1.2419.4267-2.095l.7945-4.343c.1561-.8531.2822-1.5427.3427-2.1104.0623-.5847.0644-1.1118-.0686-1.631a4.3998 4.3998 0 0 0-1.7323-2.508c-.4384-.3082-.9322-.493-1.501-.6416-.5524-.1445-1.242-.2706-2.0951-.4267Zm-3.3638 1.457c.2243-.0575.51-.074.9937-.0225.4928.0525 1.1159.166 2.0117.3298.8957.1639 1.5187.2784 1.9982.4038.4705.123.7319.2397.9213.3728a2.5998 2.5998 0 0 1 1.0236 1.482c.0575.2243.074.51.0225.9937-.0525.4928-.1659 1.116-.3298 2.0117l-.7819 4.2739c-.1639.8958-.2785 1.5187-.4038 1.9982-.123.4705-.2397.7319-.3728.9213a2.5998 2.5998 0 0 1-1.482 1.0236c-.2243.0575-.51.074-.9937.0225-.4928-.0525-1.1159-.1659-2.0117-.3298-.8957-.1639-1.5187-.2784-1.9982-.4038-.4705-.123-.7319-.2397-.9213-.3728a2.5996 2.5996 0 0 1-1.0236-1.482c-.0575-.2243-.074-.51-.0225-.9936.0525-.4928.166-1.116.3298-2.0118l.7819-4.2739c.1639-.8957.2784-1.5187.4038-1.9982.123-.4705.2397-.7319.3728-.9213a2.6 2.6 0 0 1 1.482-1.0236ZM7.1671 6.788a.9.9 0 0 0-.3187-1.7715l-.1459.0262c-1.0112.1815-1.7071.3064-2.2717.5873a4.4 4.4 0 0 0-2.4084 3.4102c-.0759.626.0391 1.3235.2062 2.3373l.024.1462.8213 4.9941c.1388.844.2511 1.5274.3848 2.0769.1379.5668.3134 1.06.6129 1.5029a4.3996 4.3996 0 0 0 2.257 1.7104c.5074.1686 1.0296.2043 1.6126.1837.5652-.0199 1.2534-.0964 2.1036-.191l.0351-.004a.8999.8999 0 0 0 .7949-.994.8999.8999 0 0 0-.994-.7949c-.8935.0994-1.5139.1678-2.003.1851-.4788.0168-.7607-.0196-.9815-.093a2.6002 2.6002 0 0 1-1.3337-1.0107c-.1304-.1928-.2416-.4543-.3549-.9199-.1156-.4755-.2175-1.0913-.3634-1.9784l-.8155-4.9593c-.2002-1.2173-.2603-1.6385-.2195-1.9749a2.6 2.6 0 0 1 1.4232-2.0151c.3033-.1509.7204-.2351 1.9346-.4536Z" clip-rule="evenodd"/></svg>
