<svg xmlns="http://www.w3.org/2000/svg" width="24" height="24" fill="currentColor" viewBox="0 0 24 24"><path fill-rule="evenodd" d="M2 6a4 4 0 0 1 4-4h12a4 4 0 0 1 1 7.874v8.061c0 .53 0 .982-.03 1.352-.032.39-.102.768-.286 1.13a2.9 2.9 0 0 1-1.267 1.267c-.362.184-.74.254-1.13.286-.37.03-.822.03-1.351.03H9.064c-.53 0-.981 0-1.352-.03-.389-.032-.768-.102-1.13-.286a2.9 2.9 0 0 1-1.267-1.267c-.184-.362-.254-.74-.286-1.13-.03-.37-.03-.822-.03-1.352V9.874A4.002 4.002 0 0 1 2 6Zm3.144 2.027c.042-.15.098-.298.172-.444a2.9 2.9 0 0 1 1.267-1.267c.362-.184.741-.254 1.13-.286C8.083 6 8.535 6 9.065 6h5.87c.53 0 .981 0 1.352.03.39.032.768.102 1.13.286a2.9 2.9 0 0 1 1.267 1.267c.074.146.13.294.172.444A2.2 2.2 0 0 0 18 3.8H6a2.2 2.2 0 0 0-.856 4.227Zm2.257-.107c.066-.034.18-.073.459-.096.288-.023.665-.024 1.24-.024h2v3.127l-.564-.563a.9.9 0 1 0-1.272 1.272l2.1 2.1a.9.9 0 0 0 1.272 0l2.1-2.1a.9.9 0 1 0-1.272-1.272l-.564.563V7.8h2c.575 0 .952 0 1.24.024.278.023.393.062.46.096a1.1 1.1 0 0 1 .48.48c.034.067.073.182.096.46.023.288.024.665.024 1.24v6.1H6.8v-6.1c0-.575 0-.952.024-1.24.023-.278.062-.393.096-.46a1.1 1.1 0 0 1 .48-.48ZM6.8 18c0 .52.002.869.024 1.14.023.278.062.393.096.46a1.1 1.1 0 0 0 .48.48c.067.034.182.073.46.096.288.023.665.024 1.24.024h5.8c.575 0 .952 0 1.24-.024.278-.023.393-.062.46-.096a1.1 1.1 0 0 0 .48-.48c.034-.067.073-.182.096-.46.022-.271.024-.62.024-1.14H6.8Z" clip-rule="evenodd"/></svg>
