<svg height="24" viewBox="0 0 24 24" width="24" xmlns="http://www.w3.org/2000/svg"><g fill="none"><path d="m0 0h24v24h-24z"/><path d="m18.2011364 7.50662356c2.8164106 1.01097578 4.7988636 3.42553544 4.7988636 6.24337644 0 1.8373007-.8428115 3.5031522-2.2112763 4.7181393.1459148.7032653.4718083 1.5807476.9776804 2.6324471l.1469119.3002001.0286377.0757891c.0478104.1797943-.0354866.3743901-.208536.4605037-.0839269.0417641-.1798567.0527231-.2710405.0309634-1.7939572-.4281015-3.1229672-1.0115027-3.9862666-1.7506427-.7050787.1838388-1.4523525.2826-2.2261106.2826-2.7857617 0-5.2282303-1.2801595-6.59421325-3.2018916l.09421325.0018916c5.2232832 0 9.55-3.7684307 9.55-8.55 0-.4227607-.0338226-.83760154-.0988636-1.24337644zm-9.4511364-5.50662356c4.2802068 0 7.75 3.02207794 7.75 6.75 0 3.7279221-3.4697932 6.75-7.75 6.75-.77375808 0-1.52103191-.0987612-2.22611057-.2826-.8632994.73914-2.19230943 1.3225412-3.98626665 1.7506427-.09118374.0217597-.18711358.0108007-.27104045-.0309634-.17304939-.0861136-.25634646-.2807094-.20853605-.4605037l.02863774-.0757891.14691191-.3002001c.50587208-1.0516995.83176555-1.9291818.97768041-2.6324471-1.36846486-1.2149871-2.21127634-2.8808386-2.21127634-4.7181393 0-3.72792206 3.46979319-6.75 7.75-6.75z" fill="currentColor"/></g></svg>
