<svg xmlns="http://www.w3.org/2000/svg" width="24" height="24" fill="currentColor" viewBox="0 0 24 24"><path fill-rule="evenodd" d="M2.436 4.184C2 5.04 2 6.16 2 8.4v7.2c0 2.24 0 3.36.436 4.216a4 4 0 0 0 1.748 1.748C5.04 22 6.16 22 8.4 22h7.2c2.24 0 3.36 0 4.216-.436a4 4 0 0 0 1.748-1.748C22 18.96 22 17.84 22 15.6V8.4c0-2.24 0-3.36-.436-4.216a4 4 0 0 0-1.748-1.748C18.96 2 17.84 2 15.6 2H8.4c-2.24 0-3.36 0-4.216.436a4 4 0 0 0-1.748 1.748ZM7 11a1 1 0 1 0 0 2h10a1 1 0 1 0 0-2H7Z" clip-rule="evenodd"/></svg>
