<svg fill="none" height="24" viewBox="0 0 24 24" width="24" xmlns="http://www.w3.org/2000/svg"><g clip-rule="evenodd" fill="currentColor" fill-rule="evenodd"><path d="m11.6973 2.15241c.1957-.06991.4097-.06991.6054 0l7 2.5c.3582.12792.5973.46721.5973.84757v7.50002c0 2.8507-1.5682 5.0768-3.2429 6.5506-.8427.7416-1.737 1.3162-2.5315 1.7092-.7575.3747-1.5363.6402-2.1256.6402s-1.3681-.2655-2.12558-.6402c-.79447-.393-1.68883-.9676-2.53148-1.7092-1.67478-1.4738-3.24294-3.6999-3.24294-6.5506v-7.50002c0-.38036.2391-.71965.5973-.84757zm-5.7973 3.98181v6.86578c0 2.1493 1.18184 3.9231 2.63207 5.1993.71984.6335 1.48173 1.1213 2.14043 1.4471.6956.3441 1.1668.4536 1.3275.4536s.6319-.1095 1.3275-.4536c.6587-.3258 1.4206-.8136 2.1404-1.4471 1.4503-1.2762 2.6321-3.05 2.6321-5.1993v-6.86578l-6.1-2.17857z"/><path d="m16.1364 9.36358c.3515.35147.3515.92132 0 1.27282l-4.5 4.5c-.3515.3514-.9213.3514-1.2728 0l-2.5-2.5c-.35147-.3515-.35147-.9213 0-1.2728.35148-.3515.92132-.3515 1.2728 0l1.8636 1.8636 3.8636-3.86362c.3515-.35147.9213-.35147 1.2728 0z"/></g></svg>
