<svg fill="none" height="24" viewBox="0 0 24 24" width="24" xmlns="http://www.w3.org/2000/svg"><path d="m14.5903 2.10001c2.1679 0 3.202.1997 4.2763.7742.9716.51964 1.7395 1.28759 2.2592 2.25924.5745 1.07422.7742 2.10836.7742 4.27627v5.18058c0 2.1679-.1997 3.202-.7742 4.2763-.5197.9716-1.2876 1.7396-2.2592 2.2592-1.0743.5745-2.1084.7742-4.2763.7742h-5.18059c-2.16791 0-3.20205-.1997-4.27626-.7742-.97166-.5196-1.7396-1.2876-2.25925-2.2592-.5745-1.0743-.7742-2.1084-.7742-4.2763v-5.18058c0-2.16791.1997-3.20205.7742-4.27627.51965-.97165 1.28759-1.7396 2.25925-2.25924 1.07421-.5745 2.10835-.7742 4.27626-.7742zm0 1.8h-5.18059c-1.89617 0-2.64959.14549-3.42739.56146-.65797.35189-1.16897.86289-1.52086 1.52086-.41597.7778-.56146 1.53122-.56146 3.42739v5.18058c0 1.8962.14549 2.6496.56146 3.4274.35189.658.86289 1.169 1.52086 1.5208.7778.416 1.53122.5615 3.42739.5615h5.18059c1.8962 0 2.6496-.1455 3.4274-.5615.6579-.3518 1.1689-.8628 1.5208-1.5208.416-.7778.5615-1.5312.5615-3.4274v-5.18058c0-1.89617-.1455-2.64959-.5615-3.42739-.3519-.65797-.8629-1.16897-1.5208-1.52086-.7778-.41597-1.5312-.56146-3.4274-.56146zm.3733 5.3636c.3515-.35147.9213-.35147 1.2728 0s.3515.92129 0 1.27279l-4.6 4.6c-.3515.3515-.9213.3515-1.2728 0l-2.6-2.6c-.35147-.3515-.35147-.9213 0-1.2728s.92132-.3515 1.27279 0l1.96361 1.9636z" fill="currentColor"/></svg>
