<svg xmlns="http://www.w3.org/2000/svg" width="24" height="24" fill="none" viewBox="0 0 24 24"><path fill="currentColor" fill-rule="evenodd" d="M8.7998 7.1c0-1.779 1.5095-3.3 3.2-3.3 1.6906 0 3.2 1.521 3.2 3.3a.9.9 0 0 0 1.8 0c0-.2708-.0223-.5381-.0653-.8 1.785.009 3.2655 1.454 3.2655 3.1678 0 1.1344-.6971 2.3025-1.653 2.9041A.9.9 0 0 0 18 13.2v2H6v-2a.9003.9003 0 0 0-.5508-.8298C4.4955 11.7683 3.8 10.6013 3.8 9.4678 3.8 7.7545 5.2815 6.3094 7.0652 6.3a4.9372 4.9372 0 0 0-.0654.8.9.9 0 0 0 1.8 0Zm7.4946-2.5615a5.0536 5.0536 0 0 1 .6235-.0385C19.6426 4.5 22 6.6938 22 9.4678c0 1.6776-.9162 3.2837-2.2 4.227v2.4421c0 .6687 0 1.2247-.037 1.6784-.0386.4725-.1219.9129-.3336 1.3283a3.3996 3.3996 0 0 1-1.4858 1.4858c-.4154.2117-.8558.295-1.3283.3336-.4537.037-1.0097.037-1.6785.037H9.0633c-.6688 0-1.2248 0-1.6786-.037-.4725-.0386-.9128-.1219-1.3282-.3336a3.3998 3.3998 0 0 1-1.4859-1.4858c-.2117-.4154-.295-.8558-.3335-1.3283-.0371-.4537-.037-1.0097-.037-1.6785v-2.4412C2.916 12.7523 2 11.1458 2 9.4678 2 6.6935 4.3594 4.5 7.0826 4.5c.2105 0 .4184.013.6227.0384C8.584 3.0414 10.1919 2 11.9998 2c1.808 0 3.4159 1.0414 4.2946 2.5385ZM6.0311 17.6687c-.0155-.189-.0232-.4065-.0271-.6687h11.992c-.0039.2622-.0117.4797-.0271.6687-.0296.3613-.0825.5383-.1434.6577a1.5995 1.5995 0 0 1-.6992.6992c-.1194.0609-.2964.1138-.6577.1434-.3717.0303-.8538.031-1.5687.031H9.1c-.7149 0-1.197-.0007-1.5687-.031-.3612-.0296-.5383-.0825-.6577-.1434a1.5998 1.5998 0 0 1-.6992-.6992c-.0608-.1194-.1138-.2964-.1433-.6577Z" clip-rule="evenodd"/></svg>
