<svg xmlns="http://www.w3.org/2000/svg" width="24" height="24" fill="currentColor" viewBox="0 0 24 24"><path fill-rule="evenodd" d="M6.446 10.013c0-2.297 1.934-4.21 4.383-4.21 2.107 0 3.841 1.422 4.276 3.282a.9.9 0 0 0 .85.695c2.385.07 4.246 1.953 4.246 4.208 0 2.298-1.933 4.21-4.382 4.21h-.221a.9.9 0 0 0 0 1.8h.22c3.387 0 6.184-2.662 6.184-6.01 0-3.062-2.342-5.552-5.333-5.954-.846-2.36-3.154-4.031-5.84-4.031-3.386 0-6.183 2.663-6.183 6.01 0 .12.004.24.011.358-1.575.886-2.652 2.547-2.652 4.469 0 2.877 2.402 5.159 5.302 5.159h1.091a.9.9 0 1 0 0-1.8h-1.09c-1.963 0-3.503-1.532-3.503-3.36 0-1.38.875-2.588 2.155-3.1a.9.9 0 0 0 .552-.997 4.08 4.08 0 0 1-.066-.729Zm4.654 11.09a.9.9 0 0 0 1.8 0v-7.981l1.553 1.605a.9.9 0 1 0 1.293-1.252l-3.1-3.203a.9.9 0 0 0-1.292 0L8.25 13.474a.9.9 0 0 0 1.292 1.252L11.1 13.12v7.983Z" clip-rule="evenodd"/></svg>
