<svg xmlns="http://www.w3.org/2000/svg" width="24" height="24" fill="currentColor" viewBox="0 0 24 24"><path fill-rule="evenodd" d="M6.446 10.013c0-2.297 1.934-4.21 4.383-4.21 2.107 0 3.841 1.422 4.276 3.282a.9.9 0 0 0 .85.695 4.448 4.448 0 0 1 3.048 1.315.9.9 0 0 0 1.283-1.262 6.233 6.233 0 0 0-3.617-1.799c-.846-2.36-3.154-4.031-5.84-4.031-3.386 0-6.183 2.663-6.183 6.01 0 .12.004.24.011.358-1.575.886-2.652 2.547-2.652 4.469 0 2.877 2.402 5.159 5.302 5.159h5.767a.9.9 0 0 0 0-1.8H7.307c-1.962 0-3.502-1.532-3.502-3.36 0-1.38.875-2.588 2.155-3.1a.9.9 0 0 0 .552-.997 4.08 4.08 0 0 1-.066-.729ZM19.9 13.902a.9.9 0 0 0-1.8 0v2.2h-2.2a.9.9 0 0 0 0 1.8h2.2v2.2a.9.9 0 0 0 1.8 0v-2.2h2.2a.9.9 0 1 0 0-1.8h-2.2v-2.2Z" clip-rule="evenodd"/></svg>
