<svg xmlns="http://www.w3.org/2000/svg" width="24" height="24" fill="currentColor" viewBox="0 0 24 24"><path fill-rule="evenodd" d="M10.83 5.803c-2.45 0-4.384 1.913-4.384 4.21 0 .25.023.493.066.73a.9.9 0 0 1-.552.995c-1.28.513-2.155 1.72-2.155 3.102 0 1.827 1.54 3.359 3.502 3.359h8.512c2.449 0 4.383-1.913 4.383-4.21 0-2.256-1.862-4.14-4.247-4.21a.9.9 0 0 1-.85-.694c-.435-1.86-2.169-3.282-4.276-3.282Zm-6.184 4.21c0-3.347 2.797-6.01 6.183-6.01 2.686 0 4.994 1.67 5.84 4.031 2.991.402 5.333 2.892 5.333 5.954 0 3.348-2.797 6.01-6.183 6.01H7.307c-2.9 0-5.302-2.281-5.302-5.158 0-1.922 1.077-3.582 2.652-4.469a5.918 5.918 0 0 1-.01-.358Z" clip-rule="evenodd"/></svg>
