<svg height="24" viewBox="0 0 24 24" width="24" xmlns="http://www.w3.org/2000/svg"><g fill="none" fill-rule="evenodd"><path d="m0 0h24v24h-24z"/><path d="m16.8951435 4h-9.790287c-1.15188902 0-1.73913845.1134031-2.3503526.440284-.56424904.30176369-1.01245621.74997086-1.3142199 1.3142199-.3268809.61121415-.440284 1.19846358-.440284 2.3503526v5.790287c0 1.151889.1134031 1.7391385.440284 2.3503526.30176369.564249.74997086 1.0124562 1.3142199 1.3142199l.14089192.0716901c.51700858.2493025 1.04927643.3512717 1.95339541.3665353l.25120877.0020586v2.2148929c0 .4318349.16929521.8464601.47154882 1.1548821l.11661747.108206c.64274583.5416326 1.60416.5156678 2.21671587-.084637l3.46111784-3.393344h3.5291435c1.151889 0 1.7391385-.1134031 2.3503526-.440284.564249-.3017637 1.0124562-.7499709 1.3142199-1.3142199.3268809-.6112141.440284-1.1984636.440284-2.3503526v-5.790287c0-1.15188902-.1134031-1.73913845-.440284-2.3503526-.3017637-.56424904-.7499709-1.01245621-1.3142199-1.3142199-.6112141-.3268809-1.1984636-.440284-2.3503526-.440284zm-9.98348126 1.80107351 9.98348126-.00107351c.8801525 0 1.1866784.05919287 1.5014747.22754776.2505657.13400404.44183.3252683.575834.57583408.1683549.31479627.2275478.62132212.2275478 1.50147466v5.790287l-.004385.3676122c-.0164119.6070517-.0807086.8674964-.2231628 1.1338625-.134004.2505657-.3252683.44183-.575834.575834-.3147963.1683549-.6213222.2275478-1.5014747.2275478h-3.8951435l-.1167662.0076035c-.1925574.025192-.3729777.1122169-.5131695.2496049l-3.4700643 3.3997916v-2.757c0-.4970563-.40294373-.9-.9-.9h-.8951435l-.36761224-.004385c-.6070517-.0164119-.86749634-.0807086-1.13386242-.2231628-.25056578-.134004-.44183004-.3252683-.57583408-.575834-.16835489-.3147963-.22754776-.6213222-.22754776-1.5014747v-5.790287l.004385-.36761224c.01641191-.6070517.08070862-.86749634.22316276-1.13386242.13400404-.25056578.3252683-.44183004.57583408-.57583408.29058118-.15540451.57411536-.21779524 1.3082804-.22647425z" fill="currentColor" fill-rule="nonzero"/></g></svg>
