<svg width="24" height="24" viewBox="0 0 24 24" fill="none" xmlns="http://www.w3.org/2000/svg">
<path d="M17.4361 5C18.3276 5 18.6509 5.09283 18.9768 5.26713C19.3028 5.44144 19.5586 5.69723 19.7329 6.02315C19.9072 6.34908 20 6.67237 20 7.56389V14.4361C20 15.3276 19.9072 15.6509 19.7329 15.9768C19.5586 16.3028 19.3028 16.5586 18.9768 16.7329C18.6509 16.9072 18.3276 17 17.4361 17H12.998L9.28041 20.7192C8.98756 21.0121 8.51269 21.0122 8.21975 20.7194C8.07905 20.5787 8 20.3879 8 20.189V17H6.56389C5.67237 17 5.34908 16.9072 5.02315 16.7329C4.69723 16.5586 4.44144 16.3028 4.26713 15.9768C4.09283 15.6509 4 15.3276 4 14.4361V7.56389C4 6.67237 4.09283 6.34908 4.26713 6.02315C4.44144 5.69723 4.69723 5.44144 5.02315 5.26713C5.34908 5.09283 5.67237 5 6.56389 5H17.4361Z" fill="currentColor"/>
</svg>
