<?xml version="1.0" encoding="UTF-8"?>
<svg width="24px" height="24px" viewBox="0 0 24 24" version="1.1" xmlns="http://www.w3.org/2000/svg" xmlns:xlink="http://www.w3.org/1999/xlink">
    <!-- Generator: Sketch 50.2 (55047) - http://www.bohemiancoding.com/sketch -->
    <title>comment_outline_24</title>
    <desc>Created with Sketch.</desc>
    <defs></defs>
    <g id="Page-2" stroke="none" stroke-width="1" fill="none" fill-rule="evenodd">
        <g id="comment_outline_24">
            <rect id="icon-bounds" x="0" y="0" width="24" height="24"></rect>
            <path d="M13.7659611,17.4463926 C14.0211692,17.2230856 14.3487552,17.1 14.6878676,17.1 L18.5,17.1 C19.5029437,17.1 20.1,16.5029437 20.1,15.5 L20.1,7.5 C20.1,6.49705626 19.5029437,5.89999998 18.5,5.89999998 L6.5,5.89999998 C5.49705626,5.89999998 4.89999998,6.49705626 4.89999998,7.5 L4.89999998,15.5 C4.89999998,16.5029437 5.49705626,17.1 6.5,17.1 L8.999,17.1 C9.69830426,17.3016957 9.69830426,17.3016957 9.89999998,18.001 L9.89999998,20.8295535 L13.7659611,17.4463926 Z M8.83500001,22.5325 C8.36298973,22.1784923 8.10000002,21.5538917 8.10000002,21 L8.10000002,18.9 L6.5,18.9 C4.50294374,18.9 3.10000002,17.4970563 3.10000002,15.5 L3.10000002,7.5 C3.10000002,5.50294374 4.50294374,4.10000002 6.5,4.10000002 L18.5,4.10000002 C20.4970563,4.10000002 21.9,5.50294374 21.9,7.5 L21.9,15.5 C21.9,17.4970563 20.4970563,18.9 18.5,18.9 L14.8381616,18.9 L11.1134429,22.1591288 C10.3806,22.8779263 9.52431008,23.0494825 8.83500001,22.5325 Z" id="Mask" fill="currentColor" fill-rule="nonzero"></path>
        </g>
    </g>
</svg>
