<?xml version="1.0" encoding="UTF-8"?>
<svg width="24px" height="24px" viewBox="0 0 24 24" version="1.1" xmlns="http://www.w3.org/2000/svg" xmlns:xlink="http://www.w3.org/1999/xlink">
    <!-- Generator: Sketch 50.2 (55047) - http://www.bohemiancoding.com/sketch -->
    <title>copy_24</title>
    <desc>Created with Sketch.</desc>
    <defs></defs>
    <g id="Page-2" stroke="none" stroke-width="1" fill="none" fill-rule="evenodd">
        <g id="copy_24">
            <polygon id="Bounds" points="0 0 24 0 24 24 0 24"></polygon>
            <path d="M4,17.9999756 C2.89450829,17.9945906 2,17.0967571 2,15.99 L2,5.5175 C2,3.57483839 3.57483839,2 5.5175,2 L15.99,2 C17.0967571,2 17.9945906,2.89450829 17.9999774,4 L6.76375,4 C5.23737302,4 4,5.23737302 4,6.76375 L4,17.9999774 L4,17.9999756 Z M8.01,6 L19.99,6 C21.1000923,6 22,6.89990765 22,8.01 L22,19.99 C22,21.1000923 21.1000923,22 19.99,22 L8.01,22 C6.89990765,22 6,21.1000923 6,19.99 L6,8.01 C6,6.89990765 6.89990765,6 8.01,6 Z M9,8 C8.44771525,8 8,8.44771525 8,9 L8,19 C8,19.5522847 8.44771525,20 9,20 L19,20 C19.5522847,20 20,19.5522847 20,19 L20,9 C20,8.44771525 19.5522847,8 19,8 L9,8 Z" id="Mask" fill="currentColor" fill-rule="nonzero"></path>
        </g>
    </g>
</svg>
