<svg height="24" viewBox="0 0 24 24" width="24" xmlns="http://www.w3.org/2000/svg"><g fill="none" fill-rule="evenodd"><path d="m0 0h24v24h-24z"/><path d="m17 19.7c.4588212 0 .8374518.3433367.8929877.7871059l.0070123.1128941v.705c0 .4970563-.4029437.9-.9.9-.4588212 0-.8374518-.3433368-.8929877-.787106l-.0070123-.112894v-.705c0-.4970563.4029437-.9.9-.9zm-10-17.7025c.45882118 0 .83745178.34333675.89298772.787106l.00701228.112894-.00011046 4.08831464c.00007355.00471972.00011046.00944827.00011046.01418536l-.001.0135.001 8.4865c0 .2982338.21758961.5456468.50267688.592147l.09732312.007853 7.601-.0005.0096234-7.59875c.0003728-.29823353-.2169074-.54591831-.5019363-.5927749l-.0980633-.0079751h-4.9106238c-.4970563 0-.9-.40294373-.9-.9s.4029437-.9.9-.9h4.9136238c1.270254.00158969 2.3087859.98972766 2.3916667 2.23867447l.0053315.16432553-.010622 7.5965 3.2.0005c.4970563 0 .9.4029437.9.9 0 .4588212-.3433367.8374518-.7871059.8929877l-.1128941.0070123h-12.6c-1.27025492 0-2.31002124-.986839-2.39446313-2.2356813l-.00553687-.1643187-.001-7.6005-3.19130769.0005c-.50130462 0-.90769231-.40294373-.90769231-.9 0-.45882118.34627117-.83745178.79383331-.89298772l.113859-.00701228 3.19130769-.0005.001-3.202c0-.49705627.40294373-.9.9-.9z" fill="currentColor" fill-rule="nonzero"/></g></svg>
