<svg fill="none" height="24" viewBox="0 0 24 24" width="24" xmlns="http://www.w3.org/2000/svg"><g fill="currentColor"><path d="m6.00002 1.00623c.49705 0 .9.40294.9.9v12.89377c0 .5749.0007.9519.02425 1.2403.02271.2778.06207.3932.09564.4591.10546.2069.27374.3752.48072.4807.06589.0336.18123.0729.45908.0956.28835.0236.6654.0243 1.24031.0243h12.89768c.497 0 .9.4029.9.9 0 .497-.403.9-.9.9h-3.1977v3.1976c0 .4971-.4029.9-.9.9-.497 0-.9-.4029-.9-.9v-3.1976h-7.93539c-.52985 0-.98105 0-1.35148-.0303-.38916-.0318-.76775-.1014-1.12969-.2858-.54567-.278-.98931-.7217-1.26734-1.2674-.18442-.3619-.25405-.7405-.28585-1.1296-.03026-.3705-.03025-.8216-.03024-1.3515l.00001-7.9354h-3.19752c-.49705 0-.9-.40294-.9-.9s.40295-.9.9-.9h3.19752v-3.19377c0-.49706.40294-.9.9-.9z"/><path d="m16.0403 6.92423c-.2883-.02355-.6654-.02426-1.2403-.02426h-4.89341c-.49705 0-.9-.40294-.9-.89999 0-.49706.40295-.9.9-.9h4.92881c.5299-.00002.9811-.00003 1.3515.03023.3892.0318.7678.10143 1.1297.28585.5457.27803.9893.72167 1.2674 1.26734.1844.36194.254.74053.2858 1.12969.0303.37042.0303.82159.0302 1.35144v4.93697c0 .4971-.4029.9-.9.9-.497 0-.9-.4029-.9-.9v-4.90152c0-.57491-.0007-.95196-.0242-1.24031-.0227-.27785-.0621-.39319-.0957-.45908-.1054-.20698-.2737-.37526-.4807-.48072-.0659-.03357-.1812-.07293-.4591-.09564z"/></g></svg>
