<svg width="24" height="24" viewBox="0 0 24 24" fill="none" xmlns="http://www.w3.org/2000/svg">
<path d="M12 24C18.6274 24 24 18.6274 24 12C24 5.37258 18.6274 0 12 0C5.37258 0 0 5.37258 0 12C0 18.6274 5.37258 24 12 24Z" fill="url(#paint0_linear)"/>
<path d="M8 11C8.55228 11 9 11.4477 9 12V16C9 16.5523 8.55228 17 8 17C7.44772 17 7 16.5523 7 16V12C7 11.4477 7.44772 11 8 11ZM16 6C16.5523 6 17 6.44772 17 7V16C17 16.5523 16.5523 17 16 17C15.4477 17 15 16.5523 15 16V7C15 6.44772 15.4477 6 16 6ZM12 8.5C12.5523 8.5 13 8.94772 13 9.5V16C13 16.5523 12.5523 17 12 17C11.4477 17 11 16.5523 11 16V9.5C11 8.94772 11.4477 8.5 12 8.5Z" fill="white"/>
<defs>
<linearGradient id="paint0_linear" x1="-12" y1="12" x2="12" y2="36" gradientUnits="userSpaceOnUse">
<stop stop-color="#50C750"/>
<stop offset="1" stop-color="#32B332"/>
</linearGradient>
</defs>
</svg>
