<svg xmlns="http://www.w3.org/2000/svg" width="24" height="24" fill="currentColor" viewBox="0 0 24 24"><path d="M8.5 9.549a1.5 1.5 0 1 1 0 3 1.5 1.5 0 0 1 0-3Zm5.956.754c.872-.445 1.878-.445 2.764.308a.766.766 0 0 1 .063 1.125.88.88 0 0 1-1.192.06l-.085-.066c-.252-.177-.477-.163-.748-.025a.977.977 0 0 0-.149.09l-.083.063a.881.881 0 0 1-1.11-.122.766.766 0 0 1 .063-1.125c.106-.09.265-.2.477-.309Zm-.1 4.692c.1-.543-.354-.995-.906-.995h-2.9c-.552 0-1.006.451-.906.995.026.138.057.26.093.347a2.442 2.442 0 0 0 1.325 1.322c.298.123.616.188.938.188a2.457 2.457 0 0 0 2.264-1.51 1.84 1.84 0 0 0 .092-.347Z M15.749 4.66A8.322 8.322 0 0 0 9.8 4.114 8.278 8.278 0 0 0 6.222 6.2H7.1a.9.9 0 1 1 0 1.8H3.9a.9.9 0 0 1-.9-.9V3.9a.9.9 0 1 1 1.8 0v1.179a10.076 10.076 0 0 1 4.51-2.697 10.122 10.122 0 0 1 7.237.665c1.414.7 2.632 1.714 3.566 2.95 1.536 2.034 2.104 4.703 1.814 7.211a.9.9 0 0 1-1.788-.207c.246-2.126-.249-4.312-1.462-5.919a8.248 8.248 0 0 0-2.928-2.422ZM3.073 10.024a.9.9 0 0 1 .786 1.001 8.136 8.136 0 0 0 .082 2.481 8.192 8.192 0 0 0 3.14 5.036 8.31 8.31 0 0 0 10.825-.742H16.9a.9.9 0 1 1 0-1.8h3.2a.9.9 0 0 1 .9.9v3.2a.9.9 0 1 1-1.8 0v-1.049a10.11 10.11 0 0 1-13.198.931 9.992 9.992 0 0 1-3.83-6.143 9.936 9.936 0 0 1-.1-3.03.9.9 0 0 1 1-.785Z"/></svg>
