<svg fill="none" height="24" viewBox="0 0 24 24" width="24" xmlns="http://www.w3.org/2000/svg"><g clip-rule="evenodd" fill="currentColor" fill-rule="evenodd"><path d="m6.9 7.49998v8.70002c0 .8549.0007 1.442.03788 1.8971.03633.4446.10293.6834.191.8563.20134.3951.5226.7164.91774.9177.17284.0881.41167.1547.85627.191.45511.0372 1.04218.0379 1.89711.0379h2.4c.8549 0 1.442-.0007 1.8971-.0379.4446-.0363.6834-.1029.8563-.191.3951-.2013.7164-.5226.9177-.9177.0881-.1729.1547-.4117.191-.8563.0372-.4551.0379-1.0422.0379-1.8971v-8.70002h1.8v8.73772c0 .808 0 1.4689-.0439 2.006-.0454.5559-.1423 1.0579-.3812 1.5268-.3739.7339-.9705 1.3305-1.7043 1.7044-.4689.2389-.971.3358-1.5269.3812-.5371.0439-1.1979.0439-2.006.0439h-2.4754c-.80806 0-1.46891 0-2.00598-.0439-.55592-.0454-1.058-.1423-1.52689-.3812-.73383-.3739-1.33045-.9705-1.70436-1.7044-.23891-.4689-.33579-.9709-.38121-1.5268-.04388-.5371-.04387-1.198-.04386-2.006v-8.73772z"/><path d="m4.73165 8.39998h.01835 14.5183c.1001.00003.2153.00006.3165-.00685.1156-.00788.2771-.0277.451-.09972.343-.14209.6155-.41464.7576-.75768.0721-.17388.0919-.33536.0998-.45091.0069-.10122.0068-.21638.0068-.31647v-.04608c0-.32577 0-.61415-.0164-.85429-.0174-.25501-.0562-.52067-.1663-.78644-.2436-.58807-.7108-1.05529-1.2989-1.29888-.2657-.11008-.5314-.14893-.7864-.16632-.2402-.01639-.5286-.01638-.8543-.01637l-.6519.00001c-.4383-.90817-1.3626-1.5-2.3907-1.5h-5.47019c-1.02808 0-1.95239.59183-2.3907 1.5l-.65187-.00001c-.32579-.00001-.61419-.00002-.85434.01637-.25501.01739-.52067.05624-.78644.16632-.58807.24359-1.05529.71081-1.29887 1.29888-.11009.26577-.14893.53143-.16633.78644-.01639.24015-.01638.52854-.01636.85434v.02766c0 .00605 0 .01217-.00001.01834-.00002.10009-.00005.21528.00685.3165.00789.11555.0277.27703.09973.45091.14209.34304.41463.61559.75767.75768.17389.07202.33536.09184.45092.09972.10122.00691.2164.00688.31649.00685zm.16841-1.8c.00032-.27665.00213-.46305.01212-.60947.01115-.16336.02939-.21026.03349-.22014.0609-.14702.1777-.26383.32472-.32472.00988-.0041.05678-.02234.22014-.03349.17144-.0117.3977-.01218.75947-.01218h.93377c.57624 0 1.08782-.36873 1.27004-.9154.11638-.34912.44309-.5846.8111-.5846h5.47019c.368 0 .6947.23548.8111.5846.1822.54667.6938.9154 1.27.9154h.9338c.3618 0 .588.00048.7595.01218.1633.01115.2102.02939.2201.03349.147.06089.2638.1777.3247.32472.0041.00988.0224.05678.0335.22014.01.14642.0118.33282.0121.60947z"/></g></svg>
