<svg xmlns="http://www.w3.org/2000/svg" width="24" height="24" fill="currentColor" viewBox="0 0 24 24"><path fill-rule="evenodd" d="M12 2.9a2.1 2.1 0 0 0-1.898 1.2h3.796A2.1 2.1 0 0 0 12 2.9ZM5.012 4.1h3.192a3.902 3.902 0 0 1 7.592 0H21a.9.9 0 0 1 0 1.8h-1.18l-.252 2.684a.9.9 0 0 1-1.792-.168l.236-2.516H5.988l1.136 12.115c.05.526.082.87.128 1.13.043.252.087.356.124.417a1.1 1.1 0 0 0 .474.432c.064.03.172.065.426.085.265.02.61.021 1.138.021a.9.9 0 1 1 0 1.8h-.033c-.486 0-.902 0-1.246-.027-.362-.028-.715-.09-1.057-.253a2.9 2.9 0 0 1-1.25-1.137c-.193-.326-.288-.671-.35-1.03a16.86 16.86 0 0 1-.143-1.237L4.18 5.9H3a.9.9 0 0 1 0-1.8h2.012ZM17 21.2a4.2 4.2 0 1 0 0-8.4 4.2 4.2 0 0 0 0 8.4Zm0 1.8a6 6 0 1 0 0-12 6 6 0 0 0 0 12Zm.9-8a.9.9 0 0 0-1.8 0v2.564a.9.9 0 0 0 .632.859l1.4.436a.9.9 0 1 0 .536-1.718l-.768-.24V15Z" clip-rule="evenodd"/></svg>
