<svg fill="none" height="24" viewBox="0 0 24 24" width="24" xmlns="http://www.w3.org/2000/svg"><g clip-rule="evenodd" fill="currentColor" fill-rule="evenodd"><path d="m14.5561 8.10173c.4961.031.8732.4583.8422.95439l-.5 7.99998c-.0311.4961-.4583.8731-.9544.8421s-.8731-.4583-.8421-.9544l.5-7.99996c.031-.49609.4583-.87312.9543-.84211z"/><path d="m9.44387 8.10173c-.49609.031-.87312.4583-.84211.95439l.5 7.99998c.031.4961.4583.8731.95434.8421.4961-.031.8732-.4583.8422-.9544l-.5-7.99996c-.0311-.49609-.45835-.87312-.95443-.84211z"/><path d="m3.00001 4.09998c-.49706 0-.9.40294-.9.9 0 .49705.40294.9.9.9h1.18042l1.15463 12.31602c.04534.4838.08414.8978.14303 1.2373.06212.3583.15694.7034.35088 1.0294.29421.4945.72887.8903 1.2487 1.1371.34269.1627.69514.2249 1.05763.2533.34358.0269.7594.0269 1.24537.0269h5.23863c.486 0 .9018 0 1.2454-.0269.3625-.0284.7149-.0906 1.0576-.2533.5199-.2468.9545-.6426 1.2487-1.1371.194-.326.2888-.6711.3509-1.0294.0589-.3395.0977-.7535.1431-1.2373l1.1546-12.31602h1.1804c.4971 0 .9-.40295.9-.9 0-.49706-.4029-.9-.9-.9h-5.2044c-.4063-1.72002-1.9514-3-3.7956-3-1.8441 0-3.38934 1.27998-3.79563 3zm4.12407 13.91472c.04934.5262.08215.8693.12753 1.1311.04349.2507.08788.3553.12431.4166.11159.1876.27647.3377.47364.4313.06438.0306.17269.065.42641.0849.26481.0207.6095.0214 1.13807.0214h5.17196c.5285 0 .8732-.0007 1.138-.0214.2538-.0199.3621-.0543.4264-.0849.1972-.0936.3621-.2437.4737-.4313.0364-.0613.0808-.1659.1243-.4166.0454-.2618.0782-.6049.1275-1.1311l1.1358-12.11472h-12.02337zm4.87592-15.11472c-.8377 0-1.5609.49051-1.8979 1.2h3.7958c-.337-.70949-1.0602-1.2-1.8979-1.2z"/></g></svg>
