<svg fill="none" height="24" viewBox="0 0 24 24" width="24" xmlns="http://www.w3.org/2000/svg"><g clip-rule="evenodd" fill="currentColor" fill-rule="evenodd"><path d="m3.00001 4.09998c-.49706 0-.9.40294-.9.9 0 .49705.40294.9.9.9h1.18042l1.15463 12.31602c.04534.4838.08414.8978.14303 1.2373.06212.3583.15693.7034.35088 1.0294.29421.4945.72887.8903 1.2487 1.1371.34269.1627.69514.2249 1.05763.2533.34358.0269.7594.0269 1.24537.0269h5.23863c.486 0 .9018 0 1.2454-.0269.3625-.0284.7149-.0906 1.0576-.2533.5199-.2468.9545-.6426 1.2487-1.1371.194-.326.2888-.6711.3509-1.0294.0589-.3395.0977-.7535.1431-1.2373l1.1546-12.31602h1.1804c.4971 0 .9-.40295.9-.9 0-.49706-.4029-.9-.9-.9h-5.2044c-.4062-1.72002-1.9514-3-3.7956-3-1.8441 0-3.38934 1.27998-3.79563 3zm4.12407 13.91472c.04934.5262.08215.8693.12753 1.1311.04349.2507.08788.3553.12431.4166.11159.1876.27647.3377.47364.4313.06438.0306.17269.065.42641.0849.26481.0207.6095.0214 1.13807.0214h5.17196c.5285 0 .8732-.0007 1.138-.0214.2538-.0199.3621-.0543.4264-.0849.1972-.0936.3621-.2437.4737-.4313.0364-.0613.0808-.1659.1243-.4166.0454-.2618.0782-.6049.1275-1.1311l1.1358-12.11472h-12.02337zm4.87592-15.11472c-.8377 0-1.5609.49051-1.8979 1.2h3.7958c-.337-.70949-1.0602-1.2-1.8979-1.2z"/><path d="m15.1364 12.1364c-.3515.3515-.9213.3515-1.2728 0l-.9636-.9636v5.8272c0 .497-.403.9-.9.9-.4971 0-.9-.403-.9-.9v-5.8272l-.9636.9636c-.35149.3514-.92134.3514-1.27281 0-.35148-.3515-.35148-.9213 0-1.2728l2.50001-2.50002c.3515-.35147.9213-.35147 1.2728 0l2.5 2.50002c.3515.3515.3515.9213 0 1.2728z"/></g></svg>
