<svg xmlns="http://www.w3.org/2000/svg" width="24" height="24" fill="none" viewBox="0 0 24 24"><path fill="currentColor" fill-rule="evenodd" d="M5.1463 3.6342C5.9084 3.2266 6.658 3.1 8.2278 3.1h7.5444c1.5697 0 2.3193.1266 3.0815.5342.6495.3474 1.1646.8625 1.512 1.512.4076.7622.5343 1.5119.5343 3.0816v7.5444c0 1.5697-.1267 2.3193-.5343 3.0815-.3474.6495-.8625 1.1646-1.512 1.512-.7622.4076-1.5118.5343-3.0815.5343H8.2278c-1.5697 0-2.3194-.1267-3.0815-.5343-.6496-.3474-1.1647-.8625-1.512-1.512-.4077-.7622-.5343-1.5118-.5343-3.0815V8.2278c0-1.5697.1266-2.3194.5342-3.0815.3474-.6496.8625-1.1647 1.512-1.512ZM8.2278 4.9c-1.4867 0-1.8707.128-2.2326.3215-.3359.1796-.594.4378-.7737.7737-.1936.362-.3215.7459-.3215 2.2326v7.5444c0 1.4867.128 1.8706.3215 2.2326.1796.3358.4378.594.7737.7736.362.1936.7459.3216 2.2326.3216h7.5444c1.4867 0 1.8706-.128 2.2326-.3216.3358-.1796.594-.4378.7736-.7736.1936-.362.3216-.7459.3216-2.2326V8.2278c0-1.4867-.128-1.8707-.3216-2.2326-.1796-.3359-.4378-.594-.7736-.7737-.362-.1936-.7459-.3215-2.2326-.3215H8.2278Z" clip-rule="evenodd"/><path fill="currentColor" d="M9.8 15.7c0 .8284-.6715 1.5-1.5 1.5-.8284 0-1.5-.6716-1.5-1.5 0-.8285.6716-1.5 1.5-1.5.8285 0 1.5.6715 1.5 1.5Zm0-7.4c0 .8284-.6715 1.5-1.5 1.5-.8284 0-1.5-.6716-1.5-1.5 0-.8285.6716-1.5 1.5-1.5.8285 0 1.5.6715 1.5 1.5Zm7.4 0c0 .8284-.6716 1.5-1.5 1.5-.8285 0-1.5-.6716-1.5-1.5 0-.8285.6715-1.5 1.5-1.5.8284 0 1.5.6715 1.5 1.5Zm0 7.4c0 .8284-.6716 1.5-1.5 1.5-.8285 0-1.5-.6716-1.5-1.5 0-.8285.6715-1.5 1.5-1.5.8284 0 1.5.6715 1.5 1.5ZM13.5 12c0 .8284-.6716 1.5-1.5 1.5s-1.5-.6716-1.5-1.5c0-.8285.6716-1.5 1.5-1.5s1.5.6715 1.5 1.5Z"/></svg>
