<svg width="24" height="24" viewBox="0 0 24 24" fill="none" xmlns="http://www.w3.org/2000/svg">
<path fill-rule="evenodd" clip-rule="evenodd" d="M9.71318 3.07153C10.9633 1.77775 13.0368 1.77775 14.2869 3.07152L14.5122 3.30465C14.8114 3.61436 15.2366 3.76911 15.6649 3.72421L15.9667 3.69258C17.7672 3.50386 19.3656 4.84508 19.4924 6.651L19.5137 6.95373C19.5439 7.38335 19.7701 7.77517 20.1271 8.0161L20.3786 8.18587C21.8792 9.19865 22.2415 11.2535 21.1778 12.7184L20.9995 12.964C20.7465 13.3125 20.6679 13.7581 20.7865 14.1721L20.8701 14.4638C21.3686 16.2042 20.3253 18.0112 18.5688 18.4497L18.2744 18.5232C17.8565 18.6275 17.5099 18.9183 17.3347 19.3117L17.2111 19.5889C16.4743 21.2426 14.5136 21.9562 12.8862 21.1631L12.6134 21.0301C12.2263 20.8414 11.7738 20.8414 11.3867 21.0301L11.1139 21.1631C9.48652 21.9562 7.52578 21.2426 6.78896 19.5889L6.66545 19.3117C6.49017 18.9183 6.14358 18.6275 5.72573 18.5232L5.43129 18.4497C3.67483 18.0112 2.63154 16.2042 3.13004 14.4638L3.21361 14.1721C3.3322 13.7581 3.25363 13.3125 3.00059 12.964L2.82229 12.7184C1.7586 11.2535 2.12093 9.19865 3.6215 8.18587L3.87304 8.0161C4.23002 7.77517 4.45623 7.38335 4.4864 6.95373L4.50766 6.651C4.63446 4.84508 6.23287 3.50386 8.03337 3.69258L8.33519 3.72421C8.76352 3.76911 9.18867 3.61436 9.48793 3.30465L9.71318 3.07153ZM12.9925 4.32228C12.45 3.76083 11.5501 3.76083 11.0076 4.32228L10.7824 4.55541C10.0984 5.26332 9.12659 5.61702 8.14756 5.5144L7.84574 5.48277C7.05802 5.40021 6.35871 5.98699 6.30324 6.77708L6.28198 7.07981C6.21303 8.06178 5.69596 8.95738 4.88002 9.50808L4.62848 9.67785C3.97198 10.1209 3.81346 11.0199 4.27882 11.6609L4.45713 11.9064C5.03551 12.703 5.21509 13.7214 4.94402 14.6677L4.86046 14.9595C4.64236 15.7209 5.0988 16.5115 5.86726 16.7033L6.16169 16.7768C7.11678 17.0152 7.90897 17.68 8.30962 18.5791L8.43313 18.8563C8.75549 19.5798 9.61332 19.892 10.3253 19.545L10.5981 19.4121C11.483 18.9808 12.5171 18.9808 13.402 19.4121L13.6748 19.545C14.3868 19.892 15.2446 19.5798 15.567 18.8563L15.6905 18.5791C16.0911 17.68 16.8833 17.0152 17.8384 16.7768L18.1328 16.7033C18.9013 16.5115 19.3577 15.7209 19.1396 14.9595L19.0561 14.6677C18.785 13.7214 18.9646 12.703 19.543 11.9064L19.7213 11.6609C20.1866 11.0199 20.0281 10.1209 19.3716 9.67785L19.1201 9.50808C18.3041 8.95738 17.7871 8.06178 17.7181 7.07981L17.6969 6.77708C17.6414 5.98699 16.9421 5.40021 16.1544 5.48277L15.8525 5.5144C14.8735 5.61702 13.9017 5.26332 13.2177 4.55541L12.9925 4.32228Z" fill="currentColor"/>
<path fill-rule="evenodd" clip-rule="evenodd" d="M9.45 10.225V9.67498C9.45 9.46788 9.2821 9.29998 9.075 9.29998C8.86789 9.29998 8.7 9.46788 8.7 9.67498V10.225C8.7 10.4321 8.86789 10.6 9.075 10.6C9.2821 10.6 9.45 10.4321 9.45 10.225ZM9.075 7.99998C8.14992 7.99998 7.4 8.74991 7.4 9.67498V10.225C7.4 11.1501 8.14992 11.9 9.075 11.9C10.0001 11.9 10.75 11.1501 10.75 10.225V9.67498C10.75 8.74991 10.0001 7.99998 9.075 7.99998Z" fill="currentColor"/>
<path fill-rule="evenodd" clip-rule="evenodd" d="M15.3 14.3237V13.7737C15.3 13.5666 15.1321 13.3987 14.925 13.3987C14.7179 13.3987 14.55 13.5666 14.55 13.7737V14.3237C14.55 14.5308 14.7179 14.6987 14.925 14.6987C15.1321 14.6987 15.3 14.5308 15.3 14.3237ZM14.925 12.0987C13.9999 12.0987 13.25 12.8487 13.25 13.7737V14.3237C13.25 15.2488 13.9999 15.9987 14.925 15.9987C15.8501 15.9987 16.6 15.2488 16.6 14.3237V13.7737C16.6 12.8487 15.8501 12.0987 14.925 12.0987Z" fill="currentColor"/>
<path fill-rule="evenodd" clip-rule="evenodd" d="M14.621 8.08578C14.9326 8.29043 15.0193 8.70893 14.8146 9.02053L10.4142 15.7205C10.2096 16.0321 9.7911 16.1188 9.4795 15.9142C9.1679 15.7095 9.0812 15.291 9.28585 14.9794L13.6862 8.27943C13.8909 7.96783 14.3094 7.88113 14.621 8.08578Z" fill="currentColor"/>
</svg>
