<svg height="24" viewBox="0 0 24 24" width="24" xmlns="http://www.w3.org/2000/svg"><g fill="none" fill-rule="evenodd"><circle cx="12" cy="12" fill="#000" fill-rule="nonzero" opacity=".24" r="12"/><g transform="translate(4 4)"><path d="m0 0h16v16h-16z"/><path d="m12.7364022 3.26359779c.3514719.35147187.3514719.92132035 0 1.27279221l-3.4634083 3.4636039 3.4634083 3.4636161c.3221825.3221825.3490311.8278621.0805456 1.1806275l-.0805456.0921647c-.3514719.3514719-.9213203.3514719-1.2727922 0l-3.4636161-3.4634083-3.4636039 3.4634083c-.35147186.3514719-.92132034.3514719-1.27279221 0-.35147186-.3514719-.35147186-.9213203 0-1.2727922l3.46339611-3.4636161-3.46339611-3.4636039c-.32218254-.32218254-.34903108-.8278621-.08054563-1.18062748l.08054563-.09216473c.35147187-.35147186.92132035-.35147186 1.27279221 0l3.4636039 3.46339611 3.4636161-3.46339611c.3514719-.35147186.9213203-.35147186 1.2727922 0z" fill="#fff" fill-rule="nonzero"/></g></g></svg>
