<?xml version="1.0" encoding="UTF-8"?>
<svg width="24px" height="24px" viewBox="0 0 24 24" version="1.1" xmlns="http://www.w3.org/2000/svg" xmlns:xlink="http://www.w3.org/1999/xlink">
    <!-- Generator: Sketch 50.2 (55047) - http://www.bohemiancoding.com/sketch -->
    <title>document_24</title>
    <desc>Created with Sketch.</desc>
    <defs></defs>
    <g id="Page-2" stroke="none" stroke-width="1" fill="none" fill-rule="evenodd">
        <g id="document_24">
            <rect id="Bounds" x="0" y="0" width="24" height="24"></rect>
            <path d="M4,5 L4,18 C4,19.6568542 5.34314575,21 7,21 L18,21.0023068 C19.6568542,21.0023068 21,19.6591611 21,18.0023068 C21,18.0015376 20.9999997,18.0007683 20.9999991,17.9999991 L20.9906366,8.82752581 C20.9902289,8.29762608 20.7795465,7.78954652 20.4048507,7.41485071 L15.5757864,2.58578644 C15.2007137,2.21071368 14.6920059,2 14.1615729,2 L7,2 C5.34314575,2 4,3.34314575 4,5 Z M14.0121321,4.01213205 L17.987871,7.987871 C18.1050283,8.10502829 18.1050283,8.2949778 17.987871,8.41213509 C17.9316104,8.46839569 17.8553047,8.50000272 17.7757402,8.50000306 L14,8.50002111 C13.7238576,8.50002227 13.4999991,8.27616559 13.4999979,8.00002322 C13.4999979,8.00002252 13.4999979,8.00002181 13.4999979,8.00002111 L13.5,4.2242641 C13.5,4.05857867 13.6343146,3.92426409 13.8,3.92426409 C13.879565,3.92426409 13.9558711,3.95587114 14.0121321,4.01213205 Z" id="Mask" fill="currentColor"></path>
        </g>
    </g>
</svg>
