<svg xmlns="http://www.w3.org/2000/svg" width="24" height="24" fill="currentColor" viewBox="0 0 24 24"><path d="M8.9 17.995a.9.9 0 0 1-.9-.9v-5.2a.9.9 0 1 1 1.8 0v5.2a.9.9 0 0 1-.9.9ZM11.201 17a.9.9 0 1 0 1.8 0v-2.102a.9.9 0 0 0-1.8 0V17Z"/><path fill-rule="evenodd" d="M12.473 2c.3 0 .586 0 .866.066a2.4 2.4 0 0 1 .694.288c.245.15.447.353.659.565l4.389 4.39c.212.21.415.413.565.658a2.4 2.4 0 0 1 .288.694c.067.28.066.566.066.866v6.012c0 .947 0 1.713-.05 2.333-.053.64-.163 1.203-.43 1.726a4.4 4.4 0 0 1-1.922 1.922c-.523.267-1.087.377-1.726.43-.62.05-1.386.05-2.334.05h-3.076c-.948 0-1.714 0-2.334-.05-.64-.053-1.203-.163-1.726-.43a4.4 4.4 0 0 1-1.922-1.922c-.267-.523-.377-1.087-.43-1.726C4 17.252 4 16.486 4 15.538V8.462c0-.948 0-1.714.05-2.334.053-.64.163-1.203.43-1.726A4.4 4.4 0 0 1 6.402 2.48c.523-.267 1.087-.377 1.726-.43C8.748 2 9.514 2 10.462 2h2.011ZM10.5 3.8H12v2.135c0 .53 0 .981.03 1.352.032.39.102.768.286 1.13a2.9 2.9 0 0 0 1.267 1.267c.362.184.741.254 1.13.286.37.03.822.03 1.352.03H18.2v5.5c0 .995 0 1.687-.045 2.226-.043.527-.123.828-.238 1.054a2.6 2.6 0 0 1-1.137 1.137c-.226.115-.527.195-1.055.238-.538.044-1.23.045-2.225.045h-3c-.995 0-1.687 0-2.226-.045-.527-.043-.828-.123-1.054-.238a2.6 2.6 0 0 1-1.137-1.137c-.115-.226-.195-.527-.238-1.055-.044-.538-.045-1.23-.045-2.225v-7c0-.995 0-1.687.045-2.225.043-.528.123-.829.238-1.055A2.6 2.6 0 0 1 7.22 4.083c.226-.115.527-.195 1.054-.238C8.813 3.8 9.505 3.8 10.5 3.8Zm3.3.773L17.427 8.2H16.1c-.575 0-.952 0-1.24-.024-.278-.023-.393-.062-.46-.096a1.1 1.1 0 0 1-.48-.48c-.034-.066-.073-.182-.096-.46A17.426 17.426 0 0 1 13.8 5.9V4.573Z" clip-rule="evenodd"/></svg>
