<svg xmlns="http://www.w3.org/2000/svg" width="24" height="24" fill="none" viewBox="0 0 24 24"><path fill="currentColor" fill-rule="evenodd" d="M4.929 4.929C6.7375 3.1203 9.2387 2 12 2c2.7612 0 5.2624 1.1203 7.0711 2.929C20.8797 6.7376 22 9.2389 22 12c0 2.7612-1.1203 5.2624-2.9289 7.0711C17.2624 20.8798 14.7612 22 12 22c-2.7612 0-5.2624-1.1202-7.071-2.9289C3.1202 17.2624 2 14.7612 2 12c0-2.7611 1.1203-5.2624 2.929-7.071ZM12 3.8c-2.2646 0-4.3134.9169-5.7983 2.4017C4.7168 7.6867 3.8 9.7355 3.8 12s.9168 4.3134 2.4017 5.7983C7.6867 19.2832 9.7354 20.2 12 20.2s4.3134-.9168 5.7983-2.4017C19.2832 16.3134 20.2 14.2646 20.2 12s-.9168-4.3133-2.4017-5.7983C16.3134 4.717 14.2646 3.8 12 3.8Z" clip-rule="evenodd"/><path fill="currentColor" fill-rule="evenodd" d="M12 6.0047c.6868 0 1.3141.3893 1.6181 1.0042l.7839 1.5857 1.753.2543a1.8035 1.8035 0 0 1 1.4566 1.226 1.7992 1.7992 0 0 1-.4566 1.8466l-1.2684 1.2344.2994 1.7429a1.8002 1.8002 0 0 1-.7178 1.7619 1.807 1.807 0 0 1-1.9003.1371L12 15.9749l-1.5679.8229a1.807 1.807 0 0 1-1.9003-.1371 1.8001 1.8001 0 0 1-.7179-1.7619l.2995-1.7429-1.2685-1.2344a1.7993 1.7993 0 0 1-.4566-1.8466 1.8036 1.8036 0 0 1 1.4567-1.226l1.753-.2543.7839-1.5857A1.8047 1.8047 0 0 1 12 6.0047Zm0 1.8014 1.2038 2.435 2.6917.3905-1.9478 1.8954.4598 2.6763L12 13.9397l-2.4076 1.2636.4598-2.6763-1.9477-1.8954 2.6917-.3905L12 7.8061Z" clip-rule="evenodd"/></svg>
