<svg width="24" height="24" fill="none" xmlns="http://www.w3.org/2000/svg"><path fill-rule="evenodd" clip-rule="evenodd" d="M18.754 20.366c-.763.407-1.512.534-3.082.534H13a.9.9 0 110-1.8h2.672c1.487 0 1.87-.128 2.233-.322.336-.18.594-.437.773-.773.194-.362.322-.746.322-2.233V8.228c0-1.487-.128-1.87-.322-2.233a1.847 1.847 0 00-.773-.774c-.362-.193-.746-.321-2.233-.321H13a.9.9 0 110-1.8h2.672c1.57 0 2.32.127 3.082.534.65.348 1.164.863 1.512 1.512.407.762.534 1.512.534 3.082v7.544c0 1.57-.127 2.32-.534 3.082a3.646 3.646 0 01-1.512 1.512zm-9.39-5.002l2.463-2.464H3.9a.9.9 0 110-1.8h7.927L9.364 8.636a.9.9 0 111.272-1.272l4 4a.9.9 0 010 1.272l-4 4a.9.9 0 11-1.272-1.272z" fill="currentColor"/></svg>
