<svg xmlns="http://www.w3.org/2000/svg" width="24" height="24" fill="currentColor" viewBox="0 0 24 24"><path fill-rule="evenodd" d="M12 2a.9.9 0 0 1 .9.9v10.927l.827-.827A.9.9 0 1 1 15 14.273l-2.364 2.363a.9.9 0 0 1-1.272 0l-6.1-6.1a.9.9 0 0 1 1.272-1.272l4.564 4.563V2.9A.9.9 0 0 1 12 2ZM4 20a.9.9 0 0 1 .9-.9h14.2a.9.9 0 1 1 0 1.8H4.9A.9.9 0 0 1 4 20Z" clip-rule="evenodd"/><path fill-rule="evenodd" d="M19 3a5 5 0 1 0 0 10 5 5 0 0 0 0-10Zm2.78 3.22a.75.75 0 0 0-1.06 0l-2.47 2.47-.97-.97a.75.75 0 1 0-1.06 1.06l1.5 1.5a.75.75 0 0 0 1.06 0l3-3a.75.75 0 0 0 0-1.06Z" clip-rule="evenodd"/></svg>
