<svg fill="none" height="24" viewBox="0 0 24 24" width="24" xmlns="http://www.w3.org/2000/svg"><path d="m19 19c.5523 0 1 .4477 1 1s-.4477 1-1 1h-14c-.55228 0-1-.4477-1-1s.44772-1 1-1zm-7-17c.5523 0 1 .44772 1 1v10.585l4.2929-4.29211c.3605-.36048.9277-.38821 1.32-.08319l.0942.08319c.3905.39053.3905 1.02371 0 1.41421l-6 6c-.0285.0285-.0586.0552-.0904.0801-.0069.0055-.0141.011-.0214.0165-.0242.0178-.049.0346-.0746.0502-.0121.0075-.0243.0146-.0366.0214-.0198.0109-.0402.0213-.061.031-.017.008-.0343.0155-.0518.0225-.0197.0079-.0395.0151-.0596.0217-.0148.0048-.0302.0094-.0457.0137-.0216.006-.0433.0112-.0652.0156-.0174.0035-.0349.0066-.0523.0092-.0204.0031-.0414.0056-.0627.0074-.0179.0015-.0352.0025-.0526.0031-.0108.0003-.022.0005-.0332.0005l-.0323-.0005c-.018-.0006-.036-.0017-.0539-.0032l.0862.0037c-.0506 0-.1004-.0038-.149-.011-.0169-.0026-.0344-.0057-.0517-.0092-.022-.0044-.0437-.0096-.0651-.0155-.0157-.0044-.0311-.009-.0463-.014-.0197-.0064-.0395-.0136-.059-.0214-.0177-.0071-.035-.0146-.0521-.0226-.0207-.0097-.0411-.0201-.0611-.0312-.0121-.0066-.0243-.0137-.0364-.0211-.0256-.0157-.0504-.0325-.0745-.0503-.0391-.029-.0765-.0612-.1119-.0966l.0904.0801c-.0318-.0249-.0619-.0516-.0904-.0801l-6.00001-6c-.39052-.3905-.39052-1.02368 0-1.41421.39053-.39052 1.02369-.39052 1.41422 0l4.29289 4.29211v-10.585c0-.55228.4477-1 1-1z" fill="currentColor"/></svg>
