<svg xmlns="http://www.w3.org/2000/svg" width="24" height="24" fill="currentColor" viewBox="0 0 24 24"><path fill-rule="evenodd" d="M7.738 7.19c0-1.893 1.494-3.392 3.294-3.392 1.542 0 2.858 1.098 3.205 2.605a.9.9 0 0 0 .903.697l.086-.001c1.622 0 2.972 1.35 2.972 3.06 0 1.593-1.175 2.878-2.646 3.043a.9.9 0 0 0 .201 1.789c2.404-.27 4.245-2.345 4.245-4.832 0-2.473-1.824-4.542-4.208-4.827-.73-1.94-2.575-3.334-4.758-3.334-2.832 0-5.094 2.344-5.094 5.191v.07a4.215 4.215 0 0 0-1.936 3.56c0 2.301 1.828 4.201 4.127 4.201h.241a.9.9 0 0 0 0-1.8h-.24c-1.266 0-2.327-1.055-2.327-2.4 0-1.006.598-1.858 1.431-2.217a.9.9 0 0 0 .536-.946 3.527 3.527 0 0 1-.031-.468Zm5.162 3.713a.9.9 0 1 0-1.8 0v8.024l-1.564-1.564a.9.9 0 1 0-1.273 1.273l3.1 3.1a.9.9 0 0 0 1.273 0l3.105-3.104a.9.9 0 1 0-1.273-1.273L12.9 18.927v-8.024Z" clip-rule="evenodd"/></svg>
