<svg xmlns="http://www.w3.org/2000/svg" width="24" height="24" fill="currentColor" viewBox="0 0 24 24"><path fill-rule="evenodd" d="M14.785 2.34a.9.9 0 0 1 1.41 0 46.87 46.87 0 0 1 2.623 3.767c1.317 2.114 2.8 4.91 3.095 7.274C22.486 17.984 19.74 22 15.49 22A6.042 6.042 0 0 1 12 20.927 6.042 6.042 0 0 1 8.51 22c-4.25 0-6.996-4.016-6.423-8.62.294-2.364 1.778-5.16 3.095-7.273a46.874 46.874 0 0 1 1.81-2.685c.265-.365.535-.727.813-1.082a.9.9 0 0 1 1.411.002c.278.355.547.716.811 1.08A46.864 46.864 0 0 1 12 6.37l.162-.263a46.864 46.864 0 0 1 1.81-2.685c.265-.365.535-.727.813-1.082ZM10.97 8.16a36.88 36.88 0 0 0-.66-1.1 45.077 45.077 0 0 0-1.74-2.581l-.06-.083-.06.083a45.07 45.07 0 0 0-1.74 2.58c-1.314 2.108-2.596 4.608-2.837 6.544C3.391 17.474 5.66 20.2 8.51 20.2a4.29 4.29 0 0 0 2.13-.56c-1.262-1.596-1.874-3.847-1.573-6.26.206-1.656.996-3.523 1.903-5.22ZM12 18.456c-.914-1.17-1.395-2.86-1.147-4.853.13-1.048.566-2.262 1.147-3.489.58 1.227 1.016 2.44 1.147 3.49.248 1.992-.233 3.681-1.147 4.852Zm1.36 1.184c1.262-1.596 1.873-3.847 1.573-6.26-.207-1.656-.996-3.523-1.903-5.22.215-.375.437-.744.66-1.1a45.095 45.095 0 0 1 1.74-2.581l.06-.083.06.083a45.048 45.048 0 0 1 1.74 2.58c1.314 2.108 2.595 4.608 2.837 6.544.482 3.871-1.787 6.597-4.637 6.597a4.29 4.29 0 0 1-2.13-.56Z" clip-rule="evenodd"/></svg>
