<svg xmlns="http://www.w3.org/2000/svg" width="24" height="24" fill="currentColor" viewBox="0 0 24 24"><path d="M13 3a.9.9 0 0 0-.9.9v1.95a.9.9 0 1 0 1.8 0V3.9A.9.9 0 0 0 13 3Zm0 4.75a.9.9 0 0 0-.9.9v1.95a.9.9 0 1 0 1.8 0V8.65a.9.9 0 0 0-.9-.9Zm-.9 5.65a.9.9 0 1 1 1.8 0v1.95a.9.9 0 1 1-1.8 0V13.4Zm.9 3.85a.9.9 0 0 0-.9.9v1.95a.9.9 0 1 0 1.8 0v-1.95a.9.9 0 0 0-.9-.9ZM9.1 4h-.64c-.947 0-1.713 0-2.333.05-.64.053-1.203.163-1.726.43a4.4 4.4 0 0 0-1.923 1.922c-.266.523-.376 1.087-.429 1.726C2 8.748 2 9.514 2 10.462v3.076c0 .948 0 1.714.05 2.334.053.64.163 1.203.43 1.726A4.4 4.4 0 0 0 4.4 19.52c.523.267 1.086.377 1.726.43.62.05 1.386.05 2.333.05h.64a.9.9 0 1 0 0-1.8h-.601c-.995 0-1.687 0-2.226-.045-.528-.043-.828-.123-1.055-.238a2.6 2.6 0 0 1-1.136-1.137c-.115-.226-.195-.527-.238-1.055-.044-.538-.045-1.23-.045-2.225v-3c0-.995 0-1.687.045-2.226.043-.527.123-.828.238-1.054a2.6 2.6 0 0 1 1.136-1.137c.227-.115.527-.195 1.055-.238C6.812 5.8 7.503 5.8 8.5 5.8h.6a.9.9 0 1 0 0-1.8Zm7.8 0a.9.9 0 1 0 0 1.8h1.299a2 2 0 0 1 2 2v8.4a2 2 0 0 1-2 2h-1.3a.9.9 0 1 0 0 1.8h1.3a3.8 3.8 0 0 0 3.8-3.8V7.8a3.8 3.8 0 0 0-3.8-3.8h-1.3Z"/></svg>
