<svg xmlns="http://www.w3.org/2000/svg" width="24" height="24" fill="currentColor" viewBox="0 0 24 24"><path fill-rule="evenodd" d="m3.962 8.896 6.455-3.674a3.2 3.2 0 0 1 3.166 0l6.455 3.674c.032.018.041.033.046.04a.131.131 0 0 1 .014.064c0 .028-.007.05-.014.063a.118.118 0 0 1-.046.041l-6.455 3.674a3.2 3.2 0 0 1-3.166 0L3.962 9.104c-.033-.018-.042-.033-.046-.041A.132.132 0 0 1 3.902 9c0-.029.007-.05.014-.063.004-.008.013-.023.046-.041Zm-.89 1.772c-1.294-.736-1.294-2.6 0-3.337l6.455-3.674a5 5 0 0 1 4.946 0l6.455 3.674a1.9 1.9 0 0 1 .97 1.667L21.9 9v4.1a.9.9 0 0 1-1.8 0v-1.96l-5.627 3.202a5 5 0 0 1-4.946 0l-6.455-3.674Z" clip-rule="evenodd"/><path fill-rule="evenodd" d="M17.2 11.1v2.008c0 1.415 0 2.422-.065 3.211-.064.778-.185 1.264-.382 1.65a4.1 4.1 0 0 1-1.792 1.792c-.386.198-.872.319-1.65.382-.38.031-.81.047-1.311.056v1.8a22.777 22.777 0 0 0 1.457-.062c.89-.073 1.639-.224 2.322-.572a5.9 5.9 0 0 0 2.578-2.578c.348-.683.5-1.432.572-2.322.071-.87.071-1.95.071-3.317V11.1h-1.8Z" clip-rule="evenodd"/><path fill-rule="evenodd" d="M6.9 11.1v2.01c0 1.415 0 2.422.065 3.21.064.779.185 1.264.382 1.651a4.1 4.1 0 0 0 1.792 1.792c.386.197.872.318 1.65.382.354.029.752.045 1.211.054v1.8c-.503-.01-.953-.027-1.357-.06-.89-.073-1.639-.224-2.321-.572a5.9 5.9 0 0 1-2.579-2.579c-.348-.682-.5-1.431-.572-2.32-.07-.871-.07-1.952-.07-3.318V11.1h1.8Z" clip-rule="evenodd"/></svg>
