<svg xmlns="http://www.w3.org/2000/svg" width="24" height="24" fill="currentColor" viewBox="0 0 24 24"><path fill-rule="evenodd" d="M12.329 3.033a1.711 1.711 0 0 0-.65 0c-.25.048-.473.165-.639.251l-.045.024-7.288 3.775c-.325.169-.622.323-.85.468-.225.144-.527.367-.697.73a1.695 1.695 0 0 0 0 1.438c.17.363.472.586.698.73.227.145.524.3.85.468l1.492.773v2.545c0 .338 0 .548.01.73a6.4 6.4 0 0 0 6.025 6.025c.183.01.392.01.73.01h.07c.338 0 .547 0 .73-.01a6.4 6.4 0 0 0 6.024-6.025c.011-.182.011-.392.011-.73V11.69l1.4-.726v4.138a.9.9 0 1 0 1.8 0v-6.09c.002-.25-.051-.5-.16-.732-.17-.363-.471-.585-.697-.73a11.336 11.336 0 0 0-.85-.467l-7.28-3.775-.046-.024c-.165-.087-.39-.204-.638-.252Zm-.366 1.803.04-.02a3.843 3.843 0 0 1 .176.09l7.248 3.757c.289.15.488.254.631.337-.143.083-.342.187-.631.337l-7.248 3.757c-.055.03-.098.051-.135.07-.031.016-.05.016-.081 0-.037-.019-.08-.04-.135-.07L4.574 9.338c-.29-.15-.488-.253-.632-.337.144-.084.343-.187.632-.337l7.254-3.757c.055-.03.098-.051.135-.07ZM17 12.624l-3.987 2.067c-.219.114-.44.229-.684.276a1.712 1.712 0 0 1-.65 0c-.245-.047-.466-.161-.684-.275L7 12.622V14.2c0 .384 0 .538.007.663a4.6 4.6 0 0 0 4.33 4.33c.125.007.28.007.663.007.384 0 .538 0 .663-.008a4.6 4.6 0 0 0 4.33-4.33c.007-.124.007-.278.007-.662v-1.576Z" clip-rule="evenodd"/></svg>
