<svg fill="none" height="24" width="24" xmlns="http://www.w3.org/2000/svg"><path clip-rule="evenodd" d="M12.9 2a.9.9 0 00-1.8 0v.175A5.404 5.404 0 006.659 6.7l-.07-.011a16.943 16.943 0 01-.391-.068l-.018-.004h-.004a.9.9 0 00-.353 1.764h.002l.002.001.007.002.026.005a10.747 10.747 0 00.441.077c.26.042.618.095 1.06.15A4.649 4.649 0 0012 13.6a4.649 4.649 0 004.64-4.983 29.056 29.056 0 001.501-.227l.025-.005.008-.002h.003a.9.9 0 00-.352-1.766l-.004.001-.018.004a9.062 9.062 0 01-.391.068l-.07.01A5.404 5.404 0 0012.9 2.176zm-1.8 2.013a.9.9 0 001.8 0 3.604 3.604 0 012.655 2.913 36.65 36.65 0 01-7.11 0A3.604 3.604 0 0111.1 4.013zM9.154 8.794a2.849 2.849 0 105.692 0 38.518 38.518 0 01-5.692 0zM5.928 20.081c-.04-.035-.039-.12-.033-.316.002-.088.005-.198.005-.337 0-1.892 2.778-3.028 6.1-3.028 3.322 0 6.1 1.136 6.1 3.028 0 .139.003.249.005.337.005.196.008.28-.033.316-.03.026-.084.024-.18.021l-.127-.002H6.235l-.127.002c-.096.003-.15.005-.18-.021zM12 14.6c-4.227 0-7.9 1.502-7.9 4.828 0 1.736.686 2.472 2.135 2.472h11.53c1.45 0 2.135-.736 2.135-2.472 0-3.326-3.673-4.828-7.9-4.828z" fill="currentColor" fill-rule="evenodd"/></svg>
