<svg fill="none" height="24" viewBox="0 0 24 24" width="24" xmlns="http://www.w3.org/2000/svg"><path clip-rule="evenodd" d="m24 12c0 6.6274-5.3726 12-12 12-6.62742 0-12-5.3726-12-12 0-6.62742 5.37258-12 12-12 6.6274 0 12 5.37258 12 12zm-13.4212-5.50207c-.0428-.81423.6058-1.49793 1.4212-1.49793s1.464.6837 1.4212 1.49793l-.3686 7.00347c-.0026.0478-.0038.0716-.0057.0921-.0468.4982-.4547.8851-.9547.9057-.0204.0008-.0444.0008-.0922.0008s-.0718 0-.0922-.0008c-.5-.0206-.9079-.4075-.9547-.9057-.0019-.0205-.0031-.0443-.0057-.0921zm1.4212 9.50207c-.8284 0-1.5.6716-1.5 1.5s.6716 1.5 1.5 1.5 1.5-.6716 1.5-1.5-.6716-1.5-1.5-1.5z" fill="currentColor" fill-rule="evenodd"/></svg>
