<svg width="24" height="24" viewBox="0 0 24 24" fill="none" xmlns="http://www.w3.org/2000/svg">
<path d="M12 0C18.6274 0 24 5.37258 24 12C24 18.6274 18.6274 24 12 24C5.37258 24 0 18.6274 0 12C0 5.37258 5.37258 0 12 0ZM12 2C6.47715 2 2 6.47715 2 12C2 17.5228 6.47715 22 12 22C17.5228 22 22 17.5228 22 12C22 6.47715 17.5228 2 12 2ZM12 16C12.7364 16 13.3333 16.597 13.3333 17.3333C13.3333 18.0697 12.7364 18.6667 12 18.6667C11.2636 18.6667 10.6667 18.0697 10.6667 17.3333C10.6667 16.597 11.2636 16 12 16ZM12.3241 5.33333C12.8763 5.33333 13.3241 5.78105 13.3241 6.33333C13.3241 6.34548 13.3238 6.35763 13.3234 6.36977L13.0581 13.6465C13.0373 14.2158 12.5697 14.6667 12 14.6667C11.4303 14.6667 10.9627 14.2158 10.9419 13.6465L10.6766 6.36977C10.6565 5.81785 11.0876 5.35412 11.6395 5.334L12.3241 5.33333Z" fill="currentColor"/>
</svg>
