<?xml version="1.0" encoding="UTF-8"?>
<svg width="24px" height="24px" viewBox="0 0 24 24" version="1.1" xmlns="http://www.w3.org/2000/svg" xmlns:xlink="http://www.w3.org/1999/xlink">
    <!-- Generator: Sketch 50.2 (55047) - http://www.bohemiancoding.com/sketch -->
    <title>error_24</title>
    <desc>Created with Sketch.</desc>
    <defs></defs>
    <g id="Page-2" stroke="none" stroke-width="1" fill="none" fill-rule="evenodd">
        <g id="error_24">
            <rect id="Body" x="0" y="0" width="24" height="24"></rect>
            <path d="M12,22 C10.8954305,22 10,21.1045695 10,20 C10,18.8954305 10.8954305,18 12,18 C13.1045695,18 14,18.8954305 14,20 C14,21.1045695 13.1045695,22 12,22 Z M10.9953981,2 L13.0046402,2 C13.5569249,2 14.0046402,2.44771525 14.0046402,3 C14.0046402,3.0121482 14.0044188,3.02429539 14.0039762,3.03643553 L13.5871221,14.4697079 C13.5759769,14.7753918 13.4978795,15.0473189 13.3647154,15.2740288 C13.2315514,15.5007388 13.0433208,15.6822316 12.8119095,15.8070469 C12.5804982,15.9318622 12.3059062,16 12.0000191,16 C11.6941321,16 11.4195401,15.9318622 11.1881287,15.8070469 C10.9567174,15.6822316 10.7684869,15.5007388 10.6353228,15.2740288 C10.5021588,15.0473189 10.4240613,14.7753918 10.4129162,14.4697079 L9.99606209,3.03643553 C9.97593931,2.48451749 10.4070445,2.02078678 10.9589626,2.00066399 C10.9711027,2.00022137 10.9832499,2 10.9953981,2 Z" id="Mask" fill="currentColor"></path>
        </g>
    </g>
</svg>
