<svg xmlns="http://www.w3.org/2000/svg" width="24" height="24" fill="none" viewBox="0 0 24 24"><path fill="currentColor" fill-rule="evenodd" d="M9.8657 15h4.2687c.2888-.0001.5326-.0003.7754.0409.2138.0363.4229.0965.6234.1794.2275.0941.434.2239.6785.3775l.0467.0293 4.32 2.7106A.9.9 0 0 1 20.1001 20h-4.931c-.1501 0-.2292.0003-.2876.0033a.7063.7063 0 0 0-.0344.0025.104.104 0 0 0-.019.0092.5754.5754 0 0 0-.0234.0252c-.0389.0437-.0885.1053-.1823.2225l-1.9195 2.3995a.9.9 0 0 1-1.4056.0001l-1.9196-2.3996c-.0938-.1172-.1434-.1788-.1822-.2225a.762.762 0 0 0-.0235-.0253.1085.1085 0 0 0-.019-.0091.7091.7091 0 0 0-.0344-.0025C9.0602 20.0003 8.9812 20 8.8311 20H3.9a.9.9 0 0 1-.4784-1.6623l4.32-2.7106.0468-.0293c.2444-.1536.451-.2834.6785-.3775a2.9015 2.9015 0 0 1 .6234-.1794c.2427-.0412.4866-.041.7753-.0409Zm.0552 1.8c-.372 0-.4552.003-.5294.0156a1.0933 1.0933 0 0 0-.2364.068c-.0696.0288-.1416.0705-.4567.2682L7.0278 18.2h1.8033l.058-.0001c.221-.0006.4823-.0012.735.0684a1.899 1.899 0 0 1 .6105.2934c.2121.1538.3748.3583.5124.5311l.0362.0455 1.2169 1.521 1.2168-1.521.0362-.0455c.1376-.1728.3003-.3773.5124-.5311a1.8986 1.8986 0 0 1 .6106-.2934c.2526-.0696.5139-.069.7348-.0684l.0582.0001h1.8032l-1.6706-1.0482c-.315-.1977-.3871-.2394-.4566-.2682a1.0936 1.0936 0 0 0-.2365-.068c-.0742-.0126-.1574-.0156-.5293-.0156H9.9209Zm6.8618-12.2406a7.151 7.151 0 0 0-.1237-.1954l-.0632-.0935a1.8002 1.8002 0 0 0-1.5019-.7672 4.8761 4.8761 0 0 0-.6584-.9314c-.4755-.5304-.9943-.8862-1.3797-1.1072a5.3129 5.3129 0 0 0-.7581-.3599 1.8 1.8 0 0 0-2.405 1.6953c0 .2047-.034.2886-.0432.3096-.0088.02-.0272.056-.0987.1238-.0855.081-.2137.1773-.4466.329-.0477.0312-.1054.068-.1696.1091-.193.1233-.4459.2849-.6697.4447-.9197.6564-1.5864 1.344-1.9942 2.1357-.4223.8197-.4706 1.5685-.4706 2.1106 0 2.013 1.3534 3.2516 2.289 3.8675.495.3258.9764.5508 1.327.6936.2673.1089.4729.1762.5796.209.6331.1876 1.3171.0553 1.8023-.4064.2412.1676.4664.2979.656.3966.1684.0877.3137.1529.4246.1988.0742.0308.1493.0585.2249.0854.4274.143.8929.1204 1.3045-.0632 1.4139-.6308 2.3987-1.5536 2.9346-2.7054.5221-1.1224.5234-2.2589.3658-3.1728-.1571-.911-.4879-1.702-.7584-2.2424a9.063 9.063 0 0 0-.3673-.664ZM13.8746 11.7s-.7681-.257-1.4517-.9612a3.8722 3.8722 0 0 1-.1514-.1654c-.4845-.5613-.8906-1.3667-.8906-2.489 0 0-.6931.4122-.9541 1.2368-.1678.53-.1571 1.2301.3307 2.1006 0 0-.0523-.0147-.143-.0455-.3702-.1258-1.3796-.5191-2.083-1.2688-.4203-.448-.7314-1.0234-.7314-1.745 0-.8344.152-1.6688 1.7106-2.7813.1828-.1305.3693-.2497.5524-.3667.389-.2485.7628-.4874 1.054-.8045.3461-.377.5755-.8643.5755-1.61 0 0 .9911.3537 1.632 1.2605a2.945 2.945 0 0 1 .2229.3694c.1295.2557.2282.5458.2767.8732.0407.2749.046.576.0043.9052a4.077 4.077 0 0 1-.0563.3315c-.0475.2246-.1163.4612-.2093.7102 0 0 .2005-.0716.4577-.2275.4598-.2789 1.1009-.8275 1.1009-1.7194 0 0 .2537.3621.515.925.1749.3768.3533.8436.4612 1.352.296 1.394.0625 3.1002-2.2231 4.1199Z" clip-rule="evenodd"/></svg>
