<svg width="24" height="24" viewBox="0 0 24 24" fill="none" xmlns="http://www.w3.org/2000/svg">
<path d="M15.6542 4C16.9915 4 17.4764 4.13924 17.9653 4.4007C18.4542 4.66216 18.8378 5.04584 19.0993 5.53473C19.3608 6.02362 19.5 6.50855 19.5 7.84583V15.6542C19.5 16.9915 19.3608 17.4764 19.0993 17.9653C18.8378 18.4542 18.4542 18.8378 17.9653 19.0993C17.4764 19.3608 16.9915 19.5 15.6542 19.5H7.84583C6.50855 19.5 6.02362 19.3608 5.53473 19.0993C5.04584 18.8378 4.66216 18.4542 4.4007 17.9653C4.13924 17.4764 4 16.9915 4 15.6542V7.84583C4 6.50855 4.13924 6.02362 4.4007 5.53473C4.66216 5.04584 5.04584 4.66216 5.53473 4.4007C6.02362 4.13924 6.50855 4 7.84583 4H15.6542ZM15.4361 5.5H8.06388C7.17237 5.5 6.84908 5.59283 6.52315 5.76713C6.19723 5.94144 5.94144 6.19723 5.76713 6.52315C5.59283 6.84908 5.5 7.17237 5.5 8.06388V15.4361C5.5 16.3276 5.59283 16.6509 5.76713 16.9768C5.94144 17.3028 6.19723 17.5586 6.52315 17.7329C6.84908 17.9072 7.17237 18 8.06388 18H15.4361C16.3276 18 16.6509 17.9072 16.9768 17.7329C17.3028 17.5586 17.5586 17.3028 17.7329 16.9768C17.9072 16.6509 18 16.3276 18 15.4361V8.06388C18 7.17237 17.9072 6.84908 17.7329 6.52315C17.5586 6.19723 17.3028 5.94144 16.9768 5.76713C16.6509 5.59283 16.3276 5.5 15.4361 5.5ZM9.5 15.5V8H14.5V9.5H11V11H14.5V12.5H11V14H14.5V15.5H9.5Z" fill="currentColor"/>
</svg>
