<?xml version="1.0" encoding="UTF-8"?>
<svg width="24px" height="24px" viewBox="0 0 24 24" version="1.1" xmlns="http://www.w3.org/2000/svg" xmlns:xlink="http://www.w3.org/1999/xlink">
    <!-- Generator: Sketch 50.2 (55047) - http://www.bohemiancoding.com/sketch -->
    <title>favorite_outline_24</title>
    <desc>Created with Sketch.</desc>
    <defs></defs>
    <g id="Page-2" stroke="none" stroke-width="1" fill="none" fill-rule="evenodd">
        <g id="favorite_outline_24">
            <rect id="Rectangle-331" x="0" y="0" width="24" height="24"></rect>
            <path d="M11.5245198,4.38625548 L9.33859824,9.42606812 L4.32265557,9.90739086 C3.65432743,9.97152268 3.53561804,10.3640288 4.04273504,10.7854956 L8.00625105,14.0795888 L6.54844137,19.396415 C6.37334487,20.0350153 6.66924847,20.2443848 7.20976212,19.8625904 L12.0003959,16.478703 L16.7910296,19.8625904 C17.3360795,20.247589 17.6276267,20.035671 17.4523504,19.396415 L15.9945407,14.0795888 L19.9580567,10.7854956 C20.4600595,10.3682792 20.3397491,9.97088789 19.677913,9.90739086 L14.6610359,9.42606812 L12.476065,4.38625548 C12.2136297,3.78092711 11.7873389,3.78030555 11.5245198,4.38625548 Z M15.8900815,7.73571844 L19.8498169,8.11561826 C22.0964979,8.33116643 22.8478423,10.7242917 21.1085662,12.1698107 L18.0372297,14.72241 L19.18828,18.920444 C19.8086576,21.1830436 17.6825321,22.6960671 15.7525363,21.3328052 L12.0003959,18.6824626 L8.24825548,21.3328052 C6.32527956,22.6911086 4.1915292,21.1852502 4.81251176,18.920444 L5.9635621,14.72241 L2.89222561,12.1698107 C1.14803076,10.7202037 1.89733009,8.3318534 4.1507199,8.11562131 L8.10973581,7.73571976 L9.87315919,3.67000965 C10.762848,1.6187627 13.238608,1.61987953 14.1275393,3.67027185 L15.8900815,7.73571844 Z" id="Mask" fill="currentColor" fill-rule="nonzero"></path>
        </g>
    </g>
</svg>
