<svg fill="none" height="24" viewBox="0 0 24 24" width="24" xmlns="http://www.w3.org/2000/svg"><g fill="currentColor"><path clip-rule="evenodd" d="m23 17c0-2.7614-2.2386-5-5-5s-5 2.2386-5 5 2.2386 5 5 5 5-2.2386 5-5zm-5.8277-2.7639c.0481-.4144.4003-.7361.8277-.7361.4602 0 .8333.3731.8333.8333v1.8334h1.8334l.0972.0056c.4144.0481.7361.4003.7361.8277 0 .4602-.3731.8333-.8333.8333h-1.8334v1.8334l-.0056.0972c-.0481.4144-.4003.7361-.8277.7361-.4602 0-.8333-.3731-.8333-.8333v-1.8334h-1.8334l-.0972-.0056c-.4144-.0481-.7361-.4003-.7361-.8277 0-.4602.3731-.8333.8333-.8333h1.8334v-1.8334z" fill-rule="evenodd"/><path d="m14.5383 2.09985h-5.07738c-1.01727 0-1.8355-.00001-2.49759.05408-.68098.05564-1.27567.17296-1.82478.45274-.87495.44582-1.58631 1.15717-2.03212 2.03213-.27978.5491-.3971 1.1438-.45274 1.82477-.05409.66209-.05409 1.48031-.05408 2.49757v6.07736c-.00001 1.0173-.00001 1.8355.05408 2.4976.05564.681.17296 1.2757.45274 1.8248.44581.875 1.15717 1.5863 2.03212 2.0321.54911.2798 1.1438.3971 1.82478.4528.66209.0541 1.48031.0541 2.49758.0541h1.95709c.4971 0 .9-.403.9-.9 0-.4971-.4029-.9-.9-.9h-1.91839c-1.06495 0-1.80953-.0007-2.3897-.0481-.56967-.0466-.90111-.1336-1.15417-.2626-.53626-.2732-.97226-.7092-1.2455-1.2455-.12894-.253-.21598-.5845-.26253-1.1541-.0474-.5802-.0481-1.3248-.0481-2.3897v-6.00005c0-1.06494.0007-1.80953.0481-2.3897.04655-.56966.13359-.90111.26253-1.15417.27324-.53626.70924-.97225 1.2455-1.24549.25306-.12895.5845-.21599 1.15417-.26253.58017-.04741 1.32475-.04811 2.3897-.04811h4.99999c1.065 0 1.8095.0007 2.3897.04811.5697.04654.9011.13358 1.1542.26253.5362.27324.9722.70923 1.2455 1.24549.1289.25306.216.58451.2625 1.15417.0474.58017.0481 1.32476.0481 2.3897v.71023c0 .49702.403.90002.9.90002.4971 0 .9-.403.9-.90001v-.74893c0-1.01728 0-1.83549-.0541-2.49759-.0556-.68097-.1729-1.27567-.4527-1.82477-.4458-.87496-1.1572-1.58631-2.0321-2.03213-.5491-.27978-1.1438-.3971-1.8248-.45274-.6621-.05409-1.4803-.05408-2.4976-.05408z"/><path d="m8.2496 5.74988h-1c-.41421 0-.75.33578-.75.75v1c0 .41421.33579.75.75.75h1c.41422 0 .75-.33579.75-.75v-1c0-.41422-.33578-.75-.75-.75z"/><path d="m8.2496 10.7499h-1c-.41421 0-.75.3358-.75.75v1c0 .4142.33579.75.75.75h1c.41422 0 .75-.3358.75-.75v-1c0-.4142-.33578-.75-.75-.75z"/><path d="m7.2496 15.7499h1c.41422 0 .75.3358.75.75v1c0 .4142-.33578.75-.75.75h-1c-.41421 0-.75-.3358-.75-.75v-1c0-.4142.33579-.75.75-.75z"/><path d="m15.7496 5.74988h1c.4142 0 .75.33578.75.75v1c0 .41421-.3358.75-.75.75h-1c-.4142 0-.75-.33579-.75-.75v-1c0-.41422.3358-.75.75-.75z"/></g></svg>
