<svg xmlns="http://www.w3.org/2000/svg" width="24" height="24" fill="currentColor" viewBox="0 0 24 24"><path fill-rule="evenodd" d="M15.527 3.473c.042.455-.026.991-.17 1.578l-.002.004-.953 3.772 2.078.435c1.132.197 2.144.749 2.441 1.833.28 1.022-.209 2.09-.959 3.007l-.006.008-5.685 6.656-.01.01c-.387.425-.782.772-1.173.984-.36.195-.955.396-1.524.062-.548-.323-.684-.922-.712-1.328-.032-.448.04-.976.182-1.552l.885-3.822-2.137-.384H7.78c-1.092-.191-2.18-.714-2.609-1.75-.45-1.09.014-2.262.949-3.3l.007-.009.007-.007C6.9 8.857 7.45 8.264 7.789 7.889c.392-.435.854-.919 1.373-1.464l.472-.495c.72-.757 1.549-1.64 2.492-2.705.366-.42.75-.765 1.138-.98.363-.2.943-.393 1.507-.084.556.304.717.89.756 1.312Zm-1.826.7c-.07.07-.143.149-.221.238l-.005.005A103.39 103.39 0 0 1 10.94 7.17l-.487.511c-.515.54-.953 1-1.326 1.413-.351.39-.911.992-1.675 1.803-.74.824-.674 1.261-.616 1.401.08.192.405.517 1.257.665h.004l2.752.495a1.21 1.21 0 0 1 .963 1.472l-1.028 4.438a5.832 5.832 0 0 0-.094.446c.073-.07.15-.15.233-.24l5.653-6.619c.626-.768.655-1.22.61-1.384-.026-.095-.174-.392-1.025-.537l-.017-.003-2.697-.565a1.21 1.21 0 0 1-.942-1.472l.002-.01 1.104-4.367c.04-.166.07-.313.09-.444Z" clip-rule="evenodd"/></svg>
