<svg xmlns="http://www.w3.org/2000/svg" width="24" height="24" fill="currentColor" viewBox="0 0 24 24"><path fill-rule="evenodd" d="M8.057 4.813c-.04-.009-.09-.013-.446-.013-.812 0-1.37 0-1.803.034-.423.033-.652.094-.818.173a2.1 2.1 0 0 0-.983.983c-.08.166-.14.395-.173.818-.033.433-.034.99-.034 1.803V14.3c0 .855 0 1.442.038 1.897.036.445.103.684.19.856a2.1 2.1 0 0 0 .919.918c.172.088.411.155.856.191.455.037 1.042.038 1.897.038h8.6c.855 0 1.442 0 1.897-.038.445-.036.684-.103.856-.19a2.1 2.1 0 0 0 .918-.919c.088-.172.155-.411.191-.856.037-.455.038-1.042.038-1.897v-3.4c0-.855 0-1.442-.038-1.897-.036-.445-.103-.684-.19-.856a2.1 2.1 0 0 0-.919-.918c-.172-.088-.411-.155-.856-.191C17.742 7 17.155 7 16.3 7h-4.456c-.274 0-.536 0-.794-.056a2.401 2.401 0 0 1-.646-.244c-.23-.127-.427-.301-.633-.482l-.045-.04-1.153-1.015c-.267-.235-.308-.265-.343-.285a.6.6 0 0 0-.173-.065ZM7.669 3c.26 0 .51 0 .755.05.244.051.478.14.694.262.218.124.405.289.6.461l.044.039 1.153 1.014c.28.247.323.278.36.299a.6.6 0 0 0 .162.061c.042.01.095.014.469.014h4.432c.808 0 1.469 0 2.006.044.556.045 1.058.142 1.526.381a3.9 3.9 0 0 1 1.705 1.704c.239.47.336.971.381 1.527.044.537.044 1.198.044 2.006v3.476c0 .808 0 1.469-.044 2.006-.045.556-.142 1.058-.381 1.526a3.9 3.9 0 0 1-1.704 1.705c-.47.239-.971.336-1.527.381-.537.044-1.198.044-2.006.044H7.662c-.808 0-1.469 0-2.006-.044-.556-.045-1.058-.142-1.527-.381a3.9 3.9 0 0 1-1.704-1.704c-.239-.47-.336-.971-.381-1.527C2 15.807 2 15.146 2 14.338V8.575c0-.767 0-1.395.04-1.907.04-.528.128-1.007.345-1.457A3.9 3.9 0 0 1 4.21 3.385c.45-.217.929-.304 1.457-.345C6.18 3 6.808 3 7.575 3h.094Z" clip-rule="evenodd"/></svg>
