<svg xmlns="http://www.w3.org/2000/svg" width="24" height="24" fill="currentColor" viewBox="0 0 24 24"><path fill-rule="evenodd" d="M8.424 3.05C8.18 3 7.93 3 7.67 3h-.094c-.767 0-1.395 0-1.907.04-.528.04-1.007.128-1.457.345A3.9 3.9 0 0 0 2.385 5.21c-.217.45-.304.929-.345 1.457C2 7.18 2 7.808 2 8.575v5.763c0 .808 0 1.469.044 2.006.045.556.142 1.058.381 1.527a3.9 3.9 0 0 0 1.704 1.704c.47.239.971.336 1.527.381C6.193 20 6.854 20 7.662 20h8.676c.808 0 1.469 0 2.006-.044.556-.045 1.058-.142 1.526-.381a3.9 3.9 0 0 0 1.705-1.704c.239-.47.336-.971.381-1.527.044-.537.044-1.198.044-2.006v-3.476c0-.808 0-1.469-.044-2.006-.045-.556-.142-1.058-.381-1.527a3.9 3.9 0 0 0-1.704-1.704c-.47-.239-.971-.336-1.527-.381-.537-.044-1.198-.044-2.006-.044h-4.432c-.374 0-.427-.005-.469-.014a.6.6 0 0 1-.161-.06c-.038-.022-.08-.053-.361-.3L9.718 3.773c-.195-.172-.382-.337-.6-.46a2.4 2.4 0 0 0-.694-.262ZM7.611 4.8c.356 0 .406.004.446.013a.6.6 0 0 1 .173.065c.035.02.076.05.343.285L9.77 6.218c.206.181.403.355.633.482a2.4 2.4 0 0 0 .646.244c.258.057.52.056.794.056H16.3c.855 0 1.442 0 1.897.038.445.036.684.103.856.19a2.1 2.1 0 0 1 .918.919c.088.172.155.411.191.856l.014.197H3.8v-.589c0-.812 0-1.37.034-1.803.033-.423.094-.652.173-.818a2.1 2.1 0 0 1 .983-.983c.166-.08.395-.14.818-.173.433-.033.99-.034 1.803-.034ZM3.8 11v3.3c0 .855 0 1.442.038 1.897.036.445.103.684.19.856a2.1 2.1 0 0 0 .919.918c.172.088.411.155.856.191.455.037 1.042.038 1.897.038h8.6c.855 0 1.442 0 1.897-.038.445-.036.684-.103.856-.19a2.1 2.1 0 0 0 .918-.919c.088-.172.155-.411.191-.856.037-.455.038-1.042.038-1.897V11H3.8Z" clip-rule="evenodd"/></svg>
