<svg width="24" height="24" fill="none" xmlns="http://www.w3.org/2000/svg"><path fill-rule="evenodd" clip-rule="evenodd" d="M9.53 3.053A2.703 2.703 0 0 0 8.886 3H6.065c-.53 0-.981 0-1.352.03-.389.032-.768.102-1.13.286a2.9 2.9 0 0 0-1.267 1.267c-.184.362-.254.741-.286 1.13C2 6.083 2 6.535 2 7.065v8.87c0 .53 0 .981.03 1.352.032.39.102.768.286 1.13a2.9 2.9 0 0 0 1.267 1.267c.362.184.741.254 1.13.286.37.03.822.03 1.352.03h11.87c.53 0 .981 0 1.352-.03.389-.032.768-.102 1.13-.286a2.9 2.9 0 0 0 1.267-1.267c.184-.362.254-.74.286-1.13.03-.37.03-.822.03-1.351V9.064c0-.53 0-.981-.03-1.352-.032-.389-.102-.768-.286-1.13a2.9 2.9 0 0 0-1.268-1.267c-.361-.184-.74-.254-1.129-.286-.37-.03-.821-.03-1.351-.03H12.16a6.175 6.175 0 0 1-.276-.004.098.098 0 0 1-.018-.008 6.227 6.227 0 0 1-.2-.193l-1.062-1.063-.036-.036c-.135-.135-.295-.296-.49-.416a1.901 1.901 0 0 0-.55-.227zM8.836 4.8a6.24 6.24 0 0 1 .278.004.1.1 0 0 1 .018.008l.022.02c.037.033.085.08.177.173l1.063 1.063.035.035c.136.136.296.297.492.417.17.104.355.181.549.228.223.053.449.053.64.052h5.79c.574 0 .951 0 1.24.024.277.023.392.062.458.096a1.1 1.1 0 0 1 .481.48c.034.067.073.182.096.46.023.288.024.665.024 1.24H3.8v-2c0-.575 0-.952.024-1.24.023-.278.062-.393.096-.46a1.1 1.1 0 0 1 .48-.48c.066-.034.182-.073.46-.096.288-.023.665-.024 1.24-.024h2.737zM3.8 10.9v5c0 .575 0 .952.024 1.24.023.278.062.393.096.46a1.1 1.1 0 0 0 .48.48c.066.034.182.073.46.096.288.023.665.024 1.24.024h11.8c.575 0 .952 0 1.24-.024.278-.023.393-.062.46-.096a1.1 1.1 0 0 0 .48-.48c.034-.067.073-.182.096-.46.023-.288.024-.665.024-1.24v-5H3.8z" fill="currentColor"/></svg>
