<svg xmlns="http://www.w3.org/2000/svg" width="24" height="24" fill="currentColor" viewBox="0 0 24 24"><path fill-rule="evenodd" d="M7.611 4.8c.356 0 .406.004.446.013a.6.6 0 0 1 .173.065c.035.02.076.05.343.285l1.153 1.014.045.04c.206.182.403.356.633.483.203.112.42.194.646.244.258.057.52.056.794.056H16.3c.855 0 1.442 0 1.897.038.445.036.684.103.856.19a2.1 2.1 0 0 1 .918.919c.088.172.155.411.191.856.037.455.038 1.042.038 1.897v3.4c0 .855 0 1.442-.038 1.897-.036.445-.103.684-.19.856a2.1 2.1 0 0 1-.919.918c-.172.088-.411.155-.856.191-.455.037-1.042.038-1.897.038h-1.997a.9.9 0 1 0 0 1.8h2.035c.808 0 1.469 0 2.006-.044.556-.045 1.058-.142 1.526-.381a3.9 3.9 0 0 0 1.705-1.704c.239-.47.336-.971.381-1.527.044-.537.044-1.198.044-2.006v-3.476c0-.808 0-1.469-.044-2.006-.045-.556-.142-1.058-.381-1.527a3.9 3.9 0 0 0-1.704-1.704c-.47-.239-.971-.336-1.527-.381-.537-.044-1.198-.044-2.006-.044h-4.432c-.374 0-.427-.005-.469-.014a.6.6 0 0 1-.161-.061c-.038-.02-.08-.052-.361-.299L9.762 3.812l-.044-.039c-.195-.172-.382-.337-.6-.46a2.4 2.4 0 0 0-.694-.262C8.18 2.999 7.93 3 7.67 3h-.094c-.767 0-1.395 0-1.907.04-.528.04-1.007.128-1.457.345A3.9 3.9 0 0 0 2.385 5.21c-.217.45-.304.929-.345 1.457C2 7.18 2 7.808 2 8.575v5.328a.9.9 0 1 0 1.8 0V8.61c0-.812 0-1.37.034-1.803.033-.423.094-.652.173-.818a2.1 2.1 0 0 1 .983-.983c.166-.08.395-.14.818-.173.433-.033.99-.034 1.803-.034Zm-4.71 11.8a.9.9 0 1 0 0 1.8h6.022l-1.659 1.66a.9.9 0 0 0 1.273 1.272l3.196-3.196a.9.9 0 0 0 0-1.272l-3.191-3.2a.9.9 0 0 0-1.274 1.271l1.66 1.665H2.9Z" clip-rule="evenodd"/></svg>
