<svg width="24" height="24" viewBox="0 0 24 24" fill="none" xmlns="http://www.w3.org/2000/svg"><path d="M12.654 2.058l4.302 2.644a.35.35 0 010 .596l-4.302 2.644a.35.35 0 01-.533-.298V5.75a6.25 6.25 0 106.142 7.414.75.75 0 111.474.278A7.752 7.752 0 014.37 12a7.75 7.75 0 017.75-7.75V2.356a.35.35 0 01.533-.298zm-1.988 7.59a.35.35 0 01.029.138v4.864a.35.35 0 01-.35.35H9.75a.35.35 0 01-.35-.35V11l-.866.346a.28.28 0 01-.384-.26v-.506a.35.35 0 01.211-.321l1.845-.795a.35.35 0 01.46.183zm3.221-.25c1.208 0 2.19.695 2.188 2.8-.003 2.106-.98 2.8-2.188 2.8-1.208 0-2.19-.694-2.187-2.8.002-2.105.98-2.8 2.187-2.8zm.003 1.224c-.604 0-.94.405-.94 1.629s.33 1.63.94 1.63c.61 0 .94-.405.94-1.63 0-1.224-.336-1.63-.94-1.63z" fill="currentColor"/></svg>
