<svg fill="none" height="28" viewBox="0 0 28 28" width="28" xmlns="http://www.w3.org/2000/svg"><g fill="currentColor"><path d="m13.7082 6.11809v-2.2097c0-.07549.0209-.14951.0604-.21382.1181-.19213.3696-.25214.5617-.13405l5.0186 3.0847c.0546.03355.1005.07947.134.13405.1181.19212.0581.4436-.134.56169l-5.0186 3.08474c-.0643.0395-.1383.0604-.2138.0604-.2255 0-.4083-.1828-.4083-.4083v-2.20971c-4.02711 0-7.2917 3.26461-7.2917 7.29171 0 4.027 3.26459 7.2916 7.2917 7.2916 3.5211 0 6.5218-2.5144 7.1655-5.9333.0894-.4749.5469-.7874 1.0218-.698.4749.0895.7874.5469.698 1.0218-.7987 4.2423-4.5187 7.3595-8.8853 7.3595-4.9936 0-9.0417-4.0481-9.0417-9.0416 0-4.9936 4.0481-9.04171 9.0417-9.04171z"/><path clip-rule="evenodd" d="m15.6 12c1.4359 0 2.6034.8184 2.6 3.3-.0035 2.4816-1.1641 3.3-2.6 3.3s-2.6025-.8184-2.6-3.3 1.1641-3.3 2.6-3.3zm.003 1.4418c-.7182 0-1.1173.4774-1.1173 1.92s.3927 1.92 1.1173 1.92 1.1172-.4768 1.1172-1.92-.3991-1.92-1.1172-1.92z" fill-rule="evenodd"/><path d="m10.4735 18.0837c0 .2299.1847.4163.4125.4163h.7014c.2279 0 .4126-.1864.4126-.4163v-5.667c0-.298-.3013-.4995-.5733-.3834l-2.17484.9281c-.15266.0652-.25186.2162-.25186.3834v.5787c0 .2347.23421.3958.45073.3099l1.02277-.4053z"/></g></svg>