<svg width="24" height="24" viewBox="0 0 24 24" fill="none" xmlns="http://www.w3.org/2000/svg">
<path d="M17.1231 4.20001C20.0274 4.20001 21.9537 6.03509 23.0158 9.07553C23.7255 11.1072 24 13.4728 24 15.8143C24 19.2213 23.1631 20.5714 20.6096 20.5714C19.3559 20.5714 18.4952 19.778 16.972 17.8119C15.7533 16.2391 15.2902 15.75 15.1308 15.75H8.86923C8.67378 15.75 8.03443 16.366 6.83533 17.8148L6.81902 17.8345C5.03705 19.9878 4.43474 20.5714 3.39038 20.5714C0.836887 20.5714 0 19.2213 0 15.8143C0 13.4728 0.274526 11.1072 0.984243 9.07553C2.04635 6.03509 3.97265 4.20001 6.87692 4.20001H17.1231ZM17.1231 6.00001H6.87692C3.26947 6.00001 1.8 10.2066 1.8 15.8143C1.8 18.3538 2.05888 18.7714 3.39038 18.7714C3.58155 18.7714 4.21608 18.1565 5.43231 16.6869L5.44864 16.6672C7.19929 14.5519 7.82403 13.95 8.86923 13.95H15.1308C16.1958 13.95 16.5317 14.3047 18.3949 16.7095C19.5176 18.1586 20.1823 18.7714 20.6096 18.7714C21.9411 18.7714 22.2 18.3538 22.2 15.8143C22.2 10.2066 20.7305 6.00001 17.1231 6.00001ZM7.14 7.7143C7.45717 7.7143 7.71429 7.97141 7.71429 8.28858L7.71371 9.4283L8.85429 9.42858C9.17145 9.42858 9.42857 9.6857 9.42857 10.0029V10.5686C9.42857 10.8858 9.17145 11.1429 8.85429 11.1429L7.71371 11.1423L7.71429 12.2829C7.71429 12.6 7.45717 12.8572 7.14 12.8572H6.57429C6.25712 12.8572 6 12.6 6 12.2829L5.99971 11.1423L4.86 11.1429C4.54283 11.1429 4.28571 10.8858 4.28571 10.5686V10.0029C4.28571 9.6857 4.54283 9.42858 4.86 9.42858L5.99971 9.4283L6 8.28858C6 7.97141 6.25712 7.7143 6.57429 7.7143H7.14ZM17.4257 11.1429C17.7429 11.1429 18 11.4 18 11.7172V12.2829C18 12.6 17.7429 12.8572 17.4257 12.8572H16.86C16.5428 12.8572 16.2857 12.6 16.2857 12.2829V11.7172C16.2857 11.4 16.5428 11.1429 16.86 11.1429H17.4257ZM15.7114 9.42858C16.0286 9.42858 16.2857 9.6857 16.2857 10.0029V10.5686C16.2857 10.8858 16.0286 11.1429 15.7114 11.1429H15.1457C14.8285 11.1429 14.5714 10.8858 14.5714 10.5686V10.0029C14.5714 9.6857 14.8285 9.42858 15.1457 9.42858H15.7114ZM19.14 9.42858C19.4572 9.42858 19.7143 9.6857 19.7143 10.0029V10.5686C19.7143 10.8858 19.4572 11.1429 19.14 11.1429H18.5743C18.2571 11.1429 18 10.8858 18 10.5686V10.0029C18 9.6857 18.2571 9.42858 18.5743 9.42858H19.14ZM17.4257 7.7143C17.7429 7.7143 18 7.97141 18 8.28858V8.8543C18 9.17147 17.7429 9.42858 17.4257 9.42858H16.86C16.5428 9.42858 16.2857 9.17147 16.2857 8.8543V8.28858C16.2857 7.97141 16.5428 7.7143 16.86 7.7143H17.4257Z" fill="currentColor"/>
</svg>
