<svg height="20" viewBox="0 0 20 20" width="20" xmlns="http://www.w3.org/2000/svg"><g fill="none" fill-rule="evenodd" transform="translate(-2 -2)"><path d="m0 0h24v24h-24z" fill="none"/><path d="m12.7225011 2.21249978c1.2078568.03759866 1.9932967.7021424 2.4074206 1.95490372l.0655913.21423337.0507435.191799c.0184678.07387125.0414507.15251915.0684086.2342003l.0573349.15936383.034.017.0689863-.02280061.1336266-.05118556.1558606-.06782687c1.4138445-.65819802 2.5014262-.53604178 3.3870546.43718083l.125158.14482901.8201994 1.01650884c.7309093.96234268.7087552 1.99095507-.0042067 3.10117798l-.1252126.18579543-.1171219.16013817c-.0467732.06215198-.0944179.13104438-.1418684.20507558l-.0708971.1147007-.0335788.0574065.004.02.0916596.0604772.1265273.0764143.1533745.0833356c1.3891167.7088975 1.9624384 1.6411304 1.7412435 2.9361694l-.0370018.1874887-.2441049 1.0582394c-.158102.684815-.2822653 1.0090342-.7707867 1.4538812-.4745708.4321436-1.0160422.6105326-1.7315644.6697194l-.2199853.0143146-.1982981.0062976c-.0769288.0013914-.1596139.0061746-.2461879.0142095l-.1808758.0214531.0131473.1423928.0133477.0957969.0322717.1787336c.3232826 1.5256701-.0403954 2.557898-1.1878974 3.2019004l-.1692715.0893707-1.1749605.570513c-1.1020967.4956962-2.0993622.2427224-3.0207487-.7017121l-.1528668-.1637983-.1296871-.1501433c-.0505587-.0601761-.1075982-.1227423-.1697617-.186266l-.0969186-.0958245-.0496544-.0459632-.0916607.0872129-.1050047.1080254-.1176693.1328154c-.9524817 1.1336663-1.95776493 1.5406183-3.17622792 1.0666982l-.17553366-.0737119-1.05141354-.510995-.31232827-.1598126c-.47606094-.2599815-.74321227-.5089824-1.00427481-1.0602633-.27483841-.5803711-.29330223-1.1504312-.16006976-1.8831706l.04441595-.2248752c.01590893-.0750791.02981923-.1565057.04144845-.2424404l.01831826-.1714829-.004-.004-.10367748-.0138818-.14649375-.0131437-.1738925-.0076371c-1.55929005-.0282042-2.48325222-.6147619-2.85261709-1.8777226l-.04900235-.1850371-.29158221-1.2731838c-.23507367-1.1853574.23575232-2.1001564 1.36324786-2.7854762l.19398775-.1121023.17546839-.0925883c.06877172-.0350958.14124659-.0757965.21579412-.1211487l.15476726-.1010784.004-.019-.06254931-.107887-.08080974-.1251762-.10198526-.14311958c-.93776962-1.24610155-1.04440373-2.33531468-.27658088-3.40393438l.11564234-.15253458.82376664-1.01362017c.78934859-.91501947 1.80008944-1.10721001 3.03428441-.64065643l.20776853.08384742.18098978.08126788c.06809269.03169972.14260051.06292468.22188611.09301718l.13558738.04779586.036-.017.03362649-.08864349.04508246-.13794684.04603455-.1659738c.35911826-1.43647305 1.08426487-2.24292621 2.3893504-2.35111018l.1904091-.01069736zm-.0560041 1.79912855h-1.332994l-.1394077.01021485c-.2860612.03724871-.4729201.19165064-.6526931.83167152l-.0414022.1564853-.056466.20576182c-.1049586.35251379-.2636238.7492-.46794445 1.13433725-.40452518.14496239-.78895363.33213572-1.14735886.55811202-.42171752-.08549325-.82383422-.2108895-1.15940417-.34958723l-.35001128-.1549285c-.24890606-.1066181-.43534008-.1610104-.58307765-.17424534l-.08418918-.00309063c-.17761336.00371367-.2948866.07666054-.40817667.19260428l-.06794692.07451599-.78913476.97223625-.09471095.12536749c-.18339918.26432053-.21083337.50001978.19486728 1.07539905l.22819463.31582157c.21190397.30973024.42438591.6914863.59787623 1.10142208-.12942457.3842775-.22099544.7859607-.27006421 1.2014104-.33386817.2890145-.68963697.5366556-1.01364959.7207393l-.34226323.1830902c-.61687099.3393-.69553706.5631714-.64656946.881138l.01337902.0751426.28029276 1.2204151.04048104.1518172c.09537561.3072525.26421898.4739819.96739829.5085243l.38734168.0144945c.37094492.0233494.79796287.0898543 1.22309259.2038819.22477154.3490078.48474916.6731982.77614715.9673959.01660502.5266629-.03208631 1.0399732-.11796794 1.445275-.20110366.94907-.01389239 1.1019764.38349354 1.2994178l1.12608378.5476425c.11932477.0536694.22596006.0898267.33677617.0884725l.06712632-.0056123c.18106119-.0276385.38146284-.1617919.67030564-.4847056l.257796-.2949144c.2567075-.2787412.5846109-.5744102.9485128-.8369534l.2979533.0221431.3018171.0074593.3018426-.0075617.298132-.02286c.3637318.2632259.6916068.5590088.9483095.8377689l.2577951.2949182c.3249481.3632779.537963.4876561.737432.4903179l.0661229-.0035699c.0585699-.0068262.1169103-.0232028.1775806-.0460838l.0930726-.0388188 1.1260838-.5476425.1388199-.0735949c.2993014-.1745132.4206394-.3953867.2446737-1.2258229-.0858817-.4053018-.134573-.9186121-.1167344-1.4451187.2901644-.294354.550142-.6185444.7751688-.9692175.4254739-.1127141.8522731-.1789416 1.2229789-.2022322l.3872001-.0144789c.8113608-.0398566.9113275-.2557018 1.0078794-.6603415l.2635036-1.1413596c.0906021-.4060132.0953729-.6438361-.6164013-1.0353361l-.3422826-.1831053c-.3240408-.1841219-.6798037-.4318936-1.0134155-.7215188-.0492835-.4146551-.1408544-.8163383-.2707974-1.2014475.1739224-.40924269.3864763-.79088324.5983923-1.10059423l.228197-.31581772c.4057007-.57537927.3782665-.81107852.1948673-1.07539905l-.0449654-.06167276-.7869202-.97402955c-.1408867-.17139315-.2591052-.29409388-.4520405-.32276586l-.0760432-.00625584c-.159852-.00334231-.3685796.04939426-.6672668.17733597l-.3498777.15486725c-.3353275.13857809-.7371029.26371776-1.1583875.34808017-.3597676-.22459259-.7450521-.41212701-1.150494-.5556387-.19456-.37045576-.3483141-.75097585-.4531232-1.09272491l-.1134709-.41457268c-.191838-.67738652-.3922756-.8043965-.7131081-.82821087zm-.666497 4.18837167c2.098682 0 3.8 1.70131795 3.8 3.8 0 2.098682-1.701318 3.8-3.8 3.8-2.09868205 0-3.8-1.701318-3.8-3.8 0-2.09868205 1.70131795-3.8 3.8-3.8zm0 1.8c-1.1045695 0-2 .8954305-2 2s.8954305 2 2 2 2-.8954305 2-2-.8954305-2-2-2z" fill="currentColor" fill-rule="nonzero"/></g></svg>
