<svg fill="none" height="24" viewBox="0 0 24 24" width="24" xmlns="http://www.w3.org/2000/svg"><path d="m12.7225 2.21251c1.2079.0376 1.9933.70214 2.4074 1.9549l.0656.21424.0508.1918c.0184.07387.0414.15252.0684.2342l.0573.15936.034.017.069-.0228.1336-.05119.1559-.06782c1.4138-.6582 2.5014-.53604 3.387.43718l.1252.14483.8202 1.01651c.7309.96234.7087 1.99095-.0042 3.10117l-.1252.1858-.1172.16014c-.0467.06215-.0944.13107-.1418.20507l-.0709.1147-.0336.0574.004.02.0917.0605.1265.0764.1534.0833c1.3891.7089 1.9624 1.6412 1.7412 2.9362l-.037.1875-.2441 1.0582c-.1581.6849-.2823 1.0091-.7708 1.4539-.4746.4322-1.016.6105-1.7316.6697l-.2199.0144-.1983.0062c-.077.0014-.1597.0062-.2462.0143l-.1809.0214.0131.1424.0134.0958.0323.1787c.3232 1.5257-.0404 2.5579-1.1879 3.2019l-.1693.0894-1.175.5705c-1.1021.4957-2.0993.2427-3.0207-.7017l-.1529-.1638-.1297-.1501c-.0505-.0602-.1076-.1228-.1697-.1863l-.0969-.0958-.0497-.046-.0917.0872-.105.108-.1176.1329c-.9525 1.1336-1.9578 1.5406-3.17627 1.0667l-.17553-.0737-1.05141-.511-.31233-.1599c-.47606-.2599-.74321-.5089-1.00428-1.0602-.27483-.5804-.2933-1.1505-.16007-1.8832l.04442-.2249c.01591-.075.02982-.1565.04145-.2424l.01832-.1715-.004-.004-.10368-.0139-.14649-.0131-.1739-.0077c-1.55929-.0282-2.48325-.6147-2.85261-1.8777l-.04901-.185-.29158-1.2732c-.23507-1.1854.23575-2.1002 1.36325-2.7855l.19399-.1121.17547-.0926c.06877-.0351.14124-.0758.21579-.1211l.15477-.1011.004-.019-.06255-.1079-.08081-.1252-.10199-.14307c-.93777-1.2461-1.0444-2.33532-.27658-3.40394l.11564-.15253.82377-1.01362c.78935-.91502 1.80009-1.10721 3.03429-.64066l.20776.08385.18099.08127c.0681.0317.1426.06292.22189.09301l.13559.0478.036-.017.03362-.08864.04509-.13795.04603-.16597c.35912-1.43648 1.08427-2.24293 2.38936-2.35111l.1904-.0107zm-.056 1.79913h-1.333l-.1394.01021c-.2861.03725-.4729.19165-.6527.83168l-.0414.15648-.0565.20576c-.1049.35252-.2636.7492-.46791 1.13434-.40453.14496-.78896.33214-1.14736.55811-.42172-.08549-.82384-.21089-1.15941-.34959l-.35001-.15492c-.2489-.10662-.43534-.16101-.58308-.17425l-.08418-.00309c-.17762.00371-.29489.07666-.40818.1926l-.06795.07452-.78913.97224-.09471.12536c-.1834.26433-.21084.50002.19486 1.0754l.2282.31582c.2119.30973.42438.69149.59787 1.10139-.12942.3843-.22099.786-.27006 1.2014-.33387.2891-.68964.5367-1.01365.7208l-.34226.1831c-.61687.3393-.69554.5631-.64657.8811l.01338.0752.28029 1.2204.04048.1518c.09538.3072.26422.474.9674.5085l.38734.0145c.37095.0234.79796.0899 1.22309.2039.22477.349.48475.6732.77615.9674.01661.5266-.03209 1.04-.11797 1.4453-.2011.949-.01389 1.1019.3835 1.2994l1.12608.5476c.11932.0537.22596.0898.33678.0885l.06712-.0056c.18106-.0277.38147-.1618.67029-.4847l.2578-.2949c.2567-.2788.5846-.5744.9485-.837l.298.0222.3018.0074.3018-.0076.2982-.0228c.3637.2632.6916.559.9483.8378l.2578.2949c.3249.3633.5379.4876.7374.4903l.0661-.0036c.0586-.0068.1169-.0232.1776-.0461l.0931-.0388 1.1261-.5476.1388-.0736c.2993-.1745.4206-.3954.2447-1.2258-.0859-.4053-.1346-.9187-.1168-1.4452.2902-.2943.5502-.6185.7752-.9692.4255-.1127.8523-.1789 1.223-.2022l.3872-.0145c.8113-.0398.9113-.2557 1.0079-.6603l.2635-1.1414c.0906-.406.0953-.6438-.6164-1.0353l-.3423-.1831c-.3241-.1842-.6798-.4319-1.0134-.7215-.0493-.4147-.1409-.8164-.2708-1.2015.1739-.40924.3864-.79088.5984-1.10059l.2281-.31582c.4058-.57538.3783-.81107.1949-1.0754l-.0449-.06167-.787-.97403c-.1409-.17139-.2591-.29409-.452-.32276l-.0761-.00626c-.1598-.00334-.3685.04939-.6672.17734l-.3499.15486c-.3353.13858-.7371.26372-1.1584.34808-.3598-.22459-.745-.41212-1.1505-.55563-.1945-.37046-.3483-.75098-.4531-1.09273l-.1135-.41457c-.1918-.67739-.3922-.8044-.7131-.82821zm-.6665 4.18837c2.0987 0 3.8 1.70132 3.8 3.79999 0 2.0987-1.7013 3.8-3.8 3.8-2.09869 0-3.8-1.7013-3.8-3.8 0-2.09867 1.70131-3.79999 3.8-3.79999zm0 1.79999c-1.1046 0-2 .8954-2 2s.8954 2 2 2 2-.8954 2-2-.8954-2-2-2z" fill="currentColor"/></svg>
