<svg xmlns="http://www.w3.org/2000/svg" width="24" height="24" fill="currentColor" viewBox="0 0 24 24"><path d="M12 2c2.405 0 4.391.844 6.22 2.58C19.998 6.265 21 8.568 21 10.977l-.015 7.113c-.126 1.742-1.358 3.035-3.05 3.035-.644 0-1.09-.148-1.684-.468l-.309-.163c-.182-.088-.28-.103-.428-.077-.096.016-.208.077-.399.227l-.429.356c-.816.667-1.57 1-2.686 1-1.112 0-1.877-.334-2.694-.997l-.481-.395c-.165-.127-.263-.178-.34-.191-.172-.03-.276-.005-.526.127l-.21.113c-.595.32-1.04.468-1.684.468-1.687 0-2.97-1.289-3.052-3.099L3 10.976C3 8.567 4.003 6.264 5.78 4.58 7.565 2.884 9.623 2 12 2Zm0 1.818c-1.892 0-3.507.694-4.967 2.08C5.616 7.242 4.82 9.07 4.82 10.974l.012 7.009c.038.82.54 1.324 1.233 1.324.285 0 .467-.06.82-.25l.132-.072.284-.145c.494-.23.933-.311 1.493-.215.42.072.763.251 1.142.543.121.093.502.411.517.423l.152.12c.447.334.819.47 1.395.47.64 0 1.015-.165 1.533-.588l.453-.375c.408-.322.768-.515 1.22-.593.63-.108 1.108.008 1.68.308l.37.197c.266.133.435.177.68.177.685 0 1.173-.512 1.23-1.284l.014-7.048c0-1.905-.796-3.733-2.213-5.077-1.5-1.424-3.044-2.08-4.967-2.08Zm-1.654 10.33.085.065c.072.063.237.18.468.301.9.47 1.784.47 2.67-.301a.878.878 0 0 1 1.211.062.81.81 0 0 1-.064 1.17c-1.494 1.302-3.15 1.302-4.631.528a4.258 4.258 0 0 1-.801-.528.81.81 0 0 1-.064-1.17.878.878 0 0 1 1.126-.127ZM8.5 9a1.5 1.5 0 1 1 0 3 1.5 1.5 0 0 1 0-3Zm5.796 1.102c.918-.444 1.977-.444 2.91.309a.74.74 0 0 1 .066 1.125.962.962 0 0 1-1.255.06l-.09-.066c-.264-.176-.502-.163-.787-.025-.086.042-.144.08-.157.09l-.087.063a.964.964 0 0 1-1.168-.122.74.74 0 0 1 .066-1.125c.11-.09.28-.2.502-.309Z"/></svg>
