<svg width="24" height="24" viewBox="0 0 24 24" fill="none" xmlns="http://www.w3.org/2000/svg">
<path fill-rule="evenodd" clip-rule="evenodd" d="M11.8356 3.90161C11.2748 4.88109 10.5785 6.32541 10.1065 8.09998H13.8934C13.4214 6.32541 12.7251 4.88108 12.1644 3.90161C12.1097 3.90052 12.0549 3.89998 12 3.89998C11.945 3.89998 11.8902 3.90052 11.8356 3.90161ZM14.3794 4.25492C14.8775 5.29628 15.3884 6.59887 15.7477 8.09998H19.101C18.0959 6.27383 16.4069 4.87704 14.3794 4.25492ZM19.8251 9.89998H16.0833C16.2572 11.2009 16.2967 12.6113 16.1202 14.1H19.8251C20.0044 13.4302 20.1 12.7262 20.1 12C20.1 11.2737 20.0044 10.5697 19.8251 9.89998ZM19.101 15.9H15.8047C15.5157 17.1407 15.0668 18.4241 14.4156 19.7338C16.4271 19.1062 18.1019 17.7152 19.101 15.9ZM12.1683 20.0983C13.0204 18.6621 13.591 17.2545 13.9462 15.9H10.0537C10.4089 17.2545 10.9795 18.6621 11.8317 20.0983C11.8876 20.0994 11.9437 20.1 12 20.1C12.0562 20.1 12.1123 20.0994 12.1683 20.0983ZM9.5843 19.7338C8.93316 18.424 8.48422 17.1407 8.19525 15.9H4.89903C5.89811 17.7152 7.57289 19.1062 9.5843 19.7338ZM4.1749 14.1H7.8797C7.70321 12.6113 7.74273 11.2009 7.91663 9.89998H4.1749C3.9956 10.5697 3.9 11.2737 3.9 12C3.9 12.7262 3.9956 13.4302 4.1749 14.1ZM4.89903 8.09998H8.25227C8.61152 6.59888 9.12245 5.2963 9.62053 4.25495C7.59301 4.87708 5.9041 6.27386 4.89903 8.09998ZM9.73424 9.89998C9.54352 11.1897 9.49799 12.6022 9.69831 14.1H14.3016C14.5019 12.6022 14.4564 11.1897 14.2657 9.89998H9.73424ZM11.2396 2.12879C11.4907 2.10969 11.7443 2.09998 12 2.09998C12.2557 2.09998 12.5092 2.10969 12.7603 2.12878C17.8731 2.51758 21.9 6.78809 21.9 12C21.9 17.2134 17.8708 21.4849 12.7558 21.8715C12.5062 21.8904 12.2541 21.9 12 21.9C11.7458 21.9 11.4938 21.8904 11.2441 21.8715C6.12918 21.4848 2.1 17.2134 2.1 12C2.1 6.78812 6.12681 2.51763 11.2396 2.12879Z" fill="currentColor"/>
</svg>
