<svg fill="none" height="24" viewBox="0 0 24 24" width="24" xmlns="http://www.w3.org/2000/svg"><path clip-rule="evenodd" d="m3.90001 12c0-.7263.09559-1.4303.27487-2.10002h4.05068c-.08006.67122-.12555 1.37272-.12555 2.10002s.04549 1.4287.12555 2.1h-4.05068c-.17928-.6698-.27487-1.3737-.27487-2.1zm4.63175 3.9h-3.63277c1.04205 1.8933 2.81929 3.325 4.94709 3.9105-.47584-1.0394-.97282-2.3659-1.31432-3.9105zm5.62214 3.9105c2.1278-.5855 3.9051-2.0172 4.9471-3.9105h-3.6327c-.3416 1.5446-.8385 2.8711-1.3144 3.9105zm-.5339-3.9105c-.4428 1.8029-1.1071 3.253-1.62 4.1982-.5129-.9452-1.1772-2.3953-1.62-4.1982zm.3402-1.8h-3.9204c-.08863-.6682-.13979-1.37-.13979-2.1s.05116-1.4319.13979-2.10002h3.9204c.0886.66812.1398 1.37002.1398 2.10002s-.0512 1.4318-.1398 2.1zm1.8143 0h4.0506c.1793-.6698.2749-1.3737.2749-2.1s-.0956-1.4303-.2749-2.10002h-4.0507c.0801.67122.1256 1.37272.1256 2.10002s-.0455 1.4287-.1255 2.1zm-.3063-6.00002h3.6328c-1.042-1.89333-2.8193-3.32503-4.9471-3.9105.4758 1.03937.9728 2.36584 1.3143 3.9105zm-5.62209-3.9105c-2.12781.58547-3.90506 2.01717-4.94712 3.9105h3.63278c.34151-1.54466.8385-2.87113 1.31434-3.9105zm.53389 3.9105h3.24c-.4428-1.80288-1.1071-3.25294-1.62-4.19818-.5129.94524-1.1772 2.3953-1.62 4.19818zm1.62-6c-5.46761 0-9.89999 4.43238-9.89999 9.90002 0 5.4676 4.43238 9.9 9.89999 9.9 5.4676 0 9.9-4.4324 9.9-9.9 0-5.46764-4.4324-9.90002-9.9-9.90002z" fill="currentColor" fill-rule="evenodd"/></svg>
