<svg xmlns="http://www.w3.org/2000/svg" width="24" height="24" fill="currentColor" viewBox="0 0 24 24"><path fill-rule="evenodd" d="M16.159 2.985h1.492c.24 0 .517 0 .759.02.278.022.665.08 1.068.285A2.8 2.8 0 0 1 20.7 4.514c.206.403.263.79.286 1.068.02.242.02.518.02.759v.088c0 .24 0 .517-.02.76-.023.278-.08.664-.286 1.067a2.8 2.8 0 0 1-1.223 1.224c-.403.205-.79.263-1.068.285-.242.02-.519.02-.76.02h-1.536c-.24 0-.517 0-.759-.02a2.816 2.816 0 0 1-1.068-.285 2.8 2.8 0 0 1-1.223-1.224 2.816 2.816 0 0 1-.286-1.068 9.686 9.686 0 0 1-.02-.759v-.088c0-.24 0-.517.02-.76.023-.277.08-.664.286-1.067a2.8 2.8 0 0 1 1.223-1.224c.403-.205.79-.263 1.068-.285.242-.02.519-.02.76-.02h.044Zm-1.491 2.346c-.11.214-.11.494-.11 1.054s0 .84.11 1.054a1 1 0 0 0 .437.437c.213.11.493.11 1.054.11h1.447c.56 0 .84 0 1.054-.11a1 1 0 0 0 .437-.437c.11-.214.11-.494.11-1.054s0-.84-.11-1.054a1 1 0 0 0-.437-.437c-.213-.109-.494-.109-1.054-.109H16.16c-.56 0-.84 0-1.054.11a1 1 0 0 0-.437.436Zm2.938 5.869h-1.492c-.24 0-.517 0-.759.02-.278.022-.665.08-1.068.285a2.8 2.8 0 0 0-1.223 1.224c-.206.403-.263.79-.286 1.068-.02.242-.02.518-.02.759v3.091c0 .24 0 .517.02.76.023.277.08.664.286 1.067a2.8 2.8 0 0 0 1.223 1.224c.403.205.79.263 1.068.285.242.02.519.02.76.02h1.536c.24 0 .517 0 .759-.02.278-.022.665-.08 1.068-.285a2.8 2.8 0 0 0 1.223-1.224c.206-.403.263-.79.286-1.068.02-.242.02-.518.02-.759v-3.091c0-.24 0-.517-.02-.76a2.817 2.817 0 0 0-.286-1.067 2.8 2.8 0 0 0-1.223-1.224 2.815 2.815 0 0 0-1.068-.285 9.687 9.687 0 0 0-.76-.02h-.044Zm-3.047 3.4c0-.56 0-.84.109-1.054a1 1 0 0 1 .437-.437c.213-.109.493-.109 1.054-.109h1.447c.56 0 .84 0 1.054.109a1 1 0 0 1 .437.437c.11.214.11.494.11 1.054v3.003c0 .56 0 .84-.11 1.054a.999.999 0 0 1-.437.437c-.213.109-.494.109-1.054.109H16.16c-.56 0-.84 0-1.054-.11a.999.999 0 0 1-.437-.436c-.11-.214-.11-.494-.11-1.054V14.6Zm-6.704-.398H6.36c-.24 0-.517 0-.76.02-.277.023-.664.08-1.067.286a2.8 2.8 0 0 0-1.224 1.223c-.205.403-.263.79-.285 1.068-.02.242-.02.519-.02.76v.088c0 .24 0 .517.02.76.022.277.08.664.285 1.067a2.8 2.8 0 0 0 1.224 1.224c.403.205.79.263 1.068.285.242.02.518.02.759.02h1.539c.24 0 .517 0 .76-.02.277-.022.664-.08 1.067-.285a2.8 2.8 0 0 0 1.224-1.224c.205-.403.263-.79.285-1.068.02-.242.02-.519.02-.76v-.088c0-.24 0-.517-.02-.759a2.816 2.816 0 0 0-.285-1.068 2.8 2.8 0 0 0-1.224-1.223 2.817 2.817 0 0 0-1.068-.286 9.687 9.687 0 0 0-.759-.02h-.044Zm-3.051 3.4c0-.56 0-.84.109-1.054a1 1 0 0 1 .437-.437c.214-.109.494-.109 1.054-.109h1.45c.56 0 .84 0 1.055.11a1 1 0 0 1 .437.436c.109.214.109.494.109 1.055 0 .56 0 .84-.11 1.054a1 1 0 0 1-.436.437c-.214.109-.494.109-1.054.109H6.404c-.56 0-.84 0-1.054-.11a1 1 0 0 1-.437-.436c-.109-.214-.109-.494-.109-1.054Zm3.053-14.6H6.36c-.24 0-.517 0-.76.02-.277.022-.664.08-1.067.285A2.8 2.8 0 0 0 3.309 4.53c-.205.403-.263.79-.285 1.067-.02.242-.02.519-.02.76V9.44c0 .24 0 .517.02.76.022.277.08.664.285 1.067a2.8 2.8 0 0 0 1.224 1.224c.403.205.79.263 1.068.286.242.02.518.02.759.02H7.9c.24 0 .517 0 .76-.02.277-.023.664-.08 1.067-.286a2.8 2.8 0 0 0 1.224-1.224c.205-.403.263-.79.285-1.067.02-.243.02-.52.02-.76V6.357c0-.24 0-.518-.02-.76a2.815 2.815 0 0 0-.285-1.067 2.8 2.8 0 0 0-1.224-1.224A2.817 2.817 0 0 0 8.66 3.02 9.712 9.712 0 0 0 7.901 3h-.044ZM4.804 6.4c0-.56 0-.84.109-1.054a1 1 0 0 1 .437-.437c.214-.11.494-.11 1.054-.11h1.453c.56 0 .84 0 1.054.11a1 1 0 0 1 .437.437c.109.214.109.494.109 1.054v2.995c0 .56 0 .84-.109 1.054a1 1 0 0 1-.437.437c-.214.11-.494.11-1.054.11H6.404c-.56 0-.84 0-1.054-.11a1 1 0 0 1-.437-.437c-.109-.214-.109-.494-.109-1.054V6.401Z" clip-rule="evenodd"/></svg>
