<svg xmlns="http://www.w3.org/2000/svg" width="24" height="24" fill="currentColor" viewBox="0 0 24 24"><path fill-rule="evenodd" d="M10.123 3.84c-.283.24-.602.559-.977.933l-.49.49-.934-.935c-.222-.222-.449-.439-.754-.538a1.4 1.4 0 0 0-.865 0c-.215.07-.372.186-.479.276L4.066 5.624c-.09.107-.206.264-.276.479a1.4 1.4 0 0 0 0 .865c.099.305.316.533.538.754l.935.935-.49.49c-.374.374-.693.693-.934.976-.252.298-.47.615-.596 1.001a2.9 2.9 0 0 0 0 1.792c.125.387.344.704.596 1.001.24.284.56.603.934.977l1.33 1.33c.375.375.694.694.977.934.298.253.615.472 1.001.597a2.9 2.9 0 0 0 1.793 0c.386-.125.703-.344 1-.596.284-.241.603-.56.978-.935l.489-.489 5.547 5.547.016.016c.085.085.182.183.275.261.106.09.263.207.479.277a1.4 1.4 0 0 0 .865 0 1.41 1.41 0 0 0 .478-.277c.093-.078.19-.176.276-.261l1.02-1.021a4.27 4.27 0 0 0 .262-.276 1.41 1.41 0 0 0 .277-.478 1.4 1.4 0 0 0 0-.866 1.41 1.41 0 0 0-.277-.478c-.078-.093-.176-.19-.261-.275l-.016-.016-5.547-5.547.49-.49c.374-.374.693-.693.933-.976.253-.298.472-.615.597-1.001a2.9 2.9 0 0 0 0-1.793c-.125-.386-.344-.703-.596-1a17.83 17.83 0 0 0-.935-.978l-1.33-1.33a17.81 17.81 0 0 0-.977-.934c-.297-.252-.614-.47-1-.596a2.9 2.9 0 0 0-1.793 0c-.386.125-.703.344-1 .596Zm-4.912 7.448c-.18.213-.234.322-.257.392a1.1 1.1 0 0 0 0 .68c.023.07.077.18.257.392.188.22.454.488.86.894l1.28 1.28c.407.407.674.673.894.86.213.18.322.234.393.257a1.1 1.1 0 0 0 .68 0c.07-.023.18-.076.392-.257.22-.187.487-.453.894-.86l4.322-4.322c.407-.407.673-.674.86-.894.18-.213.234-.322.257-.393a1.1 1.1 0 0 0 0-.68c-.023-.07-.076-.18-.257-.392-.187-.22-.453-.487-.86-.894l-1.28-1.28a17.258 17.258 0 0 0-.894-.86c-.212-.18-.322-.234-.392-.257a1.1 1.1 0 0 0-.68 0c-.07.023-.18.077-.392.257-.22.188-.488.454-.894.86L6.07 10.394a17.68 17.68 0 0 0-.86.894Zm13.88 8.65.848-.848-5.477-5.476-.848.848 5.476 5.477ZM6.535 7.385l-.849-.848.849-.849.848.849-.848.848Z" clip-rule="evenodd"/></svg>
