<svg xmlns="http://www.w3.org/2000/svg" width="24" height="24" fill="currentColor" viewBox="0 0 24 24"><path d="M3.674 7.07a1.026 1.026 0 0 1 1.312.61l1.746 4.771c.129.353.52.535.875.406a.678.678 0 0 0 .407-.87l-2.56-7.001c-.194-.53.08-1.114.611-1.307a1.026 1.026 0 0 1 1.313.61l2.211 6.045c.13.353.521.535.875.407a.678.678 0 0 0 .408-.871l-2.56-7.001c-.194-.53.08-1.114.61-1.306a1.026 1.026 0 0 1 1.313.61l2.561 7c.13.353.52.535.875.406a.678.678 0 0 0 .408-.87L12.1 3.298a1.018 1.018 0 0 1 .612-1.306 1.026 1.026 0 0 1 1.313.61l3.376 9.231 1.236-3.04a1.227 1.227 0 0 1 1.651-.649c.577.267.855.927.638 1.523l-1.48 4.07a3.901 3.901 0 0 0-.593-.038l-.16.004-.055.003c-.62.036-1.17.22-1.64.467a4.069 4.069 0 0 0-1.893-.475c-2.26 0-3.905 1.915-3.905 4.04 0 .964.19 1.781.784 2.637l.033.047c-4.111.596-5.422-2.39-5.837-3.524L3.062 8.376a1.017 1.017 0 0 1 .612-1.306Z M15.105 15.5c.523 0 .997.188 1.426.494l.468.35.469-.35c.388-.277.813-.463 1.275-.49l.16-.005c1.159.005 2.097 1.006 2.097 2.24 0 .67-.117 1.111-.463 1.611-.383.553-1.053 1.186-2.244 2.172l-1.098.908a.303.303 0 0 1-.39 0l-1.098-.908c-1.19-.986-1.86-1.62-2.244-2.172-.346-.5-.463-.94-.463-1.611 0-1.237.943-2.24 2.105-2.24Z M3.674 7.07a1.026 1.026 0 0 1 1.312.61l1.746 4.771c.129.353.52.535.875.406a.678.678 0 0 0 .407-.87l-2.56-7.001c-.194-.53.08-1.114.611-1.307a1.026 1.026 0 0 1 1.313.61l2.211 6.045c.13.353.521.535.875.407a.678.678 0 0 0 .408-.871l-2.56-7.001c-.194-.53.08-1.114.61-1.306a1.026 1.026 0 0 1 1.313.61l2.561 7c.13.353.52.535.875.406a.678.678 0 0 0 .408-.87L12.1 3.298a1.018 1.018 0 0 1 .612-1.306 1.026 1.026 0 0 1 1.313.61l3.376 9.231 1.236-3.04a1.227 1.227 0 0 1 1.651-.649c.577.267.855.927.638 1.523l-1.48 4.07a3.901 3.901 0 0 0-.593-.038l-.16.004-.055.003c-.62.036-1.17.22-1.64.467a4.069 4.069 0 0 0-1.893-.475c-2.26 0-3.905 1.915-3.905 4.04 0 .964.19 1.781.784 2.637l.033.047c-4.111.596-5.422-2.39-5.837-3.524L3.062 8.376a1.017 1.017 0 0 1 .612-1.306Z M15.105 15.5c.523 0 .997.188 1.426.494l.468.35.469-.35c.388-.277.813-.463 1.275-.49l.16-.005c1.159.005 2.097 1.006 2.097 2.24 0 .67-.117 1.111-.463 1.611-.383.553-1.053 1.186-2.244 2.172l-1.098.908a.303.303 0 0 1-.39 0l-1.098-.908c-1.19-.986-1.86-1.62-2.244-2.172-.346-.5-.463-.94-.463-1.611 0-1.237.943-2.24 2.105-2.24Z"/></svg>
