<svg xmlns="http://www.w3.org/2000/svg" width="24" height="24" fill="currentColor" viewBox="0 0 24 24"><path fill-rule="evenodd" d="M4 8.825c0-1.283 1.02-2.411 2.394-2.411.13 0 .258.01.382.03v-.385c0-1.266 1-2.419 2.395-2.419.17 0 .336.017.494.05C9.964 2.74 10.834 2 11.949 2c1.238 0 2.187.916 2.365 2.035A2.388 2.388 0 0 1 17.122 6.4v3.151a2.377 2.377 0 0 1 1.39-.432c.989.008 1.712.6 2.114 1.222a2.4 2.4 0 0 1 .368 1.135c.021.317-.01.74-.206 1.164l-2.126 4.612c-.64 1.39-1.767 2.556-3.016 3.371C14.4 21.437 12.88 22 11.352 22h-.791c-3.68 0-6.562-3.061-6.562-6.727V8.825ZM15.321 6.4c0-.347-.266-.6-.595-.6a.593.593 0 0 0-.595.6v4.783c0 .386-.26.71-.61.795a.77.77 0 0 1-.48-.037.815.815 0 0 1-.498-.757V4.416a.604.604 0 0 0-.595-.616.605.605 0 0 0-.595.616v6.768a.824.824 0 0 1-.498.757.762.762 0 0 1-.508.03.795.795 0 0 1-.48-.388.837.837 0 0 1-.1-.4V6.056a.628.628 0 0 0-.214-.471.578.578 0 0 0-.382-.146.606.606 0 0 0-.595.617v5.534a.838.838 0 0 1-.37.69.764.764 0 0 1-.608.107.812.812 0 0 1-.61-.797V8.825a.627.627 0 0 0-.212-.467.58.58 0 0 0-.382-.144.602.602 0 0 0-.596.61v6.449c0 2.729 2.132 4.927 4.762 4.927h.791c2.201 0 4.734-1.657 5.676-3.701l2.125-4.613a.664.664 0 0 0-.04-.569c-.338-.525-.887-.532-1.225-.014l-.004.006-1.728 2.678c-.457.71-.834.596-.834-.264V6.4Z" clip-rule="evenodd"/></svg>
