<svg xmlns="http://www.w3.org/2000/svg" width="24" height="24" fill="currentColor" viewBox="0 0 24 24"><path fill-rule="evenodd" d="M11.78 3.194a.998.998 0 0 0-1.958-.391L8.782 8H6a1 1 0 0 0 0 2h2.382l-.8 4H4.5a1 1 0 1 0 0 2h2.681l-.961 4.806a.998.998 0 0 0 1.958.392L9.218 16h3.963l-.961 4.806a.998.998 0 0 0 1.958.392L15.218 16H18a1 1 0 1 0 0-2h-2.382l.8-4H19.5a1 1 0 1 0 0-2h-2.681l.961-4.806a.998.998 0 0 0-1.958-.391L14.782 8h-3.963l.961-4.806ZM14.382 10h-3.963l-.8 4h3.962l.8-4Z" clip-rule="evenodd"/></svg>
