<svg fill="none" height="24" viewBox="0 0 24 24" width="24" xmlns="http://www.w3.org/2000/svg"><path clip-rule="evenodd" d="m12.0001 3.89998c-3.92122 0-7.1 3.17878-7.1 7.10002v2.1h1.43621c.89152 0 1.2148.0928 1.54073.2671s.58172.4301.75602.756c.17431.3259.26713.6492.26713 1.5407v2.7656c0 .7795-.09282 1.1215-.26713 1.4474-.1743.3259-.43009.5817-.75602.756s-.66788.2672-1.4474.2672h-.42944c-1.60163 0-2.9-1.2984-2.9-2.9v-3.5h-.0001v-3.5c0-4.91536 3.98466-8.90002 8.9-8.90002 4.9153 0 8.9 3.98466 8.9 8.90002v2.1h.0001v4.9c0 1.6016-1.2983 2.9-2.9 2.9h-.4294c-.7795 0-1.1215-.0929-1.4474-.2672s-.5817-.4301-.756-.756-.2672-.6679-.2672-1.4474v-2.7656c0-.8915.0929-1.2148.2672-1.5407s.4301-.5817.756-.756.6492-.2671 1.5407-.2671h1.436v-2.1c0-3.92125-3.1788-7.10002-7.1-7.10002zm-5.69986 10.99992h-1.4v2.7334c0 .4346 0 .652.06642.825.10157.2646.31063.4737.57522.5752.17303.0664.39036.0664.82503.0664.21734 0 .326 0 .41252-.0332.13229-.0508.23682-.1553.2876-.2876.03321-.0865.03321-.1952.03321-.4125v-2.6667c0-.28 0-.42-.05449-.527-.04794-.094-.12443-.1705-.21851-.2185-.10696-.0545-.24697-.0545-.527-.0545zm12.79996 0h-1.4c-.28 0-.42 0-.527.0545-.0941.048-.1706.1245-.2185.2185-.0545.107-.0545.247-.0545.527v2.6667c0 .2173 0 .326.0332.4125.0508.1323.1553.2368.2876.2876.0865.0332.1952.0332.4125.0332.4347 0 .652 0 .8251-.0664.2645-.1015.4736-.3106.5752-.5752.0664-.173.0664-.3904.0664-.825z" fill="currentColor" fill-rule="evenodd"/></svg>
