<?xml version="1.0" encoding="UTF-8"?>
<svg width="24px" height="24px" viewBox="0 0 24 24" version="1.1" xmlns="http://www.w3.org/2000/svg" xmlns:xlink="http://www.w3.org/1999/xlink">
    <!-- Generator: Sketch 50.2 (55047) - http://www.bohemiancoding.com/sketch -->
    <title>headphones_24</title>
    <desc>Created with Sketch.</desc>
    <defs></defs>
    <g id="Page-2" stroke="none" stroke-width="1" fill="none" fill-rule="evenodd">
        <g id="headphones_24">
            <polygon id="Shape" points="0 0 24 0 24 24 0 24"></polygon>
            <path d="M12,2.25 C7.03,2.25 3,6.28 3,11.25 L2.99999954,18.0000003 C2.99999948,19.6568545 4.34314519,21.0000003 5.99999944,21.0000004 C5.99999952,21.0000004 5.99999959,21.0000004 5.99999967,21.0000004 L7.5,21 C8.3284271,21 8.99999994,20.3284271 8.99999994,19.5 L9,14.5 C9,13.6715729 8.32842712,13 7.5,13 L5,13 L5,11.25 C5,7.38 8.13,4.25 12,4.25 C15.87,4.25 19,7.38 19,11.25 L19,13 L16.5,13 C15.6715729,13 15,13.6715729 15,14.5 L15.0000001,19.5 C15.0000001,20.3284271 15.6715729,21 16.5,21 L18.0000003,21.0000004 C19.6568546,21.0000004 21.0000004,19.6568547 21.0000005,18.0000005 C21.0000005,18.0000004 21.0000005,18.0000003 21.0000005,18.0000003 L21,11.25 C21,6.28 16.97,2.25 12,2.25 Z" id="Mask" fill="currentColor" fill-rule="nonzero"></path>
        </g>
    </g>
</svg>
