<svg xmlns="http://www.w3.org/2000/svg" width="24" height="24" fill="currentColor" viewBox="0 0 24 24"><path d="M15.5 7.5a.9.9 0 0 1 .9.9v.7h.7a.9.9 0 1 1 0 1.8h-.7v.7a.9.9 0 1 1-1.8 0v-.7h-.7a.9.9 0 1 1 0-1.8h.7v-.7a.9.9 0 0 1 .9-.9Z"/><path fill-rule="evenodd" d="M12.111 5.7c1.128-1.057 2.43-1.63 3.88-1.694L16.267 4C19.423 4 22 6.56 22 9.717c0 2.959-1.035 4.427-5.573 8.061l-.933.74-2.364 1.843a1.838 1.838 0 0 1-2.26 0l-2.688-2.098C3.127 14.269 2 12.805 2 9.717 2 6.56 4.577 4 7.734 4c1.54 0 2.929.576 4.138 1.695l.122.118.117-.113ZM20.2 9.717c0-2.16-1.769-3.917-3.934-3.917-1.357 0-2.527.616-3.564 1.908a.9.9 0 0 1-1.398.007C10.24 6.418 9.067 5.8 7.734 5.8 5.57 5.8 3.8 7.557 3.8 9.717c0 2.25.797 3.38 4.939 6.69l.874.691 2.364 1.843c.014.01.032.01.046 0l2.663-2.078c4.447-3.511 5.433-4.696 5.51-6.852l.004-.294Z" clip-rule="evenodd"/></svg>
