<svg xmlns="http://www.w3.org/2000/svg" width="24" height="24" fill="none" viewBox="0 0 24 24"><path fill="currentColor" fill-rule="evenodd" d="M4.929 4.929C6.7376 3.1202 9.2389 2 12 2c2.7612 0 5.2624 1.1203 7.0711 2.929C20.8798 6.7375 22 9.2387 22 12c0 2.7612-1.1202 5.2624-2.9289 7.0711C17.2624 20.8797 14.7612 22 12 22c-2.7611 0-5.2624-1.1203-7.071-2.9289C3.1203 17.2624 2 14.7612 2 12c0-2.7612 1.1203-5.2624 2.929-7.071ZM12 3.8c-2.2646 0-4.3133.9168-5.7982 2.4017C4.7168 7.6867 3.8 9.7354 3.8 12s.9169 4.3134 2.4018 5.7983C7.6866 19.2832 9.7354 20.2 12 20.2c2.2646 0 4.3134-.9168 5.7983-2.4017C19.2832 16.3134 20.2 14.2646 20.2 12s-.9168-4.3134-2.4017-5.7983C16.3134 4.7168 14.2646 3.8 12 3.8Z M11.2317 8.0905c-.2535.1945-.4085.4334-.4601.6338a.9.9 0 0 1-1.7432-.4486c.1705-.6623.5995-1.2234 1.1075-1.6132C10.6454 6.2715 11.3028 6 12 6c1.6016 0 3 1.3984 3 3 0 1.3706-.7503 2.2208-1.2854 2.8068-.5984.6555-.8146.9109-.8146 1.2932a.9.9 0 0 1-1.8 0c0-1.123.7092-1.8862 1.1737-2.386.0392-.0421.0766-.0824.1117-.1208.5149-.564.8146-.9638.8146-1.5932 0-.6075-.5925-1.2-1.2-1.2-.2347 0-.5163.0972-.7683.2905Z M13.2 16.6c0 .6627-.5372 1.2-1.2 1.2-.6627 0-1.2-.5373-1.2-1.2s.5373-1.2 1.2-1.2c.6628 0 1.2.5373 1.2 1.2Z"/></svg>
