<svg fill="none" height="24" viewBox="0 0 24 24" width="24" xmlns="http://www.w3.org/2000/svg"><g clip-rule="evenodd" fill="currentColor" fill-rule="evenodd"><path d="m11.5931 6.41048c-.4964.02541-.9195-.35639-.9449-.8528s.3564-.91943.8528-.94485c2.7586-.14125 5.5738.95321 7.6489 2.50112.975.72734 1.7875 1.5535 2.3563 2.3955.5689.84225.8938 1.70005.8938 2.49055 0 .9404-.464 1.9809-1.2422 2.966-.3081.3901-.8741.4565-1.2641.1484s-.4565-.8741-.1483-1.2642c.4099-.5188.8546-1.1677.8546-1.8502 0-.3124-.1385-.8214-.5854-1.483-.436-.64547-1.097-1.33066-1.941-1.96026-1.8351-1.36889-4.1685-2.26465-6.4805-2.14626z"/><path d="m4.85008 16.886c1.95013 1.4547 4.55014 2.514 7.14992 2.514 1.9672 0 3.9298-.6068 5.6042-1.523l1.2594 1.2594c.3514.3515.9213.3515 1.2728 0 .3514-.3515.3514-.9213 0-1.2728l-13.50003-13.49999c-.35147-.35147-.92132-.35147-1.27279 0s-.35147.92132 0 1.27279l.68392.68393c-.41867.24569-.81937.51161-1.19742.79362-.97503.72734-1.78755 1.5535-2.35631 2.3955-.56897.84225-.89379 1.70005-.89379 2.49055 0 .7904.32482 1.6482.89379 2.4905.56876.842 1.38128 1.6682 2.35631 2.3955zm5.54992-4.886c0 .8836.7163 1.6 1.6 1.6.3723 0 .7145-.1266.9868-.3404l-2.2465-2.2465c-.2137.2723-.3403.6149-.3403.9869zm1.6 3.4c-1.8778 0-3.40002-1.5222-3.40002-3.4 0-.8699.32708-1.6632.86335-2.26384l-2.09356-2.09357c-.51293.27349-.99782.58175-1.44342.91415-.844.6296-1.50498 1.31479-1.941 1.96026-.44688.6616-.58537 1.1706-.58537 1.483 0 .3123.13849.8214.58537 1.4829.43602.6455 1.097 1.3307 1.941 1.9603 1.70444 1.2715 3.93589 2.1568 6.07365 2.1568 1.4392 0 2.925-.4011 4.269-1.0581l-2.0052-2.0052c-.6005.5361-1.3943.8633-2.2638.8633z"/></g></svg>
