<svg fill="none" height="24" viewBox="0 0 24 24" width="24" xmlns="http://www.w3.org/2000/svg"><g fill="currentColor"><path clip-rule="evenodd" d="m12 7.10001c.4971 0 .9.40294.9.9v3.72719l2.2364 2.2364c.3515.3515.3515.9213 0 1.2728s-.9213.3515-1.2728 0l-2.5-2.5c-.1688-.1688-.2636-.3977-.2636-.6364v-4.09999c0-.49706.4029-.9.9-.9z" fill-rule="evenodd"/><path d="m19.0004 4.99965c-1.7906-1.79061-4.2669-2.89964-7.0004-2.89964-2.78457 0-5.30206 1.15077-7.1 3.00071v-2.10071c0-.49706-.40295-.9-.9-.9-.49706 0-.9.40294-.9.9v4.00002c0 .49706.40294.9.9.9h4c.49705 0 .9-.40294.9-.9s-.40295-.9-.9-.9h-1.54984c1.4505-1.36506 3.40189-2.20002 5.54984-2.20002 2.237 0 4.2607.9056 5.7276 2.37243 1.4668 1.46683 2.3724 3.49061 2.3724 5.72756 0 2.237-.9056 4.2607-2.3724 5.7276-1.4669 1.4668-3.4906 2.3724-5.7276 2.3724-1.9815 0-3.7948-.7104-5.20255-1.8914-.3808-.3194-.94847-.2697-1.26794.1111s-.26975.9484.11105 1.2679c1.71981 1.4428 3.93927 2.3124 6.35944 2.3124 2.7335 0 5.2098-1.109 7.0004-2.8996s2.8996-4.2669 2.8996-7.0004-1.109-5.20975-2.8996-7.00035z"/></g></svg>
