<svg fill="none" height="24" width="24" xmlns="http://www.w3.org/2000/svg"><path clip-rule="evenodd" d="M12.185 4.85a.6.6 0 00-.37 0c-.014.005-.07.025-.219.151-.156.133-.35.325-.657.632L5.574 11c-.377.376-.457.465-.512.555a1.1 1.1 0 00-.132.318c-.024.102-.03.222-.03.754V17.6c0 .435 0 .707.017.912.016.194.042.248.048.26a.6.6 0 00.263.263c.012.006.066.032.26.048.205.016.477.017.912.017h2.7v-3.2a2.9 2.9 0 015.8 0v3.2h2.7c.435 0 .707 0 .912-.018.194-.015.248-.041.26-.047a.6.6 0 00.263-.263c.006-.012.032-.066.047-.26.017-.205.018-.477.018-.912v-4.974c0-.532-.006-.652-.03-.754a1.099 1.099 0 00-.132-.318c-.055-.09-.136-.179-.512-.555l-5.365-5.366c-.308-.307-.5-.499-.658-.632-.148-.126-.204-.146-.218-.15zm-.927-1.711a2.4 2.4 0 011.484 0c.329.107.592.291.826.49.22.186.465.431.742.708l5.39 5.39.055.055c.291.291.537.536.718.831a2.9 2.9 0 01.347.838c.08.337.08.684.08 1.095v5.087c0 .392 0 .738-.023 1.025-.025.306-.081.623-.239.932a2.4 2.4 0 01-1.048 1.048c-.309.158-.626.214-.931.239-.288.023-.634.023-1.026.023H14.19a1.089 1.089 0 01-1.089-1.089V15.9a1.1 1.1 0 00-2.2 0v3.911c0 .602-.487 1.089-1.089 1.089H6.367c-.392 0-.738 0-1.025-.023-.306-.025-.623-.081-.932-.239a2.4 2.4 0 01-1.048-1.048 2.44 2.44 0 01-.239-.932c-.023-.287-.023-.633-.023-1.025v-5.008-.079c0-.411 0-.758.08-1.095.071-.296.188-.578.347-.838.181-.295.427-.54.718-.83l.056-.057 5.39-5.389c.276-.277.52-.522.74-.708.235-.199.498-.383.827-.49z" fill="currentColor" fill-rule="evenodd"/></svg>
