<svg xmlns="http://www.w3.org/2000/svg" width="24" height="24" fill="currentColor" viewBox="0 0 24 24"><path d="M11.1 9.9v3.968l-1.052-1.092a.9.9 0 0 0-1.296 1.248l2.6 2.7a.9.9 0 0 0 1.296 0l2.6-2.7a.9.9 0 0 0-1.296-1.248L12.9 13.868V9.9a.9.9 0 0 0-1.8 0Z M13.004 3.133a3.9 3.9 0 0 0-2.008 0c-.749.2-1.406.7-2.309 1.39l-3.532 2.69c-.606.46-1.048.797-1.374 1.232a3.9 3.9 0 0 0-.633 1.278c-.149.524-.148 1.079-.148 1.84v3.775c0 .808 0 1.469.044 2.006.045.556.142 1.058.381 1.527a3.9 3.9 0 0 0 1.704 1.704c.47.239.971.336 1.527.381C7.193 21 7.854 21 8.662 21h6.676c.808 0 1.469 0 2.006-.044.556-.045 1.058-.142 1.527-.381a3.9 3.9 0 0 0 1.704-1.704c.239-.47.336-.971.381-1.527.044-.537.044-1.198.044-2.006v-3.775c0-.761 0-1.316-.148-1.84a3.9 3.9 0 0 0-.633-1.278c-.326-.435-.768-.771-1.374-1.232l-3.532-2.69c-.903-.69-1.56-1.19-2.309-1.39ZM11.46 4.872a2.1 2.1 0 0 1 1.082 0c.36.096.716.347 1.822 1.19l3.3 2.513c.735.56.96.74 1.116.95.156.207.271.44.342.689.071.252.079.54.079 1.464V15.3c0 .855 0 1.442-.038 1.897-.036.445-.103.684-.19.856a2.1 2.1 0 0 1-.919.918c-.172.088-.411.155-.856.191-.455.037-1.042.038-1.897.038H8.7c-.855 0-1.442 0-1.897-.038-.445-.036-.684-.103-.856-.19a2.1 2.1 0 0 1-.918-.919c-.088-.172-.155-.411-.191-.856C4.8 16.742 4.8 16.155 4.8 15.3v-3.622c0-.924.008-1.212.08-1.464a2.1 2.1 0 0 1 .34-.689c.158-.21.382-.39 1.117-.95l3.3-2.513c1.106-.843 1.463-1.094 1.822-1.19Z" clip-rule="evenodd"/></svg>
