<svg xmlns="http://www.w3.org/2000/svg" width="24" height="24" fill="currentColor" viewBox="0 0 24 24"><path fill-rule="evenodd" d="M5.363 9.07A6.656 6.656 0 0 1 12 2a6.656 6.656 0 0 1 6.637 7.07A6.653 6.653 0 0 1 22 14.85a6.656 6.656 0 0 1-6.65 6.65c-1.22 0-2.366-.33-3.35-.907a6.611 6.611 0 0 1-3.35.907A6.656 6.656 0 0 1 2 14.85a6.653 6.653 0 0 1 3.363-5.78Zm1.795-.701A4.857 4.857 0 0 1 12 3.8a4.857 4.857 0 0 1 4.842 4.569A6.65 6.65 0 0 0 12 9.107a6.65 6.65 0 0 0-4.842-.738Zm9.45 1.796a4.84 4.84 0 0 0-3.066.185 6.658 6.658 0 0 1 1.346 2.194 4.872 4.872 0 0 0 1.72-2.379Zm-1.321 4.265c1.35-.77 2.405-2 2.951-3.474A4.847 4.847 0 0 1 15.35 19.7a4.822 4.822 0 0 1-1.808-.35 6.625 6.625 0 0 0 1.745-4.92Zm-2.03-1.095A4.861 4.861 0 0 0 12 11.346a4.861 4.861 0 0 0-1.257 1.989 4.835 4.835 0 0 0 2.514 0Zm-2.749 1.796a6.65 6.65 0 0 0 2.984 0A4.838 4.838 0 0 1 12 18.353a4.838 4.838 0 0 1-1.492-3.222Zm-1.795-.701a6.625 6.625 0 0 0 1.745 4.92 4.82 4.82 0 0 1-1.808.35 4.856 4.856 0 0 1-4.85-4.85c0-1.593.772-3.01 1.962-3.894a6.686 6.686 0 0 0 2.951 3.474Zm.4-1.886a4.872 4.872 0 0 1-1.72-2.379 4.84 4.84 0 0 1 3.065.185 6.658 6.658 0 0 0-1.346 2.194Z" clip-rule="evenodd"/></svg>
