<svg xmlns="http://www.w3.org/2000/svg" width="24" height="24" fill="none" viewBox="0 0 24 24"><path fill="currentColor" fill-rule="evenodd" d="M3.9001 3a.9.9 0 0 1 .9.9v.7h2.1161c.273 0 .3348-.0015.3884-.008a1.1 1.1 0 0 0 .5453-.226c.0425-.0332.0873-.0758.2803-.2688l.015-.0151c.206-.2059.3824-.3824.5283-.5153.1372-.125.3237-.285.5483-.3858.9972-.4479 2.1658.0362 2.5543 1.058.0875.23.1063.475.1149.6604.0091.1972.0091.4467.0091.7378V8c0 .0592.0332.2404.3677.5458.3267.2985.8399.6192 1.5331.9462 1.3798.6509 3.277 1.2373 5.2762 1.7314l.035.0086c.1574.0389.2834.07.3828.1022 1.141.3701 1.9124 1.3554 1.9979 2.5518.0075.1045.0075.3171.0074.6243v.0906a1.3193 1.3193 0 0 1-.0013.0384l-.0016.0233-.0012.0137-.0013.0123a3.691 3.691 0 0 0-.0049.0558 2.8948 2.8948 0 0 1-.8977 1.8632c.0877.3419.1596.6469.2069.9172.0816.4651.1122.9325-.0256 1.3981a2.9003 2.9003 0 0 1-1.2653 1.6496c-.414.2537-.8734.3453-1.3437.3871C17.7095 21 17.1438 21 16.4689 21H2.8999a.9.9 0 0 1 0-1.8h1.1v-2.5093a2.8998 2.8998 0 0 1-.6837-.8741c-.1844-.362-.254-.7406-.2858-1.1297C3 14.3165 3 13.8653 3 13.3354V3.9a.9.9 0 0 1 .9-.9Zm2.5035 16.2H5.8v-1.8238c.3534.0238.7756.0238 1.2648.0238h11.3551c.1654.0001.3017.0001.4248-.0103a2.613 2.613 0 0 0 .0852-.0085c.0407.1706.0728.3199.0964.4544.0623.3555.0436.5011.0213.5765a1.1004 1.1004 0 0 1-.48.6257c-.067.0411-.2028.0969-.5623.1288-.3657.0325-.8508.0334-1.5769.0334H6.4036ZM9.98 4.8163a1.7595 1.7595 0 0 0-.0939.0808c-.1112.1013-.2578.2477-.483.4729l-.029.0288c-.1492.1495-.275.2753-.4144.3845a2.9 2.9 0 0 1-1.4376.5955c-.1759.0214-.3537.0213-.565.0212H4.8002v6.9c0 .5749.0007.952.0243 1.2403.0227.2779.062.3932.0956.4591a1.1 1.1 0 0 0 .4807.4807c.066.0336.1813.0729.4591.0956.2884.0236.6654.0243 1.2403.0243h11.2852c.218 0 .2709-.0008.3076-.0039a1.1 1.1 0 0 0 1.0034-1.0034l.0039-.0451c0-.1693 0-.2949-.0006-.3876a7.563 7.563 0 0 0-.0013-.1141.9222.9222 0 0 0-.001-.0322c0-.0007 0 0 0 0-.0338-.4644-.3146-.8236-.7577-.9673-.0291-.0094-.0841-.0237-.2943-.0756-.8833-.2183-1.7658-.4585-2.6079-.7198l-1.0093 1.1409a.9.9 0 0 1-1.3482-1.1926l.5166-.5839a18.1423 18.1423 0 0 1-1.0825-.4575.9063.9063 0 0 1-.0922.0752l-1.2672.9023a.9.9 0 0 1-1.2551-.2112.9.9 0 0 1 .2111-1.2551l.6999-.4984a5.0738 5.0738 0 0 1-.3567-.2958 3.8385 3.8385 0 0 1-.3573-.3713l-1.4783.3695a.9.9 0 1 1-.4365-1.7462L10.1 7.7973V5.6585c0-.3184-.0002-.5255-.0072-.6758a1.8226 1.8226 0 0 0-.0092-.1235.1002.1002 0 0 0-.1038-.043Z" clip-rule="evenodd"/></svg>
