<svg xmlns="http://www.w3.org/2000/svg" fill="none" viewBox="0 0 24 24"><path fill="currentColor" fill-rule="evenodd" d="M3.9002 3a.9.9 0 0 1 .9.9v.7h2.1161c.273 0 .3348-.0015.3884-.008a1.1 1.1 0 0 0 .5453-.226c.0425-.0332.0873-.0758.2803-.2688l.015-.0151c.206-.2059.3824-.3824.5283-.5153.1372-.125.3238-.285.5483-.3858.9973-.4479 2.1658.0362 2.5543 1.058.0875.23.1063.475.1149.6604.0092.1972.0092.4467.0091.7378V8c0 .0592.0332.2404.3677.5458.3267.2985.8399.6192 1.5332.9462 1.3798.6509 3.2769 1.2373 5.2762 1.7314l.035.0086c.1574.0389.2833.07.3828.1022 1.1409.3701 1.9123 1.3554 1.9979 2.5518.0074.1045.0074.3171.0074.6243l-.0001.0817v.0089a.8535.8535 0 0 1-.0029.0617l-.0012.0137-.0013.0123-.0049.0558a2.8948 2.8948 0 0 1-.8977 1.8632c.0878.3419.1596.6469.207.9172.0815.4651.1121.9325-.0257 1.3981a2.9003 2.9003 0 0 1-1.2653 1.6496c-.414.2537-.8734.3453-1.3437.3871C17.7096 21 17.144 21 16.469 21H2.9a.9.9 0 0 1 0-1.8H4v-2.5093a2.9 2.9 0 0 1-.6837-.8741c-.1844-.362-.254-.7406-.2858-1.1297-.0303-.3704-.0303-.8216-.0303-1.3515V3.9a.9.9 0 0 1 .9-.9zm2.5036 16.2H5.8v-1.8238c.3535.0238.7756.0238 1.2648.0238H18.42c.1655.0001.3018.0001.4249-.0103a2.635 2.635 0 0 0 .0851-.0085c.0407.1706.0728.3199.0964.4544.0623.3555.0436.5011.0213.5765a1.1003 1.1003 0 0 1-.4799.6257c-.0671.0411-.2029.0969-.5624.1288-.3657.0325-.8508.0334-1.5769.0334zM9.98 4.8163a1.7582 1.7582 0 0 0-.094.0808c-.1112.1013-.2578.2477-.483.4729l-.0289.0288c-.1493.1495-.275.2753-.4145.3845a2.9 2.9 0 0 1-1.4375.5955c-.176.0214-.3538.0213-.565.0212h-2.157v6.9c0 .5749.0007.952.0243 1.2403.0227.2779.062.3932.0956.4591a1.1 1.1 0 0 0 .4808.4807c.0659.0336.1812.0729.459.0956.2884.0236.6654.0243 1.2404.0243h11.2852c.2179 0 .2708-.0008.3076-.0039a1.1 1.1 0 0 0 1.0033-1.0034l.0039-.0451c0-.1693 0-.2949-.0006-.3876a7.563 7.563 0 0 0-.0013-.1141c-.0004-.0196-.0008-.0293-.0009-.0322-.0001-.0007 0 0 0 0-.0338-.4644-.3147-.8236-.7578-.9673-.0291-.0094-.0841-.0237-.2943-.0756-.8832-.2183-1.7658-.4585-2.6078-.7198l-1.0093 1.1409a.9001.9001 0 0 1-1.2705.0778.9.9 0 0 1-.0777-1.2704l.5165-.5839a18.1108 18.1108 0 0 1-1.0824-.4575.9288.9288 0 0 1-.0922.0752l-1.2672.9023a.9.9 0 0 1-1.0441-1.4663l.6999-.4984a5.0969 5.0969 0 0 1-.3567-.2958 3.8385 3.8385 0 0 1-.3573-.3713l-1.4783.3695a.9.9 0 1 1-.4365-1.7462l1.3184-.3296V5.6585c0-.3184-.0002-.5255-.0071-.6758a1.7328 1.7328 0 0 0-.0093-.1235.1002.1002 0 0 0-.1037-.043z" clip-rule="evenodd"/></svg>
