<svg width="24" height="24" fill="none" xmlns="http://www.w3.org/2000/svg"><path d="M8 17a1 1 0 100-2 1 1 0 000 2z" fill="currentColor"/><path fill-rule="evenodd" clip-rule="evenodd" d="M17.7 2.1a.9.9 0 00-.64.267l-6.8 6.868A5.9 5.9 0 1014.9 15c0-.435-.069-.97-.167-1.463a9.482 9.482 0 00-.15-.637H16a.9.9 0 00.9-.9v-1.6H18a.9.9 0 00.9-.9V7.9H20a.9.9 0 00.9-.9V3a.9.9 0 00-.9-.9h-2.3zm-6.527 8.773L18.076 3.9H19.1v2.2H18a.9.9 0 00-.9.9v1.6H16a.9.9 0 00-.9.9v1.6H14a.9.9 0 00-.636.264l-.5.5a.9.9 0 00-.189.996c.098.223.207.6.293 1.029.085.427.132.836.132 1.111a4.1 4.1 0 11-2.843-3.904.9.9 0 00.916-.223z" fill="currentColor"/></svg>
