<svg fill="none" height="24" viewBox="0 0 24 24" width="24" xmlns="http://www.w3.org/2000/svg"><g fill="currentColor"><path d="m9.2501 11c.9665 0 1.75-.7835 1.75-1.75002 0-.9665-.7835-1.75-1.75-1.75s-1.75.7835-1.75 1.75c0 .96652.7835 1.75002 1.75 1.75002z"/><path d="m9.2501 16.5c.9665 0 1.75-.7835 1.75-1.75s-.7835-1.75-1.75-1.75-1.75.7835-1.75 1.75.7835 1.75 1.75 1.75z"/><path d="m14.7501 11c.9665 0 1.75-.7835 1.75-1.75002 0-.9665-.7835-1.75-1.75-1.75s-1.75.7835-1.75 1.75c0 .96652.7835 1.75002 1.75 1.75002z"/><path d="m14.7501 16.5c.9665 0 1.75-.7835 1.75-1.75s-.7835-1.75-1.75-1.75-1.75.7835-1.75 1.75.7835 1.75 1.75 1.75z"/><path clip-rule="evenodd" d="m8.22787 3.09998c-1.56965 0-2.31931.12666-3.08146.53426-.64954.34737-1.16467.86251-1.51205 1.51204-.4076.76215-.53426 1.51182-.53426 3.08147v7.54445c0 1.5697.12666 2.3193.53426 3.0815.34738.6495.86251 1.1646 1.51205 1.512.76215.4076 1.51181.5343 3.08146.5343h7.54443c1.5697 0 2.3193-.1267 3.0815-.5343.6495-.3474 1.1647-.8625 1.512-1.512.4076-.7622.5343-1.5118.5343-3.0815v-7.54445c0-1.56965-.1267-2.31932-.5343-3.08147-.3473-.64953-.8625-1.16467-1.512-1.51204-.7622-.4076-1.5118-.53426-3.0815-.53426zm-2.23259 2.12153c.36199-.1936.74592-.32153 2.23259-.32153h7.54443c1.4867 0 1.8706.12793 2.2326.32153.3359.17961.5941.4378.7737.77365.1936.36198.3215.74592.3215 2.23259v7.54445c0 1.4867-.1279 1.8706-.3215 2.2326-.1796.3358-.4378.594-.7737.7736-.362.1936-.7459.3216-2.2326.3216h-7.54443c-1.48667 0-1.8706-.128-2.23259-.3216-.33584-.1796-.59404-.4378-.77365-.7736-.19359-.362-.32153-.7459-.32153-2.2326v-7.54445c0-1.48667.12794-1.87061.32153-2.23259.17961-.33585.43781-.59404.77365-.77365z" fill-rule="evenodd"/></g></svg>
