<svg xmlns="http://www.w3.org/2000/svg" width="24" height="24" fill="currentColor" viewBox="0 0 24 24"><path fill-rule="evenodd" d="M17.348 3.796a2.731 2.731 0 0 1 3.797-.056 2.708 2.708 0 0 1 .063 3.888l-4.735 4.747.662.66c.221.22.316.512.238.847-.04.164-.127.307-.228.441a6.633 6.633 0 0 1-.517.585c-1.079 1.118-2.264 2.139-3.435 3.157C11 20 9.033 20.438 6.977 20.8c-1.477.2-2.84.2-3.482.2-1.5 0-2-1.495-.9-2.592L11.97 9.16l.003-.002 5.374-5.36Zm-4.742 7.264S7.5 16 4.456 19.128C7.799 19.128 10 18.5 12.8 16c1.821-1.584 1.988-1.78 2.476-2.28l-2.67-2.66Zm2.594.047 4.731-4.744a.917.917 0 0 0-.021-1.318.927.927 0 0 0-1.288.02L13.88 9.792l1.319 1.314Z" clip-rule="evenodd"/></svg>
