<svg xmlns="http://www.w3.org/2000/svg" width="24" height="24" fill="currentColor" viewBox="0 0 24 24"><path fill-rule="evenodd" d="M7.2 5.1h-.035c-.53 0-.981 0-1.352.03-.389.032-.768.102-1.13.286a2.9 2.9 0 0 0-1.267 1.267c-.184.362-.254.74-.286 1.13-.03.37-.03.822-.03 1.352V17.1H2.063c-1.13 0-1.322 1.618-.223 1.882l1.815.435c.23.055.464.083.7.083h15.29c.236 0 .47-.028.7-.083l1.815-.435c1.099-.264.907-1.882-.223-1.882H20.9V9.165c0-.53 0-.981-.03-1.352-.032-.39-.102-.768-.286-1.13a2.9 2.9 0 0 0-1.267-1.267c-.362-.184-.741-.254-1.13-.286-.37-.03-.822-.03-1.352-.03H7.2Zm11.9 12V9.2c0-.575 0-.952-.024-1.24-.023-.278-.062-.394-.096-.46a1.1 1.1 0 0 0-.48-.48c-.067-.034-.182-.073-.46-.096A17.426 17.426 0 0 0 16.8 6.9H7.2c-.575 0-.952 0-1.24.024-.278.023-.393.062-.46.096a1.1 1.1 0 0 0-.48.48c-.034.066-.073.182-.096.46-.023.288-.024.665-.024 1.24v7.9h14.2Z" clip-rule="evenodd"/></svg>
