<svg fill="none" height="24" viewBox="0 0 24 24" width="24" xmlns="http://www.w3.org/2000/svg"><g clip-rule="evenodd" fill="currentColor" fill-rule="evenodd"><path d="m4.99964 4.99962c1.79056-1.79056 4.2668-2.89964 7.00036-2.89964 2.7336 0 5.2098 1.10908 7.0004 2.89964 1.7905 1.79056 2.8996 4.26679 2.8996 7.00038 0 2.7335-1.1091 5.2098-2.8996 7.0003-1.7906 1.7906-4.2668 2.8997-7.0004 2.8997-2.73356 0-5.2098-1.1091-7.00036-2.8997-1.79056-1.7905-2.89964-4.2668-2.89964-7.0003 0-2.73359 1.10908-5.20982 2.89964-7.00038zm7.00036-1.09964c-2.237 0-4.26077.90563-5.72757 2.37243-1.46679 1.4668-2.37243 3.49056-2.37243 5.72759 0 2.237.90564 4.2607 2.37243 5.7275 1.4668 1.4668 3.49057 2.3725 5.72757 2.3725s4.2608-.9057 5.7276-2.3725 2.3724-3.4905 2.3724-5.7275c0-2.23703-.9056-4.26079-2.3724-5.72759s-3.4906-2.37243-5.7276-2.37243z"/><path d="m8.53518 8.53515c.88574-.88574 2.11192-1.43517 3.46482-1.43517 1.3528 0 2.5791.54943 3.4648 1.43517.8858.88574 1.4352 2.11195 1.4352 3.46485 0 1.3528-.5494 2.5791-1.4352 3.4648-.8857.8857-2.112 1.4352-3.4648 1.4352-1.3529 0-2.57908-.5495-3.46482-1.4352s-1.43518-2.112-1.43518-3.4648c0-1.3529.54944-2.57911 1.43518-3.46485zm3.46482.36483c-.8563 0-1.6301.34599-2.19203.90796-.56198.56196-.90797 1.33576-.90797 2.19206s.34599 1.63.90797 2.192c.56193.562 1.33573.908 2.19203.908s1.6301-.346 2.192-.908c.562-.562.908-1.3357.908-2.192s-.346-1.6301-.908-2.19206c-.5619-.56197-1.3357-.90796-2.192-.90796z"/><path d="m15.4467 9.82602 3.6897-3.68965-1.2728-1.27279-3.6896 3.68965zm-9.31031 9.31038 3.74918-3.7492-1.27279-1.2728-3.74918 3.7492z"/><path d="m8.55326 9.82602-3.68966-3.68965 1.27279-1.27279 3.68966 3.68965zm9.31034 9.31038-3.7492-3.7492 1.2728-1.2728 3.7492 3.7492z"/></g></svg>
