<svg fill="none" height="24" viewBox="0 0 24 24" width="24" xmlns="http://www.w3.org/2000/svg"><path clip-rule="evenodd" d="m5.4 10.5c0-3.6451 2.95492-6.60002 6.6-6.60002.6109 0 1.2011.08276 1.7606.23717.4617.12745.9033.30391 1.3188.52355.4394.23229.984.06436 1.2163-.37508s.0643-.98398-.3751-1.21627c-.5292-.27976-1.0922-.50476-1.6812-.66732-.7139-.19706-1.4651-.30205-2.2394-.30205-4.63919 0-8.4 3.7608-8.4 8.40002 0 2.3726 1.02048 3.9534 2.10708 5.1565.3544.3924.74258.7716 1.08877 1.1098.15766.154.30661.2995.43971.4339.42415.4282.72711.7797.91416 1.1165l.24756 1.061c.0717.3073.13606.5832.20717.8114.07663.2459.17752.4938.34898.7281.25505.3486.59942.6218.9968.791.26717.1137.53157.1557.78837.1744.2384.0174.5217.0174.8373.0174h.8482c.3156 0 .5989 0 .8373-.0174.2568-.0187.5212-.0607.7884-.1744.3974-.1692.7417-.4424.9968-.791.1714-.2343.2723-.4822.3489-.7281.0712-.2282.1355-.5041.2072-.8114l.2477-1.0614c.2727-.4927.7608-.9702 1.4455-1.6399.8496-.8311 1.6757-1.6937 2.2493-2.7455.2379-.4364.0771-.9831-.3593-1.2211-.4364-.2379-.9831-.0771-1.2211.3593-.5065.929-1.266 1.6763-2.0171 2.4077-.4986.4854-1.0498 1.0221-1.4585 1.6232h-1.5892v-2.1184l1.0992-.7328c.4136-.2757.5254-.8345.2496-1.2481-.2757-.4135-.8345-.5253-1.248-.2496l-1.0008.6672-1.0008-.6672c-.4135-.2757-.9723-.1639-1.24804.2496-.27572.4136-.16397.9724.24964 1.2481l1.0992.7328-.0006 2.1184h-1.58788c-.29154-.4299-.64902-.8151-.99708-1.1665-.17588-.1776-.34739-.3449-.51641-.5098-.32316-.3153-.63719-.6216-.95511-.9737-.9134-1.0113-1.64292-2.1805-1.64292-3.95zm4.7437 8.4408-.0095-.0408h1.866 1.8656l-.0095.0408c-.0802.3438-.13.5549-.1792.7127-.0459.147-.074.1882-.0832.2008-.0637.0871-.1498.1554-.2492.1977-.0144.0062-.0608.0242-.2144.0354-.1649.012-.3817.0126-.7348.0126h-.791c-.3531 0-.5699-.0006-.7348-.0126-.1536-.0112-.2-.0292-.2144-.0354-.0994-.0423-.1855-.1106-.2492-.1977-.0092-.0126-.0373-.0538-.0832-.2008-.0492-.1578-.099-.3689-.1792-.7127zm7.9327-14.63546c.1357-.40712.7115-.40712.8472 0l.4574 1.37219c.1482.44449.497.79327.9415.94143l1.3722.4574c.4071.13571.4071.71157 0 .84728l-1.3722.4574c-.4445.14816-.7933.49694-.9415.94143l-.4574 1.37223c-.1357.4071-.7115.4071-.8472 0l-.4574-1.37223c-.1482-.44448-.497-.79327-.9415-.94143l-1.3722-.4574c-.4071-.13571-.4071-.71157 0-.84728l1.3722-.4574c.4445-.14816.7933-.49694.9415-.94143z" fill="currentColor" fill-rule="evenodd"/></svg>
