<?xml version="1.0" encoding="UTF-8"?>
<svg width="24px" height="24px" viewBox="0 0 24 24" version="1.1" xmlns="http://www.w3.org/2000/svg" xmlns:xlink="http://www.w3.org/1999/xlink">
    <!-- Generator: Sketch 50.2 (55047) - http://www.bohemiancoding.com/sketch -->
    <title>like_outline_24</title>
    <desc>Created with Sketch.</desc>
    <defs></defs>
    <g id="Page-2" stroke="none" stroke-width="1" fill="none" fill-rule="evenodd">
        <g id="like_outline_24">
            <rect id="Bounds" x="0" y="0" width="24" height="24"></rect>
            <path d="M16.7368421,3.10000002 C20.1406602,3.10000002 22.9,5.85933979 22.9,9.26315789 C22.9,12.6821066 21.5318842,14.3941802 15.7838129,18.8649023 L13.1664872,20.9006002 C12.4803772,21.4342412 11.5196228,21.4342412 10.8335128,20.9006002 L8.21618708,18.8649023 C2.46811582,14.3941802 1.10000002,12.6821066 1.10000002,9.26315789 C1.10000002,5.85933979 3.85933979,3.10000002 7.26315789,3.10000002 C9.04631507,3.10000002 10.6330035,3.91839359 12,5.4954233 C13.3669965,3.91839359 14.9536849,3.10000002 16.7368421,3.10000002 Z M7.26315789,4.89999998 C4.85345232,4.89999998 2.89999998,6.85345232 2.89999998,9.26315789 C2.89999998,11.9328431 3.99134545,13.2985636 9.32128015,17.4440684 L11.9386059,19.4797662 C11.974717,19.5078526 12.025283,19.5078526 12.0613941,19.4797662 L14.6787198,17.4440684 C20.0086545,13.2985636 21.1,11.9328431 21.1,9.26315789 C21.1,6.85345232 19.1465477,4.89999998 16.7368421,4.89999998 C15.2711074,4.89999998 13.9518234,5.72614654 12.7402386,7.47815487 L12,8.54857456 L11.2597614,7.47815487 C10.0481766,5.72614654 8.72889263,4.89999998 7.26315789,4.89999998 Z" id="Mask" fill="currentColor" fill-rule="nonzero"></path>
        </g>
    </g>
</svg>
