<svg fill="none" height="24" viewBox="0 0 24 24" width="24" xmlns="http://www.w3.org/2000/svg"><path clip-rule="evenodd" d="m13.4893 4.29306c1.7191-1.71903 4.5062-1.71903 6.2252 0s1.719 4.50614 0 6.22514l-1.0715 1.0716c-.3516.3516-.9217.3516-1.2734 0-.3516-.3517-.3516-.9218 0-1.2734l1.0716-1.0715c1.0158-1.01579 1.0158-2.66272 0-3.67851s-2.6627-1.01579-3.6785 0l-3.5371 3.53703c-1.0158 1.01578-1.0158 2.66268 0 3.67848.3517.3516.3517.9217 0 1.2734-.3516.3516-.9217.3516-1.27329 0-1.71903-1.7191-1.71903-4.50618 0-6.22521zm-.7074 5.65925c.3516-.35162.9217-.35162 1.2734 0 1.719 1.71899 1.719 4.50609 0 6.22519l-3.5371 3.537c-1.719 1.719-4.50611 1.719-6.22514 0s-1.71903-4.5061 0-6.2252l1.1218-1.1218c.35162-.3516.92171-.3516 1.27333 0 .35162.3517.35162.9217 0 1.2734l-1.1218 1.1218c-1.01579 1.0158-1.01579 2.6627 0 3.6785s2.66272 1.0158 3.67851 0l3.537-3.537c1.0158-1.0158 1.0158-2.6628 0-3.6786-.3516-.3516-.3516-.9217 0-1.27329z" fill="currentColor" fill-rule="evenodd"/></svg>
