<svg xmlns="http://www.w3.org/2000/svg" width="24" height="24" fill="currentColor" viewBox="0 0 24 24"><path fill-rule="evenodd" d="M4.929 4.929A9.972 9.972 0 0 1 12 2a9.972 9.972 0 0 1 7.071 2.929A9.971 9.971 0 0 1 22 12a9.971 9.971 0 0 1-2.929 7.071A9.972 9.972 0 0 1 12 22a9.972 9.972 0 0 1-7.071-2.929A9.972 9.972 0 0 1 2 12a9.972 9.972 0 0 1 2.929-7.071ZM12 3.8a8.172 8.172 0 0 0-5.798 2.402A8.172 8.172 0 0 0 3.8 12a8.17 8.17 0 0 0 2.402 5.798A8.171 8.171 0 0 0 12 20.2a8.172 8.172 0 0 0 5.798-2.402A8.172 8.172 0 0 0 20.2 12a8.171 8.171 0 0 0-2.402-5.798A8.172 8.172 0 0 0 12 3.8Z M9 8.9a.9.9 0 0 1 .9-.9h5.2a.9.9 0 0 1 .9.9v5.2a.9.9 0 1 1-1.8 0v-3.027l-4.664 4.663a.9.9 0 1 1-1.272-1.272L12.927 9.8H9.9a.9.9 0 0 1-.9-.9Z" clip-rule="evenodd"/></svg>
