<svg xmlns="http://www.w3.org/2000/svg" width="24" height="24" fill="currentColor" viewBox="0 0 24 24"><path fill-rule="evenodd" d="M3.962 7.404c-.119.427-.289.595-.61.595-.324 0-.552-.205-.552-.494 0-.115.032-.256.121-.522l.694-2.115c.205-.624.5-.866 1.05-.866.549 0 .838.24 1.043.866l.69 2.115c.07.216.102.367.102.49 0 .318-.228.526-.575.526-.321 0-.509-.18-.625-.595l-.049-.179h-1.24l-.049.18Zm.645-2.372-.365 1.342h.784L4.67 5.032h-.063ZM8.9 5a.9.9 0 1 0 0 1.8h11.2a.9.9 0 1 0 0-1.8H8.9Zm0 6.1a.9.9 0 1 0 0 1.8h11.2a.9.9 0 0 0 0-1.8H8.9Zm-.9 7a.9.9 0 0 1 .9-.9h11.2a.9.9 0 1 1 0 1.8H8.9a.9.9 0 0 1-.9-.9ZM4.82 14c.891 0 1.474-.524 1.474-1.324 0-.777-.583-1.272-1.491-1.272h-.577v-.442H5.46c.258 0 .448-.202.448-.48 0-.279-.19-.481-.448-.481H3.611c-.38 0-.615.237-.615.624v2.754c0 .387.235.621.615.621h1.21Zm-.594-.908v-.832h.319c.313 0 .507.158.507.416 0 .26-.188.416-.507.416h-.32ZM3.61 20c-.38 0-.615-.234-.615-.621v-2.754c0-.387.235-.624.615-.624h1.316c.797 0 1.295.378 1.295.981 0 .463-.302.809-.756.865v.055c.53.015.926.422.926.955 0 .674-.572 1.143-1.386 1.143H3.611Zm.601-3.179v.75h.38c.311 0 .44-.184.44-.378 0-.216-.16-.372-.445-.372h-.375Zm0 1.477v.882h.419c.363 0 .516-.205.516-.449 0-.252-.164-.433-.522-.433h-.413Z" clip-rule="evenodd"/></svg>
