<svg fill="none" height="24" viewBox="0 0 24 24" width="24" xmlns="http://www.w3.org/2000/svg"><g fill="currentColor"><path d="m3.99998 6.90001h14.50002c.497 0 .9-.40295.9-.9 0-.49706-.403-.9-.9-.9h-14.50002c-.49706 0-.9.40294-.9.9s.40294.9.9.9z"/><path d="m3.99998 10.1c-.49706 0-.9.4029-.9.9s.40294.9.9.9h3c.49705 0 .9-.4029.9-.9 0-.497-.40295-.9-.9-.9z"/><path d="m3.99998 15.1c-.49706 0-.9.4029-.9.9s.40294.9.9.9h2.5c.49705 0 .9-.4029.9-.9s-.40295-.9-.9-.9z"/><path clip-rule="evenodd" d="m13.1167 10c-2.213 0-4.1167 1.6953-4.1167 3.9178 0 1.1524.33636 2.0651 1.1167 2.9799.7245.8494 1.8463 1.7144 3.3802 2.832l1.1346.8267c.8118.5915 1.9252.5915 2.737 0l1.1346-.8267c1.5339-1.1176 2.6557-1.9826 3.3802-2.832.7803-.9148 1.1167-1.8275 1.1167-2.9799 0-2.2225-1.9037-3.9178-4.1167-3.9178-1.0245 0-2.0365.3845-2.8833 1.1067-.8467-.7223-1.8588-1.1067-2.8833-1.1067zm-2.2906 3.9178c0-1.0925.9649-2.0845 2.2906-2.0845.7742 0 1.5273.6257 1.992 1.0118.0655.0544.1252.104.1785.1465.1321.1053.2268.1904.3016.2577.1696.1523.2378.2137.4112.2137.1696 0 .2349-.0587.3965-.2037.0766-.0688.1749-.157.3163-.2677.0687-.0538.1475-.1191.2342-.191.4674-.3877 1.166-.9673 1.7754-.9673 1.3257 0 2.4515.992 2.4515 2.0845 0 .7036-.1731 1.196-.6776 1.7874-.5602.6567-1.4985 1.3988-3.0657 2.5407l-1.1347.8267c-.1721.1254-.4197.1254-.5918 0l-1.1347-.8267c-1.5672-1.1419-2.5055-1.884-3.0657-2.5407-.5045-.5914-.6776-1.0838-.6776-1.7874z" fill-rule="evenodd"/></g></svg>
