<svg fill="none" height="24" viewBox="0 0 24 24" width="24" xmlns="http://www.w3.org/2000/svg"><g fill="currentColor"><g clip-rule="evenodd" fill-rule="evenodd"><path d="m12 3.89998c-4.47353 0-8.10002 3.62649-8.10002 8.10002 0 4.1324 3.0954 7.5433 7.09362 8.0382.4933.061.8437.5104.7826 1.0037-.061.4933-.5104.8437-1.0037.7826-4.88879-.6051-8.67252-4.7723-8.67252-9.8245 0-5.46764 4.43238-9.90002 9.90002-9.90002 5.0519 0 9.2188 3.78319 9.8244 8.67152.0611.4932-.2892.9427-.7825 1.0038s-.9427-.2893-1.0038-.7825c-.4953-3.99786-3.906-7.09282-8.0381-7.09282z"/><path d="m12 7.89998c-2.26439 0-4.10002 1.83563-4.10002 4.10002 0 1.8087 1.17174 3.346 2.80002 3.8899.4715.1574.726.6673.5685 1.1387-.1574.4715-.6673.726-1.1387.5685-2.3407-.7817-4.02982-2.991-4.02982-5.5971 0-3.2585 2.64152-5.90002 5.90002-5.90002 2.5989 0 4.8032 1.67985 5.5906 4.01042.1592.4709-.0936.9816-.5645 1.1407-.4709.1592-.9816-.0936-1.1407-.5645-.5479-1.62136-2.0817-2.78662-3.8854-2.78662z"/><path d="m23 18c0-2.7615-2.2386-5-5-5s-5 2.2385-5 5c0 2.7614 2.2386 5 5 5s5-2.2386 5-5zm-5.8278-2.7639c.0482-.4144.4004-.7361.8278-.7361.4602 0 .8333.3731.8333.8333v1.8333h1.8333l.0972.0056c.4145.0482.7362.4004.7362.8278 0 .4602-.3731.8333-.8334.8333h-1.8333v1.8333l-.0056.0972c-.0481.4145-.4003.7362-.8277.7362-.4603 0-.8334-.3731-.8334-.8334v-1.8333h-1.8333l-.0972-.0056c-.4144-.0481-.7361-.4004-.7361-.8277 0-.4603.3731-.8334.8333-.8334h1.8333v-1.8333z"/></g><path d="m14 12c0 1.1045-.8955 2-2 2-1.1046 0-2.00002-.8955-2.00002-2 0-1.1046.89542-2.00002 2.00002-2.00002 1.1045 0 2 .89542 2 2.00002z"/></g></svg>
