<svg fill="none" height="24" viewBox="0 0 24 24" width="24" xmlns="http://www.w3.org/2000/svg"><g clip-rule="evenodd" fill="currentColor" fill-rule="evenodd"><path d="m12 3.89998c-1.0603 0-2.07103.20328-2.99677.57217-.46175.184-.98522-.04116-1.16922-.50291s.04116-.98523.50291-1.16922c1.13421-.45197 2.37078-.70004 3.66308-.70004 5.4676 0 9.9 4.43238 9.9 9.90002 0 1.292-.248 2.5283-.6997 3.6623-.184.4618-.7075.687-1.1692.503-.4618-.1839-.687-.7074-.503-1.1691.3687-.9256.5719-1.9361.5719-2.9962 0-4.47353-3.6265-8.10002-8.1-8.10002z"/><path d="m11.1313 6.99456c.003-.49705.4084-.89752.9055-.89448 3.2263.01975 5.8383 2.62876 5.863 5.85392.0038.497-.396.9031-.8931.9069-.497.0038-.903-.3961-.9068-.8931-.0172-2.24092-1.8324-4.05403-4.0742-4.06775-.497-.00304-.8975-.40844-.8944-.90549z"/><path d="m4.99965 19.0003c1.79056 1.7906 4.26679 2.8997 7.00035 2.8997 2.4094 0 4.6189-.8616 6.3351-2.2921l1.1285 1.1285c.3515.3514.9213.3514 1.2728 0 .3515-.3515.3515-.9214 0-1.2728l-16.20001-16.20003c-.35147-.35147-.92132-.35147-1.27279 0-.35147.35148-.35147.92132 0 1.2728l1.12849 1.12849c-1.43046 1.71625-2.29208 3.92573-2.29208 6.33514 0 2.7335 1.10908 5.2098 2.89964 7.0003zm-1.09964-7.0003c0 2.237.90563 4.2607 2.37243 5.7275s3.49056 2.3725 5.72756 2.3725c1.9129 0 3.6698-.6622 5.056-1.7713l-1.5691-1.569c-.9765.7164-2.1828 1.1403-3.4869 1.1403-1.629 0-3.10522-.6614-4.17192-1.7281-1.06671-1.0667-1.72807-2.5429-1.72807-4.1719 0-1.3042.42388-2.51038 1.14028-3.48694l-1.56903-1.56904c-1.10904 1.38612-1.77125 3.14308-1.77125 5.05598zm4 0c0 1.1324.45792 2.1562 1.20086 2.8991.74294.743 1.76673 1.2009 2.89913 1.2009.8067 0 1.5583-.2324 2.1925-.6347l-1.6454-1.6455c-.6613.1988-1.401.0133-1.8906-.4763s-.67509-1.2293-.4763-1.8906l-1.64551-1.64544c-.40229.63424-.63468 1.38574-.63468 2.19254z"/></g></svg>
