<svg xmlns="http://www.w3.org/2000/svg" width="24" height="24" fill="currentColor" viewBox="0 0 24 24"><path fill-rule="evenodd" d="M5 5a9.872 9.872 0 0 1 7-2.9c2.733 0 5.21 1.11 7 2.9a9.872 9.872 0 0 1 2.9 7c0 2.733-1.11 5.21-2.9 7a9.872 9.872 0 0 1-7 2.9A9.872 9.872 0 0 1 5 19a9.872 9.872 0 0 1-2.9-7c0-2.734 1.11-5.21 2.9-7Zm7-1.1c-2.237 0-4.26.906-5.728 2.372A8.072 8.072 0 0 0 3.9 12c0 2.237.906 4.26 2.372 5.727A8.072 8.072 0 0 0 12 20.1a8.07 8.07 0 0 0 5.727-2.373A8.072 8.072 0 0 0 20.1 12c0-2.237-.906-4.26-2.373-5.728A8.072 8.072 0 0 0 12 3.9Z" clip-rule="evenodd"/><path fill-rule="evenodd" d="M7.828 7.828A5.884 5.884 0 0 1 12 6.1c1.629 0 3.105.661 4.172 1.728A5.884 5.884 0 0 1 17.9 12a5.884 5.884 0 0 1-1.728 4.172A5.884 5.884 0 0 1 12 17.9a5.884 5.884 0 0 1-4.172-1.728A5.884 5.884 0 0 1 6.1 12c0-1.629.661-3.105 1.728-4.172ZM12 7.9a4.084 4.084 0 0 0-2.9 1.2A4.084 4.084 0 0 0 7.9 12c0 1.132.458 2.156 1.2 2.9a4.084 4.084 0 0 0 2.9 1.2 4.084 4.084 0 0 0 2.9-1.2 4.084 4.084 0 0 0 1.2-2.9 4.084 4.084 0 0 0-1.2-2.9A4.084 4.084 0 0 0 12 7.9Z" clip-rule="evenodd"/><path fill-rule="evenodd" d="M13.344 10.656a1.897 1.897 0 0 0-2.688 0 1.897 1.897 0 0 0 0 2.688 1.897 1.897 0 0 0 2.688 0 1.897 1.897 0 0 0 0-2.688Z" clip-rule="evenodd"/></svg>
