<svg fill="none" height="24" viewBox="0 0 24 24" width="24" xmlns="http://www.w3.org/2000/svg"><g clip-rule="evenodd" fill="currentColor" fill-rule="evenodd"><path d="m4.99964 4.99962c1.79056-1.79056 4.2668-2.89964 7.00036-2.89964 2.7336 0 5.2098 1.10908 7.0004 2.89964 1.7905 1.79056 2.8996 4.26679 2.8996 7.00038 0 2.7335-1.1091 5.2098-2.8996 7.0003-1.7906 1.7906-4.2668 2.8997-7.0004 2.8997-2.73356 0-5.2098-1.1091-7.00036-2.8997-1.79056-1.7905-2.89964-4.2668-2.89964-7.0003 0-2.73359 1.10908-5.20982 2.89964-7.00038zm7.00036-1.09964c-2.237 0-4.26077.90563-5.72757 2.37243-1.46679 1.4668-2.37243 3.49056-2.37243 5.72759 0 2.237.90564 4.2607 2.37243 5.7275 1.4668 1.4668 3.49057 2.3725 5.72757 2.3725s4.2608-.9057 5.7276-2.3725 2.3724-3.4905 2.3724-5.7275c0-2.23703-.9056-4.26079-2.3724-5.72759s-3.4906-2.37243-5.7276-2.37243z"/><path d="m7.82807 7.82805c1.0667-1.06671 2.54293-1.72807 4.17193-1.72807s3.1052.66136 4.1719 1.72807c1.0667 1.0667 1.7281 2.54295 1.7281 4.17195s-.6614 3.1052-1.7281 4.1719-2.5429 1.7281-4.1719 1.7281-3.10523-.6614-4.17193-1.7281c-1.06671-1.0667-1.72807-2.5429-1.72807-4.1719s.66136-3.10525 1.72807-4.17195zm4.17193.07193c-1.1324 0-2.1562.45792-2.89914 1.20086s-1.20086 1.76666-1.20086 2.89916c0 1.1324.45792 2.1562 1.20086 2.8991.74294.743 1.76674 1.2009 2.89914 1.2009s2.1562-.4579 2.8991-1.2009c.743-.7429 1.2009-1.7667 1.2009-2.8991 0-1.1325-.4579-2.15622-1.2009-2.89916-.7429-.74294-1.7667-1.20086-2.8991-1.20086z"/><path d="m13.3435 10.6565c-.3428-.3429-.8191-.5565-1.3435-.5565s-1.0007.2136-1.3435.5565c-.3429.3428-.5565.8191-.5565 1.3435s.2136 1.0006.5565 1.3435c.3428.3428.8191.5565 1.3435.5565s1.0007-.2137 1.3435-.5565c.3428-.3429.5565-.8191.5565-1.3435s-.2137-1.0007-.5565-1.3435z"/></g></svg>
