<svg xmlns="http://www.w3.org/2000/svg" width="24" height="24" fill="currentColor" viewBox="0 0 24 24"><path fill-rule="evenodd" d="M12.002 3.8a3.849 3.849 0 0 0-3.85 3.847c0 2.457 1.457 5.1 2.788 6.977.551.778 1.6.776 2.149-.004 1.32-1.875 2.763-4.517 2.763-6.973a3.849 3.849 0 0 0-3.85-3.847Zm-5.65 3.847c0-3.12 2.53-5.647 5.65-5.647 3.12 0 5.65 2.528 5.65 5.647 0 3.048-1.737 6.084-3.091 8.009-1.265 1.797-3.819 1.801-5.09.01-1.364-1.926-3.119-4.966-3.119-8.02Z M13.752 7.75a1.75 1.75 0 1 1-3.5 0 1.75 1.75 0 0 1 3.5 0Z M17.211 14.32a.9.9 0 0 1 1.268-.109c.833.7 1.526 1.589 1.526 2.789 0 1.753-1.064 3.038-2.539 3.836-1.456.789-3.394 1.166-5.466 1.166-2.09 0-4.027-.432-5.475-1.244C5.077 19.945 4 18.669 4 17c0-1.189.712-2.096 1.514-2.783a.9.9 0 1 1 1.172 1.366c-.652.559-.886 1.01-.886 1.417 0 .789.492 1.563 1.605 2.188 1.112.623 2.725 1.014 4.595 1.014 1.888 0 3.502-.349 4.609-.948 1.087-.59 1.596-1.356 1.596-2.254 0-.42-.22-.853-.884-1.411a.9.9 0 0 1-.11-1.268Z" clip-rule="evenodd"/></svg>
