<svg width="24" height="24" viewBox="0 0 24 24" fill="none" xmlns="http://www.w3.org/2000/svg">
<path fill-rule="evenodd" clip-rule="evenodd" d="M20.527 11.1248C20.0297 9.92419 19.0758 8.97029 17.8752 8.47297C17.5658 8.34485 17.2446 8.26303 16.9 8.20961V6.99998C16.9 4.29378 14.7062 2.09998 12 2.09998C9.29381 2.09998 7.10001 4.29378 7.10001 6.99998V8.20961C6.75541 8.26303 6.43416 8.34485 6.12486 8.47297C4.92422 8.97029 3.97032 9.92419 3.473 11.1248C3.26776 11.6203 3.18134 12.1464 3.14015 12.7501C3.1 13.3387 3.1 14.0632 3.10001 14.9677V15.0323C3.1 15.9368 3.1 16.6613 3.14015 17.2499C3.18134 17.8535 3.26776 18.3796 3.473 18.8751C3.97032 20.0758 4.92422 21.0297 6.12486 21.527C6.62034 21.7322 7.14647 21.8186 7.75012 21.8598C8.3387 21.9 9.06321 21.9 9.9677 21.9H14.0323C14.9368 21.9 15.6613 21.9 16.2499 21.8598C16.8535 21.8186 17.3797 21.7322 17.8752 21.527C19.0758 21.0297 20.0297 20.0758 20.527 18.8751C20.7323 18.3796 20.8187 17.8535 20.8599 17.2499C20.9 16.6613 20.9 15.9368 20.9 15.0323V14.9676C20.9 14.0631 20.9 13.3387 20.8599 12.7501C20.8187 12.1464 20.7323 11.6203 20.527 11.1248ZM7.87265 9.93595C7.36064 9.97088 7.05329 10.0367 6.81369 10.1359C6.0541 10.4506 5.45061 11.0541 5.13598 11.8137C5.03673 12.0533 4.97091 12.3606 4.93598 12.8726C4.90049 13.3927 4.90001 14.0558 4.90001 15C4.90001 15.9442 4.90049 16.6072 4.93598 17.1273C4.97091 17.6393 5.03673 17.9467 5.13598 18.1863C5.45061 18.9459 6.0541 19.5494 6.81369 19.864C7.05329 19.9632 7.36064 20.0291 7.87265 20.064C8.39273 20.0995 9.05581 20.1 10 20.1H14C14.9442 20.1 15.6073 20.0995 16.1274 20.064C16.6394 20.0291 16.9467 19.9632 17.1863 19.864C17.9459 19.5494 18.5494 18.9459 18.864 18.1863C18.9633 17.9467 19.0291 17.6393 19.064 17.1273C19.0995 16.6072 19.1 15.9442 19.1 15C19.1 14.0558 19.0995 13.3927 19.064 12.8726C19.0291 12.3606 18.9633 12.0533 18.864 11.8137C18.5494 11.0541 17.9459 10.4506 17.1863 10.1359C16.9467 10.0367 16.6394 9.97088 16.1274 9.93595C15.6073 9.90046 14.9442 9.89998 14 9.89998H10C9.05581 9.89998 8.39273 9.90046 7.87265 9.93595ZM9.96769 8.09998H14.0323C14.4201 8.09997 14.7749 8.09997 15.1 8.10313V6.99998C15.1 5.28789 13.7121 3.89998 12 3.89998C10.2879 3.89998 8.90001 5.28789 8.90001 6.99998V8.10313C9.22513 8.09997 9.57986 8.09997 9.96769 8.09998Z" fill="currentColor"/>
<path fill-rule="evenodd" clip-rule="evenodd" d="M12 13C12.5523 13 13 13.4477 13 14V16C13 16.5523 12.5523 17 12 17C11.4477 17 11 16.5523 11 16V14C11 13.4477 11.4477 13 12 13Z" fill="currentColor"/>
</svg>
