<svg xmlns="http://www.w3.org/2000/svg" width="24" height="24" fill="currentColor" viewBox="0 0 24 24"><path fill-rule="evenodd" d="M12 13a1 1 0 0 1 1 1v2a1 1 0 1 1-2 0v-2a1 1 0 0 1 1-1Z" clip-rule="evenodd"/><path fill-rule="evenodd" d="M18.77 8.525c-.578-.295-1.23-.373-1.87-.403V7a4.9 4.9 0 1 0-9.8 0v1.122c-.64.03-1.292.108-1.87.403a3.9 3.9 0 0 0-1.705 1.704c-.239.47-.336.971-.381 1.527-.044.537-.044 1.198-.044 2.006v2.476c0 .808 0 1.469.044 2.006.045.556.142 1.058.381 1.526a3.9 3.9 0 0 0 1.704 1.705c.47.239.971.336 1.527.381.537.044 1.198.044 2.006.044h6.476c.808 0 1.469 0 2.006-.044.556-.045 1.058-.142 1.527-.381a3.9 3.9 0 0 0 1.704-1.705c.239-.468.336-.97.381-1.526.044-.537.044-1.198.044-2.006v-2.476c0-.808 0-1.469-.044-2.006-.045-.556-.142-1.058-.381-1.527a3.9 3.9 0 0 0-1.704-1.704ZM6.904 9.938c-.445.036-.684.103-.856.19a2.1 2.1 0 0 0-.918.919c-.088.172-.155.411-.191.856-.037.455-.038 1.042-.038 1.897v2.4c0 .855 0 1.442.038 1.897.036.445.103.683.19.856a2.1 2.1 0 0 0 .919.918c.172.088.411.155.856.191.455.037 1.042.038 1.897.038h6.4c.855 0 1.442 0 1.897-.038.445-.036.683-.103.856-.19a2.1 2.1 0 0 0 .918-.919c.088-.172.155-.411.191-.856.037-.455.038-1.042.038-1.897v-2.4c0-.855 0-1.442-.038-1.897-.036-.445-.103-.684-.19-.856a2.1 2.1 0 0 0-.919-.918c-.172-.088-.411-.155-.856-.191C16.642 9.9 16.055 9.9 15.2 9.9H8.8c-.855 0-1.442 0-1.897.038ZM15.1 7a3.1 3.1 0 1 0-6.2 0v1.1h6.2V7Z" clip-rule="evenodd"/><path fill-rule="evenodd" d="M13 14a1 1 0 1 0-2 0v2a1 1 0 1 0 2 0v-2Z" clip-rule="evenodd"/></svg>
