<svg xmlns="http://www.w3.org/2000/svg" width="24" height="24" fill="currentColor" viewBox="0 0 24 24"><path d="M10.867 7.245a1.613 1.613 0 0 1 2.283 0 1.605 1.605 0 0 1 0 2.277 1.613 1.613 0 0 1-2.283 0 1.605 1.605 0 0 1-.475-1.139c0-.443.192-.846.475-1.138Z"/><path fill-rule="evenodd" d="M3.396 3.397C2 4.804 2 7.075 2 11.598v.804c0 4.533 0 6.794 1.406 8.201C4.813 22 7.083 22 11.603 22h.804c4.52 0 6.8 0 8.197-1.397C22 19.196 22 16.925 22 12.402v-.804c0-4.523 0-6.804-1.396-8.201C19.197 2 16.927 2 12.407 2h-.804c-4.53 0-6.79 0-8.207 1.397Zm8.602 8.533a3.547 3.547 0 0 0 3.545-3.537 3.547 3.547 0 0 0-3.545-3.536c-.98 0-1.868.403-2.505 1.038a3.494 3.494 0 0 0-1.04 2.498c0 .988.404 1.864 1.04 2.499a3.565 3.565 0 0 0 2.505 1.038Zm4.788 1.43-1.04-1.42a.17.17 0 0 0-.253-.02c-.98.836-2.192 1.38-3.495 1.38s-2.504-.544-3.494-1.38a.187.187 0 0 0-.253.02l-1.04 1.42a.17.17 0 0 0 .02.222 7.504 7.504 0 0 0 2.96 1.44l-2.202 3.869c-.061.11.02.252.141.252h2.151c.071 0 .132-.04.152-.111l1.535-3.425 1.535 3.425c.02.06.081.11.152.11h2.151c.131 0 .202-.13.141-.251l-2.201-3.869c1.06-.252 2.08-.715 2.959-1.44.131-.06.141-.151.08-.222Z" clip-rule="evenodd"/></svg>
