<svg xmlns="http://www.w3.org/2000/svg" width="24" height="24" fill="currentColor" viewBox="0 0 24 24"><path d="M16.465 3.263a1 1 0 0 0-1.93-.526l-1.5 5.5a1 1 0 1 0 1.93.526l1.5-5.5ZM9.495 2.9a1 1 0 1 0-1.99.2l.5 5a1 1 0 0 0 1.99-.2l-.5-5ZM5.25 12.69c-.594.917-.75 1.99-.75 2.739C4.5 19.68 8.278 22 12 22c2.471 0 4.36-.811 5.634-2.08a6.37 6.37 0 0 0 1.866-4.499c-.002-1.641-.682-3.494-1.995-4.687a.9.9 0 1 0-1.21 1.332c.919.835 1.4 2.143 1.405 3.369a4.544 4.544 0 0 1-1.335 3.21C15.472 19.534 14.06 20.2 12 20.2c-3.135 0-5.7-1.876-5.7-4.771 0-.548.122-1.239.46-1.762.302-.466.812-.867 1.812-.867.122 0 .38-.002.693.134.297.128.698.404 1.03 1.069a.9.9 0 1 0 1.61-.806c-.525-1.049-1.246-1.623-1.928-1.916A3.539 3.539 0 0 0 8.571 11c-1.617 0-2.691.715-3.322 1.69Z"/></svg>
