<svg width="24" height="24" viewBox="0 0 24 24" fill="none" xmlns="http://www.w3.org/2000/svg">
<path d="m10.8671 7.24482c.2929-.29216.6969-.4735 1.1413-.4735.4545 0 .8484.18134 1.1413.4735.2929.29217.4747.69515.4747 1.13843 0 .45335-.1818.84626-.4747 1.13842s-.6969.47351-1.1413.47351c-.4545 0-.8484-.18135-1.1413-.47351s-.4747-.69514-.4747-1.13842.1919-.84626.4747-1.13843z" fill="currentColor"/>
<path fill-rule="evenodd" clip-rule="evenodd" d="m3.39628 3.39698c-1.39628 1.40704-1.39628 3.6784-1.39628 8.20102v.804c0 4.5327 0 6.794 1.40633 8.201 1.40633 1.397 3.67654 1.397 8.19687 1.397h.8036c4.5204 0 6.8006 0 8.1969-1.397 1.3963-1.407 1.3963-3.6784 1.3963-8.201v-.804c0-4.52262 0-6.80403-1.3963-8.20102-1.4063-1.39698-3.6765-1.39698-8.1969-1.39698h-.8036c-4.53037 0-6.79054 0-8.20692 1.39698zm8.60202 8.53252c.9797 0 1.8685-.403 2.5048-1.0377s1.0403-1.52125 1.0403-2.49848-.404-1.86379-1.0403-2.49848c-.6363-.6347-1.5251-1.03768-2.5048-1.03768s-1.8685.40298-2.5048 1.03768c-.6363.62462-1.0403 1.51118-1.0403 2.49848 0 .98731.404 1.86378 1.0403 2.49848s1.5352 1.0377 2.5048 1.0377zm4.7874 1.4306-1.0403-1.4206c-.0606-.0806-.1818-.0906-.2525-.0201-.9797.8362-2.1917 1.3802-3.4946 1.3802s-2.50478-.544-3.49458-1.3802c-.0707-.0605-.1919-.0504-.2525.0201l-1.04031 1.4206c-.0505.0705-.0404.1611.0202.2216.87871.7052 1.89881 1.1888 2.95929 1.4407l-2.20178 3.8686c-.0606.1108.0202.2518.1414.2518h2.15128c.0707 0 .1313-.0403.1515-.1108l1.5352-3.4253 1.5352 3.4253c.0202.0605.0808.1108.1515.1108h2.1513c.1313 0 .202-.1309.1414-.2518l-2.2018-3.8686c1.0605-.2519 2.0806-.7153 2.9593-1.4407.1313-.0605.1414-.1511.0808-.2216z" fill="currentColor"/>
</svg>