<svg width="24" height="24" viewBox="0 0 24 24" fill="none" xmlns="http://www.w3.org/2000/svg"><path d="M14.76 3C19.8 3 21 4.2 21 9.24V14.76C21 19.8 19.8 21 14.76 21H9.24C4.2 21 3 19.8 3 14.76V9.24C3 4.2 4.2 3 9.24 3H14.76Z" fill="#2787F5"/><path d="M7.68755 8.625H6.37505C6.00005 8.625 5.92505 8.80153 5.92505 8.99619C5.92505 9.34383 6.37002 11.0681 7.99689 13.3485C9.08146 14.9058 10.6096 15.75 12.0001 15.75C12.8343 15.75 12.9376 15.5625 12.9376 15.2395V14.0625C12.9376 13.6875 13.0166 13.6127 13.2808 13.6127C13.4754 13.6127 13.8092 13.71 14.5879 14.4609C15.4778 15.3508 15.6245 15.75 16.1251 15.75H17.4376C17.8126 15.75 18.0001 15.5625 17.8919 15.1925C17.7735 14.8237 17.3486 14.2886 16.7849 13.6544C16.4789 13.2928 16.0201 12.9035 15.881 12.7088C15.6863 12.4586 15.742 12.3473 15.881 12.1248L15.9044 12.0917C16.1021 11.8106 17.492 9.81759 17.647 9.10746C17.7304 8.82935 17.647 8.625 17.2501 8.625H15.9376C15.6038 8.625 15.45 8.80153 15.3665 8.99619C15.3665 8.99619 14.6991 10.6231 13.7535 11.6799C13.4476 11.9858 13.3086 12.0831 13.1417 12.0831C13.0583 12.0831 12.9375 11.9858 12.9375 11.7077V9.10746C12.9375 8.77373 12.8407 8.625 12.5626 8.625H10.5001C10.2915 8.625 10.1661 8.77989 10.1661 8.92668C10.1661 9.24305 10.6388 9.31601 10.6876 10.2059V12.1387C10.6876 12.5625 10.611 12.6393 10.4442 12.6393C9.99922 12.6393 8.91689 11.0052 8.27497 9.13526C8.14917 8.77181 8.02299 8.625 7.68755 8.625Z" fill="white"/></svg>
