<svg fill="none" height="24" viewBox="0 0 24 24" width="24" xmlns="http://www.w3.org/2000/svg"><path clip-rule="evenodd" d="m4.2653 4.2653c-1.2653 1.2653-1.2653 3.30177-1.2653 7.3747v.72c0 4.0729 0 6.1094 1.2653 7.3747s3.30176 1.2653 7.3747 1.2653h.72c4.0729 0 6.1094 0 7.3747-1.2653s1.2653-3.3018 1.2653-7.3747v-.72c0-4.07293 0-6.1094-1.2653-7.3747s-3.3018-1.2653-7.3747-1.2653h-.72c-4.07294 0-6.1094 0-7.3747 1.2653z" fill="#07f" fill-rule="evenodd"/><path d="m12.6095 16c-4.05374 0-6.51314-2.8177-6.6095-7.5h2.05309c.06401 3.4395 1.62594 4.897 2.82331 5.1967v-5.1967h1.9675v2.9683c1.1549-.1282 2.3637-1.47839 2.7701-2.9683h1.9365c-.3099 1.8321-1.6259 3.1823-2.5557 3.7392.9305.4503 2.4277 1.629 3.0052 3.7608h-2.1286c-.4495-1.4251-1.5504-2.5288-3.0268-2.6787v2.6787z" fill="#fff"/></svg>
