<svg fill="none" height="24" viewBox="0 0 24 24" width="24" xmlns="http://www.w3.org/2000/svg"><g fill="currentColor"><path d="m5.37366 8.39668c-.17401.09198-.36226-.09628-.27028-.27029l.99184-1.87637-.99184-1.87637c-.09198-.174.09627-.36226.27028-.27028l1.87637.99184 1.87637-.99184c.17401-.09198.36226.09628.27028.27028l-.99184 1.87637.99184 1.87637c.09198.17401-.09627.36227-.27028.27029l-1.87637-.99184z"/><path d="m17.25 6.90484-1.8763.99184c-.174.09198-.3623-.09628-.2703-.27029l.9918-1.87637-.9918-1.87637c-.092-.174.0963-.36226.2703-.27028l1.8763.99184 1.8764-.99184c.174-.09198.3623.09628.2703.27028l-.9919 1.87637.9919 1.87637c.092.17401-.0963.36227-.2703.27029z"/><path d="m15.3737 17.3967c-.174.092-.3623-.0963-.2703-.2703l.9918-1.8764-.9918-1.8763c-.092-.1741.0963-.3623.2703-.2703l1.8763.9918 1.8764-.9918c.174-.092.3623.0962.2703.2703l-.9919 1.8763.9919 1.8764c.092.174-.0963.3623-.2703.2703l-1.8764-.9919z"/><path clip-rule="evenodd" d="m13.1364 10.3636c.3515.3515.3515.9214 0 1.2728l-9.5 9.5c-.35147.3515-.92132.3515-1.27279 0-.35147-.3514-.35147-.9213 0-1.2728l9.49999-9.5c.3515-.3514.9213-.3514 1.2728 0z" fill-rule="evenodd"/></g></svg>
