<svg xmlns="http://www.w3.org/2000/svg" width="24" height="24" fill="currentColor" viewBox="0 0 24 24"><path d="M8.7 3A1.7 1.7 0 0 0 7 4.7h10A1.7 1.7 0 0 0 15.3 3H8.7Z"/><path fill-rule="evenodd" d="M3.49 8.457C3 9.42 3 10.68 3 13.2v.6c0 2.52 0 3.78.49 4.743a4.5 4.5 0 0 0 1.967 1.966C6.42 21 7.68 21 10.2 21h3.6c2.52 0 3.78 0 4.743-.49a4.5 4.5 0 0 0 1.966-1.967C21 17.58 21 16.32 21 13.8v-.6c0-2.52 0-3.78-.49-4.743a4.5 4.5 0 0 0-1.967-1.967C17.58 6 16.32 6 13.8 6h-3.6c-2.52 0-3.78 0-4.743.49A4.5 4.5 0 0 0 3.49 8.457ZM13.8 7.8h-3.6c-1.29 0-2.149.001-2.809.055-.64.053-.932.145-1.117.24a2.7 2.7 0 0 0-.542.364l4.076 4.076c.505.506.847.846 1.131 1.087.277.235.44.323.567.364a1.6 1.6 0 0 0 .988 0c.128-.041.29-.129.567-.364.284-.24.626-.581 1.131-1.087l4.076-4.076a2.699 2.699 0 0 0-.542-.365c-.185-.094-.478-.186-1.117-.239-.66-.054-1.52-.055-2.809-.055Zm-8.945 2.591a7.73 7.73 0 0 1 .023-.24l3.683 3.683c.473.473.866.866 1.213 1.16.362.308.732.56 1.175.704a3.401 3.401 0 0 0 2.102 0c.443-.144.813-.396 1.175-.703.347-.295.74-.688 1.213-1.161l3.683-3.683c.008.074.016.154.023.24.054.66.055 1.52.055 2.809v.6c0 1.29-.001 2.149-.055 2.809-.052.64-.145.931-.24 1.117a2.7 2.7 0 0 1-1.18 1.18c-.184.094-.477.187-1.116.239-.66.054-1.52.055-2.809.055h-3.6c-1.29 0-2.149-.001-2.809-.055-.64-.052-.932-.145-1.117-.24a2.7 2.7 0 0 1-1.18-1.18c-.094-.184-.186-.477-.239-1.116-.054-.66-.055-1.52-.055-2.809v-.6c0-1.29.001-2.149.055-2.809Z" clip-rule="evenodd"/></svg>
