<svg xmlns="http://www.w3.org/2000/svg" width="24" height="24" fill="currentColor" viewBox="0 0 24 24"><path d="M12 1.5a5 5 0 0 1 5 5h1.757c.78 0 1.063.081 1.348.234.285.152.509.376.661.661.153.285.234.568.234 1.348v6.25c0 2.019-.22 2.803-.634 3.577a4.316 4.316 0 0 1-1.796 1.796c-.774.413-1.558.634-3.578.634H9.008c-2.02 0-2.804-.22-3.578-.634a4.316 4.316 0 0 1-1.796-1.796C3.22 17.796 3 17.012 3 14.992V8.743c0-.78.081-1.063.234-1.348a1.59 1.59 0 0 1 .661-.661c.285-.153.568-.234 1.348-.234H7a5 5 0 0 1 5-5Zm4.156 6.75h-.062a.944.944 0 0 0-.46.1.681.681 0 0 0-.284.284.944.944 0 0 0-.1.46v.062c0 .193.035.338.1.46a.681.681 0 0 0 .284.284c.122.065.267.1.46.1h.062a.944.944 0 0 0 .46-.1.681.681 0 0 0 .284-.284.944.944 0 0 0 .1-.46v-.062a.944.944 0 0 0-.1-.46.681.681 0 0 0-.284-.284.944.944 0 0 0-.46-.1Zm-8.25 0h-.062a.944.944 0 0 0-.46.1.682.682 0 0 0-.284.284.944.944 0 0 0-.1.46v.062c0 .193.035.338.1.46a.682.682 0 0 0 .284.284c.122.065.267.1.46.1h.062a.944.944 0 0 0 .46-.1.682.682 0 0 0 .284-.284.944.944 0 0 0 .1-.46v-.062a.944.944 0 0 0-.1-.46.682.682 0 0 0-.284-.284.944.944 0 0 0-.46-.1Zm4.094-5A3.25 3.25 0 0 0 8.75 6.5h6.5A3.25 3.25 0 0 0 12 3.25Z"/></svg>
