<svg xmlns="http://www.w3.org/2000/svg" width="24" height="24" fill="currentColor" viewBox="0 0 24 24"><path fill-rule="evenodd" d="M3.5 21h1.7c.147 0 .22-.012.29-.029a.6.6 0 0 0 .173-.072c.06-.037.113-.089.216-.192l.693-.694h.084l1.154-.004c1.201-.004 1.802-.006 2.365-.147a4.8 4.8 0 0 0 1.41-.604c.49-.31.906-.744 1.738-1.61l5.82-6.064c1.044-1.088 1.563-1.632 1.745-2.249a2.64 2.64 0 0 0-.052-1.653c-.22-.604-.772-1.114-1.883-2.134l-.867-.797-.093-.085c-1.003-.922-1.522-1.4-2.104-1.566a2.64 2.64 0 0 0-1.606.049c-.572.202-1.063.71-2.012 1.695l-.083.086-6.033 6.255c-.795.824-1.192 1.236-1.476 1.713a4.8 4.8 0 0 0-.55 1.36c-.126.54-.126 1.113-.126 2.258v.854c0 .13 0 .194.003.255a2.4 2.4 0 0 0 .066.449l-1.275 1.275c-.514.514-.78.771-.797.992a.593.593 0 0 0 .2.503c.168.144.573.156 1.3.156ZM17.736 6.874l-.867-.797c-.555-.51-.892-.817-1.163-1.028a2.193 2.193 0 0 0-.257-.18.5.5 0 0 0-.046-.023l-.008-.003h-.002a.841.841 0 0 0-.511.015h-.002l-.007.004a.508.508 0 0 0-.046.027 2.195 2.195 0 0 0-.245.194c-.257.226-.576.555-1.098 1.096l-5.304 5.5 4.447 4.094 5.217-5.436c.543-.565.874-.912 1.1-1.19.178-.219.216-.308.221-.322a.84.84 0 0 0-.016-.526c-.006-.013-.05-.1-.241-.307-.243-.263-.595-.588-1.172-1.118Zm-11.51 6.945a3 3 0 0 0-.344.85c-.068.29-.079.619-.079 1.847v1.017a.6.6 0 0 0 .251.458l.024.016.114.073.062.04.013.008a.6.6 0 0 0 .294.085h.089l1.153-.004c1.29-.004 1.634-.018 1.937-.093a3 3 0 0 0 .881-.378c.184-.117.36-.27.756-.67l-4.445-4.092c-.437.462-.59.649-.706.843Z" clip-rule="evenodd"/></svg>
