<svg width="24" height="24" viewBox="0 0 24 24" fill="none" xmlns="http://www.w3.org/2000/svg">
<path d="M12 1.10001C14.7614 1.10001 17 3.33858 17 6.10001H17.0542C18.3915 6.10001 18.8764 6.23924 19.3653 6.50071C19.8542 6.76217 20.2378 7.14585 20.4993 7.63474C20.7608 8.12363 20.9 8.60855 20.9 9.94583V14.8344C20.9 16.9234 20.6795 17.6959 20.2656 18.47C19.8516 19.2441 19.2441 19.8516 18.47 20.2656C17.6959 20.6795 16.9234 20.9 14.8344 20.9H9.16565C7.07659 20.9 6.30407 20.6795 5.53 20.2656C4.75592 19.8516 4.14843 19.2441 3.73445 18.47C3.32047 17.6959 3.10001 16.9234 3.10001 14.8344V9.94583C3.10001 8.60855 3.23924 8.12363 3.50071 7.63474C3.76217 7.14585 4.14585 6.76217 4.63474 6.50071C5.12363 6.23924 5.60856 6.10001 6.94583 6.10001H7.00001C7.00001 3.33858 9.23858 1.10001 12 1.10001ZM17.2469 7.90078L6.94583 7.90001C5.99835 7.90001 5.7428 7.94935 5.48362 8.08797C5.30841 8.18167 5.18167 8.30841 5.08797 8.48362C4.94935 8.7428 4.90001 8.99834 4.90001 9.94583V14.8344C4.90001 16.4694 5.01053 17.0393 5.32171 17.6211C5.56793 18.0815 5.91848 18.4321 6.37888 18.6783C6.96073 18.9895 7.53064 19.1 9.16565 19.1H14.8344C16.4694 19.1 17.0393 18.9895 17.6211 18.6783C18.0815 18.4321 18.4321 18.0815 18.6783 17.6211C18.9895 17.0393 19.1 16.4694 19.1 14.8344V9.94583C19.1 8.99834 19.0507 8.7428 18.912 8.48362C18.8183 8.30841 18.6916 8.18167 18.5164 8.08797C18.2757 7.95925 18.0382 7.90751 17.2469 7.90078ZM15.946 9.00001C16.1514 9.00001 16.2941 9.03482 16.4163 9.10018C16.5385 9.16555 16.6345 9.26147 16.6998 9.38369C16.7652 9.50591 16.8 9.64864 16.8 9.85399V9.94602C16.8 10.1514 16.7652 10.2941 16.6998 10.4163C16.6345 10.5385 16.5385 10.6345 16.4163 10.6998C16.2941 10.7652 16.1514 10.8 15.946 10.8H15.854C15.6486 10.8 15.5059 10.7652 15.3837 10.6998C15.2615 10.6345 15.1655 10.5385 15.1002 10.4163C15.0348 10.2941 15 10.1514 15 9.94602V9.85399C15 9.64864 15.0348 9.50591 15.1002 9.38369C15.1655 9.26147 15.2615 9.16555 15.3837 9.10018C15.5059 9.03482 15.6486 9.00001 15.854 9.00001H15.946ZM7.94602 9.00001C8.15137 9.00001 8.2941 9.03482 8.41632 9.10018C8.53855 9.16555 8.63447 9.26147 8.69983 9.38369C8.7652 9.50591 8.80001 9.64864 8.80001 9.85399V9.94602C8.80001 10.1514 8.7652 10.2941 8.69983 10.4163C8.63447 10.5385 8.53855 10.6345 8.41632 10.6998C8.2941 10.7652 8.15137 10.8 7.94602 10.8H7.85399C7.64864 10.8 7.50591 10.7652 7.38369 10.6998C7.26147 10.6345 7.16555 10.5385 7.10018 10.4163C7.03482 10.2941 7.00001 10.1514 7.00001 9.94602V9.85399C7.00001 9.64864 7.03482 9.50591 7.10018 9.38369C7.16555 9.26147 7.26147 9.16555 7.38369 9.10018C7.50591 9.03482 7.64864 9.00001 7.85399 9.00001H7.94602ZM12 2.90001C10.2327 2.90001 8.80001 4.3327 8.80001 6.10001H15.2C15.2 4.3327 13.7673 2.90001 12 2.90001Z" fill="currentColor"/>
</svg>
