<?xml version="1.0" encoding="UTF-8"?>
<svg width="24px" height="24px" viewBox="0 0 24 24" version="1.1" xmlns="http://www.w3.org/2000/svg" xmlns:xlink="http://www.w3.org/1999/xlink">
    <!-- Generator: Sketch 50.2 (55047) - http://www.bohemiancoding.com/sketch -->
    <title>market_24</title>
    <desc>Created with Sketch.</desc>
    <defs></defs>
    <g id="Page-2" stroke="none" stroke-width="1" fill="none" fill-rule="evenodd">
        <g id="market_24">
            <polygon id="Bounds" points="0 0 24 0 24 24 0 24"></polygon>
            <path d="M16,8 L18.0739689,8 C18.5965052,8 19.0309466,8.40230633 19.0710233,8.9233035 L19.8343544,18.846607 C19.919071,19.947923 19.0949544,20.9093924 17.9936384,20.994109 C17.9426016,20.9980349 17.891433,21 17.8402454,21 L6.15975459,21 C5.05518509,21 4.15975459,20.1045695 4.15975459,19 C4.15975459,18.9488125 4.16171971,18.8976438 4.16564562,18.846607 L4.92897665,8.9233035 C4.96905336,8.40230633 5.40349483,8 5.92603114,8 L8,8 L8,7 C8,4.790861 9.790861,3 12,3 C14.209139,3 16,4.790861 16,7 L16,8 Z M9.8,8 L14.2,8 L14.2,7 C14.2,5.78497355 13.2150264,4.8 12,4.8 C10.7849736,4.8 9.8,5.78497355 9.8,7 L9.8,8 Z" id="Mask" fill="currentColor" fill-rule="nonzero"></path>
        </g>
    </g>
</svg>
