<svg xmlns="http://www.w3.org/2000/svg" width="24" height="24" fill="none" viewBox="0 0 24 24"><path fill="currentColor" d="M12 13.8984c.8959 0 1.4556-.2942 1.8485-.5007.3608-.1896.5809-.3053.7915-.0513C15.08 13.8772 14.2 16 12 16s-3.08-2.1228-2.64-2.6536c.2106-.254.4307-.1383.7915.0513.3929.2065.9526.5007 1.8485.5007Zm3.9969-4.0143c-.0506-.5485-.7171-.9413-1.4886-.8773-.7715.064-1.3559.5605-1.3053 1.1091.0506.5485.7171.9413 1.4886.8773.7715-.064 1.3559-.5605 1.3053-1.109Zm-5.2.2318c.0507-.5486-.5337-1.045-1.3052-1.109-.7715-.064-1.438.3287-1.4886.8773-.0507.5485.5337 1.045 1.3052 1.109.7715.064 1.438-.3288 1.4886-.8773Z"/><path fill="currentColor" fill-rule="evenodd" d="M19.726 4.0327c1.9316 1.9962 1.4487 7.4856 0 10.9789C18.2774 18.5048 15.3801 21 12 21c-3.3801 0-6.2774-2.4952-7.726-5.9884-1.4487-3.4933-1.9316-8.9827 0-10.9789 1.2707-1.3133 2.5415-1.108 4.3623-.8139.9467.153 2.0422.33 3.3637.33 1.3215 0 2.4169-.177 3.3637-.33 1.8208-.294 3.0916-.4994 4.3623.814Zm-1.2935 1.2517c.1798.1858.4012.5644.5617 1.2342.1568.6543.2271 1.4704.2002 2.3894-.0542 1.8478-.4936 3.8769-1.1311 5.414C16.7936 17.3839 14.4229 19.2 12 19.2s-4.7936-1.8161-6.0633-4.878c-.6375-1.5371-1.0769-3.5662-1.131-5.414-.027-.919.0433-1.7351.2001-2.3894.1605-.6698.382-1.0484.5617-1.2342.3486-.3602.5971-.4418.8747-.4718.6384-.069 1.3089.0866 1.9352.1878.9428.1523 2.1563.3483 3.6226.3483s2.6798-.196 3.6226-.3483c.6263-.1012 1.2968-.2568 1.9352-.1878.2776.03.5261.1116.8747.4718Z" clip-rule="evenodd"/></svg>
