<svg fill="none" height="24" viewBox="0 0 24 24" width="24" xmlns="http://www.w3.org/2000/svg"><path clip-rule="evenodd" d="m8.70107 2.4354c.2584-.16161.52119-.27046.81818-.3389.29698-.06845.56495-.0965 1.33955-.0965h5.2954c1.3373 0 1.8222.13924 2.3111.4007s.8725.64514 1.134 1.13403.4007.97382.4007 2.3111v11.30837c0 1.3373-.1392 1.8222-.4007 2.3111s-.6451.8725-1.134 1.134-.9738.4007-2.3111.4007h-9.30837c-1.33728 0-1.82221-.1392-2.3111-.4007s-.87257-.6451-1.13403-1.134-.4007-.9738-.4007-2.3111v-7.29539c0-.77462.02805-1.04258.0965-1.33956.06844-.29699.17729-.55978.33889-.81818.16161-.2584.33125-.46771.87899-1.01545l3.37124-3.37124c.54774-.54774.75705-.71738 1.01545-.87898zm1.29893 2.5646c-.55228 0-1 .44772-1 1v2c0 .55228.44772 1 1 1 .5523 0 1-.44772 1-1v-2c0-.55228-.4477-1-1-1zm2 1c0-.55228.4477-1 1-1s1 .44772 1 1v2c0 .55228-.4477 1-1 1s-1-.44772-1-1zm4-1c-.5523 0-1 .44772-1 1v2c0 .55228.4477 1 1 1s1-.44772 1-1v-2c0-.55228-.4477-1-1-1z" fill="currentColor" fill-rule="evenodd"/></svg>
