<svg width="24" height="24" viewBox="0 0 24 24" fill="none" xmlns="http://www.w3.org/2000/svg">
<path d="M12.0066 22.869C9.9877 22.869 8.22559 22.4608 6.72021 21.6445C5.21483 20.8282 4.05179 19.6695 3.23107 18.1685C2.41035 16.6675 2 14.9164 2 12.9151V12.1909C2 10.1984 2.42791 8.42968 3.28374 6.88479C4.13957 5.33991 5.3421 4.13957 6.89138 3.28374C8.44065 2.42791 10.2115 2 12.2041 2H12.3094C14.1703 2 15.8358 2.38402 17.3061 3.15207C18.7764 3.92013 19.9263 4.98222 20.7558 6.33838C21.5853 7.69454 22 9.23282 22 10.9533V11.6116C22 12.7878 21.8069 13.828 21.4207 14.7321C21.0345 15.6362 20.4946 16.3406 19.8012 16.8453C19.1077 17.35 18.309 17.6024 17.4049 17.6024C16.5885 17.6024 15.8863 17.4312 15.2982 17.0889C14.7101 16.7465 14.359 16.2989 14.2449 15.7459H14.1132C14.0167 16.0882 13.8236 16.402 13.5339 16.6873C13.2442 16.9726 12.8909 17.1964 12.474 17.3588C12.0571 17.5212 11.6204 17.6024 11.1639 17.6024C10.4441 17.6024 9.81655 17.4268 9.28111 17.0757C8.74566 16.7246 8.33312 16.2243 8.04345 15.5747C7.75378 14.9252 7.60895 14.1571 7.60895 13.2706V11.9539C7.60895 11.0937 7.75598 10.3432 8.05003 9.70244C8.34409 9.06166 8.76541 8.57011 9.31402 8.22778C9.86263 7.88545 10.5056 7.71429 11.2429 7.71429C11.8925 7.71429 12.463 7.87448 12.9546 8.19487C13.4461 8.51525 13.7709 8.93438 13.9289 9.45227H14.0342V9.10994C14.0342 8.75883 14.1308 8.48014 14.3239 8.27386C14.517 8.06759 14.7803 7.96445 15.1139 7.96445C15.4387 7.96445 15.6976 8.06759 15.8907 8.27386C16.0838 8.48014 16.1804 8.75883 16.1804 9.10994V14.3766C16.1804 14.8242 16.3164 15.1819 16.5885 15.4496C16.8607 15.7174 17.2161 15.8512 17.655 15.8512C18.1203 15.8512 18.5284 15.6713 18.8795 15.3114C19.2306 14.9515 19.5005 14.4402 19.6893 13.7775C19.878 13.1148 19.9724 12.3401 19.9724 11.4536V11.0191C19.9724 9.64098 19.6454 8.40773 18.9914 7.31929C18.3375 6.23085 17.429 5.37942 16.266 4.76498C15.1029 4.15054 13.7841 3.84332 12.3094 3.84332H12.2041C10.6065 3.84332 9.19334 4.19442 7.96445 4.89664C6.73557 5.59886 5.781 6.58854 5.10072 7.8657C4.42045 9.14286 4.08032 10.6109 4.08032 12.2699V12.8361C4.08032 14.4863 4.40948 15.9324 5.06781 17.1745C5.72614 18.4165 6.65876 19.3733 7.8657 20.0448C9.07264 20.7163 10.4793 21.052 12.0856 21.052H12.1909C12.7878 21.052 13.5295 20.9862 14.4161 20.8545C14.8813 20.7931 15.1841 20.7623 15.3246 20.7623C15.5791 20.7623 15.7898 20.8391 15.9566 20.9928C16.1233 21.1464 16.2067 21.3417 16.2067 21.5787C16.2067 21.8157 16.1365 22.0176 15.996 22.1843C15.8556 22.3511 15.6537 22.4696 15.3904 22.5398C14.5389 22.7593 13.4505 22.869 12.1251 22.869H12.0066ZM9.89993 12.9677C9.89993 13.8543 10.0689 14.528 10.4068 14.9888C10.7448 15.4496 11.2429 15.6801 11.9013 15.6801C12.5508 15.6801 13.0467 15.4584 13.3891 15.0151C13.7314 14.5719 13.9026 13.9289 13.9026 13.0862V12.0198C13.9026 11.2473 13.7204 10.6373 13.3562 10.1896C12.9919 9.74193 12.4981 9.5181 11.8749 9.5181C11.2517 9.5181 10.7667 9.75291 10.42 10.2225C10.0733 10.6921 9.89993 11.3483 9.89993 12.1909V12.9677Z" fill="currentColor"/>
</svg>
