<?xml version="1.0" encoding="UTF-8"?>
<svg width="24px" height="34px" viewBox="0 0 24 34" version="1.1" xmlns="http://www.w3.org/2000/svg" xmlns:xlink="http://www.w3.org/1999/xlink">
    <!-- Generator: Sketch 50.2 (55047) - http://www.bohemiancoding.com/sketch -->
    <title>mention_24</title>
    <desc>Created with Sketch.</desc>
    <defs></defs>
    <g id="Page-2" stroke="none" stroke-width="1" fill="none" fill-rule="evenodd">
        <g id="mention_24">
            <rect id="Mask" x="0" y="7" width="24" height="24"></rect>
            <path d="M12.0065833,29.8689928 C9.98770112,29.8689928 8.22559454,29.4608336 6.72021066,28.644503 C5.21482679,27.8281724 4.05179256,26.6695269 3.23107307,25.1685319 C2.41035359,23.6675369 2,21.9164024 2,19.9150757 L2,19.1909151 C2,17.1983662 2.42790882,15.4296764 3.2837393,13.8847926 C4.13956978,12.3399089 5.34210329,11.1395698 6.89137591,10.2837393 C8.44064852,9.42790882 10.2115327,9 12.2040816,9 L12.3094141,9 C14.1702968,9 15.8358496,9.38402074 17.3061224,10.1520737 C18.7763953,10.9201267 19.9262631,11.9822184 20.7557604,13.3383805 C21.5852576,14.6945427 22,16.23282 22,17.9532587 L22,18.6115866 C22,19.7878049 21.8068924,20.8279525 21.4206715,21.7320606 C21.0344506,22.6361687 20.4946271,23.3405724 19.801185,23.845293 C19.1077429,24.3500135 18.3089797,24.60237 17.4048716,24.60237 C16.588541,24.60237 15.8863317,24.4312065 15.2982225,24.0888743 C14.7101134,23.7465421 14.3590087,23.2988836 14.244898,22.7458855 L14.1132324,22.7458855 C14.0166772,23.0882176 13.8235696,23.4020174 13.5339039,23.6872943 C13.2442382,23.9725711 12.8909391,24.1964003 12.4739961,24.3587887 C12.057053,24.521177 11.6203666,24.60237 11.1639236,24.60237 C10.4441483,24.60237 9.81654865,24.4268176 9.28110599,24.0757077 C8.74566333,23.7245978 8.33311534,23.2242736 8.04344964,22.5747202 C7.75378394,21.9251668 7.60895326,21.1571253 7.60895326,20.2705727 L7.60895326,18.9539171 C7.60895326,18.0936977 7.75597834,17.3432115 8.05003292,16.7024358 C8.34408749,16.0616602 8.7654131,15.5701136 9.31402238,15.2277814 C9.86263167,14.8854492 10.5055921,14.7142857 11.242923,14.7142857 C11.8924764,14.7142857 12.4630215,14.8744772 12.9545754,15.194865 C13.4461293,15.5152529 13.7709011,15.9343841 13.9289006,16.4522712 L14.034233,16.4522712 L14.034233,16.1099408 C14.034233,15.7588308 14.1307868,15.4801415 14.3238973,15.2738644 C14.5170078,15.0675873 14.7803363,14.9644503 15.1138907,14.9644503 C15.4386674,14.9644503 15.6976071,15.0675873 15.8907176,15.2738644 C16.083828,15.4801415 16.1803818,15.7588308 16.1803818,16.1099408 L16.1803818,21.3765635 C16.1803818,21.8242287 16.3164349,22.1819166 16.5885451,22.4496379 C16.8606553,22.7173592 17.2161488,22.8512179 17.6550362,22.8512179 C18.1202569,22.8512179 18.5284161,22.6712768 18.879526,22.3113891 C19.2306359,21.9515014 19.5005477,21.4402052 19.6892693,20.7774852 C19.8779908,20.1147652 19.9723502,19.3401405 19.9723502,18.4535879 L19.9723502,18.0190915 C19.9723502,16.640985 19.645384,15.4077298 18.9914417,14.319289 C18.3374995,13.2308482 17.4290161,12.3794194 16.2659645,11.764977 C15.1029128,11.1505346 13.7840758,10.843318 12.3094141,10.843318 L12.2040816,10.843318 C10.6065314,10.843318 9.19333509,11.1944226 7.9644503,11.8966425 C6.7355655,12.5988624 5.78099967,13.5885387 5.10072416,14.8657011 C4.42044865,16.1428635 4.080316,17.6109199 4.080316,19.2699144 L4.080316,19.8360764 C4.080316,21.4862931 4.40947663,22.9324055 5.06780777,24.1744569 C5.72613891,25.4165083 6.6587607,26.3732685 7.86570112,27.0447663 C9.07264154,27.7162641 10.4792546,28.0520079 12.0855826,28.0520079 L12.1909151,28.0520079 C12.787802,28.0520079 13.5295106,27.9861758 14.4160632,27.8545095 C14.8812839,27.7930653 15.1841117,27.7623436 15.3245556,27.7623436 C15.5791103,27.7623436 15.7897731,27.8391478 15.9565504,27.9927584 C16.1233276,28.146369 16.2067149,28.341671 16.2067149,28.5786702 C16.2067149,28.8156694 16.136494,29.0175546 15.99605,29.1843318 C15.8556061,29.351109 15.6537209,29.4696068 15.3903884,29.5398288 C14.5389468,29.7592725 13.4505223,29.8689928 12.1250823,29.8689928 L12.0065833,29.8689928 Z M9.89993417,19.9677419 C9.89993417,20.8542945 10.0689033,21.5279766 10.4068466,21.9888084 C10.7447899,22.4496402 11.2429197,22.6800527 11.9012508,22.6800527 C12.5508042,22.6800527 13.0467396,22.4584178 13.3890718,22.0151415 C13.7314039,21.5718652 13.9025675,20.9289048 13.9025675,20.0862409 L13.9025675,19.0197498 C13.9025675,18.247308 13.7204319,17.6372636 13.3561554,17.1895984 C12.9918788,16.7419332 12.4981379,16.518104 11.8749177,16.518104 C11.2516976,16.518104 10.7667342,16.7529053 10.4200132,17.2225148 C10.0732921,17.6921244 9.89993417,18.3482512 9.89993417,19.1909151 L9.89993417,19.9677419 Z" id="Mask" fill="currentColor"></path>
        </g>
    </g>
</svg>
