<svg fill="none" height="24" width="24" xmlns="http://www.w3.org/2000/svg"><g clip-rule="evenodd" fill="currentColor" fill-rule="evenodd"><path d="m12.016 4.9c-4.6 0-8.084 3.172-8.084 6.807 0 1.306.437 2.532 1.21 3.571a.9.9 0 0 1 .177.537c0 .9-.236 1.77-.525 2.553-.173.467-.377.933-.574 1.367 1.714-.194 2.835-.75 3.513-1.547a.9.9 0 0 1 1.002-.26c1 .376 2.11.586 3.28.586 4.6 0 8.085-3.172 8.085-6.807s-3.485-6.807-8.084-6.807zm-8.164 15.646.002-.003zm-1.72-8.84c0-4.877 4.56-8.606 9.884-8.606s9.884 3.729 9.884 8.607-4.56 8.607-9.884 8.607c-1.173 0-2.3-.178-3.348-.506-1.248 1.153-3.052 1.705-5.248 1.792-.927.036-1.598-.927-1.209-1.792.077-.173.155-.344.232-.513.237-.518.468-1.024.662-1.55.217-.587.364-1.138.404-1.656a7.72 7.72 0 0 1 -1.377-4.381z"/><path d="m7.6 11.5a.9.9 0 0 1 .9-.9h7a.9.9 0 0 1 0 1.8h-7a.9.9 0 0 1 -.9-.9z"/><path d="m12.264 8.264a.9.9 0 0 1 1.272 0l2.6 2.6a.9.9 0 0 1 0 1.272l-2.6 2.6a.9.9 0 0 1 -1.272-1.272l1.963-1.964-1.963-1.964a.9.9 0 0 1 0-1.272z"/></g></svg>
