<svg xmlns="http://www.w3.org/2000/svg" width="24" height="24" fill="currentColor" viewBox="0 0 24 24"><path fill-rule="evenodd" d="M12.016 4.9c-4.6 0-8.084 3.172-8.084 6.807 0 1.306.437 2.532 1.21 3.571a.9.9 0 0 1 .177.537c0 .9-.236 1.77-.525 2.553-.173.467-.377.933-.574 1.367 1.714-.194 2.835-.75 3.513-1.547a.9.9 0 0 1 1.002-.26c1 .376 2.11.586 3.28.586 4.6 0 8.085-3.172 8.085-6.807a5.81 5.81 0 0 0-.414-2.152.9.9 0 0 1 1.674-.664c.35.882.54 1.83.54 2.816 0 4.878-4.56 8.607-9.884 8.607-1.173 0-2.3-.178-3.348-.506C7.42 20.961 5.616 21.513 3.42 21.6c-.927.036-1.598-.927-1.209-1.792.077-.173.155-.344.232-.513a22.77 22.77 0 0 0 .662-1.55c.217-.587.364-1.138.404-1.656a7.72 7.72 0 0 1-1.377-4.381c0-4.878 4.56-8.607 9.884-8.607.59 0 1.167.045 1.73.131a.9.9 0 0 1-.274 1.78 9.6 9.6 0 0 0-1.456-.111Z M19.5 5.75a1.75 1.75 0 1 1-3.5 0 1.75 1.75 0 0 1 3.5 0Z"/></svg>
