<svg xmlns="http://www.w3.org/2000/svg" width="24" height="24" fill="currentColor" viewBox="0 0 24 24"><path fill-rule="evenodd" d="M3.932 11.707c0-3.635 3.485-6.807 8.084-6.807 4.6 0 8.084 3.172 8.084 6.807 0 3.634-3.485 6.807-8.084 6.807a9.336 9.336 0 0 1-3.281-.586.9.9 0 0 0-1.002.26c-.678.797-1.8 1.353-3.513 1.547.197-.434.4-.9.574-1.367.289-.783.525-1.653.525-2.553a.9.9 0 0 0-.177-.537c-.773-1.04-1.21-2.265-1.21-3.571ZM12.016 3.1c-5.325 0-9.884 3.729-9.884 8.607a7.72 7.72 0 0 0 1.377 4.38c-.04.519-.187 1.07-.404 1.657a22.77 22.77 0 0 1-.662 1.55c-.077.17-.155.34-.232.513-.39.865.282 1.828 1.21 1.792 2.195-.086 4-.638 5.247-1.79a11.21 11.21 0 0 0 3.348.505c5.324 0 9.884-3.73 9.884-8.607 0-4.878-4.56-8.607-9.884-8.607Zm.232 10.401a1.75 1.75 0 1 0 0-3.498 1.75 1.75 0 0 0 0 3.498Z" clip-rule="evenodd"/></svg>
