<svg fill="none" height="24" viewBox="0 0 24 24" width="24" xmlns="http://www.w3.org/2000/svg"><g clip-rule="evenodd" fill="currentColor" fill-rule="evenodd"><path d="m12.0158 4.90001c-3.07652 0-5.70201 1.44406-7.06484 3.49951-.27468.41427-.83317.52743-1.24744.25276s-.52744-.83317-.25276-1.24744c1.72748-2.60543 4.94379-4.30483 8.56504-4.30483 5.3244 0 9.8842 3.72883 9.8842 8.60679 0 4.878-4.5598 8.6068-9.8842 8.6068-1.1725 0-2.30006-.1777-3.34754-.5055-1.24808 1.153-3.05237 1.7047-5.24814 1.7909-.92692.0364-1.59842-.9272-1.20902-1.7924.52852-1.1824 1.19721-2.4028 1.29753-3.7188-.12055-.1761-.23416-.3566-.34043-.5412-.24794-.4308-.0997-.9811.33111-1.229.4308-.248.98103-.0997 1.22897.3311.12442.2162.26244.4262.41333.6293.11536.1552.17765.3434.17765.5368 0 1.3797-.5397 2.6838-1.09896 3.9206 1.71341-.1942 2.83494-.7506 3.51269-1.5475.24582-.289.64651-.3928 1.00176-.2595.99997.3752 2.10955.5852 3.28105.5852 4.5992 0 8.0842-3.1721 8.0842-6.8068 0-3.63474-3.485-6.80679-8.0842-6.80679z"/><path d="m10.8636 8.2636c.3515-.35147.9213-.35147 1.2728 0l2.6 2.6c.3514.3515.3514.9213 0 1.2728l-2.5999 2.6c-.3515.3514-.9213.3514-1.2728 0-.3515-.3515-.3515-.9213 0-1.2728l1.0635-1.0636h-9.0272c-.49706 0-.9-.4029-.9-.9s.40294-.9.9-.9h9.0272l-1.0636-1.0636c-.3515-.35148-.3515-.92132 0-1.2728z"/></g></svg>
