<svg width="24" height="24" fill="none" xmlns="http://www.w3.org/2000/svg"><path fill-rule="evenodd" clip-rule="evenodd" d="M11.656 3.96a.9.9 0 01.944-.854c5.063.257 9.3 3.896 9.3 8.596 0 4.88-4.56 8.61-9.884 8.61-1.173 0-2.3-.177-3.348-.505C7.42 20.961 5.616 21.513 3.42 21.6c-.927.036-1.598-.928-1.209-1.793.077-.173.155-.344.232-.513.237-.518.468-1.025.662-1.551.217-.587.364-1.139.404-1.657a7.77 7.77 0 01-1.346-3.695.9.9 0 111.792-.163 6.007 6.007 0 001.187 3.048.9.9 0 01.177.537c0 .9-.236 1.771-.525 2.554-.173.468-.377.933-.574 1.369 1.714-.195 2.835-.752 3.513-1.549a.9.9 0 011.002-.26c1 .376 2.11.586 3.28.586 4.6 0 8.085-3.174 8.085-6.81 0-3.506-3.232-6.576-7.591-6.798a.9.9 0 01-.853-.944zM3.852 20.546l.002-.004-.002.003z" fill="currentColor"/><path d="M7.465 10.176l3.148-2.465c.173-.135.26-.203.316-.268a.95.95 0 000-1.26c-.057-.065-.143-.133-.316-.268L7.465 3.45c-.206-.161-.309-.242-.385-.278a.75.75 0 00-1.051.512c-.019.083-.019.213-.019.475v1.053c-2.53.398-3.477 2.075-3.822 3.446-.059.234-.088.35-.089.417a.535.535 0 00.725.526c.062-.02.234-.128.577-.344a4.838 4.838 0 012.609-.743v.953c0 .261 0 .392.019.474a.75.75 0 001.05.513c.077-.036.18-.117.386-.278z" fill="currentColor"/></svg>
