<svg fill="none" height="24" viewBox="0 0 24 24" width="24" xmlns="http://www.w3.org/2000/svg"><path clip-rule="evenodd" d="m13.3972 7.59786 3.1482 2.46384c.2058.161.3087.2416.3848.2775.4336.2044.945-.0448 1.0512-.5122.0186-.08207.0186-.21274.0186-.47409v-.95281c1.0995 0 1.9668.33991 2.6087.7429.3434.21564.5152.32345.5775.3443.3763.12588.728-.12967.7245-.52647-.0006-.0657-.03-.18246-.0888-.41596-.3453-1.37126-1.2913-3.04671-3.8219-3.44477v-1.05279c0-.26135 0-.39202-.0186-.47409-.1062-.4674-.6176-.71656-1.0512-.51216-.0761.03589-.179.11642-.3848.2775l-3.1482 2.46379c-.1728.13524-.2592.20286-.3165.26749-.3189.35967-.3189.90086 0 1.26053.0573.06462.1437.13228.3165.26749zm-2.0232-2.67768c.496-.03195.8722-.45995.8403-.95598-.032-.49603-.46-.87225-.956-.8403-4.99884.32195-9.15825 3.93606-9.15825 8.5905 0 1.6054.50428 3.1033 1.37261 4.375-.03458.2888-.12289.6836-.28746 1.2005-.21735.6826-.54989 1.5242-1.00481 2.5304-.28939.6402-.00506 1.3937.63508 1.6831.17998.0814.37645.1197.57384.112 2.20015-.0863 4.00768-.6389 5.25724-1.7928 1.04934.3281 2.17885.5061 3.35345.5061 5.0976 0 9.4801-3.3989 9.8721-7.9626.0426-.4952-.3244-.9312-.8196-.9737-.4952-.0426-.9312.3244-.9737.8196-.2939 3.4205-3.6862 6.3167-8.0788 6.3167-1.1737 0-2.28529-.2102-3.28716-.5858-.35511-.1332-.75556-.0294-1.00134.2594-.68076.8-1.80973 1.3583-3.53614 1.5512.30227-.7119.54488-1.3518.725-1.9175.24154-.7586.38984-1.4414.38984-2.0096 0-.1935-.06233-.3818-.17775-.537-.77433-1.0414-1.2124-2.2682-1.2124-3.575 0-3.47211 3.17061-6.51706 7.47395-6.79422z" fill="currentColor" fill-rule="evenodd"/></svg>
