<svg xmlns="http://www.w3.org/2000/svg" fill="none" viewBox="0 0 24 24"><path fill="currentColor" fill-rule="evenodd" d="M12.0158 4.9c-4.5993 0-8.0842 3.172-8.0842 6.8068 0 1.306.4376 2.5318 1.21 3.5712a.8998.8998 0 0 1 .1777.5368c0 .8998-.2365 1.7704-.5258 2.5529-.1728.4674-.3765.9328-.5732 1.3677 1.7134-.1942 2.835-.7506 3.5127-1.5475a.9.9 0 0 1 1.0018-.2595c1 .3752 2.1095.5852 3.281.5852 4.5992 0 8.0842-3.1721 8.0842-6.8068 0-.7519-.1449-1.475-.4135-2.1521a.9.9 0 0 1 1.6732-.6637c.3497.8815.5403 1.8295.5403 2.8158 0 4.878-4.5598 8.6068-9.8842 8.6068-1.1725 0-2.3-.1777-3.3475-.5055-1.2481 1.153-3.0524 1.7047-5.2482 1.7909-.9269.0364-1.5984-.9272-1.209-1.7924a72.647 72.647 0 0 1 .2323-.5126c.2361-.5176.4672-1.0242.6618-1.5505.2167-.5861.364-1.1376.4034-1.6557-.8708-1.2721-1.377-2.7726-1.377-4.381 0-4.878 4.5597-8.6068 9.8842-8.6068.5893 0 1.1674.045 1.7296.1312a.9.9 0 0 1 .753 1.0261.9.9 0 0 1-1.0261.753A9.5993 9.5993 0 0 0 12.0158 4.9Z" clip-rule="evenodd"/><path fill="#000" d="M19.5 5.75c0 .9665-.7835 1.75-1.75 1.75S16 6.7165 16 5.75 16.7835 4 17.75 4s1.75.7835 1.75 1.75Z"/></svg>
