<svg xmlns="http://www.w3.org/2000/svg" width="24" height="24" fill="none" viewBox="0 0 24 24"><path fill="currentColor" fill-rule="evenodd" d="M12.3471 3.967a.9.9 0 0 1-.8507.9468c-4.3466.2324-7.5648 3.296-7.5648 6.793 0 1.306.4376 2.5318 1.21 3.5712a.8998.8998 0 0 1 .1777.5368c0 .8998-.2365 1.7704-.5258 2.5529-.1728.4674-.3765.9328-.5732 1.3677 1.7134-.1942 2.835-.7506 3.5127-1.5475a.9.9 0 0 1 1.0018-.2595c1 .3752 2.1095.5852 3.281.5852 3.7598 0 6.8171-2.1459 7.7686-4.9193a.9.9 0 0 1 1.1433-.5592.9.9 0 0 1 .5593 1.1433c-1.2407 3.6165-5.0722 6.1352-9.4712 6.1352-1.1725 0-2.3-.1777-3.3475-.5055-1.248 1.153-3.0524 1.7047-5.2482 1.7909-.9269.0364-1.5984-.9272-1.209-1.7924a72.647 72.647 0 0 1 .2323-.5126c.2361-.5176.4672-1.0242.6618-1.5505.2167-.5861.364-1.1376.4035-1.6557-.8709-1.2721-1.3771-2.7726-1.3771-4.381 0-4.6887 4.2203-8.3205 9.2687-8.5904a.9.9 0 0 1 .9468.8507ZM3.8523 20.546l.0014-.0033-.0014.0033Z" clip-rule="evenodd"/><path fill="currentColor" d="m18.8179 3.0897 3.0935 3.096c.1904.1905.0542.535-.2219.535h-.4427a.758.758 0 0 0-.5358.2217l-1.4502 1.4494a.7569.7569 0 0 0-.2219.5354v2.5319c0 .4685-.5915.725-.9312.3855l-1.8404-1.8391-2.7309 2.7309a.9.9 0 0 1-1.2728 0 .9.9 0 0 1 0-1.2728l2.7305-2.7304-1.8403-1.839c-.3313-.331-.0927-.9308.3856-.9308h2.5335a.758.758 0 0 0 .5357-.2217l1.4507-1.4494a.7571.7571 0 0 0 .222-.5355v-.4452c0-.27.341-.4177.5366-.222Z"/></svg>
