<svg width="24" height="24" fill="none" xmlns="http://www.w3.org/2000/svg"><path fill-rule="evenodd" clip-rule="evenodd" d="M9.193 2.883A4.9 4.9 0 0116.9 6.9v3.018a.9.9 0 01-1.8 0V6.9a3.1 3.1 0 00-4.875-2.542.9.9 0 11-1.032-1.475zM7.1 11.1a4.9 4.9 0 007.729 4.001l1.449 1.45A7.007 7.007 0 0112 18a7.061 7.061 0 01-6.12-3.55.9.9 0 10-1.56.9 8.872 8.872 0 006.78 4.405V22.1a.9.9 0 101.8 0v-2.345a8.808 8.808 0 004.66-1.923l1.804 1.804a.9.9 0 001.272-1.272l-15-15a.9.9 0 00-1.272 1.272L7.1 7.373V11.1zm1.8 0a3.1 3.1 0 004.626 2.7L8.9 9.172V11.1z" fill="currentColor"/></svg>
