<svg fill="none" height="25" viewBox="0 0 24 25" width="24" xmlns="http://www.w3.org/2000/svg"><g fill="currentColor"><path d="m12 2c2.7614 0 5 2.23858 5 5v3.1c-.0159.5384-.4577.97-1 .97s-.9837-.4316-.9996-.97l-.0004-.03v-3.07c0-1.65133-1.3487-2.99-3-2.99-.6465 0-1.245.20517-1.7341.55395l-.0016-.00229c-.1644.11852-.3662.18834-.58431.18834-.55228 0-1-.44772-1-1 0-.33645.16616-.6341.4209-.81535l-.00419-.00586c.81849-.58473 1.8207-.92879 2.9033-.92879z"/><path clip-rule="evenodd" d="m13.0052 20.4694-.0002 2.5306c0 .555-.45 1.005-1.005 1.005s-1.005-.45-1.005-1.005l-.0001-2.5306c-3.63386-.2954-6.75549-2.7053-7.96815-6.1357-.18407-.5207.08882-1.0921.60953-1.2761.52071-.1841 1.09204.0888 1.27612.6095 1.01554 2.8728 3.74036 4.8329 6.8376 4.8329h.5c1.5836 0 3.0698-.5124 4.28-1.3972l-1.869-1.8689c-.7706.4853-1.683.7661-2.661.7661-2.76143 0-5-2.2386-5-5v-3.42716l-2.63642-2.63642c-.35147-.35147-.35147-.92132 0-1.27279s.92132-.35147 1.27279 0l15.50003 15.49997c.3514.3515.3514.9213 0 1.2728-.3515.3515-.9214.3515-1.2728 0l-1.9062-1.9061c-1.3973 1.0952-3.1089 1.7892-4.9522 1.9391zm-4.00113-10.89249.00593 1.42309c0 1.6513 1.3387 2.99 2.99 2.99.4178 0 .8156-.0857 1.1767-.2404z" fill-rule="evenodd"/><path d="m21.01 14.07c0 .5523-.4477 1-1 1s-1-.4477-1-1 .4477-1 1-1 1 .4477 1 1z"/></g></svg>
