<svg xmlns="http://www.w3.org/2000/svg" width="24" height="24" fill="currentColor" viewBox="0 0 24 24"><path fill-rule="evenodd" d="M15.994 4.978c-.206-.067-.493-.078-1.494-.078H7c-.715 0-1.197 0-1.569.031-.36.03-.538.083-.657.143a1.6 1.6 0 0 0-.7.7c-.06.119-.113.296-.143.657-.015.19-.023.407-.027.669h13.195c-.003-.684-.02-.918-.077-1.094a1.6 1.6 0 0 0-1.028-1.028ZM18.9 7.155c0-.692-.013-1.235-.166-1.706a3.4 3.4 0 0 0-2.183-2.183c-.516-.167-1.118-.167-1.907-.166H6.962c-.669 0-1.225 0-1.678.037-.473.039-.913.122-1.329.334A3.4 3.4 0 0 0 2.47 4.956c-.212.416-.295.856-.334 1.329-.037.453-.037 1.01-.037 1.678v8.074c0 .669 0 1.225.037 1.678.039.473.122.913.334 1.329a3.4 3.4 0 0 0 1.485 1.485c.416.212.856.295 1.329.334.453.037 1.01.037 1.678.037h11.964l-.963.964a.9.9 0 1 0 1.272 1.272l2.5-2.5a.9.9 0 0 0 0-1.272l-2.5-2.5a.9.9 0 1 0-1.272 1.272l.963.964H7c-.715 0-1.197 0-1.569-.031-.36-.03-.538-.083-.657-.143a1.6 1.6 0 0 1-.7-.7c-.06-.119-.113-.296-.143-.657-.03-.372-.031-.854-.031-1.569V8.9H17c.715 0 1.197 0 1.569.031.36.03.538.083.657.143a1.6 1.6 0 0 1 .7.7c.06.119.113.296.143.657.03.372.031.854.031 1.569v2.6a.9.9 0 0 0 1.8 0v-2.637c0-.669 0-1.224-.037-1.678-.039-.473-.122-.913-.334-1.329a3.4 3.4 0 0 0-1.485-1.485c-.361-.184-.74-.271-1.144-.316Zm-3 5.945a.9.9 0 1 0 0 1.8h1.2a.9.9 0 0 0 0-1.8h-1.2Z" clip-rule="evenodd"/></svg>
