<svg width="24" height="24" viewBox="0 0 24 24" fill="none" xmlns="http://www.w3.org/2000/svg">
<path d="M12 0.999985C18.0751 0.999985 23 5.92485 23 12C23 18.0751 18.0751 23 12 23C5.92487 23 1 18.0751 1 12C1 5.92485 5.92487 0.999985 12 0.999985ZM12 2.79998C6.91898 2.79998 2.8 6.91897 2.8 12C2.8 17.081 6.91898 21.2 12 21.2C17.081 21.2 21.2 17.081 21.2 12C21.2 6.91897 17.081 2.79998 12 2.79998ZM13.2529 7C15.107 7 16.61 8.50304 16.61 10.3571C16.61 12.2112 15.107 13.7143 13.2529 13.7143L11 13.714V15H12.5C12.9142 15 13.25 15.3358 13.25 15.75C13.25 16.1642 12.9142 16.5 12.5 16.5H11V17.15C11 17.6194 10.6194 18 10.15 18C9.68056 18 9.3 17.6194 9.3 17.15L9.299 16.5H8.5C8.08579 16.5 7.75 16.1642 7.75 15.75C7.75 15.3358 8.08579 15 8.5 15H9.299V13.714L8.60714 13.7143C8.13376 13.7143 7.75 13.3305 7.75 12.8571C7.75 12.3838 8.13376 12 8.60714 12H9.299L9.3 7.85C9.3 7.38056 9.68056 7 10.15 7H13.2529ZM13.2857 8.57143H11V12H13.2857C14.2325 12 15 11.2325 15 10.2857C15 9.33894 14.2325 8.57143 13.2857 8.57143Z" fill="currentColor"/>
</svg>
