<svg xmlns="http://www.w3.org/2000/svg" width="24" height="24" fill="currentColor" viewBox="0 0 24 24"><path fill-rule="evenodd" d="M5.985 5.517a2.65 2.65 0 0 1 5.12-1.372l.792 2.955h6.633c.444 0 .834 0 1.153.027.337.03.689.094 1.021.282.482.27.855.699 1.057 1.213.14.355.155.712.138 1.05-.017.32-.07.706-.132 1.146l-.005.036-.104.75-.005.036c-.132.948-.237 1.71-.371 2.325-.139.634-.32 1.177-.634 1.67a4.901 4.901 0 0 1-2.248 1.888v.312c0 .53 0 .982-.03 1.352-.032.39-.102.768-.286 1.13a2.9 2.9 0 0 1-1.267 1.267c-.362.184-.741.254-1.13.286-.37.03-.822.03-1.352.03h-4.67c-.53 0-.981 0-1.352-.03-.39-.032-.768-.102-1.13-.286a2.9 2.9 0 0 1-1.267-1.267c-.184-.362-.254-.74-.286-1.13-.03-.37-.03-.822-.03-1.352v-.312a4.9 4.9 0 0 1-2.248-1.887c-.315-.494-.496-1.037-.634-1.67-.134-.616-.24-1.378-.371-2.326l-.005-.036-.104-.75-.005-.036c-.061-.44-.115-.826-.132-1.146-.018-.338-.001-.695.138-1.05a2.4 2.4 0 0 1 1.057-1.213c.332-.188.683-.253 1.02-.282.32-.027.71-.027 1.154-.027h.94l-.425-1.583ZM8.273 7.1h1.76l-.667-2.49a.85.85 0 1 0-1.642.44l.55 2.05Zm1.243 9h4.968c.972 0 1.656-.001 2.196-.043.54-.041.867-.119 1.129-.239a3.1 3.1 0 0 0 1.322-1.15c.155-.244.277-.557.392-1.086.117-.54.214-1.234.352-2.225l.104-.75c.068-.487.11-.796.122-1.03.012-.224-.011-.286-.015-.297a.6.6 0 0 0-.264-.303c-.01-.005-.068-.037-.293-.056-.233-.02-.544-.021-1.035-.021H5.506c-.491 0-.802 0-1.036.02-.224.02-.282.052-.292.057a.6.6 0 0 0-.264.303c-.004.011-.027.073-.015.297.012.234.054.543.122 1.03l.104.75c.138.992.235 1.685.352 2.225.115.528.237.842.392 1.085a3.1 3.1 0 0 0 1.322 1.151c.262.12.59.198 1.129.24.54.04 1.225.042 2.196.042Zm-.073 1.8H7.4c0 .52.002.869.024 1.14.023.278.062.393.096.46a1.1 1.1 0 0 0 .48.48c.066.034.182.073.46.096.288.023.665.024 1.24.024h4.6c.575 0 .952 0 1.24-.024.278-.023.394-.062.46-.096a1.1 1.1 0 0 0 .48-.48c.034-.067.073-.182.096-.46.022-.271.024-.62.024-1.14H9.443Z" clip-rule="evenodd"/></svg>
