<svg fill="none" height="24" viewBox="0 0 24 24" width="24" xmlns="http://www.w3.org/2000/svg"><g fill="currentColor"><path d="m9.24872 12.8301c.32887-.3727.29332-.9414-.07939-1.2703s-.94145-.2933-1.27032.0794l-3.97854 4.509c-1.05824 1.1994-1.00156 3.0148.12943 4.1458 1.13098 1.131 2.94641 1.1876 4.14574.1294l4.50836-3.978c.3727-.3288.4083-.8976.0794-1.2703s-.8976-.4082-1.2703-.0794l-4.50838 3.978c-.4866.4293-1.22316.4064-1.68203-.0525s-.48187-1.1955-.05252-1.6821z"/><path clip-rule="evenodd" d="m16.1 12.3c2.3196 0 4.2-1.8804 4.2-4.20002 0-2.3196-1.8804-4.2-4.2-4.2s-4.2 1.8804-4.2 4.2c0 2.31962 1.8804 4.20002 4.2 4.20002zm0 1.8c3.3137 0 6-2.6863 6-6.00002 0-3.31371-2.6863-6-6-6s-6 2.68629-6 6c0 3.31372 2.6863 6.00002 6 6.00002z" fill-rule="evenodd"/></g></svg>
