<svg fill="none" height="24" viewBox="0 0 24 24" width="24" xmlns="http://www.w3.org/2000/svg"><g clip-rule="evenodd" fill="currentColor" fill-rule="evenodd"><path d="m16 4.8c-1.7673 0-3.2 1.43269-3.2 3.2s1.4327 3.2 3.2 3.2 3.2-1.43269 3.2-3.2-1.4327-3.2-3.2-3.2zm-5 3.2c0-2.76142 2.2386-5 5-5s5 2.23858 5 5c0 2.7614-2.2386 5-5 5s-5-2.2386-5-5z"/><path d="m9.68339 11.0141c.37901.3218.42511.8898.10313 1.2686l-4.80228 5.6486c-.25975.3055-.24135.7591.04231 1.0426.2838.2837.73798.3019 1.04365.042l5.6457-4.8014c.3788-.3221.9471-.2763 1.2694.1022.3223.3786.2765.9466-.1022 1.2687l-5.64579 4.8014c-1.02049.8678-2.53677.8069-3.48424-.1401-.94699-.9465-1.00845-2.461-.14126-3.481l4.80228-5.6485c.32203-.3788.89031-.425 1.2693-.1031z"/></g></svg>
