<svg width="24" height="24" viewBox="0 0 24 24" fill="none" xmlns="http://www.w3.org/2000/svg">
<path fill-rule="evenodd" clip-rule="evenodd" d="M8.22777 3.09998C6.65812 3.09998 5.90846 3.22664 5.14631 3.63424C4.49677 3.98161 3.98164 4.49675 3.63426 5.14628C3.22666 5.90843 3.1 6.65809 3.1 8.22775V15.7722C3.1 17.3419 3.22666 18.0915 3.63426 18.8537C3.98164 19.5032 4.49677 20.0183 5.14631 20.3657C5.90846 20.7733 6.65812 20.9 8.22777 20.9H15.7722C17.3419 20.9 18.0915 20.7733 18.8537 20.3657C19.5032 20.0183 20.0184 19.5032 20.3657 18.8537C20.7733 18.0915 20.9 17.3419 20.9 15.7722V8.22775C20.9 6.6581 20.7733 5.90843 20.3657 5.14628C20.0184 4.49675 19.5032 3.98161 18.8537 3.63424C18.0915 3.22664 17.3419 3.09998 15.7722 3.09998H8.22777ZM5.99518 5.2215C6.35717 5.02791 6.7411 4.89998 8.22777 4.89998H15.7722C17.2589 4.89998 17.6428 5.02791 18.0048 5.2215C18.3407 5.40112 18.5989 5.65931 18.7785 5.99516C18.9664 6.34655 19.0925 6.71862 19.0997 8.1H4.90033C4.90754 6.71862 5.0336 6.34655 5.22153 5.99516C5.40114 5.65931 5.65934 5.40112 5.99518 5.2215ZM4.9 9.9V15.7722C4.9 17.2589 5.02794 17.6428 5.22153 18.0048C5.40114 18.3406 5.65934 18.5988 5.99518 18.7784C6.35717 18.972 6.7411 19.1 8.22777 19.1H15.7722C17.2589 19.1 17.6428 18.972 18.0048 18.7784C18.3407 18.5988 18.5989 18.3406 18.7785 18.0048C18.9721 17.6428 19.1 17.2589 19.1 15.7722V9.9H4.9Z" fill="currentColor"/>
</svg>
