<svg xmlns="http://www.w3.org/2000/svg" width="24" height="24" fill="none" viewBox="0 0 24 24"><path fill="currentColor" fill-rule="evenodd" d="M8.2278 3.1c-1.5697 0-2.3194.1267-3.0815.5343-.6496.3474-1.1647.8625-1.512 1.512C3.2265 5.9085 3.1 6.6581 3.1 8.2278v7.5444c0 1.5697.1266 2.3193.5342 3.0815.3474.6495.8625 1.1647 1.512 1.512.7622.4076 1.5119.5343 3.0816.5343h3.8698a.9.9 0 0 0 0-1.8H8.2278c-1.4867 0-1.8707-.1279-2.2326-.3215-.3359-.1796-.594-.4378-.7737-.7737-.1936-.362-.3215-.7459-.3215-2.2326V9.9H20a.9.9 0 0 0 .9-.9v-.7722c0-1.5697-.1267-2.3193-.5343-3.0815-.3474-.6495-.8625-1.1647-1.512-1.512-.7622-.4076-1.5118-.5343-3.0815-.5343H8.2278Zm10.8718 5H4.9003c.0072-1.3813.1333-1.7534.3212-2.1048.1796-.3359.4378-.594.7737-.7737.362-.1936.7459-.3215 2.2326-.3215h7.5444c1.4867 0 1.8706.128 2.2326.3215.3358.1797.594.4378.7736.7737.188.3514.314.7235.3212 2.1048Z" clip-rule="evenodd"/><path fill="currentColor" d="M15.511 21.4943c1.2361 1.2632 3.5107.0398 3.5107-2.3381v-3.3678l1.6518-.4501.1355-.0428c.7088-.2559 1.191-.943 1.191-1.7216v-1.0664l-.006-.0795c-.0433-.2838-.3152-.481-.5998-.4153-.883.2038-1.4995.358-1.861.4662l-.1721.0546c-.8806.2999-1.3455.9928-1.3321 1.9678l-.001 3.4117c-2.5704.1308-3.7958 2.2746-2.517 3.5813Zm-8.5102-8.7954a.9.9 0 0 1 .9-.9h7.2a.9.9 0 0 1 0 1.8h-7.2a.9.9 0 0 1-.9-.9ZM7.894 15.4a.9.9 0 0 0-.9.9.9.9 0 0 0 .9.9h5.1999a.9.9 0 0 0 .9-.9.9.9 0 0 0-.9-.9h-5.2Z"/></svg>
