<svg xmlns="http://www.w3.org/2000/svg" width="24" height="24" fill="currentColor" viewBox="0 0 24 24"><path d="M16.738 9.837a.9.9 0 0 0-1.273-1.273L10.2 13.827l-2.164-2.163a.9.9 0 0 0-1.272 1.273l2.8 2.8a.9.9 0 0 0 1.272 0l5.902-5.9Z M12.438 1.042a2.4 2.4 0 0 0-.873 0c-.33.06-.633.21-.95.367L4.774 4.285c-.309.152-.604.297-.85.514a2.4 2.4 0 0 0-.527.671c-.153.29-.225.61-.3.947l-1.46 6.544c-.074.33-.145.648-.13.97a2.4 2.4 0 0 0 .184.822c.125.298.325.554.534.821l4.071 5.22c.215.276.421.54.69.738.234.174.498.302.778.381.321.09.656.09 1.007.089h6.464c.35 0 .685 0 1.006-.089a2.4 2.4 0 0 0 .78-.38c.267-.198.473-.463.688-.74l4.07-5.219c.21-.267.41-.523.535-.82.11-.262.172-.54.185-.822.015-.323-.056-.64-.13-.971l-1.462-6.544c-.074-.336-.146-.658-.3-.947a2.399 2.399 0 0 0-.527-.67c-.245-.218-.54-.363-.85-.515L13.389 1.41c-.317-.157-.62-.306-.95-.367Zm-.546 1.77a.6.6 0 0 1 .219 0c.053.01.118.033.553.247l5.7 2.807c.425.209.482.245.52.28a.599.599 0 0 1 .133.168c.024.046.046.11.15.57l1.427 6.394c.101.454.108.52.106.573a.6.6 0 0 1-.046.205c-.02.048-.055.105-.342.472l-3.975 5.096c-.296.38-.344.429-.387.46a.599.599 0 0 1-.195.095c-.051.015-.12.023-.6.023H8.848c-.481 0-.55-.008-.601-.023a.6.6 0 0 1-.195-.095c-.043-.031-.091-.08-.387-.46L3.69 14.528c-.286-.367-.321-.424-.342-.472a.6.6 0 0 1-.046-.205c-.002-.052.005-.119.107-.573l1.427-6.393c.103-.461.125-.525.15-.571a.6.6 0 0 1 .131-.168c.04-.035.097-.071.52-.28l5.701-2.807c.435-.214.5-.238.553-.247Z" clip-rule="evenodd"/></svg>
