<svg fill="none" height="24" viewBox="0 0 24 24" width="24" xmlns="http://www.w3.org/2000/svg"><path clip-rule="evenodd" d="m15.9996 1.75c.4971 0 .9.40294.9.9v.57687c.4782.07486.914.198 1.3246.40717.922.46978 1.6716 1.21939 2.1413 2.14138.2934.57585.4176 1.20141.4766 1.92407.0575.70376.0575 1.57441.0575 2.66141v4.278c0 1.0871 0 1.9578-.0575 2.6616-.059.7226-.1832 1.3482-.4766 1.924-.4697.922-1.2193 1.6716-2.1413 2.1414-.5759.2934-1.2014.4175-1.9241.4766-.7038.0575-1.5744.0575-2.6615.0575h-3.2779c-1.08708 0-1.95782 0-2.66157-.0575-.72267-.0591-1.34823-.1832-1.92407-.4766-.922-.4698-1.6716-1.2194-2.14138-2.1414-.29341-.5758-.41754-1.2014-.47658-1.924-.0575-.7038-.0575-1.5745-.05749-2.6616v-4.2779c-.00001-1.08705-.00001-1.95773.05749-2.66151.05904-.72266.18317-1.34822.47658-1.92407.46978-.92199 1.21938-1.6716 2.14138-2.14138.41052-.20917.84632-.33231 1.32455-.40717v-.57687c0-.49706.40294-.9.9-.9s.9.40294.9.9v.45694c.438-.00697.92301-.00697 1.46099-.00696h.739v-.44998c0-.49706.403-.9.9-.9.4971 0 .9.40294.9.9v.44998h.739c.538-.00001 1.023-.00001 1.461.00696v-.45694c0-.49706.403-.9.9-.9zm-9.40736 3.48786c.14105-.07187.30306-.13136.50737-.17909v.29123c0 .49706.40294.9.9.9s.9-.40294.9-.9v-.44283c.42592-.00701.91863-.00719 1.49999-.00719h.7v.45002c0 .49706.403.9.9.9.4971 0 .9-.40294.9-.9v-.45002h.7c.5814 0 1.0741.00018 1.5.00719v.44283c0 .49706.403.9.9.9.4971 0 .9-.40294.9-.9v-.29123c.2043.04773.3663.10722.5074.17909.5833.2972 1.0575.77144 1.3547 1.35475.1426.2798.2365.64211.2864 1.25346.0508.62186.0515 1.41895.0515 2.55393v4.2c0 1.1349-.0007 1.932-.0515 2.5539-.0499.6113-.1438.9736-.2864 1.2534-.2972.5833-.7714 1.0576-1.3547 1.3548-.2798.1426-.6421.2364-1.2535.2864-.6218.0508-1.4189.0515-2.5539.0515h-3.2c-1.13495 0-1.93204-.0007-2.55389-.0515-.61136-.05-.97367-.1438-1.25347-.2864-.5833-.2972-1.05754-.7715-1.35475-1.3548-.14257-.2798-.23642-.6421-.28637-1.2534-.05081-.6219-.05151-1.419-.05151-2.5539v-4.2c0-1.13498.0007-1.93207.05151-2.55393.04995-.61135.1438-.97366.28637-1.25346.29721-.58331.77145-1.05755 1.35475-1.35475zm9.79376 5.64854c.3515-.3515.3515-.92135 0-1.27282s-.9213-.35147-1.2728 0l-4.1136 4.11362-1.86359-1.8636c-.35148-.3515-.92132-.3515-1.2728 0-.35147.3515-.35147.9213 0 1.2728l2.49999 2.5c.3515.3514.9213.3514 1.2728 0z" fill="currentColor" fill-rule="evenodd"/></svg>
