<svg fill="none" height="24" viewBox="0 0 24 24" width="24" xmlns="http://www.w3.org/2000/svg"><g clip-rule="evenodd" fill="currentColor" fill-rule="evenodd"><path d="m12.0041 2.09998c4.1625 0 6.8959 3.44588 6.8959 7.53158v1.59964c0 .2497.1462.5381.5785.9917.4733.4966 1.0159.9345 1.4011 1.509.3177.4738.5328 1.0429.5195 1.689-.0102.4969-.4213.8915-.9183.8813-.4969-.0102-.8915-.4214-.8813-.9183.0167-.815-.9306-1.4014-1.424-1.9191-.4743-.4977-1.0755-1.2349-1.0755-2.2336v-1.59964c0-3.3119-2.1344-5.73158-5.0959-5.73158-1.0079 0-1.8843.26857-2.62311.73533-.42022.26548-.97609.14003-1.24157-.28019s-.14003-.97609.28019-1.24157c1.02534-.64776 2.24949-1.01357 3.58449-1.01357z"/><path d="m16.3514 17.901c-.6292 2.3325-2.1305 3.5992-4.3514 3.5992-2.22126 0-3.7226-1.2671-4.35165-3.6002h-1.9115c-1.48796 0-2.4655-.5023-2.90218-1.4106-.19096-.3972-.23466-.7196-.23466-1.1622 0-1.2927.94193-2.156 1.77948-3.0202.52727-.544.72052-.8471.72052-1.0758 0-1.4931-.03774-2.96877.45476-4.40367l-2.29117-2.29116c-.35147-.35147-.35147-.92132 0-1.27279.35148-.35147.92132-.35147 1.2728 0l16.2 16.20002c.3515.3515.3515.9213 0 1.2728-.3515.3514-.9213.3514-1.2728 0l-2.8355-2.8356zm-6.81736.0008h4.93196c-.456 1.2467-1.2418 1.7984-2.466 1.7984s-2.01001-.5517-2.46596-1.7984zm-2.63403-6.6706c0-.9763-.06015-1.97129.12277-2.93566l7.80442 7.80446h-9.09035c-.84694 0-1.17262-.1674-1.27992-.3906-.33508-.6969.52092-1.4444.93396-1.8633.72206-.7311 1.50912-1.5175 1.50912-2.6149z"/></g></svg>
