<svg height="24" viewBox="0 0 24 24" width="24" xmlns="http://www.w3.org/2000/svg"><g fill="none" fill-rule="evenodd"><path d="m0 0h24v24h-24z"/><path d="m12.0041183 2.1c.6747112 0 1.3262167.09224538 1.9443314.27340763.4769913.13980063.7503384.63980931.6105378 1.11680063-.1398007.47699133-.6398093.75033839-1.1168007.61053776-.4525602-.13264018-.9335744-.20074602-1.4380685-.20074602-2.89527095 0-4.99940601 2.30973881-5.10032439 5.49134611l-.00379391.24023284v1.59965175c0 .7916645-.33579423 1.374896-1.0551555 2.1468824l-.72651052.7507404c-.53506391.570877-.71833398.8834727-.71833398 1.1983524 0 .1921026.01354738.2920381.05692284.3822608.09963409.2072431.38757012.3663415 1.10630074.3880125l.17361853.0025208h12.52631579c.8200805 0 1.1533639-.1685123 1.2720395-.3967961.0494514-.0951243.0648026-.1977.0648026-.375998 0-.3148797-.1832701-.6274754-.718334-1.1983524l-.5536734-.5690582-.2581956-.2739811c-.0777285-.0855131-.148403-.1667937-.2158712-.2485858-.3162894-.3834396-.2618535-.9506821.1215861-1.2669715s.9506821-.2618535 1.2669716.1215861c.0743913.0901852.1593896.1853227.2650764.2972458l.3833198.3932332c1.0812439 1.0966425 1.5091203 1.7284336 1.5091203 2.7448839 0 .4444968-.0518615.7910313-.267721 1.2062573-.429368.8259295-1.3113098 1.3076644-2.6189554 1.3614813l-.2501657.0050555-1.8858485.0008511c-.001914.00834-.003951.0166789-.0061122.0250148-.6171138 2.3802961-2.1265914 3.6741341-4.3711972 3.6741341-2.24460579 0-3.7540834-1.293838-4.37119721-3.6741341l-.00580279-.0258659h-1.88615789c-1.48795883 0-2.46549536-.5022945-2.90217967-1.4106158-.19095628-.397197-.23466244-.7196059-.23466244-1.1621783 0-.9529222.37606323-1.5677649 1.3139887-2.5445035l.46549501-.475657.23645002-.2526991c.31487817-.3512486.45506931-.5826005.47995876-.764294l.00410751-.0588216v-1.59965175c0-4.25161163 2.88771823-7.53157895 6.9041183-7.53157895zm2.4975186 15.8007389h-5.00327384c.45014199 1.3178212 1.24486204 1.8992611 2.50163694 1.8992611s2.0514949-.5814399 2.5016369-1.8992611zm4.961967-13.637135c.3514719-.35147187.9213203-.35147187 1.2727922 0 .3514719.35147186.3514719.92132034 0 1.2727922l-4.2 4.2c-.3514719.3514719-.9213203.3514719-1.2727922 0l-2-2c-.3514719-.35147186-.3514719-.92132034 0-1.2727922.3514719-.35147187.9213203-.35147187 1.2727922 0l1.3636039 1.36360389z" fill="currentColor" fill-rule="nonzero"/></g></svg>
