<svg fill="none" height="24" viewBox="0 0 24 24" width="24" xmlns="http://www.w3.org/2000/svg"><path d="m12.0037 2.09998c4.0153 0 6.8959 3.27831 6.8959 7.53158v1.59964c0 .2287.1933.5318.7205 1.0758.0676.0698.1313.1345.2704.2753 1.0812 1.0966 1.5091 1.7284 1.5091 2.7449 0 .4445-.0519.791-.2677 1.2062-.4562.8776-1.4233 1.3666-2.8691 1.3666l-1.9118.001c-.6292 2.3325-2.1305 3.5992-4.3514 3.5992-2.2446 0-3.75407-1.2938-4.37119-3.6741l.0192.0739h-1.91116c-1.48796 0-2.46549-.5023-2.90218-1.4106-.19095-.3972-.23466-.7196-.23466-1.1622 0-1.0165.42788-1.6483 1.50912-2.7449.13907-.1408.20274-.2055.27036-.2753.52727-.544.72052-.8471.72052-1.0758v-1.59964c0-4.25162 2.88772-7.53158 6.90409-7.53158zm2.4619 15.80182h-4.93196c.45595 1.2467 1.24176 1.7984 2.46596 1.7984s2.01-.5517 2.466-1.7984zm-2.4619-14.00182c-2.96763 0-5.10409 2.42667-5.10409 5.73158v1.59964c0 .8526-.38944 1.4634-1.22799 2.3286-.07327.0756-.14242.1458-.28113.2863-.74688.7575-.99088 1.1178-.99088 1.4811 0 .1921.01355.292.05692.3822.1073.2232.43298.3906 1.27992.3906h12.52635c.82 0 1.1533-.1685 1.272-.3968.0495-.0951.0648-.1977.0648-.376 0-.3633-.244-.7236-.9909-1.4811-.1387-.1405-.2078-.2107-.2811-.2863-.8385-.8652-1.228-1.476-1.228-2.3286v-1.59964c0-3.30723-2.1302-5.73158-5.0959-5.73158z" fill="currentColor"/></svg>
