<svg width="24" height="24" viewBox="0 0 24 24" fill="none" xmlns="http://www.w3.org/2000/svg">
<path fill-rule="evenodd" clip-rule="evenodd" d="M10.3028 4.18602C10.7709 4.01879 11.0148 3.50377 10.8475 3.03569C10.6803 2.56761 10.1653 2.32372 9.69722 2.49094C6.82511 3.51701 5.1 6.38158 5.1 9.63158V11.2312C5.1 11.3341 5.05854 11.4869 4.87986 11.7342C4.70015 11.983 4.45391 12.2327 4.13748 12.5536L4.10912 12.5823C3.80398 12.8918 3.43317 13.2701 3.14544 13.6949C2.85029 14.1307 2.6 14.6753 2.6 15.3272L2.59998 15.3462C2.59952 15.5747 2.59816 16.2528 3.0639 16.8637C3.57499 17.534 4.45701 17.9 5.73684 17.9H7.64838C7.94072 18.9851 8.4313 19.8932 9.17817 20.5334C9.95321 21.1977 10.9187 21.5 12 21.5C13.0813 21.5 14.0468 21.1977 14.8218 20.5334C15.5687 19.8932 16.0593 18.9851 16.3516 17.9H18.2632C19.556 17.9 20.4349 17.5133 20.9406 16.8384C21.4014 16.2235 21.4003 15.5514 21.4 15.3419L21.4 15.3272C21.4 14.5877 21.0785 13.9868 20.7322 13.5231C20.457 13.1546 20.1099 12.8035 19.8211 12.5113L19.821 12.5112C19.7593 12.4487 19.7002 12.3889 19.645 12.3323C19.2984 11.976 18.7286 11.9683 18.3723 12.3149C18.0161 12.6616 18.0083 13.2314 18.355 13.5876C18.4317 13.6664 18.5054 13.7412 18.5763 13.8132L18.5765 13.8133L18.5765 13.8133C18.8595 14.1005 19.0964 14.341 19.2899 14.6001C19.5196 14.9076 19.6 15.1327 19.6 15.3272C19.6 15.4966 19.5872 15.6428 19.5002 15.759C19.4467 15.8304 19.2071 16.1 18.2632 16.1H5.73684C4.77983 16.1 4.54343 15.8354 4.49531 15.7723C4.41553 15.6677 4.4 15.5314 4.4 15.3272C4.4 15.1556 4.46221 14.9606 4.63582 14.7043C4.81684 14.437 5.07102 14.1705 5.39088 13.8461L5.45426 13.7819L5.45428 13.7819C5.73741 13.4953 6.07518 13.1534 6.3389 12.7884C6.62896 12.3869 6.9 11.8652 6.9 11.2312V9.63158C6.9 6.99241 8.27851 4.9092 10.3028 4.18602ZM14.4656 17.9H9.53441C9.75158 18.4891 10.0333 18.8956 10.3496 19.1667C10.7412 19.5024 11.2665 19.7 12 19.7C12.7335 19.7 13.2588 19.5024 13.6504 19.1667C13.9667 18.8956 14.2484 18.4891 14.4656 17.9Z" fill="currentColor"/>
</svg>
