<svg xmlns="http://www.w3.org/2000/svg" width="24" height="24" fill="currentColor" viewBox="0 0 24 24"><path fill-rule="evenodd" d="M4.936 4.929A10.008 10.008 0 0 1 12.024 2c2.62 0 5.007 1.004 6.792 2.645a1.19 1.19 0 0 1 .032 1.72L13.2 12l5.648 5.634a1.19 1.19 0 0 1-.032 1.72A10.005 10.005 0 0 1 12.024 22c-2.768 0-5.275-1.12-7.088-2.929A9.96 9.96 0 0 1 2 12a9.96 9.96 0 0 1 2.936-7.071ZM12.024 3.8a8.2 8.2 0 0 0-5.812 2.402A8.162 8.162 0 0 0 3.804 12c0 2.265.92 4.313 2.408 5.798a8.201 8.201 0 0 0 5.812 2.402c1.92 0 3.685-.656 5.084-1.756l-5.61-5.595a1.198 1.198 0 0 1 0-1.697l5.61-5.596A8.194 8.194 0 0 0 12.024 3.8Z" clip-rule="evenodd"/></svg>
