<svg fill="none" height="24" width="24" xmlns="http://www.w3.org/2000/svg"><path clip-rule="evenodd" d="M7.367 2.1h7.266c.392 0 .738 0 1.026.023.305.025.622.081.93.239a2.4 2.4 0 011.05 1.048c.157.309.213.626.238.932.006.082.011.17.015.261.353.009.666.036.95.122a2.9 2.9 0 011.933 1.933c.126.416.126.894.125 1.472v.24c0 .578.001 1.056-.125 1.472a2.9 2.9 0 01-1.933 1.933c-.416.126-.894.126-1.472.125h-4.156c-.726 0-.9.009-1.019.043a1.1 1.1 0 00-.752.752c-.021.074-.033.17-.038.406.067.001.134.004.197.009.139.011.332.04.534.143a1.4 1.4 0 01.611.611c.103.202.132.395.143.534.01.121.01.26.01.38v5.444c0 .12 0 .259-.01.38-.011.139-.04.332-.143.534a1.4 1.4 0 01-.611.611 1.409 1.409 0 01-.534.143c-.121.01-.26.01-.38.01H9.778c-.12 0-.259 0-.38-.01a1.408 1.408 0 01-.534-.143 1.4 1.4 0 01-.611-.611 1.408 1.408 0 01-.143-.534c-.01-.121-.01-.26-.01-.38V14.8v-.022c0-.12 0-.259.01-.38.011-.139.04-.332.143-.534a1.4 1.4 0 01.611-.611c.202-.103.395-.132.534-.143.065-.006.136-.008.205-.01.008-.335.032-.633.11-.903a2.9 2.9 0 011.984-1.984c.397-.114.852-.114 1.403-.113H17.25c.763 0 .945-.01 1.07-.047a1.1 1.1 0 00.733-.734c.037-.124.047-.306.047-1.069 0-.763-.01-.945-.047-1.07a1.1 1.1 0 00-.734-.733c-.077-.023-.177-.036-.428-.042a5.951 5.951 0 01-.014.253c-.025.306-.081.623-.239.932a2.4 2.4 0 01-1.048 1.048 2.439 2.439 0 01-.932.239c-.287.023-.633.023-1.025.023H7.367c-.392 0-.738 0-1.025-.023-.306-.025-.623-.081-.932-.239A2.4 2.4 0 014.362 7.59c-.158-.309-.214-.626-.239-.932C4.1 6.371 4.1 6.025 4.1 5.633V5.4v-.033c0-.392 0-.738.023-1.025.025-.306.081-.623.239-.932A2.4 2.4 0 015.41 2.362c.309-.158.626-.214.932-.239.287-.023.633-.023 1.025-.023zM9.9 14.9v5.2h1.2v-5.2zM6.488 3.917c-.194.016-.248.042-.26.048a.6.6 0 00-.263.263c-.006.012-.032.066-.048.26A12.65 12.65 0 005.9 5.4v.2c0 .435 0 .707.017.912.016.194.042.248.048.26a.6.6 0 00.263.263c.012.006.066.032.26.048.205.016.477.017.912.017h7.2c.435 0 .707 0 .912-.017.194-.016.248-.042.26-.048a.6.6 0 00.263-.263c.006-.012.032-.066.048-.26.016-.205.017-.477.017-.912v-.2c0-.435 0-.707-.017-.912-.016-.194-.042-.248-.048-.26a.6.6 0 00-.263-.263c-.012-.006-.066-.032-.26-.048A12.65 12.65 0 0014.6 3.9H7.4c-.435 0-.707 0-.912.017z" fill="currentColor" fill-rule="evenodd"/></svg>
