<?xml version="1.0" encoding="UTF-8"?>
<svg width="24px" height="24px" viewBox="0 0 24 24" version="1.1" xmlns="http://www.w3.org/2000/svg" xmlns:xlink="http://www.w3.org/1999/xlink">
    <!-- Generator: Sketch 50.2 (55047) - http://www.bohemiancoding.com/sketch -->
    <title>pause_24</title>
    <desc>Created with Sketch.</desc>
    <defs></defs>
    <g id="Page-2" stroke="none" stroke-width="1" fill="none" fill-rule="evenodd">
        <g id="pause_24">
            <rect id="Rectangle-737" x="0" y="0" width="24" height="24"></rect>
            <path d="M6.78835231,5 L8.71164769,5 C9.15963585,5 9.32208719,5.04664487 9.48586497,5.13423418 C9.64964274,5.2218235 9.7781765,5.35035726 9.86576582,5.51413503 C9.95335513,5.67791281 10,5.84036415 10,6.28835231 L10,17.7116477 C10,18.1596359 9.95335513,18.3220872 9.86576582,18.485865 C9.7781765,18.6496427 9.64964274,18.7781765 9.48586497,18.8657658 C9.32208719,18.9533551 9.15963585,19 8.71164769,19 L6.78835231,19 C6.34036415,19 6.17791281,18.9533551 6.01413503,18.8657658 C5.85035726,18.7781765 5.7218235,18.6496427 5.63423418,18.485865 C5.54664487,18.3220872 5.5,18.1596359 5.5,17.7116477 L5.5,6.28835231 C5.5,5.84036415 5.54664487,5.67791281 5.63423418,5.51413503 C5.7218235,5.35035726 5.85035726,5.2218235 6.01413503,5.13423418 C6.17791281,5.04664487 6.34036415,5 6.78835231,5 Z M14.7883523,5 L16.7116477,5 C17.1596359,5 17.3220872,5.04664487 17.485865,5.13423418 C17.6496427,5.2218235 17.7781765,5.35035726 17.8657658,5.51413503 C17.9533551,5.67791281 18,5.84036415 18,6.28835231 L18,17.7116477 C18,18.1596359 17.9533551,18.3220872 17.8657658,18.485865 C17.7781765,18.6496427 17.6496427,18.7781765 17.485865,18.8657658 C17.3220872,18.9533551 17.1596359,19 16.7116477,19 L14.7883523,19 C14.3403641,19 14.1779128,18.9533551 14.014135,18.8657658 C13.8503573,18.7781765 13.7218235,18.6496427 13.6342342,18.485865 C13.5466449,18.3220872 13.5,18.1596359 13.5,17.7116477 L13.5,6.28835231 C13.5,5.84036415 13.5466449,5.67791281 13.6342342,5.51413503 C13.7218235,5.35035726 13.8503573,5.2218235 14.014135,5.13423418 C14.1779128,5.04664487 14.3403641,5 14.7883523,5 Z" id="Mask" fill="currentColor"></path>
        </g>
    </g>
</svg>
