<svg fill="none" height="24" width="24" xmlns="http://www.w3.org/2000/svg"><path clip-rule="evenodd" d="M9.929 3.848c.568.571.975 1.377 1.141 2.275.165.898.072 1.794-.261 2.525-.333.728-.95 1.37-1.84 1.521-.885.15-1.684-.25-2.248-.817-.568-.571-.976-1.377-1.141-2.275-.165-.898-.072-1.793.261-2.525.333-.728.95-1.37 1.84-1.52.885-.15 1.684.248 2.248.816zM8.652 5.117c-.287-.29-.53-.335-.672-.311-.137.023-.339.138-.5.493-.162.353-.237.868-.13 1.451.108.584.364 1.048.648 1.333.287.29.53.335.672.311.137-.023.339-.138.5-.493.162-.353.237-.868.13-1.451-.108-.584-.364-1.048-.648-1.333zm6.696 0c-.284.285-.54.75-.648 1.333-.107.583-.032 1.098.13 1.45.161.356.363.47.5.494.142.024.384-.021.672-.31.284-.286.54-.75.648-1.334.108-.583.032-1.098-.13-1.45-.161-.356-.363-.47-.5-.494-.142-.024-.385.021-.672.31zm-1.277-1.27c.564-.567 1.363-.965 2.248-.816.89.15 1.507.793 1.84 1.521.333.732.427 1.627.261 2.525-.166.898-.573 1.704-1.141 2.275-.564.568-1.363.966-2.248.817-.89-.15-1.507-.793-1.84-1.521-.333-.731-.427-1.627-.261-2.525.165-.898.573-1.704 1.141-2.275zm-9.08 5.689c.657.415 1.217 1.092 1.582 1.906.366.815.502 1.688.388 2.462-.112.76-.495 1.554-1.29 1.94-.805.39-1.66.182-2.312-.23-.657-.415-1.217-1.092-1.582-1.906-.366-.815-.502-1.688-.388-2.462.112-.76.495-1.554 1.29-1.94.805-.39 1.66-.182 2.312.23zm-.962 1.521c-.318-.201-.499-.162-.565-.13-.076.037-.234.176-.294.581-.058.392.005.92.249 1.463s.589.924.902 1.122c.318.201.499.162.565.13.076-.037.234-.176.294-.581.058-.392-.005-.92-.249-1.463-.244-.544-.589-.924-.902-1.122zm15.942 0c-.313.198-.658.578-.902 1.122-.244.543-.307 1.07-.249 1.463.06.405.218.544.294.581.066.032.247.071.565-.13.313-.198.658-.579.902-1.122.244-.543.307-1.07.249-1.463-.06-.405-.218-.544-.294-.581-.066-.032-.247-.071-.565.13zm-.962-1.521c.652-.412 1.507-.62 2.312-.23.795.386 1.178 1.18 1.29 1.94.114.774-.022 1.647-.388 2.462-.365.814-.925 1.491-1.582 1.906-.652.412-1.507.62-2.312.23-.795-.386-1.178-1.18-1.29-1.94-.114-.774.022-1.647.388-2.462.365-.814.925-1.491 1.582-1.906zm-9.716 2.94c.612-.78 1.46-1.376 2.707-1.376s2.095.597 2.707 1.377c.457.58.826 1.326 1.16 2 .075.152.148.301.22.443.3.587.586 1.046.856 1.476.1.16.197.316.292.473.319.529.665 1.157.665 1.885 0 .583-.14 1.096-.428 1.518-.288.42-.675.68-1.054.84-.69.29-1.47.289-1.875.288H14.5c-.462 0-.807-.063-1.107-.118A6.594 6.594 0 0012 21.15a6.594 6.594 0 00-1.393.132c-.3.055-.645.118-1.107.118h-.043c-.406 0-1.186.001-1.875-.289-.38-.16-.766-.42-1.054-.84-.288-.421-.428-.934-.428-1.517 0-.728.346-1.356.665-1.885.095-.157.192-.313.292-.473a18.217 18.217 0 001.077-1.92c.333-.672.702-1.418 1.159-2zm.495 2.719a65.69 65.69 0 01-.272.542c-.338.664-.687 1.223-.965 1.666-.09.145-.173.277-.245.396-.324.537-.406.779-.406.955 0 .29.067.432.114.501a.571.571 0 00.266.197c.324.136.762.148 1.22.148.291 0 .483-.035.782-.089l.122-.022c.386-.069.854-.139 1.596-.139s1.21.07 1.596.139l.121.022c.3.054.492.089.783.089.458 0 .896-.012 1.22-.148a.57.57 0 00.266-.197c.047-.069.114-.21.114-.501 0-.176-.082-.418-.406-.955-.072-.12-.155-.251-.245-.396-.278-.443-.627-1.002-.965-1.666a66.03 66.03 0 01-.272-.542c-.327-.657-.59-1.186-.92-1.606-.364-.464-.731-.689-1.292-.689s-.928.225-1.292.689c-.33.42-.593.95-.92 1.606z" fill="currentColor" fill-rule="evenodd"/></svg>
