<svg xmlns="http://www.w3.org/2000/svg" width="24" height="24" fill="currentColor" viewBox="0 0 24 24"><path fill-rule="evenodd" d="M9.929 3.848c.568.571.976 1.377 1.141 2.275.165.898.072 1.793-.261 2.525-.333.728-.95 1.37-1.84 1.52-.885.15-1.684-.248-2.248-.816-.568-.571-.976-1.377-1.141-2.275-.165-.898-.072-1.793.261-2.525.333-.728.95-1.37 1.84-1.52.885-.15 1.684.248 2.248.816ZM8.652 5.117c-.287-.29-.53-.335-.672-.311-.137.023-.339.138-.5.493-.162.353-.237.868-.13 1.451.108.584.364 1.048.648 1.333.287.29.53.335.672.311.137-.023.339-.138.5-.493.162-.353.237-.868.13-1.451-.108-.584-.364-1.048-.648-1.333Zm6.696 0c-.284.285-.54.75-.648 1.333-.107.583-.032 1.098.13 1.45.161.356.363.47.5.494.142.024.384-.021.672-.31.284-.286.54-.75.648-1.334.107-.583.032-1.098-.13-1.45-.161-.356-.363-.47-.5-.494-.142-.024-.384.021-.672.31Zm-1.277-1.27c.564-.567 1.363-.965 2.248-.816.89.15 1.507.793 1.84 1.521.333.732.427 1.627.261 2.525-.166.898-.573 1.704-1.141 2.275-.564.568-1.363.966-2.248.817-.89-.15-1.507-.793-1.84-1.521-.333-.732-.427-1.627-.261-2.525.165-.898.573-1.704 1.141-2.275Zm-9.08 5.689c.657.415 1.217 1.092 1.582 1.906.366.815.502 1.688.388 2.462-.112.76-.495 1.554-1.29 1.94-.805.39-1.66.182-2.312-.23-.657-.415-1.217-1.093-1.582-1.906-.366-.815-.502-1.688-.388-2.462.112-.76.495-1.554 1.29-1.94.805-.39 1.66-.182 2.312.23Zm-.962 1.521c-.318-.201-.499-.162-.565-.13-.076.037-.234.176-.294.581-.058.392.005.92.249 1.463s.589.924.902 1.122c.318.201.499.162.565.13.076-.037.234-.176.294-.581.058-.392-.005-.92-.249-1.463s-.589-.924-.902-1.122Zm15.942 0c-.313.198-.658.579-.902 1.122-.244.543-.307 1.07-.249 1.463.06.405.218.544.294.581.066.032.247.071.565-.13.313-.198.658-.579.902-1.122.244-.543.307-1.07.249-1.463-.06-.405-.218-.544-.294-.581-.066-.032-.247-.071-.565.13Zm-.962-1.521c.652-.412 1.507-.62 2.312-.23.795.386 1.178 1.18 1.29 1.94.114.774-.022 1.647-.388 2.462-.365.813-.925 1.491-1.582 1.906-.652.412-1.507.62-2.312.23-.795-.386-1.178-1.18-1.29-1.94-.114-.774.022-1.647.388-2.462.365-.814.925-1.491 1.582-1.906Zm-9.716 2.94c.612-.78 1.46-1.376 2.707-1.376 1.248 0 2.095.597 2.707 1.377.457.58.826 1.326 1.16 2 .075.152.148.301.22.443.3.587.586 1.046.856 1.476.1.16.197.316.292.473.319.529.665 1.157.665 1.885 0 .583-.14 1.096-.428 1.518-.288.42-.675.68-1.054.84-.69.29-1.47.288-1.875.288H14.5a5.7 5.7 0 0 1-1.107-.118l-.114-.021A6.586 6.586 0 0 0 12 21.15a6.61 6.61 0 0 0-1.28.111l-.113.02c-.3.056-.645.119-1.107.119h-.043c-.406 0-1.186.001-1.875-.289-.38-.16-.766-.42-1.054-.84-.288-.421-.428-.934-.428-1.517 0-.728.346-1.356.665-1.885.095-.157.192-.313.292-.473.27-.43.557-.89.855-1.476.073-.142.146-.29.222-.443.333-.674.702-1.42 1.159-2Zm.495 2.719a21.05 21.05 0 0 1-1.237 2.208c-.09.145-.173.277-.245.396-.324.537-.406.779-.406.955 0 .29.067.432.114.501a.572.572 0 0 0 .266.197c.324.136.762.148 1.22.148.291 0 .483-.035.783-.089l.121-.022A8.382 8.382 0 0 1 12 19.35c.742 0 1.21.07 1.596.139l.121.022c.3.054.492.089.783.089.458 0 .896-.012 1.22-.148a.572.572 0 0 0 .266-.197c.047-.069.114-.21.114-.501 0-.177-.082-.418-.406-.955a29.95 29.95 0 0 0-.245-.396 21.063 21.063 0 0 1-.965-1.666c-.097-.19-.187-.37-.272-.542-.327-.657-.59-1.186-.92-1.607-.364-.463-.731-.688-1.292-.688-.56 0-.928.225-1.292.688-.33.421-.593.95-.92 1.607Z" clip-rule="evenodd"/></svg>
