<svg xmlns="http://www.w3.org/2000/svg" width="24" height="24" fill="currentColor" viewBox="0 0 24 24"><path fill-rule="evenodd" d="M4.1 6.205c0-1.152.113-1.74.44-2.35A3.171 3.171 0 0 1 5.854 2.54c.565-.301 1.108-.421 2.095-.438l.256-.002h7.59l.256.002c.987.017 1.53.137 2.095.438.564.302 1.012.75 1.314 1.315l.071.14c.272.564.369 1.147.369 2.21v11.59c0 1.063-.097 1.646-.369 2.21l-.071.14a3.171 3.171 0 0 1-1.315 1.315c-.564.302-1.107.421-2.094.438l-.256.002h-7.59c-1.152 0-1.74-.113-2.35-.44a3.17 3.17 0 0 1-1.315-1.315c-.301-.564-.421-1.107-.438-2.094l-.002-.256V6.205ZM9.9 3.9l5.895-.001c.88 0 1.187.06 1.502.228.25.134.441.325.575.575.156.291.218.575.227 1.309l.001.193v11.59l-.001.193c-.009.735-.071 1.018-.227 1.309-.134.25-.325.441-.575.575-.315.169-.622.228-1.502.228L9.9 20.1V3.9Zm-4 13.894V6.205l.001-.193c.009-.734.071-1.018.227-1.309.134-.25.325-.441.575-.575.29-.156.574-.218 1.309-.227l.088.001V20.1l-.088-.001c-.735-.009-1.018-.071-1.309-.227a1.372 1.372 0 0 1-.575-.575c-.169-.315-.228-.622-.228-1.502Z" clip-rule="evenodd"/><path d="M14.8 18c-.28 0-.42 0-.527-.055a.5.5 0 0 1-.218-.218C14 17.62 14 17.48 14 17.2v-.4c0-.28 0-.42.055-.527a.5.5 0 0 1 .218-.218C14.38 16 14.52 16 14.8 16h.4c.28 0 .42 0 .527.055a.5.5 0 0 1 .218.218c.055.107.055.247.055.527v.4c0 .28 0 .42-.055.527a.5.5 0 0 1-.218.218C15.62 18 15.48 18 15.2 18h-.4Z"/></svg>
