<svg fill="none" height="24" viewBox="0 0 24 24" width="24" xmlns="http://www.w3.org/2000/svg"><path d="m15.3191 3.6317c.9955-.99552 2.5838-1.037 3.6287-.12444l.1331.12444 1.3638 1.36377c.9955.99551 1.037 2.58378.1244 3.62869l-.1244.13312-10.66224 10.66222c-.68785.6878-1.60324 1.0958-2.56924 1.1505l-.22374.0064h-1.64648c-.96697 0-1.76-.7447-1.83689-1.6919l-.00611-.1511v-1.6464c0-.9728.35886-1.9087 1.00327-2.6305l.15375-.1627zm-9.38933 11.9349c-.35843.3585-.57725.8304-.62145 1.3313l-.00832.1891v1.6464c0 .0158.00856.0296.0213.0371l.0217.0059h1.64648l.18903-.0083c.4383-.0387.85438-.2111 1.19165-.4936l.13955-.1278 8.26029-8.25975-2.58-2.58zm11.27023-10.914c-.1834 0-.3668.05831-.52.17492l-.0881.07697-1.1119 1.11189 2.58 2.58 1.1119-1.11189c.3079-.30786.3335-.79107.077-1.12816l-.077-.08807-1.3638-1.36377c-.1399-.13994-.3161-.22157-.4983-.24489z" fill="currentColor"/></svg>
