<svg fill="none" height="24" width="24" xmlns="http://www.w3.org/2000/svg"><path clip-rule="evenodd" d="M14.26 7.478l-9.038 9.037a1.1 1.1 0 00-.322.778V19a.1.1 0 00.1.1h1.707a1.1 1.1 0 00.778-.322l9.037-9.037zm1.272-1.273l2.263 2.263 1.131-1.131a.6.6 0 000-.849l-1.414-1.414a.6.6 0 00-.849 0zM3.95 15.242L15.391 3.801a2.4 2.4 0 013.394 0l1.414 1.414a2.4 2.4 0 010 3.394L8.758 20.051a2.9 2.9 0 01-2.05.849H5A1.9 1.9 0 013.1 19v-1.707a2.9 2.9 0 01.85-2.05z" fill="currentColor" fill-rule="evenodd"/></svg>
