<?xml version="1.0" encoding="UTF-8"?>
<svg width="24px" height="24px" viewBox="0 0 24 24" version="1.1" xmlns="http://www.w3.org/2000/svg" xmlns:xlink="http://www.w3.org/1999/xlink">
    <!-- Generator: Sketch 50.2 (55047) - http://www.bohemiancoding.com/sketch -->
    <title>phone_24</title>
    <desc>Created with Sketch.</desc>
    <defs></defs>
    <g id="Page-2" stroke="none" stroke-width="1" fill="none" fill-rule="evenodd">
        <g id="phone_24">
            <polygon id="Bounds" points="0 0 24 0 24 24 0 24"></polygon>
            <path d="M14.6116687,14.7589801 C15.9658471,13.4046924 18.0976626,13.2798641 19.5152407,14.4716769 L20.5395424,15.3345771 C21.7084748,16.3183428 21.8273492,18.0916968 20.8030475,19.2944073 C20.2444269,19.940656 19.4581497,20.3466008 18.6078322,20.4277688 C15.3348217,20.8686305 11.9013307,19.2914352 8.30537783,15.6951921 C4.70942499,12.0989491 3.13136635,8.66419017 3.57219252,5.39190617 C3.59510018,5.13587153 3.64830523,4.88345969 3.73069182,4.63996444 C3.92132006,4.08060406 4.25783325,3.58229177 4.70546251,3.1965137 C5.90906656,2.17312001 7.68128684,2.29101338 8.66497311,3.46103076 L9.52681305,4.48541515 C10.7205109,5.90112627 10.5966833,8.03410461 9.24250493,9.38839229 L8.50746444,10.1225014 C8.31149496,10.3188346 8.2473276,10.6110902 8.34302141,10.871471 C8.61048898,11.6026081 9.29302658,12.516034 10.388653,13.6117488 C11.48527,14.7084544 12.3986222,15.3900564 13.1287096,15.6585362 C13.3892589,15.7539869 13.681519,15.6894216 13.8776188,15.4930892 L14.6116687,14.7589801 Z" id="2x" fill="currentColor"></path>
        </g>
    </g>
</svg>
