<svg fill="none" height="24" viewBox="0 0 24 24" width="24" xmlns="http://www.w3.org/2000/svg"><g fill="currentColor"><path d="m4.49506 4.12316c-2.92048 3.2132-1.36057 8.18544 2.9282 12.49394 4.19754 4.2169 9.39384 5.7935 12.46894 2.9323 1.6823-1.5653 1.4337-4.3373-.6446-6.1898-1.8788-1.5965-4.8317-1.8731-6.7136-.1062-.6341-.5337-1.1741-1.1639-1.7539-1.7534 1.6261-1.70594 1.6211-4.67578-.0555-6.6789-1.88485-2.25209-4.7439-2.33248-6.22954-.69794zm4.85113 1.8518c1.05851 1.26473 1.20001 3.28081-.04925 4.45914-.62934.5661-1.24371.8999 1.03126 3.2134 2.4546 2.4962 2.7607 1.6205 3.4001.9511 1.0044-1.009 2.9712-1.1022 4.3232.103 1.4952 1.3328 1.3332 2.8645.6162 3.5317-2.2187 2.0644-6.4676.6345-9.97047-2.8845-3.50283-3.5189-5.05738-7.61201-2.87197-10.01644.50733-.55819 2.09838-1.05707 3.52093.6426z"/><path d="m18.5 2c.4971 0 .9.40294.9.9v1.69999h1.7c.497 0 .9.40294.9.9 0 .49705-.403.9-.9.9h-1.7v1.69999c0 .49705-.4029.9-.9.9s-.9-.40295-.9-.9v-1.69999h-1.7c-.497 0-.9-.40295-.9-.9 0-.49706.403-.9.9-.9h1.7v-1.69999c0-.49706.4029-.9.9-.9z"/></g></svg>
