<svg height="24" viewBox="0 0 24 24" width="24" xmlns="http://www.w3.org/2000/svg"><g fill="none"><path d="m0 0h24v24h-24z"/><path d="m4.47730187 4.11620545c-2.92438987 3.2172624-1.36238991 8.19578475 2.93211341 12.50978515 4.20312422 4.2222065 9.40642312 5.800811 12.48559502 2.9360045 1.6846004-1.5673221 1.4356055-4.3428005-.645418-6.1976656l-.190099-.1615252c-1.9307703-1.5633022-4.7331468-1.5682619-6.4448062-.0271258l-.0876871.0823215-.0497693-.0418872c-.1870691-.159375-.4304388-.3813252-.7244056-.6735865l-.2974775-.3023336-.3067045-.3266486c-.0919745-.100715-.1738245-.1931587-.2459578-.2770206l-.1236853-.1465235-.0696124.0753046c1.6894589-1.69712908 1.7054066-4.71974991.0058255-6.7502816-1.88741381-2.25494013-4.75028394-2.33542811-6.23791123-.69881755zm4.85761396 1.85414409c1.18059277 1.4104835 1.04862977 3.37090687.0988001 4.32504876l-.14811755.1396963c-.63018151.566859-1.2453727.9010589 1.03266362 3.2175117 2.4578812 2.4993307 2.7643392 1.6225492 3.4046392.9522452 1.0057094-1.0102752 2.9751865-1.1035055 4.3290099.1031891 1.4971621 1.3344558 1.3349787 2.8681281.6170064 3.5361167-2.2216958 2.0670261-6.4763214.6353604-9.98383059-2.8880729-3.50750918-3.5234333-5.06413657-7.62167548-2.87581169-10.02915726.50801764-.55889472 2.10118958-1.0584046 3.52564061.6434224z" fill="currentColor"/></g></svg>
