<svg fill="none" height="24" viewBox="0 0 24 24" width="24" xmlns="http://www.w3.org/2000/svg"><g fill="currentColor"><path clip-rule="evenodd" d="m6.10001 11.5c0-.7732.6268-1.4 1.4-1.4s1.4.6268 1.4 1.4-.6268 1.4-1.4 1.4-1.4-.6268-1.4-1.4z" fill-rule="evenodd"/><path d="m7.00001 3.89998c0-.99412.80589-1.8 1.8-1.8h6.39999c.9941 0 1.8.80588 1.8 1.8z"/><path clip-rule="evenodd" d="m7.76231 6.1h8.47539c.8081-.00001 1.4689-.00002 2.006.04386.5559.04542 1.058.1423 1.5269.38121.7338.37391 1.3304.97053 1.7043 1.70437.2389.46889.3358.97096.3812 1.52688.0439.53708.0439 1.19788.0439 2.00598v3.4754c0 .8081 0 1.4689-.0439 2.006-.0454.5559-.1423 1.058-.3812 1.5269-.3739.7338-.9705 1.3304-1.7043 1.7043-.4689.2389-.971.3358-1.5269.3812-.5371.0439-1.1979.0439-2.006.0439h-8.4754c-.80805 0-1.4689 0-2.00597-.0439-.55592-.0454-1.058-.1423-1.52689-.3812-.73383-.3739-1.33045-.9705-1.70436-1.7043-.23891-.4689-.33579-.971-.38121-1.5269-.04388-.5371-.04387-1.1979-.04386-2.006v-3.4754c-.00001-.8081-.00002-1.4689.04386-2.00598.04542-.55592.1423-1.05799.38121-1.52688.37391-.73384.97053-1.33046 1.70436-1.70437.46889-.23891.97097-.33579 1.52689-.38121.53707-.04388 1.19792-.04387 2.00598-.04386zm3.87269 11.3926c.0924.0775.1986.1665.2978.2367.1141.0807.2811.183.5019.2337.2886.0662.5908.0392.8631-.0772.2083-.089.3545-.2193.4524-.3189.0853-.0868.174-.1932.2511-.2858l3.5322-4.2359 2.5665 2.0008c0 .133.0007.2661.0014.3993.0027.5508.0055 1.1033-.0393 1.6518-.0363.4446-.1029.6834-.191.8563-.2013.3951-.5226.7164-.9177.9177-.1729.0881-.4117.1547-.8563.191-.4551.0372-1.0422.0379-1.8971.0379h-8.39999c-.4633 0-.84793-.0002-1.17553-.0063l3.15545-3.1555zm6.6145-6.1596c.0991.0652.2054.1482.2974.2199l1.5531 1.2108v-.9637c0-.8549-.0007-1.442-.0379-1.89711-.0363-.44459-.1029-.68342-.191-.85627-.2013-.39514-.5226-.7164-.9177-.91773-.1729-.08807-.4117-.15468-.8563-.19101-.4551-.03718-1.0422-.03788-1.8971-.03788h-8.39999c-.85493 0-1.442.0007-1.89711.03788-.4446.03633-.68343.10294-.85627.19101-.39514.20133-.7164.52259-.91774.91773-.08807.17285-.15467.41168-.191.85627-.03718.45511-.03788 1.04221-.03788 1.89711v3.4c0 .8549.0007 1.442.03788 1.8971.03633.4446.10293.6834.191.8563.11937.2343.2809.4426.47499.6153l3.98263-3.9826c.07827-.0784.16949-.1696.25618-.2437.49038-.4189 1.19931-.4547 1.73061-.0762.0929.0662.1918.1491.2766.2203l1.8474 1.5478 3.5295-4.2327c.0747-.0896.161-.1932.244-.2779.0958-.0977.2378-.2246.4397-.3134.2649-.1165.5593-.1481.8429-.0904.2161.044.3818.138.4961.2131zm-10.74949-1.233c-.7732 0-1.4.6268-1.4 1.4s.6268 1.4 1.4 1.4 1.4-.6268 1.4-1.4-.6268-1.4-1.4-1.4z" fill-rule="evenodd"/></g></svg>
