<svg fill="none" height="24" viewBox="0 0 24 24" width="24" xmlns="http://www.w3.org/2000/svg"><g fill="currentColor"><path d="m14.3377 4h-6.6754c-.80803-.00001-1.46891-.00002-2.00598.04386-.55591.04542-1.05799.14231-1.52688.38122-.73383.3739-1.33046.97053-1.70436 1.70436-.23891.46889-.3358.97097-.38122 1.52688-.04388.53706-.04387 1.19794-.04386 2.00597v2.72141c-.00001.808-.00002 1.4688.04386 2.0059.04542.5559.14231 1.058.38122 1.5269.3739.7338.97053 1.3304 1.70436 1.7043.46889.239.97097.3358 1.52688.3813.53708.0438 1.19792.0438 2.00597.0438h2.43771c.4971 0 .9-.4029.9-.9 0-.497-.4029-.9-.9-.9h-2.4c-.85493 0-1.442-.0007-1.89711-.0379-.44459-.0363-.68342-.1029-.85627-.191-.39514-.2013-.7164-.5226-.91773-.9177-.08807-.1729-.15468-.4117-.191-.8563-.03719-.4551-.03789-1.0422-.03789-1.8971v-2.6459c0-.85493.0007-1.442.03789-1.8971.03632-.4446.10293-.68343.191-.85628.20133-.39514.52259-.7164.91773-.91773.17285-.08807.41168-.15468.85628-.191.4551-.03719 1.04217-.03789 1.8971-.03789h6.6c.8549 0 1.442.0007 1.8971.03789.4446.03632.6834.10293.8563.191.3951.20133.7164.52259.9177.91773.0881.17285.1547.41168.191.85628.0372.4551.0379 1.04217.0379 1.8971v1.4c0 .4971.4029.9.9.9s.9-.4029.9-.9v-1.4377c0-.80805 0-1.4689-.0439-2.00598-.0454-.55591-.1423-1.05799-.3812-1.52688-.3739-.73383-.9705-1.33046-1.7043-1.70436-.4689-.23891-.971-.3358-1.5269-.38122-.5371-.04388-1.198-.04387-2.006-.04386z"/><path d="m13.1907 14.9555c-.1907.3744-.1907.8644-.1907 1.8445v.4c0 .9801 0 1.4701.1907 1.8445.1678.3293.4355.597.7648.7648.3744.1907.8644.1907 1.8445.1907h3.4c.9801 0 1.4701 0 1.8445-.1907.3293-.1678.597-.4355.7648-.7648.1907-.3744.1907-.8644.1907-1.8445v-.4c0-.9801 0-1.4701-.1907-1.8445-.1678-.3293-.4355-.597-.7648-.7648-.3744-.1907-.8644-.1907-1.8445-.1907h-3.4c-.9801 0-1.4701 0-1.8445.1907-.3293.1678-.597.4355-.7648.7648z"/><path d="m6.35684 9.62964c.00224.00228.00448.00454.00674.0068l2.56363 2.56356h-1.02723c-.49706 0-.9.4029-.9.9s.40294.9.9.9h3.20002c.4971 0 .9-.4029.9-.9v-3.19995c0-.49706-.4029-.9-.9-.9s-.9.40294-.9.9v1.02185l-2.5297-2.5244-.13388-.13387c-.35147-.35147-.92132-.35147-1.27279 0s-.35147.92132 0 1.27279z"/></g></svg>
