<svg xmlns="http://www.w3.org/2000/svg" width="24" height="24" fill="currentColor" viewBox="0 0 24 24"><path fill-rule="evenodd" d="M14.538 3H9.462c-.948 0-1.714 0-2.334.05-.64.053-1.203.163-1.726.43A4.4 4.4 0 0 0 3.48 5.402c-.267.523-.377 1.087-.43 1.726C3 7.748 3 8.514 3 9.462v5.076c0 .948 0 1.714.05 2.334.053.64.163 1.203.43 1.726a4.4 4.4 0 0 0 1.922 1.922c.523.267 1.087.377 1.726.43.62.05 1.386.05 2.334.05h2.64a.9.9 0 0 0 0-1.8H9.5c-.995 0-1.687 0-2.226-.045-.527-.043-.828-.123-1.054-.238a2.598 2.598 0 0 1-.528-.356l3.734-3.734a.1.1 0 0 1 .142 0l1.793 1.807a.9.9 0 0 0 1.275.002l4.096-4.095a.9.9 0 0 0-1.273-1.273l-3.457 3.457-1.156-1.166a1.9 1.9 0 0 0-2.692-.005l-3.298 3.298a6.94 6.94 0 0 1-.011-.127C4.8 16.188 4.8 15.495 4.8 14.5v-5c0-.995 0-1.687.045-2.226.043-.527.123-.828.238-1.054A2.6 2.6 0 0 1 6.22 5.083c.226-.115.527-.195 1.054-.238C7.813 4.8 8.505 4.8 9.5 4.8h5c.995 0 1.687 0 2.226.045.527.043.828.123 1.054.238a2.6 2.6 0 0 1 1.137 1.137c.115.226.195.527.238 1.054.044.539.045 1.231.045 2.226v2.598a.9.9 0 1 0 1.8 0V9.462c0-.948 0-1.714-.05-2.334-.053-.64-.163-1.203-.43-1.726a4.4 4.4 0 0 0-1.922-1.922c-.523-.267-1.087-.377-1.726-.43C16.252 3 15.486 3 14.538 3ZM9 10.5a1.5 1.5 0 1 0 0-3 1.5 1.5 0 0 0 0 3Zm8.994 3.506a.9.9 0 0 1 .9.9v2.2l2.206.006a.9.9 0 1 1 0 1.8l-2.206-.006.012 2.194a.9.9 0 0 1-1.8 0l-.012-2.194h-2.2a.9.9 0 0 1 0-1.8h2.2v-2.2a.9.9 0 0 1 .9-.9Z" clip-rule="evenodd"/></svg>
