<svg fill="none" height="24" viewBox="0 0 24 24" width="24" xmlns="http://www.w3.org/2000/svg"><path d="m9.40971 2.10001 5.51359.00168c1.9439.02038 2.9256.22825 3.9433.77252.9716.51964 1.7395 1.28759 2.2592 2.25924.5745 1.07422.7742 2.10836.7742 4.27627v5.18058c0 2.1679-.1997 3.202-.7742 4.2763-.5197.9716-1.2876 1.7396-2.2592 2.2592-1.0743.5745-2.1084.7742-4.2763.7742h-5.18059c-2.16791 0-3.20205-.1997-4.27626-.7742-.97166-.5196-1.7396-1.2876-2.25925-2.2592-.5745-1.0743-.7742-2.1084-.7742-4.2763l.00168-5.51363c.02038-1.94383.22826-2.92554.77252-3.94322.51965-.97165 1.28759-1.7396 2.25925-2.25924 1.07421-.5745 2.10835-.7742 4.27626-.7742zm5.67979 11.19159-3.7279 4.5303c-.3155.3834-.8819.4388-1.2657.1239l-2.04186-1.6749-2.80587 2.7556c.21947.1969.46447.3678.73415.512.69593.3722 1.37233.5279 2.86523.5565l.56216.005h5.18059l.5622-.005c1.3172-.0253 1.9988-.1494 2.619-.4339l.2462-.1226c.6579-.3518 1.1689-.8628 1.5208-1.5208.0998-.1866.1841-.3719.2545-.5718zm-.4992-9.39159h-5.18059l-.56216.00498c-1.31726.02527-1.99884.14943-2.61905.43397l-.24618.12251c-.65797.35189-1.16897.86289-1.52086 1.52086l-.12251.24617c-.32248.70291-.43895 1.48464-.43895 3.18122v5.18058l.00498.5622c.02173 1.1325.11655 1.7951.32354 2.3528l3.14084-3.0849c.32798-.3221.84601-.3453 1.20144-.0537l1.9719 1.6175 3.7492-4.5561c.3236-.3933.909-.4399 1.2907-.1026l4.5088 3.985c.0014-.0517.0026-.1043.0036-.158l.005-.5622v-5.18058l-.005-.56217c-.0253-1.31725-.1494-1.99884-.434-2.61905l-.1225-.24617c-.3519-.65797-.8629-1.16897-1.5208-1.52086-.696-.37219-1.3724-.52784-2.8652-.55648zm-6.0903 3.1c.82843 0 1.5.67157 1.5 1.5 0 .82842-.67157 1.49999-1.5 1.49999s-1.5-.67157-1.5-1.49999c0-.82843.67157-1.5 1.5-1.5z" fill="currentColor"/></svg>
