<svg width="24" height="24" fill="none" xmlns="http://www.w3.org/2000/svg"><path d="M7.762 4.1h6.476c.808 0 1.469 0 2.006.044.556.045 1.058.142 1.526.381a3.9 3.9 0 011.705 1.704c.239.47.336.971.381 1.527.044.537.044 1.198.044 2.006V11.3a.9.9 0 01-1.8 0V9.8c0-.855 0-1.442-.038-1.897-.036-.445-.103-.684-.19-.856a2.1 2.1 0 00-.919-.918c-.172-.088-.411-.155-.856-.191C15.642 5.9 15.055 5.9 14.2 5.9H7.8c-.855 0-1.442 0-1.897.038-.445.036-.684.103-.856.19a2.1 2.1 0 00-.918.919c-.088.172-.155.411-.191.856C3.9 8.358 3.9 8.945 3.9 9.8v2.4c0 .855 0 1.442.038 1.897.036.445.103.684.19.856a2.1 2.1 0 00.919.918c.172.088.411.155.856.191.455.037 1.042.038 1.897.038h2.5a.9.9 0 010 1.8H7.762c-.808 0-1.469 0-2.006-.044-.556-.045-1.058-.142-1.527-.381a3.9 3.9 0 01-1.704-1.705c-.239-.468-.336-.97-.381-1.526-.044-.537-.044-1.198-.044-2.006V9.762c0-.808 0-1.469.044-2.006.045-.556.142-1.058.381-1.527a3.9 3.9 0 011.704-1.704c.47-.239.971-.336 1.527-.381C6.293 4.1 6.954 4.1 7.762 4.1z" fill="currentColor"/><path d="M13 16.8c0-.98 0-1.47.19-1.845a1.75 1.75 0 01.766-.764C14.33 14 14.82 14 15.8 14h3.4c.98 0 1.47 0 1.845.19.329.168.596.436.764.766.191.374.191.864.191 1.844v.4c0 .98 0 1.47-.19 1.845a1.75 1.75 0 01-.765.764C20.67 20 20.18 20 19.2 20h-3.4c-.98 0-1.47 0-1.845-.19a1.75 1.75 0 01-.764-.765C13 18.67 13 18.18 13 17.2v-.4zM7.636 8.364a.9.9 0 00-1.272 1.272L8.827 12.1H7.9a.9.9 0 100 1.8H11a.9.9 0 00.9-.9V9.9a.9.9 0 00-1.8 0v.927L7.636 8.364z" fill="currentColor"/></svg>
