<svg xmlns="http://www.w3.org/2000/svg" width="24" height="24" fill="currentColor" viewBox="0 0 24 24"><path d="M9 10.5a1.5 1.5 0 1 0 0-3 1.5 1.5 0 0 0 0 3Z"/><path fill-rule="evenodd" d="M9.461 3h5.077c.948 0 1.714 0 2.334.05.64.053 1.203.163 1.726.43a4.4 4.4 0 0 1 1.922 1.922c.267.523.377 1.087.43 1.726.05.62.05 1.386.05 2.334v5.076c0 .948 0 1.714-.05 2.334-.053.64-.163 1.203-.43 1.726a4.4 4.4 0 0 1-1.922 1.922c-.523.267-1.087.377-1.726.43-.62.05-1.386.05-2.334.05H9.461c-.947 0-1.713 0-2.333-.05-.64-.053-1.203-.163-1.726-.43a4.4 4.4 0 0 1-1.923-1.922c-.266-.523-.376-1.087-.428-1.726C3 16.252 3 15.486 3 14.538V9.462c0-.948 0-1.714.05-2.334.053-.64.163-1.203.43-1.726A4.4 4.4 0 0 1 5.401 3.48c.523-.267 1.087-.377 1.726-.43C7.748 3 8.514 3 9.46 3ZM7.274 4.845c-.528.043-.828.123-1.054.238A2.6 2.6 0 0 0 5.083 6.22c-.115.226-.195.527-.238 1.054C4.8 7.813 4.8 8.505 4.8 9.5v5c0 .995 0 1.687.045 2.226l.011.126 2.893-2.893c.18-.18.352-.352.509-.485.17-.145.381-.296.654-.384a1.9 1.9 0 0 1 1.177.002c.273.09.483.241.653.386.156.134.327.306.507.488l.753.759 2.761-2.76c.18-.18.351-.352.507-.484.17-.145.38-.295.653-.384a1.9 1.9 0 0 1 1.174 0c.272.089.482.24.652.384.157.132.328.303.508.483l.943.944V9.5c0-.995 0-1.687-.045-2.226-.043-.527-.123-.828-.239-1.054a2.6 2.6 0 0 0-1.136-1.137c-.226-.115-.527-.195-1.055-.238-.538-.044-1.23-.045-2.225-.045h-5c-.995 0-1.687 0-2.226.045ZM6.22 18.917a2.602 2.602 0 0 1-.528-.356l3.309-3.308c.209-.21.328-.328.421-.407.03-.025.05-.04.06-.047a.1.1 0 0 1 .03 0c.011.008.031.022.06.047.093.08.212.198.42.409l1.37 1.379a.9.9 0 0 0 1.274.002l3.379-3.378c.208-.208.327-.326.42-.405a.885.885 0 0 1 .06-.047.104.104 0 0 1 .03 0 .86.86 0 0 1 .06.047c.093.079.211.197.42.405l2.193 2.193c-.004.515-.014.927-.043 1.274-.043.528-.123.83-.239 1.055a2.6 2.6 0 0 1-1.136 1.137c-.226.115-.527.195-1.055.238-.538.044-1.23.045-2.225.045h-5c-.995 0-1.687 0-2.226-.045-.528-.043-.828-.123-1.054-.238Z" clip-rule="evenodd"/></svg>
