<svg xmlns="http://www.w3.org/2000/svg" width="24" height="24" fill="currentColor" viewBox="0 0 24 24"><path fill-rule="evenodd" d="M3 10.04c0-2.464 0-3.696.48-4.638A4.4 4.4 0 0 1 5.402 3.48C6.344 3 7.576 3 10.04 3h3.92c2.464 0 3.696 0 4.638.48a4.4 4.4 0 0 1 1.922 1.922c.48.942.48 2.174.48 4.638v3.92c0 2.464 0 3.696-.48 4.638a4.4 4.4 0 0 1-1.922 1.922c-.942.48-2.174.48-4.638.48h-3.92c-2.464 0-3.696 0-4.638-.48a4.4 4.4 0 0 1-1.922-1.922C3 17.656 3 16.424 3 13.96v-3.92ZM13.96 5h-3.92c-1.265 0-2.094.002-2.727.053-.61.05-.86.136-1.003.209A2.4 2.4 0 0 0 5.262 6.31c-.073.142-.159.393-.209 1.003C5.002 7.946 5 8.775 5 10.04V12h3.8c1.12 0 1.68 0 2.108.218a2 2 0 0 1 .874.874C12 13.52 12 14.08 12 15.2V19h1.96c1.265 0 2.094-.002 2.727-.053.61-.05.86-.136 1.003-.209a2.4 2.4 0 0 0 1.048-1.048c.073-.142.159-.393.209-1.003.051-.633.053-1.462.053-2.727v-3.92c0-1.265-.002-2.094-.053-2.727-.05-.61-.136-.86-.209-1.003a2.4 2.4 0 0 0-1.048-1.048c-.142-.073-.393-.159-1.003-.209C16.054 5.002 15.225 5 13.96 5Z" clip-rule="evenodd"/></svg>
