<svg fill="none" height="24" viewBox="0 0 24 24" width="24" xmlns="http://www.w3.org/2000/svg"><g clip-rule="evenodd" fill="currentColor" fill-rule="evenodd"><path d="m12 13c1.933 0 3.5-1.567 3.5-3.5s-1.567-3.5-3.5-3.5-3.5 1.567-3.5 3.5 1.567 3.5 3.5 3.5zm0-1.8c.9389 0 1.7-.7611 1.7-1.70001 0-.93889-.7611-1.7-1.7-1.7s-1.7.76111-1.7 1.7c0 .93891.7611 1.70001 1.7 1.70001z"/><path d="m4.24286 9.76987c0-4.28961 3.47142-7.76987 7.75714-7.76987 4.2857 0 7.7571 3.48026 7.7571 7.76987 0 3.13313-1.974 6.85263-5.5647 11.09803-.1031.1219-.2162.235-.3381.3381-1.2108 1.0241-3.0226.8727-4.04672-.3381l-.56708-.6705.00576-.0051c-3.23454-3.9654-5.0034-7.4566-5.0034-10.42243zm6.94214 9.93923c.3827.4485 1.0563.5037 1.5069.1226.0455-.0385.0877-.0807.1262-.1262 3.5452-4.1916 5.139-7.4834 5.139-9.93563 0-3.29864-2.6686-5.96987-5.9571-5.96987-3.28846 0-5.95714 2.67123-5.95714 5.96987 0 2.45223 1.59387 5.74403 5.13904 9.93563z"/></g></svg>
