<svg fill="none" height="24" viewBox="0 0 24 24" width="24" xmlns="http://www.w3.org/2000/svg"><g fill="currentColor"><path d="m11.295 19.2474c1.8691 1.8957 5.505.0205 5.505-3.5482v-5.0544l2.399-.69666c1.0719-.38398 1.801-1.41514 1.801-2.5837l-.0091-1.71972c-.0655-.42597-.4766-.72193-.9069-.62334-.0889.02038-.1779.0407-.267.06104-.9415.21501-1.886.43069-2.8072.72057-1.3316.45018-2.0301 1.61355-2.0098 3.07679v5.12022c-3.8868.1963-5.63861 3.2862-3.705 5.2474z"/><path d="m3.9 5.10001c-.49706 0-.9.40294-.9.9 0 .49705.40294.9.9.9h8.1965c.4971 0 .9-.40295.9-.9 0-.49706-.4029-.9-.9-.9z"/><path d="m3.9 10.1c-.49706 0-.9.4029-.9.9s.40294.9.9.9h7.1963c.4971 0 .9-.4029.9-.9s-.4029-.9-.9-.9z"/><path d="m3 16c0-.497.40294-.9.9-.9h4.18299c.49706 0 .90001.403.90001.9 0 .4971-.40295.9-.90001.9h-4.18299c-.49706 0-.9-.4029-.9-.9z"/></g></svg>
