<svg fill="none" height="24" viewBox="0 0 24 24" width="24" xmlns="http://www.w3.org/2000/svg"><g fill="currentColor"><path d="m3.85714 5.09998c-.47338 0-.85714.40294-.85714.9 0 .49705.38376.9.85714.9h14.28576c.4733 0 .8571-.40295.8571-.9 0-.49706-.3838-.9-.8571-.9z"/><path d="m3.86932 10.1c-.48011 0-.86932.4029-.86932.9 0 .497.38921.9.86932.9h7.26138c.4801 0 .8693-.403.8693-.9 0-.4971-.3892-.9-.8693-.9z"/><path d="m3 16c0-.4971.38921-.9.86932-.9h7.26138c.4801 0 .8693.4029.8693.9 0 .497-.3892.9-.8693.9h-7.26138c-.48011 0-.86932-.403-.86932-.9z"/><path d="m21.4933 16.9646c.6756-.4471.6756-1.4821 0-1.9292l-5.8301-3.8582c-.7225-.4781-1.6632.0675-1.6632.9646v7.7164c0 .8971.9407 1.4427 1.6632.9646z"/></g></svg>
