<svg fill="none" height="24" viewBox="0 0 24 24" width="24" xmlns="http://www.w3.org/2000/svg"><path clip-rule="evenodd" d="m14.0387 3.09998h-4.07742-.00001c-1.01727-.00001-1.83548-.00002-2.49758.05408-.68097.05563-1.27566.17295-1.82477.45274-.87495.44581-1.58631 1.15717-2.03212 2.03212-.27979.54911-.39711 1.1438-.45274 1.82477-.0541.6621-.05409 1.48031-.05408 2.49758v.00001 4.07742c-.00001 1.0173-.00002 1.8355.05408 2.4976.05563.6809.17295 1.2756.45274 1.8247.44581.875 1.15717 1.5863 2.03212 2.0322.54911.2797 1.1438.3971 1.82477.4527.6621.0541 1.48031.0541 2.49759.0541h4.07742c1.0172 0 1.8355 0 2.4976-.0541.6809-.0556 1.2756-.173 1.8247-.4527.875-.4459 1.5863-1.1572 2.0322-2.0322.2797-.5491.3971-1.1438.4527-1.8247.0541-.6621.0541-1.4804.0541-2.4976v-4.07742c0-1.01728 0-1.83549-.0541-2.49759-.0556-.68097-.173-1.27566-.4527-1.82477-.4459-.87495-1.1572-1.58631-2.0322-2.03212-.5491-.27979-1.1438-.39711-1.8247-.45274-.6621-.0541-1.4803-.05409-2.4976-.05408zm-7.5826 2.11063c.25307-.12894.58451-.21599 1.15417-.26253.58017-.0474 1.32476-.0481 2.38971-.0481h4.00002c1.0649 0 1.8095.0007 2.3897.0481.5696.04654.9011.13359 1.1541.26253.5363.27324.9723.70923 1.2455 1.24549.129.25307.216.58451.2626 1.15417.0474.58017.0481 1.32476.0481 2.38971v4.00002c0 1.0649-.0007 1.8095-.0481 2.3897-.0466.5696-.1336.9011-.2626 1.1541-.2732.5363-.7092.9723-1.2455 1.2455-.253.129-.5845.216-1.1541.2626-.5802.0474-1.3248.0481-2.3897.0481h-4.00002c-1.06495 0-1.80954-.0007-2.38971-.0481-.56966-.0466-.9011-.1336-1.15417-.2626-.53626-.2732-.97225-.7092-1.24549-1.2455-.12894-.253-.21599-.5845-.26253-1.1541-.0474-.5802-.0481-1.3248-.0481-2.3897v-4.00002c0-1.06495.0007-1.80954.0481-2.38971.04654-.56966.13359-.9011.26253-1.15417.27324-.53626.70923-.97225 1.24549-1.24549zm6.4439 2.68939c0-.49706-.403-.9-.9-.9-.4971 0-.9.40294-.9.9v8.2c0 .497.4029.9.9.9.497 0 .9-.403.9-.9zm-4.90002 2.1c.49705 0 .9.4029.9.9v5.2c0 .4971-.40295.9-.9.9-.49706 0-.9-.4029-.9-.9v-5.2c0-.4971.40294-.9.9-.9zm8.90002 2.9c0-.4971-.403-.9-.9-.9-.4971 0-.9.4029-.9.9v3.2c0 .4971.4029.9.9.9.497 0 .9-.4029.9-.9z" fill="currentColor" fill-rule="evenodd"/></svg>
