<svg xmlns="http://www.w3.org/2000/svg" width="24" height="24" fill="currentColor" viewBox="0 0 24 24"><path fill-rule="evenodd" d="M22 11.5c0 4.695-4.477 8.5-10 8.5-1.425 0-2.78-.253-4.008-.71-1.022.731-2.49 1.604-5.064 1.708-.298.012-.518-.314-.393-.597.664-1.52.965-2.697.965-4.401l.032.023C2.562 14.713 2 13.163 2 11.5 2 6.806 6.477 3 12 3s10 3.806 10 8.5ZM11.347 8.18c-.149.104-.296.279-.385.593a1 1 0 0 1-1.924-.546c.205-.723.61-1.299 1.164-1.686A3.12 3.12 0 0 1 12 6c1.733 0 3 1.492 3 3 0 1.172-.774 1.941-1.23 2.394l-.063.063c-.557.557-.707.772-.707 1.043a1 1 0 1 1-2 0c0-1.172.774-1.941 1.23-2.394l.063-.063C12.85 9.486 13 9.27 13 9c0-.492-.459-1-1-1-.278 0-.497.071-.653.18Zm1.902 7.57a1.25 1.25 0 1 1-2.5 0 1.25 1.25 0 0 1 2.5 0Z" clip-rule="evenodd"/></svg>
