<?xml version="1.0" encoding="UTF-8"?>
<svg width="24px" height="24px" viewBox="0 0 24 24" version="1.1" xmlns="http://www.w3.org/2000/svg" xmlns:xlink="http://www.w3.org/1999/xlink">
    <!-- Generator: Sketch 50.2 (55047) - http://www.bohemiancoding.com/sketch -->
    <title>recent_outline_24</title>
    <desc>Created with Sketch.</desc>
    <defs></defs>
    <g id="Page-2" stroke="none" stroke-width="1" fill="none" fill-rule="evenodd">
        <g id="recent_outline_24">
            <rect id="Rectangle-6" x="0" y="0" width="24" height="24"></rect>
            <path d="M12,21.4284989 C6.79252747,21.4284989 2.57142857,17.2074 2.57142857,11.9999275 C2.57142857,6.79245495 6.79252747,2.57135604 12,2.57135604 C17.206022,2.57135604 21.4285714,6.79245495 21.4285714,11.9999275 C21.4285714,17.2074 17.206022,21.4284989 12,21.4284989 Z M12,19.6284989 C16.2124532,19.6284989 19.6285714,16.2127437 19.6285714,11.9999275 C19.6285714,7.78711125 16.2124532,4.37135604 12,4.37135604 C7.78664002,4.37135604 4.37142857,7.78656749 4.37142857,11.9999275 C4.37142857,16.2132875 7.78664002,19.6284989 12,19.6284989 Z M16.085453,13.2411925 C16.5563894,13.4002015 16.8092565,13.9108732 16.6502474,14.3818095 C16.4912384,14.8527459 15.9805668,15.105613 15.5096304,14.946604 L11.2835172,13.5196805 C10.9177026,13.3961652 10.6714286,13.0530789 10.6714286,12.6669747 L10.6714286,8.35324938 C10.6714286,7.85619311 11.0743723,7.45324938 11.5714286,7.45324938 C12.0684848,7.45324938 12.4714286,7.85619311 12.4714286,8.35324938 L12.4714286,12.0209373 L16.085453,13.2411925 Z" id="Mask" fill="currentColor" fill-rule="nonzero"></path>
        </g>
    </g>
</svg>
