<svg xmlns="http://www.w3.org/2000/svg" width="24" height="24" fill="none" viewBox="0 0 24 24"><path stroke="currentColor" stroke-width="1.8" d="M6 5.9h12c.7149 0 1.197.0007 1.5687.031.3612.0296.5383.0826.6577.1434.301.1534.5458.3982.6992.6992.0608.1194.1138.2965.1433.6577.0304.3717.0311.8538.0311 1.5687v6c0 .7149-.0007 1.197-.0311 1.5687-.0295.3612-.0825.5383-.1433.6577a1.6005 1.6005 0 0 1-.6992.6992c-.1194.0608-.2965.1138-.6577.1433-.3717.0304-.8538.0311-1.5687.0311H6c-.715 0-1.197-.0007-1.5687-.0311-.3612-.0295-.5383-.0825-.6577-.1433a1.6003 1.6003 0 0 1-.6992-.6992c-.0608-.1194-.1138-.2965-.1433-.6577C2.9007 16.197 2.9 15.7149 2.9 15V9c0-.715.0007-1.197.031-1.5687.0296-.3612.0826-.5383.1434-.6577a1.6 1.6 0 0 1 .6992-.6992c.1194-.0608.2965-.1138.6577-.1433C4.803 5.9007 5.285 5.9 6 5.9z"/></svg>
