<svg fill="none" height="24" viewBox="0 0 24 24" width="24" xmlns="http://www.w3.org/2000/svg"><g fill="currentColor"><path clip-rule="evenodd" d="m12.4754 9.13192c.2663.1638.4285.45396.4285.76649v4.20209c0 .4971-.4031.9-.9003.9-.4973 0-.9004-.4029-.9004-.9v-2.7396c-.4428.2197-.9807.0412-1.20382-.4007-.22408-.4437-.04589-.98497.39802-1.20897l1.3004-.65625c.2791-.14084.6114-.12686.8776.03694z" fill-rule="evenodd"/><path d="m2.00464 12c0-3.25844 2.64246-5.89996 5.9021-5.89996h10.02596l-.5638-.56364c-.3516-.35148-.3516-.92132 0-1.2728.3516-.35147.9216-.35147 1.2732 0l2.1008 2.09998c.3516.35147.3516.92132 0 1.27279l-2.1008 2.09998c-.3516.35145-.9216.35145-1.2732 0-.3516-.35147-.3516-.92132 0-1.2728l.5637-.56351h-10.02586c-2.26517 0-4.10146 1.83563-4.10146 4.09996v.0967c0 .4971-.40309.9-.90032.9s-.90032-.4029-.90032-.9z"/><path d="m21.1043 11.0033c.4973 0 .9003.403.9003.9v.0967c0 3.2585-2.6424 5.9-5.9021 5.9h-10.02836l.56372.5636c.35159.3514.35159.9213 0 1.2727-.3516.3515-.92165.3515-1.27325 0l-2.10072-2.0999c-.3516-.3515-.3516-.9213 0-1.2728l2.10072-2.1c.3516-.3515.92165-.3515 1.27325 0 .35159.3515.35159.9213 0 1.2728l-.56384.5636h10.02848c2.2652 0 4.1015-1.8356 4.1015-4.1v-.0967c0-.497.4031-.9.9003-.9z"/></g></svg>
