<svg fill="none" height="24" viewBox="0 0 24 24" width="24" xmlns="http://www.w3.org/2000/svg"><g fill="currentColor"><path d="m2.00467 12.0001c0-3.25851 2.64246-5.90003 5.9021-5.90003h10.02603l-.5639-.56364c-.3516-.35148-.3516-.92132 0-1.2728.3516-.35147.9217-.35147 1.2733 0l2.1007 2.09998c.3516.35147.3516.92132 0 1.27279l-2.1007 2.09998c-.3516.35142-.9217.35142-1.2733 0-.3516-.35147-.3516-.92132 0-1.27279l.5637-.56352h-10.02583c-2.26517 0-4.10146 1.83563-4.10146 4.10003v.0967c0 .497-.40309.9-.90032.9s-.90032-.403-.90032-.9z"/><path d="m21.1043 11.0033c.4973 0 .9004.403.9004.9v.0968c0 3.2584-2.6425 5.9-5.9021 5.9h-10.02843l.56372.5635c.35159.3515.35159.9213 0 1.2728-.3516.3515-.92165.3515-1.27325 0l-2.10072-2.1c-.3516-.3515-.3516-.9213 0-1.2728l2.10072-2.1c.3516-.3514.92165-.3514 1.27325 0 .35159.3515.35159.9214 0 1.2728l-.56384.5637h10.02855c2.2651 0 4.1014-1.8357 4.1014-4.1v-.0968c0-.497.4031-.9.9003-.9z"/></g></svg>
