<svg height="24" viewBox="0 0 24 24" width="24" xmlns="http://www.w3.org/2000/svg"><g fill="none" fill-rule="evenodd"><path d="m0 0h24v24h-24z"/><path d="m12.227317 3.72539827c1.1157516.07873001 1.9964557 1.00881614 1.9964557 2.14460173l.001 2.11707307.020426.00489936c4.5322886.93898423 7.878574 4.95513877 7.878574 9.69345567 0 .3442757-.0176069.6873469-.0524331 1.0276162-.0830231.8111789-1.1156653 1.1026651-1.6105859.4546237l-.1868061-.2364796c-1.4593169-1.7864465-3.5370153-2.9583156-5.8356845-3.265329l-.2134904-.0257863-.001 2.4943341c0 .480596-.1611979.9475731-.4578297 1.3260345-.7324929.9345598-2.083906 1.0983675-3.0184658.3658747l-7.82367948-6.1320731c-.13624242-.1067846-.25909004-.2296322-.36587464-.3658747-.73249282-.9345598-.56868516-2.2859729.36587464-3.0184657l7.82367948-6.13207312c.3784613-.29663189.8454385-.45782978 1.3262955-.45782978zm-.1535443 1.79460173c-.078279 0-.1542986.02624152-.2159085.07453043l-7.82367948 6.13207307c-.15213765.119243-.17880401.3392405-.05956099.4913782.01738354.022179.03738199.0421774.05956099.0595609l7.82367948 6.1320731c.1521376.119243.3721351.0925767.4913781-.059561.0482889-.06161.0745304-.1376295.0745304-.2159086l.0010001-3.4473341c.0001458-.5027411.4121196-.9078807.9147928-.8996173l.2331478.0038326.342219.0165251c2.2740952.1451443 4.3967381.9871577 6.1185436 2.3658366l.1742967.1436841-.023799-.1353588c-.6428176-3.4154489-3.4349274-6.1053589-6.9683576-6.53625978-.4514826-.05505817-.7909275-.43830709-.7910523-.89313443l-.000791-2.88207308c-.0000001-.19354667-.1567004-.35024701-.3500001-.35024701z" fill="currentColor" fill-rule="nonzero"/></g></svg>
