<svg xmlns="http://www.w3.org/2000/svg" width="24" height="24" fill="none" viewBox="0 0 24 24"><path stroke="currentColor" stroke-linecap="round" stroke-linejoin="round" stroke-width="1.8" d="M4.9007 12.9009a7.0998 7.0998 0 0 0 8.877 6.9729 7.0997 7.0997 0 0 0 4.3834-10.4023 7.0998 7.0998 0 0 0-7.394-3.4636"/><g fill="currentColor"><path fill-rule="evenodd" d="M12.7461 2.773a.895.895 0 0 1-.0203 1.2692L10.6966 6l2.0292 1.9578a.895.895 0 0 1 .0203 1.2692c-.3464.356-.9169.365-1.2745.0201L8.7742 6.6447A.8957.8957 0 0 1 8.5 6a.896.896 0 0 1 .2742-.6447l2.6974-2.6024c.3575-.345.9281-.3359 1.2745.0201z" clip-rule="evenodd"/><path d="M12.7258 4.0422a.895.895 0 0 0 .0203-1.2692c-.3464-.356-.9169-.365-1.2745-.0201L8.7742 5.3554A.8958.8958 0 0 0 8.5 6c0 .243.099.4756.2742.6447l2.6975 2.6024c.3575.345.928.3359 1.2744-.0201a.895.895 0 0 0-.0203-1.2692l-1.1826-1.141a6.2 6.2 0 1 1-5.7426 6.0966.9.9 0 0 0-.8873-.9124.9.9 0 0 0-.9125.8873 8 8 0 1 0 7.7275-7.8837z"/></g></svg>
