<svg fill="none" height="28" viewBox="0 0 28 28" width="28" xmlns="http://www.w3.org/2000/svg"><g fill="currentColor"><path d="m13.5671 3.90849c0-.31935-.3501-.5151-.6222-.34787l-5.01852 3.0847c-.25935.15941-.25935.53633 0 .69574l5.01852 3.08474c.2721.1672.6222-.0286.6222-.3479v-2.20971c4.0271 0 7.2916 3.26461 7.2916 7.29171 0 4.027-3.2645 7.2916-7.2916 7.2916-3.5212 0-6.52188-2.5145-7.16555-5.9333-.08941-.4749-.54688-.7874-1.02178-.698-.47491.0895-.78741.5469-.698 1.0218.79869 4.2423 4.51872 7.3595 8.88533 7.3595 4.9936 0 9.0416-4.0481 9.0416-9.0416 0-4.9936-4.048-9.04171-9.0416-9.04171z"/><path clip-rule="evenodd" d="m15.6 12c1.4359 0 2.6034.8184 2.6 3.3-.0035 2.4816-1.1641 3.3-2.6 3.3s-2.6025-.8184-2.6-3.3 1.1641-3.3 2.6-3.3zm.003 1.4418c-.7182 0-1.1173.4774-1.1173 1.92s.3927 1.92 1.1173 1.92 1.1172-.4768 1.1172-1.92-.3991-1.92-1.1172-1.92z" fill-rule="evenodd"/><path d="m10.4735 18.0837c0 .2299.1847.4163.4125.4163h.7014c.2279 0 .4126-.1864.4126-.4163v-5.667c0-.298-.3013-.4995-.5733-.3834l-2.17484.9281c-.15266.0652-.25186.2162-.25186.3834v.5787c0 .2347.23421.3958.45073.3099l1.02277-.4053z"/></g></svg>
