<svg fill="none" height="24" viewBox="0 0 24 24" width="24" xmlns="http://www.w3.org/2000/svg"><g fill="currentColor"><path d="m11.6291 3.35006c0-.27373-.3001-.44151-.5333-.29817l-4.30162 2.64402c-.2223.13664-.2223.45972 0 .59636l4.30162 2.64403c.2332.14334.5333-.02445.5333-.29818v-1.89403c3.4517 0 6.25 2.79822 6.25 6.25001 0 3.4518-2.7983 6.25-6.25 6.25-3.01819 0-5.5902-2.1553-6.14191-5.0857-.07664-.407-.46876-.6749-.87582-.5983-.40706.0767-.67492.4688-.59829.8759.6846 3.6362 3.87319 6.3081 7.61602 6.3081 4.2802 0 7.75-3.4698 7.75-7.75 0-4.28021-3.4698-7.75001-7.75-7.75001z"/><path d="m9 15.8941c-.1933 0-.35-.1567-.35-.35v-3.5781l-.86763.3408c-.18368.0721-.38237-.0633-.38237-.2606v-.4865c0-.1407.08415-.2676.21366-.3224l1.84504-.7803c.23077-.0976.48634.0718.48634.3223v4.7648c0 .1933-.1567.35-.35.35z"/><path d="m11.2474 14.3493c-.0954.111-.1432.2467-.1432.4072 0 .2139.0837.4165.2511.6077.1675.1912.3963.345.6867.4613s.6108.1745.9613.1745c.4264 0 .8011-.0822 1.1242-.2467.323-.1645.5722-.3965.7474-.696.1753-.2995.2629-.6472.2629-1.043 0-.3556-.0725-.6685-.2177-.9386s-.3486-.4801-.6102-.6298c-.2616-.1498-.5637-.2247-.9064-.2247-.2302 0-.4433.0381-.6395.1143-.1962.0763-.3414.1772-.4356.3029h-.0667l.0864-1.1874h1.9697c.1909 0 .3368-.0448.4375-.1344s.151-.2173.151-.3831c0-.1684-.051-.2995-.153-.3931s-.2472-.1404-.4355-.1404h-2.2287c-.4892 0-.7481.2153-.7769.6459l-.1295 1.9495c-.0078.1311.015.2487.0687.353.0536.1043.1308.1852.2315.2427s.2151.0863.3433.0863c.0811 0 .1596-.0154.2354-.0462.0759-.0307.1609-.0835.2551-.1584.1177-.0856.24-.1518.3668-.1986.1269-.0468.2505-.0702.3708-.0702.1622 0 .308.0355.4375.1063.1295.0709.2302.1705.3022.2989.0719.1284.1079.2754.1079.4412 0 .1739-.038.3276-.1138.4614-.0759.1337-.1812.238-.3159.3129-.1347.0748-.2871.1123-.4571.1123-.1779 0-.3401-.0408-.4866-.1224-.1464-.0815-.2877-.2079-.4237-.3791-.0733-.0882-.1485-.1524-.2256-.1925-.0772-.0401-.1629-.0602-.257-.0602-.1544 0-.2793.0555-.3748.1665z"/></g></svg>
