<?xml version="1.0" encoding="UTF-8"?>
<svg width="24px" height="24px" viewBox="0 0 24 24" version="1.1" xmlns="http://www.w3.org/2000/svg" xmlns:xlink="http://www.w3.org/1999/xlink">
    <!-- Generator: Sketch 50.2 (55047) - http://www.bohemiancoding.com/sketch -->
    <title>reply_outline_24</title>
    <desc>Created with Sketch.</desc>
    <defs></defs>
    <g id="Page-2" stroke="none" stroke-width="1" fill="none" fill-rule="evenodd">
        <g id="reply_outline_24">
            <polygon id="Shape" points="0 0 24 0 24 24 0 24"></polygon>
            <path d="M23.6812353,18.2495767 C23.7722167,18.6408479 23.6524433,19.0512359 23.3652833,19.3321451 C22.9111953,19.7763489 22.1829232,19.7682929 21.7390067,19.3142206 C19.8186731,17.3511563 16.5495919,16.2819309 11.9030696,16.161459 L11.9030696,19.5979091 C11.9030696,19.9104586 11.7919272,20.2128237 11.5895051,20.4509675 C11.1183739,21.00524 10.28712,21.0726394 9.73284754,20.6015082 L0.794131598,13.0036067 C0.739971865,12.957571 0.689627501,12.9072266 0.643591721,12.853067 C0.172460042,12.2987949 0.239858629,11.4675409 0.794130679,10.9964093 L9.73284662,3.39849367 C9.9709906,3.19607109 10.2733561,3.08492842 10.585906,3.08492842 C11.3133553,3.08492842 11.9030696,3.67464264 11.9030696,4.40209199 L11.9030696,7.87136065 C18.1718607,8.17390528 22.1554285,11.6877421 23.6812353,18.2495767 Z M11.0030696,9.64999998 L10.1030696,9.64999998 L10.1030696,5.44619754 L2.3927124,12.0000072 L10.1030696,18.5538048 L10.1030696,14.35 L11.0030696,14.35 C15.4480998,14.35 18.9066759,15.1238524 21.3613187,16.7052975 C19.6719185,11.9582964 16.2650987,9.64999998 11.0030696,9.64999998 Z" id="Mask" fill="currentColor" fill-rule="nonzero"></path>
        </g>
    </g>
</svg>
