<svg fill="none" height="24" viewBox="0 0 24 24" width="24" xmlns="http://www.w3.org/2000/svg"><path clip-rule="evenodd" d="m9.11257 3.09993.05017.00008h5.67456l.0501-.00008c.1919-.00044.4189-.00096.6419.05258.1939.04654.3792.12331.5492.22749.1956.11982.3557.28073.4911.41671l.0354.03554 3.5628 3.56274.0355.03542c.136.13536.2969.29554.4167.49107.1042.17.181.35533.2275.5492.0535.22299.053.45002.0526.64189l-.0001.05018v5.67455l.0001.0502c.0004.1918.0009.4189-.0526.6418-.0465.1939-.1233.3792-.2275.5492-.1198.1956-.2807.3558-.4167.4911l-.0355.0354-3.5628 3.5628-.0354.0355c-.1354.136-.2955.2969-.4911.4167-.17.1042-.3553.181-.5492.2275-.223.0535-.45.053-.6419.0526l-.0501-.0001h-5.67456l-.05018.0001c-.19187.0004-.41891.0009-.64189-.0526-.19387-.0465-.37921-.1233-.5492-.2275-.19553-.1198-.35571-.2807-.49107-.4167l-.03542-.0355-3.56275-3.5628-.03553-.0354c-.13598-.1353-.29689-.2955-.41672-.4911-.10417-.17-.18094-.3553-.22748-.5492-.05354-.2229-.05302-.45-.05258-.6419l.00008-.0501v-5.67455l-.00008-.05017c-.00044-.19187-.00096-.41891.05258-.6419.04654-.19387.12331-.3792.22748-.5492.11983-.19553.28074-.35571.41672-.49107l.03553-.03542 3.56275-3.56275.03542-.03553c.13536-.13598.29554-.29689.49107-.41671.16999-.10418.35533-.18095.5492-.22749.22299-.05354.45003-.05302.6419-.05258zm-.22777 1.80451c-.006.00184-.01182.00425-.01737.00719-.004.00331-.01117.00943-.02221.01951-.03719.03394-.08544.08188-.17745.1739l-3.56274 3.56274c-.09202.09201-.13996.14026-.1739.17745-.01008.01104-.0162.01822-.01951.02221-.00294.00555-.00535.01137-.0072.01737-.00048.00516-.00122.01457-.0019.0295-.0023.0503-.00252.11831-.00252.24844v5.67455c0 .1301.00022.1981.00252.2484.00068.0149.00142.0244.0019.0295.00185.006.00426.0118.0072.0174.0033.004.00943.0111.01951.0222.03394.0372.08188.0854.1739.1774l3.56274 3.5628c.09201.092.14026.1399.17745.1739.01104.0101.01821.0162.02221.0195.00555.0029.01137.0053.01737.0072.00516.0005.01457.0012.0295.0019.0503.0023.11831.0025.24844.0025h5.67456c.1301 0 .1981-.0002.2484-.0025.0149-.0007.0243-.0014.0295-.0019.006-.0019.0118-.0043.0174-.0072.004-.0033.0111-.0094.0222-.0195.0372-.034.0854-.0819.1774-.1739l3.5628-3.5628c.092-.092.1399-.1402.1739-.1774.01-.0111.0162-.0182.0195-.0222.0029-.0056.0053-.0114.0072-.0174.0005-.0051.0012-.0146.0019-.0295.0023-.0503.0025-.1183.0025-.2484v-5.67455c0-.13013-.0002-.19814-.0025-.24844-.0007-.01493-.0014-.02433-.0019-.0295-.0019-.006-.0043-.01182-.0072-.01737-.0033-.00399-.0095-.01117-.0195-.02221-.034-.03719-.0819-.08544-.1739-.17745l-3.5628-3.56274c-.092-.09202-.1402-.13996-.1774-.1739-.0111-.01008-.0182-.0162-.0222-.01951-.0056-.00294-.0114-.00535-.0174-.00719-.0052-.00049-.0146-.00123-.0295-.00191-.0503-.0023-.1183-.00252-.2484-.00252h-5.67456c-.13013 0-.19814.00022-.24844.00252-.01493.00068-.02434.00142-.0295.00191zm4.1152 10.09556c0 .5523-.4477 1-1 1s-1-.4477-1-1 .4477-1 1-1 1 .4477 1 1zm-.1-6.49999c0-.49706-.4029-.9-.9-.9s-.9.40294-.9.9v3.59999c0 .4971.4029.9.9.9s.9-.4029.9-.9z" fill="currentColor" fill-rule="evenodd"/></svg>
