<svg fill="none" height="24" viewBox="0 0 24 24" width="24" xmlns="http://www.w3.org/2000/svg"><path clip-rule="evenodd" d="m8.86257 2.09993h6.27483c.6738-.00154 1.1989.21129 1.6822.69678l4.3837 4.3837c.4775.47532.6983.99714.6968 1.68216v6.27493c.0015.685-.2193 1.2068-.6968 1.6821l-4.3837 4.3837c-.4753.4775-.9971.6984-1.6822.6968h-6.27484c-.68502.0016-1.20684-.2193-1.68216-.6968l-4.3837-4.3837c-.4775-.4753-.69835-.9971-.69678-1.6822v-6.27482c-.00157-.68502.21928-1.20685.69678-1.68217l4.3837-4.3837c.48327-.48549 1.00843-.69832 1.68217-.69678zm-.4448 2.00511-4.31274 4.31274c-.17973.17972-.20503.24186-.20503.49497v6.17455c0 .2505.02527.3152.20503.4949l4.31274 4.3128c.17898.179.2408.205.49497.205h6.17456c.2531 0 .3154-.0255.4949-.205l4.3128-4.3128c.1795-.1795.205-.2453.205-.4949v-6.17455c0-.2539-.0261-.31599-.205-.49497l-4.3128-4.31274c-.1802-.18021-.2422-.20503-.4949-.20503h-6.17456c-.25391 0-.31846.02851-.49497.20503zm4.58223 11.89496c0 .5523-.4477 1-1 1s-1-.4477-1-1 .4477-1 1-1 1 .4477 1 1zm-.1-8.1c0-.49706-.4029-.9-.9-.9s-.9.40294-.9.9v5.2c0 .4971.4029.9.9.9s.9-.4029.9-.9z" fill="currentColor" fill-rule="evenodd"/></svg>
