<svg xmlns="http://www.w3.org/2000/svg" width="24" height="24" fill="currentColor" viewBox="0 0 24 24"><path d="M15.562 16.303a.9.9 0 0 1-1.259-.133 2.487 2.487 0 0 0-.53-.432A3.295 3.295 0 0 0 12 15.25a3.3 3.3 0 0 0-1.773.488c-.191.12-.381.26-.53.432a.9.9 0 0 1-1.4-1.132c.273-.329.616-.601.976-.826A5.094 5.094 0 0 1 12 13.45c1.197 0 2.11.376 2.727.762.36.224.706.497.976.826a.9.9 0 0 1-.14 1.265ZM10.25 10.25a1.25 1.25 0 1 1-2.5 0 1.25 1.25 0 0 1 2.5 0ZM15 11.5A1.25 1.25 0 1 0 15 9a1.25 1.25 0 0 0 0 2.5Z"/><path fill-rule="evenodd" d="M12 2.1c-5.468 0-9.9 4.432-9.9 9.9s4.432 9.9 9.9 9.9 9.9-4.432 9.9-9.9-4.432-9.9-9.9-9.9ZM3.9 12a8.1 8.1 0 1 1 16.2 0 8.1 8.1 0 0 1-16.2 0Z" clip-rule="evenodd"/></svg>
