<svg fill="none" height="24" width="24" xmlns="http://www.w3.org/2000/svg"><g fill="currentColor"><path d="M15.562 16.303a.9.9 0 0 1-1.259-.133 2.487 2.487 0 0 0-.53-.432c-.383-.24-.97-.488-1.773-.488s-1.39.249-1.773.488c-.191.12-.381.26-.53.432a.9.9 0 0 1-1.4-1.132c.273-.329.616-.601.976-.826.617-.386 1.53-.762 2.727-.762s2.11.376 2.727.762c.36.224.706.497.976.826a.9.9 0 0 1-.14 1.265zM10.25 10.25a1.25 1.25 0 1 1-2.5 0 1.25 1.25 0 0 1 2.5 0zM15 11.5A1.25 1.25 0 1 0 15 9a1.25 1.25 0 0 0 0 2.5z"/><path clip-rule="evenodd" d="M12 2.1c-5.468 0-9.9 4.432-9.9 9.9s4.432 9.9 9.9 9.9 9.9-4.432 9.9-9.9-4.432-9.9-9.9-9.9zM3.9 12a8.1 8.1 0 1 1 16.2 0 8.1 8.1 0 0 1-16.2 0z" fill-rule="evenodd"/></g></svg>
