<svg height="24" viewBox="0 0 24 24" width="24" xmlns="http://www.w3.org/2000/svg"><g fill="none" fill-rule="evenodd" transform=""><path d="m0 0h24v24h-24z"/><path d="m21 16.1c.4588212 0 .8374518.3433367.8929877.7871059l.0070123.1128941v.4294466c0 1.0830701-.1479139 1.7887026-.5070672 2.4602609-.3453404.6457305-.8574948 1.1578849-1.5032253 1.5032253-.6105075.326503-1.2491756.478428-2.1739781.5033523l-.2862828.0037149h-.4294466c-.4970563 0-.9-.4029437-.9-.9 0-.4588212.3433367-.8374518.7871059-.8929877l.1128941-.0070123h.4294466c.806566 0 1.2250633-.0877249 1.611383-.2943309.3320472-.1775809.5872586-.4327923.7648395-.7648395.1878236-.3511997.2773984-.7289925.2921325-1.4007646l.0021984-.2106184v-.4294466c0-.4970563.4029437-.9.9-.9zm-18 0c.45882118 0 .83745178.3433367.89298772.7871059l.00701228.1128941v.4294466c0 .806566.08772492 1.2250633.29433093 1.611383.17758082.3320472.43279222.5872586.76483949.7648395.35119969.1878236.72899249.2773984 1.40076455.2921325l.21061838.0021984h.42944665c.49705627 0 .9.4029437.9.9 0 .4588212-.34333667.8374518-.78710591.8929877l-.11289409.0070123h-.42944665c-1.08307009 0-1.78870255-.1479139-2.46026088-.5070672-.64573051-.3453404-1.15788483-.8574948-1.50322529-1.5032253-.32650303-.6105075-.47842797-1.2491756-.50335232-2.1739781l-.00371486-.2862828v-.4294466c0-.4970563.40294373-.9.9-.9zm14-2.7c.4588212 0 .8374518.3433367.8929877.7871059l.0070123.1128941v.3840486c0 .705142-.113763 1.2315686-.3735008 1.7172361-.2581869.4827675-.642447.8670276-1.1252145 1.1252145-.4249591.2272706-.8811243.3427792-1.4609157.3681052l-.2563204.0053956h-5.36809716c-.70514202 0-1.2315686-.113763-1.71723612-.3735008-.48276755-.2581869-.86702758-.642447-1.12521449-1.1252145-.22727061-.4249591-.34277922-.8811243-.36810528-1.4609157l-.00539555-.2563204v-.3840486c0-.4970563.40294373-.9.9-.9.45882118 0 .83745178.3433367.89298772.7871059l.00701228.1128941v.3840486c0 .4261864.05133818.6637485.16076458.8683581.09042728.1690843.21774439.2964014.38682869.3868287.17537964.0937941.37496933.1449111.69680141.1576018l.17155676.0031628h5.36809716c.4261864 0 .6637485-.0513382.8683581-.1607646.1690843-.0904273.2964014-.2177444.3868287-.3868287.0937941-.1753796.1449111-.3749693.1576018-.6968014l.0031628-.1715567v-.3840486c0-.4970563.4029437-.9.9-.9zm-10-1.4864028c-.04981086 0-.09867661-.0040465-.14628644-.0118287l-2.95371356-.0017685c-.49705627 0-.9-.4029437-.9-.9s.40294373-.9.9-.9h2.199l.001-.5361148c0-.94868486.0961435-1.44655677.37350083-1.96516988.25818691-.48276755.64244694-.86702758 1.12521449-1.12521449.47539535-.25424422.93336233-.35621848 1.73711771-.37144861l.22805217-.00205222h4.8722296c.9486849 0 1.4465568.0961435 1.9651699.37350083.4827675.25818691.8670276.64244694 1.1252145 1.12521449.2542442.47539535.3562185.93336233.3714486 1.73711771l.0020522.22805217-.001.5361148h2.201c.4970563 0 .9.4029437.9.9s-.4029437.9-.9.9l-12.95371356.0017685c-.04760983.0077822-.09647558.0118287-.14628644.0118287zm7.4361148-4.0135972h-4.8722296c-.67694839 0-.8940967.04193327-1.11629193.16076458-.1690843.09042728-.29640141.21774439-.38682869.38682869-.0960253.1795517-.1418366.35580779-.15588383.7740552l-.00488075.34223673-.001.5361148h8.2l.001-.5361148-.0043688-.32643854c-.0134217-.42963971-.0591702-.6080573-.1563958-.78985339-.0904273-.1690843-.2177444-.29640141-.3868287-.38682869-.1795517-.0960253-.3558078-.1418366-.7740552-.15588383zm-7.43722869-5.8c.49705627 0 .9.40294373.9.9 0 .45882118-.34333667.83745178-.78710591.89298772l-.11289409.00701228h-.42876328c-.80613181 0-1.22467116.08774546-1.61095241.29433093-.33204727.17758082-.58725867.43279222-.76483949.76483949-.18780497.35116477-.27739506.72898913-.29213206 1.40044104l-.00219887.64038854c0 .49705627-.40294373.9-.9.9-.45882118 0-.83745178-.34333667-.89298772-.78710591l-.00701228-.11289409v-.42987717c0-1.0826459.1479442-1.78832878.50706718-2.45983036.34534046-.64573051.85749478-1.15788483 1.50322529-1.50322529.61045599-.32647544 1.24916097-.47842296 2.17365195-.50335163l.28617841-.00371555zm10.43056049 0c1.0830701 0 1.7887026.14791385 2.4602609.50706718.6457305.34534046 1.1578849.85749478 1.5032253 1.50322529.326503.61050758.478428 1.24917559.5033523 2.17397811l.0037149.28628277v.42944665c0 .49705627-.4029437.9-.9.9-.4588212 0-.8374518-.34333667-.8929877-.78710591l-.0070123-.11289409v-.42944665c0-.80656595-.0877249-1.22506327-.2943309-1.61138293-.1775809-.33204727-.4327923-.58725867-.7648395-.76483949-.3511997-.18782365-.7289925-.27739846-1.4007646-.29213252l-.640065-.00219841c-.4970563 0-.9-.40294373-.9-.9 0-.45882118.3433367-.83745178.7871059-.89298772l.1128941-.00701228z" fill="currentColor" fill-rule="nonzero"/></g></svg>
