<svg fill="none" height="24" viewBox="0 0 24 24" width="24" xmlns="http://www.w3.org/2000/svg"><path clip-rule="evenodd" d="m16.2 5.90001c.8549 0 1.442.0007 1.8971.03788.4446.03633.6834.10293.8563.191.3951.20134.7164.5226.9177.91774.0881.17284.1547.41167.191.85627.0372.45511.0379 1.04218.0379 1.89711v4.39999c0 .8549-.0007 1.442-.0379 1.8971-.0363.4446-.1029.6834-.191.8563-.2013.3951-.5226.7164-.9177.9177-.1729.0881-.4117.1547-.8563.191-.4551.0372-1.0422.0379-1.8971.0379h-1.2c-.4971 0-.9.403-.9.9 0 .4971.4029.9.9.9h1.2377c.8081 0 1.4689 0 2.006-.0439.5559-.0454 1.058-.1423 1.5269-.3812.7338-.3739 1.3304-.9705 1.7043-1.7043.2389-.4689.3358-.971.3812-1.5269.0439-.5371.0439-1.1979.0439-2.0059v-.0001-4.4754-.00009c0-.80801 0-1.46883-.0439-2.00589-.0454-.55591-.1423-1.05799-.3812-1.52688-.3739-.73383-.9705-1.33045-1.7043-1.70436-.4689-.23891-.971-.33579-1.5269-.38121-.5371-.04388-1.1979-.04387-2.006-.04386h-10.23765c-.00002 0-.00003 0-.00005 0-1.69947.00002-3.14285 1.08655-3.6778 2.60007-.16564.46865.07999.98284.54863 1.14848.46865.16564.98284-.07999 1.14848-.54863.28871-.81684 1.06776-1.3999 1.98069-1.39992zm-13.1311 5.62029c.17576-.0135.35352-.0203.53306-.0203 3.81076 0 6.90004 3.0892 6.90004 6.9 0 .1795-.0069.3572-.0203.533-.0378.4956.3334.928.829.9658s.928-.3333.9658-.829c.0169-.2212.0255-.4446.0255-.6698 0-4.8049-3.89517-8.69999-8.70004-8.69999-.22526 0-.44868.00858-.66994.02546-.49562.03779-.86675.47023-.82896.96583.0378.4956.47022.8668.96584.829zm.53306 3.5797c-.16142 0-.31962.0115-.47393.0336-.49202.0706-.94811-.271-1.0187-.763-.07058-.492.27105-.9481.76307-1.0187.23872-.0343.48235-.0519.72956-.0519 2.81666 0 5.1 2.2833 5.1 5.1 0 .2472-.01765.4908-.0519.7295-.07058.492-.52666.8337-1.01868.7631s-.83366-.5267-.76307-1.0187c.02213-.1543.03365-.3125.03365-.4739 0-1.8226-1.47746-3.3-3.3-3.3zm-1.49994 3.3c0-.8284.67157-1.5 1.5-1.5s1.5.6716 1.5 1.5-.67157 1.5-1.5 1.5-1.5-.6716-1.5-1.5z" fill="currentColor" fill-rule="evenodd"/></svg>
