<svg fill="none" height="24" viewBox="0 0 24 24" width="24" xmlns="http://www.w3.org/2000/svg"><path clip-rule="evenodd" d="m3.00598 7.10548c-.526.07492-1.04278-.33092-.93568-.85132.0477-.23178.11458-.43211.20834-.61613.28762-.56449.74656-1.02343 1.31105-1.31105.64174-.32698 1.48181-.32698 3.16197-.32698h10.44844c1.6802 0 2.5202 0 3.162.32698.5645.28762 1.0234.74656 1.311 1.31105.327.64173.327 1.48181.327 3.16197v6.4c0 1.6802 0 2.5202-.327 3.162-.2876.5645-.7465 1.0234-1.311 1.311-.6418.327-1.4818.327-3.162.327h-1.4807c-.5186 0-.8992-.4866-.8258-1 .0701-.4899.1064-.9907.1064-1.5 0-5.799-4.701-10.5-10.50002-10.5-.5072 0-1.006.03596-1.494.10548zm1.19555 3.89452c-.21654 0-.97347.0084-1.12543.02-.55069.0419-1.03115-.3704-1.07315-.9211-.042-.55069.37038-1.03116.92106-1.07316.24506-.01869 1.08927-.02574 1.27752-.02574 4.8601 0 8.79997 3.9399 8.79997 8.8 0 .1883-.007 1.031-.0257 1.276-.042.5507-.5225.9631-1.0731.9211-.5507-.042-.9631-.5224-.9211-1.0731.0116-.152.0199-.9075.0199-1.124 0-3.7555-3.04444-6.8-6.79997-6.8zm-1.05945 4.0326c.12345-.0177.46617-.0326.65969-.0326 1.76731 0 3.2 1.4327 3.2 3.2 0 .1933-.01492.5344-.03265.658-.07842.5467.30117 1.0534.84786 1.1319.54669.0784 1.05345-.3012 1.13188-.8479.03865-.2695.05291-.7267.05291-.942 0-2.8719-2.32812-5.2-5.2-5.2-.21512 0-.67412.0142-.94372.0529-.54668.0785-.92628.5852-.84785 1.1319.07844.5467.5852.9263 1.13188.8478zm.35987 1.9674c-.82843 0-1.5.6716-1.5 1.5s.67157 1.5 1.5 1.5c.82842 0 1.5-.6716 1.5-1.5s-.67158-1.5-1.5-1.5z" fill="currentColor" fill-rule="evenodd"/></svg>
