<svg fill="none" height="24" viewBox="0 0 24 24" width="24" xmlns="http://www.w3.org/2000/svg"><path clip-rule="evenodd" d="m16.4118 3.5551.0882.0648.0882-.0648c.4735-.33362.999-.51942 1.5672-.55044l.1717-.00466c1.4762 0 2.6729 1.25425 2.6729 2.80146 0 1.51117-.5732 2.26293-2.859 4.12625l-1.0584.86279c-.3427.2793-.8225.2793-1.1652 0l-1.0584-.86279c-2.2858-1.86332-2.859-2.61508-2.859-4.12625 0-1.54721 1.1967-2.80146 2.6729-2.80146.6342 0 1.2181.18811 1.7389.5551zm-5.1353 12.6184c-2.9961.2885-5.65878-1.9064-5.94727-4.9025-.2737-2.84253 1.68791-5.38491 4.44827-5.88449.07365-.01327.14782-.02505.22247-.03533.07673-.01066.15403-.02.23183-.02749.4947-.04764.8572-.48735.8096-.98212-.0477-.49476-.4874-.85723-.9821-.80959-.11999.01155-.23896.02596-.35691.04315-2.68507.38861-4.8938 2.24874-5.78208 4.73627-1.31968 3.6867.53274 7.7748 4.20535 9.1993 1.39263.5402 2.85024.6211 4.20574.3163.9845-.219 1.8936-.6382 2.6824-1.2127.0631-.0458.1254-.0927.1871-.1406l4.2627 4.2627c.3514.3515.9213.3515 1.2727 0 .3515-.3515.3515-.9213 0-1.2728l-4.2625-4.2626c.0512-.0659.1014-.1329.1504-.2009.2285-.3152.4322-.6495.6083-1.0001h-.0031c.1012-.2025.1939-.4115.2774-.6268.1797-.4634-.0502-.9848-.5136-1.1646-.4635-.1797-.9849.0502-1.1646.5136-.1937.4995-.453.9542-.7642 1.3581-.3013.3898-.6542.7376-1.0486 1.0332-.594.4442-1.2732.7631-1.9927.937-.2281.0546-.4617.0948-.6999.1197-.0155.0007-.0311.0018-.0467.0033z" fill="currentColor" fill-rule="evenodd"/></svg>
