<svg fill="none" height="24" viewBox="0 0 24 24" width="24" xmlns="http://www.w3.org/2000/svg"><g clip-rule="evenodd" fill="currentColor" fill-rule="evenodd"><path d="m10.75 5.3c-.3492 0-.6899.03273-1.01956.09505-.48841.09233-.95919-.22875-1.05152-.71715-.09234-.48841.22874-.95919.71715-1.05153.43931-.08305.89203-.12637 1.35393-.12637 4.0041 0 7.25 3.24594 7.25 7.25 0 .4644-.0438.9194-.1277 1.3609-.0928.4883-.5639.809-1.0522.7161-.4883-.0928-.8089-.5639-.7161-1.0522.063-.3312.096-.6737.096-1.0248 0-3.00995-2.44-5.45-5.45-5.45z"/><path d="m3.50003 10.75c0 4.0041 3.24594 7.25 7.24997 7.25 1.6769 0 3.2224-.5703 4.4506-1.5265l4.2629 4.2629c.3515.3515.9213.3515 1.2728 0s.3515-.9213 0-1.2728l-16.2-16.2c-.35147-.35147-.92132-.35147-1.27279 0-.35147.35148-.35147.92132 0 1.2728l1.763 1.763c-.95615 1.22816-1.52648 2.77355-1.52648 4.4506zm1.8 0c0 3.01 2.44005 5.45 5.44997 5.45 1.1808 0 2.2725-.3746 3.1648-1.0124l-7.60241-7.60233c-.63776.89235-1.01236 1.98411-1.01236 3.16473z"/></g></svg>
