<svg fill="none" height="24" viewBox="0 0 24 24" width="24" xmlns="http://www.w3.org/2000/svg"><path clip-rule="evenodd" d="m4.891 9.77084v-.00001c-.56238-1.43864-.95863-2.55616-1.13497-3.27352-.02475-.10071-.05034-.20315-.07583-.30522-.07763-.3108-.15438-.61814-.2042-.86239-.03437-.1685-.07209-.38076-.08568-.60048-.01142-.18462-.02325-.58559.15355-1.01764.22983-.5616.71399-1.01489 1.36355-1.16997.49841-.119.92635-.01874 1.12277.03552.41278.11401.85688.34277 1.21976.5372 1.03938.55687 5.07785 2.6734 8.15105 4.28402 1.432.75048 2.6544 1.39112 3.2661 1.71296.0761.04003.1517.0797.2266.11896.4982.26138.962.50466 1.2985.71524.1931.12079.453.29609.6817.52839.2196.2232.61.7013.6388 1.4199.0298.7458-.346 1.2656-.5835 1.5216-.2332.2514-.501.4336-.6867.5511-.3126.1979-.7435.4245-1.1901.6594-.085.0447-.1705.0897-.256.1349-.4604.2434-1.3372.7081-2.4144 1.279-3.1152 1.6509-7.90664 4.1902-9.15331 4.8368-.39088.2028-.84694.4313-1.25403.5445-.18372.0511-.63177.1627-1.15127.0314-.71323-.1803-1.19051-.7102-1.37945-1.299-.13949-.4348-.10045-.8281-.08099-.992.02434-.2051.06888-.4065.10691-.5651.03701-.1543.08239-.3263.12611-.492l.00896-.0339c.04841-.1836.09907-.3764.1511-.5881.17391-.7074.5641-1.8143 1.11808-3.2422.35901-.9254.98449-1.6965 1.77114-2.2448-.7775-.5454-1.39637-1.3091-1.75425-2.22456zm4.19419 1.31166c.09112.0177.21822.0429.37227.0735.09667.0193.20396.0407.31963.0639.10507.021.20524.0411.30061.0603.9288.1872 1.4024.2959 1.5057.4656.0979.1605.0972.3633-.0017.5231-.1044.169-.5787.2746-1.5087.4558-.09541.0186-.19563.038-.30075.0584-.11568.0223-.22324.0431-.32054.0619-.15157.0292-.27821.0534-.37178.0712-.05344.0101-.09609.0181-.12644.0237-1.09944.2023-2.00965.942-2.40125 1.9513-.48932 1.2613-.8186 2.1923-.98786 2.7932-.02311.0821-.04324.158-.06039.2277-.00102.0042-.00204.0083-.00306.0125-.05763.2339-.11316.4444-.16259.6317-.3334 1.2637-.38913 1.475 1.06154.7225.12249-.0635.2795-.1455.46602-.2432.07557-.0396.15598-.0818.24091-.1264 1.82532-.9585 5.73429-3.0301 8.41679-4.4517 1.0831-.574 1.9663-1.042 2.4315-1.288.1146-.0606.2236-.1179.3271-.1724.0053-.0028.0105-.0056.0158-.0084.9354-.4927 1.4139-.7504 1.4163-1.0124.0023-.2594-.4619-.523-1.4114-1.023-.0057-.003-.0115-.006-.0172-.0091-.1416-.0745-.2938-.1542-.4567-.2399-.6045-.318-1.8176-.9538-3.2421-1.70037-2.587-1.35582-5.87122-3.07706-7.47364-3.92414-.07001-.03701-.13681-.07235-.20021-.10592-.21143-.11197-.38494-.20422-.51317-.27292-1.42756-.76485-1.36131-.49949-.98277 1.01675.02746.11003.05658.22664.08688.34992.00108.00437.00216.00876.00326.01317.01479.05956.0317.12341.05071.19156.00213.00763.00428.01531.00646.02305.17134.60775.50569 1.54778 1.00304 2.82009.39297 1.00531 1.30073 1.74151 2.39661 1.94381.02687.0049.06784.0128.12112.0232z" fill="currentColor" fill-rule="evenodd"/></svg>
