<?xml version="1.0" encoding="UTF-8"?>
<svg width="24px" height="24px" viewBox="0 0 24 24" version="1.1" xmlns="http://www.w3.org/2000/svg" xmlns:xlink="http://www.w3.org/1999/xlink">
    <!-- Generator: Sketch 50.2 (55047) - http://www.bohemiancoding.com/sketch -->
    <title>share_external_24</title>
    <desc>Created with Sketch.</desc>
    <defs></defs>
    <g id="Page-2" stroke="none" stroke-width="1" fill="none" fill-rule="evenodd">
        <g id="share_external_24">
            <polygon id="Shape" points="0 0 24 0 24 24 0 24"></polygon>
            <path d="M17,16.08 C16.24,16.08 15.56,16.38 15.04,16.85 L7.91,12.7 C7.96,12.47 8,12.24 8,12 C8,11.76 7.96,11.53 7.91,11.3 L14.96,7.19 C15.5,7.69 16.21,8 17,8 C18.66,8 20,6.66 20,5 C20,3.34 18.66,2 17,2 C15.34,2 14,3.34 14,5 C14,5.24 14.04,5.47 14.09,5.7 L7.04,9.81 C6.5,9.31 5.79,9 5,9 C3.34,9 2,10.34 2,12 C2,13.66 3.34,15 5,15 C5.79,15 6.5,14.69 7.04,14.19 L14.16,18.35 C14.11,18.56 14.08,18.78 14.08,19 C14.08,20.61 15.39,21.92 17,21.92 C18.61,21.92 19.92,20.61 19.92,19 C19.92,17.39 18.61,16.08 17,16.08 L17,16.08 Z" id="Mask" fill="currentColor"></path>
        </g>
    </g>
</svg>
