<?xml version="1.0" encoding="UTF-8"?>
<svg width="24px" height="24px" viewBox="0 0 24 24" version="1.1" xmlns="http://www.w3.org/2000/svg" xmlns:xlink="http://www.w3.org/1999/xlink">
    <!-- Generator: Sketch 50.2 (55047) - http://www.bohemiancoding.com/sketch -->
    <title>share_outline_24</title>
    <desc>Created with Sketch.</desc>
    <defs></defs>
    <g id="Page-2" stroke="none" stroke-width="1" fill="none" fill-rule="evenodd">
        <g id="share_outline_24">
            <polygon id="Shape" points="0 0 24 0 24 24 0 24"></polygon>
            <path d="M0.321834981,18.2495767 C1.84764179,11.6877421 5.83120958,8.17390528 12.1000008,7.87136065 L12.1000008,4.40209199 C12.1000008,3.67464264 12.689715,3.08492842 13.4171643,3.08492842 C13.7297143,3.08492842 14.0320797,3.19607109 14.2702237,3.39849367 L23.2089396,10.9964093 C23.7632117,11.4675409 23.8306103,12.2987949 23.3594786,12.853067 C23.3134428,12.9072266 23.2630985,12.957571 23.2089387,13.0036067 L14.2702228,20.6015082 C13.7159503,21.0726394 12.8846964,21.00524 12.4135652,20.4509675 C12.2111431,20.2128237 12.1000008,19.9104586 12.1000008,19.5979091 L12.1000008,16.161459 C7.45347839,16.2819309 4.18439719,17.3511563 2.26406363,19.3142206 C1.82014712,19.7682929 1.09187506,19.7763489 0.637786974,19.3321451 C0.350627046,19.0512359 0.23085366,18.6408479 0.321834981,18.2495767 Z M13.0000007,9.64999998 C7.73797159,9.64999998 4.3311518,11.9582964 2.6417516,16.7052975 C5.09639443,15.1238524 8.55497054,14.35 13.0000007,14.35 L13.9000007,14.35 L13.9000007,18.5538048 L21.6103579,12.0000072 L13.9000007,5.44619754 L13.9000007,9.64999998 L13.0000007,9.64999998 Z" id="Mask" fill="currentColor" fill-rule="nonzero"></path>
        </g>
    </g>
</svg>
