<?xml version="1.0" encoding="UTF-8"?>
<svg width="24px" height="24px" viewBox="0 0 24 24" version="1.1" xmlns="http://www.w3.org/2000/svg" xmlns:xlink="http://www.w3.org/1999/xlink">
    <!-- Generator: Sketch 50.2 (55047) - http://www.bohemiancoding.com/sketch -->
    <title>share_24</title>
    <desc>Created with Sketch.</desc>
    <defs></defs>
    <g id="Page-2" stroke="none" stroke-width="1" fill="none" fill-rule="evenodd">
        <g id="share_24">
            <polygon id="Shape" points="0 0 24 0 24 24 0 24"></polygon>
            <path d="M13,8.75 L13,4.58122089 C13,4.30507851 13.2238576,4.08122089 13.5,4.08122089 C13.6186451,4.08122089 13.7334241,4.12341104 13.8238244,4.20025138 L22.5518006,11.619038 C22.7622042,11.7978813 22.787789,12.1134283 22.6089457,12.3238319 C22.5914704,12.3443911 22.5723595,12.363502 22.5518002,12.3809773 L13.823824,19.7997502 C13.6134202,19.9785933 13.2978733,19.9530083 13.1190302,19.7426044 C13.04219,19.6522042 13,19.5374253 13,19.4187804 L13,15.25 C7.6538669,15.25 3.86076798,16.394955 1.62070321,18.6848651 L1.62073341,18.6848947 C1.52416615,18.7836107 1.36585774,18.7853527 1.26714168,18.6887854 C1.20470735,18.6277101 1.17866622,18.5384835 1.19844738,18.4534133 C2.70265417,11.9844711 6.63650504,8.75 13,8.75 Z M13,8.75 L13,4.58122089 C13,4.30507851 13.2238576,4.08122089 13.5,4.08122089 C13.6186451,4.08122089 13.7334241,4.12341104 13.8238244,4.20025138 L22.5518006,11.619038 C22.7622042,11.7978813 22.787789,12.1134283 22.6089457,12.3238319 C22.5914704,12.3443911 22.5723595,12.363502 22.5518002,12.3809773 L13.823824,19.7997502 C13.6134202,19.9785933 13.2978733,19.9530083 13.1190302,19.7426044 C13.04219,19.6522042 13,19.5374253 13,19.4187804 L13,15.25 C7.6538669,15.25 3.86076798,16.394955 1.62070321,18.6848651 L1.62073341,18.6848947 C1.52416615,18.7836107 1.36585774,18.7853527 1.26714168,18.6887854 C1.20470735,18.6277101 1.17866622,18.5384835 1.19844738,18.4534133 C2.70265417,11.9844711 6.63650504,8.75 13,8.75 Z" id="Mask" fill="currentColor" fill-rule="nonzero"></path>
        </g>
    </g>
</svg>
