<svg fill="none" height="24" viewBox="0 0 24 24" width="24" xmlns="http://www.w3.org/2000/svg"><g fill="currentColor"><path d="m2.89612 6.10003c-.49705 0-.9.40295-.9.9 0 .49706.40295.9.9.9 2.63083 0 4.50126 1.61159 6.38376 3.70447-1.00714 1.1832-1.95116 2.2783-2.97275 3.1071-1.07789.8744-2.16748 1.3884-3.40564 1.3884-.49706 0-.9.403-.9.9 0 .4971.40294.9.9.9 1.79058 0 3.26938-.76 4.53966-1.7906 1.09709-.89 2.09368-2.029 3.03445-3.1326.9528 1.1102 1.9515 2.264 3.049 3.1584 1.2481 1.0171 2.6996 1.7648 4.4755 1.7648h.9271l-.5635.5636c-.3515.3514-.3515.9213 0 1.2728.3514.3514.9213.3514 1.2727 0l2.1-2.1c.3515-.3515.3515-.9213 0-1.2728l-2.1-2.1c-.3514-.3515-.9213-.3515-1.2727 0-.3515.3515-.3515.9213 0 1.2728l.5636.5636h-.9272c-1.2242 0-2.2857-.5023-3.3383-1.3601-.9965-.8121-1.9165-1.8833-2.9205-3.0523l-.236-.2746c-2.10889-2.45106-4.63942-5.31297-8.60918-5.31297z"/><path d="m12.3183 8.40805c1.4864-1.24829 3.3824-2.30802 5.6818-2.30802h.9272l-.5636-.5636c-.3515-.35148-.3515-.92132 0-1.2728.3514-.35147.9213-.35147 1.2727 0l2.1 2.09998c.3515.35147.3515.92132 0 1.27279l-2.1 2.09998c-.3514.35142-.9213.35142-1.2727 0-.3515-.35147-.3515-.92132 0-1.27279l.5635-.56356h-.9271c-1.7171 0-3.2151.78696-4.5241 1.88638-.3806.31969-.9483.27029-1.268-.11037-.3197-.38062-.2703-.94832.1103-1.26799z"/></g></svg>
