<?xml version="1.0" encoding="UTF-8"?>
<svg width="24px" height="24px" viewBox="0 0 24 24" version="1.1" xmlns="http://www.w3.org/2000/svg" xmlns:xlink="http://www.w3.org/1999/xlink">
    <!-- Generator: Sketch 50.2 (55047) - http://www.bohemiancoding.com/sketch -->
    <title>skip_previous_24</title>
    <desc>Created with Sketch.</desc>
    <defs></defs>
    <g id="Page-2" stroke="none" stroke-width="1" fill="none" fill-rule="evenodd">
        <g id="skip_previous_24">
            <rect id="Rectangle-737" x="0" y="0" width="24" height="24"></rect>
            <path d="M11.0021606,11.2683229 L18.9566378,6.84285072 C19.0612394,6.7846556 19.1789603,6.75411295 19.2986606,6.75411295 C19.687193,6.75411295 20.0021606,7.06908063 20.0021606,7.45761295 L20.0021606,16.5407838 C20.0021606,16.6604842 19.971618,16.778205 19.9134229,16.8828067 C19.7245289,17.2223305 19.2961616,17.34444 18.9566378,17.155546 L11.0021606,12.7300738 L11.0021606,16.5417017 C11.0021606,16.6612422 10.9716995,16.7788112 10.9136522,16.8833121 C10.7249859,17.2229625 10.2967007,17.3453594 9.95705023,17.1566932 L1.77931058,12.6141899 C1.66444034,12.5503827 1.56973665,12.455679 1.50592947,12.3408088 C1.31726325,12.0011583 1.43966014,11.5728731 1.77931058,11.3842068 L9.95705023,6.84170352 C10.0615512,6.78365621 10.1791201,6.75319505 10.2986606,6.75319505 C10.687193,6.75319505 11.0021606,7.06816273 11.0021606,7.45669505 L11.0021606,11.2683229 Z" id="Mask" fill="currentColor"></path>
        </g>
    </g>
</svg>
