<svg fill="none" height="24" viewBox="0 0 24 24" width="24" xmlns="http://www.w3.org/2000/svg"><g fill="currentColor"><path d="m5.9 3.9c0-.49706-.40294-.9-.9-.9s-.9.40294-.9.9v1.19997h-1.2c-.49706 0-.9.40294-.9.9s.40294.9.9.9h1.2v13.20003c0 .4971.40294.9.9.9s.9-.4029.9-.9v-13.20003h1.2c.49706 0 .9-.40294.9-.9s-.40294-.9-.9-.9h-1.2z"/><path d="m12.9 3.90235c0-.49706-.403-.9-.9-.9-.4971 0-.9.40294-.9.9v9.19765h-1.2c-.49706 0-.9.4029-.9.9s.40294.9.9.9h1.2v5.1977c0 .497.4029.9.9.9.497 0 .9-.403.9-.9v-5.1977h1.1953c.4971 0 .9-.4029.9-.9s-.4029-.9-.9-.9h-1.1953z"/><path d="m18.9998 3.00236c.4971 0 .9.40294.9.9v5.19765h1.1978c.4971 0 .9.40295.9.89999 0 .4971-.4029.9-.9.9h-1.1978v9.2016c0 .497-.4029.9-.9.9-.497 0-.9-.403-.9-.9v-9.2016h-1.1975c-.4971 0-.9-.4029-.9-.9 0-.49704.4029-.89999.9-.89999h1.1975v-5.19765c0-.49706.403-.9.9-.9z"/></g></svg>
