<?xml version="1.0" encoding="UTF-8"?>
<svg width="24px" height="24px" viewBox="0 0 24 24" version="1.1" xmlns="http://www.w3.org/2000/svg" xmlns:xlink="http://www.w3.org/1999/xlink">
    <!-- Generator: Sketch 50.2 (55047) - http://www.bohemiancoding.com/sketch -->
    <title>smile_outline_24</title>
    <desc>Created with Sketch.</desc>
    <defs></defs>
    <g id="Page-2" stroke="none" stroke-width="1" fill="none" fill-rule="evenodd">
        <g id="smile_outline_24">
            <rect id="Bounds" x="0" y="0" width="24" height="24"></rect>
            <path d="M2.5,12 C2.5,6.75329488 6.75329488,2.5 12,2.5 C17.2467051,2.5 21.5,6.75329488 21.5,12 C21.5,17.2467051 17.2467051,21.5 12,21.5 C6.75329488,21.5 2.5,17.2467051 2.5,12 Z M19.6999998,12 C19.6999998,7.74740753 16.2525925,4.30000019 12,4.30000019 C7.74740753,4.30000019 4.30000019,7.74740753 4.30000019,12 C4.30000019,16.2525925 7.74740753,19.6999998 12,19.6999998 C16.2525925,19.6999998 19.6999998,16.2525925 19.6999998,12 Z M9,11.5714286 C8.28991961,11.5714286 7.71428571,10.9957947 7.71428571,10.2857143 C7.71428571,9.57563389 8.28991961,9 9,9 C9.71008039,9 10.2857143,9.57563389 10.2857143,10.2857143 C10.2857143,10.9957947 9.71008039,11.5714286 9,11.5714286 Z M14.9999896,11.5714286 C14.2899092,11.5714286 13.7142753,10.9957947 13.7142753,10.2857143 C13.7142753,9.57563389 14.2899092,9 14.9999896,9 C15.71007,9 16.2857039,9.57563389 16.2857039,10.2857143 C16.2857039,10.9957947 15.71007,11.5714286 14.9999896,11.5714286 Z M7.78661266,15.0854476 C7.49056309,14.6861738 7.57424289,14.1225028 7.97351672,13.8264532 C8.37279054,13.5304036 8.93646153,13.6140834 9.23251111,14.0133573 C9.34350406,14.1630504 9.46746266,14.304306 9.603876,14.4360388 C10.9489539,15.7349655 13.0923431,15.6975525 14.3912698,14.3524746 C14.5231684,14.2158896 14.6422553,14.0701994 14.7480558,13.916511 C15.0299053,13.5070896 15.590291,13.4036722 15.9997123,13.6855216 C16.4091336,13.9673711 16.5125511,14.5277568 16.2307016,14.9371781 C16.0687749,15.1723968 15.8868762,15.3949306 15.6860814,15.6028596 C13.6965862,17.6630423 10.4136736,17.7203458 8.35349094,15.7308505 C8.14582395,15.5303088 7.95648513,15.3145499 7.78661266,15.0854476 Z" id="Mask" fill="currentColor" fill-rule="nonzero"></path>
        </g>
    </g>
</svg>
