<svg width="24" height="24" viewBox="0 0 24 24" fill="none" xmlns="http://www.w3.org/2000/svg"><path d="M8.438 14.297a.9.9 0 011.259.133c.013.016.196.223.53.432.383.24.97.488 1.773.488.803 0 1.39-.249 1.773-.488.191-.12.382-.26.53-.432a.9.9 0 011.4 1.132c-.273.329-.616.601-.976.826A5.094 5.094 0 0112 17.15a5.094 5.094 0 01-2.727-.762 3.987 3.987 0 01-.976-.826.9.9 0 01.14-1.265zM10.25 10.25a1.25 1.25 0 11-2.5 0 1.25 1.25 0 012.5 0zM15 11.5A1.25 1.25 0 1015 9a1.25 1.25 0 000 2.5z" fill="currentColor"/><path fill-rule="evenodd" clip-rule="evenodd" d="M12 2.1c-5.468 0-9.9 4.432-9.9 9.9s4.432 9.9 9.9 9.9 9.9-4.432 9.9-9.9-4.432-9.9-9.9-9.9zM3.9 12a8.1 8.1 0 1116.2 0 8.1 8.1 0 01-16.2 0z" fill="currentColor"/></svg>
