<svg xmlns="http://www.w3.org/2000/svg" fill="none" viewBox="0 0 24 24"><path fill="currentColor" fill-rule="evenodd" d="M6.7196 3.5818c1.1295-1.2108 3.1586-.412 3.1586 1.2443 0 .2776.1179.5923.3252.8345.2059.2405.4347.3394.6235.3394h1.9557l-.3872-1.6383-.0003-.0016-.0595-.253a.9.9 0 0 1 1.7523-.4117l.0585.249.0004.0017.0003.0012 1.6127 6.768a2.1 2.1 0 0 0 1.379 1.5056l2.1925.7307c2.2676.7558 3.4018 2.7209 3.1229 4.6037-.2862 1.9311-1.9919 3.4421-4.666 3.4421H13.583a6.9012 6.9012 0 0 1-4.9093-2.0509l-5.4084-5.4742c-1.6587-1.679-1.6974-4.3674-.0875-6.0933zM13.2147 7.8l.2867 1.2031-2.8708.9006a.9.9 0 0 0-.5893 1.1281c.1487.4743.6538.7381 1.1281.5894l2.7502-.8628.0892.3742c.091.3819.2376.7423.4313 1.0718l-.8657.3368a.9.9 0 0 0 .6526 1.6775l1.6052-.6244c.2311.1353.4779.2478.7374.3343l2.1926.7307c1.5081.5026 2.052 1.6836 1.9114 2.6321-.1334.9003-.9448 1.906-2.8854 1.906H13.583a5.101 5.101 0 0 1-3.6289-1.5159l-5.4083-5.4743c-.9802-.9921-1.003-2.5806-.0518-3.6004l3.542-3.7972a.0836.0836 0 0 1 .0092-.0087l.0012-.001a.045.045 0 0 1 .0164.0036.0448.0448 0 0 1 .0143.0085l.0003.0014a.0824.0824 0 0 1 .0008.0127c0 .7433.296 1.4655.7577 2.005.4633.5412 1.1588.9689 1.991.9689z" clip-rule="evenodd"/></svg>
