<svg xmlns="http://www.w3.org/2000/svg" width="24" height="24" fill="none" viewBox="0 0 24 24"><path fill="currentColor" fill-rule="evenodd" d="m16.3021 4.0592-2.3995.6622a1.1002 1.1002 0 0 0-.8033 1.06v.8445l2.4065-.6812a1.1002 1.1002 0 0 0 .7963-1.058v-.8275Zm-3.2028 4.4399 2.9014-.8232C17.2435 7.3195 18.1 6.1815 18.1 4.8867V3.0048c0-.6621-.6306-1.1416-1.2674-.9636l-3.4134.9457c-1.252.35-2.1178 1.4925-2.1178 2.7944v8.9073c-2.6017.0183-4.2223.8358-5.016 2.1673-.8642 1.4495-.4995 3.1877.5047 4.1486.9481.9576 2.5796 1.3787 4.0596.5762 1.6626-1.0409 2.2097-2.6355 2.2496-4.9796v-8.102Zm-1.7965 7.9895c-2.3309-.045-3.144.7332-3.4864 1.3076-.402.6743-.2191 1.4936.23 1.9187.5086.4989 1.1995.6362 1.8924.3048.5616-.3275 1.364-.9817 1.364-3.5311Z" clip-rule="evenodd"/></svg>
