<svg fill="none" height="24" viewBox="0 0 24 24" width="24" xmlns="http://www.w3.org/2000/svg"><path d="m8.00001 6.10001c.49705 0 .9.40294.9.9l-.001 7.82699 1.46459-1.4634c.3222-.3222.8279-.349 1.1806-.0805l.0922.0805c.3515.3515.3515.9213 0 1.2728l-3 3c-.35147.3515-.92132.3515-1.27279 0l-3-3c-.35147-.3515-.35147-.9213 0-1.2728s.92132-.3515 1.27279 0l1.46261 1.4634.001-7.82699c0-.45882.34333-.83746.7871-.89299zm8.63639.2636 3 3c.3515.35147.3515.92129 0 1.27279s-.9213.3515-1.2728 0l-1.4646-1.46439.001 7.82799c0 .4971-.4029.9-.9.9s-.9-.4029-.9-.9l-.001-7.82799-1.4626 1.46439c-.3515.3515-.9213.3515-1.2728 0s-.3515-.92132 0-1.27279l3-3c.3515-.35147.9213-.35147 1.2728 0z" fill="currentColor"/></svg>
