<svg fill="none" height="24" viewBox="0 0 24 24" width="24" xmlns="http://www.w3.org/2000/svg"><g clip-rule="evenodd" fill="currentColor" fill-rule="evenodd"><path d="m16.6 18.38c-.4971 0-.9-.4029-.9-.9v-8.44563l-2.0636 2.06363c-.3515.3514-.9214.3514-1.2728 0-.3515-.3515-.3515-.9213 0-1.27282l3.5293-3.52928c.3905-.39052 1.0237-.39053 1.4142 0l3.5293 3.52929c.3514.35151.3514.92131 0 1.27281-.3515.3515-.9214.3515-1.2728 0l-2.0636-2.06362v8.44562c0 .4971-.4029.9-.9.9z"/><path d="m6.59999 17.1-.00002-10.21842c0-.49705.40294-.9.9-.9s.9.40295.9.9l.00002 10.21842c0 .4971-.40295.9-.9.9-.49706 0-.9-.4029-.9-.9z"/><path d="m11.7364 13.2636c.3515.3515.3515.9213 0 1.2728l-3.52931 3.5293c-.39052.3905-1.02369.3905-1.41421 0l-3.52928-3.5293c-.35147-.3515-.35147-.9213.00001-1.2728.35147-.3515.92132-.3515 1.27279 0l2.96359 2.9636 2.96361-2.9636c.3515-.3515.9213-.3515 1.2728 0z"/></g></svg>
