<svg xmlns="http://www.w3.org/2000/svg" width="24" height="24" fill="currentColor" viewBox="0 0 24 24"><path d="M12.803 2.218a.319.319 0 0 0-.606 0l-.242.728c-.159.476-.533.85-1.009 1.009l-.728.242a.319.319 0 0 0 0 .606l.728.242c.476.159.85.533 1.009 1.009l.242.728a.32.32 0 0 0 .606 0l.242-.728c.159-.476.533-.85 1.009-1.009l.728-.242a.319.319 0 0 0 0-.606l-.728-.242a1.595 1.595 0 0 1-1.009-1.009l-.242-.728Zm6.681 2.131a.51.51 0 0 0-.968 0l-.388 1.165a2.552 2.552 0 0 1-1.614 1.614l-1.165.388a.51.51 0 0 0 0 .968l1.165.388c.762.254 1.36.852 1.614 1.614l.388 1.165a.51.51 0 0 0 .968 0l.388-1.165a2.552 2.552 0 0 1 1.614-1.614l1.165-.388a.51.51 0 0 0 0-.968l-1.165-.388a2.552 2.552 0 0 1-1.614-1.614l-.388-1.165ZM7.9 7a.9.9 0 0 1 .9.9v10.2a.9.9 0 1 1-1.8 0V7.9a.9.9 0 0 1 .9-.9Zm-4 2a.9.9 0 0 1 .9.9v6.2a.9.9 0 1 1-1.8 0V9.9a.9.9 0 0 1 .9-.9Zm8.9.9a.9.9 0 1 0-1.8 0v10.2a.9.9 0 0 0 1.8 0V9.9Zm3.1 1.1a.9.9 0 0 1 .9.9v6.2a.9.9 0 1 1-1.8 0v-6.2a.9.9 0 0 1 .9-.9Z"/></svg>
