<svg xmlns="http://www.w3.org/2000/svg" width="24" height="24" fill="currentColor" viewBox="0 0 24 24"><path d="M12.901 3.879c-.369-1.16-.553-1.74-.696-1.82a.376.376 0 0 0-.398 0c-.142.08-.326.66-.693 1.822-.551 1.747-1.363 3.71-2.443 4.79s-3.044 1.89-4.793 2.441c-1.163.367-1.745.55-1.824.693a.376.376 0 0 0 0 .397c.078.143.66.328 1.821.698 1.75.556 3.715 1.373 4.796 2.454 1.08 1.08 1.89 3.036 2.44 4.776.366 1.156.548 1.734.691 1.813.137.076.26.076.397 0 .143-.078.328-.655.698-1.809.557-1.74 1.376-3.699 2.457-4.78 1.081-1.081 3.038-1.898 4.778-2.454 1.153-.368 1.73-.553 1.809-.696a.375.375 0 0 0 0-.396c-.08-.143-.657-.326-1.811-.692-1.74-.552-3.695-1.364-4.776-2.445-1.08-1.08-1.897-3.044-2.453-4.792Z"/></svg>
