<svg xmlns="http://www.w3.org/2000/svg" width="25" height="24" fill="currentColor" viewBox="0 0 25 24"><path d="M13.124 3.879c-.37-1.16-.554-1.74-.697-1.82a.376.376 0 0 0-.397 0c-.143.08-.326.66-.693 1.822-.552 1.747-1.363 3.71-2.443 4.79S5.85 10.56 4.1 11.112c-1.164.367-1.745.55-1.825.693a.376.376 0 0 0 0 .397c.079.143.66.328 1.822.698 1.75.556 3.715 1.373 4.796 2.454 1.08 1.08 1.89 3.036 2.44 4.776.366 1.156.548 1.734.69 1.813.137.076.26.076.398 0 .143-.078.327-.655.697-1.809.558-1.74 1.376-3.699 2.458-4.78 1.08-1.081 3.038-1.898 4.777-2.454 1.154-.368 1.73-.553 1.81-.695a.375.375 0 0 0 0-.397c-.08-.143-.657-.326-1.812-.692-1.739-.552-3.695-1.364-4.775-2.445-1.081-1.08-1.897-3.044-2.453-4.792Z"/></svg>
