<svg fill="none" height="24" viewBox="0 0 24 24" width="24" xmlns="http://www.w3.org/2000/svg"><path clip-rule="evenodd" d="m16.3938 5.07652c-1.4993-.95147-3.2669-1.39055-5.0372-1.25123-1.77019.13932-3.44737.84951-4.77935 2.02381s-2.24678 2.74924-2.60687 4.4881c-.36009 1.7388-.14601 3.5475.61005 5.1542.21163.4497.0186.9859-.43115 1.1975-.44975.2117-.98591.0187-1.19754-.4311-.92203-1.9594-1.1831-4.1652-.74396-6.28566.43914-2.12051 1.55474-4.04117 3.17911-5.47324s3.6697-2.29816 5.82851-2.46806c2.1588-.16991 4.3145.36556 6.1429 1.52589s3.2307 2.88283 3.9962 4.90853c.7654 2.02574.8526 4.24514.2484 6.32464-.6041 2.0795-1.867 3.9067-3.5987 5.207-1.7317 1.3002-3.8387 2.0031-6.0042 2.0031-.497 0-.9-.4029-.9-.9 0-.497.403-.9.9-.9 1.7757 0 3.5034-.5764 4.9235-1.6426 1.42-1.0661 2.4555-2.5645 2.9509-4.2697s.4239-3.5251-.2037-5.18618c-.6277-1.66108-1.7776-3.07353-3.2769-4.025z" fill="currentColor" fill-rule="evenodd"/></svg>
