<svg fill="none" height="24" width="24" xmlns="http://www.w3.org/2000/svg"><path clip-rule="evenodd" d="M7.6 10.9h.033c.392 0 .738 0 1.025-.023.306-.025.623-.081.932-.239a2.4 2.4 0 001.048-1.048c.158-.309.214-.626.239-.932.023-.287.023-.633.023-1.025V6.367c0-.392 0-.738-.023-1.025-.025-.306-.081-.623-.239-.932A2.4 2.4 0 009.59 3.362c-.309-.158-.626-.214-.931-.239C8.37 3.1 8.025 3.1 7.633 3.1H6.367c-.392 0-.738 0-1.025.023-.306.025-.623.081-.932.239A2.4 2.4 0 003.362 4.41c-.158.309-.214.626-.239.932-.023.287-.023.633-.023 1.025V7.633c0 .392 0 .738.023 1.025.025.306.081.623.239.932a2.4 2.4 0 001.048 1.048c.309.158.626.214.932.239.287.023.633.023 1.025.023H6.4zm1.172-1.865c-.012.006-.066.032-.26.048A12.65 12.65 0 017.6 9.1H6.4c-.435 0-.707 0-.912-.017-.194-.016-.248-.042-.26-.048a.6.6 0 01-.263-.263c-.006-.012-.032-.066-.048-.26A12.65 12.65 0 014.9 7.6V6.4c0-.435 0-.707.017-.912.016-.194.042-.248.048-.26a.6.6 0 01.263-.263c.012-.006.066-.032.26-.048.205-.016.477-.017.912-.017h1.2c.435 0 .707 0 .912.017.194.016.248.042.26.048a.6.6 0 01.263.263c.006.012.032.066.048.26.016.205.017.477.017.912v1.2c0 .435 0 .707-.017.912-.016.194-.042.248-.048.26a.6.6 0 01-.263.263zM7.6 20.9h.033c.392 0 .738 0 1.025-.023.306-.025.623-.081.932-.239a2.4 2.4 0 001.048-1.048c.158-.309.214-.626.239-.931.023-.288.023-.634.023-1.026V16.367c0-.392 0-.738-.023-1.025-.025-.306-.081-.623-.239-.932a2.4 2.4 0 00-1.048-1.048c-.309-.158-.626-.214-.931-.239-.288-.023-.634-.023-1.026-.023H6.367c-.392 0-.738 0-1.025.023-.306.025-.623.081-.932.239a2.4 2.4 0 00-1.048 1.048 2.44 2.44 0 00-.239.932c-.023.287-.023.633-.023 1.025V17.633c0 .392 0 .738.023 1.026.025.305.081.622.239.93a2.4 2.4 0 001.048 1.05c.309.157.626.213.932.238.287.023.633.023 1.025.023H6.4zm1.172-1.865c-.012.006-.066.032-.26.048-.205.016-.477.017-.912.017H6.4c-.435 0-.707 0-.912-.017-.194-.016-.248-.042-.26-.048a.6.6 0 01-.263-.263c-.006-.012-.032-.066-.048-.26A12.65 12.65 0 014.9 17.6v-1.2c0-.435 0-.707.017-.912.016-.194.042-.248.048-.26a.6.6 0 01.263-.263c.012-.006.066-.032.26-.048.205-.016.477-.017.912-.017h1.2c.435 0 .707 0 .912.017.194.016.248.042.26.048a.6.6 0 01.263.263c.006.012.032.066.048.26.016.205.017.477.017.912v1.2c0 .435 0 .707-.017.912-.016.194-.042.248-.048.26a.6.6 0 01-.263.263zm8.861-8.135H16.367c-.392 0-.738 0-1.025-.023-.306-.025-.623-.081-.932-.239a2.4 2.4 0 01-1.048-1.048c-.158-.309-.214-.626-.239-.932-.023-.287-.023-.633-.023-1.025V6.367c0-.392 0-.738.023-1.025.025-.306.081-.623.239-.932a2.4 2.4 0 011.048-1.048 2.44 2.44 0 01.932-.239c.287-.023.633-.023 1.025-.023H17.633c.392 0 .738 0 1.026.023.305.025.622.081.93.239a2.4 2.4 0 011.05 1.048c.157.309.213.626.238.932.023.287.023.633.023 1.025V7.633c0 .392 0 .738-.023 1.025-.025.306-.081.623-.239.932a2.4 2.4 0 01-1.048 1.048c-.309.158-.626.214-.931.239-.288.023-.634.023-1.026.023zm.879-1.817c.194-.016.248-.042.26-.048a.6.6 0 00.263-.263c.006-.012.032-.066.048-.26.016-.205.017-.477.017-.912V6.4c0-.435 0-.707-.017-.912-.016-.194-.042-.248-.048-.26a.6.6 0 00-.263-.263c-.012-.006-.066-.032-.26-.048A12.65 12.65 0 0017.6 4.9h-1.2c-.435 0-.707 0-.912.017-.194.016-.248.042-.26.048a.6.6 0 00-.263.263c-.006.012-.032.066-.047.26-.017.205-.018.477-.018.912v1.2c0 .435 0 .707.018.912.015.194.041.248.047.26a.6.6 0 00.263.263c.012.006.066.032.26.048.205.016.477.017.912.017h1.2c.435 0 .707 0 .912-.017zM17.6 20.9h.033c.392 0 .738 0 1.026-.023.305-.025.622-.081.93-.239a2.4 2.4 0 001.05-1.048c.157-.309.213-.626.238-.931.023-.288.023-.634.023-1.026V16.367c0-.392 0-.738-.023-1.026-.025-.305-.081-.622-.239-.93a2.4 2.4 0 00-1.048-1.05c-.309-.157-.626-.213-.931-.238-.288-.023-.634-.023-1.026-.023H16.367c-.392 0-.738 0-1.025.023-.306.025-.623.081-.932.239a2.4 2.4 0 00-1.048 1.048c-.158.309-.214.626-.239.931-.023.288-.023.634-.023 1.026V17.633c0 .392 0 .738.023 1.025.025.306.081.623.239.932a2.4 2.4 0 001.048 1.048c.309.158.626.214.932.239.287.023.633.023 1.025.023h.033zm1.172-1.865c-.012.006-.066.032-.26.048-.205.016-.477.017-.912.017h-1.2c-.435 0-.707 0-.912-.017-.194-.016-.248-.042-.26-.048a.6.6 0 01-.263-.263c-.006-.012-.032-.066-.047-.26a12.613 12.613 0 01-.018-.912v-1.2c0-.435 0-.707.018-.912.015-.194.041-.248.047-.26a.6.6 0 01.263-.263c.012-.006.066-.032.26-.048.205-.016.477-.017.912-.017h1.2c.435 0 .707 0 .912.017.194.016.248.042.26.048a.6.6 0 01.263.263c.006.012.032.066.048.26.016.205.017.477.017.912v1.2c0 .435 0 .707-.017.912-.016.194-.042.248-.048.26a.6.6 0 01-.263.263z" fill="currentColor" fill-rule="evenodd"/></svg>
