<svg fill="none" height="24" viewBox="0 0 24 24" width="24" xmlns="http://www.w3.org/2000/svg"><g clip-rule="evenodd" fill="currentColor" fill-rule="evenodd"><path d="m2.10001 19c0-.497.40294-.9.9-.9h17.99999c.4971 0 .9.403.9.9 0 .4971-.4029.9-.9.9h-17.99999c-.49706 0-.9-.4029-.9-.9z"/><path d="m16.5 5.90001c-.4971 0-.9-.40295-.9-.9 0-.49706.4029-.9.9-.9h4.5c.4971 0 .9.40294.9.9v4.5c0 .49705-.4029.89999-.9.89999s-.9-.40294-.9-.89999v-2.32721l-5.9636 5.9636c-.3515.3515-.9213.3515-1.2728 0l-3.36359-3.3636-5.86361 5.8636c-.35147.3515-.92132.3515-1.27279 0s-.35147-.9213 0-1.2728l6.5-6.49999c.35147-.35147.92132-.35147 1.27279 0l3.3636 3.36359 5.3272-5.32719z"/></g></svg>
