<svg xmlns="http://www.w3.org/2000/svg" width="24" height="24" fill="currentColor" viewBox="0 0 24 24"><path d="M9.995 9.795a1.306 1.306 0 0 1-1.305 1.3 1.294 1.294 0 0 1-1.295-1.3c.003-.719.587-1.301 1.305-1.301s1.298.582 1.295 1.3Zm5.602-1.101a1.307 1.307 0 0 1-1.305 1.301 1.294 1.294 0 0 1-1.295-1.3c.003-.72.587-1.302 1.305-1.302s1.298.583 1.295 1.301Z"/><path fill-rule="evenodd" d="M15.157 2.033c-.62.058-1.374.19-2.307.355l-5.221.922c-.933.164-1.687.297-2.29.455-.62.163-1.156.37-1.624.723a4.403 4.403 0 0 0-1.56 2.229c-.172.56-.182 1.136-.123 1.775.058.62.19 1.375.355 2.308l.981 5.566c.165.934.298 1.689.455 2.291.163.622.37 1.158.722 1.627a4.4 4.4 0 0 0 2.228 1.56c.56.172 1.135.183 1.774.123.613-.057 1.358-.188 2.278-.35l.528-.09.127-.021c.254-.043.49-.083.707-.13l1.277-.225c4.956-.875 8.266-5.604 7.392-10.564l-.52-2.953c-.135-.765-.259-1.54-.456-2.292-.162-.62-.369-1.157-.722-1.625a4.4 4.4 0 0 0-2.227-1.561c-.561-.172-1.135-.183-1.774-.123ZM5.795 5.508c-.512.134-.794.265-.997.418a2.6 2.6 0 0 0-.922 1.317c-.074.244-.1.554-.052 1.082.05.538.17 1.22.343 2.2l.967 5.49c.173.981.294 1.663.43 2.186.135.513.266.795.419.998a2.6 2.6 0 0 0 1.316.923c.243.074.553.1 1.08.052.305-.029.656-.08 1.08-.15l1.593-.273c.372-.063.613-.106.777-.14.192-.041.278-.07.344-.104a1.1 1.1 0 0 0 .582-.84c.017-.136-.01-.336-.167-1.154-.087-.455-.165-.851-.223-1.207a6.834 6.834 0 0 1-2.446-.117 7.443 7.443 0 0 1-1.309-.428l-.124-.058a.897.897 0 0 1-.393-1.21.904.904 0 0 1 1.209-.4c.06.03.127.059.254.108.181.07.446.158.77.231.563.128 1.27.198 2.006.057a4.403 4.403 0 0 1 2.282-3.058c.59-.309 1.33-.444 2.403-.641l.156-.028c.755-.14.933-.182 1.049-.242a1.1 1.1 0 0 0 .585-.844c.016-.13-.006-.312-.14-1.068l-.39-2.21c-.046-.223-.091-.42-.138-.6-.134-.512-.265-.794-.418-.997a2.6 2.6 0 0 0-1.317-.923c-.242-.074-.552-.1-1.08-.052-.538.05-1.22.17-2.2.343l-5.145.908c-.98.173-1.661.294-2.184.43Zm11.821 7.003-.118.022c-1.29.237-1.734.329-2.051.495a2.602 2.602 0 0 0-1.381 2.021c-.081.736.177 1.54.314 2.254.12.618.218 1.127.16 1.587-.003.035-.008.07-.014.105a7.325 7.325 0 0 0 4.668-6.956 2.936 2.936 0 0 1-.143.08c-.389.201-.862.288-1.435.392Z" clip-rule="evenodd"/></svg>
