<svg xmlns="http://www.w3.org/2000/svg" width="24" height="24" fill="currentColor" viewBox="0 0 24 24"><path fill-rule="evenodd" d="M11.639 2.106a.9.9 0 0 1 .668.263l9.324 9.324a.9.9 0 0 1 .262.668A9.87 9.87 0 0 1 19 19.001a9.872 9.872 0 0 1-7 2.899A9.872 9.872 0 0 1 5 19a9.872 9.872 0 0 1-2.9-7c0-2.734 1.11-5.21 2.9-7a9.87 9.87 0 0 1 6.639-2.894Zm-1.301 1.965a8.081 8.081 0 0 0-4.066 2.201A8.072 8.072 0 0 0 3.9 12c0 2.237.906 4.26 2.372 5.727A8.072 8.072 0 0 0 12 20.1a8.07 8.07 0 0 0 5.727-2.373 8.08 8.08 0 0 0 2.202-4.065A7.912 7.912 0 0 1 18 13.9a7.878 7.878 0 0 1-5.586-2.314A7.878 7.878 0 0 1 10.1 6c0-.665.082-1.311.238-1.93Zm1.71.585A6.12 6.12 0 0 0 11.9 6c0 1.685.682 3.208 1.787 4.313A6.079 6.079 0 0 0 18 12.1a6.13 6.13 0 0 0 1.344-.148l-7.296-7.296Z" clip-rule="evenodd"/></svg>
