<svg xmlns="http://www.w3.org/2000/svg" width="24" height="24" fill="currentColor" viewBox="0 0 24 24"><path d="M10.996 9.795a1.307 1.307 0 0 1-1.305 1.3 1.294 1.294 0 0 1-1.295-1.3c.002-.719.587-1.301 1.305-1.301s1.297.582 1.295 1.3Zm5.602-1.101a1.307 1.307 0 0 1-1.305 1.301 1.294 1.294 0 0 1-1.295-1.3c.003-.72.587-1.302 1.305-1.302s1.298.583 1.295 1.301Z"/><path fill-rule="evenodd" d="M16.158 2.033c-.62.058-1.374.19-2.307.355L8.63 3.31c-.934.164-1.688.297-2.29.455-.62.163-1.156.37-1.625.723a4.403 4.403 0 0 0-1.56 2.229c-.17.56-.182 1.136-.122 1.775.058.62.19 1.375.355 2.308l.98 5.566c.165.934.298 1.689.456 2.291.162.622.37 1.158.722 1.627a4.4 4.4 0 0 0 2.228 1.56c.56.172 1.135.183 1.773.123.614-.057 1.359-.188 2.279-.35l.655-.111c.253-.043.489-.083.707-.13l1.277-.225c4.956-.875 8.265-5.604 7.392-10.564l-.52-2.953c-.136-.765-.26-1.54-.456-2.292-.163-.62-.37-1.157-.722-1.625a4.4 4.4 0 0 0-2.228-1.561c-.56-.172-1.135-.183-1.773-.123ZM6.796 5.508c-.513.134-.795.265-.997.418-.439.33-.762.792-.922 1.317-.074.244-.101.554-.052 1.082.05.538.17 1.22.342 2.2l.968 5.49c.173.981.293 1.663.43 2.186.134.513.266.795.419.998a2.6 2.6 0 0 0 1.316.923c.243.074.553.1 1.08.052a15.9 15.9 0 0 0 1.08-.15l1.593-.273c.372-.063.613-.106.776-.14.192-.041.278-.07.344-.104a1.1 1.1 0 0 0 .582-.84c.017-.136-.01-.336-.167-1.154-.087-.455-.164-.851-.223-1.207a6.833 6.833 0 0 1-2.445-.117 7.445 7.445 0 0 1-1.31-.428l-.124-.058a.897.897 0 0 1-.392-1.21.904.904 0 0 1 1.208-.4c.06.03.128.059.255.108.18.07.446.158.769.231.564.128 1.271.198 2.006.057a4.403 4.403 0 0 1 2.282-3.058c.591-.309 1.33-.444 2.404-.641l.155-.028c.756-.14.934-.182 1.05-.242a1.1 1.1 0 0 0 .585-.844c.016-.13-.006-.312-.14-1.068l-.39-2.21c-.047-.223-.091-.42-.138-.6-.135-.512-.266-.794-.419-.997a2.6 2.6 0 0 0-1.316-.923c-.243-.074-.553-.1-1.08-.052-.538.05-1.22.17-2.2.343l-5.145.908c-.98.173-1.661.294-2.184.43Zm11.821 7.003-.119.022c-1.29.237-1.733.329-2.05.495a2.602 2.602 0 0 0-1.382 2.021c-.08.736.177 1.54.315 2.254.12.618.218 1.127.16 1.587l-.014.105a7.325 7.325 0 0 0 4.668-6.956 2.936 2.936 0 0 1-.144.08c-.388.201-.862.288-1.434.392Z" clip-rule="evenodd"/></svg>
