<svg xmlns="http://www.w3.org/2000/svg" width="24" height="24" fill="none" viewBox="0 0 24 24"><path fill="currentColor" fill-rule="evenodd" d="M10.3 3h-.0389c-1.0871 0-1.9578 0-2.6616.0575-.7226.059-1.3482.1832-1.924.4766A4.9 4.9 0 0 0 3.534 5.6754c-.2934.5759-.4176 1.2015-.4766 1.9241C3 8.3033 3 9.174 3 10.261v3.4779c0 1.0871 0 1.9578.0575 2.6616.059.7226.1832 1.3482.4766 1.9241a4.8999 4.8999 0 0 0 2.1413 2.1413c.5759.2934 1.2015.4176 1.9241.4766C8.3033 21 9.174 21 10.261 21h3.478c1.087 0 1.9577 0 2.6615-.0575.7226-.059 1.3482-.1832 1.9241-.4766a4.8998 4.8998 0 0 0 2.1413-2.1413c.2934-.5759.4176-1.2015.4766-1.9241C21 15.6967 21 14.8261 21 13.739v-3.478c0-1.087 0-1.9577-.0575-2.6615-.059-.7226-.1832-1.3482-.4766-1.924a4.8999 4.8999 0 0 0-2.1413-2.1414c-.5759-.2934-1.2015-.4176-1.9241-.4766C15.6967 3 14.826 3 13.739 3H10.3ZM6.4926 5.1379c.2798-.1426.6421-.2364 1.2535-.2864C8.368 4.8007 9.1651 4.8 10.3 4.8h3.4c1.135 0 1.932.0007 2.5539.0515.6114.05.9737.1438 1.2535.2864a3.0999 3.0999 0 0 1 1.3547 1.3547c.1426.2798.2364.6421.2864 1.2535.0508.6219.0515 1.419.0515 2.5539v3.4c0 1.135-.0007 1.932-.0515 2.5539-.05.6114-.1438.9737-.2864 1.2535a3.0997 3.0997 0 0 1-1.3547 1.3547c-.2798.1426-.6421.2364-1.2535.2864-.6219.0508-1.4189.0515-2.5539.0515h-3.4c-1.135 0-1.932-.0007-2.5539-.0515-.6113-.05-.9737-.1438-1.2535-.2864a3.0999 3.0999 0 0 1-1.3547-1.3547c-.1426-.2798-.2364-.6421-.2864-1.2535C4.8007 15.632 4.8 14.835 4.8 13.7v-3.4c0-1.135.0007-1.932.0515-2.5539.05-.6113.1438-.9737.2864-1.2535A3.1 3.1 0 0 1 6.4926 5.138ZM9.801 12c0-1.2145.9845-2.199 2.199-2.199 1.2145 0 2.1991.9845 2.1991 2.199 0 1.2145-.9846 2.1991-2.1991 2.1991-1.2145 0-2.199-.9846-2.199-2.1991ZM12 8.001c-2.2086 0-3.999 1.7904-3.999 3.999S9.7914 15.9991 12 15.9991c2.2087 0 3.9991-1.7905 3.9991-3.9991 0-2.2086-1.7904-3.999-3.9991-3.999Z" clip-rule="evenodd"/></svg>
