<svg height="24" viewBox="0 0 24 24" width="24" xmlns="http://www.w3.org/2000/svg"><g fill="none" fill-rule="evenodd"><path d="m0 0h24v24h-24z" opacity=".1"/><path d="m9.1277704 3.1 6.0460976.00174422c1.5606127.01876254 2.3675402.19140541 3.2042624.63888931.8086935.432494 1.4487421 1.07254261 1.8812361 1.88123609.4754516.88901728.6406335 1.74439929.6406335 3.50590078v5.7444592c0 1.7615015-.1651819 2.6168835-.6406335 3.5059008-.432494.8086935-1.0725426 1.4487421-1.8812361 1.8812361-.8890173.4754516-1.7443993.6406335-3.5059008.6406335h-5.7444592c-1.76150149 0-2.6168835-.1651819-3.50590078-.6406335-.80869348-.432494-1.44874209-1.0725426-1.88123609-1.8812361-.47545164-.8890173-.64063353-1.7443993-.64063353-3.5059008l.00174422-6.0460976c.01876254-1.56061265.19140541-2.36754024.63888931-3.20426238.432494-.80869348 1.07254261-1.44874209 1.88123609-1.88123609.88901728-.47545164 1.74439929-.64063353 3.50590078-.64063353zm5.7444592 1.8h-5.7444592c-1.31449854 0-1.91654386.08639662-2.44709575.32443824l-.20992708.10345905c-.49501023.26473436-.87811592.64784005-1.14285028 1.14285028-.31692563.59259939-.42789729 1.16725782-.42789729 2.65702283v5.7444592c0 1.3144985.08639662 1.9165439.32443824 2.4470957l.10345905.2099271c.26473436.4950103.64784005.8781159 1.14285028 1.1428503.52288182.2796403 1.03179575.3989357 2.16770161.4231348l.48932122.0047625h5.7444592c1.3144985 0 1.9165439-.0863966 2.4470957-.3244382l.2099271-.1034591c.4950103-.2647344.8781159-.64784 1.1428503-1.1428503.2796403-.5228818.3989357-1.0317957.4231348-2.1677016l.0047625-.4893212v-5.7444592c0-1.31449854-.0863966-1.91654386-.3244382-2.44709575l-.1034591-.20992708c-.2647344-.49501023-.64784-.87811592-1.1428503-1.14285028-.5925994-.31692563-1.1672578-.42789729-2.6570228-.42789729zm-2.8722296 3.2c2.1539105 0 3.9 1.74608948 3.9 3.9 0 2.1539105-1.7460895 3.9-3.9 3.9-2.15391052 0-3.9-1.7460895-3.9-3.9 0-2.15391052 1.74608948-3.9 3.9-3.9zm0 1.8c-1.159798 0-2.1.940202-2.1 2.1s.940202 2.1 2.1 2.1 2.1-.940202 2.1-2.1-.940202-2.1-2.1-2.1z" fill="currentColor" fill-rule="nonzero"/></g></svg>
