<?xml version="1.0" encoding="UTF-8"?>
<svg width="24px" height="24px" viewBox="0 0 24 24" version="1.1" xmlns="http://www.w3.org/2000/svg" xmlns:xlink="http://www.w3.org/1999/xlink">
    <!-- Generator: Sketch 50.2 (55047) - http://www.bohemiancoding.com/sketch -->
    <title>story_24</title>
    <desc>Created with Sketch.</desc>
    <defs></defs>
    <g id="Page-2" stroke="none" stroke-width="1" fill="none" fill-rule="evenodd">
        <g id="story_24">
            <rect id="Bounds" x="0" y="0" width="24" height="24"></rect>
            <path d="M8.1277704,3 L15.8722296,3 C17.6552671,3 18.3018396,3.18565122 18.9536914,3.53426541 C19.6055433,3.88287959 20.1171204,4.39445674 20.4657346,5.04630859 C20.8143488,5.69816044 21,6.34473292 21,8.1277704 L21,15.8722296 C21,17.6552671 20.8143488,18.3018396 20.4657346,18.9536914 C20.1171204,19.6055433 19.6055433,20.1171204 18.9536914,20.4657346 C18.3018396,20.8143488 17.6552671,21 15.8722296,21 L8.1277704,21 C6.34473292,21 5.69816044,20.8143488 5.04630859,20.4657346 C4.39445674,20.1171204 3.88287959,19.6055433 3.53426541,18.9536914 C3.18565122,18.3018396 3,17.6552671 3,15.8722296 L3,8.1277704 C3,6.34473292 3.18565122,5.69816044 3.53426541,5.04630859 C3.88287959,4.39445674 4.39445674,3.88287959 5.04630859,3.53426541 C5.69816044,3.18565122 6.34473292,3 8.1277704,3 Z M7.00284249,12.0028425 C7.00284249,14.7628425 9.24284249,17.0028425 12.0028425,17.0028425 C14.7628425,17.0028425 17.0028425,14.7628425 17.0028425,12.0028425 C17.0028425,9.24284249 14.7628425,7.00284249 12.0028425,7.00284249 C9.24284249,7.00284249 7.00284249,9.24284249 7.00284249,12.0028425 Z M8.79999995,12 C8.79999995,10.2325 10.2325,8.79999995 12,8.79999995 C13.7675,8.79999995 15.2,10.2325 15.2,12 C15.2,13.7675 13.7675,15.2 12,15.2 C10.2325,15.2 8.79999995,13.7675 8.79999995,12 Z" id="Mask" fill="currentColor"></path>
        </g>
    </g>
</svg>
