<svg fill="none" height="24" width="24" xmlns="http://www.w3.org/2000/svg"><g fill="currentColor"><path d="M8 9.5a1.5 1.5 0 113 0 1.5 1.5 0 01-3 0zm5 0a1.5 1.5 0 113 0 1.5 1.5 0 01-3 0zm1.5 3.5a1.5 1.5 0 100 3 1.5 1.5 0 000-3zM8 14.5a1.5 1.5 0 113 0 1.5 1.5 0 01-3 0z"/><path clip-rule="evenodd" d="M12 2.1C9.266 2.1 6.79 3.209 5 5s-2.9 4.266-2.9 7c0 2.733 1.11 5.21 2.9 7a9.872 9.872 0 007 2.9c2.733 0 5.21-1.11 7-2.9a9.872 9.872 0 002.9-7c0-2.734-1.11-5.21-2.9-7a9.872 9.872 0 00-7-2.9zM6.272 6.272A8.072 8.072 0 0112 3.9c2.237 0 4.26.905 5.728 2.372A8.072 8.072 0 0120.1 12c0 2.237-.906 4.26-2.373 5.727S14.237 20.1 12 20.1s-4.26-.906-5.728-2.373S3.9 14.237 3.9 12s.906-4.261 2.372-5.728z" fill-rule="evenodd"/></g></svg>
