<svg xmlns="http://www.w3.org/2000/svg" width="24" height="24" fill="currentColor" viewBox="0 0 24 24"><path fill-rule="evenodd" d="M3.536 2.264a.9.9 0 1 0-1.272 1.272l1.41 1.41A4.4 4.4 0 0 0 2.48 6.402c-.267.523-.377 1.087-.43 1.726C2 8.748 2 9.514 2 10.46v3.077c0 .948 0 1.713.05 2.334.053.64.163 1.203.43 1.725a4.4 4.4 0 0 0 1.922 1.923c.523.267 1.087.377 1.726.43.62.05 1.386.05 2.333.05h7.077c.948 0 1.714 0 2.334-.05.248-.021.485-.05.712-.093l1.88 1.88a.9.9 0 0 0 1.272-1.273l-18.2-18.2ZM6.9 14a.9.9 0 1 0 0 1.8h5.2a.9.9 0 1 0 0-1.8H6.9Zm0-3.8a.9.9 0 1 0 0 1.8h1.7a.9.9 0 0 0 0-1.8H6.9Z" clip-rule="evenodd"/><path d="m15.773 12 5.696 5.696.051-.099c.267-.522.377-1.086.43-1.725.05-.62.05-1.386.05-2.334v-3.077c0-.947 0-1.713-.05-2.333-.053-.64-.163-1.203-.43-1.726a4.4 4.4 0 0 0-1.922-1.923c-.523-.266-1.087-.376-1.726-.428C17.252 4 16.486 4 15.538 4H7.774l6.199 6.2H17.1a.9.9 0 1 1 0 1.8h-1.327Z"/></svg>
