<svg width="24" height="24" viewBox="0 0 24 24" fill="none" xmlns="http://www.w3.org/2000/svg">
<path d="M5 4H19C20.6569 4 22 5.34315 22 7V17C22 18.6569 20.6569 20 19 20H5C3.34315 20 2 18.6569 2 17V7C2 5.34315 3.34315 4 5 4ZM6 13H8C8.55228 13 9 12.5523 9 12C9 11.4477 8.55228 11 8 11H6C5.44772 11 5 11.4477 5 12C5 12.5523 5.44772 13 6 13ZM11 13H18C18.5523 13 19 12.5523 19 12C19 11.4477 18.5523 11 18 11H11C10.4477 11 10 11.4477 10 12C10 12.5523 10.4477 13 11 13ZM6 17H13C13.5523 17 14 16.5523 14 16C14 15.4477 13.5523 15 13 15H6C5.44772 15 5 15.4477 5 16C5 16.5523 5.44772 17 6 17ZM16 17H18C18.5523 17 19 16.5523 19 16C19 15.4477 18.5523 15 18 15H16C15.4477 15 15 15.4477 15 16C15 16.5523 15.4477 17 16 17Z" fill="currentColor"/>
</svg>
