<svg width="24" height="24" viewBox="0 0 24 24" fill="none" xmlns="http://www.w3.org/2000/svg">
<path d="M4 13.8284L9.81802 19.6464C11.5754 21.4038 14.4246 21.4038 16.182 19.6464L19.685 16.1434C19.9013 17.1122 19.6325 18.1675 18.8787 18.9213L16.5355 21.2645C14.5829 23.2171 11.4171 23.2171 9.46447 21.2645L5.17157 16.9716C4.42143 16.2214 4 15.204 4 14.1431V13.8284ZM18.8787 14.1213L14.7678 18.2322C13.7915 19.2085 12.2085 19.2085 11.2322 18.2322L5.17157 12.1716C4.42143 11.4214 4 10.404 4 9.34315V5.5C4 4.11929 5.11929 3 6.5 3H10.3431C11.404 3 12.4214 3.42143 13.1716 4.17157L18.8787 9.87868C20.0503 11.0503 20.0503 12.9497 18.8787 14.1213ZM9 10C10.1046 10 11 9.10457 11 8C11 6.89543 10.1046 6 9 6C7.89543 6 7 6.89543 7 8C7 9.10457 7.89543 10 9 10Z" fill="currentColor"/>
</svg>
