<svg fill="none" height="24" viewBox="0 0 24 24" width="24" xmlns="http://www.w3.org/2000/svg"><path clip-rule="evenodd" d="m10.9602 2.09998h2.0795c1.3665-.00001 2.4471-.00002 3.3176.07111.8894.07266 1.6384.22404 2.3212.57195 1.1102.56565 2.0128 1.46824 2.5784 2.57839.3479.6828.4993 1.43185.572 2.32127.0711.87049.0711 1.95107.0711 3.3175v2.0795c0 1.3665 0 2.4471-.0711 3.3176-.0727.8894-.2241 1.6384-.572 2.3212-.5656 1.1102-1.4682 2.0128-2.5784 2.5784-.6828.3479-1.4318.4993-2.3212.572-.8705.0711-1.9511.0711-3.3176.0711h-2.0795c-1.36643 0-2.44701 0-3.3175-.0711-.88942-.0727-1.63847-.2241-2.32127-.572-1.11015-.5656-2.01274-1.4682-2.57839-2.5784-.34791-.6828-.49929-1.4318-.57195-2.3212-.07113-.8705-.07112-1.9511-.07111-3.3176v-2.0795c-.00001-1.36643-.00002-2.44701.07111-3.3175.07266-.88942.22404-1.63847.57195-2.32127.56565-1.11015 1.46824-2.01274 2.57839-2.57839.6828-.34791 1.43185-.49929 2.32127-.57195.87049-.07113 1.95107-.07112 3.3175-.07111zm-3.17093 1.86513c-.7781.06357-1.2639.18468-1.65066.38174-.77146.39308-1.39868 1.0203-1.79176 1.79176-.19706.38676-.31817.87256-.38174 1.65066-.06443.78861-.06513 1.79572-.06513 3.21073v2c0 1.415.0007 2.4221.06513 3.2107.06357.7781.18468 1.2639.38174 1.6506.39308.7715 1.0203 1.3987 1.79176 1.7918.38676.1971.87256.3182 1.65066.3817.1005.0083.20455.0154.31253.0217-.00121-.0191-.00182-.0384-.00182-.0578v-2.5988c0-.497.40294-.9.9-.9.49705 0 .9.403.9.9v2.5988c0 .0337-.00186.0669-.00547.0997.33879.0015.70589.0016 1.10549.0016h2c.3995 0 .7665-.0001 1.1053-.0016-.0035-.0323-.0053-.0652-.0053-.0984v-2.6c0-.4971.4029-.9.9-.9.497 0 .9.4029.9.9v2.6c0 .019-.0006.0378-.0018.0565.108-.0063.212-.0134.3125-.0217.7781-.0635 1.2639-.1846 1.6506-.3817.7715-.3931 1.3987-1.0203 1.7918-1.7918.1971-.3867.3182-.8725.3817-1.6506.0645-.7886.0652-1.7957.0652-3.2107v-2c0-1.41501-.0007-2.42212-.0652-3.21073-.0635-.7781-.1846-1.2639-.3817-1.65066-.3931-.77146-1.0203-1.39868-1.7918-1.79176-.3867-.19706-.8725-.31817-1.6506-.38174-.7886-.06443-1.7957-.06513-3.2107-.06513h-2c-1.41501 0-2.42212.0007-3.21073.06513zm-1.78927 4.53487c0-.49706.40294-.9.9-.9h10.2c.4971 0 .9.40294.9.9 0 .49705-.4029.9-.9.9h-10.2c-.49706 0-.9-.40295-.9-.9zm0 4.50002c0-.4971.40294-.9.9-.9h10.2c.497 0 .9.4029.9.9 0 .497-.403.9-.9.9h-10.2c-.49706 0-.9-.403-.9-.9z" fill="currentColor" fill-rule="evenodd"/></svg>
