<svg fill="none" height="24" viewBox="0 0 24 24" width="24" xmlns="http://www.w3.org/2000/svg"><g fill="currentColor"><path d="m5.50126 5.63005c.34796-.35495.3423-.92477-.01265-1.27273-.35494-.34796-.92476-.3423-1.27273.01265-1.92648 1.96516-3.11587 4.6596-3.11587 7.63003 0 2.9704 1.18939 5.6649 3.11587 7.63.34797.355.91779.3607 1.27273.0127.35495-.348.36061-.9178.01265-1.2727-1.61001-1.6424-2.60125-3.8895-2.60125-6.37 0-2.48046.99124-4.72762 2.60125-6.36995z"/><path d="m19.7841 4.36997c-.3479-.35495-.9178-.36061-1.2727-.01265s-.3606.91778-.0126 1.27273c1.61 1.64233 2.6012 3.88949 2.6012 6.36995 0 2.4805-.9912 4.7276-2.6012 6.37-.348.3549-.3423.9247.0126 1.2727s.9248.3423 1.2727-.0127c1.9265-1.9651 3.1159-4.6596 3.1159-7.63 0-2.97043-1.1894-5.66487-3.1159-7.63003z"/><path d="m8.8525 7.9868c.39087-.30706.45882-.87284.15176-1.26371s-.87284-.45882-1.26371-.15176c-1.60617 1.26177-2.64054 3.22468-2.64054 5.42867 0 2.204 1.03437 4.1669 2.64054 5.4287.39087.307.95665.2391 1.26371-.1518.30706-.3908.23911-.9566-.15176-1.2637-1.19047-.9352-1.95249-2.3849-1.95249-4.0132 0-1.6282.76202-3.07799 1.95249-4.0132z"/><path d="m16.2595 6.57133c-.3909-.30706-.9567-.23911-1.2637.15176-.3071.39087-.2392.95665.1517 1.26371 1.1905.93521 1.9525 2.385 1.9525 4.0132 0 1.6283-.762 3.078-1.9525 4.0132-.3909.3071-.4588.8729-.1517 1.2637.307.3909.8728.4588 1.2637.1518 1.6061-1.2618 2.6405-3.2247 2.6405-5.4287 0-2.20399-1.0344-4.1669-2.6405-5.42867z"/><path d="m12.9 10.9h1.1c.4971 0 .9-.4029.9-.9 0-.49705-.4029-.89999-.9-.89999h-4c-.49705 0-.89999.40294-.89999.89999 0 .4971.40294.9.89999.9h1.1v3.6c0 .4971.4029.9.9.9s.9-.4029.9-.9z"/></g></svg>
