<svg xmlns="http://www.w3.org/2000/svg" width="24" height="24" fill="currentColor" viewBox="0 0 24 24"><path fill-rule="evenodd" d="M3.038 18.111c.566 0 .881-.278 1.104-1.002l.872-2.616h4.583l.872 2.616c.213.715.547 1.002 1.113 1.002.603 0 1.002-.352 1.002-.909 0-.232-.056-.482-.158-.788L8.947 6.57c-.315-.937-.77-1.336-1.614-1.336-.844 0-1.299.409-1.624 1.336L2.23 16.414c-.12.352-.176.593-.176.816 0 .538.4.881.984.881Zm2.477-5.232 1.744-5.353h.102l1.735 5.353H5.515Zm14.25 3.85h.102v.436c.046.585.408.928.974.928.64 0 1.002-.408 1.002-1.113v-5.613c0-2.134-1.383-3.322-3.86-3.322-1.02 0-1.8.177-2.393.501-.826.446-1.216 1.002-1.216 1.568 0 .446.297.752.752.752.353 0 .594-.093.844-.334.566-.575 1.104-.854 1.883-.854 1.253 0 1.93.575 1.93 1.68v.871h-2.449c-2.19.01-3.507 1.114-3.507 2.923 0 1.781 1.29 2.987 3.2 2.987 1.216 0 2.2-.5 2.738-1.41Zm-3.869-1.68c0-.9.63-1.41 1.726-1.41h2.161v1.058c0 1.058-.918 1.874-2.115 1.874-1.058 0-1.772-.612-1.772-1.521Z" clip-rule="evenodd"/></svg>
