<svg xmlns="http://www.w3.org/2000/svg" width="24" height="24" fill="currentColor" viewBox="0 0 24 24"><path fill-rule="evenodd" d="m6.365 20.225 1.722-4.855h7.81l1.735 4.854c.105.297.23.487.377.603.144.113.33.174.594.174.601 0 .987-.37.987-.841 0-.14-.032-.312-.133-.59l-2.874-7.767H19.1a.9.9 0 0 0 0-1.8h-3.183l-2.59-6.998c-.136-.365-.309-.612-.515-.769-.204-.155-.459-.235-.787-.235-.356 0-.628.084-.842.243-.215.16-.39.41-.526.774l-2.582 6.985H4.9a.9.9 0 0 0 0 1.8h2.51L4.54 19.57c-.101.278-.133.452-.133.59 0 .473.385.843.986.843.265 0 .451-.061.595-.175.147-.116.272-.305.377-.602Zm2.95-8.422-.684 1.95h6.735l-.684-1.95H9.315Zm4.735-1.8-1.87-5.329h-.363l-1.87 5.329h4.103Z" clip-rule="evenodd"/></svg>
