<svg xmlns="http://www.w3.org/2000/svg" width="24" height="24" fill="currentColor" viewBox="0 0 24 24"><path fill-rule="evenodd" d="M8.995 4.997v5.838A5.979 5.979 0 0 0 6 16.015C6 19.322 8.687 22 12 22s6-2.679 6-5.984a5.979 5.979 0 0 0-2.994-5.18V4.997A3.003 3.003 0 0 0 12 1.998a3.002 3.002 0 0 0-3.005 3Zm4.207 6.374a.9.9 0 0 0 .423.763.909.909 0 0 0 .154.091c.056.027.113.054.168.083 1.34.701 2.25 2.1 2.25 3.708A4.19 4.19 0 0 1 12 20.2a4.19 4.19 0 0 1-4.196-4.184 4.182 4.182 0 0 1 2.41-3.788.903.903 0 0 0 .14-.08.9.9 0 0 0 .445-.777V8h2.403v3.371Z" clip-rule="evenodd"/></svg>
