<svg xmlns="http://www.w3.org/2000/svg" width="24" height="24" fill="currentColor" viewBox="0 0 24 24"><path d="M3.014 11.493c-.014.11-.014.24-.014.502v7c0 .261 0 .392.014.502.1.774.71 1.384 1.484 1.484.11.014.24.014.502.014.261 0 .392 0 .502-.014.774-.1 1.384-.71 1.484-1.484.014-.11.014-.24.014-.502v-7c0-.261 0-.392-.014-.502a1.719 1.719 0 0 0-1.484-1.484c-.11-.014-.24-.014-.502-.014-.261 0-.392 0-.502.014-.774.1-1.384.71-1.484 1.484Zm11.849 8.502c3.24 0 5.137-1.53 5.137-5.042v-1.08c0-3.511-1.896-4.878-5.137-4.878H14V5.866a1.865 1.865 0 0 0-3.65-.54L8.863 10.06a1.49 1.49 0 0 0-.064.432v7.904c0 .56 0 .84.109 1.054a1 1 0 0 0 .437.437c.214.11.494.11 1.054.11h4.463Z"/></svg>
