<svg xmlns="http://www.w3.org/2000/svg" width="24" height="24" fill="currentColor" viewBox="0 0 24 24"><path d="M14.037 9.264a.9.9 0 1 0-1.273 1.272l.7.7a.9.9 0 1 0 1.272-1.272l-.7-.7Z M21.034 6.55a.9.9 0 0 0-1.194-.073 1.65 1.65 0 0 1-2.316-2.316.9.9 0 0 0-.074-1.195c-.862-.855-1.54-1.502-2.374-1.773a3.9 3.9 0 0 0-2.41 0c-.5.162-.924.449-1.35.81-.41.348-.877.816-1.449 1.387l-6.48 6.48c-.572.572-1.039 1.04-1.388 1.45-.36.425-.647.849-.81 1.35a3.9 3.9 0 0 0 0 2.41c.271.835.92 1.512 1.775 2.374a.9.9 0 0 0 1.196.073 1.65 1.65 0 0 1 2.316 2.316.9.9 0 0 0 .073 1.196c.861.855 1.538 1.502 2.373 1.773a3.9 3.9 0 0 0 2.41 0c.5-.162.924-.449 1.35-.81.41-.349.877-.816 1.449-1.387l6.48-6.48c.572-.572 1.039-1.04 1.388-1.45.36-.426.647-.849.81-1.35a3.9 3.9 0 0 0 0-2.41c-.271-.835-.92-1.512-1.775-2.374Zm-4.65 1.066a3.45 3.45 0 0 0 3.861.705c.554.586.76.88.852 1.16a2.1 2.1 0 0 1 0 1.298c-.06.185-.182.4-.47.74-.296.349-.71.764-1.315 1.369l-.826.825-.95-.95a.9.9 0 0 0-1.272 1.273l.95.95-4.33 4.33c-.604.604-1.02 1.018-1.368 1.314-.34.289-.556.41-.74.47a2.1 2.1 0 0 1-1.298 0c-.28-.09-.574-.297-1.158-.85a3.45 3.45 0 0 0-4.568-4.567c-.554-.585-.76-.88-.85-1.16a2.1 2.1 0 0 1 0-1.297c.059-.185.18-.4.47-.741.295-.348.71-.764 1.314-1.368l4.33-4.33.948.95a.9.9 0 1 0 1.272-1.273l-.948-.949.825-.825c.605-.605 1.02-1.02 1.369-1.315.34-.289.556-.41.74-.47a2.1 2.1 0 0 1 1.298 0c.28.09.574.297 1.16.85a3.45 3.45 0 0 0 .704 3.861Z" clip-rule="evenodd"/></svg>
