<svg xmlns="http://www.w3.org/2000/svg" width="24" height="24" fill="currentColor" viewBox="0 0 24 24"><path fill-rule="evenodd" d="M13.824 3.61c.442-.737 1.392-1.148 2.283-.735.812.376 2.11 1.118 3.305 2.415 1.354 1.471 1.878 2.854 2.073 3.58l.005.021c.028.1.079.286.064.52-.013.193-.075.41-.168.58a1.61 1.61 0 0 1-.353.427l-.02.019-2.113 1.956v5.139c0 .462 0 .863-.154 1.32-.12.351-.396.806-.653 1.074-.333.346-.62.495-.954.669l-.03.015c-1.148.595-2.947 1.29-5.109 1.29s-3.961-.695-5.11-1.29l-.029-.015c-.334-.174-.621-.323-.954-.67a3.303 3.303 0 0 1-.653-1.073c-.155-.457-.154-.858-.154-1.32v-5.139l-2.113-1.956-.02-.019a1.643 1.643 0 0 1-.353-.427 1.469 1.469 0 0 1-.168-.58c-.015-.234.036-.42.063-.52l.006-.02c.195-.727.718-2.11 2.073-3.58a10.635 10.635 0 0 1 3.305-2.416c.89-.413 1.84-.002 2.282.735.827 1.377 2.823 1.377 3.65 0Zm1.554.911a.103.103 0 0 0-.01.015c-1.526 2.542-5.21 2.542-6.736 0a.097.097 0 0 0-.01-.015c-.67.314-1.735.93-2.71 1.989-1.027 1.115-1.45 2.137-1.618 2.684l2.317 2.145A.9.9 0 0 1 6.9 12v5.462c0 .558.009.664.059.81.034.103.172.33.247.408.116.12.168.153.513.332.989.513 2.5 1.088 4.281 1.088 1.782 0 3.292-.575 4.281-1.088.345-.18.397-.211.513-.332.075-.078.213-.305.247-.408.05-.146.059-.252.059-.81V12a.9.9 0 0 1 .288-.66l2.317-2.146c-.167-.547-.59-1.569-1.617-2.684a8.836 8.836 0 0 0-2.71-1.989Z" clip-rule="evenodd"/></svg>
