<svg width="24" height="24" fill="none" xmlns="http://www.w3.org/2000/svg"><path fill-rule="evenodd" clip-rule="evenodd" d="M6.165 3.1h11.67c.53 0 .981 0 1.352.03.389.032.768.102 1.13.286a2.9 2.9 0 011.267 1.267c.184.362.254.74.286 1.13.03.37.03.822.03 1.352v.265c0 .254 0 .496-.017.7-.018.222-.06.478-.19.733a1.9 1.9 0 01-.83.83c-.255.13-.51.172-.733.19-.204.017-.446.017-.7.017H4.57c-.254 0-.496 0-.7-.017a1.922 1.922 0 01-.733-.19 1.9 1.9 0 01-.83-.83 1.922 1.922 0 01-.19-.733 9.126 9.126 0 01-.017-.7v-.265c0-.53 0-.981.03-1.352.032-.39.102-.768.286-1.13a2.9 2.9 0 011.267-1.267c.362-.184.74-.254 1.13-.286.37-.03.822-.03 1.352-.03zM4.96 4.924c-.278.023-.394.062-.46.096a1.1 1.1 0 00-.48.48c-.034.066-.073.182-.096.46-.023.288-.024.665-.024 1.24v.2c0 .295 0 .462.01.583a.849.849 0 00.01.077.1.1 0 00.02.02.84.84 0 00.076.01c.122.01.29.01.584.01h14.8c.295 0 .462 0 .584-.01a.84.84 0 00.075-.01.099.099 0 00.021-.02.823.823 0 00.01-.077c.01-.121.01-.288.01-.583v-.2c0-.575 0-.952-.024-1.24-.023-.278-.062-.394-.096-.46a1.1 1.1 0 00-.48-.48c-.067-.034-.182-.073-.46-.096-.288-.023-.665-.024-1.24-.024H6.2c-.575 0-.952 0-1.24.024z" fill="currentColor"/><path fill-rule="evenodd" clip-rule="evenodd" d="M15.835 20.9h-7.67c-.53 0-.981 0-1.352-.03-.39-.032-.768-.102-1.13-.286a2.9 2.9 0 01-1.267-1.267c-.184-.362-.254-.741-.286-1.13-.03-.37-.03-.822-.03-1.352V8.1h15.8v8.735c0 .53 0 .981-.03 1.352-.032.389-.102.768-.286 1.13a2.9 2.9 0 01-1.267 1.267c-.362.184-.741.254-1.13.286-.37.03-.822.03-1.352.03zM5.9 9.9h12.2v6.9c0 .575 0 .952-.024 1.24-.023.278-.062.393-.096.46a1.101 1.101 0 01-.48.48c-.067.034-.182.073-.46.096-.288.023-.665.024-1.24.024h-2.9v-3.963l.85.886a.9.9 0 101.3-1.246l-2.4-2.5a.9.9 0 00-1.286-.013l-2.5 2.5a.9.9 0 101.272 1.272l.964-.963V19.1H8.2c-.575 0-.952 0-1.24-.024-.278-.023-.394-.062-.46-.096a1.1 1.1 0 01-.48-.48c-.034-.067-.073-.182-.096-.46-.023-.288-.024-.665-.024-1.24V9.9z" fill="currentColor"/></svg>
