<svg fill="none" height="24" viewBox="0 0 24 24" width="24" xmlns="http://www.w3.org/2000/svg"><g clip-rule="evenodd" fill="currentColor" fill-rule="evenodd"><path d="m12 3.90001c-4.4735 0-8.09999 3.62649-8.09999 8.09999s3.62649 8.1 8.09999 8.1 8.1-3.6265 8.1-8.1-3.6265-8.09999-8.1-8.09999zm-9.89999 8.09999c0-5.46761 4.43238-9.89999 9.89999-9.89999 5.4676 0 9.9 4.43238 9.9 9.89999 0 5.4676-4.4324 9.9-9.9 9.9-5.46761 0-9.89999-4.4324-9.89999-9.9z"/><path d="m7 12c0-.497.40295-.9.9-.9h8.2c.4971 0 .9.403.9.9 0 .4971-.4029.9-.9.9h-8.2c-.49705 0-.9-.4029-.9-.9z"/></g></svg>
