<svg xmlns="http://www.w3.org/2000/svg" width="24" height="24" fill="currentColor" viewBox="0 0 24 24"><path fill-rule="evenodd" d="M9.782 4.005c.818-1.976 3.618-1.976 4.436 0l1.4 3.383 3.565.23c2.136.138 3.037 2.792 1.426 4.201l-1.477 1.292a.9.9 0 0 1-1.185-1.354l1.477-1.292a.6.6 0 0 0-.357-1.05l-4.125-.267a.9.9 0 0 1-.774-.554l-1.614-3.9a.6.6 0 0 0-1.108 0c-.204.492-.68.835-1.227.609-.545-.226-.64-.805-.437-1.298ZM12 18.539l3.022 1.744c1.456.84 3.149-.035 3.526-1.462l1.416 1.415a.9.9 0 1 0 1.272-1.272l-15.2-15.2a.9.9 0 0 0-1.272 1.272l2.428 2.429-2.375.153C2.68 7.756 1.78 10.41 3.39 11.819l2.856 2.5-.802 3.322c-.495 2.05 1.706 3.696 3.533 2.642L12 18.539ZM4.933 9.414a.6.6 0 0 0-.357 1.05l3.267 2.859a.9.9 0 0 1 .282.888l-.93 3.852a.6.6 0 0 0 .883.66l3.472-2.003a.9.9 0 0 1 .9 0l3.472 2.004a.6.6 0 0 0 .883-.661l-.284-1.176a.9.9 0 0 1-.02-.113L8.886 9.159l-3.953.255Z" clip-rule="evenodd"/></svg>
