<svg fill="none" height="24" viewBox="0 0 24 24" width="24" xmlns="http://www.w3.org/2000/svg"><g clip-rule="evenodd" fill="currentColor" fill-rule="evenodd"><path d="m9.78236 4.00546c.81784-1.97647 3.61744-1.97648 4.43524 0l1.3997 3.38251 3.5659.23005c2.1362.13782 3.0369 2.79158 1.4259 4.20118l-1.4769 1.2923c-.3741.3273-.9427.2894-1.27-.0847s-.2894-.9426.0847-1.27l1.4768-1.2922c.4028-.3524.1776-1.01586-.3564-1.05031l-4.1252-.26614c-.3425-.0221-.6425-.23697-.7737-.55402l-1.614-3.90044c-.2045-.49412-.9043-.49412-1.1088 0-.2037.49226-.6804.83524-1.2262.60939-.54579-.22586-.64073-.80536-.43704-1.29762z"/><path d="m12 18.5391 3.0223 1.7436c1.4557.8398 3.1485-.0345 3.5259-1.4617l1.4154 1.4154c.3515.3515.9213.3515 1.2728 0s.3515-.9213 0-1.2728l-15.20001-15.19998c-.35147-.35147-.92132-.35147-1.27279 0s-.35147.92132 0 1.27279l2.42838 2.42838-2.37514.15323c-2.13621.13782-3.03691 2.79158-1.4259 4.20118l2.85633 2.4993-.8019 3.3222c-.49487 2.0502 1.70549 3.6959 3.53233 2.642zm-7.06728-9.12481c-.53405.03445-.75922.69791-.35647 1.05031l3.2664 2.8581c.25209.2206.36082.5629.28222.8885l-.92976 3.8519c-.12371.5125.42638.9239.88309.6605l3.4721-2.0032c.2783-.1605.6211-.1605.8995 0l3.472 2.0032c.4567.2634 1.0068-.148.8831-.6605l-.2839-1.176c-.0091-.0377-.0157-.0755-.0198-.1131l-7.6148-7.61479z"/></g></svg>
