<?xml version="1.0" encoding="UTF-8"?>
<svg width="24px" height="24px" viewBox="0 0 24 24" version="1.1" xmlns="http://www.w3.org/2000/svg" xmlns:xlink="http://www.w3.org/1999/xlink">
    <!-- Generator: Sketch 50.2 (55047) - http://www.bohemiancoding.com/sketch -->
    <title>up_24</title>
    <desc>Created with Sketch.</desc>
    <defs></defs>
    <g id="Page-2" stroke="none" stroke-width="1" fill="none" fill-rule="evenodd">
        <g id="up_24">
            <rect id="Rectangle-9" x="0" y="0" width="24" height="24"></rect>
            <path d="M10.5,7.51776695 L5.75888348,12.2588835 C5.27072811,12.7470388 4.47927189,12.7470388 3.99111652,12.2588835 C3.50296116,11.7707281 3.50296116,10.9792719 3.99111652,10.4911165 L10.8661165,3.61611652 C11.3542719,3.12796116 12.1457281,3.12796116 12.6338835,3.61611652 L19.5088835,10.4911165 C19.9970388,10.9792719 19.9970388,11.7707281 19.5088835,12.2588835 C19.0207281,12.7470388 18.2292719,12.7470388 17.7411165,12.2588835 L13,7.51776695 L13,20.125 C13,20.8153559 12.4403559,21.375 11.75,21.375 C11.0596441,21.375 10.5,20.8153559 10.5,20.125 L10.5,7.51776695 Z" id="Mask" fill="currentColor" fill-rule="nonzero"></path>
        </g>
    </g>
</svg>
