<svg fill="none" height="24" viewBox="0 0 24 24" width="24" xmlns="http://www.w3.org/2000/svg"><g fill="currentColor"><path d="m19 19c.5523 0 1 .4477 1 1s-.4477 1-1 1h-14c-.55228 0-1-.4477-1-1s.44772-1 1-1z"/><path d="m12 17c-.5523 0-1-.4477-1-1v-10.585l-4.29289 4.29211c-.36049.36049-.92772.38819-1.32001.08319l-.09421-.08319c-.39052-.39053-.39052-1.02369 0-1.41422l6.00001-6c.0285-.02846.0586-.05522.0904-.0801.0069-.00551.0141-.01104.0214-.01646.0242-.01784.049-.03461.0746-.05026.0121-.00746.0243-.01457.0366-.0214.0198-.01088.0402-.02129.061-.03102.017-.00797.0343-.01545.0518-.02242.0197-.00791.0395-.01511.0596-.02168.0148-.00482.0302-.00945.0457-.01371.0216-.00601.0433-.0112.0652-.01568.0174-.00346.0349-.00653.0523-.00914.0204-.00311.0414-.00559.0627-.00739.0179-.00149.0352-.00251.0526-.00308.0108-.00036.022-.00055.0332-.00055.0506 0 .1004.00376.149.01102.0169.00261.0344.00568.0517.00922.022.0044.0437.00959.0651.01548.0157.00438.0311.00901.0463.01402.0197.00638.0395.01358.059.02136.0177.0071.035.01458.0521.02257.0207.00971.0411.02012.0611.03121.0121.00662.0243.01373.0364.02112.0256.01572.0504.03249.0745.05031.0391.029.0765.06119.1119.09658l6 6c.3905.39053.3905 1.02369 0 1.41422-.3905.39049-1.0237.39049-1.4142 0l-4.2929-4.29211v10.585c0 .5523-.4477 1-1 1z"/></g></svg>
