<svg fill="none" height="24" viewBox="0 0 24 24" width="24" xmlns="http://www.w3.org/2000/svg"><g fill="currentColor"><path d="m14.0003 9.4c0 1.1046-.8954 2-2 2-1.1045 0-2-.8954-2-2 0-1.10457.8955-2 2-2 1.1046 0 2 .89543 2 2z"/><path clip-rule="evenodd" d="m7.56371 2.5h8.87229c.5993-.00001 1.1029-.00002 1.5149.03365.4309.0352.8404.11164 1.229.30968.5927.302 1.0746.78389 1.3766 1.3766.1981.38867.2745.79814.3097 1.22899.0337.41208.0337.91565.0337 1.51494v8.60334c0 .4994 0 .9191-.0236 1.2642-.0246.3602-.0779.7045-.217 1.0397-.3196.7704-.9318 1.3825-1.7022 1.7022-.3351.1391-.6795.1923-1.0396.2169-.3452.0236-.7649.0236-1.2643.0236h-.0301c-.5657 0-.7419.0031-.9037.0315-.2388.0418-.4686.1246-.6792.2448-.1427.0815-.2803.1915-.7158.5525l-.4954.4106c-.2086.1728-.4013.3326-.5743.4554-.1882.1337-.4033.2612-.667.3361-.3841.1091-.791.1091-1.1751 0-.2637-.0749-.4788-.2023-.6671-.336-.173-.1228-.3657-.2825-.5743-.4553l-.49583-.411c-.43554-.3609-.57321-.4709-.71592-.5524-.2105-.1201-.44022-.2029-.67898-.2447-.16187-.0284-.33807-.0315-.90372-.0315h-.03011c-.49947 0-.91925 0-1.26443-.0236-.3602-.0246-.70457-.0779-1.03973-.217-.7703-.3196-1.38238-.9317-1.70205-1.702-.13909-.3352-.19238-.6795-.217-1.0397-.02359-.3452-.02358-.765-.02358-1.2645v-8.60314c-.00001-.59928-.00002-1.10286.03365-1.51494.0352-.43085.11165-.84032.30968-1.22899.30201-.59271.78389-1.0746 1.3766-1.3766.38868-.19804.79814-.27448 1.22899-.30968.41208-.03367.91567-.03366 1.51494-.03365zm-1.36836 1.82767c-.31954.0261-.46575.07228-.55838.11947-.25402.12943-.46054.33596-.58997.58997-.0472.09263-.09337.23885-.11948.55838-.02696.33005-.02766.7596-.02766 1.40451v8.5369c0 .5374.00048.8953.01938 1.1718.01834.2684.05097.3936.08372.4726.1167.2812.32433.5132.58735.6604 1.01585-2.543 3.50176-4.3417 6.40989-4.3417 2.9081 0 5.3939 1.7985 6.4098 4.3414.2628-.1473.4702-.3792.5868-.6602.0327-.0789.0653-.2041.0837-.4725.0189-.2764.0194-.6343.0194-1.1716v-8.5371c0-.64491-.0007-1.07446-.0277-1.40451-.0261-.31953-.0723-.46575-.1195-.55838-.1294-.25401-.3359-.46054-.59-.58997-.0926-.04719-.2388-.09337-.5583-.11947-.3301-.02697-.7596-.02767-1.4045-.02767h-8.80004c-.64491 0-1.07447.0007-1.40451.02767zm10.31365 13.68613c-.8566-1.6151-2.5553-2.7138-4.5088-2.7138s-3.65212 1.0987-4.50871 2.7138c.44484-.0001.77512.0017 1.09934.0584.4434.0776.87002.2314 1.26096.4546.29541.1686.55841.3866.91851.6853l.5278.4374c.2374.1967.378.3124.4894.3915.0759.0539.1093.0692.1172.0723.0623.0177.1284.0177.1907 0 .0079-.0031.0413-.0184.1172-.0723.1114-.0791.252-.1949.4893-.3916l.5274-.4371c.3601-.2986.623-.5167.9185-.6854.391-.2232.8177-.377 1.2612-.4547.3244-.0568.6548-.0585 1.1-.0584z" fill-rule="evenodd"/></g></svg>
