<?xml version="1.0" encoding="UTF-8"?>
<svg width="24px" height="24px" viewBox="0 0 24 24" version="1.1" xmlns="http://www.w3.org/2000/svg" xmlns:xlink="http://www.w3.org/1999/xlink">
    <!-- Generator: Sketch 50.2 (55047) - http://www.bohemiancoding.com/sketch -->
    <title>user_added_outline_24</title>
    <desc>Created with Sketch.</desc>
    <defs></defs>
    <g id="Page-2" stroke="none" stroke-width="1" fill="none" fill-rule="evenodd">
        <g id="user_added_outline_24">
            <polygon id="Bounds" points="0 0 24 0 24 24 0 24"></polygon>
            <path d="M18.85,7.94999981 C18.85,6.37518108 17.5748187,5.09999981 16,5.09999981 C14.4251813,5.09999981 13.15,6.37518108 13.15,7.94999981 C13.15,9.52481853 14.4251813,10.7999998 16,10.7999998 C17.5748187,10.7999998 18.85,9.52481853 18.85,7.94999981 Z M20.65,7.94999981 C20.65,10.5189311 18.5689313,12.5999998 16,12.5999998 C13.4310687,12.5999998 11.35,10.5189311 11.35,7.94999981 C11.35,5.38106853 13.4310687,3.29999981 16,3.29999981 C18.5689313,3.29999981 20.65,5.38106853 20.65,7.94999981 Z M9.9,18.4285653 C9.9,19.1974172 9.80923371,19.0999939 10.2352941,19.0999939 L21.7647059,19.0999939 C22.1907663,19.0999939 22.1,19.1974172 22.1,18.4285653 C22.1,16.5359751 19.3218072,15.3999939 16,15.3999939 C12.6781928,15.3999939 9.9,16.5359751 9.9,18.4285653 Z M8.1,18.4285653 C8.1,15.1017678 11.7727876,13.5999939 16,13.5999939 C20.2272124,13.5999939 23.9,15.1017678 23.9,18.4285653 C23.9,20.1641778 23.2144625,20.8999939 21.7647059,20.8999939 L10.2352941,20.8999939 C8.78553753,20.8999939 8.1,20.1641778 8.1,18.4285653 Z M8.3636039,8.8636039 C8.71507576,8.51213203 9.28492424,8.51213203 9.6363961,8.8636039 C9.98786797,9.21507576 9.98786797,9.78492424 9.6363961,10.1363961 L4.6363961,15.1363961 C4.28492424,15.487868 3.71507576,15.487868 3.3636039,15.1363961 L0.863603897,12.6363961 C0.512132034,12.2849242 0.512132034,11.7150758 0.863603897,11.3636039 C1.21507576,11.012132 1.78492424,11.012132 2.1363961,11.3636039 L4,13.2272078 L8.3636039,8.8636039 Z" id="Mask" fill="currentColor" fill-rule="nonzero"></path>
        </g>
    </g>
</svg>
