<svg fill="none" height="24" width="24" xmlns="http://www.w3.org/2000/svg"><g clip-rule="evenodd" fill="currentColor" fill-rule="evenodd"><path d="m12 8.8a1.7 1.7 0 1 0 0 3.4 1.7 1.7 0 0 0 0-3.4zm-3.5 1.7a3.5 3.5 0 1 1 7 0 3.5 3.5 0 0 1 -7 0z"/><path d="m8.228 3.1c-1.57 0-2.32.127-3.082.534a3.647 3.647 0 0 0 -1.512 1.512c-.407.762-.534 1.512-.534 3.082v7.544c0 1.57.127 2.32.534 3.082.348.65.863 1.164 1.512 1.512.762.407 1.512.534 3.082.534h7.544c1.57 0 2.32-.127 3.082-.534a3.646 3.646 0 0 0 1.512-1.512c.407-.762.534-1.512.534-3.082v-7.544c0-1.57-.127-2.32-.534-3.082a3.647 3.647 0 0 0 -1.512-1.512c-.762-.407-1.512-.534-3.082-.534zm0 1.8c-1.487 0-1.87.128-2.233.322-.336.18-.594.437-.773.773-.194.362-.322.746-.322 2.233v7.544c0 1.487.128 1.87.322 2.233.069.13.15.247.242.354a8.877 8.877 0 0 1 6.536-2.859 8.877 8.877 0 0 1 6.536 2.859c.092-.107.173-.225.242-.354.194-.362.322-.746.322-2.233v-7.544c0-1.487-.128-1.87-.322-2.233a1.847 1.847 0 0 0 -.773-.773c-.362-.194-.746-.322-2.233-.322zm3.772 2.1a3.5 3.5 0 1 0 0 7 3.5 3.5 0 0 0 0-7zm-1.7 3.5a1.7 1.7 0 1 1 3.4 0 1.7 1.7 0 0 1 -3.4 0zm-2.072 8.6h7.544c.373 0 .676-.008.927-.023a7.072 7.072 0 0 0 -4.699-1.777c-1.801 0-3.446.67-4.699 1.777.251.015.554.023.927.023z"/></g></svg>
