<svg fill="none" height="24" viewBox="0 0 24 24" width="24" xmlns="http://www.w3.org/2000/svg"><path clip-rule="evenodd" d="m3.43597 5.18404c-.43597.85565-.43597 1.97575-.43597 4.21596v5.2c0 2.2402 0 3.3603.43597 4.216.3835.7526.99542 1.3645 1.74807 1.748.85565.436 1.97575.436 4.21596.436h5.2c2.2402 0 3.3603 0 4.216-.436.7526-.3835 1.3645-.9954 1.748-1.748.436-.8557.436-1.9758.436-4.216v-5.2c0-2.24021 0-3.36031-.436-4.21596-.3835-.75265-.9954-1.36457-1.748-1.74807-.8557-.43597-1.9758-.43597-4.216-.43597h-5.2c-2.24021 0-3.36031 0-4.21596.43597-.75265.3835-1.36457.99542-1.74807 1.74807zm8.56403 1.81596c1.3813 0 2.5 1.11875 2.5 2.5 0 1.3812-1.1187 2.5-2.5 2.5-1.3812 0-2.5-1.1188-2.5-2.5 0-1.38125 1.1188-2.5 2.5-2.5zm-5 9.3719v-.6027c0-2.1538 3.3313-2.7692 5-2.7692s5 .6154 5 2.7692v.6027c0 .3469-.2812.6281-.6281.6281h-8.74377c-.34691 0-.62813-.2812-.62813-.6281z" fill="currentColor" fill-rule="evenodd"/></svg>
