<svg width="24" height="24" fill="none" xmlns="http://www.w3.org/2000/svg"><path fill-rule="evenodd" clip-rule="evenodd" d="M12 8.8a1.7 1.7 0 100 3.4 1.7 1.7 0 000-3.4zm-3.5 1.7a3.5 3.5 0 117 0 3.5 3.5 0 01-7 0z" fill="currentColor"/><path fill-rule="evenodd" clip-rule="evenodd" d="M12 2.1A9.872 9.872 0 005 5a9.872 9.872 0 00-2.9 7c0 2.734 1.11 5.21 2.9 7a9.872 9.872 0 007 2.9c2.733 0 5.21-1.11 7-2.9a9.872 9.872 0 002.9-7c0-2.734-1.11-5.21-2.9-7a9.872 9.872 0 00-7-2.9zm4.382 16.713A7.067 7.067 0 0012 17.3a7.066 7.066 0 00-4.382 1.513A8.06 8.06 0 0012 20.1a8.06 8.06 0 004.382-1.287zM6.272 6.273A8.072 8.072 0 0112 3.9c2.237 0 4.26.906 5.727 2.372A8.072 8.072 0 0120.1 12a8.07 8.07 0 01-2.297 5.651A8.868 8.868 0 0012 15.5a8.869 8.869 0 00-5.803 2.151A8.07 8.07 0 013.9 12c0-2.237.906-4.26 2.372-5.728zM8.5 10.5a3.5 3.5 0 117 0 3.5 3.5 0 01-7 0zM12 8.8a1.7 1.7 0 100 3.4 1.7 1.7 0 000-3.4z" fill="currentColor"/></svg>
