<?xml version="1.0" encoding="UTF-8"?>
<svg width="24px" height="24px" viewBox="0 0 24 24" version="1.1" xmlns="http://www.w3.org/2000/svg" xmlns:xlink="http://www.w3.org/1999/xlink">
    <!-- Generator: Sketch 50.2 (55047) - http://www.bohemiancoding.com/sketch -->
    <title>user_added_24</title>
    <desc>Created with Sketch.</desc>
    <defs></defs>
    <g id="Page-2" stroke="none" stroke-width="1" fill="none" fill-rule="evenodd">
        <g id="user_added_24">
            <polygon id="bounds" points="0 0 24 0 24 24 0 24"></polygon>
            <path d="M8,18 L8,19 C8,19.5522847 8.44771525,20 9,20 L23,20 C23.5522847,20 24,19.5522847 24,19 L24,18 C24,14.5 18.67,13.5 16,13.5 C13.33,13.5 8,14.5 8,18 Z M20,8 C20,10.21 18.21,12 16,12 C13.79,12 12,10.21 12,8 C12,5.79 13.79,4 16,4 C18.21,4 20,5.79 20,8 Z M1.71137562,10.9298255 L3.58399996,12.8252668 L7.78679663,8.54904295 C8.17392452,8.15515154 8.80706576,8.14966862 9.20095717,8.53679651 C9.59484858,8.9239244 9.60033149,9.55706564 9.2132036,9.95095705 L4.29905872,14.9509571 C3.90789659,15.3489532 3.26667706,15.3497882 2.87447972,14.9528121 L0.288624606,12.3354498 C-0.0995278133,11.9425679 -0.0956938564,11.3094146 0.297187989,10.9212621 C0.690069834,10.5331097 1.3232232,10.5369437 1.71137562,10.9298255 Z" id="Mask" fill="currentColor"></path>
        </g>
    </g>
</svg>
