<svg xmlns="http://www.w3.org/2000/svg" width="24" height="24" fill="currentColor" viewBox="0 0 24 24"><path fill-rule="evenodd" d="M10.664 1.001h2.671c.808 0 1.47 0 2.006.044.556.045 1.058.142 1.527.381a3.9 3.9 0 0 1 1.705 1.704c.238.47.335.971.38 1.527.045.537.045 1.198.045 2.006v10.674c0 .808 0 1.469-.044 2.006-.046.556-.143 1.058-.381 1.526a3.9 3.9 0 0 1-1.705 1.705c-.469.239-.97.336-1.527.381-.537.044-1.197.044-2.006.044h-2.67c-.809 0-1.47 0-2.007-.044-.556-.045-1.058-.142-1.526-.381a3.9 3.9 0 0 1-1.705-1.705c-.239-.468-.336-.97-.381-1.526-.044-.537-.044-1.198-.044-2.006V6.663c0-.808 0-1.469.044-2.006.045-.556.142-1.058.381-1.527a3.9 3.9 0 0 1 1.705-1.704c.468-.239.97-.336 1.526-.381C9.195 1 9.856 1 10.664 1ZM8.805 2.839c-.445.036-.683.103-.856.19a2.1 2.1 0 0 0-.918.919c-.088.172-.155.411-.191.856-.037.455-.038 1.042-.038 1.897v10.598c0 .855 0 1.442.038 1.897.036.445.103.683.191.856a2.1 2.1 0 0 0 .918.918c.173.088.411.155.856.191.455.037 1.042.038 1.897.038h2.596c.855 0 1.442 0 1.897-.038.444-.036.683-.103.856-.19a2.1 2.1 0 0 0 .918-.919c.088-.172.154-.411.19-.856.038-.455.039-1.042.039-1.897V6.701c0-.855-.001-1.442-.038-1.897-.037-.445-.103-.684-.191-.856a2.1 2.1 0 0 0-.918-.918c-.173-.088-.412-.155-.856-.191-.455-.037-1.042-.038-1.897-.038h-2.596c-.855 0-1.442 0-1.897.038Z" clip-rule="evenodd"/></svg>
