<svg fill="none" height="24" viewBox="0 0 24 24" width="24" xmlns="http://www.w3.org/2000/svg"><g clip-rule="evenodd" fill="currentColor" fill-rule="evenodd"><path d="m12 15.6373 3.3-1.9053c1.3333-.7698 1.3333-2.6943 0-3.4641l-3.3-1.90523c-1.3334-.7698-3.00003.19245-3.00003 1.73203v3.8106c0 1.5396 1.66663 2.5018 3.00003 1.732zm2.4-3.8105c.1333.077.1333.2694 0 .3464l-3.3 1.9053c-.1334.077-.3-.0193-.3-.1732v-3.8106c0-.15394.1666-.25017.3-.17318z"/><path d="m4.99965 4.99962c1.79056-1.79056 4.2668-2.89964 7.00035-2.89964 2.7336 0 5.2098 1.10908 7.0004 2.89964 1.7905 1.79056 2.8996 4.26679 2.8996 7.00038 0 2.7335-1.1091 5.2098-2.8996 7.0003-1.7906 1.7906-4.2668 2.8997-7.0004 2.8997-2.73356 0-5.20979-1.1091-7.00035-2.8997-1.79056-1.7905-2.89964-4.2668-2.89964-7.0003 0-2.73359 1.10908-5.20982 2.89964-7.00038zm7.00035-1.09964c-2.237 0-4.26076.90563-5.72756 2.37243s-2.37243 3.49056-2.37243 5.72759c0 2.237.90563 4.2607 2.37243 5.7275s3.49056 2.3725 5.72756 2.3725 4.2608-.9057 5.7276-2.3725 2.3724-3.4905 2.3724-5.7275c0-2.23703-.9056-4.26079-2.3724-5.72759s-3.4906-2.37243-5.7276-2.37243z"/></g></svg>
