<svg width="24" height="24" fill="none" xmlns="http://www.w3.org/2000/svg"><path d="M9.9 9.4a.9.9 0 10-1.8 0v1.7H6.4a.9.9 0 100 1.8h1.7v1.7a.9.9 0 001.8 0v-1.7h1.7a.9.9 0 000-1.8H9.9V9.4z" fill="currentColor"/><path fill-rule="evenodd" clip-rule="evenodd" d="M14.954 5.034c-.652-.348-1.299-.534-3.082-.534H6.128c-1.783 0-2.43.186-3.082.534a3.635 3.635 0 00-1.512 1.512C1.186 7.198 1 7.845 1 9.628v4.744c0 1.783.186 2.43.534 3.082.349.651.86 1.163 1.512 1.512.652.348 1.299.534 3.082.534h5.744c1.783 0 2.43-.186 3.082-.534a3.635 3.635 0 001.512-1.512c.21-.393.36-.783.447-1.42l2.478 1.444A2.4 2.4 0 0023 15.405v-6.81a2.4 2.4 0 00-3.61-2.073l-2.477 1.444c-.087-.637-.238-1.027-.447-1.42a3.635 3.635 0 00-1.512-1.512zM6.128 6.3h5.744c1.354 0 1.788.084 2.233.322.338.18.593.435.774.773.237.445.321.879.321 2.233v4.744c0 1.354-.084 1.788-.321 2.233-.181.338-.436.593-.774.773-.445.238-.879.322-2.233.322H6.128c-1.354 0-1.788-.084-2.233-.322a1.835 1.835 0 01-.773-.773c-.238-.445-.322-.879-.322-2.233V9.628c0-1.354.084-1.788.322-2.233.18-.338.435-.593.773-.773.445-.238.879-.322 2.233-.322zM17 10l3.298-1.924a.6.6 0 01.902.519v6.81a.6.6 0 01-.902.519L17 14v-4z" fill="currentColor"/></svg>
