<svg xmlns="http://www.w3.org/2000/svg" width="24" height="24" fill="currentColor" viewBox="0 0 24 24"><path d="M2.514 4.242a.9.9 0 1 0-1.228 1.316l1.092 1.02C2.13 7.053 2 7.548 2 8.846v6.308c0 1.337.14 1.822.4 2.311.262.49.646.873 1.135 1.134.489.262.974.401 2.31.401h7.31c1.207 0 1.72-.114 2.168-.328l1.163 1.086a.9.9 0 0 0 1.228-1.316l-15.2-14.2Zm14.485 11.104L5.924 5h7.23c1.338 0 1.822.14 2.311.4.49.262.873.646 1.134 1.135.262.489.401.974.401 2.31 0 2.167.023 4.335-.001 6.501ZM23 8.497v7.006c0 .815-.964 1.277-1.6.8l-2.2-1.653a.5.5 0 0 1-.2-.4v-4.5a.5.5 0 0 1 .2-.4l2.2-1.652c.651-.49 1.6.003 1.6.8Z"/></svg>
