<svg xmlns="http://www.w3.org/2000/svg" width="24" height="24" fill="none" viewBox="0 0 24 24"><path fill="currentColor" d="M9.9 9.4a.9.9 0 1 0-1.8 0v1.7H6.4a.9.9 0 0 0 0 1.8h1.7v1.7a.9.9 0 0 0 1.8 0v-1.7h1.7a.9.9 0 0 0 0-1.8H9.9V9.4Z"/><path fill="currentColor" fill-rule="evenodd" d="M1 10.9c0-2.2402 0-3.3603.436-4.216a4 4 0 0 1 1.748-1.748C4.0397 4.5 5.1598 4.5 7.4 4.5h3.2c2.2402 0 3.3603 0 4.216.436a4.0002 4.0002 0 0 1 1.748 1.748c.1552.3046.2552.6428.3196 1.053l.5773-.4139c.9477-.6794 1.4217-1.0192 1.7847-1.1508 1.5302-.555 3.2094.3074 3.65 1.8743.1045.3718.1045.9549.1045 2.1211v4.0201c0 1.0394 0 1.5591-.0936 1.8985-.394 1.4279-1.8995 2.2386-3.3085 1.7817-.3349-.1087-.7688-.3947-1.6367-.9668l-1.0678-.704c-.0639.4402-.1661.798-.3295 1.1188a4.0003 4.0003 0 0 1-1.748 1.748c-.8557.436-1.9758.436-4.216.436H7.4c-2.2402 0-3.3603 0-4.216-.436a4.0002 4.0002 0 0 1-1.748-1.748C1 16.4603 1 15.3402 1 13.1v-2.2Zm6.4-4.6h3.2c1.1498 0 1.9039.0014 2.4806.0485.5557.0454.7864.1241.9182.1913a2.2 2.2 0 0 1 .9614.9614c.0672.1318.1459.3625.1913.9182.0471.5767.0485 1.3308.0485 2.4806v2.2c0 1.1498-.0014 1.9039-.0485 2.4806-.0454.5557-.1241.7864-.1913.9182a2.2002 2.2002 0 0 1-.9614.9614c-.1318.0672-.3625.1459-.9182.1913-.5767.0471-1.3308.0485-2.4806.0485H7.4c-1.1498 0-1.904-.0014-2.4806-.0485-.5557-.0454-.7864-.1241-.9182-.1913a2.2 2.2 0 0 1-.9614-.9614c-.0672-.1318-.1459-.3625-.1913-.9182C2.8014 15.0039 2.8 14.2498 2.8 13.1v-2.2c0-1.1498.0014-1.904.0485-2.4806.0454-.5557.1241-.7864.1913-.9182a2.2 2.2 0 0 1 .9614-.9614c.1318-.0672.3625-.1459.9182-.1913C5.496 6.3014 6.2502 6.3 7.4 6.3Zm10.153 3.1718.9566-.6858c.4859-.3483.808-.5788 1.0544-.7414.0229-.0151.2952-.1802.2952-.1802.5447-.1975 1.1423.1078 1.302.664 0 0 .0169.0836.0272.3504.0114.295.0117.691.0117 1.2889v4.0201c0 .5344-.0003.8829-.0103 1.1421-.0038.096-.008.1927-.0214.288-.1246.4295-.5777.6735-1.0048.5411-.087-.0413-.1701-.0909-.2523-.1407-.2219-.1342-.5131-.3258-.9593-.6199l-1.3563-.8941a247.905 247.905 0 0 1-.35-.2372.7.7 0 0 1-.2404-.4463S17 13.4222 17 13.398v-2.8493c0-.0221.0049-.4038.0049-.4038a.7.7 0 0 1 .2228-.4338s.3073-.2264.3253-.2393Z" clip-rule="evenodd"/></svg>
