<svg height="24" viewBox="0 0 24 24" width="24" xmlns="http://www.w3.org/2000/svg"><g fill="none" fill-rule="evenodd"><path d="m0 0h24v24h-24z" fill="none"/><path d="m12 4.6c5.1997172 0 10.4 4.23726743 10.4 7.4 0 3.1627326-5.2002828 7.4-10.4 7.4-5.19971725 0-10.4-4.2372674-10.4-7.4 0-3.16273257 5.20028275-7.4 10.4-7.4zm0 1.8c-4.27755548 0-8.6 3.52199183-8.6 5.6 0 2.0780082 4.32244452 5.6 8.6 5.6 4.2775555 0 8.6-3.5219918 8.6-5.6 0-2.07800817-4.3224445-5.6-8.6-5.6zm0 2.2c1.8777681 0 3.4 1.5222319 3.4 3.4s-1.5222319 3.4-3.4 3.4-3.4-1.5222319-3.4-3.4 1.5222319-3.4 3.4-3.4zm0 1.8c-.8836556 0-1.6.7163444-1.6 1.6s.7163444 1.6 1.6 1.6 1.6-.7163444 1.6-1.6-.7163444-1.6-1.6-1.6z" fill="currentColor" fill-rule="nonzero"/></g></svg>
