<svg fill="none" height="24" viewBox="0 0 24 24" width="24" xmlns="http://www.w3.org/2000/svg"><g fill="currentColor"><path d="m14.4559 10.3025c.8724-.44466 1.8783-.44466 2.7645.3081.3466.2945.3747.7984.0627 1.1256-.312.3271-.8459.3537-1.1925.0592l-.0849-.0658c-.2514-.1761-.477-.1624-.7474-.0246-.0817.0417-.1367.0799-.149.0904l-.0832.0623c-.3443.2263-.8214.1805-1.1094-.1215-.312-.3272-.2839-.8311.0627-1.1256.105-.0892.265-.2003.4765-.3081z"/><path d="m8.49995 9.54877c.82843 0 1.5.67153 1.5 1.50003 0 .8284-.67157 1.5-1.5 1.5s-1.5-.6716-1.5-1.5c0-.8285.67157-1.50003 1.5-1.50003z"/><path d="m13.45 14c.5523 0 1.0063.4515.9058.9946-.0256.1384-.0564.2611-.0923.3474-.1231.2964-.3036.5657-.5311.7925s-.4976.4068-.7948.5295c-.2973.1228-.6159.1876-.9376.1876-.3218 0-.6403-.0648-.9376-.1876-.2972-.1227-.5673-.3027-.7948-.5295s-.40798-.4961-.5311-.7925c-.03586-.0863-.06665-.209-.09229-.3474-.10055-.5431.35351-.9946.90579-.9946z"/><path d="m9.09761 3.8c.49705 0 .9-.40294.9-.9s-.40295-.9-.9-.9z"/><path d="m2 9.09877c0 .49705.40294.9.9.9s.9-.40295.9-.9z"/><path clip-rule="evenodd" d="m2.00005 9.10711c0-3.91803 3.1759-7.10711 7.09756-7.10711v1.8c-2.92392 0-5.29756 2.37956-5.29756 5.30711z" fill-rule="evenodd"/><path d="m9.09761 20.2c.49705 0 .9.4029.9.9s-.40295.9-.9.9z"/><path d="m2 14.9012c0-.497.40294-.9.9-.9s.9.403.9.9z"/><path clip-rule="evenodd" d="m2.00005 14.8929c0 3.918 3.1759 7.1071 7.09756 7.1071v-1.8c-2.92392 0-5.29756-2.3796-5.29756-5.3071z" fill-rule="evenodd"/><path d="m14.9023 3.8c-.4971 0-.9-.40294-.9-.9s.4029-.9.9-.9z"/><path d="m21.9999 9.09877c0 .49705-.4029.9-.9.9s-.9-.40295-.9-.9z"/><path clip-rule="evenodd" d="m21.9999 9.10711c0-3.91803-3.1759-7.10711-7.0976-7.10711v1.8c2.9239 0 5.2976 2.37956 5.2976 5.30711z" fill-rule="evenodd"/><path d="m14.9023 20.2c-.4971 0-.9.4029-.9.9s.4029.9.9.9z"/><path d="m21.9999 14.9012c0-.497-.4029-.9-.9-.9s-.9.403-.9.9z"/><path clip-rule="evenodd" d="m21.9999 14.8929c0 3.918-3.1759 7.1071-7.0976 7.1071v-1.8c2.9239 0 5.2976-2.3796 5.2976-5.3071z" fill-rule="evenodd"/></g></svg>
