<svg xmlns="http://www.w3.org/2000/svg" width="24" height="24" fill="none" viewBox="0 0 24 24"><path fill="currentColor" fill-rule="evenodd" d="M4.9996 4.9996C6.7902 3.2091 9.2664 2.1 12 2.1c2.7335 0 5.2098 1.109 7.0003 2.8996C20.7909 6.7902 21.9 9.2664 21.9 12c0 2.7335-1.1091 5.2098-2.8997 7.0003C17.2098 20.7909 14.7335 21.9 12 21.9c-1.1024 0-2.163-.1804-3.1536-.5131a.9051.9051 0 0 1-.284-.1002 9.9088 9.9088 0 0 1-3.5628-2.2864C3.2091 17.2098 2.1 14.7335 2.1 12c0-2.7336 1.109-5.2098 2.8996-7.0004Zm6.553 15.0882c2.0214-1.3305 3.9525-3.162 5.4901-5.5097.7057.3898 1.3681.844 2.0366 1.3615a8.132 8.132 0 0 1-1.3518 1.7879C16.2607 19.1943 14.237 20.1 12 20.1a8.1928 8.1928 0 0 1-.4474-.0122Zm-2.5862-.5748c2.3148-1.1773 4.639-3.0663 6.4194-5.6942-.9473-.3498-2.0072-.6075-3.2627-.7714-1.8855 2.3712-3.7434 3.6387-5.9272 4.6026a8.1077 8.1077 0 0 0 2.7705 1.863Zm2.8421-11.1002c.1696.9024.4517 1.8503.8777 2.8955 3.0791.451 5.1368 1.4556 7.1055 2.9132A8.107 8.107 0 0 0 20.1 12c0-.2667-.0129-.5304-.0381-.7904a.9123.9123 0 0 1-.1227-.0709c-2.304-1.5814-4.6941-2.5625-8.1307-2.7259Zm-.2002-1.8097c-.0308-.8916.0352-1.7727.1636-2.7A8.2737 8.2737 0 0 1 12 3.9c2.237 0 4.2607.9056 5.7275 2.3724a8.1148 8.1148 0 0 1 1.662 2.4049c-2.1869-1.2206-4.606-1.9634-7.7812-2.0742ZM9.9239 4.1683c-.2796 2.412-.1332 4.6737.9765 7.5209-.7206.9358-1.4271 1.6827-2.1525 2.3006-1.5796-2.99-1.7676-5.6976-1.5776-8.4932a8.0631 8.0631 0 0 1 2.7536-1.3283Zm-2.7171 10.757a.9016.9016 0 0 0 .0835.1285c-.7012.4355-1.4363.7951-2.2308 1.125C4.3232 14.9587 3.9 13.5292 3.9 12c0-1.6961.5206-3.2695 1.4116-4.5706.0309 2.3744.4705 4.8388 1.8952 7.4959Z" clip-rule="evenodd"/></svg>
