<svg fill="none" height="24" viewBox="0 0 24 24" width="24" xmlns="http://www.w3.org/2000/svg"><g fill="currentColor"><path clip-rule="evenodd" d="m9.48854 4.55004c1.11616-1.93334 3.90676-1.93334 5.02296 0l6.9282 11.99996c1.1162 1.9334-.2791 4.35-2.5115 4.35h-13.85639c-2.23242 0-3.62769-2.4166-2.51148-4.35zm3.46406.9c-.4234-.73334-1.4818-.73334-1.9052 0l-6.92822 11.99996c-.42339.7334.10585 1.65.95263 1.65h13.85639c.8468 0 1.376-.9166.9526-1.65z" fill-rule="evenodd"/><path clip-rule="evenodd" d="m12 8.00007c.4971 0 .9.37416.9.83571v4.82862c0 .4615-.403.8357-.9.8357-.4971 0-.9-.3742-.9-.8357v-4.82862c0-.46155.403-.83571.9-.83571z" fill-rule="evenodd"/><path d="m13 16.5001c0 .5523-.4477 1-1 1s-1-.4477-1-1 .4477-1 1-1 1 .4477 1 1z"/></g></svg>
