<svg fill="none" height="24" width="24" xmlns="http://www.w3.org/2000/svg"><path clip-rule="evenodd" d="M9.762 2.1h4.476c.808 0 1.469 0 2.006.044.556.045 1.058.142 1.527.381a3.9 3.9 0 011.704 1.704c.239.47.336.971.381 1.527.044.537.044 1.198.044 2.006v8.476c0 .808 0 1.469-.044 2.006-.045.556-.142 1.058-.381 1.527a3.9 3.9 0 01-1.704 1.704c-.47.239-.971.336-1.527.381-.537.044-1.198.044-2.006.044H9.762c-.808 0-1.469 0-2.006-.044-.556-.045-1.058-.142-1.527-.381a3.9 3.9 0 01-1.704-1.704c-.239-.47-.336-.971-.381-1.527-.044-.537-.044-1.198-.044-2.006V7.762c0-.808 0-1.469.044-2.006.045-.556.142-1.058.381-1.527A3.9 3.9 0 016.23 2.525c.47-.239.971-.336 1.527-.381C8.293 2.1 8.954 2.1 9.762 2.1zm-1.86 1.838c-.444.036-.683.103-.855.19a2.1 2.1 0 00-.918.919c-.088.172-.155.411-.191.856C5.9 6.358 5.9 6.945 5.9 7.8v.3h12.2v-.3c0-.855 0-1.442-.038-1.897-.036-.445-.103-.684-.19-.856a2.1 2.1 0 00-.919-.918c-.172-.088-.411-.155-.856-.191C15.642 3.9 15.055 3.9 14.2 3.9H9.8c-.855 0-1.442 0-1.897.038zM5.9 16.2V9.9h12.2v6.3c0 .855 0 1.442-.038 1.897-.036.445-.103.683-.19.856a2.1 2.1 0 01-.919.918c-.172.088-.411.155-.856.191-.455.037-1.042.038-1.897.038H9.8c-.855 0-1.442 0-1.897-.038-.445-.036-.683-.103-.856-.19a2.1 2.1 0 01-.918-.919c-.088-.173-.155-.411-.191-.856C5.9 17.642 5.9 17.055 5.9 16.2zm4.5-1.2a1.6 1.6 0 113.2 0 1.6 1.6 0 01-3.2 0zm1.6-3.4a3.4 3.4 0 100 6.8 3.4 3.4 0 000-6.8zM13 6a.9.9 0 01.9-.9h1.5a.9.9 0 110 1.8h-1.5A.9.9 0 0113 6zm-2-.9a.9.9 0 100 1.8.9.9 0 000-1.8z" fill="currentColor" fill-rule="evenodd"/></svg>
