<svg fill="none" height="24" width="24" xmlns="http://www.w3.org/2000/svg"><path clip-rule="evenodd" d="M3.9 12a8.1 8.1 0 1116.2 0 8.1 8.1 0 01-16.2 0zM12 2.1c-5.468 0-9.9 4.432-9.9 9.9s4.432 9.9 9.9 9.9 9.9-4.432 9.9-9.9-4.432-9.9-9.9-9.9zm-1.426 5.63a4.513 4.513 0 012.852 0l-.206.356a.9.9 0 001.56.9l.204-.354A4.495 4.495 0 0116.41 11.1H16a.9.9 0 100 1.8h.41a4.496 4.496 0 01-1.426 2.468l-.205-.354a.9.9 0 00-1.558.9l.205.355a4.496 4.496 0 01-2.852 0l.205-.355a.9.9 0 00-1.558-.9l-.205.354A4.496 4.496 0 017.59 12.9H8a.9.9 0 000-1.8h-.41a4.495 4.495 0 011.426-2.468l.205.354a.9.9 0 101.558-.9zM12 5.7a6.3 6.3 0 100 12.6 6.3 6.3 0 000-12.6zM10.75 12a1.25 1.25 0 112.5 0 1.25 1.25 0 01-2.5 0z" fill="currentColor" fill-rule="evenodd"/></svg>
