<svg xmlns="http://www.w3.org/2000/svg" width="24" height="24" fill="currentColor" viewBox="0 0 24 24"><path fill-rule="evenodd" d="M11.165 3.1h1.67c.53 0 .981 0 1.352.03.39.032.768.102 1.13.286a2.9 2.9 0 0 1 1.267 1.267c.184.362.254.74.286 1.13.029.355.03.785.03 1.287h.935c.53 0 .982 0 1.352.03.39.032.768.102 1.13.286a2.9 2.9 0 0 1 1.267 1.267c.184.362.254.74.286 1.13.03.37.03.822.03 1.351v1.47c0 .392 0 .738-.023 1.026-.025.305-.081.622-.239.93a2.4 2.4 0 0 1-1.048 1.05c-.228.116-.46.176-.69.21v.586c0 .6 0 1.103-.034 1.515-.035.43-.111.84-.31 1.229a3.15 3.15 0 0 1-1.376 1.377c-.389.198-.798.274-1.229.31-.412.033-.916.033-1.515.033H8.564c-.6 0-1.103 0-1.515-.034-.43-.035-.84-.111-1.23-.31a3.15 3.15 0 0 1-1.376-1.376c-.198-.389-.274-.798-.31-1.229-.033-.412-.033-.916-.033-1.515v-.586a2.21 2.21 0 0 1-.69-.212 2.4 2.4 0 0 1-1.048-1.048 2.44 2.44 0 0 1-.239-.931c-.023-.288-.023-.634-.023-1.026v-1.468c0-.53 0-.981.03-1.352.032-.39.102-.768.286-1.13a2.9 2.9 0 0 1 1.267-1.267c.362-.184.741-.254 1.13-.286.37-.03.822-.03 1.352-.03H7.1c0-.502.001-.932.03-1.287.032-.39.102-.768.286-1.13a2.9 2.9 0 0 1 1.267-1.267c.362-.184.741-.254 1.13-.286.37-.03.822-.03 1.352-.03ZM5.4 14.1h13.2c.435 0 .707 0 .912-.018.194-.015.248-.041.26-.047a.6.6 0 0 0 .263-.263c.006-.012.032-.066.048-.26.016-.205.017-.477.017-.912v-1.4c0-.575 0-.952-.024-1.24-.023-.278-.062-.394-.096-.46a1.1 1.1 0 0 0-.48-.48c-.067-.034-.182-.073-.46-.096A17.426 17.426 0 0 0 17.8 8.9H6.2c-.575 0-.952 0-1.24.024-.278.023-.393.062-.46.096a1.1 1.1 0 0 0-.48.48c-.034.066-.073.182-.096.46-.023.288-.024.665-.024 1.24v1.4c0 .435 0 .707.017.912.016.194.042.248.048.26a.6.6 0 0 0 .263.263c.012.006.066.032.26.047.205.017.477.018.912.018Zm.5 1.8v.5c0 .645 0 1.074.028 1.405.026.319.072.465.12.558.129.254.335.46.59.59.092.047.238.093.558.12.33.026.76.027 1.404.027h6.8c.645 0 1.074 0 1.405-.028.32-.026.465-.072.558-.12.254-.129.46-.335.59-.59.047-.092.093-.238.12-.557.026-.33.027-.76.027-1.405v-.5H5.9Zm9.176-9.94c.022.271.024.62.024 1.14H8.9c0-.52.002-.869.024-1.14.023-.278.062-.394.096-.46a1.1 1.1 0 0 1 .48-.48c.067-.034.182-.073.46-.096.288-.023.665-.024 1.24-.024h1.6c.575 0 .952 0 1.24.024.278.023.394.062.46.096a1.1 1.1 0 0 1 .48.48c.034.066.073.182.096.46Z" clip-rule="evenodd"/></svg>
