<svg xmlns="http://www.w3.org/2000/svg" width="64" height="64" fill="none" viewBox="0 0 64 64"><g clip-path="url(#a)"><circle cx="32" cy="32" r="32" fill="url(#b)"/><path fill="#fff" d="M41.917 28.103c0-2.267-1.828-4.103-4.084-4.103s-4.083 1.836-4.083 4.103 1.827 4.103 4.083 4.103 4.084-1.836 4.084-4.103m-4.084 5.862c2.883 0 8.167 1.004 8.167 5.024 0 1.758-.48 2.01-1.441 2.01L36.38 41q.286-.86.287-2.011c0-1.98-.733-3.528-1.95-4.682a14.8 14.8 0 0 1 3.116-.342m-11.666 0c2.882 0 8.166 1.004 8.166 5.024 0 1.758-.48 2.01-1.44 2.01H19.44c-.96 0-1.44-.252-1.44-2.01 0-4.02 5.283-5.024 8.166-5.024m0-9.965c2.256 0 4.083 1.836 4.083 4.103s-1.827 4.103-4.083 4.103-4.084-1.836-4.084-4.103S23.911 24 26.167 24"/></g><defs><linearGradient id="b" x1="0" x2="64" y1="0" y2="64" gradientUnits="userSpaceOnUse"><stop stop-color="#6cf"/><stop offset="1" stop-color="#3f8ae0"/></linearGradient><clipPath id="a"><path fill="#fff" d="M0 0h64v64H0z"/></clipPath></defs></svg>