<svg xmlns="http://www.w3.org/2000/svg" width="36" height="36" fill="none" viewBox="0 0 36 36"><path fill="currentColor" fill-rule="evenodd" d="M20.3661 4.3661c-.4881.4882-.4881 1.2796 0 1.7678L24.7322 10.5h-7.0319C11.7907 10.5 7 15.2907 7 21.2003 7 27.1648 11.8352 32 17.7997 32H22.75c.6904 0 1.25-.5596 1.25-1.25s-.5596-1.25-1.25-1.25h-4.9503C13.2159 29.5 9.5 25.7841 9.5 21.2003 9.5 16.6714 13.1714 13 17.7003 13h7.0319l-4.3661 4.3661c-.4881.4882-.4881 1.2796 0 1.7678.4882.4881 1.2796.4881 1.7678 0l6.5-6.5c.4881-.4882.4881-1.2796 0-1.7678l-6.5-6.5c-.4882-.4881-1.2796-.4881-1.7678 0Z" clip-rule="evenodd"/></svg>
