<svg xmlns="http://www.w3.org/2000/svg" width="36" height="36" fill="none" viewBox="0 0 36 36"><path fill="currentColor" fill-rule="evenodd" d="M15.6339 4.3661c.4881.4882.4881 1.2796 0 1.7678L11.2678 10.5h7.0319C24.2093 10.5 29 15.2907 29 21.2003 29 27.1648 24.1648 32 18.2003 32H13.25c-.6904 0-1.25-.5596-1.25-1.25s.5596-1.25 1.25-1.25h4.9503c4.5838 0 8.2997-3.7159 8.2997-8.2997C26.5 16.6714 22.8286 13 18.2997 13h-7.0319l4.3661 4.3661c.4881.4882.4881 1.2796 0 1.7678-.4882.4881-1.2796.4881-1.7678 0l-6.5-6.5c-.4881-.4882-.4881-1.2796 0-1.7678l6.5-6.5c.4882-.4881 1.2796-.4881 1.7678 0Z" clip-rule="evenodd"/></svg>
