<svg xmlns="http://www.w3.org/2000/svg" width="36" height="36" fill="currentColor" viewBox="0 0 36 36"><path fill-rule="evenodd" d="M18.202 3h6.596c.66 0 1.228 0 1.696.038.494.04.986.13 1.459.37a3.75 3.75 0 0 1 1.638 1.64c.241.473.33.964.37 1.458.04.468.039 1.037.039 1.696v19.596c0 .66 0 1.228-.038 1.696-.04.494-.13.986-.37 1.459a3.75 3.75 0 0 1-1.64 1.638c-.473.241-.964.33-1.458.37-.468.039-1.037.039-1.696.039H11.202c-.66 0-1.228 0-1.696-.038-.494-.04-.985-.13-1.458-.37a3.75 3.75 0 0 1-1.64-1.64c-.24-.473-.33-.964-.37-1.458C6 29.026 6 28.457 6 27.798V22.65c0-.539-.001-1.014.115-1.472a3.75 3.75 0 0 1 .499-1.133c.259-.396.61-.716 1.007-1.08l.081-.074 2-1.834.034-.03c.448-.412.837-.768 1.182-1.037.366-.287.76-.538 1.235-.684.277-.084.561-.136.847-.155V8.202c0-.66 0-1.228.038-1.696.04-.494.13-.985.37-1.458a3.75 3.75 0 0 1 1.64-1.64c.473-.24.964-.33 1.458-.37C16.974 3 17.543 3 18.202 3ZM22.5 30.5h-2v-7.851c0-.539.001-1.014-.115-1.472a3.75 3.75 0 0 0-.499-1.133c-.259-.396-.61-.716-1.007-1.08l-.081-.074-2-1.834-.034-.03a20.698 20.698 0 0 0-1.182-1.037 6.178 6.178 0 0 0-.082-.064V8.25c0-.72.001-1.186.03-1.54.028-.34.075-.466.106-.527a1.25 1.25 0 0 1 .547-.547c.061-.031.187-.078.527-.106.354-.029.82-.03 1.54-.03h6.5c.72 0 1.186.001 1.54.03.34.028.466.075.527.106.236.12.427.311.547.547.031.061.078.187.106.527.029.354.03.82.03 1.54v19.5c0 .72-.001 1.186-.03 1.54-.028.34-.075.466-.106.527a1.25 1.25 0 0 1-.547.547c-.061.031-.187.078-.527.106-.311.026-.709.03-1.29.03v-1.46c0-.364 0-.546-.07-.685a.651.651 0 0 0-.285-.284C24.506 28 24.324 28 23.96 28h-.42c-.364 0-.546 0-.685.07a.65.65 0 0 0-.284.285c-.071.139-.071.321-.071.685v1.46Zm-8.884-12.804a1.25 1.25 0 0 0-.732 0c-.064.02-.18.07-.426.262-.259.202-.575.49-1.066.941l-2 1.833c-.525.481-.622.582-.687.683a1.25 1.25 0 0 0-.167.377c-.029.116-.038.256-.038.968v4.99c0 .72.001 1.186.03 1.54.028.34.075.466.106.527.12.236.311.427.547.547.061.031.187.078.527.106.354.029.82.03 1.54.03H12v-2.96c0-.364 0-.546.07-.685a.65.65 0 0 1 .285-.284c.139-.071.321-.071.685-.071h.42c.364 0 .546 0 .685.07a.651.651 0 0 1 .284.285c.071.139.071.321.071.685v2.96H18v-7.74c0-.712-.009-.852-.038-.968a1.25 1.25 0 0 0-.166-.378c-.066-.1-.163-.2-.688-.682l-2-1.833c-.491-.45-.807-.739-1.066-.94-.246-.193-.362-.243-.426-.263ZM12 22.54c0-.364 0-.546.07-.685a.65.65 0 0 1 .285-.284c.139-.071.321-.071.685-.071h.42c.364 0 .546 0 .685.07a.651.651 0 0 1 .284.285c.071.139.071.321.071.685v.42c0 .364 0 .546-.07.685a.651.651 0 0 1-.285.284c-.139.071-.321.071-.685.071h-.42c-.364 0-.546 0-.685-.07a.65.65 0 0 1-.284-.285C12 23.506 12 23.324 12 22.96v-.42Zm6.07-14.185c-.07.139-.07.321-.07.685v.42c0 .364 0 .546.07.685a.65.65 0 0 0 .285.284c.139.071.321.071.685.071h.42c.364 0 .546 0 .685-.07a.651.651 0 0 0 .284-.285c.071-.139.071-.321.071-.685v-.42c0-.364 0-.546-.07-.685a.65.65 0 0 0-.285-.284C20.006 8 19.824 8 19.46 8h-.42c-.364 0-.546 0-.685.07a.65.65 0 0 0-.284.285Zm4.43.685c0-.364 0-.546.07-.685a.65.65 0 0 1 .285-.284C22.994 8 23.176 8 23.54 8h.42c.364 0 .546 0 .685.07a.65.65 0 0 1 .284.285c.071.139.071.321.071.685v.42c0 .364 0 .546-.07.685a.651.651 0 0 1-.285.284c-.139.071-.321.071-.685.071h-.42c-.364 0-.546 0-.685-.07a.65.65 0 0 1-.284-.285c-.071-.139-.071-.321-.071-.685v-.42Zm.07 4.315c-.07.139-.07.321-.07.685v.42c0 .364 0 .546.07.685a.65.65 0 0 0 .285.284c.139.071.321.071.685.071h.42c.364 0 .546 0 .685-.07a.651.651 0 0 0 .284-.285c.071-.139.071-.321.071-.685v-.42c0-.364 0-.546-.07-.685a.651.651 0 0 0-.285-.284C24.506 13 24.324 13 23.96 13h-.42c-.364 0-.546 0-.685.07a.65.65 0 0 0-.284.285Zm-.07 5.685c0-.364 0-.546.07-.685a.65.65 0 0 1 .285-.284c.139-.071.321-.071.685-.071h.42c.364 0 .546 0 .685.07a.651.651 0 0 1 .284.285c.071.139.071.321.071.685v.42c0 .364 0 .546-.07.685a.651.651 0 0 1-.285.284c-.139.071-.321.071-.685.071h-.42c-.364 0-.546 0-.685-.07a.65.65 0 0 1-.284-.285c-.071-.139-.071-.321-.071-.685v-.42Zm.07 4.315c-.07.139-.07.321-.07.685v.42c0 .364 0 .546.07.685a.65.65 0 0 0 .285.284c.139.071.321.071.685.071h.42c.364 0 .546 0 .685-.07a.651.651 0 0 0 .284-.285c.071-.139.071-.321.071-.685v-.42c0-.364 0-.546-.07-.685a.651.651 0 0 0-.285-.284C24.506 23 24.324 23 23.96 23h-.42c-.364 0-.546 0-.685.07a.65.65 0 0 0-.284.285ZM18 14.04c0-.364 0-.546.07-.685a.65.65 0 0 1 .285-.284c.139-.071.321-.071.685-.071h.42c.364 0 .546 0 .685.07a.651.651 0 0 1 .284.285c.071.139.071.321.071.685v.42c0 .364 0 .546-.07.685a.651.651 0 0 1-.285.284c-.139.071-.321.071-.685.071h-.42c-.364 0-.546 0-.685-.07a.65.65 0 0 1-.284-.285C18 15.006 18 14.824 18 14.46v-.42Z" clip-rule="evenodd"/></svg>
