<svg xmlns="http://www.w3.org/2000/svg" width="36" height="36" fill="currentColor" viewBox="0 0 36 36"><path fill-rule="evenodd" d="M16.073 4h3.854c.398 0 .691 0 .975.03a5.25 5.25 0 0 1 3.433 1.82c.185.217.35.46.573.79l.035.05.102.15c.102.15.127.187.15.218.312.41.788.662 1.302.69.038.002.084.002.265.002h.06c.395 0 .672 0 .917.02a5.75 5.75 0 0 1 5.24 5.24c.021.246.021.523.021.918v4.477c0 1.773 0 3.181-.093 4.316-.095 1.161-.293 2.147-.752 3.047a7.75 7.75 0 0 1-3.387 3.387c-.9.46-1.886.657-3.047.752-1.135.093-2.542.093-4.316.093h-6.81c-1.774 0-3.181 0-4.316-.093-1.161-.095-2.147-.293-3.047-.752a7.75 7.75 0 0 1-3.387-3.387c-.46-.9-.657-1.886-.752-3.047C3 21.586 3 20.178 3 18.405v-4.477c0-.395 0-.672.02-.917a5.75 5.75 0 0 1 5.24-5.24c.246-.021.523-.021.918-.021h.06c.182 0 .227 0 .265-.002a1.75 1.75 0 0 0 1.302-.69c.023-.03.048-.068.15-.218l.102-.15.034-.05c.224-.33.389-.573.574-.79a5.25 5.25 0 0 1 3.433-1.82c.284-.03.577-.03.975-.03Zm.062 2.5c-.486 0-.635.002-.767.016a2.75 2.75 0 0 0-1.799.953c-.086.101-.17.224-.444.626l-.116.171a7.25 7.25 0 0 1-.213.303 4.25 4.25 0 0 1-3.161 1.675c-.113.006-.228.006-.37.006h-.027c-.479 0-.64.001-.765.012a3.25 3.25 0 0 0-2.961 2.961c-.01.125-.012.286-.012.765v4.362c0 1.84.001 3.146.084 4.167.083 1.007.239 1.627.488 2.116a5.25 5.25 0 0 0 2.295 2.295c.49.25 1.109.405 2.116.488 1.02.083 2.326.084 4.167.084h6.7c1.84 0 3.146-.001 4.167-.084 1.007-.083 1.627-.239 2.117-.488a5.25 5.25 0 0 0 2.294-2.295c.25-.49.405-1.109.488-2.116.083-1.02.084-2.326.084-4.167v-4.362c0-.479-.001-.64-.012-.764a3.25 3.25 0 0 0-2.962-2.962c-.124-.01-.285-.012-.764-.012h-.027c-.142 0-.257 0-.37-.006a4.25 4.25 0 0 1-3.16-1.675 7.076 7.076 0 0 1-.214-.303l-.116-.171c-.273-.402-.358-.525-.445-.626a2.75 2.75 0 0 0-1.798-.953c-.132-.014-.281-.016-.767-.016h-3.73Zm1.865 8a3.5 3.5 0 1 0 0 7 3.5 3.5 0 0 0 0-7ZM12 18a6 6 0 1 1 12 0 6 6 0 0 1-12 0Z" clip-rule="evenodd"/></svg>
