<svg fill="none" height="36" viewBox="0 0 36 36" width="36" xmlns="http://www.w3.org/2000/svg"><path clip-rule="evenodd" d="m7.36612 7.36612c.48815-.48816 1.27961-.48816 1.76776 0l8.86612 8.86608 8.8661-8.86608c.4882-.48816 1.2796-.48816 1.7678 0 .4881.48815.4881 1.27961 0 1.76776l-8.8661 8.86612 8.8661 8.8661c.4881.4882.4881 1.2796 0 1.7678-.4882.4881-1.2796.4881-1.7678 0l-8.8661-8.8661-8.86612 8.8661c-.48815.4881-1.27961.4881-1.76776 0-.48816-.4882-.48816-1.2796 0-1.7678l8.86608-8.8661-8.86608-8.86612c-.48816-.48815-.48816-1.27961 0-1.76776z" fill="currentColor" fill-rule="evenodd"/></svg>
