<svg xmlns="http://www.w3.org/2000/svg" width="36" height="36" fill="none" viewBox="0 0 36 36"><path fill="currentColor" fill-rule="evenodd" d="M14.355 21.6342c.4883.488 1.2798.4877 1.7677-.0006.488-.4884.4877-1.2798-.0006-1.7678-1.5497-1.5485-1.4892-4.1931.1527-5.8338l6.341-6.3363c1.5957-1.5945 4.1832-1.5945 5.7788 0 1.5316 1.5304 1.4697 3.754-.1778 5.4095l-1.8303 1.7385c-.5005.4754-.5209 1.2666-.0454 1.7672.4754.5005 1.2666.5209 1.7672.0454l1.8423-1.75.0115-.0109.0112-.0112c2.5097-2.5078 2.8212-6.3262.1885-8.957-2.5719-2.5699-6.7413-2.5699-9.3131 0l-6.341 6.3364c-2.5256 2.5237-2.7706 6.7547-.1527 9.3706Zm7.29-7.2685c-.4883-.4879-1.2798-.4877-1.7678.0007-.4879.4883-.4877 1.2798.0007 1.7677 1.5497 1.5486 1.4892 4.1931-.1528 5.8338l-6.3409 6.3363c-1.5957 1.5945-4.1832 1.5945-5.7789 0-1.5315-1.5303-1.4696-3.7539.1779-5.4094l1.8303-1.7386c.5005-.4754.5208-1.2666.0454-1.7671-.4755-.5006-1.2667-.5209-1.7672-.0455l-1.8424 1.75-.0114.0109-.0112.0112c-2.5097 2.5079-2.8212 6.3262-.1885 8.957 2.5719 2.5699 6.7412 2.5699 9.3131 0l6.341-6.3363c2.5255-2.5238 2.7705-6.7548.1527-9.3707Z" clip-rule="evenodd"/></svg>
