<svg xmlns="http://www.w3.org/2000/svg" width="36" height="36" fill="none" viewBox="0 0 36 36"><path fill="currentColor" fill-rule="evenodd" d="M17.25 11c.6904 0 1.25.5596 1.25 1.25v5.8981l6.2071 2.4385c.6425.2524.9588.9779.7063 1.6205-.2524.6425-.9779.9588-1.6205.7063l-7-2.75A1.25 1.25 0 0 1 16 19v-6.75c0-.6904.5596-1.25 1.25-1.25Z" clip-rule="evenodd"/><path fill="currentColor" fill-rule="evenodd" d="M18 30.5c6.9036 0 12.5-5.5964 12.5-12.5S24.9036 5.5 18 5.5 5.5 11.0964 5.5 18 11.0964 30.5 18 30.5Zm0 2.5c8.2843 0 15-6.7157 15-15S26.2843 3 18 3 3 9.7157 3 18s6.7157 15 15 15Z" clip-rule="evenodd"/></svg>
