<svg height="36" viewBox="0 0 36 36" width="36" xmlns="http://www.w3.org/2000/svg"><g fill="none" fill-rule="evenodd"><path d="m0 0h36v36h-36z" opacity=".1"/><path d="m31.9953536 26.7072067c-.194738 4.3297802-6.4850308 7.2927933-13.9953536 7.2927933-7.6295342 0-14-3.0578236-14-7.5v-16c0-4.44217644 6.3704658-7.5 14-7.5 7.5103228 0 13.8006156 2.96301311 13.9953536 7.2927933l.0046464.2072067v16zm-13.9953536-8.7072067c-4.4206623 0-8.4186288-1.0265759-10.99962198-2.7542013l-.00037802 3.2542013c0 2.1852406 4.8224155 4.5 11 4.5s11-2.3147594 11-4.5l.0006355-3.2548799c-2.58096 1.7280352-6.5793945 2.7548799-11.0006355 2.7548799zm0-12c-6.1775845 0-11 2.31475944-11 4.5 0 2.1852406 4.8224155 4.5 11 4.5s11-2.3147594 11-4.5c0-2.18524056-4.8224155-4.5-11-4.5zm11.0006355 17.2451201c-2.58096 1.7280352-6.5793945 2.7548799-11.0006355 2.7548799-4.4206623 0-8.4186288-1.0265759-10.99962198-2.7542013l-.00037802 3.2542013.00476172.1193087c.17104683 2.1493397 4.92997348 4.3806913 10.99523828 4.3806913 6.1775845 0 11-2.3147594 11-4.5z" fill="currentColor" fill-rule="nonzero"/></g></svg>
