<svg fill="none" height="36" viewBox="0 0 36 36" width="36" xmlns="http://www.w3.org/2000/svg"><path d="m18 3c3.7951 0 7 1.60243 7 4l.0009 4.0378c3.2558.2483 5.8629 1.7018 5.9939 3.7962l.0052.166v12l-.0052.166c-.1442 2.3052-3.2879 3.834-6.9948 3.834-3.3635 0-6.2634-1.2587-6.8795-3.214-1.2891.7701-3.123 1.214-5.1205 1.214-3.70687 0-6.85062-1.5288-6.99483-3.834l-.00517-.166v-8l.00517-.166c.13104-2.0947 2.73864-3.5482 5.99493-3.7963l-.0001-6.0377.0052-.16597c.1442-2.30526 3.2879-3.83403 6.9948-3.83403zm11.0006 22.8559c-1.2818.727-3.0644 1.1441-5.0006 1.1441-1.9357 0-3.7179-.4169-4.9996-1.1435l-.0004 1.1435.0063.0863c.1298.8965 2.2499 1.9137 4.9937 1.9137s4.8639-1.0172 4.9937-1.9137l.0063-.0863zm-12-2c-1.2818.727-3.0644 1.1441-5.0006 1.1441-1.9357 0-3.71793-.4169-4.99959-1.1435l-.00041 1.1435.0063.0863c.12983.8965 2.24992 1.9137 4.9937 1.9137 2.7438 0 4.8639-1.0172 4.9937-1.9137l.0063-.0863zm12-2c-1.2818.727-3.0644 1.1441-5.0006 1.1441-1.9357 0-3.7179-.4169-4.9996-1.1435l-.0004 1.1435c0 .9161 2.1677 2 5 2 2.7438 0 4.8639-1.0172 4.9937-1.9137l.0063-.0863zm-12-2c-1.2818.727-3.0644 1.1441-5.0006 1.1441-1.9357 0-3.71793-.4169-4.99959-1.1435l-.00041 1.1435c0 .9161 2.16772 2 5 2 2.7438 0 4.8639-1.0172 4.9937-1.9137l.0063-.0863zm12-2c-1.2818.727-3.0644 1.1441-5.0006 1.1441-1.9357 0-3.7179-.4169-4.9996-1.1435l-.0004 1.1435c0 .9161 2.1677 2 5 2 2.7438 0 4.8639-1.0172 4.9937-1.9137l.0063-.0863zm-17.0006-2.8559c-2.83228 0-5 1.0839-5 2s2.16772 2 5 2c2.8323 0 5-1.0839 5-2s-2.1677-2-5-2zm12-2c-2.8323 0-5 1.0839-5 2s2.1677 2 5 2 5-1.0839 5-2-2.1677-2-5-2zm-.9994-3.1441c-1.2818.727-3.0644 1.1441-5.0006 1.1441-1.9357 0-3.7179-.4169-4.9996-1.14355l-.0004 1.14355c0 .9161 2.1677 2 5 2l-.1294-.002c1.0475-1.0827 2.9407-1.793 5.1265-1.9601l.0029-.0379zm-5.0006-4.8559c-2.8323 0-5 1.08386-5 2s2.1677 2 5 2 5-1.08386 5-2-2.1677-2-5-2z" fill="currentColor"/>
</svg>