<svg xmlns="http://www.w3.org/2000/svg" width="36" height="36" fill="none" viewBox="0 0 36 36">
  <circle cx="18" cy="18" r="18" fill="url(#a)"/>
  <path fill="#fff" d="M16.436 7.693c.629.426 1.156 1.017 1.565 1.756.408-.74.935-1.33 1.564-1.756 1.49-1.01 3.376-.902 4.51.232 1.135 1.135 1.242 3.02.233 4.51a4.581 4.581 0 0 1-.453.565H25c.799 0 1.51.178 2.102.504a3.51 3.51 0 0 1 1.393 1.394C28.822 15.49 29 16.2 29 17v.429c0 1.007-.14 1.547-.4 2.036a2.726 2.726 0 0 1-1.135 1.134 2.99 2.99 0 0 1-.463.201L27 23.872c0 1.783-.186 2.43-.534 3.081a3.635 3.635 0 0 1-1.512 1.512c-.652.349-1.299.535-3.082.535h-7.744c-1.783 0-2.43-.186-3.082-.535a3.635 3.635 0 0 1-1.512-1.512C9.186 26.301 9 25.655 9 23.872V20.8a2.979 2.979 0 0 1-.465-.201A2.725 2.725 0 0 1 7.4 19.465c-.24-.448-.377-.94-.398-1.794L7 17c0-.8.178-1.51.505-2.102.326-.593.8-1.067 1.393-1.394C9.491 13.178 10.201 13 11 13l1.146.001a4.59 4.59 0 0 1-.453-.565c-1.01-1.49-.902-3.375.233-4.51 1.134-1.134 3.02-1.242 4.51-.232ZM17 20.999h-6v2.873c0 1.323.078 1.727.298 2.138.162.303.388.53.691.692.412.22.815.297 2.139.297H17v-6Zm2 0v6h2.872c1.324 0 1.727-.077 2.139-.297.303-.163.529-.389.691-.692.22-.411.298-.815.298-2.138V21l-6-.001Zm-2-6h-6c-.458 0-.84.093-1.137.257a1.508 1.508 0 0 0-.607.606C9.092 16.16 9 16.542 9 17l.002.609c.009.506.06.722.162.913a.73.73 0 0 0 .314.313c.21.113.45.163 1.075.165L17 18.998v-4Zm8 0h-6v4h6.446l.163-.001c.506-.01.722-.06.913-.163a.728.728 0 0 0 .314-.313c.102-.191.153-.407.163-.913l.001-.61c0-.458-.093-.839-.256-1.137a1.508 1.508 0 0 0-.607-.606c-.298-.164-.679-.257-1.137-.257Zm-6-2c3.65-.35 4.695-2.704 3.7-3.7-.995-.995-3.35.05-3.7 3.7Zm-5.699-3.7c-.995.996.05 3.35 3.7 3.7-.35-3.65-2.705-4.695-3.7-3.7Z"/>
  <defs>
    <linearGradient id="a" x1="-18" x2="18" y1="18" y2="54" gradientUnits="userSpaceOnUse">
      <stop stop-color="#928FFF"/>
      <stop offset="1" stop-color="#4B47B2"/>
    </linearGradient>
  </defs>
</svg>

