<svg width="36" height="36" viewBox="0 0 36 36" fill="none" xmlns="http://www.w3.org/2000/svg">
<path d="M19.6092 10.9502C26.6177 10.3788 28.326 5.21015 26.0593 2.94344C23.6846 0.568726 18.1223 2.54068 18.0023 10.4152C17.8804 2.54068 12.3182 0.568726 9.94344 2.94344C7.61977 5.26711 9.45792 10.6428 16.9156 10.987C16.643 10.9917 16.4189 10.9962 16.2767 11H9C6.79086 11 5 12.7909 5 15V17.25C5 18.3546 5.89543 19.25 7 19.25H29C30.1046 19.25 31 18.3546 31 17.25V15C31 12.7909 29.2091 11 27 11H18.5547C18.7654 10.9969 18.9719 10.99 19.1741 10.9793C21.0933 10.9417 20.6626 10.9394 19.6092 10.9502Z" fill="currentColor"/>
<path d="M16.75 21.75H8V29C8 30.6569 9.34315 32 11 32H16.75V21.75Z" fill="currentColor"/>
<path d="M19.25 21.75H28V29C28 30.6569 26.6569 32 25 32H19.25V21.75Z" fill="currentColor"/>
</svg>
