<svg xmlns="http://www.w3.org/2000/svg" width="36" height="36" fill="currentColor" viewBox="0 0 36 36"><path fill-rule="evenodd" d="M23.622 12c-2.115 0-3.999.928-5.622 2.715-1.33-1.464-2.835-2.352-4.5-2.625v-1.84c0-2.619 2.133-4.75 4.774-4.75a4.776 4.776 0 0 1 4.341 2.77 1.25 1.25 0 1 0 2.27-1.048A7.276 7.276 0 0 0 18.274 3C14.261 3 11 6.241 11 10.25v1.874a8.093 8.093 0 0 0-.11.02C7.53 12.81 5 15.683 5 19.126c0 3.945 1.633 5.92 8.47 11.055l3.142 2.36c.816.613 1.96.613 2.776 0l3.141-2.36C29.366 25.044 31 23.07 31 19.125 31 15.19 27.697 12 23.622 12Zm-4.372 8.25a1.25 1.25 0 1 0-2.5 0v2.5a1.25 1.25 0 1 0 2.5 0v-2.5Z" clip-rule="evenodd"/></svg>
