<svg xmlns="http://www.w3.org/2000/svg" width="36" height="36" fill="none" viewBox="0 0 36 36"><path fill="currentColor" d="M17.9999 11.5c-1.1791 0-2.0643.6871-2.2894 1.5616-.172.6685-.8535 1.071-1.5221.8989-.6685-.172-1.071-.8535-.8989-1.5221C13.848 10.2683 15.89 9 17.9999 9c2.5604 0 4.7501 1.872 4.7501 4.5883 0 1.001-.2541 1.8045-.6679 2.4825-.3925.6431-.907 1.1309-1.3119 1.5104l-.0238.0223c-.8279.7758-1.359 1.2736-1.509 2.3233-.0976.6834-.7308 1.1583-1.4142 1.0606-.6834-.0976-1.1583-.7308-1.0607-1.4142.276-1.9319 1.3868-2.9668 2.1815-3.7072l.1166-.1089c.415-.3889.6928-.6695.8876-.9887.1735-.2844.3018-.6371.3018-1.1802 0-1.1822-.9119-2.0882-2.2501-2.0882ZM18 27c.9665 0 1.75-.7835 1.75-1.75S18.9665 23.5 18 23.5s-1.75.7835-1.75 1.75S17.0335 27 18 27Z"/><path fill="currentColor" fill-rule="evenodd" d="M18 3C9.7157 3 3 9.7157 3 18s6.7157 15 15 15 15-6.7157 15-15S26.2843 3 18 3ZM5.5 18c0 6.9036 5.5964 12.5 12.5 12.5S30.5 24.9036 30.5 18 24.9036 5.5 18 5.5 5.5 11.0964 5.5 18Z" clip-rule="evenodd"/></svg>
