<svg fill="none" height="36" viewBox="0 0 36 36" width="36" xmlns="http://www.w3.org/2000/svg"><path clip-rule="evenodd" d="m16.594 4.59671-11.61457 10.72119c-.78371.7234-1.22943 1.7414-1.22943 2.808v10.9455c0 1.7555 1.42309 3.1786 3.17857 3.1786h9.32143v-8.25c0-.9665.7835-1.75 1.75-1.75s1.75.7835 1.75 1.75v8.25h9.3214c1.7555 0 3.1786-1.4231 3.1786-3.1786v-10.9455c0-1.0666-.4457-2.0846-1.2294-2.808l-3.8076-3.5147c.0242-.0971.037-.1986.037-.3032v-4.49998l-.0065-.1278c-.064-.63032-.5963-1.1222-1.2435-1.1222-.6904 0-1.25.55965-1.25 1.25v2.52963l-5.344-4.93294c-.7941-.73295-2.0179-.73295-2.812 0zm-9.91887 12.55819 11.32487-10.45488 11.3249 10.45488c.271.2501.4251.6022.4251.971v10.9456l-.0074.1002c-.0484.3272-.3305.5783-.6712.5783h-6.8214v-5.75c0-2.3472-1.9028-4.25-4.25-4.25l-.2059.0049c-2.2516.1074-4.0441 1.9669-4.0441 4.2451v5.75h-6.82143c-.37476 0-.67857-.3038-.67857-.6785v-10.9456c0-.3688.15413-.7209.42513-.971z" fill="currentColor" fill-rule="evenodd"/></svg>
