<svg xmlns="http://www.w3.org/2000/svg" width="36" height="36" fill="currentColor" viewBox="0 0 36 36"><path fill-rule="evenodd" d="M3.004 14.826c0-4.842 3.815-8.822 8.555-8.822 2.456 0 4.606 1.014 6.437 2.877 1.813-1.867 3.97-2.877 6.453-2.877 4.74 0 8.555 3.98 8.555 8.822 0 2.62-.66 4.638-2.284 6.738-1.553 2.008-4 4.102-7.482 6.948l-.004.003-3.572 2.896a2.624 2.624 0 0 1-3.316 0l-3.572-2.896-.004-.003c-3.482-2.846-5.929-4.94-7.482-6.948-1.624-2.1-2.284-4.117-2.284-6.738Zm8.555-6.322c-3.282 0-6.055 2.783-6.055 6.322 0 2.084.486 3.56 1.761 5.208 1.346 1.74 3.553 3.653 7.085 6.54l.002.002 3.568 2.893a.13.13 0 0 0 .084.033.13.13 0 0 0 .083-.033l3.569-2.893.002-.001c3.532-2.888 5.738-4.8 7.084-6.54 1.276-1.65 1.762-3.125 1.762-5.209 0-3.54-2.773-6.322-6.055-6.322-2.017 0-3.826.929-5.455 3.042a1.25 1.25 0 0 1-1.972.01c-1.675-2.126-3.488-3.052-5.463-3.052Z" clip-rule="evenodd"/></svg>
