<svg xmlns="http://www.w3.org/2000/svg" width="36" height="36" fill="currentColor" viewBox="0 0 36 36"><path fill-rule="evenodd" d="M4 9.25C4 8.56 4.56 8 5.25 8h23.5a1.25 1.25 0 1 1 0 2.5H5.25C4.56 10.5 4 9.94 4 9.25Zm0 8c0-.69.56-1.25 1.25-1.25h11.5a1.25 1.25 0 1 1 0 2.5H5.25c-.69 0-1.25-.56-1.25-1.25Zm0 8c0-.69.56-1.25 1.25-1.25h11.5a1.25 1.25 0 1 1 0 2.5H5.25c-.69 0-1.25-.56-1.25-1.25Z M32.416 23.449a1.238 1.238 0 0 1 0 2.102l-8.575 5.269c-.808.497-1.841-.093-1.841-1.051V19.23c0-.958 1.033-1.548 1.841-1.051l8.575 5.269Z"/></svg>
