<svg fill="none" height="36" viewBox="0 0 36 36" width="36" xmlns="http://www.w3.org/2000/svg"><g fill="currentColor"><path d="m20.5 18c0 1.3807-1.1193 2.5-2.5 2.5s-2.5-1.1193-2.5-2.5 1.1193-2.5 2.5-2.5 2.5 1.1193 2.5 2.5z"/><g clip-rule="evenodd" fill-rule="evenodd"><path d="m9 18c0-4.9706 4.0294-9 9-9s9 4.0294 9 9-4.0294 9-9 9-9-4.0294-9-9zm15.2448 0c0-3.4489-2.7959-6.2448-6.2448-6.2448s-6.2448 2.7959-6.2448 6.2448 2.7959 6.2448 6.2448 6.2448 6.2448-2.7959 6.2448-6.2448z"/><path d="m33 18c0-8.28427-6.7157-15-15-15-8.28427 0-15 6.71573-15 15 0 8.2843 6.71573 15 15 15 8.2843 0 15-6.7157 15-15zm-27.5 0c0-6.9036 5.5964-12.5 12.5-12.5s12.5 5.5964 12.5 12.5-5.5964 12.5-12.5 12.5-12.5-5.5964-12.5-12.5z"/></g></g></svg>
