<svg xmlns="http://www.w3.org/2000/svg" width="36" height="36" fill="currentColor" viewBox="0 0 36 36"><path fill-rule="evenodd" d="M18 3c-4.217 0-7.5 3.622-7.5 7.917v2.185c-.581.074-1.122.21-1.633.47a5.25 5.25 0 0 0-2.295 2.295c-.323.633-.453 1.31-.513 2.054C6 18.639 6 19.522 6 20.598v4.804c0 1.076 0 1.959.059 2.677.06.744.19 1.421.513 2.055a5.25 5.25 0 0 0 2.295 2.294c.633.323 1.31.453 2.054.513.718.059 1.601.059 2.677.059h8.804c1.076 0 1.959 0 2.677-.059.744-.06 1.421-.19 2.055-.513a5.25 5.25 0 0 0 2.294-2.294c.322-.634.453-1.31.513-2.055.059-.718.059-1.601.059-2.677v-4.804c0-1.076 0-1.959-.059-2.677-.06-.744-.19-1.421-.513-2.054a5.25 5.25 0 0 0-2.294-2.295c-.512-.26-1.053-.396-1.634-.47v-2.185C25.5 6.622 22.217 3 18 3Zm5 10v-2.083c0-3.07-2.313-5.417-5-5.417s-5 2.348-5 5.417V13h10Zm-11.875 2.55c-.59.048-.901.136-1.123.25A2.75 2.75 0 0 0 8.8 17c-.114.223-.201.534-.25 1.124-.049.604-.05 1.384-.05 2.525v4.7c0 1.14.001 1.921.05 2.525.049.59.136.901.25 1.123A2.75 2.75 0 0 0 10 30.2c.223.114.534.201 1.124.25.604.049 1.384.05 2.525.05h8.7c1.14 0 1.921-.001 2.525-.05.59-.049.901-.136 1.123-.25A2.751 2.751 0 0 0 27.2 29c.114-.223.201-.534.25-1.124.049-.604.05-1.384.05-2.525v-4.7c0-1.14-.001-1.921-.05-2.525-.049-.59-.136-.901-.25-1.123A2.751 2.751 0 0 0 26 15.8c-.223-.114-.534-.202-1.124-.25-.604-.049-1.384-.05-2.525-.05h-8.7c-1.14 0-1.921.001-2.525.05ZM17.993 20a1.25 1.25 0 0 1 1.257 1.243l.02 3.5a1.25 1.25 0 1 1-2.5.014l-.02-3.5A1.25 1.25 0 0 1 17.993 20Z" clip-rule="evenodd"/></svg>
