<svg fill="none" height="36" viewBox="0 0 36 36" width="36" xmlns="http://www.w3.org/2000/svg"><path clip-rule="evenodd" d="m15 8.5h6c1.898 0 3.1962.00135 4.2071.07032.9883.06744 1.518.19107 1.8977.34834.2564.10624.5029.23103.7376.37276l-6.6344 6.07578c-.7295.6681-1.2241 1.1198-1.6354 1.441-.3991.3117-.6419.4366-.842.4977-.4762.1456-.985.1456-1.4612 0-.2001-.0611-.4429-.186-.842-.4977-.4113-.3212-.9059-.7729-1.6354-1.441l-6.63445-6.07578c.23478-.14173.48122-.26652.73769-.37276.37969-.15727.90933-.2809 1.89766-.34834 1.0109-.06897 2.3091-.07032 4.2071-.07032zm-8.63527 2.5395c-.17233.2698-.32188.5559-.44607.8557-.15727.3797-.2809.9094-.34834 1.8977-.06897 1.0109-.07032 2.3091-.07032 4.2071s.00135 3.1962.07032 4.2071c.06744.9883.19107 1.518.34834 1.8977.55822 1.3476 1.62893 2.4183 2.97658 2.9765.37969.1573.90933.2809 1.89766.3484 1.0109.0689 2.3091.0703 4.2071.0703h6c1.898 0 3.1962-.0014 4.2071-.0703.9883-.0675 1.518-.1911 1.8977-.3484 1.3476-.5582 2.4183-1.6289 2.9765-2.9765.1573-.3797.2809-.9094.3484-1.8977.0689-1.0109.0703-2.3091.0703-4.2071s-.0014-3.1962-.0703-4.2071c-.0675-.9883-.1911-1.518-.3484-1.8977-.1242-.2998-.2737-.5859-.446-.8557l-6.7388 6.1713-.0362.0331c-.6843.6267-1.251 1.1458-1.7489 1.5346-.5187.4051-1.039.7315-1.6501.9183-.9525.2911-1.9701.2911-2.9226 0-.6111-.1868-1.1314-.5132-1.6501-.9183-.4979-.3888-1.0646-.9079-1.7489-1.5346l-.0362-.0331zm-3.36473 6.9605c0-3.7275 0-5.5913.60896-7.0615.81196-1.96019 2.36935-3.51758 4.32957-4.32954 1.47017-.60896 3.33397-.60896 7.06147-.60896h6c3.7275 0 5.5913 0 7.0615.60896 1.9602.81196 3.5176 2.36935 4.3295 4.32954.609 1.4702.609 3.334.609 7.0615s0 5.5913-.609 7.0615c-.8119 1.9602-2.3693 3.5176-4.3295 4.3295-1.4702.609-3.334.609-7.0615.609h-6c-3.7275 0-5.5913 0-7.06147-.609-1.96022-.8119-3.51761-2.3693-4.32957-4.3295-.60896-1.4702-.60896-3.334-.60896-7.0615z" fill="currentColor" fill-rule="evenodd"/></svg>
