<svg fill="none" height="36" viewBox="0 0 36 36" width="36" xmlns="http://www.w3.org/2000/svg"><path clip-rule="evenodd" d="m10 10h-2c-1.65685 0-3 1.3431-3 3v11c0 3.866 3.13401 7 7 7h12c3.866 0 7-3.134 7-7v-11c0-1.6569-1.3431-3-3-3h-2c0-4.41828-3.5817-8-8-8s-8 3.58172-8 8zm13.5 0c0-3.03757-2.4624-5.5-5.5-5.5s-5.5 2.46243-5.5 5.5zm-10.75 4.5c0 .8284-.6716 1.5-1.5 1.5s-1.5-.6716-1.5-1.5.6716-1.5 1.5-1.5 1.5.6716 1.5 1.5zm12 1.5c.8284 0 1.5-.6716 1.5-1.5s-.6716-1.5-1.5-1.5-1.5.6716-1.5 1.5.6716 1.5 1.5 1.5z" fill="currentColor" fill-rule="evenodd"/></svg>
