<svg fill="none" height="36" viewBox="0 0 36 36" width="36" xmlns="http://www.w3.org/2000/svg"><g fill="currentColor"><path d="m10 10.5c0-4.41828 3.5817-8 8-8s8 3.58172 8 8h-2.5c0-3.03757-2.4624-5.5-5.5-5.5s-5.5 2.46243-5.5 5.5z"/><path d="m24.5 16c-.8284 0-1.5.6716-1.5 1.5s.6716 1.5 1.5 1.5 1.5-.6716 1.5-1.5-.6716-1.5-1.5-1.5z"/><path d="m10 17.5c0-.8284.6716-1.5 1.5-1.5s1.5.6716 1.5 1.5-.6716 1.5-1.5 1.5-1.5-.6716-1.5-1.5z"/><path clip-rule="evenodd" d="m8.85552 10.5015 18.01668-.0015c1.7831 0 2.4296.1857 3.0815.5343.6518.3486 1.1634.8602 1.512 1.512.3486.6519.5343 1.2984.5343 3.0815v8.0286c0 3.0717-.3713 4.4473-1.0685 5.751-.6973 1.3037-1.7204 2.3268-3.0241 3.0241-1.3037.6972-2.6793 1.0685-5.751 1.0685h-8.3128c-3.0717 0-4.44728-.3713-5.75098-1.0685-1.30371-.6973-2.32686-1.7204-3.02409-3.0241s-1.06853-2.6793-1.06853-5.751v-8.0286c0-1.7831.18565-2.4296.53427-3.0815.34861-.6518.86019-1.1634 1.51204-1.512.61754-.3303 1.23035-.5143 2.80921-.5328zm.0488 2.4992-.38743.0063c-.7594.0205-1.02418.0888-1.29158.2318-.21619.1156-.3709.2703-.48651.4865l-.0608.125c-.12065.2784-.17072.6306-.17725 1.554l-.00075 8.2521c0 2.46.21641 3.5311.77306 4.572.46423.868 1.13052 1.5343 1.99855 1.9985.95039.5083 1.92589.7329 3.96079.7681l.6112.005h8.3128l.6112-.005c2.0349-.0352 3.0104-.2598 3.9608-.7681.868-.4642 1.5343-1.1305 1.9985-1.9985.5083-.9504.7329-1.9259.7681-3.9608l.005-.6112v-8.0286c0-1.2483-.0628-1.5734-.2388-1.9025-.1156-.2162-.2703-.3709-.4865-.4865l-.125-.0608c-.2784-.1206-.6306-.1707-1.554-.1773z" fill-rule="evenodd"/></g></svg>
