<svg width="36" height="36" viewBox="0 0 36 36" fill="none" xmlns="http://www.w3.org/2000/svg"><path fill-rule="evenodd" clip-rule="evenodd" d="M18.028 7.5c-7.132 0-12.52 4.723-12.52 10.056 0 1.902.705 3.71 1.906 5.262.17.22.261.488.261.765 0 1.317-.36 2.591-.801 3.737-.277.72-.607 1.438-.922 2.104 2.753-.27 4.562-1.108 5.646-2.333a1.25 1.25 0 0 1 1.36-.347c1.517.547 3.203.796 5.046.796 7.14 0 12.497-4.657 12.497-9.984C30.5 12.218 25.154 7.5 18.028 7.5zM3.008 17.556C3.008 10.401 10.003 5 18.028 5 26.06 5 33 10.406 33 17.556c0 7.163-6.98 12.484-14.996 12.484-1.781 0-3.502-.207-5.127-.692-1.88 1.706-4.62 2.524-7.984 2.65-1.243.048-2.328-1.247-1.718-2.547.117-.253.236-.503.354-.751.36-.76.715-1.505 1.013-2.279.333-.865.559-1.68.618-2.444-1.324-1.846-2.152-4.043-2.152-6.42z" fill="currentColor"/></svg>
