<svg fill="none" height="36" viewBox="0 0 36 36" width="36" xmlns="http://www.w3.org/2000/svg"><path clip-rule="evenodd" d="m18.0281 7.5c-7.1321 0-12.52074 4.7232-12.52074 10.0564 0 1.9014.70544 3.7095 1.90637 5.2616.16946.2191.2614.4882.2614.7651 0 1.3169-.36025 2.5911-.80115 3.7365-.27743.7207-.60701 1.438-.92161 2.1041 2.75293-.269 4.56163-1.1079 5.64603-2.3325.3392-.3831.8777-.5207 1.3591-.3472 1.5178.5471 3.2034.796 5.0465.796 7.1404 0 12.4967-4.6572 12.4967-9.9836 0-5.3382-5.3465-10.0564-12.4726-10.0564zm-15.02007 10.0564c0-7.1556 6.99507-12.5564 15.02007-12.5564 8.0311 0 14.9719 5.4058 14.9719 12.5564 0 7.1622-6.9792 12.4836-14.996 12.4836-1.7813 0-3.502-.2073-5.1269-.6919-1.8803 1.7062-4.62048 2.5238-7.98453 2.6506-1.24285.0469-2.3274-1.2474-1.7178-2.548.11765-.2528.23627-.5025.35416-.7507.36086-.7598.7148-1.5049 1.01263-2.2787.333-.8651.55909-1.6796.61862-2.4448-1.324-1.8451-2.15215-4.0425-2.15215-6.4201z" fill="currentColor" fill-rule="evenodd"/></svg>
