<svg fill="none" height="36" viewBox="0 0 36 36" width="36" xmlns="http://www.w3.org/2000/svg"><g clip-rule="evenodd" fill="currentColor" fill-rule="evenodd"><path d="m14.3093 11c-.0559 0-.1012.0453-.1012.1012v6.9118h-1.0059c-.093 0-.1395 0-.1788.0028-.5466.0391-.9815.474-1.0206 1.0206-.0028.0393-.0028.0858-.0028.1788s0 .1396.0028.1788c.0391.5467.474.9815 1.0206 1.0206.0393.0028.0858.0028.1788.0028h1.0078v1.8034h-1.1581c-.5809 0-1.0519.471-1.0519 1.0519 0 .581.471 1.052 1.0519 1.052h1.1581v.9117c0 .0837 0 .1256.0023.1609.0356.5529.4761.9934 1.029 1.029.0353.0023.0772.0023.1609.0023.0838 0 .1256 0 .161-.0023.5529-.0356.9934-.4761 1.029-1.029.0022-.0353.0022-.0772.0022-.1609v-.9117h2.0679c.581 0 1.052-.471 1.052-1.052 0-.5809-.471-1.0519-1.052-1.0519h-2.0679v-1.8034h3.1239c2.6005 0 4.7087-2.1081 4.7087-4.7087 0-2.6005-2.1082-4.7087-4.7087-4.7087zm5.4551 7.013h-3.17v-4.8089h3.17c1.3279 0 2.4044 1.0765 2.4044 2.4044 0 1.328-1.0765 2.4045-2.4044 2.4045z"/><path d="m18 3c8.2843 0 15 6.71573 15 15 0 8.2843-6.7157 15-15 15-8.28427 0-15-6.7157-15-15 0-8.28427 6.71573-15 15-15zm0 2.5c-6.9036 0-12.5 5.5964-12.5 12.5s5.5964 12.5 12.5 12.5 12.5-5.5964 12.5-12.5-5.5964-12.5-12.5-12.5z"/></g></svg>
