<svg fill="none" height="36" viewBox="0 0 36 36" width="36" xmlns="http://www.w3.org/2000/svg"><g fill="currentColor"><path clip-rule="evenodd" d="m24 20c4.4183 0 8-3.5817 8-8 0-4.41828-3.5817-8-8-8s-8 3.58172-8 8c0 4.4183 3.5817 8 8 8zm0-2.5c3.0376 0 5.5-2.4624 5.5-5.5 0-3.03757-2.4624-5.5-5.5-5.5s-5.5 2.46243-5.5 5.5c0 3.0376 2.4624 5.5 5.5 5.5z" fill-rule="evenodd"/><path d="m18.4432 21.5633c.5304-.468 1.3398-.4174 1.8078.113s.4174 1.3397-.113 1.8077l-8.3361 7.6564c-1.5868 1.4-3.98883 1.3251-5.48525-.1713-1.49641-1.4963-1.5714-3.8982-.17124-5.485l6.37659-8.3364c.4681-.5304 1.2775-.581 1.8079-.113s.581 1.2773.113 1.8077l-6.37668 8.3365c-.50517.5725-.47811 1.4391.06179 1.979.5399.5398 1.40655.5669 1.97909.0617z"/></g>
</svg>