<svg height="36" viewBox="0 0 36 36" width="36" xmlns="http://www.w3.org/2000/svg"><g fill="none" fill-rule="evenodd"><path d="m0 0h36v36h-36z" opacity=".4"/><path d="m25.5822057 2.28400078c2.4330418-.50688371 4.8163223 1.05457594 5.323206 3.48761774.0628922.30188247.0945881.60942999.0945881.91779415v15.75566443c0 3.5491978-1.5269277 6.243776-4.0025094 7.5467138-2.2673367 1.1933351-4.9993709.9747723-6.6067038-.6325605-1.6073328-1.6073329-1.8258956-4.3393671-.6325605-6.6067038 1.3029378-2.4755817 3.997516-4.0025094 7.5467138-4.0025094l.6940771-.0005099v-7.156l-15 3.125.0009828 11.4765698c0 3.4382853-1.4329858 6.0745303-3.7732205 7.4205027l-.22928888.1262111c-2.26733669 1.1933351-4.99937096.9747723-6.6067038-.6325605-1.60733283-1.6073329-1.82589558-4.3393671-.63256048-6.6067038 1.30293774-2.4755817 3.99751601-4.0025094 7.54671376-4.0025094l.6940771-.0005099.0025897-12.3983889c.0139924-1.14301381.1212674-1.81467218.3960057-2.48841453l.0722163-.16875298c.3329482-.74392588.839045-1.36632584 1.4994277-1.84400243.6979464-.50484767 1.3888217-.76925443 2.7737604-1.05778332zm-15.58220589 23.21601642h-.69505991c-4.52116657 0-6.50722147 3.7735043-4.79283293 5.4878928 1.71438853 1.7143886 5.48789284-.2716663 5.48789284-4.7928329zm17.99999999-3.75h-.6950599c-4.5211666 0-6.5072215 3.7735043-4.7928329 5.4878928 1.7143885 1.7143886 5.4878928-.2716663 5.4878928-4.7928329zm-.0315294-15.36653591c-.1689612-.81101394-.963388-1.33150049-1.774402-1.16253925l-11.0444906 2.30179373c-.8459455.18375173-1.1378616.30238668-1.4220758.50796816-.2335611.16894246-.401654.37566384-.5194096.63877213-.1543161.34479772-.2080926.67777391-.2080926 1.70567134l-.0009828 1.2803599 15-3.12499998.0009828-1.84109465c0-.05139403-.0026413-.10272-.0079032-.1537759z" fill="currentColor" fill-rule="nonzero"/></g></svg>
