<svg width="36" height="36" viewBox="0 0 36 36" fill="none" xmlns="http://www.w3.org/2000/svg">
<path d="M25 15.435C25 14.7214 24.55 14.1429 23.995 14.1429H12.005C11.45 14.1429 11 14.7214 11 15.435V25.7079C11 26.4215 11.45 27 12.005 27H23.995C24.55 27 25 26.4215 25 25.7079V15.435Z" fill="currentColor"/>
<path d="M12.25 9C11.5596 9 11 9.55964 11 10.25C11 10.9404 11.5596 11.5 12.25 11.5H20.75C21.4404 11.5 22 10.9404 22 10.25C22 9.55964 21.4404 9 20.75 9H12.25Z" fill="currentColor"/>
<path fill-rule="evenodd" clip-rule="evenodd" d="M8.94645 4.03037C10.3478 3.2809 11.7366 3 14.844 3H21.156C24.2634 3 25.6522 3.2809 27.0535 4.03037C28.3075 4.70097 29.299 5.69253 29.9696 6.94645C30.7191 8.34784 31 9.73656 31 12.844V23.156C31 26.2634 30.7191 27.6522 29.9696 29.0535C29.299 30.3075 28.3075 31.299 27.0535 31.9696C25.6522 32.7191 24.2634 33 21.156 33H14.844C11.7366 33 10.3478 32.7191 8.94645 31.9696C7.69253 31.299 6.70097 30.3075 6.03037 29.0535C5.2809 27.6522 5 26.2634 5 23.156V12.844C5 9.73656 5.2809 8.34784 6.03037 6.94645C6.70097 5.69253 7.69253 4.70097 8.94645 4.03037ZM14.844 5.5C11.8844 5.5 10.987 5.77413 10.1254 6.2349C9.3072 6.67251 8.67251 7.3072 8.2349 8.12545C7.77413 8.98702 7.5 9.88436 7.5 12.844V23.156C7.5 26.1156 7.77413 27.013 8.2349 27.8745C8.67251 28.6928 9.3072 29.3275 10.1254 29.7651C10.987 30.2259 11.8844 30.5 14.844 30.5H21.156C24.1156 30.5 25.013 30.2259 25.8745 29.7651C26.6928 29.3275 27.3275 28.6928 27.7651 27.8745C28.2259 27.013 28.5 26.1156 28.5 23.156V12.844C28.5 9.88436 28.2259 8.98702 27.7651 8.12545C27.3275 7.3072 26.6928 6.67251 25.8745 6.2349C25.013 5.77413 24.1156 5.5 21.156 5.5H14.844Z" fill="currentColor"/>
</svg>
