<svg width="36" height="36" viewBox="0 0 36 36" fill="none" xmlns="http://www.w3.org/2000/svg">
<path d="M23.6339 15.8839C24.122 15.3957 24.122 14.6043 23.6339 14.1161C23.1457 13.628 22.3543 13.628 21.8661 14.1161L16 19.9822L14.1339 18.1161C13.6457 17.628 12.8543 17.628 12.3661 18.1161C11.878 18.6043 11.878 19.3957 12.3661 19.8839L15.1161 22.6339C15.6043 23.122 16.3957 23.122 16.8839 22.6339L23.6339 15.8839Z" fill="currentColor"/>
<path fill-rule="evenodd" clip-rule="evenodd" d="M12.25 3.25C12.9404 3.25 13.5 3.80964 13.5 4.5V5.00686C14.0143 4.99999 14.5781 4.99999 15.1965 5L16.75 5V4.5C16.75 3.80964 17.3096 3.25 18 3.25C18.6904 3.25 19.25 3.80964 19.25 4.5V5L20.8035 5C21.4219 4.99999 21.9857 4.99999 22.5 5.00686V4.5C22.5 3.80964 23.0596 3.25 23.75 3.25C24.4404 3.25 25 3.80964 25 4.5V5.17738C25.5664 5.27385 26.0904 5.42796 26.5874 5.68121C27.7635 6.28042 28.7196 7.23655 29.3188 8.41256C29.696 9.15292 29.8533 9.95316 29.9277 10.8642C30 11.7491 30 12.8417 30 14.1965V22.8035C30 24.1583 30 25.2509 29.9277 26.1358C29.8533 27.0468 29.696 27.8471 29.3188 28.5874C28.7196 29.7635 27.7635 30.7196 26.5874 31.3188C25.8471 31.696 25.0468 31.8533 24.1358 31.9277C23.2509 32 22.1583 32 20.8035 32H15.1965C13.8417 32 12.7491 32 11.8642 31.9277C10.9532 31.8533 10.1529 31.696 9.41256 31.3188C8.23655 30.7196 7.28042 29.7635 6.68121 28.5874C6.30398 27.8471 6.14671 27.0468 6.07227 26.1358C5.99998 25.2509 5.99999 24.1582 6 22.8035V14.1965C5.99999 12.8418 5.99998 11.7491 6.07227 10.8642C6.14671 9.95316 6.30398 9.15292 6.68121 8.41256C7.28042 7.23655 8.23655 6.28042 9.41256 5.68121C9.90959 5.42796 10.4336 5.27385 11 5.17738V4.5C11 3.80964 11.5596 3.25 12.25 3.25ZM15.25 7.5H16.75V8C16.75 8.69036 17.3096 9.25 18 9.25C18.6904 9.25 19.25 8.69036 19.25 8V7.5H20.75C21.4222 7.5 21.9981 7.50022 22.5 7.50712V8C22.5 8.69036 23.0596 9.25 23.75 9.25C24.4404 9.25 25 8.69036 25 8V7.73469C25.1761 7.78448 25.3225 7.84251 25.4525 7.90873C26.1581 8.26825 26.7317 8.84193 27.0913 9.54754C27.259 9.87673 27.3742 10.3113 27.436 11.0678C27.499 11.8389 27.5 12.8292 27.5 14.25V22.75C27.5 24.1708 27.499 25.1611 27.436 25.9322C27.3742 26.6887 27.259 27.1233 27.0913 27.4525C26.7317 28.1581 26.1581 28.7317 25.4525 29.0913C25.1233 29.259 24.6887 29.3742 23.9322 29.436C23.1611 29.499 22.1708 29.5 20.75 29.5H15.25C13.8292 29.5 12.8389 29.499 12.0678 29.436C11.3113 29.3742 10.8767 29.259 10.5475 29.0913C9.84193 28.7317 9.26825 28.1581 8.90873 27.4525C8.74099 27.1233 8.62578 26.6887 8.56397 25.9322C8.50097 25.1611 8.5 24.1708 8.5 22.75V14.25C8.5 12.8292 8.50097 11.8389 8.56397 11.0678C8.62578 10.3113 8.74099 9.87673 8.90873 9.54754C9.26825 8.84193 9.84193 8.26825 10.5475 7.90873C10.6775 7.84251 10.8239 7.78448 11 7.73469V8C11 8.69036 11.5596 9.25 12.25 9.25C12.9404 9.25 13.5 8.69036 13.5 8V7.50712C14.0019 7.50022 14.5778 7.5 15.25 7.5Z" fill="currentColor"/>
</svg>
