<svg width="36" height="36" viewBox="0 0 36 36" fill="none" xmlns="http://www.w3.org/2000/svg"><path fill-rule="evenodd" clip-rule="evenodd" d="M28.61 27.96a4.24 4.24 0 0 1-2.806 1.448c-4.182.563-8.569-1.452-13.164-6.048-4.595-4.595-6.611-8.983-6.048-13.165.03-.327.097-.65.203-.96A4.24 4.24 0 0 1 8.04 7.39c1.538-1.308 3.803-1.157 5.06.338l1.1 1.309c1.526 1.809 1.368 4.534-.362 6.265l-.94.938a.91.91 0 0 0-.21.957c.342.934 1.214 2.101 2.614 3.501 1.401 1.402 2.569 2.273 3.501 2.616a.91.91 0 0 0 .957-.212l.938-.938c1.73-1.73 4.455-1.89 6.266-.367l1.309 1.103c1.493 1.257 1.645 3.523.336 5.06zm1.273-6.972c2.612 2.199 2.787 6.06.63 8.593l-.006.006a6.788 6.788 0 0 1-4.414 2.304c-5.284.693-10.393-1.934-15.22-6.763-4.826-4.826-7.455-9.934-6.765-15.215.05-.504.156-1 .319-1.48a6.78 6.78 0 0 1 1.988-2.942l.006-.006c2.532-2.153 6.392-1.983 8.592.634l1.1 1.307c2.406 2.855 2.09 7.045-.508 9.644l-.09.09c.322.445.817 1.033 1.555 1.77.737.738 1.325 1.234 1.771 1.556l.09-.09c2.598-2.598 6.785-2.914 9.642-.512l1.31 1.104z" fill="currentColor"/></svg>
