<svg fill="none" height="36" viewBox="0 0 36 36" width="36" xmlns="http://www.w3.org/2000/svg"><path d="m21.1675 22.8885c2.0313-2.0315 5.229-2.2187 7.3554-.431l1.5364 1.2944c1.7534 1.4756 1.9317 4.1356.3953 5.9397-.838.9694-2.0174 1.5783-3.2929 1.7001-4.9095.6612-10.0597-1.7045-15.4536-7.0989-5.39396-5.3944-7.76105-10.5465-7.09981-15.45494.03436-.38405.11417-.76267.23775-1.12791.28594-.83904.79071-1.58651 1.46215-2.16518 1.80541-1.53509 4.46371-1.35825 5.93931.39678l1.2927 1.53657c1.7906 2.12357 1.6048 5.32308-.4264 7.35448l-1.1026 1.1012c-.294.2945-.3902.7328-.2467 1.1234.4012 1.0967 1.425 2.4669 3.0685 4.1104 1.6449 1.6451 3.0149 2.6675 4.1101 3.0702.3908.1432.8292.0463 1.1233-.2482z" fill="currentColor"/></svg>
