<svg fill="none" height="36" viewBox="0 0 36 36" width="36" xmlns="http://www.w3.org/2000/svg"><path d="m31.9964 6.30381.006.12475v2.70319c0 2.00905-1.3041 3.77575-3.2036 4.37775l-.2058.06-4.0958 1.1475.001 7.0864v3.1315c0 5.9973-5.855 9.0789-9.0327 5.9011-1.4081-1.4081-1.5832-3.7846-.4105-5.6932 1.2183-1.9827 3.6329-3.196 6.9425-3.3275l.0008-10.3333c-.0346-2.45599 1.16-4.19825 3.426-4.95358l.2471-.07879c.8997-.27594 2.3493-.68545 4.8056-1.24035.7406-.16731 1.4471.35737 1.5194 1.09453zm-9.9992 18.01369-.0228.0008c-2.4527.1186-4.0532.9352-4.7894 2.1333-.5892.9589-.508 2.0604.0483 2.6167 1.4935 1.4935 4.7649-.2283 4.7649-4.1334zm-11.2472-2.3175c.6904 0 1.25.5596 1.25 1.25 0 .6903-.5596 1.25-1.25 1.25h-5.5c-.69036 0-1.25-.5597-1.25-1.25 0-.6904.55964-1.25 1.25-1.25zm6-8c.6904 0 1.25.5596 1.25 1.25 0 .6903-.5596 1.25-1.25 1.25h-11.5c-.69036 0-1.25-.5597-1.25-1.25 0-.6904.55964-1.25 1.25-1.25zm12.7522-6.00301-.9623.22887c-1.231.29656-1.8702.52267-2.325.67427-1.1559.38529-1.6827 1.08849-1.7156 2.35897l-.0011.2053-.001.6656 3.4516-.9761c.8623-.2299 1.4777-.9784 1.5471-1.85616l.0065-.16599zm-10.7522-1.997c.6904 0 1.25.55964 1.25 1.25s-.5596 1.25-1.25 1.25h-13.5c-.69036 0-1.25-.55964-1.25-1.25s.55964-1.25 1.25-1.25z" fill="currentColor"/></svg>
