<svg fill="none" height="36" viewBox="0 0 36 36" width="36" xmlns="http://www.w3.org/2000/svg"><g fill="currentColor"><path d="m8.25 21c0 1.1046-.89543 2-2 2s-2-.8954-2-2v-5c0-.9527.66617-1.7499 1.55813-1.951.60348-6.20183 5.83157-11.049 12.19187-11.049s11.5884 4.84717 12.1919 11.049c.8919.2011 1.5581.9983 1.5581 1.951v5c0 1.1046-.8954 2-2 2s-2-.8954-2-2v-5.75c0-5.38478-4.3652-9.75-9.75-9.75s-9.75 4.36522-9.75 9.75z"/><path clip-rule="evenodd" d="m25 15.25c0-3.866-3.134-7-7-7s-7 3.134-7 7v7c0 3.4393 2.4804 6.2993 5.75 6.8887v2.7413c0 .6186.5014 1.12 1.12 1.12h.26c.6186 0 1.12-.5014 1.12-1.12v-2.7413c3.2696-.5894 5.75-3.4494 5.75-6.8887zm-11.4932-.25c.1297-2.369 2.0918-4.25 4.4932-4.25s4.3635 1.881 4.4932 4.25h-.6232c-.6904 0-1.25.5596-1.25 1.25s.5596 1.25 1.25 1.25h.63v2.5h-.63c-.6904 0-1.25.5596-1.25 1.25s.5596 1.25 1.25 1.25h.6232c-.1297 2.369-2.0918 4.25-4.4932 4.25s-4.3635-1.881-4.4932-4.25h2.2432c.6904 0 1.25-.5596 1.25-1.25s-.5596-1.25-1.25-1.25h-2.25v-2.5h2.25c.6904 0 1.25-.5596 1.25-1.25s-.5596-1.25-1.25-1.25z" fill-rule="evenodd"/></g></svg>
