<svg fill="none" height="36" viewBox="0 0 36 36" width="36" xmlns="http://www.w3.org/2000/svg"><g fill="currentColor"><path d="m12.9382 21.1245c-.4712.4394-.497 1.1777-.0575 1.6489 2.6366 2.8274 7.066 2.9821 9.8934.3455.1184-.1104.2325-.2244.3424-.3418.4402-.4706.4155-1.2089-.055-1.649-.4706-.4402-1.2089-.4155-1.649.055-.0736.0787-.1502.1552-.2297.2293-1.8849 1.7577-4.8379 1.6546-6.5956-.2303-.4395-.4713-1.1777-.497-1.649-.0576z"/><path d="m21.9375 17.125c1.047 0 1.8958-.8488 1.8958-1.8958 0-1.0471-.8488-1.8959-1.8958-1.8959s-1.8958.8488-1.8958 1.8959c0 1.047.8488 1.8958 1.8958 1.8958z"/><path d="m15.9583 15.2292c0 1.047-.8488 1.8958-1.8958 1.8958s-1.8958-.8488-1.8958-1.8958c0-1.0471.8488-1.8959 1.8958-1.8959s1.8958.8488 1.8958 1.8959z"/><path clip-rule="evenodd" d="m18 3c8.2843 0 15 6.71573 15 15 0 8.2843-6.7157 15-15 15-8.28427 0-15-6.7157-15-15 0-8.28427 6.71573-15 15-15zm0 2.5c-6.9036 0-12.5 5.5964-12.5 12.5s5.5964 12.5 12.5 12.5 12.5-5.5964 12.5-12.5-5.5964-12.5-12.5-12.5z" fill-rule="evenodd"/></g></svg>
