<svg width="36" height="36" viewBox="0 0 36 36" fill="none" xmlns="http://www.w3.org/2000/svg">
<path d="M27.4933 4.11997L27.5 4.25047V6.94102C27.5 8.96832 26.1756 10.7477 24.2543 11.3401L24.0462 11.399L19.5 12.5715L19.5 22.65L19.5039 22.6509V25.7886L19.5 26.031L19.5006 26.3505C19.5006 26.4569 19.4873 26.5602 19.4623 26.6589C18.9328 32.0925 13.5059 34.7342 10.4782 31.7065C9.06685 30.2951 8.89129 27.9128 10.0669 25.9995C11.2849 24.0172 13.6957 22.8018 17.0001 22.664L17.0007 9.32071C16.966 6.8583 18.1635 5.11188 20.4353 4.35462L20.6754 4.27856C21.595 3.99972 23.351 3.58768 25.9906 3.02768C26.7248 2.87191 27.4185 3.39216 27.4933 4.11997ZM17 25.165L16.7022 25.1844C14.411 25.3539 12.9055 26.1551 12.197 27.3083C11.6049 28.2719 11.6865 29.3792 12.246 29.9388C13.721 31.4138 16.9026 29.766 17.0015 25.9707L17 25.165ZM25 5.79747L23.4095 6.1573C22.3541 6.40327 21.6226 6.59407 21.2259 6.72632C20.0645 7.11345 19.5349 7.8205 19.5017 9.09681L19.5 9.98947L23.4216 8.9783C24.2961 8.75267 24.9226 7.99709 24.9933 7.109L25 6.94102V5.79747Z" fill="currentColor"/>
</svg>
