<svg width="36" height="36" viewBox="0 0 36 36" fill="none" xmlns="http://www.w3.org/2000/svg">
<path fill-rule="evenodd" clip-rule="evenodd" d="M7.94645 5.03037C9.35002 4.27973 10.7331 4 13.8893 4H22.1107C25.2669 4 26.65 4.27973 28.0535 5.03037C29.3075 5.70097 30.299 6.69253 30.9696 7.94645C31.7203 9.35002 32 10.7331 32 13.8893V22.1107C32 25.2669 31.7203 26.65 30.9696 28.0535C30.299 29.3075 29.3075 30.299 28.0535 30.9696C26.65 31.7203 25.2669 32 22.1107 32H13.8893C10.7331 32 9.35002 31.7203 7.94645 30.9696C6.69253 30.299 5.70097 29.3075 5.03037 28.0535C4.27973 26.65 4 25.2669 4 22.1107V13.8893C4 10.7331 4.27973 9.35002 5.03037 7.94645C5.70097 6.69253 6.69253 5.70097 7.94645 5.03037ZM13.8893 6.5C10.876 6.5 9.98676 6.77427 9.12545 7.2349C8.3072 7.67251 7.67251 8.3072 7.2349 9.12545C6.77427 9.98676 6.5 10.876 6.5 13.8893V22.1107C6.5 25.124 6.77427 26.0132 7.2349 26.8745C7.67251 27.6928 8.3072 28.3275 9.12545 28.7651C9.98676 29.2257 10.876 29.5 13.8893 29.5H22.1107C25.124 29.5 26.0132 29.2257 26.8745 28.7651C27.6928 28.3275 28.3275 27.6928 28.7651 26.8745C29.2257 26.0132 29.5 25.124 29.5 22.1107V13.8893C29.5 10.876 29.2257 9.98676 28.7651 9.12545C28.3275 8.3072 27.6928 7.67251 26.8745 7.2349C26.0132 6.77427 25.124 6.5 22.1107 6.5H13.8893Z" fill="currentColor"/>
<path fill-rule="evenodd" clip-rule="evenodd" d="M18 13.75C15.6528 13.75 13.75 15.6528 13.75 18C13.75 20.3472 15.6528 22.25 18 22.25C20.3472 22.25 22.25 20.3472 22.25 18C22.25 15.6528 20.3472 13.75 18 13.75ZM11.25 18C11.25 14.2721 14.2721 11.25 18 11.25C21.7279 11.25 24.75 14.2721 24.75 18C24.75 21.7279 21.7279 24.75 18 24.75C14.2721 24.75 11.25 21.7279 11.25 18Z" fill="currentColor"/>
</svg>
