<svg fill="none" height="36" viewBox="0 0 36 36" width="36" xmlns="http://www.w3.org/2000/svg"><g fill="currentColor"><path clip-rule="evenodd" d="m7.94645 5.03037c1.40357-.75064 2.78665-1.03037 5.94285-1.03037h8.2214c3.1562 0 4.5393.27973 5.9428 1.03037 1.254.6706 2.2455 1.66216 2.9161 2.91608.7507 1.40357 1.0304 2.78665 1.0304 5.94285v8.2214c0 3.1562-.2797 4.5393-1.0304 5.9428-.6706 1.254-1.6621 2.2455-2.9161 2.9161-1.4035.7507-2.7866 1.0304-5.9428 1.0304h-8.2214c-3.1562 0-4.53928-.2797-5.94285-1.0304-1.25392-.6706-2.24548-1.6621-2.91608-2.9161-.75064-1.4035-1.03037-2.7866-1.03037-5.9428v-8.2214c0-3.1562.27973-4.53928 1.03037-5.94285.6706-1.25392 1.66216-2.24548 2.91608-2.91608zm5.94285 1.46963c-3.0133 0-3.90254.27427-4.76385.7349-.81825.43761-1.45294 1.0723-1.89055 1.89055-.46063.86131-.7349 1.75055-.7349 4.76385v8.2214c0 3.0133.27427 3.9025.7349 4.7638.43761.8183 1.0723 1.453 1.89055 1.8906.86131.4606 1.75055.7349 4.76385.7349h8.2214c3.0133 0 3.9025-.2743 4.7638-.7349.8183-.4376 1.453-1.0723 1.8906-1.8906.4606-.8613.7349-1.7505.7349-4.7638v-8.2214c0-3.0133-.2743-3.90254-.7349-4.76385-.4376-.81825-1.0723-1.45294-1.8906-1.89055-.8613-.46063-1.7505-.7349-4.7638-.7349z" fill-rule="evenodd"/><path d="m12 25.25c0-.6904.5596-1.25 1.25-1.25s1.25.5596 1.25 1.25v5.5c0 .6904-.5596 1.25-1.25 1.25s-1.25-.5596-1.25-1.25z"/><path d="m21.5 25.25c0-.6904.5596-1.25 1.25-1.25s1.25.5596 1.25 1.25v5.5c0 .6904-.5596 1.25-1.25 1.25s-1.25-.5596-1.25-1.25z"/><path d="m9.5 18.25c0-.6904.5596-1.25 1.25-1.25h14.5c.6904 0 1.25.5596 1.25 1.25s-.5596 1.25-1.25 1.25h-14.5c-.6904 0-1.25-.5596-1.25-1.25z"/><path d="m9.5 12.25c0-.6904.5596-1.25 1.25-1.25h14.5c.6904 0 1.25.5596 1.25 1.25s-.5596 1.25-1.25 1.25h-14.5c-.6904 0-1.25-.5596-1.25-1.25z"/></g></svg>
