<svg xmlns="http://www.w3.org/2000/svg" width="36" height="36" fill="none" viewBox="0 0 36 36"><path fill="currentColor" fill-rule="evenodd" d="M32 26c0 4.4183-3.5817 8-8 8s-8-3.5817-8-8 3.5817-8 8-8 8 3.5817 8 8Zm-4.2249-2.0293-2.1507-.2111-.947-2.2348c-.2964-.6996-1.0562-.6999-1.3529 0l-.9474 2.2348-2.1504.2111c-.7515.0738-.9801.8193-.3998 1.3128l1.6838 1.4318-.6251 2.3325c-.2053.7661.4341 1.2279 1.0695.7687l2.0459-1.4786 2.0459 1.4786c.6379.461 1.2748-.0027 1.0695-.7687l-.6251-2.3325 1.6838-1.4318c.5779-.4914.3484-1.2393-.4-1.3128ZM18 5.5c-2.3484 0-4.25 1.9016-4.25 4.25S15.6516 14 18 14s4.25-1.9016 4.25-4.25S20.3484 5.5 18 5.5Zm-6.75 4.25C11.25 6.0209 14.2709 3 18 3s6.75 3.0209 6.75 6.75S21.7291 16.5 18 16.5s-6.75-3.0209-6.75-6.75Zm3.5855 10.4651c.1561.6724-.2626 1.3441-.935 1.5002-1.4629.3396-2.7937.8689-3.7329 1.6089-.9008.7097-1.4176 1.5843-1.4176 2.7472 0 .4809.036.7921.0824.989.0178.0753.035.1246.0474.1549.0613.0138.1995.0347.4731.0347H12.52c.6904 0 1.25.5596 1.25 1.25s-.5596 1.25-1.25 1.25H9.353c-.6339 0-1.6133-.0509-2.317-.829-.6502-.7191-.786-1.762-.786-2.8496 0-2.0707.9889-3.6224 2.3704-4.7109 1.343-1.0582 3.0711-1.6989 4.7148-2.0804.6725-.1561 1.3442.2625 1.5003.935Zm-5.9971 6.9883.0018.0008Zm.0605.0512.0009.0012Z" clip-rule="evenodd"/></svg>
