<svg width="36" height="36" viewBox="0 0 36 36" fill="none" xmlns="http://www.w3.org/2000/svg">
<path fill-rule="evenodd" clip-rule="evenodd" d="M9.94645 4.03037C11.3478 3.2809 12.7366 3 15.844 3H20.156C23.2634 3 24.6522 3.2809 26.0535 4.03037C27.3075 4.70097 28.299 5.69253 28.9696 6.94645C29.7191 8.34784 30 9.73656 30 12.844V23.156C30 26.2634 29.7191 27.6522 28.9696 29.0535C28.299 30.3075 27.3075 31.299 26.0535 31.9696C24.6522 32.7191 23.2634 33 20.156 33H15.844C12.7366 33 11.3478 32.7191 9.94645 31.9696C8.69253 31.299 7.70097 30.3075 7.03037 29.0535C6.2809 27.6522 6 26.2634 6 23.156V12.844C6 9.73656 6.2809 8.34784 7.03037 6.94645C7.70097 5.69253 8.69253 4.70097 9.94645 4.03037ZM10 9C10 8.44772 10.4477 8 11 8H13C13.5523 8 14 8.44772 14 9V11C14 11.5523 13.5523 12 13 12H11C10.4477 12 10 11.5523 10 11V9ZM11 16C10.4477 16 10 16.4477 10 17V19C10 19.5523 10.4477 20 11 20H13C13.5523 20 14 19.5523 14 19V17C14 16.4477 13.5523 16 13 16H11ZM10 25C10 24.4477 10.4477 24 11 24H13C13.5523 24 14 24.4477 14 25V27C14 27.5523 13.5523 28 13 28H11C10.4477 28 10 27.5523 10 27V25ZM23 24C22.4477 24 22 24.4477 22 25V27C22 27.5523 22.4477 28 23 28H25C25.5523 28 26 27.5523 26 27V25C26 24.4477 25.5523 24 25 24H23ZM22 17C22 16.4477 22.4477 16 23 16H25C25.5523 16 26 16.4477 26 17V19C26 19.5523 25.5523 20 25 20H23C22.4477 20 22 19.5523 22 19V17ZM23 8C22.4477 8 22 8.44772 22 9V11C22 11.5523 22.4477 12 23 12H25C25.5523 12 26 11.5523 26 11V9C26 8.44772 25.5523 8 25 8H23Z" fill="currentColor"/>
</svg>
