<svg width="36" height="36" viewBox="0 0 36 36" fill="none" xmlns="http://www.w3.org/2000/svg">
<path fill-rule="evenodd" clip-rule="evenodd" d="M8.94645 4.03037C10.3478 3.2809 11.7366 3 14.844 3H21.156C24.2634 3 25.6522 3.2809 27.0535 4.03037C28.3075 4.70097 29.299 5.69253 29.9696 6.94645C30.7191 8.34784 31 9.73656 31 12.844V23.156C31 26.2634 30.7191 27.6522 29.9696 29.0535C29.299 30.3075 28.3075 31.299 27.0535 31.9696C25.6522 32.7191 24.2634 33 21.156 33H14.844C11.7366 33 10.3478 32.7191 8.94645 31.9696C7.69253 31.299 6.70097 30.3075 6.03037 29.0535C5.2809 27.6522 5 26.2634 5 23.156V12.844C5 9.73656 5.2809 8.34784 6.03037 6.94645C6.70097 5.69253 7.69253 4.70097 8.94645 4.03037ZM9 9C9 8.44772 9.44772 8 10 8H12C12.5523 8 13 8.44772 13 9V11C13 11.5523 12.5523 12 12 12H10C9.44772 12 9 11.5523 9 11V9ZM10 16C9.44772 16 9 16.4477 9 17V19C9 19.5523 9.44772 20 10 20H12C12.5523 20 13 19.5523 13 19V17C13 16.4477 12.5523 16 12 16H10ZM9 25C9 24.4477 9.44772 24 10 24H12C12.5523 24 13 24.4477 13 25V27C13 27.5523 12.5523 28 12 28H10C9.44772 28 9 27.5523 9 27V25ZM24 24C23.4477 24 23 24.4477 23 25V27C23 27.5523 23.4477 28 24 28H26C26.5523 28 27 27.5523 27 27V25C27 24.4477 26.5523 24 26 24H24ZM23 17C23 16.4477 23.4477 16 24 16H26C26.5523 16 27 16.4477 27 17V19C27 19.5523 26.5523 20 26 20H24C23.4477 20 23 19.5523 23 19V17ZM24 8C23.4477 8 23 8.44772 23 9V11C23 11.5523 23.4477 12 24 12H26C26.5523 12 27 11.5523 27 11V9C27 8.44772 26.5523 8 26 8H24Z" fill="currentColor"/>
</svg>
