<svg width="20" height="20" viewBox="0 0 20 20" fill="none" xmlns="http://www.w3.org/2000/svg">
<path fill-rule="evenodd" clip-rule="evenodd" d="M7.14132 1.99997C7.16783 1.99999 7.19466 2.00001 7.22184 2.00001H12.7783C12.8054 2.00001 12.8323 1.99999 12.8588 1.99997C13.3215 1.99968 13.6857 1.99944 14.0336 2.09148C14.3399 2.17254 14.63 2.30595 14.8909 2.48581C15.1872 2.69004 15.424 2.96666 15.7249 3.31823C15.7422 3.33837 15.7596 3.35875 15.7773 3.37938L17.0491 4.86314C17.0633 4.87971 17.0774 4.89608 17.0912 4.91224C17.3356 5.19709 17.5281 5.4214 17.6686 5.681C17.7925 5.9099 17.8832 6.15523 17.9381 6.40963C18.0004 6.69817 18.0003 6.99373 18.0001 7.36907C18.0001 7.39037 18 7.41193 18 7.43376V12.4821C18.0001 13.295 18.0001 13.9506 17.9567 14.4815C17.912 15.0281 17.8177 15.5083 17.5913 15.9525C17.2318 16.6581 16.6581 17.2318 15.9525 17.5913C15.5083 17.8176 15.0281 17.912 14.4815 17.9566C13.9506 18 13.295 18 12.4822 18H7.51792C6.70509 18 6.04948 18 5.51858 17.9566C4.97194 17.912 4.4918 17.8176 4.04758 17.5913C3.34197 17.2318 2.76829 16.6581 2.40877 15.9525C2.18243 15.5083 2.08807 15.0281 2.04341 14.4815C2.00003 13.9506 2.00004 13.295 2.00004 12.4821L2.00004 7.43376C2.00004 7.41193 2.00003 7.39037 2.00002 7.36907C1.99983 6.99373 1.99967 6.69817 2.06195 6.40963C2.11687 6.15522 2.20762 5.9099 2.33149 5.681C2.47198 5.4214 2.66444 5.19709 2.90886 4.91224C2.92273 4.89607 2.93677 4.87971 2.95098 4.86314L4.22277 3.37938C4.24046 3.35875 4.25791 3.33836 4.27514 3.31823C4.57609 2.96666 4.8129 2.69003 5.10917 2.48581C5.3701 2.30595 5.66016 2.17254 5.96653 2.09148C6.3144 1.99944 6.67854 1.99968 7.14132 1.99997ZM7.22184 3.50001C6.64066 3.50001 6.4853 3.50584 6.35019 3.54159C6.21093 3.57843 6.07909 3.63907 5.96048 3.72083C5.84542 3.80014 5.73988 3.91431 5.36166 4.35557L4.08987 5.83932C3.78403 6.19613 3.70536 6.29392 3.6507 6.39492C3.59439 6.49897 3.55314 6.61048 3.52818 6.72612C3.50395 6.83838 3.50004 6.96382 3.50004 7.43376V12.45C3.50004 13.3025 3.50063 13.8967 3.53843 14.3593C3.57551 14.8132 3.64464 15.074 3.74528 15.2715C3.96099 15.6948 4.3052 16.0391 4.72857 16.2548C4.92608 16.3554 5.18685 16.4245 5.64072 16.4616C6.10336 16.4994 6.69759 16.5 7.55004 16.5H12.45C13.3025 16.5 13.8967 16.4994 14.3594 16.4616C14.8132 16.4245 15.074 16.3554 15.2715 16.2548C15.6949 16.0391 16.0391 15.6948 16.2548 15.2715C16.3554 15.074 16.4246 14.8132 16.4617 14.3593C16.4995 13.8967 16.5 13.3025 16.5 12.45V7.43376C16.5 6.96382 16.4961 6.83838 16.4719 6.72612C16.4469 6.61048 16.4057 6.49897 16.3494 6.39492C16.2947 6.29392 16.2161 6.19613 15.9102 5.83932L14.6384 4.35557C14.2602 3.91431 14.1547 3.80014 14.0396 3.72083C13.921 3.63907 13.7892 3.57843 13.6499 3.54159C13.5148 3.50584 13.3594 3.50001 12.7783 3.50001H7.22184ZM10 7.00001C10.4143 7.00001 10.75 7.33579 10.75 7.75001V10.4393L11.7197 9.46968C12.0126 9.17678 12.4875 9.17678 12.7804 9.46968C13.0733 9.76257 13.0733 10.2374 12.7804 10.5303L10.5304 12.7803C10.3897 12.921 10.199 13 10 13C9.80113 13 9.61037 12.921 9.46971 12.7803L7.21971 10.5303C6.92682 10.2374 6.92682 9.76257 7.21971 9.46968C7.51261 9.17678 7.98748 9.17678 8.28037 9.46968L9.25004 10.4393L9.25004 7.75001C9.25004 7.33579 9.58583 7.00001 10 7.00001Z" fill="currentColor"/>
</svg>
