<svg width="20" height="20" viewBox="0 0 20 20" fill="currentColor" xmlns="http://www.w3.org/2000/svg">
<path fill-rule="evenodd" clip-rule="evenodd" d="M7.49388 2.54909C7.28789 2.49926 7.07725 2.49964 6.88041 2.49998L6.83191 2.50004L5.41859 2.50004C4.88444 2.50003 4.43859 2.50002 4.07435 2.52978C3.69447 2.56082 3.33781 2.62793 3.00055 2.79977C2.4831 3.06342 2.06241 3.48412 1.79876 4.00157C1.62691 4.33883 1.5598 4.69548 1.52876 5.07537C1.499 5.4396 1.49901 5.88545 1.49902 6.4196L1.49902 6.45004L1.49902 13.5805C1.49901 14.1146 1.499 14.5605 1.52876 14.9247C1.5598 15.3046 1.62691 15.6613 1.79876 15.9985C2.06241 16.516 2.4831 16.9367 3.00055 17.2003C3.33781 17.3722 3.69447 17.4393 4.07435 17.4703C4.43858 17.5001 4.88443 17.5 5.41857 17.5H14.5813C15.1155 17.5 15.5613 17.5001 15.9255 17.4703C16.3054 17.4393 16.6621 17.3722 16.9993 17.2003C17.5168 16.9367 17.9375 16.516 18.2011 15.9985C18.373 15.6613 18.4401 15.3046 18.4711 14.9247C18.5009 14.5605 18.5009 14.1146 18.5009 13.5804V8.44259C18.5009 7.90841 18.5009 7.46253 18.4711 7.09828C18.4401 6.7184 18.373 6.36174 18.2011 6.02448C17.9375 5.50703 17.5168 5.08634 16.9993 4.82269C16.6621 4.65084 16.3054 4.58373 15.9255 4.55269C15.5613 4.52293 15.1154 4.52294 14.5813 4.52295L10.1681 4.52295C10.0383 4.52295 9.96571 4.52277 9.91077 4.52024C9.87664 4.51867 9.86249 4.51661 9.85878 4.51595C9.83309 4.50973 9.80856 4.49949 9.78608 4.48559L9.74647 4.45164C9.70605 4.41435 9.65491 4.36288 9.56363 4.27056L8.50305 3.19783L8.469 3.1633C8.33085 3.02308 8.18303 2.87303 8.00276 2.76158C7.84543 2.6643 7.67367 2.59258 7.49388 2.54909ZM6.83191 4.00004C6.96174 4.00004 7.03429 4.00022 7.08923 4.00275C7.12336 4.00432 7.13751 4.00638 7.14122 4.00705C7.16691 4.01326 7.19144 4.0235 7.21392 4.0374C7.21 4.03498 7.21821 4.03877 7.25353 4.07136C7.29396 4.10864 7.34509 4.16011 7.43637 4.25243L8.49695 5.32516L8.531 5.35969C8.66915 5.49991 8.81698 5.64996 8.99724 5.76142C9.15457 5.85869 9.32633 5.93041 9.50612 5.9739C9.71212 6.02373 9.92275 6.02336 10.1196 6.02301L10.1681 6.02295H14.5509C15.1233 6.02295 15.5075 6.02354 15.8034 6.04771C16.0905 6.07117 16.2278 6.11305 16.3183 6.15919C16.5535 6.27904 16.7448 6.47026 16.8646 6.70546C16.9108 6.79603 16.9526 6.93331 16.9761 7.22043C17.0003 7.51631 17.0009 7.90052 17.0009 8.47295V13.55C17.0009 14.1225 17.0003 14.5067 16.9761 14.8026C16.9526 15.0897 16.9108 15.227 16.8646 15.3175C16.7448 15.5527 16.5535 15.744 16.3183 15.8638C16.2278 15.9099 16.0905 15.9518 15.8034 15.9753C15.5075 15.9995 15.1233 16 14.5509 16H5.44902C4.8766 16 4.49238 15.9995 4.1965 15.9753C3.90938 15.9518 3.7721 15.9099 3.68154 15.8638C3.44633 15.744 3.25511 15.5527 3.13527 15.3175C3.08912 15.227 3.04724 15.0897 3.02378 14.8026C2.99961 14.5067 2.99902 14.1225 2.99902 13.55V6.45004C2.99902 5.87761 2.99961 5.4934 3.02378 5.19752C3.04724 4.91039 3.08912 4.77311 3.13527 4.68255C3.25511 4.44735 3.44633 4.25612 3.68154 4.13628C3.7721 4.09014 3.90938 4.04826 4.1965 4.0248C4.49238 4.00062 4.8766 4.00004 5.44902 4.00004H6.83191Z"/>
</svg>
