<svg width="20" height="20" viewBox="0 0 20 20" fill="currentColor" xmlns="http://www.w3.org/2000/svg">
<path fill-rule="evenodd" clip-rule="evenodd" d="M1.5 14.75C1.5 14.3358 1.83579 14 2.25 14L7.43934 14L5.71967 12.2804C5.42678 11.9875 5.42678 11.5126 5.71967 11.2197C6.01257 10.9268 6.48744 10.9268 6.78033 11.2197L9.78033 14.2197C10.0732 14.5126 10.0732 14.9875 9.78033 15.2804L6.78033 18.2804C6.48744 18.5732 6.01257 18.5732 5.71967 18.2804C5.42678 17.9875 5.42678 17.5126 5.71967 17.2197L7.43935 15.5L2.25 15.5C1.83579 15.5 1.5 15.1642 1.5 14.75Z" fill="currentColor"/>
<path d="M6.83191 4.00006C6.96174 4.00006 7.03429 4.00024 7.08923 4.00277C7.12336 4.00434 7.13751 4.0064 7.14122 4.00707C7.16691 4.01328 7.19144 4.02353 7.21392 4.03742C7.21 4.035 7.21821 4.03879 7.25353 4.07138C7.29396 4.10867 7.34509 4.16013 7.43637 4.25245L8.49695 5.32518L8.531 5.35971C8.66915 5.49994 8.81698 5.64998 8.99724 5.76144C9.15457 5.85872 9.32633 5.93043 9.50612 5.97392C9.71212 6.02375 9.92275 6.02338 10.1196 6.02303L10.1681 6.02298H14.5509C15.1233 6.02298 15.5075 6.02356 15.8034 6.04773C16.0905 6.07119 16.2278 6.11307 16.3183 6.15922C16.5535 6.27906 16.7448 6.47029 16.8646 6.70549C16.9108 6.79605 16.9526 6.93333 16.9761 7.22045C17.0003 7.51633 17.0009 7.90055 17.0009 8.47298V13.5501C17.0009 14.1225 17.0003 14.5067 16.9761 14.8026C16.9526 15.0897 16.9108 15.227 16.8646 15.3175C16.7448 15.5528 16.5535 15.744 16.3183 15.8638C16.2278 15.91 16.0905 15.9518 15.8034 15.9753C15.5075 15.9995 15.1233 16.0001 14.5509 16.0001H11.5C11.0858 16.0001 10.75 16.3358 10.75 16.7501C10.75 17.1643 11.0858 17.5001 11.5 17.5001H14.5813C15.1155 17.5001 15.5613 17.5001 15.9255 17.4703C16.3054 17.4393 16.6621 17.3722 16.9993 17.2003C17.5168 16.9367 17.9375 16.516 18.2011 15.9985C18.373 15.6613 18.4401 15.3046 18.4711 14.9247C18.5009 14.5605 18.5009 14.1146 18.5009 13.5804V8.44262C18.5009 7.90843 18.5009 7.46256 18.4711 7.09831C18.4401 6.71842 18.373 6.36176 18.2011 6.0245C17.9375 5.50706 17.5168 5.08636 16.9993 4.82271C16.6621 4.65086 16.3054 4.58375 15.9255 4.55271C15.5613 4.52296 15.1154 4.52296 14.5813 4.52298L10.1681 4.52298C10.0383 4.52298 9.96571 4.52279 9.91077 4.52027C9.87664 4.51869 9.86249 4.51664 9.85878 4.51597C9.83337 4.50982 9.80925 4.49987 9.78697 4.4862L9.74647 4.45166C9.70605 4.41437 9.65491 4.36291 9.56363 4.27058L8.50305 3.19785L8.469 3.16333C8.33085 3.0231 8.18303 2.87306 8.00276 2.7616C7.84543 2.66432 7.67367 2.5926 7.49388 2.54912C7.28789 2.49929 7.07725 2.49966 6.88041 2.5L6.83191 2.50006L5.41859 2.50006C4.88444 2.50005 4.43859 2.50004 4.07435 2.5298C3.69447 2.56084 3.33781 2.62795 3.00055 2.79979C2.4831 3.06345 2.06241 3.48414 1.79876 4.00159C1.62691 4.33885 1.5598 4.69551 1.52876 5.07539C1.499 5.43963 1.49901 5.88547 1.49902 6.41963L1.49902 11.75C1.49902 12.1642 1.83481 12.5 2.24902 12.5C2.66324 12.5 2.99902 12.1642 2.99902 11.75V6.45006C2.99902 5.87763 2.99961 5.49342 3.02378 5.19754C3.04724 4.91042 3.08912 4.77313 3.13527 4.68257C3.25511 4.44737 3.44633 4.25615 3.68154 4.1363C3.7721 4.09016 3.90938 4.04828 4.1965 4.02482C4.49238 4.00065 4.8766 4.00006 5.44902 4.00006H6.83191Z" fill="currentColor"/>
</svg>
