<svg width="20" height="20" viewBox="0 0 20 20" fill="none" xmlns="http://www.w3.org/2000/svg">
<path fill-rule="evenodd" clip-rule="evenodd" d="M8.31739 2H11.6826C12.6351 1.99999 13.3956 1.99999 14.0099 2.05018C14.6399 2.10165 15.1818 2.20963 15.6795 2.46322C16.4791 2.87068 17.1293 3.52085 17.5368 4.32054C17.7904 4.81824 17.8984 5.36012 17.9498 5.99013C18 6.60439 18 7.36493 18 8.31737V10.25C18 10.6642 17.6642 11 17.25 11C16.8358 11 16.5 10.6642 16.5 10.25V8.35C16.5 7.35753 16.4994 6.65829 16.4548 6.11228C16.4109 5.57503 16.3282 5.25252 16.2003 5.00153C15.9366 4.48408 15.5159 4.06338 14.9985 3.79973C14.7475 3.67184 14.425 3.58909 13.8877 3.54519C13.3417 3.50058 12.6425 3.5 11.65 3.5H8.35C7.35753 3.5 6.65829 3.50058 6.11228 3.54519C5.57503 3.58909 5.25252 3.67184 5.00153 3.79973C4.48408 4.06338 4.06338 4.48408 3.79973 5.00153C3.67184 5.25252 3.58909 5.57503 3.54519 6.11228C3.50058 6.65829 3.5 7.35753 3.5 8.35V11.65C3.5 12.6425 3.50058 13.3417 3.54519 13.8877C3.58909 14.425 3.67184 14.7475 3.79973 14.9985C4.06338 15.5159 4.48408 15.9366 5.00153 16.2003C5.25252 16.3282 5.57503 16.4109 6.11228 16.4548C6.65829 16.4994 7.35753 16.5 8.35 16.5H10.25C10.6642 16.5 11 16.8358 11 17.25C11 17.6642 10.6642 18 10.25 18H8.31737C7.36493 18 6.60439 18 5.99013 17.9498C5.36012 17.8984 4.81824 17.7904 4.32054 17.5368C3.52085 17.1293 2.87068 16.4791 2.46322 15.6795C2.20963 15.1818 2.10165 14.6399 2.05018 14.0099C1.99999 13.3956 1.99999 12.6351 2 11.6826V8.31739C1.99999 7.36494 1.99999 6.6044 2.05018 5.99013C2.10165 5.36012 2.20963 4.81824 2.46322 4.32054C2.87068 3.52085 3.52085 2.87068 4.32054 2.46322C4.81824 2.20963 5.36012 2.10165 5.99013 2.05018C6.6044 1.99999 7.36494 1.99999 8.31739 2ZM5 5.75C5 5.33579 5.33579 5 5.75 5H9.25C9.66421 5 10 5.33579 10 5.75C10 6.16421 9.66421 6.5 9.25 6.5H5.75C5.33579 6.5 5 6.16421 5 5.75ZM14.5 11C14.9142 11 15.25 11.3358 15.25 11.75V13.75H17.25C17.6642 13.75 18 14.0858 18 14.5C18 14.9142 17.6642 15.25 17.25 15.25H15.25V17.25C15.25 17.6642 14.9142 18 14.5 18C14.0858 18 13.75 17.6642 13.75 17.25V15.25H11.75C11.3358 15.25 11 14.9142 11 14.5C11 14.0858 11.3358 13.75 11.75 13.75H13.75V11.75C13.75 11.3358 14.0858 11 14.5 11Z" fill="currentColor"/>
</svg>
