<svg width="20" height="20" viewBox="0 0 20 20" fill="currentColor" xmlns="http://www.w3.org/2000/svg">
<path fill-rule="evenodd" clip-rule="evenodd" d="M9.13525 3.51374C8.74356 3.44277 8.35546 3.65473 8.20363 4.02254L6.59146 7.92797C6.53154 8.07315 6.5007 8.22866 6.5007 8.38571L6.5007 15.2468C6.5007 15.9371 7.0606 16.4968 7.75128 16.4968H13.1644C13.6712 16.4968 14.1278 16.1911 14.3208 15.7227L16.3259 10.856C16.936 9.37512 15.8467 7.74926 14.2444 7.74925L10.5026 7.74925C10.0882 7.74925 9.75221 7.41346 9.75221 6.99925V4.25225C9.75221 3.88938 9.49248 3.57847 9.13525 3.51374ZM6.81638 3.45041C7.23791 2.42924 8.31546 1.84076 9.40293 2.0378C10.4741 2.23188 11.2529 3.16415 11.2529 4.25225V6.24925L14.2444 6.24925C16.9149 6.24926 18.7304 8.95903 17.7135 11.4272L15.7084 16.2939C15.2839 17.3243 14.2793 17.9968 13.1644 17.9968H7.75128C6.23179 17.9968 5 16.7655 5 15.2468L5 8.38571C5 8.03237 5.06938 7.68247 5.20421 7.35585L6.81638 3.45041Z" fill="currentColor"/>
<path fill-rule="evenodd" clip-rule="evenodd" d="M2.75 17.9992C2.33579 17.9992 2 17.6634 2 17.2492L2 8.7492C2 8.33499 2.33579 7.9992 2.75 7.9992C3.16421 7.9992 3.5 8.33499 3.5 8.7492L3.5 17.2492C3.5 17.6634 3.16421 17.9992 2.75 17.9992Z" fill="currentColor"/>
</svg>
