<svg width="20" height="20" viewBox="0 0 20 20" fill="none" xmlns="http://www.w3.org/2000/svg">
<path fill-rule="evenodd" clip-rule="evenodd" d="M10.8648 16.4855C11.2564 16.5564 11.6445 16.3445 11.7964 15.9767L13.4085 12.0712C13.4685 11.9261 13.4993 11.7705 13.4993 11.6135V4.75244C13.4993 4.06208 12.9394 3.50244 12.2487 3.50244L6.83559 3.50244C6.32884 3.50244 5.87218 3.8081 5.67922 4.27646L3.67413 9.14319C3.064 10.6241 4.15329 12.2499 5.75559 12.2499L9.49744 12.25C9.91185 12.25 10.2478 12.5857 10.2478 13V15.7469C10.2478 16.1098 10.5075 16.4207 10.8648 16.4855ZM13.1836 16.5488C12.7621 17.57 11.6845 18.1584 10.5971 17.9614C9.52592 17.7673 8.74709 16.8351 8.74709 15.7469V13.75L5.75558 13.7499C3.08509 13.7499 1.2696 11.0402 2.28648 8.57201L4.29158 3.70528C4.7161 2.6749 5.72074 2.00244 6.83559 2.00244L12.2487 2.00244C13.7682 2.00244 15 3.23365 15 4.75244V11.6135C15 11.9668 14.9306 12.3167 14.7958 12.6433L13.1836 16.5488Z" fill="currentColor"/>
<path fill-rule="evenodd" clip-rule="evenodd" d="M17.25 2C17.6642 2 18 2.33579 18 2.75V11.25C18 11.6642 17.6642 12 17.25 12C16.8358 12 16.5 11.6642 16.5 11.25V2.75C16.5 2.33579 16.8358 2 17.25 2Z" fill="currentColor"/>
</svg>
