<svg fill="none" height="32" viewBox="0 0 32 32" width="32" xmlns="http://www.w3.org/2000/svg"><g clip-rule="evenodd" fill="currentColor" fill-rule="evenodd"><path d="m10.7554 18.5324.7938 4.502c.0497.282.2072.5154.4259.6685.2187.1532.4919.2213.7739.1716s.5155-.2072.6686-.4259.2213-.4919.1716-.7739l-.6097-3.4577 2.462-.4341.6097 3.4576c.1695.9612-.0678 1.9024-.5857 2.642s-1.3212 1.2845-2.2823 1.454c-.9612.1695-1.9024-.0678-2.642-.5857-.73965-.5179-1.28452-1.3211-1.454-2.2823l-.79382-4.502z"/><path d="m25.3673 6.99135c-.2606-.05786-.5391-.01636-.7807.13743l-5.1268 3.26412h-9.74552c-1.07532 0-2.04683.4343-2.75266 1.1402-.70584.7058-1.14019 1.6773-1.14019 2.7526s.43435 2.0468 1.14019 2.7527c.70584.7058 1.67734 1.1402 2.75266 1.1402h9.74552l5.1268 3.2641c.1662.1058.3592.162.5563.162.2863 0 .5435-.1146.7323-.3034.1888-.1887.3034-.446.3034-.7323v-12.56655c0-.19705-.0562-.39002-.1621-.55624-.1538-.24155-.3885-.39699-.6492-.45486zm-2.1233-1.97144c.8233-.52417 1.7836-.66483 2.6651-.46914.8815.19568 1.6921.72949 2.2163 1.5528.3613.56745.5532 1.22619.5532 1.89888v12.56655c0 .976-.3971 1.8616-1.0356 2.5001s-1.5241 1.0356-2.5001 1.0356c-.6727 0-1.3315-.1919-1.8989-.5532l-4.5125-2.8729h-9.01722c-1.76499 0-3.36492-.7169-4.52043-1.8724-1.15551-1.1556-1.87242-2.7555-1.87242-4.5205s.71691-3.3649 1.87242-4.52041 2.75544-1.87243 4.52043-1.87243h9.01722z"/><path d="m19.4286 9.14286v10.28574h-2.2857v-10.28574z"/></g></svg>
