<svg fill="none" height="32" viewBox="0 0 32 32" width="32" xmlns="http://www.w3.org/2000/svg" xmlns:xlink="http://www.w3.org/1999/xlink"><linearGradient id="a" gradientUnits="userSpaceOnUse" x1="0" x2="32" y1="0" y2="32"><stop offset="0" stop-color="#f060c0"/><stop offset="1" stop-color="#e03fab"/></linearGradient><path d="m0 16c0-8.83656 7.16344-16 16-16 8.8366 0 16 7.16344 16 16 0 8.8366-7.1634 16-16 16-8.83656 0-16-7.1634-16-16z" fill="url(#a)"/><path clip-rule="evenodd" d="m20.7904 8.07227c-.0528-.09636-.1946-.09636-.2474 0-.2125.38798-.4208.68145-.6031.93818-.3519.49578-.6065.85453-.6065 1.49225 0 .7363.5969 1.3333 1.3333 1.3333s1.3333-.597 1.3333-1.3333c0-.63772-.2546-.99647-.6065-1.49225-.1822-.25673-.3905-.5502-.6031-.93818zm-12.7904 7.09703c0-.7363.59695-1.3333 1.33333-1.3333h13.33337c.7363 0 1.3333.597 1.3333 1.3333 0 1.3054-.568 2.0428-1.3333 2.3975l-.0264.0121c-.2902.1304-.6079.2068-.9331.239-.1239.0122-.2489.0181-.3739.0181-1.9941 0-2.6627-1.3255-2.6666-1.3333-.003.006-.3165.6268-1.1512 1.019-.1185.0557-.2474.1068-.3874.1508-.0253.0079-.0509.0157-.0769.0231-.2068.0596-.4368.1037-.6917.1254-.1147.0098-.2345.015-.3595.015-1.9941 0-2.6627-1.3255-2.6666-1.3333-.0031.0061-.3248.6431-1.1843 1.0343-.1093.0498-.2273.0955-.3544.1355-.0252.0079-.0508.0157-.0768.0231-.2069.0596-.4368.1037-.6917.1254-.1147.0098-.2345.015-.3595.015-1.33337 0-2.6667-.6667-2.6667-2.6667zm14.6667 4.5074c-.4618.1152-.9175.1593-1.3333.1593-1.0933 0-1.9783-.2752-2.6667-.6583-.6884.3831-1.5734.6583-2.6667.6583-1.0932 0-1.9782-.2752-2.6666-.6583-.6884.3831-1.5734.6583-2.6667.6583-.4158 0-.87151-.0441-1.33333-.1593v.9426c0 .7468 0 1.1201.14533 1.4053.12783.2509.3318.4549.5827.5827.2852.1454.6586.1454 1.4053.1454h9.0667c.7467 0 1.1201 0 1.4053-.1454.2509-.1278.4549-.3318.5827-.5827.1453-.2852.1453-.6585.1453-1.4053zm-11.4571-11.60443c.0528-.09636.1947-.09636.2474 0 .2126.38798.4209.68145.6031.93818.3519.49578.6066.85453.6066 1.49225 0 .7363-.597 1.3333-1.3334 1.3333-.7363 0-1.3333-.597-1.3333-1.3333 0-.63772.2546-.99647.6066-1.49225.1822-.25673.3905-.55021.603-.93818zm4.9141 0c-.0528-.09636-.1947-.09636-.2474 0-.2126.38798-.4209.68145-.6031.93818-.3519.49578-.6066.85453-.6066 1.49225 0 .7363.597 1.3333 1.3334 1.3333.7363 0 1.3333-.597 1.3333-1.3333 0-.63772-.2547-.99647-.6066-1.49225-.1822-.25673-.3905-.5502-.603-.93818z" fill="#fff" fill-rule="evenodd"/></svg>
