<svg xmlns="http://www.w3.org/2000/svg" width="32" height="32" fill="none" viewBox="0 0 32 32"><path fill="currentColor" fill-rule="evenodd" d="m22.3044 2.5125.3831.0686c1.1963.2143 2.1686.3884 2.9463.5942.8032.2126 1.5048.4842 2.12.9493a5.7847 5.7847 0 0 1 2.0404 2.914c.2266.7372.2418 1.4894.1668 2.317-.0726.8011-.2415 1.7743-.4494 2.9717l-1.1048 6.3645c-.2078 1.1973-.3768 2.1706-.5783 2.9488-.2081.8034-.476 1.5065-.9387 2.1226a5.7156 5.7156 0 0 1-2.9081 2.0362c-.7373.2241-1.4895.2353-2.3157.156-.8002-.0768-1.7725-.251-2.9687-.4652l-.3831-.0686c-1.1962-.2143-2.1685-.3884-2.9462-.5942-.8033-.2126-1.5049-.4842-2.12-.9493a5.7844 5.7844 0 0 1-2.0404-2.9141c-.2267-.7371-.2419-1.4893-.1669-2.3168.0727-.8012.2416-1.7744.4495-2.9718l1.1048-6.3646c.2078-1.1973.3767-2.1705.5783-2.9487.2081-.8034.4759-1.5065.9387-2.1227a5.7154 5.7154 0 0 1 2.908-2.036c.7373-.2242 1.4896-.2354 2.3158-.1561.8002.0768 1.7725.251 2.9686.4652ZM19.097 4.5358c-.6721-.0644-1.0557-.03-1.3499.0595a3.2153 3.2153 0 0 0-1.6362 1.1456c-.1846.2458-.3482.5945-.5175 1.248-.1729.6676-.3253 1.5398-.5443 2.8017l-1.0867 6.2603c-.2191 1.2619-.3696 2.1344-.4319 2.8219-.0609.6728-.0248 1.0589.0667 1.3566a3.2847 3.2847 0 0 0 1.1585 1.6545c.2484.1879.5988.3539 1.2519.5267.6673.1766 1.5387.3336 2.7994.5594l.279.05c1.2607.2258 2.1324.381 2.8188.4468.6721.0645 1.0557.0301 1.3498-.0594a3.2145 3.2145 0 0 0 1.6362-1.1456c.1846-.2458.3483-.5945.5175-1.2481.173-.6675.3253-1.5397.5444-2.8016l1.0867-6.2604c.219-1.2618.3695-2.1344.4318-2.8219.061-.6727.0249-1.0588-.0666-1.3565a3.2852 3.2852 0 0 0-1.1585-1.6545c-.2485-.1879-.5989-.3539-1.2519-.5267-.6674-.1766-1.5387-.3337-2.7994-.5595l-.279-.05c-1.2607-.2257-2.1324-.3809-2.8188-.4467Z M8.871 6.3235c.6794-.1226 1.3295.3289 1.452 1.0083.1225.6794-.329 1.3294-1.0083 1.452l-.0926.0167c-2.1985.397-2.965.6006-3.4687.9815a3.285 3.285 0 0 0-1.1585 1.6545c-.0915.2977-.1276.6838-.0667 1.3565.0624.6875.2128 1.5601.4319 2.8219l1.1447 6.5948c.219 1.2619.3715 2.134.5444 2.8016.1692.6536.3329 1.0023.5175 1.2481a3.215 3.215 0 0 0 1.6362 1.1456c.2941.0894.6778.1239 1.3498.0594.6865-.0659 1.5581-.221 2.8188-.4468l.3183-.057c.6795-.1217 1.3291.3305 1.4508 1.01.1217.6796-.3305 1.3291-1.0101 1.4508l-.3703.0664c-1.1962.2142-2.1685.3884-2.9687.4652-.8262.0792-1.5784.068-2.3157-.1561a5.715 5.715 0 0 1-2.908-2.0361c-.4628-.6162-.7307-1.3192-.9388-2.1227-.2015-.7782-.3704-1.7514-.5783-2.9487L2.488 15.9905c-.2079-1.1974-.3768-2.1706-.4494-2.9718-.075-.8275-.0598-1.5797.1668-2.3168a5.785 5.785 0 0 1 2.0404-2.9141C5.328 6.9696 6.783 6.7005 8.778 6.3402l.0931-.0168Z" clip-rule="evenodd"/></svg>
