<svg xmlns="http://www.w3.org/2000/svg" width="32" height="32" fill="none" viewBox="0 0 32 32"><rect width="32" height="32" fill="url(#a)" rx="16"/><path fill="#fff" d="M21.436 9c.892 0 1.215.093 1.54.267.327.174.583.43.757.756s.267.65.267 1.54v6.873c0 .892-.093 1.215-.267 1.54-.174.327-.43.583-.756.757s-.65.267-1.54.267h-4.439l-3.718 3.72a.75.75 0 0 1-1.28-.531V21h-1.436c-.892 0-1.215-.093-1.54-.267a1.8 1.8 0 0 1-.757-.756c-.174-.326-.267-.65-.267-1.54v-6.873c0-.892.093-1.215.267-1.54.174-.327.43-.583.756-.757S9.673 9 10.563 9z"/><defs><linearGradient id="a" x1="-16" x2="16" y1="16" y2="48" gradientUnits="userSpaceOnUse"><stop stop-color="#50c750"/><stop offset="1" stop-color="#32b332"/></linearGradient></defs></svg>