<svg xmlns="http://www.w3.org/2000/svg" width="32" height="32" fill="currentColor" viewBox="0 0 32 32"><path fill-rule="evenodd" d="M11.255 4.585a3.75 3.75 0 0 0-3.75 3.75V23.75a3.75 3.75 0 0 0 3.75 3.75h9.995A3.75 3.75 0 0 0 25 23.75v-9.588L24.997 14H18.75A2.75 2.75 0 0 1 16 11.25V4.61a2.75 2.75 0 0 0-.366-.025h-4.379ZM18.5 6.282v4.968c0 .138.112.25.25.25h5.141a3.442 3.442 0 0 0-.033-.033L18.5 6.282ZM5.005 8.335a6.25 6.25 0 0 1 6.25-6.25h4.38a5.25 5.25 0 0 1 3.65 1.478l6.311 6.108a6.25 6.25 0 0 1 1.904 4.49v9.589A6.25 6.25 0 0 1 21.25 30h-9.995a6.25 6.25 0 0 1-6.25-6.25V8.335Z" clip-rule="evenodd"/></svg>
