<?xml version="1.0" encoding="UTF-8"?>
<svg width="32px" height="32px" viewBox="0 0 32 32" version="1.1" xmlns="http://www.w3.org/2000/svg" xmlns:xlink="http://www.w3.org/1999/xlink">
    <!-- Generator: Sketch 50.2 (55047) - http://www.bohemiancoding.com/sketch -->
    <title>document_32</title>
    <desc>Created with Sketch.</desc>
    <defs></defs>
    <g id="Page-2" stroke="none" stroke-width="1" fill="none" fill-rule="evenodd">
        <g id="document_32">
            <rect id="Bounds" x="0" y="0" width="32" height="32"></rect>
            <path d="M4.49770268,7.00341872 L4.49770268,24 C4.49770268,26.209139 6.28856368,28 8.49770268,28 L23,28.0031367 C25.209139,28.0031367 27,26.2122757 27,24.0031367 C27,24.0020907 26.9999996,24.0010447 26.9999988,23.9999988 L26.9875322,12.1067627 C26.986978,11.4002438 26.7060689,10.722821 26.2064844,10.2232365 L19.7677153,3.78446731 C19.2676182,3.2843703 18.5893411,3.00341872 17.8820972,3.00341872 L8.49770268,3.00341872 C6.28856368,3.00341872 4.49770268,4.79427973 4.49770268,7.00341872 Z M17.6827736,5.68585891 L23.3167584,11.3170921 C23.4730063,11.4732636 23.4730681,11.7265296 23.3168966,11.8827775 C23.2418768,11.9578339 23.1401063,12.0000035 23.0339864,12.0000039 L17.6666667,12.0000281 C17.2984768,12.0000296 16.9999988,11.701554 16.9999973,11.3333642 C16.9999973,11.3333633 16.9999973,11.3333624 16.9999973,11.3333615 L17,5.96877071 C17,5.7478568 17.1790861,5.5687707 17.4,5.5687707 C17.5060528,5.5687707 17.6077647,5.61088662 17.6827736,5.68585891 Z" id="Mask" fill="currentColor"></path>
        </g>
    </g>
</svg>
