<svg xmlns="http://www.w3.org/2000/svg" width="32" height="32" fill="none" viewBox="0 0 32 32"><g clip-path="url(#a)"><circle cx="16" cy="16" r="16" fill="#ffa000"/><path fill="#fff" d="m19.344 12.485 4.429.425c1.541.148 2.014 1.653.824 2.643l-3.468 2.882 1.287 4.695c.423 1.542-.889 2.475-2.202 1.547L16 21.701l-4.214 2.976c-1.308.925-2.625-.005-2.202-1.547l1.287-4.695-3.468-2.882c-1.195-.994-.724-2.495.824-2.643l4.429-.425 1.95-4.499c.612-1.408 2.177-1.408 2.787 0z"/></g><defs><clipPath id="a"><path fill="#fff" d="M0 0h32v32H0z"/></clipPath></defs></svg>