<svg xmlns="http://www.w3.org/2000/svg" width="32" height="32" fill="none" viewBox="0 0 32 32"><path fill="url(#a)" d="M0 16C0 7.1634 7.1634 0 16 0s16 7.1634 16 16-7.1634 16-16 16S0 24.8366 0 16Z"/><path fill="#fff" d="m19.3435 12.485 4.4295.4249c1.5413.1479 2.014 1.6535.8238 2.6426l-3.4678 2.8822 1.2874 4.6953c.4227 1.5419-.8889 2.4753-2.2027 1.5473L16 21.701l-4.2137 2.9763c-1.3084.9243-2.6255-.0052-2.2027-1.5473l1.2874-4.6953-3.4678-2.8822c-1.1952-.9933-.7244-2.494.8235-2.6426l4.4288-.4249 1.9512-4.4987c.611-1.4088 2.1759-1.408 2.7865.0001l1.9503 4.4986Z"/><defs><linearGradient id="a" x1="-16" x2="16" y1="16" y2="48" gradientUnits="userSpaceOnUse"><stop stop-color="#50C750"/><stop offset="1" stop-color="#32B332"/></linearGradient></defs></svg>
