<svg xmlns="http://www.w3.org/2000/svg" width="32" height="32" fill="currentColor" viewBox="0 0 32 32"><path d="M3 11.6c0-2.31 0-3.465.425-4.348A4.02 4.02 0 0 1 5.13 5.45C5.964 5 7.056 5 9.24 5h3.298c.318 0 .477 0 .627.038.133.034.26.09.376.165.131.085.243.204.468.441L16 8h6.76c2.184 0 3.276 0 4.11.45a4.02 4.02 0 0 1 1.705 1.802C29 11.135 29 12.29 29 14.6v5.8c0 2.31 0 3.465-.425 4.348a4.02 4.02 0 0 1-1.704 1.802c-.835.45-1.927.45-4.111.45H9.24c-2.184 0-3.276 0-4.11-.45a4.02 4.02 0 0 1-1.705-1.802C3 23.865 3 22.71 3 20.4v-8.8Z"/></svg>
