<svg fill="none" height="32" viewBox="0 0 32 32" width="32" xmlns="http://www.w3.org/2000/svg"><path d="m20 6c5.5228 0 10 4.4772 10 10s-4.4772 10-10 10c-1.4221 0-2.7748-.2968-3.9996-.8319l.0741-.0331c-1.2445.5559-2.6234.865-4.0745.865-5.52285 0-10-4.4772-10-10s4.47715-10 10-10c1.4041 0 2.7406.28939 3.9532.81177l.0474.02058c1.2246-.53552 2.5773-.83235 3.9994-.83235zm-3.712 19.036-.2876.1321.2126-.096zm-4.288-16.536c-4.14214 0-7.5 3.3579-7.5 7.5s3.35786 7.5 7.5 7.5c4.1421 0 7.5-3.3579 7.5-7.5s-3.3579-7.5-7.5-7.5zm6.9287 14.7106-.1953.1828c.4111.0701.8346.1066 1.2666.1066 4.1421 0 7.5-3.3579 7.5-7.5s-3.3579-7.5-7.5-7.5c-.3237 0-.6427.02051-.9556.06031l-.3119.04634.1547.14302.127.12286.19.19207.0943.09931.3067.34261.1004.11939c.1567.18927.3066.38439.4493.58499l.1691.2461.146.2246-.0526-.0826c.5883.9148 1.0314 1.9319 1.297 3.0185l.094.4244.0489.2653.0567.3758.0213.1734.0236.2313.0244.3293.0121.2766.0046.3064c0 .3006-.0133.5981-.0392.8919l-.051.457c-.2058 1.526-.7557 2.9429-1.5692 4.1698l-.1781.2598-.1874.2555c-.1321.1743-.2698.3442-.4128.5093l-.2204.2462-.2031.2132zm-6.9287-12.2106c2.7614 0 5 2.2386 5 5s-2.2386 5-5 5c-.234 0-.4642-.0161-.6897-.0472-.8339-1.4608-1.3103-3.1512-1.3103-4.9528s.4764-3.492 1.3102-4.952c.2256-.0319.4558-.048.6898-.048z" fill="currentColor"/></svg>
