<svg fill="none" height="32" viewBox="0 0 32 32" width="32" xmlns="http://www.w3.org/2000/svg"><path d="m22.3083 4c2.6746 0 3.6445.27848 4.6222.8014.9778.52292 1.7452 1.29028 2.2681 2.26806s.8014 1.94764.8014 4.62224v8.6166l-.0053.6101c-.0408 2.2197-.315 3.1126-.7961 4.0121-.5229.9778-1.2903 1.7452-2.2681 2.2681-.9777.5229-1.9476.8014-4.6222.8014h-12.61664l-.61004-.0053c-2.21975-.0408-3.1126-.315-4.01216-.7961-.36986-.1978-.70961-.4306-1.01742-.6965l-.001-.0009-.02584-.0224c-.49394-.4325-.90445-.9511-1.2238-1.5483-.50201-.9386-.77873-1.87-.80007-4.3093l-.00133-8.9295c0-2.6746.27848-3.64446.8014-4.62224s1.29028-1.74514 2.26806-2.26806c.93867-.50201 1.87004-.77873 4.30932-.80007zm-17.8083 10.5.00083 6.081.00807.5516c.03137 1.2847.14872 1.888.40093 2.4275l.0961.1914c.28992.5421.70042.9526 1.24253 1.2426l.19141.0961c.05978.0279.12034.0542.18253.0789.03387.0135.06852.0266.1038.0392.01171.0042.02374.0084.03585.0126l-.03585-.0126c.02974.0106.05992.0209.09064.0309l-.05479-.0183c.04143.0143.08377.0279.12724.041l-.07245-.0227c.02949.0096.05947.0189.09002.0279l-.01757-.0052c.08176.0245.16751.0469.25869.0672.00923.0021.0185.0041.02782.0061l-.02782-.0061c.03897.0087.07892.017.11998.025l-.09216-.0189c.04989.0108.1014.021.15477.0306l-.06261-.0117c.04937.0096.10034.0186.1531.0271l-.09049-.0154c.04766.0086.09681.0167.1476.0244l-.05711-.009c.04819.0078.09788.0152.14922.0222l-.09211-.0132c.05796.0087.11806.0169.18054.0246l-.08843-.0114c.04659.0063.09453.0123.14394.0179l-.05551-.0065c.05834.0071.11876.0137.18145.0199l-.12594-.0134c.04945.0057.10037.011.15286.016l-.02692-.0026c.05951.0058.12106.0112.18483.0162l-.15791-.0136c.05699.0054.11583.0104.17668.0151l-.01877-.0015c.21151.0166.4474.0287.71383.0367.08642.0026.17669.0048.27043.0066.04181.0007.08424.0015.12736.0021l.26852.0028 6.09487-.0001v-10.999zm13.5 0v10.999l3.4998.0008-.0005-8.5955-.0063-.3874c-.0174-.6426-.0689-.931-.171-1.1666l-.0608-.125c-.1156-.2162-.2703-.3709-.4865-.4865l-.125-.0608c-.2784-.1206-.6306-.1707-1.554-.1773zm7.5601 10.5902.1914-.0961c.5421-.29.9526-.7005 1.2426-1.2426l.0961-.1914c.285-.6097.3978-1.301.4089-2.9652l.0009-8.9032c0-1.87372-.1089-2.60821-.4098-3.25183l-.0961-.19141c-.29-.54211-.7005-.95261-1.2426-1.24253l-.1914-.0961c-.6114-.28584-1.3049-.39846-2.9791-.409l-12.88934-.00083-.55505.00372c-1.47225.02134-2.12087.1369-2.69674.40611l-.19141.0961c-.54211.28992-.95261.70042-1.24253 1.24253l-.0961.19141c-.28584.61144-.39846 1.30489-.409 2.97913l-.00083.579 14.3722.002c1.7831 0 2.4296.1857 3.0815.5343.6518.3486 1.1634.8602 1.512 1.512.3486.6519.5343 1.2984.5343 3.0815l.0016 8.321c.7228-.0586 1.1582-.1715 1.5585-.3586z" fill="currentColor"/></svg>
