<svg fill="none" height="32" viewBox="0 0 32 32" width="32" xmlns="http://www.w3.org/2000/svg"><path d="m24.8722 10c1.7831 0 2.4296.1857 3.0815.5343.6518.3486 1.1634.8602 1.512 1.512.3486.6519.5343 1.2984.5343 3.0815v6.7444c0 1.7831-.1857 2.4296-.5343 3.0815-.3486.6518-.8602 1.1634-1.512 1.512-.6519.3486-1.2984.5343-3.0815.5343h-14.7444c-1.78307 0-2.42964-.1857-3.08149-.5343s-1.16343-.8602-1.51204-1.512c-.33027-.6176-.51428-1.2304-.53273-2.8092l-.00154-7.0167c0-1.7831.18565-2.4296.53427-3.0815.34861-.6518.86019-1.1634 1.51204-1.512.61754-.3303 1.23035-.5143 2.80921-.5328zm.2235 2.5007h-15.19138l-.38743.0063c-.64257.0174-.931.0689-1.16654.171l-.12504.0608c-.21619.1156-.3709.2703-.48651.4865l-.0608.125c-.12065.2784-.17072.6306-.17725 1.554v7.1914l.0062.3874c.01741.6426.06896.931.17105 1.1666l.0608.125c.11561.2162.27032.3709.48651.4865l.12504.0608c.27836.1206.6306.1707 1.55397.1773h15.19138l.3874-.0063c.6426-.0174.931-.0689 1.1666-.171l.125-.0608c.2162-.1156.3709-.2703.4865-.4865l.0608-.125c.1206-.2784.1707-.6306.1773-1.554v-7.1914l-.0063-.3874c-.0174-.6426-.0689-.931-.171-1.1666l-.0608-.125c-.1156-.2162-.2703-.3709-.4865-.4865l-.125-.0608c-.2784-.1206-.6306-.1707-1.554-.1773zm-17.72958-11.634583c.48815-.488156 1.27961-.488156 1.76776 0l2.50002 2.500003c.4881.48815.4881 1.27961 0 1.76776l-2.50002 2.5c-.48815.48816-1.27961.48816-1.76776 0-.48816-.48815-.48816-1.27961 0-1.76776l.36588-.36612h-2.482c-.91817 0-1.67119.70711-1.7442 1.60647l-.0058.14353v2.5c0 .6904-.55964 1.25-1.25 1.25s-1.25-.5596-1.25-1.25v-2.5c0-2.34721 1.90279-4.25 4.25-4.25h2.483l-.36688-.36612c-.45562-.45561-.48599-1.17543-.09113-1.666268z" fill="currentColor"/></svg>
