<svg fill="none" height="32" viewBox="0 0 32 32" width="32" xmlns="http://www.w3.org/2000/svg"><g clip-rule="evenodd" fill="currentColor" fill-rule="evenodd"><path d="m12 12c0-.5523.4477-1 1-1h7c.5523 0 1 .4477 1 1v7c0 .5523-.4477 1-1 1s-1-.4477-1-1v-4.5858l-6.7929 6.7929c-.3905.3905-1.0237.3905-1.4142 0s-.3905-1.0237 0-1.4142l6.7929-6.7929h-4.5858c-.5523 0-1-.4477-1-1z"/><path d="m6.1005 6.1005c2.53214-2.53213 6.0339-4.1005 9.8995-4.1005s7.3674 1.56837 9.8995 4.1005c2.5321 2.53214 4.1005 6.0339 4.1005 9.8995s-1.5684 7.3674-4.1005 9.8995-6.0339 4.1005-9.8995 4.1005-7.36736-1.5684-9.8995-4.1005c-2.53213-2.5321-4.1005-6.0339-4.1005-9.8995s1.56837-7.36736 4.1005-9.8995zm9.8995-1.6005c-3.176 0-6.04927 1.28581-8.13173 3.36827s-3.36827 4.95573-3.36827 8.13173 1.28581 6.0493 3.36827 8.1317c2.08246 2.0825 4.95573 3.3683 8.13173 3.3683s6.0493-1.2858 8.1317-3.3683c2.0825-2.0824 3.3683-4.9557 3.3683-8.1317s-1.2858-6.04927-3.3683-8.13173c-2.0824-2.08246-4.9557-3.36827-8.1317-3.36827z"/></g></svg>
