<svg xmlns="http://www.w3.org/2000/svg" width="32" height="32" fill="currentColor" viewBox="0 0 32 32"><path fill-rule="evenodd" d="M6.325 3.868C7.535 3.222 8.725 3 11.333 3h9.334c2.609 0 3.799.222 5.008.868a5.923 5.923 0 0 1 2.457 2.457c.646 1.21.868 2.4.868 5.008v9.334c0 2.609-.222 3.799-.868 5.008a5.923 5.923 0 0 1-2.457 2.457c-1.21.646-2.4.868-5.008.868h-9.334c-2.609 0-3.799-.222-5.008-.868a5.923 5.923 0 0 1-2.457-2.457c-.646-1.21-.868-2.4-.868-5.008v-9.334c0-2.609.222-3.799.868-5.008a5.924 5.924 0 0 1 2.457-2.457ZM14.976 26.5h5.691c2.479 0 3.168-.22 3.829-.573.62-.331 1.1-.81 1.431-1.431.353-.66.573-1.35.573-3.829v-9.334c0-2.479-.22-3.169-.573-3.829a3.424 3.424 0 0 0-1.431-1.431c-.66-.353-1.35-.573-3.829-.573h-5.69c-1.966 0-2.43.214-2.883.513-.45.298-.836.754-1.114 1.398-.3.694-.48 1.425-.48 3.922v9.334c0 2.497.18 3.228.48 3.922.278.644.663 1.1 1.114 1.398.452.3.917.513 2.882.513ZM9.111 5.6c-.16.258-.302.531-.426.819C8.177 7.593 8 8.742 8 11.333v9.334c0 2.591.177 3.74.685 4.914.124.288.266.561.426.82-.802-.097-1.21-.261-1.607-.474a3.424 3.424 0 0 1-1.431-1.431c-.353-.66-.573-1.35-.573-3.829v-9.334c0-2.479.22-3.169.573-3.829.331-.62.81-1.1 1.431-1.431.398-.213.806-.377 1.607-.474Zm9.407 5.764-.045-.027c-.496-.291-.936-.55-1.307-.725-.376-.177-.864-.36-1.416-.3a2.518 2.518 0 0 0-1.783 1.041c-.308.431-.393.924-.43 1.337-.037.41-.037.923-.037 1.51v3.654c0 .587 0 1.1.037 1.51.037.413.122.906.43 1.337a2.518 2.518 0 0 0 1.783 1.042c.552.06 1.04-.123 1.416-.3.371-.175.811-.434 1.307-.726l.045-.026 3.022-1.778.044-.026c.496-.292.936-.551 1.27-.791.342-.247.723-.576.936-1.063.28-.641.28-1.37 0-2.012-.213-.487-.594-.816-.936-1.062-.334-.24-.774-.499-1.27-.79l-.044-.027-3.022-1.778Zm-2.625 1.26a.191.191 0 0 1 .071-.05c.034.01.095.033.192.079.26.122.606.324 1.16.65l3.022 1.779c.554.326.9.53 1.134.7.115.082.169.133.19.154a.301.301 0 0 1 0 .183c-.021.02-.075.071-.19.154-.235.17-.58.374-1.134.7l-3.022 1.778c-.554.326-.9.528-1.16.651a1.693 1.693 0 0 1-.192.079.194.194 0 0 1-.07-.05 1.533 1.533 0 0 1-.042-.265c-.026-.298-.027-.71-.027-1.36v-3.557c0-.65 0-1.062.027-1.36.015-.158.033-.236.041-.264Z" clip-rule="evenodd"/></svg>
