<svg fill="none" height="32" viewBox="0 0 32 32" width="32" xmlns="http://www.w3.org/2000/svg"><path d="m27.1598 4.49888c2.79 2.88248 2.0925 10.80932 0 15.85362-2.0924 5.0444-6.2774 8.6475-11.1598 8.6475s-9.06737-3.6031-11.15984-8.6475c-2.09247-5.0443-2.78996-12.97114 0-15.85362s5.57994-.69889 11.15984-.69889 8.3699-2.18359 11.1598.69889zm-6.2654 1.36697c-1.8859.29707-3.2599.43748-4.8944.43748s-3.0085-.14041-4.8944-.43748c-3.43629-.54128-3.75902-.51691-4.55092.30914-1.58179 1.65-1.38854 8.30211.60821 13.16211 1.81181 4.4099 5.22721 7.1629 8.83711 7.1629s7.0253-2.753 8.8371-7.1629c1.9968-4.86 2.19-11.51211.6082-13.16211-.7919-.82605-1.1146-.85042-4.5509-.30914zm-4.8944 13.13415c2.5 0 3.2-1.5455 3.84-.7879s-.64 3.7879-3.84 3.7879-4.48-3.0303-3.84-3.7879 1.34.7879 3.84.7879zm3.8691-7.7898c1.1021-.0959 2.0542.4932 2.1265 1.316.0724.8228-.7625 1.5676-1.8647 1.6635-1.1021.096-2.0542-.4932-2.1265-1.3159-.0724-.8228.7625-1.5676 1.8647-1.6636zm-7.9023-.0093.1641.0093c1.1022.096 1.9371.8408 1.8647 1.6636-.0723.8227-1.0244 1.4119-2.1265 1.3159-1.1022-.0959-1.93705-.8407-1.8647-1.6635.0723-.8228 1.0244-1.4119 2.1265-1.316z" fill="currentColor"/></svg>
