<svg fill="none" height="32" viewBox="0 0 32 32" width="32" xmlns="http://www.w3.org/2000/svg"><g fill="currentColor"><path d="m11 8c0-2.76142 2.2386-5 5-5s5 2.23858 5 5v8c0 2.7614-2.2386 5-5 5s-5-2.2386-5-5z"/><path d="m14.75 27.25c0-.6904.5596-1.25 1.25-1.25s1.25.5596 1.25 1.25v2.5c0 .6904-.5596 1.25-1.25 1.25s-1.25-.5596-1.25-1.25z"/><path d="m28 15.25c0 .6904-.5596 1.25-1.25 1.25s-1.25-.5596-1.25-1.25.5596-1.25 1.25-1.25 1.25.5596 1.25 1.25z"/><path d="m6.5 15.25c0 .6904-.55964 1.25-1.25 1.25s-1.25-.5596-1.25-1.25.55964-1.25 1.25-1.25 1.25.5596 1.25 1.25z"/><path d="m16 27c6.6274 0 12-5.3726 12-12h-2.5c0 5.2467-4.2533 9.5-9.5 9.5s-9.5-4.2533-9.5-9.5h-2.5c0 6.6274 5.37258 12 12 12z"/></g></svg>
