<svg width="32" height="32" viewBox="0 0 32 32" fill="none" xmlns="http://www.w3.org/2000/svg">
<path fill-rule="evenodd" clip-rule="evenodd" d="M11.3326 3C8.72418 3 7.53414 3.22166 6.32525 3.86818C5.26921 4.43296 4.43296 5.26921 3.86818 6.32525C3.22166 7.53414 3 8.72418 3 11.3326V20.6674C3 23.2758 3.22166 24.4659 3.86818 25.6747C4.43296 26.7308 5.26921 27.567 6.32525 28.1318C7.53414 28.7783 8.72418 29 11.3326 29H20.6674C23.2758 29 24.4659 28.7783 25.6747 28.1318C26.7308 27.567 27.567 26.7308 28.1318 25.6747C28.7783 24.4659 29 23.2758 29 20.6674V11.3326C29 8.72418 28.7783 7.53414 28.1318 6.32525C27.567 5.26921 26.7308 4.43296 25.6747 3.86818C24.4659 3.22166 23.2758 3 20.6674 3H11.3326ZM10.25 9C9.55964 9 9 9.55964 9 10.25C9 10.9404 9.55964 11.5 10.25 11.5H21.75C22.4404 11.5 23 10.9404 23 10.25C23 9.55964 22.4404 9 21.75 9H10.25ZM9 16.25C9 15.5596 9.55964 15 10.25 15H21.75C22.4404 15 23 15.5596 23 16.25C23 16.9404 22.4404 17.5 21.75 17.5H10.25C9.55964 17.5 9 16.9404 9 16.25ZM10.25 21C9.55964 21 9 21.5596 9 22.25C9 22.9404 9.55964 23.5 10.25 23.5H17.75C18.4404 23.5 19 22.9404 19 22.25C19 21.5596 18.4404 21 17.75 21H10.25Z" fill="currentColor"/>
</svg>
