<svg xmlns="http://www.w3.org/2000/svg" width="32" height="32" viewBox="0 0 32 32" fill="currentColor"><path d="m12.974 2.9 6.42.001c2.762.023 4.128.307 5.544 1.064a7.46 7.46 0 0 1 3.097 3.097c.724 1.355 1.016 2.663 1.06 5.191l.005.72v6.053c0 3.011-.275 4.434-1.065 5.912a7.46 7.46 0 0 1-3.097 3.097c-1.355.724-2.663 1.016-5.191 1.06l-.72.005h-6.053c-3.011 0-4.434-.275-5.912-1.065a7.46 7.46 0 0 1-3.097-3.097c-.724-1.355-1.016-2.663-1.06-5.191l-.005-.72.001-6.422c.023-2.761.307-4.127 1.064-5.543a7.46 7.46 0 0 1 3.097-3.097c1.478-.79 2.9-1.065 5.912-1.065m7.595 14.875-4.67 5.674a1.1 1.1 0 0 1-1.365.273l-.111-.068-2.876-1.998L7.3 25.574q.37.291.8.521c1.022.547 2.015.768 4.236.8l.638.005h6.052c2.456 0 3.568-.175 4.595-.664l.28-.141a5.26 5.26 0 0 0 2.194-2.195c.235-.44.41-.874.536-1.403l-.007-.004zM19.026 5.1l-6.379.001c-2.23.016-3.288.196-4.268.663l-.28.141A5.26 5.26 0 0 0 5.906 8.1c-.596 1.115-.805 2.195-.805 4.874v6.052c0 2.456.175 3.568.664 4.595l.129.257 4.811-4.437a1.1 1.1 0 0 1 1.265-.161l.108.066 2.767 1.922 4.707-5.717a1.1 1.1 0 0 1 1.421-.24l.104.071 5.814 4.53.006-.248.004-.638v-6.052c0-2.456-.175-3.568-.664-4.595l-.141-.28A5.26 5.26 0 0 0 23.9 5.906c-1.115-.596-2.195-.806-4.874-.806M12 10a2 2 0 1 1 0 4 2 2 0 0 1 0-4"/></svg>