<svg fill="none" height="32" viewBox="0 0 32 32" width="32" xmlns="http://www.w3.org/2000/svg"><g clip-rule="evenodd" fill="currentColor" fill-rule="evenodd"><path d="m18.601 28.9349c-1.5889 1.5282-4.0415 1.3968-5.4806-.2968l-.3331-.395c-4.83662-5.7792-7.2873-10.6602-7.2873-14.7257 0-5.82584 4.716-10.5174 10.5-10.5174s10.5 4.69156 10.5 10.5174c0 4.1574-2.563 9.1693-7.6231 15.1239-.0873.1027-.1794.2007-.2759.2936zm-1.6291-1.9125c4.9846-5.8658 7.0281-10.2872 7.0281-13.505 0-4.44403-3.5957-8.0174-8-8.0174s-8 3.57337-8 8.0174c0 3.1416 1.94824 7.4372 6.7014 13.1175l.3264.3871c.5175.6063 1.3036.627 1.8401.111.0358-.0344.0706-.0713.104-.1106z"/><path d="m11.5 13.5c0-2.4842 2.0158-4.5 4.5-4.5s4.5 2.0158 4.5 4.5-2.0158 4.5-4.5 4.5-4.5-2.0158-4.5-4.5zm2.5 0c0-1.1035.8965-2 2-2s2 .8965 2 2-.8965 2-2 2-2-.8965-2-2z"/></g></svg>
