<?xml version="1.0" encoding="UTF-8"?>
<svg width="32px" height="32px" viewBox="0 0 32 32" version="1.1" xmlns="http://www.w3.org/2000/svg" xmlns:xlink="http://www.w3.org/1999/xlink">
    <!-- Generator: Sketch 50.2 (55047) - http://www.bohemiancoding.com/sketch -->
    <title>poll_32</title>
    <desc>Created with Sketch.</desc>
    <defs></defs>
    <g id="Page-2" stroke="none" stroke-width="1" fill="none" fill-rule="evenodd">
        <g id="poll_32">
            <rect id="icon-bounds" x="0" y="0" width="32" height="32" rx="16"></rect>
            <path d="M24,15 C25.1045695,15 26,15.8954305 26,17 L26,25 C26,26.1045695 25.1045695,27 24,27 C22.8954305,27 22,26.1045695 22,25 L22,17 C22,15.8954305 22.8954305,15 24,15 Z M16,3 C17.1045695,3 18,3.8954305 18,5 L18,25 C18,26.1045695 17.1045695,27 16,27 C14.8954305,27 14,26.1045695 14,25 L14,5 C14,3.8954305 14.8954305,3 16,3 Z M8,11 L8,11 C9.1045695,11 10,11.8954305 10,13 L10,25 C10,26.1045695 9.1045695,27 8,27 L8,27 C6.8954305,27 6,26.1045695 6,25 L6,13 C6,11.8954305 6.8954305,11 8,11 Z" id="Mask" fill="currentColor"></path>
        </g>
    </g>
</svg>
