<svg xmlns="http://www.w3.org/2000/svg" width="32" height="32" fill="none" viewBox="0 0 32 32"><path fill="url(#a)" d="M16 31.75c8.698 0 15.75-7.052 15.75-15.75S24.698.25 16 .25.25 7.302.25 16 7.302 31.75 16 31.75Z"/><path fill="#fff" d="M24.95 14.335c.44.66.504 1.57.165 2.283l-2.296 4.821c-1.303 2.737-4.643 4.847-7.678 4.847h-.855a6.856 6.856 0 0 1-6.857-6.865v-6.74a2.353 2.353 0 0 1 3-2.264v-.628a2.357 2.357 0 0 1 3.06-2.253 2.356 2.356 0 0 1 2.297-1.822c1.26 0 2.288.986 2.354 2.232a2.356 2.356 0 0 1 3.003 2.272v3.655c1.113-1.096 2.878-.933 3.807.462ZM9.786 12.042a.64.64 0 0 0-.643.639v6.74a5.142 5.142 0 0 0 5.143 5.15h.855c2.377 0 5.112-1.732 6.13-3.869l2.296-4.82a.674.674 0 0 0-.043-.596c-.367-.55-.963-.556-1.328-.009l-1.867 2.8c-.494.741-.9.623-.9-.276v-7.583a.642.642 0 0 0-.643-.647.64.64 0 0 0-.643.64v4.935a.856.856 0 0 1-.857.854.853.853 0 0 1-.857-.853V8.073a.642.642 0 1 0-1.286 0v7.074a.86.86 0 0 1-.857.853.854.854 0 0 1-.857-.855V9.788a.643.643 0 1 0-1.286.001v5.775a.864.864 0 0 1-.857.864.854.854 0 0 1-.857-.856V12.69a.644.644 0 0 0-.643-.648Z"/><defs><linearGradient id="a" x1=".25" x2="31.75" y1=".25" y2="31.75" gradientUnits="userSpaceOnUse"><stop stop-color="#FF5263"/><stop offset="1" stop-color="#FF3347"/></linearGradient></defs></svg>
