<svg xmlns="http://www.w3.org/2000/svg" width="32" height="32" fill="currentColor" viewBox="0 0 32 32"><path fill-rule="evenodd" d="M15.5 31c.989 0 1.956-.093 2.893-.27.342-.064.498-.457.33-.763a8.286 8.286 0 0 1 11.243-11.243c.306.167.7.011.764-.33.177-.938.27-1.905.27-2.894C31 6.94 24.06 0 15.5 0 6.94 0 0 6.94 0 15.5 0 24.06 6.94 31 15.5 31Zm10.11-8.321A1 1 0 0 1 27 23.6v1.782l.311.156 1.536.768a1 1 0 0 1-.894 1.789l-2.107-1.054-.293-.146A1 1 0 0 1 25 26v-2.4a.997.997 0 0 1 .61-.921Zm-4.22 7.162a6 6 0 1 0 9.219-7.683 6 6 0 0 0-9.218 7.683Zm.312-16.137-5.5-5.416a1 1 0 0 0-1.404 0l-5.5 5.416a1 1 0 0 0 1.404 1.425l3.798-3.74V22a1 1 0 1 0 2 0V11.388l3.798 3.741a1 1 0 0 0 1.404-1.425Z" clip-rule="evenodd"/></svg>
