<svg xmlns="http://www.w3.org/2000/svg" width="32" height="32" fill="currentColor" viewBox="0 0 32 32"><path d="M24.396 25.545a1.547 1.547 0 0 1-2.192 0l-4.738-4.747a1.255 1.255 0 0 1 0-1.772 1.249 1.249 0 0 1 1.767 0l2.817 2.823V7.253a1.251 1.251 0 1 1 2.5 0v14.596l2.815-2.823a1.249 1.249 0 0 1 1.768 0c.488.49.488 1.283 0 1.772l-4.737 4.747ZM14.75 6a1.25 1.25 0 1 1 0 2.5h-11a1.25 1.25 0 1 1 0-2.5h11Zm-2 8.7a1.25 1.25 0 1 1 0 2.5h-9a1.25 1.25 0 0 1 0-2.5h9Zm-2 8.8a1.25 1.25 0 1 1 0 2.5h-7a1.25 1.25 0 0 1 0-2.5h7Z"/></svg>