<svg xmlns="http://www.w3.org/2000/svg" width="32" height="32" fill="currentColor" viewBox="0 0 32 32"><path d="M24.395 6.454a1.547 1.547 0 0 0-2.191 0l-4.738 4.748a1.254 1.254 0 0 0 0 1.771c.489.489 1.28.49 1.768 0l2.815-2.822v14.596a1.25 1.25 0 1 0 2.5 0V10.15l2.817 2.822c.488.489 1.28.49 1.768 0a1.255 1.255 0 0 0 0-1.771l-4.739-4.748ZM14.75 26a1.25 1.25 0 0 0 0-2.5h-11a1.25 1.25 0 1 0 0 2.5h11Zm-2-8.7a1.25 1.25 0 1 0 0-2.5h-9a1.25 1.25 0 1 0 0 2.5h9Zm-2-8.8a1.25 1.25 0 1 0 0-2.5h-7a1.25 1.25 0 1 0 0 2.5h7Z"/></svg>