<svg xmlns="http://www.w3.org/2000/svg" width="32" height="32" viewBox="0 0 32 32" fill="currentColor"><path d="M24.396 6.455a1.547 1.547 0 0 0-2.192 0l-4.738 4.747a1.255 1.255 0 0 0 0 1.771c.488.49 1.28.489 1.767 0l2.817-2.822v14.596c0 .691.56 1.253 1.25 1.253s1.25-.562 1.25-1.253V10.15l2.815 2.822c.488.49 1.28.489 1.768 0a1.255 1.255 0 0 0 0-1.771zM16.75 24a1.25 1.25 0 0 0 0-2.5h-13a1.25 1.25 0 1 0 0 2.5zm-3.5-6.7a1.25 1.25 0 0 0 0-2.5h-9.5a1.25 1.25 0 1 0 0 2.5zm-2.5-6.8a1.25 1.25 0 1 0 0-2.5h-7a1.25 1.25 0 1 0 0 2.5z"/></svg>