<svg xmlns="http://www.w3.org/2000/svg" width="32" height="32" fill="none" viewBox="0 0 32 32"><g clip-path="url(#a)"><path fill="url(#b)" fill-rule="evenodd" d="M16 32c8.837 0 16-7.163 16-16S24.837 0 16 0 0 7.163 0 16s7.163 16 16 16" clip-rule="evenodd"/><path fill="#fff" fill-rule="evenodd" d="M16.813 12.077c-.408 1.193-.956 2.398-1.647 3.089s-1.896 1.239-3.089 1.647a19 19 0 0 1-.912.288l-.315.09c-.434.12-.434.927 0 1.047a25 25 0 0 1 1.002.303l.225.075c1.193.408 2.398.956 3.089 1.647.69.69 1.239 1.896 1.647 3.089a19 19 0 0 1 .288.911l.09.316c.12.433.927.433 1.047 0a25 25 0 0 1 .303-1.003l.075-.224c.408-1.193.956-2.398 1.647-3.09.69-.69 1.896-1.238 3.089-1.646l.224-.075a21 21 0 0 1 1.003-.303c.433-.12.433-.927 0-1.048a25 25 0 0 1-1.003-.302l-.224-.075c-1.193-.408-2.398-.956-3.09-1.647-.69-.691-1.238-1.896-1.646-3.089a20 20 0 0 1-.378-1.227c-.12-.434-.927-.434-1.048 0a24 24 0 0 1-.377 1.227" clip-rule="evenodd"/><path fill="#fff" d="M10.72 7.015a.457.457 0 0 0-.868 0L9.504 8.06A2.29 2.29 0 0 1 8.06 9.504l-1.044.348a.457.457 0 0 0 0 .867l1.044.348a2.29 2.29 0 0 1 1.445 1.446l.348 1.043a.457.457 0 0 0 .867 0l.348-1.043a2.29 2.29 0 0 1 1.446-1.446l1.043-.348a.457.457 0 0 0 0-.867l-1.043-.348a2.29 2.29 0 0 1-1.446-1.445z"/></g><defs><linearGradient id="b" x1=".842" x2="32.836" y1="-.842" y2="32.836" gradientUnits="userSpaceOnUse"><stop stop-color="#4eafff"/><stop offset=".499" stop-color="#b984ed"/><stop offset="1" stop-color="#ff4b9c"/></linearGradient><clipPath id="a"><path fill="#fff" d="M0 0h32v32H0z"/></clipPath></defs></svg>