<svg fill="none" height="32" viewBox="0 0 32 32" width="32" xmlns="http://www.w3.org/2000/svg"><g clip-rule="evenodd" fill="currentColor" fill-rule="evenodd"><path d="m9.04818 14.25h-.09636c-.65894 0-1.22739 0-1.69561-.0382-.49418-.0404-.9857-.1295-1.45868-.3705-.7056-.3595-1.27928-.9332-1.6388-1.6388-.241-.473-.33014-.9645-.37052-1.4587-.03825-.4682-.03823-1.03669-.03821-1.69563v-.09633c-.00002-.65894-.00004-1.2274.03821-1.69562.04038-.49418.12952-.98571.37052-1.45868.35952-.70561.9332-1.27929 1.63881-1.63881.47297-.24099.96449-.33014 1.45868-.37052.46821-.03825 1.03667-.03823 1.69562-.03821h.09632c.65895-.00002 1.22744-.00004 1.69564.03821.4942.04038.9857.12953 1.4587.37052.7056.35952 1.2792.9332 1.6388 1.63881.241.47297.3301.9645.3705 1.45868.0382.46821.0382 1.03667.0382 1.6956v.09636c0 .65894 0 1.22742-.0382 1.69562-.0404.4942-.1295.9857-.3705 1.4587-.3596.7056-.9332 1.2793-1.6388 1.6388-.473.241-.9645.3301-1.4587.3705-.4682.0382-1.03668.0382-1.69562.0382zm1.49202-2.5299c.3396-.0278.4655-.0748.5273-.1063.2352-.1199.4264-.3111.5463-.5463.0314-.0618.0785-.1877.1063-.5273.0289-.3542.0299-.8195.0299-1.5402 0-.72069-.001-1.18603-.0299-1.5402-.0278-.33958-.0749-.46548-.1063-.52728-.1199-.23521-.3111-.42643-.5463-.54627-.0618-.0315-.1877-.07859-.5273-.10634-.3542-.02893-.81951-.02991-1.5402-.02991s-1.18603.00098-1.54021.02991c-.33957.02775-.46547.07484-.52728.10634-.2352.11984-.42643.31106-.54627.54626-.03149.06181-.07859.18771-.10633.52729-.02894.35417-.02991.81951-.02991 1.5402s.00097 1.186.02991 1.5402c.02774.3396.07484.4655.10633.5273.11984.2352.31107.4264.54627.5463.06181.0315.18771.0785.52728.1063.35418.0289.81952.0299 1.54021.0299s1.186-.001 1.5402-.0299z"/><path d="m9.04818 27.25h-.09636c-.65894 0-1.22739 0-1.69561-.0382-.49418-.0404-.9857-.1295-1.45868-.3705-.7056-.3595-1.27928-.9332-1.6388-1.6388-.241-.473-.33014-.9645-.37052-1.4587-.03825-.4682-.03823-1.0367-.03821-1.6956v-.0964c-.00002-.6589-.00004-1.2274.03821-1.6956.04038-.4942.12952-.9857.37052-1.4587.35952-.7056.9332-1.2792 1.63881-1.6388.47297-.241.96449-.3301 1.45868-.3705.46821-.0382 1.03667-.0382 1.69562-.0382h.09632c.65895 0 1.22744 0 1.69564.0382.4942.0404.9857.1295 1.4587.3705.7056.3596 1.2792.9332 1.6388 1.6388.241.473.3301.9645.3705 1.4587.0382.4682.0382 1.0367.0382 1.6956v.0964c0 .6589 0 1.2274-.0382 1.6956-.0404.4942-.1295.9857-.3705 1.4587-.3596.7056-.9332 1.2793-1.6388 1.6388-.473.241-.9645.3301-1.4587.3705-.4682.0382-1.03668.0382-1.69562.0382zm1.49202-2.5299c.3396-.0278.4655-.0748.5273-.1063.2352-.1199.4264-.3111.5463-.5463.0314-.0618.0785-.1877.1063-.5273.0289-.3542.0299-.8195.0299-1.5402s-.001-1.186-.0299-1.5402c-.0278-.3396-.0749-.4655-.1063-.5273-.1199-.2352-.3111-.4264-.5463-.5463-.0618-.0314-.1877-.0785-.5273-.1063-.3542-.0289-.81951-.0299-1.5402-.0299s-1.18603.001-1.54021.0299c-.33957.0278-.46547.0749-.52728.1063-.2352.1199-.42643.3111-.54627.5463-.03149.0618-.07859.1877-.10633.5273-.02894.3542-.02991.8195-.02991 1.5402s.00097 1.186.02991 1.5402c.02774.3396.07484.4655.10633.5273.11984.2352.31107.4264.54627.5463.06181.0315.18771.0785.52728.1063.35418.0289.81952.0299 1.54021.0299s1.186-.001 1.5402-.0299z"/><path d="m22.0482 14.25h-.0964c-.6589 0-1.2274 0-1.6956-.0382-.4942-.0404-.9857-.1295-1.4587-.3705-.7056-.3595-1.2793-.9332-1.6388-1.6388-.241-.473-.3301-.9645-.3705-1.4587-.0382-.4682-.0382-1.03669-.0382-1.69563v-.09633c0-.65894 0-1.2274.0382-1.69562.0404-.49418.1295-.98571.3705-1.45868.3596-.70561.9332-1.27929 1.6388-1.63881.473-.24099.9645-.33014 1.4587-.37052.4682-.03825 1.0367-.03823 1.6956-.03821h.0964c.6589-.00002 1.2274-.00004 1.6956.03821.4942.04038.9857.12953 1.4587.37052.7056.35952 1.2792.9332 1.6388 1.63881.241.47297.3301.9645.3705 1.45868.0382.46821.0382 1.03667.0382 1.6956v.09636c0 .65894 0 1.22742-.0382 1.69562-.0404.4942-.1295.9857-.3705 1.4587-.3596.7056-.9332 1.2793-1.6388 1.6388-.473.241-.9645.3301-1.4587.3705-.4682.0382-1.0367.0382-1.6956.0382zm1.492-2.5299c.3396-.0278.4655-.0748.5273-.1063.2352-.1199.4264-.3111.5463-.5463.0314-.0618.0785-.1877.1063-.5273.0289-.3542.0299-.8195.0299-1.5402 0-.72069-.001-1.18603-.0299-1.5402-.0278-.33958-.0749-.46548-.1063-.52728-.1199-.23521-.3111-.42643-.5463-.54627-.0618-.0315-.1877-.07859-.5273-.10634-.3542-.02893-.8195-.02991-1.5402-.02991s-1.186.00098-1.5402.02991c-.3396.02775-.4655.07484-.5273.10634-.2352.11984-.4264.31106-.5463.54626-.0314.06181-.0785.18771-.1063.52729-.0289.35417-.0299.81951-.0299 1.5402s.001 1.186.0299 1.5402c.0278.3396.0749.4655.1063.5273.1199.2352.3111.4264.5463.5463.0618.0315.1877.0785.5273.1063.3542.0289.8195.0299 1.5402.0299s1.186-.001 1.5402-.0299z"/><path d="m22.0482 27.25h-.0964c-.6589 0-1.2274 0-1.6956-.0382-.4942-.0404-.9857-.1295-1.4587-.3705-.7056-.3595-1.2793-.9332-1.6388-1.6388-.241-.473-.3301-.9645-.3705-1.4587-.0382-.4682-.0382-1.0367-.0382-1.6956v-.0964c0-.6589 0-1.2274.0382-1.6956.0404-.4942.1295-.9857.3705-1.4587.3596-.7056.9332-1.2792 1.6388-1.6388.473-.241.9645-.3301 1.4587-.3705.4682-.0382 1.0367-.0382 1.6956-.0382h.0964c.6589 0 1.2274 0 1.6956.0382.4942.0404.9857.1295 1.4587.3705.7056.3596 1.2792.9332 1.6388 1.6388.241.473.3301.9645.3705 1.4587.0382.4682.0382 1.0367.0382 1.6956v.0964c0 .6589 0 1.2274-.0382 1.6956-.0404.4942-.1295.9857-.3705 1.4587-.3596.7056-.9332 1.2793-1.6388 1.6388-.473.241-.9645.3301-1.4587.3705-.4682.0382-1.0367.0382-1.6956.0382zm1.492-2.5299c.3396-.0278.4655-.0748.5273-.1063.2352-.1199.4264-.3111.5463-.5463.0314-.0618.0785-.1877.1063-.5273.0289-.3542.0299-.8195.0299-1.5402s-.001-1.186-.0299-1.5402c-.0278-.3396-.0749-.4655-.1063-.5273-.1199-.2352-.3111-.4264-.5463-.5463-.0618-.0314-.1877-.0785-.5273-.1063-.3542-.0289-.8195-.0299-1.5402-.0299s-1.186.001-1.5402.0299c-.3396.0278-.4655.0749-.5273.1063-.2352.1199-.4264.3111-.5463.5463-.0314.0618-.0785.1877-.1063.5273-.0289.3542-.0299.8195-.0299 1.5402s.001 1.186.0299 1.5402c.0278.3396.0749.4655.1063.5273.1199.2352.3111.4264.5463.5463.0618.0315.1877.0785.5273.1063.3542.0289.8195.0299 1.5402.0299s1.186-.001 1.5402-.0299z"/></g></svg>
