<svg xmlns="http://www.w3.org/2000/svg" width="32" height="32" viewBox="0 0 32 32" fill="currentColor"><path fill-rule="evenodd" d="M16 0c8.837 0 16 7.163 16 16s-7.163 16-16 16S0 24.837 0 16 7.163 0 16 0m-2.8 10c-1.12 0-1.68 0-2.108.218a2 2 0 0 0-.874.874C10 11.52 10 12.08 10 13.2v5.6c0 1.12 0 1.68.218 2.108a2 2 0 0 0 .874.874C11.52 22 12.08 22 13.2 22h5.6c1.12 0 1.68 0 2.108-.218a2 2 0 0 0 .874-.874C22 20.48 22 19.92 22 18.8v-5.6c0-1.12 0-1.68-.218-2.108a2 2 0 0 0-.874-.874C20.48 10 19.92 10 18.8 10z" clip-rule="evenodd"/></svg>