<svg fill="none" height="32" viewBox="0 0 32 32" width="32" xmlns="http://www.w3.org/2000/svg"><path clip-rule="evenodd" d="m6.32525 3.86818c1.20889-.64652 2.39893-.86818 5.00735-.86818h9.3348c2.6084 0 3.7985.22166 5.0073.86818 1.0561.56478 1.8923 1.40103 2.4571 2.45707.6465 1.20889.8682 2.39893.8682 5.00735v9.3348c0 2.6084-.2217 3.7985-.8682 5.0073-.5648 1.0561-1.401 1.8923-2.4571 2.4571-1.2088.6465-2.3989.8682-5.0073.8682h-9.3348c-2.60842 0-3.79846-.2217-5.00735-.8682-1.05604-.5648-1.89229-1.401-2.45707-2.4571-.64652-1.2088-.86818-2.3989-.86818-5.0073v-9.3348c0-2.60842.22166-3.79846.86818-5.00735.56478-1.05604 1.40103-1.89229 2.45707-2.45707zm7.17475 22.62212v-3.2364c0-.6903-.5596-1.25-1.25-1.25s-1.25.5597-1.25 1.25v3.235c-2.20955-.0192-2.86607-.2249-3.49575-.5616-.62037-.3318-1.09976-.8112-1.43154-1.4315-.35309-.6603-.57271-1.35-.57271-3.8284v-9.3348c0-2.4784.21962-3.16813.57271-3.82835.33178-.62037.81117-1.09976 1.43154-1.43154.66022-.35309 1.34995-.57271 3.82835-.57271h9.3348c2.4784 0 3.1681.21962 3.8284.57271.6203.33178 1.0997.81117 1.4315 1.43154.3531.66022.5727 1.34995.5727 3.82835v9.3348c0 2.4784-.2196 3.1681-.5727 3.8284-.3318.6203-.8112 1.0997-1.4315 1.4315-.5795.3099-1.6817.5073-3.4958.5533v-3.2364c0-.6904-.5596-1.25-1.25-1.25s-1.25.5596-1.25 1.25v3.2461zm-5.5-15.2403c0-.6904.55964-1.25 1.25-1.25h13.4931c.6903 0 1.25.5596 1.25 1.25s-.5597 1.25-1.25 1.25h-13.4931c-.69036 0-1.25-.5596-1.25-1.25zm0 6c0-.6904.55964-1.25 1.25-1.25h13.4931c.6903 0 1.25.5596 1.25 1.25s-.5597 1.25-1.25 1.25h-13.4931c-.69036 0-1.25-.5596-1.25-1.25z" fill="#3f8ae0" fill-rule="evenodd"/></svg>
