<svg xmlns="http://www.w3.org/2000/svg" width="32" height="32" fill="none" viewBox="0 0 32 32"><path fill="currentColor" fill-rule="evenodd" d="M17.3911 1.2079a4.247 4.247 0 0 1 2.6247 0c.5615.1824 1.025.5007 1.4664.8754.6632.563 1.2631 1.1994 1.8777 1.8141a1.249 1.249 0 0 1 .0873 1.6696c-.694.8564-.6375 2.0916.1283 2.8574.7659.7659 2.0011.8223 2.8575.1284a1.249 1.249 0 0 1 1.6695.0872c.615.615 1.2509 1.2142 1.8142 1.8778.3747.4414.693.9049.8754 1.4664a4.246 4.246 0 0 1 0 2.6247c-.1824.5615-.5007 1.025-.8754 1.4664-.3579.4215-.8335.8972-1.3971 1.4607L17.536 28.5196c-.5635.5635-1.0392 1.0392-1.4607 1.3971-.4414.3747-.9049.693-1.4664.8754a4.246 4.246 0 0 1-2.6247 0c-.5615-.1824-1.025-.5007-1.4664-.8754-.6632-.563-1.263-1.1994-1.8777-1.8141a1.249 1.249 0 0 1-.0873-1.6695c.694-.8564.6375-2.0916-.1283-2.8575-.7659-.7658-2.001-.8223-2.8575-.1283a1.249 1.249 0 0 1-1.6695-.0873l-.417-.4171c-.5636-.5635-1.0393-1.0392-1.3972-1.4607-.3747-.4414-.693-.9049-.8754-1.4664a4.247 4.247 0 0 1 0-2.6247c.1824-.5615.5007-1.025.8754-1.4664.3579-.4215.8336-.8972 1.3971-1.4608L14.464 3.4805c.5636-.5636 1.0392-1.0393 1.4608-1.3972.4414-.3747.9049-.693 1.4664-.8754Zm1.8527 2.3758a1.7486 1.7486 0 0 0-1.0807 0c-.123.04-.2985.1296-.6217.404-.3344.284-.7381.6862-1.3463 1.2944l-2.5748 2.5748 1.0146 1.0146c.4878.4878.4878 1.2787 0 1.7665-.4877.4877-1.2786.4877-1.7664 0l-1.0146-1.0147-6.5718 6.5718c-.6082.6082-1.0105 1.0119-1.2944 1.3463-.2744.3232-.364.4987-.404.6217a1.7486 1.7486 0 0 0 0 1.0807c.04.123.1296.2985.404.6217.232.2734.5432.593.9812 1.0327 1.713-.795 3.8087-.5023 5.222.911 1.4133 1.4134 1.706 3.509.911 5.222.4397.4379.7593.749 1.0326.9811.3232.2744.4987.3641.6217.404a1.7488 1.7488 0 0 0 1.0807 0c.123-.0399.2985-.1296.6217-.404.3344-.2839.7381-.6862 1.3463-1.2944l6.5718-6.5718-1.0147-1.0146c-.4878-.4878-.4878-1.2787 0-1.7665.4878-.4877 1.2787-.4877 1.7664 0l1.0147 1.0147 2.5748-2.5748c.6082-.6082 1.0105-1.0119 1.2944-1.3463.2744-.3232.3641-.4987.404-.6217a1.7488 1.7488 0 0 0 0-1.0807c-.0399-.123-.1296-.2985-.404-.6217-.2321-.2733-.5432-.5929-.9812-1.0326-1.713.795-3.8086.5023-5.222-.911-1.4133-1.4134-1.706-3.509-.911-5.222-.4397-.438-.7593-.7491-1.0326-.9812-.3232-.2744-.4987-.364-.6217-.404Zm-2.8741 8.7813c.4878-.4878 1.2786-.4878 1.7664 0l1.4989 1.4989c.4878.4878.4878 1.2786 0 1.7664s-1.2786.4878-1.7664 0l-1.4989-1.4989c-.4878-.4877-.4878-1.2786 0-1.7664Z" clip-rule="evenodd"/></svg>
