<svg xmlns="http://www.w3.org/2000/svg" width="32" height="32" fill="currentColor" viewBox="0 0 32 32"><path fill-rule="evenodd" d="M12.404 4c-.52 0-.985 0-1.37.031-.41.034-.84.11-1.26.323a3.25 3.25 0 0 0-1.42 1.42c-.214.42-.289.85-.323 1.26C8 7.42 8 7.885 8 8.405v11.192c0 .52 0 .984.031 1.37.034.41.11.84.323 1.26a3.25 3.25 0 0 0 1.42 1.42c.42.213.85.289 1.26.323.386.031.85.031 1.37.031h11.192c.52 0 .984 0 1.37-.031.41-.034.84-.11 1.26-.323a3.25 3.25 0 0 0 1.42-1.42c.213-.42.289-.85.323-1.26.031-.386.031-.85.031-1.37V8.404c0-.52 0-.984-.031-1.37-.034-.41-.11-.84-.323-1.26a3.25 3.25 0 0 0-1.42-1.42c-.42-.214-.85-.289-1.26-.323C24.58 4 24.115 4 23.595 4H12.404Zm8.097 7.5a2.5 2.5 0 1 0-4.999-.002 2.5 2.5 0 0 0 4.999.002ZM13 17.75l-.001.622c0 .347.281.628.628.628l8.744.001a.628.628 0 0 0 .628-.628v-.622c0-2.187-3.33-2.813-5-2.813-1.668 0-5 .625-5 2.812Z M3 13v7.667c0 2.609.222 3.799.868 5.008a5.923 5.923 0 0 0 2.457 2.457c1.21.646 2.4.868 5.008.868H20a2.5 2.5 0 0 0 2.5-2.5H11.333c-2.479 0-3.169-.22-3.829-.573a3.424 3.424 0 0 1-1.431-1.431c-.353-.66-.573-1.35-.573-3.829V10.5A2.5 2.5 0 0 0 3 13Z"/></svg>
