<svg xmlns="http://www.w3.org/2000/svg" width="32" height="32" fill="none" viewBox="0 0 32 32"><path fill="url(#a)" d="M0 16C0 7.1634 7.1634 0 16 0s16 7.1634 16 16-7.1634 16-16 16S0 24.8366 0 16Z"/><path fill="#fff" d="M21 16.5c2.2941 0 6.5.8571 6.5 4.2857 0 1.5-.3824 1.7143-1.1471 1.7143l-6.0901.0008c.158-.4891.2372-1.0627.2372-1.7151 0-1.7228-.6314-3.0668-1.6718-4.0618.7831-.1605 1.5481-.2239 2.1718-.2239Zm-9 0c2.2941 0 6.5.8571 6.5 4.2857 0 1.5-.3824 1.7143-1.1471 1.7143H6.6471c-.7648 0-1.1471-.2143-1.1471-1.7143C5.5 17.3571 9.7059 16.5 12 16.5ZM12 9c1.6575 0 3 1.3425 3 3s-1.3425 3-3 3-3-1.3425-3-3 1.3425-3 3-3Zm9 0c1.6575 0 3 1.3425 3 3s-1.3425 3-3 3-3-1.3425-3-3 1.3425-3 3-3Z"/><defs><linearGradient id="a" x1="-16" x2="16" y1="16" y2="48" gradientUnits="userSpaceOnUse"><stop stop-color="#70B2FF"/><stop offset="1" stop-color="#5C9CE6"/></linearGradient></defs></svg>
