<svg fill="none" height="32" viewBox="0 0 32 32" width="32" xmlns="http://www.w3.org/2000/svg"><path d="m19.6434 8.31144 4.0446 4.04456-13.2832 13.2845c-.88377.8837-1.97108 1.5367-3.16636 1.9016l-3.31711 1.0127c-.20146.0615-.41463-.052-.47614-.2535-.02216-.0725-.02216-.1501 0-.2227l1.01258-3.3168c.36496-1.1955 1.01809-2.2829 1.90195-3.1667zm5.6584-3.23285 1.6209 1.62088c.6277.62759.6669 1.6208.1177 2.29413l-.1178.1302-2.022 2.0208-4.0457-4.04573 2.0225-2.02032c.6695-.66939 1.7549-.66937 2.4244.00004z" fill="currentColor"/></svg>
