<svg fill="none" height="16" viewBox="0 0 16 16" width="16" xmlns="http://www.w3.org/2000/svg"><g fill="currentColor"><path clip-rule="evenodd" d="m8 14.5c3.5899 0 6.5-2.9101 6.5-6.5 0-3.58985-2.9101-6.5-6.5-6.5-3.58985 0-6.5 2.91015-6.5 6.5 0 3.5899 2.91015 6.5 6.5 6.5zm0 1.5c4.4183 0 8-3.5817 8-8 0-4.41828-3.5817-8-8-8-4.41828 0-8 3.58172-8 8 0 4.4183 3.58172 8 8 8z" fill-rule="evenodd"/><path d="m8.75 4.75c0-.41421-.33579-.75-.75-.75s-.75.33579-.75.75v2.5h-2.5c-.41421 0-.75.33579-.75.75s.33579.75.75.75h2.5v2.5c0 .4142.33579.75.75.75s.75-.3358.75-.75v-2.5h2.5c.4142 0 .75-.33579.75-.75s-.3358-.75-.75-.75h-2.5z"/></g></svg>
