<svg width="16" height="16" viewBox="0 0 16 16" fill="none" xmlns="http://www.w3.org/2000/svg">
<path d="M14.2 13C14.0313 13 13.8115 12.9497 13.6711 12.8513L11.232 10.7C11.232 10.7 11.1091 10.5906 11.0803 10.5539C11.0514 10.5172 11.0312 10.4774 11.0181 10.4319C11.0077 10.3954 11.0019 10.3614 11 10.2891V4.76561C11 4.64812 11.0058 4.60632 11.0188 4.56075C11.0319 4.51517 11.0521 4.47541 11.081 4.43874C11.1098 4.40206 11.2327 4.29 11.2327 4.29L13.6711 2.15489C13.8123 2.05594 14.0421 2.00294 14.2 2C14.6418 2 15 2.35817 15 2.8V12.2C15 12.6418 14.6418 13 14.2 13Z" fill="currentColor"/>
<path d="M9.2 4.5C9.36569 4.5 9.5 4.63431 9.5 4.8V10.2C9.5 10.3657 9.36569 10.5 9.2 10.5L7 10.5025C7 11.1087 7.3257 11.875 7.58333 12.2C7.97411 12.6929 7.86949 13.3199 7.40055 13.7307C6.93162 14.1415 6.05745 14.0749 5.66667 13.5819C5.07771 12.839 4.5 11.6519 4.5 10.5025L4 10.5C2.34315 10.5 1 9.15685 1 7.5C1 5.84315 2.34315 4.5 4 4.5H9.2Z" fill="currentColor"/>
</svg>
