<svg xmlns="http://www.w3.org/2000/svg" width="16" height="16" fill="none" viewBox="0 0 16 16"><path fill="currentColor" fill-rule="evenodd" d="M6 8.75A.75.75 0 0 1 6.75 8h2.5a.75.75 0 1 1 0 1.5h-2.5A.75.75 0 0 1 6 8.75Z" clip-rule="evenodd"/><path fill="currentColor" fill-rule="evenodd" d="M11.25 14.5c1.5188 0 2.75-1.2312 2.75-2.75V6.3831a1.5997 1.5997 0 0 0 .8256-.7567 1.601 1.601 0 0 0 .1681-.5986A2.1401 2.1401 0 0 0 15 4.84v-.2805c.0001-.2443.0001-.5092-.0186-.7385-.0212-.2595-.0737-.6023-.2539-.956a2.5 2.5 0 0 0-1.0925-1.0925c-.3537-.1802-.6966-.2327-.9561-.2539-.2293-.0187-.4942-.0187-.7385-.0186H4.0599c-.244 0-.5088-.0001-.738.0186-.2593.0212-.602.0736-.9554.2536A2.5 2.5 0 0 0 1.274 2.8637c-.1803.3533-.233.696-.2544.9553-.019.2291-.019.4938-.0192.738L1 4.8397a2.276 2.276 0 0 0 .0062.1867c.0089.1095.0367.3414.1677.599A1.6 1.6 0 0 0 2 6.3831V11.75c0 1.5188 1.2312 2.75 2.75 2.75h6.5ZM2.75 5h10.59c.1181 0 .16-.0327.16-.16V4.6c0-.56 0-.84-.109-1.054a1.0005 1.0005 0 0 0-.437-.437C12.7401 3 12.46 3 11.9 3H4.1003c-.5596 0-.8394 0-1.0532.1089a1 1 0 0 0-.437.4366c-.109.2137-.1093.4935-.1098 1.0532l-.0002.2412c0 .1182.0326.1601.16.1601H2.75Zm.75 1.5v5.25c0 .6904.5597 1.25 1.25 1.25h6.5c.6904 0 1.25-.5596 1.25-1.25V6.5h-9Z" clip-rule="evenodd"/><path fill="currentColor" fill-rule="evenodd" d="M6.75 8a.75.75 0 0 0 0 1.5h2.5a.75.75 0 1 0 0-1.5h-2.5Z" clip-rule="evenodd"/></svg>
