<svg xmlns="http://www.w3.org/2000/svg" width="16" height="16" fill="none" viewBox="0 0 16 16"><path fill="currentColor" fill-rule="evenodd" d="M7.388 2.6343a1.7546 1.7546 0 0 1 1.4216-.6329c.4226.017.7763.24 1.0513.4446.2839.2113.6222.5138 1.0227.8718l2.6419 2.3614c.3259.2912.6051.5408.8158.764.221.2342.4192.4922.5328.8163a2.24 2.24 0 0 1 0 1.481c-.1136.324-.3118.5821-.5327.8162-.2108.2233-.49.4729-.8159.7641l-2.6419 2.3614c-.4004.358-.7388.6605-1.0227.8718-.275.2046-.6287.4275-1.0513.4446a1.7547 1.7547 0 0 1-1.4216-.6329c-.2694-.325-.339-.7364-.3698-1.0771-.0317-.3518-.0317-.8049-.0316-1.3412v-.2644l-4.264-.3697c-.811-.0703-1.4783-.6657-1.638-1.4617a4.3296 4.3296 0 0 1 0-1.7032c.1597-.796.827-1.3914 1.638-1.4617l4.264-.3697v-.2644c0-.5363 0-.9894.0316-1.3412.0308-.3407.1004-.752.3698-1.0771Zm1.1717.9384c-.0069.0208-.0295.0954-.0455.2728-.025.2764-.0257.6612-.0257 1.243v.915c0 .3883-.2978.7122-.686.7458l-4.9497.4292a.33.33 0 0 0-.2954.2635 2.8366 2.8366 0 0 0 0 1.116.33.33 0 0 0 .2954.2635l4.9498.4292c.388.0336.686.3575.686.7458v.9151c0 .5817.0007.9665.0256 1.2429.016.1774.0386.252.0455.2728a.2509.2509 0 0 0 .1686.0751c.0201-.0088.091-.0418.234-.1484.2232-.166.511-.4223.9455-.8106L12.5 9.2264c.3551-.3174.5859-.5245.7475-.6958.1563-.1656.1946-.244.2086-.2838a.7475.7475 0 0 0 0-.4936c-.014-.0399-.0523-.1182-.2086-.2838-.1616-.1713-.3924-.3784-.7475-.6958l-2.5922-2.317c-.4345-.3883-.7223-.6446-.9454-.8106-.1432-.1066-.214-.1396-.2341-.1484a.2507.2507 0 0 0-.1686.075Z" clip-rule="evenodd"/></svg>
