<svg xmlns="http://www.w3.org/2000/svg" width="17" height="16" fill="none" viewBox="0 0 17 16"><path fill="currentColor" fill-rule="evenodd" d="M.9988 3.25a.75.75 0 0 1 .75-.75h5.5a.75.75 0 0 1 0 1.5H5.25v4.25a.75.75 0 0 1-1.5 0V4H1.7488a.75.75 0 0 1-.75-.75ZM10 4.25a.75.75 0 0 1 .75-.75h4.5a.75.75 0 0 1 0 1.5h-4.5a.75.75 0 0 1-.75-.75Zm-2.9982 4a.75.75 0 0 1 .75-.75H15.25a.75.75 0 0 1 0 1.5H7.7518a.75.75 0 0 1-.75-.75ZM4 12.25a.75.75 0 0 1 .75-.75h10.5a.75.75 0 0 1 0 1.5H4.75a.75.75 0 0 1-.75-.75Z" clip-rule="evenodd"/></svg>
