<svg xmlns="http://www.w3.org/2000/svg" width="16" height="16" fill="currentColor" viewBox="0 0 16 16"><path fill-rule="evenodd" d="M.999 3.25a.75.75 0 0 1 .75-.75h5.5a.75.75 0 0 1 0 1.5H5.25v4.25a.75.75 0 0 1-1.5 0V4H1.749a.75.75 0 0 1-.75-.75Zm9.001 1a.75.75 0 0 1 .75-.75h4.5a.75.75 0 0 1 0 1.5h-4.5a.75.75 0 0 1-.75-.75Zm-2.998 4a.75.75 0 0 1 .75-.75h7.498a.75.75 0 0 1 0 1.5H7.752a.75.75 0 0 1-.75-.75ZM4 12.25a.75.75 0 0 1 .75-.75h10.5a.75.75 0 0 1 0 1.5H4.75a.75.75 0 0 1-.75-.75Z" clip-rule="evenodd"/></svg>
