<svg fill="none" height="16" width="16" xmlns="http://www.w3.org/2000/svg"><path d="m13.182 3.5c.452 0 .818.336.818.75 0 .38-.308.693-.707.743l-.111.007h-10.364c-.452 0-.818-.336-.818-.75 0-.38.308-.693.707-.743l.111-.007zm0 4c.452 0 .818.336.818.75 0 .38-.308.693-.707.743l-.111.007h-10.364c-.452 0-.818-.336-.818-.75 0-.38.308-.693.707-.743l.111-.007zm-3.727 4c.3 0 .545.336.545.75 0 .38-.205.694-.471.743l-.074.007h-6.91c-.3 0-.545-.336-.545-.75 0-.38.205-.694.471-.743l.074-.007z" fill="currentColor"/></svg>
