<svg height="16" viewBox="0 0 16 16" width="16" xmlns="http://www.w3.org/2000/svg"><g fill="none"><path d="m0 0h16v16h-16z"/><path d="m11.581 3.30165c-.8787-.87868-2.3033-.87868-3.18198 0l-3.53553 3.53553c-1.46447 1.46447-1.46447 3.83882 0 5.30332 1.46446 1.4644 3.83883 1.4644 5.30331 0l.5313-.5313c.2929-.2929.7678-.2929 1.0607 0s.2929.7677 0 1.0606l-.5314.5313c-2.05021 2.0503-5.37432 2.0503-7.42457 0-2.05026-2.0502-2.05026-5.37433 0-7.42458l3.53553-3.53553c1.46447-1.464467 3.83884-1.464467 5.30334 0 1.4644 1.46446 1.4644 3.83883 0 5.3033l-3.53557 3.53551c-.87868.8787-2.3033.8787-3.18198 0s-.87868-2.30328 0-3.18196l1.59099-1.59099c.29289-.29289.76776-.29289 1.06066 0 .29289.2929.29289.76777 0 1.06066l-1.59099 1.59099c-.2929.2929-.2929.76777 0 1.0607.29289.2929.76776.2929 1.06066 0l3.53553-3.53557c.8787-.87868.8787-2.3033 0-3.18198z" fill="currentColor"/></g></svg>
