<svg fill="none" height="16" viewBox="0 0 16 16" width="16" xmlns="http://www.w3.org/2000/svg" xmlns:xlink="http://www.w3.org/1999/xlink"><clipPath id="a"><path d="m0 0h16v16h-16z"/></clipPath><g clip-path="url(#a)"><path clip-rule="evenodd" d="m8.56774 1.09257c1.47146-1.45676 3.85756-1.45676 5.32906 0 1.4709 1.45625 1.4709 3.81693 0 5.27319l-6.01788 5.95274c-.88436.8753-2.32491.8754-3.20918 0-.88383-.875-.88383-2.2949 0-3.16992l2.9969-2.95988c.29731-.29364.77907-.29337 1.07603.00062.29696.29398.29668.77034-.00063 1.06398l-2.99561 2.9586c-.29043.2875-.29043.7557 0 1.0433.28991.287.76589.287 1.0558 0l6.01787-5.95278c.8773-.8688.8775-2.27781 0-3.14651-.877-.86828-2.2986-.86828-3.17568 0l-6.02417 5.96395c-1.46468 1.45004-1.46468 3.83824 0 5.28824 1.46366 1.4491 3.83604 1.4496 5.30033.0015l2.84812-2.8534c.2952-.2958.7769-.2989 1.076-.007.2991.2918.3023.7682.0071 1.0639l-2.85301 2.8584c-2.0586 2.038-5.39663 2.038-7.45522 0-2.058093-2.0375-2.058091-5.37747 0-7.41498z" fill="currentColor" fill-rule="evenodd"/></g></svg>
