<svg fill="none" height="16" viewBox="0 0 16 16" width="16" xmlns="http://www.w3.org/2000/svg"><path clip-rule="evenodd" d="m8 16c4.4183 0 8-3.5817 8-8 0-4.41828-3.5817-8-8-8-4.41828 0-8 3.58172-8 8 0 4.4183 3.58172 8 8 8zm0-1.5c-3.58985 0-6.5-2.9101-6.5-6.5 0-1.52469.52496-2.92677 1.40399-4.03535l9.13131 9.13135c-1.1085.879-2.51061 1.404-4.0353 1.404zm6.5-6.5c0-3.58985-2.9101-6.5-6.5-6.5-1.52469 0-2.92677.52496-4.03535 1.40399l9.13135 9.13131c.879-1.1085 1.404-2.51061 1.404-4.0353z" fill="currentColor" fill-rule="evenodd"/></svg>
