<svg fill="none" height="16" viewBox="0 0 16 16" width="16" xmlns="http://www.w3.org/2000/svg"><path d="m10.7117 5.20171c.2753.25693.3139.67251.1063.97346l-.793.85792c.6128.82992.975 1.85611.975 2.96691 0 2.7614-2.23858 5-5 5s-5-2.2386-5-5c0-2.76142 2.23858-5 5-5 1.1099 0 2.13533.36164 2.96489.9735l.68682-.73524c.28262-.30281.75719-.31918 1.05999-.03655zm-4.7117 1.29829c-1.933 0-3.5 1.567-3.5 3.5s1.567 3.5 3.5 3.5 3.5-1.567 3.5-3.5-1.567-3.5-3.5-3.5zm7.1185-1.19058 1.25.2c.409.06544.6875.45006.6221.85907-.0682.42601-.4542.65675-.8591.62209l-1.25-.2c-.409-.06544-.6875-.45006-.6221-.85907.0682-.42601.4542-.65675.8591-.62209zm.6465-3.10468c.3136.29623.2869.7452.0303 1.06023l-.85.9c-.2844.30114-.7591.3147-1.0603.03029-.3136-.29623-.2869-.7452-.0303-1.06023l.85-.9c.2844-.30114.7591-.3147 1.0603-.03029zm-3.2703-.5441.15 1.25c.0493.41127-.2441.78467-.65534.83402-.42836.0514-.75621-.25649-.83402-.6553l-.15-1.25c-.04935-.41126.24404-.78467.6553-.83402.42836-.051399.75626.25649.83406.6553z" fill="currentColor"/>
</svg>
