<svg width="16" height="16" fill="none" xmlns="http://www.w3.org/2000/svg"><path d="M10.712 5.202a.75.75 0 01.106.973l-.793.858a5 5 0 11-1.06-1.06l.687-.735a.75.75 0 011.06-.036zM6 6.5a3.5 3.5 0 100 7 3.5 3.5 0 000-7zm7.118-1.19l1.25.2a.75.75 0 01.623.858c-.069.426-.455.657-.86.623l-1.25-.2a.75.75 0 01-.622-.86c.069-.426.455-.656.86-.622zm.647-3.105c.314.296.287.745.03 1.06l-.85.9a.75.75 0 01-1.06.03c-.314-.296-.287-.745-.03-1.06l.85-.9a.75.75 0 011.06-.03zm-3.27-.544l.15 1.25a.75.75 0 01-.656.834c-.428.051-.756-.257-.834-.656l-.15-1.25a.75.75 0 01.656-.834c.428-.051.756.257.834.656z" fill="currentColor"/></svg>
