<svg xmlns="http://www.w3.org/2000/svg" width="16" height="16" fill="none" viewBox="0 0 16 16"><path fill="currentColor" fill-rule="evenodd" d="M6.7186 1h2.5628c.6734 0 1.2241 0 1.6717.0366.4632.0378.8816.1185 1.2724.3176a3.2502 3.2502 0 0 1 1.4203 1.4203c.1991.3908.2798.8092.3177 1.2724C14 4.4945 14 5.0452 14 5.7186v6.0497c0 .5569 0 1.0263-.0335 1.3935-.0332.3642-.108.773-.3681 1.1065a1.8997 1.8997 0 0 1-1.4495.7312c-.4228.0109-.796-.1719-1.1087-.3617-.3152-.1913-.6926-.4702-1.1405-.8013L8.5052 12.806c-.179-.1323-.2827-.2085-.3642-.2603-.05-.0318-.073-.042-.0793-.0445a.2504.2504 0 0 0-.1234 0c-.0063.0025-.0293.0127-.0793.0445-.0815.0518-.1852.128-.3642.2603l-1.3945 1.0306c-.4479.331-.8253.6099-1.1405.8012-.3127.1898-.6859.3726-1.1087.3617a1.9 1.9 0 0 1-1.4496-.7312c-.26-.3335-.3348-.7423-.368-1.1065C2 12.7946 2 12.3252 2 11.7683V5.7186c0-.6734 0-1.2241.0366-1.6717.0378-.4632.1185-.8816.3176-1.2724a3.25 3.25 0 0 1 1.4203-1.4203c.3908-.199.8092-.2798 1.2724-.3176C5.4945 1 6.0452 1 6.7186 1ZM7.94 12.5006l-.0018.0006Zm.1198 0 .0018.0006ZM5.169 2.5316c-.3705.0302-.5695.0857-.7136.1591a1.75 1.75 0 0 0-.7648.7648c-.0734.144-.1289.343-.1591.7136-.031.3792-.0316.8685-.0316 1.5809v5.9822c0 .6027.0008 1.0026.0273 1.2932.0222.2435.057.317.0606.3249a.4.4 0 0 0 .2965.1495c.0084-.0017.0882-.0175.2972-.1443.2495-.1514.5715-.3885 1.0562-.7467l1.3655-1.0092.0686-.0509c.2685-.1996.5545-.4122.8874-.4988a1.7501 1.7501 0 0 1 .8814 0c.333.0866.6189.2992.8874.4988l.0686.0509 1.3655 1.0092c.4847.3582.8067.5953 1.0562.7467.209.1268.2888.1426.2972.1443a.3998.3998 0 0 0 .2965-.1495c.0036-.0079.0384-.0814.0606-.3249.0266-.2906.0273-.6905.0273-1.2932V5.75c0-.7124-.0006-1.2017-.0316-1.581-.0302-.3704-.0857-.5694-.1591-.7135a1.75 1.75 0 0 0-.7648-.7648c-.1441-.0734-.3431-.1289-.7136-.1591C10.4517 2.5006 9.9624 2.5 9.25 2.5h-2.5c-.7124 0-1.2017.0006-1.581.0316Z" clip-rule="evenodd"/></svg>
