<svg fill="none" height="16" viewBox="0 0 16 16" width="16" xmlns="http://www.w3.org/2000/svg"><path clip-rule="evenodd" d="m7.0179 1h1.96421c.81284-.000007 1.46849-.000013 1.99939.04336.5466.04467 1.0267.13903 1.471.36537.7056.35952 1.2793.9332 1.6388 1.63881.2263.44421.3207.92436.3653 1.47099.0434.53091.0434 1.18652.0434 1.99935v6.00782c0 .6006 0 1.103-.0361 1.4968-.0361.3941-.1165.8153-.3793 1.1625-.3618.4781-.9148.7738-1.5134.8093-.4346.0257-.8296-.1412-1.1774-.33-.3475-.1887-.7654-.4676-1.2649-.8012l-1.65693-1.1062c-.16852-.1125-.26537-.1767-.34108-.2204-.04655-.0268-.06769-.0354-.07341-.0374-.0378-.0089-.07716-.0089-.11496 0-.00573.002-.02687.0106-.07341.0374-.07571.0437-.17256.1079-.34108.2204l-1.65692 1.1062c-.49956.3336-.91737.6125-1.26492.8012-.34782.1888-.7428.3557-1.17741.33-.59856-.0355-1.15158-.3312-1.51343-.8093-.26273-.3472-.34319-.7684-.3793-1.1625-.03608-.3938-.03606-.8962-.03605-1.4968v-6.0078c-.00001-.81284-.00001-1.46846.04336-1.99937.04467-.54663.13903-1.02678.36537-1.47099.35952-.70561.9332-1.27929 1.63881-1.63881.44422-.22634.92436-.3207 1.47099-.36537.53091-.043373 1.18653-.043367 1.99937-.04336zm.92629 12.4986-.00167.0005zm.11163 0 .00166.0005zm-2.91514-10.96022c-.45387.03709-.71464.10622-.91216.20686-.42336.21571-.76757.55992-.98328.98328-.10064.19752-.16977.45828-.20686.91216-.0378.46263-.03838 1.05687-.03838 1.90932v5.9393c0 .6466.00076 1.0794.0298 1.3963.01407.1537.03282.2532.05172.3185.01788.0618.03173.0781.02992.0757.09708.1283.24545.2076.40604.2171.00271.0001.02566-.0001.07954-.0171.06478-.0205.15798-.0602.29358-.1338.27975-.1519.64014-.3916 1.1779-.7506l1.62664-1.086c.02129-.0142.04268-.0286.06419-.043.2534-.1702.52363-.3516.8324-.4257.26837-.0644.54817-.0644.81654 0 .30877.0741.579.2555.8324.4257.02151.0144.04291.0288.06419.043l1.62664 1.086c.5378.359.8982.5987 1.1779.7506.1356.0736.2288.1133.2936.1338.0613.0194.0825.0169.0795.0171.1606-.0095.309-.0888.4061-.2171.0015-.0022.0142-.0214.0299-.0757.0189-.0653.0376-.1648.0517-.3185.029-.3169.0298-.7497.0298-1.3963v-5.9393c0-.85245-.0006-1.44669-.0384-1.90932-.0371-.45388-.1062-.71464-.2068-.91216-.2157-.42336-.56-.76757-.9833-.98328-.1975-.10064-.4583-.16977-.9122-.20686-.4626-.0378-1.05684-.03838-1.9093-.03838h-1.9c-.85245 0-1.44669.00058-1.90932.03838z" fill="currentColor" fill-rule="evenodd"/></svg>
