<svg xmlns="http://www.w3.org/2000/svg" width="16" height="16" fill="none" viewBox="0 0 16 16"><path fill="currentColor" fill-rule="evenodd" d="M7.5179 1h.9642c.8128 0 1.4685 0 1.9994.0433.5466.0447 1.0267.139 1.471.3652a3.7487 3.7487 0 0 1 1.6388 1.6377c.2263.4439.3207.9237.3653 1.47C14 5.0467 14 5.7019 14 6.5142v5.4993c0 .4969 0 .9208-.0305 1.2542-.0303.3315-.0992.7152-.3446 1.0329a1.8002 1.8002 0 0 1-1.3582.6985c-.4012.0148-.7538-.1521-1.0413-.3202-.2892-.1689-.6344-.4154-1.039-.7042l-1.6923-1.208c-.1756-.1253-.277-.1972-.3565-.2461-.0488-.03-.0712-.0397-.0773-.042a.251.251 0 0 0-.1206 0c-.006.0023-.0285.012-.0773.042-.0795.0489-.181.1208-.3564.2461l-1.6923 1.208c-.4047.2888-.7499.5353-1.039.7042-.2876.1681-.6402.335-1.0414.3202a1.8004 1.8004 0 0 1-1.3582-.6985c-.2454-.3177-.3143-.7014-.3446-1.0329C2 12.9343 2 12.5104 2 12.0135V6.5142c0-.8123 0-1.4675.0434-1.998.0446-.5463.139-1.0261.3653-1.47a3.7487 3.7487 0 0 1 1.6388-1.6377c.4443-.2262.9244-.3205 1.471-.3652C6.0495 1 6.7051 1 7.518 1Zm.4236 11.478-.0018.0006Zm.117 0 .0018.0006ZM5.6407 2.5374c-.4539.037-.7147.1061-.9122.2067a2.2492 2.2492 0 0 0-.9833.9826c-.1006.1974-.1697.458-.2068.9116-.0378.4623-.0384 1.0561-.0384 1.908v5.4318c0 .542.0008.8964.0242 1.1531.0165.1798.0402.248.0458.2628a.2998.2998 0 0 0 .207.1064c.0152-.0041.0846-.0244.2405-.1155.2227-.1301.5117-.3355.953-.6505l1.6636-1.1875c.283-.202.5837-.4319.9362-.5211a1.751 1.751 0 0 1 .8594 0c.3525.0892.6532.3191.9362.5211l1.6636 1.1875c.4413.315.7303.5204.953.6505.1559.0911.2253.1114.2406.1155a.2997.2997 0 0 0 .2069-.1064c.0056-.0148.0293-.083.0458-.2628.0235-.2567.0242-.6111.0242-1.1531V6.5463c0-.8519-.0006-1.4457-.0384-1.908-.0371-.4536-.1062-.7142-.2068-.9116a2.2495 2.2495 0 0 0-.9833-.9826c-.1975-.1006-.4583-.1697-.9122-.2067-.4626-.0378-1.0568-.0384-1.9093-.0384h-.9c-.8525 0-1.4467.0006-1.9093.0384Z" clip-rule="evenodd"/></svg>
