<svg fill="none" height="16" viewBox="0 0 16 16" width="16" xmlns="http://www.w3.org/2000/svg"><g clip-rule="evenodd" fill="currentColor" fill-rule="evenodd"><path d="m5.3339 9.99472c-.80532 0-1.41573.61638-1.4516 1.38048-.05075 1.0814-.56571 1.7273-1.02824 2.1205.42255.1236 1.01494.1696 1.78124-.0585 1.52217-.4531 2.14955-1.3787 2.14955-2.0903 0-.7177-.61991-1.35218-1.45095-1.35218zm-2.64702 1.32388c.06528-1.39076 1.18874-2.52515 2.64702-2.52515 1.43258 0 2.6477 1.11416 2.6477 2.55345 0 1.4454-1.19908 2.7041-3.00606 3.242-1.72628.5138-2.91228-.0198-3.47904-.4385-.06731-.0497-.16835-.1391-.23443-.2822-.0755-.1634-.07845-.3382-.02862-.4911.11974-.3677.50941-.527.78973-.7508.30586-.244.63089-.6088.6637-1.3077z"/><path d="m12.5615 1.60113c.4881-.51019 1.2872-.53868 1.809-.05694.517.4774.5735 1.28237.1357 1.83011l-4.86376 5.99851c-.2086.25728-.5855.29609-.84181.08669-.25631-.20939-.29498-.58771-.08637-.84499l4.85924-5.99292c.0459-.05852.0367-.14718-.0132-.19328-.0536-.04948-.1068-.02111-.1617.03148l-5.60226 5.36669c-.23907.22902-.61784.22014-.846-.01984-.22816-.23997-.21931-.62017.01976-.84919z"/></g></svg>
