<svg height="16" viewBox="0 0 16 16" width="16" xmlns="http://www.w3.org/2000/svg"><g fill="none" transform=""><path d="m0 0h16v16h-16z"/><path d="m8 3-.001.999h.001v-.999h1.25c.74677496 0 .74998613.99141839 1.4903664.99994469l.0162341.00005531c.7800788 0 1.0629543.08122241 1.3481395.23374112.2851852.1525187.5090002.3763337.6615189.66151889.1525187.28518518.2337411.56806064.2337411 1.34813954v3.5132009c0 .78007885-.0812224 1.06295435-.2337411 1.34813955s-.3763337.5090002-.6615189.6615189-.5680607.2337411-1.3481395.2337411h-5.51320095c-.7800789 0-1.06295436-.0812224-1.34813954-.2337411-.28518519-.1525187-.50900019-.3763337-.66151889-.6615189-.15251871-.2851852-.23374112-.5680607-.23374112-1.34813955v-3.5132009c0-.7800789.08122241-1.06295436.23374112-1.34813954.1525187-.28518519.3763337-.50900019.66151889-.66151889.28518518-.15251871.56806064-.23374112 1.34813954-.23374112l.01629402-.000056c.74032047-.00857912.74355162-.999944 1.49030643-.999944zm0 2.25c-1.51878306 0-2.75 1.23121694-2.75 2.75s1.23121694 2.75 2.75 2.75 2.75-1.23121694 2.75-2.75-1.23121694-2.75-2.75-2.75zm0 1.25c.82842712 0 1.5.67157288 1.5 1.5s-.67157288 1.5-1.5 1.5-1.5-.67157288-1.5-1.5.67157288-1.5 1.5-1.5z" fill="currentColor"/></g></svg>
