<svg fill="none" height="16" viewBox="0 0 16 16" width="16" xmlns="http://www.w3.org/2000/svg"><g fill="currentColor"><path clip-rule="evenodd" d="m8 14.5c3.5899 0 6.5-2.9101 6.5-6.5 0-3.58985-2.9101-6.5-6.5-6.5-3.58985 0-6.5 2.91015-6.5 6.5 0 3.5899 2.91015 6.5 6.5 6.5zm0 1.5c4.4183 0 8-3.5817 8-8 0-4.41828-3.5817-8-8-8-4.41828 0-8 3.58172-8 8 0 4.4183 3.58172 8 8 8z" fill-rule="evenodd"/><path d="m6.28033 5.21967c-.29289-.29289-.76777-.29289-1.06066 0s-.29289.76777 0 1.06066l1.71967 1.71967-1.71966 1.71967c-.2929.29293-.29289.76773 0 1.06063s.76777.2929 1.06066 0l1.71966-1.71963 1.71966 1.71963c.29294.2929.76774.2929 1.06064 0s.2929-.7677 0-1.06063l-1.71964-1.71967 1.71964-1.71967c.2929-.29289.2929-.76777 0-1.06066s-.7677-.29289-1.06063 0l-1.71967 1.71967z"/></g></svg>
