<svg fill="none" height="16" viewBox="0 0 16 16" width="16" xmlns="http://www.w3.org/2000/svg"><path clip-rule="evenodd" d="m8 13.5c3.0376 0 5.5-2.4624 5.5-5.5 0-3.03757-2.4624-5.5-5.5-5.5-3.03757 0-5.5 2.46243-5.5 5.5 0 3.0376 2.46243 5.5 5.5 5.5zm0 1.5c3.866 0 7-3.134 7-7 0-3.86599-3.134-7-7-7-3.86599 0-7 3.13401-7 7 0 3.866 3.13401 7 7 7zm-2.29808-9.2981c.29289-.29289.76776-.29289 1.06066 0l1.23742 1.23743 1.23743-1.23743c.29289-.29289.76777-.29289 1.06067 0 .2929.2929.2929.76777 0 1.06066l-1.23744 1.23743 1.23744 1.23745c.2929.29289.2929.76776 0 1.06066s-.76776.2929-1.06065 0l-1.23745-1.23745-1.23744 1.23745c-.2929.2929-.76777.2929-1.06066 0-.2929-.2929-.2929-.76777 0-1.06066l1.23744-1.23745-1.23742-1.23743c-.2929-.29289-.2929-.76776 0-1.06066z" fill="currentColor" fill-rule="evenodd"/></svg>
