<svg xmlns="http://www.w3.org/2000/svg" width="16" height="16" viewBox="0 0 16 16"><path fill="currentColor" fill-rule="nonzero" d="M8 15c-3.866 0-7-3.134-7-7s3.134-7 7-7 7 3.134 7 7-3.134 7-7 7zm0-1.5c3.038 0 5.5-2.462 5.5-5.5S11.038 2.5 8 2.5 2.5 4.962 2.5 8s2.462 5.5 5.5 5.5zm0-6.56l1.47-1.47c.293-.293.767-.293 1.06 0 .293.293.293.767 0 1.06L9.06 8l1.47 1.47c.293.293.293.767 0 1.06-.293.293-.767.293-1.06 0L8 9.06l-1.47 1.47c-.293.293-.767.293-1.06 0-.293-.293-.293-.767 0-1.06L6.94 8 5.47 6.53c-.293-.293-.293-.767 0-1.06.293-.293.767-.293 1.06 0L8 6.94z"/></svg>
