<svg xmlns="http://www.w3.org/2000/svg" width="16" height="16" fill="none" viewBox="0 0 16 16"><path fill="currentColor" d="M6.6829 1.5786c-.2293.29-.3023.7104-.4482 1.5512l-.1083.6237a.6824.6824 0 0 0-.0018.0103L5.1582 9.331c-.146.8408-.219 1.2611-.1011 1.6133 0 .0001 0 0 0 0 .0247.0739.0551.1459.0909.2151.114.2209.282.4152.491.5657.3123.2246.7582.3045 1.65.4642l3.5057.6279c.8917.1597 1.3376.2396 1.7066.137.3246-.0903.6081-.2763.8098-.5314.2293-.29.3023-.7104.4482-1.5512l1.0765-6.2013c.1459-.8407.2189-1.261.1011-1.6133-.1036-.3098-.3074-.583-.582-.7807-.3122-.2246-.7581-.3045-1.6499-.4642l-3.5057-.6279c-.8918-.1597-1.3376-.2396-1.7067-.137-.3246.0903-.608.2763-.8097.5314Z M4.4879 3.9534c.0578.1358.025.3241-.0403.7008l-.7745 4.4616c-.0656.3776-.1301.7491-.1575 1.0693-.0304.3545-.0301.7788.1207 1.2298.208.6218.6105 1.1525 1.1326 1.5281.3714.2672.7632.402 1.1087.4917.3187.0828.7025.1515 1.1083.2241l1.5813.2832c.0625.0112.0843.088.0335.1261-.2872.2156-.701.2872-1.5288.4304l-1.9746.3416c-.8278.1432-1.2417.2148-1.5869.1086a1.5156 1.5156 0 0 1-.7622-.5334c-.218-.2879-.2925-.7013-.4415-1.5281L1.1684 6.572c-.149-.8268-.2236-1.2401-.1194-1.5838a1.4848 1.4848 0 0 1 .5297-.7569c.2871-.2156.701-.2872 1.5288-.4304l.4155-.0718c.3767-.0652.565-.0978.7008-.0399a.5.5 0 0 1 .264.2642Z"/></svg>
