<svg fill="none" height="16" viewBox="0 0 16 16" width="16" xmlns="http://www.w3.org/2000/svg"><g clip-rule="evenodd" fill="currentColor" fill-rule="evenodd"><path d="m8 14.5c3.5899 0 6.5-2.9101 6.5-6.5 0-3.58985-2.9101-6.5-6.5-6.5-3.58985 0-6.5 2.91015-6.5 6.5 0 3.5899 2.91015 6.5 6.5 6.5zm0 1.5c4.4183 0 8-3.5817 8-8 0-4.41828-3.5817-8-8-8-4.41828 0-8 3.58172-8 8 0 4.4183 3.58172 8 8 8z"/><path d="m11.7803 5.46967c.2929.29289.2929.76777 0 1.06066l-4.24997 4.24997c-.29289.2929-.76777.2929-1.06066 0l-2.25-2.24997c-.29289-.29289-.29289-.76777 0-1.06066s.76777-.29289 1.06066 0l1.71967 1.71967 3.7197-3.71967c.2929-.29289.7677-.29289 1.0606 0z"/></g></svg>
