<svg fill="none" height="16" viewBox="0 0 16 16" width="16" xmlns="http://www.w3.org/2000/svg"><path clip-rule="evenodd" d="m13.5 8c0 3.0376-2.4624 5.5-5.5 5.5-3.03757 0-5.5-2.4624-5.5-5.5 0-3.03757 2.46243-5.5 5.5-5.5 3.0376 0 5.5 2.46243 5.5 5.5zm1.5 0c0 3.866-3.134 7-7 7-3.86599 0-7-3.134-7-7 0-3.86599 3.13401-7 7-7 3.866 0 7 3.13401 7 7zm-3.7197-.96967c.2929-.29289.2929-.76777 0-1.06066s-.7677-.29289-1.0606 0l-2.9697 2.96967-1.46967-1.46967c-.29289-.29289-.76777-.29289-1.06066 0s-.29289.76777 0 1.06066l2 1.99997c.29289.2929.76777.2929 1.06066 0z" fill="currentColor" fill-rule="evenodd"/></svg>
