<svg xmlns="http://www.w3.org/2000/svg" width="16" height="16" viewBox="0 0 16 16"><path fill="currentColor" fill-rule="nonzero" d="M8 15c-3.866 0-7-3.134-7-7s3.134-7 7-7 7 3.134 7 7-3.134 7-7 7zm0-1.5c3.038 0 5.5-2.462 5.5-5.5S11.038 2.5 8 2.5 2.5 4.962 2.5 8s2.462 5.5 5.5 5.5zM5.996 7.938l1.12.987L9.92 5.523c.265-.32.738-.365 1.057-.102.32.265.365.738.102 1.057l-3.104 3.76c-.01.014-.01.014-.023.028-.383.434-1.047.476-1.482.092L5.005 9.062c-.31-.274-.34-.748-.066-1.058.274-.31.748-.34 1.058-.066z"/></svg>
