<svg fill="none" height="16" viewBox="0 0 17 16" width="17" xmlns="http://www.w3.org/2000/svg"><g clip-rule="evenodd" fill="currentColor" fill-rule="evenodd"><path d="m8.02048 14.5c3.58982 0 6.50002-2.9101 6.50002-6.5 0-3.58985-2.9102-6.5-6.50002-6.5-3.58985 0-6.5 2.91015-6.5 6.5 0 3.5899 2.91015 6.5 6.5 6.5zm0 1.5c4.41832 0 8.00002-3.5817 8.00002-8 0-4.41828-3.5817-8-8.00002-8-4.41828 0-8.0000027 3.58172-8.0000027 8 0 4.4183 3.5817227 8 8.0000027 8z"/><path d="m10.6708 11.0854c-.1852.3705-.6357.5207-1.00621.3354l-2.5-1.25c-.25409-.127-.41459-.38672-.41459-.6708v-4.25c0-.41421.33579-.75.75-.75s.75.33579.75.75v3.78647l2.0854 1.04273c.3705.1852.5207.6357.3354 1.0062z"/></g></svg>
