<svg fill="none" height="16" viewBox="0 0 16 16" width="16" xmlns="http://www.w3.org/2000/svg"><g fill="currentColor"><path d="m8 4.75c0-.41421-.33579-.75-.75-.75s-.75.33579-.75.75v4c0 .29411.1719.56107.43965.68278l2.75 1.25002c.37705.1714.82175.0046.99315-.3724.1714-.37713.0046-.82177-.3724-.99318l-2.3104-1.05015z"/><path clip-rule="evenodd" d="m16 8c0 4.4183-3.5817 8-8 8-4.41828 0-8-3.5817-8-8 0-4.41828 3.58172-8 8-8 4.4183 0 8 3.58172 8 8zm-1.5 0c0 3.5899-2.9101 6.5-6.5 6.5-3.58985 0-6.5-2.9101-6.5-6.5 0-3.58985 2.91015-6.5 6.5-6.5 3.5899 0 6.5 2.91015 6.5 6.5z" fill-rule="evenodd"/></g></svg>
