<svg fill="none" height="16" width="16" xmlns="http://www.w3.org/2000/svg"><path clip-rule="evenodd" d="M15.343 4.539c.05-.161-.124-.292-.281-.232A3 3 0 0111.194.438c.059-.157-.072-.331-.233-.281A3.502 3.502 0 008.5 3.5v.035A4.02 4.02 0 019.97 5.01a3.747 3.747 0 013.427 1.7 3.51 3.51 0 001.946-2.171zM1.5 9A2.5 2.5 0 004 11.5h6.25a2.75 2.75 0 10-.41-5.47 3.001 3.001 0 00-5.799.47H4A2.5 2.5 0 001.5 9zm6 3.5a.55.55 0 01.55.55v.247l.214-.123a.55.55 0 11.55.952l-.214.124.214.124a.55.55 0 11-.55.952l-.214-.123v.247a.55.55 0 11-1.1 0v-.247l-.214.123a.55.55 0 11-.55-.952l.214-.124-.214-.124a.55.55 0 11.55-.952l.214.123v-.247a.55.55 0 01.55-.55z" fill="currentColor" fill-rule="evenodd"/></svg>
