<svg fill="none" height="16" width="16" xmlns="http://www.w3.org/2000/svg"><path clip-rule="evenodd" d="M10 0a.75.75 0 01.75.75v1a.75.75 0 01-1.5 0v-1A.75.75 0 0110 0zm2.5 6c0 .428-.107.83-.296 1.182a4.724 4.724 0 00-2.268-.678 4.77 4.77 0 00-1.97-1.957A2.5 2.5 0 0112.5 6zm2.75.75a.75.75 0 000-1.5h-1a.75.75 0 000 1.5zM5.757 1.757a.75.75 0 011.061 0l.707.707a.75.75 0 01-1.06 1.061l-.708-.707a.75.75 0 010-1.06zm8.486 1.061a.75.75 0 00-1.061-1.06l-.707.706a.75.75 0 001.06 1.061zM2.5 14.5a2.5 2.5 0 11.087-4.998 3.25 3.25 0 116.348-1.399A3.25 3.25 0 119.75 14.5z" fill="currentColor" fill-rule="evenodd"/></svg>
