<svg xmlns="http://www.w3.org/2000/svg" width="16" height="16" fill="currentColor" viewBox="0 0 16 16"><path fill-rule="evenodd" d="M10 0a.75.75 0 0 1 .75.75v1a.75.75 0 0 1-1.5 0v-1A.75.75 0 0 1 10 0Zm2.5 6c0 .428-.107.83-.296 1.182a4.724 4.724 0 0 0-2.268-.678 4.77 4.77 0 0 0-1.97-1.957A2.5 2.5 0 0 1 12.5 6Zm2.75.75a.75.75 0 0 0 0-1.5h-1a.75.75 0 0 0 0 1.5h1ZM5.757 1.757a.75.75 0 0 1 1.061 0l.707.707a.75.75 0 0 1-1.06 1.061l-.708-.707a.75.75 0 0 1 0-1.06Zm8.486 1.061a.75.75 0 0 0-1.061-1.06l-.707.706a.75.75 0 0 0 1.06 1.061l.708-.707ZM2.5 14.5a2.5 2.5 0 1 1 .087-4.998 3.25 3.25 0 1 1 6.348-1.399A3.25 3.25 0 1 1 9.75 14.5H2.501Z" clip-rule="evenodd"/></svg>
