<svg fill="none" height="16" width="16" xmlns="http://www.w3.org/2000/svg"><path clip-rule="evenodd" d="M15.343 4.539c.05-.161-.124-.292-.281-.232A3 3 0 0111.194.438c.059-.157-.072-.331-.233-.281A3.502 3.502 0 008.5 3.5v.035A4.02 4.02 0 019.97 5.01a3.747 3.747 0 013.427 1.7 3.51 3.51 0 001.946-2.171zM1.5 9A2.5 2.5 0 004 11.5h6.25a2.75 2.75 0 10-.874-5.358 3.001 3.001 0 00-5.841.401A2.5 2.5 0 001.5 9zm5.645 3.52a.55.55 0 01.386.675l-.143.521.51.093a.55.55 0 01.433.686l-.3 1.1a.55.55 0 01-1.062-.29l.143-.521-.51-.093a.55.55 0 01-.433-.686l.3-1.1a.55.55 0 01.676-.386z" fill="currentColor" fill-rule="evenodd"/></svg>
