<svg fill="none" height="16" width="16" xmlns="http://www.w3.org/2000/svg"><path clip-rule="evenodd" d="M4 9a2.5 2.5 0 11.087-4.998 3.25 3.25 0 116.348-1.399A3.255 3.255 0 0114.5 5.75 3.25 3.25 0 0111.25 9zm3.458 2.487a.75.75 0 00-1.423-.474l-.667 2a.75.75 0 001.424.474zm-2.746 0a.75.75 0 00-1.424-.474l-1 3a.75.75 0 001.424.474zM11 10.5a.75.75 0 01.75.75v.201l.174-.1a.75.75 0 01.75 1.299l-.174.1.174.1a.75.75 0 11-.75 1.3l-.174-.1v.2a.75.75 0 01-1.5 0v-.2l-.174.1a.75.75 0 01-.75-1.3l.174-.1-.174-.1a.75.75 0 11.75-1.3l.174.101v-.2a.75.75 0 01.75-.75z" fill="currentColor" fill-rule="evenodd"/></svg>
