<svg fill="none" height="16" width="16" xmlns="http://www.w3.org/2000/svg"><path clip-rule="evenodd" d="M15.062 4.307c.158-.06.331.07.281.232a3.51 3.51 0 01-1.946 2.171 3.747 3.747 0 00-3.427-1.7A4.02 4.02 0 008.5 3.535V3.5C8.5 1.929 9.535.6 10.961.157c.161-.05.292.124.232.281a3 3 0 003.868 3.869zM1.5 9A2.5 2.5 0 004 11.5h6.25a2.75 2.75 0 10-.874-5.358 3.001 3.001 0 00-5.841.401A2.5 2.5 0 001.5 9zm7.155 3.536a.65.65 0 01.41.822l-.448 1.347a.65.65 0 11-1.234-.41l.45-1.348a.65.65 0 01.822-.411zm-2.5 0a.65.65 0 01.41.823l-.698 2.097a.65.65 0 01-1.234-.41l.7-2.098a.65.65 0 01.822-.411z" fill="currentColor" fill-rule="evenodd"/></svg>
