<svg fill="none" height="16" width="16" xmlns="http://www.w3.org/2000/svg"><path clip-rule="evenodd" d="M11 .4a.65.65 0 00-.65.65v.3a.65.65 0 101.3 0v-.3A.65.65 0 0011 .4zM10.25 5c.963 0 1.841.363 2.505.96a2 2 0 10-3.528-1.886c.292.272.543.588.743.936.093-.007.186-.01.28-.01zM7.747 2.379a.65.65 0 11.92-.92l.212.213a.65.65 0 01-.92.919zM15.6 5a.65.65 0 00-.65-.65h-.3a.65.65 0 100 1.3h.3A.65.65 0 0015.6 5zm-2.266-3.253a.65.65 0 11.919.92l-.212.212a.65.65 0 01-.92-.92zM1.5 9A2.5 2.5 0 004 11.5h6.25a2.75 2.75 0 10-.874-5.358 3.001 3.001 0 00-5.841.401A2.5 2.5 0 001.5 9zm7.566 4.358a.65.65 0 10-1.233-.411l-.45 1.348a.65.65 0 101.234.41zm-2.5.001a.65.65 0 00-1.234-.411l-.699 2.097a.65.65 0 001.234.411z" fill="currentColor" fill-rule="evenodd"/></svg>
