<svg fill="none" height="16" width="16" xmlns="http://www.w3.org/2000/svg"><path clip-rule="evenodd" d="M10.35 1.05a.65.65 0 111.3 0v.3a.65.65 0 11-1.3 0zm2.405 4.91a3.736 3.736 0 00-2.785-.95 4.018 4.018 0 00-.743-.936 2 2 0 113.528 1.886zm-5.008-4.5a.65.65 0 000 .919l.212.212a.65.65 0 00.92-.92l-.212-.211a.65.65 0 00-.92 0zm7.203 2.89a.65.65 0 110 1.3h-.3a.65.65 0 110-1.3zm-.697-2.603a.65.65 0 00-.92 0l-.212.212a.65.65 0 00.92.92l.212-.212a.65.65 0 000-.92zM1.5 9A2.5 2.5 0 004 11.5h6.25a2.75 2.75 0 10-.875-5.358 3.001 3.001 0 00-5.84.401A2.5 2.5 0 001.5 9zm6.55 4.05a.55.55 0 10-1.1 0v.247l-.214-.123a.55.55 0 10-.55.952l.214.124-.214.124a.55.55 0 10.55.952l.214-.123v.247a.55.55 0 101.1 0v-.247l.214.123a.55.55 0 10.55-.952L8.6 14.25l.214-.124a.55.55 0 10-.55-.952l-.214.123z" fill="currentColor" fill-rule="evenodd"/></svg>
