<svg fill="none" height="16" viewBox="0 0 16 16" width="16" xmlns="http://www.w3.org/2000/svg"><path clip-rule="evenodd" d="m4.92597 15.3858c-.56051-.2321-.92597-.7791-.92597-1.3858v-1.5c-.22731 0-.46817-.0014-.67895-.0186-.25951-.0212-.60237-.0737-.95603-.2539-.4704-.2397-.85285-.6221-1.09254-1.0925-.18019-.3537-.23267-.6965-.25387-.956-.018739-.22933-.018677-.49423-.018619-.73855.000389-1.62696.000389-3.25392 0-4.88087-.000058-.24432-.00012-.50922.018619-.73851.0212-.25952.07368-.60238.25387-.95603.23969-.47041.62214-.85286 1.09254-1.09254.35366-.1802.69652-.23268.95603-.25388.22929-.01874.49419-.01867.73851-.01861 2.62696.00062 5.25392.00062 7.88084 0 .2444-.00006.5093-.00013.7385.01861.2596.0212.6024.07368.9561.25388.4704.23968.8528.62213 1.0925 1.09254.1802.35365.2327.69651.2539.95603.0187.22929.0187.49419.0186.73852-.0003 1.62695-.0003 3.2539 0 4.88085.0001.24432.0001.50923-.0186.73856-.0212.2595-.0737.6023-.2539.956-.2397.4704-.6221.8528-1.0925 1.0925-.3537.1802-.6965.2327-.9561.2539-.2292.0187-.4942.0187-.7385.0186-.9492-.0002-1.8794-.0004-2.81908 0-.85393.8532-1.70711 1.7071-2.56066 2.5607-.429.429-1.07418.5573-1.63469.3251zm.57403-1.3858v-2.2c0-.28 0-.42-.0545-.527-.04793-.0941-.12442-.1706-.21851-.2185-.10695-.0545-.24697-.0545-.52699-.0545h-.6c-.56005 0-.84008 0-1.05399-.109-.18816-.0959-.34114-.2488-.43702-.437-.10899-.2139-.10899-.49393-.10899-1.05399v-4.8c0-.56005 0-.84008.10899-1.05399.09588-.18816.24886-.34114.43702-.43701.21391-.109.49394-.109 1.05399-.109h7.8c.5601 0 .8401 0 1.054.109.1882.09587.3411.24885.437.43701.109.21391.109.49394.109 1.05399v4.8c0 .56006 0 .84009-.109 1.05399-.0959.1882-.2488.3411-.437.437-.2139.109-.4939.109-1.054.109h-2.73726c-.24459 0-.36689 0-.48197.0276-.10204.0245-.19958.0649-.28906.1198-.10091.0618-.18739.1483-.36034.3212z" fill="currentColor" fill-rule="evenodd"/></svg>
