<svg width="16" height="16" viewBox="0 0 16 16" fill="none" xmlns="http://www.w3.org/2000/svg">
<path fill-rule="evenodd" clip-rule="evenodd" d="M4.03124 12.4533L4.00001 12.4914C3.94056 12.489 3.88282 12.4861 3.82717 12.4823C3.54161 12.4628 3.20302 12.4171 2.85196 12.2716C2.11687 11.9672 1.53285 11.3831 1.22837 10.6481C1.08295 10.297 1.03724 9.95841 1.01776 9.67285C0.999943 9.41172 0.999974 9.10479 1 8.78972L1 5.85216C0.999959 5.47359 0.999915 5.1049 1.02543 4.79266C1.05344 4.44977 1.11954 4.04517 1.32699 3.63804C1.61461 3.07355 2.07355 2.61461 2.63804 2.32699C3.04517 2.11954 3.44977 2.05344 3.79266 2.02543C4.1049 1.99991 4.47359 1.99996 4.85216 2H11.1479C11.5264 1.99996 11.8951 1.99991 12.2074 2.02543C12.5502 2.05344 12.9548 2.11954 13.362 2.32699C13.9265 2.61461 14.3854 3.07355 14.673 3.63804C14.8805 4.04517 14.9466 4.44977 14.9746 4.79266C15.0001 5.1049 15.0001 5.47358 15 5.85215V8.64784C15.0001 9.02642 15.0001 9.39512 14.9746 9.70735C14.9466 10.0502 14.8805 10.4548 14.673 10.862C14.3854 11.4265 13.9265 11.8854 13.362 12.173C12.9548 12.3805 12.5502 12.4466 12.2074 12.4746C11.8951 12.5001 11.5264 12.5001 11.1479 12.5L9.69357 12.5L9.62132 12.56L7.84099 14.3403C6.42357 15.7578 4 14.7539 4 12.7493V12.5501L4.03124 12.4533ZM4.67851 11H5.25C5.38807 11 5.5 11.1119 5.5 11.25V12.7493C5.5 13.4175 6.30786 13.7521 6.78033 13.2797L8.91 11.15C9.00377 11.0562 9.13739 11 9.27 11H11.1764C11.9659 10.9999 12.37 10.995 12.681 10.8365C12.9632 10.6927 13.1927 10.4632 13.3365 10.181C13.5 9.86013 13.5 9.44009 13.5 8.60001V5.90001C13.5 5.05993 13.5 4.63989 13.3365 4.31902C13.1927 4.03678 12.9632 3.80731 12.681 3.6635C12.3601 3.50001 11.9401 3.50001 11.1 3.50001H4.90001C4.05993 3.50001 3.63989 3.50001 3.31902 3.6635C3.03678 3.80731 2.80731 4.03678 2.6635 4.31902C2.50001 4.63989 2.50001 5.05993 2.50001 5.90001V8.75001C2.50001 9.44892 2.50001 9.79838 2.61419 10.074C2.76643 10.4416 3.05844 10.7336 3.42598 10.8858C3.69208 10.996 4.02694 10.9999 4.67851 11Z" fill="currentColor"/>
</svg>
