<svg xmlns="http://www.w3.org/2000/svg" width="16" height="16" fill="none" viewBox="0 0 16 16"><path fill="currentColor" fill-rule="evenodd" d="M3.25 0A.75.75 0 0 1 4 .75v8.8c0 .5724.0006.9566.0248 1.2525.0234.2871.0653.4244.1114.515.1199.2352.3111.4264.5463.5463.0906.0461.2279.088.515.1114.2959.0242.68.0248 1.2525.0248h8.8a.75.75 0 0 1 0 1.5H13.5v1.75a.75.75 0 0 1-1.5 0V13.5H6.4196c-.5342 0-.98 0-1.3443-.0297-.3799-.0311-.7365-.0982-1.0738-.27a2.7505 2.7505 0 0 1-1.2018-1.2018c-.1718-.3373-.239-.6939-.27-1.0738C2.5 10.5604 2.5 10.1146 2.5 9.5804V4H.75a.75.75 0 0 1 0-1.5H2.5V.75A.75.75 0 0 1 3.25 0Z" clip-rule="evenodd"/><path fill="currentColor" fill-rule="evenodd" d="M10.8025 4.0248C10.5066 4.0006 10.1224 4 9.55 4h-3.3a.75.75 0 0 1 0-1.5h3.3304c.5342 0 .98 0 1.3443.0297.3799.031.7365.0982 1.0738.27a2.7505 2.7505 0 0 1 1.2018 1.2018c.1718.3373.2389.694.27 1.0738.0297.3643.0297.8101.0297 1.3443V9.75a.75.75 0 0 1-1.5 0v-3.3c0-.5724-.0006-.9566-.0248-1.2525-.0234-.2871-.0653-.4244-.1114-.515a1.2504 1.2504 0 0 0-.5463-.5463c-.0906-.0461-.2279-.088-.515-.1114Z" clip-rule="evenodd"/></svg>
