<svg xmlns="http://www.w3.org/2000/svg" width="16" height="16" fill="currentColor" viewBox="0 0 16 16"><path fill-rule="evenodd" d="M8 15A7 7 0 1 0 8 1a7 7 0 0 0 0 14ZM4.97 4.97a.75.75 0 0 1 1.06 0L8 6.94l1.97-1.97a.75.75 0 1 1 1.06 1.06L9.06 8l1.97 1.97a.75.75 0 1 1-1.06 1.06L8 9.06l-1.97 1.97a.75.75 0 0 1-1.06-1.06L6.94 8 4.97 6.03a.75.75 0 0 1 0-1.06Z" clip-rule="evenodd"/><path fill-rule="evenodd" d="M8 15A7 7 0 1 0 8 1a7 7 0 0 0 0 14ZM4.97 4.97a.75.75 0 0 1 1.06 0L8 6.94l1.97-1.97a.75.75 0 1 1 1.06 1.06L9.06 8l1.97 1.97a.75.75 0 1 1-1.06 1.06L8 9.06l-1.97 1.97a.75.75 0 0 1-1.06-1.06L6.94 8 4.97 6.03a.75.75 0 0 1 0-1.06Z" clip-rule="evenodd"/></svg>

