<svg xmlns="http://www.w3.org/2000/svg" width="16" height="16" fill="none" viewBox="0 0 16 16"><path fill="currentColor" d="M8.786 4.7779c.4284-.2641.714-.7377.714-1.2779C9.5 2.6716 8.8284 2 8 2s-1.5.6716-1.5 1.5c0 .5402.2856 1.0137.714 1.2778L5.2595 7.7001a.5.5 0 0 1-.7086.1272L2.87 6.612A1.4946 1.4946 0 0 0 3 6c0-.8284-.6716-1.5-1.5-1.5S0 5.1716 0 6s.6716 1.5 1.5 1.5c.0305 0 .0608-.001.0909-.0027L2.326 10h11.3717l.7347-2.5015c.0224.001.045.0015.0676.0015.8284 0 1.5-.6716 1.5-1.5s-.6716-1.5-1.5-1.5S13 5.1716 13 6c0 .223.0487.4347.136.625l-1.6793 1.2139a.5.5 0 0 1-.7085-.1273L8.7859 4.778ZM13.3506 11.5H2.6462l.2547 1.1496A1.723 1.723 0 0 0 4.583 14h6.832a1.7231 1.7231 0 0 0 1.6828-1.3524l.2527-1.1476Z"/></svg>
