<svg width="16" height="16" fill="none" xmlns="http://www.w3.org/2000/svg"><path d="M12.527 10l.687-2.415.043.001c.225 0 .433-.055.621-.167.189-.11.34-.26.453-.448.113-.187.169-.396.169-.625 0-.227-.056-.433-.167-.62a1.257 1.257 0 00-.45-.449 1.21 1.21 0 00-.626-.167c-.226 0-.432.056-.617.167a1.264 1.264 0 00-.444.451c-.111.19-.167.395-.167.618 0 .184.036.354.107.51l.019.038-1.47 1.064c-.144.102-.263.084-.354-.053L8.602 5.32l.02-.01c.187-.112.336-.262.447-.449.11-.187.166-.396.166-.626 0-.222-.055-.428-.166-.617-.111-.19-.26-.34-.447-.451A1.187 1.187 0 008.002 3c-.229 0-.437.056-.624.167-.187.111-.336.26-.447.448a1.194 1.194 0 00-.166.62c0 .23.056.439.169.626.113.187.263.337.45.448l.017.01-1.732 2.596a.25.25 0 01-.14.109c-.051.012-.117-.01-.198-.066L3.85 6.884l.014-.028c.071-.156.107-.326.107-.51 0-.223-.056-.429-.167-.618-.11-.19-.26-.34-.447-.45a1.187 1.187 0 00-.619-.168c-.23 0-.437.056-.624.167-.187.112-.336.261-.447.448a1.194 1.194 0 00-.167.62c0 .23.056.439.17.626.112.188.261.337.446.448.186.112.393.167.622.167l.054-.002L3.484 10h9.043zm-1.82 3c.42 0 .745-.102.978-.307.233-.205.399-.51.497-.912l.16-.781H3.663l.153.78c.1.404.265.708.498.913.233.205.56.307.984.307h5.407z" fill="currentColor"/></svg>
