<svg xmlns="http://www.w3.org/2000/svg" width="16" height="16" fill="none" viewBox="0 0 16 16"><path fill="currentColor" fill-rule="evenodd" d="M8.7318 4.6952c.4694-.2583.7874-.7574.7874-1.3308 0-.8385-.6802-1.5183-1.5192-1.5183-.839 0-1.5193.6798-1.5193 1.5183 0 .5733.318 1.0724.7873 1.3308L5.144 7.8688a.3.3 0 0 1-.425.0763L2.8888 6.6226a1.5115 1.5115 0 0 0 .1498-.6582c0-.8385-.6802-1.5183-1.5193-1.5183C.6802 4.4461 0 5.126 0 5.9644s.6802 1.5183 1.5192 1.5183l.8085 2.5179H13.696l.7848-2.5179c.839 0 1.5192-.6798 1.5192-1.5183s-.6802-1.5183-1.5192-1.5183c-.8391 0-1.5193.6798-1.5193 1.5183 0 .2408.0561.4686.156.6708l-1.829 1.3214a.3.3 0 0 1-.425-.0763l-2.1317-3.185Zm-6.0856 6.8044h10.7044l-.2652 1.2751a1.723 1.723 0 0 1-1.687 1.3714H4.6a1.7229 1.7229 0 0 1-1.6866-1.3695l-.2672-1.277Z" clip-rule="evenodd"/></svg>
