<svg xmlns="http://www.w3.org/2000/svg" width="16" height="16" fill="currentColor" viewBox="0 0 16 16"><path fill-rule="evenodd" d="M7.912 2.007a.5.5 0 0 1 .176 0c.042.008.095.026.446.191l4.25 2.006.16.077-1.574.73-.304-.141-4.671-2.166 1.071-.506c.351-.165.404-.183.446-.19ZM4.628 3.538l-1.411.666-.161.077 4.25 1.97c.408.19.49.221.564.234a.75.75 0 0 0 .26 0c.074-.013.156-.045.564-.233l.893-.415L4.935 3.68l-.307-.142Zm4.697 4.074L13.5 5.677v5.022c0 .52-.01.594-.029.646a.5.5 0 0 1-.121.19c-.04.039-.103.08-.574.298L8.75 13.701V7.863c.166-.06.332-.138.512-.221l.063-.03Zm-2.587.03c.18.083.346.16.512.221v5.838l-4.026-1.868c-.47-.218-.534-.26-.574-.298a.5.5 0 0 1-.121-.19c-.018-.052-.029-.127-.029-.646V5.677l4.175 1.935.063.03ZM8.351.53a2 2 0 0 0-.702 0c-.265.048-.51.164-.765.285l-.058.027-4.25 2.006-.077.036c-.337.159-.659.31-.905.554a2 2 0 0 0-.48.756C.999 4.521.999 4.877 1 5.25v5.537c0 .375-.001.732.115 1.06a2 2 0 0 0 .485.76c.25.245.574.395.914.552l.079.036 4.25 1.972.056.026c.253.118.494.23.755.276.229.04.463.04.692 0 .261-.046.502-.158.755-.276l.056-.026 4.25-1.972.079-.036c.34-.157.665-.307.914-.551a2 2 0 0 0 .485-.76c.116-.329.116-.686.115-1.061V5.249c0-.372.001-.728-.114-1.055a2 2 0 0 0-.48-.756c-.246-.244-.568-.395-.905-.554l-.077-.036L9.174.842 9.116.815c-.255-.121-.5-.237-.765-.285Z" clip-rule="evenodd"/></svg>
