<svg width="16" height="16" viewBox="0 0 16 16" fill="none" xmlns="http://www.w3.org/2000/svg">
<path fill-rule="evenodd" clip-rule="evenodd" d="M2.64 4H6H10H13.36C13.584 4 13.696 4 13.7816 3.9564C13.8569 3.91805 13.9181 3.85686 13.9564 3.7816C13.9898 3.71606 13.9976 3.63501 13.9994 3.5H14V3.4L14 3.30857V3.25H13.9999C13.999 2.97476 13.993 2.81988 13.9511 2.69098C13.8522 2.38655 13.6135 2.14786 13.309 2.04894C13.1584 2 12.9723 2 12.6 2H9.99041C9.97843 1.80389 9.95151 1.66476 9.89101 1.54601C9.79513 1.35785 9.64215 1.20487 9.45399 1.10899C9.24008 1 8.96005 1 8.4 1H7.6C7.03995 1 6.75992 1 6.54601 1.10899C6.35785 1.20487 6.20487 1.35785 6.10899 1.54601C6.04849 1.66476 6.02157 1.80389 6.00959 2H3.40003C3.02777 2 2.84165 2 2.69101 2.04894C2.38658 2.14786 2.14789 2.38655 2.04897 2.69098C2.00709 2.81988 2.00105 2.97476 2.00018 3.25H2V3.36L2.00003 3.41708V3.5H2.00056C2.00239 3.63501 2.01021 3.71606 2.0436 3.7816C2.08195 3.85686 2.14314 3.91805 2.2184 3.9564C2.30397 4 2.41598 4 2.64 4ZM3 5L3.71184 12.1184C3.81364 13.1364 3.86454 13.6454 4.09559 14.03C4.2991 14.3687 4.59838 14.6396 4.95568 14.8084C5.36133 15 5.87287 15 6.89596 15H9.10404C10.1271 15 10.6387 15 11.0443 14.8084C11.4016 14.6396 11.7009 14.3687 11.9044 14.03C12.1355 13.6454 12.1864 13.1364 12.2882 12.1184L13 5H3Z" fill="currentColor"/>
</svg>
