<svg xmlns="http://www.w3.org/2000/svg" width="16" height="16" fill="none" viewBox="0 0 16 16"><path fill="currentColor" fill-rule="evenodd" d="M6.5854 2.5h2.8293c-.206-.5826-.7616-1-1.4147-1s-1.2087.4174-1.4146 1Zm4.3731 0C10.7205 1.0811 9.4865 0 8 0S5.2795 1.0811 5.0415 2.5c-.683 0-1.3665-.008-2.0495 0H1.75a.75.75 0 0 0 0 1.5h.568l.731 7.6758c.0344.3604.0641.673.1091.9302.0477.2728.1212.5413.2733.7964.2285.383.5656.6896.9686.8806.2683.1273.5425.175.8186.1966.2604.0204.5744.0204.9364.0204h3.69c.362 0 .676 0 .9364-.0204.2761-.0216.5503-.0693.8186-.1966.403-.191.7401-.4976.9686-.8806.1521-.2551.2256-.5236.2733-.7964.045-.2572.0747-.5698.109-.9302L13.682 4h.568a.75.75 0 0 0 0-1.5c-.4198 0-.8399-.005-1.2597 0h-2.0318ZM12.1752 4H3.8248l.715 7.5064c.0376.3953.0623.6488.0959.8412.032.1833.0633.2517.084.2865a.75.75 0 0 0 .323.2936c.0366.0174.1076.042.293.0565.1948.0153.4495.0158.8466.0158h3.6354c.3971 0 .6518-.0005.8465-.0158.1855-.0145.2565-.0391.2932-.0565a.7499.7499 0 0 0 .3228-.2936c.0208-.0348.0521-.1032.0841-.2865.0337-.1924.0583-.4459.096-.8412L12.1752 4ZM6.2125 5.251a.75.75 0 0 1 .7866.7115l.25 5a.75.75 0 0 1-1.4982.075l-.25-5a.75.75 0 0 1 .7117-.7866Zm3.575 0a.7501.7501 0 0 1 .7116.7864l-.25 5.0001a.75.75 0 0 1-1.4982-.075l.25-5a.75.75 0 0 1 .7866-.7116Z" clip-rule="evenodd"/></svg>
