<svg xmlns="http://www.w3.org/2000/svg" width="16" height="16" fill="none" viewBox="0 0 16 16"><path fill="currentColor" d="M6.0972 11.0003 8 10l1.9028 1.0003c.1834.0965.3977-.0593.3627-.2635L9.9021 8.618l1.5394-1.5005c.1484-.1446.0665-.3966-.1386-.4264L9.1756 6.382l-.9514-1.9277c-.0917-.1859-.3567-.1859-.4484 0L6.8244 6.382l-2.1273.309c-.205.0299-.287.2819-.1386.4265L6.098 8.618l-.3634 2.1188c-.035.2042.1793.36.3627.2635Z M8 2.5C4.9624 2.5 2.5 4.9624 2.5 8s2.4624 5.5 5.5 5.5 5.5-2.4624 5.5-5.5S11.0376 2.5 8 2.5ZM1 8c0-3.866 3.134-7 7-7s7 3.134 7 7-3.134 7-7 7-7-3.134-7-7Z" clip-rule="evenodd"/></svg>
