<svg xmlns="http://www.w3.org/2000/svg" width="16" height="16" fill="currentColor" viewBox="0 0 16 16"><path fill-rule="evenodd" d="M8.004 2.25a.75.75 0 0 1 .75-.75h1.92c.645 0 1.186.042 1.663.194.503.16.884.427 1.24.787l.01.009.009.01c.73.789.865 1.761.9 2.653v.029c0 1.3 0 2.3.002 3.225v.184l.002 2.585v.022c-.014.46-.042.875-.193 1.272-.155.41-.414.731-.74 1.076l-.01.01-.009.01c-.372.365-.77.616-1.27.763-.473.138-1.003.171-1.614.171H8.752a.75.75 0 0 1 0-1.5h1.912c.58 0 .934-.035 1.193-.111.23-.067.414-.174.63-.385.28-.296.37-.441.418-.566.052-.139.081-.325.095-.773 0-.925 0-1.722-.002-2.573v-.183l-.002-3.212c-.033-.802-.154-1.298-.493-1.67-.223-.223-.401-.334-.622-.404-.25-.08-.604-.123-1.207-.123h-1.92a.75.75 0 0 1-.75-.75ZM6.476 5.221a.75.75 0 0 1 1.06 0L9.74 7.424a.75.75 0 0 1 .042 1.1L7.526 10.78a.75.75 0 1 1-1.06-1.06l.97-.97H2.25a.75.75 0 1 1 0-1.5h5.194l-.968-.968a.75.75 0 0 1 0-1.06Z" clip-rule="evenodd"/></svg>
