<?xml version="1.0" encoding="UTF-8"?>
<svg width="16px" height="16px" viewBox="0 0 16 16" version="1.1" xmlns="http://www.w3.org/2000/svg" xmlns:xlink="http://www.w3.org/1999/xlink">
    <!-- Generator: Sketch 50.2 (55047) - http://www.bohemiancoding.com/sketch -->
    <title>down_16</title>
    <desc>Created with Sketch.</desc>
    <defs></defs>
    <g id="Page-2" stroke="none" stroke-width="1" fill="none" fill-rule="evenodd">
        <g id="down_16">
            <rect id="Rectangle-9" x="0" y="0" width="16" height="16"></rect>
            <path d="M7,10.5857864 L7,2.5 C7,1.94771525 7.44771525,1.5 8,1.5 C8.55228475,1.5 9,1.94771525 9,2.5 L9,10.5857864 L11.7928932,7.79289322 C12.1834175,7.40236893 12.8165825,7.40236893 13.2071068,7.79289322 C13.5976311,8.18341751 13.5976311,8.81658249 13.2071068,9.20710678 L8.70710678,13.7071068 C8.31658249,14.0976311 7.68341751,14.0976311 7.29289322,13.7071068 L2.79289322,9.20710678 C2.40236893,8.81658249 2.40236893,8.18341751 2.79289322,7.79289322 C3.18341751,7.40236893 3.81658249,7.40236893 4.20710678,7.79289322 L7,10.5857864 Z" id="Mask" fill="currentColor" fill-rule="nonzero"></path>
        </g>
    </g>
</svg>
