<svg xmlns="http://www.w3.org/2000/svg" width="16" height="16" fill="none" viewBox="0 0 16 16"><path fill="currentColor" fill-rule="evenodd" d="M8.001 13.5c2.5579 0 4.499-1.6638 4.499-4.1887 0-.5371-.2034-1.2468-.6383-2.0838-.4255-.8189-1.0184-1.6562-1.6604-2.4173-.641-.7598-1.3006-1.4078-1.833-1.8527a7.5728 7.5728 0 0 0-.3645-.2875 7.59 7.59 0 0 0-.3657.2881c-.5333.445-1.1939 1.093-1.836 1.853-.643.7611-1.2368 1.5984-1.663 2.4173-.4355.837-.6391 1.5463-.6391 2.0829C3.5 11.839 5.4443 13.5 8.001 13.5Zm0 1.5C11.2324 15 14 12.8115 14 9.3113 14 5.811 8.926 1 8.0042 1 7.0823 1 2 5.811 2 9.3113 2 12.8162 4.773 15 8.001 15Z" clip-rule="evenodd"/><path fill="currentColor" fill-rule="evenodd" d="M5.75 8.25A.75.75 0 0 1 6.5 9c0 .8284.6716 1.5 1.5 1.5A.75.75 0 0 1 8 12c-1.6569 0-3-1.3431-3-3a.75.75 0 0 1 .75-.75Z" clip-rule="evenodd"/></svg>
