<svg xmlns="http://www.w3.org/2000/svg" width="16" height="16" fill="none" viewBox="0 0 16 16"><path fill="currentColor" d="M14.4951 5.078 8.4674 1.6252a.9358.9358 0 0 0-.9348 0l-6.0277 3.453a.995.995 0 0 0-.385.4022c-.2581.4918-.0858 1.1092.385 1.3789l.9951.568 5.0023 2.8739a1 1 0 0 0 .9956.0003l4.1684-2.3955 1.1666-.668.0002 2.9964c0 .3366.2612.6094.5833.6094.3222 0 .5834-.2728.5834-.6094L15 5.9684c-.0004-.3585-.1828-.7058-.5049-.8903Z"/><path fill="currentColor" d="m12.6664 9.3849-4.1877 2.2815a1 1 0 0 1-.9573-.0002l-4.188-2.2844.0001 1.0556C3.3335 12.7129 5.4467 14.5 8 14.5s4.6665-1.7871 4.6665-4.0626l-.0001-1.0525Z"/></svg>
