<svg xmlns="http://www.w3.org/2000/svg" width="16" height="16" fill="currentColor" viewBox="0 0 16 16"><path fill-rule="evenodd" d="M4.974 6.97 3.782 8.167c-.493.493-.798.8-1.009 1.05-.198.234-.225.317-.229.329a.904.904 0 0 0 0 .557c.004.012.031.096.23.33.21.249.515.556 1.008 1.05l.228.228c.492.494.799.8 1.047 1.011.234.199.317.226.329.23a.9.9 0 0 0 .556 0c.012-.004.095-.031.329-.23.248-.211.555-.517 1.048-1.01l1.192-1.196-3.537-3.544Zm1.06-1.062 3.538 3.544 2.115-2.12c.493-.493.798-.8 1.009-1.05.198-.234.225-.317.229-.329a.904.904 0 0 0 0-.557c-.004-.012-.031-.096-.23-.33-.21-.249-.515-.556-1.008-1.05l-.228-.228c-.492-.494-.799-.8-1.047-1.01-.234-.2-.317-.227-.329-.23a.899.899 0 0 0-.556 0c-.012.003-.095.03-.33.229-.248.212-.554.517-1.047 1.01l-2.115 2.12Zm-4.916 4.66c.178.548.653 1.024 1.603 1.977l.228.228c.95.953 1.426 1.429 1.974 1.607.25.082.51.121.77.118a.757.757 0 0 0 .057.002h8a.75.75 0 0 0 0-1.503H8.156l.223-.224 4.369-4.378c.95-.952 1.425-1.428 1.603-1.977a2.41 2.41 0 0 0 0-1.487c-.178-.55-.653-1.025-1.603-1.978l-.228-.228c-.95-.953-1.426-1.429-1.974-1.607a2.395 2.395 0 0 0-1.483 0c-.548.178-1.023.654-1.974 1.607L2.721 7.103c-.95.952-1.425 1.428-1.603 1.978a2.41 2.41 0 0 0 0 1.486Z" clip-rule="evenodd"/></svg>
