<svg fill="none" height="16" viewBox="0 0 16 16" width="16" xmlns="http://www.w3.org/2000/svg"><g fill="currentColor"><path clip-rule="evenodd" d="m8 4c.41421 0 .75.33579.75.75v3.5c0 .41421-.33579.75-.75.75s-.75-.33579-.75-.75v-3.5c0-.41421.33579-.75.75-.75z" fill-rule="evenodd"/><path d="m8.9 11.1c0 .4971-.40295.9-.9.9-.49706 0-.9-.4029-.9-.9s.40294-.9.9-.9c.49705 0 .9.4029.9.9z"/><path clip-rule="evenodd" d="m8 14.5c3.5899 0 6.5-2.9101 6.5-6.5 0-3.58985-2.9101-6.5-6.5-6.5-3.58985 0-6.5 2.91015-6.5 6.5 0 3.5899 2.91015 6.5 6.5 6.5zm0 1.5c4.4183 0 8-3.5817 8-8 0-4.41828-3.5817-8-8-8-4.41828 0-8 3.58172-8 8 0 4.4183 3.58172 8 8 8z" fill-rule="evenodd"/></g></svg>
