<svg xmlns="http://www.w3.org/2000/svg" width="16" height="16" fill="none" viewBox="0 0 16 16"><path fill="currentColor" fill-rule="evenodd" d="M4.0246 7.5016a5.0588 5.0588 0 0 0-.0002.9969h5.2294a.75.75 0 0 1 0 1.5H4.415c.771 1.7671 2.5336 3.0022 4.5848 3.0022 1.4619 0 2.7765-.6265 3.6917-1.628a.75.75 0 0 1 1.1073 1.0119c-1.1875 1.2994-2.8984 2.1161-4.799 2.1161-2.8929 0-5.3443-1.8898-6.187-4.5022H1.75a.75.75 0 0 1 0-1.5h.7688a6.5908 6.5908 0 0 1 .0001-.997H1.75a.75.75 0 0 1 0-1.5h1.0633c.8434-2.6114 3.2943-4.5003 6.1865-4.5003 1.9006 0 3.6115.8168 4.799 2.1161a.75.75 0 0 1-1.1073 1.012c-.9152-1.0016-2.2298-1.628-3.6917-1.628-2.0505 0-3.8126 1.2342-4.584 3.0003h4.8381a.75.75 0 0 1 .75.75.75.75 0 0 1-.75.75H4.0246Z" clip-rule="evenodd"/></svg>
