<svg xmlns="http://www.w3.org/2000/svg" width="16" height="16" fill="none" viewBox="0 0 16 16"><path fill="currentColor" fill-rule="evenodd" d="M8.2987 2.5715a.6643.6643 0 0 0-.5959 0c.0024-.0012-.0268.0121-.0868.0842-.0619.0745-.1397.191-.2385.3727-.2014.3705-.432.9007-.7657 1.671l-.33.7615c-.0473.113-.1047.2223-.1856.3154a.9645.9645 0 0 1-.3112.2373c-.1111.0533-.2316.0796-.3531.0953l-.4108.058c-.834.1179-1.4084.1998-1.8205.2961-.2021.0472-.3356.0916-.4241.1317-.0858.0389-.1064.0636-.1044.0614a.666.666 0 0 0-.1576.5761c-.0006-.0028.0045.029.0586.1061.0557.0797.148.186.298.3296.3056.293.7582.6564 1.4159 1.183.1314.1052.2661.208.3584.3517a.966.966 0 0 1 .1438.3894c.0237.1712-.0116.3381-.0205.3804-.0116.0547-.021.11-.0314.1649-.1833.9668-.3108 1.6433-.3615 2.1381-.0534.5202.005.6494.007.6541a.6653.6653 0 0 0 .5395.3185c.005-.0005.1464-.012.5753-.3105.408-.2839.9376-.7231 1.694-1.3516.0818-.0679.162-.1392.2486-.2008a.9619.9619 0 0 1 .2967-.1454.9636.9636 0 0 1 .5277 0 .962.962 0 0 1 .2967.1454c.0867.0616.1668.1329.2486.2008.7564.6285 1.286 1.0677 1.694 1.3516.4289.2985.5702.31.5752.3104a.6649.6649 0 0 0 .5395-.3183c.0021-.0046.0605-.134.0072-.6542-.0508-.4948-.1783-1.1713-.3616-2.1381-.0341-.1802-.0775-.3606-.0519-.5453a.9663.9663 0 0 1 .1439-.3894c.0926-.1442.2267-.2463.3584-.3517.6576-.5266 1.1102-.89 1.4159-1.183.1499-.1437.2422-.2499.298-.3296.054-.0772.0591-.109.0586-.106a.6662.6662 0 0 0-.1576-.5762c.0019.0022-.0187-.0225-.1044-.0614-.0886-.0401-.2221-.0845-.4242-.1317-.4121-.0963-.9865-.1782-1.8204-.296-.1395-.0197-.2788-.0421-.4186-.059-.0404-.005-.1989-.0242-.3454-.0944a.9651.9651 0 0 1-.3112-.2373c-.1066-.1227-.1672-.2705-.1827-.3082-.1059-.2582-.222-.5127-.3329-.7688-.3337-.7702-.5642-1.3004-.7657-1.671-.0988-.1816-.1766-.2981-.2385-.3726-.06-.072-.0892-.0854-.0868-.0842ZM7.0307 1.229a2.163 2.163 0 0 1 1.9402 0c.4503.226.7395.6564.9706 1.0815.2375.4367.4943 1.0294.8092 1.7564l.2544.587.2226.0315c.7872.1113 1.4288.2019 1.9142.3153.4722.1104.9652.2754 1.3028.6511a2.1688 2.1688 0 0 1 .513 1.8758c-.0993.4955-.4395.8889-.7897 1.2246-.3458.3316-.8264.7185-1.4141 1.1892.1704.8992.3069 1.6237.364 2.1806.0551.5367.0657 1.1228-.2188 1.5895a2.1645 2.1645 0 0 1-1.7561 1.0365c-.5456.0232-1.0528-.2698-1.4954-.5778-.441-.3069-.9816-.7528-1.6468-1.3053-.6653.5525-1.206.9984-1.6469 1.3053-.4425.308-.9497.601-1.4954.5778a2.1646 2.1646 0 0 1-1.7561-1.0365c-.2845-.4667-.2738-1.0528-.2188-1.5895.057-.5569.1936-1.2814.364-2.1806-.5877-.4707-1.0682-.8576-1.414-1.1892-.3502-.3357-.6904-.7291-.7898-1.2245a2.1686 2.1686 0 0 1 .513-1.8759c.3377-.3757.8306-.5407 1.3028-.651.4854-.1135 1.127-.2041 1.9142-.3154l.2226-.0314.2544-.587c.315-.727.5717-1.3198.8092-1.7565.2312-.4251.5203-.8555.9707-1.0815Z" clip-rule="evenodd"/></svg>
