<svg xmlns="http://www.w3.org/2000/svg" width="16" height="16" fill="none" viewBox="0 0 16 16"><g clip-path="url(#a)"><path fill="currentColor" d="m5.4364 3.2725-.4938 1.14c-.0344.0795-.0516.1193-.0785.1502a.265.265 0 0 1-.0854.0651c-.0368.0177-.0797.0238-.1654.0359l-.7055.0997c-2.0231.286-3.0346.4289-3.4597.9023a1.7518 1.7518 0 0 0-.4139 1.5148c.1252.6243.9231 1.2633 2.5189 2.5414l.2574.2062c.0724.058.1086.087.132.1236a.2649.2649 0 0 1 .0396.1069c.006.0431-.0027.0887-.02.1799l-.0794.4192c-.446 2.3528-.6688 3.5292-.3186 4.1045a1.7459 1.7459 0 0 0 1.4165.837c.6721.0288 1.592-.7357 3.4319-2.2648l.3172-.2636c.0961-.0799.1443-.1199.198-.1352a.2637.2637 0 0 1 .1447 0c.0536.0153.1017.0552.198.1352l.3171.2636c1.8399 1.5291 2.7598 2.2936 3.4319 2.2648a1.746 1.746 0 0 0 1.4165-.837c.3503-.5753.1273-1.7517-.3186-4.1045l-.0794-.4192c-.0173-.0912-.0259-.1368-.02-.1799a.2662.2662 0 0 1 .0395-.1069c.0235-.0366.0597-.0656.1321-.1236l.2574-.2062c1.5958-1.278 2.3937-1.9171 2.5189-2.5414a1.7518 1.7518 0 0 0-.4139-1.5148c-.4251-.4734-1.4366-.6164-3.4596-.9023l-.7056-.0997c-.0857-.0122-.1286-.0182-.1654-.0359a.2647.2647 0 0 1-.0854-.0651c-.0268-.031-.0441-.0707-.0785-.1502l-.4938-1.14C9.7543 1.4043 9.3497.4702 8.7826.1855a1.7438 1.7438 0 0 0-1.5651 0c-.5672.2847-.9718 1.2188-1.781 3.087Z"/></g></svg>