<svg xmlns="http://www.w3.org/2000/svg" width="17" height="17" fill="none" viewBox="0 0 17 17"><path fill="currentColor" fill-rule="evenodd" d="M9.3989 2.5923a.899.899 0 0 0-.8062 0c-.0474.0237-.1845.1278-.4327.584-.238.4378-.5093 1.0616-.8972 1.9567l-.3747.8642-.0045.0107c-.02.0481-.0826.1992-.1915.3245a.9997.9997 0 0 1-.3226.2459c-.1498.0717-.312.092-.3636.0985a.7573.7573 0 0 0-.0116.0015l-.4556.0643c-.9694.137-1.6456.2332-2.1326.347-.508.1186-.645.2236-.6803.263a.9003.9003 0 0 0-.2132.779c.0104.0517.0749.212.4516.573.3612.346.894.7735 1.6586 1.3854l.0863.069.0097.0077c.0438.0338.182.1406.2773.2891.0783.1221.1292.2597.1491.4034.0242.1749-.0112.3458-.0224.4001a1 1 0 0 0-.0025.0121l-.0297.1565c-.2131 1.1239-.363 1.9182-.4229 2.5012-.0636.6204.003.8021.0259.8398a.8994.8994 0 0 0 .7297.4304c.044.0019.2351-.0278.747-.3838.4808-.3346 1.103-.8504 1.9827-1.581l.1087-.0903.0086-.0072c.037-.0308.0914-.076.1443-.1136.0649-.0461.1681-.1113.3077-.1511a1.0003 1.0003 0 0 1 .547 0c.1396.0398.2428.105.3077.1511.0529.0376.1072.0828.1442.1136l.1174.0975c.8797.7306 1.5018 1.2464 1.9828 1.581.5117.356.7029.3857.7469.3838a.8994.8994 0 0 0 .7297-.4304c.0229-.0377.0895-.2194.0258-.8398-.0597-.583-.2097-1.3773-.4229-2.5012l-.0296-.1565-.0025-.0121c-.0112-.0543-.0466-.2252-.0224-.4001a1.0004 1.0004 0 0 1 .1491-.4034c.0954-.1485.2334-.2553.2772-.2891l.0098-.0077.0863-.069c.7645-.612 1.2974-1.0393 1.6586-1.3855.3767-.361.4412-.5212.4516-.573a.9003.9003 0 0 0-.2132-.779c-.0353-.0393-.1724-.1443-.6803-.263-.4871-.1137-1.1632-.21-2.1327-.3469l-.4555-.0643a.7334.7334 0 0 0-.0116-.0015c-.0516-.0065-.2139-.0268-.3636-.0985a.9994.9994 0 0 1-.3226-.2458c-.1089-.1254-.1716-.2765-.1915-.3246l-.0046-.0107-.3746-.8643c-.388-.895-.6592-1.5188-.8973-1.9565-.2481-.4563-.3853-.5604-.4326-.5841Zm-1.478-1.341a2.3975 2.3975 0 0 1 2.1497 0c.4883.2448.81.7157 1.0778 1.208.274.5039.5715 1.19.9405 2.0413l.312.7198.2998.0424c.9222.1302 1.6653.2352 2.2256.366.5471.1278 1.0881.3134 1.4541.7206a2.4008 2.4008 0 0 1 .5684 2.0773c-.1077.537-.4787.9724-.8844 1.3611-.4064.3894-.9758.8466-1.6809 1.411.2032 1.0716.3648 1.9251.4317 2.5772.0641.6249.0705 1.2692-.2374 1.7741a2.3988 2.3988 0 0 1-1.9457 1.1479c-.5906.0251-1.1511-.2924-1.6666-.651-.5217-.3629-1.166-.8956-1.9697-1.563-.8037.6674-1.448 1.2001-1.9697 1.563-.5155.3586-1.076.6761-1.6666.651a2.3988 2.3988 0 0 1-1.9457-1.1479c-.3079-.5049-.3015-1.1492-.2375-1.7741.067-.6521.2286-1.5056.4318-2.5772-.7051-.5644-1.2746-1.0216-1.6809-1.411-.4057-.3887-.7768-.8242-.8845-1.361a2.4009 2.4009 0 0 1 .5685-2.0774c.366-.4072.907-.5928 1.454-.7206.5603-.1308 1.3034-.2358 2.2257-.366l.2998-.0424.312-.7197c.369-.8513.6664-1.5375.9405-2.0414.2678-.4922.5895-.9632 1.0777-1.208Z" clip-rule="evenodd"/></svg>
