<svg xmlns="http://www.w3.org/2000/svg" width="16" height="16" fill="none" viewBox="0 0 16 16"><path fill="currentColor" d="m5.4364 3.2725-.4938 1.14c-.0717.1655-.1428.2248-.3293.2512l-.7055.0997c-2.0231.286-3.0346.4289-3.4597.9023a1.7518 1.7518 0 0 0-.4139 1.5148c.1252.6243.9231 1.2633 2.5189 2.5414l.2574.2062c.1544.1237.187.2237.1516.4104l-.0794.4192c-.446 2.3528-.6688 3.5292-.3186 4.1045a1.7459 1.7459 0 0 0 1.4165.837c.6721.0288 1.592-.7357 3.4319-2.2648l.3172-.2636c.2103-.1748.341-.1659.5407 0l.3171.2636c1.8399 1.5291 2.7598 2.2936 3.4319 2.2648a1.746 1.746 0 0 0 1.4165-.837c.3503-.5753.1273-1.7517-.3186-4.1045l-.0794-.4192c-.0368-.1943.0032-.2916.1516-.4104l.2574-.2062c1.5958-1.278 2.3937-1.9171 2.5189-2.5414a1.7518 1.7518 0 0 0-.4139-1.5148c-.4251-.4734-1.4366-.6164-3.4596-.9023l-.7056-.0997c-.1865-.0264-.2576-.0857-.3293-.2512l-.4938-1.14C9.7543 1.4043 9.3497.4702 8.7826.1855a1.7438 1.7438 0 0 0-1.5651 0c-.5672.2847-.9718 1.2188-1.781 3.087Z"/></svg>
