<svg xmlns="http://www.w3.org/2000/svg" width="16" height="16" fill="none" viewBox="0 0 16 16"><path fill="currentColor" fill-rule="evenodd" d="M8.4232 1.6744a.9445.9445 0 0 0-.8464 0c-.0498.025-.1937.134-.4543.6126-.25.4592-.5347 1.1135-.9421 2.0524l-.274.6312-.0047.0113c-.021.0505-.0868.209-.2012.3405a1.0496 1.0496 0 0 1-.3387.258c-.1572.0752-.3275.0965-.3817.1033a.7786.7786 0 0 0-.0122.0016l-.3454.0487c-.9537.1346-1.6188.229-2.0998.3386-.5022.1144-.6422.2141-.6779.2504a.9445.9445 0 0 0-.243.888c.0122.0494.082.2065.4559.5606.3582.3393.8825.7593 1.6347 1.3608a.89.89 0 0 0 .0097.0075c.0432.0334.1788.1384.2756.2825.093.1384.1516.2969.171.4624.0204.1724-.0143.3408-.0254.3943a1.0965 1.0965 0 0 0-.0024.0121c-.2118 1.1153-.3608 1.9038-.4233 2.4837-.0667.6177-.0064.8024.014.8392a.9446.9446 0 0 0 .8266.4876c.0426 0 .2327-.0364.7382-.3912.4749-.3333 1.0895-.8424 1.9588-1.5636a.5304.5304 0 0 0 .0086-.0071c.0366-.0304.0903-.0751.1425-.1125a1.051 1.051 0 0 1 .3024-.1535 1.049 1.049 0 0 1 .6226 0 1.051 1.051 0 0 1 .3024.1535c.0522.0374.1059.0821.1425.1125l.0086.0071c.8693.7212 1.4839 1.2303 1.9588 1.5636.5055.3548.6956.3912.7382.3912a.9446.9446 0 0 0 .8266-.4876c.0203-.0368.0806-.2215.014-.8392-.0625-.5799-.2116-1.3684-.4233-2.4837l-.0024-.0121c-.0111-.0535-.0458-.2219-.0255-.3943a1.05 1.05 0 0 1 .1711-.4624c.0968-.1441.2324-.249.2756-.2825l.0097-.0075c.7522-.6015 1.2765-1.0215 1.6347-1.3608.3739-.3541.4437-.5112.4559-.5606a.9445.9445 0 0 0-.243-.888c-.0357-.0363-.1757-.136-.6779-.2504-.481-.1095-1.1461-.204-2.0998-.3386l-.3454-.0487a.2576.2576 0 0 0-.0121-.0016c-.0543-.0068-.2246-.028-.3818-.1034a1.05 1.05 0 0 1-.3387-.2579c-.1144-.1315-.1802-.29-.2012-.3405a.8056.8056 0 0 0-.0048-.0113l-.2739-.6312c-.4074-.9389-.6921-1.5932-.9421-2.0524-.2606-.4785-.4045-.5877-.4543-.6126zM6.8715.2669a2.5188 2.5188 0 0 1 2.257 0c.5126.257.8504.7509 1.1316 1.2673.2878.5285.6001 1.2483.9875 2.1413l.2082.4797.1792.0253c.9073.128 1.6385.2311 2.192.3572.54.123 1.0754.2993 1.4516.6825a2.5189 2.5189 0 0 1 .648 2.3678c-.1286.5213-.4996.9457-.9017 1.3266-.3834.363-.9093.7875-1.5569 1.3055.1865.9832.3336 1.7735.3996 2.386.0669.6202.0806 1.2595-.2014 1.7696a2.5188 2.5188 0 0 1-2.2043 1.3002c-.5823.0001-1.1337-.3196-1.6427-.6768-.4875-.3422-1.0838-.8315-1.8192-1.4412-.7354.6097-1.3317 1.099-1.8192 1.4412-.509.3572-1.0604.6769-1.6427.6768a2.5187 2.5187 0 0 1-2.2043-1.3002c-.282-.5101-.2683-1.1494-.2014-1.7696.066-.6125.2131-1.4028.3996-2.386-.6476-.518-1.1735-.9424-1.5569-1.3055C.5731 8.5337.202 8.1093.0734 7.588a2.5188 2.5188 0 0 1 .648-2.3678c.3762-.3832.9116-.5595 1.4516-.6825.5535-.126 1.2847-.2292 2.192-.3572l.1792-.0253.2082-.4797c.3874-.893.6997-1.6127.9875-2.1413.2812-.5164.619-1.0104 1.1316-1.2673z" clip-rule="evenodd"/></svg>
