<svg xmlns="http://www.w3.org/2000/svg" width="16" height="16" fill="currentColor" viewBox="0 0 16 16"><path d="M5 5c0-.28 0-.419.04-.531a.7.7 0 0 1 .429-.43C5.58 4 5.72 4 6 4s.419 0 .531.04a.7.7 0 0 1 .43.429C7 4.58 7 4.72 7 5s0 .419-.04.531a.7.7 0 0 1-.429.43C6.42 6 6.28 6 6 6s-.419 0-.531-.04a.7.7 0 0 1-.43-.429C5 5.42 5 5.28 5 5Zm0 6c0-.28 0-.419.04-.531a.7.7 0 0 1 .429-.43C5.58 10 5.72 10 6 10s.419 0 .531.04a.7.7 0 0 1 .43.429C7 10.58 7 10.72 7 11s0 .419-.04.531a.7.7 0 0 1-.429.43C6.42 12 6.28 12 6 12s-.419 0-.531-.04a.7.7 0 0 1-.43-.429C5 11.42 5 11.28 5 11Zm.04-3.531C5 7.58 5 7.72 5 8s0 .419.04.531a.7.7 0 0 0 .429.43C5.58 9 5.72 9 6 9s.419 0 .531-.04a.7.7 0 0 0 .43-.429C7 8.42 7 8.28 7 8s0-.419-.04-.531a.7.7 0 0 0-.429-.43C6.42 7 6.28 7 6 7s-.419 0-.531.04a.7.7 0 0 0-.43.429ZM9 5c0-.28 0-.419.04-.531a.7.7 0 0 1 .429-.43C9.58 4 9.72 4 10 4s.419 0 .531.04a.7.7 0 0 1 .43.429C11 4.58 11 4.72 11 5s0 .419-.04.531a.7.7 0 0 1-.429.43C10.42 6 10.28 6 10 6s-.419 0-.531-.04a.7.7 0 0 1-.43-.429C9 5.42 9 5.28 9 5Zm.04 5.469C9 10.58 9 10.72 9 11s0 .419.04.531a.7.7 0 0 0 .429.43C9.58 12 9.72 12 10 12s.419 0 .531-.04a.7.7 0 0 0 .43-.429C11 11.42 11 11.28 11 11s0-.419-.04-.531a.7.7 0 0 0-.429-.43C10.42 10 10.28 10 10 10s-.419 0-.531.04a.7.7 0 0 0-.43.429ZM9 8c0-.28 0-.419.04-.531a.7.7 0 0 1 .429-.43C9.58 7 9.72 7 10 7s.419 0 .531.04a.7.7 0 0 1 .43.429C11 7.58 11 7.72 11 8s0 .419-.04.531a.7.7 0 0 1-.429.43C10.42 9 10.28 9 10 9s-.419 0-.531-.04a.7.7 0 0 1-.43-.429C9 8.42 9 8.28 9 8Z M9.281 1H6.72c-.674 0-1.225 0-1.672.037-.463.037-.882.118-1.272.317a3.25 3.25 0 0 0-1.42 1.42c-.2.391-.28.81-.318 1.273C2 4.494 2 5.045 2 5.719v4.562c0 .674 0 1.224.037 1.672.037.463.118.882.317 1.273a3.25 3.25 0 0 0 1.42 1.42c.391.199.81.28 1.273.317.447.037.998.037 1.672.037H9.28c.674 0 1.224 0 1.672-.037.463-.037.882-.118 1.273-.317a3.25 3.25 0 0 0 1.42-1.42c.199-.391.28-.81.317-1.273.037-.447.037-.998.037-1.671V5.718c0-.674 0-1.225-.037-1.672-.037-.463-.118-.882-.317-1.272a3.25 3.25 0 0 0-1.42-1.42c-.391-.2-.81-.28-1.273-.318C10.506 1 9.955 1 9.281 1ZM4.456 2.69c.144-.073.343-.128.713-.158.38-.031.869-.032 1.581-.032h2.5c.712 0 1.202 0 1.58.032.371.03.57.085.714.159.33.168.598.435.765.765.074.144.13.343.16.713.03.38.031.869.031 1.581v4.5c0 .712 0 1.202-.032 1.58-.03.371-.085.57-.159.714a1.75 1.75 0 0 1-.764.765c-.145.074-.344.13-.714.16-.38.03-.869.031-1.581.031h-2.5c-.712 0-1.202 0-1.58-.032-.371-.03-.57-.085-.714-.159a1.75 1.75 0 0 1-.765-.764c-.074-.145-.13-.344-.16-.714-.03-.38-.031-.869-.031-1.581v-4.5c0-.712 0-1.202.032-1.58.03-.371.085-.57.159-.714a1.75 1.75 0 0 1 .765-.765Z" clip-rule="evenodd"/></svg>
