<svg xmlns="http://www.w3.org/2000/svg" width="16" height="16" fill="none" viewBox="0 0 16 16"><path fill="currentColor" d="m7.607 0 .0535.006a.25.25 0 0 1 .1891.2989l-.0283.111c-.0299.1039-.0648.1867-.1047.2484-1.8879 2.9148-1.0588 4.667.2142 4.8552 1.3167.1948 2.2799-.6873 2.0738-2.5913a394.1881 394.1881 0 0 1-.089-.8289.23.23 0 0 1 .3553-.2163l.1457.1025c.397.2963.8605.7749 1.3904 1.4359 1.9851 2.4756 2.1857 4.5737 2.1936 5.614l-.0006.2C13.9572 12.651 11.4286 15 8 15s-6-2.3486-6-5.7646C2.0152 6.649 3.3217 3.0087 6.9284.4352c.1348-.0962.3109-.2249.5283-.3861a.25.25 0 0 1 .2038-.043L7.607-.0002Zm2.898 6.505L7 10.01 5.495 8.505a.7.7 0 1 0-.99.99l2 2a.7001.7001 0 0 0 .99 0l4-4a.7001.7001 0 0 0-.99-.99Z"/></svg>
