<svg xmlns="http://www.w3.org/2000/svg" width="16" height="16" fill="none" viewBox="0 0 16 16"><path fill="currentColor" d="M7.4563.0492a.25.25 0 0 1 .3929.2558c-.0355.1573-.0798.2771-.133.3594-1.8878 2.9148-1.0587 4.667.2142 4.8552 1.3166.1947 2.2797-.6874 2.0736-2.5913a404.4716 404.4716 0 0 1-.089-.829.2299.2299 0 0 1 .3552-.2162h.0001c.4278.282.9399.7948 1.536 1.5384 2.1218 2.6463 2.2048 4.8613 2.1928 5.814C13.9563 12.651 11.4279 15 7.9996 15 4.5712 15 2 12.6515 2 9.2354 2.0152 6.6492 3.3216 3.0088 6.928.4353c.1348-.0962.3109-.2248.5283-.386Z"/></svg>
