<svg fill="none" height="16" width="17" xmlns="http://www.w3.org/2000/svg"><path clip-rule="evenodd" d="M11 0a.65.65 0 00-.65.65v.7a.65.65 0 101.3 0v-.7A.65.65 0 0011 0zm0 3a2.5 2.5 0 100 5 2.5 2.5 0 000-5zm4.85 1.85a.65.65 0 110 1.3h-.7a.65.65 0 110-1.3zM7.11 1.61a.65.65 0 000 .92l.496.495a.65.65 0 00.92-.92l-.496-.494a.65.65 0 00-.92 0zm6.86 0a.65.65 0 11.92.92l-.496.495a.65.65 0 11-.92-.92zM1.14 5.383a.75.75 0 011.045-.177c.102.073.196.142.283.207C2.948 5.768 3.26 6 4 6h.001c.74 0 1.052-.232 1.531-.588.088-.065.181-.134.284-.207a.75.75 0 11.868 1.223c-.07.05-.142.104-.219.162-.51.386-1.201.91-2.464.91h-.002c-1.263 0-1.954-.524-2.464-.91-.076-.058-.149-.113-.219-.162a.75.75 0 01-.177-1.046zM4 11.5c.602 0 1.082-.114 1.495-.3.39-.175.696-.405.936-.586l.019-.014c.257-.193.444-.33.67-.432.212-.095.482-.168.88-.168s.668.073.88.168c.226.102.413.24.67.432l.019.014c.24.18.547.41.936.586.413.186.893.3 1.495.3 1.263 0 1.955-.524 2.465-.91.077-.058.15-.113.22-.163a.75.75 0 00-.868-1.223c-.104.073-.197.143-.286.208-.479.356-.79.588-1.531.588-.399 0-.668-.073-.88-.168-.226-.102-.413-.24-.67-.432l-.019-.014c-.24-.18-.547-.41-.936-.586A3.556 3.556 0 008 8.5c-.602 0-1.082.114-1.495.3-.39.175-.696.406-.936.586L5.55 9.4c-.257.193-.444.33-.67.432-.212.095-.482.168-.88.168-.74 0-1.052-.232-1.532-.588a15.93 15.93 0 00-.283-.207.75.75 0 10-.869 1.223c.07.05.143.104.22.162.509.386 1.2.91 2.464.91zm1.495 3.7c-.413.186-.893.3-1.495.3-1.263 0-1.955-.524-2.465-.91-.076-.058-.149-.113-.219-.162a.75.75 0 01.869-1.223c.102.073.196.142.283.207.48.356.791.588 1.532.588.398 0 .668-.073.88-.168.226-.102.413-.24.67-.432l.019-.014c.24-.18.547-.41.936-.586.413-.186.893-.3 1.495-.3.602 0 1.082.114 1.495.3.39.175.696.406.936.586l.019.014c.257.193.444.33.67.432.212.095.481.168.88.168.74 0 1.052-.231 1.531-.588.088-.065.182-.135.286-.208a.75.75 0 11.868 1.223c-.07.05-.143.105-.22.163-.51.386-1.202.91-2.465.91a3.557 3.557 0 01-1.495-.3c-.39-.175-.696-.405-.936-.586L9.55 14.6c-.257-.193-.444-.33-.67-.432C8.668 14.073 8.398 14 8 14s-.668.073-.88.168c-.226.102-.413.24-.67.432l-.019.014c-.24.18-.547.41-.936.586z" fill="currentColor" fill-rule="evenodd"/></svg>
