<svg xmlns="http://www.w3.org/2000/svg" width="16" height="16" fill="none" viewBox="0 0 16 16"><path fill="currentColor" fill-rule="evenodd" d="M5.4672 3.5H4.15c-.4324 0-.7116.0006-.9241.018-.2038.0166-.2793.0449-.3164.0638a.75.75 0 0 0-.3277.3277c-.019.0371-.0472.1126-.0638.3164-.0174.2125-.018.4917-.018.9241V6.5h11.0026c-.0003-.3488-.0026-.5873-.0179-.7741-.0166-.2038-.0449-.2793-.0638-.3164a.7496.7496 0 0 0-.3278-.3277c-.037-.019-.1126-.0472-.3163-.0638-.2125-.0174-.4917-.018-.9241-.018-1.2869 0-2.5737-.003-3.8605 0-.1537.0004-.3394.0009-.522-.043a1.554 1.554 0 0 1-.4491-.186c-.16-.098-.291-.2297-.3995-.3386-.2578-.259-.5168-.517-.7752-.7753-.1401-.1401-.181-.157-.3792-.157ZM13.5027 8H2.5v2.85c0 .4324.0006.7116.018.9241.0166.2038.0449.2793.0638.3164a.7501.7501 0 0 0 .3277.3278c.037.0189.1126.0471.3164.0638.2125.0173.4917.0179.9241.0179h7.7027c.4324 0 .7116-.0006.9241-.0179.2038-.0167.2793-.0449.3164-.0638a.7509.7509 0 0 0 .3278-.3278c.0188-.0371.0471-.1126.0637-.3164.0174-.2125.018-.4917.018-.9241V8Zm-7.473-5.957c.1586.038.3102.1008.4492.186.16.098.291.2297.3995.3387.2578.259.5168.5168.7752.7752.1381.1382.1822.1571.3792.1571h3.8488c.3953 0 .7364 0 1.0173.023.2965.0242.5914.0776.8752.2222.4234.2158.7676.56.9833.9833.1446.2838.1981.5787.2223.8752.023.281.023.622.023 1.0174v4.2578c0 .3954 0 .7364-.0229 1.0174-.0243.2965-.0777.5914-.2223.8752a2.25 2.25 0 0 1-.9833.9833c-.2838.1446-.5787.1981-.8752.2223C12.618 14 12.277 14 11.8816 14H4.1211c-.3954 0-.7365 0-1.0174-.0229-.2965-.0242-.5914-.0777-.8752-.2223a2.2498 2.2498 0 0 1-.9833-.9833c-.1446-.2838-.198-.5787-.2223-.8752C1 11.6154 1 11.2743 1 10.8789V5.1211c0-.3954 0-.7364.023-1.0174.0242-.2965.0776-.5914.2222-.8752a2.25 2.25 0 0 1 .9833-.9832c.2838-.1446.5787-.1981.8752-.2224C3.3847 2 3.7257 2 4.1211 2h1.3461c.161 0 .3636-.0048.5626.043Z" clip-rule="evenodd"/></svg>
