<svg width="16" height="16" viewBox="0 0 16 16" fill="none" xmlns="http://www.w3.org/2000/svg">
<path fill-rule="evenodd" clip-rule="evenodd" d="M9.2197 5.71935C8.92661 6.01205 8.92628 6.48692 9.21898 6.78001C9.51167 7.07311 9.98654 7.07343 10.2796 6.78074L12.5046 4.55881L12.5046 6.24999C12.5046 6.66421 12.8404 6.99999 13.2546 6.99999C13.6688 6.99999 14.0046 6.66421 14.0046 6.24999L14.0046 2.7499C14.0046 2.55099 13.9256 2.36022 13.7849 2.21957C13.6443 2.07892 13.4535 1.9999 13.2546 1.9999H9.75002C9.3358 1.9999 9.00002 2.33569 9.00002 2.7499C9.00002 3.16411 9.3358 3.4999 9.75002 3.4999H11.4422L9.2197 5.71935ZM6.77926 10.2807C7.07231 9.98792 7.07257 9.51305 6.77983 9.22C6.48709 8.92695 6.01222 8.92669 5.71917 9.21943L3.49628 11.4399L3.49628 9.74999C3.49628 9.33577 3.16049 8.99999 2.74628 8.99999C2.33206 8.99999 1.99628 9.33577 1.99628 9.74999V13.2492C1.99628 13.4481 2.07529 13.6389 2.21595 13.7796C2.3566 13.9202 2.54736 13.9992 2.74628 13.9992L6.24962 13.9992C6.66383 13.9992 6.99962 13.6634 6.99962 13.2492C6.99962 12.835 6.66383 12.4992 6.24962 12.4992H4.55831L6.77926 10.2807Z" fill="currentColor"/>
</svg>
