<svg fill="none" height="16" viewBox="0 0 16 16" width="16" xmlns="http://www.w3.org/2000/svg"><path clip-rule="evenodd" d="m8 3.5h-2c-3.75 0-5 2.99999-5 6 0 1.75.5 3.5 2 3.5.65474 0 1.02369-.5239 1.4395-1.1144.53681-.7624 1.15173-1.6356 2.5605-1.6356h1 1c1.4088 0 2.0237.8732 2.5605 1.6356.4158.5905.7848 1.1144 1.4395 1.1144 1.5 0 2-1.75 2-3.5 0-3.00001-1.25-6-5-6zm2 4c0-.27614.2239-.5.5-.5h2c.2761 0 .5.22386.5.5s-.2239.5-.5.5h-2c-.2761 0-.5-.22386-.5-.5zm-6-1c0-.27614.22386-.5.5-.5s.5.22386.5.5v.5h.5c.27614 0 .5.22386.5.5s-.22386.5-.5.5h-.5v.5c0 .27614-.22386.5-.5.5s-.5-.22386-.5-.5v-.5h-.5c-.27614 0-.5-.22386-.5-.5s.22386-.5.5-.5h.5z" fill="currentColor" fill-rule="evenodd"/></svg>
