<svg xmlns="http://www.w3.org/2000/svg" width="16" height="16" fill="none" viewBox="0 0 16 16"><path fill="currentColor" fill-rule="evenodd" d="m12.0659 14.9091-.1386.0729-.9622.4654c-.8486.3803-1.6213.2205-2.3379-.4405a3.4511 3.4511 0 0 1-.1358-.1319l-.1252-.1337-.1062-.1225a2.728 2.728 0 0 0-.139-.1519l-.0794-.0782-.0407-.0375-.075.0711-.086.0882-.0964.1083c-.78.9249-1.6032 1.2569-2.601.8703l-.1438-.0601-.861-.4169-.2557-.1304c-.3899-.2121-.6087-.4153-.8225-.865-.1472-.3098-.2046-.616-.1961-.9581l.0002-.0102c.0051-.1778.0278-.3653.0649-.5681l.0363-.1835.0005-.0023a2.718 2.718 0 0 0 .0335-.1955l.015-.1399-.0033-.0033-.085-.0113-.1199-.0107-.1424-.0062c-.2986-.0054-.5687-.0357-.8113-.0922l-.0073-.0017c-.7904-.186-1.2864-.6511-1.5174-1.4381l-.0402-.151-.2387-1.0387c-.1925-.967.193-1.7134 1.1163-2.2725l.159-.0915.1436-.0755a2.7338 2.7338 0 0 0 .1767-.0989l.1268-.0824.0032-.0155-.0512-.088-.0662-.1022-.0835-.1168a4.849 4.849 0 0 1-.1208-.167 4.1563 4.1563 0 0 1-.129-.1983c-.5288-.8671-.529-1.646.0233-2.4118l.0947-.1244.6746-.827c.6464-.7465 1.4741-.9033 2.4848-.5227l.1702.0684.1482.0663c.0558.026.1168.0514.1817.076l.111.039.0295-.014.0275-.0722.037-.1126.0377-.1354a4.986 4.986 0 0 1 .0418-.1561l.006-.0206a3.9 3.9 0 0 1 .1495-.426l.0143-.0333C5.8916.5164 6.4432.0795 7.3.0087L7.456 0l1.1374.0007c.9892.0307 1.6324.5729 1.9715 1.595l.0537.1747.0416.1565c.0151.0603.0339.1244.056.191l.0469.13.0279.014.0565-.0186.1094-.0418.1276-.0553a5.0321 5.0321 0 0 1 .1578-.07l.0223-.0093c.1275-.053.2517-.098.3727-.1346l.0382-.0113c.8773-.2547 1.586-.0715 2.1827.5818l.1025.1182.6717.8293c.5986.7851.5804 1.6243-.0034 2.5301l-.1026.1516-.0959.1307a2.7488 2.7488 0 0 0-.1162.1673l-.058.0935-.0275.0469.0033.0163.075.0493.1036.0624.1256.068c1.1376.5783 1.6071 1.3389 1.426 2.3954l-.0303.153-.1999.8634c-.1295.5587-.2312.8232-.6313 1.1861-.2903.2634-.6112.4113-.9992.4893l-.0072.0015a3.6494 3.6494 0 0 1-.4116.0556l-.1801.0117-.1624.0052a2.0527 2.0527 0 0 0-.0486.0013l-.0039.0002a2.946 2.946 0 0 0-.1491.01l-.1481.0175.0108.1162.0109.0782.0264.1458c.0644.3029.0955.582.0922.8385l-.0001.0078c-.0126.7934-.3562 1.3697-1.0649 1.766ZM9.3054 2.6274a1.5166 1.5166 0 0 1-.0131-.0377 4.2281 4.2281 0 0 1-.0842-.2864l-.0318-.12-.0398-.1292c-.1056-.312-.2152-.4274-.2629-.4663-.0328-.0268-.1057-.078-.3081-.0871L7.4975 1.5l-.0902.005c-.181.0172-.2496.062-.276.0818-.033.0247-.111.0957-.2006.302a2.3843 2.3843 0 0 0-.1033.2942 3.4267 3.4267 0 0 0-.0291.109 1.5419 1.5419 0 0 1-.0099.0372l-.0377.1354a1.4982 1.4982 0 0 1-.0198.0652l-.0369.1126a1.4914 1.4914 0 0 1-.0234.0662l-.0276.0723a1.5 1.5 0 0 1-.7632.8236l-.0295.0138a1.5 1.5 0 0 1-1.1356.058l-.111-.039a4.2409 4.2409 0 0 1-.3053-.1255l-.1139-.051-.1263-.0507c-.3118-.1154-.473-.1033-.5352-.0906-.0428.0088-.128.0333-.2614.183l-.642.7871-.0657.0863c-.1322.1876-.1269.275-.1234.316.0069.08.056.2914.3394.6666.0079.0104.0156.021.0232.0315l.0835.1168a1.502 1.502 0 0 1 .0388.057l.0661.102c.013.0201.0256.0406.0376.0613l.0513.088a1.5 1.5 0 0 1 .171 1.0649l-.0032.0155a1.5 1.5 0 0 1-.6495.9468l-.1267.0825a1.5077 1.5077 0 0 1-.0406.0255 4.2543 4.2543 0 0 1-.2641.148l-.1103.058-.1179.0678c-.2831.1737-.3712.3067-.3981.3607-.0179.036-.051.1152-.015.3106l.2272.9885.0278.1044c.0537.1756.1112.2387.1359.262.0257.0242.0956.0801.285.1242.1201.0279.2827.0494.4983.0533.0129.0002.0257.0006.0386.0012l.1424.0062c.0227.001.0453.0025.068.0045l.12.0108a1.406 1.406 0 0 1 .0647.0072l.085.0113c.3253.0434.6275.1924.8601.424l.0033.0033a1.5 1.5 0 0 1 .433 1.2227l-.015.1399a1.5027 1.5027 0 0 1-.0052.042c-.0133.0984-.03.198-.0507.2965l-.0322.1625c-.0262.1455-.0369.2515-.0392.3313-.0038.1346.0148.2049.0513.2815.0344.0724.0562.1063.065.1185.0106.0082.04.0288.104.0644l.222.1131.8102.3923.0842.0352c.2001.0749.2818.0505.328.0343.0867-.0304.279-.1346.5692-.4787a1.58 1.58 0 0 1 .0257-.0298l.0964-.1083a1.5322 1.5322 0 0 1 .0473-.0508l.086-.0881a1.4293 1.4293 0 0 1 .0417-.0411l.075-.0711c.5729-.5431 1.4686-.5492 2.0489-.0141l.0406.0375a1.643 1.643 0 0 1 .0357.034l.0794.0782.0175.0175a4.303 4.303 0 0 1 .208.2272l.0815.094.0928.099c.0244.0246.048.0474.0709.0685.206.19.3345.2304.3866.2404.04.0078.1278.0173.3045-.059l.9159-.4431.0964-.0507c.1595-.0915.2093-.1617.2264-.1904.0173-.0287.0545-.1036.0569-.2859.0016-.1229-.0131-.2888-.0595-.5068a1.7554 1.7554 0 0 1-.0088-.0446l-.0264-.1458a1.5177 1.5177 0 0 1-.0096-.0598l-.0109-.0782a1.4651 1.4651 0 0 1-.008-.0692l-.0108-.1162c-.0751-.8102.5095-1.5326 1.3176-1.6281.1395-.0165.2785-.0315.4191-.0369l.1967-.0061c.2202-.0143.4896-.0137.6626-.1706l.0877-.0884c.0071-.0156.0334-.081.09-.3252l.1945-.84.0213-.1072c.0358-.2236-.0068-.2993-.0286-.3355-.0422-.0702-.1807-.2397-.6014-.4536a1.388 1.388 0 0 1-.0342-.018l-.1256-.068a1.44 1.44 0 0 1-.0593-.0338l-.1036-.0624a1.4154 1.4154 0 0 1-.0506-.0318l-.0751-.0494a1.4997 1.4997 0 0 1-.6467-.9584l-.0033-.0163a1.5002 1.5002 0 0 1 .1771-1.0545l.0275-.0468a1.3195 1.3195 0 0 1 .019-.0313l.058-.0936.0132-.0208a4.2409 4.2409 0 0 1 .1737-.2506l.0736-.1002.0759-.1122c.1774-.2788.1976-.4356.198-.4949.0003-.0394-.0046-.1255-.1238-.2865l-.6393-.7893-.0711-.082c-.1344-.1439-.2175-.1722-.2515-.1812-.0406-.0107-.1537-.03-.3948.04a2.4562 2.4562 0 0 0-.268.0967 3.4839 3.4839 0 0 0-.1099.0487 1.5593 1.5593 0 0 1-.0345.0155l-.1276.0553a1.5427 1.5427 0 0 1-.0619.0252l-.1094.0418a1.4797 1.4797 0 0 1-.0657.0233l-.0565.0186a1.4998 1.4998 0 0 1-1.1379-.0821l-.0279-.0139a1.5 1.5 0 0 1-.742-.8331l-.047-.13Z" clip-rule="evenodd"/><path fill="currentColor" fill-rule="evenodd" d="M8 9.5c.8284 0 1.5-.6716 1.5-1.5S8.8284 6.5 8 6.5 6.5 7.1716 6.5 8 7.1716 9.5 8 9.5ZM8 11c1.6569 0 3-1.3431 3-3S9.6569 5 8 5 5 6.3431 5 8s1.3431 3 3 3Z" clip-rule="evenodd"/></svg>
