<svg xmlns="http://www.w3.org/2000/svg" width="16" height="16" fill="none" viewBox="0 0 16 16"><path fill="currentColor" fill-rule="evenodd" d="m11.5577 14.0514-.1213.0638-.8419.4075c-.7426.3329-1.4187.193-2.0457-.3856a3.4415 3.4415 0 0 1-.1188-.1156l-.1096-.117-.093-.1072a2.3592 2.3592 0 0 0-.1215-.133l-.0695-.0685-.0356-.0328-.0656.0623-.0753.0772-.0843.0948c-.6825.8097-1.4028 1.1003-2.276.7618l-.1257-.0526-.7534-.365-.2238-.1141c-.3411-.1857-.5325-.3635-.7196-.7572-.1288-.2712-.179-.5392-.1716-.8387l.0002-.0089c.0044-.1557.0243-.3198.0567-.4974l.0318-.1606.0005-.002a2.3834 2.3834 0 0 0 .0292-.1711l.0132-.1225-.0029-.0029-.0743-.0099-.105-.0094-.1246-.0054c-.2612-.0047-.4976-.0313-.7099-.0807l-.0064-.0015c-.6916-.1628-1.1255-.5699-1.3277-1.2589l-.0351-.1322-.209-.9093c-.1684-.8465.169-1.4999.9769-1.9893l.139-.0801.1257-.0661a2.3982 2.3982 0 0 0 .1547-.0865l.1109-.0722.0028-.0136-.0448-.077-.058-.0895-.073-.1022a4.2602 4.2602 0 0 1-.1057-.1462 3.6347 3.6347 0 0 1-.1129-.1736c-.4627-.759-.4629-1.4408.0204-2.1113l.0829-.1089.5903-.724c.5656-.6534 1.2898-.7907 2.1742-.4575l.1488.0599.1297.058c.0488.0227.1022.045.159.0665l.0972.0341.0258-.0121.024-.0633.0324-.0986.033-.1185a4.357 4.357 0 0 1 .0366-.1367l.0051-.018a3.4242 3.4242 0 0 1 .131-.373l.0124-.029c.2946-.678.7772-1.0605 1.527-1.1225L7.524 1l.9952.0006c.8655.0269 1.4283.5015 1.7251 1.3962l.047.153.0363.137a2.363 2.363 0 0 0 .0491.1673l.041.1138.0244.0121.0494-.0163.0958-.0365.1117-.0485a4.3364 4.3364 0 0 1 .138-.0612l.0196-.0082a3.4738 3.4738 0 0 1 .326-.1178l.0334-.0099c.7677-.223 1.3878-.0625 1.9099.5094l.0897.1034.5877.726c.5238.6873.5079 1.422-.003 2.2149l-.0897.1327-.0839.1143a2.3903 2.3903 0 0 0-.1017.1465l-.0508.082-.024.041.0028.0142.0657.0432.0907.0546.1099.0595c.9953.5063 1.4061 1.172 1.2476 2.097l-.0265.1339-.1749.7558c-.1133.4891-.2022.7206-.5523 1.0383-.254.2306-.5348.36-.8743.4284l-.0063.0012a3.1937 3.1937 0 0 1-.3601.0488l-.1577.0102-.1421.0045a1.562 1.562 0 0 0-.0425.0012l-.0035.0001a2.5277 2.5277 0 0 0-.1304.0088l-.1296.0153.0095.1017.0095.0685.0231.1276c.0564.2652.0836.5095.0807.734l-.0001.0069c-.011.6945-.3116 1.199-.9317 1.5459ZM8.9527 3.326a1.882 1.882 0 0 0 .0131.0378l.0411.1138c.131.363.3968.6615.742.8335l.0244.0122a1.4994 1.4994 0 0 0 1.138.0821l.0494-.0163a1.536 1.536 0 0 0 .0656-.0233l.0958-.0366a1.4808 1.4808 0 0 0 .0618-.0252l.1117-.0484a1.3755 1.3755 0 0 0 .0345-.0155 2.815 2.815 0 0 1 .0902-.04 1.9576 1.9576 0 0 1 .2139-.0773c.0944-.0274.1574-.0352.1941-.0367.0345-.0015.0491.0024.0512.003 0 0 .0096.0024.0267.0134.0182.0117.053.0374.102.0895l.0577.0666.5546.6851c.0428.0583.0587.0953.0642.1107a.0598.0598 0 0 1 .0051.0242c0 .0073-.002.1098-.1425.3315l-.0629.093-.0617.084a3.913 3.913 0 0 0-.1592.2297l-.0131.0208-.0508.082a1.7602 1.7602 0 0 0-.0189.0313l-.0241.041a1.501 1.501 0 0 0-.1771 1.055l.0028.0142a1.501 1.501 0 0 0 .6468.959l.0657.0431a1.389 1.389 0 0 0 .0506.0319l.0906.0545c.0195.0118.0393.023.0593.0339l.1099.0595a1.43 1.43 0 0 0 .0343.018c.3495.1778.4378.3055.4504.3264a.0471.0471 0 0 1 .0075.0214c.0022.014.0069.0578-.0064.143l-.0173.0873-.1695.7324c-.0255.11-.0424.1736-.0556.2158l-.0039.0121a.9723.9723 0 0 1-.0393.0375.1958.1958 0 0 1-.0496.035c-.0136.0066-.0465.0204-.1154.034a1.6719 1.6719 0 0 1-.1795.0241l-.1183.0077-.1085.0035-.0619.0018a4.0132 4.0132 0 0 0-.214.0142 1.5214 1.5214 0 0 0-.0379.004l-.1296.0153c-.8081.0956-1.3927.8183-1.3176 1.6289l.0095.1017c.0021.0231.0048.0462.008.0692l.0096.0684c.0028.02.006.04.0096.0599l.0231.1276a1.351 1.351 0 0 0 .0088.0446c.0383.1802.0491.3114.0479.4022-.0009.0692-.0087.1104-.014.1309-.0048.0184-.0091.0256-.0091.0256s-.0051.0086-.0215.0238c-.0168.0155-.0493.0418-.1063.0748l-.0783.0412-.7947.3846c-.0631.027-.103.0352-.1221.0379a.0891.0891 0 0 1-.0312.0004c-.0046-.0009-.0866-.0166-.2465-.1642a1.5704 1.5704 0 0 1-.0542-.0523l-.0768-.082-.0683-.0788a3.912 3.912 0 0 0-.1906-.2082l-.0175-.0175-.0695-.0685a1.488 1.488 0 0 0-.0357-.034l-.0356-.0329c-.5802-.5353-1.476-.5292-2.0488.0141l-.0657.0623a1.4046 1.4046 0 0 0-.0417.0411l-.0752.0771a1.5322 1.5322 0 0 0-.0473.0508l-.0843.0949a1.574 1.574 0 0 0-.0258.0297c-.2414.2864-.3836.3514-.4167.363a.0597.0597 0 0 1-.0272.0044c-.0124-.0005-.053-.0039-.129-.0319l-.0653-.0274-.7026-.3403-.1896-.0967a1.2516 1.2516 0 0 1-.0406-.0236 1.0037 1.0037 0 0 1-.026-.0514c-.0179-.0375-.0294-.0691-.0268-.1606.0017-.0578.0096-.1405.0311-.2605l.0277-.1396a3.8953 3.8953 0 0 0 .0464-.2718 1.4515 1.4515 0 0 0 .005-.0419l.0132-.1225a1.5011 1.5011 0 0 0-.4328-1.2232l-.0029-.0029a1.5002 1.5002 0 0 0-.8603-.4243l-.0742-.0099a1.5002 1.5002 0 0 0-.0649-.0072l-.105-.0094a1.4966 1.4966 0 0 0-.0679-.0045L3.396 9.942a1.5012 1.5012 0 0 0-.0385-.0012c-.1784-.0032-.3072-.0209-.397-.0418-.0724-.0168-.1147-.0347-.1363-.0456a.1184.1184 0 0 1-.027-.017s-.0074-.0068-.0183-.0255c-.0111-.0192-.0294-.0562-.0489-.119l-.0225-.0848-.1971-.8579c-.0127-.0705-.0107-.1103-.009-.1263a.0617.0617 0 0 1 .0062-.0243c.0037-.0075.0515-.0997.2764-.2381l.0976-.0563.0925-.0486c.083-.0426.164-.0884.242-.1356a1.4933 1.4933 0 0 0 .0405-.0255l.111-.0722a1.5008 1.5008 0 0 0 .6494-.9473l.0029-.0136c.077-.364.016-.7437-.1711-1.0653l-.0449-.077a1.4993 1.4993 0 0 0-.0376-.0613l-.0579-.0895a1.5059 1.5059 0 0 0-.0388-.057l-.073-.1021a1.4545 1.4545 0 0 0-.0232-.0315c-.2354-.3118-.2578-.4638-.2597-.4866a.0456.0456 0 0 1 .0027-.022c.0043-.014.0197-.0562.0698-.1279l.0533-.07.557-.6832c.0485-.0539.0819-.0776.0967-.0867a.0748.0748 0 0 1 .0272-.0117c.0112-.0023.1152-.021.3632.0705l.1047.0421.0954.0427a3.8991 3.8991 0 0 0 .2825.116l.0972.0342a1.4993 1.4993 0 0 0 1.1355-.058l.0258-.0121a1.5004 1.5004 0 0 0 .7633-.8239l.024-.0633a1.5056 1.5056 0 0 0 .0235-.0663l.0323-.0985a1.4999 1.4999 0 0 0 .0198-.0653l.033-.1185a1.4865 1.4865 0 0 0 .0098-.0373 2.8669 2.8669 0 0 1 .024-.0895 1.8997 1.8997 0 0 1 .082-.2343c.0347-.08.065-.1279.0848-.1545.0187-.0251.0296-.0333.0313-.0346 0 0 .0068-.0051.0236-.0111.0176-.0063.055-.017.1198-.0234l.0696-.0039.9248.0006c.073.0036.113.0147.1297.0206a.0735.0735 0 0 1 .0259.0133c.0073.006.0861.073.1702.3206l.033.1072.0266.1004a3.883 3.883 0 0 0 .0771.2626Z M8 9c.5523 0 1-.4477 1-1s-.4477-1-1-1-1 .4477-1 1 .4477 1 1 1Zm0 1.5c1.3807 0 2.5-1.1193 2.5-2.5S9.3807 5.5 8 5.5 5.5 6.6193 5.5 8s1.1193 2.5 2.5 2.5Z" clip-rule="evenodd"/></svg>
