<svg width="16" height="16" viewBox="0 0 16 16" fill="none" xmlns="http://www.w3.org/2000/svg"><path fill-rule="evenodd" clip-rule="evenodd" d="M3.319 5H12.681c.524 0 .929 0 1.28.094a2.75 2.75 0 0 1 1.945 1.944c.095.352.094.757.094 1.28v.163c0 .242.001.495-.06.722a1.75 1.75 0 0 1-1.237 1.237c-.227.061-.48.06-.722.06H2.019c-.242 0-.495.001-.722-.06A1.75 1.75 0 0 1 .06 9.203C-.001 8.976 0 8.723 0 8.48v-.162c0-.524 0-.929.094-1.28a2.75 2.75 0 0 1 1.944-1.945C2.39 4.999 2.795 5 3.32 5zm.098 1.5c-.669 0-.856.006-.99.043a1.25 1.25 0 0 0-.884.883c-.037.135-.043.322-.043.99 0 .162 0 .259.003.331a.658.658 0 0 0 .006.07.25.25 0 0 0 .174.174l.07.006c.072.003.169.003.33.003h11.834c.162 0 .258 0 .33-.003a.653.653 0 0 0 .07-.006.25.25 0 0 0 .174-.174c0-.005.003-.024.005-.07a8.22 8.22 0 0 0 .004-.33c0-.669-.006-.856-.043-.99a1.25 1.25 0 0 0-.884-.884c-.134-.037-.321-.043-.99-.043H3.417z" fill="currentColor"/><path fill-rule="evenodd" clip-rule="evenodd" d="M1.5 9h13v3.08c0 .535 0 .98-.03 1.345-.03.38-.098.736-.27 1.073A2.751 2.751 0 0 1 13 15.7c-.338.172-.694.24-1.074.27-.365.03-.81.03-1.345.03H5.42c-.535 0-.98 0-1.345-.03-.38-.03-.736-.098-1.073-.27A2.75 2.75 0 0 1 1.8 14.5c-.172-.338-.24-.694-.27-1.074-.03-.365-.03-.81-.03-1.345V9zM3 10.5v1.55c0 .572 0 .957.025 1.252.023.288.065.425.111.516.12.235.311.426.547.546.09.046.227.088.514.111.296.024.68.025 1.253.025h5.1c.572 0 .957 0 1.252-.025.288-.023.425-.065.516-.111a1.25 1.25 0 0 0 .546-.546c.046-.091.088-.228.111-.515.024-.296.025-.68.025-1.253V10.5H3z" fill="currentColor"/><path fill-rule="evenodd" clip-rule="evenodd" d="M8.75 5.25V15h-1.5V5.25h1.5z" fill="currentColor"/><path fill-rule="evenodd" clip-rule="evenodd" d="M12 2.653c0-.843-1.033-1.577-2.084-.876-.364.243-.678.805-.892 1.592a8.088 8.088 0 0 0-.23 1.25c1.01-.087 1.783-.341 2.313-.667.654-.403.893-.876.893-1.299zM9.084.529c1.95-1.3 4.416-.033 4.416 2.124 0 1.077-.636 1.979-1.607 2.576-.964.593-2.299.924-3.893.924h-.75v-.75c0-.595.08-1.526.326-2.428.236-.868.672-1.889 1.508-2.446z" fill="currentColor"/><path fill-rule="evenodd" clip-rule="evenodd" d="M4 2.653c0-.843 1.033-1.577 2.084-.876.364.243.678.805.892 1.592.116.424.188.862.23 1.25-1.01-.087-1.783-.341-2.313-.667C4.24 3.549 4 3.076 4 2.653zM6.916.529C4.966-.771 2.5.496 2.5 2.653c0 1.077.636 1.979 1.607 2.576.964.593 2.299.924 3.893.924h.75v-.75c0-.595-.08-1.526-.326-2.428-.236-.868-.672-1.889-1.508-2.446z" fill="currentColor"/></svg>
