<svg xmlns="http://www.w3.org/2000/svg" width="16" height="16" fill="none" viewBox="0 0 16 16"><path fill="currentColor" fill-rule="evenodd" d="M3.5 2.579C3.5.8978 5.3974-.1086 6.8957.9112 7.5159 1.3333 7.8309 2.0735 8 2.677c.169-.6036.484-1.3438 1.1043-1.766C10.6026-.1085 12.5.8979 12.5 2.579c0 .6652-.3046 1.2379-.7846 1.671h.1079c.3927-.0002.6957-.0004.9632.0528a2.75 2.75 0 0 1 2.1607 2.1607c.0532.2675.053.5705.0528.9632V7.5l.0001.0481c.0002.182.0005.3712-.0337.5433A1.7502 1.7502 0 0 1 13.75 9.4271v1.1534c0 .5341 0 .9799-.0297 1.3442-.0311.3799-.0982.7365-.27 1.0738a2.751 2.751 0 0 1-1.2018 1.2018c-.3373.1718-.6939.2389-1.0738.27-.3643.0297-.8101.0297-1.3443.0297H6.1696c-.5342 0-.98 0-1.3443-.0297-.3799-.0311-.7365-.0982-1.0738-.27a2.7505 2.7505 0 0 1-1.2018-1.2018c-.1718-.3373-.239-.6939-.27-1.0738-.0297-.3643-.0297-.8101-.0297-1.3443V9.4271a1.75 1.75 0 0 1-1.2164-1.3357C.9994 7.9194.9996 7.73 1 7.5481v-.1214c-.0002-.3927-.0004-.6957.0529-.9632a2.75 2.75 0 0 1 2.1606-2.1607c.2675-.0532.5705-.053.9632-.0528h.1079C3.8046 3.8169 3.5 3.2442 3.5 2.579Zm5.8154 1.1139c.5143-.0768.9068-.2237 1.1803-.3955.3955-.2485.5043-.5142.5043-.7184 0-.4144-.4974-.8051-1.0517-.4278-.1762.12-.3744.4432-.5183.9833a5.21 5.21 0 0 0-.1146.5584Zm-2.6308 0a5.21 5.21 0 0 0-.1146-.5584c-.1439-.54-.3421-.8634-.5183-.9833C5.4974 1.7739 5 2.1646 5 2.579c0 .2042.1088.4699.5043.7184.2735.1718.666.3187 1.1803.3955ZM7.25 5.75h-3c-.5006 0-.6414.0036-.7439.024a1.25 1.25 0 0 0-.982.9821c-.0205.1025-.024.2433-.024.7439 0 .1212 0 .1934.0019.2478a.669.669 0 0 0 .0032.053.25.25 0 0 0 .194.194.6632.6632 0 0 0 .053.0032C2.8066 8 2.8788 8 3 8h4.25V5.75Zm0 3.75h-3.5v1.05c0 .5724.0006.9566.0248 1.2525.0234.2871.0653.4244.1115.515a1.25 1.25 0 0 0 .5462.5463c.0906.0461.2279.088.515.1114.2959.0242.68.0248 1.2525.0248h1.05V9.5Zm1.5 3.5V9.5h3.5v1.05c0 .5724-.0006.9566-.0248 1.2525-.0234.2871-.0653.4244-.1114.515a1.2508 1.2508 0 0 1-.5463.5463c-.0906.0461-.2278.088-.515.1114-.2959.0242-.6801.0248-1.2525.0248H8.75Zm0-5V5.75h3c.5006 0 .6414.0036.7439.024a1.25 1.25 0 0 1 .9821.9821c.0204.1025.024.2433.024.7439a8.05 8.05 0 0 1-.002.2478.6045.6045 0 0 1-.0032.053.25.25 0 0 1-.1941.194.6608.6608 0 0 1-.0529.0032A8.174 8.174 0 0 1 13 8H8.75Z" clip-rule="evenodd"/></svg>
