<svg xmlns="http://www.w3.org/2000/svg" width="16" height="16" fill="none" viewBox="0 0 16 16"><path fill="currentColor" d="M9.0017 1.0016c0 .5531-.4484 1.0015-1.0016 1.0015-.5531 0-1.0015-.4484-1.0015-1.0015C6.9985.4484 7.447 0 8 0c.5532 0 1.0016.4484 1.0016 1.0016Z"/><path fill="currentColor" fill-rule="evenodd" d="M9.117 2.3226c.5245-.3154 1.1567-.4022 1.8075-.2465a.75.75 0 0 1 .5549.9038.75.75 0 0 1-.9038.555c-.3056-.073-.5291-.0209-.6853.0731-.1613.097-.3083.2736-.3896.5445-.1243.4141.159.9865.7237 1.1216.6331.1514 1.1786-.2045 1.3027-.6176a.7498.7498 0 0 1 .4559-.487l3.0046-1.1221A.75.75 0 0 1 16 3.75v.044c.0001 1.328.0001 3.1736-.3683 4.6754-.2425.9885-.9169 2.2375-2.2536 2.4901-.5393.102-1.1155.0777-1.6694-.0071.1058.1203.2034.2514.2879.3929.1996.3341.3364.7439.3136 1.2082-.023.4666-.2042.9246-.5358 1.357a.75.75 0 0 1-.4137.2712l-3.1753.7917a.7536.7536 0 0 1-.181.0225.7518.7518 0 0 1-.1858-.0225l-3.1753-.7916a.7504.7504 0 0 1-.4137-.2713c-.3317-.4324-.5128-.8904-.5358-1.357-.0229-.4642.114-.8741.3135-1.2082a2.6642 2.6642 0 0 1 .288-.3928c-.554.0847-1.13.109-1.6694.007C1.2892 10.7069.6148 9.4579.3723 8.4694.0039 6.9676.0039 5.122.004 3.7939V3.75a.75.75 0 0 1 1.0124-.7026L4.021 4.1695a.75.75 0 0 1 .456.487c.124.4131.6695.769 1.3026.6176.5647-.135.848-.7075.7237-1.1216-.0813-.271-.2283-.4475-.3896-.5445-.1562-.094-.3797-.1462-.6853-.073a.75.75 0 0 1-.3489-1.459c.6508-.1556 1.283-.0688 1.8074.2467.5195.3124.8782.8159 1.053 1.3985a2.23 2.23 0 0 1 .062.2637 2.2295 2.2295 0 0 1 .0621-.2637c.175-.5826.5336-1.086 1.053-1.3986ZM8.002 4.7443c-.1577.9318-.8811 1.7513-1.8735 1.9886-1.1504.2752-2.4146-.2283-2.9403-1.2732l-1.6785-.6269c.0163 1.113.079 2.2992.3194 3.2792.1932.7877.615 1.2866 1.0754 1.3736.7377.1395 1.7241-.0912 2.6494-.3883a.75.75 0 0 1 .9793.7142v.9894a.75.75 0 0 1-.4875.7026c-.2384.089-.5796.3248-.7507.6113-.0774.1294-.1087.2492-.103.3649.0038.0779.0258.1834.0968.3171l2.7132.6764 2.7132-.6764c.071-.1337.093-.2392.0968-.3171.0057-.1157-.0256-.2355-.103-.3649-.1712-.2865-.5124-.5223-.7507-.6113a.75.75 0 0 1-.4875-.7026v-.9894a.75.75 0 0 1 .9792-.7142c.9254.297 1.9118.5278 2.6495.3883.4604-.087.8822-.5859 1.0754-1.3736.2404-.98.3031-2.1663.3194-3.2792l-1.6785.6269c-.5257 1.0449-1.79 1.5484-2.9403 1.2732-.9924-.2373-1.7158-1.0568-1.8735-1.9886Z" clip-rule="evenodd"/></svg>
