<svg fill="none" height="16" viewBox="0 0 16 16" width="16" xmlns="http://www.w3.org/2000/svg"><path clip-rule="evenodd" d="m7.15715 2.01665c-.40502-.08679-.80371.17119-.8905.57621l-.51582 2.40714h-2.00083l-.10177.00685c-.36608.04966-.64823.36346-.64823.74315 0 .41422.33579.75.75.75h1.6794l-.64285 3h-2.03655l-.10177.00685c-.36608.04966-.64823.36346-.64823.74315 0 .4142.33579.75.75.75h1.71512l-.44847 2.0929-.01463.1009c-.02814.3684.21957.71.59083.7896.40502.0867.80371-.1712.8905-.5763l.51582-2.4071h2.71595l-.44847 2.0929-.01463.1009c-.02814.3684.21957.71.59083.7896.40502.0867.80371-.1712.8905-.5763l.51585-2.4071h2.0008l.1018-.0068c.366-.0497.6482-.3635.6482-.7432 0-.41421-.3358-.75-.75-.75h-1.6794l.6429-3h2.0365l.1018-.00684c.366-.04967.6482-.36346.6482-.74316 0-.41421-.3358-.75-.75-.75h-1.7151l.4485-2.09285.0146-.10095c.0281-.36835-.2196-.70999-.5909-.78955-.405-.08679-.8037.17119-.8905.57621l-.5158 2.40714h-2.71592l.44847-2.09285.01463-.10095c.02814-.36835-.21957-.70999-.59083-.78955zm1.8794 7.48335.64285-3h-2.71595l-.64285 3z" fill="currentColor" fill-rule="evenodd"/></svg>
