<svg xmlns="http://www.w3.org/2000/svg" width="16" height="16" fill="none" viewBox="0 0 16 16"><path fill="currentColor" fill-rule="evenodd" d="M1.5 8c0-3.5899 2.9101-6.5 6.5-6.5s6.5 2.9101 6.5 6.5v4.25c0 1.2426-1.0074 2.25-2.25 2.25S10 13.4926 10 12.25v-2C10 9.0074 11.0074 8 12.25 8c.263 0 .5154.0451.75.128V8c0-2.7614-2.2386-5-5-5S3 5.2386 3 8v.128c.2346-.0829.487-.128.75-.128C4.9926 8 6 9.0074 6 10.25v2c0 1.2426-1.0074 2.25-2.25 2.25S1.5 13.4926 1.5 12.25V8ZM3 10.7517V12.25a.75.75 0 0 0 1.5 0v-2a.75.75 0 0 0-1.5-.0017v.5034Zm10-.5017a.75.75 0 0 0-1.5 0v2a.75.75 0 0 0 1.5 0v-2Z" clip-rule="evenodd"/></svg>
