<svg fill="none" height="16" viewBox="0 0 16 16" width="16" xmlns="http://www.w3.org/2000/svg"><path clip-rule="evenodd" d="m1 7.75c0-3.72792 3.02208-6.75 6.75-6.75h.5c3.7279 0 6.75 3.02208 6.75 6.75v4.75c0 1.3807-1.1193 2.5-2.5 2.5s-2.5-1.1193-2.5-2.5v-2c0-1.38071 1.1193-2.5 2.5-2.5.3556 0 .6938.07422 1 .20802v-.45802c0-2.89949-2.3505-5.25-5.25-5.25h-.5c-2.89949 0-5.25 2.35051-5.25 5.25v.45802c.30623-.1338.64445-.20802 1-.20802 1.38071 0 2.5 1.11929 2.5 2.5v2c0 1.3807-1.11929 2.5-2.5 2.5s-2.5-1.1193-2.5-2.5zm12.5 2.75c0-.55228-.4477-1-1-1s-1 .44772-1 1v2c0 .5523.4477 1 1 1s1-.4477 1-1zm-11 0c0-.55228.44772-1 1-1s1 .44772 1 1v2c0 .5523-.44772 1-1 1s-1-.4477-1-1z" fill="currentColor" fill-rule="evenodd"/></svg>
