<svg fill="none" height="16" viewBox="0 0 16 16" width="16" xmlns="http://www.w3.org/2000/svg"><g fill="currentColor"><path clip-rule="evenodd" d="m8 14.5c3.5899 0 6.5-2.9101 6.5-6.5 0-3.58985-2.9101-6.5-6.5-6.5-3.58985 0-6.5 2.91015-6.5 6.5 0 3.5899 2.91015 6.5 6.5 6.5zm0 1.5c4.4183 0 8-3.5817 8-8 0-4.41828-3.5817-8-8-8-4.41828 0-8 3.58172-8 8 0 4.4183 3.58172 8 8 8z" fill-rule="evenodd"/><path d="m7.97225 9.59831c.37606 0 .58262-.21067.66207-.57259.06886-.45374.22776-.68602.93221-1.10195.74677-.44835 1.13347-1.00473 1.13347-1.8204 0-1.25861-1.01165-2.10128-2.51589-2.10128-1.13877 0-1.98623.45915-2.32521 1.17218-.10593.20527-.1589.41054-.1589.64281 0 .41053.25953.67522.67797.67522.32309 0 .56144-.15125.69385-.49696.16949-.48076.51907-.74004 1.03814-.74004.58262 0 .98517.36732.98517.89669 0 .49696-.20657.76705-.88983 1.18298-.625.37272-.9481.79406-.9481 1.43147v.07562c0 .44295.26483.75625.71505.75625zm.01059 2.40379c.48199 0 .86864-.3727.86864-.8481 0-.4753-.38665-.8481-.86864-.8481-.4767 0-.86335.3728-.86335.8481 0 .4754.38665.8481.86335.8481z"/></g></svg>
