<svg fill="none" height="16" viewBox="0 0 16 16" width="16" xmlns="http://www.w3.org/2000/svg"><path clip-rule="evenodd" d="m8 15c3.866 0 7-3.134 7-7 0-3.86599-3.134-7-7-7-3.86599 0-7 3.13401-7 7 0 3.866 3.13401 7 7 7zm-.00156-10.07259c-.45493 0-.83937.31113-.94808.7335-.1189.46196-.58977.74006-1.05173.62116-.46195-.1189-.74005-.58977-.62115-1.05173.30037-1.16704 1.35876-2.03034 2.62096-2.03034 1.49463 0 2.70626 1.21164 2.70626 2.70628 0 1.19323-.6523 1.81712-1.10928 2.24365-.44804.41818-.67484.63325-.74194 1.10298-.06746.47222-.50495.80029-.97717.73288-.47222-.06746-.80034-.50496-.73288-.97717.15501-1.08506.78919-1.67272 1.20862-2.0614l.06472-.06011c.4067-.3796.56053-.56184.56053-.98084 0-.54061-.43825-.97886-.97886-.97886zm1.00156 6.87259c0 .5523-.44772 1-1 1s-1-.4477-1-1 .44772-1 1-1 1 .4477 1 1z" fill="currentColor" fill-rule="evenodd"/></svg>
