<svg width="16" height="16" fill="none" xmlns="http://www.w3.org/2000/svg"><path fill-rule="evenodd" clip-rule="evenodd" d="M2.5 8a5.5 5.5 0 1011 0 5.5 5.5 0 00-11 0zM8 1a7 7 0 100 14A7 7 0 008 1z" fill="currentColor"/><path fill-rule="evenodd" clip-rule="evenodd" d="M8 5.15a.85.85 0 00-.823.637.75.75 0 01-1.453-.374A2.35 2.35 0 0110.35 6c0 1.036-.566 1.578-.963 1.948-.39.363-.586.55-.645.958a.75.75 0 01-1.484-.212c.134-.942.685-1.453 1.05-1.79l.055-.052c.353-.33.487-.488.487-.852A.85.85 0 008 5.15z" fill="currentColor"/><path d="M8.75 11.15a.75.75 0 11-1.5 0 .75.75 0 011.5 0z" fill="currentColor"/></svg>
