<svg xmlns="http://www.w3.org/2000/svg" width="16" height="16" fill="currentColor" viewBox="0 0 16 16"><path fill-rule="evenodd" d="M4.03 1.97a.75.75 0 0 0-1.06 1.06l1.028 1.028c-.78.44-1.444.983-1.946 1.563C1.439 6.33 1 7.171 1 8c0 .618.245 1.239.607 1.792.366.56.883 1.1 1.503 1.569A8.188 8.188 0 0 0 8 13a8.168 8.168 0 0 0 3.77-.932.757.757 0 0 0 .141-.096l1.559 1.558a.75.75 0 1 0 1.06-1.06L4.03 1.97Zm6.78 8.9L9.736 9.798a2.5 2.5 0 0 1-3.535-3.535L5.11 5.169c-.807.39-1.467.907-1.923 1.434C2.692 7.173 2.5 7.678 2.5 8c0 .232.099.568.362.97a4.91 4.91 0 0 0 1.153 1.194A6.688 6.688 0 0 0 8 11.5a6.65 6.65 0 0 0 2.81-.63ZM7.262 7.324a1 1 0 0 0 1.413 1.413L7.263 7.324Z M8.293 3.717a.75.75 0 0 1 .85-.635 8.17 8.17 0 0 1 4.11 1.85C14.251 5.79 15 6.914 15 8c0 .383-.094.764-.246 1.123a.75.75 0 0 1-1.381-.585A1.41 1.41 0 0 0 13.5 8c0-.443-.362-1.19-1.224-1.93a6.67 6.67 0 0 0-3.348-1.503.75.75 0 0 1-.635-.85Z"/></svg>
