<svg xmlns="http://www.w3.org/2000/svg" width="16" height="16" fill="currentColor" viewBox="0 0 16 16"><path d="M9.828 2.812a5.496 5.496 0 0 0-5.313.935h.735a.75.75 0 1 1 0 1.5H3.137c-.058 0-.139 0-.212-.006a1.003 1.003 0 0 1-.379-.103 1 1 0 0 1-.437-.437 1.003 1.003 0 0 1-.103-.378C2 4.248 2 4.167 2 4.11V2a.75.75 0 0 1 1.5 0v.64a6.997 6.997 0 0 1 10.255 9.345 6.998 6.998 0 0 1-7.553 2.78 7.07 7.07 0 0 1-2.96-1.615.75.75 0 1 1 1.016-1.103 5.571 5.571 0 0 0 2.33 1.268A5.496 5.496 0 0 0 13.5 7.962a5.5 5.5 0 0 0-3.672-5.15Z M7.75 5a.75.75 0 0 1 .75.75v2.473l1.32 1.539a.75.75 0 0 1-1.14.976l-1.5-1.75A.75.75 0 0 1 7 8.5V5.75A.75.75 0 0 1 7.75 5Z"/></svg>
