<svg fill="none" height="16" viewBox="0 0 16 16" width="16" xmlns="http://www.w3.org/2000/svg"><path clip-rule="evenodd" d="m3.52044 4.90579.50261-2.32788c.19879-.9207 1.01304-1.57791 1.95495-1.57791h4.0442c.9419 0 1.7561.65724 1.9549 1.57795l.5026 2.3278c.0067.03115.0117.06261.0151.09425h1.5052c.5523 0 1 .44772 1 1s-.4477 1-1 1h-12c-.55228 0-1-.44772-1-1s.44772-1 1-1h1.50526c.00339-.03163.00846-.06308.01518-.09421zm3.44667 7.00071c-.19417 1.1874-1.22482 2.0935-2.46711 2.0935-1.38071 0-2.5-1.1193-2.5-2.5s1.11929-2.5 2.5-2.5c.98964 0 1.84498.57503 2.25011 1.4092.40687-.1054.82679-.1592 1.24989-.1592s.84302.0538 1.24989.1592c.40513-.83417 1.26051-1.4092 2.25011-1.4092 1.3807 0 2.5 1.1193 2.5 2.5s-1.1193 2.5-2.5 2.5c-1.2423 0-2.27294-.9061-2.46711-2.0935-.33346-.1034-.68161-.1565-1.03289-.1565s-.69943.0531-1.03289.1565z" fill="currentColor" fill-rule="evenodd"/></svg>
