<svg fill="none" height="16" viewBox="0 0 16 16" width="16" xmlns="http://www.w3.org/2000/svg" xmlns:xlink="http://www.w3.org/1999/xlink"><clipPath id="a"><path d="m0 0h16v16h-16z"/></clipPath><g clip-path="url(#a)"><path d="m7.15296 7.90589c0-.46782.37924-.84706.84706-.84706.46781 0 .84705.37924.84705.84706v3.48231c0 .4679-.37924.8471-.84705.8471-.46782 0-.84706-.3792-.84706-.8471z" fill="currentColor"/><path d="m8.00002 3.76471c-.5198 0-.94118.42138-.94118.94118 0 .51979.42138.94117.94118.94117.51979 0 .94117-.42138.94117-.94117 0-.5198-.42138-.94118-.94117-.94118z" fill="currentColor"/><circle cx="8.02048" cy="8" r="7.25" stroke="currentColor" stroke-width="1.5"/></g></svg>
