<svg xmlns="http://www.w3.org/2000/svg" width="16" height="16" fill="none" viewBox="0 0 16 16"><path fill="currentColor" d="M6 10.75a.75.75 0 1 1-1.5 0 .75.75 0 0 1 1.5 0Z"/><path fill="currentColor" fill-rule="evenodd" d="M13.7803 1.2197a.75.75 0 0 1 0 1.0606L13.0607 3l1.7196 1.7197a.75.75 0 0 1-1.0606 1.0606L12 4.0607 11.0607 5l1.7196 1.7197a.75.75 0 0 1-1.0606 1.0606L10 6.0607 8.7853 7.2753C9.5367 8.042 10 9.0918 10 10.25c0 2.3472-1.9027 4.25-4.25 4.25-2.3471 0-4.25-1.9028-4.25-4.25S3.4028 6 5.75 6c.6408 0 1.2486.1418 1.7935.3959L9.4693 4.47l3.2504-3.2503a.75.75 0 0 1 1.0606 0ZM5.75 7.5C4.2312 7.5 3 8.7312 3 10.25S4.2312 13 5.75 13c1.5187 0 2.75-1.2312 2.75-2.75S7.2686 7.5 5.75 7.5Z" clip-rule="evenodd"/></svg>
