<svg xmlns="http://www.w3.org/2000/svg" width="16" height="16" fill="none" viewBox="0 0 16 16"><path fill="currentColor" d="M7.7612 3.0982c.086.0785.1658.1569.2392.2336a4.9284 4.9284 0 0 1 .2395-.2338C8.8219 2.5676 9.734 2 10.9605 2 13.2078 2 15 3.8598 15 6.117c0 1.1223-.2208 1.9763-.906 2.9127-.6781.9267-1.8086 1.93-3.6073 3.3619l-1.6541 1.3168a1.3343 1.3343 0 0 1-1.6652 0l-1.654-1.3168C3.7145 10.9597 2.584 9.9564 1.906 9.0296 1.2208 8.0934 1 7.2393 1 6.117 1 3.8598 2.7922 2 5.0395 2c1.2274 0 2.1396.5674 2.7217 1.0982Z"/></svg>
