<svg xmlns="http://www.w3.org/2000/svg" width="16" height="16" fill="none" viewBox="0 0 16 16"><path fill="currentColor" fill-rule="evenodd" d="M5.0395 3.5C3.6533 3.5 2.5 4.655 2.5 6.117c0 .8585.1494 1.3885.6165 2.0268.5428.7418 1.5177 1.6306 3.331 3.0743L8 12.4539l1.5524-1.2358c1.8135-1.4437 2.7883-2.3325 3.3311-3.0743.4671-.6383.6165-1.1683.6165-2.0269C13.5 4.6551 12.3467 3.5 10.9605 3.5c-.7341 0-1.3022.3348-1.7103.7067-.2266.2066-.4408.4487-.596.7149a.75.75 0 0 1-1.3087-.0007c-.1549-.266-.3687-.508-.595-.7144C6.3429 3.835 5.7749 3.5 5.0395 3.5Zm2.9609-.1682a4.9161 4.9161 0 0 0-.2392-.2336C7.1792 2.5674 6.2669 2 5.0395 2 2.7922 2 1 3.8598 1 6.117c0 1.1223.2208 1.9763.906 2.9127.6781.9267 1.8086 1.93 3.6073 3.3619l1.6541 1.3168a1.3343 1.3343 0 0 0 1.6652 0l1.6541-1.3168c1.7987-1.4319 2.9292-2.4352 3.6073-3.362.6852-.9363.906-1.7904.906-2.9127C15 3.8598 13.2078 2 10.9605 2c-1.2264 0-2.1386.5676-2.7206 1.098a4.9284 4.9284 0 0 0-.2395.2338Z" clip-rule="evenodd"/></svg>
