<svg xmlns="http://www.w3.org/2000/svg" width="16" height="16" fill="currentColor" viewBox="0 0 16 16"><path fill-rule="evenodd" d="M2.319 6.365c-.136.46-.33.64-.697.64-.366 0-.622-.223-.622-.54 0-.132.033-.283.128-.549l1.245-3.515c.226-.643.544-.901 1.141-.901.594 0 .907.254 1.13.901l1.245 3.515c.074.222.111.381.111.52 0 .346-.256.568-.647.568-.363 0-.577-.19-.71-.64l-.218-.646H2.538l-.219.647Zm1.134-3.65-.635 2.053h1.335l-.63-2.053h-.07ZM2.293 14.5c-.516 0-.793-.266-.793-.76V9.766c0-.492.277-.761.793-.761h1.705c1.065 0 1.734.519 1.734 1.348 0 .628-.388 1.087-1.008 1.2v.06C5.48 11.662 6 12.202 6 12.942c0 .934-.784 1.558-1.961 1.558H2.293Zm.557-4.552v1.292h.656c.624 0 .892-.266.892-.656 0-.387-.272-.636-.747-.636H2.85Zm0 2.145v1.465h.73c.731 0 1.033-.278 1.033-.724 0-.447-.302-.741-.896-.741H2.85Zm4.65-7.34a.75.75 0 0 1 .75-.751h6.5a.75.75 0 0 1 0 1.501h-6.5a.75.75 0 0 1-.75-.75Zm.75 6.254a.75.75 0 0 0 0 1.501h6.5a.75.75 0 0 0 0-1.5h-6.5Z" clip-rule="evenodd"/></svg>
