<svg fill="none" height="16" viewBox="0 0 16 16" width="16" xmlns="http://www.w3.org/2000/svg"><path clip-rule="evenodd" d="m14.1818 3.5c.4519 0 .8182.33579.8182.75 0 .3797-.3078.69349-.7072.74315l-.111.00685h-12.36362c-.45187 0-.81818-.33579-.81818-.75 0-.3797.3078-.69349.70716-.74315l.11102-.00685zm-7.99998 4c.45187 0 .81818.33579.81818.75 0 .3797-.3078.69349-.70716.74315l-.11102.00685h-4.36364c-.45187 0-.81818-.33579-.81818-.75 0-.3797.3078-.69349.70716-.74315l.11102-.00685zm.81818 4.75c0-.4142-.36631-.75-.81818-.75h-4.36364l-.11102.0068c-.39936.0497-.70716.3635-.70716.7432 0 .4142.36631.75.81818.75h4.36364l.11102-.0068c.39936-.0497.70716-.3635.70716-.7432zm7.6842-.8268c.4211-.2436.4211-.8528 0-1.0964l-4.73683-2.74105c-.42105-.24365-.94737.06091-.94737.54821v5.48204c0 .4873.52632.7919.94737.5482z" fill="currentColor" fill-rule="evenodd"/></svg>