<svg xmlns="http://www.w3.org/2000/svg" width="16" height="16" fill="currentColor" viewBox="0 0 16 16"><path fill-rule="evenodd" d="M2.75 5a1.25 1.25 0 1 0 0-2.5 1.25 1.25 0 0 0 0 2.5Zm3.245-1.25a.75.75 0 0 1 .75-.75h7.002a.75.75 0 0 1 0 1.5H6.745a.75.75 0 0 1-.75-.75ZM2.75 9.25a1.25 1.25 0 1 0 0-2.5 1.25 1.25 0 0 0 0 2.5Zm3.995-2a.75.75 0 1 0 0 1.5h7.002a.75.75 0 0 0 0-1.5H6.745Zm-.733 5a.75.75 0 0 1 .75-.75h6.917a.75.75 0 0 1 0 1.5H6.762a.75.75 0 0 1-.75-.75ZM2.75 13.5a1.25 1.25 0 1 0 0-2.5 1.25 1.25 0 0 0 0 2.5Z" clip-rule="evenodd"/></svg>
