<svg xmlns="http://www.w3.org/2000/svg" width="16" height="16" fill="none" viewBox="0 0 16 16"><path fill="currentColor" fill-rule="evenodd" d="M2 3.75A.75.75 0 0 1 2.75 3h10.5a.75.75 0 0 1 0 1.5H2.75A.75.75 0 0 1 2 3.75Zm0 8.5a.75.75 0 0 1 .75-.75h3.5a.75.75 0 0 1 0 1.5h-3.5a.75.75 0 0 1-.75-.75ZM2 8a.75.75 0 0 1 .75-.75h3.5a.75.75 0 0 1 0 1.5h-3.5A.75.75 0 0 1 2 8Z M14.6842 11.0363c.4211-.2407.4211-.846 0-1.0867L9.9474 7.0847C9.5264 6.844 9 7.145 9 7.6263v5.7474c0 .4814.5263.7823.9474.5416l4.7368-2.879Z"/></svg>
