<svg fill="none" height="16" viewBox="0 0 16 16" width="16" xmlns="http://www.w3.org/2000/svg"><g fill="currentColor"><path d="m14.1818 3c.4519 0 .8182.33579.8182.75 0 .3797-.3078.69349-.7072.74315l-.111.00685h-12.36362c-.45187 0-.81818-.33579-.81818-.75 0-.3797.3078-.69349.70716-.74315l.11102-.00685z"/><path d="m6.18182 7c.45187 0 .81818.33579.81818.75 0 .3797-.3078.69349-.70716.74315l-.11102.00685h-4.36364c-.45187 0-.81818-.33579-.81818-.75 0-.3797.3078-.69349.70716-.74315l.11102-.00685z"/><path d="m7 11.75c0-.4142-.36631-.75-.81818-.75h-4.36364l-.11102.0068c-.39936.0497-.70716.3635-.70716.7432 0 .4142.36631.75.81818.75h4.36364l.11102-.0068c.39936-.0497.70716-.3635.70716-.7432z"/><path d="m14.6842 11.0363c.4211-.2407.4211-.846 0-1.08668l-4.73683-2.8649c-.42105-.2407-.94737.06017-.94737.54157v5.74741c0 .4814.52632.7823.94737.5416z"/></g></svg>
