<svg fill="none" height="16" viewBox="0 0 16 16" width="16" xmlns="http://www.w3.org/2000/svg"><path d="m10.4531 2.66677c1.4396-.52068 2.1593-.78102 2.629-.61889.4082.14095.7291.46177.87.87006.1622.46965-.0982 1.18941-.6189 2.62893l-2.4455 6.76113c-.5828 1.6114-.8742 2.4171-1.24641 2.5944-.32115.153-.69929.1246-.99404-.0745-.34156-.2309-.50959-1.071-.84565-2.7513l-.64637-3.23183-3.23183-.64637c-1.6803-.33606-2.52045-.50409-2.75126-.84565-.199173-.29475-.227524-.67289-.07452-.99404.1773-.37217.983-.66359 2.5944-1.24644z" fill="currentColor"/></svg>
