<svg xmlns="http://www.w3.org/2000/svg" width="16" height="16" fill="none" viewBox="0 0 16 16"><path fill="currentColor" fill-rule="evenodd" d="M14 10v1c0 1.4001 0 2.1002-.2725 2.635a2.5 2.5 0 0 1-1.0925 1.0925C12.1002 15 11.4001 15 10 15H6c-1.4001 0-2.1002 0-2.635-.2725a2.5 2.5 0 0 1-1.0925-1.0925C2 13.1002 2 12.4001 2 11v-1c0-1.4001 0-2.1002.2725-2.635A2.5001 2.5001 0 0 1 3.365 6.2725c.1846-.094.389-.1557.635-.196V5c0-2.2091 1.7909-4 4-4 2.2091 0 4 1.7909 4 4v1.0765c.246.0403.4504.102.635.196a2.5 2.5 0 0 1 1.0925 1.0925C14 7.8998 14 8.6 14 10Zm-4-5v1H6V5c0-1.1046.8954-2 2-2s2 .8954 2 2Z" clip-rule="evenodd"/></svg>
