<svg fill="none" height="16" viewBox="0 0 16 16" width="16" xmlns="http://www.w3.org/2000/svg"><path clip-rule="evenodd" d="m8 1.25c-1.933 0-3.5 1.567-3.5 3.5v1.27399c-.49027.02993-.83809.09722-1.13498.24849-.4704.23969-.85285.62214-1.09254 1.09254-.27248.53478-.27248 1.23485-.27248 2.63498v1c0 1.4001 0 2.1002.27248 2.635.23969.4704.62214.8528 1.09254 1.0925.53478.2725 1.23485.2725 2.63498.2725h4c1.4001 0 2.1002 0 2.635-.2725.4704-.2397.8528-.6221 1.0925-1.0925.2725-.5348.2725-1.2349.2725-2.635v-1c0-1.40013 0-2.1002-.2725-2.63498-.2397-.4704-.6221-.85285-1.0925-1.09254-.2969-.15127-.6447-.21856-1.135-.24849v-1.27399c0-1.933-1.567-3.5-3.5-3.5zm2 4.75v-1.25c0-1.10457-.89543-2-2-2s-2 .89543-2 2v1.25zm-5.51985 1.52908c.34163-.02791.79503-.02908 1.51985-.02908h4c.7248 0 1.1782.00117 1.5198.02908.3242.02648.4135.06937.4342.07991.1882.09588.3411.24886.437.43702.0105.02069.0534.11002.0799.43414.0279.34163.0291.79503.0291 1.51985v1c0 .7248-.0012 1.1782-.0291 1.5198-.0265.3242-.0694.4135-.0799.4342-.0959.1882-.2488.3411-.437.437-.0207.0105-.11.0534-.4342.0799-.3416.0279-.795.0291-1.5198.0291h-4c-.72482 0-1.17822-.0012-1.51985-.0291-.32412-.0265-.41345-.0694-.43414-.0799-.18816-.0959-.34114-.2488-.43702-.437-.01054-.0207-.05343-.11-.07991-.4342-.02791-.3416-.02908-.795-.02908-1.5198v-1c0-.72482.00117-1.17822.02908-1.51985.02648-.32412.06937-.41345.07991-.43414.09588-.18816.24886-.34114.43702-.43702.02069-.01054.11002-.05343.43414-.07991z" fill="currentColor" fill-rule="evenodd"/></svg>
