<svg width="16" height="16" fill="none" xmlns="http://www.w3.org/2000/svg"><path fill-rule="evenodd" clip-rule="evenodd" d="M14 6.16C14 2.8 13.2 2 9.84 2H6.16C2.8 2 2 2.8 2 6.16v3.68C2 13.2 2.8 14 6.16 14h3.68C13.2 14 14 13.2 14 9.84V6.16zm-8.979-.468h-.875c-.25 0-.3.118-.3.248 0 .232.297 1.381 1.381 2.901.723 1.039 1.742 1.601 2.67 1.601.555 0 .624-.125.624-.34v-.785c0-.25.053-.3.229-.3.13 0 .352.065.871.566.177.176.31.324.418.444.255.284.373.415.607.415h.875c.25 0 .375-.125.303-.371-.079-.246-.362-.603-.738-1.026-.103-.122-.233-.249-.348-.361a2.677 2.677 0 01-.255-.27c-.13-.166-.092-.24 0-.388l.016-.023c.132-.187 1.058-1.516 1.162-1.989.055-.185 0-.322-.265-.322h-.875a.378.378 0 00-.38.248s-.445 1.084-1.076 1.789c-.204.204-.296.269-.408.269-.055 0-.136-.065-.136-.25V6.013c0-.223-.064-.322-.25-.322H6.896c-.139 0-.222.104-.222.201 0 .081.045.138.104.21.095.118.223.276.243.643v1.289c0 .282-.05.334-.162.334-.297 0-1.018-1.09-1.446-2.337-.084-.242-.168-.34-.392-.34z" fill="currentColor"/></svg>
