<svg xmlns="http://www.w3.org/2000/svg" width="16" height="16" fill="currentColor" viewBox="0 0 16 16"><path fill-rule="evenodd" d="M5.633.002a1.1 1.1 0 0 1 1.165 1.031l.2 3.296a1.1 1.1 0 0 1-2.196.133l-.2-3.295A1.1 1.1 0 0 1 5.633.002ZM11.03.35c.58.183.902.8.72 1.38l-1.1 3.5a1.1 1.1 0 1 1-2.1-.66l1.1-3.5a1.1 1.1 0 0 1 1.38-.72Z M12.357 14.034C13.36 12.955 14 11.548 14 10.3c0-.976-.255-1.703-.587-2.227a3.14 3.14 0 0 0-.791-.856l-.017-.013a1 1 0 0 0-1.21 1.592c.076.058.202.147.328.346.123.194.277.548.277 1.158 0 .626-.36 1.568-1.107 2.371C10.167 13.453 9.168 14 8 14c-2.485 0-4-1.723-4-3.6 0-.24.097-.614.334-.908C4.54 9.235 4.88 9 5.5 9c.12 0 .27-.006.449.053.15.05.326.15.469.418a1 1 0 1 0 1.764-.942C7.351 6.971 5.802 6.995 5.527 7c-1.064.018-2.07.393-2.75 1.238A3.546 3.546 0 0 0 2 10.4C2 13.454 4.485 16 8 16c1.832 0 3.333-.866 4.357-1.966Z"/></svg>
