<svg width="16" height="16" viewBox="0 0 16 16" fill="none" xmlns="http://www.w3.org/2000/svg">
<path fill-rule="evenodd" clip-rule="evenodd" d="M12.75 2.46958C12.8881 2.23043 13.1939 2.1485 13.433 2.28657C13.6722 2.42464 13.7541 2.73043 13.616 2.96958L12.283 5.27845C14.5173 6.69739 16 9.19383 16 12.0366H0C0 9.23543 1.43964 6.77054 3.61939 5.34143L2.25 2.96958C2.11193 2.73043 2.19387 2.42464 2.43301 2.28657C2.67216 2.1485 2.97795 2.23043 3.11603 2.46958L4.48834 4.8465C5.54846 4.32776 6.74022 4.03657 8 4.03657C9.2184 4.03657 10.3732 4.30894 11.4068 4.79612L12.75 2.46958ZM13 9.03657C13 9.58885 12.5523 10.0366 12 10.0366C11.4477 10.0366 11 9.58885 11 9.03657C11 8.48428 11.4477 8.03657 12 8.03657C12.5523 8.03657 13 8.48428 13 9.03657ZM4 10.0366C4.55228 10.0366 5 9.58885 5 9.03657C5 8.48428 4.55228 8.03657 4 8.03657C3.44772 8.03657 3 8.48428 3 9.03657C3 9.58885 3.44772 10.0366 4 10.0366Z" fill="currentColor"/>
</svg>
