<svg width="16" height="16" viewBox="0 0 16 16" fill="none" xmlns="http://www.w3.org/2000/svg">
<path fill-rule="evenodd" clip-rule="evenodd" d="M11.833 7.43966C11.8152 5.66645 13.2833 4.81604 13.3489 4.77379C12.524 3.57024 11.239 3.40537 10.7811 3.38631C9.68756 3.27591 8.64732 4.02825 8.09232 4.02825C7.53872 4.02825 6.68229 3.40263 5.77534 3.41907C4.58339 3.43674 3.48433 4.1101 2.87059 5.17448C1.63217 7.31712 2.55344 10.4913 3.76048 12.229C4.35028 13.0796 5.05358 14.035 5.97699 14.0008C6.86622 13.9654 7.20248 13.4271 8.27756 13.4271C9.35262 13.4271 9.65484 14.0008 10.5959 13.9832C11.5528 13.9655 12.159 13.1163 12.7447 12.2631C13.422 11.2763 13.7009 10.321 13.7174 10.2719C13.6961 10.2623 11.8514 9.55767 11.833 7.43966V7.43966ZM10.0647 2.23592C10.5548 1.64307 10.8857 0.820549 10.7954 0C10.0895 0.0286597 9.23374 0.468866 8.72723 1.06038C8.27276 1.58512 7.87492 2.42262 7.98153 3.22676C8.76964 3.28808 9.57412 2.82744 10.0647 2.23592V2.23592Z" fill="currentColor"/>
</svg>
