<svg fill="none" height="16" viewBox="0 0 16 16" width="16" xmlns="http://www.w3.org/2000/svg"><path clip-rule="evenodd" d="m14 6.16c0-3.36-.8-4.16-4.16-4.16h-3.68c-3.36 0-4.16.8-4.16 4.16v3.68c0 3.36.8 4.16 4.16 4.16h3.68c3.36 0 4.16-.8 4.16-4.16zm-8.97884-.46769h-.875c-.25 0-.30001.11769-.30001.24746 0 .23176.29665 1.38124 1.38123 2.90152.72305 1.03822 1.74178 1.60101 2.66878 1.60101.55619 0 .625-.125.625-.3403v-.78469c0-.25.05269-.2999.22882-.2999.12977 0 .35225.06489.87138.56547.17661.17661.30931.32423.41744.44442.255.2837.373.415.6074.415h.875c.25 0 .375-.125.3028-.3717-.0789-.24583-.3621-.60253-.738-1.02538-.1034-.12219-.233-.24915-.3477-.36155-.1116-.10929-.2091-.20482-.2548-.26882-.1298-.16684-.0927-.24102 0-.38932l.0155-.02208c.1319-.1874 1.0585-1.51608 1.1618-1.9895.0556-.18541 0-.32164-.2646-.32164h-.875c-.2225 0-.3251.11769-.3807.24746 0 0-.44499 1.0846-1.07535 1.78911-.20393.20394-.29664.26883-.40788.26883-.05562 0-.13613-.06489-.13613-.25028v-1.73348c0-.22249-.06456-.32164-.24998-.32164h-1.375c-.13904 0-.22265.10326-.22265.20112 0 .08052.04593.13739.10454.20994.0949.11749.22302.27611.24311.6429v1.28853c0 .28251-.05102.33373-.16226.33373-.29663 0-1.01819-1.08944-1.44613-2.33605-.08387-.2423-.16799-.34017-.39161-.34017z" fill="currentColor" fill-rule="evenodd"/></svg>
