<svg xmlns="http://www.w3.org/2000/svg" width="16" height="16" fill="none" viewBox="0 0 16 16"><path fill="currentColor" fill-rule="evenodd" d="M1.3815 3.911C1 4.6597 1 5.6398 1 7.6v.8c0 1.9602 0 2.9403.3815 3.689a3.5 3.5 0 0 0 1.5295 1.5295C3.6597 14 4.6398 14 6.6 14h2.8c1.9602 0 2.9403 0 3.689-.3815a3.4999 3.4999 0 0 0 1.5295-1.5295C15 11.3403 15 10.3602 15 8.4v-.8c0-1.9602 0-2.9403-.3815-3.689a3.5 3.5 0 0 0-1.5295-1.5295C12.3403 2 11.3602 2 9.4 2H6.6c-1.9602 0-2.9403 0-3.689.3815A3.5 3.5 0 0 0 1.3815 3.911ZM2.5 7.6c0-1.0048.0012-1.6683.0427-2.1766.0364-.445.0974-.6615.157-.7932L6.409 8.3396c.8787.8787 2.3033.8787 3.182 0l3.7094-3.7094c.0595.1317.1205.3482.1569.7931.0415.5084.0427 1.1719.0427 2.1767v.8c0 1.0048-.0012 1.6683-.0427 2.1766-.0401.4909-.1102.7037-.1753.8314a1.9996 1.9996 0 0 1-.874.874c-.1277.0651-.3405.1352-.8314.1753-.5083.0415-1.1718.0427-2.1766.0427H6.6c-1.0048 0-1.6683-.0012-2.1766-.0427-.491-.0401-.7037-.1102-.8314-.1753a1.9997 1.9997 0 0 1-.874-.874c-.065-.1277-.1352-.3405-.1753-.8314C2.5012 10.0683 2.5 9.4048 2.5 8.4v-.8Zm6.9-4.1H6.6c-1.0048 0-1.6683.0012-2.1766.0427-.2768.0226-.4652.0548-.5997.0902l3.646 3.646a.75.75 0 0 0 1.0606 0l3.6461-3.646c-.1346-.0354-.3229-.0676-.5998-.0902C11.0683 3.5012 10.4048 3.5 9.4 3.5Z" clip-rule="evenodd"/></svg>
