<svg fill="none" height="16" viewBox="0 0 16 16" width="16" xmlns="http://www.w3.org/2000/svg"><g fill="currentColor"><path d="m5.5 7.25c0 .41421-.33579.75-.75.75s-.75-.33579-.75-.75.33579-.75.75-.75.75.33579.75.75z"/><path d="m12 7.25c0 .41421-.3358.75-.75.75s-.75-.33579-.75-.75.3358-.75.75-.75.75.33579.75.75z"/><path clip-rule="evenodd" d="m13 4h-1c0-2.20914-1.7909-4-4-4-2.20914 0-4 1.79086-4 4h-1c-1.10457 0-2 .89543-2 2v5c0 2.2091 1.79086 4 4 4h6c2.2091 0 4-1.7909 4-4v-5c0-1.10457-.8954-2-2-2zm-5-2.5c1.38071 0 2.5 1.11929 2.5 2.5h-5c0-1.38071 1.11929-2.5 2.5-2.5zm-5 4c-.27614 0-.5.22386-.5.5v5c0 1.3807 1.11929 2.5 2.5 2.5h6c1.3807 0 2.5-1.1193 2.5-2.5v-5c0-.27614-.2239-.5-.5-.5z" fill-rule="evenodd"/></g></svg>
