<svg fill="none" height="16" viewBox="0 0 16 16" width="16" xmlns="http://www.w3.org/2000/svg"><path clip-rule="evenodd" d="m8 14c-2.06281 0-4.01446-1.5731-5.04978-4.09305-1.141-2.77715-1.25142-6.57838-.34755-7.52124.45252-.47203.63693-.48595 2.60054-.17665 1.07767.16976 1.86277.24999 2.79679.24999s1.71912-.08023 2.7968-.24999c1.9636-.3093 2.148-.29538 2.6005.17665.9039.94286.7935 4.74409-.3475 7.52124-1.0353 2.51995-2.987 4.09305-5.0498 4.09305zm0-2.5c-2.08 0-2.912-1.89394-2.496-2.36742.19836-.22578.39673-.12858.73039.03491.36609.17938.89506.43857 1.76561.43857s1.39952-.25919 1.76561-.43857c.33369-.16349.53199-.26069.73039-.03491.416.47348-.416 2.36742-2.496 2.36742zm-2.19821-4.20785c.82662.07358 1.5407-.37813 1.59494-1.00892s-.5719-1.20179-1.39852-1.27538c-.82662-.07358-1.5407.37813-1.59494 1.00892s.5719 1.20179 1.39852 1.27538zm2.80148-1.00892c.05415.63079.76707 1.0825 1.59233 1.00892.8253-.07359 1.4504-.64459 1.3963-1.27538-.0542-.63079-.7671-1.0825-1.59239-1.00892-.82527.07359-1.45039.64459-1.39624 1.27538z" fill="currentColor" fill-rule="evenodd"/></svg>
