<svg fill="none" height="16" viewBox="0 0 16 16" width="16" xmlns="http://www.w3.org/2000/svg"><g fill="currentColor"><path d="m13.1795 8c1.0054 0 1.8205.82835 1.8205 1.85017 0 1.03193-.4068 1.54933-2.1323 2.91323l-.7851.6206c-.1957.1547-.4695.1547-.6652 0l-.7851-.6206c-1.72549-1.3639-2.1323-1.8813-2.1323-2.91323 0-1.02182.81506-1.85017 1.8205-1.85017.5387 0 1.0173.25772 1.4295.75635.4122-.49863.8908-.75635 1.4295-.75635z"/><path clip-rule="evenodd" d="m14.4809 7.32022c-.2566-2.97617-3.0602-5.32022-6.4809-5.32022-3.58985 0-6.5 2.58158-6.5 5.76611 0 1.55383.69284 2.96409 1.82027 3.99969-.10951.6467-.44102 1.4937-.99453 2.5411l-.12528.2337c-.08106.149-.02906.3371.11613.4202.06693.0384.1456.049.21996.0299 1.72356-.4431 2.95465-1.0017 3.69212-1.6752.56312.1412 1.15728.2167 1.77133.2167.6 0 1.18101-.0721 1.73262-.2071-.71349-.5741-1.25553-1.0591-1.61732-1.5479-.4645-.6276-.6153-1.2325-.6153-1.92703 0-1.55879 1.24759-2.85017 2.8205-2.85017.5353 0 1.0134.15711 1.4295.42436.4161-.26725.8942-.42436 1.4295-.42436.4713 0 .9133.11592 1.3014.32022z" fill-rule="evenodd"/></g></svg>
