<svg fill="none" height="16" viewBox="0 0 16 16" width="16" xmlns="http://www.w3.org/2000/svg"><g clip-rule="evenodd" fill="currentColor" fill-rule="evenodd"><path d="m8 14.5c3.5899 0 6.5-2.9101 6.5-6.5 0-3.58985-2.9101-6.5-6.5-6.5-3.58985 0-6.5 2.91015-6.5 6.5 0 3.5899 2.91015 6.5 6.5 6.5zm0 1.5c4.4183 0 8-3.5817 8-8 0-4.41828-3.5817-8-8-8-4.41828 0-8 3.58172-8 8 0 4.4183 3.58172 8 8 8z"/><path d="m12 8c0 .41421-.3358.75-.75.75h-6.5c-.41421 0-.75-.33579-.75-.75s.33579-.75.75-.75h6.5c.4142 0 .75.33579.75.75z"/></g></svg>
