<svg fill="none" height="16" viewBox="0 0 16 16" width="16" xmlns="http://www.w3.org/2000/svg"><path d="m8 0c4.4183 0 8 3.58172 8 8 0 4.4183-3.5817 8-8 8-4.41828 0-8-3.5817-8-8 0-4.41828 3.58172-8 8-8zm1 3h-3c-.27614 0-.5.22386-.5.5v4h-.3727c-.20647 0-.29003.02321-.37151.06678-.08148.04358-.14543.10753-.18901.18901-.04357.08148-.06678.16504-.06678.37151v.2454c0 .20647.02321.29003.06678.37151.04358.08148.10753.14543.18901.18901.08148.04357.16504.06678.37151.06678h.3727v1h-.3727c-.20647 0-.29003.0232-.37151.0668s-.14543.1075-.18901.189c-.04357.0815-.06678.165-.06678.3715v.2454c0 .2065.02321.29.06678.3715.04358.0815.10753.1454.18901.189s.16504.0668.37151.0668h.3727v.8727c0 .2065.02321.29.06678.3715.04358.0815.10753.1454.18901.189s.16504.0668.37151.0668h.2454c.20647 0 .29003-.0232.37151-.0668s.14543-.1075.18901-.189c.04357-.0815.06678-.165.06678-.3715v-.8727h1.3727c.20647 0 .29003-.0232.37151-.0668s.14543-.1075.18901-.189c.04357-.0815.06678-.165.06678-.3715v-.2454c0-.2065-.02321-.29-.06678-.3715-.04358-.0815-.10753-.1454-.18901-.189s-.16504-.0668-.37151-.0668h-1.3727v-1h2c1.6569 0 3-1.34315 3-3s-1.3431-3-3-3zm0 1.5c.82843 0 1.5.67157 1.5 1.5s-.67157 1.5-1.5 1.5h-2v-3z" fill="currentColor"/></svg>
