<svg xmlns="http://www.w3.org/2000/svg" width="16" height="16" fill="currentColor" viewBox="0 0 16 16"><path fill-rule="evenodd" d="M4.079 3.36c-.077.181-.079.4-.079.823a.76.76 0 0 0-.003.067v6.988c0 .118-.08.22-.195.247-.962.203-.977.207-1.05.23-.028.01-.065.021-.17.048a.91.91 0 0 0-.164.059c-.678.323-1.12.795-1.12 1.464 0 1.424 1.284 1.803 1.997 1.702 1.331-.188 2.152-.72 2.2-2.987L5.496 12l.001-.001V6.62H5.5v-.945c0-.134 0-.2.023-.256a.3.3 0 0 1 .097-.124c.049-.037.114-.053.244-.085l5.238-1.31c.136-.034.204-.051.257-.035a.2.2 0 0 1 .112.088c.029.047.029.117.029.257v4.923c0 .118-.08.22-.195.247-.963.203-.977.207-1.05.23a2.16 2.16 0 0 1-.17.048.916.916 0 0 0-.164.059c-.678.322-1.121.794-1.121 1.463 0 1.422 1.284 1.8 1.998 1.7 1.31-.185 2.125-.703 2.197-2.878l.002-.002.003-.003V2.244c0-.468-.006-.712-.11-.882a.76.76 0 0 0-.422-.333c-.201-.064-.457-.002-.97.122L5.224 2.667c-.437.105-.656.158-.819.279a1 1 0 0 0-.326.414Z" clip-rule="evenodd"/></svg>
