<svg xmlns="http://www.w3.org/2000/svg" width="16" height="16" fill="none" viewBox="0 0 16 16"><path fill="currentColor" d="M12 5.7574 8.6213 2.3787l.9645-.9645c.1193-.1193.179-.179.2451-.2265a1.0003 1.0003 0 0 1 .4214-.1745C10.3327 1 10.4171 1 10.5858 1c.3855 0 .5783 0 .7338.0525a.9999.9999 0 0 1 .6279.6279C12 1.8359 12 2.0287 12 2.4142v3.3432ZM5 11h.9337c.0706 0 .0633-.0031.1132.0469l3.5389 3.5389c.1193.1193.179.1789.2451.2265.1252.0898.2694.1496.4214.1745.0804.0132.1648.0132.3335.0132.3855 0 .5783 0 .7338-.0525a.9998.9998 0 0 0 .6279-.6279C12 14.1641 12 13.9713 12 13.5858v-2.1716l2.2929 2.2929c.3905.3905 1.0237.3905 1.4142 0 .3905-.3905.3905-1.0237 0-1.4142l-11-11c-.3905-.3905-1.0237-.3905-1.4142 0-.3905.3905-.3905 1.0237 0 1.4142L5.5858 5H5c-.9319 0-1.3978 0-1.7654.1522a2 2 0 0 0-1.0824 1.0824C2 6.6022 2 7.0681 2 8c0 .9319 0 1.3978.1522 1.7654.203.49.5924.8794 1.0824 1.0824C3.6022 11 4.0681 11 5 11Z"/></svg>
