<svg fill="none" height="16" viewBox="0 0 16 16" width="16" xmlns="http://www.w3.org/2000/svg"><g fill="currentColor"><path d="m5 10.25c0-.41421.33579-.75.75-.75h4.5c.4142 0 .75.33579.75.75 0 .4142-.3358.75-.75.75h-4.5c-.41421 0-.75-.3358-.75-.75z"/><path d="m8 0c4.4183 0 8 3.58172 8 8 0 4.4183-3.5817 8-8 8-4.41828 0-8-3.5817-8-8 0-4.41828 3.58172-8 8-8zm0 1.5c-3.58985 0-6.5 2.91015-6.5 6.5 0 3.5899 2.91015 6.5 6.5 6.5 3.5899 0 6.5-2.9101 6.5-6.5 0-3.58985-2.9101-6.5-6.5-6.5zm-2.625 3.75269c.62132 0 1.125.50368 1.125 1.125s-.50368 1.125-1.125 1.125-1.125-.50368-1.125-1.125.50368-1.125 1.125-1.125zm5.245 0c.6213 0 1.13.50368 1.13 1.125s-.5037 1.125-1.125 1.125-1.125-.50368-1.125-1.125.49867-1.125 1.12-1.125z"/></g></svg>
