<svg xmlns="http://www.w3.org/2000/svg" width="16" height="16" fill="currentColor" viewBox="0 0 16 16"><path fill-rule="evenodd" d="m7.898 2.027.057-.022a.476.476 0 0 0-.057.022Zm.148-.022c.004.002.02.006.057.022l-.057-.022Zm4.582 2.298c.002.004.008.02.018.056l-.018-.056Zm1.117 4.978.008.058a.497.497 0 0 0-.008-.058Z M8.319.53a1.75 1.75 0 0 0-.637 0c-.242.045-.462.154-.668.256l-.051.025-3.884 1.912-.05.024c-.202.099-.417.204-.597.364a1.75 1.75 0 0 0-.384.489c-.113.211-.165.446-.213.665l-.012.054-.972 4.35-.012.054c-.048.216-.1.447-.09.684.01.206.055.409.135.6.092.217.238.404.374.578l.034.043 2.707 3.47.035.044c.14.18.29.373.486.518.171.126.364.22.568.277.235.065.48.065.707.065h4.41c.228 0 .472 0 .707-.065.205-.057.397-.151.568-.277.196-.145.346-.338.486-.518l.035-.045 2.707-3.47.034-.042c.137-.174.282-.36.374-.579.08-.19.126-.393.135-.6.01-.236-.041-.467-.09-.683l-.012-.053-.972-4.351-.012-.054c-.048-.22-.1-.454-.212-.665a1.753 1.753 0 0 0-.385-.49c-.18-.159-.395-.264-.596-.363l-.05-.024L9.038.81 8.987.786C8.78.684 8.56.576 8.319.53ZM3.428 4.233l4.47-2.206a.476.476 0 0 1 .057-.022h.001c.022-.007.07-.018.088 0h.002c.004.002.02.006.057.022l.273.13 3.883 1.912c.133.065.208.102.263.133a.479.479 0 0 1 .05.03.25.25 0 0 1 .056.07c.002.005.008.02.018.057l.067.287.972 4.35.06.285a.497.497 0 0 1 .008.058l-.02.086-3.144 4.028a.251.251 0 0 1-.08.04l-.06.005a6.431 6.431 0 0 1-.3.003H5.851c-.15 0-.236 0-.3-.003a.483.483 0 0 1-.06-.006.252.252 0 0 1-.081-.04.479.479 0 0 1-.042-.043 6.57 6.57 0 0 1-.187-.235L2.475 9.705c-.09-.115-.14-.18-.176-.23a.464.464 0 0 1-.032-.05.25.25 0 0 1-.02-.086l.008-.058c.01-.061.028-.141.06-.284l.972-4.351c.032-.145.05-.226.067-.287.006-.019.01-.04.02-.058a.198.198 0 0 1 .054-.068Z M11.53 5.72a.75.75 0 0 1 0 1.06l-4 4a.75.75 0 0 1-1.06 0l-2-2a.75.75 0 0 1 1.06-1.06L7 9.19l3.47-3.47a.75.75 0 0 1 1.06 0Z" clip-rule="evenodd"/></svg>
