<svg xmlns="http://www.w3.org/2000/svg" width="16" height="16" fill="currentColor" viewBox="0 0 16 16"><path d="M10.98 6.93a.75.75 0 1 0-1.06-1.06L7.15 8.64l-.87-.87a.75.75 0 1 0-1.06 1.06l1.4 1.4a.75.75 0 0 0 1.06 0l3.3-3.3Z M6.806 1.044a1.72 1.72 0 0 0-1.603.46l-3.7 3.699a1.72 1.72 0 0 0-.459 1.603L2.33 12.38a1.72 1.72 0 0 0 1.29 1.29l5.574 1.286a1.72 1.72 0 0 0 1.603-.46l3.7-3.699a1.72 1.72 0 0 0 .459-1.603L13.67 3.62a1.72 1.72 0 0 0-1.29-1.29L6.806 1.044Zm-.543 1.52a.22.22 0 0 1 .206-.058l5.574 1.286a.22.22 0 0 1 .165.165l1.286 5.574a.22.22 0 0 1-.059.206l-3.698 3.698a.22.22 0 0 1-.206.06l-5.574-1.287a.22.22 0 0 1-.165-.165L2.506 6.469a.22.22 0 0 1 .059-.206l3.698-3.698Z" clip-rule="evenodd"/></svg>

