<svg xmlns="http://www.w3.org/2000/svg" width="16" height="16" fill="currentColor" viewBox="0 0 16 16"><path fill-rule="evenodd" d="M8.319.53a1.75 1.75 0 0 0-.637 0c-.242.045-.462.154-.668.256l-.051.025-3.884 1.912-.05.024c-.202.099-.417.204-.597.364a1.75 1.75 0 0 0-.384.489c-.113.211-.165.446-.213.665l-.012.054-.972 4.35-.012.054c-.048.216-.1.447-.09.684.01.206.055.409.135.6.092.217.238.404.374.578l.034.043 2.707 3.47.035.044c.14.18.29.373.486.518.171.126.364.22.568.277.235.065.48.065.707.065h4.41c.228 0 .472 0 .707-.065.205-.057.397-.151.568-.277.196-.145.346-.338.486-.518l.035-.045 2.707-3.47.034-.042c.137-.174.282-.36.374-.579.08-.19.126-.393.135-.6.01-.236-.041-.467-.09-.683l-.012-.053-.972-4.351-.012-.054c-.048-.22-.1-.454-.212-.665a1.753 1.753 0 0 0-.385-.49c-.18-.159-.395-.264-.596-.363l-.05-.024L9.038.81 8.987.786C8.78.684 8.56.576 8.319.53Zm3.211 5.19a.75.75 0 0 1 0 1.06l-4 4a.75.75 0 0 1-1.06 0l-2-2a.75.75 0 0 1 1.06-1.06L7 9.19l3.47-3.47a.75.75 0 0 1 1.06 0Z" clip-rule="evenodd"/></svg>
