<svg fill="none" height="16" viewBox="0 0 16 16" width="16" xmlns="http://www.w3.org/2000/svg"><path clip-rule="evenodd" d="m5.80039 1.65c0-.49706-.40294-.9-.9-.9s-.9.40294-.9.9v.4264c-.2462.04033-.45064.10194-.63537.19606-.4704.23968-.85285.62213-1.09254 1.09254-.27248.53478-.27248 1.23484-.27248 2.63498v5.00002c0 1.4001 0 2.1002.27248 2.635.23969.4704.62214.8528 1.09254 1.0925.53478.2725 1.23485.2725 2.63498.2725h4c1.4001 0 2.1002 0 2.635-.2725.4704-.2397.8528-.6221 1.0925-1.0925.2725-.5348.2725-1.2349.2725-2.635v-5.00002c0-1.40014 0-2.1002-.2725-2.63498-.2397-.47041-.6221-.85286-1.0925-1.09254-.1847-.09412-.3892-.15573-.6354-.19606v-.4264c0-.49706-.4029-.9-.9-.9-.497 0-.9.40294-.9.9v.35001c-.0649-.00003-.1314-.00003-.1996-.00003h-1.1v-.34998c0-.49706-.40294-.9-.9-.9s-.9.40294-.9.9v.34998h-1.1c-.06818 0-.13469 0-.19961.00003zm5.22991 4.56965c.2929.29289.2929.76776 0 1.06066l-3.49997 3.49999c-.29289.2929-.76777.2929-1.06066 0l-1.5-1.49999c-.29289-.2929-.29289-.76777 0-1.06066.29289-.2929.76777-.2929 1.06066 0l.96967.96966 2.96967-2.96966c.29293-.2929.76773-.2929 1.06063 0z" fill="currentColor" fill-rule="evenodd"/></svg>
