<svg xmlns="http://www.w3.org/2000/svg" width="16" height="16" fill="none" viewBox="0 0 16 16"><path fill="currentColor" fill-rule="evenodd" d="M13.4541 8.9497a28.59 28.59 0 0 0 .1891.2105c.7077.7853.8568 1.1009.8568 1.5847 0 .2609-.0279.4061-.1271.5933-.1883.3551-.628.6612-1.5836.6612H3.2105c-.9906 0-1.423-.3162-1.599-.6754-.0868-.1771-.1115-.3105-.1115-.5791 0-.4839.149-.7995.855-1.5844.095-.1054.1404-.156.189-.2108.1929-.2182.352-.418.464-.608.1153-.1957.2025-.417.2025-.6686V6.4734c0-2.8238 2.117-4.9734 4.7926-4.9734 2.6737 0 4.7861 2.1478 4.7864 4.975l-.0032 1.197v.0026c.0004.2515.088.4727.2034.6679.1122.1897.2714.3892.4644.6072zM5.6431 13l.0034.0121c.1985.7025.5068 1.1893.8798 1.501.3685.3078.85.4869 1.4737.4869.6238 0 1.1052-.1791 1.4737-.4869.373-.3117.6813-.7985.8798-1.501L10.3569 13z" clip-rule="evenodd"/></svg>
