<svg height="16" viewBox="0 0 16 16" width="16" xmlns="http://www.w3.org/2000/svg"><path d="m8 1c3.448484 0 6.3680036 2.50954688 6.9146817 5.9077323.3235737 2.64969567-1.7959862 4.5077375-4.0030343 4.5077375l-.5891743.0003966c-.59348388.0043368-.8253167.0265972-.98156668.0863198-.08129633.0310734-.22922734.1535145-.08933184.3906436l.20629383.3575641c.11492217.2125653.21836823.4451577.32188187.7361337.33671482.9465026-.51806966 2.0134724-1.77975028 2.0134724-3.71983397 0-7-3.2032495-7-7 0-3.86599325 3.13400675-7 7-7zm0 1.5c-3.03756612 0-5.5 2.46243388-5.5 5.5 0 2.9602528 2.60073167 5.5 5.5 5.5.26940813 0 .25641676-.1889379.1655296-.4175894-.06059144-.1524343-.13874664-.31179-.2344656-.478067-.11972705-.2222035-.18994767-.4366452-.22505783-.7153382-.09622225-.7637808.39108712-1.5172412 1.09935107-1.787957.30863758-.11796886.57278646-.1632562 1.09237378-.17880246l.38752568-.00642931.6263907-.00034681c1.3829333 0 2.7164364-1.16897129 2.5181044-2.79758399-.4260433-2.64563659-2.7204895-4.61788583-5.4297518-4.61788583zm-3.686667 4.16666667c.55228475 0 1 .44771525 1 1s-.44771525 1-1 1-1-.44771525-1-1 .44771525-1 1-1zm7.333334 0c.5522847 0 1 .44771525 1 1s-.4477153 1-1 1-1-.44771525-1-1 .4477153-1 1-1zm-5.333334-2.66666667c.55228475 0 1 .44771525 1 1s-.44771525 1-1 1-1-.44771525-1-1 .44771525-1 1-1zm3.333334 0c.5522847 0 1 .44771525 1 1s-.4477153 1-1 1c-.55228475 0-1-.44771525-1-1s.44771525-1 1-1z" fill="currentColor" /></svg>
