<svg width="16" height="16" viewBox="0 0 16 16" fill="none" xmlns="http://www.w3.org/2000/svg"><path d="M3 9.5a.5.5 0 0 1 .5-.5h1a.5.5 0 0 1 .5.5v1a.5.5 0 0 1-.5.5h-1a.5.5 0 0 1-.5-.5v-1z" fill="currentColor"/><path fill-rule="evenodd" clip-rule="evenodd" d="M.354 3.275C0 3.97 0 4.88 0 6.7v2.6c0 1.82 0 2.73.354 3.425a3.25 3.25 0 0 0 1.42 1.42c.696.355 1.606.355 3.426.355h5.6c1.82 0 2.73 0 3.425-.354a3.25 3.25 0 0 0 1.42-1.42C16 12.03 16 11.12 16 9.3V6.7c0-1.82 0-2.73-.354-3.425a3.25 3.25 0 0 0-1.42-1.42C13.53 1.5 12.62 1.5 10.8 1.5H5.2c-1.82 0-2.73 0-3.425.354a3.25 3.25 0 0 0-1.42 1.42zM1.5 9.3V6.5h13V9.3c0 .935-.001 1.546-.04 2.012-.036.45-.1.632-.15.732a1.75 1.75 0 0 1-.766.765c-.1.052-.282.115-.732.152-.466.038-1.077.039-2.012.039H5.2c-.935 0-1.546-.001-2.012-.04-.45-.036-.632-.1-.732-.15a1.75 1.75 0 0 1-.765-.766c-.052-.1-.115-.282-.152-.732-.038-.466-.039-1.077-.039-2.012zm3-.3h-1a.5.5 0 0 0-.5.5v1a.5.5 0 0 0 .5.5h1a.5.5 0 0 0 .5-.5v-1a.5.5 0 0 0-.5-.5zm6.3-6H5.2c-.935 0-1.546.001-2.012.04-.45.036-.632.1-.732.15a1.75 1.75 0 0 0-.765.766c-.052.1-.115.282-.152.732-.008.097-.014.2-.02.312H14.48a8.65 8.65 0 0 0-.02-.312c-.036-.45-.1-.632-.15-.732a1.75 1.75 0 0 0-.766-.765c-.1-.052-.282-.115-.732-.152C12.346 3.001 11.735 3 10.8 3z" fill="currentColor"/></svg>
