<svg fill="none" height="16" viewBox="0 0 16 16" width="16" xmlns="http://www.w3.org/2000/svg"><path clip-rule="evenodd" d="m11 3.5h-6c-.71657 0-1.19385.00078-1.56056.03074-.35504.02901-.5175.08031-.62043.13275-.28224.14381-.51171.37328-.65552.65552-.05244.10293-.10374.26539-.13275.62043-.01321.16168-.02075.34486-.02505.56056h11.98861c-.0043-.2157-.0118-.39888-.025-.56056-.029-.35504-.0803-.5175-.1328-.62043-.1438-.28224-.3733-.51171-.6555-.65552-.1029-.05244-.2654-.10374-.6204-.13275-.3668-.02996-.844-.03074-1.5606-.03074zm-9 6v-2h12v2c0 .7166-.0008 1.1938-.0307 1.5606-.029.355-.0803.5175-.1328.6204-.1438.2822-.3733.5117-.6555.6555-.1029.0525-.2654.1038-.6204.1328-.3668.0299-.844.0307-1.5606.0307h-6c-.71657 0-1.19385-.0008-1.56056-.0307-.35504-.029-.5175-.0803-.62043-.1328-.28224-.1438-.51171-.3733-.65552-.6555-.05244-.1029-.10374-.2654-.13275-.6204-.02996-.3668-.03074-.844-.03074-1.5606zm-.72752-5.63498c-.27248.53478-.27248 1.23485-.27248 2.63498v3c0 1.4001 0 2.1002.27248 2.635.23969.4704.62214.8528 1.09254 1.0925.53478.2725 1.23485.2725 2.63498.2725h6c1.4001 0 2.1002 0 2.635-.2725.4704-.2397.8528-.6221 1.0925-1.0925.2725-.5348.2725-1.2349.2725-2.635v-3c0-1.40013 0-2.1002-.2725-2.63498-.2397-.4704-.6221-.85285-1.0925-1.09254-.5348-.27248-1.2349-.27248-2.635-.27248h-6c-1.40013 0-2.1002 0-2.63498.27248-.4704.23969-.85285.62214-1.09254 1.09254zm2.72752 5.13498c-.27614 0-.5.22386-.5.5v1c0 .2761.22386.5.5.5h1c.27614 0 .5-.2239.5-.5v-1c0-.27614-.22386-.5-.5-.5z" fill="currentColor" fill-rule="evenodd"/></svg>
