<svg fill="none" height="16" viewBox="0 0 16 16" width="16" xmlns="http://www.w3.org/2000/svg"><path clip-rule="evenodd" d="m12.5358 1.66419c-.4985-.21892-1.066-.21892-1.5645 0-.2027.08905-.3671.21372-.5132.34208-.1374.12071-.2919.27528-.46543.4488l-7.38959 7.38957c-.29548.29516-.52808.52746-.69877.80596-.15042.2455-.26127.5131-.32848.7931-.07626.3176-.07605 1.1125-.0758 1.5301-.00003.1219-.00006.254.00928.3684.01058.1294.03675.3005.12664.4769.11956.2346.31033.4254.54498.5449.17641.0899.34743.1161.47688.1267.11437.0093.2465.0093.36837.0093.41763.0002 1.21248.0004 1.53015-.0758.27993-.0673.54754-.1781.79301-.3285.27855-.1707.51087-.4033.806-.6988l7.38956-7.38956c.1735-.17352.3281-.32809.4488-.46549.1284-.14608.253-.31043.3421-.51321.2189-.4985.2189-1.06592 0-1.56443-.0891-.20277-.2137-.36712-.3421-.51321-.1207-.13737-.2753-.29192-.4488-.46541l-.0304-.03047c-.1735-.17354-.3281-.32813-.4655-.44885-.1461-.12836-.3105-.25303-.5132-.34208zm-.9628 1.37015c.1151-.05052.246-.05052.3611 0 .0035.00153.0356.01563.1271.09609.0967.08493.2169.20464.4103.39803s.3131.31362.398.41028c.0805.09157.0946.12368.0961.12718.0506.11504.0505.24603 0 .36106-.0015.0035-.0156.03557-.0961.12714-.0849.09666-.2046.21689-.398.41028l-.7232.72324-1.436-1.43593.7233-.72325c.1934-.19339.3136-.3131.4103-.39803.0915-.08046.1236-.09456.1271-.09609zm-2.32133 2.27803-5.5393 5.53933c-.37027.3703-.46577.4726-.53213.5808-.06837.1116-.11876.2333-.14931.3605-.01103.046-.01814.225-.0229.4319-.00963.4186-.01444.6279.00758.6722.02859.0575.03233.0612.08975.0899.04424.022.25277.0175.66983.0084.20948-.0045.37292-.0122.4318-.0263.12724-.0306.24888-.081.36046-.1494.10828-.0663.21058-.1618.58085-.5321l5.5393-5.5393z" fill="currentColor" fill-rule="evenodd"/></svg>
