<svg fill="none" height="16" viewBox="0 0 16 16" width="16" xmlns="http://www.w3.org/2000/svg"><path d="m5.44332 2.64069.57456.68292c.79579.94381.71324 2.36579-.18954 3.26865l-.49003.48941c-.13065.13089-.17342.32572-.10963.49931.17831.48743.63334 1.09638 1.36376 1.82685.73107.73117 1.33997 1.18557 1.8267 1.36457.1737.0636.36854.0205.49927-.1103l.48937-.4894c.90282-.90291 2.32402-.98612 3.26902-.19158l.6829.57528c.7793.6558.8585 1.8381.1757 2.6399-.3724.4308-.8966.7014-1.4635.7555-2.18202.294-4.47101-.7575-6.86831-3.155-2.39731-2.3975-3.44935-4.68734-3.15546-6.86886.01527-.17069.05074-.33897.10566-.5013.12709-.3729.35143-.70511.64985-.9623.8024-.68226 1.98388-.60366 2.63968.17635z" fill="currentColor"/></svg>
