<svg width="16" height="16" fill="none" xmlns="http://www.w3.org/2000/svg"><path d="M5.443 2.64l.575.684c.796.943.713 2.365-.19 3.268l-.49.49a.475.475 0 00-.11.499c.179.487.634 1.096 1.364 1.827.732.731 1.34 1.185 1.827 1.364.174.064.369.02.5-.11l.489-.49c.903-.902 2.324-.985 3.269-.19l.683.574c.779.656.858 1.839.175 2.64-.372.431-.896.702-1.463.756-2.182.294-4.471-.758-6.868-3.155-2.398-2.398-3.45-4.688-3.156-6.87a2.213 2.213 0 01.756-1.464c.802-.68 1.984-.602 2.64.178zm6.927.365c.345 0 .625.28.625.625v2.74a.625.625 0 11-1.25 0V5.137L9.072 7.812a.625.625 0 11-.884-.884l2.673-2.673H9.63a.625.625 0 110-1.25h2.74z" fill="currentColor"/></svg>
