<svg fill="none" height="16" viewBox="0 0 16 16" width="16" xmlns="http://www.w3.org/2000/svg"><path clip-rule="evenodd" d="m0 5.94286c0-2.0802 0-3.1203.404833-3.91482.356101-.69889.924317-1.267106 1.623207-1.623207.79452-.404833 1.83462-.404833 3.91482-.404833h4.11424c2.0802 0 3.1203 0 3.9149.404833.6989.356101 1.2671.924317 1.6232 1.623207.4048.79452.4048 1.83462.4048 3.91482v4.11424c0 2.0802 0 3.1203-.4048 3.9149-.3561.6989-.9243 1.2671-1.6232 1.6232-.7946.4048-1.8347.4048-3.9149.4048h-4.11424c-2.0802 0-3.1203 0-3.91482-.4048-.69889-.3561-1.267106-.9243-1.623207-1.6232-.404833-.7946-.404833-1.8347-.404833-3.9149zm13.4357 5.73034-2.8372-3.24263c-.208-.23767-.312-.35651-.4352-.40017-.1081-.03834-.22614-.03831-.33427.00008-.12316.04372-.22709.16261-.43494.40038l-2.38402 2.72724-1.40124-1.64387c-.20961-.24591-.31441-.36886-.43928-.41387-.10958-.0395-.22952-.0395-.3391 0-.12487.04501-.22967.16796-.43928.41386l-1.84696 2.16678c-.35792.4199-.53688.6299-.54094.8076-.00354.1544.06449.3017.1843.3992.13785.1122.41373.1122.96548.1122h9.68065c.5599 0 .8399 0 .9782-.1134.1201-.0985.1876-.2473.1826-.4026-.0057-.1787-.19-.3894-.5588-.8108z" fill="currentColor" fill-rule="evenodd"/></svg>
