<svg xmlns="http://www.w3.org/2000/svg" width="16" height="16" fill="currentColor" viewBox="0 0 16 16"><path fill-rule="evenodd" d="M6.219 1.5H9.78c.674 0 1.224 0 1.672.037.463.037.882.118 1.273.317a3.25 3.25 0 0 1 1.42 1.42c.199.391.28.81.317 1.273.037.447.037.998.037 1.672V9.78c0 .674 0 1.224-.037 1.672-.037.463-.118.882-.317 1.273a3.25 3.25 0 0 1-1.42 1.42c-.391.199-.81.28-1.273.317-.447.037-.998.037-1.672.037H6.22c-.674 0-1.225 0-1.672-.037-.463-.037-.882-.118-1.272-.317a3.25 3.25 0 0 1-1.42-1.42c-.2-.391-.28-.81-.318-1.273-.037-.447-.037-.998-.037-1.672V6.22c0-.674 0-1.225.037-1.672.037-.463.118-.882.317-1.272a3.25 3.25 0 0 1 1.42-1.42c.391-.2.81-.28 1.273-.318.447-.037.998-.037 1.672-.037Zm-1.55 1.532c-.37.03-.57.085-.713.159a1.75 1.75 0 0 0-.765.765c-.074.144-.13.343-.16.713C3.002 5.05 3 5.538 3 6.25v3.5c0 .712 0 1.202.032 1.58 0 .014.002.028.003.04l1.307-1.307.02-.019c.214-.215.406-.407.579-.553.184-.157.395-.305.66-.392a1.926 1.926 0 0 1 1.185-.004c.265.085.476.231.662.387.133.111.277.249.434.403l1.613-1.602c.216-.215.41-.407.583-.553.186-.157.398-.304.663-.39a1.926 1.926 0 0 1 1.188.002c.265.087.476.235.661.392.126.107.262.238.41.384V6.25c0-.712 0-1.202-.032-1.58-.03-.371-.085-.57-.159-.714a1.75 1.75 0 0 0-.764-.765c-.145-.074-.344-.13-.714-.16C10.95 3.002 10.462 3 9.75 3h-3.5c-.712 0-1.202 0-1.58.032ZM13 10.238l-.869-.869c-.24-.24-.39-.39-.51-.492a.568.568 0 0 0-.156-.109.426.426 0 0 0-.263 0c-.004 0-.043.013-.156.108a9.86 9.86 0 0 0-.512.49l-2.12 2.106a.75.75 0 0 1-1.055.002l-.36-.356a9.86 9.86 0 0 0-.513-.486.573.573 0 0 0-.156-.108.427.427 0 0 0-.262 0c-.004.002-.043.015-.155.11-.12.102-.27.25-.51.49l-1.598 1.598c.05.032.1.06.152.087.144.074.343.13.713.16.38.03.869.031 1.581.031h3.5c.712 0 1.202 0 1.58-.032.371-.03.57-.085.714-.159a1.75 1.75 0 0 0 .765-.764c.074-.145.13-.344.16-.714.023-.286.029-.634.03-1.093ZM7 6a1 1 0 1 1-2 0 1 1 0 0 1 2 0Z" clip-rule="evenodd"/></svg>
