<svg fill="none" height="16" viewBox="0 0 16 16" width="16" xmlns="http://www.w3.org/2000/svg"><path clip-rule="evenodd" d="m.404833 2.02804c-.40483312.79452-.404833 1.83462-.404833 3.91482v4.11424c0 2.0802-.00000012 3.1203.404833 3.9149.356101.6989.924317 1.2671 1.623197 1.6232.79453.4048 1.83463.4048 3.91483.4048h4.11424c2.0802 0 3.1203 0 3.9149-.4048.6989-.3561 1.2671-.9243 1.6232-1.6232.4048-.7946.4048-1.8347.4048-3.9149v-4.11424c0-2.0802 0-3.1203-.4048-3.91482-.3561-.69889-.9243-1.267106-1.6232-1.623207-.7946-.404833-1.8347-.404833-3.9149-.404833h-4.11424c-2.0802 0-3.1203 0-3.91483.404833-.69888.356101-1.267096.924317-1.623197 1.623207zm4.430907 7.56748-1.43853 2.15438c-.27104.4059-.40657.6089-.39684.7773.00847.1466.08055.2822.19721.371.13393.1018.37734.1018.86417.1018h7.83665c.5154 0 .7731 0 .9089-.1066.1182-.0927.1885-.2337.1916-.3841.0035-.1728-.1513-.3792-.4609-.7919l-2.3984-3.19762c-.21702-.28935-.32554-.43403-.45852-.48578-.11648-.04533-.24568-.04533-.36216 0-.13298.05175-.2415.19643-.45853.48578l-1.80565 2.40732-.89008-1.33184c-.2224-.33279-.3336-.49918-.47353-.55722-.12235-.05075-.25976-.05072-.38209.00008-.13991.05809-.25104.22453-.4733.5574z" fill="currentColor" fill-rule="evenodd"/></svg>
