<svg width="16" height="16" fill="none" xmlns="http://www.w3.org/2000/svg"><path fill-rule="evenodd" clip-rule="evenodd" d="M6.25 4a1.25 1.25 0 100-2.5 1.25 1.25 0 000 2.5zm7.642 1.77l-3.657-3.664c-.231-.232-.634-.057-.634.263v.526a.896.896 0 01-.263.634L7.623 5.244a.895.895 0 01-.633.262H3.995c-.565 0-.847.71-.455 1.102l2.29 2.29-3.569 3.574a.894.894 0 001.263 1.264l3.57-3.572 2.301 2.301c.402.402 1.101.098 1.101-.456V9.013c0-.237.095-.465.262-.633l1.715-1.715a.895.895 0 01.633-.263h.523c.327 0 .488-.407.263-.633z" fill="currentColor"/></svg>
