<svg xmlns="http://www.w3.org/2000/svg" width="16" height="16" fill="currentColor" viewBox="0 0 16 16"><path d="M6.25 4a1.25 1.25 0 1 0 0-2.5 1.25 1.25 0 0 0 0 2.5Z"/><path d="m13.892 5.77-3.657-3.664c-.231-.232-.634-.057-.634.263v.526a.896.896 0 0 1-.263.634L7.623 5.244a.895.895 0 0 1-.633.262H3.995c-.565 0-.847.71-.455 1.102l2.29 2.29-3.569 3.574a.894.894 0 0 0 1.263 1.264l3.57-3.572 2.301 2.301c.402.402 1.101.098 1.101-.456V9.013a.9.9 0 0 1 .262-.633l1.715-1.715a.895.895 0 0 1 .633-.263h.523c.327 0 .488-.407.263-.633Z"/></svg>
