<svg fill="none" height="16" viewBox="0 0 16 16" width="16" xmlns="http://www.w3.org/2000/svg"><path d="m10.2348 2.10609 3.6568 3.66319c.2251.22548.064.63303-.2624.63303h-.5233c-.2375 0-.4653.0944-.6332.26241l-1.7143 1.71498c-.1679.16802-.2623.3959-.2623.63351v2.99579c0 .5543-.69918.8577-1.10069.4561l-2.30068-2.3008-3.57029 3.5712c-.34877.3488-.91412.3488-1.26283-.0001-.34872-.3489-.34883-.9145-.00023-1.2635l3.56795-3.57356-2.2898-2.29072c-.39152-.39162-.10957-1.10122.4559-1.10122h2.99473c.23747 0 .46521-.09436.63315-.26232l1.71486-1.71505c.168-.16803.26239-.39595.26239-.63361v-.52675c0-.31943.40304-.49419.63424-.26258z" fill="currentColor"/></svg>
