<svg xmlns="http://www.w3.org/2000/svg" width="16" height="16" fill="none" viewBox="0 0 16 16"><path fill="currentColor" fill-rule="evenodd" d="M4.6463 3.3888a2.0566 2.0566 0 0 0-2.2427 1.0968c-.456.9118-.1752 2.02.66 2.6047l1.414.9899a14.4554 14.4554 0 0 0-.1532.211l-.6581-.094a1.8979 1.8979 0 0 0-1.2995 3.4722l1.1923.7715.7715 1.1922a1.898 1.898 0 0 0 3.4721-1.2994l-.094-.6581a13.665 13.665 0 0 0 .2111-.1533l.9899 1.4141c.5846.8352 1.6928 1.116 2.6046.6602a2.0569 2.0569 0 0 0 1.097-2.243l-.6935-3.4674-.0105-.0525.0378-.0378.7443-.7443c.6594-.6594 1.2003-1.4103 1.5124-2.1385.1543-.36.2846-.7883.2972-1.2404.0127-.4564-.0975-1.0794-.5949-1.5768-.4974-.4974-1.1204-.6076-1.5768-.5949-.4521.0126-.8804.1429-1.2404.2972-.7282.312-1.479.853-2.1385 1.5124l-.7443.7443-.0378.0378-.0525-.0105-3.4674-.6934Zm5.3627.9825-.7442.7443c-.2214.2213-.332.332-.463.402a1 1 0 0 1-.3739.1132c-.1478.0144-.3013-.0163-.6083-.0777l-3.4674-.6935a.5566.5566 0 0 0-.4284 1.0019l2 1.4c.2546.1782.382.2673.4386.3792a.4866.4866 0 0 1 .0451.3188c-.0233.1232-.125.2494-.3286.5018-.2813.3488-.5276.682-.7327.9903-.118.1772-.177.2658-.245.3171a.5137.5137 0 0 1-.0756.0478.4816.4816 0 0 1-.1281.0434c-.0836.0166-.1805.0027-.3743-.025l-.8873-.1267-.1818-.026a.3978.3978 0 0 0-.2724.7278l1.1743.7599c.1075.0695.1612.1043.2097.1452a.994.994 0 0 1 .1192.1192c.041.0485.0757.1022.1452.2097l.7599 1.1743a.398.398 0 0 0 .7278-.2724l-.1527-1.0692c-.0277-.1937-.0415-.2906-.025-.3742a.4811.4811 0 0 1 .0434-.1281.5081.5081 0 0 1 .0478-.0756c.0513-.068.14-.127.3171-.245.3082-.2051.6416-.4514.9903-.7327.2524-.2035.3786-.3053.5018-.3286a.4865.4865 0 0 1 .3187.0451c.112.0567.201.184.3793.4386l1.4 2a.5567.5567 0 0 0 1.0019-.4284l-.6935-3.4674c-.0614-.307-.0921-.4605-.0776-.6083a.9989.9989 0 0 1 .1131-.3739c.07-.131.1807-.2416.4021-.463l.7442-.7442c1.1181-1.1182 1.662-2.3872 1.2147-2.8344-.4472-.4473-1.7162.0966-2.8344 1.2147Z" clip-rule="evenodd"/></svg>
