<svg fill="none" height="16" viewBox="0 0 16 16" width="16" xmlns="http://www.w3.org/2000/svg"><g fill="currentColor"><path d="m3.41315 3.5661c-.03815.07487-.03815.17288-.03815.3689v.38c0 .19602 0 .29403.03815.3689.03355.06585.0871.1194.15295.15295.07487.03815.17288.03815.3689.03815h.38c.19602 0 .29403 0 .3689-.03815.06585-.03355.1194-.0871.15295-.15295.03815-.07487.03815-.17288.03815-.3689v-.38c0-.19602 0-.29403-.03815-.3689-.03355-.06585-.0871-.1194-.15295-.15295-.07487-.03815-.17288-.03815-.3689-.03815h-.38c-.19602 0-.29403 0-.3689.03815-.06585.03355-.1194.0871-.15295.15295z"/><path clip-rule="evenodd" d="m1 4.125c0-1.04941 0-1.57412.19202-1.98011.19784-.41829.53458-.75503.95287-.95287.40599-.19202.9307-.19202 1.98011-.19202s1.57412 0 1.98011.19202c.41829.19784.75503.53458.95287.95287.19202.40599.19202.9307.19202 1.98011s0 1.57412-.19202 1.98011c-.19784.41829-.53458.75503-.95287.95287-.40599.19202-.9307.19202-1.98011.19202s-1.57412 0-1.98011-.19202c-.41829-.19784-.75503-.53458-.95287-.95287-.19202-.40599-.19202-.9307-.19202-1.98011zm3.125 1.625c-.54786 0-.87421-.00103-1.11668-.01961-.1488-.01141-.21161-.02655-.22823-.03135-.09969-.04882-.18031-.12944-.22913-.22913-.0048-.01661-.01994-.07943-.03135-.22823-.01858-.24247-.01961-.56882-.01961-1.11668s.00103-.87421.01961-1.11668c.01141-.1488.02655-.21161.03135-.22823.04882-.09969.12944-.18031.22913-.22913.01662-.0048.07943-.01994.22823-.03135.24247-.01858.56882-.01961 1.11668-.01961s.87421.00103 1.11668.01961c.1488.01141.21161.02655.22823.03135.09969.04882.18031.12944.22913.22913.0048.01662.01994.07943.03135.22823.01858.24247.01961.56882.01961 1.11668s-.00103.87421-.01961 1.11668c-.01141.14879-.02654.21161-.03134.22822-.04883.0997-.12945.18032-.22914.22914-.01662.0048-.07943.01994-.22823.03135-.24247.01858-.56882.01961-1.11668.01961zm-1.34965-.05248.00246.00084c-.00172-.00053-.0025-.00083-.00246-.00084zm-.22287-.22287c-.00001.00004-.00031-.00074-.00084-.00246zm.22287-2.92217c-.00004-.00001.00074-.00031.00245-.00084zm2.6993 0-.00246-.00084c.00172.00053.0025.00083.00246.00084zm.22287 2.92217.00084-.00246c-.00053.00173-.00083.0025-.00084.00246zm-.22287.22287c.00004.00001-.00074.00031-.00246.00084z" fill-rule="evenodd"/><path d="m3.375 11.685c0-.196 0-.294.03815-.3689.03355-.0659.0871-.1194.15295-.153.07487-.0381.17288-.0381.3689-.0381h.38c.19602 0 .29403 0 .3689.0381.06585.0336.1194.0871.15295.153.03815.0749.03815.1729.03815.3689v.38c0 .196 0 .294-.03815.3689-.03355.0659-.0871.1194-.15295.153-.07487.0381-.17288.0381-.3689.0381h-.38c-.19602 0-.29403 0-.3689-.0381-.06585-.0336-.1194-.0871-.15295-.153-.03815-.0749-.03815-.1729-.03815-.3689z"/><path clip-rule="evenodd" d="m1 11.875c0-1.0494 0-1.5741.19202-1.98011.19784-.41829.53458-.75503.95287-.95287.40599-.19202.9307-.19202 1.98011-.19202s1.57412 0 1.98011.19202c.41829.19784.75503.53458.95287.95287.19202.40601.19202.93071.19202 1.98011s0 1.5741-.19202 1.9801c-.19784.4183-.53458.755-.95287.9529-.40599.192-.9307.192-1.98011.192s-1.57412 0-1.98011-.192c-.41829-.1979-.75503-.5346-.95287-.9529-.19202-.406-.19202-.9307-.19202-1.9801zm3.125 1.625c-.54786 0-.87421-.001-1.11668-.0196-.1488-.0114-.21161-.0266-.22823-.0314-.09969-.0488-.18031-.1294-.22913-.2291-.0048-.0166-.01994-.0794-.03135-.2282-.01858-.2425-.01961-.5688-.01961-1.1167s.00103-.8742.01961-1.1167c.01141-.1488.02655-.2116.03135-.2282.04882-.0997.12944-.1803.22913-.2291.01662-.0048.07943-.02.22823-.0314.24247-.0186.56882-.0196 1.11668-.0196s.87421.001 1.11668.0196c.1488.0114.21161.0266.22823.0314.09969.0488.18031.1294.22913.2291.0048.0166.01994.0794.03135.2282.01858.2425.01961.5688.01961 1.1167s-.00103.8742-.01961 1.1167c-.01141.1488-.02654.2116-.03134.2282-.04883.0997-.12945.1803-.22914.2291-.01662.0048-.07943.02-.22823.0314-.24247.0186-.56882.0196-1.11668.0196zm-1.34965-.0525.00246.0009c-.00172-.0006-.0025-.0009-.00246-.0009zm-.22287-.2229c.00009.0003 0 .0001 0 0zm.22287-2.9221c-.00004 0 .00074-.0003.00245-.0009zm2.6993 0-.00246-.0009c.00172.0006.0025.0009.00246.0009zm.22287 2.9221.00084-.0024c-.00053.0017-.00083.0025-.00084.0024zm-.22287.2229c.00054-.0002.00002 0 0 0z" fill-rule="evenodd"/><path d="m11.1631 3.5661c-.0381.07487-.0381.17288-.0381.3689v.38c0 .19602 0 .29403.0381.3689.0336.06585.0871.1194.153.15295.0749.03815.1729.03815.3689.03815h.38c.196 0 .294 0 .3689-.03815.0659-.03355.1194-.0871.153-.15295.0381-.07487.0381-.17288.0381-.3689v-.38c0-.19602 0-.29403-.0381-.3689-.0336-.06585-.0871-.1194-.153-.15295-.0749-.03815-.1729-.03815-.3689-.03815h-.38c-.196 0-.294 0-.3689.03815-.0659.03355-.1194.0871-.153.15295z"/><path clip-rule="evenodd" d="m8.94202 2.14489c-.19202.40599-.19202.9307-.19202 1.98011s0 1.57412.19202 1.98011c.19784.41829.53458.75503.95287.95287.40601.19202.93071.19202 1.98011.19202s1.5741 0 1.9801-.19202c.4183-.19784.755-.53458.9529-.95287.192-.40599.192-.9307.192-1.98011s0-1.57412-.192-1.98011c-.1979-.41829-.5346-.75503-.9529-.95287-.406-.19202-.9307-.19202-1.9801-.19202s-1.5741 0-1.98011.19202c-.41829.19784-.75503.53458-.95287.95287zm1.81628 3.5855c.2425.01858.5688.01961 1.1167.01961s.8742-.00103 1.1167-.01961c.1488-.01141.2116-.02655.2282-.03135.0997-.04882.1803-.12944.2291-.22914.0048-.01661.02-.07943.0314-.22822.0186-.24247.0196-.56882.0196-1.11668s-.001-.87421-.0196-1.11668c-.0114-.1488-.0266-.21161-.0314-.22823-.0488-.09969-.1294-.18031-.2291-.22913-.0166-.0048-.0794-.01994-.2282-.03135-.2425-.01858-.5688-.01961-1.1167-.01961s-.8742.00103-1.1167.01961c-.1488.01141-.2116.02655-.2282.03135-.0997.04882-.1803.12944-.2291.22913-.0048.01662-.02.07943-.0314.22823-.0186.24247-.0196.56882-.0196 1.11668s.001.87421.0196 1.11668c.0114.1488.0266.21162.0314.22823.0488.09969.1294.18031.2291.22913.0166.0048.0794.01994.2282.03135zm-.2329-.03287.0024.00084c-.0017-.00053-.0025-.00083-.0024-.00084zm-.2229-.22287c0 .00004-.0003-.00074-.0009-.00246zm.2229-2.92217c-.0001-.00001.0007-.00031.0024-.00084zm2.6992 0-.0024-.00084c.0017.00053.0025.00083.0024.00084zm.2229 2.92217.0009-.00246c-.0006.00173-.0009.0025-.0009.00246zm-.2229.22287c.0001.00001-.0007.00031-.0024.00084z" fill-rule="evenodd"/><path d="m9.05511 9.27551c-.0545.10695-.0545.24697-.0545.52699v.65c0 .28 0 .42.0545.527.04793.0941.12442.1706.2185.2185.10696.0545.24697.0545.527.0545h.64999c.28 0 .42 0 .527-.0545.0941-.0479.1706-.1244.2185-.2185.0545-.107.0545-.247.0545-.527v-.65c0-.28002 0-.42004-.0545-.52699-.0479-.09408-.1244-.17057-.2185-.21851-.107-.0545-.247-.0545-.527-.0545h-.64999c-.28003 0-.42004 0-.527.0545-.09408.04794-.17057.12443-.2185.21851z"/><path d="m9.00061 13.2975c0-.28 0-.42.0545-.527.04793-.0941.12442-.1706.2185-.2185.10696-.0545.24697-.0545.527-.0545h.64999c.28 0 .42 0 .527.0545.0941.0479.1706.1244.2185.2185.0545.107.0545.247.0545.527v.65c0 .28 0 .42-.0545.527-.0479.0941-.1244.1706-.2185.2185-.107.0545-.247.0545-.527.0545h-.64999c-.28003 0-.42004 0-.527-.0545-.09408-.0479-.17057-.1244-.2185-.2185-.0545-.107-.0545-.247-.0545-.527z"/><path d="m12.5539 12.7705c-.0545.107-.0545.247-.0545.527v.65c0 .28 0 .42.0545.527.0479.0941.1244.1706.2185.2185.107.0545.247.0545.527.0545h.65c.28 0 .42 0 .527-.0545.0941-.0479.1706-.1244.2185-.2185.0545-.107.0545-.247.0545-.527v-.65c0-.28 0-.42-.0545-.527-.0479-.0941-.1244-.1706-.2185-.2185-.107-.0545-.247-.0545-.527-.0545h-.65c-.28 0-.42 0-.527.0545-.0941.0479-.1706.1244-.2185.2185z"/><path d="m12.4994 9.8025c0-.28002 0-.42004.0545-.52699.0479-.09408.1244-.17057.2185-.21851.107-.0545.247-.0545.527-.0545h.65c.28 0 .42 0 .527.0545.0941.04794.1706.12443.2185.21851.0545.10695.0545.24697.0545.52699v.65c0 .28 0 .42-.0545.527-.0479.0941-.1244.1706-.2185.2185-.107.0545-.247.0545-.527.0545h-.65c-.28 0-.42 0-.527-.0545-.0941-.0479-.1706-.1244-.2185-.2185-.0545-.107-.0545-.247-.0545-.527z"/></g></svg>
