<svg xmlns="http://www.w3.org/2000/svg" width="16" height="16" fill="none" viewBox="0 0 16 16"><path fill="currentColor" d="M7.113 2.3576c1.068-.849 2.6437-.0881 2.6437 1.2765v1.3997c1.5708.3918 2.8405 1.1923 3.7404 2.3451 1.0111 1.2952 1.5077 2.9733 1.5077 4.8711a.75.75 0 0 1-.4696.6956.7493.7493 0 0 1-.8205-.1758c-.6726-.6995-1.2691-1.1723-1.9628-1.4804-.5397-.2397-1.1726-.3948-1.9951-.4517v1.5281c0 1.3646-1.5758 2.1255-2.6438 1.2765L1.6206 9.2765c-.8211-.6528-.8211-1.9003 0-2.553l5.4924-4.366Z"/></svg>
