<svg xmlns="http://www.w3.org/2000/svg" width="16" height="16" fill="none" viewBox="0 0 16 16">
  <rect width="16" height="16" fill="url(#a)" rx="8"/>
  <path fill="#fff" d="M10.016 3.398a.42.42 0 0 1 .244.078l2.302 1.664a.568.568 0 0 1 0 .92L10.26 7.724a.416.416 0 0 1-.66-.338V6.4H6.472c-.303 0-.413.032-.524.09a.618.618 0 0 0-.257.258c-.052.097-.083.193-.09.419l-.001.105v2.256c0 .303.032.413.09.524.06.11.147.198.258.257.097.052.193.083.419.09l.105.001H9.6a.8.8 0 0 1 .014 1.6h.786-3.58c-.98 0-1.336-.102-1.695-.294a1.999 1.999 0 0 1-.831-.832C4.102 10.516 4 10.16 4 9.18V7.62c0-.98.102-1.336.294-1.695a2 2 0 0 1 .831-.831c.359-.192.715-.294 1.695-.294H9.6v-.986c0-.23.186-.416.416-.416Z"/>
  <defs>
    <linearGradient id="a" x1="-8" x2="8" y1="8" y2="24" gradientUnits="userSpaceOnUse">
      <stop stop-color="#FF5263"/>
      <stop offset="1" stop-color="#FF3347"/>
    </linearGradient>
  </defs>
</svg>
