<svg width="16" height="16" viewBox="0 0 16 16" fill="none" xmlns="http://www.w3.org/2000/svg"><g clip-path="url(#a)" fill="currentColor"><path d="M8.817 4c1.74 0 2.723.972 2.723 2.496C11.54 7.956 10.632 9 8.8 9H7.57v.97h.837c.366 0 .593.198.593.518S8.767 11 8.407 11h-.865v.18a.949.949 0 0 1-.06.386c-.125.285-.387.434-.697.434-.305 0-.57-.15-.697-.434a.941.941 0 0 1-.059-.387V11h-.436C5.221 11 5 10.808 5 10.488s.221-.518.593-.518H6V9h-.32C5.257 8.994 5 8.767 5 8.39c0-.373.256-.606.68-.618H6V5.21C6 4.378 6.384 4 7.199 4h1.618zm-.268 1.25h-.984v2.522h.85c1.036 0 1.525-.368 1.525-1.27 0-.896-.495-1.251-1.39-1.251z"/><path fill-rule="evenodd" clip-rule="evenodd" d="M5.68 7.772H6V5.21C6 4.378 6.384 4 7.199 4h1.618c1.74 0 2.723.972 2.723 2.496C11.54 7.956 10.632 9 8.8 9H7.57v.97h.837c.366 0 .593.198.593.518S8.767 11 8.407 11h-.865v.18a.949.949 0 0 1-.06.386c-.125.285-.387.434-.697.434-.305 0-.57-.15-.697-.434a.941.941 0 0 1-.059-.387V11h-.436C5.221 11 5 10.808 5 10.488s.221-.518.593-.518H6V9h-.32C5.257 8.994 5 8.767 5 8.39c0-.373.256-.606.68-.618zm1.885-2.521h.984c.896 0 1.39.355 1.39 1.25 0 .903-.488 1.271-1.524 1.271h-.85V5.251z"/><path d="M1 1.5a.75.75 0 0 1 1.5 0v.69a8 8 0 1 1-.298 11.322.75.75 0 0 1 1.087-1.034 6.5 6.5 0 1 0 .274-9.228h.687a.75.75 0 0 1 0 1.5h-2.5A.75.75 0 0 1 1 4V1.5z"/></g><defs><clipPath id="a"><path fill="#fff" d="M0 0h16v16H0z"/></clipPath></defs></svg>
