<svg fill="none" height="16" viewBox="0 0 16 16" width="16" xmlns="http://www.w3.org/2000/svg"><g fill="currentColor"><path d="m8 0c4.4183 0 8 3.58172 8 8 0 4.4183-3.5817 8-8 8-4.41828 0-8-3.5817-8-8 0-4.41828 3.58172-8 8-8zm0 1.5c-3.58985 0-6.5 2.91015-6.5 6.5 0 3.5899 2.91015 6.5 6.5 6.5 3.5899 0 6.5-2.9101 6.5-6.5 0-3.58985-2.9101-6.5-6.5-6.5zm-2.625 3.75269c.62132 0 1.125.50368 1.125 1.125s-.50368 1.125-1.125 1.125-1.125-.50368-1.125-1.125.50368-1.125 1.125-1.125zm5.245 0c.6213 0 1.13.50368 1.13 1.125s-.5037 1.125-1.125 1.125-1.125-.50368-1.125-1.125.49867-1.125 1.12-1.125z"/><path d="m8 10.5c-.68429 0-1.32365.1826-1.87446.5012-.15956.0923-.31178.1961-.45552.3103-.09144.0726-.17944.1494-.26369.2301-.29911.2865-.77388.2763-1.06041-.0228-.28654-.2991-.27634-.7739.02277-1.0604.1177-.1127.24065-.2201.36846-.3216.2009-.15952.41385-.30472.6373-.43398.77297-.44714 1.67054-.70282 2.62555-.70282s1.85257.25568 2.6255.70282c.2235.12926.4364.27446.6373.43398.1279.1015.2508.2089.3685.3216.2991.2865.3093.7613.0228 1.0604-.2866.2991-.7613.3093-1.0604.0228-.0843-.0807-.1723-.1575-.2637-.2301-.1438-.1142-.296-.218-.45555-.3103-.55081-.3186-1.19017-.5012-1.87445-.5012z"/></g></svg>
