<?xml version="1.0" encoding="UTF-8"?>
<svg width="16px" height="16px" viewBox="0 0 16 16" version="1.1" xmlns="http://www.w3.org/2000/svg" xmlns:xlink="http://www.w3.org/1999/xlink">
    <title>search_outline_16</title>
    <desc>Created with Sketch.</desc>
    <g id="Page-2" stroke="none" stroke-width="1" fill="none" fill-rule="evenodd" opacity="0.919999957">
        <g id="search_outline_16">
            <rect id="Bounds" opacity="0.1" x="0" y="0" width="16" height="16"></rect>
            <path d="M9.82274838,10.8838166 C8.89966157,11.584658 7.74842899,12.0005841 6.50005583,12.0005841 C3.46245887,12.0005841 1,9.53801947 1,6.50029205 C1,3.46256463 3.46245887,1 6.50005583,1 C9.53765279,1 12.0001117,3.46256463 12.0001117,6.50029205 C12.0001117,7.74872199 11.5842013,8.90000668 10.8833868,9.82313431 L14.7790837,13.7233315 C15.0718077,14.0163938 15.0715336,14.4912674 14.7784714,14.7839915 C14.4854091,15.0767156 14.0105355,15.0764415 13.7178114,14.7833792 L9.82274838,10.8838166 Z M6.50005583,10.5005841 C8.70921124,10.5005841 10.5001117,8.70960677 10.5001117,6.50029205 C10.5001117,4.29097734 8.70921124,2.5 6.50005583,2.5 C4.29090042,2.5 2.5,4.29097734 2.5,6.50029205 C2.5,8.70960677 4.29090042,10.5005841 6.50005583,10.5005841 Z" id="↳-Icon-Color" fill="currentColor" fill-rule="nonzero"></path>
        </g>
    </g>
</svg>
