<svg fill="none" height="16" viewBox="0 0 16 16" width="16" xmlns="http://www.w3.org/2000/svg"><path d="m5.39757 8.99999c.5572 0 .75925.05802.96296.16696.2037.10894.36357.26881.47251.47251.10894.20371.16696.40574.16696.96294v1.7952c0 .5572-.05802.7592-.16696.9629s-.26881.3636-.47251.4725c-.20371.109-.40576.167-.96296.167h-1.79514c-.5572 0-.75925-.058-.96296-.167-.2037-.1089-.36357-.2688-.47251-.4725s-.16696-.4057-.16696-.9629v-1.7952c0-.5572.05802-.75923.16696-.96294.10894-.2037.26881-.36357.47251-.47251.20371-.10894.40576-.16696.96296-.16696zm7.00003 0c.5572 0 .7592.05802.9629.16696s.3636.26881.4725.47251c.109.20371.167.40574.167.96294v1.7952c0 .5572-.058.7592-.167.9629-.1089.2037-.2688.3636-.4725.4725-.2037.109-.4057.167-.9629.167h-1.7952c-.5572 0-.75923-.058-.96293-.167-.2037-.1089-.36357-.2688-.47251-.4725s-.16696-.4057-.16696-.9629v-1.7952c0-.5572.05802-.75923.16696-.96294.10894-.2037.26881-.36357.47251-.47251s.40573-.16696.96293-.16696zm-.5635-7.4653c.2211.06701.405.16886.799.56286l1.2693 1.26936c.394.39399.4959.57789.5629.79897.067.22107.067.44716 0 .66823s-.1689.40497-.5629.79897l-1.2693 1.26936c-.394.394-.5779.49585-.799.56286-.2211.067-.4471.067-.6682 0-.2211-.06701-.405-.16886-.799-.56286l-1.26935-1.26936c-.394-.394-.49585-.5779-.56285-.79897-.06701-.22107-.06701-.44716 0-.66823.067-.22108.16885-.40498.56285-.79897l1.26935-1.26936c.394-.394.5779-.49585.799-.56286s.4471-.06701.6682 0zm-6.43653.4653c.5572 0 .75925.05802.96296.16696.2037.10894.36357.26881.47251.47251.10894.20371.16696.40576.16696.96296v1.79514c0 .5572-.05802.75926-.16696.96296-.10894.20371-.26881.36357-.47251.47252-.20371.10894-.40576.16695-.96296.16695h-1.79514c-.5572 0-.75925-.05801-.96296-.16695-.2037-.10895-.36357-.26881-.47251-.47252-.10894-.2037-.16696-.40576-.16696-.96296v-1.79514c0-.5572.05802-.75925.16696-.96296.10894-.2037.26881-.36357.47251-.47251.20371-.10894.40576-.16696.96296-.16696z" fill="currentColor"/></svg>
