<svg xmlns="http://www.w3.org/2000/svg" width="16" height="16" fill="none" viewBox="0 0 16 16"><path fill="currentColor" d="M7.9581 1.4987c.4004-.007.7465.1714 1.0215.3432.2784.1739.6104.4258.9986.7205l4.7039 3.5698c.4492.341.9885.689 1.2006 1.238a1.7462 1.7462 0 0 1 0 1.2584c-.2083.5391-.7347.8843-1.1763 1.2194l-4.7291 3.589c-.3881.2946-.72.5465-.9984.7204-.2749.1717-.621.35-1.0212.3431a1.7463 1.7463 0 0 1-1.3442-.6691c-.247-.3152-.3132-.6988-.342-1.0217-.029-.3269-.0282-.7435-.0271-1.2307l.0019-.8973c-.9958.0879-1.7777.3547-2.4608.759-.8628.5108-1.6153 1.268-2.4552 2.2865A.75.75 0 0 1 .0017 13.25c0-2.0363.453-3.9656 1.571-5.4969 1.029-1.4093 2.5727-2.4143 4.6737-2.8744l-.0011-.4575c-.0012-.4874-.0022-.9041.0268-1.2312.0287-.3229.0949-.7066.3418-1.0219a1.7462 1.7462 0 0 1 1.3442-.6694Z"/></svg>
