<svg fill="none" height="16" width="16" xmlns="http://www.w3.org/2000/svg"><g fill="currentColor"><path clip-rule="evenodd" d="M1.903 3.04C1.793 3.007 1.642 3 1.03 3H.95a.75.75 0 010-1.5h.173c.47 0 .855 0 1.199.099A2.5 2.5 0 013.916 3h8.903c.324 0 .6 0 .825.013.233.014.47.044.7.131a2.25 2.25 0 011.438 1.81c.033.244.009.48-.03.71-.038.223-.1.492-.173.808l-.555 2.399c-.084.363-.157.68-.303.95a2.25 2.25 0 01-1.382 1.098c-.296.082-.621.082-.994.081H6.11c-.396 0-.741.001-1.051-.089a2.25 2.25 0 01-1.407-1.198c-.139-.291-.193-.632-.256-1.024l-.689-4.26c-.097-.605-.129-.752-.178-.857a1 1 0 00-.626-.532zM4.238 4.5l.625 3.866c.085.525.11.633.144.705a.75.75 0 00.47.4c.076.022.187.03.719.03h6.069c.5 0 .602-.007.676-.028a.75.75 0 00.46-.366c.037-.067.067-.166.18-.653l.531-2.3c.08-.342.131-.567.16-.74a.95.95 0 00.023-.263.75.75 0 00-.48-.603.952.952 0 00-.26-.037c-.176-.01-.406-.011-.758-.011z" fill-rule="evenodd"/><path d="M4.5 13.25a1.25 1.25 0 112.5 0 1.25 1.25 0 01-2.5 0zM12.25 12a1.25 1.25 0 100 2.5 1.25 1.25 0 000-2.5z"/></g></svg>
