<svg fill="none" height="16" viewBox="0 0 16 16" width="16" xmlns="http://www.w3.org/2000/svg"><path clip-rule="evenodd" d="m16 8c0-4.41828-3.5817-8-8-8-4.41828 0-8 3.58172-8 8 0 4.4183 3.58172 8 8 8 4.4183 0 8-3.5817 8-8zm-9.5-1.62231c0-.62132-.50368-1.125-1.125-1.125s-1.125.50368-1.125 1.125.50368 1.125 1.125 1.125 1.125-.50368 1.125-1.125zm4.12-1.125c.6213 0 1.13.50368 1.13 1.125s-.5037 1.125-1.125 1.125-1.125-.50368-1.125-1.125.49867-1.125 1.12-1.125zm.7741 4.25061c-.3371-.24079-.8055-.16278-1.0463.17426-1.11424 1.55964-3.57618 1.57664-4.70273.00049-.24086-.33699-.7093-.41491-1.04629-.17404-.33698.24086-.4149.70929-.17403 1.04629 1.69259 2.368 5.43354 2.3928 7.14355-.0008.2408-.337.1628-.80541-.1742-1.0462z" fill="currentColor" fill-rule="evenodd"/></svg>
