<svg xmlns="http://www.w3.org/2000/svg" width="16" height="16" fill="currentColor" viewBox="0 0 16 16"><path fill-rule="evenodd" d="M8.75 1.75a.75.75 0 1 0-1.5 0v.69l-.22-.22a.75.75 0 0 0-1.06 1.06l1.28 1.28v2.141l-1.854-1.07-.468-1.75a.75.75 0 1 0-1.45.39l.081.3-.597-.346a.75.75 0 0 0-.75 1.3l.597.344-.3.08a.75.75 0 1 0 .388 1.45l1.75-.47L6.5 8 4.646 9.07l-1.749-.468a.75.75 0 1 0-.388 1.448l.3.08-.597.345a.75.75 0 1 0 .75 1.3l.597-.345-.08.3a.75.75 0 1 0 1.449.388l.468-1.749L7.25 9.3v2.14l-1.28 1.28a.75.75 0 1 0 1.06 1.061l.22-.22v.69a.75.75 0 0 0 1.5 0v-.69l.22.22a.75.75 0 1 0 1.06-1.06l-1.28-1.28V9.298l1.854 1.07.468 1.75a.75.75 0 0 0 1.45-.39l-.081-.3.597.345a.75.75 0 0 0 .75-1.298l-.597-.345.3-.08a.75.75 0 1 0-.389-1.45l-1.748.47L9.5 8l1.854-1.07 1.748.468a.75.75 0 0 0 .389-1.448l-.3-.08.597-.345a.75.75 0 0 0-.75-1.3l-.597.345.08-.3a.75.75 0 1 0-1.449-.388l-.468 1.749L8.75 6.7V4.56l1.28-1.28a.75.75 0 1 0-1.06-1.06l-.22.22v-.69Z" clip-rule="evenodd"/></svg>
