<svg fill="none" height="16" viewBox="0 0 16 16" width="16" xmlns="http://www.w3.org/2000/svg" xmlns:xlink="http://www.w3.org/1999/xlink"><clipPath id="a"><path d="m0 0h16v16h-16z"/></clipPath><g clip-path="url(#a)"><path clip-rule="evenodd" d="m11.215 2.93404c-1.0971-.6962-2.39046-1.01748-3.68576-.91554-1.29529.10195-2.52249.6216-3.49711 1.48084s-1.64399 2.01164-1.90747 3.28394c-.26348 1.27231-.10684 2.59576.44638 3.77142.23515.4997.02067 1.0954-.47905 1.3306-.49972.2351-1.095455.0207-1.330607-.4791-.7376199-1.56748-.946475-3.33209-.595166-5.02849.351308-1.69641 1.243793-3.23293 2.543283-4.37859 1.2995-1.145658 2.93577-1.838529 4.66283-1.9744514 1.72706-.1359226 3.45157.2924494 4.91427 1.2207114 1.4627.92827 2.5846 2.30627 3.197 3.92683.6123 1.62056.6821 3.39611.1987 5.05969-.4833 1.6636-1.4936 3.1254-2.8789 4.1656-1.3854 1.0402-3.071 1.6025-4.8034 1.6025-.55229 0-1-.4477-1-1s.44771-1 1-1c1.2993 0 2.5635-.4218 3.6025-1.2019 1.0391-.7801 1.7968-1.8764 2.1593-3.12415.3625-1.24771.3101-2.57937-.1491-3.79479-.4593-1.21542-1.3007-2.24892-2.3977-2.94512z" fill="currentColor" fill-rule="evenodd"/></g></svg>
