<svg fill="none" height="16" viewBox="0 0 16 16" width="16" xmlns="http://www.w3.org/2000/svg" xmlns:xlink="http://www.w3.org/1999/xlink"><linearGradient id="a" gradientUnits="userSpaceOnUse" x1="-8" x2="8" y1="8" y2="24"><stop offset="0" stop-color="#70b2ff"/><stop offset="1" stop-color="#5c9ce6"/></linearGradient><path clip-rule="evenodd" d="m8 16c4.4183 0 8-3.5817 8-8 0-4.41828-3.5817-8-8-8-4.41828 0-8 3.58172-8 8 0 4.4183 3.58172 8 8 8z" fill="url(#a)" fill-rule="evenodd"/><path d="m9.62437 5.75959 2.15073.21112c.7484.07346.9779.8214.4 1.31279l-1.6838 1.43179.6251 2.33251c.2053.766-.4316 1.2297-1.0695.7687l-2.04591-1.4786-2.04593 1.4786c-.63531.4592-1.27479-.0026-1.06948-.7687l.62508-2.33251-1.6838-1.43179c-.5803-.49345-.35169-1.239.39988-1.31279l2.15035-.21112.94739-2.23483c.29669-.69987 1.05651-.69952 1.35294.00007z" fill="#fff"/></svg>
