<svg fill="none" height="16" viewBox="0 0 16 16" width="16" xmlns="http://www.w3.org/2000/svg"><path clip-rule="evenodd" d="m16 8c0-4.41828-3.5817-8-8-8-4.41828 0-8 3.58172-8 8 0 4.4183 3.58172 8 8 8 4.4183 0 8-3.5817 8-8zm-8.2989-4.39435c.08148-.16508.28135-.23286.44644-.15139.06573.03245.11894.08566.15139.15139l1.26851 2.5703 2.83646.41216c.1822.02648.3084.19562.282.3778-.0106.07255-.0447.1396-.0972.19077l-2.0525 2.00069.4845 2.82503c.0311.1814-.0907.3538-.2722.3849-.0722.0124-.1466.0006-.2115-.0335l-2.53699-1.3338-2.53703 1.3338c-.16295.0857-.36449.023-.45015-.1399-.03412-.0649-.04589-.1393-.0335-.2115l.48453-2.82503-2.0525-2.00069c-.13183-.1285-.13452-.33954-.00602-.47137.05117-.05249.11821-.08665.19076-.0972l2.83649-.41216z" fill="currentColor" fill-rule="evenodd"/></svg>
