<svg xmlns="http://www.w3.org/2000/svg" width="16" height="16" fill="currentColor" viewBox="0 0 16 16"><path fill-rule="evenodd" d="M5.997 1.5c-.403 0-.757-.001-1.088.103-.291.091-.56.24-.792.439-.264.226-.451.526-.664.868l-1.58 2.528c-.25.4-.373.844-.373 1.312C1.5 7.962 2.45 9 3.688 9a2.13 2.13 0 0 0 1.437-.553c.38.342.88.553 1.437.553C7.12 9 7.62 8.79 8 8.447c.38.342.88.553 1.438.553a2.13 2.13 0 0 0 1.437-.553c.38.342.88.553 1.437.553C13.55 9 14.5 7.962 14.5 6.75v-.012a2.43 2.43 0 0 0-.373-1.3l-1.58-2.528c-.213-.342-.4-.642-.664-.868a2.25 2.25 0 0 0-.792-.439c-.331-.104-.685-.104-1.088-.103H5.997ZM13 6.74a.94.94 0 0 0-.151-.516l-1.53-2.448c-.283-.453-.346-.538-.412-.595a.75.75 0 0 0-.264-.147C10.559 3.008 10.453 3 9.92 3H6.08c-.534 0-.64.008-.723.034a.75.75 0 0 0-.264.147c-.066.057-.129.142-.412.595l-1.53 2.448A.953.953 0 0 0 3 6.75c0 .445.338.75.688.75.399 0 .688-.37.687-.75a.75.75 0 0 1 .75-.75c.417 0 .751.349.75.762.006.438.34.738.687.738.35 0 .688-.305.688-.75a.75.75 0 1 1 1.5 0c0 .445.338.75.688.75.346 0 .681-.3.687-.738A.764.764 0 0 1 10.914 6c.405.02.712.366.711.76.006.439.34.739.687.739.35 0 .688-.305.688-.75v-.01Z M5 10.75V13h6v-2.25a.75.75 0 0 1 1.5 0V13h1.25a.75.75 0 0 1 0 1.5H2.25a.75.75 0 0 1 0-1.5H3.5v-2.25a.75.75 0 0 1 1.5 0Z"/></svg>
