<svg fill="none" height="16" width="16" xmlns="http://www.w3.org/2000/svg"><path clip-rule="evenodd" d="M8 .25a.75.75 0 01.75.75v1.25a.75.75 0 01-1.5 0V1A.75.75 0 018 .25zM4.5 8a3.5 3.5 0 117 0 3.5 3.5 0 01-7 0zm4.25 5.75a.75.75 0 00-1.5 0V15a.75.75 0 001.5 0zm7-5.75a.75.75 0 01-.75.75h-1.25a.75.75 0 010-1.5H15a.75.75 0 01.75.75zm-13.5.75a.75.75 0 000-1.5H1a.75.75 0 000 1.5zm.27-6.23a.75.75 0 011.06 0l.884.884a.75.75 0 01-1.06 1.06l-.884-.883a.75.75 0 010-1.061zm10.076 9.015a.75.75 0 00-1.06 1.061l.883.884a.75.75 0 001.061-1.06zm.884-9.015a.75.75 0 010 1.06l-.884.884a.75.75 0 01-1.06-1.06l.883-.884a.75.75 0 011.061 0zM4.464 12.596a.75.75 0 00-1.06-1.06l-.884.883a.75.75 0 001.06 1.061z" fill="currentColor" fill-rule="evenodd"/></svg>
