<svg xmlns="http://www.w3.org/2000/svg" width="16" height="16" fill="currentColor" viewBox="0 0 16 16"><path fill-rule="evenodd" d="M8 .25a.75.75 0 0 1 .75.75v1.25a.75.75 0 0 1-1.5 0V1A.75.75 0 0 1 8 .25ZM4.5 8a3.5 3.5 0 1 1 7 0 3.5 3.5 0 0 1-7 0Zm4.25 5.75a.75.75 0 0 0-1.5 0V15a.75.75 0 0 0 1.5 0v-1.25Zm7-5.75a.75.75 0 0 1-.75.75h-1.25a.75.75 0 0 1 0-1.5H15a.75.75 0 0 1 .75.75Zm-13.5.75a.75.75 0 0 0 0-1.5H1a.75.75 0 0 0 0 1.5h1.25Zm.27-6.23a.75.75 0 0 1 1.06 0l.884.884a.75.75 0 0 1-1.06 1.06l-.884-.883a.75.75 0 0 1 0-1.061Zm10.076 9.015a.75.75 0 0 0-1.06 1.061l.883.884a.75.75 0 0 0 1.061-1.06l-.884-.884Zm.884-9.015a.75.75 0 0 1 0 1.06l-.884.884a.75.75 0 0 1-1.06-1.06l.883-.884a.75.75 0 0 1 1.061 0ZM4.464 12.596a.75.75 0 0 0-1.06-1.06l-.884.883a.75.75 0 0 0 1.06 1.061l.884-.884Z" clip-rule="evenodd"/></svg>
