<svg fill="none" height="16" viewBox="0 0 16 16" width="16" xmlns="http://www.w3.org/2000/svg"><g fill="currentColor"><path d="m13.75 1.25c0-.414214-.3358-.75-.75-.75s-.75.335786-.75.75v1.18752c-1.178-.90129-2.65154-1.43752-4.25-1.43752-3.86599 0-7 3.13401-7 7 0 .36444.02791.72285.08185 1.07311.06304.40939.44602.69016.8554.62712.40939-.06304.69016-.44602.62712-.85541-.04234-.27498-.06437-.55708-.06437-.84482 0-3.03757 2.46243-5.5 5.5-5.5 1.17745 0 2.2683.36959 3.1633 1h-1.1633c-.41421 0-.75.33579-.75.75s.33579.75.75.75h3c.4142 0 .75-.33579.75-.75z"/><path d="m13.5 8c0 3.0376-2.4624 5.5-5.5 5.5-1.17745 0-2.26832-.3696-3.16329-1h1.16329c.41421 0 .75-.3358.75-.75s-.33579-.75-.75-.75h-3c-.41421 0-.75.3358-.75.75v3c0 .4142.33579.75.75.75s.75-.3358.75-.75v-1.1875c1.17804.9013 2.65154 1.4375 4.25 1.4375 3.866 0 7-3.134 7-7 0-.36444-.0279-.72285-.0818-1.07311-.0631-.40939-.4461-.69016-.8555-.62712-.4093.06304-.6901.44602-.6271.85541.0424.27498.0644.55708.0644.84482z"/></g></svg>
