<svg xmlns="http://www.w3.org/2000/svg" width="16" height="16" fill="none" viewBox="0 0 16 16"><path fill="currentColor" fill-rule="evenodd" d="M13 .5a.75.75 0 0 1 .75.75v2.9994a.75.75 0 0 1-.7498.75l-3 .0006a.75.75 0 1 1-.0003-1.5l1.1631-.0002C10.268 2.8695 9.1772 2.5 8 2.5 4.9624 2.5 2.5 4.9624 2.5 8c0 .0736.0014.1468.0043.2195a.75.75 0 0 1-1.4989.0588A7.1038 7.1038 0 0 1 1 8c0-3.866 3.134-7 7-7 1.5985 0 3.072.5362 4.25 1.4375V1.25A.75.75 0 0 1 13 .5Zm1.215 6.4967a.75.75 0 0 1 .7793.7195C14.9981 7.8104 15 7.905 15 8c0 3.866-3.134 7-7 7-1.5986 0-3.072-.5362-4.25-1.4375V14.75a.75.75 0 0 1-1.5 0v-2.9994a.75.75 0 0 1 .7498-.75l3-.0006a.75.75 0 1 1 .0003 1.5l-1.163.0002C5.732 13.1305 6.8227 13.5 8 13.5c3.0376 0 5.5-2.4624 5.5-5.5a5.545 5.545 0 0 0-.0045-.224.75.75 0 0 1 .7195-.7793Z" clip-rule="evenodd"/></svg>
