<svg xmlns="http://www.w3.org/2000/svg" width="16" height="16" fill="currentColor" viewBox="0 0 16 16"><path fill-rule="evenodd" d="M10.281 2H5.72c-.674 0-1.225 0-1.672.037-.463.037-.882.118-1.272.317a3.25 3.25 0 0 0-1.42 1.42c-.2.391-.28.81-.318 1.273C1 5.494 1 6.045 1 6.719V9.28c0 .674 0 1.224.037 1.672.037.463.118.882.317 1.273a3.25 3.25 0 0 0 1.42 1.42c.391.199.81.28 1.273.317.447.037.998.037 1.672.037h4.562c.674 0 1.224 0 1.672-.037.463-.037.882-.118 1.273-.317a3.25 3.25 0 0 0 1.42-1.42c.199-.391.28-.81.317-1.273C15 10.505 15 9.954 15 9.28V6.72c0-.674 0-1.225-.037-1.672-.037-.463-.118-.882-.317-1.272a3.25 3.25 0 0 0-1.42-1.42c-.391-.2-.81-.28-1.273-.318C11.506 2 10.955 2 10.281 2ZM3.456 3.69c.144-.073.343-.128.713-.158.38-.031.869-.032 1.581-.032h4.5c.712 0 1.202 0 1.58.032.371.03.57.085.714.159.33.168.598.435.765.765.074.144.13.343.16.713.008.102.014.211.018.331H2.513c.004-.12.01-.23.019-.33.03-.371.085-.57.159-.714a1.75 1.75 0 0 1 .765-.765ZM2.5 7v2.25c0 .712 0 1.202.032 1.58.03.371.085.57.159.714.168.33.435.598.765.765.144.074.343.13.713.16.229.018.497.026.831.029V7H2.5Zm4 5.5h3V7h-3v5.5Zm4.5-.002c.334-.003.602-.01.83-.03.371-.03.57-.085.714-.159a1.75 1.75 0 0 0 .765-.764c.074-.145.13-.344.16-.714.03-.38.031-.869.031-1.581V7H11v5.498Z" clip-rule="evenodd"/></svg>
