<svg fill="none" height="16" viewBox="0 0 16 16" width="16" xmlns="http://www.w3.org/2000/svg"><g fill="currentColor"><g clip-rule="evenodd" fill-rule="evenodd"><path d="m9.8 2.5h-3.6c-.93484 0-1.54575.00117-2.01245.0393-.44918.0367-.63113.10003-.73203.15144-.32929.16778-.597.43549-.76478.76478-.05141.1009-.11474.28285-.15144.73203-.03813.4667-.0393 1.07761-.0393 2.01245v3.6c0 .9348.00117 1.5458.0393 2.0124.0367.4492.10003.6312.15144.7321.16778.3293.43549.597.76478.7648.1009.0514.28285.1147.73203.1514.28614.0234.62649.0329 1.06247.0367.27512.0024.58831.0026.94998.0026h.55002 2.49999.54999c.3617 0 .6749-.0002.95-.0026.436-.0038.7763-.0133 1.0624-.0367.4492-.0367.6312-.1.7321-.1514.3293-.1678.597-.4355.7648-.7648.0514-.1009.1147-.2829.1514-.7321.0381-.4666.0393-1.0776.0393-2.0124v-3.6c0-.93484-.0012-1.54575-.0393-2.01245-.0367-.44918-.1-.63113-.1514-.73203-.1678-.32929-.4355-.597-.7648-.76478-.1009-.05141-.2829-.11474-.7321-.15144-.4666-.03813-1.0776-.0393-2.0124-.0393zm-8.44577.27453c-.35423.69521-.35423 1.6053-.35423 3.42547v3.6c0 1.8202 0 2.7303.35423 3.4255.31159.6115.80877 1.1087 1.4203 1.4203.69521.3542 1.6053.3542 3.42547.3542h3.6c1.8202 0 2.7303 0 3.4255-.3542.6115-.3116 1.1087-.8088 1.4203-1.4203.3542-.6952.3542-1.6053.3542-3.4255v-3.6c0-1.82017 0-2.73026-.3542-3.42547-.3116-.61153-.8088-1.10871-1.4203-1.4203-.6952-.35423-1.6053-.35423-3.4255-.35423h-3.6c-1.82017 0-2.73026 0-3.42547.35423-.61153.31159-1.10871.80877-1.4203 1.4203z"/><path d="m4.00481 5.25c0-.41421.33578-.75.75-.75h6.49519c.4142 0 .75.33579.75.75s-.3358.75-.75.75h-6.49519c-.41422 0-.75-.33579-.75-.75z"/><path d="m4.00481 8.25c0-.41421.33578-.75.75-.75h6.49519c.4142 0 .75.33579.75.75s-.3358.75-.75.75h-6.49519c-.41422 0-.75-.33579-.75-.75z"/></g><path d="m5.25002 13.4974c.27512.0024.58831.0026.94998.0026h.55002l-.00001-1.75c-.00001-.4142-.3358-.75-.75001-.75-.41422 0-.75.3358-.74999.75z"/><path d="m9.8 13.5c.3617 0 .6749-.0002.95-.0026v-1.7474c0-.4142-.3358-.75-.75-.75-.41421 0-.75.3358-.75.75l.00001 1.75z"/></g></svg>
