<svg xmlns="http://www.w3.org/2000/svg" width="16" height="16" fill="currentColor" viewBox="0 0 16 16"><path d="M1.886 12.111c.468 0 .732-.234.896-.796l.446-1.319H6.28l.446 1.336c.158.55.421.78.92.78.515 0 .884-.346.884-.833a1.56 1.56 0 0 0-.111-.562l-2.32-6.293c-.252-.692-.662-.996-1.354-.996-.668 0-1.084.316-1.33 1.002l-2.309 6.287a1.816 1.816 0 0 0-.117.562c0 .51.346.832.897.832Zm1.728-3.486L4.71 5.162h.041l1.12 3.463H3.613Zm7.612 3.475c.785 0 1.57-.393 1.921-1.06h.036v.321c.035.504.357.762.82.762.486 0 .832-.293.832-.861v-3.58c0-1.266-1.049-2.098-2.66-2.098-1.301 0-2.309.463-2.602 1.213a.908.908 0 0 0-.088.387c0 .386.3.656.715.656a.863.863 0 0 0 .68-.317c.38-.492.697-.662 1.219-.662.644 0 1.054.34 1.054.926v.416l-1.582.094c-1.57.094-2.449.756-2.449 1.898 0 1.131.908 1.905 2.104 1.905Zm.562-1.237c-.574 0-.96-.293-.96-.761 0-.446.362-.733 1.001-.78l1.324-.082v.457c0 .68-.615 1.166-1.365 1.166Z"/></svg>
