<svg xmlns="http://www.w3.org/2000/svg" width="16" height="16" fill="currentColor" viewBox="0 0 16 16"><path fill-rule="evenodd" d="M4.218 13.87c-.156.44-.396.633-.81.633-.478 0-.827-.303-.827-.725 0-.12.027-.257.1-.459L4.47 8.495H2.252a.75.75 0 1 1 0-1.5h2.773L6.95 1.799C7.153 1.257 7.493 1 8.036 1c.506 0 .837.248 1.04.79l1.93 5.205h2.742a.75.75 0 1 1 0 1.5h-2.185l1.79 4.824c.073.202.1.34.1.46 0 .421-.349.724-.827.724-.414 0-.653-.193-.81-.633l-1.065-2.875H5.24L4.218 13.87Zm5.225-6.875L8.045 3.139H7.99L6.595 6.995h2.848Zm-3.39 1.5h3.935l.362 1H5.69l.362-1Z" clip-rule="evenodd"/></svg>
