<svg xmlns="http://www.w3.org/2000/svg" width="16" height="16" fill="currentColor" viewBox="0 0 16 16"><path d="M7.807 12.48c.49 0 .842-.331.842-.804 0-.156-.033-.311-.111-.534l-2.74-7.703c-.235-.655-.614-.939-1.233-.939-.614 0-.992.297-1.22.946L.61 11.142a1.61 1.61 0 0 0-.111.534c0 .493.333.804.848.804.437 0 .685-.223.842-.75l.62-1.852h3.516l.62 1.865c.15.52.404.737.861.737ZM5.915 8.5H3.207l1.325-4.162h.046L5.915 8.5Zm8.796 4c.456 0 .789-.304.789-.845V7.432c0-1.439-1.116-2.378-2.832-2.378-1.324 0-2.394.527-2.746 1.358a1.08 1.08 0 0 0-.111.46c0 .405.287.675.685.675.274 0 .49-.108.659-.338.404-.614.816-.837 1.448-.837.803 0 1.292.432 1.292 1.182v.514l-1.833.108c-1.683.108-2.63.871-2.63 2.142 0 1.29.973 2.162 2.31 2.162.894 0 1.762-.48 2.16-1.257h.032v.5c.026.5.333.777.777.777Zm-2.473-1.29c-.705 0-1.18-.372-1.18-.96 0-.568.45-.932 1.232-.986l1.605-.102v.547c0 .865-.744 1.5-1.657 1.5Z"/></svg>
