<svg xmlns="http://www.w3.org/2000/svg" width="16" height="16" fill="currentColor" viewBox="0 0 16 16"><path fill-rule="evenodd" d="M3.25 15h.022c.214 0 .41 0 .576-.011.178-.012.373-.04.572-.122.4-.166.724-.474.91-.863h5.257c.613 0 1.031 0 1.395-.072a3.75 3.75 0 0 0 2.946-2.947c.072-.363.072-.781.072-1.394v-.174c0-.613 0-1.031-.072-1.395a3.75 3.75 0 0 0-2.946-2.946c-.364-.072-.782-.072-1.395-.072H10.5v-1.87a2.13 2.13 0 0 0-4.215-.44l-.65 3.072a6.23 6.23 0 0 1-.05.224.244.244 0 0 1-.085.136 6.26 6.26 0 0 1-.182.14l-.33.251a1.75 1.75 0 0 0-.568-.38 1.781 1.781 0 0 0-.572-.122c-.165-.011-.362-.011-.576-.011-.207 0-.414-.003-.62.011-.178.012-.373.04-.572.122a1.75 1.75 0 0 0-.947.947c-.082.199-.11.394-.122.572C1 7.82 1 8.018 1 8.232v4.54c0 .214 0 .41.011.576.012.178.04.373.122.572.178.428.518.77.947.947.199.082.394.11.572.122.165.011.362.011.576.011h.022Zm.599-1.52a.25.25 0 0 0 .13-.131.637.637 0 0 0 .013-.103A8.29 8.29 0 0 0 4 12.75V8.254c0-.243 0-.388-.008-.496a.64.64 0 0 0-.012-.103.25.25 0 0 0-.131-.13.64.64 0 0 0-.103-.013 8.289 8.289 0 0 0-.496-.008c-.243 0-.388 0-.496.008a.64.64 0 0 0-.103.012.25.25 0 0 0-.13.131.64.64 0 0 0-.013.103 8.289 8.289 0 0 0-.008.496v4.496c0 .243 0 .388.008.496.004.067.01.095.012.103a.25.25 0 0 0 .131.13.636.636 0 0 0 .103.013c.108.008.253.008.496.008s.388 0 .496-.008a.636.636 0 0 0 .103-.012Zm6.651-.976c.733 0 .99-.004 1.189-.043a2.25 2.25 0 0 0 1.768-1.768c.04-.2.043-.456.043-1.19 0-.732-.004-.99-.043-1.188a2.25 2.25 0 0 0-1.768-1.768c-.2-.04-.456-.043-1.189-.043h-.75a.75.75 0 0 1-.75-.75v-2.62a.63.63 0 0 0-1.248-.13l-.649 3.072-.009.042a2.558 2.558 0 0 1-.153.532 1.75 1.75 0 0 1-.266.42 2.559 2.559 0 0 1-.416.365l-.034.027-.726.55V8.1l.001.132v4.272h5Z" clip-rule="evenodd"/></svg>
