<svg xmlns="http://www.w3.org/2000/svg" width="16" height="16" fill="none" viewBox="0 0 16 16"><path fill="currentColor" fill-rule="evenodd" d="M12.75 1.0038h-.0218c-.2142 0-.4111 0-.5764.0112-.1777.0121-.373.0397-.5715.122a1.7503 1.7503 0 0 0-.9097.863H5.4132c-.6132-.0002-1.0312-.0003-1.3948.072a3.75 3.75 0 0 0-2.9463 2.9464C.9996 5.382.9997 5.8 1 6.4132v.1736C.9998 7.2.9997 7.618 1.072 7.9816a3.75 3.75 0 0 0 2.9464 2.9463c.3636.0724.7816.0723 1.3948.0721H5.5v1.8694C5.5 14.0461 6.454 15 7.6306 15a2.1306 2.1306 0 0 0 2.0846-1.6901l.6492-3.0716c.024-.1138.0375-.177.0497-.2246a.2437.2437 0 0 1 .0861-.1359c.0378-.0313.0893-.0705.1819-.1408l.3297-.2503c.1611.1613.3538.2912.5685.38.1985.0823.3938.11.5715.122.1653.0113.3622.0113.5764.0113.2066 0 .4138.0028.62-.0113.1776-.012.373-.0397.5715-.122a1.75 1.75 0 0 0 .9471-.947c.0822-.1985.1098-.3939.1219-.5715C15 8.183 15 7.986 15 7.7718V3.232c0-.2143 0-.4111-.0113-.5765-.0121-.1776-.0397-.373-.1219-.5714a1.75 1.75 0 0 0-.9471-.9471c-.1985-.0823-.3939-.1099-.5715-.122-.1653-.0113-.3622-.0113-.5764-.0112H12.75Zm-.5987 1.5203a.2502.2502 0 0 0-.131.131c-.0019.0073-.008.0357-.0125.1025-.0074.108-.0078.253-.0078.4962V7.75c0 .2432.0004.3881.0078.4961.0045.0668.0106.0952.0125.1026a.2502.2502 0 0 0 .131.131c.0074.0019.0358.008.1026.0125.108.0074.2529.0078.4961.0078.2432 0 .3881-.0004.4961-.0078.0668-.0045.0952-.0106.1026-.0125a.2502.2502 0 0 0 .131-.131c.0019-.0074.008-.0358.0125-.1026.0074-.108.0078-.2529.0078-.4961V3.2538c0-.2433-.0004-.3881-.0078-.4962-.0045-.0668-.0106-.0952-.0125-.1025a.2502.2502 0 0 0-.131-.131c-.0074-.002-.0358-.008-.1026-.0126-.108-.0073-.2529-.0077-.4961-.0077-.2432 0-.3881.0004-.4961.0077-.0668.0046-.0952.0107-.1026.0126ZM5.5 3.5c-.733 0-.9899.0036-1.189.0432A2.25 2.25 0 0 0 2.5432 5.311C2.5036 5.5101 2.5 5.767 2.5 6.5c0 .733.0036.9899.0432 1.189A2.25 2.25 0 0 0 4.311 9.4567c.1991.0396.456.0432 1.189.0432h.75a.75.75 0 0 1 .75.75v2.6194a.6306.6306 0 0 0 1.2477.1304l.649-3.0717.009-.0423c.0362-.1727.075-.3576.1532-.5317a1.75 1.75 0 0 1 .2663-.4203c.1241-.145.2747-.259.4154-.3654l.0345-.0262.7254-.5506-.0004-.088-.0001-.1318V3.5h-5Z" clip-rule="evenodd"/></svg>
