<svg xmlns="http://www.w3.org/2000/svg" width="16" height="16" fill="none" viewBox="0 0 16 16"><g fill="currentColor"><path fill-rule="evenodd" d="M3.2786 1.2196a.7493.7493 0 0 0-1.0601 0 .7503.7503 0 0 0 0 1.0607L4.211 4.274c-.8854.1251-1.6018.2277-2.1458.3548-.5471.1278-1.0881.3134-1.4541.7205a2.4009 2.4009 0 0 0-.5685 2.0774c.1077.5369.4788.9723.8845 1.3611.4063.3894.9758.8465 1.681 1.4109-.2033 1.0717-.365 1.9252-.4319 2.5772-.064.6249-.0704 1.2693.2375 1.7742a2.3984 2.3984 0 0 0 1.9457 1.1478c.5906.0252 1.151-.2923 1.6665-.6509.5218-.3629 1.166-.8957 1.9698-1.563.8037.6673 1.448 1.2001 1.9697 1.563.5155.3586 1.076.6761 1.6666.6509a2.3984 2.3984 0 0 0 1.9457-1.1478c.1274-.2089.1987-.4368.2362-.6682l.8979.8984a.7493.7493 0 0 0 1.0601 0 .7501.7501 0 0 0 0-1.0606l-12.4934-12.5Zm1.7157 4.4587-.4556.0643c-.9694.137-1.6456.2332-2.1326.347-.508.1186-.645.2236-.6803.2629a.9003.9003 0 0 0-.2132.779c.0104.0518.0749.212.4516.573.3612.3461.894.7735 1.6586 1.3854.1392.1115.2745.2121.3733.3659.1799.2802.1623.568.146.7021-.011.0915-.0344.1797-.0515.2699-.2131 1.1239-.363 1.9183-.4229 2.5013-.0636.6204.003.8021.0259.8397a.8994.8994 0 0 0 .7296.4305c.044.0019.2352-.0278.747-.3839.481-.3345 1.103-.8503 1.9828-1.581.1777-.1475.3408-.2971.5693-.3621.3894-.1108.7004.0407.8658.1539.0906.062.1665.1386.2504.2082.8798.7307 1.5019 1.2465 1.9829 1.581.5117.3561.7029.3858.7469.3839a.8995.8995 0 0 0 .7297-.4305c.0071-.0117.0483-.0914.0526-.3402.0043-.2451-.0274-.5814-.0993-1.052a4.9257 4.9257 0 0 0-.011-.0692L5.5341 5.5977l-.5398.0806Z"/><path d="M7.5927 1.5922a.899.899 0 0 1 .8061 0c.0474.0238.1845.1279.4327.5841.2381.4377.5093 1.0616.8973 1.9566l.3746.8642c.0317.073.0858.195.1732.3067.117.1495.2485.228.3455.2744.1497.0718.3119.0921.3636.0986l.4671.0658c.9695.137 1.6456.2332 2.1327.347.5079.1186.645.2236.6803.2629a.9006.9006 0 0 1 .2132.779c-.0056.0276-.0345.12-.1974.3089-.1624.1883-.4111.4198-.7806.7307a.7503.7503 0 0 0-.0914 1.0567.7494.7494 0 0 0 1.0562.0914c.3815-.321.7066-.6156.9509-.8989.2438-.2828.4547-.6074.5321-.9936a2.4008 2.4008 0 0 0-.5684-2.0774c-.366-.4071-.907-.5927-1.4541-.7205-.5603-.1309-1.3034-.2358-2.2256-.366l-.2998-.0424-.312-.7198c-.369-.8513-.6665-1.5375-.9405-2.0413C9.8806.967 9.5589.496 9.0706.2513a2.3976 2.3976 0 0 0-2.1497 0c-.3636.1823-.6271.485-.8402.8084a.7502.7502 0 0 0 .2132 1.039.7494.7494 0 0 0 1.0384-.2133c.1475-.2239.2336-.2797.2604-.2932Z"/></g></svg>