<svg xmlns="http://www.w3.org/2000/svg" width="16" height="16" fill="none" viewBox="0 0 16 16"><path fill="currentColor" d="m8.5875 13.4344-.3171-.2636c-.1997-.1659-.3304-.1748-.5408 0l-.3171.2636c-1.8398 1.5291-2.7598 2.2936-3.4319 2.2648a1.7459 1.7459 0 0 1-1.4165-.837c-.3502-.5753-.1273-1.7517.3186-4.1045l.0794-.4192c.0354-.1867.0028-.2867-.1516-.4104l-.2574-.2062C.9573 8.444.1594 7.8048.0342 7.1805a1.7518 1.7518 0 0 1 .4139-1.5148c.3893-.4336 1.2706-.59 2.9705-.833L1.2929 2.7072c-.3905-.3905-.3905-1.0237 0-1.4142.3905-.3905 1.0237-.3905 1.4142 0l13 13c.3905.3905.3905 1.0237 0 1.4142-.3905.3905-1.0237.3905-1.4142 0l-.8525-.8525-.0045.0076a1.746 1.746 0 0 1-1.4165.837c-.6721.0288-1.592-.7357-3.4319-2.2648Zm1.9761-10.1619.4938 1.14c.0717.1655.1428.2248.3293.2512l.7056.0997c2.023.286 3.0345.4289 3.4596.9023a1.752 1.752 0 0 1 .4139 1.5148c-.1175.5856-.8269 1.1842-2.2315 2.3111l-7.6611-7.661c.431-.9302.748-1.4462 1.1443-1.6452a1.7438 1.7438 0 0 1 1.565 0c.5672.2848.9718 1.2189 1.7811 3.0871Z"/></svg>
