<svg fill="none" height="16" viewBox="0 0 16 16" width="16" xmlns="http://www.w3.org/2000/svg"><path clip-rule="evenodd" d="m6 4.5c0-1.10457.89543-2 2-2 .91549 0 1.6891.61574 1.92564 1.45711.11206.39876.52626.63113.92496.51903.3988-.11211.6312-.52624.5191-.925-.4137-1.47135-1.76463-2.55114-3.3697-2.55114-1.933 0-3.5 1.567-3.5 3.5v1.52399c-.49027.02993-.83809.09722-1.13498.24849-.4704.23969-.85285.62214-1.09254 1.09254-.27248.53478-.27248 1.23485-.27248 2.63498v1c0 1.4001 0 2.1002.27248 2.635.23969.4704.62214.8528 1.09254 1.0925.53478.2725 1.23485.2725 2.63498.2725h4c1.4001 0 2.1002 0 2.635-.2725.4704-.2397.8528-.6221 1.0925-1.0925.2725-.5348.2725-1.2349.2725-2.635v-1c0-1.40013 0-2.1002-.2725-2.63498-.2397-.4704-.6221-.85285-1.0925-1.09254-.5348-.27248-1.2349-.27248-2.635-.27248h-4zm-2.5 4.6c0-.56005 0-.84008.10899-1.05399.09588-.18816.24886-.34114.43702-.43702.21391-.10899.49394-.10899 1.05399-.10899h5.8c.5601 0 .8401 0 1.054.10899.1882.09588.3411.24886.437.43702.109.21391.109.49394.109 1.05399v2.8c0 .5601 0 .8401-.109 1.054-.0959.1882-.2488.3411-.437.437-.2139.109-.4939.109-1.054.109h-5.8c-.56005 0-.84008 0-1.05399-.109-.18816-.0959-.34114-.2488-.43702-.437-.10899-.2139-.10899-.4939-.10899-1.054z" fill="currentColor" fill-rule="evenodd"/></svg>
