<svg height="16" viewBox="0 0 16 16" width="16" xmlns="http://www.w3.org/2000/svg"><g fill="none" fill-rule="evenodd"><path d="m0 0h16v16h-16z"/><path d="m6.44929727.53908647.09467838.08360455 3.99999995 4c.392477.39247691.392477 1.02880772 0 1.42128463-.3622863.36228638-.93235354.39015456-1.32660621.08360455l-.09467837-.08360455-2.28435769-2.28464232v7.57399997c0 .5550462-.44995382 1.005-1.005 1.005-.51540001 0-.94018469-.3879704-.99823863-.8877957l-.00676137-.1172043v-7.57599997l-2.28435768 2.28664232c-.36228638.36228638-.93235359.39015456-1.32660626.08360455l-.09467837-.08360455c-.36228638-.36228638-.39015457-.93235359-.08360455-1.32660626l.08360455-.09467837 4-4c.36228638-.36228638.93235359-.39015457 1.32660625-.08360455z" fill="currentColor" fill-rule="nonzero" transform="translate(2.166667 1.666667)"/></g></svg>
