<svg fill="none" height="16" viewBox="0 0 16 16" width="16" xmlns="http://www.w3.org/2000/svg"><g clip-rule="evenodd" fill="currentColor" fill-rule="evenodd"><path d="m11.75 5c0 2.07107-1.6789 3.75-3.75002 3.75-2.07106 0-3.75-1.67893-3.75-3.75s1.67894-3.75 3.75-3.75c2.07112 0 3.75002 1.67893 3.75002 3.75zm-1.5 0c0 1.24264-1.00737 2.25-2.25002 2.25-1.24264 0-2.25-1.00736-2.25-2.25s1.00736-2.25 2.25-2.25c1.24265 0 2.25002 1.00736 2.25002 2.25z"/><path d="m8 9.5c-1.96316 0-3.4846.25103-4.54043.8045-.53927.2827-.9757.6541-1.27471 1.1263-.30077.4751-.43486 1.0088-.43486 1.5692v.25c-.00001.9665.7835 1.75 1.75 1.75h9c.9668 0 1.75-.7842 1.75-1.7504v-.2496c0-.5604-.1341-1.0941-.4349-1.5692-.299-.4722-.7354-.8436-1.2747-1.1263-1.0558-.55347-2.57725-.8045-4.5404-.8045zm-4.75 3.5c0-.3146.07267-.5622.20221-.7668.13131-.2074.34877-.4141.70375-.6002.73268-.384 1.96124-.633 3.84404-.633s3.1114.249 3.844.633c.355.1861.5725.3928.7038.6002.1295.2046.2022.4522.2022.7668v.2496c0 .1385-.1123.2504-.25.2504h-9c-.13807 0-.25-.1119-.25-.25z"/></g></svg>
