<svg xmlns="http://www.w3.org/2000/svg" width="16" height="16" fill="none" viewBox="0 0 16 16"><path fill="currentColor" fill-rule="evenodd" d="M8 6.5c1.1046 0 2-.8954 2-2s-.8954-2-2-2-2 .8954-2 2 .8954 2 2 2ZM8 8c1.933 0 3.5-1.567 3.5-3.5S9.933 1 8 1 4.5 2.567 4.5 4.5 6.067 8 8 8Zm-4.304 4.2199c-.1249.2066-.196.459-.196.7801v.25a.25.25 0 0 0 .25.25h8.5c.1377 0 .25-.1119.25-.2504V13c0-.3211-.0711-.5735-.196-.7801-.1255-.2078-.331-.4113-.6633-.5937C10.9528 11.2484 9.7924 11 8 11c-1.7924 0-2.9528.2484-3.6407.6262-.3323.1824-.5378.3859-.6634.5937Zm-.0587-1.9086C4.6567 9.7516 6.1213 9.5 8 9.5c1.8787 0 3.3433.2516 4.3627.8113.5213.2863.94.6609 1.2251 1.1328.286.4731.4122 1.002.4122 1.5559v.2496C14 14.2158 13.2168 15 12.25 15h-8.5C2.7835 15 2 14.2165 2 13.25V13c0-.5539.1262-1.0828.4122-1.5559.2852-.4719.7038-.8465 1.2251-1.1328Z" clip-rule="evenodd"/></svg>
