<svg xmlns="http://www.w3.org/2000/svg" width="16" height="16" fill="currentColor" viewBox="0 0 16 16"><path fill-rule="evenodd" d="M2.218 2.092C2 2.52 2 3.08 2 4.2v7.6c0 1.12 0 1.68.218 2.108a2 2 0 0 0 .874.874C3.52 15 4.08 15 5.2 15h5.6c1.12 0 1.68 0 2.108-.218a2 2 0 0 0 .874-.874C14 13.48 14 12.92 14 11.8V4.2c0-1.12 0-1.68-.218-2.108a2 2 0 0 0-.874-.874C12.48 1 11.92 1 10.8 1H5.2c-1.12 0-1.68 0-2.108.218a2 2 0 0 0-.874.874ZM4 3.8c0-.28 0-.42.054-.527a.5.5 0 0 1 .219-.219C4.38 3 4.52 3 4.8 3h.4c.28 0 .42 0 .527.054a.5.5 0 0 1 .218.219C6 3.38 6 3.52 6 3.8v.4c0 .28 0 .42-.054.527a.5.5 0 0 1-.219.218C5.62 5 5.48 5 5.2 5h-.4c-.28 0-.42 0-.527-.054a.5.5 0 0 1-.218-.219C4 4.62 4 4.48 4 4.2v-.4Zm0 8c0-.28 0-.42.054-.527a.5.5 0 0 1 .219-.218C4.38 11 4.52 11 4.8 11h.4c.28 0 .42 0 .527.055a.5.5 0 0 1 .218.218C6 11.38 6 11.52 6 11.8v.4c0 .28 0 .42-.054.527a.5.5 0 0 1-.219.218C5.62 13 5.48 13 5.2 13h-.4c-.28 0-.42 0-.527-.055a.5.5 0 0 1-.218-.218C4 12.62 4 12.48 4 12.2v-.4Zm.054-4.527C4 7.38 4 7.52 4 7.8v.4c0 .28 0 .42.054.527a.5.5 0 0 0 .219.218C4.38 9 4.52 9 4.8 9h.4c.28 0 .42 0 .527-.055a.5.5 0 0 0 .218-.218C6 8.62 6 8.48 6 8.2v-.4c0-.28 0-.42-.054-.527a.5.5 0 0 0-.219-.218C5.62 7 5.48 7 5.2 7h-.4c-.28 0-.42 0-.527.054a.5.5 0 0 0-.218.219ZM10 3.8c0-.28 0-.42.055-.527a.5.5 0 0 1 .218-.219C10.38 3 10.52 3 10.8 3h.4c.28 0 .42 0 .527.054a.5.5 0 0 1 .218.219C12 3.38 12 3.52 12 3.8v.4c0 .28 0 .42-.055.527a.5.5 0 0 1-.218.218C11.62 5 11.48 5 11.2 5h-.4c-.28 0-.42 0-.527-.054a.5.5 0 0 1-.218-.219C10 4.62 10 4.48 10 4.2v-.4Zm.055 7.473C10 11.38 10 11.52 10 11.8v.4c0 .28 0 .42.055.527a.5.5 0 0 0 .218.218c.107.055.247.055.527.055h.4c.28 0 .42 0 .527-.055a.5.5 0 0 0 .218-.218C12 12.62 12 12.48 12 12.2v-.4c0-.28 0-.42-.055-.527a.5.5 0 0 0-.218-.218C11.62 11 11.48 11 11.2 11h-.4c-.28 0-.42 0-.527.055a.5.5 0 0 0-.218.218ZM10 7.8c0-.28 0-.42.055-.527a.5.5 0 0 1 .218-.218C10.38 7 10.52 7 10.8 7h.4c.28 0 .42 0 .527.054a.5.5 0 0 1 .218.219C12 7.38 12 7.52 12 7.8v.4c0 .28 0 .42-.055.527a.5.5 0 0 1-.218.218C11.62 9 11.48 9 11.2 9h-.4c-.28 0-.42 0-.527-.055a.5.5 0 0 1-.218-.218C10 8.62 10 8.48 10 8.2v-.4Z" clip-rule="evenodd"/></svg>
