<svg xmlns="http://www.w3.org/2000/svg" width="16" height="16" fill="none" viewBox="0 0 16 16"><path fill="currentColor" fill-rule="evenodd" d="M5.7186 2h4.5628c.6734 0 1.2241 0 1.6717.0366.4632.0378.8816.1185 1.2724.3176a3.2502 3.2502 0 0 1 1.4203 1.4203c.1991.3908.2798.8092.3176 1.2724C15 5.4945 15 6.0452 15 6.7185v2.563c0 .6733 0 1.224-.0366 1.6716-.0378.4632-.1185.8816-.3176 1.2724a3.2504 3.2504 0 0 1-1.4203 1.4203c-.3908.1991-.8092.2798-1.2724.3176C11.5055 14 10.9548 14 10.2815 14H5.7186c-.6734 0-1.2241 0-1.6717-.0366-.4632-.0378-.8816-.1185-1.2724-.3176a3.2502 3.2502 0 0 1-1.4203-1.4203c-.199-.3908-.2798-.8092-.3176-1.2724C1 10.5055 1 9.9548 1 9.2814V6.7186c0-.6734 0-1.2241.0366-1.6717.0378-.4632.1185-.8816.3176-1.2724a3.25 3.25 0 0 1 1.4203-1.4203c.3908-.199.8092-.2798 1.2724-.3176C4.4945 2 5.0452 2 5.7186 2ZM9.809 8.3352c.2545-.1504.2545-.52 0-.6704L7.0843 6.0544c-.2584-.1527-.5843.0343-.5843.3352v3.2208c0 .301.326.4879.5843.3352l2.7248-1.6104ZM2.5 4.75a.5.5 0 0 1 .5-.5h.5a.5.5 0 0 1 .5.5v.5a.5.5 0 0 1-.5.5H3a.5.5 0 0 1-.5-.5v-.5Zm10-.5a.5.5 0 0 0-.5.5v.5a.5.5 0 0 0 .5.5h.5a.5.5 0 0 0 .5-.5v-.5a.5.5 0 0 0-.5-.5h-.5Zm-10 3.5a.5.5 0 0 1 .5-.5h.5a.5.5 0 0 1 .5.5v.5a.5.5 0 0 1-.5.5H3a.5.5 0 0 1-.5-.5v-.5Zm10-.5a.5.5 0 0 0-.5.5v.5a.5.5 0 0 0 .5.5h.5a.5.5 0 0 0 .5-.5v-.5a.5.5 0 0 0-.5-.5h-.5Zm-10 3.5a.5.5 0 0 1 .5-.5h.5a.5.5 0 0 1 .5.5v.5a.5.5 0 0 1-.5.5H3a.5.5 0 0 1-.5-.5v-.5Zm10-.5a.5.5 0 0 0-.5.5v.5a.5.5 0 0 0 .5.5h.5a.5.5 0 0 0 .5-.5v-.5a.5.5 0 0 0-.5-.5h-.5Z" clip-rule="evenodd"/></svg>
