<svg xmlns="http://www.w3.org/2000/svg" width="16" height="16" fill="none" viewBox="0 0 16 16"><path fill="currentColor" fill-rule="evenodd" d="M10.5 8c0 1.3807-1.1193 2.5-2.5 2.5S5.5 9.3807 5.5 8 6.6193 5.5 8 5.5s2.5 1.1193 2.5 2.5ZM8 9c.5523 0 1-.4477 1-1s-.4477-1-1-1-1 .4477-1 1 .4477 1 1 1Z M12.6769 11.5103C11.4515 12.3544 9.785 13 8 13c-1.785 0-3.4515-.6456-4.677-1.4897-.6161-.4244-1.1643-.9284-1.5728-1.4804C1.3589 9.5012 1 8.7968 1 8s.3589-1.5012.7502-2.0299c.4085-.552.9567-1.056 1.5729-1.4804C4.5485 3.6457 6.215 3 8 3c1.785 0 3.4515.6456 4.6769 1.4897.6162.4244 1.1643.9284 1.5729 1.4804C14.6411 6.4988 15 7.2032 15 8s-.3589 1.5012-.7502 2.0299c-.4086.552-.9567 1.056-1.5729 1.4804ZM8 11.5c2.8696 0 5.5-2.1 5.5-3.5S10.8696 4.5 8 4.5 2.5 6.6 2.5 8s2.6304 3.5 5.5 3.5Z" clip-rule="evenodd"/></svg>
