<svg fill="none" height="16" viewBox="0 0 16 16" width="16" xmlns="http://www.w3.org/2000/svg"><g clip-rule="evenodd" fill="currentColor" fill-rule="evenodd"><path d="m8 10.5c1.38071 0 2.5-1.11929 2.5-2.5s-1.11929-2.5-2.5-2.5-2.5 1.11929-2.5 2.5 1.11929 2.5 2.5 2.5zm1-2.5c0 .55228-.44772 1-1 1s-1-.44772-1-1 .44772-1 1-1 1 .44772 1 1z"/><path d="m8 13.25c1.85963 0 3.5935-.6895 4.865-1.587.6397-.4516 1.2051-.9854 1.6245-1.566.4033-.55845.7605-1.28614.7605-2.097s-.3572-1.53855-.7605-2.09699c-.4194-.58059-.9848-1.11445-1.6245-1.56596-1.2715-.89756-3.00537-1.58705-4.865-1.58705s-3.59349.68949-4.86502 1.58705c-.63964.45151-1.20512.98537-1.62444 1.56596-.40331.55844-.76054 1.28613-.76054 2.09699s.35723 1.53855.76054 2.097c.41932.5806.9848 1.1144 1.62444 1.566 1.27153.8975 3.00539 1.587 4.86502 1.587zm5.75-5.25c0 1.5-2.75 3.75-5.75 3.75s-5.75-2.25-5.75-3.75 2.75-3.75 5.75-3.75 5.75 2.25 5.75 3.75z"/></g></svg>
