<svg xmlns="http://www.w3.org/2000/svg" width="16" height="16" fill="currentColor" viewBox="0 0 16 16"><path d="M6.282 2.5a.75.75 0 0 0-.06-1.5c-.623.025-1.105.103-1.55.243a5.25 5.25 0 0 0-3.43 3.427c-.142.45-.213.936-.239 1.552a.75.75 0 0 0 1.5.063c.022-.535.08-.88.17-1.164a3.75 3.75 0 0 1 2.448-2.448c.289-.091.634-.154 1.16-.175ZM9.777 1a.75.75 0 0 0-.06 1.5c.527.02.873.083 1.16.174a3.75 3.75 0 0 1 2.45 2.448c.089.283.147.627.17 1.16a.75.75 0 0 0 1.498-.065c-.026-.613-.096-1.097-.238-1.546a5.25 5.25 0 0 0-3.428-3.428c-.446-.14-.929-.218-1.552-.242ZM2.5 9.725a.75.75 0 0 0-1.5.06c.026.62.103 1.1.243 1.544a5.25 5.25 0 0 0 3.428 3.428c.446.14.928.218 1.551.242a.75.75 0 1 0 .06-1.498c-.526-.021-.871-.084-1.16-.175a3.75 3.75 0 0 1-2.448-2.448c-.091-.288-.154-.632-.175-1.153Zm12.5.06a.75.75 0 0 0-1.5-.06c-.02.521-.083.865-.174 1.153a3.75 3.75 0 0 1-2.448 2.448c-.289.091-.634.154-1.16.175a.75.75 0 1 0 .06 1.498c.622-.024 1.105-.102 1.55-.242a5.25 5.25 0 0 0 3.43-3.428c.139-.443.217-.924.242-1.544ZM6.5 7a1 1 0 1 0-2 0 1 1 0 0 0 2 0Zm4-1a1 1 0 1 1 0 2 1 1 0 0 1 0-2ZM9.476 9.321c-.119-.071-.255-.071-.526-.071h-1.9c-.271 0-.407 0-.526.071a.571.571 0 0 0-.219.277c-.042.133-.017.237.033.446a.966.966 0 0 0 .045.148 1.752 1.752 0 0 0 .947.928 1.78 1.78 0 0 0 1.907-.372c.163-.16.292-.348.38-.556a.966.966 0 0 0 .045-.148c.05-.209.075-.313.033-.446a.571.571 0 0 0-.22-.277Z"/></svg>
