<svg width="16" height="16" fill="none" xmlns="http://www.w3.org/2000/svg"><path fill-rule="evenodd" clip-rule="evenodd" d="M9 9a.75.75 0 01.75-.75h1.5a.75.75 0 010 1.5h-1.5A.75.75 0 019 9z" fill="currentColor"/><path fill-rule="evenodd" clip-rule="evenodd" d="M10.5 6.5h-8v2.7c0 .865.001 1.423.036 1.848.033.408.09.559.127.633a1.5 1.5 0 00.656.655c.074.038.225.095.633.128.425.035.983.036 1.848.036h4.7c.72 0 1.184 0 1.54-.025.341-.023.472-.063.534-.09a1.5 1.5 0 00.812-.811c.026-.062.066-.193.089-.535.024-.355.025-.82.025-1.539 0-.72 0-1.184-.025-1.54-.023-.341-.063-.472-.09-.534a1.5 1.5 0 00-.811-.812c-.062-.026-.193-.066-.535-.089-.355-.024-.82-.025-1.539-.025zM1 5v4.2c0 1.68 0 2.52.327 3.162a3 3 0 001.311 1.311C3.28 14 4.12 14 5.8 14h4.7c1.398 0 2.097 0 2.648-.228a3 3 0 001.624-1.624C15 11.597 15 10.898 15 9.5c0-1.398 0-2.097-.228-2.648a3 3 0 00-1.624-1.624C12.597 5 11.898 5 10.5 5H1z" fill="currentColor"/><path fill-rule="evenodd" clip-rule="evenodd" d="M13 6.5H1c0-.622 0-1.106.02-1.5.025-.49.082-.842.208-1.148a3 3 0 011.624-1.624C3.403 2 4.102 2 5.5 2h3c1.398 0 2.097 0 2.648.228a3 3 0 011.624 1.624c.126.306.183.657.208 1.148.02.394.02.878.02 1.5zM11.477 5H2.523l.002-.04c.023-.341.063-.472.09-.534a1.5 1.5 0 01.811-.812c.062-.026.193-.066.535-.089.355-.024.82-.025 1.539-.025h3c.72 0 1.184 0 1.54.025.341.023.472.063.534.09a1.5 1.5 0 01.812.811c.026.062.066.193.089.535l.002.039z" fill="currentColor"/></svg>
