<svg xmlns="http://www.w3.org/2000/svg" width="16" height="16" fill="currentColor" viewBox="0 0 16 16"><path fill-rule="evenodd" d="M4.5 2.5c-.846 0-1.553.6-1.715 1.4a.75.75 0 0 1-1.47-.3A3.25 3.25 0 1 1 4.5 7.5H1.75a.75.75 0 0 1 0-1.5H4.5a1.75 1.75 0 1 0 0-3.5Zm5.535 3.9a1.75 1.75 0 1 1 1.715 2.1h-10a.75.75 0 0 0 0 1.5h10a3.25 3.25 0 1 0-3.185-3.9.75.75 0 0 0 1.47.3ZM8.75 12.25a.75.75 0 0 0-1.5 0v.201l-.174-.1a.75.75 0 0 0-.75 1.298l.174.101-.174.1a.75.75 0 1 0 .75 1.3l.174-.101v.201a.75.75 0 0 0 1.5 0v-.201l.174.1a.75.75 0 0 0 .75-1.298L9.5 13.75l.174-.1a.75.75 0 1 0-.75-1.3l-.174.101v-.201Z" clip-rule="evenodd"/></svg>
