<svg fill="none" height="16" width="16" xmlns="http://www.w3.org/2000/svg"><path clip-rule="evenodd" d="M4.5 2.5c-.846 0-1.553.6-1.715 1.4a.75.75 0 01-1.47-.3A3.25 3.25 0 114.5 7.5H1.75a.75.75 0 010-1.5H4.5a1.75 1.75 0 100-3.5zm5.535 3.9a1.75 1.75 0 111.715 2.1h-10a.75.75 0 000 1.5h10a3.25 3.25 0 10-3.185-3.9.75.75 0 001.47.3zm-2.577 6.087a.75.75 0 00-1.423-.474l-.666 2a.75.75 0 001.423.474zm-2.746 0a.75.75 0 00-1.423-.474l-1 3a.75.75 0 001.423.474zM11 11.5a.75.75 0 01.75.75v.201l.174-.1a.75.75 0 01.75 1.299l-.174.1.174.1a.75.75 0 01-.75 1.3l-.174-.101v.201a.75.75 0 01-1.5 0v-.201l-.174.1a.75.75 0 01-.75-1.298l.174-.101-.174-.1a.75.75 0 11.75-1.3l.174.101v-.201a.75.75 0 01.75-.75z" fill="currentColor" fill-rule="evenodd"/></svg>
