<svg fill="none" height="16" width="16" xmlns="http://www.w3.org/2000/svg"><path clip-rule="evenodd" d="M4.5 2.5c-.846 0-1.553.6-1.715 1.4a.75.75 0 01-1.47-.3A3.25 3.25 0 114.5 7.5H1.75a.75.75 0 010-1.5H4.5a1.75 1.75 0 100-3.5zm5.535 3.9a1.75 1.75 0 111.715 2.1h-10a.75.75 0 000 1.5h10a3.25 3.25 0 10-3.185-3.9.75.75 0 001.47.3zM8.75 12.25a.75.75 0 00-1.5 0v.201l-.174-.1a.75.75 0 00-.75 1.298l.174.101-.174.1a.75.75 0 10.75 1.3l.174-.101v.201a.75.75 0 001.5 0v-.201l.174.1a.75.75 0 00.75-1.298L9.5 13.75l.174-.1a.75.75 0 10-.75-1.3l-.174.101z" fill="currentColor" fill-rule="evenodd"/></svg>
