<svg fill="none" height="16" width="16" xmlns="http://www.w3.org/2000/svg"><path clip-rule="evenodd" d="M4.5 2.5c-.846 0-1.553.6-1.715 1.4a.75.75 0 01-1.47-.3A3.25 3.25 0 114.5 7.5H1.75a.75.75 0 010-1.5H4.5a1.75 1.75 0 100-3.5zm5.535 3.9a1.75 1.75 0 111.715 2.1h-10a.75.75 0 000 1.5h10a3.25 3.25 0 10-3.185-3.9.75.75 0 001.47.3zm-.548 5.139a.75.75 0 01.474.948l-.666 2a.75.75 0 01-1.423-.474l.666-2a.75.75 0 01.95-.474zm-3 0a.75.75 0 01.475.948l-1 3a.75.75 0 01-1.424-.474l1-3a.75.75 0 01.95-.474z" fill="currentColor" fill-rule="evenodd"/></svg>
