<svg xmlns="http://www.w3.org/2000/svg" width="16" height="16" fill="currentColor" viewBox="0 0 16 16"><path fill-rule="evenodd" d="M8.024 1c.329 0 .613 0 .848.016.247.017.495.054.739.155.551.229.99.667 1.218 1.218.101.244.138.492.155.74.008.112.012.236.014.371h.88c.396 0 .737 0 1.018.023.297.024.592.078.875.222.424.216.768.56.984.984.144.283.198.578.222.875.03.356.023.715.023 1.072 0 .258 0 .494-.016.692a1.775 1.775 0 0 1-.175.676 1.75 1.75 0 0 1-.809.787v1.75c0 .534 0 .98-.03 1.344-.03.38-.098.736-.27 1.073a2.751 2.751 0 0 1-1.2 1.202c-.338.172-.694.24-1.074.27-.365.03-.81.03-1.345.03H5.67c-.535 0-.98 0-1.345-.03-.38-.03-.737-.098-1.074-.27A2.75 2.75 0 0 1 2.05 13c-.171-.338-.239-.694-.27-1.074-.03-.365-.03-.81-.03-1.345V8.686a1.75 1.75 0 0 1-.559-.642 1.774 1.774 0 0 1-.174-.676A9.05 9.05 0 0 1 1 6.676c0-.357-.007-.716.022-1.072.025-.297.078-.592.223-.875a2.25 2.25 0 0 1 .983-.984 2.3 2.3 0 0 1 .875-.222c.281-.023.622-.023 1.018-.023h.881c.002-.135.006-.259.014-.372a2.31 2.31 0 0 1 .155-.739A2.25 2.25 0 0 1 6.39 1.171a2.31 2.31 0 0 1 .74-.155C7.427.996 7.727 1 8.025 1Zm1.474 2.5H6.502c.002-.104.005-.192.01-.27a.87.87 0 0 1 .045-.267.75.75 0 0 1 .406-.406.87.87 0 0 1 .267-.044C7.408 2.5 7.64 2.5 8 2.5c.36 0 .592 0 .77.013a.87.87 0 0 1 .267.044.75.75 0 0 1 .406.406.87.87 0 0 1 .044.267c.006.078.009.166.01.27ZM5 5h-.85c-.433 0-.712 0-.925.018-.203.017-.279.045-.316.064a.75.75 0 0 0-.328.328c-.019.037-.047.112-.064.316-.017.212-.017.492-.017.924 0 .292 0 .467.01.596a.627.627 0 0 0 .018.12.25.25 0 0 0 .105.105.628.628 0 0 0 .12.018c.13.01.304.011.597.011h9.3c.292 0 .467 0 .596-.011a.626.626 0 0 0 .12-.018.25.25 0 0 0 .105-.104.638.638 0 0 0 .018-.121c.01-.13.011-.304.011-.596 0-.432 0-.712-.018-.924-.017-.204-.045-.28-.064-.316a.75.75 0 0 0-.327-.328c-.038-.02-.113-.047-.317-.064A12.753 12.753 0 0 0 11.85 5H5Zm8.47 2.37v-.002Zm-.1.1h-.002Zm-10.74 0h.002Zm-.101-.102v.001ZM3.249 9v1.55c0 .572.001.957.025 1.252.024.288.066.425.112.516.12.235.31.426.546.546.09.046.228.088.515.111.296.024.68.025 1.253.025h4.35c.572 0 .957 0 1.252-.025.288-.023.425-.065.516-.111a1.25 1.25 0 0 0 .546-.546c.046-.091.088-.228.111-.515.024-.296.025-.68.025-1.253V9H3.25Z" clip-rule="evenodd"/></svg>
