<svg xmlns="http://www.w3.org/2000/svg" width="16" height="16" fill="currentColor" viewBox="0 0 16 16"><path fill-rule="evenodd" d="M7.621 1.5h.758c.395 0 .736 0 1.017.023.297.024.592.078.875.222.424.216.768.56.984.984.144.283.198.578.222.875.02.252.023.552.023.896h.379c.395 0 .736 0 1.017.023.297.024.592.078.875.222.424.216.768.56.984.984.144.283.198.578.222.875.023.28.023.622.023 1.017v.555c0 .258 0 .494-.016.692a1.775 1.775 0 0 1-.175.676 1.75 1.75 0 0 1-.81.787c0 .425-.004.788-.029 1.094-.03.38-.098.736-.27 1.073a2.751 2.751 0 0 1-1.2 1.202c-.338.172-.694.24-1.074.27-.365.03-.81.03-1.345.03H5.92c-.535 0-.98 0-1.345-.03-.38-.03-.736-.098-1.073-.27A2.75 2.75 0 0 1 2.3 12.5c-.172-.338-.24-.694-.27-1.074A14.394 14.394 0 0 1 2 10.33a1.75 1.75 0 0 1-.81-.787 1.774 1.774 0 0 1-.174-.676C1 8.67 1 8.434 1 8.176v-.555c0-.395 0-.736.023-1.017a2.29 2.29 0 0 1 .222-.875 2.25 2.25 0 0 1 .984-.984 2.29 2.29 0 0 1 .875-.222c.28-.023.622-.023 1.017-.023H4.5c0-.344.002-.644.023-.896a2.29 2.29 0 0 1 .222-.875 2.25 2.25 0 0 1 .984-.984 2.29 2.29 0 0 1 .875-.222c.28-.023.622-.023 1.017-.023Zm-1.62 3H10c0-.349-.003-.587-.018-.774-.017-.204-.045-.28-.064-.317a.75.75 0 0 0-.327-.327c-.038-.02-.113-.047-.317-.064A12.755 12.755 0 0 0 8.35 3h-.7c-.432 0-.712 0-.924.018-.204.017-.28.045-.316.064a.75.75 0 0 0-.328.327c-.02.038-.047.113-.064.317C6.003 3.913 6 4.15 6 4.5Zm-2.5 6c.001.336.007.592.024.803.023.287.065.424.111.514.12.236.311.427.547.547.09.046.227.088.514.111.296.024.68.025 1.253.025h4.1c.572 0 .957 0 1.252-.025.288-.023.425-.065.516-.111a1.25 1.25 0 0 0 .546-.546c.046-.091.088-.228.111-.515.018-.211.023-.467.024-.803H3.501Zm-.275-4.482c-.204.017-.28.045-.316.064a.75.75 0 0 0-.328.327c-.02.038-.047.113-.064.317-.017.212-.018.492-.018.924v.5c0 .292 0 .467.011.596a.627.627 0 0 0 .018.12.25.25 0 0 0 .104.105.627.627 0 0 0 .121.018c.13.01.304.011.596.011h9.3c.292 0 .467 0 .596-.011a.625.625 0 0 0 .12-.018.25.25 0 0 0 .105-.104.638.638 0 0 0 .018-.121c.01-.13.011-.304.011-.596v-.5c0-.432 0-.712-.018-.924-.017-.204-.045-.28-.064-.317a.75.75 0 0 0-.327-.327c-.038-.02-.113-.047-.317-.064A12.755 12.755 0 0 0 11.85 6h-7.7c-.432 0-.712 0-.924.018ZM13.47 8.869v-.001Zm-.1.101h-.002Zm-10.74 0h.002Zm-.1-.102v.001Z" clip-rule="evenodd"/></svg>
