<svg xmlns="http://www.w3.org/2000/svg" width="24" height="24" fill="currentColor" viewBox="0 0 24 24"><path fill-rule="evenodd" d="M12 2.1c5.467 0 9.9 4.433 9.9 9.9 0 5.467-4.433 9.9-9.9 9.9-5.467 0-9.9-4.433-9.9-9.9 0-5.467 4.433-9.9 9.9-9.9Zm0 1.8A8.1 8.1 0 0 0 3.9 12a8.1 8.1 0 0 0 8.1 8.1 8.1 8.1 0 0 0 8.1-8.1A8.1 8.1 0 0 0 12 3.9Z" clip-rule="evenodd"/><path d="M9.137 15.998c.585 0 .977-.382.977-.973V9.101C10.114 8.424 9.701 8 8.992 8c-.387 0-.72.043-1.134.322l-1.466 1c-.28.193-.392.413-.392.698 0 .397.285.682.666.682.188 0 .306-.043.483-.167l.967-.671h.038v5.161c0 .591.397.973.983.973Zm5.11.002c1.921 0 3.253-.908 3.253-2.25 0-1.03-.774-1.753-1.842-1.938v-.036c.92-.206 1.563-.866 1.563-1.695 0-1.21-1.21-2.081-2.974-2.081-1.758 0-2.973.871-2.973 2.075 0 .845.647 1.495 1.573 1.7v.037c-1.068.185-1.847.904-1.847 1.933C11 15.092 12.321 16 14.247 16Zm0-4.774c-.62 0-1.063-.39-1.063-.95 0-.565.448-.95 1.063-.95.621 0 1.074.385 1.074.95 0 .56-.447.95-1.074.95Zm0 3.443c-.72 0-1.22-.449-1.22-1.066 0-.608.5-1.046 1.22-1.046.727 0 1.227.438 1.227 1.046 0 .617-.5 1.066-1.227 1.066Z"/></svg>
