<svg xmlns="http://www.w3.org/2000/svg" width="24" height="24" fill="currentColor" viewBox="0 0 24 24"><path fill-rule="evenodd" d="M20.2 12a8.2 8.2 0 1 1-16.4 0 8.2 8.2 0 0 1 16.4 0Zm1.8 0c0 5.523-4.477 10-10 10S2 17.523 2 12 6.477 2 12 2s10 4.477 10 10ZM12 9.1a1.8 1.8 0 1 0 0-3.6 1.8 1.8 0 0 0 0 3.6Zm1.4 3.4c0 .385.063.768.185 1.133l1.068 3.18a.9.9 0 0 1-1.706.574L12 14.569l-.948 2.818a.9.9 0 0 1-1.706-.574l.987-2.933a5.1 5.1 0 0 0 .266-1.626v-.53a9.425 9.425 0 0 1-3.128-1.032.9.9 0 0 1 .856-1.584 7.707 7.707 0 0 0 3.672.917 7.707 7.707 0 0 0 3.672-.917.9.9 0 0 1 .856 1.584 9.41 9.41 0 0 1-3.128 1.032v.776Z" clip-rule="evenodd"/></svg>
