<svg xmlns="http://www.w3.org/2000/svg" width="24" height="24" fill="none" viewBox="0 0 24 24">
  <circle cx="12" cy="12" r="12" fill="url(#a)"/>
  <path fill="#fff" fill-rule="evenodd" d="m10.923 14.107.613-.306c.29-.145.638-.145.928 0l.612.306c.028.014.057.027.086.039.51.198 1.093-.034 1.302-.52l.263-.608a.987.987 0 0 1 .71-.568l.677-.14c.03-.007.061-.015.091-.024.525-.16.815-.694.647-1.194l-.21-.627a.913.913 0 0 1 .16-.87l.424-.52a.923.923 0 0 0-.256-1.384l-.585-.353a.942.942 0 0 1-.465-.765l-.027-.658a.9.9 0 0 0-.008-.09c-.074-.52-.577-.884-1.123-.813l-.686.088a1.027 1.027 0 0 1-.872-.302l-.466-.487a1.034 1.034 0 0 0-1.477 0l-.465.487c-.22.231-.547.344-.872.302l-.686-.088a1.05 1.05 0 0 0-.094-.008c-.55-.021-1.015.387-1.037.911l-.028.658a.942.942 0 0 1-.464.765l-.585.352a.92.92 0 0 0-.256 1.384l.423.52c.2.248.261.574.161.871l-.21.627a.909.909 0 0 0-.025.087c-.117.513.225 1.019.763 1.13l.676.14c.32.067.587.28.711.569l.263.609a.93.93 0 0 0 .04.081c.256.465.86.643 1.347.4ZM8.495 15.16a2.833 2.833 0 0 0 1.563.736c.071.011.131.058.156.123l.725 1.897a.181.181 0 0 1 0 .13l-.667 1.746a.338.338 0 0 1-.427.189.332.332 0 0 1-.154-.11l-.874-1.131a.509.509 0 0 0-.14-.142.308.308 0 0 0-.13-.045.55.55 0 0 0-.202.023l-1.434.332a.334.334 0 0 1-.402-.233.302.302 0 0 1 .011-.183l1.277-3.338.092-.241a.202.202 0 0 1 .256-.114.2.2 0 0 1 .093.066c.098.128.184.226.257.294Zm7.626-.222 1.359 3.554a.313.313 0 0 1-.199.406.348.348 0 0 1-.192.01l-1.434-.332a.55.55 0 0 0-.202-.023.308.308 0 0 0-.13.045.509.509 0 0 0-.14.142l-.874 1.13a.344.344 0 0 1-.465.068.319.319 0 0 1-.116-.146l-1.455-3.806a.188.188 0 0 1 .12-.244.21.21 0 0 1 .15.006l.054.022c1.14.39 2.386.03 3.117-.83l.051-.064a.206.206 0 0 1 .28-.042.192.192 0 0 1 .07.088l.006.016Z" clip-rule="evenodd"/>
  <defs>
    <linearGradient id="a" x1="0" x2="24.628" y1="0" y2=".663" gradientUnits="userSpaceOnUse">
      <stop stop-color="#70B2FF"/>
      <stop offset="1" stop-color="#5C9CE6"/>
    </linearGradient>
  </defs>
</svg>
