<svg xmlns="http://www.w3.org/2000/svg" width="24" height="24" fill="currentColor" viewBox="0 0 24 24"><path fill-rule="evenodd" d="M12.725 2.195a2.78 2.78 0 0 0-1.45 0c-.543.146-1.011.51-1.556.934l-.113.088-.092.071c-.309.24-.375.287-.44.32a.98.98 0 0 1-.227.083c-.07.016-.152.022-.543.037l-.115.005-.144.005c-.69.026-1.282.048-1.792.285a2.78 2.78 0 0 0-1.11.932c-.323.461-.447 1.041-.592 1.715l-.03.141-.025.113c-.083.382-.104.46-.132.527a.98.98 0 0 1-.12.21c-.044.058-.102.115-.392.378l-.086.078-.106.097c-.512.462-.952.86-1.19 1.37a2.78 2.78 0 0 0-.252 1.427c.05.56.327 1.085.65 1.694l.067.128.054.102c.182.346.217.42.238.489a.98.98 0 0 1 .042.239c.004.072-.004.153-.057.54l-.015.115-.02.142c-.094.683-.175 1.271-.03 1.815.125.475.376.908.724 1.255.398.397.948.62 1.587.88l.133.055.107.044c.362.148.436.181.497.22a.98.98 0 0 1 .186.157c.049.053.095.12.304.45l.061.098.077.122c.367.584.682 1.086 1.142 1.41a2.78 2.78 0 0 0 1.363.496c.56.048 1.125-.134 1.781-.346l.137-.044.11-.035c.373-.12.451-.141.523-.15a.98.98 0 0 1 .242 0c.072.009.15.03.523.15l.11.035.137.044c.656.212 1.221.394 1.781.346a2.78 2.78 0 0 0 1.363-.496c.46-.324.775-.826 1.142-1.41l.077-.122.061-.098c.209-.33.255-.397.304-.45a.981.981 0 0 1 .186-.156c.06-.04.135-.073.497-.221l.107-.044.133-.055c.639-.26 1.189-.483 1.587-.88a2.78 2.78 0 0 0 .725-1.255c.144-.544.063-1.132-.031-1.815l-.02-.142-.015-.115c-.053-.387-.06-.468-.057-.54a.98.98 0 0 1 .042-.24c.021-.068.056-.142.238-.488l.054-.102.067-.128c.323-.61.6-1.134.65-1.694a2.78 2.78 0 0 0-.252-1.428c-.238-.509-.678-.907-1.19-1.37l-.106-.096-.086-.078c-.29-.263-.348-.32-.391-.377a.98.98 0 0 1-.121-.21c-.028-.067-.05-.146-.132-.528l-.024-.113-.03-.14c-.146-.675-.27-1.255-.592-1.716a2.78 2.78 0 0 0-1.11-.932c-.51-.237-1.104-.259-1.793-.285l-.144-.005-.115-.005c-.391-.015-.472-.021-.543-.037a.98.98 0 0 1-.228-.083c-.064-.033-.13-.08-.44-.32l-.09-.07-.114-.09c-.545-.422-1.013-.787-1.556-.933Zm-.98 1.738a.98.98 0 0 1 .51 0c.148.04.312.145 1.036.707l.092.07.047.037c.237.184.442.343.675.463.205.105.422.184.647.235.255.059.515.068.815.08l.059.002.116.005c.916.035 1.11.06 1.248.124a.98.98 0 0 1 .391.328c.087.125.145.312.34 1.208l.024.113.012.058c.064.293.118.547.22.788.09.213.206.413.345.597.158.208.35.383.572.584l.044.04.086.078c.68.616.812.76.877.897a.98.98 0 0 1 .088.504c-.013.151-.089.331-.516 1.143l-.054.102-.028.053c-.14.265-.261.495-.338.745-.068.22-.108.448-.12.678-.013.261.022.519.063.816l.008.059.016.115c.124.908.134 1.103.094 1.25a.98.98 0 0 1-.255.443c-.108.108-.282.197-1.13.544l-.108.043-.055.023c-.278.113-.518.211-.738.353a2.78 2.78 0 0 0-.527.443c-.179.191-.317.411-.477.665l-.031.05-.062.098c-.489.776-.607.932-.732 1.02a.98.98 0 0 1-.48.174c-.152.013-.342-.03-1.215-.31l-.11-.035-.057-.019c-.286-.091-.533-.17-.793-.203a2.782 2.782 0 0 0-.688 0c-.26.032-.507.112-.793.203l-.056.019-.11.035c-.874.28-1.064.323-1.216.31a.98.98 0 0 1-.48-.175c-.125-.087-.243-.243-.732-1.018l-.062-.099-.031-.05c-.16-.254-.298-.474-.477-.665a2.78 2.78 0 0 0-.527-.443c-.22-.142-.46-.24-.738-.353l-.055-.023-.107-.043c-.85-.347-1.023-.436-1.13-.544a.98.98 0 0 1-.256-.443c-.04-.147-.03-.342.094-1.25l.016-.115.008-.06c.04-.296.076-.554.063-.815a2.779 2.779 0 0 0-.12-.678c-.077-.25-.198-.48-.338-.745l-.028-.053-.054-.102c-.427-.812-.503-.992-.516-1.143a.98.98 0 0 1 .089-.504c.064-.138.197-.28.876-.897l.086-.078.044-.04c.222-.201.415-.376.572-.584a2.78 2.78 0 0 0 .345-.597c.102-.24.156-.495.22-.788l.012-.058.025-.113c.194-.896.252-1.083.339-1.208a.98.98 0 0 1 .391-.328c.138-.064.332-.089 1.248-.124l.116-.005.06-.002c.3-.012.559-.021.814-.08a2.78 2.78 0 0 0 .647-.235c.233-.12.438-.279.675-.463l.047-.036.091-.071c.725-.562.89-.668 1.037-.707ZM12.9 8.9a.9.9 0 0 0-1.8 0v2.2H8.9a.9.9 0 1 0 0 1.8h2.2v2.2a.9.9 0 0 0 1.8 0v-2.2h2.2a.9.9 0 0 0 0-1.8h-2.2V8.9Z" clip-rule="evenodd"/></svg>
