<svg fill="none" height="24" viewBox="0 0 24 24" width="24" xmlns="http://www.w3.org/2000/svg"><g fill="currentColor"><path d="m13 13v3c0 .5523-.4477 1-1 1s-1-.4477-1-1v-3h-2.99999c-.55229 0-1-.4477-1-1s.44771-1 1-1h2.99999v-3.00002c0-.55229.4477-1 1-1s1 .44771 1 1v3.00002h3c.5523 0 1 .4477 1 1s-.4477 1-1 1z"/><path clip-rule="evenodd" d="m10.069 2.28837c.6253-.12369 1.271-.18839 1.931-.18839s1.3057.0647 1.931.18839c.4876.09645.8047.56993.7082 1.05754-.0964.48761-.5699.8047-1.0575.70824-.5108-.10105-1.0396-.15417-1.5817-.15417s-1.0708.05312-1.5817.15417c-.48759.09646-.96107-.22063-1.05752-.70824-.09646-.48761.22063-.96109.70822-1.05754zm-2.32164 1.72682c.27652.41304.16585.97203-.24719 1.24855-.44177.29577-.85298.63392-1.22773 1.00867s-.7129.78595-1.00866 1.22773c-.27653.41304-.83552.52371-1.24856.24719s-.52371-.83552-.24719-1.24856c.36132-.5397.77422-1.04175 1.23162-1.49915s.95945-.8703 1.49915-1.23162c.41304-.27652.97204-.16585 1.24856.24719zm8.50534 0c.2765-.41304.8355-.52371 1.2485-.24719.5397.36132 1.0418.77422 1.4992 1.23162s.8703.95945 1.2316 1.49915c.2765.41304.1658.97204-.2472 1.24856s-.972.16585-1.2486-.24719c-.2957-.44178-.6339-.85298-1.0086-1.22773-.3748-.37475-.786-.7129-1.2278-1.00866-.413-.27653-.5237-.83552-.2471-1.24856zm4.4014 5.34556c.4876-.09646.9611.22063 1.0575.70825.1237.6252.1884 1.271.1884 1.931s-.0647 1.3057-.1884 1.931c-.0964.4876-.5699.8047-1.0575.7082s-.8047-.5699-.7083-1.0575c.1011-.5109.1542-1.0396.1542-1.5817s-.0531-1.0709-.1542-1.5817c-.0964-.48762.2207-.9611.7083-1.05755zm-17.30816 0c.48761.09645.8047.56993.70824 1.05755-.10105.5108-.15417 1.0396-.15417 1.5817s.05312 1.0708.15417 1.5817c.09646.4876-.22063.961-.70824 1.0575s-.96109-.2206-1.05754-.7082c-.12369-.6253-.18839-1.271-.18839-1.931s.0647-1.3058.18839-1.931c.09645-.48762.56993-.80471 1.05754-.70825zm.66928 6.89185c.41304-.2765.97203-.1658 1.24856.2472.29576.4418.63391.853 1.00866 1.2277.37475.3748.78596.7129 1.22773 1.0087.41304.2765.52371.8355.24719 1.2486-.27652.413-.83552.5237-1.24856.2472-.5397-.3614-1.04175-.7743-1.49915-1.2317s-.8703-.9594-1.23162-1.4991c-.27652-.4131-.16585-.9721.24719-1.2486zm15.96958 0c.413.2765.5237.8355.2472 1.2486-.3613.5397-.7742 1.0417-1.2316 1.4991s-.9595.8703-1.4992 1.2317c-.413.2765-.972.1658-1.2485-.2472-.2766-.4131-.1659-.9721.2471-1.2486.4418-.2958.853-.6339 1.2278-1.0087.3747-.3747.7129-.7859 1.0086-1.2277.2766-.413.8356-.5237 1.2486-.2472zm-10.62402 4.4014c.09645-.4876.56993-.8047 1.05752-.7082.5109.1011 1.0396.1542 1.5817.1542s1.0709-.0531 1.5817-.1542c.4876-.0965.9611.2206 1.0575.7082.0965.4877-.2206.9611-.7082 1.0576-.6253.1237-1.271.1884-1.931.1884s-1.3057-.0647-1.931-.1884c-.48759-.0965-.80468-.5699-.70822-1.0576z" fill-rule="evenodd"/></g></svg>
