<svg xmlns="http://www.w3.org/2000/svg" width="24" height="24" fill="currentColor" viewBox="0 0 24 24"><path fill-rule="evenodd" d="M4.306 7.529c-.305.599-.305 1.383-.305 2.951v.02H2.5a1.5 1.5 0 0 0 0 3H4v.02c0 1.568 0 2.352.306 2.951a2.8 2.8 0 0 0 1.224 1.224C6.129 18 6.913 18 8.48 18h7.04c1.569 0 2.353 0 2.952-.305a2.8 2.8 0 0 0 1.224-1.224C20 15.872 20 15.088 20 13.52v-.02h1.503a1.5 1.5 0 0 0 0-3H20v-.02c0-1.568 0-2.352-.305-2.951a2.8 2.8 0 0 0-1.224-1.224C17.873 6 17.089 6 15.521 6H8.48c-1.568 0-2.352 0-2.951.305A2.8 2.8 0 0 0 4.306 7.53ZM13 9a1 1 0 1 0-2 0v2H9a1 1 0 1 0 0 2h2v2a1 1 0 1 0 2 0v-2h2a1 1 0 1 0 0-2h-2V9Z" clip-rule="evenodd"/></svg>
