<svg xmlns="http://www.w3.org/2000/svg" width="24" height="24" fill="none" viewBox="0 0 24 24"><path fill="currentColor" fill-rule="evenodd" d="M12 7a.9.9 0 0 1 .9.9v3.2h3.2a.9.9 0 0 1 .9.9.9.9 0 0 1-.9.9h-3.2v3.2a.9.9 0 0 1-.9.9.9.9 0 0 1-.9-.9v-3.2H7.9A.9.9 0 0 1 7 12a.9.9 0 0 1 .9-.9h3.2V7.9A.9.9 0 0 1 12 7Z M9.4616 3h5.0768c.9475 0 1.7133 0 2.3337.0507.6393.0522 1.2031.1627 1.7255.4289a4.4004 4.4004 0 0 1 1.9229 1.9228c.2661.5224.3766 1.0862.4289 1.7255C21 7.7483 21 8.5141 21 9.4616v5.0768c0 .9475 0 1.7133-.0506 2.3337-.0523.6393-.1628 1.2031-.4289 1.7255a4.4001 4.4001 0 0 1-1.9229 1.9228c-.5224.2662-1.0862.3767-1.7255.4289C16.2517 21 15.4859 21 14.5384 21H9.4616c-.9475 0-1.7132 0-2.3337-.0507-.6392-.0522-1.203-.1627-1.7254-.4289a4.3997 4.3997 0 0 1-1.9229-1.9228c-.2662-.5224-.3767-1.0862-.4289-1.7255C3 16.2517 3 15.4859 3 14.5384V9.4616c0-.9475 0-1.7133.0507-2.3337.0522-.6393.1627-1.203.4289-1.7255a4.4 4.4 0 0 1 1.9229-1.9228c.5223-.2662 1.0862-.3767 1.7255-.429C7.7484 3 8.514 3 9.4616 3Zm-2.187 1.8447c-.528.0431-.8286.1234-1.055.2387a2.6 2.6 0 0 0-1.1362 1.1362c-.1153.2264-.1955.527-.2387 1.0549C4.8007 7.813 4.8 8.5051 4.8 9.5v5c0 .9949.0007 1.687.0447 2.2255.0432.528.1234.8286.2387 1.0549a2.6 2.6 0 0 0 1.1363 1.1362c.2263.1153.5269.1956 1.0548.2387.5385.044 1.2306.0447 2.2255.0447h5c.995 0 1.6871-.0007 2.2255-.0447.528-.0431.8286-.1234 1.0549-.2387a2.5998 2.5998 0 0 0 1.1362-1.1362c.1154-.2263.1956-.5269.2387-1.0549.044-.5385.0447-1.2306.0447-2.2255v-5c0-.995-.0007-1.687-.0447-2.2255-.0431-.528-.1233-.8285-.2387-1.0549a2.5997 2.5997 0 0 0-1.1362-1.1362c-.2263-.1153-.5269-.1956-1.0549-.2387C16.1871 4.8007 15.495 4.8 14.5 4.8h-5c-.995 0-1.687.0007-2.2255.0447Z" clip-rule="evenodd"/></svg>
