<svg xmlns="http://www.w3.org/2000/svg" width="24" height="24" fill="currentColor" viewBox="0 0 24 24"><path fill-rule="evenodd" d="M22 7a5 5 0 1 1-10 0 5 5 0 0 1 10 0Zm-2.258-2.24a.9.9 0 0 0-1.273 0l-2.08 2.567-.848-.875a.9.9 0 1 0-1.273 1.273l1.485 1.511a.9.9 0 0 0 1.273 0l2.716-3.203a.9.9 0 0 0 0-1.273Z M5.663 9.63A2.86 2.86 0 0 1 7.6 8.9h1.763a.9.9 0 1 0 0-1.8H7.6a4.658 4.658 0 0 0-3.154 1.204C3.585 9.094 3.1 10.37 3.1 11.5c0 1.13.485 2.407 1.346 3.197a4.596 4.596 0 0 0 2.104 1.088l.456 2.16a2.364 2.364 0 0 0 1.02 1.54 2.497 2.497 0 0 0 1.823.378 2.497 2.497 0 0 0 1.583-.979 2.363 2.363 0 0 0 .429-1.812l-.007-.04-.307-1.132h1.509a3.1 3.1 0 0 1 1.386.327l2.673 1.337a2.61 2.61 0 0 0 1.285.336 2.57 2.57 0 0 0 1.74-.666c.458-.42.76-1.02.76-1.701v-1.435a.9.9 0 0 0-1.8 0v1.435c0 .13-.056.263-.177.374a.77.77 0 0 1-.523.193.808.808 0 0 1-.405-.107l-.026-.014-2.722-1.361a4.899 4.899 0 0 0-2.191-.518H7.6a2.86 2.86 0 0 1-1.937-.73c-.442-.405-.763-1.176-.763-1.87 0-.694.321-1.465.763-1.87Zm2.755 6.289h1.27l.405 1.496a.566.566 0 0 1-.112.405.697.697 0 0 1-.445.27.697.697 0 0 1-.51-.102.563.563 0 0 1-.25-.372l-.003-.015-.355-1.682Z" clip-rule="evenodd"/></svg>
