<?xml version="1.0" encoding="UTF-8"?>
<svg width="24px" height="24px" viewBox="0 0 24 24" version="1.1" xmlns="http://www.w3.org/2000/svg" xmlns:xlink="http://www.w3.org/1999/xlink">
    <!-- Generator: Sketch 58 (84663) - https://sketch.com -->
    <title>advertising_24</title>
    <desc>Created with Sketch.</desc>
    <g id="Activation-·-Console-Style" stroke="none" stroke-width="1" fill="none" fill-rule="evenodd">
        <g id="advertising_24">
            <rect x="0" y="0" width="24" height="24"></rect>
            <path d="M6,15 C3.790861,15 2,13.209139 2,11 C2,8.790861 3.790861,7 6,7 L12.3590287,7 C12.5819084,7 12.6627299,7.0232064 12.7442114,7.06678318 C12.8256929,7.11035995 12.8896401,7.17430709 12.9332168,7.25578857 C12.9767936,7.33727006 13,7.41809162 13,7.6409713 L13,14.3590287 C13,14.5819084 12.9767936,14.6627299 12.9332168,14.7442114 C12.8896401,14.8256929 12.8256929,14.8896401 12.7442114,14.9332168 C12.6627299,14.9767936 12.5819084,15 12.3590287,15 L10,15 C10,15.7827117 10.3026894,16.6201524 10.6523319,17.0397234 C11.182678,17.6761387 11.0966919,18.6219858 10.4602766,19.1523319 C9.82386125,19.682678 8.8780142,19.5966919 8.34766808,18.9602766 C7.54837444,18.0011242 7,16.4839549 7,15 L7,15 L6,15 Z M20.8051783,4.5240276 C20.9322119,4.71457792 21,4.93846684 21,5.16747983 L21,16.8325202 C21,17.4731705 20.4806503,17.9925202 19.84,17.9925202 C19.610987,17.9925202 19.3870981,17.9247321 19.1965478,17.7976985 L15.3157678,15.2105119 C15.1895551,15.1263701 15.1490321,15.0898641 15.1098836,15.0425119 C15.0707351,14.9951596 15.0432642,14.9438298 15.0255804,14.88499 C15.0114334,14.8379181 15.0035501,14.7939648 15.0009627,14.7006017 L15,7.37950564 C15,7.22781693 15.0078966,7.17384986 15.0255804,7.11501003 C15.0432642,7.0561702 15.0707351,7.00484036 15.1098836,6.95748811 C15.1490321,6.91013585 15.1895551,6.8736299 15.3157678,6.78948815 L19.1965478,4.20230149 C19.7296011,3.84693263 20.4498095,3.99097432 20.8051783,4.5240276 Z" id="↳-Icon-Color" fill="currentColor" fill-rule="nonzero"></path>
        </g>
    </g>
</svg>
