<svg xmlns="http://www.w3.org/2000/svg" width="24" height="24" fill="currentColor" viewBox="0 0 24 24"><path d="M16.238 4.1H7.762c-.808 0-1.469 0-2.006.044-.556.045-1.058.142-1.527.381a3.9 3.9 0 0 0-1.704 1.704c-.239.47-.336.971-.381 1.527C2.1 8.293 2.1 8.954 2.1 9.762v1.476c0 .808 0 1.469.044 2.006.045.556.142 1.058.381 1.527a3.9 3.9 0 0 0 1.704 1.704c.285.145.583.238.899.299a.9.9 0 1 0 .34-1.768 1.551 1.551 0 0 1-.421-.135 2.1 2.1 0 0 1-.918-.918c-.088-.172-.155-.411-.191-.856C3.9 12.642 3.9 12.055 3.9 11.2V9.8c0-.855 0-1.442.038-1.897.036-.445.103-.684.19-.856a2.1 2.1 0 0 1 .919-.918c.172-.088.411-.155.856-.191C6.358 5.9 6.945 5.9 7.8 5.9h8.4c.855 0 1.442 0 1.897.038.445.036.683.103.856.19a2.1 2.1 0 0 1 .918.919c.088.172.155.411.191.856.037.455.038 1.042.038 1.897v1.4c0 .855 0 1.442-.038 1.897-.036.445-.103.684-.19.856a2.1 2.1 0 0 1-.919.918 1.56 1.56 0 0 1-.425.136.9.9 0 0 0 .337 1.768c.319-.06.618-.154.905-.3a3.9 3.9 0 0 0 1.705-1.705c.239-.468.336-.97.381-1.526.044-.537.044-1.198.044-2.006V9.762c0-.808 0-1.469-.044-2.006-.045-.556-.142-1.058-.381-1.527a3.9 3.9 0 0 0-1.705-1.704c-.468-.239-.97-.336-1.526-.381-.537-.044-1.198-.044-2.006-.044Z"/><path d="M13.06 14.06a1.5 1.5 0 0 0-2.12 0l-4.233 4.233c-.63.63-.184 1.707.707 1.707h9.172c.89 0 1.337-1.077.707-1.707L13.06 14.06Z"/></svg>
