<svg xmlns="http://www.w3.org/2000/svg" width="24" height="24" fill="currentColor" viewBox="0 0 24 24"><path fill-rule="evenodd" d="M9.1 13.4a.9.9 0 0 1 .9-.9h4a.9.9 0 1 1 0 1.8h-4a.9.9 0 0 1-.9-.9Z" clip-rule="evenodd"/><path fill-rule="evenodd" d="M5 3.1A2.9 2.9 0 0 0 2.1 6v2c0 1.113.93 1.9 2 1.9V18A2.9 2.9 0 0 0 7 20.9h10a2.9 2.9 0 0 0 2.9-2.9V9.9c1.07 0 2-.787 2-1.9V6A2.9 2.9 0 0 0 19 3.1H5Zm0 1.8A1.1 1.1 0 0 0 3.9 6v2a.1.1 0 0 0 .1.1h16a.1.1 0 0 0 .1-.1V6A1.1 1.1 0 0 0 19 4.9H5Zm2 14.2A1.1 1.1 0 0 1 5.9 18V9.9h12.2V18a1.1 1.1 0 0 1-1.1 1.1H7Z" clip-rule="evenodd"/><path fill-rule="evenodd" d="M10 12.5a.9.9 0 1 0 0 1.8h4a.9.9 0 0 0 0-1.8h-4Z" clip-rule="evenodd"/></svg>
