<svg xmlns="http://www.w3.org/2000/svg" width="24" height="24" fill="currentColor" viewBox="0 0 24 24"><path fill-rule="evenodd" d="M4.25 18.25c0 .232 0 .348.013.446a1.5 1.5 0 0 0 1.291 1.291C5.652 20 5.768 20 6 20s.348 0 .446-.013a1.5 1.5 0 0 0 1.291-1.291c.013-.098.013-.214.013-.446v-.35h8.5v.35c0 .232 0 .348.013.446a1.5 1.5 0 0 0 1.291 1.291c.098.013.214.013.446.013s.348 0 .446-.013a1.5 1.5 0 0 0 1.291-1.291c.013-.098.013-.214.013-.446v-.463c.193-.045.382-.109.567-.203a2.9 2.9 0 0 0 1.267-1.267c.184-.362.254-.741.286-1.13.03-.37.03-.822.03-1.352v-2.877c0-.19 0-.355-.017-.505a2.65 2.65 0 0 0-1.986-2.273c-.006-.455-.027-.813-.091-1.136a4.9 4.9 0 0 0-3.85-3.85c-.475-.094-1.023-.094-1.848-.094H9.892c-.825 0-1.373 0-1.848.094a4.9 4.9 0 0 0-3.85 3.85c-.064.323-.085.68-.091 1.136a2.65 2.65 0 0 0-1.986 2.273c-.017.15-.017.315-.017.505v2.877c0 .53 0 .981.03 1.352.032.389.102.768.286 1.13a2.9 2.9 0 0 0 1.267 1.267c.185.094.374.158.567.203v.463Zm.405-8.345C4.69 9.901 4.743 9.9 5 9.9s.31.001.345.005a.85.85 0 0 1 .75.75c.004.035.005.088.005.345v1.614c0 .056 0 .143.006.223a1.15 1.15 0 0 0 .622.937c.175.09.337.112.435.12.08.006.167.006.223.006h9.228c.056 0 .143 0 .223-.006a1.15 1.15 0 0 0 .937-.621 1.15 1.15 0 0 0 .12-.435c.006-.08.006-.168.006-.224V11c0-.257.001-.31.005-.345a.85.85 0 0 1 .75-.75c.035-.004.088-.005.345-.005s.31.001.345.005a.85.85 0 0 1 .75.75c.004.035.005.088.005.345v2.8c0 .575 0 .952-.024 1.24-.023.278-.062.394-.096.46a1.1 1.1 0 0 1-.48.48c-.067.034-.182.073-.46.096-.288.023-.665.024-1.24.024H6.2c-.575 0-.952 0-1.24-.024-.278-.023-.393-.062-.46-.096a1.1 1.1 0 0 1-.48-.48c-.034-.066-.073-.182-.096-.46A17.426 17.426 0 0 1 3.9 13.8V11c0-.257.001-.31.005-.345a.85.85 0 0 1 .75-.75Zm13.386-2.51a3.1 3.1 0 0 0-2.436-2.435c-.278-.056-.633-.06-1.605-.06h-4c-.972 0-1.327.004-1.605.06A3.1 3.1 0 0 0 5.96 7.395c-.036.18-.05.393-.056.787a2.65 2.65 0 0 1 1.98 2.271c.016.15.016.315.016.505V12.1h8.2v-1.142c0-.19 0-.355.017-.505a2.65 2.65 0 0 1 1.98-2.271c-.006-.394-.02-.607-.056-.787Z" clip-rule="evenodd"/></svg>
