<svg xmlns="http://www.w3.org/2000/svg" width="24" height="24" fill="currentColor" viewBox="0 0 24 24"><path fill-rule="evenodd" d="M15.726 5.845C15.187 5.8 14.495 5.8 13.5 5.8H3.9a.9.9 0 1 1 0-1.8h9.638c.948 0 1.714 0 2.334.05.64.053 1.203.163 1.726.43a4.4 4.4 0 0 1 1.922 1.922c.267.523.377 1.087.43 1.726.05.62.05 1.386.05 2.334V20.1a.9.9 0 1 1-1.8 0v-9.6c0-.995 0-1.687-.045-2.225-.043-.528-.123-.829-.238-1.055a2.6 2.6 0 0 0-1.137-1.137c-.226-.115-.527-.195-1.055-.238Z M8.9 8.997a.9.9 0 0 0 0 1.8h3.028l-4.665 4.667a.9.9 0 0 0 1.273 1.272L13.2 12.07v3.03a.9.9 0 0 0 1.8 0V9.908a.91.91 0 0 0-.232-.615.904.904 0 0 0-.668-.296H8.9Z"/></svg>
