<svg xmlns="http://www.w3.org/2000/svg" width="24" height="24" fill="currentColor" viewBox="0 0 24 24"><path fill-rule="evenodd" d="M19.1 6a.9.9 0 0 1 .9.9v3.935c0 .53 0 .981-.03 1.352-.032.39-.102.768-.286 1.13a2.9 2.9 0 0 1-1.267 1.267c-.362.184-.74.254-1.13.286-.37.03-.822.03-1.352.03H7.122l1.604 1.554a.9.9 0 1 1-1.252 1.292l-3.2-3.1a.9.9 0 0 1 0-1.292l3.2-3.1a.9.9 0 1 1 1.252 1.292L7.122 13.1H15.9c.575 0 .952 0 1.24-.024.278-.023.393-.062.46-.096a1.1 1.1 0 0 0 .48-.48c.034-.066.073-.182.096-.46.023-.288.024-.665.024-1.24V6.9a.9.9 0 0 1 .9-.9Z" clip-rule="evenodd"/></svg>
