<svg fill="none" height="24" viewBox="0 0 24 24" width="24" xmlns="http://www.w3.org/2000/svg"><path d="m12.4681 4.25911c-.3244.31989-.3549.82536-.0889 1.18002l.0799.09274 5.4909 5.56813h-14.05c-.49706 0-.9.4029-.9.9 0 .4588.34334.8375.78711.893l.11289.007h14.05l-5.4909 5.5681c-.3199.3245-.3431.8303-.0722 1.1812l.0812.0916c.3245.3199.8304.3431 1.1812.0722l.0916-.0812 7-7.1c.3167-.3212.3431-.821.0792-1.172l-.0792-.0918-7-7.09997c-.349-.35395-.9188-.35799-1.2728-.00902z" fill="currentColor"/></svg>
