<svg xmlns="http://www.w3.org/2000/svg" width="24" height="24" fill="currentColor" viewBox="0 0 24 24"><g clip-path="url(#a)"><path d="M13.877 3.725a2.15 2.15 0 0 1 1.997 2.145v2.117l.021.005a9.904 9.904 0 0 1 7.826 10.721c-.083.811-1.115 1.103-1.61.455l-.187-.237a9.083 9.083 0 0 0-5.836-3.265l-.213-.026-.001 2.494a2.15 2.15 0 0 1-3.476 1.692l-7.824-6.132a2.149 2.149 0 0 1 0-3.384l7.824-6.132a2.15 2.15 0 0 1 1.326-.458l.153.005Zm-.153 1.795a.35.35 0 0 0-.216.075l-7.824 6.132a.35.35 0 0 0 0 .55l7.824 6.133a.35.35 0 0 0 .566-.276v-3.447a.9.9 0 0 1 .916-.9l.233.004.342.016a10.88 10.88 0 0 1 6.118 2.366l.175.144-.024-.135a8.103 8.103 0 0 0-6.968-6.537.9.9 0 0 1-.791-.893l-.001-2.882a.35.35 0 0 0-.35-.35Z"/><path fill-rule="evenodd" d="M8.71 4.067a.9.9 0 0 1-.157 1.263L2.95 9.694a2.887 2.887 0 0 0 0 4.611l.006.005 5.597 4.36a.9.9 0 1 1-1.106 1.42l-5.594-4.357a4.687 4.687 0 0 1 0-7.467L7.447 3.91a.9.9 0 0 1 1.263.157Z" clip-rule="evenodd"/></g><defs><clipPath id="a"><path d="M0 0h24v24H0z"/></clipPath></defs></svg>
