<svg xmlns="http://www.w3.org/2000/svg" width="24" height="24" fill="currentColor" viewBox="0 0 24 24"><path fill-rule="evenodd" d="M22 14.633V9.367c0-.392 0-.738-.023-1.026-.025-.305-.081-.622-.239-.93a2.4 2.4 0 0 0-1.048-1.05 2.44 2.44 0 0 0-.931-.238c-.288-.023-.634-.023-1.026-.023H17.9a.9.9 0 1 0 0 1.8h.8c.435 0 .707 0 .912.017.194.016.248.042.26.048a.6.6 0 0 1 .263.263c.006.012.032.066.047.26.017.205.018.477.018.912v5.2c0 .435 0 .707-.017.912-.016.194-.042.248-.048.26a.6.6 0 0 1-.263.263c-.012.006-.066.032-.26.047-.205.017-.477.018-.912.018h-.8a.9.9 0 1 0 0 1.8h.833c.392 0 .738 0 1.026-.023.305-.025.622-.081.93-.239a2.4 2.4 0 0 0 1.05-1.049c.157-.308.213-.625.238-.93.023-.288.023-.634.023-1.026ZM5.3 6.1h-.033c-.392 0-.738 0-1.025.023-.306.025-.623.081-.932.239A2.4 2.4 0 0 0 2.262 7.41a2.431 2.431 0 0 0-.239.931C2 8.63 2 8.975 2 9.366v5.267c0 .392 0 .738.023 1.025.025.306.081.623.239.932a2.4 2.4 0 0 0 1.048 1.048c.309.157.626.214.932.238.287.024.633.024 1.025.024H6.1a.9.9 0 0 0 0-1.8h-.8c-.435 0-.707 0-.912-.018-.194-.015-.248-.041-.26-.047a.6.6 0 0 1-.263-.263c-.006-.012-.032-.066-.048-.26A12.65 12.65 0 0 1 3.8 14.6V9.4c0-.435 0-.707.017-.912.016-.194.042-.248.048-.26a.6.6 0 0 1 .263-.263c.012-.006.066-.032.26-.048.205-.016.477-.017.912-.017h.801a.9.9 0 0 0 0-1.8H5.3Zm9.64.179a.9.9 0 0 0 .088-1.27l-2.35-2.699a.9.9 0 0 0-1.339-.02l-2.5 2.698a.9.9 0 1 0 1.321 1.224l.94-1.015V9.1a.9.9 0 1 0 1.8 0V5.305l.77.886a.9.9 0 0 0 1.27.088Zm0 11.442a.9.9 0 0 1 .088 1.27l-2.35 2.699a.9.9 0 0 1-1.357 0l-2.35-2.699a.9.9 0 0 1 1.357-1.182l.772.886V14.9a.9.9 0 0 1 1.8 0v3.795l.77-.886a.9.9 0 0 1 1.27-.088Z" clip-rule="evenodd"/></svg>
