<svg width="24" height="24" viewBox="0 0 24 24" fill="none" xmlns="http://www.w3.org/2000/svg">
<path d="M19.7409 12.4681C19.421 12.1437 18.9155 12.1132 18.5609 12.3792L18.4681 12.4591L12.9 17.95L12.9 3.9C12.9 3.40294 12.4971 3 12 3C11.5412 3 11.1625 3.34334 11.107 3.78711L11.1 3.9V17.95L5.53187 12.4591C5.20741 12.1392 4.70155 12.116 4.3507 12.3869L4.25911 12.4681C3.93922 12.7926 3.91595 13.2985 4.18694 13.6493L4.26813 13.7409L11.3681 20.7409C11.6893 21.0576 12.1891 21.084 12.5401 20.8201L12.6319 20.7409L19.7319 13.7409C20.0858 13.3919 20.0899 12.8221 19.7409 12.4681Z" fill="currentColor"/>
</svg>
