<svg xmlns="http://www.w3.org/2000/svg" width="24" height="24" fill="currentColor" viewBox="0 0 24 24"><path fill-rule="evenodd" d="M2.9 3a.9.9 0 0 1 .9.9v16.2a.9.9 0 1 1-1.8 0V3.9a.9.9 0 0 1 .9-.9Zm18.2 0a.9.9 0 0 1 .9.9v16.2a.9.9 0 0 1-1.8 0V3.9a.9.9 0 0 1 .9-.9ZM9.736 9.164a.9.9 0 0 1 0 1.273l-.663.663h5.854l-.663-.663a.9.9 0 0 1 1.272-1.273l2.2 2.2a.9.9 0 0 1 0 1.273l-2.2 2.2a.9.9 0 1 1-1.272-1.273l.663-.664H9.073l.663.664a.9.9 0 1 1-1.272 1.272l-2.2-2.2a.9.9 0 0 1 0-1.272l2.2-2.2a.9.9 0 0 1 1.272 0Z" clip-rule="evenodd"/></svg>
