<svg xmlns="http://www.w3.org/2000/svg" width="24" height="24" fill="currentColor" viewBox="0 0 24 24"><path fill-rule="evenodd" d="M15.538 4H8.462c-.948 0-1.714 0-2.334.05-.64.053-1.203.163-1.726.43A4.4 4.4 0 0 0 2.48 6.402c-.267.523-.377 1.087-.43 1.726C2 8.748 2 9.514 2 10.462v3.076c0 .948 0 1.714.05 2.334.053.64.163 1.203.43 1.726a4.4 4.4 0 0 0 1.922 1.922c.523.267 1.087.377 1.726.43.62.05 1.386.05 2.334.05h7.076c.948 0 1.714 0 2.334-.05.64-.053 1.203-.163 1.726-.43a4.4 4.4 0 0 0 1.922-1.922c.267-.523.377-1.087.43-1.726.05-.62.05-1.386.05-2.334v-3.076c0-.948 0-1.714-.05-2.334-.053-.64-.163-1.203-.43-1.726a4.4 4.4 0 0 0-1.922-1.922c-.523-.267-1.087-.377-1.726-.43C17.252 4 16.486 4 15.538 4ZM12 16a.9.9 0 0 1-.9-.9v-3.968l-1.052 1.092a.9.9 0 0 1-1.296-1.248l2.593-2.693a.911.911 0 0 1 .237-.18.896.896 0 0 1 .824-.007l.026.014a.898.898 0 0 1 .222.172l2.594 2.694a.9.9 0 0 1-1.296 1.248L12.9 11.132V15.1a.9.9 0 0 1-.9.9Z" clip-rule="evenodd"/></svg>
