<svg xmlns="http://www.w3.org/2000/svg" width="24" height="24" fill="currentColor" viewBox="0 0 24 24"><path d="M4.8 18.6a.6.6 0 0 0 .6.6h1.7a.9.9 0 1 1 0 1.8H5.4A2.4 2.4 0 0 1 3 18.6v-1.698a.9.9 0 0 1 1.8 0V18.6Zm13.8.6a.6.6 0 0 0 .6-.6v-1.698a.9.9 0 0 1 1.8 0V18.6a2.4 2.4 0 0 1-2.4 2.4h-1.701a.9.9 0 0 1 0-1.8h1.7Zm.598-13.8a.6.6 0 0 0-.6-.6H16.9a.9.9 0 1 1 0-1.8h1.698a2.4 2.4 0 0 1 2.4 2.4v1.7a.9.9 0 1 1-1.8 0V5.4ZM5.4 4.8a.6.6 0 0 0-.6.6v1.698a.9.9 0 0 1-1.8 0V5.4A2.4 2.4 0 0 1 5.4 3h1.7a.9.9 0 1 1 0 1.8H5.4Zm2.1 4.227a.9.9 0 0 0-1.273-.026l-2.45 2.35a.9.9 0 0 0 0 1.299L6.227 15a.9.9 0 1 0 1.246-1.3l-.835-.8H10.1a.9.9 0 0 0 0-1.8H6.638l.835-.8A.9.9 0 0 0 7.5 9.027Zm9 0a.9.9 0 0 1 1.273-.026l2.45 2.35a.9.9 0 0 1 0 1.299L17.773 15a.9.9 0 1 1-1.246-1.3l.834-.8H13.9a.9.9 0 0 1 0-1.8h3.461l-.834-.8a.9.9 0 0 1-.027-1.273Z"/></svg>
