<svg xmlns="http://www.w3.org/2000/svg" width="24" height="24" fill="currentColor" viewBox="0 0 24 24"><path fill-rule="evenodd" d="M20.465 4.4c-.489-.26-.974-.4-2.31-.4H5.844c-1.336 0-1.821.14-2.31.4A2.726 2.726 0 0 0 2.4 5.536c-.261.488-.4.973-.4 2.309v8.31c0 1.336.14 1.821.4 2.31.262.49.646.873 1.135 1.134.489.262.974.401 2.31.401h12.31c1.336 0 1.821-.14 2.31-.4a2.726 2.726 0 0 0 1.134-1.135c.262-.489.401-.974.401-2.31v-8.31c0-1.336-.14-1.821-.4-2.31A2.726 2.726 0 0 0 20.464 4.4Zm-11.81 5.728 2.97-2.978c.207-.2.543-.2.75 0l2.97 2.978c.33.318.077.872-.376.872H13v4.979c0 .564-.442 1.021-1 1.021s-1-.457-1-1.021V11H9.031c-.44 0-.715-.545-.375-.872Z" clip-rule="evenodd"/></svg>
