<svg xmlns="http://www.w3.org/2000/svg" width="24" height="24" fill="currentColor" viewBox="0 0 24 24"><path d="M5.35 9.873a.9.9 0 0 1 .932-.868c.981.035 1.67.173 2.499.445a.9.9 0 1 1-.562 1.71 6.514 6.514 0 0 0-2.001-.356.9.9 0 0 1-.867-.931Zm.932 3.132a.9.9 0 0 0-.064 1.8 6.514 6.514 0 0 1 2.001.355.9.9 0 1 0 .562-1.71 8.297 8.297 0 0 0-2.499-.445Z"/><path fill-rule="evenodd" d="M12 5.558C9.972 4.351 7.827 3.928 5.04 4.01l-.127.003c-.58.016-1.142.03-1.646.3-.425.228-.8.613-1.015 1.045a2.397 2.397 0 0 0-.229.89C2 6.518 2 6.84 2 7.195v8.06c0 .57 0 1.05.03 1.437.03.4.096.792.282 1.159.288.57.685.971 1.251 1.266.375.194.797.262 1.22.296.422.034.955.04 1.603.047h.033c2.015.023 3.518.385 4.954 1.303.16.151.377.243.615.243h.009a.896.896 0 0 0 .515-.15c.75-.501 1.198-.696 2.023-.916a.9.9 0 0 0-.465-1.74c-.44.118-.807.237-1.158.383V7.11c1.668-.995 3.456-1.375 5.995-1.301.794.023.894.047.976.091a.676.676 0 0 1 .254.261c.01.02.032.07.046.24.016.185.017.428.017.827v6.452a.9.9 0 1 0 1.8 0V7.195c0-.356 0-.677-.023-.947a2.397 2.397 0 0 0-.23-.89 2.469 2.469 0 0 0-1.014-1.045c-.504-.27-1.067-.284-1.646-.3l-.128-.003c-2.786-.081-4.93.341-6.959 1.548Zm-.912 1.552C9.42 6.115 7.632 5.735 5.093 5.809c-.794.023-.894.047-.976.091a.676.676 0 0 0-.254.261c-.01.02-.032.07-.047.24-.015.185-.016.428-.016.827v7.993c0 .614 0 1.023.024 1.334.024.306.065.425.094.484.118.233.243.36.475.48.048.025.176.071.534.1.353.028.823.034 1.513.042 1.736.02 3.234.27 4.648.905V7.11Z" clip-rule="evenodd"/><path d="M23.596 19.695a.8.8 0 0 0 0-1.39l-5.387-3.196a.81.81 0 0 0-1.213.695v6.392a.81.81 0 0 0 1.213.695l5.387-3.196Z"/></svg>
