<svg xmlns="http://www.w3.org/2000/svg" width="24" height="24" fill="currentColor" viewBox="0 0 24 24"><path fill-rule="evenodd" d="M9.56 2.746a2.577 2.577 0 0 1 4.879 0l.022.067c.05.147.089.268.121.371.076.239.12.38.212.524l.008.012c.173.272.498.781.498 1.5v.261l.026.013a2.7 2.7 0 0 1 1.18 1.18c.173.34.237.695.266 1.05.022.267.027.577.027.93a2.7 2.7 0 0 1 .907 1.02c.173.34.238.694.267 1.05.027.337.027.746.027 1.22v6.31c0 .475 0 .884-.027 1.221-.03.356-.094.71-.267 1.05a2.7 2.7 0 0 1-1.18 1.18c-.34.174-.694.238-1.05.267-.337.028-.747.028-1.221.028h-4.51c-.474 0-.883 0-1.22-.028-.356-.029-.71-.093-1.05-.267a2.7 2.7 0 0 1-1.18-1.18c-.174-.34-.238-.694-.267-1.05C6 19.138 6 18.73 6 18.255v-6.31c0-.474 0-.884.027-1.22.03-.357.094-.71.267-1.051a2.7 2.7 0 0 1 .906-1.02c0-.352.005-.664.027-.93.03-.356.093-.71.267-1.05a2.7 2.7 0 0 1 1.18-1.18L8.7 5.48v-.26c0-.72.324-1.229.497-1.501l.008-.012c.092-.145.137-.285.212-.524.032-.103.07-.224.12-.371l.024-.067ZM13.33 5.2H10.5c.005-.153.066-.277.223-.525.233-.366.374-.82.464-1.11.02-.067.039-.125.054-.171l.023-.068a.777.777 0 0 1 1.47 0l.024.068c.016.046.034.104.054.17.09.29.23.745.464 1.11.158.248.218.373.223.526h-.17ZM10.63 7a10.79 10.79 0 0 0-.76.02c-.244.02-.334.055-.379.077a.9.9 0 0 0-.393.394c-.023.044-.057.135-.077.38a5.919 5.919 0 0 0-.016.328h5.99a5.812 5.812 0 0 0-.017-.328c-.02-.245-.054-.335-.076-.38a.9.9 0 0 0-.394-.393c-.044-.023-.135-.057-.38-.077A11.22 11.22 0 0 0 13.297 7h-2.665Zm4.7 3.021c-.256-.02-.591-.022-1.11-.022H9.78c-.52 0-.854.001-1.11.022-.244.02-.334.054-.379.077a.9.9 0 0 0-.393.393c-.023.045-.057.135-.077.38-.02.255-.021.59-.021 1.109v.22h1.8a.9.9 0 1 1 0 1.8H7.8v2.2h3.3a.9.9 0 0 1 0 1.8H7.8v.22c0 .518 0 .854.022 1.108.02.245.054.336.076.38a.9.9 0 0 0 .394.394c.044.022.135.056.38.076.254.02.59.022 1.108.022h4.44c.52 0 .854-.001 1.11-.022.244-.02.334-.054.379-.076a.9.9 0 0 0 .393-.394c.023-.044.057-.135.077-.38.02-.255.021-.59.021-1.108v-6.24c0-.52 0-.854-.021-1.11-.02-.244-.054-.335-.077-.38a.9.9 0 0 0-.393-.393c-.045-.022-.135-.056-.38-.076Z" clip-rule="evenodd"/></svg>
