<svg xmlns="http://www.w3.org/2000/svg" width="24" height="24" fill="currentColor" viewBox="0 0 24 24"><path fill-rule="evenodd" d="M16.9 15.933A6.002 6.002 0 0 0 16 4a6 6 0 0 0-.9 11.933V19.1h-2.2a.9.9 0 1 0 0 1.8h6.2a.9.9 0 1 0 0-1.8h-2.2v-3.167ZM20.2 10a4.2 4.2 0 1 1-8.4 0 4.2 4.2 0 0 1 8.4 0ZM7.526 4.27A.9.9 0 0 1 7.9 5v5.1h.25a.75.75 0 0 1 .75.75v6.65a3.4 3.4 0 1 1-6.8 0v-6.65a.75.75 0 0 1 .75-.75h.25V6a.9.9 0 0 1 .615-.854l3-1a.9.9 0 0 1 .811.124ZM6.1 6.249V10.1H4.9V6.649l1.2-.4ZM3.9 11.9h3.2v5.6a1.6 1.6 0 1 1-3.2 0v-5.6Z" clip-rule="evenodd"/></svg>
