<svg xmlns="http://www.w3.org/2000/svg" width="24" height="24" fill="currentColor" viewBox="0 0 24 24"><path fill-rule="evenodd" d="M9 4.9h-.2c-.855 0-1.442 0-1.897.038-.445.036-.684.103-.856.19a2.1 2.1 0 0 0-.918.919c-.088.172-.155.411-.191.856C4.9 7.358 4.9 7.945 4.9 8.8v6.4c0 .855 0 1.442.038 1.897.036.445.103.683.19.856a2.1 2.1 0 0 0 .919.918c.172.088.411.155.856.191.455.037 1.042.038 1.897.038h6.4c.855 0 1.442 0 1.897-.038.445-.036.683-.103.856-.19a2.1 2.1 0 0 0 .918-.919c.088-.172.155-.411.191-.856.037-.455.038-1.042.038-1.897V8.8c0-.855 0-1.442-.038-1.897-.036-.445-.103-.684-.19-.856a2.1 2.1 0 0 0-.919-.918c-.172-.088-.411-.155-.856-.191C16.642 4.9 16.055 4.9 15.2 4.9H9Zm5.99-1.8h.248c.808 0 1.469 0 2.006.044.556.045 1.058.142 1.527.381a3.9 3.9 0 0 1 1.704 1.704c.239.47.336.971.381 1.527.044.537.044 1.198.044 2.006v6.476c0 .808 0 1.469-.044 2.006-.045.556-.142 1.058-.381 1.526a3.9 3.9 0 0 1-1.704 1.705c-.47.239-.971.336-1.527.381-.537.044-1.198.044-2.006.044H8.762c-.808 0-1.469 0-2.006-.044-.556-.045-1.058-.142-1.527-.381a3.9 3.9 0 0 1-1.704-1.705c-.239-.468-.336-.97-.381-1.526-.044-.537-.044-1.198-.044-2.006V8.762c0-.808 0-1.469.044-2.006.045-.556.142-1.058.381-1.527A3.9 3.9 0 0 1 5.23 3.525c.47-.239.971-.336 1.527-.381C7.293 3.1 7.954 3.1 8.762 3.1h.248c.014-.348.053-.583.153-.781a1.5 1.5 0 0 1 .656-.656c.32-.163.74-.163 1.581-.163h1.2c.84 0 1.26 0 1.581.163a1.5 1.5 0 0 1 .655.656c.101.198.14.433.155.781ZM11 7.1a.9.9 0 0 0 0 1.8h5a.9.9 0 1 0 0-1.8h-5Zm-.9 4.9a.9.9 0 0 1 .9-.9h5a.9.9 0 1 1 0 1.8h-5a.9.9 0 0 1-.9-.9Zm.9 3.1a.9.9 0 0 0 0 1.8h3a.9.9 0 0 0 0-1.8h-3ZM7 8a.9.9 0 1 1 1.8 0A.9.9 0 0 1 7 8Zm.9 3.1a.9.9 0 1 0 0 1.8.9.9 0 0 0 0-1.8ZM7 16a.9.9 0 1 1 1.8 0A.9.9 0 0 1 7 16Z" clip-rule="evenodd"/></svg>
