<svg xmlns="http://www.w3.org/2000/svg" width="24" height="24" fill="currentColor" viewBox="0 0 24 24"><path fill-rule="evenodd" d="M8.715 3.086a.9.9 0 0 1 .956.118l5 4.1a.9.9 0 0 1-.011 1.4L10.51 12l4.15 3.295a.9.9 0 0 1 .01 1.401l-5 4.1A.9.9 0 0 1 8.2 20.1v-6.266l-3.74 2.97a.9.9 0 1 1-1.12-1.409L7.616 12 3.34 8.605a.9.9 0 0 1 1.12-1.41l3.74 2.97V3.9a.9.9 0 0 1 .515-.814ZM10 13.893l2.667 2.118L10 18.198v-4.305Zm0-3.786V5.802l2.667 2.187L10 10.107Z M17.838 13.135c-.138.474-.714.583-1.098.273l-.972-.786a.8.8 0 0 1 0-1.244l.97-.786c.384-.31.96-.202 1.1.272a4.06 4.06 0 0 1 0 2.271Z M19.033 6.156a.9.9 0 0 1 1.25.24A9.958 9.958 0 0 1 22 12a9.957 9.957 0 0 1-1.717 5.605.9.9 0 1 1-1.49-1.01A8.158 8.158 0 0 0 20.2 12a8.158 8.158 0 0 0-1.407-4.595.9.9 0 0 1 .24-1.25Z" clip-rule="evenodd"/></svg>
