<svg fill="none" height="24" viewBox="0 0 24 24" width="24" xmlns="http://www.w3.org/2000/svg"><path clip-rule="evenodd" d="m11.0834 3h1.8332c1.0561-.00001 1.9034-.00001 2.5887.05597.7041.05753 1.316.17864 1.8799.46599.9011.45913 1.6337 1.19173 2.0928 2.09282.2874.56396.4085 1.1758.466 1.87994.056.68525.056 1.53261.056 2.58868v7.6146c0 .7726 0 1.4144-.0454 1.9136-.045.4941-.145 1.0268-.4816 1.4539-.4585.5817-1.1552.9254-1.8959.9353-.5437.0072-1.0273-.2376-1.4468-.5026-.4238-.2677-.9331-.6582-1.5462-1.1284l-1.6172-1.2401c-.6073-.4657-.7136-.5262-.7973-.5486-.1111-.0297-.2281-.0297-.3392 0-.0837.0224-.1899.0829-.7973.5486l-1.6172 1.2401c-.61313.4702-1.12241.8607-1.54624 1.1284-.41949.265-.9031.5098-1.44679.5026-.74067-.0099-1.43732-.3536-1.89585-.9353-.33658-.4271-.43657-.9598-.48157-1.4539-.04548-.4992-.04547-1.141-.04545-1.9136v-7.6146c-.00001-1.05606-.00001-1.90343.05597-2.58868.05753-.70414.17864-1.31598.46599-1.87994.45913-.90109 1.19173-1.63369 2.09282-2.09282.56396-.28735 1.1758-.40846 1.87994-.46599.68525-.05598 1.53258-.05598 2.58868-.05597zm-2.4421 1.84999c-.59282.04844-.94142.13927-1.20934.27578-.56239.28655-1.01963.7438-1.30619 1.30619-.13651.26792-.22734.61651-.27577 1.20934-.0493.60333-.05 1.37708-.05 2.4809v7.5314c0 .8283.0009 1.3871.03802 1.7947.03771.414.10276.503.10276.503.12241.1554.30832.247.50605.2496 0 0 .11014-.0026.4616-.2245.346-.2186.78999-.5579 1.44732-1.062l1.58208-1.2131c.03379-.0259.06737-.0518.10077-.0775.4385-.3377.8488-.6536 1.3262-.7814.4161-.1115.8543-.1115 1.2704 0 .4774.1278.8877.4437 1.3262.7814.0334.0257.067.0516.1008.0775l1.5821 1.2131c.6573.5041 1.1013.8434 1.4473 1.062.3514.2219.4617.2245.4617.2245.1977-.0026.3836-.0943.506-.2497 0 0 .065-.0889.1027-.5029.0371-.4076.038-.9664.038-1.7947v-7.5314c0-1.10382-.0007-1.87757-.05-2.4809-.0484-.59283-.1393-.94142-.2758-1.20934-.2865-.56239-.7438-1.01964-1.3062-1.30619-.2679-.13651-.6165-.22734-1.2093-.27578-.6033-.04929-1.3771-.04999-2.4809-.04999h-1.7556c-1.1038 0-1.87757.0007-2.4809.04999z" fill="currentColor" fill-rule="evenodd"/></svg>
