<svg xmlns="http://www.w3.org/2000/svg" width="24" height="24" fill="currentColor" viewBox="0 0 24 24"><path d="M8.641 4.85c.57-.047 1.293-.05 2.308-.05a.9.9 0 0 0 0-1.8c-.992 0-1.797.001-2.454.055-.704.058-1.316.179-1.88.466a4.789 4.789 0 0 0-2.093 2.093c-.287.564-.409 1.176-.466 1.88C4 8.179 4 9.027 4 10.082v7.616c0 .771 0 1.413.045 1.913.045.492.145 1.026.482 1.454A2.456 2.456 0 0 0 6.423 22c.545.007 1.029-.239 1.447-.503.424-.267.933-.658 1.546-1.128l1.617-1.24a12.7 12.7 0 0 1 .595-.44.676.676 0 0 1 .202-.109.655.655 0 0 1 .34 0c.042.012.09.033.202.108.113.076.291.208.595.44l1.618 1.241c.612.47 1.121.86 1.545 1.128.418.264.902.51 1.447.503a2.456 2.456 0 0 0 1.896-.935c.337-.428.437-.962.482-1.454.045-.5.045-1.142.045-1.914v-3.075a.9.9 0 0 0-1.8 0v3.075c0 .805-.002 1.352-.038 1.75a2.25 2.25 0 0 1-.067.411.37.37 0 0 1-.036.093.655.655 0 0 1-.506.249c.008 0-.017.003-.095-.027a2.256 2.256 0 0 1-.366-.198c-.339-.213-.774-.545-1.412-1.035l-1.618-1.24c-.302-.231-.52-.394-.684-.504a2.423 2.423 0 0 0-.743-.355 2.455 2.455 0 0 0-1.27 0 2.426 2.426 0 0 0-.743.355c-.164.11-.382.273-.684.504L8.32 18.94c-.638.49-1.073.822-1.412 1.035a2.257 2.257 0 0 1-.366.197.368.368 0 0 1-.096.028.655.655 0 0 1-.505-.25.372.372 0 0 1-.036-.092 2.254 2.254 0 0 1-.067-.41c-.036-.4-.038-.946-.038-1.751v-7.614c0-1.084.001-1.847.05-2.443.048-.592.14-.941.276-1.209a2.989 2.989 0 0 1 1.306-1.306c.268-.137.617-.228 1.21-.276Z"/><path fill-rule="evenodd" d="M18 1.999a5 5 0 1 0 0 10 5 5 0 0 0 0-10Zm2.78 3.22a.75.75 0 0 0-1.06 0l-2.47 2.47-.97-.97a.75.75 0 1 0-1.06 1.06l1.5 1.5a.75.75 0 0 0 1.06 0l3-3a.75.75 0 0 0 0-1.06Z" clip-rule="evenodd"/></svg>
