<svg xmlns="http://www.w3.org/2000/svg" width="24" height="24" fill="currentColor" viewBox="0 0 24 24"><path fill-rule="evenodd" d="M11.083 3h1.834c1.056 0 1.903 0 2.588.056.704.058 1.316.179 1.88.466a4.789 4.789 0 0 1 2.093 2.093c.287.564.409 1.176.466 1.88C20 8.18 20 9.027 20 10.083v7.615c0 .773 0 1.414-.046 1.914-.044.494-.144 1.026-.481 1.454a2.456 2.456 0 0 1-1.896.935c-.544.007-1.027-.238-1.447-.503-.423-.268-.933-.658-1.546-1.128l-1.617-1.24c-.607-.466-.714-.526-.797-.549a.657.657 0 0 0-.34 0c-.083.023-.19.083-.797.549l-1.617 1.24c-.613.47-1.123.86-1.546 1.128-.42.265-.903.51-1.447.503a2.456 2.456 0 0 1-1.896-.936c-.337-.427-.437-.96-.482-1.453C4 19.112 4 18.47 4 17.698v-7.615c0-1.056 0-1.903.056-2.588.057-.704.179-1.316.466-1.88a4.789 4.789 0 0 1 2.093-2.093c.564-.287 1.176-.408 1.88-.466C9.18 3 10.027 3 11.083 3Z" clip-rule="evenodd"/></svg>
