<svg xmlns="http://www.w3.org/2000/svg" width="24" height="24" fill="currentColor" viewBox="0 0 24 24"><path fill-rule="evenodd" d="M3.019 2.247a.9.9 0 1 0-1.238 1.306l2.575 2.44c-.172.46-.255.952-.3 1.502C4 8.18 4 9.028 4 10.083v7.615c0 .772 0 1.414.045 1.914.045.492.145 1.026.482 1.454A2.456 2.456 0 0 0 6.423 22c.545.007 1.029-.239 1.447-.503.424-.268.933-.658 1.546-1.128l1.617-1.24a12.7 12.7 0 0 1 .595-.44.676.676 0 0 1 .202-.109.657.657 0 0 1 .34 0c.042.012.09.033.202.108.113.076.291.208.595.44l1.618 1.241c.612.47 1.122.86 1.545 1.128.418.264.902.51 1.447.503a2.456 2.456 0 0 0 1.896-.936c.118-.15.207-.312.274-.481l1.234 1.17a.9.9 0 0 0 1.238-1.307l-19.2-18.2Zm15.165 16.855L5.87 7.43a7.409 7.409 0 0 0-.02.211C5.801 8.237 5.8 9 5.8 10.083v7.615c0 .805.002 1.351.038 1.75.018.198.042.327.067.411a.37.37 0 0 0 .036.093.655.655 0 0 0 .505.249.368.368 0 0 0 .096-.028c.082-.031.199-.09.366-.197.339-.213.774-.545 1.412-1.034l1.618-1.24c.302-.233.52-.395.684-.506.167-.112.412-.265.743-.354a2.455 2.455 0 0 1 1.27 0c.331.09.576.242.743.355.164.11.382.273.684.504l1.618 1.24c.638.49 1.073.822 1.412 1.035.168.106.284.166.366.197.078.03.103.028.095.028a.656.656 0 0 0 .506-.25.374.374 0 0 0 .036-.092c.025-.084.049-.213.067-.41a6.487 6.487 0 0 0 .022-.347ZM12.917 4.8c1.083 0 1.846.001 2.442.05.592.048.941.14 1.21.276a2.99 2.99 0 0 1 1.305 1.306c.137.268.228.617.276 1.21.049.595.05 1.357.05 2.441V13.6a.9.9 0 0 0 1.8 0v-3.517c0-1.056 0-1.903-.056-2.588-.057-.704-.178-1.316-.466-1.88a4.79 4.79 0 0 0-2.093-2.093c-.564-.287-1.176-.409-1.88-.466C14.82 3 13.972 3 12.917 3h-1.834c-.984 0-1.786 0-2.441.045a.9.9 0 1 0 .123 1.796c.58-.04 1.311-.041 2.318-.041h1.834Z" clip-rule="evenodd"/></svg>
