<svg xmlns="http://www.w3.org/2000/svg" width="24" height="24" fill="currentColor" viewBox="0 0 24 24"><path d="M7.45 13.323a.9.9 0 0 0-.9 1.558 3.608 3.608 0 0 1 1.71 2.318.9.9 0 1 0 1.756-.398 5.408 5.408 0 0 0-2.565-3.478Zm2.09-7.296a.9.9 0 0 0-1.26.18 1.596 1.596 0 0 1-1.282.643.9.9 0 1 0 0 1.8A3.396 3.396 0 0 0 9.72 7.287a.9.9 0 0 0-.18-1.26Zm6.386.846a.9.9 0 0 0-1.781.254 4.404 4.404 0 0 0 3.098 3.59.9.9 0 1 0 .514-1.725 2.604 2.604 0 0 1-1.83-2.12Z"/><path fill-rule="evenodd" d="M2.1 14c0-.87.252-1.68.687-2.362a5.401 5.401 0 0 1 3.694-7.942A4.895 4.895 0 0 1 12 1.834a4.895 4.895 0 0 1 5.519 1.862 5.401 5.401 0 0 1 3.694 7.942A4.38 4.38 0 0 1 21.9 14a4.396 4.396 0 0 1-2.016 3.698 2.9 2.9 0 0 1-3.061 3.196A3.396 3.396 0 0 1 12 21.75a3.396 3.396 0 0 1-4.823-.855 2.9 2.9 0 0 1-3.061-3.196A4.396 4.396 0 0 1 2.1 14Zm5.703-9.03A3.099 3.099 0 0 1 11.1 3.458v16.704a1.601 1.601 0 0 1-2.596-.594.9.9 0 0 0-1.14-.53 1.1 1.1 0 0 1-1.38-1.461.9.9 0 0 0-.484-1.176 2.601 2.601 0 1 1 2.114-4.751.9.9 0 0 0 .772-1.626A4.386 4.386 0 0 0 6.5 9.6c-.87 0-1.68.252-2.363.688A3.6 3.6 0 0 1 7.116 5.42a.9.9 0 0 0 .687-.45ZM12.9 20.162c.287.272.674.438 1.1.438.418 0 .799-.16 1.084-.423A2.893 2.893 0 0 1 14.1 18a.9.9 0 1 1 1.8 0c0 .6.48 1.087 1.076 1.1H17a1.1 1.1 0 0 0 1.016-1.523.9.9 0 0 1 .484-1.176 2.601 2.601 0 0 0 1.457-3.253A5.378 5.378 0 0 1 16.5 14.4a.9.9 0 0 1 0-1.8 3.6 3.6 0 0 0 .385-7.18.9.9 0 0 1-.688-.45A3.099 3.099 0 0 0 12.9 3.458v16.704Z" clip-rule="evenodd"/></svg>
