<svg xmlns="http://www.w3.org/2000/svg" width="24" height="24" fill="none" viewBox="0 0 24 24"><path fill="currentColor" fill-rule="evenodd" d="M12 2.1h-.0294c-.4409 0-.8164 0-1.1262.021-.3247.0223-.6425.0706-.9542.1997a2.9 2.9 0 0 0-1.5694 1.5695c-.1292.3117-.1775.6295-.1997.9542C8.1 5.1542 8.1 5.5297 8.1 5.9706V6c-2.042.0009-3.0994.0199-3.916.436a4 4 0 0 0-1.748 1.748C2 9.0397 2 10.1598 2 12.4v1.2c0 2.2402 0 3.3603.436 4.2159a3.9999 3.9999 0 0 0 1.748 1.7481C5.0397 20 6.1598 20 8.4 20h7.2c2.2402 0 3.3603 0 4.216-.436a4 4 0 0 0 1.748-1.7481C22 16.9603 22 15.8402 22 13.6v-1.2c0-2.2402 0-3.3603-.436-4.216a4.0001 4.0001 0 0 0-1.748-1.748c-.8166-.4161-1.874-.4351-3.916-.436v-.0294c0-.4409 0-.8164-.0211-1.1262-.0222-.3247-.0705-.6425-.1996-.9542a2.9002 2.9002 0 0 0-1.5695-1.5695c-.3117-.129-.6295-.1774-.9542-.1996C12.8458 2.1 12.4703 2.1 12.0294 2.1H12ZM14.1 6c0-.4783-.0005-.7919-.0169-1.033-.0159-.2332-.0437-.3321-.0668-.388a1.1002 1.1002 0 0 0-.5953-.5953c-.0559-.0231-.1549-.0509-.388-.0668-.2411-.0164-.5547-.017-1.033-.017-.4783 0-.7919.0006-1.033.017-.2331.016-.3321.0437-.388.0668a1.1 1.1 0 0 0-.5953.5953c-.023.0559-.0509.1548-.0668.388C9.9005 5.208 9.9 5.5216 9.9 6h4.2Zm2 1.8002C15.942 7.8 15.7756 7.8 15.6 7.8H8.4c-.1756 0-.342 0-.5.0002v10.3995c.158.0002.3244.0003.5.0003h7.2c.1756 0 .342-.0001.5-.0003V7.8002Zm-10.1806.0483a9.3923 9.3923 0 0 1 .1806-.013v10.3289a10.1833 10.1833 0 0 1-.1806-.0129c-.5557-.0454-.7864-.1242-.9182-.1913a2.2 2.2 0 0 1-.9614-.9614c-.0672-.1318-.1459-.3625-.1913-.9182C3.8014 15.5039 3.8 14.7498 3.8 13.6v-1.2c0-1.1498.0014-1.9039.0485-2.4806.0454-.5557.1241-.7864.1913-.9182a2.2 2.2 0 0 1 .9614-.9614c.1318-.0672.3625-.1459.9182-.1913Zm12.1612 10.303a10.155 10.155 0 0 1-.1806.0129V7.8356a9.368 9.368 0 0 1 .1806.0129c.5557.0454.7864.1241.9182.1913a2.2 2.2 0 0 1 .9614.9614c.0672.1318.1459.3625.1913.9182.0471.5767.0485 1.3308.0485 2.4806v1.2c0 1.1498-.0014 1.9039-.0485 2.4806-.0454.5557-.1241.7864-.1913.9182a2.2002 2.2002 0 0 1-.9614.9614c-.1318.0671-.3625.1459-.9182.1913Z" clip-rule="evenodd"/></svg>
