<svg xmlns="http://www.w3.org/2000/svg" width="24" height="24" fill="currentColor" viewBox="0 0 24 24"><path d="M20.377 3.467a1.857 1.857 0 0 0-2.558.09l-6.93 6.866a.911.911 0 0 0-.007 1.285.904.904 0 0 0 1.281.008l6.935-6.87c.044-.045.117-.018.07.04l-6.154 7.74a.911.911 0 0 0 .143 1.278.904.904 0 0 0 1.273-.143l6.15-7.735a1.85 1.85 0 0 0-.203-2.56Z"/><path fill-rule="evenodd" d="M8.488 12.624c-2.003 0-3.476 1.63-3.56 3.533-.043.938-.454 1.416-.83 1.732-.382.321-.894.553-1.052 1.065-.13.418.033.863.373 1.128.763.593 2.355 1.343 4.654.622 2.399-.752 3.977-2.509 3.977-4.506a3.568 3.568 0 0 0-3.562-3.574Zm-1.75 3.614c.046-1.037.82-1.796 1.75-1.796.967 0 1.75.786 1.75 1.756 0 .947-.789 2.17-2.705 2.77-.866.272-1.549.249-2.057.123.59-.56 1.198-1.442 1.261-2.853Z" clip-rule="evenodd"/></svg>
