<svg xmlns="http://www.w3.org/2000/svg" width="24" height="24" fill="currentColor" viewBox="0 0 24 24"><path d="M10.5 10.4a.9.9 0 0 1 .9-.9h1.2a.9.9 0 1 1 0 1.8h-1.2a.9.9 0 0 1-.9-.9Zm0 5a.9.9 0 0 1 .9-.9h1.2a.9.9 0 1 1 0 1.8h-1.2a.9.9 0 0 1-.9-.9Z"/><path fill-rule="evenodd" d="M3 8a.9.9 0 0 1 .9-.9h2.275a6.937 6.937 0 0 1 1.77-1.883l-1.681-1.68a.9.9 0 0 1 1.272-1.273l2.065 2.064A6.886 6.886 0 0 1 12 3.9c.844 0 1.652.151 2.399.428l2.065-2.064a.9.9 0 0 1 1.272 1.272l-1.68 1.681a6.937 6.937 0 0 1 1.77 1.883H20.1a.9.9 0 1 1 0 1.8h-1.465c.173.604.265 1.241.265 1.9v1.3h3.2a.9.9 0 1 1 0 1.8h-3.2V15c0 .732-.114 1.438-.325 2.1H20.1a.9.9 0 1 1 0 1.8h-2.407a6.893 6.893 0 0 1-5.693 3 6.893 6.893 0 0 1-5.693-3H3.9a.9.9 0 0 1 0-1.8h1.525A6.896 6.896 0 0 1 5.1 15v-1.1H1.9a.9.9 0 0 1 0-1.8h3.2v-1.3c0-.659.092-1.296.265-1.9H3.9A.9.9 0 0 1 3 8Zm3.9 2.8a5.1 5.1 0 1 1 10.2 0V15a5.1 5.1 0 0 1-10.2 0v-4.2Z" clip-rule="evenodd"/><path fill-rule="evenodd" d="M10.5 10.4a.9.9 0 0 1 .9-.9h1.2a.9.9 0 1 1 0 1.8h-1.2a.9.9 0 0 1-.9-.9Zm0 5a.9.9 0 0 1 .9-.9h1.2a.9.9 0 1 1 0 1.8h-1.2a.9.9 0 0 1-.9-.9Z" clip-rule="evenodd"/></svg>
