<svg xmlns="http://www.w3.org/2000/svg" width="24" height="24" fill="currentColor" viewBox="0 0 24 24"><path fill-rule="evenodd" d="M12.3 2h-.033c-.392 0-.738 0-1.025.023a2.439 2.439 0 0 0-.932.239A2.4 2.4 0 0 0 9.262 3.31c-.158.309-.214.626-.239.932C9 4.529 9 4.875 9 5.267v4.903a2.4 2.4 0 0 0-.716.1 2.436 2.436 0 0 0-.81.448c-.218.17-.461.396-.735.65l-.024.022-1.658 1.538-.052.048c-.232.214-.453.418-.617.671a2.4 2.4 0 0 0-.315.721c-.074.292-.074.594-.073.91v3.454c0 .392 0 .738.023 1.026.025.305.081.622.238.93a2.4 2.4 0 0 0 1.05 1.05c.308.157.625.213.93.238.288.023.634.023 1.026.023h9.466c.392 0 .738 0 1.025-.023.306-.025.623-.081.931-.239a2.4 2.4 0 0 0 1.05-1.048c.156-.309.212-.626.238-.931.023-.288.023-.634.023-1.025V5.266c0-.392 0-.738-.023-1.025-.026-.306-.082-.623-.239-.932a2.4 2.4 0 0 0-1.049-1.048 2.439 2.439 0 0 0-.93-.239A13.483 13.483 0 0 0 16.732 2H12.3Zm-1.062 9.425a22.222 22.222 0 0 0-.438-.422V5.3c0-.435 0-.707.017-.912.016-.194.042-.248.048-.26a.6.6 0 0 1 .263-.263c.012-.006.066-.032.26-.048.205-.016.477-.017.912-.017h4.4c.435 0 .707 0 .912.017.194.016.248.042.26.048a.6.6 0 0 1 .262.263c.007.012.032.066.048.26.017.205.018.477.018.912v13.4c0 .435 0 .707-.018.912-.015.194-.041.248-.047.26a.6.6 0 0 1-.263.263c-.012.006-.066.032-.26.048-.197.016-.456.017-.862.017v-.75c0-.233 0-.35-.038-.441a.5.5 0 0 0-.27-.271c-.093-.038-.209-.038-.442-.038s-.35 0-.441.038a.5.5 0 0 0-.27.27c-.039.093-.039.209-.039.442v.75H13.8v-4.956c0-.305 0-.597-.069-.88a2.401 2.401 0 0 0-.296-.704c-.155-.248-.364-.45-.583-.663l-.05-.048-1.54-1.502-.024-.022ZM12 15.312V20.2H9.65v-1.45c0-.233 0-.35-.038-.441a.5.5 0 0 0-.27-.27C9.248 18 9.132 18 8.9 18s-.35 0-.441.038a.5.5 0 0 0-.27.27c-.039.093-.039.209-.039.442v1.45H7.3c-.435 0-.707 0-.912-.017-.194-.016-.248-.042-.26-.048a.6.6 0 0 1-.263-.263c-.006-.012-.032-.066-.048-.26A12.65 12.65 0 0 1 5.8 18.7v-3.352c0-.432.006-.493.018-.54a.6.6 0 0 1 .079-.18c.026-.04.067-.087.383-.38l1.66-1.538c.305-.282.495-.458.649-.579.145-.114.2-.132.214-.137A.6.6 0 0 1 9.16 12c.014.004.068.024.21.142.15.125.337.305.634.595l1.542 1.502c.298.291.337.337.362.377a.599.599 0 0 1 .074.175c.011.046.017.105.017.522Zm-3.85.438c0-.233 0-.35.038-.441a.5.5 0 0 1 .27-.27C8.552 15 8.669 15 8.9 15c.233 0 .35 0 .441.038a.5.5 0 0 1 .271.27c.038.092.038.209.038.442s0 .35-.038.441a.5.5 0 0 1-.27.27c-.093.039-.209.039-.442.039s-.35 0-.441-.038a.5.5 0 0 1-.27-.27c-.039-.093-.039-.209-.039-.442Zm7.138-.041c-.038.091-.038.208-.038.441s0 .35.038.441a.5.5 0 0 0 .27.27c.093.039.21.039.442.039.233 0 .35 0 .441-.038a.5.5 0 0 0 .271-.27c.038-.093.038-.21.038-.442 0-.233 0-.35-.038-.441a.5.5 0 0 0-.27-.271c-.093-.038-.209-.038-.442-.038s-.35 0-.441.038a.5.5 0 0 0-.27.27Zm-.038-2.859c0-.233 0-.35.038-.441a.5.5 0 0 1 .27-.271c.093-.038.21-.038.442-.038.233 0 .35 0 .441.038a.5.5 0 0 1 .271.27c.038.093.038.209.038.442s0 .35-.038.441a.5.5 0 0 1-.27.27c-.093.039-.209.039-.442.039s-.35 0-.441-.038a.5.5 0 0 1-.27-.27c-.039-.093-.039-.21-.039-.442Zm.038-3.741c-.038.092-.038.208-.038.441s0 .35.038.441a.5.5 0 0 0 .27.27c.093.039.21.039.442.039.233 0 .35 0 .441-.038a.5.5 0 0 0 .271-.27c.038-.093.038-.209.038-.442s0-.35-.038-.441a.5.5 0 0 0-.27-.27C16.348 8.8 16.232 8.8 16 8.8s-.35 0-.441.038a.5.5 0 0 0-.27.27Zm-3.038.441c0-.233 0-.35.038-.441a.5.5 0 0 1 .27-.27c.093-.039.21-.039.442-.039.233 0 .35 0 .441.038a.5.5 0 0 1 .271.27c.038.093.038.209.038.442s0 .35-.038.441a.5.5 0 0 1-.27.27c-.092.039-.209.039-.442.039s-.35 0-.441-.038a.5.5 0 0 1-.27-.27c-.039-.093-.039-.209-.039-.442Zm3.038-3.741c-.038.092-.038.208-.038.441s0 .35.038.441a.5.5 0 0 0 .27.27C15.652 7 15.769 7 16 7c.233 0 .35 0 .441-.038a.5.5 0 0 0 .271-.27c.038-.093.038-.209.038-.442s0-.35-.038-.441a.5.5 0 0 0-.27-.27C16.348 5.5 16.232 5.5 16 5.5s-.35 0-.441.038a.5.5 0 0 0-.27.27Zm-3.038.441c0-.233 0-.35.038-.441a.5.5 0 0 1 .27-.27c.093-.039.21-.039.442-.039.233 0 .35 0 .441.038a.5.5 0 0 1 .271.27c.038.093.038.209.038.442s0 .35-.038.441a.5.5 0 0 1-.27.27C13.35 7 13.232 7 13 7s-.35 0-.441-.038a.5.5 0 0 1-.27-.27c-.039-.093-.039-.209-.039-.442Z" clip-rule="evenodd"/></svg>
