<svg xmlns="http://www.w3.org/2000/svg" width="24" height="24" fill="currentColor" viewBox="0 0 24 24"><path fill-rule="evenodd" d="M11.995 2c2.324 0 3.803 1.585 4.072 3.3a3.83 3.83 0 0 1 .875-.3c2.449-.44 4.935 1.694 3.756 5.204-.763 2.273-2.355 3.81-4.574 4.03a64.826 64.826 0 0 1-.529 5.651l-.013.096c-.049.36-.107.786-.335 1.142a1.919 1.919 0 0 1-.81.705 1.904 1.904 0 0 1-.658.158c-.18.014-.392.014-.609.014h-2.35c-.217 0-.428 0-.609-.014a1.903 1.903 0 0 1-.658-.158 1.926 1.926 0 0 1-.81-.704c-.228-.357-.286-.784-.335-1.143l-.013-.096a61.955 61.955 0 0 1-.415-3.877C6 16 4.33 14.426 3.7 13.164c-1.906-3.824.421-6.169 2.684-6.225H6.5c.466-.01.915.09 1.316.274.017-.49.038-.946.059-1.366V5.83c.01-.172.016-.3.04-.472C8.16 3.617 9.672 2.001 11.995 2Zm4.2 10.408c1.347-.232 3.013-1.743 3.013-3.838 0-1.157-.735-2.07-2.105-1.766-.585.13-.892.66-.892 1.228v.52c.022 1.169.023 2.47-.016 3.856ZM14.411 8.57v2.095a.92.92 0 0 0 .012.15c-.021 2.648-.175 5.72-.61 8.82a6.874 6.874 0 0 1-.075.473.681.681 0 0 1-.014.055.139.139 0 0 1-.025.022.717.717 0 0 1-.06.007 7.279 7.279 0 0 1-.496.008h-2.296c-.254 0-.394 0-.495-.008a.722.722 0 0 1-.06-.007.134.134 0 0 1-.025-.022.681.681 0 0 1-.014-.055 6.874 6.874 0 0 1-.075-.473C9.432 14.321 9.51 9.087 9.672 5.94c.01-.19.013-.245.025-.33.128-.912.918-1.809 2.298-1.809s2.17.897 2.299 1.808c.012.086.015.14.025.33.039.765.073 1.651.092 2.632Zm-6.636 2.92c.014.862.042 1.763.09 2.691-1.143.052-2.926-1.449-3.088-3.365-.084-1.001.411-2.073 1.58-2.073.792 0 1.338.468 1.368 1.072.026.524.046 1.081.046 1.585 0 .03.001.06.004.09Z" clip-rule="evenodd"/></svg>
