<svg xmlns="http://www.w3.org/2000/svg" width="24" height="24" fill="currentColor" viewBox="0 0 24 24"><path d="M17.233 2.064a.12.12 0 0 1 .21 0c.267.505.53.9.763 1.248.462.69.8 1.197.8 2.019a1.668 1.668 0 0 1-3.337 0c0-.822.338-1.328.8-2.019.232-.348.496-.743.764-1.248ZM6.554 2.08a.12.12 0 0 1 .21 0c.267.506.53.9.763 1.246.46.687.796 1.19.796 2.01a1.664 1.664 0 0 1-3.328 0c0-.82.337-1.323.797-2.01.232-.347.495-.74.762-1.245Zm5.551-.016a.12.12 0 0 0-.21 0c-.267.505-.531.9-.764 1.248-.461.69-.8 1.197-.8 2.02a1.668 1.668 0 0 0 3.337 0c0-.823-.338-1.33-.8-2.02a13.539 13.539 0 0 1-.763-1.248Z"/><path fill-rule="evenodd" d="M20.001 15.438C21.17 14.709 22 13.328 22 11.603c0-.635-.264-1.26-.655-1.725C20.953 9.41 20.34 9 19.583 9H4.417c-.758 0-1.37.41-1.762.877-.391.465-.655 1.09-.655 1.725 0 1.725.83 3.107 1.999 3.835v.763c0 1.68 0 2.52.327 3.162a3 3 0 0 0 1.311 1.31C6.279 21 7.119 21 8.8 21h6.4c1.68 0 2.52 0 3.163-.327a3 3 0 0 0 1.311-1.311c.327-.642.327-1.482.327-3.162v-.763ZM8.8 19.201h6.4c.87 0 1.414-.002 1.824-.035.39-.032.496-.083.521-.096a1.2 1.2 0 0 0 .525-.524c.013-.025.064-.133.096-.521.033-.41.035-.954.035-1.824v-.202l-.135.003c-1.305 0-2.236-.347-2.86-.736a4.031 4.031 0 0 1-.191-.126c-.055.04-.113.08-.174.119-.615.396-1.536.743-2.841.743-1.306 0-2.227-.349-2.843-.746a3.89 3.89 0 0 1-.173-.118 4.04 4.04 0 0 1-.189.125c-.625.39-1.556.739-2.862.739-.044 0-.09-.001-.134-.003v.202c0 .87.001 1.414.035 1.823.032.39.083.497.096.521a1.2 1.2 0 0 0 .524.525c.025.013.133.064.522.096.41.033.954.035 1.824.035Zm.212-6.203a.9.9 0 0 0-.758.39l-.003.004a.902.902 0 0 1-.06.068 1.868 1.868 0 0 1-.35.277c-.338.211-.938.465-1.908.465-.965 0-2.132-.897-2.132-2.599 0-.154.075-.38.233-.568.156-.186.303-.234.383-.234h15.166c.08 0 .227.048.383.234a.958.958 0 0 1 .233.568c0 1.702-1.167 2.599-2.133 2.599-.97 0-1.57-.253-1.91-.464a1.87 1.87 0 0 1-.35-.276.896.896 0 0 1-.06-.068l-.004-.004a.9.9 0 0 0-1.498.026l-.001.002a.778.778 0 0 1-.052.062 1.7 1.7 0 0 1-.324.265c-.317.204-.898.457-1.867.457s-1.55-.254-1.867-.458a1.677 1.677 0 0 1-.325-.267.784.784 0 0 1-.053-.063l-.001-.002a.9.9 0 0 0-.742-.414Z" clip-rule="evenodd"/></svg>
