<svg xmlns="http://www.w3.org/2000/svg" width="24" height="24" fill="currentColor" viewBox="0 0 24 24"><path d="M17 15.5a1.5 1.5 0 1 1-3 0 1.5 1.5 0 0 1 3 0Z M8 1.5a.9.9 0 0 1 .9.9V3h6.2v-.6a.9.9 0 1 1 1.8 0v.653c.628.053 1.183.164 1.698.427a4.4 4.4 0 0 1 1.922 1.922c.267.523.377 1.087.43 1.726.05.62.05 1.386.05 2.334v5.076c0 .948 0 1.714-.05 2.334-.053.64-.163 1.203-.43 1.726a4.4 4.4 0 0 1-1.922 1.922c-.523.267-1.087.377-1.726.43-.62.05-1.386.05-2.334.05H9.462c-.948 0-1.714 0-2.334-.05-.64-.053-1.203-.163-1.726-.43a4.4 4.4 0 0 1-1.922-1.922c-.267-.523-.377-1.087-.43-1.726C3 16.252 3 15.486 3 14.538V9.462c0-.948 0-1.714.05-2.334.053-.64.163-1.203.43-1.726A4.4 4.4 0 0 1 5.402 3.48c.515-.263 1.07-.374 1.698-.427V2.4a.9.9 0 0 1 .9-.9Zm-.9 3.361c-.422.046-.68.12-.88.222A2.6 2.6 0 0 0 5.083 6.22c-.115.226-.195.527-.238 1.054-.037.444-.043.991-.045 1.726h14.4c-.002-.735-.008-1.282-.045-1.726-.043-.527-.123-.828-.238-1.054a2.6 2.6 0 0 0-1.137-1.137c-.2-.102-.458-.176-.88-.222V5.6a.9.9 0 0 1-1.8 0v-.8H8.9v.8a.9.9 0 1 1-1.8 0v-.739ZM19.2 10.8H4.8v3.7c0 .995 0 1.687.045 2.226.043.527.123.828.238 1.054a2.6 2.6 0 0 0 1.137 1.137c.226.115.527.195 1.055.238.538.044 1.23.045 2.225.045h5c.995 0 1.687 0 2.226-.045.527-.043.828-.123 1.054-.238a2.6 2.6 0 0 0 1.137-1.137c.115-.226.195-.527.238-1.055.044-.538.045-1.23.045-2.225v-3.7Z" clip-rule="evenodd"/></svg>
