<svg xmlns="http://www.w3.org/2000/svg" width="24" height="24" fill="currentColor" viewBox="0 0 24 24"><path d="M19.311 2.004a.9.9 0 0 0-1.707.398V4.2h-1.699a.9.9 0 1 0 0 1.8h1.699v1.598a.9.9 0 1 0 1.8 0V6h1.699a.897.897 0 0 0 .9-.9.898.898 0 0 0-.9-.9h-1.7V2.402a.897.897 0 0 0-.092-.398Z M8 1.502a.9.9 0 0 1 .9.9v.604h3.604a.9.9 0 1 1 0 1.8H8.9v.789a.9.9 0 0 1-1.8 0v-.738c-.522.07-.97.224-1.32.506-.489.393-.981 1.198-.981 3.008v.634h10.934a.9.9 0 0 1 0 1.8H4.8v5.371c0 .902.192 1.645.6 2.15.377.469 1.054.872 2.36.872h8.331c1.106 0 1.859-.292 2.33-.737.464-.436.779-1.135.779-2.211v-5.414a.9.9 0 0 1 1.8 0v5.414c0 1.436-.432 2.661-1.344 3.521-.903.852-2.155 1.227-3.565 1.227h-8.33c-1.712 0-2.965-.552-3.763-1.542-.769-.954-.998-2.171-.998-3.28V8.371c0-2.127.589-3.555 1.652-4.41.752-.605 1.638-.836 2.449-.916v-.643a.9.9 0 0 1 .9-.9Z"/></svg>
