<svg xmlns="http://www.w3.org/2000/svg" width="24" height="24" fill="currentColor" viewBox="0 0 24 24"><path d="M9.737 8.464a.9.9 0 1 0-1.273 1.273L10.727 12l-2.263 2.263a.9.9 0 0 0 1.273 1.273L12 13.273l2.263 2.263a.9.9 0 1 0 1.273-1.273L13.273 12l2.263-2.263a.9.9 0 0 0-1.273-1.273L12 10.727 9.737 8.464Z"/><path fill-rule="evenodd" d="M12 2.1c-5.468 0-9.9 4.432-9.9 9.9s4.432 9.9 9.9 9.9 9.9-4.432 9.9-9.9-4.432-9.9-9.9-9.9ZM3.9 12a8.1 8.1 0 1 1 16.2 0 8.1 8.1 0 0 1-16.2 0Z" clip-rule="evenodd"/></svg>
