<svg fill="none" height="24" viewBox="0 0 24 24" width="24" xmlns="http://www.w3.org/2000/svg"><path d="m5.26363 5.2636c.35147-.35147.92132-.35147 1.27279.00001l5.46358 5.46359 5.4636-5.46357c.3515-.35147.9214-.35147 1.2728 0 .3515.35147.3515.92132 0 1.27279l-5.4636 5.46358 5.4636 5.4636c.3515.3515.3515.9214 0 1.2728-.3515.3515-.9213.3515-1.2728 0l-5.4636-5.4636-5.46361 5.4636c-.35147.3515-.92132.3515-1.27279 0s-.35147-.9213.00001-1.2728l5.46359-5.4636-5.46357-5.46361c-.35147-.35147-.35147-.92132 0-1.27279z" fill="currentColor"/></svg>
