<svg xmlns="http://www.w3.org/2000/svg" width="24" height="24" fill="currentColor" viewBox="0 0 24 24"><path fill-rule="evenodd" d="M5.107 14.388a.9.9 0 0 1 1.005-.781l2 .25a.9.9 0 0 1-.224 1.786l-2-.25a.9.9 0 0 1-.781-1.005Zm13.786 0a.9.9 0 0 0-1.005-.781l-2 .25a.9.9 0 0 0 .224 1.786l2-.25a.9.9 0 0 0 .781-1.005Z" clip-rule="evenodd"/><path fill-rule="evenodd" d="M21.9 16.5v2.722c0 .12 0 .259-.01.38a1.4 1.4 0 0 1-.143.534 1.4 1.4 0 0 1-.611.611 1.409 1.409 0 0 1-.534.143c-.121.01-.26.01-.38.01h-.444c-.12 0-.259 0-.38-.01a1.409 1.409 0 0 1-.534-.143 1.4 1.4 0 0 1-.611-.611 1.409 1.409 0 0 1-.143-.534c-.01-.121-.01-.26-.01-.38V18.9H5.9v.322c0 .12 0 .259-.01.38a1.4 1.4 0 0 1-.143.534 1.4 1.4 0 0 1-.611.611 1.408 1.408 0 0 1-.534.143c-.121.01-.26.01-.38.01h-.444c-.12 0-.259 0-.38-.01a1.408 1.408 0 0 1-.534-.143 1.4 1.4 0 0 1-.611-.611 1.408 1.408 0 0 1-.143-.534c-.01-.121-.01-.26-.01-.38v-7.076A1.613 1.613 0 0 1 1 10.614v-.229c0-.489.396-.885.885-.885h.859l.813-1.627c.386-.772.706-1.412 1.024-1.91.334-.526.704-.96 1.223-1.28.518-.321 1.072-.458 1.691-.522C8.083 4.1 8.8 4.1 9.662 4.1h4.676c.863 0 1.579 0 2.167.06.619.065 1.173.202 1.691.522.519.321.89.755 1.223 1.28.318.499.638 1.14 1.024 1.911l.813 1.627h.859c.489 0 .885.396.885.885v.23c0 .734-.477 1.32-1.1 1.531V16.5ZM4.72 10.234c.343.067.857.158 1.527.25 1.339.182 3.298.366 5.753.366s4.414-.184 5.753-.367a27.054 27.054 0 0 0 1.827-.31l-.727-1.454c-.411-.823-.69-1.38-.952-1.79-.25-.394-.445-.588-.651-.715-.206-.128-.466-.215-.93-.263-.485-.05-1.108-.051-2.028-.051H9.708c-.92 0-1.543.001-2.028.051-.464.048-.724.135-.93.263-.206.127-.4.32-.65.714-.262.412-.542.968-.953 1.791l-.727 1.454c.078.016.178.037.3.06Zm15.338 1.677c-.1.022-.244.053-.432.09-.376.073-.924.17-1.63.266A44.694 44.694 0 0 1 12 12.65c-2.545 0-4.586-.19-5.997-.383A28.799 28.799 0 0 1 4.374 12a16.654 16.654 0 0 1-.432-.09l-.042-.009V16.5a.6.6 0 0 0 .6.6h15a.6.6 0 0 0 .6-.6v-4.599l-.042.01Z" clip-rule="evenodd"/></svg>
