<svg xmlns="http://www.w3.org/2000/svg" width="24" height="24" fill="currentColor" viewBox="0 0 24 24"><path d="M8.225 4.599c-.032.168-.063.341-.095.519l-1.633 8.964c-.115.635-.22 1.213-.27 1.704-.051.527-.057 1.108.124 1.713a4.3 4.3 0 0 0 1.512 2.186c.503.383 1.048.582 1.56.72.476.127 1.055.232 1.69.348l1.392.253-.044.008-3.964.712c-1.379.247-2.068.37-2.642.197a2.5 2.5 0 0 1-1.268-.883c-.363-.478-.487-1.167-.734-2.545L2.28 9.729c-.247-1.378-.37-2.067-.197-2.641a2.5 2.5 0 0 1 .883-1.269c.478-.362 1.167-.486 2.545-.733l2.714-.487Z M9.89 5.503c.25-1.377.375-2.066.74-2.543a2.5 2.5 0 0 1 1.27-.88c.575-.172 1.264-.046 2.64.204l3.957.72c1.377.252 2.066.377 2.544.741.42.32.727.765.879 1.27.172.576.046 1.264-.204 2.642l-1.61 8.838c-.25 1.378-.376 2.066-.74 2.544a2.5 2.5 0 0 1-1.27.879c-.576.172-1.264.047-2.642-.204l-3.956-.72c-1.377-.251-2.066-.377-2.543-.74a2.5 2.5 0 0 1-.88-1.271c-.172-.575-.046-1.264.205-2.641l1.61-8.839Z"/></svg>
