<svg xmlns="http://www.w3.org/2000/svg" width="24" height="24" viewBox="0 0 24 24" fill="currentColor"><path d="M10.43 2.32c.728-.35 1.49-.374 2.32-.257.81.115 1.798.381 3.01.706 1.21.324 2.197.587 2.955.892.776.313 1.425.715 1.88 1.381q.162.24.29.504c.349.726.37 1.488.252 2.317-.115.809-.381 1.796-.707 3.006l-1.906 7.082c-.171.637-.287 1.085-.47 1.452a3.91 3.91 0 0 1-3.745 2.16c-.41-.026-.855-.15-1.493-.32a.9.9 0 0 1 .468-1.738c.721.192.956.25 1.141.263a2.1 2.1 0 0 0 2.017-1.163c.083-.167.15-.4.344-1.12l1.905-7.082c.337-1.254.568-2.116.664-2.79.093-.654.04-1.01-.094-1.287a2 2 0 0 0-.156-.27c-.172-.254-.454-.478-1.065-.725-.632-.255-1.494-.487-2.748-.823-1.256-.337-2.12-.567-2.794-.662-.654-.093-1.01-.038-1.287.095a2 2 0 0 0-.272.157c-.254.173-.479.454-.726 1.067-.255.632-.487 1.495-.824 2.751l-.55 2.05a.9.9 0 1 1-1.74-.464l.55-2.05c.325-1.212.589-2.2.895-2.959.313-.778.714-1.426 1.381-1.88q.242-.167.505-.294"/><path d="M9.072 12.703c.075-.27.58-.27.656 0l.056.198a14 14 0 0 0 .18.57c.256.747.6 1.502 1.032 1.934.432.433 1.186.775 1.932 1.03q.07.025.14.047.22.072.432.134.1.03.197.056c.27.075.27.58 0 .656a15 15 0 0 0-.769.236c-.746.256-1.5.6-1.932 1.032-.433.432-.776 1.186-1.032 1.932a12 12 0 0 0-.236.769c-.075.27-.58.27-.656 0a15 15 0 0 0-.19-.628l-.046-.14c-.256-.747-.599-1.5-1.03-1.933-.433-.433-1.188-.776-1.934-1.032l-.14-.046q-.22-.072-.43-.134-.101-.03-.199-.056c-.27-.075-.27-.58 0-.656l.198-.056a14 14 0 0 0 .57-.18c.747-.256 1.502-.598 1.934-1.03.433-.433.775-1.188 1.03-1.934q.025-.07.047-.141.072-.219.134-.43.03-.1.056-.198m-4.475-2.485a.32.32 0 0 1 .606 0l.242.728c.159.476.533.85 1.009 1.01l.728.241a.32.32 0 0 1 0 .606l-.728.242c-.476.159-.85.533-1.01 1.009l-.241.728a.32.32 0 0 1-.606 0l-.242-.728a1.6 1.6 0 0 0-1.009-1.01l-.728-.241a.32.32 0 0 1 0-.606l.728-.242c.476-.159.85-.533 1.01-1.009z"/></svg>