<svg xmlns="http://www.w3.org/2000/svg" width="24" height="24" fill="currentColor" viewBox="0 0 24 24"><path fill-rule="evenodd" d="M13.49 4.293a4.402 4.402 0 0 1 6.225 6.225l-1.072 1.072a.9.9 0 0 1-1.273-1.274l1.071-1.071a2.601 2.601 0 1 0-3.678-3.679l-3.537 3.537a2.601 2.601 0 0 0 0 3.679.9.9 0 1 1-1.274 1.273 4.402 4.402 0 0 1 0-6.225l3.537-3.537Zm-.708 5.66a.9.9 0 0 1 1.273 0 4.402 4.402 0 0 1 0 6.224l-3.537 3.538a4.402 4.402 0 0 1-6.225-6.226l1.122-1.122a.9.9 0 0 1 1.273 1.274l-1.122 1.122a2.601 2.601 0 1 0 3.679 3.678l3.537-3.537a2.601 2.601 0 0 0 0-3.678.9.9 0 0 1 0-1.274Z" clip-rule="evenodd"/></svg>
