<svg xmlns="http://www.w3.org/2000/svg" width="24" height="24" fill="none" viewBox="0 0 24 24">
  <path fill="currentColor" fill-rule="evenodd" d="M3.932 11.707c0-3.635 3.485-6.807 8.084-6.807 4.6 0 8.084 3.172 8.084 6.807 0 3.635-3.485 6.807-8.084 6.807a9.338 9.338 0 0 1-3.28-.585.9.9 0 0 0-1.003.259c-.677.797-1.799 1.353-3.512 1.547.196-.434.4-.9.573-1.367.29-.783.526-1.653.526-2.553a.9.9 0 0 0-.178-.537c-.773-1.04-1.21-2.265-1.21-3.571ZM12.016 3.1c-5.324 0-9.884 3.729-9.884 8.607a7.72 7.72 0 0 0 1.377 4.38c-.04.519-.187 1.07-.403 1.657a22.77 22.77 0 0 1-.662 1.55l-.233.513c-.389.865.283 1.829 1.21 1.792 2.195-.086 4-.638 5.248-1.79 1.047.327 2.175.505 3.347.505 5.324 0 9.884-3.73 9.884-8.607 0-4.878-4.56-8.607-9.884-8.607Z" clip-rule="evenodd"/>
  <path fill="#A3ADB8" d="M11.156 7.795a.9.9 0 0 1 1.794.105v7.2l-.006.105a.9.9 0 0 1-1.794-.105V7.9l.006-.105ZM8.006 9.795A.9.9 0 0 1 9.8 9.9v3.2l-.006.105A.9.9 0 0 1 8 13.1V9.9l.006-.105ZM14.206 9.795A.9.9 0 0 1 16 9.9v3.2l-.006.105A.9.9 0 0 1 14.2 13.1V9.9l.006-.105Z"/>
</svg>
