<svg xmlns="http://www.w3.org/2000/svg" width="24" height="24" viewBox="0 0 24 24" fill="currentColor"><path d="M18.201 7.507C21.017 8.517 23 10.932 23 13.75c0 1.837-.843 3.503-2.211 4.718q.219 1.054.977 2.633l.147.3.029.076a.4.4 0 0 1-.48.491q-2.691-.643-3.986-1.75a8.8 8.8 0 0 1-2.226.282c-2.786 0-5.228-1.28-6.594-3.202l.094.002c5.223 0 9.55-3.768 9.55-8.55a8 8 0 0 0-.099-1.243M8.75 2c4.28 0 7.75 3.022 7.75 6.75s-3.47 6.75-7.75 6.75a8.8 8.8 0 0 1-2.226-.283q-1.295 1.11-3.986 1.751a.4.4 0 0 1-.48-.491l.029-.076.147-.3q.758-1.578.977-2.633C1.843 12.253 1 10.588 1 8.75 1 5.022 4.47 2 8.75 2"/></svg>