<svg fill="none" height="24" viewBox="0 0 24 24" width="24" xmlns="http://www.w3.org/2000/svg"><path d="m16.8722 2c1.7831 0 2.4296.18565 3.0815.53427.6518.34861 1.1634.86019 1.512 1.51204s.5343 1.29842.5343 3.08146v9.74443c0 1.7831-.1857 2.4296-.5343 3.0815-.3486.6518-.8602 1.1634-1.512 1.512-.6519.3486-1.2984.5343-3.0815.5343h-9.74443c-1.78304 0-2.42961-.1857-3.08146-.5343s-1.16343-.8602-1.51204-1.512c-.34862-.6519-.53427-1.2984-.53427-3.0815v-9.74443c0-1.78304.18565-2.42961.53427-3.08146.34861-.65185.86019-1.16343 1.51204-1.51204.65185-.34862 1.29842-.53427 3.08146-.53427zm.5639 2h-10.87221c-.89152 0-1.21481.09283-1.54074.26713-.32592.17431-.58171.4301-.75602.75602-.1743.32593-.26713.64922-.26713 1.54074v10.87221c0 .8915.09283 1.2148.26713 1.5407.17431.326.4301.5818.75602.7561.32593.1743.64922.2671 1.54074.2671h10.87221c.8915 0 1.2148-.0928 1.5407-.2671.326-.1743.5818-.4301.7561-.7561.1743-.3259.2671-.6492.2671-1.5407v-10.87221c0-.89152-.0928-1.21481-.2671-1.54074-.1743-.32592-.4301-.58171-.7561-.75602-.3259-.1743-.6492-.26713-1.5407-.26713z" fill="currentColor"/></svg>
