<svg fill="none" height="24" viewBox="0 0 24 24" width="24" xmlns="http://www.w3.org/2000/svg"><path clip-rule="evenodd" d="m2.43597 4.18404c-.43597.85565-.43597 1.97575-.43597 4.21596v7.2c0 2.2402 0 3.3603.43597 4.216.3835.7526.99542 1.3645 1.74807 1.748.85565.436 1.97575.436 4.21596.436h7.2c2.2402 0 3.3603 0 4.216-.436.7526-.3835 1.3645-.9954 1.748-1.748.436-.8557.436-1.9758.436-4.216v-7.2c0-2.24021 0-3.36031-.436-4.21596-.3835-.75265-.9954-1.36457-1.748-1.74807-.8557-.43597-1.9758-.43597-4.216-.43597h-7.2c-2.24021 0-3.36031 0-4.21596.43597-.75265.3835-1.36457.99542-1.74807 1.74807zm15.77113 5.02307c.3905-.39053.3905-1.02369 0-1.41422-.3905-.39052-1.0237-.39052-1.4142 0l-6.7929 6.79291-2.79289-2.7929c-.39053-.3905-1.02369-.3905-1.41422 0-.39052.3905-.39052 1.0237 0 1.4142l3.5 3.5c.39053.3905 1.02371.3905 1.41421 0z" fill="currentColor" fill-rule="evenodd"/></svg>
