<svg xmlns="http://www.w3.org/2000/svg" width="24" height="24" fill="currentColor" viewBox="0 0 24 24"><path fill-rule="evenodd" d="M11.697 2.152a.9.9 0 0 1 .606 0l7 2.5a.9.9 0 0 1 .597.848V13c0 2.85-1.568 5.077-3.243 6.55a11.883 11.883 0 0 1-2.531 1.71c-.758.374-1.537.64-2.126.64-.59 0-1.368-.265-2.126-.64a11.882 11.882 0 0 1-2.531-1.71C5.668 18.078 4.1 15.85 4.1 13V5.5a.9.9 0 0 1 .597-.848l7-2.5ZM5.9 6.134V13c0 2.15 1.182 3.923 2.632 5.2.72.633 1.482 1.12 2.14 1.446.696.345 1.167.454 1.328.454.16 0 .632-.11 1.328-.454.658-.325 1.42-.813 2.14-1.447C16.918 16.923 18.1 15.15 18.1 13V6.134L12 3.956 5.9 6.134Z" clip-rule="evenodd"/><path fill-rule="evenodd" d="M16.136 9.364a.9.9 0 0 1 0 1.272l-4.5 4.5a.9.9 0 0 1-1.272 0l-2.5-2.5a.9.9 0 0 1 1.272-1.272L11 13.227l3.864-3.863a.9.9 0 0 1 1.272 0Z" clip-rule="evenodd"/></svg>
