<svg xmlns="http://www.w3.org/2000/svg" width="24" height="24" fill="currentColor" viewBox="0 0 24 24"><path fill-rule="evenodd" d="M5.06 19.939a3.633 3.633 0 0 1 0-5.138L15.8 4.061A3.633 3.633 0 0 1 20.939 9.2l-10.74 10.74a3.633 3.633 0 0 1-5.137 0Zm1.274-3.865a1.833 1.833 0 0 0 2.591 2.592l.234-.234-2.592-2.592-.233.234Zm1.506-1.507 2.592 2.592 9.233-9.233a1.833 1.833 0 0 0-2.592-2.592L7.84 14.567Z M2.556 3.393a.9.9 0 0 1 1.251-.237c.968.66 1.542 1.411 1.817 2.244.267.81.219 1.6.131 2.262a18.97 18.97 0 0 1-.106.704c-.06.379-.113.698-.123 1.046-.014.47.065.83.306 1.157a.9.9 0 0 1-1.453 1.063c-.55-.752-.674-1.548-.652-2.274.014-.464.097-.984.168-1.429.03-.183.056-.353.076-.502.077-.582.082-1.045-.056-1.462-.13-.393-.42-.843-1.122-1.322a.9.9 0 0 1-.237-1.25Z"/></svg>
