<svg xmlns="http://www.w3.org/2000/svg" width="24" height="24" fill="currentColor" viewBox="0 0 24 24"><path d="M11.904 1.8a.9.9 0 1 0 0 1.8c2.137 0 4.29.814 5.847 2.278a8.4 8.4 0 0 1-4.704 14.456.9.9 0 1 0 .225 1.786 10.2 10.2 0 0 0 5.712-17.554C17.092 2.789 14.499 1.8 11.904 1.8ZM3.6 11.91a.9.9 0 0 0-1.8-.02c-.003.336.01.67.04 1.003a.9.9 0 0 0 1.792-.157 8.4 8.4 0 0 1-.031-.826Zm.954 3.978a.9.9 0 1 0-1.595.834 10.215 10.215 0 0 0 1.097 1.676.9.9 0 0 0 1.402-1.129 8.407 8.407 0 0 1-.904-1.38Zm3.426 3.487a.9.9 0 0 0-.862 1.58 10.189 10.189 0 0 0 1.845.782.9.9 0 0 0 .536-1.718 8.41 8.41 0 0 1-1.52-.644Z"/></svg>
