<svg xmlns="http://www.w3.org/2000/svg" width="24" height="24" viewBox="0 0 24 24" fill="currentColor"><path fill-rule="evenodd" d="M16.661 2.021a3.4 3.4 0 0 1 2.475 1.607c.32.526.452 1.205.643 2.106.068.317.161.698.116 1.056a1.9 1.9 0 0 1-.899 1.383c-.231.14-.506.215-.762.271L10.916 10h7.09c.264 0 .517 0 .729.017.166.013.352.04.541.108l.191.082.13.074a1.9 1.9 0 0 1 .701.757c.13.255.172.51.19.732.018.212.017.465.017.73v2c0 .965 0 1.743-.05 2.372-.053.639-.163 1.203-.43 1.726a4.4 4.4 0 0 1-1.923 1.922c-.522.266-1.086.378-1.725.43-.628.051-1.407.05-2.372.05h-4.002c-.965 0-1.743.002-2.372-.05-.639-.052-1.202-.164-1.725-.43a4.4 4.4 0 0 1-1.923-1.922c-.266-.523-.377-1.087-.43-1.726-.05-.629-.05-1.407-.05-2.372v-3.71l-.235-1.107c-.143-.67-.261-1.226-.32-1.685-.061-.47-.071-.92.05-1.37a3.4 3.4 0 0 1 1.144-1.762c.362-.293.776-.466 1.23-.602.444-.133 1-.252 1.67-.394l7.434-1.58c.901-.192 1.574-.347 2.185-.269M5.304 14.5c0 .994 0 1.687.044 2.226.043.527.124.829.24 1.055a2.6 2.6 0 0 0 1.135 1.136c.226.115.527.195 1.055.238.538.044 1.23.045 2.225.045h4.002c.995 0 1.687 0 2.226-.045.527-.043.828-.123 1.054-.238.49-.25.887-.647 1.136-1.136.115-.226.196-.528.24-1.055.043-.539.043-1.232.043-2.226v-2c0-.294 0-.462-.01-.583-.002-.037-.008-.06-.01-.074a.1.1 0 0 0-.023-.023q-.02-.004-.073-.01c-.122-.01-.289-.01-.583-.01H5.304zm2.112-8.868c-.698.148-1.17.248-1.527.355-.347.104-.51.193-.614.278a1.6 1.6 0 0 0-.54.829c-.034.129-.049.315-.002.673.047.37.147.843.295 1.541l.022.097 1.941-.412L8.133 5.48zm2.75-.584L9.024 8.56l3.346-.71 1.142-3.514zm6.267-1.24c-.17-.022-.378 0-.89.1l-1.138 3.509 3.205-.682c.206-.043.323-.067.408-.09l.05-.016a.1.1 0 0 0 .038-.06l-.006-.053a8 8 0 0 0-.081-.407c-.223-1.048-.3-1.347-.421-1.547a1.6 1.6 0 0 0-1.165-.754" clip-rule="evenodd"/></svg>