<svg xmlns="http://www.w3.org/2000/svg" width="24" height="24" fill="currentColor" viewBox="0 0 24 24"><path d="M17.595 2.164a2.901 2.901 0 0 1 3.44 2.235l.104.489a1.899 1.899 0 0 1-1.462 2.253l-9.225 1.958h9.505a1.9 1.9 0 0 1 1.9 1.9v8a2.9 2.9 0 0 1-2.9 2.9H5.935a2.901 2.901 0 0 1-2.9-2.9v-8c0-.418.135-.803.363-1.117a1.892 1.892 0 0 1-.67-1.086l-.104-.49a2.898 2.898 0 0 1 2.233-3.438l12.738-2.704ZM4.935 10.9a.1.1 0 0 0-.1.1v8a1.1 1.1 0 0 0 1.1 1.099h13.022a1.1 1.1 0 0 0 1.1-1.1v-8a.1.1 0 0 0-.1-.1H4.935Zm5.883 2.54a.5.5 0 0 1 .76-.428l3.412 2.058a.5.5 0 0 1 0 .857l-3.413 2.058a.5.5 0 0 1-.759-.427V13.44Zm8.456-8.667a1.1 1.1 0 0 0-1.304-.848L5.23 6.629a1.1 1.1 0 0 0-.846 1.304l.104.489a.1.1 0 0 0 .118.078l14.695-3.119a.1.1 0 0 0 .076-.12l-.104-.488Z"/></svg>