<svg xmlns="http://www.w3.org/2000/svg" width="24" height="24" viewBox="0 0 24 24" fill="currentColor"><path d="M8.572 11c.174 0 .743-.004 1.406.281.681.294 1.403.868 1.927 1.917a.9.9 0 0 1-1.61.805c-.332-.665-.733-.94-1.03-1.069-.314-.135-.58-.133-.694-.133-.999 0-1.509.4-1.81.867-.338.523-.46 1.213-.46 1.76l.007.27C6.46 18.438 8.964 20.2 12 20.2q.134 0 .263-.004a.9.9 0 0 1 .05 1.8Q12.158 22 12 22c-3.606 0-7.265-2.177-7.49-6.179l-.011-.393c0-.747.157-1.822.75-2.739C5.88 11.716 6.956 11 8.57 11zM15 14.804a.81.81 0 0 1 1.214-.695l5.386 3.196a.8.8 0 0 1 0 1.39l-5.386 3.196A.81.81 0 0 1 15 21.196zm1.234-4.009a.9.9 0 0 1 1.272-.06q.076.068.148.14a.9.9 0 0 1-1.261 1.283l-.098-.092a.9.9 0 0 1-.06-1.271m-1.7-8.058a1 1 0 0 1 1.93.526l-1.5 5.5a1 1 0 1 1-1.93-.527zM8.4 2.005a1 1 0 0 1 1.095.895l.5 5a1 1 0 0 1-1.99.2l-.5-5A1 1 0 0 1 8.4 2.004"/></svg>