<svg fill="none" height="24" viewBox="0 0 24 24" width="24" xmlns="http://www.w3.org/2000/svg"><g clip-rule="evenodd" fill="currentColor" fill-rule="evenodd"><path d="m10.2858 22.3286c-4.04752 0-7.32865-3.2811-7.32866-7.3286h1.8c0 3.0534 2.47525 5.5286 5.52856 5.5286h.4286c.497 0 .9.4029.9.9s-.403.9-.9.9z"/><path d="m13.6714 9.42863c0-.49706.403-.9.9-.9 1.8879 0 3.5451.99621 4.4521 2.49007.2579.4249.1226.9785-.3023 1.2364s-.9785.1226-1.2364-.3023c-.589-.9701-1.6705-1.6242-2.9134-1.6242-.497 0-.9-.40291-.9-.89997z"/><path d="m7.39083 3.90005c-.68088 0-1.2156.58323-1.15662 1.26156l.53697 6.17509-1.77257.3936-.55763-6.41276c-.15043-1.73 1.21332-3.21749 2.94985-3.21749 1.3587 0 2.54304.92471 2.87257 2.24284l.8954 3.58173c.1206.48222-.1726.97086-.6548 1.09141-.4822.12056-.97086-.17263-1.09141-.65484l-.89544-3.58174c-.12921-.51683-.59358-.8794-1.12632-.8794z"/><path d="m13.3951 3.47012c-.6247-.13883-1.2429.25788-1.377.88365l-.8524 3.97771c-.1041.48602-.5825.79559-1.0686.69144-.48599-.10415-.79556-.58257-.69141-1.0686l.85241-3.9777c.3435-1.60303 1.9271-2.61927 3.5275-2.26363 1.4958.33239 2.4887 1.75371 2.2862 3.27251l-.6083 4.56206c-.0657.49274-.5183.83884-1.011.77314s-.8389-.51834-.7732-1.01103l.6083-4.56207c.079-.59288-.3086-1.14772-.8925-1.27748z"/><path d="m9.79168 12.64c-.12479-.5616-.64079-.948-1.21479-.9097l-.81128.054c-1.69296.1129-3.00847 1.519-3.00847 3.2157h-1.8c0-2.6443 2.05025-4.8358 4.68874-5.01167l.81128-.05409c1.46083-.09739 2.77404.88606 3.09164 2.31526.3688 1.6594-.7302 3.2884-2.40696 3.5679l-.42245.0704c-.4903.0817-.954-.2495-1.03572-.7398-.08171-.4903.24951-.954.7398-1.0357l.42245-.0704c.65883-.1098 1.09065-.7499.94576-1.4019z"/><path d="m19.6909 17.5352-4.2958-2.4985v4.9969zm1.422 1.4866c1.1382-.662 1.1382-2.3113 0-2.9733l-5.1468-2.9934c-1.1415-.6639-2.571.1626-2.571 1.4867v5.9868c0 1.324 1.4295 2.1506 2.571 1.4867z"/></g></svg>
