<svg xmlns="http://www.w3.org/2000/svg" width="24" height="24" fill="currentColor" viewBox="0 0 24 24"><path fill-rule="evenodd" d="M9.766 2.355a9.9 9.9 0 0 1 12.057 8.412.9.9 0 1 1-1.786.224 8.101 8.101 0 1 0-9.043 9.046.9.9 0 0 1-.224 1.786A9.9 9.9 0 0 1 9.766 2.355Z M23 18a5 5 0 1 0-10 0 5 5 0 0 0 10 0Zm-5.828-2.764a.833.833 0 0 1 1.661.097v1.834h1.834l.097.005a.833.833 0 0 1-.097 1.661h-1.834v1.834l-.005.097a.833.833 0 0 1-1.661-.097v-1.834h-1.834l-.097-.005a.833.833 0 0 1 .097-1.661h1.834v-1.834l.005-.097ZM11.5 7.1a.9.9 0 0 1 .9.9v3.876l.216.081a.9.9 0 0 1-.632 1.686l-.8-.3a.9.9 0 0 1-.584-.843V8a.9.9 0 0 1 .9-.9Z" clip-rule="evenodd"/></svg>
