<svg xmlns="http://www.w3.org/2000/svg" width="24" height="24" fill="currentColor" viewBox="0 0 24 24"><path fill-rule="evenodd" d="M9.766 2.355a9.9 9.9 0 0 1 12.057 8.412.9.9 0 1 1-1.786.224 8.101 8.101 0 1 0-9.043 9.046.9.9 0 0 1-.224 1.786A9.9 9.9 0 0 1 9.766 2.355Z M18 23a5 5 0 1 0 0-10 5 5 0 0 0 0 10Zm1.47-7.24a.9.9 0 0 1 1.272 1.273l-2.716 3.203a.9.9 0 0 1-1.273 0l-1.485-1.51a.9.9 0 1 1 1.273-1.274l.848.875 2.08-2.567ZM11.5 7.1a.9.9 0 0 1 .9.9v3.876l.216.081a.9.9 0 0 1-.632 1.686l-.8-.3a.9.9 0 0 1-.584-.843V8a.9.9 0 0 1 .9-.9Z" clip-rule="evenodd"/></svg>
