<svg xmlns="http://www.w3.org/2000/svg" width="24" height="24" fill="currentColor" viewBox="0 0 24 24"><path fill-rule="evenodd" d="M9.566 2.404a9.9 9.9 0 0 1 12.25 8.312.9.9 0 1 1-1.784.234 8.1 8.1 0 1 0-8.663 9.125.9.9 0 1 1-.14 1.795A9.9 9.9 0 0 1 9.566 2.404Z M18.5 13c1.657 0 3 1.336 3 2.992V17l.748.001c.415 0 .752.34.752.76v4.48a.76.76 0 0 1-.752.759h-7.496a.756.756 0 0 1-.752-.76v-4.48a.76.76 0 0 1 .752-.759L15.5 17v-.999a3.003 3.003 0 0 1 2.824-2.996L18.5 13Zm0 1.5-.145.007A1.496 1.496 0 0 0 17 16v1.001h3V16c0-.834-.672-1.5-1.5-1.5Z M11.5 7.1a.9.9 0 0 1 .9.9v3.876l1.416.531a.9.9 0 0 1-.632 1.686l-2-.75a.9.9 0 0 1-.584-.843V8a.9.9 0 0 1 .9-.9Z" clip-rule="evenodd"/></svg>
