<svg xmlns="http://www.w3.org/2000/svg" width="24" height="24" fill="currentColor" viewBox="0 0 24 24"><path d="M12.75 3.634h.009a8.4 8.4 0 0 1 3.126.918l.01.006a8.401 8.401 0 0 1 1.377.902l.01.008a8.397 8.397 0 0 1 2.085 2.496l.006.012a8.388 8.388 0 0 1 .644 1.516l.004.013a8.395 8.395 0 0 1 .347 3.231l-.002.014a8.384 8.384 0 0 1-.307 1.618l-.003.011a8.398 8.398 0 0 1-1.51 2.886l-.006.007a8.39 8.39 0 0 1-1.155 1.175l-.008.006a8.402 8.402 0 0 1-2.862 1.562l-.007.002a8.392 8.392 0 0 1-1.46.317l-.006.001a8.883 8.883 0 0 1-.146.017.9.9 0 1 0 .192 1.79A10.2 10.2 0 0 0 12 1.8h-.089a.9.9 0 0 0 .016 1.8 8.4 8.4 0 0 1 .823.034ZM2.692 11.181a.9.9 0 0 1 .908.892c.003.276.019.55.048.823a.9.9 0 0 1-1.79.192 10.36 10.36 0 0 1-.058-.999.9.9 0 0 1 .892-.908Zm1.935 4.843a.9.9 0 0 0-1.58.863 10.212 10.212 0 0 0 1.125 1.652.9.9 0 1 0 1.381-1.154 8.421 8.421 0 0 1-.926-1.36Zm2.263 3.799a.9.9 0 0 1 1.215-.38 8.425 8.425 0 0 0 1.527.616.9.9 0 1 1-.508 1.727 10.232 10.232 0 0 1-1.854-.749.9.9 0 0 1-.38-1.214Z M12.4 8a.9.9 0 1 0-1.8 0v4.432a.9.9 0 0 0 .524.818l4.5 2.068a.9.9 0 0 0 .752-1.636L12.4 11.855V8Z"/></svg>
