<svg xmlns="http://www.w3.org/2000/svg" width="24" height="24" viewBox="0 0 24 24" fill="currentColor"><path d="M10.049 2.192a10 10 0 0 1 10.265 4.252A10 10 0 0 1 22 12a1 1 0 0 1-2 0 8 8 0 1 0-8 8 1 1 0 0 1 0 2 10 10 0 0 1-1.951-19.808m10.606 13.062a1.003 1.003 0 0 1 .71 1.71l-3.997 3.994a1 1 0 0 1-1.418 0l-1.998-1.996a1.003 1.003 0 1 1 1.418-1.418l1.29 1.298 3.286-3.295c.188-.188.443-.293.71-.293M12.224 7c.264 0 .518.095.706.264a.86.86 0 0 1 .293.635v4.498a.8.8 0 0 1-.075.345.9.9 0 0 1-.215.293l-2.997 2.698a1 1 0 0 1-.325.198 1.1 1.1 0 0 1-.768 0 1 1 0 0 1-.325-.198.9.9 0 0 1-.218-.292.82.82 0 0 1 0-.692.9.9 0 0 1 .218-.292l2.707-2.429V7.9c0-.238.105-.467.293-.635.187-.169.44-.264.706-.264"/></svg>