<svg xmlns="http://www.w3.org/2000/svg" width="24" height="24" fill="currentColor" viewBox="0 0 24 24"><path fill-rule="evenodd" d="M5.54 4.267a.9.9 0 1 0-1.273 1.272l1.306 1.307a5.864 5.864 0 0 0-.916 3.525c-1.575.886-2.652 2.547-2.652 4.469 0 2.877 2.402 5.159 5.302 5.159h8.512c.859 0 1.68-.171 2.426-.481l1.216 1.216a.9.9 0 1 0 1.273-1.273L5.539 4.267Zm11.277 13.822L6.89 8.164a4.055 4.055 0 0 0-.38 2.578.9.9 0 0 1-.55.996c-1.281.513-2.156 1.72-2.156 3.102 0 1.827 1.54 3.359 3.502 3.359h8.512c.344 0 .678-.038.998-.11ZM10.183 5.85c.21-.03.426-.046.646-.046 2.107 0 3.841 1.422 4.276 3.282a.9.9 0 0 0 .85.695c2.385.07 4.246 1.953 4.246 4.208 0 .492-.087.963-.248 1.4a.9.9 0 0 0 1.69.621 5.854 5.854 0 0 0 .358-2.02c0-3.063-2.34-5.553-5.332-5.955-.846-2.36-3.154-4.031-5.84-4.031-.305 0-.605.021-.898.063a.9.9 0 1 0 .252 1.782Z" clip-rule="evenodd"/></svg>
