<svg xmlns="http://www.w3.org/2000/svg" width="24" height="24" fill="currentColor" viewBox="0 0 24 24"><path fill-rule="evenodd" d="M19.2 8.556c-.002-.787-.58-1.69-1.914-2.44C15.98 5.383 14.111 4.9 12 4.9c-2.111 0-3.979.483-5.286 1.218C5.378 6.867 4.8 7.764 4.8 8.552s.578 1.685 1.914 2.436c1.307.735 3.175 1.218 5.286 1.218 2.111 0 3.979-.483 5.286-1.218 1.334-.75 1.912-1.645 1.914-2.432Zm0 3.308a7.587 7.587 0 0 1-1.031.692c-1.624.913-3.807 1.449-6.169 1.449-2.362 0-4.545-.536-6.169-1.45a7.585 7.585 0 0 1-1.031-.691v.23c0 .788.578 1.684 1.914 2.435 1.307.735 3.175 1.218 5.286 1.218 2.11 0 3.976-.482 5.284-1.216 1.336-.75 1.914-1.646 1.916-2.434m0 3.308a7.582 7.582 0 0 1-1.034.694c-1.624.912-3.805 1.447-6.166 1.447-2.362 0-4.545-.536-6.169-1.449a7.585 7.585 0 0 1-1.031-.692v.143c0 .788.578 1.684 1.914 2.435 1.307.735 3.175 1.218 5.286 1.218 2.11 0 3.976-.482 5.284-1.216 1.336-.75 1.914-1.646 1.916-2.434m1.8.04c-.021 1.708-1.25 3.072-2.834 3.962C16.542 20.464 14.36 21 12 21c-2.362 0-4.545-.536-6.169-1.449-1.582-.89-2.81-2.254-2.83-3.96L3 8.396c.026-1.7 1.253-3.06 2.831-3.947C7.455 3.536 9.638 3 12 3c2.36 0 4.542.536 6.166 1.447 1.58.888 2.807 2.248 2.834 3.95v7.194Zm-1.8-.04v-.146.146Zm0-3.454v-.233.233Z" clip-rule="evenodd"/></svg>
