<svg xmlns="http://www.w3.org/2000/svg" width="24" height="24" fill="none" viewBox="0 0 24 24"><path fill="currentColor" fill-rule="evenodd" d="M20.0442 3.961c-1.277-1.277-3.3474-1.277-4.6243 0l-4.0926 4.0926L9.5398 6.266a.9003.9003 0 0 0-1.2732 1.2732l1.7876 1.7875-4.3683 4.3683c-.3227.3227-.5161.516-.6946.7209a7.9025 7.9025 0 0 0-1.5921 2.8584c-.102.3299-.1763.668-.2553 1.0039l-.0183.0771c-.0611.2572-.1285.5405-.1234.787.0212 1.0188.842 1.8396 1.8607 1.8607.2465.0051.5299-.0623.787-.1234l.0772-.0183c.3359-.079.674-.1533 1.0038-.2552a7.9027 7.9027 0 0 0 2.8584-1.5922c.192-.1673.374-.3477.662-.6356 1.4759-1.4755 2.9515-2.9515 4.4272-4.4272l1.7876 1.7876a.9004.9004 0 0 0 1.2732 0 .9004.9004 0 0 0 0-1.2732l-1.7876-1.7876 4.0925-4.0925c1.277-1.277 1.277-3.3474 0-4.6244ZM11.3273 10.6l-4.3437 4.3437c-.3544.3544-.5018.5024-.6348.6551a6.1013 6.1013 0 0 0-1.2294 2.2072c-.0597.1934-.108.3966-.2228.8845-.0418.1779-.0672.2864-.0829.3668-.0211.1082.0386.153.1343.1343.0804-.0157.189-.041.3668-.0829.5678-.1335.7556-.1798.9794-.2529a6.103 6.103 0 0 0 2.1123-1.1993c.1527-.133.3007-.2804.6552-.6348l4.3437-4.3437-2.0781-2.078Z" clip-rule="evenodd"/></svg>
