<svg xmlns="http://www.w3.org/2000/svg" width="24" height="24" fill="currentColor" viewBox="0 0 24 24"><path fill-rule="evenodd" d="M17 12.5a5 5 0 1 1-10 0 5 5 0 0 1 10 0Zm-1.8 0a3.2 3.2 0 0 1-4.735 2.808l2.271-2.272a.9.9 0 0 0-1.272-1.272l-2.272 2.272A3.2 3.2 0 1 1 15.2 12.5Z M10.5 3a1.5 1.5 0 1 1 3 0 1.5 1.5 0 0 1-3 0Zm9.5 9.6a1.5 1.5 0 1 1 3 0 1.5 1.5 0 0 1-3 0Zm-19 0a1.5 1.5 0 1 1 3 0 1.5 1.5 0 0 1-3 0Zm2.5-7.1a1.5 1.5 0 1 1 3 0 1.5 1.5 0 0 1-3 0Zm14 0a1.5 1.5 0 1 1 3 0 1.5 1.5 0 0 1-3 0Zm-14 14a1.5 1.5 0 1 1 3 0 1.5 1.5 0 0 1-3 0Z"/><path d="M3.5 19.5a1.5 1.5 0 1 1 3 0 1.5 1.5 0 0 1-3 0Zm14 0a1.5 1.5 0 1 1 3 0 1.5 1.5 0 0 1-3 0Z"/></svg>
