<svg xmlns="http://www.w3.org/2000/svg" width="24" height="24" fill="currentColor" viewBox="0 0 24 24"><path fill-rule="evenodd" d="M3.381 5.911C3 6.66 3 7.64 3 9.6v2.8c0 1.96 0 2.94.381 3.689a3.5 3.5 0 0 0 1.53 1.53c.593.302 1.332.365 2.589.378V20.8c0 .855 1.007 1.314 1.655.754L13.265 18H15.4c1.96 0 2.94 0 3.689-.381a3.5 3.5 0 0 0 1.53-1.53C21 15.34 21 14.36 21 12.4V9.6c0-1.96 0-2.94-.381-3.689a3.5 3.5 0 0 0-1.53-1.53C18.34 4 17.36 4 15.4 4H8.6c-1.96 0-2.94 0-3.689.381a3.5 3.5 0 0 0-1.53 1.53Z" clip-rule="evenodd"/></svg>
