<svg xmlns="http://www.w3.org/2000/svg" width="24" height="24" fill="currentColor" viewBox="0 0 24 24"><path fill-rule="evenodd" d="M4.536 3.324a.9.9 0 1 0-1.272 1.274l.62.619A3.372 3.372 0 0 0 3 7.504V14.6c0 .98.365 1.848 1.019 2.466.65.615 1.53.934 2.481.934h.603v1.986c0 .465.179 1.167.758 1.568.329.227.737.315 1.163.224.397-.084.752-.31 1.068-.6.639-.586 2.525-2.46 3.244-3.178h3.358l2.27 2.266a.9.9 0 0 0 1.272-1.274L4.536 3.324ZM14.89 16.201l-9.73-9.71c-.22.269-.36.614-.36 1.013V14.6c0 .52.185.903.456 1.159.276.26.695.441 1.244.441h1.503a.9.9 0 0 1 .9.9v2.727c.758-.701 3.21-3.147 3.417-3.357a.9.9 0 0 1 .642-.27h1.928 M9.938 4.004a.9.9 0 0 0 0 1.8H17.6c.52 0 .903.186 1.159.456.26.276.441.695.441 1.244v7.526a.9.9 0 0 0 1.8 0V7.504c0-.952-.32-1.832-.934-2.481-.619-.654-1.486-1.019-2.466-1.019H9.938Z"/></svg>
