<svg xmlns="http://www.w3.org/2000/svg" width="24" height="24" viewBox="0 0 24 24" fill="currentColor"><path d="M16.895 4h-9.79c-1.152 0-1.74.113-2.35.44A3.17 3.17 0 0 0 3.44 5.754c-.327.613-.44 1.2-.44 2.351v5.791c0 1.152.113 1.74.44 2.35a3.17 3.17 0 0 0 1.315 1.315l.14.071c.517.25 1.05.352 1.954.367L7.1 18v2.215c0 .432.17.846.472 1.155l.116.108a1.65 1.65 0 0 0 2.217-.085L13.366 18h3.53c1.151 0 1.738-.113 2.35-.44a3.17 3.17 0 0 0 1.314-1.314c.327-.612.44-1.199.44-2.35V8.104c0-1.152-.113-1.74-.44-2.35a3.17 3.17 0 0 0-1.314-1.315c-.612-.327-1.199-.44-2.35-.44M6.912 5.801l9.983-.001c.88 0 1.187.06 1.502.228q.374.2.576.575c.168.315.227.622.227 1.502v5.79l-.004.368c-.017.607-.081.867-.224 1.134q-.2.375-.575.575c-.315.169-.622.228-1.502.228H13l-.117.008a.9.9 0 0 0-.513.25L8.9 19.856V17.1a.9.9 0 0 0-.9-.9h-.895l-.368-.004c-.607-.017-.867-.081-1.134-.224a1.37 1.37 0 0 1-.575-.575c-.169-.315-.228-.622-.228-1.502v-5.79l.004-.368c.017-.607.081-.867.224-1.134q.2-.374.575-.575c.291-.156.575-.218 1.309-.227"/></svg>