<svg xmlns="http://www.w3.org/2000/svg" width="24" height="24" fill="currentColor" viewBox="0 0 24 24"><path d="M19 17.1a.9.9 0 1 1-1.8 0 .9.9 0 0 1 1.8 0Z"/><path fill-rule="evenodd" d="M6.863 2.6h8.474c.669 0 1.224 0 1.678.037.473.039.913.122 1.329.334a3.4 3.4 0 0 1 1.485 1.485c.212.416.295.856.334 1.329.037.453.037 1.01.037 1.678v2.625c.164.037.328.091.49.174a2.4 2.4 0 0 1 1.048 1.048c.158.309.214.626.239.931.023.288.023.634.023 1.026v4.466c0 .392 0 .738-.023 1.026-.025.305-.081.622-.239.93a2.4 2.4 0 0 1-1.048 1.05 2.447 2.447 0 0 1-.931.238c-.288.023-.634.023-1.026.023h-1.466c-.392 0-.738 0-1.026-.023-.305-.025-.622-.081-.93-.239a2.4 2.4 0 0 1-.86-.738H5.9a.9.9 0 0 1 0-1.8h4.3v-2.4H6.863c-.669 0-1.225 0-1.678-.037-.473-.039-.913-.122-1.329-.334a3.4 3.4 0 0 1-1.485-1.486c-.212-.415-.295-.855-.334-1.328C2 12.161 2 11.605 2 10.937V7.463c0-.669 0-1.225.037-1.678.039-.473.122-.913.334-1.329a3.4 3.4 0 0 1 1.485-1.485c.416-.212.856-.295 1.329-.334.453-.037 1.01-.037 1.678-.037ZM12 18.2h2.002C14 18.053 14 17.897 14 17.733V15.8h-2v2.4Zm2-4.2v-.733c0-.392 0-.738.023-1.025.025-.306.081-.623.239-.932a2.4 2.4 0 0 1 1.048-1.048c.309-.158.626-.214.931-.239.288-.023.634-.023 1.026-.023H18.4V7.5c0-.715 0-1.197-.031-1.569-.03-.36-.083-.538-.143-.657a1.6 1.6 0 0 0-.7-.7c-.119-.06-.296-.113-.657-.143-.372-.03-.854-.031-1.569-.031H6.9c-.715 0-1.197 0-1.569.031-.36.03-.538.083-.657.143a1.6 1.6 0 0 0-.7.7c-.06.119-.113.296-.143.657-.03.372-.031.854-.031 1.569v3.4c0 .715 0 1.197.031 1.569.03.36.083.538.143.657a1.6 1.6 0 0 0 .7.7c.119.06.296.113.657.143.372.03.854.031 1.569.031H14Zm2.128-2.135c.012-.006.066-.032.26-.048.205-.016.477-.017.912-.017h1.4c.435 0 .707 0 .912.017.194.016.248.042.26.048a.6.6 0 0 1 .263.263c.006.012.032.066.048.26.016.205.017.477.017.912v4.4c0 .435 0 .707-.017.912-.016.194-.042.248-.048.26a.6.6 0 0 1-.263.263c-.012.006-.066.032-.26.048a13.19 13.19 0 0 1-.912.017h-1.4c-.435 0-.707 0-.912-.017-.194-.016-.248-.042-.26-.048a.6.6 0 0 1-.263-.263c-.006-.012-.032-.066-.048-.26a12.688 12.688 0 0 1-.017-.912v-4.4c0-.435 0-.707.017-.912.016-.194.042-.248.048-.26a.6.6 0 0 1 .263-.263Z" clip-rule="evenodd"/></svg>
