<svg xmlns="http://www.w3.org/2000/svg" width="24" height="24" fill="currentColor" viewBox="0 0 24 24"><path fill-rule="evenodd" d="M3.1 10.5c0-2.24 0-3.36.436-4.216a4 4 0 0 1 1.748-1.748C6.14 4.1 7.26 4.1 9.5 4.1h5c2.24 0 3.36 0 4.216.436a4 4 0 0 1 1.748 1.748c.436.856.436 1.976.436 4.216s0 3.36-.436 4.216a4 4 0 0 1-1.748 1.748c-.836.426-1.924.436-4.063.436l.55 2.2H17.1a.9.9 0 1 1 0 1.8H6.9a.9.9 0 1 1 0-1.8h1.897l.55-2.2c-2.139 0-3.227-.01-4.063-.436a4 4 0 0 1-1.748-1.748C3.1 13.86 3.1 12.74 3.1 10.5Zm11.4-4.6h-5c-1.15 0-1.904.001-2.48.048-.556.046-.787.125-.919.192a2.2 2.2 0 0 0-.961.961c-.067.132-.146.363-.191.918C4.9 8.596 4.9 9.35 4.9 10.5s.001 1.904.049 2.48c.045.556.124.787.19.919.212.414.548.75.962.961.132.067.363.146.918.192.577.047 1.331.048 2.481.048h5c1.15 0 1.904-.001 2.48-.048.556-.046.787-.125.919-.192a2.2 2.2 0 0 0 .961-.961c.067-.132.146-.363.192-.918.047-.577.048-1.331.048-2.481s-.001-1.904-.049-2.48c-.045-.556-.124-.787-.19-.919a2.2 2.2 0 0 0-.962-.961c-.132-.067-.363-.146-.918-.192-.577-.047-1.331-.048-2.481-.048Zm-3.297 11-.55 2.2h2.694l-.55-2.2h-1.594Z" clip-rule="evenodd"/></svg>
