<svg xmlns="http://www.w3.org/2000/svg" width="24" height="24" viewBox="0 0 24 24" fill="currentColor"><path fill-rule="evenodd" d="M15.466 6.602c.757.007 1.223.036 1.622.148a4 4 0 0 1 2.764 2.765c.15.532.15 1.183.15 2.484l-.001.862c-.007.757-.036 1.224-.149 1.623l-.078.247a4 4 0 0 1-2.686 2.518l-.206.049c-.357.072-.785.093-1.416.099h-.82l.482 1.8h1.977a.9.9 0 0 1 0 1.8h-10.2a.9.9 0 0 1 0-1.8h1.971l.481-1.8c-1.11 0-1.74 0-2.233-.1l-.206-.048a4 4 0 0 1-2.687-2.518l-.078-.247c-.15-.532-.15-1.184-.15-2.485 0-1.138 0-1.78.1-2.278l.05-.206A4 4 0 0 1 6.67 6.828l.248-.078c.532-.15 1.183-.15 2.484-.15h5.202zM10.74 19.196h2.523l-.482-1.798h-1.56zM9.402 8.4c-1.423 0-1.763.018-1.996.083a2.2 2.2 0 0 0-1.52 1.52c-.066.233-.083.575-.083 1.997s.017 1.764.083 1.996a2.2 2.2 0 0 0 1.52 1.52c.233.066.573.084 1.996.084h5.202c1.422 0 1.763-.018 1.996-.083a2.2 2.2 0 0 0 1.52-1.52c.066-.233.083-.575.083-1.997s-.017-1.764-.083-1.996a2.2 2.2 0 0 0-1.52-1.52c-.233-.066-.573-.084-1.997-.084z" clip-rule="evenodd"/><path d="M15.196 2.997c.997 0 1.805.809 1.805 1.806H6.999c0-.997.808-1.806 1.805-1.806z"/></svg>