<svg xmlns="http://www.w3.org/2000/svg" width="24" height="24" fill="currentColor" viewBox="0 0 24 24"><path fill-rule="evenodd" d="M12.966 7.752a2 2 0 1 0-1.932 0l-2.569 3.597c-.163.228-.244.342-.35.397a.5.5 0 0 1-.305.051c-.12-.018-.233-.1-.46-.262l-1.976-1.41a2 2 0 1 0-2.019 1.06L4.5 15h15l1.145-3.815a2 2 0 1 0-2.019-1.06l-1.975 1.41c-.228.163-.342.244-.46.262a.5.5 0 0 1-.305-.05c-.107-.056-.188-.17-.35-.398l-2.57-3.597ZM9.57 20c-1.281 0-1.922 0-2.462-.218a3 3 0 0 1-1.219-.907c-.341-.427-.525-.993-.85-2.075h13.92c-.325 1.082-.509 1.648-.85 2.075a3 3 0 0 1-1.219.907c-.54.218-1.18.218-2.462.218H9.57Z" clip-rule="evenodd"/></svg>
