<svg xmlns="http://www.w3.org/2000/svg" width="24" height="24" fill="none" viewBox="0 0 24 24"><rect width="24" height="24" fill="url(#a)" rx="12"/><path fill="#fff" d="M12.7859 8.7779c.4285-.2641.7141-.7377.7141-1.2779 0-.8284-.6716-1.5-1.5-1.5s-1.5.6716-1.5 1.5c0 .5402.2856 1.0137.714 1.2778l-1.9545 2.9223a.5.5 0 0 1-.7086.1272L6.87 10.612A1.4945 1.4945 0 0 0 7 10c0-.8284-.6716-1.5-1.5-1.5S4 9.1716 4 10s.6716 1.5 1.5 1.5c.0305 0 .0608-.0009.0909-.0027L6.326 14h11.3717l.7347-2.5015c.0224.001.045.0015.0676.0015.8284 0 1.5-.6716 1.5-1.5s-.6716-1.5-1.5-1.5S17 9.1716 17 10c0 .223.0487.4347.136.6249l-1.6793 1.214a.5.5 0 0 1-.7085-.1272l-1.9623-2.9338ZM17.3506 15.5H6.6462l.2546 1.1496A1.723 1.723 0 0 0 8.5831 18h6.832a1.7231 1.7231 0 0 0 1.6828-1.3524l.2527-1.1476Z"/><defs><linearGradient id="a" x1="20.4" x2="3.6" y1="3.6" y2="20.4" gradientUnits="userSpaceOnUse"><stop stop-color="#FF22A6"/><stop offset=".0667" stop-color="#FD23A7"/><stop offset=".1333" stop-color="#F625A9"/><stop offset=".2" stop-color="#EA29AD"/><stop offset=".2667" stop-color="#D92FB3"/><stop offset=".3333" stop-color="#C436BB"/><stop offset=".4" stop-color="#AA3EC4"/><stop offset=".4667" stop-color="#8E48CD"/><stop offset=".5333" stop-color="#7151D8"/><stop offset=".6" stop-color="#555BE1"/><stop offset=".6667" stop-color="#3B63EA"/><stop offset=".7333" stop-color="#266AF2"/><stop offset=".8" stop-color="#1570F8"/><stop offset=".8667" stop-color="#0974FC"/><stop offset=".9333" stop-color="#0276FE"/><stop offset="1" stop-color="#07F"/></linearGradient></defs></svg>
