<svg width="24" height="24" viewBox="0 0 24 24" fill="none" xmlns="http://www.w3.org/2000/svg">
<path fill-rule="evenodd" clip-rule="evenodd" d="M4.15475 5.50189L4.05444 5.54634C3.60521 5.7451 3.1893 5.92913 2.87046 6.2346C2.59181 6.50157 2.37874 6.82943 2.24795 7.19249C2.0983 7.60792 2.09905 8.06273 2.09987 8.55396L2.09999 8.66368V15.4403L2.09986 15.5456C2.09902 16.003 2.09822 16.4394 2.24203 16.8386C2.36759 17.1871 2.57213 17.5019 2.83964 17.7582C3.14604 18.0517 3.54511 18.2282 3.96341 18.4132L4.05973 18.4559L10.4127 21.2795C10.8145 21.4585 11.1536 21.6095 11.5171 21.6709C11.8368 21.7249 12.1632 21.7249 12.4829 21.6709C12.8464 21.6095 13.1854 21.4585 13.5873 21.2795L19.9402 18.4559L20.0365 18.4132C20.4549 18.2282 20.8539 18.0517 21.1603 17.7582C21.4278 17.5019 21.6324 17.1871 21.7579 16.8386C21.9018 16.4394 21.901 16.003 21.9001 15.5456L21.9 15.4403V8.66368L21.9001 8.55395C21.9009 8.06272 21.9017 7.60792 21.752 7.19249C21.6212 6.82943 21.4082 6.50157 21.1295 6.2346C20.8107 5.92913 20.3948 5.7451 19.9455 5.54634L19.8452 5.50189L13.5873 2.72053C13.1854 2.54153 12.8464 2.39051 12.4829 2.32912C12.1632 2.27514 11.8368 2.27514 11.5171 2.32912C11.1536 2.39051 10.8145 2.54153 10.4127 2.72053L4.15475 5.50189ZM12.1831 4.10399C12.0619 4.08352 11.9381 4.08352 11.8168 4.10399C11.7061 4.12268 11.5866 4.16862 11.0659 4.40005L9.71598 5L16.5 8.01511L18.784 7L12.9341 4.40005C12.4134 4.16862 12.2938 4.12268 12.1831 4.10399ZM20.099 8.38532L16.8688 9.82096C16.8668 9.82187 16.8648 9.82278 16.8627 9.82367L13.5873 11.2795C13.3413 11.389 13.1189 11.4881 12.9 11.5626V19.6151L19.2092 16.811C19.788 16.5538 19.8666 16.5049 19.9151 16.4584C19.982 16.3944 20.0331 16.3157 20.0645 16.2285C20.0872 16.1654 20.1 16.0737 20.1 15.4403V8.66368C20.1 8.55758 20.0997 8.46549 20.099 8.38532ZM11.1 11.5626C10.8811 11.4881 10.6586 11.389 10.4127 11.2795L3.90096 8.38532C3.90031 8.46549 3.89999 8.55758 3.89999 8.66368V15.4403C3.89999 16.0737 3.91276 16.1654 3.9355 16.2285C3.96689 16.3157 4.01802 16.3944 4.0849 16.4584C4.13335 16.5049 4.212 16.5538 4.79078 16.811L11.1 19.6151V11.5626ZM5.21598 7L11.0659 9.59995C11.5866 9.83138 11.7061 9.87732 11.8168 9.89601C11.9381 9.91648 12.0619 9.91648 12.1831 9.89601C12.2938 9.87732 12.4134 9.83138 12.9341 9.59995L14.284 9L7.49999 5.98489L5.21598 7Z" fill="currentColor"/>
</svg>
