<svg fill="none" height="24" viewBox="0 0 24 24" width="24" xmlns="http://www.w3.org/2000/svg"><path clip-rule="evenodd" d="m16.8895 2.25652c-.4607-.15781-.967-.15725-1.5695-.15658h-6.63997c-.60257-.00067-1.1088-.00123-1.5695.15658-.89253.30573-1.63548 1.11005-1.86955 2.02399-.07119.27793-.08729.55459-.07947.84726-.46182-.06665-.93719-.01179-1.37075.16163-.9916.39663-1.69075 1.37018-1.69075 2.71062 0 2.35918 2.09361 4.52598 4.70935 4.85648.61345 1.3408 1.49523 2.6298 2.78727 3.3915-.01759.6284-.07885 1.331-.51708 1.8204-.19812.2212-.41901.418-.58788.6647-.25218.3685-.39167.8023-.39167 1.3669l.00001.9c.00001.4971.40295.9.9.9h5.99999c.497 0 .9-.4029.9-.9v-.9c0-.5646-.1395-.9984-.3917-1.3669-.1689-.2468-.3897-.4435-.5878-.6647-.4383-.4894-.4995-1.192-.5171-1.8204 1.292-.7617 2.1738-2.0507 2.7873-3.3915 2.6157-.3305 4.7093-2.4973 4.7093-4.85648 0-1.34044-.6991-2.31399-1.6907-2.71062-.4336-.17342-.909-.22828-1.3708-.16163.0078-.29267-.0083-.56933-.0795-.84726-.234-.91394-.977-1.71826-1.8695-2.02399zm-8.08949 1.64351c-.78782 0-.96699.01168-1.10618.05936-.31879.1092-.62553.44128-.70914.76772-.03714.14502-.03596.29679.01991.99995.22674 2.85363.81648 5.26534 1.71582 6.93294.89484 1.6593 2.00288 2.44 3.27958 2.44s2.3848-.7807 3.2796-2.44c.8993-1.6676 1.4891-4.07931 1.7158-6.93294.0559-.70316.0571-.85493.0199-.99995-.0836-.32644-.3903-.65852-.7091-.76772-.1392-.04768-.3184-.05936-1.1062-.05936zm-4.34076 3.06063c-.2584.10336-.55924.3798-.55924 1.03936 0 1.07729.85932 2.28228 2.16308 2.81748-.30462-1.04996-.53409-2.19763-.69248-3.41089-.01254-.09599-.0188-.14399-.05489-.21771-.15301-.31256-.56437-.34508-.85647-.22824zm15.08155 0c.2584.10336.5592.3798.5592 1.03936 0 1.07729-.8593 2.28228-2.1631 2.81748.3046-1.04997.5341-2.19763.6925-3.41089.0125-.09599.0188-.14399.0549-.21771.153-.31254.563-.34562.8565-.22824zm-9.1203 12.30854c-.1436.1603-.3216.3025-.44341.4805-.02907.0425-.07708.115-.07709.3503h4.2c0-.2353-.048-.3078-.0771-.3502-.1218-.1781-.2998-.3203-.4434-.4806-.602-.6723-.8595-1.5266-.9422-2.4102-.4134.0542-.8612.0542-1.2745 0-.0828.8836-.3403 1.7379-.9423 2.4102z" fill="currentColor" fill-rule="evenodd"/></svg>
