<svg xmlns="http://www.w3.org/2000/svg" width="24" height="24" viewBox="0 0 24 24" fill="currentColor"><path d="M17.507 7c.242 0 .48 0 .68.017.157.013.34.04.528.112l.19.088.126.076c.284.19.505.46.637.778.11.267.124.526.118.736-.006.2-.033.438-.06.678l-.93 8.173c-.07.614-.126 1.125-.206 1.54-.083.426-.2.82-.424 1.186a3.4 3.4 0 0 1-1.458 1.302c-.389.181-.793.254-1.226.288-.421.032-.936.031-1.554.031h-3.855c-.617 0-1.132.002-1.554-.031-.432-.034-.837-.107-1.225-.288a3.4 3.4 0 0 1-1.458-1.302c-.225-.366-.342-.759-.424-1.185-.08-.415-.138-.926-.208-1.54l-.93-8.173c-.027-.24-.055-.478-.06-.678-.006-.21.007-.47.118-.737.15-.362.419-.664.762-.854l.19-.088a2 2 0 0 1 .528-.112C6.012 7 6.251 7 6.492 7zM8.943 9.605a.9.9 0 0 0-.843.954l.5 8a.901.901 0 0 0 1.797-.112l-.5-8a.9.9 0 0 0-.954-.842m6.111 0a.9.9 0 0 0-.954.842l-.5 8a.901.901 0 0 0 1.797.111l.5-8a.9.9 0 0 0-.843-.953M4.002 4.502h15.996"/><rect width="7" height="3.501" x="8.5" y="2.002" rx="1.666"/></svg>