<svg xmlns="http://www.w3.org/2000/svg" width="24" height="24" fill="currentColor" viewBox="0 0 24 24"><path fill-rule="evenodd" d="M10.102 4.1a2.1 2.1 0 0 1 3.796 0h-3.796Zm-1.898 0H3a.9.9 0 1 0 0 1.8h1.18l1.155 12.316c.045.484.084.898.143 1.237.062.359.157.704.351 1.03a2.9 2.9 0 0 0 1.249 1.137c.342.162.695.225 1.057.253.344.027.76.027 1.246.027h.033a.9.9 0 1 0 0-1.8c-.528 0-.873 0-1.138-.021-.254-.02-.362-.055-.426-.085a1.1 1.1 0 0 1-.474-.432c-.036-.06-.08-.165-.124-.416a16.297 16.297 0 0 1-.128-1.131L5.988 5.9h12.024l-.236 2.516a.9.9 0 0 0 1.792.168L19.82 5.9H21a.9.9 0 0 0 0-1.8h-5.204a3.902 3.902 0 0 0-7.592 0ZM23 17a6 6 0 1 1-12 0 6 6 0 0 1 12 0Zm-5.25-2.5a.75.75 0 0 0-1.5 0v3.19l-.97-.97a.75.75 0 1 0-1.06 1.06l2.25 2.25a.75.75 0 0 0 1.06 0l2.25-2.25a.75.75 0 1 0-1.06-1.06l-.97.97V14.5Z" clip-rule="evenodd"/></svg>
