<svg xmlns="http://www.w3.org/2000/svg" width="24" height="24" viewBox="0 0 24 24" fill="currentColor"><path fill-rule="evenodd" d="M17.507 7c.242 0 .48 0 .68.017.157.013.34.04.529.112l.19.088.125.076c.284.19.506.46.637.778.11.267.124.526.118.736-.006.2-.033.438-.06.678l-.93 8.174c-.069.613-.126 1.125-.206 1.54-.082.426-.2.82-.424 1.185a3.4 3.4 0 0 1-1.458 1.302c-.389.181-.793.254-1.226.288-.42.032-.936.03-1.553.03h-3.857c-.617 0-1.131.002-1.552-.03-.433-.034-.837-.107-1.226-.288a3.4 3.4 0 0 1-1.458-1.302c-.224-.366-.342-.76-.424-1.185-.08-.415-.138-.926-.208-1.539l-.93-8.174c-.027-.24-.054-.478-.06-.678a1.8 1.8 0 0 1 .118-.737c.15-.362.42-.664.763-.854l.19-.088a2 2 0 0 1 .527-.112C6.013 7 6.252 7 6.494 7zM8.944 9.604a.9.9 0 0 0-.842.955l.5 8a.901.901 0 0 0 1.797-.111l-.5-8a.9.9 0 0 0-.955-.844m6.112 0a.9.9 0 0 0-.954.843l-.5 8a.901.901 0 0 0 1.796.112l.5-8a.9.9 0 0 0-.842-.955" clip-rule="evenodd"/><path d="M13.834 2.002c.864 0 1.574.658 1.657 1.5h4.507a1 1 0 0 1 0 2H4.002a1 1 0 0 1 0-2h4.507c.083-.842.793-1.5 1.657-1.5z"/></svg>