<svg width="24" height="24" viewBox="0 0 24 24" fill="none" xmlns="http://www.w3.org/2000/svg">
<path d="M20.4925 7C21.3251 7 22 7.67493 22 8.5075V21.7869C22 21.9201 21.9471 22.0479 21.8528 22.1422C21.6566 22.3384 21.3384 22.3384 21.1422 22.1422L18 19H8.5075C7.67493 19 7 18.3251 7 17.4925V16H15.985C17.6501 16 19 14.6501 19 12.985V7H20.4925ZM14.99 3C16.1001 3 17 3.89991 17 5.01V12.4925C17 13.3251 16.3251 14 15.4925 14H6L2.85782 17.1422C2.76358 17.2364 2.63577 17.2894 2.5025 17.2894C2.22498 17.2894 2 17.0644 2 16.7869V4.5075C2 3.67493 2.67493 3 3.5075 3H14.99Z" fill="currentColor"/>
</svg>
