<svg fill="none" height="24" viewBox="0 0 24 24" width="24" xmlns="http://www.w3.org/2000/svg"><path d="m12 24c6.6274 0 12-5.3726 12-12 0-6.62742-5.3726-12-12-12-6.62742 0-12 5.37258-12 12 0 6.6274 5.37258 12 12 12z" fill="#000" opacity=".24"/><path d="m16.7364 7.2636c.3515.35148.3515.92132 0 1.2728l-3.4634 3.4636 3.4634 3.4636c.3222.3222.349.8279.0806 1.1806l-.0806.0922c-.3515.3515-.9213.3515-1.2728 0l-3.4636-3.4634-3.4636 3.4634c-.35148.3515-.92132.3515-1.2728 0-.35147-.3515-.35147-.9213 0-1.2728l3.4634-3.4636-3.4634-3.4636c-.32218-.32219-.34903-.82787-.08054-1.18063l.08054-.09217c.35148-.35147.92132-.35147 1.2728 0l3.4636 3.4634 3.4636-3.4634c.3515-.35147.9213-.35147 1.2728 0z" fill="#fff"/></svg>
