<svg fill="none" height="24" viewBox="0 0 24 24" width="24" xmlns="http://www.w3.org/2000/svg"><path d="m23 12c0 6.0751-4.9249 11-11 11-6.07513 0-11-4.9249-11-11 0-6.07513 4.92487-11 11-11 6.0751 0 11 4.92487 11 11z" fill="#99a2ad" stroke="#fff" stroke-width="2"/><path d="m16.7364 7.2636c.3515.35147.3515.92132 0 1.27279l-3.4634 3.46361 3.4634 3.4636c.3222.3222.349.8279.0805 1.1806l-.0805.0922c-.3515.3515-.9213.3515-1.2728 0l-3.4636-3.4634-3.46361 3.4634c-.35147.3515-.92132.3515-1.27279 0-.35148-.3515-.35148-.9213 0-1.2728l3.4634-3.4636-3.4634-3.46361c-.32219-.32218-.34903-.82786-.08055-1.18063l.08055-.09216c.35147-.35147.92132-.35147 1.27279 0l3.46361 3.4634 3.4636-3.4634c.3515-.35147.9213-.35147 1.2728 0z" fill="#fff"/></svg>