<svg height="24" viewBox="0 0 24 24" width="24" xmlns="http://www.w3.org/2000/svg"><path d="m12 0c6.627417 0 12 5.372583 12 12s-5.372583 12-12 12-12-5.372583-12-12 5.372583-12 12-12zm4.7364022 7.26359779c-.3514719-.35147186-.9213203-.35147186-1.2727922 0l-3.4636161 3.46339611-3.4636039-3.46339611-.09216473-.08054563c-.35276538-.26848545-.85844494-.24163691-1.18062748.08054563l-.08054563.09216473c-.26848545.35276538-.24163691.85844494.08054563 1.18062748l3.46339611 3.4636039-3.46339611 3.4636161c-.35147186.3514719-.35147186.9213203 0 1.2727922.35147187.3514719.92132035.3514719 1.27279221 0l3.4636039-3.4634083 3.4636161 3.4634083.0921647.0805456c.3527654.2684855.858445.2416369 1.1806275-.0805456l.0805456-.0921647c.2684855-.3527654.2416369-.858445-.0805456-1.1806275l-3.4634083-3.4636161 3.4634083-3.4636039c.3514719-.35147186.3514719-.92132034 0-1.27279221z" fill="currentColor"/></svg>
