<svg xmlns="http://www.w3.org/2000/svg" width="24" height="24" fill="currentColor" viewBox="0 0 24 24"><path fill-rule="evenodd" d="M12.473 2c.3 0 .586 0 .866.066a2.4 2.4 0 0 1 .694.288c.245.15.447.353.659.565l4.389 4.39c.212.21.415.413.565.658a2.4 2.4 0 0 1 .288.694c.067.28.066.566.066.866V12.1a.9.9 0 0 1-1.8 0V10h-2.135c-.53 0-.982 0-1.352-.03-.389-.032-.768-.102-1.13-.286a2.9 2.9 0 0 1-1.267-1.267c-.184-.362-.254-.74-.286-1.13-.03-.37-.03-.822-.03-1.352V3.8h-1.5c-.995 0-1.687 0-2.226.045-.527.043-.828.123-1.054.238A2.6 2.6 0 0 0 6.083 5.22c-.115.226-.195.527-.238 1.055C5.8 6.813 5.8 7.505 5.8 8.5v7c0 .995 0 1.687.045 2.226.043.527.123.828.238 1.054a2.6 2.6 0 0 0 1.137 1.137c.226.115.527.195 1.054.238.539.044 1.231.045 2.226.045h1.6a.9.9 0 0 1 0 1.8h-1.638c-.948 0-1.714 0-2.334-.05-.64-.053-1.203-.163-1.726-.43a4.4 4.4 0 0 1-1.922-1.922c-.267-.523-.377-1.087-.43-1.726C4 17.252 4 16.486 4 15.538V8.462c0-.948 0-1.714.05-2.334.053-.64.163-1.203.43-1.726A4.4 4.4 0 0 1 6.402 2.48c.523-.267 1.087-.377 1.726-.43C8.748 2 9.514 2 10.462 2h2.011ZM13.8 4.573 17.427 8.2H16.1c-.575 0-.952 0-1.24-.024-.278-.023-.393-.062-.46-.096a1.1 1.1 0 0 1-.48-.48c-.034-.066-.073-.182-.096-.46A17.426 17.426 0 0 1 13.8 5.9V4.573Zm2.3 12.502v5.022a.9.9 0 1 0 1.8 0v-5.022l1.561 1.561a.9.9 0 1 0 1.273-1.272l-3.098-3.098a.9.9 0 0 0-1.272 0l-3.098 3.098a.9.9 0 1 0 1.273 1.272l1.561-1.56Z" clip-rule="evenodd"/></svg>
