<svg xmlns="http://www.w3.org/2000/svg" width="24" height="24" fill="currentColor" viewBox="0 0 24 24"><path fill-rule="evenodd" d="M12.9 2.899a.9.9 0 0 0-1.8 0v1.109c-1.24.115-2.358.468-3.235 1.033-1.093.704-1.863 1.781-1.863 3.117 0 .756.106 1.863 1.025 2.836.793.84 2.08 1.462 4.073 1.79v5.406c-2.017-.2-2.96-1.064-3.452-1.792a.9.9 0 1 0-1.49 1.009c.822 1.216 2.3 2.375 4.942 2.59v1.105a.9.9 0 0 0 1.8 0v-1.11c1.24-.115 2.358-.469 3.235-1.033 1.093-.704 1.863-1.78 1.863-3.116 0-.757-.106-1.864-1.025-2.837-.793-.84-2.08-1.461-4.073-1.79v-5.4c1.98.226 2.961 1.18 3.494 1.84a.9.9 0 1 0 1.4-1.13c-.776-.963-2.213-2.276-4.894-2.52V2.9Zm-1.8 2.918c-.93.107-1.702.378-2.26.738-.724.465-1.038 1.034-1.038 1.603 0 .582.084 1.123.534 1.6.399.423 1.185.9 2.764 1.198V5.817Zm1.8 7.227v5.138c.93-.107 1.702-.377 2.26-.737.724-.465 1.038-1.033 1.038-1.602 0-.583-.084-1.124-.534-1.601-.398-.422-1.185-.9-2.764-1.198Z" clip-rule="evenodd"/></svg>
