<svg xmlns="http://www.w3.org/2000/svg" width="24" height="24" viewBox="0 0 24 24" fill="currentColor"><path fill-rule="evenodd" d="M8.61 2.371c1.706-.954 3.72-.907 5.612-.143 1.887.761 3.7 2.247 5.144 4.27a.87.87 0 0 1-.221 1.236.93.93 0 0 1-1.269-.234c-1.278-1.792-2.828-3.024-4.33-3.63-1.496-.604-2.9-.576-4.015.048-1.203.674-1.959 1.985-2.088 3.742-.13 1.76.382 3.902 1.654 6.037 1.273 2.137 2.933 3.64 4.57 4.41 1.636.77 3.184.791 4.388.118a3.8 3.8 0 0 0 1.538-1.628.913.913 0 0 1 1.219-.39.89.89 0 0 1 .415 1.195 5.55 5.55 0 0 1-2.25 2.37 6 6 0 0 1-.515.25l.004.007-3.03 1.696c-1.787.999-4.033.888-6.113-.01-2.092-.904-4.104-2.633-5.54-5.043-1.435-2.408-1.972-4.959-1.734-7.165.237-2.194 1.261-4.136 3.048-5.136l2.127-1.19.66-.367.245-.137q.23-.163.48-.306m-.736 16.38a9.2 9.2 0 0 0 2.165 1.339c1.65.712 3.2.728 4.338.158q-.752-.197-1.482-.54c-1.046-.493-2.062-1.208-2.997-2.113zm-3.4-4.773a11.8 11.8 0 0 0 2.064 3.463l2.124-1.214a15.3 15.3 0 0 1-2.06-3.465zM5.883 6c-1.076.67-1.835 1.98-2.022 3.717a8.6 8.6 0 0 0 .11 2.476l2.031-1.162c-.33-1.22-.457-2.413-.375-3.523.039-.52.124-1.026.256-1.508" clip-rule="evenodd"/><path d="M20.365 9.48a.9.9 0 0 1 1.47 1.037l-3.6 5.101a.9.9 0 0 1-1.314.17l-2.5-2.1a.9.9 0 0 1 1.158-1.378l1.75 1.47zM10.171 4.99c1.118-.626 2.52-.295 3.729.426 1.245.743 2.486 2.002 3.46 3.636a.726.726 0 0 1-.27 1.01.775.775 0 0 1-1.039-.278c-.868-1.457-1.941-2.516-2.93-3.106-.96-.573-1.682-.622-2.102-.44l-.149.075A.776.776 0 0 1 9.9 6a.726.726 0 0 1 .271-1.01"/></svg>