<svg xmlns="http://www.w3.org/2000/svg" width="24" height="24" viewBox="0 0 24 24" fill="currentColor"><path d="M10.177 4.97c1.118-.632 2.52-.298 3.729.43 1.245.751 2.488 2.025 3.461 3.677.976 1.653 1.482 3.352 1.525 4.79.041 1.395-.361 2.764-1.482 3.397a.77.77 0 0 1-1.038-.281.74.74 0 0 1 .206-.98l.14-.09c.372-.263.69-.906.656-2.022-.034-1.146-.447-2.6-1.316-4.074-.868-1.473-1.94-2.545-2.93-3.14-1.025-.619-1.778-.633-2.183-.404a.77.77 0 0 1-1.04-.281.74.74 0 0 1 .272-1.022"/><path fill-rule="evenodd" d="M8.616 2.326c1.853-1.047 4.058-.901 6.086.064 2.027.964 3.943 2.765 5.369 5.183 1.426 2.42 2.062 4.946 1.902 7.147-.16 2.203-1.134 4.146-2.986 5.193q-.226.126-.457.228l-3.084 1.744c-1.787 1.01-4.035.898-6.116-.01-2.092-.913-4.105-2.66-5.542-5.096-1.434-2.434-1.972-5.012-1.734-7.242.237-2.219 1.262-4.182 3.049-5.192.815-.46 1.573-.89 2.128-1.202l.66-.372.245-.139.014-.009q.223-.158.466-.297M7.88 18.88a9.2 9.2 0 0 0 2.167 1.354c1.649.72 3.199.735 4.337.16a8.5 8.5 0 0 1-1.481-.546c-1.047-.498-2.065-1.22-3-2.136zm6.05-14.873c-1.636-.778-3.185-.8-4.392-.118-1.204.681-1.96 2.006-2.09 3.782-.13 1.779.383 3.945 1.655 6.102 1.274 2.16 2.934 3.678 4.572 4.458 1.636.778 3.185.8 4.39.119 1.206-.682 1.962-2.007 2.092-3.783.13-1.779-.385-3.945-1.659-6.106-1.272-2.157-2.93-3.675-4.568-4.454M4.48 14.055a11.9 11.9 0 0 0 2.064 3.501l2.123-1.227a15.4 15.4 0 0 1-2.06-3.501zm1.408-8.063c-1.077.678-1.836 2-2.023 3.757a8.8 8.8 0 0 0 .11 2.502l2.031-1.171c-.33-1.234-.457-2.44-.375-3.562a8 8 0 0 1 .257-1.526" clip-rule="evenodd"/></svg>