<svg xmlns="http://www.w3.org/2000/svg" width="24" height="24" fill="currentColor" viewBox="0 0 24 24"><path d="M18.754 20.366c-.763.407-1.512.534-3.082.534H13a.9.9 0 1 1 0-1.8h2.672c1.487 0 1.87-.128 2.233-.322.336-.18.594-.438.773-.773.194-.362.322-.746.322-2.233V8.228c0-1.487-.128-1.871-.322-2.233a1.847 1.847 0 0 0-.773-.774c-.362-.193-.746-.321-2.233-.321H13a.9.9 0 1 1 0-1.8h2.672c1.57 0 2.32.127 3.082.534.65.347 1.164.863 1.512 1.512.407.762.534 1.512.534 3.082v7.544c0 1.57-.127 2.32-.534 3.082a3.647 3.647 0 0 1-1.512 1.512Z"/><path d="m9.364 15.364 2.463-2.464H3.9a.9.9 0 0 1 0-1.8h7.927L9.364 8.636a.9.9 0 1 1 1.272-1.272l4 4a.9.9 0 0 1 0 1.272l-4 4a.9.9 0 0 1-1.272-1.272Z"/></svg>
