<svg xmlns="http://www.w3.org/2000/svg" width="24" height="24" fill="none" viewBox="0 0 24 24"><path fill="currentColor" fill-rule="evenodd" d="M5.0695 3.5403c.7695-.4113 1.5267-.5396 3.1163-.5396h2.9174c.4973 0 .9004.403.9004.9s-.4031.9-.9004.9H8.1858c-1.5067 0-1.898.1296-2.2673.327-.3422.1829-.6054.446-.7884.788-.1974.3689-.327.7599-.327 2.2656v7.6388c0 1.5058.1296 1.8968.327 2.2657.183.342.4462.6051.7885.788.3692.1974.7606.3269 2.2672.3269h2.9174c.4973 0 .9004.403.9004.9 0 .4971-.4031.9-.9004.9H8.1858c-1.5896 0-2.3468-.1282-3.1163-.5395-.656-.3507-1.1763-.8706-1.5272-1.5263-.4116-.7692-.54-1.526-.54-3.1148V8.1814c0-1.5888.1284-2.3456.54-3.1148.3508-.6557.8711-1.1756 1.5272-1.5263Z" clip-rule="evenodd"/><path fill="currentColor" fill-rule="evenodd" d="M16.361 8.2606a.9006.9006 0 0 1 1.2733 0l3.1043 3.103a.8994.8994 0 0 1 0 1.2727l-3.1043 3.1031a.9007.9007 0 0 1-1.2733 0 .8998.8998 0 0 1 0-1.2728L17.9283 12.9h-7.0251c-.4973 0-.9004-.403-.9004-.9 0-.4971.4031-.9.9004-.9h7.0251L16.361 9.5334a.8998.8998 0 0 1 0-1.2729Z" clip-rule="evenodd"/></svg>
