<svg xmlns="http://www.w3.org/2000/svg" width="24" height="24" fill="currentColor" viewBox="0 0 24 24"><path d="M12 2c-.667 0-1.319.065-1.95.19a.9.9 0 1 0 .349 1.766 8.244 8.244 0 0 1 3.202 0 .9.9 0 1 0 .35-1.766A10.045 10.045 0 0 0 12 2ZM7.445 5.18a.9.9 0 1 0-1.002-1.495 10.045 10.045 0 0 0-2.758 2.758.9.9 0 0 0 1.496 1.002A8.245 8.245 0 0 1 7.445 5.18Zm10.112-1.495a.9.9 0 0 0-1.002 1.496 8.247 8.247 0 0 1 2.264 2.264.9.9 0 1 0 1.496-1.002 10.042 10.042 0 0 0-2.758-2.758ZM3.956 10.399a.9.9 0 1 0-1.766-.35 10.044 10.044 0 0 0 0 3.902.9.9 0 1 0 1.766-.35 8.245 8.245 0 0 1 0-3.202Zm17.854-.349a.9.9 0 1 0-1.766.349 8.244 8.244 0 0 1 0 3.202.9.9 0 0 0 1.766.35 10.048 10.048 0 0 0 0-3.901Zm-1.495 7.507a.9.9 0 1 0-1.496-1.002 8.24 8.24 0 0 1-2.264 2.264.9.9 0 0 0 1.002 1.496 10.049 10.049 0 0 0 2.758-2.758ZM5.18 16.555a.9.9 0 1 0-1.495 1.002 10.041 10.041 0 0 0 2.758 2.758.9.9 0 0 0 1.002-1.496 8.243 8.243 0 0 1-2.264-2.264Zm5.219 3.489a.9.9 0 1 0-.35 1.766 10.047 10.047 0 0 0 3.902 0 .9.9 0 0 0-.35-1.766 8.244 8.244 0 0 1-3.202 0ZM11.999 7a.9.9 0 0 0-.9.9v5.977l-1.553-1.603a.9.9 0 0 0-1.292 1.253l3.1 3.2a.9.9 0 0 0 1.292 0l3.1-3.2a.9.9 0 0 0-1.292-1.253l-1.555 1.605v-5.98a.9.9 0 0 0-.9-.9Z"/></svg>
