<svg xmlns="http://www.w3.org/2000/svg" width="24" height="24" fill="currentColor" viewBox="0 0 24 24"><path d="M12.9 2.9a.9.9 0 0 0-1.8 0v11.002l-4.556-4.63a.9.9 0 1 0-1.283 1.262l6.097 6.197a.9.9 0 0 0 1.3-.016l2.302-2.464a.9.9 0 0 0-1.315-1.229l-.745.797V2.9ZM4.902 19.1a.9.9 0 0 0 0 1.8h14.196a.9.9 0 1 0 0-1.8H4.902Z"/><path fill-rule="evenodd" d="M19 13a5 5 0 1 0 0-10 5 5 0 0 0 0 10Zm1-2.2a1 1 0 1 1-2 0 1 1 0 0 1 2 0Zm-1-6.6a.8.8 0 0 0-.8.8v3.2a.8.8 0 0 0 1.6 0V5a.8.8 0 0 0-.8-.8Z" clip-rule="evenodd"/></svg>
