<svg xmlns="http://www.w3.org/2000/svg" width="24" height="24" fill="currentColor" viewBox="0 0 24 24"><path fill-rule="evenodd" d="M13.964 6.134a.9.9 0 0 0 1.272-1.273l-2.598-2.597a.9.9 0 0 0-1.272-.001L8.764 4.86a.9.9 0 0 0 1.272 1.274L12 4.172l1.963 1.962ZM3.9 9.2a.9.9 0 1 0 0 1.8h16.2a.9.9 0 1 0 0-1.8H3.9Zm0 3.8a.9.9 0 1 0 0 1.8h16.2a.9.9 0 1 0 0-1.8H3.9Zm4.868 4.867a.9.9 0 0 1 1.273 0l1.961 1.96 1.96-1.96a.9.9 0 0 1 1.274 1.272l-2.598 2.598a.9.9 0 0 1-1.272 0l-2.598-2.598a.9.9 0 0 1 0-1.272Z" clip-rule="evenodd"/></svg>
