<svg xmlns="http://www.w3.org/2000/svg" width="24" height="24" fill="currentColor" viewBox="0 0 24 24"><path fill-rule="evenodd" d="M14.2 4.9c.505 0 .83 0 1.076.02.236.02.32.053.36.073a.85.85 0 0 1 .371.371c.02.04.053.124.072.36.02.247.021.571.021 1.076v1.4c0 .505 0 .83-.02 1.076-.02.236-.053.32-.073.36a.85.85 0 0 1-.371.371c-.04.02-.124.053-.36.072-.247.02-.571.021-1.076.021H7.5a2.6 2.6 0 0 1 0-5.2h6.7Zm2.253-1.511c-.335-.171-.683-.234-1.03-.262a15.672 15.672 0 0 0-1.188-.027H7.5a4.4 4.4 0 0 0-.584 8.761L5.508 19.1H4a.9.9 0 1 0 0 1.8h11a.9.9 0 0 0 0-1.8h-3.658l1.4-7.2h1.493c.46 0 .859 0 1.188-.027.347-.028.695-.091 1.03-.262a2.65 2.65 0 0 0 1.184-1.211H18a2.901 2.901 0 0 0 2.758-2H22.1a.9.9 0 1 0 0-1.8h-1.342A2.901 2.901 0 0 0 18 4.6h-.363a2.65 2.65 0 0 0-1.184-1.211ZM19.1 7.5A1.1 1.1 0 0 0 18 6.4h-.1v2.2h.1a1.1 1.1 0 0 0 1.1-1.1Zm-8.192 4.4H8.742l-1.4 7.2h2.166l1.4-7.2Z" clip-rule="evenodd"/></svg>
