<svg xmlns="http://www.w3.org/2000/svg" width="24" height="24" fill="currentColor" viewBox="0 0 24 24"><path fill-rule="evenodd" d="M7.21 19c.31 0 .593 0 .83-.019.256-.02.536-.069.812-.21a2.1 2.1 0 0 0 .918-.917 2.13 2.13 0 0 0 .21-.812c.019-.237.019-.521.019-.83V14.8h4v1.41c0 .31 0 .594.02.83.021.257.069.536.21.813a2.1 2.1 0 0 0 .917.918c.277.14.557.188.812.21.238.018.521.018.83.018h.424c.309 0 .593 0 .83-.019a2.13 2.13 0 0 0 .812-.21 2.1 2.1 0 0 0 .918-.917 2.13 2.13 0 0 0 .21-.812c.018-.237.018-.521.018-.83V15.8h.21c.31 0 .593 0 .83-.02a2.13 2.13 0 0 0 .812-.21 2.1 2.1 0 0 0 .918-.917c.141-.276.189-.556.21-.812.02-.237.019-.52.019-.83V10.99c0-.309 0-.593-.02-.83a2.127 2.127 0 0 0-.209-.812 2.1 2.1 0 0 0-.918-.918 2.13 2.13 0 0 0-.811-.21c-.238-.018-.521-.018-.83-.018H20V7.79c0-.309 0-.593-.02-.83a2.13 2.13 0 0 0-.21-.812 2.1 2.1 0 0 0-.917-.918 2.13 2.13 0 0 0-.812-.21C17.805 5 17.52 5 17.212 5h-.424c-.309 0-.592 0-.83.02a2.13 2.13 0 0 0-.812.21 2.1 2.1 0 0 0-.917.917 2.13 2.13 0 0 0-.21.812c-.02.237-.02.52-.02.83V9.2h-4V7.789c0-.31 0-.593-.02-.83a2.13 2.13 0 0 0-.21-.812 2.1 2.1 0 0 0-.917-.918 2.129 2.129 0 0 0-.812-.21C7.803 5 7.52 5 7.21 5h-.422c-.31 0-.593 0-.83.02a2.09 2.09 0 0 0-.812.21 2.1 2.1 0 0 0-.918.917c-.14.276-.189.556-.21.812C4 7.196 4 7.479 4 7.789V8.2h-.21c-.31 0-.593 0-.83.019-.256.02-.536.069-.813.21a2.1 2.1 0 0 0-.917.917 2.13 2.13 0 0 0-.21.812c-.02.237-.02.521-.02.83v2.023c0 .309 0 .593.02.83.021.256.069.536.21.812a2.1 2.1 0 0 0 .917.918c.277.14.557.188.812.21.238.019.521.019.83.019H4v.41c0 .31 0 .594.02.83.02.257.068.536.21.813a2.1 2.1 0 0 0 .917.918c.276.14.556.188.812.209.237.02.52.02.83.02h.422ZM15.8 7.82c0-.35 0-.56.013-.714a.752.752 0 0 1 .021-.145.3.3 0 0 1 .126-.126.751.751 0 0 1 .145-.021c.155-.013.364-.014.715-.014h.36c.351 0 .56.001.715.014a.752.752 0 0 1 .145.021.3.3 0 0 1 .126.126c.003.01.013.05.021.145.013.154.013.364.013.714v7.98h.001v.38c0 .351 0 .56-.013.715a.751.751 0 0 1-.021.145.3.3 0 0 1-.126.126.751.751 0 0 1-.145.021 9.976 9.976 0 0 1-.715.013h-.36c-.351 0-.56 0-.715-.013a.751.751 0 0 1-.145-.021.3.3 0 0 1-.126-.126.751.751 0 0 1-.02-.145 9.976 9.976 0 0 1-.014-.715V7.82ZM14 11h-4v2h4v-2ZM4 10v4h-.18c-.351 0-.56 0-.715-.013a.753.753 0 0 1-.145-.021.3.3 0 0 1-.126-.126.752.752 0 0 1-.02-.145 10.007 10.007 0 0 1-.014-.714v-1.96c0-.351 0-.56.013-.715a.754.754 0 0 1 .021-.145.3.3 0 0 1 .126-.126.757.757 0 0 1 .145-.021C3.26 10 3.469 10 3.82 10H4Zm1.8 5.8v.38c0 .351 0 .56.013.715a.752.752 0 0 0 .02.145.3.3 0 0 0 .126.126c.011.003.05.013.145.021.155.013.364.013.715.013h.36c.35 0 .56 0 .715-.013a.753.753 0 0 0 .145-.021.3.3 0 0 0 .125-.126.752.752 0 0 0 .021-.145c.013-.155.014-.364.014-.715V7.82c0-.35 0-.56-.014-.714a.753.753 0 0 0-.02-.145.3.3 0 0 0-.126-.126.753.753 0 0 0-.145-.021 10.006 10.006 0 0 0-.715-.014h-.36c-.35 0-.56.001-.715.014a.753.753 0 0 0-.145.021.3.3 0 0 0-.125.126.754.754 0 0 0-.021.145 9.672 9.672 0 0 0-.014.714v.38h.002v7.6h-.002Zm2.242 1.365H8.04h.002Zm.121-10.208v.002-.002Zm-2.207-.12.002-.002-.002.001Zm-.121 10.206Zm.123.122a.01.01 0 0 1-.002 0h.002Zm14.221-3.164H20v-4h.179c.35 0 .56 0 .715.013a.753.753 0 0 1 .145.021.3.3 0 0 1 .125.126.76.76 0 0 1 .022.145c.012.155.013.364.013.715v1.96c0 .35 0 .56-.013.714a.755.755 0 0 1-.022.145.3.3 0 0 1-.125.126.753.753 0 0 1-.145.021 9.976 9.976 0 0 1-.715.014Zm-4.222 3.164Zm-.122-10.208v.002-.002Z" clip-rule="evenodd"/></svg>
