<svg xmlns="http://www.w3.org/2000/svg" width="24" height="24" fill="currentColor" viewBox="0 0 24 24"><path fill-rule="evenodd" d="M12.9 2a.9.9 0 0 0-1.8 0v.175A5.404 5.404 0 0 0 6.659 6.7l-.07-.011a16.943 16.943 0 0 1-.391-.068l-.018-.004h-.004a.9.9 0 0 0-.353 1.764h.002l.002.001.008.002.025.005a10.747 10.747 0 0 0 .441.076c.26.043.618.096 1.06.151A4.649 4.649 0 0 0 12 13.6a4.649 4.649 0 0 0 4.64-4.983 29.056 29.056 0 0 0 1.501-.227l.025-.005.008-.002h.003a.9.9 0 0 0-.352-1.766l-.004.001-.018.004a9.062 9.062 0 0 1-.391.068l-.07.01A5.404 5.404 0 0 0 12.9 2.176V2Zm-1.8 2.013a.9.9 0 0 0 1.8 0 3.604 3.604 0 0 1 2.655 2.913 36.65 36.65 0 0 1-7.11 0A3.604 3.604 0 0 1 11.1 4.013ZM9.154 8.794a2.849 2.849 0 1 0 5.692 0 38.518 38.518 0 0 1-5.692 0ZM5.928 20.081c-.04-.035-.039-.12-.033-.316.002-.088.005-.198.005-.337 0-1.892 2.778-3.028 6.1-3.028 3.322 0 6.1 1.136 6.1 3.029 0 .138.003.248.005.336.005.197.008.28-.033.316-.03.026-.084.024-.18.021l-.127-.002H6.235l-.127.002c-.096.003-.15.005-.18-.021ZM12 14.6c-4.227 0-7.9 1.502-7.9 4.829 0 1.735.686 2.471 2.135 2.471h11.53c1.45 0 2.135-.736 2.135-2.471 0-3.327-3.673-4.829-7.9-4.829Z" clip-rule="evenodd"/></svg>
