<svg xmlns="http://www.w3.org/2000/svg" width="24" height="24" fill="currentColor" viewBox="0 0 24 24"><path fill-rule="evenodd" d="M7.251 10.323 5.64 11.938c-.675.675-1.103 1.105-1.401 1.457-.285.336-.345.48-.365.541a1.501 1.501 0 0 0 0 .928c.02.06.08.205.365.54.298.352.726.783 1.4 1.457l.5.5c.674.675 1.104 1.103 1.456 1.402.336.285.48.345.54.365a1.5 1.5 0 0 0 .442.073h.044a1.5 1.5 0 0 0 .441-.073c.061-.02.205-.08.54-.365.352-.299.783-.727 1.457-1.402l1.613-1.614-5.42-5.423Zm1.272-1.272 5.42 5.422 3.409-3.41c.674-.675 1.102-1.106 1.4-1.458.285-.336.345-.48.365-.54a1.5 1.5 0 0 0 0-.928c-.02-.06-.08-.205-.364-.54-.3-.353-.727-.783-1.401-1.458l-.5-.5c-.674-.674-1.104-1.103-1.456-1.401-.336-.285-.48-.345-.54-.365a1.499 1.499 0 0 0-.927 0c-.06.02-.205.08-.54.365-.352.298-.782.727-1.457 1.402L8.523 9.05Zm-.945 11.788a3.294 3.294 0 0 0 .93.16h.02c.046.002.093.002.14 0H20.1a.9.9 0 1 0 0-1.8h-8.338c.175-.173.364-.361.568-.566l6.294-6.298c1.306-1.307 1.96-1.96 2.204-2.714a3.303 3.303 0 0 0 0-2.04c-.244-.754-.898-1.408-2.204-2.715l-.5-.5c-1.306-1.307-1.959-1.96-2.712-2.206a3.297 3.297 0 0 0-2.04 0c-.752.245-1.406.899-2.712 2.206l-6.294 6.298c-1.306 1.307-1.96 1.961-2.204 2.715a3.303 3.303 0 0 0 0 2.04c.245.754.898 1.407 2.204 2.715l.5.5c1.306 1.307 1.96 1.96 2.712 2.205Z" clip-rule="evenodd"/></svg>
