<svg xmlns="http://www.w3.org/2000/svg" width="24" height="24" fill="currentColor" viewBox="0 0 24 24"><path d="M6.37 9.201a7.27 7.27 0 0 1 6.696-4.397c2.13 0 4.044.906 5.373 2.351a.9.9 0 0 0 1.325-1.218 9.077 9.077 0 0 0-6.698-2.933A9.067 9.067 0 0 0 4.446 9.2H2.899a.9.9 0 0 0 0 1.8h1.156a9.04 9.04 0 0 0 0 2.003H2.898a.9.9 0 1 0 0 1.8h1.547a9.067 9.067 0 0 0 8.621 6.201c2.652 0 5.04-1.13 6.698-2.933a.9.9 0 1 0-1.325-1.218 7.277 7.277 0 0 1-5.373 2.351 7.27 7.27 0 0 1-6.698-4.401h6.742a.9.9 0 0 0 0-1.8H5.868a7.193 7.193 0 0 1 0-2.003h7.242a.9.9 0 0 0 0-1.8H6.37Z"/></svg>
