<svg xmlns="http://www.w3.org/2000/svg" width="24" height="24" viewBox="0 0 24 24" fill="currentColor"><path d="M8.5 14a1 1 0 0 1 1 1v1.5H11a1 1 0 1 1 0 2H8.5a1 1 0 0 1-1-1V15a1 1 0 0 1 1-1m7-8.5a1 1 0 0 1 1 1V9a1 1 0 1 1-2 0V7.5H13a1 1 0 1 1 0-2z"/><path fill-rule="evenodd" d="M13.5 2c.965 0 1.743 0 2.372.05.639.053 1.204.164 1.726.43a4.4 4.4 0 0 1 1.922 1.923c.266.522.378 1.086.43 1.725.052.629.05 1.407.05 2.372v7c0 .965.002 1.744-.05 2.372-.052.64-.163 1.203-.43 1.726a4.4 4.4 0 0 1-1.922 1.922c-.523.267-1.087.378-1.726.43-.629.052-1.407.05-2.372.05h-3c-.965 0-1.743.002-2.372-.05-.639-.052-1.203-.164-1.725-.43a4.4 4.4 0 0 1-1.924-1.922c-.265-.522-.376-1.087-.428-1.726C3.999 17.243 4 16.465 4 15.5v-7c0-.965 0-1.743.05-2.372.053-.639.164-1.203.43-1.725A4.4 4.4 0 0 1 6.402 2.48c.522-.265 1.086-.376 1.725-.428C8.757 1.999 9.535 2 10.5 2zm-3 1.8c-.995 0-1.687 0-2.226.045-.527.043-.828.124-1.054.239A2.6 2.6 0 0 0 6.084 5.22c-.115.226-.196.527-.24 1.054-.043.539-.043 1.231-.043 2.226v7c0 .994 0 1.687.044 2.226.043.527.124.829.239 1.055.25.489.647.887 1.136 1.136.226.115.527.195 1.054.238.539.044 1.232.045 2.226.045h3c.995 0 1.687 0 2.226-.045.527-.043.829-.123 1.055-.238.489-.25.887-.647 1.136-1.136.115-.226.195-.528.238-1.055.044-.539.045-1.231.045-2.226v-7c0-.994 0-1.687-.045-2.226-.043-.527-.123-.828-.238-1.054a2.6 2.6 0 0 0-1.136-1.136c-.226-.115-.528-.196-1.055-.24-.539-.043-1.232-.043-2.226-.043z" clip-rule="evenodd"/></svg>