<svg fill="none" height="24" viewBox="0 0 24 24" width="24" xmlns="http://www.w3.org/2000/svg"><g clip-rule="evenodd" fill="currentColor" fill-rule="evenodd"><path d="m5.14631 3.63427c.76215-.4076 1.51182-.53426 3.08147-.53426h1.87222c.4971 0 .9.40294.9.9 0 .49705-.4029.9-.9.9h-1.87222c-1.48667 0-1.87061.12794-2.23259.32153-.33585.17961-.59404.4378-.77365.77365-.19359.36198-.32153.74592-.32153 2.23259v7.54442c0 1.4867.12794 1.8706.32153 2.2326.17961.3359.4378.5941.77365.7737.36198.1936.74592.3215 2.23259.3215h7.54442c1.4867 0 1.8706-.1279 2.2326-.3215.3359-.1796.5941-.4378.7737-.7737.1936-.362.3215-.7459.3215-2.2326v-1.8722c0-.4971.4029-.9.9-.9s.9.4029.9.9v1.8722c0 1.5697-.1267 2.3193-.5343 3.0815-.3473.6495-.8625 1.1647-1.512 1.512-.7622.4076-1.5118.5343-3.0815.5343h-7.54442c-1.56965 0-2.31931-.1267-3.08147-.5343-.64953-.3473-1.16467-.8625-1.51204-1.512-.4076-.7622-.53426-1.5118-.53426-3.0815v-7.54442c0-1.56965.12666-2.31932.53426-3.08147.34738-.64953.86251-1.16466 1.51204-1.51204z"/><path d="m14 4.00001c0-.49706.403-.9.9-.9h5.1c.4971 0 .9.40294.9.9v5.1c0 .49705-.4029.89999-.9.89999-.497 0-.9-.40294-.9-.89999v-2.92721l-6.5636 6.5636c-.3514.3515-.9213.3515-1.2728 0-.3514-.3515-.3514-.9213 0-1.2728l6.5636-6.56359h-2.9272c-.497 0-.9-.40295-.9-.9z"/></g></svg>
