<svg xmlns="http://www.w3.org/2000/svg" width="24" height="24" fill="currentColor" viewBox="0 0 24 24"><path fill-rule="evenodd" d="M6.242 8.9a2.901 2.901 0 0 0 5.516 0H20a.9.9 0 1 0 0-1.8h-8.242a2.901 2.901 0 0 0-5.515 0H4a.9.9 0 1 0 0 1.8h2.242ZM9 6.9a1.1 1.1 0 1 0 0 2.2 1.1 1.1 0 0 0 0-2.2ZM3.1 16a.9.9 0 0 1 .9-.9h8.242a2.901 2.901 0 0 1 5.516 0H20a.9.9 0 1 1 0 1.8h-2.242a2.901 2.901 0 0 1-5.516 0H4a.9.9 0 0 1-.9-.9Zm10.8 0a1.1 1.1 0 1 1 2.2 0 1.1 1.1 0 0 1-2.2 0Z" clip-rule="evenodd"/></svg>
