<svg xmlns="http://www.w3.org/2000/svg" width="24" height="24" fill="currentColor" viewBox="0 0 24 24"><path fill-rule="evenodd" d="M9.6 21.955a1.822 1.822 0 0 0 2.059-1.056c.781.525 1.68.912 2.609 1.079a1.8 1.8 0 0 0 1.014-.134c2.413-1.074 3.977-2.608 4.852-4.4.86-1.76.972-3.6.796-5.18-.22-1.981-.893-3.954-1.883-5.685a1.8 1.8 0 0 0-1.623-.877c-.898.037-1.31.653-1.721 1.34-.367-2.351-1.756-4.606-3.832-5.818A1.8 1.8 0 0 0 9.2 2.8c0 1.356-.172 2.27-.5 3.005-.325.725-.868 1.423-1.852 2.238-1.11.92-2.119 1.805-2.806 2.87C3.296 12.069 3 13.309 3 14.814c0 2.974 1.878 4.804 3.439 5.79.966.61 2.048 1.08 3.16 1.351Zm-4.8-7.14c0-2.486.947-3.52 3.198-5.386C10.25 7.562 11 5.8 11 2.8c0 0 4.499 2.486 2.5 8.7 0 0 2.832-1.6 4-4 0 0 5.36 9-2.95 12.7 0 0-4.05-.643-4.05-5.2 0 0-2.252 1.6-.5 5.2 0 0-5.2-1.186-5.2-5.386Z" clip-rule="evenodd"/></svg>
