<svg xmlns="http://www.w3.org/2000/svg" width="24" height="24" fill="currentColor" viewBox="0 0 24 24"><path d="m19.173 17.727-.68-.68a.542.542 0 0 0-.767 0l-.68.68a.542.542 0 0 0 0 .767l.68.68a.542.542 0 0 0 .767 0l.68-.68a.542.542 0 0 0 0-.767Zm-2.43-3.297c.911-.167 2.082-.15 2.975.253.431.194.78.468 1.026.842.244.373.424.902.424 1.67a.916.916 0 0 0 1.833 0c0-1.066-.254-1.958-.724-2.675-.47-.715-1.116-1.198-1.806-1.508-1.352-.608-2.935-.59-4.06-.384a.916.916 0 1 0 .332 1.803Z"/><path d="M16.743 14.43c.911-.167 2.082-.15 2.975.253.431.194.78.468 1.026.842.244.373.424.902.424 1.67a.916.916 0 0 0 1.833 0c0-1.066-.254-1.958-.724-2.675-.47-.715-1.116-1.198-1.806-1.508-1.352-.608-2.935-.59-4.06-.384a.916.916 0 1 0 .332 1.803Zm5.417-4.713.68.68a.542.542 0 0 1 0 .767l-.68.68a.542.542 0 0 1-.767 0l-.68-.68a.542.542 0 0 1 0-.767l.68-.68a.542.542 0 0 1 .766 0Zm-1.638-2.535c-.258.413-.6.858-1.099 1.21-.88.621-1.826.881-2.573 1.086l-.244.067c-.821.231-1.361.437-1.78.911a.917.917 0 0 1-1.374-1.213c.803-.91 1.819-1.226 2.658-1.462l.237-.066c.776-.216 1.415-.393 2.02-.82.224-.159.412-.382.599-.683a8.15 8.15 0 0 0 .335-.602c.07-.133.145-.277.237-.442.204-.367.477-.808.887-1.149.444-.367.996-.578 1.673-.57a.916.916 0 1 1-.021 1.832c-.25-.003-.378.063-.48.149-.136.112-.274.3-.456.628-.048.085-.104.192-.166.31-.133.253-.294.557-.453.814Zm-3.793-2.894-.68-.68a.542.542 0 0 0-.767 0l-.68.68a.542.542 0 0 0 0 .767l.68.68a.542.542 0 0 0 .767 0l.68-.68a.542.542 0 0 0 0-.767ZM8.493 1.4a.917.917 0 0 1 1.273-.24c.916.624 1.51 1.237 1.814 1.907.32.705.26 1.337.157 1.833-.028.135-.07.303-.105.443l-.046.189c-.043.184-.068.33-.074.466-.01.228.03.498.31.881a.916.916 0 1 1-1.479 1.082c-.524-.716-.69-1.394-.662-2.041.012-.302.066-.576.12-.804a9.33 9.33 0 0 1 .07-.284c.025-.104.047-.191.07-.305.066-.315.062-.501-.03-.702-.107-.236-.392-.616-1.177-1.151A.916.916 0 0 1 8.493 1.4Zm-2.22 3.43.68.68a.542.542 0 0 1 0 .766l-.68.68a.542.542 0 0 1-.767 0l-.68-.68a.542.542 0 0 1 0-.766l.68-.68a.542.542 0 0 1 .767 0Z"/><path fill-rule="evenodd" d="M7.288 9.557a2.75 2.75 0 0 1 .618.062c.488.106.888.378 1.248.684.35.299.752.708 1.23 1.196l2.194 2.237c.473.482.87.888 1.16 1.241.296.363.559.764.656 1.25a2.749 2.749 0 0 1-.39 2.034c-.27.416-.663.691-1.073.919-.4.221-.92.45-1.537.724L7.417 21.66c-1.052.465-1.898.838-2.563 1.066-.637.217-1.33.386-1.968.183a2.75 2.75 0 0 1-1.796-1.81c-.197-.641-.023-1.332.2-1.967.233-.663.613-1.505 1.087-2.553L4.175 12.6c.281-.622.518-1.145.744-1.546.107-.188.224-.373.36-.544.04-.05.08-.097.123-.144a2.23 2.23 0 0 1 .454-.383 2.75 2.75 0 0 1 1.432-.426ZM5.9 13.235l-.99 2.188a6.507 6.507 0 0 0 3.378 3.849l2.483-1.097a8.346 8.346 0 0 1-4.871-4.94Zm6.713 3.551a6.494 6.494 0 0 1-5.302-5.396.92.92 0 0 1 .208.02c.048.01.17.053.447.29.28.237.624.587 1.14 1.112l2.133 2.177c.51.52.85.867 1.08 1.148.227.279.267.4.277.448a.913.913 0 0 1 .017.201Zm-6.378 3.392a8.364 8.364 0 0 1-2.325-2.541c-.414.919-.71 1.587-.89 2.102a3.54 3.54 0 0 0-.173.632c-.02.136-.005.188-.005.188a.916.916 0 0 0 .598.603s.05.015.188-.004c.145-.019.347-.069.633-.167.492-.168 1.121-.437 1.974-.813Z" clip-rule="evenodd"/></svg>