<?xml version="1.0" encoding="UTF-8"?>
<svg width="24px" height="24px" viewBox="0 0 24 24" version="1.1" xmlns="http://www.w3.org/2000/svg" xmlns:xlink="http://www.w3.org/1999/xlink">
    <!-- Generator: Sketch 50.2 (55047) - http://www.bohemiancoding.com/sketch -->
    <title>flash_24</title>
    <desc>Created with Sketch.</desc>
    <defs></defs>
    <g id="Page-2" stroke="none" stroke-width="1" fill="none" fill-rule="evenodd">
        <g id="flash_24">
            <rect id="Bounds" x="0" y="0" width="24" height="24"></rect>
            <path d="M9.77395908,19.1157772 C9.26128938,21.1805455 10.0310131,21.6082949 11.4079882,20.1008778 L17.1920678,13.4547313 C18.5303182,11.8212963 18.1951293,10.5089157 16.2679208,10.1808268 L13.4791681,9.66436529 C13.3162529,9.63419429 13.2086424,9.47766698 13.2388134,9.31475175 C13.2398089,9.3093766 13.240951,9.30402967 13.2422387,9.29871694 L14.3154203,4.87079674 C14.8295282,2.79291766 13.9726468,2.4166171 12.6873246,3.88912738 C10.8405188,5.97145685 9.43706316,7.54449265 8.47695771,8.60823477 C8.14222241,8.9791024 7.60341693,9.55798124 6.86054126,10.3448713 C5.2324456,12.1515247 6.08932704,13.4617658 7.9724807,13.7898547 L10.6376654,14.2676208 C10.8007512,14.2968558 10.9092586,14.4527627 10.8800235,14.6158484 C10.8788982,14.6221261 10.877573,14.6283663 10.8760498,14.6345594 L9.77395908,19.1157772 Z" id="Mask" fill="currentColor"></path>
        </g>
    </g>
</svg>
