<svg fill="none" height="24" viewBox="0 0 24 24" width="24" xmlns="http://www.w3.org/2000/svg"><path clip-rule="evenodd" d="m2.32698 5.63803c-.32698.64173-.32698 1.48181-.32698 3.16197v6.4c0 1.6802 0 2.5202.32698 3.162.28762.5645.74656 1.0234 1.31105 1.311.64173.327 1.48181.327 3.16197.327h10.4c1.6802 0 2.5202 0 3.162-.327.5645-.2876 1.0234-.7465 1.311-1.311.327-.6418.327-1.4818.327-3.162v-4.4c0-1.68016 0-2.52024-.327-3.16197-.2876-.56449-.7465-1.02343-1.311-1.31105-.6418-.32698-1.4818-.32698-3.162-.32698h-5.2l-1.5314-1.53137c-.1729-.17295-.2594-.25943-.3603-.32127-.0895-.05483-.18703-.09523-.28907-.11973-.11509-.02763-.23738-.02763-.48197-.02763h-2.53726c-1.68016 0-2.52024 0-3.16197.32698-.56449.28762-1.02343.74656-1.31105 1.31105zm12.67302 2.86197c-.5523 0-1 .44772-1 1v2.5h-2.5c-.5523 0-1 .4477-1 1s.4477 1 1 1h2.5v2.5c0 .5523.4477 1 1 1s1-.4477 1-1v-2.5h2.5c.5523 0 1-.4477 1-1s-.4477-1-1-1h-2.5v-2.5c0-.55228-.4477-1-1-1z" fill="currentColor" fill-rule="evenodd"/></svg>
