<svg xmlns="http://www.w3.org/2000/svg" width="24" height="24" fill="currentColor" viewBox="0 0 24 24"><path fill-rule="evenodd" d="M8.424 3.05C8.18 3 7.93 3 7.67 3h-.094c-.767 0-1.395 0-1.907.04-.528.04-1.007.128-1.457.345A3.9 3.9 0 0 0 2.385 5.21c-.217.45-.304.929-.345 1.457C2 7.18 2 7.808 2 8.575v5.763c0 .808 0 1.469.044 2.006.045.556.142 1.058.381 1.526a3.9 3.9 0 0 0 1.704 1.705c.47.239.971.336 1.527.381C6.193 20 6.854 20 7.662 20h8.676c.808 0 1.469 0 2.006-.044.556-.045 1.058-.142 1.526-.381a3.9 3.9 0 0 0 1.705-1.704c.239-.47.336-.971.381-1.527.044-.537.044-1.198.044-2.006v-3.476c0-.808 0-1.469-.044-2.006-.045-.556-.142-1.058-.381-1.527a3.9 3.9 0 0 0-1.704-1.704c-.47-.239-.971-.336-1.527-.381-.537-.044-1.198-.044-2.006-.044h-4.432c-.374 0-.427-.005-.469-.014a.6.6 0 0 1-.161-.061c-.038-.02-.08-.052-.361-.299L9.762 3.812l-.044-.039c-.195-.172-.382-.337-.6-.46a2.4 2.4 0 0 0-.694-.262Z" clip-rule="evenodd"/></svg>
