<svg xmlns="http://www.w3.org/2000/svg" width="24" height="24" fill="currentColor" viewBox="0 0 24 24"><path fill-rule="evenodd" d="M7.613 4.8c.355 0 .405.004.445.013a.6.6 0 0 1 .173.065c.036.02.076.05.343.285l1.153 1.014.046.04c.206.182.403.355.634.483.202.112.42.194.646.244.257.057.52.056.794.056h4.457c.855 0 1.442 0 1.897.038.445.036.684.103.857.19a2.1 2.1 0 0 1 .918.919c.03.06.093.28.144.69.045.371.07.797.081 1.187a.9.9 0 0 0 1.8-.053 15.08 15.08 0 0 0-.094-1.354c-.05-.41-.138-.917-.327-1.288a3.9 3.9 0 0 0-1.705-1.704c-.469-.239-.971-.336-1.527-.381C17.81 5.2 17.15 5.2 16.34 5.2h-4.433c-.374 0-.427-.005-.468-.014a.602.602 0 0 1-.162-.061c-.037-.02-.08-.052-.361-.299L9.764 3.812l-.044-.039c-.195-.172-.382-.337-.6-.46a2.401 2.401 0 0 0-.694-.262C8.18 2.999 7.931 3 7.671 3h-.094c-.768 0-1.396 0-1.908.04-.529.04-1.007.128-1.458.345A3.9 3.9 0 0 0 2.385 5.21c-.217.45-.304.929-.345 1.457C2 7.18 2 7.808 2 8.575v5.763c0 .808 0 1.469.044 2.006.045.555.142 1.058.381 1.526a3.9 3.9 0 0 0 1.705 1.705c.469.239.971.336 1.527.381C6.194 20 6.855 20 7.664 20h6.434a.9.9 0 1 0 0-1.8H7.701c-.855 0-1.442 0-1.897-.038-.445-.036-.684-.103-.857-.19a2.1 2.1 0 0 1-.918-.919c-.088-.172-.154-.411-.19-.856C3.8 15.742 3.8 15.155 3.8 14.3V8.61c0-.812.001-1.37.035-1.803.033-.423.093-.652.173-.818a2.1 2.1 0 0 1 .983-.983c.166-.08.394-.14.818-.173.433-.033.991-.034 1.804-.034ZM18.1 20.101a.9.9 0 0 0 1.8 0v-5.024l1.562 1.563a.9.9 0 0 0 1.274-1.272l-3.099-3.102a.9.9 0 0 0-1.274 0l-3.098 3.102a.9.9 0 1 0 1.274 1.272l1.561-1.563v5.024Z" clip-rule="evenodd"/></svg>
