<svg xmlns="http://www.w3.org/2000/svg" width="24" height="24" fill="currentColor" viewBox="0 0 24 24"><path fill-rule="evenodd" d="M7.611 4.8c.356 0 .406.004.446.013a.6.6 0 0 1 .173.065c.035.02.076.05.343.285l1.153 1.014.045.04c.206.182.403.356.633.483a2.4 2.4 0 0 0 .646.244c.258.057.52.056.794.056H16.3c.855 0 1.442 0 1.897.038.445.036.684.103.856.19a2.1 2.1 0 0 1 .918.919c.081.16.152.43.19.937.038.503.039 1.138.039 1.99a.9.9 0 1 0 1.8 0v-.031c0-.814 0-1.516-.043-2.094-.044-.58-.137-1.137-.382-1.62a3.9 3.9 0 0 0-1.704-1.704c-.47-.239-.971-.336-1.527-.381-.537-.044-1.198-.044-2.006-.044h-4.432c-.374 0-.427-.005-.469-.014a.6.6 0 0 1-.161-.061c-.038-.02-.08-.052-.361-.299L9.762 3.812l-.044-.039c-.195-.172-.382-.337-.6-.46a2.4 2.4 0 0 0-.694-.262C8.18 2.999 7.93 3 7.67 3h-.094c-.767 0-1.395 0-1.907.04-.528.04-1.007.128-1.457.345A3.9 3.9 0 0 0 2.385 5.21c-.217.45-.304.929-.345 1.457C2 7.18 2 7.808 2 8.575v5.763c0 .808 0 1.469.044 2.006.045.556.142 1.058.381 1.526a3.9 3.9 0 0 0 1.704 1.705c.47.239.971.336 1.527.381C6.193 20 6.854 20 7.662 20h5.317a.9.9 0 0 0 0-1.8H7.7c-.855 0-1.442 0-1.897-.038-.445-.036-.684-.103-.856-.19a2.1 2.1 0 0 1-.918-.919c-.088-.172-.155-.411-.191-.856C3.8 15.742 3.8 15.155 3.8 14.3V8.611c0-.812 0-1.37.034-1.803.033-.423.094-.652.173-.818a2.1 2.1 0 0 1 .983-.983c.166-.08.395-.14.818-.173.433-.033.99-.034 1.803-.034Zm12.295 9.106a.9.9 0 0 0-1.8 0v2.2h-2.2a.9.9 0 0 0 0 1.8h2.2V20.1a.9.9 0 0 0 1.8 0v-2.194L22.1 17.9a.9.9 0 1 0 0-1.8l-2.194.006v-2.2Z" clip-rule="evenodd"/></svg>
