<svg xmlns="http://www.w3.org/2000/svg" width="24" height="24" fill="currentColor" viewBox="0 0 24 24"><path fill-rule="evenodd" d="m15.017 12.487-.338 1.038c-.172.53-.258.795-.42.991a1.333 1.333 0 0 1-.537.39c-.237.094-.515.094-1.072.094h-1.3c-.557 0-.835 0-1.072-.094a1.333 1.333 0 0 1-.537-.39c-.162-.196-.248-.46-.42-.99l-.338-1.039c-.173-.534-.26-.801-.243-1.057a1.32 1.32 0 0 1 .209-.634c.138-.215.367-.379.824-.705l.986-.705c.447-.319.67-.478.913-.54.215-.054.44-.054.656 0 .243.062.466.221.913.54l.986.705c.457.326.686.49.825.705.122.19.194.409.208.634.017.256-.07.523-.243 1.057Zm-1.873-.711L12 10.959l-1.144.817.398 1.223h1.492l.398-1.223 M12 22c5.523 0 10-4.477 10-10S17.523 2 12 2 2 6.477 2 12s4.477 10 10 10Zm7.894-8.694a7.945 7.945 0 0 1-.99 2.737l-2.243-.499a2.334 2.334 0 0 0-2.826 2.01l-.266 2.292a8.036 8.036 0 0 1-3.138 0l-.266-2.293a2.334 2.334 0 0 0-2.826-2.009l-2.244.499a7.947 7.947 0 0 1-.989-2.737l2.295-1.311a2.334 2.334 0 0 0 .93-3.071L6.144 6.55A8.026 8.026 0 0 1 8.49 4.81l1.99 1.705c.875.75 2.165.75 3.04 0l1.99-1.706a8.025 8.025 0 0 1 2.346 1.741L16.67 8.924a2.334 2.334 0 0 0 .93 3.07l2.295 1.312Zm-.737-4.884c.402.802.672 1.68.785 2.607l-1.35-.771a.334.334 0 0 1-.133-.44l.698-1.396ZM4.058 11.03a7.945 7.945 0 0 1 .785-2.607L5.54 9.82c.079.158.02.35-.133.438l-1.35.772Zm13.467 6.757-1.298-.289a.333.333 0 0 0-.404.288l-.154 1.326a8.025 8.025 0 0 0 1.856-1.325ZM8.33 19.111a8.022 8.022 0 0 1-1.856-1.325l1.298-.289a.335.335 0 0 1 .404.288l.154 1.326ZM10.736 4.1l1.047.897c.125.107.31.107.434 0l1.046-.897a8.059 8.059 0 0 0-2.527 0Z" clip-rule="evenodd"/></svg>
