<svg fill="none" height="24" viewBox="0 0 24 24" width="24" xmlns="http://www.w3.org/2000/svg"><g fill="currentColor"><path d="m11.75 5.24408v-1.89403c0-.06471.0179-.12815.0518-.18328.1012-.16468.3168-.21612.4815-.1149l4.3016 2.64403c.0468.02876.0861.06812.1149.1149.1012.16468.0498.38023-.1149.48145l-4.3016 2.64403c-.0551.03389-.1186.05183-.1833.05183-.1933 0-.35-.1567-.35-.35v-1.89403c-3.45178 0-6.25 2.79822-6.25 6.25002s2.79822 6.25 6.25 6.25c3.0182 0 5.5902-2.1553 6.1419-5.0857.0766-.4071.4687-.6749.8758-.5983.4071.0767.6749.4688.5983.8758-.6846 3.6362-3.8732 6.3082-7.616 6.3082-4.28021 0-7.75-3.4698-7.75-7.75 0-4.28023 3.46979-7.75002 7.75-7.75002z"/><path d="m9.37897 15.8941c-.1933 0-.35-.1567-.35-.35v-3.5781l-.86763.3408c-.18368.0721-.38237-.0633-.38237-.2606v-.4866c0-.1406.08415-.2675.21366-.3223l1.84504-.7804c.23073-.0976.48633.0718.48633.3224v4.7648c0 .1933-.1567.35-.34999.35z"/><path d="m11.6264 14.3493c-.0955.111-.1432.2467-.1432.4071 0 .214.0837.4166.2511.6078s.3963.345.6867.4613c.2903.1163.6108.1745.9613.1745.4264 0 .8011-.0822 1.1241-.2467.3231-.1645.5723-.3965.7475-.696.1753-.2995.2629-.6472.2629-1.043 0-.3557-.0726-.6685-.2178-.9387-.1451-.2701-.3485-.48-.6101-.6298-.2616-.1497-.5637-.2246-.9064-.2246-.2302 0-.4434.0381-.6396.1143-.1961.0762-.3413.1772-.4355.3029h-.0667l.0863-1.1874h1.9697c.191 0 .3368-.0448.4375-.1344.1008-.0896.1511-.2173.1511-.3831 0-.1685-.051-.2995-.153-.3931s-.2472-.1404-.4356-.1404h-2.2286c-.4892 0-.7482.2153-.7769.6458l-.1295 1.9496c-.0079.1311.015.2487.0686.353.0537.1043.1308.1852.2315.2427s.2152.0863.3434.0863c.0811 0 .1595-.0154.2354-.0462.0758-.0307.1609-.0835.255-.1584.1177-.0856.24-.1518.3669-.1986s.2505-.0702.3708-.0702c.1622 0 .308.0354.4375.1063s.2302.1705.3021.2989c.072.1283.1079.2754.1079.4412 0 .1739-.0379.3276-.1138.4613-.0758.1338-.1811.2381-.3158.3129-.1347.0749-.2871.1124-.4571.1124-.1779 0-.3401-.0408-.4866-.1224s-.2877-.2079-.4238-.3791c-.0732-.0882-.1484-.1524-.2256-.1925-.0771-.0401-.1628-.0602-.257-.0602-.1543 0-.2792.0555-.3747.1665z"/></g></svg>
