<svg xmlns="http://www.w3.org/2000/svg" width="24" height="25" viewBox="0 0 24 25" fill="currentColor"><path fill-opacity=".9" d="M12.723 2.713c1.207.037 1.993.702 2.407 1.954l.065.215.051.191q.028.111.069.235l.057.159.034.017.069-.023.134-.051.155-.068c1.414-.658 2.502-.536 3.387.437l.126.145.82 1.017c.73.962.709 1.99-.004 3.1l-.126.187-.117.16q-.075.1-.142.205l-.07.115-.034.057.004.02.092.06.126.077.154.083c1.389.71 1.962 1.641 1.74 2.936l-.036.188-.244 1.058c-.158.685-.283 1.01-.771 1.454-.475.432-1.016.61-1.732.67l-.22.014-.198.006q-.116.002-.246.015l-.181.021.013.142.014.096.032.179c.323 1.526-.04 2.558-1.188 3.202l-.17.09-1.174.57c-1.102.495-2.1.242-3.021-.702l-.153-.164-.13-.15a3 3 0 0 0-.17-.186l-.096-.096-.05-.046-.092.087-.105.108-.117.133c-.953 1.134-1.958 1.54-3.177 1.067l-.175-.074-1.052-.51-.312-.16c-.476-.26-.743-.51-1.004-1.061-.275-.58-.293-1.15-.16-1.883l.044-.225q.024-.114.042-.242l.018-.172-.004-.004-.104-.014-.146-.013-.174-.008c-1.56-.028-2.483-.614-2.853-1.877l-.049-.185-.291-1.274c-.235-1.185.235-2.1 1.363-2.785l.194-.112.175-.093q.105-.053.216-.12l.155-.102.004-.019-.063-.108-.08-.125-.102-.143c-.938-1.246-1.045-2.335-.277-3.404l.116-.153.823-1.013c.79-.915 1.8-1.107 3.035-.64l.208.083.18.081q.104.048.222.093l.136.048.036-.017.034-.089.045-.138.046-.166c.359-1.436 1.084-2.242 2.39-2.35l.19-.011h1.389zm-.057 1.799h-1.332l-.14.01c-.286.037-.473.191-.653.832l-.041.156-.056.206q-.18.59-.468 1.134a6 6 0 0 0-1.148.558 6.5 6.5 0 0 1-1.16-.35l-.35-.154c-.248-.107-.435-.161-.582-.175l-.084-.003a.55.55 0 0 0-.409.193l-.068.074-.789.973-.094.125c-.184.264-.211.5.194 1.075l.229.316c.212.31.424.692.597 1.102q-.194.577-.27 1.201c-.333.29-.69.537-1.013.72l-.342.184c-.617.34-.696.563-.647.881l.013.075.28 1.22.041.152c.095.308.264.475.967.509l.388.014c.37.024.798.09 1.223.204q.338.526.776.968c.017.485-.023.97-.118 1.445-.201.95-.014 1.102.384 1.3l1.126.547a.8.8 0 0 0 .336.089l.068-.006c.18-.028.381-.162.67-.485l.258-.295c.256-.278.584-.574.948-.837l.298.023.302.007.302-.008.298-.022q.515.373.948.837l.258.295c.325.364.538.488.738.49l.066-.003a.8.8 0 0 0 .177-.046l.093-.039 1.126-.548.14-.073c.299-.175.42-.395.244-1.226a6.2 6.2 0 0 1-.117-1.445q.436-.442.775-.97.602-.16 1.223-.202l.387-.014c.812-.04.912-.256 1.008-.66l.264-1.142c.09-.406.095-.643-.617-1.035l-.342-.183q-.542-.312-1.013-.722a6 6 0 0 0-.271-1.201c.174-.41.386-.791.598-1.1l.229-.317c.405-.575.378-.81.194-1.075l-.045-.062-.787-.974c-.14-.171-.259-.294-.452-.322l-.076-.007c-.16-.003-.368.05-.667.178l-.35.155a6.4 6.4 0 0 1-1.158.348 6 6 0 0 0-1.15-.556 6.5 6.5 0 0 1-.454-1.093l-.113-.414c-.192-.678-.393-.805-.713-.828zM12 8.7a3.8 3.8 0 1 1 0 7.6 3.8 3.8 0 0 1 0-7.6m0 1.8a2 2 0 1 0 0 4 2 2 0 0 0 0-4"/></svg>