<?xml version="1.0" encoding="UTF-8"?>
<svg width="24px" height="24px" viewBox="0 0 24 24" version="1.1" xmlns="http://www.w3.org/2000/svg" xmlns:xlink="http://www.w3.org/1999/xlink">
    <!-- Generator: Sketch 50.2 (55047) - http://www.bohemiancoding.com/sketch -->
    <title>gallery_24</title>
    <desc>Created with Sketch.</desc>
    <defs></defs>
    <g id="Page-2" stroke="none" stroke-width="1" fill="none" fill-rule="evenodd">
        <g id="gallery_24">
            <rect id="icon-bounds" x="0" y="0" width="24" height="24"></rect>
            <path d="M6,3 L18,3 C19.6568542,3 21,4.34314575 21,6 L21,18 C21,19.6568542 19.6568542,21 18,21 L6,21 C4.34314575,21 3,19.6568542 3,18 L3,6 C3,4.34314575 4.34314575,3 6,3 Z M11,16.51 L8.79806942,13.8588756 C8.78074947,13.8380224 8.76121944,13.8191086 8.73982177,13.802466 C8.57634157,13.6753147 8.34073822,13.7047651 8.21358696,13.8682453 L5.47073268,17.3947723 C5.41953559,17.4605971 5.39173976,17.5416091 5.39173976,17.625 C5.39173976,17.8321068 5.55963298,18 5.76673976,18 L18.25,18 C18.3311388,18 18.4100889,17.9736833 18.475,17.925 C18.6406854,17.8007359 18.6742641,17.5656854 18.55,17.4 L14.7949099,12.3932133 C14.7748305,12.3664406 14.7512576,12.3424763 14.7248192,12.3219587 C14.5612024,12.1949834 14.3256308,12.2246871 14.1986554,12.388304 L11,16.51 Z" id="Combined-Shape" fill="currentColor"></path>
        </g>
    </g>
</svg>
