<svg xmlns="http://www.w3.org/2000/svg" width="24" height="24" fill="currentColor" viewBox="0 0 24 24"><path fill-rule="evenodd" d="M16.855 7.256a.4.4 0 0 1 0 .565l-.786.786a.4.4 0 0 1-.566 0l-.136-.135a.4.4 0 0 0-.566 0l-6.33 6.325a.4.4 0 0 0 0 .565l.131.131a.4.4 0 0 1 0 .566l-.784.783a.4.4 0 0 1-.566 0l-3.261-3.259a.4.4 0 0 1 0-.565l.784-.784a.4.4 0 0 1 .566 0l.092.093a.4.4 0 0 0 .566 0L12.329 6a.4.4 0 0 0 0-.565l-.096-.096a.4.4 0 0 1 0-.565l.786-.786a.4.4 0 0 1 .566 0l3.27 3.267Zm-1.77 3.053a.999.999 0 0 0 1.408-.006l2.06-2.057a.999.999 0 0 0 0-1.414l-4.543-4.54a1.001 1.001 0 0 0-1.415 0l-2.06 2.058a.999.999 0 0 0-.044 1.367l-4.777 4.774a1.001 1.001 0 0 0-1.364.047l-2.057 2.056a.999.999 0 0 0 0 1.413l4.535 4.531a1 1 0 0 0 1.415 0l2.057-2.055a1 1 0 0 0 .01-1.403l.937-.936 6.005 6a1.351 1.351 0 0 0 1.91 0l1.042-1.041a1.348 1.348 0 0 0 0-1.909l-6.005-6 .886-.885Zm3.122 8.67-5.9-5.895.831-.83 5.9 5.894-.831.83Zm-12.762 1.3a.861.861 0 1 0 0 1.721h6.319a.861.861 0 1 0 0-1.722H5.445Z" clip-rule="evenodd"/></svg>
