<svg xmlns="http://www.w3.org/2000/svg" width="24" height="24" fill="currentColor" viewBox="0 0 24 24"><path fill-rule="evenodd" d="M12 2a9 9 0 0 0-9 9v6.529c0 .95.333 1.87.942 2.601a2.709 2.709 0 0 0 3.583.52l.275-.184a1.026 1.026 0 0 1 1.295.128l.34.34a3.628 3.628 0 0 0 5.13 0l.34-.34a1.028 1.028 0 0 1 1.295-.128l.275.184a2.709 2.709 0 0 0 3.583-.52c.609-.73.942-1.65.942-2.601V11a9 9 0 0 0-9-9Zm-1.57 12.213-.084-.065a.878.878 0 0 0-1.126.127.81.81 0 0 0 .064 1.17c.166.145.437.338.8.528 1.482.774 3.138.774 4.632-.528a.81.81 0 0 0 .064-1.17.878.878 0 0 0-1.21-.062c-.887.771-1.77.771-2.67.301a2.649 2.649 0 0 1-.47-.301ZM10 10.5a1.5 1.5 0 1 0-3 0 1.5 1.5 0 0 0 3 0Zm7.206-.09c-.933-.752-1.992-.752-2.91-.308a2.653 2.653 0 0 0-.502.309.74.74 0 0 0-.066 1.125.964.964 0 0 0 1.168.122l.087-.063c.013-.01.071-.048.157-.09.285-.138.523-.152.787.025l.09.065a.962.962 0 0 0 1.255-.059.74.74 0 0 0-.066-1.125Z" clip-rule="evenodd"/></svg>
