<svg xmlns="http://www.w3.org/2000/svg" width="24" height="24" fill="currentColor" viewBox="0 0 24 24"><path d="M14.781 14.77c-.146-.155-.214-.37-.214-.615V9.888c0-.265.073-.493.236-.654.162-.161.392-.234.66-.234h2.387c.383 0 .65.289.65.673 0 .385-.271.662-.65.662h-1.69v.981h1.49c.189 0 .356.063.478.183a.65.65 0 0 1 .184.471.65.65 0 0 1-.186.472.666.666 0 0 1-.475.182h-1.49v1.53c0 .247-.064.462-.204.616-.142.157-.345.23-.58.23-.24 0-.448-.075-.596-.23Zm-9.278-3.218v.864c0 .788.226 1.438.662 1.891.437.454 1.068.693 1.84.693.688 0 1.276-.209 1.695-.584.42-.376.658-.91.658-1.539v-.324c0-.268-.061-.495-.224-.653-.16-.157-.393-.216-.669-.216h-.957c-.192 0-.364.045-.49.154a.571.571 0 0 0-.187.45c0 .18.059.341.188.454.125.11.297.156.49.156h.33v.077a.614.614 0 0 1-.206.478c-.131.115-.327.188-.578.188-.322 0-.554-.107-.71-.3-.158-.196-.253-.502-.253-.928v-.798c0-.433.093-.737.252-.931.154-.188.388-.294.723-.294.43 0 .68.25 1.001.571l.006.006c.14.14.294.208.49.208a.675.675 0 0 0 .482-.187.666.666 0 0 0 .19-.482c0-.379-.275-.754-.643-1.02C9.173 9.171 8.604 9 7.973 9c-.752 0-1.373.243-1.807.693-.433.45-.663 1.091-.663 1.86Zm6.044 2.603c0 .246.067.461.211.616.146.155.353.229.591.229.236 0 .44-.073.585-.229.142-.154.206-.37.206-.616v-4.31c0-.246-.066-.46-.21-.615-.144-.156-.35-.23-.589-.23-.237 0-.443.073-.587.229-.143.154-.207.37-.207.616v4.31Z"/><path fill-rule="evenodd" d="M2 11.04c0-2.464 0-3.696.48-4.638A4.4 4.4 0 0 1 4.402 4.48C5.344 4 6.576 4 9.04 4h5.92c2.464 0 3.696 0 4.638.48a4.4 4.4 0 0 1 1.922 1.922c.48.942.48 2.174.48 4.638v1.92c0 2.464 0 3.696-.48 4.638a4.4 4.4 0 0 1-1.922 1.922c-.942.48-2.174.48-4.638.48H9.04c-2.464 0-3.696 0-4.638-.48a4.4 4.4 0 0 1-1.922-1.922C2 16.656 2 15.424 2 12.96v-1.92ZM9.04 5.8h5.92c1.262 0 2.1.001 2.743.054.623.05.903.14 1.077.23a2.6 2.6 0 0 1 1.137 1.136c.089.174.178.454.229 1.077.053.643.054 1.481.054 2.743v1.92c0 1.262-.001 2.1-.054 2.743-.05.623-.14.903-.23 1.077a2.6 2.6 0 0 1-1.136 1.137c-.174.089-.454.178-1.077.229-.643.053-1.481.054-2.743.054H9.04c-1.262 0-2.1-.001-2.743-.054-.623-.05-.903-.14-1.077-.23a2.6 2.6 0 0 1-1.137-1.136c-.089-.174-.178-.454-.229-1.077-.053-.643-.054-1.481-.054-2.743v-1.92c0-1.262.001-2.1.054-2.743.05-.623.14-.903.23-1.077A2.6 2.6 0 0 1 5.22 6.083c.174-.089.454-.178 1.077-.229C6.94 5.801 7.778 5.8 9.04 5.8Z" clip-rule="evenodd"/></svg>
