<svg xmlns="http://www.w3.org/2000/svg" width="24" height="24" fill="currentColor" viewBox="0 0 24 24"><path d="M12.002 3.61c1.41-2.54 4.075-2.85 5.598-1.327 1.244 1.244 1.265 3.254-.148 4.718L18 7a4 4 0 0 1 4 4v.43c0 1.006-.14 1.546-.4 2.035a2.744 2.744 0 0 1-1.598 1.336L20 16.872c0 1.783-.186 2.43-.534 3.082a3.635 3.635 0 0 1-1.512 1.512c-.652.348-1.299.534-3.082.534H9.128c-1.783 0-2.43-.186-3.082-.534a3.635 3.635 0 0 1-1.512-1.512C4.186 19.302 4 18.655 4 16.872v-2.071a2.744 2.744 0 0 1-1.6-1.336c-.239-.448-.376-.939-.397-1.793L2 11a4 4 0 0 1 4-4l.55.001c-1.411-1.464-1.39-3.474-.146-4.718 1.525-1.524 4.192-1.213 5.6 1.326ZM11.1 15H5.799l.002 2.116c.013.672-.005 1.38.32 1.989.55 1.026 1.725 1.085 2.763 1.094H11.1V15Zm7.1 0h-5.3v5.199h2.216c1.037-.02 2.213-.067 2.762-1.094.223-.417.31-.825.321-1.99L18.2 15ZM18 8.8l-5.1.001V13.2h5.624c.545-.004 1.2-.043 1.488-.583.117-.219.176-.464.186-.998L20.2 11A2.2 2.2 0 0 0 18 8.8Zm-12 0A2.2 2.2 0 0 0 3.8 11l.002.618c.01.534.069.779.186.998.288.54.94.579 1.485.584l5.627-.001V8.801L6 8.8Zm1.676-5.244C6.606 4.625 7.6 6.632 10.85 6.975l.254.023c-.26-3.46-2.229-4.64-3.427-3.442Zm8.651 0C15.13 2.358 13.16 3.538 12.9 6.998l.255-.023c3.25-.343 4.241-2.35 3.172-3.42Z"/></svg>
