<svg fill="none" height="24" viewBox="0 0 24 24" width="24" xmlns="http://www.w3.org/2000/svg"><path clip-rule="evenodd" d="m11.5 4.39998c-1.436 0-2.60002 1.16406-2.60002 2.6v.1h5.20002v-.1c0-1.43594-1.1641-2.6-2.6-2.6zm4.4 2.7v-.1c0-2.43006-1.97-4.4-4.4-4.4-2.43008 0-4.40002 1.96994-4.40002 4.4v.1c-.50203.00003-.9316.0012-1.28689.03023-.38916.0318-.76775.10143-1.12969.28585-.54567.27803-.98931.72167-1.26734 1.26734-.18442.36194-.25405.74053-.28585 1.12969-.03026.37041-.03025.82161-.03023 1.35151v3.4743c-.00001 1.0871-.00002 1.9578.05748 2.6616.05905.7226.18318 1.3482.47659 1.924.46977.922 1.21938 1.6716 2.14137 2.1414.57585.2934 1.20141.4175 1.92408.4766.70377.0575 1.57445.0575 2.6615.0575h4.5369.0653 2.0735c.6688 0 1.2248 0 1.6786-.0371.4725-.0386.9128-.1218 1.3282-.3335.6398-.326 1.1599-.8461 1.4859-1.4859.2117-.4154.2949-.8557.3335-1.3282.0371-.4538.0371-1.0098.0371-1.6786v-1.0735c0-.6688 0-1.2248-.0371-1.6785-.0386-.4725-.1218-.9129-.3335-1.3283-.326-.6397-.8461-1.1599-1.4859-1.4858-.0475-.0243-.0953-.0468-.1435-.0678v-.2382c0-.5299 0-.9811-.0303-1.35151-.0318-.38916-.1014-.76775-.2858-1.12969-.278-.54567-.7217-.98931-1.2673-1.26734-.362-.18442-.7406-.25405-1.1297-.28585-.3553-.02903-.7849-.0302-1.2869-.03023zm2.2 4.00752c-.0002-.5234-.002-.8752-.0243-1.14783-.0227-.27785-.062-.39319-.0956-.45908-.1055-.20698-.2738-.37526-.4807-.48072-.0659-.03357-.1813-.07293-.4591-.09564-.2884-.02355-.6654-.02425-1.2403-.02425h-8.60002c-.57491 0-.95196.0007-1.24031.02425-.27785.02271-.39319.06207-.45908.09564-.20698.10546-.37526.27374-.48072.48072-.03357.06589-.07293.18123-.09563.45908-.02356.28833-.02426.66543-.02426 1.24033v3.4c0 1.1349.0007 1.932.0515 2.5539.04995.6113.14381.9736.28638 1.2534.2972.5833.77144 1.0576 1.35475 1.3548.2798.1426.64211.2364 1.25346.2864.62186.0508 1.41895.0515 2.55393.0515h.1c-.01-.0187-.0198-.0375-.0294-.0565-.2117-.4154-.295-.8557-.3336-1.3282-.037-.4538-.037-1.0098-.037-1.6786v-1.0735c0-.6688 0-1.2248.037-1.6785.0386-.4725.1219-.9129.3336-1.3283.3259-.6397.8461-1.1599 1.4858-1.4858.4154-.2117.8558-.295 1.3283-.3336.4537-.037 1.0097-.037 1.6785-.037h2.0735c.3926 0 .7463 0 1.0633.0075zm-3.1 8.9925h2c.7149 0 1.197-.0007 1.5687-.0311.3612-.0295.5383-.0825.6577-.1433.301-.1534.5458-.3982.6992-.6992.0608-.1194.1138-.2965.1433-.6577.0304-.3717.0311-.8538.0311-1.5687v-1c0-.7149-.0007-1.197-.0311-1.5687-.0295-.3613-.0825-.5383-.1433-.6577-.1534-.3011-.3982-.5458-.6992-.6992-.1194-.0609-.2965-.1138-.6577-.1434-.3717-.0303-.8538-.031-1.5687-.031h-2c-.7149 0-1.197.0007-1.5687.031-.3613.0296-.5383.0825-.6577.1434-.3011.1534-.5458.3981-.6992.6992-.0609.1194-.1138.2964-.1434.6577-.0303.3717-.031.8538-.031 1.5687v1c0 .7149.0007 1.197.031 1.5687.0296.3612.0825.5383.1434.6577.1534.301.3981.5458.6992.6992.1194.0608.2964.1138.6577.1433.3717.0304.8538.0311 1.5687.0311zm3.6706-5.7002c.3315.3703.3.9393-.0704 1.2708-.6894.617-1.6019.9933-2.6002.9933s-1.9109-.3763-2.6002-.9933c-.3704-.3315-.4019-.9005-.0704-1.2708.3314-.3704.9004-.4019 1.2708-.0704.3721.333.8614.5345 1.3998.5345s1.0276-.2015 1.3998-.5345c.3703-.3315.9393-.3 1.2708.0704z" fill="currentColor" fill-rule="evenodd"/></svg>
