<svg xmlns="http://www.w3.org/2000/svg" width="24" height="24" fill="currentColor" viewBox="0 0 24 24"><path d="M9.037 6.122a.9.9 0 0 1 .926-1.544l.752.452c.508.304.941.7 1.285 1.158a4.497 4.497 0 0 1 1.285-1.158l.752-.452a.9.9 0 0 1 .926 1.544l-.752.451A2.7 2.7 0 0 0 12.9 8.888V9.1a.9.9 0 1 1-1.8 0v-.212a2.7 2.7 0 0 0-1.31-2.315l-.753-.451Z"/><path d="M13.3 3.3a1.3 1.3 0 1 1-2.6 0 1.3 1.3 0 0 1 2.6 0Z M4.5 3.7c-.31 0-.566.14-.737.326a1.14 1.14 0 0 0-.246.444c-.065.214-.073.44-.072.605.002.352.057.783.119 1.167a22.759 22.759 0 0 0 .238 1.247l-.025.057a9.331 9.331 0 0 0-.36.932c-.248.765-.49 1.84-.398 2.988.095 1.168.54 2.419 1.66 3.453.751.694 1.77 1.256 3.107 1.645-.349.474-.552 1.02-.672 1.61-.36 1.772 1.059 3.15 2.545 3.418l2.161.39a.903.903 0 0 0 .36 0l2.16-.39c1.487-.268 2.906-1.646 2.546-3.418-.12-.59-.323-1.136-.671-1.61 1.337-.389 2.355-.95 3.107-1.645 1.12-1.034 1.564-2.285 1.659-3.453.092-1.149-.15-2.223-.399-2.988a9.352 9.352 0 0 0-.358-.932l-.026-.057.036-.172c.061-.289.14-.68.202-1.075.062-.384.117-.815.12-1.167a2.09 2.09 0 0 0-.073-.605 1.139 1.139 0 0 0-.246-.444.996.996 0 0 0-.737-.326c-.285 0-.567.09-.788.178-.24.097-.5.23-.762.39a9.298 9.298 0 0 0-1.67 1.317C15.195 6.656 14.1 8.249 14.1 10.1a.9.9 0 0 0 1.8 0c0-1.15.705-2.306 1.645-3.235a7.75 7.75 0 0 1 1.115-.916l-.001.009a20.985 20.985 0 0 1-.278 1.405l-.005.023-.002.007a.9.9 0 0 0 .085.637l.005.009.024.046c.021.043.054.11.094.2.08.177.186.436.289.75.208.64.382 1.461.316 2.285-.066.804-.357 1.603-1.087 2.277-.744.687-2.027 1.321-4.218 1.61a.9.9 0 0 0-.166 1.747c.497.165.786.366.974.583.19.219.336.522.432.995.103.503-.302 1.144-1.101 1.289L12 20.185l-2.02-.364c-.8-.145-1.204-.786-1.102-1.289.096-.473.242-.776.432-.995.188-.217.477-.418.974-.583a.9.9 0 0 0-.166-1.746c-2.19-.29-3.474-.924-4.218-1.611-.73-.674-1.021-1.473-1.086-2.277-.067-.824.107-1.646.315-2.285a7.534 7.534 0 0 1 .407-.996l.005-.01a.9.9 0 0 0 .085-.636l-.002-.007-.005-.023a17.894 17.894 0 0 1-.092-.418 20.968 20.968 0 0 1-.186-.987l-.001-.009c.35.235.74.545 1.115.916.94.929 1.645 2.086 1.645 3.235a.9.9 0 1 0 1.8 0c0-1.85-1.095-3.444-2.18-4.515a9.298 9.298 0 0 0-1.67-1.317 5.357 5.357 0 0 0-.762-.39C5.068 3.79 4.785 3.7 4.5 3.7Z" clip-rule="evenodd"/></svg>
