<svg xmlns="http://www.w3.org/2000/svg" width="24" height="24" fill="currentColor" viewBox="0 0 24 24"><path d="M9.5 9.5H7V12h2.5v2.5H7V17h2.5v-2.5H12V12H9.5V9.5Zm0 0V7H12v2.5H9.5Z"/><path fill-rule="evenodd" d="M14.538 3H9.462c-.948 0-1.714 0-2.334.05-.64.053-1.203.163-1.726.43A4.4 4.4 0 0 0 3.48 5.402c-.267.523-.377 1.087-.43 1.726C3 7.748 3 8.514 3 9.462v5.076c0 .948 0 1.714.05 2.334.053.64.163 1.203.43 1.726a4.4 4.4 0 0 0 1.922 1.922c.523.267 1.087.377 1.726.43.62.05 1.386.05 2.334.05h5.076c.948 0 1.714 0 2.334-.05.64-.053 1.203-.163 1.726-.43a4.4 4.4 0 0 0 1.922-1.922c.267-.523.377-1.087.43-1.726.05-.62.05-1.386.05-2.334V9.462c0-.948 0-1.714-.05-2.334-.053-.64-.163-1.203-.43-1.726a4.4 4.4 0 0 0-1.922-1.922c-.523-.267-1.087-.377-1.726-.43C16.252 3 15.486 3 14.538 3ZM7 4.873c-.364.046-.597.117-.78.21A2.6 2.6 0 0 0 5.083 6.22c-.093.183-.164.416-.21.78H7v2.5H4.8V12H7v2.5H4.8c0 .995 0 1.687.045 2.226a5.6 5.6 0 0 0 .028.274H7v2.127c.084.01.175.02.274.028.539.044 1.231.045 2.226.045V17H12v2.2h2.5c.995 0 1.687 0 2.226-.045.527-.043.828-.123 1.054-.238a2.6 2.6 0 0 0 1.137-1.137c.115-.226.195-.527.238-1.055.044-.538.045-1.23.045-2.225v-5c0-.995 0-1.687-.045-2.226-.043-.527-.123-.828-.238-1.054a2.6 2.6 0 0 0-1.137-1.137c-.226-.115-.527-.195-1.055-.238-.538-.044-1.23-.045-2.225-.045h-5V7H7V4.873Z" clip-rule="evenodd"/></svg>
