<svg xmlns="http://www.w3.org/2000/svg" width="24" height="24" fill="currentColor" viewBox="0 0 24 24"><path d="M12 8.5a1 1 0 1 0 0-2 1 1 0 0 0 0 2Zm3.184 1.316a1 1 0 1 0 0-2 1 1 0 0 0 0 2ZM12 13a1 1 0 1 0 0-2 1 1 0 0 0 0 2Zm5.5-1a1 1 0 1 1-2 0 1 1 0 0 1 2 0Zm-10 1a1 1 0 1 0 0-2 1 1 0 0 0 0 2Zm5.5 3.5a1 1 0 1 1-2 0 1 1 0 0 1 2 0ZM9.813 8.82a1 1 0 1 1-2 0 1 1 0 0 1 2 0Zm-1 7.36a1 1 0 1 0 0-2 1 1 0 0 0 0 2Zm7.363-.989a1 1 0 1 1-2 0 1 1 0 0 1 2 0Z"/><path fill-rule="evenodd" d="M22 12c0 5.523-4.477 10-10 10S2 17.523 2 12 6.477 2 12 2s10 4.477 10 10Zm-1.8 0a8.2 8.2 0 1 1-16.4 0 8.2 8.2 0 0 1 16.4 0Z" clip-rule="evenodd"/></svg>
