<svg fill="none" height="24" viewBox="0 0 24 24" width="24" xmlns="http://www.w3.org/2000/svg"><g fill="currentColor"><path d="m16.0001 4.00458c.4971 0 .9.40294.9.9v15.20002c0 .497-.4029.9-.9.9s-.9-.403-.9-.9v-15.20002c0-.49706.4029-.9.9-.9z"/><path d="m4.0001 6.00232c.49706 0 .9.40294.9.9v13.19768c0 .4971-.40294.9-.9.9s-.9-.4029-.9-.9v-13.19768c0-.49706.40294-.9.9-.9z"/><path d="m8.0001 9.00403c.49705 0 .9.40294.9.9v10.19997c0 .4971-.40295.9-.9.9-.49706 0-.9-.4029-.9-.9v-10.19997c0-.49706.40294-.9.9-.9z"/><path d="m12.9001 16.9023c0-.497-.4029-.9-.9-.9s-.9.403-.9.9v3.2c0 .4971.4029.9.9.9s.9-.4029.9-.9z"/><path d="m20.9001 13.9046c0-.4971-.4029-.9-.9-.9s-.9.4029-.9.9v6.2c0 .497.4029.9.9.9s.9-.403.9-.9z"/></g></svg>
