<svg xmlns="http://www.w3.org/2000/svg" width="24" height="24" fill="currentColor" viewBox="0 0 24 24"><path fill-rule="evenodd" d="M4.267 4a1.9 1.9 0 0 0-1.9 1.9V9c0 .944.624 1.728 1.763 1.875.213.028.38.21.316.414a1.966 1.966 0 0 1-.191.433l-.436.697c-.935 1.497-1.533 3.28-1.752 5.03l-.052.415A1.9 1.9 0 0 0 3.9 20h3.104a1.9 1.9 0 0 0 1.833-1.4l1.098-4.126a.1.1 0 0 1 .096-.074h3.482a1.9 1.9 0 0 0 1.827-1.378l.606-2.122H21.1A1.9 1.9 0 0 0 23 9V5.9A1.9 1.9 0 0 0 21.1 4H4.267Zm-.1 2.6c0-.28 0-.42.055-.527a.5.5 0 0 1 .218-.219c.107-.054.247-.054.527-.054H20.4c.28 0 .42 0 .527.054a.5.5 0 0 1 .218.219c.055.107.055.247.055.527v1.7c0 .28 0 .42-.055.527a.5.5 0 0 1-.218.218c-.107.055-.247.055-.527.055h-8.414c-.873 0-1.309 0-1.674.15a2 2 0 0 0-.82.624c-.242.312-.358.732-.59 1.573A996.13 996.13 0 0 0 8.198 14L7.1 18.126a.1.1 0 0 1-.096.074H3.9a.1.1 0 0 1-.099-.112l.052-.415c.186-1.492.696-3.025 1.492-4.3l.436-.697c.294-.47.54-1.178.551-1.825.005-.322-.046-.748-.301-1.118-.294-.424-.756-.633-1.264-.633-.092 0-.139 0-.178-.006a.5.5 0 0 1-.415-.416c-.007-.039-.007-.085-.007-.178V6.6Zm6.404 6h2.412c.216 0 .324 0 .415-.037a.5.5 0 0 0 .204-.154c.06-.077.09-.18.15-.388l.322-1.121h-1.787c-.418 0-.626 0-.803.07a1 1 0 0 0-.402.292c-.122.146-.187.345-.316.741l-.195.597Z" clip-rule="evenodd"/></svg>
