<svg xmlns="http://www.w3.org/2000/svg" width="24" height="24" fill="currentColor" viewBox="0 0 24 24"><path fill-rule="evenodd" d="M9.662 3.833C9.322 2.403 7.78 1.58 6.41 2.215c-1.04.48-1.573 1.64-1.316 2.741v.002l1.38 6.032a2.228 2.228 0 0 0-3.05.596c-.577.82-.564 1.93.034 2.735l3.744 5.041a2.464 2.464 0 0 0 .131.174c.086.106.21.248.373.41.328.326.818.736 1.492 1.105 1.364.746 3.414 1.287 6.25.702 2.335-.482 3.976-1.804 4.843-3.595.851-1.758.915-3.88.304-5.952l-.902-3.922c-.329-1.432-1.835-2.291-3.23-1.731a2.401 2.401 0 0 0-.806.53 2.282 2.282 0 0 0-1.866-.393 2.164 2.164 0 0 0-1.009.523 2.333 2.333 0 0 0-1.924-.294.907.907 0 0 0-.098.033c-.088.037-.182.08-.28.135l-.818-3.254Zm2.672 6.598v.002a.9.9 0 0 0 1.746-.44V9.99l-.207-.82a.73.73 0 0 1 .044-.512.389.389 0 0 1 .27-.212c.24-.054.514.082.61.378l.349 1.09.001.003a.9.9 0 0 0 1.715-.547l-.001-.003-.096-.303c-.115-.361.073-.722.368-.84.314-.127.71.049.806.463l.908 3.95.014.055c.52 1.744.43 3.4-.19 4.682-.608 1.257-1.766 2.24-3.587 2.616-2.417.498-4.033.023-5.022-.518a4.842 4.842 0 0 1-1.087-.802 3.318 3.318 0 0 1-.29-.329l-.007-.009a.818.818 0 0 0-.022-.03l-3.753-5.054a.543.543 0 0 1-.007-.627.427.427 0 0 1 .667-.063l1.87 2.135a.9.9 0 0 0 1.554-.794l-2.14-9.346v-.004a.616.616 0 0 1 .319-.7c.282-.131.655.017.746.403l1.641 6.53a.9.9 0 0 0 1.748-.433c-.231-.944-.153-1.366-.09-1.525.036-.09.08-.136.181-.184.29-.059.516.11.57.326l.372 1.465Z" clip-rule="evenodd"/></svg>
