<svg xmlns="http://www.w3.org/2000/svg" width="24" height="24" fill="currentColor" viewBox="0 0 24 24"><path fill-rule="evenodd" d="M7.02 2.718a2.145 2.145 0 0 1 3.89-.759 2.145 2.145 0 0 1 2.847 2.027V6.5a2.25 2.25 0 0 1 2.926 3.268l-1.356 1.911a.9.9 0 0 1-1.468-1.042l1.356-1.91a.449.449 0 0 0-.73-.525l-.837 1.149a.9.9 0 0 1-1.606-.334.896.896 0 0 1-.085-.384V3.986a.345.345 0 1 0-.69 0v3.385a.9.9 0 1 1-1.8 0V3.145a.345.345 0 1 0-.69 0v2.122a.9.9 0 0 1-1.8 0V4.82a.345.345 0 0 0-.344-.338.9.9 0 1 1 0-1.8c.132 0 .262.012.387.035ZM2.266 3.786a.9.9 0 0 1 1.273.005l16.71 16.833a.9.9 0 1 1-1.278 1.268l-.853-.86a5.057 5.057 0 0 1-1.73 1.423c-.883.436-1.796.545-2.631.545-1.105 0-2.131-.388-2.937-.952-.797-.557-1.447-1.335-1.728-2.192a.9.9 0 1 1 1.71-.562c.133.406.493.89 1.05 1.28.547.382 1.219.626 1.905.626.685 0 1.292-.091 1.835-.36.418-.206.842-.539 1.245-1.097l-3.95-3.979a5.963 5.963 0 0 1-1.575.915c-.811.315-1.66.43-2.572.43-1.039 0-2.3-.386-3.312-1.277-1.038-.915-1.768-2.322-1.768-4.253V6.53c0-.02 0-.04.002-.06l-1.4-1.41a.9.9 0 0 1 .004-1.273ZM5.46 8.281v3.298c0 1.436.524 2.344 1.158 2.902.66.581 1.489.827 2.122.827.76 0 1.375-.095 1.922-.307.32-.124.632-.293.947-.525L5.46 8.281Zm12.375 1.977a.9.9 0 0 1 .9.9v1.145a2.307 2.307 0 0 1 2.859 3.453l-1.361 1.83a.9.9 0 0 1-1.445-1.073l1.36-1.83a.507.507 0 0 0-.804-.617l-.802 1.016a.9.9 0 0 1-1.607-.557v-3.367a.9.9 0 0 1 .9-.9Z" clip-rule="evenodd"/></svg>
