<svg fill="none" height="24" viewBox="0 0 24 24" width="24" xmlns="http://www.w3.org/2000/svg"><path d="m19.2385 18.1006h-14.47697c-.97287 0-1.76153-.7887-1.76153-1.7616 0-.6838.39581-1.3059 1.01528-1.5956l7.98472-3.7342 7.9847 3.7342c.6195.2897 1.0153.9118 1.0153 1.5956 0 .9729-.7887 1.7616-1.7615 1.7616z" stroke="#3f8ae0" stroke-width="1.8"/><path d="m9.1 6.90442c0 .49706.40294.9.9.9.4971 0 .9-.40294.9-.9zm2 4.09558v.9h1.8v-.9zm-.2-4.09558c0-.60751.4925-1.1 1.1-1.1v-1.8c-1.6016 0-2.9 1.29837-2.9 2.9zm1.1-1.1c.6075 0 1.1.49249 1.1 1.1h1.8c0-1.60163-1.2984-2.9-2.9-2.9zm1.1 1.1c0 .66395-.3027 1.09636-.7835 1.65778-.4168.4866-1.2165 1.28241-1.2165 2.4378h1.8c0-.3446.2003-.586.7835-1.26685.5192-.60607 1.2165-1.47145 1.2165-2.82873z" fill="#3f8ae0"/><path clip-rule="evenodd" d="m10.9 6.90439c0-.60751.4925-1.1 1.1-1.1s1.1.49249 1.1 1.1c0 .66396-.3027 1.09637-.7836 1.65778-.0379.04426-.0789.09108-.1223.14049-.3462.3946-.8377.95474-1.0213 1.69974l-7.53881 3.5257c-.93598.4377-1.53401 1.3776-1.53401 2.4109 0 1.4699 1.1916 2.6615 2.66152 2.6615h14.4769c1.47 0 2.6616-1.1916 2.6616-2.6615 0-1.0333-.5981-1.9732-1.534-2.4109l-7.3052-3.4164c.1221-.1921.3212-.4266.6227-.77857.5191-.60607 1.2165-1.47145 1.2165-2.82874 0-1.60162-1.2984-2.9-2.9-2.9-1.6017 0-2.90002 1.29838-2.90002 2.9 0 .49706.40294.9.9.9.49702 0 .90002-.40294.90002-.9zm-6.50347 8.65421 7.60347-3.5559 7.6034 3.5559c.303.1417.4966.4459.4966.7804 0 .4758-.3857.8615-.8616.8615h-14.4769c-.47581 0-.86152-.3857-.86152-.8615 0-.3345.19358-.6387.49655-.7804z" fill="currentColor" fill-rule="evenodd"/></svg>
