<svg xmlns="http://www.w3.org/2000/svg" width="24" height="24" fill="currentColor" viewBox="0 0 24 24"><path fill-rule="evenodd" d="M20 15.929V12.8a8 8 0 1 0-16 0v4.7a1.5 1.5 0 0 1-3 0v-4a1.5 1.5 0 0 1 1.23-1.476C2.626 6.974 6.85 3 12 3s9.374 3.974 9.77 9.024A1.5 1.5 0 0 1 23 13.5v4a1.5 1.5 0 0 1-3 0v-1.572ZM9.4 12.15a.9.9 0 1 1 1.8 0v6.7a.9.9 0 1 1-1.8 0v-6.7ZM6 13.9a.9.9 0 1 1 1.8 0v3.2a.9.9 0 1 1-1.8 0v-3.2Zm6.8-3.5a.9.9 0 0 1 1.8 0v10.2a.9.9 0 1 1-1.8 0V10.4Zm3.4 3.5a.9.9 0 1 1 1.8 0v3.2a.9.9 0 0 1-1.8 0v-3.2Z" clip-rule="evenodd"/></svg>