<svg xmlns="http://www.w3.org/2000/svg" width="24" height="24" fill="currentColor" viewBox="0 0 24 24"><path fill-rule="evenodd" d="M11.353 2C8.932 2 7 4.023 7 6.48c0 .265.014.52.043.766.944.127 1.762.507 2.457 1.001.86-.61 1.907-1.047 3.147-1.047 2.976 0 5.37 2.12 5.994 4.86.942-.8 1.67-1.495 2.198-2.177C21.659 8.822 22 7.787 22 6.479 22 4.023 20.068 2 17.647 2c-1.258 0-2.301.705-3.147 1.674C13.654 2.704 12.61 2 11.353 2ZM2 13.48C2 11.022 3.932 9 6.353 9c1.258 0 2.301.705 3.147 1.674C10.346 9.704 11.39 9 12.647 9 15.068 9 17 11.023 17 13.48c0 1.307-.34 2.342-1.161 3.403-.774 1-1.98 2.03-3.66 3.378l-1.757 1.413a1.467 1.467 0 0 1-1.844 0L6.82 20.261c-1.678-1.349-2.885-2.377-3.659-3.378C2.341 15.822 2 14.787 2 13.479Z" clip-rule="evenodd"/></svg>
