<svg xmlns="http://www.w3.org/2000/svg" width="24" height="24" fill="currentColor" viewBox="0 0 24 24"><path d="M7.734 4.002C4.574 4.002 2 6.602 2 9.8c0 1.72.445 3.048 1.533 4.423 1.035 1.308 2.662 2.668 4.965 4.508l.003.002 1.563 1.238a.9.9 0 0 0 1.117-1.41l-1.56-1.237H9.62c-2.34-1.87-3.792-3.101-4.675-4.218C4.112 12.056 3.8 11.124 3.8 9.8c0-2.222 1.786-3.998 3.934-3.998 1.289 0 2.47.59 3.565 1.948a.9.9 0 0 0 1.408-.008c1.064-1.349 2.242-1.94 3.559-1.94 1.814 0 3.37 1.266 3.81 3.001a.9.9 0 1 0 1.745-.442c-.634-2.502-2.885-4.359-5.555-4.359-1.64 0-3.068.645-4.271 1.837-1.215-1.19-2.639-1.837-4.26-1.837Z"/><path fill-rule="evenodd" d="m18.209 10.53-.021-.072C18.05 10 17.957 10 17.729 10h-.5c-.204.002-.33.029-.416.458-.083.412-.202.824-.893 1.22-.721.194-1.077 0-1.433-.193l-.066-.036c-.421-.227-.486-.162-.648 0l-.354.354c-.143.145-.213.253.03.618.233.35.44.726.232 1.495-.374.646-.762.76-1.15.875l-.073.021c-.458.138-.458.23-.458.459v.5c.002.204.029.33.458.416.412.083.824.202 1.22.893.194.721 0 1.077-.193 1.433a8.359 8.359 0 0 0-.036.066c-.227.421-.162.486 0 .648l.354.354c.145.143.253.213.618-.03.35-.233.726-.44 1.495-.231.646.373.76.76.875 1.15l.021.072c.138.458.23.458.459.458h.5c.204-.002.33-.029.416-.458.083-.412.202-.824.893-1.22.721-.194 1.077 0 1.433.193l.066.036c.421.227.486.162.648 0l.354-.354c.143-.145.213-.253-.03-.618-.233-.35-.44-.726-.231-1.495.373-.646.76-.76 1.15-.875l.072-.021c.458-.138.458-.23.458-.459v-.5c-.002-.204-.029-.33-.458-.416-.412-.083-.824-.202-1.22-.893-.194-.721 0-1.077.193-1.433l.036-.066c.227-.421.162-.486 0-.648l-.354-.354c-.145-.143-.253-.213-.618.03-.35.233-.726.44-1.495.232-.646-.374-.76-.762-.875-1.15Zm-3.322 4.97a2.613 2.613 0 1 1 5.226 0 2.613 2.613 0 0 1-5.226 0Z" clip-rule="evenodd"/></svg>
