<svg xmlns="http://www.w3.org/2000/svg" width="24" height="24" fill="currentColor" viewBox="0 0 24 24"><path d="M10 2.9a.9.9 0 1 0-1.8 0v1.8H2.9a.9.9 0 0 0 0 1.8h7.298c-.005.841-.028 1.247-.123 1.622a4.065 4.065 0 0 1-.691 1.444c-.273.363-.642.675-1.562 1.417l-1.81-2.335a.9.9 0 1 0-1.423 1.104l1.83 2.36-4.083 3.287A.9.9 0 0 0 3.464 16.8l4.059-3.266.866 1.117a.9.9 0 1 0 1.422-1.103l-.886-1.143c.89-.717 1.465-1.183 1.898-1.759.467-.62.806-1.329.997-2.082.149-.588.175-1.204.18-2.065h2.7a.9.9 0 0 0 0-1.8H10V2.9Z M15.908 8.503a.9.9 0 0 0-1.616 0l-6 12.2a.9.9 0 1 0 1.616.794l2.015-4.097h6.354l2.015 4.097a.9.9 0 0 0 1.616-.794l-6-12.2Zm1.484 7.097h-4.584l2.292-4.66 2.292 4.66Z" clip-rule="evenodd"/></svg>
