<svg xmlns="http://www.w3.org/2000/svg" width="24" height="24" fill="currentColor" viewBox="0 0 24 24"><path fill-rule="evenodd" d="M12 7.1a.9.9 0 0 1 .9.9v3.727l2.236 2.237a.9.9 0 0 1-1.272 1.272l-2.5-2.5a.9.9 0 0 1-.264-.636V8a.9.9 0 0 1 .9-.9Z" clip-rule="evenodd"/><path d="M19 5a9.872 9.872 0 0 0-7-2.9 9.873 9.873 0 0 0-7.1 3V3a.9.9 0 0 0-1.8 0v4a.9.9 0 0 0 .9.9h4a.9.9 0 0 0 0-1.8H6.45A8.069 8.069 0 0 1 12 3.9c2.237 0 4.26.906 5.727 2.372A8.072 8.072 0 0 1 20.1 12a8.07 8.07 0 0 1-2.373 5.727A8.072 8.072 0 0 1 12 20.1a8.064 8.064 0 0 1-5.203-1.891.9.9 0 1 0-1.156 1.379A9.864 9.864 0 0 0 12 21.9c2.733 0 5.21-1.11 7-2.9a9.872 9.872 0 0 0 2.9-7c0-2.734-1.11-5.21-2.9-7Z"/></svg>
