<svg xmlns="http://www.w3.org/2000/svg" width="24" height="24" fill="currentColor" viewBox="0 0 24 24"><path fill-rule="evenodd" d="M5 5a9.872 9.872 0 0 1 7-2.9c2.535 0 4.85.954 6.6 2.521V3a.9.9 0 1 1 1.8 0v4a.9.9 0 0 1-.9.9H16a.9.9 0 1 1 0-1.8h1.55A8.069 8.069 0 0 0 12 3.9c-2.237 0-4.26.906-5.728 2.372A8.072 8.072 0 0 0 3.9 12c0 2.237.905 4.26 2.372 5.728A8.072 8.072 0 0 0 12 20.1c2.237 0 4.26-.906 5.727-2.372A.9.9 0 1 1 19 19a9.872 9.872 0 0 1-7 2.9A9.872 9.872 0 0 1 5 19a9.872 9.872 0 0 1-2.9-7A9.872 9.872 0 0 1 5 5Zm7 2.1a.9.9 0 0 1 .9.9v3.727l2.236 2.237a.9.9 0 1 1-1.272 1.272l-2.5-2.5a.9.9 0 0 1-.264-.636V8a.9.9 0 0 1 .9-.9Z" clip-rule="evenodd"/></svg>
