<svg xmlns="http://www.w3.org/2000/svg" width="24" height="24" fill="currentColor" viewBox="0 0 24 24"><path fill-rule="evenodd" d="M12.185 4.85a.6.6 0 0 0-.37 0c-.014.005-.07.025-.218.151-.157.133-.35.325-.658.632L5.574 11c-.377.376-.457.465-.512.555a1.1 1.1 0 0 0-.132.318c-.024.102-.03.222-.03.754V17.6c0 .435 0 .707.017.912.016.194.042.248.048.26a.6.6 0 0 0 .263.263c.012.006.066.032.26.048.205.016.477.017.912.017h2.7v-3.2a2.9 2.9 0 0 1 5.8 0v3.2h2.7c.435 0 .707 0 .912-.017.194-.016.248-.042.26-.048a.6.6 0 0 0 .263-.263c.006-.012.032-.066.047-.26.017-.205.018-.477.018-.912v-4.975c0-.531-.006-.65-.03-.753a1.098 1.098 0 0 0-.132-.318c-.055-.09-.136-.179-.512-.555l-5.365-5.366c-.308-.307-.5-.499-.658-.632-.148-.126-.204-.146-.218-.15Zm-.927-1.711a2.4 2.4 0 0 1 1.484 0c.329.107.592.291.826.49.22.186.465.431.742.708l5.39 5.39.055.056c.291.29.537.535.718.83.159.26.276.543.347.838.08.337.08.684.08 1.095v5.087c0 .392 0 .738-.023 1.026-.025.305-.081.622-.239.93a2.4 2.4 0 0 1-1.048 1.05 2.44 2.44 0 0 1-.931.238c-.288.023-.634.023-1.026.023H14.19a1.089 1.089 0 0 1-1.089-1.089V15.9a1.1 1.1 0 0 0-2.2 0v3.911c0 .602-.487 1.089-1.089 1.089H6.367c-.392 0-.738 0-1.025-.023a2.448 2.448 0 0 1-.932-.238 2.4 2.4 0 0 1-1.048-1.05c-.158-.308-.214-.625-.239-.93-.023-.288-.023-.634-.023-1.026v-5.087c0-.411 0-.758.08-1.095a2.9 2.9 0 0 1 .347-.838c.181-.295.427-.54.718-.83l.056-.057 5.39-5.389c.276-.277.52-.522.74-.708.235-.199.498-.383.827-.49Z" clip-rule="evenodd"/></svg>
