<svg xmlns="http://www.w3.org/2000/svg" width="24" height="24" fill="currentColor" viewBox="0 0 24 24"><path fill-rule="evenodd" d="M22 10.462v3.076c0 .948 0 1.714-.05 2.334-.053.64-.163 1.203-.43 1.726a4.4 4.4 0 0 1-1.922 1.922c-.523.267-1.087.377-1.726.43-.62.05-1.386.05-2.334.05H8.461c-.947 0-1.713 0-2.333-.05-.64-.053-1.203-.163-1.726-.43a4.4 4.4 0 0 1-1.923-1.922c-.266-.523-.376-1.087-.428-1.726C2 15.252 2 14.486 2 13.538v-3.076c0-.948 0-1.714.05-2.334.053-.64.163-1.203.43-1.726A4.4 4.4 0 0 1 4.401 4.48c.523-.267 1.087-.377 1.726-.43C6.748 4 7.514 4 8.46 4h7.077c.948 0 1.714 0 2.334.05.64.053 1.203.163 1.726.43a4.4 4.4 0 0 1 1.922 1.922c.267.523.377 1.087.43 1.726.05.62.05 1.386.05 2.334Zm-1.845-2.188c-.043-.527-.123-.828-.239-1.054a2.6 2.6 0 0 0-1.136-1.137c-.226-.115-.527-.195-1.055-.238-.538-.044-1.23-.045-2.225-.045h-7c-.995 0-1.687 0-2.226.045-.528.043-.828.123-1.054.238A2.6 2.6 0 0 0 4.083 7.22c-.115.226-.195.527-.238 1.054C3.8 8.813 3.8 9.505 3.8 10.5v3c0 .995 0 1.687.045 2.226.043.527.123.828.238 1.054a2.6 2.6 0 0 0 1.137 1.137c.226.115.526.195 1.054.238.539.044 1.231.045 2.226.045h7c.995 0 1.687 0 2.225-.045.528-.043.829-.123 1.055-.238a2.6 2.6 0 0 0 1.136-1.137c.116-.226.196-.527.24-1.055.043-.538.044-1.23.044-2.225v-3c0-.995 0-1.687-.045-2.226Z" clip-rule="evenodd"/></svg>
