<svg xmlns="http://www.w3.org/2000/svg" width="24" height="24" viewBox="0 0 24 24" fill="currentColor"><path d="M20.2 10.5c0-.995-.001-1.688-.045-2.226-.043-.528-.123-.828-.238-1.055a2.6 2.6 0 0 0-1.136-1.135c-.226-.116-.528-.196-1.056-.24-.538-.044-1.23-.044-2.225-.044h-7c-.995 0-1.688 0-2.226.044-.528.044-.828.124-1.055.24a2.6 2.6 0 0 0-1.135 1.135c-.116.227-.196.527-.24 1.055C3.8 8.812 3.8 9.504 3.8 10.5v3c0 .994 0 1.687.044 2.225.044.528.124.83.24 1.056a2.6 2.6 0 0 0 1.135 1.136c.227.115.527.195 1.055.238.538.044 1.23.045 2.226.045h7c.994 0 1.687-.001 2.225-.045.528-.043.83-.123 1.056-.238a2.6 2.6 0 0 0 1.136-1.136c.115-.226.195-.528.238-1.056.044-.538.045-1.23.045-2.225zM8.614 9.364a.9.9 0 1 1 1.272 1.272L8.522 12l1.364 1.364a.9.9 0 1 1-1.272 1.272l-1.859-1.858a1.1 1.1 0 0 1 0-1.556zm5.5 0a.9.9 0 0 1 1.272 0l1.859 1.858a1.1 1.1 0 0 1 0 1.556l-1.859 1.858a.9.9 0 0 1-1.272-1.272L15.477 12l-1.363-1.364a.9.9 0 0 1 0-1.272M22 13.5c0 .965.001 1.743-.05 2.372-.052.639-.164 1.203-.43 1.725a4.4 4.4 0 0 1-1.923 1.923c-.522.266-1.086.378-1.725.43-.629.051-1.407.05-2.372.05h-7c-.965 0-1.744.001-2.372-.05-.64-.052-1.203-.164-1.725-.43a4.4 4.4 0 0 1-1.924-1.923c-.266-.522-.376-1.086-.429-1.725C2 15.243 2 14.465 2 13.5v-3c0-.965-.001-1.744.05-2.372.053-.64.163-1.203.43-1.725a4.4 4.4 0 0 1 1.923-1.924c.522-.266 1.086-.376 1.725-.429C6.756 4 7.535 4 8.5 4h7c.965 0 1.743 0 2.372.05.639.053 1.203.163 1.725.43a4.4 4.4 0 0 1 1.923 1.923c.266.522.378 1.086.43 1.725.051.628.05 1.407.05 2.372z"/></svg>