<svg xmlns="http://www.w3.org/2000/svg" width="24" height="24" fill="currentColor" viewBox="0 0 24 24"><path fill-rule="evenodd" d="M22.999 10.665v2.67c0 .809 0 1.47-.044 2.006-.045.556-.142 1.059-.381 1.527a3.9 3.9 0 0 1-1.705 1.705c-.468.239-.97.335-1.526.38-.538.045-1.198.045-2.006.045H6.663c-.808 0-1.469 0-2.006-.044-.556-.046-1.058-.142-1.527-.381a3.9 3.9 0 0 1-1.704-1.705c-.239-.468-.336-.97-.381-1.526C1 14.803 1 14.143 1 13.335v-2.67c0-.809 0-1.47.044-2.006.045-.556.142-1.058.381-1.527A3.9 3.9 0 0 1 3.13 5.427c.47-.239.971-.336 1.527-.38.537-.045 1.198-.045 2.006-.045h10.674c.808 0 1.468 0 2.006.044.555.045 1.058.142 1.526.381a3.9 3.9 0 0 1 1.705 1.705c.239.469.335.97.38 1.527.045.537.045 1.197.045 2.005Zm-1.838-1.86c-.036-.445-.103-.683-.191-.856a2.1 2.1 0 0 0-.918-.918c-.173-.088-.412-.155-.856-.19-.455-.038-1.042-.039-1.897-.039H6.7c-.855 0-1.442 0-1.897.038-.445.036-.684.103-.857.191a2.1 2.1 0 0 0-.917.918c-.088.173-.155.411-.191.856-.037.455-.038 1.042-.038 1.897v2.596c0 .855 0 1.442.038 1.897.036.444.103.683.19.856a2.1 2.1 0 0 0 .918.918c.173.088.412.155.857.19.455.038 1.042.039 1.897.039h10.598c.855 0 1.442 0 1.897-.038.444-.036.683-.103.856-.191a2.1 2.1 0 0 0 .918-.918c.088-.173.155-.411.19-.856.038-.455.039-1.042.039-1.897v-2.596c0-.855 0-1.442-.038-1.897Z" clip-rule="evenodd"/></svg>
