<svg xmlns="http://www.w3.org/2000/svg" width="24" height="24" viewBox="0 0 24 24" fill="currentColor"><path d="M14.628 20.843a.722.722 0 1 1 0 1.445.722.722 0 0 1 0-1.445M11 3.003a.9.9 0 0 1 0 1.8H8.5c-.995 0-1.687 0-2.226.044-.527.043-.828.124-1.054.24a2.6 2.6 0 0 0-1.136 1.135c-.115.226-.196.527-.24 1.055-.043.538-.043 1.23-.043 2.225V14.5c0 .995 0 1.687.044 2.226l.015.145 2.869-2.866c.188-.188.367-.369.53-.507.17-.145.382-.295.655-.384l.145-.04a1.9 1.9 0 0 1 1.033.043c.273.09.483.242.653.388.162.139.341.32.528.51l.738.746 1.356-1.371a.9.9 0 1 1 1.28 1.265l-1.87 1.892a1 1 0 0 1-.106.1 1.01 1.01 0 0 1-1.317.001c-.049-.04-.095-.09-.107-.101L8.993 15.28a8 8 0 0 0-.42-.409q-.043-.036-.06-.047a.1.1 0 0 0-.03 0q-.018.011-.06.046c-.094.08-.213.198-.422.408l-3.295 3.294a2.6 2.6 0 0 0 .514.344c.226.116.527.196 1.054.24.539.043 1.231.043 2.226.043H11A.9.9 0 0 1 11 21H8.5c-.965 0-1.743 0-2.372-.05-.639-.053-1.203-.163-1.725-.43a4.4 4.4 0 0 1-1.924-1.922c-.266-.522-.376-1.087-.428-1.726C1.999 16.244 2 15.465 2 14.5V9.502c0-.965 0-1.743.05-2.372.053-.639.164-1.202.43-1.725a4.4 4.4 0 0 1 1.923-1.923c.522-.266 1.086-.377 1.725-.43.629-.05 1.407-.05 2.372-.05zm3.628 14.23a1.264 1.264 0 1 1 0 2.529 1.264 1.264 0 0 1 0-2.528m4.15.543a.722.722 0 1 1 0 1.444.722.722 0 0 1 0-1.444m0-4.693a1.264 1.264 0 1 1 0 2.528 1.264 1.264 0 0 1 0-2.528m3.069.542a.722.722 0 1 1 0 1.444.722.722 0 0 1 0-1.444m-3.069-5.233a1.264 1.264 0 1 1 0 2.527 1.264 1.264 0 0 1 0-2.527m-4.073-.001a1.263 1.263 0 1 1 0 2.525 1.263 1.263 0 0 1 0-2.525m7.142.542a.722.722 0 1 1-.001 1.444.722.722 0 0 1 0-1.444m-7.22-4.692a1.264 1.264 0 1 1 .001 2.527 1.264 1.264 0 0 1 0-2.527m4.151.541a.723.723 0 1 1 0 1.446.723.723 0 0 1 0-1.446m-4.15-3.067a.723.723 0 1 1 0 1.445.723.723 0 0 1 0-1.445"/></svg>