<svg xmlns="http://www.w3.org/2000/svg" width="24" height="24" viewBox="0 0 24 24" fill="currentColor"><path fill-rule="evenodd" d="M14.96 3c2.464 0 3.696 0 4.638.48a4.4 4.4 0 0 1 1.922 1.922c.48.942.48 2.174.48 4.638v3.92c0 2.464 0 3.696-.48 4.638l-.17.302a4.4 4.4 0 0 1-1.752 1.62l-.181.085C18.497 21 17.27 21 14.96 21H9.04l-1.632-.008c-1.31-.02-2.15-.098-2.825-.387l-.18-.085a4.4 4.4 0 0 1-1.754-1.62l-.17-.302C2 17.656 2 16.424 2 13.96v-3.92c0-2.464 0-3.696.48-4.638A4.4 4.4 0 0 1 4.401 3.48c.706-.36 1.576-.449 3.006-.471L9.04 3zM5.2 10.8c-.59 0-.924.001-1.167.021a2 2 0 0 0-.15.019.2.2 0 0 0-.043.043 2 2 0 0 0-.019.15c-.018.229-.021.537-.021 1.063v1.864c0 1.262.001 2.1.054 2.743.05.622.14.903.229 1.077.25.49.648.888 1.137 1.137.174.089.455.179 1.077.23.643.052 1.481.053 2.743.053h2.16v-8.4zm7.8 8.4h1.8c.59 0 .924-.001 1.167-.021q.11-.01.15-.02a.2.2 0 0 0 .042-.043q.01-.039.02-.15c.02-.242.021-.577.021-1.166v-4.32c0-.813-.001-1.316-.032-1.693-.03-.355-.075-.438-.077-.441a1 1 0 0 0-.437-.437c-.003-.002-.086-.048-.441-.077-.377-.03-.88-.032-1.693-.032H13zM9.04 4.8c-1.262 0-2.1.001-2.743.054-.622.05-.903.14-1.077.229-.49.25-.888.648-1.137 1.137-.089.174-.179.455-.23 1.077a24 24 0 0 0-.05 1.737c.187-.019.402-.027.655-.031L5.2 9h8.32c1.568 0 2.352 0 2.95.306a2.8 2.8 0 0 1 1.224 1.223c.305.6.306 1.383.306 2.951v4.32c0 .561 0 .982-.028 1.316.438-.052.661-.124.808-.199.49-.25.888-.648 1.137-1.137.089-.174.179-.455.23-1.077.052-.643.053-1.481.053-2.743v-3.92c0-1.262-.001-2.1-.053-2.743-.051-.622-.141-.903-.23-1.077a2.6 2.6 0 0 0-1.137-1.137c-.174-.089-.455-.179-1.077-.23-.643-.052-1.481-.053-2.743-.053z" clip-rule="evenodd"/></svg>