<svg xmlns="http://www.w3.org/2000/svg" width="24" height="24" fill="currentColor" viewBox="0 0 24 24"><path fill-rule="evenodd" d="M17 13a4 4 0 1 1-3.999 4.043A4.125 4.125 0 0 0 12 16.9c-.323 0-.653.056-1.002.143A3.998 3.998 0 0 1 3 17a4 4 0 0 1 7.614-1.715A5.841 5.841 0 0 1 12 15.1c.493 0 .96.082 1.385.185A4 4 0 0 1 17 13ZM7 14.8a2.2 2.2 0 1 0 0 4.4 2.2 2.2 0 0 0 0-4.4Zm10 0a2.2 2.2 0 1 0 0 4.4 2.2 2.2 0 0 0 0-4.4ZM14.956 3c.963 0 1.445 0 1.835.175a2 2 0 0 1 .847.718c.237.356.316.83.474 1.78L18.75 9.5h2.35a.9.9 0 0 1 0 1.8H2.9a.9.9 0 1 1 0-1.8h2.35l.638-3.826c.158-.95.237-1.425.474-1.781.21-.315.503-.564.847-.718C7.599 3 8.081 3 9.044 3h5.912ZM9.044 4.8c-.508 0-.79 0-.996.016a1.278 1.278 0 0 0-.125.015.197.197 0 0 0-.045.04c-.007.02-.02.059-.034.118-.05.2-.097.48-.18.98L7.124 9.2h9.75l-.538-3.23a15.1 15.1 0 0 0-.18-.98c-.015-.06-.029-.098-.036-.12a.196.196 0 0 0-.045-.039 1.333 1.333 0 0 0-.124-.015 15.24 15.24 0 0 0-.996-.016H9.044Z" clip-rule="evenodd"/></svg>