<svg xmlns="http://www.w3.org/2000/svg" width="24" height="24" fill="currentColor" viewBox="0 0 24 24"><path fill-rule="evenodd" d="M9.805 3h4.39c.5 0 .926 0 1.278.027.37.028.726.09 1.074.25.531.243.982.634 1.296 1.126.206.322.317.666.397 1.03.075.344.135.765.204 1.26l.38 2.707H21.1a.9.9 0 0 1 0 1.8H2.9a.9.9 0 1 1 0-1.8h2.275l.38-2.706c.07-.496.13-.917.205-1.262.08-.363.19-.707.396-1.028a3.043 3.043 0 0 1 1.297-1.128c.347-.159.703-.22 1.074-.249C8.879 3 9.304 3 9.805 3ZM3 17a4 4 0 0 1 7.637-1.667 7.053 7.053 0 0 1 2.726-.001 4 4 0 1 1-.362 1.763 5.258 5.258 0 0 0-2.002 0A4 4 0 0 1 3 17Z" clip-rule="evenodd"/></svg>