<svg xmlns="http://www.w3.org/2000/svg" width="24" height="24" fill="currentColor" viewBox="0 0 24 24"><path d="M2 11.996c0-2.1 1.553-5.005 5.01-5.005 1.558 0 2.718.644 3.627 1.545.873.867 1.541 2.001 2.138 3.005.625 1.051 1.179 1.973 1.859 2.648.644.64 1.37 1.023 2.358 1.023 2.177 0 3.211-1.793 3.211-3.216 0-1.41-1.087-3.208-3.21-3.208-.847 0-1.464.267-2.165.867l-.073.056a.899.899 0 0 1-1.096-1.42l.18-.151c.908-.73 1.882-1.149 3.153-1.149 3.385 0 5.008 2.895 5.008 5.005 0 2.098-1.548 5.013-5.008 5.013-1.557 0-2.716-.643-3.624-1.545-.873-.866-1.54-2-2.138-3.005-.624-1.05-1.178-1.972-1.859-2.647-.645-.64-1.37-1.024-2.36-1.024-2.18 0-3.214 1.789-3.214 3.208 0 1.42 1.034 3.208 3.214 3.208.96 0 1.503-.302 2.157-.859a.899.899 0 0 1 1.166 1.367c-.867.74-1.81 1.29-3.323 1.29C3.553 17.001 2 14.096 2 11.995Z"/></svg>