<svg xmlns="http://www.w3.org/2000/svg" width="24" height="24" fill="currentColor" viewBox="0 0 24 24"><path fill-rule="evenodd" d="M15.538 4H8.462c-.948 0-1.714 0-2.334.05-.64.053-1.203.163-1.726.43A4.4 4.4 0 0 0 2.48 6.402c-.267.523-.377 1.087-.43 1.726C2 8.748 2 9.514 2 10.462v3.076c0 .948 0 1.714.05 2.334.053.64.163 1.203.43 1.726a4.4 4.4 0 0 0 1.922 1.922c.523.267 1.087.377 1.726.43.62.05 1.386.05 2.334.05h7.076c.948 0 1.714 0 2.334-.05.64-.053 1.203-.163 1.726-.43a4.4 4.4 0 0 0 1.922-1.922c.267-.523.377-1.087.43-1.726.05-.62.05-1.386.05-2.334v-3.076c0-.948 0-1.714-.05-2.334-.053-.64-.163-1.203-.43-1.726a4.4 4.4 0 0 0-1.922-1.922c-.523-.267-1.087-.377-1.726-.43C17.252 4 16.486 4 15.538 4ZM5.22 6.083c.226-.115.527-.195 1.054-.238C6.813 5.8 7.505 5.8 8.5 5.8h7c.995 0 1.687 0 2.226.045.527.043.828.123 1.054.238a2.6 2.6 0 0 1 1.137 1.137c.115.226.195.527.238 1.054.044.539.045 1.231.045 2.226v3c0 .995 0 1.687-.045 2.226-.043.527-.123.828-.238 1.054a2.6 2.6 0 0 1-1.137 1.137c-.226.115-.527.195-1.055.238-.538.044-1.23.045-2.225.045h-7c-.995 0-1.687 0-2.226-.045-.527-.043-.828-.123-1.054-.238a2.6 2.6 0 0 1-1.137-1.137c-.115-.226-.195-.527-.238-1.055-.044-.538-.045-1.23-.045-2.225v-3c0-.995 0-1.687.045-2.226.043-.527.123-.828.238-1.054A2.6 2.6 0 0 1 5.22 6.083ZM7.125 8a1.125 1.125 0 1 0 0 2.25 1.125 1.125 0 0 0 0-2.25ZM9.25 9.125a1.125 1.125 0 1 1 2.25 0 1.125 1.125 0 0 1-2.25 0ZM13.625 8a1.125 1.125 0 1 0 0 2.25 1.125 1.125 0 0 0 0-2.25Zm2.125 1.125a1.125 1.125 0 1 1 2.25 0 1.125 1.125 0 0 1-2.25 0ZM7.125 11.25a1.125 1.125 0 1 0 0 2.25 1.125 1.125 0 0 0 0-2.25Zm2.125 1.125a1.125 1.125 0 1 1 2.25 0 1.125 1.125 0 0 1-2.25 0Zm4.375-1.125a1.125 1.125 0 1 0 0 2.25 1.125 1.125 0 0 0 0-2.25Zm2.125 1.125a1.125 1.125 0 1 1 2.25 0 1.125 1.125 0 0 1-2.25 0ZM7.9 15.1a.9.9 0 1 0 0 1.8h8.2a.9.9 0 0 0 0-1.8H7.9Z" clip-rule="evenodd"/></svg>
