<svg xmlns="http://www.w3.org/2000/svg" width="24" height="24" fill="currentColor" viewBox="0 0 24 24"><path fill-rule="evenodd" d="M12 2.1A9.872 9.872 0 0 0 5 5a9.872 9.872 0 0 0-2.9 7c0 2.733 1.11 5.21 2.9 7a9.872 9.872 0 0 0 7 2.9c2.734 0 5.21-1.11 7-2.9a9.872 9.872 0 0 0 2.9-7c0-2.734-1.11-5.21-2.9-7a9.872 9.872 0 0 0-7-2.9Zm0 6.8c-.856 0-1.63.346-2.192.908A3.087 3.087 0 0 0 8.9 12c0 .856.346 1.63.908 2.192A3.087 3.087 0 0 0 12 15.1c.856 0 1.63-.346 2.192-.908A3.087 3.087 0 0 0 15.1 12c0-.856-.346-1.63-.908-2.192A3.087 3.087 0 0 0 12 8.9Zm8.1 3.1c0-1.913-.662-3.67-1.771-5.056L16.042 9.23A4.88 4.88 0 0 1 16.9 12a4.88 4.88 0 0 1-.857 2.77l2.286 2.286A8.062 8.062 0 0 0 20.1 12ZM12 20.1a8.062 8.062 0 0 1-5.056-1.771l2.286-2.287A4.88 4.88 0 0 0 12 16.9a4.88 4.88 0 0 0 2.77-.857l2.286 2.286A8.063 8.063 0 0 1 12 20.1ZM3.9 12c0-1.913.662-3.67 1.771-5.056L7.957 9.23A4.88 4.88 0 0 0 7.1 12a4.88 4.88 0 0 0 .857 2.77l-2.286 2.286A8.062 8.062 0 0 1 3.9 12Zm3.044-6.329A8.063 8.063 0 0 1 12 3.9c1.913 0 3.67.662 5.056 1.771L14.77 7.957A4.88 4.88 0 0 0 12 7.1a4.88 4.88 0 0 0-2.77.857L6.944 5.671Z" clip-rule="evenodd"/></svg>
