<svg xmlns="http://www.w3.org/2000/svg" width="24" height="24" fill="none" viewBox="0 0 24 24">
  <circle cx="12" cy="12" r="12" fill="#FF3347"/>
  <path fill="#fff" d="M11.782 8.17c.078.07.151.139.218.206.068-.067.14-.137.22-.206.531-.469 1.365-.97 2.487-.97 2.054 0 3.693 1.643 3.693 3.637 0 .991-.202 1.745-.828 2.572-.62.82-1.654 1.705-3.298 2.97l-1.513 1.163a1.254 1.254 0 0 1-1.522 0L9.726 16.38c-1.644-1.265-2.678-2.15-3.298-2.97-.626-.827-.828-1.581-.828-2.572C5.6 8.843 7.239 7.2 9.293 7.2c1.123 0 1.957.501 2.489.97Z"/>
</svg>
