<svg height="24" viewBox="0 0 24 24" width="24" xmlns="http://www.w3.org/2000/svg"><g fill="none" fill-rule="evenodd"><path d="m0 0h24v24h-24z"/><path d="m15.9917661 4.00598639c-1.4512572.06381954-2.7528378.63734974-3.8807615 1.69352968l-.1170046.11348393-.1217387-.11798918c-1.2097042-1.11895527-2.59765643-1.69501082-4.1378863-1.69501082-3.15721928 0-5.734375 2.56026711-5.734375 5.71723077 0 3.08739613 1.12733021 4.55158593 6.1824232 8.54579203l2.6880261 2.0976966c.6640984.5175766 1.595003.5175766 2.2591014 0l2.364151-1.8425419.9331971-.739746c4.537758-3.6344487 5.5731012-5.1024461 5.5731012-8.06120073 0-3.15696366-2.5771557-5.71723077-5.734375-5.71723077zm.2738589 1.79401361c2.1657463 0 3.934375 1.75703851 3.934375 3.91723077l-.0049456.29359773c-.0758635 2.1566106-1.0618798 3.3412167-5.5090124 6.8522432l-2.6629899 2.077908c-.0135531.0105628-.0325511.0105628-.0461042 0l-2.364151-1.8425419-.87380424-.6918068c-4.1422161-3.3089485-4.93899266-4.4398737-4.93899266-6.68940023 0-2.16019226 1.76862868-3.91723077 3.934375-3.91723077 1.33291866 0 2.5064001.61758252 3.5693984 1.91524626.3624536.44246813 1.040304.43901393 1.3982294-.00712513 1.0369185-1.29247556 2.2067195-1.90812113 3.5636222-1.90812113z" fill="currentColor" fill-rule="nonzero"/></g></svg>
