<svg xmlns="http://www.w3.org/2000/svg" width="24" height="24" viewBox="0 0 24 24" fill="currentColor"><path d="M2.269 3.267a.9.9 0 0 1 1.273 0l1.437 1.436h.001l12.344 12.344h-.002l2.413 2.413a.901.901 0 0 1-1.273 1.273l-2.549-2.548-.419.333-2.364 1.842a1.84 1.84 0 0 1-2.26 0l-2.687-2.097C3.128 14.269 2 12.804 2 9.717c0-1.507.588-2.878 1.546-3.9L2.269 4.54a.9.9 0 0 1 0-1.273M16.266 4C19.423 4 22 6.56 22 9.717c0 2.382-.672 3.797-3.303 6.156L6.886 4.062Q7.302 4 7.734 4c1.54 0 2.928.576 4.138 1.694l.122.119.117-.114c1.128-1.056 2.43-1.63 3.881-1.693z"/></svg>