<svg xmlns="http://www.w3.org/2000/svg" width="24" height="24" viewBox="0 0 24 24" fill="currentColor"><path fill-rule="evenodd" d="M2.264 3.313a.9.9 0 0 1 1.273 0L19.64 19.415a.9.9 0 0 1-1.273 1.273l-2.481-2.48-.389.308-.003.002-2.364 1.843a1.84 1.84 0 0 1-2.259 0l-2.364-1.843-.003-.002c-2.302-1.808-3.93-3.147-4.966-4.434C2.447 12.727 2 11.416 2 9.717c0-1.497.58-2.858 1.522-3.874L2.264 4.587a.9.9 0 0 1 0-1.274m2.531 3.805a3.9 3.9 0 0 0-.995 2.6c0 1.293.31 2.204 1.14 3.235.882 1.097 2.333 2.307 4.673 4.145l2.364 1.843c.013.01.032.01.046 0l2.364-1.843.217-.172z" clip-rule="evenodd"/><path d="M16.265 4c3.145 0 5.734 2.549 5.734 5.717 0 1.124-.194 2.103-.676 3.054-.475.935-1.2 1.789-2.174 2.704a.901.901 0 0 1-1.234-1.311c.903-.85 1.462-1.537 1.802-2.207.332-.653.482-1.343.483-2.24 0-2.163-1.772-3.917-3.935-3.917-1.322 0-2.502.585-3.564 1.909a.9.9 0 0 1-1.398.006c-.979-1.194-2.026-1.778-3.145-1.893a.9.9 0 0 1 .184-1.791c1.377.141 2.596.76 3.653 1.78C13.201 4.634 14.63 4 16.265 4"/></svg>