<svg xmlns="http://www.w3.org/2000/svg" width="24" height="24" viewBox="0 0 24 24" fill="currentColor"><path fill-rule="evenodd" d="M2.269 3.267a.9.9 0 0 1 1.273 0L19.735 19.46a.901.901 0 0 1-1.273 1.273l-2.448-2.448-.417.331-.003.002-2.364 1.843a1.84 1.84 0 0 1-2.26 0l-2.364-1.843-.002-.002c-2.302-1.808-3.93-3.147-4.966-4.434C2.548 12.827 2.1 11.516 2.1 9.817c0-1.51.59-2.881 1.546-3.9L2.269 4.54a.9.9 0 0 1 0-1.273m2.65 3.923A3.9 3.9 0 0 0 3.9 9.817c0 1.294.311 2.205 1.14 3.236.883 1.097 2.334 2.307 4.673 4.145l2.364 1.843c.014.01.033.01.046 0l2.364-1.843.245-.194z" clip-rule="evenodd"/><path d="M16.365 4.1c3.146 0 5.735 2.549 5.735 5.717 0 1.124-.194 2.103-.677 3.054-.474.935-1.2 1.789-2.174 2.704a.9.9 0 0 1-1.233-1.311c.903-.85 1.461-1.537 1.801-2.207.332-.653.483-1.343.483-2.24 0-2.163-1.772-3.916-3.935-3.917-1.322 0-2.501.585-3.563 1.909a.9.9 0 0 1-1.399.006c-.978-1.194-2.026-1.778-3.144-1.893a.9.9 0 0 1 .183-1.791c1.378.141 2.596.76 3.654 1.78 1.206-1.177 2.633-1.811 4.27-1.811"/></svg>