<svg fill="none" height="24" viewBox="0 0 24 24" width="24" xmlns="http://www.w3.org/2000/svg"><path clip-rule="evenodd" d="m22 12c0 5.5228-4.4772 10-10 10-5.52285 0-10-4.4772-10-10 0-5.52285 4.47715-10 10-10 5.5228 0 10 4.47715 10 10zm-6.5-4.5c.5523 0 1 .44772 1 1v6c0 .5523-.4477 1-1 1s-1-.4477-1-1v-3.586l-5.29289 5.2931c-.36049.3605-.92772.3882-1.32001.0832l-.09421-.0832c-.39052-.3905-.39052-1.0237 0-1.4142l5.29111-5.2929h-3.584c-.51284 0-.93551-.38604-.99327-.88338l-.00673-.11662c0-.55228.44771-1 1-1z" fill="currentColor" fill-rule="evenodd"/></svg>
