<svg xmlns="http://www.w3.org/2000/svg" width="24" height="24" fill="currentColor" viewBox="0 0 24 24"><path d="M4 6.9h14.5a.9.9 0 0 0 0-1.8H4a.9.9 0 1 0 0 1.8Zm0 3.2a.9.9 0 1 0 0 1.8h3a.9.9 0 1 0 0-1.8H4Zm0 5a.9.9 0 0 0 0 1.8h2.5a.9.9 0 1 0 0-1.8H4Z M13.14 10C10.917 10 9 11.72 9 13.961c0 1.167.331 2.079 1.111 2.998.722.85 1.845 1.722 3.38 2.866l.003.002c.143.105.333.231.527.356l.124.079c.576.37 1.146.737 1.855.737.709 0 1.279-.366 1.855-.737l.124-.08c.194-.123.384-.25.527-.355l.003-.002c1.535-1.144 2.658-2.015 3.38-2.866.78-.92 1.111-1.831 1.111-2.998C23 11.721 21.084 10 18.86 10c-1.086 0-2.045.372-2.864 1.06-.824-.686-1.78-1.06-2.855-1.06Zm-2.34 3.961c0-1.147 1.007-2.161 2.34-2.161.78 0 1.498.327 2.179 1.115a.9.9 0 0 0 1.368-.007c.659-.779 1.372-1.108 2.172-1.108 1.334 0 2.341 1.014 2.341 2.161 0 .736-.177 1.236-.684 1.833-.564.665-1.505 1.413-3.081 2.586-.092.068-.24.167-.425.286-.788.503-.893.533-1.01.533-.117 0-.222-.03-1.01-.533a8.494 8.494 0 0 1-.425-.286c-1.576-1.173-2.517-1.921-3.081-2.586-.507-.597-.684-1.097-.684-1.833Z" clip-rule="evenodd"/></svg>
