<svg xmlns="http://www.w3.org/2000/svg" width="24" height="24" fill="currentColor" viewBox="0 0 24 24"><path fill-rule="evenodd" d="M2.998 5.9a.9.9 0 0 1 .9-.9h14.203a.9.9 0 1 1 0 1.8H3.898a.9.9 0 0 1-.9-.9Zm.905 4.1a.9.9 0 0 0 0 1.8h3.193a.9.9 0 1 0 0-1.8H3.903Zm0 5a.9.9 0 0 0 0 1.8h2.203A.895.895 0 0 0 7 15.9c0-.497-.397-.9-.894-.9H3.902Zm14.91-5c-1.064 0-2.01.35-2.82 1.009A4.484 4.484 0 0 0 13.153 10C10.973 10 9 11.734 9 13.901c0 1.142.371 2.044 1.16 2.936.738.833 1.866 1.683 3.38 2.77l.002.001 1.559 1.11a1.565 1.565 0 0 0 1.804 0l1.558-1.11.003-.002c1.514-1.086 2.641-1.937 3.377-2.77.788-.893 1.156-1.795 1.156-2.936 0-2.179-2.02-3.9-4.186-3.9Z" clip-rule="evenodd"/></svg>
