<svg fill="none" height="24" viewBox="0 0 24 24" width="24" xmlns="http://www.w3.org/2000/svg"><g fill="currentColor"><path d="m17.9 11.9c0-.4971-.4029-.9-.9-.9s-.9.4029-.9.9v3.2h-3.2c-.4971 0-.9.4029-.9.9 0 .497.4029.9.9.9h3.2v3.2c0 .497.4029.9.9.9s.9-.403.9-.9v-3.2h3.2c.4971 0 .9-.403.9-.9 0-.4971-.4029-.9-.9-.9h-3.2z"/><path d="m3.9 6.89998h14.2c.4971 0 .9-.40295.9-.9 0-.49706-.4029-.9-.9-.9h-14.2c-.49706 0-.9.40294-.9.9s.40294.9.9.9z"/><path d="m3.9 10.1c-.49706 0-.9.4029-.9.9 0 .497.40294.9.9.9h9.2c.4971 0 .9-.403.9-.9 0-.4971-.4029-.9-.9-.9z"/><path d="m3.9 15.1c-.49706 0-.9.4029-.9.9 0 .497.40294.9.9.9h5.2c.49706 0 .9-.403.9-.9 0-.4971-.40294-.9-.9-.9z"/></g></svg>
