<svg xmlns="http://www.w3.org/2000/svg" width="24" height="24" fill="none" viewBox="0 0 24 24"><path fill="currentColor" d="M3.9 6.9h14.2A.9.9 0 0 0 19 6a.9.9 0 0 0-.9-.9H3.9a.9.9 0 1 0 0 1.8Zm0 3.2a.9.9 0 0 0 0 1.8h14.2a.9.9 0 0 0 0-1.8H3.9ZM3 16a.9.9 0 0 1 .9-.9h5.2a.9.9 0 0 1 0 1.8H3.9A.9.9 0 0 1 3 16Zm19.7234-2.3095c.3813-.3995.3666-1.0325-.0329-1.4139-.3995-.3813-1.0325-.3666-1.4139.0329l-5.0039 5.2422-2.5493-2.6707c-.3814-.3995-1.0144-.4143-1.4139-.0329-.3995.3813-.4142 1.0143-.0329 1.4138l3.2728 3.4286a.9998.9998 0 0 0 1.4467 0l5.7273-6Z"/></svg>
