<svg xmlns="http://www.w3.org/2000/svg" width="24" height="24" fill="currentColor" viewBox="0 0 24 24"><path fill-rule="evenodd" d="M13.139 4.42A.9.9 0 0 1 13.9 4h6.2a.9.9 0 0 1 .813 1.287L20 7.203v2.971l2.291 2.75A.9.9 0 0 1 21.6 14.4h-3.7v4.7a.9.9 0 1 1-1.8 0v-4.7h-3.7a.9.9 0 0 1-.691-1.476L14 10.174v-2.97l-.913-1.917a.9.9 0 0 1 .052-.867Zm3.868 8.18h-2.685l1.27-1.524a.9.9 0 0 0 .208-.576V7a.9.9 0 0 0-.087-.387l-.388-.813h3.35l-.388.813A.9.9 0 0 0 18.2 7v3.5a.9.9 0 0 0 .209.576l1.27 1.524h-2.672ZM3.002 6a.9.9 0 0 1 .9-.9H10.6a.9.9 0 1 1 0 1.8H3.902a.9.9 0 0 1-.9-.9Zm0 5a.9.9 0 0 1 .9-.9H9.1a.9.9 0 1 1 0 1.8H3.902a.9.9 0 0 1-.9-.9Zm.9 4.108a.9.9 0 0 0 0 1.8H9.1a.9.9 0 1 0 0-1.8H3.902Z" clip-rule="evenodd"/></svg>
