<svg xmlns="http://www.w3.org/2000/svg" width="24" height="24" fill="currentColor" viewBox="0 0 24 24"><path fill-rule="evenodd" d="M3.9 5.1a.9.9 0 1 0 0 1.8h14.2a.9.9 0 1 0 0-1.8H3.9Zm0 5a.9.9 0 1 0 0 1.8h8.198a.9.9 0 0 0 0-1.8H3.9ZM3 16a.9.9 0 0 1 .9-.9h7.198a.9.9 0 1 1 0 1.8H3.9A.9.9 0 0 1 3 16Zm11.264-2.737a.9.9 0 0 1 1.273 0L18 15.727l2.464-2.463a.9.9 0 0 1 1.273 1.273L19.273 17l2.464 2.463a.9.9 0 0 1-1.273 1.273L18 18.273l-2.464 2.463a.9.9 0 0 1-1.272-1.272L16.728 17l-2.464-2.464a.9.9 0 0 1 0-1.273Z" clip-rule="evenodd"/></svg>
