<svg xmlns="http://www.w3.org/2000/svg" width="24" height="24" fill="currentColor" viewBox="0 0 24 24"><path d="M8 5.9a.9.9 0 0 1 .9-.9h11.2a.9.9 0 0 1 0 1.8H8.9a.9.9 0 0 1-.9-.9ZM8 12a.9.9 0 0 1 .9-.9h11.2a.9.9 0 0 1 0 1.8H8.9A.9.9 0 0 1 8 12Zm0 6.1a.9.9 0 0 1 .9-.9h11.2a.9.9 0 0 1 0 1.8H8.9a.9.9 0 0 1-.9-.9ZM3.894 7.361c0 .409.2.639.555.639C4.803 8 5 7.773 5 7.361V4.72C5 4.282 4.745 4 4.351 4a1.3 1.3 0 0 0-.694.23l-.375.245c-.186.12-.282.273-.282.449 0 .236.154.403.372.403.107 0 .192-.035.367-.147l.15-.095h.005V7.36Zm-.888 6.163c0 .283.21.476.517.476h1.95c.331 0 .527-.173.527-.464 0-.291-.201-.47-.526-.47h-.938v-.046l.66-.605c.446-.406.664-.81.664-1.233 0-.678-.607-1.182-1.422-1.182C3.658 10 3 10.496 3 11.058c0 .256.19.44.459.44.187 0 .31-.074.481-.293.149-.19.269-.26.437-.26.218 0 .37.144.37.358 0 .19-.13.374-.42.657l-.857.83c-.344.331-.464.521-.464.735Zm-.008 5.548c0 .513.638.928 1.43.928.917 0 1.57-.49 1.57-1.182 0-.494-.323-.872-.765-.897v-.079c.374-.037.669-.386.669-.793 0-.62-.598-1.049-1.463-1.049-.775 0-1.428.403-1.428.883 0 .245.191.426.45.426.162 0 .3-.06.424-.178.199-.195.352-.27.537-.27.24 0 .413.138.413.33 0 .191-.175.332-.413.332h-.15c-.226 0-.387.19-.387.429 0 .254.16.434.387.434h.15c.29 0 .48.153.48.379 0 .225-.19.375-.48.375-.202 0-.379-.088-.56-.282-.152-.164-.288-.237-.441-.237-.246 0-.423.189-.423.45Z"/></svg>
