<svg xmlns="http://www.w3.org/2000/svg" width="24" height="24" fill="currentColor" viewBox="0 0 24 24"><path fill-rule="evenodd" d="M5.536 2.264a.9.9 0 0 0-1.273 1.272L5.827 5.1H4a.9.9 0 1 0 0 1.8h3.627l3.567 3.567C9.907 11.126 9 12.421 9 13.961c0 1.167.331 2.079 1.111 2.998.722.85 1.845 1.722 3.38 2.866l.003.002c.143.105.333.231.527.355l.124.08c.577.37 1.146.737 1.855.737.709 0 1.279-.366 1.855-.737l.124-.08c.194-.124.384-.25.527-.355l.003-.002c.422-.315.81-.606 1.163-.88l1.791 1.791a.9.9 0 1 0 1.273-1.272l-17.2-17.2ZM18.39 17.662l-5.801-5.801c-1.052.235-1.788 1.118-1.788 2.1 0 .736.177 1.236.684 1.833.564.664 1.505 1.412 3.081 2.586.092.068.24.167.426.286.787.503.892.533 1.009.533.117 0 .222-.03 1.01-.533.186-.12.333-.218.425-.286.345-.257.663-.495.954-.718Z M12.2 6a.9.9 0 0 1 .9-.9h5.4a.9.9 0 1 1 0 1.8h-5.4a.9.9 0 0 1-.9-.9Zm-9.1 5a.9.9 0 0 1 .9-.9h3a.9.9 0 1 1 0 1.8H4a.9.9 0 0 1-.9-.9Zm0 5a.9.9 0 0 1 .9-.9h2.5a.9.9 0 1 1 0 1.8H4a.9.9 0 0 1-.9-.9Zm14.815-5.9c.309-.067.624-.1.944-.1C21.084 10 23 11.72 23 13.96a4.917 4.917 0 0 1-.128 1.15.9.9 0 1 1-1.75-.426l.014-.058c.042-.193.064-.41.064-.666 0-1.147-1.007-2.161-2.34-2.161-.198 0-.386.02-.563.058l-.024.006a.9.9 0 0 1-.399-1.755l.041-.01Z"/></svg>
