<svg fill="none" height="24" viewBox="0 0 24 24" width="24" xmlns="http://www.w3.org/2000/svg"><g fill="currentColor"><path d="m3.9 5.10001c-.49706 0-.9.40294-.9.9 0 .49705.40294.9.9.9h14.2c.4971 0 .9-.40295.9-.9 0-.49706-.4029-.9-.9-.9z"/><path d="m3.9 10.1c-.49706 0-.9.4029-.9.9s.40294.9.9.9h14.1976c.4971 0 .9-.4029.9-.9s-.4029-.9-.9-.9z"/><path d="m3 16c0-.4971.40294-.9.9-.9h8.1976c.4971 0 .9.4029.9.9s-.4029.9-.9.9h-8.1976c-.49706 0-.9-.4029-.9-.9z"/><path d="m21.7365 15.5364c.3515-.3514.3515-.9213 0-1.2728-.3514-.3515-.9213-.3515-1.2728 0l-3.6637 3.6634v-2.027c0-.497-.4029-.9-.9-.9s-.9.403-.9.9v4.1997c0 .497.4029.9.9.9h4.2001c.4971 0 .9-.403.9-.9 0-.4971-.4029-.9-.9-.9h-2.0272z"/></g></svg>
