<svg xmlns="http://www.w3.org/2000/svg" width="24" height="24" viewBox="0 0 24 24" fill="currentColor"><path d="M20.1 17.1a.9.9 0 0 1 0 1.8H3.9a.9.9 0 0 1 0-1.8zm0-6a.9.9 0 0 1 0 1.8h-9.195a.9.9 0 0 1 0-1.8zM7.024 3.003a.9.9 0 0 1 1.272.02l2.04 2.109c.41.424.422 1.093.029 1.532L8.32 8.947a.9.9 0 0 1-1.342-1.2l.852-.952-1.688.01a1.35 1.35 0 0 0-1.34 1.35V12.1c0 .477-.404.88-.901.9-.497-.02-.9-.423-.9-.9V8.155a3.15 3.15 0 0 1 3.13-3.149l1.568-.01-.697-.72a.9.9 0 0 1 .021-1.273M20.1 5.1a.9.9 0 0 1 0 1.8h-6.196a.9.9 0 1 1 0-1.8z"/></svg>