<svg xmlns="http://www.w3.org/2000/svg" width="24" height="24" fill="currentColor" viewBox="0 0 24 24"><path fill-rule="evenodd" d="M12 3.9c-1.06 0-2.071.203-2.997.572A.9.9 0 1 1 8.337 2.8 9.876 9.876 0 0 1 12 2.1c5.468 0 9.9 4.432 9.9 9.9a9.875 9.875 0 0 1-.7 3.662.9.9 0 1 1-1.672-.666A8.1 8.1 0 0 0 12 3.9Z" clip-rule="evenodd"/><path fill-rule="evenodd" d="M11.131 6.995a.9.9 0 0 1 .906-.895 5.9 5.9 0 0 1 5.863 5.854.9.9 0 0 1-1.8.014A4.1 4.1 0 0 0 12.026 7.9a.9.9 0 0 1-.895-.905ZM5 19a9.872 9.872 0 0 0 7 2.9c2.41 0 4.619-.862 6.335-2.292l1.129 1.128a.9.9 0 0 0 1.272-1.272l-16.2-16.2a.9.9 0 1 0-1.272 1.272l1.128 1.129A9.863 9.863 0 0 0 2.1 12c0 2.733 1.11 5.21 2.9 7Zm-1.1-7c0 2.237.906 4.26 2.372 5.727A8.072 8.072 0 0 0 12 20.1c1.913 0 3.67-.662 5.056-1.771l-1.57-1.57A5.877 5.877 0 0 1 12 17.9a5.884 5.884 0 0 1-4.172-1.728A5.884 5.884 0 0 1 6.1 12a5.88 5.88 0 0 1 1.14-3.487L5.671 6.944A8.063 8.063 0 0 0 3.9 12Zm4 0c0 1.132.458 2.156 1.2 2.9a4.084 4.084 0 0 0 2.9 1.2c.807 0 1.558-.232 2.193-.635l-1.646-1.645c-.661.199-1.4.013-1.89-.476a1.92 1.92 0 0 1-.477-1.891L8.535 9.807A4.078 4.078 0 0 0 7.9 12Z" clip-rule="evenodd"/></svg>
