<svg xmlns="http://www.w3.org/2000/svg" width="24" height="24" fill="currentColor" viewBox="0 0 24 24"><path fill-rule="evenodd" d="M7 8.6c0-1.96 0-2.94.381-3.689a3.5 3.5 0 0 1 1.53-1.53C9.66 3 10.64 3 12.6 3h1.36c2.464 0 3.696 0 4.638.48a4.4 4.4 0 0 1 1.922 1.922c.48.942.48 2.174.48 4.638v3.92c0 2.464 0 3.696-.48 4.638a4.4 4.4 0 0 1-1.922 1.922c-.942.48-2.174.48-4.638.48H12.6c-1.96 0-2.94 0-3.689-.381a3.5 3.5 0 0 1-1.53-1.53C7 18.34 7 17.36 7 15.4V8.6Zm9.265 1.744c.901.539 1.352.808 1.505 1.157.133.304.133.65 0 .954-.153.349-.604.618-1.505 1.157l-2.386 1.425c-.943.563-1.414.844-1.802.807a1.19 1.19 0 0 1-.847-.48C11 15.05 11 14.5 11 13.403v-2.85c0-1.098 0-1.647.23-1.96.201-.274.51-.45.847-.481.388-.037.86.244 1.802.807l2.386 1.425ZM5 9.04c0-2.464 0-3.696.48-4.638a4.4 4.4 0 0 1 .955-1.253 3.652 3.652 0 0 0-1.033.33A4.4 4.4 0 0 0 3.48 5.403C3 6.344 3 7.576 3 10.04v3.92c0 2.464 0 3.696.48 4.638a4.4 4.4 0 0 0 1.922 1.922c.304.155.637.26 1.033.33a4.4 4.4 0 0 1-.955-1.252C5 18.656 5 17.424 5 14.96V9.04Z" clip-rule="evenodd"/></svg>
