<svg fill="none" height="24" viewBox="0 0 24 24" width="24" xmlns="http://www.w3.org/2000/svg"><g fill="currentColor"><path clip-rule="evenodd" d="m10.7542 3.10002h2.4913c1.2707-.00001 2.2882-.00002 3.1059.07772.8408.07995 1.5626.2484 2.2087.64435.6593.40403 1.2137.95837 1.6177 1.61769.3959.64612.5644 1.36793.6443 2.20873.0778.81763.0778 1.8352.0778 3.10579v2.4914c0 1.2706 0 2.2882-.0778 3.1058-.0799.8408-.2484 1.5626-.6443 2.2088-.404.6593-.9584 1.2136-1.6177 1.6177-.6461.3959-1.3679.5644-2.2087.6443-.8177.0777-1.8352.0777-3.1059.0777h-2.4913c-1.27066 0-2.28823 0-3.10586-.0777-.8408-.0799-1.56261-.2484-2.20873-.6443-.65932-.4041-1.21366-.9584-1.61769-1.6177-.39594-.6462-.5644-1.368-.64435-2.2088-.07774-.8176-.07773-1.8352-.07772-3.1058v-2.4914c-.00001-1.27058-.00002-2.28816.07772-3.10579.07995-.8408.24841-1.56261.64435-2.20873.40403-.65932.95837-1.21366 1.61769-1.61769.64612-.39595 1.36793-.5644 2.20873-.64435.81763-.07774 1.83521-.07773 3.10586-.07772zm-2.93548 1.86964c-.70904.06742-1.12285.19368-1.43861.38718-.41712.25561-.76783.60631-1.02344 1.02344-.1935.31576-.31976.72957-.38718 1.43861-.06869.72243-.06964 1.65433-.06964 2.98111v2.4c0 1.3268.00095 2.2587.06964 2.9812.06742.709.19368 1.1228.38718 1.4386.25561.4171.60632.7678 1.02344 1.0234.31576.1935.72957.3198 1.43861.3872.72244.0687 1.65434.0696 2.98118.0696h2.4c1.3268 0 2.2587-.0009 2.9811-.0696.709-.0674 1.1228-.1937 1.4386-.3872.4171-.2556.7678-.6063 1.0234-1.0234.1935-.3158.3198-.7296.3872-1.4386.0687-.7225.0697-1.6544.0697-2.9812v-2.4c0-1.32678-.001-2.25868-.0697-2.98111-.0674-.70904-.1937-1.12285-.3872-1.43861-.2556-.41713-.6063-.76783-1.0234-1.02344-.3158-.1935-.7296-.31976-1.4386-.38718-.7224-.06869-1.6543-.06964-2.9811-.06964h-2.4c-1.32684 0-2.25874.00095-2.98118.06964z" fill-rule="evenodd"/><path d="m12.5367 15.5c-3.72407 0-5.84822-2.5526-5.93672-6.8h1.86545c.06127 3.1175 1.43651 4.438 2.52587 4.7103v-4.7103h1.7565v2.6887c1.0757-.1157 2.2058-1.341 2.587-2.6887h1.7566c-.2927 1.6609-1.5182 2.8861-2.3897 3.3898.8715.4084 2.2672 1.4771 2.7983 3.4102h-1.9336c-.4153-1.2933-1.4501-2.2939-2.8186-2.43v2.43z"/></g></svg>
