<svg xmlns="http://www.w3.org/2000/svg" width="24" height="24" fill="currentColor" viewBox="0 0 24 24"><path fill-rule="evenodd" d="m12.576 9.036 1.129-2.437H13.7l.001-.002.003-.007a3.333 3.333 0 0 0 .284-1.601c-.12-1.76-1.556-3.095-3.208-2.982-1.652.112-2.895 1.63-2.776 3.388l.007.088c.05.542.227 1.042.495 1.468v.001l1.42 2.22c.268.522.804.86 1.395.82.576-.039 1.05-.426 1.255-.956Zm-2.729-2.77-.07-.113a1.837 1.837 0 0 1-.276-.86c-.07-1.022.642-1.74 1.38-1.79.74-.05 1.541.565 1.61 1.587a1.83 1.83 0 0 1-.156.888l-.237.52-.882 1.905-1.369-2.138Zm7.822 6.644-2.707-.386a1.71 1.71 0 0 1-1.44-1.06 1.698 1.698 0 0 1 .367-1.823l1.703-2.165c.38-.53.912-.961 1.565-1.222 1.812-.724 3.867.14 4.59 1.933.724 1.791-.16 3.83-1.971 4.555a3.551 3.551 0 0 1-2.107.169Zm.272-1.476.058.014c.392.088.814.063 1.22-.099 1.054-.421 1.544-1.593 1.137-2.601-.408-1.012-1.585-1.524-2.642-1.101-.381.152-.686.4-.904.704l-.019.027-1.773 2.253-.056.058a.198.198 0 0 0-.048.214.21.21 0 0 0 .182.127l.04.003 2.805.401Zm-5.007 6.919-.309-2.592a1.49 1.49 0 0 1 2.175-1.578l2.276.949a3.042 3.042 0 0 1 .716 5.257 3.044 3.044 0 0 1-4.262-.592l-.007-.009a3.027 3.027 0 0 1-.583-1.428l-.001-.008v-.002l-.005.003Zm1.492-.193-.072-.565-.245-2.056-.005-.027.05.027 2.36.983.013.006a1.542 1.542 0 0 1 .361 2.665 1.544 1.544 0 0 1-2.462-1.033Zm-5.931-4.205L5.849 15.35l.004.002-.002.001-.007.004a3.479 3.479 0 0 0-1.305 1.232 3.554 3.554 0 0 0 1.107 4.869 3.476 3.476 0 0 0 4.821-1.11 3.526 3.526 0 0 0 .534-1.84l.088-2.842a1.738 1.738 0 0 0-.788-1.7 1.7 1.7 0 0 0-1.806-.011Zm-1.468 2.47-.464.249a1.986 1.986 0 0 0-.75.707 2.054 2.054 0 0 0 .636 2.81c.93.59 2.157.312 2.744-.634.206-.332.305-.697.308-1.061v-.017l.092-2.937.01-.076a.238.238 0 0 0-.105-.233.2.2 0 0 0-.215-.002l-.044.027-2.212 1.166Zm.558-7.675 1.65 1.613a1.322 1.322 0 0 1-.621 2.307l-2.177.63c-.44.124-.917.138-1.392.02a2.697 2.697 0 0 1-1.962-3.277A2.708 2.708 0 0 1 7.578 8.75l.004.004.002.001v-.003Zm.44 2.529-1.999.578a1.2 1.2 0 0 1-.616.007 1.197 1.197 0 0 1-.873-1.454 1.208 1.208 0 0 1 2.007-.575l.303.292 1.179 1.152Z" clip-rule="evenodd"/></svg>
