<svg xmlns="http://www.w3.org/2000/svg" width="24" height="24" fill="currentColor" viewBox="0 0 24 24"><path fill-rule="evenodd" d="M12.002 3c.603 0 1.07.537 1.421.965.38.461.816 1.106 1.23 1.886.33.621.652 1.342.92 2.137a7.463 7.463 0 0 1 2.034-1.144c.593-.22 1.347-.467 1.99-.334a1 1 0 0 1 .508.268c.333.335.39.835.398 1.284a9.3 9.3 0 0 1-.096 1.358 12.977 12.977 0 0 1-.31 1.557c.531.024.999.08 1.371.146.405.073.885.158 1.194.452.239.226.337.548.339.87.004.78-.377 1.563-.76 2.216-.689 1.173-1.906 2.576-3.88 3.804l-.011.006-.01.007c-1.06.62-2.464 1.238-3.646 1.697-.595.23-1.146.427-1.586.566-.219.07-.418.128-.585.17-.13.032-.308.089-.521.089-.214 0-.393-.057-.525-.09a9.865 9.865 0 0 1-.585-.169c-.44-.14-.991-.335-1.586-.566-1.248-.484-2.526-1-3.666-1.71-1.975-1.228-3.192-2.63-3.88-3.804-.384-.653-.765-1.437-.76-2.216.001-.322.1-.644.338-.87.309-.294.788-.38 1.194-.452.372-.066.84-.122 1.37-.146a13.1 13.1 0 0 1-.31-1.557 9.204 9.204 0 0 1-.096-1.358c.008-.45.065-.949.398-1.284a1 1 0 0 1 .508-.268c.643-.133 1.397.115 1.99.334A7.463 7.463 0 0 1 8.43 7.991c.268-.797.59-1.518.921-2.14.414-.78.85-1.425 1.23-1.886.352-.428.818-.965 1.421-.965Zm-1.06 3.694C10.21 8.07 9.55 9.95 9.55 12c0 2.049.665 3.928 1.398 5.305a9.687 9.687 0 0 0 1.054 1.614 9.687 9.687 0 0 0 1.054-1.614c.733-1.377 1.398-3.256 1.398-5.305 0-2.05-.66-3.93-1.391-5.306a9.542 9.542 0 0 0-1.061-1.623 9.542 9.542 0 0 0-1.06 1.623Zm-5.145 4.34a9.439 9.439 0 0 1-.5-2.648c1 .264 1.931.827 2.63 1.589-.08.464-.136.943-.162 1.434-.674-.192-1.34-.31-1.968-.375Zm2.029 2.285c-1.225-.437-2.483-.565-3.516-.55a9.394 9.394 0 0 0-1.41.12c.604 1.734 2.17 3.099 3.675 4.038.8.467 1.858.953 2.858 1.36-.703-1.286-1.384-3.01-1.607-4.968Zm10.376-2.285a11.69 11.69 0 0 0-1.963.374 12.116 12.116 0 0 0-.162-1.438 5.507 5.507 0 0 1 2.625-1.584 9.44 9.44 0 0 1-.5 2.648Zm-2.024 2.284c1.224-.436 2.48-.564 3.512-.549.569.008 1.055.06 1.41.12-.604 1.734-2.17 3.099-3.675 4.038-.799.466-1.855.951-2.853 1.358.703-1.286 1.384-3.01 1.606-4.967Z" clip-rule="evenodd"/></svg>
