<svg fill="none" height="24" viewBox="0 0 24 24" width="24" xmlns="http://www.w3.org/2000/svg"><path clip-rule="evenodd" d="m7.79998 4.10001h-.0377-.00003c-.80804-.00001-1.46889-.00002-2.00596.04386-.55591.04542-1.05799.1423-1.52688.38121-.73383.37391-1.33045.97053-1.70436 1.70436-.23891.46889-.33579.97097-.38121 1.52688-.04388.53708-.04387 1.19792-.04386 2.00597v.00002.0377 4.39999.0377c-.00001.8081-.00002 1.4689.04386 2.006.04542.5559.1423 1.058.38121 1.5269.37391.7338.97053 1.3304 1.70436 1.7043.46889.2389.97097.3358 1.52688.3812.53708.0439 1.19793.0439 2.00598.0439h.03771 8.40002.0377c.808 0 1.4689 0 2.006-.0439.5559-.0454 1.058-.1423 1.5268-.3812.7339-.3739 1.3305-.9705 1.7044-1.7043.2389-.4689.3358-.971.3812-1.5269.0439-.5371.0439-1.1979.0439-2.006v-.0377-4.39999-.03771c0-.80805 0-1.4689-.0439-2.00598-.0454-.55591-.1423-1.05799-.3812-1.52688-.3739-.73383-.9705-1.33045-1.7044-1.70436-.4688-.23891-.9709-.33579-1.5268-.38121-.5371-.04388-1.198-.04387-2.006-.04386h-.0377zm-2.41937 1.91216c.13557-.03135.30416-.05646.52226-.07428.45511-.03718 1.04218-.03788 1.89711-.03788h8.40002c.8549 0 1.442.0007 1.8971.03788.2181.01782.3867.04293.5222.07428l-4.009 3.50792c-.5778.50561-.9734.85091-1.3029 1.09731-.3204.2396-.5242.3431-.7005.3953-.3962.1171-.8177.1171-1.2138 0-.1763-.0522-.3802-.1557-.7006-.3953-.3294-.2464-.72503-.5917-1.30283-1.09731zm-1.33024 1.22783c-.04953.15568-.08794.36224-.11251.6629-.03718.45511-.03788 1.04218-.03788 1.89711v4.39999c0 .8549.0007 1.442.03788 1.8971.03633.4446.10293.6834.191.8563.20134.3951.5226.7164.91774.9177.17284.0881.41167.1547.85627.191.45511.0372 1.04218.0379 1.89711.0379h8.40002c.8549 0 1.442-.0007 1.8971-.0379.4446-.0363.6834-.1029.8563-.191.3951-.2013.7164-.5226.9177-.9177.0881-.1729.1547-.4117.191-.8563.0372-.4551.0379-1.0422.0379-1.8971v-4.39999c0-.85493-.0007-1.442-.0379-1.89711-.0246-.30066-.063-.50722-.1125-.6629l-4.154 3.6347-.0262.023c-.5452.477-.9926.8685-1.384 1.1612-.4067.3041-.8058.5432-1.2681.6799-.7293.2157-1.5054.2157-2.2347 0-.4622-.1367-.8614-.3758-1.26805-.6799-.39138-.2927-.83881-.6842-1.38393-1.1612l-.02626-.023z" fill="currentColor" fill-rule="evenodd"/></svg>
