<svg xmlns="http://www.w3.org/2000/svg" width="24" height="24" fill="none" viewBox="0 0 24 24">
  <rect width="24" height="24" fill="url(#a)" rx="12"/>
  <path fill="#fff" d="m6.035 8.653 5.96 2.708 5.97-2.709a1.788 1.788 0 0 0-.168-.636 1.86 1.86 0 0 0-.813-.813C16.586 7 16.066 7 15.024 7H8.976c-1.042 0-1.563 0-1.96.203a1.86 1.86 0 0 0-.813.813c-.09.176-.14.377-.168.637Z"/>
  <path fill="#fff" d="m18 10.284-6.005 2.724L6 10.284v3.74c0 1.042 0 1.563.203 1.96.178.35.463.635.813.813.397.203.918.203 1.96.203h6.048c1.042 0 1.563 0 1.96-.203a1.86 1.86 0 0 0 .813-.813c.203-.398.203-.918.203-1.96v-3.74Z"/>
  <defs>
    <linearGradient id="a" x1="0" x2="24" y1="0" y2="24" gradientUnits="userSpaceOnUse">
      <stop stop-color="#50C750"/>
      <stop offset="1" stop-color="#32B332"/>
    </linearGradient>
  </defs>
</svg>
