<svg xmlns="http://www.w3.org/2000/svg" width="24" height="24" fill="none" viewBox="0 0 24 24"><path fill="currentColor" fill-rule="evenodd" d="M6.9 4.8c-1.1598 0-2.1.9402-2.1 2.1v1a.9.9 0 1 1-1.8 0v-1C3 4.746 4.746 3 6.9 3h1a.9.9 0 1 1 0 1.8h-1ZM4.8 17.1c0 1.1598.9402 2.1 2.1 2.1h1a.9.9 0 0 1 .9.9.9.9 0 0 1-.9.9h-1C4.746 21 3 19.2539 3 17.1v-1a.9.9 0 0 1 .9-.9.9.9 0 0 1 .9.9v1ZM15.1992 3.9a.9.9 0 0 1 .9-.9h1c2.1539 0 3.9 1.746 3.9 3.9v1a.9.9 0 0 1-1.8 0v-1c0-1.1598-.9402-2.1-2.1-2.1h-1a.9.9 0 0 1-.9-.9ZM20.1 15.2a.9.9 0 0 1 .9.9v1c0 2.1539-1.7461 3.9-3.9 3.9h-1a.9.9 0 0 1 0-1.8h1c1.1598 0 2.1-.9402 2.1-2.1v-1a.9.9 0 0 1 .9-.9ZM12 7.1c-1.933 0-3.5 1.567-3.5 3.5 0 1.6217 1.103 2.9858 2.5996 3.3831V17.1a.9.9 0 0 0 1.8 0v-3.1167C14.3967 13.5863 15.5 12.222 15.5 10.6c0-1.933-1.567-3.5-3.5-3.5Zm-1.7 3.5c0-.939.7611-1.7 1.7-1.7s1.7.761 1.7 1.7c0 .9389-.7611 1.7-1.7 1.7s-1.7-.7611-1.7-1.7Z" clip-rule="evenodd"/></svg>
