<svg xmlns="http://www.w3.org/2000/svg" width="24" height="24" fill="currentColor" viewBox="0 0 24 24"><path d="M15.871 1.016a.901.901 0 0 0-1.04.736l-.398 2.316a.899.899 0 1 0 1.774.303l.399-2.316a.899.899 0 0 0-.735-1.039Zm6.387 2.989a.883.883 0 0 0 .09-1.26.917.917 0 0 0-1.28-.092L16.953 6.16a.883.883 0 0 0-.09 1.26.917.917 0 0 0 1.279.092l4.117-3.507Zm-.17 6.359a.904.904 0 0 0 .91-.895.896.896 0 0 0-.893-.905l-2.318-.013a.904.904 0 0 0-.909.894.896.896 0 0 0 .892.905l2.318.014Z M7.973 20.02a4.243 4.243 0 0 1-1.682.202 4.145 4.145 0 0 1-2.826-1.438 4.016 4.016 0 0 1-.948-2.99 4.092 4.092 0 0 1 1.48-2.779l4.367-3.607 1.025-3.15a2.336 2.336 0 0 1 1.158-1.354 2.388 2.388 0 0 1 1.792-.16c.428.13.81.38 1.098.718l5.087 5.968a2.28 2.28 0 0 1 .537 1.694 2.311 2.311 0 0 1-.835 1.569 2.385 2.385 0 0 1-1.201.524l-3.33.446-1.638 1.353.812.73c.506.454.763 1.074.778 1.694.015.62-.21 1.248-.668 1.742a2.552 2.552 0 0 1-1.701.812 2.42 2.42 0 0 1-1.785-.608l-1.52-1.366Zm.94-8.731-3.749 3.096a2.32 2.32 0 0 0-.841 1.577c-.055.59.118 1.193.53 1.675.411.483.984.756 1.583.805.6.049 1.222-.127 1.724-.542l3.75-3.097-2.997-3.514Zm4.578 2.598 3.284-.44a.564.564 0 0 0 .283-.124.54.54 0 0 0 .197-.367.506.506 0 0 0-.12-.38L12.05 6.61a.52.52 0 0 0-.244-.16.55.55 0 0 0-.415.039.549.549 0 0 0-.274.32l-1.01 3.107 3.385 3.972ZM9.59 19.053l1.127 1.013a.592.592 0 0 0 .441.146.724.724 0 0 0 .482-.234.702.702 0 0 0 .193-.493.573.573 0 0 0-.188-.42l-.991-.89-1.064.878Z" clip-rule="evenodd"/></svg>
