<svg fill="none" height="24" viewBox="0 0 24 24" width="24" xmlns="http://www.w3.org/2000/svg"><path clip-rule="evenodd" d="m2.5 11.9704c0 6.103 4.15473 9.7296 9.9174 9.7296 1.467 0 2.7698-.1878 3.6383-.4812.7042-.2347.9506-.5516.9506-.9624s-.2699-.669-.7511-.669c-.1174 0-.2699.0118-.4577.047-1.0563.2582-1.8661.4225-3.0163.4225-5.04671 0-8.4503-2.9341-8.4503-8.0161 0-4.91757 3.15712-8.30942 7.9574-8.30942 4.1899 0 7.5818 2.5703 7.5818 7.30012 0 2.4647-.892 4.1899-2.1948 4.1899-.845 0-1.3027-.4577-1.3027-1.2558v-5.82129c0-.65724-.3756-1.05629-1.0094-1.05629-.622 0-1.0093.39905-1.0093 1.05629v.58683h-.1174c-.4812-1.04455-1.5727-1.64312-2.8637-1.64312-2.33555 0-3.9904 1.97174-3.9904 4.87068 0 2.9459 1.65485 4.9645 4.0726 4.9645 1.3614 0 2.4177-.6807 2.9341-1.8778h.1174c.2112 1.1854 1.3145 1.8778 2.7698 1.8778 2.7346 0 4.4247-2.5233 4.4247-6.0325 0-5.3519-3.9318-8.7907-9.3893-8.7907-5.79781 0-9.8117 3.88479-9.8117 9.8704zm9.3657 3.1219c-1.4553 0-2.31205-1.1736-2.31205-3.1219 0-1.9365.86855-3.08669 2.31205-3.08669 1.4789 0 2.4178 1.19709 2.4178 3.07499 0 1.9248-.9507 3.1336-2.4178 3.1336z" fill="currentColor" fill-rule="evenodd"/></svg>
