<svg fill="none" height="24" viewBox="0 0 24 24" width="24" xmlns="http://www.w3.org/2000/svg"><path d="m7.71303 18.202c.24583-.2883.64592-.3918 1.00073-.2589 1.02493.3841 2.13794.5855 3.28624.5855 4.5017 0 8.1-3.0843 8.1-6.8143s-3.5983-6.81429-8.1-6.81429c-4.50165 0-8.1 3.08429-8.1 6.81429 0 1.283.42282 2.5145 1.2141 3.5859.11499.1557.17673.3443.17604.5379-.00318.8931-.37662 2.1784-1.1146 3.9153 1.65406-.1846 2.82129-.7113 3.53749-1.5514zm-4.32377 3.4133c-.91454.0358-1.59393-.9434-1.20893-1.795.77539-1.7153 1.20256-2.9739 1.29209-3.7241-.89153-1.3122-1.37242-2.8157-1.37242-4.3819 0-4.79098 4.46053-8.61429 9.9-8.61429 5.4395 0 9.9 3.82331 9.9 8.61429 0 4.791-4.4605 8.6143-9.9 8.6143-1.157 0-2.28734-.1728-3.35276-.5059-1.20947 1.116-2.97528 1.703-5.25798 1.7926z" fill="currentColor"/></svg>
