<svg xmlns="http://www.w3.org/2000/svg" width="24" height="24" fill="currentColor" viewBox="0 0 24 24"><path d="M11.75 3.5c5.109 0 9.25 3.584 9.25 8.006 0 .996-.21 1.95-.594 2.83l-2.903-2.299c-.09-.07-.186-.147-.27-.21a2.683 2.683 0 0 0-.441-.272 2.55 2.55 0 0 0-3.585 1.736c-.05.22-.058.418-.06.516l-.001.021a5.993 5.993 0 0 0-2.263 1.514c-.861.925-1.297 1.992-1.52 2.876l-.004.018c-.026.101-.053.21-.074.303v.005a2.492 2.492 0 0 0-.061.672c-.8.71-1.964 1.382-4.017 1.992-.834.249-1.5-.661-1.111-1.44.643-1.287.886-2.084.994-2.709-1.604-1.437-2.59-3.396-2.59-5.553C2.5 7.084 6.641 3.5 11.75 3.5Z M15 18.519v.934c0 .263.001.394.02.477a.737.737 0 0 0 1.04.51c.076-.036.174-.118.38-.281l3.06-2.454c.171-.135.256-.202.313-.267a.951.951 0 0 0 0-1.255 2.603 2.603 0 0 0-.312-.267l-3.061-2.454c-.206-.163-.304-.245-.38-.281a.737.737 0 0 0-1.04.51c-.019.082-.02.214-.02.477V15.2l-.07.01c-2.53.398-3.476 2.075-3.821 3.447-.059.234-.088.35-.089.417v.017c.003.169.07.31.176.407.137.125.34.173.549.103.029-.01.083-.04.167-.09h.001c.095-.057.228-.14.409-.254a4.894 4.894 0 0 1 .828-.417c.505-.196 1.168-.321 1.85-.321Z"/></svg>
