<svg xmlns="http://www.w3.org/2000/svg" width="24" height="24" viewBox="0 0 24 24" fill="currentColor"><path d="M19.5 15.972c-1.61 2.075-4.361 3.442-7.484 3.442-1.28 0-2.496-.23-3.597-.643Q6.895 20.562 3.385 20.7a.376.376 0 0 1-.353-.524C3.63 18.84 4.42 17.31 4.42 15.814c-.879-1.183-1.387-2.595-1.387-4.108 0-2.949 1.93-5.51 4.766-6.807m5.504-2.681a.319.319 0 0 0-.606 0l-.242.728c-.159.476-.533.85-1.009 1.009l-.728.242a.319.319 0 0 0 0 .606l.728.242c.476.159.85.533 1.009 1.009l.242.728a.32.32 0 0 0 .606 0l.242-.728c.159-.476.533-.85 1.009-1.009l.728-.242a.319.319 0 0 0 0-.606l-.728-.242a1.6 1.6 0 0 1-1.009-1.009z"/><path fill-rule="evenodd" d="M16.936 5.472c-.256.746-.599 1.5-1.031 1.933-.433.432-1.187.775-1.933 1.03a13 13 0 0 1-.768.237c-.272.075-.272.58 0 .656a15 15 0 0 1 .768.236c.746.256 1.5.599 1.933 1.031.432.433.775 1.187 1.03 1.933a12 12 0 0 1 .237.768c.075.272.58.272.656 0a15 15 0 0 1 .236-.768c.256-.746.599-1.5 1.031-1.933.433-.432 1.187-.775 1.933-1.03a13 13 0 0 1 .769-.237c.27-.075.27-.58 0-.656a15 15 0 0 1-.769-.236c-.746-.256-1.5-.599-1.933-1.031-.432-.433-.775-1.187-1.03-1.933a12 12 0 0 1-.237-.768c-.075-.272-.58-.272-.656 0a15 15 0 0 1-.236.768" clip-rule="evenodd"/><path d="M7.424 4.082a.9.9 0 0 1 .748 1.637c-2.582 1.18-4.24 3.46-4.24 5.988 0 1.306.437 2.532 1.21 3.571a.9.9 0 0 1 .177.536c0 .9-.236 1.77-.525 2.553-.173.467-.379.932-.575 1.366 1.714-.194 2.836-.748 3.514-1.546l.099-.1a.9.9 0 0 1 .902-.158c1 .375 2.11.585 3.281.585 2.868 0 5.347-1.256 6.774-3.094a.9.9 0 0 1 1.422 1.103c-1.794 2.311-4.816 3.79-8.196 3.79-1.173 0-2.3-.18-3.348-.507-1.248 1.153-3.051 1.706-5.247 1.793-.928.036-1.6-.929-1.208-1.794.313-.7.635-1.364.893-2.062.217-.587.362-1.14.402-1.658a7.7 7.7 0 0 1-1.375-4.378c0-3.369 2.202-6.213 5.292-7.625"/><path d="M17.172 4.703c.075-.27.58-.27.656 0a17 17 0 0 0 .236.769c.256.746.599 1.5 1.032 1.933.432.432 1.186.775 1.932 1.03q.071.025.142.047.218.072.43.134.1.03.197.056c.27.075.27.58 0 .656l-.198.056q-.21.061-.43.133l-.14.047c-.747.256-1.501.6-1.933 1.032s-.776 1.186-1.032 1.932a14 14 0 0 0-.18.572l-.056.197c-.076.27-.581.27-.656 0a15 15 0 0 0-.189-.628l-.048-.14c-.255-.747-.598-1.5-1.03-1.933s-1.187-.776-1.934-1.032a12 12 0 0 0-.57-.18q-.1-.03-.197-.056c-.272-.075-.272-.581 0-.656l.197-.056a14 14 0 0 0 .57-.18c.747-.256 1.502-.598 1.934-1.03s.775-1.188 1.03-1.934l.048-.141q.072-.219.133-.43.03-.1.056-.198m-4.475-2.485a.32.32 0 0 1 .606 0l.243.728c.158.476.532.85 1.008 1.009l.728.242a.32.32 0 0 1 0 .606l-.729.242a1.6 1.6 0 0 0-1.007 1.009l-.243.728a.32.32 0 0 1-.606 0l-.242-.728a1.6 1.6 0 0 0-1.009-1.01l-.727-.241a.32.32 0 0 1 0-.606l.727-.242c.476-.159.85-.533 1.009-1.009z"/></svg>