<svg fill="none" height="24" viewBox="0 0 24 24" width="24" xmlns="http://www.w3.org/2000/svg"><g fill="currentColor"><path clip-rule="evenodd" d="m9.49998 3.09998c-3.94012 0-7.4 2.7303-7.4 6.4 0 1.21022.38755 2.33402 1.04604 3.28612-.22479 1.0587-.58158 1.9754-.79235 2.4631-.32312.7476.23499 1.7258 1.19604 1.5965.73984-.0995 2.33573-.3928 3.74853-1.2332.69716.1872 1.43695.2875 2.20174.2875 3.94012 0 7.40002-2.7303 7.40002-6.40002 0-3.6697-3.4599-6.4-7.40002-6.4zm-5.6 6.4c0-2.40544 2.36041-4.6 5.6-4.6 3.23962 0 5.60002 2.19456 5.60002 4.6 0 2.40542-2.3604 4.60002-5.60002 4.60002-.73008 0-1.42454-.1151-2.0599-.3225-.26601-.0869-.55728-.045-.78811.1132-.69398.4756-1.51387.7702-2.21324.95.2044-.5974.41448-1.3282.55262-2.1169.04443-.2537-.02195-.5143-.18234-.7158-.58322-.7327-.90903-1.5944-.90903-2.50802z" fill-rule="evenodd"/><path d="m18.9754 8.42465c-.3623.34029-.3802.90986-.0399 1.27217.6229.66318 1.0193 1.45408 1.1316 2.30318h-.0011c.0221.1619.0336.3254.034.49v.01l-.0002.0357c-.0083.9004-.3332 1.7492-.9088 2.4723-.1604.2015-.2268.4621-.1824.7158.1382.7887.3483 1.5195.5527 2.1169-.6994-.1798-1.5193-.4744-2.2133-.95-.2308-.1582-.5221-.2-.7881-.1132-.2376.0776-.4834.1422-.7363.1928-.2646.0529-.537.0903-.8156.1109-.1672.0124-.3366.0188-.508.0188-.3578 0-.707-.0276-1.0449-.0802-.4911-.0765-.9513.2597-1.0277.7509-.0764.4911.2597.9512.7509 1.0276.4295.0669.8713.1017 1.3217.1017.1679 0 .3347-.0049.5-.0144.4012-.0231.7943-.0739 1.1764-.1503.1776-.0354.3528-.0765.5253-.1228 1.4128.8404 3.0087 1.1337 3.7486 1.2332.961.1293 1.5191-.8489 1.196-1.5965-.2107-.4877-.5675-1.4044-.7923-2.4631.6585-.9521 1.046-2.0759 1.046-3.2861 0-.1687-.0073-.3355-.0216-.5-.1202-1.3488-.7221-2.56793-1.6308-3.53548-.3403-.36231-.9099-.38016-1.2722-.03987z"/></g></svg>
