<svg xmlns="http://www.w3.org/2000/svg" width="24" height="24" viewBox="0 0 24 24" fill="currentColor"><path fill-rule="evenodd" d="M12.015 4c4.962 0 8.984 3.45 8.984 7.707s-4.022 7.707-8.984 7.707c-1.28 0-2.496-.23-3.597-.643Q6.894 20.562 3.384 20.7a.376.376 0 0 1-.353-.524c.597-1.335 1.388-2.865 1.388-4.361-.88-1.183-1.388-2.595-1.388-4.108C3.03 7.45 7.053 4 12.015 4" clip-rule="evenodd"/><path d="M14.094 9.27a.9.9 0 0 1 1.273 1.274l-4.193 4.192a.9.9 0 0 1-1.272 0L8.224 13.06a.9.9 0 0 1 1.273-1.274l1.04 1.04z"/><path d="M14.094 9.271a.9.9 0 0 1 1.272 1.274l-4.192 4.192a.9.9 0 0 1-1.273 0L8.224 13.06a.901.901 0 0 1 1.273-1.273l1.04 1.04z"/><path fill-rule="evenodd" d="M12.015 3.1c5.324 0 9.884 3.73 9.884 8.607 0 4.878-4.56 8.607-9.884 8.607a11.2 11.2 0 0 1-3.349-.508c-1.248 1.153-3.051 1.706-5.247 1.793-.927.036-1.598-.928-1.208-1.793.313-.7.635-1.365.893-2.063.217-.587.363-1.14.402-1.658a7.7 7.7 0 0 1-1.375-4.378c0-4.878 4.56-8.607 9.884-8.607m0 1.8c-4.6 0-8.084 3.172-8.084 6.807 0 1.306.437 2.532 1.21 3.571a.9.9 0 0 1 .177.537c0 .9-.236 1.77-.525 2.553-.173.467-.379.93-.575 1.365 1.714-.194 2.836-.748 3.514-1.546l.1-.1a.9.9 0 0 1 .901-.158c1 .375 2.11.585 3.282.585 4.599 0 8.084-3.172 8.084-6.807S16.614 4.9 12.015 4.9" clip-rule="evenodd"/></svg>