<svg xmlns="http://www.w3.org/2000/svg" width="24" height="24" fill="currentColor" viewBox="0 0 24 24"><path fill-rule="evenodd" d="M12.016 4.9c-4.6 0-8.084 3.172-8.084 6.807 0 1.306.437 2.532 1.21 3.571a.9.9 0 0 1 .177.537c0 .9-.236 1.77-.525 2.553-.173.467-.377.933-.574 1.367 1.714-.194 2.835-.75 3.513-1.547a.9.9 0 0 1 1.002-.26 9.157 9.157 0 0 0 1.895.486.9.9 0 1 1-.26 1.781 11.026 11.026 0 0 1-1.702-.387C7.42 20.961 5.616 21.513 3.42 21.6c-.927.036-1.598-.927-1.209-1.792.077-.173.155-.344.232-.513a22.77 22.77 0 0 0 .662-1.55c.217-.587.364-1.138.404-1.656a7.72 7.72 0 0 1-1.377-4.381c0-4.878 4.56-8.607 9.884-8.607 3.41 0 6.458 1.506 8.245 3.855a.9.9 0 0 1-1.433 1.09C17.408 6.179 14.91 4.9 12.016 4.9Z M10.174 13.488c0-1.974 1.617-3.553 3.573-3.553.89 0 1.678.309 2.355.861a3.642 3.642 0 0 1 2.363-.861c1.956 0 3.573 1.579 3.573 3.553 0 1.028-.279 1.84-.94 2.659-.607.752-1.547 1.517-2.811 2.507l-.003.002-1.308 1.015a1.42 1.42 0 0 1-1.74 0l-1.308-1.015-.003-.002c-1.264-.99-2.204-1.755-2.811-2.507-.662-.82-.94-1.631-.94-2.659Zm3.573-1.753c-.98 0-1.773.79-1.773 1.753 0 .621.14 1.033.54 1.528.454.562 1.217 1.2 2.52 2.22l1.072.832 1.071-.832h.002c1.302-1.02 2.065-1.658 2.519-2.22.4-.495.54-.907.54-1.528 0-.962-.794-1.753-1.773-1.753-.59 0-1.134.25-1.658.9a.9.9 0 0 1-1.396.008c-.544-.661-1.091-.908-1.664-.908Z" clip-rule="evenodd"/></svg>
