<svg xmlns="http://www.w3.org/2000/svg" width="24" height="24" fill="currentColor" viewBox="0 0 24 24"><path fill-rule="evenodd" d="M17.876 11.81a3.03 3.03 0 0 0-.125-.12c-.365-.333-.939-.69-1.711-.69-1.413 0-2.54 1.168-2.54 2.585 0 .702.139 1.239.569 1.826.423.578 1.128 1.202 2.243 2.09l1.026.815c.316.25.76.25 1.076 0l1.026-.816c1.115-.887 1.82-1.51 2.243-2.09.43-.586.569-1.123.569-1.825 0-1.417-1.127-2.585-2.54-2.585-.772 0-1.345.357-1.71.69-.045.04-.087.08-.126.12Z M20.803 9.339C19.925 5.719 16.205 3 11.75 3 6.641 3 2.5 6.574 2.5 10.984c0 2.151.986 4.104 2.59 5.538-.155.895-.627 2.068-1.415 3.518l-.178.324a.427.427 0 0 0 .478.623c2.453-.613 4.205-1.387 5.254-2.32.802.196 1.647.3 2.521.3 1.045 0 2.05-.149 2.986-.424-.89-.725-1.617-1.382-2.12-2.068-.691-.945-.916-1.871-.916-2.89 0-2.371 1.893-4.385 4.34-4.385a4.19 4.19 0 0 1 1.836.42 4.181 4.181 0 0 1 1.836-.42c.379 0 .744.048 1.091.139Z"/></svg>
