<svg xmlns="http://www.w3.org/2000/svg" width="24" height="24" fill="currentColor" viewBox="0 0 24 24"><path d="M7.032 1.511A4.45 4.45 0 0 1 9.104 1c2.598 0 4.623 2.208 4.623 4.828v1.964a.9.9 0 1 1-1.8 0V5.828c0-1.719-1.309-3.028-2.823-3.028-.444 0-.862.11-1.236.305a.9.9 0 1 1-.836-1.594Zm14.593 13.125a.9.9 0 0 1 .205 1.256 6.741 6.741 0 0 1-.516.62l-.043.048a.9.9 0 1 1-1.335-1.208l.03-.034c.174-.192.29-.319.403-.477a.9.9 0 0 1 1.256-.205Z"/><path fill-rule="evenodd" d="M16.136 4.367a.9.9 0 0 0 0 1.8c.283 0 .896.184 1.446.705.516.49.957 1.258.957 2.403 0 .207.001.404.003.59.006.649.01 1.187-.062 1.697-.087.608-.277 1.08-.68 1.489a.9.9 0 0 0 1.28 1.265c.747-.757 1.057-1.626 1.182-2.5.094-.659.087-1.377.08-2.046a49.624 49.624 0 0 1-.003-.495c0-1.662-.66-2.897-1.52-3.71-.826-.782-1.865-1.198-2.683-1.198ZM3.542 2.11a.9.9 0 0 0-1.284 1.263l2.225 2.263a.907.907 0 0 0-.001.051v3.367c0 2.664 2.067 4.688 4.622 4.688.86 0 1.852-.287 2.615-.744l1.287 1.31a6.63 6.63 0 0 1-.715.51 6.04 6.04 0 0 1-3.18.911 6.042 6.042 0 0 1-3.183-.904c-.97-.6-1.712-1.383-2.226-2.392a.9.9 0 0 0-1.604.818c.673 1.319 1.65 2.343 2.885 3.105a7.847 7.847 0 0 0 3.635 1.158v2.482a.9.9 0 1 0 1.8 0v-2.578a7.858 7.858 0 0 0 2.823-1.07c.366-.228.71-.478 1.03-.753l2.017 2.052c-.394.122-.765.186-.979.186-.275 0-.583-.073-.848-.162a3.924 3.924 0 0 1-.383-.154l-.016-.007-.002-.001a.9.9 0 0 0-.813 1.606l.003.001.004.003.013.006.016.008a3.331 3.331 0 0 0 .154.07 5.724 5.724 0 0 0 .972.322V22.1a.9.9 0 1 0 1.8 0v-2.574c.253-.054.507-.123.742-.201.243-.08.486-.175.709-.283l1.97 2.006a.9.9 0 0 0 1.285-1.262l-2.473-2.516a.648.648 0 0 0-.018-.018L3.542 2.11Zm2.74 5.356v1.588c0 1.675 1.266 2.888 2.822 2.888.405 0 .882-.114 1.294-.288L6.282 7.466Z" clip-rule="evenodd"/></svg>
