<svg xmlns="http://www.w3.org/2000/svg" width="24" height="24" fill="none" viewBox="0 0 24 24">
  <path fill="currentColor" d="M9.363 10.149c-.428-.428-.642-.643-.826-.657a.5.5 0 0 0-.42.174c-.12.14-.12.443-.12 1.049V11a4 4 0 0 0 4.748 3.93c.275-.052.413-.078.526-.203a.57.57 0 0 0 .124-.402c-.023-.167-.144-.289-.387-.532L9.363 10.15Z M14.723 16.545c.397-.195.884-.152 1.197.161.405.406.352 1.082-.154 1.353a7.946 7.946 0 0 1-2.868.891v2.15a.9.9 0 1 1-1.8 0v-2.15a8.007 8.007 0 0 1-6.453-4.793C4.4 13.587 4.854 13 5.474 13c.405 0 .76.261.932.628a6.178 6.178 0 0 0 8.317 2.917ZM15.998 6c0 .993 0 1.49-.194 1.717a.81.81 0 0 1-.68.282c-.298-.024-.645-.37-1.339-1.065l-3.367-3.367c-.254-.254-.38-.38-.415-.563a.693.693 0 0 1 .1-.457c.107-.152.24-.2.505-.299A4 4 0 0 1 15.998 6Z"/>
  <path fill="#FF3347" d="M5.264 3.539a.901.901 0 0 1 1.274-1.275l14.198 14.198a.901.901 0 1 1-1.274 1.274L5.264 3.54Z"/>
</svg>
