<svg xmlns="http://www.w3.org/2000/svg" width="24" height="24" fill="currentColor" viewBox="0 0 24 24"><path fill-rule="evenodd" d="M9.193 2.883A4.9 4.9 0 0 1 16.9 6.9v3.018a.9.9 0 0 1-1.8 0V6.9a3.1 3.1 0 0 0-4.875-2.542.9.9 0 1 1-1.032-1.475ZM7.1 11.1a4.9 4.9 0 0 0 7.729 4.001l1.449 1.45A7.007 7.007 0 0 1 12 18a7.061 7.061 0 0 1-6.12-3.55.9.9 0 1 0-1.56.9 8.872 8.872 0 0 0 6.78 4.405V22.1a.9.9 0 1 0 1.8 0v-2.345a8.808 8.808 0 0 0 4.66-1.923l1.804 1.804a.9.9 0 0 0 1.272-1.272l-15-15a.9.9 0 0 0-1.272 1.272L7.1 7.373V11.1Zm1.8 0a3.1 3.1 0 0 0 4.626 2.7L8.9 9.172V11.1Z" clip-rule="evenodd"/></svg>
