<svg xmlns="http://www.w3.org/2000/svg" width="24" height="24" fill="currentColor" viewBox="0 0 24 24"><path d="M7.898 11.1a.9.9 0 1 0 0 1.8h8.2a.9.9 0 0 0 0-1.8h-8.2Z"/><path fill-rule="evenodd" d="M9.462 3c-.948 0-1.714 0-2.334.05-.64.053-1.203.163-1.726.43A4.4 4.4 0 0 0 3.48 5.402c-.267.523-.377 1.087-.43 1.726C3 7.748 3 8.514 3 9.462v5.076c0 .948 0 1.714.05 2.334.053.64.163 1.203.43 1.726a4.4 4.4 0 0 0 1.922 1.922c.523.267 1.087.377 1.726.43.62.05 1.386.05 2.334.05h5.076c.948 0 1.714 0 2.334-.05.64-.053 1.203-.163 1.726-.43a4.4 4.4 0 0 0 1.922-1.922c.267-.523.377-1.087.43-1.726.05-.62.05-1.386.05-2.334V9.462c0-.948 0-1.714-.05-2.334-.053-.64-.163-1.203-.43-1.726a4.4 4.4 0 0 0-1.922-1.922c-.523-.267-1.087-.377-1.726-.43C16.252 3 15.486 3 14.538 3H9.462ZM6.22 5.083c.226-.115.527-.195 1.054-.238C7.813 4.8 8.505 4.8 9.5 4.8h5c.995 0 1.687 0 2.226.045.527.043.828.123 1.054.238a2.6 2.6 0 0 1 1.137 1.137c.115.226.195.527.238 1.054.044.539.045 1.231.045 2.226v5c0 .995 0 1.687-.045 2.226-.043.527-.123.828-.238 1.054a2.6 2.6 0 0 1-1.137 1.137c-.226.115-.527.195-1.055.238-.538.044-1.23.045-2.225.045h-5c-.995 0-1.687 0-2.226-.045-.527-.043-.828-.123-1.054-.238a2.6 2.6 0 0 1-1.137-1.137c-.115-.226-.195-.527-.238-1.055-.044-.538-.045-1.23-.045-2.225v-5c0-.995 0-1.687.045-2.226.043-.527.123-.828.238-1.054A2.6 2.6 0 0 1 6.22 5.083Z" clip-rule="evenodd"/></svg>
