<svg xmlns="http://www.w3.org/2000/svg" width="24" height="24" fill="currentColor" viewBox="0 0 24 24"><path fill-rule="evenodd" d="M18 13a5 5 0 1 1 0 10 5 5 0 0 1 0-10Zm2.742 2.76a.9.9 0 0 0-1.273 0l-2.08 2.567-.848-.875a.9.9 0 0 0-1.273 1.273l1.485 1.511a.9.9 0 0 0 1.272 0l2.717-3.203a.9.9 0 0 0 0-1.273Z" clip-rule="evenodd"/><path d="M9.743 2.259a10.002 10.002 0 0 1 12.18 8.496.9.9 0 0 1-1.787.224A8.202 8.202 0 0 0 6.201 6.203a8.2 8.2 0 0 0 4.78 13.934.9.9 0 0 1-.223 1.786A10.001 10.001 0 0 1 4.928 4.93a10 10 0 0 1 4.815-2.67Z"/><path fill-rule="evenodd" d="M12.947 6.003A3.355 3.355 0 0 1 16.3 9.359a3.356 3.356 0 0 1-3.353 3.358h-2.251v1.286h1.499a.75.75 0 0 1 0 1.5h-1.5v.65a.85.85 0 1 1-1.696 0l-.002-.65h-.798a.75.75 0 0 1 0-1.5h.798v-1.286h-.69a.857.857 0 0 1 0-1.714h.69l.002-4.15c0-.47.38-.85.848-.85h3.1Zm-2.251 1.571v3.429h2.283a1.714 1.714 0 0 0 0-3.429h-2.283Z" clip-rule="evenodd"/></svg>
