<svg xmlns="http://www.w3.org/2000/svg" width="24" height="24" fill="currentColor" viewBox="0 0 24 24"><path d="M17.795 3.1c1.152 0 1.74.113 2.35.44.565.302 1.013.75 1.315 1.314.301.565.421 1.108.438 2.095l.002.256V12a.9.9 0 0 1-1.793.113L20.1 12l-.001-3.1h-16.2l.001 5.895c0 .88.06 1.187.228 1.502.134.25.325.441.575.575.29.156.574.218 1.309.227l.193.001h12.622l-1.463-1.464a.9.9 0 0 1-.081-1.18l.08-.092a.9.9 0 0 1 1.181-.081l.092.08 3 3a.9.9 0 0 1 .08 1.181l-.08.092-3 3a.9.9 0 0 1-1.353-1.18l.08-.092 1.464-1.464H6.205c-1.063 0-1.646-.097-2.21-.369l-.14-.071a3.172 3.172 0 0 1-1.315-1.315c-.301-.564-.421-1.107-.438-2.094l-.002-.256v-7.59c0-1.152.113-1.74.44-2.35A3.171 3.171 0 0 1 3.854 3.54c.565-.301 1.108-.421 2.095-.438l.256-.002h11.59Zm0 1.8H6.205c-.88 0-1.187.06-1.502.228-.25.134-.441.325-.575.575-.156.29-.218.574-.227 1.309L3.9 7.1h16.198v-.088c-.008-.735-.07-1.018-.226-1.309a1.372 1.372 0 0 0-.575-.575c-.291-.156-.575-.218-1.309-.227l-.193-.001Z"/></svg>
