<svg xmlns="http://www.w3.org/2000/svg" width="24" height="24" fill="currentColor" viewBox="0 0 24 24"><path fill-rule="evenodd" d="M16.6 10.357A3.355 3.355 0 0 0 13.247 7h-3.1a.85.85 0 0 0-.849.85V12h-.692a.857.857 0 0 0 0 1.714h.691V15H8.5a.75.75 0 0 0 0 1.5h.798l.001.65a.85.85 0 1 0 1.698 0v-.65h1.499a.75.75 0 0 0 0-1.5h-1.499v-1.286h2.25a3.355 3.355 0 0 0 3.354-3.357Zm-5.604-1.786h2.283a1.713 1.713 0 0 1 0 3.429h-2.283V8.571Z M12 2a9.972 9.972 0 0 0-7.071 2.929A9.972 9.972 0 0 0 2 12a9.972 9.972 0 0 0 2.929 7.071A9.972 9.972 0 0 0 12 22a9.972 9.972 0 0 0 7.071-2.929A9.972 9.972 0 0 0 22 12a9.972 9.972 0 0 0-2.929-7.071A9.972 9.972 0 0 0 12 2ZM6.202 6.202A8.172 8.172 0 0 1 12 3.8a8.17 8.17 0 0 1 5.798 2.402A8.171 8.171 0 0 1 20.2 12a8.172 8.172 0 0 1-2.402 5.798A8.172 8.172 0 0 1 12 20.2a8.171 8.171 0 0 1-5.798-2.402A8.172 8.172 0 0 1 3.8 12a8.17 8.17 0 0 1 2.402-5.798Z" clip-rule="evenodd"/></svg>
