<svg xmlns="http://www.w3.org/2000/svg" width="24" height="24" fill="none" viewBox="0 0 24 24">
  <path fill="currentColor" d="M12 24c6.627 0 12-5.373 12-12S18.627 0 12 0 0 5.373 0 12s5.373 12 12 12Z"/>
  <path fill="#fff" fill-rule="evenodd" d="M12 22c5.523 0 10-4.477 10-10S17.523 2 12 2 2 6.477 2 12s4.477 10 10 10Zm12-10c0 6.627-5.373 12-12 12S0 18.627 0 12 5.373 0 12 0s12 5.373 12 12Z" clip-rule="evenodd"/>
  <path fill="#fff" d="M17 10.5a1.5 1.5 0 1 1 0 3 1.5 1.5 0 0 1 0-3Zm-5 0a1.5 1.5 0 1 1 0 3 1.5 1.5 0 0 1 0-3Zm-5 0a1.5 1.5 0 1 1 0 3 1.5 1.5 0 0 1 0-3Z"/>
</svg>
