<svg xmlns="http://www.w3.org/2000/svg" width="24" height="24" fill="currentColor" viewBox="0 0 24 24"><path fill-rule="evenodd" d="M10.1 5a.9.9 0 0 1 .9-.9h3.5a.9.9 0 0 1 .854.615l.461 1.385h1.435a2.65 2.65 0 0 1 .325 5.28l.575 1.723A3.9 3.9 0 1 1 14.1 16.9h-3.2v.1a3.9 3.9 0 1 1-7.8 0v-.1h-.6a.9.9 0 0 1-.9-.9v-1.037c0-.669 0-1.225.037-1.678.039-.473.122-.913.334-1.329a3.4 3.4 0 0 1 1.485-1.485c.416-.212.856-.295 1.329-.334.453-.037 1.01-.037 1.678-.037h1.214c1.224 0 2.068-.001 2.776.247a4.4 4.4 0 0 1 2.7 2.7c.196.56.237 1.203.245 2.053h1.195a3.916 3.916 0 0 1 1.777-1.644L13.851 5.9H11a.9.9 0 0 1-.9-.9Zm6.882 4.6h.268a.85.85 0 0 0 0-1.7h-.835l.567 1.7ZM7.5 11.9c1.472 0 1.978.013 2.359.146a2.6 2.6 0 0 1 1.595 1.595c.101.29.133.653.142 1.459H3.4V15c0-.715 0-1.197.031-1.569.03-.361.083-.538.143-.657a1.6 1.6 0 0 1 .7-.7c.119-.06.296-.113.657-.143.372-.03.854-.031 1.569-.031h1Zm-2.6 5v.1a2.1 2.1 0 1 0 4.2 0v-.1H4.9Zm13.1-2a2.1 2.1 0 1 0 0 4.2 2.1 2.1 0 0 0 0-4.2Z" clip-rule="evenodd"/></svg>
