<svg fill="none" height="24" viewBox="0 0 24 24" width="24" xmlns="http://www.w3.org/2000/svg"><g fill="currentColor"><path d="m18.0936 5.23718c.3645-.33801.9339-.3166 1.2719.04784l.0302.0327c1.6163 1.75833 2.6043 4.10316 2.6043 6.67628 0 2.5924-1.0029 4.9531-2.6407 6.7157-.3384.3641-.9079.385-1.272.0466-.3641-.3383-.385-.9078-.0466-1.2719 1.3414-1.4436 2.1593-3.3713 2.1593-5.4904 0-2.10341-.8058-4.01812-2.1295-5.45813l-.0247-.0268c-.338-.36443-.3166-.93388.0478-1.27189z"/><path d="m14.2666 7.46057c.3531-.34978.923-.34704 1.2728.00611 1.1495 1.16067 1.8605 2.76482 1.8605 4.53332s-.711 3.3727-1.8605 4.5334c-.3498.3531-.9197.3558-1.2728.0061-.3532-.3498-.3559-.9197-.0061-1.2728.8275-.8355 1.3394-1.9891 1.3394-3.2667s-.5119-2.43112-1.3394-3.26665c-.3498-.35315-.3471-.923.0061-1.27278z"/><path d="m2.76861 18.3021c1.75852 1.7693 5.14451.0155 5.14451-3.3153v-4.7174l2.19978-.59026.1928-.06001c1.0084-.35838 1.6943-1.32079 1.6943-2.41145v-1.49382l-.0085-.11125c-.0617-.39758-.4484-.67381-.8532-.58179-1.25631.28554-2.13323.50144-2.64763.65311l-.24473.07639c-1.25277.42017-2.13247 1.40518-2.11335 2.77088l-.00139 4.7789c-3.65675.1832-5.181791 3.1716-3.36259 5.002z"/></g></svg>
