<svg xmlns="http://www.w3.org/2000/svg" width="24" height="24" fill="currentColor" viewBox="0 0 24 24"><path d="M14 3a1 1 0 0 1 1 1v16a1 1 0 0 1-1 1 2.48 2.48 0 0 1-1.72-.695L6.79 15H4a2 2 0 0 1-2-2v-2a2 2 0 0 1 2-2h2.765l5.514-5.307A2.481 2.481 0 0 1 14 3Z M17.364 9.114a.9.9 0 0 1 1.272 0l1.614 1.613 1.614-1.613a.9.9 0 0 1 1.272 1.272L21.523 12l1.613 1.614a.9.9 0 1 1-1.272 1.272l-1.614-1.613-1.614 1.613a.9.9 0 1 1-1.272-1.272L18.977 12l-1.613-1.614a.9.9 0 0 1 0-1.272Z" clip-rule="evenodd"/></svg>
