<svg xmlns="http://www.w3.org/2000/svg" width="24" height="24" fill="currentColor" viewBox="0 0 24 24"><path fill-rule="evenodd" d="M12.25 4c.902 0 1.75.694 1.75 1.688v12.623c0 .995-.848 1.689-1.75 1.689-.762 0-1.506-.28-2.063-.798l-4.24-3.935H4.14c-1.118 0-2.14-.857-2.14-2.051v-2.432c0-1.194 1.022-2.05 2.14-2.05h1.806l4.24-3.936A3.036 3.036 0 0 1 12.25 4Zm-.05 1.8a1.23 1.23 0 0 0-.789.317l-4.499 4.176a.9.9 0 0 1-.612.24H4.14c-.14 0-.34.086-.34.251v2.432c0 .165.2.25.34.25H6.3a.9.9 0 0 1 .612.241l4.5 4.176c.2.186.481.305.788.316V5.801Z M20.564 9.363a.9.9 0 0 1 1.273 1.274L20.373 12.1l1.464 1.463.061.069a.901.901 0 0 1-1.266 1.266l-.069-.061-1.463-1.464-1.463 1.464-.07.061a.9.9 0 0 1-1.265-1.266l.061-.069 1.463-1.463-1.463-1.463a.9.9 0 0 1 1.274-1.274l1.463 1.463 1.463-1.463Z"/></svg>
