<svg xmlns="http://www.w3.org/2000/svg" width="24" height="24" fill="currentColor" viewBox="0 0 24 24"><path d="M2 9.946a1 1 0 0 1 .945-.999l2.83-.157a2 2 0 0 0 1.255-.536l4.287-4.01C11.956 3.647 13 4.1 13 4.974v14.051c0 .875-1.044 1.328-1.683.73L7.03 15.747a2 2 0 0 0-1.255-.536l-2.83-.158A1 1 0 0 1 2 14.054V9.946Zm20.464-1.682a.9.9 0 0 1 1.272 1.272L21.273 12l2.463 2.464a.9.9 0 1 1-1.272 1.272L20 13.273l-2.464 2.463a.9.9 0 0 1-1.272-1.272L18.727 12l-2.463-2.464a.9.9 0 1 1 1.272-1.272L20 10.727l2.464-2.463Z"/></svg>
