<svg xmlns="http://www.w3.org/2000/svg" width="24" height="24" viewBox="0 0 24 24" fill="currentColor"><path d="M17.827 11.9c1.87 0 3.372 1.527 3.372 3.394l-.009.329c-.041.746-.238 1.353-.709 1.997-.533.729-1.416 1.505-2.806 2.596l-1.29 1.01a1.27 1.27 0 0 1-1.568 0l-1.289-1.01c-1.39-1.091-2.274-1.867-2.806-2.596-.471-.644-.668-1.25-.71-1.997l-.008-.33c0-1.862 1.497-3.385 3.36-3.393l.027.001.187.005.027.001c.706.04 1.362.262 1.95.66l.017.01.03.022.029-.021.017-.012.248-.155a3.8 3.8 0 0 1 1.636-.5z"/><path d="M11.255 2.063c.83-.117 1.594-.094 2.321.256q.26.126.5.288c.667.454 1.07 1.103 1.384 1.88.307.758.57 1.747.896 2.958l.536 1.99a.9.9 0 0 1-1.739.467l-.535-1.99c-.338-1.254-.571-2.117-.827-2.75-.248-.611-.473-.894-.728-1.066a2 2 0 0 0-.27-.156c-.276-.133-.633-.187-1.286-.094-.675.095-1.54.324-2.795.66-1.256.337-2.119.57-2.751.825-.612.247-.893.472-1.065.725q-.088.13-.156.269c-.133.276-.186.633-.094 1.286.096.675.327 1.538.665 2.793l1.322 4.914c.374 1.39.633 2.345.923 3.036.279.667.537.963.837 1.136.336.194.781.265 1.685.113a.901.901 0 0 1 .298 1.776c-1.056.177-2.007.175-2.882-.33-.777-.448-1.241-1.146-1.598-2-.348-.828-.64-1.922-1.001-3.263l-1.322-4.914c-.326-1.211-.594-2.199-.709-3.008-.118-.83-.095-1.593.255-2.32a4 4 0 0 1 .288-.5c.454-.667 1.103-1.068 1.881-1.382.758-.306 1.747-.569 2.958-.894 1.211-.324 2.2-.59 3.009-.705"/></svg>