<svg height="24" viewBox="0 0 24 24" width="24" xmlns="http://www.w3.org/2000/svg"><path d="m14.2977177 1.43478216c.7323537.17093792 1.3770949.54317938 1.8913083 1.09194733.5212747.55630376.8245725 1.1457085 1.1510237 2.29787913l.7908276 2.94438774c.1429419.5334661-.1736406 1.08180306-.7071067 1.22474487s-1.0818031-.17364068-1.2247449-.70710678l-.7204316-2.68868724-.1126381-.40229801c-.2149689-.72858114-.3765211-1.02411712-.6363448-1.30140058-.2439572-.26035087-.5390433-.43071891-.8864924-.51181665-.3700463-.08637213-.7067641-.07851244-1.4452183.09960958l-.4047194.10360153-5.12746694 1.37390062c-.85398602.22882487-1.25374718.39461491-1.50882163.58319221l-.06093343.04766873-.13394352.11812193c-.26035088.24395725-.43071892.53904335-.51181666.88649245-.09356981.40088352-.0765481.76265226.14773122 1.63845318l2.72347574 10.1685806.11263813.402298c.21496893.7285811.37652111 1.0241171.63634474 1.3014006.24395725.2603509.53904335.4307189.88649244.5118166.40121066.0936462.74531099.0763487 1.60734091-.1401561.5356487-.1345319 1.0789375.1906375 1.2134694.7262863s-.1906375 1.0789376-.7262863 1.2134695c-1.1488261.2885356-1.80575568.3215587-2.54912294.1480501-.7323537-.1709379-1.37709483-.5431793-1.89130826-1.0919473-.52127473-.5563037-.82457247-1.1457085-1.15102368-2.2978791l-2.73839194-10.2127966c-.35463118-1.32350157-.40467207-2.02673484-.21900927-2.82217472.15194482-.65098106.46294429-1.23273738.93013067-1.72836995l.18251055-.18179216.1788381-.15773343c.49569478-.4116395 1.07724685-.68435734 2.09131834-.97241045l.2627293-.07242204 5.12746693-1.37390063c1.3235016-.35463117 2.0267349-.40467207 2.8221747-.21900926zm4.0707034 9.56521784c2.0002036 0 3.6315789 1.591505 3.6315789 3.567264 0 1.909038-.771624 2.8510565-3.7799053 5.1336475l-1.3277943 1.0074894c-.5275324.4002753-1.2570684.4002753-1.7846008 0l-1.3277943-1.0074894c-3.0082813-2.282591-3.7799053-3.2246095-3.7799053-5.1336475 0-1.975759 1.6313753-3.567264 3.6315789-3.567264.8292041 0 1.5959065.2236878 2.2823864.6596624l.0860347.0573376.0860347-.0573376c.6178319-.3923771 1.300644-.612802 2.0355179-.6529632z" fill="currentColor" /></svg>
