<svg xmlns="http://www.w3.org/2000/svg" width="24" height="24" viewBox="0 0 24 24" fill="currentColor"><path fill-rule="evenodd" d="M17.826 11.9c1.87 0 3.373 1.528 3.373 3.395 0 .903-.18 1.589-.718 2.325-.533.729-1.416 1.505-2.806 2.595l-1.29 1.012a1.27 1.27 0 0 1-1.568 0l-1.289-1.012c-1.39-1.09-2.273-1.866-2.806-2.595-.538-.736-.718-1.422-.718-2.325 0-1.863 1.496-3.388 3.36-3.395l.027.001.187.005.027.001a3.8 3.8 0 0 1 1.95.66l.016.01.03.022.03-.021.018-.01a3.83 3.83 0 0 1 2.177-.668m-4.456 1.8a1.583 1.583 0 0 0-1.565 1.595c0 .59.094.886.37 1.263.366.502 1.058 1.138 2.465 2.241l.962.755.962-.755c1.406-1.103 2.098-1.74 2.464-2.24.276-.378.37-.675.37-1.264 0-.888-.711-1.594-1.572-1.594a2.03 2.03 0 0 0-1.17.357l-.535.378a.9.9 0 0 1-1.039 0l-.55-.388a2 2 0 0 0-1.022-.344z" clip-rule="evenodd"/><path d="M11.255 2.063c.83-.117 1.594-.095 2.321.256q.26.126.5.288c.667.454 1.07 1.102 1.384 1.88.307.758.57 1.747.896 2.958l.536 1.99a.9.9 0 0 1-1.739.467l-.535-1.99c-.338-1.254-.571-2.117-.827-2.75-.248-.611-.473-.894-.728-1.067a2 2 0 0 0-.269-.155c-.277-.133-.634-.187-1.287-.095-.675.096-1.54.325-2.795.662-1.256.336-2.119.569-2.751.824-.612.247-.893.472-1.065.725q-.088.13-.156.269c-.133.276-.186.632-.093 1.286.095.675.326 1.538.664 2.793l1.322 4.914c.374 1.39.633 2.345.923 3.036.28.668.537.963.837 1.136.336.194.781.265 1.685.113a.901.901 0 0 1 .298 1.776c-1.056.177-2.007.175-2.882-.33-.777-.448-1.241-1.146-1.598-2-.348-.829-.64-1.922-1.001-3.263l-1.322-4.914c-.326-1.211-.594-2.199-.709-3.008-.118-.83-.095-1.593.255-2.32q.126-.26.288-.5c.454-.667 1.103-1.068 1.881-1.382.758-.306 1.747-.57 2.958-.894s2.2-.59 3.009-.705"/></svg>