<svg xmlns="http://www.w3.org/2000/svg" width="24" height="24" fill="currentColor" viewBox="0 0 24 24"><path d="M15.936 10.539a.9.9 0 1 0-1.272-1.273L10.8 13.128l-1.266-1.265a.9.9 0 1 0-1.272 1.274l1.902 1.9a.9.9 0 0 0 1.272 0l4.5-4.498Z M10.218 2.06a2.313 2.313 0 0 0-2.155.617L2.677 8.063a2.313 2.313 0 0 0-.618 2.155l1.873 8.116a2.313 2.313 0 0 0 1.734 1.734l8.116 1.873a2.313 2.313 0 0 0 2.155-.618l5.386-5.386a2.313 2.313 0 0 0 .618-2.155l-1.873-8.116a2.313 2.313 0 0 0-1.734-1.734L10.218 2.06Zm-.882 1.89a.513.513 0 0 1 .478-.137l8.116 1.873c.19.044.34.193.384.384l1.873 8.116a.513.513 0 0 1-.137.478l-5.386 5.386a.513.513 0 0 1-.478.137L6.07 18.314a.513.513 0 0 1-.384-.384L3.813 9.814a.513.513 0 0 1 .137-.478L9.336 3.95Z" clip-rule="evenodd"/></svg>
