<?xml version="1.0" encoding="UTF-8"?>
<svg width="24px" height="24px" viewBox="0 0 24 24" version="1.1" xmlns="http://www.w3.org/2000/svg" xmlns:xlink="http://www.w3.org/1999/xlink">
    <!-- Generator: Sketch 50.2 (55047) - http://www.bohemiancoding.com/sketch -->
    <title>notification_disable_24</title>
    <desc>Created with Sketch.</desc>
    <defs></defs>
    <g id="Page-2" stroke="none" stroke-width="1" fill="none" fill-rule="evenodd">
        <g id="notification_disable_24">
            <rect id="Bounds" x="0" y="0" width="24" height="24"></rect>
            <path d="M12.0014289,22.5 C10.3087205,22.5 9.00142888,21.625 9.00142888,20 L15.0014289,20 C15.0014289,21.625 13.6941373,22.5 12.0014289,22.5 Z M19.4101161,18.8222491 L19.4097393,18.8223827 L7.09787501,6.51051845 L7.09864168,6.50906044 L4.79745577,4.20755412 C4.40808915,3.81813328 4.4081331,3.18680131 4.79755393,2.79743468 L4.79999924,2.79499817 C5.19251255,2.40524752 5.826332,2.40640356 6.21742096,2.79758343 L8.32495753,4.90560994 C9.08023825,4.24001816 10.0195381,3.85714286 11.1428571,3.85714286 C11.1428571,3.21428571 11.5714286,3 12,3 C12.4285714,3 12.8571429,3.21428571 12.8571429,3.85714286 C16.2857143,3.85714286 17.9953857,7.42393276 17.9953857,11.709647 L17.9953857,14.5782862 L21.7014822,18.2852442 C22.0919744,18.6758272 22.0919376,19.3090024 21.7014,19.6995399 C21.3109029,20.0900371 20.677782,20.0900371 20.2872849,19.6995399 L20.2872357,19.6994907 L19.4101161,18.8222491 Z M16.7542908,18.9953613 L6,18.9953613 C4.28571429,18.9953613 3.85714286,18.5667899 3.85714286,17.709647 C3.85714286,16.8525042 6,16.4239328 6,14.709647 L6,11.709647 C6,10.6034444 6.11421053,9.54513856 6.34263159,8.58370214 L16.7542908,18.9953613 Z" id="Mask" fill="currentColor" fill-rule="nonzero"></path>
        </g>
    </g>
</svg>
