<svg xmlns="http://www.w3.org/2000/svg" width="24" height="24" fill="currentColor" viewBox="0 0 24 24"><path fill-rule="evenodd" d="M17.908 4.366a.817.817 0 0 1 .071-1.16.832.832 0 0 1 1.169.071c1.204 1.35 2.023 2.98 2.388 4.91a.822.822 0 0 1-.662.96.827.827 0 0 1-.966-.656c-.31-1.645-.997-3.001-2-4.125ZM5.97 3.206c.342.301.374.82.07 1.16-1.002 1.124-1.688 2.48-2 4.125a.828.828 0 0 1-.966.656.822.822 0 0 1-.66-.959c.364-1.931 1.182-3.56 2.387-4.911a.833.833 0 0 1 1.169-.07ZM12 21c1.786 0 2.993-.88 3.499-2.5h-7c.496 1.653 1.695 2.5 3.5 2.5Zm6.305-10.708c0-3.835-2.643-6.792-6.327-6.792-3.685 0-6.335 2.958-6.335 6.792v1.443c0 .206-.177.48-.661.97l-.248.248c-.992.99-1.385 1.56-1.385 2.476 0 .399.04.69.215 1.048.401.82 1.298 1.272 2.663 1.272h1.754l7.986.001h1.754c1.326 0 2.214-.442 2.633-1.233.197-.375.245-.687.245-1.088 0-.917-.393-1.487-1.385-2.476a35.986 35.986 0 0 1-.248-.248c-.483-.49-.66-.764-.66-.97v-1.443Z" clip-rule="evenodd"/></svg>
