<svg xmlns="http://www.w3.org/2000/svg" width="24" height="24" fill="currentColor" viewBox="0 0 24 24"><path fill-rule="evenodd" d="M7.367 2.1h7.266c.392 0 .738 0 1.026.023.305.025.622.081.93.239a2.4 2.4 0 0 1 1.05 1.048c.157.309.213.626.238.931.006.083.011.17.015.262.353.009.666.036.95.122a2.9 2.9 0 0 1 1.933 1.933c.126.416.126.894.125 1.472v.24c0 .578.001 1.056-.125 1.472a2.9 2.9 0 0 1-1.933 1.933c-.416.126-.894.126-1.472.125h-4.156c-.726 0-.9.009-1.019.043a1.1 1.1 0 0 0-.752.752c-.021.074-.033.17-.038.406.067.001.134.004.197.009a1.4 1.4 0 0 1 .534.143 1.4 1.4 0 0 1 .611.611 1.4 1.4 0 0 1 .143.534c.01.121.01.26.01.38v5.444c0 .12 0 .259-.01.38a1.4 1.4 0 0 1-.143.534 1.4 1.4 0 0 1-.611.611 1.409 1.409 0 0 1-.534.143c-.121.01-.26.01-.38.01H9.778c-.12 0-.259 0-.38-.01a1.408 1.408 0 0 1-.534-.143 1.4 1.4 0 0 1-.611-.611 1.408 1.408 0 0 1-.143-.534c-.01-.121-.01-.26-.01-.38v-5.444c0-.12 0-.259.01-.38a1.4 1.4 0 0 1 .143-.534 1.4 1.4 0 0 1 .611-.611 1.4 1.4 0 0 1 .534-.143 4.4 4.4 0 0 1 .205-.01c.008-.335.032-.633.11-.903a2.9 2.9 0 0 1 1.984-1.984c.397-.114.853-.114 1.403-.113h4.15c.763 0 .945-.01 1.07-.047a1.1 1.1 0 0 0 .733-.734c.037-.124.047-.306.047-1.069 0-.763-.01-.945-.047-1.07a1.1 1.1 0 0 0-.734-.733c-.077-.023-.177-.036-.428-.042a5.951 5.951 0 0 1-.014.253c-.025.306-.081.623-.239.932a2.4 2.4 0 0 1-1.048 1.048 2.439 2.439 0 0 1-.931.239c-.288.023-.634.023-1.026.023H7.367c-.392 0-.738 0-1.025-.023-.306-.025-.623-.081-.932-.239A2.4 2.4 0 0 1 4.362 7.59c-.158-.309-.214-.626-.239-.932C4.1 6.371 4.1 6.025 4.1 5.633v-.266c0-.392 0-.738.023-1.026.025-.305.081-.622.239-.93A2.4 2.4 0 0 1 5.41 2.36c.309-.157.626-.213.932-.238.287-.023.633-.023 1.025-.023ZM9.9 14.9v5.2h1.2v-5.2H9.9ZM6.488 3.917c-.194.016-.248.042-.26.048a.6.6 0 0 0-.263.263c-.006.012-.032.066-.048.26A12.65 12.65 0 0 0 5.9 5.4v.2c0 .435 0 .707.017.912.016.194.042.248.048.26a.6.6 0 0 0 .263.263c.012.006.066.032.26.048.205.016.477.017.912.017h7.2c.435 0 .707 0 .912-.017.194-.016.248-.042.26-.048a.6.6 0 0 0 .263-.263c.006-.012.032-.066.048-.26.016-.205.017-.477.017-.912v-.2c0-.435 0-.707-.017-.912-.016-.194-.042-.248-.048-.26a.6.6 0 0 0-.263-.263c-.012-.006-.066-.032-.26-.048A12.658 12.658 0 0 0 14.6 3.9H7.4c-.435 0-.707 0-.912.017Z" clip-rule="evenodd"/></svg>
