<svg xmlns="http://www.w3.org/2000/svg" width="24" height="24" fill="currentColor" viewBox="0 0 24 24"><path fill-rule="evenodd" d="M5 5a9.872 9.872 0 0 1 7-2.9c2.734 0 5.21 1.11 7 2.9a9.872 9.872 0 0 1 2.9 7c0 1.933-.61 3.282-1.77 4.041-1.073.702-2.416.763-3.654.631-.444-.047-.888-.096-1.332-.142-.657-.045-.948.14-1.063.28-.116.14-.244.46-.077 1.096.052.197.109.378.172.58l.105.339A2.384 2.384 0 0 1 12 21.9 9.872 9.872 0 0 1 5 19a9.872 9.872 0 0 1-2.9-7c0-2.734 1.11-5.21 2.9-7Zm7-1.1c-2.237 0-4.26.906-5.728 2.372A8.072 8.072 0 0 0 3.9 12c0 2.237.906 4.26 2.372 5.727A8.072 8.072 0 0 0 12 20.1a.584.584 0 0 0 .559-.753 25.023 25.023 0 0 0-.083-.267 16 16 0 0 1-.213-.717c-.256-.976-.18-1.964.431-2.701.61-.738 1.567-.997 2.573-.928.056.004.462.048 1.198.127l.204.022c1.075.115 1.92.016 2.475-.348.486-.318.956-.98.956-2.535 0-2.237-.906-4.26-2.372-5.728A8.072 8.072 0 0 0 12 3.9Z" clip-rule="evenodd"/><path d="M13 7.4a1.4 1.4 0 1 1 2.8 0 1.4 1.4 0 0 1-2.8 0Zm2.75 4a1.4 1.4 0 1 1 2.8 0 1.4 1.4 0 0 1-2.8 0Zm-10.3 0a1.4 1.4 0 1 1 2.8 0 1.4 1.4 0 0 1-2.8 0ZM8 7.4a1.4 1.4 0 1 1 2.8 0 1.4 1.4 0 0 1-2.8 0Z"/></svg>
