<svg fill="none" height="24" viewBox="0 0 24 24" width="24" xmlns="http://www.w3.org/2000/svg"><path clip-rule="evenodd" d="m12 24c6.6274 0 12-5.3726 12-12 0-6.62742-5.3726-12-12-12-6.62742 0-12 5.37258-12 12 0 6.6274 5.37258 12 12 12zm-1.4093-16.89315c-.1303-.06972-.2596-.10685-.61625-.10685h-.9489c-.3566 0-.48592.03713-.61629.10685-.13037.06973-.23268.17204-.30241.30241-.06972.13037-.10685.25969-.10685.61629v7.94885c0 .3567.03713.486.10685.6163.06973.1304.17204.2327.30241.3024.13037.0698.25969.1069.61629.1069h.9489c.35665 0 .48595-.0371.61625-.1069.1304-.0697.2327-.172.3024-.3024.0698-.1303.1069-.2596.1069-.6163v-7.94885c0-.3566-.0371-.48592-.1069-.61629-.0697-.13037-.172-.23268-.3024-.30241zm5 0c-.1303-.06972-.2596-.10685-.6163-.10685h-.9488c-.3567 0-.486.03713-.6163.10685-.1304.06973-.2327.17204-.3024.30241-.0698.13037-.1069.25969-.1069.61629v7.94885c0 .3567.0371.486.1069.6163.0697.1304.172.2327.3024.3024.1303.0698.2596.1069.6163.1069h.9488c.3567 0 .486-.0371.6163-.1069.1304-.0697.2327-.172.3024-.3024.0698-.1303.1069-.2596.1069-.6163v-7.94885c0-.3566-.0371-.48592-.1069-.61629-.0697-.13037-.172-.23268-.3024-.30241z" fill="currentColor" fill-rule="evenodd"/></svg>
