<svg xmlns="http://www.w3.org/2000/svg" width="24" height="24" fill="none" viewBox="0 0 24 24">
  <path fill="#A3ADB8" d="M24 12c0 6.627-5.373 12-12 12S0 18.627 0 12 5.373 0 12 0s12 5.373 12 12Z"/>
  <path fill="#fff" d="M13 8.5c0-.466 0-.699.076-.883a1 1 0 0 1 .541-.54C13.801 7 14.034 7 14.5 7s.699 0 .883.076a1 1 0 0 1 .54.541c.077.184.077.417.077.883v7c0 .466 0 .699-.076.883a1 1 0 0 1-.541.54c-.184.077-.417.077-.883.077s-.699 0-.883-.076a1 1 0 0 1-.54-.541C13 16.199 13 15.966 13 15.5v-7ZM8 8.5c0-.466 0-.699.076-.883a1 1 0 0 1 .541-.54C8.801 7 9.034 7 9.5 7s.699 0 .883.076a1 1 0 0 1 .54.541c.077.184.077.417.077.883v7c0 .466 0 .699-.076.883a1 1 0 0 1-.541.54C10.199 17 9.966 17 9.5 17s-.699 0-.883-.076a1 1 0 0 1-.54-.541C8 16.199 8 15.966 8 15.5v-7Z"/>
</svg>
