<svg xmlns="http://www.w3.org/2000/svg" width="24" height="24" fill="currentColor" viewBox="0 0 24 24"><path d="M6 6.6c0-.56 0-.84.109-1.054a1 1 0 0 1 .437-.437C6.76 5 7.04 5 7.6 5h.8c.56 0 .84 0 1.054.109a1 1 0 0 1 .437.437C10 5.76 10 6.04 10 6.6v10.8c0 .56 0 .84-.109 1.054a1 1 0 0 1-.437.437C9.24 19 8.96 19 8.4 19h-.8c-.56 0-.84 0-1.054-.109a1 1 0 0 1-.437-.437C6 18.24 6 17.96 6 17.4V6.6Zm8 0c0-.56 0-.84.109-1.054a1 1 0 0 1 .437-.437C14.76 5 15.04 5 15.6 5h.8c.56 0 .84 0 1.054.109a1 1 0 0 1 .437.437C18 5.76 18 6.04 18 6.6v10.8c0 .56 0 .84-.109 1.054a1 1 0 0 1-.437.437C17.24 19 16.96 19 16.4 19h-.8c-.56 0-.84 0-1.054-.109a1 1 0 0 1-.437-.437C14 18.24 14 17.96 14 17.4V6.6Z"/></svg>
