<svg xmlns="http://www.w3.org/2000/svg" width="24" height="24" fill="currentColor" viewBox="0 0 24 24"><path fill-rule="evenodd" d="M5.4 3A2.4 2.4 0 0 0 3 5.4v13.2A2.4 2.4 0 0 0 5.4 21h3.2a2.4 2.4 0 0 0 2.4-2.4V5.4A2.4 2.4 0 0 0 8.6 3H5.4Zm-.6 2.4a.6.6 0 0 1 .6-.6h3.2a.6.6 0 0 1 .6.6v13.2a.6.6 0 0 1-.6.6H5.4a.6.6 0 0 1-.6-.6V5.4ZM15.4 3A2.4 2.4 0 0 0 13 5.4v13.2a2.4 2.4 0 0 0 2.4 2.4h3.2a2.4 2.4 0 0 0 2.4-2.4V5.4A2.4 2.4 0 0 0 18.6 3h-3.2Zm-.6 2.4a.6.6 0 0 1 .6-.6h3.2a.6.6 0 0 1 .6.6v13.2a.6.6 0 0 1-.6.6h-3.2a.6.6 0 0 1-.6-.6V5.4Z" clip-rule="evenodd"/></svg>
