<svg xmlns="http://www.w3.org/2000/svg" width="24" height="24" fill="currentColor" viewBox="0 0 24 24"><path fill-rule="evenodd" d="M8.462 4h7.077c.948 0 1.714 0 2.334.05.64.053 1.203.163 1.725.43a4.4 4.4 0 0 1 1.923 1.922c.422.828.467 1.807.477 3.09l.002.173v.283a.9.9 0 0 1-1.8 0V9.9H3.802v3.6c0 .995 0 1.687.045 2.225.043.528.123.829.238 1.055a2.6 2.6 0 0 0 1.137 1.136c.226.116.526.196 1.054.24.539.043 1.23.044 2.226.044h2.09a.9.9 0 1 1 0 1.8H8.461c-.947 0-1.713 0-2.333-.05-.64-.053-1.203-.164-1.726-.43a4.4 4.4 0 0 1-1.923-1.923c-.266-.522-.376-1.086-.428-1.725C2 15.252 2 14.486 2 13.538v-3.077c0-.947 0-1.713.05-2.333.053-.64.163-1.203.43-1.726A4.4 4.4 0 0 1 4.402 4.48c.523-.266 1.087-.376 1.726-.429C6.749 4 7.515 4 8.462 4Zm-4.6 4.1H20.14c-.044-.41-.114-.668-.223-.88a2.6 2.6 0 0 0-1.136-1.137c-.226-.115-.527-.195-1.055-.239-.538-.044-1.23-.044-2.225-.044h-7c-.995 0-1.687 0-2.226.044-.528.044-.828.124-1.054.24a2.6 2.6 0 0 0-1.137 1.135c-.102.2-.176.459-.222.881Z M6 14.8c0-.28 0-.42.054-.527a.5.5 0 0 1 .219-.218C6.38 14 6.52 14 6.8 14h.4c.28 0 .42 0 .527.055a.5.5 0 0 1 .218.218C8 14.38 8 14.52 8 14.8v.4c0 .28 0 .42-.054.527a.5.5 0 0 1-.219.218C7.62 16 7.48 16 7.2 16h-.4c-.28 0-.42 0-.527-.055a.5.5 0 0 1-.218-.218C6 15.62 6 15.48 6 15.2v-.4Z M23 17a5 5 0 1 0-10 0 5 5 0 0 0 10 0Zm-4.1-2.1a.9.9 0 1 0-1.8 0V17a.9.9 0 0 0 .566.836c.312.125.607.232.874.329l.042.015a71.39 71.39 0 0 1 1.248.486.9.9 0 0 0 .669-1.671 76.108 76.108 0 0 0-1.295-.504l-.05-.018c-.085-.03-.17-.061-.254-.093V14.9Z" clip-rule="evenodd"/></svg>
