<svg xmlns="http://www.w3.org/2000/svg" width="24" height="24" viewBox="0 0 24 24" fill="currentColor"><path fill-rule="evenodd" d="M15.84 20.395H8.16l-1.335-.006c-1.073-.017-1.76-.08-2.312-.317l-.147-.07a3.6 3.6 0 0 1-1.435-1.325l-.138-.248c-.295-.578-.369-1.289-.387-2.46L2.4 14.636V11.76c0-1.89 0-2.894.323-3.646l.07-.148a3.6 3.6 0 0 1 1.325-1.434l.248-.14C5.136 6 6.144 6 8.16 6h7.68l1.335.006c1.17.019 1.882.093 2.46.387a3.6 3.6 0 0 1 1.572 1.573c.393.77.393 1.778.393 3.794v2.876l-.006 1.335c-.018 1.17-.092 1.881-.387 2.459l-.138.248a3.6 3.6 0 0 1-1.435 1.325l-.147.07c-.552.236-1.24.3-2.312.317zm0-1.8H8.16c-1.038 0-1.708-.002-2.218-.044-.488-.04-.67-.107-.759-.152a1.8 1.8 0 0 1-.787-.788c-.045-.088-.113-.27-.153-.758-.042-.51-.043-1.18-.043-2.218v-2.876c0-1.038.001-1.708.043-2.218.04-.488.108-.67.153-.758a1.8 1.8 0 0 1 .787-.788c.09-.045.27-.113.759-.153.51-.042 1.18-.043 2.218-.043h7.68c1.038 0 1.708.001 2.218.043.489.04.67.108.759.153.338.173.614.449.787.788.045.089.112.27.152.758.042.51.044 1.18.044 2.218v2.876c0 1.037-.002 1.708-.044 2.218-.04.488-.107.67-.152.758a1.8 1.8 0 0 1-.787.788c-.09.045-.27.112-.759.152-.51.042-1.18.044-2.218.044" clip-rule="evenodd"/><path d="m7.852 16.812.593-1.038a6 6 0 0 1 .945-1.238l2.87-2.87a.9.9 0 1 1 1.274 1.272l-2.87 2.87a6 6 0 0 1-1.24.947l-1.036.592a.393.393 0 0 1-.536-.536M15.9 10.35a1.05 1.05 0 1 1-2.1 0 1.05 1.05 0 0 1 2.1 0M9 2.4h6a1.8 1.8 0 0 1 1.8 1.8H7.2A1.8 1.8 0 0 1 9 2.4"/></svg>