<svg xmlns="http://www.w3.org/2000/svg" width="24" height="24" fill="currentColor" viewBox="0 0 24 24"><path fill-rule="evenodd" d="M4.495 4.121c-2.92 3.214-1.36 8.186 2.928 12.494 4.198 4.217 9.394 5.794 12.47 2.933 1.681-1.566 1.433-4.338-.645-6.19-1.88-1.597-4.832-1.873-6.714-.106-.446-.376-.845-.798-1.244-1.221a36.062 36.062 0 0 0-.51-.533c1.626-1.706 1.621-4.675-.055-6.679-1.885-2.252-4.744-2.332-6.23-.698Zm4.851 1.852c1.059 1.265 1.2 3.281-.05 4.46l-.086.076c-.593.524-1.052.93 1.118 3.137 2.23 2.268 2.687 1.752 3.232 1.137.054-.062.11-.125.168-.186 1.005-1.01 2.972-1.102 4.324.103 1.495 1.333 1.333 2.864.616 3.532-2.219 2.064-6.468.634-9.97-2.885C5.193 11.828 3.64 7.735 5.824 5.331c.508-.559 2.099-1.057 3.521.642ZM16.727 6l-1.463-1.464a.9.9 0 0 1 1.272-1.272L18 4.727l1.464-1.463a.9.9 0 0 1 1.273 1.272L19.273 6l1.464 1.464a.9.9 0 1 1-1.273 1.273L18 7.273l-1.464 1.463a.9.9 0 0 1-1.272-1.272L16.727 6Z" clip-rule="evenodd"/></svg>
