<svg xmlns="http://www.w3.org/2000/svg" width="24" height="24" fill="currentColor" viewBox="0 0 24 24"><path d="M15.264 2.264a.9.9 0 0 1 1.272 0L18.5 4.227l1.964-1.963a.9.9 0 1 1 1.272 1.272L19.773 5.5l1.963 1.964a.9.9 0 1 1-1.272 1.272L18.5 6.773l-1.964 1.963a.9.9 0 0 1-1.272-1.272L17.227 5.5l-1.963-1.964a.9.9 0 0 1 0-1.272Zm-1.152 12.995c1.354-1.354 3.486-1.48 4.903-.287l1.024.863c1.17.983 1.288 2.757.264 3.96a3.318 3.318 0 0 1-2.195 1.133c-3.273.44-6.707-1.137-10.303-4.733C4.21 12.6 2.631 9.165 3.072 5.892a3.25 3.25 0 0 1 .159-.752c.19-.56.527-1.058.974-1.443 1.204-1.024 2.976-.906 3.96.264l.862 1.024c1.194 1.416 1.07 3.55-.284 4.903l-.736.735a.712.712 0 0 0-.164.748c.267.732.95 1.645 2.046 2.74 1.096 1.098 2.01 1.78 2.74 2.047.26.096.553.031.749-.165l.734-.734Z"/></svg>
