<svg fill="none" height="24" viewBox="0 0 24 24" width="24" xmlns="http://www.w3.org/2000/svg"><g fill="currentColor"><path d="m14.1117 15.259c1.3541-1.3543 3.486-1.4791 4.9035-.2873l1.0243.8629c1.169.9837 1.2878 2.7571.2635 3.9598-.5586.6463-1.3449 1.0522-2.1952 1.1334-3.273.4408-6.7065-1.1364-10.30242-4.7326-3.59595-3.5963-5.17401-7.03101-4.73319-10.30329.02291-.25604.07612-.50845.1585-.75195.19063-.55936.52714-1.05767.97477-1.44345 1.20361-1.02339 2.97583-.9055 3.95951.26452l.86184 1.02438c1.19369 1.41572 1.06989 3.54869-.2843 4.90298l-.73505.73411c-.19597.1963-.26013.4886-.16444.749.26747.7311.95001 1.6445 2.04563 2.7402 1.09665 1.0968 2.00995 1.7784 2.74005 2.0468.2606.0955.5528.0309.7489-.1654z"/><path d="m17 3c0-.55229-.4477-1-1-1s-1 .44772-1 1v5.65685c0 .55229.4477 1 1 1l5.6569.00001c.5522-.00001 1-.44772 1-1.00001 0-.55228-.4478-1-1-1l-3.2428.00016 3.9499-3.9499c.3905-.39053.3905-1.02369 0-1.41422l-.0873-.0777c-.3925-.31083-.9643-.28493-1.327.0777l-3.9499 3.9499z"/></g></svg>
