<svg xmlns="http://www.w3.org/2000/svg" width="24" height="24" fill="none" viewBox="0 0 24 24">
  <path fill="currentColor" d="M4.495 4.123c-2.92 3.213-1.36 8.186 2.928 12.494 4.198 4.217 9.394 5.794 12.47 2.932 1.681-1.565 1.433-4.337-.645-6.19l-.19-.16c-1.928-1.562-4.727-1.567-6.436-.028l-.088.082-.05-.041c-.187-.16-.43-.381-.723-.673l-.297-.302-.306-.326c-.092-.1-.174-.193-.246-.277l-.124-.146-.07.075c1.688-1.695 1.704-4.714.007-6.742C8.84 2.57 5.98 2.49 4.495 4.123Zm4.851 1.852c1.18 1.409 1.047 3.367.099 4.32l-.148.14c-.63.565-1.244.899 1.031 3.213 2.455 2.496 2.76 1.62 3.4.95 1.005-1.008 2.972-1.102 4.324.104 1.495 1.332 1.333 2.864.616 3.531-2.219 2.065-6.468.635-9.97-2.884-3.504-3.52-5.058-7.612-2.873-10.017.508-.558 2.099-1.057 3.521.643Z"/>
  <path fill="#A3ADB8" d="M17.117 1.795A.893.893 0 0 1 18 1c.49 0 .889.403.889.9v7.2l-.006.105A.893.893 0 0 1 18 10a.895.895 0 0 1-.889-.9V1.9l.006-.105ZM14.006 3.795A.893.893 0 0 1 14.889 3c.49 0 .889.403.889.9v3.2l-.006.105a.893.893 0 0 1-.883.795.895.895 0 0 1-.889-.9V3.9l.006-.105ZM20.228 3.795A.893.893 0 0 1 21.111 3c.491 0 .889.403.889.9v3.2l-.006.105a.893.893 0 0 1-.883.795.895.895 0 0 1-.889-.9V3.9l.006-.105Z"/>
</svg>
