<svg xmlns="http://www.w3.org/2000/svg" width="24" height="24" viewBox="0 0 24 24" fill="currentColor"><path d="M4.495 4.123c-2.92 3.213-1.36 8.186 2.928 12.494 4.198 4.217 9.394 5.794 12.47 2.932 1.681-1.565 1.433-4.337-.645-6.19l-.19-.16c-1.928-1.562-4.727-1.567-6.436-.028l-.088.082-.05-.041a13 13 0 0 1-.723-.673l-.297-.302-.306-.326q-.138-.15-.246-.277l-.124-.146-.07.075c1.688-1.695 1.704-4.714.007-6.742C8.84 2.57 5.98 2.49 4.495 4.123m4.851 1.852c1.18 1.409 1.047 3.367.099 4.32l-.148.14c-.63.565-1.244.899 1.031 3.213 2.455 2.496 2.76 1.62 3.4.95 1.005-1.008 2.972-1.102 4.324.104 1.495 1.332 1.333 2.864.616 3.531-2.219 2.065-6.468.635-9.97-2.884-3.504-3.52-5.058-7.612-2.873-10.017.508-.558 2.099-1.057 3.521.643"/></svg>