<svg xmlns="http://www.w3.org/2000/svg" width="24" height="24" fill="currentColor" viewBox="0 0 24 24"><path fill-rule="evenodd" d="M6.1 11.5a1.4 1.4 0 1 1 2.8 0 1.4 1.4 0 0 1-2.8 0Z" clip-rule="evenodd"/><path d="M7 3.9a1.8 1.8 0 0 1 1.8-1.8h6.4A1.8 1.8 0 0 1 17 3.9H7Z"/><path fill-rule="evenodd" d="M7.762 6.1h8.476c.808 0 1.469 0 2.006.044.556.045 1.058.142 1.527.381a3.9 3.9 0 0 1 1.704 1.704c.239.47.336.971.381 1.527.044.537.044 1.198.044 2.006v3.476c0 .808 0 1.469-.044 2.006-.045.556-.142 1.058-.381 1.527a3.9 3.9 0 0 1-1.704 1.704c-.47.239-.971.336-1.527.381-.537.044-1.198.044-2.006.044H7.762c-.808 0-1.469 0-2.006-.044-.556-.045-1.058-.142-1.527-.381a3.9 3.9 0 0 1-1.704-1.704c-.239-.47-.336-.971-.381-1.527-.044-.537-.044-1.198-.044-2.006v-3.476c0-.808 0-1.469.044-2.006.045-.556.142-1.058.381-1.527A3.9 3.9 0 0 1 4.23 6.525c.47-.239.971-.336 1.527-.381C6.293 6.1 6.954 6.1 7.762 6.1Zm3.873 11.393a4.9 4.9 0 0 0 .298.236 1.4 1.4 0 0 0 .502.234c.288.066.59.04.863-.077a1.41 1.41 0 0 0 .452-.32c.085-.086.174-.192.251-.285l3.533-4.236 2.566 2.001.001.4c.003.55.006 1.103-.039 1.651-.036.445-.103.683-.19.856a2.1 2.1 0 0 1-.919.918c-.172.088-.411.155-.856.191-.455.037-1.042.038-1.897.038H7.8c-.463 0-.848 0-1.175-.006l3.155-3.156 1.855 1.555Zm6.615-6.16c.099.065.205.148.297.22l1.553 1.21V11.8c0-.855 0-1.442-.038-1.897-.036-.445-.103-.684-.19-.856a2.1 2.1 0 0 0-.919-.918c-.172-.088-.411-.155-.856-.191C17.642 7.9 17.055 7.9 16.2 7.9H7.8c-.855 0-1.442 0-1.897.038-.445.036-.683.103-.856.19a2.1 2.1 0 0 0-.918.919c-.088.172-.155.411-.191.856-.037.455-.038 1.042-.038 1.897v3.4c0 .855 0 1.442.038 1.897.036.445.103.683.19.856.12.235.282.443.476.616l3.983-3.983c.078-.078.169-.17.256-.244a1.404 1.404 0 0 1 1.73-.076c.093.066.192.15.277.22l1.847 1.548 3.53-4.232c.075-.09.16-.194.244-.278.096-.098.238-.225.44-.314a1.4 1.4 0 0 1 .842-.09c.216.044.382.138.497.213ZM7.5 10.1a1.4 1.4 0 1 0 0 2.8 1.4 1.4 0 0 0 0-2.8Z" clip-rule="evenodd"/></svg>
