<svg xmlns="http://www.w3.org/2000/svg" width="24" height="24" viewBox="0 0 24 24" fill="currentColor"><path d="M14.32 16.927a.428.428 0 0 1-.36.672H6.837a.428.428 0 0 1-.337-.7l1.69-2.019 1.561 1.862 2.22-3.143z"/><path fill-rule="evenodd" d="M11.299 6.2c.965 0 1.743 0 2.372.051.639.052 1.203.163 1.726.429a4.4 4.4 0 0 1 1.922 1.924c.266.522.377 1.085.429 1.724.051.629.05 1.407.05 2.372v1.801c0 .965.001 1.743-.05 2.372-.052.639-.163 1.203-.429 1.726a4.4 4.4 0 0 1-1.922 1.922c-.523.267-1.087.377-1.726.43-.629.05-1.407.05-2.372.05H9.498c-.965 0-1.743 0-2.372-.05-.639-.053-1.203-.164-1.725-.43A4.4 4.4 0 0 1 3.478 18.6c-.267-.523-.377-1.087-.43-1.726-.05-.629-.05-1.407-.05-2.372v-1.8c0-.966 0-1.744.05-2.373.053-.639.164-1.202.43-1.724A4.4 4.4 0 0 1 5.4 6.68c.522-.266 1.086-.377 1.725-.429.629-.051 1.407-.05 2.372-.05zM9.498 8.001c-.995 0-1.687 0-2.226.044-.527.043-.828.124-1.054.24A2.6 2.6 0 0 0 5.082 9.42c-.115.226-.196.527-.24 1.055-.043.538-.043 1.23-.043 2.225v1.801c0 .994 0 1.687.044 2.226.043.527.124.828.239 1.054.25.489.647.887 1.136 1.136.226.115.527.196 1.054.24.539.043 1.231.043 2.226.043h1.8c.995 0 1.688 0 2.226-.044.528-.043.829-.124 1.055-.239.489-.25.887-.647 1.136-1.136.115-.226.196-.527.24-1.054.043-.539.043-1.232.043-2.226v-1.8c0-.995 0-1.688-.044-2.226-.043-.528-.124-.829-.24-1.055a2.6 2.6 0 0 0-1.135-1.136c-.226-.115-.527-.196-1.055-.24-.538-.043-1.23-.043-2.225-.043z" clip-rule="evenodd"/><path d="M14.5 3c.965 0 1.743 0 2.372.05.64.053 1.203.163 1.726.43a4.4 4.4 0 0 1 1.922 1.923c.266.522.377 1.086.43 1.725.05.629.05 1.407.05 2.372v1.805c0 .965 0 1.743-.05 2.372-.053.639-.163 1.203-.43 1.725a4.4 4.4 0 0 1-1.318 1.55v-5.554l-.002-.093V9.5c0-.995 0-1.687-.045-2.226-.043-.527-.123-.828-.238-1.054a2.6 2.6 0 0 0-1.137-1.136c-.226-.115-.527-.196-1.054-.24-.539-.043-1.231-.043-2.226-.043h-1.847l-.05-.001H7.057a4.4 4.4 0 0 1 1.551-1.32c.522-.266 1.086-.377 1.725-.43C10.961 3 11.739 3 12.704 3z"/></svg>