<svg xmlns="http://www.w3.org/2000/svg" width="24" height="24" fill="currentColor" viewBox="0 0 24 24"><path d="m5.944 3.683.092.08 14.2 14.2a.9.9 0 0 1-1.18 1.354l-.092-.08-3.716-3.716-.259 3.366a1.206 1.206 0 0 1-2.055.76L9.28 15.994l-4.744 4.744a.9.9 0 0 1-1.353-1.18l.08-.093 4.744-4.744-3.654-3.653a1.206 1.206 0 0 1-.088-1.608l.088-.098c.204-.203.473-.327.76-.35l3.366-.259-3.715-3.716a.9.9 0 0 1 1.18-1.353Zm4.182 6.716a2.2 2.2 0 0 1-.363.06l-3.224.248 6.754 6.754.248-3.223c.01-.124.03-.245.06-.364L10.126 10.4Zm4.46-7.213.088.077 6.064 6.06a.9.9 0 0 1-.35 1.49l-.114.03-1.83.356-.053.027-.532.535a.9.9 0 0 1-1.356-1.179l.08-.092.534-.535a1.9 1.9 0 0 1 .845-.492l.305-.064-3.674-3.672-.03.15a1.9 1.9 0 0 1-.416.891l-.113.124-.529.524a.9.9 0 0 1-1.348-1.186l.08-.092.526-.522.008-.012.023-.058.36-1.82a.9.9 0 0 1 1.431-.54Z"/></svg>
