<svg xmlns="http://www.w3.org/2000/svg" width="24" height="24" fill="currentColor" viewBox="0 0 24 24"><path fill-rule="evenodd" d="M14.677 3.264a.9.9 0 0 0-1.519.46l-.36 1.8a.324.324 0 0 1-.088.166L9.83 8.57a.324.324 0 0 1-.205.095l-4.511.347a1.206 1.206 0 0 0-.76.35l-.089.097a1.206 1.206 0 0 0 .088 1.608l3.654 3.653-4.743 4.744-.08.093a.9.9 0 0 0 1.352 1.18l4.744-4.744 3.654 3.655a1.206 1.206 0 0 0 2.055-.76l.347-4.512a.324.324 0 0 1 .094-.205l2.88-2.88a.325.325 0 0 1 .166-.088l1.8-.36a.9.9 0 0 0 .46-1.52l-6.059-6.059Zm-.114 2.614.03-.152 3.681 3.68-.151.032a2.124 2.124 0 0 0-1.085.58l-2.88 2.88-.128.14a2.124 2.124 0 0 0-.489 1.2l-.248 3.223-6.754-6.754 3.224-.248c.506-.039.98-.257 1.34-.616l2.88-2.88c.296-.296.498-.674.58-1.085ZM10 4.5a1.5 1.5 0 1 1-3 0 1.5 1.5 0 0 1 3 0Z" clip-rule="evenodd"/></svg>
