<svg xmlns="http://www.w3.org/2000/svg" width="24" height="24" fill="currentColor" viewBox="0 0 24 24"><path fill-rule="evenodd" d="M8.98 21.86a2.418 2.418 0 0 0 1.599-2.58l-.162-1.312c.311-.218.632-.457.96-.713l1.831 2.633a2.625 2.625 0 0 0 4.733-1.992l-1.104-5.764 1.461-1.46c.986-.986 1.784-2.088 2.246-3.126.228-.514.414-1.102.443-1.707.029-.605-.1-1.428-.75-2.077-.649-.65-1.471-.779-2.077-.75-.605.029-1.193.215-1.707.444-1.035.46-2.132 1.254-3.115 2.236l-.01.01L11.87 7.16 6.105 6.052a2.627 2.627 0 0 0-1.996 4.736l2.636 1.834c-.256.328-.496.65-.715.962l-1.31-.162a2.418 2.418 0 0 0-1.594 4.441l1.842 1.17 1.17 1.841a2.418 2.418 0 0 0 2.841.986Zm-1.323-1.951-.812-1.277c-.214-.337-.32-.505-.448-.657a2.996 2.996 0 0 0-.371-.371c-.152-.127-.32-.235-.657-.449l-1.277-.811a.618.618 0 0 1 .407-1.136l1.906.236c.187.023.28.034.363.017a.483.483 0 0 0 .2-.093c.067-.052.122-.135.23-.302.288-.438.633-.914 1.027-1.414.18-.23.372-.463.572-.702.207-.244.31-.367.335-.492a.492.492 0 0 0-.042-.323c-.057-.114-.186-.204-.442-.382L5.138 9.31a.827.827 0 0 1 .627-1.49l6.286 1.207c.152.03.229.044.302.037a.5.5 0 0 0 .185-.057c.065-.035.12-.09.23-.2L14.6 6.974c1.74-1.74 3.694-2.61 4.364-1.94.67.67-.199 2.624-1.94 4.365l-.022.022-1.813 1.813c-.11.11-.165.164-.2.23a.502.502 0 0 0-.056.184c-.008.074.007.15.036.302l1.203 6.284a.825.825 0 0 1-1.487.626l-2.44-3.508c-.178-.256-.268-.385-.382-.442a.491.491 0 0 0-.323-.043c-.125.026-.248.13-.492.335-.239.201-.473.392-.702.572-.5.394-.975.739-1.413 1.026-.166.109-.25.163-.301.23a.483.483 0 0 0-.093.2c-.018.083-.006.177.017.364l.236 1.907a.618.618 0 0 1-1.136.408Z" clip-rule="evenodd"/></svg>
