<svg xmlns="http://www.w3.org/2000/svg" width="24" height="24" fill="none" viewBox="0 0 24 24"><path fill="currentColor" fill-rule="evenodd" d="m21.6164 16.4953-.0126.069c-.156.8527-.2821 1.5419-.4264 2.0941-.1486.5686-.3332 1.0621-.6412 1.5004a4.3976 4.3976 0 0 1-2.5066 1.7315c-.5188.133-1.0457.1309-1.63.0686-.5674-.0605-1.2565-.1865-2.1091-.3426L9.95 20.8222c-.8525-.156-1.5416-.2821-2.0937-.4265-.5685-.1487-1.062-.3333-1.5002-.6413a4.3983 4.3983 0 0 1-1.7312-2.507c-.133-.5189-.1309-1.0458-.0686-1.6302.0604-.5675.1865-1.2567.3425-2.1094l.0126-.0692c.156-.8527.282-1.5419.4264-2.0941.1486-.5685.3333-1.0621.6412-1.5003a4.3974 4.3974 0 0 1 2.5066-1.7316c.5189-.1329 1.0457-.1308 1.63-.0686.5674.0605 1.2565.1866 2.1091.3426l4.3404.7942c.8526.156 1.5417.282 2.0938.4265.5685.1486 1.062.3332 1.5002.6413a4.398 4.398 0 0 1 1.7313 2.5069c.1329.519.1308 1.0459.0685 1.6303-.0604.5675-.1865 1.2567-.3425 2.1095Zm-1.4463-2.3002c.0515-.4834.035-.769-.0224-.9931a2.5989 2.5989 0 0 0-1.023-1.4814c-.1893-.1331-.4506-.2497-.9208-.3727-.4792-.1253-1.1018-.2398-1.997-.4036l-4.2714-.7815c-.8952-.1638-1.518-.2772-2.0105-.3297-.4833-.0515-.769-.035-.993.0225a2.5983 2.5983 0 0 0-1.4812 1.0232c-.133.1893-.2496.4505-.3726.9209-.1252.4792-.2397 1.1019-.4035 1.9973-.1638.8953-.2771 1.5182-.3296 2.0108-.0515.4834-.035.769.0224.9932a2.599 2.599 0 0 0 1.023 1.4814c.1893.133.4506.2496.9208.3726.4792.1253 1.1018.2398 1.997.4036l4.2714.7816c.8952.1638 1.518.2772 2.0105.3296.4833.0516.7689.035.993-.0224a2.5982 2.5982 0 0 0 1.4812-1.0232c.133-.1893.2496-.4506.3726-.9209.1253-.4793.2398-1.102.4035-1.9973.1638-.8954.2771-1.5183.3296-2.0109Z M18.187 7.4875a.8995.8995 0 0 1-1.0445-.726c-.1452-.8075-.1995-1.0865-.2802-1.2964a2.5985 2.5985 0 0 0-2.3579-1.6655c-.2247-.0058-.5057.0363-1.3151.1694l-5.8466.9616c-1.366.2246-1.8333.3132-2.1736.4921a2.5989 2.5989 0 0 0-1.3317 1.7575c-.0802.376-.039.85.114 2.226l.011.0989a.8995.8995 0 1 1-1.7879.199l-.0104-.0932a350.7124 350.7124 0 0 0-.019-.1701c-.128-1.1464-.2162-1.9369-.067-2.6363a4.398 4.398 0 0 1 2.2537-2.9742c.6329-.3329 1.4177-.4616 2.5557-.6483l.1633-.0268 5.8466-.9615.0973-.016c.6747-.1112 1.1383-.1876 1.5565-.1767a4.3975 4.3975 0 0 1 3.9903 2.8186c.1501.3906.2332.853.3541 1.5262l.0174.097a.8996.8996 0 0 1-.726 1.0447Z M12.7236 12.4141a.4152.4152 0 0 0-.2124-.1037c-.2253-.038-.4391.1119-.4775.3348l-.7194 4.179a.405.405 0 0 0 .0243.2222c.0857.2095.327.3107.539.2259l3.6694-1.4677a.4148.4148 0 0 0 .148-.1008.4061.4061 0 0 0-.0214-.5785l-2.95-2.7112Z"/></svg>
