<svg width="24" height="24" viewBox="0 0 24 24" fill="none" xmlns="http://www.w3.org/2000/svg">
<path d="M12 5C12.9205 5 13.7829 5.24873 14.5236 5.68265C15.2643 6.11656 15.8834 6.73566 16.3174 7.4764C16.7513 8.21714 17 9.07953 17 10V16C17 16.9205 16.7513 17.7829 16.3174 18.5236C15.8834 19.2643 15.2643 19.8834 14.5236 20.3174C14.0585 20.5898 13.5455 20.7892 13.0003 20.8999L13 22.1C13 22.5971 12.5971 23 12.1 23H11.9C11.4029 23 11 22.5971 11 22.1L10.9987 20.8997C10.4538 20.789 9.94118 20.5896 9.4764 20.3174C8.73566 19.8834 8.11656 19.2643 7.68265 18.5236C7.24873 17.7829 7 16.9205 7 16V10C7 9.07953 7.24873 8.21714 7.68265 7.4764C8.11656 6.73566 8.73566 6.11656 9.4764 5.68265C10.2171 5.24873 11.0795 5 12 5ZM12 6.75C11.4135 6.75 10.8537 6.90398 10.3609 7.19265C9.87881 7.47507 9.47507 7.87881 9.19265 8.36094C8.90398 8.85371 8.75 9.41352 8.75 10H10.5061C10.7155 10 10.8929 10.0418 11.0396 10.1202C11.1862 10.1986 11.3014 10.3138 11.3798 10.4604C11.4582 10.6071 11.5 10.7845 11.5 10.9939V11.0061C11.5 11.2155 11.4582 11.3929 11.3798 11.5396C11.3014 11.6862 11.1862 11.8014 11.0396 11.8798C10.8929 11.9582 10.7155 12 10.5061 12H8.75V14H10.5061C10.7155 14 10.8929 14.0418 11.0396 14.1202C11.1862 14.1986 11.3014 14.3138 11.3798 14.4604C11.4582 14.6071 11.5 14.7845 11.5 14.9939V15.0061C11.5 15.2155 11.4582 15.3929 11.3798 15.5396C11.3014 15.6862 11.1862 15.8014 11.0396 15.8798C10.8929 15.9582 10.7155 16 10.5061 16H8.75L8.75718 16.2186C8.7906 16.7254 8.94007 17.2079 9.19265 17.6391C9.47507 18.1212 9.87881 18.5249 10.3609 18.8074C10.8537 19.096 11.4135 19.25 12 19.25C12.5865 19.25 13.1463 19.096 13.6391 18.8074C14.1212 18.5249 14.5249 18.1212 14.8074 17.6391C15.0959 17.1466 15.2498 16.5871 15.25 16.001L14.7439 16C14.5345 16 14.3571 15.9582 14.2104 15.8798C14.0638 15.8014 13.9486 15.6862 13.8702 15.5396C13.7918 15.3929 13.75 15.2155 13.75 15.0061V14.9939C13.75 14.7845 13.7918 14.6071 13.8702 14.4604C13.9486 14.3138 14.0638 14.1986 14.2104 14.1202C14.3571 14.0418 14.5345 14 14.7439 14H15.25V11.999L14.7439 12C14.5345 12 14.3571 11.9582 14.2104 11.8798C14.0638 11.8014 13.9486 11.6862 13.8702 11.5396C13.7918 11.3929 13.75 11.2155 13.75 11.0061V10.9939C13.75 10.7845 13.7918 10.6071 13.8702 10.4604C13.9486 10.3138 14.0638 10.1986 14.2104 10.1202C14.3571 10.0418 14.5345 10 14.7439 10L15.25 9.999L15.2428 9.7814C15.2094 9.27461 15.0599 8.79212 14.8074 8.36094C14.5249 7.87881 14.1212 7.47507 13.6391 7.19265C13.1463 6.90398 12.5865 6.75 12 6.75ZM12 0.5C17.0287 0.5 21.1449 4.40721 21.4782 9.35141C21.7475 9.55469 21.9589 9.8355 22.0762 10.1688C22.3587 10.9713 22.5 11.915 22.5 13C22.5 14.085 22.3587 15.0287 22.0762 15.8312C21.8296 16.5315 21.168 17 20.4255 17H20C19.1716 17 18.5 16.3284 18.5 15.5V10.5C18.5 9.77762 19.0106 9.17452 19.6906 9.03193C19.2148 5.20959 15.953 2.25 12 2.25C8.04698 2.25 4.78521 5.20959 4.30964 9.03383C4.98938 9.17453 5.5 9.77763 5.5 10.5V15.5C5.5 16.3284 4.82843 17 4 17H3.57449C2.83202 17 2.17036 16.5315 1.92379 15.8312C1.64126 15.0287 1.5 14.085 1.5 13C1.5 11.915 1.64126 10.9713 1.92379 10.1688C2.04115 9.83551 2.25252 9.55471 2.52189 9.35194C2.85515 4.40721 6.97128 0.5 12 0.5Z" fill="currentColor"/>
</svg>
