<svg xmlns="http://www.w3.org/2000/svg" width="24" height="24" viewBox="0 0 24 24" fill="currentColor"><path d="M12 6.375a4.5 4.5 0 0 1 4.5 4.5v3.375a4.5 4.5 0 0 1-3.656 4.42v1.486a.844.844 0 0 1-1.688 0v-1.485A4.5 4.5 0 0 1 7.5 14.25v-3.375a4.5 4.5 0 0 1 4.5-4.5m0 1.688a2.813 2.813 0 0 0-2.812 2.812v3.375a2.813 2.813 0 0 0 5.064 1.685l-.146.002h-1.6a.844.844 0 0 1 0-1.687h2.307v-1.687h-2.307a.844.844 0 0 1 0-1.688h2.307A2.813 2.813 0 0 0 12 8.063M12 3a7.88 7.88 0 0 1 7.805 6.823A1.69 1.69 0 0 1 21 11.437v3.376a1.687 1.687 0 1 1-3.375 0v-3.376c0-.481.202-.916.526-1.224a6.186 6.186 0 0 0-5.902-5.52L12 4.687a6.19 6.19 0 0 0-6.153 5.526c.326.307.528.742.528 1.223v3.376a1.687 1.687 0 1 1-3.375 0v-3.376c0-.76.503-1.403 1.194-1.614A7.88 7.88 0 0 1 12 3"/></svg>