<svg width="24" height="24" viewBox="0 0 24 24" fill="none" xmlns="http://www.w3.org/2000/svg">
<path fill-rule="evenodd" clip-rule="evenodd" d="M7.6 2H16.4C16.9601 2 17.2401 2 17.454 2.10899C17.6422 2.20487 17.7951 2.35785 17.891 2.54601C18 2.75992 18 3.03995 18 3.6V4.00156C17.7664 3.99997 17.5234 3.99998 17.2723 4L17.2 4H6.8L6.72782 4C6.4767 3.99998 6.23356 3.99997 6 4.00156V3.6C6 3.03995 6 2.75992 6.10899 2.54601C6.20487 2.35785 6.35785 2.20487 6.54601 2.10899C6.75992 2 7.03995 2 7.6 2ZM2 10.8C2 9.11984 2 8.27976 2.32698 7.63803C2.6146 7.07354 3.07354 6.6146 3.63803 6.32698C4.27976 6 5.11984 6 6.8 6H17.2C18.8802 6 19.7202 6 20.362 6.32698C20.9265 6.6146 21.3854 7.07354 21.673 7.63803C22 8.27976 22 9.11984 22 10.8V13.2C22 14.8802 22 15.7202 21.673 16.362C21.3854 16.9265 20.9265 17.3854 20.362 17.673C20.2487 17.7307 20.1292 17.7783 20 17.8174V15C20 13.8954 19.1046 13 18 13H6C4.89543 13 4 13.8954 4 15V17.8174C3.87081 17.7783 3.75133 17.7307 3.63803 17.673C3.07354 17.3854 2.6146 16.9265 2.32698 16.362C2 15.7202 2 14.8802 2 13.2V10.8ZM6 17.9983V17V15H8H16H18V17V17.9983V20.4C18 20.9601 18 21.2401 17.891 21.454C17.7951 21.6422 17.6422 21.7951 17.454 21.891C17.2401 22 16.9601 22 16.4 22H7.6C7.03995 22 6.75992 22 6.54601 21.891C6.35785 21.7951 6.20487 21.6422 6.10899 21.454C6 21.2401 6 20.9601 6 20.4V17.9983ZM18.8502 10.3C19.4853 10.3 20.0002 9.78513 20.0002 9.15C20.0002 8.51487 19.4853 8 18.8502 8C18.2151 8 17.7002 8.51487 17.7002 9.15C17.7002 9.78513 18.2151 10.3 18.8502 10.3Z" fill="currentColor"/>
</svg>
