<svg xmlns="http://www.w3.org/2000/svg" width="24" height="24" viewBox="0 0 24 24" fill="currentColor"><path fill-rule="evenodd" d="M11.2 3.1h-.035c-.53 0-.981 0-1.352.03-.39.032-.768.102-1.13.286a2.9 2.9 0 0 0-1.267 1.267c-.184.362-.254.74-.286 1.13-.029.355-.03.785-.03 1.287-.502 0-.932.001-1.287.03-.39.032-.768.102-1.13.286a2.9 2.9 0 0 0-1.267 1.267c-.184.362-.254.74-.286 1.13-.03.37-.03.822-.03 1.352v1.67c0 .53 0 .981.03 1.352.032.389.102.768.286 1.13a2.9 2.9 0 0 0 1.267 1.267c.362.184.74.254 1.13.286.355.029.785.03 1.287.03 0 .502.001.932.03 1.287.032.389.102.768.286 1.13a2.9 2.9 0 0 0 1.267 1.267c.362.184.74.254 1.13.286.37.03.822.03 1.352.03h1.67c.53 0 .981 0 1.352-.03.389-.032.768-.102 1.13-.286a2.9 2.9 0 0 0 1.267-1.267c.184-.362.254-.741.286-1.13.029-.355.03-.785.03-1.287.502 0 .932-.001 1.287-.03.389-.032.768-.102 1.13-.286a2.9 2.9 0 0 0 1.267-1.267c.184-.362.254-.741.286-1.13.03-.37.03-.822.03-1.352v-1.67c0-.53 0-.981-.03-1.352-.032-.39-.102-.768-.286-1.13a2.9 2.9 0 0 0-1.267-1.267c-.362-.184-.741-.254-1.13-.286-.355-.029-.785-.03-1.287-.03 0-.502-.001-.932-.03-1.287-.032-.39-.102-.768-.286-1.13a2.9 2.9 0 0 0-1.267-1.267c-.362-.184-.741-.254-1.13-.286-.37-.03-.822-.03-1.352-.03zM7.1 14v1.1c-.52 0-.869-.002-1.14-.024-.278-.023-.394-.062-.46-.096a1.1 1.1 0 0 1-.48-.48c-.034-.066-.073-.182-.096-.46A17 17 0 0 1 4.9 12.8v-1.6c0-.575 0-.952.024-1.24.023-.278.062-.394.096-.46a1.1 1.1 0 0 1 .48-.48c.066-.034.182-.073.46-.096.288-.023.665-.024 1.24-.024h9.6c.575 0 .952 0 1.24.024.278.023.393.062.46.096a1.1 1.1 0 0 1 .48.48c.034.066.073.182.096.46.023.288.024.665.024 1.24v1.6c0 .575 0 .952-.024 1.24-.023.278-.062.394-.096.46a1.1 1.1 0 0 1-.48.48c-.067.034-.182.073-.46.096-.271.022-.62.024-1.14.024V14a.9.9 0 0 0-.9-.9H8a.9.9 0 0 0-.9.9m8-6.9c0-.52-.002-.869-.024-1.14-.023-.278-.062-.394-.096-.46a1.1 1.1 0 0 0-.48-.48c-.066-.034-.182-.073-.46-.096A17 17 0 0 0 12.8 4.9h-1.6c-.575 0-.952 0-1.24.024-.278.023-.394.062-.46.096a1.1 1.1 0 0 0-.48.48c-.034.066-.073.182-.096.46-.022.271-.024.62-.024 1.14zm-6.2 7.8v1.9c0 .575 0 .952.024 1.24.023.278.062.393.096.46a1.1 1.1 0 0 0 .48.48c.066.034.182.073.46.096.288.023.665.024 1.24.024h1.6c.575 0 .952 0 1.24-.024.278-.023.394-.062.46-.096a1.1 1.1 0 0 0 .48-.48c.034-.067.073-.182.096-.46.023-.288.024-.665.024-1.24v-1.9zm8.1-4.8a.9.9 0 1 0 0 1.8.9.9 0 0 0 0-1.8" clip-rule="evenodd"/></svg>