<svg fill="none" height="24" viewBox="0 0 24 24" width="24" xmlns="http://www.w3.org/2000/svg"><path clip-rule="evenodd" d="m3.93162 11.7068c0-3.63473 3.48497-6.80679 8.08418-6.80679 4.5993 0 8.0842 3.17205 8.0842 6.80679 0 3.6347-3.4849 6.8068-8.0842 6.8068-1.1715 0-2.28101-.21-3.28098-.5852-.35525-.1333-.75593-.0295-1.00176.2595-.67774.7969-1.79928 1.3533-3.51268 1.5475.19665-.4349.40041-.9003.57321-1.3677.2893-.7825.52575-1.6531.52575-2.5529 0-.1934-.0623-.3816-.17765-.5368-.77246-1.0394-1.21007-2.2652-1.21007-3.5712zm8.08418-8.60679c-5.32441 0-9.88418 3.72883-9.88418 8.60679 0 1.6084.50623 3.1089 1.37708 4.381-.03949.5181-.18673 1.0696-.40341 1.6557-.19461.5263-.42571 1.0329-.66186 1.5505-.07725.1694-.15504.3399-.23226.5126-.3894.8652.2821 1.8288 1.20903 1.7924 2.19576-.0862 4.00005-.6379 5.24813-1.7909 1.04748.3278 2.17497.5055 3.34747.5055 5.3245 0 9.8842-3.7288 9.8842-8.6068 0-4.87796-4.5597-8.60679-9.8842-8.60679zm-.0158 5.79997c-.2598 0-.4833.16567-.5661.39992-.1656.46865-.6798.7143-1.1485.54864-.46861-.16564-.71425-.67984-.5486-1.14848.329-.93094 1.2168-1.60008 2.2632-1.60008 1.3255 0 2.4 1.07452 2.4 2.4 0 1.09332-.5284 1.73202-.9216 2.17362l-.0121.0135c-.3905.4384-.5359.6017-.5722.916-.057.4938-.5035.8479-.9972.791-.4938-.057-.8479-.5035-.7909-.9973.1041-.9022.6202-1.4706.9462-1.8296.029-.0319.0564-.0621.082-.0908.3192-.3584.4658-.56976.4658-.97642 0-.33137-.2686-.6-.6-.6zm1 6.60002c0 .5523-.4477 1-1 1s-1-.4477-1-1 .4477-1 1-1 1 .4477 1 1z" fill="currentColor" fill-rule="evenodd"/></svg>
