<svg xmlns="http://www.w3.org/2000/svg" width="24" height="24" fill="currentColor" viewBox="0 0 24 24"><path fill-rule="evenodd" d="M3 17.717a9.916 9.916 0 0 0 2.186-.945 9.579 9.579 0 0 0 1.77-1.418 6.273 6.273 0 0 0 1.18-1.71c.285-.631.438-1.261.438-1.892 0-.382-.066-.72-.219-1.013-.153-.292-.328-.427-.546-.427a1.04 1.04 0 0 0-.547.135c-.153.09-.306.18-.459.293a2.942 2.942 0 0 1-.524.292c-.197.09-.46.135-.787.135-.678 0-1.268-.27-1.749-.833C3.24 9.772 3 9.051 3 8.196c0-.9.328-1.665 1.005-2.273C4.683 5.315 5.492 5 6.475 5c.634 0 1.224.135 1.749.428A4.591 4.591 0 0 1 9.667 6.62a5.79 5.79 0 0 1 .983 1.733c.24.652.35 1.373.35 2.138a8.642 8.642 0 0 1-.634 3.309c-.437 1.012-1.005 1.89-1.749 2.633a8.428 8.428 0 0 1-2.557 1.8 8.536 8.536 0 0 1-3.06.766v-1.283Zm10 0a9.918 9.918 0 0 0 2.186-.945 9.578 9.578 0 0 0 1.77-1.418 6.273 6.273 0 0 0 1.18-1.71c.285-.631.438-1.261.438-1.892 0-.382-.066-.72-.219-1.013-.153-.292-.328-.427-.546-.427a1.04 1.04 0 0 0-.547.135c-.153.09-.306.18-.459.293a2.943 2.943 0 0 1-.524.292c-.197.09-.46.135-.787.135-.678 0-1.268-.27-1.749-.833C13.24 9.772 13 9.051 13 8.196c0-.9.328-1.665 1.005-2.273.678-.608 1.487-.923 2.47-.923.634 0 1.224.135 1.749.428a4.591 4.591 0 0 1 1.443 1.193 5.79 5.79 0 0 1 .983 1.733c.24.652.35 1.373.35 2.138a8.642 8.642 0 0 1-.634 3.309c-.437 1.012-1.005 1.89-1.748 2.633a8.428 8.428 0 0 1-2.558 1.8A8.536 8.536 0 0 1 13 19v-1.283Z" clip-rule="evenodd"/></svg>
