<svg xmlns="http://www.w3.org/2000/svg" width="24" height="24" fill="currentColor" viewBox="0 0 24 24"><path fill-rule="evenodd" d="M9.782 4.005c.818-1.976 3.618-1.976 4.436 0l1.4 3.383 3.565.23c1.7.11 2.593 1.794 2.121 3.173a2.35 2.35 0 0 1-.115.278.9.9 0 0 1-1.615-.796.604.604 0 0 0-.507-.859l-4.125-.266a.9.9 0 0 1-.774-.554l-1.613-3.9a.6.6 0 0 0-1.11 0l-1.613 3.9a.9.9 0 0 1-.774.554l-4.125.266a.6.6 0 0 0-.357 1.05l3.267 2.859a.9.9 0 0 1 .282.888l-.93 3.852a.6.6 0 0 0 .883.66l.163-.093a.9.9 0 1 1 .9 1.559l-.163.094C7.15 21.337 4.95 19.69 5.445 17.64l.802-3.322-2.856-2.5c-1.611-1.41-.71-4.063 1.426-4.201l3.566-.23 1.4-3.383Z M21 17a5 5 0 1 1-10 0 5 5 0 0 1 10 0Zm-4.61.87c-.07.315-.256.498-.595.498-.405 0-.643-.272-.643-.657v-.066c0-.555.29-.92.853-1.245.615-.362.8-.597.8-1.029 0-.46-.362-.78-.886-.78-.467 0-.782.226-.934.644-.12.3-.334.432-.625.432-.376 0-.61-.23-.61-.587 0-.202.048-.38.143-.56.305-.62 1.068-1.019 2.093-1.019 1.354 0 2.264.733 2.264 1.828 0 .71-.348 1.193-1.02 1.583-.634.362-.777.564-.84.958Zm.196 1.891c0 .413-.348.738-.781.738-.43 0-.777-.325-.777-.738s.348-.738.777-.738c.433 0 .781.325.781.738Z" clip-rule="evenodd"/></svg>
