<svg xmlns="http://www.w3.org/2000/svg" width="24" height="24" fill="currentColor" viewBox="0 0 24 24"><path fill-rule="evenodd" d="M18.477 2.583A.9.9 0 0 1 19 3.4v11.05h.821c.438 0 .816 0 1.15.085a2.7 2.7 0 0 1 1.944 1.945c.086.333.085.71.085 1.148v.193c0 .438 0 .816-.085 1.15a2.7 2.7 0 0 1-1.945 1.945c-.333.085-.71.084-1.149.084H9c-.8-.004-1.485-.02-2.053-.096-.754-.101-1.434-.324-1.98-.87-.547-.547-.77-1.227-.871-1.98C4 17.34 4 16.44 4 15.361V3.4a.9.9 0 0 1 1.483-.685l1.718 1.461 1.413-1.412a.9.9 0 0 1 1.234-.037l1.616 1.437 1.4-1.4a.9.9 0 0 1 1.234-.037l1.665 1.48 1.754-1.492a.9.9 0 0 1 .96-.132ZM17.2 10.25v4.2h-3.922c-.437 0-.815 0-1.148.085a2.7 2.7 0 0 0-1.946 1.945c-.085.333-.084.71-.084 1.148v.472c0 .205 0 .25-.003.278a.9.9 0 0 1-.921.822c-.875-.002-1.502-.014-1.99-.08-.553-.074-.79-.203-.947-.36-.156-.156-.285-.393-.36-.947-.077-.58-.079-1.356-.079-2.513V5.348l.867.737a.9.9 0 0 0 1.22-.049l1.4-1.4 1.615 1.437a.9.9 0 0 0 1.234-.037l1.4-1.4 1.616 1.437a.9.9 0 0 0 1.181.012l.867-.737v4.902Zm2.3 8.95h-7.754a2.7 2.7 0 0 0 .144-.665c.01-.118.01-.25.01-.401v-.409c0-.59.007-.716.028-.798a.9.9 0 0 1 .648-.649c.083-.02.209-.028.799-.028h6.35c.59 0 .716.007.798.028a.9.9 0 0 1 .649.649c.02.082.028.208.028.798 0 .59-.007.716-.028.798a.9.9 0 0 1-.649.649c-.082.02-.208.028-.798.028H19.5Zm-10-9.85a.9.9 0 0 0 0 1.8h4a.9.9 0 0 0 0-1.8h-4Z" clip-rule="evenodd"/></svg>
