<svg xmlns="http://www.w3.org/2000/svg" width="24" height="24" viewBox="0 0 24 24" fill="currentColor"><path d="M12 20.001a1 1 0 1 1 0 2H6a1 1 0 0 1 0-2zm5-3.582a1 1 0 0 1 0 2H6a1 1 0 1 1 0-2z"/><path fill-rule="evenodd" d="M13.6 2c.92 0 1.66 0 2.26.047.609.047 1.147.148 1.65.39a4.4 4.4 0 0 1 2.054 2.054c.242.503.343 1.041.39 1.65.047.6.046 1.34.046 2.26 0 .918 0 1.659-.046 2.258-.047.61-.148 1.148-.39 1.65a4.4 4.4 0 0 1-2.054 2.055c-.503.242-1.041.342-1.65.39-.6.047-1.34.047-2.26.047h-3.2c-.918 0-1.659 0-2.258-.047-.61-.047-1.148-.148-1.65-.39a4.4 4.4 0 0 1-2.055-2.054c-.242-.503-.343-1.042-.39-1.65C4 10.06 4 9.318 4 8.4s0-1.659.047-2.258c.047-.61.148-1.148.39-1.65A4.4 4.4 0 0 1 6.49 2.436c.503-.242 1.041-.343 1.65-.39C8.742 2 9.482 2 10.402 2zm-3.2 1.8c-.947 0-1.605 0-2.119.04-.503.04-.791.113-1.009.218a2.6 2.6 0 0 0-1.214 1.214c-.105.218-.178.506-.217 1.01-.04.513-.04 1.172-.04 2.118 0 .947 0 1.606.04 2.12.039.503.112.791.217 1.008.255.531.684.96 1.214 1.215.218.105.506.178 1.01.217.513.04 1.171.04 2.118.04h3.2c.948 0 1.606 0 2.12-.04.503-.04.791-.112 1.008-.217.531-.255.96-.684 1.215-1.215.105-.217.178-.505.217-1.008.04-.514.04-1.173.04-2.12 0-.946 0-1.605-.04-2.119-.039-.503-.112-.791-.217-1.009a2.6 2.6 0 0 0-1.215-1.214c-.217-.105-.505-.178-1.008-.217-.514-.04-1.173-.04-2.12-.04z" clip-rule="evenodd"/></svg>