<svg xmlns="http://www.w3.org/2000/svg" width="24" height="24" fill="currentColor" viewBox="0 0 24 24"><path fill-rule="evenodd" d="M4 10.48c0-1.568 0-2.352.305-2.951A2.8 2.8 0 0 1 5.53 6.305C6.128 6 6.912 6 8.48 6h7.04c1.568 0 2.352 0 2.951.305a2.8 2.8 0 0 1 1.224 1.224C20 8.128 20 8.912 20 10.48v.02h1.503a1.5 1.5 0 0 1 0 3H20v.02c0 1.568 0 2.352-.305 2.951a2.8 2.8 0 0 1-1.224 1.224C17.872 18 17.088 18 15.52 18H8.48c-1.568 0-2.352 0-2.951-.305a2.8 2.8 0 0 1-1.224-1.224C4 15.872 4 15.088 4 13.52v-.02H2.5a1.5 1.5 0 0 1 0-3H4v-.02Z" clip-rule="evenodd"/></svg>
