<svg xmlns="http://www.w3.org/2000/svg" width="24" height="24" fill="none" viewBox="0 0 24 24"><path fill="currentColor" fill-rule="evenodd" d="M3 7c0-1.4001 0-2.1002.2725-2.635A2.5001 2.5001 0 0 1 4.365 3.2725C4.8998 3 5.6 3 7 3h10c1.4001 0 2.1002 0 2.635.2725a2.5 2.5 0 0 1 1.0925 1.0925C21 4.8998 21 5.6 21 7s0 2.1002-.2725 2.635a2.5 2.5 0 0 1-1.0925 1.0925C19.1002 11 18.4001 11 17 11H7c-1.4001 0-2.1002 0-2.635-.2725A2.5 2.5 0 0 1 3.2725 9.635C3 9.1002 3 8.4 3 7zm4-2.2h10c.7298 0 1.1688.0014 1.4954.028.2213.0182.3062.043.3253.0498a.7.7 0 0 1 .3015.3015c.0068.0191.0316.104.0497.3253.0267.3266.0281.7656.0281 1.4954s-.0014 1.1688-.0281 1.4954c-.0181.2213-.0429.3062-.0497.3253a.7.7 0 0 1-.3015.3015c-.0191.0068-.104.0316-.3253.0497-.3266.0267-.7656.0281-1.4954.0281H7c-.7298 0-1.1688-.0014-1.4954-.028-.2213-.0182-.3062-.043-.3253-.0498a.7.7 0 0 1-.3015-.3015c-.0068-.0191-.0316-.104-.0497-.3253C4.8014 8.1688 4.8 7.7298 4.8 7s.0014-1.1688.028-1.4954c.0182-.2213.043-.3062.0498-.3253a.7.7 0 0 1 .3015-.3015c.0191-.0068.104-.0316.3253-.0497C5.8312 4.8014 6.2702 4.8 7 4.8zm12.1208 4.024-.0003.001a.0624.0624 0 0 0 .0017-.0043l-.0014.0033zm-.2957.2965c.0003-.0002 0 0 0 0zM3 17c0-1.4001 0-2.1002.2725-2.635a2.5 2.5 0 0 1 1.0925-1.0925C4.8998 13 5.6 13 7 13h10c1.4001 0 2.1002 0 2.635.2725a2.5 2.5 0 0 1 1.0925 1.0925C21 14.8998 21 15.5999 21 17s0 2.1002-.2725 2.635a2.5 2.5 0 0 1-1.0925 1.0925C19.1002 21 18.4001 21 17 21H7c-1.4001 0-2.1002 0-2.635-.2725a2.5 2.5 0 0 1-1.0925-1.0925C3 19.1002 3 18.4001 3 17zm4-2.2h10c.7298 0 1.1688.0014 1.4954.0281.2213.0181.3062.0429.3253.0497a.7.7 0 0 1 .3015.3015c.0068.0191.0316.104.0497.3253.0267.3266.0281.7656.0281 1.4954s-.0014 1.1688-.0281 1.4954c-.0181.2213-.0429.3062-.0497.3253a.7.7 0 0 1-.3015.3015c-.0191.0068-.104.0316-.3253.0497-.3266.0267-.7656.0281-1.4954.0281H7c-.7298 0-1.1688-.0014-1.4954-.0281-.2213-.0181-.3062-.0429-.3253-.0497a.7.7 0 0 1-.3015-.3015c-.0068-.0191-.0316-.104-.0497-.3253C4.8014 18.1688 4.8 17.7298 4.8 17s.0014-1.1688.028-1.4954c.0182-.2213.043-.3062.0498-.3253a.7.7 0 0 1 .3015-.3015c.0191-.0068.104-.0316.3253-.0497C5.8312 14.8014 6.2702 14.8 7 14.8zm12.121.376a.0102.0102 0 0 1-.0005-.0011.0213.0213 0 0 0 .0017.0044l-.0012-.0033zm.0012 3.6447a.0213.0213 0 0 0-.0017.0044l.0005-.0012.0012-.0032zm-.3015.3015a.0755.0755 0 0 0 .0044-.0017c-.0001-.0001-.0006.0001-.0016.0005l-.0028.0012z" clip-rule="evenodd"/></svg>
