<svg xmlns="http://www.w3.org/2000/svg" width="24" height="24" fill="currentColor" viewBox="0 0 24 24"><path d="m14.675 14.9-.027-.464a.852.852 0 0 0-1.702.042l.003-.368a.832.832 0 0 0-1.642-.195l.066-2.901a.858.858 0 0 0-1.716-.042l-.133 5.224-.783-1.368a.801.801 0 0 0-1.432.712l1.384 3.246s1.01 2.03 3.894 2.205c2.51.152 3.888-1.668 3.814-3.886l.068-2.228a.898.898 0 1 0-1.794.024Z M8.216 3h7.568c.833 0 1.507 0 2.055.04.565.04 1.064.126 1.536.334a4.4 4.4 0 0 1 2.251 2.251c.208.471.294.971.334 1.536.04.548.04 1.221.04 2.055v3.378a2.906 2.906 0 0 1-2.906 2.906h-.196a.9.9 0 0 1 0-1.8h.196c.61 0 1.106-.495 1.106-1.106V9.25c0-.876 0-1.484-.035-1.96-.034-.467-.096-.735-.186-.939a2.6 2.6 0 0 0-1.33-1.33c-.204-.09-.472-.153-.94-.186-.475-.035-1.084-.035-1.959-.035h-7.5c-.875 0-1.484 0-1.96.035-.467.033-.735.096-.939.186a2.6 2.6 0 0 0-1.33 1.33c-.09.204-.153.472-.186.939C3.8 7.766 3.8 8.374 3.8 9.25v3.35a1.1 1.1 0 0 0 1.1 1.1h.2a.9.9 0 1 1 0 1.8h-.2A2.9 2.9 0 0 1 2 12.6V9.217c0-.834 0-1.507.04-2.055.04-.565.126-1.065.334-1.536a4.4 4.4 0 0 1 2.251-2.251c.472-.208.972-.294 1.536-.335C6.709 3 7.383 3 8.216 3Z" clip-rule="evenodd"/></svg>
