<?xml version="1.0" encoding="UTF-8"?>
<svg width="24px" height="24px" viewBox="0 0 24 24" version="1.1" xmlns="http://www.w3.org/2000/svg" xmlns:xlink="http://www.w3.org/1999/xlink">
    <!-- Generator: Sketch 52.2 (67145) - http://www.bohemiancoding.com/sketch -->
    <title>reorder_24</title>
    <desc>Created with Sketch.</desc>
    <g id="Iteration-3" stroke="none" stroke-width="1" fill="none" fill-rule="evenodd">
        <g id="Artboard" transform="translate(-12.000000, -10.000000)">
            <g id="reorder_24" transform="translate(12.000000, 10.000000)">
                <rect id="Body" opacity="0.100000001" x="0" y="0" width="24" height="24"></rect>
                <path d="M2.75,7 L21.25,7 C21.6642136,7 22,7.33578644 22,7.75 C22,8.16421356 21.6642136,8.5 21.25,8.5 L2.75,8.5 C2.33578644,8.5 2,8.16421356 2,7.75 C2,7.33578644 2.33578644,7 2.75,7 Z M2.75,11 L21.25,11 C21.6642136,11 22,11.3357864 22,11.75 C22,12.1642136 21.6642136,12.5 21.25,12.5 L2.75,12.5 C2.33578644,12.5 2,12.1642136 2,11.75 C2,11.3357864 2.33578644,11 2.75,11 Z M2.75,15 L21.25,15 C21.6642136,15 22,15.3357864 22,15.75 C22,16.1642136 21.6642136,16.5 21.25,16.5 L2.75,16.5 C2.33578644,16.5 2,16.1642136 2,15.75 C2,15.3357864 2.33578644,15 2.75,15 Z" id="Combined-Shape" fill="currentColor" fill-rule="nonzero"></path>
            </g>
        </g>
    </g>
</svg>
