<svg xmlns="http://www.w3.org/2000/svg" width="24" height="24" fill="currentColor" viewBox="0 0 24 24"><path fill-rule="evenodd" d="M7.907 6.1A5.901 5.901 0 0 0 2.005 12v.097a.9.9 0 0 0 1.8 0V12a4.1 4.1 0 0 1 4.102-4.1h10.026l-.564.564a.9.9 0 1 0 1.273 1.272l2.1-2.1a.9.9 0 0 0 0-1.272l-2.1-2.1a.9.9 0 0 0-1.273 1.272l.564.564H7.907Zm14.098 5.803a.9.9 0 0 0-1.801 0V12a4.1 4.1 0 0 1-4.101 4.1H6.074l.564-.564a.9.9 0 1 0-1.273-1.272l-2.101 2.1a.9.9 0 0 0 0 1.272l2.1 2.1a.9.9 0 0 0 1.274-1.272l-.564-.564h10.029a5.901 5.901 0 0 0 5.902-5.9v-.097ZM12.5 24a1.5 1.5 0 1 0 0-3 1.5 1.5 0 0 0 0 3Z" clip-rule="evenodd"/></svg>
