<svg xmlns="http://www.w3.org/2000/svg" width="24" height="24" fill="currentColor" viewBox="0 0 24 24"><path fill-rule="evenodd" d="M2.005 12c0-3.258 2.642-5.9 5.902-5.9h10.026l-.564-.564a.9.9 0 1 1 1.273-1.272l2.1 2.1a.9.9 0 0 1 0 1.272l-2.1 2.1a.9.9 0 0 1-1.273-1.272l.564-.564H7.907A4.1 4.1 0 0 0 3.805 12v.097a.9.9 0 0 1-1.8 0V12Zm10.47-2.868a.9.9 0 0 1 .429.766v4.203a.9.9 0 0 1-1.8 0v-2.74a.9.9 0 0 1-.807-1.61l1.3-.656a.9.9 0 0 1 .878.037Zm9.53 2.771a.9.9 0 0 0-1.801 0V12a4.1 4.1 0 0 1-4.102 4.1H6.074l.564-.564a.9.9 0 1 0-1.273-1.272l-2.101 2.1a.9.9 0 0 0 0 1.272l2.1 2.1a.9.9 0 0 0 1.274-1.272l-.564-.564h10.028a5.901 5.901 0 0 0 5.903-5.9v-.097ZM12.5 24a1.5 1.5 0 1 0 0-3 1.5 1.5 0 0 0 0 3Z" clip-rule="evenodd"/></svg>
