<svg xmlns="http://www.w3.org/2000/svg" width="24" height="24" viewBox="0 0 24 24" fill="currentColor"><path d="M12.024 3.725A2.15 2.15 0 0 1 14.02 5.87l.001 2.117.02.005a9.904 9.904 0 0 1 7.827 10.721c-.083.811-1.116 1.103-1.611.455l-.187-.237a9.08 9.08 0 0 0-5.835-3.265l-.214-.026-.001 2.494a2.15 2.15 0 0 1-3.476 1.692L2.72 13.694a2.15 2.15 0 0 1 0-3.384l7.824-6.132a2.15 2.15 0 0 1 1.326-.458zM11.87 5.52a.35.35 0 0 0-.216.075L3.83 11.727a.35.35 0 0 0 0 .55l7.824 6.133a.35.35 0 0 0 .566-.276l.001-3.447a.9.9 0 0 1 .915-.9l.233.004.342.016a10.9 10.9 0 0 1 6.119 2.366l.174.144-.024-.135a8.1 8.1 0 0 0-6.968-6.537.9.9 0 0 1-.791-.893L12.22 5.87a.35.35 0 0 0-.35-.35"/></svg>