<?xml version="1.0" encoding="UTF-8"?>
<svg width="24px" height="24px" viewBox="0 0 24 24" version="1.1" xmlns="http://www.w3.org/2000/svg" xmlns:xlink="http://www.w3.org/1999/xlink">
    <!-- Generator: Sketch 50.2 (55047) - http://www.bohemiancoding.com/sketch -->
    <title>replay_10_24</title>
    <desc>Created with Sketch.</desc>
    <defs></defs>
    <g id="Page-2" stroke="none" stroke-width="1" fill="none" fill-rule="evenodd">
        <g id="replay_10_24">
            <polygon id="a" points="24 24 0 24 0 0 24 0"></polygon>
            <path d="M12,4.25 C16.2802068,4.25 19.75,7.71979319 19.75,12 C19.75,16.2802068 16.2802068,19.75 12,19.75 C8.25720399,19.75 5.0686109,17.0780694 4.38401851,13.4418634 C4.30738051,13.0348014 4.5752421,12.6426851 4.98230413,12.566047 C5.38936615,12.489409 5.7814825,12.7572706 5.8581205,13.1643327 C6.40983104,16.094738 8.98184903,18.25 12,18.25 C15.4517797,18.25 18.25,15.4517797 18.25,12 C18.25,8.54822031 15.4517797,5.75 12,5.75 L12,7.64402815 C12,7.83732781 11.8432997,7.99402815 11.65,7.99402815 C11.5852916,7.99402815 11.52185,7.97608951 11.4667227,7.94220501 L7.16510921,5.29817685 C7.00043068,5.19695561 6.94898838,4.98140126 7.05020963,4.81672273 C7.07896541,4.76993946 7.11832594,4.73057893 7.16510921,4.70182315 L11.4667227,2.05779499 C11.6314013,1.95657375 11.8469556,2.00801604 11.9481769,2.17269457 C11.9820614,2.22782183 12,2.29126348 12,2.35597185 L12,4.25 Z M9,14.65 L9,11 L8.13398939,11.3464042 C7.99041001,11.403836 7.82745828,11.3339995 7.77002653,11.1904202 C7.75679706,11.1573465 7.75,11.1220522 7.75,11.0864308 L7.75,10.5803476 C7.75,10.4405643 7.83317246,10.3141852 7.96155524,10.258893 L9.80659564,9.46426702 C9.98413011,9.3878061 10.1900341,9.46974239 10.266495,9.64727685 C10.2853272,9.69100331 10.2950404,9.7381122 10.2950404,9.78572161 L10.2950404,14.65 C10.2950404,14.8432997 10.1383401,15 9.9450404,15 L9.35,15 C9.15670034,15 9,14.8432997 9,14.65 Z M13.4873032,14.9985831 C12.279183,14.9985831 11.2976888,14.3041446 11.2998081,12.1985832 C11.3019274,10.0930218 12.279183,9.39858323 13.4873032,9.39858323 C14.6954233,9.39858323 15.6777123,10.0930218 15.6747982,12.1985832 C15.6718842,14.3041446 14.6954233,14.9985831 13.4873032,14.9985831 Z M13.4898047,13.8801252 C14.0994372,13.8801252 14.4298047,13.4755572 14.4298047,12.2510343 C14.4298047,11.0265113 14.0940084,10.6219434 13.4898047,10.6219434 C12.885601,10.6219434 12.5498047,11.0270322 12.5498047,12.2510343 C12.5498047,13.4750364 12.8801721,13.8801252 13.4898047,13.8801252 Z" id="Mask" fill="currentColor"></path>
        </g>
    </g>
</svg>
