<svg xmlns="http://www.w3.org/2000/svg" width="24" height="24" fill="currentColor" viewBox="0 0 24 24"><path d="M10 11.5a1.5 1.5 0 1 1-3 0 1.5 1.5 0 0 1 3 0Zm-.277 3.873a.85.85 0 0 1 1.185-.205 1.878 1.878 0 0 0 1.092.345 1.888 1.888 0 0 0 1.092-.345.85.85 0 0 1 .979 1.39 3.587 3.587 0 0 1-2.07.655 3.587 3.587 0 0 1-2.072-.655.85.85 0 0 1-.206-1.185Zm5.103-2.917a.643.643 0 0 1 .648 0 .652.652 0 0 1 .11.08.85.85 0 0 0 1.133-1.267 2.346 2.346 0 0 0-3.134 0 .85.85 0 0 0 1.134 1.266.66.66 0 0 1 .109-.079Z"/><path fill-rule="evenodd" d="M14 3a2 2 0 0 1-1.1 1.787V6.1h2.338c.808 0 1.469 0 2.006.044.556.045 1.058.142 1.527.381a3.9 3.9 0 0 1 1.704 1.704c.239.47.336.971.381 1.527.044.537.044 1.198.044 2.006v3.476c0 .808 0 1.469-.044 2.006-.045.556-.142 1.058-.381 1.526a3.9 3.9 0 0 1-1.704 1.705c-.47.239-.971.336-1.527.381-.537.044-1.198.044-2.006.044H8.762c-.808 0-1.469 0-2.006-.044-.556-.045-1.058-.142-1.527-.381a3.9 3.9 0 0 1-1.704-1.705c-.239-.468-.336-.97-.381-1.526-.044-.537-.044-1.198-.044-2.006v-3.476c0-.808 0-1.469.044-2.006.045-.556.142-1.058.381-1.527A3.9 3.9 0 0 1 5.23 6.525c.47-.239.971-.336 1.527-.381C7.293 6.1 7.954 6.1 8.762 6.1H11.1V4.787A2 2 0 1 1 14 3ZM6.903 7.938c-.445.036-.684.103-.856.19a2.1 2.1 0 0 0-.918.919c-.088.172-.155.411-.191.856-.037.455-.038 1.042-.038 1.897v3.4c0 .855 0 1.442.038 1.897.036.445.103.683.19.856a2.1 2.1 0 0 0 .919.918c.172.088.411.155.856.191.455.037 1.042.038 1.897.038h6.4c.855 0 1.442 0 1.897-.038.445-.036.683-.103.856-.19a2.1 2.1 0 0 0 .918-.919c.088-.172.155-.411.191-.856.037-.455.038-1.042.038-1.897v-3.4c0-.855 0-1.442-.038-1.897-.036-.445-.103-.684-.19-.856a2.1 2.1 0 0 0-.919-.918c-.172-.088-.411-.155-.856-.191C16.642 7.9 16.055 7.9 15.2 7.9H8.8c-.855 0-1.442 0-1.897.038Z" clip-rule="evenodd"/></svg>
