<svg xmlns="http://www.w3.org/2000/svg" width="24" height="24" fill="currentColor" viewBox="0 0 24 24"><path fill-rule="evenodd" d="M9.715 16.743c1.229 1.23 5.326-1.229 7.784-3.687 4.916-4.916 4.916-9.833 4.097-10.652-.82-.82-5.736-.82-10.652 4.097-2.458 2.458-4.916 6.555-3.687 7.784l2.458 2.458Zm5.759-8.218a1.544 1.544 0 1 0 2.183-2.184 1.544 1.544 0 0 0-2.183 2.184Z M7.393 20.248c-1.12 1.12-3.53 1.379-4.585 1.438a.464.464 0 0 1-.495-.494c.06-1.056.32-3.466 1.439-4.585a2.575 2.575 0 0 1 3.641 3.641Zm-2.264-7.523c.268.108.564-.085.61-.37.133-.824.482-1.694.902-2.507.594-1.148 1.422-2.356 2.321-3.434.259-.31.096-.792-.3-.867l-1.03-.196a1.03 1.03 0 0 0-.92.284l-4.408 4.407a1.03 1.03 0 0 0 .344 1.684l2.48 1Zm6.146 6.146c-.108-.268.085-.564.371-.61.823-.133 1.693-.482 2.506-.902 1.148-.594 2.356-1.422 3.434-2.321.31-.259.792-.096.867.3l.196 1.03a1.03 1.03 0 0 1-.284.92l-4.407 4.408a1.03 1.03 0 0 1-1.684-.344l-1-2.48Z"/></svg>
