<svg fill="none" height="24" viewBox="0 0 24 24" width="24" xmlns="http://www.w3.org/2000/svg"><g fill="currentColor"><path clip-rule="evenodd" d="m4.37656 4.92408c-.05187-.01517-.13721-.0241-.68505-.0241l-.79151.00002c-.49706 0-.9-.40294-.9-.9s.40294-.9.9-.9l.79151-.00002c.03114 0 .06214-.00005.09301-.00009.39281-.0006.76297-.00117 1.09706.09649.66522.19444 1.21391.66696 1.50488 1.29598.08645.18688.14078.39134.18267.60762h11.93427c.3355-.00001.6264-.00002.8648.01422.2469.01475.5093.04752.7674.14732.8477.32782 1.4375 1.1064 1.5236 2.01122.0262.27548-.0133.53687-.066.77861-.0508.23338-.1296.51338-.2205.83642l-.932 3.31393c-.0089.0315-.0176.0627-.0262.0935-.13.4637-.2386.8512-.4326 1.1796-.3873.6558-1.0171 1.1329-1.7533 1.3282-.3687.0978-.771.0975-1.2527.097-.032 0-.0643 0-.097 0h-7.46757c-.0372 0-.07398 0-.11034.0001-.54039.0005-.99025.0009-1.39224-.1166-.80381-.235-1.46681-.8059-1.8184-1.566-.17584-.3801-.24214-.825-.32179-1.3595-.00536-.036-.01078-.0724-.01629-.1092l-.87403-5.82683c-.08127-.54178-.10276-.62484-.12546-.67389-.07274-.15726-.20991-.27539-.37622-.324zm2.46852 1.9759.68727 4.58182c.10538.7026.13893.866.19168.98.13336.2883.38484.5049.68973.594.12058.0352.28719.0442.99757.0442h7.46757c.6306 0 .7771-.0073.8881-.0368.2792-.0741.5181-.2551.6651-.5038.0584-.0989.1051-.2379.2758-.845l.9252-3.28952c.0997-.35457.1634-.58229.2014-.75669.0374-.1719.033-.22182.0327-.22502-.0215-.22621-.1689-.42085-.3809-.5028-.003-.00116-.0498-.01888-.2255-.02937-.1781-.01064-.4146-.01102-.7829-.01102z" fill-rule="evenodd"/><path d="m7.00001 18.25c0-.9665.7835-1.75 1.75-1.75s1.74999.7835 1.74999 1.75-.78349 1.75-1.74999 1.75-1.75-.7835-1.75-1.75z"/><path d="m15 18.25c0-.9665.7835-1.75 1.75-1.75s1.75.7835 1.75 1.75-.7835 1.75-1.75 1.75-1.75-.7835-1.75-1.75z"/></g></svg>
