<svg xmlns="http://www.w3.org/2000/svg" width="24" height="24" viewBox="0 0 24 24" fill="currentColor"><path d="M21 16.1a.9.9 0 0 1 .893.787L21.9 17v.43c0 1.082-.148 1.788-.507 2.46a3.63 3.63 0 0 1-1.503 1.503c-.61.326-1.25.478-2.174.503l-.287.004H17a.9.9 0 0 1-.113-1.793L17 20.1h.43c.806 0 1.224-.088 1.61-.294q.5-.267.766-.765c.188-.351.277-.73.292-1.401l.002-.21V17a.9.9 0 0 1 .9-.9m-18 0a.9.9 0 0 1 .893.787L3.9 17v.43c0 .806.088 1.224.294 1.61q.267.5.765.766c.351.188.73.277 1.4.292l.212.002H7a.9.9 0 0 1 .113 1.793L7 21.9h-.43c-1.083 0-1.788-.148-2.46-.507a3.63 3.63 0 0 1-1.503-1.503c-.326-.61-.478-1.25-.503-2.174l-.004-.287V17a.9.9 0 0 1 .9-.9m14-2.7a.9.9 0 0 1 .893.787l.007.113v.384c0 .705-.114 1.232-.373 1.717a2.7 2.7 0 0 1-1.126 1.125c-.425.228-.88.343-1.46.369l-.257.005H9.316c-.705 0-1.232-.114-1.717-.373A2.7 2.7 0 0 1 6.474 16.4c-.228-.425-.343-.88-.369-1.46l-.005-.257V14.3a.9.9 0 0 1 1.793-.113l.007.113v.384c0 .426.051.664.16.868q.135.254.388.387c.175.094.375.145.696.158l.172.003h5.368c.426 0 .664-.051.868-.16a.9.9 0 0 0 .387-.388c.094-.175.145-.375.158-.696l.003-.172V14.3a.9.9 0 0 1 .9-.9m-2.564-7.3c.949 0 1.447.096 1.965.373a2.7 2.7 0 0 1 1.125 1.126c.255.475.357.933.372 1.737l.002.228-.001.535 2.201.001a.9.9 0 1 1 0 1.8H3.9a.9.9 0 0 1 0-1.8l2.199-.001.001-.535c0-.949.096-1.447.374-1.965a2.7 2.7 0 0 1 1.125-1.126c.475-.254.933-.356 1.737-.371l.228-.002zm0 1.8H9.564c-.677 0-.894.042-1.116.16a.9.9 0 0 0-.387.388c-.096.18-.142.355-.156.774l-.005.342-.001.535h8.2l.001-.535-.004-.327c-.014-.43-.06-.608-.157-.79a.9.9 0 0 0-.387-.386c-.18-.096-.355-.142-.774-.156zM7 2.1a.9.9 0 0 1 .113 1.793L7 3.9h-.43c-.806 0-1.225.088-1.61.294a1.83 1.83 0 0 0-.766.765c-.187.351-.277.73-.292 1.4L3.9 7a.9.9 0 0 1-1.793.113L2.1 7v-.43c0-1.083.148-1.788.507-2.46A3.63 3.63 0 0 1 4.11 2.607c.61-.326 1.25-.478 2.174-.503L6.57 2.1zm10.43 0c1.084 0 1.79.148 2.46.507a3.63 3.63 0 0 1 1.504 1.503c.326.61.478 1.25.503 2.174l.004.287V7a.9.9 0 0 1-1.793.113L20.1 7v-.43c0-.806-.088-1.225-.294-1.61a1.83 1.83 0 0 0-.765-.766c-.351-.188-.73-.277-1.4-.292L17 3.9a.9.9 0 0 1-.113-1.793L17 2.1z"/></svg>