<svg xmlns="http://www.w3.org/2000/svg" width="24" height="24" viewBox="0 0 24 24" fill="currentColor"><path fill-rule="evenodd" d="M17.999 3.385a3.473 3.473 0 1 1-.914 6.821L14.143 12l2.942 1.793q.438-.121.914-.122a3.472 3.472 0 1 1-2.58 1.148l-2.99-1.105-7.682 3.742a1.68 1.68 0 0 1-2.126-.453c-.093-.12-.047-.316.085-.392l1.661-.994L10.715 12 4.37 8.383l-1.66-.994c-.132-.077-.177-.271-.084-.392a1.68 1.68 0 0 1 2.126-.453l7.679 3.742 2.99-1.106A3.473 3.473 0 0 1 18 3.385m0 12.087a1.67 1.67 0 1 0 0 3.341 1.67 1.67 0 0 0 0-3.341m0-10.285a1.67 1.67 0 1 0 0 3.341 1.67 1.67 0 0 0 0-3.341" clip-rule="evenodd"/></svg>