<svg xmlns="http://www.w3.org/2000/svg" width="24" height="24" fill="currentColor" viewBox="0 0 24 24"><path d="M3.602 9.7a8.701 8.701 0 0 1 8.675 9.37.9.9 0 0 1-1.795-.137 6.9 6.9 0 0 0-7.413-7.413.9.9 0 0 1-.137-1.795c.221-.017.445-.026.67-.026Zm0 3.599a5.102 5.102 0 0 1 5.048 5.83.9.9 0 0 1-1.781-.256 3.3 3.3 0 0 0-3.74-3.74.9.9 0 0 1-.257-1.781c.239-.035.483-.053.73-.053Zm0 3.6a1.501 1.501 0 1 1-.002 3.002 1.501 1.501 0 0 1 .002-3.002ZM16.238 4.1c.808 0 1.468 0 2.006.045.555.045 1.058.142 1.527.38a3.91 3.91 0 0 1 1.704 1.705c.239.47.335.971.38 1.527.045.537.045 1.198.045 2.006v4.475c0 .808 0 1.47-.044 2.006-.046.556-.142 1.059-.381 1.527a3.902 3.902 0 0 1-1.704 1.705c-.469.238-.972.335-1.527.38-.538.044-1.198.044-2.006.044h-1.239a.9.9 0 0 1 0-1.8h1.2c.855 0 1.443 0 1.898-.038.444-.036.684-.102.856-.19.396-.201.717-.523.919-.918.087-.173.154-.412.19-.856.037-.455.038-1.043.038-1.898V9.8c0-.854 0-1.442-.038-1.897-.036-.444-.103-.683-.19-.856a2.101 2.101 0 0 0-.919-.917c-.172-.088-.412-.155-.856-.191-.455-.038-1.043-.039-1.897-.039H6l-.17.007A2.104 2.104 0 0 0 4.02 7.3a.9.9 0 1 1-1.697-.6A3.903 3.903 0 0 1 6 4.1h10.238ZM17 7.2A1.8 1.8 0 0 1 18.8 9v6a1.8 1.8 0 0 1-1.8 1.8h-2.475a.631.631 0 0 1-.615-.553 8.998 8.998 0 0 0-7.87-7.684c-.389-.045-.662-.432-.409-.73.33-.387.821-.633 1.37-.633h10Z"/></svg>