<svg xmlns="http://www.w3.org/2000/svg" width="24" height="24" fill="currentColor" viewBox="0 0 24 24"><path d="M8.462 4h7.076c.948 0 1.714 0 2.334.05.64.053 1.203.163 1.726.43a4.4 4.4 0 0 1 1.922 1.922c.282.553.39 1.153.438 1.84a.9.9 0 0 1-1.796.126c-.04-.586-.123-.908-.245-1.148a2.6 2.6 0 0 0-1.137-1.137c-.226-.115-.527-.195-1.055-.238-.538-.044-1.23-.045-2.225-.045h-7c-.995 0-1.687 0-2.226.045-.527.043-.828.123-1.054.238A2.6 2.6 0 0 0 4.083 7.22c-.115.226-.195.527-.238 1.054-.04.477-.044 1.073-.045 1.894l4.46-1.952c1.693-.74 3.552.628 3.348 2.464l-.241 2.17a.6.6 0 0 0 1.02.49l2.977-2.976a.9.9 0 1 1 1.272 1.272l-2.976 2.977c-1.604 1.604-4.333.292-4.082-1.962l.24-2.17a.6.6 0 0 0-.836-.616L3.8 12.132V13.5c0 .995 0 1.687.045 2.226.043.527.123.828.238 1.054a2.6 2.6 0 0 0 1.137 1.137c.226.115.527.195 1.054.238.539.044 1.231.045 2.226.045h2.17a.9.9 0 0 1 0 1.8H8.462c-.948 0-1.714 0-2.334-.05-.64-.053-1.203-.163-1.726-.43a4.4 4.4 0 0 1-1.922-1.922c-.267-.523-.377-1.087-.43-1.726C2 15.252 2 14.486 2 13.538v-3.076c0-.948 0-1.714.05-2.334.053-.64.163-1.203.43-1.726A4.4 4.4 0 0 1 4.402 4.48c.523-.267 1.087-.377 1.726-.43C6.748 4 7.514 4 8.462 4Zm13.537 7.293a1.001 1.001 0 0 0-1.416 0l-.708.708 2.124 2.124.708-.708a1.001 1.001 0 0 0 0-1.416l-.708-.708Zm-.981 3.812-2.124-2.124-4.338 4.338c-.44.44-.77.976-.967 1.566l-.573 1.72a.3.3 0 0 0 .38.38l1.719-.574a4.005 4.005 0 0 0 1.565-.968l4.338-4.338Z"/></svg>
