<svg xmlns="http://www.w3.org/2000/svg" width="24" height="24" fill="currentColor" viewBox="0 0 24 24"><path d="M20.583 11.293a1.001 1.001 0 0 1 1.416 0l.708.708a1.001 1.001 0 0 1 0 1.416l-.708.708-2.124-2.124.708-.708Zm-1.689 1.688 2.124 2.124-4.338 4.338c-.44.44-.975.771-1.565.968l-1.72.573a.3.3 0 0 1-.38-.38l.574-1.72a4.023 4.023 0 0 1 .967-1.565l4.338-4.338ZM15.538 4H8.462c-.948 0-1.714 0-2.334.05-.64.053-1.203.163-1.726.43A4.4 4.4 0 0 0 2.48 6.402c-.267.523-.377 1.087-.43 1.726-.043.535-.049 1.178-.05 1.952l4.26-1.864c1.693-.74 3.552.628 3.348 2.464l-.241 2.17a.6.6 0 0 0 1.02.49l2.977-2.976a.9.9 0 1 1 1.272 1.272l-2.976 2.977c-1.604 1.604-4.333.292-4.082-1.962l.24-2.17a.6.6 0 0 0-.836-.616L2 12.045v1.493c0 .948 0 1.714.05 2.334.053.64.163 1.203.43 1.726a4.4 4.4 0 0 0 1.922 1.922c.523.267 1.087.377 1.726.43.62.05 1.386.05 2.334.05h2.858l.561-1.684a5.806 5.806 0 0 1 1.403-2.27l6.026-6.025a2.8 2.8 0 0 1 2.685-.731c-.005-.436-.018-.82-.046-1.162-.052-.64-.162-1.203-.429-1.726a4.4 4.4 0 0 0-1.922-1.922c-.523-.267-1.087-.377-1.726-.43C17.252 4 16.486 4 15.538 4Z"/></svg>
