<svg xmlns="http://www.w3.org/2000/svg" width="24" height="24" fill="currentColor" viewBox="0 0 24 24"><path d="M7.58 6.317a.9.9 0 0 0-1.05-1.463 7.25 7.25 0 1 0 8.67 11.62l4.264 4.262a.9.9 0 0 0 1.273-1.272L16.474 15.2a7.35 7.35 0 0 0 .7-1.087.9.9 0 1 0-1.594-.836 5.45 5.45 0 1 1-8-6.961Zm4.223-5.099a.319.319 0 0 0-.606 0l-.242.728c-.159.476-.533.85-1.009 1.009l-.728.242a.319.319 0 0 0 0 .606l.728.242c.476.159.85.533 1.009 1.009l.242.728a.32.32 0 0 0 .606 0l.242-.728c.159-.476.533-.85 1.009-1.009l.728-.242a.319.319 0 0 0 0-.606l-.728-.242a1.595 1.595 0 0 1-1.009-1.009l-.242-.728Zm6.681 2.131a.51.51 0 0 0-.968 0l-.388 1.165a2.552 2.552 0 0 1-1.614 1.614l-1.165.388a.51.51 0 0 0 0 .968l1.165.388c.762.254 1.36.852 1.614 1.614l.388 1.165a.51.51 0 0 0 .968 0l.388-1.165a2.552 2.552 0 0 1 1.614-1.614l1.165-.388a.51.51 0 0 0 0-.968l-1.165-.388a2.552 2.552 0 0 1-1.614-1.614l-.388-1.165Z"/></svg>
