<svg fill="none" height="24" viewBox="0 0 24 24" width="24" xmlns="http://www.w3.org/2000/svg"><path clip-rule="evenodd" d="m16.4118 3.5551.0882.0648.0882-.0648c.4735-.33362.999-.51942 1.5672-.55044l.1717-.00466c1.4762 0 2.6729 1.25425 2.6729 2.80146 0 1.51117-.5732 2.26293-2.859 4.12625l-1.0584.86279c-.3427.2793-.8225.2793-1.1652 0l-1.0584-.86279c-2.2858-1.86332-2.859-2.61508-2.859-4.12625 0-1.54721 1.1967-2.80146 2.6729-2.80146.6342 0 1.2181.18811 1.7389.5551zm-1.7389.9449c.315 0 .595.08685.8646.27403l.0744.05468c.5284.38825 1.2478.38825 1.7762 0l.0744-.05467c.242-.16803.4894-.25303.7575-.27058l.1228-.00333c.577.00917 1.1572.52246 1.1572 1.30133 0 .50665-.0796.75591-.2991 1.06792-.2947.41887-.8535.95482-2.0076 1.89568l-.6933.56512-.6933-.56512c-1.1541-.94086-1.7129-1.47681-2.0076-1.89568-.2195-.31201-.2991-.56127-.2991-1.06792 0-.78595.5908-1.30146 1.1729-1.30146zm-3.3964 11.6735c-2.9961.2885-5.65878-1.9064-5.94727-4.9025-.2737-2.84253 1.68791-5.38491 4.44827-5.88449.07365-.01327.14782-.02505.22247-.03533v-.00024c.07673-.01066.15403-.01976.23183-.02725.4947-.04764.8572-.48735.8096-.98212-.0477-.49476-.4874-.85723-.9821-.80959-.11999.01155-.23896.02596-.35691.04315-2.68509.38861-4.89383 2.24876-5.7821 4.73631-1.31965 3.68666.53277 7.77476 4.20537 9.19926 1.39201.54 2.84894.621 4.20394.3167.9852-.2189 1.895-.6383 2.6843-1.2132.063-.0458.1254-.0926.187-.1405l4.2627 4.2627c.3514.3515.9213.3515 1.2727 0 .3515-.3515.3515-.9213 0-1.2728l-4.2625-4.2626c.0512-.0659.1014-.1329.1504-.2009.2285-.3152.4322-.6495.6083-1.0001h-.0031c.1012-.2025.1939-.4115.2774-.6268.1797-.4634-.0502-.9848-.5136-1.1646-.4635-.1797-.9849.0502-1.1646.5136-.1938.4997-.4532.9545-.7645 1.3585-.3011.3894-.6538.737-1.0478 1.0324-.5941.4444-1.2735.7635-1.9933.9374-.228.0546-.4616.0948-.6998.1197-.0155.0007-.0311.0018-.0467.0033z" fill="currentColor" fill-rule="evenodd"/></svg>
