<svg xmlns="http://www.w3.org/2000/svg" width="24" height="24" fill="currentColor" viewBox="0 0 24 24"><path fill-rule="evenodd" d="M23 19a5 5 0 1 0-10 0 5 5 0 0 0 10 0Zm-4.1-2.1a.9.9 0 0 0-1.8 0V19a.9.9 0 0 0 .566.836c.312.125.607.232.874.329l.042.015c.254.092 1.041.403 1.248.486a.9.9 0 1 0 .669-1.671 75.278 75.278 0 0 0-1.295-.504l-.05-.018c-.085-.03-.169-.062-.254-.093V16.9Z M4.446 19.664c.176-.752.607-2.055 1.293-3.91a4 4 0 0 1 2.993-2.54l5.778-1.116a.1.1 0 0 0 0-.196l-5.765-1.117a4 4 0 0 1-2.988-2.53c-.695-1.87-1.133-3.185-1.31-3.945l-.108-.454c-.468-1.965-.55-2.31 1.214-1.318 1.293.727 6.312 3.488 10.113 5.578l4.005 2.204c1.568.866 2.333 1.261 2.329 1.65-.003.298-.46.592-1.353 1.092a6.501 6.501 0 0 0-9.087 5.05c-2.647 1.47-5.098 2.828-6.007 3.323-1.792.976-1.723.702-1.312-.936.063-.247.133-.525.205-.835Z"/></svg>
