<svg width="24" height="24" viewBox="0 0 24 24" fill="none" xmlns="http://www.w3.org/2000/svg">
<path d="M7.91805 13C8.5962 13 9.05568 13.0887 9.5373 13.3463C10.0139 13.6012 10.3988 13.9861 10.6537 14.4627C10.8826 14.8908 10.9782 15.3014 10.9966 15.8637L11 16.082V18.7181C11 19.3962 10.9113 19.8557 10.6537 20.3373C10.3988 20.814 10.0139 21.1988 9.5373 21.4537C9.10919 21.6827 8.69858 21.7782 8.13633 21.7966L7.91805 21.8H5.28194C4.60379 21.8 4.14432 21.7113 3.6627 21.4537C3.18605 21.1988 2.80121 20.814 2.5463 20.3373C2.31735 19.9092 2.2218 19.4986 2.20339 18.9363L2.2 18.7181V16.082C2.2 15.4038 2.28873 14.9443 2.5463 14.4627C2.80121 13.9861 3.18605 13.6012 3.6627 13.3463C4.0908 13.1174 4.50141 13.0218 5.06366 13.0034L5.28194 13H7.91805ZM18.7181 13C19.3962 13 19.8557 13.0887 20.3373 13.3463C20.8139 13.6012 21.1988 13.9861 21.4537 14.4627C21.6826 14.8908 21.7782 15.3014 21.7966 15.8637L21.8 16.082V18.7181C21.8 19.3962 21.7113 19.8557 21.4537 20.3373C21.1988 20.814 20.8139 21.1988 20.3373 21.4537C19.9092 21.6827 19.4986 21.7782 18.9363 21.7966L18.7181 21.8H16.0819C15.4038 21.8 14.9443 21.7113 14.4627 21.4537C13.986 21.1988 13.6012 20.814 13.3463 20.3373C13.1173 19.9092 13.0218 19.4986 13.0034 18.9363L13 18.7181V16.082C13 15.4038 13.0887 14.9443 13.3463 14.4627C13.6012 13.9861 13.986 13.6012 14.4627 13.3463C14.8908 13.1174 15.3014 13.0218 15.8637 13.0034L16.0819 13H18.7181ZM7.91805 14.8H5.28194C4.83618 14.8 4.67454 14.8464 4.51157 14.9336C4.34861 15.0207 4.22072 15.1486 4.13356 15.3116C4.0573 15.4542 4.01224 15.5958 4.00216 15.9276L4 16.082V18.7181C4 19.1638 4.04641 19.3255 4.13356 19.4884C4.22072 19.6514 4.34861 19.7793 4.51157 19.8664C4.65417 19.9427 4.79575 19.9878 5.12754 19.9978L5.28194 20H7.91805C8.36381 20 8.52546 19.9536 8.68842 19.8664C8.85138 19.7793 8.97928 19.6514 9.06643 19.4884C9.14269 19.3458 9.18776 19.2043 9.19783 18.8725L9.2 18.7181V16.082C9.2 15.6362 9.15358 15.4745 9.06643 15.3116C8.97928 15.1486 8.85138 15.0207 8.68842 14.9336C8.52546 14.8464 8.36381 14.8 7.91805 14.8ZM18.7181 14.8H16.0819C15.6362 14.8 15.4745 14.8464 15.3116 14.9336C15.1486 15.0207 15.0207 15.1486 14.9336 15.3116C14.8573 15.4542 14.8122 15.5958 14.8022 15.9276L14.8 16.082V18.7181C14.8 19.1638 14.8464 19.3255 14.9336 19.4884C15.0207 19.6514 15.1486 19.7793 15.3116 19.8664C15.4542 19.9427 15.5957 19.9878 15.9275 19.9978L16.0819 20H18.7181C19.1638 20 19.3255 19.9536 19.4884 19.8664C19.6514 19.7793 19.7793 19.6514 19.8664 19.4884C19.9427 19.3458 19.9878 19.2043 19.9978 18.8725L20 18.7181V16.082C20 15.6362 19.9536 15.4745 19.8664 15.3116C19.7793 15.1486 19.6514 15.0207 19.4884 14.9336C19.3255 14.8464 19.1638 14.8 18.7181 14.8ZM18.1894 1.65662C18.6468 1.79525 19.0007 2.01329 19.4033 2.38688L19.5793 2.55673L21.4433 4.42074C21.9228 4.90026 22.185 5.28791 22.3434 5.81059C22.5002 6.32788 22.5002 6.87213 22.3434 7.38942C22.2048 7.84677 21.9867 8.20073 21.6131 8.60331L21.4433 8.77927L19.5793 10.6433C19.0997 11.1228 18.7121 11.385 18.1894 11.5434C17.6721 11.7002 17.1279 11.7002 16.6106 11.5434C16.1532 11.4048 15.7993 11.1867 15.3967 10.8131L15.2207 10.6433L13.3567 8.77927C12.8772 8.29975 12.615 7.91211 12.4566 7.38942C12.2998 6.87213 12.2998 6.32788 12.4566 5.81059C12.5952 5.35324 12.8133 4.99928 13.1869 4.5967L13.3567 4.42074L15.2207 2.55673C15.7003 2.07721 16.0879 1.81505 16.6106 1.65662C17.1279 1.49983 17.6721 1.49983 18.1894 1.65662ZM7.91805 2.20001C8.5962 2.20001 9.05568 2.28874 9.5373 2.54631C10.0139 2.80122 10.3988 3.18606 10.6537 3.66271C10.9113 4.14433 11 4.6038 11 5.28195V7.91806C11 8.59621 10.9113 9.05569 10.6537 9.53731C10.3988 10.014 10.0139 10.3988 9.5373 10.6537C9.05568 10.9113 8.5962 11 7.91805 11H5.28194C4.60379 11 4.14432 10.9113 3.6627 10.6537C3.18605 10.3988 2.80121 10.014 2.5463 9.53731C2.28873 9.05569 2.2 8.59621 2.2 7.91806V5.28195C2.2 4.6038 2.28873 4.14433 2.5463 3.66271C2.80121 3.18606 3.18605 2.80122 3.6627 2.54631C4.14432 2.28874 4.60379 2.20001 5.28194 2.20001H7.91805ZM17.1327 3.37924C16.978 3.42614 16.846 3.49439 16.6042 3.72187L16.4935 3.82952L14.6295 5.69354C14.3143 6.00874 14.2328 6.15585 14.1792 6.33271C14.1256 6.50957 14.1256 6.69044 14.1792 6.8673C14.2261 7.02205 14.2944 7.15403 14.5219 7.39577L14.6295 7.50648L16.4935 9.37049C16.8087 9.68569 16.9558 9.76717 17.1327 9.82078C17.3096 9.87438 17.4904 9.87438 17.6673 9.82078C17.822 9.77387 17.954 9.70563 18.1958 9.47814L18.3065 9.37049L20.1705 7.50648C20.4857 7.19128 20.5672 7.04416 20.6208 6.8673C20.6744 6.69044 20.6744 6.50957 20.6208 6.33271C20.5739 6.17796 20.5056 6.04598 20.2781 5.80424L20.1705 5.69354L18.3065 3.82952C17.9913 3.51432 17.8441 3.43284 17.6673 3.37924C17.4904 3.32563 17.3096 3.32563 17.1327 3.37924ZM7.91805 4.00001H5.28194C4.83618 4.00001 4.67454 4.04642 4.51157 4.13357C4.34861 4.22073 4.22072 4.34862 4.13356 4.51158C4.04641 4.67455 4 4.83619 4 5.28195V7.91806C4 8.36382 4.04641 8.52547 4.13356 8.68843C4.22072 8.85139 4.34861 8.97929 4.51157 9.06644C4.67454 9.15359 4.83618 9.20001 5.28194 9.20001H7.91805C8.36381 9.20001 8.52546 9.15359 8.68842 9.06644C8.85138 8.97929 8.97928 8.85139 9.06643 8.68843C9.15358 8.52547 9.2 8.36382 9.2 7.91806V5.28195C9.2 4.83619 9.15358 4.67455 9.06643 4.51158C8.97928 4.34862 8.85138 4.22073 8.68842 4.13357C8.52546 4.04642 8.36381 4.00001 7.91805 4.00001Z" fill="currentColor"/>
</svg>
