<svg xmlns="http://www.w3.org/2000/svg" width="24" height="24" fill="currentColor" viewBox="0 0 24 24"><path d="M12.636 2.264a.9.9 0 0 0-1.272 0l-4.2 4.2a.9.9 0 0 0 1.272 1.272L11.1 5.073V14.1a.9.9 0 0 0 1.8 0V5.073l2.664 2.663a.9.9 0 0 0 1.272-1.272l-4.2-4.2Z M5.8 13.9a.9.9 0 1 0-1.8 0v1.438c0 .808 0 1.469.044 2.006.045.556.142 1.058.381 1.526a3.9 3.9 0 0 0 1.704 1.705c.47.239.971.336 1.527.381C8.193 21 8.854 21 9.662 21h4.676c.808 0 1.469 0 2.006-.044.556-.045 1.058-.142 1.526-.381a3.9 3.9 0 0 0 1.705-1.704c.239-.47.336-.971.381-1.527.044-.537.044-1.198.044-2.006V13.9a.9.9 0 0 0-1.8 0v1.4c0 .855 0 1.442-.038 1.897-.036.445-.103.684-.19.856a2.1 2.1 0 0 1-.919.918c-.172.088-.411.155-.856.191-.455.037-1.042.038-1.897.038H9.7c-.855 0-1.442 0-1.897-.038-.445-.036-.684-.103-.856-.19a2.1 2.1 0 0 1-.918-.919c-.088-.172-.155-.411-.191-.856C5.8 16.742 5.8 16.155 5.8 15.3v-1.4Z"/></svg>
