<svg xmlns="http://www.w3.org/2000/svg" width="24" height="24" viewBox="0 0 24 24" fill="currentColor"><path d="M7.25 17.5a1.75 1.75 0 1 1 0 3.5 1.75 1.75 0 0 1 0-3.5m8.5 0a1.75 1.75 0 1 1 0 3.5 1.75 1.75 0 0 1 0-3.5M1.996 3c.414 0 .774 0 1.073.022.31.024.619.075.924.21a2.7 2.7 0 0 1 1.139.952c.097.142.17.29.231.441l6.206.478a.9.9 0 0 1-.138 1.794l-5.652-.435 1.107 6.121c.078.434.129.711.183.92.052.2.092.274.119.313a.9.9 0 0 0 .38.318c.043.019.123.045.328.06.216.017.498.017.939.017h6.245c1.083 0 2.05-.675 2.425-1.69a.9.9 0 0 1 1.69.623 4.385 4.385 0 0 1-4.115 2.867H8.835c-.415 0-.775 0-1.074-.022a2.7 2.7 0 0 1-.924-.21 2.7 2.7 0 0 1-1.139-.95 2.7 2.7 0 0 1-.37-.873 15 15 0 0 1-.213-1.053l-1.17-6.475c-.08-.434-.13-.712-.184-.921-.052-.198-.092-.273-.118-.312a.9.9 0 0 0-.38-.317c-.044-.02-.124-.045-.328-.06a14 14 0 0 0-.939-.017H1.9A.9.9 0 0 1 1.9 3zM18.1 2.1a.9.9 0 0 1 .9.9v2.1h2.1a.901.901 0 0 1 0 1.8H19V9a.9.9 0 1 1-1.8 0V6.9h-2.1a.9.9 0 0 1 0-1.8h2.1V3a.9.9 0 0 1 .9-.9"/></svg>