<svg xmlns="http://www.w3.org/2000/svg" width="24" height="24" fill="currentColor" viewBox="0 0 24 24"><path fill-rule="evenodd" d="M3.935 4.817a14.055 14.055 0 0 0-.94-.017H2.9a.9.9 0 0 1 0-1.8h.127c.401 0 .751 0 1.043.022.31.023.618.075.923.21a2.7 2.7 0 0 1 1.139.952c.094.138.167.28.227.427l11.586.362c.64.02 1.18.037 1.611.09.445.053.892.156 1.284.424a2.7 2.7 0 0 1 1.116 1.655c.101.465.03.917-.088 1.35-.113.42-.3.927-.522 1.527l-.511 1.387c-.495 1.345-.828 2.248-1.426 2.93a4.9 4.9 0 0 1-1.938 1.352c-.848.324-1.81.324-3.243.323H9.804c-.402 0-.752 0-1.043-.022a2.727 2.727 0 0 1-.924-.21 2.7 2.7 0 0 1-1.139-.951 2.726 2.726 0 0 1-.37-.872 14.876 14.876 0 0 1-.208-1.022L4.944 6.428a14.146 14.146 0 0 0-.183-.921c-.052-.199-.092-.273-.118-.312a.9.9 0 0 0-.38-.317c-.043-.02-.123-.046-.328-.061Zm2.838 1.608 1.113 6.158c.079.434.13.711.184.921.051.199.091.273.118.313a.9.9 0 0 0 .38.317c.042.019.123.045.328.06a14 14 0 0 0 .939.017h4.213c1.682 0 2.283-.014 2.78-.204a3.1 3.1 0 0 0 1.227-.855c.35-.401.571-.96 1.153-2.538l.435-1.179c.24-.649.398-1.08.487-1.412.089-.328.078-.449.067-.497a.9.9 0 0 0-.372-.552c-.04-.028-.149-.084-.486-.125-.342-.041-.8-.057-1.491-.078L6.773 6.425Z M10 19.25a1.75 1.75 0 1 1-3.5 0 1.75 1.75 0 0 1 3.5 0ZM16.75 21a1.75 1.75 0 1 0 0-3.5 1.75 1.75 0 0 0 0 3.5Z"/></svg>
