<svg xmlns="http://www.w3.org/2000/svg" width="24" height="24" fill="currentColor" viewBox="0 0 24 24"><path fill-rule="evenodd" d="M6.559 9.341c.94-2.553 2.963-5.091 5.866-5.091.68 0 1.302.184 1.79.601.485.415.74.977.848 1.555.209 1.116-.091 2.484-.63 3.797-.956 2.33-2.86 4.953-5.224 6.508l.002.003c.193.219.332.334.46.399.194.1.615.213 1.808-.258.4-.158.778-.32 1.136-.482-.035-1.15.394-2.444 1.051-3.486.816-1.291 2.184-2.505 3.95-2.505.729 0 1.507.296 1.822 1.103.276.705.052 1.478-.3 2.112-.644 1.157-2.033 2.466-4.192 3.668.034.02.071.037.11.053.3.123.826.174 1.617-.17a10.679 10.679 0 0 0 1.114-.57c.237-.134.508-.288.763-.385.334-.127.739-.2 1.191-.055.405.13.738.4 1.03.69a.923.923 0 1 1-1.306 1.306c-.13-.13-.21-.19-.252-.218l-.006.003c-.115.044-.254.122-.536.28l-.072.041c-.303.17-.691.384-1.19.6-1.13.492-2.185.542-3.053.186a2.766 2.766 0 0 1-1.164-.888c-.33.147-.676.292-1.035.434-1.36.537-2.42.65-3.33.183-.424-.217-.743-.528-1-.82a9.372 9.372 0 0 1-.221-.262l-.028.019c-.124.082-.256.17-.4.261-.38.244-.843.521-1.331.668-.517.156-1.143.189-1.748-.17-.566-.334-.958-.925-1.25-1.652a.923.923 0 0 1 1.715-.686c.221.554.411.712.476.75.026.016.081.049.274-.01.222-.066.498-.217.868-.454.095-.061.201-.13.313-.205l.034-.023c-.416-.824-.613-1.779-.652-2.74-.053-1.335.195-2.77.682-4.09Zm1.56 5.876c2.01-1.293 3.742-3.608 4.606-5.714.487-1.188.636-2.159.524-2.758-.053-.28-.15-.418-.234-.49-.08-.07-.244-.159-.59-.159-1.713 0-3.28 1.565-4.134 3.884-.411 1.116-.612 2.31-.569 3.378.03.725.168 1.354.397 1.86Zm6.467.122c1.642-.995 2.56-1.959 2.937-2.639a1.48 1.48 0 0 0 .185-.469 1.025 1.025 0 0 0-.092-.003c-.865 0-1.74.617-2.388 1.645a5.263 5.263 0 0 0-.642 1.466Zm3.21-3.089s-.006 0-.015-.007c.012.004.016.007.015.007Z" clip-rule="evenodd"/></svg>
