<svg xmlns="http://www.w3.org/2000/svg" width="24" height="24" fill="currentColor" viewBox="0 0 24 24"><path fill-rule="evenodd" d="M16.726 4.845C16.187 4.8 15.496 4.8 14.5 4.8H7.9a.9.9 0 1 1 0-1.8h6.639c.947 0 1.713 0 2.333.05.64.053 1.204.163 1.726.43a4.4 4.4 0 0 1 1.923 1.922c.266.523.377 1.087.429 1.726.05.62.05 1.386.05 2.334v5.076c0 .948 0 1.714-.05 2.334-.052.64-.163 1.203-.43 1.726a4.4 4.4 0 0 1-1.922 1.922c-.522.267-1.086.377-1.726.43-.62.05-1.386.05-2.333.05H7.9a.9.9 0 1 1 0-1.8h6.6c.995 0 1.687 0 2.226-.045.528-.043.828-.123 1.055-.238a2.6 2.6 0 0 0 1.136-1.137c.115-.226.196-.527.239-1.055.044-.538.044-1.23.044-2.225v-5c0-.995 0-1.687-.044-2.225-.043-.528-.124-.829-.239-1.055a2.6 2.6 0 0 0-1.136-1.137c-.227-.115-.527-.195-1.055-.238Z M7.76 11.17V8.907c0-.708.704-1.143 1.252-.774l4.594 3.093c.525.353.525 1.193 0 1.546l-4.594 3.093c-.548.369-1.252-.066-1.252-.774V12.83l-4.508 3.035C2.704 16.235 2 15.8 2 15.092V8.909c0-.708.704-1.143 1.252-.774L7.76 11.17Z"/></svg>
