<svg xmlns="http://www.w3.org/2000/svg" width="24" height="24" fill="currentColor" viewBox="0 0 24 24"><path fill-rule="evenodd" d="M8.343 2.1h7.314c.215 0 .428 0 .608.015.198.016.436.054.676.176.33.169.599.438.768.768.122.24.16.478.176.676.015.18.015.393.015.608v1.584l3.73 11.123.014.04c.063.186.148.435.14.75a1.8 1.8 0 0 1-.063.402 1.802 1.802 0 0 1-.145.381 1.828 1.828 0 0 1-.441.538l-.016.014C19.994 20.182 17.286 21.9 12 21.9s-7.994-1.718-9.12-2.725a1.645 1.645 0 0 0-.015-.014 1.833 1.833 0 0 1-.441-.538 1.803 1.803 0 0 1-.145-.381 1.802 1.802 0 0 1-.062-.403c-.008-.314.076-.563.139-.75l.013-.039L6.1 5.927V4.343c0-.215 0-.428.015-.608a1.76 1.76 0 0 1 .177-.676c.168-.33.437-.599.767-.768.24-.122.478-.16.676-.176.18-.015.393-.015.608-.015ZM7.9 5.6h8.2V4.371c0-.233 0-.368-.007-.464a8.257 8.257 0 0 0-.464-.007H8.37c-.233 0-.368 0-.464.007-.006.096-.007.23-.007.464V5.6Zm-.395 1.8-3.43 10.223a8.15 8.15 0 0 0-.051.159l.058.052c.468.42 1.472 1.148 3.242 1.666L9.22 7.4H7.505Zm3.537 0L9.085 19.888c.848.132 1.815.212 2.915.212s2.067-.08 2.915-.212L12.958 7.4h-1.916Zm3.738 0 1.896 12.1c1.77-.518 2.774-1.246 3.242-1.666l.058-.052a7.748 7.748 0 0 0-.052-.16L16.495 7.4H14.78Z" clip-rule="evenodd"/></svg>
