<svg fill="none" height="24" viewBox="0 0 24 24" width="24" xmlns="http://www.w3.org/2000/svg"><path clip-rule="evenodd" d="m12 2c5.5228 0 10 4.47715 10 10 0 5.5228-4.4772 10-10 10-5.52285 0-10-4.4772-10-10 0-5.52285 4.47715-10 10-10zm2.8892 12.0546c-.1136.159-.241.3095-.3816.4501-1.385 1.385-3.6307 1.3849-5.01583-.0003-.14051-.1405-.26779-.2907-.38131-.4496-.3213-.4495-.94611-.5534-1.39555-.2322-.44945.3212-.55334.946-.23205 1.3955.17743.2483.37592.4826.59429.7009 2.16655 2.1666 5.67895 2.1668 7.84525.0005.2186-.2186.4173-.4532.5948-.7017.3212-.4495.2171-1.0743-.2325-1.3955s-1.0743-.2172-1.3955.2323zm-6.3892-5.5546c-.82843 0-1.5.67157-1.5 1.5 0 .8284.67157 1.5 1.5 1.5s1.5-.6716 1.5-1.5c0-.82843-.67157-1.5-1.5-1.5zm7 0c-.8284 0-1.5.67157-1.5 1.5 0 .8284.6716 1.5 1.5 1.5s1.5-.6716 1.5-1.5c0-.82843-.6716-1.5-1.5-1.5z" fill="currentColor" fill-rule="evenodd"/></svg>
