<svg xmlns="http://www.w3.org/2000/svg" width="24" height="24" fill="none" viewBox="0 0 24 24"><path fill="currentColor" fill-rule="evenodd" d="M6.7195 3.5818C7.849 2.371 9.8781 3.1698 9.878 4.8261c0 .2776.118.5923.3253.8345.2058.2405.4347.3394.6235.3394h1.9557l-.3872-1.6383-.0004-.0016-.0594-.253a.9.9 0 0 1 .6704-1.082.9.9 0 0 1 1.0819.6703l.0585.249.0004.0017.0003.0012 1.6126 6.768a2.1004 2.1004 0 0 0 1.379 1.5056l2.1926.7307c2.2676.7558 3.4018 2.7209 3.1229 4.6037-.2862 1.9311-1.9919 3.4421-4.666 3.4421h-4.2052a6.9013 6.9013 0 0 1-4.9094-2.0509l-5.4083-5.4742c-1.6588-1.679-1.6974-4.3674-.0876-6.0933l3.542-3.7972ZM13.2146 7.8l.2867 1.2031-2.8708.9006a.9.9 0 1 0 .5388 1.7175l2.7502-.8628.0892.3742c.091.3819.2376.7423.4313 1.0718l-.8657.3368a.9.9 0 0 0 .6526 1.6775l1.6052-.6244c.2311.1353.4778.2478.7374.3343l2.1925.7307c1.5082.5026 2.052 1.6836 1.9115 2.6321-.1334.9003-.9448 1.906-2.8854 1.906h-4.2052a5.101 5.101 0 0 1-3.6289-1.5159l-5.4084-5.4743c-.9801-.9921-1.003-2.5806-.0517-3.6004l3.5419-3.7972a.0836.0836 0 0 1 .0093-.0088L8.0463 4.8a.045.045 0 0 1 .0163.0035.0451.0451 0 0 1 .0144.0085l.0002.0014a.0824.0824 0 0 1 .0008.0127c0 .7433.296 1.4655.7578 2.005.4633.5412 1.1588.9689 1.991.9689h2.3878Z" clip-rule="evenodd"/></svg>
