<svg xmlns="http://www.w3.org/2000/svg" width="24" height="24" fill="currentColor" viewBox="0 0 24 24"><path d="M8.876 2.256a.9.9 0 0 1 1.272.024L12 4.202l1.852-1.922a.9.9 0 0 1 1.296 1.248L12.9 5.863v4.576l3.92-2.276.808-3.184a.9.9 0 0 1 1.744.442l-.682 2.693 2.645.717a.9.9 0 1 1-.47 1.738l-3.138-.851-3.934 2.284 3.934 2.284 3.137-.854a.9.9 0 0 1 .472 1.736l-2.623.715.753 2.673a.9.9 0 1 1-1.732.488l-.901-3.196-3.933-2.283v4.572l2.249 2.34a.9.9 0 0 1-1.298 1.247l-1.85-1.925-1.852 1.925a.9.9 0 0 1-1.298-1.248l2.25-2.338v-4.573l-3.922 2.274-.807 3.182a.9.9 0 0 1-1.744-.442l.682-2.692-2.646-.719a.9.9 0 1 1 .472-1.736l3.137.852 3.934-2.282L6.273 9.72l-3.138.849a.9.9 0 0 1-.47-1.738l2.645-.716-.682-2.694a.9.9 0 1 1 1.744-.442l.807 3.186 3.921 2.274V5.863L8.852 3.528a.9.9 0 0 1 .024-1.272Z"/></svg>
