<svg xmlns="http://www.w3.org/2000/svg" width="24" height="24" fill="currentColor" viewBox="0 0 24 24"><path d="M3.9 17.7a.9.9 0 0 0-.091 1.795l.091.005h6.5a.9.9 0 0 0 0-1.8H3.9Zm0-6.6a.9.9 0 0 0 0 1.8h5a.9.9 0 0 0 0-1.8h-5Zm0-6.587-.091.005A.896.896 0 0 0 3 5.406c0 .494.403.894.9.894h3.5c.497 0 .9-.4.9-.894a.897.897 0 0 0-.9-.893s-2.915-.03-3.5 0ZM16.532 19.5c-.497 0-.9-.4-.9-.894l-.028-11.098-2.068 2.055a.904.904 0 0 1-1.272 0 .89.89 0 0 1 0-1.265l3.529-3.507a1.004 1.004 0 0 1 1.414 0l3.53 3.507a.89.89 0 0 1 0 1.265.904.904 0 0 1-1.273 0l-2.06-2.046.028 11.089a.897.897 0 0 1-.9.894Z"/></svg>