<svg xmlns="http://www.w3.org/2000/svg" width="24" height="24" fill="currentColor" viewBox="0 0 24 24"><path d="M3.9 6.3a.9.9 0 0 1-.091-1.795L3.9 4.5h6.5a.9.9 0 0 1 0 1.8H3.9Zm0 6.6a.9.9 0 0 1 0-1.8h5a.9.9 0 0 1 0 1.8h-5Zm0 6.587-.091-.005A.896.896 0 0 1 3 18.593c0-.493.403-.893.9-.893h3.5c.497 0 .9.4.9.893a.897.897 0 0 1-.9.894s-2.915.03-3.5 0ZM16.532 4.5c-.497 0-.9.4-.9.894l-.028 11.098-2.068-2.055a.904.904 0 0 0-1.272 0 .89.89 0 0 0 0 1.265l3.529 3.507c.39.388 1.024.388 1.414 0l3.53-3.507a.89.89 0 0 0 0-1.265.904.904 0 0 0-1.273 0l-2.06 2.046.028-11.089a.897.897 0 0 0-.9-.894Z"/></svg>