<?xml version="1.0" encoding="UTF-8"?>
<svg width="24px" height="24px" viewBox="0 0 24 24" version="1.1" xmlns="http://www.w3.org/2000/svg" xmlns:xlink="http://www.w3.org/1999/xlink">
    <!-- Generator: Sketch 50.2 (55047) - http://www.bohemiancoding.com/sketch -->
    <title>sort_24</title>
    <desc>Created with Sketch.</desc>
    <defs></defs>
    <g id="Page-2" stroke="none" stroke-width="1" fill="none" fill-rule="evenodd">
        <g id="sort_24">
            <polygon id="Shape" points="0 0 24 0 24 24 0 24"></polygon>
            <path d="M19.5028467,4 L4.49715333,4 C4.22101096,4 3.99715333,4.22385763 3.99715333,4.5 C3.99715333,4.62172712 4.04155953,4.73927344 4.12204436,4.83059531 L9.95004359,11.4433171 C9.98223752,11.4798459 10,11.5268644 10,11.5755552 L10,19.7499405 C10,19.8880117 10.1119288,19.9999405 10.25,19.9999405 C10.2916365,19.9999405 10.3326137,19.9895414 10.3692116,19.9696872 L13.7907386,18.1135234 C13.9196904,18.0435676 14,17.9086339 14,17.7619288 L14,11.5755552 C14,11.5268644 14.0177625,11.4798459 14.0499564,11.4433171 L19.8779556,4.83059531 C20.0605384,4.62342834 20.0406089,4.30747377 19.833442,4.12489103 C19.7421201,4.0444062 19.6245738,4 19.5028467,4 Z" id="Mask" fill="currentColor"></path>
        </g>
    </g>
</svg>
