<svg xmlns="http://www.w3.org/2000/svg" width="24" height="24" fill="currentColor" viewBox="0 0 24 24"><path fill-rule="evenodd" d="m14.444 11.41-1.5-9.601c-.168-1.079-1.72-1.079-1.889 0l-1.5 9.601a2.528 2.528 0 0 0-.02.162 2.5 2.5 0 1 0 4.929 0 2.549 2.549 0 0 0-.02-.162Zm-1.544.585a.9.9 0 1 1-1.8 0 .9.9 0 0 1 1.8 0Z M8.81 3.427a.9.9 0 0 1-.412 1.205 8.188 8.188 0 0 0-2.196 1.57A8.172 8.172 0 0 0 3.8 12c0 1.702.517 3.28 1.403 4.589a.917.917 0 0 1-.25 1.263.892.892 0 0 1-1.24-.254A9.958 9.958 0 0 1 2 12a9.972 9.972 0 0 1 2.929-7.07 10.043 10.043 0 0 1 2.677-1.914.9.9 0 0 1 1.204.412Zm6.38 0a.9.9 0 0 0 .412 1.205 8.192 8.192 0 0 1 2.196 1.57A8.171 8.171 0 0 1 20.2 12c0 1.702-.517 3.28-1.403 4.589a.917.917 0 0 0 .25 1.263.892.892 0 0 0 1.24-.254A9.958 9.958 0 0 0 22 12a9.972 9.972 0 0 0-2.929-7.071 10.046 10.046 0 0 0-2.677-1.914.9.9 0 0 0-1.204.412Z"/></svg>
