<svg xmlns="http://www.w3.org/2000/svg" width="24" height="24" fill="currentColor" viewBox="0 0 24 24"><path d="M10.8 7.8a1.2 1.2 0 1 1 2.4 0 1.2 1.2 0 0 1-2.4 0Zm0 8.4a1.2 1.2 0 1 1 2.4 0 1.2 1.2 0 0 1-2.4 0ZM6.6 12A1.2 1.2 0 1 1 9 12a1.2 1.2 0 0 1-2.4 0Zm8.4 0a1.2 1.2 0 1 1 2.4 0 1.2 1.2 0 0 1-2.4 0Z M9.462 3h5.076c.948 0 1.714 0 2.334.05.64.053 1.203.163 1.726.43a4.4 4.4 0 0 1 1.922 1.922c.267.523.377 1.087.43 1.726.05.62.05 1.386.05 2.334v5.076c0 .948 0 1.714-.05 2.334-.053.64-.163 1.203-.43 1.726a4.4 4.4 0 0 1-1.922 1.922c-.523.267-1.087.377-1.726.43-.62.05-1.386.05-2.334.05H9.462c-.948 0-1.714 0-2.334-.05-.64-.053-1.203-.163-1.726-.43a4.4 4.4 0 0 1-1.922-1.922c-.267-.523-.377-1.087-.43-1.726C3 16.252 3 15.486 3 14.538V9.462c0-.948 0-1.714.05-2.334.053-.64.163-1.203.43-1.726A4.4 4.4 0 0 1 5.402 3.48c.523-.267 1.087-.377 1.726-.43C7.748 3 8.514 3 9.462 3ZM7.275 4.845c-.528.043-.829.123-1.055.238A2.6 2.6 0 0 0 5.083 6.22c-.115.226-.195.527-.238 1.054C4.8 7.813 4.8 8.505 4.8 9.5v5c0 .995 0 1.687.045 2.226.043.527.123.828.238 1.054a2.6 2.6 0 0 0 1.137 1.137c.226.115.527.195 1.055.238.538.044 1.23.045 2.225.045h5c.995 0 1.687 0 2.226-.045.527-.043.828-.123 1.054-.238a2.6 2.6 0 0 0 1.137-1.137c.115-.226.195-.527.238-1.055.044-.538.045-1.23.045-2.225v-5c0-.995 0-1.687-.045-2.226-.043-.527-.123-.828-.238-1.054a2.6 2.6 0 0 0-1.137-1.137c-.226-.115-.527-.195-1.055-.238-.538-.044-1.23-.045-2.225-.045h-5c-.995 0-1.687 0-2.225.045Z M10.5 12a1.5 1.5 0 1 1 3 0 1.5 1.5 0 0 1-3 0ZM6.9 7.8a.9.9 0 1 1 1.8 0 .9.9 0 0 1-1.8 0Zm0 8.4a.9.9 0 1 1 1.8 0 .9.9 0 0 1-1.8 0Zm8.4 0a.9.9 0 1 1 1.8 0 .9.9 0 0 1-1.8 0Zm0-8.4a.9.9 0 1 1 1.8 0 .9.9 0 0 1-1.8 0Z"/></svg>
