<svg xmlns="http://www.w3.org/2000/svg" width="24" height="24" fill="none" viewBox="0 0 24 24"><path fill="currentColor" fill-rule="evenodd" d="M3 5c0-.7 0-1.0501.1362-1.3175a1.25 1.25 0 0 1 .5463-.5463C3.95 3 4.3 3 5 3c.7 0 1.0501 0 1.3175.1362a1.25 1.25 0 0 1 .5463.5463C7 3.95 7 4.3 7 5c0 .7 0 1.0501-.1362 1.3175a1.25 1.25 0 0 1-.5463.5463C6.05 7 5.7 7 5 7c-.7 0-1.0501 0-1.3175-.1362a1.25 1.25 0 0 1-.5463-.5463C3 6.05 3 5.7 3 5Zm0 7c0-.7001 0-1.0501.1362-1.3175a1.2504 1.2504 0 0 1 .5463-.5463C3.95 10 4.3 10 5 10c.7 0 1.0501 0 1.3175.1362.2352.1199.4264.3111.5463.5463C7 10.9499 7 11.2999 7 12s0 1.0501-.1362 1.3175a1.2504 1.2504 0 0 1-.5463.5463C6.05 14 5.7 14 5 14c-.7 0-1.0501 0-1.3175-.1362a1.2504 1.2504 0 0 1-.5463-.5463C3 13.0501 3 12.7001 3 12Zm.1362 5.6825C3 17.9499 3 18.2999 3 19s0 1.0501.1362 1.3175c.1199.2352.3111.4264.5463.5463C3.95 21 4.3 21 5 21c.7 0 1.0501 0 1.3175-.1362a1.2504 1.2504 0 0 0 .5463-.5463C7 20.0501 7 19.7001 7 19s0-1.0501-.1362-1.3175a1.2504 1.2504 0 0 0-.5463-.5463C6.05 17 5.7 17 5 17c-.7 0-1.0501 0-1.3175.1362a1.2504 1.2504 0 0 0-.5463.5463ZM10 5c0-.7 0-1.0501.1362-1.3175a1.2504 1.2504 0 0 1 .5463-.5463C10.9499 3 11.2999 3 12 3s1.0501 0 1.3175.1362c.2352.1199.4264.3111.5463.5463C14 3.95 14 4.3 14 5c0 .7 0 1.0501-.1362 1.3175a1.2504 1.2504 0 0 1-.5463.5463C13.0501 7 12.7001 7 12 7s-1.0501 0-1.3175-.1362a1.2504 1.2504 0 0 1-.5463-.5463C10 6.05 10 5.7 10 5Zm.1362 5.6825C10 10.9499 10 11.2999 10 12s0 1.0501.1362 1.3175c.1199.2352.3111.4264.5463.5463C10.9499 14 11.2999 14 12 14s1.0501 0 1.3175-.1362a1.2508 1.2508 0 0 0 .5463-.5463C14 13.0501 14 12.7001 14 12s0-1.0501-.1362-1.3175a1.2508 1.2508 0 0 0-.5463-.5463C13.0501 10 12.7001 10 12 10s-1.0501 0-1.3175.1362a1.2508 1.2508 0 0 0-.5463.5463ZM10 19c0-.7001 0-1.0501.1362-1.3175a1.2508 1.2508 0 0 1 .5463-.5463C10.9499 17 11.2999 17 12 17s1.0501 0 1.3175.1362c.2352.1199.4264.3111.5463.5463C14 17.9499 14 18.2999 14 19s0 1.0501-.1362 1.3175a1.2508 1.2508 0 0 1-.5463.5463C13.0501 21 12.7001 21 12 21s-1.0501 0-1.3175-.1362a1.2508 1.2508 0 0 1-.5463-.5463C10 20.0501 10 19.7001 10 19Zm7.1362-15.3175C17 3.95 17 4.3 17 5c0 .7 0 1.0501.1362 1.3175.1199.2352.3111.4264.5463.5463C17.9499 7 18.2999 7 19 7s1.0501 0 1.3175-.1362a1.2504 1.2504 0 0 0 .5463-.5463C21 6.05 21 5.7 21 5c0-.7 0-1.0501-.1362-1.3175a1.2504 1.2504 0 0 0-.5463-.5463C20.0501 3 19.7001 3 19 3s-1.0501 0-1.3175.1362a1.2504 1.2504 0 0 0-.5463.5463ZM17 12c0-.7001 0-1.0501.1362-1.3175a1.2508 1.2508 0 0 1 .5463-.5463C17.9499 10 18.2999 10 19 10s1.0501 0 1.3175.1362c.2352.1199.4264.3111.5463.5463C21 10.9499 21 11.2999 21 12s0 1.0501-.1362 1.3175a1.2508 1.2508 0 0 1-.5463.5463C20.0501 14 19.7001 14 19 14s-1.0501 0-1.3175-.1362a1.2508 1.2508 0 0 1-.5463-.5463C17 13.0501 17 12.7001 17 12Zm.1362 5.6825C17 17.9499 17 18.2999 17 19s0 1.0501.1362 1.3175c.1199.2352.3111.4264.5463.5463C17.9499 21 18.2999 21 19 21s1.0501 0 1.3175-.1362a1.2508 1.2508 0 0 0 .5463-.5463C21 20.0501 21 19.7001 21 19s0-1.0501-.1362-1.3175a1.2508 1.2508 0 0 0-.5463-.5463C20.0501 17 19.7001 17 19 17s-1.0501 0-1.3175.1362a1.2508 1.2508 0 0 0-.5463.5463Z" clip-rule="evenodd"/></svg>
