<svg xmlns="http://www.w3.org/2000/svg" width="24" height="24" fill="currentColor" viewBox="0 0 24 24"><path d="M5.564 3h2.872c.892 0 1.215.093 1.54.267.327.174.583.43.757.756.174.326.267.65.267 1.54v2.873c0 .892-.093 1.215-.267 1.54a1.81 1.81 0 0 1-.756.757c-.326.174-.65.267-1.54.267H5.563c-.892 0-1.215-.093-1.54-.267a1.817 1.817 0 0 1-.757-.756C3.093 9.65 3 9.327 3 8.437V5.563c0-.892.093-1.215.267-1.54a1.81 1.81 0 0 1 .756-.757c.326-.174.65-.267 1.54-.267Zm10 0h2.872c.892 0 1.215.093 1.54.267.327.174.583.43.757.756.174.326.267.65.267 1.54v2.873c0 .892-.093 1.215-.267 1.54a1.81 1.81 0 0 1-.756.757c-.326.174-.65.267-1.54.267h-2.873c-.892 0-1.215-.093-1.54-.267a1.817 1.817 0 0 1-.757-.756c-.174-.326-.267-.65-.267-1.54V5.563c0-.892.093-1.215.267-1.54a1.81 1.81 0 0 1 .756-.757c.326-.174.65-.267 1.54-.267Zm-10 10h2.872c.892 0 1.215.093 1.54.267.327.174.583.43.757.756.174.326.267.65.267 1.54v2.873c0 .892-.093 1.215-.267 1.54a1.81 1.81 0 0 1-.756.757c-.326.174-.65.267-1.54.267H5.563c-.892 0-1.215-.093-1.54-.267a1.817 1.817 0 0 1-.757-.756c-.174-.326-.267-.65-.267-1.54v-2.873c0-.892.093-1.215.267-1.54a1.81 1.81 0 0 1 .756-.757c.326-.174.65-.267 1.54-.267Zm10 0h2.872c.892 0 1.215.093 1.54.267.327.174.583.43.757.756.174.326.267.65.267 1.54v2.873c0 .892-.093 1.215-.267 1.54a1.81 1.81 0 0 1-.756.757c-.326.174-.65.267-1.54.267h-2.873c-.892 0-1.215-.093-1.54-.267a1.817 1.817 0 0 1-.757-.756c-.174-.326-.267-.65-.267-1.54v-2.873c0-.892.093-1.215.267-1.54a1.81 1.81 0 0 1 .756-.757c.326-.174.65-.267 1.54-.267Z"/></svg>
