<svg xmlns="http://www.w3.org/2000/svg" width="24" height="24" fill="currentColor" viewBox="0 0 24 24"><path fill-rule="evenodd" d="M14.538 3H9.462c-.948 0-1.714 0-2.334.05-.64.053-1.203.164-1.726.43A4.4 4.4 0 0 0 3.48 5.403c-.267.522-.377 1.086-.43 1.725C3 7.748 3 8.514 3 9.462v5.077c0 .947 0 1.713.05 2.333.053.64.163 1.203.43 1.726a4.4 4.4 0 0 0 1.922 1.923c.523.266 1.087.376 1.726.428.62.051 1.386.051 2.334.051h5.076c.948 0 1.714 0 2.334-.05.64-.053 1.203-.163 1.726-.43a4.4 4.4 0 0 0 1.922-1.922c.267-.523.377-1.086.43-1.726.05-.62.05-1.386.05-2.333V9.462c0-.948 0-1.714-.05-2.334-.053-.64-.163-1.203-.43-1.725a4.4 4.4 0 0 0-1.922-1.923c-.523-.266-1.087-.377-1.726-.43C16.252 3 15.486 3 14.538 3ZM6.22 5.084c.226-.116.527-.196 1.054-.24C7.813 4.802 8.505 4.8 9.5 4.8H14v6.3H4.8V9.5c0-.995 0-1.687.045-2.225.043-.528.123-.829.238-1.055A2.6 2.6 0 0 1 6.22 5.084ZM4.8 12.9v1.6c0 .995 0 1.687.045 2.226.043.528.123.828.238 1.055a2.6 2.6 0 0 0 1.137 1.136c.226.115.527.195 1.054.238.539.044 1.231.045 2.226.045H14v-6.3H4.8Zm11-4.7V4.806c.358.006.66.017.925.039.528.043.83.123 1.055.239a2.6 2.6 0 0 1 1.137 1.136c.115.226.195.527.238 1.055.022.265.033.567.039.925H15.8Zm0 5.8v-4h3.4v4h-3.4Zm0 5.194V15.8h3.394c-.006.358-.017.66-.039.926-.043.528-.123.828-.238 1.055a2.6 2.6 0 0 1-1.137 1.136c-.226.115-.527.195-1.055.238-.265.022-.567.033-.925.039Z" clip-rule="evenodd"/></svg>
