<svg xmlns="http://www.w3.org/2000/svg" width="24" height="24" fill="currentColor" viewBox="0 0 24 24"><path fill-rule="evenodd" d="M9.461 3h5.077c.948 0 1.714 0 2.334.05.64.053 1.203.163 1.726.43a4.4 4.4 0 0 1 1.922 1.922c.267.523.377 1.087.43 1.726.05.62.05 1.386.05 2.334v5.076c0 .948 0 1.714-.05 2.334-.053.64-.163 1.203-.43 1.726a4.4 4.4 0 0 1-1.922 1.922c-.523.267-1.087.377-1.726.43-.62.05-1.386.05-2.334.05H9.461c-.947 0-1.713 0-2.333-.05-.64-.053-1.203-.163-1.726-.43a4.4 4.4 0 0 1-1.923-1.922c-.266-.523-.376-1.087-.428-1.726C3 16.252 3 15.486 3 14.538V9.462c0-.948 0-1.714.05-2.334.053-.64.163-1.203.43-1.726A4.4 4.4 0 0 1 5.401 3.48c.523-.267 1.087-.377 1.726-.43C7.748 3 8.514 3 9.46 3ZM7.274 4.845c-.528.043-.828.123-1.054.238A2.6 2.6 0 0 0 5.083 6.22c-.115.226-.195.527-.238 1.054C4.8 7.813 4.8 8.505 4.8 9.5v5c0 .995 0 1.687.045 2.226.043.527.123.828.238 1.054a2.6 2.6 0 0 0 1.137 1.137c.226.115.526.195 1.054.238.539.044 1.231.045 2.226.045h5c.995 0 1.687 0 2.225-.045.528-.043.829-.123 1.055-.238a2.6 2.6 0 0 0 1.136-1.137c.116-.226.196-.527.24-1.055.043-.538.044-1.23.044-2.225v-5c0-.995 0-1.687-.045-2.226-.043-.527-.123-.828-.239-1.054a2.6 2.6 0 0 0-1.136-1.137c-.226-.115-.527-.195-1.055-.238-.538-.044-1.23-.045-2.225-.045h-5c-.995 0-1.687 0-2.226.045Z" clip-rule="evenodd"/></svg>
