<svg xmlns="http://www.w3.org/2000/svg" width="24" height="24" fill="currentColor" viewBox="0 0 24 24"><path fill-rule="evenodd" d="M14.538 3H9.462c-.948 0-1.714 0-2.334.05-.64.053-1.203.164-1.726.43A4.4 4.4 0 0 0 3.48 5.403c-.267.522-.377 1.086-.43 1.725C3 7.748 3 8.514 3 9.462v5.077c0 .947 0 1.713.05 2.333.053.64.163 1.203.43 1.726a4.4 4.4 0 0 0 1.922 1.923c.523.266 1.087.376 1.726.428.62.051 1.386.051 2.334.051h5.076c.948 0 1.714 0 2.334-.05.64-.053 1.203-.163 1.726-.43a4.4 4.4 0 0 0 1.922-1.922c.267-.523.377-1.086.43-1.726.05-.62.05-1.386.05-2.333V9.462c0-.948 0-1.714-.05-2.334-.053-.64-.163-1.203-.43-1.725a4.4 4.4 0 0 0-1.922-1.923c-.523-.266-1.087-.377-1.726-.43C16.252 3 15.486 3 14.538 3ZM7.2 4.851c-.482.045-.765.123-.98.233A2.6 2.6 0 0 0 5.083 6.22c-.115.226-.195.527-.238 1.055C4.8 7.813 4.8 8.505 4.8 9.5v5c0 .995 0 1.687.045 2.226.043.528.123.828.238 1.055a2.6 2.6 0 0 0 1.137 1.136c.215.11.498.188.98.232V4.851ZM9 19.2h6v-2.4H9v2.4ZM9 15V9h6v6H9Zm0-7.8h6V4.8H9v2.4Zm7.8-2.349V19.15c.482-.044.765-.123.98-.232a2.6 2.6 0 0 0 1.137-1.137c.115-.226.195-.526.238-1.054.044-.539.045-1.23.045-2.226v-5c0-.995 0-1.687-.045-2.225-.043-.528-.123-.829-.238-1.055a2.6 2.6 0 0 0-1.137-1.136c-.215-.11-.498-.188-.98-.233Z" clip-rule="evenodd"/></svg>
