<svg xmlns="http://www.w3.org/2000/svg" width="24" height="24" fill="currentColor" viewBox="0 0 24 24"><path fill-rule="evenodd" d="M6.267 3h1.466c.392 0 .738 0 1.025.023.306.025.623.081.932.239a2.4 2.4 0 0 1 1.048 1.048c.158.309.213.626.239.932.023.287.023.633.023 1.025v1.466c0 .392 0 .738-.024 1.026-.025.305-.08.622-.238.93a2.4 2.4 0 0 1-1.048 1.05 2.448 2.448 0 0 1-.932.238A13.42 13.42 0 0 1 7.733 11H6.267c-.392 0-.738 0-1.026-.023-.305-.025-.622-.081-.93-.239A2.4 2.4 0 0 1 3.26 9.69a2.447 2.447 0 0 1-.238-.931C3 8.47 3 8.125 3 7.733V6.267c0-.392 0-.738.023-1.025.025-.306.081-.623.239-.932A2.4 2.4 0 0 1 4.31 3.262c.309-.158.626-.214.931-.239C5.53 3 5.875 3 6.267 3Zm-.879 1.817c-.194.016-.248.042-.26.048a.6.6 0 0 0-.263.263c-.006.012-.032.066-.048.26A13.19 13.19 0 0 0 4.8 6.3v1.4c0 .435 0 .707.017.912.016.194.042.248.048.26a.6.6 0 0 0 .263.263c.012.006.066.032.26.048.205.016.477.017.912.017h1.4c.435 0 .707 0 .912-.017.194-.016.248-.042.26-.048a.6.6 0 0 0 .263-.263c.006-.012.032-.066.048-.26.016-.205.017-.477.017-.912V6.3c0-.435 0-.707-.017-.912-.016-.194-.042-.248-.048-.26a.6.6 0 0 0-.263-.263c-.012-.006-.066-.032-.26-.048A12.65 12.65 0 0 0 7.7 4.8H6.3c-.435 0-.707 0-.912.017ZM6.267 13h1.466c.392 0 .738 0 1.025.023.306.025.623.081.932.239a2.4 2.4 0 0 1 1.048 1.048c.158.309.214.626.239.931.023.288.023.634.023 1.026v1.466c0 .392 0 .738-.023 1.026-.025.305-.081.622-.239.93a2.4 2.4 0 0 1-1.048 1.05 2.448 2.448 0 0 1-.932.238C8.471 21 8.125 21 7.733 21H6.267c-.392 0-.738 0-1.025-.023-.306-.025-.623-.081-.932-.239a2.4 2.4 0 0 1-1.048-1.048 2.439 2.439 0 0 1-.239-.931A13.482 13.482 0 0 1 3 17.733v-1.466c0-.392 0-.738.023-1.025.025-.306.081-.623.239-.932a2.4 2.4 0 0 1 1.048-1.048c.309-.158.626-.214.932-.239C5.529 13 5.875 13 6.267 13Zm-.879 1.818c-.194.015-.248.041-.26.047a.6.6 0 0 0-.263.263c-.006.012-.032.066-.048.26a12.65 12.65 0 0 0-.017.912v1.4c0 .435 0 .707.017.912.016.194.042.248.048.26a.6.6 0 0 0 .263.263c.012.006.066.032.26.048.205.016.477.017.912.017h1.4c.435 0 .707 0 .912-.017.194-.016.248-.042.26-.048a.6.6 0 0 0 .263-.263c.006-.012.032-.066.048-.26.016-.205.017-.477.017-.912v-1.4c0-.435 0-.707-.017-.912-.016-.194-.042-.248-.048-.26a.6.6 0 0 0-.263-.263c-.012-.006-.066-.032-.26-.047A12.613 12.613 0 0 0 7.7 14.8H6.3c-.435 0-.707 0-.912.018ZM16.267 3h1.466c.392 0 .738 0 1.025.023.306.025.623.081.931.239a2.4 2.4 0 0 1 1.05 1.048c.156.309.212.626.238.932.023.287.023.633.023 1.025v1.466c0 .392 0 .738-.023 1.026-.026.305-.082.622-.239.93a2.4 2.4 0 0 1-1.049 1.05 2.438 2.438 0 0 1-.93.238c-.288.023-.634.023-1.026.023h-1.466c-.392 0-.738 0-1.025-.023-.306-.025-.623-.081-.932-.239a2.4 2.4 0 0 1-1.049-1.048 2.447 2.447 0 0 1-.238-.931A13.42 13.42 0 0 1 13 7.732V6.267c0-.392 0-.738.023-1.025.025-.306.081-.623.239-.932a2.4 2.4 0 0 1 1.048-1.048c.309-.158.626-.214.931-.239C15.53 3 15.876 3 16.268 3Zm-.879 1.817c-.194.016-.248.042-.26.048a.6.6 0 0 0-.263.263c-.006.012-.032.066-.048.26a13.19 13.19 0 0 0-.017.912v1.4c0 .435 0 .707.017.912.016.194.042.248.048.26a.6.6 0 0 0 .263.263c.012.006.066.032.26.048.205.016.477.017.912.017h1.4c.435 0 .707 0 .912-.017.194-.016.248-.042.26-.048a.6.6 0 0 0 .263-.263c.006-.012.032-.066.047-.26.017-.205.018-.477.018-.912V6.3c0-.435 0-.707-.017-.912-.016-.194-.042-.248-.048-.26a.6.6 0 0 0-.263-.263c-.012-.006-.066-.032-.26-.048A12.66 12.66 0 0 0 17.7 4.8h-1.4c-.435 0-.707 0-.912.017ZM16.267 13h1.466c.392 0 .738 0 1.025.023.306.025.623.081.931.239a2.4 2.4 0 0 1 1.05 1.048c.156.309.212.626.238.931.023.288.023.634.023 1.026v1.466c0 .392 0 .738-.023 1.026a2.44 2.44 0 0 1-.239.93 2.4 2.4 0 0 1-1.049 1.05 2.438 2.438 0 0 1-.93.238c-.288.023-.634.023-1.026.023h-1.466c-.392 0-.738 0-1.025-.023-.306-.025-.623-.081-.932-.239a2.4 2.4 0 0 1-1.049-1.048 2.44 2.44 0 0 1-.238-.931A13.423 13.423 0 0 1 13 17.733v-1.466c0-.392 0-.738.023-1.025a2.44 2.44 0 0 1 .239-.932 2.4 2.4 0 0 1 1.048-1.048c.309-.158.626-.214.931-.239.288-.023.634-.023 1.026-.023Zm-.879 1.817c-.194.016-.248.042-.26.048a.6.6 0 0 0-.263.263c-.006.012-.032.066-.048.26a13.19 13.19 0 0 0-.017.912v1.4c0 .435 0 .707.017.912.016.194.042.248.048.26a.6.6 0 0 0 .263.263c.012.006.066.032.26.047.205.017.477.018.912.018h1.4c.435 0 .707 0 .912-.017.194-.016.248-.042.26-.048a.6.6 0 0 0 .263-.263c.006-.012.032-.066.047-.26.017-.205.018-.477.018-.912v-1.4c0-.435 0-.707-.017-.912-.016-.194-.042-.248-.048-.26a.6.6 0 0 0-.263-.263c-.012-.006-.066-.032-.26-.048a12.69 12.69 0 0 0-.912-.017h-1.4c-.435 0-.707 0-.912.017Z" clip-rule="evenodd"/></svg>
