<svg xmlns="http://www.w3.org/2000/svg" width="24" height="24" fill="currentColor" viewBox="0 0 24 24"><path fill-rule="evenodd" d="M9.462 3h5.076c.948 0 1.714 0 2.334.05.64.053 1.203.164 1.726.43a4.4 4.4 0 0 1 1.922 1.923c.267.522.377 1.086.43 1.725.05.62.05 1.386.05 2.334v5.077c0 .947 0 1.713-.05 2.333-.053.64-.163 1.203-.43 1.726a4.4 4.4 0 0 1-1.922 1.923c-.523.266-1.087.376-1.726.428-.62.051-1.386.051-2.334.051H9.462c-.948 0-1.714 0-2.334-.05-.64-.053-1.203-.163-1.726-.43a4.4 4.4 0 0 1-1.922-1.922c-.267-.523-.377-1.086-.43-1.726C3 16.252 3 15.486 3 14.54V9.462c0-.948 0-1.714.05-2.334.053-.64.163-1.203.43-1.725A4.4 4.4 0 0 1 5.402 3.48c.523-.266 1.087-.377 1.726-.43C7.748 3 8.514 3 9.462 3ZM7.274 4.845c-.527.043-.828.123-1.054.239A2.6 2.6 0 0 0 5.083 6.22c-.115.226-.195.527-.238 1.055C4.8 7.813 4.8 8.505 4.8 9.5V14h3.4V4.806c-.358.006-.66.017-.925.039ZM8.2 15.8H4.806c.006.358.017.66.039.926.043.528.123.828.238 1.055a2.6 2.6 0 0 0 1.137 1.136c.226.115.527.195 1.054.238.266.022.568.033.926.039V15.8Zm1.8 0h4v3.4h-4v-3.4Zm5.8 0v3.394c.358-.006.66-.017.925-.039.528-.043.83-.123 1.055-.238a2.6 2.6 0 0 0 1.137-1.137c.115-.226.195-.526.238-1.054.022-.266.033-.568.039-.926H15.8Zm3.4-1.8H10V4.8h4.5c.995 0 1.687 0 2.226.045.527.043.828.123 1.054.239a2.6 2.6 0 0 1 1.137 1.136c.115.226.195.527.238 1.055.044.538.045 1.23.045 2.225V14Z" clip-rule="evenodd"/></svg>
