<svg xmlns="http://www.w3.org/2000/svg" width="24" height="24" fill="currentColor" viewBox="0 0 24 24"><path fill-rule="evenodd" d="M7.09 3.9a.9.9 0 0 1 .9-.9h.61A2.4 2.4 0 0 1 11 5.4v.61a.9.9 0 1 1-1.8 0V5.4a.6.6 0 0 0-.6-.6h-.61a.9.9 0 0 1-.9-.9ZM6.267 13h1.466c.392 0 .738 0 1.026.023.305.025.622.081.93.239a2.4 2.4 0 0 1 1.05 1.048c.157.309.213.626.238.931.023.288.023.634.023 1.026v1.466c0 .392 0 .738-.023 1.026-.025.305-.081.622-.239.93a2.4 2.4 0 0 1-1.048 1.05 2.447 2.447 0 0 1-.931.238C8.47 21 8.125 21 7.733 21H6.267c-.392 0-.738 0-1.025-.023-.306-.025-.623-.081-.931-.239a2.4 2.4 0 0 1-1.05-1.048 2.439 2.439 0 0 1-.238-.931A13.48 13.48 0 0 1 3 17.733v-1.466c0-.392 0-.738.023-1.025a2.44 2.44 0 0 1 .239-.932 2.4 2.4 0 0 1 1.049-1.048c.308-.158.625-.214.93-.239C5.53 13 5.876 13 6.268 13Zm-.879 1.818c-.194.015-.248.041-.26.047a.6.6 0 0 0-.263.263c-.006.012-.032.066-.047.26a12.65 12.65 0 0 0-.018.912v1.4c0 .435 0 .707.018.912.015.194.041.248.047.26a.6.6 0 0 0 .263.263c.012.006.066.032.26.048.205.016.477.017.912.017h1.4c.435 0 .707 0 .912-.017.194-.016.248-.042.26-.048a.6.6 0 0 0 .263-.263c.006-.012.032-.066.048-.26.016-.205.017-.477.017-.912v-1.4c0-.435 0-.707-.017-.912-.016-.194-.042-.248-.048-.26a.6.6 0 0 0-.263-.263c-.012-.006-.066-.032-.26-.047A12.613 12.613 0 0 0 7.7 14.8H6.3c-.435 0-.707 0-.912.018ZM16.267 3h1.466c.392 0 .738 0 1.026.023.305.025.622.081.93.239a2.4 2.4 0 0 1 1.05 1.048c.157.309.213.626.238.932.023.287.023.633.023 1.025v1.466c0 .392 0 .738-.023 1.026-.025.305-.081.622-.239.93a2.4 2.4 0 0 1-1.048 1.05 2.447 2.447 0 0 1-.931.238c-.288.023-.634.023-1.026.023h-1.466c-.392 0-.738 0-1.025-.023-.306-.025-.623-.081-.932-.239a2.4 2.4 0 0 1-1.048-1.048 2.431 2.431 0 0 1-.239-.931C13 8.47 13 8.125 13 7.733V6.267c0-.392 0-.738.023-1.025.025-.306.081-.623.239-.932a2.4 2.4 0 0 1 1.048-1.048 2.44 2.44 0 0 1 .931-.239C15.53 3 15.876 3 16.268 3Zm-.879 1.817c-.194.016-.248.042-.26.048a.6.6 0 0 0-.263.263c-.006.012-.032.066-.047.26-.017.205-.018.477-.018.912v1.4c0 .435 0 .707.018.912.015.194.041.248.047.26a.6.6 0 0 0 .263.263c.012.006.066.032.26.048.205.016.477.017.912.017h1.4c.435 0 .707 0 .912-.017.194-.016.248-.042.26-.048a.6.6 0 0 0 .263-.263c.006-.012.032-.066.048-.26.016-.205.017-.477.017-.912V6.3c0-.435 0-.707-.017-.912-.016-.194-.042-.248-.048-.26a.6.6 0 0 0-.263-.263c-.012-.006-.066-.032-.26-.048A12.649 12.649 0 0 0 17.7 4.8h-1.4c-.435 0-.707 0-.912.017ZM17.09 13.9a.9.9 0 0 1 .9-.9h.61a2.4 2.4 0 0 1 2.4 2.4v.61a.9.9 0 1 1-1.8 0v-.61a.6.6 0 0 0-.6-.6h-.61a.9.9 0 0 1-.9-.9Z" clip-rule="evenodd"/><path fill-rule="evenodd" d="M3.036 2.764a.9.9 0 0 0-1.272 1.272l1.25 1.251A.906.906 0 0 0 3 5.45v2.283c0 .392 0 .738.023 1.026.025.305.081.622.239.93a2.4 2.4 0 0 0 1.048 1.05c.309.157.626.213.932.238.287.023.633.023 1.025.023H8.55c.056 0 .11-.005.163-.015l4.302 4.302a.899.899 0 0 0-.015.163v2.283c0 .392 0 .738.023 1.026.025.305.081.622.239.93a2.4 2.4 0 0 0 1.048 1.05c.309.157.626.213.931.238.288.023.634.023 1.026.023h2.283c.055 0 .11-.005.163-.015l1.25 1.251a.9.9 0 0 0 1.273-1.272l-18.2-18.2ZM16.927 19.2 14.8 17.073v.627c0 .435 0 .707.017.912.016.194.042.248.048.26a.6.6 0 0 0 .263.263c.012.006.066.032.26.048.205.016.477.017.912.017h.627Zm-10-10L4.8 7.073V7.7c0 .435 0 .707.017.912.016.194.042.248.048.26a.6.6 0 0 0 .263.263c.012.006.066.032.26.048.205.016.477.017.912.017h.627Z" clip-rule="evenodd"/></svg>
