<svg fill="none" height="24" viewBox="0 0 24 24" width="24" xmlns="http://www.w3.org/2000/svg"><g fill="currentColor"><path clip-rule="evenodd" d="m14.0051 10.4442c-.3675.7611-.8358 1.5317-1.4325 2.1283-.5966.5966-1.3672 1.065-2.1282 1.4325.761.3675 1.5316.8358 2.1282 1.4324.5964.5964 1.0648 1.3659 1.4325 2.1257.3677-.7598.8361-1.5293 1.4325-2.1257.5964-.5963 1.3658-1.0648 2.1257-1.4324-.7599-.3677-1.5293-.8362-2.1257-1.4325-.5966-.5966-1.065-1.3672-1.4325-2.1283zm-.946-2.4627c-.4343 1.2804-1.0196 2.5785-1.7592 3.3182-.7397.7396-2.03785 1.3249-3.31828 1.7592-.15459.0524-.30892.1026-.46198.1507-.33875.1063-.67128.2018-.98657.2867-.08357.0225-.16593.0442-.24687.0652-.38131.0988-.38131.7881 0 .8869.08094.021.1633.0428.24687.0652.31529.0849.64782.1804.98657.2867.15306.0481.30739.0983.46198.1507 1.28043.4343 2.57858 1.0196 3.31828 1.7592.7394.7395 1.3247 2.034 1.7589 3.3102.0522.1534.1022.3065.15.4584.1066.3384.2024.6705.2874.9854.0226.0838.0445.1665.0657.2477.0991.3809.7874.3809.8865 0 .0211-.0812.043-.1639.0657-.2477.085-.3149.1808-.647.2873-.9854.0479-.1519.0979-.305.1501-.4584.4342-1.2762 1.0194-2.5707 1.7589-3.3102s2.0339-1.3247 3.3102-1.7589c.1534-.0522.3065-.1022.4584-.15.3383-.1066.6705-.2024.9853-.2874.0839-.0227.1665-.0445.2477-.0657.381-.0991.381-.7874 0-.8865-.0812-.0211-.1638-.043-.2477-.0657-.3148-.085-.647-.1808-.9853-.2873-.1519-.0479-.305-.0979-.4584-.1501-1.2763-.4342-2.5707-1.0194-3.3102-1.7589-.7397-.7397-1.325-2.0378-1.7592-3.3182-.0524-.15458-.1027-.3089-.1507-.46196-.1063-.33875-.2018-.67128-.2867-.98657-.0225-.08357-.0442-.16593-.0652-.24687-.0989-.3813-.7881-.3813-.887 0-.0209.08094-.0427.1633-.0652.24687-.0848.31529-.1804.64782-.2867.98657-.048.15306-.0982.30737-.1506.46196z" fill-rule="evenodd"/><path d="m6.42595 2.31759c-.14283-.4285-.74893-.4285-.89176 0l-.51952 1.55854c-.17916.53749-.60093.95926-1.13842 1.13842l-1.55854.51952c-.4285.14283-.4285.74892 0 .89176l1.55432.5181c.53986.17996.96284.60461 1.14066 1.14518l.52091 1.58359c.14173.4309.75121.4309.89293 0l.51953-1.57935c.1786-.54296.60446-.96881 1.14741-1.14742l1.57935-.51952c.43088-.14172.43088-.7512.00001-.89293l-1.5836-.52092c-.54057-.17782-.96522-.60079-1.14517-1.14065z"/></g></svg>
