<svg xmlns="http://www.w3.org/2000/svg" width="24" height="24" fill="none" viewBox="0 0 24 24">
  <circle cx="12" cy="12" r="12" fill="#4BB34B"/>
  <path fill="#fff" d="m9.753 7.866-.43.997c-.031.07-.046.105-.07.132a.232.232 0 0 1-.074.057c-.032.015-.07.02-.145.031l-.627.089c-1.765.25-2.648.375-3.02.789-.322.359-.457.85-.362 1.323.109.545.805 1.104 2.197 2.22l.237.19a.534.534 0 0 1 .115.109c.018.028.03.06.034.093a.52.52 0 0 1-.017.157l-.071.375c-.39 2.058-.584 3.087-.277 3.59.265.436.73.71 1.239.731.588.025 1.392-.645 3-1.984l.277-.23c.084-.07.126-.105.173-.119a.232.232 0 0 1 .127 0c.047.014.089.049.173.119l.276.23c1.609 1.34 2.413 2.009 3 1.984a1.526 1.526 0 0 0 1.24-.73c.306-.504.112-1.533-.278-3.591l-.07-.375a.515.515 0 0 1-.018-.157.232.232 0 0 1 .035-.093.49.49 0 0 1 .115-.108l.236-.19c1.392-1.117 2.088-1.676 2.197-2.221a1.531 1.531 0 0 0-.362-1.323c-.371-.414-1.254-.539-3.02-.79l-.627-.088a.51.51 0 0 1-.144-.031.231.231 0 0 1-.075-.057c-.024-.027-.039-.062-.069-.132l-.43-.997c-.708-1.636-1.062-2.454-1.558-2.704a1.525 1.525 0 0 0-1.37 0c-.495.25-.85 1.068-1.557 2.704Z"/>
</svg>
