<svg xmlns="http://www.w3.org/2000/svg" width="24" height="24" fill="currentColor" viewBox="0 0 24 24"><path fill-rule="evenodd" d="M11.573 2.032a2.9 2.9 0 0 1 .854 0c.342.05.664.18 1.054.332l4.922 1.906c.3.116.676.247.964.504a1.9 1.9 0 0 1 .51.745c.137.361.123.759.123 1.081v7.402c0 2.854-1.597 5.104-3.292 6.599-.854.753-1.76 1.34-2.563 1.741-.763.383-1.551.658-2.145.658-.594 0-1.382-.275-2.145-.658a12.254 12.254 0 0 1-2.563-1.741C5.597 19.106 4 16.856 4 14.002V6.6c0-.322-.014-.72.122-1.08a1.9 1.9 0 0 1 .511-.746c.287-.257.663-.388.964-.504l4.922-1.906c.39-.152.711-.281 1.054-.332Zm.589 1.78a1.1 1.1 0 0 0-.324 0c-.098.014-.204.05-.669.23L6.247 5.948a6.996 6.996 0 0 0-.377.152c-.068.032-.059.019-.064.094A6.999 6.999 0 0 0 5.8 6.6v7.402c0 2.145 1.203 3.944 2.683 5.249a10.45 10.45 0 0 0 2.178 1.482c.708.355 1.183.467 1.339.467.156 0 .63-.112 1.339-.467a10.42 10.42 0 0 0 2.178-1.482c1.48-1.305 2.683-3.104 2.683-5.249V6.6c0-.21 0-.323-.006-.406-.005-.075.004-.062-.065-.094a6.96 6.96 0 0 0-.376-.152L12.83 4.042c-.465-.18-.571-.216-.67-.23Z" clip-rule="evenodd"/><path d="m13.444 10.453 1.912.188c.665.065.869.73.355 1.167l-1.497 1.272.556 2.074c.183.68-.383 1.093-.95.683L12 14.523l-1.818 1.314c-.564.408-1.133-.002-.95-.683l.555-2.074-1.496-1.272c-.516-.44-.313-1.102.355-1.167l1.911-.188.842-1.987c.264-.622.94-.621 1.203 0l.842 1.987Z"/></svg>
