<svg xmlns="http://www.w3.org/2000/svg" width="24" height="24" fill="currentColor" viewBox="0 0 24 24"><path d="M11.295 10.25a1.256 1.256 0 0 1-1.255 1.251c-.69 0-1.248-.56-1.245-1.25C8.798 9.56 9.36 9 10.05 9s1.248.56 1.245 1.25Zm4.244.251c.69 0 1.25-.56 1.254-1.25A1.244 1.244 0 0 0 15.549 8c-.69 0-1.251.56-1.254 1.25a1.244 1.244 0 0 0 1.244 1.251Z"/><path fill-rule="evenodd" d="m11.452 21.295-.005-.025-.399.056c-.845.12-1.406.198-1.906.167a4.886 4.886 0 0 1-4.296-3.245c-.167-.472-.244-1.033-.361-1.879l-.662-4.784c-.149-1.076-.268-1.939-.308-2.644-.04-.724-.003-1.361.208-1.972a4.916 4.916 0 0 1 1.828-2.42c.53-.37 1.132-.58 1.84-.74.689-.155 1.55-.276 2.627-.427l5.096-.717c.783-.11 1.302-.183 1.765-.16a4.885 4.885 0 0 1 4.394 3.317c.148.44.22.96.328 1.742l.02.142h.002l.247 1.655c.024.163.034.324.031.483.082.726.117 1.292.09 1.816a9.93 9.93 0 0 1-6.718 8.896c-.765.26-1.666.407-3.1.612l-.721.127Zm5.336-16.992c-.27-.013-.607.03-1.53.16l-4.954.696c-1.124.158-1.914.27-2.522.407-.599.135-.945.278-1.202.458a3.11 3.11 0 0 0-1.156 1.53c-.103.298-.146.67-.112 1.282.035.623.143 1.413.299 2.537l.64 4.635c.139.996.194 1.36.291 1.635a3.09 3.09 0 0 0 2.718 2.053c.292.018.656-.028 1.652-.168l.17-.024.82-.116 1.603-.283c.6-.106 1-.68.893-1.28l-.236-1.324c-1.403.152-3.005.008-4.27-.857a.9.9 0 0 1 1.017-1.487c.817.559 2.008.694 3.23.534a4.413 4.413 0 0 1 3.43-3.475l1.655-.345c.48-.1.824-.499.872-.965a99.95 99.95 0 0 0-.263-1.989c-.128-.922-.178-1.258-.265-1.515a3.09 3.09 0 0 0-2.78-2.1Zm-.576 13.853a8.128 8.128 0 0 0 3.885-5.677 2.903 2.903 0 0 1-.51.155l-1.655.345a2.606 2.606 0 0 0-2.034 3.008l.271 1.52c.04.218.053.436.043.649Z" clip-rule="evenodd"/></svg>
