<svg fill="none" height="24" viewBox="0 0 24 24" width="24" xmlns="http://www.w3.org/2000/svg"><path clip-rule="evenodd" d="m5.30518 6.52883c-.30518.59895-.30518 1.38302-.30518 2.95117v5.04c0 1.5681 0 2.3522.30518 2.9512.26845.5268.69679.9552 1.22365 1.2236.59895.3052 1.38302.3052 2.95117.3052h5.04c1.5681 0 2.3522 0 2.9512-.3052.5268-.2684.9552-.6968 1.2236-1.2236.3052-.599.3052-1.3831.3052-2.9512v-5.04c0-1.56815 0-2.35222-.3052-2.95117-.2684-.52686-.6968-.9552-1.2236-1.22365-.599-.30518-1.3831-.30518-2.9512-.30518h-5.04c-1.56815 0-2.35222 0-2.95117.30518-.52686.26845-.9552.69679-1.22365 1.22365z" fill="currentColor" fill-rule="evenodd"/></svg>
