<svg xmlns="http://www.w3.org/2000/svg" width="24" height="24" fill="none" viewBox="0 0 24 24"><path fill="currentColor" fill-rule="evenodd" d="M18.5 2.0023a.9.9 0 0 1 .9.9V4.6h1.6977a.9.9 0 0 1 0 1.8H19.4v1.6977a.9.9 0 0 1-1.8 0V6.4h-1.6976a.9.9 0 0 1 0-1.8H17.6V2.9023a.9.9 0 0 1 .9-.9Zm-8.2405.9961h2.4242a.9.9 0 0 1 0 1.8h-2.3853c-1.135 0-1.932.0007-2.5539.0515-.6113.05-.9737.1439-1.2535.2864a3.1 3.1 0 0 0-1.3547 1.3548c-.1426.2798-.2364.642-.2864 1.2534-.0508.6219-.0515 1.419-.0515 2.5539v3.4032c0 1.1349.0007 1.932.0515 2.5539.05.6113.1438.9736.2864 1.2534a3.1001 3.1001 0 0 0 1.3547 1.3548c.2799.1426.6422.2364 1.2535.2864.6219.0508 1.419.0515 2.5539.0515h3.4031c1.135 0 1.9321-.0007 2.5539-.0515.6114-.05.9737-.1438 1.2535-.2864a3.1002 3.1002 0 0 0 1.3548-1.3548c.1425-.2798.2364-.6421.2863-1.2534.0508-.6219.0515-1.419.0515-2.5539v-2.3624a.9.9 0 0 1 1.8 0v2.4013c.0001 1.0871.0001 1.9578-.0574 2.6615-.0591.7227-.1832 1.3483-.4766 1.9241a4.9002 4.9002 0 0 1-2.1414 2.1414c-.5758.2934-1.2014.4175-1.9241.4766-.7037.0575-1.5744.0575-2.6614.0575h-3.4811c-1.087 0-1.9578 0-2.6616-.0575-.7226-.0591-1.3482-.1832-1.924-.4766a4.9002 4.9002 0 0 1-2.1414-2.1414c-.2934-.5758-.4176-1.2014-.4766-1.9241-.0575-.7037-.0575-1.5744-.0575-2.6615v-3.481c0-1.087 0-1.9578.0575-2.6615.059-.7227.1832-1.3483.4766-1.9241a4.9 4.9 0 0 1 2.1414-2.1414c.5758-.2934 1.2014-.4175 1.924-.4766.7038-.0575 1.5745-.0575 2.6616-.0575Zm1.7404 6.8025c-1.2145 0-2.199.9846-2.199 2.1991 0 1.2145.9845 2.1991 2.199 2.1991 1.2145 0 2.1991-.9846 2.1991-2.1991 0-1.2145-.9846-2.199-2.1991-2.199ZM8.0009 12c0-2.2086 1.7904-3.999 3.999-3.999 2.2087 0 3.9991 1.7904 3.9991 3.999s-1.7904 3.9991-3.9991 3.9991c-2.2086 0-3.999-1.7905-3.999-3.9991Z" clip-rule="evenodd"/></svg>
