<svg xmlns="http://www.w3.org/2000/svg" width="24" height="24" fill="currentColor" viewBox="0 0 24 24"><path d="M9.9 7a.9.9 0 1 0 0 1.8h5.2a.9.9 0 1 0 0-1.8H9.9ZM9 11.9a.9.9 0 0 1 .9-.9h3.2a.9.9 0 1 1 0 1.8H9.9a.9.9 0 0 1-.9-.9Z M13.538 2h-2.076c-.948 0-1.714 0-2.334.05-.64.053-1.203.163-1.726.43A4.4 4.4 0 0 0 5.48 4.402c-.267.523-.377 1.087-.43 1.726C5 6.748 5 7.514 5 8.462V12h-.1A2.9 2.9 0 0 0 2 14.9v3.198a3.9 3.9 0 0 0 3.9 3.9h.547c.078.002.158.002.23.002h6.861c.948 0 1.714 0 2.334-.05.64-.053 1.203-.163 1.726-.43a4.4 4.4 0 0 0 1.922-1.922c.267-.523.377-1.087.43-1.726.05-.62.05-1.386.05-2.334V8.462c0-.948 0-1.714-.05-2.334-.053-.64-.163-1.203-.43-1.726a4.4 4.4 0 0 0-1.922-1.922c-.523-.267-1.087-.377-1.726-.43C15.252 2 14.486 2 13.538 2ZM9.963 20.2a.928.928 0 0 0-.063-.002H6.8V8.5c0-.995 0-1.687.045-2.226.043-.527.123-.828.238-1.054A2.6 2.6 0 0 1 8.22 4.083c.226-.115.527-.195 1.055-.238.538-.044 1.23-.045 2.225-.045h2c.995 0 1.687 0 2.226.045.527.043.828.123 1.054.238a2.6 2.6 0 0 1 1.137 1.137c.115.226.195.527.238 1.054.044.539.045 1.231.045 2.226v7c0 .995 0 1.687-.045 2.226-.043.527-.123.828-.238 1.054a2.6 2.6 0 0 1-1.137 1.137c-.226.115-.527.195-1.055.238-.538.044-1.23.045-2.225.045H9.963ZM5 19.996a2.1 2.1 0 0 1-1.2-1.898V14.9a1.1 1.1 0 0 1 1.1-1.1H5v6.196Z" clip-rule="evenodd"/></svg>
