<svg xmlns="http://www.w3.org/2000/svg" width="24" height="24" fill="currentColor" viewBox="0 0 24 24"><path fill-rule="evenodd" d="M15.538 4c.948 0 1.714 0 2.334.05.64.053 1.203.163 1.726.43a4.4 4.4 0 0 1 1.922 1.922c.267.523.377 1.087.43 1.726.05.62.05 1.386.05 2.334v3.076c0 .948 0 1.714-.05 2.334-.053.64-.163 1.203-.43 1.726a4.4 4.4 0 0 1-1.922 1.922c-.523.267-1.087.377-1.726.43-.62.05-1.386.05-2.334.05H8.462c-.948 0-1.714 0-2.334-.05-.64-.053-1.203-.163-1.726-.43a4.4 4.4 0 0 1-1.922-1.922c-.267-.523-.377-1.087-.43-1.726C2 15.252 2 14.486 2 13.538v-3.076c0-.948 0-1.714.05-2.334.053-.64.163-1.203.43-1.726A4.4 4.4 0 0 1 4.402 4.48c.523-.267 1.087-.377 1.726-.43C6.748 4 7.514 4 8.462 4h7.076ZM6 14.9a.9.9 0 0 1 .9-.9h5.2a.9.9 0 0 1 0 1.8H6.9a.9.9 0 0 1-.9-.9Zm.9-4.7a.9.9 0 1 0 0 1.8h1.7a.9.9 0 1 0 0-1.8H6.9Zm7.6 4.7a.9.9 0 0 1 .9-.9h1.7a.9.9 0 0 1 0 1.8h-1.7a.9.9 0 0 1-.9-.9Zm-2.6-4.7a.9.9 0 1 0 0 1.8h5.2a.9.9 0 0 0 0-1.8h-5.2Z" clip-rule="evenodd"/></svg>
