<svg xmlns="http://www.w3.org/2000/svg" width="24" height="24" fill="currentColor" viewBox="0 0 24 24"><path fill-rule="evenodd" d="M8.462 4h7.076c.948 0 1.714 0 2.334.05.64.053 1.203.163 1.726.43a4.4 4.4 0 0 1 1.922 1.922c.267.523.377 1.087.43 1.726.05.62.05 1.386.05 2.333v3.077c0 .948 0 1.713-.05 2.334-.053.64-.163 1.203-.43 1.725a4.4 4.4 0 0 1-1.922 1.923c-.523.267-1.087.377-1.726.43-.62.05-1.386.05-2.334.05H8.462c-.948 0-1.714 0-2.334-.05-.64-.053-1.203-.163-1.726-.43a4.4 4.4 0 0 1-1.922-1.923c-.267-.522-.377-1.086-.43-1.725C2 15.252 2 14.486 2 13.538v-3.077c0-.947 0-1.713.05-2.333.053-.64.163-1.203.43-1.726A4.4 4.4 0 0 1 4.402 4.48c.523-.266 1.087-.376 1.726-.428C6.748 4 7.514 4 8.462 4ZM6.274 5.845c-.527.043-.828.123-1.054.238A2.6 2.6 0 0 0 4.083 7.22c-.115.227-.195.527-.238 1.055C3.8 8.813 3.8 9.504 3.8 10.5v3c0 .995 0 1.687.045 2.225.043.528.123.829.238 1.055a2.6 2.6 0 0 0 1.137 1.136c.226.116.527.196 1.054.24.539.043 1.231.044 2.226.044h7c.995 0 1.687 0 2.226-.045.527-.043.828-.123 1.054-.239a2.6 2.6 0 0 0 1.137-1.136c.115-.226.195-.527.238-1.055.044-.538.045-1.23.045-2.225v-3c0-.995 0-1.687-.045-2.226-.043-.528-.123-.828-.238-1.054a2.6 2.6 0 0 0-1.137-1.137c-.226-.115-.527-.195-1.055-.238-.538-.044-1.23-.045-2.225-.045h-7c-.995 0-1.687 0-2.226.045Z M6 14.9a.9.9 0 0 1 .9-.9h5.2a.9.9 0 0 1 0 1.8H6.9a.9.9 0 0 1-.9-.9Zm0-3.8a.9.9 0 0 1 .9-.9h1.7a.9.9 0 1 1 0 1.8H6.9a.9.9 0 0 1-.9-.9Zm8.5 3.8a.9.9 0 0 1 .9-.9h1.7a.9.9 0 1 1 0 1.8h-1.7a.9.9 0 0 1-.9-.9ZM11 11.1a.9.9 0 0 1 .9-.9h5.2a.9.9 0 0 1 0 1.8h-5.2a.9.9 0 0 1-.9-.9Z" clip-rule="evenodd"/></svg>
