<svg fill="none" height="24" viewBox="0 0 26 24" width="26" xmlns="http://www.w3.org/2000/svg"><path clip-rule="evenodd" d="m8.01163 3.26667c1.453-.82676 3.15547-1.36665 4.98837-1.36665 2.7888 0 5.3152 1.13158 7.1418 2.95823 1.6056 1.60562 2.6742 3.75189 2.9093 6.14175h1.4502c.407 0 .6434.4603.4065.7912l-2.5032 3.4949c-.1995.2785-.6136.2785-.813 0l-2.5032-3.4949c-.237-.3309-.0005-.7912.4065-.7912h1.5441c-.226-1.83688-1.0665-3.48268-2.3114-4.72754-1.4669-1.46691-3.4905-2.37244-5.7276-2.37244-1.4358 0-2.8008.42302-3.99927 1.10495-.48002.27313-1.09057.10541-1.3637-.3746-.27313-.48002-.10542-1.09057.3746-1.3637zm-3.05054 9.73333h1.54402c.40698 0 .64347-.4602.40649-.7911l-2.50321-3.49494c-.19946-.27847-.61353-.27847-.81298 0l-2.50321 3.49494c-.236987.3309-.0005.7911.40649.7911h1.45027c.23509 2.3899 1.30367 4.5362 2.9093 6.1418 1.82664 1.8267 4.35304 2.9582 7.14174 2.9582 1.8329 0 3.5354-.5399 4.9884-1.3666.48-.2732.6477-.8837.3746-1.3637-.2731-.4801-.8837-.6478-1.3637-.3746-1.1985.6819-2.5634 1.1049-3.9993 1.1049-2.237 0-4.26062-.9055-5.72753-2.3724-1.24486-1.2449-2.08543-2.8907-2.31138-4.7276z" fill="currentColor" fill-rule="evenodd"/></svg>
