<svg xmlns="http://www.w3.org/2000/svg" width="24" height="24" fill="currentColor" viewBox="0 0 24 24"><path fill-rule="evenodd" d="m12.2 5.765 6.915 7.004a2.2 2.2 0 0 1-.01 3.101l-3.236 3.236a2.2 2.2 0 0 1-3.1.01L5.763 12.2a3.2 3.2 0 0 1-.951-2.296l.017-2.887A2.2 2.2 0 0 1 7.016 4.83l2.887-.017a3.2 3.2 0 0 1 2.297.952ZM4.5 13.48a5 5 0 0 1-1.487-3.587l.017-2.887A4 4 0 0 1 7.005 3.03l2.887-.017A5 5 0 0 1 13.481 4.5l6.915 7.004a4 4 0 0 1-.018 5.639l-3.236 3.235a4 4 0 0 1-5.639.018L4.5 13.48Zm4-3.48a1.5 1.5 0 1 0 0-3 1.5 1.5 0 0 0 0 3Z" clip-rule="evenodd"/></svg>
