<svg fill="none" height="24" viewBox="0 0 24 24" width="24" xmlns="http://www.w3.org/2000/svg"><g fill="currentColor"><path d="m12 14c1.1046 0 2-.8954 2-2s-.8954-2-2-2-2 .8954-2 2 .8954 2 2 2z"/><path clip-rule="evenodd" d="m12.9 1.9c0-.49706-.403-.9-.9-.9-.4971 0-.9.40294-.9.9v1.24492c-4.19672.42144-7.53364 3.75836-7.95508 7.95508h-1.24492c-.49706 0-.9.4029-.9.9 0 .497.40294.9.9.9h1.24492c.42144 4.1967 3.75836 7.5336 7.95508 7.955v1.245c0 .4971.4029.9.9.9.497 0 .9-.4029.9-.9v-1.245c4.1967-.4214 7.5336-3.7583 7.955-7.955h1.245c.4971 0 .9-.403.9-.9 0-.4971-.4029-.9-.9-.9h-1.245c-.4214-4.19672-3.7583-7.53364-7.955-7.95508zm-6.8 11h-1.14352c.40499 3.2015 2.94195 5.7385 6.14352 6.1435v-1.1435c0-.4971.4029-.9.9-.9.497 0 .9.4029.9.9v1.1435c3.2015-.405 5.7385-2.942 6.1435-6.1435h-1.1435c-.4971 0-.9-.403-.9-.9 0-.4971.4029-.9.9-.9h1.1435c-.405-3.20157-2.942-5.73853-6.1435-6.14352v1.14352c0 .49706-.403.9-.9.9-.4971 0-.9-.40294-.9-.9v-1.14352c-3.20157.40499-5.73853 2.94195-6.14352 6.14352h1.14352c.49706 0 .9.4029.9.9 0 .497-.40294.9-.9.9z" fill-rule="evenodd"/></g></svg>
