<svg xmlns="http://www.w3.org/2000/svg" width="24" height="24" fill="none" viewBox="0 0 24 24"><path fill="currentColor" fill-rule="evenodd" d="M10.126 2.2772c-1.9826.38-3.7555 1.3515-5.1264 2.7224-1.6313 1.6314-2.697 3.8319-2.8736 6.2776A10.055 10.055 0 0 0 2.1 12v.0124c.0004.3708.0213.7368.0614 1.0969.2556 2.2907 1.2933 4.3461 2.8382 5.891C6.7902 20.7909 9.2664 21.9 12 21.9a9.9961 9.9961 0 0 0 1.8738-.1771s0-.0001 0 0c1.9827-.38 3.7556-1.3516 5.1265-2.7226 1.6314-1.6313 2.6971-3.8318 2.8737-6.2776.0302-.4195.0341-.8501.011-1.2716a9.9375 9.9375 0 0 0-.0465-.5605c-.2556-2.2907-1.2933-4.346-2.8382-5.891C17.2098 3.2091 14.7335 2.1 12 2.1l-.0507.0001a9.9478 9.9478 0 0 0-1.8233.1771Zm.0355 1.8322c-1.4984.3475-2.837 1.111-3.889 2.163-1.2675 1.2673-2.116 2.9506-2.3233 4.8277l.0505-.0001c2.7336 0 5.2098 1.1091 7.0004 2.8996 1.5449 1.5449 2.5825 3.6003 2.8381 5.891 1.4984-.3475 2.8371-1.1109 3.8892-2.1631 1.2674-1.2673 2.1158-2.9504 2.3231-4.8277A8.5686 8.5686 0 0 1 20 12.9c-2.7336 0-5.2098-1.1091-7.0004-2.8997-1.5449-1.5449-2.5825-3.6003-2.8381-5.891Zm9.8891 6.9904c-.2074-1.877-1.0558-3.5601-2.3231-4.8274C16.2607 4.8056 14.237 3.9 12 3.9l-.0506.0001c.2073 1.8771 1.0557 3.5602 2.323 4.8274C15.7392 10.1943 17.7629 11.1 20 11.1l.0506-.0002Zm-8.0002 9c-.2073-1.8771-1.0557-3.5601-2.323-4.8274C8.2606 13.8056 6.237 12.9 4 12.9l-.0505.0001c.2073 1.8771 1.0557 3.5602 2.323 4.8274C7.7392 19.1943 9.763 20.1 12 20.1l.0504-.0002Z" clip-rule="evenodd"/></svg>
