<svg xmlns="http://www.w3.org/2000/svg" width="24" height="24" fill="currentColor" viewBox="0 0 24 24"><path d="M18.205 18.85c0 .736.254 1.15.895 1.15.637 0 .9-.41.9-1.15v-4.755c0-.787-.36-1.295-.9-1.295-.397 0-.91.145-1.321.414l-.675.44c-.335.218-.508.493-.508.809 0 .425.278.725.67.725.192 0 .345-.062.661-.264l.268-.171h.01v4.097Z M4.896 4.002a.9.9 0 0 1 .9.9V11H13V4.902a.9.9 0 1 1 1.8 0V19.1a.9.9 0 0 1-1.8 0v-6.3H5.796v6.299a.9.9 0 0 1-1.8 0V4.902a.9.9 0 0 1 .9-.9Z" clip-rule="evenodd"/></svg>
