<svg xmlns="http://www.w3.org/2000/svg" width="24" height="24" viewBox="0 0 24 24" fill="currentColor"><path d="M2.987 18.46c-.587 0-.987-.344-.987-.884 0-.224.056-.466.177-.82l3.492-9.879c.325-.93.782-1.34 1.629-1.34s1.303.4 1.63 1.34l3.482 9.88c.111.307.158.558.158.79 0 .56-.391.913-1.006.913-.568 0-.893-.288-1.117-1.005l-.875-2.626h-4.6l-.866 2.626c-.223.726-.54 1.005-1.117 1.005m2.495-5.251h3.585L7.326 7.837h-.093zm15.485 5.233c-.652 0-1.025-.42-1.025-1.145V14.93h-1.34l-1.974 2.589c-.606.773-.81.922-1.285.922-.55 0-.95-.345-.95-.81 0-.363.14-.67.493-1.062l1.593-1.992c-1.36-.429-2.133-1.462-2.133-2.877 0-1.937 1.48-3.194 3.771-3.194h2.403c.986 0 1.48.465 1.48 1.369v7.42c0 .727-.372 1.146-1.033 1.146m-2.645-5h1.62v-3.324h-1.63c-1.163 0-1.927.66-1.927 1.666s.755 1.658 1.937 1.658"/></svg>