<svg xmlns="http://www.w3.org/2000/svg" width="24" height="24" fill="currentColor" viewBox="0 0 24 24"><path fill-rule="evenodd" d="M14.204 11.893c-.682.521-1.744.905-2.944.905-3.109 0-4.758-1.972-4.758-4.54V5.79c0-.606.371-.99.967-.99.587 0 .967.384.967.99v2.4c0 1.8 1.054 2.902 2.988 2.902 1.252 0 2.288-.444 2.901-1.05v-4.25c0-.607.38-.991.968-.991.595 0 .967.384.967.99V16.4c0 .607-.372.99-.968.99-.587 0-.967-.384-.967-.99v-4.507h-.12ZM7.41 19.202a.904.904 0 0 0-.909.899c0 .497.407.899.91.899h9.18c.503 0 .91-.402.91-.899 0-.496-.407-.9-.91-.9H7.41Z" clip-rule="evenodd"/></svg>
