<svg xmlns="http://www.w3.org/2000/svg" width="24" height="24" fill="currentColor" viewBox="0 0 24 24"><path d="M11.99 19.001c1.036 0 1.683-.695 1.683-1.799v-4.11h.057l4.22 5.214c.351.447.77.695 1.396.695.932 0 1.654-.714 1.654-1.646 0-.41-.085-.819-.428-1.228l-3.868-4.586 3.773-4.264c.266-.304.352-.609.352-.942 0-.866-.665-1.484-1.568-1.484-.475 0-.827.152-1.16.561l-4.362 5.196h-.066V6.649c0-1.103-.647-1.798-1.682-1.798-1.036 0-1.683.695-1.683 1.798v3.959h-.066L5.899 5.412c-.324-.4-.685-.561-1.17-.561-.902 0-1.567.618-1.567 1.475 0 .342.085.685.351.99l3.754 4.282-3.849 4.539A1.849 1.849 0 0 0 3 17.364c0 .933.703 1.637 1.644 1.637.618 0 1.046-.248 1.397-.695l4.21-5.214h.057v4.11c0 1.104.647 1.799 1.683 1.799Z"/></svg>
