<svg xmlns="http://www.w3.org/2000/svg" width="24" height="24" fill="currentColor" viewBox="0 0 24 24"><path d="M17.465 20.004h3.759c.497 0 .778-.305.778-.75 0-.455-.281-.75-.778-.75h-2.147v-.038l1.233-1.064c1.05-.909 1.518-1.383 1.518-2.292 0-1.228-1.05-2.058-2.695-2.058-1.181 0-2.133.502-2.489 1.308-.06.14-.089.286-.089.44 0 .479.31.774.816.774.38 0 .619-.14.881-.525.253-.365.497-.53.853-.53.483 0 .811.296.811.722 0 .404-.216.699-.975 1.35l-1.86 1.594c-.376.314-.545.596-.545.961 0 .497.282.858.928.858Z M4.896 4.002a.9.9 0 0 1 .9.9V11H13V4.902a.9.9 0 1 1 1.8 0V19.1a.9.9 0 0 1-1.8 0v-6.3H5.796v6.299a.9.9 0 0 1-1.8 0V4.902a.9.9 0 0 1 .9-.9Z" clip-rule="evenodd"/></svg>
