<svg fill="none" height="24" viewBox="0 0 24 24" width="24" xmlns="http://www.w3.org/2000/svg"><g fill="currentColor"><path d="m7.09998 6.8h1.8v11.3c0 .4971-.40295.9-.9.9-.49706 0-.9-.4029-.9-.9z"/><path d="m2 5.9c0-.49706.40294-.9.9-.9h10.2c.4971 0 .9.40294.9.9s-.4029.9-.9.9h-10.2c-.49706 0-.9-.40294-.9-.9z"/><path d="m12 9.9c0-.49706.4029-.9.9-.9h8.2c.4971 0 .9.40294.9.9 0 .4971-.4029.9-.9.9h-8.2c-.4971 0-.9-.4029-.9-.9z"/><path d="m16.1 10.7958h1.8v7.3042c0 .4971-.4029.9-.9.9s-.9-.4029-.9-.9z"/></g></svg>
