<svg fill="none" height="24" viewBox="0 0 24 24" width="24" xmlns="http://www.w3.org/2000/svg"><g fill="currentColor"><path d="m5.25471 5.89162c.33377-.36833.30576-.93749-.06256-1.27125-.36833-.33377-.93749-.30576-1.27126.06256-1.75226 1.93367-2.82088 4.50163-2.82088 7.31707 0 2.8155 1.06862 5.3834 2.82088 7.3171.33377.3683.90293.3963 1.27126.0625.36832-.3337.39633-.9029.06256-1.2712-1.46397-1.6155-2.3547-3.7569-2.3547-6.1084 0-2.35149.89073-4.49285 2.3547-6.10838z"/><path d="m20.0791 4.68293c-.3338-.36832-.9029-.39633-1.2712-.06256-.3684.33376-.3964.90292-.0626 1.27125 1.464 1.61553 2.3547 3.75689 2.3547 6.10838 0 2.3515-.8907 4.4929-2.3547 6.1084-.3338.3683-.3058.9375.0626 1.2712.3683.3338.9374.3058 1.2712-.0625 1.7523-1.9337 2.8209-4.5016 2.8209-7.3171 0-2.81544-1.0686-5.3834-2.8209-7.31707z"/><path d="m8.10236 8.71068c.3208-.37968.27307-.94752-.1066-1.26832-.37968-.3208-.94753-.27308-1.26832.1066-1.01485 1.20109-1.62743 2.75574-1.62743 4.45104s.61258 3.25 1.62743 4.451c.32079.3797.88864.4274 1.26832.1066.37967-.3208.4274-.8886.1066-1.2683-.75066-.8884-1.20235-2.0349-1.20235-3.2893s.45169-2.4009 1.20235-3.28932z"/><path d="m17.2726 7.54896c-.3208-.37968-.8887-.4274-1.2683-.1066-.3797.3208-.4274.88864-.1066 1.26832.7506.88842 1.2023 2.03492 1.2023 3.28932s-.4517 2.4009-1.2023 3.2893c-.3208.3797-.2731.9475.1066 1.2683.3796.3208.9475.2731 1.2683-.1066 1.0148-1.201 1.6274-2.7557 1.6274-4.451s-.6126-3.24995-1.6274-4.45104z"/><path d="m12.9 10.9h1.1c.4971 0 .9-.4029.9-.9 0-.49705-.4029-.89999-.9-.89999h-4c-.49705 0-.89999.40294-.89999.89999 0 .4971.40294.9.89999.9h1.1v3.6c0 .4971.4029.9.9.9s.9-.4029.9-.9z"/></g></svg>
