<svg xmlns="http://www.w3.org/2000/svg" width="24" height="24" viewBox="0 0 24 24" fill="currentColor"><path d="m2.475 16.528 2.316-3.332c-1.7-.446-2.753-1.832-2.753-3.683 0-2.487 1.737-4.063 4.404-4.063h3.19c1.234 0 1.718.466 1.718 1.671v10.204c0 .74-.399 1.177-1.073 1.177-.683 0-1.082-.436-1.082-1.177V13.51h-2.25l-2.762 4.262c-.36.532-.702.76-1.186.76-.57 0-.997-.39-.997-.93 0-.37.114-.599.475-1.073m4.214-4.765h2.506V7.225H6.69c-1.585 0-2.458.798-2.458 2.26 0 1.48.882 2.278 2.458 2.278m13.184 5.344c-.55.93-1.557 1.443-2.8 1.443-1.956 0-3.275-1.234-3.275-3.057 0-1.85 1.348-2.98 3.588-2.99h2.506v-.892c0-1.13-.693-1.718-1.975-1.718-.797 0-1.348.284-1.926.873-.257.247-.504.342-.864.342-.465 0-.77-.314-.77-.77 0-.578.4-1.148 1.244-1.603.608-.332 1.405-.513 2.45-.513C20.585 8.222 22 9.437 22 11.62v5.743c0 .721-.37 1.14-1.025 1.14-.58 0-.95-.352-.997-.95v-.446zm-3.958-1.718c0 .93.73 1.556 1.813 1.556 1.224 0 2.164-.835 2.164-1.917v-1.082H17.68c-1.12 0-1.766.522-1.766 1.443"/></svg>