<svg xmlns="http://www.w3.org/2000/svg" width="24" height="24" fill="currentColor" viewBox="0 0 24 24"><path fill-rule="evenodd" d="m15.5 14.921-.579.483a.41.41 0 0 0-.138.227l-.88 4.019A2.986 2.986 0 0 1 8 19.01V17c-1.736-.006-3.266-.43-4.365-1.468C2.52 14.478 2 12.935 2 11.022v-1.08c0-1.913.52-3.45 1.639-4.495C4.746 4.412 6.29 4 8.037 4h7.523c.39-.496.955-.846 1.605-.96.227-.04.481-.04.77-.04h.13c.289 0 .542 0 .77.04a2.619 2.619 0 0 1 2.125 2.125c.04.228.04.481.04.77v7.13c0 .289 0 .542-.04.77a2.619 2.619 0 0 1-2.125 2.125c-.228.04-.481.04-.77.04h-.13c-.289 0-.543 0-.77-.04a2.617 2.617 0 0 1-1.664-1.039Zm-3.355 4.344A1.186 1.186 0 0 1 9.8 19.01V16.1a.9.9 0 0 0-.9-.9h-.863c-1.489 0-2.514-.36-3.166-.976C4.23 13.617 3.8 12.62 3.8 11.022v-1.08c0-1.598.428-2.583 1.068-3.18.65-.608 1.675-.962 3.17-.962H15v7.202a.932.932 0 0 0-.076.057l-1.155.962a2.21 2.21 0 0 0-.744 1.225l-.88 4.019Zm6.378-5.077c-.05.008-.13.012-.523.012-.392 0-.472-.003-.523-.012a.819.819 0 0 1-.665-.665c-.009-.05-.012-.13-.012-.523V6c0-.392.003-.472.012-.523a.819.819 0 0 1 .665-.665c.05-.009.13-.012.523-.012.392 0 .472.003.523.012a.82.82 0 0 1 .665.665c.009.05.012.13.012.523v7c0 .392-.003.472-.012.523a.819.819 0 0 1-.665.665Z" clip-rule="evenodd"/></svg>
