<svg xmlns="http://www.w3.org/2000/svg" width="24" height="24" fill="currentColor" viewBox="0 0 24 24"><path d="M20.1 3a.9.9 0 0 0-.9.9v10.2a.9.9 0 1 0 1.8 0V3.9a.9.9 0 0 0-.9-.9Z M12.867 22a2.867 2.867 0 0 0 2.58-1.618l2.064-4.265A4.9 4.9 0 0 0 18 13.983V6.9A3.9 3.9 0 0 0 14.1 3H8.19a3.9 3.9 0 0 0-3.658 2.55l-2.287 6.2c-.94 2.547.945 5.25 3.66 5.25H10v2.133A2.867 2.867 0 0 0 12.867 22Zm.96-2.402a1.067 1.067 0 0 1-2.027-.465v-2.739c0-.66-.535-1.194-1.194-1.194H5.904a2.1 2.1 0 0 1-1.97-2.827l2.287-6.2A2.1 2.1 0 0 1 8.19 4.8h5.91c1.16 0 2.1.94 2.1 2.1v7.083a3.1 3.1 0 0 1-.31 1.35l-2.063 4.265Z" clip-rule="evenodd"/></svg>
