<svg xmlns="http://www.w3.org/2000/svg" width="24" height="24" fill="currentColor" viewBox="0 0 24 24"><path fill-rule="evenodd" d="m8.521 9.206.582-.582a.39.39 0 0 0 .104-.187l.978-4.207a2.895 2.895 0 0 1 5.715.655V7.1h.1c1.854 0 3.392.394 4.449 1.451S21.9 11.146 21.9 13v1c0 1.922-.554 3.442-1.663 4.472C19.14 19.491 17.637 19.9 16 19.9H8.45a2.4 2.4 0 0 1-1.329.918c-.31.083-.658.083-1.031.082h-.18c-.373 0-.722.001-1.031-.082a2.4 2.4 0 0 1-1.697-1.697c-.083-.31-.083-.658-.082-1.031v-7.18c0-.373-.001-.722.082-1.031a2.4 2.4 0 0 1 1.697-1.697c.31-.083.658-.083 1.031-.082h.18c.373 0 .722-.001 1.031.082a2.4 2.4 0 0 1 1.4 1.024Zm3.417-4.569a1.095 1.095 0 0 1 2.162.248V8a.9.9 0 0 0 .9.9h1c1.646 0 2.608.356 3.176.924.568.568.924 1.53.924 3.176v1c0 1.579-.447 2.558-1.087 3.153-.654.606-1.651.947-3.013.947-.602 0-7.1.01-7.1-.01v-6.717l1.476-1.476c.289-.29.491-.654.584-1.052l.978-4.208ZM7.1 11.006V18c0 .523-.008.608-.02.655a.6.6 0 0 1-.425.425c-.047.012-.132.02-.655.02s-.608-.008-.655-.02a.6.6 0 0 1-.425-.425c-.012-.047-.02-.132-.02-.655v-7c0-.523.008-.608.02-.655a.6.6 0 0 1 .425-.425c.047-.012.132-.02.655-.02s.608.008.655.02a.6.6 0 0 1 .425.425c.012.047.017.139.02.66Z" clip-rule="evenodd"/></svg>
