<svg xmlns="http://www.w3.org/2000/svg" width="24" height="24" fill="currentColor" viewBox="0 0 24 24"><path d="M19.986 13.502c.014-.11.014-.24.014-.502V6c0-.261 0-.392-.014-.502a1.719 1.719 0 0 0-1.484-1.484C18.392 4 18.262 4 18 4c-.261 0-.392 0-.502.014-.774.1-1.384.71-1.484 1.484C16 5.608 16 5.738 16 6v7c0 .261 0 .392.014.502.1.774.71 1.384 1.485 1.484.11.014.24.014.501.014s.392 0 .502-.014c.774-.1 1.384-.71 1.484-1.485ZM8.137 5C4.897 5 3 6.53 3 10.042v1.08C3 14.633 4.896 16 8.137 16H9v3.129a1.865 1.865 0 0 0 3.65.54l1.486-4.733c.043-.14.064-.285.064-.432V6.6c0-.56 0-.84-.109-1.054a1 1 0 0 0-.437-.437C13.44 5 13.16 5 12.6 5H8.137Z"/></svg>
