<svg xmlns="http://www.w3.org/2000/svg" width="24" height="24" fill="currentColor" viewBox="0 0 24 24"><path d="M9.25 10.5a1.25 1.25 0 1 0 0 2.5 1.25 1.25 0 0 0 0-2.5Zm5.5 0a1.25 1.25 0 1 0 0 2.5 1.25 1.25 0 0 0 0-2.5Zm-.265 5.546c.106-.571-.373-1.046-.955-1.046h-3.06c-.582 0-1.061.475-.955 1.046.027.146.06.275.097.366a2.57 2.57 0 0 0 1.399 1.39c.314.13.65.198.989.198a2.598 2.598 0 0 0 2.388-1.588c.038-.091.07-.22.097-.366Z M11.173 1h1.654c.41 0 .754 0 1.084.077a2.9 2.9 0 0 1 1.288.677c.25.227.444.51.675.846H18.3a2.7 2.7 0 0 1 1.5 4.945v7.991c0 .948 0 1.713-.05 2.334-.053.64-.163 1.203-.43 1.725a4.4 4.4 0 0 1-1.922 1.923c-.523.266-1.087.377-1.726.43-.62.05-1.386.05-2.334.05h-2.676c-.948 0-1.714 0-2.334-.05-.64-.053-1.203-.164-1.726-.43a4.4 4.4 0 0 1-1.923-1.923c-.266-.522-.376-1.086-.428-1.725-.051-.62-.051-1.386-.051-2.334v-7.99A2.7 2.7 0 0 1 5.7 2.6h2.427c.23-.337.425-.62.674-.847a2.9 2.9 0 0 1 1.288-.677c.33-.078.674-.077 1.084-.077Zm.08 1.8c-.532 0-.652.006-.752.03a1.1 1.1 0 0 0-.489.256c-.076.07-.149.166-.45.604l-.014.02a1.78 1.78 0 0 1-.27.326 1.4 1.4 0 0 1-.62.327 1.772 1.772 0 0 1-.421.037H5.7a.9.9 0 1 0 0 1.8h12.6a.9.9 0 1 0 0-1.8h-2.536c-.09 0-.256.002-.421-.037a1.4 1.4 0 0 1-.622-.327 1.802 1.802 0 0 1-.269-.326l-.014-.02c-.301-.438-.374-.535-.45-.604a1.1 1.1 0 0 0-.489-.257c-.1-.023-.22-.029-.752-.029h-1.494ZM6 8v7.498c0 .995 0 1.687.045 2.225.043.528.123.829.238 1.055a2.6 2.6 0 0 0 1.137 1.136c.226.116.526.196 1.054.239.539.044 1.231.045 2.226.045h2.6c.995 0 1.687-.001 2.225-.045.528-.043.829-.123 1.055-.239a2.6 2.6 0 0 0 1.137-1.136c.115-.226.195-.527.238-1.055.044-.538.045-1.23.045-2.225V8H6Z" clip-rule="evenodd"/></svg>
