<svg xmlns="http://www.w3.org/2000/svg" width="24" height="24" fill="currentColor" viewBox="0 0 24 24"><path fill-rule="evenodd" d="M5.012 4.1h3.192a3.902 3.902 0 0 1 7.592 0H21a.9.9 0 0 1 0 1.8h-1.18l-1.155 12.316c-.045.484-.084.898-.143 1.237-.062.359-.157.704-.35 1.03a2.9 2.9 0 0 1-1.25 1.137c-.342.162-.695.225-1.057.253-.344.027-.76.027-1.245.027H9.38c-.485 0-.901 0-1.245-.027-.362-.028-.715-.09-1.057-.253a2.9 2.9 0 0 1-1.249-1.137c-.194-.326-.289-.671-.35-1.03a17.1 17.1 0 0 1-.144-1.237L4.18 5.9H3a.9.9 0 0 1 0-1.8h2.012ZM12 2.9a2.1 2.1 0 0 0-1.898 1.2h3.796A2.1 2.1 0 0 0 12 2.9Zm-6.012 3 1.136 12.115c.05.526.082.869.128 1.13.043.252.088.356.124.417a1.1 1.1 0 0 0 .474.432c.064.03.172.065.426.085.265.02.61.021 1.138.021h5.172c.529 0 .873 0 1.138-.021.254-.02.362-.055.427-.085a1.1 1.1 0 0 0 .473-.432c.037-.06.08-.166.124-.416.046-.262.079-.605.128-1.131L18.012 5.9H5.988Z" clip-rule="evenodd"/></svg>
