<svg xmlns="http://www.w3.org/2000/svg" width="24" height="24" fill="currentColor" viewBox="0 0 24 24"><path fill-rule="evenodd" d="M16.777 3h1.419c.31 0 .596 0 .834.02.258.02.539.068.817.21.397.2.72.523.923.918.141.277.19.557.21.814.02.237.02.521.02.83V7.19c0 .31 0 .594-.02.831-.02.256-.069.537-.21.813a2.107 2.107 0 0 1-.923.92c-.278.14-.56.188-.817.21-.238.019-.524.019-.834.019h-1.419c-.31 0-.596 0-.834-.02a2.148 2.148 0 0 1-.817-.21 2.107 2.107 0 0 1-.923-.919 2.125 2.125 0 0 1-.21-.813 8.287 8.287 0 0 1-.02-.63l-2.198-.002c-.495-.001-.81 0-1.05.018-.23.019-.309.05-.343.067a.803.803 0 0 0-.352.35c-.017.034-.049.113-.068.341-.02.24-.02.554-.02 1.046v5.57c0 .49 0 .804.02 1.043.019.228.05.306.068.34.077.15.2.273.35.35.035.017.113.049.342.067.24.02.555.021 1.048.022l2.203.003a7.95 7.95 0 0 1 .02-.627c.02-.256.069-.537.21-.813.203-.396.526-.718.923-.92.278-.14.56-.189.817-.21.238-.019.524-.019.834-.019h1.419c.31 0 .596 0 .834.02.258.02.539.068.817.21.397.201.72.523.923.919.141.276.19.557.21.813.02.237.02.522.02.831v1.397c0 .31 0 .594-.02.831-.02.256-.069.537-.21.814a2.108 2.108 0 0 1-.923.919c-.278.14-.56.189-.817.21-.238.019-.524.019-.834.019h-1.419c-.31 0-.596 0-.834-.02a2.148 2.148 0 0 1-.817-.21 2.108 2.108 0 0 1-.923-.918 2.125 2.125 0 0 1-.21-.814 8.288 8.288 0 0 1-.02-.63l-2.24-.002c-.449 0-.839-.001-1.16-.028-.341-.028-.684-.09-1.016-.259a2.61 2.61 0 0 1-1.14-1.137c-.17-.33-.231-.672-.259-1.011-.026-.321-.026-.71-.026-1.156v-1.921H2.905A.903.903 0 0 1 2 11.992c0-.498.405-.901.905-.901h5.227V9.177c0-.448 0-.837.026-1.159.028-.34.09-.682.26-1.013a2.61 2.61 0 0 1 1.144-1.138c.332-.168.676-.23 1.017-.257.323-.025.714-.025 1.164-.024l2.23.003a7.95 7.95 0 0 1 .02-.627c.02-.257.069-.537.21-.814.203-.395.526-.717.923-.919.278-.14.56-.189.817-.21C16.18 3 16.467 3 16.777 3Z" clip-rule="evenodd"/></svg>
