<svg xmlns="http://www.w3.org/2000/svg" width="24" height="24" viewBox="0 0 24 24" fill="currentColor"><path d="M15.492 17.689h-1.896v-9.58h2.064c.417 0 .625 0 .822.047q.262.063.492.205c.172.105.32.252.614.547l3.193 3.193c.295.294.442.442.547.614q.142.23.204.492c.047.196.047.405.047.822v2.297c0 .477 0 .715-.093.898a.85.85 0 0 1-.372.372c-.182.093-.42.093-.898.093h-.533m-14.868 0a2.395 2.395 0 0 1-2.395-2.395v-3.561c0-2.386 0-3.58.465-4.49A4.26 4.26 0 0 1 4.747 5.38c.91-.465 2.104-.465 4.49-.465h1.633c.954 0 1.431 0 1.796.186.32.163.581.424.745.745.185.364.185.841.185 1.796v10.046H9.605"/><circle cx="6.811" cy="17.29" r="2.794"/><circle cx="17.588" cy="17.689" r="2.395"/><path fill-rule="evenodd" d="M10.87 4.016c.462 0 .863 0 1.192.026.34.028.682.09 1.013.258a2.6 2.6 0 0 1 1.137 1.138c.168.33.23.672.258 1.012.018.222.023.476.024.76h1.165c.374 0 .709-.006 1.033.071.265.064.519.17.752.312.284.174.516.414.78.679l3.192 3.192c.265.264.505.496.68.78.142.233.247.488.31.753.078.324.073.658.073 1.031v2.297c0 .224 0 .447-.015.634a1.8 1.8 0 0 1-.176.673c-.168.33-.436.599-.765.767-.24.121-.476.16-.674.175q-.045.003-.09.003a3.295 3.295 0 0 1-6.34.012h-4.15a3.695 3.695 0 0 1-7.044-.41 3.3 3.3 0 0 1-1.705-2.885v-3.562c0-1.177 0-2.115.061-2.87.063-.767.194-1.424.501-2.028a5.16 5.16 0 0 1 2.256-2.256c.604-.307 1.262-.438 2.028-.5.755-.062 1.693-.062 2.87-.062zm-4.06 11.38a1.893 1.893 0 1 0 0 3.787 1.893 1.893 0 0 0 0-3.786m10.777.799a1.494 1.494 0 1 0 0 2.988 1.494 1.494 0 0 0 0-2.988M9.237 5.817c-1.208 0-2.06 0-2.725.054-.655.054-1.049.155-1.356.312a3.36 3.36 0 0 0-1.47 1.468c-.156.308-.257.702-.31 1.357-.055.665-.055 1.517-.055 2.725v3.561c0 .187.035.365.097.53a3.696 3.696 0 0 1 7.052.965h2.226V7.337a10 10 0 0 0-.02-.74c-.019-.229-.05-.308-.067-.342a.8.8 0 0 0-.352-.352c-.034-.017-.114-.048-.342-.067-.239-.02-.554-.02-1.045-.02zm5.26 10.728a3.297 3.297 0 0 1 6.178-.007l.004-.213v-2.297c0-.459-.006-.542-.022-.61a.8.8 0 0 0-.096-.233c-.037-.06-.093-.123-.417-.448l-3.192-3.193c-.325-.325-.389-.38-.449-.416a.8.8 0 0 0-.232-.097c-.069-.016-.153-.021-.612-.021h-1.163z" clip-rule="evenodd"/></svg>