<svg xmlns="http://www.w3.org/2000/svg" width="24" height="24" viewBox="0 0 24 24" fill="currentColor"><path d="M16.99 7.6c.434.002.65.002.864.11a1.1 1.1 0 0 1 .435.436c.109.213.109.43.11.863l.001.59v3.387c-.002.434-.002.65-.11.864a1.1 1.1 0 0 1-.436.435c-.213.109-.43.109-.864.11l-.59.002H7.6q-.325 0-.591-.002c-.433 0-.65-.001-.863-.11a1.1 1.1 0 0 1-.435-.435c-.109-.213-.11-.43-.11-.864l-.001-.59V9.01c.002-.433.002-.65.11-.863.088-.17.267-.348.436-.435.213-.109.43-.11.863-.11l.59-.001h9.391"/><path fill-rule="evenodd" d="M17.698 4.006c1.138.018 1.83.09 2.39.376a3.5 3.5 0 0 1 1.53 1.53C22 6.66 22 7.64 22 9.6v2.8l-.006 1.298c-.018 1.138-.09 1.83-.376 2.39a3.5 3.5 0 0 1-1.53 1.53c-.56.286-1.252.358-2.39.376L16.4 18h-.8l1.304 1.63a.84.84 0 0 1-.655 1.365H7.746a.84.84 0 0 1-.656-1.364L8.396 18H7.6c-1.838 0-2.814 0-3.545-.314l-.144-.068a3.5 3.5 0 0 1-1.394-1.288l-.135-.241c-.286-.562-.358-1.253-.376-2.39L2 12.4V9.6c0-1.838 0-2.814.314-3.545l.068-.144A3.5 3.5 0 0 1 3.67 4.517l.241-.135C4.66 4 5.64 4 7.6 4h8.8zM7.6 5.8c-1.01 0-1.66.001-2.153.042-.471.038-.64.103-.718.143a1.7 1.7 0 0 0-.744.744c-.04.078-.106.247-.144.72C3.8 7.94 3.8 8.59 3.8 9.598V12.4c0 1.01 0 1.66.04 2.153.04.472.105.641.145.72a1.7 1.7 0 0 0 .744.742c.078.04.247.106.718.144.494.04 1.143.041 2.153.041h8.8c1.01 0 1.66 0 2.153-.04.471-.04.64-.105.718-.145a1.7 1.7 0 0 0 .744-.742c.04-.079.106-.248.144-.72.04-.494.041-1.143.041-2.153V9.6c0-1.01 0-1.659-.04-2.152-.04-.472-.105-.641-.145-.72a1.7 1.7 0 0 0-.744-.743c-.078-.04-.247-.105-.718-.143-.494-.04-1.143-.042-2.153-.042z" clip-rule="evenodd"/></svg>