<svg xmlns="http://www.w3.org/2000/svg" width="24" height="24" fill="currentColor" viewBox="0 0 24 24"><path fill-rule="evenodd" d="M17.2 5.8H6.8c-.87 0-1.414.001-1.824.035-.389.031-.496.083-.521.095a1.2 1.2 0 0 0-.525.525c-.012.025-.064.132-.096.521-.033.41-.034.954-.034 1.824v4.4c0 .87.001 1.414.034 1.824.032.389.084.496.096.521a1.2 1.2 0 0 0 .525.525c.025.012.132.064.521.096.41.033.954.034 1.824.034h10.4c.87 0 1.414-.001 1.824-.034.389-.032.496-.084.521-.096a1.2 1.2 0 0 0 .525-.525c.012-.025.064-.132.096-.521.033-.41.034-.954.034-1.824V8.8c0-.87-.001-1.414-.034-1.824-.032-.389-.084-.496-.096-.521a1.2 1.2 0 0 0-.525-.525c-.025-.012-.132-.064-.521-.096-.41-.033-.954-.034-1.824-.034ZM2.327 5.638C2 6.28 2 7.12 2 8.8v4.4c0 1.68 0 2.52.327 3.162a3 3 0 0 0 1.311 1.311C4.28 18 5.12 18 6.8 18h10.4c1.68 0 2.52 0 3.162-.327a3 3 0 0 0 1.311-1.311C22 15.72 22 14.88 22 13.2V8.8c0-1.68 0-2.52-.327-3.162a3 3 0 0 0-1.311-1.311C19.72 4 18.88 4 17.2 4H6.8c-1.68 0-2.52 0-3.162.327a3 3 0 0 0-1.311 1.311Z" clip-rule="evenodd"/><path d="M8.398 17.996h7.199l1.307 1.635a.84.84 0 0 1-.655 1.364H7.746a.84.84 0 0 1-.656-1.364l1.308-1.635Z"/></svg>
