<svg xmlns="http://www.w3.org/2000/svg" width="24" height="24" fill="currentColor" viewBox="0 0 24 24"><path fill-rule="evenodd" d="M13.481 3.562a1.85 1.85 0 0 0-1.403-.56c-4.963.228-9.045 4.133-9.045 8.592 0 1.527.485 2.952 1.318 4.16-.04.476-.178.986-.382 1.531-.186.496-.406.973-.632 1.462-.074.16-.149.322-.223.486-.394.865.29 1.801 1.194 1.766 2.098-.081 3.83-.6 5.035-1.69 1.002.308 2.079.474 3.199.474 4.124 0 7.977-2.28 9.295-5.631.403-1.024.008-2.063-.635-2.718l-7.72-7.872ZM11.2 4.9c-3.67.603-6.362 3.606-6.362 6.695 0 1.222.414 2.37 1.149 3.347.117.155.18.345.18.539 0 .86-.229 1.691-.507 2.434-.156.415-.337.83-.515 1.219 1.595-.191 2.637-.71 3.267-1.442a.904.904 0 0 1 .999-.257 9.015 9.015 0 0 0 3.132.551c3.401 0 6.37-1.81 7.484-4.182-1.345 0-2.412-.001-3.273-.071-.891-.073-1.642-.224-2.326-.572a5.903 5.903 0 0 1-2.584-2.575c-.349-.682-.5-1.43-.573-2.319-.071-.87-.071-1.949-.071-3.314V4.9Zm8.04 7.105-6.236-6.358c.002 1.04.012 1.83.065 2.474.063.777.185 1.262.382 1.649a4.101 4.101 0 0 0 1.796 1.79c.387.196.874.317 1.654.38.616.05 1.366.062 2.338.065Z" clip-rule="evenodd"/></svg>
