<svg xmlns="http://www.w3.org/2000/svg" width="24" height="24" fill="currentColor" viewBox="0 0 24 24"><path fill-rule="evenodd" d="M12 3.9a8.1 8.1 0 1 0 0 16.2 8.1 8.1 0 0 0 0-16.2ZM2.1 12c0-5.468 4.432-9.9 9.9-9.9s9.9 4.432 9.9 9.9-4.432 9.9-9.9 9.9-9.9-4.432-9.9-9.9Z" clip-rule="evenodd"/><path d="M10.133 15.779a.9.9 0 1 1-1.405-1.125l1.405 1.125ZM11.1 8.15a.9.9 0 0 1 1.8 0v2.605l2.67-.89.088-.024a.9.9 0 0 1 .48 1.733l-2.63.876 1.765 2.204a.9.9 0 0 1-1.406 1.125L12 13.445l-1.867 2.334-1.405-1.125 1.762-2.204-2.629-.876-.086-.034a.9.9 0 0 1 .655-1.674l2.67.89V8.15Z"/></svg>