<svg xmlns="http://www.w3.org/2000/svg" width="24" height="24" fill="currentColor" viewBox="0 0 24 24"><path fill-rule="evenodd" d="M16.733 4H9.767c-.392 0-.738 0-1.025.023-.306.025-.623.081-.932.239A2.4 2.4 0 0 0 6.762 5.31c-.158.309-.214.626-.239.932-.023.287-.023.633-.023 1.025v6.966c0 .392 0 .738.023 1.025.025.306.081.623.239.932a2.4 2.4 0 0 0 1.048 1.048c.309.158.626.214.932.239.287.023.633.023 1.025.023h6.966c.392 0 .738 0 1.026-.023.305-.025.622-.081.93-.239a2.4 2.4 0 0 0 1.05-1.048c.157-.309.213-.626.238-.932.023-.287.023-.633.023-1.025V7.266c0-.391 0-.737-.023-1.024-.025-.306-.081-.623-.239-.932a2.4 2.4 0 0 0-1.048-1.048 2.439 2.439 0 0 0-.931-.239A13.482 13.482 0 0 0 16.733 4Zm-1.856 5.126a1.625 1.625 0 1 0-3.25-.001 1.625 1.625 0 0 0 3.25 0ZM10 13.188v.404c0 .225.183.408.408.408h5.685a.408.408 0 0 0 .409-.408v-.404c0-1.422-2.166-1.828-3.251-1.828s-3.25.406-3.251 1.828Z M4.8 14.5V7.1A1.8 1.8 0 0 0 3 8.9v5.638c0 .948 0 1.714.05 2.334.053.64.163 1.203.43 1.726a4.4 4.4 0 0 0 1.922 1.922c.523.267 1.087.377 1.726.43.62.05 1.386.05 2.334.05H15.1a1.8 1.8 0 0 0 1.8-1.8H9.5c-.995 0-1.687 0-2.226-.045-.527-.043-.828-.123-1.054-.238a2.6 2.6 0 0 1-1.137-1.137c-.115-.226-.195-.527-.238-1.055-.044-.538-.045-1.23-.045-2.225Z"/></svg>
