<svg xmlns="http://www.w3.org/2000/svg" width="24" height="24" fill="currentColor" viewBox="0 0 24 24"><path fill-rule="evenodd" d="M12 8.8a1.7 1.7 0 1 0 0 3.4 1.7 1.7 0 0 0 0-3.4Zm-3.5 1.7a3.5 3.5 0 1 1 7 0 3.5 3.5 0 0 1-7 0Z" clip-rule="evenodd"/><path fill-rule="evenodd" d="M12 2.1A9.872 9.872 0 0 0 5 5a9.872 9.872 0 0 0-2.9 7c0 2.733 1.11 5.21 2.9 7a9.872 9.872 0 0 0 7 2.9c2.733 0 5.21-1.11 7-2.9a9.872 9.872 0 0 0 2.9-7c0-2.734-1.11-5.21-2.9-7a9.872 9.872 0 0 0-7-2.9Zm4.382 16.713A7.067 7.067 0 0 0 12 17.3a7.066 7.066 0 0 0-4.382 1.513A8.06 8.06 0 0 0 12 20.1a8.06 8.06 0 0 0 4.382-1.287ZM6.272 6.273A8.072 8.072 0 0 1 12 3.9c2.237 0 4.26.906 5.727 2.372A8.072 8.072 0 0 1 20.1 12a8.07 8.07 0 0 1-2.297 5.651A8.868 8.868 0 0 0 12 15.5a8.869 8.869 0 0 0-5.803 2.151A8.07 8.07 0 0 1 3.9 12c0-2.237.906-4.26 2.372-5.728ZM8.5 10.5a3.5 3.5 0 1 1 7 0 3.5 3.5 0 0 1-7 0ZM12 8.8a1.7 1.7 0 1 0 0 3.4 1.7 1.7 0 0 0 0-3.4Z" clip-rule="evenodd"/></svg>
