<svg width="24" height="24" viewBox="0 0 24 24" fill="none" xmlns="http://www.w3.org/2000/svg">
<path d="M12 8C12 5.79 10.21 4 8 4C5.79 4 4 5.79 4 8C4 10.21 5.79 12 8 12C10.21 12 12 10.21 12 8ZM8 13.5C10.67 13.5 16 14.5 16 18V19C16 19.5523 15.5523 20 15 20H1C0.447715 20 0 19.5523 0 19V18C0 14.5 5.33 13.5 8 13.5ZM19.7071 4.29289C20.0976 4.68342 20.0976 5.31658 19.7071 5.70711L17.414 8H23C23.5128 8 23.9355 8.38604 23.9933 8.88338L24 9C24 9.55228 23.5523 10 23 10H17.414L19.7071 12.2929C20.0976 12.6834 20.0976 13.3166 19.7071 13.7071C19.3166 14.0976 18.6834 14.0976 18.2929 13.7071L14.2929 9.70711C13.9024 9.31658 13.9024 8.68342 14.2929 8.29289L18.2929 4.29289C18.6834 3.90237 19.3166 3.90237 19.7071 4.29289Z" fill="currentColor"/>
</svg>
