<svg xmlns="http://www.w3.org/2000/svg" width="24" height="24" fill="currentColor" viewBox="0 0 24 24"><path d="M17 13.5c3.688 0 6.9 1.31 6.9 4.257 0 1.554-.644 2.243-1.959 2.243h-5.596c-.543 0-.927-.551-.82-1.084.076-.373.39-.716.77-.716l5.783.002s.022-.297.022-.445c0-1.512-2.318-2.457-5.1-2.457-.472 0-.93.027-1.367.08a.902.902 0 0 1-.85-.398c-.35-.516-.166-1.296.453-1.375A14.065 14.065 0 0 1 17 13.5Zm-10 0c3.688 0 6.9 1.31 6.9 4.257 0 1.554-.644 2.243-1.959 2.243H2.06C.744 20 .1 19.31.1 17.757.1 14.81 3.312 13.5 7 13.5Zm0 1.8c-2.782 0-5.1.945-5.1 2.457 0 .149.02.445.02.445h10.158s.022-.297.022-.445c0-1.512-2.318-2.457-5.1-2.457ZM17 4.2a4.15 4.15 0 0 1 4.15 4.15A4.15 4.15 0 0 1 17 12.5a4.15 4.15 0 0 1-4.15-4.15A4.15 4.15 0 0 1 17 4.2Zm-10 0a4.15 4.15 0 0 1 4.15 4.15A4.15 4.15 0 0 1 7 12.5a4.15 4.15 0 0 1-4.15-4.15A4.15 4.15 0 0 1 7 4.2ZM17 6a2.35 2.35 0 1 0 0 4.7A2.35 2.35 0 1 0 17 6ZM7 6a2.35 2.35 0 1 0 0 4.7A2.35 2.35 0 1 0 7 6Z"/></svg>
