<svg xmlns="http://www.w3.org/2000/svg" width="24" height="24" fill="currentColor" viewBox="0 0 24 24"><path d="M3.264 5.743a.9.9 0 0 1 0-1.273L4.47 3.264a.9.9 0 0 1 1.273 1.272L4.537 5.743a.9.9 0 0 1-1.273 0Z"/><path fill-rule="evenodd" d="M8.5 10.005a3.5 3.5 0 1 1 7 .002 3.5 3.5 0 0 1-7-.002Zm3.5 1.698a1.7 1.7 0 1 1 0-3.4 1.7 1.7 0 0 1 0 3.4Zm.004 3.299c-1.969-.01-3.457.364-4.477 1.083C6.467 16.833 6 17.895 6 19.001c0 .253.001.578.076.864.097.366.318.702.722.903.314.157.676.196.977.214.317.019.72.019 1.197.019h6.056c.476 0 .88 0 1.197-.02.3-.017.663-.056.977-.213.403-.201.625-.537.721-.902C18 19.579 18 19.254 18 19c0-1.105-.47-2.157-1.529-2.9-1.017-.713-2.5-1.09-4.467-1.099Zm-4.204 4c0-.559.211-1.055.764-1.446.594-.418 1.656-.762 3.432-.754 1.779.009 2.845.355 3.442.773.554.389.762.877.762 1.426 0 .069 0 .127-.002.178-.024.003-.05.004-.08.006a21.72 21.72 0 0 1-1.118.016H9a21.635 21.635 0 0 1-1.199-.021A8.743 8.743 0 0 1 7.8 19Z M18.497 14.235a.9.9 0 1 0 1.274 1.273l.965-.965a.9.9 0 1 0-1.273-1.273l-.966.965Zm-1.233-2.495a.9.9 0 0 1 0-1.273L19.46 8.27a.9.9 0 0 1 1.273 1.272l-2.197 2.196a.9.9 0 0 1-1.273 0ZM3.266 9.468a.9.9 0 1 0 1.273 1.273l2.197-2.196a.9.9 0 1 0-1.273-1.273L3.266 9.468Zm7.47-6.198a.9.9 0 0 1 0 1.273l-.6.6A.9.9 0 1 1 8.864 3.87l.6-.6a.9.9 0 0 1 1.272 0Zm5 1.273a.9.9 0 0 0-1.272-1.273l-.6.6a.9.9 0 0 0 1.272 1.273l.6-.6Zm5-1.273a.9.9 0 0 1 0 1.273l-2.2 2.2a.9.9 0 0 1-1.272-1.273l2.2-2.2a.9.9 0 0 1 1.272 0ZM3.266 14.466A.9.9 0 1 0 4.54 15.74l2.201-2.2a.9.9 0 1 0-1.273-1.273l-2.2 2.2Z"/></svg>
