<svg fill="none" height="24" viewBox="0 0 24 24" width="24" xmlns="http://www.w3.org/2000/svg"><g fill="currentColor"><path clip-rule="evenodd" d="m8.49993 8.09998c0-1.933 1.56697-3.5 3.49997-3.5s3.5 1.567 3.5 3.5c0 1.93302-1.567 3.50002-3.5 3.50002s-3.49997-1.567-3.49997-3.50002zm3.49997 1.7c-.9389 0-1.7-.76112-1.7-1.7 0-.93889.7611-1.7 1.7-1.7s1.7.76111 1.7 1.7c0 .93888-.7611 1.7-1.7 1.7z" fill-rule="evenodd"/><path clip-rule="evenodd" d="m12.0003 13.1c-1.504 0-2.92554.3536-4.00207 1.015-1.07789.6623-1.89792 1.7023-1.89792 3.0397 0 .8095.27847 1.5324.85121 2.0428.55817.4975 1.29385.7025 2.04879.7025h5.99999c.755 0 1.4906-.205 2.0488-.7025.5727-.5104.8512-1.2333.8512-2.0428 0-1.3374-.82-2.3774-1.8979-3.0397-1.0765-.6614-2.4981-1.015-4.0021-1.015zm-4.09999 4.0547c0-.5173.30536-1.0545 1.04017-1.506.73616-.4523 1.81462-.7487 3.05982-.7487s2.3237.2964 3.0598.7487c.7348.4515 1.0402.9887 1.0402 1.506 0 .3859-.1215.5856-.2488.699-.1418.1264-.4061.2463-.8512.2463h-5.99999c-.44506 0-.70938-.1199-.85121-.2463-.12726-.1134-.24879-.3131-.24879-.699z" fill-rule="evenodd"/><path d="m5.90335 13.7c0-.4971-.40295-.9-.90001-.9-2.00675 0-3.95 1.276-3.95 3.3571 0 1.2631.87016 2.7429 2.60711 2.7429.49705 0 .9-.4029.9-.9s-.40295-.9-.9-.9c-.27194 0-.44983-.1042-.57534-.254-.13985-.1669-.23177-.4168-.23177-.6889 0-.731.73929-1.5571 2.15-1.5571.49706 0 .90001-.4029.90001-.9z"/><path d="m6.31446 5.45905c.49206-.0703.94794.2716 1.01824.76366s-.2716.94794-.76366 1.01824c-.60794.08686-1.06887.60664-1.06887 1.22549 0 .67925.555 1.23828 1.25 1.23828.49706 0 .9.40298.9.89998 0 .4971-.40294.9-.9.9-1.67982 0-3.05-1.3556-3.05-3.03826 0-1.53471 1.13964-2.79671 2.61429-3.00739z"/><path d="m18.0965 13.7c0-.4971.403-.9.9-.9 2.0068 0 3.95 1.276 3.95 3.3571 0 1.2631-.8701 2.7429-2.6071 2.7429-.497 0-.9-.4029-.9-.9s.403-.9.9-.9c.2719 0 .4498-.1042.5753-.254.1399-.1669.2318-.4168.2318-.6889 0-.731-.7393-1.5571-2.15-1.5571-.497 0-.9-.4029-.9-.9z"/><path d="m17.6859 5.45905c-.4921-.0703-.948.2716-1.0183.76366s.2716.94794.7637 1.01824c.6079.08686 1.0689.60664 1.0689 1.22549 0 .67925-.555 1.23828-1.25 1.23828-.4971 0-.9.40298-.9.89998 0 .4971.4029.9.9.9 1.6798 0 3.05-1.3556 3.05-3.03826 0-1.53471-1.1397-2.79671-2.6143-3.00739z"/></g></svg>
