<svg xmlns="http://www.w3.org/2000/svg" width="24" height="24" fill="currentColor" viewBox="0 0 24 24"><path fill-rule="evenodd" d="M7.722 6.704a4.7 4.7 0 1 1 4.7 4.7.9.9 0 0 1 0-1.8 2.9 2.9 0 1 0-2.9-2.9.9.9 0 0 1-1.8 0Zm1.3 6.092c-1.165.38-2.219.84-3.034 1.334-1.597.967-2.487 2.498-2.487 4.492 0 .868.306 1.593.967 2.05.592.412 1.332.505 1.986.505H17.4l.564.563a.9.9 0 0 0 1.272-1.273L5.036 6.264a.9.9 0 1 0-1.272 1.272l5.258 5.26Zm6.579 6.58-5.133-5.133c-1.43.389-2.688.906-3.547 1.426-1.054.639-1.62 1.583-1.62 2.953 0 .422.124.524.192.571.136.095.423.184.961.184h9.147Zm-1.098-5.518a.9.9 0 0 1 1.089-.66c.93.228 2.041.667 2.973 1.357.933.69 1.767 1.694 1.928 3.05a.9.9 0 0 1-1.787.211c-.083-.693-.515-1.3-1.21-1.814-.696-.514-1.573-.87-2.333-1.055a.9.9 0 0 1-.66-1.089Z" clip-rule="evenodd"/></svg>
