<svg width="24" height="24" viewBox="0 0 24 24" fill="none" xmlns="http://www.w3.org/2000/svg">
<path d="M8 18V19C8 19.5523 8.44771 20 9 20H23C23.5523 20 24 19.5523 24 19V18C24 14.5 18.67 13.5 16 13.5C13.33 13.5 8 14.5 8 18ZM7.7868 8.54904C8.17392 8.15515 8.80707 8.14967 9.20096 8.5368C9.59485 8.92392 9.60033 9.55707 9.2132 9.95096L4.29906 14.951C3.9079 15.349 3.26668 15.3498 2.87448 14.9528L0.288625 12.3355C-0.0995278 11.9426 -0.0956939 11.3094 0.297188 10.9213C0.69007 10.5331 1.32322 10.5369 1.71138 10.9298L3.584 12.8253L7.7868 8.54904ZM16 4C18.21 4 20 5.79 20 8C20 10.21 18.21 12 16 12C13.79 12 12 10.21 12 8C12 5.79 13.79 4 16 4Z" fill="currentColor"/>
</svg>
