<svg xmlns="http://www.w3.org/2000/svg" width="24" height="24" fill="currentColor" viewBox="0 0 24 24"><path d="M14.85 7.95A2.849 2.849 0 0 0 12 5.1a2.849 2.849 0 0 0-2.85 2.85A2.849 2.849 0 0 0 12 10.8a2.849 2.849 0 0 0 2.85-2.85Zm1.8 0A4.649 4.649 0 0 1 12 12.6a4.649 4.649 0 0 1-4.65-4.65A4.649 4.649 0 0 1 12 3.3a4.649 4.649 0 0 1 4.65 4.65ZM5.9 18.429c0 .768-.09.671.335.671h11.53c.426 0 .335.097.335-.671 0-1.893-2.778-3.029-6.1-3.029-3.322 0-6.1 1.136-6.1 3.029Zm-1.8 0c0-3.327 3.673-4.829 7.9-4.829s7.9 1.502 7.9 4.829c0 1.735-.685 2.471-2.135 2.471H6.235c-1.45 0-2.135-.736-2.135-2.471Z"/></svg>
