<svg xmlns="http://www.w3.org/2000/svg" width="24" height="24" fill="currentColor" viewBox="0 0 24 24"><path fill-rule="evenodd" d="M12 8.8a1.7 1.7 0 1 0 0 3.4 1.7 1.7 0 0 0 0-3.4Zm-3.5 1.7a3.5 3.5 0 1 1 7 0 3.5 3.5 0 0 1-7 0Z" clip-rule="evenodd"/><path fill-rule="evenodd" d="M8.228 3.1c-1.57 0-2.32.127-3.082.534a3.647 3.647 0 0 0-1.512 1.512c-.407.762-.534 1.512-.534 3.082v7.544c0 1.57.127 2.32.534 3.082.348.65.863 1.164 1.512 1.512.762.407 1.512.534 3.082.534h7.544c1.57 0 2.32-.127 3.082-.534a3.647 3.647 0 0 0 1.512-1.512c.407-.762.534-1.512.534-3.082V8.228c0-1.57-.127-2.32-.534-3.082a3.647 3.647 0 0 0-1.512-1.512c-.762-.407-1.512-.534-3.082-.534H8.228Zm0 1.8c-1.487 0-1.87.128-2.233.321-.336.18-.594.438-.774.774-.193.362-.321.746-.321 2.233v7.544c0 1.487.128 1.87.321 2.233.07.13.15.247.243.354A8.877 8.877 0 0 1 12 15.499a8.877 8.877 0 0 1 6.535 2.86c.093-.107.174-.225.243-.354.194-.362.322-.746.322-2.233V8.228c0-1.487-.128-1.87-.322-2.233a1.848 1.848 0 0 0-.773-.774c-.362-.193-.746-.321-2.233-.321H8.228ZM12 7a3.5 3.5 0 1 0 0 7 3.5 3.5 0 0 0 0-7Zm-1.7 3.5a1.7 1.7 0 1 1 3.4 0 1.7 1.7 0 0 1-3.4 0Zm-2.072 8.6h7.544c.373 0 .676-.008.927-.023A7.072 7.072 0 0 0 12 17.3c-1.801 0-3.446.67-4.699 1.777.251.015.554.023.927.023Z" clip-rule="evenodd"/></svg>
