<svg xmlns="http://www.w3.org/2000/svg" width="24" height="24" fill="currentColor" viewBox="0 0 24 24"><path fill-rule="evenodd" d="M8.561 5.696c0-1.612 1.26-2.897 2.868-2.897 1.65 0 3.003 1.326 3.003 2.897 0 1.572-1.353 2.897-3.003 2.897-1.608 0-2.868-1.284-2.868-2.897ZM11.43 1C8.801 1 6.761 3.115 6.761 5.696c0 2.581 2.04 4.696 4.668 4.696 2.586 0 4.803-2.074 4.803-4.696S14.016 1 11.429 1Zm8.49 9.629a1.277 1.277 0 0 1 1.804 0l.903.902a1.276 1.276 0 0 1 0 1.805l-.903.902-2.708-2.707.903-.902Zm-2.154 2.151 2.708 2.707-5.53 5.53a5.105 5.105 0 0 1-1.996 1.232l-2.192.73a.383.383 0 0 1-.485-.484l.73-2.19a5.104 5.104 0 0 1 1.235-1.996l5.53-5.529Zm-11.16 2.067c-1.342.688-2.107 1.638-2.275 2.803-.064.442-.031.968.158 1.34.086.171.2.301.354.393.154.093.399.178.794.178h2.878a.9.9 0 1 1 0 1.8H5.636c-.663 0-1.241-.147-1.722-.436a2.73 2.73 0 0 1-1.032-1.12c-.42-.828-.427-1.771-.334-2.413.274-1.896 1.532-3.273 3.237-4.146 1.69-.866 3.882-1.278 6.246-1.278h1.596a.9.9 0 1 1 0 1.8h-1.596c-2.183 0-4.067.384-5.425 1.079Z" clip-rule="evenodd"/></svg>
