<svg xmlns="http://www.w3.org/2000/svg" width="24" height="24" fill="currentColor" viewBox="0 0 24 24"><path fill-rule="evenodd" d="M12 6.5a3.5 3.5 0 1 0 0 7 3.5 3.5 0 0 0 0-7ZM10.3 10a1.7 1.7 0 1 1 3.4 0 1.7 1.7 0 0 1-3.4 0Z M9.462 3h5.076c.948 0 1.714 0 2.334.051.64.052 1.203.163 1.726.429a4.4 4.4 0 0 1 1.922 1.923c.267.522.377 1.086.43 1.725.05.62.05 1.386.05 2.334v5.568c0 .897 0 1.514-.133 2.045a4.4 4.4 0 0 1-3.192 3.192c-.531.134-1.148.133-2.045.133h-.13c-.301 0-.54.184-1.098.77l-.063.067c-.45.475-1.195 1.263-2.339 1.263s-1.89-.788-2.339-1.263l-.063-.066c-.558-.587-.797-.771-1.098-.771h-.13c-.897 0-1.514 0-2.045-.133a4.4 4.4 0 0 1-3.192-3.192C3 16.544 3 15.927 3 15.03V9.462c0-.948 0-1.713.05-2.334.053-.639.163-1.203.43-1.725A4.4 4.4 0 0 1 5.402 3.48c.523-.266 1.087-.377 1.726-.429.62-.05 1.386-.05 2.334-.05ZM7.274 4.845c-.528.043-.828.123-1.054.239A2.6 2.6 0 0 0 5.083 6.22c-.115.226-.195.527-.238 1.055C4.8 7.813 4.8 8.505 4.8 9.5v5.4c0 1.077.007 1.45.079 1.735a2.6 2.6 0 0 0 .643 1.163A8.876 8.876 0 0 1 12 15a8.876 8.876 0 0 1 6.478 2.798 2.6 2.6 0 0 0 .643-1.163c.072-.285.079-.658.079-1.735V9.5c0-.995 0-1.687-.045-2.225-.043-.528-.123-.829-.238-1.055a2.6 2.6 0 0 0-1.137-1.136c-.226-.116-.527-.196-1.055-.239-.538-.044-1.23-.045-2.225-.045h-5c-.995 0-1.687.001-2.226.045ZM8.5 18.6c-.57 0-.942-.002-1.208-.014A7.072 7.072 0 0 1 12 16.8a7.07 7.07 0 0 1 4.708 1.786c-.267.012-.64.014-1.208.014-1.144 0-1.89.788-2.339 1.263l-.063.066c-.558.587-.797.771-1.098.771-.301 0-.54-.184-1.098-.77l-.063-.067c-.45-.475-1.195-1.263-2.339-1.263Z" clip-rule="evenodd"/></svg>
