<svg xmlns="http://www.w3.org/2000/svg" width="24" height="24" fill="currentColor" viewBox="0 0 24 24"><path d="M13.25 7.5a1.625 1.625 0 1 1 .002 3.25 1.625 1.625 0 0 1-.001-3.25ZM10 13.592v-.405c0-1.421 2.165-1.827 3.25-1.827s3.251.406 3.25 1.828v.404a.408.408 0 0 1-.408.409h-5.684a.408.408 0 0 1-.409-.41Z M9.767 4h6.966c.392 0 .738 0 1.026.023.305.025.622.081.93.239a2.4 2.4 0 0 1 1.05 1.048c.157.309.213.626.238.932.023.287.023.633.023 1.024v6.967c0 .392 0 .738-.023 1.025-.025.306-.081.623-.239.932a2.4 2.4 0 0 1-1.048 1.048 2.431 2.431 0 0 1-.931.239c-.288.023-.634.023-1.026.023H9.767c-.392 0-.738 0-1.025-.023-.306-.025-.623-.081-.932-.239a2.4 2.4 0 0 1-1.048-1.048c-.158-.309-.214-.626-.239-.932a13.48 13.48 0 0 1-.023-1.025V7.267c0-.392 0-.738.023-1.025.025-.306.081-.623.239-.932A2.4 2.4 0 0 1 7.81 4.262c.309-.158.626-.214.932-.239C9.029 4 9.375 4 9.767 4Zm-.879 1.817c-.194.016-.248.042-.26.048a.6.6 0 0 0-.263.263c-.006.012-.032.066-.048.26A12.65 12.65 0 0 0 8.3 7.3v6.9c0 .435 0 .707.017.912.016.194.042.248.048.26a.6.6 0 0 0 .263.263c.012.006.066.032.26.048.205.016.477.017.912.017h6.9c.435 0 .707 0 .912-.017.194-.016.248-.042.26-.048a.6.6 0 0 0 .263-.263c.006-.012.032-.066.048-.26.016-.205.017-.477.017-.912V7.3c0-.435 0-.707-.017-.912-.016-.194-.042-.248-.048-.26a.6.6 0 0 0-.263-.263c-.012-.006-.066-.032-.26-.048A12.65 12.65 0 0 0 16.7 5.8H9.8c-.435 0-.707 0-.912.017Z M4.8 7.1v7.4c0 .995 0 1.687.045 2.226.043.527.123.828.238 1.054a2.6 2.6 0 0 0 1.137 1.137c.226.115.527.195 1.054.238.539.044 1.231.045 2.226.045h7.4a1.8 1.8 0 0 1-1.8 1.8H9.462c-.948 0-1.714 0-2.334-.05-.64-.053-1.203-.163-1.726-.43a4.4 4.4 0 0 1-1.922-1.922c-.267-.523-.377-1.087-.43-1.726C3 16.252 3 15.486 3 14.538V8.9a1.8 1.8 0 0 1 1.8-1.8Z"/></svg>
