<svg width="24" height="24" viewBox="0 0 24 24" fill="none" xmlns="http://www.w3.org/2000/svg">
<path d="M12 8C12 5.79 10.21 4 8 4C5.79 4 4 5.79 4 8C4 10.21 5.79 12 8 12C10.21 12 12 10.21 12 8ZM8 13.5C10.67 13.5 16 14.5 16 18V19C16 19.5523 15.5523 20 15 20H1C0.447715 20 0 19.5523 0 19V18C0 14.5 5.33 13.5 8 13.5ZM18.2929 4.29289C18.6834 3.90237 19.3166 3.90237 19.7071 4.29289L23.7071 8.29289C24.0976 8.68342 24.0976 9.31658 23.7071 9.70711L19.7071 13.7071C19.3166 14.0976 18.6834 14.0976 18.2929 13.7071C17.9024 13.3166 17.9024 12.6834 18.2929 12.2929L20.585 10H15.5C14.9872 10 14.5645 9.61396 14.5067 9.11662L14.5 9C14.5 8.44772 14.9477 8 15.5 8H20.585L18.2929 5.70711C17.9324 5.34662 17.9047 4.77939 18.2097 4.3871L18.2929 4.29289Z" fill="currentColor"/>
</svg>
