<svg fill="none" height="24" viewBox="0 0 24 24" width="24" xmlns="http://www.w3.org/2000/svg"><path d="m18.1542 4c1.3373 0 1.8222.13924 2.3111.4007s.8725.64514 1.134 1.13403.4007.97382.4007 2.3111v8.30837c0 1.3373-.1392 1.8222-.4007 2.3111s-.6451.8725-1.134 1.134-.9738.4007-2.3111.4007h-12.30837c-1.33728 0-1.82221-.1392-2.3111-.4007s-.87257-.6451-1.13403-1.134-.4007-.9738-.4007-2.3111v-8.30837c0-1.33728.13924-1.82221.4007-2.3111s.64514-.87257 1.13403-1.13403.97382-.4007 2.3111-.4007zm.5639 3.5h-13.43616c-.44576 0-.6074.04641-.77036.13357-.16297.08715-.29086.21504-.37801.37801-.08716.16296-.13357.3246-.13357.77036v6.43616c0 .4457.04641.6074.13357.7703.08715.163.21504.2909.37801.378.16296.0872.3246.1336.77036.1336h13.43616c.4457 0 .6074-.0464.7703-.1336.163-.0871.2909-.215.378-.378.0872-.1629.1336-.3246.1336-.7703v-6.43616c0-.44576-.0464-.6074-.1336-.77036-.0871-.16297-.215-.29086-.378-.37801-.1629-.08716-.3246-.13357-.7703-.13357z" fill="currentColor"/></svg>
