<svg xmlns="http://www.w3.org/2000/svg" width="24" height="24" fill="currentColor" viewBox="0 0 24 24"><path d="M17.602 10.1a.9.9 0 0 0 1.8 0V5.076l1.06 1.06a.9.9 0 1 0 1.273-1.272l-2.596-2.599a.9.9 0 0 0-1.273 0l-2.602 2.6a.9.9 0 0 0 1.272 1.273l1.066-1.066V10.1Z M9.461 3H12.1a.9.9 0 1 1 0 1.8H9.5c-.995 0-1.687 0-2.226.045-.528.043-.828.123-1.055.238A2.6 2.6 0 0 0 5.083 6.22c-.115.226-.195.527-.239 1.055-.043.538-.044 1.23-.044 2.225v5c0 .995 0 1.687.045 2.226.043.528.123.828.238 1.054a2.6 2.6 0 0 0 1.136 1.137c.227.115.527.195 1.055.238.539.044 1.23.045 2.226.045h5c.994 0 1.686 0 2.225-.045.528-.043.828-.123 1.055-.238a2.6 2.6 0 0 0 1.136-1.137c.115-.226.196-.526.239-1.054.044-.539.044-1.231.044-2.226v-.6a.9.9 0 0 1 1.8 0v.639c0 .947 0 1.713-.05 2.333-.053.64-.163 1.203-.43 1.726a4.4 4.4 0 0 1-1.922 1.922c-.522.267-1.086.377-1.726.43-.62.05-1.386.05-2.333.05H9.46c-.947 0-1.713 0-2.333-.05-.64-.053-1.203-.163-1.726-.43a4.4 4.4 0 0 1-1.923-1.922c-.266-.523-.376-1.087-.429-1.726C3 16.252 3 15.486 3 14.54V9.462c0-.948 0-1.714.05-2.334.053-.64.163-1.203.43-1.725A4.4 4.4 0 0 1 5.401 3.48c.523-.267 1.086-.377 1.726-.43C7.748 3 8.514 3 9.46 3Z"/><path fill-rule="evenodd" d="M11.193 8.11a1.856 1.856 0 0 0-2.451 1.395 12.718 12.718 0 0 0 .01 4.997 1.856 1.856 0 0 0 2.45 1.387 12.592 12.592 0 0 0 4.175-2.494 1.87 1.87 0 0 0 0-2.787 12.59 12.59 0 0 0-4.184-2.498Zm-.673 1.713a.076.076 0 0 0-.013.032 10.918 10.918 0 0 0 .009 4.29c.004.02.01.029.012.033a.057.057 0 0 0 .039.022c.003 0 .012 0 .03-.005a10.791 10.791 0 0 0 3.576-2.139.079.079 0 0 0 .021-.027.071.071 0 0 0 .006-.027.07.07 0 0 0-.006-.028.079.079 0 0 0-.02-.027 10.79 10.79 0 0 0-3.587-2.141.066.066 0 0 0-.03-.006.057.057 0 0 0-.038.022Z" clip-rule="evenodd"/></svg>
