<svg xmlns="http://www.w3.org/2000/svg" width="24" height="24" fill="currentColor" viewBox="0 0 24 24"><path d="M7.25 15.75h1a.75.75 0 0 1 .75.75v1a.75.75 0 0 1-.75.75h-1a.75.75 0 0 1-.75-.75v-1a.75.75 0 0 1 .75-.75Zm8.5 0h1a.75.75 0 0 1 .75.75v1a.75.75 0 0 1-.75.75h-1a.75.75 0 0 1-.75-.75v-1a.75.75 0 0 1 .75-.75Zm-8.5-5h1a.75.75 0 0 1 .75.75v1a.75.75 0 0 1-.75.75h-1a.75.75 0 0 1-.75-.75v-1a.75.75 0 0 1 .75-.75Zm8.5 0h1a.75.75 0 0 1 .75.75v1a.75.75 0 0 1-.75.75h-1a.75.75 0 0 1-.75-.75v-1a.75.75 0 0 1 .75-.75Zm-8.5-5h1A.75.75 0 0 1 9 6.5v1a.75.75 0 0 1-.75.75h-1a.75.75 0 0 1-.75-.75v-1a.75.75 0 0 1 .75-.75Zm8.5 0h1a.75.75 0 0 1 .75.75v1a.75.75 0 0 1-.75.75h-1A.75.75 0 0 1 15 7.5v-1a.75.75 0 0 1 .75-.75Z"/><path fill-rule="evenodd" d="M9.461 2.1h5.078c1.017 0 1.835 0 2.497.054.681.056 1.276.173 1.825.453a4.65 4.65 0 0 1 2.032 2.032c.28.549.397 1.144.453 1.825.054.662.054 1.48.054 2.497v6.078c0 1.017 0 1.835-.054 2.497-.056.681-.173 1.276-.453 1.825a4.65 4.65 0 0 1-2.032 2.032c-.549.28-1.144.397-1.825.453-.662.054-1.48.054-2.497.054H9.46c-1.017 0-1.835 0-2.497-.054-.681-.056-1.276-.173-1.825-.453a4.65 4.65 0 0 1-2.032-2.032c-.28-.55-.397-1.144-.453-1.825-.054-.662-.054-1.48-.054-2.497V8.96c0-1.017 0-1.835.054-2.497.056-.681.173-1.276.453-1.825a4.65 4.65 0 0 1 2.032-2.032c.55-.28 1.144-.397 1.825-.453C7.626 2.1 8.444 2.1 9.46 2.1Zm-2.35 1.848c-.57.047-.902.134-1.155.263a2.85 2.85 0 0 0-1.245 1.245c-.13.253-.216.585-.263 1.154C4.401 7.19 4.4 7.935 4.4 9v6c0 1.065 0 1.81.048 2.39.047.57.134.9.263 1.154.273.536.709.972 1.245 1.245.253.13.585.216 1.154.263.58.047 1.325.048 2.39.048h5c1.065 0 1.81 0 2.39-.048.57-.047.9-.134 1.154-.263a2.85 2.85 0 0 0 1.245-1.245c.13-.253.216-.585.263-1.154.047-.58.048-1.325.048-2.39V9c0-1.065 0-1.81-.048-2.39-.047-.57-.134-.9-.263-1.154a2.85 2.85 0 0 0-1.245-1.245c-.253-.13-.585-.216-1.154-.263-.58-.047-1.325-.048-2.39-.048h-5c-1.065 0-1.81 0-2.39.048Z" clip-rule="evenodd"/></svg>
