<svg xmlns="http://www.w3.org/2000/svg" width="24" height="24" fill="currentColor" viewBox="0 0 24 24"><path fill-rule="evenodd" d="M19.4 2.9a.9.9 0 1 0-1.8 0v1.698h-1.698a.9.9 0 0 0 0 1.8H17.6v1.697a.9.9 0 0 0 1.8 0V6.398h1.698a.9.9 0 0 0 0-1.8H19.4V2.9Zm-8.892 6.952a.076.076 0 0 1 .012-.032.057.057 0 0 1 .038-.022c.004 0 .012-.001.03.005a10.79 10.79 0 0 1 3.585 2.141.077.077 0 0 1 .021.027.07.07 0 0 1 .006.028.07.07 0 0 1-.005.028.077.077 0 0 1-.022.027 10.791 10.791 0 0 1-3.577 2.138.068.068 0 0 1-.03.005.052.052 0 0 1-.02-.006.056.056 0 0 1-.018-.016.075.075 0 0 1-.012-.032 10.917 10.917 0 0 1-.008-4.29Zm-1.766-.35a1.856 1.856 0 0 1 2.45-1.394 12.59 12.59 0 0 1 4.185 2.498c.83.747.83 2.04 0 2.786a12.592 12.592 0 0 1-4.174 2.495A1.856 1.856 0 0 1 8.752 14.5a12.714 12.714 0 0 1-.01-4.998ZM12.6 3a.9.9 0 1 1 0 1.8h-2.56c-1.262 0-2.1.001-2.743.054-.623.05-.903.14-1.077.23A2.6 2.6 0 0 0 5.083 6.22c-.089.174-.178.454-.229 1.077-.053.643-.054 1.481-.054 2.743v3.92c0 1.262.001 2.1.054 2.743.05.623.14.903.23 1.077a2.6 2.6 0 0 0 1.136 1.137c.174.089.454.178 1.077.229.643.053 1.481.054 2.743.054h3.92c1.262 0 2.1-.001 2.743-.054.623-.05.903-.14 1.077-.23a2.6 2.6 0 0 0 1.137-1.136c.089-.174.178-.454.229-1.077.053-.643.054-1.481.054-2.743V11.4a.9.9 0 1 1 1.8 0v2.56c0 2.464 0 3.696-.48 4.638a4.4 4.4 0 0 1-1.922 1.922c-.942.48-2.174.48-4.638.48h-3.92c-2.464 0-3.696 0-4.638-.48a4.4 4.4 0 0 1-1.922-1.922C3 17.656 3 16.424 3 13.96v-3.92c0-2.464 0-3.696.48-4.638A4.4 4.4 0 0 1 5.402 3.48C6.344 3 7.576 3 10.04 3h2.56Z" clip-rule="evenodd"/></svg>
