<svg xmlns="http://www.w3.org/2000/svg" width="24" height="24" fill="currentColor" viewBox="0 0 24 24"><path fill-rule="evenodd" d="M10.892 9.82c-.046.027-.092.084-.092.184v3.992c0 .1.046.157.092.185a.122.122 0 0 0 .06.019c.011 0 .03-.002.059-.02l3.297-1.995c.05-.03.092-.09.092-.185 0-.094-.042-.154-.092-.185L11.011 9.82a.107.107 0 0 0-.06-.019.121.121 0 0 0-.06.02ZM9 10.003c0-1.473 1.578-2.551 2.943-1.725l3.297 1.996c1.28.775 1.28 2.675 0 3.45l-3.297 1.996C10.578 16.547 9 15.469 9 13.996v-3.992Z M4.929 4.929A9.972 9.972 0 0 1 12 2a9.972 9.972 0 0 1 7.071 2.929A9.971 9.971 0 0 1 22 12a9.971 9.971 0 0 1-2.929 7.071A9.972 9.972 0 0 1 12 22a9.972 9.972 0 0 1-7.071-2.929A9.972 9.972 0 0 1 2 12a9.972 9.972 0 0 1 2.929-7.071ZM12 3.8a8.172 8.172 0 0 0-5.798 2.402A8.172 8.172 0 0 0 3.8 12a8.17 8.17 0 0 0 2.402 5.798A8.171 8.171 0 0 0 12 20.2a8.172 8.172 0 0 0 5.798-2.402A8.172 8.172 0 0 0 20.2 12a8.171 8.171 0 0 0-2.402-5.798A8.172 8.172 0 0 0 12 3.8Z" clip-rule="evenodd"/></svg>
