<svg xmlns="http://www.w3.org/2000/svg" width="24" height="24" fill="none" viewBox="0 0 24 24"><path fill="currentColor" fill-rule="evenodd" d="M2.436 6.184C2 7.0397 2 8.1598 2 10.4v3.2c0 2.2402 0 3.3603.436 4.216a4.0002 4.0002 0 0 0 1.748 1.748C5.0397 20 6.1598 20 8.4 20h7.2c2.2402 0 3.3603 0 4.216-.436a4.0003 4.0003 0 0 0 1.748-1.748C22 16.9603 22 15.8402 22 13.6v-3.2c0-2.2402 0-3.3603-.436-4.216a4.0002 4.0002 0 0 0-1.748-1.748C18.9603 4 17.8402 4 15.6 4H8.4c-2.2402 0-3.3603 0-4.216.436a4 4 0 0 0-1.748 1.748Zm12.0803 6.3188c.3782-.2257.3782-.7799 0-1.0056l-4.0482-2.4156c-.3839-.229-.8681.0514-.8681.5028v4.8312c0 .4514.4842.7319.8681.5028l4.0482-2.4156ZM4 7.5a.5.5 0 0 1 .5-.5h1a.5.5 0 0 1 .5.5v1a.5.5 0 0 1-.5.5h-1a.5.5 0 0 1-.5-.5v-1ZM18.5 7a.5.5 0 0 0-.5.5v1a.5.5 0 0 0 .5.5h1a.5.5 0 0 0 .5-.5v-1a.5.5 0 0 0-.5-.5h-1ZM4 11.5a.5.5 0 0 1 .5-.5h1a.5.5 0 0 1 .5.5v1a.5.5 0 0 1-.5.5h-1a.5.5 0 0 1-.5-.5v-1Zm14.5-.5a.5.5 0 0 0-.5.5v1a.5.5 0 0 0 .5.5h1a.5.5 0 0 0 .5-.5v-1a.5.5 0 0 0-.5-.5h-1ZM4 15.5a.5.5 0 0 1 .5-.5h1a.5.5 0 0 1 .5.5v1a.5.5 0 0 1-.5.5h-1a.5.5 0 0 1-.5-.5v-1Zm14.5-.5a.5.5 0 0 0-.5.5v1a.5.5 0 0 0 .5.5h1a.5.5 0 0 0 .5-.5v-1a.5.5 0 0 0-.5-.5h-1Z" clip-rule="evenodd"/></svg>
