<svg xmlns="http://www.w3.org/2000/svg" width="24" height="24" fill="currentColor" viewBox="0 0 24 24"><path fill-rule="evenodd" d="M24 5a5 5 0 1 1-10 0 5 5 0 0 1 10 0Zm-5.205 1.368c.338 0 .524-.183.596-.498.062-.394.205-.596.839-.958.672-.39 1.02-.874 1.02-1.583 0-1.095-.91-1.828-2.264-1.828-1.025 0-1.788.4-2.093 1.02a1.15 1.15 0 0 0-.143.559c0 .357.234.587.61.587.291 0 .506-.131.625-.432.152-.418.467-.644.934-.644.524 0 .887.32.887.78 0 .432-.186.667-.801 1.029-.563.324-.854.69-.854 1.245v.066c0 .385.239.657.644.657Zm.01 2.13c.433 0 .781-.324.781-.737s-.348-.737-.781-.737c-.43 0-.777.324-.777.737s.348.738.777.738ZM9.462 3H11a.9.9 0 1 1 0 1.8H9.5c-.995 0-1.687 0-2.225.045-.528.043-.829.123-1.055.238A2.6 2.6 0 0 0 5.083 6.22c-.115.226-.195.527-.238 1.055C4.8 7.813 4.8 8.505 4.8 9.5v5c0 .995 0 1.687.045 2.226.043.527.123.828.238 1.054a2.6 2.6 0 0 0 1.137 1.137c.226.115.527.195 1.055.238.538.044 1.23.045 2.225.045h5c.995 0 1.687 0 2.225-.045.528-.043.829-.123 1.055-.238a2.6 2.6 0 0 0 1.136-1.137c.116-.226.196-.527.239-1.055.044-.538.045-1.23.045-2.225V13a.9.9 0 0 1 1.8 0v1.538c0 .948 0 1.714-.051 2.334-.052.64-.163 1.203-.429 1.726a4.4 4.4 0 0 1-1.923 1.922c-.522.267-1.086.377-1.725.43-.62.05-1.386.05-2.334.05H9.462c-.948 0-1.714 0-2.334-.05-.64-.053-1.203-.163-1.726-.43a4.4 4.4 0 0 1-1.922-1.922c-.267-.523-.377-1.087-.43-1.726C3 16.252 3 15.486 3 14.538V9.462c0-.948 0-1.714.05-2.334.053-.64.163-1.203.43-1.726A4.4 4.4 0 0 1 5.402 3.48c.523-.267 1.087-.377 1.726-.43C7.748 3 8.514 3 9.462 3Zm1.058 6.823a.076.076 0 0 0-.012.032 10.917 10.917 0 0 0 .008 4.29c.004.02.01.029.012.033a.057.057 0 0 0 .039.022c.003 0 .012 0 .03-.005a10.79 10.79 0 0 0 3.576-2.139.078.078 0 0 0 .022-.027.07.07 0 0 0 .005-.027.071.071 0 0 0-.005-.028.079.079 0 0 0-.022-.027 10.79 10.79 0 0 0-3.585-2.142.066.066 0 0 0-.03-.005.057.057 0 0 0-.038.022Zm.673-1.713a1.856 1.856 0 0 0-2.451 1.395 12.719 12.719 0 0 0 .01 4.997 1.856 1.856 0 0 0 2.451 1.387 12.59 12.59 0 0 0 4.174-2.494 1.87 1.87 0 0 0 0-2.787 12.59 12.59 0 0 0-4.184-2.498Z" clip-rule="evenodd"/></svg>
