<svg xmlns="http://www.w3.org/2000/svg" width="24" height="24" fill="none" viewBox="0 0 24 24">
  <path fill="currentColor" d="M3.037 9.855c-.185-.185-.277-.277-.354-.313a.484.484 0 0 0-.654.27C2 9.893 2 10.023 2 10.28v3.44c0 1.848 0 2.772.36 3.478a3.3 3.3 0 0 0 1.442 1.442c.706.36 1.63.36 3.478.36H11a.49.49 0 0 0 .346-.836l-8.31-8.31ZM15.689 14.87c.411.41.617.616.793.63a.48.48 0 0 0 .403-.167c.115-.135.115-.425.115-1.007V10.28c0-1.848 0-2.772-.36-3.478a3.3 3.3 0 0 0-1.442-1.442C14.492 5 13.568 5 11.72 5H7.28c-.258 0-.387 0-.467.029a.484.484 0 0 0-.27.654c.035.077.127.169.312.353l8.834 8.833ZM19 10.93c0-.372 0-.558.043-.733.037-.155.1-.303.184-.438.095-.153.227-.283.493-.543l1.322-1.296c.615-.603.923-.905 1.186-.924a.72.72 0 0 1 .6.252C23 7.45 23 7.881 23 8.743v6.483c0 .872 0 1.308-.173 1.513a.73.73 0 0 1-.608.256c-.268-.02-.58-.324-1.203-.933l-1.293-1.263c-.267-.26-.4-.39-.495-.543a1.498 1.498 0 0 1-.185-.44c-.043-.174-.043-.36-.043-.734V10.93Z"/>
  <path fill="#FF3347" d="M2.264 6.54a.9.9 0 1 1 1.273-1.274l13.2 13.2a.9.9 0 1 1-1.274 1.273l-13.2-13.2Z"/>
</svg>
