<svg xmlns="http://www.w3.org/2000/svg" width="24" height="24" fill="currentColor" viewBox="0 0 24 24"><path fill-rule="evenodd" d="M8.4 6.8h3.2c1.15 0 1.904.001 2.48.049.556.045.787.124.919.19.414.212.75.548.961.962.067.132.146.363.191.918.044.527.048 1.202.049 2.192V13c-.001.929-.007 1.573-.049 2.08-.045.555-.124.786-.19.918a2.2 2.2 0 0 1-.962.961c-.132.067-.363.146-.918.191-.577.048-1.331.049-2.481.049H8.4c-1.15 0-1.904-.001-2.48-.049-.556-.045-.787-.124-.919-.19a2.2 2.2 0 0 1-.961-.962c-.067-.132-.146-.363-.191-.918-.049-.576-.049-1.33-.049-2.48v-1.2c0-1.15.001-1.904.049-2.48.045-.556.124-.787.19-.919a2.2 2.2 0 0 1 .962-.961c.132-.067.363-.146.918-.191C6.496 6.8 7.25 6.8 8.4 6.8Zm9.473 9.026a3.377 3.377 0 0 1-.309.99 4 4 0 0 1-1.748 1.748C14.96 19 13.84 19 11.6 19H8.4c-2.24 0-3.36 0-4.216-.436a4 4 0 0 1-1.748-1.748C2 15.96 2 14.84 2 12.6v-1.2c0-2.24 0-3.36.436-4.216a4 4 0 0 1 1.748-1.748C5.04 5 6.16 5 8.4 5h3.2c2.24 0 3.36 0 4.216.436a4 4 0 0 1 1.748 1.748c.147.289.245.608.31.99l1.11-1.011C20.523 5.758 23 6.85 23 8.936v6.128c0 2.085-2.476 3.178-4.017 1.774l-1.11-1.012ZM18 13.047v.193a.6.6 0 0 0 .196.444l2 1.824a.6.6 0 0 0 1.004-.444V8.936a.6.6 0 0 0-1.004-.443l-2 1.823a.6.6 0 0 0-.196.444v2.287Z" clip-rule="evenodd"/></svg>
