<svg xmlns="http://www.w3.org/2000/svg" width="24" height="24" fill="currentColor" viewBox="0 0 24 24"><path fill-rule="evenodd" d="M10.52 9.823a.077.077 0 0 0-.012.032 10.917 10.917 0 0 0 .008 4.29c.004.02.01.029.012.033a.058.058 0 0 0 .039.022c.003 0 .012 0 .03-.005a10.79 10.79 0 0 0 3.576-2.139.077.077 0 0 0 .022-.027.07.07 0 0 0 .005-.027.07.07 0 0 0-.005-.028.078.078 0 0 0-.022-.027 10.792 10.792 0 0 0-3.585-2.142.066.066 0 0 0-.03-.005.057.057 0 0 0-.038.022Zm.673-1.713a1.856 1.856 0 0 0-2.451 1.395 12.719 12.719 0 0 0 .01 4.997 1.856 1.856 0 0 0 2.451 1.387 12.59 12.59 0 0 0 4.174-2.494 1.87 1.87 0 0 0 0-2.787 12.59 12.59 0 0 0-4.184-2.498Z M9.462 3h5.076c.948 0 1.714 0 2.334.05.64.053 1.203.163 1.726.43a4.4 4.4 0 0 1 1.922 1.922c.267.523.377 1.087.43 1.726.05.62.05 1.386.05 2.334v5.076c0 .948 0 1.714-.05 2.334-.053.64-.163 1.203-.43 1.726a4.4 4.4 0 0 1-1.922 1.922c-.523.267-1.087.377-1.726.43-.62.05-1.386.05-2.334.05H9.462c-.948 0-1.714 0-2.334-.05-.64-.053-1.203-.163-1.726-.43a4.4 4.4 0 0 1-1.922-1.922c-.267-.523-.377-1.087-.43-1.726C3 16.252 3 15.486 3 14.538V9.462c0-.948 0-1.714.05-2.334.053-.64.163-1.203.43-1.726A4.4 4.4 0 0 1 5.402 3.48c.523-.267 1.087-.377 1.726-.43C7.748 3 8.514 3 9.462 3ZM7.275 4.845c-.528.043-.829.123-1.055.238A2.6 2.6 0 0 0 5.083 6.22c-.115.226-.195.527-.238 1.054C4.8 7.813 4.8 8.505 4.8 9.5v5c0 .995 0 1.687.045 2.226.043.527.123.828.238 1.054a2.6 2.6 0 0 0 1.137 1.137c.226.115.527.195 1.055.238.538.044 1.23.045 2.225.045h5c.995 0 1.687 0 2.226-.045.527-.043.828-.123 1.054-.238a2.6 2.6 0 0 0 1.137-1.137c.115-.226.195-.527.238-1.055.044-.538.045-1.23.045-2.225v-5c0-.995 0-1.687-.045-2.226-.043-.527-.123-.828-.238-1.054a2.6 2.6 0 0 0-1.137-1.137c-.226-.115-.527-.195-1.055-.238-.538-.044-1.23-.045-2.225-.045h-5c-.995 0-1.687 0-2.225.045Z" clip-rule="evenodd"/></svg>
