<svg xmlns="http://www.w3.org/2000/svg" width="24" height="24" fill="currentColor" viewBox="0 0 24 24"><path fill-rule="evenodd" d="M10.328 3.832c-.383-.031-.88-.032-1.615-.032H7.036a.9.9 0 1 1 0-1.8H8.75c.688 0 1.26 0 1.725.038.484.04.934.125 1.357.34a3.471 3.471 0 0 1 1.517 1.517c.108.214.184.433.237.66l1.136-.787c.259-.18.502-.348.71-.465.207-.118.524-.272.906-.254a1.6 1.6 0 0 1 1.196.625c.232.304.286.653.307.89.022.238.022.534.022.849v4.22c0 .34 0 .653-.023.904-.022.243-.076.612-.325.924a1.6 1.6 0 0 1-1.248.604c-.4 0-.723-.185-.927-.32a10.82 10.82 0 0 1-.722-.542L12.647 9.64a1.9 1.9 0 0 1-.72-1.49V6.578a15.82 15.82 0 0 0-.032-1.178c-.03-.373-.085-.56-.15-.686a1.672 1.672 0 0 0-.73-.73c-.128-.066-.314-.12-.687-.15Zm3.399 4.01v.31a.1.1 0 0 0 .038.078l1.941 1.539.355.278c.002-.121.002-.268.002-.45V5.448c0-.17 0-.305-.002-.417l-.343.236-1.991 1.38v1.194Zm2.31-3.2v.002-.003ZM2.26 3.085a.9.9 0 0 1 1.273-.006l.818.81a.932.932 0 0 1 .02.019l8.252 8.174a.887.887 0 0 1 .02.02l4.94 4.893c.01.008.019.017.027.026l3.472 3.439a.9.9 0 1 1-1.266 1.279l-2.177-2.156a3.472 3.472 0 0 1-2.504 2.16c-.37.082-.79.082-1.349.081h-1.845c-.689 0-1.26 0-1.725-.038-.485-.04-.934-.124-1.357-.34a3.471 3.471 0 0 1-1.517-1.517c-.215-.423-.3-.872-.34-1.357-.038-.465-.038-1.036-.038-1.725v-.839a.9.9 0 1 1 1.8 0v.802c0 .735 0 1.232.032 1.616.03.373.085.559.15.686.16.314.416.57.73.73.127.065.313.12.686.15.384.032.881.032 1.616.032h1.708c.704 0 .911-.005 1.064-.038a1.671 1.671 0 0 0 1.275-1.276c.027-.12.035-.277.038-.688l-4.433-4.391H7.805c-.689 0-1.26 0-1.726-.038-.484-.04-.933-.125-1.356-.34a3.471 3.471 0 0 1-1.517-1.518c-.216-.423-.301-.872-.34-1.356-.039-.466-.039-1.037-.039-1.725v-3.74l-.56-.556a.9.9 0 0 1-.007-1.273Zm2.367 3.61v1.922c0 .735.001 1.232.032 1.615.03.373.086.56.15.686.16.315.416.57.73.73.128.066.314.12.687.15.384.032.88.033 1.616.033h1.97L4.627 6.697ZM20.2 14.029l-.296.108-1.799.669a.9.9 0 0 1-.627-1.688l1.83-.68c.227-.084.45-.167.643-.219.204-.056.488-.111.803-.04a1.6 1.6 0 0 1 .987.687c.176.27.223.555.242.766.018.198.018.437.018.68v2.518a.9.9 0 0 1-1.8 0v-2.486l-.001-.315Z" clip-rule="evenodd"/></svg>
