<svg xmlns="http://www.w3.org/2000/svg" width="24" height="24" fill="currentColor" viewBox="0 0 24 24"><path fill-rule="evenodd" d="M2.36 6.802C2 7.508 2 8.432 2 10.28v3.44c0 1.848 0 2.772.36 3.478a3.3 3.3 0 0 0 1.442 1.442c.706.36 1.63.36 3.478.36h4.44c1.848 0 2.772 0 3.478-.36a3.3 3.3 0 0 0 1.442-1.442c.36-.706.36-1.63.36-3.478v-3.44c0-1.848 0-2.772-.36-3.478a3.3 3.3 0 0 0-1.442-1.442C14.492 5 13.568 5 11.72 5H7.28c-1.848 0-2.772 0-3.478.36A3.3 3.3 0 0 0 2.36 6.802Zm16.683 3.395c-.043.175-.043.36-.043.733v2.152c0 .373 0 .56.043.735.038.155.1.303.184.439.096.152.23.283.496.543l1.293 1.263c.624.61.936.914 1.203.933a.73.73 0 0 0 .608-.256c.173-.205.173-.64.173-1.513V8.744c0-.862 0-1.293-.171-1.495a.72.72 0 0 0-.6-.252c-.264.019-.572.32-1.188.924L19.72 9.216c-.266.26-.398.39-.493.543a1.501 1.501 0 0 0-.184.438Z" clip-rule="evenodd"/></svg>
