<svg xmlns="http://www.w3.org/2000/svg" width="24" height="24" fill="currentColor" viewBox="0 0 24 24"><path fill-rule="evenodd" d="M7 7a5 5 0 1 1 10 0v4.2a5 5 0 0 1-10 0V7Zm8.2 0v4.2a3.2 3.2 0 0 1-6.4 0V7a3.2 3.2 0 0 1 6.4 0Z" clip-rule="evenodd"/><path d="M4.907 14c.368 0 .699.215.883.534C7.028 16.668 9.376 18.2 12 18.2c2.625 0 4.983-1.534 6.221-3.669a1.03 1.03 0 0 1 .88-.531c.656 0 1.11.653.795 1.23-1.387 2.542-3.994 4.408-6.996 4.723V22.1a.9.9 0 1 1-1.8 0v-2.147c-3-.314-5.605-2.178-6.993-4.717-.316-.58.14-1.236.8-1.236Z"/></svg>
