<svg xmlns="http://www.w3.org/2000/svg" width="24" height="24" fill="currentColor" viewBox="0 0 24 24"><path fill-rule="evenodd" d="M19 10a5 5 0 1 0 0-10 5 5 0 0 0 0 10Zm.39-4.13c-.07.315-.256.498-.595.498-.405 0-.644-.272-.644-.657v-.066c0-.554.291-.92.854-1.245.615-.362.8-.597.8-1.029 0-.46-.362-.78-.886-.78-.467 0-.782.226-.934.644-.12.3-.334.432-.625.432-.376 0-.61-.23-.61-.587 0-.202.048-.38.143-.56.305-.62 1.068-1.019 2.093-1.019 1.354 0 2.264.733 2.264 1.828 0 .71-.348 1.193-1.02 1.583-.634.362-.777.564-.84.958Zm.196 1.891c0 .413-.348.738-.781.738-.43 0-.777-.325-.777-.738s.348-.737.777-.737c.433 0 .781.324.781.737Z M19.68 15.35a.9.9 0 0 0-1.56-.9A7.061 7.061 0 0 1 12 18a7.061 7.061 0 0 1-6.12-3.55.9.9 0 0 0-1.56.9 8.872 8.872 0 0 0 6.78 4.405V22a.9.9 0 1 0 1.8 0v-2.245a8.872 8.872 0 0 0 6.78-4.405Z M11.683 3.816a.9.9 0 0 0-.18-1.79A4.9 4.9 0 0 0 7.1 6.9v4.2a4.9 4.9 0 0 0 9.653 1.19.9.9 0 0 0-1.746-.436A3.102 3.102 0 0 1 8.9 11.1V6.9a3.1 3.1 0 0 1 2.783-3.084Z"/></svg>
