<svg xmlns="http://www.w3.org/2000/svg" width="24" height="24" fill="currentColor" viewBox="0 0 24 24"><path d="M2 9.946a1 1 0 0 1 .945-.999l2.83-.157a2 2 0 0 0 1.255-.536l4.287-4.01C11.956 3.647 13 4.1 13 4.974v14.051c0 .875-1.044 1.328-1.683.73L7.03 15.747a2 2 0 0 0-1.255-.536l-2.83-.158A1 1 0 0 1 2 14.054V9.946Z M15.748 8.898a.9.9 0 0 1 1.271-.067C17.873 9.6 18.4 10.743 18.4 12c0 1.258-.527 2.4-1.38 3.169a.9.9 0 1 1-1.205-1.338c.47-.423.785-1.078.785-1.831 0-.753-.315-1.408-.785-1.831a.9.9 0 0 1-.067-1.271Zm3.066-2.224a.9.9 0 0 1 1.269.101A8.032 8.032 0 0 1 22 12a8.032 8.032 0 0 1-1.917 5.224.9.9 0 0 1-1.37-1.167A6.232 6.232 0 0 0 20.2 12c0-1.554-.561-2.97-1.487-4.057a.9.9 0 0 1 .101-1.269Z" clip-rule="evenodd"/></svg>
