<svg xmlns="http://www.w3.org/2000/svg" width="24" height="24" fill="currentColor" viewBox="0 0 24 24"><path d="M14 3a1 1 0 0 1 1 1v16a1 1 0 0 1-1 1 2.48 2.48 0 0 1-1.72-.695L6.79 15H4a2 2 0 0 1-2-2v-2a2 2 0 0 1 2-2h2.765l5.514-5.307A2.482 2.482 0 0 1 14 3Z M19.264 6.264a.9.9 0 0 1 1.272 0c.716.715 1.457 1.733 1.863 2.713a7.9 7.9 0 0 1 0 6.046c-.406.98-1.147 1.998-1.863 2.713a.9.9 0 1 1-1.272-1.272c.584-.585 1.174-1.411 1.472-2.13a6.099 6.099 0 0 0 0-4.668c-.298-.719-.888-1.545-1.472-2.13a.9.9 0 0 1 0-1.272Zm-2.39 2.589a.9.9 0 0 1 1.273.022c.4.413.714.902.929 1.438a4.543 4.543 0 0 1 0 3.374 4.444 4.444 0 0 1-.929 1.438.9.9 0 0 1-1.294-1.25c.235-.244.423-.534.551-.856a2.745 2.745 0 0 0 0-2.038 2.647 2.647 0 0 0-.551-.856.9.9 0 0 1 .022-1.272Z" clip-rule="evenodd"/></svg>
