<svg xmlns="http://www.w3.org/2000/svg" width="24" height="24" fill="none" viewBox="0 0 24 24"><rect width="24" height="24" fill="url(#a)" rx="12"/><path fill="#fff" d="M10.806 10.37c.561-.146.793.043.868.157.092.14.195.533-.183 1.195-.635 1.11-.607 2.351.235 3.073.845.725 2.07.552 3.037-.253.744-.62 1.92-2.076 2.861-3.293.169-.218.253-.328.319-.355a.27.27 0 0 1 .337.115c.036.062.036.2.036.473v2.948c-.003.275-.019.526-.096.762a1.9 1.9 0 0 1-.405.695c-.223.245-.522.407-.863.6l-3.606 2.047c-.332.189-.618.358-.935.425-.26.054-.529.054-.789 0-.317-.067-.602-.237-.934-.425l-3.606-2.047a4 4 0 0 1-.238-.148c-.212-.142-.318-.213-.381-.326a.57.57 0 0 1-.064-.328c.015-.128.092-.242.246-.47l.05-.074c.353-.52.838-1.215 1.37-1.92.535-.71 1.107-1.414 1.632-1.96a7 7 0 0 1 .71-.653c.219-.167.35-.225.4-.238m.816-5.329c.26-.054.53-.054.79 0 .316.067.602.237.934.426l3.607 2.047c.198.112.398.223.58.357.255.187.257.543.07.797a94 94 0 0 1-1.222 1.621c-.973 1.26-2.04 2.56-2.624 3.046-.6.499-.94.327-1.008.268-.071-.06-.303-.386.106-1.102.554-.97.66-2.033.131-2.838-.547-.831-1.563-1.078-2.575-.814-.35.091-.68.299-.96.514a8 8 0 0 0-.886.81c-.588.61-1.202 1.371-1.753 2.101q-.151.2-.295.397c-.25.34-.375.51-.48.53a.27.27 0 0 1-.246-.08c-.072-.078-.072-.287-.072-.705V9.57c.002-.275.017-.526.094-.762.085-.257.224-.495.406-.696.223-.244.523-.406.863-.6l3.606-2.046c.332-.188.617-.36.934-.426"/><defs><linearGradient id="a" x1="-12" x2="12" y1="12" y2="36" gradientUnits="userSpaceOnUse"><stop stop-color="#70b2ff"/><stop offset="1" stop-color="#5c9ce6"/></linearGradient></defs></svg>