<svg width="24" height="24" viewBox="0 0 24 24" fill="none" xmlns="http://www.w3.org/2000/svg"><path fill-rule="evenodd" clip-rule="evenodd" d="M7.762 3.1H15.5a3.4 3.4 0 013.4 3.4v.732c.305.06.593.152.87.293a3.9 3.9 0 011.705 1.704c.239.47.336.971.381 1.527.044.537.044 1.198.044 2.006v1.476c0 .808 0 1.469-.044 2.006-.045.556-.142 1.058-.381 1.526a3.9 3.9 0 01-1.705 1.705c-.468.239-.97.336-1.526.381-.537.044-1.198.044-2.006.044H10.502 7.762c-.808 0-1.469 0-2.006-.044a8.284 8.284 0 01-.103-.009c-.515-.049-.984-.148-1.424-.372a3.9 3.9 0 01-1.704-1.704c-.239-.47-.336-.971-.381-1.527-.044-.537-.044-1.198-.044-2.006V8.762c0-.808 0-1.469.044-2.006.045-.556.142-1.058.381-1.527a3.9 3.9 0 011.704-1.704c.47-.239.971-.336 1.527-.381C6.293 3.1 6.954 3.1 7.762 3.1zM3.9 9v5.2c0 .855 0 1.442.038 1.897.036.445.103.683.19.856a2.1 2.1 0 00.919.918c.172.088.411.155.856.191.455.037 1.042.038 1.897.038h8.4c.855 0 1.442 0 1.897-.038.445-.036.683-.103.856-.19a2.1 2.1 0 00.918-.919c.088-.172.155-.411.191-.856.037-.455.038-1.042.038-1.897v-1.4c0-.855 0-1.442-.038-1.897-.036-.445-.103-.684-.19-.856a2.1 2.1 0 00-.919-.918c-.172-.088-.411-.155-.856-.191C17.642 8.9 17.055 8.9 16.2 8.9H3.9V9zm.024-1.9h12.314c.308 0 .595 0 .862.002V6.5a1.6 1.6 0 00-1.6-1.6H7.8c-.855 0-1.442 0-1.897.038-.445.036-.684.103-.856.19a2.1 2.1 0 00-.918.919c-.088.172-.155.411-.191.856l-.014.197zM15.1 14a.9.9 0 01.9-.9h1.2a.9.9 0 010 1.8H16a.9.9 0 01-.9-.9z" fill="currentColor"/></svg>
