<svg xmlns="http://www.w3.org/2000/svg" width="24" height="24" fill="currentColor" viewBox="0 0 24 24"><path fill-rule="evenodd" d="M8.505 7.054C6.982 9.088 5.8 11.41 5.8 13.25c0 3.864 2.85 6.95 6.2 6.95s6.2-3.086 6.2-6.95c0-1.841-1.183-4.162-2.705-6.196-.746-.996-1.534-1.849-2.224-2.443a5.76 5.76 0 0 0-.896-.653c-.24-.134-.358-.155-.374-.158h-.003c-.016.003-.133.024-.373.158a5.76 5.76 0 0 0-.896.653c-.69.594-1.479 1.447-2.224 2.443Zm2.24-4.666C11.108 2.184 11.548 2 12 2c.452 0 .891.184 1.255.388.384.215.787.512 1.19.859.808.695 1.684 1.65 2.491 2.729C18.52 8.092 20 10.807 20 13.25c0 4.705-3.51 8.75-8 8.75-4.492 0-8-4.045-8-8.75 0-2.443 1.48-5.158 3.064-7.274.807-1.08 1.683-2.034 2.49-2.729a7.514 7.514 0 0 1 1.191-.86Z" clip-rule="evenodd"/></svg>
