<svg xmlns="http://www.w3.org/2000/svg" width="24" height="24" fill="currentColor" viewBox="0 0 24 24"><path fill-rule="evenodd" d="M3.9 12a8.1 8.1 0 1 1 16.2 0 8.1 8.1 0 0 1-16.2 0ZM12 2.1c-5.468 0-9.9 4.432-9.9 9.9s4.432 9.9 9.9 9.9 9.9-4.432 9.9-9.9-4.432-9.9-9.9-9.9Zm-1.426 5.63c.448-.15.928-.23 1.426-.23.498 0 .978.08 1.426.23l-.205.356a.9.9 0 1 0 1.558.9l.205-.354A4.495 4.495 0 0 1 16.41 11.1H16a.9.9 0 1 0 0 1.8h.41a4.496 4.496 0 0 1-1.426 2.468l-.205-.354a.9.9 0 0 0-1.558.9l.205.355a4.513 4.513 0 0 1-2.852.001l.205-.356a.9.9 0 1 0-1.558-.9l-.205.354A4.496 4.496 0 0 1 7.59 12.9H8a.9.9 0 0 0 0-1.8h-.41a4.495 4.495 0 0 1 1.426-2.468l.205.354a.9.9 0 1 0 1.558-.9l-.205-.356ZM12 5.7a6.3 6.3 0 1 0 0 12.6 6.3 6.3 0 0 0 0-12.6ZM10.75 12a1.25 1.25 0 1 1 2.5 0 1.25 1.25 0 0 1-2.5 0Z" clip-rule="evenodd"/></svg>
