<svg xmlns="http://www.w3.org/2000/svg" width="24" height="24" fill="currentColor" viewBox="0 0 24 24"><path fill-rule="evenodd" d="M19.197 3.15c-.38-.152-.75-.151-1.084-.15H5.887c-.335-.001-.704-.002-1.084.15a2.285 2.285 0 0 0-.85.627c-.257.317-.35.617-.433.888l-.013.043C3.159 5.83 3 7.108 3 8.201c0 2.737 1.39 4.854 3.175 6.258 1.486 1.17 3.293 1.887 4.925 2.085V19.2H6.905a.9.9 0 1 0 0 1.8h10.194a.9.9 0 0 0 0-1.8H12.9v-2.656c1.633-.198 3.44-.915 4.926-2.085C19.61 13.056 21 10.94 21 8.201c0-1.092-.159-2.371-.507-3.493l-.013-.044c-.084-.27-.176-.57-.433-.887a2.284 2.284 0 0 0-.85-.626ZM18.04 4.8c.216 0 .325 0 .407.008.05.004.069.009.077.012a.615.615 0 0 1 .129.095.18.18 0 0 1 .03.051c.02.047.04.11.091.275.19.61.314 1.294.378 1.96H4.849a9.933 9.933 0 0 1 .434-2.142c.016-.047.027-.074.034-.093a.18.18 0 0 1 .03-.051.618.618 0 0 1 .129-.095.308.308 0 0 1 .077-.012c.082-.007.19-.008.407-.008h12.08ZM4.854 9c.228 1.693 1.174 3.053 2.434 4.045C8.76 14.204 10.592 14.8 12 14.8c1.409 0 3.24-.596 4.712-1.755 1.26-.992 2.206-2.352 2.435-4.044H4.854Z" clip-rule="evenodd"/></svg>
