<?xml version="1.0" encoding="UTF-8"?>
<svg width="24px" height="24px" viewBox="0 0 24 24" version="1.1" xmlns="http://www.w3.org/2000/svg" xmlns:xlink="http://www.w3.org/1999/xlink">
    <!-- Generator: Sketch 50.2 (55047) - http://www.bohemiancoding.com/sketch -->
    <title>work_24</title>
    <desc>Created with Sketch.</desc>
    <defs></defs>
    <g id="Page-2" stroke="none" stroke-width="1" fill="none" fill-rule="evenodd">
        <g id="work_24">
            <polygon id="Shape" points="0 0 24 0 24 24 0 24"></polygon>
            <path d="M16,8 L16,6 C16,4.89 15.11,4 14,4 L10,4 C8.89,4 8,4.89 8,6 L8,8 L6,8 C4.8954305,8 4,8.8954305 4,10 L4,17 C4,18.1045695 4.8954305,19 6,19 L18,19 C19.1045695,19 20,18.1045695 20,17 L20,10 C20,8.8954305 19.1045695,8 18,8 L16,8 Z M10,8 L10,6 L14,6 L14,8 L10,8 Z" id="Mask" fill="currentColor"></path>
        </g>
    </g>
</svg>
