<svg xmlns="http://www.w3.org/2000/svg" width="24" height="24" viewBox="0 0 24 24" fill="currentColor"><path fill-rule="evenodd" d="M3.066 20.505a3.63 3.63 0 0 1 0-5.14l2.592-2.59a.77.77 0 0 0 .195-.722 8.2 8.2 0 0 1-.217-1.879C5.636 5.66 9.299 2 13.818 2c1.004 0 1.965.18 2.854.51.46.172.553.757.206 1.105l-3.151 3.166a.73.73 0 0 0-.212.513v2.464c0 .401.325.727.727.727h2.46a.73.73 0 0 0 .512-.212l3.17-3.155c.35-.346.933-.254 1.105.206a8.2 8.2 0 0 1 .511 2.85c0 4.515-3.663 8.175-8.182 8.175a8.2 8.2 0 0 1-1.854-.21.77.77 0 0 0-.719.195l-2.604 2.601a3.64 3.64 0 0 1-5.145 0zm10.752-3.974a6.36 6.36 0 0 0 6.358-6.64l-1.679 1.671a2.55 2.55 0 0 1-1.796.741h-2.459a2.545 2.545 0 0 1-2.545-2.545V7.294c0-.673.266-1.319.741-1.796l1.666-1.674a6.36 6.36 0 0 0-6.481 7.812 2.59 2.59 0 0 1-.68 2.425l-2.592 2.59c-.71.71-.71 1.859 0 2.568l.43.43c.711.71 1.864.71 2.575 0l2.604-2.602a2.59 2.59 0 0 1 2.414-.68q.694.162 1.444.164" clip-rule="evenodd"/></svg>