<svg fill="none" height="24" viewBox="0 0 24 24" width="24" xmlns="http://www.w3.org/2000/svg"><g clip-rule="evenodd" fill="currentColor" fill-rule="evenodd"><path d="m9.5616 4.1h3.5384c.4971 0 .9.40294.9.9s-.4029.9-.9.9h-3.5c-.99494 0-1.68702.0007-2.2255.04469-.52797.04314-.82854.12337-1.05487.23869-.48922.24927-.88697.64702-1.13624 1.13624-.11532.22633-.19555.5269-.23869 1.05488-.04399.53848-.04469 1.23056-.04469 2.2255v3.8c0 .9949.0007 1.687.04469 2.2255.04314.528.12337.8286.23869 1.0549.24927.4892.64702.8869 1.13624 1.1362.22633.1153.5269.1956 1.05487.2387.53848.044 1.23056.0447 2.22551.0447h3.79999c.9949 0 1.687-.0007 2.2255-.0447.528-.0431.8286-.1234 1.0549-.2387.4892-.2493.887-.647 1.1362-1.1362.1153-.2263.1956-.5269.2387-1.0549.044-.5385.0447-1.2306.0447-2.2255v-3.5c0-.4971.403-.9.9-.9.4971 0 .9.4029.9.9v3.5384c0 .9475 0 1.7133-.0507 2.3337-.0522.6393-.1627 1.2031-.4289 1.7255-.4218.8279-1.0949 1.501-1.9228 1.9228-.5224.2662-1.0862.3767-1.7255.4289-.6204.0507-1.3862.0507-2.3337.0507h-3.8768c-.9475 0-1.71325 0-2.33368-.0507-.63928-.0522-1.20311-.1627-1.72547-.4289-.82791-.4218-1.50103-1.0949-1.92287-1.9228-.26616-.5224-.37667-1.0862-.4289-1.7255-.05069-.6204-.05068-1.3862-.05067-2.3337v-3.8768c-.00001-.94751-.00002-1.71326.05067-2.33368.05223-.63929.16274-1.20311.4289-1.72548.42184-.82791 1.09496-1.50103 1.92287-1.92287.52236-.26616 1.08618-.37667 1.72547-.4289.62043-.05069 1.38618-.05068 2.33368-.05067z"/><path d="m19.1247 3.32554c.4295-.42958 1.126-.42958 1.5556 0s.4296 1.12606 0 1.55563l-.3536.35356c-.1562.15621-.4094.15621-.5656 0l-.99-.98995c-.1562-.15621-.1562-.40948 0-.56569zm-.6007 2.57468-.4242-.42427c-.4369-.43687-.72-.4114-1.1314 0-1.7089 1.70885-3.4177 3.41769-5.1265 5.12655-1.95266 1.9526-3.18733 3.8838-2.75775 4.3133.42958.4296 2.36075-.8051 4.31335-2.7577 1.7088-1.7088 3.4176-3.41772 5.1265-5.12651.4369-.43688.4114-.71997 0-1.13137z"/></g></svg>
