<svg xmlns="http://www.w3.org/2000/svg" width="16" height="16" fill="none" viewBox="0 0 16 16">
  <path fill="url(#a)" fill-rule="evenodd" d="M8 16A8 8 0 1 0 8 0a8 8 0 0 0 0 16Z" clip-rule="evenodd"/>
  <path fill="#fff" fill-rule="evenodd" d="m7.315 9.449.39-.21a.62.62 0 0 1 .59 0l.39.21a.625.625 0 0 0 .883-.33l.167-.42a.64.64 0 0 1 .453-.39l.43-.096a.657.657 0 0 0 .47-.837l-.134-.431a.668.668 0 0 1 .102-.598l.27-.359a.664.664 0 0 0-.163-.952l-.373-.24a.657.657 0 0 1-.295-.527l-.018-.452a.639.639 0 0 0-.72-.621l-.436.06a.625.625 0 0 1-.555-.207l-.296-.335a.623.623 0 0 0-.94 0l-.296.335a.625.625 0 0 1-.555.207l-.436-.06a.643.643 0 0 0-.72.621l-.018.452a.657.657 0 0 1-.295.526l-.372.242a.665.665 0 0 0-.163.952l.269.358c.127.17.166.393.102.598l-.134.43a.653.653 0 0 0 .47.837l.43.097a.64.64 0 0 1 .453.39l.167.42a.627.627 0 0 0 .883.33Zm-1.546.723a1.768 1.768 0 0 0 .995.507c.045.007.084.04.1.084l.461 1.304c.01.029.01.06 0 .09l-.425 1.2a.21.21 0 0 1-.37.054l-.555-.778a.337.337 0 0 0-.09-.097.185.185 0 0 0-.082-.03.322.322 0 0 0-.13.015l-.911.228a.211.211 0 0 1-.256-.16.223.223 0 0 1 .007-.126l.812-2.295.059-.166a.126.126 0 0 1 .222-.032c.063.088.117.155.163.202Zm4.853-.152.865 2.443a.22.22 0 0 1-.126.28.206.206 0 0 1-.123.006l-.912-.228a.322.322 0 0 0-.129-.016.185.185 0 0 0-.083.031.337.337 0 0 0-.089.097l-.556.778a.208.208 0 0 1-.296.047.218.218 0 0 1-.073-.101l-.926-2.617a.132.132 0 0 1 .076-.167.124.124 0 0 1 .095.003c.019.01.03.014.035.016a1.75 1.75 0 0 0 2.016-.615.125.125 0 0 1 .178-.029c.02.015.036.037.044.061l.004.01Z" clip-rule="evenodd"/>
  <defs>
    <linearGradient id="a" x1="-8" x2="8" y1="8" y2="24" gradientUnits="userSpaceOnUse">
      <stop stop-color="#70B2FF"/>
      <stop offset="1" stop-color="#5C9CE6"/>
    </linearGradient>
  </defs>
</svg>
