<svg xmlns="http://www.w3.org/2000/svg" width="16" height="16" fill="none" viewBox="0 0 16 16">
  <path fill="url(#a)" fill-rule="evenodd" d="M8 16A8 8 0 1 0 8 0a8 8 0 0 0 0 16Z" clip-rule="evenodd"/>
  <path fill="#fff" d="M9 9v3a1 1 0 1 1-2 0V9H4a1 1 0 0 1 0-2h3V4a1 1 0 0 1 2 0v3h3a1 1 0 1 1 0 2H9Z"/>
  <defs>
    <linearGradient id="a" x1="-8" x2="8" y1="8" y2="24" gradientUnits="userSpaceOnUse">
      <stop stop-color="#70B2FF"/>
      <stop offset="1" stop-color="#5C9CE6"/>
    </linearGradient>
  </defs>
</svg>

