<svg xmlns="http://www.w3.org/2000/svg" width="16" height="16" viewBox="0 0 16 16" fill="currentColor"><path fill-rule="evenodd" d="M6.219 1.5H9.78c.674 0 1.224 0 1.672.037.463.037.882.118 1.273.317a3.25 3.25 0 0 1 1.42 1.42c.199.391.28.81.317 1.273.037.447.037.998.037 1.672V9.78c0 .674 0 1.224-.037 1.672-.037.463-.118.882-.317 1.273a3.25 3.25 0 0 1-1.42 1.42c-.391.199-.81.28-1.273.317-.447.037-.998.037-1.672.037H6.22c-.674 0-1.225 0-1.672-.037-.463-.037-.882-.118-1.272-.317a3.25 3.25 0 0 1-1.42-1.42c-.2-.391-.28-.81-.318-1.273-.037-.447-.037-.998-.037-1.672V6.22c0-.674 0-1.224.037-1.672.037-.463.118-.882.317-1.272a3.25 3.25 0 0 1 1.42-1.42c.391-.2.81-.28 1.273-.318.448-.037.998-.037 1.672-.037M4.67 3.033c-.37.03-.57.085-.713.159a1.75 1.75 0 0 0-.765.765c-.074.144-.13.343-.16.713-.03.38-.032.868-.032 1.58v3.5c0 .712 0 1.202.032 1.58.03.371.085.57.159.714.168.33.435.598.765.765.144.074.343.13.713.16.38.03.869.031 1.581.031h3.5c.712 0 1.202 0 1.58-.032.371-.03.57-.085.714-.159a1.75 1.75 0 0 0 .765-.764c.074-.145.13-.344.16-.714.03-.38.031-.869.031-1.581v-3.5c0-.712 0-1.202-.032-1.58-.03-.371-.085-.57-.159-.714a1.75 1.75 0 0 0-.764-.765c-.145-.074-.344-.13-.714-.16C10.95 3.002 10.462 3 9.75 3h-3.5c-.712 0-1.202 0-1.58.032M8 4.5a.75.75 0 0 1 .75.75v2h2a.75.75 0 0 1 0 1.5h-2v2a.75.75 0 0 1-1.5 0v-2h-2a.75.75 0 0 1 0-1.5h2v-2A.75.75 0 0 1 8 4.5" clip-rule="evenodd"/></svg>