<svg xmlns="http://www.w3.org/2000/svg" width="16" height="16" fill="currentColor" viewBox="0 0 16 16"><path fill-rule="evenodd" d="M8 13.5a4.5 4.5 0 1 0 0-9 4.5 4.5 0 0 0 0 9ZM8 15A6 6 0 1 0 8 3a6 6 0 0 0 0 12ZM3.53 1.97a.75.75 0 0 1 0 1.06l-1.5 1.5A.75.75 0 0 1 .97 3.47l1.5-1.5a.75.75 0 0 1 1.06 0Zm8.94 0a.75.75 0 0 0 0 1.06l1.5 1.5a.75.75 0 1 0 1.06-1.06l-1.5-1.5a.75.75 0 0 0-1.06 0Z M8 6.25a.75.75 0 0 1 .75.75v1.94l.78.78a.75.75 0 1 1-1.06 1.06l-.854-.853a1.25 1.25 0 0 1-.366-.884V7A.75.75 0 0 1 8 6.25Z" clip-rule="evenodd"/></svg>
