<svg xmlns="http://www.w3.org/2000/svg" width="16" height="16" fill="currentColor" viewBox="0 0 16 16"><path d="M4 2a2.5 2.5 0 0 1 2.385 1.75H10.8c.547 0 1.004-.001 1.375.03.38.03.736.098 1.073.27.518.263.939.685 1.202 1.202.172.337.24.693.27 1.073.031.371.03.828.03 1.375v.6c0 .547.001 1.004-.03 1.375-.03.38-.098.736-.27 1.073a2.752 2.752 0 0 1-1.202 1.202c-.337.172-.693.24-1.073.27-.371.031-.828.03-1.375.03h-.49l.72.72a.75.75 0 1 1-1.06 1.06l-2-2a.75.75 0 0 1 0-1.06l2-2a.75.75 0 1 1 1.06 1.06l-.72.72h.49c.572 0 .957 0 1.253-.024.287-.024.424-.067.514-.113.236-.12.426-.31.546-.546.046-.09.09-.227.113-.514.024-.296.024-.68.024-1.253v-.6c0-.572 0-.957-.024-1.253-.024-.287-.067-.424-.113-.514a1.249 1.249 0 0 0-.546-.546c-.09-.046-.227-.09-.514-.113-.296-.024-.68-.024-1.253-.024H6.385A2.5 2.5 0 1 1 4 2Zm0 7a2.5 2.5 0 1 1 0 5 2.5 2.5 0 0 1 0-5Zm0 1.5a1 1 0 1 0 0 2 1 1 0 0 0 0-2Zm0-7a1 1 0 1 0 0 2 1 1 0 0 0 0-2Z"/></svg>
