<svg fill="none" height="16" viewBox="0 0 12 16" width="12" xmlns="http://www.w3.org/2000/svg"><g clip-rule="evenodd" fill="currentColor" fill-rule="evenodd"><path d="m2.15553 11.2952c.25255-.3284.72344-.3898 1.05175-.1372l2.79272 2.1482 2.79272-2.1482c.32831-.2526.7992-.1912 1.05175.1372.25253.3283.19113.7992-.13719 1.0517l-3.25 2.5c-.26959.2074-.64497.2074-.91456 0l-3.25-2.5c-.32832-.2525-.38974-.7234-.13719-1.0517z"/><path d="m9.84447 4.70969c-.25255.32831-.72344.38973-1.05175.13718l-2.79272-2.14824-2.79272 2.14824c-.32831.25255-.7992.19113-1.05175-.13718-.25255-.32832-.19113-.7992.13719-1.05175l3.25-2.5c.26959-.207381.64497-.207381.91456 0l3.25 2.5c.32832.25255.38972.72343.13719 1.05175z"/></g></svg>
