<svg xmlns="http://www.w3.org/2000/svg" width="16" height="16" fill="currentColor" viewBox="0 0 16 16"><path d="M9.93 3.568a.75.75 0 0 0-.104-.798l-1.25-1.5a.75.75 0 0 0-1.152 0l-1.25 1.5A.75.75 0 0 0 6.75 4h.5v1.75a.75.75 0 0 0 1.5 0V4h.5a.75.75 0 0 0 .68-.432ZM2.77 6.174A.75.75 0 0 1 4 6.75v.5h1.75a.75.75 0 0 1 0 1.5H4v.5a.75.75 0 0 1-1.23.576l-1.5-1.25a.75.75 0 0 1 0-1.152l1.5-1.25Zm10.46 0A.75.75 0 0 0 12 6.75v.5h-1.75a.75.75 0 0 0 0 1.5H12v.5a.75.75 0 0 0 1.23.576l1.5-1.25a.75.75 0 0 0 0-1.152l-1.5-1.25ZM9.826 13.23A.75.75 0 0 0 9.25 12h-.5v-1.75a.75.75 0 0 0-1.5 0V12h-.5a.75.75 0 0 0-.576 1.23l1.25 1.5a.75.75 0 0 0 1.152 0l1.25-1.5Z"/></svg>
