<svg xmlns="http://www.w3.org/2000/svg" width="16" height="16" viewBox="0 0 16 16" fill="currentColor"><path d="M3.62 4a1 1 0 0 1 .124.011l.016.003.026.008q.053.011.103.03l.009.005.012.007a.7.7 0 0 1 .215.148l1.903 1.927a.73.73 0 0 1 0 1.023.71.71 0 0 1-1.01 0l-.684-.694v1.108c0 .66 0 1.11.029 1.46.027.34.077.52.142.65.15.299.39.543.686.695.127.065.306.116.642.144.345.028.792.03 1.443.03h.915c.394 0 .714.323.714.722 0 .4-.32.723-.714.723h-.915c-.628 0-1.142 0-1.56-.034-.424-.035-.811-.11-1.173-.297a3 3 0 0 1-1.311-1.327c-.184-.366-.258-.757-.293-1.188-.034-.421-.034-.942-.034-1.578V6.467l-.685.695a.71.71 0 0 1-1.01 0 .73.73 0 0 1 0-1.023l1.904-1.927a.7.7 0 0 1 .344-.192l.02-.006.015-.003A1 1 0 0 1 3.62 4m5.104 0c.628 0 1.142 0 1.56.034.424.035.811.11 1.173.297a3 3 0 0 1 1.311 1.327c.184.366.258.757.293 1.188.034.421.034.942.034 1.578v1.107l.685-.694a.71.71 0 0 1 1.01 0 .73.73 0 0 1 0 1.023l-1.904 1.927-.054.05-.046.033a.7.7 0 0 1-.135.075l-.013.004-.023.007a.7.7 0 0 1-.235.044.7.7 0 0 1-.505-.212l-.004-.005-1.9-1.923a.73.73 0 0 1 0-1.023.71.71 0 0 1 1.01 0l.685.693V8.424c0-.66 0-1.11-.029-1.46-.027-.34-.077-.52-.142-.65a1.57 1.57 0 0 0-.686-.695c-.127-.065-.305-.116-.642-.144-.345-.029-.792-.03-1.443-.03h-.915a.72.72 0 0 1-.714-.722c0-.4.32-.723.714-.723z"/></svg>