<svg xmlns="http://www.w3.org/2000/svg" width="16" height="16" fill="currentColor" viewBox="0 0 16 16"><path fill-rule="evenodd" d="M9.179 1.952c0-.789.921-1.255 1.553-.735l2.812 2.319c.301.249.452.605.456.956v.015a1.254 1.254 0 0 1-.456.957l-2.812 2.319c-.632.52-1.553.054-1.553-.735v-.833L6.33 5.836a.876.876 0 0 1-.579-.354 1.18 1.18 0 0 1-.166-.346A2.222 2.222 0 0 1 5.5 4.5c0-.216.026-.44.086-.636a1.18 1.18 0 0 1 .167-.346.875.875 0 0 1 .578-.354l2.848-.38v-.832ZM5.163 8.7c.568-.443 1.524-.108 1.524.734v.792c1.415.226 3.385 1.085 4.258 3.242a.75.75 0 0 1-1.152.877c-.755-.58-1.597-.875-3.106-.945v.666c0 .842-.956 1.177-1.524.733l-2.699-2.107A1.2 1.2 0 0 1 2 11.758v-.016c.004-.353.165-.7.464-.934l2.7-2.108Z" clip-rule="evenodd"/></svg>
