<svg xmlns="http://www.w3.org/2000/svg" width="16" height="16" fill="currentColor" viewBox="0 0 16 16"><path fill-rule="evenodd" d="M10.281 2H5.72c-.674 0-1.225 0-1.672.037-.463.037-.882.118-1.272.317a3.25 3.25 0 0 0-1.42 1.42c-.2.391-.28.81-.318 1.273C1 5.494 1 6.045 1 6.719V9.28c0 .674 0 1.224.037 1.672.037.463.118.882.317 1.273a3.25 3.25 0 0 0 1.42 1.42c.391.199.81.28 1.273.317.447.037.998.037 1.672.037h4.562c.674 0 1.224 0 1.672-.037.463-.037.882-.118 1.273-.317a3.25 3.25 0 0 0 1.42-1.42c.199-.391.28-.81.317-1.273C15 10.505 15 9.954 15 9.28V6.72c0-.674 0-1.225-.037-1.672-.037-.463-.118-.882-.317-1.272a3.25 3.25 0 0 0-1.42-1.42c-.391-.2-.81-.28-1.273-.318C11.506 2 10.955 2 10.281 2ZM7.78 4.1l-2.2 2.398A.3.3 0 0 0 5.8 7h1.45v4.25a.75.75 0 0 0 1.5 0V7h1.448a.3.3 0 0 0 .221-.503L8.221 4.101a.3.3 0 0 0-.442 0Z" clip-rule="evenodd"/></svg>
