<svg xmlns="http://www.w3.org/2000/svg" width="16" height="16" fill="none" viewBox="0 0 16 16"><path fill="currentColor" fill-rule="evenodd" d="M6.2186 1.5h3.5628c.6734 0 1.2241 0 1.6717.0366.4632.0378.8816.1185 1.2724.3176a3.2502 3.2502 0 0 1 1.4203 1.4203c.1991.3908.2798.8092.3176 1.2724.0366.4476.0366.9983.0366 1.6717v3.5628c0 .6734 0 1.2241-.0366 1.6717-.0378.4632-.1185.8816-.3176 1.2724a3.2504 3.2504 0 0 1-1.4203 1.4203c-.3908.1991-.8092.2798-1.2724.3176-.4476.0366-.9983.0366-1.6717.0366H6.2186c-.6734 0-1.2241 0-1.6717-.0366-.4632-.0378-.8816-.1185-1.2724-.3176a3.2502 3.2502 0 0 1-1.4203-1.4203c-.199-.3908-.2798-.8092-.3176-1.2724C1.5 11.0055 1.5 10.4548 1.5 9.7814V6.2186c0-.6734 0-1.2241.0366-1.6717.0378-.4632.1185-.8816.3176-1.2724a3.25 3.25 0 0 1 1.4203-1.4203c.3908-.199.8092-.2798 1.2724-.3176C4.9945 1.5 5.5452 1.5 6.2186 1.5ZM4.669 3.0316c-.3705.0302-.5695.0857-.7136.1591a1.75 1.75 0 0 0-.7648.7648c-.0734.144-.1289.343-.1591.7136C3.0006 5.0483 3 5.5376 3 6.25v3.5c0 .7124.0006 1.2017.0316 1.5809.0302.3705.0857.5695.1591.7136a1.75 1.75 0 0 0 .7648.7648c.144.0734.343.1289.7136.1591.3792.031.8685.0316 1.5809.0316h3.5c.7124 0 1.2017-.0006 1.5809-.0316.3705-.0302.5695-.0857.7136-.1591a1.7502 1.7502 0 0 0 .7648-.7648c.0734-.1441.1289-.3431.1591-.7136.031-.3792.0316-.8685.0316-1.5809v-3.5c0-.7124-.0006-1.2017-.0316-1.581-.0302-.3704-.0857-.5694-.1591-.7135a1.75 1.75 0 0 0-.7648-.7648c-.1441-.0734-.3431-.1289-.7136-.1591C10.9517 3.0006 10.4624 3 9.75 3h-3.5c-.7124 0-1.2017.0006-1.581.0316ZM4.5 5.25a.75.75 0 0 1 .75-.75h5.5a.75.75 0 0 1 0 1.5h-5.5a.75.75 0 0 1-.75-.75ZM4.5 8a.75.75 0 0 1 .75-.75h5.5a.75.75 0 0 1 0 1.5h-5.5A.75.75 0 0 1 4.5 8Zm0 2.75a.75.75 0 0 1 .75-.75h3.5a.75.75 0 0 1 0 1.5h-3.5a.75.75 0 0 1-.75-.75Z" clip-rule="evenodd"/></svg>
