<svg xmlns="http://www.w3.org/2000/svg" width="16" height="16" fill="none" viewBox="0 0 16 16"><path fill="currentColor" fill-rule="evenodd" d="M7.9682 2.0376C9.348.654 11.586.654 12.9659 2.0376c1.3788 1.3823 1.3788 3.6227 0 5.005l-4.3052 4.3168c-.8365.8386-2.1935.8386-3.03 0-.8351-.8373-.8353-2.194-.0006-3.0316L7.721 6.2216a.75.75 0 1 1 1.0645 1.0568l-2.0927 2.108a.6476.6476 0 0 0 0 .9137.639.639 0 0 0 .9058 0l4.3053-4.3167c.7948-.7968.7948-2.0897 0-2.8865-.7938-.7959-2.08-.7959-2.8737 0l-4.4276 4.439c-.1629.1633-.2256.2264-.2736.2794-1.1053 1.2192-1.1053 3.0816 0 4.3007.174.192.3607.3791.5522.5537.5939.5411 1.421.8248 2.252.8274.8354.0025 1.5909-.2778 2.0681-.755.1003-.1003.2036-.1978.3039-.2983l2.2138-2.2195a.75.75 0 0 1 1.062 1.0593l-2.2301 2.2358c-.1339.1342-.2218.2224-.3011.2955-.8178.81-1.9836 1.1857-3.1212 1.1822-1.1477-.0036-2.3504-.3919-3.2577-1.2188a9.7592 9.7592 0 0 1-.6532-.6548c-1.6236-1.7908-1.6236-4.5249 0-6.3157.0753-.083.1654-.1733.3066-.3149l4.4439-4.4553Z" clip-rule="evenodd"/></svg>
