<svg xmlns="http://www.w3.org/2000/svg" width="16" height="16" viewBox="0 0 16 16" fill="currentColor"><path fill-rule="evenodd" d="M7.968 2.038a3.53 3.53 0 0 1 4.998 0 3.545 3.545 0 0 1 0 5.005L8.66 11.359a2.14 2.14 0 0 1-3.03 0 2.15 2.15 0 0 1 0-3.031l2.09-2.106a.75.75 0 1 1 1.064 1.056L6.693 9.386a.65.65 0 0 0 0 .914.64.64 0 0 0 .906 0l4.305-4.317a2.045 2.045 0 0 0 0-2.886 2.03 2.03 0 0 0-2.874 0L4.603 7.536a10 10 0 0 0-.274.28 3.203 3.203 0 0 0 0 4.3c.174.192.36.38.552.554.594.54 1.421.825 2.252.827.836.003 1.591-.278 2.068-.755l.304-.298 2.214-2.22a.75.75 0 1 1 1.062 1.06l-2.23 2.235c-.134.135-.222.223-.301.296-.818.81-1.984 1.186-3.121 1.182-1.148-.004-2.35-.392-3.258-1.219a10 10 0 0 1-.653-.655 4.703 4.703 0 0 1 0-6.315c.075-.083.165-.173.306-.315z" clip-rule="evenodd"/></svg>