<svg xmlns="http://www.w3.org/2000/svg" width="16" height="16" fill="currentColor" viewBox="0 0 16 16"><path fill-rule="evenodd" d="M10.5 3.33v-.006c0-.258 0-.494-.016-.692a1.775 1.775 0 0 0-.175-.676 1.75 1.75 0 0 0-.765-.765 1.774 1.774 0 0 0-.676-.175C8.67 1 8.434 1 8.176 1h-.352c-.258 0-.494 0-.692.016a1.774 1.774 0 0 0-.676.175 1.75 1.75 0 0 0-.765.765 1.77 1.77 0 0 0-.175.676 9.052 9.052 0 0 0-.016.692v.006c-.34.048-.616.125-.862.25a3 3 0 0 0-1.311 1.311C3 5.533 3 6.373 3 8.053V11.8c0 1.12 0 1.68.218 2.108a2 2 0 0 0 .874.874C4.52 15 5.08 15 6.2 15h3.6c1.12 0 1.68 0 2.108-.218a2 2 0 0 0 .874-.874C13 13.48 13 12.92 13 11.8V8.053c0-1.68 0-2.52-.327-3.162a3 3 0 0 0-1.311-1.31 2.67 2.67 0 0 0-.862-.251Zm-1.754-.819A8.337 8.337 0 0 0 8.15 2.5h-.3c-.292 0-.467 0-.596.011a.627.627 0 0 0-.12.018.25.25 0 0 0-.105.104.626.626 0 0 0-.018.121c-.01.115-.01.265-.011.501.244-.002.51-.002.8-.002h.4c.29 0 .556 0 .8.002 0-.236-.002-.386-.011-.5a.628.628 0 0 0-.018-.122.25.25 0 0 0-.104-.104.627.627 0 0 0-.121-.018ZM6.25 10.5a.75.75 0 0 0 0 1.5h3.5a.75.75 0 0 0 0-1.5h-3.5Z" clip-rule="evenodd"/></svg>
