<svg xmlns="http://www.w3.org/2000/svg" width="16" height="16" fill="none" viewBox="0 0 16 16"><path fill="currentColor" fill-rule="evenodd" d="M11.043.6475a.75.75 0 0 0-1.486.205l.1727 1.252a.75.75 0 1 0 1.4859-.2048L11.043.6475ZM14.7808 2.28a.75.75 0 0 0-1.0615-1.0598l-.9984 1A.75.75 0 1 0 13.7824 3.28l.9984-1Zm-.677 2.5026a.75.75 0 0 0-.2049 1.486l1.2496.1723a.75.75 0 0 0 .8454-.6405.75.75 0 0 0-.6405-.8454l-1.2496-.1724ZM12 9.5c0 3.0376-2.4624 5.5-5.5 5.5S1 12.5376 1 9.5 3.4624 4 6.5 4a5.4758 5.4758 0 0 1 3.3226 1.1167l.6471-.647a.75.75 0 0 1 1.0606 1.0607l-.647.647A5.4758 5.4758 0 0 1 12 9.5Zm-5.5 4c2.2091 0 4-1.7909 4-4 0-2.2091-1.7909-4-4-4-2.2091 0-4 1.7909-4 4 0 2.2091 1.7909 4 4 4Z" clip-rule="evenodd"/></svg>
