<svg xmlns="http://www.w3.org/2000/svg" width="16" height="16" fill="currentColor" viewBox="0 0 16 16"><path fill-rule="evenodd" d="M7.5 2.788C6.307 2.206 5.062 1.98 3.478 2l-.101.002c-.458.005-.913.01-1.329.227a2.03 2.03 0 0 0-.84.85c-.122.245-.169.49-.19.728C1 4.028 1 4.287 1 4.571v5.5c0 .448 0 .826.023 1.132.024.316.076.63.222.925.228.46.534.777.986 1.022.3.162.642.223.982.258.34.034.773.05 1.3.069h.027c1.171.043 2.057.279 2.96.844V2.788Zm1 11.533c.903-.565 1.789-.801 2.96-.843l.027-.001c.527-.02.96-.035 1.3-.07.34-.034.682-.095.982-.257.452-.245.758-.562.986-1.022.146-.295.198-.609.222-.925.023-.306.023-.684.023-1.132v-5.5c0-.284 0-.544-.019-.763a1.945 1.945 0 0 0-.19-.727 2.014 2.014 0 0 0-.839-.85c-.416-.218-.871-.223-1.329-.228L12.522 2c-1.584-.021-2.83.205-4.022.787V14.32Z" clip-rule="evenodd"/></svg>
