<svg xmlns="http://www.w3.org/2000/svg" width="16" height="16" fill="currentColor" viewBox="0 0 16 16"><path fill-rule="evenodd" d="M8 3.054C6.65 2.275 5.284 1.977 3.478 2l-.101.002c-.458.005-.913.01-1.329.227a2.03 2.03 0 0 0-.84.85c-.122.245-.169.49-.19.728A9.422 9.422 0 0 0 1 4.572v5.499c0 .448 0 .826.023 1.132.024.316.076.63.222.925.228.46.534.777.986 1.022.3.162.642.223.982.258.34.034.773.05 1.3.069h.027c1.21.044 2.115.295 3.05.9l.021.014a.754.754 0 0 0 .8-.014c.934-.605 1.84-.856 3.05-.9h.026a21.7 21.7 0 0 0 1.3-.07c.34-.034.682-.095.982-.257.452-.245.758-.562.986-1.022.146-.295.198-.609.222-.925.023-.306.023-.684.023-1.132v-5.5c0-.284 0-.544-.019-.763a1.945 1.945 0 0 0-.19-.727 2.014 2.014 0 0 0-.839-.85c-.416-.218-.871-.223-1.329-.228L12.522 2C10.716 1.977 9.35 2.275 8 3.054ZM3.499 3.5c1.58-.022 2.672.23 3.751.852v8.155c-.826-.34-1.683-.495-2.657-.53a21.15 21.15 0 0 1-1.228-.063c-.292-.03-.39-.068-.42-.084a.736.736 0 0 1-.356-.37c-.02-.04-.052-.13-.07-.37a15.774 15.774 0 0 1-.019-1.048V4.599c0-.321 0-.515.013-.661a.502.502 0 0 1 .035-.182.523.523 0 0 1 .194-.196c.06-.03.128-.05.757-.059Zm9.002 0c-1.58-.022-2.672.23-3.751.852v8.155c.826-.34 1.683-.495 2.657-.53.56-.02.943-.034 1.228-.063.293-.03.39-.068.42-.084a.735.735 0 0 0 .356-.37c.02-.04.052-.13.07-.37.018-.244.019-.565.019-1.048V4.599c0-.321 0-.515-.013-.661a.502.502 0 0 0-.035-.182.523.523 0 0 0-.194-.196c-.06-.03-.127-.05-.757-.059Z" clip-rule="evenodd"/></svg>
