<svg xmlns="http://www.w3.org/2000/svg" width="16" height="16" fill="none" viewBox="0 0 16 16"><path fill="currentColor" d="M10.4815 1.0713c.5466.0445 1.0267.1386 1.471.3644A3.7449 3.7449 0 0 1 13.5913 3.07c.2263.443.3207.922.3653 1.467C14 5.0668 14 5.7206 14 6.5313v5.4883c0 .4959 0 .919-.0305 1.2517-.0303.3308-.0992.7138-.3446 1.0308a1.8016 1.8016 0 0 1-1.3582.6971c-.4012.0148-.7538-.1518-1.0413-.3195-.2892-.1686-.6344-.4146-1.039-.7028L8.494 12.7712c-.1755-.125-.2769-.1968-.3564-.2456-.0488-.03-.0712-.0396-.0773-.0419a.251.251 0 0 0-.1206 0c-.006.0023-.0285.0119-.0773.0419-.0795.0488-.181.1206-.3564.2456l-1.6923 1.2055c-.4047.2883-.7499.5343-1.039.7029-.2876.1677-.6402.3343-1.0414.3195a1.8018 1.8018 0 0 1-1.3582-.6971c-.2454-.317-.3143-.7-.3446-1.0308C2 12.9385 2 12.5154 2 12.0195V6.531c0-.7092 0-1.2985.029-1.7894a9.0142 9.0142 0 0 1 .0144-.2044c.0446-.5452.139-1.024.3653-1.467a3.745 3.745 0 0 1 1.6388-1.6345c.4443-.2258.9244-.3199 1.471-.3644.231-.0188.4855-.0295.7664-.0355 1.3884-.0297 2.8112-.0774 4.1966.0355Z"/></svg>
