<svg xmlns="http://www.w3.org/2000/svg" width="16" height="16" fill="none" viewBox="0 0 16 16"><path fill="currentColor" fill-rule="evenodd" d="M5.228 10.4993c-.7364 0-1.2395.5274-1.2686 1.1153-.043.8716-.4025 1.4621-.7892 1.8616.3536.0449.7974.0276 1.3334-.1241 1.4803-.419 1.992-1.2448 1.992-1.7745 0-.5278-.4963-1.0783-1.2676-1.0783Zm-2.7661 1.0414c.0705-1.4294 1.2742-2.5408 2.7661-2.5408 1.457 0 2.767 1.0863 2.767 2.5777 0 1.4896-1.2862 2.7086-3.083 3.2172-1.7422.4931-2.9517-.0165-3.5434-.4322-.0766-.0538-.2037-.1584-.2889-.3336a.8108.8108 0 0 1-.0376-.6191c.1354-.3952.5304-.5565.8402-.7916.2797-.2123.5514-.5071.5796-1.0776Zm9.9459-10.091c.5632-.5732 1.4797-.6055 2.0824-.0733.6064.5355.68 1.4526.1651 2.077l-4.594 5.7593a.7497.7497 0 1 1-1.1721-.935l4.5984-5.765.0101-.0124c-.0017-.0016-.0039-.0025-.0039-.0025s-.0039-.001-.0069-.0008c-.003 0-.0065.0013-.0065.0013s-.0018.0008-.0033.0024l-.0111.0112-5.3395 5.2723a.7497.7497 0 1 1-1.0535-1.067l5.3348-5.2675Z" clip-rule="evenodd"/></svg>
