<svg xmlns="http://www.w3.org/2000/svg" width="16" height="16" fill="currentColor" viewBox="0 0 16 16"><path fill-rule="evenodd" d="M4.07 1.97a.75.75 0 0 1 1.06 0l.798.797A4.38 4.38 0 0 1 8 2.25c.696 0 1.355.162 1.94.45l.73-.73a.75.75 0 1 1 1.06 1.06l-.564.565c.364.376.66.818.872 1.305H13.4a.75.75 0 0 1 0 1.5h-1.007c.005.083.007.166.007.25v.85h1.85a.75.75 0 0 1 0 1.5H12.4v.85c0 .22-.016.438-.048.65H13.4a.75.75 0 0 1 0 1.5h-1.56A4.399 4.399 0 0 1 8 14.25 4.399 4.399 0 0 1 4.16 12H2.6a.75.75 0 0 1 0-1.5h1.048a4.437 4.437 0 0 1-.048-.65V9H1.75a.75.75 0 0 1 0-1.5H3.6v-.85c0-.084.002-.167.007-.25H2.6a.75.75 0 1 1 0-1.5h1.362a4.39 4.39 0 0 1 .775-1.202L4.07 3.03a.75.75 0 0 1 0-1.06ZM8 12.75a2.9 2.9 0 0 0 2.9-2.9v-3.2a2.9 2.9 0 0 0-5.8 0v3.2a2.9 2.9 0 0 0 2.9 2.9Zm-1.25-6A.75.75 0 0 1 7.5 6h1a.75.75 0 0 1 0 1.5h-1a.75.75 0 0 1-.75-.75ZM7.5 9a.75.75 0 0 0 0 1.5h1a.75.75 0 0 0 0-1.5h-1Z" clip-rule="evenodd"/></svg>
