<svg xmlns="http://www.w3.org/2000/svg" width="16" height="16" fill="currentColor" viewBox="0 0 16 16"><path fill-rule="evenodd" d="M8.847 1h-.03c-.394 0-.736 0-1.016.023a2.3 2.3 0 0 0-.876.222 2.25 2.25 0 0 0-.983.984c-.145.283-.198.578-.222.875-.023.28-.023.622-.023 1.017V6.71a2.25 2.25 0 0 0-.55.086c-.276.08-.507.219-.722.377-.203.15-.432.347-.695.573l-.02.018-.616.53-.052.044c-.255.22-.48.413-.647.655a2.25 2.25 0 0 0-.321.7c-.075.285-.075.582-.075.918v1.268c0 .395 0 .736.023 1.017.025.297.078.592.223.875.215.424.56.768.983.984a2.3 2.3 0 0 0 .875.222c.281.023.622.023 1.018.023h5.757c.396 0 .737 0 1.018-.023a2.3 2.3 0 0 0 .875-.222 2.25 2.25 0 0 0 .983-.984c.145-.283.198-.578.223-.875.022-.28.022-.622.022-1.017V4.12c0-.395 0-.736-.022-1.017-.025-.297-.078-.592-.223-.875a2.25 2.25 0 0 0-.983-.984 2.3 2.3 0 0 0-.875-.222C11.615 1 11.274 1 10.878 1h-2.03ZM8 13.5v-2.835c0-.438-.006-.525-.025-.596a.75.75 0 0 0-.104-.231c-.042-.061-.103-.122-.432-.412l-.585-.514c-.286-.252-.47-.413-.62-.526a.832.832 0 0 0-.247-.146.75.75 0 0 0-.424-.003.831.831 0 0 0-.25.145c-.15.11-.336.27-.625.518l-.615.53c-.337.29-.4.351-.442.413a.75.75 0 0 0-.107.233c-.019.072-.024.16-.024.604v1.17c0 .432 0 .712.017.924.017.204.045.28.064.317a.75.75 0 0 0 .328.327c.037.02.113.047.316.064.208.017.48.018.895.018H8Zm-.175-5.732a14.654 14.654 0 0 0-.628-.534V4.15c0-.432 0-.712.018-.924.016-.204.045-.28.064-.316a.75.75 0 0 1 .327-.328c.037-.02.113-.047.317-.064.212-.017.491-.018.924-.018h2.003c.432 0 .711 0 .924.018.203.017.279.045.316.064a.75.75 0 0 1 .328.328c.019.037.047.112.064.316.017.212.018.492.018.924v7.7c0 .432-.001.712-.018.924-.017.204-.045.28-.064.317a.75.75 0 0 1-.328.327c-.037.02-.113.047-.316.064a4.022 4.022 0 0 1-.144.009l-1.25.009H9.5v-2.903c0-.332 0-.625-.073-.906a2.25 2.25 0 0 0-.314-.693c-.163-.241-.383-.434-.632-.653L8.43 8.3l-.585-.515-.02-.017Z" clip-rule="evenodd"/></svg>
