<svg xmlns="http://www.w3.org/2000/svg" width="16" height="16" fill="currentColor" viewBox="0 0 16 16"><path fill-rule="evenodd" d="M8.847 1h-.03c-.395 0-.736 0-1.016.023a2.3 2.3 0 0 0-.876.222 2.25 2.25 0 0 0-.983.984c-.145.283-.198.578-.222.875-.023.28-.023.622-.023 1.017V6.71a2.25 2.25 0 0 0-.55.086c-.276.08-.507.219-.722.377-.203.15-.432.347-.695.573l-.02.018-.616.53-.052.044c-.255.22-.48.413-.647.655a2.25 2.25 0 0 0-.321.7c-.075.285-.075.582-.075.918v1.268c0 .395 0 .736.023 1.017.025.297.078.592.223.875.215.424.56.768.983.984a2.3 2.3 0 0 0 .875.222c.281.023.622.023 1.018.023h5.757c.396 0 .737 0 1.018-.023a2.3 2.3 0 0 0 .875-.222 2.25 2.25 0 0 0 .983-.984c.145-.283.198-.578.223-.875.022-.28.022-.622.022-1.017V4.12c0-.395 0-.736-.022-1.017-.025-.297-.078-.592-.223-.875a2.25 2.25 0 0 0-.983-.984 2.3 2.3 0 0 0-.875-.222C11.615 1 11.274 1 10.878 1H8.847ZM7.825 7.768a14.654 14.654 0 0 0-.628-.534V4.15c0-.432 0-.712.018-.924.016-.204.045-.28.064-.316a.75.75 0 0 1 .327-.328c.037-.02.113-.047.317-.064.212-.017.491-.018.924-.018h2.003c.432 0 .711 0 .924.018.203.017.279.045.316.064a.75.75 0 0 1 .328.328c.019.037.047.112.064.316.017.212.018.492.018.924v7.7c0 .432-.001.712-.018.924-.017.204-.045.28-.064.317a.75.75 0 0 1-.328.327c-.037.02-.113.047-.316.064a4.022 4.022 0 0 1-.144.009V12.9a.4.4 0 0 0-.4-.4h-.45a.4.4 0 0 0-.4.4v.6H9.5v-2.903c0-.332 0-.625-.073-.906a2.25 2.25 0 0 0-.314-.693c-.163-.241-.383-.434-.632-.653L8.43 8.3l-.585-.515-.02-.017ZM8 10.665V13.5H6.37v-1.1a.4.4 0 0 0-.4-.4h-.45a.4.4 0 0 0-.4.4v1.1c-.416 0-.687-.001-.895-.018-.203-.017-.279-.045-.316-.064a.75.75 0 0 1-.328-.327c-.019-.038-.047-.113-.064-.317a12.753 12.753 0 0 1-.017-.924v-1.17c0-.444.005-.532.024-.604a.75.75 0 0 1 .107-.233c.043-.062.105-.123.442-.413l.615-.53c.29-.248.475-.407.626-.518a.831.831 0 0 1 .249-.145.75.75 0 0 1 .424.003c.038.011.105.04.247.146.15.113.334.274.62.526l.585.514c.33.29.39.35.432.412a.75.75 0 0 1 .104.231c.019.071.025.158.025.596ZM5.52 9.75a.4.4 0 0 0-.4.4v.45c0 .22.18.4.4.4h.45a.4.4 0 0 0 .4-.4v-.45a.4.4 0 0 0-.4-.4h-.45Zm4.86.9c0-.22.18-.4.4-.4h.45c.22 0 .4.18.4.4v.45a.4.4 0 0 1-.4.4h-.45a.4.4 0 0 1-.4-.4v-.45ZM10.825 8a.4.4 0 0 0-.4.4v.45c0 .22.18.4.4.4h.45a.4.4 0 0 0 .4-.4V8.4a.4.4 0 0 0-.4-.4h-.45Zm-.445-1.85c0-.22.18-.4.4-.4h.45c.22 0 .4.18.4.4v.45a.4.4 0 0 1-.4.4h-.45a.4.4 0 0 1-.4-.4v-.45Zm-1.88-.4a.4.4 0 0 0-.4.4v.45c0 .22.18.4.4.4h.45a.4.4 0 0 0 .4-.4v-.45a.4.4 0 0 0-.4-.4H8.5Zm1.88-1.85c0-.22.18-.4.4-.4h.45c.22 0 .4.18.4.4v.45a.4.4 0 0 1-.4.4h-.45a.4.4 0 0 1-.4-.4V3.9ZM8.5 3.5a.4.4 0 0 0-.4.4v.45c0 .22.18.4.4.4h.45a.4.4 0 0 0 .4-.4V3.9a.4.4 0 0 0-.4-.4H8.5Z" clip-rule="evenodd"/></svg>
