<svg xmlns="http://www.w3.org/2000/svg" width="16" height="16" viewBox="0 0 16 16" fill="currentColor"><path fill-rule="evenodd" d="M12 5c1.13 0 1.83.46 2.206 1.044a2.2 2.2 0 0 1 .338.978q.004.047.005.08v.029c0 .784-.115 1.625-.599 2.27q-.26.342-.6.548v1.4c0 .408 0 .76-.023 1.047-.024.297-.077.592-.222.875-.215.424-.56.768-.983.984-.284.144-.579.197-.875.222-.288.023-.64.023-1.047.023H5.8c-.407 0-.759 0-1.046-.023-.297-.025-.592-.078-.875-.222a2.25 2.25 0 0 1-.984-.984 2.3 2.3 0 0 1-.222-.875c-.024-.287-.023-.639-.023-1.046v-1.4a2.2 2.2 0 0 1-.6-.55c-.484-.644-.6-1.485-.6-2.27a1 1 0 0 1 .007-.109q.008-.096.038-.247c.042-.195.126-.46.299-.73C2.17 5.459 2.87 5 4 5zM9.83 9.48c-.36.36-.941.82-1.83.82s-1.47-.46-1.83-.82c-.063-.062-.12-.125-.17-.18-.051.055-.108.118-.17.18-.34.34-.875.767-1.68.815v1.055c0 .432 0 .712.018.924.016.203.045.279.064.316a.75.75 0 0 0 .327.328c.037.019.114.047.317.064.212.017.492.018.925.018H10.2c.432 0 .712-.001.925-.018.202-.017.278-.045.315-.064a.75.75 0 0 0 .328-.328c.02-.037.047-.113.064-.316.017-.212.018-.492.018-.924v-1.056c-.805-.048-1.34-.474-1.68-.814-.063-.062-.12-.125-.17-.18-.051.055-.108.118-.17.18M4 6.5c-.67 0-.87.24-.945.355a.7.7 0 0 0-.105.311l.006.242c.029.569.154.906.294 1.092.13.172.333.3.75.3.31 0 .53-.14.77-.38a6 6 0 0 0 .183-.195c.059-.065.133-.147.204-.218.07-.07.169-.162.29-.238A1.03 1.03 0 0 1 6 7.599c.242 0 .433.092.555.17.12.076.218.168.288.238.071.071.145.153.204.218.064.07.122.134.183.195.24.24.46.38.77.38s.53-.14.77-.38a6 6 0 0 0 .183-.195c.059-.065.133-.147.204-.218.07-.07.169-.162.29-.238a1.03 1.03 0 0 1 .553-.17c.242 0 .433.092.555.17.12.076.218.168.288.238.071.071.145.153.204.218.064.07.122.134.183.195.24.24.46.38.77.38.417 0 .62-.128.75-.3.16-.212.298-.62.299-1.344l-.01-.067a.7.7 0 0 0-.095-.234C12.87 6.74 12.67 6.5 12 6.5z" clip-rule="evenodd"/><path d="M4.825 1.058c.028-.077.14-.077.169 0 .425 1.15.825 1.373.825 2.033a.91.91 0 0 1-1.82 0c0-.66.401-.883.826-2.033m3.091 0c.028-.077.14-.077.169 0 .425 1.15.825 1.373.825 2.033a.91.91 0 0 1-1.82 0c0-.66.4-.883.826-2.033m3.09 0c.028-.077.14-.077.169 0 .425 1.15.824 1.373.824 2.033a.91.91 0 0 1-1.819 0c0-.66.4-.883.826-2.033"/></svg>