<svg xmlns="http://www.w3.org/2000/svg" width="16" height="16" fill="currentColor" viewBox="0 0 16 16"><path fill-rule="evenodd" d="M5 .5a.75.75 0 0 1 .75.75v.25h4.501v-.25a.75.75 0 0 1 1.5 0v.318c.347.047.669.13.975.286a3.25 3.25 0 0 1 1.42 1.42c.199.391.28.81.317 1.273.037.447.037.998.037 1.672V9.78c0 .674 0 1.224-.037 1.672-.037.463-.118.882-.317 1.273a3.25 3.25 0 0 1-1.42 1.42c-.391.199-.81.28-1.273.317-.447.037-.998.037-1.672.037H6.22c-.674 0-1.225 0-1.672-.037-.463-.037-.882-.118-1.272-.317a3.25 3.25 0 0 1-1.42-1.42c-.2-.391-.28-.81-.318-1.273-.037-.447-.037-.998-.037-1.672V6.22c0-.674 0-1.225.037-1.672.037-.463.118-.882.317-1.272a3.25 3.25 0 0 1 1.42-1.42c.306-.156.629-.24.976-.287V1.25A.75.75 0 0 1 5 .5ZM10.25 3v.25a.75.75 0 0 0 1.5 0v-.16c.126.028.218.062.294.1.33.169.598.436.765.766.074.144.13.343.16.713.027.333.03.751.03 1.331H3c0-.58.004-.998.032-1.33.03-.371.085-.57.159-.714a1.75 1.75 0 0 1 .765-.765c.076-.04.169-.073.294-.101v.16a.75.75 0 1 0 1.5 0V3h4.5ZM3 7.5v2.25c0 .712 0 1.202.032 1.58.03.371.085.57.159.714.168.33.435.598.765.765.144.074.343.13.713.16.38.03.869.031 1.581.031h3.5c.712 0 1.202 0 1.58-.032.371-.03.57-.085.714-.159a1.75 1.75 0 0 0 .765-.764c.074-.145.13-.344.16-.714.03-.38.031-.869.031-1.581V7.5H3Z" clip-rule="evenodd"/></svg>
