<svg xmlns="http://www.w3.org/2000/svg" width="16" height="16" fill="none" viewBox="0 0 16 16"><path fill="currentColor" d="M12 11c0 .5523-.4477 1-1 1s-1-.4477-1-1 .4477-1 1-1 1 .4477 1 1Z"/><path fill="currentColor" fill-rule="evenodd" d="M5.0001.5a.75.75 0 0 1 .75.75v.2505C5.8993 1.5 6.0553 1.5 6.2186 1.5h3.5628c.1634 0 .3195 0 .4687.0005V1.25a.75.75 0 0 1 1.5 0v.3182c.3475.047.6699.1304.9754.286a3.2502 3.2502 0 0 1 1.4203 1.4203c.1991.3908.2798.8092.3176 1.2724.0366.4476.0366.9983.0366 1.6716v3.563c0 .6733 0 1.224-.0366 1.6716-.0378.4632-.1185.8816-.3176 1.2724a3.2504 3.2504 0 0 1-1.4203 1.4203c-.3908.1991-.8092.2798-1.2724.3176-.4476.0366-.9983.0366-1.6716.0366h-3.563c-.6733 0-1.224 0-1.6716-.0366-.4632-.0378-.8816-.1185-1.2724-.3176a3.2502 3.2502 0 0 1-1.4203-1.4203c-.199-.3908-.2798-.8092-.3176-1.2724C1.5 11.0055 1.5 10.4548 1.5 9.7814V6.2186c0-.6734 0-1.2241.0366-1.6717.0378-.4632.1185-.8816.3176-1.2724a3.25 3.25 0 0 1 1.4203-1.4203c.3056-.1557.628-.239.9756-.286V1.25a.75.75 0 0 1 .75-.75Zm5.25 2.5006V3.25a.75.75 0 0 0 1.5 0v-.1601c.1254.0278.2177.0618.2944.1008a1.75 1.75 0 0 1 .7648.7648c.0734.144.1289.343.1591.7136.0273.3331.031.7512.0315 1.3309H3.0001c.0005-.5797.0042-.9977.0315-1.331.0302-.3704.0857-.5694.1591-.7135a1.75 1.75 0 0 1 .7648-.7648c.0768-.039.169-.073.2946-.101V3.25a.75.75 0 1 0 1.5 0v-.2494C5.9037 3 6.0697 3 6.25 3h3.5c.1804 0 .3465 0 .5001.0006ZM3 7.5v2.25c0 .7124.0006 1.2017.0316 1.5809.0302.3705.0857.5695.1591.7136a1.75 1.75 0 0 0 .7648.7648c.144.0734.343.1289.7136.1591.3792.031.8685.0316 1.5809.0316h3.5c.7124 0 1.2017-.0006 1.5809-.0316.3705-.0302.5695-.0857.7136-.1591a1.7502 1.7502 0 0 0 .7648-.7648c.0734-.1441.1289-.3431.1591-.7136.031-.3792.0316-.8685.0316-1.5809V7.5H3Z" clip-rule="evenodd"/></svg>
