<svg xmlns="http://www.w3.org/2000/svg" width="16" height="16" fill="currentColor" viewBox="0 0 16 16"><path d="M10.573 13.13a.751.751 0 0 0 1.062-1.06L2.48 2.92a.75.75 0 1 0-1.06 1.06l.82.82c-.153.282-.24.606-.24.95v4.5a2 2 0 0 0 2 2h5a2 2 0 0 0 .601-.092l.972.972Zm4.324-7.466A.454.454 0 0 1 15 5.95v4.074c0 .415-.393.602-.826.382-.474-.24-1.571-.789-1.571-.789a.233.233 0 0 1-.103-.19v-2.88c0-.075.038-.145.103-.19l1.571-.79c.194-.094.552-.115.723.096ZM11 9.425V5.75a2 2 0 0 0-2-2H5.32L11 9.425Z"/></svg>
