<svg xmlns="http://www.w3.org/2000/svg" width="16" height="16" viewBox="0 0 16 16" fill="currentColor"><path d="M8 3h1.25c.747 0 .75.991 1.49 1h.017c.78 0 1.063.081 1.348.234.285.152.509.376.661.661S13 5.463 13 6.243v3.514c0 .78-.081 1.063-.234 1.348a1.6 1.6 0 0 1-.661.661c-.285.153-.568.234-1.348.234H5.243c-.78 0-1.063-.081-1.348-.234a1.6 1.6 0 0 1-.661-.661C3.08 10.82 3 10.537 3 9.757V6.243c0-.78.081-1.063.234-1.348a1.6 1.6 0 0 1 .661-.661C4.18 4.08 4.463 4 5.243 4h.017c.74-.009.743-1 1.49-1zm0 2.25a2.75 2.75 0 1 0 0 5.5 2.75 2.75 0 0 0 0-5.5M8 6.5a1.5 1.5 0 1 1 0 3 1.5 1.5 0 0 1 0-3"/></svg>