<svg fill="none" height="16" viewBox="0 0 16 16" width="16" xmlns="http://www.w3.org/2000/svg"><path d="m8 0c4.4183 0 8 3.58172 8 8 0 4.4183-3.5817 8-8 8-4.41828 0-8-3.5817-8-8 0-4.41828 3.58172-8 8-8zm2.4657 4.26022-2.4657 2.46678-2.4643-2.46678c-.35147-.35147-.92132-.35147-1.27279 0-.35147.35148-.35147.92132 0 1.2728l2.46509 2.46798-2.46509 2.469c-.35147.3515-.35147.9213 0 1.2728s.92132.3515 1.27279 0l2.4643-2.4678 2.4657 2.4678c.3515.3515.9213.3515 1.2728 0s.3515-.9213 0-1.2728l-2.4665-2.469 2.4665-2.46798c.3515-.35148.3515-.92132 0-1.2728-.3515-.35147-.9213-.35147-1.2728 0z" fill="currentColor"/></svg>
