<svg xmlns="http://www.w3.org/2000/svg" width="16" height="16" fill="none" viewBox="0 0 16 16"><path fill="currentColor" fill-rule="evenodd" d="M8 2.5C4.9624 2.5 2.5 4.9624 2.5 8s2.4624 5.5 5.5 5.5 5.5-2.4624 5.5-5.5S11.0376 2.5 8 2.5ZM1 8c0-3.866 3.134-7 7-7s7 3.134 7 7-3.134 7-7 7-7-3.134-7-7Zm4.2197-2.7803a.75.75 0 0 1 1.0606 0L8 6.9393l1.7197-1.7196a.75.75 0 1 1 1.0606 1.0606L9.0607 8l1.7196 1.7197a.75.75 0 1 1-1.0606 1.0606L8 9.0607l-1.7197 1.7196a.75.75 0 1 1-1.0606-1.0606L6.9393 8 5.2197 6.2803a.75.75 0 0 1 0-1.0606Z" clip-rule="evenodd"/></svg>
