<svg xmlns="http://www.w3.org/2000/svg" width="16" height="16" fill="currentColor" viewBox="0 0 16 16"><path d="M13.719 1.5c-.674 0-1.224 0-1.672.037-.463.037-.882.118-1.273.317a3.25 3.25 0 0 0-1.42 1.42c-.199.391-.28.81-.317 1.273C9 4.995 9 5.545 9 6.219V9.78c0 .674 0 1.224.037 1.672.037.463.118.882.317 1.273a3.25 3.25 0 0 0 1.42 1.42c.391.199.81.28 1.273.317.447.037.998.037 1.671.037h.532a.75.75 0 0 0 0-1.5h-.5c-.712 0-1.202 0-1.58-.032-.371-.03-.57-.085-.714-.159a1.75 1.75 0 0 1-.765-.764c-.074-.145-.13-.344-.16-.714-.03-.38-.031-.869-.031-1.581v-3.5c0-.712 0-1.202.032-1.58.03-.371.085-.57.159-.714a1.75 1.75 0 0 1 .764-.765c.145-.074.344-.13.714-.16.38-.03.869-.031 1.581-.031h.5a.75.75 0 0 0 0-1.5h-.531Zm-11.438 13c.674 0 1.225 0 1.672-.037.463-.037.882-.118 1.272-.317a3.25 3.25 0 0 0 1.42-1.42c.2-.391.28-.81.318-1.273C7 11.006 7 10.455 7 9.781V6.22c0-.674 0-1.225-.037-1.672-.037-.463-.118-.882-.317-1.272a3.25 3.25 0 0 0-1.42-1.42c-.391-.2-.81-.28-1.273-.318C3.506 1.5 2.955 1.5 2.282 1.5H1.75a.75.75 0 0 0 0 1.5h.5c.712 0 1.202 0 1.58.032.371.03.57.085.714.159.33.168.597.435.765.765.074.144.13.343.16.713.03.38.031.869.031 1.581v3.5c0 .712 0 1.202-.032 1.58-.03.371-.085.57-.159.714a1.75 1.75 0 0 1-.765.765c-.144.074-.343.13-.713.16-.38.03-.869.031-1.581.031h-.5a.75.75 0 0 0 0 1.5h.531Z"/></svg>
