<svg xmlns="http://www.w3.org/2000/svg" width="16" height="16" fill="currentColor" viewBox="0 0 16 16"><path fill-rule="evenodd" d="M12 3.75A2.75 2.75 0 0 0 9.25 1h-2.5A2.75 2.75 0 0 0 4 3.75v.256c-.77.015-1.246.068-1.635.266a2.51 2.51 0 0 0-1.093 1.093C1 5.9 1 6.6 1 8v2c0 1.4 0 2.1.272 2.635a2.5 2.5 0 0 0 1.093 1.092C2.9 14 3.6 14 5 14h6c1.4 0 2.1 0 2.635-.273a2.5 2.5 0 0 0 1.092-1.092C15 12.1 15 11.4 15 10V8c0-1.4 0-2.1-.273-2.635a2.5 2.5 0 0 0-1.092-1.093c-.39-.198-.865-.251-1.635-.266V3.75Zm-6.5 0c0-.69.56-1.25 1.25-1.25h2.5c.69 0 1.25.56 1.25 1.25V4h-5v-.25Zm4.955 2.734a.75.75 0 0 1 1.09 1.032l-3.79 4a.75.75 0 0 1-1.089 0l-2.21-2.333A.75.75 0 0 1 5.544 8.15L7.21 9.91l3.245-3.426Z" clip-rule="evenodd"/></svg>