<svg xmlns="http://www.w3.org/2000/svg" width="16" height="16" fill="currentColor" viewBox="0 0 16 16"><path d="M10.422 3.023a1.821 1.821 0 0 1 2.552 0 1.77 1.77 0 0 1-.003 2.502l-.746.747a.75.75 0 0 0 1.06 1.06l.746-.744a3.251 3.251 0 0 0-.002-4.631 3.321 3.321 0 0 0-4.661 0L6.14 5.153a3.252 3.252 0 0 0 0 4.633.75.75 0 1 0 1.054-1.067 1.751 1.751 0 0 1 0-2.5l3.228-3.196Z M5.575 12.98a1.821 1.821 0 0 1-2.552 0 1.752 1.752 0 0 1 0-2.5l.754-.754a.75.75 0 1 0-1.06-1.06l-.75.75a3.251 3.251 0 0 0 .002 4.63 3.321 3.321 0 0 0 4.661 0l3.228-3.197a3.252 3.252 0 0 0 0-4.632.75.75 0 0 0-1.054 1.067 1.751 1.751 0 0 1 0 2.499L5.575 12.98Z"/></svg>
