<svg xmlns="http://www.w3.org/2000/svg" width="16" height="16" fill="none" viewBox="0 0 16 16">
  <path fill="#2688EB" fill-rule="evenodd" d="M2.4 3.892c0-.337 0-.506.057-.65a.8.8 0 0 1 .238-.323c.12-.097.28-.147.603-.248l3.938-1.232c.284-.089.426-.133.57-.15a1.6 1.6 0 0 1 .388 0c.144.017.286.061.57.15l3.938 1.232c.323.1.484.151.603.248a.8.8 0 0 1 .238.324c.057.143.057.312.057.65v4.652c0 3.523-3.87 5.511-5.176 6.082-.13.057-.195.085-.293.101a.954.954 0 0 1-.262 0 1.144 1.144 0 0 1-.293-.101C6.27 14.057 2.4 12.067 2.4 8.545V3.892Z" clip-rule="evenodd"/>
  <path fill="#fff" fill-rule="evenodd" d="M11.008 5.76a.6.6 0 0 1 .032.848l-3.343 3.6a.6.6 0 0 1-.88 0l-1.857-2a.6.6 0 0 1 .88-.816l1.417 1.526 2.903-3.126a.6.6 0 0 1 .848-.032Z" clip-rule="evenodd"/>
</svg>
