<svg xmlns="http://www.w3.org/2000/svg" width="16" height="16" fill="currentColor" viewBox="0 0 16 16"><path fill-rule="evenodd" d="M11.92 4.127A5.572 5.572 0 0 0 6.408 2.73a.75.75 0 1 1-.434-1.436 7.072 7.072 0 0 1 7.008 1.773c1.904 1.904 2.432 4.608 1.717 6.969a.75.75 0 0 1-1.436-.435c.567-1.871.143-3.99-1.341-5.474ZM2.817 1.834a.75.75 0 0 0-1.06 1.06l.765.766c-2.198 2.729-2.01 6.742.535 9.287 2.545 2.545 6.559 2.733 9.288.536l.84.84a.75.75 0 0 0 1.06-1.06L2.817 1.832Zm2.967 5.088L3.59 4.729c-1.61 2.13-1.438 5.193.527 7.158 1.965 1.964 5.029 2.137 7.158.527l-2.12-2.12a2.5 2.5 0 0 1-3.372-3.372Z" clip-rule="evenodd"/></svg>
