<svg xmlns="http://www.w3.org/2000/svg" width="16" height="16" fill="currentColor" viewBox="0 0 16 16"><path fill-rule="evenodd" d="M11 .4a.65.65 0 0 0-.65.65v.3a.65.65 0 1 0 1.3 0v-.3A.65.65 0 0 0 11 .4ZM10.25 5c.963 0 1.841.363 2.505.96a2 2 0 1 0-3.528-1.886c.292.272.543.588.743.936a4.34 4.34 0 0 1 .28-.01ZM7.747 2.379a.65.65 0 0 1 .92-.92l.212.213a.65.65 0 0 1-.92.919l-.212-.212ZM15.6 5a.65.65 0 0 0-.65-.65h-.3a.65.65 0 1 0 0 1.3h.3A.65.65 0 0 0 15.6 5Zm-2.266-3.253a.65.65 0 1 1 .919.92l-.212.212a.65.65 0 0 1-.92-.92l.213-.212ZM1.5 9A2.5 2.5 0 0 0 4 11.5h6.25a2.75 2.75 0 1 0-.874-5.358 3.001 3.001 0 0 0-5.841.401A2.5 2.5 0 0 0 1.5 9Zm7.566 4.358a.65.65 0 1 0-1.233-.411l-.45 1.348a.65.65 0 0 0 1.234.41l.449-1.347Zm-2.5.001a.65.65 0 1 0-1.234-.41l-.699 2.096a.65.65 0 1 0 1.234.411l.699-2.097Z" clip-rule="evenodd"/></svg>
