<svg xmlns="http://www.w3.org/2000/svg" width="16" height="16" fill="currentColor" viewBox="0 0 16 16"><path fill-rule="evenodd" d="M4 9a2.5 2.5 0 1 1 .087-4.998 3.25 3.25 0 1 1 6.348-1.399A3.255 3.255 0 0 1 14.5 5.75 3.25 3.25 0 0 1 11.25 9H4Zm3.458 2.487a.75.75 0 0 0-1.423-.474l-.667 2a.75.75 0 0 0 1.424.474l.666-2Zm-2.746 0a.75.75 0 0 0-1.424-.474l-1 3a.75.75 0 0 0 1.424.474l1-3ZM11 10.5a.75.75 0 0 1 .75.75v.201l.174-.1a.75.75 0 0 1 .75 1.299l-.174.1.174.1a.75.75 0 1 1-.75 1.3l-.174-.1v.2a.75.75 0 0 1-1.5 0v-.2l-.174.1a.75.75 0 0 1-.75-1.3l.174-.1-.174-.1a.75.75 0 1 1 .75-1.3l.174.101v-.2a.75.75 0 0 1 .75-.75Z" clip-rule="evenodd"/></svg>
