<svg xmlns="http://www.w3.org/2000/svg" width="16" height="16" fill="currentColor" viewBox="0 0 16 16"><path fill-rule="evenodd" d="M15.343 4.539c.05-.161-.123-.292-.281-.232A3 3 0 0 1 11.194.438c.059-.157-.072-.331-.233-.281A3.502 3.502 0 0 0 8.5 3.5v.035A4.02 4.02 0 0 1 9.97 5.01a3.747 3.747 0 0 1 3.427 1.7 3.51 3.51 0 0 0 1.946-2.171ZM1.5 9A2.5 2.5 0 0 0 4 11.5h6.25a2.75 2.75 0 1 0-.874-5.358 3.001 3.001 0 0 0-5.841.401A2.5 2.5 0 0 0 1.5 9Zm5.645 3.52a.55.55 0 0 1 .386.675l-.143.521.51.093a.55.55 0 0 1 .433.686l-.3 1.1a.55.55 0 1 1-1.062-.29l.143-.521-.51-.093a.55.55 0 0 1-.433-.686l.3-1.1a.55.55 0 0 1 .676-.386Z" clip-rule="evenodd"/></svg>
