<svg xmlns="http://www.w3.org/2000/svg" width="16" height="16" fill="currentColor" viewBox="0 0 16 16"><path fill-rule="evenodd" d="M10.35 1.05a.65.65 0 1 1 1.3 0v.3a.65.65 0 1 1-1.3 0v-.3Zm2.405 4.91a3.736 3.736 0 0 0-2.785-.95 4.018 4.018 0 0 0-.743-.936 2 2 0 1 1 3.528 1.886Zm-5.008-4.5a.65.65 0 0 0 0 .919l.212.212a.65.65 0 0 0 .92-.92l-.212-.211a.65.65 0 0 0-.92 0Zm7.203 2.89a.65.65 0 1 1 0 1.3h-.3a.65.65 0 1 1 0-1.3h.3Zm-.697-2.603a.65.65 0 0 0-.92 0l-.212.212a.65.65 0 0 0 .92.92l.212-.212a.65.65 0 0 0 0-.92ZM1.5 9A2.5 2.5 0 0 0 4 11.5h6.25a2.75 2.75 0 1 0-.874-5.358 3.001 3.001 0 0 0-5.841.401A2.5 2.5 0 0 0 1.5 9Zm6.03 4.195a.55.55 0 1 0-1.06-.29l-.3 1.1a.55.55 0 0 0 .432.686l.51.093-.143.521a.55.55 0 1 0 1.062.29l.3-1.1a.55.55 0 0 0-.433-.686l-.51-.093.143-.521Z" clip-rule="evenodd"/></svg>
