<svg xmlns="http://www.w3.org/2000/svg" width="16" height="16" fill="currentColor" viewBox="0 0 16 16"><path fill-rule="evenodd" d="M15.062 4.307c.158-.06.331.07.281.232a3.51 3.51 0 0 1-1.946 2.171 3.747 3.747 0 0 0-3.427-1.7A4.02 4.02 0 0 0 8.5 3.535V3.5C8.5 1.929 9.535.6 10.961.157c.161-.05.292.124.232.281a3 3 0 0 0 3.868 3.869ZM1.5 9A2.5 2.5 0 0 0 4 11.5h6.25a2.75 2.75 0 1 0-.874-5.358 3.001 3.001 0 0 0-5.841.401A2.5 2.5 0 0 0 1.5 9Zm7.155 3.536a.65.65 0 0 1 .41.822l-.448 1.348a.65.65 0 0 1-1.234-.412l.45-1.347a.65.65 0 0 1 .822-.411Zm-2.5.001a.65.65 0 0 1 .41.822l-.698 2.097a.65.65 0 0 1-1.234-.41l.7-2.098a.65.65 0 0 1 .822-.411Z" clip-rule="evenodd"/></svg>
