<svg fill="none" height="16" viewBox="0 0 16 16" width="16" xmlns="http://www.w3.org/2000/svg"><g fill="currentColor"><path clip-rule="evenodd" d="m5.46966 3.46968c.29289-.2929.76777-.2929 1.06066 0l5.99998 6c.2929.29289.2929.76772 0 1.06062s-.7677.2929-1.0606 0l-6.00004-5.99996c-.29289-.2929-.29289-.76777 0-1.06066z" fill-rule="evenodd"/><path d="m13.75 4.75001c.6903-.69036.6903-1.80965 0-2.5-.6904-.69036-1.8097-.69036-2.5 0l-3.25001 3.25 2.50001 2.5z"/><path clip-rule="evenodd" d="m10.7197 1.71968c.9832-.983254 2.5774-.983253 3.5606 0 .9833.98325.9833 2.57741 0 3.56066l-7.42581 7.42586c-.97174.9717-2.22283 1.6155-3.57839 1.8415-1.07262.1787-2.00254-.7512-1.82377-1.8238.22593-1.3556.86976-2.6067 1.8415-3.5784zm2.5 1.06066c-.3975-.39747-1.0419-.39747-1.4394 0l-2.71965 2.71967 1.43935 1.43934 2.7197-2.71967c.3974-.39747.3974-1.04188 0-1.43934zm-3.78037 5.21967-1.43934-1.43934-3.6455 3.64553c-.75068.7506-1.24804 1.7171-1.42257 2.7643-.00956.0574.04019.1071.09759.0976 1.04717-.1746 2.01364-.6719 2.76432-1.4226z" fill-rule="evenodd"/></g></svg>
