<svg xmlns="http://www.w3.org/2000/svg" width="16" height="16" fill="currentColor" viewBox="0 0 16 16"><path d="M3.28 2.22a.75.75 0 0 0-1.06 1.06l.818.818C3.013 4.248 3 4.44 3 4.71v4.582c0 .594.062.81.178 1.027.116.217.287.388.504.504.217.116.433.178 1.027.178h.958v2.126a.5.5 0 0 0 .853.354L9 11h.94l2.78 2.78a.75.75 0 1 0 1.061-1.06L3.28 2.22Zm10.209 8.098a1.361 1.361 0 0 1-.04.07L6.06 3h5.896c.595 0 .81.062 1.028.178.217.116.387.287.504.504.116.217.178.433.178 1.027v4.582c0 .594-.062.81-.178 1.027Z"/></svg>
