<svg xmlns="http://www.w3.org/2000/svg" width="16" height="16" viewBox="0 0 16 16" fill="currentColor"><path d="M10.25 1.5c.688 0 1.249-.001 1.703.036.463.038.882.12 1.273.318a3.25 3.25 0 0 1 1.42 1.42c.199.391.28.81.318 1.273C15 5 15 5.562 15 6.25v1c0 .688.001 1.249-.036 1.703-.038.463-.12.882-.319 1.273a3.25 3.25 0 0 1-1.42 1.42c-.39.199-.809.28-1.272.318C11.5 12 10.938 12 10.25 12h-1.5v1.5H12a.75.75 0 0 1 0 1.5H4a.75.75 0 0 1 0-1.5h3.25V12h-1.5c-.688 0-1.249.001-1.703-.036-.463-.038-.882-.12-1.273-.319a3.25 3.25 0 0 1-1.42-1.42c-.199-.39-.28-.809-.318-1.272C1 8.5 1 7.938 1 7.25v-1c0-.688-.001-1.249.036-1.703.038-.463.12-.882.318-1.273a3.25 3.25 0 0 1 1.42-1.42c.391-.199.81-.28 1.273-.318C4.5 1.5 5.062 1.5 5.75 1.5zM5.75 3c-.712 0-1.202 0-1.581.031-.37.03-.57.086-.714.16a1.75 1.75 0 0 0-.765.764c-.073.144-.128.344-.159.714-.03.38-.031.869-.031 1.581v1c0 .712 0 1.202.031 1.581.03.37.086.57.16.714.167.329.435.597.764.765.144.073.344.128.714.159.38.03.869.031 1.581.031h4.5c.712 0 1.202 0 1.581-.031.37-.03.57-.086.714-.16.329-.167.597-.435.765-.764.073-.144.128-.344.159-.714.03-.38.031-.869.031-1.581v-1c0-.712 0-1.202-.031-1.581-.03-.37-.086-.57-.16-.714a1.75 1.75 0 0 0-.764-.765c-.144-.073-.344-.128-.714-.159-.38-.03-.869-.031-1.581-.031z"/></svg>