<svg xmlns="http://www.w3.org/2000/svg" width="16" height="16" fill="currentColor" viewBox="0 0 16 16"><path fill-rule="evenodd" d="M13.25 14.5H6.219c-.674 0-1.224 0-1.672-.037-.463-.037-.882-.118-1.272-.317a3.25 3.25 0 0 1-1.42-1.42c-.2-.391-.28-.81-.318-1.273-.037-.447-.037-.998-.037-1.672V2.75a.75.75 0 0 1 1.5 0v7c0 .712 0 1.202.032 1.58.03.371.085.57.159.714.168.33.435.598.765.765.144.074.343.13.713.16.38.03.869.031 1.581.031h7a.75.75 0 0 1 0 1.5Zm-6.7-7.875c.572 0 .957 0 1.253.027.287.025.424.07.514.12.236.13.427.338.547.592.046.099.088.247.111.558C9 8.242 9 8.66 9 9.28v1.409c0 .448.336.812.75.812s.75-.364.75-.813v-1.44c0-.58 0-1.062-.03-1.457-.03-.412-.098-.798-.27-1.163a2.875 2.875 0 0 0-1.202-1.302c-.337-.186-.693-.26-1.073-.293C7.56 5 7.115 5 6.58 5H5.25c-.414 0-.75.364-.75.813 0 .448.336.812.75.812h1.3Z" clip-rule="evenodd"/></svg>
