<svg xmlns="http://www.w3.org/2000/svg" width="16" height="16" fill="currentColor" viewBox="0 0 16 16"><path d="M13.715 4.442a.767.767 0 0 1 .886-.11h.01c.282.16.433.48.373.8L14.129 9.5H1.865L1.01 5.133a.75.75 0 0 1 .383-.801.764.764 0 0 1 .886.11l.01.01c.01.02.03.04.06.06l.071.06.18.15c.212.17.514.4.846.62.333.22.695.421 1.027.541.353.12.604.15.765.12.091-.02.292-.13.574-.48.262-.32.524-.76.745-1.221.222-.45.403-.9.534-1.241.06-.16.11-.3.14-.4l.017-.038c.013-.033.024-.058.024-.073v-.03c.1-.31.393-.52.725-.52.332 0 .624.21.725.52v.03a.38.38 0 0 1 .016.044l.024.067a20.09 20.09 0 0 0 .141.4c.13.34.312.79.534 1.24.231.461.483.892.745 1.222.281.35.483.46.573.48.171.03.423.01.765-.12a5.08 5.08 0 0 0 1.027-.54c.333-.22.635-.45.846-.62l.18-.15a9.83 9.83 0 0 1 .072-.06.219.219 0 0 1 .049-.051l.011-.01.01-.01ZM2.158 11l.15.768A2.768 2.768 0 0 0 5.028 14h5.94c1.329 0 2.466-.93 2.718-2.232l.15-.768H2.158Z"/></svg>
