<svg xmlns="http://www.w3.org/2000/svg" width="16" height="16" fill="none" viewBox="0 0 16 16"><rect width="16" height="16" fill="url(#a)" rx="8"/><path fill="#fff" d="M9 5a.999.999 0 0 1-.4452.8321L9.6686 7.503c.0622.0932.0933.1398.1351.1633a.2.2 0 0 0 .1212.0242c.0477-.0056.0943-.0366.1875-.0988l.9865-.6576A.9955.9955 0 0 1 11 6.5c0-.5523.4477-1 1-1s1 .4477 1 1-.4477 1-1 1L11.5 9h-7L4 7.5c-.5523 0-1-.4477-1-1s.4477-1 1-1 1 .4477 1 1a.996.996 0 0 1-.0989.434l.9865.6577c.0932.0622.1398.0932.1875.0988a.2.2 0 0 0 .1212-.0242c.0419-.0235.073-.0701.135-.1633l1.114-1.6709A.999.999 0 0 1 7 5c0-.5523.4477-1 1-1s1 .4477 1 1Zm-2.9457 6.5a1 1 0 0 1-.9487-.6838L4.8335 10h6.3333l-.272.8162a1 1 0 0 1-.9487.6838H6.0543Z"/><defs><linearGradient id="a" x1="13.6667" x2="2.3333" y1="2.3333" y2="13.6667" gradientUnits="userSpaceOnUse"><stop stop-color="#FF22A6"/><stop offset=".0667" stop-color="#FD23A7"/><stop offset=".1333" stop-color="#F625A9"/><stop offset=".2" stop-color="#EA29AD"/><stop offset=".2667" stop-color="#D92FB3"/><stop offset=".3333" stop-color="#C436BB"/><stop offset=".4" stop-color="#AA3EC4"/><stop offset=".4667" stop-color="#8E48CD"/><stop offset=".5333" stop-color="#7151D8"/><stop offset=".6" stop-color="#555BE1"/><stop offset=".6667" stop-color="#3B63EA"/><stop offset=".7333" stop-color="#266AF2"/><stop offset=".8" stop-color="#1570F8"/><stop offset=".8667" stop-color="#0974FC"/><stop offset=".9333" stop-color="#0276FE"/><stop offset="1" stop-color="#07F"/></linearGradient></defs></svg>
