<svg xmlns="http://www.w3.org/2000/svg" width="16" height="16" fill="currentColor" viewBox="0 0 16 16"><path d="M13.263 13.403a.654.654 0 0 1-.652.597H3.563a.654.654 0 0 1-.652-.59l-.05-.538h10.448l-.046.531ZM8.146 2a1.38 1.38 0 0 1 1.383 1.374c0 .558-.336 1.037-.816 1.252l1.77 4.337 2.348-2.647a1.362 1.362 0 0 1-.718-1.188c0-.759.646-1.374 1.443-1.374.798 0 1.444.615 1.444 1.374 0 .663-.493 1.215-1.148 1.345l-.46 5.422H2.769L2.261 6.49C1.551 6.405 1 5.83 1 5.128c0-.759.646-1.374 1.444-1.374.797 0 1.443.615 1.443 1.374 0 .481-.26.904-.653 1.15L5.86 9.236 7.717 4.68a1.376 1.376 0 0 1-.951-1.307c0-.758.618-1.374 1.38-1.374Z"/></svg>