<svg xmlns="http://www.w3.org/2000/svg" width="16" height="16" fill="currentColor" viewBox="0 0 16 16"><path d="M8.559 2.6s-.146-.416-.561-.416c-.415 0-.564.416-.564.416l-.002.007-.01.031a14.364 14.364 0 0 1-.799 1.946c-.254.5-.541.966-.844 1.299-.312.344-.56.46-.738.46-.632 0-1.348-.401-1.966-.893a8.132 8.132 0 0 1-.973-.92l-.012-.014-.002-.002s-.302-.377-.711-.17-.308.713-.308.713l.913 4.587h12.029l.913-4.587s.124-.49-.278-.707c-.403-.216-.742.164-.742.164l-.002.002-.011.014a7.234 7.234 0 0 1-.252.27 8.13 8.13 0 0 1-.721.65c-.618.492-1.334.892-1.966.892-.178 0-.426-.115-.739-.46-.302-.332-.59-.798-.843-1.298a13.739 13.739 0 0 1-.799-1.946l-.01-.03L8.56 2.6Zm5.203 8.29H2.23l.207 1.04.008.033c.103.404.272.771.563 1.078.66.695 1.614.76 2.803.776h4.371c1.188-.016 2.143-.08 2.803-.777.291-.306.46-.673.563-1.076l.008-.035.207-1.039Z"/></svg>
