<svg xmlns="http://www.w3.org/2000/svg" width="16" height="16" fill="none" viewBox="0 0 16 16"><rect width="16" height="16" fill="#F45FFF" rx="8"/><path fill="#fff" fill-rule="evenodd" d="M8.457 5.615a.95.95 0 1 0-.914 0l-1.34 2.003a.167.167 0 0 1-.236.042l-1.162-.84a.95.95 0 1 0-.856.538l.477 1.477h7.163l.461-1.477a.95.95 0 1 0-.852-.53l-1.16.84a.167.167 0 0 1-.236-.043l-1.345-2.01Zm-3.79 4.22h6.666l-.107.518A1.436 1.436 0 0 1 9.82 11.5H6.18c-.68 0-1.267-.478-1.405-1.145l-.108-.52Z" clip-rule="evenodd"/></svg>
