<svg fill="none" height="16" viewBox="0 0 16 16" width="16" xmlns="http://www.w3.org/2000/svg"><g fill="currentColor"><path d="m2.92326 11.4188c.13322 1.2658.19984 1.8987.48934 2.3766.255.4209.62858.7573 1.07393.9668.50559.2379 1.14197.2379 2.41475.2379h2.1979c1.27272 0 1.90912 0 2.41472-.2379.4453-.2095.8189-.5458 1.0739-.9668.2895-.4779.3562-1.1108.4894-2.3765l.5301-5.03514c.0322-.30607.0483-.4591-.0015-.57746-.0436-.10397-.1212-.19011-.22-.24444-.1125-.06186-.2664-.06186-.5741-.06186h-9.62279c-.30775 0-.46162 0-.57413.06186-.09881.05433-.17636.14047-.22005.24443-.04974.11836-.03363.27139-.00142.57745z"/><path d="m2 4h12c.5523 0 1-.44771 1-.99998 0-.5523-.4477-1.00002-1-1.00002h-3.3535c-.3265-1.154252-1.38772-2-2.6465-2s-2.32002.845748-2.64648 2h-3.35352c-.55228 0-1 .44772-1 1s.44772 1 1 1z"/></g></svg>
