<svg xmlns="http://www.w3.org/2000/svg" width="16" height="16" fill="none" viewBox="0 0 16 16"><path fill="currentColor" fill-rule="evenodd" d="M5.0414 3H1.7499a.75.75 0 1 0 0 1.5h.5474l.7383 7.1983c.0366.3578.0685.6682.115.9236.0493.2709.1241.5373.2767.7903.2292.38.5657.6837.9671.8729.2672.126.5398.1733.8144.1947.2588.0202.5708.0202.9304.0202h3.7214c.3596 0 .6716 0 .9305-.0202.2745-.0214.5471-.0687.8143-.1947a2.2494 2.2494 0 0 0 .9671-.8729c.1526-.2529.2274-.5193.2768-.7903.0465-.2554.0783-.5657.115-.9235L13.7026 4.5h.5473a.75.75 0 0 0 0-1.5h-3.2915C10.7204 1.5811 9.4864.5 7.9999.5S5.2794 1.5811 5.0414 3Zm1.5439 0h2.8293c-.206-.5826-.7616-1-1.4147-1s-1.2087.4174-1.4146 1Zm5.6095 1.5H3.8052l.7198 7.0183c.0402.3925.0665.644.1013.8349.033.1817.0645.2495.0854.2842a.75.75 0 0 0 .3224.291c.0366.0172.1073.0416.2914.056.1935.0151.4464.0156.8409.0156h3.667c.3946 0 .6475-.0005.8409-.0156.1842-.0144.2548-.0388.2914-.056a.75.75 0 0 0 .3224-.291c.0209-.0347.0523-.1025.0854-.2842.0348-.1909.0611-.4424.1014-.8348L12.1948 4.5ZM6.2125 5.501a.75.75 0 0 1 .7865.7115l.25 5a.75.75 0 0 1-1.4982.075l-.25-5a.75.75 0 0 1 .7117-.7866Zm3.5749 0a.75.75 0 0 1 .7116.7864l-.25 5.0001a.75.75 0 0 1-1.4982-.075l.25-5a.75.75 0 0 1 .7866-.7116Z" clip-rule="evenodd"/></svg>
