<svg xmlns="http://www.w3.org/2000/svg" width="16" height="16" fill="currentColor" viewBox="0 0 16 16"><path fill-rule="evenodd" d="M5.425 2.085a.75.75 0 0 1 .338-.081h4.474a.75.75 0 0 1 .375.1l2.024 1.167a.75.75 0 0 1 .245.227l1.989 2.917a.75.75 0 0 1-.083.945l-6.25 6.417a.75.75 0 0 1-1.074 0L1.213 7.36a.75.75 0 0 1-.11-.901l1.704-2.917a.75.75 0 0 1 .31-.29l2.308-1.167Zm.517 1.419-.56.283 1.606.55h2.013l1.506-.562-.47-.271H5.942Zm6.031 1.325-1.627.607.576 1.576 2.124-.61-1.073-1.573Zm-.231 3.508-.909.261-.524 1.21 1.433-1.47ZM8 11.367l1.131-2.614H6.87L8 11.366ZM6.587 7.252h2.826l-.517-1.416H7.104l-.517 1.416Zm-.943-1.79-.566 1.55-2.194-.63.908-1.554 1.852.634ZM4.258 8.337l.91.261.523 1.21-1.433-1.47Z" clip-rule="evenodd"/></svg>