<svg xmlns="http://www.w3.org/2000/svg" width="16" height="16" fill="currentColor" viewBox="0 0 16 16"><path d="m10.818 7.044-2.514 6.641a.314.314 0 0 1-.587 0L5.203 7.044h5.615Zm3.778 0c.27 0 .415.313.239.515-1.143 1.309-4.17 4.775-5.645 6.441l2.634-6.956h2.772Zm-10.399 0 2.608 6.888A1738.435 1738.435 0 0 1 1.19 7.56a.311.311 0 0 1 .237-.516h2.77ZM11.365 2c.367 0 .716.16.954.438.652.76 1.947 2.345 2.61 3.16a.312.312 0 0 1-.243.508h-2.877L10.144 2h1.221ZM5.878 2 4.213 6.106H1.314a.312.312 0 0 1-.246-.505c.644-.812 1.901-2.39 2.537-3.15.238-.286.591-.451.964-.451h1.31ZM9.13 2l1.664 4.106H5.227L6.893 2H9.13Z"/></svg>