<svg xmlns="http://www.w3.org/2000/svg" width="16" height="16" fill="currentColor" viewBox="0 0 16 16"><path fill-rule="evenodd" d="M8.048 1h-.6c-.757 0-1.37 0-1.868.04-.514.043-.97.132-1.392.348A3.552 3.552 0 0 0 2.637 2.94c-.216.423-.304.88-.346 1.393-.041.498-.041 1.113-.041 1.871v3.59c0 .758 0 1.373.04 1.87.043.515.131.97.347 1.394.34.668.883 1.212 1.55 1.553.424.216.88.305 1.393.347C6.077 15 6.69 15 7.448 15h1.104c.757 0 1.37 0 1.868-.04.514-.043.97-.132 1.392-.348a3.553 3.553 0 0 0 1.551-1.553c.216-.423.304-.88.346-1.393.041-.498.041-1.113.041-1.871V6.3a.75.75 0 0 0-.243-.552l-4.952-4.55A.75.75 0 0 0 8.048 1ZM4.87 2.724c.176-.09.412-.154.832-.188.43-.035.982-.036 1.778-.036h.27v1.35c0 .409 0 .761.024 1.051.026.306.083.61.238.902.21.398.537.724.935.935.291.155.596.212.902.238C10.139 7 10.49 7 10.9 7h1.35v2.763c0 .797 0 1.35-.036 1.78-.034.422-.098.659-.188.836-.196.386-.51.7-.896.897-.176.09-.412.154-.832.188-.43.035-.982.036-1.778.036H7.48c-.796 0-1.349 0-1.778-.036-.42-.034-.656-.098-.832-.188a2.053 2.053 0 0 1-.896-.897c-.09-.177-.154-.414-.188-.835-.035-.43-.036-.984-.036-1.781V6.237c0-.798 0-1.35.036-1.78.034-.422.098-.659.188-.836.196-.386.51-.7.896-.897ZM11.02 5.5 9.25 3.873c0 .417.001.691.02.902.017.21.047.288.067.326a.75.75 0 0 0 .312.312c.038.02.116.05.326.068.22.018.508.019.955.019h.09Z" clip-rule="evenodd"/></svg>
