<svg xmlns="http://www.w3.org/2000/svg" width="16" height="16" fill="none" viewBox="0 0 16 16"><path fill="currentColor" fill-rule="evenodd" d="M8.0001 1a.75.75 0 0 1 .75.75v.7877c1.9364.1982 3.269 1.151 3.6929 2.1756a.75.75 0 0 1-.4063.9797.75.75 0 0 1-.9797-.4063c-.143-.3457-.8483-1.0535-2.3069-1.2405V7.339c1.414.216 2.348.616 2.9395 1.17.7221.6766.8104 1.4628.8104 1.9909 0 .9721-.6254 1.7415-1.4258 2.2299-.6343.3871-1.4353.6408-2.324.7322v.7879a.75.75 0 0 1-1.5 0v-.7876c-1.9366-.1982-3.2693-1.151-3.6932-2.1757a.75.75 0 0 1 .4063-.9797.75.75 0 0 1 .9797.4063c.143.3457.8484 1.0536 2.3071 1.2406V8.661C5.836 8.445 4.902 8.045 4.3104 7.4908 3.5884 6.8143 3.5 6.0281 3.5 5.5c0-.9721.6254-1.7415 1.4258-2.2299.6343-.387 1.4355-.6409 2.3243-.7322V1.75a.75.75 0 0 1 .75-.75Zm-.75 3.048c-.6322.0831-1.1587.268-1.543.5025C5.1716 4.8773 5 5.233 5 5.5c0 .3429.051.6292.336.8962.2667.2499.8103.55 1.9141.7448V4.048Zm1.5 4.811v3.0931c.6322-.0832 1.1586-.2682 1.5428-.5026.5355-.3268.7071-.6825.7071-.9495 0-.3428-.051-.6291-.336-.8962-.2667-.2498-.8102-.55-1.9139-.7447Z" clip-rule="evenodd"/></svg>
