<svg xmlns="http://www.w3.org/2000/svg" width="16" height="16" viewBox="0 0 16 16" fill="currentColor"><path d="M6.737 3.24c.797-.446 1.778-.201 2.591.284.844.502 1.677 1.35 2.329 2.442.652 1.094.994 2.222 1.023 3.185.028.928-.242 1.88-1.041 2.328a.645.645 0 0 1-.862-.233.603.603 0 0 1 .223-.839c.205-.114.442-.48.42-1.238-.022-.723-.287-1.65-.85-2.596-.564-.945-1.257-1.626-1.887-2.002-.577-.343-.987-.374-1.219-.298l-.205.087a.65.65 0 0 1-.747-.282.603.603 0 0 1 .225-.839"/><path fill-rule="evenodd" d="M5.693 1.492C6.969.78 8.479.884 9.85 1.53c1.37.645 2.656 1.844 3.61 3.443.954 1.6 1.384 3.28 1.276 4.75-.1 1.347-.662 2.563-1.732 3.307l.001.002-.014.008a4 4 0 0 1-.301.19q-.156.086-.318.156l-2.018 1.129c-1.232.688-2.769.606-4.172 0-1.413-.61-2.766-1.773-3.729-3.388-.961-1.613-1.326-3.329-1.165-4.818.16-1.48.855-2.81 2.087-3.5l1.404-.783.596-.334.01-.006a4 4 0 0 1 .307-.193m-.134 10.952c.397.304.809.544 1.217.72.87.376 1.683.443 2.333.26a6 6 0 0 1-.574-.233 7.5 7.5 0 0 1-1.936-1.34zm3.653-9.586c-1.044-.49-2.012-.495-2.753-.08-.739.413-1.219 1.225-1.301 2.347-.083 1.124.243 2.506 1.069 3.89.826 1.387 1.9 2.353 2.946 2.845 1.045.492 2.011.496 2.751.083.742-.414 1.221-1.227 1.304-2.35s-.245-2.505-1.071-3.892c-.826-1.384-1.898-2.35-2.945-2.843M3.236 9.345q.21.526.522 1.052.315.525.68.964l1.14-.65a10.3 10.3 0 0 1-1.2-2.019zm.489-4.946c-.488.454-.833 1.17-.932 2.086a5.4 5.4 0 0 0 .034 1.37l1.044-.597a7 7 0 0 1-.222-2.26q.022-.305.076-.599" clip-rule="evenodd"/></svg>