<svg xmlns="http://www.w3.org/2000/svg" width="16" height="16" fill="currentColor" viewBox="0 0 16 16"><path fill-rule="evenodd" d="M13.75 9a.75.75 0 0 1 .75.75v.75s0 .505-.037.953c-.037.463-.118.882-.317 1.273a3.25 3.25 0 0 1-1.42 1.42c-.391.199-.81.28-1.273.317-.447.037-.953.037-.953.037h-.75a.75.75 0 0 1 0-1.5h.719s.483 0 .862-.032c.37-.03.57-.085.713-.159a1.75 1.75 0 0 0 .765-.764c.074-.145.13-.344.16-.714.03-.38.031-.862.031-.862V9.75a.75.75 0 0 1 .75-.75ZM9 2.25a.75.75 0 0 1 .75-.75h.75s.505 0 .953.037c.463.037.882.118 1.272.317a3.25 3.25 0 0 1 1.42 1.42c.2.391.28.81.318 1.273.037.448.037.953.037.953v.75a.75.75 0 0 1-1.5 0v-.719s0-.483-.032-.862c-.03-.37-.085-.57-.159-.713a1.75 1.75 0 0 0-.765-.765c-.144-.074-.343-.13-.713-.16A13.53 13.53 0 0 0 10.469 3H9.75A.75.75 0 0 1 9 2.25Zm-2 11.5a.75.75 0 0 1-.75.75H5.5s-.505 0-.953-.037c-.463-.037-.882-.118-1.272-.317a3.25 3.25 0 0 1-1.42-1.42c-.2-.391-.28-.81-.318-1.273C1.5 11.006 1.5 10.5 1.5 10.5v-.75a.75.75 0 0 1 1.5 0v.719s0 .483.032.862c.03.37.086.57.159.713.168.33.435.598.765.765.144.074.343.13.713.16.38.03.862.031.862.031h.719a.75.75 0 0 1 .75.75ZM2.25 7a.75.75 0 0 1-.75-.75V5.5s0-.505.037-.953c.037-.463.118-.882.317-1.272a3.25 3.25 0 0 1 1.42-1.42c.391-.2.81-.28 1.273-.318C4.995 1.5 5.5 1.5 5.5 1.5h.75a.75.75 0 0 1 0 1.5h-.719s-.483 0-.862.032c-.37.03-.57.085-.713.159a1.75 1.75 0 0 0-.765.765c-.074.144-.13.343-.16.713-.03.38-.031.862-.031.862v.719a.75.75 0 0 1-.75.75Z M8 11a3 3 0 1 0 0-6 3 3 0 0 0 0 6Z"/></svg>
