<svg xmlns="http://www.w3.org/2000/svg" width="16" height="16" fill="currentColor" viewBox="0 0 16 16"><path d="M6.828 2.114a6.032 6.032 0 0 1 2.344 0 .5.5 0 0 0 .194-.98 7.031 7.031 0 0 0-2.732 0 .5.5 0 1 0 .194.98Zm5.062.066a.5.5 0 0 0-.557.83 6.035 6.035 0 0 1 1.657 1.657.5.5 0 1 0 .83-.557 7.037 7.037 0 0 0-1.93-1.93Zm-7.223.83a.5.5 0 1 0-.557-.83 7.035 7.035 0 0 0-1.93 1.93.5.5 0 0 0 .83.557A6.035 6.035 0 0 1 4.667 3.01ZM2.114 6.828a.5.5 0 0 0-.98-.194 7.031 7.031 0 0 0 0 2.732.5.5 0 1 0 .98-.194 6.032 6.032 0 0 1 0-2.344Zm12.753-.194a.5.5 0 0 0-.981.194 6.03 6.03 0 0 1 0 2.344.5.5 0 0 0 .98.194 7.036 7.036 0 0 0 0-2.732ZM13.82 11.89a.5.5 0 0 0-.83-.557 6.034 6.034 0 0 1-1.657 1.657.5.5 0 0 0 .557.83 7.04 7.04 0 0 0 1.93-1.93Zm-10.81-.557a.5.5 0 0 0-.83.557 7.037 7.037 0 0 0 1.93 1.93.5.5 0 0 0 .557-.83 6.035 6.035 0 0 1-1.657-1.657Zm3.818 2.553a.5.5 0 0 0-.194.98 7.036 7.036 0 0 0 2.732 0 .5.5 0 0 0-.194-.98 6.03 6.03 0 0 1-2.344 0ZM7.999 4.5a.75.75 0 0 0-.75.75v3.689L6.53 8.22a.75.75 0 0 0-1.06 1.06l1.98 1.981a.748.748 0 0 0 1.098 0l1.98-1.98a.75.75 0 1 0-1.06-1.061l-.72.719v-3.69a.75.75 0 0 0-.75-.75Z"/></svg>
