<svg xmlns="http://www.w3.org/2000/svg" width="16" height="16" fill="currentColor" viewBox="0 0 16 16"><path fill-rule="evenodd" d="m2.794 5.753 5.21-2.718 5.207 2.718L8.005 8.47 2.794 5.753Zm5.79-4.108a1.25 1.25 0 0 0-1.157 0l-5.752 3a1.25 1.25 0 0 0 0 2.216l1.542.804V9.75a4.75 4.75 0 1 0 9.5 0V7.703l.782-.408v2.955a.75.75 0 0 0 1.5 0V5.834a1.239 1.239 0 0 0-.67-1.19L8.584 1.646ZM4.716 9.75V8.448l2.71 1.413a1.25 1.25 0 0 0 1.156 0l2.634-1.375V9.75a3.25 3.25 0 0 1-6.5 0Z" clip-rule="evenodd"/></svg>
