<svg width="16" height="16" viewBox="0 0 16 16" fill="none" xmlns="http://www.w3.org/2000/svg">
<path d="M2 4.84115V12.1588C2 13.1732 2.81603 14 3.82266 14H11.1773C12.1902 14 13 13.1757 13 12.1588V4.84115C13 3.82679 12.184 3 11.1773 3H3.82266C2.80978 3 2 3.82431 2 4.84115ZM11.0558 2C12.6839 2 14 3.33065 14 4.96211V12.0379C14 13.6727 12.6891 15 11.0558 15H3.94422C2.31606 15 1 13.6694 1 12.0379V4.96211C1 3.32734 2.31089 2 3.94422 2H11.0558ZM6 11H9V10L6.999 9.999V9H9V8H6.999V6.999L9 7V6H6V11Z" fill="currentColor"/>
</svg>
