<svg xmlns="http://www.w3.org/2000/svg" width="16" height="16" fill="none" viewBox="0 0 16 16"><path fill="currentColor" fill-rule="evenodd" d="M3.25 2a.75.75 0 0 0-.75.75v11.5a.75.75 0 0 0 1.5 0V9.7354c.3238.1525.6647.2534 1.009.2631.877.0243 1.6946-.2521 2.5079-.5559.1859-.0686.3709-.1399.5558-.2111.695-.2677 1.3891-.535 2.1277-.6622.8138-.1651 1.6571-.1801 2.3804.244.0825.0513.1673.1059.2583.1647a.1041.1041 0 0 0 .1607-.0873L13 3.2595c0-.3067-.1235-.6077-.3846-.7684-.4063-.25-.9204-.4345-1.3857-.476-.7553-.0683-1.4773.1034-2.1862.3464-.3215.1109-.6418.226-.962.341-.623.2238-1.2456.4476-1.8765.6402A3.2617 3.2617 0 0 1 4 3.2927V2.75A.75.75 0 0 0 3.25 2Z" clip-rule="evenodd"/></svg>
