<svg fill="none" height="16" viewBox="0 0 16 16" width="16" xmlns="http://www.w3.org/2000/svg"><path d="m6.51597 12.7439c-.34178 1.3765.17137 1.6616 1.08936.6567l3.85607-4.43078c.8921-1.08896.6687-1.96388-.6161-2.1826l-1.85919-.34431c-.10861-.02011-.18035-.12447-.16023-.23308.00066-.00358.00142-.00714.00228-.01069l.71545-2.95194c.34274-1.38525-.22851-1.63612-1.08539-.65445-1.23121 1.38822-2.16684 2.43691-2.80691 3.14607-.22316.24725-.58237.63317-1.07762 1.15776-1.08539 1.20444-.51414 2.07793.7413 2.29666l1.77679.31851c.10872.01949.18106.12343.16157.23215-.00075.00418-.00163.00834-.00265.01247z" fill="currentColor"/></svg>
