<svg xmlns="http://www.w3.org/2000/svg" width="16" height="16" fill="currentColor" viewBox="0 0 16 16"><path fill-rule="evenodd" d="M14.948 5.187c.165-.075.354.07.29.238A4.001 4.001 0 1 1 10.075.26c.168-.064.312.126.238.29a3.5 3.5 0 0 0 4.636 4.636Zm-14.31.195a.75.75 0 0 1 1.046-.177c.103.073.196.142.284.207.48.356.79.588 1.531.588h.002c.74 0 1.052-.232 1.53-.588.088-.065.182-.134.284-.207a.75.75 0 1 1 .869 1.223c-.07.05-.143.104-.22.162-.509.386-1.2.91-2.464.91h-.002c-1.262 0-1.954-.524-2.463-.91-.077-.058-.15-.113-.22-.162A.75.75 0 0 1 .64 5.382ZM3.5 11.5a3.56 3.56 0 0 0 1.496-.3c.389-.175.695-.405.936-.586l.018-.014c.257-.193.445-.33.67-.432.212-.095.482-.168.88-.168.399 0 .669.073.88.168.226.102.414.24.67.432l.02.014c.24.18.546.41.935.586.414.186.894.3 1.495.3 1.264 0 1.956-.524 2.465-.91.077-.058.15-.113.22-.163a.75.75 0 1 0-.868-1.223c-.103.073-.197.143-.285.208-.48.357-.791.588-1.532.588-.398 0-.668-.073-.88-.168-.225-.102-.413-.24-.67-.432l-.018-.014c-.24-.18-.547-.41-.936-.586A3.556 3.556 0 0 0 7.5 8.5a3.56 3.56 0 0 0-1.495.3c-.389.175-.695.406-.936.586L5.05 9.4c-.256.193-.444.33-.67.432-.211.095-.481.168-.88.168-.74 0-1.052-.232-1.531-.588-.088-.065-.181-.134-.284-.207a.75.75 0 1 0-.868 1.223c.07.05.142.104.219.162.51.386 1.201.91 2.464.91Zm1.496 3.7a3.56 3.56 0 0 1-1.496.3c-1.263 0-1.955-.524-2.464-.91-.077-.058-.15-.113-.22-.162a.75.75 0 0 1 .87-1.223c.102.073.195.142.283.207.48.356.79.588 1.531.588.399 0 .669-.073.88-.168.226-.102.414-.24.67-.432l.02-.014c.24-.18.546-.41.935-.585.414-.187.894-.301 1.495-.301a3.56 3.56 0 0 1 1.496.3c.389.175.695.406.936.586l.018.014c.257.193.445.33.67.432.212.095.482.168.88.168.741 0 1.053-.232 1.532-.588.088-.065.182-.135.285-.208a.75.75 0 0 1 .868 1.223c-.07.05-.143.105-.22.163-.51.386-1.201.91-2.465.91a3.556 3.556 0 0 1-1.495-.3c-.389-.175-.695-.405-.936-.586L9.05 14.6c-.256-.193-.444-.33-.67-.432-.211-.095-.481-.168-.88-.168-.398 0-.668.073-.88.168-.225.102-.413.24-.67.432l-.018.014c-.24.18-.547.41-.936.586Z" clip-rule="evenodd"/></svg>
