<svg xmlns="http://www.w3.org/2000/svg" width="16" height="16" fill="currentColor" viewBox="0 0 16 16"><path fill-rule="evenodd" d="M5.495 5.2c-.413.186-.893.3-1.495.3-1.263 0-1.955-.524-2.465-.91a9.152 9.152 0 0 0-.219-.162.75.75 0 0 1 .869-1.223c.102.073.196.142.283.207C2.948 3.768 3.26 4 4 4c.398 0 .668-.073.88-.168.226-.102.413-.24.67-.432l.019-.014c.24-.18.547-.41.936-.586.413-.186.893-.3 1.495-.3.602 0 1.082.114 1.495.3.39.175.696.406.936.586l.019.014c.257.193.444.33.67.432.212.095.482.168.88.168.74 0 1.052-.232 1.531-.588.088-.065.182-.135.286-.208a.75.75 0 0 1 .868 1.223c-.07.05-.143.105-.22.163-.51.386-1.202.91-2.465.91a3.557 3.557 0 0 1-1.495-.3c-.39-.175-.696-.406-.936-.586L9.55 4.6c-.257-.193-.444-.33-.67-.432C8.668 4.073 8.398 4 8 4s-.668.073-.88.168c-.226.102-.413.24-.67.432l-.019.014c-.24.18-.547.41-.936.586Zm0 4c-.413.186-.893.3-1.495.3-1.263 0-1.955-.524-2.465-.91a9.152 9.152 0 0 0-.219-.162.75.75 0 0 1 .869-1.223c.102.073.196.142.283.207C2.948 7.768 3.26 8 4 8c.398 0 .668-.073.88-.168.226-.102.413-.24.67-.432l.019-.014c.24-.18.547-.41.936-.586.413-.186.893-.3 1.495-.3.602 0 1.082.114 1.495.3.39.175.696.406.936.586l.019.014c.257.193.444.33.67.432.212.095.482.168.88.168.74 0 1.052-.232 1.531-.588.088-.065.182-.135.286-.208a.75.75 0 0 1 .868 1.223c-.07.05-.143.105-.22.163-.51.386-1.202.91-2.465.91a3.557 3.557 0 0 1-1.495-.3c-.39-.175-.696-.406-.936-.586L9.55 8.6c-.257-.193-.444-.33-.67-.432C8.668 8.073 8.398 8 8 8s-.668.073-.88.168c-.226.102-.413.24-.67.432l-.019.014c-.24.18-.547.41-.936.586ZM4 13.5c.602 0 1.082-.114 1.495-.3.39-.175.696-.405.936-.586l.019-.014c.257-.193.444-.33.67-.432.212-.095.482-.168.88-.168s.668.073.88.168c.226.102.413.24.67.432l.019.014c.24.18.547.41.936.586.413.186.893.3 1.495.3 1.263 0 1.955-.524 2.465-.91.077-.058.15-.113.22-.163a.75.75 0 0 0-.868-1.223 15.91 15.91 0 0 0-.286.208c-.479.356-.79.588-1.531.588-.399 0-.668-.073-.88-.168-.226-.102-.413-.24-.67-.432l-.019-.014c-.24-.18-.547-.41-.936-.586A3.557 3.557 0 0 0 8 10.5c-.602 0-1.082.114-1.495.3-.39.175-.696.405-.936.586l-.019.014c-.257.193-.444.33-.67.432-.212.095-.482.168-.88.168-.74 0-1.052-.232-1.532-.588-.087-.065-.18-.134-.283-.207a.75.75 0 1 0-.869 1.223c.07.05.143.104.22.162.509.386 1.2.91 2.464.91Z" clip-rule="evenodd"/></svg>
