<svg fill="none" height="16" viewBox="0 0 16 16" width="16" xmlns="http://www.w3.org/2000/svg"><g fill="currentColor"><path d="m8 2.75c-2.89949 0-5.25 2.3505-5.25 5.25s2.3505 5.25 5.25 5.25c2.656 0 4.8525-1.973 5.2016-4.53313.0559-.41042.434-.69776.8444-.6418s.6978.43403.6418.84445c-.449 3.29318-3.2715 5.83048-6.6878 5.83048-3.72792 0-6.75-3.0221-6.75-6.75 0-3.72792 3.02208-6.75 6.75-6.75v-1.005047c0-.045281.01255-.089675.03626-.128251.07084-.11523701.22167-.1512347.33691-.0804033l3.01013 1.8502013c.0327.02013.0603.04767.0804.08041.0708.11523.0348.26607-.0804.3369l-3.01013 1.85021c-.03858.02371-.08297.03626-.12825.03626-.13527 0-.24492-.10965-.24492-.24492z"/><path clip-rule="evenodd" d="m11.75 7.8991c.0027-1.99209-.9266-2.6491-2.06962-2.6491-1.14301 0-2.0676.65701-2.06961 2.6491-.002 1.99209.9266 2.6491 2.06961 2.6491 1.14302 0 2.06682-.65701 2.06962-2.6491zm-2.95659.04962c0-1.15803.31769-1.54129.88933-1.54129.57166 0 .88936.38276.88936 1.54129s-.3126 1.5413-.88936 1.5413c-.57677 0-.88933-.38326-.88933-1.5413z" fill-rule="evenodd"/><path d="m5.4636 10.2471c0 .1876.15214.3398.33981.3398h.57771c.18767 0 .33981-.1522.33981-.3398v-4.62607c0-.24325-.24813-.40772-.47218-.31296l-1.79131.75762c-.12574.05318-.20744.17644-.20744.31297v.47235c0 .1916.1929.32308.37124.25303l.84236-.33089z"/></g></svg>
