<svg xmlns="http://www.w3.org/2000/svg" width="16" height="16" fill="currentColor" viewBox="0 0 16 16"><path fill-rule="evenodd" d="M8 1a6.5 6.5 0 0 0-6.5 6.5v4.881c0 .407.095.809.277 1.172a1.498 1.498 0 0 0 2.11.615l.35-.21a1.406 1.406 0 0 1 1.504.036l.857.571.03.02a2.5 2.5 0 0 0 2.745 0l.03-.02.856-.571a1.406 1.406 0 0 1 1.504-.036l.35.21c.748.449 1.72.166 2.11-.615a2.62 2.62 0 0 0 .277-1.172V7.5A6.5 6.5 0 0 0 8 1Zm-1.091 9.121a.75.75 0 0 0-.818 1.258c.601.39 1.243.618 1.916.619.675 0 1.315-.225 1.911-.625a.75.75 0 1 0-.836-1.246c-.397.267-.75.371-1.072.37-.325 0-.687-.107-1.101-.376ZM5.5 8.5a1 1 0 1 0 0-2 1 1 0 0 0 0 2Zm6-1a1 1 0 1 1-2 0 1 1 0 0 1 2 0Z" clip-rule="evenodd"/></svg>
