<svg fill="none" height="16" viewBox="0 0 16 16" width="16" xmlns="http://www.w3.org/2000/svg"><path d="m7.5 9.43835v4.00005h-2.07709c-.66864 0-.9111-.0697-1.15554-.2004-.24445-.1307-.43629-.3226-.56702-.567-.13073-.2445-.20035-.4869-.20035-1.1556v-2.07705zm5 0v2.07705c0 .6687-.0696.9111-.2003 1.1556-.1308.2444-.3226.4363-.5671.567-.2222.1188-.4428.1872-.9834.1986l-.1721.0018h-2.0771v-4.00005zm-5-4v3h-4.03854c-.33432 0-.45555-.03481-.57778-.10017-.12222-.06537-.21814-.16129-.28351-.28351-.06536-.12222-.10017-.24346-.10017-.57778v-.61523c0-.34226.05802-.58013.16696-.78384.10894-.2037.26881-.36357.47251-.47251.20371-.10894.44158-.16696.78384-.16696zm4.5767 0c.3422 0 .5801.05802.7838.16696s.3636.26881.4725.47251c.0908.16976.1462.36324.1622.62109l.0048.16275v.61523c0 .33432-.0348.45556-.1002.57778-.0653.12222-.1613.21814-.2835.28351-.1047.05602-.2088.0896-.4469.09805l-.1309.00212h-4.0385v-3zm-4.07537-.36818.00077-.11908c.12228-3.29042 2.4479-4.062739 3.4979-3.01274 1.1 1.1.2 3.6-3.5 3.5-3.7.1-4.6-2.4-3.5-3.5 1.06255-1.062551 3.43141-.25896 3.50133 3.13182z" fill="currentColor"/></svg>
