<svg fill="none" height="16" viewBox="0 0 16 16" width="16" xmlns="http://www.w3.org/2000/svg"><g fill="currentColor"><path clip-rule="evenodd" d="m5.53631 5.49822c-.10699.8072-.16131 1.65074-.16131 2.49919s.05433 1.69198.16132 2.49919h4.92738c.107-.80721.1613-1.65074.1613-2.49919s-.0544-1.69199-.1613-2.49919z" fill-rule="evenodd"/><path clip-rule="evenodd" d="m15.6016 10.4966c.2585-.78629.3984-1.62642.3984-2.49919 0-.87278-.1399-1.7129-.3984-2.49919h-3.6259c.1.81931.1493 1.66136.1493 2.49919s-.0493 1.67988-.1493 2.49919zm-.6719 1.4995h-3.2003c-.1305.623-.2939 1.2208-.4907 1.7797-.235.6674-.5267 1.3038-.8827 1.8666 1.9448-.5983 3.5735-1.9178 4.5737-3.6463zm-9.28562 3.6463c-.35601-.5628-.64774-1.1992-.88275-1.8666-.19682-.5589-.36018-1.1567-.49076-1.7797h-3.20031c1.0002 1.7285 2.62896 3.048 4.57382 3.6463zm-5.245701-5.1458c-.258526-.78629-.398379-1.62642-.398379-2.49919 0-.87278.139853-1.7129.398378-2.49919h3.625862c-.09993.81931-.14924 1.66136-.14924 2.49919s.04932 1.67988.14926 2.49919zm.671881-6.4979h3.20029c.13058-.623.29394-1.22081.49074-1.77971.23501-.66738.52673-1.303777.88275-1.866556-1.94485.598254-3.57359 1.917786-4.57378 3.646266zm9.28564-3.646275c.356.562782.6478 1.199175.8828 1.866575.1968.5589.3601 1.1567.4907 1.7797h3.2003c-1.0002-1.72849-2.6289-3.048025-4.5738-3.646275zm-4.81959 5.145795c-.10699.8072-.16131 1.65074-.16131 2.49919s.05433 1.69198.16132 2.49919h4.92738c.107-.80721.1613-1.65074.1613-2.49919s-.0544-1.69199-.1613-2.49919z" fill-rule="evenodd"/><path d="m10.1934 3.9987c-.1047-.45-.22798-.87955-.36962-1.2818 0 0-.82378-2.7169-1.82378-2.7169s-1.82381 2.7169-1.82381 2.7169c-.14165.40225-.26496.8318-.36959 1.2818z"/><path d="m5.80662 11.9961h4.38678c-.1046.45-.22796.8796-.36961 1.2818 0 0-.82379 2.7221-1.82379 2.7221s-1.82378-2.7221-1.82378-2.7221c-.14165-.4022-.26497-.8318-.3696-1.2818z"/></g>
</svg>