<svg xmlns="http://www.w3.org/2000/svg" width="16" height="16" fill="currentColor" viewBox="0 0 16 16"><path fill-rule="evenodd" d="M6.468 2.714a5.513 5.513 0 0 0-3.1 2.317H5.46c.242-.819.583-1.596 1.007-2.317ZM5.135 6.531H2.697a5.506 5.506 0 0 0 0 2.936h2.438a10.513 10.513 0 0 1 0-2.936Zm1.517 2.936a8.997 8.997 0 0 1 0-2.936h2.696a8.995 8.995 0 0 1 0 2.936H6.652Zm-1.191 1.5H3.367a5.513 5.513 0 0 0 3.102 2.317 10.375 10.375 0 0 1-1.008-2.317Zm4.07 2.317a5.513 5.513 0 0 0 3.101-2.317H10.54a10.374 10.374 0 0 1-1.009 2.317Zm-.568-2.317H7.037c.243.69.568 1.34.963 1.94.395-.6.72-1.25.963-1.94Zm1.903-1.5h2.437a5.51 5.51 0 0 0 0-2.936h-2.438a10.518 10.518 0 0 1 0 2.936Zm-.327-4.436h2.093a5.513 5.513 0 0 0-3.1-2.317c.424.721.765 1.498 1.007 2.317ZM8 3.09c-.395.6-.72 1.25-.963 1.94h1.926A8.891 8.891 0 0 0 8 3.09ZM7.921 1a7.13 7.13 0 0 1 .158 0 7.001 7.001 0 1 1-.158 0Z" clip-rule="evenodd"/></svg>
