<svg xmlns="http://www.w3.org/2000/svg" width="16" height="16" viewBox="0 0 16 16" fill="currentColor"><path d="M5.398 1c.557 0 .759.058.963.167s.363.269.472.472c.109.204.167.406.167.963v10.796c0 .557-.058.759-.167.963a1.14 1.14 0 0 1-.472.472c-.204.109-.406.167-.963.167H2.602c-.557 0-.759-.058-.963-.167a1.14 1.14 0 0 1-.472-.473c-.109-.203-.167-.405-.167-.962V2.602c0-.557.058-.759.167-.963s.269-.363.472-.472c.204-.109.406-.167.963-.167zm8 8c.557 0 .759.058.963.167q.306.166.472.472c.109.204.167.406.167.963v2.796c0 .557-.058.759-.167.963a1.14 1.14 0 0 1-.473.472c-.203.109-.405.167-.962.167h-2.796c-.557 0-.759-.058-.963-.167a1.14 1.14 0 0 1-.472-.473c-.109-.203-.167-.405-.167-.962v-2.796c0-.557.058-.759.167-.963q.166-.306.472-.472c.204-.109.406-.167.963-.167zm0-8c.557 0 .759.058.963.167s.363.269.472.472c.109.204.167.406.167.963v2.796c0 .557-.058.759-.167.963a1.14 1.14 0 0 1-.473.472c-.203.109-.405.167-.962.167h-2.796c-.557 0-.759-.058-.963-.167a1.14 1.14 0 0 1-.472-.472C9.058 6.157 9 5.955 9 5.398V2.602c0-.557.058-.759.167-.963q.166-.306.472-.472c.204-.109.406-.167.963-.167z"/></svg>