<svg xmlns="http://www.w3.org/2000/svg" width="16" height="16" fill="currentColor" viewBox="0 0 16 16"><path d="M5.398 9c.557 0 .759.058.963.167.203.109.363.269.472.472.109.204.167.406.167.963v2.796c0 .557-.058.759-.167.963a1.136 1.136 0 0 1-.472.472c-.204.109-.406.167-.963.167H2.602c-.557 0-.759-.058-.963-.167a1.136 1.136 0 0 1-.472-.473c-.109-.203-.167-.405-.167-.962v-2.796c0-.557.058-.759.167-.963.109-.203.269-.363.472-.472.204-.109.406-.167.963-.167h2.796Zm8 0c.557 0 .759.058.963.167.203.109.363.269.472.472.109.204.167.406.167.963v2.796c0 .557-.058.759-.167.963a1.135 1.135 0 0 1-.473.472c-.203.109-.405.167-.962.167h-2.796c-.557 0-.759-.058-.963-.167a1.136 1.136 0 0 1-.472-.473c-.109-.203-.167-.405-.167-.962v-2.796c0-.557.058-.759.167-.963.109-.203.269-.363.472-.472.204-.109.406-.167.963-.167h2.796Zm-8-8c.557 0 .759.058.963.167.203.109.363.269.472.472.109.204.167.406.167.963v2.796c0 .557-.058.759-.167.963a1.136 1.136 0 0 1-.472.472c-.204.109-.406.167-.963.167H2.602c-.557 0-.759-.058-.963-.167a1.136 1.136 0 0 1-.472-.472C1.058 6.157 1 5.955 1 5.398V2.602c0-.557.058-.759.167-.963.109-.203.269-.363.472-.472.204-.109.406-.167.963-.167h2.796Zm8.962.167c-.203-.109-.405-.167-.962-.167h-2.796c-.557 0-.759.058-.963.167a1.136 1.136 0 0 0-.472.472c-.109.204-.167.406-.167.963v2.796c0 .557.058.759.167.963.109.203.269.363.472.472.204.109.406.167.963.167h2.796c.557 0 .759-.058.963-.167.203-.109.363-.269.472-.472.109-.204.167-.406.167-.963V2.602c0-.557-.058-.759-.167-.963a1.136 1.136 0 0 0-.473-.472Z"/></svg>
