<svg xmlns="http://www.w3.org/2000/svg" width="16" height="16" fill="currentColor" viewBox="0 0 16 16"><path fill-rule="evenodd" d="M6.219 1.5H9.78c.674 0 1.224 0 1.672.037.463.037.882.118 1.273.317a3.25 3.25 0 0 1 1.42 1.42c.199.391.28.81.317 1.273.037.447.037.998.037 1.672V9.78c0 .674 0 1.224-.037 1.672-.037.463-.118.882-.317 1.273a3.25 3.25 0 0 1-1.42 1.42c-.391.199-.81.28-1.273.317-.447.037-.998.037-1.672.037H6.22c-.674 0-1.225 0-1.672-.037-.463-.037-.882-.118-1.272-.317a3.25 3.25 0 0 1-1.42-1.42c-.2-.391-.28-.81-.318-1.273-.037-.447-.037-.998-.037-1.672V6.22c0-.674 0-1.225.037-1.672.037-.463.118-.882.317-1.272a3.25 3.25 0 0 1 1.42-1.42c.391-.2.81-.28 1.273-.318.447-.037.998-.037 1.672-.037Zm-1.55 1.532c-.37.03-.57.085-.713.159a1.75 1.75 0 0 0-.765.765c-.074.144-.13.343-.16.713C3.002 5.05 3 5.538 3 6.25v1h4.25V3h-1c-.712 0-1.202 0-1.58.032ZM7.25 8.75H3v1c0 .712 0 1.202.032 1.58.03.371.085.57.159.714.168.33.435.598.765.765.144.074.343.13.713.16.38.03.869.031 1.581.031h1V8.75Zm1.5 0H13v1c0 .712 0 1.202-.032 1.58-.03.371-.085.57-.159.714a1.75 1.75 0 0 1-.764.765c-.145.074-.344.13-.714.16-.38.03-.869.031-1.581.031h-1V8.75ZM13 7.25H8.75V3h1c.712 0 1.202 0 1.58.032.371.03.57.085.714.159.33.168.598.435.765.765.074.144.13.343.16.713.03.38.031.869.031 1.581v1Z" clip-rule="evenodd"/></svg>
