<svg xmlns="http://www.w3.org/2000/svg" width="16" height="16" fill="currentColor" viewBox="0 0 16 16"><path fill-rule="evenodd" d="M6 7.5a.5.5 0 0 1-1 0v-2a.5.5 0 0 0-1 0v3.75C4 11.75 5.5 13 8 13c1.38 0 2.4-.43 3.5-1.75.378-.454.754-1.068 1.084-1.679l.03-.054a23.752 23.752 0 0 0 .835-1.724.615.615 0 0 0-.3-.8.633.633 0 0 0-.804.22l-.978 1.481a.21.21 0 0 1-.038.044c-.122.104-.329.024-.329-.154V4a.5.5 0 0 0-1 0v3.25a.5.5 0 0 1-.5.5.5.5 0 0 1-.5-.5V2.5a.5.5 0 0 0-1 0v4.75a.5.5 0 0 1-1 0V3.5a.5.5 0 0 0-1 0v4Zm.758-5.984a2 2 0 0 1 3.68.485L10.5 2a2 2 0 0 1 2 2v1.461a2.13 2.13 0 0 1 1.304.182 2.115 2.115 0 0 1 1.017 2.755c-.368.835-1.223 2.678-2.169 3.812-.644.773-1.335 1.37-2.146 1.761-.818.395-1.653.529-2.506.529-1.48 0-2.893-.37-3.947-1.328C2.976 12.193 2.5 10.806 2.5 9.25V5.5a2 2 0 0 1 2-2 2 2 0 0 1 2.258-1.984Z" clip-rule="evenodd"/></svg>
