<svg xmlns="http://www.w3.org/2000/svg" width="16" height="16" fill="currentColor" viewBox="0 0 16 16"><path fill-rule="evenodd" d="M2.932 5.041a.732.732 0 0 0-.944-.44.748.748 0 0 0-.444.952l2.258 6.291c.292.815 1.2 2.927 3.996 2.627a4.293 4.293 0 0 1-.16-.2c-.517-.687-.687-1.368-.687-2.109a3.18 3.18 0 0 1 3.18-3.178c.486 0 .926.112 1.32.304a2.977 2.977 0 0 1 1.32-.304c.263 0 .519.032.764.092l.912-2.565a.89.89 0 0 0-.455-1.105.892.892 0 0 0-1.206.483L11.9 8.118 9.454 1.305a.732.732 0 0 0-.944-.44.748.748 0 0 0-.444.953l1.436 4.001a.499.499 0 0 1-.296.636.488.488 0 0 1-.63-.294L6.72.986a.732.732 0 0 0-.945-.44.748.748 0 0 0-.444.953l1.858 5.175a.499.499 0 0 1-.296.635.488.488 0 0 1-.63-.294l-1.605-4.47a.732.732 0 0 0-.944-.441.748.748 0 0 0-.444.953l1.857 5.175a.499.499 0 0 1-.296.635.488.488 0 0 1-.63-.294L2.932 5.041Z" clip-rule="evenodd"/><path d="M12.82 10.5c.928 0 1.68.753 1.68 1.682 0 .938-.376 1.408-1.968 2.648l-.725.565a.5.5 0 0 1-.614 0l-.725-.565C8.876 13.59 8.5 13.12 8.5 12.182a1.68 1.68 0 0 1 1.68-1.682c.498 0 .94.234 1.32.688.38-.454.822-.688 1.32-.688Z"/></svg>
