<svg xmlns="http://www.w3.org/2000/svg" width="16" height="16" fill="currentColor" viewBox="0 0 16 16"><path fill-rule="evenodd" d="M6.468 3a.247.247 0 0 1 .257.253l-.085 3.03c-.02.105-.03.214-.03.325v.771a.75.75 0 0 0 1.5.02l.024-.89a.208.208 0 0 1 .39.1l-.006.88a.75.75 0 0 0 1.5.013l.003-.47a.232.232 0 0 1 .464-.012l.039.658a.75.75 0 0 0 1.497-.088l-.007-.119a.244.244 0 1 1 .489-.014l-.002 2.46v.026c.037 1.07-.29 1.987-.877 2.611-.577.613-1.47 1.012-2.722.938-1.483-.087-2.455-.629-3.051-1.127a4.042 4.042 0 0 1-.644-.672 2.704 2.704 0 0 1-.16-.236L3.512 7.883a.147.147 0 0 1 .262-.133l.911 1.537a.75.75 0 0 0 1.395-.362l.15-5.685A.247.247 0 0 1 6.468 3ZM6.41 1.5a1.747 1.747 0 0 1 1.813 1.794L8.18 4.906a1.703 1.703 0 0 1 1.388.538 1.73 1.73 0 0 1 1.968.425 1.744 1.744 0 0 1 2.468 1.588L14 9.905c.045 1.393-.38 2.717-1.284 3.677-.918.975-2.263 1.504-3.903 1.408-1.838-.108-3.109-.793-3.925-1.473a5.54 5.54 0 0 1-.883-.924 4.232 4.232 0 0 1-.29-.444l-.006-.01-.002-.005-.001-.002v-.002a.73.73 0 0 1-.023-.047l-1.55-3.608a1.645 1.645 0 0 1 .48-1.931 1.65 1.65 0 0 1 2.03-.03L4.73 3.2c.024-.92.76-1.664 1.68-1.699Z" clip-rule="evenodd"/></svg>
