<svg xmlns="http://www.w3.org/2000/svg" width="16" height="16" fill="none" viewBox="0 0 16 16"><path fill="currentColor" fill-rule="evenodd" d="M7.1593 1.5171a.75.75 0 0 1 .5736.8922L7.1697 5h2.965l.6324-2.9093a.75.75 0 0 1 1.4658.3186L11.6697 5H13.75a.75.75 0 0 1 0 1.5h-2.4064l-.6522 3H12.75a.75.75 0 0 1 0 1.5h-2.3847l-.6324 2.9093a.75.75 0 1 1-1.4658-.3186L8.8303 11h-2.965l-.6324 2.9093a.75.75 0 1 1-1.4658-.3186L4.3303 11H2.25a.75.75 0 0 1 0-1.5h2.4064l.6522-3H3.25a.75.75 0 1 1 0-1.5h2.3846l.6325-2.9093a.75.75 0 0 1 .8922-.5736ZM6.8436 6.5l-.6522 3h2.965l.6522-3h-2.965Z" clip-rule="evenodd"/></svg>
