<svg xmlns="http://www.w3.org/2000/svg" width="16" height="16" fill="none" viewBox="0 0 16 16"><path fill="currentColor" d="M7.9722 9.5983c.3761 0 .5827-.2107.6621-.5726.0689-.4537.2278-.686.9322-1.102C10.3133 7.4755 10.7 6.919 10.7 6.1035c0-1.2586-1.0117-2.1013-2.5159-2.1013-1.1388 0-1.9862.4591-2.3252 1.1722-.106.2052-.1589.4105-.1589.6428 0 .4105.2595.6752.678.6752.323 0 .5614-.1513.6938-.497.1695-.4807.519-.74 1.0381-.74.5827 0 .9852.3673.9852.8967 0 .497-.2065.767-.8898 1.183-.625.3727-.9481.794-.9481 1.4314v.0757c0 .443.2648.7562.715.7562Z M8 2.5C4.9624 2.5 2.5 4.9624 2.5 8s2.4624 5.5 5.5 5.5 5.5-2.4624 5.5-5.5S11.0376 2.5 8 2.5ZM1 8c0-3.866 3.134-7 7-7s7 3.134 7 7-3.134 7-7 7-7-3.134-7-7Z M8.9 11.1a.9.9 0 0 1-.9.9.9.9 0 0 1-.9-.9.9.9 0 0 1 .9-.9.9.9 0 0 1 .9.9Z"/></svg>
