<svg xmlns="http://www.w3.org/2000/svg" width="16" height="16" viewBox="0 0 16 16" fill="currentColor"><path fill-rule="evenodd" d="M2.22 2.22a.75.75 0 0 1 1.06 0l10.5 10.5a.75.75 0 1 1-1.06 1.06l-1.493-1.493A7.8 7.8 0 0 1 8 13C3.5 13 .5 9 .5 8c0-.6 1.081-2.276 2.916-3.523L2.22 3.28a.75.75 0 0 1 0-1.06m2.832 3.892a3.5 3.5 0 0 0 4.834 4.834z" clip-rule="evenodd"/><path d="M8 3c4.5 0 7.5 4 7.5 5 0 .466-.651 1.58-1.8 2.64l-2.226-2.227a3.5 3.5 0 0 0-3.888-3.887L6.264 3.204A7.6 7.6 0 0 1 8 3"/></svg>