<svg xmlns="http://www.w3.org/2000/svg" width="16" height="16" viewBox="0 0 16 16" fill="currentColor"><path d="M6.25 1.75a.75.75 0 0 0-1.5 0V3h-3a.75.75 0 0 0 0 1.5H6.5v.143c0 .908-.007 1.217-.084 1.492a2.3 2.3 0 0 1-.36.734c-.14.188-.328.353-.79.714L4.36 6.314a.75.75 0 1 0-1.22.872l.94 1.316-2.789 2.154a.75.75 0 0 0 .918 1.188l2.743-2.12.688.962a.75.75 0 1 0 1.22-.872l-.72-1.009c.493-.382.849-.677 1.12-1.042a3.8 3.8 0 0 0 .6-1.222C8 6.042 8 5.511 8 4.744V4.5h1.25a.75.75 0 0 0 0-1.5h-3z"/><path fill-rule="evenodd" d="M11.17 6.415a.75.75 0 0 0-1.34 0l-3.75 7.5a.75.75 0 1 0 1.34.67L8.465 12.5l.036.001h4.036l1.043 2.085a.75.75 0 1 0 1.342-.67zm-.67 2.012L11.787 11H9.214z" clip-rule="evenodd"/></svg>