<svg xmlns="http://www.w3.org/2000/svg" width="16" height="16" viewBox="0 0 16 16" fill="currentColor"><path fill-rule="evenodd" d="M7.488 1.57a2 2 0 0 1 1.025 0c.38.101.727.364 1.419.888l3.299 2.497c.465.352.697.529.865.751.148.197.26.42.327.657.076.268.075.56.075 1.144v3.99l-.004.556a3 3 0 0 1-.027.35l-.04.197a2.5 2.5 0 0 1-2.03 1.874l-.16.018c-.171.013-.393.014-.746.014l-.446-.004-.153-.007-.127-.015a2 2 0 0 1-1.624-1.499l-.032-.157a2 2 0 0 1-.023-.28l-.003-.445v-1.972a1.084 1.084 0 1 0-2.166 0v1.972l-.004.445a2 2 0 0 1-.021.28l-.032.157a2 2 0 0 1-1.624 1.5l-.127.014c-.138.01-.315.01-.599.01l-.557-.003a4 4 0 0 1-.191-.01l-.158-.018A2.5 2.5 0 0 1 1.573 12.6l-.04-.198a3 3 0 0 1-.028-.35l-.004-.556v-3.99c0-.437 0-.711.032-.934l.044-.21q.077-.268.223-.505l.105-.152c.125-.167.288-.307.557-.516l.308-.235 3.299-2.497c.605-.458.945-.717 1.276-.842zm.64 1.45a.5.5 0 0 0-.257 0c-.016.007-.063.03-.158.092-.165.108-.377.267-.74.541L3.676 6.151c-.245.186-.382.29-.482.374a1 1 0 0 0-.091.084.5.5 0 0 0-.082.164c-.002.01-.007.045-.011.123-.007.13-.008.304-.008.61v3.991c0 .53.005.619.013.668.069.425.403.76.828.828.05.008.137.013.668.013a16 16 0 0 0 .486-.007.5.5 0 0 0 .414-.414q.002-.013.004-.083c.003-.089.003-.206.003-.403v-1.972A2.584 2.584 0 0 1 8 7.543l.264.014a2.584 2.584 0 0 1 2.32 2.57v1.972c0 .197 0 .314.002.403.002.082.005.096.003.083.035.212.202.38.414.414-.013-.002.001.002.084.004.089.002.207.003.404.003.528 0 .617-.005.667-.013.425-.069.759-.403.828-.828.007-.05.012-.138.012-.668v-3.99c0-.307 0-.48-.006-.61a1 1 0 0 0-.012-.124.5.5 0 0 0-.082-.164 1 1 0 0 0-.091-.084c-.1-.084-.238-.189-.482-.374L9.027 3.653a15 15 0 0 0-.74-.54 1 1 0 0 0-.159-.093" clip-rule="evenodd"/></svg>