<svg xmlns="http://www.w3.org/2000/svg" width="16" height="16" viewBox="0 0 16 16" fill="currentColor"><path d="M7.618 2.05a1.5 1.5 0 0 1 .764 0c.284.075.543.27 1.06.658l3.6 2.704c.351.264.527.396.653.563.113.148.196.317.247.496.058.201.058.42.058.86V13c0 .231 0 .347-.025.442a.75.75 0 0 1-.533.531C13.347 14 13.232 14 13 14h-2.734a.766.766 0 0 1-.766-.766v-2.997a1.5 1.5 0 1 0-3 0v2.997a.766.766 0 0 1-.766.766L3 13.999c-.231 0-.347 0-.442-.025a.75.75 0 0 1-.533-.53C2 13.347 2 13.231 2 13V7.33c0-.44 0-.659.058-.86.05-.18.134-.348.247-.496.126-.167.302-.3.653-.563l3.6-2.704c.517-.388.776-.583 1.06-.657"/></svg>