<svg xmlns="http://www.w3.org/2000/svg" width="16" height="16" fill="none" viewBox="0 0 16 16"><path fill="currentColor" fill-rule="evenodd" d="M8.1816 3.024a.75.75 0 0 0-.3631 0c-.1024.0256-.2184.0921-.7655.4756l-3.009 2.109c-.5362.3758-.6756.4824-.7724.6041a1.25 1.25 0 0 0-.22.423C3.0072 6.7848 3 6.96 3 7.6149V11.35c0 .4324.0006.7116.018.9241.0166.2038.0449.2793.0638.3164a.75.75 0 0 0 .3277.3277c.0371.0189.1126.0472.3164.0638.2125.0174.4917.018.9241.018h6.7c.4324 0 .7116-.0006.9241-.018.2038-.0166.2793-.0449.3164-.0638a.7501.7501 0 0 0 .3278-.3277c.0189-.0371.0471-.1126.0638-.3164.0173-.2125.0179-.4917.0179-.9241V7.6149c0-.6548-.0072-.83-.0514-.9792a1.2498 1.2498 0 0 0-.2201-.423c-.0968-.1217-.2361-.2283-.7723-.6041L8.947 3.4996c-.5471-.3835-.663-.45-.7654-.4756Zm-.7263-1.4554a2.25 2.25 0 0 1 1.0894 0c.409.102.7679.3544 1.1767.6418l.0865.0608 3.0092 2.109.0746.0523c.4263.2983.7615.5329 1.011.8468.2196.2763.384.5922.4842.9306.1138.3845.1135.7936.1132 1.3138L14.5 7.615v3.764c0 .3954 0 .7364-.0229 1.0174-.0242.2965-.0777.5914-.2223.8752a2.2498 2.2498 0 0 1-.9833.9832c-.2838.1446-.5787.1981-.8752.2224-.2809.0229-.622.0229-1.0174.0229H4.6211c-.3954 0-.7364 0-1.0174-.0229-.2965-.0243-.5914-.0778-.8752-.2224a2.25 2.25 0 0 1-.9832-.9832c-.1446-.2838-.1981-.5787-.2224-.8752-.0229-.281-.0229-.622-.0229-1.0174V7.5238c-.0004-.5203-.0007-.9294.1132-1.314a2.75 2.75 0 0 1 .4841-.9305c.2496-.314.5847-.5485 1.011-.8468l.0747-.0522 3.0091-2.109.0866-.0609c.4088-.2874.7677-.5397 1.1766-.6418Z" clip-rule="evenodd"/><path fill="currentColor" fill-rule="evenodd" d="M10.8106 8.7517a.75.75 0 0 1-.0623 1.0588l-2.25 2a.75.75 0 0 1-.9965 0l-2.25-2a.75.75 0 0 1 .9965-1.121l1.0017.8904v-3.329a.75.75 0 0 1 1.5 0V9.58l1.0017-.8905a.75.75 0 0 1 1.0589.0623Z" clip-rule="evenodd"/></svg>
