<svg xmlns="http://www.w3.org/2000/svg" width="16" height="16" fill="currentColor" viewBox="0 0 16 16"><path fill-rule="evenodd" d="m2.54 7.996.003-.009c.259-1.259 1.367-2.8 3.34-2.8h.993C7.105 2.895 8.982 1 11.46 1c.76 0 1.443.144 2.06.448.61.302 1.075.72 1.45 1.15.116.134.257.32.364.553.107.234.221.607.139 1.053a1.61 1.61 0 0 1-.534.949v1.378c0 1.082-.876 1.892-1.882 1.917l.339 1.83a2.072 2.072 0 0 1 .191 3.921C11.848 14.883 9.874 15.2 7.7 15.2s-4.148-.318-5.886-1a2.072 2.072 0 0 1 .292-3.947l.435-2.257Zm8.639-1.45-.028-.154a.187.187 0 0 1-.003-.025c-.006-.113.04-.41.117-.439.07-.027.098-.007.174.05l.038.028.818.664c.062.061.118.109.168.146a.596.596 0 0 0 .315.127c.05.005.1.005.156.005h.076a.423.423 0 0 0 .428-.417V4.47c0-.101 0-.152.016-.189a.175.175 0 0 1 .064-.083c.032-.024.095-.04.22-.071.312-.08.346-.26.1-.543a4.08 4.08 0 0 0-.323-.333 2.901 2.901 0 0 0-.602-.428c-.394-.207-.86-.323-1.454-.323-1.768 0-3.106 1.441-3.106 3.157v.71c0 .111 0 .167-.022.21a.2.2 0 0 1-.087.087c-.043.022-.1.022-.211.022h-2.15c-1.06 0-1.71.824-1.871 1.603l-.633 3.285-.001.003a1.123 1.123 0 0 1-.04.17.173.173 0 0 1-.027.049l-.003.003a.204.204 0 0 1-.118.066c-.053.01-.11-.012-.223-.054a9.597 9.597 0 0 1-.187-.07l-.002-.002a.572.572 0 0 0-.417 1.063l.001.002a11.16 11.16 0 0 0 1.41.45 13.29 13.29 0 0 0 1.042.218c.898.152 1.86.228 2.886.228a17.135 17.135 0 0 0 3.173-.28 13.18 13.18 0 0 0 1.456-.366 11.307 11.307 0 0 0 .709-.25l.001-.001a.572.572 0 0 0-.417-1.064l-.002.001a8.409 8.409 0 0 1-.102.04c-.116.043-.173.065-.226.057a.205.205 0 0 1-.125-.074.259.259 0 0 1-.04-.1 2.322 2.322 0 0 1-.024-.122l-.924-4.996Zm-6.161 4.449a2.967 2.967 0 0 0-.218 1.097v.008c0 .04 0 .06.003.077a.2.2 0 0 0 .129.152c.017.007.036.01.073.016.832.141 1.73.212 2.695.212a16 16 0 0 0 2.838-.238.202.202 0 0 0 .14-.168c.002-.012.002-.025.002-.051a2.902 2.902 0 0 0-.014-.293 3.035 3.035 0 0 0-.186-.79C10.064 9.927 9.04 9.125 7.8 9.1c-1.26-.026-2.337.796-2.782 1.895Zm3.724.03a1.412 1.412 0 0 0-.973-.425 1.414 1.414 0 0 0-1.013.431 16.836 16.836 0 0 0 1.986-.005Z" clip-rule="evenodd"/></svg>
