<svg xmlns="http://www.w3.org/2000/svg" width="16" height="16" fill="currentColor" viewBox="0 0 16 16"><path fill-rule="evenodd" d="M10.224 1H5.71a2 2 0 0 0-1.96 1.96v.2a5 5 0 0 0 2.105 4.01c-.298.344-.611.708-.909 1.056a7.101 7.101 0 0 0-1.696 4.618c0 1.19.965 2.156 2.156 2.156h5.188c1.19 0 2.156-.965 2.156-2.156 0-1.69-.595-3.33-1.696-4.618-.298-.348-.61-.712-.909-1.056a5 5 0 0 0 2.105-4.01v-.2A2 2 0 0 0 10.29 1h-.066Zm.627 11.515C10.505 11.406 9.555 10.5 8 10.5s-2.505.906-2.851 2.015c-.12.385-.18.577-.03.781.149.204.393.204.88.204h4.002c.487 0 .731 0 .88-.204.15-.204.09-.396-.03-.781Z" clip-rule="evenodd"/></svg>
