<svg width="16" height="16" viewBox="0 0 16 16" fill="none" xmlns="http://www.w3.org/2000/svg">
<path d="M8 0C12.416 0 16 3.584 16 8C16 12.416 12.416 16 8 16C3.584 16 0 12.416 0 8C0 3.584 3.584 0 8 0ZM8 7.05883C7.53219 7.05883 7.15294 7.43807 7.15294 7.90589V11.3882C7.15294 11.8561 7.53219 12.2353 8 12.2353C8.46782 12.2353 8.84706 11.8561 8.84706 11.3882V7.90589C8.84706 7.43807 8.46782 7.05883 8 7.05883ZM8 3.76471C7.48021 3.76471 7.05883 4.18609 7.05883 4.70588C7.05883 5.22568 7.48021 5.64706 8 5.64706C8.5198 5.64706 8.94118 5.22568 8.94118 4.70588C8.94118 4.18609 8.5198 3.76471 8 3.76471Z" fill="currentColor"/>
</svg>
