<svg xmlns="http://www.w3.org/2000/svg" width="16" height="16" fill="currentColor" viewBox="0 0 16 16"><path d="M6 11a1 1 0 1 0 0-2 1 1 0 0 0 0 2Z"/><path fill-rule="evenodd" d="M11.888 1h-.005c-.029 0-.153-.003-.276.028a.95.95 0 0 0-.494.304l-.003.003-3.964 4.198a4.55 4.55 0 1 0 3.309 3.273L11.57 7.69l.001-.002c.007-.007.029-.028.049-.05a.847.847 0 0 0 .21-.696V6.94l-.048-.41.291.035h.006c.025.003.083.01.138.012a.85.85 0 0 0 .878-.85c0-.055-.006-.112-.008-.137v-.006l-.029-.334.36.058h.002a.848.848 0 0 0 .731-.203c.024-.02.046-.042.054-.05l.001-.002.536-.535.04-.042a.831.831 0 0 0 .216-.522L15 3.898V1.875c0-.016 0-.064-.004-.11a.831.831 0 0 0-.45-.675.83.83 0 0 0-.31-.086C14.189 1 14.14 1 14.126 1h-2.238ZM8.062 6.747 12.073 2.5H13.5v1.14l-.14.14-.808-.131-.006-.001c-.026-.004-.084-.014-.14-.018a.85.85 0 0 0-.913.847c0 .056.005.115.007.141v.007l.032.365-.316-.037-.007-.001a1.613 1.613 0 0 0-.14-.012.85.85 0 0 0-.877.877c.002.056.01.114.012.14l.001.006.103.869-1.09 1.089-.004.004a1.15 1.15 0 0 0-.232.304.94.94 0 0 0-.065.662c.012.044.027.092.037.123l.002.007A3.05 3.05 0 1 1 6.95 7.034l.008.003c.032.01.08.025.126.036a.94.94 0 0 0 .671-.077c.157-.082.277-.215.303-.244l.004-.005Z" clip-rule="evenodd"/></svg>
