<svg xmlns="http://www.w3.org/2000/svg" width="16" height="16" viewBox="0 0 16 16" fill="currentColor"><path fill-rule="evenodd" d="M5.04 3.75c-1.387 0-2.54 1.155-2.54 2.617 0 .858.15 1.388.617 2.027.542.742 1.517 1.63 3.33 3.074L8 12.704l1.552-1.236c1.814-1.444 2.789-2.332 3.332-3.074.467-.639.616-1.169.616-2.027 0-1.462-1.153-2.617-2.54-2.617-.734 0-1.302.335-1.71.707-.226.206-.44.448-.596.715a.75.75 0 0 1-1.309-.001 3.1 3.1 0 0 0-.595-.714c-.407-.372-.975-.707-1.71-.707M8 3.582a5 5 0 0 0-.239-.234C7.18 2.818 6.267 2.25 5.04 2.25 2.792 2.25 1 4.11 1 6.367c0 1.122.22 1.976.906 2.913.678.926 1.809 1.93 3.607 3.362l1.654 1.316a1.334 1.334 0 0 0 1.666 0l1.654-1.316c1.798-1.432 2.929-2.436 3.607-3.362.685-.937.906-1.79.906-2.913 0-2.257-1.792-4.117-4.04-4.117-1.226 0-2.138.568-2.72 1.098a5 5 0 0 0-.24.234" clip-rule="evenodd"/></svg>