<svg xmlns="http://www.w3.org/2000/svg" width="16" height="16" fill="currentColor" viewBox="0 0 16 16"><path d="M2.927 6.302c0 .444.222.698.618.698.393 0 .615-.25.615-.698V2.297c0-.484-.294-.797-.735-.797-.253 0-.52.091-.815.29l-.614.432c-.223.146-.336.32-.336.515 0 .262.181.452.43.452.124 0 .23-.04.426-.17l.396-.282h.015v3.565ZM8.25 4a.75.75 0 1 0 0 1.5h6.5a.75.75 0 0 0 0-1.5h-6.5Zm0 7a.75.75 0 0 0 0 1.5h6.5a.75.75 0 0 0 0-1.5h-6.5Zm-6.07 3.5c-.386 0-.64-.218-.64-.55 0-.237.131-.443.529-.83l1.375-1.41c.426-.43.605-.716.605-1.017 0-.387-.283-.648-.7-.648-.338 0-.585.17-.76.522-.175.269-.326.372-.556.372-.314 0-.533-.214-.533-.514C1.5 9.688 2.335 9 3.42 9c1.094 0 1.893.665 1.893 1.57 0 .559-.27 1.05-.934 1.698l-1.133 1.14v.055H4.9c.37 0 .6.198.6.523 0 .32-.227.514-.6.514H2.18Z"/></svg>
