<svg xmlns="http://www.w3.org/2000/svg" width="16" height="16" fill="currentColor" viewBox="0 0 16 16"><path fill-rule="evenodd" d="M2.32 6.361c-.137.46-.33.639-.698.639C1.256 7 1 6.778 1 6.46c0-.13.033-.281.128-.547L2.373 2.4c.226-.643.544-.901 1.141-.901.594 0 .907.254 1.13.9l1.245 3.513c.074.222.111.38.111.52C6 6.778 5.744 7 5.353 7c-.363 0-.577-.19-.71-.639l-.218-.647H2.538l-.219.647Zm1.133-3.647-.635 2.052h1.335l-.63-2.052h-.07ZM6 12.735C6 13.8 5.183 14.5 3.955 14.5H2.321c-.534 0-.821-.266-.821-.761V9.761c0-.492.287-.762.821-.762h2.601c.32 0 .552.222.552.536 0 .314-.231.532-.552.532H2.916v.955h1.022c1.245 0 2.062.673 2.062 1.712Zm-3.084-.737v1.479h.766c.56 0 .88-.274.88-.738 0-.467-.329-.741-.88-.741h-.766Z M7.5 4.75A.75.75 0 0 1 8.25 4h6.5a.75.75 0 0 1 0 1.5h-6.5a.75.75 0 0 1-.75-.75ZM8.25 11a.75.75 0 0 0 0 1.5h6.5a.75.75 0 0 0 0-1.5h-6.5Z"/></svg>
