<svg xmlns="http://www.w3.org/2000/svg" width="16" height="16" fill="none" viewBox="0 0 16 16"><path fill="currentColor" d="M6 6h4c1.4001 0 2.1002 0 2.635.2725a2.5 2.5 0 0 1 1.0925 1.0925C14 7.8998 14 8.6 14 10v1c0 1.4001 0 2.1002-.2725 2.635a2.5 2.5 0 0 1-1.0925 1.0925C12.1002 15 11.4001 15 10 15H6c-1.4001 0-2.1002 0-2.635-.2725a2.5 2.5 0 0 1-1.0925-1.0925C2 13.1002 2 12.4001 2 11v-1c0-1.4001 0-2.1002.2725-2.635A2.5001 2.5001 0 0 1 3.365 6.2725c.1846-.094.389-.1557.635-.196V5c0-2.2091 1.7909-4 4-4 1.1848 0 2.2502.5164 2.9812 1.333.3684.4116.3333 1.0438-.0782 1.4121-.4115.3684-1.0437.3333-1.412-.0782C9.1233 3.2561 8.5922 3 8 3c-1.1046 0-2 .8954-2 2v1Z"/></svg>
