<svg xmlns="http://www.w3.org/2000/svg" width="16" height="16" fill="none" viewBox="0 0 16 16"><g clip-path="url(#a)"><path fill="url(#b)" fill-rule="evenodd" d="M8 16A8 8 0 1 0 8 0a8 8 0 0 0 0 16Z" clip-rule="evenodd"/><path fill="#fff" fill-rule="evenodd" d="M5.4 6.004V5.6a2.6 2.6 0 0 1 5.2 0v.404c.346.008.565.035.745.127a1.2 1.2 0 0 1 .524.524C12 6.912 12 7.248 12 7.92v2.16c0 .672 0 1.008-.13 1.265a1.2 1.2 0 0 1-.525.524c-.257.131-.593.131-1.265.131H5.92c-.672 0-1.008 0-1.265-.13a1.2 1.2 0 0 1-.524-.525C4 11.088 4 10.752 4 10.08V7.92c0-.672 0-1.008.13-1.265a1.2 1.2 0 0 1 .525-.524c.18-.092.399-.12.745-.127ZM6.6 5.6a1.4 1.4 0 0 1 2.8 0V6H6.6v-.4ZM8 7.9a.6.6 0 0 1 .6.6v1.1a.6.6 0 0 1-1.2 0V8.5a.6.6 0 0 1 .6-.6Z" clip-rule="evenodd"/></g><defs><linearGradient id="b" x1="-8" x2="8" y1="8" y2="24" gradientUnits="userSpaceOnUse"><stop stop-color="#70B2FF"/><stop offset="1" stop-color="#5C9CE6"/></linearGradient><clipPath id="a"><path fill="#fff" d="M0 0h16v16H0z"/></clipPath></defs></svg>
