<svg xmlns="http://www.w3.org/2000/svg" width="16" height="16" fill="currentColor" viewBox="0 0 16 16"><path fill-rule="evenodd" d="M12.96 12.025c.04-.543.04-1.201.04-1.972V5.947c0-.77 0-1.43-.04-1.972-.042-.57-.133-1.13-.379-1.674a4.75 4.75 0 0 0-.838-1.27c.64.038 1.095.126 1.482.323a3.25 3.25 0 0 1 1.42 1.42C15 3.47 15 4.38 15 6.2v3.6c0 1.82 0 2.73-.354 3.425a3.25 3.25 0 0 1-1.42 1.42c-.388.198-.842.286-1.483.324.343-.372.627-.8.838-1.27.246-.544.337-1.104.38-1.674Z M5.158 6.345a.056.056 0 0 1 .01-.025.05.05 0 0 1 .016-.013.051.051 0 0 1 .02-.007c.004 0 .013 0 .028.005A8.29 8.29 0 0 1 7.98 7.961c.01.01.014.017.016.02a.049.049 0 0 1 .004.02.049.049 0 0 1-.004.02.061.061 0 0 1-.016.02 8.29 8.29 0 0 1-2.741 1.654.063.063 0 0 1-.028.005.052.052 0 0 1-.02-.007.05.05 0 0 1-.017-.013.056.056 0 0 1-.01-.024 8.506 8.506 0 0 1-.006-3.312Z M1.354 2.775C1 3.47 1 4.38 1 6.2v3.6c0 1.82 0 2.73.354 3.425a3.25 3.25 0 0 0 1.42 1.42C3.47 15 4.397 15 6.25 15c1.854 0 2.78 0 3.475-.354a3.25 3.25 0 0 0 1.42-1.42c.355-.696.355-1.606.355-3.426V6.2c0-1.82 0-2.73-.354-3.425a3.25 3.25 0 0 0-1.42-1.42C9.03 1 8.102 1 6.25 1c-1.854 0-2.78 0-3.475.354a3.25 3.25 0 0 0-1.42 1.42Zm2.333 3.28a1.55 1.55 0 0 1 2.055-1.16 9.79 9.79 0 0 1 3.245 1.954 1.55 1.55 0 0 1 0 2.304 9.79 9.79 0 0 1-3.237 1.952c-.9.326-1.869-.22-2.056-1.155a10.006 10.006 0 0 1-.007-3.894Z" clip-rule="evenodd"/></svg>
