<svg xmlns="http://www.w3.org/2000/svg" width="16" height="16" fill="currentColor" viewBox="0 0 16 16"><path fill-rule="evenodd" d="M0 7.68c0-3.62 0-5.43 1.125-6.555C2.249 0 4.06 0 7.68 0h.64c3.62 0 5.43 0 6.555 1.125C16 2.249 16 4.06 16 7.68v.64c0 3.62 0 5.43-1.125 6.555C13.751 16 11.94 16 8.32 16h-.64c-3.62 0-5.43 0-6.555-1.125C0 13.751 0 11.94 0 8.32v-.64Zm13.871-4.327a.64.64 0 0 1 .41 1.092l-1.5 1.5a.8.8 0 0 1-.659.23l-1.03-.084L9.813 7.37a1.92 1.92 0 1 1-1.106-1.156L9.96 4.96l-.124-1.072a.8.8 0 0 1 .229-.658l1.5-1.5a.64.64 0 0 1 1.092.41l.05 1.145 1.164.068Zm-5.443-.455A5.12 5.12 0 1 0 13.1 7.554l-1.708-.143a3.444 3.444 0 1 1-2.767-2.797l-.198-1.716Z" clip-rule="evenodd"/></svg>
