<svg xmlns="http://www.w3.org/2000/svg" width="16" height="16" fill="currentColor" viewBox="0 0 16 16"><path fill-rule="evenodd" d="M4.5 6.3c0-1.68 0-2.52.327-3.162a3 3 0 0 1 1.311-1.311C6.78 1.5 7.62 1.5 9.3 1.5c1.82 0 2.73 0 3.425.354a3.25 3.25 0 0 1 1.42 1.42c.355.696.355 1.606.355 3.426v2.6c0 1.82 0 2.73-.354 3.425a3.25 3.25 0 0 1-1.42 1.42c-.696.355-1.606.355-3.426.355-1.68 0-2.52 0-3.162-.327a3 3 0 0 1-1.311-1.311C4.5 12.22 4.5 11.38 4.5 9.7V6.3Zm6.728.857c.453.271.679.407.755.583a.6.6 0 0 1 0 .48c-.076.176-.303.312-.755.583L9.454 9.868c-.476.285-.714.428-.91.41a.6.6 0 0 1-.428-.243C8 9.877 8 9.6 8 9.045v-2.13c0-.554 0-.832.116-.99a.6.6 0 0 1 .428-.243c.196-.018.434.125.91.41l1.774 1.065ZM3 6.2c0-1.82 0-2.73.354-3.426a3.25 3.25 0 0 1 1.077-1.218c-.475.048-.838.136-1.156.298a3.25 3.25 0 0 0-1.42 1.42C1.5 3.97 1.5 4.88 1.5 6.7v2.6c0 1.82 0 2.73.354 3.425a3.25 3.25 0 0 0 1.42 1.42c.319.163.682.25 1.157.299a3.25 3.25 0 0 1-1.077-1.219C3 12.53 3 11.62 3 9.8V6.2Z" clip-rule="evenodd"/></svg>
