<svg width="16" height="16" viewBox="0 0 16 16" fill="none" xmlns="http://www.w3.org/2000/svg">
<path fill-rule="evenodd" clip-rule="evenodd" d="M2.84353 2.84353C2 3.68706 2 5.04471 2 7.76V8.24C2 10.9553 2 12.3129 2.84353 13.1565C3.68707 14 5.04471 14 7.76 14H8.24C10.9553 14 12.3129 14 13.1565 13.1565C14 12.3129 14 10.9553 14 8.24V7.76C14 5.04471 14 3.68706 13.1565 2.84353C12.3129 2 10.9553 2 8.24 2H7.76C5.04471 2 3.68707 2 2.84353 2.84353ZM4 5.65002C4.06496 8.77315 5.62397 10.65 8.35726 10.65H8.51219V8.86323C9.51656 8.96333 10.276 9.69907 10.5808 10.65H12C11.6102 9.2286 10.5858 8.44281 9.94623 8.14251C10.5858 7.77214 11.4853 6.87125 11.7001 5.65002H10.4109C10.1311 6.64102 9.3017 7.54191 8.51219 7.62699V5.65002H7.22296V9.11348C6.42346 8.91328 5.41411 7.94232 5.36914 5.65002H4Z" fill="currentColor"/>
</svg>
