<svg xmlns="http://www.w3.org/2000/svg" width="16" height="16" fill="none" viewBox="0 0 16 16"><path fill="currentColor" fill-rule="evenodd" d="M5.7186 2h4.5628c.6734 0 1.2241 0 1.6717.0366.4632.0378.8816.1185 1.2724.3176a3.2502 3.2502 0 0 1 1.4203 1.4203c.1991.3908.2798.8092.3176 1.2724C15 5.4945 15 6.0452 15 6.7186v2.5628c0 .6734 0 1.2241-.0366 1.6717-.0378.4632-.1185.8816-.3176 1.2724a3.2504 3.2504 0 0 1-1.4203 1.4203c-.3908.1991-.8092.2798-1.2724.3176C11.5055 14 10.9548 14 10.2814 14H5.7186c-.6734 0-1.2241 0-1.6717-.0366-.4632-.0378-.8816-.1185-1.2724-.3176a3.2502 3.2502 0 0 1-1.4203-1.4203c-.199-.3908-.2798-.8092-.3176-1.2724C1 10.5055 1 9.9548 1 9.2814V6.7186c0-.6734 0-1.2241.0366-1.6717.0378-.4632.1185-.8816.3176-1.2724a3.25 3.25 0 0 1 1.4203-1.4203c.3908-.199.8092-.2798 1.2724-.3176C4.4945 2 5.0452 2 5.7186 2ZM3.7752 3.5844 7.4697 7.279a.75.75 0 0 0 1.0606 0l3.6946-3.6946c-.1055-.022-.2337-.0397-.394-.0528-.3792-.031-.8685-.0316-1.5809-.0316h-4.5c-.7124 0-1.2017.0006-1.581.0316-.1601.013-.2883.0309-.3938.0528Zm9.5841.987L9.591 8.3395c-.8787.8787-2.3033.8787-3.182 0L2.6408 4.5713c-.0488.1345-.0863.3169-.1092.5978-.031.3792-.0316.8685-.0316 1.5809v2.5c0 .7124.0006 1.2017.0316 1.5809.0302.3705.0857.5695.1591.7136a1.75 1.75 0 0 0 .7648.7648c.144.0734.343.1289.7136.1591.3792.031.8685.0316 1.5809.0316h4.5c.7124 0 1.2017-.0006 1.5809-.0316.3705-.0302.5695-.0857.7136-.1591a1.7502 1.7502 0 0 0 .7648-.7648c.0734-.1441.1289-.3431.1591-.7136.031-.3792.0316-.8685.0316-1.5809v-2.5c0-.7124-.0006-1.2017-.0316-1.581-.0229-.2808-.0604-.4631-.1091-.5977Z" clip-rule="evenodd"/></svg>
