<svg xmlns="http://www.w3.org/2000/svg" width="16" height="16" fill="none" viewBox="0 0 16 16"><path fill="currentColor" d="M4 2.5024C4 1.6726 4.6726 1 5.5024 1h4.9952C11.3274 1 12 1.6726 12 2.5024H4Z M5.4196 4h5.1608c.5342 0 .98 0 1.3443.0297.3799.031.7365.0982 1.0738.27a2.7505 2.7505 0 0 1 1.2018 1.2018c.1718.3373.2389.694.27 1.0738.0297.3643.0297.8101.0297 1.3442v2.161c0 .5341 0 .9799-.0297 1.3442-.0311.3799-.0982.7365-.27 1.0738a2.751 2.751 0 0 1-1.2018 1.2018c-.3373.1718-.6939.2389-1.0738.27C11.5604 14 11.1146 14 10.5805 14h-5.161c-.5341 0-.98 0-1.3442-.0297-.3799-.0311-.7365-.0982-1.0738-.27a2.7505 2.7505 0 0 1-1.2018-1.2018c-.1718-.3373-.239-.6939-.27-1.0738C1.5 11.0604 1.5 10.6146 1.5 10.0804V7.9196c0-.5342 0-.98.0297-1.3443.031-.3799.0982-.7365.27-1.0738a2.75 2.75 0 0 1 1.2018-1.2018c.3373-.1718.694-.239 1.0738-.27C4.4396 4 4.8854 4 5.4196 4ZM4.0952 5.5346l3.021 3.0209c.488.4881 1.2795.4881 1.7677 0l3.0209-3.021a3.464 3.464 0 0 0-.1023-.0097C11.5066 5.5006 11.1224 5.5 10.55 5.5h-5.1c-.5724 0-.9566.0006-1.2525.0248a3.4913 3.4913 0 0 0-.1023.0098Zm8.8703 1.0606-3.021 3.021c-1.0739 1.0739-2.8151 1.0739-3.889 0l-3.021-3.021a3.4913 3.4913 0 0 0-.0097.1023C3.0006 6.9934 3 7.3775 3 7.95v2.1c0 .5724.0006.9566.0248 1.2525.0234.2871.0653.4244.1114.515.1199.2352.3111.4264.5463.5463.0906.0461.2279.088.515.1114.2959.0242.68.0248 1.2525.0248h5.1c.5724 0 .9566-.0006 1.2525-.0248.2871-.0234.4244-.0653.515-.1114a1.2508 1.2508 0 0 0 .5463-.5463c.0461-.0906.088-.2279.1114-.515.0242-.2959.0248-.6801.0248-1.2525v-2.1c0-.5724-.0006-.9566-.0248-1.2525a3.4031 3.4031 0 0 0-.0097-.1023Z" clip-rule="evenodd"/></svg>
