<svg xmlns="http://www.w3.org/2000/svg" width="16" height="16" fill="currentColor" viewBox="0 0 16 16"><path fill-rule="evenodd" d="M1 6c0-1.4 0-2.1.272-2.635a2.5 2.5 0 0 1 1.093-1.093C2.9 2 3.6 2 5 2h6c1.4 0 2.1 0 2.635.272a2.5 2.5 0 0 1 1.092 1.093C15 3.9 15 4.6 15 6v4c0 1.4 0 2.1-.273 2.635a2.5 2.5 0 0 1-1.092 1.092C13.1 14 12.4 14 11 14H5c-1.4 0-2.1 0-2.635-.273a2.5 2.5 0 0 1-1.093-1.092C1 12.1 1 11.4 1 10V6Zm2.092 4.989c-.415 0-.653-.25-.653-.685V5.957c0-.608.347-.959.959-.959.515 0 .793.21 1.003.754l1.212 3.07h.033l1.208-3.07c.214-.544.492-.754 1.011-.754.609 0 .955.347.955.96v4.346c0 .435-.238.685-.653.685-.41 0-.648-.25-.648-.685V7.27H7.49l-1.292 3.2c-.11.274-.282.399-.564.399s-.468-.125-.572-.4L3.772 7.27H3.74v3.034c0 .435-.237.685-.648.685ZM11.75 5a.6.6 0 0 1 .6.6v3.22h.858a.3.3 0 0 1 .22.504l-1.452 1.584a.3.3 0 0 1-.442 0L10.08 9.325a.3.3 0 0 1 .221-.503h.848V5.6a.6.6 0 0 1 .6-.6Z" clip-rule="evenodd"/></svg>
