<svg xmlns="http://www.w3.org/2000/svg" width="16" height="16" fill="none" viewBox="0 0 16 16"><path fill="currentColor" d="M11.5 8.25a.75.75 0 1 1-1.5 0 .75.75 0 0 1 1.5 0Zm-5.5 0a.75.75 0 1 1-1.5 0 .75.75 0 0 1 1.5 0Z M1.5 6.5c0-1.1046.8954-2 2-2h1C4.5 2.567 6.067 1 8 1s3.5 1.567 3.5 3.5h1c1.1046 0 2 .8954 2 2V12c0 1.6569-1.3431 3-3 3h-7c-1.6568 0-3-1.3431-3-3V6.5Zm3-.5h-1a.5.5 0 0 0-.5.5V12c0 .8284.6716 1.5 1.5 1.5h7c.8284 0 1.5-.6716 1.5-1.5V6.5a.5.5 0 0 0-.5-.5h-8ZM6 4.5h4c0-1.1046-.8954-2-2-2s-2 .8954-2 2Z" clip-rule="evenodd"/></svg>
