<svg xmlns="http://www.w3.org/2000/svg" width="16" height="16" fill="none" viewBox="0 0 16 16"><path fill="currentColor" fill-rule="evenodd" d="M1 8.0293C1 12.3357 4.0066 15 8.2922 15c1.0587 0 1.8548-.1005 2.3799-.2849.4489-.1675.6183-.3854.6183-.7205 0-.3519-.2202-.5865-.6691-.5865-.1186 0-.2371.0084-.3811.0336-.559.1172-1.0248.1927-1.694.1927-3.608 0-5.9878-2.0946-5.9878-5.5632 0-3.3932 2.2529-5.7055 5.6068-5.7055 3.032 0 5.2849 1.8683 5.2849 5.094 0 1.5834-.5505 2.6726-1.3721 2.6726-.7219 0-.9034-.5828-.9039-.8741V5.3928c0-.5198-.2897-.8215-.801-.8215-.5027 0-.801.3018-.801.8215v.3605H9.47c-.3409-.7545-1.1248-1.182-2.0621-1.182-1.6872 0-2.8716 1.3916-2.8716 3.4622 0 2.1126 1.2015 3.5461 2.9568 3.5461.9884 0 1.7298-.4778 2.0877-1.3329h.1106c.1487.7391.778 1.1972 1.6497 1.3016a3.3868 3.3868 0 0 0 .397.0162C13.7618 11.5322 15 9.8148 15 7.2837 15 3.4967 12.1797 1 8.1736 1 3.939 1 1 3.815 1 8.0293Zm5.283.0294c0 1.3162.5794 2.1126 1.5679 2.1126.997 0 1.636-.8132 1.636-2.121 0-1.2826-.6305-2.0874-1.6275-2.0874S6.283 6.7425 6.283 8.0587Z" clip-rule="evenodd"/></svg>
