<svg xmlns="http://www.w3.org/2000/svg" width="16" height="16" fill="none" viewBox="0 0 16 16"><path fill="currentColor" fill-rule="evenodd" d="M5.627 13.231c.7456.2338 1.549.3607 2.3847.3607 3.7691 0 6.9883-2.6236 6.9883-6.0458C15 4.1236 11.7808 1.5 8.0117 1.5c-3.769 0-6.9882 2.6236-6.9882 6.0459 0 1.1326.3597 2.1891.9786 3.0845-.0507.735-.4301 1.5641-.7774 2.3229a57.5293 57.5293 0 0 0-.1475.3241c-.2666.5889.193 1.2468.8297 1.2219 1.563-.061 2.8408-.4529 3.7201-1.2683Zm-.3816-1.6917.8305.2605c.6.1881 1.252.2919 1.9358.2919 3.1797 0 5.4883-2.1723 5.4883-4.5458S11.1914 3 8.0117 3C4.8321 3 2.5235 5.1724 2.5235 7.5459c0 .8069.2546 1.5691.7125 2.2315l.2986.4321-.036.5239c-.0446.6468-.2456 1.2653-.442 1.7671a13.081 13.081 0 0 1-.1603.3895c.79-.1457 1.3418-.4167 1.711-.7589l.6381-.5918Z" clip-rule="evenodd"/></svg>
