<svg fill="none" height="16" viewBox="0 0 16 16" width="16" xmlns="http://www.w3.org/2000/svg" xmlns:xlink="http://www.w3.org/1999/xlink"><linearGradient id="a" gradientUnits="userSpaceOnUse" x1="-8" x2="8" y1="8" y2="24"><stop offset="0" stop-color="#50c750"/><stop offset="1" stop-color="#32b332"/></linearGradient><path clip-rule="evenodd" d="m8 16c4.4183 0 8-3.5817 8-8 0-4.41828-3.5817-8-8-8-4.41828 0-8 3.58172-8 8 0 4.4183 3.58172 8 8 8z" fill="url(#a)" fill-rule="evenodd"/><path d="m8 4.25c2.2437 0 4.0625 1.61348 4.0625 3.60382 0 1.99033-1.8188 3.60378-4.0625 3.60378-.38378 0-.75513-.0472-1.10708-.1354-.46092.4209-1.23035.7701-2.30757 1.047-.04648.012-.09565.0053-.13748-.0187-.09075-.0519-.12324-.1695-.07259-.2626l.07831-.1461c.34594-.6546.55313-1.184.62158-1.5882-.70465-.64721-1.13767-1.52864-1.13767-2.49978 0-1.99034 1.81884-3.60382 4.0625-3.60382z" fill="#fff"/></svg>
