<svg xmlns="http://www.w3.org/2000/svg" width="16" height="16" fill="currentColor" viewBox="0 0 16 16"><path fill-rule="evenodd" d="M1.797 7c-.424 0-.786.322-.768.745a5.492 5.492 0 0 0 .973 2.885c-.05.735-.43 1.564-.777 2.323l-.148.324c-.266.59.193 1.247.83 1.222 1.563-.06 2.84-.453 3.72-1.268.746.234 1.549.36 2.385.36 3.769 0 6.988-2.623 6.988-6.045 0-3.197-2.811-5.697-6.252-6.012-.412-.038-.748.301-.748.715s.338.746.75.791c2.79.306 4.75 2.32 4.75 4.506 0 2.373-2.309 4.546-5.488 4.546a6.467 6.467 0 0 1-1.936-.292l-.83-.26-.639.591c-.369.342-.92.613-1.71.759.055-.13.109-.26.16-.39.196-.501.397-1.12.442-1.767l.036-.524-.299-.432a3.985 3.985 0 0 1-.705-2.012C2.507 7.362 2.201 7 1.797 7Z" clip-rule="evenodd"/><path d="m4.645 6.241 2.099-1.643c.115-.09.173-.135.21-.178a.633.633 0 0 0 0-.84 1.745 1.745 0 0 0-.21-.179l-2.1-1.642a1.757 1.757 0 0 0-.256-.185.5.5 0 0 0-.7.341c-.013.055-.013.142-.013.316v.702C1.988 3.2 1.357 4.316 1.127 5.23c-.039.155-.059.233-.059.277a.357.357 0 0 0 .483.351c.042-.014.156-.086.385-.23a3.226 3.226 0 0 1 1.74-.495v.636c0 .174 0 .26.012.316a.5.5 0 0 0 .7.341c.051-.024.12-.078.257-.185Z"/></svg>
