<svg fill="none" height="16" viewBox="0 0 16 16" width="16" xmlns="http://www.w3.org/2000/svg"><path d="m8 2c3.5899 0 6.5 2.58158 6.5 5.76611 0 3.18449-2.9101 5.76609-6.5 5.76609-.61405 0-1.20821-.0755-1.77133-.2167-.73747.6735-1.96856 1.2321-3.69212 1.6752-.07436.0191-.15303.0085-.21996-.0299-.14519-.0831-.19719-.2712-.11613-.4202l.12528-.2337c.55351-1.0474.88502-1.8944.99453-2.5411-1.12743-1.0356-1.82027-2.44586-1.82027-3.99969 0-3.18453 2.91015-5.76611 6.5-5.76611z" fill="currentColor"/></svg>
