<svg xmlns="http://www.w3.org/2000/svg" width="16" height="16" fill="currentColor" viewBox="0 0 16 16"><path fill-rule="evenodd" d="M14.5 7.766C14.5 4.582 11.59 2 8 2S1.5 4.582 1.5 7.766c0 1.554.693 2.964 1.82 4-.11.646-.44 1.493-.994 2.54l-.126.235a.313.313 0 0 0 .117.42.294.294 0 0 0 .22.03c1.723-.443 2.954-1.002 3.692-1.675A7.28 7.28 0 0 0 8 13.531c3.59 0 6.5-2.581 6.5-5.766ZM5.721 5.372a.75.75 0 0 1 1.06 0L8 6.59l1.218-1.218a.75.75 0 0 1 1.06 1.06l-1.217 1.22 1.218 1.217a.75.75 0 0 1-1.06 1.061L8 8.712 6.782 9.93a.75.75 0 1 1-1.06-1.06l1.216-1.22-1.217-1.217a.75.75 0 0 1 0-1.06Z" clip-rule="evenodd"/></svg>
