<svg fill="none" height="16" viewBox="0 0 16 16" width="16" xmlns="http://www.w3.org/2000/svg"><g fill="currentColor"><path d="m13.8195 8c.9281 0 1.6805.75305 1.6805 1.68198 0 .93812-.3755 1.40842-1.9683 2.64842l-.7247.5642c-.1806.1405-.4334.1405-.614 0l-.7247-.5642c-1.59278-1.24-1.9683-1.7103-1.9683-2.64842 0-.92893.7524-1.68198 1.6805-1.68198.4972 0 .939.23429 1.3195.68759.3805-.4533.8223-.68759 1.3195-.68759z"/><path clip-rule="evenodd" d="m14.4522 6.56292c-.3911-2.85286-3.1307-5.06292-6.4522-5.06292-3.58985 0-6.5 2.58158-6.5 5.76611 0 1.55383.69284 2.96409 1.82027 3.99969-.10951.6467-.44102 1.4937-.99453 2.5411l-.12528.2337c-.08106.149-.02906.3371.11613.4202.06693.0384.1456.049.21996.0299 1.72356-.4431 2.95465-1.0017 3.69212-1.6752.56312.1412 1.15728.2167 1.77133.2167.58955 0 1.16077-.0696 1.70378-.2001-.40747-.3493-.75275-.6876-1.01605-1.0379-.51742-.6885-.68773-1.3702-.68773-2.11222 0-1.75608 1.42265-3.18198 3.1805-3.18198.4854 0 .9264.11217 1.3195.30447.3931-.1923.8341-.30447 1.3195-.30447.2167 0 .4282.02166.6327.06292z" fill-rule="evenodd"/></g></svg>
