<svg xmlns="http://www.w3.org/2000/svg" width="16" height="16" viewBox="0 0 16 16" fill="currentColor"><path d="M9.002 4.5a1.002 1.002 0 0 0-2.005 0v3a1.002 1.002 0 0 0 2.005 0zm-.252 9.75A.75.75 0 0 1 8 15l-.077-.004a.75.75 0 0 1-.67-.669l-.003-.077v-1.3a5.51 5.51 0 0 1-4.584-4.084l-.05-.209a.75.75 0 0 1 1.47-.314 4.005 4.005 0 0 0 3.735 3.153L8 11.5a4.005 4.005 0 0 0 3.915-3.157.75.75 0 0 1 1.467.314l-.049.21a5.51 5.51 0 0 1-4.584 4.082zm1.752-6.75c0 1.38-1.12 2.5-2.502 2.5l-.255-.013A2.5 2.5 0 0 1 5.498 7.5v-3C5.498 3.12 6.618 2 8 2l.256.013A2.5 2.5 0 0 1 10.502 4.5z"/></svg>