<svg fill="none" height="16" viewBox="0 0 16 16" width="16" xmlns="http://www.w3.org/2000/svg"><g clip-rule="evenodd" fill="currentColor" fill-rule="evenodd"><path d="m11.3741 6.82031c0-1.44987-.9352-2.37402-2.58984-2.37402h-1.43327c-.77474 0-1.13997.3597-1.13997 1.15104v2.40169h-.40951c-.40397.01107-.64746.23243-.64746.58659 0 .3597.24349.57552.64746.58106h.40951v.83333h-.49251c-.35417 0-.56446.1882-.56446.4925 0 .3044.21029.487.56446.487h.52018v.3847c0 .0658.00468.1322.02468.1949.10367.3252.37608.4962.69472.4962.32369 0 .5919-.171.69482-.4961.01987-.0628.02458-.1292.02458-.195v-.3847h1.22298c.3431 0 .56445-.1826.56445-.487 0-.3043-.21582-.4925-.56445-.4925h-1.19531v-.83333h1.0625c1.74314 0 2.60644-.95736 2.60644-2.34636zm-3.67447-1.18424h.83007c.85222 0 1.32259.33756 1.32259 1.18978 0 .85774-.46484 1.17317-1.44987 1.17317h-.70279z"/><path d="m16 8c0 4.4183-3.5817 8-8 8-4.41828 0-8-3.5817-8-8 0-4.41828 3.58172-8 8-8 4.4183 0 8 3.58172 8 8zm-1.5 0c0 3.5899-2.9101 6.5-6.5 6.5-3.58985 0-6.5-2.9101-6.5-6.5 0-3.58985 2.91015-6.5 6.5-6.5 3.5899 0 6.5 2.91015 6.5 6.5z"/></g></svg>
