<svg xmlns="http://www.w3.org/2000/svg" width="16" height="16" fill="currentColor" viewBox="0 0 16 16"><path fill-rule="evenodd" d="M12.5 8.494V5.51c0-.352 0-.527-.072-.647a.5.5 0 0 0-.282-.219c-.134-.04-.305.004-.645.091L6.854 5.932c-.215.055-.322.083-.402.143a.5.5 0 0 0-.16.206c-.038.093-.038.204-.038.426v4.544c0 .624-.097 1.393-.428 2.082-.344.715-1.023 1.492-2.162 1.645-.622.083-1.375-.052-1.983-.658-.607-.607-.742-1.359-.659-1.98.153-1.137.932-1.816 1.648-2.159.69-.33 1.46-.434 2.085-.434V5.03c-.001-.546-.002-1.025.173-1.444.153-.367.401-.686.718-.926.363-.274.827-.393 1.357-.529l.113-.029 2.98-.768c.484-.124.894-.23 1.233-.286.351-.058.712-.08 1.075.03.529.16.98.51 1.268.981.197.323.266.678.298 1.032.03.342.03.764.03 1.263v5.644c0 .625-.097 1.394-.428 2.082-.344.715-1.023 1.493-2.162 1.645a2.317 2.317 0 0 1-1.983-.658c-.607-.606-.742-1.358-.659-1.98.153-1.137.932-1.815 1.648-2.158.69-.331 1.46-.435 2.085-.435Z" clip-rule="evenodd"/></svg>
