<svg xmlns="http://www.w3.org/2000/svg" width="16" height="16" fill="currentColor" viewBox="0 0 16 16"><path fill-rule="evenodd" d="M14.5 5.094a3.6 3.6 0 0 1-3.605 3.594A3.6 3.6 0 0 1 7.29 5.094 3.6 3.6 0 0 1 10.895 1.5 3.6 3.6 0 0 1 14.5 5.094Zm-1.502 0a2.1 2.1 0 0 1-2.103 2.096 2.1 2.1 0 0 1-2.103-2.096 2.1 2.1 0 0 1 2.103-2.097 2.1 2.1 0 0 1 2.103 2.097Z M8.757 10.683a.766.766 0 0 0 .124-1.062.735.735 0 0 0-1.044-.127l-4.265 3.414a.357.357 0 0 1-.476-.026.373.373 0 0 1-.028-.497l3.397-4.216a.766.766 0 0 0-.104-1.065.734.734 0 0 0-1.046.105L1.92 11.425a1.906 1.906 0 0 0 .138 2.54c.664.66 1.705.716 2.434.133l4.266-3.415Z"/></svg>
