<svg xmlns="http://www.w3.org/2000/svg" width="16" height="16" fill="currentColor" viewBox="0 0 16 16"><path fill-rule="evenodd" d="M5.203 1.504a1.72 1.72 0 0 1 1.603-.46L12.38 2.33a1.72 1.72 0 0 1 1.29 1.29l1.286 5.574a1.72 1.72 0 0 1-.46 1.603l-3.699 3.7a1.72 1.72 0 0 1-1.603.459L3.62 13.67a1.72 1.72 0 0 1-1.29-1.29L1.044 6.806a1.72 1.72 0 0 1 .46-1.603l3.699-3.7ZM10.98 6.93a.75.75 0 1 0-1.06-1.06L7.15 8.64l-.87-.87a.75.75 0 1 0-1.06 1.06l1.4 1.4a.75.75 0 0 0 1.06 0l3.3-3.3Z" clip-rule="evenodd"/></svg>
