<svg xmlns="http://www.w3.org/2000/svg" width="16" height="16" fill="currentColor" viewBox="0 0 16 16"><path d="M9.938 6.647A.75.75 0 1 1 11 7.708L7.707 11a.75.75 0 0 1-1.06 0L5 9.354a.75.75 0 0 1 1.06-1.061l1.116 1.115 2.761-2.76Z"/><path fill-rule="evenodd" d="M11.004.666a.75.75 0 0 1 .75.75v.195c.252.052.492.128.722.244a3.35 3.35 0 0 1 1.463 1.464c.205.402.288.833.328 1.313.038.47.038 1.053.038 1.768v4.024c0 .715 0 1.297-.038 1.768-.04.48-.123.912-.327 1.313a3.35 3.35 0 0 1-1.464 1.464c-.402.204-.833.288-1.313.327-.471.038-1.053.038-1.768.038h-2.79c-.715 0-1.297 0-1.768-.038-.48-.04-.911-.123-1.313-.327a3.35 3.35 0 0 1-1.463-1.464c-.205-.402-.288-.833-.328-1.313-.038-.47-.038-1.053-.038-1.768V6.4c0-.715 0-1.297.038-1.768.04-.48.123-.911.328-1.313a3.35 3.35 0 0 1 1.463-1.464c.23-.117.47-.192.724-.244v-.195a.75.75 0 0 1 1.5 0v.078c.262-.003.547-.004.857-.004h.645v-.074a.75.75 0 1 1 1.5 0v.074h.645c.31 0 .596.001.859.004v-.078a.75.75 0 0 1 .75-.75ZM5.748 2.993v.069a.75.75 0 0 1-1.491.107c-.018.008-.036.014-.052.022A1.86 1.86 0 0 0 3.396 4c-.078.155-.136.367-.167.754-.033.396-.034.906-.034 1.646v4.024c0 .74.001 1.25.034 1.646.031.387.089.6.167.754.178.348.461.632.81.809.154.079.366.136.753.168.396.032.906.033 1.646.033h2.79c.74 0 1.25 0 1.646-.033.387-.032.6-.09.754-.168a1.85 1.85 0 0 0 .809-.809c.078-.155.136-.367.168-.754.032-.396.033-.906.033-1.646V6.4c0-.74-.001-1.25-.034-1.646-.031-.387-.089-.6-.168-.754a1.851 1.851 0 0 0-.808-.809l-.05-.022a.749.749 0 0 1-1.491-.107v-.069c-.248-.003-.531-.003-.86-.003H8.75v.072a.75.75 0 0 1-1.5 0V2.99h-.645c-.327 0-.61 0-.857.003Z" clip-rule="evenodd"/></svg>
