<svg xmlns="http://www.w3.org/2000/svg" width="16" height="16" fill="currentColor" viewBox="0 0 16 16"><path d="M10.354 13.012c-.199.702-.507 1.19-.88 1.5-.369.309-.85.488-1.474.488s-1.105-.18-1.474-.487c-.373-.312-.681-.799-.88-1.501L5.644 13h4.712l-.002.012ZM8.003 1.5c2.673 0 4.786 2.148 4.786 4.975l-.003 1.197v.003c0 .251.088.473.203.668.112.19.272.388.465.606l.19.211c.707.785.856 1.101.856 1.585 0 .26-.028.406-.127.593-.188.355-.628.661-1.584.661H3.211c-.99 0-1.424-.316-1.6-.675-.086-.177-.111-.31-.111-.579 0-.484.15-.8.855-1.585l.189-.21a4.12 4.12 0 0 0 .464-.608 1.31 1.31 0 0 0 .203-.67V6.475C3.21 3.65 5.327 1.5 8.003 1.5Zm-5.201-.306a.75.75 0 1 1 1.007 1.112c-.685.62-1.162 1.506-1.317 2.553a.75.75 0 0 1-1.484-.218c.202-1.37.836-2.579 1.794-3.447Zm10.396 0a.75.75 0 1 0-1.007 1.112c.685.62 1.162 1.506 1.317 2.553a.75.75 0 0 0 1.484-.218c-.203-1.37-.836-2.579-1.794-3.447Z"/></svg>
