<svg xmlns="http://www.w3.org/2000/svg" width="16" height="16" fill="currentColor" viewBox="0 0 16 16"><path d="M11.838 6.398c0-2.383-1.589-4.148-3.835-4.148-2.248 0-3.84 1.766-3.84 4.148V7.58c0 .3-.064.592-.243.907-.161.283-.406.564-.724.881l-.216.211c-.285.28-.47.482-.583.646-.112.162-.147.276-.147.38 0 .136.01.191.033.237.027.053.089.118.238.169.148.05.368.08.69.08h9.578c.312 0 .528-.031.675-.081.15-.051.218-.118.249-.176.026-.049.037-.104.037-.229 0-.104-.035-.218-.148-.38-.113-.163-.298-.366-.583-.645-.106-.104-.16-.156-.215-.212-.318-.317-.563-.598-.724-.88a1.763 1.763 0 0 1-.242-.908V6.398ZM6.22 12.592c.163.382.374.66.643.848.299.209.673.31 1.137.31.464 0 .838-.101 1.137-.31.269-.187.48-.466.643-.848H6.22Zm7.118-5.012c0 .06.005.094.046.165.059.103.187.27.478.56l.206.203c.293.288.567.573.767.861.22.318.415.728.415 1.236 0 .198-.011.558-.217.94-.26.485-.692.75-1.086.885-.368.125-.769.16-1.158.16h-1.4l-.156.411c-.243.643-.627 1.243-1.237 1.669-.614.429-1.313.58-1.996.58s-1.382-.151-1.996-.58c-.61-.426-.994-1.026-1.237-1.669l-.156-.41h-1.4c-.393 0-.798-.035-1.166-.158-.395-.133-.847-.406-1.105-.923a1.965 1.965 0 0 1-.19-.905c0-.508.194-.918.415-1.236.2-.288.474-.573.767-.86v-.001l.206-.202c.291-.29.42-.458.478-.56a.275.275 0 0 0 .046-.166V6.398c0-3.08 2.14-5.648 5.34-5.648 3.202 0 5.336 2.568 5.336 5.648V7.58Z"/></svg>