<svg xmlns="http://www.w3.org/2000/svg" width="16" height="16" viewBox="0 0 16 16" fill="currentColor"><path fill-rule="evenodd" d="M8.39.763a.75.75 0 0 1-.1 1.497 4 4 0 0 0-.287-.01c-2.248 0-3.84 1.767-3.84 4.148V7.58c-.001.3-.064.593-.243.907-.161.283-.406.565-.724.881l-.216.211c-.284.28-.47.483-.583.646-.112.161-.147.276-.147.38 0 .136.01.191.033.237.027.053.089.118.238.169.148.05.368.08.69.08h9.578c.312 0 .528-.031.675-.081.15-.051.217-.118.249-.176.026-.049.037-.105.037-.229 0-.104-.035-.219-.148-.38-.113-.163-.299-.366-.583-.645l-.215-.212c-.383-.38-.667-.717-.823-1.078a.75.75 0 0 1 1.377-.595c.036.083.144.252.504.61l.206.203c.293.286.567.573.767.861.22.318.415.728.415 1.236 0 .198-.011.558-.217.94-.26.485-.692.75-1.086.885-.368.125-.769.16-1.158.16h-1.4l-.156.411c-.243.643-.628 1.243-1.237 1.669-.614.429-1.313.58-1.996.58s-1.382-.151-1.996-.58c-.61-.426-.994-1.026-1.237-1.669l-.156-.41h-1.4c-.393 0-.798-.035-1.166-.158-.395-.133-.847-.406-1.105-.923a2 2 0 0 1-.19-.905c0-.508.194-.918.415-1.236.2-.288.474-.574.767-.86l.206-.203c.29-.29.42-.458.478-.56a.3.3 0 0 0 .046-.166V6.398c0-3.08 2.14-5.648 5.34-5.648q.196 0 .389.013M6.22 12.592c.163.382.375.66.643.848.299.209.673.31 1.137.31s.838-.101 1.137-.31c.268-.187.48-.466.643-.848z" clip-rule="evenodd"/><path d="M13.247 2.305a.75.75 0 0 1 1.065 1.056l-2.745 2.765a.834.834 0 0 1-1.177.004L9.05 4.797a.75.75 0 0 1 1.058-1.064l.866.862z"/></svg>