<svg xmlns="http://www.w3.org/2000/svg" width="16" height="16" fill="none" viewBox="0 0 16 16"><g fill="currentColor"><path d="m10.9392 11.9999 1.7805 1.7804c.2929.2929.7677.2929 1.0606 0s.2929-.7677 0-1.0606l-10.5-10.5a.75.75 0 0 0-1.0606 1.0606L3.5442 4.605c-.2156.5723-.3337 1.2016-.3337 1.8685v1.1997c0 .2515-.0872.4729-.2025.6685-.112.19-.2711.3898-.464.608-.0486.055-.094.1055-.189.2108-.706.785-.855 1.1006-.855 1.5845 0 .2686.0247.402.1115.5791.176.3592.6084.6754 1.599.6754zm3.5608-1.255c0 .2529-.0262.3971-.1182.5762l-9.024-9.024C6.1127 1.7901 7.0202 1.5 8.003 1.5c2.6737 0 4.7861 2.1478 4.7864 4.975l-.0032 1.197v.0026c.0004.2515.088.4727.2034.6679.1122.1897.2714.3892.4644.6071a26.2 26.2 0 0 0 .1891.2106c.7077.7853.8568 1.1009.8568 1.5847z"/><path d="m5.643 13 .0035.0121c.1985.7025.5068 1.1893.8798 1.501.3685.3078.85.4869 1.4737.4869.6238 0 1.1052-.1791 1.4737-.4869.373-.3117.6813-.7985.8798-1.501L10.3569 13z"/></g></svg>
