<svg xmlns="http://www.w3.org/2000/svg" width="16" height="16" viewBox="0 0 16 16" fill="currentColor"><path fill-rule="evenodd" d="M2.22 2.22a.75.75 0 0 1 1.06 0l11.5 11.5a.75.75 0 1 1-1.06 1.06l-2.285-2.284h-.046l-.156.41c-.243.644-.627 1.244-1.237 1.67-.614.428-1.313.58-1.996.58s-1.382-.152-1.996-.58c-.61-.426-.994-1.026-1.237-1.67l-.156-.41h-1.4c-.393 0-.798-.035-1.166-.158-.395-.133-.847-.405-1.105-.923a2 2 0 0 1-.19-.904c0-.51.194-.919.415-1.237.2-.288.474-.573.767-.86l.206-.203c.291-.29.42-.457.478-.56a.3.3 0 0 0 .046-.166V6.304c0-.774.136-1.516.389-2.193l-.831-.83a.75.75 0 0 1 0-1.061m4 10.277c.163.383.374.661.643.849.299.208.673.31 1.137.31s.838-.102 1.137-.31c.269-.188.48-.466.643-.849zM4.259 5.32a5 5 0 0 0-.097.985v1.181c0 .3-.063.593-.242.908-.161.283-.406.564-.724.88l-.216.211c-.285.28-.47.483-.583.646-.112.162-.147.276-.147.38 0 .137.01.191.033.237.027.053.089.119.238.169.148.05.368.08.69.08h6.725z" clip-rule="evenodd"/><path d="M8.008.75c3.2 0 5.335 2.56 5.335 5.632V7.56c0 .06.005.093.046.164.059.103.187.269.478.558l.206.202c.293.286.567.572.767.859.22.317.415.726.415 1.233 0 .555-.167 1.072-.855.943-.554-.139-.645-.494-.645-.943 0-.21-.164-.467-.732-1.022l-.214-.212c-.318-.316-.563-.596-.724-.878a1.75 1.75 0 0 1-.242-.904V6.38c0-2.376-1.589-4.135-3.835-4.135a3.9 3.9 0 0 0-1.531.305c-.338.144-.743.111-1.003-.148-.334-.332-.296-.887.126-1.1A5.3 5.3 0 0 1 8.008.75"/></svg>