<svg xmlns="http://www.w3.org/2000/svg" width="16" height="16" viewBox="0 0 16 16" fill="currentColor"><path d="M5.974 3c.357 0 .486.037.617.107q.196.106.302.302c.07.13.107.26.107.617v7.948c0 .357-.037.486-.107.617a.73.73 0 0 1-.302.302c-.13.07-.26.107-.617.107h-.948c-.357 0-.486-.037-.617-.107a.73.73 0 0 1-.302-.302c-.07-.13-.107-.26-.107-.617V4.026c0-.357.037-.486.107-.617a.73.73 0 0 1 .302-.302c.13-.07.26-.107.617-.107zm5 0c.357 0 .486.037.617.107q.196.106.302.302c.07.13.107.26.107.617v7.948c0 .357-.037.486-.107.617a.73.73 0 0 1-.302.302c-.13.07-.26.107-.617.107h-.948c-.357 0-.486-.037-.617-.107a.73.73 0 0 1-.302-.302c-.07-.13-.107-.26-.107-.617V4.026c0-.357.037-.486.107-.617a.73.73 0 0 1 .302-.302c.13-.07.26-.107.617-.107z"/></svg>