<svg xmlns="http://www.w3.org/2000/svg" width="16" height="16" fill="none" viewBox="0 0 16 16"><path fill="currentColor" d="M4 9.5a.5.5 0 0 1 .5-.5h1a.5.5 0 0 1 .5.5v1a.5.5 0 0 1-.5.5h-1a.5.5 0 0 1-.5-.5v-1Z M1.0118 5.5C1.0004 5.8392 1 6.2258 1 6.6656L1.0118 5.5ZM15 6.6653 14.9882 5.5c.0114.339.0118.7257.0118 1.1653Z" clip-rule="evenodd"/><path fill="currentColor" fill-rule="evenodd" d="M11.9531 2.0366C11.5055 2 10.9548 2 10.2814 2H5.7186c-.6734 0-1.2241 0-1.6717.0366-.4632.0378-.8816.1185-1.2724.3176a3.25 3.25 0 0 0-1.4203 1.4203c-.199.3908-.2798.8092-.3176 1.2724a9.4882 9.4882 0 0 0-.0248.4531L1 6.6656v2.6158c0 .6734 0 1.2241.0366 1.6717.0378.4632.1185.8816.3176 1.2724a3.2502 3.2502 0 0 0 1.4203 1.4203c.3908.1991.8092.2798 1.2724.3176C4.4945 14 5.0452 14 5.7186 14h4.5628c.6734 0 1.2241 0 1.6717-.0366.4632-.0378.8816-.1185 1.2724-.3176a3.2504 3.2504 0 0 0 1.4203-1.4203c.1991-.3908.2798-.8092.3176-1.2724C15 10.5055 15 9.9548 15 9.2814V6.6653L14.9882 5.5a9.4734 9.4734 0 0 0-.0248-.453c-.0378-.4633-.1185-.8817-.3176-1.2725a3.2502 3.2502 0 0 0-1.4203-1.4203c-.3908-.199-.8092-.2798-1.2724-.3176Zm-7.784 1.495c-.3705.0302-.5695.0857-.7136.1591a1.75 1.75 0 0 0-.7648.7648c-.0734.144-.1289.343-.1591.7136a7.5839 7.5839 0 0 0-.019.3309h10.9748a7.579 7.579 0 0 0-.019-.331c-.0302-.3704-.0857-.5694-.1591-.7135a1.75 1.75 0 0 0-.7648-.7648c-.1441-.0734-.3431-.1289-.7136-.1591-.3792-.031-.8685-.0316-1.5809-.0316h-4.5c-.7124 0-1.2017.0006-1.581.0316ZM2.5 9.25c0 .7124.0006 1.2017.0316 1.5809.0302.3705.0857.5695.1591.7136a1.75 1.75 0 0 0 .7648.7648c.144.0734.343.1289.7136.1591.3792.031.8685.0316 1.5809.0316h4.5c.7124 0 1.2017-.0006 1.5809-.0316.3705-.0302.5695-.0857.7136-.1591a1.7502 1.7502 0 0 0 .7648-.7648c.0734-.1441.1289-.3431.1591-.7136.031-.3792.0316-.8685.0316-1.5809V7.5h-11v1.75Z" clip-rule="evenodd"/></svg>
