<svg xmlns="http://www.w3.org/2000/svg" width="16" height="16" viewBox="0 0 16 16" fill="currentColor"><path d="M2.924 2.493c1.201-1.022 3.003-.907 4.018.3l.465.553c1.056 1.252.985 3.082-.097 4.3q.167.239.487.56c.205.204.39.367.547.495 1.236-1.092 3.06-1.158 4.31-.107l.555.467c1.206 1.015 1.32 2.82.293 4.026l-.005.006h-.002a3.1 3.1 0 0 1-2.011 1.055h.001c-2.261.305-4.5-.748-6.691-2.94C2.604 9.019 1.55 6.78 1.85 4.566a3.1 3.1 0 0 1 1.074-2.072m2.816 1.31c-.44-.524-1.245-.585-1.799-.113V3.69a1.55 1.55 0 0 0-.418.578l-.037.1q-.057.169-.073.347v.005l-.002.007c-.223 1.663.572 3.45 2.494 5.373s3.709 2.718 5.372 2.493l.014-.002a1.55 1.55 0 0 0 1.02-.528c.443-.52.416-1.26-.021-1.713l-.093-.086-.554-.468c-.666-.559-1.677-.507-2.325.141l-.397.398a.63.63 0 0 1-.662.146c-.447-.164-.973-.565-1.571-1.164-.598-.598-1-1.124-1.165-1.572a.63.63 0 0 1 .145-.662l.398-.399c.608-.607.692-1.534.239-2.195l-.102-.133z"/></svg>