<svg fill="none" height="16" viewBox="0 0 16 16" width="16" xmlns="http://www.w3.org/2000/svg"><path clip-rule="evenodd" d="m16 8c0-4.41828-3.5817-8-8-8-4.41828 0-8 3.58172-8 8 0 4.4183 3.58172 8 8 8 4.4183 0 8-3.5817 8-8zm-4.8821 1.32075c-.63-.5297-1.57752-.47422-2.17938.12769l-.32624.32627c-.08716.08726-.21705.11595-.33285.07353-.32449-.11933-.73042-.42226-1.21781-.90969-.48694-.48698-.79029-.89295-.90917-1.2179-.04253-.11572-.01401-.24561.07309-.33287l.32668-.32627c.60186-.60191.6569-1.5499.12636-2.1791l-.38304-.45529c-.43719-.52-1.22484-.5724-1.75978-.11756-.19895.17146-.34851.39293-.43323.64154-.03662.10822-.06026.2204-.07044.33419-.19593 1.45435.50543 2.98091 2.10363 4.57924 1.5982 1.59837 3.1242 2.29927 4.57888 2.10337.3779-.0361.7274-.2165.9756-.5037.4553-.5346.4025-1.3227-.1171-1.75994z" fill="currentColor" fill-rule="evenodd"/></svg>
