<svg xmlns="http://www.w3.org/2000/svg" width="16" height="16" fill="currentColor" viewBox="0 0 16 16"><path d="m9.21 9.862-.42.42a.407.407 0 0 1-.428.094c-.417-.153-.939-.543-1.565-1.17C6.17 8.582 5.78 8.06 5.628 7.642a.407.407 0 0 1 .094-.428l.42-.42c.773-.774.844-1.992.162-2.801l-.492-.586c-.562-.668-1.574-.736-2.262-.15a1.897 1.897 0 0 0-.647 1.254c-.252 1.87.65 3.832 2.703 5.887 2.055 2.055 4.016 2.957 5.886 2.705a1.896 1.896 0 0 0 1.254-.648c.585-.687.517-1.7-.15-2.263l-.586-.493c-.81-.68-2.027-.61-2.8.164ZM7.604 8.4c.299.299.56.526.77.68 1.214-1.213 3.101-1.323 4.371-.255l.585.493c1.16.976 1.275 2.715.28 3.884a3.008 3.008 0 0 1-1.967 1.033c-2.274.307-4.562-.745-6.845-3.029-2.284-2.284-3.335-4.573-3.034-6.797A3.005 3.005 0 0 1 2.81 2.384c1.164-.99 2.901-.873 3.876.287l.492.584c1.07 1.269.96 3.158-.229 4.347.13.236.356.497.656.797Z"/></svg>
