<svg xmlns="http://www.w3.org/2000/svg" width="16" height="16" viewBox="0 0 16 16" fill="currentColor"><path fill-rule="evenodd" d="M1.829 3.148c-.329.645-.329 1.49-.329 3.18v3.343c0 1.69 0 2.536.329 3.181.29.568.75 1.03 1.319 1.32.645.328 1.49.328 3.18.328h3.343c1.69 0 2.536 0 3.181-.329a3 3 0 0 0 1.32-1.319c.328-.645.328-1.49.328-3.18V6.328c0-1.69 0-2.536-.329-3.181a3 3 0 0 0-1.319-1.32c-.645-.328-1.49-.328-3.18-.328H6.328c-1.69 0-2.536 0-3.181.329a3.02 3.02 0 0 0-1.32 1.319m3.6 6.148-1.169 1.75c-.22.33-.33.495-.322.632.007.12.065.23.16.302.109.082.307.082.702.082h6.367c.42 0 .629 0 .739-.086a.4.4 0 0 0 .156-.312c.002-.14-.123-.308-.375-.644L9.738 8.422c-.176-.235-.264-.352-.372-.394a.4.4 0 0 0-.294 0c-.108.042-.197.16-.373.394l-1.467 1.956-.723-1.082c-.18-.27-.271-.405-.385-.453a.4.4 0 0 0-.31 0c-.114.048-.204.183-.385.453" clip-rule="evenodd"/></svg>