<svg xmlns="http://www.w3.org/2000/svg" width="16" height="16" fill="currentColor" viewBox="0 0 16 16"><path fill-rule="evenodd" d="M10.31 3.51a1.593 1.593 0 0 1-.411.709L8.285 5.832a1.593 1.593 0 0 1-1.126.466H4.692l2.535 2.474 2.481 2.538V8.845c0-.423.168-.828.467-1.126l1.613-1.613c.198-.197.442-.338.707-.41L10.31 3.51Zm-1.445-.913c0-.952 1.176-1.479 1.878-.777l3.441 3.445c.673.673.214 1.875-.777 1.875h-.492a.093.093 0 0 0-.066.027L11.235 8.78a.092.092 0 0 0-.027.065v2.817c0 1.173-1.454 1.82-2.316.96l-.006-.007-2.195-2.246-3.913 3.914a.75.75 0 0 1-1.06-1.06L5.63 9.308 3.38 7.114c-.83-.831-.254-2.316.96-2.316h2.82a.09.09 0 0 0 .065-.028l1.614-1.612a.092.092 0 0 0 .027-.065v-.496Z" clip-rule="evenodd"/></svg>
