<svg fill="none" height="16" viewBox="0 0 16 16" width="16" xmlns="http://www.w3.org/2000/svg"><path clip-rule="evenodd" d="m12.5 7c0 1.7722-1.1401 3.5947-2.56346 5.1265-.61607.663-.92512.9838-1.20942 1.179-.18993.1304-.36204.2015-.72712.2015s-.53719-.0711-.72712-.2015c-.2843-.1952-.59335-.516-1.20942-1.179-1.42339-1.5318-2.56346-3.3543-2.56346-5.1265 0-2.27177 1.8192-4.5 4.5-4.5s4.5 2.22823 4.5 4.5zm1.5 0c0 2.362-1.4765 4.5461-2.9646 6.1476-1.15189 1.2396-1.72781 1.8524-3.0354 1.8524s-1.88352-.6128-3.03537-1.8524c-1.48812-1.6015-2.96463-3.7856-2.96463-6.1476 0-3 2.39401-6 6-6 3.606 0 6 3 6 6zm-6-2c-1.10457 0-2 .89543-2 2s.89543 2 2 2 2-.89543 2-2-.89543-2-2-2z" fill="currentColor" fill-rule="evenodd"/></svg>
