<svg xmlns="http://www.w3.org/2000/svg" width="16" height="16" fill="currentColor" viewBox="0 0 16 16"><path fill-rule="evenodd" d="M14 7.5a6 6 0 0 0-12 0v.008c-.243.017-.366.06-.488.126a.909.909 0 0 0-.378.378c-.088.163-.134.324-.134.77v1.56c0 .297.046.483.134.646a.906.906 0 0 0 .378.378c.163.088.349.134.646.134h.184c.297 0 .483-.046.646-.134a.908.908 0 0 0 .378-.378c.088-.162.134-.349.134-.646V7.5l.005-.212A4.5 4.5 0 0 1 12.5 7.5v2.842c0 .297.046.483.134.646a.906.906 0 0 0 .378.378c.162.088.349.134.646.134h.184c.297 0 .483-.046.646-.134a.908.908 0 0 0 .378-.378c.088-.162.134-.349.134-.646v-1.56c0-.446-.046-.607-.134-.77a.908.908 0 0 0-.378-.378c-.122-.066-.244-.109-.488-.134Zm-6-3c-.828 0-1.58.337-2.121.879A2.993 2.993 0 0 0 5 7.5v3a2.998 2.998 0 0 0 2.25 2.905v.866c0 .164.03.29.087.396.056.106.14.19.246.246a.816.816 0 0 0 .396.087h.042a.81.81 0 0 0 .396-.087.591.591 0 0 0 .246-.245.816.816 0 0 0 .087-.396v-.867A2.997 2.997 0 0 0 11 10.5v-3c0-.828-.337-1.58-.879-2.121A2.993 2.993 0 0 0 8 4.5Zm-.608 5.4H6.5v.6c0 .414.167.788.44 1.06.272.273.646.44 1.06.44a1.49 1.49 0 0 0 1.06-.44 1.49 1.49 0 0 0 .44-1.06v-3a1.49 1.49 0 0 0-.44-1.06A1.493 1.493 0 0 0 8 6a1.49 1.49 0 0 0-1.06.44A1.49 1.49 0 0 0 6.5 7.5v1h.892c.183 0 .27.023.352.067a.454.454 0 0 1 .19.189c.043.081.066.169.066.352v.184c0 .183-.023.27-.067.352a.454.454 0 0 1-.189.19c-.081.043-.169.066-.352.066Z" clip-rule="evenodd"/></svg>
