<svg xmlns="http://www.w3.org/2000/svg" width="16" height="16" fill="currentColor" viewBox="0 0 16 16"><path d="M2.5 9V5.65c0-.407-.001-.759.022-1.046.025-.297.079-.592.223-.875a2.25 2.25 0 0 1 .984-.984c.283-.144.578-.198.875-.223C4.89 2.5 5.243 2.5 5.65 2.5H9A.75.75 0 1 1 9 4H5.65c-.432 0-.712 0-.924.018-.204.016-.28.045-.317.064a.75.75 0 0 0-.327.327c-.019.037-.048.113-.064.317C4 4.938 4 5.218 4 5.65V9a.75.75 0 0 1-1.5 0Zm11-2v3.35c0 .407.001.759-.023 1.046a2.292 2.292 0 0 1-.222.875 2.25 2.25 0 0 1-.984.984 2.292 2.292 0 0 1-.875.222c-.287.024-.639.023-1.046.023H7A.75.75 0 0 1 7 12h3.35c.432 0 .712 0 .924-.018.204-.016.28-.045.317-.064a.75.75 0 0 0 .327-.327c.019-.037.048-.113.064-.317A12.8 12.8 0 0 0 12 10.35V7a.75.75 0 0 1 1.5 0Z"/></svg>
