<svg fill="none" height="16" viewBox="0 0 16 16" width="16" xmlns="http://www.w3.org/2000/svg"><circle cx="8" cy="8" fill="#e03fab" r="8"/><g fill="#fff"><path d="m7.16349 4.81901c-.16349.32087-.16349.74091-.16349 1.58099v.2c0 .84008 0 1.26012.16349 1.58099.14381.28224.37328.51171.65552.65552.32087.16349.74091.16349 1.58099.16349h.2c.8401 0 1.2601 0 1.581-.16349.2822-.14381.5117-.37328.6555-.65552.1635-.32087.1635-.74091.1635-1.58099v-.2c0-.84008 0-1.26012-.1635-1.58099-.1438-.28224-.3733-.51171-.6555-.65552-.3209-.16349-.7409-.16349-1.581-.16349h-.2c-.84008 0-1.26012 0-1.58099.16349-.28224.14381-.51171.37328-.65552.65552z"/><path d="m4.81901 7.16349c.17831-.09085.38724-.13121.68186-.14915.00338.60188.01998.95845.10135 1.26212.2774 1.03528 1.08605 1.84394 2.12132 2.12134.30367.0814.66024.0979 1.26212.1013-.01794.2947-.0583.5036-.14915.6819-.14381.2822-.37328.5117-.65552.6555-.32087.1635-.74091.1635-1.58099.1635h-.2c-.84008 0-1.26012 0-1.58099-.1635-.28224-.1438-.51171-.3733-.65552-.6555-.16349-.3209-.16349-.7409-.16349-1.581v-.2c0-.84007 0-1.26011.16349-1.58098.14381-.28224.37328-.51172.65552-.65553z"/></g></svg>
