<svg xmlns="http://www.w3.org/2000/svg" width="16" height="16" viewBox="0 0 16 16" fill="currentColor"><path fill-rule="evenodd" d="M3.508 5.984C3.724 6 4.014 6 4.5 6s.776 0 .992-.016c.134-.009.19-.02.205-.025a.5.5 0 0 0 .262-.262 1.3 1.3 0 0 0 .025-.205C6 5.276 6 4.986 6 4.5s0-.776-.016-.992a1.3 1.3 0 0 0-.025-.205.5.5 0 0 0-.262-.262 1.3 1.3 0 0 0-.205-.025A17 17 0 0 0 4.5 3c-.486 0-.776 0-.992.016a1.3 1.3 0 0 0-.205.025.5.5 0 0 0-.262.262 1.3 1.3 0 0 0-.025.205A17 17 0 0 0 3 4.5c0 .486 0 .776.016.992.009.134.02.19.025.205a.5.5 0 0 0 .262.262c.014.004.071.016.205.025m-1.856-3.25C1.5 3.103 1.5 3.569 1.5 4.5s0 1.398.152 1.765a2 2 0 0 0 1.083 1.083c.367.152.833.152 1.765.152s1.398 0 1.765-.152a2 2 0 0 0 1.083-1.083C7.5 5.898 7.5 5.432 7.5 4.5s0-1.398-.152-1.765a2 2 0 0 0-1.083-1.083C5.898 1.5 5.432 1.5 4.5 1.5s-1.398 0-1.765.152a2 2 0 0 0-1.083 1.083m1.856 10.249c.216.015.506.016.992.016s.776 0 .992-.016c.134-.009.19-.02.205-.025a.5.5 0 0 0 .262-.262 1.3 1.3 0 0 0 .025-.205C6 12.276 6 11.986 6 11.5s0-.776-.016-.992a1.3 1.3 0 0 0-.025-.205.5.5 0 0 0-.262-.262 1.3 1.3 0 0 0-.205-.025A17 17 0 0 0 4.5 10c-.486 0-.776 0-.992.016-.134.009-.19.02-.205.025a.5.5 0 0 0-.262.262 1.3 1.3 0 0 0-.025.205C3 10.724 3 11.014 3 11.5s0 .776.016.992c.009.134.02.19.025.205a.5.5 0 0 0 .262.262c.014.004.071.016.205.025m-1.856-3.25c-.152.368-.152.834-.152 1.766s0 1.398.152 1.765a2 2 0 0 0 1.083 1.083c.367.152.833.152 1.765.152s1.398 0 1.765-.152a2 2 0 0 0 1.083-1.083c.152-.367.152-.833.152-1.765s0-1.398-.152-1.765a2 2 0 0 0-1.083-1.083C5.898 8.5 5.432 8.5 4.5 8.5s-1.398 0-1.765.152a2 2 0 0 0-1.083 1.083m8.856-3.751c.216.015.506.016.992.016s.776 0 .992-.016c.134-.009.19-.02.205-.025a.5.5 0 0 0 .262-.262c.004-.014.016-.071.025-.205C13 5.276 13 4.986 13 4.5s0-.776-.016-.992a1.3 1.3 0 0 0-.025-.205.5.5 0 0 0-.262-.262 1.3 1.3 0 0 0-.205-.025A17 17 0 0 0 11.5 3c-.486 0-.776 0-.992.016a1.3 1.3 0 0 0-.205.025.5.5 0 0 0-.262.262 1.3 1.3 0 0 0-.025.205C10 3.724 10 4.014 10 4.5s0 .776.016.992c.009.134.02.19.025.205a.5.5 0 0 0 .262.262c.014.004.071.016.205.025m-1.856-3.25C8.5 3.103 8.5 3.569 8.5 4.5s0 1.398.152 1.765a2 2 0 0 0 1.083 1.083c.367.152.833.152 1.765.152s1.398 0 1.765-.152a2 2 0 0 0 1.083-1.083c.152-.367.152-.833.152-1.765s0-1.398-.152-1.765a2 2 0 0 0-1.083-1.083C12.898 1.5 12.432 1.5 11.5 1.5s-1.398 0-1.765.152a2 2 0 0 0-1.083 1.083" clip-rule="evenodd"/><path d="M9 9.8c0-.28 0-.42.055-.527a.5.5 0 0 1 .218-.218C9.38 9 9.52 9 9.8 9h.4c.28 0 .42 0 .527.055a.5.5 0 0 1 .218.218C11 9.38 11 9.52 11 9.8v.4c0 .28 0 .42-.055.527a.5.5 0 0 1-.218.218C10.62 11 10.48 11 10.2 11h-.4c-.28 0-.42 0-.527-.055a.5.5 0 0 1-.218-.218C9 10.62 9 10.48 9 10.2zm0 3c0-.28 0-.42.055-.527a.5.5 0 0 1 .218-.218C9.38 12 9.52 12 9.8 12h.4c.28 0 .42 0 .527.055a.5.5 0 0 1 .218.218c.055.107.055.247.055.527v.4c0 .28 0 .42-.055.527a.5.5 0 0 1-.218.218C10.62 14 10.48 14 10.2 14h-.4c-.28 0-.42 0-.527-.055a.5.5 0 0 1-.218-.218C9 13.62 9 13.48 9 13.2zm3-3c0-.28 0-.42.055-.527a.5.5 0 0 1 .218-.218C12.38 9 12.52 9 12.8 9h.4c.28 0 .42 0 .527.055a.5.5 0 0 1 .218.218C14 9.38 14 9.52 14 9.8v.4c0 .28 0 .42-.055.527a.5.5 0 0 1-.218.218C13.62 11 13.48 11 13.2 11h-.4c-.28 0-.42 0-.527-.055a.5.5 0 0 1-.218-.218C12 10.62 12 10.48 12 10.2zm0 3c0-.28 0-.42.055-.527a.5.5 0 0 1 .218-.218C12.38 12 12.52 12 12.8 12h.4c.28 0 .42 0 .527.055a.5.5 0 0 1 .218.218c.055.107.055.247.055.527v.4c0 .28 0 .42-.055.527a.5.5 0 0 1-.218.218C13.62 14 13.48 14 13.2 14h-.4c-.28 0-.42 0-.527-.055a.5.5 0 0 1-.218-.218C12 13.62 12 13.48 12 13.2zM3.75 4.31c0-.196 0-.294.038-.369a.35.35 0 0 1 .153-.153c.075-.038.173-.038.369-.038h.38c.196 0 .294 0 .369.038a.35.35 0 0 1 .153.153c.038.075.038.173.038.369v.38c0 .196 0 .294-.038.369a.35.35 0 0 1-.153.153c-.075.038-.173.038-.369.038h-.38c-.196 0-.294 0-.369-.038a.35.35 0 0 1-.153-.153c-.038-.075-.038-.173-.038-.369zm0 7c0-.196 0-.294.038-.369a.35.35 0 0 1 .153-.153c.075-.038.173-.038.369-.038h.38c.196 0 .294 0 .369.038a.35.35 0 0 1 .153.153c.038.075.038.173.038.369v.38c0 .196 0 .294-.038.369a.35.35 0 0 1-.153.153c-.075.038-.173.038-.369.038h-.38c-.196 0-.294 0-.369-.038a.35.35 0 0 1-.153-.153c-.038-.075-.038-.173-.038-.369zm7-7c0-.196 0-.294.038-.369a.35.35 0 0 1 .153-.153c.075-.038.173-.038.369-.038h.38c.196 0 .294 0 .369.038a.35.35 0 0 1 .153.153c.038.075.038.173.038.369v.38c0 .196 0 .294-.038.369a.35.35 0 0 1-.153.153c-.075.038-.173.038-.369.038h-.38c-.196 0-.294 0-.369-.038a.35.35 0 0 1-.153-.153c-.038-.075-.038-.173-.038-.369z"/></svg>