<svg xmlns="http://www.w3.org/2000/svg" width="16" height="16" fill="none" viewBox="0 0 16 16"><path fill="currentColor" fill-rule="evenodd" d="M3.5078 5.9844C3.7238 5.9992 4.0135 6 4.5 6c.4865 0 .7762-.0008.9922-.0156.1337-.009.1905-.0213.2052-.025a.5.5 0 0 0 .262-.262c.0037-.0147.016-.0715.025-.2052C5.9992 5.2762 6 4.9865 6 4.5c0-.4865-.0008-.7762-.0156-.9922-.009-.1337-.0213-.1905-.025-.2052a.5.5 0 0 0-.262-.262c-.0147-.0037-.0715-.016-.2052-.025C5.2762 3.0008 4.9865 3 4.5 3c-.4865 0-.7762.0008-.9922.0156-.1337.009-.1905.0213-.2052.025a.5.5 0 0 0-.262.262c-.0037.0147-.016.0715-.025.2052C3.0008 3.7238 3 4.0135 3 4.5c0 .4865.0008.7762.0156.9922.009.1337.0213.1905.025.2052a.5.5 0 0 0 .262.262c.0147.0037.0715.016.2052.025ZM1.6522 2.7346C1.5 3.1022 1.5 3.5681 1.5 4.5c0 .9319 0 1.3978.1522 1.7654a2 2 0 0 0 1.0824 1.0824C3.1022 7.5 3.5681 7.5 4.5 7.5c.9319 0 1.3978 0 1.7654-.1522a2 2 0 0 0 1.0824-1.0824C7.5 5.8978 7.5 5.4319 7.5 4.5c0-.9319 0-1.3978-.1522-1.7654a2 2 0 0 0-1.0824-1.0824C5.8978 1.5 5.4319 1.5 4.5 1.5c-.9319 0-1.3978 0-1.7654.1522a2 2 0 0 0-1.0824 1.0824Zm1.8556 10.2498c.216.0148.5057.0156.9922.0156.4865 0 .7762-.0008.9922-.0156.1337-.0091.1905-.0213.2052-.025a.5003.5003 0 0 0 .262-.262c.0037-.0147.016-.0715.025-.2052.0148-.216.0156-.5057.0156-.9922 0-.4865-.0008-.7762-.0156-.9922-.009-.1337-.0213-.1905-.025-.2052a.5003.5003 0 0 0-.262-.262c-.0147-.0037-.0715-.0159-.2052-.025C5.2762 10.0008 4.9865 10 4.5 10c-.4865 0-.7762.0008-.9922.0156-.1337.0091-.1905.0213-.2052.025a.5003.5003 0 0 0-.262.262c-.0037.0147-.016.0715-.025.2052-.0148.216-.0156.5057-.0156.9922 0 .4865.0008.7762.0156.9922.009.1337.0213.1905.025.2052a.5003.5003 0 0 0 .262.262c.0147.0037.0715.0159.2052.025ZM1.6522 9.7346C1.5 10.1022 1.5 10.5681 1.5 11.5c0 .9319 0 1.3978.1522 1.7654.203.49.5924.8794 1.0824 1.0824.3676.1522.8335.1522 1.7654.1522.9319 0 1.3978 0 1.7654-.1522.49-.203.8794-.5924 1.0824-1.0824C7.5 12.8978 7.5 12.4319 7.5 11.5c0-.9319 0-1.3978-.1522-1.7654a2 2 0 0 0-1.0824-1.0824C5.8978 8.5 5.4319 8.5 4.5 8.5c-.9319 0-1.3978 0-1.7654.1522a2 2 0 0 0-1.0824 1.0824Zm8.8556-3.7502c.216.0148.5057.0156.9922.0156.4865 0 .7762-.0008.9922-.0156.1337-.009.1905-.0213.2052-.025a.5003.5003 0 0 0 .262-.262c.0037-.0147.0159-.0715.025-.2052.0148-.216.0156-.5057.0156-.9922 0-.4865-.0008-.7762-.0156-.9922-.0091-.1337-.0213-.1905-.025-.2052a.5003.5003 0 0 0-.262-.262c-.0147-.0037-.0715-.016-.2052-.025C12.2762 3.0008 11.9865 3 11.5 3c-.4865 0-.7762.0008-.9922.0156-.1337.009-.1905.0213-.2052.025a.5003.5003 0 0 0-.262.262c-.0037.0147-.0159.0715-.025.2052-.0148.216-.0156.5057-.0156.9922 0 .4865.0008.7762.0156.9922.0091.1337.0213.1905.025.2052a.5003.5003 0 0 0 .262.262c.0147.0037.0715.016.2052.025ZM8.6522 2.7346C8.5 3.1022 8.5 3.5681 8.5 4.5c0 .9319 0 1.3978.1522 1.7654a2 2 0 0 0 1.0824 1.0824c.3676.1522.8335.1522 1.7654.1522.9319 0 1.3978 0 1.7654-.1522.49-.203.8794-.5924 1.0824-1.0824C14.5 5.8978 14.5 5.4319 14.5 4.5c0-.9319 0-1.3978-.1522-1.7654a2.0003 2.0003 0 0 0-1.0824-1.0824C12.8978 1.5 12.4319 1.5 11.5 1.5c-.9319 0-1.3978 0-1.7654.1522a2 2 0 0 0-1.0824 1.0824Z" clip-rule="evenodd"/><path fill="currentColor" d="M9 9.8c0-.28 0-.42.0545-.527a.5.5 0 0 1 .2185-.2185C9.38 9 9.52 9 9.8 9h.4c.28 0 .42 0 .527.0545a.4996.4996 0 0 1 .2185.2185C11 9.38 11 9.52 11 9.8v.4c0 .28 0 .42-.0545.527a.4994.4994 0 0 1-.2185.2185C10.62 11 10.48 11 10.2 11h-.4c-.28 0-.42 0-.527-.0545a.4996.4996 0 0 1-.2185-.2185C9 10.62 9 10.48 9 10.2v-.4Zm0 3c0-.28 0-.42.0545-.527a.4996.4996 0 0 1 .2185-.2185C9.38 12 9.52 12 9.8 12h.4c.28 0 .42 0 .527.0545a.4994.4994 0 0 1 .2185.2185C11 12.38 11 12.52 11 12.8v.4c0 .28 0 .42-.0545.527a.4994.4994 0 0 1-.2185.2185C10.62 14 10.48 14 10.2 14h-.4c-.28 0-.42 0-.527-.0545a.4996.4996 0 0 1-.2185-.2185C9 13.62 9 13.48 9 13.2v-.4Zm3-3c0-.28 0-.42.0545-.527a.4996.4996 0 0 1 .2185-.2185C12.38 9 12.52 9 12.8 9h.4c.28 0 .42 0 .527.0545a.4996.4996 0 0 1 .2185.2185C14 9.38 14 9.52 14 9.8v.4c0 .28 0 .42-.0545.527a.4994.4994 0 0 1-.2185.2185C13.62 11 13.48 11 13.2 11h-.4c-.28 0-.42 0-.527-.0545a.4994.4994 0 0 1-.2185-.2185C12 10.62 12 10.48 12 10.2v-.4Zm0 3c0-.28 0-.42.0545-.527a.4994.4994 0 0 1 .2185-.2185C12.38 12 12.52 12 12.8 12h.4c.28 0 .42 0 .527.0545a.4994.4994 0 0 1 .2185.2185C14 12.38 14 12.52 14 12.8v.4c0 .28 0 .42-.0545.527a.4994.4994 0 0 1-.2185.2185C13.62 14 13.48 14 13.2 14h-.4c-.28 0-.42 0-.527-.0545a.4994.4994 0 0 1-.2185-.2185C12 13.62 12 13.48 12 13.2v-.4ZM3.75 4.31c0-.196 0-.294.0381-.3689a.35.35 0 0 1 .153-.153C4.016 3.75 4.114 3.75 4.31 3.75h.38c.196 0 .294 0 .3689.0381a.35.35 0 0 1 .153.153c.0381.0749.0381.1729.0381.3689v.38c0 .196 0 .294-.0381.3689a.35.35 0 0 1-.153.153C4.984 5.25 4.886 5.25 4.69 5.25h-.38c-.196 0-.294 0-.3689-.0381a.35.35 0 0 1-.153-.153C3.75 4.984 3.75 4.886 3.75 4.69v-.38Zm0 7c0-.196 0-.294.0381-.3689a.3501.3501 0 0 1 .153-.153c.0749-.0381.1729-.0381.3689-.0381h.38c.196 0 .294 0 .3689.0381a.3501.3501 0 0 1 .153.153c.0381.0749.0381.1729.0381.3689v.38c0 .196 0 .294-.0381.3689a.3501.3501 0 0 1-.153.153c-.0749.0381-.1729.0381-.3689.0381h-.38c-.196 0-.294 0-.3689-.0381a.3501.3501 0 0 1-.153-.153C3.75 11.984 3.75 11.886 3.75 11.69v-.38Zm7-7c0-.196 0-.294.0381-.3689a.3501.3501 0 0 1 .153-.153c.0749-.0381.1729-.0381.3689-.0381h.38c.196 0 .294 0 .3689.0381a.3501.3501 0 0 1 .153.153c.0381.0749.0381.1729.0381.3689v.38c0 .196 0 .294-.0381.3689a.3501.3501 0 0 1-.153.153c-.0749.0381-.1729.0381-.3689.0381h-.38c-.196 0-.294 0-.3689-.0381a.3501.3501 0 0 1-.153-.153C10.75 4.984 10.75 4.886 10.75 4.69v-.38Z"/></svg>
