<svg xmlns="http://www.w3.org/2000/svg" width="16" height="16" fill="currentColor" viewBox="0 0 16 16"><path fill-rule="evenodd" d="M14.5 7.766C14.5 4.582 11.59 2 8 2S1.5 4.582 1.5 7.766c0 1.554.693 2.964 1.82 4-.11.646-.44 1.493-.994 2.54l-.126.235a.313.313 0 0 0 .117.42.294.294 0 0 0 .22.03c1.723-.443 2.954-1.002 3.692-1.675A7.28 7.28 0 0 0 8 13.531c3.59 0 6.5-2.581 6.5-5.766Zm-6.884-1.91c-.082.057-.17.156-.224.348a.75.75 0 1 1-1.443-.408c.141-.5.421-.9.808-1.17.38-.266.82-.376 1.247-.376 1.204 0 2.083 1.036 2.083 2.083 0 .818-.54 1.353-.842 1.653l-.044.044c-.377.377-.447.496-.447.637a.75.75 0 0 1-1.5 0c0-.818.539-1.353.841-1.653l.045-.044c.376-.377.447-.496.447-.637 0-.286-.272-.583-.583-.583-.172 0-.3.044-.388.105Zm1.22 4.977a.833.833 0 1 1-1.666 0 .833.833 0 0 1 1.666 0Z" clip-rule="evenodd"/></svg>
