<svg xmlns="http://www.w3.org/2000/svg" width="16" height="16" fill="currentColor" viewBox="0 0 16 16"><path d="M8.511.912a.723.723 0 1 0-1.022 1.023l.558.558h-.046a6.08 6.08 0 0 0-4.314 1.788A6.09 6.09 0 0 0 1.9 8.597c0 1.685.684 3.212 1.787 4.315A6.083 6.083 0 0 0 8 14.7a6.08 6.08 0 0 0 4.312-1.788A6.088 6.088 0 0 0 14.1 8.597a.723.723 0 1 0-1.446 0c0 1.286-.52 2.45-1.363 3.293a4.636 4.636 0 0 1-3.29 1.363 4.638 4.638 0 0 1-3.292-1.363 4.642 4.642 0 0 1-1.363-3.293c0-1.286.52-2.45 1.363-3.293A4.639 4.639 0 0 1 8 3.94h.044l-.556.558A.724.724 0 0 0 8.51 5.521l1.793-1.793a.724.724 0 0 0 0-1.022L8.51.912Z"/></svg>
