<svg fill="none" height="16" viewBox="0 0 16 16" width="16" xmlns="http://www.w3.org/2000/svg"><path d="m8 2.75v1.19536c0 .13527-.10966.24492-.24492.24492-.04528 0-.08968-.01255-.12825-.03626l-3.01013-1.85021c-.11524-.07083-.15123-.22167-.0804-.3369.02012-.03274.04766-.06028.0804-.08041l3.01013-1.8502013c.11523-.0708314.26607-.03483371.3369.0804033.02372.038576.03627.08297.03627.128251v1.005047c3.7279 0 6.75 3.02208 6.75 6.75 0 3.7279-3.0221 6.75-6.75 6.75-3.41631 0-6.23877-2.5373-6.68781-5.83048-.05596-.41042.23139-.78849.6418-.84445.41042-.05596.78849.23138.84445.6418.34907 2.56013 2.54552 4.53313 5.20156 4.53313 2.8995 0 5.25-2.3505 5.25-5.25s-2.3505-5.25-5.25-5.25z" fill="currentColor"/></svg>
