<svg xmlns="http://www.w3.org/2000/svg" width="16" height="16" fill="none" viewBox="0 0 16 16"><path fill="currentColor" fill-rule="evenodd" d="M8.1128 3.5025c-.0172.0015-.0392.0074-.067.0295L2.5535 7.898a.1305.1305 0 0 0 0 .2042l5.4923 4.3659c.0278.0221.0498.0279.067.0295a.137.137 0 0 0 .0708-.0142.1371.1371 0 0 0 .0552-.0467c.0094-.0144.0185-.0352.0185-.0708v-2.3025c0-.4142.3357-.75.7497-.75 1.3455 0 2.4142.1881 3.3533.6052.3375.1499.6509.3261.9485.5263-.1959-.836-.5337-1.5537-.9935-2.1426-.7581-.9711-1.8951-1.6541-3.4363-1.9213a.75.75 0 0 1-.6217-.739V3.634c0-.0355-.009-.0564-.0185-.0708a.1374.1374 0 0 0-.0552-.0466.1372.1372 0 0 0-.0709-.0142ZM7.113 2.3576c1.068-.849 2.6437-.0881 2.6437 1.2765v1.3997c1.5708.3918 2.8405 1.1924 3.7404 2.3452 1.0111 1.2952 1.5077 2.9732 1.5077 4.871a.7497.7497 0 0 1-1.2901.5199c-.6726-.6996-1.2691-1.1723-1.9628-1.4804-.5397-.2397-1.1726-.3948-1.9951-.4518v1.5281c0 1.3647-1.5758 2.1255-2.6438 1.2766l-5.4924-4.366c-.8211-.6527-.8211-1.9002 0-2.553L7.113 2.3577Z" clip-rule="evenodd"/></svg>
