<svg fill="none" height="16" viewBox="0 0 16 16" width="16" xmlns="http://www.w3.org/2000/svg"><path d="m8.58255 1.9137.0619-.08675c.19169-.22364.51227-.27151.75785-.12793l.08817.06285 3.27153 2.80557.0399.04209c.1917.22364.19.54777.0105.7685l-.0756.07753-3.24633 2.78257c-.10874.09321-.24724.14445-.39047.14445-.29823 0-.54565-.21759-.59215-.50268l-.00785-.09732v-1.78317l-3.5.00059c-.51284 0-.93551.38604-.99327.88338l-.00673.11662v4c0 .5128.38604.9355.88338.9933l.11662.0067h4c.55228 0 1 .4477 1 1 0 .5128-.38604.9355-.88338.9933l-.11662.0067h-4c-1.59768 0-2.90366-1.2489-2.99491-2.8237l-.00509-.1763v-4c0-1.59768 1.24892-2.90366 2.82373-2.99491l.17627-.00509 3.5-.00059v-1.78199c0-.10742.02882-.21218.08255-.30372l.0619-.08675z" fill="currentColor"/></svg>
