<svg xmlns="http://www.w3.org/2000/svg" width="16" height="16" fill="none" viewBox="0 0 16 16"><path fill="currentColor" fill-rule="evenodd" d="M10.0738 2.5H5.9262a.4934.4934 0 0 0-.3489.1445L2.6445 5.5773a.4935.4935 0 0 0-.1445.349v4.1475c0 .1309.052.2564.1445.3489l2.9328 2.9328a.4936.4936 0 0 0 .349.1445h4.1475a.4934.4934 0 0 0 .3489-.1445l2.9328-2.9328a.4936.4936 0 0 0 .1445-.3489V5.9262a.4936.4936 0 0 0-.1445-.3489l-2.9328-2.9328a.4933.4933 0 0 0-.3489-.1445ZM5.9262 1c-.5287 0-1.0357.21-1.4096.5839L1.584 4.5166A1.9934 1.9934 0 0 0 1 5.9262v4.1476c0 .5287.21 1.0357.5839 1.4096l2.9327 2.9327A1.9933 1.9933 0 0 0 5.9262 15h4.1476c.5287 0 1.0357-.21 1.4096-.5839l2.9327-2.9327A1.9934 1.9934 0 0 0 15 10.0738V5.9262c0-.5287-.21-1.0357-.5839-1.4096L11.4834 1.584A1.9936 1.9936 0 0 0 10.0738 1H5.9262Z" clip-rule="evenodd"/><path fill="currentColor" fill-rule="evenodd" d="M8 4a.75.75 0 0 1 .75.75v3.5a.75.75 0 0 1-1.5 0v-3.5A.75.75 0 0 1 8 4Z" clip-rule="evenodd"/><path fill="currentColor" d="M8.9 11.1a.9.9 0 0 1-.9.9.9.9 0 1 1 .9-.9Z"/></svg>
