<svg xmlns="http://www.w3.org/2000/svg" width="16" height="16" fill="currentColor" viewBox="0 0 16 16"><path d="M11.975 9.916a.365.365 0 0 1 .593.205l.134.705a.704.704 0 0 1-.194.629l-3.014 3.014a.705.705 0 0 1-1.152-.235l-.682-1.696c-.074-.184.058-.387.253-.418.563-.091 1.157-.33 1.714-.617a13.432 13.432 0 0 0 2.348-1.587Zm-9.461 1.073a1.76 1.76 0 1 1 2.49 2.49c-.765.766-2.413.943-3.135.984a.318.318 0 0 1-.338-.338c.04-.722.218-2.37.983-3.136Z M7.433 4.078C10.795.716 14.157.716 14.717 1.276c.56.56.56 3.922-2.801 7.284-1.681 1.681-4.483 3.362-5.324 2.522L4.912 9.4c-.84-.84.84-3.642 2.521-5.323Zm4.592-.109a1.058 1.058 0 1 0-1.495 1.497 1.058 1.058 0 0 0 1.495-1.497Z" clip-rule="evenodd"/><path d="m5.168 3.292.705.133c.27.052.381.381.205.593A13.432 13.432 0 0 0 4.49 6.367c-.288.556-.527 1.15-.617 1.714-.032.194-.234.327-.417.254L1.759 7.65a.704.704 0 0 1-.234-1.15l3.014-3.014a.704.704 0 0 1 .629-.194Z"/></svg>
