<svg xmlns="http://www.w3.org/2000/svg" width="16" height="16" fill="none" viewBox="0 0 16 16"><path fill="currentColor" fill-rule="evenodd" d="M8 2.5C4.9624 2.5 2.5 4.9624 2.5 8s2.4624 5.5 5.5 5.5 5.5-2.4624 5.5-5.5S11.0376 2.5 8 2.5ZM1 8c0-3.866 3.134-7 7-7s7 3.134 7 7-3.134 7-7 7-7-3.134-7-7Z M7 6.5c0 .5523-.4477 1-1 1s-1-.4477-1-1 .4477-1 1-1 1 .4477 1 1Zm4 0c0 .5523-.4477 1-1 1s-1-.4477-1-1 .4477-1 1-1 1 .4477 1 1Z M5.5505 11.3485a.75.75 0 0 0 1.0499-.151c.3202-.4279.8294-.7029 1.4035-.7029.574 0 1.0832.275 1.4034.7029a.75.75 0 0 0 1.0498.151.7499.7499 0 0 0 .1511-1.0498c-.5915-.7904-1.5382-1.304-2.6044-1.304s-2.0128.5136-2.6043 1.304a.75.75 0 0 0 .151 1.0498Z" clip-rule="evenodd"/></svg>
