<svg xmlns="http://www.w3.org/2000/svg" width="16" height="16" fill="currentColor" viewBox="0 0 16 16"><path d="M5.719 2h4.562c.674 0 1.224 0 1.672.037.463.037.882.118 1.273.317a3.25 3.25 0 0 1 1.42 1.42c.29.571.336 1.224.35 2.018a.75.75 0 0 1-1.5.025c-.014-.81-.072-1.136-.187-1.361a1.75 1.75 0 0 0-.764-.765c-.145-.074-.344-.13-.714-.16-.38-.03-.869-.031-1.581-.031h-4.5c-.712 0-1.202 0-1.58.032-.371.03-.57.085-.714.159a1.75 1.75 0 0 0-.765.765c-.074.144-.13.343-.16.713-.027.333-.03.75-.03 1.33l3.492-1.367a1.75 1.75 0 0 1 2.383 1.764l-.17 2.216a.25.25 0 0 0 .425.196L10.72 7.22a.75.75 0 1 1 1.06 1.06l-2.088 2.09c-1.149 1.149-3.107.248-2.982-1.372l.17-2.216a.25.25 0 0 0-.34-.252L2.5 8.109V9.25c0 .712 0 1.202.032 1.58.03.371.085.57.159.714.168.33.435.598.765.765.144.074.343.13.713.16.38.03.869.031 1.581.031h1.379a.75.75 0 0 1 0 1.5h-1.41c-.674 0-1.225 0-1.672-.037-.463-.037-.882-.118-1.272-.317a3.25 3.25 0 0 1-1.42-1.42c-.2-.391-.28-.81-.318-1.273C1 10.506 1 9.955 1 9.281V6.72c0-.674 0-1.225.037-1.672.037-.463.118-.882.317-1.272a3.25 3.25 0 0 1 1.42-1.42c.391-.2.81-.28 1.273-.318C4.494 2 5.045 2 5.719 2ZM15.3 8.205a.7.7 0 0 0-.992 0l-.496.496 1.487 1.487.496-.496a.7.7 0 0 0 0-.991l-.496-.496Zm-.687 2.669-1.487-1.487-3.037 3.037c-.307.307-.54.683-.677 1.095l-.4 1.204a.21.21 0 0 0 .265.266l1.204-.401c.412-.138.787-.37 1.095-.678l3.037-3.036Z"/></svg>
