<svg xmlns="http://www.w3.org/2000/svg" width="16" height="16" fill="currentColor" viewBox="0 0 16 16"><path d="M10.281 2H5.72c-.674 0-1.225 0-1.672.037-.463.037-.882.118-1.272.317a3.25 3.25 0 0 0-1.42 1.42c-.2.391-.28.81-.318 1.273-.03.352-.035.767-.037 1.256l2.993-1.17a1.75 1.75 0 0 1 2.383 1.763l-.17 2.216a.25.25 0 0 0 .425.196L8.72 7.22a.75.75 0 1 1 1.06 1.06l-2.088 2.09c-1.15 1.149-3.107.248-2.982-1.372l.17-2.216a.25.25 0 0 0-.34-.252L1 7.914v1.367c0 .674 0 1.224.037 1.672.037.463.118.882.317 1.273a3.25 3.25 0 0 0 1.42 1.42c.391.199.81.28 1.273.317.447.037.998.037 1.672.037H7.67l.318-.955a4.304 4.304 0 0 1 1.04-1.682l4.218-4.218A2.196 2.196 0 0 1 15 6.509c0-.58-.004-1.062-.037-1.462-.037-.463-.118-.882-.317-1.272a3.25 3.25 0 0 0-1.42-1.42c-.391-.2-.81-.28-1.273-.318C11.506 2 10.955 2 10.281 2Zm4.027 6.205a.7.7 0 0 1 .991 0l.496.496a.7.7 0 0 1 0 .991l-.496.496L13.812 8.7l.496-.496Zm-1.182 1.182 1.487 1.487-3.037 3.036c-.308.308-.683.54-1.096.678l-1.203.4a.21.21 0 0 1-.266-.265l.401-1.204c.138-.412.37-.788.677-1.095l3.037-3.037Z"/></svg>
