<svg fill="none" height="16" viewBox="0 0 16 16" width="16" xmlns="http://www.w3.org/2000/svg"><path d="m6.50006 1c3.03759 0 5.50004 2.46256 5.50004 5.50029 0 1.24839-.4159 2.39964-1.1166 3.32275l3.8956 3.90026c.2927.2931.2924.768-.0006 1.0607-.2931.2927-.768.2924-1.0607-.0006l-3.89514-3.8995c-.92307.7008-2.07427 1.1167-3.3226 1.1167-3.0376 0-5.50006-2.46258-5.50006-5.50031s2.46246-5.50029 5.50006-5.50029zm0 1.5c-2.20916 0-4.00006 1.79098-4.00006 4.00029 0 2.20932 1.7909 4.00031 4.00006 4.00031 2.20915 0 4.00004-1.79099 4.00004-4.00031 0-2.20931-1.79089-4.00029-4.00004-4.00029z" fill="currentColor"/></svg>
