<svg xmlns="http://www.w3.org/2000/svg" width="16" height="16" fill="currentColor" viewBox="0 0 16 16"><path d="M7.758.174a.255.255 0 0 1 .484 0l.194.583c.127.38.426.68.807.807l.583.194a.255.255 0 0 1 0 .484l-.583.194c-.38.127-.68.426-.807.807l-.194.583a.255.255 0 0 1-.484 0l-.194-.583a1.276 1.276 0 0 0-.807-.807l-.583-.194a.255.255 0 0 1 0-.484l.583-.194c.38-.127.68-.426.807-.807l.194-.583ZM4.986 4.389a.75.75 0 0 0-.943-1.167 5.5 5.5 0 0 0 6.78 8.661l2.397 2.397a.75.75 0 1 0 1.06-1.06l-2.397-2.398c.052-.067.101-.136.15-.207a.75.75 0 1 0-1.236-.85A4 4 0 1 1 4.986 4.39Zm7.377-2.127a.383.383 0 0 0-.726 0l-.291.873a1.914 1.914 0 0 1-1.21 1.21l-.874.292a.383.383 0 0 0 0 .726l.873.291c.572.19 1.02.64 1.21 1.21l.292.874c.116.35.61.35.726 0l.291-.873c.19-.572.64-1.02 1.21-1.21l.874-.292a.383.383 0 0 0 0-.726l-.873-.291a1.914 1.914 0 0 1-1.21-1.21l-.292-.874Z"/></svg>
