<svg xmlns="http://www.w3.org/2000/svg" width="16" height="16" fill="none" viewBox="0 0 16 16"><path fill="currentColor" d="m14.7431 13.5741-3.833-3.8345a5.4255 5.4255 0 0 0 1.05-3.232C11.947 3.4744 9.4937 1.0176 6.4606 1A5.436 5.436 0 0 0 1 6.468c.0131 3.0334 2.4666 5.4904 5.5 5.508a5.4089 5.4089 0 0 0 3.2415-1.0615l.004-.003 3.8295 3.8315a.8266.8266 0 1 0 1.168-1.169Zm-8.247-2.696c-2.4266-.014-4.3894-1.9794-4.4-4.406a4.35 4.35 0 0 1 4.368-4.3745c2.4266.014 4.3893 1.9794 4.4 4.406a4.35 4.35 0 0 1-4.368 4.3745Z"/></svg>
