<svg xmlns="http://www.w3.org/2000/svg" width="16" height="16" fill="currentColor" viewBox="0 0 16 16"><path fill-rule="evenodd" d="M8.252 5.262c.151.366.48.694 1.135 1.35.657.657.985.985 1.35 1.136a1.992 1.992 0 0 0 1.525 0c.366-.151.694-.48 1.35-1.136.657-.656.985-.984 1.136-1.35a1.992 1.992 0 0 0 0-1.524c-.151-.366-.48-.694-1.135-1.35-.657-.657-.985-.985-1.35-1.136a1.992 1.992 0 0 0-1.525 0c-.366.151-.694.48-1.35 1.136-.657.656-.985.984-1.136 1.35a1.992 1.992 0 0 0 0 1.524Zm3.595.982c.162-.142.367-.345.71-.688a16.2 16.2 0 0 0 .687-.71c.088-.1.12-.149.127-.161a.498.498 0 0 0 0-.37 1.268 1.268 0 0 0-.127-.162 16.537 16.537 0 0 0-.688-.71 16.476 16.476 0 0 0-.71-.687c-.1-.088-.149-.12-.162-.127a.498.498 0 0 0-.368 0 1.27 1.27 0 0 0-.163.127c-.162.142-.367.345-.71.688a16.2 16.2 0 0 0-.687.71c-.088.1-.12.149-.127.162a.498.498 0 0 0 0 .369c.008.012.04.061.127.162.142.162.345.367.688.71.342.342.547.545.71.687.1.088.149.12.162.127.118.047.25.047.368 0a1.32 1.32 0 0 0 .163-.127ZM1.5 4.5c0-.932 0-1.398.152-1.765a2 2 0 0 1 1.083-1.083C3.102 1.5 3.568 1.5 4.5 1.5c.932 0 1.398 0 1.765.152a2 2 0 0 1 1.083 1.083c.152.367.152.833.152 1.765 0 .932 0 1.398-.152 1.766a2 2 0 0 1-1.083 1.082C5.898 7.5 5.432 7.5 4.5 7.5c-.932 0-1.398 0-1.765-.152a2 2 0 0 1-1.083-1.082C1.5 5.898 1.5 5.432 1.5 4.5Zm3 1.5c-.486 0-.776 0-.992-.015a1.28 1.28 0 0 1-.205-.025.5.5 0 0 1-.262-.262 1.28 1.28 0 0 1-.025-.206A16.58 16.58 0 0 1 3 4.5c0-.486 0-.776.016-.992.009-.134.02-.19.025-.205a.5.5 0 0 1 .262-.262c.014-.004.071-.016.205-.025C3.724 3 4.014 3 4.5 3s.776.001.992.016c.134.009.19.021.205.025a.5.5 0 0 1 .262.262c.004.014.016.071.025.205C6 3.724 6 4.014 6 4.5c0 .487 0 .776-.016.992a1.28 1.28 0 0 1-.025.206.5.5 0 0 1-.262.262 1.28 1.28 0 0 1-.205.025C5.276 5.999 4.986 6 4.5 6Zm-3 5.5c0-.932 0-1.398.152-1.765a2 2 0 0 1 1.083-1.083C3.102 8.5 3.568 8.5 4.5 8.5c.932 0 1.398 0 1.765.152a2 2 0 0 1 1.083 1.083c.152.367.152.833.152 1.765 0 .932 0 1.398-.152 1.765a2 2 0 0 1-1.083 1.083c-.367.152-.833.152-1.765.152-.932 0-1.398 0-1.765-.152a2 2 0 0 1-1.083-1.083C1.5 12.898 1.5 12.432 1.5 11.5Zm3 1.5c-.486 0-.776 0-.992-.015a1.266 1.266 0 0 1-.205-.025.5.5 0 0 1-.262-.263 1.279 1.279 0 0 1-.025-.205A16.583 16.583 0 0 1 3 11.5c0-.486 0-.776.016-.992.009-.134.02-.19.025-.205a.5.5 0 0 1 .262-.262c.014-.004.071-.016.205-.025C3.724 10 4.014 10 4.5 10s.776.001.992.016c.134.009.19.021.205.025a.5.5 0 0 1 .262.262c.004.014.016.071.025.205.015.216.016.506.016.992 0 .487 0 .776-.016.992-.009.134-.02.19-.025.205a.5.5 0 0 1-.262.263 1.266 1.266 0 0 1-.205.025c-.216.014-.506.015-.992.015Zm4-1.5c0-.932 0-1.398.152-1.765a2 2 0 0 1 1.083-1.083c.367-.152.833-.152 1.765-.152.932 0 1.398 0 1.765.152a2 2 0 0 1 1.083 1.083c.152.367.152.833.152 1.765 0 .932 0 1.398-.152 1.765a2 2 0 0 1-1.083 1.083c-.367.152-.833.152-1.765.152-.932 0-1.398 0-1.765-.152a2 2 0 0 1-1.083-1.083C8.5 12.898 8.5 12.432 8.5 11.5Zm3 1.5c-.486 0-.776 0-.992-.015a1.265 1.265 0 0 1-.205-.025.5.5 0 0 1-.262-.263 1.286 1.286 0 0 1-.025-.205A16.519 16.519 0 0 1 10 11.5c0-.486 0-.776.016-.992.009-.134.02-.19.025-.205a.5.5 0 0 1 .262-.262c.014-.004.071-.016.205-.025.216-.015.506-.016.992-.016s.776.001.992.016c.134.009.19.021.205.025a.5.5 0 0 1 .262.262c.004.014.016.071.025.205.015.216.016.506.016.992 0 .487 0 .776-.016.992-.009.134-.02.19-.025.205a.5.5 0 0 1-.262.263 1.265 1.265 0 0 1-.205.025c-.216.014-.506.015-.992.015Z" clip-rule="evenodd"/></svg>
