<svg xmlns="http://www.w3.org/2000/svg" width="16" height="16" viewBox="0 0 16 16" fill="currentColor"><path d="M5.398 9c.557 0 .759.058.963.167s.363.269.472.472c.109.204.167.406.167.963v1.796c0 .557-.058.759-.167.963a1.14 1.14 0 0 1-.472.472c-.204.109-.406.167-.963.167H3.602c-.557 0-.759-.058-.963-.167a1.14 1.14 0 0 1-.472-.473c-.109-.203-.167-.405-.167-.962v-1.796c0-.557.058-.759.167-.963s.269-.363.472-.472c.204-.109.406-.167.963-.167zm7 0c.557 0 .759.058.963.167s.363.269.472.472c.109.204.167.406.167.963v1.796c0 .557-.058.759-.167.963a1.14 1.14 0 0 1-.473.472c-.203.109-.405.167-.962.167h-1.796c-.557 0-.759-.058-.963-.167a1.14 1.14 0 0 1-.472-.473c-.109-.203-.167-.405-.167-.962v-1.796c0-.557.058-.759.167-.963q.166-.306.472-.472c.204-.109.406-.167.963-.167zm-.564-7.465c.221.067.405.169.8.563l1.268 1.269c.394.394.496.578.563.799.067.22.067.447 0 .668s-.169.405-.563.8l-1.269 1.268c-.394.394-.578.496-.799.563a1.14 1.14 0 0 1-.668 0c-.221-.067-.405-.169-.8-.563L9.099 5.633c-.394-.394-.496-.578-.563-.799a1.14 1.14 0 0 1 0-.668c.067-.221.169-.405.563-.8l1.269-1.268c.394-.394.578-.496.799-.563s.447-.067.668 0M5.398 2c.557 0 .759.058.963.167s.363.269.472.472c.109.204.167.406.167.963v1.796c0 .557-.058.759-.167.963a1.14 1.14 0 0 1-.472.472c-.204.109-.406.167-.963.167H3.602c-.557 0-.759-.058-.963-.167a1.14 1.14 0 0 1-.472-.472C2.058 6.157 2 5.955 2 5.398V3.602c0-.557.058-.759.167-.963s.269-.363.472-.472c.204-.109.406-.167.963-.167z"/></svg>