<svg xmlns="http://www.w3.org/2000/svg" width="16" height="16" fill="currentColor" viewBox="0 0 16 16"><path fill-rule="evenodd" d="M7.887 3.502c.017.002.04.008.067.03l5.493 4.366a.13.13 0 0 1 0 .204l-5.493 4.366a.122.122 0 0 1-.067.03.137.137 0 0 1-.07-.015.137.137 0 0 1-.056-.046.122.122 0 0 1-.018-.071v-2.303a.75.75 0 0 0-.75-.75c-1.345 0-2.414.188-3.353.605-.338.15-.651.327-.949.527.196-.836.534-1.554.994-2.143.758-.97 1.895-1.654 3.436-1.921a.75.75 0 0 0 .622-.74V3.635c0-.035.009-.056.018-.07a.137.137 0 0 1 .055-.047.137.137 0 0 1 .071-.015Zm1-1.144c-1.068-.85-2.644-.089-2.644 1.276v1.4c-1.57.392-2.84 1.192-3.74 2.345C1.492 8.674.995 10.352.995 12.25a.75.75 0 0 0 1.29.52c.673-.7 1.27-1.172 1.963-1.48.54-.24 1.173-.395 1.995-.452v1.528c0 1.364 1.576 2.125 2.644 1.276l5.492-4.366a1.63 1.63 0 0 0 0-2.553L8.887 2.358Z" clip-rule="evenodd"/></svg>
