<svg xmlns="http://www.w3.org/2000/svg" width="16" height="16" fill="currentColor" viewBox="0 0 16 16"><path fill-rule="evenodd" d="M2.416 3.013a10.14 10.14 0 0 0-.666-.011.75.75 0 0 1 0-1.5h.025c.285 0 .54 0 .752.015.228.017.46.055.694.157a2.043 2.043 0 0 1 1.02.988l7.972.413c.413.021.773.04 1.062.08.301.044.62.121.905.322.403.284.683.71.785 1.191.072.34.017.665-.062.959-.077.282-.201.62-.345 1.008l-.323.874c-.368.999-.623 1.688-1.08 2.21a3.75 3.75 0 0 1-1.483 1.034c-.65.248-1.384.248-2.448.247h-2.66c-.292 0-.551 0-.768-.016a2.069 2.069 0 0 1-.708-.164 2.05 2.05 0 0 1-.868-.736 2.07 2.07 0 0 1-.277-.671 10.862 10.862 0 0 1-.142-.755L3.046 4.1a10.14 10.14 0 0 0-.12-.655.635.635 0 0 0-.067-.195.55.55 0 0 0-.24-.203.636.636 0 0 0-.203-.035ZM4.58 4.181l.697 4.206c.053.32.087.52.123.67.035.14.06.182.07.197a.55.55 0 0 0 .233.198.634.634 0 0 0 .206.036c.154.011.356.012.68.012h2.49c1.267 0 1.7-.012 2.057-.148a2.25 2.25 0 0 0 .89-.62c.252-.287.413-.69.852-1.878l.262-.709c.158-.427.258-.701.315-.91.027-.1.038-.164.042-.206a.288.288 0 0 0 .001-.04v-.01a.45.45 0 0 0-.182-.276l-.01-.005a.298.298 0 0 0-.036-.014 1.253 1.253 0 0 0-.206-.043c-.215-.03-.506-.046-.961-.07l-7.523-.39Z M6.5 13.252a1.25 1.25 0 1 1-2.5 0 1.25 1.25 0 0 1 2.5 0Zm4.75 1.25a1.25 1.25 0 1 0 0-2.5 1.25 1.25 0 0 0 0 2.5Z"/></svg>
