<svg xmlns="http://www.w3.org/2000/svg" width="16" height="16" fill="none" viewBox="0 0 16 16"><path fill="currentColor" fill-rule="evenodd" d="M1.9035 3.0396c-.1112-.0322-.2618-.0395-.8744-.0395H.75a.75.75 0 0 1 0-1.5h.3724c.4705-.0005.8549-.0008 1.1986.0988A2.5 2.5 0 0 1 3.8844 2.93c.011.023.0214.0465.0314.0701h8.9029c.3241 0 .5997 0 .8251.0133.2333.0138.4693.044.6999.1306a2.2498 2.2498 0 0 1 1.4385 1.8094c.0325.2443.0087.481-.0305.7114-.0378.2226-.1.4911-.173.8068l-.5552 2.3991c-.0837.3636-.1566.6804-.3028.9505a2.2501 2.2501 0 0 1-1.3815 1.0983c-.2961.0815-.6212.0812-.9943.0808H6.1101c-.3966.0004-.7414.0008-1.0514-.089a2.2502 2.2502 0 0 1-1.407-1.198c-.1382-.2916-.1929-.6321-.2557-1.0237l-.6886-4.2607c-.0978-.6046-.129-.7522-.1786-.8568a1 1 0 0 0-.6253-.5324ZM4.2383 4.5l.6248 3.8655c.085.5253.1098.6332.1441.7057a.75.75 0 0 0 .469.3993c.0771.0223.1875.0296.7196.0296h6.0691c.4994 0 .6023-.0066.6761-.0269a.7498.7498 0 0 0 .4605-.3661c.0364-.0673.0661-.1661.1786-.6526l.5323-2.3001c.0793-.3425.131-.5675.1605-.7412.0291-.1708.0259-.236.0224-.262a.7499.7499 0 0 0-.4795-.6032c-.0246-.0093-.0874-.027-.2604-.0373-.1759-.0104-.4067-.0107-.7582-.0107H4.2383Z M4.5 13.25c0-.6904.5596-1.25 1.25-1.25S7 12.5596 7 13.25s-.5596 1.25-1.25 1.25-1.25-.5596-1.25-1.25ZM12.25 12c-.6904 0-1.25.5596-1.25 1.25s.5596 1.25 1.25 1.25 1.25-.5596 1.25-1.25S12.9404 12 12.25 12Z"/></svg>
