<svg xmlns="http://www.w3.org/2000/svg" width="16" height="16" fill="currentColor" viewBox="0 0 16 16"><path d="M1.036 1.623c.296 0 .558 0 .777.015.228.017.46.055.694.158.366.16.677.423.895.757.048.075.087.152.122.229l3.29.169a.75.75 0 0 1-.077 1.498l-2.87-.147.697 4.207c.053.32.086.519.123.668a.64.64 0 0 0 .07.199.55.55 0 0 0 .232.197.639.639 0 0 0 .207.036c.153.012.355.012.68.012h4.584c.443 0 .841-.272 1.001-.685a.75.75 0 1 1 1.399.542 2.573 2.573 0 0 1-2.4 1.643H5.875c-.302 0-.57 0-.793-.017a2.071 2.071 0 0 1-.708-.163 2.052 2.052 0 0 1-.868-.736 2.068 2.068 0 0 1-.276-.671 11.254 11.254 0 0 1-.147-.78l-.75-4.533a10.16 10.16 0 0 0-.12-.654.638.638 0 0 0-.068-.194.552.552 0 0 0-.24-.204.648.648 0 0 0-.203-.034c-.15-.012-.348-.012-.666-.012a.75.75 0 1 1 0-1.5Zm4.75 11.75a1.25 1.25 0 1 1-2.5 0 1.25 1.25 0 0 1 2.5 0Zm6 0a1.25 1.25 0 1 1-2.5 0 1.25 1.25 0 0 1 2.5 0ZM11.5 6.25V4.5H9.75a.75.75 0 0 1 0-1.5h1.75V1.25a.75.75 0 0 1 1.5 0V3h1.75a.75.75 0 0 1 0 1.5H13v1.75a.75.75 0 0 1-1.5 0Z"/></svg>
