<svg xmlns="http://www.w3.org/2000/svg" width="16" height="16" fill="none" viewBox="0 0 16 16"><path fill="currentColor" fill-rule="evenodd" d="M12.713 2.557a.75.75 0 0 1 .8173.1627l1.25 1.25a.75.75 0 0 1 0 1.0606l-1.25 1.25A.75.75 0 0 1 12.25 5.75v-.4985c-.8649.028-1.6197.4309-2.3934 1.1126a.75.75 0 1 1-.9916-1.1255c.9236-.8138 2.0164-1.4585 3.385-1.4876V3.25a.75.75 0 0 1 .463-.693ZM1 4.5a.75.75 0 0 1 .75-.75c2.8463 0 4.6551 2.0505 6.1295 3.7602l.1637.19c.7066.8208 1.3453 1.5627 2.0357 2.1241.697.5667 1.3882.8988 2.1711.9241V10.25a.75.75 0 0 1 1.2803-.5303l1.25 1.25a.75.75 0 0 1 0 1.0606l-1.25 1.25A.75.75 0 0 1 12.25 12.75v-.501c-1.2376-.0264-2.2512-.5566-3.1174-1.2609-.6521-.5302-1.2544-1.1885-1.825-1.8444C5.9386 10.676 4.2458 12.25 1.75 12.25a.75.75 0 0 1 0-1.5c1.8665 0 3.1834-1.1872 4.5665-2.7497C4.9363 6.4425 3.6229 5.25 1.75 5.25A.75.75 0 0 1 1 4.5Z" clip-rule="evenodd"/></svg>
