<svg xmlns="http://www.w3.org/2000/svg" width="16" height="16" viewBox="0 0 16 16" fill="currentColor"><path fill-rule="evenodd" d="M8.001 1c1.4 0 2.099 0 2.65.228a3 3 0 0 1 1.623 1.622c.229.552.23 1.253.23 2.652v4.997c0 1.399-.001 2.098-.23 2.65a3 3 0 0 1-1.622 1.622C10.1 15 9.4 15 8.002 15c-1.4 0-2.1 0-2.651-.229a3 3 0 0 1-1.622-1.622C3.5 12.598 3.5 11.898 3.5 10.5V5.502c0-1.4 0-2.1.229-2.652A3 3 0 0 1 5.35 1.228C5.903 1 6.602 1 8 1m-.749 10.994a.75.75 0 1 0 0 1.5h1.5a.75.75 0 0 0 0-1.5z" clip-rule="evenodd"/></svg>