<svg xmlns="http://www.w3.org/2000/svg" width="16" height="16" fill="currentColor" viewBox="0 0 16 16"><path d="M2.5 8a5.5 5.5 0 1 1 11 0A.75.75 0 0 0 15 8a7 7 0 1 0-7 7 .75.75 0 0 0 0-1.5A5.5 5.5 0 0 1 2.5 8Z M6 7.5a1 1 0 1 0 0-2 1 1 0 0 0 0 2Zm5-1a1 1 0 1 1-2 0 1 1 0 0 1 2 0ZM6.6 9.295a.75.75 0 1 0-1.2.9 3.248 3.248 0 0 0 2.604 1.303 3.247 3.247 0 0 0 2.604-1.304.75.75 0 1 0-1.2-.899c-.32.428-.83.703-1.404.703A1.748 1.748 0 0 1 6.6 9.295ZM16 13.05a.75.75 0 0 1-.75.75h-1.5v1.45a.75.75 0 0 1-1.5 0V13.8h-1.5a.75.75 0 1 1 0-1.5h1.5v-1.55a.75.75 0 0 1 1.5 0v1.55h1.5a.75.75 0 0 1 .75.75Z"/></svg>
