<svg xmlns="http://www.w3.org/2000/svg" width="16" height="16" fill="currentColor" viewBox="0 0 16 16"><path fill-rule="evenodd" d="M4.5 2.5a.75.75 0 0 1 .75.75v7.69l.97-.97a.75.75 0 0 1 1.06 1.06l-2.25 2.25a.755.755 0 0 1-.518.22h-.024a.745.745 0 0 1-.518-.22l-2.25-2.25a.75.75 0 1 1 1.06-1.06l.97.97V3.25a.75.75 0 0 1 .75-.75Zm7 11a.75.75 0 0 1-.75-.75V5.06l-.97.97a.75.75 0 0 1-1.06-1.06l2.247-2.248a.717.717 0 0 1 .165-.126.747.747 0 0 1 .9.126L14.28 4.97a.75.75 0 0 1-1.06 1.06l-.97-.97v7.69a.75.75 0 0 1-.75.75Z" clip-rule="evenodd"/></svg>
