<svg xmlns="http://www.w3.org/2000/svg" width="16" height="16" fill="currentColor" viewBox="0 0 16 16"><path d="M7.75 12a.75.75 0 0 1 0 1.5h-6a.75.75 0 0 1 0-1.5h6Zm-1-4.75a.75.75 0 0 1 0 1.5h-5a.75.75 0 0 1 0-1.5h5Zm-1-4.75a.75.75 0 0 1 0 1.5h-4a.75.75 0 0 1 0-1.5h4Z"/><path fill-rule="evenodd" d="M12 13.5a.75.75 0 0 1-.75-.75V5.06l-.97.97a.75.75 0 1 1-1.06-1.06l2.25-2.25a.756.756 0 0 1 .518-.22h.024a.747.747 0 0 1 .518.22l2.25 2.25a.75.75 0 0 1-1.06 1.06l-.97-.97v7.69a.75.75 0 0 1-.75.75Z" clip-rule="evenodd"/></svg>