<svg xmlns="http://www.w3.org/2000/svg" width="16" height="16" fill="currentColor" viewBox="0 0 16 16"><path d="M7.75 2.5a.75.75 0 0 1 0 1.5h-6a.75.75 0 0 1 0-1.5h6Zm-1 4.75a.75.75 0 0 1 0 1.5h-5a.75.75 0 0 1 0-1.5h5Zm-1 4.75a.75.75 0 0 1 0 1.5h-4a.75.75 0 0 1 0-1.5h4Z"/><path fill-rule="evenodd" d="M12 2.5a.75.75 0 0 1 .75.75v7.69l.97-.97a.75.75 0 1 1 1.06 1.06l-2.25 2.25a.757.757 0 0 1-.518.22h-.024a.745.745 0 0 1-.518-.22l-2.25-2.25a.75.75 0 1 1 1.06-1.06l.97.97V3.25A.75.75 0 0 1 12 2.5Z" clip-rule="evenodd"/></svg>