<svg xmlns="http://www.w3.org/2000/svg" width="16" height="16" viewBox="0 0 16 16" fill="currentColor"><path d="M8.75 3.5a.75.75 0 0 1 0 1.5h-7a.75.75 0 0 1 0-1.5zm-1.5 3.75a.75.75 0 0 1 0 1.5h-5.5a.75.75 0 0 1 0-1.5zm-1.5 3.5a.75.75 0 0 1 0 1.5h-4a.75.75 0 0 1 0-1.5z"/><path fill-rule="evenodd" d="M12 2.5a.75.75 0 0 1 .75.75v7.69l.97-.97a.75.75 0 1 1 1.06 1.06l-2.25 2.25a.76.76 0 0 1-.518.22h-.024a.75.75 0 0 1-.518-.22l-2.25-2.25a.75.75 0 1 1 1.06-1.06l.97.97V3.25A.75.75 0 0 1 12 2.5" clip-rule="evenodd"/></svg>