<svg xmlns="http://www.w3.org/2000/svg" width="16" height="16" fill="currentColor" viewBox="0 0 16 16"><path fill-rule="evenodd" d="M2.5 11.5a.75.75 0 0 1 .75-.75h7.69l-.97-.97a.75.75 0 0 1 1.06-1.06l2.25 2.25a.757.757 0 0 1 .22.518v.024a.745.745 0 0 1-.22.518l-2.25 2.25a.75.75 0 1 1-1.06-1.06l.97-.97H3.25a.75.75 0 0 1-.75-.75Zm11-7a.75.75 0 0 1-.75.75H5.06l.97.97a.75.75 0 0 1-1.06 1.06L2.722 5.033a.749.749 0 0 1 0-1.066L4.97 1.72a.75.75 0 0 1 1.06 1.06l-.97.97h7.69a.75.75 0 0 1 .75.75Z" clip-rule="evenodd"/></svg>
