<svg xmlns="http://www.w3.org/2000/svg" width="16" height="16" fill="currentColor" viewBox="0 0 16 16"><path fill-rule="evenodd" d="M2.28 1.22a.75.75 0 0 0-1.06 1.06L4.1 5.16v6.09a.75.75 0 0 0 1.5 0V6.66l1.65 1.651v5.94a.75.75 0 0 0 1.5 0V9.81l4.97 4.97a.75.75 0 1 0 1.06-1.061L2.28 1.22ZM8 1a.75.75 0 0 0-.75.75v2a.75.75 0 0 0 1.5 0v-2A.75.75 0 0 0 8 1ZM1 6.75a.75.75 0 1 1 1.5 0v2.5a.75.75 0 1 1-1.5 0v-2.5Zm12.5 0a.75.75 0 0 1 1.5 0v3.252a.75.75 0 0 1-1.5 0V6.75Zm-3.1-2a.75.75 0 0 1 1.5 0v2a.75.75 0 0 1-1.5 0v-2Z" clip-rule="evenodd"/></svg>
