<svg xmlns="http://www.w3.org/2000/svg" width="16" height="16" fill="currentColor" viewBox="0 0 16 16"><path d="M9.121 3.544c-.514-1.604-.77-2.406-.914-2.485a.361.361 0 0 0-.396 0c-.143.08-.399.882-.91 2.488-.306.962-.678 1.796-1.115 2.233-.438.438-1.272.809-2.235 1.115-1.608.512-2.413.768-2.492.91a.361.361 0 0 0 0 .397c.079.143.882.4 2.49.915.963.308 1.799.681 2.237 1.119.438.438.81 1.27 1.117 2.23.51 1.596.766 2.395.908 2.473.143.08.253.08.396 0 .143-.078.4-.876.913-2.471.309-.96.682-1.793 1.121-2.232.44-.44 1.274-.815 2.235-1.127 1.592-.517 2.388-.776 2.466-.919a.361.361 0 0 0-.001-.396c-.08-.142-.878-.396-2.474-.902-.957-.304-1.788-.674-2.226-1.112-.438-.438-.81-1.273-1.12-2.236Z"/></svg>
