<svg xmlns="http://www.w3.org/2000/svg" width="16" height="16" viewBox="0 0 16 16" fill="currentColor"><path d="M1.326 10.835a.75.75 0 0 1 1.002-.35l5.67 2.735 5.679-2.732a.75.75 0 0 1 .65 1.353l-5.796 2.788a1.23 1.23 0 0 1-1.066-.001l-5.79-2.791a.75.75 0 0 1-.349-1.002m-.002-2.892a.75.75 0 0 1 1.002-.35l5.672 2.734 5.677-2.73a.75.75 0 0 1 .65 1.352l-5.793 2.787a1.23 1.23 0 0 1-1.067 0l-5.791-2.79a.75.75 0 0 1-.35-1.003m6.278-6.626c.26-.09.542-.09.802 0l.128.052 5.51 2.625c.876.417.932 1.613.164 2.128l-.164.094L8.524 8.84a1.23 1.23 0 0 1-1.055 0L1.958 6.22c-.936-.446-.934-1.777-.001-2.222l5.517-2.629zM3.113 5.108l4.883 2.32 4.889-2.324-4.882-2.326z"/></svg>