<svg xmlns="http://www.w3.org/2000/svg" width="16" height="16" fill="currentColor" viewBox="0 0 16 16"><path fill-rule="evenodd" d="M9.781 1.5H6.22c-.674 0-1.225 0-1.672.037-.463.037-.882.118-1.272.317a3.25 3.25 0 0 0-1.42 1.42c-.2.391-.28.81-.318 1.273-.037.447-.037.998-.037 1.672V9.78c0 .674 0 1.224.037 1.672.037.463.118.882.317 1.273a3.25 3.25 0 0 0 1.42 1.42c.391.199.81.28 1.273.317.447.037.998.037 1.672.037h3.56c.674 0 1.224 0 1.672-.037.463-.037.882-.118 1.273-.317a3.25 3.25 0 0 0 1.42-1.42c.199-.391.28-.81.317-1.273.037-.447.037-.998.037-1.672V6.22c0-.674 0-1.225-.037-1.672-.037-.463-.118-.882-.317-1.272a3.25 3.25 0 0 0-1.42-1.42c-.391-.2-.81-.28-1.273-.318-.447-.037-.998-.037-1.672-.037Z" clip-rule="evenodd"/></svg>
