<svg xmlns="http://www.w3.org/2000/svg" width="16" height="16" viewBox="0 0 16 16" fill="currentColor"><path d="M3.53.275a.402.402 0 0 0-.762 0l-.305.916c-.2.6-.671 1.07-1.271 1.27l-.917.306a.402.402 0 0 0 0 .763l.917.305c.6.2 1.07.67 1.27 1.27l.306.917c.123.367.64.367.763 0l.306-.916c.2-.6.67-1.07 1.27-1.27l.918-.306a.402.402 0 0 0 0-.763l-.918-.305c-.6-.2-1.07-.67-1.27-1.27zm5.692 3.367c.105-.38.81-.38.916 0 .368 1.329.96 2.977 1.78 3.799.822.82 2.471 1.412 3.8 1.78.38.105.38.81 0 .916l-.276.079c-1.274.371-2.758.936-3.523 1.701l-.152.163c-.743.863-1.284 2.39-1.63 3.636l-.026.066c-.153.29-.71.29-.863 0l-.026-.066c-.368-1.33-.96-2.978-1.781-3.799-.822-.821-2.471-1.412-3.8-1.78-.38-.105-.38-.811 0-.916 1.329-.368 2.978-.96 3.8-1.78.821-.822 1.413-2.47 1.78-3.799m.458 3.113c-.3.618-.685 1.252-1.18 1.746-.493.493-1.126.877-1.744 1.178.618.3 1.251.684 1.745 1.178s.878 1.127 1.179 1.746c.3-.619.684-1.253 1.178-1.746s1.127-.878 1.744-1.178c-.617-.3-1.25-.685-1.744-1.178-.494-.494-.878-1.128-1.178-1.746"/></svg>