<svg xmlns="http://www.w3.org/2000/svg" width="16" height="16" viewBox="0 0 16 16" fill="currentColor"><path d="M3.53.275a.402.402 0 0 0-.762 0l-.305.916c-.2.6-.671 1.07-1.271 1.27l-.917.306a.402.402 0 0 0 0 .763l.917.305c.6.2 1.07.67 1.27 1.27l.306.917c.123.367.64.367.763 0l.306-.916c.2-.6.67-1.07 1.27-1.27l.918-.306a.402.402 0 0 0 0-.763l-.918-.305c-.6-.2-1.07-.67-1.27-1.27z"/><path d="M9.68 4.718c.142.436.304.885.49 1.313.31.712.71 1.43 1.219 1.94.51.509 1.228.908 1.94 1.217.429.187.877.349 1.314.49-.437.143-.885.304-1.314.49-.712.31-1.43.71-1.94 1.219s-.908 1.227-1.218 1.94c-.187.428-.35.877-.491 1.313a15 15 0 0 0-.492-1.314c-.31-.712-.708-1.43-1.217-1.94-.51-.509-1.229-.907-1.94-1.217a15 15 0 0 0-1.315-.49c.436-.142.885-.304 1.314-.49.712-.31 1.431-.709 1.94-1.218.51-.51.908-1.228 1.218-1.94.187-.428.35-.877.492-1.313M3.15 1.495a2.76 2.76 0 0 0 1.652 1.653 2.76 2.76 0 0 0-1.653 1.653 2.76 2.76 0 0 0-1.653-1.653A2.76 2.76 0 0 0 3.15 1.495"/></svg>