<svg fill="none" height="16" viewBox="0 0 16 16" width="16" xmlns="http://www.w3.org/2000/svg" xmlns:xlink="http://www.w3.org/1999/xlink"><linearGradient id="a" gradientUnits="userSpaceOnUse" x1="-8" x2="8" y1="8" y2="24"><stop offset="0" stop-color="#ffb73d"/><stop offset="1" stop-color="#ffa000"/></linearGradient><path d="m8 0c4.4183 0 8 3.58172 8 8 0 4.4183-3.5817 8-8 8-4.41828 0-8-3.5817-8-8 0-4.41828 3.58172-8 8-8zm.14752 3.45427c-.16508-.08147-.36496-.01369-.44643.15139l-1.26852 2.57029-2.83648.41217c-.07255.01054-.1396.0447-.19077.0972-.1285.13183-.1258.34286.00603.47136l2.0525 2.0007-.48453 2.82502c-.01239.0723-.00062.1466.03349.2115.08567.1629.28721.2256.45016.1399l2.53703-1.3338 2.537 1.3338c.0649.0341.1392.0459.2115.0335.1814-.0311.3033-.2035.2722-.3849l-.4845-2.82502 2.0525-2.0007c.0524-.05116.0866-.11821.0972-.19076.0264-.18218-.0998-.35133-.282-.3778l-2.83647-.41217-1.26852-2.57029c-.03244-.06574-.08565-.11894-.15139-.15139z" fill="url(#a)"/><path d="m8.14752 3.45427c-.16508-.08147-.36496-.01369-.44643.15139l-1.26852 2.57029-2.83648.41217c-.07255.01054-.1396.0447-.19077.0972-.1285.13183-.1258.34286.00603.47136l2.0525 2.0007-.48453 2.82502c-.01239.0723-.00062.1466.03349.2115.08567.1629.28721.2256.45016.1399l2.53703-1.3338 2.537 1.3338c.0649.0341.1392.0459.2115.0335.1814-.0311.3033-.2035.2722-.3849l-.4846-2.82502 2.0526-2.0007c.0524-.05116.0866-.11821.0971-.19076.0265-.18218-.0997-.35133-.2819-.3778l-2.83647-.41217-1.26852-2.57029c-.03244-.06574-.08565-.11894-.15139-.15139z" fill="#fff"/></svg>
