<svg xmlns="http://www.w3.org/2000/svg" width="16" height="16" fill="currentColor" viewBox="0 0 16 16"><path fill-rule="evenodd" d="M7.475 2.022a.594.594 0 0 1 1.06 0l1.74 3.397L14 6.011a.589.589 0 0 1 .473.413.589.589 0 0 1-.16.61l-2.658 2.49s.378 2.536.615 4.088a.578.578 0 0 1-.246.575.592.592 0 0 1-.624.039l-3.395-1.82s-2.1 1.122-3.414 1.826a.583.583 0 0 1-.615-.037.597.597 0 0 1-.255-.572c.227-1.551.596-4.099.596-4.099s-1.599-1.507-2.63-2.492a.586.586 0 0 1-.16-.608A.585.585 0 0 1 2 6.013l3.735-.594 1.74-3.397Z" clip-rule="evenodd"/></svg>
