<svg xmlns="http://www.w3.org/2000/svg" width="16" height="16" viewBox="0 0 16 16" fill="currentColor"><path d="M11.129.935a3.77 3.77 0 0 1 3.386 2.557c.12.355.175.776.263 1.409l.004.029h.002l.186 1.253c.019.122.023.243.022.363.062.554.09.988.07 1.39a7.58 7.58 0 0 1-5.13 6.795c-.583.197-1.268.308-2.342.462l-.561.1-.004-.02-.09.013-.602.084c-.435.059-.765.092-1.068.073a3.77 3.77 0 0 1-3.312-2.5c-.135-.381-.194-.836-.288-1.52l-.486-3.508C1.065 7.088.973 6.422.942 5.878c-.03-.552-.002-1.044.162-1.518a3.8 3.8 0 0 1 1.408-1.865c.412-.287.877-.45 1.416-.571.532-.12 1.198-.213 2.025-.329l3.749-.527c.633-.09 1.053-.151 1.427-.133m-.076 1.498c-.197-.01-.445.022-1.146.12l-3.75.528c-.85.12-1.445.204-1.902.307-.449.1-.702.207-.886.336-.394.276-.691.67-.849 1.124-.073.213-.107.484-.08.943.025.468.107 1.063.225 1.915l.485 3.508c.105.757.146 1.023.217 1.224a2.27 2.27 0 0 0 1.997 1.506c.212.014.479-.02 1.235-.125l.13-.019.655-.094 1.175-.207a.766.766 0 0 0 .62-.888l-.168-.94c-1.055.105-2.256-.012-3.213-.666a.75.75 0 0 1 .847-1.24c.59.403 1.45.507 2.349.396a3.41 3.41 0 0 1 2.64-2.631l1.252-.261a.76.76 0 0 0 .601-.666 77 77 0 0 0-.194-1.493c-.097-.7-.135-.948-.197-1.134a2.27 2.27 0 0 0-2.043-1.543m2.417 6.223q-.136.05-.28.082l-1.255.26a1.903 1.903 0 0 0-1.484 2.197l.204 1.15q.033.192.032.382a6.08 6.08 0 0 0 2.784-4.07M6.01 5.92c.553 0 .999.448.997 1s-.452 1-1.004 1a.995.995 0 0 1-.996-1c.002-.552.451-1 1.003-1m4.163-.757c.552 0 .998.448.996 1-.003.553-.452 1-1.004 1a.995.995 0 0 1-.996-1c.002-.552.452-1 1.004-1"/></svg>