<svg xmlns="http://www.w3.org/2000/svg" width="16" height="16" fill="currentColor" viewBox="0 0 16 16"><path d="M6.75 5a.75.75 0 0 0 0 1.5h3.5a.75.75 0 0 0 0-1.5h-3.5Zm0 2.5a.75.75 0 0 0 0 1.5h2a.75.75 0 0 0 0-1.5h-2Z M9.281 1H7.72c-.674 0-1.224 0-1.672.037-.463.037-.882.118-1.272.317a3.25 3.25 0 0 0-1.42 1.42c-.2.391-.28.81-.318 1.273C3 4.495 3 5.045 3 5.719V7.85A2.55 2.55 0 0 0 .5 10.4v2.35A2.25 2.25 0 0 0 2.75 15h6.531c.674 0 1.224 0 1.672-.037.463-.037.882-.118 1.273-.317a3.25 3.25 0 0 0 1.42-1.42c.199-.391.28-.81.317-1.273.037-.447.037-.998.037-1.671V5.718c0-.674 0-1.225-.037-1.672-.037-.463-.118-.882-.317-1.272a3.25 3.25 0 0 0-1.42-1.42c-.391-.2-.81-.28-1.273-.318C10.506 1 9.955 1 9.281 1ZM7.457 13.5H4.5V5.75c0-.712 0-1.202.032-1.58.03-.371.085-.57.159-.714a1.75 1.75 0 0 1 .765-.765c.144-.074.343-.13.713-.16.38-.03.869-.031 1.581-.031h1.5c.712 0 1.202 0 1.58.032.371.03.57.085.714.159.33.168.598.435.765.765.074.144.13.343.16.713.03.38.031.869.031 1.581v4.5c0 .712 0 1.202-.032 1.58-.03.371-.085.57-.159.714a1.75 1.75 0 0 1-.764.765c-.145.074-.344.13-.714.16-.38.03-.869.031-1.581.031H7.457ZM3 13.5h-.25a.75.75 0 0 1-.75-.75V10.4a1.05 1.05 0 0 1 1-1.049V13.5Z" clip-rule="evenodd"/></svg>
