<svg xmlns="http://www.w3.org/2000/svg" width="16" height="16" fill="currentColor" viewBox="0 0 16 16"><path fill-rule="evenodd" d="M10.123 3c.569 0 1.028 0 1.4.032.384.032.722.101 1.036.268.496.263.9.684 1.153 1.202.16.326.226.678.258 1.078.03.388.03.866.03 1.458v1.924c0 .592 0 1.07-.03 1.458-.032.4-.098.752-.258 1.079A2.698 2.698 0 0 1 12.56 12.7c-.314.167-.652.236-1.036.268-.372.032-.832.032-1.4.032H5.877c-.569 0-1.028 0-1.4-.032-.384-.032-.722-.101-1.036-.268a2.698 2.698 0 0 1-1.153-1.2c-.16-.327-.226-.68-.258-1.079C2 10.032 2 9.554 2 8.962V7.038c0-.592 0-1.07.03-1.458.032-.4.098-.752.258-1.078A2.698 2.698 0 0 1 3.44 3.3c.314-.167.652-.236 1.036-.268C4.849 3 5.308 3 5.877 3h4.246ZM3.5 10.75a.75.75 0 0 1 .75-.75h4a.75.75 0 0 1 0 1.5h-4a.75.75 0 0 1-.75-.75ZM4.25 7a.75.75 0 0 0 0 1.5h1a.75.75 0 0 0 0-1.5h-1ZM10 10.75a.75.75 0 0 1 .75-.75h1a.75.75 0 1 1 0 1.5h-1a.75.75 0 0 1-.75-.75ZM7.75 7a.75.75 0 0 0 0 1.5h4a.75.75 0 0 0 0-1.5h-4Z" clip-rule="evenodd"/></svg>
