<svg xmlns="http://www.w3.org/2000/svg" width="16" height="16" fill="currentColor" viewBox="0 0 16 16"><path fill-rule="evenodd" d="M2.22 2.22a.75.75 0 0 1 1.06 0l10.5 10.5.052.056a.75.75 0 0 1-1.056 1.056l-.056-.052-.857-.856a4.1 4.1 0 0 1-.34.045c-.372.032-.832.031-1.4.031H5.877c-.569 0-1.028 0-1.4-.031-.384-.033-.722-.102-1.036-.269a2.698 2.698 0 0 1-1.153-1.202c-.16-.326-.226-.679-.258-1.078C2 10.032 2 9.554 2 8.962V7.038c0-.592 0-1.07.03-1.458.032-.4.098-.752.258-1.078.124-.253.283-.482.472-.682l-.54-.54a.75.75 0 0 1 0-1.06ZM4.25 10a.75.75 0 0 0 0 1.5h4a.75.75 0 0 0 0-1.5h-4Zm0-3a.75.75 0 1 0 0 1.5h1a.75.75 0 0 0 0-1.5h-1Z" clip-rule="evenodd"/><path d="M10.123 3c.569 0 1.028 0 1.4.031.384.033.722.103 1.036.269.496.264.9.685 1.153 1.202.16.326.226.679.258 1.078.03.388.03.866.03 1.458v1.924c0 .592 0 1.07-.03 1.458-.012.15-.033.293-.058.432L11.56 8.5h.19a.75.75 0 0 0 0-1.5h-1.69l-4-4h4.063Z"/></svg>
