<svg xmlns="http://www.w3.org/2000/svg" width="16" height="16" viewBox="0 0 16 16" fill="currentColor"><path d="M5.87 4.77a1.106 1.106 0 1 1-.001 2.212A1.106 1.106 0 0 1 5.87 4.77"/><path fill-rule="evenodd" d="M5.974 1.5c.978 0 1.467 0 1.927.11.409.098.8.26 1.158.48.403.247.75.593 1.441 1.285l1.856 1.856C13.544 6.42 14.138 7.014 14.36 7.7a3 3 0 0 1 0 1.855l-.045.127c-.254.634-.846 1.226-1.96 2.34l-.336.335c-1.188 1.188-1.782 1.783-2.467 2.005l-.228.064c-.46.11-.939.11-1.398 0l-.228-.064c-.513-.167-.976-.543-1.677-1.221l-.79-.784-1.856-1.855c-.605-.605-.946-.946-1.187-1.292l-.098-.15a4 4 0 0 1-.394-.853l-.086-.303c-.11-.46-.11-.95-.11-1.928V5.5c0-1.225 0-1.914.183-2.426l.09-.209a2.5 2.5 0 0 1 .92-.996l.172-.097C3.4 1.5 4.1 1.5 5.5 1.5zM5.5 3c-.725 0-1.178.001-1.52.03-.324.026-.413.069-.434.08a1 1 0 0 0-.437.436c-.01.02-.053.11-.08.434C3.001 4.322 3 4.775 3 5.5v.475c0 1.05.01 1.33.07 1.578.06.255.161.499.298.722.133.217.325.423 1.068 1.165l1.856 1.856c.611.611 1.007 1.005 1.332 1.281.311.264.458.332.537.358.301.097.627.097.928 0 .08-.026.226-.094.537-.358.325-.276.72-.67 1.332-1.281l.337-.337c.611-.611 1.006-1.007 1.282-1.332.264-.311.33-.458.357-.537a1.5 1.5 0 0 0 0-.928c-.026-.08-.093-.226-.357-.537-.276-.325-.67-.721-1.281-1.333L9.438 4.436c-.742-.743-.947-.935-1.164-1.068a2.5 2.5 0 0 0-.722-.299C7.304 3.01 7.024 3 5.974 3z" clip-rule="evenodd"/></svg>