<svg xmlns="http://www.w3.org/2000/svg" width="16" height="16" viewBox="0 0 16 16" fill="currentColor"><path d="M5.868 4.768a1.105 1.105 0 1 1-.001 2.21 1.105 1.105 0 0 1 0-2.21"/><path fill-rule="evenodd" d="M5.971 1.5c.978 0 1.467 0 1.927.11.408.098.799.26 1.156.48.404.247.75.593 1.441 1.284l1.856 1.855c1.187 1.188 1.78 1.782 2.002 2.467a3 3 0 0 1 0 1.853l-.046.127c-.252.634-.844 1.225-1.957 2.339l-.337.335c-1.188 1.187-1.781 1.782-2.466 2.004l-.227.063c-.46.11-.938.11-1.398 0l-.227-.063c-.514-.167-.976-.543-1.676-1.221l-.79-.783-1.855-1.854c-.605-.605-.946-.946-1.187-1.291l-.097-.15a4 4 0 0 1-.394-.853L1.61 7.9c-.11-.46-.11-.95-.11-1.928v-.474c0-1.225 0-1.914.183-2.425l.09-.209a2.5 2.5 0 0 1 .919-.995l.172-.097C3.4 1.5 4.1 1.5 5.498 1.5zM5.498 3c-.724 0-1.177 0-1.519.028-.324.027-.414.07-.434.08a1 1 0 0 0-.437.437c-.01.02-.053.11-.08.434C3.001 4.32 3 4.774 3 5.498v.474c0 1.05.01 1.33.07 1.577a2.5 2.5 0 0 0 .298.723c.133.216.325.422 1.067 1.164L6.29 11.29c.611.611 1.007 1.005 1.332 1.28.31.265.457.332.536.358.302.098.627.098.928 0 .079-.026.225-.093.536-.357.325-.276.72-.67 1.332-1.28l.337-.337c.61-.612 1.005-1.007 1.281-1.332.264-.31.33-.457.356-.537a1.5 1.5 0 0 0 0-.927c-.025-.079-.092-.226-.356-.536-.276-.325-.67-.722-1.28-1.333L9.434 4.434c-.742-.742-.946-.934-1.163-1.067a2.5 2.5 0 0 0-.723-.299C7.301 3.01 7.02 3 5.971 3z" clip-rule="evenodd"/></svg>