<svg xmlns="http://www.w3.org/2000/svg" width="16" height="16" fill="currentColor" viewBox="0 0 16 16"><path fill-rule="evenodd" d="M5.224 1.5h.025a.75.75 0 0 1 0 1.5c-.477 0-.797 0-1.045.017-.24.017-.358.046-.435.078a1.25 1.25 0 0 0-.678.679c-.032.076-.061.193-.078.433-.016.247-.017.565-.017 1.04a.75.75 0 1 1-1.5 0V5.22c0-.442 0-.812.02-1.116.022-.316.068-.614.188-.903a2.75 2.75 0 0 1 1.493-1.494c.29-.12.59-.166.906-.187.305-.02.676-.02 1.12-.02Zm6.57 1.517A17.235 17.235 0 0 0 10.75 3a.75.75 0 0 1 0-1.5h.025c.445 0 .816 0 1.12.02.317.022.617.069.906.188a2.75 2.75 0 0 1 1.494 1.494c.12.29.166.588.187.903.02.304.02.674.02 1.116v.026a.75.75 0 0 1-1.5 0c0-.475 0-.793-.017-1.04-.016-.24-.045-.357-.077-.433a1.25 1.25 0 0 0-.679-.68c-.076-.03-.193-.06-.435-.077ZM5.002 5.248a.75.75 0 0 1 .75-.75h4.505a.75.75 0 0 1 0 1.5H5.752a.75.75 0 0 1-.75-.75Zm0 2.751a.75.75 0 0 1 .75-.75h4.505a.75.75 0 0 1 0 1.5H5.752a.75.75 0 0 1-.75-.75Zm8.752 2.002a.75.75 0 0 1 .75.75v.025c0 .444 0 .813-.02 1.117a2.825 2.825 0 0 1-.188.904 2.75 2.75 0 0 1-1.493 1.493c-.29.12-.59.166-.906.188-.304.02-.676.02-1.12.02h-.026a.75.75 0 1 1 0-1.5c.477 0 .797 0 1.045-.017.241-.016.358-.046.435-.077a1.25 1.25 0 0 0 .678-.679c.032-.077.061-.194.078-.434.017-.247.017-.565.017-1.04a.75.75 0 0 1 .75-.75Zm-5.505 1.502H5.752a.75.75 0 0 1 0-1.5h2.497a.75.75 0 0 1 0 1.5Zm-6.003-1.5a.75.75 0 0 1 .75.75c0 .475 0 .793.017 1.04.017.24.046.357.078.433.126.308.37.552.678.68.077.03.194.06.435.077.248.016.568.017 1.045.017a.75.75 0 1 1 0 1.5h-.025c-.445 0-.816 0-1.12-.02a2.83 2.83 0 0 1-.907-.188 2.75 2.75 0 0 1-1.493-1.494 2.824 2.824 0 0 1-.187-.903c-.02-.304-.02-.674-.02-1.116v-.025a.75.75 0 0 1 .75-.75Z" clip-rule="evenodd"/></svg>
