<svg xmlns="http://www.w3.org/2000/svg" width="16" height="16" fill="currentColor" viewBox="0 0 16 16"><path fill-rule="evenodd" d="M9.656 8.305c-.501.358-1.24.611-2.067.611-1.12 0-1.989-.36-2.577-.964-.587-.604-.886-1.442-.886-2.381V3.808c0-.237.072-.44.212-.586A.771.771 0 0 1 4.91 3c.23 0 .428.077.57.222.14.145.213.348.213.586v1.714c0 .625.18 1.115.514 1.45.334.333.834.524 1.498.524.843 0 1.535-.295 1.951-.692V3.808c0-.238.074-.441.214-.586A.772.772 0 0 1 10.44 3c.233 0 .431.076.572.222.14.145.211.349.211.586v7.385c0 .237-.072.44-.212.586a.772.772 0 0 1-.571.222.772.772 0 0 1-.57-.222.822.822 0 0 1-.214-.586V8.305Zm-4.904 4.696a.75.75 0 1 0 0 1.499h6.5a.75.75 0 1 0 0-1.5h-6.5Z" clip-rule="evenodd"/></svg>
