<svg xmlns="http://www.w3.org/2000/svg" width="16" height="16" fill="currentColor" viewBox="0 0 16 16"><path d="M7.876 12.248c1.125 0 2.042-.342 2.68-.936.637-.593.985-1.43.985-2.404v-5.1c0-.24-.07-.443-.209-.588a.763.763 0 0 0-.569-.22c-.235 0-.434.074-.574.22-.14.145-.21.349-.21.588v4.984c0 .607-.192 1.115-.546 1.472-.353.356-.876.57-1.557.57-.68 0-1.202-.214-1.554-.57-.352-.356-.543-.865-.543-1.472V3.808c0-.24-.072-.444-.212-.588A.773.773 0 0 0 4.995 3c-.235 0-.434.074-.574.22-.14.145-.21.349-.21.588v5.1c0 .973.349 1.81.986 2.404.637.594 1.554.936 2.68.936ZM4.752 13a.75.75 0 1 0 0 1.5h6.5a.75.75 0 1 0 0-1.5h-6.5Z"/></svg>
