<svg xmlns="http://www.w3.org/2000/svg" width="16" height="16" fill="currentColor" viewBox="0 0 16 16"><path d="M7.993 13c.748 0 1.215-.49 1.215-1.271V8.824h.041l3.048 3.685c.254.316.556.491 1.009.491.672 0 1.194-.504 1.194-1.163 0-.29-.062-.579-.309-.868l-2.793-3.241 2.725-3.013a.939.939 0 0 0 .254-.666c0-.612-.481-1.049-1.133-1.049-.343 0-.597.108-.838.397l-3.15 3.672h-.048V4.27c0-.779-.467-1.27-1.215-1.27s-1.215.49-1.215 1.271v2.798H6.73L3.593 3.397A1.007 1.007 0 0 0 2.75 3c-.652 0-1.132.437-1.132 1.042 0 .242.061.485.254.7l2.71 3.026-2.779 3.208c-.24.296-.302.578-.302.867 0 .66.508 1.157 1.187 1.157.447 0 .755-.175 1.01-.49l3.04-3.686h.041v2.905c0 .78.467 1.271 1.215 1.271Z"/></svg>
