<svg xmlns="http://www.w3.org/2000/svg" width="16" height="16" viewBox="0 0 16 16" fill="currentColor"><path d="M12 3a1 1 0 1 1 2 0v5a1 1 0 1 1-2 0zm-1 1.35c0-.56 0-.84-.109-1.054a1 1 0 0 0-.437-.437C10.24 2.75 9.96 2.75 9.4 2.75H5.5c-.697 0-1.045 0-1.335.058a3 3 0 0 0-2.357 2.357c-.058.29-.058.638-.058 1.335s0 1.045.058 1.335a3 3 0 0 0 2.357 2.357c.29.058.638.058 1.335.058h.75v2.62a1.38 1.38 0 0 0 2.731.285l.65-3.072c.045-.216.068-.323.112-.421a1 1 0 0 1 .152-.24c.07-.082.158-.149.334-.282l.33-.25c.278-.212.441-.54.441-.89z"/></svg>