<svg xmlns="http://www.w3.org/2000/svg" width="16" height="16" viewBox="0 0 16 16" fill="currentColor"><path d="M3.75 13.25a1 1 0 1 1-2 0v-5a1 1 0 0 1 2 0zm1-1.35c0 .56 0 .84.109 1.054a1 1 0 0 0 .437.437c.214.109.494.109 1.054.109h3.9c.697 0 1.046 0 1.335-.058a3 3 0 0 0 2.357-2.357c.058-.29.058-.638.058-1.335s0-1.046-.058-1.335a3 3 0 0 0-2.357-2.357C11.295 6 10.947 6 10.25 6H9.5V3.38a1.38 1.38 0 0 0-2.731-.285l-.65 3.072c-.045.215-.068.323-.112.421a1 1 0 0 1-.152.24c-.07.082-.158.149-.334.282l-.33.25c-.278.212-.441.54-.441.89z"/></svg>