<svg xmlns="http://www.w3.org/2000/svg" width="16" height="16" fill="none" viewBox="0 0 16 16"><path fill="currentColor" fill-rule="evenodd" d="m11.5587 1.778.224.224a.7518.7518 0 0 1 .1087.9255.8515.8515 0 0 0 .1239 1.0467.8516.8516 0 0 0 1.0467.124.7518.7518 0 0 1 .9256.1086l.2345.2345c.2802.2802.5219.522.7048.7373.193.2273.3641.4742.4627.7779.1472.453.1472.9408 0 1.3938-.0986.3036-.2697.5505-.4627.7778-.1829.2154-.4246.4571-.7048.7373l-5.3567 5.3567c-.2802.2802-.5219.5219-.7373.7048-.2273.193-.4742.3641-.7778.4627a2.2548 2.2548 0 0 1-1.3938 0c-.3037-.0986-.5506-.2697-.7779-.4627-.2154-.1829-.4571-.4246-.7373-.7048l-.2353-.2353a.7517.7517 0 0 1-.1096-.924.8514.8514 0 0 0-.125-1.0447.8514.8514 0 0 0-1.0447-.125.7517.7517 0 0 1-.924-.1096l-.2248-.2248c-.2802-.2802-.522-.5219-.7048-.7373-.193-.2273-.364-.4743-.4627-.7779a2.2551 2.2551 0 0 1 0-1.3938c.0986-.3036.2697-.5505.4627-.7778.1829-.2154.4246-.4572.7048-.7374L7.1345 1.778c.2802-.2802.522-.522.7374-.7048.2273-.193.4742-.364.7778-.4627a2.2551 2.2551 0 0 1 1.3938 0c.3037.0986.5506.2697.7779.4627.2154.1829.4571.4246.7373.7048Zm-1.9798.2623c.0397.0129.1133.0464.2695.179.1333.1131.2902.2659.5107.4855-.236.8-.0388 1.7006.5931 2.3325.6319.6319 1.5325.829 2.3325.5931.2253.226.3811.3858.496.5212.1326.1562.1661.2298.179.2695a.7511.7511 0 0 1 0 .4646c-.0129.0396-.0464.1132-.179.2694-.1383.163-.3358.3612-.6422.6677l-.975.975-4.9613-4.9613.975-.975c.3065-.3064.5048-.5039.6677-.6422.1562-.1326.2297-.1661.2694-.179a.7518.7518 0 0 1 .4646 0ZM2.8615 8.1772c-.3064.3065-.5039.5048-.6422.6677-.1326.1562-.1661.2297-.179.2694a.7518.7518 0 0 0 0 .4646c.0129.0397.0464.1133.179.2695.1134.1336.2666.291.4871.5123.799-.234 1.6974-.0364 2.3281.5943s.8283 1.5292.5943 2.3282c.2269.2261.3871.3823.5228.4975.1562.1326.2298.1661.2695.179a.7511.7511 0 0 0 .4646 0c.0396-.0129.1132-.0464.2694-.179.163-.1383.3612-.3358.6677-.6423l3.2901-3.29-4.9713-4.9512-3.28 3.28Z" clip-rule="evenodd"/></svg>
