<svg xmlns="http://www.w3.org/2000/svg" width="16" height="16" fill="currentColor" viewBox="0 0 16 16"><path fill-rule="evenodd" d="M4.5 10.5a1.25 1.25 0 1 0 0 2.5 1.25 1.25 0 0 0 0-2.5Zm-2.75 1.25a2.75 2.75 0 1 1 5.5 0 2.75 2.75 0 0 1-5.5 0ZM12 11a1 1 0 1 0 0 2 1 1 0 0 0 0-2Zm-2.5 1a2.5 2.5 0 1 1 5 0 2.5 2.5 0 0 1-5 0Z" clip-rule="evenodd"/><path fill-rule="evenodd" d="M11.054 6.02c-.066-.015-.146-.02-.548-.02H10v5h.5v1.5h-2v-8h2.068c.306 0 .575 0 .836.062.23.055.449.146.65.27.23.14.42.33.635.546l.044.045 1.844 1.844.045.044c.216.215.406.406.546.635.124.201.215.42.27.65.063.261.062.53.062.836v1.091c0 .19 0 .373-.012.527a1.57 1.57 0 0 1-.137.563 1.55 1.55 0 0 1-.738.738 1.57 1.57 0 0 1-.563.137c-.155.012-.337.012-.527.012H13.5V11a6.56 6.56 0 0 0 .483-.012.05.05 0 0 0 .005-.005A6.56 6.56 0 0 0 14 10.5V9.494c0-.402-.005-.482-.02-.548a.751.751 0 0 0-.09-.217c-.036-.058-.089-.117-.373-.402l-1.844-1.844c-.285-.284-.344-.337-.402-.372a.75.75 0 0 0-.217-.09Z" clip-rule="evenodd"/><path fill-rule="evenodd" d="M7.774 3.518A12.748 12.748 0 0 0 6.85 3.5h-1.6c-.712 0-1.202 0-1.58.032-.371.03-.57.085-.714.159a1.75 1.75 0 0 0-.765.765c-.074.144-.13.343-.16.713C2.002 5.55 2 6.038 2 6.75v3.4c0 .292 0 .467.011.596a.625.625 0 0 0 .018.12.25.25 0 0 0 .104.105.638.638 0 0 0 .121.018c.13.01.304.011.596.011H3v1.5h-.176c-.258 0-.494 0-.692-.016a1.775 1.775 0 0 1-.676-.175 1.75 1.75 0 0 1-.765-.764 1.774 1.774 0 0 1-.175-.677C.5 10.67.5 10.434.5 10.176V6.72c0-.674 0-1.224.037-1.672.037-.463.118-.882.317-1.272a3.25 3.25 0 0 1 1.42-1.42c.391-.2.81-.28 1.273-.318C3.994 2 4.545 2 5.219 2h1.66c.395 0 .736 0 1.017.023.297.024.592.078.875.222.424.216.768.56.984.984.144.283.198.578.222.875.023.28.023.622.023 1.017V12.5H6.125V11H8.5V5.15c0-.432 0-.712-.018-.924-.017-.204-.045-.28-.064-.316a.75.75 0 0 0-.327-.328c-.038-.02-.113-.047-.317-.064ZM2.131 10.97h.001Zm-.101-.1v-.002Z" clip-rule="evenodd"/></svg>
