<svg xmlns="http://www.w3.org/2000/svg" width="16" height="16" viewBox="0 0 16 16" fill="currentColor"><path d="M10.719 1.266a.75.75 0 1 1 1.148.964L10.8 3.5c.445.002.827.008 1.154.034.463.038.882.12 1.273.319a3.25 3.25 0 0 1 1.42 1.42c.198.39.28.81.318 1.272C15 7.001 15 7.562 15 8.25v1.5c0 .688.001 1.25-.036 1.704-.038.463-.12.881-.319 1.272a3.25 3.25 0 0 1-1.42 1.42c-.39.2-.809.28-1.272.318-.454.038-1.015.037-1.703.037h-4.5c-.688 0-1.249 0-1.703-.037-.463-.037-.882-.119-1.273-.318a3.25 3.25 0 0 1-1.42-1.42c-.198-.39-.28-.81-.318-1.272C1 10.998 1 10.437 1 9.749v-1.5c0-.687-.001-1.248.036-1.703.038-.463.12-.882.318-1.272a3.25 3.25 0 0 1 1.42-1.42c.391-.2.81-.28 1.273-.319a16 16 0 0 1 1.147-.034L4.131 2.235a.75.75 0 0 1 1.15-.964l1.87 2.228h1.694zM5.75 4.999c-.712 0-1.202 0-1.581.032-.37.03-.57.085-.714.159a1.75 1.75 0 0 0-.765.764c-.073.144-.128.344-.159.714-.03.38-.031.87-.031 1.581v1.5c0 .713 0 1.202.031 1.582.03.37.086.57.16.713.167.33.435.597.764.765.144.073.344.129.714.16.38.03.869.03 1.581.03h4.5c.712 0 1.202 0 1.581-.03.37-.031.57-.087.714-.16a1.75 1.75 0 0 0 .765-.765c.073-.144.128-.343.159-.713.03-.38.031-.87.031-1.582v-1.5c0-.712 0-1.202-.031-1.58-.03-.37-.086-.57-.16-.715a1.75 1.75 0 0 0-.764-.764c-.144-.074-.344-.13-.714-.16C11.451 5 10.962 5 10.25 5zm5.253 1.5a1 1 0 1 1 0 2 1 1 0 0 1 0-2"/></svg>