<svg xmlns="http://www.w3.org/2000/svg" width="16" height="16" fill="none" viewBox="0 0 16 16">
  <circle cx="8" cy="8" r="8" fill="#E64646"/>
  <path fill="#fff" d="M9.352 9.146a1.594 1.594 0 0 1 1.766.175l.455.384c.52.437.572 1.225.117 1.76a1.476 1.476 0 0 1-.975.503c-1.04.14-2.116-.18-3.229-.957l1.866-1.865ZM4.536 4.31c.535-.455 1.323-.403 1.76.117l.383.455c.53.63.474 1.578-.127 2.18l-.327.326a.317.317 0 0 0-.073.333c.12.325.423.731.91 1.218.145.145.283.274.414.387l-.93.93a12.07 12.07 0 0 1-.41-.391c-1.599-1.599-2.3-3.125-2.104-4.58a1.445 1.445 0 0 1 .504-.975Z"/>
  <path fill="#fff" d="M4.175 10.976a.6.6 0 0 0 .849.849l-.849-.849Zm7.649-6.8a.6.6 0 0 0-.754-.077l-.094.077-6.8 6.8.848.849 6.8-6.801.077-.094a.6.6 0 0 0-.077-.754Z"/>
</svg>
