<svg xmlns="http://www.w3.org/2000/svg" width="16" height="16" fill="none" viewBox="0 0 16 16"><path fill="currentColor" fill-rule="evenodd" d="M13.3102 6.6352c.0157.0107.0193.0153.0193.0153s-.0062-.0063-.0193-.0153ZM3.2803 2.2197a.75.75 0 0 0-1.0606 1.0606l1.548 1.5481c-.346.054-.6492.108-.908.1685-.4723.1102-.9652.2751-1.3028.6504a2.165 2.165 0 0 0-.513 1.874c.0993.495.4395.888.7897 1.2233.3458.3312.8264.7178 1.414 1.188-.1704.8983-.3069 1.6221-.364 2.1784-.055.5362-.0656 1.1218.2188 1.588a2.165 2.165 0 0 0 1.7561 1.0354c.5457.0233 1.053-.2695 1.4954-.5772.441-.3065.9816-.752 1.6469-1.304.6653.552 1.2059.9975 1.6468 1.304.4426.3077.9498.6005 1.4955.5772a2.1653 2.1653 0 0 0 1.6514-.8793l.9252.9252a.75.75 0 0 0 1.0606 0 .75.75 0 0 0 0-1.0606l-5.919-5.9191-5.581-5.581ZM4.287 8.843c-.6576-.526-1.1103-.889-1.4159-1.1818-.1499-.1435-.2422-.2496-.298-.3293-.054-.077-.0592-.1088-.0586-.106a.665.665 0 0 1 .1576-.5755c-.0002.0002-.0002.0002 0 0 .0019-.002.0257-.0257.1044-.0613.0886-.0401.222-.0844.4242-.1316.6208-.145 1.26-.2167 1.8906-.3057l2.7093 2.7093 3.8469 3.847a1.1618 1.1618 0 0 1-.0102.1269c-.0081.0563-.0178.0803-.0199.0848a.6649.6649 0 0 1-.5381.3159s-.1365-.005-.5754-.3101c-.408-.2837-.9375-.7224-1.694-1.3503l-.2485-.2006a.964.964 0 0 0-.2968-.1453.9637.9637 0 0 0-.5276 0 .9641.9641 0 0 0-.2968.1453l-.2485.2006c-.7565.6279-1.286 1.0666-1.694 1.3503-.4389.3051-.5754.3101-.5754.3101a.665.665 0 0 1-.5394-.318s-.0617-.1219-.0071-.6536c.0507-.4943.1783-1.1701.3615-2.136l.0314-.1647c.009-.0423.0443-.209.0206-.38a.9644.9644 0 0 0-.1439-.389c-.0933-.1452-.2286-.2489-.2629-.2752L4.287 8.843Z M6.139 2.1688a.75.75 0 1 0 1.2972.7531c.0825-.1422.1475-.232.1975-.2883l.0691-.0637a.665.665 0 0 1 .596 0c-.0024-.0012.0268.0122.0867.0842.062.0744.1398.1908.2385.3723.2015.3701.432.8998.7657 1.6693l.333.7679c.0154.0376.076.1854.1826.308a.9648.9648 0 0 0 .3112.237c.1464.0702.305.0894.3455.0943l.4185.059c.8339.1177 1.4083.1995 1.8204.2957.2021.0472.3356.0915.4242.1316a.5542.5542 0 0 1 .0851.046c.0157.0107.0193.0153.0193.0153a.6651.6651 0 0 1 .1576.5756s-.0145.0717-.1775.2524c-.1609.1783-.4083.4002-.7799.7067a.75.75 0 0 0 .9545 1.1571c.3766-.3107.6985-.5923.9391-.859.2384-.2643.4574-.5782.5345-.962a2.1652 2.1652 0 0 0-.5131-1.874c-.3376-.3753-.8306-.5402-1.3028-.6504-.4855-.1134-1.1273-.204-1.9148-.3151l-.0369-.0052-.1851-.0262-.2392-.5516-.0154-.0356c-.3149-.7259-.5716-1.3177-.809-1.7539-.231-.4247-.5203-.8547-.9706-1.0804a2.165 2.165 0 0 0-1.9402 0c-.4076.2043-.6785.5726-.8918.9399Z"/></svg>
