<svg xmlns="http://www.w3.org/2000/svg" width="16" height="16" fill="none" viewBox="0 0 16 16"><path fill="currentColor" fill-rule="evenodd" d="M2 10c0-1.4001 0-2.1002.2725-2.635A2.5001 2.5001 0 0 1 3.365 6.2725c.297-.1513.6447-.2186 1.135-.2485V4.5C4.5 2.567 6.067 1 8 1c1.602 0 2.9508 1.0756 3.3672 2.5426a.75.75 0 1 1-1.443.4096C9.6862 3.1133 8.9138 2.5 8 2.5c-1.1046 0-2 .8954-2 2V6h4c1.4001 0 2.1002 0 2.635.2725a2.5 2.5 0 0 1 1.0925 1.0925C14 7.8998 14 8.6 14 10v1c0 1.4001 0 2.1002-.2725 2.635a2.5 2.5 0 0 1-1.0925 1.0925C12.1002 15 11.4001 15 10 15H6c-1.4001 0-2.1002 0-2.635-.2725a2.5 2.5 0 0 1-1.0925-1.0925C2 13.1002 2 12.4001 2 11v-1Zm8-2.5H6c-.7248 0-1.1782.0012-1.5198.029-.3242.0266-.4135.0694-.4342.08a1.0001 1.0001 0 0 0-.437.437c-.0105.0207-.0534.11-.08.4342-.0278.3416-.029.795-.029 1.5198v1c0 .7248.0012 1.1782.029 1.5198.0266.3242.0695.4135.08.4342a1 1 0 0 0 .437.437c.0207.0105.11.0534.4341.0799.3417.0279.795.0291 1.5199.0291h4c.7248 0 1.1782-.0012 1.5198-.0291.3242-.0265.4135-.0694.4342-.0799a.9998.9998 0 0 0 .437-.437c.0105-.0207.0534-.11.0799-.4342.0279-.3416.0291-.795.0291-1.5198v-1c0-.7248-.0012-1.1782-.0291-1.5198-.0265-.3242-.0694-.4135-.0799-.4342a1 1 0 0 0-.437-.437c-.0207-.0106-.11-.0534-.4342-.08-.3416-.0278-.795-.029-1.5198-.029Z" clip-rule="evenodd"/></svg>
