<svg xmlns="http://www.w3.org/2000/svg" width="16" height="16" fill="none" viewBox="0 0 16 16"><path fill="currentColor" d="M11.3568 8.5c1.5329 0 4.3432.5714 4.3432 2.8571 0 1-.2555 1.1429-.7664 1.1429l-4.0696.0012c.1057-.3262.1587-.7088.1587-1.1441 0-1.1487-.422-2.0448-1.1174-2.7082.523-.1066 1.0345-.1489 1.4515-.1489Zm-6.0136 0c1.5329 0 4.3432.5714 4.3432 2.8571 0 1-.2555 1.1429-.7665 1.1429H1.7664C1.2554 12.5 1 12.3571 1 11.3571 1 9.0714 3.8103 8.5 5.3432 8.5Zm0-5c1.1075 0 2.0045.895 2.0045 2s-.897 2-2.0045 2c-1.1075 0-2.0046-.895-2.0046-2s.897-2 2.0046-2Zm6.0136 0c1.1075 0 2.0046.895 2.0046 2s-.8971 2-2.0046 2-2.0045-.895-2.0045-2 .897-2 2.0045-2Z"/></svg>
