<svg xmlns="http://www.w3.org/2000/svg" width="16" height="16" fill="none" viewBox="0 0 16 16"><path fill="currentColor" fill-rule="evenodd" d="M8 6.5c1.1046 0 2-.8954 2-2s-.8954-2-2-2-2 .8954-2 2 .8954 2 2 2ZM8 8c1.933 0 3.5-1.567 3.5-3.5S9.933 1 8 1 4.5 2.567 4.5 4.5 6.067 8 8 8Zm-3.3622 3.2787C3.8605 11.7483 3.5 12.3458 3.5 13v.25a.25.25 0 0 0 .25.25h8.5c.1377 0 .25-.1119.25-.2503V13c0-.6542-.3605-1.2517-1.1378-1.7213C10.5729 10.8018 9.405 10.5 8 10.5s-2.5729.3018-3.3622.7787Zm-.7756-1.284C4.9479 9.3389 6.405 9 8 9c1.595 0 3.0521.3388 4.1378.9948C13.2355 10.658 14 11.6854 14 13v.2497C14 14.2158 13.2168 15 12.25 15h-8.5C2.7835 15 2 14.2165 2 13.25V13c0-1.3146.7645-2.342 1.8622-3.0052Z" clip-rule="evenodd"/></svg>
