<svg xmlns="http://www.w3.org/2000/svg" width="16" height="16" fill="currentColor" viewBox="0 0 16 16"><path fill-rule="evenodd" d="M8.75 4.502a1.5 1.5 0 1 0 3 0 1.5 1.5 0 0 0-3 0Zm1.5-3a3 3 0 1 0 0 6 3 3 0 0 0 0-6ZM5.77 5.71a.75.75 0 0 1 .02 1.06L3.141 9.52a.75.75 0 0 1-1.07.01L.47 7.93a.75.75 0 0 1 1.06-1.062L2.591 7.93l2.119-2.2a.75.75 0 0 1 1.06-.02Zm1.367 5.129c.688-.367 1.76-.59 3.113-.59 1.352 0 2.425.223 3.113.59.622.332.887.743.887 1.317 0 .105-.02.163-.031.19a.145.145 0 0 1-.041.055c-.035.03-.153.099-.41.099H6.731c-.256 0-.374-.07-.409-.099a.145.145 0 0 1-.04-.055.462.462 0 0 1-.032-.19c0-.574.265-.985.887-1.317Zm3.113-2.09c-1.477 0-2.828.237-3.82.767-1 .534-1.68 1.398-1.68 2.64 0 .606.235 1.083.612 1.397.366.305.851.447 1.37.447h7.036c.519 0 1.004-.142 1.37-.447.377-.314.612-.79.612-1.397 0-1.242-.68-2.106-1.68-2.64-.992-.53-2.343-.767-3.82-.767Z" clip-rule="evenodd"/></svg>
