<svg xmlns="http://www.w3.org/2000/svg" width="16" height="16" fill="currentColor" viewBox="0 0 16 16"><path fill-rule="evenodd" d="M5.5 7a2.5 2.5 0 1 1 5 0 2.5 2.5 0 0 1-5 0ZM8 6a1 1 0 1 0 0 2 1 1 0 0 0 0-2Z M6.219 1.5H9.78c.674 0 1.224 0 1.672.037.463.037.882.118 1.273.317a3.25 3.25 0 0 1 1.42 1.42c.199.391.28.81.317 1.273.037.447.037.998.037 1.671v3.563c0 .674 0 1.224-.037 1.672-.037.463-.118.882-.317 1.272a3.25 3.25 0 0 1-1.42 1.42c-.391.2-.81.28-1.273.318-.447.037-.998.037-1.672.037H6.22c-.674 0-1.225 0-1.672-.037-.463-.037-.882-.118-1.272-.317a3.25 3.25 0 0 1-1.42-1.42c-.2-.391-.28-.81-.318-1.273-.037-.447-.037-.998-.037-1.672V6.22c0-.674 0-1.225.037-1.672.037-.463.118-.882.317-1.272a3.25 3.25 0 0 1 1.42-1.42c.391-.2.81-.28 1.273-.318.447-.037.998-.037 1.672-.037Zm-1.55 1.532c-.37.03-.57.085-.713.159a1.75 1.75 0 0 0-.765.764c-.074.145-.13.344-.16.714C3.002 5.05 3 5.538 3 6.25v3.5c0 .712 0 1.202.032 1.58.03.371.085.57.159.714.043.085.093.166.15.243a6.341 6.341 0 0 1 4.663-2.037c1.841 0 3.5.783 4.66 2.032.054-.075.103-.154.145-.238.074-.144.13-.343.16-.713.03-.38.031-.869.031-1.581v-3.5c0-.712 0-1.202-.032-1.58-.03-.371-.085-.57-.159-.715a1.75 1.75 0 0 0-.764-.764c-.145-.074-.344-.13-.714-.16C10.95 3.002 10.462 3 9.75 3h-3.5c-.712 0-1.202 0-1.58.032Zm6.56 9.944a4.837 4.837 0 0 0-3.225-1.226 4.838 4.838 0 0 0-3.227 1.226C5.141 13 5.603 13 6.25 13h3.5c.65 0 1.115 0 1.48-.024Z" clip-rule="evenodd"/></svg>
