<svg xmlns="http://www.w3.org/2000/svg" width="16" height="16" fill="none" viewBox="0 0 16 16"><path fill="currentColor" fill-rule="evenodd" d="M4 5c0 .5523.4477 1 1 1s1-.4477 1-1-.4477-1-1-1-1 .4477-1 1Zm1-2.5C3.6193 2.5 2.5 3.6193 2.5 5S3.6193 7.5 5 7.5 7.5 6.3807 7.5 5 6.3807 2.5 5 2.5ZM10 5c0 .5523.4477 1 1 1s1-.4477 1-1-.4477-1-1-1-1 .4477-1 1Zm1-2.5C9.6193 2.5 8.5 3.6193 8.5 5S9.6193 7.5 11 7.5s2.5-1.1193 2.5-2.5-1.1193-2.5-2.5-2.5Zm-8.3053 7.9625c-.4162.2203-.695.5529-.6947 1.0375 2 .0016 4 .0016 6 0 .0004-.4937-.2553-.8049-.6947-1.0375C6.77 10.179 5.964 10 5 10s-1.77.179-2.3053.4625Zm-.7019-1.3257C2.8116 8.7033 3.8808 8.5 5 8.5c1.1193 0 2.1883.2033 3.0072.6368.8272.438 1.4928 1.1758 1.4928 2.2161 0 .1613.003.3352-.0093.4866-.0106.1297-.0369.3012-.127.478a1.2504 1.2504 0 0 1-.5462.5463c-.1768.0901-.3483.1163-.478.1269-.1147.0094-.2471.0093-.3693.0093-1.9734-.0005-3.9468 0-5.9202 0-.1276 0-.2685.0006-.3895-.0093-.1297-.0106-.3012-.0368-.478-.1269a1.2504 1.2504 0 0 1-.5463-.5463c-.09-.1768-.1163-.3483-.127-.478C.4962 11.6778.5 11.515.5 11.3529c0-1.0403.6656-1.7781 1.4928-2.2161Zm8.9608.8633a.7498.7498 0 0 1-.7544-.7454.75.75 0 0 1 .7455-.7545c1.0409-.0031 2.1314.1437 3.0625.6366.8272.438 1.4928 1.1758 1.4928 2.2161 0 .1613.0031.3352-.0093.4866-.0106.1297-.0368.3012-.1269.478a1.2508 1.2508 0 0 1-.5463.5463c-.1768.0901-.3483.1163-.478.1269-.121.0099-.2619.0093-.3895.0093h-2.4969a.75.75 0 0 1 0-1.5c.849 0 1.6979.0007 2.5469 0 .0004-.4937-.2553-.8049-.6947-1.0375-.7094-.3756-1.5615-.4647-2.3517-.4624Z" clip-rule="evenodd"/></svg>
