<svg xmlns="http://www.w3.org/2000/svg" width="16" height="16" fill="currentColor" viewBox="0 0 16 16"><path fill-rule="evenodd" d="M6.982 2H5.518c-.813 0-1.469 0-2 .043-.546.045-1.026.14-1.47.366a3.75 3.75 0 0 0-1.64 1.639c-.226.444-.32.924-.365 1.47C0 6.05 0 6.706 0 7.519v.964c0 .813 0 1.469.043 2 .045.546.14 1.026.366 1.47a3.75 3.75 0 0 0 1.639 1.64c.444.226.924.32 1.47.365.531.043 1.187.043 2 .043h1.464c.813 0 1.469 0 2-.043.546-.045 1.026-.14 1.47-.366a3.75 3.75 0 0 0 1.64-1.638c.112-.222.192-.453.25-.697l.514.386c.1.075.244.184.38.267a1.83 1.83 0 0 0 1.001.29 1.8 1.8 0 0 0 1.38-.69 1.83 1.83 0 0 0 .369-.975c.014-.159.014-.339.014-.464V5.93c0-.125 0-.305-.014-.464a1.83 1.83 0 0 0-.369-.976 1.8 1.8 0 0 0-1.38-.69 1.83 1.83 0 0 0-1.001.29 5.3 5.3 0 0 0-.38.268l-.514.386a3.068 3.068 0 0 0-.25-.696 3.75 3.75 0 0 0-1.64-1.64c-.444-.226-.924-.32-1.47-.365C8.45 2 7.794 2 6.981 2ZM12.5 7.462V9.5l1.232.924c.247.185.37.278.474.276a.3.3 0 0 0 .23-.115c.064-.082.064-.236.064-.545V5.96c0-.309 0-.463-.064-.545a.3.3 0 0 0-.23-.115c-.103-.002-.227.09-.474.276L12.5 6.5v.962ZM11 7.55c0-.852 0-1.447-.038-1.91-.037-.453-.107-.714-.207-.911a2.25 2.25 0 0 0-.984-.984c-.197-.1-.458-.17-.912-.207C8.397 3.501 7.802 3.5 6.95 3.5h-1.4c-.852 0-1.447 0-1.91.038-.453.037-.714.107-.911.207a2.25 2.25 0 0 0-.984.984c-.1.197-.17.458-.207.912-.037.462-.038 1.057-.038 1.909v.9c0 .852 0 1.447.038 1.91.037.453.107.714.207.912.216.423.56.767.984.983.197.1.458.17.912.207.462.037 1.057.038 1.909.038h1.4c.852 0 1.447 0 1.91-.038.453-.037.714-.107.911-.207a2.25 2.25 0 0 0 .984-.984c.1-.197.17-.458.207-.912.037-.462.038-1.057.038-1.909v-.9Z" clip-rule="evenodd"/></svg>
