<svg xmlns="http://www.w3.org/2000/svg" width="16" height="16" fill="currentColor" viewBox="0 0 16 16"><path fill-rule="evenodd" d="M1.772 4.865C1.5 5.4 1.5 6.1 1.5 7.5v1c0 1.4 0 2.1.272 2.635a2.5 2.5 0 0 0 1.093 1.092C3.4 12.5 4.1 12.5 5.5 12.5h2c1.4 0 2.1 0 2.635-.273a2.5 2.5 0 0 0 1.092-1.092C11.5 10.6 11.5 9.9 11.5 8.5v-1c0-1.4 0-2.1-.273-2.635a2.5 2.5 0 0 0-1.092-1.093C9.6 3.5 8.9 3.5 7.5 3.5h-2c-1.4 0-2.1 0-2.635.272a2.5 2.5 0 0 0-1.093 1.093Zm10.95 1.487 1.876-1.25a.58.58 0 0 1 .902.482v4.832a.58.58 0 0 1-.902.483l-1.875-1.25a.5.5 0 0 1-.223-.417V6.768a.5.5 0 0 1 .223-.416Z" clip-rule="evenodd"/></svg>
