<svg xmlns="http://www.w3.org/2000/svg" width="16" height="16" fill="currentColor" viewBox="0 0 16 16"><path fill-rule="evenodd" d="M5.774 6.191c.16-.814.99-1.29 1.764-1.011a9.052 9.052 0 0 1 3.013 1.811 1.362 1.362 0 0 1 0 2.02 9.052 9.052 0 0 1-3.005 1.809A1.336 1.336 0 0 1 5.78 9.814a9.28 9.28 0 0 1-.007-3.623ZM7.1 7.985c0-.453.038-.896.112-1.325A7.554 7.554 0 0 1 9.43 8a7.554 7.554 0 0 1-2.212 1.34A7.794 7.794 0 0 1 7.1 7.985Z M9.781 1.5H6.22c-.674 0-1.225 0-1.672.037-.463.037-.882.118-1.272.317a3.25 3.25 0 0 0-1.42 1.42c-.2.391-.28.81-.318 1.273-.037.447-.037.998-.037 1.672V9.78c0 .674 0 1.224.037 1.672.037.463.118.882.317 1.273a3.25 3.25 0 0 0 1.42 1.42c.391.199.81.28 1.273.317.447.037.998.037 1.672.037h3.56c.674 0 1.224 0 1.672-.037.463-.037.882-.118 1.273-.317a3.25 3.25 0 0 0 1.42-1.42c.199-.391.28-.81.317-1.273.037-.447.037-.998.037-1.672V6.22c0-.674 0-1.225-.037-1.672-.037-.463-.118-.882-.317-1.272a3.25 3.25 0 0 0-1.42-1.42c-.391-.2-.81-.28-1.273-.318-.447-.037-.998-.037-1.672-.037ZM3.956 3.19c.144-.073.343-.128.713-.158C5.05 3 5.538 3 6.25 3h3.5c.712 0 1.202 0 1.58.032.371.03.57.085.714.159.33.168.598.435.765.765.074.144.13.343.16.713.03.38.031.869.031 1.581v3.5c0 .712 0 1.202-.032 1.58-.03.371-.085.57-.159.714a1.75 1.75 0 0 1-.764.765c-.145.074-.344.13-.714.16-.38.03-.869.031-1.581.031h-3.5c-.712 0-1.202 0-1.58-.032-.371-.03-.57-.085-.714-.159a1.75 1.75 0 0 1-.765-.764c-.074-.145-.13-.344-.16-.714C3.002 10.95 3 10.462 3 9.75v-3.5c0-.712 0-1.202.032-1.58.03-.371.085-.57.159-.714a1.75 1.75 0 0 1 .765-.765Z" clip-rule="evenodd"/></svg>
