<svg xmlns="http://www.w3.org/2000/svg" width="16" height="16" fill="currentColor" viewBox="0 0 16 16"><path fill-rule="evenodd" d="M2 6.5a1 1 0 0 1 1-1h2.877l3.635-3c.263.024.488.204.488.488v10.524c0 .284-.225.464-.488.488l-3.635-3.489-2.88-.007a1 1 0 0 1-.997-1V6.5Zm10.734-1.69a.514.514 0 0 1 .716-.028A4.666 4.666 0 0 1 15 8.25a4.666 4.666 0 0 1-1.55 3.468.514.514 0 0 1-.716-.028.49.49 0 0 1 .029-.702 3.681 3.681 0 0 0 1.223-2.738 3.68 3.68 0 0 0-1.223-2.738.49.49 0 0 1-.029-.702Zm-.703 1.36a.507.507 0 0 0-.71.054.494.494 0 0 0 .055.702 1.73 1.73 0 0 1 0 2.648.494.494 0 0 0-.055.702.507.507 0 0 0 .71.054 2.72 2.72 0 0 0 0-4.16Z" clip-rule="evenodd"/></svg>
