<svg xmlns="http://www.w3.org/2000/svg" width="16" height="16" fill="none" viewBox="0 0 16 16"><path fill="currentColor" fill-rule="evenodd" d="M4.9029 2H9.097c.6028-.0003 1.0357-.0004 1.4116.0898a3.25 3.25 0 0 1 2.4015 2.4015c.0546.2273.0758.4718.0841.7564a3.25 3.25 0 0 1 1.7583 1.7586c.1393.3363.1955.688.2219 1.0748C15 8.4554 15 8.9136 15 9.4739v.0522c0 .5603 0 1.0185-.0255 1.3928-.0264.3869-.0826.7385-.2219 1.0748a3.2493 3.2493 0 0 1-1.7589 1.7589c-.3363.1393-.6879.1955-1.0748.2219C11.5446 14 11.0864 14 10.5261 14H5.7186c-.6734 0-1.2241 0-1.6717-.0365-.4632-.0379-.8816-.1186-1.2724-.3177a3.2502 3.2502 0 0 1-1.4203-1.4203c-.199-.3908-.2798-.8092-.3176-1.2724C1 10.5055 1 9.9548 1 9.2814l.0002-3.5328c.0009-.5127.0048-.904.0896-1.2573a3.25 3.25 0 0 1 2.4015-2.4015c.3759-.0902.8088-.09 1.4116-.0898Zm6.5757 3.0065a1.2513 1.2513 0 0 0-.027-.165 1.75 1.75 0 0 0-1.2931-1.2931C9.9789 3.5052 9.7405 3.5 9 3.5H5c-.7406 0-.9789.0052-1.1585.0484a1.75 1.75 0 0 0-1.2931 1.293A1.2247 1.2247 0 0 0 2.5221 5h8.0473c.3354 0 .6369 0 .9091.0065ZM2.5 6.5v2.75c0 .7125.0006 1.2017.0316 1.5809.0302.3705.0857.5696.1591.7136a1.75 1.75 0 0 0 .7648.7648c.144.0734.343.1289.7136.1591.3792.031.8685.0316 1.5809.0316h4.75c.5927 0 .9996-.0004 1.3168-.022.3105-.0212.4798-.0602.6029-.1112a1.75 1.75 0 0 0 .9471-.9471c.051-.1231.09-.2924.1112-.6029.0216-.3172.022-.7241.022-1.3168s-.0004-.9996-.022-1.3168c-.0212-.3105-.0602-.4798-.1112-.6029a1.75 1.75 0 0 0-.9471-.947c-.0735-.0305-.164-.0568-.2905-.0774C11.8016 6.5024 11.3455 6.5 10.5 6.5h-8ZM9 9a.75.75 0 0 1 .75-.75h1.5a.75.75 0 0 1 0 1.5h-1.5A.75.75 0 0 1 9 9Z" clip-rule="evenodd"/></svg>
