<svg xmlns="http://www.w3.org/2000/svg" width="16" height="16" viewBox="0 0 16 16" fill="currentColor"><path fill-rule="evenodd" d="M4.903 2h4.194c.603 0 1.036 0 1.412.09a3.25 3.25 0 0 1 2.401 2.4c.055.228.076.472.084.757a3.25 3.25 0 0 1 1.759 1.758c.139.337.195.688.222 1.075.025.374.025.833.025 1.393v.052c0 .56 0 1.019-.025 1.393-.027.387-.083.738-.222 1.075a3.25 3.25 0 0 1-1.76 1.759c-.336.139-.687.195-1.074.222-.374.025-.833.025-1.393.025H5.72c-.674 0-1.225 0-1.672-.037-.463-.037-.882-.118-1.272-.317a3.25 3.25 0 0 1-1.42-1.42c-.2-.391-.28-.81-.318-1.273C1 10.506 1 9.955 1 9.281V5.75c.001-.513.005-.904.09-1.258a3.25 3.25 0 0 1 2.4-2.402C3.867 2 4.301 2 4.903 2m6.576 3.007a1 1 0 0 0-.027-.166 1.75 1.75 0 0 0-1.293-1.293C9.979 3.505 9.74 3.5 9 3.5H5c-.74 0-.979.005-1.159.048a1.75 1.75 0 0 0-1.293 1.293c-.01.046-.02.096-.026.159h8.048q.501-.002.909.007M2.5 6.5v2.75c0 .712 0 1.202.032 1.58.03.371.085.57.159.714.168.33.435.598.765.765.144.074.343.13.713.16.38.03.869.031 1.581.031h4.75c.593 0 1 0 1.317-.022.31-.021.48-.06.603-.111a1.75 1.75 0 0 0 .947-.947c.05-.123.09-.293.111-.603.022-.317.022-.724.022-1.317s0-1-.022-1.317c-.021-.31-.06-.48-.111-.603a1.75 1.75 0 0 0-.947-.947 1.3 1.3 0 0 0-.29-.077c-.328-.054-.785-.056-1.63-.056zM9 9a.75.75 0 0 1 .75-.75h1.5a.75.75 0 0 1 0 1.5h-1.5A.75.75 0 0 1 9 9" clip-rule="evenodd"/></svg>