<svg xmlns="http://www.w3.org/2000/svg" width="16" height="16" fill="currentColor" viewBox="0 0 16 16"><path fill-rule="evenodd" d="M1.184 11.966C.663 12.87 1.31 14 2.35 14h11.3c1.039 0 1.687-1.13 1.166-2.034l-5.65-9.79a1.345 1.345 0 0 0-2.333 0l-5.65 9.79Zm6.016-.173a.8.8 0 0 1 .8-.803.8.8 0 0 1 .798.803.8.8 0 0 1-.799.802.8.8 0 0 1-.799-.802ZM8 4.468a.772.772 0 0 0-.77.802l.148 4.115A.623.623 0 0 0 8 9.987a.623.623 0 0 0 .621-.602l.15-4.115A.772.772 0 0 0 8 4.468Z" clip-rule="evenodd"/></svg>
