<svg xmlns="http://www.w3.org/2000/svg" width="16" height="16" fill="none" viewBox="0 0 16 16"><path fill="currentColor" fill-rule="evenodd" d="M8.3934 3.2337c-.1714-.3087-.6155-.3087-.7869 0l-5.0512 9.0979c-.1665.2999.0504.6684.3935.6684h10.1024c.3431 0 .56-.3685.3934-.6684L8.3934 3.2337ZM6.295 2.5056c.7428-1.338 2.6669-1.338 3.4097 0l5.0513 9.0978c.7216 1.2998-.2183 2.8966-1.7049 2.8966H2.9488c-1.4866 0-2.4265-1.5968-1.7049-2.8966l5.0512-9.0978ZM8 5.5a.75.75 0 0 1 .75.75v2.5a.75.75 0 1 1-1.5 0v-2.5A.75.75 0 0 1 8 5.5ZM8 12a.75.75 0 1 0 0-1.5.75.75 0 0 0 0 1.5Z" clip-rule="evenodd"/></svg>
