<svg xmlns="http://www.w3.org/2000/svg" width="16" height="16" fill="currentColor" viewBox="0 0 16 16"><path fill-rule="evenodd" d="M2.204 2.153a.75.75 0 1 0-.908 1.194L2.7 4.413A9.415 9.415 0 0 0 .983 5.707a.75.75 0 1 0 1.034 1.086A8.007 8.007 0 0 1 4.01 5.41l1.892 1.438a7.763 7.763 0 0 0-2.37 1.316.75.75 0 1 0 .937 1.172c.962-.77 1.98-1.195 2.989-1.306l6.338 4.817a.75.75 0 0 0 .908-1.194l-12.5-9.5ZM8 3a.75.75 0 0 0 0 1.5c2.206 0 4.388.775 5.983 2.293a.75.75 0 1 0 1.034-1.086C13.112 3.892 10.544 3 8 3Zm1.5 8.5a1.5 1.5 0 1 1-3 0 1.5 1.5 0 0 1 3 0Z" clip-rule="evenodd"/></svg>
