<svg xmlns="http://www.w3.org/2000/svg" width="16" height="16" fill="currentColor" viewBox="0 0 16 16"><path fill-rule="evenodd" d="M5.61 2.612a5.501 5.501 0 0 0-1.54 4.766c.036.23.054.346.044.43a.543.543 0 0 1-.07.215c-.04.075-.11.145-.25.285L2.406 9.696c-.166.166-.25.249-.314.325a2.5 2.5 0 0 0 0 3.241c.065.076.148.16.314.325.166.167.25.25.325.315a2.5 2.5 0 0 0 3.245 0c.076-.065.16-.148.326-.314l1.372-1.374c.14-.14.211-.211.286-.253a.543.543 0 0 1 .216-.07c.085-.01.2.01.433.047a5.49 5.49 0 0 0 4.78-1.54 5.508 5.508 0 0 0 1.366-5.518c-.1-.323-.15-.485-.3-.601a.67.67 0 0 0-.467-.116c-.189.032-.33.175-.614.459l-1.688 1.69a.81.81 0 0 1-.144.129.4.4 0 0 1-.115.048c-.046.011-.096.011-.193.011H9.82c-.112 0-.168 0-.21-.022a.2.2 0 0 1-.088-.087C9.5 6.348 9.5 6.292 9.5 6.18V4.766c0-.098 0-.147.011-.194a.4.4 0 0 1 .048-.115.856.856 0 0 1 .13-.145l1.691-1.687c.285-.283.427-.425.46-.614a.67.67 0 0 0-.116-.466c-.117-.152-.278-.201-.6-.3A5.496 5.496 0 0 0 5.61 2.611Zm3.77-.11a4.001 4.001 0 0 0-3.83 4.64l.003.019c.016.098.035.214.046.315a2.039 2.039 0 0 1-.24 1.268 2.702 2.702 0 0 1-.505.624l-1.386 1.388a6.097 6.097 0 0 0-.233.237 1 1 0 0 0 0 1.297c.016.019.047.05.233.237.187.187.219.218.238.234a1 1 0 0 0 1.298 0c.019-.016.05-.047.237-.234l1.373-1.373.024-.024c.09-.094.32-.33.602-.484a2.038 2.038 0 0 1 1.275-.239c.102.012.219.032.317.048.007 0 .013.002.02.003a3.99 3.99 0 0 0 3.476-1.12 3.993 3.993 0 0 0 1.17-2.717l-.749.75a.568.568 0 0 0-.007.008 1.9 1.9 0 0 1-.964.569c-.24.057-.478.053-.534.052H9.81c-.04 0-.144 0-.244-.008a1.7 1.7 0 0 1-1.559-1.559A3.01 3.01 0 0 1 8 6.19V4.756a1.9 1.9 0 0 1 .281-1.084c.13-.21.301-.377.341-.415l.007-.007.751-.748Z" clip-rule="evenodd"/></svg>
