<svg xmlns="http://www.w3.org/2000/svg" width="40" height="40" fill="currentColor" viewBox="0 0 40 40"><path fill-rule="evenodd" d="M40 20c0 11.046-8.954 20-20 20S0 31.046 0 20 8.954 0 20 0s20 8.954 20 20Zm-22.514-6.866c-.164-.087-.326-.134-.774-.134h-1.924c-.448 0-.61.047-.774.134a.914.914 0 0 0-.38.38c-.087.164-.134.326-.134.774v11.424c0 .448.047.61.134.774a.914.914 0 0 0 .38.38c.164.087.326.134.774.134h1.924c.448 0 .61-.047.774-.134a.914.914 0 0 0 .38-.38c.087-.164.134-.326.134-.774V14.288c0-.448-.047-.61-.134-.774a.914.914 0 0 0-.38-.38Zm8 0c-.164-.087-.326-.134-.774-.134h-1.924c-.448 0-.61.047-.774.134a.914.914 0 0 0-.38.38c-.087.164-.134.326-.134.774v11.424c0 .448.047.61.134.774a.914.914 0 0 0 .38.38c.164.087.326.134.774.134h1.924c.448 0 .61-.047.774-.134a.914.914 0 0 0 .38-.38c.087-.164.134-.326.134-.774V14.288c0-.448-.047-.61-.134-.774a.914.914 0 0 0-.38-.38Z" clip-rule="evenodd"/></svg>
