<svg xmlns="http://www.w3.org/2000/svg" width="40" height="40" fill="currentColor" viewBox="0 0 40 40"><path fill-rule="evenodd" d="M20 40c11.046 0 20-8.954 20-20S31.046 0 20 0 0 8.954 0 20s8.954 20 20 20Zm7.015-17.028c-1.417-1.192-3.55-1.067-4.903.287l-.734.734a.712.712 0 0 1-.75.166c-.73-.269-1.643-.95-2.74-2.047-1.095-1.096-1.778-2.01-2.045-2.74a.712.712 0 0 1 .165-.75l.735-.734c1.354-1.354 1.478-3.487.284-4.903l-.862-1.024c-.984-1.17-2.756-1.288-3.96-.264a3.318 3.318 0 0 0-.974 1.443 3.249 3.249 0 0 0-.159.752c-.44 3.272 1.137 6.707 4.733 10.303 3.596 3.596 7.03 5.174 10.303 4.733a3.318 3.318 0 0 0 2.195-1.134c1.024-1.202.905-2.976-.264-3.96l-1.024-.862Z" clip-rule="evenodd"/></svg>
