<svg xmlns="http://www.w3.org/2000/svg" width="40" height="40" fill="currentColor" viewBox="0 0 40 40"><path d="M18.36 15.193A3.227 3.227 0 0 1 20 14.75c.587 0 1.146.154 1.64.443.481.282.885.686 1.167 1.168.253.431.402.914.436 1.42l.007.218-.506.001c-.21 0-.387.042-.534.12a.818.818 0 0 0-.34.34c-.078.147-.12.325-.12.534v.012c0 .21.042.387.12.534a.818.818 0 0 0 .34.34c.147.078.325.12.534.12l.506-.001V22h-.506c-.21 0-.387.042-.534.12a.818.818 0 0 0-.34.34c-.078.147-.12.325-.12.534v.012c0 .21.042.387.12.534a.818.818 0 0 0 .34.34c.147.078.325.12.534.12l.506.001c0 .586-.154 1.146-.443 1.638a3.277 3.277 0 0 1-1.168 1.168A3.227 3.227 0 0 1 20 27.25a3.227 3.227 0 0 1-1.64-.443 3.277 3.277 0 0 1-1.167-1.168 3.22 3.22 0 0 1-.436-1.42L16.75 24h1.756c.21 0 .387-.042.534-.12a.818.818 0 0 0 .34-.34c.078-.147.12-.325.12-.534v-.012c0-.21-.042-.387-.12-.534a.818.818 0 0 0-.34-.34 1.117 1.117 0 0 0-.534-.12H16.75v-2h1.756c.21 0 .387-.042.534-.12a.818.818 0 0 0 .34-.34c.078-.147.12-.325.12-.534v-.012c0-.21-.042-.387-.12-.534a.818.818 0 0 0-.34-.34 1.117 1.117 0 0 0-.534-.12H16.75c0-.587.154-1.146.443-1.64a3.277 3.277 0 0 1 1.168-1.167Z M40 20c0 11.046-8.954 20-20 20S0 31.046 0 20 8.954 0 20 0s20 8.954 20 20Zm-17.476-6.317A4.977 4.977 0 0 0 20 13a4.98 4.98 0 0 0-2.524.683 5.027 5.027 0 0 0-1.793 1.793A4.977 4.977 0 0 0 15 18v6c0 .92.249 1.783.683 2.524a5.027 5.027 0 0 0 1.793 1.793c.465.273.978.472 1.523.583L19 30.1a.9.9 0 0 0 .9.9h.2a.9.9 0 0 0 .9-.9v-1.2a4.969 4.969 0 0 0 1.524-.583 5.027 5.027 0 0 0 1.793-1.793A4.98 4.98 0 0 0 25 24v-6a4.98 4.98 0 0 0-.683-2.524 5.027 5.027 0 0 0-1.793-1.793Zm6.954 3.668C29.145 12.407 25.028 8.5 20 8.5c-5.029 0-9.145 3.907-9.478 8.852-.27.203-.48.483-.598.817C9.64 18.97 9.5 19.915 9.5 21s.141 2.029.424 2.831A1.75 1.75 0 0 0 11.574 25H12a1.5 1.5 0 0 0 1.5-1.5v-5c0-.722-.51-1.326-1.19-1.466a7.751 7.751 0 0 1 15.38-.002A1.5 1.5 0 0 0 26.5 18.5v5A1.5 1.5 0 0 0 28 25h.425a1.75 1.75 0 0 0 1.651-1.169c.283-.802.424-1.746.424-2.831s-.141-2.029-.424-2.831a1.752 1.752 0 0 0-.598-.818Z" clip-rule="evenodd"/></svg>
