<svg xmlns="http://www.w3.org/2000/svg" width="40" height="40" fill="currentColor" viewBox="0 0 40 40"><path fill-rule="evenodd" d="M20 40c11.046 0 20-8.954 20-20S31.046 0 20 0 0 8.954 0 20s8.954 20 20 20Zm3.465-26.6c-.489-.26-.974-.4-2.31-.4h-7.31c-1.337 0-1.821.14-2.31.4a2.726 2.726 0 0 0-1.134 1.135c-.262.489-.401.973-.401 2.31v6.31c0 1.336.14 1.821.4 2.31.262.49.646.873 1.135 1.134.489.262.973.401 2.31.401h7.31c1.336 0 1.821-.14 2.31-.4a2.726 2.726 0 0 0 1.134-1.135c.262-.489.401-.974.401-2.31v-6.31c0-1.336-.14-1.821-.4-2.31a2.726 2.726 0 0 0-1.135-1.134ZM31 16.498a1 1 0 0 0-1.6-.8l-2.2 1.653a.5.5 0 0 0-.2.4v4.5a.5.5 0 0 0 .2.4l2.2 1.652a1 1 0 0 0 1.6-.8v-7.005Z" clip-rule="evenodd"/></svg>
