<svg xmlns="http://www.w3.org/2000/svg" width="32" height="32" fill="currentColor" viewBox="0 0 32 32"><path fill-rule="evenodd" d="M16 27.5c6.351 0 11.5-5.149 11.5-11.5S22.351 4.5 16 4.5 4.5 9.649 4.5 16 9.649 27.5 16 27.5Zm0 2.5c7.732 0 14-6.268 14-14S23.732 2 16 2 2 8.268 2 16s6.268 14 14 14Z M12.279 21.406c.762 0 1.272-.516 1.272-1.315v-8.008c0-.915-.538-1.489-1.461-1.489-.503 0-.937.059-1.475.436l-1.908 1.35c-.364.262-.51.56-.51.944 0 .538.37.922.866.922.245 0 .399-.058.63-.225l1.258-.907H11v6.977c0 .8.517 1.315 1.279 1.315Zm6.901.094c2.552 0 4.32-1.249 4.32-3.093 0-1.416-1.027-2.41-2.447-2.665v-.05c1.224-.284 2.076-1.191 2.076-2.331 0-1.663-1.607-2.861-3.949-2.861-2.334 0-3.95 1.198-3.95 2.854 0 1.161.86 2.054 2.09 2.337v.051c-1.418.254-2.453 1.242-2.453 2.658 0 1.851 1.755 3.1 4.313 3.1Zm0-6.564c-.825 0-1.412-.537-1.412-1.307 0-.777.594-1.307 1.412-1.307.825 0 1.426.53 1.426 1.307 0 .77-.594 1.307-1.426 1.307Zm0 4.734c-.957 0-1.622-.617-1.622-1.466 0-.835.665-1.438 1.622-1.438.965 0 1.629.603 1.629 1.438 0 .85-.664 1.466-1.629 1.466Z"/></svg>
