<?xml version="1.0" encoding="UTF-8"?>
<svg width="32px" height="32px" viewBox="0 0 32 32" version="1.1" xmlns="http://www.w3.org/2000/svg" xmlns:xlink="http://www.w3.org/1999/xlink">
    <!-- Generator: Sketch 50.2 (55047) - http://www.bohemiancoding.com/sketch -->
    <title>camera_32</title>
    <desc>Created with Sketch.</desc>
    <defs></defs>
    <g id="Page-2" stroke="none" stroke-width="1" fill="none" fill-rule="evenodd">
        <g id="camera_32">
            <rect id="bounds" x="0" y="0" width="32" height="32"></rect>
            <path d="M6.24242424,8 C6.30807835,8 6.73232077,8 7.51515152,8 C8.42169004,8 9.40056266,7.40937473 9.89412899,6.73923326 C10.3876953,6.0690918 10.8244256,5.42018646 10.8515433,5.38832668 C11.3797757,4.76772219 11.9188101,4.5 12.8385592,4.5 C13.57398,4.5 14.1201814,4.5 14.4771635,4.5 C14.9287601,4.5 15.4363723,4.5 16,4.5 L16,27 L6.84848485,27 C4.17074061,27 2,24.8774981 2,22.2592593 C2,19.9344434 2,18.1813569 2,17 C2,16.1402047 2,14.7204516 2,12.7407407 C2,9.77777778 3.33333333,8 6.24242424,8 Z M25.7575758,8 C25.6919216,8 25.2676792,8 24.4848485,8 C23.57831,8 22.5584217,7.34333469 22.105871,6.73923326 C21.6533203,6.13513184 21.1755744,5.42018646 21.1484567,5.38832668 C20.6202243,4.76772219 20.0811899,4.5 19.1614408,4.5 C18.42602,4.5 17.8798186,4.5 17.5228365,4.5 C17.0712399,4.5 16.5636277,4.5 16,4.5 L16,27 L25.1515152,27 C27.8292594,27 30,24.8774981 30,22.2592593 L30,17 L30,12.7407407 C30,9.77777778 28.6666667,8 25.7575758,8 Z M9.25,16.75 C9.25,20.476 12.274,23.5 16,23.5 C19.726,23.5 22.75,20.476 22.75,16.75 C22.75,13.024 19.726,10 16,10 C12.274,10 9.25,13.024 9.25,16.75 Z M11.25,16.75 C11.25,14.1263672 13.3763672,12 16,12 C18.6236328,12 20.75,14.1263672 20.75,16.75 C20.75,19.3736328 18.6236328,21.5 16,21.5 C13.3763672,21.5 11.25,19.3736328 11.25,16.75 Z" id="Mask" fill="currentColor"></path>
        </g>
    </g>
</svg>
