<svg xmlns="http://www.w3.org/2000/svg" width="32" height="32" fill="none" viewBox="0 0 32 32"><path fill="currentColor" fill-rule="evenodd" d="M6.971 19.5982c.611.6942 1.4476 1.5323 2.6744 2.759 1.2268 1.2266 2.065 2.0631 2.7593 2.6741.6789.5974 1.0936.863 1.4287 1.0121a5.3302 5.3302 0 0 0 4.3332 0c.3351-.1491.7499-.4147 1.4287-1.0121.6943-.611 1.5325-1.4475 2.7593-2.6741 1.2268-1.2266 2.0633-2.0648 2.6744-2.759.5974-.6788.8631-1.0934 1.0122-1.4286a5.3288 5.3288 0 0 0 0-4.3326c-.1491-.3352-.4148-.7498-1.0122-1.4286-.6111-.6942-1.4476-1.5324-2.6744-2.759s-2.065-2.0631-2.7593-2.674c-.6788-.5975-1.0936-.8631-1.4287-1.0122a5.3307 5.3307 0 0 0-4.3332 0c-.3351.149-.7498.4147-1.4287 1.0121-.6943.611-1.5325 1.4475-2.7593 2.6741-1.2268 1.2266-2.0633 2.0648-2.6743 2.759-.5975.6788-.8632 1.0934-1.0123 1.4286a5.3287 5.3287 0 0 0 0 4.3326c.1491.3351.4148.7498 1.0123 1.4286Zm5.8462-15.919c-1.3269.5904-2.5311 1.7945-4.9395 4.2026-2.4085 2.4082-3.6127 3.6123-4.203 4.9391a7.8282 7.8282 0 0 0 0 6.3648c.5903 1.3268 1.7945 2.5309 4.203 4.9391 2.4084 2.4081 3.6126 3.6122 4.9395 4.2025a7.831 7.831 0 0 0 6.3656 0c1.3269-.5903 2.5311-1.7944 4.9396-4.2025 2.4084-2.4082 3.6126-3.6123 4.203-4.9391a7.8284 7.8284 0 0 0 0-6.3648c-.5904-1.3268-1.7946-2.5309-4.203-4.939-2.4085-2.4082-3.6127-3.6123-4.9396-4.2026a7.831 7.831 0 0 0-6.3656 0Z" clip-rule="evenodd"/><path fill="currentColor" d="M12.6146 10.1452c1.185-1.1849 1.7775-1.7773 2.4607-1.9993a2.9928 2.9928 0 0 1 1.8494 0c.6832.222 1.2757.8144 2.4608 1.9993l2.4685 2.4683c1.185 1.1849 1.7776 1.7773 1.9996 2.4605a2.9929 2.9929 0 0 1 0 1.8492c-.222.6831-.8146 1.2756-1.9996 2.4605l-2.4685 2.4683c-1.1851 1.1849-1.7776 1.7773-2.4608 1.9993a2.9935 2.9935 0 0 1-1.8494 0c-.6832-.222-1.2757-.8144-2.4607-1.9993l-2.4686-2.4683c-1.185-1.1849-1.7775-1.7774-1.9995-2.4605a2.9917 2.9917 0 0 1 0-1.8492c.222-.6832.8145-1.2756 1.9995-2.4605l2.4686-2.4683Z"/></svg>
