<svg fill="none" height="32" viewBox="0 0 32 32" width="32" xmlns="http://www.w3.org/2000/svg"><path d="m22.75 26c.6904 0 1.25.5596 1.25 1.25v1.5c0 .6904-.5596 1.25-1.25 1.25s-1.25-.5596-1.25-1.25v-1.5c0-.6904.5596-1.25 1.25-1.25zm-13.5-24c.64721 0 1.1795.49187 1.2435 1.12219l.0065.12781v17.2885c0 .3344.0348.4556.1002.5778.0653.1222.1613.2182.2835.2835.1047.0561.2088.0896.4469.0981l.1309.0021h10.0385v-10.0385c0-.3344-.0348-.4556-.1002-.5778-.0653-.1222-.1613-.2182-.2835-.2835-.1047-.0561-.2088-.0896-.4469-.0981l-.1309-.0021h-6.7885c-.6904 0-1.25-.55964-1.25-1.25 0-.64721.4919-1.17953 1.1222-1.24355l.1278-.00645h6.4042c1.3373 0 1.8222.13924 2.3111.4007s.8725.64514 1.134 1.13403l.0923.18482c.2018.43865.3084.95615.3084 2.12625v9.6542h4.75c.6904 0 1.25.5596 1.25 1.25 0 .6472-.4919 1.1795-1.1222 1.2435l-.1278.0065-.75-.001v.001h-16.1542c-1.3373 0-1.8222-.1392-2.31107-.4007-.48889-.2615-.87257-.6451-1.13403-1.134l-.09229-.1849c-.18739-.4072-.29269-.8826-.30678-1.8853l-.00063-2.3741-.001-.021-.001-7.5h-4.749c-.64721 0-1.17953-.4919-1.24355-1.12219l-.00645-.12781c0-.69036.55964-1.25 1.25-1.25h4.749l.001-4.75c0-.69036.55964-1.25 1.25-1.25z" fill="currentColor"/></svg>
