<svg fill="none" height="32" viewBox="0 0 32 32" width="32" xmlns="http://www.w3.org/2000/svg"><g fill="currentColor"><path d="m19.8616 11.512c.2841-.4733.1306-1.0871-.343-1.3711-.4736-.28395-1.0878-.1305-1.372.3428l-6.0044 10.001c-.2842.4733-.1306 1.0871.343 1.3711.4736.2839 1.0878.1305 1.372-.3428z"/><g clip-rule="evenodd" fill-rule="evenodd"><path d="m17.3 19.15c0-1.2979 1.0521-2.35 2.35-2.35s2.35 1.0521 2.35 2.35v.5c0 1.2979-1.0521 2.35-2.35 2.35s-2.35-1.0521-2.35-2.35zm2.35-.65c-.359 0-.65.291-.65.65v.5c0 .359.291.65.65.65s.65-.291.65-.65v-.5c0-.359-.291-.65-.65-.65z"/><path d="m12.35 10c-1.2979 0-2.35001 1.0521-2.35001 2.35v.5c0 1.2979 1.05211 2.35 2.35001 2.35s2.35-1.0521 2.35-2.35v-.5c0-1.2979-1.0521-2.35-2.35-2.35zm-.65 2.35c0-.359.291-.65.65-.65s.65.291.65.65v.5c0 .359-.291.65-.65.65s-.65-.291-.65-.65z"/><path d="m11.6984 4.25129.0257.00069.0192-.01701c.0723-.06423.1554-.13961.2655-.23951l.061-.05534c.4031-.36584.8224-.74646 1.2128-1.03919.4424-.33181 1.0287-.69447 1.7952-.85495.6082-.12735 1.2362-.12735 1.8444 0 .7664.16048 1.3528.52314 1.7952.85495.3904.29273.8097.67336 1.2128 1.0392l.0609.05533c.1101.0999.1933.17528.2656.23951l.0192.01701.0257-.00069c.0967-.0027.2088-.00701.3574-.01276l.0822-.0032c.544-.02117 1.1098-.0432 1.597-.01653.5523.03023 1.2345.12928 1.9248.49901.5478.2934 1.0288.69707 1.4129 1.18557.484.6156.7 1.27029.8257 1.80888.1108.47513.1874 1.03621.261 1.57552l.0111.08167c.0202.14729.0354.25848.0495.35418l.0038.02537.0201.01596c.0758.06008.1645.12886.282.21995l.065.05039c.4303.3334.878.6803 1.2341 1.0139.4036.3781.8625.8926 1.1537 1.6195.231.5769.34 1.1953.3202 1.8164-.0249.7827-.2802 1.423-.5302 1.9164-.2205.4352-.5225.9143-.8128 1.3747l-.0439.0697c-.0793.1258-.1391.2208-.1898.3032l-.0134.0218.0052.0252c.0194.0947.0431.2044.0746.3497l.0174.0805c.1153.5319.2353 1.0854.2936 1.5699.0661.549.0871 1.2381-.1572 1.9821-.1938.5904-.5078 1.1343-.9222 1.5973-.5222.5836-1.1294.91-1.638 1.1273-.4487.1917-.988.3645-1.5063.5306l-.0785.0252c-.1415.0454-.2484.0797-.3402.1102l-.0243.0081-.0122.0226c-.046.0851-.0984.1844-.1677.3159l-.0383.0728c-.2537.4817-.5175.9828-.7842 1.3914-.3023.4631-.7292 1.0044-1.3946 1.4173-.5279.3277-1.1181.5425-1.7332.6309-.7751.1113-1.4501-.0289-1.9793-.1894-.4669-.1416-.9911-.3558-1.495-.5617l-.0763-.0312c-.1376-.0562-.2415-.0986-.3314-.1342l-.0239-.0094-.0239.0094c-.0899.0356-.1938.078-.3314.1342l-.0763.0312c-.5039.2059-1.0281.4201-1.495.5617-.5293.1605-1.2043.3007-1.9794.1894-.6151-.0884-1.2052-.3032-1.7332-.6309-.66529-.4129-1.0922-.9542-1.3945-1.4173-.26669-.4086-.53055-.9097-.78418-1.3913l-.03837-.0729c-.0693-.1315-.12164-.2308-.16764-.3159l-.01223-.0225-.02433-.0082c-.09179-.0305-.19865-.0648-.34021-.1102l-.07841-.0252c-.51835-.1661-1.05765-.3389-1.50635-.5306-.50858-.2173-1.11581-.5437-1.63802-1.1273-.41438-.463-.72838-1.0069-.9222-1.5973-.24425-.744-.22332-1.4331-.1572-1.9821.05834-.4845.17829-1.0379.29359-1.5699l.01744-.0805c.03146-.1453.05518-.255.07464-.3497l.00512-.0252-.01341-.0218c-.05069-.0824-.1105-.1774-.18976-.3032l-.04391-.0696c-.29029-.4605-.59231-.9395-.81281-1.3748-.24993-.4934-.50528-1.1337-.53022-1.9164-.0198-.6211.08925-1.2395.32027-1.8164.29114-.7269.7501-1.2414 1.1537-1.6195.35607-.3336.80371-.6804 1.23398-1.0138l.06511-.05049c.11749-.09108.20617-.15987.28198-.21995l.02009-.01596.00378-.02537c.01412-.0957.02935-.20689.04948-.35418l.01114-.0816c.0736-.53933.15018-1.10044.26104-1.5756.12566-.53859.34168-1.19327.82567-1.80887.38405-.4885.86512-.89217 1.4129-1.18557.69028-.36973 1.37253-.46878 1.92477-.49901.48715-.02667 1.05305-.00464 1.59695.01653l.0823.0032c.1486.00575.2607.01006.3574.01276zm1.9903 1.59569c.9131-.82849 1.3697-1.24274 1.9014-1.35406.2703-.0566.5494-.0566.8198 0 .5317.11132.9882.52557 1.9014 1.35406.4291.38928.6436.58392.8956.70808.1301.06405.2667.11378.4075.1483.2729.06691.5623.0557 1.1413.0333 1.232-.0477 1.8481-.07154 2.3269.18494.2435.1304.4573.30981.628.52692.3357.42705.4192 1.03786.5862 2.25949.0784.57399.1177.86099.2309 1.11809.0585.1327.1312.2586.2168.3756.1661.2266.395.4041.8529.759.9745.7555 1.4617 1.1332 1.6637 1.6375.1026.2563.1511.5312.1423.8072-.0173.543-.346 1.0646-1.0033 2.1077-.3089.4902-.4633.7352-.5418 1.005-.0405.1392-.0657.2824-.0753.427-.0185.2804.0428.5635.1654 1.1297.2609 1.2051.3914 1.8076.2219 2.3238-.0861.2624-.2257.5041-.4098.7099-.3623.4048-.9493.5931-2.1234.9696-.5516.177-.8275.2654-1.061.4217-.1205.0805-.2319.174-.3322.2787-.1944.2028-.3294.4591-.5995.9717-.5747 1.0908-.8621 1.6362-1.3236 1.9227-.2347.1456-.4969.2411-.7703.2804-.5377.0772-1.1084-.1559-2.2499-.6221-.5363-.219-.8045-.3286-1.0838-.359-.1441-.0158-.2895-.0158-.4336 0-.2793.0304-.5475.1399-1.0838.359-1.1415.4662-1.7122.6993-2.2499.6221-.2734-.0393-.5357-.1348-.7703-.2804-.4616-.2865-.7489-.8319-1.3237-1.9227-.27-.5126-.40503-.7689-.59942-.9717-.10029-.1047-.21167-.1982-.33217-.2787-.23354-.1563-.50937-.2447-1.06103-.4217-1.17408-.3765-1.76112-.5648-2.12337-.9696-.18417-.2058-.32373-.4475-.40987-.7099-.16944-.5162-.03898-1.1187.22194-2.3238.12259-.5662.18389-.8493.16538-1.1297-.00955-.1446-.03479-.2878-.07529-.427-.0785-.2698-.23293-.5148-.54179-1.005-.65734-1.0431-.98601-1.5647-1.00331-2.1077-.0088-.276.03966-.5509.14234-.8072.20196-.5043.6892-.882 1.66368-1.6375.45787-.3549.68681-.5324.85284-.759.08566-.117.15836-.2429.21681-.3756.11327-.2571.1525-.5441.23096-1.11809.16698-1.22163.25047-1.83245.58621-2.25949.17069-.21711.3845-.39652.62796-.52692.47885-.25648 1.09493-.23264 2.32693-.18494.5789.0224.8684.03361 1.1413-.0333.1408-.03452.2774-.08425.4074-.1483.2521-.12416.4666-.3188.8957-.70808z"/></g></g></svg>
