<svg width="32" height="32" fill="none" xmlns="http://www.w3.org/2000/svg"><path fill-rule="evenodd" clip-rule="evenodd" d="M11.255 4.585a3.75 3.75 0 00-3.75 3.75V23.75a3.75 3.75 0 003.75 3.75h9.995A3.75 3.75 0 0025 23.75v-9.588L24.997 14H18.75A2.75 2.75 0 0116 11.25V4.61a2.75 2.75 0 00-.366-.025h-4.379zM18.5 6.282v4.968c0 .138.112.25.25.25h5.141a3.442 3.442 0 00-.033-.033L18.5 6.282zM5.005 8.335a6.25 6.25 0 016.25-6.25h4.38a5.249 5.249 0 013.65 1.478l6.311 6.108a6.25 6.25 0 011.904 4.49v9.589A6.25 6.25 0 0121.25 30h-9.995a6.25 6.25 0 01-6.25-6.25V8.335z" fill="currentColor"/></svg>
