<svg fill="none" height="32" viewBox="0 0 32 32" width="32" xmlns="http://www.w3.org/2000/svg"><g fill="currentColor"><path d="m14.9 9.59999c0-.27911 0-.41867.0344-.53222.0776-.25569.2777-.45577.5334-.53333.1135-.03445.2531-.03445.5322-.03445s.4187 0 .5322.03445c.2557.07756.4558.27764.5333.53333.0345.11355.0345.25311.0345.53222v7.80001c0 .2791 0 .4187-.0345.5322-.0775.2557-.2776.4558-.5333.5333-.1135.0345-.2531.0345-.5322.0345s-.4187 0-.5322-.0345c-.2557-.0775-.4558-.2776-.5334-.5333-.0344-.1135-.0344-.2531-.0344-.5322z"/><path d="m14.5 22c0-.8284.6716-1.5 1.5-1.5s1.5.6716 1.5 1.5v.2c0 .8284-.6716 1.5-1.5 1.5s-1.5-.6716-1.5-1.5z"/><path clip-rule="evenodd" d="m16 2c-3.8656 0-7.36736 1.56837-9.8995 4.1005-2.53213 2.53214-4.1005 6.0339-4.1005 9.8995s1.56837 7.3674 4.1005 9.8995c2.53214 2.5321 6.0339 4.1005 9.8995 4.1005s7.3674-1.5684 9.8995-4.1005 4.1005-6.0339 4.1005-9.8995-1.5684-7.36736-4.1005-9.8995c-2.5321-2.53213-6.0339-4.1005-9.8995-4.1005zm-8.13173 5.86827c2.08246-2.08246 4.95573-3.36827 8.13173-3.36827s6.0493 1.28581 8.1317 3.36827c2.0825 2.08246 3.3683 4.95573 3.3683 8.13173s-1.2858 6.0493-3.3683 8.1317c-2.0824 2.0825-4.9557 3.3683-8.1317 3.3683s-6.04927-1.2858-8.13173-3.3683c-2.08246-2.0824-3.36827-4.9557-3.36827-8.1317s1.28581-6.04927 3.36827-8.13173z" fill-rule="evenodd"/></g></svg>
