<svg fill="none" height="32" viewBox="0 0 32 32" width="32" xmlns="http://www.w3.org/2000/svg"><g fill="currentColor"><path d="m9.5022 9.60049c0-.56005 0-.84008.10899-1.05399.09587-.18816.24885-.34114.43701-.43702.2139-.10899.4939-.10899 1.054-.10899h.3c.5601 0 .8401 0 1.054.10899.1882.09588.3411.24886.437.43702.109.21391.109.49394.109 1.05399v.3c0 .56001 0 .84011-.109 1.05401-.0959.1881-.2488.3411-.437.437-.2139.109-.4939.109-1.054.109h-.3c-.5601 0-.8401 0-1.054-.109-.18816-.0959-.34114-.2489-.43701-.437-.10899-.2139-.10899-.494-.10899-1.05401z"/><path d="m18.9973 9.60439c0-.56006 0-.84008.109-1.054.0959-.18816.2489-.34114.437-.43701.2139-.10899.494-.10899 1.054-.10899h.3c.5601 0 .8401 0 1.054.10899.1882.09587.3411.24885.437.43701.109.21392.109.49394.109 1.05399v.3c0 .56002 0 .84012-.109 1.05402-.0959.1881-.2488.3411-.437.437-.2139.109-.4939.109-1.054.109h-.3c-.56 0-.8401 0-1.054-.109-.1881-.0959-.3411-.2489-.437-.437-.109-.2139-.109-.494-.109-1.05401z"/><path d="m9.61119 14.7892c-.10899.2139-.10899.4939-.10899 1.054v.2961c0 .56 0 .84.10899 1.0539.09587.1882.24885.3412.43701.4371.2139.109.4939.109 1.054.109h.3c.5601 0 .8401 0 1.054-.109.1882-.0959.3411-.2489.437-.4371.109-.2139.109-.4939.109-1.0539v-.2961c0-.5601 0-.8401-.109-1.054-.0959-.1882-.2488-.3412-.437-.437-.2139-.109-.4939-.109-1.054-.109h-.3c-.5601 0-.8401 0-1.054.109-.18816.0958-.34114.2488-.43701.437z"/><path d="m18.9973 15.8407c0-.56 0-.8401.109-1.054.0959-.1881.2489-.3411.437-.437.2139-.109.494-.109 1.054-.109h.3c.5601 0 .8401 0 1.054.109.1882.0959.3411.2489.437.437.109.2139.109.494.109 1.054v.3c0 .5601 0 .8401-.109 1.054-.0959.1882-.2488.3412-.437.437-.2139.109-.4939.109-1.054.109h-.3c-.56 0-.8401 0-1.054-.109-.1881-.0958-.3411-.2488-.437-.437-.109-.2139-.109-.4939-.109-1.054z"/><path d="m9.61119 21.0455c-.10899.2139-.10899.494-.10899 1.054v.2968c0 .56 0 .8401.10899 1.054.09587.1881.24885.3411.43701.437.2139.109.4939.109 1.054.109h.3c.5601 0 .8401 0 1.054-.109.1882-.0959.3411-.2489.437-.437.109-.2139.109-.494.109-1.054v-.2968c0-.56 0-.8401-.109-1.054-.0959-.1881-.2488-.3411-.437-.437-.2139-.109-.4939-.109-1.054-.109h-.3c-.5601 0-.8401 0-1.054.109-.18816.0959-.34114.2489-.43701.437z"/><path d="m18.9973 22.0995c0-.56 0-.8401.109-1.054.0959-.1881.2489-.3411.437-.437.2139-.109.494-.109 1.054-.109h.3c.5601 0 .8401 0 1.054.109.1882.0959.3411.2489.437.437.109.2139.109.494.109 1.054v.2968c0 .56 0 .8401-.109 1.054-.0959.1881-.2488.3411-.437.437-.2139.109-.4939.109-1.054.109h-.3c-.56 0-.8401 0-1.054-.109-.1881-.0959-.3411-.2489-.437-.437-.109-.2139-.109-.494-.109-1.054z"/><path clip-rule="evenodd" d="m19.203 2.50098h-6.4057c-1.285-.00002-2.3252-.00003-3.16839.06886-.86937.07103-1.63874.22149-2.35236.5851-1.12898.57524-2.04686 1.49312-2.6221 2.62209-.36361.71363-.51406 1.48299-.58509 2.35237-.06889.84317-.06888 1.8834-.06887 3.1684v9.41c-.00001 1.285-.00002 2.3252.06887 3.1684.07103.8693.22148 1.6387.58509 2.3523.57524 1.129 1.49312 2.0469 2.6221 2.6221.71362.3636 1.48299.5141 2.35236.5851.84319.0689 1.88339.0689 3.16829.0689h6.4059c1.2849 0 2.3251 0 3.1683-.0689.8694-.071 1.6387-.2215 2.3524-.5851 1.1289-.5752 2.0468-1.4931 2.6221-2.6221.3636-.7136.514-1.483.5851-2.3523.0688-.8432.0688-1.8834.0688-3.1684v-9.4101c0-1.2849 0-2.32514-.0688-3.1683-.0711-.86938-.2215-1.63874-.5851-2.35237-.5753-1.12897-1.4932-2.04685-2.6221-2.62209-.7137-.36361-1.483-.51407-2.3524-.5851-.8432-.06889-1.8834-.06888-3.1684-.06886zm-10.79148 2.88147c.30246-.1541.7062-.26251 1.42097-.32091.72941-.05959 1.66721-.06056 3.01801-.06056h6.2993c1.3508 0 2.2887.00097 3.018.06056.7148.0584 1.1185.16681 1.421.32091.6586.33556 1.194.87099 1.5295 1.52956.1541.30246.2626.7062.321 1.42097.0595.72936.0605 1.66722.0605 3.01802v9.3036c0 1.3507-.001 2.2886-.0605 3.018-.0584.7148-.1669 1.1185-.321 1.4209-.3355.6586-.8709 1.194-1.5295 1.5296-.3025.1541-.7062.2625-1.421.3209-.7293.0596-1.6672.0606-3.018.0606h-6.2993c-1.3508 0-2.2886-.001-3.01801-.0606-.71477-.0584-1.11851-.1668-1.42097-.3209-.65856-.3356-1.194-.871-1.52955-1.5296-.15411-.3024-.26252-.7061-.32092-1.4209-.05959-.7294-.06056-1.6673-.06056-3.018v-9.3036c0-1.3508.00097-2.28866.06056-3.01802.0584-.71477.16681-1.11851.32092-1.42097.33555-.65857.87099-1.194 1.52955-1.52956z" fill-rule="evenodd"/></g></svg>
