<svg xmlns="http://www.w3.org/2000/svg" width="32" height="32" fill="currentColor" viewBox="0 0 32 32"><path fill-rule="evenodd" d="M10.634 4.954c.468-.468 1.306-.615 2.224.097.771.599 1.577 1.846 1.82 3.946-2.102-.241-3.349-1.048-3.947-1.818-.712-.918-.565-1.757-.097-2.225Zm5.36.001a6.381 6.381 0 0 0-1.603-1.879c-1.707-1.324-3.993-1.422-5.525.11-1.532 1.532-1.435 3.819-.11 5.526.077.1.159.197.244.292h-.163c-.777 0-1.166.037-1.493.08-2.24.22-4.004 1.996-4.3 4.237a10.694 10.694 0 0 0-.01 2.687A4 4 0 0 0 5 18.948v1.247c0 3.08 0 4.62.6 5.797a5.5 5.5 0 0 0 2.403 2.403c1.177.6 2.717.6 5.797.6h4.4c3.08 0 4.62 0 5.797-.6a5.5 5.5 0 0 0 2.404-2.403C27 24.815 27 23.275 27 20.195v-1.247a4 4 0 0 0 1.965-2.94c.113-.855.105-1.833-.008-2.687-.297-2.241-2.055-4.014-4.301-4.239A10.68 10.68 0 0 0 23.16 9h-.166c.083-.094.163-.19.24-.288 1.324-1.707 1.421-3.994-.11-5.526-1.532-1.532-3.819-1.434-5.526-.11a6.381 6.381 0 0 0-1.603 1.88Zm5.362 0c-.468-.469-1.307-.616-2.225.096-.77.599-1.577 1.846-1.819 3.946 2.101-.241 3.348-1.048 3.947-1.818.712-.918.565-1.757.097-2.225ZM8.837 11.476h5.913v5.507H7.67c-.702 0-.81-.006-.867-.013a1.5 1.5 0 0 1-1.29-1.29 8.17 8.17 0 0 1 .009-2.032 2.5 2.5 0 0 1 2.15-2.15c.122-.017.308-.022 1.165-.022Zm8.413 5.507v-5.507h5.913c.857 0 1.043.005 1.165.021a2.5 2.5 0 0 1 2.15 2.151c.085.639.094 1.393.009 2.032a1.5 1.5 0 0 1-1.29 1.29c-.057.007-.165.013-.867.013h-7.08Zm-9.75 2.53h7.25v6.982h-.95c-1.581 0-2.617-.002-3.409-.067-.762-.062-1.076-.17-1.253-.26a3 3 0 0 1-1.311-1.311c-.09-.177-.198-.49-.26-1.253-.065-.792-.067-1.828-.067-3.41v-.681Zm9.75 0v6.982h.95c1.581 0 2.617-.002 3.409-.067.762-.062 1.076-.17 1.253-.26a3 3 0 0 0 1.311-1.311c.09-.177.198-.49.26-1.253.065-.792.067-1.828.067-3.41v-.681h-7.25Z" clip-rule="evenodd"/></svg>
