<svg fill="none" height="32" viewBox="0 0 32 32" width="32" xmlns="http://www.w3.org/2000/svg"><path d="m23.4954 2.02453c.6347.12699 1.0602.71387.9993 1.34464l-.0187.12662-1.302 6.50421h3.576c.6904 0 1.25.5596 1.25 1.25 0 .6472-.4919 1.1795-1.1222 1.2435l-.1278.0065h-4.076l-1.4 7h3.476c.6904 0 1.25.5596 1.25 1.25 0 .6472-.4919 1.1795-1.1222 1.2435l-.1278.0065h-3.976l-1.398 6.9947c-.1355.6771-.794 1.1162-1.471.9808-.6346-.127-1.0601-.7139-.9992-1.3447l.0187-.1266 1.3005-6.5042h-6.851l-1.39803 6.9952c-.1354.6769-.79393 1.1159-1.47088.9805-.63464-.1269-1.06016-.7136-.99931-1.3443l.01874-.1266 1.30048-6.5048h-3.575c-.69036 0-1.25-.5596-1.25-1.25 0-.6472.49187-1.1795 1.12219-1.2435l.12781-.0065h4.075l1.4-7h-3.475c-.69036 0-1.25-.5596-1.25-1.25 0-.6472.49187-1.1795 1.12219-1.2435l.12781-.0065h3.975l1.3995-6.99454c.1354-.67695.7939-1.11597 1.4709-.98057.6346.12693 1.0602.71365.9993 1.34428l-.0187.12659-1.302 6.50424h6.851l1.3995-6.99474c.1355-.6771.794-1.11618 1.4709-.98073zm-4.7704 17.47547 1.4-7h-6.851l-1.4 7z" fill="currentColor"/></svg>
