<svg fill="none" height="32" viewBox="0 0 32 32" width="32" xmlns="http://www.w3.org/2000/svg"><path d="m19.9867 3c7.28 0 9.0133 1.73333 9.0133 9.0133v7.9734c0 7.28-1.7333 9.0133-9.0133 9.0133h-7.9734c-7.27997 0-9.0133-1.7333-9.0133-9.0133v-7.9734c0-7.27997 1.73333-9.0133 9.0133-9.0133z" fill="#2787f5"/><path d="m7.65001 11h1.89583c.48456 0 .66676.2121.84846.737.9272 2.701 2.4906 5.0615 3.1333 5.0615.241 0 .3516-.111.3516-.7231v-2.7918c-.0704-1.2855-.7533-1.3909-.7533-1.8478 0-.2121.1812-.4358.4824-.4358h2.9792c.4017 0 .5416.2148.5416.6969v3.7559c0 .4016.1745.5422.295.5422.241 0 .4419-.1406.8837-.5824 1.3658-1.5265 2.3299-3.8764 2.3299-3.8764.1205-.2812.3428-.5362.8248-.5362h1.8958c.5734 0 .6938.2952.5734.6969-.2238 1.0257-2.2315 3.9045-2.5171 4.3106l-.0338.0478c-.2008.3213-.2811.4821 0 .8435.2009.2813.8637.8436 1.3056 1.3658.8143.9162 1.4281 1.6891 1.599 2.2218.1563.5344-.1146.8053-.6562.8053h-1.8959c-.723 0-.9349-.5767-2.2203-1.8621-1.1248-1.0846-1.6069-1.2252-1.8881-1.2252-.3816 0-.4957.1081-.4957.6498v1.7001c0 .4665-.1491.7374-1.3542.7374-2.0085 0-4.2157-1.2194-5.78234-3.4689-2.34993-3.2939-2.99266-5.7845-2.99266-6.2866 0-.2812.10834-.5362.65001-.5362z" fill="#fff"/></svg>
