<svg width="32" height="32" fill="none" xmlns="http://www.w3.org/2000/svg"><path fill-rule="evenodd" clip-rule="evenodd" d="M11.601 3.247c.345-.215.695-.36 1.091-.452.396-.09.754-.128 1.786-.128h7.06c1.784 0 2.43.185 3.082.534.652.349 1.164.86 1.512 1.512.349.652.535 1.298.535 3.081v15.078c0 1.783-.186 2.43-.535 3.082a3.635 3.635 0 01-1.512 1.512c-.652.348-1.298.534-3.081.534H9.128c-1.783 0-2.43-.186-3.082-.534a3.635 3.635 0 01-1.512-1.512C4.186 25.302 4 24.655 4 22.872v-9.727c0-1.033.037-1.39.129-1.786.09-.396.236-.746.452-1.09.215-.345.441-.625 1.172-1.355l4.495-4.495c.73-.73 1.009-.956 1.353-1.172zm1.732 3.42C12.597 6.667 12 7.264 12 8v2.667a1.333 1.333 0 002.667 0V8c0-.736-.597-1.333-1.334-1.333zM16 8a1.333 1.333 0 012.667 0v2.667a1.333 1.333 0 01-2.667 0V8zm5.333-1.333C20.597 6.667 20 7.264 20 8v2.667a1.333 1.333 0 002.667 0V8c0-.736-.597-1.333-1.334-1.333z" fill="currentColor"/></svg>
