<svg xmlns="http://www.w3.org/2000/svg" width="32" height="32" fill="currentColor" viewBox="0 0 32 32"><path fill-rule="evenodd" d="M11.601 3.247c.345-.215.695-.36 1.091-.452.396-.091.754-.128 1.786-.128h7.06c1.784 0 2.43.185 3.082.534.652.349 1.164.86 1.512 1.512.349.652.535 1.298.535 3.081v15.078c0 1.783-.186 2.43-.535 3.082a3.635 3.635 0 0 1-1.512 1.512c-.652.348-1.298.534-3.081.534H9.128c-1.783 0-2.43-.186-3.082-.534a3.635 3.635 0 0 1-1.512-1.512C4.186 25.302 4 24.655 4 22.872v-9.727c0-1.033.037-1.39.129-1.786a3.43 3.43 0 0 1 .452-1.09c.215-.345.441-.625 1.172-1.355l4.495-4.495c.73-.73 1.009-.956 1.353-1.172Zm1.732 3.42C12.597 6.667 12 7.264 12 8v2.667a1.333 1.333 0 1 0 2.667 0V8c0-.736-.597-1.333-1.334-1.333ZM16 8a1.333 1.333 0 0 1 2.667 0v2.667a1.333 1.333 0 0 1-2.667 0V8Zm5.333-1.333C20.597 6.667 20 7.264 20 8v2.667a1.333 1.333 0 1 0 2.667 0V8c0-.736-.597-1.333-1.334-1.333Z" clip-rule="evenodd"/></svg>
