<svg fill="none" height="32" viewBox="0 0 32 32" width="32" xmlns="http://www.w3.org/2000/svg"><g fill="currentColor"><path d="m22.7822 7c.5973 0 .8139.06219 1.0323.17898.2184.11678.3897.28816.5065.50653s.179.43498.179 1.03229v14.5644c0 .5973-.0622.8139-.179 1.0323s-.2881.3897-.5065.5065-.435.179-1.0323.179h-2.5644c-.5973 0-.8139-.0622-1.0323-.179s-.3897-.2881-.5065-.5065-.179-.435-.179-1.0323v-14.5644c0-.59731.0622-.81392.179-1.03229s.2881-.38975.5065-.50653c.2184-.11679.435-.17898 1.0323-.17898z"/><path d="m12.8145 7.17898c-.2184-.11678-.435-.17898-1.0323-.17898h-2.5644c-.59731 0-.81392.0622-1.03229.17898-.21837.11679-.38975.28817-.50653.50654-.11679.21837-.17898.43497-.17898 1.03229v14.56439c0 .5973.06219.8139.17898 1.0323.11678.2184.28816.3897.50653.5065s.43498.179 1.03229.179h2.5644c.5973 0 .8139-.0622 1.0323-.179s.3897-.2881.5065-.5065.179-.435.179-1.0323v-14.56439c0-.59732-.0622-.81392-.179-1.03229s-.2881-.38975-.5065-.50654z"/></g></svg>
