<svg fill="none" height="32" viewBox="0 0 32 32" width="32" xmlns="http://www.w3.org/2000/svg"><path d="m18.8156 20.3453c1.8055-1.8057 4.648-1.9721 6.5381-.3831l1.3657 1.1506c1.5586 1.3117 1.7171 3.6761.3513 5.2797-.7448.8617-1.7932 1.403-2.9269 1.5112-4.364.5878-8.942-1.5151-13.7366-6.3101-4.79463-4.795-6.89871-9.3747-6.31094-13.73772.03054-.34138.10148-.67793.21133-1.00259.25417-.74582.70285-1.41023 1.29969-1.92461 1.60481-1.36452 3.96777-1.20733 5.27932.35269l1.1492 1.36585c1.5915 1.88761 1.4264 4.73158-.3791 6.53728l-.9801.9788c-.2613.2618-.3468.6515-.2192.9987.3566.9748 1.2666 2.1927 2.7275 3.6537 1.4621 1.4622 2.6799 2.371 3.6534 2.729.3474.1273.7371.0412.9985-.2206z" fill="currentColor"/></svg>
