<svg height="32" viewBox="0 0 32 32" width="32" xmlns="http://www.w3.org/2000/svg"><g fill="none" fill-rule="evenodd"><path d="m0 0h32v32h-32z"/><path d="m12.9735982 2.9 6.4210161.00144847c2.7613718.0223433 4.1271105.30623965 5.5431044 1.06352148 1.3324361.7125946 2.3847168 1.76487528 3.0973114 3.09731134.7243565 1.35442895 1.0155966 2.66287776 1.0591064 5.19072141l.0058635.7205955v6.0528036c0 3.0109194-.2747628 4.4337581-1.0649699 5.9113169-.7125946 1.3324361-1.7648753 2.3847168-3.0973114 3.0973114-1.3544289.7243565-2.6628777 1.0155966-5.1907214 1.0591064l-.7205955.0058635h-6.0528036c-3.01091937 0-4.43375806-.2747628-5.91131691-1.0649699-1.33243606-.7125946-2.38471674-1.7648753-3.09731134-3.0973114-.72435653-1.3544289-1.01559667-2.6628777-1.05910644-5.1907214l-.00586351-.7205955.00144847-6.4210161c.0223433-2.76137176.30623965-4.12711051 1.06352148-5.54310441.7125946-1.33243606 1.76487528-2.38471674 3.09731134-3.09731134 1.47755885-.79020712 2.90039754-1.06496995 5.91131691-1.06496995zm7.5954018 14.875-4.6696882 5.674049c-.3359661.408183-.9091533.5153623-1.3653424.2724956l-.1114048-.0680376-2.8755646-1.997507-4.24662172 3.9183462c.24699842.1941188.51365282.3678646.7994205.5206948 1.02233114.5467487 2.01480032.7675139 4.23646802.8005113l.6373314.0044477h6.0528036c2.4555639 0 3.5674691-.1752029 4.5947763-.6638241l.2790231-.1411349c.9490454-.507555 1.6872848-1.2457944 2.1948398-2.1948398.2351911-.4397691.4100621-.8740125.5356147-1.4029482l-.0066432-.0044737zm-1.5425982-12.675-6.379443.00109895c-2.229832.01547614-3.28752551.19631397-4.26813687.66272515l-.27902315.14113488c-.94904542.50755505-1.68728475 1.24579438-2.1948398 2.1948398-.5964531 1.11527033-.80495898 2.19500242-.80495898 4.87379942v6.0528036c0 2.4555639.17520286 3.5674691.6638241 4.5947763l.1291759.2568219 4.811218-4.4365847c.3473664-.3203864.8559791-.3802417 1.264485-.1615l.1087324.0665777 2.7665646 1.921507 4.7066882-5.717049c.3517074-.427308.9600117-.5223423 1.4215735-.240485l.1037258.0717547 5.8140125 4.5297793.0055523-.2482668.0044477-.6373314v-6.0528036c0-2.4555639-.1752029-3.56746913-.6638241-4.59477627l-.1411349-.27902315c-.507555-.94904542-1.2457944-1.68728475-2.1948398-2.1948398-1.1152703-.5964531-2.1950024-.80495898-4.8737994-.80495898zm-7.0264018 4.9c1.1045695 0 2 .8954305 2 2s-.8954305 2-2 2-2-.8954305-2-2 .8954305-2 2-2z" fill="currentColor" fill-rule="nonzero"/></g></svg>
