<svg fill="none" height="32" viewBox="0 0 32 32" width="32" xmlns="http://www.w3.org/2000/svg"><g clip-rule="evenodd" fill="currentColor" fill-rule="evenodd"><path d="m16 8.99999c2.484 0 4.5 2.01601 4.5 4.50001s-2.016 4.5-4.5 4.5-4.5-2.016-4.5-4.5 2.016-4.50001 4.5-4.50001zm0 2.20001c-1.269 0-2.3 1.031-2.3 2.3s1.031 2.3 2.3 2.3 2.3-1.031 2.3-2.3-1.031-2.3-2.3-2.3z"/><path d="m16 2.89999c-6.11447 0-11.10001 4.6618-11.10001 10.45061 0 4.0398 2.59072 8.8899 7.70371 14.6324l.3522.3925c1.5213 1.6828 4.114 1.8134 5.7937.2948.1021-.0923.1994-.1896.2917-.2917 5.3492-5.9168 8.0587-10.8969 8.0587-15.028 0-5.78881-4.9855-10.45061-11.1-10.45061zm0 2.2c4.9312 0 8.9 3.71107 8.9 8.25061 0 3.4567-2.4736 8.0033-7.4906 13.5526-.0428.0473-.0879.0924-.1352.1352-.7784.7037-1.9799.6432-2.6836-.1352l-.3466-.3863c-4.78455-5.3737-7.14401-9.7908-7.14401-13.1663 0-4.53954 3.96881-8.25061 8.90001-8.25061z"/></g></svg>
