<svg xmlns="http://www.w3.org/2000/svg" width="32" height="32" fill="none" viewBox="0 0 32 32"><path fill="url(#a)" d="M0 16C0 7.1634 7.1634 0 16 0s16 7.1634 16 16-7.1634 16-16 16S0 24.8366 0 16Z"/><path fill="#fff" d="M15.2751 6.0656a.3333.3333 0 0 1 .5238.341h-.0001c-.0472.2098-.1063.3696-.1773.4792-2.5169 3.8864-1.4115 6.2226.2857 6.4736 1.7554.2597 3.0396-.9165 2.7648-3.455a557.711 557.711 0 0 1-.1187-1.1053.3067.3067 0 0 1 .4737-.2883c.5705.376 1.2532 1.0597 2.0481 2.0511 2.829 3.5284 2.9397 6.4817 2.9238 7.752C23.9418 22.868 20.5705 26 15.9994 26S8 22.8686 8 18.3139c.0203-3.4483 1.762-8.3022 6.5708-11.7336.1796-.1282.4143-.2997.7043-.5147Z"/><defs><linearGradient id="a" x1="-16" x2="16" y1="16" y2="48" gradientUnits="userSpaceOnUse"><stop stop-color="#FF5263"/><stop offset="1" stop-color="#FF3347"/></linearGradient></defs></svg>
