<svg xmlns="http://www.w3.org/2000/svg" width="32" height="32" fill="currentColor" viewBox="0 0 32 32"><path fill-rule="evenodd" d="M7.929 7.929A9.973 9.973 0 0 1 15 5a9.973 9.973 0 0 1 7.071 2.929A9.973 9.973 0 0 1 25 15a9.973 9.973 0 0 1-2.929 7.071A9.973 9.973 0 0 1 15 25a9.973 9.973 0 0 1-7.071-2.929A9.973 9.973 0 0 1 5 15a9.973 9.973 0 0 1 2.929-7.071ZM15 7.5a7.473 7.473 0 0 0-5.303 2.197A7.473 7.473 0 0 0 7.5 15a7.47 7.47 0 0 0 2.197 5.303A7.473 7.473 0 0 0 15 22.5a7.473 7.473 0 0 0 5.303-2.197A7.473 7.473 0 0 0 22.5 15a7.473 7.473 0 0 0-2.197-5.303A7.473 7.473 0 0 0 15 7.5Z" clip-rule="evenodd"/><path fill-rule="evenodd" d="M21.624 21.357a1.25 1.25 0 0 1 1.768 0l4.752 4.751a1.25 1.25 0 0 1-1.768 1.768l-4.752-4.752a1.25 1.25 0 0 1 0-1.767Z" clip-rule="evenodd"/></svg>
