<svg width="32" height="32" fill="none" xmlns="http://www.w3.org/2000/svg"><path fill-rule="evenodd" clip-rule="evenodd" d="M7.929 7.929A9.973 9.973 0 0115 5a9.973 9.973 0 017.071 2.929A9.973 9.973 0 0125 15a9.973 9.973 0 01-2.929 7.071A9.973 9.973 0 0115 25a9.973 9.973 0 01-7.071-2.929A9.973 9.973 0 015 15a9.973 9.973 0 012.929-7.071zM15 7.5a7.473 7.473 0 00-5.303 2.197A7.473 7.473 0 007.5 15c0 2.071.838 3.945 2.197 5.303A7.473 7.473 0 0015 22.5a7.473 7.473 0 005.303-2.197A7.473 7.473 0 0022.5 15a7.473 7.473 0 00-2.197-5.303A7.473 7.473 0 0015 7.5z" fill="currentColor"/><path fill-rule="evenodd" clip-rule="evenodd" d="M21.624 21.357a1.25 1.25 0 011.768 0l4.752 4.751a1.25 1.25 0 01-1.768 1.768l-4.752-4.752a1.25 1.25 0 010-1.767z" fill="currentColor"/></svg>
