<svg fill="none" height="32" viewBox="0 0 32 32" width="32" xmlns="http://www.w3.org/2000/svg"><path d="m25.4933 3.11997.0067.1305v2.69055c0 2.0273-1.3244 3.80664-3.2457 4.39908l-.2081.0589-4.5462 1.1725v7.9285 3.1894c0 6.1126-6.004 9.2529-9.27847 6.0153-1.45092-1.4346-1.6314-3.8562-.42281-5.801 1.26115-2.0294 3.76638-3.2681 7.20118-3.3932l.0008-11.18979c-.0347-2.46241 1.1628-4.20883 3.4346-4.96609l.2401-.07606c.9196-.27884 2.6756-.69088 5.3152-1.25088.7342-.15577 1.4279.36448 1.5027 1.09229zm-10.4944 18.88003-.317.0191c-2.4161.1756-4.0037 1.005-4.75087 2.1989-.6244.9976-.53835 2.144.0517 2.7233 1.58007 1.5512 5.01727-.2338 5.01727-4.2966zm8.0011-17.20253-1.5905.35983c-1.0554.24597-1.7868.43677-2.1836.56902-1.1614.38713-1.691 1.09418-1.7242 2.37049l-.0017.89266 3.9216-1.01117c.8745-.22563 1.501-.98121 1.5717-1.8693l.0067-.16798z" fill="currentColor"/></svg>
