<?xml version="1.0" encoding="UTF-8"?>
<svg width="32px" height="32px" viewBox="0 0 32 32" version="1.1" xmlns="http://www.w3.org/2000/svg" xmlns:xlink="http://www.w3.org/1999/xlink">
    <!-- Generator: Sketch 52.5 (67469) - http://www.bohemiancoding.com/sketch -->
    <title>spinner_medium</title>
    <desc>Created with Sketch.</desc>
    <g id="Page-1" stroke="none" stroke-width="1" fill="none" fill-rule="evenodd">
        <g id="Kit-Item" transform="translate(-198.000000, -92.000000)" fill="currentColor" fill-rule="nonzero">
            <g id="Circular-Loader-16pt-@Controls.Loaders" transform="translate(64.000000, 2.000000)">
                <path d="M150,122 C149.171573,122 148.5,121.328427 148.5,120.5 C148.5,119.671573 149.171573,119 150,119 C157.179702,119 163,113.179702 163,106 C163,98.8202983 157.179702,93 150,93 C142.820298,93 137,98.8202983 137,106 C137,107.556936 137.273119,109.074119 137.800184,110.501883 C138.087078,111.279046 137.689635,112.141635 136.912471,112.428529 C136.135307,112.715422 135.272718,112.31798 134.985825,111.540816 C134.336423,109.781654 134,107.912818 134,106 C134,97.163444 141.163444,90 150,90 C158.836556,90 166,97.163444 166,106 C166,114.836556 158.836556,122 150,122 Z" id="spinner_medium"></path>
            </g>
        </g>
    </g>
</svg>
