<svg xmlns="http://www.w3.org/2000/svg" width="32" height="32" fill="none" viewBox="0 0 32 32"><rect width="32" height="32" fill="url(#a)" rx="16"/><path fill="#fff" fill-rule="evenodd" d="M16.813 12.077c-.408 1.193-.956 2.398-1.647 3.089-.691.69-1.896 1.239-3.089 1.647a19.164 19.164 0 0 1-.912.288 24.54 24.54 0 0 1-.315.09c-.434.12-.434.927 0 1.047a24.54 24.54 0 0 1 1.002.303l.225.075c1.193.408 2.398.956 3.089 1.647.69.69 1.239 1.896 1.647 3.088a19.164 19.164 0 0 1 .288.912l.09.316c.12.433.927.433 1.047 0a25.28 25.28 0 0 1 .303-1.003l.075-.224c.408-1.193.956-2.398 1.647-3.09.69-.69 1.896-1.238 3.088-1.646l.226-.075a21.443 21.443 0 0 1 1.002-.303c.433-.12.433-.927 0-1.048a24.54 24.54 0 0 1-1.003-.302l-.224-.075c-1.193-.408-2.398-.956-3.09-1.647-.69-.691-1.238-1.896-1.646-3.089a19.793 19.793 0 0 1-.378-1.227c-.12-.434-.927-.434-1.048 0a24.11 24.11 0 0 1-.377 1.227Z" clip-rule="evenodd"/><path fill="#fff" d="M10.72 7.015a.457.457 0 0 0-.868 0L9.504 8.06A2.286 2.286 0 0 1 8.06 9.504l-1.044.348a.457.457 0 0 0 0 .867l1.044.348a2.286 2.286 0 0 1 1.445 1.446l.348 1.043a.457.457 0 0 0 .867 0l.348-1.043a2.286 2.286 0 0 1 1.446-1.446l1.043-.348a.457.457 0 0 0 0-.867l-1.043-.348a2.286 2.286 0 0 1-1.446-1.445l-.348-1.044Z"/><defs><linearGradient id="a" x1="-16" x2="16" y1="16" y2="48" gradientUnits="userSpaceOnUse"><stop stop-color="#C48AFF"/><stop offset="1" stop-color="#AA65F0"/></linearGradient></defs></svg>
