<svg xmlns="http://www.w3.org/2000/svg" width="32" height="32" fill="currentColor" viewBox="0 0 32 32"><path d="M6.904 2.394a.615.615 0 0 1 1.148 0l.866 2.254c.238.62.728 1.112 1.348 1.352l2.343.907a.615.615 0 0 1 0 1.146l-2.337.905a2.355 2.355 0 0 0-1.352 1.36l-.867 2.287a.615.615 0 0 1-1.15 0l-.87-2.292a2.355 2.355 0 0 0-1.34-1.357l-2.304-.904a.615.615 0 0 1 0-1.144l2.309-.906a2.355 2.355 0 0 0 1.338-1.348l.868-2.26Z"/><path fill-rule="evenodd" d="M15.385 15.376c.968-.968 1.74-2.72 2.318-4.478a35.958 35.958 0 0 0 .712-2.507c.127-.518 1.068-.518 1.196 0l.078.313a35.964 35.964 0 0 0 .634 2.194c.578 1.759 1.35 3.51 2.318 4.478.969.969 2.715 1.74 4.47 2.318a36.017 36.017 0 0 0 2.502.713c.516.128.516 1.067 0 1.195-.104.025-.208.052-.315.079a35.849 35.849 0 0 0-2.188.634c-1.754.578-3.5 1.35-4.469 2.318-.969.968-1.74 2.719-2.318 4.477a35.966 35.966 0 0 0-.712 2.507c-.128.517-1.068.517-1.196 0a37.837 37.837 0 0 0-.475-1.75 29.63 29.63 0 0 0-.237-.757c-.578-1.758-1.35-3.509-2.318-4.477-.97-.97-2.724-1.74-4.487-2.319a36.267 36.267 0 0 0-2.512-.712c-.517-.127-.517-1.068 0-1.195l.313-.079a36.091 36.091 0 0 0 2.199-.633c1.763-.579 3.518-1.35 4.487-2.319Zm1.768 1.768c.772-.772 1.38-1.772 1.86-2.77.48.998 1.088 1.998 1.86 2.77s1.77 1.38 2.767 1.86c-.996.48-1.995 1.089-2.767 1.86-.772.773-1.38 1.773-1.86 2.77-.48-.997-1.088-1.997-1.86-2.77-.773-.772-1.774-1.38-2.772-1.86.998-.48 1.999-1.087 2.771-1.86Z" clip-rule="evenodd"/></svg>
