<svg fill="none" height="32" viewBox="0 0 32 32" width="32" xmlns="http://www.w3.org/2000/svg"><g clip-rule="evenodd" fill="currentColor" fill-rule="evenodd"><path d="m6.32525 3.86818c1.20889-.64652 2.39893-.86818 5.00735-.86818h9.3348c2.6084 0 3.7985.22166 5.0073.86818 1.0561.56478 1.8923 1.40103 2.4571 2.45707.6465 1.20889.8682 2.39893.8682 5.00735v9.3348c0 2.6084-.2217 3.7985-.8682 5.0073-.5648 1.0561-1.401 1.8923-2.4571 2.4571-1.2088.6465-2.3989.8682-5.0073.8682h-9.3348c-2.60842 0-3.79846-.2217-5.00735-.8682-1.05604-.5648-1.89229-1.401-2.45707-2.4571-.64652-1.2088-.86818-2.3989-.86818-5.0073v-9.3348c0-2.60842.22166-3.79846.86818-5.00735.56478-1.05604 1.40103-1.89229 2.45707-2.45707zm5.00735 1.63182c-2.4784 0-3.16813.21962-3.82835.57271-.62037.33178-1.09976.81117-1.43154 1.43154-.35309.66022-.57271 1.34995-.57271 3.82835v9.3348c0 2.4784.21962 3.1681.57271 3.8284.33178.6203.81117 1.0997 1.43154 1.4315.66022.3531 1.34995.5727 3.82835.5727h9.3348c2.4784 0 3.1681-.2196 3.8284-.5727.6203-.3318 1.0997-.8112 1.4315-1.4315.3531-.6603.5727-1.35.5727-3.8284v-9.3348c0-2.4784-.2196-3.16813-.5727-3.82835-.3318-.62037-.8112-1.09976-1.4315-1.43154-.6603-.35309-1.35-.57271-3.8284-.57271z"/><path d="m16 22c3.3137 0 6-2.6863 6-6s-2.6863-6-6-6-6 2.6863-6 6 2.6863 6 6 6zm0-2.5c1.933 0 3.5-1.567 3.5-3.5s-1.567-3.5-3.5-3.5-3.5 1.567-3.5 3.5 1.567 3.5 3.5 3.5z"/></g></svg>
