<svg xmlns="http://www.w3.org/2000/svg" width="32" height="32" fill="currentColor" viewBox="0 0 32 32"><path fill-rule="evenodd" d="M12.404 4h11.192c.52 0 .984 0 1.37.031.41.034.84.11 1.26.323a3.25 3.25 0 0 1 1.42 1.42c.213.42.289.85.323 1.26.031.386.031.85.031 1.37v11.192c0 .52 0 .984-.031 1.37-.034.41-.11.84-.323 1.26a3.25 3.25 0 0 1-1.42 1.42c-.42.213-.85.289-1.26.323-.386.031-.85.031-1.37.031H12.404c-.52 0-.984 0-1.37-.031-.41-.034-.84-.11-1.26-.323a3.25 3.25 0 0 1-1.42-1.42c-.214-.42-.289-.85-.323-1.26A17.997 17.997 0 0 1 8 19.595V8.404c0-.52 0-.984.031-1.37.034-.41.11-.84.323-1.26a3.25 3.25 0 0 1 1.42-1.42c.42-.214.85-.289 1.26-.323C11.42 4 11.885 4 12.405 4ZM10.91 6.582a.75.75 0 0 0-.327.328c-.005.009-.038.074-.059.328-.022.271-.023.631-.023 1.212v11.1c0 .58.001.941.023 1.212.02.254.054.32.059.328a.75.75 0 0 0 .327.328c.01.005.075.038.33.059.27.022.63.023 1.211.023h11.1c.58 0 .941-.001 1.212-.023.254-.02.32-.054.328-.059a.752.752 0 0 0 .328-.328c.005-.009.038-.074.059-.328.022-.271.023-.631.023-1.212V8.45c0-.58-.001-.941-.023-1.212-.02-.254-.054-.32-.059-.328a.75.75 0 0 0-.328-.328c-.009-.005-.074-.038-.328-.059-.271-.022-.631-.023-1.212-.023h-11.1c-.58 0-.941.001-1.212.023-.254.02-.32.054-.329.059Z M18.001 9a2.5 2.5 0 1 1 0 4.999 2.5 2.5 0 0 1 0-4.999ZM13 18.37v-.621c0-2.187 3.332-2.812 5-2.812 1.67 0 5 .626 5 2.813v.622a.628.628 0 0 1-.628.628l-8.744-.001a.628.628 0 0 1-.628-.628Z M3 20.667V13a2.5 2.5 0 0 1 2.5-2.5v10.167c0 2.479.22 3.169.573 3.829.331.62.81 1.1 1.431 1.431.66.353 1.35.573 3.829.573H22.5A2.5 2.5 0 0 1 20 29h-8.667c-2.609 0-3.799-.222-5.008-.868a5.923 5.923 0 0 1-2.457-2.457c-.646-1.21-.868-2.4-.868-5.008Z" clip-rule="evenodd"/></svg>
