<svg xmlns="http://www.w3.org/2000/svg" width="32" height="32" fill="currentColor" viewBox="0 0 32 32"><path fill-rule="evenodd" d="M6.325 3.868C7.535 3.222 8.725 3 11.333 3h9.334c2.609 0 3.799.222 5.008.868a5.923 5.923 0 0 1 2.457 2.457c.646 1.21.868 2.4.868 5.008v9.334c0 2.609-.222 3.799-.868 5.008a5.923 5.923 0 0 1-2.457 2.457c-1.21.646-2.4.868-5.008.868h-9.334c-2.609 0-3.799-.222-5.008-.868a5.923 5.923 0 0 1-2.457-2.457c-.646-1.21-.868-2.4-.868-5.008v-9.334c0-2.609.222-3.799.868-5.008a5.923 5.923 0 0 1 2.457-2.457ZM11.333 5.5c-2.479 0-3.169.22-3.829.573-.62.331-1.1.81-1.431 1.431-.353.66-.573 1.35-.573 3.829v9.334c0 2.479.22 3.168.573 3.829.331.62.81 1.1 1.431 1.431.66.353 1.35.573 3.829.573h9.334c2.479 0 3.168-.22 3.829-.573.62-.331 1.1-.81 1.431-1.431.353-.66.573-1.35.573-3.829v-9.334c0-2.479-.22-3.169-.573-3.829a3.424 3.424 0 0 0-1.431-1.431c-.66-.353-1.35-.573-3.829-.573h-9.334Z M13.964 12.534c-.348-.123-.613.101-.655.312A15.873 15.873 0 0 0 13 15.97c0 1.091.11 2.156.321 3.185.043.211.309.434.656.31a16.349 16.349 0 0 0 5.381-3.173.378.378 0 0 0 .142-.29.378.378 0 0 0-.142-.29 16.349 16.349 0 0 0-5.394-3.178Zm.833-2.357c-1.73-.612-3.587.42-3.94 2.178a18.37 18.37 0 0 0-.357 3.615c0 1.26.128 2.494.372 3.686.359 1.752 2.214 2.778 3.94 2.166a18.849 18.849 0 0 0 6.204-3.66 2.864 2.864 0 0 0 0-4.32 18.85 18.85 0 0 0-6.219-3.665Z" clip-rule="evenodd"/></svg>
