<svg fill="none" height="28" viewBox="0 0 28 28" width="28" xmlns="http://www.w3.org/2000/svg" xmlns:xlink="http://www.w3.org/1999/xlink"><linearGradient id="a" gradientUnits="userSpaceOnUse" x1="-14" x2="14" y1="14" y2="42"><stop offset="0" stop-color="#70b2ff"/><stop offset="1" stop-color="#5c9ce6"/></linearGradient><path d="m0 14c0-7.73199 6.26801-14 14-14 7.732 0 14 6.26801 14 14 0 7.732-6.268 14-14 14-7.73199 0-14-6.268-14-14z" fill="url(#a)"/><path clip-rule="evenodd" d="m13.0643 16.5396.4991-.2653c.273-.1451.6002-.1451.8731 0l.4992.2653c.0284.0152.0576.0288.0874.0409.4761.1928 1.0183-.0369 1.2111-.5129l.22-.5432c.115-.2841.3626-.4932.6619-.5591l.5676-.1251c.0269-.0059.0536-.0131.0799-.0214.4898-.1546.7615-.677.6068-1.1668l-.1833-.5808c-.0912-.2888-.036-.604.1479-.8447l.3688-.4825c.0158-.0206.0307-.0419.0447-.0638.2766-.4327.1501-1.0078-.2827-1.2845l-.5024-.3212c-.2564-.1639-.4164-.44287-.4284-.74694l-.0236-.60015c-.0012-.03002-.0039-.05996-.0079-.08972-.0698-.50886-.5389-.86482-1.0478-.79504l-.5636.07728c-.3055.0419-.6119-.07038-.8181-.29974l-.3823-.42547c-.0221-.02458-.0455-.04798-.0701-.07007-.382-.34332-.97-.31195-1.3134.07007l-.3823.42547c-.2061.22936-.5126.34164-.8181.29974l-.5636-.07728c-.0298-.00408-.0597-.00672-.0897-.0079-.5133-.02022-.9457.37944-.9659.89266l-.0237.60015c-.012.30407-.1719.58304-.4283.74694l-.50249.3212c-.02188.014-.04317.0289-.0638.0447-.40809.3119-.48608.8955-.17419 1.3036l.36878.4825c.18393.2407.23913.5559.14794.8447l-.18335.5808c-.0083.0263-.01543.053-.02137.0799-.11051.5016.20653.9978.70808 1.1083l.5676.1251c.2993.0659.5469.275.6619.5591l.22.5432c.0121.0298.0257.059.0408.0874.2411.4536.8042.6257 1.2578.3846zm-2.2249 1.0273c.3153.3153.7042.5364 1.1224.6492.0668.018.1611.0368.2829.0564.0669.0108.1226.057.1455.1207l.6531 1.8155c.0146.0407.0146.0852 0 .1259l-.6018 1.6732c-.0567.1575-.2289.2387-.3846.1814-.0556-.0205-.104-.0572-.1391-.1055l-.7876-1.0846c-.062-.0853-.0901-.1118-.1261-.1357s-.0748-.0382-.1175-.0433c-.0428-.0051-.0812-.0031-.1828.022l-1.29233.3185c-.16098.0397-.32327-.0602-.36248-.2231-.01402-.0582-.01069-.1194.00957-.1757l1.15104-3.2001.0795-.2211c.0348-.0966.1413-.1467.238-.112.035.0126.0654.0354.0873.0654.0861.1181.1611.209.225.2729zm6.8763-.2126 1.2257 3.4075c.0567.1576-.0236.3318-.1793.3891-.0557.0205-.1161.0239-.1736.0097l-1.2923-.3185c-.1016-.0251-.1401-.0271-.1828-.022-.0428.0052-.0815.0194-.1175.0433s-.0642.0504-.1261.1357l-.7877 1.0846c-.0981.1351-.2858.1642-.4193.0649-.0478-.0355-.0841-.0845-.1043-.1408l-1.309-3.6393c-.0347-.0966.0155-.2031.1121-.2378.0455-.0164.0956-.0144.1396.0055.0193.0088.0318.0142.0373.0162 1.0276.3739 2.1516.0291 2.8109-.7965.0122-.0154.0254-.0327.0394-.0519.0604-.0833.1769-.1015.26-.041.0301.022.0529.0524.0656.0875z" fill="#fff" fill-rule="evenodd"/></svg>
