<?xml version="1.0" encoding="UTF-8"?>
<svg width="28px" height="28px" viewBox="0 0 28 28" version="1.1" xmlns="http://www.w3.org/2000/svg" xmlns:xlink="http://www.w3.org/1999/xlink">
    <!-- Generator: Sketch 63.1 (92452) - https://sketch.com -->
    <title>airplay_audio_outline_28</title>
    <desc>Created with Sketch.</desc>
    <g id="Page-1" stroke="none" stroke-width="1" fill="none" fill-rule="evenodd">
        <g id="airplay_audio_outline_28">
            <rect x="0" y="0" width="28" height="28"></rect>
            <path d="M12.5,15.375 C13.3888889,14.7083333 14.6111111,14.7083333 15.5,15.375 L15.5,15.375 L21,19.5 C22.1045695,20.3284271 22.3284271,21.8954305 21.5,23 C21.027864,23.6295146 20.2868933,24 19.5,24 L19.5,24 L8.5,24 C7.11928813,24 6,22.8807119 6,21.5 C6,20.7131067 6.37048539,19.972136 7,19.5 L7,19.5 Z M14.3,16.975 C14.1222222,16.8416667 13.8777778,16.8416667 13.7,16.975 L13.7,16.975 L8.2,21.1 C8.07409708,21.1944272 8,21.3426213 8,21.5 C8,21.7761424 8.22385763,22 8.5,22 L8.5,22 L19.5,22 C19.6573787,22 19.8055728,21.9259029 19.9,21.8 C20.0656854,21.5790861 20.0209139,21.2656854 19.8,21.1 L19.8,21.1 Z M13.8,3 C19.2123905,3 23.6,7.38760945 23.6,12.8 C23.6,14.1874726 23.3108929,15.5361297 22.7587108,16.7780098 C22.5343268,17.2826584 21.9433291,17.5098579 21.4386804,17.2854739 C20.9340317,17.0610899 20.7068323,16.4700922 20.9312163,15.9654435 C21.3702049,14.9781402 21.6,13.9061681 21.6,12.8 C21.6,8.49217895 18.107821,5 13.8,5 C9.49217895,5 6,8.49217895 6,12.8 C6,13.9826404 6.26272076,15.1259242 6.7621376,16.1675353 C7.00091212,16.6655364 6.79076739,17.2628112 6.29276621,17.5015857 C5.79476503,17.7403602 5.19749031,17.5302155 4.9587158,17.0322143 C4.33057934,15.7221385 4,14.2835541 4,12.8 C4,7.38760945 8.38760945,3 13.8,3 Z M13.8,7 C17.0032515,7 19.6,9.59674845 19.6,12.8 C19.6,13.1201963 19.5739569,13.4374028 19.5225421,13.7492767 L19.4472881,14.1268962 C19.3213464,14.6646296 18.7833315,14.9984526 18.2455982,14.8725109 C17.7078649,14.7465692 17.3740418,14.2085543 17.4999835,13.670821 L17.510049,13.6266502 C17.5696311,13.3577343 17.6,13.0811846 17.6,12.8 C17.6,10.701318 15.898682,9 13.8,9 C11.701318,9 10,10.701318 10,12.8 C10,13.0443075 10.0229268,13.2850935 10.0679968,13.5203515 L10.1356913,13.8109173 C10.1380134,13.8193009 10.1408324,13.8293477 10.1450609,13.844418 C10.2964695,14.3755431 9.98864855,14.928846 9.45752345,15.0802546 C8.92639836,15.2316633 8.37309544,14.9238423 8.22168678,14.3927172 L8.18394899,14.2537772 C8.06219364,13.782306 8,13.294808 8,12.8 C8,9.59674845 10.5967485,7 13.8,7 Z" id="↳-Icon-Color" fill="currentColor" fill-rule="nonzero"></path>
        </g>
    </g>
</svg>
