<?xml version="1.0" encoding="UTF-8"?>
<svg width="28px" height="28px" viewBox="0 0 28 28" version="1.1" xmlns="http://www.w3.org/2000/svg" xmlns:xlink="http://www.w3.org/1999/xlink">
    <!-- Generator: Sketch 63.1 (92452) - https://sketch.com -->
    <title>airplay_video_outline_28</title>
    <desc>Created with Sketch.</desc>
    <g id="Page-1" stroke="none" stroke-width="1" fill="none" fill-rule="evenodd">
        <g id="airplay_video_outline_28">
            <rect x="0" y="0" width="28" height="28"></rect>
            <path d="M12.5,15.375 C13.3888889,14.7083333 14.6111111,14.7083333 15.5,15.375 L15.5,15.375 L21,19.5 C22.1045695,20.3284271 22.3284271,21.8954305 21.5,23 C21.027864,23.6295146 20.2868933,24 19.5,24 L19.5,24 L8.5,24 C7.11928813,24 6,22.8807119 6,21.5 C6,20.7131067 6.37048539,19.972136 7,19.5 L7,19.5 Z M14.3,16.975 C14.1222222,16.8416667 13.8777778,16.8416667 13.7,16.975 L13.7,16.975 L8.2,21.1 C8.07409708,21.1944272 8,21.3426213 8,21.5 C8,21.7761424 8.22385763,22 8.5,22 L8.5,22 L19.5,22 C19.6573787,22 19.8055728,21.9259029 19.9,21.8 C20.0656854,21.5790861 20.0209139,21.2656854 19.8,21.1 L19.8,21.1 Z M20,4 C22.6887547,4 24.8818181,6.12230671 24.9953805,8.78311038 L25,9 L25,15 C25,16.2349804 24.5493044,17.4026311 23.7479651,18.3095668 C23.382279,18.7234412 22.7503202,18.7625055 22.3364457,18.3968194 C21.9225713,18.0311332 21.883507,17.3991744 22.2491931,16.9853 C22.682445,16.4949564 22.9439971,15.8805454 22.991975,15.2213002 L23,15 L23,9 C23,7.40231912 21.75108,6.09633912 20.1762728,6.00509269 L20,6 L8,6 C6.40231912,6 5.09633912,7.24891996 5.00509269,8.82372721 L5,9 L5,15 C5,15.7419592 5.26903641,16.439501 5.74981718,16.9841793 C6.11529862,17.3982346 6.07592176,18.0301739 5.6618665,18.3956554 C5.24781123,18.7611368 4.61587188,18.72176 4.25039043,18.3077047 C3.50722854,17.4657739 3.06608168,16.3994867 3.00685234,15.263354 L3,15 L3,9 C3,6.3112453 5.12230671,4.11818189 7.78311038,4.00461951 L8,4 L20,4 Z" id="↳-Icon-Color" fill="currentColor" fill-rule="nonzero"></path>
        </g>
    </g>
</svg>
