<svg xmlns="http://www.w3.org/2000/svg" width="28" height="28" viewBox="0 0 28 28" fill="currentColor"><path fill-rule="evenodd" d="M3 8c0-1.396 0-2.095.196-2.656a3.5 3.5 0 0 1 2.148-2.148C5.905 3 6.604 3 8 3s2.095 0 2.656.196a3.5 3.5 0 0 1 2.148 2.148C13 5.905 13 6.604 13 8s0 2.095-.196 2.656a3.5 3.5 0 0 1-2.148 2.148C10.095 13 9.396 13 8 13s-2.095 0-2.656-.196a3.5 3.5 0 0 1-2.148-2.148C3 10.095 3 9.396 3 8m2-.6c0-.84 0-1.26.163-1.581a1.5 1.5 0 0 1 .656-.656C6.139 5 6.559 5 7.4 5h1.2c.84 0 1.26 0 1.581.163a1.5 1.5 0 0 1 .656.656c.163.32.163.74.163 1.581v1.2c0 .84 0 1.26-.164 1.581a1.5 1.5 0 0 1-.655.656C9.861 11 9.441 11 8.6 11H7.4c-.84 0-1.26 0-1.581-.164a1.5 1.5 0 0 1-.656-.655C5 9.861 5 9.441 5 8.6zM3 20c0-1.396 0-2.095.196-2.656a3.5 3.5 0 0 1 2.148-2.148C5.905 15 6.604 15 8 15s2.095 0 2.656.196a3.5 3.5 0 0 1 2.148 2.148C13 17.905 13 18.604 13 20s0 2.095-.196 2.656a3.5 3.5 0 0 1-2.148 2.148C10.095 25 9.396 25 8 25s-2.095 0-2.656-.196a3.5 3.5 0 0 1-2.148-2.148C3 22.095 3 21.396 3 20m2-.6c0-.84 0-1.26.163-1.581a1.5 1.5 0 0 1 .656-.655C6.139 17 6.559 17 7.4 17h1.2c.84 0 1.26 0 1.581.163a1.5 1.5 0 0 1 .656.656c.163.32.163.74.163 1.581v1.2c0 .84 0 1.26-.164 1.581a1.5 1.5 0 0 1-.655.656C9.861 23 9.441 23 8.6 23H7.4c-.84 0-1.26 0-1.581-.163a1.5 1.5 0 0 1-.656-.656C5 21.861 5 21.441 5 20.6zM15.196 5.344C15 5.905 15 6.604 15 8s0 2.095.196 2.656a3.5 3.5 0 0 0 2.148 2.148C17.905 13 18.604 13 20 13s2.095 0 2.656-.196a3.5 3.5 0 0 0 2.148-2.148C25 10.095 25 9.396 25 8s0-2.095-.196-2.656a3.5 3.5 0 0 0-2.148-2.148C22.095 3 21.396 3 20 3s-2.095 0-2.656.196a3.5 3.5 0 0 0-2.148 2.148m1.967.475C17 6.139 17 6.559 17 7.4v1.2c0 .84 0 1.26.163 1.581a1.5 1.5 0 0 0 .656.656c.32.163.74.163 1.581.163h1.2c.84 0 1.26 0 1.581-.164a1.5 1.5 0 0 0 .656-.655C23 9.861 23 9.441 23 8.6V7.4c0-.84 0-1.26-.163-1.581a1.5 1.5 0 0 0-.656-.656C21.861 5 21.44 5 20.6 5h-1.2c-.84 0-1.26 0-1.581.163a1.5 1.5 0 0 0-.655.656M15 20c0-1.396 0-2.095.196-2.656a3.5 3.5 0 0 1 2.148-2.148C17.905 15 18.604 15 20 15s2.095 0 2.656.196a3.5 3.5 0 0 1 2.148 2.148C25 17.905 25 18.604 25 20s0 2.095-.196 2.656a3.5 3.5 0 0 1-2.148 2.148C22.095 25 21.396 25 20 25s-2.095 0-2.656-.196a3.5 3.5 0 0 1-2.148-2.148C15 22.095 15 21.396 15 20m2-.6c0-.84 0-1.26.163-1.581a1.5 1.5 0 0 1 .656-.655c.32-.164.74-.164 1.581-.164h1.2c.84 0 1.26 0 1.581.163a1.5 1.5 0 0 1 .656.656c.163.32.163.74.163 1.581v1.2c0 .84 0 1.26-.163 1.581a1.5 1.5 0 0 1-.656.656C21.861 23 21.44 23 20.6 23h-1.2c-.84 0-1.26 0-1.581-.163a1.5 1.5 0 0 1-.655-.656C17 21.861 17 21.441 17 20.6z" clip-rule="evenodd"/></svg>