<svg fill="none" height="28" viewBox="0 0 28 28" width="28" xmlns="http://www.w3.org/2000/svg"><path clip-rule="evenodd" d="m18.6 3.00002h2.8l.0463-.00001c.2382-.00009.5227-.0002.7734.02028.2904.02373.7064.08462 1.1423.30671.5645.28762 1.0234.74657 1.311 1.31105.2221.43589.283.85188.3067 1.14231.0205.25063.0204.53512.0203.77334v.00005.04627 2.8.04628.00005c.0001.23822.0002.52271-.0203.77335-.0237.2904-.0846.7064-.3067 1.1423-.2876.5645-.7465 1.0234-1.311 1.311-.4359.2221-.8519.283-1.1423.3068-.2507.0204-.5352.0203-.7734.0202h-.0463-2.8-.0463c-.2382.0001-.5227.0002-.7734-.0202-.2904-.0238-.7064-.0847-1.1423-.3068-.5645-.2876-1.0234-.7465-1.311-1.311-.2221-.4359-.283-.8519-.3067-1.1423-.0205-.25065-.0204-.53516-.0203-.7734v-.04628-2.8-.04627c-.0001-.23824-.0002-.52275.0203-.77339.0237-.29043.0846-.70642.3067-1.14231.2876-.56448.7465-1.02343 1.311-1.31105.4359-.22209.8519-.28298 1.1423-.30671.2507-.02048.5352-.02037.7734-.02028zm-1.491 2.54601c-.109.21392-.109.49394-.109 1.05399v2.8c0 .56006 0 .84008.109 1.05398.0959.1882.2488.3412.437.437.2139.109.4939.109 1.054.109h2.8c.56 0 .8401 0 1.054-.109.1881-.0958.3411-.2488.437-.437.109-.2139.109-.49391.109-1.05395v-.00003-2.8-.00002c0-.56004 0-.84006-.109-1.05397-.0959-.18816-.2489-.34114-.437-.43701-.2139-.109-.494-.109-1.054-.109h-2.8c-.5601 0-.8401 0-1.054.109-.1882.09587-.3411.24885-.437.43701zm-7.70901 9.45397h-2.8-.04627c-.23824-.0001-.52275-.0002-.77339.0203-.29043.0237-.70642.0846-1.14231.3067-.56448.2876-1.02343.7466-1.31105 1.3111-.22209.4358-.28298.8518-.30671 1.1423-.02048.2506-.02037.5351-.02028.7733l.00001.0463v2.8l-.00001.0463c-.00009.2382-.0002.5227.02028.7734.02373.2904.08462.7064.30671 1.1423.28762.5645.74657 1.0234 1.31105 1.311.43589.2221.85188.283 1.14231.3068.25062.0204.53512.0203.77334.0202h.00005.04627 2.8.04628.00005c.23822.0001.52271.0002.77338-.0202.2904-.0238.7064-.0847 1.1423-.3068.5645-.2876 1.0234-.7465 1.311-1.311.2221-.4359.283-.8519.3067-1.1423.0205-.2507.0204-.5352.0203-.7734v-.0463-2.8-.0463c.0001-.2382.0002-.5227-.0203-.7733-.0237-.2905-.0846-.7065-.3067-1.1423-.2876-.5645-.7465-1.0235-1.311-1.3111-.4359-.2221-.8519-.283-1.1423-.3067-.25068-.0205-.5352-.0204-.77343-.0203zm-4.4 3.6c0-.56 0-.8401.109-1.054.09587-.1881.24885-.3411.43701-.437.21392-.109.49394-.109 1.05399-.109h2.8c.56006 0 .84011 0 1.05401.109.1881.0959.3411.2489.437.437.109.2139.109.494.109 1.054v2.8c0 .5601 0 .8401-.109 1.054-.0959.1882-.2489.3412-.437.437-.2139.109-.49394.109-1.05398.109h-.00003-2.8-.00003c-.56003 0-.84005 0-1.05396-.109-.18816-.0958-.34114-.2488-.43701-.437-.109-.2139-.109-.4939-.109-1.054zm16.40001-3.6h-2.8-.0463c-.2382-.0001-.5227-.0002-.7734.0203-.2904.0237-.7064.0846-1.1423.3067-.5645.2876-1.0234.7466-1.311 1.3111-.2221.4358-.283.8518-.3067 1.1423-.0205.2506-.0204.5351-.0203.7733v.0463 2.8.0463c-.0001.2382-.0002.5227.0203.7734.0237.2904.0846.7064.3067 1.1423.2876.5645.7465 1.0234 1.311 1.311.4359.2221.8519.283 1.1423.3068.2507.0204.5351.0203.7734.0202h.0463 2.8.0463c.2382.0001.5227.0002.7734-.0202.2904-.0238.7064-.0847 1.1423-.3068.5645-.2876 1.0234-.7465 1.311-1.311.2221-.4359.283-.8519.3067-1.1423.0205-.2506.0204-.5351.0203-.7734v-.0463-2.8-.0463c.0001-.2382.0002-.5227-.0203-.7733-.0237-.2905-.0846-.7065-.3067-1.1423-.2876-.5645-.7465-1.0235-1.311-1.3111-.4359-.2221-.8519-.283-1.1423-.3067-.2507-.0205-.5352-.0204-.7734-.0203zm-4.4 3.6c0-.56 0-.8401.109-1.054.0959-.1881.2488-.3411.437-.437.2139-.109.4939-.109 1.054-.109h2.8c.56 0 .8401 0 1.054.109.1881.0959.3411.2489.437.437.109.2139.109.494.109 1.054v2.8.0001c0 .56 0 .84-.109 1.0539-.0959.1882-.2489.3412-.437.437-.2139.109-.4939.109-1.054.109h-2.8c-.5601 0-.8401 0-1.054-.109-.1882-.0958-.3411-.2488-.437-.437-.109-.2139-.109-.4939-.109-1.054zm-7.60001-15.59998h-2.8l-.04627-.00001c-.23824-.00009-.52275-.0002-.77339.02028-.29043.02373-.70642.08462-1.14231.30671-.56448.28762-1.02343.74657-1.31105 1.31105-.22209.43589-.28298.85188-.30671 1.14231-.02048.25064-.02037.53515-.02028.77339l.00001.04627v2.8l-.00001.04628c-.00009.23824-.0002.52275.02028.7734.02373.2904.08462.7064.30671 1.1423.28762.5645.74657 1.0234 1.31105 1.311.43589.2221.85188.283 1.14231.3068.25064.0204.53515.0203.77339.0202h.04627 2.8.04628c.23823.0001.52275.0002.77343-.0202.2904-.0238.7064-.0847 1.1423-.3068.5645-.2876 1.0234-.7465 1.311-1.311.2221-.4359.283-.8519.3067-1.1423.0205-.25065.0204-.53516.0203-.7734v-.04628-2.8-.04627c.0001-.23824.0002-.52275-.0203-.77339-.0237-.29043-.0846-.70642-.3067-1.14231-.2876-.56448-.7465-1.02343-1.311-1.31105-.4359-.22209-.8519-.28298-1.1423-.30671-.25068-.02048-.5352-.02037-.77343-.02028zm-4.4 3.6c0-.56005 0-.84007.109-1.05399.09587-.18816.24885-.34114.43701-.43701.21392-.109.49394-.109 1.05399-.109h2.8c.56006 0 .84011 0 1.05401.109.1881.09587.3411.24885.437.43701.109.21392.109.49394.109 1.05399v2.8c0 .56006 0 .84008-.109 1.05398-.0959.1882-.2489.3412-.437.437-.2139.109-.49395.109-1.05401.109h-2.8c-.56005 0-.84007 0-1.05399-.109-.18816-.0958-.34114-.2488-.43701-.437-.109-.2139-.109-.49392-.109-1.05398z" fill="currentColor" fill-rule="evenodd"/></svg>
