<svg width="28" height="28" viewBox="0 0 28 28" fill="none" xmlns="http://www.w3.org/2000/svg"><path fill-rule="evenodd" clip-rule="evenodd" d="M13.2 1h-.038c-.528 0-.982 0-1.357.03-.395.033-.789.104-1.167.297a3 3 0 0 0-1.311 1.311c-.193.378-.264.772-.296 1.167C9 4.178 9 4.629 9 5.153c-.492.08-.9.204-1.27.392A5 5 0 0 0 5.545 7.73C5 8.8 5 10.2 5 13v2c0 2.8 0 4.2.545 5.27a5 5 0 0 0 2.185 2.185c.37.188.778.311 1.27.392 0 .524 0 .976.03 1.348.033.395.104.789.297 1.167a3 3 0 0 0 1.311 1.311c.378.193.772.264 1.167.296.375.031.83.031 1.356.031h1.677c.528 0 .982 0 1.357-.03.395-.033.789-.104 1.167-.297a3 3 0 0 0 1.311-1.311c.193-.378.264-.772.296-1.167.03-.372.031-.824.031-1.348.492-.08.9-.204 1.27-.392a5 5 0 0 0 2.185-2.185C23 19.2 23 17.8 23 15v-2.01c.196-.012.335-.039.454-.099a1 1 0 0 0 .437-.437C24 12.24 24 11.96 24 11.4v-.8c0-.56 0-.84-.109-1.054a1 1 0 0 0-.437-.437c-.147-.075-.326-.098-.606-.106-.081-.493-.204-.903-.393-1.273a5 5 0 0 0-2.185-2.185c-.37-.188-.778-.311-1.27-.392 0-.524 0-.975-.03-1.348-.033-.395-.104-.789-.297-1.167a3 3 0 0 0-1.311-1.311c-.378-.193-.772-.264-1.167-.296C15.82 1 15.365 1 14.839 1H13.2zM21 13c0-1.433-.002-2.388-.061-3.121-.058-.71-.161-1.035-.266-1.241a3 3 0 0 0-1.311-1.311c-.206-.105-.53-.207-1.24-.266C17.387 7.001 16.432 7 15 7h-2c-1.433 0-2.388.002-3.121.061-.71.059-1.035.161-1.241.266a3 3 0 0 0-1.311 1.311c-.105.206-.208.53-.266 1.24C7.001 10.613 7 11.568 7 13v2c0 1.433.002 2.388.061 3.121.058.71.161 1.035.266 1.241a3 3 0 0 0 1.311 1.311c.206.105.53.208 1.24.266.734.06 1.689.061 3.122.061h2c1.433 0 2.388-.002 3.121-.061.71-.058 1.035-.161 1.241-.266a3 3 0 0 0 1.311-1.311c.105-.206.208-.53.266-1.24.06-.734.061-1.689.061-3.122v-2zm-9.976 11.032c-.02-.25-.023-.572-.024-1.043.577.011 1.236.011 2 .011h2c.764 0 1.423 0 2-.011 0 .471-.003.792-.024 1.043-.022.272-.06.372-.085.422a1 1 0 0 1-.437.437c-.05.025-.15.063-.422.085C15.75 25 15.377 25 14.8 25h-1.6c-.577 0-.949 0-1.232-.024-.272-.022-.373-.06-.422-.085a1 1 0 0 1-.437-.437c-.025-.05-.063-.15-.085-.422zM17 5.012c0-.472-.003-.793-.024-1.044-.022-.272-.06-.373-.085-.422a1 1 0 0 0-.437-.437c-.05-.025-.15-.063-.422-.085C15.75 3 15.377 3 14.8 3h-1.6c-.577 0-.949 0-1.232.024-.272.022-.373.06-.422.085a1 1 0 0 0-.437.437c-.025.05-.063.15-.085.422-.02.251-.023.572-.024 1.043C11.577 5 12.236 5 13 5h2c.764 0 1.423 0 2 .011zM14 9a1 1 0 0 1 1 1v3.807l3.351 1.257a1 1 0 0 1-.702 1.872l-4-1.5A1 1 0 0 1 13 14.5V10a1 1 0 0 1 1-1z" fill="currentColor"/></svg>
