<svg fill="none" height="28" viewBox="0 0 28 28" width="28" xmlns="http://www.w3.org/2000/svg"><path clip-rule="evenodd" d="m12.8004 3.99997.1996.00004h2l.1996-.00004c1.669-.00044 2.7484-.00073 3.6545.2937 1.8266.59351 3.2587 2.02561 3.8522 3.85224.1727.53131.244 1.12219.2734 1.85659.219.0047.4194.0181.6056.0551 1.19.2368 2.1203 1.1671 2.3571 2.3571.0582.2929.0579.6207.0576 1.0014v.0839 2.5.2.0413c0 .805 0 1.4693-.0442 2.0105-.0459.5621-.1445 1.0788-.3918 1.5642-.3835.7526-.9954 1.3645-1.748 1.748-.2621.1336-.5334.2237-.816.2857v.3503.0232c.0001.1191.0001.2613-.0101.3866-.0119.1453-.0423.3533-.1534.5712-.1438.2822-.3733.5117-.6555.6555-.218.1111-.4259.1415-.5712.1534-.1252.0102-.2675.0102-.3865.0101h-.0002-.0231-.4-.0231-.0001c-.1191.0001-.2613.0001-.3866-.0101-.1452-.0119-.3532-.0423-.5712-.1534-.2822-.1438-.5117-.3733-.6555-.6555-.111-.2179-.1415-.4259-.1534-.5712-.0102-.1253-.0101-.2675-.0101-.3866v-.0232-.2h-9.99999v.2.0232c.00005.1191.0001.2613-.01014.3866-.01186.1453-.0423.3533-.15335.5712-.14381.2822-.37328.5117-.65553.6555-.21794.1111-.42593.1415-.57115.1534-.12528.0102-.26749.0102-.38659.0101h-.0001-.02314-.4-.02315-.0001c-.1191.0001-.2613.0001-.38658-.0101-.14522-.0119-.35321-.0423-.57116-.1534-.28224-.1438-.51171-.3733-.65552-.6555-.11105-.2179-.14149-.4259-.15336-.5712-.01024-.1253-.01018-.2675-.01014-.3866l.00001-.0232v-.3503c-.28261-.0619-.55387-.1521-.81598-.2857-.75264-.3835-1.36457-.9954-1.74806-1.748l.87893-.4479-.87893.4479c-.24729-.4854-.34586-1.0021-.39178-1.5642-.04422-.5412-.04421-1.2055-.04419-2.0105v-.0413-.2-2.5l-.00005-.0839c-.0003-.3807-.00056-.7085.05769-1.0014.23672-1.19 1.16701-2.1203 2.35708-2.3571.18621-.037.38655-.0504.60563-.0551.02937-.7344.10068-1.32528.27331-1.85659.59351-1.82663 2.02561-3.25873 3.85224-3.85224.9061-.29443 1.9855-.29414 3.6545-.2937zm-5.78405 6.17733c.97963.3525 1.71872 1.1953 1.926 2.2374.05825.2929.05799.6207.05769 1.0014l-.00004.0839v1.5h10v-1.5-.0839c-.0004-.3807-.0006-.7085.0576-1.0014.2073-1.0421.9464-1.885 1.9261-2.2374-.0213-.67879-.0699-1.07603-.1795-1.41336-.3956-1.21775-1.3504-2.17249-2.5681-2.56816-.5646-.18344-1.297-.19577-3.2361-.19577h-2c-1.9391 0-2.6715.01233-3.23606.19577-1.21776.39567-2.17249 1.35041-2.56816 2.56816-.10961.33733-.15813.73458-.17943 1.41336zm15.98365 2.3972v-.5706.1957zm-18-.5706v.5709l-.00003-.3752zm0 0c-.10958.0029-.15749.0078-.19509.0153-.3967.0789-.70679.389-.7857.7857-.01437.0723-.01921.1825-.01921.6951v2.5.2c0 .8566.00077 1.4389.03755 1.889.03582.4384.10074.6626.18043.819.19175.3763.49771.6823.87403.874.1564.0797.38061.1446.81902.1804.45009.0368 1.03239.0376 1.88896.0376h12.40001c.8566 0 1.4389-.0008 1.889-.0376.4384-.0358.6626-.1007.819-.1804.3763-.1917.6823-.4977.874-.874.0797-.1564.1446-.3806.1804-.819.0368-.4501.0376-1.0324.0376-1.889v-.2-2.5c0-.5126-.0048-.6228-.0192-.6951-.0789-.3967-.389-.7068-.7857-.7857-.0376-.0075-.0855-.0124-.1951-.0153-.1009-.0028-.2542-.0039-.5-.0039-.5126 0-.6228.0048-.6951.0192-.3967.0789-.7068.389-.7857.7857-.0144.0723-.0192.1825-.0192.6951v2.5c0 .5523-.4477 1-1 1h-12c-.55229 0-1-.4477-1-1v-2.5c0-.5126-.00485-.6228-.01922-.6951-.07891-.3967-.389-.7068-.78569-.7857-.07225-.0144-.18251-.0192-.69509-.0192-.24578 0-.39905.0011-.5.0039z" fill="currentColor" fill-rule="evenodd"/></svg>
