<svg width="28" height="28" viewBox="0 0 28 28" fill="none" xmlns="http://www.w3.org/2000/svg">
<path fill-rule="evenodd" clip-rule="evenodd" d="M5.06946 4.8014C6.16477 4.21562 7.24388 4 9.69166 4H18.3083C20.7561 4 21.8352 4.21562 22.9305 4.8014C23.9057 5.32294 24.6771 6.09426 25.1986 7.06946C25.7844 8.16477 26 9.24388 26 11.6917V16.3083C26 18.7561 25.7844 19.8352 25.1986 20.9305C24.6771 21.9057 23.9057 22.6771 22.9305 23.1986C21.8352 23.7844 20.7561 24 18.3083 24H9.69166C7.24388 24 6.16477 23.7844 5.06946 23.1986C4.09426 22.6771 3.32294 21.9057 2.8014 20.9305C2.21562 19.8352 2 18.7561 2 16.3083V11.6917C2 9.24388 2.21562 8.16477 2.8014 7.06946C3.32294 6.09426 4.09426 5.32294 5.06946 4.8014ZM9.69166 6C7.35671 6 6.67339 6.21166 6.01266 6.56502C5.386 6.90017 4.90017 7.386 4.56502 8.01266C4.21166 8.67339 4 9.35671 4 11.6917V16.3083C4 18.6433 4.21166 19.3266 4.56502 19.9873C4.90017 20.614 5.386 21.0998 6.01266 21.435C6.67339 21.7883 7.35671 22 9.69166 22H18.3083C20.6433 22 21.3266 21.7883 21.9873 21.435C22.614 21.0998 23.0998 20.614 23.435 19.9873C23.7883 19.3266 24 18.6433 24 16.3083V11.6917C24 9.35671 23.7883 8.67339 23.435 8.01266C23.0998 7.386 22.614 6.90017 21.9873 6.56502C21.3266 6.21166 20.6433 6 18.3083 6H9.69166Z" fill="currentColor"/>
<path d="M13 18C13 18.5523 13.4477 19 14 19C14.5523 19 15 18.5523 15 18V12.4142L16.2929 13.7071C16.6834 14.0976 17.3166 14.0976 17.7071 13.7071C18.0976 13.3166 18.0976 12.6834 17.7071 12.2929L14.7071 9.29289C14.3166 8.90237 13.6834 8.90237 13.2929 9.29289L10.2929 12.2929C9.90237 12.6834 9.90237 13.3166 10.2929 13.7071C10.6834 14.0976 11.3166 14.0976 11.7071 13.7071L13 12.4142V18Z" fill="currentColor"/>
</svg>
