<svg xmlns="http://www.w3.org/2000/svg" width="28" height="28" fill="currentColor" viewBox="0 0 28 28"><path fill-rule="evenodd" d="M2.293 3.293a1 1 0 0 1 1.414 0l8.5 8.5 12.5 12.5a1 1 0 0 1-1.414 1.414l-1.934-1.933c-.752.16-1.69.226-3.05.226H9.691c-2.448 0-3.527-.216-4.623-.801A5.465 5.465 0 0 1 2.8 20.93c-.584-1.095-.8-2.174-.8-4.622v-4.616c0-2.448.216-3.527.801-4.623a5.58 5.58 0 0 1 .763-1.091l-1.271-1.27a1 1 0 0 1 0-1.415Zm8 10.414a1 1 0 0 1-.176-1.176L4.98 7.396a3.572 3.572 0 0 0-.416.617C4.212 8.673 4 9.357 4 11.692v4.616c0 2.335.212 3.019.565 3.68a3.466 3.466 0 0 0 1.448 1.447c.66.353 1.344.565 3.679.565h8.616c.483 0 .895-.009 1.251-.026L15 17.414V18a1 1 0 1 1-2 0v-2.586l-1.53-1.53a1 1 0 0 1-1.177-.177Zm13.179 6.55a.23.23 0 0 1-.037-.27c.353-.66.565-1.344.565-3.679v-4.616c0-2.335-.212-3.019-.565-3.68a3.466 3.466 0 0 0-1.448-1.447C21.327 6.212 20.643 6 18.308 6H9.43a.504.504 0 0 1-.36-.146l-1.38-1.38a.24.24 0 0 1 .147-.413A23.364 23.364 0 0 1 9.692 4h8.616c2.448 0 3.527.216 4.622.801A5.465 5.465 0 0 1 25.2 7.07c.585 1.096.801 2.175.801 4.623v4.616c0 2.448-.216 3.527-.801 4.622-.075.14-.155.276-.24.407a.24.24 0 0 1-.373.035l-1.114-1.114Zm-5.765-6.55a1 1 0 0 1-.26.188c-.15.074-.323.015-.44-.103l-3.8-3.798c-.117-.118-.176-.292-.102-.441a1 1 0 0 1 1.602-.26l3 3a1 1 0 0 1 0 1.414Z" clip-rule="evenodd"/></svg>
