<svg xmlns="http://www.w3.org/2000/svg" width="28" height="28" fill="currentColor" viewBox="0 0 28 28"><path d="M19.207 10.21a1.001 1.001 0 1 0-1.416-1.417l-3.788 3.788v-2.247a1.001 1.001 0 1 0-2.003 0v4.674c.002.252.1.504.291.697l.002.002.002.002a.997.997 0 0 0 .697.291h4.674a1.001 1.001 0 1 0 0-2.003H15.42l3.788-3.787Z M21 21a3 3 0 0 0 3-3V7a3 3 0 0 0-3-3H10a3 3 0 0 0-3 3v11a3 3 0 0 0 3 3h11Zm0-2H10a1 1 0 0 1-1-1V7a1 1 0 0 1 1-1h11a1 1 0 0 1 1 1v11a1 1 0 0 1-1 1Z M17 25a3.001 3.001 0 0 0 2.83-2h-9.702c-1.783 0-2.43-.186-3.082-.534a3.635 3.635 0 0 1-1.512-1.512C5.186 20.302 5 19.655 5 17.872V9.171A3.001 3.001 0 0 0 3 12v7a6 6 0 0 0 6 6h8Z"/></svg>
