<svg fill="none" height="28" viewBox="0 0 28 28" width="28" xmlns="http://www.w3.org/2000/svg"><path d="m11.7071 3.29289c-.3905-.39052-1.0237-.39052-1.4142 0l-5.00001 5c-.39052.39053-.39052 1.02369 0 1.41422l5.00001 4.99999c.3905.3905 1.0237.3905 1.4142 0s.3905-1.0237 0-1.4142l-3.2931-3.2939 6.086.001c3.0376 0 5.5 2.4624 5.5 5.5s-2.4624 5.5-5.5 5.5h-4.5c-.55228 0-1 .4477-1 1s.44772 1 1 1h4.5c4.1421 0 7.5-3.3579 7.5-7.5s-3.3579-7.5-7.5-7.5l-6.084-.001 3.2911-3.29189c.3605-.36049.3882-.92772.0832-1.32001z" fill="currentColor"/></svg>
