<?xml version="1.0" encoding="UTF-8"?>
<svg width="28px" height="28px" viewBox="0 0 28 28" version="1.1" xmlns="http://www.w3.org/2000/svg" xmlns:xlink="http://www.w3.org/1999/xlink">
    <!-- Generator: Sketch 63.1 (92452) - https://sketch.com -->
    <title>arrow_up_outline_28</title>
    <desc>Created with Sketch.</desc>
    <g id="Page-1" stroke="none" stroke-width="1" fill="none" fill-rule="evenodd">
        <g id="arrow_up_outline_28">
            <rect x="0" y="0" width="28" height="28"></rect>
            <path d="M14,5 L14.0193545,5.00018615 C14.042681,5.00063489 14.0659949,5.00189498 14.0892501,5.00396641 L14,5 C14.0527149,5 14.1044772,5.00387495 14.1549883,5.01134138 C14.1665468,5.01381066 14.1785978,5.01591068 14.1906145,5.01823243 C14.4454015,5.06402517 14.6655073,5.20243487 14.8116215,5.39490495 L22.7071068,13.2928932 C23.0976311,13.6834175 23.0976311,14.3165825 22.7071068,14.7071068 C22.3466228,15.0675907 21.7793918,15.0953203 21.3871006,14.7902954 L21.2928932,14.7071068 L15,8.414 L15,23.05 C15,23.5746705 14.5522847,24 14,24 C13.4871642,24 13.0644928,23.6332618 13.0067277,23.1607901 L13,23.05 L13,8.414 L6.70710678,14.7071068 C6.34662282,15.0675907 5.77939176,15.0953203 5.38710056,14.7902954 L5.29289322,14.7071068 C4.93240926,14.3466228 4.90467972,13.7793918 5.20970461,13.3871006 L5.29289322,13.2928932 L13.1883785,5.39490495 C13.3344927,5.20243487 13.5545985,5.06402517 13.8091019,5.01729019 C13.8214022,5.01591068 13.8334532,5.01381066 13.845532,5.0119324 C13.8664461,5.008173 13.8881058,5.00565135 13.909968,5.00379808 C13.9343349,5.0018656 13.9579802,5.00059932 13.9816379,5.00016755 C13.9872016,5.00005723 13.9935938,5 14,5 Z" id="↳-Icon-Color" fill="currentColor" fill-rule="nonzero"></path>
        </g>
    </g>
</svg>
