<svg fill="none" height="28" viewBox="0 0 28 28" width="28" xmlns="http://www.w3.org/2000/svg"><path d="m14 8.99998.7071-.7071c-.3905-.39053-1.0237-.39053-1.4142 0zm-1 10.00002c0 .5523.4477 1 1 1s1-.4477 1-1zm-3.70711-6.7071c-.39052.3905-.39052 1.0237 0 1.4142.39053.3905 1.02371.3905 1.41421 0zm8.00001 1.4142c.3905.3905 1.0237.3905 1.4142 0s.3905-1.0237 0-1.4142zm-4.2929-4.70712v10.00002h2v-10.00002zm-2.2929 4.70712 4-4.00001-1.4142-1.41421-4.00001 4.00002zm2.5858-4.00001 4 4.00001 1.4142-1.4142-4-4.00002zm10.7071 4.29291c0 5.5228-4.4772 10-10 10v2c6.6274 0 12-5.3726 12-12zm-10 10c-5.52285 0-10-4.4772-10-10h-2c0 6.6274 5.37258 12 12 12zm-10-10c0-5.52285 4.47715-10 10-10v-2c-6.62742 0-12 5.37258-12 12zm10-10c5.5228 0 10 4.47715 10 10h2c0-6.62742-5.3726-12-12-12z" fill="currentColor"/></svg>
