<svg xmlns="http://www.w3.org/2000/svg" width="28" height="28" fill="currentColor" viewBox="0 0 28 28"><path d="M15 3a1 1 0 1 0-2 0v13.586l-2.293-2.293a1 1 0 0 0-1.414 1.414l4 4 .006.007a1 1 0 0 0 .698.286h.006a.996.996 0 0 0 .697-.286l.008-.008 4-3.999a1 1 0 0 0-1.415-1.414L15 16.586V3Z M8.98 6h-.02c-1.525.062-2.332.299-3.145.733a5.02 5.02 0 0 0-2.082 2.082C3.194 9.823 3 10.814 3 13.023v5.954c0 2.21.194 3.2.733 4.208a5.02 5.02 0 0 0 2.082 2.082c1.008.539 1.999.733 4.208.733h7.954c2.21 0 3.2-.194 4.208-.733a5.019 5.019 0 0 0 2.082-2.082c.539-1.008.733-1.999.733-4.207v-5.956c0-2.208-.194-3.2-.733-4.207a5.02 5.02 0 0 0-2.082-2.082c-.813-.434-1.62-.67-3.145-.732L19.02 6H18a1 1 0 1 0 0 2h.98c1.28.053 1.776.237 2.261.497.547.292.97.715 1.262 1.262.307.572.497 1.168.497 3.264v5.954c0 2.096-.19 2.692-.497 3.264a3.02 3.02 0 0 1-1.262 1.262c-.572.307-1.168.497-3.264.497h-7.954c-2.096 0-2.692-.19-3.264-.497a3.02 3.02 0 0 1-1.262-1.262C5.19 21.67 5 21.073 5 18.977v-5.954c0-2.096.19-2.691.497-3.264a3.02 3.02 0 0 1 1.262-1.262c.485-.26.98-.444 2.262-.497H10a1 1 0 1 0 0-2H8.98Z"/></svg>
