<svg xmlns="http://www.w3.org/2000/svg" width="28" height="28" fill="currentColor" viewBox="0 0 28 28"><path d="M27.498 21.131a1 1 0 0 1 0 1.738l-6.481 3.995c-.674.386-1.517-.097-1.517-.869v-7.99c0-.772.843-1.255 1.517-.87l6.48 3.996Z"/><path fill-rule="evenodd" d="M14 5.999C11.61 4.546 9.153 3.96 5.877 4.007l-.154.002c-.777.01-1.473.018-2.111.351a3.11 3.11 0 0 0-1.29 1.309c-.186.367-.259.74-.292 1.12C2 7.14 2 7.563 2 8.042v10.46c0 .572 0 1.057.03 1.45.03.406.098.816.292 1.2a2.866 2.866 0 0 0 1.291 1.31c.393.204.831.274 1.259.308.426.035.962.042 1.61.05l.035.001c2.858.038 4.884.649 6.924 2.008a1.072 1.072 0 0 0 .17.092 1 1 0 0 0 .948-.092c.765-.51 1.518-.907 2.302-1.21a1 1 0 1 0-.722-1.866c-.387.15-.766.319-1.139.506V7.732c2.033-1.247 4.117-1.768 7.095-1.726 1.021.015 1.204.042 1.368.127.165.086.346.27.43.436.029.057.063.153.084.392.022.256.023.59.023 1.12v7.989a1 1 0 1 0 2 0V8.042c0-.48 0-.9-.03-1.253-.033-.38-.106-.753-.291-1.12a3.11 3.11 0 0 0-1.29-1.309c-.639-.333-1.335-.342-2.112-.351l-.154-.002C18.848 3.96 16.39 4.546 14 5.999Zm-1 1.733c-2.033-1.247-4.117-1.768-7.095-1.726-1.021.015-1.204.042-1.368.127a1.12 1.12 0 0 0-.43.436c-.029.057-.063.153-.084.392-.022.256-.023.59-.023 1.12v10.383c0 .62 0 1.029.024 1.338.023.304.063.409.083.45a.878.878 0 0 0 .43.436c.03.015.142.06.498.09.349.028.817.034 1.509.044 2.513.033 4.54.475 6.456 1.437V7.732Z M6 10.964a1 1 0 0 1 1.036-.963c1.167.041 2.25.212 3.276.549a1 1 0 1 1-.624 1.9c-.816-.268-1.708-.414-2.724-.45a1 1 0 0 1-.963-1.036Zm0 5a1 1 0 0 1 1.036-.963c1.167.041 2.25.212 3.276.549a1 1 0 1 1-.624 1.9c-.816-.268-1.708-.414-2.724-.45a1 1 0 0 1-.963-1.036Z" clip-rule="evenodd"/></svg>
