<svg xmlns="http://www.w3.org/2000/svg" width="28" height="28" fill="currentColor" viewBox="0 0 28 28"><path fill-rule="evenodd" d="M14 1a3 3 0 0 0-2.996 2.837 3.05 3.05 0 0 1-.113.141c-.043.052-.097.116-.172.21C10.44 4.538 10 5.142 10 6v.178c-.122.04-.243.088-.362.149a3 3 0 0 0-1.311 1.311c-.193.378-.264.772-.296 1.167C8 9.18 8 9.635 8 10.162v.602a3 3 0 0 0-.662.853c-.2.383-.273.783-.306 1.185C7 13.182 7 13.645 7 14.18v7.639c0 .535 0 .998.032 1.378.033.402.107.802.306 1.185a3 3 0 0 0 1.28 1.28c.382.198.782.272 1.184.305.38.032.843.032 1.379.032h5.639c.535 0 .998 0 1.378-.032.402-.033.802-.107 1.185-.306a2.999 2.999 0 0 0 1.28-1.28c.198-.382.272-.782.305-1.184.032-.38.032-.843.032-1.379V14.18c0-.535 0-.998-.032-1.378-.033-.402-.107-.802-.306-1.185a3 3 0 0 0-.662-.853v-.602c0-.528 0-.982-.03-1.357-.033-.395-.104-.789-.297-1.167a3 3 0 0 0-1.311-1.311c-.12-.06-.24-.11-.362-.149V6c0-.858-.44-1.463-.72-1.812-.074-.094-.128-.158-.17-.21a3.056 3.056 0 0 1-.114-.14A3 3 0 0 0 14 1Zm1.8 7h-3.6c-.577 0-.949 0-1.232.024-.272.022-.373.06-.422.085a1 1 0 0 0-.437.437c-.025.05-.063.15-.085.422-.02.249-.023.567-.024 1.032h8c0-.465-.004-.783-.024-1.032-.022-.272-.06-.373-.085-.422a1 1 0 0 0-.437-.437c-.05-.025-.15-.063-.422-.085C16.75 8 16.377 8 15.8 8Zm.115-2H16c0-.142-.06-.287-.28-.563a8.832 8.832 0 0 0-.08-.097h-.001c-.09-.11-.215-.261-.3-.38C15.22 4.79 15 4.449 15 4a1 1 0 1 0-2 0c0 .449-.22.79-.34.96-.084.119-.209.27-.299.38a8.21 8.21 0 0 0-.08.097C12.06 5.713 12 5.858 12 6h3.916Zm-4.864-2.232-.006.011a.066.066 0 0 1 .006-.01Zm5.898 0 .006.011a.062.062 0 0 1-.006-.01Zm-6.982 8.257C10.255 12 10.634 12 11.22 12h5.56c.586 0 .965 0 1.253.025.276.023.378.061.428.088a1 1 0 0 1 .426.426c.026.05.065.152.088.428.024.288.025.667.025 1.253v7.56c0 .586 0 .965-.025 1.253-.023.276-.062.378-.088.428a1 1 0 0 1-.426.426c-.05.026-.152.065-.428.088-.288.024-.667.025-1.253.025h-5.56c-.586 0-.965 0-1.253-.025-.276-.023-.378-.062-.428-.088a1 1 0 0 1-.426-.426c-.026-.05-.065-.152-.088-.428C9 22.745 9 22.366 9 21.78V21h4a1 1 0 1 0 0-2H9v-2h2a1 1 0 1 0 0-2H9v-.78c0-.586 0-.965.025-1.253.023-.276.062-.378.088-.428a1 1 0 0 1 .426-.426c.05-.027.152-.065.428-.088Z" clip-rule="evenodd"/></svg>
