<?xml version="1.0" encoding="UTF-8"?>
<svg width="28px" height="28px" viewBox="0 0 28 28" version="1.1" xmlns="http://www.w3.org/2000/svg" xmlns:xlink="http://www.w3.org/1999/xlink">
    <!-- Generator: Sketch 63.1 (92452) - https://sketch.com -->
    <title>backspace_outline_28</title>
    <desc>Created with Sketch.</desc>
    <g id="Page-1" stroke="none" stroke-width="1" fill="none" fill-rule="evenodd">
        <g id="backspace_outline_28" fill-rule="nonzero">
            <rect x="0" y="0" width="28" height="28"></rect>
            <path d="M18.6656409,4 C20.9114413,4 21.9527593,4.27847683 22.9305371,4.80139811 C23.9083149,5.32431939 24.6756806,6.09168511 25.1986019,7.06946289 C25.7215232,8.04724067 26,9.08855868 26,11.3343591 L26,16.6656409 C26,18.9114413 25.7215232,19.9527593 25.1986019,20.9305371 C24.6756806,21.9083149 23.9083149,22.6756806 22.9305371,23.1986019 C21.9527593,23.7215232 20.9114413,24 18.6656409,24 L11.7561115,24 C10.6319047,24 10.2367057,23.9503927 9.8020116,23.8348964 C9.36731751,23.7194 8.98490032,23.5380146 8.62043294,23.2744584 L8.4775176,23.1670575 C8.17152761,22.9270655 7.87267468,22.6201649 7.25623741,21.8656517 L3.559283,17.3406157 C2.55826633,16.1153811 2.29950011,15.5841736 2.12925918,14.9509113 C1.95901825,14.317649 1.95901825,13.682351 2.12925918,13.0490887 C2.29950011,12.4158264 2.55826633,11.8846189 3.559283,10.6593843 L7.51937897,5.81650835 C8.0457837,5.19071135 8.30456122,4.95395704 8.62043294,4.72554164 C8.98490032,4.4619854 9.36731751,4.28059999 9.8020116,4.16510364 C10.2077261,4.05730705 10.5790359,4.00690715 11.5407626,4.00066625 L18.6656409,4 Z M18.6656409,6 L11.386037,6.00185887 L11.0578428,6.00882031 C10.770239,6.01858582 10.5947632,6.03712205 10.444625,6.06765548 L10.3155845,6.09803998 C10.1176183,6.15063874 9.9583615,6.2261763 9.79237764,6.34620373 L9.68720514,6.42690947 C9.51144795,6.57053864 9.32089756,6.77389261 8.9288835,7.24887251 L5.1080943,11.9247632 C4.45416815,12.7251624 4.22755071,13.0730341 4.10892767,13.4112761 L4.06068409,13.5683168 C3.98187662,13.8614649 3.98187662,14.1385351 4.06068409,14.4316832 L4.10892767,14.5887239 C4.22755071,14.9269659 4.45416815,15.2748376 5.1080943,16.0752368 L8.9288835,20.7511275 L9.26065673,21.1434136 C9.44628747,21.3550406 9.57003368,21.4773377 9.68720514,21.5730905 L9.79237764,21.6537963 C9.9583615,21.7738237 10.1176183,21.8493613 10.3155845,21.90196 L10.4580396,21.9350271 C10.6558321,21.9739105 10.9010604,21.9925654 11.386037,21.9981411 L18.6656409,22 C20.4429449,22 21.2305424,21.839715 21.9873394,21.4349755 C22.6165802,21.0984538 23.0984538,20.6165802 23.4349755,19.9873394 C23.8159068,19.2750598 23.9802971,18.5354969 23.998319,16.9692042 L23.998319,11.0307958 C23.9802971,9.46450311 23.8159068,8.72494015 23.4349755,8.01266061 C23.0984538,7.38341978 22.6165802,6.90154619 21.9873394,6.56502451 C21.2305424,6.16028503 20.4429449,6 18.6656409,6 Z M11.7928932,10.2928932 C12.1834175,9.90236893 12.8165825,9.90236893 13.2071068,10.2928932 L13.2071068,10.2928932 L15.4995785,12.585 L17.7928932,10.2928932 C18.1834175,9.90236893 18.8165825,9.90236893 19.2071068,10.2928932 C19.5976311,10.6834175 19.5976311,11.3165825 19.2071068,11.7071068 L16.9145785,14 L19.2071068,16.2928932 C19.5675907,16.6533772 19.5953203,17.2206082 19.2902954,17.6128994 L19.2071068,17.7071068 C18.8165825,18.0976311 18.1834175,18.0976311 17.7928932,17.7071068 L17.7928932,17.7071068 L15.4995785,15.414 L13.2071068,17.7071068 C12.8165825,18.0976311 12.1834175,18.0976311 11.7928932,17.7071068 C11.4023689,17.3165825 11.4023689,16.6834175 11.7928932,16.2928932 L14.0855785,14 L11.7928932,11.7071068 C11.4324093,11.3466228 11.4046797,10.7793918 11.7097046,10.3871006 Z" id="Combined-Shape" fill="currentColor"></path>
        </g>
    </g>
</svg>
