<svg xmlns="http://www.w3.org/2000/svg" width="28" height="28" fill="currentColor" viewBox="0 0 28 28"><path d="M11.124 16.575c0 .536.304.925 1.001.925h4.053c.536 0 .84-.329.84-.81 0-.49-.304-.808-.84-.808h-2.314v-.04l1.329-1.149c1.132-.98 1.637-1.492 1.637-2.473 0-1.325-1.132-2.22-2.906-2.22-1.273 0-2.3.541-2.683 1.411a1.176 1.176 0 0 0-.096.475c0 .516.333.835.88.835.408 0 .666-.152.95-.567.272-.394.535-.571.919-.571.52 0 .874.319.874.779 0 .435-.232.753-1.05 1.456l-2.007 1.72c-.405.339-.587.642-.587 1.037Z"/><path fill-rule="evenodd" d="M26 14c0 6.627-5.373 12-12 12S2 20.627 2 14 7.373 2 14 2s12 5.373 12 12Zm-8.615 9.413A9.981 9.981 0 0 1 14 24a9.981 9.981 0 0 1-3.384-.587C11.298 22.604 12.515 22 14 22c1.486 0 2.702.604 3.385 1.413Zm1.838-.884C18.16 20.965 16.166 20 14 20c-2.165 0-4.161.965-5.223 2.53a10.052 10.052 0 0 1-3.247-3.212C7.06 18.247 8 16.275 8 14.136c0-2.192-.989-4.21-2.588-5.262a10.05 10.05 0 0 1 3.365-3.403C9.84 7.035 11.834 8 14 8s4.161-.965 5.223-2.53a10.051 10.051 0 0 1 3.365 3.404C20.988 9.925 20 11.944 20 14.136c0 2.139.94 4.111 2.47 5.182a10.052 10.052 0 0 1-3.247 3.211ZM4.55 10.721A9.986 9.986 0 0 0 4 14a9.98 9.98 0 0 0 .625 3.488C5.415 16.8 6 15.598 6 14.137c0-1.509-.623-2.74-1.45-3.416ZM22 14.136c0-1.508.623-2.738 1.45-3.415.356 1.027.55 2.13.55 3.279a9.981 9.981 0 0 1-.625 3.488C22.585 16.8 22 15.598 22 14.137ZM14 6c-1.486 0-2.702-.604-3.384-1.413A9.982 9.982 0 0 1 14 4c1.188 0 2.327.207 3.384.587C16.702 5.396 15.485 6 14 6Z" clip-rule="evenodd"/></svg>
