<svg fill="none" height="28" viewBox="0 0 28 28" width="28" xmlns="http://www.w3.org/2000/svg"><path clip-rule="evenodd" d="m25.8339 11.9986c-.3641-2.16829-1.3096-4.1394-2.6708-5.74743-.4314-.50963-.9046-.9828-1.4142-1.41421-1.6081-1.36122-3.5792-2.30678-5.7475-2.67081-.6509-.10927-1.3195-.16615-2.0014-.16615-2.4406 0-4.71109.72862-6.60571 1.9802-.56211.37133-1.09114.78869-1.58172 1.24671-1.91801 1.79074-3.24825 4.20304-3.66973 6.91589-.09404.6053-.14284 1.2256-.14284 1.8572 0 .2072.00525.4131.01563.6177.13753 2.7124 1.17567 5.1871 2.82133 7.1312.43141.5096.90458.9828 1.41422 1.4142 2.04347 1.7298 4.67332 2.7883 7.54912 2.8353.0664.0011.133.0016.1997.0016.6316 0 1.2519-.0488 1.8572-.1428 2.7128-.4215 5.1251-1.7518 6.9159-3.6698.458-.4905.8754-1.0196 1.2467-1.5817 1.2516-1.8946 1.9802-4.1651 1.9802-6.6057 0-.6819-.0569-1.3505-.1661-2.0014zm-11.6678-7.99725c.3641 2.16836 1.3096 4.13948 2.6709 5.74751l-1.837 1.83704-6.15597-6.15596c1.50557-.90773 3.26977-1.42994 5.15597-1.42994.0555 0 .1109.00045.1661.00135zm4.0851 7.16175-1.837 1.837 6.1559 6.1559c.9077-1.5056 1.4299-3.2698 1.4299-5.156 0-.0555-.0005-.1109-.0014-.1661-2.1683-.3641-4.1394-1.3096-5.7474-2.6708zm5.4934.5815c-.3502-1.5193-1.0466-2.90624-2.0016-4.07332l-2.0717 2.07168c1.1671.95504 2.554 1.65144 4.0733 2.00164zm-2.3867 9.0276c-1.3978 1.5179-3.2592 2.6021-5.3595 3.0281-.047-2.8758-1.1055-5.5057-2.8353-7.5491l1.8369-1.8369zm-7.3579 3.2278c0-2.4013-.8464-4.6048-2.257-6.3287l-4.07172 4.0717c1.72387 1.4106 3.92742 2.257 6.32872 2.257zm-.4143-10.9999-1.8368 1.8369c-2.04352-1.7299-4.67337-2.7884-7.54919-2.8354.42598-2.10033 1.51024-3.96173 3.02808-5.35947zm-7.32863 7.3286c-1.4107-1.7238-2.25707-3.9274-2.25707-6.3287 2.40128 0 4.60488.8464 6.3287 2.2571zm9.99833-16.07332c1.5193.35023 2.9063 1.04663 4.0733 2.00169l-2.0716 2.07168c-.9551-1.16708-1.6515-2.55405-2.0017-4.07337z" fill="currentColor" fill-rule="evenodd"/></svg>
