<?xml version="1.0" encoding="UTF-8"?>
<svg width="28px" height="28px" viewBox="0 0 28 28" version="1.1" xmlns="http://www.w3.org/2000/svg" xmlns:xlink="http://www.w3.org/1999/xlink">
    <!-- Generator: Sketch 63.1 (92452) - https://sketch.com -->
    <title>bomb_outline_28</title>
    <desc>Created with Sketch.</desc>
    <g id="Page-1" stroke="none" stroke-width="1" fill="none" fill-rule="evenodd">
        <g id="bomb_outline_28">
            <polygon points="0 0 28 0 28 28 0 28"></polygon>
            <path d="M20.9791847,7.06497116 C21.3418144,7.42760086 21.3677165,7.99944625 21.0568911,8.39196391 L20.9791847,8.47918472 L19.7636356,9.69590044 C22.9607638,13.6235113 22.7299079,19.4122277 19.0710678,23.0710678 C15.1658249,26.9763107 8.83417511,26.9763107 4.92893219,23.0710678 C1.02368927,19.1658249 1.02368927,12.8341751 4.92893219,8.92893219 C8.6029913,5.25487308 14.4246821,5.03737496 18.3530135,8.27643784 L19.5649712,7.06497116 C19.9554954,6.67444687 20.5886604,6.67444687 20.9791847,7.06497116 Z M17.6568542,10.3431458 C14.5326599,7.21895142 9.46734008,7.21895142 6.34314575,10.3431458 C3.21895142,13.4673401 3.21895142,18.5326599 6.34314575,21.6568542 C9.46734008,24.7810486 14.5326599,24.7810486 17.6568542,21.6568542 C20.7810486,18.5326599 20.7810486,13.4673401 17.6568542,10.3431458 Z M19.9457546,1.61590509 L19.9841835,1.72621813 L20.4834095,3.47821313 C20.6347571,4.00935564 20.3268724,4.56262315 19.7957299,4.7139707 C19.3025262,4.85450771 18.7902452,4.5990741 18.5984013,4.13660413 L18.5599724,4.02629109 L18.0607464,2.27429609 C17.9093988,1.74315358 18.2172835,1.18988608 18.748426,1.03853853 C19.2416297,0.898001516 19.7539106,1.15343512 19.9457546,1.61590509 Z M26.9438995,9.09757824 C26.7707633,9.58247406 26.2495634,9.85643526 25.7424322,9.74913562 L25.6258164,9.71752869 L23.8103279,9.11469469 C23.2688251,8.93488838 22.9810014,8.36580348 23.1674558,7.84360798 C23.340592,7.35871216 23.8617919,7.08475096 24.3689231,7.1920506 L24.4855388,7.22365753 L26.3010274,7.82649153 C26.8425302,8.00629784 27.1303539,8.57538275 26.9438995,9.09757824 Z M25.3791847,2.53777733 C25.7418144,2.90040703 25.7677165,3.47225242 25.4568911,3.86477008 L25.3791847,3.95199089 L23.7791847,5.55199089 C23.3886604,5.94251518 22.7554954,5.94251518 22.3649712,5.55199089 C22.0023415,5.18936119 21.9764393,4.6175158 22.2872648,4.22499814 L22.3649712,4.13777733 L23.9649712,2.53777733 C24.3554954,2.14725304 24.9886604,2.14725304 25.3791847,2.53777733 Z" id="↳-Icon-Color" fill="currentColor" fill-rule="nonzero"></path>
        </g>
    </g>
</svg>
