<svg xmlns="http://www.w3.org/2000/svg" width="28" height="28" fill="currentColor" viewBox="0 0 28 28"><path fill-rule="evenodd" d="M14 5.999C11.61 4.546 9.153 3.96 5.877 4.007l-.154.002c-.777.01-1.473.018-2.111.351a3.11 3.11 0 0 0-1.29 1.309c-.186.367-.259.74-.292 1.12C2 7.14 2 7.563 2 8.042V18.5c0 .573 0 1.058.03 1.451.03.406.098.816.292 1.2a2.866 2.866 0 0 0 1.291 1.31c.393.204.831.274 1.259.308.426.035.962.042 1.61.05l.035.001c2.86.038 4.887.65 6.928 2.01a1 1 0 0 0 1.11 0c2.041-1.36 4.068-1.972 6.928-2.01h.035c.648-.009 1.184-.016 1.61-.05.428-.035.866-.105 1.259-.31.584-.304.994-.72 1.291-1.309.194-.384.262-.794.292-1.2.03-.393.03-.878.03-1.45V8.041c0-.48 0-.9-.03-1.253-.033-.38-.106-.753-.291-1.12a3.11 3.11 0 0 0-1.29-1.309c-.639-.333-1.335-.342-2.112-.351l-.154-.002c-3.275-.046-5.733.54-8.123 1.993Zm-1 1.733c-2.033-1.247-4.117-1.768-7.095-1.726-1.021.015-1.204.042-1.368.127a1.12 1.12 0 0 0-.43.436c-.029.057-.063.153-.084.392-.022.256-.023.59-.023 1.12v10.383c0 .62 0 1.029.024 1.338.023.304.063.409.083.45a.878.878 0 0 0 .43.436c.03.015.142.06.498.09.349.028.817.034 1.509.044 2.513.033 4.54.475 6.456 1.437V7.732Zm2 14.527c1.916-.962 3.943-1.404 6.456-1.438.692-.009 1.16-.015 1.51-.044.355-.029.467-.074.496-.09a.878.878 0 0 0 .43-.436c.021-.04.061-.145.084-.45.023-.308.024-.717.024-1.337V8.08c0-.529 0-.863-.023-1.119-.02-.239-.055-.335-.084-.392a1.12 1.12 0 0 0-.43-.436c-.164-.085-.347-.112-1.368-.127-2.978-.042-5.062.48-7.095 1.726v14.527Z" clip-rule="evenodd"/></svg>
