<svg xmlns="http://www.w3.org/2000/svg" width="28" height="28" fill="currentColor" viewBox="0 0 28 28"><path d="M12.956 3c-1.363 0-2.447 0-3.321.071-.896.074-1.66.227-2.359.583a6 6 0 0 0-2.622 2.622c-.356.7-.51 1.463-.583 2.359C4 9.509 4 10.593 4 11.956v8.652c0 1.006 0 1.831.058 2.47.058.632.184 1.282.59 1.795a3 3 0 0 0 2.326 1.138c.654.005 1.245-.294 1.78-.637.539-.346 1.19-.852 1.985-1.47l.111-.087a1.01 1.01 0 0 0 .053-.038l2.703-2.093a1 1 0 1 0-1.224-1.581l-.733.567a.958.958 0 0 0-.104.07l-.123.097-1.871 1.455c-.845.657-1.424 1.106-1.878 1.397-.468.3-.64.32-.682.32a1 1 0 0 1-.775-.38c-.026-.032-.116-.18-.166-.734C6 22.36 6 21.627 6 20.557V12c0-1.417 0-2.419.065-3.203.063-.771.182-1.243.371-1.613a4 4 0 0 1 1.748-1.748c.37-.189.842-.308 1.613-.371C10.581 5 11.583 5 13 5h2c1.417 0 2.419 0 3.203.065.771.063 1.243.182 1.613.371a4 4 0 0 1 1.748 1.748c.189.37.308.842.371 1.613C22 9.581 22 10.583 22 12v1.04a1 1 0 1 0 2 0v-1.084c0-1.363 0-2.447-.071-3.321-.074-.896-.227-1.66-.583-2.359a6 6 0 0 0-2.622-2.622c-.7-.356-1.463-.51-2.359-.583C17.491 3 16.407 3 15.044 3h-2.088Z M23.496 18.492a2.994 2.994 0 0 0-3-2.992l-.176.006a3.003 3.003 0 0 0-2.824 2.996V20h-.748a.76.76 0 0 0-.752.76v4.48c0 .42.337.76.752.76h7.496a.76.76 0 0 0 .752-.76v-4.48c0-.42-.336-.76-.752-.76h-.748v-1.508Zm-3.145-1.485.145-.007c.829 0 1.5.666 1.5 1.5V20h-3v-1.5c0-.78.59-1.42 1.355-1.493Z" clip-rule="evenodd"/></svg>
