<svg xmlns="http://www.w3.org/2000/svg" width="28" height="28" fill="currentColor" viewBox="0 0 28 28"><path fill-rule="evenodd" d="M12.956 3h2.088c1.363 0 2.447 0 3.321.071.896.074 1.66.227 2.359.583a6 6 0 0 1 2.622 2.622c.356.7.51 1.463.583 2.359.071.874.071 1.958.071 3.321v8.645c0 1.007 0 1.832-.058 2.47-.058.633-.184 1.283-.59 1.795a3 3 0 0 1-2.326 1.138c-.654.006-1.245-.293-1.78-.636-.539-.346-1.19-.853-1.985-1.47l-1.91-1.487c-.776-.603-.943-.71-1.09-.749a1 1 0 0 0-.522 0c-.147.04-.314.146-1.09.75l-1.91 1.485c-.795.618-1.446 1.125-1.986 1.471-.534.343-1.125.642-1.779.636a3 3 0 0 1-2.326-1.138c-.406-.512-.532-1.162-.59-1.794C4 22.433 4 21.608 4 20.602v-8.646c0-1.363 0-2.447.071-3.321.074-.896.227-1.66.583-2.359a6 6 0 0 1 2.622-2.622c.7-.356 1.463-.51 2.359-.583C10.509 3 11.593 3 12.956 3ZM9.797 5.065c-.771.063-1.243.182-1.613.371a4 4 0 0 0-1.748 1.748c-.189.37-.308.842-.371 1.613C6 9.581 6 10.583 6 12v8.55c0 1.07.001 1.803.05 2.34.05.554.14.702.166.735a1 1 0 0 0 .775.38c.042 0 .214-.02.682-.32.454-.292 1.033-.74 1.878-1.397l1.87-1.456.124-.096c.577-.45 1.083-.845 1.671-1.004a3 3 0 0 1 1.568 0c.588.159 1.094.554 1.671 1.004l.123.096 1.871 1.456c.845.656 1.424 1.105 1.878 1.396.468.3.64.32.681.32a1 1 0 0 0 .776-.379c.026-.033.116-.18.166-.735.049-.537.05-1.27.05-2.34V12c0-1.417 0-2.419-.065-3.203-.063-.771-.182-1.243-.371-1.613a4 4 0 0 0-1.748-1.748c-.37-.189-.841-.308-1.613-.371C17.419 5 16.417 5 15 5h-2c-1.417 0-2.419 0-3.203.065Z" clip-rule="evenodd"/></svg>
