<svg xmlns="http://www.w3.org/2000/svg" width="28" height="28" fill="currentColor" viewBox="0 0 28 28"><path fill-rule="evenodd" d="M21 3a6 6 0 1 0 0 12 6 6 0 0 0 0-12Zm2.78 4.22a.75.75 0 0 0-1.06 0l-2.47 2.47-.97-.97a.75.75 0 1 0-1.06 1.06l1.5 1.5a.75.75 0 0 0 1.06 0l3-3a.75.75 0 0 0 0-1.06Z M15.708 3h-2.752c-1.363 0-2.447 0-3.321.071-.896.074-1.66.227-2.359.583a6 6 0 0 0-2.622 2.622c-.356.7-.51 1.463-.583 2.359C4 9.509 4 10.593 4 11.956v8.645c0 1.007 0 1.832.058 2.47.058.633.184 1.283.59 1.795a3 3 0 0 0 2.326 1.138c.654.006 1.245-.293 1.78-.636.539-.346 1.19-.853 1.985-1.47l1.91-1.487c.776-.603.943-.71 1.09-.749a1 1 0 0 1 .522 0c.147.04.314.146 1.09.75l1.91 1.485c.795.618 1.446 1.125 1.986 1.471.534.343 1.125.642 1.779.636a3 3 0 0 0 2.326-1.138c.406-.512.532-1.162.59-1.794.058-.639.058-1.464.058-2.47v-4.183A8 8 0 0 1 15.708 3Z"/></svg>
