<svg fill="none" height="28" viewBox="0 0 28 28" width="28" xmlns="http://www.w3.org/2000/svg"><g fill="currentColor"><path d="m12.7071 11.7071c.3905-.3905.3905-1.0237 0-1.4142-.3905-.39053-1.0237-.39053-1.4142 0l-3.00001 3c-.18753.1875-.29289.4419-.29289.7071s.10536.5196.29289.7071l3.00001 3c.3905.3905 1.0237.3905 1.4142 0s.3905-1.0237 0-1.4142l-2.2929-2.2929z"/><path d="m15.2929 10.2929c-.3905.3905-.3905 1.0237 0 1.4142l2.2929 2.2929-2.2929 2.2929c-.3905.3905-.3905 1.0237 0 1.4142s1.0237.3905 1.4142 0l3-3c.0234-.0234.0456-.0479.0664-.0733.1458-.178.2265-.4017.2265-.6338 0-.2652-.1054-.5196-.2929-.7071l-3-3c-.3905-.39053-1.0237-.39053-1.4142 0z"/><path clip-rule="evenodd" d="m3 12.6c0-3.36031 0-5.04047.65396-6.32394.57524-1.12898 1.49312-2.04686 2.6221-2.6221 1.28347-.65396 2.96363-.65396 6.32394-.65396h2.8c3.3603 0 5.0405 0 6.3239.65396 1.129.57524 2.0469 1.49312 2.6221 2.6221.654 1.28347.654 2.96363.654 6.32394v2.8c0 3.3603 0 5.0405-.654 6.3239-.5752 1.129-1.4931 2.0469-2.6221 2.6221-1.2834.654-2.9636.654-6.3239.654h-2.8c-3.36031 0-5.04047 0-6.32394-.654-1.12898-.5752-2.04686-1.4931-2.6221-2.6221-.65396-1.2834-.65396-2.9636-.65396-6.3239zm5.82208-7.5249c.90017-.07354 2.06472-.0751 3.77792-.0751h2.8c1.7132 0 2.8777.00156 3.7779.0751.8769.07164 1.3253.20149 1.6381.36087.7526.3835 1.3645.99542 1.748 1.74807.1594.3128.2893.7612.3609 1.63804.0735.90017.0751 2.06472.0751 3.77792v2.8c0 1.7132-.0016 2.8777-.0751 3.7779-.0716.8769-.2015 1.3253-.3609 1.6381-.3835.7526-.9954 1.3645-1.748 1.748-.3128.1594-.7612.2893-1.6381.3609-.9002.0735-2.0647.0751-3.7779.0751h-2.8c-1.7132 0-2.87775-.0016-3.77792-.0751-.87684-.0716-1.32524-.2015-1.63804-.3609-.75265-.3835-1.36457-.9954-1.74807-1.748-.15938-.3128-.28923-.7612-.36087-1.6381-.07354-.9002-.0751-2.0647-.0751-3.7779v-2.8c0-1.7132.00156-2.87775.0751-3.77792.07164-.87684.20149-1.32524.36087-1.63804.3835-.75265.99542-1.36457 1.74807-1.74807.3128-.15938.7612-.28923 1.63804-.36087z" fill-rule="evenodd"/></g></svg>
