<svg fill="none" height="28" viewBox="0 0 28 28" width="28" xmlns="http://www.w3.org/2000/svg"><g clip-rule="evenodd" fill="currentColor" fill-rule="evenodd"><path d="m11.1807 6.01646c-.5432-.09979-1.0645.25967-1.1642.80286-.07107.38666-.5799 1.20633-1.99801 1.1801-.55219-.01021-1.00811.42915-1.01832.98134s.42915 1.00811.98134 1.01832c2.34859.04342 3.74549-1.42175 4.00199-2.8184.0998-.5432-.2596-1.06444-.8028-1.16422z"/><path d="m17.2655 7.02794c.5368-.12954 1.0771.20068 1.2066.73755.158.65494.3923 1.26593.7614 1.67856.3178.35534.7894.63025 1.6615.53816.5492-.05801 1.0415.34019 1.0995.88939.058.5493-.3402 1.0415-.8895 1.0995-1.4996.1585-2.608-.3504-3.3623-1.1938-.703-.78603-1.0329-1.78862-1.2148-2.5427-.1295-.53688.2007-1.07712.7376-1.20666z"/><path d="m10.569 21.4976c-.551.0381-1.0285-.3776-1.06662-.9286-.04726-.6832-.1713-1.2501-.47873-1.7384-.29908-.475-.83645-.9769-1.89641-1.4027-.51248-.2058-.76104-.7882-.55517-1.3007.20587-.5124.78821-.761 1.30069-.5551 1.36444.5481 2.27474 1.2897 2.84334 2.1929.5604.89.7241 1.8361.7815 2.666.0381.551-.3776 1.0285-.9286 1.0666z"/><path d="m10.0165 6.81932c.0997-.54319.621-.90265 1.1642-.80286.5432.09978.9026.62102.8028 1.16422-.2565 1.39665-1.6534 2.86182-4.00199 2.8184-.55219-.01021-.99155-.46613-.98134-1.01832s.46613-.99155 1.01832-.98134c1.41811.02623 1.92694-.79344 1.99801-1.1801zm-.51412 13.74968c.03812.551.51562.9667 1.06662.9286s.9667-.5156.9286-1.0666c-.0574-.8299-.2211-1.776-.7815-2.666-.5686-.9032-1.4789-1.6448-2.84334-2.1929-.51248-.2059-1.09482.0427-1.30069.5551-.20587.5125.04269 1.0949.55517 1.3007 1.05996.4258 1.59733.9277 1.89641 1.4027.30743.4883.43147 1.0552.47873 1.7384z"/><path d="m11.624 2c-2.02961 0-3.7655 1.20946-4.5791 2.93781-2.36972.7178-4.0449 3.01728-4.0449 5.66979 0 1.2055.34393 2.3326.93919 3.2725-.52989.683-.84181 1.5511-.84181 2.4861 0 1.4214.7258 2.7011 1.84899 3.3959-.04865.2325-.07415.4733-.07415.7195 0 1.8037 1.45987 3.4108 3.30726 3.3525.70862 1.2852 2.06162 2.1659 3.63172 2.1659.8072 0 1.56-.2344 2.1961-.637.6454.4032 1.408.637 2.2243.637 1.6128 0 3.0079-.9083 3.7194-2.2369 1.767-.023 3.1109-1.5214 3.1109-3.2619 0-.2627-.0302-.5189-.0873-.7649 1.2197-.6722 2.0254-2.0041 2.0254-3.4977 0-.9844-.3476-1.893-.9306-2.5913.3082-.536.5392-1.1248.6778-1.7494.0612-.2758.1045-.5585.1284-.8467.0145-.1751.0219-.3521.0219-.5309 0-2.6324-1.611-4.91074-3.9121-5.74851-.9397-1.65181-2.7091-2.77179-4.7443-2.77179-.8438 0-1.6447.19332-2.3595.53847-.6796-.3442-1.4467-.53847-2.2576-.53847zm0 2c-1.3249 0-2.47271.86791-2.8998 2.11051-.11648.33892-.40543.58959-.75741.65707-1.64291.31499-2.96679 1.87581-2.96679 3.84002 0 .7302.18456 1.4087.50231 1.988.08617-.0479.17324-.0933.26097-.1361 1.28958-.6303 2.8792-.8071 4.2085-.3494.52222.1799.79972.749.61992 1.2712-.1798.5221-.74892.7997-1.27111.6199-.7516-.2589-1.7896-.1796-2.67907.2551-.81528.3985-1.54414 1.1559-1.54414 2.1099 0 .9597.61951 1.7019 1.36205 1.8915.30513.078.55573.2951.67632.586.1206.2909.09709.6217-.06343.8926-.12479.2107-.2001.4652-.2001.7453 0 .8086.60027 1.354 1.20917 1.354.12939 0 .25259-.0224.36802-.0639.25854-.0928.54389-.0753.78906.0486.24518.1239.42859.3432.50718.6065.27605.9246 1.10825 1.5732 2.06555 1.5732.4378 0 .8462-.134 1.1888-.3678v-4.1897-.0067-8.8804-.0068-6.21468c-.4144-.21415-.8813-.33392-1.376-.33392zm4.6171 0c1.3827 0 2.5831.82037 3.1387 2.01844.1236.26663.3583.46537.6417.5434 1.6259.44776 2.876 2.02633 2.876 3.95846 0 .1194-.0048.2374-.0141.354-.016.1917-.0434.3807-.084.5688-.1748.7541-.602 1.5429-1.213 2.1889-.7587.8021-1.693 1.2743-2.5864 1.2743-.5523 0-1 .4477-1 1s.4477 1 1 1c1.455 0 2.7723-.6861 3.7672-1.6278.1473.2814.2328.608.2328.9601 0 1.0115-.697 1.7917-1.5271 1.9339-.338.0579-.6228.2849-.7545.6015-.1317.3167-.092.6787.1052.9593.1475.2097.2383.474.2383.7679 0 .7298-.5424 1.2615-1.117 1.2615-.5745 0-.833-.2116-1.2101-.5468-.4132-.3673-.5463-.7248-.5463-.8817 0-.5522-.4478-1-1-1-.5523 0-1 .4478-1 1 0 .9477.5748 1.8051 1.2174 2.3764.1736.1543.3656.3002.5724.4313-.4086.5244-1.0417.8581-1.7467.8581-.4553 0-.8784-.1379-1.2316-.3767v-19.39199c.3848-.14943.8029-.23131 1.2411-.23131z"/></g></svg>
