<svg fill="none" height="28" viewBox="0 0 28 28" width="28" xmlns="http://www.w3.org/2000/svg"><path clip-rule="evenodd" d="m14 3h-.032c-.4387-.00001-.8171-.00002-1.1304.02135-.3298.02251-.6597.07201-.9857.20701-.735.30449-1.3191.88851-1.6235 1.62359-.135.32593-.1845.65584-.2071.98567-.02132.31325-.02131.69172-.0213 1.13036v.00004.03198h-1.6c-2.24021 0-3.36031 0-4.21596.43598-.75265.38349-1.36457.99541-1.74807 1.74806-.43597.85566-.43597 1.97576-.43597 4.21596v4.2c0 2.2402 0 3.3603.43597 4.216.3835.7526.99542 1.3645 1.74807 1.748.85565.436 1.97575.436 4.21596.436h11.2c2.2402 0 3.3603 0 4.216-.436.7526-.3835 1.3645-.9954 1.748-1.748.436-.8557.436-1.9758.436-4.216v-4.2c0-2.2402 0-3.3603-.436-4.21596-.3835-.75265-.9954-1.36457-1.748-1.74806-.8557-.43598-1.9758-.43598-4.216-.43598h-1.6v-.03199c0-.43865 0-.81713-.0213-1.13039-.0226-.32983-.0721-.65974-.2071-.98567-.3044-.73508-.8885-1.3191-1.6235-1.62359-.326-.135-.6559-.1845-.9857-.20701-.3133-.02137-.6917-.02136-1.1304-.02135zm2 4c0-.47962-.0005-.78926-.0167-1.02624-.0156-.228-.0422-.31483-.0594-.35644-.1015-.24503-.2962-.4397-.5412-.5412-.0416-.01723-.1285-.04385-.3565-.05941-.2369-.01617-.5466-.01671-1.0262-.01671s-.7893.00054-1.0262.01671c-.228.01556-.3149.04218-.3565.05941-.245.1015-.4397.29617-.5412.5412-.0172.04161-.0438.12844-.0594.35644-.0162.23698-.0167.54662-.0167 1.02624zm-7 15v-13h10v13h.7432-.1432-11.2-.14319zm13.0643-.0479c-.2955.0242-.6393.0362-1.0643.0421v-12.9884c.425.00594.7688.01791 1.0643.04206.5434.04439.7448.11974.8437.17013.3763.19175.6823.49771.874.87401.0504.0989.1258.3003.1701.8437.0463.5666.0479 1.3112.0479 2.4643v4.2c0 1.1531-.0016 1.8977-.0479 2.4643-.0443.5434-.1197.7448-.1701.8437-.1917.3763-.4977.6823-.874.874-.0989.0504-.3003.1258-.8437.1701zm-15.0643-12.9463v12.9884c-.42495-.0059-.76883-.0179-1.06433-.0421-.54332-.0443-.74476-.1197-.84365-.1701-.37633-.1917-.68229-.4977-.87403-.874-.05039-.0989-.12574-.3003-.17014-.8437-.04629-.5666-.04785-1.3112-.04785-2.4643v-4.2c0-1.1531.00156-1.8977.04785-2.4643.0444-.5434.11975-.7448.17014-.8437.19174-.3763.4977-.68226.87403-.87401.09889-.05039.30033-.12574.84365-.17013.2955-.02415.63938-.03612 1.06433-.04206z" fill="currentColor" fill-rule="evenodd"/>
</svg>