<svg xmlns="http://www.w3.org/2000/svg" width="28" height="28" fill="currentColor" viewBox="0 0 28 28"><path d="M7.085 16c-.58 0-.911-.344-.911-.954v-4.4c0-.61.33-.954.91-.954.58 0 .912.344.912.954v3.902H9.71c.481 0 .804.262.804.726 0 .464-.314.726-.804.726H7.085Z M13.831 16.108c-1.92 0-3.124-1.225-3.124-3.206 0-1.98 1.208-3.21 3.124-3.21 1.916 0 3.124 1.23 3.124 3.21 0 1.981-1.208 3.206-3.124 3.206Zm0-1.453c.765 0 1.268-.683 1.268-1.753 0-1.074-.508-1.757-1.268-1.757s-1.268.683-1.268 1.757c0 1.07.503 1.753 1.268 1.753Z M18 15.046c0 .61.33.954.91.954h2.626c.49 0 .804-.262.804-.726 0-.464-.323-.726-.804-.726h-1.714v-3.902c0-.61-.331-.954-.911-.954-.58 0-.911.344-.911.954v4.4Z M9.692 4c-2.448 0-3.527.216-4.623.801A5.466 5.466 0 0 0 2.801 7.07C2.216 8.165 2 9.244 2 11.692v2.616c0 2.448.216 3.527.801 4.622A5.465 5.465 0 0 0 5.07 21.2c1.096.585 2.175.801 4.623.801h2.227c.115 0 .172 0 .214.002h.003l.003.002c.032.025.076.062.165.136l4.7 3.933.002.002c1.14.962 2.994.195 2.994-1.375v-2.767c1.154-.112 2.192-.34 2.93-.734a5.465 5.465 0 0 0 2.269-2.27c.585-1.095.801-2.174.801-4.622v-2.616c0-2.448-.216-3.527-.801-4.623a5.465 5.465 0 0 0-2.269-2.268C21.835 4.216 20.756 4 18.308 4H9.692Zm-3.68 2.565C6.674 6.212 7.358 6 9.693 6h8.616c2.335 0 3.019.212 3.68.565a3.466 3.466 0 0 1 1.447 1.448c.353.66.565 1.344.565 3.679v2.616c0 2.335-.212 3.019-.565 3.68a3.467 3.467 0 0 1-1.448 1.447c-.41.22-1.182.42-2.31.52l-.022.001c-.12.01-.259.023-.378.042a1.522 1.522 0 0 0-.538.185c-.26.154-.463.375-.593.647-.1.21-.127.409-.137.545-.01.119-.009.254-.009.37v2.554l-4.412-3.693-.035-.029a2.78 2.78 0 0 0-.479-.344 2 2 0 0 0-.522-.19 2.783 2.783 0 0 0-.588-.043H9.692c-2.335 0-3.019-.212-3.68-.565a3.466 3.466 0 0 1-1.447-1.448C4.212 17.327 4 16.643 4 14.308v-2.616c0-2.335.212-3.019.565-3.68a3.466 3.466 0 0 1 1.448-1.447Z" clip-rule="evenodd"/></svg>
