<svg fill="none" height="28" viewBox="0 0 28 28" width="28" xmlns="http://www.w3.org/2000/svg" xmlns:xlink="http://www.w3.org/1999/xlink"><linearGradient id="a" gradientUnits="userSpaceOnUse" x1="-14" x2="14" y1="14" y2="42"><stop offset="0" stop-color="#937ff5"/><stop offset="1" stop-color="#735ce6"/></linearGradient><path d="m0 14c0-7.73199 6.26801-14 14-14 7.732 0 14 6.26801 14 14 0 7.732-6.268 14-14 14-7.73199 0-14-6.268-14-14z" fill="url(#a)"/><path clip-rule="evenodd" d="m18.7904 6.31959c-.0528-.09637-.1946-.09637-.2474 0-.2125.38797-.4208.68144-.6031.93817-.3519.49579-.6065.85454-.6065 1.49222 0 .73638.5969 1.33332 1.3333 1.33332s1.3333-.59694 1.3333-1.33332c0-.63768-.2546-.99643-.6065-1.49222-.1822-.25673-.3905-.5502-.6031-.93817zm-12.7904 7.09701c0-.7363.59695-1.3333 1.33333-1.3333h13.33337c.7363 0 1.3333.597 1.3333 1.3333 0 1.3054-.568 2.0428-1.3333 2.3975l-.0264.0121c-.2902.1304-.6079.2068-.9331.239-.1239.0123-.2489.0181-.3739.0181-1.9941 0-2.6627-1.3255-2.6666-1.3333-.003.006-.3165.6268-1.1512 1.019-.1185.0557-.2474.1068-.3874.1508-.0253.008-.0509.0157-.0769.0232-.2068.0595-.4368.1036-.6917.1253-.1147.0098-.2345.015-.3595.015-1.9941 0-2.6627-1.3255-2.6666-1.3333-.0031.0061-.3248.6431-1.1843 1.0343-.1093.0498-.22725.0955-.35436.1355-.02525.008-.05087.0157-.07685.0232h-.00001c-.20685.0595-.43682.1036-.69168.1253-.11474.0098-.23453.015-.35953.015-1.33334 0-2.66667-.6667-2.66667-2.6667zm14.6667 4.5074c-.4618.1152-.9175.1593-1.3333.1593-1.0933 0-1.9783-.2752-2.6667-.6583-.6884.3831-1.5734.6583-2.6667.6583-1.0932 0-1.9782-.2752-2.6666-.6583-.6884.3831-1.57343.6583-2.66669.6583-.41582 0-.87152-.0441-1.33334-.1593v.9426c0 .7468 0 1.1201.14533 1.4054.12783.2508.3318.4548.58269.5826.28521.1454.65858.1454 1.40532.1454h9.06669c.7467 0 1.1201 0 1.4053-.1454.2509-.1278.4549-.3318.5827-.5826.1453-.2853.1453-.6586.1453-1.4054zm-11.45707-11.60441c.05279-.09637.19462-.09637.24741 0 .21254.38797.42085.68144.60306.93817.3519.49579.6066.85454.6066 1.49222 0 .73638-.597 1.33332-1.33337 1.33332-.73638 0-1.33333-.59694-1.33333-1.33332 0-.63768.25464-.99643.60655-1.49222h.00001c.18222-.25673.39053-.5502.60307-.93817zm4.91407 0c-.0528-.09637-.1947-.09637-.2474 0-.2126.38797-.4209.68144-.6031.93817-.3519.49579-.6066.85454-.6066 1.49222 0 .73638.597 1.33332 1.3334 1.33332.7363 0 1.3333-.59694 1.3333-1.33332 0-.63768-.2547-.99643-.6066-1.49222-.1822-.25673-.3905-.5502-.603-.93817z" fill="#fff" fill-rule="evenodd"/></svg>
