<svg xmlns="http://www.w3.org/2000/svg" width="28" height="28" fill="currentColor" viewBox="0 0 28 28"><path d="M20.355 2.075a.139.139 0 0 1 .244 0c.322.61.64 1.085.92 1.503.552.828.957 1.435.957 2.421a2 2 0 1 1-3.999 0c0-.986.406-1.593.959-2.42.28-.42.597-.895.919-1.504ZM7.392 2.08a.139.139 0 0 1 .245 0c.322.61.64 1.085.92 1.504.552.825.957 1.43.957 2.416a2 2 0 1 1-4 0c0-.985.406-1.59.958-2.416.28-.419.598-.894.92-1.505Zm6.725-.005a.139.139 0 0 0-.245 0c-.322.61-.64 1.085-.919 1.504-.553.827-.958 1.434-.958 2.42a2 2 0 1 0 3.999 0c0-.986-.406-1.593-.958-2.42-.28-.42-.598-.895-.92-1.504Z M2.758 12.008c.465-.551 1.176-1.005 2.047-1.005h18.334c.863 0 1.584.447 2.06.99.476.54.801 1.274.801 2.035 0 2.18-1.074 3.771-2.523 4.553V20.2c0 1.68 0 2.52-.327 3.162a3 3 0 0 1-1.31 1.311c-.642.327-1.482.327-3.162.327H9.316c-1.68 0-2.52 0-3.162-.327a3 3 0 0 1-1.31-1.311c-.327-.642-.327-1.482-.327-3.162v-1.623C3.07 17.795 2 16.205 2 14.028c0-.741.296-1.471.758-2.02Zm3.908 7.116-.15-.003V20.2c0 .873.002 1.408.035 1.808.015.186.034.299.05.367a.594.594 0 0 0 .024.079 1 1 0 0 0 .453.443c.01.004.03.01.063.018.069.016.181.036.367.05.4.033.935.035 1.808.035h9.362c.873 0 1.407-.002 1.807-.034.186-.015.3-.035.367-.05a.59.59 0 0 0 .064-.019l.015-.006a1 1 0 0 0 .437-.437l.007-.016a.59.59 0 0 0 .018-.063c.016-.069.035-.181.05-.367.033-.4.034-.935.034-1.808v-1.079a4.592 4.592 0 0 1-.143.003c-1.606 0-2.734-.518-3.472-1.082a4.726 4.726 0 0 1-.195-.157 4.726 4.726 0 0 1-.195.157c-.738.564-1.866 1.082-3.472 1.082-1.606 0-2.734-.518-3.472-1.082a4.726 4.726 0 0 1-.195-.157 4.726 4.726 0 0 1-.195.157c-.738.564-1.866 1.082-3.472 1.082Zm2.789-3.23a1 1 0 0 1 1.756 0c.006.01.037.06.095.134.085.108.227.265.436.425.408.312 1.114.67 2.258.67s1.85-.358 2.258-.67c.21-.16.351-.317.436-.425.058-.074.094-.134.094-.134a1 1 0 0 1 1.757 0c.006.01.036.06.094.134.085.108.227.265.437.425.408.312 1.113.67 2.258.67 1.27 0 2.666-1.008 2.666-3.095 0-.206-.1-.484-.302-.715-.2-.228-.41-.31-.56-.31H4.806c-.142 0-.333.075-.518.294a1.2 1.2 0 0 0-.288.731c0 2.087 1.396 3.096 2.667 3.096 1.145 0 1.85-.36 2.258-.67.21-.161.352-.318.437-.426.033-.043.066-.087.094-.134Z" clip-rule="evenodd"/></svg>
