<svg xmlns="http://www.w3.org/2000/svg" width="28" height="28" viewBox="0 0 28 28" fill="currentColor"><path d="M19 1a1 1 0 0 1 1 1l.001 1.16a5.7 5.7 0 0 1 1.93.642 5.45 5.45 0 0 1 2.267 2.267c.475.889.75 1.77.795 3.93L25 10v7.309l-.005.609c-.04 2.22-.316 3.113-.797 4.013a5.45 5.45 0 0 1-2.267 2.267c-.978.523-1.948.802-4.622.802H10.69l-.609-.005c-2.22-.04-3.113-.316-4.013-.797a5.45 5.45 0 0 1-2.267-2.267c-.502-.939-.78-1.87-.801-4.31V10c.053-2.16.327-3.042.802-3.93a5.45 5.45 0 0 1 2.267-2.268A5.7 5.7 0 0 1 8 3.159V2a1 1 0 0 1 2 0l-.001 1.007Q10.325 3 10.691 3h6.618q.367 0 .693.007L18 2a1 1 0 0 1 1-1M5.001 17.59l.009.57c.039 1.507.198 2.16.555 2.827q.505.944 1.448 1.448c.746.399 1.473.551 3.396.564h7.182l.57-.009c1.506-.039 2.159-.198 2.826-.555a3.45 3.45 0 0 0 1.448-1.448c.399-.746.551-1.473.564-3.396V12H5zM18.5 17a1.5 1.5 0 1 1 0 3 1.5 1.5 0 0 1 0-3M10 5.006V6a1 1 0 0 1-2 0l-.001-.808c-.38.088-.682.21-.986.373q-.944.505-1.448 1.448c-.369.69-.527 1.365-.56 2.986L22.994 10l-.003-.16c-.039-1.507-.198-2.16-.555-2.827a3.45 3.45 0 0 0-1.448-1.448 3.8 3.8 0 0 0-.986-.373L20 6a1 1 0 1 1-2 0l.002-.994q-.196-.004-.411-.005h-7.182z"/></svg>