<svg xmlns="http://www.w3.org/2000/svg" width="28" height="28" fill="currentColor" viewBox="0 0 28 28"><path fill-rule="evenodd" d="M10 2a1 1 0 0 0-2 0v1.16a5.856 5.856 0 0 0-1.93.641A5.466 5.466 0 0 0 3.8 6.07C3.216 7.165 3 8.244 3 10.692v6.616c0 2.448.216 3.527.801 4.622A5.465 5.465 0 0 0 6.07 24.2c1.096.585 2.175.801 4.623.801h6.616c2.448 0 3.527-.216 4.622-.801a5.465 5.465 0 0 0 2.269-2.27c.585-1.095.801-2.174.801-4.622v-6.616c0-2.448-.216-3.527-.801-4.623a5.465 5.465 0 0 0-2.269-2.268A5.855 5.855 0 0 0 20 3.16V2a1 1 0 1 0-2 0v1.007A34.168 34.168 0 0 0 17.308 3h-6.616c-.244 0-.474.002-.692.007V2Zm8 4v-.993A31.379 31.379 0 0 0 17.308 5h-6.616c-.249 0-.479.002-.692.007V6a1 1 0 1 1-2 0v-.805a3.659 3.659 0 0 0-.987.37 3.466 3.466 0 0 0-1.448 1.448C5.212 7.673 5 8.357 5 10.692v6.616c0 2.335.212 3.019.565 3.68a3.466 3.466 0 0 0 1.448 1.447c.66.353 1.344.565 3.679.565h6.616c2.335 0 3.019-.212 3.68-.565a3.467 3.467 0 0 0 1.447-1.448c.353-.66.565-1.344.565-3.679v-6.616c0-2.335-.212-3.019-.565-3.68a3.466 3.466 0 0 0-1.448-1.447 3.657 3.657 0 0 0-.987-.37V6a1 1 0 1 1-2 0Zm1.176 6.237a1 1 0 0 0-1.352-1.474l-5.294 4.853-1.823-1.823a1 1 0 0 0-1.414 1.414l2.5 2.5a1 1 0 0 0 1.383.03l6-5.5Z" clip-rule="evenodd"/></svg>
