<svg xmlns="http://www.w3.org/2000/svg" width="28" height="28" fill="currentColor" viewBox="0 0 28 28"><path fill-rule="evenodd" d="M12.587 3h2.826c.469 0 .822 0 1.161.058a4 4 0 0 1 2.223 1.19c.237.25.433.543.693.934l.042.063.086.129c.129.193.156.231.18.26a1 1 0 0 0 .673.361c.038.004.085.005.317.005h.09c.574 0 .98 0 1.338.057a4.5 4.5 0 0 1 3.727 3.727c.057.357.057.764.057 1.338V15.5a1 1 0 1 1-2 0v-4.288c0-.7-.003-.932-.032-1.11a2.5 2.5 0 0 0-2.07-2.07c-.178-.029-.41-.032-1.11-.032h-.036c-.176 0-.33 0-.481-.015a3 3 0 0 1-2.018-1.08 4.888 4.888 0 0 1-.28-.392l-.02-.03-.085-.128c-.32-.482-.418-.621-.522-.731a2 2 0 0 0-1.112-.595c-.149-.026-.319-.029-.897-.029h-2.674c-.578 0-.748.003-.897.029a2 2 0 0 0-1.112.595c-.104.11-.201.25-.522.73l-.085.129-.02.03a4.814 4.814 0 0 1-.28.392 3 3 0 0 1-2.018 1.08C7.579 8 7.424 8 7.249 8h-.037c-.7 0-.932.003-1.11.032a2.5 2.5 0 0 0-2.07 2.07c-.029.178-.032.41-.032 1.11V15c0 1.417 0 2.419.065 3.203.063.771.182 1.243.371 1.613a4 4 0 0 0 1.748 1.748c.37.189.842.308 1.613.371C8.581 22 9.583 22 11 22h4.5a1 1 0 1 1 0 2h-4.544c-1.363 0-2.447 0-3.321-.072-.896-.073-1.66-.226-2.359-.582a6 6 0 0 1-2.622-2.622c-.356-.7-.51-1.463-.583-2.359C2 17.491 2 16.407 2 15.044v-3.922c0-.574 0-.98.057-1.338a4.5 4.5 0 0 1 3.727-3.727C6.141 6 6.548 6 7.122 6h.09c.232 0 .28-.001.317-.005a1 1 0 0 0 .673-.36c.024-.03.052-.068.18-.261l.086-.129.042-.063c.26-.39.456-.684.693-.934a4 4 0 0 1 2.223-1.19C11.766 3 12.118 3 12.587 3ZM14 11a3 3 0 1 0 0 6 3 3 0 0 0 0-6Zm-5 3a5 5 0 1 1 10 0 5 5 0 0 1-10 0Zm13 3a1 1 0 0 1 1 1v2h2a1 1 0 1 1 0 2h-2v2a1 1 0 1 1-2 0v-2h-2a1 1 0 1 1 0-2h2v-2a1 1 0 0 1 1-1Z" clip-rule="evenodd"/></svg>
