<svg xmlns="http://www.w3.org/2000/svg" width="28" height="28" fill="currentColor" viewBox="0 0 28 28"><path fill-rule="evenodd" d="M11 14a3 3 0 1 1 6 0 3 3 0 0 1-6 0Zm3-5a5 5 0 1 0 0 10 5 5 0 0 0 0-10Z M12.663 3h-.076c-.469 0-.822 0-1.161.058a4 4 0 0 0-2.223 1.19c-.237.25-.433.543-.693.934l-.042.063-.086.129a3.862 3.862 0 0 1-.18.261 1 1 0 0 1-.673.36A3.86 3.86 0 0 1 7.212 6h-.09c-.574 0-.98 0-1.338.057a4.5 4.5 0 0 0-3.727 3.727C2 10.141 2 10.548 2 11.122v3.922c0 1.363 0 2.447.071 3.322.074.895.227 1.659.583 2.358a6 6 0 0 0 2.622 2.622c.7.356 1.463.51 2.359.583.874.071 1.958.071 3.321.071h6.088c1.363 0 2.447 0 3.322-.071.895-.074 1.659-.227 2.358-.583a6.001 6.001 0 0 0 2.622-2.622c.356-.7.51-1.463.583-2.358.071-.875.071-1.96.071-3.322v-3.922c0-.574 0-.98-.057-1.338a4.5 4.5 0 0 0-3.727-3.727C21.859 6 21.452 6 20.878 6h-.09a3.86 3.86 0 0 1-.317-.005 1 1 0 0 1-.673-.36 3.877 3.877 0 0 1-.18-.261l-.086-.129-.042-.063c-.26-.39-.456-.684-.693-.934a4 4 0 0 0-2.223-1.19C16.235 3 15.882 3 15.413 3h-2.75Zm0 2c-.578 0-.748.003-.897.03a2 2 0 0 0-1.112.594c-.104.11-.201.25-.522.73l-.085.129-.02.03a4.814 4.814 0 0 1-.28.392 3 3 0 0 1-2.018 1.08C7.579 8 7.424 8 7.249 8h-.037c-.7 0-.932.003-1.11.032a2.5 2.5 0 0 0-2.07 2.07c-.029.178-.032.41-.032 1.11V15c0 1.417 0 2.419.065 3.203.063.771.182 1.243.371 1.613a4 4 0 0 0 1.748 1.748c.37.189.842.308 1.613.371C8.581 22 9.583 22 11 22h6c1.417 0 2.419 0 3.203-.065.771-.063 1.243-.182 1.613-.37a4 4 0 0 0 1.748-1.749c.189-.37.308-.841.371-1.613C24 17.419 24 16.417 24 15v-3.788c0-.7-.003-.932-.032-1.11a2.5 2.5 0 0 0-2.07-2.07c-.178-.029-.41-.032-1.11-.032h-.036c-.176 0-.33 0-.481-.015a3 3 0 0 1-2.018-1.08 4.888 4.888 0 0 1-.28-.392l-.02-.03-.085-.128c-.32-.482-.418-.621-.522-.731a2 2 0 0 0-1.112-.595c-.149-.026-.319-.029-.897-.029h-2.674Z" clip-rule="evenodd"/></svg>
