<svg xmlns="http://www.w3.org/2000/svg" width="28" height="28" fill="currentColor" viewBox="0 0 28 28"><path d="M8.654 11.835a1 1 0 0 1 1.415 0l1.918 1.919a1 1 0 0 1-1.414 1.414l-.315-.315a3.747 3.747 0 0 0 4.54 3.434 1 1 0 0 1 .425 1.953 5.747 5.747 0 0 1-6.955-5.191l-.279.28a1 1 0 1 1-1.414-1.415l2.08-2.079Zm4.507-2.902a5.743 5.743 0 0 1 6.57 5.26l.279-.279a1 1 0 0 1 1.414 1.414l-2.08 2.08a1 1 0 0 1-1.413 0l-1.92-1.92a1 1 0 0 1 1.415-1.414l.315.316a3.748 3.748 0 0 0-4.516-3.438l-.1.016a1 1 0 0 1-.31-1.975l.346-.06Z"/><path fill-rule="evenodd" d="M15.337 3c.507 0 .88-.003 1.237.059a4 4 0 0 1 2.223 1.19c.25.262.454.574.735.996l.085.13c.129.192.157.23.181.26a1 1 0 0 0 .673.36c.038.004.085.005.317.005.623 0 1.052-.003 1.428.058a4.5 4.5 0 0 1 3.726 3.726c.061.376.058.805.058 1.428V15c0 1.384.001 2.481-.071 3.365-.073.896-.227 1.66-.583 2.359a6 6 0 0 1-2.622 2.622c-.7.356-1.463.51-2.359.583C19.482 24 18.384 24 17 24h-6c-1.383 0-2.481 0-3.365-.071-.896-.073-1.66-.227-2.359-.583a6 6 0 0 1-2.622-2.622c-.356-.7-.51-1.463-.583-2.359-.072-.884-.07-1.981-.07-3.365v-3.788c0-.623-.004-1.052.057-1.428a4.5 4.5 0 0 1 3.726-3.726C6.16 5.998 6.59 6 7.212 6c.232 0 .28-.001.317-.005a1 1 0 0 0 .673-.36c.024-.03.052-.068.18-.26l.086-.13c.281-.422.486-.734.735-.997a4 4 0 0 1 2.223-1.19c.357-.06.73-.058 1.237-.058h2.674Zm-2.674 2c-.578 0-.748.004-.897.03a2 2 0 0 0-1.112.594c-.103.11-.201.25-.522.73l-.085.13c-.106.158-.197.296-.3.421a3.002 3.002 0 0 1-2.018 1.08c-.161.016-.326.015-.517.015-.7 0-.932.004-1.11.032a2.5 2.5 0 0 0-2.07 2.07c-.028.178-.032.41-.032 1.11V15c0 1.416 0 2.419.065 3.202.063.772.182 1.244.37 1.614a4.001 4.001 0 0 0 1.749 1.748c.37.19.842.308 1.614.372C8.582 22 9.584 22 11 22h6c1.416 0 2.419 0 3.202-.064.772-.064 1.244-.183 1.614-.372a4.002 4.002 0 0 0 1.749-1.748c.188-.37.308-.842.37-1.614C24 17.42 24 16.416 24 15v-3.788c0-.7-.003-.932-.032-1.11a2.5 2.5 0 0 0-2.07-2.07c-.178-.028-.41-.032-1.11-.032-.19 0-.355.001-.516-.015a3.001 3.001 0 0 1-2.019-1.08c-.103-.125-.194-.263-.3-.422l-.085-.128c-.32-.482-.418-.621-.522-.731a2 2 0 0 0-1.111-.595c-.15-.025-.32-.029-.898-.029h-2.674Z" clip-rule="evenodd"/></svg>