<svg xmlns="http://www.w3.org/2000/svg" width="28" height="28" fill="currentColor" viewBox="0 0 28 28"><path fill-rule="evenodd" d="M15.337 3c.507 0 .88-.003 1.237.059a4 4 0 0 1 2.223 1.19c.25.262.454.574.735.996l.085.13c.129.192.157.23.18.26a1 1 0 0 0 .674.36c.038.004.085.005.317.005.623 0 1.052-.003 1.428.058a4.5 4.5 0 0 1 3.726 3.726c.06.376.058.805.058 1.428V15c0 1.384 0 2.481-.071 3.365-.073.896-.227 1.66-.583 2.359a6 6 0 0 1-2.622 2.622c-.7.356-1.463.51-2.359.583C19.481 24 18.384 24 17 24h-6c-1.383 0-2.481 0-3.365-.071-.896-.073-1.66-.227-2.359-.583a6 6 0 0 1-2.622-2.622c-.356-.7-.51-1.463-.583-2.359C2 17.481 2 16.384 2 15v-3.788c0-.623-.003-1.052.058-1.428a4.5 4.5 0 0 1 3.726-3.726C6.16 5.998 6.59 6 7.212 6c.232 0 .28-.001.317-.005a1 1 0 0 0 .673-.36c.024-.03.052-.068.18-.26l.086-.13c.281-.422.486-.734.735-.997a4 4 0 0 1 2.223-1.19c.357-.06.73-.058 1.237-.058h2.674Zm-5.445 9.012a.75.75 0 0 0-1.06 0l-2.08 2.079a.75.75 0 0 0 1.06 1.06l.69-.69a5.484 5.484 0 0 0 1.608 4.049 5.496 5.496 0 0 0 5.059 1.486.75.75 0 0 0-.317-1.467 3.996 3.996 0 0 1-3.681-1.08 3.991 3.991 0 0 1-1.155-3.192l.734.734a.75.75 0 0 0 1.06-1.06l-1.918-1.92Zm7.997-1.28a5.497 5.497 0 0 0-5.022-1.493.75.75 0 1 0 .307 1.467 3.998 3.998 0 0 1 4.808 4.277l-.733-.732a.75.75 0 0 0-1.06 1.06l1.918 1.92a.75.75 0 0 0 1.061 0l2.08-2.08a.75.75 0 1 0-1.062-1.06l-.692.691a5.483 5.483 0 0 0-1.605-4.05Z" clip-rule="evenodd"/></svg>