<svg fill="none" height="28" viewBox="0 0 28 28" width="28" xmlns="http://www.w3.org/2000/svg"><path d="m6.88388 5.11612c-.48815-.48816-1.27961-.48816-1.76776 0-.48816.48815-.48816 1.27961 0 1.76776l7.11608 7.11612-7.11608 7.1161c-.48816.4882-.48816 1.2796 0 1.7678.48815.4881 1.27961.4881 1.76776 0l7.11612-7.1161 7.1161 7.1161c.4882.4881 1.2796.4881 1.7678 0 .4881-.4882.4881-1.2796 0-1.7678l-7.1161-7.1161 7.1161-7.11612c.4881-.48815.4881-1.27961 0-1.76776-.4882-.48816-1.2796-.48816-1.7678 0l-7.1161 7.11608z" fill="currentColor"/></svg>
