<?xml version="1.0" encoding="UTF-8"?>
<svg width="28px" height="28px" viewBox="0 0 28 28" version="1.1" xmlns="http://www.w3.org/2000/svg" xmlns:xlink="http://www.w3.org/1999/xlink">
    <!-- Generator: Sketch 63.1 (92452) - https://sketch.com -->
    <title>cancel_circle_outline_28</title>
    <desc>Created with Sketch.</desc>
    <g id="Page-1" stroke="none" stroke-width="1" fill="none" fill-rule="evenodd">
        <g id="cancel_circle_outline_28" fill-rule="nonzero">
            <rect x="0" y="0" width="28" height="28"></rect>
            <path d="M14,2 C20.627417,2 26,7.372583 26,14 C26,20.627417 20.627417,26 14,26 C7.372583,26 2,20.627417 2,14 C2,7.372583 7.372583,2 14,2 Z M14,4 C8.4771525,4 4,8.4771525 4,14 C4,19.5228475 8.4771525,24 14,24 C19.5228475,24 24,19.5228475 24,14 C24,8.4771525 19.5228475,4 14,4 Z M9.79289322,9.79289322 C10.1834175,9.40236893 10.8165825,9.40236893 11.2071068,9.79289322 L11.2071068,9.79289322 L14,12.585 L16.7928932,9.79289322 C17.1533772,9.43240926 17.7206082,9.40467972 18.1128994,9.70970461 L18.2071068,9.79289322 C18.5976311,10.1834175 18.5976311,10.8165825 18.2071068,11.2071068 L18.2071068,11.2071068 L15.415,14 L18.2071068,16.7928932 C18.5675907,17.1533772 18.5953203,17.7206082 18.2902954,18.1128994 L18.2071068,18.2071068 C17.8165825,18.5976311 17.1834175,18.5976311 16.7928932,18.2071068 L16.7928932,18.2071068 L14,15.415 L11.2071068,18.2071068 C10.8466228,18.5675907 10.2793918,18.5953203 9.88710056,18.2902954 L9.79289322,18.2071068 C9.40236893,17.8165825 9.40236893,17.1834175 9.79289322,16.7928932 L9.79289322,16.7928932 L12.585,14 L9.79289322,11.2071068 C9.43240926,10.8466228 9.40467972,10.2793918 9.70970461,9.88710056 Z" id="↳-Icon-Color" fill="currentColor"></path>
        </g>
    </g>
</svg>
