<svg fill="none" height="28" viewBox="0 0 28 28" width="28" xmlns="http://www.w3.org/2000/svg" xmlns:xlink="http://www.w3.org/1999/xlink"><linearGradient id="a" gradientUnits="userSpaceOnUse" x1="-14" x2="14" y1="14" y2="42"><stop offset="0" stop-color="#70b2ff"/><stop offset="1" stop-color="#5c9ce6"/></linearGradient><path d="m0 14c0-7.73199 6.26801-14 14-14 7.732 0 14 6.26801 14 14 0 7.732-6.268 14-14 14-7.73199 0-14-6.268-14-14z" fill="url(#a)"/><path clip-rule="evenodd" d="m13.022 16.1837c-.3266.3289-.8611.3286-1.1874-.0008-1.4802-1.4946-1.4802-3.9241 0-5.4186l2.618-2.64337c1.4802-1.49457 3.8863-1.49457 5.3665 0 1.2614 1.27363 1.5572 3.03347.6691 4.50767-.2955.4905-.9458.4698-1.3247.0899-.2746-.2753-.2537-.7065-.0762-1.0185.4644-.8166.2394-1.6827-.4561-2.37902-.8271-.84222-2.1705-.84281-2.9975-.0006l-2.6108 2.63612c-.8339.8349-.8345 2.1905-.001 3.0257.3426.3298.3426.8716.0001 1.2015zm1.9492-3.1659c.8334.8352.8332 2.1905-.0007 3.0254l-2.6108 2.6361c-.827.8422-2.1702.8425-2.9972.0003-.69552-.6963-.91072-1.5555-.44629-2.3721.17747-.312.19846-.7432-.07617-1.0185-.37889-.3799-1.02924-.4006-1.3247.0899-.88809 1.4742-.60274 3.2265.65865 4.5002 1.48021 1.4945 3.88631 1.4945 5.36651 0l2.6179-2.6434c1.4803-1.4945 1.4803-3.924 0-5.4186-.3262-.3294-.8607-.3297-1.1873-.0009-.3425.3299-.3425.8718.0001 1.2016z" fill="#fff" fill-rule="evenodd"/></svg>
