<?xml version="1.0" encoding="UTF-8"?>
<svg width="28px" height="28px" viewBox="0 0 28 28" version="1.1" xmlns="http://www.w3.org/2000/svg" xmlns:xlink="http://www.w3.org/1999/xlink">
    <!-- Generator: Sketch 63.1 (92452) - https://sketch.com -->
    <title>chain_outline_28</title>
    <desc>Created with Sketch.</desc>
    <g id="Page-1" stroke="none" stroke-width="1" fill="none" fill-rule="evenodd">
        <g id="chain_outline_28">
            <polygon points="0 0 28 0 28 28 0 28"></polygon>
            <path d="M12.59,16.83 C12.2,17.22 11.56,17.22 11.17,16.83 C9.22,14.88 9.22,11.71 11.17,9.76 L16.41,4.52 C18.36,2.57 21.53,2.57 23.48,4.52 C25.43,6.47 25.43,9.64 23.48,11.59 L22.0440792,13.0259208 C21.6544907,13.4155093 21.0230079,13.4160438 20.6327605,13.0271154 C20.2426392,12.6383126 20.2413849,12.0069275 20.6299585,11.6165779 L22.06,10.18 L22.06,10.18 C23.24,9.01 23.24,7.11 22.06,5.94 C20.89,4.76 18.99,4.76 17.82,5.94 L12.59,11.17 C11.41,12.34 11.41,14.24 12.59,15.41 C13,15.8 13,16.44 12.59,16.83 Z M15.41,11.17 C15.8,10.78 16.44,10.78 16.83,11.17 C18.78,13.12 18.78,16.29 16.83,18.24 L11.59,23.48 C9.64,25.43 6.47,25.43 4.52,23.48 C2.57,21.53 2.57,18.36 4.52,16.41 L5.95147385,14.9785262 C6.3415865,14.5875902 6.97475148,14.5875902 7.36527577,14.9781145 C7.36541302,14.9782518 7.36555024,14.9783891 7.36527553,14.9789378 L7.36606175,14.9797249 C7.75578575,15.3707273 7.75560149,16.0035748 7.36564987,16.3943501 L5.94,17.82 L5.94,17.82 C4.76,18.99 4.76,20.89 5.94,22.06 C7.11,23.24 9.01,23.24 10.18,22.06 L15.41,16.83 C16.59,15.66 16.59,13.76 15.41,12.59 C15,12.2 15,11.56 15.41,11.17 Z" id="↳-Icon-Color" fill="currentColor" fill-rule="nonzero"></path>
        </g>
    </g>
</svg>
