<svg fill="none" height="28" viewBox="0 0 28 28" width="28" xmlns="http://www.w3.org/2000/svg"><path clip-rule="evenodd" d="m14 26c6.6274 0 12-5.3726 12-12 0-6.62742-5.3726-12-12-12-6.62742 0-12 5.37258-12 12 0 6.6274 5.37258 12 12 12zm6.2072-14.7929c.3905-.3905.3905-1.0237 0-1.41421-.3906-.39052-1.0237-.39052-1.4142 0l-6.7929 6.79291-2.79293-2.7929c-.39053-.3905-1.02369-.3905-1.41422 0-.39052.3905-.39052 1.0237 0 1.4142l3.50005 3.5c.1875.1875.4418.2929.7071.2929.2652 0 .5195-.1054.7071-.2929z" fill="currentColor" fill-rule="evenodd"/></svg>
