<?xml version="1.0" encoding="UTF-8"?>
<svg width="28px" height="28px" viewBox="0 0 28 28" version="1.1" xmlns="http://www.w3.org/2000/svg" xmlns:xlink="http://www.w3.org/1999/xlink">
    <!-- Generator: Sketch 63.1 (92452) - https://sketch.com -->
    <title>checks_outline_28</title>
    <desc>Created with Sketch.</desc>
    <g id="Page-1" stroke="none" stroke-width="1" fill="none" fill-rule="evenodd">
        <g id="checks_outline_28">
            <rect x="0" y="0" width="28" height="28"></rect>
            <path d="M18.7071068,8.29289322 C19.0675907,8.65337718 19.0953203,9.22060824 18.7902954,9.61289944 L18.7071068,9.70710678 L8.70710678,19.7071068 C8.34662282,20.0675907 7.77939176,20.0953203 7.38710056,19.7902954 L7.29289322,19.7071068 L3.29289322,15.7071068 C2.90236893,15.3165825 2.90236893,14.6834175 3.29289322,14.2928932 C3.65337718,13.9324093 4.22060824,13.9046797 4.61289944,14.2097046 L4.70710678,14.2928932 L8,17.585 L17.2928932,8.29289322 C17.6834175,7.90236893 18.3165825,7.90236893 18.7071068,8.29289322 Z M24.7071068,8.29289322 C25.0675907,8.65337718 25.0953203,9.22060824 24.7902954,9.61289944 L24.7071068,9.70710678 L14.7071068,19.7071068 C14.3165825,20.0976311 13.6834175,20.0976311 13.2928932,19.7071068 C12.9324093,19.3466228 12.9046797,18.7793918 13.2097046,18.3871006 L13.2928932,18.2928932 L23.2928932,8.29289322 C23.6834175,7.90236893 24.3165825,7.90236893 24.7071068,8.29289322 Z" id="↳-Icon-Color" fill="currentColor" fill-rule="nonzero"></path>
        </g>
    </g>
</svg>
