<svg xmlns="http://www.w3.org/2000/svg" width="28" height="28" fill="currentColor" viewBox="0 0 28 28"><path d="M13.484 1.502c.35-.05.682-.05 1.032 0 .345.05.633.127 1.296.348l6.82 2.273A2 2 0 0 1 24 6.021V15.3c0 4.794-2.878 8.467-8.458 10.942l-.368.16a3 3 0 0 1-2.348 0C7.007 23.93 4 20.202 4 15.3V6.02a2 2 0 0 1 1.368-1.897l7.008-2.335c.533-.174.797-.242 1.108-.286Zm.75 1.98a1.579 1.579 0 0 0-.467 0c-.2.028-.389.08-.947.265L6 6.021V15.3c0 4.016 2.471 7.078 7.609 9.261.25.107.532.107.775.004l.354-.154C19.641 22.236 22 19.226 22 15.3V6.02l-6.977-2.325a5.976 5.976 0 0 0-.668-.192l-.122-.021Z"/><path d="M19.057 10.693a1 1 0 0 0-1.414 0l-4.893 4.893-1.893-1.893a1 1 0 0 0-1.414 1.414l2.6 2.6a1 1 0 0 0 1.414 0l5.6-5.6a1 1 0 0 0 0-1.414Z"/></svg>
