<svg fill="none" height="28" viewBox="0 0 28 28" width="28" xmlns="http://www.w3.org/2000/svg"><g fill="currentColor"><path d="m8.41421 14 5.79289 5.7929c.3905.3905.3905 1.0237 0 1.4142s-1.0237.3905-1.4142 0l-6.50001-6.5c-.39052-.3905-.39052-1.0237 0-1.4142l6.50001-6.50001c.3905-.39052 1.0237-.39052 1.4142 0 .3905.39053.3905 1.02369 0 1.41422z"/><path d="m16.4142 14 5.7929 5.7929c.3905.3905.3905 1.0237 0 1.4142s-1.0237.3905-1.4142 0l-6.5-6.5c-.3905-.3905-.3905-1.0237 0-1.4142l6.5-6.50001c.3905-.39052 1.0237-.39052 1.4142 0 .3905.39053.3905 1.02369 0 1.41422z"/></g></svg>
