<?xml version="1.0" encoding="UTF-8"?>
<svg width="28px" height="28px" viewBox="0 0 28 28" version="1.1" xmlns="http://www.w3.org/2000/svg" xmlns:xlink="http://www.w3.org/1999/xlink">
    <!-- Generator: Sketch 63.1 (92452) - https://sketch.com -->
    <title>chevron_right_circle_outline_28</title>
    <desc>Created with Sketch.</desc>
    <g id="Page-1" stroke="none" stroke-width="1" fill="none" fill-rule="evenodd">
        <g id="chevron_right_circle_outline_28" fill-rule="nonzero">
            <rect x="0" y="0" width="28" height="28"></rect>
            <path d="M14,2 C20.627417,2 26,7.372583 26,14 C26,20.627417 20.627417,26 14,26 C7.372583,26 2,20.627417 2,14 C2,7.372583 7.372583,2 14,2 Z M14,4 C8.4771525,4 4,8.4771525 4,14 C4,19.5228475 8.4771525,24 14,24 C19.5228475,24 24,19.5228475 24,14 C24,8.4771525 19.5228475,4 14,4 Z M12.0428932,9.29289322 C12.4334175,8.90236893 13.0665825,8.90236893 13.4571068,9.29289322 L13.4571068,9.29289322 L17.4571068,13.2928932 C17.8476311,13.6834175 17.8476311,14.3165825 17.4571068,14.7071068 L17.4571068,14.7071068 L13.4571068,18.7071068 C13.0665825,19.0976311 12.4334175,19.0976311 12.0428932,18.7071068 C11.6523689,18.3165825 11.6523689,17.6834175 12.0428932,17.2928932 L12.0428932,17.2928932 L15.3357864,14 L12.0428932,10.7071068 C11.6523689,10.3165825 11.6523689,9.68341751 12.0428932,9.29289322 Z" id="↳-Icon-Color" fill="currentColor"></path>
        </g>
    </g>
</svg>
