<svg xmlns="http://www.w3.org/2000/svg" width="28" height="28" viewBox="0 0 28 28" fill="currentColor"><path fill-rule="evenodd" d="M12.119 3.579a2.66 2.66 0 0 1 3.761 0l2.364 2.36c.534.534.924 1.684.38 2.672l2.422 2.419c.71.71.936 1.981.19 2.928l2.629 2.689c.773.791.932 2.202-.03 3.144-.858.84-3.232 2.423-8.835 2.593V24a1 1 0 0 1-2 0v-1.615c-5.229-.158-7.645-1.548-8.642-2.416l-.191-.176c-.911-.891-.82-2.199-.154-3.009l.14-.155 2.636-2.636c-.725-.885-.58-2.069.025-2.808l.14-.155 2.42-2.42c-.544-.987-.151-2.137.382-2.67zm7.456 11.554c-1.141.52-2.903.97-5.575.97l-.762-.013c-2.22-.075-3.741-.476-4.77-.937l-.048.037-2.852 2.853a.2.2 0 0 0-.045.07.3.3 0 0 0-.024.105.2.2 0 0 0 .01.068.2.2 0 0 0 .057.078c.435.425 2.477 2.037 8.434 2.037 5.963 0 8.003-1.615 8.435-2.038l.041-.049.016-.03a.2.2 0 0 0 .01-.066.3.3 0 0 0-.024-.104.2.2 0 0 0-.044-.07l-2.813-2.88zm-11.206-2.69a.32.32 0 0 0-.07.182q0 .046.01.063a.2.2 0 0 0 .062.078c.36.328 1.779 1.337 5.629 1.337s5.268-1.009 5.628-1.337a.2.2 0 0 0 .063-.078.2.2 0 0 0 .009-.062.3.3 0 0 0-.026-.112.2.2 0 0 0-.044-.07l-2.586-2.587c-.734.281-1.725.457-3.044.457-1.32 0-2.312-.177-3.045-.458zm6.097-7.45a.66.66 0 0 0-.933 0l-2.352 2.35c.006-.003-.036.05-.058.152-.022.099-.004.14 0 .148a.3.3 0 0 0 .069.082c.054.05.163.132.364.22.416.183 1.172.37 2.444.37 1.271 0 2.027-.187 2.443-.37.201-.088.31-.17.365-.22a.3.3 0 0 0 .07-.082c.003-.007.022-.05 0-.148-.022-.095-.06-.148-.06-.152l.012.011z" clip-rule="evenodd"/></svg>