<svg xmlns="http://www.w3.org/2000/svg" width="28" height="28" fill="currentColor" viewBox="0 0 28 28"><path fill-rule="evenodd" d="M24.836 4.172a4 4 0 0 1 0 5.656L10.828 23.836a4 4 0 0 1-5.657-5.657L19.18 4.172a4 4 0 0 1 5.657 0Zm-1.414 4.242a2 2 0 1 0-2.829-2.828l-12.09 12.09 2.83 2.828 12.089-12.09ZM9.918 21.918 7.089 19.09l-.504.504a2 2 0 1 0 2.829 2.828l.504-.504Z M3.169 4.444a1 1 0 0 1 1.387-.275c1.16.776 1.865 1.618 2.202 2.553.332.925.254 1.804.123 2.534-.046.256-.105.523-.158.764l-.057.261c-.068.32-.119.598-.14.86-.042.494.024.893.299 1.294a1 1 0 1 1-1.65 1.13c-.605-.883-.71-1.779-.643-2.59.033-.393.106-.771.178-1.11l.069-.315c.05-.226.095-.432.134-.648.108-.602.12-1.067-.037-1.502-.153-.424-.516-.956-1.432-1.569a1 1 0 0 1-.275-1.387Z"/></svg>
