<svg xmlns="http://www.w3.org/2000/svg" width="28" height="28" fill="none" viewBox="0 0 28 28"><path fill="url(#a)" d="M0 14C0 6.268 6.268 0 14 0s14 6.268 14 14-6.268 14-14 14S0 21.732 0 14Z"/><path fill="#fff" fill-rule="evenodd" d="M10.9794 5.0062c.6041-.0642 1.1459.3735 1.2101.9776l.4039 3.8c.0642.6041-.3735 1.1459-.9776 1.2101-.6041.0642-1.1459-.3734-1.2101-.9775l-.4039-3.8c-.0642-.6041.3735-1.146.9776-1.2102Zm6.2541.4453c.5789.1841.8989.8028.7147 1.3817l-1.4 4.4005c-.1841.5789-.8028.8989-1.3817.7147-.5789-.1842-.8989-.8028-.7147-1.3817l1.4-4.4005c.1842-.579.8028-.899 1.3817-.7147Zm.48 7.4257c.3441-.432.9732-.5033 1.4052-.1592 1.2713 1.0126 1.8818 2.5164 1.8769 4.0354-.0011 2.8137-2.6661 6.2469-6.9961 6.2469-1.6775 0-3.3994-.6594-4.7083-1.7349-1.3126-1.0787-2.2956-2.6532-2.2956-4.5137 0-.7779.3277-1.8003.9643-2.6364.662-.8694 1.723-1.6151 3.1901-1.6151.3432 0 2.2614.0956 3.2401 2.0528.247.494.0467 1.0947-.4472 1.3416-.494.247-1.0947.0468-1.3417-.4471-.4499-.8999-1.3182-.9473-1.4512-.9473-.7123 0-1.2285.3402-1.5989.8266-.3956.5197-.5555 1.1231-.5555 1.425 0 1.1174.5904 2.1672 1.5654 2.9683.9787.8043 2.2588 1.2802 3.4385 1.2802 3.2222 0 4.9961-2.5351 4.9961-4.2486v-.0035c.0035-.9842-.386-1.8788-1.1229-2.4658-.432-.3441-.5033-.9732-.1592-1.4052Z" clip-rule="evenodd"/><defs><linearGradient id="a" x1="-14" x2="14" y1="14" y2="42" gradientUnits="userSpaceOnUse"><stop stop-color="#C48AFF"/><stop offset="1" stop-color="#AA65F0"/></linearGradient></defs></svg>
