<svg xmlns="http://www.w3.org/2000/svg" width="28" height="28" viewBox="0 0 28 28" fill="currentColor"><path d="M10.072 13.003c.264.003.874.03 1.572.328.792.34 1.64 1.003 2.25 2.222a1 1 0 0 1-1.789.895c-.39-.78-.875-1.118-1.249-1.278-.393-.168-.73-.168-.856-.168L9.972 15c-1.195.008-1.894.48-2.32 1.04C7.188 16.647 7 17.422 7 18l.01.32C7.21 21.597 10.47 24 14 24q.231 0 .453-.01a1 1 0 0 1 .094 1.998Q14.277 26 14 26c-4.22 0-8.71-2.91-8.986-7.547L5 18c0-.933.286-2.158 1.06-3.174C6.869 13.769 8.163 13 10 13zm7.428 4.002c0-.772.842-1.255 1.517-.869l6.481 3.995a1 1 0 0 1 0 1.738l-6.481 3.996c-.674.385-1.517-.098-1.517-.87zm1.741-4.655a1 1 0 0 1 1.41-.108q.374.32.678.67a1 1 0 0 1-1.507 1.315 5 5 0 0 0-.472-.468 1 1 0 0 1-.109-1.41M16.84 3.201a1.1 1.1 0 0 1 2.119.597l-1.803 6.4a1.1 1.1 0 0 1-2.117-.596zm-6.816-1.199a1.1 1.1 0 0 1 1.173 1.023l.4 5.8a1.1 1.1 0 0 1-2.194.15l-.4-5.8a1.1 1.1 0 0 1 1.021-1.173"/></svg>