<svg xmlns="http://www.w3.org/2000/svg" width="28" height="28" fill="currentColor" viewBox="0 0 28 28"><path fill-rule="evenodd" d="M13.5 8a1 1 0 0 1 1 1v5.079l4.879 1.995a1 1 0 0 1-.758 1.851l-5.437-2.224a1.1 1.1 0 0 1-.684-1.018V9a1 1 0 0 1 1-1ZM3 13a1 1 0 0 1 1 1c0 .375.021.75.063 1.12a1 1 0 1 1-1.988.224A12 12 0 0 1 2 14a1 1 0 0 1 1-1Zm.768 5.16a1 1 0 0 1 1.348.43 9.992 9.992 0 0 0 1.244 1.862 1 1 0 0 1-1.528 1.29 11.997 11.997 0 0 1-1.493-2.234 1 1 0 0 1 .43-1.348Zm4.036 4.984a1 1 0 0 1 1.359-.392 9.996 9.996 0 0 0 2.069.857 1 1 0 1 1-.554 1.922 11.997 11.997 0 0 1-2.483-1.028 1 1 0 0 1-.391-1.36Z M14 2a1 1 0 1 0 0 2 9.99 9.99 0 0 1 6.452 2.36 9.954 9.954 0 0 1 2.3 2.803 9.996 9.996 0 0 1-1.202 11.395l-.01.01a10.001 10.001 0 0 1-6.7 3.397 1 1 0 0 0 .169 1.992 12.05 12.05 0 0 0 .668-.075A12 12 0 0 0 14 2Z"/></svg>
