<?xml version="1.0" encoding="UTF-8"?>
<svg width="28px" height="28px" viewBox="0 0 28 28" version="1.1" xmlns="http://www.w3.org/2000/svg" xmlns:xlink="http://www.w3.org/1999/xlink">
    <!-- Generator: Sketch 63.1 (92452) - https://sketch.com -->
    <title>coins_outline_28</title>
    <desc>Created with Sketch.</desc>
    <g id="Page-1" stroke="none" stroke-width="1" fill="none" fill-rule="evenodd">
        <g id="coins_outline_28">
            <polygon points="0 0 28 0 28 28 0 28"></polygon>
            <path d="M23.9953441,19.178234 C23.8312451,22.309436 19.351024,24.5 14,24.5 C8.54801328,24.5 4,22.2259934 4,19 L4,19 L4,9 L4.00465588,8.82176595 C4.16875494,5.69056401 8.648976,3.5 14,3.5 C19.4519867,3.5 24,5.77400664 24,9 L24,9 L24,19 Z M22.0010963,12.3654957 C20.1646364,13.6958252 17.2421578,14.5 14,14.5 C10.7584396,14.5 7.83644066,13.6961216 5.99991901,12.3662311 L6,14 C6,15.7445694 9.51086122,17.5 14,17.5 C18.4891388,17.5 22,15.7445694 22,14 L22,14 Z M14,5.5 C9.51086122,5.5 6,7.25543061 6,9 C6,10.7445694 9.51086122,12.5 14,12.5 C18.4891388,12.5 22,10.7445694 22,9 C22,7.25543061 18.4891388,5.5 14,5.5 Z M22.0010963,17.3654957 C20.1646364,18.6958252 17.2421578,19.5 14,19.5 C10.7584396,19.5 7.83644066,18.6961216 5.99991901,17.3662311 L6,19 L6.00517348,19.1163013 C6.15652138,20.8217216 9.61061986,22.5 14,22.5 C18.4891388,22.5 22,20.7445694 22,19 L22,19 Z" id="↳-Icon-Color" fill="currentColor" fill-rule="nonzero"></path>
        </g>
    </g>
</svg>
