<svg xmlns="http://www.w3.org/2000/svg" width="28" height="28" fill="none" viewBox="0 0 28 28">
  <rect width="28" height="28" fill="url(#a)" rx="14"/>
  <path fill="#fff" d="M17.628 9c.825 0 1.124.086 1.426.247.301.161.538.398.699.7.161.3.247.6.247 1.425v4.256c0 .825-.086 1.124-.247 1.426a1.68 1.68 0 0 1-.7.699c-.3.161-.6.247-1.425.247H14.5l-2.342 2.678A.66.66 0 0 1 11 20.243V18h-.628c-.825 0-1.124-.086-1.426-.247a1.68 1.68 0 0 1-.699-.7c-.161-.3-.247-.6-.247-1.425v-4.256c0-.825.086-1.124.247-1.426.161-.301.398-.538.7-.699.3-.161.6-.247 1.425-.247h7.256Z"/>
  <defs>
    <linearGradient id="a" x1="-14" x2="14" y1="14" y2="42" gradientUnits="userSpaceOnUse">
      <stop stop-color="#70B2FF"/>
      <stop offset="1" stop-color="#5C9CE6"/>
    </linearGradient>
  </defs>
</svg>

