<?xml version="1.0" encoding="UTF-8"?>
<svg width="28px" height="28px" viewBox="0 0 28 28" version="1.1" xmlns="http://www.w3.org/2000/svg" xmlns:xlink="http://www.w3.org/1999/xlink">
    <!-- Generator: Sketch 63.1 (92452) - https://sketch.com -->
    <title>compass_outline_28</title>
    <desc>Created with Sketch.</desc>
    <g id="Page-1" stroke="none" stroke-width="1" fill="none" fill-rule="evenodd">
        <g id="compass_outline_28">
            <polygon points="0 0 28 0 28 28 0 28"></polygon>
            <path d="M14,2 C20.627417,2 26,7.372583 26,14 C26,20.627417 20.627417,26 14,26 C7.372583,26 2,20.627417 2,14 C2,7.372583 7.372583,2 14,2 Z M14,4 C8.4771525,4 4,8.4771525 4,14 C4,19.5228475 8.4771525,24 14,24 C19.5228475,24 24,19.5228475 24,14 C24,8.4771525 19.5228475,4 14,4 Z M18.9486833,10.3162278 L16.9486833,16.3162278 C16.8491483,16.6148328 16.6148328,16.8491483 16.3162278,16.9486833 L10.3162278,18.9486833 C9.53446974,19.2092693 8.79073069,18.4655303 9.0513167,17.6837722 L11.0513167,11.6837722 C11.1508517,11.3851672 11.3851672,11.1508517 11.6837722,11.0513167 L17.6837722,9.0513167 C18.4655303,8.79073069 19.2092693,9.53446974 18.9486833,10.3162278 Z M16.4188612,11.5811388 L12.7905694,12.7905694 L11.5811388,16.4188612 L15.2094306,15.2094306 L16.4188612,11.5811388 Z" id="↳-Icon-Color" fill="currentColor" fill-rule="nonzero"></path>
        </g>
    </g>
</svg>
