<svg xmlns="http://www.w3.org/2000/svg" width="28" height="28" fill="none" viewBox="0 0 28 28"><path fill="currentColor" d="M21 22c.5523 0 1-.4477 1-1s-.4477-1-1-1-1 .4477-1 1 .4477 1 1 1Z"/><path fill="currentColor" fill-rule="evenodd" d="M24 8.7587v2.4196c.1219.0392.2427.0879.362.1487a2.9994 2.9994 0 0 1 1.311 1.311c.1928.3784.2641.7716.2964 1.167.0306.3746.0306.8293.0306 1.3565v5.677c0 .5272 0 .982-.0306 1.3565-.0323.3954-.1036.7886-.2964 1.167a2.9994 2.9994 0 0 1-1.311 1.311c-.3784.1928-.7716.2641-1.167.2964C22.8205 25 22.3658 25 21.8387 25h-1.6772c-.5271 0-.982 0-1.3565-.0306-.3954-.0323-.7886-.1036-1.167-.2964a3.0008 3.0008 0 0 1-.8741-.673H6c-.5523 0-1-.4477-1-1s.4477-1 1-1h6v-3H7.7587c-.805 0-1.4693 0-2.0105-.0442-.5621-.0459-1.0788-.1445-1.5642-.3918a4.0002 4.0002 0 0 1-1.748-1.748c-.2473-.4854-.3459-1.0021-.3918-1.5642C2 14.7106 2 14.0463 2 13.2413V8.7587c0-.805 0-1.4693.0442-2.0105.046-.5621.1445-1.0788.3918-1.5642a4 4 0 0 1 1.748-1.748c.4854-.2473 1.002-.3459 1.5642-.3918C6.2894 3 6.9537 3 7.7587 3h10.4826c.805 0 1.4693 0 2.0105.0442.5621.046 1.0788.1445 1.5642.3918a4.0001 4.0001 0 0 1 1.748 1.748c.2473.4854.3459 1.002.3918 1.5642C24 7.2894 24 7.9537 24 8.7587ZM22 8.8V11h-1.8385c-.5272 0-.982 0-1.3565.0306-.3954.0323-.7886.1036-1.167.2964a2.9994 2.9994 0 0 0-1.311 1.311c-.1928.3784-.2641.7716-.2964 1.167C16 14.1795 16 14.6343 16 15.1615V17H7.8c-.8566 0-1.4389-.0008-1.889-.0375-.4384-.0359-.6626-.1008-.819-.1805a1.9997 1.9997 0 0 1-.874-.874c-.0797-.1564-.1446-.3806-.1804-.819C4.0008 14.6389 4 14.0566 4 13.2V8.8c0-.8566.0008-1.4389.0376-1.889.0358-.4384.1007-.6626.1804-.819a2 2 0 0 1 .874-.874c.1564-.0797.3806-.1446.819-.1804C6.3611 5.0008 6.9434 5 7.8 5h10.4c.8566 0 1.4389.0008 1.889.0376.4384.0358.6626.1007.819.1804.3763.1917.6823.4977.874.874.0797.1564.1446.3806.1804.819C21.9992 7.3611 22 7.9434 22 8.8ZM14 19h2v1.8385c0 .4389 0 .8275.0176 1.1615H14v-3Zm4.9678-5.9761c-.2716.0222-.3723.0599-.4218.0851a.9998.9998 0 0 0-.437.437c-.0252.0495-.0629.1502-.0851.4218-.0231.2834-.0239.6556-.0239 1.2322v5.6c0 .5766.0008.9488.0239 1.2322.0222.2716.0599.3723.0851.4218a.9998.9998 0 0 0 .437.437c.0495.0252.1502.0629.4218.0851.2834.0231.6556.0239 1.2322.0239h1.6c.5766 0 .9488-.0008 1.2322-.0239.2716-.0222.3723-.0599.4218-.0851a.9998.9998 0 0 0 .437-.437c.0252-.0495.0629-.1502.0851-.4218.0231-.2834.0239-.6556.0239-1.2322v-5.6c0-.5766-.0008-.9488-.0239-1.2322-.0222-.2716-.0599-.3723-.0851-.4218a.9998.9998 0 0 0-.437-.437c-.0495-.0252-.1502-.0629-.4218-.0851C22.7488 13.0008 22.3766 13 21.8 13h-1.6c-.5766 0-.9488.0008-1.2322.0239Z" clip-rule="evenodd"/></svg>
