<svg fill="none" height="28" viewBox="0 0 28 28" width="28" xmlns="http://www.w3.org/2000/svg"><g fill="currentColor"><path d="m7 2c.55228 0 1 .44772 1 1v13.1999c0 .8566.00078 1.4389.03755 1.889.03582.4385.10075.6627.18044.8191.19174.3763.4977.6823.87403.874.1564.0797.3806.1446.81902.1804.45006.0368 1.03236.0376 1.88896.0376h13.2c.5523 0 1 .4477 1 1s-.4477 1-1 1h-3v3c0 .5523-.4477 1-1 1s-1-.4477-1-1v-3h-8.2413c-.805 0-1.4693 0-2.01053-.0442-.56209-.0459-1.0788-.1445-1.56413-.3918-.75265-.3835-1.36457-.9954-1.74807-1.748-.24729-.4854-.34585-1.0021-.39178-1.5642-.04421-.5412-.0442-1.2056-.04419-2.0106v-8.241l-3-.0002c-.55228 0-1-.44772-1-1s.44772-1 1-1h3v-3c0-.55228.44772-1 1-1z"/><path d="m10 7c0-.55228.4477-1 1-1h7c2.2091 0 4 1.79086 4 4v7c0 .5523-.4477 1-1 1s-1-.4477-1-1v-7c0-1.10457-.8954-2-2-2h-7c-.5523 0-1-.44771-1-1z"/></g></svg>
