<svg xmlns="http://www.w3.org/2000/svg" width="28" height="28" fill="none" viewBox="0 0 28 28"><path fill="currentColor" fill-rule="evenodd" d="M16.7338 5.7704c-1.0633-2.3526-4.4042-2.3526-5.4675 0L9.535 9.6009 6.4806 7.9144c-2.3227-1.2824-5.0445.86-4.3435 3.4188L4 18.1345v1.704c0 .5272 0 .982.0306 1.3565.0323.3954.1036.7886.2964 1.167a2.9997 2.9997 0 0 0 1.311 1.311c.3784.1928.7716.2641 1.167.2964C7.1795 24 7.6343 24 8.1615 24h11.677c.5272 0 .982 0 1.3565-.0306.3954-.0323.7886-.1036 1.167-.2964a2.9994 2.9994 0 0 0 1.311-1.311c.1928-.3784.2641-.7716.2964-1.167C24 20.8205 24 20.3657 24 19.8386v-1.7041l1.863-6.8013c.7009-2.5588-2.0209-4.7012-4.3435-3.4188L18.465 9.601l-1.7312-3.8305ZM22 19H6v.8c0 .5766.0008.9488.024 1.2322.0221.2716.0598.3723.085.4218a.9999.9999 0 0 0 .437.437c.0494.0252.1502.0629.4218.0851.2834.0231.6556.0239 1.2322.0239h11.6c.5765 0 .9488-.0008 1.2322-.0239.2716-.0222.3723-.0599.4218-.0851a1.0003 1.0003 0 0 0 .437-.437c.0252-.0495.0629-.1502.0851-.4218.0231-.2834.0239-.6556.0239-1.2322V19ZM13.0888 6.5941c.3544-.7842 1.468-.7842 1.8225 0l2.1775 4.8178a.9998.9998 0 0 0 1.3946.4635l4.0028-2.2101c.7742-.4275 1.6815.2866 1.4478 1.1396L22.2371 17H5.7629L4.066 10.8049c-.2336-.853.6736-1.5671 1.4478-1.1396l4.0028 2.2101a.9997.9997 0 0 0 1.3946-.4635l2.1776-4.8178Z" clip-rule="evenodd"/></svg>
