<svg xmlns="http://www.w3.org/2000/svg" width="28" height="28" fill="currentColor" viewBox="0 0 28 28"><path d="M24.261 7.81a1 1 0 0 1 1.18-.17h.05c.38.21.59.65.5 1.08L24.278 17H3.734L2.021 8.72c-.09-.43.11-.87.5-1.08a1 1 0 0 1 1.18.17l.15.15c.077.077.189.177.327.3l.133.12c.4.35.95.81 1.57 1.25.62.45 1.29.86 1.92 1.12.65.28 1.15.35 1.49.28.27-.06.67-.32 1.17-.95.47-.6.92-1.39 1.31-2.2.38-.81.7-1.6.92-2.2.077-.202.139-.384.19-.533l.06-.177c.013-.057.03-.106.043-.144A.707.707 0 0 0 13 4.77c.02-.02.02-.04.02-.05v-.01c.13-.42.52-.71.96-.71.44 0 .83.29.96.71v.01c.01.01.02.03.02.05.01.05.03.11.06.2l.062.178A24.848 24.848 0 0 0 16.19 7.88c.39.82.84 1.6 1.31 2.2.5.63.9.9 1.17.95.34.07.84-.01 1.49-.28.63-.27 1.3-.67 1.92-1.12a20.017 20.017 0 0 0 1.902-1.552l.128-.118.15-.15ZM4.148 19l.213 1.03a5.009 5.009 0 0 0 4.9 3.99h9.49c2.37 0 4.42-1.67 4.9-3.99l.213-1.03H4.148Z"/></svg>
