<svg xmlns="http://www.w3.org/2000/svg" width="28" height="28" fill="currentColor" viewBox="0 0 28 28"><path d="M14.947 4.851V4.85s-.247-.705-.95-.705c-.704 0-.956.705-.956.705v.002l-.004.012-.017.053a24.65 24.65 0 0 1-1.353 3.297c-.43.846-.918 1.636-1.43 2.2-.53.583-.95.779-1.251.779-1.07 0-2.284-.679-3.332-1.512a13.776 13.776 0 0 1-1.648-1.56l-.02-.022-.003-.004s-.513-.639-1.205-.288c-.693.35-.522 1.208-.522 1.208l1.547 7.772h20.381l1.548-7.772s.21-.83-.471-1.197c-.682-.368-1.256.277-1.256.277L24 8.098l-.02.022a12.239 12.239 0 0 1-.426.456c-.297.303-.72.704-1.222 1.104-1.047.833-2.26 1.512-3.331 1.512-.302 0-.722-.196-1.252-.78-.512-.563-1-1.353-1.43-2.199a23.286 23.286 0 0 1-1.01-2.32 24.389 24.389 0 0 1-.343-.977l-.016-.053-.004-.012Zm8.817 14.047H4.224l.35 1.76.013.057c.174.686.462 1.307.954 1.826 1.118 1.18 2.736 1.29 4.75 1.316h7.406c2.014-.027 3.631-.137 4.75-1.316.493-.52.778-1.142.953-1.824l.013-.058.351-1.761Z"/></svg>
