<svg xmlns="http://www.w3.org/2000/svg" width="28" height="28" fill="currentColor" viewBox="0 0 28 28"><path d="M2.293 4.293a1 1 0 0 1 1.414 0l19.62 19.62a1 1 0 0 1-1.414 1.414l-1.331-1.33c-.225.003-.47.003-.731.003H8.149c-.528 0-.984 0-1.359-.03-.396-.033-.79-.104-1.169-.297a3.006 3.006 0 0 1-1.314-1.312c-.193-.378-.265-.771-.297-1.167-.03-.374-.03-.83-.03-1.357v-1.704l-1.868-6.804c-.476-1.736.626-3.28 2.11-3.693L2.293 5.707a1 1 0 0 1 0-1.414Zm3.69 15.506c0 .576 0 .949.024 1.232.022.272.06.373.086.422.096.188.249.342.437.438.05.025.151.062.423.085.284.023.657.023 1.234.023h10.398l-3.001-3h-9.6v.8Zm5.273-13.99c1.044-2.403 4.45-2.407 5.5-.006l1.695 3.88 2.963-1.761c2.313-1.376 5.128.755 4.432 3.354l-2.157 8.051a1 1 0 0 1-1.932-.517l2.156-8.051c.232-.867-.706-1.577-1.477-1.118l-3.74 2.225a1.2 1.2 0 0 1-1.714-.55l-2.058-4.712c-.35-.8-1.486-.799-1.834.002l-.938 2.158a1 1 0 0 1-1.834-.797l.938-2.157Zm-5.76 3.852c-.776-.427-1.685.287-1.451 1.14l1.701 6.197h7.838l-6.415-6.415-1.673-.922Z"/></svg>