<?xml version="1.0" encoding="UTF-8"?>
<svg width="28px" height="28px" viewBox="0 0 28 28" version="1.1" xmlns="http://www.w3.org/2000/svg" xmlns:xlink="http://www.w3.org/1999/xlink">
    <!-- Generator: Sketch 63.1 (92452) - https://sketch.com -->
    <title>cube_box_outline_28</title>
    <desc>Created with Sketch.</desc>
    <g id="Page-1" stroke="none" stroke-width="1" fill="none" fill-rule="evenodd">
        <g id="cube_box_outline_28" fill-rule="nonzero">
            <rect opacity="0.2164016" x="0" y="0" width="28" height="28"></rect>
            <path d="M13.5065432,1.54463201 C13.8378912,1.48512266 14.1621088,1.48512266 14.4934568,1.54463201 C14.8235847,1.60392222 15.091507,1.69869437 15.6268275,1.94202187 L15.6268275,1.94202187 L24.2078156,5.842471 C24.734626,6.08193028 24.999618,6.24601199 25.2624241,6.50218444 C25.5213185,6.75454389 25.7132108,7.05255339 25.8358191,7.39266925 C25.96028,7.73792405 26,8.04706134 26,8.62574084 L26,8.62574084 L26,18.9762862 C26,19.5549657 25.96028,19.864103 25.8358191,20.2093578 C25.7132108,20.5494737 25.5213185,20.8474832 25.2624241,21.0998426 C24.999618,21.3560151 24.734626,21.5200968 24.2078156,21.7595561 L24.2078156,21.7595561 L15.4379729,25.7445103 C15.0235545,25.9264713 14.7823187,26.0055161 14.4934568,26.0573951 C14.1621088,26.1169044 13.8378912,26.1169044 13.5065432,26.0573951 C13.1764153,25.9981048 12.908493,25.9033327 12.3731725,25.6600052 L12.3731725,25.6600052 L3.79218438,21.7595561 C3.26537397,21.5200968 3.00038201,21.3560151 2.73757588,21.0998426 C2.47868149,20.8474832 2.28678922,20.5494737 2.1641809,20.2093578 C2.03972004,19.864103 2,19.5549657 2,18.9762862 L2,18.9762862 L2.00194981,8.42077382 C2.01125409,7.96921268 2.05527765,7.6947672 2.1641809,7.39266925 C2.28678922,7.05255339 2.47868149,6.75454389 2.73757588,6.50218444 C3.00038201,6.24601199 3.26537397,6.08193028 3.79218438,5.842471 L3.79218438,5.842471 L12.5620271,1.85751674 C12.9764455,1.67555573 13.2176813,1.59651095 13.5065432,1.54463201 Z M4,8.854 L4.00042928,19.0853042 C4.00216919,19.2858771 4.0093338,19.3856791 4.0243828,19.4568379 L4.0243828,19.4568379 L4.04566181,19.531103 C4.06559893,19.5864087 4.0915003,19.6266336 4.13359867,19.6676693 C4.20439356,19.7366772 4.28534851,19.7868041 4.61979027,19.9388231 L4.61979027,19.9388231 L13,23.748 L12.9998817,12.9324939 C12.9859187,12.9275557 12.9719834,12.9225109 12.958077,12.9173596 L12.7585912,12.8351955 L4,8.854 Z M24,8.853 L15.2414088,12.8351955 C15.1624018,12.8711078 15.082226,12.903423 15.0011156,12.932141 L15,23.748 L23.3802097,19.9388231 C23.595208,19.8410966 23.705449,19.7854786 23.7755774,19.7398832 L23.8075982,19.7177721 L23.8664013,19.6676693 C23.9084997,19.6266336 23.9344011,19.5864087 23.9543382,19.531103 C23.9878655,19.438098 24,19.3436567 24,18.9762862 L24,18.9762862 L24,8.853 Z M8.5,5.899 L5.416,7.301 L13.5861971,11.0144626 C13.8115613,11.1169009 14.0654544,11.1315349 14.2989698,11.0583647 L14.4138029,11.0144626 L17.083,9.801 L8.5,5.899 Z M14.1399179,3.51313657 C14.0423919,3.49562114 13.9576081,3.49562114 13.8600821,3.51313657 C13.7243367,3.53751615 13.5979437,3.58222514 13.2007784,3.76275483 L13.2007784,3.76275483 L10.916,4.8 L19.5,8.702 L22.583,7.301 L14.7992216,3.76275483 C14.5344448,3.6424017 14.3900111,3.58241333 14.2829208,3.54857007 L14.2321033,3.53366878 Z" id="↳-Icon-Color" fill="currentColor"></path>
        </g>
    </g>
</svg>
