<svg xmlns="http://www.w3.org/2000/svg" width="28" height="28" fill="currentColor" viewBox="0 0 28 28"><path fill-rule="evenodd" d="M11.708 5a2.5 2.5 0 0 1 4.584 0h-4.584ZM9.612 5H3.5a1 1 0 0 0 0 2h1.096l1.298 12.823c.073.73.135 1.334.223 1.826.093.513.228.98.49 1.414a4 4 0 0 0 1.719 1.554c.458.216.936.303 1.456.344.498.039 1.106.039 1.84.039H12a1 1 0 0 0 0-2h-.34c-.782 0-1.311 0-1.723-.033-.399-.031-.607-.087-.758-.158a2 2 0 0 1-.86-.778c-.085-.142-.162-.344-.233-.738-.074-.406-.128-.932-.207-1.71L6.606 7h14.788l-.43 4.243a1 1 0 0 0 1.99.201L23.404 7H24.5a1 1 0 1 0 0-2h-6.112a4.502 4.502 0 0 0-8.776 0ZM20 26a6 6 0 1 0 0-12 6 6 0 0 0 0 12Zm0-9.25a.75.75 0 0 1 .75.75v3.19l.97-.97a.75.75 0 1 1 1.06 1.06l-2.25 2.25a.75.75 0 0 1-1.06 0l-2.25-2.25a.75.75 0 1 1 1.06-1.06l.97.97V17.5a.75.75 0 0 1 .75-.75Zm-9.998-6.194a1 1 0 0 1 1.996-.111l.5 9a1 1 0 1 1-1.996.11l-.5-9Zm7.053-1.054A1 1 0 0 1 18 10.555l-.094 1.688a1 1 0 0 1-1.997-.11l.094-1.688a1 1 0 0 1 1.053-.943Z" clip-rule="evenodd"/></svg>
