<svg xmlns="http://www.w3.org/2000/svg" width="28" height="28" viewBox="0 0 28 28" fill="currentColor"><path fill-rule="evenodd" d="M20.528 8c.289 0 .57-.002.803.018.243.02.535.07.822.227.394.216.704.56.88.974.127.302.147.597.143.842-.003.234-.032.512-.061.8l-1.004 9.922c-.076.747-.138 1.365-.229 1.865-.092.513-.227.98-.488 1.414a4 4 0 0 1-1.72 1.554c-.457.216-.936.303-1.456.344-.507.04-1.127.04-1.878.04h-4.68c-.75 0-1.371 0-1.878-.04-.52-.04-.999-.128-1.456-.344a4 4 0 0 1-1.72-1.554c-.26-.434-.396-.901-.488-1.414-.09-.5-.152-1.118-.228-1.865L4.886 10.86c-.029-.287-.058-.565-.062-.8-.004-.244.015-.54.143-.841.176-.414.486-.758.88-.974.287-.157.58-.207.823-.227.234-.02.514-.019.803-.019zm-10.084 3.5a1 1 0 0 0-.943 1.054l.5 9a1 1 0 0 0 1.997-.112l-.5-9a1 1 0 0 0-1.054-.942m7.111 0a1 1 0 0 0-1.053.942l-.5 9a1 1 0 0 0 1.996.112l.5-9a1 1 0 0 0-.943-1.054" clip-rule="evenodd"/><path d="M16 2.001c1.018 0 1.856.761 1.981 1.746h5.517a1.25 1.25 0 0 1 0 2.5H4.502a1.25 1.25 0 0 1 0-2.5h5.517A2 2 0 0 1 12 2.001z"/></svg>