<svg xmlns="http://www.w3.org/2000/svg" width="28" height="28" fill="currentColor" viewBox="0 0 28 28"><path fill-rule="evenodd" d="M19.251 4c1.133 0 2.207.506 2.93 1.379l3.651 4.418a2.4 2.4 0 0 1-.053 3.12l-9.983 11.27a2.4 2.4 0 0 1-3.592 0L2.22 12.918a2.4 2.4 0 0 1-.054-3.12L5.82 5.379A3.8 3.8 0 0 1 8.749 4H19.25Zm-9.833 7.912 4.583 9.506 4.58-9.506H9.418Zm-5.416 0 7.011 7.915L7.2 11.912H4.002Zm16.801 0-3.813 7.91 7.008-7.91h-3.195ZM8.75 6a1.8 1.8 0 0 0-1.387.653l-2.695 3.26h3.029L9.486 6H8.75Zm1.146 3.912h8.21L16.316 6h-4.629L9.895 9.912Zm10.41 0h3.027l-2.694-3.259A1.8 1.8 0 0 0 19.251 6h-.737l1.791 3.912Z" clip-rule="evenodd"/></svg>