<svg xmlns="http://www.w3.org/2000/svg" width="28" height="28" fill="currentColor" viewBox="0 0 28 28"><path d="m18.831 12.406-4.31 11.07c-.175.45-.831.449-1.006 0l-4.31-11.07h9.626Zm6.477 0c.46 0 .711.522.408.86A2818.82 2818.82 0 0 1 16.04 24l4.516-11.594h4.752Zm-17.827 0 4.47 11.48a2927.876 2927.876 0 0 1-9.626-10.62c-.304-.337-.054-.86.408-.86H7.48ZM19.77 4a2.18 2.18 0 0 1 1.635.73c1.118 1.268 3.338 3.908 4.475 5.266.285.34.034.847-.418.847H20.53L17.675 4h2.094Zm-9.406 0-2.856 6.843H2.54c-.45 0-.7-.5-.422-.842 1.103-1.352 3.26-3.984 4.349-5.25A2.178 2.178 0 0 1 8.118 4h2.245Zm5.573 0 2.855 6.843H9.246L12.103 4h3.833Z"/></svg>
