<svg width="28" height="28" viewBox="0 0 28 28" fill="none" xmlns="http://www.w3.org/2000/svg">
<path fill-rule="evenodd" clip-rule="evenodd" d="M12.5999 5H15.3999C17.113 5 18.2776 5.00156 19.1778 5.0751C20.0546 5.14674 20.503 5.27659 20.8158 5.43597C21.5685 5.81947 22.1804 6.43139 22.5639 7.18404C22.7233 7.49684 22.8531 7.94525 22.9248 8.82208C22.9983 9.72226 22.9999 10.8868 22.9999 12.6V15.4C22.9999 17.1132 22.9983 18.2777 22.9248 19.1779C22.8531 20.0548 22.7233 20.5032 22.5639 20.816C22.1804 21.5686 21.5685 22.1805 20.8158 22.564C20.503 22.7234 20.0546 22.8533 19.1778 22.9249C18.2776 22.9984 17.113 23 15.3999 23H12.5999C10.8867 23 9.72213 22.9984 8.82195 22.9249C7.94512 22.8533 7.49672 22.7234 7.18392 22.564C6.43127 22.1805 5.81935 21.5686 5.43585 20.816C5.27647 20.5032 5.14662 20.0548 5.07498 19.1779C5.00143 18.2777 4.99988 17.1132 4.99988 15.4V12.6C4.99988 10.8868 5.00143 9.72226 5.07498 8.82208C5.14662 7.94525 5.27647 7.49684 5.43585 7.18404C5.81935 6.43139 6.43127 5.81947 7.18392 5.43597C7.49672 5.27659 7.94512 5.14674 8.82195 5.0751C9.72213 5.00156 10.8867 5 12.5999 5ZM2.99988 12.6C2.99988 9.23969 2.99988 7.55953 3.65384 6.27606C4.22908 5.14709 5.14696 4.2292 6.27594 3.65396C7.55941 3 9.23956 3 12.5999 3H15.3999C18.7602 3 20.4403 3 21.7238 3.65396C22.8528 4.2292 23.7707 5.14709 24.3459 6.27606C24.9999 7.55953 24.9999 9.23969 24.9999 12.6V15.4C24.9999 18.7603 24.9999 20.4405 24.3459 21.7239C23.7707 22.8529 22.8528 23.7708 21.7238 24.346C20.4403 25 18.7602 25 15.3999 25H12.5999C9.23956 25 7.55941 25 6.27594 24.346C5.14696 23.7708 4.22908 22.8529 3.65384 21.7239C2.99988 20.4405 2.99988 18.7603 2.99988 15.4V12.6ZM9.25 20.5C10.2165 20.5 11 19.7165 11 18.75C11 17.7835 10.2165 17 9.25 17C8.2835 17 7.5 17.7835 7.5 18.75C7.5 19.7165 8.2835 20.5 9.25 20.5ZM11 9.25C11 10.2165 10.2165 11 9.25 11C8.2835 11 7.5 10.2165 7.5 9.25C7.5 8.2835 8.2835 7.5 9.25 7.5C10.2165 7.5 11 8.2835 11 9.25ZM14 15.75C14.9665 15.75 15.75 14.9665 15.75 14C15.75 13.0335 14.9665 12.25 14 12.25C13.0335 12.25 12.25 13.0335 12.25 14C12.25 14.9665 13.0335 15.75 14 15.75ZM20.4999 9.25C20.4999 10.2165 19.7164 11 18.7499 11C17.7834 11 16.9999 10.2165 16.9999 9.25C16.9999 8.2835 17.7834 7.5 18.7499 7.5C19.7164 7.5 20.4999 8.2835 20.4999 9.25ZM18.7499 20.5C19.7164 20.5 20.4999 19.7165 20.4999 18.75C20.4999 17.7835 19.7164 17 18.7499 17C17.7834 17 16.9999 17.7835 16.9999 18.75C16.9999 19.7165 17.7834 20.5 18.7499 20.5Z" fill="currentColor"/>
</svg>
