<svg width="28" height="28" viewBox="0 0 28 28" fill="none" xmlns="http://www.w3.org/2000/svg">
<path fill-rule="evenodd" clip-rule="evenodd" d="M15.3999 5H12.5999C10.8868 5 9.72219 5.00156 8.82202 5.0751C7.94518 5.14674 7.49678 5.27659 7.18398 5.43597C6.43133 5.81947 5.81941 6.43139 5.43591 7.18404C5.27653 7.49684 5.14668 7.94525 5.07504 8.82208C5.00149 9.72226 4.99994 10.8868 4.99994 12.6V15.4C4.99994 17.1132 5.00149 18.2777 5.07504 19.1779C5.14668 20.0548 5.27653 20.5032 5.43591 20.816C5.81941 21.5686 6.43133 22.1805 7.18398 22.564C7.49678 22.7234 7.94518 22.8533 8.82202 22.9249C9.72219 22.9984 10.8868 23 12.5999 23H15.3999C17.1131 23 18.2777 22.9984 19.1779 22.9249C20.0547 22.8533 20.5031 22.7234 20.8159 22.564C21.5685 22.1805 22.1805 21.5686 22.564 20.816C22.7233 20.5032 22.8532 20.0548 22.9248 19.1779C22.9984 18.2777 22.9999 17.1132 22.9999 15.4V12.6C22.9999 10.8868 22.9984 9.72226 22.9248 8.82208C22.8532 7.94525 22.7233 7.49684 22.564 7.18404C22.1805 6.43139 21.5685 5.81947 20.8159 5.43597C20.5031 5.27659 20.0547 5.14674 19.1779 5.0751C18.2777 5.00156 17.1131 5 15.3999 5ZM3.6539 6.27606C2.99994 7.55953 2.99994 9.23969 2.99994 12.6V15.4C2.99994 18.7603 2.99994 20.4405 3.6539 21.7239C4.22914 22.8529 5.14702 23.7708 6.276 24.346C7.55947 25 9.23962 25 12.5999 25H15.3999C18.7603 25 20.4404 25 21.7239 24.346C22.8529 23.7708 23.7707 22.8529 24.346 21.7239C24.9999 20.4405 24.9999 18.7603 24.9999 15.4V12.6C24.9999 9.23969 24.9999 7.55953 24.346 6.27606C23.7707 5.14709 22.8529 4.2292 21.7239 3.65396C20.4404 3 18.7603 3 15.3999 3H12.5999C9.23962 3 7.55947 3 6.276 3.65396C5.14702 4.2292 4.22914 5.14709 3.6539 6.27606ZM11 18.75C11 19.7165 10.2165 20.5 9.25 20.5C8.2835 20.5 7.5 19.7165 7.5 18.75C7.5 17.7835 8.2835 17 9.25 17C10.2165 17 11 17.7835 11 18.75ZM9.25 11C10.2165 11 11 10.2165 11 9.25C11 8.2835 10.2165 7.5 9.25 7.5C8.2835 7.5 7.5 8.2835 7.5 9.25C7.5 10.2165 8.2835 11 9.25 11ZM20.5 9.25C20.5 10.2165 19.7165 11 18.75 11C17.7835 11 17 10.2165 17 9.25C17 8.2835 17.7835 7.5 18.75 7.5C19.7165 7.5 20.5 8.2835 20.5 9.25ZM18.75 20.5C19.7165 20.5 20.5 19.7165 20.5 18.75C20.5 17.7835 19.7165 17 18.75 17C17.7835 17 17 17.7835 17 18.75C17 19.7165 17.7835 20.5 18.75 20.5Z" fill="currentColor"/>
</svg>
