<svg fill="none" height="28" viewBox="0 0 28 28" width="28" xmlns="http://www.w3.org/2000/svg" xmlns:xlink="http://www.w3.org/1999/xlink"><linearGradient id="a" gradientUnits="userSpaceOnUse" x1="-14" x2="14" y1="14" y2="42"><stop offset="0" stop-color="#50c750"/><stop offset="1" stop-color="#32b332"/></linearGradient><path d="m0 14c0-7.73199 6.26801-14 14-14 7.732 0 14 6.26801 14 14 0 7.732-6.268 14-14 14-7.73199 0-14-6.268-14-14z" fill="url(#a)"/><path d="m20.3976 12c.5572 0 .7592.058.9629.167.2037.1089.3636.2688.4725.4725.0969.181.1535.3608.1649.7899l.0021.173v3.7952c0 .5572-.058.7592-.167.9629-.1089.2037-.2688.3636-.4725.4725-.181.0969-.3608.1535-.7899.1649l-.173.0021h-.3976v1.4256c0 .1692-.0751.3296-.2051.4379-.215.1792-.5228.1732-.7301-.0001l-.0727-.0729-1.4921-1.7905h-2.8976c-.5572 0-.7592-.058-.9629-.167-.2037-.1089-.3636-.2688-.4725-.4725-.0969-.181-.1535-.3608-.1649-.7899l-.0021-.173.0026-.3983c1.3217-.0115 1.8263-.1614 2.3348-.4334.5296-.2832.9453-.6989 1.2285-1.2285.2666-.4985.4159-.9932.4325-2.2575l.0016-.2462v-.8337zm-7-4c.5572 0 .7592.05802.9629.16696s.3636.26881.4725.47251c.109.2037.167.40576.167.96296v3.79517c0 .5572-.058.7592-.167.9629-.1089.2037-.2688.3636-.4725.4725-.2037.109-.4057.167-.9629.167h-2.8976l-1.49211 1.7905c-.20154.2419-.56096.2745-.80279.073-.12996-.1083-.2051-.2687-.2051-.4379v-1.4256h-.39757c-.5572 0-.75925-.058-.96296-.167-.2037-.1089-.36357-.2688-.47251-.4725s-.16696-.4057-.16696-.9629v-3.79517c0-.5572.05802-.75926.16696-.96296s.26881-.36357.47251-.47251c.20371-.10894.40576-.16696.96296-.16696z" fill="#fff"/></svg>
