<svg xmlns="http://www.w3.org/2000/svg" width="28" height="28" fill="currentColor" viewBox="0 0 28 28"><path fill-rule="evenodd" d="M11.692 2c-2.448 0-3.527.216-4.623.801A5.466 5.466 0 0 0 4.801 5.07C4.216 6.165 4 7.244 4 9.692v8.616c0 2.448.216 3.527.801 4.622A5.465 5.465 0 0 0 7.07 25.2c1.096.585 2.175.801 4.623.801h4.616c2.448 0 3.527-.216 4.622-.801a5.465 5.465 0 0 0 2.269-2.27c.585-1.095.801-2.174.801-4.622v-5.95c0-.796-.028-1.154-.122-1.563a3.614 3.614 0 0 0-.465-1.124c-.223-.356-.457-.63-1.02-1.192L17.52 3.607c-.563-.563-.836-.797-1.192-1.02a3.612 3.612 0 0 0-1.124-.465c-.342-.079-.648-.111-1.205-.12V2h-2.308Zm0 2c-2.335 0-3.019.212-3.68.565a3.466 3.466 0 0 0-1.447 1.448C6.212 6.673 6 7.357 6 9.692v8.616c0 2.335.212 3.019.565 3.68a3.466 3.466 0 0 0 1.448 1.447c.66.353 1.344.565 3.679.565h4.616c2.335 0 3.019-.212 3.68-.565a3.467 3.467 0 0 0 1.447-1.448c.353-.66.565-1.344.565-3.679v-5.95c0-.136 0-.255-.002-.358H16.5A2.5 2.5 0 0 1 14 9.5l.002-5.498-.176-.001L11.692 4Zm4.415 1.021L16 4.915V9.5a.5.5 0 0 0 .41.492l.09.008 4.587.002a25.43 25.43 0 0 0-.108-.11l-4.872-4.87ZM10 21a1 1 0 0 1-1-1v-6a1 1 0 1 1 2 0v6a1 1 0 0 1-1 1Zm3-1a1 1 0 1 0 2 0v-3a1 1 0 1 0-2 0v3Z" clip-rule="evenodd"/></svg>
