<svg xmlns="http://www.w3.org/2000/svg" width="28" height="28" fill="currentColor" viewBox="0 0 28 28"><path fill-rule="evenodd" d="M11.692 2c-2.448 0-3.527.216-4.623.801A5.466 5.466 0 0 0 4.801 5.07C4.216 6.165 4 7.244 4 9.692v8.616c0 2.448.216 3.527.801 4.622A5.465 5.465 0 0 0 7.07 25.2c1.096.585 2.175.801 4.623.801H13a1 1 0 0 0 0-2h-1.308c-2.335 0-3.019-.212-3.68-.565a3.466 3.466 0 0 1-1.447-1.448C6.212 21.327 6 20.643 6 18.308V9.692c0-2.335.212-3.019.565-3.68a3.466 3.466 0 0 1 1.448-1.447C8.673 4.212 9.357 4 11.692 4h2.134l.175.002L14 9.5a2.5 2.5 0 0 0 2.5 2.5h5.498l.002.359v2.637a1 1 0 1 0 2 0V12.36c0-.797-.028-1.155-.122-1.564a3.614 3.614 0 0 0-.465-1.124c-.223-.356-.457-.63-1.02-1.192L17.52 3.607c-.563-.563-.836-.797-1.192-1.02a3.612 3.612 0 0 0-1.124-.465c-.342-.079-.648-.111-1.205-.12V2h-2.308Zm4.415 3.021L16 4.915V9.5a.5.5 0 0 0 .41.492l.09.008 4.587.002a25.43 25.43 0 0 0-.108-.11l-2.436-2.435-2.436-2.436ZM20 17a1 1 0 0 1 1 1v3h3a1 1 0 1 1 0 2h-3v3a1 1 0 1 1-2 0v-3h-3a1 1 0 1 1 0-2h3v-3a1 1 0 0 1 1-1Z" clip-rule="evenodd"/></svg>
