<svg xmlns="http://www.w3.org/2000/svg" width="28" height="28" fill="none" viewBox="0 0 28 28"><circle cx="14" cy="14" r="14" fill="url(#a)"/><path fill="#fff" fill-rule="evenodd" d="M11.098 5.642c1.588-.897 3.48-.772 5.22.055 1.737.826 3.382 2.37 4.604 4.44 1.224 2.075 1.768 4.24 1.63 6.127-.137 1.888-.972 3.553-2.56 4.45a5 5 0 0 1-.384.192l-2.657 1.502c-1.532.866-3.46.77-5.244-.007-1.793-.783-3.519-2.28-4.75-4.369-1.23-2.085-1.69-4.296-1.486-6.207.203-1.902 1.082-3.585 2.614-4.452l1.825-1.03.567-.32.21-.117.007-.005q.193-.139.404-.26m-.634 14.19c.6.498 1.23.887 1.858 1.161 1.416.618 2.748.63 3.724.134a7.3 7.3 0 0 1-1.272-.469c-.898-.426-1.77-1.046-2.572-1.83zm-2.913-4.136a10.1 10.1 0 0 0 1.768 3l1.823-1.053a13.2 13.2 0 0 1-1.766-3zm8.084-7.418c-1.037-.625-2.24-.912-3.198-.37a.633.633 0 0 0-.233.875.66.66 0 0 0 .89.24c.348-.196.994-.182 1.873.347.848.511 1.768 1.43 2.513 2.692s1.1 2.51 1.128 3.492c.03 1.02-.281 1.578-.626 1.773a.633.633 0 0 0-.233.876.66.66 0 0 0 .89.24c.961-.542 1.306-1.715 1.27-2.91-.036-1.233-.47-2.688-1.306-4.106-.835-1.415-1.9-2.506-2.968-3.15m-6.877.507c-.923.582-1.573 1.716-1.734 3.221a7.5 7.5 0 0 0 .094 2.143l1.742-1.006c-.284-1.057-.392-2.09-.322-3.052a7 7 0 0 1 .22-1.306" clip-rule="evenodd"/><defs><linearGradient id="a" x1="-14" x2="14" y1="14" y2="42" gradientUnits="userSpaceOnUse"><stop stop-color="#ffc460"/><stop offset="1" stop-color="#fd9f00"/></linearGradient></defs></svg>