<svg xmlns="http://www.w3.org/2000/svg" width="28" height="28" viewBox="0 0 28 28" fill="currentColor"><path d="M11.833 5.702c1.327-.742 2.99-.348 4.42.505 1.473.879 2.943 2.369 4.094 4.3 1.153 1.936 1.75 3.924 1.8 5.608.05 1.632-.424 3.237-1.754 3.982a.93.93 0 0 1-1.246-.334.87.87 0 0 1 .324-1.213c.469-.263.899-1.017.857-2.407-.04-1.337-.528-3.035-1.553-4.756-1.025-1.72-2.29-2.97-3.455-3.665-1.21-.722-2.093-.737-2.565-.473a.93.93 0 0 1-1.247-.334.87.87 0 0 1 .325-1.213"/><path fill-rule="evenodd" d="M10.078 2.763c2.13-1.192 4.677-1.033 7.037.079 2.359 1.11 4.598 3.191 6.268 5.994 1.671 2.805 2.412 5.726 2.226 8.26-.187 2.538-1.318 4.755-3.448 5.946a6 6 0 0 1-.606.297l.004.006-3.581 2.003c-2.053 1.148-4.652 1.029-7.077-.019-2.435-1.053-4.786-3.07-6.466-5.89-1.679-2.818-2.306-5.798-2.029-8.368.277-2.558 1.468-4.798 3.52-5.947.964-.539 1.86-1.04 2.516-1.405l.78-.436.288-.162q.27-.193.568-.358M8.844 21.949c.891.76 1.834 1.348 2.775 1.755 2.061.89 4.022.889 5.437.097l.205-.115a9.8 9.8 0 0 1-2.133-.725c-1.251-.59-2.468-1.454-3.586-2.554zm7.499-17.507C14.375 3.516 12.484 3.48 11 4.31c-1.48.83-2.393 2.433-2.549 4.548-.156 2.117.46 4.68 1.977 7.226 1.518 2.549 3.502 4.35 5.473 5.277 1.968.927 3.858.964 5.34.135 1.483-.83 2.395-2.435 2.551-4.55.156-2.117-.462-4.682-1.98-7.23-1.517-2.546-3.5-4.345-5.47-5.273M4.906 16.262a14 14 0 0 0 1.1 2.297c.456.765.964 1.458 1.508 2.078l2.79-1.597a17.8 17.8 0 0 1-2.599-4.376zm1.944-9.59c-1.415.792-2.396 2.436-2.631 4.61-.107.992-.053 2.075.179 3.2l2.71-1.549c-.412-1.466-.57-2.9-.472-4.227a9 9 0 0 1 .417-2.148z" clip-rule="evenodd"/></svg>