<svg fill="none" height="28" viewBox="0 0 28 28" width="28" xmlns="http://www.w3.org/2000/svg"><path clip-rule="evenodd" d="m17.6428 25h-2.6428c-.5523 0-1-.4477-1-1s.4477-1 1-1h2.6c1.1366 0 1.9289-.0008 2.5458-.0512.6051-.0494.9528-.1416 1.2162-.2758.5645-.2876 1.0234-.7465 1.311-1.311.1342-.2634.2264-.6111.2758-1.2162.0504-.6169.0512-1.4092.0512-2.5458v-7.2c0-1.13661-.0008-1.92892-.0512-2.54576-.0494-.60517-.1416-.95286-.2758-1.21621-.2876-.56449-.7465-1.02343-1.311-1.31105-.2634-.13418-.6111-.22636-1.2162-.2758-.6169-.0504-1.4092-.05118-2.5458-.05118h-2.6c-.5523 0-1-.44772-1-1s.4477-1 1-1h2.6428.0001c1.0838-.00001 1.9579-.00002 2.6657.05782.7289.05955 1.3691.18536 1.9614.48715.9408.47936 1.7057 1.24427 2.185 2.18508.3018.59229.4276 1.23248.4872 1.96133.0578.70788.0578 1.58203.0578 2.66582v7.2856c0 1.0838 0 1.9579-.0578 2.6658-.0596.7289-.1854 1.3691-.4872 1.9614-.4793.9408-1.2442 1.7057-2.185 2.185-.5923.3018-1.2325.4276-1.9614.4872-.7079.0578-1.582.0578-2.6658.0578zm-14.6428-11c0-.5523.44772-1 1-1h9.5858l-2.2929-2.2929c-.3905-.3905-.3905-1.02368 0-1.41421.3905-.39052 1.0237-.39052 1.4142 0l3.9993 3.99931c.0024.0024.0048.0048.0072.0073.0927.0943.1628.2025.2105.3177.0486.1171.0755.2453.0759.3798v.003.003c-.0008.2716-.1099.5178-.2864.6975-.0024.0025-.0048.0049-.0072.0073l-3.9993 3.9993c-.3905.3905-1.0237.3905-1.4142 0s-.3905-1.0237 0-1.4142l2.2929-2.2929h-9.5858c-.55228 0-1-.4477-1-1z" fill="currentColor" fill-rule="evenodd"/></svg>
