<svg xmlns="http://www.w3.org/2000/svg" width="28" height="28" fill="none" viewBox="0 0 28 28">
  <circle cx="14" cy="14" r="14" fill="url(#a)"/>
  <path fill="#fff" fill-rule="evenodd" d="M14.004 8.25a.75.75 0 0 1 .75-.75h1.92c.645 0 1.186.042 1.663.194.503.16.884.427 1.24.787l.01.009.009.01c.73.789.865 1.761.9 2.653v.029c0 1.3 0 2.3.002 3.225v.184l.002 2.585v.022c-.014.46-.042.875-.193 1.272-.155.41-.414.732-.74 1.076l-.01.01-.009.01c-.372.365-.77.616-1.27.763-.473.138-1.003.171-1.614.171h-1.912a.75.75 0 0 1 0-1.5h1.911c.581 0 .934-.035 1.194-.111.23-.067.414-.174.63-.385.28-.296.37-.441.418-.567.052-.138.081-.324.095-.772 0-.925 0-1.722-.002-2.573v-.183l-.002-3.212c-.032-.802-.154-1.298-.493-1.67-.223-.223-.401-.334-.622-.404-.25-.08-.604-.123-1.207-.123h-1.92a.75.75 0 0 1-.75-.75Zm-1.528 2.971a.75.75 0 0 1 1.06 0l2.204 2.203a.75.75 0 0 1 .043 1.1l-2.257 2.256a.75.75 0 0 1-1.06-1.06l.97-.97H8.25a.75.75 0 0 1 0-1.5h5.194l-.968-.968a.75.75 0 0 1 0-1.06Z" clip-rule="evenodd"/>
  <defs>
    <linearGradient id="a" x1="0" x2="28.733" y1="0" y2=".773" gradientUnits="userSpaceOnUse">
      <stop stop-color="#50C750"/>
      <stop offset="1" stop-color="#32B332"/>
    </linearGradient>
  </defs>
</svg>

