<svg xmlns="http://www.w3.org/2000/svg" width="28" height="28" fill="currentColor" viewBox="0 0 28 28"><path d="M21 22a1 1 0 1 1 0 2H7a1 1 0 1 1 0-2h14ZM14 2a1 1 0 0 1 1 1v13.585l2.293-2.292a1 1 0 0 1 1.414 1.414l-4 4a1 1 0 0 1-1.414 0l-7-7a1 1 0 1 1 1.414-1.414L13 16.585V3a1 1 0 0 1 1-1Z"/><path fill-rule="evenodd" d="M22 3a5 5 0 1 0 0 10 5 5 0 0 0 0-10Zm2.78 3.22a.75.75 0 0 0-1.06 0l-2.47 2.47-.97-.97a.75.75 0 1 0-1.06 1.06l1.5 1.5a.75.75 0 0 0 1.06 0l3-3a.75.75 0 0 0 0-1.06Z" clip-rule="evenodd"/></svg>
