<svg xmlns="http://www.w3.org/2000/svg" width="28" height="28" fill="currentColor" viewBox="0 0 28 28"><path d="M21 22a1 1 0 1 1 0 2H7a1 1 0 1 1 0-2h14ZM14 2a1 1 0 0 1 1 1v13.585l2.293-2.292a1 1 0 0 1 1.414 1.414l-4 4a1 1 0 0 1-1.414 0l-7-7a1 1 0 1 1 1.414-1.414L13 16.585V3a1 1 0 0 1 1-1Z"/><path d="M18.535 4.536a5 5 0 1 1 7.072 7.07 5 5 0 0 1-7.072-7.07Zm1.179 1.178a.834.834 0 0 0-.065 1.106l.065.073 1.179 1.178-1.179 1.179a.833.833 0 0 0 1.106 1.243l.073-.065L22.07 9.25l1.179 1.178a.833.833 0 0 0 1.243-1.106l-.065-.072-1.177-1.18 1.178-1.178a.833.833 0 0 0-1.106-1.244l-.072.065-1.179 1.179-1.178-1.179a.833.833 0 0 0-1.179 0Z"/></svg>
