<svg fill="none" height="28" viewBox="0 0 28 28" width="28" xmlns="http://www.w3.org/2000/svg"><path clip-rule="evenodd" d="m3 9c0-2.76142 2.23858-5 5-5h8.5c1.3088 0 2.4219.83814 2.8317 2.00698.0555-.00462.1116-.00698.1683-.00698h.5c1.3062 0 2.4175.83481 2.8293 2h2.1707c.5523 0 1 .44772 1 1s-.4477 1-1 1h-2.1707c-.4118 1.1652-1.5231 2-2.8293 2h-.5c-.0567 0-.1128-.0024-.1683-.007-.4098 1.1689-1.5229 2.007-2.8317 2.007h-2.8421l-1.5393 9h4.8814c.5523 0 1 .4477 1 1s-.4477 1-1 1h-13c-.55228 0-1-.4477-1-1s.44772-1 1-1h1.40724l1.84392-9.0557c-2.4062-.3614-4.25116-2.4374-4.25116-4.9443zm4.44828 14h2.64122l1.5394-9h-2.34804zm9.05172-11h-8.5c-1.65685 0-3-1.3431-3-3 0-1.65685 1.34315-3 3-3h8.5c.5523 0 1 .44772 1 1v4c0 .5523-.4477 1-1 1zm4.5-3c0-.55228-.4477-1-1-1h-.5v2h.5c.5523 0 1-.44772 1-1z" fill="currentColor" fill-rule="evenodd"/></svg>
