<svg xmlns="http://www.w3.org/2000/svg" width="28" height="28" fill="currentColor" viewBox="0 0 28 28"><g clip-path="url(#a)"><path fill-rule="evenodd" d="M7.124 5a104.178 104.178 0 0 0 .252 0c.571 0 1.065-.001 1.495.13a3 3 0 0 1 2 2c.13.43.13.923.13 1.494L11 8.75V10h6V8.624c0-.571-.001-1.065.13-1.495a3 3 0 0 1 2-2c.43-.13.923-.13 1.494-.13a104.013 104.013 0 0 0 .252 0c.571 0 1.064 0 1.495.13a3 3 0 0 1 2 2c.13.43.13.924.13 1.495l-.001.126V9h.136c.39 0 .74 0 1.03.024.313.025.644.083.969.248a2.5 2.5 0 0 1 1.092 1.093c.166.325.224.656.25.968.023.292.023.642.023 1.03v3.273c0 .39 0 .74-.024 1.03a2.535 2.535 0 0 1-.248.969 2.5 2.5 0 0 1-1.093 1.092 2.535 2.535 0 0 1-.968.25c-.292.023-.642.023-1.03.023H24.5v.376c0 .571.001 1.064-.13 1.495a3 3 0 0 1-2 2c-.43.13-.923.13-1.494.13L20.75 23h-.126c-.571 0-1.064.001-1.495-.13a3 3 0 0 1-2-2c-.13-.43-.13-.923-.13-1.494L17 19.25V18h-6v1.376c0 .571.001 1.064-.13 1.495a3 3 0 0 1-2 2c-.43.13-.923.13-1.494.13L7.25 23h-.126c-.571 0-1.065.001-1.495-.13a3 3 0 0 1-2-2c-.13-.43-.13-.923-.13-1.494l.001-.126V19h-.136c-.39 0-.74 0-1.03-.024a2.535 2.535 0 0 1-.969-.248 2.5 2.5 0 0 1-1.093-1.093 2.538 2.538 0 0 1-.248-.968C0 16.375 0 16.025 0 15.637v-3.273c0-.39 0-.74.024-1.03.025-.313.083-.644.248-.969a2.5 2.5 0 0 1 1.093-1.093c.325-.165.656-.223.968-.248C2.625 9 2.975 9 3.363 9H3.5v-.376c0-.571-.001-1.065.13-1.495a3 3 0 0 1 2-2C6.06 5 6.552 5 7.123 5ZM5.5 19.25c0 .77.01.934.043 1.04a1 1 0 0 0 .667.667c.106.032.27.043 1.04.043s.934-.01 1.04-.043a1 1 0 0 0 .667-.667c.032-.106.043-.27.043-1.04V8.75c0-.77-.01-.934-.043-1.04a1 1 0 0 0-.667-.667C8.184 7.011 8.02 7 7.25 7s-.934.01-1.04.043a1 1 0 0 0-.667.667c-.032.106-.043.27-.043 1.04v10.5ZM3.5 11h-.1c-.437 0-.704 0-.904.017a1.29 1.29 0 0 0-.215.034.5.5 0 0 0-.226.222l-.004.008a1.281 1.281 0 0 0-.034.215c-.016.2-.017.468-.017.904v3.2c0 .437 0 .704.017.904a1.281 1.281 0 0 0 .034.215.5.5 0 0 0 .23.23 1.29 1.29 0 0 0 .215.034c.2.016.467.017.904.017h.1v-6Zm7.5 5h6v-4h-6v4Zm8 3.25c0 .77.01.934.043 1.04a1 1 0 0 0 .667.667c.106.032.27.043 1.04.043s.934-.01 1.04-.043a1 1 0 0 0 .667-.667c.032-.106.043-.27.043-1.04V8.75c0-.77-.01-.934-.043-1.04a1 1 0 0 0-.667-.667C21.684 7.011 21.52 7 20.75 7s-.934.01-1.04.043a1 1 0 0 0-.667.667c-.032.106-.043.27-.043 1.04v10.5ZM24.5 17h.1c.436 0 .704 0 .904-.017a1.29 1.29 0 0 0 .215-.034.5.5 0 0 0 .226-.222l.004-.008a1.29 1.29 0 0 0 .034-.215c.016-.2.017-.468.017-.904v-3.2c0-.437 0-.704-.017-.904a1.29 1.29 0 0 0-.034-.215l-.003-.006v-.002a.5.5 0 0 0-.219-.218l-.008-.004a1.29 1.29 0 0 0-.215-.034A12.83 12.83 0 0 0 24.6 11h-.1v6Z" clip-rule="evenodd"/></g><defs><clipPath id="a"><path d="M0 0h28v28H0z"/></clipPath></defs></svg>
