<svg xmlns="http://www.w3.org/2000/svg" width="28" height="28" fill="currentColor" viewBox="0 0 28 28"><path fill-rule="evenodd" d="M8.795 22h-.59c-.362 0-.691 0-.966-.022a2.434 2.434 0 0 1-.929-.24 2.4 2.4 0 0 1-1.048-1.048 2.434 2.434 0 0 1-.24-.93C5 19.487 5 19.158 5 18.796V18h-.295c-.362 0-.691 0-.966-.022a2.434 2.434 0 0 1-.929-.24 2.4 2.4 0 0 1-1.048-1.048 2.435 2.435 0 0 1-.24-.93c-.022-.274-.022-.603-.022-.964v-1.591c0-.362 0-.691.022-.966a2.46 2.46 0 0 1 .24-.929 2.4 2.4 0 0 1 1.048-1.048c.315-.16.634-.216.93-.24.274-.022.603-.022.965-.022H5v-.795c0-.362 0-.691.022-.966a2.46 2.46 0 0 1 .24-.929A2.4 2.4 0 0 1 6.31 6.262a2.46 2.46 0 0 1 .929-.24C7.514 6 7.843 6 8.205 6h.59c.362 0 .691 0 .966.022.295.025.614.08.929.24a2.4 2.4 0 0 1 1.048 1.048c.16.315.216.634.24.929.022.275.022.604.022.966V11h4V9.205c0-.362 0-.691.022-.966a2.46 2.46 0 0 1 .24-.929 2.4 2.4 0 0 1 1.048-1.048 2.46 2.46 0 0 1 .929-.24C18.514 6 18.843 6 19.205 6h.59c.362 0 .691 0 .966.022.295.025.614.08.929.24a2.4 2.4 0 0 1 1.048 1.048c.16.315.215.634.24.929.022.275.022.604.022.965V10h.295c.362 0 .691 0 .966.022.295.024.614.08.929.24a2.4 2.4 0 0 1 1.048 1.048c.16.315.215.634.24.929.022.275.022.604.022.966v1.59c0 .362 0 .691-.022.966a2.46 2.46 0 0 1-.24.929 2.4 2.4 0 0 1-1.048 1.048 2.46 2.46 0 0 1-.93.24c-.274.022-.603.022-.965.022H23v.795c0 .362 0 .691-.022.966a2.46 2.46 0 0 1-.24.929 2.4 2.4 0 0 1-1.048 1.048 2.46 2.46 0 0 1-.929.24c-.275.022-.604.022-.965.022h-.591c-.362 0-.691 0-.966-.022a2.434 2.434 0 0 1-.929-.24 2.4 2.4 0 0 1-1.048-1.048 2.434 2.434 0 0 1-.24-.93C16 19.487 16 19.158 16 18.796V17h-4v1.795c0 .362 0 .691-.022.966-.024.295-.08.614-.24.929a2.4 2.4 0 0 1-1.048 1.048 2.46 2.46 0 0 1-.93.24C9.486 22 9.157 22 8.795 22ZM21 9.24c0-.409 0-.655-.016-.838a.815.815 0 0 0-.028-.185.4.4 0 0 0-.173-.173.817.817 0 0 0-.185-.028A11.71 11.71 0 0 0 19.76 8h-.52c-.409 0-.655 0-.838.016a.817.817 0 0 0-.185.028.4.4 0 0 0-.173.173.815.815 0 0 0-.028.185C18 8.585 18 8.832 18 9.24v9.52c0 .409 0 .655.016.838.01.127.024.174.028.185a.4.4 0 0 0 .173.173c.01.003.058.018.185.028.183.015.43.016.838.016h.52c.409 0 .655 0 .838-.016a.815.815 0 0 0 .185-.028.4.4 0 0 0 .173-.173.815.815 0 0 0 .028-.185c.015-.183.016-.43.016-.838V9.24ZM23 16h.26c.409 0 .655 0 .838-.016a.815.815 0 0 0 .185-.028.4.4 0 0 0 .173-.173.815.815 0 0 0 .028-.185c.015-.183.016-.43.016-.838v-1.52c0-.409 0-.655-.016-.838a.815.815 0 0 0-.028-.185.4.4 0 0 0-.173-.173.818.818 0 0 0-.185-.028A11.76 11.76 0 0 0 23.26 12H23v4Zm-11-1v-2h4v2h-4ZM7 9.24c0-.409 0-.655.016-.838a.816.816 0 0 1 .028-.185.4.4 0 0 1 .173-.173.817.817 0 0 1 .185-.028C7.585 8 7.832 8 8.24 8h.52c.409 0 .655 0 .838.016.127.01.174.024.185.028a.4.4 0 0 1 .173.173c.004.01.018.058.028.185.015.183.016.43.016.838v9.52c0 .409 0 .655-.016.838a.818.818 0 0 1-.028.185.4.4 0 0 1-.173.173.814.814 0 0 1-.185.028C9.415 20 9.168 20 8.76 20h-.52c-.409 0-.655 0-.838-.016a.815.815 0 0 1-.185-.028.4.4 0 0 1-.173-.173.817.817 0 0 1-.028-.185C7 19.415 7 19.168 7 18.76V9.24ZM5 12h-.26c-.409 0-.655 0-.838.016a.818.818 0 0 0-.185.028.4.4 0 0 0-.173.173.818.818 0 0 0-.028.185c-.015.183-.016.43-.016.838v1.52c0 .409 0 .655.016.838.01.127.024.174.028.185a.4.4 0 0 0 .173.173c.01.004.058.018.185.028.183.015.43.016.838.016H5v-4Z" clip-rule="evenodd"/></svg>