<svg xmlns="http://www.w3.org/2000/svg" width="28" height="28" fill="currentColor" viewBox="0 0 28 28"><path fill-rule="evenodd" d="M5.07 4.801C6.164 4.216 7.243 4 9.691 4H11a1 1 0 1 1 0 2H9.692c-2.335 0-3.019.212-3.68.565a3.466 3.466 0 0 0-1.447 1.448C4.212 8.673 4 9.357 4 11.692v4.616c0 2.335.212 3.019.565 3.68a3.466 3.466 0 0 0 1.448 1.447c.66.353 1.344.565 3.679.565H11a1 1 0 1 1 0 2H9.692c-2.448 0-3.527-.216-4.623-.801a5.465 5.465 0 0 1-2.268-2.269C2.216 19.835 2 18.756 2 16.308v-4.616c0-2.448.216-3.527.801-4.623A5.466 5.466 0 0 1 5.07 4.801ZM18 4.986a1 1 0 0 1 1.021-.979c1.964.042 2.93.27 3.91.794a5.465 5.465 0 0 1 2.268 2.268c.585 1.096.801 2.175.801 4.623v4.616c0 2.448-.216 3.527-.801 4.622a5.465 5.465 0 0 1-2.269 2.27c-.98.524-1.945.752-3.909.794a1 1 0 1 1-.042-2c1.798-.038 2.413-.24 3.008-.558a3.467 3.467 0 0 0 1.448-1.448c.353-.66.565-1.344.565-3.679v-4.616c0-2.335-.212-3.019-.565-3.68a3.466 3.466 0 0 0-1.448-1.447c-.595-.318-1.21-.52-3.008-.558A1 1 0 0 1 18 4.986Z M15 2a1 1 0 0 0-1 1v2.5a1 1 0 1 0 2 0V3a1 1 0 0 0-1-1Zm0 6.5a1 1 0 0 0-1 1V12a1 1 0 1 0 2 0V9.5a1 1 0 0 0-1-1ZM14 16a1 1 0 1 1 2 0v2.5a1 1 0 0 1-2 0V16Zm1 5.5a1 1 0 0 0-1 1V25a1 1 0 1 0 2 0v-2.5a1 1 0 0 0-1-1Z"/></svg>
