<svg xmlns="http://www.w3.org/2000/svg" width="28" height="28" fill="currentColor" viewBox="0 0 28 28"><path fill-rule="evenodd" d="M13.036 3.249a2 2 0 0 1 1.928 0l9.995 5.499A2.02 2.02 0 0 1 26 10.5V18a1 1 0 1 1-2 0v-5.22l-2 1.1v3.161c0 .425 0 .685-.014.912a7.5 7.5 0 0 1-7.033 7.033c-.317.02-.636.014-.953.014-.317 0-.636.006-.953-.014a7.5 7.5 0 0 1-7.033-7.033A16.16 16.16 0 0 1 6 17.04v-3.157l-2.967-1.631c-1.383-.76-1.383-2.746 0-3.506L13.036 3.25ZM8 14.983V17c0 .479 0 .674.01.832a5.5 5.5 0 0 0 5.158 5.158c.158.01.353.01.832.01s.674 0 .832-.01a5.5 5.5 0 0 0 5.158-5.158c.01-.158.01-.353.01-.832v-2.02l-5.036 2.771a2 2 0 0 1-1.928 0L8 14.983Zm6-9.982L3.996 10.5 14 15.999l9.995-5.499L14 5.001Z" clip-rule="evenodd"/></svg>
