<svg fill="none" height="28" viewBox="0 0 28 28" width="28" xmlns="http://www.w3.org/2000/svg"><g clip-rule="evenodd" fill="currentColor" fill-rule="evenodd"><path d="m14 1.5c-.5523 0-1 .44772-1 1v.07767c-2.7595.43278-4.9537 2.62841-5.34978 5.43338-.4173-.06349-.84572.14382-1.04467.54171-.24699.49398-.04677 1.09465.44721 1.34164l.44721-.89442c-.44721.89442-.44625.8949-.44528.89538l.00195.00097.00394.00194.00808.00391.017.00798c.01172.00537.02425.01091.03767.01658.0268.01132.05743.02333.09249.03591.06988.02509.15932.05315.27392.08305.22066.0576.54436.1244 1.01655.1889-.00418.0879-.00629.1764-.00629.2654 0 3.0385 2.4615 5.5 5.5 5.5s5.5-2.4615 5.5-5.5c0-.089-.0021-.1775-.0063-.2654.4722-.0645.7959-.1313 1.0165-.1889.1146-.0299.204-.05796.2739-.08305.0351-.01258.0657-.02459.0925-.03591.0042-.00178.0083-.00355.0124-.0053.0088-.00383.0172-.00759.0253-.01128l.017-.00798.0081-.00391.0039-.00194.002-.00097c.0009-.00048.0019-.00096-.4453-.89538l.4472.89442c.494-.24699.6942-.84766.4472-1.34164-.1989-.39788-.6273-.60518-1.0446-.54171-.3961-2.80497-2.5903-5.0006-5.3498-5.43338v-.07767c0-.55228-.4477-1-1-1zm.1343 6.99988c1.959-.00365 3.3258-.08673 4.2393-.17812-.2469-1.83709-1.6137-3.29963-3.3736-3.70778v.38602c0 .55228-.4477 1-1 1s-1-.44772-1-1v-.38602c-1.7599.40815-3.12671 1.87069-3.37363 3.70778.91353.09139 2.28023.17447 4.23933.17812.0444.00006.0892.0001.1343.0001s.0898-.00004.1343-.0001zm.0083 2.00002c1.3785-.0022 2.4791-.0358 3.3564-.0856.0007.0285.001.0571.001.0857 0 1.934-1.566 3.5-3.5 3.5s-3.5-1.566-3.5-3.5c0-.0286.0003-.0572.001-.0856.8773.0497 1.978.0833 3.3566.0855.0472.0001.0946.0001.1424.0001.0479 0 .0954 0 .1426-.0001z"/><path d="m14.25 17c-4.95108 0-9.25 1.7626-9.25 5.6429 0 2.0164.78111 2.8571 2.45588 2.8571h13.58822c1.6748 0 2.4559-.8407 2.4559-2.8571 0-3.8803-4.2989-5.6429-9.25-5.6429zm-7.19395 6.4639c-.06443-.0552-.0627-.1876-.05863-.4995.00119-.091.00258-.1974.00258-.3215 0-2.2882 3.304-3.6429 7.25-3.6429s7.25 1.3547 7.25 3.6429c0 .1241.0014.2304.0026.3214.004.3119.0058.4444-.0586.4996-.0476.0407-.1311.0395-.2763.0373-.0371-.0006-.0781-.0012-.1236-.0012h-13.58822c-.04545 0-.08647.0006-.12349.0012-.1452.0022-.22881.0034-.27634-.0373z"/></g></svg>
