<svg fill="none" height="28" viewBox="0 0 28 28" width="28" xmlns="http://www.w3.org/2000/svg"><path d="m14 2c6.6274 0 12 5.37258 12 12 0 6.6274-5.3726 12-12 12-6.62742 0-12-5.3726-12-12 0-6.62742 5.37258-12 12-12zm0 2c-5.52285 0-10 4.47715-10 10 0 5.5228 4.47715 10 10 10 5.5228 0 10-4.4772 10-10 0-5.52285-4.4772-10-10-10zm0 13.6c.7732 0 1.4.6268 1.4 1.4s-.6268 1.4-1.4 1.4-1.4-.6268-1.4-1.4.6268-1.4 1.4-1.4zm.0736-9.6c.2376 0 .3868.03713.5171.10685.1304.06973.2327.17204.3024.30241.0698.13037.1069.27952.1069.51712v6.14722c0 .2376-.0371.3868-.1069.5171-.0697.1304-.172.2327-.3024.3024-.1303.0698-.2795.1069-.5171.1069h-.1472c-.2376 0-.3868-.0371-.5171-.1069-.1304-.0697-.2327-.172-.3024-.3024-.0698-.1303-.1069-.2795-.1069-.5171v-6.14722c0-.2376.0371-.38675.1069-.51712.0697-.13037.172-.23268.3024-.30241.1303-.06972.2795-.10685.5171-.10685z" fill="currentColor"/></svg>
