<svg xmlns="http://www.w3.org/2000/svg" width="28" height="28" fill="currentColor" viewBox="0 0 28 28"><path d="M13.484 1.502c.35-.05.682-.05 1.032 0 .345.05.633.127 1.296.348l6.82 2.273A2 2 0 0 1 24 6.021V15.3c0 4.794-2.878 8.467-8.458 10.942l-.368.16a3 3 0 0 1-2.348 0C7.007 23.93 4 20.202 4 15.3V6.02a2 2 0 0 1 1.368-1.897l7.008-2.335c.533-.174.797-.242 1.108-.286Zm.75 1.98a1.579 1.579 0 0 0-.467 0c-.2.028-.389.08-.947.265L6 6.021V15.3c0 4.016 2.471 7.078 7.609 9.261.25.107.532.107.775.004l.354-.154C19.641 22.236 22 19.226 22 15.3V6.02l-6.977-2.325a5.976 5.976 0 0 0-.668-.192l-.122-.021Z M15.4 19a1.4 1.4 0 1 0-2.8 0 1.4 1.4 0 0 0 2.8 0Zm-.81-10.893c-.13-.07-.279-.107-.516-.107h-.147c-.238 0-.387.037-.518.107a.727.727 0 0 0-.302.302c-.07.13-.107.28-.107.517v6.148c0 .237.037.386.107.517.07.13.172.232.302.302.13.07.28.107.518.107h.147c.237 0 .386-.037.517-.107a.726.726 0 0 0 .302-.302c.07-.13.107-.28.107-.517V8.926c0-.237-.037-.386-.107-.517a.727.727 0 0 0-.302-.302Z"/></svg>
