<svg xmlns="http://www.w3.org/2000/svg" width="28" height="28" fill="none" viewBox="0 0 28 28"><path fill="currentColor" fill-rule="evenodd" d="M19.5887 5.32a8.403 8.403 0 0 0-.1432-.2348l-.0716-.11a2.0003 2.0003 0 0 0-1.7554-.8792 5.7822 5.7822 0 0 0-.801-1.2c-.5491-.636-1.1517-1.066-1.6036-1.335a6.4092 6.4092 0 0 0-.5828-.3086 5.0103 5.0103 0 0 0-.1922-.0844l-.11-.0434A2 2 0 0 0 11.634 3c0 .289-.0467.4332-.0743.4983-.0265.0625-.0684.1304-.1661.2265-.1133.1115-.2756.2368-.5538.425-.0586.0397-.1286.0861-.2061.1376-.2295.1522-.525.3483-.7881.5433-1.086.8047-1.852 1.633-2.3148 2.5655C7.0552 8.3547 7 9.2274 7 9.875c0 2.3402 1.5185 3.8122 2.6318 4.5731.58.3964 1.1459.671 1.5595.846.2098.0887.388.1551.5196.201.066.023.1208.041.1626.0543l.085.0262a2 2 0 0 0 2.028-.5586c.3053.2253.5915.3986.8305.5277.1971.1066.3673.1858.4969.2416a4.562 4.562 0 0 0 .1642.0671l.0972.0359a2.0002 2.0002 0 0 0 1.4969-.0745c1.668-.7726 2.7995-1.889 3.4082-3.2474.5921-1.3213.5955-2.661.4146-3.7505-.1808-1.0886-.5629-2.0395-.8788-2.6947a11.0933 11.0933 0 0 0-.4275-.8022Zm-5.4819 7.0059C14.9844 13.5668 16.2316 14 16.2316 14c2.8382-1.3145 3.0183-3.5524 2.5976-5.3124-.1595-.6674-.4054-1.266-.6256-1.7196-.2621-.54-.4876-.8742-.4876-.8742 0 1.0158-.6482 1.6714-1.1784 2.0378-.3668.2534-.6771.3684-.6771.3684.1446-.4019.2399-.7776.2941-1.1286a4.9019 4.9019 0 0 0 .0319-.2465c.0386-.3728.03-.716-.015-1.0312a3.623 3.623 0 0 0-.2451-.8932 3.6741 3.6741 0 0 0-.4616-.7985C14.7038 3.3964 13.634 3 13.634 3c0 .8719-.2445 1.4581-.6197 1.9132-.3552.4309-.8274.7442-1.3202 1.071-.218.1447-.4401.292-.6577.4533C9.1809 7.8125 9 8.8438 9 9.875c0 .9797.4469 1.7413 1.0222 2.3159 1.0396 1.038 2.4985 1.4653 2.4985 1.4653a5.1373 5.1373 0 0 1-.1875-.3837c-.348-.7964-.3789-1.4656-.2598-2.0077.2538-1.1557 1.1895-1.7335 1.1895-1.7335 0 1.2094.3675 2.121.8439 2.7946ZM11.2019 18h5.5986c.2865-.0002.5394-.0004.7921.0428.2224.0379.4397.1008.648.1874.2367.0985.451.2341.6938.3877l.0492.0311 5.5505 3.5055A1 1 0 0 1 24.0001 24h-6.3373c-.131 0-.1964.0003-.2438.0024l-.0036.0002-.0027.0024c-.0351.0321-.0815.0781-.1741.1708l-2.5314 2.5313c-.3905.3905-1.0237.3905-1.4142 0l-2.5314-2.5313c-.0926-.0927-.139-.1387-.1741-.1708l-.0027-.0024-.0036-.0002c-.0475-.0021-.1129-.0024-.2439-.0024H4.0001a1 1 0 0 1-.534-1.8455l5.5505-3.5055.0491-.0311c.2429-.1536.4572-.2892.6939-.3877a3.0015 3.0015 0 0 1 .6479-.1874c.2528-.0432.5066-.043.7944-.0428Zm.0583 2c-.3779 0-.452.0033-.5163.0143a.9983.9983 0 0 0-.216.0625c-.0602.025-.1244.0617-.4433.2631L7.4561 22h2.8812l.0511-.0001c.1899-.0005.429-.0011.6644.0554.204.049.3991.1298.5781.2394.2063.1265.375.296.5089.4307l.036.0361 1.8243 1.8243 1.8242-1.8243.0361-.0361c.1339-.1347.3025-.3042.5089-.4307a2.0008 2.0008 0 0 1 .5781-.2394c.2353-.0565.4745-.0559.6644-.0554l.051.0001h2.8813l-2.6285-1.6601c-.319-.2014-.3831-.2381-.4434-.2631a.995.995 0 0 0-.216-.0625c-.0643-.011-.1377-.0143-.5136-.0143h-5.4824Z" clip-rule="evenodd"/></svg>
