<svg xmlns="http://www.w3.org/2000/svg" width="28" height="28" fill="currentColor" viewBox="0 0 28 28"><path d="M15 3a10.969 10.969 0 0 0-7.778 3.222A10.994 10.994 0 0 0 4.414 11H3a1 1 0 1 0 0 2h1.046a11.133 11.133 0 0 0 0 2h-1.05a1 1 0 1 0 0 2h1.42a10.981 10.981 0 0 0 2.807 4.778A10.969 10.969 0 0 0 15 25c3.037 0 5.789-1.232 7.778-3.222.33-.33.74-.806 1.015-1.16a1 1 0 0 0-1.578-1.228c-.237.304-.592.715-.851.974A8.97 8.97 0 0 1 15 23a8.969 8.969 0 0 1-6.364-2.636A9.002 9.002 0 0 1 6.512 17H16a1 1 0 0 0 0-2H6.055a9.107 9.107 0 0 1 0-2H16a1 1 0 1 0 0-2H6.512a9.002 9.002 0 0 1 2.124-3.364A8.969 8.969 0 0 1 15 5a8.969 8.969 0 0 1 6.364 2.636c.258.258.614.67.85.974a1 1 0 1 0 1.579-1.228c-.275-.353-.685-.83-1.015-1.16A10.969 10.969 0 0 0 15 3Z"/></svg>
