<svg fill="none" height="28" viewBox="0 0 28 28" width="28" xmlns="http://www.w3.org/2000/svg"><path clip-rule="evenodd" d="m19 5c-.5523 0-1-.44772-1-1s.4477-1 1-1c.0108 0 .0216.00017.0324.00051.681.00188 1.2588.01054 1.7478.0505.6455.05273 1.2239.16492 1.7628.43946.8467.43143 1.5351 1.11984 1.9665 1.96657.2746.53882.3868 1.11726.4395 1.76274.04.48904.0486 1.06682.0505 1.7479.0003.01073.0005.0215.0005.03232 0 .55228-.4477 1-1 1s-1-.44772-1-1c-.0018-.68429-.0101-1.19829-.0444-1.61736-.0426-.52179-.1211-.80774-.2281-1.01762-.2397-.4704-.6221-.85285-1.0925-1.09254-.2099-.10693-.4958-.18548-1.0176-.22812-.4191-.03424-.9331-.04258-1.6174-.04436zm-13.99948 4c.00178-.68429.00961-1.19829.04384-1.61736.04264-.52179.12119-.80774.22812-1.01762.23969-.4704.62214-.85285 1.09254-1.09254.20988-.10693.49583-.18548 1.01762-.22812.41907-.03424.93307-.04206 1.61736-.04384.55229 0 1-.44824 1-1.00052s-.44772-1-1-1c-.01083 0-.02163.00017-.03238.00051-.68105.00188-1.25881.01054-1.74784.0505-.64548.05273-1.22392.16492-1.76274.43946-.84673.43143-1.53514 1.11984-1.96657 1.96657-.27454.53882-.38673 1.11726-.43946 1.76274-.03996.48903-.04862 1.06678-.0505 1.74784-.00034.01075-.00051.02154-.00051.03238 0 .55228.44772 1 1 1s1.00052-.44772 1.00052-1zm-2.00001 10.0324c.00188.681.01054 1.2588.0505 1.7478.05273.6455.16492 1.2239.43946 1.7628.43143.8467 1.11984 1.5351 1.96657 1.9665.53882.2746 1.11726.3868 1.76274.4395.48902.04 1.06677.0486 1.74782.0505.01076.0003.02156.0005.0324.0005.55228 0 1-.4477 1-1s-.44772-1-1-1c-.68429-.0018-1.19829-.0101-1.61736-.0444-.52179-.0426-.80774-.1211-1.01762-.2281-.4704-.2397-.85285-.6221-1.09254-1.0925-.10693-.2099-.18548-.4958-.22812-1.0176-.03423-.4191-.04206-.9331-.04384-1.6174 0-.5523-.44824-1-1.00052-1s-1 .4477-1 1c0 .0108.00017.0216.00051.0324zm19.99949-.0324c0-.5523.4477-1 1-1s1 .4477 1 1c0 .0108-.0002.0216-.0005.0323-.0019.6811-.0105 1.2589-.0505 1.7479-.0527.6455-.1649 1.2239-.4395 1.7628-.4314.8467-1.1198 1.5351-1.9665 1.9665-.5389.2746-1.1173.3868-1.7628.4395-.489.04-1.0668.0486-1.7478.0505-.0108.0003-.0216.0005-.0324.0005-.5523 0-1-.4477-1-1s.4477-1 1-1c.6843-.0018 1.1983-.0101 1.6174-.0444.5218-.0426.8077-.1211 1.0176-.2281.4704-.2397.8528-.6221 1.0925-1.0925.107-.2099.1855-.4958.2281-1.0176.0343-.4191.0426-.9331.0444-1.6174zm-5.0967-.5991c.2369.4988.0247 1.0954-.4742 1.3323-1.0405.4943-2.204.7704-3.4291.7704-1.2252 0-2.3886-.2761-3.4291-.7703-.4988-.237-.71114-.8335-.4742-1.3324.237-.4988.8335-.7111 1.3324-.4742.778.3696 1.6488.5769 2.5709.5769.922 0 1.7929-.2073 2.5709-.5769.4989-.237 1.0954-.0247 1.3324.4742zm.5967-9.4009c-.5523 0-1 .44772-1 1v1c0 .5523.4477 1 1 1s1-.4477 1-1v-1c0-.55228-.4477-1-1-1zm-10 1c0-.55228.44772-1 1-1 .5523 0 1 .44772 1 1v1c0 .5523-.4477 1-1 1-.55228 0-1-.4477-1-1zm6.5 0c0-.55228-.4477-1-1-1s-1 .44772-1 1v3.5c0 .2761-.2239.5-.5.5-.5523 0-1 .4477-1 1s.4477 1 1 1c1.3807 0 2.5-1.1193 2.5-2.5z" fill="currentColor" fill-rule="evenodd"/>
</svg>