<?xml version="1.0" encoding="UTF-8"?>
<svg width="28px" height="28px" viewBox="0 0 28 28" version="1.1" xmlns="http://www.w3.org/2000/svg" xmlns:xlink="http://www.w3.org/1999/xlink">
    <!-- Generator: Sketch 63.1 (92452) - https://sketch.com -->
    <title>favorite_outline_28</title>
    <desc>Created with Sketch.</desc>
    <g id="Page-1" stroke="none" stroke-width="1" fill="none" fill-rule="evenodd">
        <g id="favorite_outline_28">
            <rect x="0" y="0" width="28" height="28"></rect>
            <path d="M14,19.1782187 L19.690016,22.6536586 C19.736238,22.6818909 19.7917545,22.6906838 19.8444386,22.6781168 C19.9545672,22.6518471 20.0225482,22.5412744 19.9962785,22.4311459 L18.4492504,15.9456491 L23.5129018,11.6080923 C23.5540357,11.5728568 23.5795538,11.5227746 23.5838821,11.4687857 C23.5929297,11.3559294 23.5087762,11.2571067 23.3959199,11.2480591 L16.749788,10.7152416 L14.1892807,4.55904413 C14.1684807,4.5090351 14.1287353,4.46928968 14.0787263,4.44848974 C13.9741895,4.40501042 13.8541987,4.4545073 13.8107193,4.55904413 L11.250212,10.7152416 L4.60408009,11.2480591 C4.55009113,11.2523874 4.50000899,11.2779055 4.46477343,11.3190394 C4.39111848,11.4050239 4.40111362,11.5344374 4.4870982,11.6080923 L9.55074962,15.9456491 L8.00372147,22.4311459 C7.99115439,22.4838299 7.99994734,22.5393464 8.02817961,22.5855685 C8.08719517,22.6821892 8.21336331,22.7126742 8.30998403,22.6536586 L14,19.1782187 Z M14,21.5217818 L9.35249263,24.3604614 C8.31323075,24.9952386 6.95615397,24.667339 6.3213768,23.6280771 C6.0177078,23.1309079 5.92312999,22.5337672 6.05830266,21.9670923 L7.3218887,16.6698499 L3.18598515,13.127008 C2.2611266,12.3347681 2.15361791,10.9427849 2.94585776,10.0179263 C3.32485483,9.57548621 3.8635433,9.30101073 4.44425375,9.25445542 L9.87270024,8.81925922 L11.9640786,3.79098284 C12.4317465,2.66657452 13.7223793,2.13418119 14.8467876,2.60184905 C15.3846897,2.82557517 15.8121952,3.25308076 16.0359214,3.79098284 L18.1272998,8.81925922 L23.5557463,9.25445542 C24.7696394,9.35177271 25.674803,10.4147188 25.5774857,11.628612 C25.5309304,12.2093224 25.256455,12.7480109 24.8140149,13.127008 L20.6781113,16.6698499 L21.9416973,21.9670923 C22.2242567,23.151646 21.4930458,24.3409762 20.3084921,24.6235356 C19.7418173,24.7587082 19.1446765,24.6641304 18.6475074,24.3604614 L14,21.5217818 Z" id="↳-Icon-Color" fill="currentColor" fill-rule="nonzero"></path>
        </g>
    </g>
</svg>
