<svg xmlns="http://www.w3.org/2000/svg" width="28" height="28" fill="none" viewBox="0 0 28 28"><path fill="currentColor" fill-rule="evenodd" d="M23.513 11.6081a.205.205 0 0 0-.117-.36l-6.6461-.5329-2.5605-6.1562a.2051.2051 0 0 0-.3786 0l-2.5605 6.1562-6.6461.5329a.205.205 0 0 0-.117.36l5.0637 4.3375-1.547 6.4855a.205.205 0 0 0 .3063.2226l1.5245-.9313a.9954.9954 0 0 1 .5352-.1551c.5523 0 1 .4477 1 1a.9995.9995 0 0 1-.4938.8626l-1.5235.9306c-1.0393.6347-2.3963.3068-3.0311-.7324a2.205 2.205 0 0 1-.263-1.661l1.2635-5.2973-4.136-3.5428c-.9248-.7922-1.0323-2.1842-.24-3.1091a2.205 2.205 0 0 1 1.4984-.7634l5.4284-.4352 2.0914-5.0283c.4677-1.1244 1.7583-1.6568 2.8827-1.1892A2.2049 2.2049 0 0 1 16.036 3.791l2.0914 5.0283 5.4285.4352c1.2138.0973 2.119 1.1602 2.0217 2.3741a2.205 2.205 0 0 1-.7635 1.4984c-.1799.1738-.5442.383-.8141.383-.5523 0-1-.4477-1-1 0-.292.1252-.5548.3248-.7376l.1882-.1643Z M25 20c0 3.3137-2.6863 6-6 6s-6-2.6863-6-6 2.6863-6 6-6 6 2.6863 6 6Zm-6-4c.5523 0 1 .4477 1 1v2h2c.5523 0 1 .4477 1 1s-.4477 1-1 1h-2v2c0 .5523-.4477 1-1 1s-1-.4477-1-1v-2h-2c-.5523 0-1-.4477-1-1s.4477-1 1-1h2v-2c0-.5523.4477-1 1-1Z" clip-rule="evenodd"/></svg>
