<svg fill="none" height="28" viewBox="0 0 28 28" width="28" xmlns="http://www.w3.org/2000/svg"><g fill="currentColor"><path d="m13.6 5h.8c1.7132 0 2.8778.00156 3.778.0751.8768.07164 1.3252.20149 1.638.36087.7527.3835 1.3646.99542 1.7481 1.74807.1594.3128.2892.76121.3608 1.63804.0736.90018.0751 2.06472.0751 3.77792v2.8c0 1.7132-.0015 2.8777-.0751 3.7779-.0716.8769-.2014 1.3253-.3608 1.6381-.3835.7526-.9954 1.3645-1.7481 1.748-.2241.1142-.5177.2132-.9886.2865l.0002.0011c-.48.0734-.8476.488-.8476.9884 0 .5523.4477 1 1 1 .0711 0 .1405-.0074.2074-.0215.5961-.0968 1.0903-.2451 1.5366-.4725 1.129-.5752 2.0468-1.4931 2.6221-2.6221.6539-1.2834.6539-2.9636.6539-6.3239v-2.8c0-3.36031 0-5.04047-.6539-6.32394-.5753-1.12898-1.4931-2.04686-2.6221-2.6221-1.2835-.65396-2.9636-.65396-6.324-.65396h-.8c-3.3603 0-5.04042 0-6.3239.65396-1.12897.57524-2.04685 1.49312-2.62209 2.6221-.45824.89934-.59539 1.99346-.63643 3.72394l.00263.0001-.00019.0199c0 .5523.44771 1 1 1 .55228 0 1-.4477 1-1 0-.0165-.0004-.03296-.0012-.0493.01104-.43081.02855-.80858.05633-1.14862.07164-.87683.20149-1.32524.36087-1.63804.38349-.75265.99542-1.36457 1.74807-1.74807.31279-.15938.7612-.28923 1.63803-.36087.90018-.07354 2.06478-.0751 3.77788-.0751z"/><path d="m8.64909 8.29096c-.04895.15063-.04895.33676-.04895.70902 0 .37225 0 .55838.04895.70901.09892.30441.3376.54311.64204.64201.15063.049.33676.049.70897.049.3723 0 .5584 0 .7091-.049.3044-.0989.5431-.3376.642-.64201.0489-.15063.0489-.33676.0489-.70901 0-.37226 0-.55839-.0489-.70902-.0989-.30444-.3376-.54312-.642-.64204-.1507-.04894-.3368-.04894-.7091-.04894-.37221 0-.55834 0-.70897.04894-.30444.09892-.54312.3376-.64204.64204z"/><path d="m16.6491 8.29096c-.049.15063-.049.33676-.049.70902 0 .37225 0 .55838.049.70901.0989.30441.3376.54311.642.64201.1507.049.3368.049.709.049.3723 0 .5584 0 .7091-.049.3044-.0989.5431-.3376.642-.64201.0489-.15063.0489-.33676.0489-.70901 0-.37226 0-.55839-.0489-.70902-.0989-.30444-.3376-.54312-.642-.64204-.1507-.04894-.3368-.04894-.7091-.04894-.3722 0-.5583 0-.709.04894-.3044.09892-.5431.3376-.642.64204z"/><path d="m16.6491 13.291c-.049.1506-.049.3367-.049.709 0 .3722 0 .5584.049.709.0989.3044.3376.5431.642.642.1507.049.3368.049.709.049.3723 0 .5584 0 .7091-.049.3044-.0989.5431-.3376.642-.642.0489-.1506.0489-.3368.0489-.709 0-.3723 0-.5584-.0489-.709-.0989-.3045-.3376-.5432-.642-.6421-.1507-.0489-.3368-.0489-.7091-.0489-.3722 0-.5583 0-.709.0489-.3044.0989-.5431.3376-.642.6421z"/><path d="m16.6001 19c0-.3723 0-.5584.049-.709.0989-.3045.3376-.5432.642-.6421.1507-.0489.3368-.0489.709-.0489.3723 0 .5584 0 .7091.0489.3044.0989.5431.3376.642.6421.0489.1506.0489.3367.0489.709 0 .3722 0 .5584-.0489.709-.0989.3044-.3376.5431-.642.642-.1507.049-.3368.049-.7091.049-.3722 0-.5583 0-.709-.049-.3044-.0989-.5431-.3376-.642-.642-.049-.1506-.049-.3368-.049-.709z"/><path d="m5.08991 15.0333c.24467-.022.49268-.0333.74358-.0333 4.51031 0 8.16671 3.6563 8.16671 8.1667 0 .2509-.0113.4989-.0334.7435-.0495.5501.3562 1.0362.9062 1.0858.5501.0495 1.0362-.3562 1.0858-.9063.0274-.3042.0414-.6121.0414-.923 0-5.6149-4.5518-10.1667-10.16671-10.1667-.31091 0-.61881.014-.92308.0414-.55006.0496-.95579.5357-.90622 1.0857.04957.5501.53566.9558 1.08572.9062z"/><path d="m5.8573 19c-.23638 0-.46739.0197-.69169.0573-.54467.0914-1.06029-.2761-1.15167-.8207-.09138-.5447.27609-1.0603.82076-1.1517.3332-.0559.6749-.0849 1.0226-.0849 3.39261 0 6.1429 2.7503 6.1429 6.1429 0 .3477-.029.6894-.0849 1.0226-.0914.5446-.607.9121-1.1517.8207s-.91215-.607-.82077-1.1517c.03763-.2243.05737-.4553.05737-.6916 0-2.2881-1.85486-4.1429-4.1429-4.1429z"/><path d="m6.00016 25c1.10457 0 2-.8954 2-2s-.89543-2-2-2-2 .8954-2 2 .89543 2 2 2z"/></g></svg>
