<svg fill="none" height="28" viewBox="0 0 28 28" width="28" xmlns="http://www.w3.org/2000/svg"><g fill="currentColor"><path d="m8.6001 8.99998c0-.37226 0-.55839.04894-.70902.09892-.30444.3376-.54312.64204-.64204.15063-.04894.33676-.04894.70902-.04894.3723 0 .5584 0 .709.04894.3045.09892.5431.3376.6421.64204.0489.15063.0489.33676.0489.70902 0 .37225 0 .55838-.0489.70901-.099.30441-.3376.54311-.6421.64201-.1506.049-.3367.049-.709.049-.37226 0-.55839 0-.70902-.049-.30444-.0989-.54312-.3376-.64204-.64201-.04894-.15063-.04894-.33676-.04894-.70901z"/><path d="m16.6001 8.99998c0-.37226 0-.55839.0489-.70902.099-.30444.3376-.54312.6421-.64204.1506-.04894.3367-.04894.709-.04894s.5584 0 .709.04894c.3045.09892.5431.3376.6421.64204.0489.15063.0489.33676.0489.70902 0 .37225 0 .55838-.0489.70901-.099.30441-.3376.54311-.6421.64201-.1506.049-.3367.049-.709.049s-.5584 0-.709-.049c-.3045-.0989-.5431-.3376-.6421-.64201-.0489-.15063-.0489-.33676-.0489-.70901z"/><path d="m16.6001 14c0-.3723 0-.5584.0489-.709.099-.3045.3376-.5432.6421-.6421.1506-.0489.3367-.0489.709-.0489s.5584 0 .709.0489c.3045.0989.5431.3376.6421.6421.0489.1506.0489.3367.0489.709 0 .3722 0 .5584-.0489.709-.099.3044-.3376.5431-.6421.642-.1506.049-.3367.049-.709.049s-.5584 0-.709-.049c-.3045-.0989-.5431-.3376-.6421-.642-.0489-.1506-.0489-.3368-.0489-.709z"/><path d="m16.649 18.291c-.0489.1506-.0489.3367-.0489.709 0 .3722 0 .5584.0489.709.099.3044.3376.5431.6421.642.1506.049.3367.049.709.049s.5584 0 .709-.049c.3045-.0989.5431-.3376.6421-.642.0489-.1506.0489-.3368.0489-.709 0-.3723 0-.5584-.0489-.709-.099-.3045-.3376-.5432-.6421-.6421-.1506-.0489-.3367-.0489-.709-.0489s-.5584 0-.709.0489c-.3045.0989-.5431.3376-.6421.6421z"/><path d="m8.64904 13.291c-.04894.1506-.04894.3367-.04894.709 0 .3722 0 .5584.04894.709.09892.3044.3376.5431.64204.642.15063.049.33676.049.70902.049.3723 0 .5584 0 .709-.049.3045-.0989.5431-.3376.6421-.642.0489-.1506.0489-.3368.0489-.709 0-.3723 0-.5584-.0489-.709-.099-.3045-.3376-.5432-.6421-.6421-.1506-.0489-.3367-.0489-.709-.0489-.37226 0-.55839 0-.70902.0489-.30444.0989-.54312.3376-.64204.6421z"/><path d="m8.6001 19c0-.3723 0-.5584.04894-.709.09892-.3045.3376-.5432.64204-.6421.15063-.0489.33676-.0489.70902-.0489.3723 0 .5584 0 .709.0489.3045.0989.5431.3376.6421.6421.0489.1506.0489.3367.0489.709 0 .3722 0 .5584-.0489.709-.099.3044-.3376.5431-.6421.642-.1506.049-.3367.049-.709.049-.37226 0-.55839 0-.70902-.049-.30444-.0989-.54312-.3376-.64204-.642-.04894-.1506-.04894-.3368-.04894-.709z"/><path clip-rule="evenodd" d="m4.65396 6.27606c-.65396 1.28347-.65396 2.96363-.65396 6.32394v3.8c0 3.3603 0 4.0405.65396 5.3239.57524 1.129 1.49312 2.0469 2.6221 2.6221 1.28347.654 2.96364.654 6.32394.654h.8c3.3603 0 5.0405 0 6.3239-.654 1.129-.5752 2.0469-1.4931 2.6221-2.6221.654-1.2834.654-2.9636.654-6.3239v-2.8c0-3.36031 0-5.04047-.654-6.32394-.5752-1.12898-1.4931-2.04686-2.6221-2.6221-1.2834-.65396-2.9636-.65396-6.3239-.65396h-.8c-3.3603 0-5.04047 0-6.32394.65396-1.12898.57524-2.04686 1.49312-2.6221 2.6221zm9.74604-1.27606h-.8c-1.7132 0-2.8777.00156-3.77792.0751-.87683.07164-1.32524.20149-1.63804.36087-.75265.3835-1.36457.99542-1.74807 1.74807-.15938.3128-.28923.76121-.36087 1.63804-.07354.90018-.0751 2.06472-.0751 3.77792v2.8c0 1.7132.00156 2.8777.0751 3.7779.07164.8769.20149 1.3253.36087 1.6381.3835.7526.99542 1.3645 1.74807 1.748.3128.1594.76121.2893 1.63804.3609.90022.0735 2.06472.0751 3.77792.0751h.8c1.7132 0 2.8777-.0016 3.7779-.0751.8769-.0716 1.3253-.2015 1.6381-.3609.7526-.3835 1.3645-.9954 1.748-1.748.1594-.3128.2893-.7612.3609-1.6381.0735-.9002.0751-2.0647.0751-3.7779v-2.8c0-1.7132-.0016-2.87774-.0751-3.77792-.0716-.87683-.2015-1.32524-.3609-1.63804-.3835-.75265-.9954-1.36457-1.748-1.74807-.3128-.15938-.7612-.28923-1.6381-.36087-.9002-.07354-2.0647-.0751-3.7779-.0751z" fill-rule="evenodd"/></g></svg>
