<svg fill="none" height="28" viewBox="0 0 28 28" width="28" xmlns="http://www.w3.org/2000/svg" xmlns:xlink="http://www.w3.org/1999/xlink"><linearGradient id="a" gradientUnits="userSpaceOnUse" x1="-14" x2="14" y1="14" y2="42"><stop offset="0" stop-color="#ff5263"/><stop offset="1" stop-color="#ff3347"/></linearGradient><path d="m0 14c0-7.73199 6.26801-14 14-14 7.732 0 14 6.26801 14 14 0 7.732-6.268 14-14 14-7.73199 0-14-6.268-14-14z" fill="url(#a)"/><path d="m11 10.9567c1.3524-.8246 2.2799-2.27865 2.3892-3.9567 1.9634.98201 3.3108 3.0058 3.3108 5.343 0 .6882-.1168 1.3491-.3317 1.9643 1.019-.3063 1.8092-1.1379 2.0532-2.1787.9754.973 1.5785 2.3162 1.5785 3.7996 0 2.3415-1.5027 4.3335-3.6 5.0718-2.0973-.7383-3.6-2.7303-3.6-5.0718 0-.0594.001-.1186.0029-.1775-.7486.8431-1.2029 1.9513-1.2029 3.1652 0 .5798.1036 1.1354.2935 1.6496-2.23435-.5397-3.8935-2.5449-3.8935-4.9361 0-1.9048 1.05296-3.5648 2.6108-4.434z" fill="#fff"/></svg>
