<svg xmlns="http://www.w3.org/2000/svg" width="28" height="28" fill="currentColor" viewBox="0 0 28 28"><path fill-rule="evenodd" d="M9.51 23.16C7.5 22.258 5 20.528 5 17.5c0-3 1.185-4.248 4-6.5 2.17-1.737 3.372-3.399 3.808-5.728C12.938 4.58 13 3.829 13 3c0 0 .947.473 1.931 1.514 1.115 1.179 2.279 3.084 2.171 5.854-.036.942-.22 1.985-.602 3.132 0 0 1.257-.87 2.543-2.262.232-.25.465-.519.691-.801.47-.588.914-1.24 1.266-1.937 0 0 .508.869 1.01 2.216C23.312 14.196 24.583 20.868 17 24c0 0-2.615-.581-3.858-3.294-.388-.846-.642-1.899-.642-3.206 0 0-1.509 1.209-1.347 3.64.012.177.032.36.063.55.111.686.353 1.455.784 2.31 0 0-1.134-.232-2.49-.84ZM12 24l-.4 1.96a2 2 0 0 0 2.284-1.288c.6.438 1.175.732 1.63.926a7.366 7.366 0 0 0 .927.324l.076.019.028.007.011.002.005.001h.003s.002.001.436-1.951l-.434 1.952a2 2 0 0 0 1.198-.104c2.998-1.238 4.954-3.044 6.07-5.175 1.1-2.098 1.283-4.317 1.101-6.24-.181-1.92-.735-3.645-1.225-4.867a19.357 19.357 0 0 0-.884-1.898l-.067-.12-.02-.037-.008-.012-.002-.004-.001-.002S22.727 7.49 21 8.5l1.727-1.009a2 2 0 0 0-3.513.108c-.085.17-.18.339-.279.504a9.71 9.71 0 0 0-1.612-3.816 10.485 10.485 0 0 0-2.213-2.292 9.528 9.528 0 0 0-1.08-.712 5.422 5.422 0 0 0-.085-.046l-.03-.015-.011-.006-.005-.003h-.002S13.893 1.21 13 3l.894-1.789A2 2 0 0 0 11 3c0 1.584-.257 2.689-.725 3.602-.474.926-1.245 1.812-2.524 2.836-1.39 1.111-2.627 2.16-3.469 3.42C3.368 14.222 3 15.694 3 17.5c0 3.614 2.53 5.767 4.514 6.891a15.29 15.29 0 0 0 2.774 1.208 15.135 15.135 0 0 0 1.27.352l.026.005.009.002h.003l.002.001L12 24Z" clip-rule="evenodd"/></svg>
