<?xml version="1.0" encoding="UTF-8"?>
<svg width="28px" height="28px" viewBox="0 0 28 28" version="1.1" xmlns="http://www.w3.org/2000/svg" xmlns:xlink="http://www.w3.org/1999/xlink">
    <!-- Generator: Sketch 63.1 (92452) - https://sketch.com -->
    <title>fire_outline_28</title>
    <desc>Created with Sketch.</desc>
    <g id="Page-1" stroke="none" stroke-width="1" fill="none" fill-rule="evenodd">
        <g id="fire_outline_28">
            <rect x="0" y="0" width="28" height="28"></rect>
            <path d="M13.7096522,1.53353258 C14.45057,1.70021714 14.9160781,2.43597422 14.7493205,3.17721622 C14.6723769,3.5187031 14.5671945,3.80288226 14.4135796,4.04008249 C12.2530356,7.3762275 12.6005325,9.57689898 14.0419423,9.79010575 C15.4511315,9.99854659 16.2388335,9.09755582 16.0118068,6.99996906 C15.9585116,6.50755357 15.9139424,6.09244052 15.8780917,5.75455426 C15.8452019,5.44457329 15.9210077,5.13279287 16.0925489,4.87251696 C16.5013119,4.25230945 17.3354573,4.0808998 17.9556099,4.48962664 C18.7009437,4.98078694 19.535842,5.81690493 20.4897112,7.00659379 C23.1991321,10.3858496 24.0365561,13.340293 23.9986321,16.3656389 C23.9279783,22.0019542 19.7257247,25.9999739 13.9993553,25.9999739 C8.248817,25.9999739 4.00001724,21.9780541 4.00001724,16.347233 C4.02925618,11.3674609 6.74057538,5.9571346 11.8112737,2.33882894 C12.0076555,2.1986965 12.267143,2.00905554 12.5888015,1.77053918 C12.9101529,1.53225062 13.3193471,1.4457255 13.7096522,1.53353258 Z M11.6308536,5.02191436 C7.96013968,8.19684079 6.02286735,12.4611287 6,16.3531045 C6,20.8481946 9.32958747,23.9999739 13.9993553,23.9999739 C18.6471922,23.9999739 21.9420706,20.8652301 21.9987892,16.34057 C22.0313051,13.7466479 21.3209759,11.2405966 18.9293296,8.25767708 C18.6113344,7.86106567 18.3127256,7.51364019 18.0351193,7.21587029 C18.1980384,10.2839496 16.4216945,12.1638684 13.7492955,11.7685794 C11.042682,11.3682294 10.1670102,8.51664947 11.6308536,5.02191436 Z" id="↳-Icon-Color" fill="currentColor" fill-rule="nonzero"></path>
        </g>
    </g>
</svg>
