<svg xmlns="http://www.w3.org/2000/svg" width="28" height="28" fill="currentColor" viewBox="0 0 28 28"><path d="M6 3a1 1 0 0 1 1 1v1.33a6.023 6.023 0 0 0 3.773.02c1.72-.51 3.404-1.146 5.108-1.717 1.275-.425 2.575-.726 3.933-.607.837.073 1.763.396 2.494.833.468.28.692.815.692 1.36v9.84l-.008.051a.185.185 0 0 1-.276.105c-.166-.104-.32-.201-.47-.292-1.301-.742-2.819-.716-4.283-.427l-.315.058c-1.562.308-3.022.935-4.514 1.47-1.463.532-2.935 1.016-4.513.973-.551-.015-1.097-.158-1.621-.377V25a1 1 0 1 1-2 0V4a1 1 0 0 1 1-1Zm13.64 2.02c-.958-.085-1.952.12-3.126.511h-.001c-1.603.537-3.415 1.215-5.17 1.737l-.001-.001a8.022 8.022 0 0 1-4.091.202.205.205 0 0 0-.248.198c-.003 2.146-.004 4.288.002 6.43a.48.48 0 0 0 .238.418c.544.308 1.031.473 1.433.484 1.159.031 2.308-.32 3.775-.853l.007-.002c1.426-.513 3.258-1.299 5.174-1.62.94-.181 2.024-.292 3.136-.149a.205.205 0 0 0 .232-.201V5.549a.196.196 0 0 0-.112-.179 3.985 3.985 0 0 0-1.246-.351h-.002Z"/></svg>