<svg fill="none" height="28" viewBox="0 0 28 28" width="28" xmlns="http://www.w3.org/2000/svg"><path d="m11.0319 23.4877c-.6835 2.753.3428 3.3234 2.1788 1.3135l7.7121-8.8616c1.7843-2.1779 1.3374-3.9277-1.2322-4.3652l-3.7184-.6886c-.2172-.0402-.3607-.2489-.3204-.4661.0013-.0072.0028-.0143.0045-.0214l1.4309-5.9039c.6855-2.77051-.457-3.27224-2.1708-1.3089-2.4624 2.77644-4.3336 4.87382-5.61379 6.29215-.44631.49449-1.16472 1.26635-2.15522 2.31555-2.1708 2.4088-1.02829 4.1558 1.48258 4.5933l3.55363.637c.2174.039.3621.2469.3231.4643-.0015.0084-.0033.0167-.0053.0249z" fill="currentColor"/></svg>
