<svg xmlns="http://www.w3.org/2000/svg" width="28" height="28" fill="currentColor" viewBox="0 0 28 28"><path fill-rule="evenodd" d="M18.392 3.584c.052.525-.032 1.157-.22 1.863l-1.33 4.847 3.048.588c1.44.23 2.657.859 3.016 2.065.383 1.287-.41 2.57-1.232 3.495l-7.555 8.15c-.505.511-1.004.91-1.482 1.15-.447.223-1.098.409-1.705.08-.604-.328-.778-.957-.815-1.443-.04-.519.05-1.142.236-1.837l1.234-4.909-3.128-.518c-1.398-.224-2.726-.829-3.246-1.988-.627-1.398.259-2.836 1.22-3.821.742-.725 1.485-1.45 2.21-2.19 1.89-1.934 3.886-3.76 5.76-5.71.477-.503.961-.9 1.434-1.142.448-.227 1.086-.407 1.69-.103.611.309.815.923.865 1.423Zm-1.786.248c-.332.192-.616.467-.877.744a130.928 130.928 0 0 1-3.362 3.363l-.644.623c-.685.662-1.27 1.227-1.768 1.736a151.9 151.9 0 0 1-2.223 2.204c-1.016 1.044-.99 1.664-.866 1.942.294.654 1.273.868 1.894.968l3.655.604c.708.118 1.233.808 1.048 1.523l-1.364 5.421c-.103.386-.197.791-.191 1.193.221-.13.523-.365.897-.74l7.511-8.105c.855-.966.947-1.591.859-1.887-.178-.597-1.105-.76-1.609-.839l-3.578-.69c-.7-.127-1.21-.828-1.025-1.532l1.465-5.343c.146-.545.188-.934.178-1.185Z" clip-rule="evenodd"/></svg>
