<svg xmlns="http://www.w3.org/2000/svg" width="28" height="28" fill="currentColor" viewBox="0 0 28 28"><path fill-rule="evenodd" d="M16.949 12.316A1 1 0 0 1 16 13H4a1 1 0 0 1-1-1V3a1 1 0 0 1 1.6-.8l12 9a1 1 0 0 1 .349 1.116ZM5 5v6h8L5 5Zm20.507 3.507a1 1 0 0 1-1.414 0L23 7.414v13.172l1.093-1.093a1 1 0 0 1 1.414 1.414l-2.8 2.8a1 1 0 0 1-1.414 0l-2.8-2.8a1 1 0 0 1 1.414-1.414L21 20.586V7.414l-1.093 1.093a1 1 0 0 1-1.414-1.414l2.8-2.8a1 1 0 0 1 1.414 0l2.8 2.8a1 1 0 0 1 0 1.414Zm-8.558 7.177A1 1 0 0 1 16.6 16.8l-12 9A1 1 0 0 1 3 25v-9a1 1 0 0 1 1-1h12a1 1 0 0 1 .949.684ZM13 17H5v6l8-6Z" clip-rule="evenodd"/></svg>
