<svg xmlns="http://www.w3.org/2000/svg" width="28" height="28" fill="currentColor" viewBox="0 0 28 28"><path fill-rule="evenodd" d="M12.316 11.051A1 1 0 0 1 13 12v12a1 1 0 0 1-1 1H3a1 1 0 0 1-.8-1.6l9-12a1 1 0 0 1 1.116-.349ZM5 23h6v-8l-6 8ZM8.507 2.493a1 1 0 0 1 0 1.414L7.414 5h13.172l-1.093-1.093a1 1 0 0 1 1.414-1.414l2.8 2.8a1 1 0 0 1 0 1.414l-2.8 2.8a1 1 0 1 1-1.414-1.414L20.586 7H7.414l1.093 1.093a1 1 0 0 1-1.414 1.414l-2.8-2.8a1 1 0 0 1 0-1.414l2.8-2.8a1 1 0 0 1 1.414 0Zm7.177 8.558a1 1 0 0 1 1.116.349l9 12A1 1 0 0 1 25 25h-9a1 1 0 0 1-1-1V12a1 1 0 0 1 .684-.949ZM17 15v8h6l-6-8Z" clip-rule="evenodd"/></svg>
