<svg xmlns="http://www.w3.org/2000/svg" width="28" height="28" fill="currentColor" viewBox="0 0 28 28"><path fill-rule="evenodd" d="M9.405 5.028C9.317 5.006 9.211 5 8.675 5H8.6c-.997 0-1.684 0-2.217.044-.522.043-.808.122-1.018.228a2.5 2.5 0 0 0-1.093 1.093c-.106.21-.185.496-.228 1.018C4.001 7.916 4 8.603 4 9.6v7.8c0 .997 0 1.684.044 2.217.043.522.122.808.228 1.018a2.5 2.5 0 0 0 1.093 1.092c.21.107.496.186 1.018.229.533.043 1.22.044 2.217.044h10.8c.997 0 1.684 0 2.217-.044.522-.043.808-.122 1.018-.229a2.5 2.5 0 0 0 1.092-1.092c.107-.21.186-.496.229-1.018.043-.533.044-1.22.044-2.217v-4.8c0-.997 0-1.684-.044-2.217-.043-.522-.122-.808-.229-1.018a2.5 2.5 0 0 0-1.092-1.093c-.21-.106-.496-.185-1.018-.228C21.084 8.001 20.397 8 19.4 8h-5.158c-.407 0-.766 0-1.114-.083a3 3 0 0 1-.867-.36c-.306-.186-.559-.44-.846-.728l-.06-.06-1.125-1.125c-.38-.38-.458-.45-.536-.497a1 1 0 0 0-.289-.12ZM8.758 3c.407 0 .765 0 1.114.083a3 3 0 0 1 .867.36c.306.186.559.44.846.728l.06.06 1.125 1.125c.38.38.459.45.536.497a1 1 0 0 0 .289.12c.088.02.194.027.73.027h5.117c.945 0 1.714 0 2.338.051.646.053 1.224.165 1.763.44a4.5 4.5 0 0 1 1.966 1.966c.275.539.387 1.117.44 1.763.051.624.051 1.393.051 2.338v4.884c0 .945 0 1.714-.051 2.338-.053.646-.165 1.224-.44 1.763a4.5 4.5 0 0 1-1.966 1.966c-.539.275-1.117.387-1.763.44-.624.051-1.393.051-2.338.051H8.558c-.944 0-1.714 0-2.338-.051-.646-.053-1.224-.165-1.763-.44a4.5 4.5 0 0 1-1.967-1.966c-.274-.539-.386-1.117-.439-1.763C2 19.156 2 18.387 2 17.442V9.558c0-.944 0-1.714.051-2.338.053-.646.165-1.224.44-1.763A4.5 4.5 0 0 1 4.456 3.49c.539-.274 1.117-.386 1.763-.439C6.844 3 7.614 3 8.558 3h.2Z" clip-rule="evenodd"/></svg>
