<svg xmlns="http://www.w3.org/2000/svg" width="28" height="28" fill="currentColor" viewBox="0 0 28 28"><path fill-rule="evenodd" d="M6.248 3.981 6 4.95c.248-.969.249-.969.25-.968h.003l.009.003.025.007.083.023c.07.02.167.05.289.09.243.081.583.205.989.38.808.35 1.887.913 2.97 1.767 1.268.998 2.538 2.394 3.382 4.29.844-1.896 2.113-3.292 3.381-4.29a13.55 13.55 0 0 1 2.971-1.766 12.097 12.097 0 0 1 1.278-.47 4.8 4.8 0 0 1 .083-.024l.025-.007.009-.002.003-.001c.001 0 .002 0 .25.968l-.248-.969a1 1 0 0 1 .975.283A11.962 11.962 0 0 1 26 12.5c0 6.627-5.373 12-12 12s-12-5.373-12-12c0-3.188 1.245-6.088 3.273-8.236a1 1 0 0 1 .975-.283Zm15.44 2.123a11.551 11.551 0 0 0-3.069 1.72C16.806 9.25 15 11.617 15 15.5a1 1 0 1 1-2 0c0-3.882-1.806-6.25-3.619-7.677a11.551 11.551 0 0 0-3.068-1.72A9.956 9.956 0 0 0 4 12.5c0 5.523 4.477 10 10 10s10-4.477 10-10a9.956 9.956 0 0 0-2.313-6.396Z" clip-rule="evenodd"/></svg>
