<svg fill="none" height="28" viewBox="0 0 28 28" width="28" xmlns="http://www.w3.org/2000/svg"><g fill="currentColor"><path d="m14.7071 2.29289c-.3905-.39052-1.0237-.39052-1.4142 0-.3905.39053-.3905 1.02369 0 1.41422l1.3 1.30103c-.1899-.01075-.4005-.00814-.5929-.00814-2.7611 0-5.26252 1.12038-7.07107 2.92893s-2.92893 4.30997-2.92893 7.07107 1.12038 5.2625 2.92893 7.0711c1.80855 1.8085 4.30997 2.9289 7.07107 2.9289s5.2625-1.1204 7.0711-2.9289c1.8085-1.8086 2.9289-4.31 2.9289-7.0711 0-.5523-.4477-1-1-1s-1 .4477-1 1c0 2.2094-.8943 4.208-2.3431 5.6569-1.4489 1.4488-3.4475 2.3431-5.6569 2.3431s-4.20804-.8943-5.65685-2.3431c-1.44882-1.4489-2.34315-3.4475-2.34315-5.6569s.89433-4.208 2.34315-5.65685c1.44881-1.44881 3.44745-2.34315 5.65685-2.34315.1901 0 .3785.00661.565.0196l-1.2721 1.27329c-.3905.39053-.3905 1.02369 0 1.41422.3905.39049 1.0237.39049 1.4142 0l3-3c.3905-.39053.3905-1.02369 0-1.41422z"/><path clip-rule="evenodd" d="m16.25 12c1.5438 0 2.7537.868 2.75 3.5s-1.2062 3.5-2.75 3.5-2.7527-.868-2.75-3.5 1.2062-3.5 2.75-3.5zm0 1.5292c-.7721 0-1.1527.5064-1.1527 2.0364s.3737 2.0363 1.1527 2.0363 1.1591-.5057 1.1591-2.0363c0-1.5307-.387-2.0364-1.1591-2.0364z" fill-rule="evenodd"/><path d="m10.3619 18.5669c0 .2392.1982.4331.4427.4331h.7527c.2445 0 .4427-.1939.4427-.4331v-6.0623c0-.31-.3233-.5196-.6152-.3989l-2.11453.9656c-.16382.0678-.27027.2249-.27027.3989v.602c0 .2442.25133.4118.48368.3225l.87822-.4217z"/></g></svg>
