<svg fill="none" height="28" viewBox="0 0 28 28" width="28" xmlns="http://www.w3.org/2000/svg"><path clip-rule="evenodd" d="m13.7082 6.11809v-2.2097c0-.07549.0209-.14951.0604-.21382.1181-.19213.3696-.25214.5617-.13405l5.0186 3.0847c.0546.03355.1005.07947.134.13405.1181.19212.0581.4436-.134.56169l-5.0186 3.08474c-.0643.0395-.1383.0604-.2138.0604-.2255 0-.4083-.1828-.4083-.4083v-2.20971c-4.02711 0-7.2917 3.26461-7.2917 7.29171 0 4.027 3.26459 7.2916 7.2917 7.2916 3.5211 0 6.5218-2.5144 7.1655-5.9333.0894-.4749.5469-.7874 1.0218-.698.4749.0895.7874.5469.698 1.0218-.7987 4.2423-4.5187 7.3595-8.8853 7.3595-4.9936 0-9.0417-4.0481-9.0417-9.0416 0-4.9936 4.0481-9.04171 9.0417-9.04171zm1.97 5.98201c1.4239 0 2.5816.8184 2.5781 3.3-.0034 2.4816-1.1542 3.3-2.5781 3.3-1.4238 0-2.5806-.8184-2.5781-3.3s1.1543-3.3 2.5781-3.3zm.003 1.4418c-.7121 0-1.1079.4774-1.1079 1.92s.3894 1.92 1.1079 1.92 1.1078-.4768 1.1078-1.92-.3957-1.92-1.1078-1.92zm-5.1477 4.5928c0 .2256.1828.4084.4084.4084h.6942c.2255 0 .4083-.1828.4083-.4084v-5.5589c0-.2923-.2982-.4899-.5674-.3761l-2.15253.9104c-.1511.0639-.24927.2121-.24927.3761v.5676c0 .2303.2318.3883.4461.3041l1.0122-.3976z" fill="currentColor" fill-rule="evenodd"/></svg>
