<?xml version="1.0" encoding="UTF-8"?>
<svg width="28px" height="28px" viewBox="0 0 28 28" version="1.1" xmlns="http://www.w3.org/2000/svg" xmlns:xlink="http://www.w3.org/1999/xlink">
    <!-- Generator: Sketch 63.1 (92452) - https://sketch.com -->
    <title>game_outline_28</title>
    <desc>Created with Sketch.</desc>
    <g id="Page-1" stroke="none" stroke-width="1" fill="none" fill-rule="evenodd">
        <g id="game_outline_28">
            <polygon points="0 0 28 0 28 28 0 28"></polygon>
            <path d="M18,5 C24.3714027,5 27,9.96512829 27,16 C27,20.4811087 25.7404242,23 23,23 C21.8590807,23 21.103222,22.5188803 20.2417909,21.5066418 L20.0789156,21.3106108 C19.9870421,21.1975358 19.6270199,20.7421421 19.536386,20.6305926 L19.3797603,20.4421077 C18.501741,19.410772 17.772121,19 16.5,19 L11.5,19 C10.227879,19 9.49825895,19.410772 8.62023968,20.4421077 L8.463614,20.6305926 C8.37298005,20.7421421 8.01295786,21.1975358 7.92108441,21.3106108 L7.75820912,21.5066418 C6.896778,22.5188803 6.14091932,23 5,23 C2.25928802,23 1,20.481424 1,16 C1,9.96512829 3.62859733,5 10,5 L18,5 Z M18,7 L10,7 C5.07728502,7 3,10.9237606 3,16 C3,19.518576 3.74071198,21 5,21 C5.42045833,21 5.73066549,20.8058994 6.237794,20.207555 L6.79498536,19.5145899 L7.08766871,19.1572273 C8.32064124,17.7073518 9.54424925,17 11.5,17 L16.5,17 C18.4557507,17 19.6793588,17.7073518 20.9123313,19.1572273 L21.088614,19.3694074 L21.762206,20.207555 C22.2693345,20.8058994 22.5795417,21 23,21 C24.2590592,21 25,19.5182715 25,16 C25,10.9237606 22.922715,7 18,7 Z M9.5122699,9.5 C9.70348862,9.5 9.86036791,9.53713024 9.99073828,9.60685308 C10.1211087,9.67657592 10.2234241,9.77889135 10.2931469,9.90926172 C10.3628698,10.0396321 10.4,10.1965114 10.4,10.3877301 L10.399,11.599 L11.6122699,11.6 C11.8034886,11.6 11.9603679,11.6371302 12.0907383,11.7068531 C12.2211087,11.7765759 12.3234241,11.8788913 12.3931469,12.0092617 C12.4628698,12.1396321 12.5,12.2965114 12.5,12.4877301 L12.5,12.5122699 C12.5,12.7034886 12.4628698,12.8603679 12.3931469,12.9907383 C12.3234241,13.1211087 12.2211087,13.2234241 12.0907383,13.2931469 C11.9603679,13.3628698 11.8034886,13.4 11.6122699,13.4 L10.399,13.399 L10.4,14.6122699 C10.4,14.8034886 10.3628698,14.9603679 10.2931469,15.0907383 C10.2234241,15.2211087 10.1211087,15.3234241 9.99073828,15.3931469 C9.86036791,15.4628698 9.70348862,15.5 9.5122699,15.5 L9.4877301,15.5 C9.29651138,15.5 9.13963209,15.4628698 9.00926172,15.3931469 C8.87889135,15.3234241 8.77657592,15.2211087 8.70685308,15.0907383 C8.63713024,14.9603679 8.6,14.8034886 8.6,14.6122699 L8.599,13.399 L7.3877301,13.4 C7.19651138,13.4 7.03963209,13.3628698 6.90926172,13.2931469 C6.77889135,13.2234241 6.67657592,13.1211087 6.60685308,12.9907383 C6.53713024,12.8603679 6.5,12.7034886 6.5,12.5122699 L6.5,12.4877301 C6.5,12.2965114 6.53713024,12.1396321 6.60685308,12.0092617 C6.67657592,11.8788913 6.77889135,11.7765759 6.90926172,11.7068531 C7.03963209,11.6371302 7.19651138,11.6 7.3877301,11.6 L8.599,11.599 L8.6,10.3877301 C8.6,10.1965114 8.63713024,10.0396321 8.70685308,9.90926172 C8.77657592,9.77889135 8.87889135,9.67657592 9.00926172,9.60685308 C9.13963209,9.53713024 9.29651138,9.5 9.4877301,9.5 L9.5122699,9.5 Z M18.5736194,13.5 C18.8112187,13.5 18.9603679,13.5371302 19.0907383,13.6068531 C19.2211087,13.6765759 19.3234241,13.7788913 19.3931469,13.9092617 C19.4628698,14.0396321 19.5,14.1887813 19.5,14.4263806 L19.5,14.5736194 C19.5,14.8112187 19.4628698,14.9603679 19.3931469,15.0907383 C19.3234241,15.2211087 19.2211087,15.3234241 19.0907383,15.3931469 C18.9603679,15.4628698 18.8112187,15.5 18.5736194,15.5 L18.4263806,15.5 C18.1887813,15.5 18.0396321,15.4628698 17.9092617,15.3931469 C17.7788913,15.3234241 17.6765759,15.2211087 17.6068531,15.0907383 C17.5371302,14.9603679 17.5,14.8112187 17.5,14.5736194 L17.5,14.4263806 C17.5,14.1887813 17.5371302,14.0396321 17.6068531,13.9092617 C17.6765759,13.7788913 17.7788913,13.6765759 17.9092617,13.6068531 C18.0396321,13.5371302 18.1887813,13.5 18.4263806,13.5 L18.5736194,13.5 Z M16.5736194,11.5 C16.8112187,11.5 16.9603679,11.5371302 17.0907383,11.6068531 C17.2211087,11.6765759 17.3234241,11.7788913 17.3931469,11.9092617 C17.4628698,12.0396321 17.5,12.1887813 17.5,12.4263806 L17.5,12.5736194 C17.5,12.8112187 17.4628698,12.9603679 17.3931469,13.0907383 C17.3234241,13.2211087 17.2211087,13.3234241 17.0907383,13.3931469 C16.9603679,13.4628698 16.8112187,13.5 16.5736194,13.5 L16.4263806,13.5 C16.1887813,13.5 16.0396321,13.4628698 15.9092617,13.3931469 C15.7788913,13.3234241 15.6765759,13.2211087 15.6068531,13.0907383 C15.5371302,12.9603679 15.5,12.8112187 15.5,12.5736194 L15.5,12.4263806 C15.5,12.1887813 15.5371302,12.0396321 15.6068531,11.9092617 C15.6765759,11.7788913 15.7788913,11.6765759 15.9092617,11.6068531 C16.0396321,11.5371302 16.1887813,11.5 16.4263806,11.5 L16.5736194,11.5 Z M20.5736194,11.5 C20.8112187,11.5 20.9603679,11.5371302 21.0907383,11.6068531 C21.2211087,11.6765759 21.3234241,11.7788913 21.3931469,11.9092617 C21.4628698,12.0396321 21.5,12.1887813 21.5,12.4263806 L21.5,12.5736194 C21.5,12.8112187 21.4628698,12.9603679 21.3931469,13.0907383 C21.3234241,13.2211087 21.2211087,13.3234241 21.0907383,13.3931469 C20.9603679,13.4628698 20.8112187,13.5 20.5736194,13.5 L20.4263806,13.5 C20.1887813,13.5 20.0396321,13.4628698 19.9092617,13.3931469 C19.7788913,13.3234241 19.6765759,13.2211087 19.6068531,13.0907383 C19.5371302,12.9603679 19.5,12.8112187 19.5,12.5736194 L19.5,12.4263806 C19.5,12.1887813 19.5371302,12.0396321 19.6068531,11.9092617 C19.6765759,11.7788913 19.7788913,11.6765759 19.9092617,11.6068531 C20.0396321,11.5371302 20.1887813,11.5 20.4263806,11.5 L20.5736194,11.5 Z M18.5736194,9.5 C18.8112187,9.5 18.9603679,9.53713024 19.0907383,9.60685308 C19.2211087,9.67657592 19.3234241,9.77889135 19.3931469,9.90926172 C19.4628698,10.0396321 19.5,10.1887813 19.5,10.4263806 L19.5,10.5736194 C19.5,10.8112187 19.4628698,10.9603679 19.3931469,11.0907383 C19.3234241,11.2211087 19.2211087,11.3234241 19.0907383,11.3931469 C18.9603679,11.4628698 18.8112187,11.5 18.5736194,11.5 L18.4263806,11.5 C18.1887813,11.5 18.0396321,11.4628698 17.9092617,11.3931469 C17.7788913,11.3234241 17.6765759,11.2211087 17.6068531,11.0907383 C17.5371302,10.9603679 17.5,10.8112187 17.5,10.5736194 L17.5,10.4263806 C17.5,10.1887813 17.5371302,10.0396321 17.6068531,9.90926172 C17.6765759,9.77889135 17.7788913,9.67657592 17.9092617,9.60685308 C18.0396321,9.53713024 18.1887813,9.5 18.4263806,9.5 L18.5736194,9.5 Z" id="↳-Icon-Color" fill="currentColor" fill-rule="nonzero"></path>
            <g id="old" transform="translate(1.000000, 5.000000)"></g>
        </g>
    </g>
</svg>
