<svg xmlns="http://www.w3.org/2000/svg" width="28" height="28" fill="currentColor" viewBox="0 0 28 28"><path fill-rule="evenodd" d="M14 2C7.925 2 3 6.925 3 13v9.08c0 .6.178 1.187.51 1.686a2.765 2.765 0 0 0 3.767.811l.562-.351a2.069 2.069 0 0 1 2.283.06l1.267.886a4.553 4.553 0 0 0 5.222 0l1.267-.887a2.07 2.07 0 0 1 2.283-.06l.562.352a2.765 2.765 0 0 0 3.766-.81c.333-.5.511-1.087.511-1.688V13c0-6.075-4.925-11-11-11Zm-2.5 10.751A1.75 1.75 0 1 0 8 12.75a1.75 1.75 0 0 0 3.5.001Zm5.743 4.563a1 1 0 0 0-1.412-.074c-1.034.93-2.065.93-3.115.363a3.076 3.076 0 0 1-.547-.363l-.099-.078a1 1 0 0 0-1.239 1.565c.194.175.51.408.935.637 1.727.934 3.66.934 5.403-.637a1 1 0 0 0 .074-1.413Zm2.926-5.05c-1.05-.941-2.24-.941-3.274-.385-.25.134-.44.273-.564.385a.994.994 0 0 0-.074 1.408c.34.377.906.435 1.313.152l.099-.078c.014-.013.08-.061.177-.113.32-.173.587-.19.885.03l.1.083c.41.368 1.043.335 1.412-.074a.994.994 0 0 0-.074-1.408Z" clip-rule="evenodd"/></svg>
