<svg xmlns="http://www.w3.org/2000/svg" width="28" height="28" fill="currentColor" viewBox="0 0 28 28"><path fill-rule="evenodd" d="M11.6 6h4.8c1.713 0 2.878.002 3.778.075.877.072 1.325.202 1.638.361a4 4 0 0 1 1.748 1.748c.16.313.29.761.36 1.638.074.9.076 2.065.076 3.778v.8c0 1.713-.002 2.878-.075 3.778-.072.877-.202 1.325-.361 1.638a4 4 0 0 1-1.748 1.748c-.313.16-.761.29-1.638.36-.9.074-2.065.076-3.778.076h-4.8c-1.713 0-2.878-.002-3.778-.075-.877-.072-1.325-.202-1.638-.361a4 4 0 0 1-1.748-1.748c-.16-.313-.29-.761-.36-1.638C4.001 17.278 4 16.113 4 14.4v-.8c0-1.713.002-2.878.075-3.778.072-.877.202-1.325.361-1.638a4 4 0 0 1 1.748-1.748c.313-.16.761-.29 1.638-.36C8.722 6.001 9.887 6 11.6 6ZM2 13.6c0-3.36 0-5.04.654-6.324a6 6 0 0 1 2.622-2.622C6.56 4 8.24 4 11.6 4h4.8c3.36 0 5.04 0 6.324.654a6 6 0 0 1 2.622 2.622C26 8.56 26 10.24 26 13.6v.8c0 3.36 0 5.04-.654 6.324a6 6 0 0 1-2.622 2.622C21.44 24 19.76 24 16.4 24h-4.8c-3.36 0-5.04 0-6.324-.654a6 6 0 0 1-2.622-2.622C2 19.44 2 17.76 2 14.4v-.8ZM9.244 10c-.988 0-1.793.37-2.351.974S6 12.43 6 13.485v1.003c0 1.086.331 1.965.892 2.573.562.608 1.378.936 2.394.936.905 0 1.669-.286 2.207-.789.539-.504.847-1.22.847-2.07v-.457c0-.36-.079-.638-.263-.825-.184-.186-.457-.266-.815-.266H9.968c-.243 0-.44.059-.58.184a.694.694 0 0 0-.238.526c0 .226.11.418.25.546.139.127.327.154.568.154h.576v.25c0 .323-.119.615-.323.802-.205.187-.502.298-.866.298-.468 0-.821-.165-1.06-.473-.24-.31-.372-.777-.372-1.395v-.909c0-.627.13-1.091.37-1.398.238-.303.595-.464 1.078-.464.635 0 1.009.39 1.431.83l.022.024a.743.743 0 0 0 .57.254.769.769 0 0 0 .563-.226c.14-.145.207-.357.207-.593 0-.47-.322-.969-.805-1.333-.544-.425-1.284-.667-2.115-.667Zm5.37 0c-.296 0-.535.09-.7.277-.165.185-.246.422-.246.749v5.897c0 .325.084.584.251.77.168.186.41.307.705.307a.908.908 0 0 0 .696-.308c.163-.185.244-.442.244-.769v-5.897c0-.325-.082-.563-.248-.75-.166-.185-.407-.276-.702-.276Zm2.636.45c.188-.195.51-.286.85-.286h3.113c.444 0 .787.345.787.815a.772.772 0 0 1-.787.799H19v1.653h1.967a.68.68 0 0 1 .521.218.82.82 0 0 1 .237.57c0 .23-.1.428-.237.569a.68.68 0 0 1-.52.212H19v1.923c0 .326-.035.592-.197.777-.162.186-.513.3-.803.3-.298 0-.58-.113-.75-.3-.169-.186-.25-.455-.25-.777v-5.64c0-.35.062-.638.25-.833Z" clip-rule="evenodd"/></svg>
