<svg fill="none" height="28" viewBox="0 0 28 28" width="28" xmlns="http://www.w3.org/2000/svg" xmlns:xlink="http://www.w3.org/1999/xlink"><linearGradient id="a" gradientUnits="userSpaceOnUse" x1="-14" x2="14" y1="14" y2="42"><stop offset="0" stop-color="#ffb73d"/><stop offset="1" stop-color="#ffa000"/></linearGradient><path d="m0 14c0-7.73199 6.26801-14 14-14 7.732 0 14 6.26801 14 14 0 7.732-6.268 14-14 14-7.73199 0-14-6.268-14-14z" fill="url(#a)"/><path d="m12.609 16.4999c.2229 0 .3037.0232.3852.0668s.1454.1075.189.189.0668.1623.0668.3852v3.218c0 .2229-.0232.3037-.0668.3852s-.1075.1455-.189.189c-.0815.0436-.1623.0668-.3852.0668h-2.0066c-.5572 0-.75922-.058-.96293-.1669-.2037-.109-.36357-.2689-.47251-.4726s-.16696-.4057-.16696-.9629v-2.2566c0-.2229.02321-.3037.06678-.3852.04358-.0815.10753-.1454.18901-.189s.1623-.0668.38518-.0668zm5.75 0c.2229 0 .3037.0232.3852.0668s.1454.1075.189.189.0668.1623.0668.3852v2.2477c0 .5562-.0578.7579-.1663.9614s-.2678.3633-.471.4724c-.2031.1092-.4046.1676-.9609.1693l-2.1503.0067c-.2454.0007-.4501-.1755-.4932-.4086l-.0083-.0899c0-.0005 0-.001 0-.0015v-3.3575c0-.2229.0232-.3037.0668-.3852s.1075-.1454.189-.189.1623-.0668.3852-.0668zm-5.75-5.5c.2229 0 .3037.0232.3852.0668s.1454.1075.189.189.0668.1623.0668.3852v2.718c0 .2229-.0232.3037-.0668.3852s-.1075.1455-.189.189c-.0815.0436-.1623.0668-.3852.0668h-3.96803c-.22288 0-.3037-.0232-.38518-.0668-.08148-.0435-.14543-.1075-.18901-.189-.04357-.0815-.06678-.1623-.06678-.3852v-1.7566c0-.5572.05802-.7592.16696-.9629s.26881-.3636.47251-.4725c.20371-.109.40576-.167.96296-.167zm5.7886 0c.5572 0 .7592.058.9629.167.2037.1089.3636.2688.4725.4725.109.2037.167.4057.167.9629v1.7566c0 .2229-.0232.3037-.0668.3852s-.1075.1455-.189.189c-.0815.0436-.1623.0668-.3852.0668h-3.968c-.2229 0-.3037-.0232-.3852-.0668-.0815-.0435-.1454-.1075-.189-.189s-.0668-.1623-.0668-.3852v-2.718c0-.2229.0232-.3037.0668-.3852s.1075-.1454.189-.189.1623-.0668.3852-.0668zm-4.3976-.99999c-4.25 0-4.75-2.75-3.75-3.75s3.75-.5 3.75 3.75zm0 0c0-4.25 2.75-4.7521 3.75-3.7521s.5 3.7521-3.75 3.7521z" fill="#fff"/></svg>
