<svg xmlns="http://www.w3.org/2000/svg" width="28" height="28" viewBox="0 0 28 28" fill="currentColor"><path fill-rule="evenodd" d="M22 18a5 5 0 1 1 0 10 5 5 0 0 1 0-10m-.232 1.875a.626.626 0 0 0-.625.625v2.871c0 .262.164.495.41.586l2.384.88a.626.626 0 0 0 .433-1.174l-1.977-.729V20.5a.625.625 0 0 0-.625-.625" clip-rule="evenodd"/><path fill-rule="evenodd" d="M15.538 3.277c1.477-1.046 3.38-1.02 4.555.155 1.174 1.174 1.201 3.078.155 4.555q-.211.297-.476.569h1.034c.765 0 1.493.171 2.126.525a3.7 3.7 0 0 1 1.432 1.433c.354.632.525 1.36.525 2.126v.405c0 .856-.095 1.487-.415 2.086-.264.493-.597.834-1.143 1.158-.669.397-1.166.433-1.944.433h-6.42v6.22c0 1.073-.87 1.944-1.944 1.944h-.272c-2.83 0-4.246 0-5.327-.551a5.05 5.05 0 0 1-2.208-2.208c-.55-1.081-.552-2.497-.552-5.327v-.514a2.84 2.84 0 0 1-1.137-1.155c-.32-.599-.416-1.23-.416-2.086v-.405c0-.766.172-1.494.526-2.126A3.7 3.7 0 0 1 5.069 9.08c.632-.353 1.36-.525 2.125-.525h1.034a5 5 0 0 1-.475-.569c-1.046-1.477-1.02-3.38.154-4.555 1.175-1.175 3.078-1.2 4.555-.155.597.423 1.122 1.01 1.538 1.759.416-.749.941-1.336 1.538-1.759M6.61 16.8c0 1.447.001 2.416.062 3.16.059.723.165 1.063.277 1.284a3.1 3.1 0 0 0 1.359 1.358c.22.113.56.218 1.283.277.745.06 1.714.062 3.161.062h.272v-6.218H6.61zm.585-6.3c-.475 0-.869.106-1.176.278a1.76 1.76 0 0 0-.684.685c-.172.307-.278.701-.278 1.177v.405c0 .714.082.976.185 1.169a.9.9 0 0 0 .38.379c.184.099.433.178 1.088.184h6.314V10.5zm7.774 4.277h6.323c.655-.006.905-.085 1.09-.184a.9.9 0 0 0 .378-.38c.103-.192.185-.453.185-1.168v-.405c0-.476-.105-.87-.277-1.177a1.76 1.76 0 0 0-.685-.685c-.307-.172-.701-.278-1.176-.278h-5.838zm-3.63-9.913c-.856-.606-1.675-.438-2.056-.057-.38.38-.548 1.2.058 2.056.51.72 1.628 1.49 3.682 1.683-.194-2.054-.965-3.172-1.684-3.682m7.38-.057c-.38-.381-1.2-.55-2.056.057-.72.51-1.49 1.628-1.682 3.682 2.053-.193 3.172-.964 3.681-1.683.606-.856.438-1.676.058-2.056" clip-rule="evenodd"/></svg>