<svg fill="none" height="28" viewBox="0 0 28 28" width="28" xmlns="http://www.w3.org/2000/svg" xmlns:xlink="http://www.w3.org/1999/xlink"><linearGradient id="a" gradientUnits="userSpaceOnUse" x1="-14" x2="14" y1="14" y2="42"><stop offset="0" stop-color="#ff5263"/><stop offset="1" stop-color="#ff3347"/></linearGradient><path d="m0 14c0-7.73199 6.26801-14 14-14 7.732 0 14 6.26801 14 14 0 7.732-6.268 14-14 14-7.73199 0-14-6.268-14-14z" fill="url(#a)"/><path d="m12.609 16.5c.2229 0 .3037.0232.3852.0668.0815.0435.1454.1075.189.189.0436.0814.0668.1623.0668.3851v3.2181c0 .2229-.0232.3037-.0668.3852s-.1075.1454-.189.189-.1623.0668-.3852.0668h-2.0066c-.5572 0-.75922-.058-.96293-.167-.2037-.1089-.36357-.2688-.47251-.4725s-.16696-.4058-.16696-.963v-2.2566c0-.2228.02321-.3037.06678-.3851.04358-.0815.10753-.1455.18901-.189.08148-.0436.1623-.0668.38518-.0668zm5.75 0c.2229 0 .3037.0232.3852.0668.0815.0435.1454.1075.189.189.0436.0814.0668.1623.0668.3851v2.2478c0 .5562-.0578.7579-.1663.9614-.1085.2034-.2678.3632-.471.4724-.2031.1092-.4046.1675-.9609.1693l-2.1503.0066c-.2454.0008-.4501-.1755-.4932-.4086l-.0083-.0898c0-.0005 0-.0011 0-.0016v-3.3575c0-.2228.0232-.3037.0668-.3851.0436-.0815.1075-.1455.189-.189.0815-.0436.1623-.0668.3852-.0668zm-5.75-5.5c.2229 0 .3037.0232.3852.0668.0815.0435.1454.1075.189.189.0436.0814.0668.1623.0668.3851v2.7181c0 .2229-.0232.3037-.0668.3852s-.1075.1454-.189.189-.1623.0668-.3852.0668h-3.96803c-.22288 0-.3037-.0232-.38518-.0668s-.14543-.1075-.18901-.189c-.04357-.0815-.06678-.1623-.06678-.3852v-1.7566c0-.5572.05802-.7593.16696-.963s.26881-.3635.47251-.4725c.20371-.1089.40576-.1669.96296-.1669zm5.7886 0c.5572 0 .7592.058.9629.1669.2037.109.3636.2688.4725.4725.109.2037.167.4058.167.963v1.7566c0 .2229-.0232.3037-.0668.3852s-.1075.1454-.189.189-.1623.0668-.3852.0668h-3.968c-.2229 0-.3037-.0232-.3852-.0668s-.1454-.1075-.189-.189-.0668-.1623-.0668-.3852v-2.7181c0-.2228.0232-.3037.0668-.3851.0436-.0815.1075-.1455.189-.189.0815-.0436.1623-.0668.3852-.0668zm-4.3976-1.00003c-4.25 0-4.75-2.75-3.75-3.75s3.75-.5 3.75 3.75zm0 0c0-4.25 2.75-4.75209 3.75-3.75209s.5 3.75209-3.75 3.75209z" fill="#fff"/></svg>
