<svg xmlns="http://www.w3.org/2000/svg" width="28" height="28" fill="currentColor" viewBox="0 0 28 28"><path fill-rule="evenodd" d="M12.119 4.173a10.017 10.017 0 0 0-6.835 4.92h4.58a20.109 20.109 0 0 1 2.255-4.92Zm-.701 6.92h6.004a1 1 0 0 0 .933-1.36c-.576-1.922-1.474-3.927-2.416-5.55a10.024 10.024 0 0 1 7.41 6.231l.012.035a1 1 0 1 0 1.87-.71l-.016-.042c-1.73-4.503-6.095-7.701-11.21-7.701C7.375 1.996 2 7.37 2 14c0 5.126 3.212 9.499 7.73 11.22a1 1 0 0 0 .712-1.868 10.04 10.04 0 0 1-5.158-4.445H9.5a1 1 0 1 0 0-2H4.429A10.005 10.005 0 0 1 4 14c0-1.011.15-1.987.429-2.907h4.95a17.64 17.64 0 0 0-.271 2.373l-.004.083a1.192 1.192 0 0 0 .003.145 1 1 0 1 0 1.997-.107l.002-.029c.039-.852.148-1.675.312-2.465Zm2.618-6.2a25.223 25.223 0 0 1 1.999 4.2h-4.071a18.207 18.207 0 0 1 2.072-4.2ZM19.5 26.5a7 7 0 1 0 0-14 7 7 0 0 0 0 14Zm3.457-9.043a1 1 0 0 0-1.414-1.414L19.5 18.086l-2.043-2.043a1 1 0 0 0-1.414 1.414l2.043 2.043-2.043 2.043a1 1 0 0 0 1.414 1.414l2.043-2.043 2.043 2.043a1 1 0 0 0 1.414-1.414L20.914 19.5l2.043-2.043Z" clip-rule="evenodd"/></svg>
