<svg xmlns="http://www.w3.org/2000/svg" width="28" height="28" viewBox="0 0 28 28" fill="currentColor"><path fill-rule="evenodd" d="M14.003 2H14C7.373 2 2 7.373 2 14s5.373 12 12 12 12-5.373 12-12S20.629 2.001 14.003 2m2.31 21.731A10.02 10.02 0 0 0 22.664 19H18.38a16.6 16.6 0 0 1-1.503 3.796 15 15 0 0 1-.562.935M18.786 17h4.757A10 10 0 0 0 24 14a10 10 0 0 0-.458-3h-4.757c.136.924.215 1.924.215 3s-.079 2.076-.215 3m-2.024-6c.15.91.239 1.909.239 3s-.089 2.09-.239 3H11.24c-.15-.91-.239-1.909-.239-3s.089-2.09.239-3zm1.618-2h4.283a10.02 10.02 0 0 0-6.348-4.731q.277.422.562.935A16.5 16.5 0 0 1 18.379 9m-6.693-4.731A10.02 10.02 0 0 0 5.338 9H9.62c.401-1.529.95-2.791 1.503-3.796q.285-.512.562-.935M11.698 9c.338-1.131.76-2.072 1.178-2.83.403-.73.804-1.293 1.124-1.692.32.399.72.961 1.124 1.693.418.757.84 1.698 1.178 2.829zm-2.483 2H4.458A10 10 0 0 0 4 14c0 1.045.16 2.053.458 3h4.757A20.6 20.6 0 0 1 9 14c0-1.076.079-2.076.215-3m.406 8H5.338a10.02 10.02 0 0 0 6.348 4.731 15 15 0 0 1-.562-.935A16.5 16.5 0 0 1 9.621 19m2.077 0h4.604a14.3 14.3 0 0 1-1.178 2.83A12 12 0 0 1 14 23.521c-.32-.399-.72-.961-1.124-1.693A14.3 14.3 0 0 1 11.698 19" clip-rule="evenodd"/></svg>