<svg xmlns="http://www.w3.org/2000/svg" width="28" height="28" fill="none" viewBox="0 0 28 28"><rect width="28" height="28" fill="url(#a)" rx="14"/><path fill="#fff" fill-rule="evenodd" d="M11.536 11.498a19.127 19.127 0 0 0-.161 2.5c0 .848.054 1.691.161 2.499h4.928c.107-.808.161-1.651.161-2.5 0-.848-.054-1.692-.161-2.499h-4.928Z" clip-rule="evenodd"/><path fill="#fff" fill-rule="evenodd" d="M21.602 16.497a7.989 7.989 0 0 0 .398-2.5c0-.872-.14-1.713-.398-2.499h-3.626c.1.82.149 1.662.149 2.5 0 .837-.05 1.68-.15 2.499h3.627Zm-.672 1.5h-3.2c-.131.622-.294 1.22-.491 1.779a9.249 9.249 0 0 1-.883 1.866 8.02 8.02 0 0 0 4.574-3.646Zm-9.286 3.645a9.249 9.249 0 0 1-.883-1.866 14.06 14.06 0 0 1-.49-1.78h-3.2a8.02 8.02 0 0 0 4.573 3.646Zm-5.246-5.145a7.988 7.988 0 0 1-.398-2.5c0-.872.14-1.713.398-2.499h3.626c-.1.82-.149 1.662-.149 2.5 0 .837.05 1.68.15 2.499H6.397Zm.672-6.498h3.2c.131-.623.295-1.221.491-1.78a9.248 9.248 0 0 1 .883-1.867A8.02 8.02 0 0 0 7.07 10Zm9.286-3.647c.356.563.648 1.2.883 1.867.197.559.36 1.157.49 1.78h3.2a8.02 8.02 0 0 0-4.573-3.647Zm-4.82 5.146a19.127 19.127 0 0 0-.161 2.5c0 .848.054 1.691.161 2.499h4.928c.107-.808.161-1.651.161-2.5 0-.848-.054-1.692-.161-2.499h-4.928Z" clip-rule="evenodd"/><path fill="#fff" d="M16.193 9.999c-.104-.45-.228-.88-.37-1.282C15.824 8.717 15 6 14 6s-1.824 2.717-1.824 2.717a12.15 12.15 0 0 0-.37 1.282h4.387Zm-4.386 7.997h4.386c-.104.45-.228.88-.37 1.282C15.824 19.278 15 22 14 22s-1.824-2.722-1.824-2.722a12.185 12.185 0 0 1-.37-1.282Z"/><defs><linearGradient id="a" x1="0" x2="28.733" y1="0" y2=".773" gradientUnits="userSpaceOnUse"><stop stop-color="#70B2FF"/><stop offset="1" stop-color="#5C9CE6"/></linearGradient></defs></svg>
