<svg xmlns="http://www.w3.org/2000/svg" width="28" height="28" fill="currentColor" viewBox="0 0 28 28"><path d="M21.047 7.16C19.875 8.28 19 9.659 19 11a1 1 0 1 1-2 0c0-2.158 1.35-4.03 2.665-5.286a11.565 11.565 0 0 1 2.021-1.55c.315-.187.622-.344.905-.457.257-.103.584-.207.91-.207.775 0 1.042.675 1.097.852.076.242.089.5.09.69.002.407-.056.907-.122 1.355a26.397 26.397 0 0 1-.27 1.494l.044.107c.107.265.244.64.373 1.094.256.899.49 2.154.348 3.49-.145 1.353-.681 2.8-1.969 3.997-.877.816-2.06 1.476-3.61 1.929.439.575.688 1.247.83 1.972.397 2.025-1.215 3.61-2.932 3.922l-3.195.582L14 25l-.18-.016-3.194-.582c-1.717-.312-3.329-1.897-2.932-3.922.142-.725.391-1.397.83-1.972-1.551-.453-2.733-1.113-3.61-1.929-1.288-1.197-1.824-2.644-1.969-3.998-.143-1.335.092-2.59.348-3.489a10.934 10.934 0 0 1 .417-1.2 26.34 26.34 0 0 1-.27-1.494 9.549 9.549 0 0 1-.122-1.356 2.4 2.4 0 0 1 .09-.69c.055-.177.322-.852 1.098-.852.325 0 .652.104.91.207.281.113.589.27.904.457.63.375 1.345.905 2.02 1.55C9.657 6.971 11.007 8.842 11.007 11a1 1 0 1 1-2 0c0-1.342-.875-2.72-2.047-3.84a9.688 9.688 0 0 0-1.563-1.218l.023.161a24.346 24.346 0 0 0 .305 1.643l.006.027.001.006v.001a1 1 0 0 1-.078.663l-.005.01-.026.056a8.935 8.935 0 0 0-.406 1.13c-.215.758-.388 1.74-.282 2.73.103.97.472 1.937 1.342 2.746.882.82 2.369 1.562 4.862 1.894a1 1 0 0 1 .184 1.94c-.582.194-.926.434-1.151.7-.229.271-.402.645-.514 1.216-.124.63.381 1.397 1.327 1.57l3.019.55 3.02-.55c.945-.173 1.45-.94 1.326-1.57-.112-.57-.285-.945-.514-1.215-.225-.266-.569-.507-1.15-.701a1 1 0 0 1 .183-1.94c2.493-.332 3.98-1.074 4.862-1.894.87-.81 1.238-1.775 1.342-2.746.106-.99-.067-1.972-.282-2.73a8.947 8.947 0 0 0-.406-1.13 3.514 3.514 0 0 0-.026-.056l-.005-.01a1 1 0 0 1-.079-.663l.002-.007.006-.027.023-.106.079-.382a24.377 24.377 0 0 0 .226-1.316 9.689 9.689 0 0 0-1.563 1.219Z M10.136 4.496a1 1 0 0 1 1.368-.36l.916.535c.63.367 1.164.855 1.58 1.425.416-.57.95-1.058 1.58-1.425l.916-.535a1 1 0 1 1 1.008 1.728l-.916.534A3.2 3.2 0 0 0 15 9.162V10a1 1 0 1 1-2 0v-.838a3.2 3.2 0 0 0-1.588-2.764l-.916-.534a1 1 0 0 1-.36-1.368Z M15.5 2.5a1.5 1.5 0 1 1-3 0 1.5 1.5 0 0 1 3 0Z"/></svg>
