<svg xmlns="http://www.w3.org/2000/svg" width="28" height="28" fill="none" viewBox="0 0 28 28">
  <g clip-path="url(#a)">
    <circle cx="14" cy="14" r="14" fill="url(#b)"/>
    <path fill="#fff" d="M11.398 15c.557 0 .759.058.963.167.203.109.363.269.472.473.109.203.167.405.167.962v2.796c0 .557-.058.759-.167.962a1.135 1.135 0 0 1-.473.473c-.203.109-.405.167-.962.167H8.602c-.557 0-.759-.058-.963-.167a1.136 1.136 0 0 1-.472-.473c-.109-.203-.167-.405-.167-.962v-2.796c0-.557.058-.759.167-.963.109-.203.269-.363.472-.472.204-.109.406-.167.963-.167h2.796Zm8 0c.557 0 .759.058.962.167.204.109.364.269.473.473.109.203.167.405.167.962v2.796c0 .557-.058.759-.167.962a1.135 1.135 0 0 1-.473.473c-.203.109-.405.167-.962.167h-2.796c-.557 0-.759-.058-.963-.167a1.135 1.135 0 0 1-.472-.473c-.109-.203-.167-.405-.167-.962v-2.796c0-.557.058-.759.167-.963.109-.203.269-.363.473-.472.203-.109.405-.167.962-.167h2.796Zm-8-8c.557 0 .759.058.963.167.203.109.363.269.472.472.109.204.167.406.167.963v2.796c0 .557-.058.759-.167.963a1.135 1.135 0 0 1-.473.472c-.203.109-.405.167-.962.167H8.602c-.557 0-.759-.058-.963-.167a1.136 1.136 0 0 1-.472-.473c-.109-.203-.167-.405-.167-.962V8.602c0-.557.058-.759.167-.963.109-.203.269-.363.472-.472.204-.109.406-.167.963-.167h2.796ZM20.36 7.167c-.203-.109-.405-.167-.962-.167h-2.796c-.557 0-.759.058-.963.167a1.136 1.136 0 0 0-.472.472c-.109.204-.167.406-.167.963v2.796c0 .557.058.759.167.963.109.203.269.363.473.472.203.109.405.167.962.167h2.796c.557 0 .759-.058.962-.167.204-.109.364-.269.473-.473.109-.203.167-.405.167-.962V8.602c0-.557-.058-.759-.167-.963a1.136 1.136 0 0 0-.473-.472Z"/>
  </g>
  <defs>
    <linearGradient id="b" x1="0" x2="28" y1="0" y2="28" gradientUnits="userSpaceOnUse">
      <stop stop-color="#A393F5"/>
      <stop offset="1" stop-color="#735CE6"/>
    </linearGradient>
    <clipPath id="a">
      <rect width="28" height="28" fill="#fff" rx="14"/>
    </clipPath>
  </defs>
</svg>
