<svg xmlns="http://www.w3.org/2000/svg" width="28" height="28" fill="currentColor" viewBox="0 0 28 28"><path fill-rule="evenodd" d="M7.96 3h12.08c.666 0 1.226 0 1.683.037.48.04.934.124 1.366.344a3.5 3.5 0 0 1 1.53 1.53c.22.432.305.887.344 1.366C25 6.734 25 7.294 25 7.96v.08c0 .666 0 1.226-.037 1.683-.04.48-.124.934-.345 1.366a3.5 3.5 0 0 1-1.529 1.53c-.432.22-.887.305-1.366.344-.457.037-1.017.037-1.683.037H7.96c-.666 0-1.226 0-1.683-.037-.48-.04-.934-.124-1.366-.345a3.5 3.5 0 0 1-1.53-1.529c-.22-.432-.304-.887-.344-1.366C3 9.266 3 8.706 3 8.04v-.08c0-.666 0-1.226.037-1.683.04-.48.124-.934.344-1.366a3.5 3.5 0 0 1 1.53-1.53c.432-.22.887-.304 1.366-.344C6.734 3 7.294 3 7.96 3ZM6.44 5.03c-.356.03-.518.081-.621.133a1.5 1.5 0 0 0-.656.656c-.052.103-.103.265-.132.62C5 6.806 5 7.283 5 8s0 1.194.03 1.56c.03.356.081.518.133.621a1.5 1.5 0 0 0 .656.655c.103.053.265.104.62.133C6.806 11 7.283 11 8 11h12c.717 0 1.194 0 1.56-.03.356-.03.518-.081.621-.134a1.5 1.5 0 0 0 .655-.655c.053-.103.104-.265.133-.62C23 9.194 23 8.717 23 8s0-1.194-.03-1.56c-.03-.356-.081-.518-.133-.621a1.5 1.5 0 0 0-.656-.656c-.103-.052-.265-.103-.62-.132C21.194 5 20.717 5 20 5H8c-.717 0-1.194 0-1.56.03ZM7.96 15h.08c.666 0 1.226 0 1.683.037.48.04.934.124 1.366.345a3.5 3.5 0 0 1 1.53 1.529c.22.432.305.887.344 1.366.037.457.037 1.017.037 1.683v.08c0 .666 0 1.226-.037 1.683-.04.48-.124.934-.345 1.366a3.5 3.5 0 0 1-1.529 1.53c-.432.22-.887.305-1.366.344C9.266 25 8.706 25 8.04 25h-.08c-.666 0-1.226 0-1.683-.037-.48-.04-.934-.124-1.366-.345a3.5 3.5 0 0 1-1.53-1.529c-.22-.432-.304-.887-.344-1.366C3 21.266 3 20.706 3 20.04v-.08c0-.666 0-1.226.037-1.683.04-.48.124-.934.344-1.366a3.5 3.5 0 0 1 1.53-1.53c.432-.22.887-.305 1.366-.344C6.734 15 7.294 15 7.96 15Zm-1.52 2.03c-.356.03-.518.081-.621.133a1.5 1.5 0 0 0-.656.656c-.052.103-.103.265-.132.62C5 18.806 5 19.283 5 20s0 1.194.03 1.56c.03.356.081.518.133.621a1.5 1.5 0 0 0 .656.655c.103.053.265.104.62.133C6.806 23 7.283 23 8 23s1.194 0 1.56-.03c.356-.03.518-.081.621-.133a1.5 1.5 0 0 0 .655-.656c.053-.103.104-.265.133-.62C11 21.194 11 20.717 11 20s0-1.194-.03-1.56c-.03-.356-.081-.518-.134-.621a1.5 1.5 0 0 0-.655-.655c-.103-.053-.265-.104-.62-.133C9.194 17 8.717 17 8 17s-1.194 0-1.56.03ZM19.96 15c-.666 0-1.226 0-1.683.037-.48.04-.934.124-1.366.345a3.5 3.5 0 0 0-1.53 1.529c-.22.432-.305.887-.344 1.366C15 18.734 15 19.294 15 19.96v.08c0 .666 0 1.226.037 1.683.04.48.124.934.345 1.366a3.5 3.5 0 0 0 1.529 1.53c.432.22.887.305 1.366.344.457.037 1.017.037 1.683.037h.08c.666 0 1.226 0 1.683-.037.48-.04.934-.124 1.366-.345a3.5 3.5 0 0 0 1.53-1.529c.22-.432.305-.887.344-1.366.037-.457.037-1.017.037-1.683v-.08c0-.666 0-1.226-.037-1.683-.04-.48-.124-.934-.345-1.366a3.5 3.5 0 0 0-1.529-1.53c-.432-.22-.887-.305-1.366-.344C21.266 15 20.706 15 20.04 15h-.08Zm-2.141 2.163c.103-.052.265-.103.62-.132C18.806 17 19.283 17 20 17s1.194 0 1.56.03c.356.03.518.081.621.133a1.5 1.5 0 0 1 .655.656c.053.103.104.265.133.62.03.367.031.844.031 1.561s0 1.194-.03 1.56c-.03.356-.081.518-.133.621a1.5 1.5 0 0 1-.656.655c-.103.053-.265.104-.62.133C21.194 23 20.717 23 20 23s-1.194 0-1.56-.03c-.356-.03-.518-.081-.621-.133a1.5 1.5 0 0 1-.655-.656c-.053-.103-.104-.265-.133-.62C17 21.194 17 20.717 17 20s0-1.194.03-1.56c.03-.356.081-.518.133-.621a1.5 1.5 0 0 1 .656-.655Z" clip-rule="evenodd"/></svg>
