<svg fill="none" height="28" viewBox="0 0 28 28" width="28" xmlns="http://www.w3.org/2000/svg"><g fill="currentColor"><path d="m24.6336 14.7213c.3962-.8319.3218-1.8938-.1914-2.6636-1.0848-1.6271-3.1433-1.8175-4.4422-.5392v-4.26395c0-1.80552-1.7904-3.13607-3.5039-2.65031-.0763-1.45389-1.2759-2.60424-2.7461-2.60424-1.3068 0-2.3959.90811-2.6786 2.12541-.2593-.08145-.5352-.12541-.8214-.12541-.67041 0-1.46997.24895-1.46997 1.06006 0 .55228.44771 1 1 1 .15743 0 .30447-.06006.46997-.06006.4142 0 .75.34375.75.75262v.51738c0 .55064.4439 1 1 1 .5523 0 1-.46027 1-1v-2.51837c0-.41512.3329-.75163.75-.75163.4142 0 .75.33272.75.75163v6.01837c0 .5497.4439 1 1 1 .5523 0 1-.4508 1-1v-3.52345c0-.41231.3329-.74655.75-.74655.4142 0 .75.33177.75.75455v6.94725c0 1.1378 1.4757 1.5846 2.1069.6379l1.1219-1.6828c.4259-.639 1.121-.6323 1.5493.0102.1225.1839.1434.4978.0498.6943l-1.4894 3.1278c-.3638.6445.1159 1.4908.8715 1.4908.3971 0 .7402-.2315.9016-.5669l.0017.0008z"/><path clip-rule="evenodd" d="m12 26c-4.42161 0-8-3.5798-8-8.0087v-7.8636c0-1.00747.54174-1.88619 1.34984-2.36365l-2.05695-2.05694c-.39052-.39053-.39052-1.02369 0-1.41422.39053-.39052 1.02369-.39052 1.41422 0l19.00379 19.00381c.3906.3905.3906 1.0237 0 1.4142-.3905.3906-1.0237.3906-1.4142 0l-2.0063-2.0063c-2.2353 2.316-5.1415 3.2954-8.2904 3.2954zm-3.5-11.5c.55228 0 1-.457 1-1.0084v-1.5774l9.3762 9.3762c-1.8605 1.9442-4.2576 2.7096-6.8762 2.7096-3.31371 0-6-2.681-6-6.0087v-7.8636c0-.4114.3329-.74493.75-.74493.41421 0 .75.33576.75.75503v3.3634c0 .5516.44386.9988 1 .9988z" fill-rule="evenodd"/></g></svg>
