<svg xmlns="http://www.w3.org/2000/svg" width="28" height="28" fill="currentColor" viewBox="0 0 28 28"><path d="M9.974 1.577a1.24 1.24 0 0 0-.745 1.594l3.117 8.385a.743.743 0 0 1-.447.957.754.754 0 0 1-.966-.441l-2.77-7.454a1.257 1.257 0 0 0-1.611-.735 1.24 1.24 0 0 0-.745 1.594l3.117 8.385a.743.743 0 0 1-.447.957.754.754 0 0 1-.966-.441l-2.078-5.59a1.257 1.257 0 0 0-1.61-.735c-.651.237-.985.95-.746 1.594l4.308 11.587c.516 1.389 2.18 5.124 7.42 4.086-.56-.519-1.01-1-1.354-1.483-.717-1.005-.951-1.966-.951-3.118 0-2.545 2.013-4.719 4.632-4.719.894 0 1.687.249 2.366.616a4.89 4.89 0 0 1 2.127-.61l.2-.005.061-.001a4.561 4.561 0 0 1 1.509.26l1.518-4.397a1.61 1.61 0 0 0-.954-2.022 1.515 1.515 0 0 0-1.974.927l-1.434 4.153L16.046 2.8a1.257 1.257 0 0 0-1.61-.735c-.651.237-.985.95-.746 1.594l2.425 6.522a.743.743 0 0 1-.447.956.754.754 0 0 1-.967-.44l-3.117-8.386a1.257 1.257 0 0 0-1.61-.735Z M22.745 18.154a2.552 2.552 0 0 0-.867-.154l-.2.005c-.576.033-1.108.26-1.593.596l-.586.424-.586-.424c-.536-.371-1.128-.601-1.781-.601-1.454 0-2.632 1.217-2.632 2.719 0 .814.146 1.35.58 1.956.382.536.994 1.136 1.985 1.966.249.208.521.43.82.67l1.371 1.103a.387.387 0 0 0 .488 0l1.372-1.103c1.489-1.196 2.326-1.965 2.805-2.636.433-.607.579-1.142.579-1.956 0-1.184-.733-2.191-1.755-2.565Z"/></svg>
