<svg xmlns="http://www.w3.org/2000/svg" width="28" height="28" fill="currentColor" viewBox="0 0 28 28"><path fill-rule="evenodd" d="M13.051 3.69a2.758 2.758 0 0 0-3.447-1.54 2.763 2.763 0 0 0-1.521 1.26 2.796 2.796 0 0 0-.309 1.687A2.846 2.846 0 0 0 7 5.25c-1.234.425-2.247 1.776-1.74 3.444a.997.997 0 0 0 .018.054l.285.77c-.251.02-.5.084-.733.168a2.764 2.764 0 0 0-1.525 1.328c-.34.662-.411 1.458-.13 2.273l.006.018 2.733 7.49a1 1 0 0 0 .018.045c.579 1.52 2.011 3.959 5.355 4.96a1 1 0 1 0 .574-1.916c-2.532-.758-3.617-2.577-4.077-3.8l-2.72-7.456c-.114-.335-.052-.56.02-.7a.764.764 0 0 1 .425-.36.736.736 0 0 1 .545.007c.143.063.34.205.476.57l.002.005 1.115 3.099a1 1 0 1 0 1.881-.678l-1.116-3.09v-.002l-.002-.002-.005-.014v-.003L7.158 8.051a.732.732 0 0 1 .065-.59c.084-.147.25-.264.446-.332a.78.78 0 0 1 .527.024c.064.027.304.18.434.517l.027.073 2.118 5.74a1 1 0 1 0 1.876-.692L10.545 7.04a3.773 3.773 0 0 0-.033-.093l-.707-1.94c-.09-.307-.037-.505.032-.63a.757.757 0 0 1 .42-.336.774.774 0 0 1 .546.005c.138.057.304.184.423.482.513 1.376.595 1.594.672 1.814l.184.526.025.073a485.056 485.056 0 0 1 1.56 4.36l.214.581c.205.569.768.803 1.315.611.476-.195.758-.722.572-1.275l-.205-.58c-.103-.293-.253-.709-.422-1.184-.338-.951-.77-2.158-1.147-3.194v-.002a.874.874 0 0 1 .022-.723c.08-.153.23-.265.424-.335a.74.74 0 0 1 .538.002c.134.058.323.234.442.563.377 1.036.634 1.743.945 2.592l.098.268c.35.957.81 2.201 1.416 3.868a.98.98 0 0 0 .862.65l.1.007c.049.003.098.003.148 0l.085-.008a.981.981 0 0 0 .891-.742l.54-2.257.003-.013c.075-.325.22-.49.364-.576a.91.91 0 0 1 .616-.1c.235.039.431.135.556.281a.853.853 0 0 1 .198.662l-.002.017-.148 1.817a.99.99 0 0 0 .916 1.067 1.003 1.003 0 0 0 1.086-.988l.134-1.69c.18-1.792-1.103-2.92-2.408-3.14a2.908 2.908 0 0 0-1.977.359 2.784 2.784 0 0 0-1.085 1.236 294.54 294.54 0 0 0-.43-1.172l-.097-.268c-.31-.849-.56-1.542-.937-2.577-.293-.805-.855-1.396-1.536-1.688a2.749 2.749 0 0 0-2.707.32Zm2.746 13.312c-1.006 0-1.798.804-1.798 1.883 0 .684.112 1.032.44 1.474.433.584 1.247 1.322 2.894 2.595l1.166.901 1.166-.9c1.647-1.274 2.46-2.012 2.894-2.596.328-.442.44-.79.44-1.474 0-1.07-.778-1.867-1.776-1.878l-.189.005c-.349.024-.836.248-1.336.58l-.635.442a1 1 0 0 1-1.143 0l-.635-.442c-.546-.362-1.077-.59-1.488-.59Zm-3.798 1.883c0-2.1 1.606-3.883 3.798-3.883 1.024 0 1.973.51 2.604.93l.018.012.072.05.073-.05.018-.012c.56-.373 1.436-.868 2.355-.918h.012l.017-.001.223-.006h.029c2.183.008 3.78 1.781 3.78 3.878 0 1.039-.208 1.824-.833 2.666-.62.836-1.65 1.727-3.277 2.986l-1.51 1.167c-.52.397-1.283.393-1.759 0l-1.509-1.167c-1.628-1.259-2.657-2.15-3.277-2.986-.625-.842-.834-1.627-.834-2.666Z" clip-rule="evenodd"/></svg>
