<svg xmlns="http://www.w3.org/2000/svg" width="28" height="28" fill="currentColor" viewBox="0 0 28 28"><path fill-rule="evenodd" d="M11.005 4.145c-.412-1.693-2.25-2.621-3.852-1.896a2.82 2.82 0 0 0-1.57 3.22l1.704 7.504a2.66 2.66 0 0 0-3.779.57 2.715 2.715 0 0 0 .042 3.22l4.622 6.094.001.002.036.049a6.136 6.136 0 0 0 .576.644c.398.388.996.877 1.817 1.317 1.658.888 4.158 1.536 7.628.836 2.844-.574 4.844-2.15 5.902-4.29 1.041-2.107 1.121-4.655.37-7.147l-1.113-4.743c-.399-1.697-2.197-2.671-3.831-2.03-.403.159-.75.398-1.03.693a2.744 2.744 0 0 0-2.289-.52 2.57 2.57 0 0 0-1.242.653 2.498 2.498 0 0 0-.216-.139c-.619-.355-1.357-.431-2.095-.246a3.037 3.037 0 0 0-.636.28l-1.045-4.071Zm3.516 7.943.001.002a1 1 0 0 0 1.937-.5l-.001-.002-.254-.991c-.142-.552.147-.906.467-.977a.765.765 0 0 1 .889.521l.432 1.318v.003a1 1 0 0 0 1.902-.619v-.003l-.12-.367a.9.9 0 0 1 .515-1.116.864.864 0 0 1 1.152.625l1.121 4.774a1 1 0 0 0 .017.063c.646 2.12.536 4.14-.24 5.709-.762 1.543-2.218 2.755-4.505 3.216-3.016.61-5.042.03-6.288-.639a6.08 6.08 0 0 1-1.367-.986 4.141 4.141 0 0 1-.377-.421.952.952 0 0 0-.025-.035l-4.634-6.11a.715.715 0 0 1-.01-.843.66.66 0 0 1 1.043-.052l2.128 2.061a1 1 0 0 0 1.671-.94L7.531 5.02l-.002-.01a.82.82 0 0 1 .449-.94.785.785 0 0 1 1.088.565l2.023 7.878a1 1 0 0 0 1.938-.491c-.29-1.16-.203-1.683-.12-1.889.05-.122.118-.193.312-.268.278-.06.46-.01.566.052.113.064.222.186.278.4l.458 1.77Zm-4.716 9.615Zm0 0" clip-rule="evenodd"/></svg>
