<svg xmlns="http://www.w3.org/2000/svg" width="28" height="28" fill="currentColor" viewBox="0 0 28 28"><path fill-rule="evenodd" d="M8.044 3.058a2.502 2.502 0 0 1 4.575-.895A2.501 2.501 0 0 1 16.01 4.5v3.092a2.62 2.62 0 0 1 3.523 3.745l-1.617 2.246a1 1 0 1 1-1.623-1.168l1.618-2.247a.618.618 0 0 0-1-.73l-1.02 1.379a1 1 0 0 1-1.78-.38.997.997 0 0 1-.1-.438V4.501a.501.501 0 0 0-1.003 0V8.5a1 1 0 1 1-2 0V3.501a.501.501 0 0 0-1.002 0V6a1 1 0 0 1-1 1h-.013a1 1 0 0 1-.987-1v-.499A.501.501 0 0 0 7.504 5a1 1 0 1 1 0-2c.185 0 .366.02.54.058ZM3.707 4.291a1.002 1.002 0 0 0-1.415.005.998.998 0 0 0 .004 1.413l1.711 1.698a.95.95 0 0 0-.004.093v6c0 2.28.874 3.934 2.11 5.005C7.315 19.55 8.814 20 10.044 20c1.924 0 3.507-.426 5.008-1.63l4.86 4.823c-.5.697-1.033 1.113-1.563 1.37-.671.327-1.42.437-2.255.437-.851 0-1.68-.297-2.353-.76-.683-.472-1.128-1.06-1.293-1.556a1 1 0 1 0-1.898.632c.335 1.003 1.107 1.916 2.056 2.57.96.661 2.179 1.114 3.488 1.114.998 0 2.083-.129 3.13-.637.777-.378 1.49-.944 2.12-1.748l1.103 1.094a1.001 1.001 0 0 0 1.415-.005.998.998 0 0 0-.004-1.413l-20.152-20Zm9.915 12.658-7.62-7.561V13.5c0 1.72.639 2.816 1.42 3.495C8.236 17.7 9.259 18 10.046 18c1.441 0 2.53-.273 3.577-1.05Zm6.392.042V13a1 1 0 1 1 2 0v1.483a2.705 2.705 0 0 1 3.488 3.96l-1.192 1.644a1 1 0 1 1-1.62-1.174l1.192-1.644a.704.704 0 0 0-1.12-.853l-.962 1.202a.996.996 0 0 1-1.241.273 1.004 1.004 0 0 1-.545-.85" clip-rule="evenodd"/></svg>
