<svg xmlns="http://www.w3.org/2000/svg" width="28" height="28" fill="none" viewBox="0 0 28 28">
  <circle cx="14" cy="14" r="14" fill="url(#a)"/>
  <path fill="#fff" fill-rule="evenodd" d="M8.932 11.041a.732.732 0 0 0-.944-.44.748.748 0 0 0-.444.952l2.258 6.291c.292.814 1.2 2.926 3.996 2.627a4.252 4.252 0 0 1-.16-.2c-.517-.687-.687-1.368-.687-2.109a3.18 3.18 0 0 1 3.18-3.178c.485 0 .927.112 1.32.304a2.977 2.977 0 0 1 1.32-.304c.263 0 .519.032.764.092l.912-2.565a.89.89 0 0 0-.455-1.105.892.892 0 0 0-1.206.483l-.886 2.229-2.446-6.813a.732.732 0 0 0-.944-.44.748.748 0 0 0-.444.953l1.436 4.001a.499.499 0 0 1-.296.636.488.488 0 0 1-.63-.294L12.72 6.986a.732.732 0 0 0-.944-.44.748.748 0 0 0-.445.953l1.858 5.175a.499.499 0 0 1-.296.635.488.488 0 0 1-.63-.294l-1.605-4.47a.732.732 0 0 0-.944-.441.748.748 0 0 0-.444.953l1.857 5.175a.499.499 0 0 1-.296.635.488.488 0 0 1-.63-.294l-1.268-3.532Z M18.82 16.5c.928 0 1.68.753 1.68 1.682 0 .938-.375 1.408-1.968 2.648l-.725.565a.5.5 0 0 1-.614 0l-.725-.565c-1.592-1.24-1.968-1.71-1.968-2.648a1.68 1.68 0 0 1 1.68-1.682c.498 0 .94.234 1.32.688.38-.454.822-.688 1.32-.688Z"/>
  <defs>
    <linearGradient id="a" x1="0" x2="28.733" y1="0" y2=".773" gradientUnits="userSpaceOnUse">
      <stop stop-color="#FF5263"/>
      <stop offset="1" stop-color="#FF3347"/>
    </linearGradient>
  </defs>
</svg>
