<svg xmlns="http://www.w3.org/2000/svg" width="28" height="28" fill="currentColor" viewBox="0 0 28 28"><path d="M14.25 2C13.56 2 13 2.56 13 3.25v9a.75.75 0 0 1-1.5 0v-8a1.25 1.25 0 1 0-2.5 0v9a.75.75 0 0 1-1.5 0v-6a1.25 1.25 0 1 0-2.5 0v12.437c0 1.66.32 6.566 7.519 6.566 2.12 0 5.211-1.015 6.937-2.995l.001.002.202-.248c.055-.063-.051.066 0 0 .55-.667 1.237-1.517 1.922-2.37l3.06-3.77a1.628 1.628 0 0 0-.19-2.24 1.503 1.503 0 0 0-2.167.196l-2.784 3.43V5.25a1.25 1.25 0 1 0-2.5 0v7a.75.75 0 0 1-1.5 0v-9c0-.69-.56-1.25-1.25-1.25Z"/></svg>
