<svg xmlns="http://www.w3.org/2000/svg" width="28" height="28" fill="none" viewBox="0 0 28 28"><rect width="28" height="28" fill="url(#a)" rx="14"/><path fill="#fff" d="M18.868 6.141c.416.27.529.837.251 1.266-.277.43-3.558 5.273-3.883 5.845-.324.572.087 1.361.892.688.804-.673 3.384-3.988 3.73-4.363a.9.9 0 0 1 1.28-.063c.363.34.376.92.03 1.296-.345.375-3.429 3.552-3.824 4.07-.395.517.268 1.029.799.616a82 82 0 0 0 2.363-1.944.895.895 0 0 1 1.278.07.93.93 0 0 1-.103 1.296c-.38.339-1.418 1.127-2.297 1.886-.878.758-3.096 2.87-3.096 2.87-2.08 2.133-4.358 3.179-6.559 1.48l-1.139-.88c-.935-.722-1.543-2.127-1.577-3.47-.033-1.342.009-6.018 0-6.626a1.13 1.13 0 0 1 1.072-1.146 1.06 1.06 0 0 1 1.102 1.056c.009.608-.043 3.534-.043 3.534 1.387-.782 1.8-1.594 2.415-3.163l1.806-3.839a.925.925 0 0 1 1.183-.532c.463.18.684.711.495 1.185-.19.473-1.81 3.608-1.99 4.293-.178.685.384 1.323.877.677 0 0 3.403-5.385 3.68-5.814a.91.91 0 0 1 1.258-.288"/><defs><linearGradient id="a" x1="-14" x2="14" y1="14" y2="42" gradientUnits="userSpaceOnUse"><stop stop-color="#c48aff"/><stop offset="1" stop-color="#aa65f0"/></linearGradient></defs></svg>