<svg width="28" height="28" viewBox="0 0 28 28" fill="none" xmlns="http://www.w3.org/2000/svg">
<path d="M20.1961 3.01941C20.699 3.11999 21.0377 3.58143 20.9969 4.08043L20.9806 4.19611L20.019 8.9998L23 8.99999C23.5523 8.99999 24 9.44771 24 9.99999C24 10.5128 23.614 10.9355 23.1166 10.9933L23 11L19.619 10.9998L18.419 16.9998L21 17C21.5523 17 22 17.4477 22 18C22 18.5128 21.614 18.9355 21.1166 18.9933L21 19L18.019 18.9998L16.9806 24.1961C16.8723 24.7377 16.3454 25.0889 15.8039 24.9806C15.301 24.88 14.9623 24.4186 15.0031 23.9196L15.0194 23.8039L15.98 18.9998H10.019L8.98058 24.1961C8.87227 24.7377 8.34544 25.0889 7.80388 24.9806C7.30101 24.88 6.96225 24.4186 7.00315 23.9196L7.01942 23.8039L7.98 18.9998L5 19C4.44772 19 4 18.5523 4 18C4 17.4872 4.38604 17.0645 4.88338 17.0067L5 17L8.38 16.9998L9.58 10.9998L7 11C6.44772 11 6 10.5523 6 9.99999C6 9.48716 6.38604 9.06449 6.88338 9.00672L7 8.99999L9.98 8.9998L11.0194 3.80388C11.1277 3.26232 11.6546 2.9111 12.1961 3.01941C12.699 3.11999 13.0377 3.58143 12.9969 4.08043L12.9806 4.19611L12.019 8.9998H17.98L19.0194 3.80388C19.1277 3.26232 19.6546 2.9111 20.1961 3.01941ZM17.58 10.9998H11.619L10.419 16.9998H16.38L17.58 10.9998Z" fill="currentColor"/>
</svg>
