<svg xmlns="http://www.w3.org/2000/svg" width="28" height="28" fill="none" viewBox="0 0 28 28">
  <rect width="28" height="28" fill="url(#a)" rx="14"/>
  <path fill="#fff" fill-rule="evenodd" d="M21 13.5a7 7 0 1 0-14 0v3.75a1.25 1.25 0 1 1-2.5 0v-3.5a1.25 1.25 0 0 1 1.056-1.235 8.501 8.501 0 0 1 16.887 0A1.25 1.25 0 0 1 23.5 13.75v3.5a1.25 1.25 0 1 1-2.5 0V13.5Zm-12.25.25a.75.75 0 0 1 1.5 0v3.5a.75.75 0 0 1-1.5 0v-3.5Zm3-1.5a.75.75 0 0 1 1.5 0v6.5a.75.75 0 0 1-1.5 0v-6.5Zm3-1.5a.75.75 0 0 1 1.5 0v9.5a.75.75 0 0 1-1.5 0v-9.5Zm3 3a.75.75 0 0 1 1.5 0v3.5a.75.75 0 0 1-1.5 0v-3.5Z" clip-rule="evenodd"/>
  <defs>
    <linearGradient id="a" x1="-14" x2="14" y1="14" y2="42" gradientUnits="userSpaceOnUse">
      <stop stop-color="#B1B6BD"/>
      <stop offset="1" stop-color="#99A2AD"/>
    </linearGradient>
  </defs>
</svg>
