<svg xmlns="http://www.w3.org/2000/svg" width="28" height="28" fill="currentColor" viewBox="0 0 28 28"><path fill-rule="evenodd" d="M13.619 5.008a1 1 0 0 0-.083-1.998C7.676 3.253 3 8.08 3 14v7a4 4 0 0 0 8 0v-3a4 4 0 0 0-6-3.465V14a9 9 0 0 1 8.619-8.992ZM5 18v3a2 2 0 1 0 4 0v-3a2 2 0 1 0-4 0Zm20-3.58a1 1 0 1 0-2 0v.115A4 4 0 0 0 17 18v3a4 4 0 0 0 8 0v-6.58ZM23 18a2 2 0 1 0-4 0v3a2 2 0 1 0 4 0v-3ZM21 2a5 5 0 1 0 0 10 5 5 0 0 0 0-10Zm2.78 3.22a.75.75 0 0 0-1.06 0l-2.47 2.47-.97-.97a.75.75 0 1 0-1.06 1.06l1.5 1.5a.75.75 0 0 0 1.06 0l3-3a.75.75 0 0 0 0-1.06Z" clip-rule="evenodd"/></svg>
