<svg xmlns="http://www.w3.org/2000/svg" width="28" height="28" fill="currentColor" viewBox="0 0 28 28"><path fill-rule="evenodd" d="M23 19v-5a9 9 0 1 0-18 0v5.25a1.75 1.75 0 1 1-3.5 0v-4.5a1.75 1.75 0 0 1 1.544-1.738C3.544 7.4 8.258 3 14 3c5.742 0 10.457 4.4 10.956 10.012A1.75 1.75 0 0 1 26.5 14.75v4.5a1.75 1.75 0 1 1-3.5 0V19Zm-12-6a1 1 0 1 1 2 0v8a1 1 0 1 1-2 0v-8Zm-4 2a1 1 0 1 1 2 0v4a1 1 0 1 1-2 0v-4Zm8-4a1 1 0 1 1 2 0v12a1 1 0 1 1-2 0V11Zm4 4a1 1 0 1 1 2 0v4a1 1 0 1 1-2 0v-4Z" clip-rule="evenodd"/></svg>
