<?xml version="1.0" encoding="UTF-8"?>
<svg width="28px" height="28px" viewBox="0 0 28 28" version="1.1" xmlns="http://www.w3.org/2000/svg" xmlns:xlink="http://www.w3.org/1999/xlink">
    <!-- Generator: Sketch 63.1 (92452) - https://sketch.com -->
    <title>headphones_outline_28</title>
    <desc>Created with Sketch.</desc>
    <g id="Page-1" stroke="none" stroke-width="1" fill="none" fill-rule="evenodd">
        <g id="headphones_outline_28" fill-rule="nonzero">
            <rect opacity="0.2164016" x="0" y="0" width="28" height="28"></rect>
            <path d="M5,21.0588235 L5,17.827742 C5,16.7556599 5.86909431,15.8865656 6.94117647,15.8865656 C8.01325863,15.8865656 8.88235294,16.7556599 8.88235294,17.827742 L8.88235294,21.0588235 C8.88235294,22.1309057 8.01325863,23 6.94117647,23 C5.86909431,23 5,22.1309057 5,21.0588235 Z M5,19.4308364 L5,14.3969796 C3.80577895,15.0741427 3,16.3568425 3,17.827742 L3,21.0588235 C3,23.2354752 4.76452481,25 6.94117647,25 C9.11782813,25 10.8823529,23.2354752 10.8823529,21.0588235 L10.8823529,17.827742 C10.8823529,15.6510904 9.11782813,13.8865656 6.94117647,13.8865656 C6.23542433,13.8865656 5.57299907,14.07207 5,14.3969796 L5,14 C5,9.02943725 9.02943725,5 14,5 C18.9705627,5 23,9.02943725 23,14 L23,14.3969796 C22.4270009,14.07207 21.7645757,13.8865656 21.0588235,13.8865656 C18.8821719,13.8865656 17.1176471,15.6510904 17.1176471,17.827742 L17.1176471,21.0588235 C17.1176471,23.2354752 18.8821719,25 21.0588235,25 C23.2354752,25 25,23.2354752 25,21.0588235 L25,17.827742 C25,16.3568425 24.1942211,15.0741427 23,14.3969796 L23,19.2970913 C23,19.849376 23.4477153,20.2970913 24,20.2970913 C24.5522847,20.2970913 25,19.849376 25,19.2970913 L25,14 C25,7.92486775 20.0751322,3 14,3 C7.92486775,3 3,7.92486775 3,14 L3,19.4308364 C3,19.9831211 3.44771525,20.4308364 4,20.4308364 C4.55228475,20.4308364 5,19.9831211 5,19.4308364 Z M23,17.827742 L23,21.0588235 C23,22.1309057 22.1309057,23 21.0588235,23 C19.9867414,23 19.1176471,22.1309057 19.1176471,21.0588235 L19.1176471,17.827742 C19.1176471,16.7556599 19.9867414,15.8865656 21.0588235,15.8865656 C22.1309057,15.8865656 23,16.7556599 23,17.827742 Z" id="↳-Icon-Color" fill="currentColor"></path>
        </g>
    </g>
</svg>
