<svg xmlns="http://www.w3.org/2000/svg" width="28" height="28" viewBox="0 0 28 28" fill="currentColor"><path d="M18.5 9a1 1 0 0 1 1 1v1h1a1 1 0 0 1 0 2h-1v1a1 1 0 1 1-2 0v-1h-1a1 1 0 1 1 0-2h1v-1a1 1 0 0 1 1-1"/><path fill-rule="evenodd" d="M18.974 4.88a6.526 6.526 0 0 1 6.526 6.526c0 3.613-1.445 5.421-7.493 10.125l-2.78 2.162a2 2 0 0 1-2.454 0l-2.78-2.162C3.945 16.827 2.5 15.02 2.5 11.406A6.526 6.526 0 0 1 9.026 4.88c1.872 0 3.538.85 4.974 2.486 1.436-1.636 3.102-2.486 4.974-2.486m0 2c-1.52 0-2.89.858-4.152 2.683l-.205.297a.75.75 0 0 1-1.234 0l-.205-.297C11.915 7.738 10.545 6.88 9.026 6.88A4.526 4.526 0 0 0 4.5 11.406c0 2.78 1.137 4.204 6.72 8.547L14 22.114l2.78-2.16c5.583-4.344 6.72-5.767 6.72-8.548 0-2.5-2.027-4.526-4.526-4.526" clip-rule="evenodd"/></svg>