<svg xmlns="http://www.w3.org/2000/svg" width="28" height="28" fill="currentColor" viewBox="0 0 28 28"><path d="M9.078 5C5.483 5 2.5 7.875 2.5 11.478c0 1.93.516 3.418 1.77 4.954 1.193 1.461 3.068 2.98 5.725 5.038l3.394 2.621a1 1 0 1 0 1.222-1.582l-3.392-2.62c-2.7-2.091-4.378-3.47-5.4-4.722-.96-1.176-1.319-2.216-1.319-3.689C4.5 9.018 6.548 7 9.078 7c1.394 0 2.776.982 4.153 2.64a1 1 0 0 0 1.544-.009C16.116 7.985 17.498 7 18.922 7c2.53 0 4.578 2.019 4.578 4.478 0 .49-.04.92-.122 1.315l-.022.103-.014.062a1 1 0 1 0 1.944.47 6.285 6.285 0 0 0 .05-.226 8.472 8.472 0 0 0 .164-1.724C25.5 7.875 22.517 5 18.922 5c-1.966 0-3.608 1.11-4.928 2.493C12.662 6.114 11.022 5 9.078 5Z M21.773 14.578a23.186 23.186 0 0 0-.023-.078c-.15-.5-.25-.5-.5-.5h-.546c-.223.002-.36.031-.454.5-.09.45-.22.899-.973 1.331-.788.211-1.175 0-1.564-.211l-.072-.04c-.46-.247-.53-.176-.707 0l-.386.386c-.156.16-.233.278.033.675.254.382.48.792.252 1.63-.407.706-.83.83-1.255.956l-.078.023c-.5.15-.5.25-.5.5v.546c.002.223.031.36.5.454.45.09.899.22 1.331.973.211.788 0 1.175-.212 1.564l-.038.072c-.248.46-.177.53 0 .707l.386.386c.158.156.277.233.674-.033.382-.254.792-.48 1.63-.252.706.407.83.83.956 1.255l.023.078c.15.5.25.5.5.5h.546c.223-.002.36-.031.454-.5.09-.45.22-.899.973-1.331.788-.211 1.175 0 1.564.212l.072.038c.46.248.53.177.707 0l.386-.386c.156-.158.233-.277-.033-.674-.254-.382-.48-.792-.252-1.63.407-.706.83-.83 1.255-.956l.078-.023c.5-.15.5-.25.5-.5v-.546c-.002-.223-.031-.36-.5-.454-.45-.09-.899-.22-1.331-.973-.211-.788 0-1.175.212-1.564l.038-.072c.248-.46.177-.53 0-.707l-.386-.386c-.158-.156-.277-.233-.674.033-.382.254-.792.48-1.63.252-.706-.407-.83-.83-.956-1.255ZM18.15 20a2.85 2.85 0 1 1 5.7 0 2.85 2.85 0 0 1-5.7 0Z" clip-rule="evenodd"/></svg>
