<svg xmlns="http://www.w3.org/2000/svg" width="28" height="28" fill="currentColor" viewBox="0 0 28 28"><path d="M13.079 3C10.254 3 8 5.335 8 8.169c0 .117.002.232.007.346 1.262.09 2.342.572 3.243 1.22 1.002-.72 2.224-1.235 3.671-1.235 3.517 0 6.354 2.565 6.96 5.854.955-.818 1.706-1.544 2.264-2.259.958-1.224 1.355-2.417 1.355-3.926C25.5 5.335 23.247 3 20.421 3c-1.467 0-2.684.813-3.671 1.932C15.763 3.813 14.546 3 13.079 3Z M2.5 15.669c0-2.834 2.254-5.169 5.079-5.169 1.467 0 2.684.813 3.671 1.932.987-1.119 2.204-1.932 3.671-1.932 2.826 0 5.079 2.335 5.079 5.169 0 1.509-.397 2.702-1.355 3.926-.902 1.155-2.31 2.342-4.268 3.899l-2.052 1.63c-.63.501-1.52.501-2.15 0l-2.051-1.63c-1.958-1.557-3.367-2.744-4.27-3.899C2.897 18.371 2.5 17.178 2.5 15.67Z"/></svg>
