<svg fill="none" height="28" viewBox="0 0 28 28" width="28" xmlns="http://www.w3.org/2000/svg"><path d="m14 2c6.624 0 12 5.376 12 12s-5.376 12-12 12-12-5.376-12-12 5.376-12 12-12zm0 2c-5.51944 0-10 4.48056-10 10 0 5.5194 4.48056 10 10 10 5.5194 0 10-4.4806 10-10 0-5.51944-4.4806-10-10-10zm0 14.1004c.7732 0 1.4.6268 1.4 1.4s-.6268 1.4-1.4 1.4-1.4-.6268-1.4-1.4.6268-1.4 1.4-1.4zm-.066-11.1104c2.0508 0 3.7118 1.67812 3.7118 3.75 0 .825-.334 1.575-.863 2.1094l-.8351.8625c-.4967.5087-.8549.9502-1.0061 1.7209-.0136.0695-.0236.1729-.0299.31-.023.4939-.4301.8826-.9246.8826h-.0092c-.5128.0001-.9285-.4156-.9285-.9284v-.0024c.0007-.2601.0088-.4305.0243-.5112.1436-.7471.5077-1.4175 1.0181-1.9403l1.1506-1.1812c.3293-.3313.5475-.8063.5475-1.3219 0-1.03125-.8351-1.875-1.8559-1.875-.6486 0-1.2223.34068-1.5544.85366-.0657.10147-.1483.2632-.2478.48524-.1962.4373-.693.6535-1.1467.4988l-.0355-.0121c-.463-.1578-.7105-.6611-.5527-1.12407.0058-.01693.0121-.03368.0188-.05024.0661-.16126.1296-.30381.1905-.42762.6374-1.29662 1.8375-2.09867 3.3278-2.09867z" fill="currentColor"/></svg>
