<?xml version="1.0" encoding="UTF-8"?>
<svg width="28px" height="28px" viewBox="0 0 28 28" version="1.1" xmlns="http://www.w3.org/2000/svg" xmlns:xlink="http://www.w3.org/1999/xlink">
    <!-- Generator: Sketch 63.1 (92452) - https://sketch.com -->
    <title>hide_outline_28</title>
    <desc>Created with Sketch.</desc>
    <g id="Page-1" stroke="none" stroke-width="1" fill="none" fill-rule="evenodd">
        <g id="hide_outline_28">
            <rect x="0" y="0" width="28" height="28"></rect>
            <path d="M7.70710678,4.79289322 L13.0321093,10.1178957 L13.0354862,10.1170581 L17.8829419,14.9645138 L17.8821043,14.9678907 L23.7071068,20.7928932 C24.0976311,21.1834175 24.0976311,21.8165825 23.7071068,22.2071068 C23.3165825,22.5976311 22.6834175,22.5976311 22.2928932,22.2071068 L20.4175815,20.3335102 C18.4806535,21.399455 16.2806604,22 14,22 C8.18176137,22 2.5,17.6439829 2.5,14 C2.5,11.8729977 4.68520719,9.23065709 7.69316151,7.60745377 L6.29289322,6.20710678 C5.90236893,5.81658249 5.90236893,5.18341751 6.29289322,4.79289322 C6.68341751,4.40236893 7.31658249,4.40236893 7.70710678,4.79289322 Z M4.5,14 C4.5,16.4060171 9.18780385,20 14,20 C15.7325048,20 17.4153083,19.589567 18.9339587,18.8503991 L16.8709971,16.7852107 C16.1440342,17.5344228 15.1263878,18 14,18 C11.790861,18 10,16.209139 10,14 C10,12.8736122 10.4655772,11.8559658 11.2147893,11.1290029 L9.17987766,9.09571454 C6.48033677,10.3770382 4.5,12.633931 4.5,14 Z M14,6 C19.8182386,6 25.5,10.3560171 25.5,14 C25.5,14.9446553 25.0667588,15.9982388 24.3033544,17.033352 C23.9755478,17.4778307 23.3494869,17.572412 22.9050082,17.2446054 C22.4605296,16.9167988 22.3659482,16.2907379 22.6937548,15.8462593 C23.2252091,15.1256512 23.5,14.4573973 23.5,14 C23.5,11.5939829 18.8121962,8 14,8 C13.4477153,8 13,7.55228475 13,7 C13,6.44771525 13.4477153,6 14,6 Z M12.6293262,12.5435398 C12.2418959,12.9082877 12,13.4258949 12,14 C12,15.1045695 12.8954305,16 14,16 C14.5741051,16 15.0917123,15.7581041 15.4564602,15.3706738 L12.6293262,12.5435398 Z" id="↳-Icon-Color" fill="currentColor" fill-rule="nonzero"></path>
        </g>
    </g>
</svg>
