<svg xmlns="http://www.w3.org/2000/svg" width="28" height="28" fill="none" viewBox="0 0 28 28"><path fill="currentColor" fill-rule="evenodd" d="M17.5001 10a1 1 0 0 1 .8944.5528l6.5 13c.247.494.0468 1.0946-.4472 1.3416-.494.247-1.0946.0468-1.3416-.4472L20.8821 20h-6.764l-2.2236 4.4472c-.247.494-.8476.6942-1.3416.4472-.494-.247-.6942-.8476-.4472-1.3416l6.5-13A1 1 0 0 1 17.5001 10Zm-2.382 8h4.764l-2.382-4.7639L15.1181 18Z M4.004 6c-.5523 0-1 .4477-1 1s.4477 1 1 1h7.9985c0 .2149.0045.4303-.0016.6451-.0391 1.3704-.7629 2.63-1.842 3.4457l-.6266.4737-1.7514-2.1892c-.345-.4313-.9743-.5012-1.4055-.1562-.4313.345-.5012.9743-.1562 1.4056l1.717 2.1463-4.5392 3.4313c-.4405.333-.5277.9601-.1947 1.4007.333.4406.9602.5278 1.4008.1947l4.583-3.4644 1.0331 1.2914c.345.4313.9743.5012 1.4056.1562.4312-.345.5011-.9743.1561-1.4056l-.9988-1.2485.5952-.4499c1.5522-1.1733 2.5668-3.0137 2.6228-4.9747L14 8h3.0031c.5523 0 1-.4477 1-1s-.4477-1-1-1h-5.003V4.0032c0-.5523-.4478-1-1-1-.5523 0-1 .4477-1 1V6H4.004Z"/></svg>
