<svg xmlns="http://www.w3.org/2000/svg" width="28" height="28" fill="currentColor" viewBox="0 0 28 28"><path d="M14 2a11.966 11.966 0 0 0-8.485 3.515A11.966 11.966 0 0 0 2 14c0 3.313 1.344 6.315 3.515 8.485A11.966 11.966 0 0 0 14 26a1 1 0 1 0 0-2 9.966 9.966 0 0 1-7.071-2.929A9.966 9.966 0 0 1 4 14a9.966 9.966 0 0 1 2.929-7.071A9.966 9.966 0 0 1 14 4a9.966 9.966 0 0 1 7.071 2.929c.024.024.05.047.075.068L21.143 7H19.5a1 1 0 0 0-.117 1.993L19.5 9h4a1 1 0 0 0 .993-.883L24.5 8V4a1 1 0 0 0-1.993-.117L22.5 4v1.529l-.015-.014A11.966 11.966 0 0 0 14 2Z M14.5 9a1 1 0 1 0-2 0v5a1 1 0 0 0 .293.707l3 3a1 1 0 0 0 1.414-1.414L14.5 13.586V9Z"/></svg>
