<svg xmlns="http://www.w3.org/2000/svg" width="28" height="28" fill="currentColor" viewBox="0 0 28 28"><path d="M13.9 24a1.192 1.192 0 0 1 .167.014c.48.075.877.448.922.942.05.55-.356 1.04-.909 1.044h-.216A11.999 11.999 0 0 1 3.316 8.534 12 12 0 0 1 22.5 5.53V4a1 1 0 1 1 2 0v3.9A1.1 1.1 0 0 1 23.4 9h-3.9a1 1 0 1 1 0-2h1.642A10 10 0 1 0 13.9 24Z M14.5 9a1 1 0 1 0-2 0v4.959c0 .291.116.571.322.777l2.37 2.371a1 1 0 0 0 1.415-1.414L14.5 13.586V9Z M24.5 18.492a2.994 2.994 0 0 0-3-2.992l-.176.005a3.003 3.003 0 0 0-2.824 2.996V20l-.748.001a.76.76 0 0 0-.752.76v4.48c0 .42.337.76.752.76h7.496a.76.76 0 0 0 .752-.76v-4.48c0-.42-.336-.76-.752-.76L24.5 20v-1.507Zm-3.145-1.485L21.5 17c.829 0 1.5.666 1.5 1.5V20h-3v-1.5c0-.78.59-1.42 1.355-1.493Z" clip-rule="evenodd"/></svg>
