<svg xmlns="http://www.w3.org/2000/svg" width="28" height="28" fill="currentColor" viewBox="0 0 28 28"><path d="M13 11v5.586l-1.293-1.293a1 1 0 0 0-1.414 1.414l3 3a1 1 0 0 0 1.414 0l3-3a1 1 0 0 0-1.414-1.414L15 16.586V11a1 1 0 1 0-2 0Z M15.047 3.144a4 4 0 0 0-2.095 0c-.781.212-1.462.744-2.367 1.451l-5.447 4.25c-.586.456-1.029.8-1.356 1.244a4 4 0 0 0-.634 1.3C2.999 11.918 3 12.48 3 13.222v6.018c0 .805 0 1.47.044 2.01.046.563.145 1.08.392 1.565a4 4 0 0 0 1.748 1.748c.485.247 1.002.346 1.564.392C7.29 25 7.954 25 8.758 25h10.483c.805 0 1.47 0 2.01-.044.563-.046 1.08-.145 1.565-.392a4 4 0 0 0 1.748-1.748c.247-.485.346-1.002.392-1.564.044-.541.044-1.206.044-2.01v-6.019c0-.743 0-1.304-.148-1.835a4.001 4.001 0 0 0-.634-1.299c-.327-.443-.77-.788-1.356-1.245l-5.447-4.249c-.905-.707-1.586-1.239-2.367-1.45Zm-1.57 1.93a2 2 0 0 1 1.047 0c.341.093.684.337 1.813 1.217l5.2 4.056c.723.564.928.735 1.072.93a2 2 0 0 1 .317.65c.065.232.074.5.074 1.417V19.2c0 .857 0 1.439-.038 1.889-.035.438-.1.663-.18.819a2 2 0 0 1-.874.874c-.156.08-.38.145-.819.18-.45.037-1.032.038-1.889.038H8.8c-.857 0-1.439 0-1.889-.038-.438-.035-.663-.1-.819-.18a2 2 0 0 1-.874-.874c-.08-.156-.145-.38-.18-.819C5 20.639 5 20.057 5 19.2v-5.856c0-.917.009-1.184.074-1.418a2 2 0 0 1 .317-.65c.144-.194.35-.365 1.072-.929l5.2-4.056c1.129-.88 1.472-1.124 1.813-1.217Z" clip-rule="evenodd"/></svg>
