<svg xmlns="http://www.w3.org/2000/svg" width="28" height="28" viewBox="0 0 28 28" fill="currentColor"><path fill-rule="evenodd" d="M18.309 4c2.447 0 3.526.216 4.622.802a5.47 5.47 0 0 1 2.267 2.267c.586 1.096.802 2.175.802 4.622v4.618c0 2.447-.216 3.526-.802 4.622a5.47 5.47 0 0 1-2.267 2.267c-1.096.586-2.175.802-4.622.802H9.69c-2.447 0-3.526-.216-4.622-.802a5.47 5.47 0 0 1-2.267-2.267C2.216 19.835 2 18.756 2 16.309V11.69c0-2.447.216-3.526.802-4.622a5.47 5.47 0 0 1 2.267-2.267C6.165 4.216 7.244 4 9.691 4zM4 16.309c0 2.334.212 3.018.565 3.678a3.47 3.47 0 0 0 1.448 1.448c.66.353 1.344.565 3.678.565h8.618c2.334 0 3.018-.212 3.678-.565a3.47 3.47 0 0 0 1.448-1.448c.353-.66.565-1.344.565-3.678V12.5H4zM9.691 6c-2.334 0-3.018.212-3.678.565a3.47 3.47 0 0 0-1.448 1.448c-.284.531-.473 1.078-.538 2.487h19.946c-.065-1.41-.254-1.956-.538-2.487a3.47 3.47 0 0 0-1.448-1.448C21.327 6.212 20.643 6 18.31 6z" clip-rule="evenodd"/></svg>