<svg xmlns="http://www.w3.org/2000/svg" width="28" height="28" fill="currentColor" viewBox="0 0 28 28"><path fill-rule="evenodd" d="M5.07 4.801C6.164 4.216 7.243 4 9.691 4h8.616c2.448 0 3.527.216 4.622.801A5.465 5.465 0 0 1 25.2 7.07c.585 1.096.801 2.175.801 4.623v4.616c0 2.448-.216 3.527-.801 4.622a5.465 5.465 0 0 1-2.27 2.269c-1.095.585-2.174.801-4.622.801H9.692c-2.448 0-3.527-.216-4.623-.801a5.465 5.465 0 0 1-2.268-2.269C2.216 19.835 2 18.756 2 16.308v-4.616c0-2.448.216-3.527.801-4.623A5.466 5.466 0 0 1 5.07 4.801ZM9.691 6c-2.335 0-3.019.212-3.68.565a3.466 3.466 0 0 0-1.447 1.448C4.212 8.673 4 9.357 4 11.692v4.616c0 2.335.212 3.019.565 3.68a3.466 3.466 0 0 0 1.448 1.447c.66.353 1.344.565 3.679.565H17V6H9.692Z" clip-rule="evenodd"/></svg>
