<svg xmlns="http://www.w3.org/2000/svg" width="28" height="28" fill="currentColor" viewBox="0 0 28 28"><path fill-rule="evenodd" d="m19.63 12.935 1.377 7.494a.493.493 0 0 0 .434.402.477.477 0 0 0 .217-.03l.093-.035.002-.001a.95.95 0 1 1 .692 1.77h-.002a15.963 15.963 0 0 1-.43.162 20.854 20.854 0 0 1-3.01.829c-.236.047-.477.09-.72.13a29.024 29.024 0 0 1-4.75.369c-1.61 0-3.124-.112-4.544-.335-.244-.039-.485-.08-.724-.125a21.197 21.197 0 0 1-3.212-.868 17.99 17.99 0 0 1-.43-.162h-.002a.95.95 0 1 1 .692-1.77h.002c.096.038.192.074.289.11a.477.477 0 0 0 .314.007.494.494 0 0 0 .33-.375l1.2-6c.267-1.339 1.353-2.752 3.118-2.752H14.1a.5.5 0 0 0 .5-.5V9.39C14.6 6.46 16.81 4 19.731 4c1.29 0 2.217.343 2.983.928l.027.022c.122.094.24.195.355.302.197.184.384.384.566.6.413.49.349.801-.194.933-.257.062-.466.27-.466.534v3.565a.71.71 0 0 1-.708.712h-.125c-.283 0-.483 0-.788-.234a2.76 2.76 0 0 1-.268-.241l-1.351-1.134-.063-.047c-.126-.098-.171-.133-.287-.086-.119.047-.193.492-.194.708a.607.607 0 0 0 .005.084l.407 2.289ZM9.006 21.666a.462.462 0 0 1-.122-.283 8.938 8.938 0 0 1-.023-.588 4.77 4.77 0 0 1 4.768-4.772 4.77 4.77 0 0 1 4.732 5.365.445.445 0 0 1-.113.245.479.479 0 0 1-.276.15 27.117 27.117 0 0 1-4.439.342 27.36 27.36 0 0 1-4.249-.312.48.48 0 0 1-.278-.147Zm12.776-8.082c.159.013.284.012.355.012h.157a2.71 2.71 0 0 0 2.708-2.712V8.24a2.24 2.24 0 0 0 .88-1.381 2.438 2.438 0 0 0-.166-1.472 3.395 3.395 0 0 0-.525-.825c-.589-.698-1.305-1.363-2.244-1.842-.95-.485-2.012-.72-3.216-.72-4.15 0-7.131 3.485-7.131 7.39v.365h-2.034c-3.024 0-4.693 2.421-5.08 4.36l-.922 4.612a2.95 2.95 0 0 0-.67 5.67c2.83 1.106 6.058 1.628 9.64 1.628 3.58 0 6.81-.522 9.639-1.628a2.95 2.95 0 0 0-.437-5.627l-.954-5.186Zm-5.503 6.407a2.77 2.77 0 0 0-2.65-1.968 2.77 2.77 0 0 0-2.655 1.987c.809.076 1.662.115 2.56.115.966 0 1.88-.045 2.745-.134Z" clip-rule="evenodd"/></svg>
