<?xml version="1.0" encoding="UTF-8"?>
<svg width="28px" height="28px" viewBox="0 0 28 28" version="1.1" xmlns="http://www.w3.org/2000/svg" xmlns:xlink="http://www.w3.org/1999/xlink">
    <!-- Generator: Sketch 63.1 (92452) - https://sketch.com -->
    <title>inbox_outline_28</title>
    <desc>Created with Sketch.</desc>
    <g id="Page-1" stroke="none" stroke-width="1" fill="none" fill-rule="evenodd">
        <g id="inbox_outline_28">
            <polygon points="0 0 28 0 28 28 0 28"></polygon>
            <path d="M19.8145263,4 C21.0191377,4 21.6184877,4.09559095 22.2634564,4.38076236 C22.8673896,4.64779 23.3725901,5.05304748 23.7642705,5.58467282 C24.1825645,6.15242058 24.4058964,6.71676166 24.6672133,7.89268779 L25.9761871,13.7830695 L26,14 L26,17.8722296 C26,19.6488276 25.8318064,20.5198053 25.3475478,21.4252903 C24.9057338,22.2514106 24.2514106,22.9057338 23.4252903,23.3475478 C22.5198053,23.8318064 21.6488276,24 19.8722296,24 L8.1277704,24 C6.35117244,24 5.48019467,23.8318064 4.57470973,23.3475478 C3.74858941,22.9057338 3.09426619,22.2514106 2.65245221,21.4252903 C2.16819357,20.5198053 2,19.6488276 2,17.8722296 L2,14 L2.02381294,13.7830695 L3.33278666,7.89268779 C3.59410358,6.71676166 3.81743549,6.15242058 4.23572948,5.58467282 C4.62740992,5.05304748 5.1326104,4.64779 5.7365436,4.38076236 C6.38151232,4.09559095 6.98086227,4 8.18547374,4 L19.8145263,4 Z M4,17.8722296 C4,19.3468981 4.10795998,19.9059608 4.41607861,20.4820925 C4.67149299,20.9596759 5.04032407,21.328507 5.51790745,21.5839214 C6.09403919,21.89204 6.65310186,22 8.1277704,22 L19.8722296,22 C21.3468981,22 21.9059608,21.89204 22.4820925,21.5839214 C22.9596759,21.328507 23.328507,20.9596759 23.5839214,20.4820925 C23.89204,19.9059608 24,19.3468981 24,17.8722296 L24,15 L18.8999819,15 C18.4367116,17.2822403 16.4189579,19 14,19 C11.5810421,19 9.56328845,17.2822403 9.10001812,15 L9.10001812,15 L4,15 L4,17.8722296 Z M20.0230806,6.0009776 L8.18547374,6 C7.23589347,6 6.89838781,6.05382913 6.54531078,6.20994131 C6.25993453,6.33611975 6.03098464,6.51977685 5.84590408,6.77098551 C5.61691622,7.08178925 5.49115367,7.39958073 5.28516078,8.3265487 L4.246,13 L10,13 C10.5128358,13 10.9355072,13.3860402 10.9932723,13.8833789 L11,14 C11,15.6568542 12.3431458,17 14,17 C15.6568542,17 17,15.6568542 17,14 C17,13.4477153 17.4477153,13 18,13 L18,13 L23.753,13 L22.7148392,8.3265487 C22.5088463,7.39958073 22.3830838,7.08178925 22.1540959,6.77098551 C21.9690154,6.51977685 21.7400655,6.33611975 21.4546892,6.20994131 C21.128772,6.06583776 20.8161226,6.00888663 20.0230806,6.0009776 Z" id="↳-Icon-Color" fill="currentColor" fill-rule="nonzero"></path>
        </g>
    </g>
</svg>
