<svg fill="none" viewBox="0 0 28 28" height="28" width="28" xmlns="http://www.w3.org/2000/svg"><path clip-rule="evenodd" d="M11.284 3H16.716c.56 0 1.035 0 1.428.03.414.03.808.098 1.194.268a3.5 3.5 0 011.474 1.223c.239.348.377.723.484 1.124.101.381.189.848.292 1.398l.007.036L22.33 11H25a1 1 0 110 2H3a1 1 0 110-2h2.67l.735-3.921.007-.036c.103-.55.19-1.017.292-1.398.107-.401.245-.776.484-1.124a3.5 3.5 0 011.474-1.223c.386-.17.78-.238 1.194-.269C10.249 3 10.724 3 11.284 3zm8.345 4.447L20.295 11H7.705l.666-3.553c.112-.595.186-.988.266-1.288.076-.288.141-.42.2-.507a1.5 1.5 0 01.632-.524c.096-.043.239-.082.536-.104C10.315 5 10.715 5 11.32 5h5.36c.606 0 1.005 0 1.315.024.297.022.44.061.536.104a1.5 1.5 0 01.631.524c.06.086.125.22.201.507.08.3.154.693.266 1.288zM5 20a3 3 0 116 0 3 3 0 01-6 0zm3-5a5 5 0 105 5.083 6.046 6.046 0 012 0 5 5 0 10.367-1.966 8.048 8.048 0 00-2.734 0A5.002 5.002 0 008 15zm12 2a3 3 0 100 6 3 3 0 000-6z" fill="currentColor" fill-rule="evenodd"/></svg>
