<svg width="28" height="28" viewBox="0 0 28 28" fill="none" xmlns="http://www.w3.org/2000/svg">
<path d="M14 2C20.6274 2 26 7.37258 26 14C26 20.6274 20.6274 26 14 26C7.37258 26 2 20.6274 2 14C2 7.37258 7.37258 2 14 2ZM14 4C8.47715 4 4 8.47715 4 14C4 19.5228 8.47715 24 14 24C19.5228 24 24 19.5228 24 14C24 8.47715 19.5228 4 14 4ZM14.0736 12C14.3112 12 14.4604 12.0371 14.5907 12.1069C14.7211 12.1766 14.8234 12.2789 14.8931 12.4093C14.9629 12.5396 15 12.6888 15 12.9264V19.0736C15 19.3112 14.9629 19.4604 14.8931 19.5907C14.8234 19.7211 14.7211 19.8234 14.5907 19.8931C14.4604 19.9629 14.3112 20 14.0736 20H13.9264C13.6888 20 13.5396 19.9629 13.4093 19.8931C13.2789 19.8234 13.1766 19.7211 13.1069 19.5907C13.0371 19.4604 13 19.3112 13 19.0736V12.9264C13 12.6888 13.0371 12.5396 13.1069 12.4093C13.1766 12.2789 13.2789 12.1766 13.4093 12.1069C13.5396 12.0371 13.6888 12 13.9264 12H14.0736ZM14 7.6C14.7732 7.6 15.4 8.2268 15.4 9C15.4 9.7732 14.7732 10.4 14 10.4C13.2268 10.4 12.6 9.7732 12.6 9C12.6 8.2268 13.2268 7.6 14 7.6Z" fill="currentColor"/>
</svg>
