<svg xmlns="http://www.w3.org/2000/svg" width="28" height="28" fill="none" viewBox="0 0 28 28"><path fill="currentColor" fill-rule="evenodd" d="M26 9.8v-.0413c0-.805 0-1.4693-.0442-2.0105-.0459-.5621-.1445-1.0788-.3918-1.5642a4.0002 4.0002 0 0 0-1.748-1.748c-.4854-.2473-1.0021-.3459-1.5642-.3918C21.7106 4 21.0463 4 20.2413 4H7.7587c-.805 0-1.4693 0-2.0105.0442-.5621.046-1.0788.1445-1.5642.3918a4 4 0 0 0-1.748 1.748c-.2473.4854-.3459 1.002-.3918 1.5642C2 8.2894 2 8.9537 2 9.7587v8.4826c0 .805 0 1.4693.0442 2.0105.046.5621.1445 1.0788.3918 1.5642a4.0002 4.0002 0 0 0 1.748 1.748c.4854.2473 1.002.3459 1.5642.3918C6.2894 24 6.9537 24 7.7587 24h12.4826c.805 0 1.4693 0 2.0105-.0442.5621-.0459 1.0788-.1445 1.5642-.3918a4.0003 4.0003 0 0 0 1.748-1.748c.2473-.4854.3459-1.0021.3918-1.5642C26 19.7106 26 19.0463 26 18.2413V9.8Zm-2.218-2.708c.0797.1564.1446.3806.1804.819C23.9992 8.3611 24 8.9434 24 9.8v8.4c0 .8566-.0008 1.4389-.0376 1.889-.0358.4384-.1007.6626-.1804.819a1.9996 1.9996 0 0 1-.874.874c-.1564.0797-.3806.1446-.819.1804-.4501.0368-1.0324.0376-1.889.0376H7.8c-.8566 0-1.4389-.0008-1.889-.0376-.4384-.0358-.6626-.1007-.819-.1804a1.9997 1.9997 0 0 1-.874-.874c-.0797-.1564-.1446-.3806-.1804-.819C4.0008 19.6389 4 19.0566 4 18.2V9.8c0-.8566.0008-1.4389.0376-1.889.0358-.4384.1007-.6626.1804-.819a2 2 0 0 1 .874-.874c.1564-.0797.3806-.1446.819-.1804C6.3611 6.0008 6.9434 6 7.8 6h12.4c.8566 0 1.4389.0008 1.889.0376.4384.0358.6626.1007.819.1804.3763.1917.6823.4977.874.874ZM10 18c-.5523 0-1 .4477-1 1s.4477 1 1 1h8c.5523 0 1-.4477 1-1s-.4477-1-1-1h-8Z" clip-rule="evenodd"/></svg>
