<svg fill="none" height="28" viewBox="0 0 28 28" width="28" xmlns="http://www.w3.org/2000/svg"><g fill="currentColor"><path clip-rule="evenodd" d="m20.2929 2.29289c.1875-.18753.4419-.29289.7071-.29289h4c.5523 0 1 .44772 1 1v4c0 .55228-.4477 1-1 1h-2v2c0 .5523-.4477 1-1 1h-2v2c0 .5523-.4477 1-1 1h-2.5858l-.0424.0424c.7149 1.1489 1.1282 2.5059 1.1282 3.9576 0 4.1421-3.3579 7.5-7.5 7.5-4.14214 0-7.5-3.3579-7.5-7.5s3.35786-7.5 7.5-7.5c.6391 0 1.2606.0802 1.8545.2313zm1.1213 1.70711-8.5675 8.5675c-.2713.2713-.6738.3634-1.0361.2372-.5657-.1971-1.1745-.3047-1.8106-.3047-3.03757 0-5.5 2.4624-5.5 5.5s2.46243 5.5 5.5 5.5c3.0376 0 5.5-2.4624 5.5-5.5 0-1.3042-.4527-2.5-1.2104-3.4426-.3197-.3978-.2886-.9727.0724-1.3336l.9309-.9309c.1875-.1875.4419-.2929.7071-.2929h2v-2c0-.55228.4477-1 1-1h2v-2c0-.55228.4477-1 1-1h2v-2z" fill-rule="evenodd"/><path d="m10 19.5c0 .8284-.67157 1.5-1.5 1.5s-1.5-.6716-1.5-1.5.67157-1.5 1.5-1.5 1.5.6716 1.5 1.5z"/></g></svg>
