<svg fill="none" height="28" viewBox="0 0 28 28" width="28" xmlns="http://www.w3.org/2000/svg"><path clip-rule="evenodd" d="m8 4.99999-.15148-.00009c-.7806-.00068-1.39881-.00123-1.93008.17139-1.06553.34621-1.90093 1.18161-2.24714 2.24714-.17262.53127-.17207 1.14948-.17139 1.93008l.00009.15148v9.50001h-1.33772c-.64191 0-1.16228.5204-1.16228 1.1623 0 .5003.32013.9444.79473 1.1026l1.46631.4888c.27638.0921.41457.1382.55581.1705.1255.0288.25271.0494.38086.0618.14422.014.28989.014.58122.014h18.44217c.2913 0 .437 0 .5812-.014.1281-.0124.2554-.033.3808-.0618.1413-.0323.2795-.0784.5559-.1705l1.4663-.4888c.4746-.1582.7947-.6023.7947-1.1026 0-.6419-.5204-1.1623-1.1623-1.1623h-1.3377v-9.50001l.0001-.15148c.0007-.7806.0012-1.39881-.1714-1.93008-.3462-1.06553-1.1816-1.90093-2.2471-2.24714-.5313-.17262-1.1495-.17207-1.9301-.17139l-.1515.00009zm-1.46353 2.07342c.18798-.06108.45506-.07342 1.46353-.07342h12c1.0085 0 1.2755.01234 1.4635.07342.4567.14837.8147.5064.9631.96305.0611.18798.0734.45506.0734 1.46353v9.50001h-17v-9.50001c0-1.00847.01234-1.27555.07342-1.46353.14837-.45665.5064-.81468.96305-.96305z" fill="currentColor" fill-rule="evenodd"/></svg>
