<svg xmlns="http://www.w3.org/2000/svg" width="28" height="28" fill="none" viewBox="0 0 28 28"><path fill="currentColor" fill-rule="evenodd" d="M5.5147 5.5147C7.6852 3.3442 10.6866 2 14 2c3.3134 0 6.3148 1.3442 8.4853 3.5147C24.6558 7.6852 26 10.6866 26 14c0 3.3134-1.3442 6.3148-3.5147 8.4853C20.3148 24.6558 17.3134 26 14 26c-3.3134 0-6.3148-1.3442-8.4853-3.5147C3.3442 20.3148 2 17.3134 2 14c0-3.3134 1.3442-6.3148 3.5147-8.4853Zm2.1565.7423 2.8524 2.8523A5.9757 5.9757 0 0 1 14 8a5.9757 5.9757 0 0 1 3.4764 1.1093l2.8524-2.8523C18.6044 4.8457 16.4017 4 14 4c-2.4017 0-4.6044.8457-6.3288 2.257ZM21.743 7.6712l-2.8523 2.8524A5.9758 5.9758 0 0 1 20 14a5.9758 5.9758 0 0 1-1.1093 3.4764l2.8523 2.8524C23.1544 18.6044 24 16.4017 24 14c0-2.4017-.8456-4.6044-2.257-6.3288ZM20.3288 21.743l-2.8524-2.8523A5.9758 5.9758 0 0 1 14 20a5.9758 5.9758 0 0 1-3.4764-1.1093L7.6712 21.743C9.3956 23.1544 11.5983 24 14 24c2.4017 0 4.6044-.8456 6.3288-2.257ZM6.257 20.3288l2.8523-2.8524A5.9757 5.9757 0 0 1 8 14a5.9757 5.9757 0 0 1 1.1093-3.4764L6.257 7.6712C4.8457 9.3956 4 11.5983 4 14c0 2.4017.8457 4.6044 2.257 6.3288ZM14 10c-1.1048 0-2.1035.4466-2.8284 1.1716C10.4466 11.8965 10 12.8952 10 14c0 1.1048.4466 2.1035 1.1716 2.8284C11.8965 17.5534 12.8952 18 14 18c1.1048 0 2.1035-.4466 2.8284-1.1716C17.5534 16.1035 18 15.1048 18 14c0-1.1048-.4466-2.1035-1.1716-2.8284C16.1035 10.4466 15.1048 10 14 10Z" clip-rule="evenodd"/></svg>
