<svg fill="none" height="28" viewBox="0 0 28 28" width="28" xmlns="http://www.w3.org/2000/svg" xmlns:xlink="http://www.w3.org/1999/xlink"><linearGradient id="a" gradientUnits="userSpaceOnUse" x1="-14" x2="14" y1="14" y2="42"><stop offset="0" stop-color="#ffb73d"/><stop offset="1" stop-color="#ffa000"/></linearGradient><path d="m0 14c0-7.73199 6.26801-14 14-14 7.732 0 14 6.26801 14 14 0 7.732-6.268 14-14 14-7.73199 0-14-6.268-14-14z" fill="url(#a)"/><path clip-rule="evenodd" d="m14.0053 5h.0016c.5481 0 .9924.44432.9924.99242v.00459l-.0046 1.00761c-.0026.55048-.4496.99538-1 .99538h-.0017c-.5481 0-.9924-.44432-.9924-.99242v-.00459l.0047-1.00761c.0025-.55048.4495-.99538 1-.99538zm6.3624 2.63978.0012.00116c.3876.38756.3876 1.01593 0 1.4035l-.0032.00323-.7158.7092c-.3911.38743-1.0217.38603-1.411-.00326l-.0011-.00116c-.3876-.38756-.3876-1.01593 0-1.4035l.0032-.00323.7158-.7092c.3911-.38744 1.0217-.38599 1.4109.00326zm2.6323 6.36722v-.0017c0-.5505-.4449-.9974-.9954-1l-1.0076-.0046h-.0046c-.5481 0-.9924.4443-.9924.9924v.0016c0 .5505.4449.9975.9954 1l1.0076.0047h.0046c.5481 0 .9924-.4443.9924-.9924zm-18-.0123v-.0017c0-.5481.44432-.9924.99242-.9924h.00459l1.00761.0047c.55048.0025.99538.4495.99538 1v.0016c0 .5481-.44432.9924-.99242.9924h-.00459l-1.00761-.0046c-.55048-.0026-.99538-.4495-.99538-1zm2.641-6.36354-.00116.00115c-.38925.38925-.3907 1.0199-.00326 1.41094l.7092.71578.00323.00325c.38757.38752 1.01594.38752 1.4035 0l.00116-.00115c.38923-.38925.39073-1.0199.00326-1.41094l-.7092-.71578-.00323-.00325c-.38757-.38757-1.01594-.38757-1.4035 0zm6.359 12.86884c.5523 0 1 .4477 1 1s-.4477 1-1 1-1-.4477-1-1 .4477-1 1-1zm4-6.5c0 1.6787-1.0341 3.1159-2.5 3.7092v.2908c0 .4659 0 .6989-.0761.8827-.1015.245-.2962.4397-.5412.5412-.1838.0761-.4168.0761-.8827.0761s-.6989 0-.8827-.0761c-.245-.1015-.4397-.2962-.5412-.5412-.0761-.1838-.0761-.4168-.0761-.8827v-.2908c-1.4659-.5933-2.5-2.0305-2.5-3.7092 0-2.2091 1.7909-4 4-4s4 1.7909 4 4z" fill="#fff" fill-rule="evenodd"/></svg>
