<svg xmlns="http://www.w3.org/2000/svg" width="28" height="28" viewBox="0 0 28 28" fill="currentColor"><path fill-rule="evenodd" d="M2.293 3.293a1 1 0 0 1 1.414 0l20 20a1 1 0 1 1-1.414 1.414l-3.674-3.674-.625.49-.003.002-2.715 2.117a2.08 2.08 0 0 1-2.552 0l-2.715-2.117-.004-.002c-2.644-2.077-4.51-3.612-5.697-5.087-1.247-1.55-1.758-3.047-1.758-4.99a6.5 6.5 0 0 1 1.894-4.588L2.293 4.707a1 1 0 0 1 0-1.414M5.857 8.27a4.5 4.5 0 0 0-1.307 3.174c0 1.494.36 2.548 1.316 3.738 1.017 1.263 2.686 2.655 5.371 4.765l2.716 2.116a.08.08 0 0 0 .094 0l2.715-2.116.432-.34z" clip-rule="evenodd"/><path d="M18.898 4.913c3.594 0 6.552 2.913 6.552 6.532 0 1.26-.213 2.36-.742 3.428-.52 1.051-1.318 2.011-2.389 3.034a1 1 0 0 1-1.38-1.447c.987-.943 1.6-1.716 1.976-2.474.367-.74.535-1.527.535-2.54 0-2.504-2.05-4.533-4.552-4.533-1.422 0-2.673.788-4.097 2.687a1.003 1.003 0 0 1-1.6 0c-1.45-1.932-2.238-2.444-3.329-2.624a1 1 0 0 1 .326-1.974c1.535.253 2.613.994 3.814 2.406 1.375-1.534 2.93-2.495 4.886-2.495"/></svg>