<svg xmlns="http://www.w3.org/2000/svg" width="28" height="28" viewBox="0 0 28 28" fill="currentColor"><path d="M2.293 3.293a1 1 0 0 1 1.414 0l20 20a1 1 0 0 1-1.414 1.414l-3.665-3.665-.621.49-2.78 2.161a2 2 0 0 1-2.454 0l-2.78-2.162C3.945 16.827 2.5 15.02 2.5 11.406a6.5 6.5 0 0 1 1.897-4.594L2.293 4.707a1 1 0 0 1 0-1.414m16.68 1.587a6.526 6.526 0 0 1 6.527 6.526c0 2.713-.816 4.407-3.781 7.074L8.175 4.938q.419-.056.851-.057c1.872 0 3.538.85 4.974 2.486 1.436-1.636 3.102-2.486 4.974-2.486"/></svg>