<svg fill="none" height="28" viewBox="0 0 28 28" width="28" xmlns="http://www.w3.org/2000/svg" xmlns:xlink="http://www.w3.org/1999/xlink"><linearGradient id="a" gradientUnits="userSpaceOnUse" x1="-14" x2="14" y1="14" y2="42"><stop offset="0" stop-color="#ff5263"/><stop offset="1" stop-color="#ff3347"/></linearGradient><path d="m0 14c0-7.73199 6.26801-14 14-14 7.732 0 14 6.26801 14 14 0 7.732-6.268 14-14 14-7.73199 0-14-6.268-14-14z" fill="url(#a)"/><path d="m16.859 9c2.0109 0 3.641 1.6115 3.641 3.5994 0 2.0076-.8136 3.0141-4.2647 5.6676l-1.5702 1.2074c-.3912.3008-.939.3008-1.3302 0l-1.5702-1.2074c-3.45108-2.6535-4.2647-3.66-4.2647-5.6676 0-1.9879 1.63012-3.5994 3.641-3.5994 1.0773 0 2.0346.50139 2.859 1.4715.8244-.97011 1.7817-1.4715 2.859-1.4715z" fill="#fff"/></svg>
