<svg xmlns="http://www.w3.org/2000/svg" width="28" height="28" fill="currentColor" viewBox="0 0 28 28"><path fill-rule="evenodd" d="M3 7a1 1 0 0 1 1-1h17a1 1 0 1 1 0 2H4a1 1 0 0 1-1-1Zm1.006 4a1 1 0 1 0 0 2H8a1 1 0 1 0 0-2H4.006Zm-.001 5a1 1 0 1 0 0 2h2.991a1 1 0 1 0 0-2H4.005Zm17.224-4.998c-1.226 0-2.31.422-3.235 1.205-.945-.785-2.05-1.205-3.26-1.205-2.524 0-4.732 2.08-4.732 4.586 0 1.333.413 2.389 1.31 3.444.841.99 2.131 2.003 3.87 3.302l.003.003 1.789 1.326c.61.452 1.453.452 2.063 0l1.788-1.326.003-.003c1.74-1.299 3.028-2.313 3.867-3.304.895-1.056 1.306-2.111 1.306-3.443 0-2.519-2.261-4.585-4.772-4.585Zm-2.463 3.258c.746-.884 1.555-1.258 2.463-1.258 1.506 0 2.772 1.268 2.772 2.585 0 .823-.219 1.428-.831 2.15-.668.787-1.764 1.67-3.537 2.994l-.002.001-1.626 1.206-1.626-1.206h-.002c-1.773-1.326-2.872-2.208-3.541-2.995-.615-.723-.834-1.328-.834-2.148 0-1.331 1.24-2.587 2.733-2.587.895 0 1.746.38 2.51 1.266a1 1 0 0 0 1.521-.008Z" clip-rule="evenodd"/></svg>
