<svg xmlns="http://www.w3.org/2000/svg" width="28" height="28" fill="none" viewBox="0 0 28 28">
  <rect width="28" height="28" fill="url(#a)" rx="14"/>
  <path fill="#fff" d="M19.665 12.65c1.566 0 2.835 1.258 2.835 2.809 0 1.567-.634 2.352-3.32 4.423l-1.223.942a.85.85 0 0 1-1.036 0l-1.223-.942c-2.687-2.071-3.32-2.857-3.32-4.423 0-1.551 1.269-2.81 2.835-2.81.839 0 1.584.392 2.226 1.15.642-.758 1.387-1.15 2.226-1.15Zm-8.92 5.978c.54 0 .98.447.98.997s-.44.996-.98.996H7.48a.988.988 0 0 1-.98-.996c0-.55.439-.997.98-.997h3.265Zm-1.306-5.314c.54 0 .98.446.98.997 0 .55-.44.996-.98.996h-1.96a.988.988 0 0 1-.979-.996c0-.55.439-.997.98-.997h1.959ZM19.888 8c.54 0 .98.446.98.996s-.44.997-.98.997H7.48a.988.988 0 0 1-.98-.997c0-.55.439-.996.98-.996h12.408Z"/>
  <defs>
    <linearGradient id="a" x1="-14" x2="14" y1="14" y2="42" gradientUnits="userSpaceOnUse">
      <stop stop-color="#B1B6BD"/>
      <stop offset="1" stop-color="#99A2AD"/>
    </linearGradient>
  </defs>
</svg>
