<svg xmlns="http://www.w3.org/2000/svg" width="28" height="28" fill="none" viewBox="0 0 28 28"><path fill="currentColor" fill-rule="evenodd" d="M15.4 5h-2.8c-1.7132 0-2.8777.0016-3.778.0751-.8768.0716-1.3252.2015-1.638.3609a4 4 0 0 0-1.748 1.748c-.1594.3128-.2893.7612-.3609 1.638C5.0016 9.7224 5 10.8869 5 12.6v2.8c0 1.7132.0016 2.8777.0751 3.7779.0716.8769.2015 1.3253.3609 1.6381a4.0002 4.0002 0 0 0 1.748 1.748c.3128.1594.7612.2893 1.638.3609.9003.0735 2.0648.0751 3.778.0751h2.8c1.7132 0 2.8777-.0016 3.7779-.0751.8769-.0716 1.3253-.2015 1.6381-.3609a4.0003 4.0003 0 0 0 1.748-1.748c.1594-.3128.2893-.7612.3609-1.6381.0735-.9002.0751-2.0647.0751-3.7779v-2.8c0-1.7132-.0016-2.8777-.0751-3.778-.0716-.8768-.2015-1.3252-.3609-1.638a4.0002 4.0002 0 0 0-1.748-1.748c-.3128-.1594-.7612-.2893-1.6381-.3609C18.2777 5.0016 17.1132 5 15.4 5ZM3.654 6.276C3 7.5596 3 9.2398 3 12.6v2.8c0 3.3603 0 5.0405.654 6.3239a5.9996 5.9996 0 0 0 2.622 2.6221C7.5596 25 9.2398 25 12.6 25h2.8c3.3603 0 5.0405 0 6.3239-.654a5.9993 5.9993 0 0 0 2.6221-2.6221C25 20.4405 25 18.7603 25 15.4v-2.8c0-3.3603 0-5.0405-.654-6.324a5.9996 5.9996 0 0 0-2.6221-2.622C20.4405 3 18.7603 3 15.4 3h-2.8c-3.3603 0-5.0405 0-6.324.654a6 6 0 0 0-2.622 2.622Z" clip-rule="evenodd"/><path fill="currentColor" d="M8 10c0-.6904.5596-1.25 1.25-1.25s1.25.5596 1.25 1.25-.5596 1.25-1.25 1.25S8 10.6904 8 10Zm4 0c0-.5523.4477-1 1-1h6c.5523 0 1 .4477 1 1s-.4477 1-1 1h-6c-.5523 0-1-.4477-1-1Zm-4 8c0-.6904.5596-1.25 1.25-1.25s1.25.5596 1.25 1.25-.5596 1.25-1.25 1.25S8 18.6904 8 18Zm4 0c0-.5523.4477-1 1-1h3c.5523 0 1 .4477 1 1s-.4477 1-1 1h-3c-.5523 0-1-.4477-1-1Zm-4-4c0-.6904.5596-1.25 1.25-1.25s1.25.5596 1.25 1.25-.5596 1.25-1.25 1.25S8 14.6904 8 14Zm4 0c0-.5523.4477-1 1-1h6c.5523 0 1 .4477 1 1s-.4477 1-1 1h-6c-.5523 0-1-.4477-1-1Z"/></svg>
