<svg xmlns="http://www.w3.org/2000/svg" width="28" height="28" fill="currentColor" viewBox="0 0 28 28"><path d="m3.674 5.219-.404.245c-.187.112-.266.242-.266.38 0 .1.034.18.09.234.054.055.134.09.232.09.092 0 .169-.025.356-.136l.285-.152.002.046v2.51c0 .192.05.33.134.419.083.089.21.141.386.141.175 0 .3-.052.382-.14.083-.089.133-.227.133-.42V5.64a.653.653 0 0 0-.169-.468A.612.612 0 0 0 4.383 5c-.221 0-.472.075-.709.219ZM10 6a1 1 0 0 0 0 2h14a1 1 0 1 0 0-2H10Zm0 7a1 1 0 1 0 0 2h14a1 1 0 1 0 0-2H10Zm-1 8a1 1 0 0 1 1-1h14a1 1 0 1 1 0 2H10a1 1 0 0 1-1-1Zm-5.995-5.475c0 .282.216.475.533.475h1.924c.34 0 .542-.173.542-.464 0-.29-.208-.47-.542-.47h-.881v-.046l.68-.604c.458-.407.683-.81.683-1.234 0-.677-.626-1.18-1.464-1.18-.804 0-1.48.495-1.48 1.057 0 .256.195.44.472.44.193 0 .32-.075.495-.293.153-.19.277-.26.45-.26.224 0 .38.144.38.357 0 .19-.133.375-.432.657l-.882.83c-.354.331-.478.522-.478.735Zm1.458 7.478c-.81 0-1.463-.415-1.463-.928 0-.262.181-.451.433-.451.156 0 .296.073.452.236.184.195.366.283.572.283.296 0 .492-.15.492-.376 0-.225-.196-.378-.492-.378h-.153c-.232 0-.397-.18-.397-.434 0-.24.165-.429.397-.429h.153c.243 0 .422-.14.422-.333 0-.192-.176-.33-.422-.33-.19 0-.346.076-.55.271a.61.61 0 0 1-.432.178c-.266 0-.461-.18-.461-.426 0-.48.667-.883 1.46-.883.885 0 1.476.429 1.476 1.05 0 .405-.313.755-.696.792v.079c.459 0 .746.403.746.897 0 .691-.6 1.182-1.537 1.182Z"/></svg>
