<svg fill="none" height="28" viewBox="0 0 28 28" width="28" xmlns="http://www.w3.org/2000/svg" xmlns:xlink="http://www.w3.org/1999/xlink"><linearGradient id="a" gradientUnits="userSpaceOnUse" x1="-14" x2="14" y1="14" y2="42"><stop offset="0" stop-color="#b1b6bd"/><stop offset="1" stop-color="#99a2ad"/></linearGradient><rect fill="url(#a)" height="28" rx="14" width="28"/><path d="m16 18c.5523 0 1 .4477 1 1s-.4477 1-1 1h-8c-.55228 0-1-.4477-1-1s.44772-1 1-1zm4-5c.5523 0 1 .4477 1 1s-.4477 1-1 1h-12c-.55228 0-1-.4477-1-1s.44772-1 1-1zm0-5c.5523 0 1 .44772 1 1s-.4477 1-1 1h-12c-.55228 0-1-.44772-1-1s.44772-1 1-1z" fill="#fff"/></svg>