<svg xmlns="http://www.w3.org/2000/svg" width="28" height="28" fill="currentColor" viewBox="0 0 28 28"><path fill-rule="evenodd" d="M3 7a1 1 0 0 1 1-1h17a1 1 0 1 1 0 2H4a1 1 0 0 1-1-1Zm1.006 4a1 1 0 1 0 0 2H8a1 1 0 1 0 0-2H4.006Zm-.001 5a1 1 0 1 0 0 2h2.991a1 1 0 1 0 0-2H4.005Zm17.224-4.998c-1.226 0-2.31.422-3.235 1.205-.945-.785-2.05-1.205-3.26-1.205-2.524 0-4.732 2.08-4.732 4.586 0 1.333.413 2.389 1.31 3.444.841.99 2.131 2.003 3.87 3.302l.003.003 1.789 1.326c.61.452 1.453.452 2.063 0l1.788-1.326.003-.003c1.74-1.299 3.028-2.313 3.867-3.304.895-1.056 1.306-2.111 1.306-3.443 0-2.519-2.261-4.585-4.772-4.585Z" clip-rule="evenodd"/></svg>
