<svg fill="none" height="28" width="28" viewBox="0 0 28 28" xmlns="http://www.w3.org/2000/svg"><g fill="currentColor"><path d="M14 16a2 2 0 1 0 0-4 2 2 0 0 0 0 4z"/><g clip-rule="evenodd" fill-rule="evenodd"><path d="M27 21a6 6 0 1 1-12 0 6 6 0 0 1 12 0zm-6-4a1 1 0 0 1 1 1v2h2a1 1 0 1 1 0 2h-2v2a1 1 0 1 1-2 0v-2h-2a1 1 0 1 1 0-2h2v-2a1 1 0 0 1 1-1z"/><path d="M14 9a5 5 0 0 0-1.588 9.743 1 1 0 1 1-.634 1.897 7 7 0 1 1 8.861-8.863 1 1 0 0 1-1.896.634A5.002 5.002 0 0 0 14 9z"/><path d="M14 4C8.477 4 4 8.477 4 14c0 5.188 3.95 9.454 9.007 9.951a1 1 0 1 1-.196 1.99C6.741 25.345 2 20.228 2 14 2 7.373 7.373 2 14 2c6.227 0 11.345 4.742 11.942 10.812a1 1 0 1 1-1.99.196C23.453 7.95 19.188 4 14 4z"/></g></g></svg>
