<svg xmlns="http://www.w3.org/2000/svg" width="28" height="28" fill="currentColor" viewBox="0 0 28 28"><path d="M21.071 6.929A10.004 10.004 0 0 0 9.986 4.838a1 1 0 1 1-.802-1.832c4.393-1.923 9.704-1.089 13.301 2.509 3.6 3.599 4.433 8.913 2.507 13.306a1 1 0 0 1-1.832-.802 10.004 10.004 0 0 0-2.089-11.09Z"/><path fill-rule="evenodd" d="M3.293 3.293a1 1 0 0 1 1.414 0l20 20a1 1 0 1 1-1.414 1.414l-1.544-1.544c-4.715 3.997-11.786 3.77-16.234-.678C1.067 18.037.84 10.965 4.837 6.251L3.293 4.707a1 1 0 0 1 0-1.414Zm14.9 16.314 2.136 2.136c-3.928 3.219-9.734 2.995-13.4-.672-3.667-3.667-3.89-9.472-.672-13.4l2.136 2.137a7.002 7.002 0 0 0 9.8 9.799Zm-7.729-2.071a5.002 5.002 0 0 1-.636-6.294l2.24 2.24a2 2 0 0 0 2.45 2.45l2.24 2.24a5.002 5.002 0 0 1-6.293-.636Z" clip-rule="evenodd"/><path d="M13.725 9.008a4.985 4.985 0 0 1 3.81 1.457 4.985 4.985 0 0 1 1.457 3.82 1 1 0 0 0 1.997.113 6.985 6.985 0 0 0-2.04-5.348 6.985 6.985 0 0 0-5.334-2.04 1 1 0 1 0 .11 1.998Z"/></svg>
