<svg xmlns="http://www.w3.org/2000/svg" width="28" height="28" fill="currentColor" viewBox="0 0 28 28"><path fill-rule="evenodd" d="M8 9.4c0-2.24 0-3.36.436-4.216a4 4 0 0 1 1.748-1.748C11.04 3 12.16 3 14.4 3h.84c3.416 0 5.124 0 6.43.665a6.1 6.1 0 0 1 2.665 2.666C25 7.636 25 9.344 25 12.76v2.48c0 3.416 0 5.124-.665 6.43a6.1 6.1 0 0 1-2.666 2.665C20.364 25 18.656 25 15.24 25h-.84c-2.24 0-3.36 0-4.216-.436a4 4 0 0 1-1.748-1.748C8 21.96 8 20.84 8 18.6V9.4Zm10.923 2.737c1.014.606 1.521.91 1.693 1.301.15.343.15.732 0 1.074-.172.393-.679.695-1.693 1.301l-2.684 1.603c-1.06.634-1.59.95-2.027.91a1.338 1.338 0 0 1-.953-.542C13 17.431 13 16.814 13 15.578v-3.206c0-1.235 0-1.852.26-2.206.225-.308.572-.504.952-.54.436-.042.966.275 2.027.908l2.684 1.603ZM5.5 9.04c0-2.464 0-3.696.48-4.637a4.4 4.4 0 0 1 .552-.834 6.1 6.1 0 0 0-2.867 2.762C3 7.636 3 9.344 3 12.76v2.48c0 3.415 0 5.124.665 6.428a6.1 6.1 0 0 0 2.867 2.762 4.403 4.403 0 0 1-.552-.833c-.48-.942-.48-2.174-.48-4.638V9.04Z" clip-rule="evenodd"/></svg>
