<svg xmlns="http://www.w3.org/2000/svg" width="28" height="28" fill="currentColor" viewBox="0 0 28 28"><path fill-rule="evenodd" d="M7.79 11.037a2.229 2.229 0 0 1 2.941-1.656 15.142 15.142 0 0 1 5.021 2.966 2.204 2.204 0 0 1 0 3.31 15.14 15.14 0 0 1-5.008 2.961 2.23 2.23 0 0 1-2.942-1.646 14.948 14.948 0 0 1-.302-2.997c0-1.005.1-1.987.29-2.938Zm1.961.393c.025-.124.156-.22.314-.163 1.624.573 3.1 1.455 4.358 2.574a.207.207 0 0 1 .077.16.21.21 0 0 1-.077.161 13.141 13.141 0 0 1-4.347 2.571c-.158.056-.29-.039-.315-.162a12.949 12.949 0 0 1-.261-2.596c0-.872.087-1.723.251-2.545Z M16.044 3c1.363 0 2.447 0 3.321.071.896.074 1.66.227 2.359.583a6 6 0 0 1 2.622 2.622c.356.7.51 1.463.583 2.359.071.874.071 1.958.071 3.321v4.088c0 1.363 0 2.447-.071 3.321-.074.896-.227 1.66-.583 2.359a6 6 0 0 1-2.622 2.622c-.7.356-1.463.51-2.359.583-.874.071-1.958.071-3.321.071h-4.088c-1.363 0-2.447 0-3.321-.071-.896-.074-1.66-.227-2.359-.583a6 6 0 0 1-2.622-2.622c-.356-.7-.51-1.463-.583-2.359C3 18.491 3 17.407 3 16.044v-4.088c0-1.363 0-2.447.071-3.321.074-.896.227-1.66.583-2.359a6 6 0 0 1 2.622-2.622c.7-.356 1.463-.51 2.359-.583C9.509 3 10.593 3 11.956 3h4.088Zm4.772 19.564c-.31.158-.69.267-1.256.335.306-.357.57-.751.786-1.175.356-.7.51-1.463.583-2.359.071-.874.071-1.958.071-3.321v-4.088c0-1.363 0-2.447-.071-3.321-.074-.896-.227-1.66-.583-2.359a6.002 6.002 0 0 0-.786-1.175c.567.068.947.177 1.256.335a4 4 0 0 1 1.748 1.748c.189.37.308.842.371 1.613C23 9.581 23 10.583 23 12v4c0 1.417 0 2.419-.065 3.203-.063.771-.182 1.243-.371 1.613a4 4 0 0 1-1.748 1.748ZM8.797 5.064C9.581 5.002 10.583 5 12 5c1.417 0 2.419 0 3.203.065.772.063 1.243.182 1.613.371a4 4 0 0 1 1.748 1.748c.189.37.308.842.371 1.613C19 9.581 19 10.583 19 12v4c0 1.417 0 2.419-.065 3.203-.063.771-.182 1.243-.371 1.613a4 4 0 0 1-1.748 1.748c-.37.189-.841.308-1.613.371C14.419 23 13.417 23 12 23c-1.417 0-2.419 0-3.203-.065-.771-.063-1.243-.182-1.613-.371a4 4 0 0 1-1.748-1.748c-.189-.37-.308-.841-.371-1.613C5 18.419 5 17.417 5 16v-4c0-1.417 0-2.419.065-3.203.063-.771.182-1.243.371-1.613a4 4 0 0 1 1.748-1.748c.37-.189.842-.308 1.613-.371Z" clip-rule="evenodd"/></svg>
