<svg xmlns="http://www.w3.org/2000/svg" width="28" height="28" fill="currentColor" viewBox="0 0 28 28"><path fill-rule="evenodd" d="M6.07 3.801C7.164 3.216 8.243 3 10.691 3h6.616c2.448 0 3.527.216 4.622.801A5.465 5.465 0 0 1 24.2 6.07c.585 1.096.801 2.175.801 4.623v6.616c0 2.448-.216 3.527-.801 4.622a5.465 5.465 0 0 1-2.27 2.269c-1.095.585-2.174.801-4.622.801h-6.616c-2.448 0-3.527-.216-4.623-.801a5.465 5.465 0 0 1-2.268-2.269C3.216 20.835 3 19.756 3 17.308v-6.616c0-2.448.216-3.527.801-4.623A5.466 5.466 0 0 1 6.07 3.801Zm.943 1.764c.372-.2.752-.354 1.432-.45-.244.291-.46.61-.644.954C7.216 7.165 7 8.244 7 10.692v6.616c0 2.448.216 3.527.801 4.622.185.345.4.664.644.955-.68-.096-1.06-.25-1.432-.45a3.466 3.466 0 0 1-1.448-1.448C5.212 20.327 5 19.643 5 17.308v-6.616c0-2.335.212-3.019.565-3.68a3.466 3.466 0 0 1 1.448-1.447Zm4 16.87c.66.353 1.344.565 3.679.565h2.616c2.335 0 3.019-.212 3.68-.565a3.467 3.467 0 0 0 1.447-1.448c.353-.66.565-1.344.565-3.679v-6.616c0-2.335-.212-3.019-.565-3.68a3.466 3.466 0 0 0-1.448-1.447C20.327 5.212 19.643 5 17.308 5h-2.616c-2.335 0-3.019.212-3.68.565a3.466 3.466 0 0 0-1.447 1.448C9.212 7.673 9 8.357 9 10.692v6.616c0 2.335.212 3.019.565 3.68a3.466 3.466 0 0 0 1.448 1.447Zm4.75-12.53.038.023 2.59 1.553.038.023c.425.255.803.48 1.088.69.294.215.62.503.803.928.24.56.24 1.196 0 1.756-.182.425-.51.713-.803.928-.285.21-.663.435-1.088.69l-.038.023-2.59 1.553-.039.023c-.424.254-.802.48-1.12.633-.322.154-.74.314-1.214.262a2.152 2.152 0 0 1-1.528-.91c-.263-.376-.337-.806-.368-1.167-.032-.357-.032-.805-.032-1.318v-3.19c0-.512 0-.96.032-1.318.031-.36.105-.791.368-1.167a2.152 2.152 0 0 1 1.528-.91c.474-.052.892.108 1.214.262.318.153.696.379 1.12.633Zm-2.15 1.08a.164.164 0 0 0-.062.044 1.345 1.345 0 0 0-.035.23c-.023.261-.024.62-.024 1.188v3.106c0 .567.001.927.024 1.188.013.137.028.205.035.23.02.022.041.036.061.044.03-.01.082-.03.164-.069.224-.107.52-.283.995-.568l2.59-1.553c.475-.284.77-.462.973-.61a1.31 1.31 0 0 0 .161-.135.267.267 0 0 0 0-.16 1.248 1.248 0 0 0-.161-.134c-.202-.149-.498-.327-.973-.611l-2.59-1.553c-.475-.285-.771-.461-.995-.568a1.43 1.43 0 0 0-.164-.069Z" clip-rule="evenodd"/></svg>
