<svg xmlns="http://www.w3.org/2000/svg" width="28" height="28" fill="currentColor" viewBox="0 0 28 28"><path fill-rule="evenodd" d="M12.009 9.013a1.363 1.363 0 0 0-.755.111l-.002.001a1.476 1.476 0 0 0-.652.595c-.082.137-.16.317-.199.405l-.02.045c-.131.283-.258.568-.386.852l-.207.464-.524.032c-.358.022-.715.044-1.073.063-.105.006-.317.018-.512.067a1.597 1.597 0 0 0-.87.535 1.337 1.337 0 0 0-.302.726v.003a1.5 1.5 0 0 0 .386 1.142l.005.006c.137.154.29.27.38.338.276.207.549.42.822.631l.428.332c-.102.35-.201.7-.3 1.049-.063.224-.126.446-.19.666a1.89 1.89 0 0 0-.084.52c0 .177.028.368.106.561.222.553.72.831 1.237.843.328.007.605-.094.817-.209.15-.081.286-.186.359-.242.468-.362.94-.72 1.412-1.079l.023-.017.331.218c.329.216.657.433.99.649.204.132.497.273.873.265h.005c.45-.013.822-.23 1.06-.572.265-.376.276-.776.246-1.053a2.108 2.108 0 0 0-.06-.307l-.093-.348a90.89 90.89 0 0 1-.286-1.093l.3-.273c.17-.155.34-.311.514-.462a4.04 4.04 0 0 0 .331-.314 1.46 1.46 0 0 0 .381-.978 1.35 1.35 0 0 0-.397-.965l-.002-.001a1.445 1.445 0 0 0-.726-.394 9.411 9.411 0 0 0-1-.146 24.432 24.432 0 0 1-.482-.057l-.405-.984-.23-.554a1.957 1.957 0 0 0-.252-.464l-.001-.002a1.498 1.498 0 0 0-.988-.604l-.008-.001Zm-.044 2.137a.147.147 0 0 0-.27-.006c-.154.335-.304.671-.454 1.008l-.177.394a.87.87 0 0 1-.86.517 23346.684 23346.684 0 0 1-1.49.088.15.15 0 0 0-.082.268l.35.272c.306.237.61.472.91.698a.853.853 0 0 1 .32.902c-.1.392-.214.78-.33 1.166-.024.085-.05.17-.075.254a.146.146 0 0 0 .23.158l.34-.263c.33-.257.662-.513.998-.76a.843.843 0 0 1 .96-.026 399.148 399.148 0 0 0 1.045.684c.116.076.267-.033.232-.168a28.395 28.395 0 0 1-.107-.418c-.062-.243-.123-.486-.19-.728a.847.847 0 0 1 .26-.873l.848-.764a.15.15 0 0 0-.08-.26l-.07-.01c-.332-.045-.663-.09-.996-.128a.847.847 0 0 1-.694-.517 17.892 17.892 0 0 1-.499-1.186l-.119-.302Z M3 9v10a6 6 0 0 0 6 6h10a6 6 0 0 0 6-6V9a6 6 0 0 0-6-6H9a6 6 0 0 0-6 6Zm16-4h-2.253A6.001 6.001 0 0 1 20 10.335v7.33A6.001 6.001 0 0 1 16.747 23H19a4 4 0 0 0 4-4V9a4 4 0 0 0-4-4ZM5 18.253V9.747a4 4 0 0 1 4.467-3.972l5 .588A4 4 0 0 1 18 10.335v7.33a4 4 0 0 1-3.533 3.972l-5 .588A4 4 0 0 1 5 18.253Z" clip-rule="evenodd"/></svg>
