<svg xmlns="http://www.w3.org/2000/svg" width="28" height="28" fill="currentColor" viewBox="0 0 28 28"><path fill-rule="evenodd" d="M11.803 3h-.029c-.259 0-.428 0-.597.01a6 6 0 0 0-2.706.819c-.146.085-.287.18-.502.323l-.024.016a1 1 0 1 0 1.11 1.664c.247-.165.339-.226.43-.28a4 4 0 0 1 1.805-.546C11.395 5 11.505 5 11.803 5H16c1.417 0 2.419 0 3.203.065.771.063 1.243.182 1.613.371a4 4 0 0 1 1.748 1.748c.189.37.308.842.371 1.613C23 9.581 23 10.583 23 12v6.882c0 .497-.1.988-.29 1.444a1 1 0 1 0 1.844.774A5.735 5.735 0 0 0 25 18.882v-6.926c0-1.363 0-2.447-.072-3.321-.073-.896-.226-1.66-.582-2.359a6 6 0 0 0-2.622-2.622c-.7-.356-1.463-.51-2.359-.583C18.491 3 17.407 3 16.044 3h-4.241ZM3.446 6.86 2.303 5.718a1.017 1.017 0 0 1-.01-1.424.984.984 0 0 1 1.404-.01l20 20c.39.39.395 1.028.01 1.424a.984.984 0 0 1-1.405.01l-1.163-1.163c-.89.32-1.96.446-3.83.446h-6.617c-2.448 0-3.527-.216-4.623-.801a5.465 5.465 0 0 1-2.268-2.269C3.216 20.835 3 19.756 3 17.308v-6.616c0-1.87.126-2.942.446-3.831Zm16.035 16.035-4.4-4.4a7.376 7.376 0 0 1-.44.233c-.321.154-.74.314-1.213.262a2.152 2.152 0 0 1-1.528-.91c-.263-.376-.337-.806-.369-1.167-.031-.357-.031-.805-.031-1.318v-.681l-2.5-2.5v4.894c0 2.335.212 3.019.565 3.68a3.46 3.46 0 0 0 1.448 1.447c.66.353 1.344.565 3.679.565h2.616c.97 0 1.656-.037 2.173-.105Zm-12.48-12.48L7 10.692v6.616c0 2.448.216 3.527.801 4.622.184.345.4.664.644.955-.68-.096-1.06-.25-1.432-.45a3.466 3.466 0 0 1-1.448-1.448C5.212 20.327 5 19.643 5 17.308v-6.616c0-.971.037-1.656.105-2.173L7 10.415Zm6.548 6.549.002.007a.177.177 0 0 0 .038.032l-.04-.04ZM12.294 9.19a2.201 2.201 0 0 1 2.883-.87c.147.073.316.19.479.303l.049.035 3.132 2.17.034.023c.347.24.66.458.9.658.252.21.525.482.684.867a2.2 2.2 0 0 1 .016 1.64c-.152.389-.42.666-.667.88-.236.206-.545.429-.888.676l-.033.024-.298.215a1 1 0 1 1-1.17-1.622l.298-.215c.386-.279.62-.449.78-.587.072-.063.107-.101.122-.119a.2.2 0 0 0-.002-.108 1.117 1.117 0 0 0-.123-.116c-.162-.135-.4-.301-.792-.572l-3.132-2.17a15.81 15.81 0 0 0-.236-.162c-.027-.019-.043-.028-.048-.031a.189.189 0 0 0-.14-.01.206.206 0 0 0-.116.091 1 1 0 1 1-1.732-1Z" clip-rule="evenodd"/></svg>
