<svg fill="none" height="28" viewBox="0 0 28 28" width="28" xmlns="http://www.w3.org/2000/svg"><path d="m3 13.56c0-4.97803 0-7.46705 1.54648-9.01352 1.54647-1.54648 4.03549-1.54648 9.01352-1.54648h.88c4.978 0 7.467 0 9.0135 1.54648 1.5465 1.54647 1.5465 4.03549 1.5465 9.01352v.88c0 4.978 0 7.467-1.5465 9.0135s-4.0355 1.5465-9.0135 1.5465h-.88c-4.97803 0-7.46705 0-9.01352-1.5465-1.54648-1.5465-1.54648-4.0355-1.54648-9.0135z" fill="#07f"/><path d="m14.7065 18.9c-5.02244 0-7.88712-3.4534-8.00649-9.19999h2.5158c.08263 4.21779 1.93729 6.00439 3.40639 6.37279v-6.37279h2.369v3.63759c1.4507-.1565 2.9747-1.8142 3.4889-3.63759h2.3689c-.3948 2.24709-2.0475 3.90469-3.2228 4.58619 1.1753.5525 3.0576 1.9984 3.7738 4.6138h-2.6077c-.5601-1.7497-1.9556-3.1035-3.8011-3.2877v3.2877z" fill="#fff"/></svg>
