<svg xmlns="http://www.w3.org/2000/svg" width="28" height="28" fill="currentColor" viewBox="0 0 28 28"><path fill-rule="evenodd" d="M10.183 2.53a1.1 1.1 0 0 1 1.178 1.016l.414 5.598a1.1 1.1 0 1 1-2.194.162l-.414-5.598a1.1 1.1 0 0 1 1.016-1.178Zm8.634 10.381a1 1 0 0 1 1.397-.22c1.203.877 1.886 2.277 2.152 3.696.266 1.425.138 2.987-.41 4.318-1.174 2.85-4.15 4.479-7.141 4.753-3.013.276-6.318-.793-8.207-3.676-1.911-2.917-1.142-5.88.731-7.408.92-.75 2.119-1.156 3.348-.975 1.25.185 2.396.956 3.23 2.305a1 1 0 0 1-1.701 1.051c-.572-.925-1.24-1.291-1.821-1.377-.601-.089-1.247.102-1.791.546-1.055.86-1.691 2.674-.323 4.762 1.39 2.121 3.887 3.006 6.351 2.78 2.487-.228 4.665-1.556 5.475-3.523.389-.944.494-2.11.293-3.188-.203-1.084-.692-1.958-1.363-2.447a1 1 0 0 1-.22-1.397Zm.023-8.529a1.1 1.1 0 0 0-2.118-.595l-1.755 6.25a1.1 1.1 0 0 0 2.118.594l1.755-6.249Z" clip-rule="evenodd"/></svg>
