<svg xmlns="http://www.w3.org/2000/svg" width="28" height="28" fill="currentColor" viewBox="0 0 28 28"><path fill-rule="evenodd" d="M13.3 3.194c.102-.059.34-.187.648-.187s.546.128.647.187c.131.076.252.17.356.26.21.182.438.424.668.703.464.563 1 1.353 1.51 2.31.387.726.764 1.561 1.083 2.48a9.152 9.152 0 0 1 2.21-1.186 7.567 7.567 0 0 1 1.518-.4 3.59 3.59 0 0 1 .578-.042c.086.002.194.01.307.033h.003c.066.014.339.07.568.3.278.28.361.64.394.81.044.22.061.463.066.7.008.482-.036 1.066-.118 1.665a15.801 15.801 0 0 1-.418 2.045h.055c.847.013 1.587.093 2.148.193.28.05.528.108.73.17.1.03.205.067.302.11.072.031.239.108.389.25.208.198.293.43.33.571.04.153.052.3.053.424.001.247-.04.513-.107.778-.134.537-.4 1.194-.82 1.908-.842 1.436-2.336 3.16-4.766 4.671l-.011.007-.012.007c-1.3.762-2.97 1.513-4.374 2.07-.706.28-1.358.516-1.878.685-.26.083-.496.153-.695.203a2.66 2.66 0 0 1-.613.096v-.006a1.104 1.104 0 0 1-.486-.061 4.75 4.75 0 0 1-.188-.047c-.184-.05-.41-.118-.663-.201a36.91 36.91 0 0 1-1.88-.68c-1.42-.554-3.134-1.304-4.44-2.068l-.012-.006-.011-.007c-2.432-1.51-3.928-3.23-4.77-4.665-.42-.713-.686-1.369-.82-1.905a3.196 3.196 0 0 1-.107-.777c.001-.123.013-.27.053-.424.038-.141.123-.372.331-.57.15-.142.318-.219.39-.25.097-.043.2-.08.301-.11a6.49 6.49 0 0 1 .732-.17 13.01 13.01 0 0 1 1.72-.18 15.782 15.782 0 0 1-.422-2.06c-.082-.6-.127-1.184-.118-1.665a4.01 4.01 0 0 1 .065-.702c.033-.168.117-.53.394-.808.23-.23.502-.287.569-.3l.002-.001a1.76 1.76 0 0 1 .307-.033 3.59 3.59 0 0 1 .578.042c.414.059.94.186 1.518.4a9.125 9.125 0 0 1 2.511 1.417c.335-1.01.743-1.925 1.162-2.711.51-.957 1.046-1.747 1.51-2.31.23-.28.457-.521.668-.703.104-.09.224-.184.355-.26Zm-.768 4.213c-.91 1.71-1.735 4.049-1.735 6.603 0 2.553.83 4.892 1.744 6.603.456.853.921 1.53 1.291 1.98.04.05.08.095.116.137.037-.042.075-.088.116-.137.37-.45.835-1.127 1.29-1.98.915-1.711 1.745-4.05 1.745-6.603 0-2.554-.825-4.893-1.736-6.603a12.218 12.218 0 0 0-1.288-1.978 6.337 6.337 0 0 0-.127-.15c-.04.046-.083.096-.127.15-.37.449-.835 1.125-1.289 1.978Zm4.326 14.619c1.265-.516 2.661-1.16 3.737-1.788 2.154-1.343 3.412-2.83 4.086-3.977a5.95 5.95 0 0 0 .556-1.21l-.067-.013c-.45-.08-1.082-.151-1.827-.162-1.27-.019-2.815.136-4.327.664-.255 2.351-1.056 4.44-1.897 6.015a19.94 19.94 0 0 1-.261.471Zm2.229-8.607a14.2 14.2 0 0 1 2.1-.426c.249-.677.455-1.58.573-2.44.059-.43.092-.822.099-1.139a7.071 7.071 0 0 0-3.065 1.642c.154.755.258 1.546.293 2.363Zm-8.31 8.136c.067.126.135.25.203.37-1.23-.5-2.556-1.105-3.569-1.695-2.155-1.34-3.415-2.824-4.089-3.97-.285-.485-.46-.9-.555-1.21l.067-.012c.45-.08 1.083-.15 1.829-.162 1.237-.019 2.737.127 4.213.621.25 2.369 1.055 4.473 1.901 6.058ZM9.041 11.37c-.119.649-.2 1.323-.23 2.016a14.503 14.503 0 0 0-2.502-.448c-.24-.671-.438-1.55-.553-2.386-.059-.43-.092-.822-.099-1.139a7.014 7.014 0 0 1 3.384 1.956ZM5.036 9.323Zm.651-.488a.091.091 0 0 1 .006-.023s-.001.009-.006.023Zm16.142 0a.088.088 0 0 0-.006-.023s.001.009.006.023Z" clip-rule="evenodd"/></svg>
