<svg fill="none" height="28" viewBox="0 0 28 28" width="28" xmlns="http://www.w3.org/2000/svg"><g fill="currentColor"><path d="m21.4627 7.15825c.2332-.14846.5024-.18849.7538-.13269.2513.0558.4783.206.6268.43917.1022.16049.1565.3468.1565.53706v12.35201c0 .5523.4477 1 1 1 .5522 0 1-.4477 1-1v-12.35201c0-.57077-.1629-1.1297-.4694-1.61117-.4448-.69858-1.1325-1.15147-1.8805-1.31753-.748-.16605-1.5627-.0467-2.2613.39807l-3.9715 2.52849h-3.7638c-.5523 0-1 .44772-1 1 0 .55229.4477 1 1 1h2.3465v2.34225c0 .5523.4477 1 1 1 .5522 0 1-.4477 1-1v-2.34225z"/><path clip-rule="evenodd" d="m16.7509 17.3395c-.0284-.0322-.0587-.0626-.091-.091l-11.94986-11.94987c-.39053-.39052-1.02369-.39052-1.41422 0-.39052.39052-.39052 1.02369 0 1.41421l2.18643 2.18643c-.18055.12496-.34603.24853-.49404.36735l-.00784.0063-.00771.00645c-.12556.10503-.24635.21555-.36199.3312-.99421.99423-1.61091 2.37053-1.61091 3.88913 0 1.5185.6167 2.8948 1.61091 3.889.79038.7904 1.82229 1.3422 2.97513 1.5353l.45743 2.5942c.1438.8155.60604 1.497 1.23369 1.9365.62765.4394 1.42608.6407 2.24168.4969s1.497-.606 1.9365-1.2337c.4395-.6276.6408-1.4261.497-2.2416l-.2604-1.4766h1.8909l6.7101 6.71c.3905.3905 1.0237.3905 1.4142 0s.3905-1.0237 0-1.4142zm-9.82525-6.9968c-.26471.1662-.49384.3303-.67732.4771-.0774.0651-.15196.1335-.22345.205-.63447.6344-1.02512 1.5081-1.02512 2.4749 0 .9667.39065 1.8404 1.02512 2.4748.63447.6345 1.5081 1.0252 2.47488 1.0252h5.08284zm3.08715 10.8282-.3828-2.1712h2.0309l.3216 1.8239c.048.2722-.018.5363-.1657.7472s-.3733.3632-.6455.4112-.5363-.018-.7472-.1656c-.2109-.1477-.3633-.3733-.4113-.6455z" fill-rule="evenodd"/></g></svg>
