<?xml version="1.0" encoding="UTF-8"?>
<svg width="28px" height="28px" viewBox="0 0 28 28" version="1.1" xmlns="http://www.w3.org/2000/svg" xmlns:xlink="http://www.w3.org/1999/xlink">
    <!-- Generator: Sketch 63.1 (92452) - https://sketch.com -->
    <title>magic_wand_outline_28</title>
    <desc>Created with Sketch.</desc>
    <g id="Page-1" stroke="none" stroke-width="1" fill="none" fill-rule="evenodd">
        <g id="magic_wand_outline_28">
            <rect x="0" y="0" width="28" height="28"></rect>
            <path d="M15.3579221,12.6371068 C15.7484464,13.0276311 15.7484464,13.6607961 15.3579221,14.0513203 L4.75132034,24.6579221 C4.36079605,25.0484464 3.72763107,25.0484464 3.33710678,24.6579221 C2.94658249,24.2673978 2.94658249,23.6342328 3.33710678,23.2437085 L13.9437085,12.6371068 C14.3342328,12.2465825 14.9673978,12.2465825 15.3579221,12.6371068 Z M23.945391,14.1796377 C23.9917565,14.2673523 23.9917565,14.3723175 23.945391,14.4600321 L22.7084946,16.8 L23.945391,19.1399679 C24.0228197,19.2864481 23.9668425,19.4679622 23.8203623,19.545391 C23.7326477,19.5917565 23.6276825,19.5917565 23.5399679,19.545391 L21.2,18.3084946 L18.8600321,19.545391 C18.7135519,19.6228197 18.5320378,19.5668425 18.454609,19.4203623 C18.4082435,19.3326477 18.4082435,19.2276825 18.454609,19.1399679 L19.6915054,16.8 L18.454609,14.4600321 C18.3771803,14.3135519 18.4331575,14.1320378 18.5796377,14.054609 C18.6673523,14.0082435 18.7723175,14.0082435 18.8600321,14.054609 L21.2,15.2915054 L23.5399679,14.054609 C23.6864481,13.9771803 23.8679622,14.0331575 23.945391,14.1796377 Z M13.945391,4.17991273 C13.9917565,4.26762732 13.9917565,4.3725925 13.945391,4.46030709 L12.7084946,6.800275 L13.945391,9.14024291 C14.0228197,9.28672311 13.9668425,9.46823719 13.8203623,9.54566595 C13.7326477,9.59203149 13.6276825,9.59203149 13.5399679,9.54566595 L11.2,8.30876957 L8.86003209,9.54566595 C8.71355189,9.62309472 8.53203781,9.56711747 8.45460905,9.42063727 C8.40824351,9.33292268 8.40824351,9.2279575 8.45460905,9.14024291 L9.69150543,6.800275 L8.45460905,4.46030709 C8.37718028,4.31382689 8.43315753,4.13231281 8.57963773,4.05488405 C8.66735232,4.00851851 8.7723175,4.00851851 8.86003209,4.05488405 L11.2,5.29178043 L13.5399679,4.05488405 C13.6864481,3.97745528 13.8679622,4.03343253 13.945391,4.17991273 Z M23.945391,4.17963773 C23.9917565,4.26735232 23.9917565,4.3723175 23.945391,4.46003209 L22.7084946,6.8 L23.945391,9.13996791 C24.0228197,9.28644811 23.9668425,9.46796219 23.8203623,9.54539095 C23.7326477,9.59175649 23.6276825,9.59175649 23.5399679,9.54539095 L21.2,8.30849457 L18.8600321,9.54539095 C18.7135519,9.62281972 18.5320378,9.56684247 18.454609,9.42036227 C18.4082435,9.33264768 18.4082435,9.2276825 18.454609,9.13996791 L19.6915054,6.8 L18.454609,4.46003209 C18.3771803,4.31355189 18.4331575,4.13203781 18.5796377,4.05460905 C18.6673523,4.00824351 18.7723175,4.00824351 18.8600321,4.05460905 L21.2,5.29150543 L23.5399679,4.05460905 C23.6864481,3.97718028 23.8679622,4.03315753 23.945391,4.17963773 Z" id="↳-Icon-Color" fill="currentColor" fill-rule="nonzero"></path>
        </g>
    </g>
</svg>
