<svg fill="none" height="28" viewBox="0 0 28 28" width="28" xmlns="http://www.w3.org/2000/svg"><g fill="currentColor"><path clip-rule="evenodd" d="m23.5628 8.55986c.1795-.29479.3097-.62333.3796-.9745.0582-.29286.0579-.62069.0576-1.00139v-.16777c.0003-.3807.0006-.70853-.0576-1.00138-.2368-1.19008-1.1671-2.12037-2.3571-2.35709-.2929-.05825-.6207-.05799-1.0014-.05769l-6.5396.00005-.0443-.00009c-6.07513 0-11 4.92487-11 11 0 6.0751 4.92487 11 11 11l6.5839.0001c.3807.0003.7085.0006 1.0014-.0577 1.19-.2367 2.1203-1.167 2.3571-2.357.0582-.2929.0579-.6207.0576-1.0014v-.1678c.0003-.3807.0006-.7085-.0576-1.0014-.0699-.3512-.2002-.6798-.3797-.9746-.3596-.5905-.9169-1.0456-1.5822-1.2755-.128-.0442-.2599-.0801-.3952-.107-.2929-.0582-.6207-.058-1.0014-.0577h-6.5839c-2.2091 0-4-1.7909-4-4s1.7909-4 4-4l6.5873-.00004c.3792.00034.706.00054.998-.05752.1353-.02692.2673-.06281.3953-.10703.6653-.22989 1.2226-.68495 1.5822-1.27555zm-9.5628 14.44014c-4.97056 0-9-4.0294-9-9 0-4.97056 4.02944-9 9-9l3 .00003 2 .00003 1.5.00003c.5126 0 .6228.00484.6951.01921.3967.07891.7068.38901.7857.7857.0139.06983.0189.17518.0192.64511v.11849c-.0005.45418-.0055.55766-.0192.62658-.0789.39669-.389.70679-.7857.78569-.0723.01437-.1825.01922-.6951.01922l-1.5-.00003-2-.00003-3-.00003c-3.3137 0-6 2.6863-6 6s2.6863 6 6 6l6.5.0001c.5126 0 .6229.0047.6951.019.3967.0789.7068.389.7857.7857.0137.0689.0187.1724.0192.6266v.1185c-.0003.4701-.0053.5754-.0192.6453-.0789.3967-.389.7068-.7857.7857-.0723.0143-.1825.0192-.6951.0192z" fill-rule="evenodd"/><path d="m19 8.00006v-3l-2-.00003v3z"/><path d="m19 23v-3h-2v3z"/></g></svg>
