<svg fill="none" height="28" viewBox="0 0 28 28" width="28" xmlns="http://www.w3.org/2000/svg" xmlns:xlink="http://www.w3.org/1999/xlink"><linearGradient id="a" gradientUnits="userSpaceOnUse" x1="-14" x2="14" y1="14" y2="42"><stop offset="0" stop-color="#b1b6bd"/><stop offset="1" stop-color="#99a2ad"/></linearGradient><path d="m0 14c0-7.73199 6.26801-14 14-14 7.732 0 14 6.26801 14 14 0 7.732-6.268 14-14 14-7.73199 0-14-6.268-14-14z" fill="url(#a)"/><path d="m13.8747 21c-1.3845 0-2.5944-.274-3.6298-.822s-1.83505-1.3292-2.39899-2.3435c-.56394-1.0144-.84591-2.1978-.84591-3.5503v-.4197c0-1.3525.29838-2.5476.89514-3.5853.59676-1.03769 1.4352-1.84364 2.51536-2.41786 1.0801-.57423 2.3244-.86134 3.7327-.86134h.0716c1.3069 0 2.4751.25796 3.5045.77389s1.8336 1.23443 2.4124 2.15553c.5789.92108.8683 1.96458.8683 3.13058v.4284c0 .8045-.1328 1.5128-.3983 2.125-.2656.6121-.643 1.0857-1.1324 1.421-.4893.3352-1.0533.5028-1.6918.5028-.5848 0-1.0906-.1181-1.5173-.3542s-.6967-.5494-.8101-.94h-.0805c-.1134.3906-.3596.7024-.7385.9356-.379.2332-.828.3498-1.3472.3498-.5252 0-.9817-.1151-1.3696-.3454s-.6863-.5611-.8951-.9925c-.2089-.4314-.3133-.9415-.3133-1.5303v-1.0668c0-.5655.1059-1.0581.3178-1.4778.2118-.4198.5117-.7448.8996-.9751.3879-.2302.8414-.3454 1.3606-.3454.4893 0 .9086.1137 1.2577.3411.3491.2273.5803.5334.6937.9181h.0627v-.1661c0-.2798.088-.5072.264-.6821.1761-.1749.4043-.2623.6848-.2623.2745 0 .4968.0874.6669.2623s.2551.4023.2551.6821v3.4191c0 .2449.0746.446.2238.6034s.3431.2361.5818.2361c.2686 0 .5028-.1152.7027-.3454.1999-.2303.3551-.5553.4655-.975.1104-.4198.1656-.9066.1656-1.4604v-.2361c0-.8919-.2178-1.692-.6535-2.4004-.4356-.7083-1.0398-1.26062-1.8126-1.65705-.7728-.39642-1.6456-.59462-2.6183-.59462h-.0806c-1.0801 0-2.0275.22444-2.842.67333-.8146.44888-1.4457 1.08574-1.89327 1.91064s-.67136 1.7795-.67136 2.8639v.306c0 1.0727.21483 2.0084.6445 2.807.42967.7987 1.03983 1.4152 1.83053 1.8495s1.7172.6515 2.7794.6515h.0896c.3998 0 .8712-.0408 1.4143-.1225.2745-.0349.4446-.0524.5102-.0524.2089 0 .3819.0641.5192.1924.1373.1282.2059.2914.2059.4896 0 .344-.194.5772-.5819.6996-.5191.1691-1.2472.2536-2.1841.2536zm-1.1458-6.6371c0 1.061.3968 1.5915 1.1905 1.5915.376 0 .6609-.1239.8549-.3716.1939-.2478.2909-.6165.2909-1.1062v-.7346c0-.443-.1029-.7899-.3088-1.0406-.2059-.2506-.4908-.376-.8549-.376-.3819 0-.6728.1356-.8727.4066-.1999.2711-.2999.6632-.2999 1.1762z" fill="#fff"/></svg>
