<svg xmlns="http://www.w3.org/2000/svg" width="28" height="28" viewBox="0 0 28 28" fill="currentColor"><path fill-rule="evenodd" d="M14 2c6.627 0 12 5.373 12 12 0 1.139-.16 2.34-.49 3.385a4 4 0 0 1-5.484 2.433c-.37-.162-.723-.4-.997-.653a4.3 4.3 0 0 1-.771-.94A6 6 0 1 1 20 14v.001c.017.43-.03.977-.056 1.39-.03.492-.04.944.02 1.346.059.395.22.728.398.936q.23.207.523.338.204.086.496.146l-.001.001c.988.16 1.96-.441 2.24-1.427.246-.869.38-1.797.38-2.73 0-5.523-4.477-10-10-10S4 8.477 4 14s4.477 10 10 10a9.95 9.95 0 0 0 4.898-1.28 1 1 0 0 1 .982 1.743A11.95 11.95 0 0 1 14 26C7.373 26 2 20.627 2 14S7.373 2 14 2m0 8a4 4 0 1 0 0 8 4 4 0 0 0 0-8" clip-rule="evenodd"/></svg>