<svg fill="none" height="28" viewBox="0 0 28 28" width="28" xmlns="http://www.w3.org/2000/svg"><g fill="currentColor"><path d="m19 12c.5523 0 1 .4477 1 1s-.4477 1-1 1-1-.4477-1-1 .4477-1 1-1z"/><path clip-rule="evenodd" d="m22.0322 10.0239c-.2834-.0231-.6556-.0239-1.2322-.0239h-6.1437c-.5523 0-1-.44772-1-1s.4477-1 1-1h6.1822c.5272-.00002.982-.00003 1.3565.03057.3954.0323.7886.10362 1.167.29641.5645.28762 1.0234.74656 1.311 1.31105.1928.37837.2641.77157.2964 1.16697.0306.3745.0306.8293.0306 1.3564v5.6386c0 .1908 0 .3752-.0002.5528-.0007.5523-.4489.9994-1.0012.9988-.5523-.0007-.9995-.449-.9988-1.0012.0002-.1762.0002-.3593.0002-.5504v-5.6c0-.5766-.0008-.9488-.0239-1.2322-.0222-.2716-.0599-.3723-.0851-.4218-.0959-.1882-.2488-.3411-.437-.437-.0495-.0252-.1502-.0629-.4218-.0851z" fill-rule="evenodd"/><path clip-rule="evenodd" d="m4.2929 4.29289c.39052-.39052 1.02368-.39052 1.41421 0l19.99999 20.00001c.3905.3905.3905 1.0237 0 1.4142s-1.0237.3905-1.4142 0l-1.1164-1.1164-1.4174-1.4174-13.17666-13.17665-1.99495-1.99494-2.29459-2.2946c-.39053-.39053-.39053-1.02369 0-1.41422z" fill-rule="evenodd"/><path d="m7.2 10h1.3c.02776 0 .05525-.00113.08244-.00335l-1.99495-1.99494c-.29011.00276-.55155.00999-.78252.02886-.39534.0323-.78856.10362-1.16694.29641-.56449.28762-1.02343.74656-1.31105 1.31105-.19279.37837-.26411.77157-.29641 1.16697-.0306.3745-.03059.8293-.03057 1.3565v5.6818c-.00001 1.2234-.00001 2.2025.06463 2.9937.06636.8122.2058 1.5142.53484 2.1599.5273 1.0349 1.36869 1.8763 2.40358 2.4036.64577.3291 1.3477.4685 2.15993.5349.79123.0646 1.7703.0646 2.99362.0646h5.6868c1.2233 0 2.2024 0 2.9936-.0646.8123-.0664 1.5142-.2058 2.16-.5349.4293-.2187.8253-.4916 1.1795-.8098l-1.4174-1.4174c-.2044.1727-.429.3224-.6701.4452-.3169.1615-.7263.2673-1.4148.3235-.7003.0572-1.5976.058-2.8742.058h-5.6c-1.27662 0-2.17394-.0008-2.87416-.058-.68854-.0562-1.09797-.162-1.4148-.3235-.65857-.3355-1.194-.871-1.52956-1.5295-.16144-.3169-.26723-.7263-.32349-1.4148-.05721-.7003-.05799-1.5976-.05799-2.8742v-5.6c0-.5766.00078-.9488.02393-1.2322.02219-.2716.05987-.3723.08507-.4218.09587-.1882.24885-.3411.43701-.437.04945-.0252.15016-.0629.42183-.0851.28333-.0231.65561-.0239 1.23216-.0239z"/><path d="m17.9999 8h2c0-3.31371-2.6863-6-6-6-1.7652 0-3.3534.76349-4.44985 1.97513-.37059.40949-.33904 1.04187.07046 1.41245.40949.37059 1.04189.33904 1.41249-.07046.7333-.81033 1.7902-1.31712 2.9669-1.31712 2.2091 0 4 1.79086 4 4z"/></g></svg>
