<svg fill="none" height="28" viewBox="0 0 28 28" width="28" xmlns="http://www.w3.org/2000/svg"><g clip-rule="evenodd" fill="currentColor" fill-rule="evenodd"><path d="m21.575 15.0069c-.8837.0461-1.7013.3218-2.4378.8169l-.1372.0962-.1372-.0962c-.8102-.5446-1.7184-.8238-2.7049-.8238-2.2963 0-4.1579 1.8615-4.1579 4.1577 0 2.2428.8916 3.4874 4.4473 6.2527l1.6464 1.2805c.5331.4146 1.2795.4146 1.8126 0l1.6464-1.2805c3.5557-2.7653 4.4473-4.0099 4.4473-6.2527 0-2.2962-1.8616-4.1577-4.1579-4.1577zm.2671 1.9931c1.1918 0 2.1579.966 2.1579 2.1577l-.0016.1227c-.0328 1.2512-.5982 2.1241-3.1537 4.144l-1.8447 1.4375-1.3248-1.0302c-3.0911-2.404-3.6752-3.2638-3.6752-4.674 0-1.1917.9661-2.1577 2.1579-2.1577.8032 0 1.4983.3008 2.1352.9373l.3535.3532c.1952.1951.5116.1951.7068 0l.3535-.3532c.6369-.6365 1.332-.9373 2.1352-.9373z"/><path d="m9 12c-.55228 0-1 .4477-1 1s.44772 1 1 1 1-.4477 1-1-.44772-1-1-1z"/><path d="m14 2c3.3137 0 6 2.68629 6 6h1.1542c1.3373 0 1.8222.13924 2.3111.4007s.8725.64514 1.134 1.13403l.0923.18482c.2018.43865.3084.95615.3084 2.12625v.6542c0 .5523-.4477 1-1 1s-1-.4477-1-1v-.6542c0-.9173-.0433-1.1416-.1643-1.3679-.0751-.1403-.1733-.2385-.3136-.3136-.194-.1037-.3865-.1503-1.0152-.1615l-.3527-.0028h-14.30837l-.35273.0028c-.62871.0112-.82124.0578-1.01517.1615-.14035.0751-.23854.1733-.3136.3136-.12101.2263-.16433.4506-.16433 1.3679v7.1035c0 1.9333.12962 2.6046.49824 3.2938.29295.5478.71087.9657 1.25863 1.2587.68926.3686 1.3605.4982 3.29383.4982h1.4493c.5523 0 1 .4477 1 1s-.4477 1-1 1h-1.4493l-.58129-.0053c-2.01863-.0388-2.83413-.2899-3.65574-.7293-.89629-.4794-1.59971-1.1828-2.07905-2.0791-.45938-.8589-.71296-1.7112-.73329-3.9386l-.00133-7.4019c0-1.3373.13924-1.8222.4007-2.31107.26146-.48889.64514-.87257 1.13403-1.13403l.18482-.09229c.40729-.18739.88263-.29269 1.88532-.30678l1.39513-.00163c0-3.31371 2.6863-6 6-6zm-4 6c0-2.20914 1.7909-4 4-4s4 1.79086 4 4z"/></g></svg>
