<svg xmlns="http://www.w3.org/2000/svg" width="28" height="28" fill="currentColor" viewBox="0 0 28 28"><path fill-rule="evenodd" d="M8 7.5a6 6 0 0 1 12 0h1.267c1.306 0 1.96 0 2.459.254.439.224.796.581 1.02 1.02.254.5.254 1.153.254 2.46v4.118c0 3.377 0 5.066-.657 6.356a6.03 6.03 0 0 1-2.635 2.635c-1.29.657-2.979.657-6.356.657h-2.704c-3.377 0-5.066 0-6.356-.657a6.03 6.03 0 0 1-2.635-2.635C3 20.418 3 18.729 3 15.352v-4.119c0-1.306 0-1.96.254-2.459a2.338 2.338 0 0 1 1.02-1.02c.5-.254 1.153-.254 2.46-.254H8Zm10 0a4 4 0 0 0-8 0h8Zm-7.75 3.75a1.25 1.25 0 1 1-2.5 0 1.25 1.25 0 0 1 2.5 0ZM19 12.5a1.25 1.25 0 1 0 0-2.5 1.25 1.25 0 0 0 0 2.5Z" clip-rule="evenodd"/></svg>
