<svg xmlns="http://www.w3.org/2000/svg" width="28" height="28" viewBox="0 0 28 28" fill="currentColor"><path d="M13.673 24.65q-3.145 0-5.49-1.271a8.86 8.86 0 0 1-3.622-3.61q-1.28-2.337-1.279-5.454v-.752q0-3.105 1.333-5.51a9.4 9.4 0 0 1 3.746-3.74q2.414-1.332 5.517-1.333h.11q2.898 0 5.188 1.197 2.29 1.196 3.582 3.308t1.292 4.792v.684q0 1.832-.602 3.24-.6 1.408-1.681 2.194-1.08.787-2.489.787-1.27 0-2.187-.534-.915-.533-1.094-1.394h-.137q-.15.533-.601.977a3.2 3.2 0 0 1-1.1.698 3.7 3.7 0 0 1-1.361.253q-1.122 0-1.955-.547-.835-.547-1.285-1.559-.452-1.011-.452-2.392v-1.368q0-1.34.458-2.338t1.313-1.53 2.003-.534q1.011 0 1.777.5.765.498 1.012 1.305h.11v-.356q0-.546.3-.868t.82-.321q.507 0 .807.321.3.322.3.868v5.469q0 .697.425 1.114.423.417 1.107.417.724 0 1.272-.56.546-.561.84-1.593t.294-2.413v-.451q0-2.147-1.018-3.842-1.02-1.695-2.83-2.652t-4.109-.957h-.11q-2.487 0-4.401 1.093-1.914 1.095-2.974 3.083-1.06 1.99-1.06 4.574v.587q0 2.571 1.026 4.505a7.2 7.2 0 0 0 2.905 2.98q1.88 1.047 4.382 1.047h.11q.93 0 2.31-.205.724-.096.943-.096.397 0 .656.24.26.238.26.608a.94.94 0 0 1-.219.628q-.218.26-.629.37-1.326.34-3.39.341zm-2.188-10.28q0 1.38.527 2.098.526.718 1.551.718 1.012 0 1.545-.69.534-.691.534-2.004v-1.107q0-1.203-.568-1.9-.566-.698-1.538-.698-.97 0-1.51.732-.54.73-.54 2.043z"/></svg>