<svg height="28" viewBox="0 0 28 28" width="28" xmlns="http://www.w3.org/2000/svg"><g fill="none" fill-rule="nonzero"><path d="m0 0h28v28h-28z"/><g transform=""><path d="m13.6728672 24.6503906c-2.0963647 0-3.92609897-.4238239-5.48925782-1.2714844-1.56315886-.8476604-2.77082908-2.0507734-3.62304688-3.609375-.8522178-1.5586015-1.27832031-3.3769427-1.27832031-5.4550781v-.7519531c0-2.0690208.44433149-3.90559094 1.33300781-5.50976562.88867632-1.60417469 2.13736175-2.8505815 3.74609375-3.73925782s3.44758085-1.33300781 5.51660155-1.33300781h.109375c1.9323013 0 3.6617762.39875903 5.1884766 1.19628906 1.5267003.79753003 2.7206988 1.90038359 3.5820312 3.30859375.8613325 1.40821017 1.2919922 3.00552494 1.2919922 4.79199224v.6835937c0 1.2213603-.2005188 2.3014276-.6015625 3.2402344s-.9615849 1.6702448-1.6816406 2.1943359c-.7200557.5240912-1.5494745.7861328-2.4882813.7861328-.8476605 0-1.5768198-.1777326-2.1875-.5332031-.6106801-.3554705-.9752598-.8203096-1.09375-1.3945313h-.1367187c-.1002609.3554706-.3007798.6813137-.6015625.9775391-.3007828.2962255-.6676411.528645-1.1005859.6972656-.4329449.1686207-.8863909.2529297-1.3603516.2529297-.7473996 0-1.3990858-.1822898-1.9550781-.546875-.5559924-.3645851-.98437353-.8841112-1.28515629-1.5585937-.30078275-.6744826-.45117187-1.4720006-.45117187-2.3925781v-1.3671876c0-.8932336.15266774-1.6725227.45800781-2.3378906s.74283565-1.17577945 1.31250005-1.53124998c.5696643-.35547052 1.2373008-.53320312 2.0029296-.53320312.6744826 0 1.2669246.16633948 1.7773438.49902344.5104192.33268395.8476554.76790096 1.0117187 1.30566406h.109375v-.3554688c0-.36458511.1002595-.65397023.3007813-.86816401s.4739566-.32128907.8203125-.32128907c.3372413 0 .6061188.10709529.8066406.32128907s.3007813.5035789.3007813.86816401v5.46875c0 .4648461.1412746.8362617.4238281 1.1142579.2825535.2779961.6516904.4169921 1.1074219.4169921.4830753 0 .9068992-.186847 1.2714843-.5605468.3645852-.3736998.6448558-.904619.8408204-1.5927735.1959645-.6881544.2939453-1.4925084.2939453-2.4130859v-.4511719c0-1.4309967-.3395149-2.71158287-1.0185547-3.84179685-.6790399-1.13021398-1.6223898-2.01431973-2.8300781-2.65234375-1.2076884-.63802402-2.5771408-.95703125-4.1083985-.95703125h-.109375c-1.6588624 0-3.1262957.36457969-4.40234374 1.09375s-2.26724907 1.75682931-2.97363281 3.08300781c-.70638374 1.32617854-1.05957031 2.85057734-1.05957031 4.57324214v.5878907c0 1.7135502.34179345 3.2151628 1.02539062 4.5048828s1.65201197 2.2831996 2.90527344 2.9804687c1.2532615.6972691 2.7138588 1.0458985 4.3818359 1.0458985h.109375c.6197948 0 1.3899694-.0683587 2.3105469-.2050781.4830753-.0638025.7975253-.0957032.9433594-.0957032.2643242 0 .483072.0797518.65625.2392578.1731779.159506.2597656.3623035.2597656.6083985s-.0729159.4557283-.21875.6289062c-.145834.173178-.3554674.2962236-.6289062.3691407-.884119.2278657-2.0143161.3417968-3.390625.3417968zm-2.1875-10.28125c0 .9205775.175454 1.6201148.5263672 2.0986328.3509132.4785181.8681606.7177735 1.5517578.7177735.6744825 0 1.1894513-.230141 1.5449219-.6904297.3554705-.4602888.5332031-1.1279253.5332031-2.0029297v-1.1074219c0-.8020873-.1891257-1.4355445-.5673828-1.9003906s-.8909473-.6972656-1.538086-.6972656c-.6471386 0-1.1507143.2438126-1.5107421.7314453-.3600279.4876326-.5400391 1.1689409-.5400391 2.0439453z" fill="currentColor"/></g></g></svg>
