<svg fill="none" height="28" viewBox="0 0 28 28" width="28" xmlns="http://www.w3.org/2000/svg" xmlns:xlink="http://www.w3.org/1999/xlink"><linearGradient id="a" gradientUnits="userSpaceOnUse" x1="-14" x2="14" y1="14" y2="42"><stop offset="0" stop-color="#ff5263"/><stop offset="1" stop-color="#ff3347"/></linearGradient><path d="m0 14c0-7.73199 6.26801-14 14-14 7.732 0 14 6.26801 14 14 0 7.732-6.268 14-14 14-7.73199 0-14-6.268-14-14z" fill="url(#a)"/><g fill="#fff"><path clip-rule="evenodd" d="m19.851 12.1793c-.406.2051-.865.3207-1.351.3207-1.6569 0-3-1.3431-3-3 0-.45018.0992-.8772.2768-1.26041-.5615-.15573-1.1582-.23959-1.7768-.23959-3.3137 0-6 2.4065-6 5.375 0 1.4351.62781 2.7388 1.65342 3.7034-.09282.5894-.22857 1.1645-.40394 1.7221-.05567.177-.13056.3832-.22468.6188-.06256.1565-.05638.3322.01704.4839.14432.2984.50315.4232.80147.2789l.15839-.0781c.1522-.0763.2861-.1479.4015-.2147.6765-.3916 1.3113-.8472 1.8952-1.3585.5394.1426 1.1105.2192 1.7016.2192 3.3137 0 6-2.4065 6-5.375 0-.411-.0515-.8112-.149-1.1957z" fill-rule="evenodd"/><circle cx="18.5" cy="9.5" r="1.5"/></g></svg>
