<svg xmlns="http://www.w3.org/2000/svg" width="28" height="28" viewBox="0 0 28 28" fill="currentColor"><path d="M14.023 3c.926 0 1.828.09 2.695.26.548.108.766.755.561 1.274-.17.435-.623.747-1.083.662A12 12 0 0 0 14.023 5c-5.545 0-9.978 3.727-9.978 8.23 0 1.548.521 3.034 1.493 4.315a1 1 0 0 1 .203.604c0 .988-.393 2.384-1.173 4.25l-.151.354-.083.187.408-.046c1.698-.22 2.965-.74 3.825-1.542l.167-.164.14-.153a1 1 0 0 1 1.1-.283c1.263.464 2.634.707 4.049.707 5.545 0 9.978-3.726 9.978-8.23a6.95 6.95 0 0 0-.681-2.985c-.195-.411-.057-.914.288-1.21.435-.375 1.152-.385 1.412.128.63 1.243.98 2.618.98 4.068 0 5.692-5.397 10.23-11.977 10.23-1.181 0-2.34-.147-3.447-.43l-.471-.13-.202-.063-.08.076c-1.32 1.177-3.184 1.849-5.564 2.042l-.401.028-.371.017a1.433 1.433 0 0 1-1.474-1.628c.566-1.541 1.376-3.018 1.669-4.647l.027-.168.013-.109-.188-.278a9.1 9.1 0 0 1-1.46-4.24l-.021-.35-.007-.35C2.046 7.538 7.443 3 14.023 3M21 4a2 2 0 1 1 0 4 2 2 0 0 1 0-4"/></svg>
