<?xml version="1.0" encoding="UTF-8"?>
<svg width="28px" height="28px" viewBox="0 0 28 28" version="1.1" xmlns="http://www.w3.org/2000/svg" xmlns:xlink="http://www.w3.org/1999/xlink">
    <!-- Generator: Sketch 63.1 (92452) - https://sketch.com -->
    <title>message_outline_28</title>
    <desc>Created with Sketch.</desc>
    <g id="Page-1" stroke="none" stroke-width="1" fill="none" fill-rule="evenodd">
        <g id="message_outline_28">
            <rect x="0" y="0" width="28" height="28"></rect>
            <path d="M14,3.50000006 C20.3199997,3.50000006 25.4999999,7.94000025 25.4999999,13.5000001 C25.4999999,19.0599998 20.3199997,23.5000001 14,23.5000001 C12.6452635,23.5000001 11.321957,23.2962444 10.0757172,22.9034221 C8.67374672,24.2092411 6.61769639,24.8966312 3.95207331,25.001185 C3.72958929,25.0099115 3.5081301,24.9667038 3.3052433,24.8749856 C2.58373814,24.5488176 2.26323204,23.6995772 2.58929989,22.977804 C3.50005326,20.9631574 4.00232696,19.48012 4.10293424,18.5993963 C3.06166317,17.0730395 2.50000006,15.3231363 2.50000006,13.5000001 C2.50000006,7.94000025 7.68000028,3.50000006 14,3.50000006 Z M13.9999999,5.49999994 C8.72201998,5.49999994 4.49999994,9.11887426 4.49999994,13.4999999 C4.49999994,15.0077201 4.99683875,16.4549166 5.9262219,17.7132811 C6.05399475,17.8862827 6.12258756,18.0958685 6.12182181,18.310938 C6.11809371,19.3580171 5.67260458,20.8775879 4.79201143,22.9378299 C6.77867686,22.7297816 8.17968047,22.1065746 9.03658357,21.1014459 C9.30971963,20.7810632 9.75426496,20.6660655 10.1484987,20.8138089 C11.3498677,21.2640349 12.6542793,21.4999999 13.9999999,21.4999999 C19.27798,21.4999999 23.4999999,17.8811257 23.4999999,13.4999999 C23.4999999,9.11887426 19.27798,5.49999994 13.9999999,5.49999994 Z" id="↳-Icon-Color" fill="currentColor" fill-rule="nonzero"></path>
        </g>
    </g>
</svg>
