<svg xmlns="http://www.w3.org/2000/svg" width="28" height="28" viewBox="0 0 28 28" fill="currentColor"><path fill-rule="evenodd" d="M14.902 4.491a1 1 0 0 1-.99 1.01c-5.334.05-9.375 3.746-9.375 7.998 0 1.537.514 2.979 1.422 4.2a1 1 0 0 1 .197.597c0 1.042-.274 2.052-.61 2.963a26 26 0 0 1-.705 1.675c2.056-.219 3.405-.877 4.219-1.834a1 1 0 0 1 1.113-.289 11 11 0 0 0 3.845.687c4.847 0 8.681-3.034 9.369-6.761a1 1 0 1 1 1.967.363c-.898 4.864-5.73 8.398-11.336 8.398-1.373 0-2.693-.21-3.918-.597C8.656 24.25 6.556 24.898 3.988 25c-1.046.041-1.8-1.047-1.363-2.021l.27-.597c.276-.605.547-1.199.775-1.815.256-.694.43-1.349.475-1.966-1.017-1.48-1.608-3.228-1.608-5.101 0-5.622 5.22-9.941 11.356-9.998a1 1 0 0 1 1.01.99M4.45 23.8l.002-.004z" clip-rule="evenodd"/><path d="M19.196 12.039 15.638 9.08a3 3 0 0 1-.363-.324 1.174 1.174 0 0 1 0-1.514 3 3 0 0 1 .363-.324l3.558-2.958c.253-.21.38-.316.473-.363a.915.915 0 0 1 1.304.618c.023.102.023.268.023.599v1.217c3.148.502 4.402 2.653 4.9 4.361.068.232.102.348.105.43a.667.667 0 0 1-.883.673c-.077-.026-.246-.133-.583-.347-.879-.556-2.077-1.058-3.539-1.058v1.094c0 .331 0 .497-.023.599a.915.915 0 0 1-1.304.618c-.093-.047-.22-.152-.473-.363"/></svg>