<svg xmlns="http://www.w3.org/2000/svg" width="28" height="28" fill="currentColor" viewBox="0 0 28 28"><path fill-rule="evenodd" d="M4.537 13.499c0-4.28 4.096-7.999 9.482-7.999 5.385 0 9.481 3.719 9.481 7.999 0 .295-.019.587-.056.873a1 1 0 0 0 1.984.256 8.83 8.83 0 0 0 .072-1.13C25.5 7.84 20.211 3.5 14.018 3.5c-6.192 0-11.481 4.339-11.481 9.999 0 1.873.59 3.62 1.608 5.101-.045.617-.22 1.272-.475 1.966-.228.616-.499 1.21-.775 1.815l-.27.597c-.438.974.317 2.062 1.363 2.02 2.568-.1 4.668-.748 6.113-2.097.727.23 1.49.398 2.275.495a1 1 0 0 0 .248-1.984 10.749 10.749 0 0 1-2.45-.6 1 1 0 0 0-1.114.288c-.814.957-2.162 1.615-4.219 1.834.24-.53.493-1.102.705-1.675.336-.911.61-1.921.61-2.963a1 1 0 0 0-.197-.596c-.907-1.222-1.422-2.664-1.422-4.201Zm19.577 4.132-2.629-.258-1.157-2.732c-.362-.855-1.291-.855-1.654 0l-1.158 2.732-2.628.258c-.918.09-1.198 1.001-.489 1.604l2.059 1.75-.764 2.851c-.251.937.53 1.5 1.307.94l2.5-1.807 2.5 1.807c.78.563 1.559-.004 1.308-.94l-.764-2.85 2.058-1.75c.706-.601.426-1.515-.489-1.605Z" clip-rule="evenodd"/></svg>
