<svg fill="none" height="28" viewBox="0 0 28 28" width="28" xmlns="http://www.w3.org/2000/svg" xmlns:xlink="http://www.w3.org/1999/xlink"><linearGradient id="a" gradientUnits="userSpaceOnUse" x1="-14" x2="14" y1="14" y2="42"><stop offset="0" stop-color="#70b2ff"/><stop offset="1" stop-color="#5c9ce6"/></linearGradient><path d="m0 14c0-7.73199 6.26801-14 14-14 7.732 0 14 6.26801 14 14 0 7.732-6.268 14-14 14-7.73199 0-14-6.268-14-14z" fill="url(#a)"/><path clip-rule="evenodd" d="m14 8c3.3137 0 6 2.4065 6 5.375s-2.6863 5.375-6 5.375c-.5911 0-1.1622-.0766-1.7016-.2192-.5839.5113-1.2187.9669-1.8952 1.3585-.1154.0668-.2493.1384-.4015.2147l-.15839.0781c-.29832.1443-.65715.0195-.80147-.2789-.07342-.1517-.0796-.3274-.01704-.4839.09412-.2356.16901-.4418.22468-.6188.17537-.5576.31112-1.1327.40394-1.7221-1.02561-.9646-1.65342-2.2683-1.65342-3.7034 0-2.9685 2.6863-5.375 6-5.375zm.0153 7.15h-.0306c-.1822 0-.3288.0348-.451.1002-.1222.0653-.2182.1613-.2835.2835-.0654.1222-.1002.2688-.1002.451v.0306c0 .1822.0348.3288.1002.451.0653.1222.1613.2182.2835.2835.1222.0654.2688.1002.451.1002h.0306c.1822 0 .3288-.0348.451-.1002.1222-.0653.2182-.1613.2835-.2835.0654-.1222.1002-.2688.1002-.451v-.0306c0-.1822-.0348-.3288-.1002-.451-.0653-.1222-.1613-.2182-.2835-.2835-.1222-.0654-.2688-.1002-.451-.1002zm-.0153-5.15-.0289.0005c-.4252.016-.7571.3737-.7411.7989l.0956 2.5511c.0136.3626.3115.6495.6744.6495s.6608-.2869.6744-.6495l.0956-2.5511.0006-.0288c0-.4256-.345-.7706-.7706-.7706z" fill="#fff" fill-rule="evenodd"/></svg>
