<svg fill="none" height="28" viewBox="0 0 28 28" width="28" xmlns="http://www.w3.org/2000/svg" xmlns:xlink="http://www.w3.org/1999/xlink"><clipPath id="a"><path d="m0 0h28v28h-28z"/></clipPath><g clip-path="url(#a)" fill="currentColor"><path clip-rule="evenodd" d="m14.9023 4.49123c.0052.55227-.4384 1.00413-.9906 1.00928-5.33384.04968-9.37485 3.74667-9.37485 7.99849 0 1.5369.51463 2.9788 1.42186 4.2006.12801.1724.19714.3814.19714.5961 0 1.0419-.27362 2.052-.61017 2.963-.21197.5738-.46379 1.1447-.70426 1.6752 2.05607-.2184 3.40491-.8768 4.21826-1.8339.27317-.3214.71868-.4369 1.11362-.2886 1.1722.4402 2.4725.6865 3.8451.6865 4.8466 0 8.6806-3.0339 9.3685-6.7609.1003-.5431.6218-.9021 1.1649-.8018.5432.1002.9022.6217.8019 1.1649-.8978 4.8639-5.7294 8.3978-11.3353 8.3978-1.3731 0-2.693-.2099-3.918-.5965-1.44481 1.3484-3.54412 1.9966-6.11214 2.0975-1.0461.0411-1.80116-1.0469-1.36313-2.0209.08974-.2009.18027-.3995.27027-.597.27571-.6048.54644-1.1988.7742-1.8153.2561-.6933.43053-1.3484.47504-1.9655-1.01683-1.4807-1.60779-3.2281-1.60779-5.1012 0-5.62171 5.21932-9.94124 11.35615-9.99841.5523-.00514 1.0042.43838 1.0093.99064zm-10.45342 19.30767.00163-.0036z" fill-rule="evenodd"/><path d="m19.1956 12.0388-3.558-2.9576c-.1972-.16392-.2958-.24589-.3622-.32449-.3684-.43635-.3684-1.07708 0-1.51343.0664-.0786.165-.16057.3622-.32449l3.558-2.95755c.2535-.21075.3803-.31614.4734-.36304.5309-.26756 1.1706.03572 1.3038.61809.0233.10208.0233.26757.0233.59854v1.21702c3.1474.50175 4.4015 2.65329 4.9 4.36155.0677.2321.1016.3481.1052.4302.0209.4806-.4291.8232-.8829.672-.0775-.0259-.2463-.1327-.5839-.3465-.8783-.556-2.0762-1.058-3.5384-1.058v1.0941c0 .3309 0 .4964-.0233.5985-.1332.5824-.7729.8857-1.3038.6181-.0931-.0469-.2198-.1523-.4734-.363z"/></g></svg>
