<svg fill="none" height="28" viewBox="0 0 28 28" width="28" xmlns="http://www.w3.org/2000/svg"><g fill="currentColor"><path d="m11 3c4.9706 0 9 3.45152 9 7.7092 0 4.2577-4.0294 7.2908-9 7.2908-1.01909 0-1.99861-.1451-2.91197-.4125-1.0206.7873-2.44325 1.8666-4.58803 2.4002-.10155.0253-.20898.0112-.3004-.0394-.1983-.1097-.26935-.3582-.15869-.5548l.15349-.2763c.71227-1.2999.99637-2.366 1.1729-3.1983-1.47041-1.3717-2.3673-3.201-2.3673-5.2097 0-4.25768 4.02944-7.7092 9-7.7092z"/><path clip-rule="evenodd" d="m11.0014 20c1.5915 1.259 3.7698 1.997 6.1724 1.997.9994 0 1.96-.1454 2.8557-.4131l.0092.0072c1.0001.7878 2.366 1.8638 4.4629 2.3966.0996.0253.205.0112.2946-.0395.1945-.1099.2642-.3587.1556-.5557l-.1505-.2767c-.6985-1.3018-.9498-2.3695-1.1229-3.2031 1.442-1.3738 2.3216-3.2059 2.3216-5.2177 0-2.8615-1.7795-5.35937-4.4233-6.69308.2747.84972.4233 1.75612.4233 2.70728 0 5.7707-5.3831 9.2902-10.9986 9.2908z" fill-rule="evenodd"/></g></svg>
