<svg fill="none" height="28" viewBox="0 0 28 28" width="28" xmlns="http://www.w3.org/2000/svg"><path d="m23.7064 9.66186c1.4641 1.45254 2.2938 3.33584 2.2938 5.33814 0 1.2695-.3332 2.4958-.9602 3.5987.1011.6034.3925 1.5193.8759 2.7163l.2584.6238.0569.168.0251.0982c.1309.6481-.2108 1.3047-.8259 1.5655-.1957.083-.4078.1203-.62.1092-1.908-.1003-3.4302-.5655-4.54-1.4236-1.0324.3576-2.1373.5439-3.2702.5439-1.1546 0-2.2806-.1934-3.3321-.5656-.5206-.1842-.7933-.7557-.609-1.2763.1843-.5207.7558-.7933 1.2764-.609.8371.2963 1.7375.4509 2.6647.4509 1.0864 0 2.1352-.2124 3.0866-.6146.3766-.1592.8122-.0731 1.0999.2174.5497.5549 1.3716.9414 2.4817 1.1409l.2835.046c-.5737-1.4554-.8884-2.5546-.9429-3.3431-.0147-.2125.0388-.4241.1528-.604.5487-.8664.8384-1.8359.8384-2.8426 0-1.4538-.6069-2.8316-1.7024-3.9183-.392-.389-.3945-1.0222-.0056-1.41424.389-.39207 1.0222-.39458 1.4142-.0056zm-12.7064-6.66186c4.9431 0 9 3.54982 9 8 0 4.4502-4.0569 8-9 8-1.13299 0-2.23783-.1863-3.27024-.5439-1.10979.8581-2.63195 1.3233-4.53995 1.4236-.21228.0111-.42431-.0262-.62001-.1092-.61517-.2608-.95679-.9174-.82594-1.5655l.02506-.0982.05692-.168.13363-.3187c.51531-1.2437.8386-2.2088.97145-2.8641l.02924-.1573-.1506-.2783c-.5296-1.0293-.80956-2.1567-.80956-3.3204 0-4.45018 4.05693-8 9-8zm0 2c-3.89349 0-7 2.7182-7 6 0 1.0067.28965 1.9762.83837 2.8426.11395.1799.16747.3915.15279.604-.0506.7322-.32553 1.7322-.82393 3.0367l-.11898.3064.28353-.046c1.1101-.1995 1.93203-.586 2.48166-1.1409.28772-.2905.72331-.3766 1.0999-.2174.95137.4022 2.00021.6146 3.08666.6146 3.8935 0 7-2.7182 7-6s-3.1065-6-7-6z" fill="currentColor"/></svg>
