<svg xmlns="http://www.w3.org/2000/svg" width="28" height="28" fill="none" viewBox="0 0 28 28"><rect width="28" height="28" fill="url(#a)" rx="14"/><path fill="#fff" fill-rule="evenodd" d="M6.554 20.583a.454.454 0 0 0 .415.667c1.798-.055 3.059-.484 3.874-1.205l.315-.279.402.123c.774.237 1.595.36 2.44.36 4.225 0 7.5-3.06 7.5-6.75 0-3.689-3.275-6.75-7.5-6.75S6.5 9.81 6.5 13.5a6.26 6.26 0 0 0 1.13 3.578l.175.254-.054.304c-.128.712-.548 1.723-1.197 2.948Zm7.42-9.733a.85.85 0 0 0-.822.637.75.75 0 1 1-1.453-.374 2.35 2.35 0 0 1 4.626.587c0 1.036-.567 1.578-.963 1.948-.39.363-.587.55-.645.958a.75.75 0 0 1-1.485-.212c.135-.942.686-1.453 1.05-1.79l.056-.052c.353-.33.487-.488.487-.852a.85.85 0 0 0-.85-.85ZM14 17.9a.9.9 0 1 0 0-1.8.9.9 0 0 0 0 1.8Z" clip-rule="evenodd"/><defs><linearGradient id="a" x1="-14" x2="14" y1="14" y2="42" gradientUnits="userSpaceOnUse"><stop stop-color="#C48AFF"/><stop offset="1" stop-color="#AA65F0"/></linearGradient></defs></svg>
