<svg xmlns="http://www.w3.org/2000/svg" width="28" height="28" viewBox="0 0 28 28" fill="currentColor"><path d="M8.575 4.692a1 1 0 0 1 .85 1.81C6.45 7.9 4.538 10.552 4.538 13.5c0 1.536.515 2.979 1.422 4.2a1 1 0 0 1 .197.596c0 1.042-.274 2.052-.61 2.963a26 26 0 0 1-.706 1.675c2.057-.218 3.406-.876 4.22-1.833l.11-.111a1 1 0 0 1 1.003-.178c1.172.44 2.473.686 3.846.686 3.7 0 6.845-1.784 8.407-4.301a1 1 0 0 1 1.7 1.054c-1.963 3.165-5.787 5.247-10.107 5.247-1.374 0-2.695-.211-3.92-.598-1.445 1.348-3.543 1.999-6.11 2.1-1.046.04-1.8-1.046-1.364-2.02.365-.816.743-1.595 1.045-2.413.256-.694.43-1.35.474-1.968-1.016-1.48-1.607-3.227-1.607-5.1 0-3.87 2.504-7.148 6.037-8.806"/><path d="M19.784 5.154c.088-.316.677-.316.765 0a17 17 0 0 0 .22.732l.056.164c.298.871.698 1.752 1.202 2.256.505.505 1.385.904 2.256 1.202a14 14 0 0 0 .666.21l.23.066c.316.087.316.677 0 .765a18 18 0 0 0-.896.276c-.87.298-1.751.698-2.256 1.203-.504.504-.904 1.384-1.202 2.255a12 12 0 0 0-.21.666l-.066.23c-.088.317-.677.317-.765 0a17 17 0 0 0-.22-.731l-.056-.165c-.298-.871-.698-1.75-1.202-2.255-.505-.505-1.385-.905-2.256-1.203a14 14 0 0 0-.665-.21l-.23-.066c-.317-.088-.317-.678 0-.765a18 18 0 0 0 .895-.276c.87-.298 1.751-.697 2.256-1.202.504-.504.904-1.385 1.202-2.256l.056-.164a16 16 0 0 0 .22-.732m-5.22-2.9a.372.372 0 0 1 .706 0l.283.85a1.86 1.86 0 0 0 1.177 1.177l.85.283a.372.372 0 0 1 0 .706l-.85.283a1.86 1.86 0 0 0-1.177 1.177l-.283.849a.372.372 0 0 1-.707 0l-.283-.85a1.86 1.86 0 0 0-1.176-1.176l-.85-.283a.372.372 0 0 1 0-.706l.85-.283a1.86 1.86 0 0 0 1.176-1.177z"/></svg>