<svg xmlns="http://www.w3.org/2000/svg" width="28" height="28" fill="currentColor" viewBox="0 0 28 28"><path fill-rule="evenodd" d="M14.018 5.5c-5.385 0-9.481 3.719-9.481 7.999 0 1.537.514 2.979 1.422 4.2a1 1 0 0 1 .197.597c0 1.042-.274 2.052-.61 2.963a25.572 25.572 0 0 1-.705 1.675c2.056-.219 3.405-.877 4.219-1.834a1 1 0 0 1 1.113-.289 10.94 10.94 0 0 0 3.845.687c5.386 0 9.482-3.719 9.482-8 0-4.28-4.096-7.998-9.482-7.998ZM2.537 13.499c0-5.66 5.289-9.999 11.481-9.999 6.193 0 11.482 4.339 11.482 9.999s-5.289 9.999-11.482 9.999c-1.373 0-2.693-.21-3.918-.597C8.656 24.25 6.556 24.898 3.988 25c-1.046.041-1.8-1.047-1.363-2.021l.27-.597c.276-.605.547-1.199.775-1.815.256-.694.43-1.349.475-1.966-1.017-1.48-1.608-3.228-1.608-5.101ZM8 12a1 1 0 0 1 1-1h10a1 1 0 1 1 0 2H9a1 1 0 0 1-1-1Zm1 3a1 1 0 1 0 0 2h5a1 1 0 1 0 0-2H9Z" clip-rule="evenodd"/></svg>
