<svg xmlns="http://www.w3.org/2000/svg" width="28" height="28" fill="none" viewBox="0 0 28 28"><path fill="currentColor" d="M14 12c1.1046 0 2 .8954 2 2s-.8954 2-2 2-2-.8954-2-2 .8954-2 2-2Z"/><path fill="currentColor" fill-rule="evenodd" d="M2.5368 13.4989C2.5368 7.839 7.8258 3.5 14.0184 3.5 20.211 3.5 25.5 7.839 25.5 13.4989c0 5.66-5.289 9.999-11.4816 9.999-1.3731 0-2.693-.2099-3.918-.5966-1.4448 1.3485-3.5442 1.9967-6.1122 2.0976-1.046.0411-1.8011-1.047-1.3631-2.0209.6214-1.3914 1.4243-2.9865 1.5195-4.3778-1.0168-1.4807-1.6078-3.2281-1.6078-5.1013ZM14.0184 5.5c-5.385 0-9.4816 3.719-9.4816 7.9989 0 1.537.5146 2.9789 1.4219 4.2007a1 1 0 0 1 .1971.5961c0 1.6338-.6513 3.1753-1.3144 4.6382 2.056-.2184 3.4049-.8768 4.2182-1.8339a1 1 0 0 1 1.1136-.2886c1.1723.4402 2.4726.6865 3.8452.6865 5.3851 0 9.4816-3.7189 9.4816-7.999 0-4.28-4.0965-7.9989-9.4816-7.9989Z" clip-rule="evenodd"/></svg>
