<svg height="28" viewBox="0 0 28 28" width="28" xmlns="http://www.w3.org/2000/svg"><g fill="none"><path d="m0 0h28v28h-28z"/><path d="m14.0229 3c.9258 0 1.8281.0898154 2.6952.260024.5477.107502.766.754846.5613 1.274086-.1713.43448-.6238.74664-1.0831.66214-.6987-.12854-1.4259-.19625-2.1734-.19625-5.54515002 0-9.97754002 3.72674-9.97754002 8.2297 0 1.5485.52061 3.0338 1.4924 4.3155.13182.1738.20317.3861.20317.6043 0 .9876-.39293 2.3837-1.17308 4.2486l-.15081.3551-.08255.1868.40765-.0458c1.69778-.2197 2.96532-.7408 3.82528-1.5425l.16656-.1641.13985-.1531c.27228-.3136.71003-.4262 1.09978-.2829 1.26299002.4644 2.63449002.7078 4.04929002.7078 5.5452 0 9.9776-3.7268 9.9776-8.2297 0-1.04999-.241-2.05776-.6809-2.98592-.1948-.41098-.0568-.91391.2881-1.21034.4357-.37441 1.1522-.38406 1.4119.12831.6304 1.24363.9804 2.61836.9804 4.06795 0 5.6919-5.397 10.2297-11.9771 10.2297-1.1811 0-2.33933-.146-3.44667-.4292l-.47138-.1298-.20177002-.0634-.07942.0759c-1.31994 1.1772-3.18482 1.849-5.56429 2.0419l-.40134.0277-.3713.0175c-.22507.0083-.44893-.0365-.653437-.1309-.579874-.2676-.9048655-.8804-.8199112-1.497l.0245356-.1321.028101-.0974.0645306-.173.156503-.3425c.775598-1.717 1.238638-3.0337 1.394748-3.9019l.02713-.1677.01272-.1095-.18774-.2784c-.838556-1.2899-1.341303-2.7327-1.4604615-4.24l-.0206671-.3489-.006918-.351c0-5.6919 5.3970366-10.2297 11.97703662-10.2297zm6.9784 1c1.1043 0 1.9995.89543 1.9995 2s-.8952 2-1.9995 2-1.9995-.89543-1.9995-2 .8952-2 1.9995-2z" fill="currentColor" /></g></svg>
