<svg xmlns="http://www.w3.org/2000/svg" width="28" height="28" fill="currentColor" viewBox="0 0 28 28"><path fill-rule="evenodd" d="m2.293 3.707 2.71 2.71A1.013 1.013 0 0 0 5 6.5v4c0 3.143 2.476 5.5 5.5 5.5 1.045 0 2.26-.353 3.176-.91l1.656 1.657a8.037 8.037 0 0 1-.927.656 7.5 7.5 0 0 1-7.797.008c-1.186-.72-2.092-1.661-2.72-2.872a1 1 0 1 0-1.776.921c.808 1.557 1.98 2.763 3.458 3.66A9.5 9.5 0 0 0 10 20.488V23.5a1 1 0 1 0 2 0v-3.12a9.502 9.502 0 0 0 3.447-1.27c.465-.283.9-.597 1.305-.944l2.573 2.573c-.522.169-1.031.261-1.325.261-.349 0-.734-.09-1.059-.199a4.874 4.874 0 0 1-.473-.186l-.021-.01h-.002a1 1 0 0 0-.892 1.79h.001l.002.001.005.003.015.007a4.4 4.4 0 0 0 .202.091 6.922 6.922 0 0 0 1.222.391V26a1 1 0 0 0 2 0v-3.112c.323-.064.65-.151.952-.25.314-.101.628-.224.91-.362l2.43 2.431a1 1 0 0 0 1.415-1.414l-21-21a1 1 0 0 0-1.414 1.414ZM7 8.414V10.5c0 2.012 1.554 3.5 3.5 3.5.535 0 1.166-.155 1.696-.39L7 8.414Zm1.042-6.818A5.35 5.35 0 0 1 10.5 1C13.572 1 16 3.572 16 6.667V9a1 1 0 1 1-2 0V6.667C14 4.607 12.399 3 10.5 3a3.35 3.35 0 0 0-1.542.374 1 1 0 0 1-.916-1.778ZM25.59 17.193a1 1 0 0 1 .217 1.397c-.21.287-.424.52-.62.731l-.051.056a1 1 0 1 1-1.472-1.354l.038-.041c.21-.228.351-.381.491-.572a1 1 0 0 1 1.397-.217ZM19 5a1 1 0 1 0 0 2c.374 0 1.137.233 1.814.863.64.596 1.178 1.526 1.178 2.899 0 .245.002.478.004.7.007.77.013 1.414-.076 2.024-.106.73-.338 1.305-.84 1.805a1 1 0 1 0 1.41 1.418c.889-.885 1.26-1.904 1.41-2.935.113-.778.104-1.626.096-2.421-.002-.201-.004-.399-.004-.591 0-1.96-.793-3.411-1.816-4.363C21.19 5.48 19.956 5 19 5Z" clip-rule="evenodd"/></svg>
