<svg fill="none" height="28" viewBox="0 0 28 28" width="28" xmlns="http://www.w3.org/2000/svg"><g fill="currentColor"><path d="m14.0001 2c2.7614 0 5 2.23858 5 5v6c0 2.7614-2.2386 5-5 5s-5.00002-2.2386-5.00002-5v-6c0-2.76142 2.23862-5 5.00002-5z"/><path d="m4.94644 13.781c.67324-.1528 1.34286.2692 1.49562.9424.7831 3.4511 3.87124 6.0266 7.55794 6.0266s6.7749-2.5755 7.558-6.0266c.1528-.6732.8224-1.0952 1.4956-.9424.6733.1528 1.0952.8224.9424 1.4956-.946 4.169-4.4315 7.3735-8.746 7.898v2.8254c0 .6904-.5596 1.25-1.25 1.25s-1.25-.5596-1.25-1.25v-2.8254c-4.31446-.5245-7.79997-3.729-8.74596-7.898-.15277-.6732.26916-1.3428.9424-1.4956z"/></g></svg>
