<svg xmlns="http://www.w3.org/2000/svg" width="28" height="28" fill="currentColor" viewBox="0 0 28 28"><path d="M9.44 5h.06A4.5 4.5 0 0 1 14 9.5v.24a1 1 0 1 1-2 0V9.5A2.5 2.5 0 0 0 9.5 7h-.034a1 1 0 1 1-.026-2Z"/><path fill-rule="evenodd" d="m5.088 8.608-1.795-1.9a1 1 0 0 1 1.414-1.415l17 18a1 1 0 1 1-1.414 1.414l-1.702-1.802c-.4.058-.897.09-1.558.095H17a1 1 0 0 1-.191-1.982l-1.364-1.444a8.476 8.476 0 0 1-4.945 2.368V23a1 1 0 1 1-2 0v-1.058a8.503 8.503 0 0 1-6.366-4.198 1 1 0 1 1 1.732-1A6.497 6.497 0 0 0 9.5 20a6.477 6.477 0 0 0 4.572-1.88l-1.374-1.454A4.5 4.5 0 0 1 5 13.5v-4c0-.305.03-.603.088-.892Zm6.236 6.602A2.5 2.5 0 0 1 7 13.5v-2.868l4.324 4.578ZM17 12a1 1 0 1 1 0-2c1.686.009 2.317.194 2.953.534.652.349 1.164.86 1.512 1.512.188.35.328.699.418 1.223l1.057-.66c1.332-.833 3.06.124 3.06 1.695v4.392c0 1.57-1.728 2.528-3.06 1.696l-2.46-1.537a1.027 1.027 0 0 1-.276-.249.995.995 0 0 1-.184-.407h-.023c.002-.102.002-.21.002-.327V14.89c-.01-1.136-.091-1.515-.298-1.9a1.636 1.636 0 0 0-.692-.692c-.398-.213-.788-.293-2.009-.298Zm5 5.446 2 1.25v-4.392l-2 1.25v1.892Z" clip-rule="evenodd"/></svg>
