<svg xmlns="http://www.w3.org/2000/svg" width="28" height="28" fill="none" viewBox="0 0 28 28">
  <path fill="currentColor" fill-rule="evenodd" d="M11.663 2.579c-.3.159-.45.238-.566.438a.926.926 0 0 0-.086.578c.05.224.205.378.513.687l6.001 6c.463.463.694.694.893.71a.54.54 0 0 0 .453-.188c.13-.151.13-.478.13-1.132V7a5 5 0 0 0-7.338-4.421Zm2.971 14.881c.333-.042.499-.063.63-.197a.607.607 0 0 0 .151-.44c-.022-.187-.163-.329-.446-.611l-4.494-4.494c-.463-.463-.694-.694-.893-.71a.54.54 0 0 0-.453.188C9 11.347 9 11.674 9 12.329v.171a5 5 0 0 0 5.634 4.96Zm2.31 2.01c.525-.216 1.142-.142 1.543.26.58.58.46 1.548-.29 1.88-.96.423-2.007.748-2.949.864l-.008 2.276A1.242 1.242 0 0 1 14 26a1.258 1.258 0 0 1-1.26-1.25l.008-2.277a10.25 10.25 0 0 1-7.863-5.486 1.25 1.25 0 1 1 2.223-1.143 7.75 7.75 0 0 0 9.835 3.625Z" clip-rule="evenodd"/>
  <path fill="#FF3347" d="M6.293 4.709a1.002 1.002 0 0 1 0-1.415.998.998 0 0 1 1.412-.001L23.707 19.29c.39.39.39 1.024 0 1.415a.998.998 0 0 1-1.412.002l-16.002-16Z"/>
</svg>
