<svg xmlns="http://www.w3.org/2000/svg" width="28" height="28" fill="currentColor" viewBox="0 0 28 28"><path fill-rule="evenodd" d="M10.176 3.376A6 6 0 0 1 20 8v4.35a1 1 0 1 1-2 0V8a4 4 0 0 0-6.548-3.083 1 1 0 1 1-1.276-1.541ZM8 13a6 6 0 0 0 9.477 4.89l1.432 1.427A8 8 0 0 1 6.9 16.684a1 1 0 1 0-1.776.921A10 10 0 0 0 13 22.95V26a1 1 0 1 0 2 0v-3.05a10 10 0 0 0 5.328-2.207l.965.964a1 1 0 1 0 1.414-1.414l-16-16a1 1 0 1 0-1.414 1.414L8 8.414V13Zm2 0a4 4 0 0 0 6.032 3.446L10 10.414V13Z" clip-rule="evenodd"/></svg>
