<svg xmlns="http://www.w3.org/2000/svg" width="28" height="28" fill="currentColor" viewBox="0 0 28 28"><path fill-rule="evenodd" d="M11 2a1 1 0 0 1 1 1v2h3.997V3a1 1 0 0 1 2 0v2H19a4 4 0 0 1 4 4v1h2a1 1 0 1 1 0 2h-2v3.982h2a1 1 0 0 1 0 2h-2V19a4 4 0 0 1-4 4h-1.012v2a1 1 0 0 1-2 0v-2H12v2a1 1 0 0 1-2 0v-2H9a4 4 0 0 1-4-4v-1H3a1 1 0 0 1 0-2h2v-4H3a1 1 0 0 1 0-2h2V9a4 4 0 0 1 4-4h1V3a1 1 0 0 1 1-1ZM9 7h10a2 2 0 0 1 2 2v10a2 2 0 0 1-2 2H9a2 2 0 0 1-2-2V9a2 2 0 0 1 2-2Zm4.008 3c-.774 0-1.237.066-1.717.323a2.34 2.34 0 0 0-.968.968c-.257.48-.323.943-.323 1.717v1.985c0 .773.066 1.236.323 1.716.222.415.553.746.968.968.48.257.943.323 1.716.323h1.986c.773 0 1.236-.066 1.716-.323a2.34 2.34 0 0 0 .968-.968c.257-.48.323-.943.323-1.716v-1.985c0-.774-.066-1.236-.323-1.717a2.34 2.34 0 0 0-.968-.968c-.48-.257-.943-.323-1.716-.323h-1.986Zm-.774 2.087a.444.444 0 0 1 .156-.053c.103-.018.28-.034.617-.034h1.986c.338 0 .514.016.617.034.077.014.11.028.156.053a.34.34 0 0 1 .147.147.443.443 0 0 1 .053.156c.018.103.034.28.034.618v1.985c0 .338-.016.514-.034.617a.443.443 0 0 1-.053.156.34.34 0 0 1-.147.147.444.444 0 0 1-.156.053 3.75 3.75 0 0 1-.617.034h-1.986a3.75 3.75 0 0 1-.617-.034.444.444 0 0 1-.156-.053.34.34 0 0 1-.147-.147.443.443 0 0 1-.053-.156 3.764 3.764 0 0 1-.034-.617v-1.985c0-.338.016-.515.034-.618a.443.443 0 0 1 .053-.156.34.34 0 0 1 .147-.147Z" clip-rule="evenodd"/></svg>
