<svg xmlns="http://www.w3.org/2000/svg" width="28" height="28" fill="none" viewBox="0 0 28 28"><g fill="currentColor"><path d="M17.924 3c1.9582.0207 2.9547.2317 3.988.7843.9891.529 1.7713 1.3112 2.3003 2.3003.5526 1.0333.7636 2.0298.7843 3.988v7.8514c-.0207 1.9582-.2317 2.9547-.7843 3.988-.529.9891-1.3112 1.7713-2.3003 2.3003-1.0333.5526-2.0298.7636-3.988.7843h-7.8514c-1.9582-.0207-2.9547-.2317-3.988-.7843-.9891-.529-1.7713-1.3112-2.3003-2.3003-.5526-1.0333-.7636-2.0298-.7843-3.988v-7.8514c.0207-1.9582.2317-2.9547.7843-3.988.529-.9891 1.3112-1.7713 2.3003-2.3003 1.0333-.5526 2.0298-.7636 3.988-.7843zm-.3354 1.9983H10.408l-.5574.0049c-1.4793.028-2.1416.1804-2.8228.5447-.6406.3426-1.1373.8393-1.4799 1.4799-.3643.6812-.5167 1.3435-.5447 2.8228l-.005.5574v7.1806l.005.5574c.028 1.4792.1804 2.1416.5447 2.8228.3426.6406.8393 1.1373 1.4799 1.4798.6812.3644 1.3435.5168 2.8228.5448l.5574.0049h7.1806l.5574-.0049c1.4792-.028 2.1416-.1804 2.8228-.5448.6406-.3425 1.1373-.8392 1.4798-1.4798.3644-.6812.5168-1.3436.5448-2.8228l.0049-.5574V10.408l-.0049-.5574c-.028-1.4793-.1804-2.1416-.5448-2.8228-.3425-.6406-.8392-1.1373-1.4798-1.4799-.6812-.3643-1.3436-.5167-2.8228-.5447z"/><path d="M15 13h3c.5523 0 1 .4477 1 1s-.4477 1-1 1h-8c-.5523 0-1-.4477-1-1s.4477-1 1-1h3z"/></g></svg>
