<svg xmlns="http://www.w3.org/2000/svg" width="28" height="28" fill="currentColor" viewBox="0 0 28 28"><path fill-rule="evenodd" d="M21 15a6 6 0 1 1 0 12 6 6 0 0 1 0-12Zm2.78 4.22a.75.75 0 0 0-1.06 0l-2.47 2.47-.97-.97a.75.75 0 1 0-1.06 1.06l1.5 1.5a.75.75 0 0 0 1.06 0l3-3a.75.75 0 0 0 0-1.06Z" clip-rule="evenodd"/><path d="M14 2c6.032 0 11.024 4.45 11.873 10.247l.068.566.005.101a1 1 0 0 1-1.995.094C23.454 7.95 19.188 4 14 4 8.477 4 4 8.477 4 14c0 5.188 3.95 9.453 9.007 9.951a1 1 0 0 1-.094 1.995l-.101-.005-.566-.068C6.45 25.023 2 20.032 2 14 2 7.373 7.373 2 14 2Z"/><path fill-rule="evenodd" d="M14.813 7a3.662 3.662 0 0 1 0 7.324h-2.458v1.403h1.637a.818.818 0 0 1 0 1.636h-1.637v.78a.858.858 0 0 1-.857.857h-.14a.858.858 0 0 1-.857-.857l-.001-.78h-.872a.819.819 0 0 1 0-1.636h.872v-1.404l-.833.001a.858.858 0 0 1-.857-.857v-.155c0-.474.384-.858.857-.858h.833l.001-4.598c0-.473.384-.856.857-.856h3.455Zm-2.458 1.714v3.74h2.494a1.87 1.87 0 0 0 0-3.74h-2.494Z" clip-rule="evenodd"/></svg>
