<svg fill="none" height="28" viewBox="0 0 28 28" width="28" xmlns="http://www.w3.org/2000/svg"><g clip-rule="evenodd" fill="currentColor" fill-rule="evenodd"><path d="m19 5c-2.2091 0-4 1.79086-4 4 0 2.2091 1.7909 4 4 4 2.2092 0 4-1.7909 4-4 0-2.20914-1.7908-4-4-4zm-6 4c0-3.31371 2.6863-6 6-6s6 2.68629 6 6c0 3.3137-2.6863 6-6 6s-6-2.6863-6-6z"/><path d="m11.649 12.2392c.4202.3584.4702.9896.1118 1.4098l-6.51092 7.6326c-.35189.4125-.3276 1.0262.05581 1.4096.3834.3834.99711.4077 1.40962.0558l7.63259-6.5109c.4202-.3585 1.0513-.3084 1.4098.1118.3584.4201.3083 1.0513-.1118 1.4097l-7.6326 6.511c-1.20622 1.0289-3.00073.9579-4.12183-.1632-1.12109-1.1211-1.19214-2.9156-.16318-4.1218l6.51091-7.6326c.3585-.4202.9896-.4702 1.4098-.1118z"/></g></svg>
