<svg xmlns="http://www.w3.org/2000/svg" width="28" height="28" fill="none" viewBox="0 0 28 28">
  <rect width="28" height="28" fill="url(#a)" rx="14"/>
  <path fill="#fff" fill-rule="evenodd" d="M18.5 14.494v-2.985c0-.352 0-.527-.072-.647a.5.5 0 0 0-.282-.219c-.134-.04-.305.003-.645.091l-4.647 1.198c-.215.055-.322.083-.402.143a.499.499 0 0 0-.16.206c-.038.093-.038.204-.038.425v4.545c0 .624-.097 1.393-.428 2.082-.344.715-1.023 1.492-2.162 1.645-.622.083-1.375-.052-1.983-.658-.607-.607-.742-1.359-.659-1.98.153-1.137.932-1.816 1.647-2.159.69-.33 1.46-.435 2.086-.435V11.03c-.001-.546-.002-1.025.173-1.445.153-.366.401-.685.718-.925.363-.274.827-.393 1.357-.529l.113-.029 2.98-.768c.484-.124.894-.23 1.233-.286.351-.058.712-.08 1.075.03.529.16.98.51 1.268.981.197.323.266.678.298 1.032.03.341.03.764.03 1.263v5.644c0 .625-.097 1.393-.428 2.082-.344.715-1.023 1.493-2.162 1.645-.622.083-1.375-.052-1.982-.658-.608-.606-.743-1.358-.66-1.98.153-1.137.932-1.815 1.648-2.158.69-.331 1.46-.435 2.085-.435Z" clip-rule="evenodd"/>
  <defs>
    <linearGradient id="a" x1="0" x2="28" y1="0" y2="28" gradientUnits="userSpaceOnUse">
      <stop stop-color="#FF80D5"/>
      <stop offset="1" stop-color="#E645B1"/>
    </linearGradient>
  </defs>
</svg>
