<?xml version="1.0" encoding="UTF-8"?>
<svg width="28px" height="28px" viewBox="0 0 28 28" version="1.1" xmlns="http://www.w3.org/2000/svg" xmlns:xlink="http://www.w3.org/1999/xlink">
    <!-- Generator: Sketch 63.1 (92452) - https://sketch.com -->
    <title>music_outline_28</title>
    <desc>Created with Sketch.</desc>
    <g id="Page-1" stroke="none" stroke-width="1" fill="none" fill-rule="evenodd">
        <g id="music_outline_28">
            <polygon points="0 0 28 0 28 28 0 28"></polygon>
            <path d="M11,16.9302597 L11,19.393633 C11,24.0814866 6.41746813,26.4933454 3.92719121,24.0030685 C1.43691428,21.5127916 3.84877316,16.9302597 8.53662672,16.9302597 L8.53662672,16.9302597 L11,16.9302597 Z M9,18.9302597 L8.53662672,18.9302597 C5.52251568,18.9302597 4.19847908,21.4459293 5.34140477,22.588855 C6.48433046,23.7317806 9,22.4077441 9,19.393633 L9,19.393633 L9,18.9302597 Z M19.3881372,3.52266719 C21.0101651,3.18474471 22.5990188,4.22571781 22.9369413,5.84774568 C22.9788694,6.04900066 23,6.25403234 23,6.45960845 L23,6.45960845 L23,16.893633 C23,21.5814866 18.4174681,23.9933454 15.9271912,21.5030685 C13.4369143,19.0127916 15.8487732,14.4302597 20.5366267,14.4302597 L20.5366267,14.4302597 L20.9992597,14.4300049 L20.9992597,9.72900488 L10.9992597,11.8120049 L11,18 L9,18 L9,8.91676494 C9,7.97364857 9.07862806,7.48679505 9.31321929,6.96263393 C9.53518474,6.46668334 9.87258259,6.05175003 10.3128377,5.73329897 C10.7781353,5.39673386 11.2387188,5.22046269 12.1620113,5.02811009 L12.1620113,5.02811009 Z M21,16.4302597 L20.5366267,16.4302597 C17.5225157,16.4302597 16.1984791,18.9459293 17.3414048,20.088855 C18.4843305,21.2317806 21,19.9077441 21,16.893633 L21,16.893633 L21,16.4302597 Z M20.9789804,6.25565419 C20.8663396,5.71497824 20.3367217,5.3679872 19.7960457,5.48062803 L19.7960457,5.48062803 L12.5699198,6.98607093 C11.8990588,7.12583363 11.6890527,7.20620566 11.4850015,7.35380262 C11.3292941,7.46643093 11.2172321,7.60424518 11.1387284,7.7796507 C11.035851,8.00951585 11,8.23149998 11,8.91676494 L11,8.91676494 L10.9992597,9.77000488 L20.9992597,7.68700488 L21,6.45960845 C21,6.42534576 20.9982391,6.39112845 20.9947312,6.35709118 Z" id="↳-Icon-Color" fill="currentColor" fill-rule="nonzero"></path>
        </g>
    </g>
</svg>
