<svg xmlns="http://www.w3.org/2000/svg" width="28" height="28" fill="currentColor" viewBox="0 0 28 28"><path fill-rule="evenodd" d="M17 5.111A1.11 1.11 0 0 0 15.89 4c-.713 0-1.396.276-1.91.77l-6.13 5.897H5.222A2.222 2.222 0 0 0 3 12.889v2.222c0 1.227.995 2.222 2.222 2.222H7.88l6.1 5.895a2.749 2.749 0 0 0 1.91.772A1.11 1.11 0 0 0 17 22.889V5.11Z" clip-rule="evenodd"/><path d="M27.444 11.784a1.045 1.045 0 0 0-1.478-1.478l-2.216 2.216-2.216-2.216a1.045 1.045 0 0 0-1.478 1.478L22.272 14l-2.216 2.216a1.045 1.045 0 0 0 1.478 1.478l2.216-2.216 2.216 2.216a1.045 1.045 0 0 0 1.478-1.478L25.228 14l2.216-2.216Z"/></svg>