<svg fill="none" height="28" viewBox="0 0 28 28" width="28" xmlns="http://www.w3.org/2000/svg"><g clip-rule="evenodd" fill="currentColor" fill-rule="evenodd"><path d="m24.1131 19.0886c.6409-.8803.8799-1.8542.8869-2.9309 0-2.2962-1.8616-4.1577-4.1579-4.1577-.9706.0251-1.8922.2775-2.7049.8238l-.1372.0962-.1372-.0962c-.8102-.5446-1.7184-.8238-2.7049-.8238-2.2963 0-4.1579 1.8615-4.1579 4.1577-.007 1.0717.2508 2.0579.8864 2.9309.6667.9156 1.7782 1.8981 3.5558 3.2984l1.6464 1.297c.5349.4214 1.2874.4214 1.8223 0l1.6464-1.297c1.7776-1.4003 2.8891-2.3828 3.5558-3.2984zm-10.6098-1.1772c.4823.6625 1.3809 1.4901 3.1765 2.9045l1.32 1.0398 1.3199-1.0398c1.7956-1.4144 2.6942-2.242 3.1765-2.9045.3901-.5358.4996-1.1007.5038-1.7537 0-1.1917-.9661-2.1577-2.1579-2.1577-.8032 0-1.4983.3008-2.1352.9373l-.3532.353c-.1955.1949-.5119.1949-.7073 0l-.3533-.353c-.6368-.6365-1.332-.9373-2.1352-.9373-1.1918 0-2.1579.966-2.1579 2.1577-.0042.6502.1161 1.2219.5033 1.7537z"/><path d="m7.64728 3.47394 3.36392-.90136c.7776-.20835 1.4193-.38031 1.9535-.47767.5548-.10113 1.0794-.13965 1.6122-.0264.8263.17563 1.5757.60832 2.1409 1.23607.3645.40479.5935.87838.7833 1.40944.1828.51131.3547 1.15304.5631 1.9306l.6802 2.53871c.1429.53346-.1736 1.08177-.7071 1.22477-.5335.1429-1.0818-.1737-1.2247-.70713l-.6696-2.49884c-.2217-.82739-.3732-1.38965-.5252-1.81488-.148-.41421-.2688-.61397-.3862-.74441-.2827-.31388-.6574-.53022-1.0705-.61804-.1717-.03649-.4051-.04118-.8378.03769-.4443.08098-1.0069.23093-1.8343.45263l-3.28419.87999c-.82739.2217-1.38964.37316-1.81488.52517-.4142.14807-.61396.26881-.74441.38626-.31387.28262-.53022.65734-.61803 1.07047-.0365.1717-.04118.40506.03769.83781.08097.44427.23093 1.00692.45263 1.83428l2.69172 10.0457c.22169.8274.37315 1.3896.52517 1.8148.14807.4142.26881.614.38626.7445.28261.3138.65734.5302 1.07044.618.3369.0716.786.0093 2.0916-.3355.534-.141 1.0812.1776 1.2222.7116.141.5339-.1776 1.0811-.7116 1.2221-1.1835.3126-2.126.5477-3.018.3581-.82625-.1756-1.5757-.6083-2.14093-1.2361-.36448-.4048-.59342-.8784-.78326-1.4094-.18278-.5113-.35472-1.1531-.56305-1.9306l-2.71309-10.1254c-.20836-.77756-.38032-1.41928-.47768-1.95347-.10112-.55484-.13965-1.07944-.0264-1.61224.17563-.82626.60833-1.57571 1.23607-2.14094.4048-.36448.87838-.59341 1.40944-.78326.51131-.18278 1.15304-.35472 1.93058-.56305z"/></g></svg>
