<?xml version="1.0" encoding="UTF-8"?>
<svg width="28px" height="28px" viewBox="0 0 28 28" version="1.1" xmlns="http://www.w3.org/2000/svg" xmlns:xlink="http://www.w3.org/1999/xlink">
    <!-- Generator: Sketch 63.1 (92452) - https://sketch.com -->
    <title>newsfeed_outline_28</title>
    <desc>Created with Sketch.</desc>
    <g id="Page-1" stroke="none" stroke-width="1" fill="none" fill-rule="evenodd">
        <g id="newsfeed_outline_28">
            <rect x="0" y="0" width="28" height="28"></rect>
            <path d="M17.590287,3.00000006 C19.7732933,3.00000006 20.8230261,3.20271282 21.9137131,3.78601861 C22.9027964,4.31498614 23.6850139,5.09720363 24.2139814,6.08628691 C24.7972872,7.17697392 25.0000001,8.22670674 25.0000001,10.409713 L25.0000001,17.590287 C25.0000001,19.7732933 24.7972872,20.8230261 24.2139814,21.9137131 C23.6850139,22.9027964 22.9027964,23.6850139 21.9137131,24.2139814 C20.8230261,24.7972872 19.7732933,25.0000001 17.590287,25.0000001 L10.409713,25.0000001 C8.22670674,25.0000001 7.17697392,24.7972872 6.08628691,24.2139814 C5.09720363,23.6850139 4.31498614,22.9027964 3.78601861,21.9137131 C3.20271282,20.8230261 3.00000006,19.7732933 3.00000006,17.590287 L3.00000006,10.409713 C3.00000006,8.22670674 3.20271282,7.17697392 3.78601861,6.08628691 C4.31498614,5.09720363 5.09720363,4.31498614 6.08628691,3.78601861 C7.17697392,3.20271282 8.22670674,3.00000006 10.409713,3.00000006 L17.590287,3.00000006 Z M4.99898867,10.9999996 L4.99999994,17.590287 C4.99999994,19.4713639 5.14247912,20.2091816 5.5496449,20.9705154 C5.89221284,21.6110618 6.38893822,22.1077872 7.02948457,22.4503551 C7.7908184,22.8575209 8.52863614,22.9999999 10.409713,22.9999999 L17.590287,22.9999999 C19.4713639,22.9999999 20.2091816,22.8575209 20.9705154,22.4503551 C21.6110618,22.1077872 22.1077872,21.6110618 22.4503551,20.9705154 C22.8575209,20.2091816 22.9999999,19.4713639 22.9999999,17.590287 L22.9990001,11.0000001 L4.99898867,10.9999996 L4.99898867,10.9999996 Z M17.590287,4.99999994 L10.409713,4.99999994 C8.52863614,4.99999994 7.7908184,5.14247912 7.02948457,5.5496449 C6.38893822,5.89221284 5.89221284,6.38893822 5.5496449,7.02948457 C5.2640519,7.56349707 5.10868095,8.08593997 5.04135983,8.99945251 L22.9586401,8.99945251 C22.891319,8.08593997 22.7359481,7.56349707 22.4503551,7.02948457 C22.1077872,6.38893822 21.6110618,5.89221284 20.9705154,5.5496449 C20.2091816,5.14247912 19.4713639,4.99999994 17.590287,4.99999994 Z" id="↳-Icon-Color" fill="currentColor" fill-rule="nonzero"></path>
        </g>
    </g>
</svg>
