<svg xmlns="http://www.w3.org/2000/svg" width="28" height="28" fill="currentColor" viewBox="0 0 28 28"><path d="M17.59 3c2.183 0 3.233.203 4.324.786a5.543 5.543 0 0 1 2.3 2.3c.583 1.091.786 2.14.786 4.324v7.18c0 2.183-.203 3.233-.786 4.324a5.543 5.543 0 0 1-2.3 2.3c-1.091.583-2.14.786-4.324.786h-7.18c-2.183 0-3.233-.203-4.324-.786a5.543 5.543 0 0 1-2.3-2.3C3.203 20.823 3 19.774 3 17.59v-7.18c0-2.183.203-3.233.786-4.324a5.543 5.543 0 0 1 2.3-2.3C7.177 3.203 8.226 3 10.41 3h7.18ZM5 11v6.59c0 1.881.142 2.62.55 3.38a3.533 3.533 0 0 0 1.48 1.48c.76.408 1.499.55 3.38.55h7.18c1.881 0 2.62-.142 3.38-.55a3.544 3.544 0 0 0 1.48-1.48c.408-.76.55-1.499.55-3.38L22.999 11h-18Zm12.59-6h-7.18c-1.881 0-2.62.142-3.38.55a3.533 3.533 0 0 0-1.48 1.48c-.286.534-.441 1.056-.509 1.97H22.96c-.068-.914-.223-1.436-.509-1.97a3.544 3.544 0 0 0-1.48-1.48c-.76-.408-1.499-.55-3.38-.55Z M8 15c0-.552.488-1 1.09-1h9.82c.602 0 1.09.448 1.09 1s-.488 1-1.09 1H9.09C8.489 16 8 15.552 8 15Zm0 4c0-.552.488-1 1.09-1h9.82c.602 0 1.09.448 1.09 1s-.488 1-1.09 1H9.09C8.489 20 8 19.552 8 19Z"/></svg>
