<svg xmlns="http://www.w3.org/2000/svg" width="28" height="28" fill="currentColor" viewBox="0 0 28 28"><path fill-rule="evenodd" d="M6.899 4.663A1 1 0 0 0 5.4 3.337C3.946 4.981 2.958 6.965 2.517 9.316a1 1 0 1 0 1.966.368c.375-2.002 1.204-3.653 2.416-5.021ZM21.187 3.25a1 1 0 0 0-.086 1.412c1.211 1.368 2.04 3.02 2.416 5.021a1 1 0 0 0 1.966-.368c-.441-2.352-1.43-4.335-2.884-5.979a1 1 0 0 0-1.412-.086Zm.52 8.59c0-4.71-3.217-8.341-7.703-8.341-4.486 0-7.712 3.633-7.712 8.341v1.772c0 .253-.215.589-.804 1.192l-.302.304C3.978 16.324 3.5 17.024 3.5 18.15c0 .49.049.848.262 1.287C4.25 20.442 5.342 21 7.004 21h13.992c1.615 0 2.695-.542 3.205-1.514.241-.46.299-.843.299-1.336 0-1.125-.478-1.825-1.686-3.04a47.523 47.523 0 0 1-.302-.304c-.589-.603-.805-.939-.805-1.192v-1.772ZM18 22.001C17.422 23.944 16.042 25 14 25c-2.063 0-3.433-1.017-4-3h8Z" clip-rule="evenodd"/></svg>
