<svg xmlns="http://www.w3.org/2000/svg" width="28" height="28" fill="currentColor" viewBox="0 0 28 28"><path fill-rule="evenodd" d="M22 15a6 6 0 1 0 0-12 6 6 0 0 0 0 12Zm1-9a1 1 0 1 0-2 0v2h-2a1 1 0 0 0 0 2h2v2a1 1 0 0 0 2 0v-2h2a1 1 0 1 0 0-2h-2V6Z" clip-rule="evenodd"/><path fill-rule="evenodd" d="m14.117 3.507-.113-.007C9.473 3.5 6 7.296 6 12.079v1.828c0 .308-.198.664-.737 1.299l-.27.314C3.925 16.758 3.5 17.475 3.5 18.588c0 .5.048.862.258 1.308C4.242 20.926 5.335 21.5 7 21.5h2.6c.67 2.266 2.188 3.5 4.4 3.5s3.73-1.235 4.399-3.5h2.6c1.62 0 2.7-.56 3.207-1.554.237-.468.294-.857.294-1.358V18.5a1 1 0 0 0-1.993-.117l-.007.117v.088c0 .21-.018.335-.077.451-.137.269-.509.461-1.423.461H7c-.944 0-1.308-.191-1.432-.455-.052-.11-.068-.23-.068-.457 0-.463.247-.88 1.007-1.761.139-.16.208-.241.281-.328C7.616 15.524 8 14.835 8 13.907V12.08c0-3.634 2.503-6.451 5.78-6.575l.223-.005H14a1 1 0 0 0 .117-1.993ZM14 23c-1.101 0-1.829-.457-2.28-1.5h4.56C15.827 22.544 15.1 23 14 23Z" clip-rule="evenodd"/></svg>
