<svg fill="none" height="28" viewBox="0 0 28 28" width="28" xmlns="http://www.w3.org/2000/svg"><path clip-rule="evenodd" d="m15 2c0-.55228-.4477-1-1-1s-1 .44772-1 1v11c0 .5523.4477 1 1 1s1-.4477 1-1zm-5.16625 2.90887c.50195-.23035.72215-.824.49175-1.32596-.2303-.50195-.82397-.72213-1.32592-.49178-4.1288 1.89475-6.99958 6.06619-6.99958 10.91027 0 6.6267 5.3727 11.9986 12 11.9986s12-5.3719 12-11.9986c0-4.84408-2.8708-9.01552-6.9996-10.91027-.5019-.23035-1.0956-.01017-1.3259.49178-.2304.50196-.0102 1.09561.4917 1.32596 3.4449 1.58085 5.8338 5.05881 5.8338 9.09253 0 5.5219-4.477 9.9986-10 9.9986-5.52296 0-10-4.4767-10-9.9986 0-4.03372 2.38894-7.51168 5.83375-9.09253z" fill="currentColor" fill-rule="evenodd"/>
</svg>