<svg xmlns="http://www.w3.org/2000/svg" width="28" height="28" fill="currentColor" viewBox="0 0 28 28"><path d="M8.29 3.004a3.378 3.378 0 0 1 4.756-.02l1.342 1.321 8.82 8.821a1 1 0 0 1-1.414 1.414l-8.106-8.106-5.618 5.641c-.8.805-1.36 1.366-1.759 1.837-.391.463-.571.775-.662 1.056A2.995 2.995 0 0 0 5.509 16H7c3 0 5-1.5 7-1.5s6.127.04 4.343 3.13c-.722 1.58-1.668 3.113-1.612 4.826.025.777-.118 1.616-.74 2.082a4.56 4.56 0 0 1-1.319.715 5.003 5.003 0 0 1-3.093.004c-.633-.205-1.176-.569-1.734-1.042-.55-.466-1.179-1.095-1.96-1.876l-1.22-1.218c-.78-.778-1.407-1.405-1.873-1.953-.472-.556-.836-1.097-1.041-1.728a5 5 0 0 1-.004-3.087c.204-.632.566-1.174 1.038-1.732.464-.548 1.09-1.177 1.868-1.958l5.615-5.636-.624-.617a1.379 1.379 0 0 0-1.94.008A1 1 0 0 1 8.29 3.004Z"/><path d="M20.608 17.784a.998.998 0 0 1 1.784 0l1.596 3.19c.924 1.85-.42 4.026-2.488 4.026-2.067 0-3.412-2.176-2.488-4.025l1.596-3.192Z"/></svg>