<svg width="28" height="28" viewBox="0 0 28 28" fill="none" xmlns="http://www.w3.org/2000/svg">
<path d="M5.54749 3.925C4.81242 4.90509 4.87513 5.4068 5.3947 7.48507C5.65023 8.50717 6.06921 9.75327 6.65233 11.2373L6.81013 11.6347L6.90092 11.8468C7.28223 12.6844 7.879 13.3872 8.61403 13.8947L8.77299 13.999L8.61394 14.1042C7.81827 14.6533 7.18479 15.4309 6.81266 16.3586C6.14515 18.0226 5.67284 19.4024 5.3947 20.5149L5.27782 20.9897C4.90301 22.5466 4.89396 23.0459 5.43661 23.9133C6.03016 24.8622 7.00637 25.1263 7.9751 24.9507C8.37407 24.8784 8.78416 24.7326 9.28321 24.5035L9.7187 24.2942L10.4018 23.9398C13.1079 22.5053 20.2313 18.4956 22.3643 17.2154L23.2683 16.6658C23.5621 16.4819 23.7438 16.3577 23.9412 16.2096C24.7298 15.618 25.2092 15.0069 25.21 14.0018C25.2108 12.9955 24.7312 12.3831 23.9422 11.7908L23.7951 11.6828C23.5234 11.4883 23.2208 11.2994 22.5554 10.8988L21.9895 10.5609C19.1818 8.9027 11.5312 4.61202 9.72942 3.71115C9.08416 3.38852 8.59213 3.18666 8.1322 3.08154C7.174 2.86252 6.21833 3.03055 5.54749 3.925ZM7.33499 7L7.21838 6.51878C6.86121 4.9751 6.99714 4.60817 8.66842 5.41796L8.83499 5.5C10.835 6.5 19.21 11.2227 21.335 12.4987L22.1381 12.9864C23.5673 13.8784 23.5673 14.1215 22.1381 15.0131L21.335 15.5005C19.3754 16.6767 11.2453 21.2683 8.99273 22.4202L8.66842 22.582L8.35519 22.7279C6.83881 23.4011 6.87871 22.8251 7.33499 21C7.58783 19.9886 8.03246 18.6897 8.66888 17.1032C9.03923 16.1799 9.84096 15.5045 10.8039 15.2912L10.9986 15.2547L11.9724 15.1014C14.8808 14.6303 16.335 14.2632 16.335 14C16.335 13.709 14.5561 13.2905 10.9982 12.7447C10.0152 12.5939 9.17528 11.9668 8.74864 11.0777L8.6689 10.8965L8.51378 10.5059C7.95969 9.09573 7.56676 7.9271 7.33499 7Z" fill="currentColor"/>
</svg>
