<svg xmlns="http://www.w3.org/2000/svg" width="28" height="28" fill="none" viewBox="0 0 28 28">
  <path fill="#fff" d="M28 14c0 7.732-6.268 14-14 14S0 21.732 0 14 6.268 0 14 0s14 6.268 14 14Z"/>
  <path fill="#000" d="M10 9.8c0-.28 0-.42.055-.527a.5.5 0 0 1 .218-.218C10.38 9 10.52 9 10.8 9h1.4c.28 0 .42 0 .527.055a.5.5 0 0 1 .218.218C13 9.38 13 9.52 13 9.8v8.4c0 .28 0 .42-.055.527a.5.5 0 0 1-.218.218C12.62 19 12.48 19 12.2 19h-1.4c-.28 0-.42 0-.527-.055a.5.5 0 0 1-.218-.218C10 18.62 10 18.48 10 18.2V9.8ZM15 9.8c0-.28 0-.42.055-.527a.5.5 0 0 1 .218-.218C15.38 9 15.52 9 15.8 9h1.4c.28 0 .42 0 .527.055a.5.5 0 0 1 .218.218C18 9.38 18 9.52 18 9.8v8.4c0 .28 0 .42-.055.527a.5.5 0 0 1-.218.218C17.62 19 17.48 19 17.2 19h-1.4c-.28 0-.42 0-.527-.055a.5.5 0 0 1-.218-.218C15 18.62 15 18.48 15 18.2V9.8Z"/>
</svg>
