<svg xmlns="http://www.w3.org/2000/svg" width="28" height="28" fill="currentColor" viewBox="0 0 28 28"><path fill-rule="evenodd" d="M7.376 6.033a.403.403 0 0 0-.137.05.364.364 0 0 0-.157.156.403.403 0 0 0-.049.137A3.07 3.07 0 0 0 7 6.923v14.154c0 .308.017.463.033.547a.4.4 0 0 0 .05.137c.037.07.086.12.156.157a.412.412 0 0 0 .137.049c.084.016.24.033.547.033h2.154c.308 0 .463-.017.547-.033a.401.401 0 0 0 .137-.05.363.363 0 0 0 .157-.156.401.401 0 0 0 .049-.137c.016-.084.033-.24.033-.547V6.923c0-.308-.017-.463-.033-.547a.402.402 0 0 0-.05-.137.363.363 0 0 0-.156-.157.402.402 0 0 0-.137-.049A3.07 3.07 0 0 0 10.077 6H7.923a3.07 3.07 0 0 0-.547.033Zm-1.08-1.714C6.744 4.079 7.173 4 7.923 4h2.154c.75 0 1.179.079 1.627.319.419.223.753.558.977.977.24.448.319.877.319 1.627v14.154c0 .75-.079 1.179-.319 1.627a2.364 2.364 0 0 1-.977.977c-.448.24-.877.319-1.627.319H7.923c-.75 0-1.179-.079-1.627-.319a2.363 2.363 0 0 1-.977-.977c-.24-.448-.319-.877-.319-1.627V6.923c0-.75.079-1.179.319-1.627.223-.419.558-.754.977-.977Zm11.08 1.714a.402.402 0 0 0-.137.05.363.363 0 0 0-.157.156.402.402 0 0 0-.049.137c-.016.084-.033.24-.033.547v14.154c0 .308.017.463.033.547a.4.4 0 0 0 .05.137c.037.07.086.12.156.157a.401.401 0 0 0 .137.049c.084.016.24.033.547.033h2.154c.308 0 .463-.017.547-.033a.401.401 0 0 0 .137-.05.363.363 0 0 0 .157-.156.401.401 0 0 0 .049-.137c.016-.084.033-.24.033-.547V6.923c0-.308-.017-.463-.033-.547a.402.402 0 0 0-.05-.137.363.363 0 0 0-.156-.157.402.402 0 0 0-.137-.049A3.07 3.07 0 0 0 20.077 6h-2.154a3.07 3.07 0 0 0-.547.033Zm-1.08-1.714c.448-.24.877-.319 1.627-.319h2.154c.75 0 1.179.079 1.627.319.419.223.753.558.977.977.24.448.319.877.319 1.627v14.154c0 .75-.079 1.179-.319 1.627a2.364 2.364 0 0 1-.977.977c-.448.24-.877.319-1.627.319h-2.154c-.75 0-1.179-.079-1.627-.319a2.364 2.364 0 0 1-.977-.977c-.24-.448-.319-.877-.319-1.627V6.923c0-.75.079-1.179.319-1.627.223-.419.558-.754.977-.977Z" clip-rule="evenodd"/></svg>
