<svg xmlns="http://www.w3.org/2000/svg" width="28" height="28" fill="currentColor" viewBox="0 0 28 28"><path fill-rule="evenodd" d="M16 4h-4v20h4c1.433 0 2.388-.002 3.121-.061.71-.058 1.035-.161 1.241-.266a3 3 0 0 0 1.311-1.311c.105-.206.208-.53.266-1.24.06-.734.061-1.689.061-3.122v-8c0-1.433-.002-2.388-.061-3.121-.058-.71-.161-1.035-.266-1.241a3 3 0 0 0-1.311-1.311c-.206-.105-.53-.208-1.24-.266C18.387 4.001 17.432 4 16 4Zm-6 19.989V4.01c-.431.009-.798.024-1.121.05-.71.058-1.035.161-1.241.266a3 3 0 0 0-1.311 1.311c-.105.206-.208.53-.266 1.24C6.001 7.613 6 8.568 6 10v8c0 1.433.002 2.388.061 3.121.058.71.161 1.035.266 1.241a3 3 0 0 0 1.311 1.311c.206.105.53.208 1.24.266.324.026.69.041 1.122.05ZM4.545 4.73C4 5.8 4 7.2 4 10v8c0 2.8 0 4.2.545 5.27a5 5 0 0 0 2.185 2.185C7.8 26 9.2 26 12 26h4c2.8 0 4.2 0 5.27-.545a5 5 0 0 0 2.185-2.185C24 22.2 24 20.8 24 18v-8c0-2.8 0-4.2-.545-5.27a5 5 0 0 0-2.185-2.185C20.2 2 18.8 2 16 2h-4c-2.8 0-4.2 0-5.27.545A5 5 0 0 0 4.545 4.73Zm15.321 16.758c.088-.162.134-.33.134-.743v-.49c0-.413-.046-.58-.134-.743a.908.908 0 0 0-.378-.378c-.162-.088-.33-.134-.743-.134h-.49c-.413 0-.58.046-.743.134a.908.908 0 0 0-.378.378c-.088.162-.134.33-.134.743v.49c0 .413.046.58.134.743a.906.906 0 0 0 .378.378c.162.088.33.134.743.134h.49c.413 0 .58-.046.743-.134a.908.908 0 0 0 .378-.378Z" clip-rule="evenodd"/></svg>
