<svg xmlns="http://www.w3.org/2000/svg" width="28" height="28" fill="currentColor" viewBox="0 0 28 28"><path d="M21 15a6 6 0 1 1 0 12 6 6 0 0 1 0-12Zm0 2a1 1 0 0 0-.993.883L20 18v2h-2a1 1 0 0 0-.117 1.993L18 22h2v2a1 1 0 0 0 1.993.117L22 24v-2h2a1 1 0 0 0 .117-1.993L24 20h-2v-2a1 1 0 0 0-1-1Zm-14 .5c0-.466 0-.699.076-.883a1 1 0 0 1 .541-.54C7.801 16 8.034 16 8.5 16s.699 0 .883.076a1 1 0 0 1 .54.541c.077.184.077.417.077.883s0 .699-.076.883a1 1 0 0 1-.541.54C9.199 19 8.966 19 8.5 19s-.699 0-.883-.076a1 1 0 0 1-.54-.541C7 18.199 7 17.966 7 17.5Z"/><path fill-rule="evenodd" d="M18.643 4H9.357C8.273 4 7.4 4 6.691 4.058c-.728.06-1.369.185-1.96.487A5 5 0 0 0 2.544 6.73c-.302.592-.428 1.233-.487 1.961C2 9.4 2 10.273 2 11.357v5.286c0 1.084 0 1.958.058 2.666.06.729.185 1.369.487 1.961a5 5 0 0 0 2.185 2.185c.592.302 1.233.428 1.961.487C7.4 24 8.273 24 9.357 24H12a1 1 0 1 0 0-2H9.4c-1.137 0-1.929 0-2.546-.051-.605-.05-.953-.142-1.216-.276a3 3 0 0 1-1.311-1.311c-.134-.263-.226-.611-.276-1.216C4.001 18.529 4 17.736 4 16.6V13h20a1 1 0 0 0 2 0l-.006-3a18.125 18.125 0 0 0-.064-1.443c-.064-.673-.192-1.27-.475-1.827a5 5 0 0 0-2.185-2.185c-.592-.302-1.232-.428-1.961-.487C20.6 4 19.727 4 18.643 4Zm5.351 6a15.921 15.921 0 0 0-.055-1.253c-.05-.54-.14-.862-.266-1.109a3 3 0 0 0-1.311-1.311c-.263-.134-.611-.226-1.216-.276C20.529 6.001 19.736 6 18.6 6H9.4c-1.137 0-1.929 0-2.546.051-.605.05-.953.142-1.216.276a3 3 0 0 0-1.311 1.311c-.134.263-.226.611-.276 1.216-.026.325-.04.699-.045 1.146h19.988Z" clip-rule="evenodd"/></svg>
