<svg fill="none" height="28" viewBox="0 0 28 28" width="28" xmlns="http://www.w3.org/2000/svg"><g fill="currentColor"><path d="m18 3c1.0544 0 1.9182.81588 1.9945 1.85074l.0055.14926h-12c0-1.10457.89543-2 2-2z"/><path d="m15.6873 13.8126c.4282.4281.4282 1.1223 0 1.5505l-2.881 2.881c-.6644.6645-1.454 1.1905-2.3231 1.5479l-.4329.1779c-.20366.0838-.43662-.0134-.52035-.2171-.03993-.0971-.03993-.2061 0-.3032l.17799-.4329c.35726-.8691.88336-1.6587 1.54786-2.3231l2.881-2.881c.4282-.4282 1.1224-.4282 1.5505 0z"/><path d="m17.3038 11c.6606 0 1.1961.5355 1.1961 1.1961 0 .6605-.5355 1.196-1.1961 1.196-.6605 0-1.196-.5355-1.196-1.196 0-.6606.5355-1.1961 1.196-1.1961z"/><path clip-rule="evenodd" d="m3 13.4c0-2.2402 0-3.3603.43597-4.21596.3835-.75265.99542-1.36457 1.74807-1.74807.85565-.43597 1.97575-.43597 4.21596-.43597h9.2c2.2402 0 3.3603 0 4.216.43597.7526.3835 1.3645.99542 1.748 1.74807.436.85566.436 1.97576.436 4.21596v4.2c0 2.2402 0 3.3603-.436 4.216-.3835.7526-.9954 1.3645-1.748 1.748-.8557.436-1.9758.436-4.216.436h-9.2c-2.24021 0-3.36031 0-4.21596-.436-.75265-.3835-1.36457-.9954-1.74807-1.748-.43597-.8557-.43597-1.9758-.43597-4.216zm6.4-4.4h9.2c1.1531 0 1.8977.00156 2.4643.04785.5434.0444.7448.11975.8437.17014.3763.19174.6823.4977.874.87401.0504.0989.1258.3003.1701.8437.0463.5666.0479 1.3112.0479 2.4643v4.2c0 1.1531-.0016 1.8977-.0479 2.4643-.0443.5434-.1197.7448-.1701.8437-.1917.3763-.4977.6823-.874.874-.0989.0504-.3003.1258-.8437.1701-.5666.0463-1.3112.0479-2.4643.0479h-9.2c-1.15311 0-1.89765-.0016-2.46433-.0479-.54332-.0443-.74476-.1197-.84365-.1701-.37633-.1917-.68229-.4977-.87403-.874-.05039-.0989-.12574-.3003-.17014-.8437-.04629-.5666-.04785-1.3112-.04785-2.4643v-4.2c0-1.1531.00156-1.8977.04785-2.4643.0444-.5434.11975-.7448.17014-.8437.19174-.37631.4977-.68227.87403-.87401.09889-.05039.30033-.12574.84365-.17014.56668-.04629 1.31122-.04785 2.46433-.04785z" fill-rule="evenodd"/></g></svg>
