<svg xmlns="http://www.w3.org/2000/svg" width="28" height="28" fill="currentColor" viewBox="0 0 28 28"><path d="m23.095 7.529-2.62-2.62-8.943 8.944a4 4 0 0 0-1.089 2.02l-.378 1.83a.2.2 0 0 0 .237.236l1.828-.377a4 4 0 0 0 2.021-1.089l8.944-8.944Zm.971-4.089a1.499 1.499 0 0 0-2.12 0l-.53.529 2.62 2.619.527-.527a1.503 1.503 0 0 0 0-2.122l-.497-.498Z"/><path d="M9.759 5c-.805 0-1.47 0-2.01.044-.563.046-1.08.145-1.565.392a4 4 0 0 0-1.748 1.748c-.247.485-.346 1.002-.392 1.564C4 9.29 4 9.954 4 10.758v7.483c0 .805 0 1.47.044 2.01.046.563.145 1.08.392 1.565a4 4 0 0 0 1.748 1.748c.485.247 1.002.346 1.564.392C8.29 24 8.954 24 9.758 24h7.483c.805 0 1.47 0 2.01-.044.563-.046 1.08-.145 1.565-.392a4 4 0 0 0 1.748-1.748c.247-.485.346-1.002.392-1.564.044-.541.044-1.206.044-2.01V13a1 1 0 1 0-2 0v5.2c0 .857 0 1.439-.038 1.889-.035.438-.1.663-.18.819a2 2 0 0 1-.874.874c-.156.08-.38.145-.819.18-.45.037-1.032.038-1.889.038H9.8c-.857 0-1.439 0-1.889-.038-.438-.035-.663-.1-.819-.18a2 2 0 0 1-.874-.874c-.08-.156-.145-.38-.18-.82C6 19.639 6 19.057 6 18.2v-7.4c0-.857 0-1.439.038-1.889.035-.438.1-.663.18-.819a2 2 0 0 1 .874-.874c.156-.08.38-.145.819-.18C8.361 7 8.943 7 9.8 7H15a1 1 0 1 0 0-2H9.759Z"/></svg>
