<svg xmlns="http://www.w3.org/2000/svg" width="28" height="28" fill="currentColor" viewBox="0 0 28 28"><path d="M16.346 17.621c1.505-1.505 3.874-1.643 5.449-.32l1.138.96c1.299 1.093 1.43 3.063.293 4.4a3.687 3.687 0 0 1-2.44 1.259c-3.636.49-7.451-1.263-11.447-5.259C5.344 14.665 3.59 10.85 4.08 7.213c.026-.284.085-.565.176-.835A3.688 3.688 0 0 1 5.34 4.774c1.338-1.137 3.307-1.006 4.4.294l.957 1.138c1.327 1.573 1.19 3.943-.315 5.448l-.817.815a.792.792 0 0 0-.183.833c.297.812 1.056 1.827 2.273 3.044 1.219 1.219 2.233 1.976 3.045 2.275.29.106.614.034.832-.184l.815-.816Z"/></svg>
