<svg xmlns="http://www.w3.org/2000/svg" width="28" height="28" fill="none" viewBox="0 0 28 28">
  <path fill="currentColor" fill-rule="evenodd" d="M14.657 15.89a12.19 12.19 0 0 1-1.35-1.192c-.523-.524-.92-.981-1.146-1.395 2.08-2.08 2.272-5.386.4-7.607l-.86-1.023c-1.706-2.03-4.747-2.232-6.784-.5a5.33 5.33 0 0 0-1.572 2.322 5.26 5.26 0 0 0-.257 1.219c-.526 3.892 1.314 7.898 5.31 11.895 3.995 3.998 7.999 5.837 11.98 5.3 1.285-.12 2.545-.771 3.44-1.807 1.743-2.047 1.54-5.09-.489-6.798l-1.023-.862c-2.223-1.87-5.526-1.676-7.649.447Zm.725 2.103.734-.734c1.354-1.354 3.485-1.48 4.902-.287l1.024.863c1.169.983 1.287 2.757.263 3.96a3.317 3.317 0 0 1-2.194 1.133c-3.272.44-6.705-1.137-10.3-4.733C6.216 14.6 4.64 11.165 5.08 7.892a3.25 3.25 0 0 1 .158-.752c.19-.56.527-1.058.974-1.443 1.204-1.024 2.975-.906 3.959.264l.862 1.024c1.193 1.416 1.069 3.55-.285 4.903l-.735.735a.713.713 0 0 0-.164.748c.267.732.95 1.645 2.045 2.74 1.096 1.098 2.01 1.78 2.74 2.048.26.095.552.03.748-.166Z" clip-rule="evenodd"/>
  <path fill="#A3ADB8" fill-rule="evenodd" d="M20 4a1 1 0 1 1 2 0v7a1 1 0 1 1-2 0V4Zm-3 2a1 1 0 1 1 2 0v3a1 1 0 1 1-2 0V6Zm7-1a1 1 0 0 0-1 1v3a1 1 0 1 0 2 0V6a1 1 0 0 0-1-1Z" clip-rule="evenodd"/>
</svg>
