<svg xmlns="http://www.w3.org/2000/svg" width="28" height="28" fill="currentColor" viewBox="0 0 28 28"><path fill-rule="evenodd" d="M24.707 3.293a1 1 0 0 1 0 1.414l-2.288 2.288 2.288 2.288a1 1 0 0 1-1.414 1.415l-2.288-2.289-2.289 2.289a1 1 0 0 1-1.414-1.415l2.288-2.288-2.288-2.288a1 1 0 0 1 1.415-1.414l2.288 2.288 2.288-2.288a1 1 0 0 1 1.414 0Zm-11.4 11.405c.525.524.981.92 1.35 1.191 2.123-2.123 5.426-2.317 7.65-.447l1.023.862c2.028 1.708 2.231 4.751.488 6.798-.895 1.036-2.155 1.687-3.44 1.808-3.981.536-7.985-1.303-11.98-5.3-3.996-3.998-5.836-8.004-5.31-11.896a5.26 5.26 0 0 1 .257-1.22 5.33 5.33 0 0 1 1.572-2.321c2.037-1.732 5.078-1.53 6.784.5l.86 1.023c1.872 2.22 1.68 5.527-.4 7.607.226.414.623.87 1.147 1.395Zm2.809 2.561-.734.734a.712.712 0 0 1-.749.166c-.73-.269-1.643-.95-2.739-2.047-1.095-1.096-1.778-2.01-2.045-2.74a.713.713 0 0 1 .164-.75l.735-.734c1.354-1.354 1.478-3.487.285-4.903l-.862-1.024c-.984-1.17-2.755-1.288-3.959-.264a3.319 3.319 0 0 0-.974 1.443 3.25 3.25 0 0 0-.158.752c-.441 3.272 1.136 6.707 4.731 10.303 3.595 3.596 7.028 5.174 10.3 4.733a3.317 3.317 0 0 0 2.194-1.134c1.024-1.202.906-2.976-.263-3.96l-1.024-.862c-1.417-1.192-3.548-1.067-4.902.287Z" clip-rule="evenodd"/></svg>
