<svg xmlns="http://www.w3.org/2000/svg" width="28" height="28" fill="currentColor" viewBox="0 0 28 28"><path d="M10.2 14.749V13.71c0-.278.16-.53.412-.647.706-.326 1.833-.49 3.384-.49 1.55.001 2.678.164 3.384.492a.713.713 0 0 1 .413.646v1.039c0 1.915 1.42 3.51 3.266 3.668l1.333.115c1.523.132 2.86-1.038 2.986-2.612a3.32 3.32 0 0 0-.331-1.71 3.256 3.256 0 0 0-.42-.644c-2.002-2.625-5.546-3.938-10.631-3.94-5.085 0-8.628 1.312-10.63 3.937a3.317 3.317 0 0 0-.75 2.353c.126 1.575 1.464 2.745 2.986 2.614l1.335-.114c1.844-.16 3.263-1.754 3.263-3.67Zm3.796-.175c-.74 0-1.344.042-1.797.112.001 3.002-2.198 5.475-5.092 5.725l-1.333.114C3.132 20.75.837 18.743.622 16.063c-.1-1.365.33-2.716 1.154-3.71 2.436-3.195 6.567-4.725 12.22-4.724 5.652.001 9.785 1.533 12.165 4.657.267.319.494.668.68 1.044a5.33 5.33 0 0 1 .53 2.754c-.215 2.665-2.508 4.671-5.15 4.442l-1.331-.115c-2.894-.246-5.096-2.72-5.097-5.662-.452-.132-1.056-.175-1.797-.175Z"/></svg>