<svg xmlns="http://www.w3.org/2000/svg" width="28" height="28" fill="currentColor" viewBox="0 0 28 28"><path d="M15.574 3.13a1 1 0 0 1 1-1 9.283 9.283 0 0 1 9.283 9.283 1 1 0 1 1-2 0 7.283 7.283 0 0 0-7.283-7.283 1 1 0 0 1-1-1Z"/><path fill-rule="evenodd" d="M13.31 14.698c.525.524.981.92 1.35 1.191 2.124-2.123 5.428-2.316 7.652-.447l1.023.863c2.03 1.707 2.232 4.75.49 6.797-.896 1.036-2.156 1.687-3.442 1.808-3.982.536-7.987-1.303-11.984-5.3-3.997-3.998-5.837-8.004-5.31-11.896.036-.414.122-.822.257-1.22a5.33 5.33 0 0 1 1.572-2.321c2.037-1.732 5.079-1.53 6.785.5l.86 1.023c1.873 2.22 1.681 5.527-.4 7.608.227.413.624.87 1.148 1.394Zm2.81 2.561-.734.734a.712.712 0 0 1-.75.166c-.73-.269-1.643-.95-2.74-2.047-1.095-1.096-1.778-2.01-2.045-2.74a.712.712 0 0 1 .164-.75l.736-.733c1.354-1.355 1.478-3.488.284-4.903l-.862-1.025c-.984-1.17-2.756-1.288-3.96-.264A3.319 3.319 0 0 0 5.24 7.14a3.25 3.25 0 0 0-.159.752c-.44 3.272 1.137 6.707 4.733 10.303 3.596 3.597 7.03 5.174 10.303 4.733a3.318 3.318 0 0 0 2.195-1.134c1.024-1.202.905-2.976-.264-3.96l-1.024-.862c-1.417-1.192-3.55-1.067-4.903.287Z" clip-rule="evenodd"/><path d="M19.6 10.895c.609-.068 1.018-.668.728-1.207a5.01 5.01 0 0 0-2.031-2.028c-.539-.29-1.139.12-1.207.727l-.176 1.58a1 1 0 0 0 1.105 1.105l1.582-.177Z"/></svg>
