<svg fill="none" height="28" viewBox="0 0 28 28" width="28" xmlns="http://www.w3.org/2000/svg" xmlns:xlink="http://www.w3.org/1999/xlink"><linearGradient id="a" gradientUnits="userSpaceOnUse" x1="-14" x2="14" y1="14" y2="42"><stop offset="0" stop-color="#50c750"/><stop offset="1" stop-color="#32b332"/></linearGradient><path d="m0 14c0-7.73199 6.26801-14 14-14 7.732 0 14 6.26801 14 14 0 7.732-6.268 14-14 14-7.73199 0-14-6.268-14-14z" fill="url(#a)"/><path d="m15.6424 16.5348c1.0533-1.0534 2.7113-1.1505 3.8139-.2235l.7967.6711c.9091.7652 1.0016 2.1445.2049 3.0799-.4345.5027-1.046.8184-1.7074.8815-2.5456.3429-5.2161-.8838-8.013-3.6809-2.79684-2.7971-4.02422-5.4685-3.68135-8.01364.01782-.19914.0592-.39546.12328-.58484.14826-.43506.41-.82264.75815-1.12269.93614-.79597 2.31452-.70428 3.07962.20574l.6703.79674c.9285 1.10111.8321 2.76009-.2211 3.81339l-.5717.571c-.1524.1527-.2023.38-.1279.5825.208.5687.7389 1.2791 1.591 2.1314.853.853 1.5634 1.3831 2.1312 1.5919.2026.0743.43.024.5825-.1287z" fill="#fff"/></svg>
