<?xml version="1.0" encoding="UTF-8"?>
<svg width="28px" height="28px" viewBox="0 0 28 28" version="1.1" xmlns="http://www.w3.org/2000/svg" xmlns:xlink="http://www.w3.org/1999/xlink">
    <!-- Generator: Sketch 63.1 (92452) - https://sketch.com -->
    <title>phone_outline_28</title>
    <desc>Created with Sketch.</desc>
    <g id="Page-1" stroke="none" stroke-width="1" fill="none" fill-rule="evenodd">
        <g id="phone_outline_28" fill-rule="nonzero">
            <rect x="0" y="0" width="28" height="28"></rect>
            <path d="M16.1116687,17.2589801 L15.3776188,17.9930892 C15.181519,18.1894216 14.8892589,18.2539869 14.6287096,18.1585362 C13.8986222,17.8900564 12.98527,17.2084544 11.888653,16.1117488 C10.7930266,15.016034 10.110489,14.1026081 9.84302141,13.371471 C9.7473276,13.1110902 9.81149496,12.8188346 10.0074644,12.6225014 L10.7425049,11.8883923 C12.0966833,10.5341046 12.2205109,8.40112627 11.026813,6.98541515 L10.1649731,5.96103076 C9.18128684,4.79101338 7.40906656,4.67312001 6.20546251,5.6965137 C5.75783325,6.08229177 5.42132006,6.58060406 5.23069182,7.13996444 C5.14830523,7.38345969 5.09510018,7.63587153 5.07219252,7.89190617 C4.63136635,11.1641902 6.20942499,14.5989491 9.80537783,18.1951921 C13.4013307,21.7914352 16.8348217,23.3686305 20.1078322,22.9277688 C20.9581497,22.8466008 21.7444269,22.440656 22.3030475,21.7944073 C23.3273492,20.5916968 23.2084748,18.8183428 22.0395424,17.8345771 L21.0152407,16.9716769 C19.5976626,15.7798641 17.4658471,15.9046924 16.1116687,17.2589801 Z M13.3029236,14.6975923 C13.8267415,15.2214525 14.283545,15.6187725 14.6528261,15.8893992 C16.7760904,13.7659635 20.0799559,13.5724238 22.3038008,15.4420976 L23.3273556,16.3043689 C25.3565946,18.0121629 25.5595585,21.0552903 23.816118,23.1023132 C22.92084,24.138029 21.6606852,24.7886307 20.3748134,24.909869 C16.3927261,25.4462406 12.3881061,23.6066701 8.3911072,19.6093486 C4.39401108,15.6119299 2.55376082,11.6061521 3.08014982,7.71367631 C3.11715562,7.30006929 3.20310499,6.89231403 3.33760654,6.494807 C3.64310743,5.59837582 4.18240888,4.79977254 4.90992297,4.17284139 C6.94718817,2.44060698 9.98873474,2.64353331 11.6953839,4.6734583 L12.5558263,5.69618337 C14.4279661,7.91651843 14.2361671,11.2229894 12.1558217,13.3035021 C12.3817606,13.716898 12.7789009,14.1735273 13.3029236,14.6975923 Z" id="↳-Icon-Color" fill="currentColor"></path>
        </g>
    </g>
</svg>
