<svg xmlns="http://www.w3.org/2000/svg" width="28" height="28" fill="currentColor" viewBox="0 0 28 28"><path d="M4 10.956v4.088c0 1.363 0 2.447.071 3.321.074.896.227 1.66.583 2.359a6 6 0 0 0 2.622 2.622c.7.356 1.463.51 2.359.583.874.071 1.958.071 3.322.071H14a1 1 0 1 0 0-2h-1c-1.416 0-2.419 0-3.202-.065-.772-.063-1.244-.182-1.614-.371a4 4 0 0 1-1.748-1.748c-.189-.37-.308-.841-.371-1.613C6 17.419 6 16.417 6 15v-4c0-1.417 0-2.419.065-3.203.063-.771.182-1.243.371-1.613a4 4 0 0 1 1.748-1.748c.37-.189.842-.308 1.613-.371C10.581 4 11.583 4 13 4c1.417 0 2.419 0 3.203.065.771.063 1.243.182 1.613.371a4 4 0 0 1 1.748 1.748c.189.37.308.842.371 1.613C20 8.581 20 9.583 20 11v1a1 1 0 1 0 2 0v-1.044c0-1.363 0-2.447-.071-3.321-.074-.896-.227-1.66-.583-2.359a6 6 0 0 0-2.622-2.622c-.7-.356-1.463-.51-2.359-.583C15.491 2 14.407 2 13.044 2h-.088c-1.363 0-2.447 0-3.321.071-.896.074-1.66.227-2.359.583a6 6 0 0 0-2.622 2.622c-.356.7-.51 1.463-.583 2.359C4 8.509 4 9.593 4 10.956Z M9.293 7.293a1 1 0 0 0 0 1.414L12.586 12H11a1 1 0 1 0 0 2h3.691c.044 0 .125 0 .202-.006a1.2 1.2 0 0 0 1.101-1.101c.006-.077.006-.158.006-.202V9a1 1 0 1 0-2 0v1.586l-3.293-3.293a1 1 0 0 0-1.414 0ZM20.2 15c-1.12 0-1.68 0-2.108.218a2 2 0 0 0-.874.874C17 16.52 17 17.08 17 18.2v4.6c0 1.12 0 1.68.218 2.108a2 2 0 0 0 .874.874C18.52 26 19.08 26 20.2 26h.6c1.12 0 1.68 0 2.108-.218a2 2 0 0 0 .874-.874C24 24.48 24 23.92 24 22.8v-4.6c0-1.12 0-1.68-.218-2.108a2 2 0 0 0-.874-.874C22.48 15 21.92 15 20.8 15h-.6Z"/></svg>
