<svg xmlns="http://www.w3.org/2000/svg" width="28" height="28" fill="currentColor" viewBox="0 0 28 28"><path d="M12 10.5a1.5 1.5 0 1 1-3 0 1.5 1.5 0 0 1 3 0Z M6.07 3.801C7.164 3.216 8.243 3 10.691 3h6.616c2.448 0 3.527.216 4.622.801A5.465 5.465 0 0 1 24.2 6.07c.585 1.096.801 2.175.801 4.623v6.616c0 2.448-.216 3.527-.801 4.622a5.465 5.465 0 0 1-2.27 2.269c-1.095.585-2.174.801-4.622.801h-6.616c-2.448 0-3.527-.216-4.623-.801a5.465 5.465 0 0 1-2.268-2.269C3.216 20.835 3 19.756 3 17.308v-6.616c0-2.448.216-3.527.801-4.623A5.466 5.466 0 0 1 6.07 3.801ZM10.691 5c-2.335 0-3.019.212-3.68.565a3.466 3.466 0 0 0-1.447 1.448C5.212 7.673 5 8.357 5 10.692v6.616c0 1.67.108 2.495.3 3.071L8 17.677c.37-.37.69-.69.975-.932.301-.255.628-.482 1.03-.613a3 3 0 0 1 1.845-.007c.403.129.731.353 1.034.607.27.226.57.52.916.861l2.93-2.91c.373-.37.695-.69.982-.932.302-.255.63-.481 1.034-.611a3 3 0 0 1 1.85.003c.403.131.73.359 1.032.615.285.242.606.563.978.935l.393.393v-4.394c0-2.335-.212-3.019-.565-3.68a3.466 3.466 0 0 0-1.448-1.447C20.327 5.212 19.643 5 17.308 5h-6.616Zm12.303 12.909-1.775-1.775c-.407-.407-.67-.668-.886-.852-.207-.176-.304-.22-.357-.237a1 1 0 0 0-.617-.001c-.053.017-.15.06-.358.236-.217.183-.48.444-.888.849l-3.605 3.58a1 1 0 0 1-1.407.003l-.613-.604a16.794 16.794 0 0 0-.888-.843c-.208-.174-.306-.218-.358-.235a1 1 0 0 0-.616.002c-.052.018-.15.062-.356.237-.215.183-.477.444-.883.85l-2.94 2.941c.174.14.363.265.567.374.66.353 1.344.565 3.679.565h6.616c2.335 0 3.019-.212 3.68-.565a3.467 3.467 0 0 0 1.447-1.448c.321-.6.525-1.219.56-3.078Z" clip-rule="evenodd"/></svg>
