<svg xmlns="http://www.w3.org/2000/svg" width="28" height="28" fill="none" viewBox="0 0 28 28">
  <circle cx="14" cy="14" r="14" fill="url(#a)"/>
  <path fill="#fff" fill-rule="evenodd" d="M7.254 8.274C7 8.774 7 9.427 7 10.734v6.533c0 1.306 0 1.96.254 2.459.224.439.581.796 1.02 1.02.5.254 1.153.254 2.46.254h6.533c1.306 0 1.96 0 2.459-.254.439-.224.796-.581 1.02-1.02.254-.5.254-1.152.254-2.46v-6.533c0-1.306 0-1.96-.254-2.459a2.334 2.334 0 0 0-1.02-1.02C19.226 7 18.574 7 17.266 7h-6.533c-1.306 0-1.96 0-2.459.254-.439.224-.796.581-1.02 1.02Zm7.57 5.888-1.931 2.42-.889-1.243a.416.416 0 0 0-.675 0L9.41 18.021a.409.409 0 0 0 .338.646h8.487c.357 0 .559-.39.343-.66l-3.069-3.845a.443.443 0 0 0-.685 0Z" clip-rule="evenodd"/>
  <defs>
    <linearGradient id="a" x1="0" x2="28" y1="0" y2="28" gradientUnits="userSpaceOnUse">
      <stop stop-color="#FFC44D"/>
      <stop offset="1" stop-color="#F07300"/>
    </linearGradient>
  </defs>
</svg>
