<svg xmlns="http://www.w3.org/2000/svg" width="28" height="28" fill="currentColor" viewBox="0 0 28 28"><path fill-rule="evenodd" d="M10.692 3c-2.448 0-3.527.216-4.623.801A5.466 5.466 0 0 0 3.801 6.07C3.216 7.165 3 8.244 3 10.692v6.616c0 2.448.216 3.527.801 4.622A5.465 5.465 0 0 0 6.07 24.2c1.096.585 2.175.801 4.623.801H14.5a1 1 0 1 0 0-2h-3.808c-2.335 0-3.019-.212-3.68-.565a3.59 3.59 0 0 1-.566-.374l2.943-2.943c.405-.405.667-.666.882-.849.206-.175.304-.22.356-.237a1 1 0 0 1 .616-.002c.052.017.15.061.358.235.216.181.48.44.888.843l.613.604a1 1 0 0 0 1.409-.005l3.5-3.5a1 1 0 1 0-1.414-1.414l-2.798 2.798a16.51 16.51 0 0 0-.914-.86c-.303-.253-.631-.477-1.034-.606a3 3 0 0 0-1.846.007c-.401.131-.728.358-1.029.613-.285.242-.604.562-.975.932l-.027.027L5.3 20.38c-.19-.577-.3-1.402-.3-3.07v-6.617c0-2.335.212-3.019.565-3.68a3.466 3.466 0 0 1 1.448-1.447C7.673 5.212 8.357 5 10.692 5h6.616c2.335 0 3.019.212 3.68.565a3.466 3.466 0 0 1 1.447 1.448c.353.66.565 1.344.565 3.679V14.5a1 1 0 1 0 2 0v-3.808c0-2.448-.216-3.527-.801-4.623a5.465 5.465 0 0 0-2.269-2.268C20.835 3.216 19.756 3 17.308 3h-6.616Zm-.192 9a1.5 1.5 0 1 0 0-3 1.5 1.5 0 0 0 0 3Zm11.493 4.883A1 1 0 0 0 20 17v3h-3l-.117.007A1 1 0 0 0 16 21l.007.117A1 1 0 0 0 17 22h3v3l.007.117A1 1 0 0 0 22 25v-3h3l.117-.007A1 1 0 0 0 26 21l-.007-.117A1 1 0 0 0 25 20h-3v-3l-.007-.117Z" clip-rule="evenodd"/></svg>
