<?xml version="1.0" encoding="UTF-8"?>
<svg width="28px" height="28px" viewBox="0 0 28 28" version="1.1" xmlns="http://www.w3.org/2000/svg" xmlns:xlink="http://www.w3.org/1999/xlink">
    <!-- Generator: Sketch 63.1 (92452) - https://sketch.com -->
    <title>pin_outline_28</title>
    <desc>Created with Sketch.</desc>
    <g id="Page-1" stroke="none" stroke-width="1" fill="none" fill-rule="evenodd">
        <g id="pin_outline_28">
            <rect x="0" y="0" width="28" height="28"></rect>
            <path d="M10.6319896,18.8241161 L4.9751354,24.4809704 C4.03232635,25.4237794 2.61811279,24.0095659 3.56092183,23.0667568 L9.21777608,17.4099026 L4.66777923,12.8599057 C4.13080833,12.3229348 4.13080833,11.452333 4.66777923,10.9153621 C4.89987147,10.6832698 5.20733217,10.5418579 5.53459337,10.516684 L11.0627016,10.0914449 C11.1817057,10.0822907 11.2935096,10.0308682 11.3779068,9.94647103 L14.9070417,6.41733614 C14.9768419,6.34753586 15.0244195,6.25863638 15.0437786,6.16184081 L15.4850399,3.95553429 C15.641677,3.17234903 16.6079644,2.87978073 17.1727274,3.44454365 L24.5973486,10.8691649 C25.1621115,11.4339278 24.8695432,12.4002153 24.0863579,12.5568523 L21.8800514,12.9981136 C21.7832558,13.0174727 21.6943564,13.0650503 21.6245561,13.1348506 L18.0954212,16.6639855 C18.011024,16.7483826 17.9596015,16.8601865 17.9504473,16.9791906 L17.5252082,22.5072989 C17.4669656,23.2644536 16.8059554,23.8310338 16.0488006,23.7727911 C15.7215394,23.7476171 15.4140787,23.6062052 15.1819865,23.374113 L10.6319896,18.8241161 L10.6319896,18.8241161 Z M15.9563384,16.8257976 C16.0021092,16.2307772 16.2592217,15.6717578 16.6812076,15.2497719 L20.2103425,11.720637 C20.5593439,11.3716356 21.0038413,11.1337478 21.4878191,11.0369523 L21.8618939,10.9621373 L17.0797549,6.17999832 L17.00494,6.55407308 C16.9081444,7.0380509 16.6702566,7.48254833 16.3212552,7.8315497 L12.7921203,11.3606846 C12.3701344,11.7826705 11.811115,12.0397831 11.2160946,12.0855539 L7.04287164,12.406571 L15.6353212,20.9990206 L15.9563384,16.8257976 Z" id="↳-Icon-Color" fill="currentColor" fill-rule="nonzero"></path>
        </g>
    </g>
</svg>
