<svg xmlns="http://www.w3.org/2000/svg" width="28" height="28" fill="currentColor" viewBox="0 0 28 28"><path d="m10.632 18.824-5.657 5.657c-.943.943-2.357-.471-1.414-1.414l5.657-5.657-4.55-4.55a1.375 1.375 0 0 1 .867-2.343l5.528-.425a.5.5 0 0 0 .315-.145l3.529-3.53a.5.5 0 0 0 .137-.255l.441-2.206a1 1 0 0 1 1.688-.511l7.424 7.424a1 1 0 0 1-.51 1.688l-2.207.441a.5.5 0 0 0-.255.137l-3.53 3.53a.5.5 0 0 0-.145.314l-.425 5.528a1.375 1.375 0 0 1-2.343.867l-4.55-4.55Zm5.324-1.998a2.5 2.5 0 0 1 .725-1.576l3.53-3.53a2.5 2.5 0 0 1 1.277-.683l.374-.075L17.08 6.18l-.075.374a2.5 2.5 0 0 1-.684 1.278l-3.529 3.529a2.5 2.5 0 0 1-1.576.725l-4.173.32L15.635 21l.321-4.173Z"/><path d="M12 5.5a1.5 1.5 0 1 1-3 0 1.5 1.5 0 0 1 3 0Z"/></svg>
