<svg fill="none" height="28" viewBox="0 0 28 28" width="28" xmlns="http://www.w3.org/2000/svg"><path clip-rule="evenodd" d="m6.51631 21.4873 1.47014 2.272c.67291 1.0399 1.96417 1.4929 3.13925 1.1012 1.2453-.4151 2.0156-1.6614 1.8299-2.9609l-.2301-1.6108c.4168-.2854.8486-.6023 1.29-.9463l2.1991 3.1415c.8533 1.219 2.4708 1.629 3.8017.9636 1.2109-.6054 1.8668-1.9463 1.6013-3.2738l-1.3407-6.7033 1.6726-1.6726c1.1402-1.1402 2.0553-2.41987 2.574-3.63022.257-.59969.4592-1.28063.4786-1.9764.0196-.70157-.1506-1.60836-.866-2.32378-.7155-.71543-1.6222-.88561-2.3238-.86603-.6958.01941-1.3767.22157-1.9764.47858-1.2104.51872-2.49 1.43381-3.6302 2.574l-1.6727 1.67266-6.70319-1.3406c-1.32735-.26546-2.66818.39025-3.27363 1.60094-.6656 1.33094-.25568 2.94865.96342 3.80195l3.14146 2.1991c-.34396.4413-.6609.8732-.94626 1.29l-1.61086-.2301c-1.29947-.1857-2.54576.5845-2.96086 1.8298-.3917 1.1752.06126 2.4664 1.1012 3.1393zm1.15847-1.6326c.10745.0695.16118.1043.20964.1452.04305.0363.08295.0762.11928.1192.04089.0485.07566.1022.14519.2097l1.5167 2.344c.17742.2742.51781.3936.82771.2903.3283-.1094.5314-.438.4824-.7806l-.2596-1.8171c-.0553-.3876-.083-.5814-.0503-.7477.0307-.1566.0847-.2781.1802-.4059.1015-.1358.2793-.2556.6349-.4953.4876-.3288 1.0089-.7133 1.5524-1.1463.5097-.4062.7646-.6092 1.0104-.6547.2231-.0413.4326-.011.6349.0918.2229.1133.401.3678.7573.8768l2.4171 3.453c.2848.4069.8247.5437 1.269.3216.4041-.202.623-.6496.5344-1.0927l-1.3827-6.9132c-.0614-.307-.092-.4605-.0776-.6083.0128-.1308.0512-.2578.1132-.3738.0699-.131.1806-.2417.402-.463l1.824-1.824c2.0127-2.0127 2.9916-4.29692 2.1866-5.10199-.8051-.80507-3.0893.17389-5.102 2.18655l-1.824 1.82404c-.2214.22137-.3321.33205-.4631.40201-.1159.06194-.243.1004-.3738.11319-.1478.01445-.3013-.01625-.6083-.07765l-6.91311-1.38258c-.44303-.0886-.89054.13025-1.09262.53434-.22215.44422-.08534.98414.32155 1.26899l3.45298 2.417c.509.3564.7635.5345.8767.7573.1029.2023.1332.4119.0919.635-.0455.2458-.2486.5007-.6547 1.0104-.433.5434-.81757 1.0648-1.1463 1.5524-.2397.3556-.35955.5334-.49535.6349-.12781.0955-.24931.1495-.40588.1802-.16635.0327-.36013.005-.7477-.0504l-1.81709-.2596c-.3426-.0489-.67119.1542-.78063.4825-.10327.3098.01615.6503.29033.8277z" fill="currentColor" fill-rule="evenodd"/></svg>
