<svg xmlns="http://www.w3.org/2000/svg" width="28" height="28" fill="currentColor" viewBox="0 0 28 28"><path fill-rule="evenodd" d="m21.145 17.602-8.933 5.24-.064.038c-.47.276-.933.547-1.335.736-.41.192-1.06.45-1.831.368a3.33 3.33 0 0 1-2.354-1.376c-.445-.622-.547-1.305-.588-1.757C6 20.407 6 19.866 6 19.314V8.686c0-.552 0-1.093.04-1.537.04-.452.143-1.135.588-1.757a3.33 3.33 0 0 1 2.354-1.376c.772-.083 1.422.176 1.831.368.402.188.866.46 1.335.736l.064.037 8.933 5.24.064.038c.47.275.933.547 1.294.806.371.267.906.703 1.214 1.405a3.374 3.374 0 0 1 0 2.708c-.308.702-.843 1.138-1.214 1.405-.36.259-.824.53-1.294.806l-.064.037Zm.74-4.153c-.177-.402-.702-.71-1.752-1.326L11.2 6.883c-1.05-.617-1.575-.925-2.006-.878a1.33 1.33 0 0 0-.94.55C8 6.913 8 7.529 8 8.76v10.48c0 1.232 0 1.848.255 2.205.222.31.563.51.939.55.43.046.956-.262 2.006-.878l8.933-5.24c1.05-.616 1.576-.924 1.752-1.326a1.38 1.38 0 0 0 0-1.102Z" clip-rule="evenodd"/></svg>
