<svg xmlns="http://www.w3.org/2000/svg" width="28" height="28" fill="none" viewBox="0 0 28 28"><path fill="currentColor" d="M21 7c2.2091 0 4 1.7909 4 4v9c0 2.2091-1.7909 4-4 4H7c-2.2091 0-4-1.7909-4-4v-9c0-2.2091 1.7909-4 4-4h14Zm0 2H7c-1.1046 0-2 .8954-2 2v9c0 1.1046.8954 2 2 2h14c1.1046 0 2-.8954 2-2v-9c0-1.1046-.8954-2-2-2Zm-8.5 3.3204a.4997.4997 0 0 1 .2741.0818l4.0686 2.6669a.5.5 0 0 1-.0115.8437l-4.0686 2.5113A.5.5 0 0 1 12 17.9986v-5.1782a.5.5 0 0 1 .5-.5ZM18 3c1.0544 0 1.9182.8159 1.9945 1.8507L20 5H8c0-1.1046.8954-2 2-2h8Z"/></svg>
