<svg xmlns="http://www.w3.org/2000/svg" width="28" height="28" fill="currentColor" viewBox="0 0 28 28"><path d="M14 2c3.25 0 6.283 1.303 8.5 3.529V4l.007-.117A1 1 0 0 1 24.5 4v4l-.007.117A1 1 0 0 1 23.5 9h-4l-.117-.007A1 1 0 0 1 19.5 7h1.643A9.974 9.974 0 0 0 14 4C8.477 4 4 8.477 4 14s4.477 10 10 10a9.964 9.964 0 0 0 7.072-2.93 1 1 0 1 1 1.415 1.414A11.964 11.964 0 0 1 14 26C7.373 26 2 20.627 2 14S7.373 2 14 2Z"/><path d="m18.108 13.294-5.42-3.186c-.522-.307-1.188.104-1.188.709v6.372c0 .59.652 1.024 1.188.709l5.42-3.186c.518-.305.528-1.108 0-1.418Z"/></svg>