<svg xmlns="http://www.w3.org/2000/svg" width="28" height="28" fill="none" viewBox="0 0 28 28"><g clip-path="url(#a)"><circle cx="14" cy="14" r="14" fill="#07F"/><path fill="#fff" d="M10 17.916v-7.834c0-.942 0-1.413.197-1.679a1 1 0 0 1 .723-.4c.33-.027.729.223 1.528.722l6.265 3.915c.72.45 1.08.675 1.203.962a1 1 0 0 1 0 .788c-.123.288-.483.513-1.203.963l-6.264 3.92c-.8.5-1.2.75-1.529.723a1 1 0 0 1-.723-.4C10 19.33 10 18.859 10 17.916Z"/></g><defs><clipPath id="a"><path fill="#fff" d="M0 0h28v28H0z"/></clipPath></defs></svg>
