<svg fill="none" height="28" viewBox="0 0 28 28" width="28" xmlns="http://www.w3.org/2000/svg" xmlns:xlink="http://www.w3.org/1999/xlink"><linearGradient id="a" gradientUnits="userSpaceOnUse" x1="-14" x2="14" y1="14" y2="42"><stop offset="0" stop-color="#ff5263"/><stop offset="1" stop-color="#ff3347"/></linearGradient><path d="m0 14c0-7.73199 6.26801-14 14-14 7.732 0 14 6.26801 14 14 0 7.732-6.268 14-14 14-7.73199 0-14-6.268-14-14z" fill="url(#a)"/><path clip-rule="evenodd" d="m14 5.5c3.6296 0 6.657 2.57831 7.3506 6.0033.7815.0518 1.3994.7021 1.3994 1.4967v3.5c0 .8284-.6716 1.5-1.5 1.5s-1.5-.6716-1.5-1.5v-3.5l-.0042-.2206c-.1159-3.07338-2.644-5.5294-5.7458-5.5294-3.1756 0-5.75 2.57436-5.75 5.75v3.5c0 .8284-.67157 1.5-1.5 1.5s-1.5-.6716-1.5-1.5v-3.5c0-.7946.61786-1.4449 1.39935-1.4967.69362-3.42499 3.72105-6.0033 7.35065-6.0033zm-2.8284 4.6716c.723-.72306 1.724-1.1716 2.8284-1.1716s2.1054.44854 2.8284 1.1716c.7231.723 1.1716 1.724 1.1716 2.8284v4c0 1.1044-.4485 2.1054-1.1716 2.8284-.5321.5321-1.2148.9156-1.9784 1.081v.2559c0 .1822-.0348.3288-.1001.451-.0654.1222-.1613.2182-.2836.2835-.1222.0654-.2688.1002-.4509.1002h-.0307c-.1822 0-.3288-.0348-.451-.1002-.1222-.0653-.2181-.1613-.2835-.2835s-.1002-.2688-.1002-.451v-.2559c-.7636-.1654-1.4463-.5489-1.9784-1.081-.7231-.723-1.1716-1.724-1.1716-2.8284v-4c0-1.1044.4485-2.1054 1.1716-2.8284zm2.8284 9.3284c.6906 0 1.3145-.279 1.7678-.7322.4532-.4533.7322-1.0772.7322-1.7678h-.3052c-.1782 0-.2901-.0278-.3879-.0801-.0977-.0523-.1745-.1291-.2268-.2268-.0523-.0978-.0801-.2097-.0801-.3879v-.1104c0-.1782.0278-.2901.0801-.3879.0523-.0977.1291-.1745.2268-.2268.0978-.0523.2097-.0801.3879-.0801h.3052v-1h-.3052c-.1782 0-.2901-.0278-.3879-.0801-.0977-.0523-.1745-.1291-.2268-.2268-.0523-.0978-.0801-.2097-.0801-.3879v-.1104c0-.1782.0278-.2901.0801-.3879.0523-.0977.1291-.1745.2268-.2268.0978-.0523.2097-.0801.3879-.0801h.3052c0-.6906-.279-1.3145-.7322-1.7678-.4533-.4532-1.0772-.7322-1.7678-.7322s-1.3145.279-1.7678.7322c-.4532.4533-.7322 1.0772-.7322 1.7678h1.3052c.1782 0 .2901.0278.3879.0801.0977.0523.1745.1291.2268.2268.0523.0978.0801.2097.0801.3879v.1104c0 .1782-.0278.2901-.0801.3879-.0523.0977-.1291.1745-.2268.2268-.0978.0523-.2097.0801-.3879.0801h-1.3052v1h1.3052c.1782 0 .2901.0278.3879.0801.0977.0523.1745.1291.2268.2268.0523.0978.0801.2097.0801.3879v.1104c0 .1782-.0278.2901-.0801.3879-.0523.0977-.1291.1745-.2268.2268-.0978.0523-.2097.0801-.3879.0801h-1.3052c0 .6906.279 1.3145.7322 1.7678.4533.4532 1.0772.7322 1.7678.7322z" fill="#fff" fill-rule="evenodd"/></svg>
