<svg xmlns="http://www.w3.org/2000/svg" width="28" height="28" fill="none" viewBox="0 0 28 28">
  <rect width="28" height="28" fill="url(#a)" rx="14"/>
  <path fill="#fff" fill-rule="evenodd" d="M14 5.5a7.503 7.503 0 0 1 7.35 6.003A1.5 1.5 0 0 1 22.75 13v3.5a1.5 1.5 0 0 1-3 0V13l-.004-.22A5.75 5.75 0 0 0 8.25 13v3.5a1.5 1.5 0 0 1-3 0V13a1.5 1.5 0 0 1 1.4-1.497A7.503 7.503 0 0 1 14 5.5Zm-2.828 4.672A3.99 3.99 0 0 1 14 9a3.99 3.99 0 0 1 2.828 1.172A3.99 3.99 0 0 1 18 13v4a3.99 3.99 0 0 1-1.172 2.828 3.995 3.995 0 0 1-1.978 1.081v.256a.937.937 0 0 1-.1.451.681.681 0 0 1-.284.284.935.935 0 0 1-.45.1h-.031a.935.935 0 0 1-.451-.1.682.682 0 0 1-.284-.284.935.935 0 0 1-.1-.45v-.257a3.995 3.995 0 0 1-1.978-1.08A3.99 3.99 0 0 1 10 17v-4a3.99 3.99 0 0 1 1.172-2.828ZM14 19.5a2.49 2.49 0 0 0 1.768-.732A2.49 2.49 0 0 0 16.5 17h-.305a.775.775 0 0 1-.388-.08.546.546 0 0 1-.227-.227.775.775 0 0 1-.08-.388v-.11c0-.178.028-.29.08-.388a.546.546 0 0 1 .227-.227.775.775 0 0 1 .388-.08h.305v-1h-.305a.775.775 0 0 1-.388-.08.546.546 0 0 1-.227-.227.775.775 0 0 1-.08-.388v-.11c0-.178.028-.29.08-.388a.546.546 0 0 1 .227-.227.775.775 0 0 1 .388-.08h.305a2.49 2.49 0 0 0-.732-1.768A2.49 2.49 0 0 0 14 10.5a2.49 2.49 0 0 0-1.768.732A2.49 2.49 0 0 0 11.5 13h1.305c.178 0 .29.028.388.08.098.052.175.13.227.227.052.098.08.21.08.388v.11c0 .178-.028.29-.08.388a.546.546 0 0 1-.227.227.775.775 0 0 1-.388.08H11.5v1h1.305c.178 0 .29.028.388.08.098.052.175.13.227.227.052.098.08.21.08.388v.11c0 .178-.028.29-.08.388a.546.546 0 0 1-.227.227.775.775 0 0 1-.388.08H11.5c0 .69.279 1.314.732 1.768A2.49 2.49 0 0 0 14 19.5Z" clip-rule="evenodd"/>
  <defs>
    <linearGradient id="a" x1="0" x2="28" y1="0" y2="28" gradientUnits="userSpaceOnUse">
      <stop stop-color="#FF80D5"/>
      <stop offset="1" stop-color="#E645B1"/>
    </linearGradient>
  </defs>
</svg>
