<?xml version="1.0" encoding="UTF-8"?>
<svg width="28px" height="28px" viewBox="0 0 28 28" version="1.1" xmlns="http://www.w3.org/2000/svg" xmlns:xlink="http://www.w3.org/1999/xlink">
    <!-- Generator: Sketch 63.1 (92452) - https://sketch.com -->
    <title>poll_square_outline_28</title>
    <desc>Created with Sketch.</desc>
    <g id="Page-1" stroke="none" stroke-width="1" fill="none" fill-rule="evenodd">
        <g id="poll_square_outline_28">
            <rect id="poll_outline_28" x="0" y="0" width="28" height="28"></rect>
            <path d="M10.6916556,5 C8.55513514,5 7.79451991,5.14688158 7.01266061,5.56502451 C6.38341978,5.90154619 5.90154619,6.38341978 5.56502451,7.01266061 C5.14688158,7.79451991 5,8.55513514 5,10.6916556 L5,17.3083444 C5,19.4448649 5.14688158,20.2054801 5.56502451,20.9873394 C5.90154619,21.6165802 6.38341978,22.0984538 7.01266061,22.4349755 C7.79451991,22.8531184 8.55513514,23 10.6916556,23 L17.3083444,23 C19.4448649,23 20.2054801,22.8531184 20.9873394,22.4349755 C21.6165802,22.0984538 22.0984538,21.6165802 22.4349755,20.9873394 C22.8531184,20.2054801 23,19.4448649 23,17.3083444 L23,10.6916556 C23,8.55513514 22.8531184,7.79451991 22.4349755,7.01266061 C22.0984538,6.38341978 21.6165802,5.90154619 20.9873394,5.56502451 C20.2054801,5.14688158 19.4448649,5 17.3083444,5 L10.6916556,5 Z M10.6916556,3 L17.3083444,3 C19.9829006,3 20.9527593,3.27847683 21.9305371,3.80139811 C22.9083149,4.32431939 23.6756806,5.09168511 24.1986019,6.06946289 C24.7215232,7.04724067 25,8.01709938 25,10.6916556 L25,17.3083444 C25,19.9829006 24.7215232,20.9527593 24.1986019,21.9305371 C23.6756806,22.9083149 22.9083149,23.6756806 21.9305371,24.1986019 C20.9527593,24.7215232 19.9829006,25 17.3083444,25 L10.6916556,25 C8.01709938,25 7.04724067,24.7215232 6.06946289,24.1986019 C5.09168511,23.6756806 4.32431939,22.9083149 3.80139811,21.9305371 C3.27847683,20.9527593 3,19.9829006 3,17.3083444 L3,10.6916556 C3,8.01709938 3.27847683,7.04724067 3.80139811,6.06946289 C4.32431939,5.09168511 5.09168511,4.32431939 6.06946289,3.80139811 C7.04724067,3.27847683 8.01709938,3 10.6916556,3 Z M11,19 C11,19.5522847 10.5522847,20 10,20 C9.44771525,20 9,19.5522847 9,19 L9,13 C9,12.4477153 9.44771525,12 10,12 C10.5522847,12 11,12.4477153 11,13 L11,19 Z M15,19 C15,19.5522847 14.5522847,20 14,20 C13.4477153,20 13,19.5522847 13,19 L13,9 C13,8.44771525 13.4477153,8 14,8 C14.5522847,8 15,8.44771525 15,9 L15,19 Z M19,19 C19,19.5522847 18.5522847,20 18,20 C17.4477153,20 17,19.5522847 17,19 L17,15 C17,14.4477153 17.4477153,14 18,14 C18.5522847,14 19,14.4477153 19,15 L19,19 Z" id="↳-Icon-Color" fill="currentColor" fill-rule="nonzero"></path>
        </g>
    </g>
</svg>
