<svg xmlns="http://www.w3.org/2000/svg" width="28" height="28" fill="none" viewBox="0 0 28 28">
  <g clip-path="url(#a)">
    <path fill="url(#b)" fill-rule="evenodd" d="M14 28c7.732 0 14-6.268 14-14S21.732 0 14 0 0 6.268 0 14s6.268 14 14 14Z" clip-rule="evenodd"/>
    <path fill="#fff" fill-rule="evenodd" d="M15.504 7.003a1 1 0 0 1-1 1H9.002a1 1 0 0 0-1 1v5.5a1 1 0 0 1-2.002 0v-5.5a3 3 0 0 1 3.002-3h5.502a1 1 0 0 1 1 1ZM12.49 21a1 1 0 0 1 1.001-1h5.507a1 1 0 0 0 1-1v-5.5a1 1 0 0 1 2.002 0V19a3 3 0 0 1-3.002 3h-5.507a1 1 0 0 1-1-1Z" clip-rule="evenodd"/>
  </g>
  <defs>
    <linearGradient id="b" x1="0" x2="28" y1="0" y2="28" gradientUnits="userSpaceOnUse">
      <stop stop-color="#FF80D5"/>
      <stop offset="1" stop-color="#E645B1"/>
    </linearGradient>
    <clipPath id="a">
      <path fill="#fff" d="M0 0h28v28H0z"/>
    </clipPath>
  </defs>
</svg>
