<svg fill="none" height="28" viewBox="0 0 28 28" width="28" xmlns="http://www.w3.org/2000/svg"><path clip-rule="evenodd" d="m21.912 3.78431c-1.0333-.55261-2.0298-.76363-3.988-.78431h-7.8514c-1.95822.02068-2.95474.2317-3.98802.78431-.98909.52897-1.7713 1.31118-2.30027 2.30027-.55261 1.03328-.76363 2.0298-.78431 3.98802v7.8514c.02068 1.9582.2317 2.9547.78431 3.988.52897.9891 1.31118 1.7713 2.30027 2.3003 1.03328.5526 2.0298.7636 3.98802.7843h7.8514c1.9582-.0207 2.9547-.2317 3.988-.7843.9891-.529 1.7713-1.3112 2.3003-2.3003.5526-1.0333.7636-2.0298.7843-3.988v-7.8514c-.0207-1.95822-.2317-2.95474-.7843-3.98802-.529-.98909-1.3112-1.7713-2.3003-2.30027zm-11.504 1.21398h7.1806l.5574.00488c1.4792.02805 2.1416.18046 2.8228.54476.6406.34257 1.1373.8393 1.4798 1.47984.3644.6812.5168 1.34357.5448 2.82285l.0049.55738v7.1806l-.0049.5574c-.028 1.4792-.1804 2.1416-.5448 2.8228-.3425.6406-.8392 1.1373-1.4798 1.4798-.6812.3644-1.3436.5168-2.8228.5448l-.5574.0049h-7.1806l-.55738-.0049c-1.47928-.028-2.14165-.1804-2.82285-.5448-.64054-.3425-1.13727-.8392-1.47984-1.4798-.3643-.6812-.51671-1.3436-.54476-2.8228l-.00488-.5574v-7.1806l.00488-.55738c.02805-1.47928.18046-2.14165.54476-2.82285.34257-.64054.8393-1.13727 1.47984-1.47984.6812-.3643 1.34357-.51671 2.82285-.54476zm8.592 9.00171c0 2.419-1.7178 4.4367-4 4.9v-.1c0-.28 0-.42-.0545-.527-.0479-.0941-.1244-.1706-.2185-.2185-.107-.0545-.247-.0545-.527-.0545h-.4c-.28 0-.42 0-.527.0545-.0941.0479-.1706.1244-.2185.2185-.0545.107-.0545.247-.0545.527v.1c-2.2822-.4633-4-2.481-4-4.9s1.7178-4.43671 4-4.89998v.09998c0 .28003 0 .42004.0545.527.0479.09408.1244.17057.2185.2185.107.0545.247.0545.527.0545h.4c.28 0 .42 0 .527-.0545.0941-.04793.1706-.12442.2185-.2185.0545-.10696.0545-.24697.0545-.527v-.09998c2.2822.46327 4 2.48098 4 4.89998zm2 0c0 3.866-3.134 7-7 7s-7-3.134-7-7 3.134-7 7-7 7 3.134 7 7zm-9-1c-.5523 0-1 .4477-1 1s.4477 1 1 1 1-.4477 1-1-.4477-1-1-1zm3 1c0-.5523.4477-1 1-1s1 .4477 1 1-.4477 1-1 1-1-.4477-1-1z" fill="currentColor" fill-rule="evenodd"/></svg>
