<svg fill="none" height="28" viewBox="0 0 28 28" width="28" xmlns="http://www.w3.org/2000/svg"><g fill="currentColor"><path d="m20.337 11.65c-.5595 0-1.013.4536-1.013 1.0131s.4535 1.013 1.013 1.013 1.0131-.4535 1.0131-1.013-.4536-1.0131-1.0131-1.0131z"/><path clip-rule="evenodd" d="m8.00048 8c.00394-1.56855.04059-2.42089.381-3.08897.33555-.65856.87099-1.194 1.52955-1.52955.74867-.38148 1.72877-.38148 3.68897-.38148h.8c1.9602 0 2.9403 0 3.689.38148.6585.33555 1.194.87099 1.5295 1.52955.3404.66808.3771 1.52042.381 3.08897 1.5689.00394 2.4213.04104 3.0895.38148.6585.33555 1.194.87099 1.5295 1.52955.3815.74867.3815 1.72877.3815 3.68897v.8c0 1.9602 0 2.9403-.3815 3.689-.3355.6585-.871 1.194-1.5295 1.5295-.668.3404-1.5202.3771-3.0883.381-.004 1.5689-.0406 2.4213-.381 3.0895-.3356.6585-.871 1.194-1.5296 1.5295-.7487.3815-1.7288.3815-3.689.3815h-.8c-1.9602 0-2.9402 0-3.68894-.3815-.65856-.3355-1.194-.871-1.52955-1.5295-.34044-.6682-.37706-1.5206-.381-3.0895-1.56958-.0039-2.42227-.0405-3.09058-.381-.65856-.3355-1.194-.871-1.52955-1.5295-.38148-.7487-.38148-1.7288-.38148-3.689v-.8c0-1.9602 0-2.9403.38148-3.68897.33555-.65856.87099-1.194 1.52955-1.52955.66815-.34044 1.52059-.37754 3.08945-.38148zm5.59952-3h.8c1.0131 0 1.6526.00156 2.1359.04104.46.03758.5997.09931.6451.12245.2822.14381.5117.37328.6555.65552.0231.04541.0849.18511.1225.64506.031.3801.0386.85684.0404 1.53593h-7.9988c.0018-.67909.0094-1.15583.0404-1.53593.0376-.45995.0994-.59965.1225-.64506.1438-.28224.3733-.51171.6555-.65552.0454-.02314.1851-.08487.6451-.12245.4833-.03948 1.1228-.04104 2.1359-.04104zm7.9359 12.959c-.3799.031-.8563.0386-1.5348.0404v-.8994c0-.5601 0-.8401-.109-1.054-.0958-.1882-.2488-.3411-.437-.437-.2139-.109-.4939-.109-1.054-.109h-8.79997c-.56005 0-.84008 0-1.05399.109-.18816.0959-.34114.2488-.43702.437-.10899.2139-.10899.4939-.10899 1.054v.8994c-.67969-.0018-1.15675-.0094-1.53706-.0404-.45995-.0376-.59965-.0994-.64506-.1225-.28224-.1438-.51171-.3733-.65552-.6555-.02314-.0454-.08487-.1851-.12245-.6451-.03948-.4833-.04104-1.1228-.04104-2.1359v-.8c0-1.0131.00156-1.6526.04104-2.1359.03758-.46.09931-.5997.12245-.6451.14381-.2822.37328-.5117.65552-.6555.04541-.0231.18511-.0849.64506-.1225.4833-.0394 1.12284-.041 2.13593-.041h10.8c1.0131 0 1.6526.0016 2.1359.041.46.0376.5997.0994.6451.1225.2822.1438.5117.3733.6555.6555.0231.0454.0849.1851.1225.6451.0394.4833.041 1.1228.041 2.1359v.8c0 1.0131-.0016 1.6526-.041 2.1359-.0376.46-.0994.5997-.1225.6451-.1438.2822-.3733.5117-.6555.6555-.0454.0231-.1851.0849-.6451.1225zm-11.5348-.459v1.9c0 1.0131.0016 1.6526.0411 2.1359.0376.46.0993.5997.1224.6451.1438.2822.3733.5117.6555.6555.0455.0231.1851.0849.6451.1225.4833.0394 1.1228.041 2.1359.041h.8c1.0131 0 1.6527-.0016 2.136-.041.4599-.0376.5996-.0994.645-.1225.2823-.1438.5117-.3733.6555-.6555.0232-.0454.0849-.1851.1225-.6451.0395-.4833.041-1.1228.041-2.1359v-1.9z" fill-rule="evenodd"/></g></svg>
