<svg xmlns="http://www.w3.org/2000/svg" width="28" height="28" viewBox="0 0 28 28" fill="currentColor"><path d="M9.346 15c1.27 0 1.732.132 2.196.38a2.6 2.6 0 0 1 1.077 1.078c.249.464.381.925.381 2.196v2.692c0 1.27-.132 1.732-.38 2.196a2.6 2.6 0 0 1-1.078 1.077c-.464.249-.925.381-2.196.381H6.654c-1.27 0-1.732-.132-2.196-.38a2.6 2.6 0 0 1-1.077-1.078C3.132 23.078 3 22.617 3 21.346v-2.692c0-1.27.132-1.732.38-2.196a2.6 2.6 0 0 1 1.078-1.077c.464-.249.925-.381 2.196-.381zm14.192 7c.335 0 .456.035.578.1a.7.7 0 0 1 .284.284c.065.122.1.243.1.578v.576c0 .335-.035.456-.1.578a.7.7 0 0 1-.284.284c-.122.065-.243.1-.578.1h-.576c-.335 0-.456-.035-.578-.1a.7.7 0 0 1-.284-.284c-.065-.122-.1-.243-.1-.578v-.576c0-.335.035-.456.1-.578a.7.7 0 0 1 .284-.284c.122-.065.243-.1.578-.1zm-6.5 0c.335 0 .456.035.578.1a.7.7 0 0 1 .284.284c.065.122.1.243.1.578v.576c0 .335-.035.456-.1.578a.7.7 0 0 1-.284.284c-.122.065-.243.1-.578.1h-.576c-.335 0-.456-.035-.578-.1a.7.7 0 0 1-.284-.284c-.065-.122-.1-.243-.1-.578v-.576c0-.335.035-.456.1-.578a.7.7 0 0 1 .284-.284c.122-.065.243-.1.578-.1zM9.52 17H6.654c-.857 0-1.054.038-1.253.144a.6.6 0 0 0-.257.257c-.098.184-.138.368-.143 1.079L5 21.346c0 .857.038 1.054.144 1.253a.6.6 0 0 0 .257.257c.199.106.396.144 1.253.144h2.692c.857 0 1.054-.038 1.253-.144a.6.6 0 0 0 .257-.257c.106-.199.144-.396.144-1.253v-2.692c0-.857-.038-1.054-.144-1.253a.6.6 0 0 0-.257-.257c-.184-.098-.368-.138-1.079-.143M8.29 18.75c.334 0 .455.035.577.1a.7.7 0 0 1 .284.284c.065.122.1.243.1.578v.576c0 .335-.035.456-.1.578a.7.7 0 0 1-.284.284c-.122.065-.243.1-.577.1h-.58c-.334 0-.455-.035-.577-.1a.7.7 0 0 1-.284-.284c-.065-.122-.1-.243-.1-.578v-.576c0-.335.035-.456.1-.578a.7.7 0 0 1 .284-.284c.122-.065.243-.1.577-.1zm12 0c.334 0 .455.035.577.1a.7.7 0 0 1 .284.284c.065.122.1.243.1.578v.576c0 .335-.035.456-.1.578a.7.7 0 0 1-.284.284c-.122.065-.243.1-.578.1h-.576c-.335 0-.456-.035-.578-.1a.7.7 0 0 1-.284-.284c-.065-.122-.1-.243-.1-.578v-.576c0-.335.035-.456.1-.578a.7.7 0 0 1 .284-.284c.122-.065.243-.1.578-.1zm-3.25-3.25c.334 0 .455.035.577.1a.7.7 0 0 1 .284.284c.065.122.1.243.1.578v.576c0 .335-.035.456-.1.578a.7.7 0 0 1-.284.284c-.122.065-.243.1-.578.1h-.576c-.335 0-.456-.035-.578-.1a.7.7 0 0 1-.284-.284c-.065-.122-.1-.243-.1-.578v-.576c0-.335.035-.456.1-.578a.7.7 0 0 1 .284-.284c.122-.065.243-.1.578-.1zm6.5 0c.334 0 .455.035.577.1a.7.7 0 0 1 .284.284c.065.122.1.243.1.578v.576c0 .335-.035.456-.1.578a.7.7 0 0 1-.284.284c-.122.065-.243.1-.578.1h-.576c-.335 0-.456-.035-.578-.1a.7.7 0 0 1-.284-.284c-.065-.122-.1-.243-.1-.578v-.576c0-.335.035-.456.1-.578a.7.7 0 0 1 .284-.284c.122-.065.243-.1.578-.1zM9.346 3c1.27 0 1.732.132 2.196.38a2.6 2.6 0 0 1 1.077 1.078c.249.464.381.925.381 2.196v2.692c0 1.27-.132 1.732-.38 2.196a2.6 2.6 0 0 1-1.078 1.077c-.464.249-.925.381-2.196.381H6.654c-1.27 0-1.732-.132-2.196-.38a2.6 2.6 0 0 1-1.077-1.078C3.132 11.078 3 10.617 3 9.346V6.654c0-1.27.132-1.732.38-2.196a2.6 2.6 0 0 1 1.078-1.077C4.922 3.132 5.383 3 6.654 3zm12 0c1.27 0 1.732.132 2.196.38a2.6 2.6 0 0 1 1.077 1.078c.249.464.381.925.381 2.196v2.692c0 1.27-.132 1.732-.38 2.196a2.6 2.6 0 0 1-1.078 1.077c-.464.249-.925.381-2.196.381h-2.692c-1.27 0-1.732-.132-2.196-.38a2.6 2.6 0 0 1-1.077-1.078c-.249-.464-.381-.925-.381-2.196V6.654c0-1.27.132-1.732.38-2.196a2.6 2.6 0 0 1 1.078-1.077c.464-.249.925-.381 2.196-.381zM9.52 5H6.654c-.857 0-1.054.038-1.253.144a.6.6 0 0 0-.257.257c-.098.184-.138.368-.143 1.079L5 9.346c0 .857.038 1.054.144 1.253a.6.6 0 0 0 .257.257c.199.106.396.144 1.253.144h2.692c.857 0 1.054-.038 1.253-.144a.6.6 0 0 0 .257-.257c.106-.199.144-.396.144-1.253V6.654c0-.857-.038-1.054-.144-1.253a.6.6 0 0 0-.257-.257c-.184-.098-.368-.138-1.079-.143m12 0h-2.866c-.857 0-1.054.038-1.253.144a.6.6 0 0 0-.257.257c-.098.184-.138.368-.143 1.079L17 9.346c0 .857.038 1.054.144 1.253a.6.6 0 0 0 .257.257c.199.106.396.144 1.253.144h2.692c.857 0 1.054-.038 1.253-.144a.6.6 0 0 0 .257-.257c.106-.199.144-.396.144-1.253V6.654c0-.857-.038-1.054-.144-1.253a.6.6 0 0 0-.257-.257c-.184-.098-.368-.138-1.079-.143M8.29 6.75c.334 0 .455.035.577.1a.7.7 0 0 1 .284.284c.065.122.1.243.1.577v.578c0 .334-.035.455-.1.577a.7.7 0 0 1-.284.284c-.122.065-.243.1-.577.1h-.58c-.334 0-.455-.035-.577-.1a.7.7 0 0 1-.284-.284c-.065-.122-.1-.243-.1-.577V7.71c0-.334.035-.455.1-.577a.7.7 0 0 1 .284-.284c.122-.065.243-.1.577-.1zm12 0c.334 0 .455.035.577.1a.7.7 0 0 1 .284.284c.065.122.1.243.1.577v.578c0 .334-.035.455-.1.577a.7.7 0 0 1-.284.284c-.122.065-.243.1-.578.1h-.576c-.335 0-.456-.035-.578-.1a.7.7 0 0 1-.284-.284c-.065-.122-.1-.243-.1-.577V7.71c0-.334.035-.455.1-.577a.7.7 0 0 1 .284-.284c.122-.065.243-.1.578-.1z"/></svg>