<svg xmlns="http://www.w3.org/2000/svg" width="28" height="28" fill="none" viewBox="0 0 28 28"><path fill="currentColor" d="M9.3465 15c1.2704 0 1.7311.1323 2.1955.3807.4645.2484.8289.6128 1.0773 1.0773.2484.4644.3807.9251.3807 2.1955v2.693c0 1.2704-.1323 1.7311-.3807 2.1955-.2484.4645-.6128.8289-1.0773 1.0773-.4644.2484-.9251.3807-2.1955.3807h-2.693c-1.2704 0-1.731-.1323-2.1955-.3807-.4645-.2484-.829-.6128-1.0773-1.0773C3.1323 23.0776 3 22.6169 3 21.3465v-2.693c0-1.2704.1323-1.7311.3807-2.1955.2483-.4645.6128-.8289 1.0773-1.0773.4644-.2484.925-.3807 2.1955-.3807h2.693Zm14.192 7c.3344 0 .4556.0348.5778.1002a.681.681 0 0 1 .2835.2835c.0654.1222.1002.2434.1002.5778v.577c0 .3344-.0348.4556-.1002.5778a.681.681 0 0 1-.2835.2835c-.1222.0654-.2434.1002-.5778.1002h-.577c-.3344 0-.4556-.0348-.5778-.1002a.681.681 0 0 1-.2835-.2835c-.0654-.1222-.1002-.2434-.1002-.5778v-.577c0-.3344.0348-.4556.1002-.5778a.681.681 0 0 1 .2835-.2835c.1222-.0654.2434-.1002.5778-.1002h.577Zm-6.5 0c.3344 0 .4556.0348.5778.1002a.681.681 0 0 1 .2835.2835c.0654.1222.1002.2434.1002.5778v.577c0 .3344-.0348.4556-.1002.5778a.681.681 0 0 1-.2835.2835c-.1222.0654-.2434.1002-.5778.1002h-.577c-.3344 0-.4556-.0348-.5778-.1002a.681.681 0 0 1-.2835-.2835c-.0654-.1222-.1002-.2434-.1002-.5778v-.577c0-.3344.0348-.4556.1002-.5778a.681.681 0 0 1 .2835-.2835c.1222-.0654.2434-.1002.5778-.1002h.577Zm-7.5184-4.9994L6.6535 17c-.8563 0-1.0538.0381-1.2523.1443-.116.062-.195.141-.257.2569-.0985.1843-.1384.3678-.1436 1.0787L5 21.3465c0 .8563.0381 1.0538.1443 1.2523.062.1159.141.1949.2569.2569.1985.1062.396.1443 1.2523.1443h2.693c.8563 0 1.0538-.0381 1.2523-.1443.1159-.062.1949-.141.2569-.2569.1062-.1985.1443-.396.1443-1.2523v-2.693c0-.8563-.0381-1.0538-.1443-1.2523-.062-.1159-.141-.1949-.2569-.2569-.1843-.0986-.3678-.1385-1.0787-.1437ZM8.2885 18.75c.3344 0 .4556.0348.5778.1002a.6813.6813 0 0 1 .2835.2835c.0654.1222.1002.2434.1002.5778v.577c0 .3344-.0348.4556-.1002.5778a.6813.6813 0 0 1-.2835.2835c-.1222.0654-.2434.1002-.5778.1002h-.577c-.3344 0-.4556-.0348-.5778-.1002a.6813.6813 0 0 1-.2835-.2835c-.0654-.1222-.1002-.2434-.1002-.5778v-.577c0-.3344.0348-.4556.1002-.5778a.6813.6813 0 0 1 .2835-.2835c.1222-.0654.2434-.1002.5778-.1002h.577Zm12 0c.3344 0 .4556.0348.5778.1002a.681.681 0 0 1 .2835.2835c.0654.1222.1002.2434.1002.5778v.577c0 .3344-.0348.4556-.1002.5778a.681.681 0 0 1-.2835.2835c-.1222.0654-.2434.1002-.5778.1002h-.577c-.3344 0-.4556-.0348-.5778-.1002a.681.681 0 0 1-.2835-.2835c-.0654-.1222-.1002-.2434-.1002-.5778v-.577c0-.3344.0348-.4556.1002-.5778a.681.681 0 0 1 .2835-.2835c.1222-.0654.2434-.1002.5778-.1002h.577Zm-3.25-3.25c.3344 0 .4556.0348.5778.1002a.681.681 0 0 1 .2835.2835c.0654.1222.1002.2434.1002.5778v.577c0 .3344-.0348.4556-.1002.5778a.681.681 0 0 1-.2835.2835c-.1222.0654-.2434.1002-.5778.1002h-.577c-.3344 0-.4556-.0348-.5778-.1002a.681.681 0 0 1-.2835-.2835c-.0654-.1222-.1002-.2434-.1002-.5778v-.577c0-.3344.0348-.4556.1002-.5778a.681.681 0 0 1 .2835-.2835c.1222-.0654.2434-.1002.5778-.1002h.577Zm6.5 0c.3344 0 .4556.0348.5778.1002a.681.681 0 0 1 .2835.2835c.0654.1222.1002.2434.1002.5778v.577c0 .3344-.0348.4556-.1002.5778a.681.681 0 0 1-.2835.2835c-.1222.0654-.2434.1002-.5778.1002h-.577c-.3344 0-.4556-.0348-.5778-.1002a.681.681 0 0 1-.2835-.2835c-.0654-.1222-.1002-.2434-.1002-.5778v-.577c0-.3344.0348-.4556.1002-.5778a.681.681 0 0 1 .2835-.2835c.1222-.0654.2434-.1002.5778-.1002h.577ZM9.3465 3c1.2704 0 1.7311.1323 2.1955.3807.4645.2483.8289.6128 1.0773 1.0773.2484.4644.3807.9251.3807 2.1955v2.693c0 1.2704-.1323 1.7311-.3807 2.1955-.2484.4645-.6128.8289-1.0773 1.0773-.4644.2484-.9251.3807-2.1955.3807h-2.693c-1.2704 0-1.731-.1323-2.1955-.3807-.4645-.2484-.829-.6128-1.0773-1.0773C3.1323 11.0776 3 10.6169 3 9.3465v-2.693c0-1.2704.1323-1.731.3807-2.1955.2483-.4645.6128-.829 1.0773-1.0773C4.9224 3.1323 5.383 3 6.6535 3h2.693Zm12 0c1.2704 0 1.7311.1323 2.1955.3807.4645.2483.8289.6128 1.0773 1.0773.2484.4644.3807.9251.3807 2.1955v2.693c0 1.2704-.1323 1.7311-.3807 2.1955-.2484.4645-.6128.8289-1.0773 1.0773-.4644.2484-.9251.3807-2.1955.3807h-2.693c-1.2704 0-1.7311-.1323-2.1955-.3807-.4645-.2484-.8289-.6128-1.0773-1.0773-.2484-.4644-.3807-.9251-.3807-2.1955v-2.693c0-1.2704.1323-1.731.3807-2.1955.2484-.4645.6128-.829 1.0773-1.0773.4644-.2484.9251-.3807 2.1955-.3807h2.693ZM9.5201 5.0006 6.6535 5c-.8563 0-1.0538.0381-1.2523.1443-.116.062-.195.141-.257.2569-.0985.1843-.1384.3678-.1436 1.0787L5 9.3465c0 .8563.0381 1.0538.1443 1.2523.062.1159.141.1949.2569.2569.1985.1062.396.1443 1.2523.1443h2.693c.8563 0 1.0538-.0381 1.2523-.1443.1159-.062.1949-.141.2569-.2569.1062-.1985.1443-.396.1443-1.2523v-2.693c0-.8563-.0381-1.0538-.1443-1.2523-.062-.116-.141-.195-.2569-.257-.1843-.0985-.3678-.1384-1.0787-.1436Zm12 0L18.6535 5c-.8563 0-1.0538.0381-1.2523.1443-.1159.062-.1949.141-.2569.2569-.0986.1843-.1385.3678-.1437 1.0787L17 9.3465c0 .8563.0381 1.0538.1443 1.2523.062.1159.141.1949.2569.2569.1985.1062.396.1443 1.2523.1443h2.693c.8563 0 1.0538-.0381 1.2523-.1443.1159-.062.1949-.141.2569-.2569.1062-.1985.1443-.396.1443-1.2523v-2.693c0-.8563-.0381-1.0538-.1443-1.2523-.062-.116-.141-.195-.2569-.257-.1843-.0985-.3678-.1384-1.0787-.1436ZM8.2885 6.75c.3344 0 .4556.0348.5778.1002a.6816.6816 0 0 1 .2835.2835c.0654.1222.1002.2434.1002.5778v.577c0 .3344-.0348.4556-.1002.5778a.6816.6816 0 0 1-.2835.2835c-.1222.0654-.2434.1002-.5778.1002h-.577c-.3344 0-.4556-.0348-.5778-.1002a.6816.6816 0 0 1-.2835-.2835c-.0654-.1222-.1002-.2434-.1002-.5778v-.577c0-.3344.0348-.4556.1002-.5778a.6816.6816 0 0 1 .2835-.2835c.1222-.0654.2434-.1002.5778-.1002h.577Zm12 0c.3344 0 .4556.0348.5778.1002a.6813.6813 0 0 1 .2835.2835c.0654.1222.1002.2434.1002.5778v.577c0 .3344-.0348.4556-.1002.5778a.6813.6813 0 0 1-.2835.2835c-.1222.0654-.2434.1002-.5778.1002h-.577c-.3344 0-.4556-.0348-.5778-.1002a.6813.6813 0 0 1-.2835-.2835c-.0654-.1222-.1002-.2434-.1002-.5778v-.577c0-.3344.0348-.4556.1002-.5778a.6813.6813 0 0 1 .2835-.2835c.1222-.0654.2434-.1002.5778-.1002h.577Z"/></svg>
