<svg xmlns="http://www.w3.org/2000/svg" width="28" height="28" fill="currentColor" viewBox="0 0 28 28"><path fill-rule="evenodd" d="M15 21.35a12.22 12.22 0 0 0 2.732-1.215 12.04 12.04 0 0 0 2.213-1.823 8.076 8.076 0 0 0 1.476-2.2c.355-.81.546-1.62.546-2.43 0-.492-.082-.926-.273-1.303-.191-.376-.41-.55-.683-.55a1.27 1.27 0 0 0-.683.174c-.191.116-.383.232-.574.376-.191.145-.41.26-.656.377-.245.115-.573.173-.983.173-.847 0-1.585-.347-2.186-1.07-.629-.724-.929-1.65-.929-2.75 0-1.157.41-2.141 1.257-2.923C17.104 5.406 18.115 5 19.344 5c.793 0 1.53.174 2.186.55a5.778 5.778 0 0 1 1.803 1.534c.52.636.93 1.389 1.23 2.228.3.84.437 1.765.437 2.75 0 1.533-.273 2.95-.792 4.253-.547 1.302-1.257 2.431-2.186 3.386a10.544 10.544 0 0 1-3.197 2.315c-1.23.579-2.486.897-3.825.984v-1.65Z M3 21.35a12.194 12.194 0 0 0 2.732-1.215 12.037 12.037 0 0 0 2.213-1.823 8.076 8.076 0 0 0 1.476-2.2c.355-.81.546-1.62.546-2.43 0-.492-.082-.926-.273-1.303-.191-.376-.41-.55-.683-.55a1.27 1.27 0 0 0-.683.174c-.191.116-.383.232-.574.376-.191.145-.41.26-.656.377-.246.115-.573.173-.983.173-.847 0-1.585-.347-2.186-1.07-.628-.724-.929-1.65-.929-2.75 0-1.157.41-2.141 1.257-2.923C5.104 5.406 6.115 5 7.344 5c.793 0 1.53.174 2.186.55a5.778 5.778 0 0 1 1.803 1.534c.52.636.93 1.389 1.23 2.228.3.84.437 1.765.437 2.75 0 1.533-.273 2.95-.792 4.253-.547 1.302-1.257 2.431-2.186 3.386a10.543 10.543 0 0 1-3.197 2.315c-1.23.579-2.486.897-3.825.984v-1.65Z"/></svg>
