<?xml version="1.0" encoding="UTF-8"?>
<svg width="28px" height="28px" viewBox="0 0 28 28" version="1.1" xmlns="http://www.w3.org/2000/svg" xmlns:xlink="http://www.w3.org/1999/xlink">
    <!-- Generator: Sketch 63.1 (92452) - https://sketch.com -->
    <title>radiowaves_around_outline_28</title>
    <desc>Created with Sketch.</desc>
    <g id="Page-1" stroke="none" stroke-width="1" fill="none" fill-rule="evenodd">
        <g id="radiowaves_around_outline_28">
            <rect x="0" y="0" width="28" height="28"></rect>
            <path d="M14,2 C20.627417,2 26,7.372583 26,14 C26,17.9296154 24.0964212,21.5415966 20.9565245,23.7789375 C20.5067434,24.09943 19.8823133,23.994621 19.5618208,23.54484 C19.2413282,23.0950589 19.3461373,22.4706288 19.7959183,22.1501363 C22.4145997,20.2841886 24,17.2759412 24,14 C24,8.4771525 19.5228475,4 14,4 C8.4771525,4 4,8.4771525 4,14 C4,17.2731318 5.58266019,20.2791041 8.19760444,22.145517 C8.64713119,22.4663661 8.75144503,23.0908792 8.43059592,23.5404059 C8.10974682,23.9899327 7.4852338,24.0942465 7.03570705,23.7733974 C3.90029379,21.5355004 2,17.9262415 2,14 C2,7.372583 7.372583,2 14,2 Z M14,7 C17.8659932,7 21,10.1340068 21,14 C21,16.0967644 20.07128,18.0442749 18.495911,19.3655159 L18.495911,19.3655159 L18.4626842,19.3932091 C18.0373484,19.7454985 17.4069585,19.6862826 17.0546691,19.2609468 C16.7023796,18.8356109 16.7615955,18.205221 17.1869314,17.8529316 L17.1869314,17.8529316 L17.2107072,17.8331154 C18.3376722,16.887945 19,15.4990544 19,14 C19,11.2385763 16.7614237,9 14,9 C11.2385763,9 9,11.2385763 9,14 C9,15.5078216 9.67017116,16.9040364 10.8084877,17.8491329 C11.2334066,18.2019252 11.2918768,18.8323846 10.9390845,19.2573035 C10.5862922,19.6822224 9.95583271,19.7406925 9.53091384,19.3879002 C7.93968887,18.0667729 7,16.1090528 7,14 C7,10.1340068 10.1340068,7 14,7 Z M14,12 C15.1045695,12 16,12.8954305 16,14 C16,15.1045695 15.1045695,16 14,16 C12.8954305,16 12,15.1045695 12,14 C12,12.8954305 12.8954305,12 14,12 Z" id="↳-Icon-Color" fill="currentColor" fill-rule="nonzero"></path>
        </g>
    </g>
</svg>
