<svg xmlns="http://www.w3.org/2000/svg" width="28" height="28" fill="currentColor" viewBox="0 0 28 28"><path fill-rule="evenodd" d="M23.514 11.608a.205.205 0 0 0-.117-.36l-6.647-.533-2.56-6.156a.205.205 0 0 0-.379 0l-2.56 6.156-6.646.533a.205.205 0 0 0-.117.36l5.063 4.338-1.547 6.485a.205.205 0 0 0 .307.223l1.524-.932a1 1 0 1 1 1.041 1.707l-1.523.931a2.205 2.205 0 0 1-3.294-2.393l1.263-5.297-4.135-3.543a2.205 2.205 0 0 1 1.258-3.873l5.428-.435 2.092-5.028a2.205 2.205 0 0 1 4.072 0l2.09 5.028 5.43.435a2.205 2.205 0 0 1 1.258 3.873l-.12.102a1 1 0 1 1-1.37-1.457l-.001-.002.19-.162ZM25 20a6 6 0 1 1-12 0 6 6 0 0 1 12 0Zm-6.246 1.642c.406 0 .63-.22.715-.598.074-.473.246-.716 1.007-1.15.806-.467 1.224-1.048 1.224-1.9 0-1.313-1.093-2.192-2.717-2.192-1.23 0-2.145.479-2.511 1.223a1.38 1.38 0 0 0-.172.67c0 .43.28.706.732.706.35 0 .607-.158.75-.52.183-.5.56-.771 1.12-.771.63 0 1.065.383 1.065.935 0 .519-.223.8-.961 1.235-.675.389-1.024.829-1.024 1.494v.079c0 .462.286.789.772.789Zm.011 2.556c.521 0 .939-.389.939-.885s-.418-.885-.939-.885c-.514 0-.932.39-.932.885 0 .496.418.885.933.885Z" clip-rule="evenodd"/></svg>
