<svg xmlns="http://www.w3.org/2000/svg" width="28" height="28" fill="currentColor" viewBox="0 0 28 28"><path fill-rule="evenodd" d="M10 12a1 1 0 0 1 1-1h4a1 1 0 1 1 0 2h-4a1 1 0 0 1-1-1Z M4.544 3.11a1 1 0 0 1 1.04.078l2.201 1.585 2.27-1.592a1 1 0 0 1 1.21.047l1.8 1.484 1.866-1.493a1 1 0 0 1 1.258.007l1.872 1.532 2.384-1.59A1 1 0 0 1 22 4v14h1.084c.38 0 .708 0 1.001.058a3 3 0 0 1 2.357 2.357c.059.293.058.62.058 1.001v.168c0 .38 0 .708-.058 1.001a3 3 0 0 1-2.357 2.357c-.293.059-.62.058-1.001.058H20v-.005h-9.187c-.15.005-.31.005-.48.005H8v-.032a9.78 9.78 0 0 1-.252-.017c-.562-.046-1.078-.145-1.564-.392a4 4 0 0 1-1.748-1.748c-.247-.485-.346-1.002-.392-1.564C4 20.706 4 20.041 4 19.237V4a1 1 0 0 1 .544-.89Zm9.036 19.885H21V23h2c.513 0 .623-.005.695-.02a1 1 0 0 0 .786-.785c.014-.072.019-.182.019-.695 0-.513-.005-.623-.02-.695a1 1 0 0 0-.785-.786C23.623 20.005 23.513 20 23 20h-7.75c-.513 0-.623.005-.695.02a1 1 0 0 0-.786.785c-.014.072-.019.182-.019.695v.084c0 .38 0 .708-.058 1.001a2.95 2.95 0 0 1-.112.41ZM20 18h-4.834c-.38 0-.708 0-1.001.058a3 3 0 0 0-2.357 2.357c-.059.293-.058.62-.058 1.001v.084c0 .513-.005.623-.02.695a1 1 0 0 1-.785.786 1.024 1.024 0 0 1-.166.014H9.8c-.856 0-1.438 0-1.888-.037-.438-.036-.662-.101-.819-.18a2 2 0 0 1-.874-.875c-.08-.156-.144-.38-.18-.819C6 20.634 6 20.052 6 19.195V5.952l1.194.86a1 1 0 0 0 1.158.007l2.228-1.563 1.84 1.516a1 1 0 0 0 1.26.009l1.869-1.495 1.818 1.488a1 1 0 0 0 1.188.058L20 5.869V18Z" clip-rule="evenodd"/></svg>
