<svg xmlns="http://www.w3.org/2000/svg" width="28" height="28" fill="currentColor" viewBox="0 0 28 28"><path d="M5 11.12c0-1.792 0-2.688.349-3.373A3.2 3.2 0 0 1 6.747 6.35C7.432 6 8.327 6 10.12 6h7.76c1.792 0 2.688 0 3.373.349a3.2 3.2 0 0 1 1.398 1.398C23 8.432 23 9.327 23 11.12v1.13h2.001a1.75 1.75 0 1 1 0 3.5H23v1.13c0 1.792 0 2.688-.349 3.373a3.2 3.2 0 0 1-1.398 1.398c-.685.349-1.58.349-3.373.349h-7.76c-1.792 0-2.688 0-3.373-.349a3.2 3.2 0 0 1-1.398-1.398C5 19.568 5 18.673 5 16.88v-1.13H3.001a1.75 1.75 0 0 1 0-3.5H5v-1.13Z"/></svg>
