<svg xmlns="http://www.w3.org/2000/svg" width="28" height="28" fill="currentColor" viewBox="0 0 28 28"><path fill-rule="evenodd" d="M21.5 15c.416 0 .77-.005 1.085.057a3.001 3.001 0 0 1 2.357 2.358c.063.314.058.668.058 1.085 0 .416.005.77-.058 1.085a3 3 0 0 1-2.357 2.357c-.314.063-.669.058-1.085.058h-15c-.417 0-.771.005-1.085-.058a3.001 3.001 0 0 1-2.357-2.357C2.995 19.27 3 18.916 3 18.5c0-.417-.005-.771.058-1.085a3.001 3.001 0 0 1 2.357-2.357C5.729 14.994 6.083 15 6.5 15h15Zm-15 2c-.513 0-.623.005-.695.02a1 1 0 0 0-.786.785c-.014.072-.02.182-.02.695 0 .512.006.623.02.695a1 1 0 0 0 .786.785c.072.015.182.02.695.02h15c.512 0 .623-.005.695-.02a1 1 0 0 0 .785-.785c.015-.072.02-.183.02-.695 0-.513-.005-.623-.02-.695a1 1 0 0 0-.785-.786c-.072-.014-.183-.02-.695-.02h-15Zm15-11c.416 0 .77-.005 1.085.058a3.001 3.001 0 0 1 2.357 2.357c.063.314.058.668.058 1.085 0 .416.005.77-.058 1.085a3 3 0 0 1-2.357 2.357c-.314.063-.669.058-1.085.058h-15c-.417 0-.771.005-1.085-.058a3.001 3.001 0 0 1-2.357-2.357C2.995 10.27 3 9.916 3 9.5c0-.417-.005-.771.058-1.085a3.001 3.001 0 0 1 2.357-2.357C5.729 5.995 6.083 6 6.5 6h15Zm-15 2c-.513 0-.623.005-.695.02a1 1 0 0 0-.786.785c-.014.072-.02.182-.02.695 0 .512.006.623.02.695a1 1 0 0 0 .786.785c.072.015.182.02.695.02h15c.512 0 .623-.005.695-.02a1 1 0 0 0 .785-.785c.015-.072.02-.183.02-.695 0-.513-.005-.623-.02-.695a1 1 0 0 0-.785-.786c-.072-.014-.183-.02-.695-.02h-15Z" clip-rule="evenodd"/></svg>