<svg xmlns="http://www.w3.org/2000/svg" width="28" height="28" fill="currentColor" viewBox="0 0 28 28"><path fill-rule="evenodd" d="M5.07 4.801C6.164 4.216 7.243 4 9.691 4h8.616c2.448 0 3.527.216 4.622.801A5.465 5.465 0 0 1 25.2 7.07c.585 1.096.801 2.175.801 4.623v1.848c0 .666 0 1.226-.037 1.683-.04.48-.124.934-.345 1.366a3.5 3.5 0 0 1-1.529 1.53c-.478.243-.988.322-1.528.355a1 1 0 0 1-.122-1.996c.44-.027.626-.083.742-.142a1.5 1.5 0 0 0 .655-.655c.053-.103.104-.265.133-.62.03-.367.031-.844.031-1.561v-1.808c0-2.335-.212-3.019-.565-3.68a3.466 3.466 0 0 0-1.448-1.447C21.327 6.212 20.643 6 18.308 6H9.692c-2.335 0-3.019.212-3.68.565a3.466 3.466 0 0 0-1.447 1.448C4.212 8.673 4 9.357 4 11.692V13.5c0 .717 0 1.194.03 1.56.03.356.081.518.133.621a1.5 1.5 0 0 0 .656.656c.116.058.302.114.742.14a1 1 0 1 1-.122 1.997c-.54-.033-1.05-.112-1.528-.355a3.5 3.5 0 0 1-1.53-1.53c-.22-.432-.304-.887-.344-1.366C2 14.766 2 14.206 2 13.54v-1.848c0-2.448.216-3.527.801-4.623A5.466 5.466 0 0 1 5.07 4.801Z m12.989 18.462.024-1.06a.974.974 0 0 0-.025.219v.84Z" clip-rule="evenodd"/><path d="m16.942 18.55-.03-.541a.994.994 0 0 0-1.987.049l.004-.43a.97.97 0 0 0-1.916-.227l-.024 1.06v-.84c0-.076.008-.15.024-.22l.077-3.385a1.001 1.001 0 0 0-2.002-.049l-.155 6.095-.914-1.596a.935.935 0 0 0-1.67.83l1.614 3.787s1.179 2.369 4.544 2.573c2.928.178 4.536-1.946 4.45-4.533l.078-2.6a1.048 1.048 0 1 0-2.093.028Z"/></svg>
