<svg xmlns="http://www.w3.org/2000/svg" width="28" height="28" fill="currentColor" viewBox="0 0 28 28"><path fill-rule="evenodd" d="M20.547 4.708a1 1 0 0 1 1.415 0l2.539 2.54a1 1 0 0 1 0 1.414L21.96 11.2a1 1 0 0 1-1.414-1.415l.832-.832H9.05A5.046 5.046 0 0 0 4.002 14v.117a1 1 0 1 1-2 0V14a7.046 7.046 0 0 1 7.045-7.046H21.38l-.832-.832a1 1 0 0 1 0-1.414ZM25 12.883a1 1 0 0 1 1 1V14a7.046 7.046 0 0 1-7.046 7.046H6.62l.832.832a1 1 0 1 1-1.414 1.414l-2.54-2.54a1 1 0 0 1 0-1.413l2.54-2.54a1 1 0 0 1 1.414 1.415l-.832.832h12.334A5.046 5.046 0 0 0 24 14v-.117a1 1 0 0 1 1-1Z" clip-rule="evenodd"/></svg>
