<svg xmlns="http://www.w3.org/2000/svg" width="28" height="28" fill="currentColor" viewBox="0 0 28 28"><path d="M13.436 16.996c0 .239.198.433.443.433h.752a.438.438 0 0 0 .443-.433v-6.062c0-.31-.323-.52-.615-.4l-2.334.966a.433.433 0 0 0-.27.4v.601c0 .244.251.412.483.323l1.098-.422v4.594Z"/><path fill-rule="evenodd" d="m12.068 11.362 2.334-.966a.592.592 0 0 1 .822.537v6.063a.588.588 0 0 1-.593.583h-.752a.588.588 0 0 1-.593-.583V12.62l-.894.344a.503.503 0 0 1-.687-.463V11.9c0-.236.144-.447.363-.537Zm1.368 1.04v4.594c0 .239.198.433.443.433h.752a.438.438 0 0 0 .443-.433v-6.062c0-.31-.323-.52-.615-.4l-2.334.966a.433.433 0 0 0-.27.4v.601c0 .244.251.412.483.323l1.098-.422Z M20.542 4.81a1 1 0 0 1 1.414 0l2.539 2.538a1 1 0 0 1 0 1.414l-2.539 2.54a1 1 0 1 1-1.414-1.415l.831-.832H9.045A5.045 5.045 0 0 0 4 14.1v.117a1 1 0 1 1-2 0V14.1a7.045 7.045 0 0 1 7.045-7.045h12.329l-.832-.831a1 1 0 0 1 0-1.415Zm4.452 8.173a1 1 0 0 1 1 1v.117a7.045 7.045 0 0 1-7.045 7.045H6.617l.832.831a1 1 0 1 1-1.414 1.414l-2.539-2.538a1 1 0 0 1 0-1.415L6.035 16.9a1 1 0 0 1 1.414 1.414l-.832.832H18.95a5.045 5.045 0 0 0 5.045-5.045v-.117a1 1 0 0 1 1-1Z" clip-rule="evenodd"/></svg>
