<svg fill="none" height="28" viewBox="0 0 28 28" width="28" xmlns="http://www.w3.org/2000/svg" xmlns:xlink="http://www.w3.org/1999/xlink"><linearGradient id="a" gradientUnits="userSpaceOnUse" x1="-14" x2="14" y1="14" y2="42"><stop offset="0" stop-color="#50c750"/><stop offset="1" stop-color="#32b332"/></linearGradient><path d="m0 14c0-7.73199 6.26801-14 14-14 7.732 0 14 6.26801 14 14 0 7.732-6.268 14-14 14-7.73199 0-14-6.268-14-14z" fill="url(#a)"/><path clip-rule="evenodd" d="m14 18.1385c0 .2045-.0737.4022-.2077.5567-.3074.3548-.8442.3931-1.199.0857l-5.22136-4.5252c-.03594-.0312-.06961-.0648-.10076-.1008-.36171-.4173-.31659-1.0489.10076-1.4106l5.22136-4.52516c.1545-.13394.3522-.20767.5567-.20767.4694 0 .85.38056.85.85v2.38853c3.866 0 7 3.134 7 7v.0143c-1.9019-1.5707-4.3407-2.5143-7-2.5143z" fill="#fff" fill-rule="evenodd"/></svg>
