<svg fill="none" height="28" viewBox="0 0 28 28" width="28" xmlns="http://www.w3.org/2000/svg"><path clip-rule="evenodd" d="m14.5245 6.51266c0-.44167-.4854-.65067-.7971-.40594l-9.53214 7.48368c-.26035.2044-.26035.6075 0 .8119l9.53214 7.4837c.3117.2447.7971.0357.7971-.4059v-4.4848c0-.5521.4477-.9997 1-.9997 3.5649 0 6.2512 1.4484 8.2586 3.2666-.3609-2.1616-1.1523-3.8067-2.224-5.0458-1.4973-1.7312-3.6367-2.7798-6.2193-3.2648-.4728-.0888-.8153-.5016-.8153-.9825zm-2.0324-1.97826c1.6538-1.29839 4.0324-.09353 4.0324 1.97826v2.64707c2.5642.6094 4.8536 1.79057 6.5475 3.74907 1.8769 2.17 2.928 5.1847 2.928 9.1421 0 .4266-.2708.8061-.6742.9451-.4035.139-.8507.0067-1.1135-.3293-1.7413-2.2258-4.1751-4.2919-7.6878-4.6251v3.4385c0 2.0718-2.3786 3.2766-4.0324 1.9782l-9.53216-7.4837c-1.27992-1.0048-1.27992-2.9516 0-3.9565z" fill="currentColor" fill-rule="evenodd"/></svg>
