<svg fill="none" height="28" viewBox="0 0 28 28" width="28" xmlns="http://www.w3.org/2000/svg"><path d="m14.7071 2.29289c-.3905-.39052-1.0237-.39052-1.4142 0l-3 3c-.39053.39053-.39053 1.02369 0 1.41422l3 3c.3905.39049 1.0237.39049 1.4142 0 .3905-.39053.3905-1.02369 0-1.41422l-1.2721-1.27329c.1865-.01299.3749-.0196.565-.0196 2.2094 0 4.208.89434 5.6569 2.34315 1.4488 1.44885 2.3431 3.44745 2.3431 5.65685s-.8943 4.208-2.3431 5.6569c-1.4489 1.4488-3.4475 2.3431-5.6569 2.3431s-4.20804-.8943-5.65685-2.3431c-1.44881-1.4489-2.34315-3.4475-2.34315-5.6569 0-.5523-.44772-1-1-1s-1 .4477-1 1c0 2.7611 1.12038 5.2625 2.92893 7.0711 1.80855 1.8085 4.30997 2.9289 7.07107 2.9289s5.2625-1.1204 7.0711-2.9289c1.8085-1.8086 2.9289-4.31 2.9289-7.0711s-1.1204-5.26252-2.9289-7.07107c-1.8086-1.80855-4.31-2.92893-7.0711-2.92893-.1924 0-.403-.00261-.5929.00814l1.3-1.30103c.3905-.39053.3905-1.02369 0-1.41422z" fill="currentColor"/></svg>
