<svg xmlns="http://www.w3.org/2000/svg" width="28" height="28" fill="currentColor" viewBox="0 0 28 28"><path d="M16.395 12.878c1.033-.556 2.224-.556 3.274.385.41.368.444.998.074 1.407a1.003 1.003 0 0 1-1.412.074l-.1-.082c-.298-.22-.565-.203-.886-.03a1.14 1.14 0 0 0-.176.112l-.099.078a1.003 1.003 0 0 1-1.313-.152.994.994 0 0 1 .074-1.407c.124-.111.314-.25.564-.385Zm-4.895.872a1.75 1.75 0 1 0-3.5 0 1.75 1.75 0 0 0 3.5 0Zm.982 4.384a.992.992 0 0 0-.964 1.732c.107.06.217.116.33.168a5.18 5.18 0 0 0 2.152.458c.772 0 1.507-.163 2.151-.458.114-.052.224-.108.332-.168a.992.992 0 0 0-.966-1.732 2.71 2.71 0 0 1-.19.096 3.196 3.196 0 0 1-1.327.278c-.495 0-.947-.104-1.326-.278a2.71 2.71 0 0 1-.191-.096Z"/><path fill-rule="evenodd" d="M16.5 3.5A2.5 2.5 0 0 1 15 5.792V7h2.643c1.084 0 1.958 0 2.666.058.729.06 1.369.185 1.961.487a5 5 0 0 1 2.185 2.185c.302.592.428 1.232.487 1.961.058.708.058 1.582.058 2.666v3.286c0 1.084 0 1.958-.058 2.666-.06.729-.185 1.369-.487 1.961a5 5 0 0 1-2.185 2.185c-.592.302-1.232.428-1.961.487C19.6 25 18.727 25 17.643 25h-7.286c-1.084 0-1.958 0-2.666-.058-.728-.06-1.369-.185-1.96-.487a5 5 0 0 1-2.186-2.185c-.302-.592-.428-1.232-.487-1.961C3 19.6 3 18.727 3 17.643v-3.286c0-1.084 0-1.958.058-2.666.06-.729.185-1.369.487-1.961A5 5 0 0 1 5.73 7.545c.592-.302 1.233-.428 1.961-.487C8.4 7 9.273 7 10.357 7H13V5.792A2.5 2.5 0 1 1 16.5 3.5ZM6.638 9.327c.263-.134.611-.226 1.216-.276C8.471 9.001 9.264 9 10.4 9h7.2c1.137 0 1.929 0 2.546.051.605.05.953.142 1.216.276a3 3 0 0 1 1.311 1.311c.134.263.226.611.276 1.216.05.617.051 1.41.051 2.546v3.2c0 1.137 0 1.929-.051 2.546-.05.605-.142.953-.276 1.216a3 3 0 0 1-1.311 1.311c-.263.134-.611.226-1.216.276-.617.05-1.41.051-2.546.051h-7.2c-1.137 0-1.929 0-2.546-.051-.605-.05-.953-.142-1.216-.276a3 3 0 0 1-1.311-1.311c-.134-.263-.226-.611-.276-1.216C5.001 19.529 5 18.736 5 17.6v-3.2c0-1.137 0-1.929.051-2.546.05-.605.142-.953.276-1.216a3 3 0 0 1 1.311-1.311Z" clip-rule="evenodd"/></svg>
