<svg xmlns="http://www.w3.org/2000/svg" width="28" height="28" fill="currentColor" viewBox="0 0 28 28"><path fill-rule="evenodd" d="M11.308 19.631c1.47 1.47 6.368-1.47 9.308-4.409 5.878-5.878 5.878-11.757 4.898-12.736-.98-.98-6.858-.98-12.736 4.898-2.94 2.94-5.879 7.838-4.41 9.308l2.94 2.94Zm7.08-10.02a2.015 2.015 0 1 0 2.851-2.85 2.015 2.015 0 0 0-2.85 2.85Z M8.846 24.142c-1.564 1.564-5.076 1.813-6.362 1.851a.46.46 0 0 1-.477-.477c.038-1.286.287-4.798 1.851-6.362 1.335-1.335 3.534-1.3 4.912.076 1.377 1.378 1.411 3.577.076 4.912ZM10.71 6.223c.391.078.54.56.273.855-1.313 1.447-2.563 3.187-3.406 4.817-.364.703-.676 1.432-.876 2.14-.086.305-.416.484-.709.363l-3.027-1.246a1.21 1.21 0 0 1-.394-1.973l5.028-5.03a1.21 1.21 0 0 1 1.093-.33l2.019.404Zm2.892 15.785c-.121-.293.058-.623.363-.71.708-.2 1.437-.511 2.14-.875 1.63-.843 3.37-2.093 4.817-3.406.294-.267.777-.118.855.272l.404 2.02a1.21 1.21 0 0 1-.33 1.092l-5.03 5.029a1.21 1.21 0 0 1-1.973-.395l-1.246-3.027Z"/></svg>
