<svg xmlns="http://www.w3.org/2000/svg" width="28" height="28" fill="currentColor" viewBox="0 0 28 28"><path fill-rule="evenodd" d="M19.05 11h-3.1c-1.127 0-2.045 0-2.785.072-.766.074-1.446.233-2.06.618a4.5 4.5 0 0 0-1.415 1.416c-.386.613-.544 1.293-.619 2.06C9 15.905 9 16.822 9 17.95v.1c0 1.127 0 2.045.071 2.784.075.767.233 1.447.619 2.06a4.5 4.5 0 0 0 1.416 1.416c.613.385 1.293.544 2.06.618.74.072 1.657.072 2.783.072h3.101c1.127 0 2.044 0 2.784-.072.767-.074 1.447-.233 2.06-.618a4.5 4.5 0 0 0 1.416-1.416c.385-.613.544-1.293.618-2.06.072-.74.072-1.657.072-2.784v-.1c0-1.127 0-2.045-.072-2.784-.074-.767-.233-1.447-.618-2.06a4.5 4.5 0 0 0-1.416-1.416c-.613-.385-1.293-.544-2.06-.618C21.094 11 20.177 11 19.05 11Zm2.591 2.062c.617.06.948.17 1.189.321.318.2.587.469.787.787.151.24.26.572.32 1.189C24 15.99 24 16.81 24 18s-.001 2.01-.063 2.641c-.06.617-.169.948-.32 1.19-.2.317-.47.586-.787.786-.241.151-.572.26-1.189.32C21.01 23 20.19 23 19 23h-3c-1.19 0-2.01-.001-2.642-.062-.616-.06-.947-.17-1.188-.321a2.501 2.501 0 0 1-.787-.787c-.151-.24-.261-.572-.32-1.189C11 20.01 11 19.19 11 18s0-2.01.062-2.641c.06-.617.17-.948.32-1.19.2-.317.47-.586.788-.786.24-.151.572-.26 1.188-.32C13.99 13 14.81 13 16 13h3c1.189 0 2.01.001 2.641.062ZM9.493 2.493a1 1 0 0 0 0 1.414L10.585 5H9.6A6.6 6.6 0 0 0 3 11.6V15a1 1 0 1 0 2 0v-3.4A4.6 4.6 0 0 1 9.6 7h.986L9.492 8.093a1 1 0 1 0 1.414 1.414l2.8-2.8a1 1 0 0 0 0-1.414l-2.8-2.8a1 1 0 0 0-1.414 0Z" clip-rule="evenodd"/></svg>
