<svg fill="none" height="28" viewBox="0 0 28 28" width="28" xmlns="http://www.w3.org/2000/svg" xmlns:xlink="http://www.w3.org/1999/xlink"><linearGradient id="a" gradientUnits="userSpaceOnUse" x1="-14" x2="14" y1="14" y2="42"><stop offset="0" stop-color="#70b2ff"/><stop offset="1" stop-color="#5c9ce6"/></linearGradient><path d="m0 14c0-7.73199 6.26801-14 14-14 7.732 0 14 6.26801 14 14 0 7.732-6.268 14-14 14-7.73199 0-14-6.268-14-14z" fill="url(#a)"/><path clip-rule="evenodd" d="m14.75 8c.0827.00259.1661 0 .25 0 2.2091 0 4 1.79086 4 4 0 2.1422-1.684 3.8911-3.8004 3.9951l-.1996.0049h-2.25v1.25h1.9057c.1937 0 .3384.0348.4606.1002.1222.0653.2182.1613.2835.2835.0654.1222.1002.2669.1002.4606v.0614c0 .1937-.0348.3384-.1002.4606-.0653.1222-.1613.2182-.2835.2835-.1222.0654-.2669.1002-.4606.1002h-1.9057v.6557c0 .1937-.0348.3384-.1002.4606-.0653.1222-.1613.2182-.2835.2835-.1222.0654-.2669.1002-.4606.1002h-.0614c-.1937 0-.3384-.0348-.4606-.1002-.1222-.0653-.2182-.1613-.2835-.2835-.0654-.1222-.1002-.2669-.1002-.4606v-.6557h-.6557c-.1937 0-.3384-.0348-.46062-.1002-.12222-.0653-.21814-.1613-.28351-.2835-.06536-.1222-.10017-.2669-.10017-.4606v-.0614c0-.1937.03481-.3384.10017-.4606.06537-.1222.16129-.2182.28351-.2835.12222-.0654.26692-.1002.46062-.1002h.6557v-1.25h-.6557c-.1937 0-.3384-.0348-.46062-.1002-.12222-.0653-.21814-.1613-.28351-.2835-.06536-.1222-.10017-.2669-.10017-.4606v-.0614c0-.1937.03481-.3384.10017-.4606.06537-.1222.16129-.2182.28351-.2835.12222-.0654.26692-.1002.46062-.1002h.6557v-5.49361c0-.08202.0079-.11595.0227-.14623.0168-.09732.0429-.16176.0775-.22648.0653-.12222.1613-.21814.2835-.28351.1222-.06536.2434-.10017.5778-.10017zm.25 1.75h-2.25v4.5h2.25c1.2426 0 2.25-1.0074 2.25-2.25s-1.0074-2.25-2.25-2.25z" fill="#fff" fill-rule="evenodd"/></svg>
