<svg xmlns="http://www.w3.org/2000/svg" width="28" height="28" fill="currentColor" viewBox="0 0 28 28"><path fill-rule="evenodd" d="M14.018 5.5c-2.588 0-4.915.875-6.612 2.27a1 1 0 1 1-1.27-1.545C8.203 4.526 10.983 3.5 14.018 3.5c3.036 0 5.815 1.026 7.883 2.725a1 1 0 1 1-1.27 1.545c-1.697-1.395-4.024-2.27-6.613-2.27Zm-9.09 14.564a1 1 0 0 1 .583 1.289c-.204.54-.442 1.078-.67 1.58 2.056-.218 3.405-.876 4.219-1.833a1 1 0 0 1 1.113-.289 10.94 10.94 0 0 0 3.845.687c1.97 0 3.791-.507 5.298-1.367a1 1 0 1 1 .99 1.738c-1.812 1.033-3.975 1.629-6.288 1.629-1.373 0-2.693-.21-3.918-.597C8.656 24.25 6.556 24.898 3.988 25c-1.046.041-1.8-1.047-1.363-2.021l.27-.597c.263-.577.522-1.144.744-1.734a1 1 0 0 1 1.288-.583Zm-.48 3.735.002-.004-.001.004Z" clip-rule="evenodd"/><path d="m1.596 16.023-.252 1.273c-.016.07-.022.172-.022.242 0 .355.231.585.629.585.43 0 .687-.214.773-.666l.285-1.434h1.214l-.258 1.273c-.016.07-.022.172-.022.242 0 .355.231.585.629.585.43 0 .687-.214.773-.67l.29-1.43h.677c.505 0 .811-.295.811-.757 0-.365-.252-.601-.66-.601h-.564l.23-1.188h.677c.505 0 .806-.295.806-.751 0-.366-.247-.597-.66-.597h-.554l.236-1.176c.017-.07.022-.172.022-.242 0-.354-.231-.585-.629-.585-.43 0-.687.215-.773.671l-.269 1.332H3.782l.231-1.176c.016-.07.027-.172.027-.242 0-.354-.236-.585-.634-.585-.43 0-.687.215-.773.671l-.274 1.332h-.66c-.506 0-.812.296-.812.758 0 .36.253.601.661.601h.548l-.231 1.187H1.21c-.505 0-.806.296-.806.752 0 .366.247.596.66.596h.532Zm1.536-1.213.296-1.472h1.434l-.3 1.472h-1.43Zm8.158 3.324c.296 0 .473-.113.672-.419l2.256-3.432 2.03-3.067c.108-.16.172-.311.172-.472 0-.371-.285-.634-.666-.634-.36 0-.526.134-.725.435l-2.16 3.303-2.115 3.18a.824.824 0 0 0-.162.494c0 .381.35.612.699.612Zm-.94-3.588c1.215 0 1.993-.837 1.993-2.234 0-1.413-.79-2.202-1.992-2.202-1.198 0-1.993.79-1.993 2.207 0 1.402.784 2.23 1.993 2.23Zm0-1.133c-.262 0-.456-.29-.456-1.096 0-.816.188-1.074.457-1.074.268 0 .456.258.456 1.074 0 .806-.188 1.096-.456 1.096Zm6.344 4.721c1.214 0 1.993-.838 1.993-2.234 0-1.413-.79-2.202-1.993-2.202-1.198 0-1.993.79-1.993 2.207 0 1.402.784 2.23 1.993 2.23Zm0-1.133c-.263 0-.456-.29-.456-1.096 0-.816.188-1.074.456-1.074.269 0 .457.258.457 1.074 0 .806-.188 1.096-.457 1.096Zm9.141 1.122c.43 0 .73-.322.73-.682 0-.188-.048-.338-.279-.58l-.386-.402c.413-.532.666-1.338.666-2.138 0-.473-.274-.817-.763-.817s-.741.296-.757.811c-.011.452-.092.763-.237 1.01l-1.24-1.337c1.015-.564 1.52-1.236 1.52-2.03 0-1.064-.924-1.794-2.267-1.794-1.337 0-2.32.778-2.32 1.842 0 .57.258 1.047.961 1.762-.01 0-.333.182-.376.204-.967.542-1.391 1.15-1.391 2.02 0 1.331 1.058 2.153 2.76 2.153.951 0 1.822-.263 2.353-.714l.35.365c.23.247.402.328.676.328Zm-3.099-4.968c-.489-.462-.66-.73-.66-1.053 0-.43.316-.746.757-.746.435 0 .741.312.741.746 0 .425-.258.747-.838 1.053Zm-.08 3.674c-.731 0-1.225-.397-1.225-.999 0-.414.193-.709.671-1.015.043-.027.135-.075.194-.097l1.557 1.67c-.236.275-.709.441-1.198.441Z"/></svg>
