<svg width="28" height="28" xmlns="http://www.w3.org/2000/svg"><g fill="none" fill-rule="evenodd"><path d="M0 0L28 0 28 28 0 28z"/><g transform="translate(2.333 2.333)"><path d="M11.5 0C17.851 0 23 5.149 23 11.5S17.851 23 11.5 23 0 17.851 0 11.5 5.149 0 11.5 0zm0 2a9.5 9.5 0 1 0 0 19 9.5 9.5 0 0 0 0-19z" fill="currentColor" fill-rule="nonzero"/><path d="M9.63 9.753L7.055 15.82a.35.35 0 0 0 .459.46l6.066-2.575a.233.233 0 0 0 .123-.124l2.574-6.066a.35.35 0 0 0-.458-.459L9.753 9.63a.233.233 0 0 0-.123.123z" stroke="currentColor" stroke-width="1.75"/></g></g></svg>
