<svg xmlns="http://www.w3.org/2000/svg" width="28" height="28" fill="none" viewBox="0 0 28 28"><path fill="currentColor" d="M17.0438 4h-6.0876c-1.363 0-2.447 0-3.3216.0714-.8956.0732-1.6593.2263-2.3585.5826A6 6 0 0 0 2.654 7.276c-.246.4827-.395.9954-.4878 1.5622-.0894.545.28 1.0593.825 1.1486.545.0894 1.0593-.28 1.1486-.825.0684-.4173.1658-.722.2962-.9778a4 4 0 0 1 1.748-1.748c.3704-.1887.8415-.3081 1.6134-.3712C8.581 6.0008 9.5834 6 11 6h6c1.4166 0 2.419.0008 3.2026.0648.7719.063 1.2431.1825 1.6134.3712a4.0002 4.0002 0 0 1 1.748 1.748c.1887.3704.3081.8415.3712 1.6134.064.7836.0648 1.786.0648 3.2026v2c0 1.4166-.0008 2.419-.0648 3.2026-.0631.7719-.1825 1.2431-.3712 1.6134a4.0003 4.0003 0 0 1-1.748 1.748c-.3703.1887-.8415.3081-1.6134.3712C19.419 21.9992 18.4166 22 17 22c-.5523 0-1 .4477-1 1s.4477 1 1 1h.0438c1.363 0 2.4471 0 3.3216-.0714.8956-.0732 1.6593-.2263 2.3585-.5826a5.9993 5.9993 0 0 0 2.6221-2.6221c.3563-.6992.5094-1.4629.5826-2.3585C26 17.4909 26 16.4069 26 15.0439v-2.0877c0-1.363 0-2.4471-.0714-3.3216-.0732-.8956-.2263-1.6593-.5826-2.3585a5.9997 5.9997 0 0 0-2.6221-2.6221c-.6992-.3563-1.4629-.5094-2.3585-.5826C19.4908 4 18.4068 4 17.0438 4ZM6 22c0 1.1046-.8954 2-2 2s-2-.8954-2-2 .8954-2 2-2 2 .8954 2 2Z"/><path fill="currentColor" d="M4 18a4.029 4.029 0 0 0-.801.08c-.5413.1099-1.0692-.2398-1.179-.781-.11-.5413.2397-1.0691.781-1.179A6.0245 6.0245 0 0 1 4 16c3.3138 0 6.0001 2.6863 6.0001 6 0 .4097-.0412.8107-.12 1.1989-.11.5413-.6378.891-1.179.7811s-.891-.6377-.781-1.1789c.0523-.258.08-.5258.08-.8011 0-2.2091-1.7909-4-4-4Z"/><path fill="currentColor" d="M3.1097 14.0489a8.0898 8.0898 0 0 1 .89-.0489c4.4183 0 8 3.5817 8 8a8.116 8.116 0 0 1-.0488.8901c-.0607.549.3351 1.0432.884 1.1038.549.0607 1.0432-.3351 1.1039-.884.0403-.3648.0609-.7351.0609-1.1099 0-5.5228-4.4771-10-10-10-.3747 0-.745.0207-1.1097.061-.549.0606-.9448.5548-.8841 1.1038.0607.5489.5549.9447 1.1038.8841Z"/></svg>
