<svg xmlns="http://www.w3.org/2000/svg" width="28" height="28" fill="currentColor" viewBox="0 0 28 28"><path d="M4 20a2 2 0 1 1 0 4 2 2 0 0 1 0-4Zm0-4a6 6 0 0 1 5.88 7.2 1 1 0 0 1-1.96-.4 4 4 0 0 0-4.722-4.72 1 1 0 0 1-.397-1.96c.388-.079.79-.12 1.2-.12Zm0-4c5.522 0 10 4.477 10 10 0 .375-.02.746-.061 1.11a1 1 0 0 1-1.988-.22 8 8 0 0 0-8.84-8.84 1 1 0 0 1-.221-1.99c.365-.04.735-.06 1.11-.06Zm13.043-8c1.363 0 2.448 0 3.323.071.895.073 1.659.227 2.358.583a6 6 0 0 1 2.622 2.622c.356.7.509 1.463.582 2.359.072.874.072 1.958.072 3.321v2.088c0 1.363 0 2.447-.072 3.321-.073.896-.226 1.66-.582 2.359a6 6 0 0 1-2.622 2.622c-.7.356-1.463.51-2.358.583-.875.071-1.96.071-3.323.071H17a1 1 0 1 1 0-2c1.417 0 2.419 0 3.203-.064.771-.063 1.242-.183 1.613-.372a4.001 4.001 0 0 0 1.748-1.747c.189-.37.308-.843.37-1.615C24 17.42 24 16.416 24 15v-2c0-1.416-.001-2.419-.065-3.202-.063-.772-.182-1.244-.371-1.614a4.001 4.001 0 0 0-1.748-1.748c-.37-.189-.842-.308-1.613-.372C19.419 6 18.416 6 17 6h-6c-1.416 0-2.42 0-3.203.064-.771.064-1.243.183-1.613.372a4.001 4.001 0 0 0-1.748 1.748c-.13.255-.228.56-.296.978a1 1 0 0 1-1.974-.324 5.24 5.24 0 0 1 .488-1.562 6.001 6.001 0 0 1 2.622-2.622c.699-.356 1.463-.51 2.358-.583C8.51 4 9.594 4 10.956 4h6.087ZM18.8 8c1.12 0 1.68 0 2.108.218a2 2 0 0 1 .874.874C22 9.52 22 10.08 22 11.2v5.6c0 1.12 0 1.68-.218 2.108a2.002 2.002 0 0 1-.874.874C20.48 20 19.92 20 18.8 20h-2.09c-.335 0-.503 0-.633-.055a.662.662 0 0 1-.289-.224c-.084-.113-.13-.29-.22-.647-1.07-4.227-4.409-7.566-8.662-8.678-.37-.096-.556-.144-.687-.268a.817.817 0 0 1-.21-.41c-.026-.178.013-.282.091-.488a2 2 0 0 1 .936-1.012C7.463 8 8.024 8 9.144 8H18.8Z"/></svg>