<svg xmlns="http://www.w3.org/2000/svg" width="28" height="28" fill="none" viewBox="0 0 28 28"><path fill="currentColor" d="M17.0436 4h-6.0875c-1.363 0-2.4471 0-3.3217.0714-.8956.0732-1.6593.2263-2.3585.5826a6 6 0 0 0-2.6221 2.622c-.214.42-.3535.8705-.4462 1.3315a1.8557 1.8557 0 0 0-.0262.161 1.1026 1.1026 0 0 0 .0563.4933 1.099 1.099 0 0 0 .5028.5907c.2124.1175.4105.131.4847.1346L4.1665 10C10.4578 10 16 15.3623 16 21.8333c0 0 .0081 1.041.0102 1.1015.0025.0698.0125.2431.1038.4359a1.097 1.097 0 0 0 .4827.5031c.1857.0976.3551.1159.4284.1217A1.898 1.898 0 0 0 17.176 24c1.3274-.0001 2.3872-.0022 3.2464-.0762.8709-.075 1.6169-.2289 2.3015-.5778a6.0004 6.0004 0 0 0 2.6221-2.6221c.3563-.6992.5093-1.4629.5825-2.3585.0714-.8745.0714-1.9585.0714-3.3215v-2.0877c0-1.363 0-2.4471-.0714-3.3216-.0732-.8956-.2262-1.6593-.5825-2.3585a6.0007 6.0007 0 0 0-2.6221-2.6221c-.6993-.3563-1.4629-.5094-2.3585-.5826C19.4907 4 18.4066 4 17.0436 4ZM6 22c0 1.1046-.8954 2-2 2s-2-.8954-2-2 .8954-2 2-2 2 .8954 2 2Z"/><path fill="currentColor" d="M4.0001 18a4.029 4.029 0 0 0-.8011.08c-.5413.1099-1.0691-.2398-1.179-.781-.1099-.5413.2398-1.0691.781-1.179A6.0245 6.0245 0 0 1 4.0002 16c3.3137 0 6 2.6863 6 6 0 .4097-.0412.8107-.12 1.1989-.1098.5413-.6377.891-1.179.7811-.5412-.1099-.8909-.6377-.781-1.1789a4.021 4.021 0 0 0 .08-.8011c0-2.2091-1.7908-4-4-4Z"/><path fill="currentColor" d="M3.1099 14.0489a8.09 8.09 0 0 1 .89-.0489c4.4183 0 8 3.5817 8 8a8.116 8.116 0 0 1-.0488.8901c-.0607.549.3351 1.0432.884 1.1038.549.0607 1.0432-.3351 1.1038-.884.0404-.3648.061-.7351.061-1.1099 0-5.5228-4.4771-10-10-10-.3747 0-.745.0207-1.1097.061-.549.0606-.9448.5548-.8841 1.1038.0607.5489.5549.9447 1.1038.8841Z"/></svg>
