<svg xmlns="http://www.w3.org/2000/svg" width="28" height="28" fill="none" viewBox="0 0 28 28"><path fill="currentColor" d="M13.6369 1.2617c.1163-.349.6099-.349.7262 0l.2912.8736a1.9138 1.9138 0 0 0 1.2104 1.2104l.8736.2912c.3489.1163.3489.6099 0 .7262l-.8736.2912a1.9138 1.9138 0 0 0-1.2104 1.2104l-.2912.8736c-.1163.349-.6099.349-.7262 0l-.2912-.8736a1.9138 1.9138 0 0 0-1.2104-1.2104l-.8736-.2912c-.3489-.1163-.3489-.6099 0-.7262l.8736-.2912a1.9138 1.9138 0 0 0 1.2104-1.2104l.2912-.8736Zm6.7578 3.1745c.1939-.5816 1.0166-.5816 1.2104 0l.4854 1.456a3.1896 3.1896 0 0 0 2.0173 2.0173l1.456.4853c.5816.1939.5816 1.0165 0 1.2104l-1.456.4853a3.1896 3.1896 0 0 0-2.0173 2.0174l-.4854 1.4559c-.1938.5816-1.0165.5816-1.2104 0l-.4853-1.4559a3.1896 3.1896 0 0 0-2.0173-2.0174l-1.4559-.4853c-.5816-.1939-.5816-1.0165 0-1.2104l1.4559-.4853a3.1896 3.1896 0 0 0 2.0173-2.0174l.4853-1.4559Zm-.363 14.1813a8.9924 8.9924 0 0 0 .8399-1.2541c.2677-.483.0932-1.0916-.3898-1.3594-.4831-.2677-1.0917-.0932-1.3595.3898a6.9988 6.9988 0 0 1-5.0514 3.5239 6.9994 6.9994 0 0 1-7.6276-4.4661 6.9998 6.9998 0 0 1 2.8266-8.3748c.4673-.2943.6076-.9117.3133-1.379-.2943-.4674-.9117-.6077-1.379-.3134a9 9 0 1 0 10.4133 14.6473l4.6754 4.6754c.3905.3905 1.0237.3905 1.4142 0 .3905-.3905.3905-1.0237 0-1.4142l-4.6754-4.6754Z"/></svg>
