<svg fill="none" height="28" viewBox="0 0 28 28" width="28" xmlns="http://www.w3.org/2000/svg"><g fill="currentColor"><path clip-rule="evenodd" d="m12 6.90022c0-2.1671 1.7753-3.90022 3.9219-3.90022.9726 0 1.8336.33622 2.5735.93721.7375-.60309 1.6023-.93721 2.5827-.93721 2.1466 0 3.9219 1.73312 3.9219 3.90022 0 1.1269-.3058 2.01804-1.0312 2.91613-.6652.82355-1.6939 1.66135-3.0753 2.74255l-.0031.0025-1.4289 1.1093c-.5656.4391-1.3574.4391-1.923 0l-1.4289-1.1093-.0031-.0025c-1.3814-1.0812-2.4101-1.919-3.0753-2.74255-.7254-.89809-1.0312-1.78923-1.0312-2.91613zm3.9219-1.90022c-1.0618 0-1.9219.85737-1.9219 1.90022 0 .67518.1525 1.12151.587 1.65946.4945.61223 1.3268 1.30871 2.7506 2.42312l.0015.0012 1.1609.9012 1.1609-.9012.0015-.0013c1.4238-1.11433 2.2561-1.81079 2.7506-2.42302.4344-.53795.587-.98428.587-1.65946 0-1.04285-.8601-1.90022-1.9219-1.90022-.6386 0-1.2283.2699-1.7993.97881-.1887.23431-.4729.3712-.7737.37274-.3008.00153-.5864-.13246-.7775-.36483-.5916-.71946-1.1856-.98672-1.8057-.98672z" fill-rule="evenodd"/><path d="m9.54851 6.90846c.48019-.27276.64839-.88318.37564-1.36341-.27277-.48022-.88319-.6484-1.36342-.37563-2.72135 1.54573-4.56073 4.47271-4.56073 7.83058 0 4.9706 4.02944 9 9 9 2.1256 0 4.0784-.737 5.6176-1.9682l4.6753 4.6753c.3905.3905 1.0237.3905 1.4142 0s.3905-1.0237 0-1.4142l-4.6753-4.6753c.3566-.4459.6717-.9263.9393-1.4354.257-.4889.069-1.0935-.4199-1.3505-.4889-.2569-1.0935-.0689-1.3504.4199-1.1725 2.2307-3.5102 3.7484-6.2008 3.7484-3.86599 0-7-3.134-7-7 0-2.6094 1.42728-4.88667 3.54851-6.09154z"/></g></svg>
