<svg xmlns="http://www.w3.org/2000/svg" width="28" height="28" fill="currentColor" viewBox="0 0 28 28"><path fill-rule="evenodd" d="M13.5 27c.969 0 1.914-.102 2.824-.296.324-.069.475-.437.334-.736a7 7 0 0 1 9.31-9.31c.3.14.667-.01.736-.334.194-.91.296-1.855.296-2.824C27 6.044 20.956 0 13.5 0S0 6.044 0 13.5 6.044 27 13.5 27Zm9.5-9c1.07 0 2.06.336 2.873.908A5 5 0 1 1 23 18Zm-.687 5.727c.07.066.15.123.24.167l2 1a1 1 0 1 0 .894-1.788L24 22.382V21a1 1 0 1 0-2 0v2a1 1 0 0 0 .313.727Zm-8.106-16.72a1 1 0 0 0-1.414 0L7.97 11.83a1 1 0 1 0 1.415 1.414l3.114-3.114v9.157a1 1 0 1 0 2 0V10.13l3.114 3.114a1 1 0 0 0 1.415-1.414l-4.822-4.822Z" clip-rule="evenodd"/></svg>
