<svg xmlns="http://www.w3.org/2000/svg" width="28" height="28" fill="currentColor" viewBox="0 0 28 28"><path fill-rule="evenodd" d="M19 15a6 6 0 1 1 0 12 6 6 0 0 1 0-12Zm0 2.25a.75.75 0 0 0-.75.75v2.92c0 .276.151.53.393.66l2 1.08.07.033a.75.75 0 0 0 .709-1.313l-.066-.04-1.606-.868V18a.75.75 0 0 0-.75-.75Z" clip-rule="evenodd"/><path d="M6.749 3.062a2.529 2.529 0 0 1 1.26.04c.469.13.978.392 1.402.62 1.595.854 9.235 4.853 12.415 6.522l.905.475c.592.31 1.141.595 1.55.834.207.121.434.262.642.421.19.146.485.397.718.767a2.284 2.284 0 0 1 .001 2.456c-.24.379-.761.383-1.113.106l-.292-.232c-.353-.28-.05-.885-.29-1.267-.143-.228-.578-.486-1.312-.877l-.834-.439c-.296-.155-.716-.377-1.227-.644-2.378-1.248-6.72-3.52-9.584-5.027L8.467 5.484C6.68 4.527 6.898 4.954 7.42 7.08c.168.686.583 1.871 1.241 3.555.458 1.173 1.518 2.032 2.796 2.268.169.031.813.16 1.605.32 1.126.226 1.69.34 1.804.526a.502.502 0 0 1-.002.523l-.027.034c-.161.167-.724.276-1.78.48-.778.152-1.416.275-1.613.311l-.237.052c-1.175.294-2.135 1.121-2.564 2.225l-.441 1.16a48.316 48.316 0 0 0-.346.963c-.08.234-.152.449-.215.643l-.001.001c-.096.299-.17.551-.22.757-.49 1.993-.854 2.539.707 1.767l.339-.172c.4-.208 1.119-.588 2.025-1.067a1.001 1.001 0 0 1 .936 1.77c-.91.48-1.634.861-2.04 1.072-.458.238-.982.498-1.445.627-.21.059-.712.183-1.292.036a2.167 2.167 0 0 1-1.538-1.449 2.634 2.634 0 0 1-.09-1.114c.026-.223.074-.444.117-.623h-.001l.006-.026c.046-.19.103-.405.158-.61l.053-.21.04-.155v-.001c.027-.104.056-.21.083-.322.202-.819.654-2.105 1.3-3.77a5.614 5.614 0 0 1 2.156-2.656A5.614 5.614 0 0 1 6.8 11.363c-.656-1.678-1.116-2.977-1.32-3.807-.117-.477-.25-.982-.326-1.358a5.049 5.049 0 0 1-.097-.687 2.59 2.59 0 0 1 .171-1.143A2.185 2.185 0 0 1 6.75 3.062Z"/></svg>