<svg fill="none" height="28" viewBox="0 0 28 28" width="28" xmlns="http://www.w3.org/2000/svg" xmlns:xlink="http://www.w3.org/1999/xlink"><linearGradient id="a" gradientUnits="userSpaceOnUse" x1="-14" x2="14" y1="14" y2="42"><stop offset="0" stop-color="#b1b6bd"/><stop offset="1" stop-color="#99a2ad"/></linearGradient><path d="m0 14c0-7.73199 6.26801-14 14-14 7.732 0 14 6.26801 14 14 0 7.732-6.268 14-14 14-7.73199 0-14-6.268-14-14z" fill="url(#a)"/><path d="m10.1591 16.6279c-.45708 1.2984-.74431 2.2107-.86169 2.7368-.3689 1.6535-.63713 2.0259.73779 1.2401 1.3749-.7858 8.0311-4.6785 9.5161-5.5436 1.9358-1.1277 1.9617-1.0396-.1039-2.2369-1.5731-.912-8.1513-4.70314-9.4122-5.44753-1.26095-.74439-1.10669-.41337-.73779 1.24013.1189.53295.4103 1.4534.87419 2.7612.3245.9147 1.0792 1.586 1.9919 1.7716l3.843.7817c.0361.0075.0595.0444.0523.0823-.0053.0277-.0259.0494-.0523.0549l-3.8517.7809c-.9156.1856-1.6724.86-1.9957 1.7784z" fill="#fff"/></svg>
