<svg xmlns="http://www.w3.org/2000/svg" width="28" height="28" fill="currentColor" viewBox="0 0 28 28"><path fill-rule="evenodd" d="M6.934 16.623c-.763 2.044-1.242 3.48-1.438 4.307-.08.34-.159.647-.228.919-.457 1.802-.534 2.103 1.457 1.03a822.4 822.4 0 0 0 3.807-2.08c.39-.215.657-.594.78-1.021a8.004 8.004 0 0 1 9.927-5.46c.427.124.889.101 1.278-.113l.069-.037.383-.21c1.34-.734 2.027-1.11 2.031-1.492.004-.4-.743-.807-2.273-1.642l-.315-.172c-.83-.453-2.494-1.36-4.449-2.424-4.224-2.3-9.801-5.336-11.238-6.136-1.96-1.09-1.868-.712-1.349 1.45l.12.499c.198.838.685 2.287 1.46 4.346a4.4 4.4 0 0 0 3.289 2.772l6.432 1.233a.11.11 0 0 1 0 .216L10.23 13.84a4.4 4.4 0 0 0-3.296 2.783ZM25 22a6 6 0 1 1-12 0 6 6 0 0 1 12 0Zm-6-3.5a1 1 0 0 1 1 1v1.823l1.871.748a1 1 0 0 1-.742 1.857l-2.5-1A1 1 0 0 1 18 22v-2.5a1 1 0 0 1 1-1Z" clip-rule="evenodd"/></svg>
