<svg xmlns="http://www.w3.org/2000/svg" width="28" height="28" fill="none" viewBox="0 0 28 28"><rect width="28" height="28" fill="url(#a)" rx="14"/><path fill="#fff" d="M11.398 15c.557 0 .759.058.963.167.203.109.363.269.472.473.109.203.167.405.167.962v1.796c0 .557-.058.759-.167.962a1.135 1.135 0 0 1-.473.473c-.203.109-.405.167-.962.167H9.602c-.557 0-.759-.058-.963-.167a1.136 1.136 0 0 1-.472-.473c-.109-.203-.167-.405-.167-.962v-1.796c0-.557.058-.759.167-.963.109-.203.269-.363.472-.472.204-.109.406-.167.963-.167h1.796Zm7 0c.557 0 .759.058.962.167.204.109.364.269.473.473.109.203.167.405.167.962v1.796c0 .557-.058.759-.167.962a1.135 1.135 0 0 1-.473.473c-.203.109-.405.167-.962.167h-1.796c-.557 0-.759-.058-.963-.167a1.135 1.135 0 0 1-.472-.473c-.109-.203-.167-.405-.167-.962v-1.796c0-.557.058-.759.167-.963.109-.203.269-.363.473-.472.203-.109.405-.167.962-.167h1.796Zm-.564-7.465c.221.067.405.169.8.563l1.268 1.269c.394.394.496.578.563.799.067.22.067.447 0 .668-.067.221-.169.405-.563.8l-1.269 1.268c-.394.394-.578.496-.799.563a1.136 1.136 0 0 1-.668 0c-.221-.067-.405-.169-.8-.563l-1.268-1.269c-.394-.394-.496-.578-.563-.799a1.136 1.136 0 0 1 0-.668c.067-.221.169-.405.563-.8l1.269-1.268c.394-.394.578-.496.799-.563.221-.067.447-.067.668 0ZM11.398 8c.557 0 .759.058.963.167.203.109.363.269.472.472.109.204.167.406.167.963v1.796c0 .557-.058.759-.167.963a1.135 1.135 0 0 1-.473.472c-.203.109-.405.167-.962.167H9.602c-.557 0-.759-.058-.963-.167a1.136 1.136 0 0 1-.472-.473c-.109-.203-.167-.405-.167-.962V9.602c0-.557.058-.759.167-.963.109-.203.269-.363.472-.472.204-.109.406-.167.963-.167h1.796Z"/><defs><linearGradient id="a" x1="-14" x2="14" y1="14" y2="42" gradientUnits="userSpaceOnUse"><stop stop-color="#FFB73D"/><stop offset="1" stop-color="#FFA000"/></linearGradient></defs></svg>
