<svg fill="none" height="28" viewBox="0 0 28 28" width="28" xmlns="http://www.w3.org/2000/svg"><path clip-rule="evenodd" d="m11.96 2h-.0307c-.421-.00001-.7843-.00002-1.0852.0197-.3167.02075-.6338.06637-.94847.19097-.77019.30494-1.38001.91477-1.68495 1.68496-.12461.31471-.17023.6318-.19098.94851-.00329.05022-.00603.10218-.00831.15586h-1.66384-.03125c-.27903-.00002-.53675-.00003-.73935.01336l-.00262.00017c-.15643.01034-.52789.03488-.84425.25478-.56071.38972-.78743 1.10897-.55158 1.74979.13308.36156.42331.59469.54554.69286l.00205.00165c.15829.12715.36945.27495.59806.43495l.02558.0179 2.65028 1.85524v.9793h-1.65246-.03132-.00003-.00003-.00003c-.27897 0-.53663 0-.73919.0134l-.00262.0001c-.15643.0104-.52789.0349-.84425.2548-.56071.3897-.78743 1.109-.55158 1.7498.13308.3616.42331.5947.54554.6929l.00205.0016c.15829.1272.36944.2749.59804.4349l.0256.018 2.65028 1.8552v.9793h-1.65245-.03133-.00003-.00003-.00002c-.27897 0-.53664 0-.7392.0134l-.00262.0001c-.15643.0104-.52789.0349-.84425.2548-.56071.3897-.78743 1.109-.55158 1.7498.13308.3616.42332.5947.54555.6929l.00204.0016c.15821.1271.36942.2749.59788.4348l.00021.0002.02555.0179 2.65028 1.8552v.0193.0307c-.00002.421-.00003.7842.01969 1.0852.02075.3167.06637.6338.19098.9485.30494.7702.91476 1.38 1.68495 1.6849.31467.1246.63177.1703.94847.191.3009.0197.6643.0197 1.0852.0197h.0307 4.08.0308c.421 0 .7842 0 1.0851-.0197.3167-.0207.6338-.0664.9485-.191.7702-.3049 1.38-.9147 1.6849-1.6849.1246-.3147.1703-.6318.191-.9485.0197-.3009.0197-.6642.0197-1.0852v-.0307-.0193l2.6503-1.8552.0255-.0179c.2287-.16.4398-.3078.5981-.435l.0021-.0016c.1222-.0982.4124-.3313.5455-.6929.2359-.6408.0091-1.3601-.5516-1.7498-.3163-.2199-.6878-.2444-.8442-.2548l-.0026-.0001c-.2026-.0134-.4604-.0134-.7393-.0134h-.0001-.0312-1.6525v-.9793l2.6503-1.8552.0256-.018c.2286-.16.4397-.3077.598-.4349l.0021-.0016c.1222-.0982.4124-.3313.5455-.6929.2359-.6408.0091-1.3601-.5516-1.7498-.3163-.2199-.6878-.2444-.8442-.2548l-.0026-.0001c-.2026-.0134-.4604-.0134-.7393-.0134h-.0001-.0312-1.6525v-.9793l2.6503-1.85523.0256-.01793c.2286-.16.4397-.30778.598-.43493l.0021-.00164c.1222-.09818.4124-.3313.5455-.69287.2359-.64082.0091-1.36007-.5516-1.74979-.3163-.2199-.6878-.24444-.8442-.25478l-.0026-.00017c-.2026-.01339-.4604-.01338-.7394-.01336h-.0312-1.6639c-.0023-.05368-.005-.10564-.0083-.15586-.0207-.31671-.0664-.6338-.191-.94851-.3049-.77019-.9147-1.38002-1.6849-1.68496-.3147-.1246-.6318-.17022-.9485-.19097-.3009-.01972-.6642-.01971-1.0852-.0197h-.0307zm-1.3281 2.07023c.04-.01585.1239-.04045.343-.05481.2277-.01492.5248-.01542.9851-.01542h4.08c.4603 0 .7575.0005.9851.01542.2192.01436.303.03896.343.05481.2568.10164.46.30492.5617.56165.0158.04001.0404.12387.0548.34303.0149.22765.0154.5248.0154.98509v.04c0 .55229.4477 1 1 1h1.8276l-2.4011 1.68077c-.2673.18713-.4265.49292-.4265.81924v2.49999c0 .5523.4477 1 1 1h1.8276l-2.4011 1.6808c-.2673.1871-.4265.4929-.4265.8192v2.5c0 .5523.4477 1 1 1h1.8276l-2.4011 1.6808c-.2673.1871-.4265.4929-.4265.8192v.54c0 .4603-.0005.7575-.0154.9851-.0144.2192-.039.303-.0548.343-.1017.2568-.3049.46-.5617.5617-.04.0158-.1238.0404-.343.0548-.2276.0149-.5248.0154-.9851.0154h-4.08c-.4603 0-.7574-.0005-.9851-.0154-.2191-.0144-.303-.039-.343-.0548-.2567-.1017-.46-.3049-.5617-.5617-.0158-.04-.0404-.1238-.0548-.343-.0149-.2276-.0154-.5248-.0154-.9851v-.54c0-.3263-.1592-.6321-.42653-.8192l-2.4011-1.6808h1.82764c.55228 0 .99999-.4477.99999-1v-2.5c0-.3263-.1592-.6321-.42653-.8192l-2.4011-1.6808h1.82764c.55228 0 .99999-.4477.99999-1v-2.49999c0-.32632-.1592-.63211-.42653-.81924l-2.4011-1.68077h1.82764c.55228 0 .99999-.44771.99999-1v-.04c0-.46029.0005-.75744.0154-.98509.0144-.21916.039-.30302.0548-.34303.1017-.25673.305-.46001.5617-.56165zm3.3681 5.92977c.8284 0 1.5-.67157 1.5-1.5s-.6716-1.5-1.5-1.5-1.5.67157-1.5 1.5.6716 1.5 1.5 1.5zm1.5 4c0 .8284-.6716 1.5-1.5 1.5s-1.5-.6716-1.5-1.5.6716-1.5 1.5-1.5 1.5.6716 1.5 1.5zm-1.5 7c.8284 0 1.5-.6716 1.5-1.5s-.6716-1.5-1.5-1.5-1.5.6716-1.5 1.5.6716 1.5 1.5 1.5z" fill="currentColor" fill-rule="evenodd"/>
</svg>