<svg fill="none" height="28" viewBox="0 0 28 28" width="28" xmlns="http://www.w3.org/2000/svg" xmlns:xlink="http://www.w3.org/1999/xlink"><linearGradient id="a" gradientUnits="userSpaceOnUse" x1="-14" x2="14" y1="14" y2="42"><stop offset="0" stop-color="#70b2ff"/><stop offset="1" stop-color="#5c9ce6"/></linearGradient><path d="m0 14c0-7.73199 6.26801-14 14-14 7.732 0 14 6.26801 14 14 0 7.732-6.268 14-14 14-7.73199 0-14-6.268-14-14z" fill="url(#a)"/><path d="m11.3976 15c.5572 0 .7592.058.9629.167.2037.1089.3636.2688.4725.4725.109.2037.167.4057.167.9629v1.7952c0 .5572-.058.7592-.167.9629-.1089.2037-.2688.3636-.4725.4725-.2037.109-.4057.167-.9629.167h-1.79517c-.5572 0-.75926-.058-.96296-.167-.2037-.1089-.36357-.2688-.47251-.4725s-.16696-.4057-.16696-.9629v-1.7952c0-.5572.05802-.7592.16696-.9629s.26881-.3636.47251-.4725c.2037-.109.40576-.167.96296-.167zm7 0c.5572 0 .7592.058.9629.167.2037.1089.3636.2688.4725.4725.109.2037.167.4057.167.9629v1.7952c0 .5572-.058.7592-.167.9629-.1089.2037-.2688.3636-.4725.4725-.2037.109-.4057.167-.9629.167h-1.7952c-.5572 0-.7592-.058-.9629-.167-.2037-.1089-.3636-.2688-.4725-.4725-.109-.2037-.167-.4057-.167-.9629v-1.7952c0-.5572.058-.7592.167-.9629.1089-.2037.2688-.3636.4725-.4725.2037-.109.4057-.167.9629-.167zm-.5635-7.46531c.2211.06701.405.16886.799.56286l1.2693 1.26936c.394.39399.4959.57789.5629.79899.067.221.067.4471 0 .6682s-.1689.405-.5629.799l-1.2693 1.2693c-.394.394-.5779.4959-.799.5629s-.4471.067-.6682 0-.405-.1689-.799-.5629l-1.2693-1.2693c-.394-.394-.4959-.5779-.5629-.799s-.067-.4472 0-.6682c.067-.2211.1689-.405.5629-.79899l1.2693-1.26936c.394-.394.5779-.49585.799-.56286s.4471-.06701.6682 0zm-6.4365.4653c.5572 0 .7592.05802.9629.16696s.3636.26881.4725.47251c.109.20371.167.40576.167.96296v1.79518c0 .5572-.058.7592-.167.9629-.1089.2037-.2688.3636-.4725.4725-.2037.109-.4057.167-.9629.167h-1.79517c-.5572 0-.75926-.058-.96296-.167-.2037-.1089-.36357-.2688-.47251-.4725s-.16696-.4057-.16696-.9629v-1.79518c0-.5572.05802-.75925.16696-.96296.10894-.2037.26881-.36357.47251-.47251s.40576-.16696.96296-.16696z" fill="#fff"/></svg>
