<svg xmlns="http://www.w3.org/2000/svg" width="28" height="28" viewBox="0 0 28 28" fill="currentColor"><path d="M9.116 15c1.065 0 1.623.108 2.204.419.541.289.972.72 1.261 1.26.311.582.419 1.14.419 2.205v2.232c0 1.065-.108 1.623-.419 2.205-.289.54-.72.971-1.26 1.26-.582.311-1.14.419-2.205.419H6.884c-1.065 0-1.623-.108-2.205-.419a3.05 3.05 0 0 1-1.26-1.26C3.108 22.739 3 22.18 3 21.116v-2.232c0-1.065.108-1.623.419-2.204.289-.541.72-.972 1.26-1.261.582-.311 1.14-.419 2.205-.419zm12 0c1.065 0 1.623.108 2.205.419.54.289.971.72 1.26 1.26.311.582.419 1.14.419 2.205v2.232c0 1.065-.108 1.623-.419 2.205-.289.54-.72.971-1.26 1.26-.582.311-1.14.419-2.205.419h-2.232c-1.065 0-1.623-.108-2.205-.419a3.05 3.05 0 0 1-1.26-1.26c-.311-.582-.419-1.14-.419-2.205v-2.232c0-1.065.108-1.623.419-2.204.289-.541.72-.972 1.26-1.261.582-.311 1.14-.419 2.205-.419zm-12 2H6.884c-.763 0-1.01.048-1.261.182a1.05 1.05 0 0 0-.44.44c-.135.253-.183.499-.183 1.262v2.232c0 .763.048 1.01.182 1.261q.153.288.44.44c.253.136.499.183 1.262.183h2.232c.763 0 1.01-.047 1.261-.182q.288-.153.44-.44c.135-.253.183-.499.183-1.262v-2.232c0-.763-.048-1.01-.182-1.261a1.05 1.05 0 0 0-.44-.44c-.253-.135-.499-.183-1.262-.183m12 0h-2.232c-.763 0-1.01.048-1.261.182a1.05 1.05 0 0 0-.44.44c-.135.253-.183.499-.183 1.262v2.232c0 .763.048 1.01.182 1.261q.153.288.44.44c.253.136.499.183 1.262.183h2.232c.763 0 1.01-.047 1.261-.182q.288-.153.44-.44c.135-.253.183-.499.183-1.262v-2.232c0-.763-.048-1.01-.182-1.261a1.05 1.05 0 0 0-.44-.44c-.253-.135-.499-.183-1.262-.183m-.224-14.587c.63.19 1.101.51 1.855 1.263l1.577 1.577c.754.754 1.072 1.225 1.263 1.856a3.04 3.04 0 0 1 0 1.782c-.19.631-.51 1.102-1.263 1.856l-1.577 1.577c-.754.754-1.225 1.072-1.855 1.264a3.05 3.05 0 0 1-1.783 0c-.631-.192-1.102-.51-1.856-1.264l-1.577-1.577c-.754-.754-1.072-1.225-1.263-1.856a3.04 3.04 0 0 1 0-1.782c.19-.631.51-1.102 1.263-1.856l1.577-1.577c.754-.754 1.225-1.072 1.855-1.263a3.04 3.04 0 0 1 1.784 0M9.116 3c1.065 0 1.623.108 2.204.419.541.289.972.72 1.261 1.26.311.582.419 1.14.419 2.205v2.232c0 1.065-.108 1.623-.419 2.205-.289.54-.72.971-1.26 1.26-.582.311-1.14.419-2.205.419H6.884c-1.065 0-1.623-.108-2.205-.419a3.05 3.05 0 0 1-1.26-1.26C3.108 10.739 3 10.18 3 9.116V6.884c0-1.065.108-1.623.419-2.205.289-.54.72-.971 1.26-1.26C5.261 3.108 5.82 3 6.884 3zm10.573 1.327c-.274.082-.482.223-1.021.763L17.09 6.668c-.54.54-.68.747-.763 1.02a1.05 1.05 0 0 0 0 .623c.082.274.223.482.763 1.021l1.578 1.578c.54.54.747.68 1.02.763.21.064.415.064.623 0 .274-.082.482-.223 1.021-.763l1.578-1.578c.54-.54.68-.747.763-1.02a1.05 1.05 0 0 0 0-.623c-.082-.274-.223-.482-.763-1.021L21.332 5.09c-.54-.54-.747-.68-1.02-.763a1.05 1.05 0 0 0-.623 0M9.116 5H6.884c-.763 0-1.01.048-1.261.182a1.05 1.05 0 0 0-.44.44c-.136.254-.183.5-.183 1.263v2.232c0 .763.048 1.01.182 1.261q.153.288.44.44c.253.136.499.183 1.262.183h2.232c.763 0 1.01-.047 1.261-.182q.288-.153.44-.44c.135-.253.183-.499.183-1.262V6.884c0-.763-.048-1.01-.182-1.261a1.05 1.05 0 0 0-.44-.44C10.124 5.047 9.878 5 9.115 5"/></svg>