<svg fill="none" height="28" viewBox="0 0 28 28" width="28" xmlns="http://www.w3.org/2000/svg" xmlns:xlink="http://www.w3.org/1999/xlink"><linearGradient id="a" gradientUnits="userSpaceOnUse" x1="42" x2="14" y1="14" y2="-14"><stop offset="0" stop-color="#65c2c2"/><stop offset="1" stop-color="#86d1d1"/></linearGradient><path d="m0 14c0-7.73199 6.26801-14 14-14 7.732 0 14 6.26801 14 14 0 7.732-6.268 14-14 14-7.73199 0-14-6.268-14-14z" fill="url(#a)"/><path clip-rule="evenodd" d="m14.5434 10.8862c.0928.2854.3403.5329.8353 1.028l.7071.7071c.495.495.7425.7425 1.0279.8352.2511.0816.5215.0816.7726 0 .2854-.0927.5329-.3402 1.0279-.8352l.7071-.7071c.4951-.4951.7426-.7426.8353-1.028.0816-.251.0816-.5215 0-.7725-.0927-.28544-.3402-.53295-.8353-1.02797l-.7071-.70711c-.495-.49502-.7425-.74253-1.0279-.83526-.2511-.08158-.5215-.08158-.7726 0-.2854.09273-.5329.34024-1.0279.83526l-.7071.70711c-.495.49502-.7425.74253-.8353 1.02797-.0815.251-.0815.5215 0 .7725zm-6.40716-2.20374c-.13624.26739-.13624.61742-.13624 1.31748v.99996c0 .7001 0 1.0501.13624 1.3175.11984.2352.31107.4265.54627.5463.26739.1362.61742.1362 1.31749.1362h1c.7001 0 1.0501 0 1.3175-.1362.2352-.1198.4264-.3111.5463-.5463.1362-.2674.1362-.6174.1362-1.3175v-.99996c0-.70006 0-1.05009-.1362-1.31748-.1199-.23521-.3111-.42643-.5463-.54627-.2674-.13625-.6174-.13625-1.3175-.13625h-1c-.70007 0-1.0501 0-1.31749.13625-.2352.11984-.42643.31106-.54627.54627zm0 7.00004c-.13624.2673-.13624.6174-.13624 1.3174v1c0 .7001 0 1.0501.13624 1.3175.11984.2352.31107.4265.54627.5463.26739.1362.61742.1362 1.31749.1362h1c.7001 0 1.0501 0 1.3175-.1362.2352-.1198.4264-.3111.5463-.5463.1362-.2674.1362-.6174.1362-1.3175v-1c0-.7 0-1.0501-.1362-1.3174-.1199-.2352-.3111-.4265-.5463-.5463-.2674-.1363-.6174-.1363-1.3175-.1363h-1c-.70007 0-1.0501 0-1.31749.1363-.2352.1198-.42643.3111-.54627.5463zm6.86376 1.3174c0-.7 0-1.0501.1362-1.3174.1199-.2352.3111-.4265.5463-.5463.2674-.1363.6174-.1363 1.3175-.1363h1c.7001 0 1.0501 0 1.3175.1363.2352.1198.4264.3111.5463.5463.1362.2673.1362.6174.1362 1.3174v1c0 .7001 0 1.0501-.1362 1.3175-.1199.2352-.3111.4265-.5463.5463-.2674.1362-.6174.1362-1.3175.1362h-1c-.7001 0-1.0501 0-1.3175-.1362-.2352-.1198-.4264-.3111-.5463-.5463-.1362-.2674-.1362-.6174-.1362-1.3175z" fill="#fff" fill-rule="evenodd"/></svg>
