<svg fill="none" height="28" viewBox="0 0 28 28" width="28" xmlns="http://www.w3.org/2000/svg"><path clip-rule="evenodd" d="m20.7071 8.29289c.3905.39053.3905 1.02369 0 1.41422-.3905.39049-1.0237.39049-1.4142 0l-4.2929-4.2929v11.58579c0 .5523-.4477 1-1 1s-1-.4477-1-1v-11.58579l-4.29289 4.2929c-.39053.39049-1.02369.39049-1.41422 0-.39052-.39053-.39052-1.02369 0-1.41422l5.99991-5.99986.0001-.00014c.1945-.1945.4492-.29213.7041-.29289h.003.003c.1345.0004.2627.02735.3798.07588.1162.04807.2251.11899.32.21276m6.0043 6.00425-5.9995-5.99947zm-16.7071 9.34991v-1.6428c0-.5523.44772-1 1-1 .55229 0 1 .4477 1 1v1.6c0 1.1366.00078 1.9289.05118 2.5458.04944.6051.14161.9528.2758 1.2162.28762.5645.74656 1.0234 1.31105 1.311.26335.1342.61104.2264 1.21621.2758.61684.0504 1.40916.0512 2.54576.0512h5.2c1.1366 0 1.9289-.0008 2.5458-.0512.6051-.0494.9528-.1416 1.2162-.2758.5645-.2876 1.0234-.7465 1.311-1.311.1342-.2634.2264-.6111.2758-1.2162.0504-.6169.0512-1.4092.0512-2.5458v-1.6c0-.5523.4477-1 1-1s1 .4477 1 1v1.6428.0001c0 1.0838 0 1.9579-.0578 2.6657-.0596.7289-.1854 1.3691-.4872 1.9614-.4793.9408-1.2442 1.7057-2.185 2.185-.5923.3018-1.2325.4276-1.9614.4872-.7078.0578-1.582.0578-2.6657.0578h-.0001-5.2856c-1.0838 0-1.95794 0-2.66582-.0578-.72885-.0596-1.36904-.1854-1.96133-.4872-.94081-.4793-1.70572-1.2442-2.18508-2.185-.30179-.5923-.4276-1.2325-.48715-1.9614-.05784-.7079-.05783-1.582-.05782-2.6658z" fill="currentColor" fill-rule="evenodd"/></svg>
