<?xml version="1.0" encoding="UTF-8"?>
<svg width="28px" height="28px" viewBox="0 0 28 28" version="1.1" xmlns="http://www.w3.org/2000/svg" xmlns:xlink="http://www.w3.org/1999/xlink">
    <!-- Generator: Sketch 63.1 (92452) - https://sketch.com -->
    <title>share_external_outline_28</title>
    <desc>Created with Sketch.</desc>
    <g id="Page-1" stroke="none" stroke-width="1" fill="none" fill-rule="evenodd">
        <g id="share_external_outline_28">
            <polygon points="0 0 28 0 28 28 0 28"></polygon>
            <path d="M20,2 C22.209139,2 24,3.790861 24,6 C24,8.209139 22.209139,10 20,10 C18.9228165,10 17.9450816,9.57421029 17.2259202,8.88175592 L10.8238868,12.8225461 C10.9383751,13.1947964 11,13.5902016 11,14 C11,14.4101683 10.9382638,14.8059173 10.8235767,15.1784618 L17.2249046,19.1192223 C17.9441609,18.4261907 18.9223094,18 20,18 C22.209139,18 24,19.790861 24,22 C24,24.209139 22.209139,26 20,26 C17.790861,26 16,24.209139 16,22 C16,21.5898317 16.0617362,21.1940827 16.1764233,20.8215382 L9.77407985,16.8817559 C9.05491844,17.5742103 8.07718348,18 7,18 C4.790861,18 3,16.209139 3,14 C3,11.790861 4.790861,10 7,10 C8.07718348,10 9.05491844,10.4257897 9.77407985,11.1182441 L16.1764233,7.17846177 C16.0617362,6.8059173 16,6.41016828 16,6 C16,3.790861 17.790861,2 20,2 Z M20,20 C18.8954305,20 18,20.8954305 18,22 C18,23.1045695 18.8954305,24 20,24 C21.1045695,24 22,23.1045695 22,22 C22,20.8954305 21.1045695,20 20,20 Z M7,12 C5.8954305,12 5,12.8954305 5,14 C5,15.1045695 5.8954305,16 7,16 C8.1045695,16 9,15.1045695 9,14 C9,12.8954305 8.1045695,12 7,12 Z M20,4 C18.8954305,4 18,4.8954305 18,6 C18,7.1045695 18.8954305,8 20,8 C21.1045695,8 22,7.1045695 22,6 C22,4.8954305 21.1045695,4 20,4 Z" id="↳-Icon-Color-2" fill="currentColor" fill-rule="nonzero"></path>
        </g>
    </g>
</svg>
