<svg xmlns="http://www.w3.org/2000/svg" width="28" height="28" fill="currentColor" viewBox="0 0 28 28"><path d="M16.5 12.5a2.5 2.5 0 0 1-1.5 2.292V17a1 1 0 1 1-2 0v-2.208a2.5 2.5 0 1 1 3.5-2.292Z"/><path fill-rule="evenodd" d="M14.594 2.045a4 4 0 0 0-1.188 0c-.446.067-.868.232-1.427.45L5.654 4.968l-.078.03c-.282.11-.636.246-.913.495a2 2 0 0 0-.535.784c-.131.348-.13.727-.128 1.03V16c0 2.647 1.346 7.118 7.65 10.331l.06.031c.523.267.928.473 1.5.58a4.485 4.485 0 0 0 1.523-.012c.57-.116.99-.339 1.534-.627l.068-.036C19.393 24.647 24 21.51 24 16V7.304c.002-.303.003-.682-.128-1.03a2 2 0 0 0-.535-.785c-.277-.248-.631-.385-.913-.494l-.078-.03-6.325-2.47c-.56-.218-.982-.383-1.428-.45Zm-.89 1.978a2 2 0 0 1 .593 0c.196.03.398.102 1.086.37l6.235 2.435c.126.05.254.096.376.154.01.134.006.27.006.405V16c0 4.256-3.564 6.891-6.601 8.5-.631.334-.804.417-1.062.47a2.561 2.561 0 0 1-.762.005c-.261-.048-.421-.122-1.016-.426C6.934 21.683 6 17.907 6 16V7.389c0-.135-.003-.27.006-.405.122-.058.25-.105.376-.154l6.236-2.436c.687-.269.89-.342 1.085-.371Z" clip-rule="evenodd"/></svg>
