<svg xmlns="http://www.w3.org/2000/svg" width="28" height="28" fill="currentColor" viewBox="0 0 28 28"><path fill-rule="evenodd" d="M3.296 5c.492 0 .806 0 1.047.019.228.017.318.046.366.067a1 1 0 0 1 .422.354c.03.044.074.127.13.349.06.234.116.543.201 1.027l1.55 8.75c.078.441.146.825.227 1.14.086.337.202.664.41.973a3 3 0 0 0 1.267 1.062c.34.151.683.209 1.029.235.325.024.715.024 1.162.024h5.346c1.83 0 3.023.001 4.069-.403a6.001 6.001 0 0 0 2.385-1.683c.732-.85 1.132-1.975 1.744-3.698l.67-1.88c.23-.65.426-1.198.544-1.654.122-.472.195-.963.084-1.468a3 3 0 0 0-1.21-1.814c-.423-.297-.904-.419-1.386-.488-.466-.066-1.049-.097-1.736-.134l-14.5-.772a2.722 2.722 0 0 0-.328-.685A3 3 0 0 0 5.522 3.26a3.03 3.03 0 0 0-1.029-.235C4.168 3 3.778 3 3.331 3H3a1 1 0 0 0 0 2h.296Zm5.68 10.184L7.531 7.03l13.934.742c.744.04 1.236.067 1.603.12.361.05.478.113.523.145a1 1 0 0 1 .403.605c.012.054.025.185-.067.538-.092.36-.257.824-.507 1.526l-.583 1.64c-.71 1.994-.99 2.731-1.447 3.262a4 4 0 0 1-1.59 1.122c-.654.253-1.442.269-3.558.269h-5.101c-.492 0-.806 0-1.047-.019-.228-.017-.318-.046-.366-.067a1 1 0 0 1-.422-.354c-.03-.044-.074-.127-.13-.349a15.63 15.63 0 0 1-.202-1.027Z M7.5 23a2 2 0 1 1 4 0 2 2 0 0 1-4 0Zm10 0a2 2 0 1 1 4 0 2 2 0 0 1-4 0Z"/></svg>
