<svg xmlns="http://www.w3.org/2000/svg" width="28" height="28" fill="currentColor" viewBox="0 0 28 28"><path fill-rule="evenodd" d="M3.296 5c.492 0 .806 0 1.047.019.228.017.318.046.366.067a1 1 0 0 1 .422.354c.03.044.074.127.13.349.06.234.116.543.201 1.027l1.55 8.75c.078.441.146.825.227 1.14.086.337.202.664.41.973a3 3 0 0 0 1.267 1.062c.34.151.683.209 1.029.235.325.024.715.024 1.162.024h5.302c1.843 0 3.045.001 4.097-.408a6 6 0 0 0 2.393-1.703c.732-.86 1.126-1.995 1.73-3.736l.642-1.849c.224-.646.414-1.192.528-1.646.117-.47.186-.96.073-1.461a3 3 0 0 0-1.21-1.802c-.423-.295-.901-.416-1.38-.484-.464-.067-1.042-.097-1.725-.134l-14.44-.77a2.722 2.722 0 0 0-.328-.686A3 3 0 0 0 5.522 3.26a3.03 3.03 0 0 0-1.029-.235C4.168 3 3.778 3 3.331 3H3a1 1 0 0 0 0 2h.296Zm5.68 10.184L7.531 7.03l13.874.74c.74.04 1.227.067 1.592.12.358.05.474.112.52.144a1 1 0 0 1 .403.601c.012.054.026.185-.062.536-.09.357-.25.819-.492 1.518l-.558 1.606c-.7 2.014-.975 2.76-1.432 3.297a4 4 0 0 1-1.596 1.135c-.657.255-1.452.272-3.584.272h-5.055c-.492 0-.806 0-1.047-.019-.228-.017-.318-.046-.366-.067a1 1 0 0 1-.422-.354c-.03-.044-.074-.127-.13-.349a15.63 15.63 0 0 1-.202-1.027Z M7.5 23a2 2 0 1 1 4 0 2 2 0 0 1-4 0Zm10 0a2 2 0 1 1 4 0 2 2 0 0 1-4 0Z"/></svg>
