<?xml version="1.0" encoding="UTF-8"?>
<svg width="28px" height="28px" viewBox="0 0 28 28" version="1.1" xmlns="http://www.w3.org/2000/svg" xmlns:xlink="http://www.w3.org/1999/xlink">
    <!-- Generator: Sketch 63.1 (92452) - https://sketch.com -->
    <title>shuffle_outline_28</title>
    <desc>Created with Sketch.</desc>
    <g id="Page-1" stroke="none" stroke-width="1" fill="none" fill-rule="evenodd">
        <g id="shuffle_outline_28">
            <polygon points="0 0 28 0 28 28 0 28"></polygon>
            <path d="M21.58625,6.29999999 C21.7077459,6.29999999 21.8262405,6.33774762 21.9253494,6.40802339 L25.6147567,9.02409643 C25.878874,9.21137584 25.9411633,9.57730514 25.7538839,9.8414224 C25.7156772,9.8953048 25.6686391,9.94234287 25.6147567,9.98054963 L21.9253494,12.5966227 C21.6612321,12.7839021 21.2953028,12.7216127 21.1080234,12.4574954 C21.0377476,12.3583866 21,12.2398919 21,12.1183961 L21,10.5 L21,10.5 L16.8,10.5 C15.6078425,10.5 14.6063896,11.3822652 12.644877,13.9995201 C14.5409519,16.5303074 15.5398263,17.4389543 16.680797,17.4969981 L16.8,17.5 L21,17.5 L21,15.88158 C21,15.5578031 21.2624731,15.29533 21.58625,15.29533 C21.7077459,15.29533 21.8262405,15.3330776 21.9253494,15.4033534 L25.6147567,18.0194264 C25.878874,18.2067058 25.9411633,18.5726351 25.7538839,18.8367524 C25.7156772,18.8906348 25.6686391,18.9376729 25.6147567,18.9758796 L21.9253494,21.5919527 C21.6612321,21.7792321 21.2953028,21.7169427 21.1080234,21.4528254 C21.0377476,21.3537166 21,21.2352219 21,21.1137261 L21,19.5 L16.8,19.5 C14.8119132,19.5 13.5689566,18.5104068 11.4005556,15.6719975 C9.23104337,18.5104068 7.98808682,19.5 6,19.5 L3,19.5 C2.44771525,19.5 2,19.0522847 2,18.5 C2,17.9477153 2.44771525,17.5 3,17.5 L6,17.5 C7.19200334,17.5 8.19335131,16.617963 10.154362,14.0014953 C8.25931545,11.4699358 7.26032641,10.5610535 6.11920296,10.5030019 L6,10.5 L3,10.5 C2.44771525,10.5 2,10.0522847 2,9.5 C2,8.98716416 2.38604019,8.56449284 2.88337887,8.50672773 L3,8.5 L6,8.5 C7.98808682,8.5 9.23104337,9.48959322 11.3994444,12.3280025 C13.5689566,9.48959322 14.8119132,8.5 16.8,8.5 L21,8.5 L21,6.88624999 C21,6.56247305 21.2624731,6.29999999 21.58625,6.29999999 Z" id="↳-Icon-Color" fill="currentColor" fill-rule="nonzero"></path>
        </g>
    </g>
</svg>
