<svg xmlns="http://www.w3.org/2000/svg" width="28" height="28" fill="currentColor" viewBox="0 0 28 28"><path fill-rule="evenodd" d="M21.752 4.714a1 1 0 0 1 1.414 0l2.537 2.537a1 1 0 0 1 0 1.415l-2.537 2.537a1 1 0 0 1-1.415-1.414l.831-.83H21.25c-2.103 0-3.932.963-5.523 2.3a1 1 0 0 1-1.286-1.532c1.788-1.501 4.06-2.769 6.81-2.769h1.33l-.83-.83a1 1 0 0 1 0-1.414ZM2 7.958a1 1 0 0 1 1-1c4.751 0 7.784 3.423 10.336 6.39l.287.333c1.211 1.41 2.328 2.71 3.538 3.697 1.282 1.045 2.583 1.663 4.09 1.663h1.33l-.83-.83a1 1 0 0 1 1.415-1.414l2.537 2.537a1 1 0 0 1 0 1.415l-2.537 2.537a1 1 0 1 1-1.415-1.414l.831-.83H21.25c-2.119 0-3.854-.892-5.352-2.113-1.345-1.096-2.568-2.517-3.74-3.883-1.156 1.357-2.377 2.76-3.721 3.851-1.526 1.238-3.294 2.145-5.43 2.145a1 1 0 1 1 0-2c1.522 0 2.858-.634 4.17-1.698 1.258-1.02 2.418-2.373 3.653-3.824C8.536 10.961 6.242 8.958 3 8.958a1 1 0 0 1-1-1Z" clip-rule="evenodd"/></svg>
