<svg xmlns="http://www.w3.org/2000/svg" width="28" height="28" fill="currentColor" viewBox="0 0 28 28"><path fill-rule="evenodd" d="M7.636 10.756c1.14-3.094 3.617-6.2 7.13-6.2.808 0 1.5.218 2.026.668.52.445.807 1.057.931 1.722.243 1.298-.105 2.93-.762 4.53-1.161 2.831-3.489 6.039-6.387 7.931.042.05.085.1.13.15.245.279.442.448.64.55.322.165.875.269 2.29-.29.47-.186.918-.375 1.34-.567-.045-1.352.458-2.917 1.27-4.204 1.002-1.587 2.686-3.066 4.808-3.066.869 0 1.663.345 1.981 1.16.296.758.066 1.65-.377 2.447-.795 1.431-2.52 3.046-5.189 4.518.117.105.256.193.417.259.432.177 1.1.217 2.037-.191.497-.216.887-.43 1.23-.623l.113-.064c.286-.162.62-.35.931-.47.42-.16.886-.231 1.38-.074.433.138.798.429 1.137.768.364.364.318.991-.104 1.4-.422.409-1.059.445-1.423.081-.258-.258-.394-.332-.442-.351a.616.616 0 0 0-.042.014c-.136.052-.3.145-.643.338l-.085.048c-.368.207-.84.466-1.447.73-1.389.604-2.637.642-3.617.24a3.054 3.054 0 0 1-1.397-1.132c-.43.193-.878.382-1.347.567-1.677.662-2.916.766-3.93.246-.47-.241-.828-.587-1.129-.927a13.442 13.442 0 0 1-.377-.454l-.093.061c-.151.1-.311.206-.488.32-.462.296-1.029.635-1.625.814-.641.194-1.35.211-2-.174-.606-.359-1.048-1.003-1.39-1.86-.194-.483.072-1.083.595-1.339.522-.255 1.102-.07 1.296.414.278.696.541.957.699 1.05.114.068.23.085.448.02.264-.08.593-.259 1.038-.544.114-.073.24-.157.375-.246l.048-.031c-1.195-2.248-1.001-5.51.004-8.24Zm1.814 7.151c2.458-1.538 4.59-4.368 5.652-6.956.586-1.426.78-2.627.635-3.406-.07-.373-.21-.61-.378-.754-.164-.14-.422-.252-.856-.252-2.075 0-3.945 1.862-4.979 4.667-.9 2.443-.94 5.066-.074 6.701Zm7.592.285c2.197-1.272 3.396-2.515 3.871-3.37.285-.514.235-.738.224-.769-.004-.009-.008-.02-.037-.035-.037-.02-.13-.055-.312-.055-1.064 0-2.095.738-2.867 1.96a6.18 6.18 0 0 0-.879 2.269Z" clip-rule="evenodd"/></svg>
