<svg xmlns="http://www.w3.org/2000/svg" width="28" height="28" fill="currentColor" viewBox="0 0 28 28"><path fill-rule="evenodd" d="M8 4a1 1 0 0 1 1-1h8.308c2.448 0 3.527.216 4.622.801A5.465 5.465 0 0 1 24.2 6.07c.585 1.096.801 2.175.801 4.623v6.616c0 2.448-.216 3.527-.801 4.622a5.465 5.465 0 0 1-2.27 2.269c-1.095.585-2.174.801-4.622.801H9a1 1 0 1 1 0-2h8.308c2.335 0 3.019-.212 3.68-.565a3.467 3.467 0 0 0 1.447-1.448c.353-.66.565-1.344.565-3.679v-6.616c0-2.335-.212-3.019-.565-3.68a3.466 3.466 0 0 0-1.448-1.447C20.327 5.212 19.643 5 17.308 5H9a1 1 0 0 1-1-1Z M9 10.008v2.995L3.56 9.174a1 1 0 0 0-1.56.834v7.97c0 .84.86 1.3 1.56.84L9 14.976v3.002c0 .838.86 1.3 1.56.838l5.87-3.84c.67-.442.67-1.493 0-1.935l-5.87-3.868a1 1 0 0 0-1.56.834Z"/></svg>
