<?xml version="1.0" encoding="UTF-8"?>
<svg width="28px" height="28px" viewBox="0 0 28 28" version="1.1" xmlns="http://www.w3.org/2000/svg" xmlns:xlink="http://www.w3.org/1999/xlink">
    <!-- Generator: Sketch 50.2 (55047) - http://www.bohemiancoding.com/sketch -->
    <title>skip_previous_28</title>
    <desc>Created with Sketch.</desc>
    <defs></defs>
    <g id="Page-2" stroke="none" stroke-width="1" fill="none" fill-rule="evenodd">
        <g id="skip_previous_28">
            <rect id="Rectangle-737" x="0" y="0" width="28" height="28"></rect>
            <path d="M13.0215271,13.1109562 L22.8975641,7.62264898 C23.0082473,7.5611402 23.132783,7.52886141 23.2594088,7.52886141 C23.6708143,7.52886141 24.0043244,7.86237151 24.0043244,8.27377707 L24.0043244,19.729905 C24.0043244,19.8565308 23.9720457,19.9810665 23.9105369,20.0917497 C23.7106956,20.4513578 23.2571723,20.5808744 22.8975641,20.3810331 L13.0215271,14.8927259 L13.0215271,19.7301704 C13.0215271,19.8567696 12.9892551,19.9812793 12.9277592,20.0919392 C12.7279598,20.451472 12.2745315,20.5809614 11.9149988,20.381162 L1.60704949,14.6528327 C1.48553883,14.5853068 1.38535253,14.4851205 1.31782667,14.3636098 C1.11802729,14.0040771 1.24751675,13.5506488 1.60704949,13.3508494 L11.9149988,7.62252006 C12.0256587,7.56102417 12.1501684,7.52875215 12.2767676,7.52875215 C12.6880869,7.52875215 13.0215271,7.86219235 13.0215271,8.27351167 L13.0215271,13.1109562 Z" id="Mask" fill="currentColor"></path>
        </g>
    </g>
</svg>
