<svg fill="none" height="28" viewBox="0 0 28 28" width="28" xmlns="http://www.w3.org/2000/svg"><path d="m9 12.5c.31272-.1929.71234-.4016 1.2124-.6756l7.0463-3.86147c1.2286-.67329 1.8429-1.00994 2.3466-.95764.4394.04562.8381.26752 1.0974.61077.2973.39349.2973 1.07202.2973 2.42904v7.9098c0 1.357 0 2.0356-.2973 2.429-.2593.3433-.658.5652-1.0974.6108-.5038.0523-1.1181-.2843-2.3467-.9576l-7.0463-3.8615c-.49997-.274-.89959-.4827-1.2123-.6756v4c0 .5523-.44771 1-1 1s-1-.4477-1-1v-11c0-.55228.44771-1 1-1s1 .44772 1 1z" fill="currentColor"/></svg>
