<svg fill="none" height="28" viewBox="0 0 28 28" width="28" xmlns="http://www.w3.org/2000/svg"><path clip-rule="evenodd" d="m9.60001 3.00001-.0319-.00001h-.00002c-.25237-.00003-.49816-.00006-.70631.01695-.2286.01868-.49833.06274-.76976.20104-.37632.19175-.68228.49771-.87403.87403-.1383.27143-.18236.54116-.20104.76976-.01701.20814-.01698.45392-.01695.70629v.00004l.00001.0319v2.21596l-4.55694 11.96293-.0234.0609c-.10303.2673-.23779.617-.21551 1.0453.01043.2003.05979.3926.11043.5408.05065.1482.12933.3306.24366.4954.24264.3497.52361.5204.7411.6525l.03721.0226c1.54537.9438 4.87784 2.4036 10.66344 2.4036s9.1181-1.4598 10.6634-2.4036l.0373-.0226c.2174-.1321.4984-.3028.741-.6525.1144-.1648.1931-.3472.2437-.4954.0507-.1482.1-.3405.1104-.5408.0223-.4283-.1124-.778-.2155-1.0453l-.0234-.0609-4.5569-11.9629v-2.24791c0-.25238.0001-.49816-.0169-.70631-.0187-.2286-.0628-.49833-.2011-.76976-.1917-.37632-.4977-.68228-.874-.87403-.2714-.1383-.5412-.18236-.7698-.20104-.2081-.01701-.4539-.01698-.7063-.01695zm-.91084 6 2.13033-.00001-2.2437 13.4624c-2.12088-.4643-3.46956-1.1287-4.1968-1.5728-.06241-.0381-.10352-.0633-.13798-.0855-.01411-.0091-.02477-.0162-.03277-.0217l-.0009-.0026c.00582-.0196.01511-.0481.0304-.0907.01909-.0532.04238-.1145.07431-.1983zm1.85853 13.79689 2.2994-13.7969h2.3331l2.7466 13.733c-1.1337.1644-2.4377.267-3.9268.267-1.2855 0-2.4332-.0765-3.4523-.2031zm9.343-.4427c1.8542-.455 3.0579-1.0539 3.7303-1.4646.0624-.0381.1035-.0633.138-.0855.0141-.0091.0248-.0162.0328-.0217l.0009-.0026c-.0059-.0196-.0152-.0481-.0305-.0907-.019-.0532-.0423-.1145-.0743-.1983l-4.3771-11.4908h-2.091zm-.8907-15.35419v-1.4c0-.29653-.0008-.45879-.0103-.57537l-.0011-.01319-.0132-.00114c-.1166-.00953-.2789-.0103-.5754-.0103h-8.79999c-.29653 0-.45879.00077-.57537.0103l-.01319.00114-.00114.01319c-.00953.11658-.0103.27884-.0103.57537v1.39999z" fill="currentColor" fill-rule="evenodd"/></svg>
