<?xml version="1.0" encoding="UTF-8"?>
<svg width="28px" height="28px" viewBox="0 0 28 28" version="1.1" xmlns="http://www.w3.org/2000/svg" xmlns:xlink="http://www.w3.org/1999/xlink">
    <!-- Generator: Sketch 63.1 (92452) - https://sketch.com -->
    <title>sliders_outline_28</title>
    <desc>Created with Sketch.</desc>
    <g id="Page-1" stroke="none" stroke-width="1" fill="none" fill-rule="evenodd">
        <g id="sliders_outline_28">
            <rect x="0" y="0" width="28" height="28"></rect>
            <path d="M18.5,15 C20.0855698,15 21.4248865,16.0543346 21.8551091,17.5001626 L24,17.5 C24.5522847,17.5 25,17.9477153 25,18.5 C25,19.0522847 24.5522847,19.5 24,19.5 L21.8548109,19.5008388 C21.424268,20.9461522 20.0852037,22 18.5,22 C16.9147963,22 15.575732,20.9461522 15.1451891,19.5008388 L4,19.5 C3.44771525,19.5 3,19.0522847 3,18.5 C3,17.9477153 3.44771525,17.5 4,17.5 L15.1448909,17.5001626 C15.5751135,16.0543346 16.9144302,15 18.5,15 Z M18.5,16.75 C17.5335017,16.75 16.75,17.5335017 16.75,18.5 C16.75,19.4664983 17.5335017,20.25 18.5,20.25 C19.4664983,20.25 20.25,19.4664983 20.25,18.5 C20.25,17.5335017 19.4664983,16.75 18.5,16.75 Z M10.5,6 C12.0855698,6 13.4248865,7.05433459 13.8551091,8.50016263 L24,8.5 C24.5522847,8.5 25,8.94771525 25,9.5 C25,10.0522847 24.5522847,10.5 24,10.5 L13.8548109,10.5008388 C13.424268,11.9461522 12.0852037,13 10.5,13 C8.91479633,13 7.57573199,11.9461522 7.14518909,10.5008388 L4,10.5 C3.44771525,10.5 3,10.0522847 3,9.5 C3,8.94771525 3.44771525,8.5 4,8.5 L7.14489094,8.50016263 C7.5751135,7.05433459 8.91443023,6 10.5,6 Z M10.5,7.75 C9.53350169,7.75 8.75,8.53350169 8.75,9.5 C8.75,10.4664983 9.53350169,11.25 10.5,11.25 C11.4664983,11.25 12.25,10.4664983 12.25,9.5 C12.25,8.53350169 11.4664983,7.75 10.5,7.75 Z" id="↳-Icon-Color" fill="currentColor" fill-rule="nonzero"></path>
        </g>
    </g>
</svg>
