<svg xmlns="http://www.w3.org/2000/svg" width="28" height="28" fill="none" viewBox="0 0 28 28"><g clip-path="url(#a)"><circle cx="14" cy="14" r="14" fill="url(#b)"/><path fill="#fff" fill-rule="evenodd" d="M22 14a8 8 0 1 0-16 0 8 8 0 0 0 16 0m-9.5-1.622a1.125 1.125 0 1 0-2.25 0 1.125 1.125 0 0 0 2.25 0m4.12-1.125a1.125 1.125 0 1 1 .01 2.25 1.125 1.125 0 0 1-.01-2.25m.774 4.25a.75.75 0 0 0-1.046.175c-1.114 1.56-3.576 1.576-4.703 0a.75.75 0 0 0-1.22.872c1.692 2.368 5.433 2.393 7.143 0a.75.75 0 0 0-.174-1.047" clip-rule="evenodd"/></g><defs><linearGradient id="b" x1="-14" x2="14" y1="14" y2="42" gradientUnits="userSpaceOnUse"><stop stop-color="#ffb73d"/><stop offset="1" stop-color="#ffa000"/></linearGradient><clipPath id="a"><path fill="#fff" d="M0 0h28v28H0z"/></clipPath></defs></svg>