<svg fill="none" height="28" viewBox="0 0 28 28" width="28" xmlns="http://www.w3.org/2000/svg"><path clip-rule="evenodd" d="m10.2929 2.79289c.3905-.39052 1.0237-.39052 1.4142 0l2.2929 2.2929 2.2929-2.29289c.3905-.39053 1.0237-.39053 1.4142-.00001.3905.39053.3905 1.02369 0 1.41422l-2.7071 2.70711v5.35368l4.6365-2.67682.9908-3.69798c.143-.53347.6913-.85005 1.2248-.70711s.85.69128.7071 1.22475l-.8393 3.13215 3.1322.83921c.5335.143.85.6913.7071 1.2248s-.6913.85-1.2247.7071l-3.698-.9909-4.6365 2.6769 4.6365 2.6768 3.698-.9908c.5334-.143 1.0818.1736 1.2247.7071.143.5334-.1736 1.0818-.7071 1.2247l-3.1321.8393.8392 3.1321c.143.5335-.1736 1.0818-.7071 1.2248-.5335.1429-1.0818-.1737-1.2247-.7071l-.9909-3.698-4.6365-2.6769v5.3538l2.7071 2.7071c.3905.3905.3905 1.0237 0 1.4142s-1.0237.3905-1.4142 0l-2.2929-2.2929-2.2929 2.2929c-.3905.3905-1.0237.3905-1.4142 0-.39052-.3905-.39052-1.0237 0-1.4142l2.7071-2.7071v-5.3538l-4.63646 2.6769-.99087 3.698c-.14294.5335-.69128.85-1.22475.7071-.53346-.1429-.85005-.6913-.7071-1.2248l.83926-3.1321-3.13216-.8393c-.53346-.1429-.85005-.6912-.7071-1.2247.14294-.5335.69128-.8501 1.22474-.7071l3.69798.9909 4.63646-2.6769-4.63645-2.6769-3.69798.9909c-.53347.1429-1.0818-.1737-1.22474-.7071-.14295-.5335.17364-1.0818.7071-1.2248l3.13216-.83923-.83926-3.13215c-.14295-.53346.17364-1.0818.7071-1.22475.53347-.14294 1.08181.17365 1.22475.70711l.99087 3.69798 4.63645 2.67684v-5.35368l-2.7071-2.70711c-.39052-.39053-.39052-1.02369 0-1.41422z" fill="currentColor" fill-rule="evenodd"/>
</svg>