<?xml version="1.0" encoding="UTF-8"?>
<svg width="28px" height="28px" viewBox="0 0 28 28" version="1.1" xmlns="http://www.w3.org/2000/svg" xmlns:xlink="http://www.w3.org/1999/xlink">
    <!-- Generator: Sketch 63.1 (92452) - https://sketch.com -->
    <title>song_outline_28</title>
    <desc>Created with Sketch.</desc>
    <g id="Page-1" stroke="none" stroke-width="1" fill="none" fill-rule="evenodd">
        <g id="song_outline_28">
            <polygon points="0 0 28 0 28 28 0 28"></polygon>
            <path d="M19.7796503,3.02457907 C20.405076,2.88329402 21,3.35881453 21,4 L21,4 L21,6.10247646 C21,7.73345893 19.9034979,9.16067888 18.3275856,9.58092215 L18.3275856,9.58092215 L15,10.4682783 L15,20.393633 C15,25.0814866 10.4174681,27.4933454 7.92719121,25.0030685 C5.35072218,22.4265995 7.82020879,18.1997305 12.9996599,17.9425694 L13.0000993,7.93085656 C12.9730104,6.00870733 13.9096836,4.64267959 15.6837722,4.0513167 C16.3249725,3.83758329 17.6771656,3.499535 19.7796503,3.02457907 Z M13,19.9438657 C9.4620936,20.1397648 8.15538083,22.402831 9.34140477,23.588855 C10.4843305,24.7317806 13,23.4077441 13,20.393633 L13,20.393633 Z M19,5.2555216 C17.6519878,5.57065419 16.7510992,5.80372615 16.3162278,5.9486833 C15.3815665,6.26023704 14.9849064,6.83871926 15,7.91676494 L15,7.91676494 L15,8.39838835 L17.8122603,7.64845227 C18.5126657,7.46167749 19,6.82735753 19,6.10247646 L19,6.10247646 Z" id="↳-Icon-Color" fill="currentColor" fill-rule="nonzero"></path>
        </g>
    </g>
</svg>
