<?xml version="1.0" encoding="UTF-8"?>
<svg width="28px" height="28px" viewBox="0 0 28 28" version="1.1" xmlns="http://www.w3.org/2000/svg" xmlns:xlink="http://www.w3.org/1999/xlink">
    <!-- Generator: Sketch 63.1 (92452) - https://sketch.com -->
    <title>sort_outline_28</title>
    <desc>Created with Sketch.</desc>
    <g id="Page-1" stroke="none" stroke-width="1" fill="none" fill-rule="evenodd">
        <g id="sort_outline_28">
            <polygon points="0 0 28 0 28 28 0 28"></polygon>
            <path d="M9,6.5 C9.55228475,6.5 10,6.98215488 10,7.57692308 L10,7.57692308 L10,18.085 L12.2928932,15.7928932 C12.6533772,15.4324093 13.2206082,15.4046797 13.6128994,15.7097046 L13.7071068,15.7928932 C14.0976311,16.1834175 14.0976311,16.8165825 13.7071068,17.2071068 L13.7071068,17.2071068 L9.70710678,21.2071068 C9.31658249,21.5976311 8.68341751,21.5976311 8.29289322,21.2071068 L8.29289322,21.2071068 L4.29289322,17.2071068 C3.90236893,16.8165825 3.90236893,16.1834175 4.29289322,15.7928932 C4.68341751,15.4023689 5.31658249,15.4023689 5.70710678,15.7928932 L5.70710678,15.7928932 L8,18.085 L8,7.57692308 C8,7.0218061 8.39000973,6.56478782 8.89103898,6.50631924 Z M19.7071068,6.75289322 L23.7071068,10.7528932 C24.0976311,11.1434175 24.0976311,11.7765825 23.7071068,12.1671068 C23.3165825,12.5576311 22.6834175,12.5576311 22.2928932,12.1671068 L20,9.874 L20,20.46 C20,21.0122847 19.5522847,21.46 19,21.46 C18.4477153,21.46 18,21.0122847 18,20.46 L18,9.874 L15.7071068,12.1671068 C15.3165825,12.5576311 14.6834175,12.5576311 14.2928932,12.1671068 C13.9023689,11.7765825 13.9023689,11.1434175 14.2928932,10.7528932 L18.2928932,6.75289322 C18.6834175,6.36236893 19.3165825,6.36236893 19.7071068,6.75289322 Z" id="↳-Icon-Color" fill="currentColor" fill-rule="nonzero"></path>
        </g>
    </g>
</svg>
