<svg xmlns="http://www.w3.org/2000/svg" width="28" height="28" fill="currentColor" viewBox="0 0 28 28"><path d="M20 21.5c.552 0 1-.482 1-1.077V9.915l2.293 2.292a1 1 0 0 0 1.32.083l.094-.083a1 1 0 0 0 0-1.414l-4-4a1 1 0 0 0-1.414 0l-4 4a1 1 0 0 0 1.414 1.414L19 9.915v10.508c0 .555.39 1.012.891 1.07L20 21.5Zm-6.846 0c.467 0 .846-.448.846-1s-.379-1-.846-1H3.846c-.467 0-.846.448-.846 1s.379 1 .846 1h9.308ZM11.182 15c.452 0 .818-.448.818-1s-.366-1-.818-1H3.818C3.366 13 3 13.448 3 14s.366 1 .818 1h7.364Zm-1.96-6.5c.43 0 .778-.448.778-1s-.348-1-.778-1H3.778c-.43 0-.778.448-.778 1s.348 1 .778 1h5.444Z"/></svg>