<svg xmlns="http://www.w3.org/2000/svg" width="28" height="28" viewBox="0 0 28 28" fill="currentColor"><path d="m16.613 14.21.094.083 4 4a1 1 0 0 1 .083 1.32l-.083.094-4 4a1 1 0 0 1-1.497-1.32l.083-.094L17.585 20H8a1 1 0 0 1-.117-1.993L8 18h9.585l-2.292-2.293a1 1 0 0 1-.083-1.32l.083-.094a1 1 0 0 1 1.32-.083m-3.906-9.917a1 1 0 0 1 .083 1.32l-.083.094L10.414 8H20a1 1 0 0 1 .117 1.993L20 10h-9.586l2.293 2.293a1 1 0 0 1 .083 1.32l-.083.094a1 1 0 0 1-1.32.083l-.094-.083-4-4a1 1 0 0 1-.083-1.32l.083-.094 4-4a1 1 0 0 1 1.414 0"/></svg>