<svg xmlns="http://www.w3.org/2000/svg" width="28" height="28" viewBox="0 0 28 28" fill="currentColor"><path d="M20 6.5c.552 0 1 .482 1 1.077v10.508l2.293-2.292a1 1 0 0 1 1.32-.083l.094.083a1 1 0 0 1 0 1.414l-4 4a1 1 0 0 1-1.414 0l-4-4a1 1 0 0 1 1.414-1.414L19 18.085V7.577c0-.555.39-1.012.891-1.07zM14.654 8c.467 0 .846.448.846 1s-.379 1-.846 1H3.846C3.38 10 3 9.552 3 9s.379-1 .846-1zm-2.972 5c.452 0 .818.448.818 1s-.366 1-.818 1H3.818C3.366 15 3 14.552 3 14s.366-1 .818-1zm-1.96 5c.43 0 .778.448.778 1s-.348 1-.778 1H3.778C3.348 20 3 19.552 3 19s.348-1 .778-1z"/></svg>