<svg xmlns="http://www.w3.org/2000/svg" width="28" height="28" fill="currentColor" viewBox="0 0 28 28"><path fill-rule="evenodd" d="M4.707 3.293a1 1 0 0 0-1.414 1.414L11 12.414V19a1 1 0 1 0 2 0v-4.586l4 4V24a1 1 0 1 0 2 0v-3.586l4.293 4.293a1 1 0 0 0 1.414-1.414l-20-20ZM17 12V4a1 1 0 1 1 2 0v8a1 1 0 1 1-2 0Zm6-3a1 1 0 1 1 2 0v9a1 1 0 1 1-2 0V9ZM6 10a1 1 0 0 1 1 1v6a1 1 0 1 1-2 0v-6a1 1 0 0 1 1-1Z" clip-rule="evenodd"/><path d="M4.707 3.293a1 1 0 0 0-1.414 1.414L11 12.414V19a1 1 0 1 0 2 0v-4.586l4 4V24a1 1 0 1 0 2 0v-3.586l4.293 4.293a1 1 0 0 0 1.414-1.414l-20-20ZM17 12V4a1 1 0 1 1 2 0v8a1 1 0 1 1-2 0Zm6-3a1 1 0 1 1 2 0v9a1 1 0 1 1-2 0V9Z"/><path d="M6 10a1 1 0 0 1 1 1v6a1 1 0 1 1-2 0v-6a1 1 0 0 1 1-1Z"/></svg>
