<svg xmlns="http://www.w3.org/2000/svg" width="28" height="28" fill="currentColor" viewBox="0 0 28 28"><path fill-rule="evenodd" d="M14.01 7.396c-.587 1.453-1.391 3.03-2.488 4.126-1.097 1.097-2.673 1.901-4.126 2.488 1.453.586 3.03 1.39 4.126 2.487 1.096 1.096 1.9 2.67 2.488 4.12.587-1.45 1.391-3.024 2.487-4.12 1.097-1.096 2.67-1.9 4.12-2.487-1.45-.587-3.023-1.392-4.12-2.488-1.097-1.097-1.9-2.673-2.487-4.126Zm-1.042-3.081c-.647 2.14-1.597 4.531-2.86 5.793-1.262 1.263-3.652 2.213-5.793 2.86a35.623 35.623 0 0 1-1.717.474l-.262.065c-.448.11-.448.896 0 1.005l.262.066a40.07 40.07 0 0 1 1.717.473c2.14.647 4.531 1.598 5.793 2.86 1.263 1.262 2.213 3.645 2.86 5.779a35.771 35.771 0 0 1 .473 1.71l.066.264c.11.448.895.448 1.005 0a45.763 45.763 0 0 1 .361-1.366c.057-.2.116-.403.179-.608.646-2.134 1.597-4.517 2.859-5.78 1.262-1.261 3.645-2.212 5.78-2.858a35.771 35.771 0 0 1 1.71-.474l.263-.066c.448-.11.448-.895 0-1.005a45.763 45.763 0 0 1-1.366-.361c-.2-.057-.402-.116-.608-.178-2.134-.647-4.517-1.598-5.779-2.86-1.262-1.262-2.213-3.652-2.86-5.793a36.542 36.542 0 0 1-.539-1.98c-.11-.447-.895-.447-1.005 0a44.367 44.367 0 0 1-.36 1.367c-.057.201-.116.406-.179.613Z" clip-rule="evenodd"/></svg>
