<svg xmlns="http://www.w3.org/2000/svg" width="28" height="28" fill="none" viewBox="0 0 28 28"><g clip-path="url(#a)"><path fill="url(#b)" fill-rule="evenodd" d="M14 28c7.732 0 14-6.268 14-14S21.732 0 14 0 0 6.268 0 14s6.268 14 14 14" clip-rule="evenodd"/><path fill="#fff" fill-rule="evenodd" d="M14.887 10.724c-.358 1.049-.84 2.108-1.447 2.716-.608.607-1.667 1.089-2.716 1.447a18 18 0 0 1-1.078.332c-.381.106-.381.816 0 .922a21 21 0 0 1 1.078.332c1.049.358 2.108.84 2.716 1.447.607.608 1.089 1.667 1.447 2.715a16 16 0 0 1 .253.802l.08.277c.105.381.815.381.92 0a23 23 0 0 1 .266-.88l.067-.199c.358-1.048.84-2.107 1.447-2.715s1.667-1.089 2.715-1.448a16 16 0 0 1 .802-.253l.277-.079c.381-.105.381-.815 0-.92a23 23 0 0 1-.88-.267l-.198-.066c-1.049-.358-2.108-.84-2.716-1.447-.607-.608-1.089-1.667-1.447-2.716a16 16 0 0 1-.254-.801l-.079-.277c-.105-.382-.815-.382-.92 0a20 20 0 0 1-.333 1.078" clip-rule="evenodd"/><path fill="#fff" d="M9.53 6.275a.402.402 0 0 0-.762 0l-.305.917c-.2.6-.671 1.07-1.271 1.27l-.917.306a.402.402 0 0 0 0 .763l.917.306c.6.2 1.07.67 1.27 1.27l.306.918c.123.366.64.366.763 0l.306-.918c.2-.6.67-1.07 1.27-1.27l.918-.306a.402.402 0 0 0 0-.763l-.918-.305c-.6-.2-1.07-.671-1.27-1.271z"/></g><defs><linearGradient id="b" x1="7.428" x2="14" y1="-1.992" y2="28" gradientUnits="userSpaceOnUse"><stop stop-color="#bf6cff"/><stop offset="1" stop-color="#5100ff"/></linearGradient><clipPath id="a"><path fill="#fff" d="M0 0h28v28H0z"/></clipPath></defs></svg>