<svg xmlns="http://www.w3.org/2000/svg" width="28" height="28" fill="currentColor" viewBox="0 0 28 28"><path fill-rule="evenodd" d="M3 8c0-1.396 0-2.095.196-2.656a3.5 3.5 0 0 1 2.148-2.148C5.905 3 6.604 3 8 3c1.396 0 2.095 0 2.656.196a3.5 3.5 0 0 1 2.148 2.148C13 5.905 13 6.604 13 8c0 1.396 0 2.095-.196 2.656a3.5 3.5 0 0 1-2.148 2.148C10.095 13 9.396 13 8 13c-1.396 0-2.095 0-2.656-.196a3.5 3.5 0 0 1-2.148-2.148C3 10.095 3 9.396 3 8Zm5 3c-1.564 0-1.836-.028-1.995-.084a1.5 1.5 0 0 1-.92-.92C5.027 9.835 5 9.563 5 8s.028-1.836.084-1.995c.15-.431.49-.77.92-.92C6.165 5.027 6.437 5 8 5s1.836.028 1.995.084c.431.15.77.49.92.92.057.16.085.432.085 1.996s-.028 1.836-.084 1.995a1.5 1.5 0 0 1-.92.92C9.835 10.973 9.563 11 8 11Z" clip-rule="evenodd"/><path d="M19 16a1 1 0 1 1 2 0v3h3a1 1 0 1 1 0 2h-3v3a1 1 0 1 1-2 0v-3h-3a1 1 0 1 1 0-2h3v-3Z"/><path fill-rule="evenodd" d="M3.196 17.344C3 17.905 3 18.604 3 20c0 1.396 0 2.095.196 2.656a3.5 3.5 0 0 0 2.148 2.148C5.905 25 6.604 25 8 25c1.396 0 2.095 0 2.656-.196a3.5 3.5 0 0 0 2.148-2.148C13 22.095 13 21.396 13 20c0-1.396 0-2.095-.196-2.656a3.5 3.5 0 0 0-2.148-2.148C10.095 15 9.396 15 8 15c-1.396 0-2.095 0-2.656.196a3.5 3.5 0 0 0-2.148 2.148Zm2.809 5.572c.16.056.431.084 1.995.084s1.836-.028 1.995-.084c.431-.15.77-.49.92-.92.057-.16.085-.432.085-1.996s-.028-1.836-.084-1.995a1.5 1.5 0 0 0-.92-.92C9.835 17.027 9.563 17 8 17s-1.836.028-1.995.084a1.5 1.5 0 0 0-.92.92C5.027 18.165 5 18.437 5 20s.028 1.836.084 1.995c.15.431.49.77.92.92ZM15 8c0-1.396 0-2.095.196-2.656a3.5 3.5 0 0 1 2.148-2.148C17.905 3 18.604 3 20 3c1.396 0 2.095 0 2.656.196a3.5 3.5 0 0 1 2.148 2.148C25 5.905 25 6.604 25 8c0 1.396 0 2.095-.196 2.656a3.5 3.5 0 0 1-2.148 2.148C22.095 13 21.396 13 20 13c-1.396 0-2.095 0-2.656-.196a3.5 3.5 0 0 1-2.148-2.148C15 10.095 15 9.396 15 8Zm5 3c-1.564 0-1.836-.028-1.995-.084a1.5 1.5 0 0 1-.92-.92C17.027 9.835 17 9.563 17 8s.028-1.836.084-1.995c.15-.431.49-.77.92-.92C18.165 5.027 18.437 5 20 5s1.836.028 1.995.084c.431.15.77.49.92.92.057.16.085.432.085 1.996s-.028 1.836-.084 1.995a1.5 1.5 0 0 1-.92.92c-.16.057-.432.085-1.996.085Z" clip-rule="evenodd"/></svg>