<svg xmlns="http://www.w3.org/2000/svg" width="28" height="28" fill="currentColor" viewBox="0 0 28 28"><path fill-rule="evenodd" d="M2.707 2.293a1 1 0 0 0-1.414 1.414L3.135 5.55C3 6.08 3 6.77 3 8c0 1.396 0 2.095.196 2.656a3.5 3.5 0 0 0 2.148 2.148C5.905 13 6.604 13 8 13c1.232 0 1.92 0 2.451-.135l4.684 4.684C15 18.08 15 18.77 15 20c0 1.396 0 2.095.196 2.656a3.5 3.5 0 0 0 2.148 2.148C17.905 25 18.604 25 20 25c1.232 0 1.92 0 2.45-.135l1.843 1.842a1 1 0 0 0 1.414-1.414l-1.534-1.534.003-.003-1.426-1.426-.003.003-5.08-5.08.003-.003-1.426-1.426-.003.003-4.068-4.068.002-.002-1.426-1.426-.002.002-5.08-5.08.002-.002-1.426-1.426-.002.002-1.534-1.534Zm2.295 5.123L5 8c0 1.564.028 1.836.084 1.995.15.431.49.77.92.92.16.057.432.085 1.996.085.219 0 .413 0 .584-.002L5.002 7.416ZM17 20c0-.219 0-.413.002-.584l3.582 3.582L20 23c-1.564 0-1.836-.028-1.995-.084a1.5 1.5 0 0 1-.92-.92C17.027 21.835 17 21.563 17 20Zm1.005-9.084c.16.056.431.084 1.995.084s1.836-.028 1.995-.084c.431-.15.77-.49.92-.92.057-.16.085-.432.085-1.996s-.028-1.836-.084-1.995a1.5 1.5 0 0 0-.92-.92C21.835 5.027 21.563 5 20 5s-1.836.028-1.995.084a1.5 1.5 0 0 0-.92.92C17.027 6.165 17 6.437 17 8s.028 1.836.084 1.995c.15.431.49.77.92.92Zm-2.809-5.572C15 5.905 15 6.604 15 8c0 1.396 0 2.095.196 2.656a3.5 3.5 0 0 0 2.148 2.148C17.905 13 18.604 13 20 13c1.396 0 2.095 0 2.656-.196a3.5 3.5 0 0 0 2.148-2.148C25 10.095 25 9.396 25 8c0-1.396 0-2.095-.196-2.656a3.5 3.5 0 0 0-2.148-2.148C22.095 3 21.396 3 20 3c-1.396 0-2.095 0-2.656.196a3.5 3.5 0 0 0-2.148 2.148ZM6.005 22.916c.16.056.431.084 1.995.084s1.836-.028 1.995-.084c.431-.15.77-.49.92-.92.057-.16.085-.432.085-1.996s-.028-1.836-.084-1.995a1.5 1.5 0 0 0-.92-.92C9.835 17.027 9.563 17 8 17s-1.836.028-1.995.084a1.5 1.5 0 0 0-.92.92C5.027 18.165 5 18.437 5 20s.028 1.836.084 1.995c.15.431.49.77.92.92Zm-2.809-5.572C3 17.905 3 18.604 3 20c0 1.396 0 2.095.196 2.656a3.5 3.5 0 0 0 2.148 2.148C5.905 25 6.604 25 8 25c1.396 0 2.095 0 2.656-.196a3.5 3.5 0 0 0 2.148-2.148C13 22.095 13 21.396 13 20c0-1.396 0-2.095-.196-2.656a3.5 3.5 0 0 0-2.148-2.148C10.095 15 9.396 15 8 15c-1.396 0-2.095 0-2.656.196a3.5 3.5 0 0 0-2.148 2.148Zm20.802 2.984h-.007a.993.993 0 0 1-1-.983v-.016c-.012-.754-.037-1.216-.075-1.324a1.5 1.5 0 0 0-.92-.92c-.11-.039-.57-.064-1.325-.076h-.016a.993.993 0 0 1-.983-1v-.007c0-.55.458-1.004 1.009-.999.888.01 1.56.048 1.975.193a3.5 3.5 0 0 1 2.148 2.148c.145.416.183 1.087.193 1.974a1.005 1.005 0 0 1-1 1.01Zm-12.007-12h.007c.551 0 1.004-.458.999-1.01v.005-.005c-.01-.887-.048-1.558-.193-1.974a3.5 3.5 0 0 0-2.148-2.148c-.416-.145-1.085-.18-1.972-.19h-.002.002a1.005 1.005 0 0 0-1.008 1v.007c0 .55.433.99.984.998h.015c.753.012 1.211.035 1.32.073.431.151.77.49.92.92.039.11.064.57.077 1.325v.016c.01.55.448.983.999.983Z" clip-rule="evenodd"/></svg>
