<svg fill="none" height="28" viewBox="0 0 28 28" width="28" xmlns="http://www.w3.org/2000/svg"><path clip-rule="evenodd" d="m3 8c0-1.39645 0-2.09467.19641-2.65598.35179-1.00536 1.14225-1.79582 2.14761-2.14761.56131-.19641 1.25953-.19641 2.65598-.19641s2.0947 0 2.656.19641c1.0053.35179 1.7958 1.14225 2.1476 2.14761.1964.56131.1964 1.25953.1964 2.65598s0 2.0947-.1964 2.656c-.3518 1.0053-1.1423 1.7958-2.1476 2.1476-.5613.1964-1.25955.1964-2.656.1964s-2.09467 0-2.65598-.1964c-1.00536-.3518-1.79582-1.1423-2.14761-2.1476-.19641-.5613-.19641-1.25955-.19641-2.656zm2-.6c0-.84008 0-1.26012.16349-1.58099.14381-.28224.37328-.51171.65552-.65552.32087-.16349.74091-.16349 1.58099-.16349h1.2c.84008 0 1.26012 0 1.581.16349.2822.14381.5117.37328.6555.65552.1635.32087.1635.74091.1635 1.58099v1.2c0 .84008 0 1.26012-.1635 1.581-.1438.2822-.3733.5117-.6555.6555-.32088.1635-.74092.1635-1.581.1635h-1.2c-.84008 0-1.26012 0-1.58099-.1635-.28224-.1438-.51171-.3733-.65552-.6555-.16349-.32088-.16349-.74092-.16349-1.581zm-2 12.6c0-1.3964 0-2.0947.19641-2.656.35179-1.0053 1.14225-1.7958 2.14761-2.1476.56131-.1964 1.25953-.1964 2.65598-.1964s2.0947 0 2.656.1964c1.0053.3518 1.7958 1.1423 2.1476 2.1476.1964.5613.1964 1.2596.1964 2.656 0 1.3965 0 2.0947-.1964 2.656-.3518 1.0053-1.1423 1.7958-2.1476 2.1476-.5613.1964-1.25955.1964-2.656.1964s-2.09467 0-2.65598-.1964c-1.00536-.3518-1.79582-1.1423-2.14761-2.1476-.19641-.5613-.19641-1.2595-.19641-2.656zm2-.6c0-.8401 0-1.2601.16349-1.581.14381-.2822.37328-.5117.65552-.6555.32087-.1635.74091-.1635 1.58099-.1635h1.2c.84008 0 1.26012 0 1.581.1635.2822.1438.5117.3733.6555.6555.1635.3209.1635.7409.1635 1.581v1.2c0 .8401 0 1.2601-.1635 1.581-.1438.2822-.3733.5117-.6555.6555-.32088.1635-.74092.1635-1.581.1635h-1.2c-.84008 0-1.26012 0-1.58099-.1635-.28224-.1438-.51171-.3733-.65552-.6555-.16349-.3209-.16349-.7409-.16349-1.581zm10.1964-14.05598c-.1964.56131-.1964 1.25953-.1964 2.65598s0 2.0947.1964 2.656c.3518 1.0053 1.1423 1.7958 2.1476 2.1476.5613.1964 1.2596.1964 2.656.1964 1.3965 0 2.0947 0 2.656-.1964 1.0053-.3518 1.7958-1.1423 2.1476-2.1476.1964-.5613.1964-1.25955.1964-2.656s0-2.09467-.1964-2.65598c-.3518-1.00536-1.1423-1.79582-2.1476-2.14761-.5613-.19641-1.2595-.19641-2.656-.19641-1.3964 0-2.0947 0-2.656.19641-1.0053.35179-1.7958 1.14225-2.1476 2.14761zm1.9671.47499c-.1635.32087-.1635.74091-.1635 1.58099v1.2c0 .84008 0 1.26012.1635 1.581.1438.2822.3733.5117.6555.6555.3209.1635.7409.1635 1.581.1635h1.2c.8401 0 1.2601 0 1.581-.1635.2822-.1438.5117-.3733.6555-.6555.1635-.32088.1635-.74092.1635-1.581v-1.2c0-.84008 0-1.26012-.1635-1.58099-.1438-.28224-.3733-.51171-.6555-.65552-.3209-.16349-.7409-.16349-1.581-.16349h-1.2c-.8401 0-1.2601 0-1.581.16349-.2822.14381-.5117.37328-.6555.65552zm-2.1635 14.18099c0-1.3964 0-2.0947.1964-2.656.3518-1.0053 1.1423-1.7958 2.1476-2.1476.5613-.1964 1.2596-.1964 2.656-.1964 1.3965 0 2.0947 0 2.656.1964 1.0053.3518 1.7958 1.1423 2.1476 2.1476.1964.5613.1964 1.2596.1964 2.656 0 1.3965 0 2.0947-.1964 2.656-.3518 1.0053-1.1423 1.7958-2.1476 2.1476-.5613.1964-1.2595.1964-2.656.1964-1.3964 0-2.0947 0-2.656-.1964-1.0053-.3518-1.7958-1.1423-2.1476-2.1476-.1964-.5613-.1964-1.2595-.1964-2.656zm2-.6c0-.8401 0-1.2601.1635-1.581.1438-.2822.3733-.5117.6555-.6555.3209-.1635.7409-.1635 1.581-.1635h1.2c.8401 0 1.2601 0 1.581.1635.2822.1438.5117.3733.6555.6555.1635.3209.1635.7409.1635 1.581v1.2c0 .8401 0 1.2601-.1635 1.581-.1438.2822-.3733.5117-.6555.6555-.3209.1635-.7409.1635-1.581.1635h-1.2c-.8401 0-1.2601 0-1.581-.1635-.2822-.1438-.5117-.3733-.6555-.6555-.1635-.3209-.1635-.7409-.1635-1.581z" fill="currentColor" fill-rule="evenodd"/></svg>
