<svg xmlns="http://www.w3.org/2000/svg" width="28" height="28" fill="currentColor" viewBox="0 0 28 28"><path fill-rule="evenodd" d="M15 5h.4c1.713 0 2.878.002 3.778.075.877.072 1.325.202 1.638.361a4 4 0 0 1 1.748 1.748c.16.313.29.761.36 1.638.074.9.076 2.065.076 3.778v.4h-8V5Zm-2 0h-.4c-1.713 0-2.878.002-3.778.075-.877.072-1.325.202-1.638.361a4 4 0 0 0-1.748 1.748c-.16.313-.29.761-.36 1.638C5.001 9.722 5 10.887 5 12.6v.4h8V5ZM5 15v.4c0 1.713.002 2.878.075 3.778.072.877.202 1.325.361 1.638a4 4 0 0 0 1.748 1.748c.313.16.761.29 1.638.36.9.074 2.065.076 3.778.076h.4v-8H5Zm10 8h.4c1.713 0 2.878-.002 3.778-.075.877-.072 1.325-.202 1.638-.361a4 4 0 0 0 1.748-1.748c.16-.313.29-.761.36-1.638.074-.9.076-2.065.076-3.778V15h-8v8ZM3 12.6c0-3.36 0-5.04.654-6.324a6 6 0 0 1 2.622-2.622C7.56 3 9.24 3 12.6 3h2.8c3.36 0 5.04 0 6.324.654a6 6 0 0 1 2.622 2.622C25 7.56 25 9.24 25 12.6v2.8c0 3.36 0 5.04-.654 6.324a6 6 0 0 1-2.622 2.622C20.44 25 18.76 25 15.4 25h-2.8c-3.36 0-5.04 0-6.324-.654a6 6 0 0 1-2.622-2.622C3 20.44 3 18.76 3 15.4v-2.8Z" clip-rule="evenodd"/></svg>
