<svg xmlns="http://www.w3.org/2000/svg" width="28" height="28" fill="currentColor" viewBox="0 0 28 28"><path fill-rule="evenodd" d="M13.263 2.661a1.75 1.75 0 0 1 1.473 0l10.25 4.752c1.352.626 1.352 2.548 0 3.175l-10.25 4.755a1.75 1.75 0 0 1-1.472 0L3.016 10.595C1.664 9.97 1.663 8.048 3.014 7.42l10.25-4.759ZM14 4.524 4.346 9.007 14 13.48 23.656 9 14 4.524Zm11.91 9.526a1 1 0 0 1-.486 1.328l-10.686 4.961a1.75 1.75 0 0 1-1.473 0l-10.68-4.945a1 1 0 0 1 .84-1.815L14 18.476l10.582-4.912a1 1 0 0 1 1.328.486Zm-.481 6.252a1 1 0 1 0-.852-1.81L14 23.472 3.429 18.508a1 1 0 1 0-.85 1.81l10.677 5.015a1.75 1.75 0 0 0 1.49 0l10.682-5.03Z" clip-rule="evenodd"/></svg>
