<svg fill="none" height="28" viewBox="0 0 28 28" width="28" xmlns="http://www.w3.org/2000/svg"><g fill="currentColor"><path clip-rule="evenodd" d="m16.4053 11.7929c-.4547.9942-1.0474 2.0205-1.8192 2.7921s-1.7984 1.3641-2.7928 1.8187c.9944.4547 2.021 1.0472 2.7928 1.8188.7714.7712 1.3642 1.7959 1.8192 2.7884.455-.9925 1.0478-2.0172 1.8193-2.7884.7714-.7712 1.7963-1.3639 2.7891-1.8188-.9928-.4548-2.0177-1.0475-2.7891-1.8187-.7718-.7716-1.3645-1.7979-1.8193-2.7921zm-1.0482-2.83434c-.5265 1.60814-1.2534 3.28104-2.1852 4.21254-.9318.9316-2.6052 1.6583-4.21378 2.1847-.16396.0536-.32724.1052-.489.1547-.36132.1105-.71502.2107-1.05158.3006-.09689.0259-.19235.0509-.28617.0751-.44684.1151-.44684.9199 0 1.0351.09382.0241.18928.0492.28617.075.33655.0899.69026.1901 1.05158.3007.16176.0495.32504.1011.489.1547 1.60858.5264 3.28198 1.2531 4.21378 2.1846.9316.9314 1.6584 2.5995 2.1849 4.2024.0534.1626.1048.3246.1541.485.1108.3608.2113.714.3014 1.05.0261.0972.0513.1929.0756.287.1155.4464.9194.4464 1.0348 0 .0244-.0941.0496-.1898.0756-.287.0902-.336.1906-.6892.3015-1.05.0493-.1604.1006-.3224.1541-.485.5265-1.6029 1.2532-3.271 2.1849-4.2024.9316-.9314 2.6002-1.6579 4.2034-2.1843.1627-.0534.3247-.1047.4852-.154.3609-.1109.7141-.2113 1.0502-.3014.0972-.0261.193-.0512.2872-.0756.4464-.1154.4464-.9191 0-1.0345-.0942-.0244-.19-.0496-.2872-.0756-.3361-.0901-.6893-.1905-1.0502-.3014-.1605-.0493-.3225-.1006-.4852-.154-1.6032-.5264-3.2718-1.253-4.2034-2.1844-.9318-.9315-1.6587-2.6044-2.1852-4.21254-.0537-.16391-.1053-.32714-.1548-.48885-.1106-.36122-.2108-.71483-.3007-1.05129-.0259-.09687-.0509-.19231-.0751-.2861-.1152-.44672-.9202-.44672-1.0353 0-.0242.09379-.0492.18923-.0751.2861-.09.33646-.1902.69007-.3008 1.05129-.0495.16171-.1011.32494-.1547.48885z" fill-rule="evenodd"/><path d="m7.29687 2.36328c-.16351-.49039-.85734-.49039-1.02084 0l-.65124 1.95319c-.20509.61512-.68791 1.09781-1.3032 1.30285l-1.9537.65106c-.49052.16347-.49052.85711 0 1.02058l1.94887.64945c.61801.20595 1.1022.69193 1.30576 1.31059l.65284 1.9841c.16224.4931.85994.4931 1.02218 0l.65124-1.97926c.20445-.62137.69195-1.10874 1.31349-1.31314l1.97983-.65108c.4932-.16219.4932-.85971 0-1.0219l-1.98468-.65267c-.61881-.20351-1.10493-.68757-1.31093-1.30542z"/></g></svg>
