<svg xmlns="http://www.w3.org/2000/svg" width="28" height="28" fill="currentColor" viewBox="0 0 28 28"><path fill-rule="evenodd" d="M10.041 6.95a1.737 1.737 0 0 0-.255.107c-.243.127-.555.131-.748-.064l-2.063-2.09c-.188-.192-.184-.496-.062-.735.039-.075.072-.154.1-.236l.542-1.626a.448.448 0 0 1 .85 0l.54 1.622c.172.514.577.917 1.092 1.086l1.653.543c.41.135.41.716 0 .85l-1.649.543ZM3.698 4.284a.984.984 0 0 0-1.405.009 1.016 1.016 0 0 0 .01 1.423l7.271 7.272-3.95 1.58a1 1 0 0 0-.049 1.836l3.157 1.456a9 9 0 0 1 4.401 4.4l1.456 3.153a1 1 0 0 0 1.836-.048l1.58-3.946 4.297 4.297a.984.984 0 0 0 1.405-.009 1.016 1.016 0 0 0-.01-1.424l-20-20Zm4.826 11.278 2.589-1.035 5.353 5.353-1.035 2.586-.482-1.045a11 11 0 0 0-5.38-5.377l-1.045-.482Zm7.91-9.91a1 1 0 0 0-1.85-.06l-2.001 4.5a1 1 0 1 0 1.827.812l1.002-2.254.117.316a11 11 0 0 0 6.5 6.498l.317.117-2.253 1a1 1 0 1 0 .811 1.829l4.502-2a1 1 0 0 0-.06-1.852l-2.623-.97a9 9 0 0 1-5.318-5.316l-.97-2.62Z" clip-rule="evenodd"/></svg>
