<svg xmlns="http://www.w3.org/2000/svg" width="28" height="28" fill="currentColor" viewBox="0 0 28 28"><path d="M18.287 11.707a1 1 0 0 0-1.414 0l-2.829 2.829a1 1 0 0 0 1.415 1.414l2.828-2.829a1 1 0 0 0 0-1.414Z"/><path fill-rule="evenodd" d="M11.588 2a1 1 0 1 0 0 2H13v2.05c-5.053.5-9 4.764-9 9.95 0 5.523 4.477 10 10 10s10-4.477 10-10a9.959 9.959 0 0 0-2.269-6.343l1.406-1.406a1 1 0 0 0-1.414-1.414l-1.409 1.408A9.953 9.953 0 0 0 15 6.05V4h1.413a1 1 0 1 0 0-2h-4.825ZM6 16a8 8 0 1 1 16 0 8 8 0 0 1-16 0Z" clip-rule="evenodd"/></svg>
