<?xml version="1.0" encoding="UTF-8"?>
<svg width="28px" height="28px" viewBox="0 0 28 28" version="1.1" xmlns="http://www.w3.org/2000/svg" xmlns:xlink="http://www.w3.org/1999/xlink">
    <!-- Generator: Sketch 63.1 (92452) - https://sketch.com -->
    <title>story_outline_28</title>
    <desc>Created with Sketch.</desc>
    <g id="Page-1" stroke="none" stroke-width="1" fill="none" fill-rule="evenodd">
        <g id="story_outline_28">
            <rect x="0" y="0" width="28" height="28"></rect>
            <path d="M17.9257256,3.00171059 C19.8839049,3.02239252 20.8804307,3.23341312 21.9137131,3.78601861 C22.9027964,4.31498614 23.6850139,5.09720363 24.2139814,6.08628691 C24.7665869,7.11956934 24.9776075,8.1160951 24.9982894,10.0742744 L24.9982894,17.9257256 C24.9776075,19.8839049 24.7665869,20.8804307 24.2139814,21.9137131 C23.6850139,22.9027964 22.9027964,23.6850139 21.9137131,24.2139814 C20.8804307,24.7665869 19.8839049,24.9776075 17.9257256,24.9982894 L10.0742744,24.9982894 C8.1160951,24.9776075 7.11956934,24.7665869 6.08628691,24.2139814 C5.09720363,23.6850139 4.31498614,22.9027964 3.78601861,21.9137131 C3.23341312,20.8804307 3.02239252,19.8839049 3.00171059,17.9257256 L3.00171059,10.0742744 C3.02239252,8.1160951 3.23341312,7.11956934 3.78601861,6.08628691 C4.31498614,5.09720363 5.09720363,4.31498614 6.08628691,3.78601861 C7.11956934,3.23341312 8.1160951,3.02239252 10.0742744,3.00171059 L17.9257256,3.00171059 Z M17.590287,4.99999994 L10.409713,4.99999994 L9.85233093,5.00487863 C8.37304552,5.03292837 7.710678,5.18533867 7.02948457,5.5496449 C6.38893822,5.89221284 5.89221284,6.38893822 5.5496449,7.02948457 C5.18533867,7.710678 5.03292837,8.37304552 5.00487863,9.85233093 L4.99999994,10.409713 L4.99999994,17.590287 L5.00487863,18.1476691 C5.03292837,19.6269545 5.18533867,20.289322 5.5496449,20.9705154 C5.89221284,21.6110618 6.38893822,22.1077872 7.02948457,22.4503551 C7.710678,22.8146613 8.37304552,22.9670716 9.85233093,22.9951214 L10.409713,22.9999999 L17.590287,22.9999999 L18.1476691,22.9951214 C19.6269545,22.9670716 20.289322,22.8146613 20.9705154,22.4503551 C21.6110618,22.1077872 22.1077872,21.6110618 22.4503551,20.9705154 C22.8146613,20.289322 22.9670716,19.6269545 22.9951214,18.1476691 L22.9999999,17.590287 L22.9999999,10.409713 L22.9951214,9.85233093 C22.9670716,8.37304552 22.8146613,7.710678 22.4503551,7.02948457 C22.1077872,6.38893822 21.6110618,5.89221284 20.9705154,5.5496449 C20.289322,5.18533867 19.6269545,5.03292837 18.1476691,5.00487863 L17.590287,4.99999994 Z M14,8.75 C16.8994949,8.75 19.25,11.1005051 19.25,14 C19.25,16.8994949 16.8994949,19.25 14,19.25 C11.1005051,19.25 8.75,16.8994949 8.75,14 C8.75,11.1005051 11.1005051,8.75 14,8.75 Z M14,10.75 C12.2050746,10.75 10.75,12.2050746 10.75,14 C10.75,15.7949254 12.2050746,17.25 14,17.25 C15.7949254,17.25 17.25,15.7949254 17.25,14 C17.25,12.2050746 15.7949254,10.75 14,10.75 Z" id="↳-Icon-Color" fill="currentColor" fill-rule="nonzero"></path>
        </g>
    </g>
</svg>
