<svg fill="none" height="28" viewBox="0 0 28 28" width="28" xmlns="http://www.w3.org/2000/svg" xmlns:xlink="http://www.w3.org/1999/xlink"><linearGradient id="a" gradientUnits="userSpaceOnUse" x1="-14" x2="14" y1="14" y2="42"><stop offset="0" stop-color="#c48aff"/><stop offset="1" stop-color="#aa65f0"/></linearGradient><path d="m0 14c0-7.73199 6.26801-14 14-14 7.732 0 14 6.26801 14 14 0 7.732-6.268 14-14 14-7.73199 0-14-6.268-14-14z" fill="url(#a)"/><path d="m17.0117 7c1.3868 0 1.8897.1444 2.3967.41554s.9049.66904 1.1761 1.17603c.2711.507.4155 1.00989.4155 2.39673v6.0234c0 1.3868-.1444 1.8897-.4155 2.3967-.2712.507-.6691.9049-1.1761 1.1761-.507.2711-1.0099.4155-2.3967.4155h-6.0234c-1.38684 0-1.88973-.1444-2.39673-.4155-.50699-.2712-.90489-.6691-1.17603-1.1761s-.41554-1.0099-.41554-2.3967v-6.0234c0-1.38684.1444-1.88973.41554-2.39673.27114-.50699.66904-.90489 1.17603-1.17603.507-.27114 1.00989-.41554 2.39673-.41554zm-3.0095 3.1133c-2.1467 0-3.8889 1.7422-3.8889 3.8889s1.7422 3.8889 3.8889 3.8889 3.8889-1.7422 3.8889-3.8889-1.7422-3.8889-3.8889-3.8889zm-.0022 1.8867c1.1047 0 2 .8953 2 2s-.8953 2-2 2-2-.8953-2-2 .8953-2 2-2z" fill="#fff"/></svg>
