<svg fill="none" height="28" viewBox="0 0 28 28" width="28" xmlns="http://www.w3.org/2000/svg" xmlns:xlink="http://www.w3.org/1999/xlink"><linearGradient id="a" gradientUnits="userSpaceOnUse" x1="-14" x2="14" y1="14" y2="42"><stop offset="0" stop-color="#c48aff"/><stop offset="1" stop-color="#aa65f0"/></linearGradient><path d="m0 14c0-7.73199 6.26801-14 14-14 7.732 0 14 6.26801 14 14 0 7.732-6.268 14-14 14-7.73199 0-14-6.268-14-14z" fill="url(#a)"/><path d="m12.2113 15.117c0-.5532.1408-1.0408.4223-1.4627.2816-.422.7561-.8919 1.4235-1.4096.4032-.3121.7021-.5568.8968-.7341s.3546-.3758.4797-.5957.1877-.4681.1877-.7447c0-.31205-.0852-.58332-.2555-.81382-.1703-.23049-.3997-.4078-.6882-.53191-.2886-.12412-.5997-.18617-.9334-.18617-.8064 0-1.4495.31914-1.9292.95745-.1946.20567-.3719.35283-.5318.44145-.1599.0887-.3545.133-.584.133-.3823 0-.6778-.117-.88636-.35105-.20856-.23404-.31284-.52128-.31284-.8617 0-.32625.08342-.64894.25027-.96809.16686-.31915.39623-.60993.68823-.87234.3963-.35461.9021-.62943 1.5173-.82447.6153-.19503 1.3192-.29255 2.1117-.29255.9663 0 1.8232.1578 2.5705.4734.7474.31561 1.3279.77128 1.7415 1.36703.4137.59574.6205 1.30496.6205 2.12766 0 .57451-.1008 1.07451-.3024 1.50001s-.4641.7925-.7873 1.101c-.3233.3086-.7387.6437-1.2462 1.0054-.4588.3404-.7995.6312-1.0219.8723-.2225.2411-.4102.539-.5632.8936-.1529.2695-.2833.4787-.391.6277-.1078.1489-.2503.2695-.4276.3617s-.4015.1383-.6726.1383c-.4449 0-.7856-.1259-1.0219-.3777-.2364-.2517-.3546-.5762-.3546-.9734zm-.4693 4.2021c0-.3333.0817-.6276.2451-.8829s.3841-.4522.6622-.5905.584-.2074.9177-.2074.6395.0691.9176.2074.4971.3352.657.5905.2398.5496.2398.8829c0 .3334-.0799.6277-.2398.883s-.3789.4522-.657.5905-.5839.2074-.9176.2074-.6396-.0691-.9177-.2074-.4988-.3352-.6622-.5905-.2451-.5496-.2451-.883z" fill="#fff"/></svg>
