<svg xmlns="http://www.w3.org/2000/svg" width="28" height="28" viewBox="0 0 28 28" fill="currentColor"><path d="M15.037 2.095c-.554-.101-1.08-.14-1.612-.027a4 4 0 0 0-2.142 1.236c-.364.405-.593.88-.783 1.41-.186.52-.36 1.175-.573 1.97l-.669 2.499a1 1 0 1 0 1.932.518l.669-2.5c.221-.827.373-1.389.525-1.814.148-.414.268-.614.386-.744a2 2 0 0 1 1.071-.618c.172-.037.405-.042.838.037.444.08 1.007.231 1.834.453l3.284.88c.827.221 1.39.373 1.814.525.415.148.615.269.746.386.313.283.53.658.618 1.071.036.172.04.406-.038.838-.081.444-.23 1.007-.453 1.834l-2.692 10.046c-.221.827-.372 1.39-.524 1.815-.148.414-.27.614-.387.745a2 2 0 0 1-1.07.618c-.337.071-.787.008-2.092-.337a1 1 0 0 0-.51 1.933c1.183.313 2.126.55 3.018.36a4 4 0 0 0 2.14-1.236c.365-.405.594-.879.784-1.41.185-.52.36-1.175.573-1.97l2.692-10.046c.213-.796.39-1.45.488-1.993.102-.555.14-1.08.027-1.613a4 4 0 0 0-1.236-2.141c-.404-.365-.879-.594-1.41-.784-.52-.185-1.175-.36-1.97-.573l-3.285-.88c-.795-.213-1.45-.389-1.993-.488"/><path d="M11.316 13.19a.707.707 0 0 0-1.349 0l-.54 1.655a3.59 3.59 0 0 1-2.248 2.292l-1.622.552c-.648.22-.648 1.154 0 1.375l1.622.552a3.59 3.59 0 0 1 2.248 2.292l.54 1.654a.707.707 0 0 0 1.349 0l.54-1.654a3.59 3.59 0 0 1 2.249-2.292l1.622-.552c.647-.22.647-1.155 0-1.375l-1.622-.552a3.59 3.59 0 0 1-2.248-2.292zm-5.31-3.106a.342.342 0 0 0-.648 0l-.26.78c-.17.51-.572.911-1.082 1.082l-.78.26a.342.342 0 0 0 0 .648l.78.26c.51.17.912.571 1.082 1.082l.26.78a.342.342 0 0 0 .648 0l.26-.78a1.71 1.71 0 0 1 1.082-1.081l.78-.261a.342.342 0 0 0 0-.649l-.78-.26a1.71 1.71 0 0 1-1.082-1.08z"/></svg>