<svg xmlns="http://www.w3.org/2000/svg" width="28" height="28" fill="currentColor" viewBox="0 0 28 28"><path fill-rule="evenodd" d="M15.044 2h-.088c-1.363 0-2.447 0-3.321.071-.896.074-1.66.227-2.359.583a6 6 0 0 0-2.622 2.622c-.356.7-.51 1.463-.583 2.359C6 8.509 6 9.593 6 10.956V13a4 4 0 0 0-4 4v5a4 4 0 0 0 4 4h9.044c1.363 0 2.447 0 3.321-.071.896-.074 1.66-.227 2.359-.583a6 6 0 0 0 2.622-2.622c.356-.7.51-1.463.583-2.359.071-.874.071-1.958.071-3.321v-6.088c0-1.363 0-2.447-.071-3.321-.074-.896-.227-1.66-.583-2.359a6 6 0 0 0-2.622-2.622c-.7-.356-1.463-.51-2.359-.583C17.491 2 16.407 2 15.044 2ZM6 24v-9a2 2 0 0 0-2 2v5a2 2 0 0 0 2 2Zm2-10v10h7c1.417 0 2.419 0 3.203-.065.771-.063 1.243-.182 1.613-.371a4 4 0 0 0 1.748-1.748c.189-.37.308-.841.371-1.613C22 19.419 22 18.417 22 17v-6c0-1.417 0-2.419-.065-3.203-.063-.771-.182-1.243-.371-1.613a4 4 0 0 0-1.748-1.748c-.37-.189-.841-.308-1.613-.371C17.419 4 16.417 4 15 4c-1.417 0-2.419 0-3.203.065-.772.063-1.243.182-1.613.371a4 4 0 0 0-1.748 1.748c-.189.37-.308.842-.371 1.613C8 8.581 8 9.583 8 11v3Zm2.002-5a1 1 0 0 1 1-1h8a1 1 0 1 1 0 2h-8a1 1 0 0 1-1-1Zm1 4a1 1 0 1 0 0 2h5a1 1 0 1 0 0-2h-5Z" clip-rule="evenodd"/></svg>
