<svg xmlns="http://www.w3.org/2000/svg" width="28" height="28" fill="currentColor" viewBox="0 0 28 28"><path fill-rule="evenodd" d="M18.308 4c2.675 0 3.645.278 4.622.801A5.452 5.452 0 0 1 25.2 7.07c.522.978.801 1.948.801 4.623v4.616c0 2.675-.279 3.645-.801 4.622a5.452 5.452 0 0 1-2.27 2.269c-.977.522-1.947.801-4.622.801H9.692c-2.675 0-3.645-.279-4.623-.801a5.452 5.452 0 0 1-2.268-2.269C2.278 19.953 2 18.983 2 16.308v-4.616c0-2.675.278-3.645.801-4.623A5.452 5.452 0 0 1 5.07 4.801C6.047 4.278 7.017 4 9.692 4h8.616ZM7 13a1 1 0 0 1 1-1h2a1 1 0 1 1 0 2H8a1 1 0 0 1-1-1Zm10 4a1 1 0 0 1 1-1h2a1 1 0 1 1 0 2h-2a1 1 0 0 1-1-1Zm-3-5a1 1 0 1 0 0 2h6a1 1 0 1 0 0-2h-6Zm-7 5a1 1 0 0 1 1-1h6a1 1 0 1 1 0 2H8a1 1 0 0 1-1-1Z" clip-rule="evenodd"/></svg>
