<?xml version="1.0" encoding="UTF-8"?>
<svg width="28px" height="28px" viewBox="0 0 28 28" version="1.1" xmlns="http://www.w3.org/2000/svg" xmlns:xlink="http://www.w3.org/1999/xlink">
    <!-- Generator: Sketch 63.1 (92452) - https://sketch.com -->
    <title>subtitles_outline_28</title>
    <desc>Created with Sketch.</desc>
    <g id="Page-1" stroke="none" stroke-width="1" fill="none" fill-rule="evenodd">
        <g id="subtitles_outline_28">
            <rect x="0" y="0" width="28" height="28"></rect>
            <path d="M18.3083444,4 C20.9829006,4 21.9527593,4.27847683 22.9305371,4.80139811 C23.9083149,5.32431939 24.6756806,6.09168511 25.1986019,7.06946289 C25.7215232,8.04724067 26,9.01709938 26,11.6916556 L26,16.3083444 C26,18.9829006 25.7215232,19.9527593 25.1986019,20.9305371 C24.6756806,21.9083149 23.9083149,22.6756806 22.9305371,23.1986019 C21.9527593,23.7215232 20.9829006,24 18.3083444,24 L9.6916556,24 C7.01709938,24 6.04724067,23.7215232 5.06946289,23.1986019 C4.09168511,22.6756806 3.32431939,21.9083149 2.80139811,20.9305371 C2.27847683,19.9527593 2,18.9829006 2,16.3083444 L2,11.6916556 C2,9.01709938 2.27847683,8.04724067 2.80139811,7.06946289 C3.32431939,6.09168511 4.09168511,5.32431939 5.06946289,4.80139811 C6.04724067,4.27847683 7.01709938,4 9.6916556,4 L18.3083444,4 Z M18.591291,6.0009221 L9.6916556,6 C7.55513514,6 6.79451991,6.14688158 6.01266061,6.56502451 C5.38341978,6.90154619 4.90154619,7.38341978 4.56502451,8.01266061 C4.16588807,8.75898085 4.01391333,9.48594441 4.0009221,11.408709 L4,16.3083444 C4,18.4448649 4.14688158,19.2054801 4.56502451,19.9873394 C4.90154619,20.6165802 5.38341978,21.0984538 6.01266061,21.4349755 C6.79451991,21.8531184 7.55513514,22 9.6916556,22 L18.3083444,22 C20.4448649,22 21.2054801,21.8531184 21.9873394,21.4349755 C22.6165802,21.0984538 23.0984538,20.6165802 23.4349755,19.9873394 C23.8531184,19.2054801 24,18.4448649 24,16.3083444 L24,11.6916556 C24,9.55513514 23.8531184,8.79451991 23.4349755,8.01266061 C23.0984538,7.38341978 22.6165802,6.90154619 21.9873394,6.56502451 C21.2410191,6.16588807 20.5140556,6.01391333 18.591291,6.0009221 Z M14,16 C14.5522847,16 15,16.4477153 15,17 C15,17.5522847 14.5522847,18 14,18 L14,18 L8,18 C7.44771525,18 7,17.5522847 7,17 C7,16.4477153 7.44771525,16 8,16 L8,16 Z M20,16 C20.5522847,16 21,16.4477153 21,17 C21,17.5522847 20.5522847,18 20,18 L20,18 L18,18 C17.4477153,18 17,17.5522847 17,17 C17,16.4477153 17.4477153,16 18,16 L18,16 Z M20,12 C20.5522847,12 21,12.4477153 21,13 C21,13.5522847 20.5522847,14 20,14 L14,14 C13.4477153,14 13,13.5522847 13,13 C13,12.4477153 13.4477153,12 14,12 L20,12 Z M10,12 C10.5522847,12 11,12.4477153 11,13 C11,13.5522847 10.5522847,14 10,14 L8,14 C7.44771525,14 7,13.5522847 7,13 C7,12.4477153 7.44771525,12 8,12 L10,12 Z" id="↳-Icon-Color" fill="currentColor" fill-rule="nonzero"></path>
        </g>
    </g>
</svg>
