<svg fill="none" height="28" viewBox="0 0 28 28" width="28" xmlns="http://www.w3.org/2000/svg"><g fill="currentColor"><path d="m15 2c0-.55228-.4477-1-1-1s-1 .44772-1 1v3c0 .55228.4477 1 1 1s1-.44772 1-1z"/><path d="m15 23c0-.5523-.4477-1-1-1s-1 .4477-1 1v3c0 .5523.4477 1 1 1s1-.4477 1-1z"/><path d="m23.8923 20.866c.4783.2762 1.0899.1123 1.366-.366.2762-.4783.1123-1.0899-.366-1.366l-2.5981-1.5c-.4782-.2762-1.0898-.1123-1.366.366-.2761.4783-.1122 1.0899.366 1.366z"/><path d="m5.70579 10.366c.47829.2762 1.08988.1123 1.36603-.366.27614-.4783.11226-1.08989-.36603-1.36603l-2.59808-1.5c-.47829-.27614-1.08988-.11226-1.36602.36603s-.11227 1.08988.36602 1.36602z"/><path d="m2.74169 20.5c-.27615-.4783-.11227-1.0899.36602-1.366l2.59808-1.5c.47829-.2762 1.08988-.1123 1.36602.366s.11227 1.0899-.36602 1.366l-2.59808 1.5c-.47829.2762-1.08988.1123-1.36602-.366z"/><path d="m20.9282 10c-.2761-.47829-.1122-1.08988.366-1.36602l2.5981-1.5c.4783-.27615 1.0899-.11227 1.366.36602.2762.47829.1123 1.08989-.366 1.36603l-2.5981 1.49997c-.4782.2762-1.0898.1123-1.366-.366z"/><path clip-rule="evenodd" d="m14 8.03125c-3.2964 0-5.96875 2.67235-5.96875 5.96875s2.67235 5.9688 5.96875 5.9688 5.9688-2.6724 5.9688-5.9688-2.6724-5.96875-5.9688-5.96875zm-4.00781 5.96875c0-2.3546 1.65321-4.00781 4.00781-4.00781s4.0156 1.65321 4.0156 4.00781-1.661 4-4.0156 4-4.00781-1.6454-4.00781-4z" fill-rule="evenodd"/></g>
</svg>