<svg fill="none" height="28" viewBox="0 0 28 28" width="28" xmlns="http://www.w3.org/2000/svg"><g fill="currentColor"><path d="m9.62587 6.41983c1.28573-.74376 2.77823-1.16983 4.37413-1.16983 4.4943 0 8.1972 3.38843 8.6934 7.75h-1.5349c-.4538 0-.7175.512-.4533.88l2.7915 3.8877c.2224.3097.6841.3097.9066 0l2.7914-3.8877c.2643-.368.0006-.88-.4533-.88h-1.5353c-.506-5.74477-5.3299-10.25-11.2061-10.25-2.0471 0-3.9699.54787-5.62594 1.50581-.59758.34568-.80178 1.11034-.4561 1.70792s1.11033.80178 1.70791.4561z"/><path d="m2.7938 15h-1.53529c-.453846 0-.717567-.512-.453297-.88l2.791447-3.8877c.22242-.30974.68417-.30974.90659 0l2.79144 3.8877c.26427.368.00055.88-.45329.88h-1.53492c.49622 4.3616 4.19915 7.75 8.69352 7.75 1.6118 0 3.1184-.4347 4.4129-1.1924.5958-.3488 1.3615-.1485 1.7102.4473s.1485 1.3615-.4473 1.7102c-1.6672.9759-3.6081 1.5349-5.6758 1.5349-5.87624 0-10.70019-4.5052-11.2062-10.25z"/></g></svg>
