<svg fill="none" height="28" viewBox="0 0 28 28" width="28" xmlns="http://www.w3.org/2000/svg"><g fill="currentColor"><path d="m21.5085 4.5c.5525 0 1.0005.44772 1.0005 1v3.5c0 .55228-.448 1-1.0005 1h-3.5017c-.5526 0-1.0005-.44772-1.0005-1s.4479-1 1.0005-1h1.2925c-1.4116-1.24549-3.265-2-5.2945-2-4.11912 0-7.51268 3.11098-7.95495 7.1099-.06071.5489-.55515.9447-1.10436.884-.54921-.0606-.94521-.5548-.8845-1.1038.5531-5.00098 4.79339-8.8901 9.94381-8.8901 2.4833 0 4.7549.90468 6.5032 2.40058v-.90058c0-.55228.4479-1 1.0005-1z"/><path d="m23.0642 14.0061c.5492.0606.9452.5548.8845 1.1038-.5531 5.001-4.7934 8.8901-9.9439 8.8901-2.4832 0-4.75482-.9047-6.50312-2.4006v.9006c0 .5523-.44794 1-1.00049 1s-1.00049-.4477-1.00049-1v-3.5c0-.5523.44794-1 1.00049-1h3.50171c.5525 0 1.0005.4477 1.0005 1s-.448 1-1.0005 1h-1.29247c1.41157 1.2455 3.26497 2 5.29437 2 4.1192 0 7.5128-3.111 7.955-7.1099.0607-.5489.5552-.9447 1.1044-.884z"/></g></svg>
