<svg xmlns="http://www.w3.org/2000/svg" width="28" height="28" fill="currentColor" viewBox="0 0 28 28"><path d="M13.988 22.5c1.267 0 2.056-.86 2.056-2.224v-5.084h.07l5.157 6.449c.43.553.941.859 1.708.859 1.138 0 2.021-.883 2.021-2.036 0-.506-.105-1.012-.523-1.518l-4.727-5.673 4.611-5.272c.325-.377.43-.753.43-1.165C24.79 5.765 23.978 5 22.874 5c-.58 0-1.01.188-1.417.694l-5.331 6.426h-.082V7.224c0-1.365-.79-2.224-2.056-2.224s-2.056.86-2.056 2.224v4.896h-.08l-5.31-6.426C6.149 5.2 5.707 5 5.115 5c-1.103 0-1.917.765-1.917 1.824 0 .424.105.847.43 1.224l4.588 5.296-4.704 5.614C3.105 19.476 3 19.97 3 20.476c0 1.153.86 2.024 2.01 2.024.755 0 1.277-.306 1.707-.86l5.146-6.448h.07v5.084c0 1.365.79 2.224 2.055 2.224Z"/></svg>
