<svg xmlns="http://www.w3.org/2000/svg" width="28" height="28" fill="currentColor" viewBox="0 0 28 28"><path fill-rule="evenodd" d="M7 5a2 2 0 0 0-2 2v1a1 1 0 1 1-2 0V7a4 4 0 0 1 4-4h1a1 1 0 1 1 0 2H7Zm1 4a1 1 0 0 1 1-1h10a1 1 0 1 1 0 2H9a1 1 0 0 1-1-1Zm0 10a1 1 0 0 1 1-1h6a1 1 0 1 1 0 2H9a1 1 0 0 1-1-1Zm1-6a1 1 0 1 0 0 2h10a1 1 0 1 0 0-2H9Zm12-8a2 2 0 0 1 2 2v1a1 1 0 1 0 2 0V7a4 4 0 0 0-4-4h-1a1 1 0 1 0 0 2h1Zm0 18a2 2 0 0 0 2-2v-1a1 1 0 1 1 2 0v1a4 4 0 0 1-4 4h-1a1 1 0 1 1 0-2h1ZM7 23a2 2 0 0 1-2-2v-1a1 1 0 1 0-2 0v1a4 4 0 0 0 4 4h1a1 1 0 1 0 0-2H7Z" clip-rule="evenodd"/></svg>
