<svg fill="none" height="28" viewBox="0 0 28 28" width="28" xmlns="http://www.w3.org/2000/svg"><path d="m22.1813 5.22119c2.3495 2.19056 3.8187 5.31311 3.8187 8.77881s-1.4692 6.5882-3.8187 8.7788m-16.3626 0c-2.34952-2.1906-3.8187-5.3131-3.8187-8.7788s1.46918-6.58824 3.8187-8.77881" stroke="currentColor" stroke-linecap="round" stroke-linejoin="round" stroke-width="2"/><path d="m19.5768 8.26422c1.4947 1.45351 2.4232 3.48618 2.4232 5.73578s-.9285 4.2823-2.4232 5.7358m-11.1536 0c-1.49469-1.4535-2.4232-3.4862-2.4232-5.7358s.92851-4.28227 2.4232-5.73578" stroke="currentColor" stroke-linecap="round" stroke-linejoin="round" stroke-width="2"/><path d="m14 18v-7" stroke="currentColor" stroke-linecap="round" stroke-linejoin="round" stroke-width="2"/><path d="m11 11h6" stroke="currentColor" stroke-linecap="round" stroke-linejoin="round" stroke-width="2"/><g fill="currentColor"><path d="m22.8632 4.48978c-.4039-.37662-1.0367-.35447-1.4133.04948s-.3545 1.03673.0495 1.41335c2.1551 2.00934 3.5006 4.87049 3.5006 8.04739s-1.3455 6.0381-3.5006 8.0474c-.404.3766-.4261 1.0094-.0495 1.4133.3766.404 1.0094.4262 1.4133.0495 2.5439-2.3718 4.1368-5.7557 4.1368-9.5102s-1.5929-7.13843-4.1368-9.51022z"/><path d="m6.50064 5.95261c.40395-.37662.4261-1.0094.04948-1.41335s-1.0094-.4261-1.41335-.04948c-2.5439 2.37179-4.13677 5.75572-4.13677 9.51022s1.59287 7.1384 4.13677 9.5102c.40395.3767 1.03673.3545 1.41335-.0495.37662-.4039.35447-1.0367-.04948-1.4133-2.15515-2.0093-3.50064-4.8705-3.50064-8.0474s1.34549-6.03805 3.50064-8.04739z"/><path d="m9.12037 8.98114c.39594-.38504.40478-1.01814.01975-1.41408-.38504-.39594-1.01814-.40478-1.41408-.01975-1.6803 1.63401-2.72604 3.92209-2.72604 6.45269s1.04574 4.8187 2.72604 6.4527c.39594.3851 1.02904.3762 1.41408-.0197.38503-.396.37619-1.0291-.01975-1.4141-1.30908-1.273-2.12037-3.0503-2.12037-5.0189 0-1.9685.81129-3.7459 2.12037-5.01886z"/><path d="m20.274 7.54731c-.396-.38503-1.0291-.37619-1.4141.01975-.3851.39594-.3762 1.02904.0197 1.41408 1.3091 1.27296 2.1204 3.05036 2.1204 5.01886 0 1.9686-.8113 3.7459-2.1204 5.0189-.3959.385-.4048 1.0181-.0197 1.4141.385.3959 1.0181.4048 1.4141.0197 1.6803-1.634 2.726-3.9221 2.726-6.4527s-1.0457-4.81868-2.726-6.45269z"/><path d="m13 12v6c0 .5523.4477 1 1 1s1-.4477 1-1v-6h2c.5523 0 1-.4477 1-1s-.4477-1-1-1h-6c-.5523 0-1 .4477-1 1s.4477 1 1 1z"/></g></svg>
