<svg fill="none" height="28" viewBox="0 0 28 28" width="28" xmlns="http://www.w3.org/2000/svg"><g clip-rule="evenodd" fill="currentColor" fill-rule="evenodd"><path d="m11.8193 17.1865c-.1914.6426-.4648.8955-.957.8955-.5059 0-.8545-.3076-.8545-.7724 0-.1846.0479-.3965.1641-.7451l2.3515-6.74028c.294-.86817.711-1.23047 1.4903-1.23047.7724 0 1.1826.35547 1.4765 1.23047l2.3516 6.74028c.0957.2939.1436.5195.1436.7109 0 .4922-.3487.8066-.875.8066-.4991 0-.7862-.2597-.9708-.8955l-.5263-1.5859h-3.2744zm2.1192-6.7334-1.1895 3.7735h2.461l-1.1827-3.7735z"/><path d="m14 2c-6.62742 0-12 5.37258-12 12 0 6.6274 5.37258 12 12 12 6.6274 0 12-5.3726 12-12 0-6.62742-5.3726-12-12-12zm-10 12c0-5.52285 4.47715-10 10-10 5.5228 0 10 4.47715 10 10 0 5.5228-4.4772 10-10 10-5.52285 0-10-4.4772-10-10z"/></g></svg>
