<svg xmlns="http://www.w3.org/2000/svg" width="28" height="28" fill="none" viewBox="0 0 28 28"><path fill="url(#a)" fill-rule="evenodd" d="M14 28c7.732 0 14-6.268 14-14S21.732 0 14 0 0 6.268 0 14s6.268 14 14 14Z" clip-rule="evenodd"/><path fill="#fff" d="M11.802 11.844c-.008.075-.008.15-.008.303v5.473c0 .588 0 .882.114 1.107.1.197.261.358.459.459.224.114.518.114 1.106.114h3.682c.879 0 1.318 0 1.68-.087a3.15 3.15 0 0 0 2.328-2.328c.087-.362.087-.801.087-1.68 0-.879 0-1.318-.087-1.68a3.15 3.15 0 0 0-2.328-2.328c-.362-.087-.801-.087-1.68-.087h-1.264l.206-2.881a1.427 1.427 0 0 0-2.76-.603l-1.4 3.734c-.054.142-.08.213-.1.286a1.396 1.396 0 0 0-.035.198Zm-4.972-.087c-.08.194-.08.439-.08.93v5.037c0 .49 0 .735.08.929.107.256.31.46.567.567.194.08.439.08.93.08.49 0 .734 0 .928-.08.256-.107.46-.31.567-.567.08-.194.08-.439.08-.93v-5.037c0-.49 0-.735-.08-.929a1.05 1.05 0 0 0-.567-.567c-.194-.08-.439-.08-.929-.08-.49 0-.735 0-.929.08a1.05 1.05 0 0 0-.567.567Z"/><defs><linearGradient id="a" x1="-14" x2="14" y1="14" y2="42" gradientUnits="userSpaceOnUse"><stop stop-color="#50C750"/><stop offset="1" stop-color="#32B332"/></linearGradient></defs></svg>
