<svg fill="none" height="28" viewBox="0 0 28 28" width="28" xmlns="http://www.w3.org/2000/svg"><path clip-rule="evenodd" d="m13.4059 5.04762c.1699-.79242 1.0106-1.24271 1.7643-.94498.5008.19779.8298.6815.8298 1.21989v4.67767c0 .5523.4477 1 1 1h1.5c1.8172 0 3.1636.5087 4.0529 1.3733.8845.8599 1.4471 2.1986 1.4471 4.1267v1c0 1.9281-.5626 3.2669-1.4471 4.1268-.8893.8645-2.2357 1.3732-4.0529 1.3732h-3.5-.0256-.0255-.0255-.0254-.0254-.0253-.0252-.0253-.0251-.0251-.0251-.025-.0249-.025-.0248-.0248-.0248-.0246-.0247-.0246-.0245-.0245-.0245-.0243-.0244-.0243-.0242-.0242-.0241-.0241-.024-.024-.0239-.0239-.0238-.0238-.0237-.0236-.0237-.0235-.0235-.0235-.0234-.0234-.0233-.0232-.0232-.0232-.0231-.023-.023-.0229-.0229-.0229-.0228-.0227-.0227-.0226-.0226-.0225-.0225-.0225-.0223-.0224-.0222-.0223-.0221-.0222-.022-.0221-.0219-.0219-.0219-.0218-.0218-.0217-.0217-.0216-.0215-.0215-.0215-.0214-.0213-.0213-.0213-.0212-.0211-.0211-.0211-.021-.0209-.0209-.0209-.0207-.0208-.0207-.0206-.0206-.0205-.0205-.0204-.0204-.0204-.0202-.0203-.0201-.0202-.02-.0201-.0199-.02-.0198-.0199-.0197-.0197-.0197-.0196-.0196-.0195-.0195-.0194-.0193-.0194-.0192-.0192-.0192-.0191-.019-.019-.019-.0189-.0189-.0188-.0187-.0187-.0187-.0185-.0186-.0185-.0184-.0184-.0184-.0183-.0182-.0182-.0181-.0181-.0181-.018-.0179-.0179-.0178-.0178-.0177-.0177-.0177-.0175-.0176-.0175-.0174-.0174-.0173-.0173-.0172-.0172-.0171-.0171-.017-.017-.0169-.0169-.0168-.0168-.0167-.0167-.0166-.0166-.0165-.0164-.0165-.0163-.0163-.0163-.0162-.0162-.0161-.0161-.016-.0159-.016-.0158-.0158-.0158-.0157-.0157-.0156-.0155-.0156-.0154-.0154-.0154-.0153-.0152-.0153-.0151-.0151-.0151-.015-.0149-.0149-.0149-.0148-.0148-.0147-.0146-.0146-.0146-.0145-.0144-.0144-.0144-.0143-.0142-.0142-.0142-.0141-.014-.014-.014-.0139-.0138-.0138-.0138-.0137-.0136-.0136-.0136-.0135-.0134-.0134-.0134-.0133-.0132-.0132-.0132-.0131-.013-.013-.013-.0129-.0128-.0128-.0128-.0126-.0127-.0126-.0125-.0125-.0125-.0124-.0123-.0123-.0123-.0122-.0121-.0121-.01207-.012-.01194-.0119-.01185-.0118-.01175-.0117-.01164-.0116-.01155-.0115-.01145-.0114-.01135-.0113-.01125-.0112-.01115-.0111-.01105-.011-.01095-.0109-.01086-.0108-.01075-.0107-.01065-.01061-.01055-.0105-.01046-.0104-.01035-.01031-.01025-.01021-.01015-.01011-.01006-.01-.00996-.00991-.00986-.0098-.00319c.00566-.2157.00565-.4562.00564-.7194v-.0306-7.5-.0306c.00001-.2691.00002-.5146-.00604-.7339l1.70904-1.3673c.4528-.3622.7665-.8697.888-1.4366zm-4.60579 6.93188 1.15354-.9228c.09265-.0741.15685-.178.18175-.2941l1.3149-6.13418c.4289-2.00075 2.5516-3.13765 4.4547-2.38593 1.2643.4994 2.095 1.72069 2.095 3.08004v3.67767h.5c2.1828 0 4.0864.61635 5.4471 1.9393 1.3655 1.3276 2.0529 3.2388 2.0529 5.5607v1c0 2.3219-.6874 4.2332-2.0529 5.5608-1.3607 1.3229-3.2643 1.9392-5.4471 1.9392h-3.5-.0256-.0255-.0255-.0254-.0254-.0253-.0252-.0253-.0251-.0251-.0251-.025-.0249-.025-.0248-.0248-.0248-.0246-.0247-.0246-.0245-.0245-.0245-.0243-.0244-.0243-.0242-.0242-.0241-.0241-.024-.024-.0239-.0239-.0238-.0238-.0237-.0236-.0237-.0235-.0235-.0235-.0234-.0234-.0233-.0232-.0232-.0232-.0231-.023-.023-.0229-.0229-.0229-.0228-.0227-.0227-.0226-.0226-.0225-.0225-.0225-.0223-.0224-.0222-.0223-.0221-.0222-.022-.0221-.0219-.0219-.0219-.0218-.0218-.0217-.0217-.0216-.0215-.0215-.0215-.0214-.0213-.0213-.0213-.0212-.0211-.0211-.0211-.021-.0209-.0209-.0209-.0207-.0208-.0207-.0206-.0206-.0205-.0205-.0204-.0204-.0204-.0202-.0203-.0201-.0202-.02-.0201-.0199-.02-.0198-.0199-.0197-.0197-.0197-.0196-.0196-.0195-.0195-.0194-.0193-.0194-.0192-.0192-.0192-.0191-.019-.019-.019-.0189-.0189-.0188-.0187-.0187-.0187-.0185-.0186-.0185-.0184-.0184-.0184-.0183-.0182-.0182-.0181-.0181-.0181-.018-.0179-.0179-.0178-.0178-.0177-.0177-.0177-.0175-.0176-.0175-.0174-.0174-.0173-.0173-.0172-.0172-.0171-.0171-.017-.017-.0169-.0169-.0168-.0168-.0167-.0167-.0166-.0166-.0165-.0164-.0165-.0163-.0163-.0163-.0162-.0162-.0161-.0161-.016-.0159-.016-.0158-.0158-.0158-.0157-.0157-.0156-.0155-.0156-.0154-.0154-.0154-.0153-.0152-.0153-.0151-.0151-.0151-.015-.0149-.0149-.0149-.0148-.0148-.0147-.0146-.0146-.0146-.0145-.0144-.0144-.0144-.0143-.0142-.0142-.0142-.0141-.014-.014-.014-.0139-.0138-.0138-.0138-.0137-.0136-.0136-.0136-.0135-.0134-.0134-.0134-.0133-.0132-.0132-.0132-.0131-.013-.013-.013-.0129-.0128-.0128-.0128-.0126-.0127-.0126-.0125-.0125-.0125-.0124-.0123-.0123-.0123-.0122-.0121-.0121-.01207-.012-.01194-.0119-.01185-.0118-.01175-.0117-.01164-.0116-.01155-.0115-.01145-.0114-.01135-.0113-.01125-.0112-.01115-.0111-.01105-.011-.01095-.0109-.01086-.0108-.01075-.0107-.01065-.01061-.01055-.0105-.01046-.0104-.01035-.01031-.01025-.01021-.01015-.01011-.01006-.01-.00996-.00991-.00986-.0098-.00976-.00971-.00966-.00961-.00956-.00951-.00946-.00941-.00936-.00932-.00926-.00921-.00917-.00911-.00907-.00901-.00897-.00891-.00887-.00882-.00876-.00872-.00867-.00862-.00857-.00852-.00847-.00842-.00837-.00833-.00827-.00822-.00818-.00812-.00808-.00803-.00797-.00793-.00788-.00783-.00778-.00773-.00768-.00763-.00758-.00754-.00748-.00743-.00739-.00733-.00729-.00724-.00719-.00714-.00709-.00704-.00699-.00694-.00689-.00685-.00679-.00675-.00669-.00665-.0066-.00654-.0065-.00645-.00641-.00635-.0063-.00625-.00621-.00615-.00611-.00606-.00601-.00595-.00591-.00587-.00581-.00576-.00571-.00567-.00562-.00556-.00552-.00547-.00542-.00455c-.29599.3468-.67388.6211-1.10532.7945-.30491.1225-.61094.1667-.91154.1866-.28456.0189-.62731.0189-1.02039.0189h-.0001-.03061-.03061-.00009c-.39309 0-.73584 0-1.0204-.0189-.3006-.0199-.60662-.0641-.91154-.1866-.72083-.2897-1.29219-.861-1.58184-1.5818-.12253-.305-.16668-.611-.18664-.9116-.0189-.2846-.01889-.6273-.01888-1.0204v-.0001-.0306-7.5-.0306-.0001c-.00001-.3931-.00002-.7358.01888-1.0204.01996-.3006.06411-.6066.18664-.9115.28965-.7209.86101-1.2922 1.58184-1.5819.30492-.1225.61094-.1667.91154-.1866.28459-.0189.62737-.0189 1.0205-.0189h.0306.0306c.39313 0 .73592 0 1.0205.0189.3006.0199.60663.0641.91154.1866.42282.1699.7942.4367 1.08747.7738zm-4.26704 1.082c.02708-.0109.09668-.0334.29835-.0468.21031-.014.48601-.0145.91858-.0145s.70827.0005.91859.0145c.20166.0134.27126.0359.29834.0468.21499.0864.38539.2568.47178.4718.01088.0271.03342.0967.04681.2983.01397.2103.01448.486.01448.9186v7.5c0 .4326-.00051.7083-.01448.9186-.01339.2017-.03593.2713-.04681.2983-.08639.215-.25679.3854-.47178.4718-.02708.0109-.09668.0334-.29834.0468-.21032.014-.48602.0145-.91859.0145s-.70827-.0005-.91858-.0145c-.20167-.0134-.27127-.0359-.29835-.0468-.21498-.0864-.38538-.2568-.47177-.4718-.01088-.027-.03343-.0966-.04682-.2983-.01396-.2103-.01448-.486-.01448-.9186v-7.5c0-.4326.00052-.7083.01448-.9186.01339-.2016.03594-.2712.04682-.2983.08639-.215.25679-.3854.47177-.4718z" fill="currentColor" fill-rule="evenodd"/></svg>
