<svg xmlns="http://www.w3.org/2000/svg" width="28" height="28" fill="currentColor" viewBox="0 0 28 28"><path d="M9.65 4.001C5.454 4.001 3 5.981 3 10.523v1.397c0 4.542 2.718 6.078 6.914 6.078h1.089v4.826a2.172 2.172 0 0 0 4.253.626l2.158-7.186c.056-.188.085-.383.085-.579V5.603c0-.56 0-.841-.109-1.055a1 1 0 0 0-.437-.438c-.214-.109-.494-.109-1.053-.109H9.65Zm15.308 10.337c.042-.201.042-.443.042-.927V5.603c0-.484 0-.726-.042-.927-.174-.826-.856-1.472-1.729-1.636C23.017 3 22.761 3 22.25 3c-.511 0-.767 0-.98.04-.872.164-1.554.81-1.728 1.636-.042.201-.042.443-.042.927v7.808c0 .484 0 .726.042.927.174.826.856 1.471 1.729 1.636.212.04.468.04.98.04.51 0 .766 0 .978-.04.873-.165 1.555-.81 1.729-1.636Z"/></svg>
