<svg xmlns="http://www.w3.org/2000/svg" width="28" height="28" fill="currentColor" viewBox="0 0 28 28"><path d="M18.349 23.975c4.196 0 6.651-1.977 6.651-6.514v-1.396c0-4.537-2.718-6.072-6.914-6.072h-1.09V5.172a2.172 2.172 0 0 0-4.252-.626l-2.159 7.18a2.003 2.003 0 0 0-.085.577v10.072c0 .56 0 .84.109 1.054a1 1 0 0 0 .437.437c.214.11.494.11 1.054.11h6.249ZM3.042 13.662C3 13.863 3 14.105 3 14.589v7.808c0 .484 0 .726.042.927.174.826.856 1.471 1.729 1.636.212.04.468.04.979.04.511 0 .767 0 .98-.04.872-.165 1.554-.81 1.728-1.636.042-.202.042-.443.042-.927v-7.808c0-.484 0-.726-.042-.927-.174-.826-.856-1.472-1.729-1.636-.212-.04-.468-.04-.979-.04-.511 0-.767 0-.98.04-.872.164-1.554.81-1.728 1.636Z"/></svg>
