<svg xmlns="http://www.w3.org/2000/svg" width="28" height="28" fill="currentColor" viewBox="0 0 28 28"><path fill-rule="evenodd" d="M16.201 23.188a1.419 1.419 0 0 1-2.701-.607v-3.699c0-.763-.619-1.382-1.382-1.382h-5.61a2.5 2.5 0 0 1-2.322-3.424l2.982-7.5A2.5 2.5 0 0 1 9.491 5H16.5A2.5 2.5 0 0 1 19 7.5v8.951c0 .543-.12 1.079-.352 1.569L16.2 23.188ZM14.92 26a3.419 3.419 0 0 0 3.09-1.956l2.446-5.168A5.667 5.667 0 0 0 21 16.45V7.5A4.5 4.5 0 0 0 16.5 3H9.491A4.5 4.5 0 0 0 5.31 5.837l-2.983 7.5C1.152 16.292 3.33 19.5 6.51 19.5h4.99v3.081A3.419 3.419 0 0 0 14.919 26ZM24 3a1 1 0 0 0-1 1v12a1 1 0 1 0 2 0V4a1 1 0 0 0-1-1Z" clip-rule="evenodd"/></svg>
