<svg xmlns="http://www.w3.org/2000/svg" width="28" height="28" fill="currentColor" viewBox="0 0 28 28"><path fill-rule="evenodd" d="M20.376 3.405c-.57-.57-1.042-1.041-1.459-1.393-.425-.36-.856-.651-1.369-.818a4 4 0 0 0-2.472 0c-.518.169-.953.464-1.383.83-.414.35-.884.82-1.453 1.39L3.414 12.24c-.57.57-1.04 1.04-1.39 1.453-.366.43-.661.865-.83 1.383a4 4 0 0 0 0 2.472c.167.513.458.944.818 1.37.352.416.823.887 1.393 1.458a1 1 0 0 0 1.336.07 2 2 0 0 1 2.812 2.813 1 1 0 0 0 .071 1.336c.57.57 1.042 1.041 1.458 1.393.426.36.857.651 1.37.818a4 4 0 0 0 2.472 0c.518-.169.953-.464 1.383-.83.414-.35.884-.82 1.453-1.39l8.826-8.826c.57-.57 1.04-1.04 1.39-1.453.366-.43.661-.865.83-1.383a4 4 0 0 0 0-2.472c-.167-.513-.458-.944-.818-1.37-.352-.416-.823-.887-1.393-1.458a1 1 0 0 0-1.336-.07 2 2 0 0 1-2.813-2.813 1 1 0 0 0-.07-1.336Zm-3.446-.309c.165.054.367.165.697.443.218.185.465.419.773.721a4 4 0 0 0 5.34 5.34c.302.308.536.555.72.774.28.329.39.53.444.696a2 2 0 0 1 0 1.236c-.055.167-.167.371-.452.707-.292.344-.703.756-1.31 1.362l-1.676 1.677-1.259-1.26a1 1 0 0 0-1.414 1.415l1.259 1.259-5.677 5.677c-.606.606-1.018 1.017-1.363 1.309-.335.285-.54.397-.706.452a2 2 0 0 1-1.236 0c-.165-.054-.367-.165-.697-.443a14.454 14.454 0 0 1-.772-.721 4.001 4.001 0 0 0-5.34-5.34 14.483 14.483 0 0 1-.722-.773c-.278-.33-.389-.532-.443-.697a2 2 0 0 1 0-1.236c.055-.167.167-.371.452-.707.292-.344.703-.756 1.31-1.362l5.676-5.677 1.259 1.26a1 1 0 1 0 1.414-1.415l-1.259-1.259 1.677-1.677c.606-.606 1.018-1.017 1.363-1.309.335-.285.54-.397.706-.452a2 2 0 0 1 1.236 0Zm-.973 7.447a1 1 0 0 0-1.414 1.414l1.5 1.5a1 1 0 0 0 1.414-1.414l-1.5-1.5Z" clip-rule="evenodd"/></svg>
