<svg xmlns="http://www.w3.org/2000/svg" width="28" height="28" viewBox="0 0 28 28" fill="currentColor"><path fill-rule="evenodd" d="M15.078 1.196a4 4 0 0 1 2.471 0c.513.166.944.458 1.37.817.416.352.888.823 1.459 1.394a1 1 0 0 1 .07 1.336 2 2 0 0 0 2.812 2.812 1 1 0 0 1 1.336.07c.57.571 1.042 1.042 1.394 1.459.36.425.65.856.817 1.369a4 4 0 0 1 0 2.472c-.168.518-.464.953-.829 1.383-.351.414-.821.884-1.39 1.453l-1.707 1.706-2.672-2.672a1 1 0 1 0-1.414 1.414l2.672 2.672-5.706 5.706c-.569.57-1.039 1.04-1.453 1.391-.43.365-.865.66-1.383.83a4 4 0 0 1-2.472 0c-.513-.167-.944-.459-1.37-.818-.416-.352-.887-.823-1.457-1.394a1 1 0 0 1-.07-1.336 2.001 2.001 0 0 0-2.813-2.812 1 1 0 0 1-1.336-.07c-.57-.571-1.042-1.043-1.394-1.46-.36-.425-.65-.856-.817-1.369a4 4 0 0 1 0-2.471c.168-.518.464-.953.829-1.383.351-.414.82-.884 1.39-1.453l5.707-5.706 2.673 2.673a1 1 0 0 0 1.414-1.414l-2.673-2.673 1.706-1.707c.569-.57 1.04-1.039 1.453-1.39.43-.365.865-.66 1.383-.83m.88 9.349a1 1 0 1 0-1.413 1.414l1.5 1.5a1 1 0 0 0 1.414-1.414z" clip-rule="evenodd"/></svg>