<svg xmlns="http://www.w3.org/2000/svg" width="28" height="28" fill="currentColor" viewBox="0 0 28 28"><path fill-rule="evenodd" d="M12.8 6c.577 0 .949 0 1.232.024.272.022.373.06.422.085a1 1 0 0 1 .437.437c.025.05.063.15.085.422C15 7.25 15 7.623 15 8.2V20h-3.027a4.5 4.5 0 0 0-8.713-1.012A1.99 1.99 0 0 1 3 18v-5c0-1.417 0-2.419.065-3.203.063-.771.182-1.243.371-1.613a4 4 0 0 1 1.748-1.748c.37-.189.842-.308 1.613-.371C7.581 6 8.583 6 10 6h2.8ZM15 22h-3.256a4.502 4.502 0 0 1-8.625-.47A4 4 0 0 1 1 18v-5.044c0-1.363 0-2.447.071-3.321.074-.896.227-1.66.583-2.359a6 6 0 0 1 2.622-2.622c.7-.356 1.463-.51 2.359-.583C7.509 4 8.593 4 9.956 4h2.882c.528 0 .982 0 1.357.03.395.033.789.104 1.167.297a3 3 0 0 1 1.311 1.311c.193.378.264.772.296 1.167.028.336.03.736.031 1.195h1.758c.407 0 .765 0 1.114.083a3 3 0 0 1 .867.36c.306.186.559.44.846.728l.06.06 4.125 4.125.059.059c.288.287.542.54.729.846.164.268.286.561.36.867.083.348.082.707.082 1.114v3.19c0 .252 0 .498-.017.706a2.022 2.022 0 0 1-.201.77 2 2 0 0 1-.874.874 2.022 2.022 0 0 1-.77.201c-.082.007-.17.01-.263.013a4.002 4.002 0 0 1-7.749.004H15Zm2.126-2a4.002 4.002 0 0 1 7.747-.005c.038 0 .072-.003.102-.005l.014-.001v-.014c.01-.116.011-.279.011-.575v-3.074c0-.537-.006-.643-.028-.731a.998.998 0 0 0-.12-.29c-.047-.076-.117-.156-.496-.535l-4.126-4.126c-.38-.38-.459-.45-.536-.497a.998.998 0 0 0-.289-.12c-.088-.02-.194-.027-.73-.027H17v10h.126ZM7.5 23a2.5 2.5 0 1 1 0-5 2.5 2.5 0 0 1 0 5ZM19 21a2 2 0 1 1 4 0 2 2 0 0 1-4 0Z" clip-rule="evenodd"/></svg>
