<svg fill="none" height="28" viewBox="0 0 28 28" width="28" xmlns="http://www.w3.org/2000/svg"><path clip-rule="evenodd" d="m6.78832 11.6354c.43335.1084.65003.1625.81136.2833.14234.1066.25369.2492.32257.4131.07807.1859.07807.4092.07807.8559v8.4864c0 .0993.0001.1581.00115.2068.00378.0061.00768.0124.01169.0188.00435.0069.00867.0137.01293.0203.90637.4266 2.87761 1.08 6.47511 1.08 2.9463 0 4.6583-.6293 5.4764-1.0474.004-.0062.0079-.0127.012-.0192.0034-.0056.0067-.0112.0099-.0166.0002-.0055.0004-.0115.0005-.0181.0011-.0545.0012-.1194.0012-.2247v-8.4863c0-.4466 0-.6699.0781-.8557.0688-.1639.1802-.3065.3225-.4131.1613-.1208.3779-.175.8111-.2833l.2872-.0719.0043-.0012c.0154-.0045.049-.0146.0988-.0314.0998-.0336.2632-.0936.4738-.1877.353-.1577.8325-.4087 1.3655-.7884l-2.0769-3.63559c-.4649-.81379-1.2135-1.42759-2.1026-1.72397-.3883-.12945-.795-.19544-1.2044-.19544h-.0152c-2.0274 2.66757-6.0593 2.66757-8.08675 0h-.0127c-.40944 0-.8162.06601-1.20463.19548-.88914.29639-1.63782.91015-2.10282 1.72391l-2.07769 3.63591c.53262.3795 1.01207.6304 1.36503.788.21067.0941.37419.154.47405.1877.04983.0168.08349.0269.09885.0314l.00438.0012zm15.21288 1.8646s1.38-.3452 2.9941-1.6093c.6241-.4888.7319-1.3682.3387-2.05663l-2.2318-3.90671c-.709-1.24114-1.8507-2.17727-3.2067-2.62928-.5923-.19743-1.2126-.29808-1.8369-.29808h-.5693c-.3064 0-.5931.15057-.767.40275l-.1822.26414c-1.2265 1.77839-3.8537 1.77839-5.0801 0l-.1825-.26462c-.1738-.25187-.4602-.40227-.7661-.40227h-.56745c-.6244 0-1.24472.10066-1.83708.29812-1.35597.45199-2.49772 1.388-3.20685 2.62899l-2.23255 3.90695c-.39338.68844-.28575 1.56794.33846 2.05694 1.61355 1.2638 2.99439 1.609 2.99439 1.609v8.1741c0 .3825 0 .5738.11243.8948.06939.1981.32579.6057.47434.7541.24067.2403.33742.2868.53093.3797 1.19956.5763 3.48038 1.2973 7.38318 1.2973 3.2532 0 5.2822-.7 6.3968-1.2718.2077-.1065.3115-.1597.5421-.3986.1458-.1511.386-.5441.4538-.7428.1073-.3143.1073-.5138.1073-.9128z" fill="currentColor" fill-rule="evenodd"/></svg>
