<svg xmlns="http://www.w3.org/2000/svg" width="28" height="28" fill="currentColor" viewBox="0 0 28 28"><path fill-rule="evenodd" d="M18.704 7.002c2.022.011 3.162.082 4.066.543a5 5 0 0 1 2.185 2.185c.545 1.07.545 2.47.545 5.27v1.5c0 2.8 0 4.2-.545 5.27a5 5 0 0 1-2.185 2.185c-1.07.545-2.47.545-5.27.545h-7c-2.8 0-4.2 0-5.27-.545a5 5 0 0 1-2.185-2.185C2.5 20.7 2.5 19.3 2.5 16.5V15c0-2.8 0-4.2.545-5.27A5 5 0 0 1 5.23 7.545c.904-.46 2.044-.532 4.066-.543l-3.08-3.88a1 1 0 0 1 1.567-1.244L11.847 7h4.306l4.064-5.122a1 1 0 1 1 1.566 1.244l-3.079 3.88ZM23.5 15v1.5c0 1.433-.002 2.388-.061 3.121-.058.71-.161 1.035-.266 1.24a3 3 0 0 1-1.311 1.312c-.206.105-.53.208-1.24.266-.734.06-1.689.061-3.122.061h-7c-1.433 0-2.388-.002-3.121-.061-.71-.058-1.035-.161-1.241-.266a3 3 0 0 1-1.311-1.311c-.105-.206-.208-.53-.266-1.24-.06-.734-.061-1.689-.061-3.122V15c0-1.433.002-2.388.061-3.121.059-.71.161-1.035.266-1.241a3 3 0 0 1 1.311-1.311c.206-.105.53-.208 1.24-.266C8.113 9.001 9.068 9 10.5 9h7c1.433 0 2.388.002 3.121.061.71.058 1.035.161 1.241.266a3 3 0 0 1 1.311 1.311c.105.206.208.53.266 1.24.06.734.061 1.689.061 3.122Zm-4-.5a1.5 1.5 0 1 0 0-3 1.5 1.5 0 0 0 0 3Z" clip-rule="evenodd"/></svg>
