<svg xmlns="http://www.w3.org/2000/svg" width="28" height="28" fill="none" viewBox="0 0 28 28"><path fill="currentColor" fill-rule="evenodd" d="M7.4657 3h13.0686c.6698 0 1.2226 0 1.6752.0309.4693.032.9034.1005 1.3212.2736a4.0001 4.0001 0 0 1 2.1648 2.1648c.1731.4178.2416.8519.2736 1.3212.0394.5773.0309 1.1577.0309 1.736 0 .21 0 .4146-.0118.5887-.013.1904-.0435.4161-.1404.6502-.203.49-.5924.8794-1.0824 1.0824-.2432.1007-.5042.1361-.7654.1465v8.247c0 .805 0 1.4693-.0442 2.0105-.0459.5621-.1445 1.0788-.3918 1.5642a4.0003 4.0003 0 0 1-1.748 1.748c-.4854.2473-1.0021.3459-1.5642.3918C19.7106 25 19.0463 25 18.2413 25H9.7587c-.805 0-1.4693 0-2.0105-.0442-.5621-.0459-1.0788-.1445-1.5642-.3918a4.0002 4.0002 0 0 1-1.748-1.748c-.2473-.4854-.3459-1.0021-.3918-1.5642C4 20.7106 4 20.0463 4 19.2413v-8.247c-.2612-.0104-.5222-.0458-.7654-.1465a2.0001 2.0001 0 0 1-1.0824-1.0824c-.097-.234-.1274-.4598-.1404-.6502C2 8.9412 2 8.7365 2 8.5265c0-.5772-.0085-1.1587.0309-1.736.032-.4693.1005-.9034.2736-1.3212a4 4 0 0 1 2.1648-2.1648c.4178-.173.8519-.2416 1.3212-.2736.4526-.031 1.0054-.031 1.6752-.0309ZM4.483 9c-.247 0-.387-.0012-.4748-.0081C4.0011 8.902 4 8.758 4 8.5c0-.7126.0005-1.197.0262-1.5734.025-.3674.0707-.5585.126-.692a2 2 0 0 1 1.0824-1.0824c.1335-.0553.3245-.1009.692-.126C6.303 5.0005 6.7874 5 7.5 5h13c.7126 0 1.197.0005 1.5734.0262.3674.0251.5585.0707.692.126.49.203.8794.5924 1.0824 1.0824.0553.1335.1009.3245.126.692C23.9995 7.303 24 7.7874 24 8.5c0 .2581-.0011.402-.0081.4919-.0878.0069-.2278.008-.4748.0081H4.4829ZM6 11v8.2c0 .8566.0008 1.4389.0376 1.889.0358.4384.1007.6626.1804.819.1917.3763.4977.6823.874.874.1564.0797.3806.1446.819.1804C8.3611 22.9992 8.9434 23 9.8 23h8.4c.8566 0 1.4389-.0008 1.889-.0376.4384-.0358.6626-.1007.819-.1804a1.9996 1.9996 0 0 0 .874-.874c.0797-.1564.1446-.3806.1804-.819.0368-.4501.0376-1.0324.0376-1.889V11H6Zm7.2929 2.2929c.3905-.3905 1.0237-.3905 1.4142 0l3 3c.3905.3905.3905 1.0237 0 1.4142-.3905.3905-1.0237.3905-1.4142 0L15 16.4142V20c0 .5523-.4477 1-1 1s-1-.4477-1-1v-3.5858l-1.2929 1.2929c-.3905.3905-1.0237.3905-1.4142 0-.3905-.3905-.3905-1.0237 0-1.4142l3-3Z" clip-rule="evenodd"/></svg>
