<?xml version="1.0" encoding="UTF-8"?>
<svg width="28px" height="28px" viewBox="0 0 28 28" version="1.1" xmlns="http://www.w3.org/2000/svg" xmlns:xlink="http://www.w3.org/1999/xlink">
    <!-- Generator: Sketch 63.1 (92452) - https://sketch.com -->
    <title>unfavorite_outline_28</title>
    <desc>Created with Sketch.</desc>
    <g id="Page-1" stroke="none" stroke-width="1" fill="none" fill-rule="evenodd">
        <g id="unfavorite_outline_28">
            <rect x="0" y="0" width="28" height="28"></rect>
            <path d="M8.57910276,8.99331632 L5.29289322,5.70710678 C4.90236893,5.31658249 4.90236893,4.68341751 5.29289322,4.29289322 C5.68341751,3.90236893 6.31658249,3.90236893 6.70710678,4.29289322 L24.7071068,22.2928932 C25.0976311,22.6834175 25.0976311,23.3165825 24.7071068,23.7071068 C24.3165825,24.0976311 23.6834175,24.0976311 23.2928932,23.7071068 L21.6740136,22.0882271 C21.8015841,23.129158 21.0978418,24.1026905 20.0527207,24.2962156 C19.6023834,24.3796046 19.1370683,24.3059059 18.7345407,24.0874364 L14,21.5177922 L9.2654593,24.0874364 C8.2946586,24.6143328 7.08053524,24.2544772 6.55363886,23.2836765 C6.33516935,22.8811489 6.26147069,22.4158339 6.34485967,21.9654966 L7.32568296,16.6686171 L3.41875259,12.959865 C2.61765045,12.1993986 2.58470866,10.9334972 3.34517505,10.132395 C3.66049079,9.80023031 4.08025753,9.58634847 4.53432238,9.52649421 L8.57910276,8.99331632 Z M10.3614564,10.77567 L4.79569456,11.5093412 L9.09626079,15.5917581 C9.34176742,15.8248114 9.45270607,16.1662455 9.39107236,16.4990948 L8.31142901,22.3296463 L13.5229849,19.5011049 C13.8204975,19.3396317 14.1795025,19.3396317 14.4770151,19.5011049 L19.688571,22.3296463 L19.1825169,19.5967305 L10.3614564,10.77567 Z M18.1249548,8.82248681 L23.4656776,9.52649421 C24.5607738,9.67084842 25.3315024,10.6756215 25.1871482,11.7707177 C25.127294,12.2247825 24.9134121,12.6445493 24.5812474,12.959865 L21.9435923,15.4637255 C21.5430412,15.8439587 20.9100905,15.8274878 20.5298573,15.4269368 C20.1496241,15.0263857 20.166095,14.393435 20.5666461,14.0132018 L23.2043012,11.5093412 L17.3254891,10.7344036 C16.9898847,10.6901646 16.6994436,10.4791468 16.5536624,10.1736387 L14,4.82202499 L13.229706,6.43630094 C12.9918599,6.93474616 12.3949777,7.14600344 11.8965325,6.90815727 C11.3980873,6.6703111 11.18683,6.07342899 11.4246762,5.57498376 L12.1949702,3.96070781 C12.6706625,2.96381736 13.8644267,2.54130281 14.8613172,3.01699515 C15.2746625,3.21423369 15.6077913,3.54736246 15.8050298,3.96070781 L18.1249548,8.82248681 Z" id="↳-Icon-Color" fill="currentColor" fill-rule="nonzero"></path>
        </g>
    </g>
</svg>
