<?xml version="1.0" encoding="UTF-8"?>
<svg width="28px" height="28px" viewBox="0 0 28 28" version="1.1" xmlns="http://www.w3.org/2000/svg" xmlns:xlink="http://www.w3.org/1999/xlink">
    <!-- Generator: Sketch 63.1 (92452) - https://sketch.com -->
    <title>unpin_outline_28</title>
    <desc>Created with Sketch.</desc>
    <g id="Page-1" stroke="none" stroke-width="1" fill="none" fill-rule="evenodd">
        <g id="unpin_outline_28">
            <rect x="0" y="0" width="28" height="28"></rect>
            <path d="M12.3700821,8.95429568 L13.7842957,10.3685092 L17.6725965,14.258383 L19.0875965,15.6718101 L23.7071068,20.2928932 C24.0976311,20.6834175 24.0976311,21.3165825 23.7071068,21.7071068 C23.3165825,22.0976311 22.6834175,22.0976311 22.2928932,21.7071068 L17.9229137,17.3371273 L17.5252082,22.5072989 C17.4669656,23.2644536 16.8059554,23.8310338 16.0488006,23.7727911 C15.7215394,23.7476171 15.4140787,23.6062052 15.1819865,23.374113 L10.6319896,18.8241161 L4.9751354,24.4809704 C4.03232635,25.4237794 2.61811279,24.0095659 3.56092183,23.0667568 L9.21777608,17.4099026 L4.66777923,12.8599057 C4.13080833,12.3229348 4.13080833,11.452333 4.66777923,10.9153621 C4.89987147,10.6832698 5.20733217,10.5418579 5.53459337,10.516684 L10.7047649,10.1189785 L6.29289322,5.70710678 C5.90236893,5.31658249 5.90236893,4.68341751 6.29289322,4.29289322 C6.68341751,3.90236893 7.31658249,3.90236893 7.70710678,4.29289322 L12.3692957,8.95508212 L12.3700821,8.95429568 Z M14.4914025,6.83297534 L14.9070417,6.41733614 L14.9070417,6.41733614 C14.9768419,6.34753586 15.0244195,6.25863638 15.0437786,6.16184081 L15.4850399,3.95553429 C15.641677,3.17234903 16.6079644,2.87978073 17.1727274,3.44454365 L24.5973486,10.8691649 C25.1621115,11.4339278 24.8695432,12.4002153 24.0863579,12.5568523 L21.8800514,12.9981136 C21.7832558,13.0174727 21.6943564,13.0650503 21.6245561,13.1348506 L21.2089169,13.5504898 C20.8183926,13.9410141 20.1852276,13.9410141 19.7947033,13.5504898 C19.404179,13.1599655 19.404179,12.5268005 19.7947033,12.1362762 L20.2103425,11.720637 L20.2103425,11.720637 C20.5593439,11.3716356 21.0038413,11.1337478 21.4878191,11.0369523 L21.8618939,10.9621373 L17.0797549,6.17999832 L17.00494,6.55407308 C16.9081444,7.0380509 16.6702566,7.48254833 16.3212552,7.8315497 L15.905616,8.2471889 C15.5150917,8.63771319 14.8819268,8.63771319 14.4914025,8.2471889 C14.1008782,7.85666461 14.1008782,7.22349963 14.4914025,6.83297534 Z M12.3179865,11.7322001 C11.9857215,11.9331142 11.6087466,12.0553499 11.2160946,12.0855539 L7.04287164,12.406571 L15.6353212,20.9990206 L15.9563384,16.8257976 C15.9865424,16.4331456 16.108778,16.0561707 16.3096922,15.7239057 L12.3179865,11.7322001 L12.3179865,11.7322001 Z" id="↳-Icon-Color" fill="currentColor" fill-rule="nonzero"></path>
        </g>
    </g>
</svg>
