<svg xmlns="http://www.w3.org/2000/svg" width="28" height="28" fill="currentColor" viewBox="0 0 28 28"><path d="M11.783 18.386a1 1 0 0 1-1.562-1.25l1.562 1.25ZM13 9.516a1 1 0 0 1 2 0v3.109l3.18-1.06.1-.027a1 1 0 0 1 .533 1.925l-3.137 1.045 2.103 2.629a1 1 0 1 1-1.562 1.249l-2.218-2.772-2.216 2.772-1.562-1.25 2.101-2.628-3.135-1.045a1 1 0 0 1 .633-1.898l3.18 1.06V9.516Z"/><path d="M14 2c6.627 0 12 5.372 12 12 0 6.627-5.373 12-12 12S2 20.627 2 14C2 7.372 7.373 2 14 2Zm0 2C8.477 4 4 8.477 4 14s4.477 10 10 10 10-4.477 10-10S19.523 4 14 4Z"/></svg>