<?xml version="1.0" encoding="UTF-8"?>
<svg width="28px" height="28px" viewBox="0 0 28 28" version="1.1" xmlns="http://www.w3.org/2000/svg" xmlns:xlink="http://www.w3.org/1999/xlink">
    <!-- Generator: Sketch 63.1 (92452) - https://sketch.com -->
    <title>users_3_outline_28</title>
    <desc>Created with Sketch.</desc>
    <g id="Page-1" stroke="none" stroke-width="1" fill="none" fill-rule="evenodd">
        <g id="users_3_outline_28">
            <rect x="0" y="0" width="28" height="28"></rect>
            <path d="M14,14.5 C17.8620342,14.5 20.5,16.2586439 20.5,19 C20.5,20.9300555 19.2160666,22 17.5,22 L10.5,22 C8.78393342,22 7.5,20.9300555 7.5,19 C7.5,16.2586439 10.1379658,14.5 14,14.5 Z M22,14.5 C24.7457911,14.5 26.5,16.1567528 26.5,18.25 C26.5,19.9424449 25.2074327,21 23.75,21 L23.75,21 L23,21 C22.4477153,21 22,20.5522847 22,20 C22,19.4477153 22.4477153,19 23,19 L23,19 L23.75,19 C24.1814562,19 24.5,18.7393733 24.5,18.25 C24.5,17.2876916 23.6659736,16.5 22,16.5 C21.4477153,16.5 21,16.0522847 21,15.5 C21,14.9477153 21.4477153,14.5 22,14.5 Z M6,14.5 C6.55228475,14.5 7,14.9477153 7,15.5 C7,16.0522847 6.55228475,16.5 6,16.5 C4.33402642,16.5 3.5,17.2876916 3.5,18.25 C3.5,18.7393733 3.81854376,19 4.25,19 L5,19 C5.55228475,19 6,19.4477153 6,20 C6,20.5522847 5.55228475,21 5,21 L4.25,21 C2.79256735,21 1.5,19.9424449 1.5,18.25 C1.5,16.1567528 3.25420888,14.5 6,14.5 Z M14,16.5 C11.1120342,16.5 9.5,17.5746895 9.5,19 C9.5,19.7366112 9.81606658,20 10.5,20 L17.5,20 C18.1839334,20 18.5,19.7366112 18.5,19 C18.5,17.5746895 16.8879658,16.5 14,16.5 Z M20,6 C21.9329966,6 23.5,7.56700338 23.5,9.5 C23.5,11.4329966 21.9329966,13 20,13 C19.4477153,13 19,12.5522847 19,12 C19,11.4477153 19.4477153,11 20,11 L20,11 L20.14446,10.9931334 C20.9051119,10.9204487 21.5,10.2796961 21.5,9.5 C21.5,8.67157288 20.8284271,8 20,8 L20,8 L19.8833789,7.99327227 C19.3860402,7.93550716 19,7.51283584 19,7 C19,6.44771525 19.4477153,6 20,6 Z M8,6 C8.55228475,6 9,6.44771525 9,7 C9,7.51283584 8.61395981,7.93550716 8.11662113,7.99327227 L8,8 C7.17157288,8 6.5,8.67157288 6.5,9.5 C6.5,10.2796961 7.09488808,10.9204487 7.85553999,10.9931334 L8,11 C8.55228475,11 9,11.4477153 9,12 C9,12.5522847 8.55228475,13 8,13 C6.06700338,13 4.5,11.4329966 4.5,9.5 C4.5,7.56700338 6.06700338,6 8,6 Z M14,5 C16.209139,5 18,6.790861 18,9 C18,11.209139 16.209139,13 14,13 C11.790861,13 10,11.209139 10,9 C10,6.790861 11.790861,5 14,5 Z M14,7 C12.8954305,7 12,7.8954305 12,9 C12,10.1045695 12.8954305,11 14,11 C15.1045695,11 16,10.1045695 16,9 C16,7.8954305 15.1045695,7 14,7 Z" id="↳-Icon-Color" fill="currentColor" fill-rule="nonzero"></path>
        </g>
    </g>
</svg>
