<svg fill="none" height="28" viewBox="0 0 28 28" width="28" xmlns="http://www.w3.org/2000/svg"><g fill="currentColor"><path d="m16 11c-.5523 0-1 .4477-1 1s.4477 1 1 1h4c.5523 0 1-.4477 1-1s-.4477-1-1-1z"/><path d="m17 16c0-.5523.4477-1 1-1h2c.5523 0 1 .4477 1 1s-.4477 1-1 1h-2c-.5523 0-1-.4477-1-1z"/><path d="m11 10c1.105 0 2 .895 2 2s-.895 2-2 2-2-.895-2-2 .895-2 2-2z"/><path d="m7.5025 18c-.27752 0-.5025-.225-.5025-.5025 0-1.8912 2.5-2.4975 4-2.4975s4 .5 4 2.5v-.0025c0 .2775-.225.5025-.5025.5025z"/><path clip-rule="evenodd" d="m10.9562 4c-1.363-.00001-2.44703-.00001-3.32162.07144-.8956.07318-1.65928.22624-2.35852.58252-1.12898.57524-2.04686 1.49312-2.6221 2.6221-.35628.69924-.50934 1.46292-.58252 2.35852-.07145.87462-.07145 1.95862-.07144 3.32162v2.0876c-.00001 1.363-.00001 2.447.07144 3.3216.07318.8956.22624 1.6593.58252 2.3585.57524 1.129 1.49312 2.0469 2.6221 2.6221.69924.3563 1.46292.5094 2.35852.5826.87456.0714 1.95855.0714 3.32152.0714h6.0877c1.363 0 2.4471 0 3.3216-.0714.8956-.0732 1.6593-.2263 2.3585-.5826 1.129-.5752 2.0469-1.4931 2.6221-2.6221.3563-.6992.5094-1.4629.5826-2.3585.0714-.8745.0714-1.9585.0714-3.3215v-2.0877c0-1.363 0-2.4471-.0714-3.32162-.0732-.8956-.2263-1.65928-.5826-2.35852-.5752-1.12898-1.4931-2.04686-2.6221-2.6221-.6992-.35628-1.4629-.50934-2.3585-.58252-.8746-.07145-1.9586-.07145-3.3216-.07144zm-4.77216 2.43597c.37031-.18868.84148-.3081 1.6134-.37117.7836-.06402 1.78593-.0648 3.20256-.0648h6c1.4166 0 2.419.00078 3.2026.0648.7719.06307 1.2431.18249 1.6134.37117.7526.3835 1.3645.99542 1.748 1.74807.1887.37031.3081.84148.3712 1.6134.064.78356.0648 1.78596.0648 3.20256v2c0 1.4166-.0008 2.419-.0648 3.2026-.0631.7719-.1825 1.2431-.3712 1.6134-.3835.7526-.9954 1.3645-1.748 1.748-.3703.1887-.8415.3081-1.6134.3712-.7836.064-1.786.0648-3.2026.0648h-6c-1.41663 0-2.41896-.0008-3.20256-.0648-.77192-.0631-1.24309-.1825-1.6134-.3712-.75265-.3835-1.36457-.9954-1.74807-1.748-.18868-.3703-.3081-.8415-.37117-1.6134-.06402-.7836-.0648-1.786-.0648-3.2026v-2c0-1.4166.00078-2.419.0648-3.20256.06307-.77192.18249-1.24309.37117-1.6134.3835-.75265.99542-1.36457 1.74807-1.74807z" fill-rule="evenodd"/></g></svg>
