<svg xmlns="http://www.w3.org/2000/svg" width="28" height="28" fill="currentColor" viewBox="0 0 28 28"><path d="M15.36 2.317a3.085 3.085 0 0 0-2.72 0c-.62.305-1.033.883-1.374 1.48-.347.609-.724 1.434-1.189 2.45l-.22.484a1 1 0 0 0 1.818.831l.2-.437c.49-1.074.831-1.816 1.128-2.336.308-.54.47-.653.518-.677.302-.148.656-.148.957 0 .048.024.21.137.519.677.297.52.637 1.262 1.128 2.336l1.038 2.272.007.016c.03.066.116.264.262.427.12.135.267.245.431.322.198.093.412.12.485.13l.016.002 1.822.256c1.23.173 2.084.294 2.699.437.642.15.802.28.835.317.23.255.325.604.257.94-.01.048-.081.241-.558.697-.457.436-1.13.974-2.102 1.749l-1.001.798-.016.013a1.66 1.66 0 0 0-.404.427 1.35 1.35 0 0 0-.193.594c-.02.256.052.5.076.583l.006.02.12.433a1 1 0 1 0 1.927-.534l-.042-.153.814-.65c.922-.734 1.667-1.329 2.196-1.833.515-.493.997-1.053 1.137-1.749a3.085 3.085 0 0 0-.73-2.672c-.475-.528-1.174-.766-1.869-.928-.712-.165-1.655-.298-2.822-.462l-1.634-.23-.96-2.1c-.464-1.016-.841-1.841-1.188-2.45-.34-.597-.753-1.175-1.373-1.48Z"/><path fill-rule="evenodd" d="m2.293 5.707 3.17 3.17c-.295.05-.562.1-.802.155-.654.149-1.314.364-1.779.84a3.085 3.085 0 0 0-.79 2.895c.158.645.617 1.166 1.104 1.627.5.473 1.2 1.03 2.064 1.72l.947.754-.75 2.65c-.194.685-.358 1.263-.448 1.74-.093.493-.134.997.01 1.502a3.09 3.09 0 0 0 1.346 1.78c.447.276.943.374 1.443.419.483.043 1.083.043 1.796.043h11.984l1.705 1.705a1 1 0 0 0 1.414-1.414l-21-21a1 1 0 0 0-1.414 1.414Zm17.295 17.295L17.586 21H9.609A.602.602 0 0 1 9 20.404v-.635c0-1.991 2.848-2.668 4.597-2.758L7.22 10.634c-.933.132-1.61.233-2.115.348-.606.138-.762.256-.793.288a1.085 1.085 0 0 0-.279 1.019c.011.043.085.224.537.651.432.408 1.064.913 1.975 1.64l1.137.907.016.012c.069.053.272.21.406.43.11.181.176.386.192.598.02.257-.055.503-.08.585l-.005.02-.818 2.887c-.21.74-.347 1.232-.419 1.61-.07.373-.05.516-.032.582.075.261.244.485.475.628.059.036.19.094.568.128.384.034.894.035 1.664.035h9.939Z M16.5 13.5c0 .313-.369.417-.59.195l-2.106-2.105c-.221-.222-.117-.59.196-.59a2.5 2.5 0 0 1 2.5 2.5Z"/></svg>
