<svg xmlns="http://www.w3.org/2000/svg" width="28" height="28" fill="currentColor" viewBox="0 0 28 28"><path fill-rule="evenodd" d="M16 12a1 1 0 0 1 1-1h4a1 1 0 1 1 0 2h-4a1 1 0 0 1-1-1Zm0 4a1 1 0 0 1 1-1h2a1 1 0 1 1 0 2h-2a1 1 0 0 1-1-1Z" clip-rule="evenodd"/><path d="M12 12a2 2 0 1 1-4 0 2 2 0 0 1 4 0Zm-6 5.4A2.4 2.4 0 0 1 8.4 15h3.2a2.4 2.4 0 0 1 2.4 2.4.6.6 0 0 1-.6.6H6.6a.6.6 0 0 1-.6-.6Z"/><path fill-rule="evenodd" d="M5.07 4.801C6.164 4.216 7.243 4 9.691 4h8.616c2.448 0 3.527.216 4.622.801A5.465 5.465 0 0 1 25.2 7.07c.585 1.096.801 2.175.801 4.623v4.616c0 2.448-.216 3.527-.801 4.622a5.465 5.465 0 0 1-2.27 2.269c-1.095.585-2.174.801-4.622.801H9.692c-2.448 0-3.527-.216-4.623-.801a5.465 5.465 0 0 1-2.268-2.269C2.216 19.835 2 18.756 2 16.308v-4.616c0-2.448.216-3.527.801-4.623A5.466 5.466 0 0 1 5.07 4.801ZM9.691 6c-2.335 0-3.019.212-3.68.565a3.466 3.466 0 0 0-1.447 1.448C4.212 8.673 4 9.357 4 11.692v4.616c0 2.335.212 3.019.565 3.68a3.466 3.466 0 0 0 1.448 1.447c.66.353 1.344.565 3.679.565h8.616c2.335 0 3.019-.212 3.68-.565a3.467 3.467 0 0 0 1.447-1.448c.353-.66.565-1.344.565-3.679v-4.616c0-2.335-.212-3.019-.565-3.68a3.466 3.466 0 0 0-1.448-1.447C21.327 6.212 20.643 6 18.308 6H9.692Z" clip-rule="evenodd"/></svg>
