<svg xmlns="http://www.w3.org/2000/svg" width="28" height="28" fill="currentColor" viewBox="0 0 28 28"><path d="M9 19.77v.634c0 .33.273.596.61.596h8.78c.337 0 .61-.267.61-.596v-.635C19 17.615 15.669 17 14 17s-5 .615-5 2.77ZM14 16a2.5 2.5 0 1 0 0-5 2.5 2.5 0 0 0 0 5Z M12.64 2.318a3.085 3.085 0 0 1 2.721 0c.62.304 1.032.883 1.373 1.48.347.608.724 1.433 1.189 2.45l.959 2.099 1.634.23c1.167.164 2.11.297 2.823.463.694.161 1.393.399 1.868.927.652.725.923 1.716.73 2.672-.14.697-.622 1.256-1.137 1.749-.53.505-1.274 1.099-2.195 1.833l-.815.65.74 2.67c.189.684.348 1.26.435 1.735.09.491.128.993-.017 1.496a3.09 3.09 0 0 1-1.347 1.77c-.446.275-.94.373-1.438.417-.48.043-1.078.043-1.787.043H9.604c-.713 0-1.313 0-1.796-.043-.5-.045-.996-.143-1.443-.42A3.09 3.09 0 0 1 5.02 22.76c-.144-.505-.103-1.009-.01-1.502.09-.477.254-1.054.448-1.74l.75-2.65-.811-.647c-.922-.734-1.667-1.328-2.196-1.833-.515-.493-.997-1.053-1.137-1.749a3.085 3.085 0 0 1 .73-2.672c.475-.528 1.174-.766 1.869-.927.712-.166 1.655-.3 2.822-.463l1.634-.23.96-2.1c.464-1.016.841-1.84 1.188-2.449.34-.597.753-1.176 1.373-1.48Zm1.839 1.794a1.085 1.085 0 0 0-.958 0c-.047.024-.21.137-.518.677-.297.52-.637 1.263-1.128 2.336l-1.038 2.272-.007.016c-.03.067-.116.264-.262.427a1.35 1.35 0 0 1-.43.322c-.2.093-.413.12-.486.13l-.016.002-1.822.256c-1.23.173-2.084.294-2.699.437-.642.15-.802.28-.835.317-.23.255-.324.604-.257.94.01.048.081.241.559.697.456.436 1.13.974 2.1 1.749l1 .797.016.012c.069.053.272.21.406.43.11.181.176.386.192.598.02.257-.055.503-.08.585l-.005.02-.818 2.887c-.21.74-.347 1.232-.419 1.61-.07.373-.05.516-.031.582.074.261.243.485.474.628.059.036.19.094.568.128.384.034.894.035 1.664.035h8.682c.766 0 1.273-.001 1.655-.035.375-.033.507-.091.566-.127.23-.142.4-.365.475-.625.019-.066.04-.208-.029-.578-.069-.377-.204-.867-.408-1.605l-.805-2.908-.006-.019a1.66 1.66 0 0 1-.076-.583 1.35 1.35 0 0 1 .193-.594 1.66 1.66 0 0 1 .404-.428l.016-.012 1.001-.798c.971-.775 1.645-1.313 2.102-1.749.477-.456.548-.649.558-.697a1.085 1.085 0 0 0-.257-.94c-.033-.037-.192-.167-.835-.317-.615-.143-1.469-.264-2.699-.437l-1.822-.256-.016-.003a1.645 1.645 0 0 1-.485-.13 1.35 1.35 0 0 1-.43-.32 1.622 1.622 0 0 1-.263-.428l-.007-.016-1.038-2.272c-.49-1.073-.831-1.815-1.128-2.336-.308-.54-.47-.653-.518-.676Z" clip-rule="evenodd"/></svg>
