<svg xmlns="http://www.w3.org/2000/svg" width="28" height="28" fill="currentColor" viewBox="0 0 28 28"><path fill-rule="evenodd" d="M14 3a5.5 5.5 0 1 0 0 11 5.5 5.5 0 0 0 0-11Zm-3.5 5.5a3.5 3.5 0 1 1 7 0 3.5 3.5 0 0 1-7 0Zm-6 13.475c0-4.109 4.415-6.475 9.5-6.475s9.5 2.366 9.5 6.475c0 2.135-.802 3.025-2.522 3.025H7.022c-1.72 0-2.522-.89-2.522-3.025Zm2 0c0-1.224.618-2.266 1.916-3.09C9.758 18.032 11.735 17.5 14 17.5c2.265 0 4.242.532 5.584 1.385 1.297.824 1.916 1.866 1.916 3.09 0 .417-.04.69-.085.859a.96.96 0 0 1-.042.127c-.06.016-.182.039-.395.039H7.022c-.213 0-.335-.023-.395-.039a.966.966 0 0 1-.042-.127c-.045-.168-.085-.442-.085-.86Z" clip-rule="evenodd"/></svg>
