<svg width="28" height="28" viewBox="0 0 28 28" fill="none" xmlns="http://www.w3.org/2000/svg">
<path fill-rule="evenodd" clip-rule="evenodd" d="M23 8.5C23 11.5385 20.5385 14 17.5 14C14.4615 14 12 11.5385 12 8.5C12 5.46147 14.4615 3 17.5 3C20.5385 3 23 5.46147 23 8.5ZM21 8.5C21 6.56603 19.434 5 17.5 5C15.566 5 14 6.56603 14 8.5C14 10.434 15.566 12 17.5 12C19.434 12 21 10.434 21 8.5ZM10.556 21.4639C10.4916 21.4087 10.4934 21.2763 10.4974 20.9644V20.9643C10.4986 20.8733 10.5 20.767 10.5 20.6429C10.5 18.3547 13.804 17 17.75 17C21.696 17 25 18.3547 25 20.6429C25 20.767 25.0014 20.8733 25.0026 20.9643V20.9644C25.0066 21.2763 25.0084 21.4087 24.944 21.4639C24.8964 21.5046 24.8129 21.5034 24.6677 21.5012H24.6676C24.6306 21.5006 24.5896 21.5 24.5441 21.5H10.9559C10.9104 21.5 10.8694 21.5006 10.8324 21.5012H10.8323C10.6871 21.5034 10.6036 21.5046 10.556 21.4639ZM8.5 20.6429C8.5 16.7626 12.7989 15 17.75 15C22.7011 15 27 16.7626 27 20.6429C27 22.6593 26.2189 23.5 24.5441 23.5H10.9559C9.28111 23.5 8.5 22.6593 8.5 20.6429ZM9.70711 9.79289C9.31658 9.40237 8.68342 9.40237 8.29289 9.79289L3.69967 14.3857L1.70711 12.3929L1.6129 12.3097C1.22061 12.0047 0.653377 12.0324 0.292893 12.3929C-0.0976311 12.7834 -0.0976311 13.4166 0.292893 13.8071L2.99289 16.5071L3.0871 16.5903C3.47939 16.8953 4.04662 16.8676 4.40711 16.5071L9.70711 11.2071L9.7903 11.1129C10.0953 10.7206 10.0676 10.1534 9.70711 9.79289Z" fill="currentColor"/>
</svg>
