<svg xmlns="http://www.w3.org/2000/svg" width="28" height="28" fill="currentColor" viewBox="0 0 28 28"><path fill-rule="evenodd" d="M10.286 17.91C9.39 18.461 9 19.128 9 19.786c0 .481.153.744.325.898.189.168.527.316 1.075.316h7.2c.548 0 .886-.148 1.075-.316.172-.154.325-.417.325-.898 0-.658-.39-1.325-1.286-1.876-.899-.552-2.208-.91-3.714-.91-1.506 0-2.815.358-3.714.91ZM9.24 16.206C10.516 15.422 12.207 15 14 15c1.793 0 3.484.422 4.76 1.206 1.279.785 2.24 2.011 2.24 3.58 0 .952-.327 1.796-.995 2.391-.651.58-1.513.823-2.405.823h-7.2c-.892 0-1.754-.242-2.405-.823C7.327 21.582 7 20.738 7 19.786c0-1.569.961-2.795 2.24-3.58Zm-5.435.876c-.52.346-.805.806-.805 1.418 0 .523.17.88.395 1.105.224.225.582.395 1.105.395a1 1 0 1 1 0 2c-.977 0-1.87-.33-2.52-.98-.65-.65-.98-1.543-.98-2.52 0-1.388.715-2.428 1.695-3.082.951-.634 2.157-.918 3.305-.918a1 1 0 1 1 0 2c-.852 0-1.646.216-2.195.582Zm20.39 0c.52.346.805.806.805 1.418 0 .523-.17.88-.395 1.105-.224.225-.582.395-1.105.395a1 1 0 1 0 0 2c.977 0 1.87-.33 2.52-.98.65-.65.98-1.543.98-2.52 0-1.388-.715-2.428-1.695-3.082-.951-.634-2.157-.918-3.305-.918a1 1 0 1 0 0 2c.852 0 1.646.216 2.195.582ZM11.5 8.5a2.5 2.5 0 1 0 5 0 2.5 2.5 0 0 0-5 0ZM14 4a4.5 4.5 0 1 0 0 9 4.5 4.5 0 0 0 0-9ZM7 6.5a2 2 0 1 0 0 4 1 1 0 1 1 0 2 4 4 0 0 1 0-8 1 1 0 0 1 0 2Zm14 0a2 2 0 1 1 0 4 1 1 0 1 0 0 2 4 4 0 0 0 0-8 1 1 0 1 0 0 2Z" clip-rule="evenodd"/></svg>
