<svg xmlns="http://www.w3.org/2000/svg" width="28" height="28" fill="currentColor" viewBox="0 0 28 28"><path fill-rule="evenodd" d="M10 6.5C10 4.544 11.511 3 13.421 3 15.377 3 17 4.59 17 6.5S15.377 10 13.421 10C11.511 10 10 8.456 10 6.5ZM13.421 1C10.361 1 8 3.486 8 6.5s2.36 5.5 5.421 5.5C16.436 12 19 9.56 19 6.5S16.436 1 13.421 1Zm9.953 11.44a1.502 1.502 0 0 1 2.124 0l1.062 1.062a1.502 1.502 0 0 1 0 2.124l-1.062 1.062-3.186-3.186 1.062-1.062Zm-2.533 2.532 3.186 3.186-6.506 6.507a6.007 6.007 0 0 1-2.349 1.451l-2.578.86a.45.45 0 0 1-.57-.57l.86-2.579a6.008 6.008 0 0 1 1.45-2.348l6.507-6.507ZM7.74 17.285c-1.586.82-2.503 1.961-2.704 3.372-.077.533-.039 1.174.192 1.634.107.212.249.375.439.49.19.116.487.219.957.219H10a1 1 0 1 1 0 2H6.624c-.772 0-1.441-.172-1.996-.51a3.162 3.162 0 0 1-1.187-1.301c-.483-.962-.493-2.064-.385-2.815.317-2.218 1.773-3.835 3.765-4.865C8.795 14.487 11.357 14 14.127 14H16a1 1 0 1 1 0 2h-1.873c-2.566 0-4.785.456-6.387 1.285Z" clip-rule="evenodd"/></svg>
