<svg fill="none" height="28" viewBox="0 0 28 28" width="28" xmlns="http://www.w3.org/2000/svg"><g clip-rule="evenodd" fill="currentColor" fill-rule="evenodd"><path d="m10.1499 10.85c0-2.12629 1.7237-3.85 3.85-3.85s3.85 1.72371 3.85 3.85c0 2.1263-1.7237 3.85-3.85 3.85s-3.85-1.7237-3.85-3.85zm3.85-1.85c-1.0217 0-1.85.82827-1.85 1.85 0 1.0217.8283 1.85 1.85 1.85s1.85-.8283 1.85-1.85c0-1.02173-.8283-1.85-1.85-1.85z"/><path d="m8.62635 3h10.74695c.6659-.00001 1.2254-.00003 1.6833.03738.4787.03912.9337.12406 1.3655.3441.6586.33556 1.194.87099 1.5296 1.52955.22.43186.305.88682.3441 1.36554.0374.45786.0374 1.01736.0374 1.68319v10.17984c0 .6659 0 1.2254-.0374 1.6833-.0391.4787-.1241.9337-.3441 1.3655-.3356.6586-.871 1.194-1.5296 1.5296-.4318.22-.8868.305-1.3655.3441-.4579.0374-1.0174.0374-1.6832.0374h-.143c-.6822 0-.8809.0049-1.0612.0429-.1809.0381-.3556.1011-.5192.1872-.1631.0858-.3192.2088-.8445.6441l-.6604.5474c-.2515.2084-.4807.3984-.6858.544-.222.1577-.4717.3051-.7759.3916-.4467.1269-.9198.1269-1.3665 0-.3042-.0864-.5539-.2338-.7759-.3914-.2051-.1456-.4344-.3356-.6858-.544l-.6611-.5478c-.5252-.4352-.6813-.5582-.8444-.644-.1636-.086-.3383-.149-.51911-.1871-.1803-.038-.37896-.0429-1.06109-.0429h-.14317c-.66584 0-1.2254 0-1.68325-.0374-.47872-.0391-.93368-.1241-1.36554-.3441-.65857-.3356-1.194-.871-1.52956-1.5296-.22004-.4318-.30498-.8868-.34409-1.3655-.03741-.4579-.0374-1.0174-.03739-1.6833v-10.17975c-.00001-.66587-.00002-1.22541.03739-1.68327.03911-.47873.12405-.93369.34409-1.36555.33556-.65856.87099-1.19399 1.52956-1.52955.43186-.22004.88682-.30498 1.36554-.3441.45786-.03741 1.01741-.03739 1.68327-.03738zm-1.52041 2.03074c-.35504.02901-.5175.08031-.62042.13275-.28224.14381-.51171.37328-.65552.65553-.05245.10292-.10375.26538-.13276.62042-.02996.36671-.03073.844-.03073 1.56056v10.0995c0 .7165.00077 1.1938.03073 1.5605.02901.3551.08031.5175.13276.6204.14381.2823.37328.5118.65552.6556.02908.0148.06291.0295.10449.0437 1.19163-2.9204 4.05919-4.9797 7.40989-4.9797s6.2183 2.0593 7.4099 4.9796c.0415-.0141.0753-.0288.1044-.0436.2822-.1438.5117-.3733.6555-.6556.0524-.1029.1037-.2653.1327-.6204.03-.3667.0308-.844.0308-1.5605v-10.0995c0-.71656-.0008-1.19385-.0308-1.56056-.029-.35504-.0803-.5175-.1327-.62042-.1438-.28225-.3733-.51172-.6555-.65553-.103-.05244-.2654-.10374-.6205-.13275-.3667-.02996-.844-.03074-1.5605-.03074h-10.66669c-.71657 0-1.19385.00078-1.56057.03074zm12.14786 16.06876c-1.0228-1.8487-2.9932-3.0995-5.2539-3.0995s-4.23104 1.2508-5.25388 3.0995l.11208-.0001c.55522-.0002.9749-.0004 1.3847.0859.3617.0762.7111.2022 1.0382.3743.3706.195.6937.4629 1.121.8174l.7047.5839c.284.2353.4553.3765.592.4735.0632.0449.104.0693.1299.0829.0232.0122.0331.015.0347.0155.0894.0254.1841.0254.2734 0 .0016-.0004.0116-.0033.0348-.0155.026-.0136.0667-.038.1299-.0829.1367-.0971.308-.2382.592-.4735l.7041-.5836c.4274-.3546.7505-.6225 1.1211-.8176.3271-.1722.6766-.2981 1.0383-.3743.4099-.0864.8296-.0862 1.3849-.086z"/></g></svg>
