<svg xmlns="http://www.w3.org/2000/svg" width="28" height="28" fill="currentColor" viewBox="0 0 28 28"><path d="M15.5 8a2.25 2.25 0 1 1 0 4.5 2.25 2.25 0 1 1 0-4.5Zm-4.501 8.434v-.56c0-1.969 2.999-2.53 4.5-2.53 1.503 0 4.501.563 4.501 2.531v.56a.565.565 0 0 1-.565.565l-7.87-.001a.565.565 0 0 1-.566-.565Z"/><path fill-rule="evenodd" d="M11.162 4h8.676c.528 0 .982 0 1.357.03.395.033.789.104 1.167.297a3 3 0 0 1 1.311 1.311c.193.378.264.772.296 1.167.031.375.031.83.031 1.356v8.678c0 .527 0 .982-.03 1.356-.033.395-.104.789-.297 1.167a3 3 0 0 1-1.311 1.311c-.378.193-.772.264-1.167.296-.375.031-.83.031-1.356.031H11.16c-.527 0-.981 0-1.356-.03-.395-.033-.789-.104-1.167-.297a3 3 0 0 1-1.311-1.311c-.193-.378-.264-.772-.296-1.167A17.9 17.9 0 0 1 7 16.838V8.162c0-.527 0-.981.03-1.356.033-.395.104-.789.297-1.167a3 3 0 0 1 1.311-1.311c.378-.193.772-.264 1.167-.296C10.18 4 10.635 4 11.162 4ZM9.968 6.024c-.272.022-.373.06-.422.085a1 1 0 0 0-.437.437c-.025.05-.063.15-.085.422C9 7.25 9 7.623 9 8.2v8.6c0 .577 0 .949.024 1.232.022.272.06.372.085.422a1 1 0 0 0 .437.437c.05.025.15.063.422.085.283.023.655.024 1.232.024h8.6c.577 0 .949 0 1.232-.024.272-.022.372-.06.422-.085a1 1 0 0 0 .437-.437c.025-.05.063-.15.085-.422C22 17.75 22 17.377 22 16.8V8.2c0-.577 0-.949-.024-1.232-.022-.272-.06-.373-.085-.422a1 1 0 0 0-.437-.437c-.05-.025-.15-.063-.422-.085C20.75 6 20.377 6 19.8 6h-8.6c-.577 0-.949 0-1.232.024Z" clip-rule="evenodd"/><path fill-rule="evenodd" d="M5 9v7c0 1.417 0 2.419.065 3.203.063.771.182 1.243.371 1.613a4 4 0 0 0 1.748 1.748c.37.189.842.308 1.613.371C9.581 23 10.583 23 12 23h8a2 2 0 0 1-2 2h-6.044c-1.363 0-2.447 0-3.321-.071-.896-.074-1.66-.227-2.359-.583a6 6 0 0 1-2.622-2.622c-.356-.7-.51-1.463-.583-2.359C3 18.491 3 17.407 3 16.044V11a2 2 0 0 1 2-2Z" clip-rule="evenodd"/></svg>
