<svg xmlns="http://www.w3.org/2000/svg" width="28" height="28" fill="currentColor" viewBox="0 0 28 28"><path fill-rule="evenodd" d="M9 7.4C9 4.397 11.484 2 14.5 2S20 4.397 20 7.4c0 3.003-2.484 5.4-5.5 5.4a1 1 0 1 1 0-2c1.954 0 3.5-1.543 3.5-3.4S16.454 4 14.5 4 11 5.543 11 7.4a1 1 0 1 1-2 0Zm1.594 7.608c-1.42.464-2.702 1.032-3.687 1.641C5.034 17.807 4 19.63 4 22c0 1.02.35 1.865 1.109 2.401.687.486 1.55.599 2.323.599h13.154l.707.707a1 1 0 1 0 1.414-1.414l-.99-.99a.641.641 0 0 0-.02-.02l-8.475-8.475a.937.937 0 0 0-.028-.028L5.707 7.293a1 1 0 1 0-1.414 1.414l6.3 6.301ZM18.586 23l-6.387-6.387c-1.708.472-3.213 1.102-4.24 1.738C6.69 19.134 6 20.304 6 22c0 .54.16.695.264.768.176.125.529.232 1.168.232h11.154Zm-1.556-6.742a1 1 0 0 1 1.212-.728c1.097.274 2.407.803 3.502 1.63 1.098.828 2.063 2.023 2.25 3.622a1 1 0 0 1-1.987.231c-.102-.877-.637-1.63-1.467-2.257-.833-.628-1.88-1.06-2.782-1.286a1 1 0 0 1-.728-1.212Z" clip-rule="evenodd"/></svg>
