<svg xmlns="http://www.w3.org/2000/svg" width="28" height="28" fill="currentColor" viewBox="0 0 28 28"><path d="M17.75 15c4.951 0 9.25 1.763 9.25 5.643 0 2.016-.781 2.857-2.456 2.857H10.956c-1.675 0-2.456-.84-2.456-2.857 0-3.88 4.299-5.643 9.25-5.643Zm0 2c-3.946 0-7.25 1.355-7.25 3.643 0 .89-.072.863.372.858l13.672-.001c.536 0 .456.086.456-.857C25 18.355 21.696 17 17.75 17ZM5 11h4a1 1 0 1 1 0 2H1a1 1 0 1 1 0-2h4Zm12.5-8C20.538 3 23 5.461 23 8.5S20.538 14 17.5 14A5.499 5.499 0 0 1 12 8.5C12 5.461 14.461 3 17.5 3Zm0 2A3.499 3.499 0 0 0 14 8.5c0 1.934 1.566 3.5 3.5 3.5S21 10.434 21 8.5 19.434 5 17.5 5Z"/></svg>
