<svg fill="none" height="28" viewBox="0 0 28 28" width="28" xmlns="http://www.w3.org/2000/svg" xmlns:xlink="http://www.w3.org/1999/xlink"><linearGradient id="a" gradientUnits="userSpaceOnUse" x1="-14" x2="14" y1="14" y2="42"><stop offset="0" stop-color="#ff5263"/><stop offset="1" stop-color="#ff3347"/></linearGradient><path d="m0 14c0-7.73199 6.26801-14 14-14 7.732 0 14 6.26801 14 14 0 7.732-6.268 14-14 14-7.73199 0-14-6.268-14-14z" fill="url(#a)"/><path d="m16.5 16.6284c0 .8247-.0859 1.1237-.2471 1.4252s-.3978.5381-.6993.6993-.6005.2471-1.4252.2471h-4.75681c-.82465 0-1.12369-.0859-1.42517-.2471s-.53809-.3978-.69932-.6993c-.16124-.3015-.2471-.6005-.2471-1.4252v-5.2568c0-.8247.08586-1.1237.2471-1.42518.16123-.30148.39784-.53809.69932-.69932.30148-.16124.60052-.2471 1.42517-.2471h4.75681c.8247 0 1.1237.08586 1.4252.2471.3015.16123.5381.39784.6993.69932s.2471.60048.2471 1.42518v.8784l2.3444-1.5071c.3485-.224.8125-.1231 1.0365.2253.0778.121.1191.2617.1191.4055v5.2526c0 .4142-.3358.75-.75.75-.1438 0-.2846-.0414-.4056-.1192l-2.3444-1.5071z" fill="#fff"/></svg>
