<svg fill="none" height="28" viewBox="0 0 28 28" width="28" xmlns="http://www.w3.org/2000/svg"><g clip-rule="evenodd" fill="currentColor" fill-rule="evenodd"><path d="m18.0796 15.6537c.2555-.1805.5694-.4401.7475-.8402.2305-.5178.2305-1.1092 0-1.627-.1781-.4001-.492-.6597-.7475-.8402-.2514-.1776-.5807-.3677-.9431-.5769l-2.773-1.601c-.3624-.20923-.6917-.39939-.9711-.52828-.2842-.13102-.6659-.27302-1.1015-.22724-.5637.05925-1.0758.35491-1.4089.81352-.2575.3543-.3254.7559-.3539 1.0674-.0282.3065-.0281.6868-.0281 1.1051v3.2022c0 .4183-.0001.7986.0281 1.1051.0285.3115.0964.7131.3539 1.0674.3331.4586.8452.7543 1.4089.8135.4356.0458.8173-.0962 1.1015-.2272.2794-.1289.6087-.3191.971-.5283l2.7731-1.601c.3624-.2092.6917-.3993.9431-.5769zm-1.9796-2.1733c.4109.2372.6585.3813.8255.4993.0102.0072.0195.014.0282.0203-.0087.0063-.018.0131-.0282.0203-.167.118-.4146.2621-.8255.4993l-2.7 1.5589c-.4109.2372-.6595.3796-.8452.4652-.0113.0052-.0218.0099-.0316.0143-.0008-.0067-.0015-.0138-.0022-.0212-.0005-.0043-.0009-.0088-.0013-.0133-.0187-.2037-.0197-.4902-.0197-.9647v-3.1176c0-.4745.001-.761.0197-.9647.0011-.0123.0023-.0238.0035-.0345.0098.0044.0203.0091.0316.0143.1857.0856.4343.228.8452.4652z"/><path d="m26 14c0 6.6274-5.3726 12-12 12-6.62742 0-12-5.3726-12-12 0-6.62742 5.37258-12 12-12 6.6274 0 12 5.37258 12 12zm-2 0c0 5.5228-4.4772 10-10 10-5.52285 0-10-4.4772-10-10 0-5.52285 4.47715-10 10-10 5.5228 0 10 4.47715 10 10z"/></g></svg>
