<svg fill="none" height="28" viewBox="0 0 28 28" width="28" xmlns="http://www.w3.org/2000/svg"><g fill="currentColor"><path d="m2 12.4c0-2.2402 0-3.36032.43597-4.21596.3835-.75265.99542-1.36457 1.74807-1.74807.85565-.43597 1.97575-.43597 4.21596-.43597h5.2c2.2402 0 3.3603 0 4.216.43597.7526.3835 1.3645.99542 1.748 1.74807.436.85564.436 1.97576.436 4.21596v3.2c0 2.2402 0 3.3603-.436 4.216-.3835.7526-.9954 1.3645-1.748 1.748-.8557.436-1.9758.436-4.216.436h-5.2c-2.24021 0-3.36031 0-4.21596-.436-.75265-.3835-1.36457-.9954-1.74807-1.748-.43597-.8557-.43597-1.9758-.43597-4.216z"/><path d="m22 11.4814c0-.175 0-.2625.0262-.3402.0231-.0687.061-.1316.1108-.1842.0564-.0595.1337-.1005.2884-.1824l2.2253-1.17949c.7752-.41084 1.1628-.61626 1.479-.57489.276.03611.5245.18563.6857.41259.1846.26004.1846.69869.1846 1.57599v5.9824c0 .8773 0 1.316-.1846 1.576-.1612.227-.4097.3765-.6857.4126-.3162.0414-.7038-.1641-1.479-.5749l-2.2253-1.1795c-.1547-.0819-.232-.1229-.2884-.1824-.0498-.0526-.0877-.1155-.1108-.1842-.0262-.0777-.0262-.1652-.0262-.3402z"/></g></svg>
