<svg xmlns="http://www.w3.org/2000/svg" width="28" height="28" fill="currentColor" viewBox="0 0 28 28"><path fill-rule="evenodd" d="M12.089 4.038C11.639 4 11.057 4 10.2 4H8a1 1 0 1 1 0-2h2.241c.805 0 1.47 0 2.01.044.563.046 1.08.145 1.565.392a4 4 0 0 1 1.748 1.748c.159.312.256.637.318.978l1.522-1.066c.304-.212.585-.41.827-.547.24-.137.6-.314 1.032-.295a1.816 1.816 0 0 1 1.362.709c.263.343.325.74.35 1.014.025.277.025.621.025.992v5.354c0 .4 0 .764-.026 1.056-.026.283-.089.702-.37 1.055a1.817 1.817 0 0 1-1.423.684c-.452-.001-.818-.214-1.055-.37-.244-.162-.53-.39-.84-.64l-2.535-2.027A2 2 0 0 1 14 9.52V7.8c0-.857 0-1.439-.038-1.889-.035-.438-.1-.663-.18-.819a2 2 0 0 0-.874-.874c-.156-.08-.38-.145-.819-.18ZM16 9.519l2.502 2.002c.207.166.366.292.494.39.004-.16.004-.364.004-.63V6.01c0-.247 0-.434-.004-.582-.123.082-.277.19-.479.33L16 7.521v1.998ZM2.293 3.293a1 1 0 0 1 1.414 0l21 21a1 1 0 0 1-1.414 1.414l-2.485-2.484a4 4 0 0 1-2.773 2.64c-.511.138-1.102.137-1.897.137h-2.379c-.805 0-1.47 0-2.01-.044-.563-.046-1.08-.145-1.565-.392a4 4 0 0 1-1.748-1.748c-.247-.485-.346-1.002-.392-1.564C8 21.71 8 21.046 8 20.242V19a1 1 0 1 1 2 0v1.2c0 .857 0 1.439.038 1.889.035.438.1.663.18.819a2 2 0 0 0 .874.874c.156.08.38.145.819.18.45.037 1.032.038 1.889.038H16c.994 0 1.295-.009 1.518-.068a2 2 0 0 0 1.414-1.414c.05-.188.064-.433.067-1.105L13.586 16H8.759c-.805 0-1.47 0-2.01-.044-.563-.046-1.08-.145-1.565-.392a4 4 0 0 1-1.748-1.748c-.247-.485-.346-1.002-.392-1.564C3 11.71 3 11.046 3 10.242V5.413l-.707-.707a1 1 0 0 1 0-1.414ZM5 7.414V10.2c0 .857 0 1.439.038 1.889.035.438.1.663.18.819a2 2 0 0 0 .874.874c.156.08.38.145.819.18C7.361 14 7.943 14 8.8 14h2.786L5 7.414Zm18.997 9.033a21.02 21.02 0 0 0-.411.151l-2.235.838a1 1 0 0 1-.702-1.872l2.269-.851c.267-.1.526-.197.748-.259.236-.065.558-.128.914-.048.462.103.865.382 1.124.779.2.305.253.63.275.872.021.23.021.507.021.792V20a1 1 0 1 1-2 0v-3.114c0-.189 0-.33-.003-.44Z" clip-rule="evenodd"/></svg>
