<svg xmlns="http://www.w3.org/2000/svg" width="28" height="28" fill="currentColor" viewBox="0 0 28 28"><path fill-rule="evenodd" d="M9.357 5h4.286c1.084 0 1.958 0 2.666.058.729.06 1.369.185 1.961.487a5 5 0 0 1 2.185 2.185c.231.454.36.936.433 1.464l.437-.284.903-.585c.239-.155.52-.338.773-.471.255-.134.794-.395 1.482-.348a2.7 2.7 0 0 1 1.975 1.07c.415.552.49 1.148.516 1.434.026.285.026.62.026.904v6.172c0 .284 0 .619-.026.904-.026.286-.1.882-.516 1.434a2.7 2.7 0 0 1-1.975 1.07c-.688.047-1.227-.214-1.482-.348a10.407 10.407 0 0 1-.773-.47l-.905-.588-.435-.282c-.074.528-.202 1.01-.433 1.464a5 5 0 0 1-2.185 2.185c-.592.302-1.232.428-1.961.487C15.6 23 14.727 23 13.643 23H9.357c-1.084 0-1.958 0-2.666-.058-.728-.06-1.369-.185-1.96-.487a5 5 0 0 1-2.186-2.185c-.302-.592-.428-1.232-.487-1.961C2 17.6 2 16.727 2 15.643v-3.286c0-1.084 0-1.958.058-2.666.06-.728.185-1.369.487-1.961A5 5 0 0 1 4.73 5.545c.592-.302 1.233-.428 1.961-.487C7.4 5 8.273 5 9.357 5ZM21 15.643v-4.138l2.27-1.472c.563-.365.844-.548 1.077-.532a.7.7 0 0 1 .513.277c.14.187.14.522.14 1.192v6.06c0 .67 0 1.005-.14 1.192a.7.7 0 0 1-.513.277c-.233.016-.514-.167-1.077-.532L21 16.495v-.852ZM6.854 7.05c-.605.05-.953.142-1.216.276a3 3 0 0 0-1.311 1.311c-.134.263-.226.611-.276 1.216-.05.617-.051 1.41-.051 2.546v3.2c0 1.137 0 1.929.051 2.546.05.605.142.953.276 1.216a3 3 0 0 0 1.311 1.311c.263.134.611.226 1.216.276.617.05 1.41.051 2.546.051h4.2c1.137 0 1.929 0 2.546-.051.605-.05.953-.142 1.216-.276a3 3 0 0 0 1.311-1.311c.134-.263.226-.611.276-1.216.05-.617.051-1.41.051-2.546v-3.2c0-1.137 0-1.929-.051-2.546-.05-.605-.142-.953-.276-1.216a3 3 0 0 0-1.311-1.311c-.263-.134-.611-.226-1.216-.276-.617-.049-1.41-.05-2.546-.05H9.4c-1.137 0-1.929 0-2.546.051Z" clip-rule="evenodd"/></svg>
