<svg xmlns="http://www.w3.org/2000/svg" width="28" height="28" fill="currentColor" viewBox="0 0 28 28"><path fill-rule="evenodd" d="M11 7h1c1.425 0 2.394.001 3.147.052.735.05 1.117.142 1.384.252a4 4 0 0 1 2.165 2.165c.11.267.201.65.252 1.384.05.753.052 1.722.052 3.147 0 1.425-.001 2.394-.052 3.147-.05.735-.142 1.117-.253 1.384a4 4 0 0 1-2.164 2.165c-.267.11-.65.201-1.384.252-.753.05-1.722.052-3.147.052h-1c-1.425 0-2.394-.001-3.147-.052-.735-.05-1.117-.142-1.384-.253a4 4 0 0 1-2.165-2.164c-.11-.267-.201-.65-.252-1.384C4.002 16.394 4 15.425 4 14c0-1.425.001-2.394.052-3.147.05-.735.142-1.117.252-1.384A4 4 0 0 1 6.47 7.304c.267-.11.65-.201 1.384-.252C8.606 7.002 9.575 7 11 7Zm9.793 2.53a4.567 4.567 0 0 0-.25-.826 6 6 0 0 0-3.247-3.247C16.194 5 14.796 5 12 5h-1c-2.796 0-4.193 0-5.296.457a6 6 0 0 0-3.247 3.247C2 9.807 2 11.204 2 14c0 2.796 0 4.194.457 5.296a6 6 0 0 0 3.247 3.247C6.807 23 8.204 23 11 23h1c2.796 0 4.194 0 5.296-.457a6 6 0 0 0 3.247-3.247c.106-.255.187-.526.25-.826l1.44 1.422C24 21.64 27 20.386 27 17.9v-7.8c0-2.486-2.998-3.739-4.767-1.992l-1.44 1.422ZM21 14v1.53a.8.8 0 0 0 .238.57l2.4 2.37A.8.8 0 0 0 25 17.9v-7.8a.8.8 0 0 0-1.362-.57l-2.4 2.37a.8.8 0 0 0-.238.57V14Z" clip-rule="evenodd"/></svg>
