<svg xmlns="http://www.w3.org/2000/svg" width="28" height="28" fill="none" viewBox="0 0 28 28">
  <path fill="currentColor" fill-rule="evenodd" d="M8.523 6a.52.52 0 0 0-.366.889l10.928 10.916a.666.666 0 0 0 .47.195.444.444 0 0 0 .445-.444V12.4c0-2.24 0-3.36-.436-4.216a4 4 0 0 0-1.748-1.748C16.96 6 15.84 6 13.6 6H8.523ZM2 10.544a.544.544 0 0 1 .93-.385l10.91 10.896a.553.553 0 0 1-.39.945H8.4c-2.24 0-3.36 0-4.216-.436a4 4 0 0 1-1.748-1.748C2 18.96 2 17.84 2 15.6v-5.056Zm20.046 1.322c-.046.182-.046.377-.046.766v2.75c0 .39 0 .586.046.768.042.161.11.315.201.454.104.157.248.289.536.552l2.075 1.891c.678.618 1.017.927 1.305.94a.8.8 0 0 0 .652-.288c.185-.222.185-.68.185-1.598V9.906c0-.919 0-1.379-.185-1.601a.8.8 0 0 0-.653-.288c-.289.014-.628.324-1.306.945l-2.076 1.9c-.287.262-.431.394-.534.55a1.5 1.5 0 0 0-.2.454Z" clip-rule="evenodd"/>
  <path fill="#FF3347" d="M2.293 6.709a1.002 1.002 0 0 1 0-1.415.998.998 0 0 1 1.412-.001L19.707 21.29c.39.39.39 1.024 0 1.415a.998.998 0 0 1-1.412.002l-16.002-16Z"/>
</svg>
