<svg xmlns="http://www.w3.org/2000/svg" width="28" height="28" fill="currentColor" viewBox="0 0 28 28"><path fill-rule="evenodd" d="M2.436 8.184C2 9.04 2 10.16 2 12.4v3.2c0 2.24 0 3.36.436 4.216a4 4 0 0 0 1.748 1.748C5.04 22 6.16 22 8.4 22h5.2c2.24 0 3.36 0 4.216-.436a4 4 0 0 0 1.748-1.748C20 18.96 20 17.84 20 15.6v-3.2c0-2.24 0-3.36-.436-4.216a4 4 0 0 0-1.748-1.748C16.96 6 15.84 6 13.6 6H8.4c-2.24 0-3.36 0-4.216.436a4 4 0 0 0-1.748 1.748Zm19.61 3.682c-.046.182-.046.377-.046.766v2.75c0 .39 0 .586.046.768.042.161.11.315.201.454.104.157.248.289.536.552l2.075 1.891c.678.618 1.017.927 1.305.94a.8.8 0 0 0 .652-.288c.185-.222.185-.68.185-1.598V9.906c0-.919 0-1.379-.185-1.601a.8.8 0 0 0-.653-.288c-.289.014-.628.324-1.306.945l-2.076 1.9c-.287.262-.431.394-.534.55a1.5 1.5 0 0 0-.2.454Z" clip-rule="evenodd"/></svg>
