<svg xmlns="http://www.w3.org/2000/svg" width="28" height="28" fill="currentColor" viewBox="0 0 28 28"><path fill-rule="evenodd" d="M18.08 15.654c.255-.18.569-.44.747-.84a2 2 0 0 0 0-1.627c-.178-.4-.492-.66-.747-.84-.252-.178-.581-.368-.943-.578l-2.774-1.6c-.362-.21-.691-.4-.97-.529-.285-.13-.667-.273-1.102-.227a2 2 0 0 0-1.409.813c-.258.355-.325.756-.354 1.068-.028.306-.028.687-.028 1.105V15.6c0 .418 0 .799.028 1.105.029.312.096.713.354 1.068a2 2 0 0 0 1.409.813c.435.046.817-.096 1.101-.227.28-.129.61-.32.971-.528l2.774-1.601c.362-.21.691-.4.943-.577ZM16.1 13.48c.41.238.659.382.825.5l.029.02-.029.02c-.166.118-.414.262-.825.5l-2.7 1.558c-.41.238-.66.38-.845.466l-.032.014a.881.881 0 0 1-.003-.035 12.25 12.25 0 0 1-.02-.964V12.44a12.25 12.25 0 0 1 .023-.999c.01.004.02.01.032.014.186.086.434.228.845.466l2.7 1.558Z M26 14c0 6.627-5.373 12-12 12S2 20.627 2 14 7.373 2 14 2s12 5.373 12 12Zm-2 0c0 5.523-4.477 10-10 10S4 19.523 4 14 8.477 4 14 4s10 4.477 10 10Z" clip-rule="evenodd"/></svg>
