<svg fill="none" height="28" viewBox="0 0 28 28" width="28" xmlns="http://www.w3.org/2000/svg"><g fill="currentColor"><path d="m3.88388 3.11612c-.48815-.48816-1.27961-.48816-1.76776 0-.48816.48815-.48816 1.27961 0 1.76776l2.01159 2.0116c-.2691.24176-.49369.52926-.66977.8585-.29881.55873-.45794 1.11293-.45794 2.64122v7.2096c0 1.5283.15913 2.0825.45794 2.6412.29881.5588.73731.9972 1.29604 1.2961.55873.2988 1.11293.4579 2.64125.4579h8.35237c1.5283 0 2.0825-.1591 2.6413-.4579.0834-.0447.1642-.0924.2422-.1432l2.485 2.485c.4882.4881 1.2796.4881 1.7678 0 .4881-.4882.4881-1.2796 0-1.7678z"/><path d="m20.1429 10.3952v3.8151c0 .6236-.754.9359-1.195.4949l-7.5103-7.51023c-.441-.44097-.1286-1.19497.495-1.19497h3.815c1.5283 0 2.0825.15913 2.6413.45794.5587.29881.9972.73731 1.296 1.29604s.458 1.11293.458 2.64122z"/><path d="m26.771 9.31075c.1486.19794.229.43879.229.68634v8.00591c0 .6311-.5117 1.1428-1.1429 1.1428-.2475 0-.4884-.0804-.6863-.229l-2.514-1.8882c-.1437-.108-.2282-.2772-.2282-.4569v-5.1434c0-.1797.0845-.3489.2282-.4569l2.514-1.88813c.5047-.37906 1.2211-.27721 1.6002.22748z"/></g></svg>
