<svg fill="none" height="28" viewBox="0 0 28 28" width="28" xmlns="http://www.w3.org/2000/svg"><path d="m15.7476 6c1.5283 0 2.0825.15913 2.6413.45794.5587.29881.9972.73731 1.296 1.29604s.458 1.11293.458 2.64122v7.2096c0 1.5283-.1592 2.0825-.458 2.6412-.2988.5588-.7373.9972-1.296 1.2961-.5588.2988-1.113.4579-2.6413.4579h-8.35237c-1.52832 0-2.08252-.1591-2.64125-.4579-.55873-.2989-.99723-.7373-1.29604-1.2961-.29881-.5587-.45794-1.1129-.45794-2.6412v-7.2096c0-1.52829.15913-2.08249.45794-2.64122s.73731-.99723 1.29604-1.29604 1.11293-.45794 2.64125-.45794zm11.0234 3.31075c.1486.19794.229.43879.229.68634v8.00591c0 .6311-.5117 1.1428-1.1429 1.1428-.2475 0-.4884-.0804-.6863-.229l-2.514-1.8882c-.1437-.108-.2282-.2772-.2282-.4569v-5.1434c0-.1797.0845-.3489.2282-.4569l2.514-1.88813c.5047-.37906 1.2211-.27721 1.6002.22748z" fill="currentColor"/></svg>
