<svg fill="none" height="28" viewBox="0 0 28 28" width="28" xmlns="http://www.w3.org/2000/svg"><g clip-rule="evenodd" fill="currentColor" fill-rule="evenodd"><path d="m5.51472 5.51472c2.17048-2.17048 5.17188-3.51472 8.48528-3.51472s6.3148 1.34424 8.4853 3.51472 3.5147 5.17188 3.5147 8.48528-1.3442 6.3148-3.5147 8.4853-5.1719 3.5147-8.4853 3.5147-6.3148-1.3442-8.48528-3.5147-3.51472-5.1719-3.51472-8.4853 1.34424-6.3148 3.51472-8.48528zm8.48528-1.51472c-2.7617 0-5.26033 1.11819-7.07107 2.92893s-2.92893 4.30937-2.92893 7.07107 1.11819 5.2603 2.92893 7.0711c1.81074 1.8107 4.30937 2.9289 7.07107 2.9289s5.2603-1.1182 7.0711-2.9289c1.8107-1.8108 2.9289-4.3094 2.9289-7.0711s-1.1182-5.26033-2.9289-7.07107c-1.8108-1.81074-4.3094-2.92893-7.0711-2.92893z"/><path d="m8.34315 8.34315c1.44662-1.44662 3.44795-2.34315 5.65685-2.34315.5523 0 1 .44772 1 1s-.4477 1-1 1c-1.6571 0-3.1558.67048-4.24264 1.75736-1.08688 1.08684-1.75736 2.58554-1.75736 4.24264 0 .5523-.44772 1-1 1s-1-.4477-1-1c0-2.2089.89653-4.21023 2.34315-5.65685zm12.65685 4.65685c.5523 0 1 .4477 1 1 0 2.2089-.8965 4.2102-2.3431 5.6569-1.4467 1.4466-3.448 2.3431-5.6569 2.3431-.5523 0-1-.4477-1-1s.4477-1 1-1c1.6571 0 3.1558-.6705 4.2426-1.7574 1.0869-1.0868 1.7574-2.5855 1.7574-4.2426 0-.5523.4477-1 1-1z"/><path d="m11.1716 11.1716c.7227-.7228 1.7241-1.1716 2.8284-1.1716s2.1057.4488 2.8284 1.1716c.7228.7227 1.1716 1.7241 1.1716 2.8284s-.4488 2.1057-1.1716 2.8284c-.7227.7228-1.7241 1.1716-2.8284 1.1716s-2.1057-.4488-2.8284-1.1716c-.7228-.7227-1.1716-1.7241-1.1716-2.8284s.4488-2.1057 1.1716-2.8284zm2.8284.8284c-.5526 0-1.0512.2228-1.4142.5858s-.5858.8616-.5858 1.4142.2228 1.0512.5858 1.4142.8616.5858 1.4142.5858 1.0512-.2228 1.4142-.5858.5858-.8616.5858-1.4142-.2228-1.0512-.5858-1.4142-.8616-.5858-1.4142-.5858z"/></g></svg>
