<svg xmlns="http://www.w3.org/2000/svg" width="28" height="28" fill="none" viewBox="0 0 28 28">
  <circle cx="14" cy="14" r="14" fill="url(#a)"/>
  <path fill="#fff" fill-rule="evenodd" d="M10.5 12.3c0-1.68 0-2.52.327-3.162a3 3 0 0 1 1.311-1.311C12.78 7.5 13.62 7.5 15.3 7.5c1.82 0 2.73 0 3.425.354a3.25 3.25 0 0 1 1.42 1.42c.355.696.355 1.606.355 3.426v2.6c0 1.82 0 2.73-.354 3.425a3.25 3.25 0 0 1-1.42 1.42c-.696.355-1.606.355-3.426.355-1.68 0-2.52 0-3.162-.327a3 3 0 0 1-1.311-1.311C10.5 18.22 10.5 17.38 10.5 15.7v-3.4Zm6.728.857c.452.271.679.407.755.583a.6.6 0 0 1 0 .48c-.076.176-.303.312-.755.583l-1.774 1.065c-.476.285-.714.428-.91.41a.6.6 0 0 1-.428-.243C14 15.877 14 15.6 14 15.045v-2.13c0-.554 0-.832.116-.99a.6.6 0 0 1 .428-.243c.196-.018.434.125.91.41l1.774 1.065ZM9 12.2c0-1.82 0-2.73.354-3.426a3.25 3.25 0 0 1 1.077-1.218c-.475.048-.838.136-1.156.298a3.25 3.25 0 0 0-1.42 1.42C7.5 9.97 7.5 10.88 7.5 12.7v2.6c0 1.82 0 2.73.354 3.425a3.25 3.25 0 0 0 1.42 1.42c.319.163.682.25 1.157.299a3.25 3.25 0 0 1-1.077-1.219C9 18.53 9 17.62 9 15.8v-3.6Z" clip-rule="evenodd"/>
  <defs>
    <linearGradient id="a" x1="0" x2="28.733" y1="0" y2=".773" gradientUnits="userSpaceOnUse">
      <stop stop-color="#FF5263"/>
      <stop offset="1" stop-color="#FF3347"/>
    </linearGradient>
  </defs>
</svg>
