<svg fill="none" height="28" viewBox="0 0 28 28" width="28" xmlns="http://www.w3.org/2000/svg"><path clip-rule="evenodd" d="m17 5.11111c0-.61365-.4964-1.11111-1.11-1.11111-.7129 0-1.3963.27613-1.91.77044l-6.13 5.89626h-2.62778c-1.2273 0-2.22222.9949-2.22222 2.2222v2.2222c0 1.2273.99492 2.2222 2.22222 2.2222h2.65778l6.1 5.8946c.5126.4953 1.1973.7721 1.91.7721.6136 0 1.11-.4975 1.11-1.1111zm7.7242 1.82868c-.4998-.47618-1.2911-.457-1.7672.04284-.4762.49984-.457 1.29106.0428 1.76724 1.3878 1.32213 2.2501 3.18443 2.2501 5.25013 0 2.0658-.8623 3.9281-2.2501 5.2502-.4998.4761-.519 1.2674-.0428 1.7672.4761.4998 1.2674.519 1.7672.0428 1.8625-1.7743 3.0257-4.2824 3.0257-7.0602 0-2.7777-1.1632-5.28589-3.0257-7.06021zm-3.1034 3.25861c-.4999-.47617-1.2911-.45699-1.7673.0429-.4762.4998-.457 1.291.0428 1.7672.5275.5025.8536 1.2079.8536 1.9915 0 .7837-.3261 1.4891-.8536 1.9915-.4998.4762-.519 1.2674-.0428 1.7673.4762.4998 1.2674.519 1.7673.0428 1.0021-.9547 1.6291-2.3059 1.6291-3.8016 0-1.4956-.627-2.8469-1.6291-3.8016z" fill="currentColor" fill-rule="evenodd"/></svg>
