<svg xmlns="http://www.w3.org/2000/svg" width="28" height="28" fill="none" viewBox="0 0 28 28"><rect width="28" height="28" fill="url(#a)" rx="14"/><path fill="#fff" d="M12.616 12.137c.64-.167.906.049.992.179.105.16.222.61-.21 1.366-.725 1.27-.693 2.687.269 3.513.966.828 2.367.63 3.471-.29.85-.708 2.196-2.372 3.27-3.764.193-.249.29-.374.364-.405a.306.306 0 0 1 .386.131c.04.071.04.228.04.541v3.37c-.002.314-.02.6-.108.87a2.2 2.2 0 0 1-.463.795c-.255.28-.597.465-.986.685l-4.122 2.34c-.38.215-.706.41-1.069.486a2.2 2.2 0 0 1-.901 0c-.363-.076-.689-.27-1.068-.486l-4.122-2.34a5 5 0 0 1-.271-.17c-.243-.161-.364-.242-.436-.371a.65.65 0 0 1-.074-.375c.018-.147.106-.277.281-.537l.058-.085a55 55 0 0 1 1.566-2.195c.612-.81 1.265-1.616 1.866-2.24.3-.312.574-.564.811-.746.25-.191.4-.258.456-.272m.933-6.09a2.2 2.2 0 0 1 .901 0c.363.075.69.27 1.07.486l4.12 2.34c.227.128.456.255.664.408.291.214.295.62.08.911-.36.488-.855 1.151-1.396 1.852-1.112 1.44-2.332 2.926-3 3.482-.684.57-1.074.373-1.152.306-.08-.069-.346-.441.121-1.259.634-1.11.755-2.324.15-3.244-.624-.95-1.786-1.232-2.943-.93-.4.104-.777.34-1.097.587a9 9 0 0 0-1.013.925c-.672.699-1.374 1.568-2.003 2.403q-.173.228-.338.453c-.285.389-.428.583-.547.606a.3.3 0 0 1-.282-.093c-.083-.088-.083-.327-.083-.805v-3.251c.003-.315.02-.601.109-.87.096-.295.255-.567.463-.796.255-.28.597-.465.986-.685l4.122-2.34c.38-.215.705-.41 1.068-.487"/><defs><linearGradient id="a" x1="42" x2="14" y1="14" y2="-14" gradientUnits="userSpaceOnUse"><stop stop-color="#65c2c2"/><stop offset="1" stop-color="#86d1d1"/></linearGradient></defs></svg>