<svg fill="none" height="28" viewBox="0 0 28 28" width="28" xmlns="http://www.w3.org/2000/svg" xmlns:xlink="http://www.w3.org/1999/xlink"><linearGradient id="a" gradientUnits="userSpaceOnUse" x1="42" x2="14" y1="14" y2="-14"><stop offset="0" stop-color="#65c2c2"/><stop offset="1" stop-color="#86d1d1"/></linearGradient><path d="m0 14c0-7.73199 6.26801-14 14-14 7.732 0 14 6.26801 14 14 0 7.732-6.268 14-14 14-7.73199 0-14-6.268-14-14z" fill="url(#a)"/><path d="m8.02573 17.1737c1.37006 1.262 3.53637 2.0763 5.97427 2.0763s4.6041-.8142 5.974-2.0754c.0174.1072.026.2157.026.3254 0 1.933-2.6863 3.5-6 3.5s-6-1.567-6-3.5c0-.11.0087-.2189.02573-.3263zm11.94827-3.4978c.0174.1072.026.2157.026.3254 0 1.933-2.6863 3.5-6 3.5s-6-1.567-6-3.5c0-.11.0087-.2188.02573-.3263 1.37006 1.2621 3.53637 2.0763 5.97427 2.0763s4.6041-.8142 5.974-2.0754zm-5.974-6.6759c3.3137 0 6 1.567 6 3.5s-2.6863 3.5-6 3.5-6-1.567-6-3.5 2.6863-3.5 6-3.5z" fill="#fff"/></svg>
