<svg width="28" height="28" viewBox="0 0 28 28" fill="none" xmlns="http://www.w3.org/2000/svg">
<path d="M10.7022 7.212C11.5231 5.7902 11.9335 5.0793 12.4012 4.73947C13.3545 4.04684 14.6455 4.04684 15.5988 4.73947C16.0665 5.0793 16.4769 5.7902 17.2978 7.212L23.6926 18.288C24.5134 19.7098 24.9239 20.4207 24.9843 20.9957C25.1075 22.1676 24.462 23.2856 23.3855 23.7648C22.8574 24 22.0365 24 20.3947 24H7.60527C5.96352 24 5.14264 24 4.61447 23.7648C3.53797 23.2856 2.89252 22.1676 3.0157 20.9957C3.07613 20.4207 3.48657 19.7098 4.30744 18.288L10.7022 7.212Z" stroke="currentColor" stroke-width="2"/>
<path fill-rule="evenodd" clip-rule="evenodd" d="M14 9.5C13.4477 9.5 13 9.94772 13 10.5L13 15.5C13 16.0523 13.4477 16.5 14 16.5C14.5523 16.5 15 16.0523 15 15.5V10.5C15 9.94772 14.5523 9.5 14 9.5ZM14 18.3C13.3373 18.3 12.8 18.8373 12.8 19.5C12.8 20.1627 13.3373 20.7 14 20.7C14.6628 20.7 15.2 20.1627 15.2 19.5C15.2 18.8373 14.6628 18.3 14 18.3Z" fill="currentColor"/>
</svg>
