<svg fill="none" height="28" viewBox="0 0 28 28" width="28" xmlns="http://www.w3.org/2000/svg"><g fill="currentColor"><path clip-rule="evenodd" d="m19 17c0 2.7614-2.2386 5-5 5s-5-2.2386-5-5 2.2386-5 5-5 5 2.2386 5 5zm-2 0c0 1.6569-1.3431 3-3 3s-3-1.3431-3-3 1.3431-3 3-3 3 1.3431 3 3z" fill-rule="evenodd"/><path d="m17 5c-.5523 0-1 .44772-1 1 0 .55229.4477 1 1 1h2c.5523 0 1-.44771 1-1 0-.55228-.4477-1-1-1z"/><path d="m15 6c0 .55229-.4477 1-1 1h-1c-.5523 0-1-.44771-1-1 0-.55228.4477-1 1-1h1c.5523 0 1 .44772 1 1z"/><path clip-rule="evenodd" d="m21.8439 2.45035c-.867-.45035-2.0059-.45035-4.2839-.45035h-7.12c-2.27796 0-3.41694 0-4.28389.45035-.73058.3795-1.32626.97518-1.70576 1.70575-.45035.86696-.45035 2.00594-.45035 4.2839v11.12c0 2.278 0 3.4169.45035 4.2839.3795.7306.97518 1.3263 1.70575 1.7058.86696.4503 2.00594.4503 4.2839.4503h7.12c2.278 0 3.4169 0 4.2839-.4503.7306-.3795 1.3263-.9752 1.7058-1.7058.4503-.867.4503-2.0059.4503-4.2839v-11.12c0-2.27796 0-3.41694-.4503-4.2839-.3795-.73057-.9752-1.32625-1.7058-1.70575zm.1561 17.10965v-9.56h-16v9.56c0 1.1726.00161 1.9297.04943 2.5056.04584.5519.12358.7559.17574.8563.18976.3653.4876.6632.85288.8529.10042.0522.30445.1299.8564.1758.57588.0478 1.333.0494 2.50555.0494h7.12c1.1726 0 1.9297-.0016 2.5056-.0494.5519-.0459.7559-.1236.8563-.1758.3653-.1897.6632-.4876.8529-.8529.0522-.1004.1299-.3044.1758-.8563.0478-.5759.0494-1.333.0494-2.5056zm-.0494-13.62556c.0415.50044.0482 1.13773.0492 2.06556h-15.99962c.00104-.92783.0077-1.56512.04925-2.06556.04584-.55194.12358-.75597.17575-.85639.18975-.36529.48759-.66313.85287-.85288.10042-.05216.30445-.1299.8564-.17574.57588-.04782 1.333-.04943 2.50555-.04943h7.12c1.1726 0 1.9297.00161 2.5056.04943.5519.04584.7559.12358.8563.17574.3653.18975.6632.4876.8529.85288.0522.10042.1299.30445.1758.85639z" fill-rule="evenodd"/></g></svg>
