<?xml version="1.0" encoding="UTF-8"?>
<svg width="28px" height="28px" viewBox="0 0 28 28" version="1.1" xmlns="http://www.w3.org/2000/svg" xmlns:xlink="http://www.w3.org/1999/xlink">
    <!-- Generator: Sketch 63.1 (92452) - https://sketch.com -->
    <title>water_drop_outline_28</title>
    <desc>Created with Sketch.</desc>
    <g id="Page-1" stroke="none" stroke-width="1" fill="none" fill-rule="evenodd">
        <g id="water_drop_outline_28">
            <rect x="0" y="0" width="28" height="28"></rect>
            <path d="M13.9832724,2.5 C17.3540248,2.5 24,10.3838532 24,16 C24,21.5228452 19.5228498,25.9999856 14,25.9999856 C8.47715025,25.9999856 4,21.5228452 4,16 C4,10.3820725 10.6167166,2.5 13.9832724,2.5 Z M13.9832724,4.5 C13.3307954,4.5 11.2452302,6.0654833 9.50127035,8.14295139 C7.33800062,10.7199166 6,13.5598397 6,16 C6,20.4182748 9.58171875,23.9999856 14,23.9999856 C18.4182812,23.9999856 22,20.4182748 22,16 C22,13.5613089 20.6562373,10.7221625 18.4833296,8.1445295 C16.7321153,6.06713437 14.6373599,4.5 13.9832724,4.5 Z" id="↳-Icon-Color" fill="currentColor" fill-rule="nonzero"></path>
        </g>
    </g>
</svg>
