<svg fill="none" height="28" viewBox="0 0 28 28" width="28" xmlns="http://www.w3.org/2000/svg"><path clip-rule="evenodd" d="m24 14c0 5.5228-4.4772 10-10 10-5.52285 0-10-4.4772-10-10 0-5.52285 4.47715-10 10-10 5.5228 0 10 4.47715 10 10zm2 0c0 6.6274-5.3726 12-12 12-6.62742 0-12-5.3726-12-12 0-6.62742 5.37258-12 12-12 6.6274 0 12 5.37258 12 12zm-9.9072 5.6249c-.6516.2425-1.3567.3751-2.0928.3751s-1.4412-.1326-2.0928-.3751l.4588-.7947c.2762-.4783.1123-1.0899-.366-1.3661-.4783-.2761-1.0899-.1122-1.366.3661l-.4581.7934c-1.08575-.899-1.84958-2.173-2.09294-3.6236h.91704c.55228 0 1-.4477 1-1s-.44772-1-1-1h-.91704c.24335-1.4505 1.00718-2.7246 2.09284-3.62361l.4582.79351c.2761.4783.8877.6422 1.366.366.4783-.2761.6422-.88771.366-1.366l-.4589-.7948c.6517-.24254 1.3568-.3751 2.0929-.3751s1.4412.13256 2.0929.3751l-.4589.7948c-.2762.47829-.1123 1.0899.366 1.366.4783.2762 1.0899.1123 1.366-.366l.4582-.79351c1.0857.89901 1.8495 2.17311 2.0928 3.62361h-.917c-.5523 0-1 .4477-1 1s.4477 1 1 1h.917c-.2433 1.4506-1.0072 2.7246-2.0929 3.6236l-.4581-.7934c-.2761-.4783-.8877-.6422-1.366-.3661-.4783.2762-.6422.8878-.366 1.3661zm-10.0928-5.6249c0 4.4183 3.58172 8 8 8 4.4183 0 8-3.5817 8-8 0-4.41828-3.5817-8-8-8-4.41828 0-8 3.58172-8 8zm9.5 0c0 .8284-.6716 1.5-1.5 1.5s-1.5-.6716-1.5-1.5.6716-1.5 1.5-1.5 1.5.6716 1.5 1.5z" fill="currentColor" fill-rule="evenodd"/></svg>
