<svg xmlns="http://www.w3.org/2000/svg" width="28" height="28" fill="currentColor" viewBox="0 0 28 28"><path fill-rule="evenodd" d="M12.108 3.384c.458-.245.947-.384 1.713-.384.553 0 .961.031 1.291.099.361.074.594.185.78.285.525.28.943.699 1.224 1.224.245.458.384.947.384 1.713 0 .553-.031.961-.099 1.291a2.7 2.7 0 0 1-.285.78c-.28.525-.699.943-1.224 1.224-.458.245-.947.384-1.713.384-.553 0-.961-.031-1.291-.099a2.696 2.696 0 0 1-.78-.285 2.957 2.957 0 0 1-1.224-1.224c-.245-.458-.384-.947-.384-1.713 0-.553.031-.961.099-1.291.074-.361.185-.594.285-.78.28-.525.699-.943 1.224-1.224Zm1.203 1.662a1 1 0 0 0-.26.101.958.958 0 0 0-.404.404.727.727 0 0 0-.089.239c-.029.14-.058.397-.058.889 0 .253.022.408.046.51a1 1 0 0 0 .101.26c.095.176.228.31.404.404a.726.726 0 0 0 .239.089c.14.029.397.058.889.058.253 0 .408-.022.51-.046a1 1 0 0 0 .26-.101.958.958 0 0 0 .404-.404.727.727 0 0 0 .089-.239c.029-.14.058-.397.058-.889a2.23 2.23 0 0 0-.046-.51 1.013 1.013 0 0 0-.101-.26.958.958 0 0 0-.404-.404.726.726 0 0 0-.239-.089c-.14-.029-.397-.058-.889-.058a2.23 2.23 0 0 0-.51.046Zm-1.203 13.338c.458-.245.947-.384 1.713-.384.553 0 .961.031 1.291.099.361.074.594.185.78.285.525.28.943.699 1.224 1.224.245.458.384.947.384 1.713 0 .553-.031.961-.099 1.291a2.698 2.698 0 0 1-.285.78c-.28.525-.699.944-1.224 1.224-.458.245-.947.384-1.713.384-.553 0-.961-.031-1.291-.099a2.698 2.698 0 0 1-.78-.285 2.958 2.958 0 0 1-1.224-1.224c-.245-.458-.384-.947-.384-1.713 0-.553.031-.961.099-1.291.074-.361.185-.594.285-.78.28-.525.699-.944 1.224-1.224Zm1.203 1.662a1 1 0 0 0-.26.101.958.958 0 0 0-.404.404.728.728 0 0 0-.089.239c-.029.14-.058.397-.058.889 0 .253.022.408.046.51a1 1 0 0 0 .101.26c.095.176.228.31.404.404a.726.726 0 0 0 .239.089c.14.029.397.058.889.058.253 0 .408-.022.51-.046a1 1 0 0 0 .26-.101.957.957 0 0 0 .404-.404.728.728 0 0 0 .089-.239c.029-.14.058-.397.058-.889a2.23 2.23 0 0 0-.046-.51 1.012 1.012 0 0 0-.101-.26.958.958 0 0 0-.404-.404.728.728 0 0 0-.239-.089c-.14-.029-.397-.058-.889-.058a2.23 2.23 0 0 0-.51.046Zm6.297-9.163c.458-.244.947-.383 1.713-.383.553 0 .961.031 1.291.099.361.074.594.185.78.284.525.282.943.7 1.224 1.225.245.458.384.947.384 1.713 0 .553-.031.961-.099 1.291a2.698 2.698 0 0 1-.285.78c-.28.525-.699.944-1.224 1.224-.458.245-.947.384-1.713.384-.553 0-.961-.031-1.291-.099a2.698 2.698 0 0 1-.78-.285 2.958 2.958 0 0 1-1.224-1.224c-.245-.458-.384-.947-.384-1.713 0-.553.031-.961.099-1.291.074-.361.185-.594.285-.78.28-.525.699-.944 1.224-1.225Zm1.203 1.663a1 1 0 0 0-.26.101.958.958 0 0 0-.404.404.728.728 0 0 0-.089.239c-.029.14-.058.397-.058.889 0 .253.022.408.046.51a1 1 0 0 0 .101.26.96.96 0 0 0 .404.404.726.726 0 0 0 .239.089c.14.029.397.058.889.058.253 0 .408-.022.51-.046a1 1 0 0 0 .26-.101.957.957 0 0 0 .404-.404.728.728 0 0 0 .089-.239c.029-.14.058-.397.058-.889a2.23 2.23 0 0 0-.046-.51 1.012 1.012 0 0 0-.101-.26.958.958 0 0 0-.404-.404.728.728 0 0 0-.239-.089c-.14-.029-.397-.058-.889-.058a2.23 2.23 0 0 0-.51.046ZM4.608 10.883c.458-.244.947-.383 1.713-.383.553 0 .961.031 1.291.099a2.967 2.967 0 0 1 2.004 1.509c.245.458.384.947.384 1.713 0 .553-.031.961-.099 1.291a2.696 2.696 0 0 1-.285.78c-.28.525-.699.944-1.224 1.224-.458.245-.947.384-1.713.384-.553 0-.961-.031-1.291-.099a2.699 2.699 0 0 1-.78-.285 2.958 2.958 0 0 1-1.224-1.224C3.139 15.434 3 14.945 3 14.179c0-.553.031-.961.099-1.291.074-.361.185-.594.285-.78.28-.525.699-.944 1.224-1.225Zm1.203 1.663a1 1 0 0 0-.26.101.958.958 0 0 0-.404.404.726.726 0 0 0-.089.239c-.029.14-.058.397-.058.889 0 .253.022.408.046.51a1 1 0 0 0 .101.26.96.96 0 0 0 .404.404.725.725 0 0 0 .239.089c.14.029.397.058.889.058.253 0 .408-.022.51-.046a1 1 0 0 0 .26-.101.958.958 0 0 0 .404-.404.726.726 0 0 0 .089-.239c.029-.14.058-.397.058-.889a2.23 2.23 0 0 0-.046-.51 1.013 1.013 0 0 0-.101-.26.958.958 0 0 0-.404-.404.727.727 0 0 0-.239-.089c-.14-.029-.397-.058-.889-.058a2.23 2.23 0 0 0-.51.046Zm14.847-6.541h.184c.297 0 .484.046.646.133a.906.906 0 0 1 .378.378c.088.163.134.35.134.647v.184c0 .297-.046.483-.134.646a.908.908 0 0 1-.378.378c-.162.087-.349.134-.646.134h-.184c-.297 0-.484-.047-.646-.134a.908.908 0 0 1-.378-.378c-.088-.163-.134-.35-.134-.646v-.184c0-.297.046-.484.134-.647a.908.908 0 0 1 .378-.378c.162-.087.349-.133.646-.133Zm-13.5 0h.184c.297 0 .483.046.646.133a.906.906 0 0 1 .378.378c.088.163.134.35.134.647v.184c0 .297-.046.483-.134.646a.909.909 0 0 1-.378.378c-.163.087-.349.134-.646.134h-.184c-.297 0-.483-.047-.646-.134a.909.909 0 0 1-.378-.378C6.046 7.83 6 7.643 6 7.347v-.184c0-.297.046-.484.134-.647a.909.909 0 0 1 .378-.378c.163-.087.349-.133.646-.133Zm0 13.493h.184c.297 0 .483.046.646.133a.912.912 0 0 1 .378.378c.088.163.134.35.134.647v.184c0 .297-.046.483-.134.646a.909.909 0 0 1-.378.378c-.163.087-.349.134-.646.134h-.184c-.297 0-.483-.047-.646-.134a.909.909 0 0 1-.378-.378c-.088-.163-.134-.35-.134-.646v-.184c0-.297.046-.483.134-.646a.908.908 0 0 1 .378-.379c.163-.087.349-.133.646-.133Zm13.5 0h.184c.297 0 .484.046.646.133a.912.912 0 0 1 .378.378c.088.163.134.35.134.647v.184c0 .297-.046.483-.134.646a.908.908 0 0 1-.378.378c-.162.087-.349.134-.646.134h-.184c-.297 0-.484-.047-.646-.134a.908.908 0 0 1-.378-.378c-.088-.163-.134-.35-.134-.646v-.184c0-.297.046-.483.134-.646a.908.908 0 0 1 .378-.379c.162-.087.349-.133.646-.133ZM13.853 12h.294c.475 0 .774.074 1.034.214.261.139.466.344.605.604.14.261.214.56.214 1.035v.294c0 .475-.074.774-.214 1.034-.14.261-.344.466-.604.605-.261.14-.56.214-1.035.214h-.294c-.475 0-.774-.074-1.034-.214a1.455 1.455 0 0 1-.605-.605c-.14-.26-.214-.559-.214-1.034v-.294c0-.476.074-.774.214-1.035.14-.26.344-.465.604-.604.261-.14.56-.214 1.035-.214Z" clip-rule="evenodd"/></svg>
