<svg fill="none" height="28" viewBox="0 0 28 28" width="28" xmlns="http://www.w3.org/2000/svg"><path clip-rule="evenodd" d="m11.6 6h4.8c1.7132 0 2.8777.00156 3.7779.0751.8769.07164 1.3253.20149 1.6381.36087.7526.3835 1.3645.99542 1.748 1.74807.1594.3128.2893.7612.3609 1.63804.0735.90022.0751 2.06472.0751 3.77792v.8c0 1.7132-.0016 2.8777-.0751 3.7779-.0716.8769-.2015 1.3253-.3609 1.6381-.3835.7526-.9954 1.3645-1.748 1.748-.3128.1594-.7612.2893-1.6381.3609-.9002.0735-2.0647.0751-3.7779.0751h-4.8c-1.71316 0-2.87775-.0016-3.77792-.0751-.87684-.0716-1.32524-.2015-1.63804-.3609-.75265-.3835-1.36457-.9954-1.74807-1.748-.15938-.3128-.28923-.7612-.36087-1.6381-.07354-.9002-.0751-2.0647-.0751-3.7779v-.8c0-1.7132.00156-2.8777.0751-3.77792.07164-.87684.20149-1.32524.36087-1.63804.3835-.75265.99542-1.36457 1.74807-1.74807.3128-.15938.7612-.28923 1.63804-.36087.90017-.07354 2.06476-.0751 3.77792-.0751zm-9.6 7.6c0-3.3603 0-5.04047.65396-6.32394.57524-1.12898 1.49312-2.04686 2.6221-2.6221 1.28347-.65396 2.96363-.65396 6.32394-.65396h4.8c3.3603 0 5.0405 0 6.3239.65396 1.129.57524 2.0469 1.49312 2.6221 2.6221.654 1.28347.654 2.96364.654 6.32394v.8c0 3.3603 0 5.0405-.654 6.3239-.5752 1.129-1.4931 2.0469-2.6221 2.6221-1.2834.654-2.9636.654-6.3239.654h-4.8c-3.36031 0-5.04047 0-6.32394-.654-1.12898-.5752-2.04686-1.4931-2.6221-2.6221-.65396-1.2834-.65396-2.9636-.65396-6.3239zm6.5-4.35c0-.69036-.55964-1.25-1.25-1.25s-1.25.55964-1.25 1.25.55964 1.25 1.25 1.25 1.25-.55964 1.25-1.25zm3.5 0c0-.69036-.5596-1.25-1.25-1.25s-1.25.55964-1.25 1.25.5596 1.25 1.25 1.25 1.25-.55964 1.25-1.25zm2.25-1.25c.6904 0 1.25.55964 1.25 1.25s-.5596 1.25-1.25 1.25-1.25-.55964-1.25-1.25.5596-1.25 1.25-1.25zm3.919 4.2567c.4105.3695.4438 1.0018.0743 1.4123l-4.5 5c-.3596.3995-.9706.4433-1.3835.0992l-2.99998-2.5c-.42428-.3535-.48161-.9841-.12804-1.4084.35356-.4243.98412-.4816 1.40842-.128l2.2605 1.8837 3.856-4.2845c.3695-.4105 1.0018-.4438 1.4123-.0743z" fill="currentColor" fill-rule="evenodd"/>
</svg>