<svg xmlns="http://www.w3.org/2000/svg" width="28" height="28" fill="currentColor" viewBox="0 0 28 28"><path fill-rule="evenodd" d="M6.342 3h-.087c-.393-.001-.815-.002-1.241.166a2.567 2.567 0 0 0-.956.69c-.292.349-.406.693-.51 1.01l-.018.055A10.804 10.804 0 0 0 3 8.332c0 5.593 4.42 10.135 10 10.624V23H8a1 1 0 1 0 0 2h12a1 1 0 1 0 0-2h-5v-4.044c5.58-.489 10-5.031 10-10.624 0-1.179-.17-2.328-.53-3.411l-.018-.055c-.105-.317-.218-.661-.51-1.01a2.567 2.567 0 0 0-.956-.69c-.426-.168-.848-.167-1.24-.166H6.341ZM5.75 5.026a.377.377 0 0 1 .104-.017C5.954 5 6.088 5 6.343 5h15.315c.254 0 .388 0 .49.009a.376.376 0 0 1 .103.017l.022.01a.702.702 0 0 1 .135.103.257.257 0 0 1 .043.072c.028.062.056.145.121.34.286.86.428 1.794.428 2.781 0 .224-.009.446-.026.666H5.026A8.433 8.433 0 0 1 5 8.332c0-.987.142-1.92.428-2.781a4.29 4.29 0 0 1 .12-.34.258.258 0 0 1 .044-.072l.017-.017a.7.7 0 0 1 .118-.085l.022-.011Zm-.314 5.972C6.599 14.466 9.974 17 14 17s7.401-2.534 8.565-6.002H5.435Z" clip-rule="evenodd"/></svg>