<?xml version="1.0" encoding="UTF-8"?>
<svg width="28px" height="28px" viewBox="0 0 28 28" version="1.1" xmlns="http://www.w3.org/2000/svg" xmlns:xlink="http://www.w3.org/1999/xlink">
    <!-- Generator: Sketch 63.1 (92452) - https://sketch.com -->
    <title>write_square_outline_28</title>
    <desc>Created with Sketch.</desc>
    <g id="Page-1" stroke="none" stroke-width="1" fill="none" fill-rule="evenodd">
        <g id="write_square_outline_28" fill-rule="nonzero">
            <rect x="0" y="0" width="28" height="28"></rect>
            <path d="M10.0742744,3.00171053 L18.0017105,3.002 L18.0044636,5.0025828 L10.1220315,5.00120185 C8.45090598,5.01573101 7.75074822,5.16390895 7.0294846,5.54964496 C6.38893826,5.89221289 5.89221289,6.38893826 5.54964496,7.0294846 C5.14247918,7.79081842 5,8.52863614 5,10.409713 L5,17.590287 C5,19.4713639 5.14247918,20.2091816 5.54964496,20.9705154 C5.89221289,21.6110617 6.38893826,22.1077871 7.0294846,22.450355 C7.71067802,22.8146613 8.37304553,22.9670716 9.85233093,22.9951213 L10.409713,23 L17.590287,23 L18.1476691,22.9951213 C19.6269545,22.9670716 20.289322,22.8146613 20.9705154,22.450355 C21.6110617,22.1077871 22.1077871,21.6110617 22.450355,20.9705154 C22.8146613,20.289322 22.9670716,19.6269545 22.9951213,18.1476691 L23,17.590287 L22.9957105,10 L24.9973916,9.99880825 L25,17.590287 C25,19.7732933 24.7972872,20.8230261 24.2139814,21.9137131 C23.6850139,22.9027964 22.9027964,23.6850139 21.9137131,24.2139814 C20.8230261,24.7972872 19.7732933,25 17.590287,25 L10.409713,25 C8.22670673,25 7.1769739,24.7972872 6.08628688,24.2139814 C5.09720359,23.6850139 4.31498609,22.9027964 3.78601856,21.9137131 C3.23341307,20.8804307 3.02239246,19.8839049 3.00171053,17.9257256 L3.00171053,10.0742744 C3.02239246,8.11609509 3.23341307,7.11956932 3.78601856,6.08628688 C4.31498609,5.09720359 5.09720359,4.31498609 6.08628688,3.78601856 C7.11956932,3.23341307 8.11609509,3.02239246 10.0742744,3.00171053 Z M23.1781744,4.82182539 C23.6077511,5.25140211 23.6077511,5.94788359 23.1781744,6.37746031 L14.2876876,15.2679471 C13.6210599,15.9345748 12.8288635,16.4624007 11.9569282,16.8208891 L11.5225926,16.9994624 C11.3182735,17.0834664 11.0845415,16.9859317 11.0005375,16.7816126 C10.9604741,16.6841681 10.9604741,16.5748519 11.0005375,16.4774074 L11.1791107,16.0430718 C11.5375989,15.1711366 12.0654247,14.3789401 12.7320524,13.7123124 L21.6225395,4.82182539 C22.0521162,4.39224867 22.7485977,4.39224867 23.1781744,4.82182539 Z M24,9 C24.5128358,9 24.9355072,9.38604019 24.9932723,9.88337887 L25,10 L23,10 C23,9.44771525 23.4477153,9 24,9 Z M18,3 C18.5522847,3 19,3.44771525 19,4 C19,4.51283584 18.6139598,4.93550716 18.1166211,4.99327227 L18,5 L18,3 Z M24.8,2 C25.4627417,2 26,2.5372583 26,3.2 C26,3.8627417 25.4627417,4.4 24.8,4.4 C24.1372583,4.4 23.6,3.8627417 23.6,3.2 C23.6,2.5372583 24.1372583,2 24.8,2 Z" id="↳-Icon-Color" fill="currentColor"></path>
        </g>
    </g>
</svg>
