<svg fill="none" height="28" viewBox="0 0 28 28" width="28" xmlns="http://www.w3.org/2000/svg"><path clip-rule="evenodd" d="m5.23105 9.99482c-.66099.70818-1.23105 1.94088-1.23105 4.00518s.57006 3.2969 1.23106 4.0052c.66497.7124 1.51393.9948 2.26894.9948s1.60397-.2824 2.26894-.9948c.66096-.7083 1.23106-1.9409 1.23106-4.0052s-.5701-3.297-1.23105-4.00518c-.66497-.71247-1.51393-.99482-2.26895-.99482s-1.60398.28235-2.26895.99482zm-1.4621-1.36464c1.08503-1.16253 2.48607-1.63018 3.73105-1.63018s2.646.46765 3.7311 1.63018c1.089 1.16678 1.7689 2.93412 1.7689 5.36982s-.6799 4.203-1.7689 5.3698c-1.0851 1.1625-2.48611 1.6302-3.7311 1.6302s-2.64603-.4677-3.73106-1.6302c-1.089-1.1668-1.76894-2.9341-1.76894-5.3698s.67994-4.20304 1.76895-5.36982zm13.23105-.63018c0-.55228.4477-1 1-1h3.5c2.4853 0 4.5 2.01472 4.5 4.5 0 2.4853-2.0147 4.5-4.5 4.5h-2.5v1h2c.5523 0 1 .4477 1 1s-.4477 1-1 1h-2v1c0 .5523-.4477 1-1 1s-1-.4477-1-1v-1h-1c-.5523 0-1-.4477-1-1s.4477-1 1-1h1v-1h-1c-.5523 0-1-.4477-1-1s.4477-1 1-1h1zm2 6h2.5c1.3807 0 2.5-1.1193 2.5-2.5s-1.1193-2.5-2.5-2.5h-2.5z" fill="currentColor" fill-rule="evenodd"/></svg>
