<svg xmlns="http://www.w3.org/2000/svg" width="56" height="56" fill="currentColor" viewBox="0 0 56 56"><path d="M21.263 38C22.289 38 23 37.299 23 36.247V19.942c0-1.2-.752-1.942-1.997-1.942-.739 0-1.286.121-2.161.728l-4.035 2.629c-.588.404-.807.809-.807 1.348 0 .769.533 1.295 1.272 1.295.383 0 .657-.094.998-.337l3.187-2.022h.069v14.606c0 1.052.711 1.753 1.737 1.753Z M33.493 38c4.4 0 7.507-2.292 7.507-5.583 0-2.478-1.787-4.384-4.36-4.917v-.08c2.213-.613 3.64-2.238 3.64-4.277C40.28 20.16 37.473 18 33.5 18c-3.973 0-6.807 2.172-6.807 5.13 0 2.065 1.44 3.704 3.654 4.29v.08C27.773 28.02 26 29.925 26 32.417 26 35.695 29.08 38 33.493 38Zm.007-11.679c-2 0-3.5-1.166-3.5-2.845 0-1.692 1.5-2.884 3.5-2.884 1.987 0 3.5 1.179 3.5 2.884 0 1.68-1.513 2.845-3.5 2.845Zm0 9.079c-2.307 0-3.94-1.37-3.94-3.236S31.193 29 33.5 29s3.927 1.285 3.927 3.164c0 1.865-1.62 3.236-3.927 3.236Z M28 4a23.93 23.93 0 0 0-16.97 7.03A23.93 23.93 0 0 0 4 28a23.93 23.93 0 0 0 7.03 16.97A23.93 23.93 0 0 0 28 52a23.93 23.93 0 0 0 16.97-7.03A23.93 23.93 0 0 0 52 28a23.93 23.93 0 0 0-7.03-16.97A23.93 23.93 0 0 0 28 4Zm-14.85 9.15A20.93 20.93 0 0 1 28 7a20.93 20.93 0 0 1 14.85 6.15A20.93 20.93 0 0 1 49 28a20.93 20.93 0 0 1-6.15 14.85A20.93 20.93 0 0 1 28 49a20.93 20.93 0 0 1-14.85-6.15A20.93 20.93 0 0 1 7 28a20.93 20.93 0 0 1 6.15-14.85Z" clip-rule="evenodd"/></svg>
