<svg xmlns="http://www.w3.org/2000/svg" width="56" height="56" fill="currentColor" viewBox="0 0 56 56"><path fill-rule="evenodd" d="M33.624 37C37.981 37 41 34.946 41 31.914c0-2.328-1.754-3.964-4.177-4.382v-.083c2.089-.466 3.63-1.872 3.63-3.746 0-2.734-2.83-4.703-6.829-4.703-3.986 0-6.743 1.883-6.743 4.605 0 1.91 1.468 3.378 3.568 3.844v.083c-2.423.418-4.189 2.042-4.189 4.37 0 3.044 2.996 5.098 7.364 5.098Zm0-10.793c-1.408 0-2.41-.883-2.41-2.149 0-1.277 1.014-2.148 2.41-2.148 1.408 0 2.435.871 2.435 2.148 0 1.266-1.014 2.15-2.435 2.15Zm0 7.784c-1.635 0-2.769-1.014-2.769-2.411 0-1.373 1.134-2.364 2.77-2.364 1.646 0 2.78.99 2.78 2.364 0 1.397-1.134 2.411-2.78 2.411Z M23.983 34.84c0 1.312-.872 2.16-2.173 2.16-1.3 0-2.184-.848-2.184-2.16V23.137h-.084l-1.988 1.492c-.394.274-.656.37-1.074.37-.847 0-1.48-.633-1.48-1.516 0-.633.25-1.122.871-1.552l3.259-2.22c.919-.622 1.499-.717 2.358-.717 1.576 0 2.495.943 2.495 2.447V34.84Z M11.03 11.03A23.93 23.93 0 0 1 28 4a23.93 23.93 0 0 1 16.97 7.03A23.93 23.93 0 0 1 52 28a23.93 23.93 0 0 1-7.03 16.97A23.93 23.93 0 0 1 28 52a23.93 23.93 0 0 1-16.97-7.03A23.93 23.93 0 0 1 4 28a23.93 23.93 0 0 1 7.03-16.97ZM28 7a20.93 20.93 0 0 0-14.85 6.15A20.93 20.93 0 0 0 7 28a20.93 20.93 0 0 0 6.15 14.85A20.93 20.93 0 0 0 28 49a20.93 20.93 0 0 0 14.85-6.15A20.93 20.93 0 0 0 49 28a20.93 20.93 0 0 0-6.15-14.85A20.93 20.93 0 0 0 28 7Z" clip-rule="evenodd"/></svg>
