<svg fill="none" height="56" viewBox="0 0 56 56" width="56" xmlns="http://www.w3.org/2000/svg"><g fill="currentColor"><path d="m19.0358 4h6.9284c1.6257-.00001 2.9369-.00003 3.9987.08673 1.0933.08932 2.0536.27804 2.942.73072 1.4112.71905 2.5586 1.86641 3.2776 3.27762.4527.88844.6414 1.84872.7308 2.94203.0867 1.0618.0867 2.373.0867 3.9987v15.4642c0 .8284-.6716 1.5-1.5 1.5s-1.5-.6716-1.5-1.5v-15.4c0-1.7049-.0012-2.8934-.0768-3.8186-.0741-.9078-.2124-1.42932-.4137-1.82436-.4314-.84672-1.1198-1.53514-1.9665-1.96657-.3951-.20128-.9166-.33954-1.8244-.4137-.9252-.0756-2.1137-.07677-3.8186-.07677h-6.8c-1.7049 0-2.8934.00117-3.8186.07677-.9078.07416-1.4293.21242-1.8244.4137-.8467.43143-1.5351 1.11985-1.9665 1.96657-.2013.39504-.3396.91656-.4137 1.82436-.0756.9252-.0768 2.1137-.0768 3.8186v25.8c0 1.7049.0012 2.8934.0768 3.8186.0741.9078.2124 1.4293.4137 1.8244.4314.8467 1.1198 1.5351 1.9665 1.9665.3951.2013.9166.3396 1.8244.4137.9252.0756 2.1137.0768 3.8186.0768h10.4c.8284 0 1.5.6716 1.5 1.5s-.6716 1.5-1.5 1.5h-10.4642c-1.6257 0-2.9369 0-3.9987-.0867-1.0933-.0894-2.0536-.2781-2.942-.7308-1.4112-.719-2.5586-1.8664-3.27765-3.2776-.45268-.8884-.6414-1.8487-.73072-2.942-.08675-1.0618-.08674-2.373-.08673-3.9987v-25.9285c-.00001-1.6256-.00002-2.9368.08673-3.9986.08932-1.09331.27804-2.05359.73072-2.94203.71905-1.41121 1.86645-2.55857 3.27765-3.27762.8884-.45268 1.8487-.6414 2.942-.73072 1.0618-.08676 2.373-.08674 3.9987-.08673z"/><path clip-rule="evenodd" d="m28.2316 32.0782c.2329-.1482.542-.0795.6902.1534l2.3681 3.7213c1.4468-.6134 3.0387-.9528 4.7101-.9528s3.2633.3394 4.7101.9528l2.3681-3.7213c.1482-.2329.4573-.3016.6902-.1534.233.1483.3017.4573.1534.6903l-2.3013 3.6164c3.5393 1.865 6.0336 5.4366 6.3795 9.6152h-24c.3459-4.1786 2.8402-7.7502 6.3795-9.6152l-2.3013-3.6164c-.1483-.233-.0796-.542.1534-.6903zm13.7684 8.9219c0 .5523-.4477 1-1 1s-1-.4477-1-1 .4477-1 1-1 1 .4477 1 1zm-11 1c.5523 0 1-.4477 1-1s-.4477-1-1-1-1 .4477-1 1 .4477 1 1 1z" fill-rule="evenodd"/></g></svg>
