<?xml version="1.0" encoding="UTF-8"?>
<svg width="56px" height="56px" viewBox="0 0 56 56" version="1.1" xmlns="http://www.w3.org/2000/svg" xmlns:xlink="http://www.w3.org/1999/xlink">
    <!-- Generator: Sketch 61.2 (89653) - https://sketch.com -->
    <title>Icons 56/archive_outline_56</title>
    <desc>Created with Sketch.</desc>
    <g id="Icons-56/archive_outline_56" stroke="none" stroke-width="1" fill="none" fill-rule="evenodd">
        <g id="archive_outline_56">
            <polygon points="0 0 56 0 56 56 0 56"></polygon>
            <path d="M44.5,18 C45.3284271,18 46,18.6715729 46,19.5 L46,40.5 C46,44.6421356 42.6421356,48 38.5,48 L17.5,48 C13.3578644,48 10,44.6421356 10,40.5 L10,19.5 C10,18.6715729 10.6715729,18 11.5,18 L44.5,18 Z M43,21 L13,21 L13,40.5 C13,42.9852814 15.0147186,45 17.5,45 L38.5,45 C40.9852814,45 43,42.9852814 43,40.5 L43,21 Z M21.5,30 L34.5,30 C35.3284271,30 36,29.3284271 36,28.5 C36,27.6715729 35.3284271,27 34.5,27 L21.5,27 C20.6715729,27 20,27.6715729 20,28.5 C20,29.3284271 20.6715729,30 21.5,30 Z M12.5,8 L43.5,8 C47.0898509,8 50,10.9101491 50,14.5 L50,18.5 C50,19.8807119 48.8807119,21 47.5,21 L8.5,21 C7.11928813,21 6,19.8807119 6,18.5 L6,14.5 C6,10.9101491 8.91014913,8 12.5,8 Z M47,18 L47,14.5 C47,12.5670034 45.4329966,11 43.5,11 L12.5,11 C10.5670034,11 9,12.5670034 9,14.5 L9,18 L47,18 Z" id="↳-Icon-Color" fill="currentColor" fill-rule="nonzero"></path>
        </g>
    </g>
</svg>
