<svg xmlns="http://www.w3.org/2000/svg" width="56" height="56" fill="currentColor" viewBox="0 0 56 56"><path d="M29.06 18.438a1.5 1.5 0 0 0-2.125.006l-7.46 7.519a1.5 1.5 0 0 0 2.13 2.113l4.895-4.934V36.5a1.5 1.5 0 0 0 3 0V23.116l4.979 4.97a1.5 1.5 0 0 0 2.12-2.123l-7.54-7.525Z"/><path fill-rule="evenodd" d="M4 27.2c0-6.72 0-10.08 1.308-12.648a12 12 0 0 1 5.244-5.244C13.12 8 16.48 8 23.2 8h9.6c6.72 0 10.08 0 12.648 1.308a12 12 0 0 1 5.244 5.244C52 17.12 52 20.48 52 27.2v1.6c0 6.72 0 10.08-1.308 12.648a12 12 0 0 1-5.244 5.244C42.88 48 39.52 48 32.8 48h-9.6c-6.72 0-10.08 0-12.648-1.308a12 12 0 0 1-5.244-5.244C4 38.88 4 35.52 4 28.8v-1.6ZM23.2 11h9.6c3.41 0 5.787.002 7.637.153 1.816.149 2.859.425 3.649.828a9 9 0 0 1 3.933 3.933c.403.79.68 1.833.828 3.649.15 1.85.153 4.227.153 7.637v1.6c0 3.41-.002 5.787-.154 7.637-.148 1.816-.424 2.859-.827 3.649a9 9 0 0 1-3.933 3.933c-.79.403-1.833.68-3.649.828-1.85.15-4.227.153-7.637.153h-9.6c-3.41 0-5.787-.002-7.637-.154-1.816-.148-2.859-.424-3.649-.827a9 9 0 0 1-3.933-3.933c-.403-.79-.68-1.833-.827-3.649C7.002 34.587 7 32.21 7 28.8v-1.6c0-3.41.002-5.787.154-7.637.148-1.816.424-2.859.827-3.649a9 9 0 0 1 3.933-3.933c.79-.403 1.833-.68 3.649-.828 1.85-.15 4.227-.153 7.637-.153Z" clip-rule="evenodd"/></svg>
