<svg width="56" height="56" viewBox="0 0 56 56" fill="none" xmlns="http://www.w3.org/2000/svg">
<path fill-rule="evenodd" clip-rule="evenodd" d="M14.746 12.5978C16.2822 10.9691 18.386 10.0794 20.6833 10.0051L42.9978 10C47.9546 10 51.9978 14.0431 51.9978 19V37C51.9978 41.9569 47.9546 46 42.9978 46H20.9978C18.4733 46 16.1587 45.0255 14.54 43.1755L5.67645 34.3213C2.17356 30.8184 2.10619 25.3168 5.49124 21.7203L14.746 12.5978ZM48.9978 19C48.9978 15.7 46.2978 13 42.9978 13H20.9978C19.3478 13 17.8478 13.6 16.7978 14.8L7.79777 23.65C5.39777 26.05 5.39777 29.8 7.79777 32.2L16.7978 41.2C17.8478 42.4 19.3478 43 20.9978 43H42.9978C46.2978 43 48.9978 40.3 48.9978 37V19ZM22.4393 19.4393C22.9885 18.8902 23.8576 18.8558 24.4467 19.3364L24.5607 19.4393L31 25.8787L37.4393 19.4393C38.0251 18.8536 38.9749 18.8536 39.5607 19.4393C40.1098 19.9885 40.1442 20.8576 39.6636 21.4467L39.5607 21.5607L33.1213 28L39.5607 34.4393C40.1464 35.0251 40.1464 35.9749 39.5607 36.5607C39.0115 37.1098 38.1424 37.1442 37.5533 36.6636L37.4393 36.5607L31 30.1213L24.5607 36.5607C23.9749 37.1464 23.0251 37.1464 22.4393 36.5607C21.8902 36.0115 21.8558 35.1424 22.3364 34.5533L22.4393 34.4393L28.8787 28L22.4393 21.5607C21.8536 20.9749 21.8536 20.0251 22.4393 19.4393Z" fill="currentColor"/>
</svg>
