<svg fill="none" height="56" width="56" viewBox="0 0 56 56" xmlns="http://www.w3.org/2000/svg"><path clip-rule="evenodd" d="M25.433 5h5.134c2.744 0 4.894 0 6.623.141 1.76.144 3.215.442 4.53 1.112a11.5 11.5 0 0 1 5.027 5.026c.67 1.316.968 2.77 1.112 4.53.141 1.73.141 3.88.141 6.624v20.321c0 1.783 0 3.224-.101 4.336-.1 1.102-.317 2.18-.984 3.02A5 5 0 0 1 43.024 52c-1.072.005-2.054-.491-2.982-1.094-.936-.607-2.07-1.499-3.47-2.6l-6.433-5.06c-1.206-.948-1.476-1.124-1.718-1.19a1.6 1.6 0 0 0-.843 0c-.24.066-.51.242-1.717 1.19l-6.433 5.06c-1.4 1.101-2.534 1.993-3.47 2.6-.928.603-1.91 1.1-2.982 1.094a5 5 0 0 1-3.891-1.89c-.667-.84-.884-1.918-.984-3.02C8 45.978 8 44.536 8 42.754V22.433c0-2.743 0-4.894.141-6.623.144-1.76.442-3.215 1.112-4.53a11.5 11.5 0 0 1 5.026-5.027c1.316-.67 2.77-.968 4.53-1.112C20.54 5 22.69 5 25.434 5zm-6.379 3.131c-1.575.129-2.59.376-3.413.795a8.5 8.5 0 0 0-3.715 3.715c-.419.823-.666 1.838-.795 3.413-.13 1.592-.131 3.621-.131 6.446v20.177c0 1.878.002 3.182.089 4.141.09.986.252 1.309.345 1.426A2 2 0 0 0 12.99 49c.149 0 .503-.071 1.333-.61.808-.524 1.835-1.33 3.31-2.49l6.372-5.012.19-.15c.904-.712 1.684-1.328 2.592-1.576a4.601 4.601 0 0 1 2.424 0c.908.248 1.688.864 2.592 1.576l.19.15 6.371 5.011c1.476 1.161 2.503 1.967 3.31 2.491.83.539 1.185.61 1.334.61a2 2 0 0 0 1.557-.756c.093-.117.256-.44.345-1.426.088-.959.089-2.263.089-4.141V22.5c0-2.825-.001-4.854-.131-6.446-.129-1.575-.376-2.59-.795-3.413a8.5 8.5 0 0 0-3.715-3.715c-.823-.419-1.838-.666-3.413-.795C35.354 8.001 33.325 8 30.5 8h-5c-2.825 0-4.854.001-6.446.131z" fill="currentColor" fill-rule="evenodd"/></svg>
