<svg width="56" height="56" viewBox="0 0 56 56" fill="none" xmlns="http://www.w3.org/2000/svg"><path d="M25.504 39.082c0 4.476-4.248 7.993-7.504 9.034-3.377 1.08-8.95-.35-10.327-1.444-1.17-.928 4.107-1.363 4.38-7.592.158-3.632 2.775-6.58 6.325-6.58 3.55 0 7.126 2.947 7.126 6.582zM31.5 31.5l16.367-19.503a2.746 2.746 0 0 0-4.096-3.654L25.5 26.5" stroke="currentColor" stroke-width="3" stroke-linecap="round" stroke-linejoin="round"/><path fill-rule="evenodd" clip-rule="evenodd" d="M18.38 34c-2.603 0-4.697 2.164-4.828 5.145-.158 3.63-1.816 5.664-3.27 6.872-.062.052-.123.102-.184.15.648.215 1.424.416 2.256.566 1.895.343 3.846.385 5.19-.045 1.378-.441 3.037-1.438 4.337-2.826 1.296-1.384 2.126-3.033 2.126-4.78 0-1.308-.645-2.568-1.73-3.534C21.189 34.578 19.755 34 18.38 34zm-7.825 5.015C10.742 34.733 13.883 31 18.38 31c2.177 0 4.306.895 5.893 2.308 1.591 1.416 2.735 3.447 2.735 5.774 0 2.73-1.294 5.076-2.937 6.83-1.639 1.75-3.733 3.032-5.612 3.633-2.033.65-4.557.517-6.639.14a19.302 19.302 0 0 1-2.926-.76c-.812-.285-1.61-.646-2.153-1.078a1.976 1.976 0 0 1-.578-.72 1.732 1.732 0 0 1-.089-1.212c.102-.347.289-.596.418-.743.134-.153.28-.278.395-.371.177-.143.403-.3.598-.436l.127-.088c.246-.173.497-.355.752-.566.96-.799 2.077-2.097 2.19-4.696zM42.709 7.29a4.247 4.247 0 0 1 6.32 5.663l-.006.008-16.37 19.503a1.5 1.5 0 0 1-2.298-1.928L46.72 11.037a1.246 1.246 0 0 0-1.885-1.63L26.56 27.564a1.5 1.5 0 0 1-2.115-2.128L42.709 7.29z" fill="currentColor"/></svg>
