<svg fill="none" height="56" viewBox="0 0 56 56" width="56" xmlns="http://www.w3.org/2000/svg"><g clip-rule="evenodd" fill="currentColor" fill-rule="evenodd"><path d="m29.3416 5.82918c-.254-.50818-.7734-.82918-1.3416-.82918s-1.0876.321-1.3416.82918c-.5262 1.0524-1.029 1.80225-1.5093 2.51866-.1603.23906-.318.47441-.4734.71602-.6081.94604-1.1757 1.99684-1.1757 3.43614 0 1.407.5426 2.5725 1.441 3.3711.8707.7741 1.9894 1.1289 3.059 1.1289s2.1883-.3548 3.059-1.1289c.8984-.7986 1.441-1.9641 1.441-3.3711 0-1.4393-.5676-2.4901-1.1757-3.43614-.1554-.24161-.3131-.47694-.4734-.716-.4803-.71641-.9831-1.46627-1.5093-2.51868zm-2.8416 6.67082c0-.5607.1824-1.0099.6993-1.8139.112-.1742.2406-.3658.3816-.5759.1301-.19374.2711-.40372.4191-.62994.1477.22583.2882.435.4181.62844l.0005.0009c.1412.2102.27.4021.3821.5765.5169.804.6993 1.2532.6993 1.8139 0 .593-.2074.9275-.434 1.1289-.2543.2259-.6356.3711-1.066.3711s-.8117-.1452-1.066-.3711c-.2266-.2014-.434-.5359-.434-1.1289z"/><path d="m29.5 21c0-.8284-.6716-1.5-1.5-1.5s-1.5.6716-1.5 1.5v3h-9v-1c0-.8284-.6716-1.5-1.5-1.5s-1.5.6716-1.5 1.5v1h-.5c-3.6377 0-5.75818 1.2859-6.90352 2.8718-.5453.755-.81705 1.5082-.95325 2.074-.06839.2841-.104.5265-.12261.7069-.00934.0905-.01448.1661-.0173.2246-.00141.0293-.00224.0543-.00271.0749l-.00049.0273-.00009.0112-.00002.0048-.00001.0023c0 .0011 0 .0022 1.5.0022h-1.5c0 1.0764.12748 3.0828.9489 4.875.41875.9136 1.04485 1.831 1.98256 2.5208.59745.4395 1.28744.7612 2.06854.9406v.6278c0 1.6257 0 2.9369.0867 3.9987.0894 1.0933.2781 2.0536.7308 2.942.719 1.4112 1.8664 2.5586 3.2776 3.2776.8884.4527 1.8487.6414 2.942.7308 1.0618.0867 2.373.0867 3.9987.0867h11.9284c1.6257 0 2.9369 0 3.9987-.0867 1.0933-.0894 2.0536-.2781 2.942-.7308 1.4112-.719 2.5586-1.8664 3.2776-3.2776.4527-.8884.6414-1.8487.7308-2.942.0867-1.0618.0867-2.373.0867-3.9987v-.6278c.7811-.1794 1.4711-.5011 2.0685-.9406.9378-.6898 1.5639-1.6072 1.9826-2.5208.8214-1.7922.9489-3.7986.9489-4.875h-1.5c1.5 0 1.5-.0011 1.5-.0022v-.0071l-.0001-.0112-.0005-.0273c-.0005-.0206-.0013-.0456-.0027-.0749-.0028-.0585-.008-.1341-.0173-.2246-.0186-.1804-.0542-.4228-.1226-.7069-.1362-.5658-.408-1.319-.9533-2.074-1.1453-1.5859-3.2658-2.8718-6.9035-2.8718h-.5v-1c0-.8284-.6716-1.5-1.5-1.5s-1.5.6716-1.5 1.5v1h-9zm-15.5 17.9v-.5071c1.7836-.2683 2.9855-1.0071 3.8107-1.8322.0889-.089.1723-.1778.2503-.2653.08.0875.1645.1764.2533.2653.9508.9507 2.4368 1.9393 4.6857 1.9393s3.7349-.9886 4.6857-1.9393c.1117-.1117.2166-.2236.3143-.3326.0977.109.2026.2209.3143.3326.9508.9507 2.4368 1.9393 4.6857 1.9393s3.7349-.9886 4.6857-1.9393c.0888-.0889.1733-.1778.2533-.2653.078.0875.1614.1763.2503.2653.8251.8251 2.0271 1.5639 3.8107 1.8322v.5071c0 1.7049-.0012 2.8934-.0768 3.8186-.0741.9078-.2124 1.4293-.4137 1.8244-.4314.8467-1.1198 1.5351-1.9665 1.9665-.3951.2013-.9166.3396-1.8244.4137-.9252.0756-2.1137.0768-3.8186.0768h-11.8c-1.7049 0-2.8934-.0012-3.8186-.0768-.9078-.0741-1.4293-.2124-1.8244-.4137-.8467-.4314-1.5351-1.1198-1.9665-1.9665-.2013-.3951-.3396-.9166-.4137-1.8244-.0756-.9252-.0768-2.1137-.0768-3.8186zm0-11.9c-2.8623 0-3.9918.9641-4.47148 1.6282-.2672.37-.4017.7418-.46862 1.0198-.03317.1378-.04835.2469-.05513.3126-.00296.0287-.00425.0484-.00475.0578.00162.925.12616 2.4068.67608 3.6066.26875.5864.6114 1.044 1.0331 1.3542.4043.2975.9629.5208 1.7908.5208 1.8617 0 2.7273-.5986 3.1893-1.0607.2601-.2601.4394-.524.6251-.8026l.0179-.0268c.0762-.1147.2014-.303.3335-.4572l.0066-.0077c.091-.1071.5484-.645 1.3276-.645.4076 0 .7156.151.8872.2568.1747.1077.3062.2293.3883.3114.159.159.3086.3512.4085.4796l.0649.0836c.2122.2737.4186.5398.6868.8079.5492.5493 1.3132 1.0607 2.5643 1.0607s2.0151-.5114 2.5643-1.0607c.2682-.2681.4746-.5343.6868-.808l.0648-.0834c.0999-.1285.2495-.3206.4085-.4796.0821-.0821.2135-.2037.3882-.3115.1716-.1057.4797-.2568.8873-.2568s.7157.1511.8873.2568c.1747.1077.3061.2294.3882.3115.159.159.3086.3511.4085.4795l.0648.0835c.2123.2737.4187.5399.6869.808.5493.5493 1.3133 1.0607 2.5644 1.0607s2.0151-.5114 2.5643-1.0607c.2681-.268.4745-.5342.6867-.8078l.065-.0837c.0999-.1284.2495-.3206.4085-.4796.0821-.0821.2136-.2037.3883-.3114.1716-.1058.4796-.2568.8872-.2568.7792 0 1.2366.5379 1.3276.645l.0066.0077c.1321.1542.2573.3425.3335.4572l.0179.0268c.1857.2786.365.5425.6251.8026.462.4621 1.3276 1.0607 3.1893 1.0607.8279 0 1.3865-.2233 1.7908-.5208.4217-.3102.7643-.7678 1.0331-1.3542.5499-1.1998.6745-2.6817.6761-3.6066-.0005-.0094-.0018-.0291-.0048-.0578-.0068-.0657-.0219-.1748-.0551-.3126-.0669-.278-.2014-.6498-.4686-1.0198-.4797-.6641-1.6092-1.6282-4.4715-1.6282z"/><path d="m16 7c.5682 0 1.0876.321 1.3416.82918.5262 1.05241 1.029 1.80227 1.5093 2.51872.1603.239.318.4744.4734.716.6081.946 1.1757 1.9968 1.1757 3.4361 0 1.407-.5426 2.5725-1.441 3.3711-.8707.7741-1.9894 1.1289-3.059 1.1289s-2.1883-.3548-3.059-1.1289c-.8984-.7986-1.441-1.9641-1.441-3.3711 0-1.4393.5676-2.4901 1.1757-3.4361.1553-.2416.3131-.4769.4734-.716.4803-.71638.9831-1.46631 1.5093-2.51872.254-.50818.7734-.82918 1.3416-.82918zm-.8007 5.6861c-.5169.804-.6993 1.2532-.6993 1.8139 0 .593.2074.9275.434 1.1289.2543.2259.6356.3711 1.066.3711s.8117-.1452 1.066-.3711c.2266-.2014.434-.5359.434-1.1289 0-.5607-.1824-1.0099-.6993-1.8139-.1121-.1743-.2407-.366-.3819-.5762-.1301-.1938-.2708-.4034-.4188-.6296-.148.2262-.2886.4357-.4187.6295-.1411.2101-.27.402-.382.5763z"/><path d="m41.3416 7.82918c-.254-.50818-.7734-.82918-1.3416-.82918s-1.0876.321-1.3416.82918c-.5262 1.05241-1.029 1.80227-1.5093 2.51872-.1603.239-.318.4744-.4734.716-.6081.946-1.1757 1.9968-1.1757 3.4361 0 1.407.5426 2.5725 1.441 3.3711.8707.7741 1.9894 1.1289 3.059 1.1289s2.1883-.3548 3.059-1.1289c.8984-.7986 1.441-1.9641 1.441-3.3711 0-1.4393-.5676-2.4901-1.1757-3.4361-.1554-.2416-.3131-.477-.4734-.716-.4803-.71645-.9831-1.46631-1.5093-2.51872zm-2.8416 6.67082c0-.5607.1824-1.0099.6993-1.8139.112-.1743.2406-.3659.3817-.576.1301-.1937.2711-.4037.419-.6298.1479.2261.2886.4356.4186.6293.1411.2101.2701.4022.3821.5765.5169.804.6993 1.2532.6993 1.8139 0 .593-.2074.9275-.434 1.1289-.2543.2259-.6356.3711-1.066.3711s-.8117-.1452-1.066-.3711c-.2266-.2014-.434-.5359-.434-1.1289z"/></g></svg>
