<svg width="56" height="56" viewBox="0 0 56 56" fill="none" xmlns="http://www.w3.org/2000/svg">
<path fill-rule="evenodd" clip-rule="evenodd" d="M29.3416 5.82918C29.0876 5.321 28.5682 5 28 5C27.4318 5 26.9124 5.321 26.6584 5.82918C26.1322 6.88158 25.6294 7.63143 25.1491 8.34784C24.9888 8.5869 24.8311 8.82225 24.6757 9.06386C24.0676 10.0099 23.5 11.0607 23.5 12.5C23.5 13.907 24.0426 15.0725 24.941 15.8711C25.8117 16.6452 26.9304 17 28 17C29.0696 17 30.1883 16.6452 31.059 15.8711C31.9574 15.0725 32.5 13.907 32.5 12.5C32.5 11.0607 31.9324 10.0099 31.3243 9.06386C31.1689 8.82225 31.0112 8.58692 30.8509 8.34786C30.3706 7.63145 29.8678 6.88159 29.3416 5.82918ZM26.5 12.5C26.5 11.9393 26.6824 11.4901 27.1993 10.6861C27.3113 10.5119 27.4399 10.3203 27.5809 10.1102C27.711 9.91646 27.852 9.70648 28 9.48026C28.1477 9.70609 28.2882 9.91526 28.4181 10.1087L28.4186 10.1096C28.5598 10.3198 28.6886 10.5117 28.8007 10.6861C29.3176 11.4901 29.5 11.9393 29.5 12.5C29.5 13.093 29.2926 13.4275 29.066 13.6289C28.8117 13.8548 28.4304 14 28 14C27.5696 14 27.1883 13.8548 26.934 13.6289C26.7074 13.4275 26.5 13.093 26.5 12.5Z" fill="currentColor"/>
<path fill-rule="evenodd" clip-rule="evenodd" d="M29.5 21C29.5 20.1716 28.8284 19.5 28 19.5C27.1716 19.5 26.5 20.1716 26.5 21V24H17.5V23C17.5 22.1716 16.8284 21.5 16 21.5C15.1716 21.5 14.5 22.1716 14.5 23V24H14C10.3623 24 8.24182 25.2859 7.09648 26.8718C6.55118 27.6268 6.27943 28.38 6.14323 28.9458C6.07484 29.2299 6.03923 29.4723 6.02062 29.6527C6.01128 29.7432 6.00614 29.8188 6.00332 29.8773C6.00191 29.9066 6.00108 29.9316 6.00061 29.9522L6.00012 29.9795L6.00003 29.9907L6.00001 29.9955L6 29.9978C6 29.9989 6 30 7.5 30H6C6 31.0764 6.12748 33.0828 6.9489 34.875C7.36765 35.7886 7.99375 36.706 8.93146 37.3958C9.52891 37.8353 10.2189 38.157 11 38.3364V38.9642C11 40.5899 11 41.9011 11.0867 42.9629C11.1761 44.0562 11.3648 45.0165 11.8175 45.9049C12.5365 47.3161 13.6839 48.4635 15.0951 49.1825C15.9835 49.6352 16.9438 49.8239 18.0371 49.9133C19.0989 50 20.4101 50 22.0358 50H33.9642C35.5899 50 36.9011 50 37.9629 49.9133C39.0562 49.8239 40.0165 49.6352 40.9049 49.1825C42.3161 48.4635 43.4635 47.3161 44.1825 45.9049C44.6352 45.0165 44.8239 44.0562 44.9133 42.9629C45 41.9011 45 40.5899 45 38.9642V38.3364C45.7811 38.157 46.4711 37.8353 47.0685 37.3958C48.0063 36.706 48.6324 35.7886 49.0511 34.875C49.8725 33.0828 50 31.0764 50 30H48.5C50 30 50 29.9989 50 29.9978L50 29.9907L49.9999 29.9795L49.9994 29.9522C49.9989 29.9316 49.9981 29.9066 49.9967 29.8773C49.9939 29.8188 49.9887 29.7432 49.9794 29.6527C49.9608 29.4723 49.9252 29.2299 49.8568 28.9458C49.7206 28.38 49.4488 27.6268 48.9035 26.8718C47.7582 25.2859 45.6377 24 42 24H41.5V23C41.5 22.1716 40.8284 21.5 40 21.5C39.1716 21.5 38.5 22.1716 38.5 23V24H29.5V21ZM14 38.9V38.3929C15.7836 38.1246 16.9855 37.3858 17.8107 36.5607C17.8996 36.4717 17.983 36.3829 18.061 36.2954C18.141 36.3829 18.2255 36.4718 18.3143 36.5607C19.2651 37.5114 20.7511 38.5 23 38.5C25.2489 38.5 26.7349 37.5114 27.6857 36.5607C27.7974 36.449 27.9023 36.3371 28 36.2281C28.0977 36.3371 28.2026 36.449 28.3143 36.5607C29.2651 37.5114 30.7511 38.5 33 38.5C35.2489 38.5 36.7349 37.5114 37.6857 36.5607C37.7745 36.4718 37.859 36.3829 37.939 36.2954C38.017 36.3829 38.1004 36.4717 38.1893 36.5607C39.0144 37.3858 40.2164 38.1246 42 38.3929V38.9C42 40.6049 41.9988 41.7934 41.9232 42.7186C41.8491 43.6264 41.7108 44.1479 41.5095 44.543C41.0781 45.3897 40.3897 46.0781 39.543 46.5095C39.1479 46.7108 38.6264 46.8491 37.7186 46.9232C36.7934 46.9988 35.6049 47 33.9 47H22.1C20.3951 47 19.2066 46.9988 18.2814 46.9232C17.3736 46.8491 16.8521 46.7108 16.457 46.5095C15.6103 46.0781 14.9219 45.3897 14.4905 44.543C14.2892 44.1479 14.1509 43.6264 14.0768 42.7186C14.0012 41.7934 14 40.6049 14 38.9ZM14 27C11.1377 27 10.0082 27.9641 9.52852 28.6282C9.26132 28.9982 9.12682 29.37 9.0599 29.648C9.02673 29.7858 9.01155 29.8949 9.00477 29.9606C9.00181 29.9893 9.00052 30.009 9.00002 30.0184C9.00164 30.9434 9.12618 32.4252 9.6761 33.625C9.94485 34.2114 10.2875 34.669 10.7092 34.9792C11.1135 35.2767 11.6721 35.5 12.5 35.5C14.3617 35.5 15.2273 34.9014 15.6893 34.4393C15.9494 34.1792 16.1287 33.9153 16.3144 33.6367L16.3323 33.6099C16.4085 33.4952 16.5337 33.3069 16.6658 33.1527L16.6724 33.145C16.7634 33.0379 17.2208 32.5 18 32.5C18.4076 32.5 18.7156 32.651 18.8872 32.7568C19.0619 32.8645 19.1934 32.9861 19.2755 33.0682C19.4345 33.2272 19.5841 33.4194 19.684 33.5478L19.7489 33.6314C19.9611 33.9051 20.1675 34.1712 20.4357 34.4393C20.9849 34.9886 21.7489 35.5 23 35.5C24.2511 35.5 25.0151 34.9886 25.5643 34.4393C25.8325 34.1712 26.0389 33.905 26.2511 33.6313L26.3159 33.5479C26.4158 33.4194 26.5654 33.2273 26.7244 33.0683C26.8065 32.9862 26.9379 32.8646 27.1126 32.7568C27.2842 32.6511 27.5923 32.5 27.9999 32.5C28.4075 32.5 28.7156 32.6511 28.8872 32.7568C29.0619 32.8645 29.1933 32.9862 29.2754 33.0683C29.4344 33.2273 29.584 33.4194 29.6839 33.5478L29.7487 33.6313C29.961 33.905 30.1674 34.1712 30.4356 34.4393C30.9849 34.9886 31.7489 35.5 33 35.5C34.2511 35.5 35.0151 34.9886 35.5643 34.4393C35.8324 34.1713 36.0388 33.9051 36.251 33.6315L36.316 33.5478C36.4159 33.4194 36.5655 33.2272 36.7245 33.0682C36.8066 32.9861 36.9381 32.8645 37.1128 32.7568C37.2844 32.651 37.5924 32.5 38 32.5C38.7792 32.5 39.2366 33.0379 39.3276 33.145L39.3342 33.1527C39.4663 33.3069 39.5915 33.4952 39.6677 33.6099L39.6856 33.6367C39.8713 33.9153 40.0506 34.1792 40.3107 34.4393C40.7727 34.9014 41.6383 35.5 43.5 35.5C44.3279 35.5 44.8865 35.2767 45.2908 34.9792C45.7125 34.669 46.0551 34.2114 46.3239 33.625C46.8738 32.4252 46.9984 30.9433 47 30.0184C46.9995 30.009 46.9982 29.9893 46.9952 29.9606C46.9884 29.8949 46.9733 29.7858 46.9401 29.648C46.8732 29.37 46.7387 28.9982 46.4715 28.6282C45.9918 27.9641 44.8623 27 42 27H14Z" fill="currentColor"/>
<path fill-rule="evenodd" clip-rule="evenodd" d="M16 7C16.5682 7 17.0876 7.321 17.3416 7.82918C17.8678 8.88159 18.3706 9.63145 18.8509 10.3479C19.0112 10.5869 19.1689 10.8223 19.3243 11.0639C19.9324 12.0099 20.5 13.0607 20.5 14.5C20.5 15.907 19.9574 17.0725 19.059 17.8711C18.1883 18.6452 17.0696 19 16 19C14.9304 19 13.8117 18.6452 12.941 17.8711C12.0426 17.0725 11.5 15.907 11.5 14.5C11.5 13.0607 12.0676 12.0099 12.6757 11.0639C12.831 10.8223 12.9888 10.587 13.1491 10.3479C13.6294 9.63152 14.1322 8.88159 14.6584 7.82918C14.9124 7.321 15.4318 7 16 7ZM15.1993 12.6861C14.6824 13.4901 14.5 13.9393 14.5 14.5C14.5 15.093 14.7074 15.4275 14.934 15.6289C15.1883 15.8548 15.5696 16 16 16C16.4304 16 16.8117 15.8548 17.066 15.6289C17.2926 15.4275 17.5 15.093 17.5 14.5C17.5 13.9393 17.3176 13.4901 16.8007 12.6861C16.6886 12.5118 16.56 12.3201 16.4188 12.1099C16.2887 11.9161 16.148 11.7065 16 11.4803C15.852 11.7065 15.7114 11.916 15.5813 12.1098C15.4402 12.3199 15.3113 12.5118 15.1993 12.6861Z" fill="currentColor"/>
<path fill-rule="evenodd" clip-rule="evenodd" d="M41.3416 7.82918C41.0876 7.321 40.5682 7 40 7C39.4318 7 38.9124 7.321 38.6584 7.82918C38.1322 8.88159 37.6294 9.63145 37.1491 10.3479C36.9888 10.5869 36.8311 10.8223 36.6757 11.0639C36.0676 12.0099 35.5 13.0607 35.5 14.5C35.5 15.907 36.0426 17.0725 36.941 17.8711C37.8117 18.6452 38.9304 19 40 19C41.0696 19 42.1883 18.6452 43.059 17.8711C43.9574 17.0725 44.5 15.907 44.5 14.5C44.5 13.0607 43.9324 12.0099 43.3243 11.0639C43.1689 10.8223 43.0112 10.5869 42.8509 10.3479C42.3706 9.63145 41.8678 8.88159 41.3416 7.82918ZM38.5 14.5C38.5 13.9393 38.6824 13.4901 39.1993 12.6861C39.3113 12.5118 39.4399 12.3202 39.581 12.1101C39.7111 11.9164 39.8521 11.7064 40 11.4803C40.1479 11.7064 40.2886 11.9159 40.4186 12.1096C40.5597 12.3197 40.6887 12.5118 40.8007 12.6861C41.3176 13.4901 41.5 13.9393 41.5 14.5C41.5 15.093 41.2926 15.4275 41.066 15.6289C40.8117 15.8548 40.4304 16 40 16C39.5696 16 39.1883 15.8548 38.934 15.6289C38.7074 15.4275 38.5 15.093 38.5 14.5Z" fill="currentColor"/>
</svg>
