<svg xmlns="http://www.w3.org/2000/svg" width="56" height="56" fill="none" viewBox="0 0 56 56"><path fill="currentColor" d="M36 39c0-.9319 0-1.3978.1522-1.7654.203-.49.5924-.8794 1.0824-1.0824C37.6022 36 38.0681 36 39 36c.9319 0 1.3978 0 1.7654.1522.49.203.8794.5924 1.0824 1.0824C42 37.6022 42 38.0681 42 39c0 .9319 0 1.3978-.1522 1.7654-.203.49-.5924.8794-1.0824 1.0824C40.3978 42 39.9319 42 39 42c-.9319 0-1.3978 0-1.7654-.1522a2.0005 2.0005 0 0 1-1.0824-1.0824C36 40.3978 36 39.9319 36 39Z"/><path fill="currentColor" fill-rule="evenodd" d="M6 25.2c0-6.7206 0-10.0809 1.308-12.6479a12.0004 12.0004 0 0 1 5.2441-5.2442c1.2145-.6188 2.6065-.9448 4.4479-1.1166V3.5c0-.8284.6716-1.5 1.5-1.5s1.5.6716 1.5 1.5v2.535C21.4782 6 23.1886 6 25.2 6h5.6c2.0114 0 3.7218 0 5.2.035V3.5c0-.8284.6716-1.5 1.5-1.5s1.5.6716 1.5 1.5v2.6913c1.8414.1718 3.2334.4978 4.4479 1.1166a12.0006 12.0006 0 0 1 5.2442 5.2442C50 15.1191 50 18.4794 50 25.2v5.6c0 6.7206 0 10.0809-1.3079 12.6479a12.0007 12.0007 0 0 1-5.2442 5.2442C40.8809 50 37.5206 50 30.8 50h-5.6c-6.7206 0-10.0809 0-12.6479-1.3079a12.0006 12.0006 0 0 1-5.2442-5.2442C6 40.8809 6 37.5206 6 30.8v-5.6ZM30.8 9h-5.6c-2.0791 0-3.7741.0009-5.2.0358V12.5c0 .8284-.6716 1.5-1.5 1.5s-1.5-.6716-1.5-1.5V9.2062c-1.4755.157-2.3813.4157-3.0859.7747a8.9996 8.9996 0 0 0-3.9332 3.9332c-.4025.7901-.679 1.8331-.8274 3.6486-.059.7222-.0953 1.5246-.1177 2.4373h37.9284c-.0224-.9127-.0587-1.7151-.1177-2.4373-.1484-1.8155-.4249-2.8585-.8274-3.6486a9 9 0 0 0-3.9332-3.9332c-.7046-.359-1.6104-.6177-3.0859-.7747V12.5c0 .8284-.6716 1.5-1.5 1.5s-1.5-.6716-1.5-1.5V9.0358C34.5741 9.0008 32.8791 9 30.8 9ZM9 25.2v5.6c0 3.4098.0023 5.7868.1535 7.6373.1484 1.8155.4249 2.8585.8274 3.6486a9 9 0 0 0 3.9332 3.9332c.7901.4025 1.8331.679 3.6486.8274C19.4132 46.9977 21.7902 47 25.2 47h5.6c3.4098 0 5.7868-.0023 7.6373-.1535 1.8155-.1484 2.8585-.4249 3.6486-.8274a9.0002 9.0002 0 0 0 3.9332-3.9332c.4025-.7901.679-1.8331.8274-3.6486C46.9977 36.5868 47 34.2098 47 30.8v-5.6c0-.7862-.0001-1.5174-.0022-2.2H9.0022C9.0002 23.6826 9 24.4138 9 25.2Z" clip-rule="evenodd"/></svg>
