<svg fill="none" height="56" viewBox="0 0 56 56" width="56" xmlns="http://www.w3.org/2000/svg"><path clip-rule="evenodd" d="m15 5c0-.82843.6716-1.5 1.5-1.5s1.5.67157 1.5 1.5v1.02209c1.1541-.02209 2.4729-.02209 4-.02209h12c1.5271 0 2.8459 0 4 .02209v-1.02209c0-.82843.6716-1.5 1.5-1.5s1.5.67157 1.5 1.5v1.17564c1.4524.14712 2.5648.41747 3.5399.91429 1.8816.95874 3.4114 2.48854 4.3702 4.37017.8752 1.7177 1.0476 3.8618 1.0816 7.5399h.0083v3 12c0 5.6005 0 8.4008-1.0899 10.5399-.9588 1.8816-2.4886 3.4114-4.3702 4.3702-2.1391 1.0899-4.9394 1.0899-10.5399 1.0899h-12c-5.6005 0-8.4008 0-10.5399-1.0899-1.88163-.9588-3.41143-2.4886-4.37017-4.3702-1.08993-2.1391-1.08993-4.9394-1.08993-10.5399v-12c0-5.6005 0-8.4008 1.08993-10.5399.95874-1.88163 2.48854-3.41143 4.37017-4.37017.9751-.49682 2.0875-.76717 3.5399-.91429zm23 4.0226v.9774c0 .8284.6716 1.5 1.5 1.5s1.5-.6716 1.5-1.5v-.80608c1.0611.12825 1.6963.32365 2.1779.56903 1.3172.67115 2.388 1.74195 3.0591 3.05915.2936.5761.5156 1.3722.6367 2.8542.0748.9148.1053 1.9896.1177 3.3237h-37.98284c.01246-1.3341.04297-2.4089.11772-3.3237.12108-1.482.34311-2.2781.63667-2.8542.67115-1.3172 1.74195-2.388 3.05915-3.05915.4816-.24538 1.1168-.44078 2.1779-.56903v.80608c0 .8284.6716 1.5 1.5 1.5s1.5-.6716 1.5-1.5v-.9774c1.1096-.02188 2.4171-.0226 4-.0226h12c1.5829 0 2.8904.00072 4 .0226zm-29 24.9774v-12h38v12c0 2.8498-.0023 4.8067-.1263 6.3237-.1211 1.482-.3431 2.2781-.6367 2.8542-.6711 1.3172-1.7419 2.388-3.0591 3.0591-.5761.2936-1.3722.5156-2.8542.6367-1.517.124-3.4739.1263-6.3237.1263h-12c-2.8498 0-4.8067-.0023-6.3237-.1263-1.482-.1211-2.2781-.3431-2.8542-.6367-1.3172-.6711-2.388-1.7419-3.05915-3.0591-.29356-.5761-.51559-1.3722-.63667-2.8542-.12395-1.517-.12628-3.4739-.12628-6.3237zm28.1635 3.819c-.1635.3209-.1635.7409-.1635 1.581v.2c0 .8401 0 1.2601.1635 1.581.1438.2822.3733.5117.6555.6555.3209.1635.7409.1635 1.581.1635h.2c.8401 0 1.2601 0 1.581-.1635.2822-.1438.5117-.3733.6555-.6555.1635-.3209.1635-.7409.1635-1.581v-.2c0-.8401 0-1.2601-.1635-1.581-.1438-.2822-.3733-.5117-.6555-.6555-.3209-.1635-.7409-.1635-1.581-.1635h-.2c-.8401 0-1.2601 0-1.581.1635-.2822.1438-.5117.3733-.6555.6555z" fill="currentColor" fill-rule="evenodd"/></svg>
