<svg fill="none" height="56" viewBox="0 0 56 56" width="56" xmlns="http://www.w3.org/2000/svg" xmlns:xlink="http://www.w3.org/1999/xlink"><clipPath id="a"><path d="m0 0h56v56h-56z"/></clipPath><g clip-path="url(#a)" clip-rule="evenodd" fill="currentColor" fill-rule="evenodd"><path d="m19.0795 6.65927c.7098-.56766 1.7106-1.15927 2.9205-1.15927h12c1.2099 0 2.2107.59161 2.9205 1.15927.7233.57852 1.3259 1.28068 1.7391 1.77343.0298.03549.2367.29563.5311.66584.2752.34594.6268.78799.9817 1.23266.1287.1613.4777.417 1.0852.6336.577.2057 1.2183.3147 1.7424.3147h1c2.449 0 4.4915 1.2697 5.8723 3.1446 1.3705 1.8607 2.1277 4.349 2.1277 7.0131h-1.5-1.5c0-2.1219-.6067-3.9625-1.5432-5.2341-.9261-1.2574-2.1336-1.9236-3.4568-1.9236h-1c-.8865 0-1.8679-.1745-2.7497-.4889-.8511-.3034-1.7968-.8039-2.4227-1.588-.3782-.4738-.7408-.9298-1.0137-1.273l-.3326-.4182c-.0477-.0599-.0796-.0998-.0986-.1235-.0181-.0227-.0245-.0308-.0218-.0276-.4088-.48739-.8457-.98348-1.3142-1.35818-.4821-.38556-.8255-.50212-1.0467-.50212h-12c-.2212 0-.5646.11656-1.0467.50212-.4685.3747-.9054.87079-1.3142 1.35818.0027-.0032-.0037.0049-.0219.0276-.0189.0238-.0508.0637-.0985.1235l-.3326.4182c-.2729.3432-.6355.7992-1.0137 1.273-.6259.7841-1.5716 1.2846-2.4227 1.588-.8818.3144-1.8632.4889-2.7497.4889h-1c-1.3232 0-2.53071.6662-3.45679 1.9236-.9365 1.2716-1.54321 3.1122-1.54321 5.2341h-1.5-1.5c0-2.6641.7572-5.1524 2.12765-7.0131 1.38088-1.8749 3.42337-3.1446 5.87235-3.1446h1c.5241 0 1.1654-.109 1.7424-.3147.6075-.2166.9565-.4723 1.0852-.6336.3547-.44442.7061-.88621.9812-1.23207.2947-.37052.5018-.63092.5316-.66643.4132-.49274 1.0158-1.19491 1.7391-1.77343zm-2.0795 39.84073.0001-1.5h20.9997c4.7201 0 6.8805-1.0882 8.5047-2.8247.6583-.7037 1.2346-1.6952 1.7276-2.7908.3509-.7797.5559-1.8398.6628-2.9088.1045-1.0449.1051-1.9808.1051-2.4757v-12.5628h1.5 1.5v12.5697c0 .5079 0 1.5678-.1199 2.7674-.1181 1.181-.3631 2.6209-.9122 3.8412-.5535 1.2299-1.2909 2.5598-2.2724 3.6092-2.3532 2.5157-5.4156 3.7753-10.6955 3.7753h-20.9989zm-9.71795-2.2981c-1.01342-1.0512-1.77639-2.3465-2.3066-3.6287-.37355-.9033-.6049-2.3498-.74709-3.5349-.14815-1.2347-.22836-2.456-.22836-3.0383v-12.5628h1.5 1.5v12.5628c0 .4177.06642 1.5092.20699 2.6809.14653 1.2213.34598 2.2748.54077 2.7459.42955 1.0387 1.01808 2.002 1.72463 2.7244l.04647.0475.04208.0514c.66486.8126 1.78776 1.5135 3.19066 2.0113 1.386.4917 2.9162.7386 4.2485.7386l-.0001 1.5v1.5c-1.6677 0-3.5376-.3031-5.2516-.9114-1.6758-.5946-3.33209-1.5276-4.46635-2.8867z"/><path d="m18 28c0-5.5233 4.4767-10 10-10s10 4.4767 10 10-4.4767 10-10 10-10-4.4767-10-10zm10-7c-3.8665 0-7 3.1335-7 7s3.1335 7 7 7 7-3.1335 7-7-3.1335-7-7-7z"/></g></svg>
