<?xml version="1.0" encoding="UTF-8"?>
<svg width="56px" height="56px" viewBox="0 0 56 56" version="1.1" xmlns="http://www.w3.org/2000/svg" xmlns:xlink="http://www.w3.org/1999/xlink">
    <!-- Generator: Sketch 59 (86127) - https://sketch.com -->
    <title>Icons 56/camera_off_outline_56</title>
    <desc>Created with Sketch.</desc>
    <g id="Icons-56/camera_off_outline_56" stroke="none" stroke-width="1" fill="none" fill-rule="evenodd">
        <g id="camera_off_outline_56">
            <rect x="0" y="0" width="56" height="56"></rect>
            <path d="M6.43933983,6.43933983 C7.02512627,5.85355339 7.97487373,5.85355339 8.56066017,6.43933983 L8.56066017,6.43933983 L50.5606602,48.4393398 C51.1464466,49.0251263 51.1464466,49.9748737 50.5606602,50.5606602 C49.9748737,51.1464466 49.0251263,51.1464466 48.4393398,50.5606602 L48.4393398,50.5606602 L44.878,46.999 L14.7142857,46.997143 C9.9089044,46.997143 6.13926122,43.2445419 6.00377184,38.8508271 L6,38.606092 L6,21.697957 C6,17.6410172 8.04627163,14.5700525 11.327992,13.6111722 L11.455,13.576 L6.43933983,8.56066017 C5.89016504,8.01148539 5.85584162,7.14242298 6.33636956,6.55326224 Z M13.872,15.993 L12.1144157,16.5073856 C10.2735796,17.0745725 9.08412985,18.8164236 9.00428769,21.416147 L9,21.697957 L9,38.606092 C9,41.3920367 11.3724656,43.8761465 14.4852253,43.9928581 L14.7142857,43.997143 L41.878,43.999 L32.8560481,34.9770522 C32.7418057,35.0566879 32.6256198,35.1335153 32.5075944,35.2074576 L32.2208552,35.3793399 C30.9460406,36.1098073 29.4996766,36.5 28,36.5 C23.3055796,36.5 19.5,32.6944204 19.5,28 C19.5,26.3410283 19.9776505,24.7490597 20.861007,23.3849218 C20.9142418,23.3027132 20.9741637,23.2274467 21.0395966,23.159374 L13.872,15.993 Z M33.3283234,9 C34.941104,9 36.0951015,9.48953144 37.1061498,10.592136 L37.2831504,10.7931025 L38.6603719,12.50427 C38.9855919,12.907686 39.8163898,13.2539705 40.66197,13.3013815 L40.8571429,13.306907 L42.504286,13.306907 C46.8303773,13.306907 49.8871858,16.5957924 50.000997,21.4180605 L50.004286,21.697957 L50.004286,40.606092 C50.004286,41.4345191 49.3327131,42.106092 48.504286,42.106092 C47.7245899,42.106092 47.0838373,41.5112039 47.0111526,40.750552 L47.004286,40.606092 L47.004286,21.697957 C47.004286,18.4059835 45.2803547,16.4136513 42.7141823,16.3110715 L42.504286,16.306907 L40.8571429,16.306907 C39.1048287,16.306907 37.3007142,15.5976779 36.3248061,14.387122 L34.9939129,12.7320175 L34.8847188,12.6078479 C34.4905902,12.1781477 34.1541772,12.0254701 33.5114736,12.0030079 L33.3283234,12 L22.3859623,12 C21.5570338,12 21.2021182,12.1632305 20.7203728,12.7320175 C20.1849562,13.364173 19.238452,13.4425954 18.6062965,12.9071788 C17.974141,12.3717621 17.8957187,11.4252579 18.4311353,10.7931025 C19.4264589,9.61794422 20.5461532,9.0631262 22.1060522,9.00510679 L22.3859623,9 L33.3283234,9 Z M23.1967751,25.3179848 C22.7427064,26.1287122 22.5,27.0448721 22.5,28 C22.5,31.0375661 24.9624339,33.5 28,33.5 C28.9728981,33.5 29.9056169,33.2483758 30.7293581,32.7763731 L30.681,32.802 Z M28.3152727,20.8473704 C28.5237897,20.0456148 29.3427774,19.5646997 30.1445331,19.7732167 C30.4171232,19.8441106 30.6855492,19.9284759 30.9489683,20.0259223 C31.4942175,20.2276259 32.0164088,20.4847846 32.5079381,20.7927577 C33.8287578,21.620332 34.9014831,22.7980217 35.6009458,24.1919047 C36.0027764,24.9926693 36.276145,25.854061 36.4083428,26.7487129 C36.5294402,27.5682414 35.9632498,28.3307692 35.1437213,28.4518665 C34.3241928,28.5729638 33.561665,28.0067735 33.4405677,27.187245 C33.3552196,26.6096505 33.1789677,26.0542758 32.9196069,25.537424 C32.4668818,24.6352374 31.7709652,23.8712265 30.9150884,23.3349674 C30.5972817,23.135842 30.2600034,22.9697457 29.9081168,22.8395726 C29.738259,22.7767372 29.5651951,22.722344 29.3894265,22.6766309 C28.5876708,22.4681139 28.1067558,21.6491261 28.3152727,20.8473704 Z" id="↳-Icon-Color" fill="currentColor" fill-rule="nonzero"></path>
        </g>
    </g>
</svg>
