<svg fill="none" height="56" viewBox="0 0 56 56" width="56" xmlns="http://www.w3.org/2000/svg"><g fill="currentColor"><path d="m46.0735 9.92631c-3.9052-3.90524-10.2369-3.90525-14.1421 0l-8.9873 8.98729c-3.7232 3.7232-3.8966 9.6501-.5211 13.5801.5398.6285 1.4868.7003 2.1152.1606.6285-.5398.7003-1.4868.1606-2.1153-2.3612-2.749-2.2388-6.8987.3666-9.504l8.9873-8.9874c2.7337-2.73364 7.1658-2.73364 9.8995 0 2.7327 2.7328 2.7337 7.1628.0028 9.8967l-1.5051 1.4887c-.5889.5826-.5941 1.5324-.0115 2.1213.5825.589 1.5323.5942 2.1213.0116l1.508-1.4917.0058-.0058c3.9053-3.9052 3.9053-10.2368 0-14.14209z"/><path d="m33.6482 23.59c-.5328-.6343-1.479-.7165-2.1133-.1837-.6343.5329-.7166 1.4791-.1837 2.1134 2.3093 2.749 2.1701 6.8584-.4167 9.4451l-8.9873 8.9873c-2.7337 2.7337-7.1658 2.7337-9.8995.0001-2.73186-2.7319-2.73368-7.16-.0055-9.8941l1.5124-1.4799c.5921-.5794.6024-1.5291.023-2.1212s-1.5291-.6024-2.1212-.023l-1.52429 1.4916-.00574.0057c-3.90525 3.9053-3.90524 10.2369 0 14.1422 3.90523 3.9052 10.23693 3.9052 14.14213 0l8.9873-8.9873c3.6968-3.6968 3.8939-9.5661.5924-13.4962z"/></g></svg>
