<svg xmlns="http://www.w3.org/2000/svg" width="56" height="56" fill="none" viewBox="0 0 56 56"><path fill="currentColor" fill-rule="evenodd" d="M28.6359 21.796c.3891-.7314 1.2974-1.0088 2.0288-.6197a10.0519 10.0519 0 0 1 2.3891 1.7705c3.9269 3.9269 3.9269 10.2937 0 14.2207l-9.887 9.887c-3.927 3.9269-10.2938 3.9269-14.2207 0-3.927-3.927-3.927-10.2938 0-14.2207l5.4952-5.4953c.5858-.5858 1.5355-.5858 2.1213 0 .5858.5858.5858 1.5355 0 2.1213l-5.4952 5.4953c-2.7554 2.7553-2.7554 7.2227 0 9.978 2.7553 2.7554 7.2227 2.7554 9.978 0l9.887-9.887c2.7554-2.7553 2.7554-7.2227 0-9.978a7.0551 7.0551 0 0 0-1.6767-1.2433c-.7314-.3891-1.0089-1.2974-.6198-2.0288Z" clip-rule="evenodd"/><path fill="currentColor" fill-rule="evenodd" d="M44.9326 11.067c-2.7554-2.7553-7.2227-2.7553-9.9781 0l-9.887 9.887c-2.7554 2.7554-2.7554 7.2227 0 9.9781a7.0563 7.0563 0 0 0 1.6768 1.2433c.7313.3891 1.0088 1.2974.6197 2.0287-.3891.7314-1.2974 1.0089-2.0287.6198a10.0526 10.0526 0 0 1-2.3891-1.7705c-3.927-3.9269-3.927-10.2938 0-14.2207l9.887-9.887c3.9269-3.927 10.2937-3.927 14.2207 0 3.9269 3.9269 3.9269 10.2938 0 14.2207l-5.4953 5.4952c-.5857.5858-1.5355.5858-2.1213 0-.5858-.5857-.5858-1.5355 0-2.1213l5.4953-5.4952c2.7553-2.7554 2.7553-7.2227 0-9.9781Z" clip-rule="evenodd"/></svg>
