<?xml version="1.0" encoding="UTF-8"?>
<svg width="56px" height="56px" viewBox="0 0 56 56" version="1.1" xmlns="http://www.w3.org/2000/svg" xmlns:xlink="http://www.w3.org/1999/xlink">
    <!-- Generator: Sketch 61.2 (89653) - https://sketch.com -->
    <title>Icons 56/check_circle_outline_56</title>
    <desc>Created with Sketch.</desc>
    <g id="Icons-56/check_circle_outline_56" stroke="none" stroke-width="1" fill="none" fill-rule="evenodd">
        <g id="check_circle_outline_56" fill-rule="nonzero">
            <rect x="0" y="0" width="56" height="56"></rect>
            <path d="M28,4 C41.254834,4 52,14.745166 52,28 C52,41.254834 41.254834,52 28,52 C14.745166,52 4,41.254834 4,28 C4,14.745166 14.745166,4 28,4 Z M28,7 C16.4020203,7 7,16.4020203 7,28 C7,39.5979797 16.4020203,49 28,49 C39.5979797,49 49,39.5979797 49,28 C49,16.4020203 39.5979797,7 28,7 Z M36.9393398,20.9393398 C37.5251263,20.3535534 38.4748737,20.3535534 39.0606602,20.9393398 C39.6464466,21.5251263 39.6464466,22.4748737 39.0606602,23.0606602 L39.0606602,23.0606602 L25.0606602,37.0606602 C24.4748737,37.6464466 23.5251263,37.6464466 22.9393398,37.0606602 L22.9393398,37.0606602 L15.9393398,30.0606602 C15.3535534,29.4748737 15.3535534,28.5251263 15.9393398,27.9393398 C16.5251263,27.3535534 17.4748737,27.3535534 18.0606602,27.9393398 L18.0606602,27.9393398 L24,33.8786797 Z" id="↳-Icon-Color" fill="currentColor"></path>
        </g>
    </g>
</svg>
