<svg xmlns="http://www.w3.org/2000/svg" width="56" height="56" fill="currentColor" viewBox="0 0 56 56"><path fill-rule="evenodd" d="M40 17.085V10.5c0-2.294-1.9-3.923-3.93-4.89C33.926 4.59 31.071 4 28 4s-5.927.59-8.07 1.61C17.9 6.577 16 8.206 16 10.5v10.585l-.145.013c-2.242.206-4.29.734-5.925 1.512C7.9 23.577 6 25.206 6 27.5v14c0 2.294 1.9 3.923 3.93 4.89C12.073 47.41 14.928 48 18 48s5.927-.59 8.07-1.61c.107-.051.213-.104.32-.159.658 1.404 2.064 2.456 3.54 3.159C32.073 50.41 34.928 51 38 51s5.927-.59 8.07-1.61C48.1 48.423 50 46.794 50 44.5v-21c0-2.294-1.9-3.923-3.93-4.89-1.67-.795-3.77-1.328-6.07-1.525Zm-3-2.194c-.303.182-.615.349-.93.499C33.926 16.41 31.071 17 28 17s-5.927-.59-8.07-1.61c-.315-.15-.627-.317-.93-.499V17.5c0 .468.45 1.339 2.22 2.181 1.424.678 3.393 1.165 5.649 1.288.744-1.01 1.88-1.797 3.061-2.359 1.884-.897 4.318-1.461 6.967-1.584L37 17.02v-2.13ZM21.22 8.32C19.45 9.16 19 10.032 19 10.5c0 .468.45 1.339 2.22 2.181C22.878 13.471 25.273 14 28 14c2.727 0 5.122-.53 6.78-1.319C36.55 11.84 37 10.968 37 10.5c0-.468-.45-1.339-2.22-2.181C33.122 7.529 30.727 7 28 7c-2.727 0-5.122.53-6.78 1.319Zm10 17.362C29.45 24.84 29 23.968 29 23.5c0-.468.45-1.339 2.22-2.181C32.878 20.529 35.273 20 38 20c2.727 0 5.122.53 6.78 1.319C46.55 22.16 47 23.032 47 23.5c0 .468-.45 1.339-2.22 2.181C43.122 26.471 40.727 27 38 27c-2.727 0-5.122-.53-6.78-1.319Zm14.85 2.709c.315-.15.627-.317.93-.499V30.5c0 .468-.45 1.339-2.22 2.181C43.122 33.471 40.727 34 38 34c-2.727 0-5.122-.53-6.78-1.319a6.944 6.944 0 0 1-1.22-.724c-.771-.586-1-1.124-1-1.457v-2.609c.303.182.615.349.93.499l.07.033c2.135 1 4.961 1.577 8 1.577 3.072 0 5.927-.59 8.07-1.61Zm0 7c.315-.15.627-.317.93-.499V37.5c0 .468-.45 1.339-2.22 2.181C43.122 40.471 40.727 41 38 41c-2.727 0-5.122-.53-6.78-1.319a6.944 6.944 0 0 1-1.22-.724c-.771-.586-1-1.124-1-1.457v-2.609c.303.182.615.349.93.499l.07.033c2.135 1 4.961 1.577 8 1.577 3.072 0 5.927-.59 8.07-1.61Zm0 7c.315-.15.627-.317.93-.499V44.5c0 .468-.45 1.339-2.22 2.181C43.122 47.471 40.727 48 38 48c-2.727 0-5.122-.53-6.78-1.319C29.45 45.84 29 44.968 29 44.5v-2.609c.294.177.597.34.904.486l.026.013C32.073 43.41 34.928 44 38 44s5.927-.59 8.07-1.61ZM9 27.5c0-.468.45-1.339 2.22-2.181C12.878 24.529 15.273 24 18 24c2.727 0 5.122.53 6.78 1.319.509.242.909.487 1.22.724v2.914a6.944 6.944 0 0 1-1.22.724C23.122 30.471 20.727 31 18 31c-2.727 0-5.122-.53-6.78-1.319C9.45 28.84 9 27.968 9 27.5Zm.93 4.89C12.073 33.41 14.928 34 18 34c3.039 0 5.865-.577 8-1.577v3.534a6.944 6.944 0 0 1-1.22.724C23.122 37.471 20.727 38 18 38c-2.727 0-5.122-.53-6.78-1.319C9.45 35.84 9 34.968 9 34.5v-2.609c.303.182.615.349.93.499Zm0 7C12.073 40.41 14.928 41 18 41c3.039 0 5.865-.577 8-1.577v3.534l-.021.016a6.99 6.99 0 0 1-1.2.708C23.123 44.471 20.728 45 18 45c-2.727 0-5.122-.53-6.78-1.319C9.45 42.84 9 41.968 9 41.5v-2.609c.303.182.615.349.93.499Z" clip-rule="evenodd"/></svg>
