<svg fill="none" height="56" viewBox="0 0 56 56" width="56" xmlns="http://www.w3.org/2000/svg"><path clip-rule="evenodd" d="m7.5 17c0-3.5898 2.9101-6.5 6.5-6.5h30c3.5899 0 6.5 2.9101 6.5 6.5v20c0 3.5898-2.9101 6.5-6.5 6.5h-8.6787c-.8234 0-1.6206.2904-2.2511.82l-9.4622 7.9483c-1.6265 1.3662-4.108.2099-4.108-1.9143v-6.854h-5.5c-3.5899 0-6.5-2.9101-6.5-6.5zm6.5-3.5c-1.933 0-3.5 1.567-3.5 3.5v20c0 1.933 1.567 3.5 3.5 3.5h6c1.3807 0 2.5 1.1193 2.5 2.5v6.281l8.6406-7.2581c1.171-.9836 2.6514-1.5229 4.1807-1.5229h8.6787c1.933 0 3.5-1.567 3.5-3.5v-20c0-1.933-1.567-3.5-3.5-3.5z" fill="currentColor" fill-rule="evenodd"/></svg>
