<svg xmlns="http://www.w3.org/2000/svg" width="56" height="56" fill="none" viewBox="0 0 56 56"><circle cx="28" cy="28" r="28" fill="url(#a)"/><path fill="#fff" d="M28 30a2 2 0 1 0 0-4 2 2 0 0 0 0 4Z"/><path fill="#fff" fill-rule="evenodd" d="M42 28c0 7.732-6.268 14-14 14s-14-6.268-14-14 6.268-14 14-14 14 6.268 14 14Zm-8.35-6.632L25.102 23.7a2 2 0 0 0-1.404 1.404l-2.33 8.546a.8.8 0 0 0 .982.983l8.546-2.331a2 2 0 0 0 1.404-1.404l2.33-8.546a.8.8 0 0 0-.982-.983Z" clip-rule="evenodd"/><defs><linearGradient id="a" x1="-28" x2="28" y1="28" y2="84" gradientUnits="userSpaceOnUse"><stop stop-color="#937FF5"/><stop offset="1" stop-color="#735CE6"/></linearGradient></defs></svg>
