<svg fill="none" height="56" viewBox="0 0 56 56" width="56" xmlns="http://www.w3.org/2000/svg" xmlns:xlink="http://www.w3.org/1999/xlink"><linearGradient id="a" gradientUnits="userSpaceOnUse" x1="-28" x2="28" y1="28" y2="84"><stop offset="0" stop-color="#c48aff"/><stop offset="1" stop-color="#aa65f0"/></linearGradient><circle cx="28" cy="28" fill="url(#a)" r="28"/><g fill="#fff"><path d="m28 30c1.1046 0 2-.8954 2-2s-.8954-2-2-2-2 .8954-2 2 .8954 2 2 2z"/><path clip-rule="evenodd" d="m42 28c0 7.732-6.268 14-14 14s-14-6.268-14-14 6.268-14 14-14 14 6.268 14 14zm-8.3507-6.6316-8.5467 2.3309c-.6832.1863-1.217.7201-1.4033 1.4033l-2.3309 8.5467c-.1629.5972.3851 1.1452.9823.9823l8.5467-2.3309c.6832-.1863 1.217-.7201 1.4033-1.4033l2.3309-8.5467c.1629-.5972-.3851-1.1452-.9823-.9823z" fill-rule="evenodd"/></g></svg>
