<svg xmlns="http://www.w3.org/2000/svg" width="56" height="56" fill="currentColor" viewBox="0 0 56 56"><path fill-rule="evenodd" d="M21.35 6h-.068c-1.334 0-2.435 0-3.34.082-.945.086-1.797.27-2.603.71-1.222.665-2.309 1.856-2.86 3.134-.658 1.527-.507 3.162-.301 5.376l.03.325.035.373c-1.291-.003-2.62.443-3.697 1.21-1.435 1.022-2.55 2.702-2.55 4.876 0 2.58 1.46 4.854 3.446 6.428 1.719 1.361 3.94 2.294 6.296 2.528.36.83.745 1.617 1.157 2.359 1.58 2.844 3.607 5.1 6.1 6.393-.069.783-.197 1.347-.34 1.764a3.41 3.41 0 0 1-.744 1.256c-.11.122-.208.22-.325.338l-.198.202c-.194.2-.43.454-.645.765-.473.684-.743 1.494-.743 2.574V48.5a1.5 1.5 0 0 0 1.5 1.5h13a1.5 1.5 0 0 0 1.5-1.5v-1.8c0-1.08-.27-1.89-.745-2.574a5.949 5.949 0 0 0-.648-.763l-.198-.2a9.696 9.696 0 0 1-.325-.337 3.373 3.373 0 0 1-.741-1.248c-.146-.42-.275-.99-.343-1.785 2.492-1.293 4.52-3.548 6.1-6.392.412-.742.798-1.53 1.158-2.359 2.356-.234 4.576-1.167 6.295-2.529C48.54 26.94 50 24.666 50 22.087c0-2.174-1.115-3.854-2.55-4.876-1.077-.766-2.404-1.212-3.693-1.21l.035-.373.03-.325c.205-2.213.357-3.849-.301-5.375-.55-1.278-1.638-2.47-2.86-3.135-.806-.44-1.658-.623-2.604-.71C37.153 6 36.052 6 34.718 6H21.35ZM43.4 19.028c-.44 3.15-1.077 6.097-1.923 8.746a9.102 9.102 0 0 0 3.214-1.612C46.189 24.975 47 23.492 47 22.086c0-1.06-.521-1.884-1.29-2.432-.763-.542-1.657-.73-2.31-.626Zm-33.114.626c.763-.543 1.66-.731 2.313-.625.439 3.15 1.076 6.097 1.921 8.745a9.103 9.103 0 0 1-3.215-1.612c-1.5-1.187-2.31-2.67-2.31-4.076 0-1.06.521-1.884 1.29-2.432Zm19.81 21.15c-.673.129-1.373.196-2.1.196a11.13 11.13 0 0 1-2.099-.196 9.395 9.395 0 0 1-.408 1.735 6.402 6.402 0 0 1-1.352 2.287c-.158.174-.333.35-.47.489l-.127.13c-.162.166-.26.278-.33.38-.099.143-.21.347-.21.868V47h10v-.3c0-.52-.111-.722-.208-.861a3.07 3.07 0 0 0-.33-.379 23.733 23.733 0 0 0-.06-.06l-.067-.068a15.326 15.326 0 0 1-.47-.487 6.364 6.364 0 0 1-1.356-2.283 9.389 9.389 0 0 1-.413-1.758ZM16.774 9.426c.312-.17.715-.29 1.44-.356C18.968 9 19.932 9 21.35 9h13.3c1.419 0 2.383.001 3.135.07.726.066 1.129.186 1.441.356.633.345 1.255 1.027 1.54 1.688.318.739.285 1.552.038 4.238-.625 6.8-2.09 12.57-4.326 16.592-2.224 4-5.065 6.056-8.482 6.056-3.417 0-6.256-2.056-8.479-6.056-2.233-4.021-3.697-9.791-4.322-16.591-.247-2.687-.28-3.5.039-4.239.285-.661.907-1.343 1.54-1.688Z" clip-rule="evenodd"/></svg>
