<svg fill="none" height="56" width="56" xmlns="http://www.w3.org/2000/svg"><g clip-rule="evenodd" fill="currentColor" fill-rule="evenodd"><path d="m39.5 40a1.5 1.5 0 0 1 1.5 1.5v2a1.5 1.5 0 0 1 -3 0v-2a1.5 1.5 0 0 1 1.5-1.5z"/><path d="m41 41.5a1.5 1.5 0 0 0 -3 0v2a1.5 1.5 0 0 0 3 0z"/><path d="m49.51 36.457a4.5 4.5 0 0 0 -1.967-1.967c-.501-.255-1.02-.368-1.543-.425v-1.565a6.5 6.5 0 1 0 -13 0v1.565c-.523.057-1.042.17-1.543.425a4.5 4.5 0 0 0 -1.966 1.967c-.29.568-.397 1.157-.445 1.75-.046.563-.046 1.246-.046 2.036v4.516c0 .79 0 1.473.046 2.034.048.594.155 1.183.445 1.751a4.5 4.5 0 0 0 1.966 1.967c.568.289 1.157.396 1.75.444.562.046 1.245.046 2.035.046h8.516c.79 0 1.473 0 2.034-.046.594-.048 1.183-.155 1.751-.444a4.5 4.5 0 0 0 1.967-1.967c.289-.568.396-1.157.444-1.75.046-.562.046-1.244.046-2.035v-4.516c0-.79 0-1.473-.046-2.034-.048-.594-.155-1.183-.444-1.751zm-16.058.579c-.408.033-.559.09-.633.127a1.5 1.5 0 0 0 -.656.656c-.037.074-.094.225-.127.633-.036.425-.036.983-.036 1.848v4.4c0 .865.001 1.423.036 1.848.033.408.09.559.127.633a1.5 1.5 0 0 0 .656.656c.074.037.225.094.633.127.425.035.983.036 1.848.036h8.4c.865 0 1.423-.001 1.848-.036.408-.033.559-.09.633-.127a1.5 1.5 0 0 0 .656-.656c.037-.074.094-.225.127-.633.035-.425.036-.983.036-1.848v-4.4c0-.865-.001-1.423-.036-1.848-.033-.408-.09-.559-.127-.633a1.5 1.5 0 0 0 -.656-.656c-.074-.037-.225-.094-.633-.127-.425-.036-.983-.036-1.848-.036h-8.4c-.865 0-1.423.001-1.848.036zm2.548-4.536a3.5 3.5 0 1 1 7 0v1.5h-7z"/><path d="m28 5c-5.8 0-11.117.915-15.041 2.446-1.957.764-3.643 1.71-4.865 2.838-1.224 1.129-2.094 2.552-2.094 4.216v25c0 1.49.7 2.792 1.725 3.856 1.017 1.056 2.422 1.954 4.055 2.7 3.269 1.494 7.728 2.503 12.696 2.83a1.5 1.5 0 1 0 .197-2.994c-4.723-.31-8.801-1.264-11.646-2.564-1.425-.652-2.472-1.359-3.142-2.054-.663-.688-.885-1.283-.885-1.774v-7.54c.867.636 1.886 1.202 3.007 1.699 3.396 1.503 8.023 2.498 13.157 2.767a1.5 1.5 0 0 0 .158-2.996c-4.884-.256-9.129-1.199-12.1-2.514-1.489-.66-2.586-1.381-3.29-2.095-.701-.707-.932-1.32-.932-1.821v-7.54c1.099.806 2.448 1.505 3.959 2.094 3.924 1.531 9.242 2.446 15.041 2.446 5.8 0 11.117-.915 15.041-2.446 1.51-.59 2.86-1.288 3.959-2.095v6.717a1.5 1.5 0 0 0 3 0v-11.676c0-1.664-.87-3.087-2.094-4.216-1.222-1.128-2.908-2.074-4.865-2.838-3.924-1.531-9.242-2.446-15.041-2.446zm-17.872 7.489c-.85.785-1.128 1.465-1.128 2.011 0 .545.277 1.226 1.128 2.012.853.786 2.169 1.564 3.922 2.247 3.496 1.365 8.427 2.241 13.95 2.241s10.454-.876 13.95-2.24c1.753-.684 3.07-1.462 3.922-2.248.85-.786 1.128-1.467 1.128-2.012s-.277-1.226-1.128-2.011c-.853-.787-2.169-1.565-3.922-2.248-3.496-1.365-8.427-2.241-13.95-2.241s-10.454.876-13.95 2.24c-1.753.684-3.07 1.462-3.922 2.248z"/></g></svg>
