<svg fill="none" height="56" viewBox="0 0 56 56" width="56" xmlns="http://www.w3.org/2000/svg"><path clip-rule="evenodd" d="m19 7c-.2329 0-.4625.05422-.6708.15836l-6.9723 3.48614c-.2329.1102-.4405.2821-.5962.5104l-7.4834 10.9756c-.06882.0966-.12496.1998-.16828.3072-.08351.2061-.11823.4241-.10713.6386.01185.2354.07895.4691.20256.6803.0422.0723.09074.1416.14546.2068.01592.0191.03234.0377.04925.056l23.47084 26.4672c.0378.0432.0779.0841.1201.1225.1443.1314.312.2326.4931.2991.1145.042.2344.0701.3571.0833.0527.0056.106.0085.1597.0085.0803 0 .1599-.0064.2381-.019.1307-.021.2575-.0592.3772-.113.1538-.0692.296-.1643.4199-.2824.0329-.0315.0646-.0644.0947-.099l23.4689-26.4649c.023-.0247.0451-.0502.0662-.0763.1182-.1455.2063-.3101.2624-.4842.0218-.0675.0389-.1365.051-.2066.0286-.1647.0298-.3352.001-.5046-.0183-.1092-.049-.2172-.0924-.322-.0022-.0054-.0044-.0107-.0067-.0161-.0018-.0042-.0036-.0084-.0055-.0126-.0405-.0931-.0909-.1827-.151-.2672l-.0001-.0002-7.4843-10.977c-.1559-.2286-.3638-.4006-.5971-.5108l-6.9715-3.48574c-.2083-.10414-.4379-.15836-.6708-.15836zm-12.244 15.3538 9.0587 3.9859 1.5365-9.9871-4.8501-2.425zm36.7429-8.4262 5.7452 8.4263-9.0588 3.9858-1.5365-9.9871zm-7.7858 3.0724h-15.4262l-1.5385 10h18.5032zm-20.359-5 4-2h17.2918l4 2-4 2h-17.2918zm30.4751 15.134-10.7992 12.1777 5.055-9.6503zm-26.3502 2.866h17.042l-8.521 16.2673zm-9.3083-2.8661 5.7443 2.5275 5.055 9.6503z" fill="currentColor" fill-rule="evenodd"/></svg>
