<?xml version="1.0" encoding="UTF-8"?>
<svg width="56px" height="56px" viewBox="0 0 56 56" version="1.1" xmlns="http://www.w3.org/2000/svg" xmlns:xlink="http://www.w3.org/1999/xlink">
    <!-- Generator: Sketch 61.2 (89653) - https://sketch.com -->
    <title>Icons 56/do_not_disturb_outline_56</title>
    <desc>Created with Sketch.</desc>
    <g id="Icons-56/do_not_disturb_outline_56" stroke="none" stroke-width="1" fill="none" fill-rule="evenodd">
        <g id="do_not_disturb_outline_56">
            <rect x="0" y="0" width="56" height="56"></rect>
            <path d="M28,4 C41.254834,4 52,14.745166 52,28 C52,41.254834 41.254834,52 28,52 C14.745166,52 4,41.254834 4,28 C4,14.745166 14.745166,4 28,4 Z M12.1284518,14.2483542 C8.93348877,17.932636 7,22.7405227 7,28 C7,39.5979797 16.4020203,49 28,49 C33.2594773,49 38.067364,47.0665112 41.7516458,43.8715482 Z M28,7 C22.7405227,7 17.932636,8.93348877 14.2483542,12.1284518 L43.8715482,41.7516458 C47.0665112,38.067364 49,33.2594773 49,28 C49,16.4020203 39.5979797,7 28,7 Z" id="↳-Icon-Color" fill="currentColor" fill-rule="nonzero"></path>
        </g>
    </g>
</svg>
