<?xml version="1.0" encoding="UTF-8"?>
<svg width="56px" height="56px" viewBox="0 0 56 56" version="1.1" xmlns="http://www.w3.org/2000/svg" xmlns:xlink="http://www.w3.org/1999/xlink">
    <!-- Generator: Sketch 61.2 (89653) - https://sketch.com -->
    <title>Icons 56/document_outline_56</title>
    <desc>Created with Sketch.</desc>
    <g id="Icons-56/document_outline_56" stroke="none" stroke-width="1" fill="none" fill-rule="evenodd">
        <g id="document_outline_56">
            <rect x="0" y="0" width="56" height="56"></rect>
            <path d="M30.7983907,4.2313115 C31.5546739,4.40561606 32.235186,4.68749344 32.8932109,5.09901446 C33.524524,5.4938302 34.0214957,5.91022583 34.9893841,6.86896603 L44.9319004,16.81058 C46.0341588,17.9128385 46.4798488,18.4333885 46.9009855,19.1067891 C47.3125066,19.764814 47.5943839,20.4453261 47.7686885,21.2016093 C47.9470659,21.9755641 48,22.6587989 48,24.2176278 L48,37.9625166 C48,41.8466385 47.6441521,43.6893703 46.6206226,45.603204 C45.696441,47.3312733 44.3312733,48.696441 42.603204,49.6206226 C40.6893703,50.6441521 38.8466385,51 34.9625166,51 L22.0374834,51 C18.1533615,51 16.3106297,50.6441521 14.396796,49.6206226 C12.6687267,48.696441 11.303559,47.3312733 10.3793774,45.603204 C9.35584793,43.6893703 9,41.8466385 9,37.9625166 L9,15.6319029 C9,13.1404863 9.44541073,11.1431618 10.3793774,9.39679605 C11.303559,7.66872667 12.6687267,6.30355899 14.396796,5.37937737 C16.1431618,4.44541073 18.1404863,4 20.6319029,4 L27.7823722,4 C29.3412011,4 30.0244359,4.05293406 30.7983907,4.2313115 Z M28.0258086,7.00044757 L20.6319029,7 C18.6102714,7 17.0967064,7.33753057 15.8115926,8.02481696 C14.6063287,8.66939918 13.6693992,9.60632867 13.024817,10.8115926 C12.3375306,12.0967064 12,13.6102714 12,15.6319029 L12,37.9625166 C12,41.3937444 12.2654976,42.7686035 13.024817,44.1884074 C13.6693992,45.3936713 14.6063287,46.3306008 15.8115926,46.975183 C17.2313965,47.7345024 18.6062556,48 22.0374834,48 L34.9625166,48 C38.3937444,48 39.7686035,47.7345024 41.1884074,46.975183 C42.3936713,46.3306008 43.3306008,45.3936713 43.975183,44.1884074 C44.7345024,42.7686035 45,41.3937444 45,37.9625166 L45,24.2176278 C45,23.6565797 44.9935721,23.2454668 44.9776569,22.9200592 C44.8276732,22.9727011 44.6670246,23 44.5,23 L44.5,23 L33.5,23 C31.0147186,23 29,20.9852814 29,18.5 L29,18.5 L29,7.5 C29,7.3329754 29.0272989,7.17232681 29.0776783,7.02227262 C28.8035265,7.00882405 28.4652714,7.00215061 28.0258086,7.00044757 Z M31.9998895,8.16747406 L32,18.5 C32,19.3284271 32.6715729,20 33.5,20 L33.5,20 L43.8333777,20.0010846 C43.6012263,19.7355432 43.2849414,19.4062618 42.81058,18.9319004 L33.0680996,9.18941997 C32.5943181,8.71563847 32.2652621,8.39954728 31.9998895,8.16747406 Z" id="↳-Icon-Color" fill="currentColor" fill-rule="nonzero"></path>
        </g>
    </g>
</svg>
