<svg fill="none" height="56" viewBox="0 0 56 56" width="56" xmlns="http://www.w3.org/2000/svg"><path d="m28 4c13.2548 0 24 10.7452 24 24s-10.7452 24-24 24-24-10.7452-24-24 10.7452-24 24-24zm0 3c-11.598 0-21 9.402-21 21s9.402 21 21 21 21-9.402 21-21-9.402-21-21-21zm-2.77 8.7538c.6363-1.5298 2.3923-2.2541 3.9221-1.6178.7318.3044 1.3135.886 1.6179 1.6178l2.172 5.2224c.036.0865.1174.1457.2109.1532l5.6379.4519c1.6516.1324 2.8831 1.5786 2.7507 3.2302-.0634.7901-.4368 1.523-1.0387 2.0386l-4.2956 3.6796c-.0712.061-.1022.1567-.0805.2478l1.3124 5.5017c.3844 1.6116-.6105 3.2298-2.2221 3.6142-.771.1839-1.5834.0552-2.2598-.3579l-4.8269-2.9482c-.08-.0489-.1806-.0489-.2606 0l-4.8269 2.9482c-1.4139.8636-3.2603.4175-4.1239-.9965-.4132-.6764-.5419-1.4888-.358-2.2598l1.3124-5.5017c.0217-.0911-.0093-.1868-.0805-.2478l-4.2955-3.6796c-1.2584-1.0779-1.4046-2.9717-.3268-4.23.5157-.602 1.2486-.9754 2.0387-1.0388l5.6379-.4519c.0935-.0075.1749-.0667.2109-.1532zm2.77 1.1522-2.1721 5.2223c-.468 1.1252-1.5262 1.8941-2.7411 1.9915l-5.6379.4519 4.2955 3.6796c.9256.7928 1.3298 2.0369 1.047 3.2223l-1.3123 5.5017 4.8268-2.9482c1.0401-.6353 2.3481-.6353 3.3882 0l4.8268 2.9482-1.3123-5.5017c-.2828-1.1854.1214-2.4295 1.047-3.2223l4.2955-3.6796-5.6379-.4519c-1.2149-.0974-2.2731-.8663-2.7411-1.9915z" fill="currentColor"/></svg>
