<svg fill="none" height="56" viewBox="0 0 56 56" width="56" xmlns="http://www.w3.org/2000/svg"><g fill="currentColor"><path clip-rule="evenodd" d="m30.5981 8.5 18.1865 31.5c1.1547 2-.2887 4.5-2.5981 4.5h-36.37305c-2.30939 0-3.75277-2.5-2.59807-4.5l18.18652-31.5c1.1547-2 4.0415-2 5.1962 0zm-7.7943-1.5c2.3094-4 8.0829-4 10.3923 0l18.1866 31.5c2.3094 4-.5774 9-5.1962 9h-36.37305c-4.61881 0-7.50555-5-5.19615-9z" fill-rule="evenodd"/><path d="m30 36c0-1.1046-.8954-2-2-2s-2 .8954-2 2 .8954 2 2 2 2-.8954 2-2z"/><path d="m29.5 18c0-.8284-.6716-1.5-1.5-1.5-.7797 0-1.4204.5949-1.4931 1.3555l-.0069.1445v11c0 .8284.6716 1.5 1.5 1.5.7797 0 1.4204-.5949 1.4931-1.3555l.0069-.1445z"/></g></svg>
