<svg fill="none" height="56" viewBox="0 0 56 56" width="56" xmlns="http://www.w3.org/2000/svg"><path clip-rule="evenodd" d="m30.598 8.5 18.1865 31.5c1.1547 2-.2886 4.5-2.598 4.5h-36.37311c-2.3094 0-3.75278-2.5-2.59807-4.5l18.18658-31.5c1.1547-2 4.0414-2 5.1961 0zm-7.7942-1.5c2.3094-4 8.0829-4 10.3923 0l18.1865 31.5c2.3094 4-.5773 9-5.1961 9h-36.37311c-4.61881 0-7.50555-5-5.19615-9zm3.703 22.6445c.0727.7606.7134 1.3555 1.4931 1.3555.8285 0 1.5-.6716 1.5-1.5v-11l-.0068-.1445c-.0727-.7606-.7135-1.3555-1.4932-1.3555-.8284 0-1.5.6716-1.5 1.5v11zm-.5069 6.8555c0 1.1046.8955 2 2 2 1.1046 0 2-.8954 2-2s-.8954-2-2-2c-1.1045 0-2 .8954-2 2z" fill="currentColor" fill-rule="evenodd"/></svg>
