<?xml version="1.0" encoding="UTF-8"?>
<svg width="56px" height="56px" viewBox="0 0 56 56" version="1.1" xmlns="http://www.w3.org/2000/svg" xmlns:xlink="http://www.w3.org/1999/xlink">
    <!-- Generator: Sketch 55.2 (78181) - https://sketchapp.com -->
    <title>event_outline_56</title>
    <desc>Created with Sketch.</desc>
    <g id="Page-1" stroke="none" stroke-width="1" fill="none" fill-rule="evenodd">
        <g id="event_outline_56">
            <rect id="Box" x="0" y="0" width="56" height="56"></rect>
            <path d="M11,19 L45,19 L45,16 C45,13.790861 43.209139,12 41,12 L40,12 L40,12.5 C40,13.3284271 39.3284271,14 38.5,14 C37.6715729,14 37,13.3284271 37,12.5 L37,12 L19,12 L19,12.5 C19,13.3284271 18.3284271,14 17.5,14 C16.6715729,14 16,13.3284271 16,12.5 L16,12 L15,12 C12.790861,12 11,13.790861 11,16 L11,19 Z M11,22 L11,42 C11,44.209139 12.790861,46 15,46 L41,46 C43.209139,46 45,44.209139 45,42 L45,22 L11,22 Z M16,9 L16,8 C16,7.17157288 16.6715729,6.5 17.5,6.5 C18.3284271,6.5 19,7.17157288 19,8 L19,9 L37,9 L37,8 C37,7.17157288 37.6715729,6.5 38.5,6.5 C39.3284271,6.5 40,7.17157288 40,8 L40,9 L41,9 C44.8659932,9 48,12.1340068 48,16 L48,42 C48,45.8659932 44.8659932,49 41,49 L15,49 C11.1340068,49 8,45.8659932 8,42 L8,16 C8,12.1340068 11.1340068,9 15,9 L16,9 Z M17,27 L19,27 C19.5522847,27 20,27.4477153 20,28 L20,30 C20,30.5522847 19.5522847,31 19,31 L17,31 C16.4477153,31 16,30.5522847 16,30 L16,28 C16,27.4477153 16.4477153,27 17,27 Z M17,37 L19,37 C19.5522847,37 20,37.4477153 20,38 L20,40 C20,40.5522847 19.5522847,41 19,41 L17,41 C16.4477153,41 16,40.5522847 16,40 L16,38 C16,37.4477153 16.4477153,37 17,37 Z M27,27 L29,27 C29.5522847,27 30,27.4477153 30,28 L30,30 C30,30.5522847 29.5522847,31 29,31 L27,31 C26.4477153,31 26,30.5522847 26,30 L26,28 C26,27.4477153 26.4477153,27 27,27 Z M27,37 L29,37 C29.5522847,37 30,37.4477153 30,38 L30,40 C30,40.5522847 29.5522847,41 29,41 L27,41 C26.4477153,41 26,40.5522847 26,40 L26,38 C26,37.4477153 26.4477153,37 27,37 Z M37,27 L39,27 C39.5522847,27 40,27.4477153 40,28 L40,30 C40,30.5522847 39.5522847,31 39,31 L37,31 C36.4477153,31 36,30.5522847 36,30 L36,28 C36,27.4477153 36.4477153,27 37,27 Z M37,37 L39,37 C39.5522847,37 40,37.4477153 40,38 L40,40 C40,40.5522847 39.5522847,41 39,41 L37,41 C36.4477153,41 36,40.5522847 36,40 L36,38 C36,37.4477153 36.4477153,37 37,37 Z" id="↳-Icon-Color" fill="currentColor"></path>
        </g>
    </g>
</svg>
