<?xml version="1.0" encoding="UTF-8"?>
<svg width="56px" height="56px" viewBox="0 0 56 56" version="1.1" xmlns="http://www.w3.org/2000/svg" xmlns:xlink="http://www.w3.org/1999/xlink">
    <!-- Generator: Sketch 61.2 (89653) - https://sketch.com -->
    <title>Icons 56/face_id_outline_56</title>
    <desc>Created with Sketch.</desc>
    <g id="Icons-56/face_id_outline_56" stroke="none" stroke-width="1" fill="none" fill-rule="evenodd">
        <g id="face_id_outline_56">
            <rect x="0" y="0" width="56" height="56"></rect>
            <path d="M47.5,36 C48.3284271,36 49,36.6715729 49,37.5 L49,40.4493157 C49,42.9110085 48.7649692,44.1280976 48.0881049,45.393724 C47.4689607,46.551423 46.551423,47.4689607 45.393724,48.0881049 C44.1280976,48.7649692 42.9110085,49 40.4493157,49 L37.5,49 C36.6715729,49 36,48.3284271 36,47.5 C36,46.6715729 36.6715729,46 37.5,46 L40.4493157,46 C42.4581144,46 43.2073308,45.8553196 43.9789274,45.4426653 C44.613821,45.1031205 45.1031205,44.613821 45.4426653,43.9789274 C45.8553196,43.2073308 46,42.4581144 46,40.4493157 L46,37.5 C46,36.6715729 46.6715729,36 47.5,36 Z M8.5,36 C9.32842712,36 10,36.6715729 10,37.5 L10,40.4493157 C10,42.4581144 10.1446804,43.2073308 10.5573347,43.9789274 C10.8968795,44.613821 11.386179,45.1031205 12.0210726,45.4426653 C12.7926692,45.8553196 13.5418856,46 15.5506843,46 L18.5,46 C19.3284271,46 20,46.6715729 20,47.5 C20,48.3284271 19.3284271,49 18.5,49 L15.5506843,49 C13.0889915,49 11.8719024,48.7649692 10.606276,48.0881049 C9.44857702,47.4689607 8.53103934,46.551423 7.91189514,45.393724 C7.23503075,44.1280976 7,42.9110085 7,40.4493157 L7,37.5 C7,36.6715729 7.67157288,36 8.5,36 Z M22.190333,35.2478473 C23.8982537,36.384714 25.9014211,36.9999997 28,36.9999997 C30.0952939,36.9999997 32.0954931,36.3866464 33.8017467,35.2531143 C34.4917799,34.7946978 35.4227823,34.9824602 35.8811988,35.6724934 C36.3396153,36.3625266 36.1518528,37.293529 35.4618196,37.7519455 C33.2673312,39.2098315 30.6905231,39.9999997 28,39.9999997 C25.3052523,39.9999997 22.72462,39.207342 20.5280015,37.7451767 C19.838383,37.2861365 19.6514624,36.3549647 20.1105026,35.6653462 C20.5695428,34.9757278 21.5007146,34.7888072 22.190333,35.2478473 Z M28.5,19 C29.3284271,19 30,19.6715729 30,20.5 L30,28 C30,30.209139 28.209139,32 26,32 C25.1715729,32 24.5,31.3284271 24.5,30.5 C24.5,29.6715729 25.1715729,29 26,29 C26.5128358,29 26.9355072,28.6139598 26.9932723,28.1166211 L27,28 L27,20.5 C27,19.6715729 27.6715729,19 28.5,19 Z M19.5,19 C20.3284271,19 21,19.6715729 21,20.5 L21,23.5 C21,24.3284271 20.3284271,25 19.5,25 C18.6715729,25 18,24.3284271 18,23.5 L18,20.5 C18,19.6715729 18.6715729,19 19.5,19 Z M36.5,19 C37.3284271,19 38,19.6715729 38,20.5 L38,23.5 C38,24.3284271 37.3284271,25 36.5,25 C35.6715729,25 35,24.3284271 35,23.5 L35,20.5 C35,19.6715729 35.6715729,19 36.5,19 Z M40.4493157,7 C42.9110085,7 44.1280976,7.23503075 45.393724,7.91189514 C46.551423,8.53103934 47.4689607,9.44857702 48.0881049,10.606276 C48.7649692,11.8719024 49,13.0889915 49,15.5506843 L49,18.5 C49,19.3284271 48.3284271,20 47.5,20 C46.6715729,20 46,19.3284271 46,18.5 L46,15.5506843 C46,13.5418856 45.8553196,12.7926692 45.4426653,12.0210726 C45.1031205,11.386179 44.613821,10.8968795 43.9789274,10.5573347 C43.2073308,10.1446804 42.4581144,10 40.4493157,10 L37.5,10 C36.6715729,10 36,9.32842712 36,8.5 C36,7.67157288 36.6715729,7 37.5,7 L40.4493157,7 Z M18.5,7 C19.3284271,7 20,7.67157288 20,8.5 C20,9.32842712 19.3284271,10 18.5,10 L15.5506843,10 C13.5418856,10 12.7926692,10.1446804 12.0210726,10.5573347 C11.386179,10.8968795 10.8968795,11.386179 10.5573347,12.0210726 C10.1446804,12.7926692 10,13.5418856 10,15.5506843 L10,18.5 C10,19.3284271 9.32842712,20 8.5,20 C7.67157288,20 7,19.3284271 7,18.5 L7,15.5506843 C7,13.0889915 7.23503075,11.8719024 7.91189514,10.606276 C8.53103934,9.44857702 9.44857702,8.53103934 10.606276,7.91189514 C11.8719024,7.23503075 13.0889915,7 15.5506843,7 L18.5,7 Z" id="↳-Icon-Color" fill="currentColor" fill-rule="nonzero"></path>
        </g>
    </g>
</svg>
