<?xml version="1.0" encoding="UTF-8"?>
<svg width="56px" height="56px" viewBox="0 0 56 56" version="1.1" xmlns="http://www.w3.org/2000/svg" xmlns:xlink="http://www.w3.org/1999/xlink">
    <!-- Generator: Sketch 55.2 (78181) - https://sketchapp.com -->
    <title>favorite_outline_56</title>
    <desc>Created with Sketch.</desc>
    <g id="Page-1" stroke="none" stroke-width="1" fill="none" fill-rule="evenodd">
        <g id="favorite_outline_56">
            <polygon id="Bounds" points="0 0 56 0 56 56 0 56"></polygon>
            <path d="M26.8106694,12.0890474 L22.5863381,21.3115087 C22.5351001,21.4233704 22.4075259,21.5116564 22.2934532,21.5260353 L13.4201339,22.6445209 C11.8735085,22.8394737 11.5493643,23.8533611 12.7204645,24.9060355 L19.3455238,30.861145 C19.4334787,30.9402056 19.4789024,31.091423 19.4528772,31.204199 L17.1398956,41.2271191 C16.7876526,42.7535053 17.5482268,43.2708679 18.8412801,42.3714379 L27.838508,36.1130905 C27.9276473,36.0510864 28.0738681,36.0506323 28.1636432,36.1130905 L37.1591641,42.3714379 C38.4592677,43.2759436 39.213509,42.758539 38.8601044,41.2271191 L36.5471228,31.204199 C36.5191574,31.0830154 36.5691613,30.9378325 36.6544762,30.861145 L43.2795355,24.9060355 C44.4475441,23.8561401 44.1373831,22.8408466 42.5798661,22.6445209 L33.7065468,21.5260353 C33.5889442,21.5112115 33.461297,21.4156096 33.4135544,21.3115087 L29.1839628,12.0890474 C28.5292695,10.6615139 27.4656285,10.659156 26.8106694,12.0890474 Z M42.9550485,19.6680737 C47.0686169,20.1865907 48.3590703,24.3739946 45.2850443,27.137164 L39.8208717,32.0487799 L41.783278,40.5525406 C42.7544542,44.7609708 38.996587,47.3043819 35.4458611,44.8340773 L28.0009285,39.6545024 L20.554364,44.8342297 C17.011729,47.2984377 13.2464426,44.7570847 14.216722,40.5525406 L16.1791283,32.0487799 L10.7149557,27.137164 C7.63629676,24.3698301 8.94439155,20.184951 13.0449515,19.6680737 L20.4679553,18.732401 L24.0831803,10.8397261 C25.8073835,7.07548615 30.1864798,7.07849036 31.9108627,10.8384407 L35.531126,18.7322851 L42.9550485,19.6680737 Z" id="↳-Icon-Color" fill="currentColor"></path>
        </g>
    </g>
</svg>
