<svg fill="none" height="56" viewBox="0 0 56 56" width="56" xmlns="http://www.w3.org/2000/svg"><g clip-rule="evenodd" fill="currentColor" fill-rule="evenodd"><path d="m35.84 7.27511.16.15003 10.05 9.45006.08.07c.4094.3601.7722.77 1.08 1.2199.2922.459.5083.9622.64 1.49.119.5314.1694 1.0758.15 1.62v.9c.0154.7599-.0962 1.517-.33 2.24-.243.7018-.6392 1.3406-1.16 1.87-.5463.5146-1.175.9336-1.86 1.24l-5.28 2.64c-.8416.4214-1.7871.59-2.7223.4853-.9353-.1048-1.8202-.4782-2.5477-1.0752-.694-.5636-1.5398-.9082-2.4301-.9901-.8902-.082-1.7848.1025-2.5699.5301l-1.73 1c-.8184.4498-1.7502.6508-2.6813.5779-.9309-.0729-1.8203-.4163-2.5587-.9879-.8428-.6496-1.8462-1.0578-2.9031-1.1811-1.0567-.1233-2.1273.043-3.0969.4811l-2.92 1.2799-.45.2001c-.3829.1492-.7891.2305-1.1999.24-.695.0161-1.3788-.1763-1.96342-.5524-.5846-.3761-1.04321-.9186-1.31665-1.5576-.1637-.3768-.25855-.7798-.28003-1.1901v-6.14c0-2.4199 0-4.4099.17004-6.0399.08118-1.6257.48218-3.2195 1.17994-4.6901 1.15012-2.25569 2.98422-4.0898 5.24002-5.23995 1.4705-.69775 3.0643-1.09875 4.69-1.17993 1.59-.13 3.58-.13 6-.13h2.36c1.0701-.02881 2.14.06176 3.19.26989.8845.20826 1.7335.54517 2.52 1 .9043.56861 1.7398 1.23963 2.49 2zm7.57 11.23009-9.38-8.80003c-.1258-.12586-.242-.23218-.3517-.33252-.0472-.04321-.0932-.08533-.1383-.12744v7.84999c.0016.1213.0152.2419.0404.3601.0196.0917.0462.1819.0796.2699.1501.2803.3797.51.6599.66.2015.0766.4147.1172.6301.12zm-31.41-6.5901c-1 1.9301-1 4.49-1 9.49l.04 5.5c-.0291.1721-.0291.3479 0 .52.0386.092.1042.1698.1881.2234.084.0536.1823.0803.2819.0767.1727-.0303.3388-.0913.49-.1801l2.9-1.3199c1.4699-.6671 3.0939-.9209 4.6973-.7341 1.6034.1867 3.1255.807 4.4027 1.794.2714.2228.6039.3583.9536.3887.3499.0303.7007-.0459 1.0064-.2186l1.74-1c1.3138-.7281 2.8159-1.0448 4.3118-.9093s2.9167.717 4.0782 1.6693c.2773.224.6125.3645.9666.4053.3542.0406.7126-.0201 1.0334-.1753l5.14-2.58c.4346-.1771.8392-.4199 1.2001-.7201.2058-.2098.3629-.4624.4599-.74.1099-.458.147-.9304.11-1.3999v-.51h-8.25c-.5017 0-.9685 0-1.389-.0144-.2165-.0074-.4207-.0187-.611-.0356-.6077-.0227-1.2039-.1726-1.75-.44-.8656-.4326-1.5674-1.1345-2-2-.2709-.5454-.4242-1.1416-.45-1.75-.05-.53-.05-1.2101-.05-2v-7.99998l-.3199-.1001c-.9187-.14868-1.8508-.19898-2.7801-.1499h-2c-5.04 0-7.56 0-9.49 1-1.6814.86071-3.0493 2.22868-3.91 3.90988z"/><path d="m48 35.5052v1.08c0 3.16 0 5.5-.71 7.5-.6029 1.655-1.5608 3.1582-2.8062 4.4037-1.2456 1.2456-2.7487 2.2033-4.4038 2.8062-1.99.7101-4.34.7101-7.5.7101h-12.69c-3.1534 0-6.1777-1.2528-8.4075-3.4825-2.22981-2.2299-3.4825-5.2541-3.4825-8.4075.00256-.9463.27368-1.8724.78162-2.6708.50805-.7983 1.23228-1.4361 2.08838-1.8392l6.08-2.85c.8002-.3744 1.6861-.5273 2.5655-.443.8795.0845 1.7201.4032 2.4345.923.6904.5017 1.5026.8091 2.3521.8899.8496.0809 1.7052-.0675 2.4779-.4299l1.94-.9001.18-.0799c.774-.3343 1.6199-.4673 2.4591-.3869.8393.0805 1.6444.3717 2.3409.8468l.16.12.3.2101c.6372.437 1.367.7205 2.1321.828.7653.1077 1.5449.0364 2.2778-.208l.3501-.12 4.12-1.4801.48-.1599c.405-.1204.8284-.1677 1.25-.14.6281.0497 1.2312.2671 1.7466.6294.5154.3624.9241.8564 1.1834 1.4305.1691.3865.2707.7992.3 1.2201zm-3 2.69v-2.19c.0024-.166-.0212-.3314-.0699-.4901-.0376-.0815-.0964-.1515-.1703-.2025-.0415-.0287-.0869-.0508-.1347-.0658-.0372-.0116-.0759-.0189-.1151-.0216-.1763.0133-.3489.0574-.51.13l-4.03 1.49-.42.15c-1.174.3905-2.4226.5035-3.6475.3301-1.2251-.1736-2.3932-.6289-3.4125-1.3301l-.36-.26-.1-.0701c-.2789-.1893-.6012-.3051-.9369-.3366s-.6738.0224-.9831.1567l-.12.0499-1.9299.9001c-1.2581.5894-2.6514.8298-4.0341.6961-1.3828-.1336-2.7042-.6366-3.826-1.4562-.2879-.2036-.6246-.3275-.9758-.3591s-.7045.0302-1.0242.1792l-6.06 2.83c-.3389.1613-.6254.4148-.827.7313-.2015.3165-.3101.6833-.313 1.0587 0 2.3578.9366 4.6189 2.6038 6.2861 1.6672 1.6673 3.9284 2.6039 6.2862 2.6039h12.1799c3.6701 0 5.5201 0 7-.54 1.241-.4491 2.3681-1.1657 3.3012-2.0989.9332-.9332 1.6498-2.0602 2.0989-3.3011.4424-1.5833.6214-3.2287.53-4.87z"/></g></svg>
