<svg fill="none" height="56" viewBox="0 0 56 56" width="56" xmlns="http://www.w3.org/2000/svg"><path d="m27.6172 4.0203.1923.03458.1556.04079c1.1211.33668 1.8067 1.48869 1.5457 2.64887-.142.63029-.333 1.1464-.6033 1.56384-4.4901 6.93322-3.7257 11.77402-.3968 12.26642 3.0976.4582 4.9186-1.5395 4.5379-5.8446l-.0279-.2841-.2673-2.4897c-.0536-.5048.0698-1.0124.3492-1.4362.6655-1.00985 2.0237-1.28895 3.0335-.62344 1.4389.94824 3.0752 2.58694 4.9532 4.92924 5.3394 6.6594 6.9825 12.4562 6.908 18.399-.1378 10.9947-8.3155 18.775-19.4986 18.775-11.2309 0-19.4987-7.8263-19.4987-18.8026.05666-9.6507 5.2411-20.1428 14.9543-27.28062l.6129-.44259 1.4082-1.03147c.4733-.35094 1.063-.50072 1.6418-.42242z" fill="currentColor"/></svg>
