<?xml version="1.0" encoding="UTF-8"?>
<svg width="56px" height="56px" viewBox="0 0 56 56" version="1.1" xmlns="http://www.w3.org/2000/svg" xmlns:xlink="http://www.w3.org/1999/xlink">
    <!-- Generator: Sketch 61.2 (89653) - https://sketch.com -->
    <title>Icons 56/fire_outline_56</title>
    <desc>Created with Sketch.</desc>
    <g id="Icons-56/fire_outline_56" stroke="none" stroke-width="1" fill="none" fill-rule="evenodd">
        <g id="fire_outline_56">
            <rect x="0" y="0" width="56" height="56"></rect>
            <path d="M27.6171768,4.02029878 L27.8095363,4.05488333 L27.9650751,4.09566596 C29.0862463,4.43235437 29.7718494,5.58436055 29.5108437,6.7445382 C29.3688263,7.3748317 29.1778026,7.89093478 28.9074551,8.30838445 C24.4174033,15.2415754 25.1818004,20.0824449 28.5106971,20.5748401 C31.608291,21.0330221 33.4292794,19.0352691 33.0486399,14.7301826 L33.0206847,14.4461464 L32.7533667,11.9563634 C32.6998141,11.4516404 32.8232441,10.9439874 33.1025542,10.520196 C33.768118,9.51035009 35.1263059,9.23125424 36.1360695,9.89676378 C37.5749753,10.8449743 39.2113396,12.4837293 41.0893011,14.8259686 C46.4286993,21.4853961 48.0717736,27.2821848 47.9972775,33.2250208 C47.8594539,44.2197375 39.6817904,51.999958 28.4986848,51.999958 C17.2678008,51.999958 9,44.1736536 9,33.1974119 C9.05666474,23.5466709 14.2411121,13.0545855 23.9543265,5.91678394 L24.5671868,5.47419015 L25.9753931,4.44271735 C26.4486622,4.09177872 27.0383645,3.94199826 27.6171768,4.02029878 Z M25.1598879,8.7622386 L24.7276891,9.09781118 C16.4390667,15.6317482 12.0491788,24.8302046 11.9999741,33.2062191 C11.9999741,42.4788642 18.8889565,48.999958 28.4986848,48.999958 C38.0639917,48.999958 44.8805922,42.5146514 44.9975132,33.1874174 C45.0638972,27.8917172 43.611465,22.7675166 38.7487287,16.7025935 C37.7131936,15.4110489 36.7755215,14.3725977 35.9456298,13.5901193 L36.0032662,14.1233347 L36.0332932,14.428005 C36.5798031,20.5832705 33.2314019,24.3057461 28.0717269,23.5425505 C22.6385175,22.738895 21.1543433,16.5413326 24.9967011,9.07410135 L25.1598879,8.7622386 Z" id="↳-Icon-Color" fill="currentColor" fill-rule="nonzero"></path>
        </g>
    </g>
</svg>
