<svg height="56" viewBox="0 0 56 56" width="56" xmlns="http://www.w3.org/2000/svg"><g fill="none" fill-rule="evenodd"><path d="m0 0h56v56h-56z"/><path d="m20.319426 6 15.7827245.00131388c3.7276811.02376387 5.6807952.37295486 7.5700079 1.29677603l.4194684.21485381c1.8910323 1.01133516 3.3840943 2.50439718 4.3954295 4.39542948 1.0477381 1.9591 1.4576405 3.8506464 1.5076375 7.5825054l.0053062.8285474v15.361148l-.0053062.8285474c-.049997 3.731859-.4598994 5.6234054-1.5076375 7.5825054-1.0113352 1.8910323-2.5043972 3.3840943-4.3954295 4.3954295-1.9591 1.0477381-3.8506464 1.4576405-7.5825054 1.5076375l-.8285474.0053062h-15.361148l-.8285474-.0053062c-3.731859-.049997-5.6234054-.4598994-7.5825054-1.5076375-1.8910323-1.0113352-3.38409432-2.5043972-4.39542948-4.3954295-1.04773816-1.9591-1.45764051-3.8506464-1.50763754-7.5825054l-.00530618-.8285474.00131388-15.7827245c.02376387-3.7276811.37295486-5.6807952 1.29677603-7.5700079l.21485381-.4194684c1.01133516-1.8910323 2.50439718-3.38409432 4.39542948-4.39542948 1.9591-1.04773816 3.8506464-1.45764051 7.5825054-1.50763754zm13.1584583 22.0464615-9.2335125 11.0204343c-.4913824.5864053-1.3377439.7036632-1.9660282.2951408l-.1225793-.0887316-5.09688-4.0918435-7.13680907 7.0232265c.07357869.1583494.15226727.3149995.23630807.4721422.7317358 1.3682269 1.7965596 2.4330507 3.1647865 3.1647865 1.4980055.8011421 2.9512432 1.1158995 6.2584906 1.1543065l.7377656.0040768h15.361148l.7377656-.0040768c3.3072474-.038407 4.7604851-.3531644 6.2584906-1.1543065 1.3682269-.7317358 2.4330507-1.7965596 3.1647865-3.1647865.4374605-.81798.7298974-1.6226117.9115071-2.7230399zm2.2026897-19.0464615h-15.361148l-.7377656.00407677c-3.3072474.03840702-4.7604851.35316441-6.2584906 1.15430653-1.3682269.7317358-2.4330507 1.7965596-3.1647865 3.1647865-.85836655 1.6050059-1.1583833 3.1586201-1.1583833 6.9962562v15.361148l.00407677.7377656c.01068969.9204945.04278703 1.697367.10082053 2.3715565l6.8022972-6.6817046c.5061236-.4970541 1.2845757-.5674707 1.8680474-.1878566l.121875.0882427 4.9907674 4.0058839 9.2830342-11.0778449c.5111236-.609964 1.4014322-.709077 2.031305-.2503233l.114893.0925653 12.6798835 11.3651414.003-.463426v-15.361148l-.0040768-.7377656c-.038407-3.3072474-.3531644-4.7604851-1.1543065-6.2584906-.7317358-1.3682269-1.7965596-2.4330507-3.1647865-3.1647865-1.6050059-.85836655-3.1586201-1.1583833-6.9962562-1.1583833zm-16.180574 8c1.3807119 0 2.5 1.1192881 2.5 2.5s-1.1192881 2.5-2.5 2.5-2.5-1.1192881-2.5-2.5 1.1192881-2.5 2.5-2.5z" fill="currentColor" fill-rule="nonzero"/></g></svg>
