<svg fill="none" height="56" viewBox="0 0 56 56" width="56" xmlns="http://www.w3.org/2000/svg"><path clip-rule="evenodd" d="m28.512 10.1681c.3388-1.52238 1.868-2.46618 3.383-2.08794 1.38.34453 2.2759 1.67508 2.0747 3.08134l-1.4546 10.1685c-.1172.819.4527 1.5778 1.2728 1.6948.0072.001.0145.002.0217.0029 4.3748.8549 7.6904 4.7475 7.6904 9.3845 0 7.4713-6.057 13.587-13.5063 13.587h-.9937c-.0061 0-.0122.0001-.0182.0001-.0074.0001-.0147.0002-.022.0004-7.167-.0455-12.9073-6.1236-12.432-13.2528.2343-3.5153 3.1541-6.2469 6.6772-6.2469h.9927c1.2427 0 2.3166.8681 2.577 2.0832.2878 1.343-.5041 2.6818-1.8197 3.0765l-1.3451.4036c-.7935.238-1.2438 1.0742-1.0058 1.8677.2381.7935 1.0743 1.2438 1.8678 1.0057l1.3452-.4035c2.813-.8439 4.5064-3.7068 3.891-6.5786-.5568-2.5983-2.853-4.4546-5.5104-4.4546h-.9927c-1.1733 0-2.3003.2092-3.3445.5932l-1.3466-12.1371c-.1749-1.5762 1.0571-2.95475 2.6407-2.95475 1.2499 0 2.3308.87245 2.5963 2.09565l1.7549 8.0843c.0575.6315.5157 1.1813 1.1688 1.3263.8087.1794 1.61-.3298 1.7897-1.1374zm-3.4896 1.8712.561-2.52108c.7049-3.16772 3.8868-5.13154 7.0392-4.34452 2.8715.71689 4.7356 3.48542 4.317 6.4115l-1.262 8.8219c5.1136 1.5856 8.8224 6.3868 8.8224 12.0051 0 9.1085-7.3801 16.5878-16.5063 16.5878h-.9528-.0409l-.0185-.0001c-8.8798-.0334-16.0405-7.5522-15.4471-16.4526.1837-2.7559 1.5071-5.1792 3.4917-6.8224l-1.4908-13.4374c-.3722-3.3541 2.2495-6.2875 5.6193-6.2875 2.6597 0 4.9599 1.85653 5.5249 4.4594z" fill="currentColor" fill-rule="evenodd"/></svg>
