<svg width="56" height="56" viewBox="0 0 56 56" fill="none" xmlns="http://www.w3.org/2000/svg">
<path d="M33.5665 34.5178C34.1792 35.1706 34.1374 36.1879 33.473 36.7899C30.4635 39.5173 27.1232 39.5173 24.137 37.8936C23.4047 37.4955 22.8588 37.0907 22.527 36.7899C21.8626 36.1879 21.8208 35.1706 22.4335 34.5178C23.0079 33.9058 23.9537 33.8314 24.617 34.3206L24.7458 34.4259C24.8987 34.5646 25.2417 34.8189 25.7216 35.0798C27.5839 36.0925 29.4153 36.0925 31.2542 34.4259C31.9186 33.8239 32.9538 33.865 33.5665 34.5178ZM19.5 22C21.433 22 23 23.567 23 25.5C23 27.433 21.433 29 19.5 29C17.567 29 16 27.433 16 25.5C16 23.567 17.567 22 19.5 22ZM27.9976 4.00449C33.8292 4.00449 38.7509 6.05783 43.2561 10.2657C47.4605 14.1927 49.8742 19.4936 49.9952 25.0524L49.9766 45.8702C49.9071 48.4152 48.0889 50.4337 45.4886 50.4337C44.8927 50.4146 44.1892 50.3134 43.2367 49.9302L41.3156 49.1176C39.9618 48.5503 39.0975 48.3097 38.2421 48.3097L38.0919 48.3154C37.6709 48.3493 37.261 48.5522 36.1242 49.3432L34.3746 50.591C32.1551 52.1575 30.025 52.9304 28 53C25.9593 53 24.1684 52.3107 21.9969 50.8219L20.0613 49.449L19.5131 49.0732C18.7491 48.5622 18.3733 48.3802 18.0321 48.3278L17.7766 48.3097C16.9188 48.3097 16.0524 48.5504 14.6955 49.118L12.7714 49.9303C11.9675 50.2532 11.5474 50.3729 11.0782 50.414L10.5168 50.4337C8.01104 50.4337 6.20304 48.4697 6.02166 46.0042L6 25.4902C6 19.773 8.43342 14.2951 12.7564 10.2647C17.1539 6.16491 22.38 4.11244 27.9976 4.00449ZM28.016 7.00399L27.5909 7.01795C22.8072 7.21515 18.4746 9.03524 14.8022 12.459C11.1867 15.8298 9.12022 20.3488 9.00508 25.0699L9 25.487L9.021 45.857L9.03242 45.9605C9.15407 46.821 9.68224 47.3628 10.376 47.4272L10.494 47.432L10.865 47.419L10.8968 47.4138C10.9868 47.396 11.1129 47.3567 11.3406 47.27L11.6046 47.1665L13.5379 46.3504C15.1484 45.6767 16.301 45.354 17.5152 45.314L17.7766 45.3097L17.9888 45.3172L18.2443 45.3354C18.3257 45.3411 18.4068 45.3502 18.4874 45.3626C19.4657 45.5128 20.1608 45.8732 21.5317 46.818L21.7969 47.002L23.6933 48.3476C25.3516 49.4845 26.5314 49.9478 27.779 49.9958L27.94 49.999L28.1683 49.9861C29.4418 49.8834 30.8234 49.3624 32.312 48.3688L32.6326 48.1486L34.4107 46.8807C36.1086 45.6993 36.9255 45.3097 38.2421 45.3097C39.4665 45.3097 40.592 45.5877 42.1447 46.2148L42.4842 46.3546L44.3566 47.147C44.8696 47.3534 45.2108 47.4232 45.4886 47.4337C46.3066 47.4337 46.8791 46.8864 46.966 46.0314L46.9766 45.8675L46.9959 25.1177C46.8926 20.3729 44.8258 15.8369 41.2083 12.4581C37.3401 8.84519 33.2681 7.10804 28.4387 7.00899L28.016 7.00399ZM39.4822 24.8501C40.0856 25.3725 40.1746 26.3136 39.6808 26.9521C39.218 27.5506 38.4073 27.6708 37.8106 27.253L37.6942 27.1623L37.5353 27.0323C36.6347 26.3385 35.7322 26.3653 34.8008 26.8491C34.6922 26.9055 34.5979 26.9606 34.5203 27.0097L34.3883 27.0983L34.1894 27.253C33.5927 27.6708 32.782 27.5506 32.3192 26.9521C31.8254 26.3136 31.9144 25.3725 32.5178 24.8501C32.7397 24.658 33.0909 24.4093 33.5565 24.1674C35.4461 23.1859 37.5598 23.1859 39.4822 24.8501Z" fill="currentColor"/>
</svg>
