<svg fill="none" height="56" viewBox="0 0 56 56" width="56" xmlns="http://www.w3.org/2000/svg"><g fill="currentColor"><path clip-rule="evenodd" d="m21 28c0-2.1525.1953-4.1542.5252-6h12.9496c.3299 1.8458.5252 3.8475.5252 6 0 .3232-.0044.643-.013.9593-.0225.8281.6306 1.5176 1.4587 1.5402.8281.0225 1.5177-.6306 1.5402-1.4588.0093-.3433.0141-.6902.0141-1.0407 0-2.1358-.1772-4.1373-.4816-6h10.612c.5658 1.9011.8696 3.9151.8696 6 0 .2936-.006.5856-.0179.8761-.0339.8277.6096 1.5262 1.4373 1.5601.8277.034 1.5262-.6096 1.5602-1.4373.0135-.3313.0204-.6644.0204-.9989 0-13.2548-10.7452-24-24-24s-24 10.7452-24 24c0 13.2529 10.7421 23.9969 23.9942 24h.0108c1.3594-.0003 2.6936-.1137 3.9932-.3318.817-.137 1.3682-.9105 1.2311-1.7275-.137-.817-.9105-1.3682-1.7275-1.2311-.9384.1574-1.8986.2527-2.8762.2813-.203-.2202-.4735-.5261-.7915-.9158-.7496-.9186-1.7602-2.2993-2.7739-4.1179-.9774-1.7535-1.9567-3.9123-2.7086-6.4572h7.6484c.8284 0 1.5-.6716 1.5-1.5s-.6716-1.5-1.5-1.5h-8.3815c-.386-1.9827-.6185-4.1516-.6185-6.5zm7-20.27613c-.0537.06432-.1091.13134-.1659.20103-.7496.9186-1.7602 2.2993-2.7739 4.1179-1.0407 1.8672-2.0837 4.194-2.852 6.9572h11.5836c-.7683-2.7632-1.8113-5.09-2.852-6.9572-1.0137-1.8186-2.0243-3.1993-2.7739-4.1179-.0568-.06969-.1122-.13671-.1659-.20103zm-9.4331 26.77613c-.3564-2.0032-.5669-4.1718-.5669-6.5 0-2.1358.1772-4.1373.4816-6h-10.61196c-.56581 1.9011-.86964 3.9151-.86964 6 0 2.2687.35975 4.4533 1.02531 6.5zm-9.30027 3c2.96847 5.842 8.58927 10.1095 15.27697 11.2169-.6519-.896-1.3785-1.9978-2.1038-3.2991-1.1808-2.1185-2.3592-4.768-3.205-7.9178zm13.17317-26.9178c-1.2428 2.2297-2.4829 5.0475-3.3353 8.4178h-10.08361c2.89671-6.0978 8.64571-10.5781 15.52271-11.71692-.6519.89603-1.3785 1.99785-2.1038 3.29912zm24.5393 8.4178h-10.0836c-.8524-3.3703-2.0925-6.1881-3.3353-8.4178-.7253-1.30127-1.4519-2.40309-2.1038-3.29912 6.877 1.13882 12.626 5.61912 15.5227 11.71692z" fill-rule="evenodd"/><path d="m35.9393 33.9393c.5858-.5857 1.5356-.5857 2.1213 0l4.5962 4.5962 4.5963-4.5962c.5857-.5858 1.5355-.5858 2.1213 0s.5858 1.5356 0 2.1213l-4.5962 4.5963 4.5962 4.5961c.5857.5858.5857 1.5356 0 2.1214-.5858.5858-1.5356.5858-2.1214 0l-4.5962-4.5962-4.5961 4.5962c-.5858.5857-1.5356.5857-2.1213 0-.5858-.5858-.5858-1.5356 0-2.1214l4.5961-4.5961-4.5962-4.5962c-.5858-.5858-.5858-1.5356 0-2.1214z"/></g></svg>
