<?xml version="1.0" encoding="UTF-8"?>
<svg width="56px" height="56px" viewBox="0 0 56 56" version="1.1" xmlns="http://www.w3.org/2000/svg" xmlns:xlink="http://www.w3.org/1999/xlink">
    <!-- Generator: Sketch 61.2 (89653) - https://sketch.com -->
    <title>Icons 56/goods_collection_56</title>
    <desc>Created with Sketch.</desc>
    <g id="Icons-56/goods_collection_56" stroke="none" stroke-width="1" fill="none" fill-rule="evenodd">
        <g id="goods_collection_56">
            <rect x="0" y="0" width="56" height="56"></rect>
            <path d="M49.2951435,25.5 C50.5376113,25.5 51.2184353,25.6314732 51.9284554,26.0111961 C52.5972655,26.3688796 53.1311204,26.9027345 53.4888039,27.5715446 C53.8685268,28.2815647 54,28.9623887 54,30.2048565 L54,42.2312583 C54,44.2865428 53.7994884,45.3248768 53.2216712,46.4053011 C52.6896806,47.4000372 51.9000372,48.1896806 50.9053011,48.7216712 C49.8248768,49.2994884 48.7865428,49.5 46.7312583,49.5 L34.2687417,49.5 C32.2134572,49.5 31.1751232,49.2994884 30.0946989,48.7216712 C29.0999628,48.1896806 28.3103194,47.4000372 27.7783288,46.4053011 C27.2326125,45.3849004 27.0234436,44.4020431 27.0018869,42.5645711 L27,30.2048565 C27,28.9623887 27.1314732,28.2815647 27.5111961,27.5715446 C27.8688796,26.9027345 28.4027345,26.3688796 29.0715446,26.0111961 C29.7815647,25.6314732 30.4623887,25.5 31.7048565,25.5 L49.2951435,25.5 Z M24.5,4.5 C30.1311084,4.5 34.7268901,8.93276045 34.9882675,14.4992037 L36.090287,14.5 C38.3487756,14.5 39.4764872,14.7177712 40.6495125,15.345112 C41.7257301,15.9206794 42.5793206,16.7742699 43.154888,17.8504875 C43.4750413,18.4491221 43.7043165,19.3702515 43.9096067,20.7208053 C44.0341012,21.5398246 43.4710777,22.3046937 42.6520584,22.4291882 C41.8330391,22.5536828 41.06817,21.9906592 40.9436755,21.1716399 C40.7874475,20.1438546 40.6204075,19.4727595 40.5094484,19.265284 C40.2134804,18.7118719 39.7881281,18.2865196 39.234716,17.9905516 C38.6271937,17.6656451 38.0350072,17.5294372 36.6237474,17.5043619 L36.6237474,17.5043619 L36.090287,17.5 L12.909713,17.5 C11.1041185,17.5 10.4442795,17.6274208 9.76528403,17.9905516 C9.21187192,18.2865196 8.78651959,18.7118719 8.49055156,19.265284 C8.12742078,19.9442795 8,20.6041185 8,22.409713 L8,22.409713 L8.00108489,34.5990555 C8.0214336,38.1287252 8.33075927,39.6324653 9.15838332,41.1799877 C9.89011909,42.5482147 10.9549429,43.6130385 12.3231698,44.3447742 C13.9259614,45.2019566 15.4817871,45.503158 19.2901274,45.503158 L19.2901274,45.503158 L22.3745254,45.503158 C23.2029525,45.503158 23.8745254,46.1747309 23.8745254,47.003158 C23.8745254,47.8315851 23.2029525,48.503158 22.3745254,48.503158 L22.3745254,48.503158 L19.2901274,48.503158 C15.0287152,48.503158 13.0046278,48.111303 10.9083732,46.9902138 C9.01734087,45.9788786 7.52427889,44.4858166 6.51294372,42.5947843 C5.39185477,40.4985302 5,38.4744428 5,34.21303 L5,34.21303 L5.0018377,22.0623351 C5.02405782,20.0323924 5.25078909,18.9617746 5.84511196,17.8504875 C6.42067939,16.7742699 7.27426993,15.9206794 8.35048745,15.345112 C9.52351277,14.7177712 10.6512244,14.5 12.909713,14.5 L12.909713,14.5 L14.0117325,14.4992037 C14.2731099,8.93276045 18.8688916,4.5 24.5,4.5 Z M49.4673808,28.5007451 L31.5326192,28.5007451 L31.2151871,28.5080859 C30.8925057,28.5215052 30.7247979,28.5525961 30.5879239,28.608483 L30.4863412,28.6566357 C30.3403365,28.7347198 30.2347198,28.8403365 30.1566357,28.9863412 L30.108483,29.0879239 C30.0366284,29.2639047 30.0057632,29.4908558 30.0007451,30.0326192 L30,42.2312583 C30,43.8336486 30.1101612,44.4041101 30.4237684,44.9905045 C30.6761596,45.4624352 31.0375648,45.8238404 31.5094955,46.0762316 C32.0269023,46.3529439 32.5319046,46.4712639 33.7443342,46.4952739 L34.2687417,46.5 L46.7312583,46.5 L47.2556658,46.4952739 C48.4680954,46.4712639 48.9730977,46.3529439 49.4905045,46.0762316 C49.9624352,45.8238404 50.3238404,45.4624352 50.5762316,44.9905045 C50.8529439,44.4730977 50.9712639,43.9680954 50.9952739,42.7556658 L51,42.2312583 L50.9992549,30.0326192 L50.9919141,29.7151871 C50.9784948,29.3925057 50.9474039,29.2247979 50.891517,29.0879239 L50.8433643,28.9863412 C50.7652802,28.8403365 50.6596635,28.7347198 50.5136588,28.6566357 L50.4120761,28.608483 C50.2360953,28.5366284 50.0091442,28.5057632 49.4673808,28.5007451 Z M45.75,31.56875 C46.5784271,31.56875 47.25,32.2403229 47.25,33.06875 L47.25,33.169375 C47.25,36.735529 44.2609868,39.6 40.605,39.6 L40.395,39.6 C36.7390132,39.6 33.75,36.735529 33.75,33.169375 C33.75,32.3409479 34.4215729,31.669375 35.25,31.669375 C36.0784271,31.669375 36.75,32.3409479 36.75,33.169375 C36.75,35.049439 38.3679767,36.6 40.395,36.6 L40.605,36.6 C42.6320233,36.6 44.25,35.049439 44.25,33.169375 L44.25,33.06875 C44.25,32.2403229 44.9215729,31.56875 45.75,31.56875 Z M24.5,7.5 C20.5260781,7.5 17.2740218,10.5906738 17.016441,14.4994114 L31.983559,14.4994114 C31.7259782,10.5906738 28.4739219,7.5 24.5,7.5 Z" id="↳-Icon-Color" fill="currentColor" fill-rule="nonzero"></path>
        </g>
    </g>
</svg>
