<svg xmlns="http://www.w3.org/2000/svg" width="56" height="56" fill="currentColor" viewBox="0 0 56 56"><path fill-rule="evenodd" d="M5.437 14.972a2.376 2.376 0 0 1 3.612-.308l9.02 8.964c.195.274.42.534.673.774l2.272 2.153a1.498 1.498 0 0 0 2.087-2.152l-2.696-2.68a2.258 2.258 0 0 1 3.515-2.76l2.57 2.478a1.498 1.498 0 1 0 2.08-2.159l-1.39-1.342a2.35 2.35 0 0 1 3.145-3.487l2.049 1.73a1.498 1.498 0 1 0 1.933-2.29l-.462-.391a2.553 2.553 0 1 1 3.459-3.748l6.909 6.972c.022.023.046.045.07.067 3.443 3.05 5.446 6.85 5.694 10.69.247 3.807-1.218 7.842-5.073 11.45-4.498 4.21-8.983 5.6-12.307 5.96-1.67.183-3.06.106-4.019-.014-.48-.06-.85-.13-1.093-.182a6.976 6.976 0 0 1-.265-.063l-.028-.007-14.617-5.325a2.108 2.108 0 0 1 1.204-4.032l6.864 1.616a1.498 1.498 0 0 0 1.402-2.52L5.694 18.032a2.378 2.378 0 0 1-.257-3.06Zm21.004 32.557-.136-.037h.002l.005.002.011.003.034.01.11.03c.091.023.22.054.381.09.323.07.783.156 1.359.227a20.41 20.41 0 0 0 4.713.02c3.893-.423 9.005-2.048 14.031-6.752 4.435-4.15 6.327-9.032 6.016-13.832-.307-4.752-2.76-9.238-6.66-12.709l-6.875-6.938a5.549 5.549 0 0 0-9.467 3.384 5.344 5.344 0 0 0-4.902 1.406 5.322 5.322 0 0 0-1.543 3.03 5.25 5.25 0 0 0-4.817 1.348 5.234 5.234 0 0 0-1.276 1.952l-6.265-6.226a5.376 5.376 0 0 0-7.585 7.616l12.617 12.606-1.73-.407a5.104 5.104 0 0 0-2.915 9.767l14.67 5.344.053.019.032.01.137.037Z" clip-rule="evenodd"/></svg>
