<svg fill="none" height="56" viewBox="0 0 56 56" width="56" xmlns="http://www.w3.org/2000/svg"><path clip-rule="evenodd" d="m6 27.5c0-11.8741 9.6259-21.5 21.5-21.5h1c11.8741 0 21.5 9.6259 21.5 21.5v15c0 4.1421-3.3579 7.5-7.5 7.5s-7.5-3.3579-7.5-7.5v-7c0-4.1421 3.3579-7.5 7.5-7.5 1.6884 0 3.2465.5579 4.5 1.4995v-1.9995c0-10.2173-8.2827-18.5-18.5-18.5h-1c-10.2173 0-18.5 8.2827-18.5 18.5v1.9995c1.2535-.9416 2.8116-1.4995 4.5-1.4995 4.1421 0 7.5 3.3579 7.5 7.5v7c0 4.1421-3.3579 7.5-7.5 7.5-4.14214 0-7.5-3.3579-7.5-7.5zm41 8c0-2.4853-2.0147-4.5-4.5-4.5s-4.5 2.0147-4.5 4.5v7c0 2.4853 2.0147 4.5 4.5 4.5s4.5-2.0147 4.5-4.5zm-38 0c0-2.4853 2.0147-4.5 4.5-4.5s4.5 2.0147 4.5 4.5v7c0 2.4853-2.0147 4.5-4.5 4.5s-4.5-2.0147-4.5-4.5z" fill="currentColor" fill-rule="evenodd"/></svg>
