<svg xmlns="http://www.w3.org/2000/svg" width="56" height="56" fill="currentColor" viewBox="0 0 56 56"><path d="M37.5 17a1.5 1.5 0 0 1 1.5 1.5V21h2.5a1.5 1.5 0 0 1 0 3H39v2.5a1.5 1.5 0 0 1-3 0V24h-2.5a1.5 1.5 0 0 1 0-3H36v-2.5a1.5 1.5 0 0 1 1.5-1.5Z M4 21.423C4 13.99 10.07 8 17.453 8c4.008 0 7.528 1.66 10.537 4.786C30.962 9.655 34.491 8 38.547 8 45.93 8 52 13.989 52 21.423c0 4.041-1.051 7.123-3.64 10.345-2.5 3.11-6.455 6.371-12.162 10.86l-.005.004-5.845 4.56a3.816 3.816 0 0 1-4.696 0l-5.845-4.56-.005-.004c-5.707-4.489-9.661-7.75-12.161-10.86C5.05 28.546 4 25.464 4 21.423ZM17.453 11C11.711 11 7 15.661 7 21.423c0 3.368.824 5.784 2.98 8.466 2.244 2.793 5.904 5.84 11.674 10.38l.003.001 5.84 4.557c.296.23.71.23 1.005 0l5.841-4.557.002-.001c5.771-4.54 9.431-7.587 11.676-10.38C48.176 27.207 49 24.79 49 21.423 49 15.661 44.289 11 38.547 11c-3.528 0-6.639 1.578-9.376 4.995a1.5 1.5 0 0 1-2.332.011C24.031 12.574 20.914 11 17.453 11Z" clip-rule="evenodd"/></svg>
