<svg xmlns="http://www.w3.org/2000/svg" width="56" height="56" fill="none" viewBox="0 0 56 56"><rect width="56" height="56" fill="url(#a)" rx="28"/><path fill="#fff" fill-rule="evenodd" d="M14 24.688C14 20.994 16.946 18 20.58 18c1.96 0 3.7.945 5.2 2.775C27.277 18.945 29.018 18 30.977 18c3.635 0 6.58 2.994 6.58 6.688 0 .646-.044 1.236-.149 1.796a7.066 7.066 0 0 0-2.565.907 7.038 7.038 0 0 0-3.6-.981 7.558 7.558 0 0 0-7.556 7.56c0 1.165.167 2.246.614 3.308l-2.563-2.026C15.473 30.298 14 28.424 14 24.688Z" clip-rule="evenodd"/><path fill="#fff" d="M31.244 29.41a4.558 4.558 0 0 0-4.556 4.56c0 2.548 1.02 3.825 5.359 7.203l2 1.557a1.297 1.297 0 0 0 1.594 0l2-1.557c4.34-3.378 5.36-4.655 5.36-7.203 0-2.518-2.04-4.56-4.557-4.56-1.357 0-2.562.644-3.6 1.892-1.038-1.248-2.243-1.892-3.6-1.892Z"/><defs><linearGradient id="a" x1="0" x2="56" y1="0" y2="56" gradientUnits="userSpaceOnUse"><stop stop-color="#FF4D87"/><stop offset=".521" stop-color="#9F40FF"/><stop offset="1" stop-color="#39F"/></linearGradient></defs></svg>
