<?xml version="1.0" encoding="UTF-8"?>
<svg width="56px" height="56px" viewBox="0 0 56 56" version="1.1" xmlns="http://www.w3.org/2000/svg" xmlns:xlink="http://www.w3.org/1999/xlink">
    <!-- Generator: Sketch 61.2 (89653) - https://sketch.com -->
    <title>Icons 56/inbox_outline_56</title>
    <desc>Created with Sketch.</desc>
    <g id="Icons-56/inbox_outline_56" stroke="none" stroke-width="1" fill="none" fill-rule="evenodd">
        <g id="inbox_outline_56">
            <polygon points="0 0 56 0 56 56 0 56"></polygon>
            <g transform="translate(7.000000, 9.000000)" fill="currentColor" fill-rule="nonzero" id="↳-Icon-Color">
                <path d="M30.010487,0 C32.3865782,0 33.5366929,0.187142767 34.7682506,0.742362626 C35.9081793,1.25627358 36.855059,2.03252931 37.5825486,3.04953507 C38.3685148,4.14828923 38.7775794,5.23936774 39.2435692,7.56931689 L41.970871,21.2058258 C41.9907049,21.307247 42,21.402538 42,21.5 L42,21.5 L42,28.8083444 C42,31.4732413 41.7477097,32.779708 41.0213217,34.1379354 C40.3586007,35.3771159 39.3771159,36.3586007 38.1379354,37.0213217 C36.779708,37.7477097 35.4732413,38 32.8083444,38 L9.1916556,38 C6.52675866,38 5.22029201,37.7477097 3.8620646,37.0213217 C2.62288411,36.3586007 1.64139929,35.3771159 0.978678314,34.1379354 C0.252290349,32.779708 0,31.4732413 0,28.8083444 L0,21.5 L0.00686657806,21.35554 C0.0114093745,21.3079992 0.0181711859,21.261106 0.0270472456,21.2149651 L0.0291289865,21.2058258 L2.75643077,7.56931689 C3.2224206,5.23936774 3.63148522,4.14828923 4.41745144,3.04953507 C5.14494098,2.03252931 6.09182075,1.25627358 7.23174939,0.742362626 C8.46330714,0.187142767 9.61342182,0 11.989513,0 L30.010487,0 Z M3,28.8083444 C3,31.0203472 3.16193997,31.8589412 3.62411791,32.7231388 C4.00723949,33.4395139 4.56048611,33.9927605 5.27686118,34.3758821 C6.14105878,34.83806 6.97965279,35 9.1916556,35 L32.8083444,35 C35.0203472,35 35.8589412,34.83806 36.7231388,34.3758821 C37.4395139,33.9927605 37.9927605,33.4395139 38.3758821,32.7231388 C38.83806,31.8589412 39,31.0203472 39,28.8083444 L39,23 L29.9450712,23 C29.4571932,27.413413 25.7780603,30.8650129 21.266338,30.9961346 L21,31 C16.3674463,31 12.5523731,27.4999505 12.0549288,23 L12.0549288,23 L3,23 L3,28.8083444 Z M30.2993854,3.00092926 L11.989513,3 C10.002751,3 9.25267656,3.12204958 8.46472471,3.47727978 C7.80739587,3.77362157 7.27695182,4.20848167 6.85745199,4.79492823 C6.35459005,5.49791221 6.08780889,6.20948484 5.6981728,8.15766529 L3.33,20 L13.5,20 C14.2796961,20 14.9204487,20.5948881 14.9931334,21.35554 L15,21.5 L15,22 C15,25.3137085 17.6862915,28 21,28 C24.3137085,28 27,25.3137085 27,22 L27,22 L27,21.5 C27,20.6715729 27.6715729,20 28.5,20 L28.5,20 L38.67,20 L36.3018272,8.15766529 C35.9121911,6.20948484 35.64541,5.49791221 35.142548,4.79492823 C34.7230482,4.20848167 34.1926041,3.77362157 33.5352753,3.47727978 C32.786721,3.13981109 32.0723511,3.01278791 30.2993854,3.00092926 Z"></path>
            </g>
        </g>
    </g>
</svg>
