<svg fill="none" height="56" viewBox="0 0 56 56" width="56" xmlns="http://www.w3.org/2000/svg"><path clip-rule="evenodd" d="m38.7636 12h-21.5272c-1.4861 0-2.6925 0-3.6709.0799-1.0099.0825-1.9085.2576-2.7434.6831-1.31717.6711-2.38803 1.7419-3.05914 3.0591-.42544.8349-.60053 1.7335-.68304 2.7434-.07995.9784-.07994 2.1847-.07992 3.6709v17.7636h-3.80742c-.65864 0-1.19258.5339-1.19258 1.1926 0 .4876.29689.9262.74967 1.1073l3.39205 1.3568c.32067.1283.48101.1924.64638.2375.1469.0401.29665.0689.44793.0863.1703.0195.34299.0195.68837.0195h40.1512c.3454 0 .5181 0 .6884-.0195.1512-.0174.301-.0462.4479-.0863.1654-.0451.3257-.1092.6464-.2375l3.392-1.3568c.4528-.1811.7497-.6197.7497-1.1073 0-.6587-.5339-1.1926-1.1926-1.1926h-3.8074v-17.7636c0-1.4861 0-2.6925-.0799-3.6709-.0825-1.0099-.2576-1.9085-.6831-2.7434-.6711-1.3172-1.7419-2.388-3.0591-3.0591-.8349-.4255-1.7335-.6006-2.7434-.6831-.9784-.0799-2.1848-.0799-3.6709-.0799zm7.2364 28v-17.7c0-1.5649-.0012-2.6484-.07-3.4902-.0673-.8244-.1919-1.2842-.366-1.6258-.3835-.7526-.9954-1.3645-1.748-1.748-.3416-.1741-.8014-.2987-1.6258-.366-.8418-.0688-1.9253-.07-3.4902-.07h-21.4c-1.5649 0-2.6484.0012-3.4902.07-.8244.0673-1.2842.1919-1.6258.366-.7526.3835-1.3645.9954-1.748 1.748-.1741.3416-.2987.8014-.366 1.6258-.0688.8418-.07 1.9253-.07 3.4902v17.7z" fill="currentColor" fill-rule="evenodd"/></svg>
