<svg xmlns="http://www.w3.org/2000/svg" width="56" height="56" fill="none" viewBox="0 0 56 56"><path fill="currentColor" d="M39.5 18c.8284 0 1.5.6716 1.5 1.5s-.6716 1.5-1.5 1.5h-16c-.8284 0-1.5-.6716-1.5-1.5s.6716-1.5 1.5-1.5h16ZM17 17.5c1.1046 0 2 .8954 2 2s-.8954 2-2 2-2-.8954-2-2 .8954-2 2-2Zm0 8.5c1.1046 0 2 .8954 2 2s-.8954 2-2 2-2-.8954-2-2 .8954-2 2-2Zm2 10.5c0-1.1046-.8954-2-2-2s-2 .8954-2 2 .8954 2 2 2 2-.8954 2-2ZM41 28c0-.8284-.6716-1.5-1.5-1.5h-16c-.8284 0-1.5.6716-1.5 1.5s.6716 1.5 1.5 1.5h16c.8284 0 1.5-.6716 1.5-1.5Zm-8.5 7c.8284 0 1.5.6716 1.5 1.5s-.6716 1.5-1.5 1.5h-9c-.8284 0-1.5-.6716-1.5-1.5s.6716-1.5 1.5-1.5h9Z"/><path fill="currentColor" fill-rule="evenodd" d="M21.3833 6c-5.0191 0-7.1177.4654-9.2444 1.6028-1.9517 1.0438-3.4923 2.5844-4.5361 4.5361C6.4654 14.2656 6 16.3642 6 21.3833v13.2334c0 5.0191.4654 7.1177 1.6028 9.2444 1.0438 1.9517 2.5844 3.4923 4.5361 4.5361C14.2656 49.5346 16.3642 50 21.3833 50h13.2334c5.0191 0 7.1177-.4654 9.2444-1.6028 1.9517-1.0438 3.4923-2.5844 4.5361-4.5361C49.5346 41.7344 50 39.6358 50 34.6167V21.3833c0-5.0191-.4654-7.1177-1.6028-9.2444-1.0438-1.9517-2.5844-3.4923-4.5361-4.5361C41.7344 6.4654 39.6358 6 34.6167 6H21.3833Zm-7.8296 4.2482C15.0389 9.454 16.5538 9 21.3833 9h13.2334c4.8295 0 6.3444.454 7.8296 1.2482 1.4289.7642 2.5413 1.8766 3.3055 3.3055C46.546 15.0389 47 16.5538 47 21.3833v13.2334c0 4.8295-.454 6.3444-1.2482 7.8296-.7642 1.4289-1.8766 2.5413-3.3055 3.3055C40.9611 46.546 39.4462 47 34.6167 47H21.3833c-4.8295 0-6.3444-.454-7.8296-1.2482-1.4289-.7642-2.5413-1.8766-3.3055-3.3055C9.454 40.9611 9 39.4462 9 34.6167V21.3833c0-4.8295.454-6.3444 1.2482-7.8296.7642-1.4289 1.8766-2.5413 3.3055-3.3055Z" clip-rule="evenodd"/></svg>
