<svg fill="none" height="56" viewBox="0 0 56 56" width="56" xmlns="http://www.w3.org/2000/svg"><g fill="currentColor"><path d="m33 28c0 2.7614-2.2386 5-5 5s-5-2.2386-5-5 2.2386-5 5-5 5 2.2386 5 5z"/><g clip-rule="evenodd" fill-rule="evenodd"><path d="m43 28c0 8.2843-6.7157 15-15 15s-15-6.7157-15-15 6.7157-15 15-15 15 6.7157 15 15zm-3.2143 0c0 6.5091-5.2766 11.7857-11.7857 11.7857s-11.7857-5.2766-11.7857-11.7857 5.2766-11.7857 11.7857-11.7857 11.7857 5.2766 11.7857 11.7857z"/><path d="m28 4c13.2548 0 24 10.7452 24 24s-10.7452 24-24 24-24-10.7452-24-24 10.7452-24 24-24zm0 3c-11.598 0-21 9.402-21 21s9.402 21 21 21 21-9.402 21-21-9.402-21-21-21z"/></g></g></svg>
