<svg fill="none" height="56" viewBox="0 0 56 56" width="56" xmlns="http://www.w3.org/2000/svg"><g fill="currentColor"><path d="m28 31c-1.6569 0-3 1.3431-3 3 0 1.1104.6033 2.0799 1.5 2.5987v2.9013c0 .8284.6715 1.5 1.5 1.5.8284 0 1.5-.6716 1.5-1.5v-2.9013c.8967-.5188 1.5-1.4883 1.5-2.5987 0-1.6569-1.3432-3-3-3z"/><path clip-rule="evenodd" d="m28 4c-6.0752 0-11 4.92486-11 11v5.0406c-.3608.0143-.7002.0336-1.0198.0597-1.26.103-2.3438.319-3.3391.8261-1.5994.815-2.89976 2.1153-3.71469 3.7147-.50717.9954-.72314 2.0791-.82609 3.3392-.10037 1.2285-.10036 2.7496-.10035 4.6544v6.7305c-.00001 1.9049-.00002 3.426.10035 4.6546.10295 1.26.31892 2.3437.82609 3.3391.81493 1.5994 2.11529 2.8998 3.71469 3.7147.9953.5072 2.0791.7231 3.3391.8261 1.2286.1003 2.7496.1003 4.6545.1003h14.7305c1.9049 0 3.426 0 4.6545-.1003 1.26-.103 2.3438-.3189 3.3392-.8261 1.5994-.8149 2.8997-2.1153 3.7146-3.7147.5072-.9954.7232-2.0791.8261-3.3391.1004-1.2285.1004-2.7496.1004-4.6544v-6.7307c0-1.9048 0-3.4259-.1004-4.6544-.1029-1.2601-.3189-2.3438-.8261-3.3392-.8149-1.5994-2.1152-2.8997-3.7146-3.7147-.9954-.5071-2.0792-.7231-3.3392-.8261-1.2285-.1003-2.7496-.1003-4.6545-.1003h-15.3652v-5c0-4.4183 3.5817-8 8-8 4.4182 0 8 3.5817 8 8v.5c0 .8284.6715 1.5 1.5 1.5.8284 0 1.5-.6716 1.5-1.5v-.5c0-6.07513-4.9249-11-11-11zm-13.997 19.5995c.502-.2558 1.147-.4213 2.2215-.5091 1.092-.0892 2.4905-.0904 4.4755-.0904h14.6c1.9849 0 3.3834.0012 4.4754.0904 1.0745.0878 1.7195.2533 2.2215.5091 1.0349.5273 1.8763 1.3687 2.4036 2.4036.2558.5019.4213 1.147.5091 2.2215.0892 1.092.0904 2.4905.0904 4.4754v6.6c0 1.985-.0012 3.3834-.0904 4.4755-.0878 1.0745-.2533 1.7195-.5091 2.2215-.5273 1.0349-1.3687 1.8763-2.4036 2.4036-.502.2557-1.147.4212-2.2215.509-1.092.0893-2.4905.0904-4.4754.0904h-14.6c-1.985 0-3.3835-.0011-4.4755-.0904-1.0745-.0878-1.7195-.2533-2.2215-.509-1.0349-.5273-1.8763-1.3687-2.4036-2.4036-.2557-.502-.4213-1.147-.509-2.2215-.0893-1.0921-.0904-2.4905-.0904-4.4755v-6.6c0-1.9849.0011-3.3834.0904-4.4754.0877-1.0745.2533-1.7196.509-2.2215.5273-1.0349 1.3687-1.8763 2.4036-2.4036z" fill-rule="evenodd"/></g></svg>
