<?xml version="1.0" encoding="UTF-8"?>
<svg width="56px" height="56px" viewBox="0 0 56 56" version="1.1" xmlns="http://www.w3.org/2000/svg" xmlns:xlink="http://www.w3.org/1999/xlink">
    <!-- Generator: Sketch 59 (86127) - https://sketch.com -->
    <title>Icons 56/lock_outline_56</title>
    <desc>Created with Sketch.</desc>
    <g id="Icons-56/lock_outline_56" stroke="none" stroke-width="1" fill="none" fill-rule="evenodd">
        <g id="lock_outline_56">
            <polygon points="0 0 56 0 56 56 0 56"></polygon>
            <path d="M28,4.99999695 C33.5228475,4.99999695 38,9.47714945 38,14.9999969 L38.0017546,21.0280484 C39.4179964,21.106545 40.3764802,21.3582942 41.368488,21.8888258 C42.5431453,22.5170394 43.4829606,23.4568547 44.1111742,24.631512 C44.7715728,25.8663502 45,27.049243 45,29.1277704 L45,40.8722296 C45,42.950757 44.7715728,44.1336498 44.1111742,45.368488 C43.4829606,46.5431453 42.5431453,47.4829606 41.368488,48.1111742 C40.1336498,48.7715728 38.950757,49 36.8722296,49 L19.1277704,49 C17.049243,49 15.8663502,48.7715728 14.631512,48.1111742 C13.4568547,47.4829606 12.5170394,46.5431453 11.8888258,45.368488 C11.2284272,44.1336498 11,42.950757 11,40.8722296 L11,29.1277704 C11,27.049243 11.2284272,25.8663502 11.8888258,24.631512 C12.5170394,23.4568547 13.4568547,22.5170394 14.631512,21.8888258 C15.6237549,21.3581685 16.5824578,21.1064257 17.9992523,21.0279927 L18,14.9999969 C18,9.47714945 22.4771525,4.99999695 28,4.99999695 Z M36.8722296,24 L19.1277704,24 C17.3447329,24 16.6981604,24.1856512 16.0463086,24.5342654 C15.3944567,24.8828796 14.8828796,25.3944567 14.5342654,26.0463086 C14.1856512,26.6981604 14,27.3447329 14,29.1277704 L14,40.8722296 C14,42.6552671 14.1856512,43.3018396 14.5342654,43.9536914 C14.8828796,44.6055433 15.3944567,45.1171204 16.0463086,45.4657346 C16.6981604,45.8143488 17.3447329,46 19.1277704,46 L36.8722296,46 C38.6552671,46 39.3018396,45.8143488 39.9536914,45.4657346 C40.6055433,45.1171204 41.1171204,44.6055433 41.4657346,43.9536914 C41.8143488,43.3018396 42,42.6552671 42,40.8722296 L42,29.1277704 C42,27.3447329 41.8143488,26.6981604 41.4657346,26.0463086 C41.1171204,25.3944567 40.6055433,24.8828796 39.9536914,24.5342654 C39.3018396,24.1856512 38.6552671,24 36.8722296,24 Z M28,30 C29.6568542,30 31,31.3431458 31,33 C31,34.3058822 30.1656226,35.4168852 29.0009007,35.8289758 L29,39 C29,39.5522847 28.5522847,40 28,40 C27.4477153,40 27,39.5522847 27,39 L27.0000889,35.8293257 C25.8348501,35.4175144 25,34.3062521 25,33 C25,31.3431458 26.3431458,30 28,30 Z M28,7.99999695 C24.1340068,7.99999695 21,11.1340037 21,14.9999969 L21,20.9999969 L35,20.9999969 L35,14.9999969 C35,11.1340037 31.8659932,7.99999695 28,7.99999695 Z" id="↳-Icon-Color" fill="currentColor" fill-rule="nonzero"></path>
        </g>
    </g>
</svg>
