<svg fill="none" height="56" viewBox="0 0 56 56" width="56" xmlns="http://www.w3.org/2000/svg"><path d="m34.7467 6c12.32 0 15.2533 2.93333 15.2533 15.2533v13.4934c0 12.32-2.9333 15.2533-15.2533 15.2533h-13.4934c-12.31997 0-15.2533-2.9333-15.2533-15.2533v-13.4934c0-12.31997 2.93333-15.2533 15.2533-15.2533zm-17.2883 13.75h-3.2083c-.9167 0-1.1001.4315-1.1001.9074 0 .8497 1.0877 5.0645 5.0645 10.6389 2.6512 3.8068 6.3866 5.8704 9.7856 5.8704 2.0393 0 2.2916-.4584 2.2916-1.2478v-2.8772c0-.9167.1932-1.0996.839-1.0996.4759 0 1.2916.2379 3.1951 2.0733 2.1754 2.1754 2.534 3.1513 3.7576 3.1513h3.2083c.9167 0 1.375-.4584 1.1106-1.3629-.2893-.9014-1.3279-2.2094-2.7061-3.7598-.7478-.8837-1.8694-1.8354-2.2094-2.3113-.4758-.6118-.3398-.8838 0-1.4276l.0572-.0809c.4834-.6871 3.8809-5.559 4.2596-7.2949.2039-.6798 0-1.1793-.9702-1.1793h-3.2083c-.8158 0-1.1919.4315-1.3959.9074 0 0-1.6315 3.9768-3.9428 6.56-.7478.7478-1.0877.9857-1.4956.9857-.2039 0-.4991-.2379-.4991-.9177v-6.3561c0-.8157-.2368-1.1793-.9166-1.1793h-5.0417c-.5098 0-.8164.3786-.8164.7375 0 .7733 1.1556.9516 1.2747 3.127v4.7246c0 1.0359-.187 1.2237-.5949 1.2237-1.0877 0-3.7334-3.9946-5.3025-8.5655-.3075-.8884-.616-1.2473-1.4359-1.2473z" fill="currentColor"/></svg>
