<svg width="56" height="56" viewBox="0 0 56 56" fill="none" xmlns="http://www.w3.org/2000/svg">
<path fill-rule="evenodd" clip-rule="evenodd" d="M9.09295 9.09295C6 12.1859 6 17.1639 6 27.12V28.88C6 38.8361 6 43.8141 9.09295 46.907C12.1859 50 17.1639 50 27.12 50H28.88C38.8361 50 43.8141 50 46.907 46.907C50 43.8141 50 38.8361 50 28.88V27.12C50 17.1639 50 12.1859 46.907 9.09295C43.8141 6 38.8361 6 28.88 6H27.12C17.1639 6 12.1859 6 9.09295 9.09295ZM13.4 19.4C13.6379 30.8306 19.3478 37.7 29.3585 37.7H29.9259V31.1603C33.6044 31.5267 36.386 34.2195 37.5023 37.7H42.7C41.2725 32.4976 37.5206 29.6216 35.1781 28.5225C37.5206 27.1669 40.8148 23.8697 41.6017 19.4H36.8799C35.8551 23.027 32.8175 26.3243 29.9259 26.6357V19.4H25.2041V32.0763C22.2759 31.3435 18.5792 27.7898 18.4145 19.4H13.4Z" fill="currentColor"/>
</svg>
