<svg xmlns="http://www.w3.org/2000/svg" width="56" height="56" fill="none" viewBox="0 0 56 56"><path fill="currentColor" d="M20.1375 4.0032c.8819-.0554 1.6417.6147 1.6971 1.4966l.8034 12.8c.0554.8819-.6147 1.6417-1.4966 1.6971-.8819.0554-1.6417-.6147-1.6971-1.4966l-.8034-12.8c-.0554-.882.6147-1.6417 1.4966-1.6971Zm20.3387 20.3579c-.629-.5391-1.5759-.4663-2.1151.1627-.5391.629-.4662 1.5759.1627 2.1151 3.1664 2.714 4.4738 6.2733 4.4762 9.2889v.0084C43 41.5085 37.8336 49 28.0726 49c-3.6537 0-7.4623-1.4151-10.3445-3.7971-2.8735-2.3748-4.7282-5.6202-4.7281-9.2669 0-1.6862.5189-3.43 1.6146-4.7253C15.6748 29.9574 17.3763 29 20.0361 29c1.4413 0 3.8129.7027 5.0594 4.0266.2909.7757 1.1555 1.1687 1.9312.8778.7757-.2908 1.1687-1.1555.8778-1.9311-1.7523-4.6728-5.3769-5.9716-7.8632-5.9733h-.0049c-3.4702 0-6.0368 1.2926-7.7122 3.2732C10.6842 31.2119 10 33.6864 10 35.9362c0 4.7294 2.4132 8.7662 5.8169 11.5792C19.2119 50.3212 23.6896 52 28.0726 52 39.5539 52 45.9971 43.1026 46 35.941v-.0049c0-3.8549-1.6612-8.2642-5.5238-11.575Z M35.8247 5.0573c.852.2346 1.3524 1.1154 1.1178 1.9674l-3.8 13.8001c-.2346.852-1.1154 1.3524-1.9674 1.1178-.8519-.2346-1.3524-1.1154-1.1178-1.9673l3.8001-13.8002c.2346-.8519 1.1154-1.3524 1.9673-1.1178Z" clip-rule="evenodd"/></svg>
