<svg xmlns="http://www.w3.org/2000/svg" width="56" height="56" fill="currentColor" viewBox="0 0 56 56"><path fill-rule="evenodd" d="M10.139 9.603C12.266 8.465 14.364 8 19.383 8h17.234c5.019 0 7.117.465 9.244 1.603a10.924 10.924 0 0 1 4.536 4.536C51.535 16.266 52 18.364 52 23.383V29.5a1.5 1.5 0 0 1-3 0v-6.117c0-4.83-.454-6.344-1.248-7.83a8.374 8.374 0 0 0-.445-.738l-9.761 9.76-.078.078c-1.934 1.934-3.493 3.493-4.884 4.554-1.444 1.102-2.882 1.808-4.584 1.808-1.703 0-3.14-.706-4.584-1.808-1.391-1.061-2.95-2.62-4.884-4.554l-.078-.078-9.76-9.76c-.16.236-.309.482-.446.739-.794 1.485-1.248 3-1.248 7.83v9.233c0 4.83.454 6.344 1.248 7.83a7.925 7.925 0 0 0 3.306 3.305c1.485.794 3 1.248 7.83 1.248h7.967a1.5 1.5 0 0 1 0 3h-7.968c-5.019 0-7.117-.465-9.244-1.603a10.924 10.924 0 0 1-4.536-4.536C4.465 39.734 4 37.636 4 32.617v-9.234c0-5.019.465-7.117 1.603-9.244a10.924 10.924 0 0 1 4.536-4.536Zm.676 3.09 9.76 9.761c2.03 2.03 3.448 3.444 4.66 4.368 1.178.898 1.982 1.193 2.765 1.193.783 0 1.587-.295 2.765-1.193 1.212-.924 2.63-2.338 4.66-4.368l9.76-9.76a8.374 8.374 0 0 0-.739-.446c-1.485-.794-3-1.248-7.83-1.248H19.384c-4.83 0-6.344.454-7.83 1.248a8.374 8.374 0 0 0-.738.445ZM52 41.5C52 47.299 47.299 52 41.5 52S31 47.299 31 41.5 35.701 31 41.5 31 52 35.701 52 41.5Zm-12-5a1.5 1.5 0 0 1 3 0V40h3.5a1.5 1.5 0 0 1 0 3H43v3.5a1.5 1.5 0 0 1-3 0V43h-3.5a1.5 1.5 0 0 1 0-3H40v-3.5Z" clip-rule="evenodd"/></svg>
