<?xml version="1.0" encoding="UTF-8"?>
<svg width="56px" height="56px" viewBox="0 0 56 56" version="1.1" xmlns="http://www.w3.org/2000/svg" xmlns:xlink="http://www.w3.org/1999/xlink">
    <!-- Generator: Sketch 61.2 (89653) - https://sketch.com -->
    <title>Icons 56/mail_outline_56</title>
    <desc>Created with Sketch.</desc>
    <g id="Icons-56/mail_outline_56" stroke="none" stroke-width="1" fill="none" fill-rule="evenodd">
        <g id="mail_outline_56">
            <rect x="0" y="0" width="56" height="56"></rect>
            <path d="M40.0264018,11 C43.1467174,11 44.2782192,11.3248896 45.41896,11.9349645 C46.5597007,12.5450393 47.4549607,13.4402993 48.0650355,14.58104 C48.6751104,15.7217808 49,16.8532826 49,19.9735982 L49,36.0264018 C49,39.1467174 48.6751104,40.2782192 48.0650355,41.41896 C47.4549607,42.5597007 46.5597007,43.4549607 45.41896,44.0650355 C44.2782192,44.6751104 43.1467174,45 40.0264018,45 L15.9735982,45 C12.8532826,45 11.7217808,44.6751104 10.58104,44.0650355 C9.4402993,43.4549607 8.54503929,42.5597007 7.93496446,41.41896 C7.32488964,40.2782192 7,39.1467174 7,36.0264018 L7,19.9735982 C7,16.8532826 7.32488964,15.7217808 7.93496446,14.58104 C8.54503929,13.4402993 9.4402993,12.5450393 10.58104,11.9349645 C11.7217808,11.3248896 12.8532826,11 15.9735982,11 L40.0264018,11 Z M45.9996383,22.343 L29.8857618,29.7817047 C28.6892338,30.3339484 27.3107662,30.3339484 26.1142382,29.7817047 L9.99963826,22.344 L10,36.0264018 C10,38.4183659 10.151284,39.2017786 10.5804041,40.0041634 C10.9108795,40.6220987 11.3779013,41.0891205 11.9958366,41.4195959 C12.7982214,41.848716 13.5816341,42 15.9735982,42 L40.0264018,42 C42.4183659,42 43.2017786,41.848716 44.0041634,41.4195959 C44.6220987,41.0891205 45.0891205,40.6220987 45.4195959,40.0041634 C45.848716,39.2017786 46,38.4183659 46,36.0264018 L45.9996383,22.343 Z M40.3171372,14.0007971 L15.9735982,14 C13.5816341,14 12.7982214,14.151284 11.9958366,14.5804041 C11.3779013,14.9108795 10.9108795,15.3779013 10.5804041,15.9958366 C10.2124717,16.6838103 10.0487916,17.3578366 10.0095944,19.0437912 L27.3714127,27.0578265 C27.7702554,27.2419078 28.2297446,27.2419078 28.6285873,27.0578265 L45.9903822,19.042784 C45.9511431,17.3575682 45.787455,16.6836733 45.4195959,15.9958366 C45.0891205,15.3779013 44.6220987,14.9108795 44.0041634,14.5804041 C43.2352113,14.169164 42.4836832,14.0130894 40.3171372,14.0007971 Z" id="↳-Icon-Color" fill="currentColor" fill-rule="nonzero"></path>
        </g>
    </g>
</svg>
