<?xml version="1.0" encoding="UTF-8"?>
<svg width="56px" height="56px" viewBox="0 0 56 56" version="1.1" xmlns="http://www.w3.org/2000/svg" xmlns:xlink="http://www.w3.org/1999/xlink">
    <!-- Generator: Sketch 55.2 (78181) - https://sketchapp.com -->
    <title>market_outline_56</title>
    <desc>Created with Sketch.</desc>
    <g id="Page-1" stroke="none" stroke-width="1" fill="none" fill-rule="evenodd">
        <g id="market_outline_56" fill-rule="nonzero">
            <rect id="Rectangle" x="0" y="0" width="56" height="56"></rect>
            <g id="Source" transform="translate(8.000000, 6.000000)" fill="currentColor">
                <path d="M14,9 L26,9 C26,5.6862915 23.3137085,3 20,3 C16.6862915,3 14,5.6862915 14,9 Z M29,9 L29.8556438,9 C31.6303768,9 32.6587431,9.18386178 33.751405,9.72441456 C34.8060875,10.2461785 35.6720316,11.0356467 36.288813,12.0377312 C36.9278049,13.0759011 37.205697,14.0829356 37.3693242,15.8501094 L38.9815747,33.2624143 C39.388932,37.6618734 36.1526941,41.5585681 31.753235,41.9659254 C31.5080286,41.9886297 31.2619046,42 31.0156493,42 L8.98435069,42 C4.56607269,42 0.98435069,38.418278 0.98435069,34 C0.98435069,33.7537447 0.995721,33.5076207 1.0184253,33.2624143 L2.63067575,15.8501094 C2.79430296,14.0829356 3.07219515,13.0759011 3.711187,12.0377312 C4.32796837,11.0356467 5.19391252,10.2461785 6.24859498,9.72441456 C7.34125688,9.18386178 8.36962321,9 10.1443562,9 L11,9 C11,4.02943725 15.0294373,-8.8817842e-16 20,-8.8817842e-16 C24.9705627,-8.8817842e-16 29,4.02943725 29,9 Z M10.1443562,12 C8.66588195,12 8.12860809,12.141387 7.57884804,12.4133598 C7.02908799,12.6853327 6.58753353,13.0878912 6.26603225,13.6102343 C5.94453097,14.1325773 5.75421045,14.6545271 5.61789777,16.1267041 L4.00564732,33.5390089 C3.99145713,33.692263 3.98435069,33.8460904 3.98435069,34 C3.98435069,36.7614237 6.22292694,39 8.98435069,39 L31.0156493,39 C31.1695589,39 31.3233864,38.9928936 31.4766404,38.9787034 C34.2263023,38.724105 36.248951,36.2886709 35.9943527,33.5390089 L34.3821022,16.1267041 C34.2457895,14.6545271 34.055469,14.1325773 33.7339677,13.6102343 C33.4124665,13.0878912 32.970912,12.6853327 32.421152,12.4133598 C31.8713919,12.141387 31.3341181,12 29.8556438,12 L10.1443562,12 Z" id="Combined-Shape"></path>
            </g>
        </g>
    </g>
</svg>
