<svg xmlns="http://www.w3.org/2000/svg" width="56" height="56" fill="currentColor" viewBox="0 0 56 56"><path fill-rule="evenodd" d="m37.54 6.432-1.568.24c-3.334.526-5.484.728-7.973.728-2.31 0-4.323-.176-7.22-.612l-2.313-.355-.72-.104c-5.117-.712-6.652-.357-8.885 1.973-4.053 4.227-3.666 17.23.313 26.916C12.878 44.234 20.1 50 28 50s15.121-5.766 18.825-14.782c3.98-9.687 4.366-22.689.314-26.916l-.354-.359c-2.149-2.094-3.805-2.317-9.244-1.511ZM18.02 9.4l2.31.355c3.041.457 5.201.645 7.67.645 2.512 0 4.705-.193 7.866-.675l2.122-.326.646-.094c4.025-.572 4.823-.415 6.037.768l.319.322c2.989 3.119 2.636 14.978-.94 23.682C40.775 42.047 34.573 47 28 47s-12.776-4.952-16.05-12.922c-3.576-8.704-3.928-20.563-.923-23.699l.202-.206c1.379-1.38 2.183-1.455 6.791-.772Zm15.865 26.023a1.5 1.5 0 0 0-1.963-.805 11.43 11.43 0 0 1-4.421.881 11.43 11.43 0 0 1-4.421-.881 1.5 1.5 0 1 0-1.158 2.767A14.429 14.429 0 0 0 27.5 38.5c1.94 0 3.83-.382 5.579-1.114a1.5 1.5 0 0 0 .805-1.962ZM20.5 20a5.546 5.546 0 0 1 4.795 2.743 1.5 1.5 0 0 1-2.511 1.635l-.08-.121A2.546 2.546 0 0 0 20.5 23a2.55 2.55 0 0 0-2.11 1.106l-.095.15a1.5 1.5 0 0 1-2.59-1.513A5.546 5.546 0 0 1 20.5 20Zm19.795 2.743A5.546 5.546 0 0 0 35.5 20a5.546 5.546 0 0 0-4.795 2.743 1.5 1.5 0 0 0 2.59 1.514l.095-.15A2.548 2.548 0 0 1 35.5 23c.922 0 1.754.486 2.205 1.257l.079.121a1.5 1.5 0 0 0 2.511-1.635Z" clip-rule="evenodd"/></svg>
