<?xml version="1.0" encoding="UTF-8"?>
<svg width="56px" height="56px" viewBox="0 0 56 56" version="1.1" xmlns="http://www.w3.org/2000/svg" xmlns:xlink="http://www.w3.org/1999/xlink">
    <!-- Generator: Sketch 55.2 (78181) - https://sketchapp.com -->
    <title>mention_outline_56</title>
    <desc>Created with Sketch.</desc>
    <g id="Page-1" stroke="none" stroke-width="1" fill="none" fill-rule="evenodd">
        <g id="mention_outline_56">
            <rect id="Mask" x="0" y="0" width="56" height="56"></rect>
            <path d="M28.2710027,49.4119241 C24.2059417,49.4119241 20.6468084,48.5944075 17.5934959,46.9593496 C14.5401835,45.3242917 12.1779668,42.9891751 10.5067751,39.9539295 C8.83558333,36.918684 8,33.3595507 8,29.2764228 L8,27.7317073 C8,23.6666463 8.85816667,20.0623463 10.5745257,16.9186992 C12.2908848,13.775052 14.6892348,11.336052 17.7696477,9.60162602 C20.8500606,7.8672 24.3775772,7 28.3523035,7 L28.5691057,7 C32.3270287,7 35.6829121,7.7859 38.6368564,9.35772358 C41.5908007,10.9295472 43.889784,13.0930305 45.5338753,15.8482385 C47.1779667,18.6034465 48,21.6973631 48,25.1300813 L48,26.5121951 C48,28.8970309 47.6160833,30.9927642 46.8482385,32.799458 C46.0803936,34.6061518 45.0099436,36.0018018 43.6368564,36.9864499 C42.2637691,37.971098 40.7100358,38.4634146 38.9756098,38.4634146 C37.9277274,38.4634146 36.9611607,38.3008146 36.0758808,37.9756098 C35.1906008,37.6504049 34.4679341,37.1987382 33.9078591,36.6205962 C33.347784,36.0424542 33.0135507,35.3830209 32.9051491,34.6422764 L32.6612466,34.6422764 C32.4986442,35.2565523 32.1327942,35.8617856 31.5636856,36.4579946 C30.9945771,37.0542035 30.2854604,37.5374869 29.4363144,37.9078591 C28.5871683,38.2782313 27.683835,38.4634146 26.7262873,38.4634146 C25.3170661,38.4634146 24.0885328,38.120148 23.0406504,37.4336043 C21.992768,36.7470607 21.179768,35.7443607 20.601626,34.4254743 C20.023484,33.1065878 19.7344173,31.5347878 19.7344173,29.7100271 L19.7344173,27.298103 C19.7344173,25.54561 20.023484,24.0189767 20.601626,22.7181572 C21.179768,21.4173377 22.0108347,20.4146377 23.0948509,19.7100271 C24.1788672,19.0054165 25.4616005,18.6531165 26.9430894,18.6531165 C28.2800428,18.6531165 29.4363095,19.0008999 30.4119241,19.696477 C31.3875388,20.3920541 32.0289054,21.2186041 32.3360434,22.1761518 L32.5257453,22.1761518 L32.5257453,20.9566396 C32.5257453,20.3965645 32.6657619,19.9629645 32.9457995,19.6558266 C33.225837,19.3486886 33.618787,19.195122 34.1246612,19.195122 C34.6305355,19.195122 35.0234855,19.3532053 35.303523,19.6693767 C35.5835606,19.9855481 35.7235772,20.4146314 35.7235772,20.9566396 L35.7235772,32.1219512 C35.7235772,33.2782352 36.0668439,34.1635019 36.7533875,34.7777778 C37.4399312,35.3920537 38.3251978,35.699187 39.4092141,35.699187 C40.4751634,35.699187 41.4191467,35.3288203 42.2411924,34.5880759 C43.0632381,33.8473314 43.7046047,32.7633314 44.1653117,31.3360434 C44.6260186,29.9087553 44.8563686,28.2104886 44.8563686,26.2411924 L44.8563686,25.2384824 C44.8563686,22.3297054 44.1698352,19.7055221 42.796748,17.3658537 C41.4236607,15.0261852 39.5040774,13.1924186 37.0379404,11.8644986 C34.5718034,10.5365787 31.7488867,9.87262873 28.5691057,9.87262873 L28.3523035,9.87262873 C25.0099201,9.87262873 22.0424701,10.6223954 19.4498645,12.1219512 C16.8572589,13.621507 14.8383089,15.735307 13.3929539,18.4634146 C11.9475989,21.1915222 11.2249322,24.3351222 11.2249322,27.8943089 L11.2249322,29.1138211 C11.2249322,32.6549409 11.9340489,35.7398243 13.3523035,38.3685637 C14.7705581,40.9973031 16.7669248,43.0207698 19.3414634,44.4390244 C21.916002,45.857279 24.8924854,46.5663957 28.2710027,46.5663957 L28.4878049,46.5663957 C29.8608921,46.5663957 31.6404588,46.4037957 33.8265583,46.0785908 C34.7299051,45.9701892 35.2448051,45.9069558 35.3712737,45.8888889 C35.7687463,45.870822 36.1029797,45.9747053 36.3739837,46.200542 C36.6449878,46.4263787 36.7804878,46.7289954 36.7804878,47.1084011 C36.7804878,47.5239407 36.6540211,47.8762407 36.401084,48.1653117 C36.1481469,48.4543827 35.7868136,48.653116 35.3170732,48.7615176 C33.5645802,49.1951241 31.2881802,49.4119241 28.4878049,49.4119241 L28.2710027,49.4119241 Z M23.0677507,29.303523 C23.0677507,31.3270201 23.483284,32.8717201 24.3143631,33.9376694 C25.1454423,35.0036187 26.3017089,35.5365854 27.7831978,35.5365854 C29.2285528,35.5365854 30.3757862,35.0307187 31.2249322,34.0189702 C32.0740783,33.0072217 32.498645,31.5438217 32.498645,29.6287263 L32.498645,27.1897019 C32.498645,25.4733428 32.0695617,24.0776928 31.2113821,23.00271 C30.3532026,21.9277272 29.1924192,21.3902439 27.7289973,21.3902439 C26.2836423,21.3902439 25.1454423,21.9277272 24.3143631,23.00271 C23.483284,24.0776928 23.0677507,25.5546428 23.0677507,27.4336043 L23.0677507,29.303523 Z" id="Mask" fill="currentColor"></path>
        </g>
    </g>
</svg>
