<?xml version="1.0" encoding="UTF-8"?>
<svg width="56px" height="56px" viewBox="0 0 56 56" version="1.1" xmlns="http://www.w3.org/2000/svg" xmlns:xlink="http://www.w3.org/1999/xlink">
    <!-- Generator: Sketch 61.2 (89653) - https://sketch.com -->
    <title>Icons 56/message_read_outline_56</title>
    <desc>Created with Sketch.</desc>
    <g id="Icons-56/message_read_outline_56" stroke="none" stroke-width="1" fill="none" fill-rule="evenodd">
        <g id="message_read_outline_56">
            <rect x="0" y="0" width="56" height="56"></rect>
            <path d="M28.4721435,6 C32.9729767,6 37.2823237,7.15849939 40.9481554,9.29883502 C41.663569,9.71653699 41.9049119,10.6351086 41.48721,11.3505222 C41.069508,12.0659357 40.1509364,12.3072787 39.4355228,11.8895767 C36.2301869,10.0181066 32.4430684,9 28.4721435,9 C17.6735073,9 9,16.5014842 9,25.6382452 C9,30.2441237 11.2063833,34.5627339 15.0585997,37.6939141 C15.5314752,38.0782794 15.7248192,38.7105278 15.5477999,39.2936334 C14.9964796,41.1096956 14.0416359,43.2456568 12.6838966,45.7144843 C16.8041058,44.630772 19.935269,43.3490233 22.0660261,41.8935619 C22.4146493,41.6554271 22.8474867,41.5752361 23.2582809,41.672675 C24.9413065,42.0718829 26.6901928,42.2764903 28.4721435,42.2764903 C39.2707796,42.2764903 47.944287,34.7750062 47.944287,25.6382452 C47.944287,23.7196125 47.5641364,21.8468718 46.8280314,20.0762157 C46.5100198,19.3112581 46.8723411,18.4333381 47.6372988,18.1153265 C48.4022564,17.7973149 49.2801763,18.1596363 49.5981879,18.9245939 C50.4847648,21.0572009 50.944287,23.320951 50.944287,25.6382452 C50.944287,36.5364365 40.8386973,45.2764903 28.4721435,45.2764903 C26.6805284,45.2764903 24.9156921,45.0932655 23.2039893,44.734244 C20.5650501,46.3971378 16.9084431,47.7856773 12.2221386,48.9256198 C11.6045659,49.0758442 10.9528866,48.983183 10.4016643,48.6667697 C9.21399795,47.9850238 8.80386839,46.4695658 9.48560834,45.2819098 C10.8058922,42.9818072 11.7669629,40.9978826 12.3693887,39.3414304 C8.32824282,35.7171986 6,30.8467101 6,25.6382452 C6,14.7400538 16.1055896,6 28.4721435,6 Z M48.3106604,10.9393401 C48.8964467,11.5251267 48.8964465,12.4748741 48.3106599,13.0606604 L30.0606508,31.3106604 C29.474864,31.8964469 28.5251163,31.8964465 27.93933,31.3106595 L20.4393392,23.8106595 C19.8535531,23.2248727 19.8535537,22.2751253 20.4393405,21.6893392 C21.0251273,21.1035531 21.9748747,21.1035537 22.5606608,21.6893405 L29,28.1286793 L46.1893401,10.9393396 C46.7751267,10.3535533 47.7248741,10.3535535 48.3106604,10.9393401 Z" id="↳-Icon-Color" fill="currentColor" fill-rule="nonzero"></path>
        </g>
    </g>
</svg>
