<svg fill="none" height="56" viewBox="0 0 56 56" width="56" xmlns="http://www.w3.org/2000/svg"><g fill="currentColor"><path clip-rule="evenodd" d="m16 16c0-6.62742 5.3726-12 12-12s12 5.37258 12 12v9c0 6.6274-5.3726 12-12 12s-12-5.3726-12-12zm12-9c-4.9705 0-9 4.0294-9 9v9c0 4.9706 4.0295 9 9 9 4.9706 0 9-4.0294 9-9v-9c0-4.9706-4.0294-9-9-9z" fill-rule="evenodd"/><path d="m11.8791 31.91c-.3258-.7616-1.2074-1.1149-1.96907-.7891-.76165.3258-1.11495 1.2074-.78911 1.9691 2.93568 6.8622 9.54928 11.7938 17.37908 12.3563v5.0537c0 .8284.6716 1.5 1.5 1.5s1.5-.6716 1.5-1.5v-5.0537c7.8299-.5625 14.4434-5.4941 17.3791-12.3563.3259-.7617-.0274-1.6433-.7891-1.9691-.7616-.3258-1.6432.0275-1.9691.7891-2.6622 6.2229-8.8762 10.59-16.1209 10.59s-13.4587-4.3671-16.1209-10.59z"/></g></svg>
