<svg xmlns="http://www.w3.org/2000/svg" width="56" height="56" fill="currentColor" viewBox="0 0 56 56"><path fill-rule="evenodd" d="M11 18a8 8 0 0 1 16 0v9a8 8 0 1 1-16 0v-9Zm13 0v9a5 5 0 1 1-10 0v-9a5 5 0 0 1 10 0Zm8.5 3h2.372c2.079 0 3.262.228 4.496.889a6.634 6.634 0 0 1 2.743 2.742c.31.579.524 1.146.665 1.798l2.646-1.464c1.77-.98 4.04-.412 5.073 1.267.33.538.505 1.15.505 1.773v7.99c0 1.944-1.66 3.52-3.71 3.52a3.862 3.862 0 0 1-1.868-.48l-2.646-1.464a6.69 6.69 0 0 1-.665 1.797 6.634 6.634 0 0 1-2.743 2.743c-1.234.66-2.417.889-4.496.889H32.5a1.5 1.5 0 1 1 0-3h2.372c1.783 0 2.43-.186 3.082-.534a3.634 3.634 0 0 0 1.512-1.512c.348-.652.534-1.299.534-3.082v-5.744c0-1.783-.186-2.43-.534-3.082a3.634 3.634 0 0 0-1.512-1.512c-.652-.348-1.299-.534-3.082-.534H32.5a1.5 1.5 0 0 1 0-3Zm10.57 13.305-.07-.04v-4.53l.07-.04 3.805-2.105a.873.873 0 0 1 .633-.078.686.686 0 0 1 .43.29.384.384 0 0 1 .062.203v7.99a.425.425 0 0 1-.151.313.802.802 0 0 1-.558.206c-.155 0-.3-.04-.416-.104l-3.804-2.105Z M6.311 31.858a1.5 1.5 0 0 1 2.021.644A11.999 11.999 0 0 0 19 39a12 12 0 0 0 10.668-6.498 1.5 1.5 0 0 1 2.664 1.378c-2.274 4.4-6.667 7.533-11.832 8.046V45a1.5 1.5 0 1 1-3 0v-3.074c-5.165-.513-9.558-3.646-11.833-8.046a1.5 1.5 0 0 1 .644-2.022Z"/></svg>
