<?xml version="1.0" encoding="UTF-8"?>
<svg width="56px" height="56px" viewBox="0 0 56 56" version="1.1" xmlns="http://www.w3.org/2000/svg" xmlns:xlink="http://www.w3.org/1999/xlink">
    <!-- Generator: Sketch 61.2 (89653) - https://sketch.com -->
    <title>Icons 56/money_transfer_outline_56</title>
    <desc>Created with Sketch.</desc>
    <g id="Icons-56/money_transfer_outline_56" stroke="none" stroke-width="1" fill="none" fill-rule="evenodd">
        <g id="money_transfer_outline_56">
            <rect x="0" y="0" width="56" height="56"></rect>
            <path d="M42.3083444,8 C44.9829006,8 45.9527593,8.27847683 46.9305371,8.80139811 C47.9083149,9.32431939 48.6756806,10.0916851 49.1986019,11.0694629 C49.7215232,12.0472407 50,13.0170994 50,15.6916556 L50,32.5 C50,33.3284271 49.3284271,34 48.5,34 C47.6715729,34 47,33.3284271 47,32.5 L47,20.999 L9,20.999 L9,35.1541722 C9,36.4078704 9.12237751,36.912434 9.35311163,37.3734392 L9.40069906,37.4652686 C9.66215969,37.9541574 10.0458426,38.3378403 10.5347314,38.5993009 C10.9930648,38.8444203 11.4479181,38.9821178 12.6048676,38.9983725 L12.8458278,39 L44.877,38.999 L39.4393398,33.5606602 C38.8535534,32.9748737 38.8535534,32.0251263 39.4393398,31.4393398 C40.0251263,30.8535534 40.9748737,30.8535534 41.5606602,31.4393398 L49.5606602,39.4393398 C50.1464466,40.0251263 50.1464466,40.9748737 49.5606602,41.5606602 L41.5606602,49.5606602 C40.9748737,50.1464466 40.0251263,50.1464466 39.4393398,49.5606602 C38.8535534,48.9748737 38.8535534,48.0251263 39.4393398,47.4393398 L44.878,42 L13.6916556,42 C11.0170994,42 10.0472407,41.7215232 9.06946289,41.1986019 C8.09168511,40.6756806 7.32431939,39.9083149 6.80139811,38.9305371 C6.27847683,37.9527593 6,36.9829006 6,34.3083444 L6,15.6916556 C6,13.0170994 6.27847683,12.0472407 6.80139811,11.0694629 C7.32431939,10.0916851 8.09168511,9.32431939 9.06946289,8.80139811 C10.0472407,8.27847683 11.0170994,8 13.6916556,8 L42.3083444,8 Z M43.1541722,11 L12.8458278,11 C11.5085497,11 11.0236203,11.1392384 10.5347314,11.4006991 C10.0458426,11.6621597 9.66215969,12.0458426 9.40069906,12.5347314 C9.15557971,12.9930648 9.01788223,13.4479181 9.00162755,14.6048676 L9,14.8458278 L9,17.999 L47,17.999 L47,14.8458278 C47,13.5921296 46.8776225,13.087566 46.6468884,12.6265608 L46.5993009,12.5347314 C46.3378403,12.0458426 45.9541574,11.6621597 45.4652686,11.4006991 C44.9763797,11.1392384 44.4914503,11 43.1541722,11 Z" id="↳-Icon-Color" fill="currentColor" fill-rule="nonzero"></path>
        </g>
    </g>
</svg>
