<svg fill="none" height="56" viewBox="0 0 56 56" width="56" xmlns="http://www.w3.org/2000/svg"><path clip-rule="evenodd" d="m29.1244 4.97647c.2215.59249.0475 1.26026-.435 1.66934-3.7887 3.21237-6.1894 8.00219-6.1894 13.35419 0 9.665 7.835 17.5 17.5 17.5 2.8777 0 5.5891-.6935 7.9804-1.921.5632-.2892 1.2474-.1936 1.7098.239s.6033 1.1089.3523 1.6901c-3.6809 8.5226-12.1629 14.4919-22.0425 14.4919-13.2548 0-24-10.7452-24-24 0-13.155 10.5837-23.83783 23.701-23.99818.6325-.00773 1.2019.38215 1.4234.97465zm-5.3092 2.44048c-9.5928 1.93978-16.8152 10.41805-16.8152 20.58305 0 11.598 9.402 21 21 21 7.228 0 13.6054-3.6519 17.3841-9.2148-1.7166.4662-3.522.7148-5.3841.7148-11.3218 0-20.5-9.1782-20.5-20.5 0-4.743 1.6118-9.1104 4.3152-12.58305z" fill="currentColor" fill-rule="evenodd"/></svg>
