<?xml version="1.0" encoding="UTF-8"?>
<svg width="56px" height="56px" viewBox="0 0 56 56" version="1.1" xmlns="http://www.w3.org/2000/svg" xmlns:xlink="http://www.w3.org/1999/xlink">
    <!-- Generator: Sketch 61.2 (89653) - https://sketch.com -->
    <title>Icons 56/newsfeed_outline_56</title>
    <desc>Created with Sketch.</desc>
    <g id="Icons-56/newsfeed_outline_56" stroke="none" stroke-width="1" fill="none" fill-rule="evenodd">
        <g id="newsfeed_outline_56">
            <rect x="0" y="0" width="56" height="56"></rect>
            <path d="M20.319426,6 L35.1021505,6.00131388 C38.8298316,6.02507775 40.7829457,6.37426874 42.6721584,7.29808991 L43.0916268,7.51294372 C44.9826591,8.52427888 46.4757211,10.0173409 47.4870563,11.9083732 C48.5347944,13.8674732 48.9446968,15.7590196 48.9946938,19.4908786 L49,20.319426 L49,34.680574 L48.9946938,35.5091214 C48.9446968,39.2409804 48.5347944,41.1325268 47.4870563,43.0916268 C46.4757211,44.9826591 44.9826591,46.4757211 43.0916268,47.4870563 C41.1325268,48.5347944 39.2409804,48.9446968 35.5091214,48.9946938 L34.680574,49 L20.319426,49 L19.4908786,48.9946938 C15.7590196,48.9446968 13.8674732,48.5347944 11.9083732,47.4870563 C10.0173409,46.4757211 8.52427888,44.9826591 7.51294372,43.0916268 C6.46520556,41.1325268 6.05530321,39.2409804 6.00530618,35.5091214 L6,34.680574 L6.00131388,19.8978495 C6.02507775,16.1701684 6.37426874,14.2170543 7.29808991,12.3278416 L7.51294372,11.9083732 C8.52427888,10.0173409 10.0173409,8.52427888 11.9083732,7.51294372 C13.8674732,6.46520556 15.7590196,6.05530321 19.4908786,6.00530618 L20.319426,6 Z M46.000703,20.9143985 C45.8441149,20.9698327 45.6755804,21 45.5,21 L45.5,21 L9.5,21 C9.32479157,21 9.15659927,20.9699604 9.00029246,20.9147505 L9,34.680574 L9.00407677,35.4183396 C9.04248379,38.725587 9.35724118,40.1788247 10.1583833,41.6768302 C10.8901191,43.0450571 11.9549429,44.1098809 13.3231698,44.8416167 C14.8211753,45.6427588 16.274413,45.9575162 19.5816604,45.9959232 L20.319426,46 L34.680574,46 L35.4183396,45.9959232 C38.725587,45.9575162 40.1788247,45.6427588 41.6768302,44.8416167 C43.0450571,44.1098809 44.1098809,43.0450571 44.8416167,41.6768302 C45.6427588,40.1788247 45.9575162,38.725587 45.9959232,35.4183396 L46,34.680574 Z M34.680574,9 L20.319426,9 L19.5816604,9.00407677 C16.274413,9.04248379 14.8211753,9.35724118 13.3231698,10.1583833 C11.9549429,10.8901191 10.8901191,11.9549429 10.1583833,13.3231698 C9.49131263,14.5704835 9.1614551,15.7867594 9.04756199,18.0681248 C9.19095337,18.0242289 9.34264721,18 9.5,18 L9.5,18 L45.5,18 C45.6573528,18 45.8090466,18.0242289 45.9515543,18.0691595 C45.8385575,15.7868057 45.5087001,14.5705072 44.8416167,13.3231698 C44.1098809,11.9549429 43.0450571,10.8901191 41.6768302,10.1583833 C40.0718243,9.30001675 38.5182101,9 34.680574,9 Z" id="↳-Icon-Color" fill="currentColor" fill-rule="nonzero"></path>
        </g>
    </g>
</svg>
