<svg xmlns="http://www.w3.org/2000/svg" width="56" height="56" fill="currentColor" viewBox="0 0 56 56"><path fill-rule="evenodd" d="M22.757 7.051a1.993 1.993 0 0 0-1.857.533l-3.33 3.329a1.5 1.5 0 1 1-2.12-2.122l3.329-3.329a4.993 4.993 0 0 1 4.653-1.334l5.017 1.158a1.5 1.5 0 0 1-.675 2.923L22.757 7.05Zm13.926 1.674a1.5 1.5 0 0 1 1.8-1.124l5.016 1.158A4.993 4.993 0 0 1 47.24 12.5l1.158 5.017a1.5 1.5 0 1 1-2.923.674l-1.158-5.016a1.993 1.993 0 0 0-1.494-1.494l-5.017-1.158a1.5 1.5 0 0 1-1.124-1.799Zm-25.77 6.725a1.5 1.5 0 0 1 0 2.12l-3.33 3.33a1.993 1.993 0 0 0-.532 1.857l1.158 5.017a1.5 1.5 0 0 1-2.923.674l-1.158-5.016a4.993 4.993 0 0 1 1.334-4.653l3.33-3.33a1.5 1.5 0 0 1 2.12 0Zm38.003 10.977a1.5 1.5 0 0 1 1.798 1.125l1.158 5.016a4.993 4.993 0 0 1-1.334 4.654l-3.33 3.329a1.5 1.5 0 1 1-2.12-2.122l3.328-3.329a1.993 1.993 0 0 0 .533-1.857l-1.158-5.017a1.5 1.5 0 0 1 1.125-1.799ZM8.726 36.683a1.5 1.5 0 0 1 1.798 1.124l1.158 5.017a1.993 1.993 0 0 0 1.494 1.494l5.016 1.158a1.5 1.5 0 1 1-.674 2.923l-5.017-1.158A4.993 4.993 0 0 1 8.76 43.5L7.6 38.482a1.5 1.5 0 0 1 1.124-1.799Zm31.825 8.404a1.5 1.5 0 0 1 0 2.122l-3.33 3.329a4.993 4.993 0 0 1-4.653 1.334l-5.016-1.158a1.5 1.5 0 0 1 .674-2.923l5.017 1.158a1.993 1.993 0 0 0 1.857-.533l3.33-3.329a1.5 1.5 0 0 1 2.12 0Z" clip-rule="evenodd"/></svg>
