<svg xmlns="http://www.w3.org/2000/svg" width="56" height="56" fill="currentColor" viewBox="0 0 56 56"><path d="M37.56 23.56a1.5 1.5 0 1 0-2.12-2.12L25 31.878l-3.94-3.94a1.5 1.5 0 1 0-2.12 2.122l5 5a1.5 1.5 0 0 0 2.12 0l11.5-11.5Z M23.432 4.128a4.993 4.993 0 0 0-4.653 1.334L5.462 18.78a4.993 4.993 0 0 0-1.334 4.653L8.758 43.5a4.993 4.993 0 0 0 3.743 3.742l20.067 4.631a4.993 4.993 0 0 0 4.654-1.334l13.316-13.316a4.993 4.993 0 0 0 1.334-4.654l-4.63-20.067a4.993 4.993 0 0 0-3.743-3.742L23.432 4.128ZM20.9 7.584a1.993 1.993 0 0 1 1.857-.533l20.067 4.631a1.993 1.993 0 0 1 1.494 1.494l4.63 20.067a1.993 1.993 0 0 1-.532 1.857L35.1 48.416a1.993 1.993 0 0 1-1.857.533l-20.067-4.631a1.993 1.993 0 0 1-1.494-1.494l-4.63-20.067a1.993 1.993 0 0 1 .532-1.857L20.9 7.584Z" clip-rule="evenodd"/></svg>
