<svg xmlns="http://www.w3.org/2000/svg" width="56" height="57" fill="currentColor" viewBox="0 0 56 57"><path d="M29 2.16a5.5 5.5 0 0 0-2.002 0c-.75.139-1.447.482-2.332.919l-3.538 1.74a1.5 1.5 0 1 0 1.324 2.691l1.369-.673 2.015-.99c1.113-.549 1.417-.683 1.708-.737a2.5 2.5 0 0 1 .91 0c.291.053.594.188 1.706.735v.001l3.38 1.664a1.5 1.5 0 1 0 1.325-2.691l-1-.493-2.533-1.247c-.885-.437-1.582-.78-2.333-.92ZM10.838 9.884c-.864.424-1.544.758-2.102 1.253a5.5 5.5 0 0 0-1.209 1.537c-.35.66-.514 1.398-.724 2.338l-.036.161h-.002l-.848 3.797a1.5 1.5 0 0 0 2.928.654l.386-1.732h.003l.46-2.063c.264-1.18.347-1.493.483-1.749.14-.264.326-.5.55-.698.216-.193.5-.347 1.586-.88l2.087-1.028v-.001l1.291-.635a1.5 1.5 0 0 0-1.325-2.692l-3.382 1.665-.146.073ZM3.003 32.906c-.033-.736.13-1.464.338-2.39l.035-.16h-.002l.848-3.797a1.5 1.5 0 1 1 2.927.654l-.26 1.165h.003l-.587 2.63c-.26 1.164-.318 1.478-.305 1.763a2.5 2.5 0 0 0 .193.856c.11.264.297.523 1.03 1.463l1.513 1.938-.002.001.846 1.084a1.5 1.5 0 0 1-2.365 1.846l-2.359-3.023.002-.002-.101-.129c-.584-.748-1.044-1.336-1.33-2.015a5.5 5.5 0 0 1-.424-1.884ZM14.4 49.163c.602.773 1.076 1.38 1.686 1.83a5.5 5.5 0 0 0 1.786.872c.73.204 1.5.204 2.48.203h3.906a1.5 1.5 0 0 0 0-3h-3.735c-1.231 0-1.56-.013-1.844-.092a2.502 2.502 0 0 1-.812-.396c-.236-.175-.45-.427-1.207-1.397l-1.43-1.833-.002.001-.93-1.191a1.5 1.5 0 1 0-2.364 1.845l2.362 3.027.001-.001.103.132Zm23.726 2.702c-.73.204-1.5.204-2.48.203h-3.912a1.5 1.5 0 0 1 0-3h3.741c1.231 0 1.56-.013 1.844-.092.292-.082.567-.216.811-.396.237-.175.45-.426 1.206-1.395l-.001-.002 2.36-3.023a1.5 1.5 0 1 1 2.364 1.845l-.918 1.177h.002l-1.546 1.981c-.602.773-1.075 1.38-1.686 1.83a5.5 5.5 0 0 1-1.785.872Zm13.115-15.06c.584-.748 1.044-1.336 1.33-2.015a5.502 5.502 0 0 0 .424-1.884c.033-.736-.13-1.464-.338-2.39l-.389-1.742h-.003l-.494-2.215a1.5 1.5 0 1 0-2.928.654l.848 3.795h.002c.26 1.163.318 1.478.305 1.763a2.5 2.5 0 0 1-.193.856c-.11.264-.297.523-1.03 1.463l-.002.001h-.001l-2.36 3.022a1.5 1.5 0 1 0 2.365 1.846l1.22-1.562v.001l1.244-1.593ZM48.47 12.674c.35.66.515 1.398.724 2.338l.409 1.828H49.6l.476 2.13a1.5 1.5 0 1 1-2.928.654l-.847-3.795h.002c-.263-1.18-.346-1.493-.482-1.749-.14-.264-.326-.5-.55-.698-.216-.193-.5-.347-1.586-.88l-.002-.002v.001l-3.381-1.663a1.5 1.5 0 0 1 1.324-2.692l2.058 1.013.001-.001 1.475.726c.864.424 1.543.758 2.102 1.253a5.5 5.5 0 0 1 1.209 1.537Z"/></svg>
