<svg xmlns="http://www.w3.org/2000/svg" width="56" height="56" fill="currentColor" viewBox="0 0 56 56"><path d="M39.063 20.44a1.5 1.5 0 0 0-2.121 0l-12.94 12.939-5.939-5.94a1.5 1.5 0 0 0-2.121 2.122l7 7a1.5 1.5 0 0 0 2.121 0l14-14a1.5 1.5 0 0 0 0-2.122Z"/><path fill-rule="evenodd" d="M29.001 2.089a5.5 5.5 0 0 0-2 0c-.752.139-1.448.482-2.334.919L10.838 9.813c-.864.425-1.543.758-2.101 1.254a5.5 5.5 0 0 0-1.21 1.537c-.35.659-.514 1.398-.723 2.337L3.34 30.446c-.208.926-.37 1.655-.338 2.391a5.5 5.5 0 0 0 .424 1.884c.286.68.746 1.268 1.33 2.016L14.4 49.095c.602.773 1.076 1.38 1.686 1.83a5.5 5.5 0 0 0 1.786.872c.73.204 1.5.204 2.48.203h15.295c.98 0 1.75.001 2.48-.203a5.5 5.5 0 0 0 1.786-.871c.61-.45 1.084-1.058 1.686-1.83l9.645-12.36c.584-.747 1.044-1.336 1.33-2.015a5.5 5.5 0 0 0 .423-1.884c.034-.736-.13-1.465-.337-2.39L49.198 14.94c-.21-.939-.374-1.678-.724-2.337a5.498 5.498 0 0 0-1.209-1.537c-.558-.495-1.238-.83-2.102-1.254L31.334 3.008c-.885-.437-1.581-.78-2.333-.92Zm-1.455 2.95a2.5 2.5 0 0 1 .91 0c.291.054.595.188 1.708.736l13.524 6.656c1.085.534 1.37.688 1.587.88a2.5 2.5 0 0 1 .55.699c.135.256.218.569.481 1.75l3.39 15.179c.26 1.164.318 1.477.306 1.763a2.5 2.5 0 0 1-.193.857c-.111.263-.298.522-1.031 1.462L39.34 47.115c-.757.97-.97 1.222-1.207 1.397a2.5 2.5 0 0 1-.811.396c-.284.08-.613.092-1.844.092H20.524c-1.231 0-1.56-.013-1.844-.092a2.498 2.498 0 0 1-.811-.396c-.237-.175-.45-.427-1.208-1.397L7.224 35.02c-.734-.94-.92-1.199-1.031-1.462A2.5 2.5 0 0 1 6 32.702c-.013-.286.045-.6.305-1.763l3.39-15.18c.264-1.18.346-1.493.482-1.75a2.5 2.5 0 0 1 .55-.698c.217-.192.501-.346 1.586-.88l13.524-6.656c1.114-.548 1.418-.682 1.71-.736Z" clip-rule="evenodd"/></svg>
