<svg xmlns="http://www.w3.org/2000/svg" width="56" height="57" fill="currentColor" viewBox="0 0 56 57"><path d="M39.062 20.44a1.5 1.5 0 0 0-2.121 0L24 33.378l-5.94-5.94a1.5 1.5 0 0 0-2.12 2.122l7 7a1.5 1.5 0 0 0 2.12 0l14-14a1.5 1.5 0 0 0 0-2.122Z M29 2.089a5.5 5.5 0 0 0-2 0c-.752.139-1.449.482-2.334.919L10.837 9.813c-.864.425-1.543.758-2.102 1.254a5.501 5.501 0 0 0-1.209 1.537c-.35.659-.514 1.398-.723 2.337L3.34 30.446c-.208.926-.371 1.655-.338 2.391a5.5 5.5 0 0 0 .424 1.884c.286.68.745 1.268 1.33 2.015l9.644 12.36c.602.772 1.076 1.38 1.686 1.83a5.502 5.502 0 0 0 1.786.871c.73.204 1.5.204 2.48.203h15.295c.98 0 1.75.001 2.48-.203a5.502 5.502 0 0 0 1.786-.871c.61-.45 1.084-1.058 1.686-1.83l9.644-12.36c.585-.747 1.044-1.336 1.33-2.015a5.5 5.5 0 0 0 .424-1.884c.033-.736-.13-1.465-.337-2.39L49.197 14.94c-.21-.94-.374-1.678-.724-2.337a5.502 5.502 0 0 0-1.21-1.537c-.557-.495-1.237-.83-2.1-1.254l-13.83-6.805c-.885-.437-1.582-.78-2.333-.92Zm-1.455 2.95a2.5 2.5 0 0 1 .91 0c.29.054.595.188 1.708.736l13.524 6.656c1.085.534 1.37.688 1.586.88a2.5 2.5 0 0 1 .55.699c.136.256.219.569.482 1.749l3.39 15.18c.26 1.163.318 1.477.305 1.763a2.497 2.497 0 0 1-.193.856c-.11.264-.297.523-1.03 1.463l-9.438 12.094c-.757.97-.97 1.222-1.207 1.397a2.5 2.5 0 0 1-.812.396c-.283.079-.612.092-1.844.092H20.523c-1.231 0-1.56-.013-1.844-.092a2.502 2.502 0 0 1-.812-.396c-.237-.175-.45-.427-1.207-1.397L7.223 35.02c-.734-.94-.92-1.199-1.031-1.463a2.5 2.5 0 0 1-.193-.856c-.013-.286.045-.6.305-1.763l3.39-15.18c.263-1.18.346-1.493.482-1.75a2.5 2.5 0 0 1 .55-.698c.216-.192.501-.346 1.586-.88l13.524-6.656c1.114-.548 1.417-.682 1.709-.736Z" clip-rule="evenodd"/></svg>
