<svg fill="none" height="56" viewBox="0 0 56 56" width="56" xmlns="http://www.w3.org/2000/svg"><g fill="currentColor"><path d="m38.5607 21.4393c.5857.5858.5857 1.5356 0 2.1214l-12 12c-.5858.5857-1.5356.5857-2.1214 0l-6-6c-.5857-.5858-.5857-1.5356 0-2.1214.5858-.5857 1.5356-.5857 2.1214 0l4.9393 4.9394 10.9393-10.9394c.5858-.5857 1.5356-.5857 2.1214 0z"/><path clip-rule="evenodd" d="m20 5.5c0-.82843-.6716-1.5-1.5-1.5s-1.5.67157-1.5 1.5v1.60786l-.0765.00612c-1.4268.11657-2.6341.35978-3.7364.92146-1.7875.9108-3.24086 2.36416-4.15166 4.15166-.56168 1.1023-.80489 2.3096-.92146 3.7364-.114 1.3952-.11399 3.1262-.11398 5.3105v14.532c-.00001 2.1843-.00002 3.9153.11398 5.3105.11657 1.4268.35978 2.6341.92146 3.7364.9108 1.7875 2.36416 3.2409 4.15166 4.1517 1.1023.5616 2.3096.8049 3.7364.9214 1.3952.114 3.1262.114 5.3105.114h11.532c2.1843 0 3.9153 0 5.3105-.114 1.4268-.1165 2.6341-.3598 3.7364-.9214 1.7875-.9108 3.2409-2.3642 4.1517-4.1517.5616-1.1023.8049-2.3096.9214-3.7364.114-1.3952.114-3.1262.114-5.3105v-14.532c0-2.1843 0-3.9153-.114-5.3105-.1165-1.4268-.3598-2.6341-.9214-3.7364-.9108-1.7875-2.3642-3.24086-4.1517-4.15166-1.1023-.56168-2.3096-.80489-3.7364-.92146-.0254-.00208-.0509-.00412-.0765-.00612v-1.60786c0-.82843-.6716-1.5-1.5-1.5s-1.5.67157-1.5 1.5v1.50568c-.6871-.00569-1.4298-.00568-2.234-.00568h-4.266v-1.5c0-.82843-.6716-1.5-1.5-1.5s-1.5.67157-1.5 1.5v1.5h-4.266c-.8041 0-1.5469-.00001-2.234.00568zm16 4.5059c-.6842-.0057-1.4454-.0059-2.3-.0059h-4.2v1.5c0 .8284-.6716 1.5-1.5 1.5s-1.5-.6716-1.5-1.5v-1.5h-4.2c-.8546 0-1.6158.0002-2.3.0059v1.4941c0 .8284-.6716 1.5-1.5 1.5s-1.5-.6716-1.5-1.5v-1.3815c-1.1436.1048-1.8699.2939-2.4509.59-1.2231.6231-2.2175 1.6175-2.8406 2.8406-.3103.6089-.5031 1.3774-.6045 2.6187-.1028 1.2587-.104 2.8672-.104 5.1322v14.4c0 2.265.0012 3.8735.104 5.1322.1014 1.2413.2942 2.0098.6045 2.6187.6231 1.2231 1.6175 2.2175 2.8406 2.8406.6089.3103 1.3774.5031 2.6187.6045 1.2587.1028 2.8672.104 5.1322.104h11.4c2.265 0 3.8735-.0012 5.1322-.104 1.2413-.1014 2.0098-.2942 2.6187-.6045 1.2231-.6231 2.2175-1.6175 2.8406-2.8406.3103-.6089.5031-1.3774.6045-2.6187.1028-1.2587.104-2.8672.104-5.1322v-14.4c0-2.265-.0012-3.8735-.104-5.1322-.1014-1.2413-.2942-2.0098-.6045-2.6187-.6231-1.2231-1.6175-2.2175-2.8406-2.8406-.581-.2961-1.3073-.4852-2.4509-.59v1.3815c0 .8284-.6716 1.5-1.5 1.5s-1.5-.6716-1.5-1.5z" fill-rule="evenodd"/></g></svg>
