<svg fill="none" height="56" viewBox="0 0 56 56" width="56" xmlns="http://www.w3.org/2000/svg"><g fill="currentColor"><path d="m18 27c0 1.6569-1.3431 3-3 3s-3-1.3431-3-3 1.3431-3 3-3 3 1.3431 3 3z"/><path d="m44 27c0 1.6569-1.3431 3-3 3s-3-1.3431-3-3 1.3431-3 3-3 3 1.3431 3 3z"/><path d="m25 17c0 1.6569-1.3431 3-3 3s-3-1.3431-3-3 1.3431-3 3-3 3 1.3431 3 3z"/><path d="m37 17c0 1.6569-1.3431 3-3 3s-3-1.3431-3-3 1.3431-3 3-3 3 1.3431 3 3z"/><path clip-rule="evenodd" d="m4 28c0-13.2337 10.7663-24 24-24 12.7596 0 24 9.1761 24 21.4512 0 7.6674-6.22 13.5488-13.8049 13.5488h-4.5113c-1.3862 0-2.6838 1.3317-2.6838 3 0 .7393.2141 1.3753.6123 1.822l.0232.0261.0227.0265c.0088.0102.0184.0214.0289.0335.3066.3556 1.3129 1.5225 1.3129 3.0919 0 2.8284-2.1716 5-5 5-13.2337 0-24-10.7663-24-24zm24-21c-11.5769 0-21 9.4231-21 21s9.4231 21 21 21c1.1716 0 2-.8284 2-2 0-.1586-.0553-.3523-.1848-.5821s-.2894-.4213-.4347-.5908l-.0038-.0045-.004-.0045c-.9976-1.1193-1.3727-2.5263-1.3727-3.8181 0-3.036 2.3656-6 5.6838-6h4.5113c6.0111 0 10.8049-4.6202 10.8049-10.5488 0-10.2439-9.4963-18.4512-21-18.4512z" fill-rule="evenodd"/></g></svg>
