<?xml version="1.0" encoding="UTF-8"?>
<svg width="56px" height="56px" viewBox="0 0 56 56" version="1.1" xmlns="http://www.w3.org/2000/svg" xmlns:xlink="http://www.w3.org/1999/xlink">
    <!-- Generator: Sketch 61.2 (89653) - https://sketch.com -->
    <title>Icons 56/phone_outline_56</title>
    <desc>Created with Sketch.</desc>
    <g id="Icons-56/phone_outline_56" stroke="none" stroke-width="1" fill="none" fill-rule="evenodd">
        <g id="phone_outline_56">
            <polygon points="0 0 56 0 56 56 0 56"></polygon>
            <path d="M33.4072971,35.7596018 L31.8990025,37.2680178 C31.082921,38.0850673 29.866628,38.3537675 28.7805799,37.955899 C27.0309264,37.3124873 24.9977446,35.794094 22.6052478,33.4014042 C20.2102017,31.0061647 18.6927512,28.9739173 18.0531134,27.2254281 C17.6549086,26.1419214 17.9219237,24.9257785 18.7390757,24.1071125 L20.2492768,22.5988254 C22.4891041,20.3588173 22.6923811,16.8544746 20.7465829,14.5467802 L18.9746952,12.4407114 C17.4956555,10.6815102 14.8048499,10.5019847 12.9630874,12.0679444 C12.2452785,12.68657 11.7056482,13.4856604 11.4010139,14.3795375 C11.2696917,14.7676628 11.184884,15.1700018 11.140909,15.6447072 C10.3064417,21.8390175 13.3531952,28.4710598 20.444366,35.5628029 C27.53521,42.6542193 34.1645996,45.6995092 40.4183941,44.858282 C41.7819036,44.7281267 43.0427317,44.0771773 43.931345,43.0492336 C45.5038901,41.2027889 45.3242739,38.5097254 43.565248,37.0293406 L41.4608736,35.2565563 C39.1504458,33.3140901 35.6474216,33.5192965 33.4072971,35.7596018 Z M31.2858912,33.638367 C34.6128288,30.3111609 39.8739299,30.0029668 43.392579,32.9612323 L45.4975279,34.7344999 C48.5459776,37.3000549 48.8526207,41.8976897 46.2081202,45.0027365 C44.8073514,46.6232368 42.8357068,47.6411716 40.7611663,47.8380696 C33.5014816,48.8159208 26.0154011,45.3770996 18.32296,37.6840376 C10.6302601,29.9907168 7.19001062,22.5021295 8.16030562,15.3107712 C8.21796718,14.6662984 8.35189136,14.0309443 8.5603278,13.4149175 C9.03832922,12.012318 9.88214197,10.7627912 11.0121824,9.78893814 C14.1117495,7.15345565 18.7065963,7.46001529 21.2706392,10.5097425 L23.0411509,12.6141771 C26.0036337,16.1276457 25.6982506,21.3922238 22.3699674,24.7207752 L20.8768618,26.2119863 C21.3411639,27.4628697 22.624287,29.1776329 24.7266538,31.2801694 C26.826383,33.3800681 28.54179,34.6641843 29.7927471,35.1316316 L31.2858912,33.638367 Z" id="↳-Icon-Color" fill="currentColor" fill-rule="nonzero"></path>
        </g>
    </g>
</svg>
