<svg fill="none" height="56" viewBox="0 0 56 56" width="56" xmlns="http://www.w3.org/2000/svg"><g fill="currentColor"><path d="m30.2445 4 .7437.0054c2.9808.04551 4.526.38441 6.1266 1.24041 1.4607.78123 2.6359 1.91111 3.4749 3.34638l.1746.31222.1502.2914c.7711 1.55269 1.0658 3.17989 1.0846 6.25149.0001.0105.0001 9.034.0002 9.0445.0045.8284-.6634 1.5037-1.4918 1.5082s-1.5037-.6633-1.5082-1.4918l-.0079-9.6515c-.041-2.0315-.2287-3.1194-.6272-4.0352l-.1259-.2703-.1296-.2512c-.5574-1.04229-1.3664-1.85132-2.4087-2.40875-1.1871-.63488-2.3387-.87285-5.1145-.89021l-8.83-.00104c-2.7379 0-4.0032.19962-5.0717.6979l-.1326.06385-.2512.1295c-1.0423.55743-1.8513 1.36646-2.4087 2.40875-.6349 1.1871-.8729 2.3387-.8903 5.1145l-.001 20.83c0 2.7379.1996 4.0032.6979 5.0717l.0638.1326.1296.2512c.5574 1.0423 1.3664 1.8513 2.4087 2.4087 1.1001.5884 2.1339.8256 4.4384.8798l.3222.0063 3.6949.0052h.7445c.8284 0 1.5.6716 1.5 1.5s-.6716 1.5-1.5 1.5h-.7557l-3.7183-.0055c-2.9887-.0467-4.5258-.3766-6.1408-1.2403-1.4607-.7812-2.6359-1.9111-3.4749-3.3464l-.1746-.3122-.1502-.2914c-.7309-1.4718-1.0357-3.0161-1.0798-5.8036l-.0057-.7561v-20.489l.0054-.7437c.0455-2.9808.3844-4.526 1.2404-6.12658.7812-1.46077 1.9111-2.63595 3.3464-3.47489l.3122-.1746.2914-.15026c1.4718-.73084 3.0161-1.03568 5.8036-1.07977l.7561-.0057z"/><path d="m30 33.8c0-1.6802 0-2.5202.327-3.162.2876-.5645.7465-1.0234 1.311-1.311.6418-.327 1.4818-.327 3.162-.327h6.4c1.6802 0 2.5202 0 3.162.327.5645.2876 1.0234.7465 1.311 1.311.327.6418.327 1.4818.327 3.162v13.4c0 1.6802 0 2.5202-.327 3.162-.2876.5645-.7465 1.0234-1.311 1.311-.6418.327-1.4818.327-3.162.327h-6.4c-1.6802 0-2.5202 0-3.162-.327-.5645-.2876-1.0234-.7465-1.311-1.311-.327-.6418-.327-1.4818-.327-3.162z"/></g></svg>
