<svg width="56" height="56" viewBox="0 0 56 56" fill="none" xmlns="http://www.w3.org/2000/svg"><path fill-rule="evenodd" clip-rule="evenodd" d="M23.558 49.933C14.87 39.385 10 30.096 10 22.441 10 12.335 17.981 4 28 4s18 8.335 18 18.441c0 7.655-4.871 16.944-13.558 27.492-2.259 2.744-6.605 2.768-8.884 0zm2.315-1.91c1.095 1.331 3.169 1.319 4.254 0C38.75 37.554 43 28.976 43 22.442c0-8.527-6.717-15.439-15-15.439-8.283 0-15 6.912-15 15.44 0 6.533 4.25 15.11 12.873 25.582z" fill="currentColor"/><path fill-rule="evenodd" clip-rule="evenodd" d="M28 18.012c-2.761 0-5 2.24-5 5.004a5.002 5.002 0 0 0 5 5.004c2.761 0 5-2.24 5-5.004a5.002 5.002 0 0 0-5-5.004zm-8 5.004c0-4.422 3.582-8.007 8-8.007s8 3.585 8 8.007-3.582 8.006-8 8.006-8-3.584-8-8.006z" fill="currentColor"/></svg>
