<?xml version="1.0" encoding="UTF-8"?>
<svg width="56px" height="56px" viewBox="0 0 56 56" version="1.1" xmlns="http://www.w3.org/2000/svg" xmlns:xlink="http://www.w3.org/1999/xlink">
    <!-- Generator: Sketch 61.2 (89653) - https://sketch.com -->
    <title>Icons 56/place_outline_56</title>
    <desc>Created with Sketch.</desc>
    <g id="Icons-56/place_outline_56" stroke="none" stroke-width="1" fill="none" fill-rule="evenodd">
        <g id="place_outline_56">
            <rect x="0" y="0" width="56" height="56"></rect>
            <path d="M28,8 C36.836556,8 44,15.163444 44,24 C44,30.257671 40.1691034,37.8420143 32.592399,46.8532192 C32.3701982,47.1174893 32.1256009,47.3620866 31.8613308,47.5842874 C29.3250154,49.7168446 25.5401466,49.3895323 23.4075978,46.8532153 C15.8308955,37.8420122 12,30.2576701 12,24 C12,15.163444 19.163444,8 28,8 Z M28,11 C20.8202983,11 15,16.8202983 15,24 C15,29.3943358 18.5395694,36.4019155 25.7037992,44.9225525 C26.7700737,46.1907111 28.6625071,46.3543672 29.9306654,45.2880881 C30.0628006,45.1769876 30.1850993,45.0546889 30.2961998,44.9225537 C37.4604295,36.4019175 41,29.3943366 41,24 C41,16.8202983 35.1797017,11 28,11 Z M28,17 C31.8648542,17 35,20.1351458 35,24 C35,27.8648542 31.8648542,31 28,31 C24.1351458,31 21,27.8648542 21,24 C21,20.1351458 24.1351458,17 28,17 Z M28,20 C25.792,20 24,21.792 24,24 C24,26.208 25.792,28 28,28 C30.208,28 32,26.208 32,24 C32,21.792 30.208,20 28,20 Z" id="↳-Icon-Color" fill="currentColor" fill-rule="nonzero"></path>
        </g>
    </g>
</svg>
