<svg width="56" height="56" viewBox="0 0 56 56" fill="none" xmlns="http://www.w3.org/2000/svg">
<path fill-rule="evenodd" clip-rule="evenodd" d="M30.8962 8.08441C29.3805 7.70548 27.8507 8.65099 27.5117 10.1761L25.4643 19.3896C25.2846 20.1983 24.4833 20.7082 23.6746 20.5285C23.0111 20.381 22.5487 19.8151 22.5034 19.17L20.7509 11.097C20.4854 9.8738 19.4045 9.00135 18.1546 9.00135C16.571 9.00135 15.339 10.3799 15.5139 11.9561L16.8605 24.0932C17.9047 23.7092 19.0317 23.5 20.205 23.5H21.1977C23.8551 23.5 26.1513 25.3563 26.7081 27.9546C27.3235 30.8264 25.6301 33.6893 22.8171 34.5332L21.4719 34.9367C20.6784 35.1748 19.8422 34.7245 19.6041 33.931C19.3661 33.1375 19.8164 32.3013 20.6099 32.0633L21.955 31.6597C23.2706 31.265 24.0625 29.9262 23.7747 28.5832C23.5143 27.3681 22.4404 26.5 21.1977 26.5H20.205C16.6819 26.5 13.7621 29.2316 13.5278 32.7469C13.0507 39.903 18.8362 46 26.0409 46H26.5C27.3284 46 28 46.6716 28 47.5C28 48.3284 27.3284 49 26.5 49H26.0409H26V48.9999C17.1116 48.9769 9.94063 41.4539 10.5344 32.5473C10.7181 29.7914 12.0415 27.3681 14.0261 25.7249L12.5353 12.2875C12.1631 8.9334 14.7848 6 18.1546 6C20.8143 6 23.1145 7.85653 23.6795 10.4594L24.0235 12.044L24.5832 9.52533C25.2882 6.35262 28.4707 4.38571 31.6238 5.17398C34.4946 5.89167 36.3589 8.66252 35.9422 11.5921L34.6927 20.2683C39.3787 21.4051 43.0107 25.2835 43.81 30.1C43.8297 30.1969 43.84 30.2972 43.84 30.4C43.84 31.2284 43.1684 31.9 42.34 31.9C41.5758 31.9 40.9451 31.3285 40.8519 30.5897L40.85 30.59C40.1951 26.6186 36.9974 23.4993 32.9867 22.9951C32.9213 22.9944 32.8552 22.9895 32.7888 22.98C31.9686 22.8633 31.3983 22.1002 31.515 21.28L32.972 11.1696C33.1724 9.76136 32.2762 8.4294 30.8962 8.08441ZM34.5999 45.6432C34.3333 45.7983 33.9988 45.6059 33.9988 45.2974L33.9988 34.7026C33.9988 34.3941 34.3333 34.2017 34.5999 34.3568L43.7068 39.6543C43.972 39.8085 43.972 40.1915 43.7068 40.3458L34.5999 45.6432ZM45.8076 37.4037C47.7975 38.5612 47.7975 41.4388 45.8076 42.5963L35.5052 48.5892C33.506 49.7521 31 48.3079 31 45.9929V34.0071C31 31.6921 33.506 30.2479 35.5052 31.4108L45.8076 37.4037Z" fill="currentColor"/>
</svg>
