<svg fill="none" height="56" viewBox="0 0 56 56" width="56" xmlns="http://www.w3.org/2000/svg"><path clip-rule="evenodd" d="m28.5 9c-10.9833 0-19.5 7.6479-19.5 16.6382 0 4.6988 2.2908 8.9894 6.0669 12.0533.4737.3843.6674 1.0172.4901 1.6009-.5594 1.8408-1.5269 3.9868-2.8684 6.4228 4.1962-1.102 7.3012-2.3913 9.3979-3.8221.3484-.2378.7808-.3179 1.1913-.2207 1.66.3933 3.411.6041 5.2222.6041 10.9833 0 19.5-7.6479 19.5-16.6383 0-8.9903-8.5167-16.6382-19.5-16.6382zm-22.5 16.6382c0-11.0446 10.2874-19.6382 22.5-19.6382s22.5 8.5936 22.5 19.6382c0 11.0447-10.2874 19.6383-22.5 19.6383-1.8152 0-3.5823-.1876-5.2763-.5426-2.682 1.6885-6.3771 3.0697-10.9962 4.1918-.6174.15-1.2689.0575-1.8202-.2585-1.10431-.633-1.53725-1.985-1.04573-3.1285.01147-.0267.0237-.053.0367-.079l.05122-.1024c.01209-.0241.02483-.0479.03821-.0714l.24093-.4227.00132-.0024c1.21505-2.15 2.08965-3.9866 2.64815-5.5206-3.91661-3.509-6.3781-8.3335-6.3781-13.702zm23-8.1382c-1.431 0-2.7024 1.0335-3.0473 2.3739-.2065.8022-1.0243 1.2852-1.8266 1.0787s-1.2852-1.0242-1.0788-1.8265c.6743-2.6196 3.1055-4.6261 5.9527-4.6261 3.3638 0 6 2.6362 6 6 0 1.275-.3188 2.2945-.8383 3.155-.4948.8195-1.1449 1.4423-1.666 1.935l-.0451.0426c-1.0519.9942-1.7639 1.6672-1.9657 3.0795-.1171.8201-.8769 1.39-1.697 1.2728s-1.39-.877-1.2728-1.6971c.3519-2.4635 1.7499-3.7778 2.7719-4.7387l.0005-.0005c.05-.047.0991-.0932.1472-.1386.5321-.5031.8994-.8761 1.1588-1.3056.2345-.3884.4065-.871.4065-1.6044 0-1.707-1.2931-3-3-3zm0 18.5c.9665 0 1.75-.7835 1.75-1.75s-.7835-1.75-1.75-1.75-1.75.7835-1.75 1.75.7835 1.75 1.75 1.75z" fill="currentColor" fill-rule="evenodd"/></svg>
