<?xml version="1.0" encoding="UTF-8"?>
<svg width="56px" height="56px" viewBox="0 0 56 56" version="1.1" xmlns="http://www.w3.org/2000/svg" xmlns:xlink="http://www.w3.org/1999/xlink">
    <!-- Generator: Sketch 61.2 (89653) - https://sketch.com -->
    <title>Icons 56/recent_outline_56</title>
    <desc>Created with Sketch.</desc>
    <g id="Icons-56/recent_outline_56" stroke="none" stroke-width="1" fill="none" fill-rule="evenodd">
        <g id="recent_outline_56">
            <rect x="0" y="0" width="56" height="56"></rect>
            <path d="M28,4 C41.254834,4 52,14.745166 52,28 C52,41.254834 41.254834,52 28,52 C14.745166,52 4,41.254834 4,28 C4,14.745166 14.745166,4 28,4 Z M28,7 C16.4020203,7 7,16.4020203 7,28 C7,39.5979797 16.4020203,49 28,49 C39.5979797,49 49,39.5979797 49,28 C49,16.4020203 39.5979797,7 28,7 Z M26.6611878,28.6771632 L26.6385866,28.630021 C26.6298279,28.6110513 26.6214704,28.5919121 26.6135179,28.5726175 C26.582857,28.4992491 26.5582385,28.4231394 26.5397843,28.3446527 C26.5373645,28.3329564 26.5347515,28.3212765 26.5322774,28.3095657 C26.5271077,28.2863312 26.5228018,28.2630759 26.5190388,28.2396391 C26.5152723,28.2153755 26.511881,28.1906812 26.5091034,28.1659002 C26.5030675,28.1112612 26.5,28.0559888 26.5,28 L26.5038021,28.1087872 C26.5024467,28.0903754 26.5014295,28.0719261 26.5007532,28.0534492 L26.5,18.5 C26.5,17.6715729 27.1715729,17 28,17 C28.8284271,17 29.5,17.6715729 29.5,18.5 L29.5,18.5 L29.5,27.134 L38.2762794,32.2009619 C38.9515161,32.59081 39.20898,33.4263744 38.8916009,34.1214607 L38.8253175,34.25 C38.411104,34.9674389 37.4937184,35.2132517 36.7762794,34.7990381 L36.7762794,34.7990381 L27.25,29.2990381 C27.2398854,29.2931984 27.2298645,29.2872588 27.219938,29.281221 C27.2006923,29.2697222 27.1818738,29.2576529 27.1633487,29.2451811 C27.1466359,29.2338627 27.1300775,29.2222712 27.1138181,29.2103976 C27.094979,29.1965473 27.0765609,29.1823691 27.0584884,29.1677799 C27.036546,29.1503414 27.015343,29.1322825 26.9947413,29.1137244 C26.984766,29.1043168 26.9746062,29.0948851 26.9645787,29.0853159 C26.9422552,29.0645217 26.9210592,29.0430515 26.9006014,29.0210383 C26.8896774,29.0087106 26.8784238,28.9961913 26.8673805,28.9834843 C26.8478875,28.9616107 26.8297155,28.9393976 26.81224,28.916738 C26.7997903,28.9001173 26.7871206,28.8830008 26.7748119,28.8656107 C26.7610904,28.8465663 26.7482695,28.827458 26.7359129,28.8080932 C26.7264732,28.7931317 26.7170615,28.7778496 26.7079194,28.7623891 C26.6964044,28.7428818 26.6854182,28.7232168 26.6748896,28.703335 L26.6611878,28.6771632 L26.6611878,28.6771632 Z" id="↳-Icon-Color" fill="currentColor" fill-rule="nonzero"></path>
        </g>
    </g>
</svg>
