<svg fill="none" height="56" viewBox="0 0 56 56" width="56" xmlns="http://www.w3.org/2000/svg"><g fill="currentColor"><path clip-rule="evenodd" d="m17.0607 5.31802c.8439-.84391 1.9885-1.31802 3.1819-1.31802h15.5148c1.1934 0 2.338.4741 3.1819 1.31801l11.7427 11.74269c.844.8439 1.3181 1.9885 1.3181 3.1819v15.5148c0 1.1934-.4741 2.338-1.3181 3.1819l-11.7426 11.7427c-.8439.8439-1.9885 1.318-3.182 1.318h-15.5147c-1.1935 0-2.3381-.4741-3.182-1.318l-11.74267-11.7427c-.84392-.8439-1.31803-1.9885-1.31803-3.1819v-15.5148c0-1.1934.47411-2.338 1.31802-3.1819zm3.1819 1.68198c-.3978 0-.7793.15804-1.0606.43934l-11.74266 11.74266c-.2813.2813-.43934.6628-.43934 1.0606v15.5148c0 .3978.15804.7793.43934 1.0606l11.74266 11.7427c.2813.2813.6629.4393 1.0607.4393h15.5147c.3978 0 .7794-.158 1.0607-.4393l11.7426-11.7427c.2813-.2813.4394-.6628.4394-1.0606v-15.5148c0-.3978-.1581-.7793-.4394-1.0606l-11.7427-11.74266c-.2813-.28131-.6628-.43934-1.0606-.43934z" fill-rule="evenodd"/><path d="m30 36c0-1.1046-.8954-2-2-2s-2 .8954-2 2 .8954 2 2 2 2-.8954 2-2z"/><path d="m29.5 18c0-.8284-.6716-1.5-1.5-1.5-.7797 0-1.4204.5949-1.4931 1.3555l-.0069.1445v11c0 .8284.6716 1.5 1.5 1.5.7797 0 1.4204-.5949 1.4931-1.3555l.0069-.1445z"/></g></svg>
