<svg fill="none" height="56" viewBox="0 0 56 56" width="56" xmlns="http://www.w3.org/2000/svg"><path clip-rule="evenodd" d="m21.468 9.59817c-.501.13895-.9906.3116-1.468.49143-.1709.0643-.3411.1315-.5103.2016-2.0675.8578-3.929 2.1119-5.4899 3.6674l-.0206.0206-.0241.0242c-.8191.8223-1.5545 1.728-2.1924 2.7033-.3759.5781-.7167 1.1786-1.0201 1.7979-.0157.0417-.0334.083-.0532.1239-.3036.6296-.565 1.2686-.78525 1.9138l-.00553.0167c-.22293.6605-.40296 1.3252-.54161 1.9909-.52941 2.56-.47432 5.2807.27232 7.973 2.50907 9.0474 11.87737 14.3478 20.92477 11.8387.0666-.0185.1334-.0321.2-.0412 2.0512-.5986 3.9768-1.579 5.6682-2.8877.5547-.4315 1.0888-.9021 1.5985-1.4119.9331-.9331 1.7351-1.9476 2.4059-3.0208h.0072c.3178-.5118.6116-1.0455.8793-1.6003.3599-.7462 1.2565-1.0593 2.0027-.6994.7461.3599 1.0593 1.2565.6994 2.0027-.7739 1.6044-1.7339 3.0587-2.8416 4.3494l9.9893 9.9892c.5858.5858.5858 1.5356 0 2.1214-.5858.5857-1.5356.5857-2.1213 0l-9.9883-9.9883c-5.8489 5.0303-14.3488 6.4189-21.741 2.8534-4.3155-2.0816-7.5446-5.5097-9.42617-9.5364-.12956-.2765-.25245-.5552-.36867-.8361-.60881-1.4682-1.04778-3.0246-1.2924-4.6447-.28238-1.8523-.30647-3.7535-.05283-5.6479.405-3.0749 1.50852-5.9296 3.14595-8.3996 2.56742-3.8938 6.50062-6.91181 11.34802-8.25612.7983-.22139 1.6249.24629 1.8463 1.04459.2214.79829-.2463 1.62491-1.0446 1.8463zm13.4137 19.85193-2.9401-2.2648c-6.3494-4.8913-7.9416-6.8646-7.9416-10.8314 0-4.0615 3.3242-7.35389 7.4248-7.35389 1.7617 0 3.3834.4938 4.8302 1.45719l.245.17.245-.17c1.3153-.87581 2.7751-1.36353 4.3532-1.44497l.477-.01222c4.1006 0 7.4248 3.29239 7.4248 7.35389 0 3.9668-1.5922 5.9401-7.9416 10.8314l-2.9401 2.2648c-.9519.7332-2.2847.7332-3.2366 0z" fill="currentColor" fill-rule="evenodd"/></svg>
