<?xml version="1.0" encoding="UTF-8"?>
<svg width="56px" height="56px" viewBox="0 0 56 56" version="1.1" xmlns="http://www.w3.org/2000/svg" xmlns:xlink="http://www.w3.org/1999/xlink">
    <!-- Generator: Sketch 59 (86127) - https://sketch.com -->
    <title>Icons 56/shuffle_outline_56</title>
    <desc>Created with Sketch.</desc>
    <g id="Icons-56/shuffle_outline_56" stroke="none" stroke-width="1" fill="none" fill-rule="evenodd">
        <g id="shuffle_outline_56">
            <polygon points="0 0 56 0 56 56 0 56"></polygon>
            <path d="M42.816659,13.4378888 L48.3618863,18.9679543 C48.9496101,19.5540711 48.9496101,20.5060599 48.3618863,21.0921767 L42.816659,26.6222422 C42.2300712,27.2072261 41.2803246,27.205926 40.6953407,26.6193382 C40.1103567,26.0327503 40.1116569,25.0830038 40.6982447,24.4980198 L43.704,21.5 L35.6,21.5 C32.9435586,21.5 30.8449817,23.3859377 26.6652343,28.9994761 C30.8452301,34.6142856 32.9437159,36.5 35.6,36.5 L35.6,36.5 L43.644,36.5 L40.6982447,33.5621112 C40.1116569,32.9771272 40.1103567,32.0273806 40.6953407,31.4407928 C41.2803246,30.854205 42.2300712,30.8529048 42.816659,31.4378888 L48.3618863,36.9679543 C48.9496101,37.5540711 48.9496101,38.5060599 48.3618863,39.0921767 L42.816659,44.6222422 C42.2300712,45.2072261 41.2803246,45.205926 40.6953407,44.6193382 C40.1103567,44.0327503 40.1116569,43.0830038 40.6982447,42.4980198 L43.704,39.5 L35.6,39.5 C31.726825,39.5 29.2800573,37.4525601 24.8005692,31.5159323 C20.3199427,37.4525601 17.873175,39.5 14,39.5 L8,39.5 C7.17157288,39.5 6.5,38.8284271 6.5,38 C6.5,37.1715729 7.17157288,36.5 8,36.5 L14,36.5 C16.6562841,36.5 18.7547699,34.6142856 22.9340235,29.0015207 C18.7550183,23.3859377 16.6564414,21.5 14,21.5 L14,21.5 L8,21.5 C7.17157288,21.5 6.5,20.8284271 6.5,20 C6.5,19.1715729 7.17157288,18.5 8,18.5 L8,18.5 L14,18.5 C17.873175,18.5 20.3199427,20.5474399 24.7994308,26.4840677 C29.2800573,20.5474399 31.726825,18.5 35.6,18.5 L43.644,18.5 L40.6982447,15.5621112 C40.1116569,14.9771272 40.1103567,14.0273806 40.6953407,13.4407928 C41.2803246,12.854205 42.2300712,12.8529048 42.816659,13.4378888 Z" id="↳-Icon-Color" fill="currentColor" fill-rule="nonzero"></path>
        </g>
    </g>
</svg>
