<svg xmlns="http://www.w3.org/2000/svg" width="56" height="56" fill="none" viewBox="0 0 56 56"><path fill="currentColor" fill-rule="evenodd" d="M21 14.5c-2.2091 0-4 1.7909-4 4 0 2.2091 1.7909 4 4 4 2.2091 0 4-1.7909 4-4 0-2.2091-1.7909-4-4-4ZM14.1611 17c.6867-3.1452 3.4878-5.5 6.8389-5.5 3.3511 0 6.1522 2.3548 6.8389 5.5H50.5c.8284 0 1.5.6716 1.5 1.5s-.6716 1.5-1.5 1.5H27.8389c-.6867 3.1452-3.4878 5.5-6.8389 5.5-3.3511 0-6.1522-2.3548-6.8389-5.5H5.5c-.8284 0-1.5-.6716-1.5-1.5S4.6716 17 5.5 17h8.6611ZM37 33.5c-2.2091 0-4 1.7909-4 4 0 2.2091 1.7909 4 4 4 2.2091 0 4-1.7909 4-4 0-2.2091-1.7909-4-4-4ZM5.5 39h24.6611c.6867 3.1452 3.4878 5.5 6.8389 5.5 3.3511 0 6.1522-2.3548 6.8389-5.5H50.5c.8284 0 1.5-.6716 1.5-1.5s-.6716-1.5-1.5-1.5h-6.6611c-.6867-3.1452-3.4878-5.5-6.8389-5.5-3.3511 0-6.1522 2.3548-6.8389 5.5H5.5c-.8284 0-1.5.6716-1.5 1.5S4.6716 39 5.5 39Z" clip-rule="evenodd"/></svg>
