<svg xmlns="http://www.w3.org/2000/svg" width="56" height="56" fill="none" viewBox="0 0 56 56"><path fill="currentColor" d="M25.5 41c-.8284 0-1.5.6716-1.5 1.5s.6716 1.5 1.5 1.5h5c.8284 0 1.5-.6716 1.5-1.5s-.6716-1.5-1.5-1.5h-5Z"/><path fill="currentColor" fill-rule="evenodd" d="M11 16.8c0-4.4804 0-6.7206.8719-8.432a8.0002 8.0002 0 0 1 3.4962-3.496C17.0794 4 19.3196 4 23.8 4h8.4c4.4804 0 6.7206 0 8.4319.872a8.0002 8.0002 0 0 1 3.4962 3.496C45 10.0795 45 12.3197 45 16.8v22.4c0 4.4804 0 6.7206-.8719 8.4319a8.0004 8.0004 0 0 1-3.4962 3.4962C38.9206 52 36.6804 52 32.2 52h-8.4c-4.4804 0-6.7206 0-8.4319-.8719a8.0004 8.0004 0 0 1-3.4962-3.4962C11 45.9206 11 43.6804 11 39.2V16.8ZM23.8 7h8.4c2.2897 0 3.8266.0023 5.0101.099 1.1485.0939 1.6976.2614 2.0599.446a4.9995 4.9995 0 0 1 2.185 2.185c.1846.3623.3521.9114.446 2.0599.0967 1.1835.099 2.7204.099 5.0101v22.4c0 2.2897-.0023 3.8266-.099 5.0101-.0939 1.1485-.2614 1.6976-.446 2.0599a4.999 4.999 0 0 1-2.185 2.185c-.3623.1846-.9114.3521-2.0599.446-1.1835.0967-2.7204.099-5.0101.099h-8.4c-2.2897 0-3.8266-.0023-5.0101-.099-1.1485-.0939-1.6976-.2614-2.0599-.446a4.999 4.999 0 0 1-2.185-2.185c-.1846-.3623-.3521-.9114-.446-2.0599C14.0023 43.0266 14 41.4897 14 39.2V16.8c0-2.2897.0023-3.8266.099-5.0101.0939-1.1485.2614-1.6976.446-2.0598A4.9995 4.9995 0 0 1 16.73 7.545c.3623-.1846.9114-.3521 2.0599-.446C19.9734 7.0023 21.5103 7 23.8 7Z" clip-rule="evenodd"/></svg>
