<svg xmlns="http://www.w3.org/2000/svg" width="56" height="56" fill="currentColor" viewBox="0 0 56 56"><path d="M21.25 26.5a3.25 3.25 0 1 0 0-6.5 3.25 3.25 0 0 0 0 6.5Zm.768 7.545a1.75 1.75 0 1 0-2.537 2.41C21.653 38.742 24.696 40 28 40c3.303 0 6.347-1.258 8.52-3.545a1.75 1.75 0 0 0-2.538-2.41C32.51 35.593 30.404 36.5 28 36.5c-2.404 0-4.51-.907-5.982-2.455ZM38 23.25a3.25 3.25 0 1 1-6.5 0 3.25 3.25 0 0 1 6.5 0Z M28 52c13.255 0 24-10.745 24-24S41.255 4 28 4 4 14.745 4 28s10.745 24 24 24Zm0-3C16.402 49 7 39.598 7 28S16.402 7 28 7s21 9.402 21 21-9.402 21-21 21Z" clip-rule="evenodd"/></svg>
