<svg fill="none" height="56" viewBox="0 0 56 56" width="56" xmlns="http://www.w3.org/2000/svg"><path clip-rule="evenodd" d="m29 39.5006v2.9261c0 4.5517-1.9372 7.9717-5.0675 9.6199-2.8394 1.495-6.2428 1.2226-8.2192-.7546-2.0381-2.0389-2.2937-5.5091-.5739-8.3091 1.8617-3.0311 5.6329-4.8678 10.8606-4.9777v-25.9498l.0085-.3035c.1416-3.30766 1.867-5.62426 5.0172-6.6743 1.0869-.36232 3.2396-.91299 6.4959-1.66412l1.6479-.37599c.9381-.21192 1.8305.50136 1.8305 1.46314v4.20495c0 3.03542-2.0407 5.69162-4.9737 6.47382l-7.0263 1.8736v20.947zm6.2534-27.22-6.2534 1.6676v-1.6141c-.032-2.2791.8301-3.61941 2.756-4.33366l.2183-.0768c.9527-.31756 2.973-.83519 6.0257-1.54162v2.32355c0 1.67633-1.127 3.14313-2.7466 3.57503zm-9.2522 30.1403c0 3.4682-1.3498 5.8512-3.4653 6.9651-1.7445.9185-3.7211.7603-4.7021-.2211-1.0163-1.0167-1.1592-2.9569-.1394-4.6173 1.2383-2.0161 3.8994-3.3622 7.9141-3.5346l.3927-.013z" fill="currentColor" fill-rule="evenodd"/></svg>
