<svg width="56" height="56" fill="none" xmlns="http://www.w3.org/2000/svg"><path fill-rule="evenodd" clip-rule="evenodd" d="M36 15.208c-.601 1.232-1.366 2.48-2.339 3.453-.972.973-2.22 1.738-3.453 2.339 1.232.601 2.48 1.366 3.453 2.339.973.972 1.738 2.22 2.339 3.453.601-1.232 1.366-2.48 2.339-3.453.972-.973 2.22-1.738 3.453-2.339-1.232-.601-2.48-1.366-3.453-2.339-.973-.972-1.738-2.22-2.339-3.453zm-1.578-4.073c-.714 2.087-1.673 4.196-2.882 5.405-1.21 1.21-3.318 2.168-5.405 2.882a40.204 40.204 0 01-2.656.799c-.663.175-.663 1.383 0 1.558l.444.12a40.21 40.21 0 012.212.679c2.087.714 4.196 1.673 5.405 2.882 1.21 1.21 2.168 3.318 2.882 5.405a40.26 40.26 0 01.799 2.656c.175.663 1.383.663 1.558 0a44.05 44.05 0 01.58-1.994c.07-.22.143-.44.219-.662.714-2.087 1.673-4.196 2.882-5.405 1.21-1.21 3.318-2.168 5.405-2.882a40.026 40.026 0 012.656-.799c.663-.175.663-1.383 0-1.558a44.06 44.06 0 01-1.994-.58c-.22-.07-.44-.143-.662-.219-2.087-.714-4.196-1.673-5.405-2.882-1.21-1.21-2.168-3.318-2.882-5.405a40.204 40.204 0 01-.799-2.656c-.175-.663-1.383-.663-1.558 0a44.308 44.308 0 01-.58 1.994c-.07.22-.143.44-.219.662zM16 30.209a8.833 8.833 0 01-1.224 1.567A8.833 8.833 0 0113.21 33a8.833 8.833 0 011.567 1.224A8.833 8.833 0 0116 35.79a8.833 8.833 0 011.224-1.567A8.833 8.833 0 0118.79 33a8.833 8.833 0 01-1.567-1.224A8.833 8.833 0 0116 30.21zm-1.602-3.484c-.474 1.164-1.054 2.241-1.743 2.93-.688.688-1.766 1.269-2.93 1.743a24.18 24.18 0 01-2.312.794c-.648.19-.648 1.427 0 1.616a24.102 24.102 0 012.312.794c1.164.474 2.242 1.055 2.93 1.743.689.688 1.269 1.766 1.743 2.93a24.156 24.156 0 01.794 2.312c.19.648 1.427.648 1.616 0a24.078 24.078 0 01.794-2.312c.474-1.164 1.055-2.242 1.743-2.93.689-.688 1.766-1.269 2.93-1.743a24.078 24.078 0 012.312-.794c.648-.19.648-1.427 0-1.616a24.156 24.156 0 01-2.312-.794c-1.164-.474-2.241-1.055-2.93-1.743-.688-.689-1.269-1.766-1.743-2.93a24.078 24.078 0 01-.794-2.312c-.19-.648-1.427-.648-1.616 0a24.156 24.156 0 01-.794 2.312zM30.43 38.708c.182-.547.956-.547 1.138 0l.615 1.843a2 2 0 001.265 1.265l1.843.615c.547.182.547.956 0 1.138l-1.843.615a2 2 0 00-1.265 1.265l-.615 1.843c-.182.547-.956.547-1.138 0l-.615-1.843a2 2 0 00-1.265-1.265l-1.843-.615c-.547-.182-.547-.956 0-1.138l1.843-.615a2 2 0 001.265-1.265l.615-1.843z" fill="currentColor"/></svg>
