<svg fill="none" height="56" viewBox="0 0 56 56" width="56" xmlns="http://www.w3.org/2000/svg"><g fill="currentColor"><path clip-rule="evenodd" d="m16 30.2315c-.3442.5507-.7457 1.0864-1.2139 1.5546s-1.0039.8697-1.5546 1.2139c.5507.3442 1.0864.7457 1.5546 1.2139s.8697 1.0039 1.2139 1.5546c.3442-.5507.7457-1.0864 1.2139-1.5546s1.0039-.8697 1.5546-1.2139c-.5507-.3442-1.0864-.7457-1.5546-1.2139s-.8697-1.0039-1.2139-1.5546zm-1.5894-3.4562c-.4701 1.1547-1.0458 2.2236-1.7288 2.9065-.6829.683-1.7518 1.2587-2.90646 1.7288-.13648.0556-.27415.1096-.41253.1623-.45398.1726-.91553.3294-1.36715.4704-.17303.0541-.34461.1058-.51374.1552-.64256.1878-.64256 1.4153 0 1.603.16913.0494.34071.1012.51374.1552.45162.141.91317.2978 1.36715.4704.13838.0527.27605.1067.41253.1623 1.15466.4701 2.22356 1.0458 2.90646 1.7288.683.6829 1.2587 1.7518 1.7288 2.9065.0556.1364.1096.2741.1623.4125.1726.454.3294.9155.4704 1.3671.0541.1731.1058.3447.1552.5138.1878.6425 1.4153.6425 1.603 0 .0494-.1691.1012-.3407.1552-.5138.141-.4516.2978-.9131.4704-1.3671.0527-.1384.1067-.2761.1623-.4125.4701-1.1547 1.0458-2.2236 1.7288-2.9065.6829-.683 1.7518-1.2587 2.9065-1.7288.1364-.0556.2741-.1096.4125-.1623.454-.1726.9155-.3294 1.3671-.4704.1731-.054.3447-.1058.5138-.1552.6425-.1878.6425-1.4153 0-1.603-.1691-.0494-.3407-.1011-.5138-.1552-.4516-.141-.9131-.2978-1.3671-.4704-.1384-.0527-.2761-.1067-.4125-.1623-1.1547-.4701-2.2236-1.0458-2.9065-1.7288-.683-.6829-1.2587-1.7518-1.7288-2.9065-.0556-.1364-.1096-.2741-.1623-.4125-.1726-.454-.3294-.9155-.4704-1.3671-.054-.1731-.1058-.3447-.1552-.5138-.1877-.6425-1.4152-.6425-1.603 0-.0494.1691-.1011.3407-.1552.5138-.141.4516-.2978.9131-.4704 1.3671-.0527.1384-.1067.2761-.1623.4125z" fill-rule="evenodd"/><path clip-rule="evenodd" d="m36 15.2164c-.6003 1.2304-1.3641 2.477-2.3353 3.4483-.9713.9712-2.2179 1.735-3.4483 2.3353 1.2304.6003 2.477 1.3641 3.4483 2.3353.9712.9713 1.735 2.2179 2.3353 3.4483.6003-1.2304 1.3641-2.477 2.3353-3.4483.9713-.9712 2.2179-1.735 3.4483-2.3353-1.2304-.6003-2.477-1.3641-3.4483-2.3353-.9712-.9713-1.735-2.2179-2.3353-3.4483zm-1.5757-4.0675c-.713 2.0841-1.6706 4.1901-2.8779 5.3975-1.2074 1.2073-3.3134 2.1649-5.3975 2.8779-.2209.0756-.4416.1484-.6609.2185-.5289.169-1.0499.3221-1.5478.4593-.1501.0414-.298.0813-.4435.1198-.6623.1752-.6623 1.381 0 1.5562.1455.0385.2934.0784.4435.1198.4979.1372 1.0189.2903 1.5478.4593.2193.0701.44.1429.6609.2185 2.0841.713 4.1901 1.6706 5.3975 2.8779 1.2073 1.2074 2.1649 3.3134 2.8779 5.3975.0756.2209.1484.4416.2185.6609.169.5289.3221 1.0499.4593 1.5478.0414.1501.0813.298.1198.4435.1752.6623 1.381.6623 1.5562 0 .0385-.1455.0784-.2934.1198-.4435.1372-.4979.2903-1.0189.4593-1.5478.0701-.2193.1429-.44.2185-.6609.713-2.0841 1.6706-4.1901 2.8779-5.3975 1.2074-1.2073 3.3134-2.1649 5.3975-2.8779.2209-.0756.4416-.1484.6609-.2185.5289-.169 1.0499-.3221 1.5478-.4593.1501-.0414.298-.0813.4435-.1198.6623-.1752.6623-1.381 0-1.5562-.1455-.0385-.2934-.0784-.4435-.1198-.4979-.1372-1.0189-.2903-1.5478-.4593-.2193-.0701-.44-.1429-.6609-.2185-2.0841-.713-4.1901-1.6706-5.3975-2.8779-1.2073-1.2074-2.1649-3.3134-2.8779-5.3975-.0756-.2209-.1484-.4416-.2185-.6609-.169-.52888-.3221-1.04994-.4593-1.54783-.0414-.15006-.0813-.29801-.1198-.44343-.1752-.66232-1.381-.66232-1.5562 0-.0385.14542-.0784.29337-.1198.44343-.1372.49789-.2903 1.01895-.4593 1.54783-.0701.2193-.1429.44-.2185.6609z" fill-rule="evenodd"/><path d="m31.6052 38.4362c-.1939-.5816-1.0165-.5816-1.2104 0l-.6534 1.9603c-.2117.635-.7099 1.1332-1.3449 1.3449l-1.9603.6534c-.5816.1939-.5816 1.0165 0 1.2104l1.9603.6534c.635.2117 1.1332.7099 1.3449 1.3449l.6534 1.9603c.1939.5816 1.0165.5816 1.2104 0l.6534-1.9603c.2117-.635.71-1.1332 1.3449-1.3449l1.9603-.6534c.5816-.1939.5816-1.0165 0-1.2104l-1.9603-.6534c-.6349-.2117-1.1332-.7099-1.3449-1.3449z"/></g></svg>
