<svg width="56" height="56" viewBox="0 0 56 56" fill="none" xmlns="http://www.w3.org/2000/svg">
<path fill-rule="evenodd" clip-rule="evenodd" d="M27.0454 4.01509C27.6 3.98932 28.1413 4.17489 28.562 4.53027L28.6977 4.65497L29.4263 5.38355L50.6165 26.5738L51.3477 27.305C51.7824 27.7397 52.0146 28.3368 51.9879 28.951L51.9673 29.3671L51.9262 30.1982L51.9219 30.2576C51.9205 30.2764 51.9191 30.2923 51.9179 30.3056C50.7509 42.4798 40.4944 52 28.0142 52C14.7515 52 4 41.2485 4 27.9858C4 15.6895 13.2418 5.5517 25.1582 4.1396L25.5239 4.0991C25.6535 4.08575 26.0226 4.06429 26.6312 4.03474C26.7587 4.02855 26.8968 4.022 27.0454 4.01509ZM24.5141 7.2611C14.5117 8.93428 7 17.6411 7 27.9858C7 39.5916 16.4084 49 28.0142 49C38.3636 49 47.0665 41.4835 48.7389 31.4859C46.2813 32.7445 43.4963 33.4546 40.5455 33.4546C30.6043 33.4546 22.5455 25.3957 22.5455 15.4546C22.5455 12.5037 23.2555 9.71871 24.5141 7.2611ZM48.1735 28.3735L27.6265 7.82649C27.5467 7.96132 27.4689 8.09764 27.3931 8.23543C26.1866 10.4278 25.5455 12.8913 25.5455 15.4546C25.5455 23.7388 32.2612 30.4546 40.5455 30.4546C43.1021 30.4546 45.5597 29.8167 47.748 28.616C47.8914 28.5373 48.0333 28.4565 48.1735 28.3735Z" fill="currentColor"/>
</svg>
