<svg xmlns="http://www.w3.org/2000/svg" width="56" height="56" fill="none" viewBox="0 0 56 56"><path fill="currentColor" d="M19.5 39c-.8284 0-1.5.6716-1.5 1.5s.6716 1.5 1.5 1.5h17c.8284 0 1.5-.6716 1.5-1.5s-.6716-1.5-1.5-1.5h-17Z"/><path fill="currentColor" fill-rule="evenodd" d="M16.8 48c-4.4804 0-6.7206 0-8.432-.8719a8.0002 8.0002 0 0 1-3.496-3.4962C4 41.9206 4 39.6804 4 35.2V20.8c0-4.4804 0-6.7206.872-8.4319a8 8 0 0 1 3.496-3.4962C10.0795 8 12.3197 8 16.8 8h22.4c4.4804 0 6.7206 0 8.4319.872a8.0002 8.0002 0 0 1 3.4962 3.4961C52 14.0794 52 16.3196 52 20.8v14.4c0 4.4804 0 6.7206-.8719 8.4319a8.0004 8.0004 0 0 1-3.4962 3.4962C45.9206 48 43.6804 48 39.2 48H16.8ZM7 35.2V20.8c0-2.2897.0023-3.8266.099-5.0101.0939-1.1485.2614-1.6976.446-2.0598A4.9992 4.9992 0 0 1 9.73 11.545c.3623-.1846.9114-.3521 2.0599-.446C12.9734 11.0023 14.5103 11 16.8 11h22.4c2.2897 0 3.8266.0023 5.0101.099 1.1485.0939 1.6976.2614 2.0599.446a4.999 4.999 0 0 1 2.185 2.185c.1846.3623.3521.9114.446 2.0599.0967 1.1835.099 2.7204.099 5.0101v14.4c0 2.2897-.0023 3.8266-.099 5.0101-.0939 1.1485-.2614 1.6976-.446 2.0599a4.999 4.999 0 0 1-2.185 2.185c-.3623.1846-.9114.3521-2.0599.446-1.1835.0967-2.7204.099-5.0101.099H16.8c-2.2897 0-3.8266-.0023-5.0101-.099-1.1485-.0939-1.6976-.2614-2.0598-.446A4.9995 4.9995 0 0 1 7.545 42.27c-.1846-.3623-.3521-.9114-.446-2.0599C7.0023 39.0266 7 37.4897 7 35.2Z" clip-rule="evenodd"/></svg>
