<svg fill="none" height="56" viewBox="0 0 56 56" width="56" xmlns="http://www.w3.org/2000/svg"><g fill="currentColor"><path d="m15 19.5c0-.8284.6716-1.5 1.5-1.5h23c.8284 0 1.5.6716 1.5 1.5s-.6716 1.5-1.5 1.5h-23c-.8284 0-1.5-.6716-1.5-1.5z"/><path d="m15 29.5c0-.8284.6716-1.5 1.5-1.5h23c.8284 0 1.5.6716 1.5 1.5s-.6716 1.5-1.5 1.5h-23c-.8284 0-1.5-.6716-1.5-1.5z"/><path clip-rule="evenodd" d="m12.1389 7.6028c2.1267-1.13737 4.2253-1.6028 9.2444-1.6028h13.2334c5.0191 0 7.1177.46543 9.2444 1.6028 1.9517 1.04377 3.4923 2.5844 4.5361 4.5361 1.1374 2.1267 1.6028 4.2253 1.6028 9.2444v13.2334c0 5.0191-.4654 7.1177-1.6028 9.2444-1.0438 1.9517-2.5844 3.4923-4.5361 4.5361-2.1267 1.1374-4.2253 1.6028-9.2444 1.6028h-13.2334c-5.0191 0-7.1177-.4654-9.2444-1.6028-1.9517-1.0438-3.49233-2.5844-4.5361-4.5361-1.13737-2.1267-1.6028-4.2253-1.6028-9.2444v-13.2334c0-5.0191.46543-7.1177 1.6028-9.2444 1.04377-1.9517 2.5844-3.49233 4.5361-4.5361zm9.2444 1.3972c-4.8295 0-6.3444.45397-7.8296 1.2482-1.4289.7642-2.5413 1.8766-3.3055 3.3055-.79423 1.4852-1.2482 3.0001-1.2482 7.8296v13.2334c0 4.8295.45397 6.3444 1.2482 7.8296.7642 1.4289 1.8766 2.5413 3.3055 3.3055 1.4852.7942 3.0001 1.2482 7.8296 1.2482h13.2334c4.8295 0 6.3444-.454 7.8296-1.2482 1.4289-.7642 2.5413-1.8766 3.3055-3.3055.7942-1.4852 1.2482-3.0001 1.2482-7.8296v-13.2334c0-4.8295-.454-6.3444-1.2482-7.8296-.7642-1.4289-1.8766-2.5413-3.3055-3.3055-1.4852-.79423-3.0001-1.2482-7.8296-1.2482z" fill-rule="evenodd"/><path d="m20 39.5c0-.8284.6716-1.5 1.5-1.5s1.5.6716 1.5 1.5v9c0 .8284-.6716 1.5-1.5 1.5s-1.5-.6716-1.5-1.5z"/><path d="m33 39.5c0-.8284.6716-1.5 1.5-1.5s1.5.6716 1.5 1.5v9c0 .8284-.6716 1.5-1.5 1.5s-1.5-.6716-1.5-1.5z"/></g></svg>
