<svg fill="none" height="56" viewBox="0 0 56 56" width="56" xmlns="http://www.w3.org/2000/svg"><g fill="currentColor"><path d="m43.6106 11.7274c.6118-.5585 1.5606-.5153 2.1191.0965 3.8937 4.2654 6.2703 9.9449 6.2703 16.1761 0 6.2311-2.3766 11.9107-6.2703 16.176-.5585.6119-1.5073.6551-2.1191.0966-.6119-.5585-.6551-1.5073-.0966-2.1191 3.4089-3.7343 5.486-8.6996 5.486-14.1535s-2.0771-10.4192-5.486-14.1535c-.5585-.6118-.5153-1.5606.0966-2.1191z"/><path d="m12.3875 11.7292c.6119.5585.6553 1.5072.0968 2.1191-3.40788 3.7341-5.4843 8.6987-5.4843 14.1517s2.07642 10.4176 5.4843 14.1516c.5585.6119.5151 1.5607-.0968 2.1192-.6119.5584-1.5606.5151-2.1191-.0968-3.89253-4.2652-6.2684-9.9439-6.2684-16.174 0-6.2302 2.37587-11.9089 6.2684-16.174.5585-.6119 1.5072-.6552 2.1191-.0968z"/><path d="m22 20.5c-.8284 0-1.5.6716-1.5 1.5s.6716 1.5 1.5 1.5h4.5v12.5c0 .8284.6716 1.5 1.5 1.5s1.5-.6716 1.5-1.5v-12.5h4.5c.8284 0 1.5-.6716 1.5-1.5s-.6716-1.5-1.5-1.5z"/><path d="m16.8191 18.0004c.5525-.6173.5-1.5656-.1173-2.1181s-1.5656-.4999-2.1181.1173c-2.8493 3.1836-4.5837 7.3912-4.5837 12.0004s1.7344 8.8168 4.5837 12.0004c.5525.6173 1.5008.6698 2.1181.1173s.6698-1.5008.1173-2.1181c-2.3761-2.6547-3.8191-6.1569-3.8191-9.9996s1.443-7.3448 3.8191-9.9996z"/><path d="m41.4163 15.9996c-.5525-.6172-1.5008-.6698-2.1181-.1173s-.6698 1.5008-.1173 2.1181c2.3761 2.6548 3.8191 6.1569 3.8191 9.9996s-1.443 7.3449-3.8191 9.9996c-.5525.6173-.5 1.5656.1173 2.1181s1.5656.5 2.1181-.1173c2.8493-3.1836 4.5837-7.3912 4.5837-12.0004s-1.7344-8.8168-4.5837-12.0004z"/></g></svg>
