<svg fill="none" height="56" viewBox="0 0 56 56" width="56" xmlns="http://www.w3.org/2000/svg"><g fill="currentColor"><path d="m12.7239 11.4129c.6004.5708.6245 1.5202.0537 2.1206-3.58177 3.7676-5.7776 8.859-5.7776 14.4665s2.19583 10.6989 5.7776 14.4665c.5708.6004.5467 1.5499-.0537 2.1206-.6004.5708-1.5498.5468-2.1206-.0536-4.09065-4.3029-6.6033-10.1264-6.6033-16.5335s2.51265-12.2306 6.6033-16.5335c.5708-.6004 1.5202-.6244 2.1206-.0536z"/><path d="m43.2761 11.4129c.6004-.5708 1.5498-.5468 2.1206.0536 4.0907 4.3029 6.6033 10.1264 6.6033 16.5335s-2.5126 12.2306-6.6033 16.5335c-.5708.6004-1.5202.6244-2.1206.0536-.6004-.5707-.6245-1.5202-.0537-2.1206 3.5818-3.7676 5.7776-8.859 5.7776-14.4665s-2.1958-10.6989-5.7776-14.4665c-.5708-.6004-.5467-1.5498.0537-2.1206z"/><path d="m22.5 21c-.8284 0-1.5.6716-1.5 1.5s.6716 1.5 1.5 1.5h4v11.5c0 .8284.6716 1.5 1.5 1.5s1.5-.6716 1.5-1.5v-11.5h4c.8284 0 1.5-.6716 1.5-1.5s-.6716-1.5-1.5-1.5z"/><path d="m41.0907 15.6455c-.5687-.6024-1.518-.6297-2.1204-.061s-.6297 1.518-.061 2.1204c2.5374 2.6877 4.0907 6.3084 4.0907 10.2951s-1.5533 7.6074-4.0907 10.2951c-.5687.6024-.5414 1.5517.061 2.1204s1.5517.5414 2.1204-.061c3.0422-3.2223 4.9093-7.572 4.9093-12.3545s-1.8671-9.1322-4.9093-12.3545z"/><path d="m17.0907 17.7049c.5687-.6024.5414-1.5517-.061-2.1204s-1.5517-.5414-2.1204.061c-3.0422 3.2223-4.9093 7.572-4.9093 12.3545s1.8671 9.1322 4.9093 12.3545c.5687.6024 1.518.6297 2.1204.061s.6297-1.518.061-2.1204c-2.5374-2.6877-4.0907-6.3084-4.0907-10.2951s1.5533-7.6074 4.0907-10.2951z"/></g></svg>
