<svg xmlns="http://www.w3.org/2000/svg" width="56" height="56" fill="none" viewBox="0 0 56 56"><path fill="currentColor" fill-rule="evenodd" d="m17.8601 24.2136 2.5462-2.0369a1.5622 1.5622 0 0 0 .5517-.8925l2.6585-12.4017c.7995-3.7297 4.7566-5.849 8.3043-4.4478C34.1897 5.331 36 7.553 36 10.1765V18h1.359c4.3625 0 8.0471 1.3768 10.649 3.9064 2.6345 2.5613 3.9924 6.2754 3.9924 10.8682v2.0218c0 4.5928-1.3579 8.3069-3.9924 10.8681C45.4974 48.1053 41.8874 50 37.3958 50H17.6895a5.6 5.6 0 0 1-2.0341 1.5257c-.6438.2833-1.2952.3851-1.9324.431C13.121 52 12.3953 52 11.5662 52h-.1323c-.8291 0-1.555 0-2.1569-.0433-.6372-.0459-1.2886-.1477-1.9324-.431a5.5998 5.5998 0 0 1-2.8703-2.8703c-.2833-.6438-.3852-1.2952-.431-1.9325C3.9999 46.121 4 45.3953 4 44.5661V29.4339c0-.8292 0-1.5549.0433-2.1569.0458-.6372.1477-1.2886.431-1.9324a5.6003 5.6003 0 0 1 2.8703-2.8704c.6438-.2832 1.2952-.3851 1.9324-.4309.602-.0434 1.3277-.0433 2.1568-.0433h.1323c.8292 0 1.5549-.0001 2.1569.0433.6372.0458 1.2886.1477 1.9324.4309a5.6004 5.6004 0 0 1 2.2047 1.7394Zm8.6897-14.7022c.411-1.9173 2.4452-3.0068 4.2689-2.2864C32.1184 7.7383 33 8.9634 33 10.1765V19.5c0 .8284.6716 1.5 1.5 1.5h2.859c3.7267 0 6.6119 1.1656 8.5578 3.0574 1.9131 1.86 3.0836 4.7154 3.0836 8.7172v2.0218c0 4.0018-1.1705 6.8572-3.0836 8.7171C43.8796 45.4941 40.9934 47 37.3958 47H18.933a9.7385 9.7385 0 0 0 .0237-.2771c.0434-.6019.0433-1.3276.0433-2.1568V29.4339c0-.8292.0001-1.5549-.0433-2.1569a9.7149 9.7149 0 0 0-.0071-.0931l3.3308-2.6646a4.5616 4.5616 0 0 0 1.6109-2.6063l2.6585-12.4017ZM11.5663 25c.8652 0 1.4702.0016 1.9413.0355.4743.0342.7411.0974.9395.1847a2.5998 2.5998 0 0 1 1.3327 1.3326c.0873.1985.1505.4652.1847.9396.0339.4711.0355 1.0761.0355 1.9413v15.1324c0 .8653-.0016 1.4704-.0355 1.9414-.0342.4744-.0974.7412-.1847.9396a2.5997 2.5997 0 0 1-1.3327 1.3327c-.1984.0873-.4652.1505-.9395.1847-.4711.0339-1.0761.0355-1.9413.0355h-.1324c-.8652 0-1.4704-.0016-1.9415-.0355-.4743-.0342-.741-.0974-.9395-.1847a2.6 2.6 0 0 1-1.3327-1.3327c-.0873-.1984-.1505-.4652-.1847-.9396C7.0016 46.0365 7 45.4315 7 44.5662V29.4339c0-.8653.0016-1.4705.0355-1.9415.0342-.4744.0974-.7411.1847-.9396a2.6 2.6 0 0 1 1.3327-1.3326c.1984-.0873.4652-.1505.9395-.1847.471-.0339 1.0761-.0355 1.9413-.0355h.1326Z" clip-rule="evenodd"/></svg>
