<?xml version="1.0" encoding="UTF-8"?>
<svg width="56px" height="56px" viewBox="0 0 56 56" version="1.1" xmlns="http://www.w3.org/2000/svg" xmlns:xlink="http://www.w3.org/1999/xlink">
    <!-- Generator: Sketch 59 (86127) - https://sketch.com -->
    <title>Icons 56/touch_id_outline_56</title>
    <desc>Created with Sketch.</desc>
    <g id="Icons-56/touch_id_outline_56" stroke="none" stroke-width="1" fill="none" fill-rule="evenodd">
        <g id="touch_id_outline_56">
            <rect x="0" y="0" width="56" height="56"></rect>
            <path d="M31.5,42 C32.3284271,42 33,42.6715729 33,43.5 L33,48.5 C33,49.3284271 32.3284271,50 31.5,50 C30.6715729,50 30,49.3284271 30,48.5 L30,43.5 C30,42.6715729 30.6715729,42 31.5,42 Z M28.5,24 C30.9142733,24 32.8844891,25.9012365 32.995102,28.2881643 L33,28.5 L33,37.5 C33,38.3284271 32.3284271,39 31.5,39 C30.6715729,39 30,38.3284271 30,37.5 L30,28.5 C30,27.6715729 29.3284271,27 28.5,27 C27.7203039,27 27.0795513,27.5948881 27.0068666,28.35554 L27,28.5 L27,47.5 C27,48.3284271 26.3284271,49 25.5,49 C24.6715729,49 24,48.3284271 24,47.5 L24,28.5 C24,26.0147186 26.0147186,24 28.5,24 Z M19.5,34 C20.3284271,34 21,34.6715729 21,35.5 L21,46.5 C21,47.3284271 20.3284271,48 19.5,48 C18.6715729,48 18,47.3284271 18,46.5 L18,35.5 C18,34.6715729 18.6715729,34 19.5,34 Z M43.5,35 C44.3284271,35 45,35.6715729 45,36.5 L45,44.5 C45,45.3284271 44.3284271,46 43.5,46 C42.6715729,46 42,45.3284271 42,44.5 L42,36.5 C42,35.6715729 42.6715729,35 43.5,35 Z M35.7651276,20.9192225 C37.7380323,22.8104086 38.9077109,25.3928539 38.9947677,28.1663015 L39,28.5 L39,43.5 C39,44.3284271 38.3284271,45 37.5,45 C36.6715729,45 36,44.3284271 36,43.5 L36.0001479,28.5212849 C36.0000494,28.5142017 36,28.5071066 36,28.5 C36,26.4267402 35.1566273,24.4916302 33.6891335,23.0849207 C33.0910925,22.5116508 33.0710115,21.5621156 33.6442814,20.9640746 C34.2175513,20.3660335 35.1670865,20.3459525 35.7651276,20.9192225 Z M21.4472832,15.1733745 C21.906341,15.8629812 21.7194441,16.7941578 21.0298374,17.2532156 C17.2912293,19.7419343 15,23.9252763 15,28.5 L15,42.5 C15,43.3284271 14.3284271,44 13.5,44 C12.6715729,44 12,43.3284271 12,42.5 L12,28.45 L12.001,28.449 L12.0041395,28.1281053 C12.1253977,22.6844552 14.9033078,17.7276161 19.3674421,14.7559287 C20.0570488,14.2968709 20.9882254,14.4837677 21.4472832,15.1733745 Z M7.5,36 C8.32842712,36 9,36.6715729 9,37.5 L9,40.5 C9,41.3284271 8.32842712,42 7.5,42 C6.67157288,42 6,41.3284271 6,40.5 L6,37.5 C6,36.6715729 6.67157288,36 7.5,36 Z M42.9633955,11.2639313 C47.9111932,15.4198696 50.8695021,21.4940474 50.9957859,28.0614576 L51,28.5 L51,37.5 C51,38.3284271 50.3284271,39 49.5,39 C48.6715729,39 48,38.3284271 48,37.5 L48,28.5 C48,22.6607309 45.4200316,17.2452765 41.0338769,13.5610943 C40.3995328,13.0282724 40.3172328,12.0820975 40.8500546,11.4477535 C41.3828765,10.8134094 42.3290514,10.7311094 42.9633955,11.2639313 Z M28.5,6 C31.4037147,6 34.2334114,6.55103457 36.8732112,7.61003861 C37.6420764,7.91848295 38.0153212,8.79181482 37.7068768,9.56067996 C37.3984325,10.3295451 36.5251006,10.7027899 35.7562355,10.3943456 C33.4701256,9.47723072 31.0194297,9 28.5,9 C17.8450171,9 9.18598497,17.5456812 9.00295611,28.1569912 L9,28.5 L9,31.5 C9,32.3284271 8.32842712,33 7.5,33 C6.67157288,33 6,32.3284271 6,31.5 L6,28.5 C6,16.0735931 16.0735931,6 28.5,6 Z M28.5,12 C37.5054902,12 44.8259423,19.2145052 44.9969418,28.179101 L45,28.5 L45,30.5 C45,31.3284271 44.3284271,32 43.5,32 C42.6715729,32 42,31.3284271 42,30.5 L42,28.5 C42,21.0441559 35.9558441,15 28.5,15 C27.74014,15 26.9888547,15.0626274 26.2510909,15.1862345 C25.4340519,15.3231236 24.6607402,14.7717532 24.5238511,13.9547141 C24.3869619,13.137675 24.9383324,12.3643634 25.7553715,12.2274742 C26.6567832,12.0764491 27.5738751,12 28.5,12 Z M28.5,18 C29.3284271,18 30,18.6715729 30,19.5 C30,20.3284271 29.3284271,21 28.5,21 C24.4390827,21 21.1319825,24.2274744 21.0038536,28.2572689 L21,28.5 L21,29.5 C21,30.3284271 20.3284271,31 19.5,31 C18.6715729,31 18,30.3284271 18,29.5 L18,28.5 C18,22.7010101 22.7010101,18 28.5,18 Z" id="↳-Icon-Color" fill="currentColor" fill-rule="nonzero"></path>
        </g>
    </g>
</svg>
