<svg xmlns="http://www.w3.org/2000/svg" width="56" height="56" fill="currentColor" viewBox="0 0 56 56"><path fill-rule="evenodd" d="M30.714 7.537c-1.014-1-2.431-1.627-3.958-1.525C15.338 6.775 6 15.088 6 25.616c0 5.375 2.46 10.205 6.377 13.718-.559 1.536-1.433 3.375-2.648 5.527l-.001.003-.241.423a1.505 1.505 0 0 0-.038.072l-.052.102a2.484 2.484 0 0 0 2.829 3.47c4.618-1.123 8.312-2.506 10.993-4.197 1.694.356 3.46.544 5.276.544 10.41 0 19.357-6.216 21.828-14.892.53-1.861-.187-3.701-1.41-4.907L30.714 7.537Zm-4.712 1.556c-9.762 1.06-17.003 8.215-17.003 16.523 0 4.704 2.29 9 6.066 12.068.473.384.667 1.018.49 1.602-.56 1.843-1.527 3.992-2.868 6.43 4.195-1.103 7.3-2.393 9.396-3.826.348-.238.78-.318 1.19-.22 1.66.393 3.41.604 5.222.604 9.103 0 16.57-5.3 18.802-12.245h-.668c-3.302 0-5.872 0-7.934-.17-2.093-.17-3.794-.523-5.324-1.304a13.506 13.506 0 0 1-5.898-5.906c-.78-1.532-1.132-3.236-1.303-5.332-.168-2.064-.168-4.638-.168-7.945v-.28Zm20.204 17.932L29.001 10.063c.001 3 .013 5.229.159 7.01.155 1.91.457 3.174.985 4.212a10.505 10.505 0 0 0 4.588 4.594c1.036.53 2.299.831 4.206.987 1.831.15 4.135.159 7.267.159Z" clip-rule="evenodd"/></svg>
