<svg fill="none" height="56" viewBox="0 0 56 56" width="56" xmlns="http://www.w3.org/2000/svg"><path clip-rule="evenodd" d="m28 24c4.1421 0 7.5-3.3579 7.5-7.5s-3.3579-7.5-7.5-7.5-7.5 3.3579-7.5 7.5 3.3579 7.5 7.5 7.5zm0 3c5.799 0 10.5-4.701 10.5-10.5s-4.701-10.5-10.5-10.5-10.5 4.701-10.5 10.5 4.701 10.5 10.5 10.5zm-12.8961 5.1187c3.368-1.7681 7.968-2.6187 12.8961-2.6187 1.0446 0 2.0708.0382 3.0708.1145.826.063 1.4446.7837 1.3815 1.6098-.063.826-.7837 1.4445-1.6097 1.3815-.9208-.0703-1.8708-.1058-2.8426-.1058-4.6492 0-8.7157.8124-11.5016 2.275-2.6906 1.4125-3.8984 3.2237-3.8984 5.4679 0 1.6154.3264 2.0169.3459 2.0387l.0001.0001c.0016.0017.0075.0083.0253.0199.0196.0127.0647.0385.1498.0676.1775.0608.5132.1308 1.1035.1308h11.7754c.8284 0 1.5.6716 1.5 1.5s-.6716 1.5-1.5 1.5h-11.7754c-1.6054 0-2.7585-.375-3.5123-1.2156-.75564-.8428-1.11232-2.1564-1.11232-4.0415 0-3.667 2.13232-6.3541 5.50392-8.1242zm25.3961-2.6187c-3.3137 0-6 2.6863-6 6v3c0 3.3137 2.6863 6 6 6s6-2.6863 6-6v-3c0-3.3137-2.6863-6-6-6zm-3 6c0-1.6569 1.3431-3 3-3s3 1.3431 3 3v3c0 1.6569-1.3431 3-3 3s-3-1.3431-3-3zm4.5 14.403c3.3873-.4414 6.3106-2.3572 8.105-5.0769.4562-.6915.2655-1.6219-.426-2.0782-.6914-.4562-1.6218-.2655-2.0781.426-1.5229 2.3083-4.135 3.8261-7.1009 3.8261s-5.578-1.5178-7.1009-3.8261c-.4563-.6915-1.3867-.8822-2.0782-.426-.6914.4563-.8822 1.3867-.4259 2.0782 1.7944 2.7197 4.7177 4.6355 8.105 5.0769v2.097c0 .8284.6716 1.5 1.5 1.5s1.5-.6716 1.5-1.5z" fill="#000" fill-rule="evenodd"/></svg>