<?xml version="1.0" encoding="UTF-8"?>
<svg width="56px" height="56px" viewBox="0 0 56 56" version="1.1" xmlns="http://www.w3.org/2000/svg" xmlns:xlink="http://www.w3.org/1999/xlink">
    <!-- Generator: Sketch 61.2 (89653) - https://sketch.com -->
    <title>Icons 56/user_add_outline_56</title>
    <desc>Created with Sketch.</desc>
    <g id="Icons-56/user_add_outline_56" stroke="none" stroke-width="1" fill="none" fill-rule="evenodd">
        <g id="user_add_outline_56">
            <polygon points="0 0 56 0 56 56 0 56"></polygon>
            <path d="M45,19.5 C45,15.9084271 42.0915729,13 38.5,13 C34.9084271,13 32,15.9084271 32,19.5 C32,23.0915729 34.9084271,26 38.5,26 C42.0915729,26 45,23.0915729 45,19.5 Z M48,19.5 C48,24.7484271 43.7484271,29 38.5,29 C33.2515729,29 29,24.7484271 29,19.5 C29,14.2515729 33.2515729,10 38.5,10 C43.7484271,10 48,14.2515729 48,19.5 Z M25.4999999,41.0714286 C25.4999999,43.0034127 25.4968773,43 26.6470588,43 L51.3529412,43 C52.5031227,43 52.4999999,43.0034127 52.4999999,41.0714286 C52.4999999,36.5653847 46.3380465,34 38.9999999,34 C31.6619535,34 25.4999999,36.5653847 25.4999999,41.0714286 Z M39,31 C47.838424,31 55.5,34.1897173 55.5,41.0714286 C55.5,44.6037302 54.2223675,46 51.3529412,46 L26.6470588,46 C23.7776325,46 22.5,44.6037302 22.5,41.0714286 C22.5,34.1897173 30.161576,31 39,31 Z M11.5,14 C12.3284271,14 13,14.6715729 13,15.5 L13,24 L21.5,24 C22.3284271,24 23,24.6715729 23,25.5 C23,26.3284271 22.3284271,27 21.5,27 L13,27 L13,35.5 C13,36.3284271 12.3284271,37 11.5,37 C10.6715729,37 10,36.3284271 10,35.5 L10,27 L1.5,27 C0.671572875,27 1.01453063e-16,26.3284271 0,25.5 C-1.01453063e-16,24.6715729 0.671572875,24 1.5,24 L10,24 L10,15.5 C10,14.6715729 10.6715729,14 11.5,14 Z" id="↳-Icon-Color" fill="currentColor" fill-rule="nonzero"></path>
        </g>
    </g>
</svg>
