<svg fill="none" height="56" viewBox="0 0 56 56" width="56" xmlns="http://www.w3.org/2000/svg"><g fill="currentColor"><path clip-rule="evenodd" d="m39.5 24.5c0 5.2484-4.2516 9.5-9.5 9.5s-9.5-4.2516-9.5-9.5 4.2516-9.5 9.5-9.5 9.5 4.2516 9.5 9.5zm-3 0c0-3.5916-2.9084-6.5-6.5-6.5s-6.5 2.9084-6.5 6.5 2.9084 6.5 6.5 6.5 6.5-2.9084 6.5-6.5z" fill-rule="evenodd"/><path clip-rule="evenodd" d="m23.3833 6c-5.0191 0-7.1177.46543-9.2444 1.6028-1.9517 1.04377-3.4923 2.5844-4.5361 4.5361-1.13737 2.1267-1.6028 4.2253-1.6028 9.2444v13.2334c0 5.0191.46543 7.1177 1.6028 9.2444 1.0438 1.9517 2.5844 3.4923 4.5361 4.5361 2.1267 1.1374 4.2253 1.6028 9.2444 1.6028h13.2334c5.0191 0 7.1177-.4654 9.2444-1.6028 1.9517-1.0438 3.4923-2.5844 4.5361-4.5361 1.1374-2.1267 1.6028-4.2253 1.6028-9.2444v-13.2334c0-5.0191-.4654-7.1177-1.6028-9.2444-1.0438-1.9517-2.5844-3.49233-4.5361-4.5361-2.1267-1.13737-4.2253-1.6028-9.2444-1.6028zm-7.8296 4.2482c1.4852-.79423 3.0001-1.2482 7.8296-1.2482h13.2334c4.8295 0 6.3444.45397 7.8296 1.2482 1.4289.7642 2.5413 1.8766 3.3055 3.3055.7942 1.4852 1.2482 3.0001 1.2482 7.8296v13.2334c0 4.8295-.454 6.3444-1.2482 7.8296-.193.3607-.4081.7013-.6449 1.0212-4.6954-3.7341-10.6425-5.9661-17.1069-5.9661s-12.4115 2.232-17.1069 5.9661c-.2368-.3199-.4519-.6605-.6449-1.0212-.7942-1.4852-1.2482-3.0001-1.2482-7.8296v-13.2334c0-4.8295.454-6.3444 1.2482-7.8296.7642-1.4289 1.8766-2.5413 3.3055-3.3055zm-.4106 35.2691c.1338.0815.2707.1596.4106.2345 1.4852.7942 3.0001 1.2482 7.8296 1.2482h13.2334c4.8295 0 6.3444-.454 7.8296-1.2482.1399-.0749.2768-.153.4106-.2345-4.1218-3.1474-9.2693-5.0159-14.8569-5.0159s-10.7351 1.8685-14.8569 5.0159z" fill-rule="evenodd"/><path d="m4 18.5c0-.8284.67157-1.5 1.5-1.5h4c.8284 0 1.5.6716 1.5 1.5s-.6716 1.5-1.5 1.5h-4c-.82843 0-1.5-.6716-1.5-1.5z"/><path d="m4 25.5c0-.8284.67157-1.5 1.5-1.5h4c.8284 0 1.5.6716 1.5 1.5s-.6716 1.5-1.5 1.5h-4c-.82843 0-1.5-.6716-1.5-1.5z"/><path d="m4 32.5c0-.8284.67157-1.5 1.5-1.5h4c.8284 0 1.5.6716 1.5 1.5s-.6716 1.5-1.5 1.5h-4c-.82843 0-1.5-.6716-1.5-1.5z"/><path d="m4 39.5c0-.8284.67157-1.5 1.5-1.5h4c.8284 0 1.5.6716 1.5 1.5s-.6716 1.5-1.5 1.5h-4c-.82843 0-1.5-.6716-1.5-1.5z"/></g></svg>
