<svg height="56" viewBox="0 0 56 56" width="56" xmlns="http://www.w3.org/2000/svg"><g fill="none" fill-rule="evenodd"><path d="m0 0h56v56h-56z"/><path d="m28.0000453 29c7.0745687 0 13 2.8537194 13 9 0 3.0644818-1.8548717 5-4.375 5h-17.25c-2.6157167 0-4.375-1.4278242-4.375-4.5 0-6.5270411 5.848123-9.5 13-9.5zm-14.4430264.0009787c.7635984.0281409 1.3948893.6330603 1.4404213 1.4114258.0483776.8270133-.5828313 1.536658-1.4098447 1.5850357-3.88266137.2271234-6.5875955 1.9870535-6.5875955 5.0025598 0 .75.33333333 1 1 1h2.5l.14446.0068666c.7606519.0726847 1.35554.7134373 1.35554 1.4931334 0 .8284271-.6715729 1.5-1.5 1.5h-2.5l-.19600968-.0037844c-2.0800846-.0806968-3.80399032-1.4507611-3.80399032-3.9962156 0-4.9922658 4.14526622-7.6893292 9.4124045-7.9974402zm28.8860074 0 .1446145.0015811c5.2671383.308111 9.4124045 3.0051744 9.4124045 7.9974402 0 2.5454545-1.7239057 3.9155188-3.8039903 3.9962156l-.1960097.0037844h-2.5c-.8284271 0-1.5-.6715729-1.5-1.5 0-.7796961.5948881-1.4204487 1.35554-1.4931334l.14446-.0068666h2.5c.6666667 0 1-.25 1-1 0-3.0155063-2.7049341-4.7754364-6.5875955-5.0025598-.8270134-.0483777-1.4582223-.7580224-1.4098447-1.5850357.045532-.7783655.6768229-1.3832849 1.4404212-1.4114258zm-14.442981 2.9990213c-5.7099651 0-10 2.1808873-10 6.5 0 1.1514916.2453328 1.450732 1.110591 1.4940669l.264409.0059331h17.25c.8340383 0 1.375-.5644818 1.375-2 0-3.8921809-4.3766521-6-10-6zm-12.0003847-20c.2119049 0 .4228655.0094592.6324218.0282768.8251071.0740924 1.4339248.8030377 1.3598324 1.6281449-.0740924.8251071-.8030376 1.4339249-1.6281448 1.3598324-.1203733-.0108092-.241807-.0162541-.3641094-.0162541-2.209139 0-4 1.790861-4 4s1.790861 4 4 4c.2402807 0 .4771659-.0210162.7091108-.0624036.1241185-.0221472.2467404-.0501146.3675831-.0837778l.1585369-.0377761c.7516264-.1375945 1.4987581.3165528 1.7114757 1.066671.2260125.7970005-.2368648 1.6263165-1.0338653 1.8523289l-.3518532.0899283-.3248927.0659776c-.4056941.0723905-.8189224.1090517-1.2360953.1090517-3.8659933 0-7.00000001-3.1340068-7.00000001-7s3.13400671-7 7.00000001-7zm24.0039941 0c3.8659932 0 7 3.1340068 7 7s-3.1340068 7-7 7c-.417173 0-.8304012-.0366612-1.2360953-.1090517l-.3248927-.0659776-.3518532-.0899283c-.7970005-.2260124-1.2598778-1.0553284-1.0338653-1.8523289.2127176-.7501182.9598493-1.2042655 1.7114757-1.066671l.1585369.0377761c.1208427.0336632.2434646.0616306.3675831.0837778.2319449.0413874.4688301.0624036.7091108.0624036 2.209139 0 4-1.790861 4-4s-1.790861-4-4-4c-.1223025 0-.2437361.0054449-.3641094.0162541-.8251072.0740925-1.5540524-.5347253-1.6281449-1.3598324-.0740924-.8251072.5347254-1.5540525 1.3598325-1.6281449.2095563-.0188176.4205169-.0282768.6324218-.0282768zm-12.0036094-2c4.418278 0 8 3.581722 8 8s-3.581722 8-8 8-8-3.581722-8-8 3.581722-8 8-8zm0 3c-2.7614238 0-5 2.2385763-5 5s2.2385762 5 5 5c2.7614237 0 5-2.2385763 5-5s-2.2385763-5-5-5z" fill="currentColor" fill-rule="nonzero"/></g></svg>
