<svg fill="none" height="56" viewBox="0 0 56 56" width="56" xmlns="http://www.w3.org/2000/svg"><path d="m37.7445 6c3.566 0 4.8592.3713 6.1629 1.06853s2.3268 1.72038 3.0241 3.02407c.6972 1.3037 1.0685 2.5969 1.0685 6.1629v23.489c0 3.566-.3713 4.8592-1.0685 6.1629-.6973 1.3037-1.7204 2.3268-3.0241 3.0241-1.3037.6972-2.5969 1.0685-6.1629 1.0685h-19.489c-3.566 0-4.8592-.3713-6.1629-1.0685-1.3037-.6973-2.32684-1.7204-3.02407-3.0241s-1.06853-2.5969-1.06853-6.1629v-23.489c0-3.566.3713-4.8592 1.06853-6.1629.69723-1.30369 1.72037-2.32684 3.02407-3.02407s2.5969-1.06853 6.1629-1.06853zm.3148 3.00083-19.8038-.00083c-2.7983 0-3.7605.1858-4.7481.71397-.7809.41763-1.3758 1.01253-1.7934 1.79343-.5079.9496-.6992 1.8757-.7132 4.4333l-.0008 23.8038c0 2.7983.1858 3.7605.714 4.7481.4176.7809 1.0125 1.3758 1.7934 1.7934.9876.5282 1.9498.714 4.7481.714h19.489c2.7983 0 3.7605-.1858 4.7481-.714.7809-.4176 1.3758-1.0125 1.7934-1.7934.5282-.9876.714-1.9498.714-4.7481v-23.489c0-2.7983-.1858-3.7605-.714-4.7481-.4176-.7809-1.0125-1.3758-1.7934-1.79343-.9496-.50785-1.8757-.69917-4.4333-.71314zm-19.3412 28.99917c.4457 0 .6074.0464.7703.1336.163.0871.2909.215.378.378.0872.1629.1336.3246.1336.7703v1.4362c0 .4457-.0464.6074-.1336.7703-.0871.163-.215.2909-.378.378-.1629.0872-.3246.1336-.7703.1336h-1.4362c-.4457 0-.6074-.0464-.7703-.1336-.163-.0871-.2909-.215-.378-.378-.0872-.1629-.1336-.3246-.1336-.7703v-1.4362c0-.4457.0464-.6074.1336-.7703.0871-.163.215-.2909.378-.378.1629-.0872.3246-.1336.7703-.1336zm20 0c.4457 0 .6074.0464.7703.1336.163.0871.2909.215.378.378.0872.1629.1336.3246.1336.7703v1.4362c0 .4457-.0464.6074-.1336.7703-.0871.163-.215.2909-.378.378-.1629.0872-.3246.1336-.7703.1336h-1.4362c-.4457 0-.6074-.0464-.7703-.1336-.163-.0871-.2909-.215-.378-.378-.0872-.1629-.1336-.3246-.1336-.7703v-1.4362c0-.4457.0464-.6074.1336-.7703.0871-.163.215-.2909.378-.378.1629-.0872.3246-.1336.7703-.1336zm-20-8c.4457 0 .6074.0464.7703.1336.163.0871.2909.215.378.378.0872.1629.1336.3246.1336.7703v1.4362c0 .4457-.0464.6074-.1336.7703-.0871.163-.215.2909-.378.378-.1629.0872-.3246.1336-.7703.1336h-1.4362c-.4457 0-.6074-.0464-.7703-.1336-.163-.0871-.2909-.215-.378-.378-.0872-.1629-.1336-.3246-.1336-.7703v-1.4362c0-.4457.0464-.6074.1336-.7703.0871-.163.215-.2909.378-.378.1629-.0872.3246-.1336.7703-.1336zm20 0c.4457 0 .6074.0464.7703.1336.163.0871.2909.215.378.378.0872.1629.1336.3246.1336.7703v1.4362c0 .4457-.0464.6074-.1336.7703-.0871.163-.215.2909-.378.378-.1629.0872-.3246.1336-.7703.1336h-1.4362c-.4457 0-.6074-.0464-.7703-.1336-.163-.0871-.2909-.215-.378-.378-.0872-.1629-.1336-.3246-.1336-.7703v-1.4362c0-.4457.0464-.6074.1336-.7703.0871-.163.215-.2909.378-.378.1629-.0872.3246-.1336.7703-.1336zm-20-8c.4457 0 .6074.0464.7703.1336.163.0871.2909.215.378.378.0872.1629.1336.3246.1336.7703v1.4362c0 .4457-.0464.6074-.1336.7703-.0871.163-.215.2909-.378.378-.1629.0872-.3246.1336-.7703.1336h-1.4362c-.4457 0-.6074-.0464-.7703-.1336-.163-.0871-.2909-.215-.378-.378-.0872-.1629-.1336-.3246-.1336-.7703v-1.4362c0-.4457.0464-.6074.1336-.7703.0871-.163.215-.2909.378-.378.1629-.0872.3246-.1336.7703-.1336zm20 0c.4457 0 .6074.0464.7703.1336.163.0871.2909.215.378.378.0872.1629.1336.3246.1336.7703v1.4362c0 .4457-.0464.6074-.1336.7703-.0871.163-.215.2909-.378.378-.1629.0872-.3246.1336-.7703.1336h-1.4362c-.4457 0-.6074-.0464-.7703-.1336-.163-.0871-.2909-.215-.378-.378-.0872-.1629-.1336-.3246-.1336-.7703v-1.4362c0-.4457.0464-.6074.1336-.7703.0871-.163.215-.2909.378-.378.1629-.0872.3246-.1336.7703-.1336zm-20-8c.4457 0 .6074.0464.7703.1336.163.0871.2909.215.378.378.0872.1629.1336.3246.1336.7703v1.4362c0 .4457-.0464.6074-.1336.7703-.0871.163-.215.2909-.378.378-.1629.0872-.3246.1336-.7703.1336h-1.4362c-.4457 0-.6074-.0464-.7703-.1336-.163-.0871-.2909-.215-.378-.378-.0872-.1629-.1336-.3246-.1336-.7703v-1.4362c0-.4457.0464-.6074.1336-.7703.0871-.163.215-.2909.378-.378.1629-.0872.3246-.1336.7703-.1336zm20 0c.4457 0 .6074.0464.7703.1336.163.0871.2909.215.378.378.0872.1629.1336.3246.1336.7703v1.4362c0 .4457-.0464.6074-.1336.7703-.0871.163-.215.2909-.378.378-.1629.0872-.3246.1336-.7703.1336h-1.4362c-.4457 0-.6074-.0464-.7703-.1336-.163-.0871-.2909-.215-.378-.378-.0872-.1629-.1336-.3246-.1336-.7703v-1.4362c0-.4457.0464-.6074.1336-.7703.0871-.163.215-.2909.378-.378.1629-.0872.3246-.1336.7703-.1336z" fill="currentColor"/></svg>
