<svg xmlns="http://www.w3.org/2000/svg" width="56" height="56" fill="none" viewBox="0 0 56 56"><path fill="currentColor" fill-rule="evenodd" d="M3.3806 10.5016c.5514-.6183 1.4996-.6724 2.1178-.121l37 33c.6183.5514.6725 1.4996.1211 2.1178-.5515.6183-1.4997.6725-2.1179.1211l-3.539-3.1564a9.4966 9.4966 0 0 1-2.1497 1.5015c-1.1023.5617-2.3096.8049-3.7364.9214-1.3952.114-3.1262.114-5.3104.114H18.234c-2.1843 0-3.9153 0-5.3105-.114-1.4268-.1165-2.634-.3597-3.7364-.9214a9.4998 9.4998 0 0 1-4.1516-4.1517c-.5617-1.1023-.805-2.3096-.9215-3.7364C4 34.6813 4 32.9503 4 30.766v-5.532c0-2.1843 0-3.9153.114-5.3105.1166-1.4268.3598-2.634.9215-3.7364a9.499 9.499 0 0 1 .8832-1.4119l-2.4171-2.1557c-.6183-.5515-.6724-1.4997-.121-2.1179Zm4.7879 6.2802a6.5018 6.5018 0 0 0-.46.7673c-.3103.6089-.503 1.3774-.6045 2.6187C7.0012 21.4265 7 23.0351 7 25.3v5.4c0 2.265.0012 3.8735.104 5.1323.1014 1.2412.2942 2.0097.6045 2.6187a6.5003 6.5003 0 0 0 2.8406 2.8406c.6089.3102 1.3774.503 2.6187.6044 1.2587.1028 2.8673.104 5.1322.104h7.4c2.265 0 3.8735-.0012 5.1323-.104 1.2412-.1014 2.0097-.2942 2.6187-.6044a6.5072 6.5072 0 0 0 1.2581-.8384L8.1685 16.7818Zm36.4726-.1327c-.6068.3048-1.3074.7412-2.0224 1.1865l-2.7659 1.7221c-.1278-1.2693-.3752-2.3637-.8882-3.3706a9.5 9.5 0 0 0-4.1517-4.1516c-1.1023-.5617-2.3096-.8049-3.7364-.9215C29.6813 11 27.9503 11 25.766 11H14.5c-.8284 0-1.5.6716-1.5 1.5s.6716 1.5 1.5 1.5h11.2c2.265 0 3.8735.0012 5.1323.104 1.2412.1014 2.0097.2942 2.6187.6045a6.4997 6.4997 0 0 1 2.8406 2.8406c.3102.6089.503 1.3774.6044 2.6187.1028 1.2587.104 2.8673.104 5.1322v7.6988a3.0002 3.0002 0 0 0 1.4147 2.547l4.1091 2.5575.0956.0596c.715.4451 1.4156.8814 2.0224 1.186.6133.3079 1.5912.7305 2.7654.6345a4.9998 4.9998 0 0 0 3.6085-2.0044c.7018-.9461.8599-1.9996.9226-2.683.062-.6761.0618-1.5015.0617-2.3436v-9.9068c.0001-.8423.0003-1.6677-.0617-2.3439-.0627-.6834-.2208-1.7371-.9228-2.6833a4.9996 4.9996 0 0 0-3.6088-2.0042c-1.1743-.0958-2.1523.3269-2.7656.6349ZM40 23l4.1087-2.5582c1.5968-.9942 2.3953-1.4913 3.054-1.4376a2.0001 2.0001 0 0 1 1.4435.8017C49 20.3367 49 21.2773 49 23.1583v9.6814c0 1.8808 0 2.8212-.3937 3.3519a2 2 0 0 1-1.4434.8018c-.6587.0538-1.4571-.4431-3.0538-1.437L40 32.9988V23Z" clip-rule="evenodd"/></svg>
