<svg xmlns="http://www.w3.org/2000/svg" width="56" height="56" fill="none" viewBox="0 0 56 56"><path fill="currentColor" fill-rule="evenodd" d="M31.0765 11.114C29.6813 11 27.9503 11 25.766 11h-7.532c-2.1843 0-3.9153 0-5.3105.114-1.4268.1165-2.6341.3598-3.7364.9214a9.5003 9.5003 0 0 0-4.1517 4.1517c-.5616 1.1023-.8049 2.3096-.9214 3.7364C4 21.3187 4 23.0497 4 25.234v5.532c0 2.1843 0 3.9153.114 5.3105.1166 1.4268.3598 2.6341.9214 3.7364a9.4998 9.4998 0 0 0 4.1517 4.1517c1.1023.5616 2.3096.8049 3.7364.9214C14.3187 45 16.0497 45 18.234 45h7.532c2.1843 0 3.9153 0 5.3105-.114 1.4268-.1165 2.6341-.3598 3.7364-.9214a9.4996 9.4996 0 0 0 4.1517-4.1517c.5132-1.0073.7605-2.1021.8883-3.372l2.7665 1.722c.715.4451 1.4156.8814 2.0223 1.186.6134.3079 1.5913.7304 2.7654.6345a4.9998 4.9998 0 0 0 3.6086-2.0044c.7018-.9461.8599-1.9997.9225-2.6831.0621-.676.0619-1.5014.0618-2.3435v-9.9068c.0001-.8423.0003-1.6678-.0618-2.3439-.0627-.6834-.2207-1.7371-.9227-2.6833a4.9996 4.9996 0 0 0-3.6089-2.0042c-1.1742-.0959-2.1522.3269-2.7655.6349-.6068.3047-1.3074.7411-2.0224 1.1864l-2.7659 1.7222c-.1279-1.2693-.3752-2.3637-.8882-3.3706a9.5001 9.5001 0 0 0-4.1517-4.1517c-1.1023-.5616-2.3096-.8049-3.7364-.9214Zm-17.9087 2.99c-1.2413.1014-2.0098.2942-2.6187.6045a6.4992 6.4992 0 0 0-2.8406 2.8406c-.3103.6089-.503 1.3774-.6045 2.6187C7.0012 21.4265 7 23.035 7 25.3v5.4c0 2.265.0012 3.8735.104 5.1322.1014 1.2413.2942 2.0098.6045 2.6187a6.4992 6.4992 0 0 0 2.8406 2.8406c.6089.3103 1.3774.5031 2.6187.6045 1.2587.1028 2.8672.104 5.1322.104h7.4c2.265 0 3.8735-.0012 5.1322-.104 1.2413-.1014 2.0098-.2942 2.6187-.6045a6.4987 6.4987 0 0 0 2.8406-2.8406c.3103-.6089.5031-1.3774.6045-2.6187.1028-1.2587.104-2.8672.104-5.1322v-5.4c0-2.265-.0012-3.8735-.104-5.1322-.1014-1.2413-.2942-2.0098-.6045-2.6187a6.4987 6.4987 0 0 0-2.8406-2.8406c-.6089-.3103-1.3774-.5031-2.6187-.6045C29.5735 14.0012 27.965 14 25.7 14h-7.4c-2.265 0-3.8735.0012-5.1322.104ZM40 23l4.1086-2.5582c1.5969-.9942 2.3953-1.4913 3.0541-1.4376a2.0002 2.0002 0 0 1 1.4435.8017C49 20.3367 49 21.2772 49 23.1583v9.6813c0 1.8809 0 2.8213-.3937 3.352a2 2 0 0 1-1.4434.8018c-.6587.0538-1.4571-.4431-3.0539-1.437L40 32.9988V23Z" clip-rule="evenodd"/></svg>
