<svg fill="none" height="56" viewBox="0 0 56 56" width="56" xmlns="http://www.w3.org/2000/svg"><path clip-rule="evenodd" d="m52 28c0-13.2548-10.7452-24-24-24s-24 10.7452-24 24 10.7452 24 24 24 24-10.7452 24-24zm-45 0c0-11.598 9.402-21 21-21s21 9.402 21 21-9.402 21-21 21-21-9.402-21-21zm17.6735-8.5536c.4653 0 .9225.1212 1.3265.3518l10.6525 6.0795c1.282.7317 1.7274 2.3628.9948 3.6432-.2369.414-.5804.7571-.9948.9936l-10.6525 6.0796c-1.282.7316-2.9152.2868-3.6477-.9936-.2309-.4035-.3523-.8601-.3523-1.3248v-12.1591c0-1.4748 1.197-2.6702 2.6735-2.6702zm9.9888 8.7497-9.6623 5.5145v-11.0289z" fill="currentColor" fill-rule="evenodd"/></svg>
