<?xml version="1.0" encoding="UTF-8"?>
<svg width="56px" height="56px" viewBox="0 0 56 56" version="1.1" xmlns="http://www.w3.org/2000/svg" xmlns:xlink="http://www.w3.org/1999/xlink">
    <!-- Generator: Sketch 55.2 (78181) - https://sketchapp.com -->
    <title>video_outline_56</title>
    <desc>Created with Sketch.</desc>
    <g id="Page-1" stroke="none" stroke-width="1" fill="none" fill-rule="evenodd">
        <g id="video_outline_56" fill-rule="nonzero">
            <rect id="Box" x="0" y="0" width="56" height="56"></rect>
            <path d="M16,9 C13.2385763,9 11,11.2385763 11,14 L11,42 C11,44.7614237 13.2385763,47 16,47 L40,47 C42.7614237,47 45,44.7614237 45,42 L45,14 C45,11.2385763 42.7614237,9 40,9 L16,9 Z M16,6 L40,6 C44.418278,6 48,9.581722 48,14 L48,42 C48,46.418278 44.418278,50 40,50 L16,50 C11.581722,50 8,46.418278 8,42 L8,14 C8,9.581722 11.581722,6 16,6 Z M17,14 L19,14 C19.5522847,14 20,14.4477153 20,15 L20,17 C20,17.5522847 19.5522847,18 19,18 L17,18 C16.4477153,18 16,17.5522847 16,17 L16,15 C16,14.4477153 16.4477153,14 17,14 Z M17,22 L19,22 C19.5522847,22 20,22.4477153 20,23 L20,25 C20,25.5522847 19.5522847,26 19,26 L17,26 C16.4477153,26 16,25.5522847 16,25 L16,23 C16,22.4477153 16.4477153,22 17,22 Z M17,30 L19,30 C19.5522847,30 20,30.4477153 20,31 L20,33 C20,33.5522847 19.5522847,34 19,34 L17,34 C16.4477153,34 16,33.5522847 16,33 L16,31 C16,30.4477153 16.4477153,30 17,30 Z M17,38 L19,38 C19.5522847,38 20,38.4477153 20,39 L20,41 C20,41.5522847 19.5522847,42 19,42 L17,42 C16.4477153,42 16,41.5522847 16,41 L16,39 C16,38.4477153 16.4477153,38 17,38 Z M37,14 L39,14 C39.5522847,14 40,14.4477153 40,15 L40,17 C40,17.5522847 39.5522847,18 39,18 L37,18 C36.4477153,18 36,17.5522847 36,17 L36,15 C36,14.4477153 36.4477153,14 37,14 Z M37,22 L39,22 C39.5522847,22 40,22.4477153 40,23 L40,25 C40,25.5522847 39.5522847,26 39,26 L37,26 C36.4477153,26 36,25.5522847 36,25 L36,23 C36,22.4477153 36.4477153,22 37,22 Z M37,30 L39,30 C39.5522847,30 40,30.4477153 40,31 L40,33 C40,33.5522847 39.5522847,34 39,34 L37,34 C36.4477153,34 36,33.5522847 36,33 L36,31 C36,30.4477153 36.4477153,30 37,30 Z M37,38 L39,38 C39.5522847,38 40,38.4477153 40,39 L40,41 C40,41.5522847 39.5522847,42 39,42 L37,42 C36.4477153,42 36,41.5522847 36,41 L36,39 C36,38.4477153 36.4477153,38 37,38 Z" id="↳-Icon-Color" fill="currentColor"></path>
        </g>
    </g>
</svg>
