<svg fill="none" height="56" viewBox="0 0 56 56" width="56" xmlns="http://www.w3.org/2000/svg"><path clip-rule="evenodd" d="m4 24.8c0-4.4804 0-6.7206.87195-8.4319.76698-1.5053 1.99083-2.7292 3.49613-3.4962 1.71132-.8719 3.95152-.8719 8.43192-.8719h10.4c4.4804 0 6.7206 0 8.4319.8719 1.5053.767 2.7292 1.9909 3.4962 3.4962.4163.817.6338 1.7546.7475 2.9991 3.4065-2.2966 5.3049-3.4345 6.9169-3.3486 1.613.0859 3.1066.8765 4.0847 2.1619 1.1228 1.4759 1.1228 4.1722 1.1228 9.565v.522c0 5.3927 0 8.0891-1.1228 9.5649-.9781 1.2855-2.4717 2.076-4.0847 2.162-1.6122.0858-3.5108-1.0523-6.918-3.3494-.114 1.2384-.3315 2.1725-.7464 2.9869-.767 1.5053-1.9909 2.7292-3.4962 3.4962-1.7113.8719-3.9515.8719-8.4319.8719h-10.4c-4.4804 0-6.7206 0-8.43192-.8719-1.5053-.767-2.72915-1.9909-3.49613-3.4962-.87195-1.7113-.87195-3.9515-.87195-8.4319zm12.8-9.8h10.4c2.2897 0 3.8266.0023 5.0101.099 1.1485.0939 1.6976.2614 2.0599.446.9408.4793 1.7057 1.2442 2.185 2.185.1846.3623.3521.9114.446 2.0599.0967 1.1835.099 2.7204.099 5.0101v6.4c0 2.2897-.0023 3.8266-.099 5.0101-.0939 1.1485-.2614 1.6976-.446 2.0599-.4793.9408-1.2442 1.7057-2.185 2.185-.3623.1846-.9114.3521-2.0599.446-1.1835.0967-2.7204.099-5.0101.099h-10.4c-2.2897 0-3.8266-.0023-5.0101-.099-1.1485-.0939-1.6976-.2614-2.05985-.446-.94081-.4793-1.70572-1.2442-2.18508-2.185-.18457-.3623-.3521-.9114-.44594-2.0599-.0967-1.1835-.09903-2.7204-.09903-5.0101v-6.4c0-2.2897.00233-3.8266.09903-5.0101.09384-1.1485.26137-1.6976.44594-2.0599.47936-.9408 1.24427-1.7057 2.18508-2.185.36225-.1846.91135-.3521 2.05985-.446 1.1835-.0967 2.7204-.099 5.0101-.099zm23.1969 18.1033 5.0973 3.4661c1.6598 1.1287 3.9058-.0601 3.9058-2.0673v-12.9913c0-2.0072-2.246-3.196-3.9058-2.0674l-5.0972 3.4662c.003.5825.003 1.2107.003 1.8904v6.4c0 .6847 0 1.3171-.0031 1.9033z" fill="currentColor" fill-rule="evenodd"/></svg>
