<svg xmlns="http://www.w3.org/2000/svg" width="56" height="56" fill="currentColor" viewBox="0 0 56 56"><path fill-rule="evenodd" d="M37 28a9 9 0 1 1-18 0 9 9 0 0 1 18 0Zm-3 0a6 6 0 1 1-12 0 6 6 0 0 1 12 0Z" clip-rule="evenodd"/><path fill-rule="evenodd" d="M51 28c0 5-10 17-23 17S5 33 5 28s10-17 23-17 23 12 23 17Zm-3 0c0 .415-.278 1.523-1.31 3.178-.973 1.558-2.433 3.307-4.295 4.943C38.647 39.415 33.572 42 28 42c-5.572 0-10.647-2.585-14.395-5.879-1.862-1.636-3.322-3.385-4.294-4.943C8.278 29.523 8 28.415 8 28c0-.415.278-1.523 1.31-3.178.973-1.558 2.433-3.307 4.295-4.944C17.353 16.585 22.428 14 28 14c5.572 0 10.647 2.585 14.395 5.878 1.862 1.637 3.322 3.386 4.294 4.944C47.722 26.477 48 27.585 48 28Z" clip-rule="evenodd"/></svg>
