<svg xmlns="http://www.w3.org/2000/svg" width="56" height="56" fill="currentColor" viewBox="0 0 56 56"><path fill-rule="evenodd" d="M28 20c-2.21 0-4.21.895-5.657 2.343A7.975 7.975 0 0 0 20 28c0 2.21.895 4.21 2.343 5.657A7.975 7.975 0 0 0 28 36c2.21 0 4.21-.895 5.657-2.343A7.975 7.975 0 0 0 36 28c0-2.21-.895-4.21-2.343-5.657A7.975 7.975 0 0 0 28 20Zm-3.535 4.465A4.975 4.975 0 0 1 28 23c1.381 0 2.627.556 3.535 1.465A4.975 4.975 0 0 1 33 28a4.975 4.975 0 0 1-1.465 3.535A4.975 4.975 0 0 1 28 33a4.975 4.975 0 0 1-3.535-1.465A4.975 4.975 0 0 1 23 28c0-1.381.556-2.627 1.465-3.535Z M42.5 27a1.5 1.5 0 0 1 1.5 1.5c0 3.954-1.825 7.816-4.614 10.673C36.592 42.035 32.722 44 28.5 44a1.5 1.5 0 0 1 0-3c3.278 0 6.408-1.535 8.74-3.923C39.574 34.684 41 31.546 41 28.5a1.5 1.5 0 0 1 1.5-1.5Zm-15-12a1.5 1.5 0 1 0 0-3C19.493 12 12 19.15 12 27.5a1.5 1.5 0 1 0 3 0C15 20.849 21.108 15 27.5 15Z M28 4a23.93 23.93 0 0 0-16.97 7.03A23.93 23.93 0 0 0 4 28a23.93 23.93 0 0 0 7.03 16.97A23.93 23.93 0 0 0 28 52a23.93 23.93 0 0 0 16.97-7.03A23.93 23.93 0 0 0 52 28a23.93 23.93 0 0 0-7.03-16.97A23.93 23.93 0 0 0 28 4Zm-14.85 9.15A20.93 20.93 0 0 1 28 7a20.93 20.93 0 0 1 14.85 6.15A20.93 20.93 0 0 1 49 28a20.93 20.93 0 0 1-6.15 14.85A20.93 20.93 0 0 1 28 49a20.93 20.93 0 0 1-14.85-6.15A20.93 20.93 0 0 1 7 28a20.93 20.93 0 0 1 6.15-14.85Z" clip-rule="evenodd"/></svg>
