<svg fill="none" height="56" viewBox="0 0 56 56" width="56" xmlns="http://www.w3.org/2000/svg"><path clip-rule="evenodd" d="m15.0358 8h.0642 17.8.0642.0001c1.6256-.00001 2.9368-.00002 3.9986.08673 1.0933.08932 2.0536.27804 2.942.73072 1.4112.71905 2.5586 1.86645 3.2776 3.27765.4527.8884.6414 1.8487.7308 2.942.0253.3095.0432.6402.0559.9937.3535.0127.6842.0306.9937.0559 1.0933.0894 2.0536.2781 2.942.7308 1.4112.719 2.5586 1.8664 3.2776 3.2776.4527.8884.6414 1.8487.7308 2.942.0867 1.0618.0867 2.373.0867 3.9987v.0642 9.8.0642c0 1.6257 0 2.9369-.0867 3.9987-.0894 1.0933-.2781 2.0536-.7308 2.942-.719 1.4112-1.8664 2.5586-3.2776 3.2776-.8884.4527-1.8487.6415-2.942.7308-1.0618.0867-2.373.0867-3.9987.0867h-.0642-7.8245-.1113-.0642-17.8-.0642c-1.6257 0-2.9369 0-3.9987-.0867-1.09331-.0894-2.05359-.2781-2.94203-.7308-1.41121-.719-2.55857-1.8664-3.27762-3.2776-.45268-.8884-.6414-1.8487-.73072-2.942-.08676-1.0618-.08674-2.373-.08673-3.9987v-.0642-17.8-.0642-.1082-1.4276-1.5h.03195c.01262-.3419.03023-.6624.05478-.9629.08932-1.0933.27804-2.0536.73072-2.942.71905-1.4112 1.86641-2.5586 3.27762-3.27765.88844-.45268 1.84872-.6414 2.94203-.73072 1.0618-.08675 2.373-.08674 3.9987-.08673zm25.8874 7.2814c.0183.223.0322.4614.0428.7186h-.0018-.0642-33.86596c.0106-.2572.0245-.4956.04273-.7186.07416-.9078.21242-1.4293.4137-1.8244.43143-.8467 1.11985-1.5351 1.96657-1.9665.39504-.2013.91656-.3396 1.82436-.4137.9252-.0756 2.1137-.0768 3.8186-.0768h17.8c1.7049 0 2.8934.0012 3.8186.0768.9078.0741 1.4293.2124 1.8244.4137.8467.4314 1.5351 1.1198 1.9665 1.9665.2013.3951.3396.9166.4137 1.8244zm-33.9232 3.7186v.1 17.8c0 1.7049.00117 2.8934.07677 3.8186.07416.9078.21242 1.4293.4137 1.8244.43143.8467 1.11985 1.5351 1.96657 1.9665.37035.1887.85186.322 1.65856.3991.0538.0051.109.01.1658.0146.8674.0709 1.9662.0764 3.5049.0768h.3137 17.8c1.7049 0 2.8934-.0012 3.8186-.0768l5.784.0733c.8974-.0063 1.6127-.024 2.216-.0733.9078-.0741 1.4293-.2124 1.8244-.4137.8467-.4314 1.5351-1.1198 1.9665-1.9665.2013-.3951.3396-.9166.4137-1.8244.0756-.9252.0768-2.1137.0768-3.8186v-9.8c0-1.7049-.0012-2.8934-.0768-3.8186-.0741-.9078-.2124-1.4293-.4137-1.8244-.4314-.8467-1.1198-1.5351-1.9665-1.9665-.3951-.2013-.9166-.3396-1.8244-.4137-.223-.0183-.4614-.0322-.7186-.0428v.0018l-3-.0358h-.1zm31.5 11c-.8284 0-1.5.6716-1.5 1.5s.6716 1.5 1.5 1.5h4c.8284 0 1.5-.6716 1.5-1.5s-.6716-1.5-1.5-1.5z" fill="currentColor" fill-rule="evenodd"/></svg>
