<?xml version="1.0" encoding="UTF-8"?>
<svg width="56px" height="56px" viewBox="0 0 56 56" version="1.1" xmlns="http://www.w3.org/2000/svg" xmlns:xlink="http://www.w3.org/1999/xlink">
    <!-- Generator: Sketch 61.2 (89653) - https://sketch.com -->
    <title>Icons 56/write_outline_56</title>
    <desc>Created with Sketch.</desc>
    <g id="Icons-56/write_outline_56" stroke="none" stroke-width="1" fill="none" fill-rule="evenodd">
        <g id="write_outline_56" fill-rule="nonzero">
            <rect x="0" y="0" width="56" height="56"></rect>
            <path d="M21.319426,7 L35.1021505,7.00131388 C35.4153338,7.00331042 35.7159912,7.00760402 36.005137,7.01434248 L36.0048141,10.0142736 C35.595429,10.0045947 35.155491,10 34.680574,10 L21.319426,10 L20.5816604,10.0040768 C17.274413,10.0424838 15.8211753,10.3572412 14.3231698,11.1583833 C12.9549429,11.8901191 11.8901191,12.9549429 11.1583833,14.3231698 C10.328629,15.8746755 10.0206215,17.3781586 10.0010096,20.9431893 L10.0010096,35.0568107 C10.0206215,38.6218414 10.328629,40.1253245 11.1583833,41.6768302 C11.8901191,43.0450571 12.9549429,44.1098809 14.3231698,44.8416167 C15.8211753,45.6427588 17.274413,45.9575162 20.5816604,45.9959232 L21.319426,46 L34.680574,46 L35.4183396,45.9959232 C38.725587,45.9575162 40.1788247,45.6427588 41.6768302,44.8416167 C43.0450571,44.1098809 44.1098809,43.0450571 44.8416167,41.6768302 C45.671371,40.1253245 45.9793785,38.6218414 45.9989904,35.0568107 L45.9989904,20.9431893 C45.9971612,20.6106745 45.992823,20.2960942 45.9857866,19.9977367 L48.9857451,19.9986287 C48.9924332,20.286619 48.9966982,20.5860255 48.9986861,20.8978495 L48.9986861,35.1021505 C48.973162,39.1059561 48.5722137,41.0625589 47.4870563,43.0916268 C46.4757211,44.9826591 44.9826591,46.4757211 43.0916268,47.4870563 C41.1325268,48.5347944 39.2409804,48.9446968 35.5091214,48.9946938 L34.680574,49 L21.319426,49 L20.4908786,48.9946938 C16.7590196,48.9446968 14.8674732,48.5347944 12.9083732,47.4870563 C11.0173409,46.4757211 9.52427888,44.9826591 8.51294372,43.0916268 C7.42778634,41.0625589 7.02683804,39.1059561 7.00131388,35.1021505 L7.00131388,20.8978495 C7.02683804,16.8940439 7.42778634,14.9374411 8.51294372,12.9083732 C9.52427888,11.0173409 11.0173409,9.52427888 12.9083732,8.51294372 C14.8674732,7.46520556 16.7590196,7.05530321 20.4908786,7.00530618 L21.319426,7 Z M46.3563488,9.64365078 C47.0397663,10.3270683 47.0397663,11.435107 46.3563488,12.1185245 L28.2014031,30.2734702 C27.7390227,30.7358506 27.2856582,31.1488329 26.8217299,31.5265479 C26.3578016,31.904263 25.8833095,32.2467108 25.378674,32.5680224 C24.8740385,32.889334 24.3392595,33.1895093 23.7547574,33.4826792 L23.4263741,33.6473872 C23.0314399,33.8454751 22.5507005,33.6858998 22.3526126,33.2909656 C22.2394013,33.0652527 22.2394012,32.7993387 22.3526125,32.5736258 L22.5173203,32.2452426 C22.8104901,31.6607407 23.1106653,31.1259618 23.4319768,30.6213262 C23.7532884,30.1166907 24.0957363,29.6421984 24.4734514,29.1782701 C24.8511664,28.7143417 25.2641486,28.2609772 25.7265288,27.798597 L43.881475,9.64365078 C44.5648926,8.96023327 45.6729313,8.96023327 46.3563488,9.64365078 Z M47.5,18 C48.3284271,18 49,18.6715729 49,19.5 L49,20 L46,20 L46,19.5 C46,18.6715729 46.6715729,18 47.5,18 Z M36.5,7 C37.3284271,7 38,7.67157288 38,8.5 C38,9.32842712 37.3284271,10 36.5,10 L36,10 L36,7 L36.5,7 Z M49,5 C50.1045695,5 51,5.8954305 51,7 C51,8.1045695 50.1045695,9 49,9 C47.8954305,9 47,8.1045695 47,7 C47,5.8954305 47.8954305,5 49,5 Z" id="↳-Icon-Color" fill="currentColor"></path>
        </g>
    </g>
</svg>
