<svg xmlns="http://www.w3.org/2000/svg" width="28" height="28" fill="currentColor" viewBox="0 0 28 28"><path fill-rule="evenodd" d="M14 4C8.477 4 4 8.477 4 14s4.477 10 10 10 10-4.477 10-10S19.523 4 14 4ZM2 14C2 7.373 7.373 2 14 2s12 5.373 12 12-5.373 12-12 12S2 20.627 2 14Z M16.323 18.7c2.172 0 3.677-1.044 3.677-2.587 0-1.184-.875-2.016-2.082-2.229v-.042c1.04-.237 1.767-.996 1.767-1.95 0-1.39-1.369-2.392-3.362-2.392-1.987 0-3.361 1.002-3.361 2.386 0 .972.731 1.72 1.779 1.956v.042c-1.208.213-2.089 1.039-2.089 2.223 0 1.549 1.494 2.593 3.671 2.593Zm0-5.49c-.702 0-1.202-.449-1.202-1.093 0-.65.506-1.093 1.202-1.093.702 0 1.214.444 1.214 1.093 0 .644-.506 1.093-1.214 1.093Zm0 3.96c-.815 0-1.38-.517-1.38-1.227 0-.698.565-1.202 1.38-1.202.821 0 1.386.504 1.386 1.202 0 .71-.565 1.227-1.386 1.227Zm-5.777 1.327c.662 0 1.105-.429 1.105-1.093v-6.665c0-.762-.468-1.239-1.27-1.239-.436 0-.813.048-1.28.363l-1.658 1.123c-.315.218-.443.466-.443.786 0 .447.322.767.753.767.212 0 .346-.048.546-.187l1.093-.755h.043v5.807c0 .664.449 1.093 1.11 1.093Z"/></svg>
