<svg fill="none" height="28" viewBox="0 0 28 28" width="28" xmlns="http://www.w3.org/2000/svg"><g fill="currentColor"><path d="m14 10.5c1.1046 0 2-.89543 2-2s-.8954-2-2-2-2 .89543-2 2 .8954 2 2 2z"/><path d="m15.5 15c0 .2237.0361.4459.1068.6581l1.3419 4.0257c.1746.5239-.1085 1.0902-.6325 1.2649-.5239.1746-1.0902-.1085-1.2649-.6325l-.9564-2.8693c-.0304-.0912-.1594-.0912-.1898 0l-.9564 2.8693c-.1747.524-.741.8071-1.2649.6325-.524-.1747-.8071-.741-.6325-1.2649l1.1921-3.5763c.17-.5099.2566-1.0438.2566-1.5812v-.8779c-1.4403-.1965-2.7931-.6721-4.00073-1.3706-.47806-.2766-.64142-.8883-.36488-1.3664.27655-.478.88828-.6414 1.36634-.3649 1.32277.7652 2.85827 1.2035 4.49927 1.2035s3.1765-.4383 4.4993-1.2035c.478-.2765 1.0898-.1131 1.3663.3649.2765.4781.1132 1.0898-.3649 1.3664-1.2076.6985-2.5604 1.1741-4.0007 1.3706z"/><path clip-rule="evenodd" d="m26 14c0 6.6274-5.3726 12-12 12-6.62742 0-12-5.3726-12-12 0-6.62742 5.37258-12 12-12 6.6274 0 12 5.37258 12 12zm-2 0c0 5.5228-4.4772 10-10 10-5.52285 0-10-4.4772-10-10 0-5.52285 4.47715-10 10-10 5.5228 0 10 4.47715 10 10z" fill-rule="evenodd"/></g></svg>
