<svg width="28" height="28" fill="none" xmlns="http://www.w3.org/2000/svg"><path fill-rule="evenodd" clip-rule="evenodd" d="M11.663 2.98a3.25 3.25 0 014.674 0l.793.82a1.25 1.25 0 001.029.375l1.134-.12a3.25 3.25 0 013.581 3.005l.08 1.138c.027.384.229.733.548.949l.945.638a3.25 3.25 0 01.812 4.603l-.67.923a1.25 1.25 0 00-.19 1.079l.313 1.096a3.25 3.25 0 01-2.337 4.048l-1.106.277a1.25 1.25 0 00-.84.704l-.464 1.041a3.25 3.25 0 01-4.392 1.599l-1.025-.5a1.25 1.25 0 00-1.096 0l-1.025.5a3.25 3.25 0 01-4.392-1.599l-.465-1.041a1.25 1.25 0 00-.839-.704l-1.106-.277a3.25 3.25 0 01-2.337-4.048l.314-1.096a1.25 1.25 0 00-.19-1.079l-.67-.923a3.25 3.25 0 01.811-4.603l.945-.638a1.25 1.25 0 00.548-.949l.08-1.138a3.25 3.25 0 013.58-3.004l1.135.119a1.25 1.25 0 001.03-.375l.792-.82zm3.236 1.39a1.25 1.25 0 00-1.798 0l-.792.82a3.25 3.25 0 01-2.676.974l-1.135-.12A1.25 1.25 0 007.121 7.2l-.08 1.138a3.25 3.25 0 01-1.424 2.466l-.945.638a1.25 1.25 0 00-.312 1.77l.67.924a3.25 3.25 0 01.494 2.804l-.314 1.097a1.25 1.25 0 00.9 1.557l1.106.276a3.25 3.25 0 012.181 1.83l.464 1.042a1.25 1.25 0 001.69.615l1.025-.5a3.25 3.25 0 012.848 0l1.025.5a1.25 1.25 0 001.69-.615l.464-1.041a3.25 3.25 0 012.181-1.831l1.107-.276a1.25 1.25 0 00.899-1.557l-.314-1.097a3.25 3.25 0 01.494-2.804l.67-.923a1.25 1.25 0 00-.312-1.77l-.945-.639a3.25 3.25 0 01-1.424-2.466l-.08-1.138a1.25 1.25 0 00-1.377-1.155l-1.135.119a3.25 3.25 0 01-2.676-.974l-.792-.82zM18 14a1 1 0 01-1 1h-2v2a1 1 0 11-2 0v-2h-2a1 1 0 110-2h2v-2a1 1 0 112 0v2h2a1 1 0 011 1z" fill="currentColor"/></svg>
