<svg fill="none" height="28" viewBox="0 0 28 28" width="28" xmlns="http://www.w3.org/2000/svg" xmlns:xlink="http://www.w3.org/1999/xlink"><linearGradient id="a" gradientUnits="userSpaceOnUse" x1="-14" x2="14" y1="14" y2="42"><stop offset="0" stop-color="#70b2ff"/><stop offset="1" stop-color="#5c9ce6"/></linearGradient><path d="m0 14c0-7.73199 6.26801-14 14-14 7.732 0 14 6.26801 14 14 0 7.732-6.268 14-14 14-7.73199 0-14-6.268-14-14z" fill="url(#a)"/><path d="m14 7c.5523 0 1 .44772 1 1v5h5c.5523 0 1 .4477 1 1s-.4477 1-1 1h-5v5c0 .5523-.4477 1-1 1s-1-.4477-1-1v-5h-5c-.55228 0-1-.4477-1-1s.44772-1 1-1h5v-5c0-.55228.4477-1 1-1z" fill="#fff"/></svg>
