<?xml version="1.0" encoding="UTF-8"?>
<svg width="28px" height="28px" viewBox="0 0 28 28" version="1.1" xmlns="http://www.w3.org/2000/svg" xmlns:xlink="http://www.w3.org/1999/xlink">
    <!-- Generator: Sketch 63.1 (92452) - https://sketch.com -->
    <title>add_circle_outline_28</title>
    <desc>Created with Sketch.</desc>
    <g id="Page-1" stroke="none" stroke-width="1" fill="none" fill-rule="evenodd">
        <g id="add_circle_outline_28">
            <polygon points="0 0 28 0 28 28 0 28"></polygon>
            <path d="M14,2 C20.627417,2 26,7.372583 26,14 C26,20.627417 20.627417,26 14,26 C7.372583,26 2,20.627417 2,14 C2,7.372583 7.372583,2 14,2 Z M14,4 C8.4771525,4 4,8.4771525 4,14 C4,19.5228475 8.4771525,24 14,24 C19.5228475,24 24,19.5228475 24,14 C24,8.4771525 19.5228475,4 14,4 Z M14,8 C14.5522847,8 15,8.44771525 15,9 L15,13 L19,13 C19.5522847,13 20,13.4477153 20,14 C20,14.5522847 19.5522847,15 19,15 L15,15 L15,19 C15,19.5522847 14.5522847,20 14,20 C13.4477153,20 13,19.5522847 13,19 L13,15 L9,15 C8.44771525,15 8,14.5522847 8,14 C8,13.4477153 8.44771525,13 9,13 L13,13 L13,9 C13,8.44771525 13.4477153,8 14,8 Z" id="↳-Icon-Color" fill="currentColor" fill-rule="nonzero"></path>
        </g>
    </g>
</svg>
