<svg xmlns="http://www.w3.org/2000/svg" width="28" height="28" fill="none" viewBox="0 0 28 28"><path fill="currentColor" d="M25 20c0-.5523-.4477-1-1-1s-1 .4477-1 1c0 1.0683-.0734 1.6027-.2825 1.9937-.1683.3146-.4092.5555-.7238.7238-.3351.1792-.6624.2587-1.4218.2778H20c-.5523 0-1 .4477-1 1s.4477 1 1 1c1.3702 0 2.2166-.129 2.9369-.5142.6631-.3546 1.1896-.8811 1.5442-1.5442C24.8663 22.2166 25 21.3702 25 20ZM5.0047 20c0-.5523-.4477-1-1-1s-1 .4477-1 1c0 1.3702.129 2.2166.5142 2.9369.3546.6631.881 1.1896 1.5442 1.5442C5.7834 24.8663 6.6298 25 8 25c.5523 0 1-.4477 1-1s-.4477-1-1-1c-1.0683 0-1.6027-.0734-1.9937-.2825-.3146-.1683-.5555-.4092-.7238-.7238-.1792-.3351-.2588-.6624-.2778-1.4218V20ZM9 4c0-.5523-.4477-1-1-1-1.3702 0-2.2166.1337-2.9369.5189-.6631.3546-1.1896.881-1.5442 1.5442C3.1337 5.7834 3 6.6298 3 8c0 .5523.4477 1 1 1s1-.4477 1-1c0-1.0683.0734-1.6027.2825-1.9937.1683-.3146.4092-.5555.7238-.7238.3351-.1792.6624-.2588 1.4218-.2778L8 5c.5523 0 1-.4477 1-1Zm13.9369-.4811C22.2166 3.1337 21.3702 3 20 3c-.5523 0-1 .4477-1 1s.4477 1 1 1c1.0683 0 1.6027.0734 1.9937.2825.3146.1683.5555.4092.7238.7238.1792.3351.2587.6624.2778 1.4218L23 8c0 .5523.4477 1 1 1s1-.4477 1-1c0-1.3702-.1337-2.2166-.5189-2.9369C24.1265 4.4 23.6 3.8735 22.9369 3.519ZM15 10c0-.5523-.4477-1-1-1s-1 .4477-1 1v3h-3c-.5523 0-1 .4477-1 1s.4477 1 1 1h3v3c0 .5523.4477 1 1 1s1-.4477 1-1v-3h3c.5523 0 1-.4477 1-1s-.4477-1-1-1h-3v-3Z"/></svg>
