<svg fill="none" height="28" viewBox="0 0 28 28" width="28" xmlns="http://www.w3.org/2000/svg" xmlns:xlink="http://www.w3.org/1999/xlink"><linearGradient id="a" gradientUnits="userSpaceOnUse" x1="-14" x2="14" y1="14" y2="42"><stop offset="0" stop-color="#70b2ff"/><stop offset="1" stop-color="#5c9ce6"/></linearGradient><path d="m0 14c0-7.73199 6.26801-14 14-14 7.732 0 14 6.26801 14 14 0 7.732-6.268 14-14 14-7.73199 0-14-6.268-14-14z" fill="url(#a)"/><path d="m17 10c3.5 0 4 4.5 4 6.5 0 1.5-.5 2.5-1.5 2.5-1.5 0-1.25-2.5-3.5-2.5h-4c-2.25 0-2.00845 2.5-3.5 2.5-1 0-1.5-1-1.5-2.5 0-2 .5-6.5 4-6.5zm-6.4693 1.75h-.0614c-.1369 0-.232.0232-.3135.0668s-.1454.1075-.18902.189c-.04357.0815-.06678.1766-.06678.3135v.5807h-.58067c-.10268 0-.18187.0131-.24943.038l-.06411.0288c-.08148.0436-.14543.1075-.18901.189-.04357.0815-.06678.1766-.06678.3135v.0614c0 .1369.02321.232.06678.3135.04358.0815.10753.1454.18901.189s.17663.0668.31354.0668h.58067v.5807c0 .1027.01305.1818.03796.2494l.02882.0641c.04362.0815.10752.1454.18902.189s.1766.0668.3135.0668h.0614c.1369 0 .232-.0232.3135-.0668s.1454-.1075.189-.189.0668-.1766.0668-.3135v-.5807h.5807c.1027 0 .1818-.0131.2494-.038l.0641-.0288c.0815-.0436.1454-.1075.189-.189s.0668-.1766.0668-.3135v-.0614c0-.1369-.0232-.232-.0668-.3135s-.1075-.1454-.189-.189-.1766-.0668-.3135-.0668h-.5807v-.5807c0-.1027-.0131-.1818-.038-.2494l-.0288-.0641c-.0436-.0815-.1075-.1454-.189-.189s-.1766-.0668-.3135-.0668zm7.4 1.15h-1.3614c-.1369 0-.232.0232-.3135.0668s-.1454.1075-.189.189-.0668.1766-.0668.3135v.0614c0 .1369.0232.232.0668.3135s.1075.1454.189.189.1766.0668.3135.0668h1.3614c.1369 0 .232-.0232.3135-.0668s.1454-.1075.189-.189.0668-.1766.0668-.3135v-.0614c0-.1369-.0232-.232-.0668-.3135s-.1075-.1454-.189-.189-.1766-.0668-.3135-.0668z" fill="#fff"/></svg>