<svg fill="none" height="28" viewBox="0 0 28 28" width="28" xmlns="http://www.w3.org/2000/svg" xmlns:xlink="http://www.w3.org/1999/xlink"><linearGradient id="a" gradientUnits="userSpaceOnUse" x1="-14" x2="14" y1="14" y2="42"><stop offset="0" stop-color="#ff5263"/><stop offset="1" stop-color="#ff3347"/></linearGradient><path d="m14 28c7.732 0 14-6.268 14-14 0-7.73199-6.268-14-14-14-7.73199 0-14 6.26801-14 14 0 7.732 6.26801 14 14 14z" fill="url(#a)"/><g fill="#fff"><path d="m19.7 19c-.1687 0-.3885-.0503-.5289-.1487l-2.4391-2.1513s-.1229-.1094-.1517-.1461c-.0289-.0367-.0491-.0765-.0622-.122-.0104-.0365-.0162-.0705-.0181-.1428v-5.5235c0-.1175.0058-.1593.0188-.2049.0131-.0455.0333-.0853.0622-.122.0288-.0366.1517-.1487.1517-.1487l2.4384-2.13511c.1412-.09895.371-.15195.5289-.15489.4418 0 .8.35817.8.8v9.4c0 .4418-.3582.8-.8.8z"/><path d="m14.7 10.5c.1657 0 .3.1343.3.3v5.4c0 .1657-.1343.3-.3.3l-2.2.0025c0 .6062.3257 1.3725.5833 1.6975.3908.4929.2862 1.1199-.1827 1.5307-.469.4108-1.3432.3442-1.7339-.1488-.589-.7429-1.1667-1.93-1.1667-3.0794l-.5-.0025c-1.65685 0-3-1.3431-3-3s1.34315-3 3-3z"/></g></svg>
