<svg width="28" height="28" viewBox="0 0 28 28" fill="none" xmlns="http://www.w3.org/2000/svg">
<path fill-rule="evenodd" clip-rule="evenodd" d="M17 10.9968C17 10.4444 17.4477 9.99661 18 9.99661C19.0898 9.99661 20.1017 10.3631 20.8464 11.0878C21.5954 11.8167 22 12.8362 22 13.9975C22 14.5499 21.5523 14.9977 21 14.9977C20.4477 14.9977 20 14.5499 20 13.9975C20 13.3122 19.77 12.8314 19.4517 12.5216C19.1291 12.2076 18.641 11.997 18 11.997C17.4477 11.997 17 11.5492 17 10.9968Z" fill="currentColor"/>
<path fill-rule="evenodd" clip-rule="evenodd" d="M14.1155 3.11072C13.2539 3.97251 12.982 5.24203 13.0009 6.42443C12.1663 6.14643 11.2728 5.99581 10.3333 5.99581C5.52065 5.99581 2 9.42699 2 14.1975C2 16.4988 2.82374 19.3747 4.2039 21.6867C5.55943 23.9576 7.65452 26 10.3333 26C11.6595 26 12.8942 25.6998 14.0001 25.1653C15.1064 25.7 16.3405 26 17.6666 26C20.3455 26 22.4406 23.9576 23.7961 21.6867C25.1763 19.3747 26 16.4988 26 14.1975C26 9.70575 22.8788 6.40138 18.4967 6.03054C18.8071 5.42305 18.9259 4.78079 18.9718 4.28973C19.0397 3.56461 18.9487 2.86707 18.8445 2.15045C18.1272 2.04887 17.4314 1.95519 16.7057 2.0231C15.973 2.09166 14.9036 2.32252 14.1155 3.11072ZM10.3333 7.99623C6.59046 7.99623 4 10.5662 4 14.1975C4 16.0971 4.70403 18.6224 5.9211 20.6613C7.16279 22.7413 8.73437 23.9996 10.3333 23.9996C11.3948 23.9996 12.3695 23.7505 13.2381 23.3106C13.7164 23.0683 14.2835 23.0683 14.762 23.3106C15.6312 23.7507 16.6053 23.9996 17.6667 23.9996C19.2656 23.9996 20.8372 22.7413 22.0789 20.6613C23.296 18.6224 24 16.0971 24 14.1975C24 10.5662 21.4095 7.99623 17.6667 7.99623C16.6172 7.99623 15.6309 8.2454 14.7639 8.6852C14.2853 8.92795 13.7177 8.92823 13.2388 8.68564C12.3694 8.24522 11.3947 7.99623 10.3333 7.99623ZM15.0115 5.98424C15.5171 5.94834 16.0978 5.83843 16.4702 5.4659C16.8427 5.09338 16.9526 4.51257 16.9885 4.00689C16.4829 4.04279 15.9022 4.1527 15.5298 4.52523C15.1573 4.89775 15.0474 5.47857 15.0115 5.98424Z" fill="currentColor"/>
<path fill-rule="evenodd" clip-rule="evenodd" d="M18 9.99661C17.4477 9.99661 17 10.4444 17 10.9968C17 11.5492 17.4477 11.997 18 11.997C18.641 11.997 19.1291 12.2076 19.4517 12.5216C19.77 12.8314 20 13.3122 20 13.9975C20 14.5499 20.4477 14.9977 21 14.9977C21.5523 14.9977 22 14.5499 22 13.9975C22 12.8362 21.5954 11.8167 20.8464 11.0878C20.1017 10.3631 19.0898 9.99661 18 9.99661Z" fill="currentColor"/>
</svg>
