<svg xmlns="http://www.w3.org/2000/svg" width="28" height="28" fill="none" viewBox="0 0 28 28"><path fill="currentColor" fill-rule="evenodd" d="M7.4658 3h13.0685c.6698 0 1.2227 0 1.6753.0309.4692.032.9033.1005 1.3212.2736a3.9996 3.9996 0 0 1 2.1647 2.1648c.1731.4178.2416.8519.2737 1.3212.0394.5773.0308 1.1577.0308 1.736 0 .21.0001.4146-.0118.5887-.013.1904-.0435.4161-.1404.6502-.203.49-.5924.8794-1.0824 1.0824-.2432.1007-.5042.1361-.7654.1465v8.247c0 .805 0 1.4693-.0442 2.0105-.0459.5621-.1445 1.0788-.3917 1.5642a4.0005 4.0005 0 0 1-1.7481 1.748c-.4853.2473-1.0021.3459-1.5641.3918C19.7107 25 19.0463 25 18.2414 25H9.7587c-.805 0-1.4693 0-2.0105-.0442-.5621-.0459-1.0788-.1445-1.5641-.3918a4.0001 4.0001 0 0 1-1.7481-1.748c-.2473-.4854-.3459-1.0021-.3918-1.5642C4 20.7106 4 20.0463 4 19.2413v-8.247c-.2612-.0104-.5222-.0458-.7653-.1465a2.0002 2.0002 0 0 1-1.0824-1.0824c-.097-.234-.1275-.4598-.1404-.6502C1.9999 8.9412 2 8.7365 2 8.5265c0-.5772-.0085-1.1587.0309-1.736.032-.4693.1005-.9034.2736-1.3212a4 4 0 0 1 2.1648-2.1648c.4178-.173.8519-.2416 1.3212-.2736.4526-.031 1.0055-.031 1.6753-.0309ZM4.4829 9c-.247 0-.387-.0012-.4748-.0081-.007-.0898-.008-.2338-.008-.4919 0-.7126.0005-1.197.0262-1.5734.025-.3674.0707-.5585.126-.692a2 2 0 0 1 1.0824-1.0824c.1334-.0553.3245-.1009.692-.126C6.303 5.0005 6.7873 5 7.5 5h13c.7126 0 1.197.0005 1.5734.0262.3675.0251.5585.0707.692.126.49.203.8794.5924 1.0824 1.0824.0553.1335.1009.3245.126.692C23.9995 7.303 24 7.7874 24 8.5c0 .2581-.0011.402-.0081.4919-.0878.0069-.2277.008-.4748.0081H4.4829ZM6 11v8.2c0 .8566.0008 1.4389.0376 1.889.0358.4384.1007.6626.1804.819.1918.3763.4977.6823.874.874.1564.0797.3806.1446.819.1804C8.3613 22.9992 8.9435 23 9.8 23h8.4c.8566 0 1.4389-.0008 1.889-.0376.4384-.0358.6626-.1007.819-.1804a1.9996 1.9996 0 0 0 .874-.874c.0797-.1564.1447-.3806.1805-.819.0367-.4501.0375-1.0324.0375-1.889V11H6Z" clip-rule="evenodd"/><path fill="currentColor" fill-rule="evenodd" d="M18.2071 13.2929c.3906.3905.3906 1.0237 0 1.4142l-5 5c-.3905.3905-1.0237.3905-1.4142 0l-2-2c-.3905-.3905-.3905-1.0237 0-1.4142.3905-.3905 1.0237-.3905 1.4142 0L12.5 17.5858l4.2929-4.2929c.3905-.3905 1.0237-.3905 1.4142 0Z" clip-rule="evenodd"/></svg>
