<?xml version="1.0" encoding="UTF-8"?>
<svg width="28px" height="28px" viewBox="0 0 28 28" version="1.1" xmlns="http://www.w3.org/2000/svg" xmlns:xlink="http://www.w3.org/1999/xlink">
    <!-- Generator: Sketch 63.1 (92452) - https://sketch.com -->
    <title>archive_outline_28</title>
    <desc>Created with Sketch.</desc>
    <g id="Page-1" stroke="none" stroke-width="1" fill="none" fill-rule="evenodd">
        <g id="archive_outline_28">
            <polygon points="0 0 28 0 28 28 0 28"></polygon>
            <path d="M21.5,4 C23.4329966,4 25,5.56700338 25,7.5 L25,9.5 C25,10.3284271 24.3284271,11 23.5,11 L23,11 L23,20 C23,22.209139 21.209139,24 19,24 L9,24 C6.790861,24 5,22.209139 5,20 L5,11 L4.5,11 C3.67157288,11 3,10.3284271 3,9.5 L3,7.5 C3,5.56700338 4.56700338,4 6.5,4 L21.5,4 Z M21,11 L7,11 L7,20 C7,21.1045695 7.8954305,22 9,22 L19,22 C20.1045695,22 21,21.1045695 21,20 L21,11 Z M17,13.5 C17.5522847,13.5 18,13.9477153 18,14.5 C18,15.0522847 17.5522847,15.5 17,15.5 L17,15.5 L11,15.5 C10.4477153,15.5 10,15.0522847 10,14.5 C10,13.9477153 10.4477153,13.5 11,13.5 L11,13.5 Z M21.5,6 L6.5,6 C5.67157288,6 5,6.67157288 5,7.5 L5,9 L23,9 L23,7.5 C23,6.67157288 22.3284271,6 21.5,6 Z" id="↳-Icon-Color" fill="currentColor" fill-rule="nonzero"></path>
        </g>
    </g>
</svg>
