<svg fill="none" height="28" viewBox="0 0 28 28" width="28" xmlns="http://www.w3.org/2000/svg" xmlns:xlink="http://www.w3.org/1999/xlink"><linearGradient id="a" gradientUnits="userSpaceOnUse" x1="-14" x2="14" y1="14" y2="42"><stop offset="0" stop-color="#b1b6bd"/><stop offset="1" stop-color="#99a2ad"/></linearGradient><path d="m0 14c0-7.73199 6.26801-14 14-14 7.732 0 14 6.26801 14 14 0 7.732-6.268 14-14 14-7.73199 0-14-6.268-14-14z" fill="url(#a)"/><g fill="#fff"><path d="m6.56815 8.48236c-.06815.25434-.06815.56433-.06815 1.18431 0 .30999 0 .46503.03407.59213.09247.3451.36202.6147.70711.7071.12717.0341.28216.0341.59215.0341h12.33337c.31 0 .465 0 .5921-.0341.3451-.0924.6147-.362.7071-.7071.0341-.1271.0341-.28214.0341-.59213 0-.61998 0-.92997-.0681-1.18431-.185-.69018-.7241-1.22928-1.4143-1.41421-.2543-.06815-.5643-.06815-1.1843-.06815h-9.66663c-.61998 0-.92997 0-1.18431.06815-.69018.18493-1.22928.72403-1.41421 1.41421z"/><path clip-rule="evenodd" d="m8 14.1c0-.5601 0-.8401.10899-1.054.09588-.1882.24886-.3411.43702-.437.21391-.109.49394-.109 1.05399-.109h8.8c.5601 0 .8401 0 1.054.109.1882.0959.3411.2488.437.437.109.2139.109.4939.109 1.054v2.1c0 1.6802 0 2.5202-.327 3.162-.2876.5645-.7465 1.0234-1.311 1.311-.6418.327-1.4818.327-3.162.327h-2.4c-1.6802 0-2.5202 0-3.16197-.327-.56449-.2876-1.02343-.7465-1.31105-1.311-.32698-.6418-.32698-1.4818-.32698-3.162zm3.5.65c0-.4142.3358-.75.75-.75h3.5c.4142 0 .75.3358.75.75s-.3358.75-.75.75h-3.5c-.4142 0-.75-.3358-.75-.75z" fill-rule="evenodd"/></g></svg>
