<svg xmlns="http://www.w3.org/2000/svg" width="28" height="28" fill="currentColor" viewBox="0 0 28 28"><path fill-rule="evenodd" d="M9.692 4c-2.448 0-3.527.216-4.623.801A5.466 5.466 0 0 0 2.801 7.07C2.216 8.165 2 9.244 2 11.692v4.616c0 2.448.216 3.527.801 4.622A5.465 5.465 0 0 0 5.07 23.2c1.096.585 2.175.801 4.623.801h8.616c2.448 0 3.527-.216 4.622-.801a5.465 5.465 0 0 0 2.269-2.27c.585-1.095.801-2.174.801-4.622v-4.616c0-2.448-.216-3.527-.801-4.623a5.465 5.465 0 0 0-2.269-2.268C21.835 4.216 20.756 4 18.308 4H9.692ZM15 12.414V18a1 1 0 0 1-2 0v-5.586l-1.293 1.293a1 1 0 1 1-1.414-1.414l3-3A.995.995 0 0 1 14 9c.276 0 .526.112.707.293l3 3a1 1 0 1 1-1.414 1.414L15 12.414Z" clip-rule="evenodd"/></svg>
