<svg xmlns="http://www.w3.org/2000/svg" width="28" height="28" fill="currentColor" viewBox="0 0 28 28"><path fill-rule="evenodd" d="M6.07 3.801C7.164 3.216 8.243 3 10.691 3H13a1 1 0 1 1 0 2h-2.308c-2.335 0-3.019.212-3.68.565a3.466 3.466 0 0 0-1.447 1.448C5.212 7.673 5 8.357 5 10.692v6.616c0 2.335.212 3.019.565 3.68a3.466 3.466 0 0 0 1.448 1.447c.66.353 1.344.565 3.679.565h6.616c2.335 0 3.019-.212 3.68-.565a3.467 3.467 0 0 0 1.447-1.448c.353-.66.565-1.344.565-3.679V15a1 1 0 1 1 2 0v2.308c0 2.448-.216 3.527-.801 4.622a5.465 5.465 0 0 1-2.269 2.27c-1.095.585-2.174.801-4.622.801h-6.616c-2.448 0-3.527-.216-4.623-.801a5.465 5.465 0 0 1-2.268-2.269C3.216 20.835 3 19.756 3 17.308v-6.616c0-2.448.216-3.527.801-4.623A5.466 5.466 0 0 1 6.07 3.801ZM18 5a1 1 0 1 1 0-2h6a1 1 0 0 1 1 1v6a1 1 0 1 1-2 0V6.414l-6.293 6.293a1 1 0 0 1-1.414-1.414L21.586 5H18Z" clip-rule="evenodd"/></svg>
