<?xml version="1.0" encoding="UTF-8"?>
<svg width="28px" height="28px" viewBox="0 0 28 28" version="1.1" xmlns="http://www.w3.org/2000/svg" xmlns:xlink="http://www.w3.org/1999/xlink">
    <!-- Generator: Sketch 63.1 (92452) - https://sketch.com -->
    <title>arrow_right_square_outline_28</title>
    <desc>Created with Sketch.</desc>
    <g id="Page-1" stroke="none" stroke-width="1" fill="none" fill-rule="evenodd">
        <g id="arrow_right_square_outline_28">
            <rect x="0" y="0" width="28" height="28"></rect>
            <path d="M17.924015,3 C19.8821943,3.02068193 20.8787201,3.23170254 21.9120025,3.78430803 C22.9010858,4.31327555 23.6833033,5.09549305 24.2122708,6.08457632 C24.7648763,7.11785875 24.9758969,8.11438451 24.9965788,10.0725638 L24.9965788,17.924015 C24.9758969,19.8821943 24.7648763,20.8787201 24.2122708,21.9120025 C23.6833033,22.9010858 22.9010858,23.6833033 21.9120025,24.2122708 C20.8787201,24.7648763 19.8821943,24.9758969 17.924015,24.9965788 L10.0725638,24.9965788 C8.11438451,24.9758969 7.11785875,24.7648763 6.08457632,24.2122708 C5.09549305,23.6833033 4.31327555,22.9010858 3.78430803,21.9120025 C3.23170254,20.8787201 3.02068193,19.8821943 3,17.924015 L3,10.0725638 C3.02068193,8.11438451 3.23170254,7.11785875 3.78430803,6.08457632 C4.31327555,5.09549305 5.09549305,4.31327555 6.08457632,3.78430803 C7.11785875,3.23170254 8.11438451,3.02068193 10.0725638,3 L17.924015,3 Z M17.5885764,4.99828935 L10.4080024,4.99828935 L9.85062034,5.00316804 C8.37133493,5.03121779 7.70896741,5.18362809 7.02777399,5.54793432 C6.38722763,5.89050226 5.89050226,6.38722763 5.54793432,7.02777399 C5.18362809,7.70896741 5.03121779,8.37133493 5.00316804,9.85062034 L4.99828935,10.4080024 L4.99828935,17.5885764 L5.00316804,18.1459585 C5.03121779,19.6252439 5.18362809,20.2876114 5.54793432,20.9688048 C5.89050226,21.6093512 6.38722763,22.1060766 7.02777399,22.4486445 C7.70896741,22.8129507 8.37133493,22.965361 9.85062034,22.9934108 L10.4080024,22.9982894 L17.5885764,22.9982894 L18.1459585,22.9934108 C19.6252439,22.965361 20.2876114,22.8129507 20.9688048,22.4486445 C21.6093512,22.1060766 22.1060766,21.6093512 22.4486445,20.9688048 C22.8129507,20.2876114 22.965361,19.6252439 22.9934108,18.1459585 L22.9982894,17.5885764 L22.9982894,10.4080024 L22.9934108,9.85062034 C22.965361,8.37133493 22.8129507,7.70896741 22.4486445,7.02777399 C22.1060766,6.38722763 21.6093512,5.89050226 20.9688048,5.54793432 C20.2876114,5.18362809 19.6252439,5.03121779 18.1459585,5.00316804 L17.5885764,4.99828935 Z M14.3492086,9.7407434 C14.7685345,9.38132125 15.3998345,9.42988278 15.7592566,9.84920863 L15.7592566,9.84920863 L18.7592566,13.3492086 C18.7617385,13.3521042 18.7642012,13.3550104 18.7666447,13.357927 C18.8078999,13.4071088 18.8444405,13.460243 18.8756762,13.5167198 C19.0414211,13.8169705 19.0414211,14.1830295 18.8757366,14.4830373 C18.8444405,14.539757 18.8078999,14.5928912 18.7667267,14.6420106 L18.7592566,14.6507914 L15.7592566,18.1507914 C15.3998345,18.5701172 14.7685345,18.6186788 14.3492086,18.2592566 C13.9298828,17.8998345 13.8813212,17.2685345 14.2407434,16.8492086 L14.2407434,16.8492086 L15.825,15 L10,15 C9.44771525,15 9,14.5522847 9,14 C9,13.4477153 9.44771525,13 10,13 L15.825,13 L14.2407434,11.1507914 C13.9089691,10.7637214 13.9248259,10.1960343 14.2590397,9.82829297 Z" id="↳-Icon-Color" fill="currentColor" fill-rule="nonzero"></path>
        </g>
    </g>
</svg>
