<?xml version="1.0" encoding="UTF-8"?>
<svg width="28px" height="28px" viewBox="0 0 28 28" version="1.1" xmlns="http://www.w3.org/2000/svg" xmlns:xlink="http://www.w3.org/1999/xlink">
    <!-- Generator: Sketch 63.1 (92452) - https://sketch.com -->
    <title>arrow_uturn_right_outline_28</title>
    <desc>Created with Sketch.</desc>
    <g id="Page-1" stroke="none" stroke-width="1" fill="none" fill-rule="evenodd">
        <g id="arrow_uturn_right_outline_28" fill-rule="nonzero">
            <rect x="0" y="0" width="28" height="28"></rect>
            <path d="M15.2928932,3.29289322 C15.6834175,2.90236893 16.3165825,2.90236893 16.7071068,3.29289322 L16.7071068,3.29289322 L21.7071068,8.29289322 C22.0976311,8.68341751 22.0976311,9.31658249 21.7071068,9.70710678 L21.7071068,9.70710678 L16.7071068,14.7071068 C16.3165825,15.0976311 15.6834175,15.0976311 15.2928932,14.7071068 C14.9023689,14.3165825 14.9023689,13.6834175 15.2928932,13.2928932 L15.2928932,13.2928932 L18.586,9.999 L12.5,10 C9.46243388,10 7,12.4624339 7,15.5 C7,18.5375661 9.46243388,21 12.5,21 L17,21 C17.5522847,21 18,21.4477153 18,22 C18,22.5522847 17.5522847,23 17,23 L12.5,23 C8.35786438,23 5,19.6421356 5,15.5 C5,11.3578644 8.35786438,8 12.5,8 L18.584,7.999 L15.2928932,4.70710678 C14.9324093,4.34662282 14.9046797,3.77939176 15.2097046,3.38710056 Z" id="↳-Icon-Color" fill="currentColor"></path>
        </g>
    </g>
</svg>
