<?xml version="1.0" encoding="UTF-8"?>
<svg width="28px" height="28px" viewBox="0 0 28 28" version="1.1" xmlns="http://www.w3.org/2000/svg" xmlns:xlink="http://www.w3.org/1999/xlink">
    <!-- Generator: Sketch 63.1 (92452) - https://sketch.com -->
    <title>arrow_right_outline_28</title>
    <desc>Created with Sketch.</desc>
    <g id="Page-1" stroke="none" stroke-width="1" fill="none" fill-rule="evenodd">
        <g id="arrow_right_outline_28">
            <polygon points="28 0 0 0 0 28 28 28"></polygon>
            <path d="M22.7071068,13.2928932 L15.707107,6.292893 C15.3165827,5.90236871 14.6834173,5.90236871 14.292893,6.292893 C13.932409,6.65337696 13.9046795,7.22060839 14.2097044,7.61289965 L14.292893,7.707107 L19.586,12.9999998 L6,12.9999998 C5.48716416,12.9999998 5.06449284,13.3860402 5.00672773,13.8833789 L5,13.9999998 C5,14.5128358 5.38604019,14.9355072 5.88337887,14.9932723 L6,14.9999998 L19.586,14.9999998 L14.292893,20.292893 C13.932409,20.653377 13.9046795,21.2206084 14.2097044,21.6128997 L14.292893,21.707107 C14.653377,22.067591 15.2206084,22.0953205 15.6128997,21.7902956 L15.707107,21.707107 L22.7071068,14.7071068 L22.8036654,14.5953066 L22.8036654,14.5953066 L22.8753288,14.4840621 L22.8753288,14.4840621 L22.9287745,14.371336 L22.9287745,14.371336 L22.9641549,14.265993 L22.9641549,14.265993 L22.9889822,14.1484669 L22.9889822,14.1484669 L22.9960336,14.0892501 L22.9998198,13.980824 L22.9998198,13.980824 L22.9960336,13.9107499 L22.9960336,13.9107499 L22.9797599,13.7992742 L22.9797599,13.7992742 L22.9502619,13.6878575 L22.9502619,13.6878575 L22.9063266,13.5767785 L22.9063266,13.5767785 L22.8540045,13.4792912 L22.8540045,13.4792912 L22.787214,13.3832499 C22.7623312,13.3515341 22.7355731,13.3213595 22.7071068,13.2928932 L15.707107,6.292893 L22.7071068,13.2928932 Z" id="↳-Icon-Color" fill="currentColor" fill-rule="nonzero"></path>
        </g>
    </g>
</svg>
