<?xml version="1.0" encoding="UTF-8"?>
<svg width="28px" height="28px" viewBox="0 0 28 28" version="1.1" xmlns="http://www.w3.org/2000/svg" xmlns:xlink="http://www.w3.org/1999/xlink">
    <!-- Generator: Sketch 63.1 (92452) - https://sketch.com -->
    <title>article_outline_28</title>
    <desc>Created with Sketch.</desc>
    <g id="Page-1" stroke="none" stroke-width="1" fill="none" fill-rule="evenodd">
        <g id="article_outline_28">
            <rect x="0" y="0" width="28" height="28"></rect>
            <path d="M17.590287,3.00000006 C19.7732933,3.00000006 20.8230261,3.20271282 21.9137131,3.78601861 C22.9027964,4.31498614 23.6850139,5.09720363 24.2139814,6.08628691 C24.7972872,7.17697392 25.0000001,8.22670674 25.0000001,10.409713 L25.0000001,17.590287 C25.0000001,19.7732933 24.7972872,20.8230261 24.2139814,21.9137131 C23.6850139,22.9027964 22.9027964,23.6850139 21.9137131,24.2139814 C20.8230261,24.7972872 19.7732933,25.0000001 17.590287,25.0000001 L10.409713,25.0000001 C8.22670674,25.0000001 7.17697392,24.7972872 6.08628691,24.2139814 C5.09720363,23.6850139 4.31498614,22.9027964 3.78601861,21.9137131 C3.20271282,20.8230261 3.00000006,19.7732933 3.00000006,17.590287 L3.00000006,10.409713 C3.00000006,8.22670674 3.20271282,7.17697392 3.78601861,6.08628691 C4.31498614,5.09720363 5.09720363,4.31498614 6.08628691,3.78601861 C7.17697392,3.20271282 8.22670674,3.00000006 10.409713,3.00000006 L17.590287,3.00000006 Z M17.590287,4.99999994 L10.409713,4.99999994 C8.52863614,4.99999994 7.7908184,5.14247912 7.02948457,5.5496449 C6.38893822,5.89221284 5.89221284,6.38893822 5.5496449,7.02948457 C5.14247912,7.7908184 4.99999994,8.52863614 4.99999994,10.409713 L4.99999994,17.590287 C4.99999994,19.4713639 5.14247912,20.2091816 5.5496449,20.9705154 C5.89221284,21.6110618 6.38893822,22.1077872 7.02948457,22.4503551 C7.7908184,22.8575209 8.52863614,22.9999999 10.409713,22.9999999 L17.590287,22.9999999 C19.4713639,22.9999999 20.2091816,22.8575209 20.9705154,22.4503551 C21.6110618,22.1077872 22.1077872,21.6110618 22.4503551,20.9705154 C22.8575209,20.2091816 22.9999999,19.4713639 22.9999999,17.590287 L22.9999999,10.409713 C22.9999999,8.52863614 22.8575209,7.7908184 22.4503551,7.02948457 C22.1077872,6.38893822 21.6110618,5.89221284 20.9705154,5.5496449 C20.2091816,5.14247912 19.4713639,4.99999994 17.590287,4.99999994 Z M13.0000001,17.5000001 C13.5522847,17.5000001 14.0000001,17.9477153 14.0000001,18.5000001 C14.0000001,19.0522847 13.5522847,19.5000001 13.0000001,19.5000001 L13.0000001,19.5000001 L9.00000006,19.5000001 C8.44771528,19.5000001 8.00000006,19.0522847 8.00000006,18.5000001 C8.00000006,17.9477153 8.44771528,17.5000001 9.00000006,17.5000001 L9.00000006,17.5000001 Z M19.0000001,13.0000001 C19.5522847,13.0000001 20.0000001,13.4477153 20.0000001,14.0000001 C20.0000001,14.5522847 19.5522847,15.0000001 19.0000001,15.0000001 L19.0000001,15.0000001 L9.00000006,15.0000001 C8.44771528,15.0000001 8.00000006,14.5522847 8.00000006,14.0000001 C8.00000006,13.4477153 8.44771528,13.0000001 9.00000006,13.0000001 L9.00000006,13.0000001 Z M19.0000001,8.50000006 C19.5522847,8.50000006 20.0000001,8.94771528 20.0000001,9.50000006 C20.0000001,10.0522847 19.5522847,10.5000001 19.0000001,10.5000001 L19.0000001,10.5000001 L9.00000006,10.5000001 C8.44771528,10.5000001 8.00000006,10.0522847 8.00000006,9.50000006 C8.00000006,8.94771528 8.44771528,8.50000006 9.00000006,8.50000006 L9.00000006,8.50000006 Z" id="↳-Icon-Color" fill="currentColor" fill-rule="nonzero"></path>
        </g>
    </g>
</svg>
