<?xml version="1.0" encoding="UTF-8"?>
<svg width="28px" height="28px" viewBox="0 0 28 28" version="1.1" xmlns="http://www.w3.org/2000/svg" xmlns:xlink="http://www.w3.org/1999/xlink">
    <g stroke="none" stroke-width="1" fill="none" fill-rule="evenodd">
        <path d="M19.1541721,4 C20.5243618,4 21.2165845,4.13367437 21.9368673,4.51888585 C22.6000247,4.87354628 23.1264536,5.3999752 23.481114,6.06313255 C23.8663255,6.7834154 24,7.4756381 24,8.84582774 L24,19.1541721 C24,20.5243618 23.8663255,21.2165845 23.481114,21.9368673 C23.1264536,22.6000247 22.6000247,23.1264536 21.9368673,23.481114 C21.2165845,23.8663255 20.5243618,24 19.1541721,24 L8.84582774,24 C7.4756381,24 6.7834154,23.8663255 6.06313255,23.481114 C5.3999752,23.1264536 4.87354628,22.6000247 4.51888585,21.9368673 C4.13367437,21.2165845 4,20.5243618 4,19.1541721 L4,8.84582774 C4,7.4756381 4.13367437,6.7834154 4.51888585,6.06313255 C4.87354628,5.3999752 5.3999752,4.87354628 6.06313255,4.51888585 C6.7834154,4.13367437 7.4756381,4 8.84582774,4 L19.1541721,4 Z M19.1541721,5.99999988 L8.84582774,5.99999988 C7.7775675,5.99999988 7.39725988,6.07344067 7.00633022,6.28251214 C6.69170979,6.45077299 6.45077299,6.69170979 6.28251214,7.00633022 C6.07344067,7.39725988 5.99999988,7.7775675 5.99999988,8.84582774 L5.99999988,19.1541721 C5.99999988,20.2224324 6.07344067,20.60274 6.28251214,20.9936697 C6.45077299,21.3082901 6.69170979,21.5492269 7.00633022,21.7174877 C7.39725988,21.9265592 7.7775675,21.9999999 8.84582774,21.9999999 L19.1541721,21.9999999 C20.2224324,21.9999999 20.60274,21.9265592 20.9936697,21.7174877 C21.3082901,21.5492269 21.5492269,21.3082901 21.7174877,20.9936697 C21.9265592,20.60274 21.9999999,20.2224324 21.9999999,19.1541721 L21.9999999,8.84582774 C21.9999999,7.7775675 21.9265592,7.39725988 21.7174877,7.00633022 C21.5492269,6.69170979 21.3082901,6.45077299 20.9936697,6.28251214 C20.60274,6.07344067 20.2224324,5.99999988 19.1541721,5.99999988 Z M15,17 C15.5522847,17 16,17.4477152 16,18 C16,18.5522847 15.5522847,19 15,19 L15,19 L9,19 C8.44771522,19 8,18.5522847 8,18 C8,17.4477152 8.44771522,17 9,17 L9,17 Z M9,13 L19,13 C19.5522847,13 20,13.4477152 20,14 C20,14.5128358 19.6139597,14.9355071 19.1166211,14.9932723 L19,15 L9,15 C8.44771522,15 8,14.5522847 8,14 C8,13.4871641 8.38604017,13.0644928 8.88337887,13.0067277 L9,13 L19,13 Z M19,9 C19.5522847,9 20,9.44771522 20,10 C20,10.5128358 19.6139597,10.9355071 19.1166211,10.9932723 L19,11 L9,11 C8.44771522,11 8,10.5522847 8,10 C8,9.48716414 8.38604017,9.06449284 8.88337887,9.00672773 L9,9 L19,9 Z" fill="currentColor" fill-rule="nonzero"></path>
    </g>
</svg>
