<svg xmlns="http://www.w3.org/2000/svg" width="28" height="28" fill="none" viewBox="0 0 28 28"><path fill="currentColor" d="M2 7c0-.5523.4477-1 1-1h8c.5523 0 1 .4477 1 1s-.4477 1-1 1H8v7c0 .5523-.4477 1-1 1s-1-.4477-1-1V8H3c-.5523 0-1-.4477-1-1Zm14 1c-.5523 0-1 .4477-1 1s.4477 1 1 1h8c.5523 0 1-.4477 1-1s-.4477-1-1-1h-8Zm-5 7c0-.5523.4477-1 1-1h12c.5523 0 1 .4477 1 1s-.4477 1-1 1H12c-.5523 0-1-.4477-1-1Zm-5 6c0-.5523.4477-1 1-1h17c.5523 0 1 .4477 1 1s-.4477 1-1 1H7c-.5523 0-1-.4477-1-1Z"/></svg>
