<?xml version="1.0" encoding="UTF-8"?>
<svg width="28px" height="28px" viewBox="0 0 28 28" version="1.1" xmlns="http://www.w3.org/2000/svg" xmlns:xlink="http://www.w3.org/1999/xlink">
    <!-- Generator: Sketch 63.1 (92452) - https://sketch.com -->
    <title>attach_outline_28</title>
    <desc>Created with Sketch.</desc>
    <g id="Page-1" stroke="none" stroke-width="1" fill="none" fill-rule="evenodd">
        <g id="attach_outline_28">
            <rect x="0" y="0" width="28" height="28"></rect>
            <path d="M14.1885837,10.8968935 C14.579108,10.5063692 15.2122729,10.5063692 15.6027972,10.8968935 C15.9933215,11.2874178 15.9933215,11.9205828 15.6027972,12.3111071 L11.4308672,16.4830371 C10.8638878,17.0500165 10.8309757,18.0044659 11.4308672,18.6043574 C12.0307587,19.2042489 12.9852081,19.1713369 13.5521876,18.6043574 L21.3303622,10.8261828 C22.9319883,9.2245567 22.8443596,6.68332604 21.3303622,5.16932857 C19.8163647,3.6553311 17.275134,3.56770245 15.6735079,5.16932857 L7.89533332,12.9475032 C5.34460318,15.4982333 5.39217211,19.6367301 7.89533332,22.1398913 C10.3984945,24.6430525 14.5369913,24.6906215 17.0877215,22.1398913 L21.2596515,17.9679613 C21.6501758,17.577437 22.2833408,17.577437 22.6738651,17.9679613 C23.0643893,18.3584856 23.0643893,18.9916506 22.6738651,19.3821749 L18.501935,23.5541049 C15.1627871,26.8932528 9.75814537,26.8311305 6.48111976,23.5541049 C3.20409415,20.2770793 3.14197183,14.8724375 6.48111976,11.5332896 L14.2592944,3.75511501 C16.6646067,1.3498027 20.4705012,1.48104044 22.7445757,3.75511501 C25.0186503,6.02918958 25.149888,9.83508407 22.7445757,12.2403964 L14.9664011,20.018571 C13.6393446,21.3456275 11.4202314,21.4221487 10.0166537,20.018571 C8.61307596,18.6149933 8.68959711,16.3958801 10.0166537,15.0688235 L14.1885837,10.8968935 Z" id="↳-Icon-Color" fill="currentColor" fill-rule="nonzero"></path>
        </g>
    </g>
</svg>
