<svg fill="none" height="28" viewBox="0 0 28 28" width="28" xmlns="http://www.w3.org/2000/svg" xmlns:xlink="http://www.w3.org/1999/xlink"><linearGradient id="a" gradientUnits="userSpaceOnUse" x1="-14" x2="14" y1="14" y2="42"><stop offset="0" stop-color="#70b2ff"/><stop offset="1" stop-color="#5c9ce6"/></linearGradient><path d="m0 14c0-7.73199 6.26801-14 14-14 7.732 0 14 6.26801 14 14 0 7.732-6.268 14-14 14-7.73199 0-14-6.268-14-14z" fill="url(#a)"/><path clip-rule="evenodd" d="m14.5677 7.09257c1.4715-1.45676 3.8576-1.45676 5.3291 0 1.4709 1.45625 1.4709 3.81693 0 5.27323l-6.0179 5.9527c-.8843.8753-2.3249.8754-3.2092 0-.88379-.875-.88379-2.2949 0-3.1699l2.9969-2.9599c.2973-.2936.7791-.2934 1.0761.0006.2969.294.2967.7704-.0007 1.064l-2.9956 2.9586c-.2904.2875-.2904.7557 0 1.0433.2899.287.7659.287 1.0558 0l6.0179-5.9528c.8773-.8688.8775-2.27779 0-3.14649-.877-.86828-2.2986-.86828-3.1757 0l-6.02415 5.96399c-1.46468 1.45-1.46468 3.8382 0 5.2882 1.46365 1.4491 3.83605 1.4496 5.30035.0015l2.8481-2.8534c.2952-.2958.7769-.2989 1.076-.007.2991.2918.3023.7682.0071 1.0639l-2.853 2.8584c-2.0586 2.038-5.3966 2.038-7.45523 0-2.05809-2.0375-2.05809-5.3775 0-7.415z" fill="#fff" fill-rule="evenodd"/></svg>
