<svg fill="none" height="28" viewBox="0 0 28 28" width="28" xmlns="http://www.w3.org/2000/svg"><g fill="currentColor"><g clip-rule="evenodd" fill-rule="evenodd"><path d="m2 11h8v9c0 2.2091-1.79086 4-4 4s-4-1.7909-4-4zm2 2v7c0 1.1046.89543 2 2 2s2-.8954 2-2v-7z"/><path d="m8.54735 4.1631c.28243.18472.45265.49943.45265.8369v7c0 .5523-.44772 1-1 1h-4c-.55228 0-1-.4477-1-1v-5.25c0-.39729.23519-.75691.59918-.91615l4-1.75c.30918-.13527.66573-.10547.94817.07925zm-3.54735 3.24092v3.59598h2v-4.47098z"/><path d="m19 6c-2.7614 0-5 2.23858-5 5 0 2.7614 2.2386 5 5 5s5-2.2386 5-5c0-2.76142-2.2386-5-5-5zm-7 5c0-3.86599 3.134-7 7-7s7 3.13401 7 7c0 3.866-3.134 7-7 7s-7-3.134-7-7z"/></g><path d="m18 17h2v5h-2z"/><path d="m15 24c-.5523 0-1-.4477-1-1s.4477-1 1-1h8c.5523 0 1 .4477 1 1s-.4477 1-1 1z"/></g></svg>
