<svg width="28" height="28" viewBox="0 0 28 28" fill="none" xmlns="http://www.w3.org/2000/svg">
<path fill-rule="evenodd" clip-rule="evenodd" d="M2 11H10V20C10 22.2091 8.20914 24 6 24C3.79086 24 2 22.2091 2 20V11ZM4 13V20C4 21.1046 4.89543 22 6 22C7.10457 22 8 21.1046 8 20V13H4Z" fill="currentColor"/>
<path fill-rule="evenodd" clip-rule="evenodd" d="M8.54735 4.1631C8.82978 4.34782 9 4.66253 9 5V12C9 12.5523 8.55228 13 8 13H4C3.44772 13 3 12.5523 3 12V6.75C3 6.35271 3.23519 5.99309 3.59918 5.83385L7.59918 4.08385C7.90836 3.94858 8.26491 3.97838 8.54735 4.1631ZM5 7.40402V11H7V6.52902L5 7.40402Z" fill="currentColor"/>
<path fill-rule="evenodd" clip-rule="evenodd" d="M19 6C16.2386 6 14 8.23858 14 11C14 13.7614 16.2386 16 19 16C21.7614 16 24 13.7614 24 11C24 8.23858 21.7614 6 19 6ZM12 11C12 7.13401 15.134 4 19 4C22.866 4 26 7.13401 26 11C26 14.866 22.866 18 19 18C15.134 18 12 14.866 12 11Z" fill="currentColor"/>
<path d="M18 17H20V22H18V17Z" fill="currentColor"/>
<path d="M15 24C14.4477 24 14 23.5523 14 23C14 22.4477 14.4477 22 15 22H23C23.5523 22 24 22.4477 24 23C24 23.5523 23.5523 24 23 24L15 24Z" fill="currentColor"/>
</svg>
