<svg fill="none" height="28" viewBox="0 0 28 28" width="28" xmlns="http://www.w3.org/2000/svg"><path clip-rule="evenodd" d="m8.8 3.98914h10.4c.8731 0 1.4076.00155 1.8075.03423.1863.01522.299.03434.3675.05046.0326.00767.0526.01409.0634.01796.0104.00371.0148.00593.0156.00634.1882.09587.3411.24885.437.43702.0004.0008.0026.00516.0063.01556.0039.01083.0103.03086.018.06342.0161.06846.0352.18117.0505.36748.0326.39992.0342.93445.0342 1.80753v4.16356c-.1673.0553-.3503.0465-.5126-.0265-1.2286-.5529-2.6351-.5529-3.8637 0-.1847.0831-.3961.0831-.5807 0-1.2286-.5529-2.6352-.5529-3.8637 0-.1847.0831-.3961.0831-.5808 0-1.2286-.5529-2.63511-.5529-3.86367 0-.18467.0831-.3961.0831-.58077 0-.68337-.3076-1.42181-.444-2.15406-.4094v-3.72766c0-.87308.00156-1.40761.03423-1.80753.01522-.18631.03434-.29902.05046-.36748.00767-.03256.0141-.05259.01796-.06342.00371-.0104.00593-.01476.00634-.01556.09588-.18817.24886-.34115.43702-.43702.0008-.00041.00517-.00263.01557-.00634.01083-.00387.03086-.01029.06342-.01796.06845-.01612.18117-.03524.36747-.05046.39992-.03268.93445-.03423 1.80753-.03423zm-4.8 2.8c0-1.68016 0-2.52024.32698-3.16198.28762-.56448.74656-1.02342 1.31105-1.31104.64173-.32698 1.48181-.32698 3.16197-.32698h10.4c1.6802 0 2.5202 0 3.162.32698.5645.28762 1.0234.74656 1.311 1.31104.327.64174.327 1.48182.327 3.16198v4.81686c0 .3919-.2299.7474-.5873.9083l-.5238.2357c-.7066.318-1.5156.318-2.2222 0s-1.5156-.318-2.2223 0c-.7066.318-1.5156.318-2.2222 0s-1.5156-.318-2.2222 0-1.5156.318-2.2222 0-1.5156-.318-2.22224 0c-.70662.318-1.51561.318-2.22223 0-.70661-.318-1.5156-.318-2.22222 0l-.08414.0379c-.48185.2168-1.02697-.1357-1.02697-.6641zm17.0075 17.17666c-.3999.0326-.9344.0342-1.8075.0342h-10.4c-.87308 0-1.40761-.0016-1.80753-.0342-.1863-.0153-.29902-.0344-.36747-.0505-.03256-.0077-.05259-.0141-.06342-.018-.0104-.0037-.01477-.0059-.01557-.0063-.18816-.0959-.34114-.2488-.43702-.437-.00041-.0008-.00263-.0052-.00634-.0156-.00386-.0108-.01029-.0308-.01796-.0634-.01612-.0685-.03524-.1812-.05046-.3675-.03268-.3999-.03423-.9344-.03423-1.8075v-4.6527c.16731-.0553.35029-.0465.5126.0265 1.22857.5529 2.63512.5529 3.8637 0 .1847-.0831.3961-.0831.5807 0 1.2286.5529 2.6352.5529 3.8637 0 .1847-.0831.3961-.0831.5808 0 1.2286.5529 2.6351.5529 3.8637 0 .1846-.0831.3961-.0831.5807 0 .6834.3076 1.4219.444 2.1541.4094v4.2168c0 .8731-.0016 1.4076-.0342 1.8075-.0153.1863-.0344.299-.0505.3675-.0077.0326-.0141.0526-.018.0634-.0037.0104-.0059.0148-.0063.0156-.0959.1882-.2488.3411-.437.437-.0008.0004-.0052.0026-.0156.0063-.0108.0039-.0308.0103-.0634.018-.0685.0161-.1812.0352-.3675.0505zm2.9925-2.7658c0 1.6802 0 2.5202-.327 3.162-.2876.5645-.7465 1.0234-1.311 1.311-.6418.327-1.4818.327-3.162.327h-10.4c-1.68016 0-2.52024 0-3.16197-.327-.56449-.2876-1.02343-.7465-1.31105-1.311-.32698-.6418-.32698-1.4818-.32698-3.162v-5.306c0-.3919.22987-.7474.58729-.9083l.52382-.2357c.70662-.318 1.51561-.318 2.22222 0 .70662.318 1.51561.318 2.22223 0 .70664-.318 1.51564-.318 2.22224 0s1.5156.318 2.2222 0 1.5156-.318 2.2222 0 1.5156.318 2.2222 0c.7067-.318 1.5157-.318 2.2223 0s1.5156.318 2.2222 0l.0841-.0379c.4819-.2168 1.027.1357 1.027.6641z" fill="currentColor" fill-rule="evenodd"/></svg>
