<svg fill="none" height="28" viewBox="0 0 28 28" width="28" xmlns="http://www.w3.org/2000/svg"><path clip-rule="evenodd" d="m10.1737 5.0084c-.53099.00813-.98139.02433-1.37626.0566-.77192.06306-1.24309.18249-1.6134.37117-.75265.38349-1.36457.99542-1.74807 1.74806-.18868.37032-.3081.84149-.37117 1.61341-.06402.78359-.0648 1.78596-.0648 3.20256v4c0 1.4166.00078 2.419.0648 3.2026.06307.7719.18249 1.243.37117 1.6134.3835.7526.99542 1.3645 1.74807 1.748.37031.1887.84148.3081 1.6134.3712.7836.064 1.78596.0648 3.20256.0648h4c1.4166 0 2.419-.0008 3.2026-.0648.7719-.0631 1.2431-.1825 1.6134-.3712.7526-.3835 1.3645-.9954 1.748-1.748.1887-.3704.3081-.8415.3712-1.6134.064-.7836.0648-1.786.0648-3.2026v-4c0-1.4166-.0008-2.41897-.0648-3.20256-.0631-.77192-.1825-1.24309-.3712-1.61341-.3835-.75264-.9954-1.36457-1.748-1.74806-.3703-.18868-.8415-.30811-1.6134-.37117-.3949-.03227-.8453-.04847-1.3763-.0566-.4142 1.1608-1.5232 1.9916-2.8263 1.9916h-2c-1.3031 0-2.4121-.8308-2.8263-1.9916zm7.6585-2.00015c.5734.00862 1.0813.02646 1.5332.06339.8956.07317 1.6593.22623 2.3585.58252 1.129.57524 2.0469 1.49312 2.6221 2.62209.3563.69925.5094 1.46292.5826 2.35852.0714.87457.0714 1.95853.0714 3.32153v.0001.0438 4 .0438.0001c0 1.363 0 2.447-.0714 3.3215-.0732.8956-.2263 1.6593-.5826 2.3585-.5752 1.129-1.4931 2.0469-2.6221 2.6221-.6992.3563-1.4629.5094-2.3585.5826-.8745.0714-1.9585.0714-3.3215.0714h-.0001-.0438-4-.0438-.0001c-1.363 0-2.44696 0-3.32152-.0714-.8956-.0732-1.65927-.2263-2.35852-.5826-1.12897-.5752-2.04686-1.4931-2.6221-2.6221-.35628-.6992-.50934-1.4629-.58252-2.3585-.07145-.8746-.07145-1.9586-.07144-3.3216v-.0438-4-.0438c-.00001-1.363-.00001-2.44704.07144-3.32163.07318-.8956.22624-1.65927.58252-2.35852.57524-1.12897 1.49313-2.04685 2.6221-2.62209.69925-.35629 1.46292-.50935 2.35852-.58252.45195-.03693.95982-.05477 1.53322-.06339.4095-1.1695 1.5229-2.00825 2.8322-2.00825h2c1.3093 0 2.4227.83875 2.8322 2.00825zm-5.8322.99175c0-.55228.4477-1 1-1h2c.5523 0 1 .44772 1 1s-.4477 1-1 1h-2c-.5523 0-1-.44772-1-1zm-2 10.5c0-.5523-.44772-1-1-1s-1 .4477-1 1 .44772 1 1 1 1-.4477 1-1zm-1-5.5c.55228 0 1 .44771 1 1 0 .5523-.44772 1-1 1s-1-.4477-1-1c0-.55229.44772-1 1-1zm1 10c0-.5523-.44772-1-1-1s-1 .4477-1 1 .44772 1 1 1 1-.4477 1-1zm3-5.5c-.5523 0-1 .4477-1 1s.4477 1 1 1h6c.5523 0 1-.4477 1-1s-.4477-1-1-1zm-1-3.5c0-.55228.4477-1 1-1h6c.5523 0 1 .44772 1 1 0 .5523-.4477 1-1 1h-6c-.5523 0-1-.4477-1-1zm1 8c-.5523 0-1 .4477-1 1s.4477 1 1 1h4c.5523 0 1-.4477 1-1s-.4477-1-1-1z" fill="currentColor" fill-rule="evenodd"/></svg>
