<svg height="28" viewBox="0 0 28 28" width="28" xmlns="http://www.w3.org/2000/svg"><g fill="none" fill-rule="evenodd" transform=""><path d="m0 0h28v28h-28z"/><path d="m20.3287318 21.7429453-14.07167713-14.07167706c-1.41068938 1.72387057-2.25705467 3.92746156-2.25705467 6.32873176 0 5.5228475 4.4771525 10 10 10 2.4012702 0 4.6048612-.8463653 6.3287318-2.2570547zm1.4142135-1.4142135c1.4106894-1.7238706 2.2570547-3.9274616 2.2570547-6.3287318 0-5.5228475-4.4771525-10-10-10-2.4012702 0-4.60486119.84636529-6.32873176 2.25705467zm-7.7429453 5.6712682c-6.627417 0-12-5.372583-12-12s5.372583-12 12-12 12 5.372583 12 12-5.372583 12-12 12z" fill="currentColor" fill-rule="nonzero"/></g></svg>
