<svg xmlns="http://www.w3.org/2000/svg" width="28" height="28" fill="none" viewBox="0 0 28 28"><path fill="url(#a)" d="M0 14C0 6.268 6.268 0 14 0s14 6.268 14 14-6.268 14-14 14S0 21.732 0 14Z"/><path fill="#fff" fill-rule="evenodd" d="M14 22c4.4183 0 8-3.5817 8-8s-3.5817-8-8-8-8 3.5817-8 8 3.5817 8 8 8Zm0-1.5c-3.5899 0-6.5-2.9101-6.5-6.5 0-1.5247.525-2.9268 1.404-4.0353l9.1313 9.1313C16.9268 19.975 15.5247 20.5 14 20.5Zm6.5-6.5c0-3.5899-2.9101-6.5-6.5-6.5-1.5247 0-2.9268.525-4.0353 1.404l9.1313 9.1313C19.975 16.9268 20.5 15.5247 20.5 14Z" clip-rule="evenodd"/><defs><linearGradient id="a" x1="-14" x2="14" y1="14" y2="42" gradientUnits="userSpaceOnUse"><stop stop-color="#B1B6BD"/><stop offset="1" stop-color="#99A2AD"/></linearGradient></defs></svg>
