<svg xmlns="http://www.w3.org/2000/svg" width="28" height="28" fill="currentColor" viewBox="0 0 28 28"><path fill-rule="evenodd" d="M9.576 3.094a1 1 0 0 1 1.064.138l6 5a1 1 0 0 1 0 1.536L11.562 14l5.078 4.232a1 1 0 0 1 0 1.536l-6 5A1 1 0 0 1 9 24v-7.865l-4.36 3.633a1 1 0 1 1-1.28-1.536L8.438 14 3.36 9.768a1 1 0 1 1 1.28-1.536L9 11.865V4a1 1 0 0 1 .576-.906ZM11 16.135 14.438 19 11 21.865v-5.73Zm0-4.27v-5.73L14.438 9 11 11.865Z M21.55 7.338a.997.997 0 0 1 1.409-.088A8.974 8.974 0 0 1 26 14a8.975 8.975 0 0 1-3.041 6.75.997.997 0 0 1-1.41-.088 1.001 1.001 0 0 1 .089-1.412 7.036 7.036 0 0 0 1.157-1.313A6.97 6.97 0 0 0 24.004 14a6.971 6.971 0 0 0-1.21-3.937 7.036 7.036 0 0 0-1.156-1.313 1.001 1.001 0 0 1-.088-1.412Zm-2.13 8.446c.479.384 1.193.248 1.369-.341.28-.94.278-1.946-.002-2.886-.176-.59-.89-.725-1.368-.34l-1.242.998a1.01 1.01 0 0 0 0 1.57l1.244.999Z"/></svg>
