<svg fill="none" height="28" viewBox="0 0 28 28" width="28" xmlns="http://www.w3.org/2000/svg"><path clip-rule="evenodd" d="m9.99811 4.99998c-.14349.00054-.39039.06195-.74862.26094-.34774.19316-.72814.47536-1.11678.81328-.69889.60766-1.34969 1.32942-1.79101 1.85327l1.89678 1.89677c.01172.01172.02379.02372.03616.03602.13464.13393.30419.30254.43065.50894.10965.1789.19046.374.23946.5781.0565.2353.05586.4745.05535.6644-.00005.0174-.00009.0345-.00009.051v5.1247c0 .6885.00631.8556.02288.9317.0243.1117.03192.1365.03303.1397.00128.0032.01181.027.06658.1272-.00005-.0001-.00031-.0005 0 0 .00447.0068.0495.0752.20489.2628.1519.1833.36492.429.66427.7741.77664.8954 1.56404 2.0036 2.10694 2.8043.1495.2205.2407.3546.3149.4527.0701.0928.0934.1101.0909.1081.0564.0458.1016.0698.1712.0907.0362.011.1008.0213.6546.0213h1.5163c.4745 0 .5197-.0091.5577-.0202.0505-.0148.1267-.0541.1681-.0865.0332-.0261.0593-.0483.3075-.3959.2362-.3308.475-.6835.7157-1.0389.4594-.6785.9252-1.3664 1.3907-1.9283.3085-.3724.5299-.6397.6869-.8373.152-.1912.202-.2664.2106-.2794.0012-.0018.0016-.0024.0013-.0019.031-.0589.0471-.0902.0576-.112.0026-.0054.0044-.0093.0056-.0118.0007-.0027.0018-.0068.0032-.0126.0058-.0236.0134-.0579.0271-.1231.0157-.0742.0215-.2257.0215-.8647v-5.1247c0-.0166 0-.0336-.0001-.051-.0005-.1899-.0011-.4291.0554-.6644.049-.2041.1298-.3992.2394-.5781.1265-.2064.296-.375.4307-.50893.0123-.0123.0244-.02431.0361-.03603l1.8968-1.89677c-.4413-.52385-1.0921-1.24561-1.791-1.85327-.3886-.33792-.769-.62011-1.1168-.81328-.3598-.19987-.6073-.26094-.7505-.26094h-.0012c-.544.65266-1.9082 2-3.9988 2-2.101 0-3.458-1.34236-4.00189-2zm.08789-2.00019c.1123-.00091.3364-.00272.5396.05227.1795.04857.324.11667.4757.2242.1227.08701.2129.1853.2628.24122.051.05727.1087.12722.1637.19389l.0087.01056c.4086.4952 1.2564 1.27805 2.4635 1.27805 1.1958 0 2.0517-.7862 2.4662-1.28501l.0087-.01045c.0546-.06566.112-.13482.1629-.19151.05-.05566.1399-.15277.262-.23889.1512-.10662.2955-.17434.4741-.22248.2024-.05454.4252-.05275.5368-.05185.0123.0001.0233.00019.0327.00019h.0566c.6259 0 1.2214.23467 1.7217.51257.5124.28461 1.0091.6622 1.4579 1.05237.8978.78067 1.696 1.69352 2.1611 2.25731.0082.00986.0178.02126.0287.03411.1067.126.3323.3923.4189.73547.072.2851.0572.59441-.0417.87135-.0743.20824-.186.36101-.2767.46791-.0751.08848-.1662.1795-.2386.25183l-2.0556 2.0556c-.0926.0926-.1387.139-.1707.1741-.0008.0009-.0016.0018-.0024.0027-.0001.0011-.0001.0023-.0002.0035-.0022.0475-.0024.1129-.0024.2439v5.1247c0 .0373 0 .074.0001.1104.0004.4675.0007.8571-.0645 1.1665l-.0017.0081c-.0244.1159-.0531.2525-.104.3936-.0509.1412-.1159.2647-.171.3695l-.0039.0073c-.0992.1886-.2599.398-.4162.5946-.1713.2155-.4058.4985-.7047.8594l-.0078.0093c-.4104.4954-.7749 1.0355-1.1892 1.6493-.2511.3721-.5206.7714-.8296 1.2042-.0131.0183-.0261.0366-.0392.0549-.185.2601-.3757.5279-.6611.752-.2414.1895-.5458.3462-.8402.4325-.3489.1023-.6987.1017-1.0425.1011-.026-.0001-.052-.0001-.078-.0001h-1.5163c-.0317 0-.0635 0-.0952.0001-.3897.0007-.7783.0014-1.1361-.1063-.3194-.0962-.5972-.2435-.856-.4539-.2902-.2358-.5149-.5687-.7427-.906-.019-.0281-.038-.0563-.0571-.0845-.52988-.7816-1.26453-1.8116-1.96226-2.616l-.00892-.0102c-.28846-.3326-.51651-.5955-.68469-.7985-.1557-.188-.31575-.3893-.41974-.5796-.0612-.112-.13005-.2389-.18527-.3869-.05522-.1479-.08641-.2889-.11355-.4136-.0695-.3193-.06915-.7341-.06873-1.2368.00003-.0396.00007-.0797.00007-.1204v-5.1247c0-.131-.00024-.1964-.00241-.2439-.00006-.0012-.00012-.0024-.00017-.0035-.00077-.0009-.00158-.0018-.00242-.0027-.03204-.0351-.07811-.0815-.17074-.1741l-2.04076-2.0408c-.00484-.00485-.00979-.00979-.01483-.01482-.0724-.07233-.16349-.16334-.23855-.25181-.0907-.1069-.20245-.25967-.27678-.46791-.09884-.27694-.11363-.58625-.04166-.87136.08662-.34316.31219-.60946.41891-.73546.01089-.01285.02054-.02425.02868-.03411.46516-.56379 1.26328-1.47664 2.16115-2.25731.44873-.39017.94551-.76776 1.45787-1.05237.50028-.2779 1.09582-.51257 1.7217-.51257h.053c.0095 0 .0205-.00009.033-.00019z" fill="currentColor" fill-rule="evenodd"/></svg>
