<svg xmlns="http://www.w3.org/2000/svg" width="28" height="28" fill="none" viewBox="0 0 28 28">
  <rect width="28" height="28" fill="url(#a)" rx="14"/>
  <path fill="#fff" d="M16.482 7.071c.546.045 1.026.139 1.47.365.706.358 1.28.93 1.64 1.634.226.443.32.922.365 1.467.043.53.043 1.183.043 1.994v5.488c0 .496 0 .92-.03 1.252-.03.331-.1.714-.345 1.031a1.802 1.802 0 0 1-1.358.697c-.401.015-.754-.152-1.042-.32-.289-.168-.634-.414-1.039-.702l-1.692-1.206a7.25 7.25 0 0 0-.356-.245.524.524 0 0 0-.078-.042.251.251 0 0 0-.12 0 .524.524 0 0 0-.078.042c-.08.048-.18.12-.356.245l-1.692 1.206c-.405.288-.75.534-1.04.703-.287.167-.64.334-1.04.32a1.802 1.802 0 0 1-1.359-.698c-.245-.317-.314-.7-.345-1.03C8 18.938 8 18.514 8 18.02v-5.49c0-.71 0-1.299.029-1.79a9.03 9.03 0 0 1 .014-.204c.045-.545.14-1.024.366-1.467a3.745 3.745 0 0 1 1.638-1.634c.445-.226.925-.32 1.471-.365.231-.019.486-.03.767-.035 1.388-.03 2.811-.078 4.197.035Z"/>
  <defs>
    <linearGradient id="a" x1="-14" x2="14" y1="14" y2="42" gradientUnits="userSpaceOnUse">
      <stop stop-color="#FFB73D"/>
      <stop offset="1" stop-color="#FFA000"/>
    </linearGradient>
  </defs>
</svg>
