<svg fill="none" height="28" viewBox="0 0 28 28" width="28" xmlns="http://www.w3.org/2000/svg"><path clip-rule="evenodd" d="m9.7587 2h.0413 8.4.0413c.805-.00001 1.4693-.00002 2.0105.04419.5621.04593 1.0788.14449 1.5642.39179.7526.38349 1.3645.99541 1.748 1.74806.2473.48533.3459 1.00204.3918 1.56414.0442.54119.0442 1.20554.0442 2.0105v.04132 1.2h-2v-1.2c0-.85658-.0008-1.43887-.0376-1.88896-.0358-.43842-.1007-.66262-.1804-.81902-.1917-.37632-.4977-.68228-.874-.87403-.1564-.07969-.3806-.14462-.819-.18044-.4501-.03677-1.0324-.03755-1.889-.03755h-8.4c-.85658 0-1.43887.00078-1.88896.03755-.43842.03582-.66262.10075-.81902.18044-.37632.19175-.68228.49771-.87403.87403-.07969.1564-.14462.3806-.18044.81902-.03677.45009-.03755 1.03238-.03755 1.88896v1.2 11.1707c.31278-.1105.64937-.1707 1-.1707h14 1v-.006-10.99233h2v11.99833c0 .5523-.4477 1-1 1h-.9002c-.0654.3226-.0998.6569-.0998 1 0 .343.0344.6773.0998 1h1.0188c.5523 0 1 .4477 1 1s-.4477 1-1 1h-16.1186c-1.65685 0-3-1.3431-3-3v-14-1.2-.0413-.00002c-.00001-.80496-.00002-1.46931.04419-2.0105.04593-.5621.14449-1.07881.39179-1.56414.38349-.75265.99541-1.36457 1.74806-1.74806.48533-.2473 1.00204-.34586 1.56414-.39179.54119-.04421 1.20554-.0442 2.0105-.04419zm10.3123 22c-.0468-.3268-.071-.6607-.071-1 0-.3392.0242-.6731.071-1h-13.071c-.55228 0-1 .4477-1 1s.44772 1 1 1z" fill="currentColor" fill-rule="evenodd"/>
</svg>