<svg xmlns="http://www.w3.org/2000/svg" width="28" height="28" fill="none" viewBox="0 0 28 28"><path fill="currentColor" fill-rule="evenodd" d="M14 5.9988c-2.3895-1.453-4.8469-2.0385-8.1235-1.9921a86.6199 86.6199 0 0 1-.1538.002c-.7763.0096-1.473.0182-2.111.3513-.5359.2797-1.0184.7691-1.2905 1.3088-.1853.3675-.2578.7402-.2907 1.1198C2 7.1413 2 7.5626 2 8.0416v10.4596c0 .5726 0 1.0577.0296 1.4509.0307.4063.098.816.292 1.2003.2969.5884.7074 1.0044 1.2918 1.309.3927.2047.8307.2742 1.2584.3091.4259.0348.9626.0418 1.6097.0503l.0359.0005c2.8595.0377 4.8864.6495 6.9279 2.0105a.9998.9998 0 0 0 1.1094 0c2.0415-1.361 4.0684-1.9728 6.9279-2.0105l.0359-.0005c.6471-.0085 1.1838-.0155 1.6097-.0503.4277-.0349.8657-.1044 1.2584-.3091.5844-.3046.9949-.7206 1.2918-1.309.1939-.3843.2613-.794.292-1.2003C26 19.5589 26 19.0738 26 18.5012V8.0416c0-.479 0-.9003-.0305-1.253-.0329-.3796-.1054-.7523-.2907-1.1198-.2721-.5397-.7546-1.029-1.2904-1.3088-.638-.333-1.3348-.3417-2.1111-.3513a85.5417 85.5417 0 0 1-.1538-.002c-3.2766-.0464-5.734.5391-8.1235 1.9921Zm-1 1.7327c-2.0327-1.2461-4.1172-1.7672-7.0952-1.725-1.021.0145-1.2041.041-1.3676.1264-.1648.086-.3464.2703-.4301.4363-.0289.0572-.0634.153-.084.3919C4.0008 7.2172 4 7.551 4 8.0804V18.464c0 .6199.0007 1.0289.024 1.3377.023.3044.0627.4093.0832.4499.1082.2145.2175.3253.4306.4363.0294.0154.1412.0603.4967.0893.3494.0285.8171.0353 1.5092.0444 2.513.0331 4.5404.4752 6.4563 1.4376V7.7315Zm2 14.5276c1.9159-.9624 3.9432-1.4045 6.4563-1.4376.6921-.0091 1.1598-.0159 1.5092-.0444.3555-.029.4673-.0739.4967-.0893.2131-.111.3224-.2218.4306-.4363.0205-.0406.0603-.1455.0832-.4499.0233-.3089.024-.7178.024-1.3377V8.0804c0-.5293-.0009-.8631-.023-1.1193-.0207-.2389-.0552-.3347-.0841-.3919-.0837-.166-.2653-.3502-.4301-.4363-.1635-.0853-.3466-.112-1.3676-.1264-2.978-.0422-5.0625.4789-7.0952 1.725v14.5276Zm6.9994-11.2948c.0197.5519-.4117 1.0153-.9637 1.035-1.0156.0363-1.9076.1828-2.7238.4508-.5247.1723-1.0897-.1135-1.262-.6382-.1723-.5247.1134-1.0897.6382-1.262 1.0259-.3369 2.1086-.5076 3.2762-.5493.5519-.0197 1.0153.4117 1.0351.9637Zm-15.9988 0c.0198-.552.4832-.9834 1.0351-.9637 1.1676.0418 2.2503.2124 3.2762.5493.5248.1723.8105.7373.6382 1.262-.1723.5248-.7373.8105-1.262.6382-.8162-.268-1.7082-.4144-2.7238-.4507-.552-.0198-.9834-.4832-.9637-1.0351Zm0 5c.0198-.552.4832-.9834 1.0351-.9637 1.1676.0418 2.2503.2124 3.2762.5493.5248.1723.8105.7373.6382 1.262-.1723.5248-.7373.8105-1.262.6382-.8162-.268-1.7082-.4144-2.7238-.4507-.552-.0198-.9834-.4832-.9637-1.0351Zm15.9988 0c.0197.5519-.4117 1.0153-.9637 1.0351-1.0156.0363-1.9076.1827-2.7238.4507-.5247.1723-1.0897-.1134-1.262-.6382-.1723-.5247.1134-1.0897.6382-1.262 1.0259-.3369 2.1086-.5075 3.2762-.5493.5519-.0197 1.0153.4117 1.0351.9637Z" clip-rule="evenodd"/></svg>
