<svg xmlns="http://www.w3.org/2000/svg" width="28" height="28" fill="none" viewBox="0 0 28 28">
  <rect width="28" height="28" fill="url(#a)" rx="14"/>
  <path fill="#fff" d="M9.242 7.988a3.74 3.74 0 0 0-.833 1.082c-.227.443-.321.922-.366 1.467a9.03 9.03 0 0 0-.014.205C8 11.232 8 11.822 8 12.53v5.488c0 .496 0 .92.03 1.252.03.331.1.714.345 1.031.327.422.824.677 1.358.697.401.015.754-.152 1.042-.32.289-.168.634-.414 1.039-.702l1.692-1.206a6.6 6.6 0 0 1 .356-.245.524.524 0 0 1 .078-.042c.04-.01.08-.01.12 0a.524.524 0 0 1 .078.042c.08.048.18.12.356.245l1.692 1.206c.405.288.75.534 1.04.703.287.167.64.334 1.04.32a1.802 1.802 0 0 0 1.359-.698c.245-.317.314-.7.345-1.03.014-.158.021-.335.026-.53L9.242 7.987ZM20 16.2v-3.669c0-.81 0-1.464-.043-1.994-.045-.545-.14-1.024-.366-1.467a3.745 3.745 0 0 0-1.639-1.634c-.444-.226-.924-.32-1.47-.365-1.25-.102-2.531-.073-3.79-.044l-.407.009c-.281.006-.536.016-.767.035-.2.017-.39.04-.574.073L20 16.2Z"/>
  <path fill="#fff" d="M6.266 6.265a.9.9 0 0 1 1.272 0L21.74 20.466a.9.9 0 0 1-1.272 1.272L6.266 7.538a.9.9 0 0 1 0-1.273Z"/>
  <defs>
    <linearGradient id="a" x1="-14" x2="14" y1="14" y2="42" gradientUnits="userSpaceOnUse">
      <stop stop-color="#FFB73D"/>
      <stop offset="1" stop-color="#FFA000"/>
    </linearGradient>
  </defs>
</svg>
