<svg fill="none" height="28" viewBox="0 0 28 28" width="28" xmlns="http://www.w3.org/2000/svg"><path clip-rule="evenodd" d="m18.1973 5.09357c-.7841-.06426-1.7871-.06504-3.2047-.06504h-4.4163c-.5527 0-1.00068-.44935-1.00068-1.00365 0-.55431.44798-1.00366 1.00068-1.00366h4.4601c1.364-.00001 2.4487-.00001 3.3239.07171.8961.07344 1.6603.22706 2.36.58464 1.1297.57735 2.0482 1.49858 2.6238 2.63168.3565.7018.5097 1.46826.5829 2.36714.0715.87777.0715 1.96571.0715 3.33371v4.4725c0 .5543-.448 1.0036-1.0007 1.0036-.5526 0-1.0006-.4493-1.0006-1.0036v-4.4285c0-1.4218-.0008-2.4278-.0649-3.21425-.0631-.77474-.1826-1.24764-.3714-1.6193-.3837-.7554-.996-1.36956-1.7492-1.75445-.3705-.18938-.842-.30923-1.6144-.37253zm-14.88286-2.77817c.39078-.39195.98325-.4332 1.37403-.04125s21.00743 21.10335 21.00743 21.10335c.3908.3919.4123 1.0489.0215 1.4409-.3907.3919-1.0458.3704-1.4366-.0215l-.5487-.5504c-.6605 1.4717-2.3845 2.1689-3.9174 1.496-.2176-.0955-.423-.2336-.6152-.3732-.1954-.1419-.4359-.3295-.729-.5582l-3.1053-2.4224c-.7761-.6055-.9433-.7118-1.09-.7517-.1713-.0465-.3518-.0465-.523 0-.1467.0399-.3139.1462-1.0901.7517l-1.9118 1.4914c-.79532.6205-1.44681 1.1287-1.98693 1.4762-.53476.344-1.12533.6443-1.77976.6387-.90842-.0077-1.76447-.4277-2.32828-1.1421-.40618-.5147-.53241-1.1667-.58999-1.8013-.05816-.6409-.05815-1.4688-.05813-2.4793l-.0217-11.02733c0-.84918.139-1.83567.4266-2.70106.14358-.43204.34943-.91043.64458-1.32892l-1.78335-1.82146c-.39078-.39195-.34967-.98618.0411-1.37813zm3.51462 4.97643c-.10305-.10307-.15457-.15461-.21594-.16583-.05036-.00921-.11155.00462-.15306.0346-.05057.03652-.07309.10006-.11814.22714-.01047.02951-.02087.05982-.03122.09094-.21272.64009-.32389 1.40999-.32389 2.06629l.0217 10.97663c0 1.0737.00099 1.8093.04989 2.3481.05044.5559.14024.7045.16614.7374.18794.2381.47329.3781.7761.3807.04174.0003.21384-.0198.68229-.3212.45409-.2921 1.03362-.7429 1.87855-1.402l1.87202-1.4604.1235-.0966c.5777-.4521 1.084-.8484 1.6721-1.0081.5138-.1396 1.0554-.1396 1.5691 0 .5882.1597 1.0945.556 1.6722 1.0081l.1235.0966 3.0906 2.411c.3114.2429.5245.409.6887.5282.0802.0583.1383.0977.1816.1247.0211.0131.0365.022.0472.0278.0103.0056.0151.0077.0151.0077.566.2485 1.2191-.0719 1.371-.6726 0 0 .0013-.005.0032-.0166.002-.012.0045-.0297.0071-.0545.0053-.0508.01-.121.0134-.2203.0099-.2906-.109-.5699-.3146-.7755z" fill="currentColor" fill-rule="evenodd"/></svg>
