<svg fill="none" height="28" viewBox="0 0 28 28" width="28" xmlns="http://www.w3.org/2000/svg"><path clip-rule="evenodd" d="m12.9562 3h2.0876c1.363-.00001 2.447-.00001 3.3216.07144.8956.07318 1.6593.22624 2.3585.58252 1.129.57524 2.0469 1.49312 2.6221 2.6221.3563.69924.5094 1.46292.5826 2.35852.0714.87458.0714 1.95862.0714 3.32162v8.6452c0 1.0069 0 1.8317-.0581 2.4703-.0575.6323-.1837 1.2819-.5896 1.7947-.5634.7118-1.4189 1.1302-2.3268 1.138-.654.0055-1.2442-.2937-1.7786-.6364-.5398-.3462-1.1909-.8527-1.9857-1.4709l-1.9105-1.486c-.7757-.6033-.9427-.7092-1.0894-.7489-.1711-.0463-.3515-.0463-.5226 0-.1466.0397-.3137.1456-1.0894.7489l-1.9106 1.4861c-.79478.6182-1.44585 1.1246-1.98562 1.4708-.53442.3427-1.1246.6419-1.7786.6364-.90783-.0078-1.76333-.4262-2.32678-1.138-.40591-.5128-.53207-1.1624-.58961-1.7947-.05812-.6386-.05811-1.4635-.05809-2.4704v-8.6451c-.00001-1.363-.00001-2.44703.07144-3.32162.07318-.8956.22624-1.65928.58252-2.35852.57524-1.12898 1.49313-2.04686 2.6221-2.6221.69925-.35628 1.46292-.50934 2.35852-.58252.87462-.07145 1.95862-.07145 3.32162-.07144zm-3.15876 2.0648c-.77192.06307-1.24309.18249-1.6134.37117-.75265.3835-1.36457.99542-1.74807 1.74807-.18868.37031-.3081.84148-.37117 1.6134-.06402.7836-.0648 1.78596-.0648 3.20256v8.5509c0 1.0697.001 1.8026.04986 2.3395.05041.5539.14015.702.16604.7347.18782.2373.47298.3768.77559.3793.04172.0004.2137-.0197.68185-.3199.4538-.2911 1.03295-.7403 1.87733-1.397l1.87083-1.4551c.0415-.0323.0826-.0644.1234-.0962.5773-.4505 1.0833-.8453 1.6711-1.0045.5134-.139 1.0546-.139 1.568 0 .5878.1592 1.0938.554 1.6711 1.0045.0408.0318.0819.0639.1234.0962l1.8708 1.4551c.8444.6567 1.4236 1.1059 1.8774 1.397.4681.3002.6401.3203.6818.3199.3026-.0025.5878-.142.7756-.3793.0259-.0327.1156-.1808.166-.7347.0489-.5369.0499-1.2698.0499-2.3395v-8.5509c0-1.4166-.0008-2.41896-.0648-3.20256-.0631-.77192-.1825-1.24309-.3712-1.6134-.3835-.75265-.9954-1.36457-1.748-1.74807-.3703-.18868-.8415-.3081-1.6134-.37117-.7836-.06402-1.786-.0648-3.2026-.0648h-2c-1.4166 0-2.419.00078-3.20256.0648z" fill="currentColor" fill-rule="evenodd"/></svg>
