<svg fill="none" height="28" viewBox="0 0 28 28" width="28" xmlns="http://www.w3.org/2000/svg" xmlns:xlink="http://www.w3.org/1999/xlink"><linearGradient id="a" gradientUnits="userSpaceOnUse" x1="-14" x2="14" y1="14" y2="42"><stop offset="0" stop-color="#70b2ff"/><stop offset="1" stop-color="#5c9ce6"/></linearGradient><path d="m0 14c0-7.73199 6.26801-14 14-14 7.732 0 14 6.26801 14 14 0 7.732-6.268 14-14 14-7.73199 0-14-6.268-14-14z" fill="url(#a)"/><path d="m7.6434 9.27576c-.0708-.03035-.12722-.08677-.15757-.15757-.06526-.15229.00528-.32865.15757-.39392l6.1202-2.62296c.151-.06469.3218-.06469.4728 0l6.1202 2.62296c.0708.03035.1272.08676.1576.15757.0652.15229-.0053.32865-.1576.39392l-6.1202 2.62294c-.151.0647-.3218.0647-.4728 0zm-.22522 2.40344 6.34542 2.7195c.151.0647.3218.0647.4728 0l6.3454-2.7195c.1523-.0652.3287.0053.3939.1576.016.0373.0243.0775.0243.1182v6.1516c0 .2389-.1417.455-.3608.5502l-6.4 2.7815c-.1526.0663-.3258.0663-.4784 0l-6.39995-2.7815c-.21911-.0952-.36085-.3113-.36085-.5502v-6.1516c0-.1657.13431-.3001.3-.3001.04063 0 .08083.0083.11818.0243z" fill="#fff"/></svg>
