<svg width="28" height="28" viewBox="0 0 28 28" fill="none" xmlns="http://www.w3.org/2000/svg">
<path fill-rule="evenodd" clip-rule="evenodd" d="M12.073 2C12.8241 2 13.4636 2.23306 14 2.59296C14.5364 2.23306 15.1759 2 15.9269 2C17.932 2 19.5798 3.61833 19.5798 5.64211C19.5798 6.03981 19.5387 6.4932 19.3774 6.97725C19.215 7.46462 18.9643 7.88375 18.6617 8.26213C18.1146 8.94622 17.2795 9.6302 16.2376 10.4353L15.5226 10.9878C14.626 11.6806 13.3739 11.6806 12.4774 10.9878L11.7623 10.4353C10.7204 9.6302 9.88534 8.94622 9.33827 8.26213C9.03568 7.88375 8.78492 7.46462 8.62256 6.97725C8.4613 6.4932 8.42017 6.03981 8.42017 5.64211C8.42017 3.61833 10.068 2 12.073 2ZM12.073 4C11.1602 4 10.4202 4.7352 10.4202 5.64211C10.4202 6.67059 10.8454 7.19922 12.9852 8.8527L13.7003 9.40525C13.8766 9.54146 14.1234 9.54146 14.2997 9.40525L15.0148 8.8527C17.1546 7.19922 17.5798 6.67059 17.5798 5.64211C17.5798 4.7352 16.8398 4 15.9269 4C15.3747 4 14.8732 4.31198 14.4015 4.98967L14.2676 5.18194C14.1654 5.32881 13.9627 5.36553 13.8149 5.26397C13.7826 5.2418 13.7546 5.21401 13.7323 5.18194L13.5985 4.98967C13.1268 4.31198 12.6253 4 12.073 4ZM6.8854 10.383C7.39681 10.1745 7.64235 9.5909 7.43383 9.07949C7.22531 8.56808 6.64169 8.32255 6.13028 8.53107L4.48149 9.20334L4.36116 9.25226C3.81059 9.47573 3.31213 9.67806 2.92898 10.0295C2.59401 10.3367 2.3369 10.7192 2.17887 11.1454C1.9981 11.6329 1.99895 12.1708 1.99989 12.765L2.00003 12.8949V18.5272L1.99989 18.6481C1.99898 19.1852 1.99812 19.6861 2.16316 20.1436C2.30736 20.5434 2.54226 20.9043 2.84941 21.1981C3.20095 21.5342 3.65927 21.7363 4.15074 21.9529L4.15075 21.9529L4.26135 22.0017L12.0832 25.4656L12.1717 25.5048C12.6415 25.7133 13.0302 25.8858 13.4465 25.9559C13.8128 26.0175 14.1868 26.0175 14.553 25.9559C14.9694 25.8858 15.3581 25.7133 15.8278 25.5049L15.8279 25.5049L15.9163 25.4656L23.7386 22.0017L23.8492 21.9529C24.3407 21.7363 24.7991 21.5342 25.1506 21.1981C25.4578 20.9043 25.6927 20.5434 25.8369 20.1436C26.0019 19.6861 26.0011 19.1852 26.0002 18.6481V18.6481L26 18.5272V12.8963L26.0002 12.7663C26.0011 12.1717 26.002 11.6335 25.821 11.1457C25.6628 10.7194 25.4054 10.3367 25.0702 10.0295C24.6867 9.67803 24.1878 9.4759 23.6367 9.25263L23.5163 9.20375L21.8693 8.53339C21.3577 8.32518 20.7743 8.57108 20.5661 9.08262C20.3579 9.59415 20.6038 10.1776 21.1153 10.3858L22.7178 11.0381L15.1085 14.4143C14.5042 14.6824 14.3582 14.7392 14.2216 14.7622C14.0749 14.787 13.925 14.787 13.7783 14.7622C13.6417 14.7392 13.4957 14.6824 12.8914 14.4143L9.15551 12.7567L5.2806 11.0374L6.8854 10.383ZM15.9196 16.2424L23.9995 12.6574C23.9999 12.7298 24 12.8092 24 12.8963V18.5272C24 19.2633 23.9858 19.3811 23.9555 19.465C23.9162 19.5741 23.8521 19.6725 23.7684 19.7526C23.7039 19.8142 23.6019 19.8749 22.9288 20.173L15.1065 23.6369L14.9998 23.6841V16.6213C15.2627 16.5345 15.5302 16.4155 15.831 16.2818L15.9196 16.2424ZM12.1689 16.2818C12.4695 16.4154 12.737 16.5344 12.9998 16.6212V23.684L12.8931 23.6369L5.07118 20.173C4.3981 19.875 4.29614 19.8143 4.23168 19.7526C4.14791 19.6725 4.08385 19.5741 4.04452 19.465C4.01425 19.3811 4.00003 19.2633 4.00003 18.5272V12.8949C4.00003 12.8084 4.0002 12.7295 4.00056 12.6575L8.34438 14.5848L12.0803 16.2424L12.1689 16.2818L12.1689 16.2818Z" fill="currentColor"/>
</svg>
