<?xml version="1.0" encoding="UTF-8"?>
<svg width="28px" height="28px" viewBox="0 0 28 28" version="1.1" xmlns="http://www.w3.org/2000/svg" xmlns:xlink="http://www.w3.org/1999/xlink">
    <!-- Generator: Sketch 63.1 (92452) - https://sketch.com -->
    <title>brain_outline_28</title>
    <desc>Created with Sketch.</desc>
    <g id="Page-1" stroke="none" stroke-width="1" fill="none" fill-rule="evenodd">
        <g id="brain_outline_28">
            <rect id="Rectangle" x="0" y="0" width="28" height="28"></rect>
            <path d="M13.9814228,2.42312262 L14.198575,2.35672203 C17.0384848,1.53178464 19.428021,2.42692441 20.9310861,4.6231493 L21.0303097,4.77255752 L21.2168297,4.84984476 C25.161193,6.53652167 25.8081655,10.7016821 24.0262631,13.8786574 C24.9836416,15.1678355 25.1859158,16.4479783 24.6978132,17.6320792 C24.3819672,18.398298 23.8614031,18.9951754 23.1474777,19.557275 L23.1093097,19.5855575 L23.1142242,19.7801453 C23.1359705,22.3688038 21.7691709,23.6985935 19.7582084,23.7238069 C19.2021494,24.871671 18.2454136,25.6087094 16.9454522,25.8763485 C15.7881544,26.1146157 14.7702099,25.8901635 13.9630429,25.2275269 C12.3973902,26.4311481 9.67274257,25.9525227 8.29153217,23.9793262 L8.15830973,23.7765575 L8.12251949,23.7756099 C5.78410705,23.6723364 4.55941535,22.1001884 4.77508525,19.8999005 L4.79530973,19.7215575 L4.73463745,19.6905423 C3.2679763,18.8681395 2.58403976,16.99473 3.04495363,15.2163818 L3.100896,15.019237 C3.2421638,14.5615293 3.4467551,14.1467602 3.70881454,13.7807336 C1.99404105,10.9712462 2.80012861,6.22232239 6.63477125,4.976106 L6.78530973,4.92955752 L6.97878961,4.68222738 C7.14055263,4.47629194 7.28430148,4.30026294 7.43169784,4.12996876 C9.18297203,2.1066366 11.2197866,1.33853741 13.9814228,2.42312262 Z M14.8501181,4.04319678 L14.8489324,23.5803655 C15.2871998,24.1060183 15.823839,24.269516 16.5824769,24.1133258 C17.1565078,23.995143 17.5858605,23.7456979 17.8958868,23.3390501 C16.9377439,22.8291739 16.3946914,21.8031101 16.291143,20.3879489 C16.25487,19.8922179 16.6273343,19.4609435 17.1230653,19.4246705 C17.6187962,19.3883975 18.0500707,19.7608617 18.0863437,20.2565927 C18.164517,21.324962 18.4954522,21.7726978 19.1373623,21.8762317 C20.7101014,22.1298993 21.5000922,21.4729596 21.2840788,19.240821 C21.2528171,18.9177839 21.397899,18.6029355 21.6637777,18.4168205 C22.3539213,17.9337199 22.8186009,17.4677978 23.0336558,16.9460907 C23.2271859,16.4766011 23.1996987,15.9676297 22.8591674,15.36648 C21.5692479,16.5225856 19.7139129,17.1417177 18.6448018,16.6915657 C18.1866971,16.4986795 17.9716951,15.9709472 18.1645812,15.5128425 C18.3574674,15.0547379 18.8851997,14.8397358 19.3433044,15.032622 C19.7854604,15.218793 21.4531035,14.5054627 22.1804801,13.4423739 C23.8834442,10.9534262 23.4624686,7.53086127 20.1287688,6.35702332 C19.9288182,6.2866182 19.7601366,6.14789357 19.6524521,5.96529803 C18.6125971,4.20206576 16.9911962,3.47185035 14.8501181,4.04319678 Z M8.79269707,5.30796754 L8.53413502,5.61825356 L8.02305413,6.27304744 C7.89684321,6.43531863 7.7188829,6.54949155 7.51877254,6.59657634 C4.80530663,7.23503891 4.08960499,10.5432375 5.0914841,12.5688518 C6.24013993,11.9433884 7.77935748,11.7678661 9.57943959,12.1695373 C10.064565,12.2777884 10.3700819,12.7588151 10.2618308,13.2439405 C10.1535797,13.7290659 9.67255299,14.0345828 9.18742761,13.9263317 C6.74409623,13.3811256 5.26071405,14.1248865 4.82083845,15.5500834 C4.4568636,16.7293619 4.95977676,17.9367942 5.89410474,18.2405061 L6.02414626,18.2762323 C6.52277955,18.3888269 6.82763332,18.8936181 6.69517003,19.3873449 C6.21682378,21.1702718 6.84289048,22.0825405 8.63816905,21.9726254 C9.01194236,21.9497414 9.36083007,22.1606915 9.51421069,22.502312 C10.2602868,24.1640269 12.346852,24.4950382 13.0510805,23.6150591 L13.0487078,3.9970952 C11.23626,3.37383225 10.022903,3.88665083 8.79269707,5.30796754 Z M7.78794027,15.8689551 C8.78873826,16.2442543 9.59901046,16.819974 10.2000453,17.5927331 C10.8155768,18.3841307 11.1430265,19.3446499 11.1854235,20.446973 C11.2045269,20.9436621 10.8173673,21.3617945 10.3206783,21.3808979 C9.82398924,21.4000013 9.40585683,21.0128417 9.38675341,20.5161526 C9.35835399,19.7777678 9.15483025,19.1807649 8.77921129,18.6978262 C8.38909567,18.196249 7.85423513,17.8162165 7.15591808,17.5543476 C6.69050978,17.3798195 6.4547048,16.8610485 6.62923291,16.3956402 C6.80376102,15.9302319 7.32253198,15.694427 7.78794027,15.8689551 Z M18.4247364,7.96514694 C18.6940927,8.89293001 19.0581078,9.50895554 19.4876608,9.83743725 C19.8990529,10.1520312 20.4983214,10.2953345 21.3215117,10.2385628 C21.8173901,10.2043643 22.2471024,10.5786298 22.2813009,11.0745082 C22.3154994,11.5703866 21.9412339,12.0000989 21.4453555,12.0342974 C20.2154484,12.1191186 19.1863983,11.8730414 18.3942506,11.2672813 C17.6202638,10.6754091 17.0639249,9.73391248 16.6961131,8.46700529 C16.5575288,7.98965917 16.8321495,7.49034887 17.3094956,7.35176451 C17.7868417,7.21318015 18.286152,7.48780082 18.4247364,7.96514694 Z M11.4601227,6.38719565 C11.9423382,6.50774951 12.2355228,6.99639055 12.1149689,7.47860596 C11.8825116,8.40843514 11.3887323,9.12441511 10.64294,9.57189054 C9.97102201,9.97504131 9.22675575,10.178023 8.42768139,10.178023 C7.93062511,10.178023 7.52768139,9.77507929 7.52768139,9.27802302 C7.52768139,8.78096674 7.93062511,8.37802302 8.42768139,8.37802302 C8.9029433,8.37802302 9.32681864,8.26242065 9.71684759,8.02840328 C10.0330021,7.83871057 10.2471874,7.52814187 10.3687124,7.04204184 C10.4892663,6.55982642 10.9779073,6.2666418 11.4601227,6.38719565 Z" id="↳-Icon-Color" fill="currentColor" fill-rule="nonzero"></path>
        </g>
    </g>
</svg>
