<svg fill="none" height="28" viewBox="0 0 28 28" width="28" xmlns="http://www.w3.org/2000/svg"><path clip-rule="evenodd" d="m23.6511 4.09883c-.8379-.73989-2.1125-.69487-2.8953.10234l-8.0308 7.92963c-.393.388-.397 1.0212-.0089 1.4142.388.393 1.0212.397 1.4142.0089l8.0371-7.93586.0149-.01504c.0373-.03842.1034-.04165.1449-.00501.0362.03198.0385.0808.0099.11508l-.0145.01768-7.132 8.94135c-.3444.4318-.2736 1.0609.1582 1.4053s1.0609.2736 1.4053-.1582l7.1261-8.93377c.7159-.86749.6138-2.14225-.2291-2.8866zm-15.52326 14.79207c.04919-1.0658.87923-1.891 1.93656-1.891 1.0988 0 1.9356.8554 1.9356 1.8449 0 .9734-.8472 2.2805-2.98233 2.9268-.93548.2832-1.68001.2673-2.23963.1424.63497-.6009 1.28136-1.5401 1.3498-3.0231zm1.93656-3.891c-2.45502 0-4.07107 1.961-4.07107 4-.04519.9791-.35199 1.2795-.76808 1.6172-.11179.0908-.22348.1706-.33797.2501l-.05134.0355c-.09303.0642-.21071.1455-.30419.2197-.05979.0475-.14076.116-.21861.2024-.07305.0811-.1914.2301-.26003.4444-.07905.2468-.07466.529.04577.7941.10598.2333.26841.3795.37608.4604.84248.6329 2.59276 1.4278 5.12218.6621 2.63376-.7972 4.40286-2.183 4.40286-4.6898 0-1.8554-1.4805-3.9961-3.9356-3.9961z" fill="currentColor" fill-rule="evenodd"/>
</svg>