<?xml version="1.0" encoding="UTF-8"?>
<svg width="28px" height="28px" viewBox="0 0 28 28" version="1.1" xmlns="http://www.w3.org/2000/svg" xmlns:xlink="http://www.w3.org/1999/xlink">
    <!-- Generator: Sketch 63.1 (92452) - https://sketch.com -->
    <title>bug_outline_28</title>
    <desc>Created with Sketch.</desc>
    <g id="Page-1" stroke="none" stroke-width="1" fill="none" fill-rule="evenodd">
        <g id="bug_outline_28">
            <polygon points="0 0 28 0 28 28 0 28"></polygon>
            <path d="M20.3010481,3.04257983 C20.6777054,3.44649533 20.6556083,4.0792746 20.2516928,4.4559319 L18.9238327,5.69432355 C19.7322073,6.32644286 20.4159262,7.11062405 20.9319622,8.00383983 L21,8 L24,8 C24.5522847,8 25,8.44771525 25,9 C25,9.51283584 24.6139598,9.93550716 24.1166211,9.99327227 L24,10 L21.7478729,9.9996419 C21.9124613,10.6389896 22,11.3092719 22,12 L22,13.9995744 L26,14 C26.5128358,14 26.9355072,14.3860402 26.9932723,14.8833789 L27,15 C27,15.5128358 26.6139598,15.9355072 26.1166211,15.9932723 L26,16 L22,15.9995744 L22,18 C22,18.6907281 21.9124613,19.3610104 21.7478729,20.0003581 L24,20 C24.5522847,20 25,20.4477153 25,21 C25,21.5128358 24.6139598,21.9355072 24.1166211,21.9932723 L24,22 L21,22 L20.9307881,21.9976423 C19.5492719,24.389483 16.9627142,26 14,26 C11.0372858,26 8.45072808,24.389483 7.06803776,21.9961602 L7,22 L4,22 C3.44771525,22 3,21.5522847 3,21 C3,20.4871642 3.38604019,20.0644928 3.88337887,20.0067277 L4,20 L6.25212715,20.0003581 C6.08753869,19.3610104 6,18.6907281 6,18 L6,15.9995744 L2,16 C1.48716416,16 1.06449284,15.6139598 1.00672773,15.1166211 L1,15 C1,14.4871642 1.38604019,14.0644928 1.88337887,14.0067277 L2,14 L6,13.9995744 L6,12 C6,11.3092719 6.08753869,10.6389896 6.25212715,9.9996419 L4,10 C3.44771525,10 3,9.55228475 3,9 C3,8.48716416 3.38604019,8.06449284 3.88337887,8.00672773 L4,8 L7,8 L7.06880047,8.00232969 C7.58644489,7.10640106 8.27311247,6.32009701 9.0852603,5.68699974 L7.76503332,4.4559319 C7.36111782,4.0792746 7.33902068,3.44649533 7.71567798,3.04257983 C8.06336163,2.66973476 8.6292794,2.62222604 9.03197685,2.91337435 L9.12903004,2.99322449 L10.8841658,4.62941058 C11.8417437,4.224156 12.8946946,4 14,4 C15.1099528,4 16.1671099,4.22604495 17.127948,4.63461142 L18.8876961,2.99322449 C19.2916116,2.6165672 19.9243908,2.63866434 20.3010481,3.04257983 Z M14,6 C10.6862915,6 8,8.6862915 8,12 L8,18 C8,21.3137085 10.6862915,24 14,24 C17.3137085,24 20,21.3137085 20,18 L20,12 C20,8.6862915 17.3137085,6 14,6 Z M15,17 C15.5522847,17 16,17.4477153 16,18 C16,18.5522847 15.5522847,19 15,19 L13,19 C12.4477153,19 12,18.5522847 12,18 C12,17.4477153 12.4477153,17 13,17 L15,17 Z M13,11 L15,11 C15.5522847,11 16,11.4477153 16,12 C16,12.5128358 15.6139598,12.9355072 15.1166211,12.9932723 L15,13 L13,13 C12.4477153,13 12,12.5522847 12,12 C12,11.4871642 12.3860402,11.0644928 12.8833789,11.0067277 L13,11 L15,11 L13,11 Z" id="↳-Icon-Color" fill="currentColor" fill-rule="nonzero"></path>
        </g>
    </g>
</svg>
