<svg fill="none" height="28" viewBox="0 0 28 28" width="28" xmlns="http://www.w3.org/2000/svg"><path clip-rule="evenodd" d="m13 2h-.0438c-1.363-.00001-2.447-.00001-3.32162.07144-.8956.07318-1.65928.22624-2.35852.58252-1.12898.57524-2.04686 1.49312-2.6221 2.6221-.35628.69924-.50934 1.46292-.58252 2.35852-.07145.87459-.07145 1.95862-.07144 3.32162v.0438 1h-.45986c-.03727 0-.0559 0-.07166.0005-.52756.0166-.95135.4404-.96798.968-.0005.0157-.0005.0344-.0005.0716v.3136c0 .9328.67007 1.6611 1.5 1.8262v1.4201.0428c-.00001 1.0838-.00002 1.9579.05782 2.6658.05955.7289.18536 1.3691.48715 1.9614.34829.6835.84732 1.2742 1.45503 1.73v1c0 .5586 0 .8379.07856 1.0624.14072.4021.4569.7183.85905.859.22452.0786.50381.0786 1.06239.0786s.83787 0 1.06239-.0786c.40215-.1407.71833-.4569.85905-.859.07856-.2245.07856-.5038.07856-1.0624v-.0055c.4112.0055.8618.0055 1.3561.0055h.0001.0001.0001.0001.0006.0001.0428 5.2.0428.0001.0006.0001.0001.0001c.4943 0 .945 0 1.3562-.0055v.0055c0 .5586 0 .8379.0786 1.0624.1407.4021.4569.7183.859.859.2245.0786.5038.0786 1.0624.0786s.8379 0 1.0624-.0786c.4021-.1407.7183-.4569.859-.859.0786-.2245.0786-.5038.0786-1.0624v-1c.6077-.4558 1.1067-1.0465 1.455-1.73.3018-.5923.4276-1.2325.4872-1.9614.0578-.7078.0578-1.5819.0578-2.6657v-.0001-.0428-1.4201c.8299-.1651 1.5-.8934 1.5-1.8262v-.3136c0-.0372 0-.0559-.0005-.0716-.0166-.5276-.4404-.9514-.968-.968-.0157-.0005-.0344-.0005-.0716-.0005h-.4599v-1-.0438-.0001c0-1.36297 0-2.44696-.0714-3.32152-.0732-.8956-.2263-1.65928-.5826-2.35852-.5752-1.12898-1.4931-2.04686-2.6221-2.6221-.6992-.35628-1.4629-.50934-2.3585-.58252-.8746-.07145-1.9586-.07145-3.3216-.07144h-.0438zm9 10v-1c0-1.41663-.0008-2.41896-.0648-3.20256-.0631-.77192-.1825-1.24309-.3712-1.6134-.3835-.75265-.9954-1.36457-1.748-1.74807-.3703-.18868-.8415-.3081-1.6134-.37117-.7836-.06402-1.786-.0648-3.2026-.0648h-2c-1.4166 0-2.419.00078-3.20256.0648-.77192.06307-1.24309.18249-1.6134.37117-.75265.3835-1.36457.99542-1.74807 1.74807-.18868.37031-.3081.84148-.37117 1.6134-.06402.7836-.0648 1.78593-.0648 3.20256v3h16zm-16 4v.6c0 1.1366.00078 1.9289.05118 2.5458.04944.6051.14161.9528.2758 1.2162.28762.5645.74656 1.0234 1.31105 1.311.26335.1342.61104.2264 1.21621.2758.61684.0504 1.40916.0512 2.54576.0512h5.2c1.1366 0 1.9289-.0008 2.5458-.0512.6051-.0494.9528-.1416 1.2162-.2758.5645-.2876 1.0234-.7465 1.311-1.311.1342-.2634.2264-.6111.2758-1.2162.0504-.6169.0512-1.4092.0512-2.5458v-.6zm2 3c0-.5523.44772-1 1-1h1c.5523 0 1 .4477 1 1s-.4477 1-1 1h-1c-.55228 0-1-.4477-1-1zm11-1c.5523 0 1 .4477 1 1s-.4477 1-1 1h-1c-.5523 0-1-.4477-1-1s.4477-1 1-1z" fill="currentColor" fill-rule="evenodd"/>
</svg>