<svg fill="none" height="28" viewBox="0 0 28 28" width="28" xmlns="http://www.w3.org/2000/svg" xmlns:xlink="http://www.w3.org/1999/xlink"><linearGradient id="a" gradientUnits="userSpaceOnUse" x1="-14" x2="14" y1="14" y2="42"><stop offset="0" stop-color="#ff5263"/><stop offset="1" stop-color="#ff3347"/></linearGradient><path d="m0 14c0-7.73199 6.26801-14 14-14 7.732 0 14 6.26801 14 14 0 7.732-6.268 14-14 14-7.73199 0-14-6.268-14-14z" fill="url(#a)"/><path clip-rule="evenodd" d="m10.6163 7.10017c-.1222-.06536-.2669-.10017-.4606-.10017h-.0614c-.19374 0-.33839.03481-.46062.10017-.12222.06537-.21814.16129-.28351.28351-.06536.12223-.10017.26688-.10017.46065l.00063.2837c-.28648.06626-.50081.15764-.7159.27267-.48889.26146-.87257.64514-1.13403 1.13403-.26146.48887-.4007.97377-.4007 2.31107v4.3084c0 1.3373.13924 1.8222.4007 2.3111s.64514.8725 1.13403 1.134.97382.4007 2.31107.4007h6.3084c1.3373 0 1.8222-.1392 2.3111-.4007s.8725-.6451 1.134-1.134.4007-.9738.4007-2.3111v-4.3084c0-1.3373-.1392-1.8222-.4007-2.31107-.2615-.48889-.6451-.87257-1.134-1.13403-.2149-.1149-.429-.2062-.715-.27245l-.0003-.28392c0-.19377-.0348-.33842-.1002-.46065-.0653-.12222-.1613-.21814-.2835-.28351-.1222-.06536-.2669-.10017-.4606-.10017h-.0614c-.1937 0-.3384.03481-.4606.10017-.1222.06537-.2182.16129-.2835.28351-.0654.12223-.1002.26688-.1002.46065v.15567l-6-.001v-.15467c0-.19377-.0348-.33842-.1002-.46065-.0653-.12222-.1613-.21814-.2835-.28351zm-1.03304 4.64983h8.83344c.2898 0 .3948.0302.5008.0868.1059.0567.189.1398.2457.2457.0566.106.0868.211.0868.5008v4.5142l-.0067.1253c-.0625.5762-.5507 1.0247-1.1458 1.0247l-7.8761-.0173-.159-.0023c-.39418-.0113-.55926-.0636-.72552-.1528-.18703-.1004-.33375-.2474-.43371-.4347-.09997-.1872-.15317-.3729-.15317-.8849v-4.1722l.00184-.1134c.00732-.2064.03642-.2966.08498-.3874.05665-.1059.13978-.189.24571-.2457.10592-.0566.21099-.0868.50073-.0868zm7.45524 1.25h-.577c-.3344 0-.4556.0348-.5778.1002-.1222.0653-.2182.1613-.2835.2835-.0654.1222-.1002.2434-.1002.5778v.577c0 .3344.0348.4556.1002.5778.0653.1222.1613.2182.2835.2835.1222.0654.2434.1002.5778.1002h.577c.3344 0 .4556-.0348.5778-.1002.1222-.0653.2182-.1613.2835-.2835.0654-.1222.1002-.2434.1002-.5778v-.577c0-.3344-.0348-.4556-.1002-.5778-.0653-.1222-.1613-.2182-.2835-.2835-.1222-.0654-.2434-.1002-.5778-.1002z" fill="#fff" fill-rule="evenodd"/></svg>
