<svg xmlns="http://www.w3.org/2000/svg" width="28" height="28" fill="none" viewBox="0 0 28 28"><path fill="currentColor" d="M25 15.4072h-.0019l-.0034 2.5112c-.0408 2.2197-.315 3.1126-.7961 4.0121-.5229.9778-1.2903 1.7452-2.2681 2.2681-.9777.5229-1.9476.8014-4.6222.8014h-6.6166l-.6101-.0053c-2.2197-.0408-3.1126-.315-4.0121-.7961-.9778-.5229-1.7452-1.2903-2.2681-2.2681-.502-.9386-.7787-1.87-.8-4.3093L3 10c.053-2.1604.3263-3.0422.8014-3.9305.523-.9778 1.2903-1.7452 2.268-2.2681.5465-.2922 1.0905-.5081 1.931-.6418L8 2c0-.5523.4477-1 1-1s1 .4477 1 1l-.001 1.007c.2175-.0047.448-.007.6927-.007H15.1c.5523 0 1 .4477 1 1 0 .5128-.3861.9355-.8834.9933L15.1 5l-4.6913.001L10 5.006V6c0 .5523-.4477 1-1 1s-1-.4477-1-1l-.0008-.8075c-.3806.088-.682.2096-.9865.3725-.6293.3365-1.1111.8184-1.4477 1.4477-.3694.6907-.527 1.3649-.5588 2.986L19 9.9996c.5523 0 1 .448 1 1.0003s-.4477 1-1 1H5l.001 5.5913.0088.5688c.0389 1.5072.1981 2.1595.5552 2.8272.3365.6293.8184 1.1112 1.4477 1.4477.7463.3991 1.4732.5511 3.396.5641h7.1826l.5688-.0089c1.5072-.0388 2.1595-.1981 2.8272-.5552.6293-.3365 1.1112-.8184 1.4477-1.4477.3991-.7463.5511-1.4732.5641-3.396L22.999 12l.001.001c0-.5523.4477-1.001 1-1.001.5128 0 .9355.386.9933.8834L25 12v3.4072Z"/><path fill="currentColor" d="M22 1c.5128 0 .9355.386.9933.8834L23 2v2h2c.5128 0 .9355.386.9933.8834L26 5c0 .5128-.386.9355-.8834.9933L25 6h-2v2c0 .5523-.4477 1-1 1-.5128 0-.9355-.386-.9933-.8834L21 8V6h-2c-.5128 0-.9355-.386-.9933-.8834L18 5c0-.5128.386-.9355.8834-.9933L19 4h2V2c0-.5523.4477-1 1-1Zm-1.8953 16.2337C19.8196 17.0812 19.4788 17 19.046 17h-.092c-.4328 0-.7736.0812-1.0587.2337a1.5913 1.5913 0 0 0-.6616.6616c-.1525.2851-.2337.6259-.2337 1.0587v.092c0 .4328.0812.7736.2337 1.0587.1526.2852.3764.509.6616.6616.2851.1525.6259.2337 1.0587.2337h.092c.4328 0 .7736-.0812 1.0587-.2337a1.5913 1.5913 0 0 0 .6616-.6616c.1525-.2851.2337-.6259.2337-1.0587v-.092c0-.4328-.0812-.7736-.2337-1.0587a1.5913 1.5913 0 0 0-.6616-.6616Z"/></svg>
