<svg xmlns="http://www.w3.org/2000/svg" width="28" height="28" fill="none" viewBox="0 0 28 28"><path fill="currentColor" d="M12.587 3h2.826c.469-.0002.822-.0003 1.161.0582a4.0001 4.0001 0 0 1 2.2234 1.1899c.2366.2496.4323.5434.6923.9337l.1279.1918c.1289.1934.156.2319.1802.2614a1 1 0 0 0 .6728.36c.038.0039.085.005.3175.005h.0895c.5747-.0001.981-.0002 1.3383.0573 1.9159.3087 3.4181 1.811 3.7268 3.7269.0576.3573.0575.7635.0573 1.3382v5.2526c0 .5523-.4477 1-1 1s-1-.4477-1-1v-5.1631c0-.7002-.0032-.9319-.0318-1.1096a2.5 2.5 0 0 0-2.0705-2.0704C21.7201 8.0032 21.4884 8 20.7881 8h-.0365c-.1758.0001-.3298.0002-.4806-.015a2.9999 2.9999 0 0 1-2.0182-1.08c-.0962-.117-.1816-.2453-.279-.3915l-.1058-.1588c-.3209-.4813-.4182-.6211-.5221-.7306a1.9998 1.9998 0 0 0-1.1116-.595c-.1488-.0256-.3191-.029-.8976-.029h-2.6733c-.5785 0-.7489.0034-.8976.029a2.0004 2.0004 0 0 0-1.1117.595c-.1038.1095-.2011.2493-.522.7306l-.1058.1586c-.0974.1464-.1828.2746-.279.3916A3 3 0 0 1 7.729 7.9851C7.5783 8 7.4243 8 7.2484 8H7.212c-.7002 0-.932.0031-1.1096.0318a2.5 2.5 0 0 0-2.0704 2.0704C4.0032 10.28 4 10.5117 4 11.2119V16c0 1.4167.0008 2.419.0648 3.2026.0631.7719.1825 1.2431.3712 1.6134a4.0004 4.0004 0 0 0 1.748 1.7481c.3704.1886.8415.3081 1.6135.3711C8.581 22.9993 9.5834 23 11 23h4.5313c.5523 0 1 .4478 1 1 0 .5523-.4477 1-1 1h-4.5751c-1.363 0-2.447 0-3.3216-.0714-.8956-.0732-1.6593-.2262-2.3585-.5825A6.0007 6.0007 0 0 1 2.654 21.724c-.3563-.6993-.5093-1.4629-.5825-2.3585C2 18.4909 2 17.4068 2 16.0438v-4.9214c-.0001-.5747-.0002-.9809.0573-1.3382.3087-1.916 1.811-3.4182 3.7269-3.7269C6.1415 5.9998 6.5477 6 7.1224 6h.0895c.2325 0 .2795-.0011.3175-.005a1 1 0 0 0 .6728-.36c.0243-.0295.0513-.068.1803-.2614l.1278-.1918c.26-.3903.4557-.684.6924-.9337a4 4 0 0 1 2.2233-1.19c.3391-.0584.692-.0583 1.161-.058Z"/><path fill="currentColor" d="M22 18.0001c.5523 0 1 .4477 1 1v2h2c.5523 0 1 .4477 1 1 0 .5522-.4477 1-1 1h-2v2c0 .5522-.4477 1-1 1s-1-.4478-1-1v-2h-2c-.5523 0-1-.4478-1-1 0-.5523.4477-1 1-1h2v-2c0-.5523.4477-1 1-1Z"/><path fill="currentColor" fill-rule="evenodd" d="M19.25 14.7501c0 2.8995-2.3505 5.25-5.25 5.25s-5.25-2.3505-5.25-5.25 2.3505-5.25 5.25-5.25 5.25 2.3505 5.25 5.25Zm-2 0c0 1.7949-1.4551 3.25-3.25 3.25s-3.25-1.4551-3.25-3.25c0-1.795 1.4551-3.25 3.25-3.25s3.25 1.455 3.25 3.25Z" clip-rule="evenodd"/></svg>
