<svg fill="none" height="28" viewBox="0 0 28 28" width="28" xmlns="http://www.w3.org/2000/svg"><g fill="currentColor"><path d="m11.1478 5.24539c-.2458.12349-.4195.26558-.6.50461-.3329.44073-.95707.47283-1.3978.14s-.48283-.94927-.15-1.39c.29289-.38784.63937-.73492 1.2497-1.04165.6025-.30277 1.3378-.45835 2.2609-.45835h2.7971c1.1635 0 2.0316.20788 2.7075.60856.6789.40255 1.0556.93939 1.3203 1.3438l.0867.13298c.2284.35054.3386.5198.5147.6569.1436.11183.4149.25776 1.0737.25776h.4893c2.4853 0 4.5 2.01472 4.5 4.5v9.8c0 .5523-.4477 1.08-1 1.08s-1-.5277-1-1.08v-9.8c0-1.38071-1.1193-2.5-2.5-2.5h-.5l-.0072-.00003c-.9755-.00276-1.7093-.23178-2.2846-.67971-.4628-.36036-.7659-.83498-.969-1.15291-.0275-.04299-.0531-.08312-.0771-.11971-.2262-.34559-.397-.55876-.6668-.7187-.2729-.16182-.7548-.32894-1.6875-.32894h-2.7971c-.7007 0-1.1092.11793-1.3628.24539z"/><path d="m14.432 10.3932c.1785-.52263.7468-.80169 1.2695-.62327 1.5371.52477 2.7518 1.73987 3.2757 3.27737.1782.5228-.1011 1.091-.6239 1.2692-.5228.1781-1.091-.1012-1.2691-.624-.3241-.9509-1.0782-1.7053-2.0289-2.0298-.5226-.1784-.8017-.7468-.6233-1.2695z"/><path clip-rule="evenodd" d="m2.83863 7.98206c.35376-.53275.82258-.98371 1.40898-1.32014-.00272-.00272-.0054-.00544-.00805-.00815l-.94667-.94666c-.39052-.39053-.39052-1.02369 0-1.41422.39053-.39052 1.02369-.39052 1.41422 0l19.99999 20.00001c.3905.3905.3905 1.0237 0 1.4142-.1953.1953-.4512.2929-.7072.2929-.05 0-.0999-.0037-.1495-.0112-.2041-.0307-.4005-.1246-.5576-.2817l-1.1875-1.1875c-.9144.3296-1.9547.4804-3.0976.4804-.1321 0-.554.0005-1.1549.0013h-.004c-2.5385.0033-8.25936.0106-8.85216-.0013-3.26774-.0027-5.13708-1.2017-6.10198-2.8594-.88561-1.5214-.88492-3.2476-.88458-4.093l.00001-.0476c0-.1591-.00111-.5782-.0026-1.1379-.00498-1.8761-.01417-5.3327.0003-5.8769.00215-1.00793.22415-2.08949.83084-3.00314zm6.53149 4.28274c.05588-.1043.1276-.1947.21061-.2698l-3.82231-3.82228c-.60605.19224-.99522.52648-1.25366.91569-.33165.49945-.49699 1.16779-.49699 1.91159v.0155l-.00048.0155c-.01392.4488-.00506 3.8099-.00001 5.7251l.00001.0013c.00159.6034.0028 1.063.0028 1.2426 0 .8734.01682 2.1102.61307 3.1345.53282.9154 1.65916 1.8655 4.38456 1.8655h.01194l.01193.0003c.48709.0116 6.13741.0044 8.73431.0011h.0012c.6411-.0008 1.0959-.0014 1.2406-.0014.541 0 1.0274-.0399 1.4631-.1149l-3.7201-3.7201c-.0756.0839-.1667.1564-.272.2128-.7386.395-1.5822.6186-2.4752.6186-2.9015 0-5.25359-2.3521-5.25359-5.2536 0-.8941.22417-1.7388.62021-2.478zm1.65228 1.1719 4.2872 4.2872c-.3988.1751-.84.2725-1.3061.2725-1.7969 0-3.2536-1.4567-3.2536-3.2536 0-.466.0974-.9072.2725-1.3061z" fill-rule="evenodd"/></g></svg>
