<svg fill="none" height="28" viewBox="0 0 28 28" width="28" xmlns="http://www.w3.org/2000/svg" xmlns:xlink="http://www.w3.org/1999/xlink"><linearGradient id="a" gradientUnits="userSpaceOnUse" x1="-14" x2="14" y1="14" y2="42"><stop offset="0" stop-color="#50c750"/><stop offset="1" stop-color="#32b332"/></linearGradient><rect fill="url(#a)" height="28" rx="14" width="28"/><path d="m15.5 7.75c1.5 0 1.4167 1.77 3 1.77l-.0257-.00084c.626.04122.9354.14824 1.2468.31476.4074.21788.7271.53758.945.94498.2179.4075.3339.8116.3339 1.926v4.0902c0 1.1144-.116 1.5186-.3339 1.926s-.5376.7271-.945.945-.8116.3339-1.926.3339h-7.5902c-1.11444 0-1.51855-.116-1.92596-.3339-.4074-.2179-.72714-.5376-.94502-.945-.21789-.4074-.33392-.8116-.33392-1.926v-4.0902c0-1.1144.11603-1.5185.33392-1.926.21788-.4074.53762-.7271.94502-.94498.30871-.1651.61551-.27172 1.23087-.31369.01728-.00023.04389-.00075.07002-.00177.01544-.00355.03464-.00461.05413-.0056 1.44584-.0967 1.41074-1.76286 2.86604-1.76286zm-1.5 3c-2.0711 0-3.75 1.6789-3.75 3.75s1.6789 3.75 3.75 3.75 3.75-1.6789 3.75-3.75-1.6789-3.75-3.75-3.75zm0 1.5c1.2426 0 2.25 1.0074 2.25 2.25s-1.0074 2.25-2.25 2.25-2.25-1.0074-2.25-2.25 1.0074-2.25 2.25-2.25z" fill="#fff"/></svg>