<svg xmlns="http://www.w3.org/2000/svg" width="28" height="28" fill="currentColor" viewBox="0 0 28 28"><path fill-rule="evenodd" d="M12.587 3h2.826c.469 0 .822 0 1.161.058a4 4 0 0 1 2.223 1.19c.237.25.433.543.693.934l.042.063.086.129c.129.193.156.232.18.261a1 1 0 0 0 .673.36c.038.004.085.005.317.005h.09c.574 0 .98 0 1.338.057a4.5 4.5 0 0 1 3.727 3.727c.057.357.057.764.057 1.338v5.214a.994.994 0 0 1-.003.083 31.33 31.33 0 0 1-.052 1.722c-.056.844-.171 1.573-.44 2.235a1 1 0 1 1-1.853-.752c.152-.376.248-.861.297-1.615C24 17.25 24 16.299 24 15v-3.788c0-.7-.003-.932-.032-1.11a2.5 2.5 0 0 0-2.07-2.07c-.178-.029-.41-.032-1.11-.032h-.036c-.176 0-.33 0-.481-.015a3 3 0 0 1-2.018-1.08 4.817 4.817 0 0 1-.28-.392l-.02-.03-.085-.128c-.32-.482-.418-.621-.522-.731a2 2 0 0 0-1.112-.595c-.149-.026-.319-.029-.897-.029h-2.674c-.578 0-.748.003-.897.03a2 2 0 0 0-1.112.594 1.47 1.47 0 0 0-.091.108 1 1 0 0 1-1.576-1.233 4 4 0 0 1 2.439-1.441C11.766 3 12.118 3 12.587 3ZM3.293 4.293a1 1 0 0 1 1.414 0l20 20a1 1 0 1 1-1.414 1.414L21.586 24h-10.63c-1.363 0-2.447 0-3.321-.071-.896-.074-1.66-.227-2.359-.583a6 6 0 0 1-2.622-2.622c-.356-.7-.51-1.463-.583-2.358C2 17.49 2 16.405 2 15.044v-3.922c0-.574 0-.98.057-1.338a4.5 4.5 0 0 1 2.154-3.159l-.918-.918a1 1 0 0 1 0-1.414Zm2.42 3.834a2.5 2.5 0 0 0-1.681 1.975c-.029.178-.032.41-.032 1.11V15c0 1.417 0 2.419.065 3.203.063.771.182 1.243.371 1.613a4 4 0 0 0 1.748 1.748c.37.189.842.308 1.613.371C8.581 22 9.583 22 11 22h8.586l-3.47-3.47a5 5 0 0 1-6.648-6.648L5.714 8.128Zm5.335 5.335a3 3 0 0 0 3.49 3.49l-3.49-3.49Zm2.701-3.577a1 1 0 0 1 1.166-.801 5.004 5.004 0 0 1 4.006 4.026 1 1 0 1 1-1.968.354 3.004 3.004 0 0 0-2.402-2.414 1 1 0 0 1-.802-1.165Z" clip-rule="evenodd"/></svg>
