<?xml version="1.0" encoding="UTF-8"?>
<svg width="28px" height="28px" viewBox="0 0 28 28" version="1.1" xmlns="http://www.w3.org/2000/svg" xmlns:xlink="http://www.w3.org/1999/xlink">
    <!-- Generator: Sketch 63.1 (92452) - https://sketch.com -->
    <title>camera_outline_28</title>
    <desc>Created with Sketch.</desc>
    <g id="Page-1" stroke="none" stroke-width="1" fill="none" fill-rule="evenodd">
        <g id="camera_outline_28">
            <rect x="0" y="0" width="28" height="28"></rect>
            <path d="M15.6972244,2 C16.2173981,2 16.6903271,2.06481548 17.1273873,2.2017662 C17.5847765,2.34508691 17.9978951,2.5661813 18.370859,2.86725207 C18.7272463,3.15494154 19.0435098,3.51248908 19.3320503,3.9452998 L19.597791,4.34250782 L19.7317836,4.53153388 C19.8286075,4.66130328 19.8936882,4.72903049 19.9671379,4.78975508 C20.0537301,4.86134529 20.1402638,4.9076567 20.2478632,4.93999472 C20.375639,4.97839658 20.505736,4.99553673 20.8248722,4.99922174 L21.0431142,5.00092985 C22.2354866,5.05238589 22.914325,5.21632076 23.6299211,5.59902569 C24.3908562,6.00597827 24.9940217,6.60914378 25.4009743,7.37007895 C25.8456141,8.20148308 26,9.00095885 26,10.6149935 L26,16.590287 C26,18.7732933 25.7972872,19.8230261 25.2139814,20.9137131 C24.6850139,21.9027964 23.9027964,22.6850139 22.9137131,23.2139814 C21.8230261,23.7972872 20.7732933,24 18.590287,24 L9.409713,24 C7.22670673,24 6.1769739,23.7972872 5.08628688,23.2139814 C4.09720359,22.6850139 3.31498609,21.9027964 2.78601856,20.9137131 C2.23341307,19.8804307 2.02239246,18.8839049 2.00171053,16.9257256 L2.00171053,10.321701 C2.02043204,8.90089966 2.18217588,8.14952032 2.59902569,7.37007895 C3.00597827,6.60914378 3.60914378,6.00597827 4.37007895,5.59902569 C5.06097837,5.22952863 5.71673331,5.06517657 6.82134669,5.01598951 L6.90965733,5.00405118 L7,5 L7.17512783,4.99922174 C7.49426399,4.99553673 7.62436095,4.97839658 7.75213682,4.93999472 C7.85973622,4.9076567 7.94626988,4.86134529 8.03286215,4.78975508 C8.13569173,4.70474066 8.222118,4.60600108 8.40220901,4.34250782 L8.66794971,3.9452998 C8.95649019,3.51248908 9.27275373,3.15494154 9.62914099,2.86725207 C10.0021049,2.5661813 10.4152235,2.34508691 10.8726127,2.2017662 C11.3096729,2.06481548 11.7826019,2 12.3027756,2 L15.6972244,2 Z M15.6972244,4 L12.3027756,4 C11.9760889,4 11.7031578,4.03740553 11.4706321,4.11026635 C11.2528177,4.17851746 11.0629977,4.28010602 10.8853876,4.42347969 C10.6957817,4.57653685 10.5132635,4.78288041 10.3320503,5.0547002 L10.0283209,5.50714733 C9.75728908,5.89870044 9.56254227,6.12009905 9.30723301,6.33117615 C9.01500724,6.57277399 8.69090215,6.74622977 8.32778291,6.85536194 C7.9887169,6.95726512 7.67821481,6.99506753 7.14124395,6.99954011 L7.0874479,7.00579973 L6.81753033,7.01830204 C6.06506084,7.05672853 5.70827984,7.15140207 5.31327667,7.36265208 C4.90087845,7.58320506 4.58320506,7.90087845 4.36265208,8.31327667 C4.09415231,8.81532759 4,9.30288827 4,10.6149935 L4,16.590287 C4,18.4713639 4.14247918,19.2091816 4.54964496,19.9705154 C4.89221289,20.6110617 5.38893826,21.1077871 6.0294846,21.450355 C6.71067802,21.8146613 7.37304553,21.9670716 8.85233093,21.9951213 L9.409713,22 L18.590287,22 L19.1476691,21.9951213 C20.6269545,21.9670716 21.289322,21.8146613 21.9705154,21.450355 C22.6110617,21.1077871 23.1077871,20.6110617 23.450355,19.9705154 C23.8146613,19.289322 23.9670716,18.6269545 23.9951213,17.1476691 L24,16.590287 L24,10.6149935 L23.99543,10.1599659 C23.9737377,9.18077169 23.8722852,8.75257123 23.6373479,8.31327667 C23.4167949,7.90087845 23.0991216,7.58320506 22.6867233,7.36265208 C22.2558982,7.13224429 21.8670883,7.03834933 21,7 L20.7578381,6.99825441 C20.2817048,6.98993686 19.989464,6.95070758 19.6722171,6.85536194 C19.3090979,6.74622977 18.9849928,6.57277399 18.692767,6.33117615 C18.4374577,6.12009905 18.2427109,5.89870044 17.9716791,5.50714733 L17.6679497,5.0547002 C17.4867365,4.78288041 17.3042183,4.57653685 17.1146124,4.42347969 C16.9370023,4.28010602 16.7471823,4.17851746 16.5293679,4.11026635 C16.2968422,4.03740553 16.0239111,4 15.6972244,4 Z M14,8.5 C16.8997457,8.5 19.25,10.8502543 19.25,13.75 C19.25,16.6497457 16.8997457,19 14,19 C11.1002543,19 8.75,16.6497457 8.75,13.75 C8.75,10.8502543 11.1002543,8.5 14,8.5 Z M14,10.5 C12.2048238,10.5 10.75,11.9548238 10.75,13.75 C10.75,15.5451762 12.2048238,17 14,17 C15.7951762,17 17.25,15.5451762 17.25,13.75 C17.25,11.9548238 15.7951762,10.5 14,10.5 Z" id="↳-Icon-Color" fill="currentColor" fill-rule="nonzero"></path>
        </g>
    </g>
</svg>
