<svg fill="none" height="28" width="28" xmlns="http://www.w3.org/2000/svg"><path clip-rule="evenodd" d="M14.516 1.502c-.35-.05-.682-.05-1.032 0-.31.044-.575.112-1.108.286L5.368 4.123A2 2 0 004 6.021V15.3c0 4.902 3.007 8.629 8.826 11.102a3 3 0 002.348 0l.368-.16C21.122 23.767 24 20.094 24 15.3V6.02a2 2 0 00-1.367-1.897l-6.82-2.273c-.664-.221-.952-.299-1.297-.348zm-.75 1.98a1.58 1.58 0 01.468 0l.121.02c.147.03.326.081.668.194L22 6.02V15.3c0 3.926-2.36 6.936-7.262 9.111l-.354.154a.996.996 0 01-.775-.003C8.47 22.378 6 19.316 6 15.3V6.02l6.82-2.273c.558-.186.747-.236.946-.265zm-2.559 6.31a1 1 0 00-1.414 1.415L12.586 14l-2.793 2.793a1 1 0 101.414 1.414L14 15.414l2.793 2.793a1 1 0 001.414-1.414L15.414 14l2.793-2.793a1 1 0 00-1.414-1.414L14 12.586z" fill="currentColor" fill-rule="evenodd"/></svg>
