<svg fill="none" height="28" viewBox="0 0 28 28" width="28" xmlns="http://www.w3.org/2000/svg" xmlns:xlink="http://www.w3.org/1999/xlink"><linearGradient id="a" gradientUnits="userSpaceOnUse" x1="-14" x2="14" y1="14" y2="42"><stop offset="0" stop-color="#ff5263"/><stop offset="1" stop-color="#ff3347"/></linearGradient><path d="m0 14c0-7.73199 6.26801-14 14-14 7.732 0 14 6.26801 14 14 0 7.732-6.268 14-14 14-7.73199 0-14-6.268-14-14z" fill="url(#a)"/><path clip-rule="evenodd" d="m9.29289 10.7071c-.39052-.3905-.39052-1.02368 0-1.41421.39053-.39052 1.02371-.39052 1.41421 0l3.2929 3.29291 3.2929-3.29291c.3905-.39052 1.0237-.39052 1.4142 0 .3905.39053.3905 1.02371 0 1.41421l-3.2929 3.2929 3.2929 3.2929c.3905.3905.3905 1.0237 0 1.4142s-1.0237.3905-1.4142 0l-3.2929-3.2929-3.2929 3.2929c-.3905.3905-1.02368.3905-1.41421 0-.39052-.3905-.39052-1.0237 0-1.4142l3.29291-3.2929z" fill="#fff" fill-rule="evenodd"/></svg>
