<svg xmlns="http://www.w3.org/2000/svg" width="28" height="28" fill="currentColor" viewBox="0 0 28 28"><path fill-rule="evenodd" d="M9.293 11.293a1 1 0 0 1 1.414 0l.707.707h5.172l.707-.707a1 1 0 0 1 1.414 1.414l-.707.707v5.172l.707.707a1 1 0 0 1-1.414 1.414L16.586 20h-5.172l-.707.707a1 1 0 1 1-1.414-1.414l.707-.707v-5.172l-.707-.707a1 1 0 0 1 0-1.414ZM12 14v4h4v-4h-4Z M6.568 2h1.864c.252 0 .498 0 .706.017.229.019.499.063.77.201a2 2 0 0 1 .874.874c.138.271.182.541.201.77.017.208.017.454.017.706v.282l.702-.316c4.096-1.843 6.144-2.765 7.798-2.472a5.45 5.45 0 0 1 3.554 2.298C24 5.75 24 7.995 24 12.486V16.4c0 3.36 0 5.04-.654 6.324a6 6 0 0 1-2.622 2.622C19.44 26 17.76 26 14.4 26h-.8c-3.36 0-5.04 0-6.324-.654a6 6 0 0 1-2.622-2.622C4 21.44 4 19.76 4 16.4V4.568c0-.252 0-.498.017-.706a2.03 2.03 0 0 1 .201-.77 2 2 0 0 1 .874-.874 2.03 2.03 0 0 1 .77-.201C6.07 2 6.316 2 6.568 2ZM6 9.293V16.4c0 1.713.002 2.878.075 3.778.072.877.202 1.325.361 1.638a4 4 0 0 0 1.748 1.748c.313.16.761.29 1.638.36.9.075 2.065.076 3.778.076h.8c1.713 0 2.878-.002 3.778-.075.877-.072 1.325-.202 1.638-.36a4 4 0 0 0 1.748-1.749c.16-.313.29-.761.36-1.638.074-.9.076-2.065.076-3.778v-3.914c0-2.284-.002-3.86-.11-5.045-.108-1.182-.303-1.682-.489-1.955a3.45 3.45 0 0 0-2.25-1.454c-.324-.058-.86-.03-1.983.356-1.124.388-2.562 1.033-4.646 1.97L6 9.293ZM6 7.1V4.6c0-.296 0-.459.01-.575l.001-.014h.014C6.14 4 6.303 4 6.6 4h1.8c.297 0 .459 0 .575.01l.014.001v.014C9 4.14 9 4.304 9 4.6v1.15L6 7.1Z" clip-rule="evenodd"/></svg>
