<svg fill="none" height="28" viewBox="0 0 28 28" width="28" xmlns="http://www.w3.org/2000/svg"><path clip-rule="evenodd" d="m6 17 .00001-3v-3.7069l7.53779-3.39198c1.9142-.86139 3.2257-1.44939 4.2483-1.80181 1.0211-.35193 1.4807-.36584 1.7369-.32047.7959.14091 1.5012.59695 1.9562 1.26485.1466.21505.3225.63983.4206 1.71548.0982 1.07714.1002 2.51443.1002 4.61353v4.6273c0 1.4331-.0016 2.3877-.0615 3.1211-.058.7101-.1606 1.035-.2655 1.2408-.2876.5645-.7465 1.0235-1.311 1.3111-.2059.1049-.5308.2075-1.2409.2655-.7334.0599-1.688.0615-3.1211.0615h-4c-1.4331 0-2.3877-.0016-3.12113-.0615-.71007-.058-1.035-.1606-1.24084-.2655-.56449-.2876-1.02343-.7466-1.31105-1.3111-.10488-.2058-.20749-.5307-.2655-1.2408-.05992-.7334-.06148-1.688-.06148-3.1211zm.00001-8.90004 3-1.35v-.64999c0-.29652-.00078-.45878-.01031-.57536l-.00114-.01319-.01319-.00114c-.11658-.00953-.27884-.01031-.57536-.01031h-1.8c-.29653 0-.45879.00078-.57537.01031l-.01319.00114-.00114.01319c-.00953.11658-.0103.27884-.0103.57536zm4.99959-2.24982 1.7175-.77286c3.7578-1.69104 5.6368-2.53656 7.1546-2.26781 1.3264.23484 2.5019.99491 3.2603 2.10808.868 1.27388.868 3.33429.868 7.45515v4.6273c0 2.8002 0 4.2004-.545 5.2699-.4793.9408-1.2442 1.7057-2.185 2.1851-1.0696.545-2.4697.545-5.27.545h-4c-2.80026 0-4.20039 0-5.26995-.545-.94081-.4794-1.70572-1.2443-2.18508-2.1851-.54497-1.0695-.54497-2.4697-.54497-5.2699v-8.00003l.00001-.00001v-2.89999l-.00001-.03189v-.00002c-.00003-.25237-.00006-.49816.01695-.70632.01868-.22859.06274-.49832.20104-.76975.19175-.37632.49771-.68228.87403-.87403.27143-.1383.54116-.18236.76976-.20104.20815-.01701.45394-.01698.70631-.01695h.00002.0319 1.8.03189.00002c.25237-.00003.49816-.00006.70632.01695.22859.01868.49832.06274.76975.20104.37631.19175.68231.49771.87401.87403.1383.27143.1824.54116.2011.76975.012.14758.0155.31406.0165.4884zm-1.70671 5.44276c.39053-.3906 1.02371-.3906 1.41421 0l.7071.7071h5.1716l.7071-.7071c.3905-.3906 1.0237-.3906 1.4142 0 .3905.3905.3905 1.0237 0 1.4142l-.7071.7071v5.1716l.7071.7071c.3905.3905.3905 1.0237 0 1.4142s-1.0237.3905-1.4142 0l-.7071-.7071h-5.1716l-.7071.7071c-.3905.3905-1.02368.3905-1.41421 0-.39052-.3905-.39052-1.0237 0-1.4142l.70711-.7071v-5.1716l-.70711-.7071c-.39052-.3905-.39052-1.0237 0-1.4142zm2.70711 2.7071v4h4v-4z" fill="currentColor" fill-rule="evenodd"/></svg>
