<svg xmlns="http://www.w3.org/2000/svg" width="28" height="28" fill="currentColor" viewBox="0 0 28 28"><path fill-rule="evenodd" d="M11.285 5h5.43c1.27 0 2.148 0 2.943.273a5 5 0 0 1 1.868 1.155c.601.588.993 1.373 1.561 2.51l.076.153.955 1.909H25.5a1 1 0 0 1 1 1v.354A1.86 1.86 0 0 1 25 14.18v8.122c0 .106 0 .238-.01.355-.01.137-.04.339-.148.551a1.45 1.45 0 0 1-.634.634 1.455 1.455 0 0 1-.551.149c-.117.01-.25.01-.355.009h-.604c-.106 0-.238 0-.355-.01a1.455 1.455 0 0 1-.551-.148 1.45 1.45 0 0 1-.634-.634 1.454 1.454 0 0 1-.149-.551c-.01-.117-.009-.25-.009-.355V22H7v.302c0 .106 0 .238-.01.355-.01.137-.04.339-.148.551a1.45 1.45 0 0 1-.634.634 1.455 1.455 0 0 1-.551.149c-.117.01-.25.01-.355.009h-.604c-.106 0-.238 0-.355-.01a1.455 1.455 0 0 1-.551-.148 1.45 1.45 0 0 1-.634-.634 1.457 1.457 0 0 1-.149-.551C3 22.54 3 22.407 3 22.302V14.18a1.86 1.86 0 0 1-1.5-1.826V12a1 1 0 0 1 1-1h1.382l.955-1.91.076-.152c.568-1.137.96-1.922 1.56-2.51a5 5 0 0 1 1.869-1.155C9.137 5 10.014 5 11.285 5ZM5.017 19.504c-.015-.18-.017-.413-.017-.775V14.02c.071.014.16.03.266.046.321.05.812.116 1.518.18 1.412.128 3.693.254 7.216.254s5.804-.126 7.215-.254c.707-.064 1.198-.13 1.52-.18L23 14.02v4.58c0 .436 0 .704-.017.904a1.285 1.285 0 0 1-.034.215l-.004.008a.5.5 0 0 1-.218.218l-.005.002-.003.002a1.292 1.292 0 0 1-.216.034c-.2.016-.466.017-.903.017H6.4c-.437 0-.704 0-.904-.017a1.29 1.29 0 0 1-.215-.034l-.008-.004a.5.5 0 0 1-.219-.218s0-.003-.003-.008a1.281 1.281 0 0 1-.034-.215Zm17.41-7.414-1.052-2.105c-.675-1.349-.917-1.804-1.248-2.128a3 3 0 0 0-1.12-.693c-.439-.15-.954-.164-2.462-.164h-5.09c-1.508 0-2.024.013-2.461.164a3 3 0 0 0-1.121.693c-.33.324-.573.779-1.248 2.128L5.573 12.09h.005c.272.043.719.103 1.388.164 1.338.122 3.557.246 7.034.246s5.696-.124 7.035-.246c.668-.06 1.115-.12 1.387-.164h.005Zm-2.303 5.902a1 1 0 0 0-.248-1.984l-2 .25a1 1 0 0 0 .248 1.984l2-.25ZM7.008 16.876a1 1 0 0 0 .868 1.116l2 .25a1 1 0 0 0 .248-1.984l-2-.25a1 1 0 0 0-1.116.868Z" clip-rule="evenodd"/></svg>
