<svg fill="none" height="28" viewBox="0 0 28 28" width="28" xmlns="http://www.w3.org/2000/svg"><path clip-rule="evenodd" d="m11.2846 4.99998.1708.00005h5.0892l.1707-.00005c1.2703-.00052 2.1479-.00088 2.9429.27332.7006.24166 1.3388.63606 1.8682 1.15464.6008.58842.993 1.37353 1.5606 2.50997l.0763.15274.9547 1.90935h1.382c.5523 0 1 .4477 1 1v.3537c0 .9328-.6701 1.6611-1.5 1.8262v3.8201 2.2.0232.049 2.0078.0217c.0001.1062.0001.2382-.0094.3553-.0112.1369-.0403.3387-.1486.5513-.139.2729-.3609.4947-.6337.6337-.2126.1083-.4144.1374-.5513.1486-.1171.0095-.2491.0095-.3553.0094h-.0217-.56-.0217c-.1062.0001-.2382.0001-.3553-.0094-.1369-.0112-.3387-.0403-.5513-.1486-.2728-.139-.4946-.3608-.6336-.6337-.1084-.2126-.1375-.4144-.1486-.5513-.0096-.1171-.0095-.2491-.0095-.3553v-.0217-.28h-13.99999v.28l.00001.0217v.0001c.00005.1061.00011.2381-.00946.3552-.01118.1369-.04026.3387-.14859.5513-.13901.2729-.36084.4947-.63367.6337-.2126.1083-.41442.1374-.5513.1486-.11708.0095-.24909.0095-.35528.0094h-.02171-.56-.0217c-.10619.0001-.2382.0001-.35529-.0094-.13688-.0112-.33869-.0403-.55129-.1486-.27284-.139-.49466-.3608-.63368-.6337-.10832-.2126-.1374-.4144-.14858-.5513-.00957-.1171-.00951-.2491-.00946-.3553v-.0217-1.9315-.0468-.0217-1.4959l-.00004-.148v-4.4562c-.82991-.1651-1.49997-.8934-1.49997-1.8262v-.3537c0-.5523.44772-1 1-1h1.38194l.95469-1.90935.07632-.15275v-.00001c.56764-1.13643.95979-1.92154 1.56056-2.50995.52948-.51858 1.16762-.91298 1.86824-1.15464.79497-.2742 1.67255-.27384 2.94285-.27332zm-6.26751 14.50382c-.01466-.1794-.01679-.4131-.01708-.7746v-1.7292h-.00004v-2.9794c.07137.0132.15947.0285.26593.0453.32149.0508.8123.1158 1.51856.18 1.41179.1284 3.69284.2541 7.21554.2541s5.8037-.1257 7.2155-.2541c.7063-.0642 1.1971-.1292 1.5186-.18.1064-.0168.1945-.0321.2659-.0453v4.5794c0 .4366-.0008.7038-.0171.9038-.0077.0931-.0172.1495-.0253.1837-.0038.0163-.007.0263-.009.0317-.0018.0052-.0029.0074-.0031.0078-.048.0941-.1245.1706-.2185.2185-.0003.0002-.0016.0009-.0045.002l-.0033.0012c-.0054.0019-.0154.0051-.0317.009-.0343.008-.0906.0176-.1838.0252-.1999.0164-.4672.0171-.9037.0171h-15.20003c-.43654 0-.7038-.0007-.90376-.0171-.09315-.0076-.14951-.0172-.18374-.0252-.01628-.0039-.02629-.0071-.03171-.009-.0052-.0019-.00738-.003-.00778-.0032-.09408-.0479-.17057-.1244-.21851-.2185-.00021-.0004-.00132-.0026-.00317-.0078-.00193-.0054-.00515-.0154-.00898-.0317-.00806-.0342-.01762-.0906-.02523-.1837zm17.40971-7.4141-1.0523-2.10462c-.6746-1.34909-.9168-1.80445-1.2475-2.1283-.3177-.31115-.7006-.54779-1.1209-.69279-.4376-.15091-.9532-.16396-2.4615-.16396h-5.0892c-1.50833 0-2.02397.01305-2.4615.16396-.42038.145-.80326.38164-1.12095.69279-.33066.32385-.57292.77921-1.24747 2.1283l-1.05228 2.10462c.00153.0002.00308.0004.00463.0007.27226.043.71896.1029 1.3877.1637 1.3382.1217 3.55717.2459 7.03447.2459s5.6963-.1242 7.0345-.2459c.6687-.0608 1.1154-.1207 1.3877-.1637.0015-.0003.003-.0005.0046-.0007zm-1.3028 5.9026c.548-.0685.9368-.5683.8683-1.1163s-.5683-.9368-1.1164-.8683l-2 .25c-.548.0685-.9367.5683-.8682 1.1163.0685.5481.5683.9368 1.1163.8683zm-15.11626-1.1163c-.0685.548.32022 1.0478.86824 1.1163l2 .25c.54802.0685 1.04781-.3202 1.11631-.8683.06851-.548-.32022-1.0478-.86824-1.1163l-2-.25c-.54802-.0685-1.04781.3203-1.11631.8683z" fill="currentColor" fill-rule="evenodd"/></svg>
