<svg xmlns="http://www.w3.org/2000/svg" width="28" height="28" fill="none" viewBox="0 0 28 28"><path fill="currentColor" fill-rule="evenodd" d="m9.1982 5.4474-2.9761.528c-1.6547.2935-2.4821.4403-3.057.8745A3.0007 3.0007 0 0 0 2.103 8.3702c-.21.6891-.0631 1.5165.2304 3.1712L4.151 21.7857c.2936 1.6547.4404 2.4821.8745 3.057.382.5057.9141.8775 1.5203 1.0621.6891.2099 1.5165.0631 3.1712-.2304l5.0223-.8911c.8042-.1426 1.4129-.2506 1.8923-.3738l-3.8247-.6744c-.7666-.1351-1.4564-.2567-2.0221-.4048-.6057-.1586-1.2387-.3874-1.8213-.8264a5.0011 5.0011 0 0 1-1.7729-2.5319c-.2133-.6976-.2118-1.3707-.1536-1.9942.0543-.5822.176-1.2719.3111-2.0385L9.1347 5.8071l.0636-.3597Z M11.0921 6.2256c.2918-1.655.4378-2.4825.8713-3.0579a3.001 3.001 0 0 1 1.5192-1.0637c.6889-.2106 1.5164-.0647 3.1715.2271l5.1288.9044c1.655.2918 2.4826.4377 3.0579.8713a3.0001 3.0001 0 0 1 1.0637 1.5191c.2107.689.0647 1.5165-.2271 3.1715l-1.7615 9.99c-.2918 1.655-.4377 2.4826-.8713 3.0579a2.9998 2.9998 0 0 1-1.5191 1.0637c-.689.2107-1.5165.0647-3.1715-.2271l-5.1289-.9043c-1.655-.2919-2.4825-.4378-3.0579-.8713a3.001 3.001 0 0 1-1.0637-1.5192c-.2106-.6889-.0647-1.5165.2271-3.1715l1.7615-9.99Z"/></svg>
