<svg fill="none" height="28" viewBox="0 0 28 28" width="28" xmlns="http://www.w3.org/2000/svg"><g clip-rule="evenodd" fill="currentColor" fill-rule="evenodd"><path d="m9.00845 6.4983c.09725.55143-.26567 1.07823-.8106 1.17664-1.87992.3395-2.57579.52589-3.03808.8784-.50711.3867-.88024.92592-1.06589 1.54036-.08661.2867-.11708.6502-.06056 1.2634.05762.625.19475 1.4165.39256 2.5517l.90503 5.1939c.19782 1.1352.33648 1.9264.49359 2.5337.15413.5957.30562.9268.4839 1.1662.38214.5131.91502.8907 1.52225 1.0786.2746.0849.62115.1166 1.19513.0661.58566-.0515 1.32542-.1793 2.37942-.3672.5451-.0972 1.0649.2713 1.1609.8229.0961.5517-.268 1.0776-.8132 1.1748-1.0275.1831-1.862.3295-2.55348.3903-.70314.0619-1.33658.0442-1.95484-.1471-1.01206-.3131-1.90018-.9424-2.53708-1.7977-.40097-.5384-.63657-1.1557-.8222-1.8732-.18029-.6968-.33242-1.57-.52104-2.6525l-.91992-5.2793c-.18864-1.0825-.34079-1.9556-.4069-2.6728-.06808-.7385-.05531-1.4001.13948-2.04483.30942-1.02412.93129-1.92282 1.77648-2.56732.92408-.70464 2.16253-.94292 3.89227-1.2553.54493-.09841 1.06553.26883 1.16278.82025z"/><path d="m19.2923 2.44963.2819.0503c1.0698.19087 1.9326.34481 2.6213.52725.709.18784 1.319.42625 1.8511.832.8452.64449 1.4671 1.54319 1.7765 2.56731.1948.64474.2075 1.30633.1395 2.0448-.0662.71723-.2183 1.59031-.4069 2.67291l-.92 5.2792c-.1886 1.0826-.3407 1.9557-.521 2.6525-.1856.7175-.4212 1.3348-.8222 1.8732-.6369.8553-1.525 1.4846-2.5371 1.7977-.6371.1971-1.2909.21-2.0207.1411-.7088-.0669-1.5716-.2208-2.6413-.4117l-.282-.0503c-1.0697-.1909-1.9326-.3448-2.6212-.5273-.709-.1878-1.319-.4262-1.8511-.8319-.8452-.6445-1.46711-1.5432-1.77652-2.5674-.1948-.6447-.20756-1.3063-.13949-2.0448.06612-.7172.21826-1.5903.4069-2.6728l.91991-5.27934c.1886-1.0825.3408-1.95562.5211-2.65247.1856-.7175.4212-1.33477.8222-1.87321.6369-.85526 1.525-1.48455 2.537-1.79765.6372-.19712 1.291-.21003 2.0207-.14115.7088.06691 1.5717.22087 2.6414.41175zm-2.8275 1.60793c-.606-.0572-.9652-.02637-1.2485.06128-.6072.18786-1.1401.56543-1.5222 1.07859-.1783.23941-.3298.57045-.4839 1.1662-.1572.60723-.2958 1.39846-.4936 2.53372l-.9051 5.19385c-.1978 1.1352-.3349 1.9267-.3925 2.5517-.0565.6132-.0261.9767.0605 1.2634.1857.6144.5588 1.1537 1.0659 1.5404.2366.1804.5638.3337 1.1525.4896.6001.159 1.382.2993 2.5039.4995l.1974.0352c1.1219.2002 1.9041.339 2.5217.3973.6059.0572.9651.0263 1.2484-.0613.6073-.1879 1.1402-.5654 1.5223-1.0786.1783-.2394.3298-.5705.4839-1.1662.1571-.6072.2958-1.3985.4936-2.5337l.905-5.1939c.1978-1.13521.335-1.92672.3926-2.5517.0565-.61316.026-.97667-.0606-1.26335-.1856-.61447-.5588-1.15369-1.0659-1.54039-.2366-.18041-.5637-.33371-1.1524-.48967-.6001-.15898-1.382-.29929-2.5039-.49947l-.1974-.03522c-1.1219-.20018-1.9041-.33894-2.5217-.39724z"/></g></svg>
