<svg fill="none" height="28" viewBox="0 0 28 28" width="28" xmlns="http://www.w3.org/2000/svg"><path clip-rule="evenodd" d="m2 9c0-2.76142 2.23858-5 5-5h14c2.7614 0 5 2.23858 5 5 0 2.419-1.7178 4.4367-4 4.9v5.9.0385.0001.0001c0 .5271 0 .9818-.0306 1.3563-.0323.3954-.1036.7886-.2964 1.167-.2876.5645-.7465 1.0234-1.311 1.311-.3784.1928-.7716.2641-1.167.2964-.3745.0306-.8292.0306-1.3563.0306h-.0001-.0001-.0385-7.6-.0385-.0001-.0001c-.52708 0-.98179 0-1.35633-.0306-.39534-.0323-.78856-.1036-1.16694-.2964-.56449-.2876-1.02343-.7465-1.31105-1.311-.19279-.3784-.26411-.7716-.29641-1.167-.0306-.3745-.03059-.8293-.03057-1.3564v-.0001-.0385-5.9c-2.28224-.4633-4-2.481-4-4.9zm4 3.0858c.00005-.4951.00144-.9243.03057-1.2808.0323-.3954.10362-.7886.29641-1.16697.28762-.56449.74656-1.02343 1.31105-1.31105.37838-.19279.7716-.26411 1.16694-.29641.37456-.0306.82931-.03059 1.35643-.03057h.0001.0385 3.8 3.8.0385.0001c.5271-.00002.9819-.00003 1.3564.03057.3954.0323.7886.10362 1.167.29641.5645.28762 1.0234.74656 1.311 1.31105.1928.37837.2641.77157.2964 1.16697.0294.3592.0306.7921.0306 1.292v-.2677c1.1652-.4118 2-1.5231 2-2.8293 0-1.65685-1.3431-3-3-3h-14c-1.65685 0-3 1.34315-3 3 0 1.3062.83481 2.4175 2 2.8293zm7 1v-3.0858h-2.8c-.57655 0-.94882.0008-1.23216.0239-.27166.0222-.37238.0599-.42183.0851-.18816.0959-.34114.2488-.43701.437-.0252.0495-.06287.1502-.08507.4218-.02315.2834-.02393.6556-.02393 1.2322v5.8h12v-5.8c0-.5766-.0008-.9488-.0239-1.2322-.0222-.2716-.0599-.3723-.0851-.4218-.0959-.1882-.2488-.3411-.437-.437-.0495-.0252-.1502-.0629-.4218-.0851-.2834-.0231-.6556-.0239-1.2322-.0239h-2.8v3.0858l.7929-.7929c.3905-.3905 1.0237-.3905 1.4142 0s.3905 1.0237 0 1.4142l-2.5 2.5c-.3905.3905-1.0237.3905-1.4142 0l-2.5-2.5c-.3905-.3905-.3905-1.0237 0-1.4142s1.0237-.3905 1.4142 0zm-4.99993 6.9142c.00045.4651.0035.783.02386 1.0322.0222.2716.05987.3723.08507.4218.09587.1882.24885.3411.43701.437.04945.0252.15017.0629.42183.0851.28334.0231.65561.0239 1.23216.0239h7.6c.5766 0 .9488-.0008 1.2322-.0239.2716-.0222.3723-.0599.4218-.0851.1882-.0959.3411-.2488.437-.437.0252-.0495.0629-.1502.0851-.4218.0203-.2492.0234-.5671.0238-1.0322z" fill="currentColor" fill-rule="evenodd"/>
</svg>