<?xml version="1.0" encoding="UTF-8"?>
<svg width="28px" height="28px" viewBox="0 0 28 28" version="1.1" xmlns="http://www.w3.org/2000/svg" xmlns:xlink="http://www.w3.org/1999/xlink">
    <!-- Generator: Sketch 62 (91390) - https://sketch.com -->
    <title>Icons 28/chats_outline_28</title>
    <desc>Created with Sketch.</desc>
    <g id="Icons-28/chats_outline_28" stroke="none" stroke-width="1" fill="none" fill-rule="evenodd">
        <g id="chats_outline_28" fill-rule="nonzero">
            <rect x="0" y="0" width="28" height="28"></rect>
            <path d="M23.7064366,9.66185643 C25.1705477,11.1144122 26.0001688,12.9977125 26.0001688,15 C26.0001688,16.2695202 25.6669848,17.4958115 25.0400014,18.5986919 C25.1411187,19.2020794 25.4325479,20.1179564 25.9158665,21.3150031 L26.1743201,21.9387998 L26.2312491,22.1067727 L26.2563075,22.204956 C26.3871587,22.8531293 26.0455299,23.509672 25.4303632,23.7705168 C25.23466,23.8534994 25.0226299,23.8908277 24.8103533,23.8796708 C22.9023558,23.7793892 21.3801957,23.3141542 20.2704086,22.4560972 C19.2379935,22.8137049 18.1331509,23 17.0001688,23 C15.8456492,23 14.7195889,22.8066187 13.6681337,22.4344414 C13.1475019,22.2501565 12.8748388,21.6787086 13.0591237,21.1580767 C13.2434086,20.6374449 13.8148566,20.3647818 14.3354884,20.5490667 C15.1726066,20.8453764 16.0729804,21 17.0001688,21 C18.0866145,21 19.1354514,20.7876161 20.0868231,20.3853944 C20.4634151,20.2261786 20.8989997,20.3122571 21.1867216,20.602752 C21.7363575,21.1576853 22.5582878,21.5441991 23.6683803,21.743731 L23.951916,21.7897078 C23.3781591,20.3342619 23.0635017,19.2351205 23.0090036,18.4465745 C22.99432,18.2341126 23.0478493,18.0225115 23.1617955,17.8425895 C23.7105124,16.9761611 24.0001688,16.0066962 24.0001688,15 C24.0001688,13.5461594 23.3932655,12.1684447 22.297837,11.0816617 C21.9057686,10.6926876 21.9032601,10.0595276 22.2922342,9.66745923 C22.6812082,9.27539083 23.3143682,9.27288237 23.7064366,9.66185643 Z M11,3 C15.9430677,3 20,6.54981578 20,11 C20,15.4501842 15.9430677,19 11,19 C9.86701784,19 8.76217524,18.8137049 7.72976017,18.4560972 C6.61997311,19.3141542 5.09781294,19.7793892 3.18981544,19.8796708 C2.97753884,19.8908277 2.76550876,19.8534994 2.56980563,19.7705168 C1.95463888,19.509672 1.61301008,18.8531293 1.74386128,18.204956 L1.76891973,18.1067727 L1.8258487,17.9387998 L1.95947407,17.6201044 C2.47478511,16.3764136 2.79807537,15.4112825 2.93092233,14.7560308 L2.96016741,14.5986919 L2.80956516,14.3204471 C2.27996709,13.2911294 2,12.1637269 2,11 C2,6.54981578 6.05693232,3 11,3 Z M11,5 C7.10651168,5 4,7.71819772 4,11 C4,12.0066962 4.28965642,12.9761611 4.83837326,13.8425895 C4.95231944,14.0225115 5.0058488,14.2341126 4.99116513,14.4465745 C4.94055983,15.1787958 4.66563343,16.1788264 4.16723451,17.4832635 L4.04825279,17.7897078 L4.33178847,17.743731 C5.44188094,17.5441991 6.26381128,17.1576853 6.81344723,16.602752 C7.10116913,16.3122571 7.53675369,16.2261786 7.91334567,16.3853944 C8.86471737,16.7876161 9.91355431,17 11,17 C14.8934883,17 18,14.2818023 18,11 C18,7.71819772 14.8934883,5 11,5 Z" id="↳-Icon-Color" fill="currentColor"></path>
        </g>
    </g>
</svg>
