<svg height="28" viewBox="0 0 28 28" width="28" xmlns="http://www.w3.org/2000/svg"><g fill="none" fill-rule="evenodd"><path d="m0 0h28v28h-28z"/><path d="m18.1077993 8.07560194.2179209.01869955c.2066682.0262743.375342.06598629.7627587.17667679l5.7510749 1.64316425c.6868825.19625217 1.1604462.82406977 1.1604462 1.53843827v6.0474192c0 3.4805888-2.6114782 6.2786011-7.6060807 8.419145l-.3939193.1688226-.3939193-.1688226c-4.9946025-2.1405439-7.6060807-4.9385562-7.6060807-8.419145v-6.0474192c0-.7143685.4735637-1.3421861 1.1604462-1.53843827l5.9044667-1.68642517c.2829928-.07850162.4322228-.11089504.6093669-.13341587.2206301-.02804932.4308103-.02804932.6514404 0zm-5.2355697-6.07560194c1.776598 0 2.6475757.16819357 3.5530607.65245221.8041864.43008361 1.4459025 1.06172492 1.8871198 1.85772529.267747.48304246.0932155 1.09167753-.389827 1.35942449-.4485394.24862218-1.0053704.11589203-1.2970024-.29108873l-.0624221-.09873824c-.2544283-.45901426-.616149-.81505604-1.0810661-1.06369641-.5083515-.27186938-1.0034139-.3879059-2.1255406-.4114458l-.483812-.00463281-3.00553639.0014712c-1.28952499.01507234-1.8035325.12272986-2.34929606.41460741-.47758338.25541438-.84641446.62424546-1.10182884 1.10182884-.27186938.50835153-.3879059 1.003414-.41144572 2.12580322l-.00463289.48393162.0014712 12.00515421c.01507234 1.289525.12272986 1.8035325.41460741 2.349296.25541438.4775834.62424546.8464145 1.10182884 1.1018289.50835153.2718694 1.003414.3879059 2.12589123.4114457l.48397172.0046329h.369175c.5522848 0 1 .4477153 1 1 0 .5128358-.3860402.9355072-.8833789.9932723l-.1166211.0067277h-.369175c-1.77659796 0-2.64757573-.1681936-3.55306067-.6524522-.82612032-.441814-1.48044354-1.0961372-1.92225752-1.9222575-.43137883-.8066083-.6096529-1.5794601-.64559024-2.9898919l-.00532246-.2907863-.00153951-12.0168417c0-1.77659796.16819357-2.64757573.65245221-3.55306067.44181398-.82612032 1.0961372-1.48044354 1.92225752-1.92225752.80660828-.43137883 1.57946011-.6096529 2.98957691-.64559014l.29071905-.00532244zm5.1277704 8.0732645-.0734848.0050676c-.0584267.0074279-.1192541.019941-.257571.0574357l-5.6689442 1.6182322v5.746c0 2.3794439 1.8331774 4.4757539 5.6919023 6.2677783l.3080977.1402217.3080977-.1402217c3.745233-1.7393178 5.5823161-3.7652852 5.68714-6.0585627l.0047623-.2092156v-5.746l-5.7134429-1.6301383c-.0833731-.0219734-.1343454-.0332695-.1771275-.0403035l-.0359448-.0052261c-.0531471-.0067568-.0938225-.0067568-.1469696 0zm3.5363961 4.1903394c.3221825.3221825.3490311.8278621.0805456 1.1806275l-.0805456.0921647-4 4c-.3221825.3221825-.8278621.3490311-1.1806275.0805456l-.0921647-.0805456-1.6-1.6c-.3514719-.3514719-.3514719-.9213203 0-1.2727922.3221825-.3221825.8278621-.3490311 1.1806275-.0805456l.0921647.0805456.9636039.9633961 3.3636039-3.3633961c.3514719-.3514719.9213203-.3514719 1.2727922 0z" fill="currentColor" fill-rule="nonzero"/></g></svg>
