<svg height="28" viewBox="0 0 28 28" width="28" xmlns="http://www.w3.org/2000/svg"><g fill="none" fill-rule="evenodd"><path d="m0 0h28v28h-28z"/><path d="m13.4840062 1.50205868c.3495805-.04987908.6824071-.04987908 1.0319876 0 .3452576.04926228.6333167.12695227 1.2963988.34797962l6.8200629 2.27335432c.8166843.2722281 1.3675445 1.03650578 1.3675445 1.8973666v9.27924078c0 4.7944152-2.878392 8.4673421-8.4581237 10.9423253l-.3682729.1598848c-.7499271.3187742-1.5972635.3187745-2.3471908.0000007-5.81907256-2.4735301-8.8264126-6.1997287-8.8264126-11.1022108v-9.27924078c0-.86086082.55086019-1.6251385 1.36754447-1.8973666l7.00816913-2.33547731c.5331597-.17415808.7975608-.24152058 1.1082926-.28585663zm.7494834 1.97994732c-.1621933-.02314217-.3047859-.02314217-.4669792 0-.1998948.02852152-.3880634.0792709-.9464474.2653989l-6.820063 2.27335432v9.27924078c0 4.0159455 2.47106668 7.0776828 7.6088075 9.2615973.2499768.1062583.5324233.1062582.7752933.0030531l.3539979-.1536853c4.9026744-2.1746926 7.2619013-5.1851471 7.2619013-9.1109651v-9.27924078l-6.9768537-2.32524452c-.3417122-.11212864-.520734-.16346616-.6680714-.19282324zm5.1736172 7.0108872c.3604839.360484.3882135.927715.0831886 1.3200062l-.0831886.0942074-6 6c-.360484.3604839-.927715.3882135-1.3200062.0831886l-.0942074-.0831886-3.24999998-3.25c-.39052429-.3905243-.39052429-1.0236893 0-1.4142136.36048396-.3604839.92771502-.3882135 1.32000618-.0831886l.0942074.0831886 2.5428932 2.5421068 5.2928932-5.2921068c.3905243-.3905243 1.0236893-.3905243 1.4142136 0z" fill="currentColor" fill-rule="nonzero"/></g></svg>
