<svg height="28" viewBox="0 0 28 28" width="28" xmlns="http://www.w3.org/2000/svg"><g fill="none" fill-rule="evenodd"><path d="m0 0h28v28h-28z"/><path d="m18 10c4.418278 0 8 3.581722 8 8s-3.581722 8-8 8-8-3.581722-8-8 3.581722-8 8-8zm-5.1277704-8c1.776598 0 2.6475757.16819357 3.5530607.65245221.8261203.44181398 1.4804435 1.0961372 1.9222575 1.92225752.3689881.68994783.5459418 1.33505392.616971 2.36138134.0381309.55096686-.3776049 1.02852491-.9285717 1.06665575-.5509669.03813084-1.0285249-.37760489-1.0666558-.92857175-.0520797-.75251928-.153753-1.12318175-.3853699-1.55626762-.2554144-.47758338-.6242455-.84641446-1.1018289-1.10182884-.5083515-.27186938-1.0034139-.3879059-2.1255406-.4114458l-.483812-.00463281-3.00553639.0014712c-1.28952499.01507234-1.8035325.12272986-2.34929606.41460741-.47758338.25541438-.84641446.62424546-1.10182884 1.10182884-.27186938.50835153-.3879059 1.003414-.41144572 2.12580322l-.00463289.48393162.0014712 12.00515421c.01507234 1.289525.12272986 1.8035325.41460741 2.349296.25541438.4775834.62424546.8464145 1.10182884 1.1018289.50300072.2690077.95829132.3752332 2.01792599.407738.55202506.0169337.98580236.4781659.96886876 1.030191s-.4781658.9858024-1.03019092.9688687c-1.34952379-.0413973-2.10351869-.2173146-2.89980155-.6431713-.82612032-.441814-1.48044354-1.0961372-1.92225752-1.9222575-.43137883-.8066083-.6096529-1.5794601-.64559024-2.9898919l-.00532246-.2907863-.00153951-12.0168417c0-1.77659796.16819357-2.64757573.65245221-3.55306067.44181398-.82612032 1.0961372-1.48044354 1.92225752-1.92225752.80660828-.43137883 1.57946011-.6096529 2.98957691-.64559014l.29071905-.00532244zm5.1277704 10c-3.3137085 0-6 2.6862915-6 6s2.6862915 6 6 6 6-2.6862915 6-6-2.6862915-6-6-6zm3.5363961 3.5636039c.3221825.3221825.3490311.8278621.0805456 1.1806275l-.0805456.0921647-4 4c-.3221825.3221825-.8278621.3490311-1.1806275.0805456l-.0921647-.0805456-1.6-1.6c-.3514719-.3514719-.3514719-.9213203 0-1.2727922.3221825-.3221825.8278621-.3490311 1.1806275-.0805456l.0921647.0805456.9636039.9633961 3.3636039-3.3633961c.3514719-.3514719.9213203-.3514719 1.2727922 0z" fill="currentColor" fill-rule="nonzero"/></g></svg>
