<svg xmlns="http://www.w3.org/2000/svg" width="28" height="28" fill="currentColor" viewBox="0 0 28 28"><path fill-rule="evenodd" d="M12.328 2.796c.706.533 1.321 1.309 1.774 2.283a4.856 4.856 0 0 1 1.227-1.403c.557-.42 1.215-.683 1.909-.676.709.008 1.373.298 1.91.836.545.545.843 1.212.856 1.926.012.701-.25 1.362-.672 1.921-.082.109-.17.214-.264.317H22a3 3 0 0 1 2.964 3.467L23.43 21.2a4.5 4.5 0 0 1-4.446 3.8H9.008a4.5 4.5 0 0 1-4.447-3.805l-1.523-9.731A3 3 0 0 1 6.003 8h2.306a4.763 4.763 0 0 1-.564-.628c-.498-.667-.782-1.449-.742-2.267.041-.825.408-1.597 1.052-2.241 1.24-1.24 2.973-1.05 4.273-.068Zm-1.085 1.437c.8.604 1.594 1.862 1.806 3.767h-.438c-1.725-.258-2.877-.972-3.423-1.704-.293-.392-.403-.77-.386-1.101.016-.324.157-.69.527-1.059.424-.424 1.106-.513 1.914.097ZM15.212 8h-.233c.204-1.447.824-2.427 1.434-2.887.31-.233.588-.315.805-.313.203.003.427.078.658.309.245.245.324.479.328.685.003.22-.078.498-.31.807-.438.581-1.35 1.17-2.682 1.399ZM5.015 11.155A1 1 0 0 1 6.003 10h6.13l-.963 1.445a1 1 0 1 0 1.665 1.11l1.216-1.824 2.152 2.869a1 1 0 0 0 1.6-1.2l-1.8-2.4H22a1 1 0 0 1 .988 1.156l-.557 3.537-1.555-.621a1 1 0 0 0-.743 1.857l1.978.79-.382 2.426-16.38-6.082a.894.894 0 0 0-.038-.014l-.296-1.894Zm.65 4.159.362 2.31 6.302 2.181a1 1 0 1 1-.654 1.89l-5.298-1.834.16 1.025A2.5 2.5 0 0 0 9.008 23h9.976a2.5 2.5 0 0 0 2.413-1.845l-15.73-5.841Z" clip-rule="evenodd"/></svg>
