<?xml version="1.0" encoding="UTF-8"?>
<svg width="28px" height="28px" viewBox="0 0 28 28" version="1.1" xmlns="http://www.w3.org/2000/svg" xmlns:xlink="http://www.w3.org/1999/xlink">
    <!-- Generator: Sketch 63.1 (92452) - https://sketch.com -->
    <title>check_circle_outline_28</title>
    <desc>Created with Sketch.</desc>
    <g id="Page-1" stroke="none" stroke-width="1" fill="none" fill-rule="evenodd">
        <g id="check_circle_outline_28" fill-rule="nonzero">
            <rect x="0" y="0" width="28" height="28"></rect>
            <path d="M14,2 C20.627417,2 26,7.372583 26,14 C26,20.627417 20.627417,26 14,26 C7.372583,26 2,20.627417 2,14 C2,7.372583 7.372583,2 14,2 Z M14,4 C8.4771525,4 4,8.4771525 4,14 C4,19.5228475 8.4771525,24 14,24 C19.5228475,24 24,19.5228475 24,14 C24,8.4771525 19.5228475,4 14,4 Z M18.29,10.29 C18.6805243,9.89947571 19.3194757,9.89947571 19.71,10.29 C20.1005243,10.6805243 20.1005243,11.3194757 19.71,11.71 L19.71,11.71 L12.7071068,18.7071068 C12.3165825,19.0976311 11.6834175,19.0976311 11.2928932,18.7071068 L11.2928932,18.7071068 L7.79289322,15.2071068 C7.40236893,14.8165825 7.40236893,14.1834175 7.79289322,13.7928932 C8.18341751,13.4023689 8.81658249,13.4023689 9.20710678,13.7928932 L9.20710678,13.7928932 L12,16.5857864 Z" id="↳-Icon-Color" fill="currentColor"></path>
        </g>
    </g>
</svg>
