<svg fill="none" height="28" width="28" xmlns="http://www.w3.org/2000/svg"><g fill="currentColor"><path d="M13.484 1.502c.35-.05.682-.05 1.032 0 .345.05.633.127 1.296.348l6.82 2.273A2 2 0 0124 6.021V15.3c0 4.794-2.878 8.467-8.458 10.942l-.368.16a3 3 0 01-2.348 0C7.007 23.93 4 20.202 4 15.3V6.02a2 2 0 011.368-1.897l7.008-2.335c.533-.174.797-.242 1.108-.286zm.75 1.98a1.58 1.58 0 00-.468 0c-.2.029-.388.08-.946.265L6 6.021V15.3c0 4.016 2.471 7.078 7.609 9.262.25.106.532.106.775.003l.354-.154C19.641 22.236 22 19.226 22 15.3V6.02l-6.977-2.324a5.976 5.976 0 00-.668-.193z"/><path d="M19.057 10.693a1 1 0 00-1.414 0l-4.893 4.893-1.893-1.893a1 1 0 00-1.414 1.414l2.6 2.6a1 1 0 001.414 0l5.6-5.6a1 1 0 000-1.414z"/></g></svg>
