<svg fill="none" height="28" viewBox="0 0 28 28" width="28" xmlns="http://www.w3.org/2000/svg"><path clip-rule="evenodd" d="m10 8c0-2.20914 1.7909-4 4-4s4 1.79086 4 4c0 .55228.4477 1 1 1s1-.44772 1-1c0-.34042-.0283-.67422-.0828-.99916.0275-.00056.0551-.00084.0828-.00084 2.2091 0 4 1.79086 4 4 0 1.6106-.952 3.001-2.3279 3.6351-.3766.1306-.6509.4801-.6709.8962-.0014.0251-.0018.0503-.0012.0756v2.3931h-14v-2.3931c.00057-.0253.00017-.0505-.00117-.0756-.01998-.4161-.29431-.7656-.67091-.8962-1.3759-.6341-2.32792-2.0245-2.32792-3.6351 0-2.20914 1.79086-4 4-4 .02768 0 .05529.00028.08282.00084-.05447.32494-.08282.65874-.08282.99916 0 .55228.44772 1 1 1s1-.44772 1-1zm-1.22569-2.95039c1.03018-1.82073 2.98439-3.04961 5.22569-3.04961s4.1955 1.22888 5.2257 3.04961c.2538-.03276.5123-.04961.7743-.04961 3.3137 0 6 2.68629 6 6 0 2.2222-1.2079 4.1604-3 5.1971v3.803.0402.0001c0 .6658 0 1.2253-.0374 1.6831-.0391.4787-.124.9337-.3441 1.3655-.3355.6586-.871 1.194-1.5295 1.5296-.4319.22-.8869.305-1.3656.3441-.4578.0374-1.0173.0374-1.6832.0374h-.0001-.0401-8-.04014-.00002-.00003-.00003-.00003c-.66583 0-1.22533 0-1.68318-.0374-.47872-.0391-.93368-.1241-1.36554-.3441-.65856-.3356-1.194-.871-1.52955-1.5296-.22005-.4318-.30499-.8868-.3441-1.3655-.03741-.4579-.0374-1.0174-.03738-1.6833v-.0401-3.803c-1.79206-1.0367-3-2.9749-3-5.1971 0-3.31371 2.68629-6 6-6 .26199 0 .52046.01685.77431.04961zm-1.77431 14.95049v-.0001h14v.0001c0 .7165-.0008 1.1938-.0307 1.5605-.029.3551-.0803.5175-.1328.6205-.1438.2822-.3733.5117-.6555.6555-.1029.0524-.2654.1037-.6204.1327-.3668.03-.844.0308-1.5606.0308h-8c-.71657 0-1.19385-.0008-1.56056-.0308-.35504-.029-.5175-.0803-.62043-.1327-.28224-.1438-.51171-.3733-.65552-.6555-.05244-.103-.10374-.2654-.13275-.6205-.02996-.3667-.03074-.844-.03074-1.5605z" fill="currentColor" fill-rule="evenodd"/></svg>
