<svg xmlns="http://www.w3.org/2000/svg" width="28" height="28" fill="none" viewBox="0 0 28 28"><path fill="currentColor" fill-rule="evenodd" d="m5.5569 5.016 14.123-2.8498c.4973-.1008.9263-.1879 1.3243-.1628a2.9979 2.9979 0 0 1 2.4971 1.6601c.2251.4538.2994.9685.3987 1.4607.0471.23.1048.512.0878.7814a1.9999 1.9999 0 0 1-1.106 1.6659c-.2567.1275-.5414.1793-.8202.235L11.1912 9.9999h11.2424c.2522 0 .4979-.0001.7059.0169.2284.0187.498.0627.7692.201.3761.1918.6818.4978.8735.8741.1382.2714.1822.5411.2009.7697.017.2081.0169.4539.0169.7062v6.6734c0 .8049 0 1.4693-.0442 2.0105-.0459.5621-.1444 1.0788-.3915 1.5641a3.998 3.998 0 0 1-1.7469 1.7481c-.485.2473-1.0013.3458-1.563.3918-.5409.0442-1.2048.0442-2.0092.0442H8.7697c-.8044 0-1.4683 0-2.0092-.0442-.5617-.046-1.078-.1445-1.563-.3918a3.9985 3.9985 0 0 1-1.747-1.7481c-.247-.4853-.3455-1.002-.3914-1.5641-.0442-.5412-.0442-1.2056-.0442-2.0105V12.568c0-.2524 0-.4982.017-.7064.0186-.2286.0626-.4983.2008-.7697a2.0044 2.0044 0 0 1 .1884-.3006 1.9974 1.9974 0 0 1-.497-.6356c-.1441-.2905-.1933-.6154-.257-.9303-.1008-.4976-.1878-.927-.1627-1.3253a3 3 0 0 1 1.659-2.4987c.4332-.2152.9236-.291 1.3935-.3855Zm.395 1.9605c-.6704.1353-.8117.1725-.8998.2163a1 1 0 0 0-.553.833c-.0062.0982.0142.243.1494.9139.0324.1608.0503.2487.0661.3121l.0026.0102.0104-.0015c.0646-.01.1525-.0275.3133-.06L21.6665 5.846c.1607-.0325.2485-.0504.3119-.0663l.0102-.0026-.0015-.0104c-.01-.0646-.0275-.1526-.0599-.3134-.1352-.6708-.1724-.8123-.2162-.9005a.9992.9992 0 0 0-.8323-.5534c-.0983-.0062-.243.0143-.9134.1496L5.952 6.9764Zm-.927 5.0348-.001.0132c-.0096.1166-.0103.2788-.0103.5754v6.6c0 .8565.0007 1.4388.0375 1.8889.0358.4384.1006.6626.1803.819.1916.3764.4974.6823.8734.8741.1563.0797.3804.1446.8185.1804.4498.0368 1.0317.0376 1.8877.0376h10.3929c.856 0 1.4379-.0008 1.8877-.0376.4381-.0358.6622-.1007.8185-.1804a1.9995 1.9995 0 0 0 .8734-.8741c.0796-.1564.1445-.3806.1803-.819.0368-.4501.0376-1.0324.0376-1.8889v-6.6c0-.2966-.0008-.4588-.0103-.5754l-.0012-.0132-.0132-.0011c-.1165-.0096-.2786-.0103-.5749-.0103H5.6131c-.2963 0-.4584.0007-.575.0103l-.0131.0011Zm7.7471 2.569a.4987.4987 0 0 0-.2702-.0795c-.2723 0-.4929.2174-.4929.4856v5.0288a.48.48 0 0 0 .0734.255c.143.2282.4467.2991.6783.1582l4.0108-2.4388a.4906.4906 0 0 0 .1534-.147c.1492-.2243.0856-.5253-.1421-.6723l-4.0107-2.59Z" clip-rule="evenodd"/></svg>
