<?xml version="1.0" encoding="UTF-8"?>
<svg width="28px" height="28px" viewBox="0 0 28 28" version="1.1" xmlns="http://www.w3.org/2000/svg" xmlns:xlink="http://www.w3.org/1999/xlink">
    <!-- Generator: Sketch 63.1 (92452) - https://sketch.com -->
    <title>clear_data_outline_28</title>
    <desc>Created with Sketch.</desc>
    <g id="Page-1" stroke="none" stroke-width="1" fill="none" fill-rule="evenodd">
        <g id="clear_data_outline_28">
            <polygon points="28 0 0 0 0 28 28 28"></polygon>
            <g fill-rule="nonzero">
                <rect id="Rectangle" x="0" y="0" width="28" height="28"></rect>
                <path d="M25.2071864,2.79281358 C25.5976045,3.18323168 25.5976045,3.81622449 25.2071864,4.20664259 L23.0158446,6.39825022 C24.3015833,8.33907667 24.0894779,10.9796672 22.3795284,12.6896167 L22.0056516,13.0640791 C22.3537608,17.4200075 20.8144502,21.32384 17.4311269,24.7071633 C17.1774457,24.9608444 16.8072845,25.059146 16.4611665,24.9647502 C13.6858736,24.2078522 10.9481252,22.4656487 8.24123828,19.7587617 C5.53435133,17.0518748 3.79214782,14.3141264 3.03524976,11.5388335 C2.94085395,11.1927155 3.03915563,10.8225543 3.29283674,10.5688731 C6.67581836,7.18589152 10.579204,5.64655008 14.9346012,5.99424303 L15.3103833,5.6204716 C17.0200835,3.91077148 19.6601532,3.69847862 21.6009006,4.98359302 L23.7933574,2.79281358 C24.1837755,2.40239547 24.8167683,2.40239547 25.2071864,2.79281358 Z M20.0060548,13.1450125 L14.8551304,7.99287668 L14.4840256,7.9673042 C11.0223191,7.76721175 7.92319395,8.95683189 5.13229079,11.570655 C5.86674949,13.7989602 7.36893843,16.0588038 9.65506729,18.3449327 C11.9411962,20.6310616 14.2010398,22.1332505 16.429345,22.8677092 C19.1361879,19.9774844 20.3156561,16.7567095 20.0060548,13.1450125 Z M20.9656994,7.03430061 C19.7944451,5.86304631 17.8954667,5.86304631 16.7242124,7.03430061 L20.9656994,11.2757876 C22.1369537,10.1045333 22.1369537,8.20555491 20.9656994,7.03430061 Z" id="↳-Icon-Color" fill="currentColor"></path>
            </g>
        </g>
    </g>
</svg>
