<svg height="28" viewBox="0 0 28 28" width="28" xmlns="http://www.w3.org/2000/svg"><g fill="none" fill-rule="nonzero"><path d="m0 0h28v28h-28z"/><path d="m16.0724 2.08147c1.7197.38161 2.8613 2.01342 2.6285 3.75713l-.5717206 4.2888404c1.705647.3199839 3.1582229 1.3513581 4.0221206 2.7723596.2866.4714.1362 1.0856-.3359 1.3718s-1.0871.136-1.3737-.3354c-.696-1.1447-1.9737-1.9162-3.4417-1.9162l-.0157016-.0000647c-.0157997-.0002676-.0316613-.0009094-.0475751-.0019329l-.0533472-.0047209-.0155761-.0020815-.0527479-.0082445c-.017327-.0032355-.0344965-.0069171-.0514963-.0110325l.1042442.019277c-.0541661-.0072136-.1067381-.0186306-.1574304-.0338781-.0198029-.0058045-.0400485-.01262-.0599927-.020053-.0103742-.0039498-.0201646-.0077716-.0298721-.011739-.0251914-.0102623-.0501794-.0217343-.0745878-.0341781-.009091-.0045886-.0182394-.0094229-.027297-.0143912-.0225396-.0124439-.0446339-.0257236-.0661513-.0398095-.0135265-.0087479-.0264467-.0176531-.0391321-.0268439-.0161314-.0117945-.0323407-.0242999-.0481443-.03728-.0142475-.0116118-.0277069-.0233049-.0408332-.0353366-.0127378-.0117326-.0255685-.0241103-.0380613-.0368202-.0177694-.0180634-.0348718-.0368636-.0512321-.0562764-.0078993-.0093118-.0155577-.0187272-.0230456-.0282823-.0151302-.0194325-.029566-.0393464-.0432568-.0597709-.0064997-.0095031-.0126189-.0189683-.0185803-.0285417-.0092366-.0150729-.0181579-.0302917-.0266768-.0457468-.0102564-.0183248-.0198907-.0371866-.0289308-.0563826-.0105279-.0226384-.0203157-.0455951-.0292437-.068939-.0037622-.0096157-.0071906-.0190326-.0104799-.0285144-.0069466-.0201705-.0133323-.0406246-.0190609-.0613206-.0140642-.0510336-.0241394-.1034554-.0299518-.1571533-.0027732-.0243027-.004533-.0489433-.0053674-.0737657-.0002755-.0117301-.0004717-.0232305-.0004717-.0347767l.0000538-.0155913c.0002587-.0152472.0008676-.0305521.0018335-.045906l-.0018873.0614973c0-.0425584.002666-.0844944.0078404-.1256508.0004264-.0022109.0006899-.0042297.0009596-.0062492l.7096-5.31485c.0957-.71639-.3733-1.38682-1.0799-1.5436-.7559-.16775-1.504.3116-1.6663 1.06773l-.9905748 4.61648557c-.0156441.07961343-.0409112.15659452-.0748374.22933961-.009168.0202469-.0193177.04028841-.0300889.05988772-.0070206.0121807-.0142349.0246546-.0217143.0369681-.0052687.009234-.0105941.0176975-.0160383.026067-.015921.0239887-.0329491.0478647-.05101.0709734-.0309548.03979-.0645542.0765263-.1005829.1105051-.0670131.0635724-.1439158.1185621-.2288103.1621957l-.0104632.0051376c-.0564727.0283055-.1157288.0513467-.1770042.0686304l-.0285757.0073298c-.0580786.0145034-.1162406.0236125-.1739562.0276449-.0159749.0012052-.032115.0019138-.0483176.0022275-.0746345.0010815-.1418273-.0049266-.2072709-.0174052-.0070284-.0015585-.014741-.0031148-.0224553-.0047647-.1377806-.0294905-.2627931-.0860014-.3706647-.1627799-.0105606-.0077689-.0210619-.0155405-.0314117-.0235172-.013475-.0101954-.0267061-.0209745-.0396331-.0320677-.0128759-.0111275-.0255324-.0225195-.0379027-.0342402l-.0119909-.0116054c-.0100152-.0098493-.0198134-.0199004-.0293893-.0301449-.013464-.014194-.026141-.0285213-.0384175-.0432328-.0143548-.0175514-.0287927-.0361684-.0425544-.0552619-.008277-.0109827-.0160233-.022197-.0235498-.0335907-.0309763-.0474565-.0581642-.09730747-.0809964-.14923014-.0222397-.05056403-.0403846-.10345975-.0541895-.15858166l-1.04462-4.17272c-.15631-.62433-.71808-1.06232-1.36255-1.06232-.82369 0-1.47056.70455-1.3992 1.52397l.5065783 5.8234441c.29268118-.0690545.59471728-.1149289.9041417-.1355241l1.23586-.0823c1.67969-.1118 3.18959 1.0173 3.55479 2.6583.424 1.9052-.8396 3.7756-2.7675 4.0965l-.4929.082c-.54477.0907-1.06-.2768-1.15079-.8208-.0908-.544.27722-1.0585.82199-1.1491l.4929-.0821c.7969-.1326 1.3192-.9057 1.1439-1.6933-.1509-.6783-.7751-1.145-1.4694-1.0988l-1.23582.0823c-1.83854.1224-3.26718 1.6473-3.26718 3.4872v.2896c0 3.5848 2.91017 6.4908 6.5 6.4907h.5c.5523 0 1 .4471 1 .9986s-.4477.9986-1 .9986h-.5c-4.6944 0-8.5-3.8001-8.5-8.4879v-.2896c0-1.8330646.90231352-3.4670986 2.29902755-4.4667159l-.56807755-6.5280941c-.17297-1.98628 1.39505-3.69412 3.39168-3.69412 1.56217 0 2.92397 1.06169 3.30287 2.57508l-.0005-.00264754.0916-.42568246c.395-1.84042 2.2158-3.00716 4.0558-2.59885zm-.5724 14.93903c0-1.5425 1.6676-2.5054 2.9994-1.7319l6.0046 3.4873c1.328.7713 1.328 2.6927.0001 3.4639l-6.0047 3.4873c-1.3318.7735-2.9994-.1894-2.9994-1.7319zm2-.002v6.9787l5.9985-3.4838.0006875-.00035c.0007125-.00185.0008125-.00345.0008125-.00515l-.0000625-.0025625c-.0005375-.0025375-.0009375-.0027375-.0014375-.0030375z" fill="currentColor"/></g></svg>
