<svg fill="none" height="28" viewBox="0 0 28 28" width="28" xmlns="http://www.w3.org/2000/svg" xmlns:xlink="http://www.w3.org/1999/xlink"><linearGradient id="a" gradientUnits="userSpaceOnUse" x1="-14" x2="14" y1="14" y2="42"><stop offset="0" stop-color="#c48aff"/><stop offset="1" stop-color="#aa65f0"/></linearGradient><path d="m0 14c0-7.73199 6.26801-14 14-14 7.732 0 14 6.26801 14 14 0 7.732-6.268 14-14 14-7.73199 0-14-6.268-14-14z" fill="url(#a)"/><g fill="#fff"><path d="m11.7871 6.9572.9118 3.03919c.0866.28881.4974.28361.5768-.00727l.9572-3.50978c.1577-.57821.6829-.97934 1.2822-.97934.7921 0 1.4084.68853 1.3209 1.4758l-.4516 4.0645c1.7811.248 3.2047 1.6129 3.5404 3.3643l-.425-.2457c-1.7842-1.0317-3.9998.2636-3.9998 2.3095v4.3631c0 .1365.0098.2696.0288.399-.5788.1753-1.1928.2695-1.8288.2695h-.2c-3.5 0-6-2.3505-6-5.25v-.1782c.00074-1.6967 1.37634-3.0718 3.0731-3.0718h.6937c.4968 0 .9181.3653.9883.8572.0724.5065-.2498.9857-.7462 1.1098l-.2515.0629c-.5357.1339-.8615.6768-.7276 1.2126.134.5358.6769.8616 1.2127.7276l.2515-.0628c1.4906-.3727 2.4583-1.8119 2.241-3.3329-.211-1.4772-1.4761-2.5744-2.9682-2.5744h-.1937c-.5195 0-1.0208.0781-1.49277.2232l-.41463-3.73172c-.0884-.79564.5344-1.49148 1.3349-1.49148.5932 0 1.1161.38907 1.2865.9572z"/><path d="m22.2713 19.2281c.4442-.2568.4442-.8994 0-1.1562l-3.7727-2.1816c-.4439-.2567-.9986.0644-.9986.5781v4.3632c0 .5137.5547.8348.9986.5781z"/></g></svg>
