<svg fill="none" height="28" viewBox="0 0 28 28" width="28" xmlns="http://www.w3.org/2000/svg" xmlns:xlink="http://www.w3.org/1999/xlink"><linearGradient id="a" gradientUnits="userSpaceOnUse" x1="-14" x2="14" y1="14" y2="42"><stop offset="0" stop-color="#b1b6bd"/><stop offset="1" stop-color="#99a2ad"/></linearGradient><path d="m0 14c0-7.73199 6.26801-14 14-14 7.732 0 14 6.26801 14 14 0 7.732-6.268 14-14 14-7.73199 0-14-6.268-14-14z" fill="url(#a)"/><path d="m14 7c3.8658 0 7 3.1342 7 7s-3.1342 7-7 7-7-3.1342-7-7 3.1342-7 7-7zm0 3c-.4971 0-.9.4029-.9.9v3.1c0 .117.0223.2289.0631.3318.0051.0129.0106.0257.0163.0384l.026.0529.0118.0214.0127.0215c.0135.0223.028.0439.0431.0647.0097.0133.0199.0265.0308.0397.0124.0151.0253.0298.0383.0437l.0106.0112 2.0109 2.0111.0922.0805c.3527.2685.8584.2417 1.1806-.0805l.0805-.0922c.2685-.3527.2417-.8584-.0805-1.1806l-1.7374-1.7376.001-2.726c0-.4971-.4029-.9-.9-.9z" fill="#fff"/></svg>
