<svg fill="none" height="28" viewBox="0 0 28 28" width="28" xmlns="http://www.w3.org/2000/svg"><path clip-rule="evenodd" d="m12.5 6c-3.03757 0-5.5 2.46243-5.5 5.5 0 .2564.01748.5083.05119.7544.06137.4482-.1857.8817-.60254 1.0573-1.44047.6068-2.44865 2.031-2.44865 3.6883 0 2.2091 1.79086 4 4 4h11c2.7614 0 5-2.2386 5-5s-2.2386-5-5-5c-.0485 0-.0969.0007-.145.0021-.4743.0134-.8928-.3083-1.0017-.7701-.5722-2.4267-2.7531-4.232-5.3533-4.232zm-7.5 5.5c0-4.14214 3.35786-7.5 7.5-7.5 3.2753 0 6.0584 2.09869 7.0813 5.02379 3.594.29545 6.4187 3.30601 6.4187 6.97621 0 3.866-3.134 7-7 7h-11c-3.31371 0-6-2.6863-6-6 0-2.2246 1.21048-4.1646 3.00589-5.2004-.00392-.0995-.00589-.1993-.00589-.2996z" fill="currentColor" fill-rule="evenodd"/></svg>
