<svg xmlns="http://www.w3.org/2000/svg" width="28" height="28" fill="currentColor" viewBox="0 0 28 28"><path fill-rule="evenodd" d="M11.23 6.147a5.502 5.502 0 0 1 6.623 4.085 1 1 0 0 0 1.002.77L19 11a5 5 0 0 1 4.462 7.26 1 1 0 1 0 1.783.904 7 7 0 0 0-5.664-10.14 7.502 7.502 0 0 0-8.81-4.823 1 1 0 1 0 .459 1.946ZM7.595 9.01a5.473 5.473 0 0 0-.544 3.245 1 1 0 0 1-.602 1.058A4.001 4.001 0 0 0 8 21h11c.188 0 .373-.01.555-.03L7.595 9.01Zm13.63 13.63a7.01 7.01 0 0 1-2.225.361H8a6 6 0 0 1-2.994-11.2 7.47 7.47 0 0 1 1.122-4.257L4.296 5.71a1 1 0 0 1 1.415-1.415L23.705 22.29a1 1 0 0 1-1.414 1.414l-1.066-1.066Z" clip-rule="evenodd"/></svg>
