<svg xmlns="http://www.w3.org/2000/svg" width="28" height="28" fill="currentColor" viewBox="0 0 28 28"><path fill-rule="evenodd" d="M7 11.5a5.5 5.5 0 0 1 10.853-1.268 1 1 0 0 0 1.002.77L19 11a5 5 0 0 1 0 10h-1a1 1 0 1 0 0 2h1a7 7 0 0 0 .581-13.976A7.502 7.502 0 0 0 5.006 11.8 6 6 0 0 0 8 23h2a1 1 0 1 0 0-2H8a4 4 0 0 1-1.551-7.688 1 1 0 0 0 .602-1.058A5.558 5.558 0 0 1 7 11.5ZM13 24a1 1 0 1 0 2 0v-9.586l2.293 2.293a1 1 0 0 0 1.414-1.414l-4-4a1 1 0 0 0-1.414 0l-4 4a1 1 0 1 0 1.414 1.414L13 14.414V24Z" clip-rule="evenodd"/></svg>
