<svg fill="none" height="28" width="28" viewBox="0 0 28 28" xmlns="http://www.w3.org/2000/svg"><g clip-rule="evenodd" fill="currentColor" fill-rule="evenodd"><path d="M18.316 1.051a1 1 0 0 0-1.265.633l-.146.44a3.7 3.7 0 0 0 .2 2.823 1.7 1.7 0 0 1 .093 1.297l-.147.44a1 1 0 0 0 1.898.632l.146-.44a3.7 3.7 0 0 0-.2-2.823 1.699 1.699 0 0 1-.093-1.297l.147-.44a1 1 0 0 0-.633-1.265zM8.316 1.051a1 1 0 0 0-1.265.633l-.146.44a3.7 3.7 0 0 0 .2 2.823 1.7 1.7 0 0 1 .093 1.297l-.147.44a1 1 0 0 0 1.898.632l.146-.44a3.7 3.7 0 0 0-.2-2.823 1.7 1.7 0 0 1-.093-1.297l.147-.44a1 1 0 0 0-.633-1.265zM13.268.036a1 1 0 0 0-1.232.696l-.222.801a4 4 0 0 0 .162 2.609l.202.485a2 2 0 0 1 .08 1.305l-.222.8a1 1 0 1 0 1.927.536l.223-.801a4 4 0 0 0-.162-2.609l-.202-.485a2 2 0 0 1-.08-1.305l.221-.8a1 1 0 0 0-.695-1.232zM20.218 10.035C19.804 10 19.297 10 18.704 10H7.297c-.593 0-1.101 0-1.515.035-.434.037-.866.12-1.272.346a3 3 0 0 0-1.32 1.501c-.173.432-.2.871-.181 1.306.018.415.082.918.158 1.507l.385 2.994.025.192c.242 1.892.394 3.072.843 4.047a7 7 0 0 0 4.264 3.752C9.71 26 10.9 26 12.806 26h.388c1.907 0 3.097 0 4.122-.32a7 7 0 0 0 4.264-3.752c.092-.2.172-.409.243-.63l2.421-.727A3.867 3.867 0 0 0 23.134 13h-.138c.003-.373-.037-.749-.185-1.118a3 3 0 0 0-1.321-1.5c-.406-.227-.838-.31-1.272-.347zm2.23 7.654-.025.192c-.055.434-.106.83-.157 1.195l1.404-.42A1.867 1.867 0 0 0 23.133 15h-.339zm-16.495-5.66c-.309.026-.418.07-.467.098a1 1 0 0 0-.44.5c-.021.053-.052.167-.039.476.014.32.067.737.149 1.378l.38 2.953c.276 2.148.396 2.997.7 3.658a5 5 0 0 0 3.047 2.68c.694.217 1.551.228 3.717.228 2.166 0 3.023-.011 3.717-.229a5 5 0 0 0 3.047-2.68c.304-.66.424-1.51.7-3.657l.38-2.953c.083-.641.135-1.059.15-1.378.012-.31-.019-.423-.04-.475a1 1 0 0 0-.44-.5c-.049-.028-.158-.073-.466-.1-.319-.027-.74-.028-1.386-.028H7.338c-.646 0-1.067 0-1.385.028z"/></g></svg>
