<svg fill="none" height="28" viewBox="0 0 28 28" width="28" xmlns="http://www.w3.org/2000/svg" xmlns:xlink="http://www.w3.org/1999/xlink"><linearGradient id="a" gradientUnits="userSpaceOnUse" x1="-14" x2="14" y1="14" y2="42"><stop offset="0" stop-color="#50c750"/><stop offset="1" stop-color="#32b332"/></linearGradient><path d="m0 14c0-7.73199 6.26801-14 14-14 7.732 0 14 6.26801 14 14 0 7.732-6.268 14-14 14-7.73199 0-14-6.268-14-14z" fill="url(#a)"/><path d="m17.6284 8c.8247 0 1.1237.08586 1.4252.2471.3015.16123.5381.39784.6993.69932s.2471.60052.2471 1.42518v4.2568c0 .8247-.0859 1.1237-.2471 1.4252s-.3978.5381-.6993.6993-.6005.2471-1.4252.2471h-3.1294l-2.3423 2.6781c-.24.2743-.657.3021-.9313.062-.1432-.1253-.2254-.3063-.2254-.4967v-2.2434h-.6284c-.82466 0-1.1237-.0859-1.42518-.2471s-.53809-.3978-.69932-.6993c-.16124-.3015-.2471-.6005-.2471-1.4252v-4.2568c0-.82466.08586-1.1237.2471-1.42518.16123-.30148.39784-.53809.69932-.69932.30148-.16124.60052-.2471 1.42518-.2471z" fill="#fff"/></svg>
