<svg height="28" viewBox="0 0 28 28" width="28" xmlns="http://www.w3.org/2000/svg"><g fill="none" fill-rule="evenodd" transform=""><path d="m0 0h28v28h-28z"/><path d="m16.060288 20.3541248c.2977427-.260525.6799264-.4041248 1.0755575-.4041248h4.4474878c1.1701011 0 1.8666667-.6965656 1.8666667-1.8666667v-9.3333333c0-1.17010103-.6965656-1.86666669-1.8666667-1.86666669h-13.99999997c-1.17010102 0-1.86666669.69656566-1.86666669 1.86666669v9.3333333c0 1.1701011.69656567 1.8666667 1.86666669 1.8666667h2.91549997c.815855.2353117.815855.2353117 1.0511667 1.0511667v3.299979zm-5.752788 5.9337918c-.55067865-.413009-.85749997-1.1417096-.85749997-1.7879166v-2.45h-1.8666667c-2.32989897 0-3.96666664-1.6367677-3.96666664-3.9666667v-9.3333333c0-2.32989897 1.63676767-3.96666664 3.96666664-3.96666664h13.99999997c2.329899 0 3.9666667 1.63676767 3.9666667 3.96666664v9.3333333c0 2.329899-1.6367677 3.9666667-3.9666667 3.9666667h-4.2721448l-4.3455051 3.8023169c-.8549835.8385971-1.8539883 1.0387461-2.6581834.4355997z" fill="currentColor" fill-rule="nonzero"/></g></svg>
