<svg xmlns="http://www.w3.org/2000/svg" width="28" height="28" fill="currentColor" viewBox="0 0 28 28"><mask id="a"><path fill-rule="evenodd" d="M14.707 26.707a1 1 0 0 1-1.414 0l-2-2a1 1 0 0 1 1.414-1.414L14 24.586l1.293-1.293a1 1 0 0 1 1.414 1.414l-2 2Zm-13.414-12a1 1 0 0 1 0-1.414l2-2a1 1 0 0 1 1.414 1.414L3.414 14l1.293 1.293a1 1 0 1 1-1.414 1.414l-2-2Zm25.414-1.414a1 1 0 0 1 0 1.414l-2 2a1 1 0 0 1-1.414-1.414L24.586 14l-1.293-1.293a1 1 0 0 1 1.414-1.414l2 2Zm-13.414-12a1 1 0 0 1 1.414 0l2 2a1 1 0 0 1-1.414 1.414L14 3.414l-1.293 1.293a1 1 0 1 1-1.414-1.414l2-2ZM13.862 7c-.795 0-1.386 0-1.897.136a4 4 0 0 0-2.829 2.829C9 10.476 9 11.067 9 11.862V16a5 5 0 0 0 10 0v-4.138c0-.795 0-1.386-.136-1.897a4 4 0 0 0-2.829-2.829C15.524 7 14.933 7 14.138 7h-.276ZM14 9v4a1 1 0 0 1-1 1h-2v2a3 3 0 1 0 6 0v-4c0-.994-.009-1.295-.068-1.518a2 2 0 0 0-1.414-1.414C15.295 9.008 14.994 9 14 9Z" clip-rule="evenodd"/></mask><path fill-rule="evenodd" d="M14.707 26.707a1 1 0 0 1-1.414 0l-2-2a1 1 0 0 1 1.414-1.414L14 24.586l1.293-1.293a1 1 0 0 1 1.414 1.414l-2 2Zm-13.414-12a1 1 0 0 1 0-1.414l2-2a1 1 0 0 1 1.414 1.414L3.414 14l1.293 1.293a1 1 0 1 1-1.414 1.414l-2-2Zm25.414-1.414a1 1 0 0 1 0 1.414l-2 2a1 1 0 0 1-1.414-1.414L24.586 14l-1.293-1.293a1 1 0 0 1 1.414-1.414l2 2Zm-13.414-12a1 1 0 0 1 1.414 0l2 2a1 1 0 0 1-1.414 1.414L14 3.414l-1.293 1.293a1 1 0 1 1-1.414-1.414l2-2ZM13.862 7c-.795 0-1.386 0-1.897.136a4 4 0 0 0-2.829 2.829C9 10.476 9 11.067 9 11.862V16a5 5 0 0 0 10 0v-4.138c0-.795 0-1.386-.136-1.897a4 4 0 0 0-2.829-2.829C15.524 7 14.933 7 14.138 7h-.276ZM14 9v4a1 1 0 0 1-1 1h-2v2a3 3 0 1 0 6 0v-4c0-.994-.009-1.295-.068-1.518a2 2 0 0 0-1.414-1.414C15.295 9.008 14.994 9 14 9Z" clip-rule="evenodd"/><path d="m13.293 26.707-.707.707.707-.707Zm1.414 0 .707.707-.707-.707Zm-3.414-3.414L12 24l-.707-.707Zm1.414 0 .707-.707-.707.707ZM14 24.586l-.707.707a1 1 0 0 0 1.414 0L14 24.586Zm1.293-1.293-.707-.707.707.707Zm1.414 0 .707-.707-.707.707Zm0 1.414.707.707-.707-.707ZM1.293 13.293l-.707-.707.707.707Zm0 1.414-.707.707.707-.707Zm2-3.414-.707-.707.707.707Zm1.414 0L4 12l.707-.707Zm0 1.414.707.707-.707-.707ZM3.414 14l-.707-.707a1 1 0 0 0 0 1.414L3.414 14Zm1.293 1.293.707-.707-.707.707Zm0 1.414.707.707-.707-.707Zm-1.414 0-.707.707.707-.707Zm23.414-2 .707.707-.707-.707Zm0-1.414.707-.707-.707.707Zm-3.414 3.414L24 16l-.707.707Zm0-1.414-.707-.707.707.707ZM24.586 14l.707.707a1 1 0 0 0 0-1.414l-.707.707Zm-1.293-1.293-.707.707.707-.707Zm0-1.414-.707-.707.707.707Zm1.414 0 .707-.707-.707.707Zm-10-10 .707-.707-.707.707Zm-1.414 0-.707-.707.707.707Zm3.414 2 .707-.707-.707.707Zm0 1.414L16 4l.707.707Zm-1.414 0-.707.707.707-.707ZM14 3.414l.707-.707a1 1 0 0 0-1.414 0l.707.707Zm-1.293 1.293.707.707-.707-.707Zm-1.414 0-.707.707.707-.707Zm0-1.414-.707-.707.707.707ZM13.863 7l-.001 1V7Zm-1.898.136-.26-.966.26.966ZM9.136 9.965l-.966-.26.966.26ZM9 11.862h1-1ZM9 16h1-1Zm10 0h-1 1Zm0-4.138h-1 1Zm-.136-1.897.966-.26-.966.26Zm-2.829-2.829-.258.966.258-.966ZM14.138 7v1-1ZM14 9V8h-1v1h1Zm-3 5v-1h-1v1h1Zm5.932-3.518.966-.258-.966.258Zm-1.414-1.414.258-.966-.258.966Zm-2.932 18.346a2 2 0 0 0 2.828 0L14 26l-1.414 1.414Zm-2-2 2 2L14 26l-2-2-1.414 1.414Zm0-2.828a2 2 0 0 0 0 2.828L12 24l-1.414-1.414Zm2.828 0a2 2 0 0 0-2.828 0L12 24l1.414-1.414Zm1.293 1.293-1.293-1.293L12 24l1.293 1.293 1.414-1.414Zm-.121-1.293-1.293 1.293 1.414 1.414L16 24l-1.414-1.414Zm2.828 0a2 2 0 0 0-2.828 0L16 24l1.414-1.414Zm0 2.828a2 2 0 0 0 0-2.828L16 24l1.414 1.414Zm-2 2 2-2L16 24l-2 2 1.414 1.414ZM.586 12.586a2 2 0 0 0 0 2.828L2 14 .586 12.586Zm2-2-2 2L2 14l2-2-1.414-1.414Zm2.828 0a2 2 0 0 0-2.828 0L4 12l1.414-1.414Zm0 2.828a2 2 0 0 0 0-2.828L4 12l1.414 1.414Zm-1.293 1.293 1.293-1.293L4 12l-1.293 1.293 1.414 1.414Zm1.293-.121-1.293-1.293-1.414 1.414L4 16l1.414-1.414Zm0 2.828a2 2 0 0 0 0-2.828L4 16l1.414 1.414Zm-2.828 0a2 2 0 0 0 2.828 0L4 16l-1.414 1.414Zm-2-2 2 2L4 16l-2-2-1.414 1.414Zm26.828 0a2 2 0 0 0 0-2.828L26 14l1.414 1.414Zm-2 2 2-2L26 14l-2 2 1.414 1.414Zm-2.828 0a2 2 0 0 0 2.828 0L24 16l-1.414 1.414Zm0-2.828a2 2 0 0 0 0 2.828L24 16l-1.414-1.414Zm1.293-1.293-1.293 1.293L24 16l1.293-1.293-1.414-1.414Zm-1.293.121 1.293 1.293 1.414-1.414L24 12l-1.414 1.414Zm0-2.828a2 2 0 0 0 0 2.828L24 12l-1.414-1.414Zm2.828 0a2 2 0 0 0-2.828 0L24 12l1.414-1.414Zm2 2-2-2L24 12l2 2 1.414-1.414Zm-12-12a2 2 0 0 0-2.828 0L14 2 15.414.586Zm2 2-2-2L14 2l2 2 1.414-1.414Zm0 2.828a2 2 0 0 0 0-2.828L16 4l1.414 1.414Zm-2.828 0a2 2 0 0 0 2.828 0L16 4l-1.414 1.414Zm-1.293-1.293 1.293 1.293L16 4l-1.293-1.293-1.414 1.414Zm.121 1.293 1.293-1.293-1.414-1.414L12 4l1.414 1.414Zm-2.828 0a2 2 0 0 0 2.828 0L12 4l-1.414 1.414Zm0-2.828a2 2 0 0 0 0 2.828L12 4l-1.414-1.414Zm2-2-2 2L12 4l2-2L12.586.586Zm-.363 7.516c.357-.095.8-.103 1.639-.102l.001-2c-.751 0-1.49-.008-2.157.17l.518 1.932Zm-2.12 2.121a3 3 0 0 1 2.12-2.12l-.517-1.933A5 5 0 0 0 8.17 9.706l1.932.518ZM10 11.862c0-.84.007-1.282.102-1.639L8.17 9.707c-.178.666-.17 1.406-.17 2.157l2-.001ZM14 20a4 4 0 0 1-4-4H8a6 6 0 0 0 6 6v-2Zm4-4a4 4 0 0 1-4 4v2a6 6 0 0 0 6-6h-2Zm-.102-5.777c.095.357.102.8.102 1.639l2 .001c0-.751.008-1.49-.17-2.157l-1.932.518Zm-2.121-2.12a3 3 0 0 1 2.12 2.12l1.933-.517a5 5 0 0 0-3.536-3.536l-.518 1.932ZM14.138 8c.84 0 1.282.007 1.639.102l.517-1.932c-.666-.178-1.406-.17-2.157-.17l.001 2ZM13 9v4h2V9h-2Zm0 4v2a2 2 0 0 0 2-2h-2Zm0 0h-2v2h2v-2Zm-3 1v2h2v-2h-2Zm0 2a4 4 0 0 0 4 4v-2a2 2 0 0 1-2-2h-2Zm4 4a4 4 0 0 0 4-4h-2a2 2 0 0 1-2 2v2Zm4-4v-4h-2v4h2Zm0-4c0-.922 0-1.393-.102-1.777l-1.932.518c.002.007.015.053.023.253.009.202.011.505.011 1.006h2Zm-.102-1.777a3 3 0 0 0-2.121-2.12l-.518 1.931a1 1 0 0 1 .707.707l1.932-.518Zm-2.121-2.12C15.393 8 14.921 8 14 8v2c.502 0 .804.002 1.006.01.2.01.246.022.253.024l.518-1.932ZM13.861 8h.276V6h-.276v2ZM10 16v-4.138H8V16h2Zm8-4.138V16h2v-4.138h-2Z" mask="url(#a)"/></svg>
