<svg fill="none" height="28" viewBox="0 0 28 28" width="28" xmlns="http://www.w3.org/2000/svg"><path clip-rule="evenodd" d="m9.4 20h1.2349l-.3809 3h-3.254c-.55228 0-1 .4477-1 1s.44772 1 1 1h14c.5523 0 1-.4477 1-1s-.4477-1-1-1h-3.254l-.3809-3h1.2349c2.2402 0 3.3603 0 4.216-.436.7526-.3835 1.3645-.9954 1.748-1.748.436-.8557.436-1.9758.436-4.216v-3.2c0-2.24021 0-3.36031-.436-4.21596-.3835-.75265-.9954-1.36457-1.748-1.74807-.8557-.43597-1.9758-.43597-4.216-.43597h-9.2c-2.24021 0-3.36032 0-4.21596.43597-.75265.3835-1.36457.99542-1.74807 1.74807-.43597.85565-.43597 1.97575-.43597 4.21596v3.2c0 2.2402 0 3.3603.43597 4.216.3835.7526.99542 1.3645 1.74807 1.748.85564.436 1.97575.436 4.21596.436zm13.6-6.4v-3.2c0-1.15311-.0016-1.89765-.0479-2.46433-.0443-.54332-.1197-.74476-.1701-.84365-.1917-.37632-.4977-.68229-.874-.87403-.0989-.05039-.3003-.12574-.8437-.17013-.5666-.0463-1.3112-.04786-2.4643-.04786h-9.2c-1.15311 0-1.89765.00156-2.46433.04785-.54332.0444-.74476.11975-.84365.17014-.37633.19174-.68229.4977-.87403.87403-.05039.09889-.12574.30033-.17013.84365-.04631.56668-.04786 1.31122-.04786 2.46433v3.2c0 1.1531.00155 1.8977.04785 2.4643.0444.5434.11975.7448.17014.8437.19174.3763.4977.6823.87403.874.09889.0504.30032.1258.84365.1701.56668.0463 1.31122.0479 2.46433.0479h9.2c1.1531 0 1.8977-.0016 2.4643-.0479.5434-.0443.7448-.1197.8437-.1701.3763-.1917.6823-.4977.874-.874.0504-.0989.1258-.3003.1701-.8437.0463-.5666.0479-1.3112.0479-2.4643zm-7.27 9.4-.381-3h-2.698l-.381 3z" fill="currentColor" fill-rule="evenodd"/></svg>
