<svg fill="none" height="28" viewBox="0 0 28 28" width="28" xmlns="http://www.w3.org/2000/svg" xmlns:xlink="http://www.w3.org/1999/xlink"><linearGradient id="a" gradientUnits="userSpaceOnUse" x1="-14" x2="14" y1="14" y2="42"><stop offset="0" stop-color="#70b2ff"/><stop offset="1" stop-color="#5c9ce6"/></linearGradient><path d="m0 14c0-7.73199 6.26801-14 14-14 7.732 0 14 6.26801 14 14 0 7.732-6.268 14-14 14-7.73199 0-14-6.268-14-14z" fill="url(#a)"/><path d="m11.1965 10.966c.0923-.0635.1809-.1083.4447-.2029l7.6065-2.72686c.2911-.10437.6118.04704.7161.33818.0438.12217.0438.25577 0 .37795l-2.7268 7.60653c-.0946.2638-.1394.3524-.203.4447-.0635.0923-.138.1669-.2304.2304-.0923.0635-.1808.1083-.4447.2029l-7.60648 2.7269c-.29114.1044-.61176-.047-.71613-.3382-.0438-.1222-.0438-.2558 0-.3779l2.72681-7.6065c.0946-.2639.1394-.3524.203-.4448.0635-.0923.1381-.1668.2304-.2304zm1.5661 1.7966c-.6834.6834-.6834 1.7914 0 2.4749.6834.6834 1.7915.6834 2.4749 0 .6834-.6835.6834-1.7915 0-2.4749s-1.7915-.6834-2.4749 0z" fill="#fff"/></svg>
