<svg fill="none" height="28" viewBox="0 0 28 28" width="28" xmlns="http://www.w3.org/2000/svg" xmlns:xlink="http://www.w3.org/1999/xlink"><linearGradient id="a" gradientUnits="userSpaceOnUse" x1="-14" x2="14" y1="14" y2="42"><stop offset="0" stop-color="#937ff5"/><stop offset="1" stop-color="#735ce6"/></linearGradient><rect fill="url(#a)" height="28" rx="14" width="28"/><path clip-rule="evenodd" d="m22 14c0 4.4183-3.5817 8-8 8-4.41828 0-8-3.5817-8-8 0-4.41828 3.58172-8 8-8 4.4183 0 8 3.58172 8 8zm-10.2214-1.3359-1.3991 4.1975c-.1564.469.2899.9153.7589.7589l4.1975-1.3991c.4181-.1394.7461-.4674.8855-.8855l1.3991-4.1975c.1564-.469-.2899-.9153-.7589-.7589l-4.1975 1.3991c-.4181.1394-.7461.4674-.8855.8855zm2.2214 2.3359c.5523 0 1-.4477 1-1s-.4477-1-1-1-1 .4477-1 1 .4477 1 1 1z" fill="#fff" fill-rule="evenodd"/></svg>
