<?xml version="1.0" encoding="UTF-8"?>
<svg width="28px" height="28px" viewBox="0 0 28 28" version="1.1" xmlns="http://www.w3.org/2000/svg" xmlns:xlink="http://www.w3.org/1999/xlink">
    <!-- Generator: Sketch 62 (91390) - https://sketch.com -->
    <title>Icons 28/copy_outline_28</title>
    <desc>Created with Sketch.</desc>
    <g id="Icons-28/copy_outline_28" stroke="none" stroke-width="1" fill="none" fill-rule="evenodd">
        <g id="copy_outline_28">
            <polygon points="0 0 28 0 28 28 0 28"></polygon>
            <path d="M20.1541722,6 C21.4914503,6 21.9763797,6.13923842 22.4652686,6.40069906 C22.9541574,6.66215969 23.3378403,7.04584256 23.5993009,7.53473144 L23.6915863,7.71955165 C23.8933956,8.15817062 24,8.67570945 24,9.8458278 L24,21.1541722 C24,22.4914503 23.8607616,22.9763797 23.5993009,23.4652686 C23.3378403,23.9541574 22.9541574,24.3378403 22.4652686,24.5993009 L22.2804483,24.6915863 C21.8418294,24.8933956 21.3242905,25 20.1541722,25 L10.8458278,25 C9.50854969,25 9.02362033,24.8607616 8.53473144,24.5993009 C8.04584256,24.3378403 7.66215969,23.9541574 7.40069906,23.4652686 L7.30841372,23.2804483 C7.10660441,22.8418294 7,22.3242905 7,21.1541722 L7,9.8458278 C7,8.50854969 7.13923842,8.02362033 7.40069906,7.53473144 C7.66215969,7.04584256 8.04584256,6.66215969 8.53473144,6.40069906 L8.71955165,6.30841372 C9.1268407,6.12101936 9.60217799,6.01571494 10.6048676,6.00162755 L20.1541722,6 Z M20.3403824,8.00067564 L10.6596176,8.00067564 L10.3447575,8.00630613 C9.83229487,8.02213425 9.65569942,8.06925288 9.47792916,8.16432545 C9.33757722,8.23938649 9.23938649,8.33757722 9.16432545,8.47792916 C9.05196696,8.68802128 9.00658546,8.89647256 9.00067564,9.65961756 L9.00067564,21.3403824 L9.00630613,21.6552425 C9.02213425,22.1677051 9.06925288,22.3443006 9.16432545,22.5220708 C9.23938649,22.6624228 9.33757722,22.7606135 9.47792916,22.8356745 C9.67186035,22.9393901 9.86439342,22.9860365 10.4931006,22.9972474 L10.8458278,23 L20.1541722,23 C21.0714677,23 21.2958178,22.956676 21.5220708,22.8356745 C21.6624228,22.7606135 21.7606135,22.6624228 21.8356745,22.5220708 C21.9393901,22.3281397 21.9860365,22.1356066 21.9972474,21.5068994 L22,21.1541722 L22,9.8458278 C22,8.92853228 21.956676,8.70418221 21.8356745,8.47792916 C21.7606135,8.33757722 21.6624228,8.23938649 21.5220708,8.16432545 C21.3281397,8.06060992 21.1356066,8.01396354 20.5068994,8.00275265 L20.3403824,8.00067564 Z M16.1541722,2 C17.4914503,2 17.9763797,2.13923842 18.4652686,2.40069906 C18.9541574,2.66215969 19.3378403,3.04584256 19.5993009,3.53473144 L19.6915863,3.71955165 C19.7323362,3.80811894 19.7692044,3.89990403 19.802097,3.99962985 L10.1277704,4 C8.34473292,4 7.69816044,4.18565122 7.04630859,4.53426541 C6.39445674,4.88287959 5.88287959,5.39445674 5.53426541,6.04630859 C5.20399934,6.66385245 5.01999365,7.27665804 5.0015395,8.85551601 L5,9.1277704 L4.99962985,19.802097 C4.82934971,19.7459335 4.68222076,19.6781791 4.53473144,19.5993009 C4.04584256,19.3378403 3.66215969,18.9541574 3.40069906,18.4652686 L3.30841372,18.2804483 C3.10660441,17.8418294 3,17.3242905 3,16.1541722 L3,9.3343591 C3,7.08855868 3.27847683,6.04724067 3.80139811,5.06946289 C4.32431939,4.09168511 5.09168511,3.32431939 6.06946289,2.80139811 C7.04724067,2.27847683 8.08855868,2 10.3343591,2 L16.1541722,2 Z" id="↳-Icon-Color" fill="currentColor" fill-rule="nonzero"></path>
        </g>
    </g>
</svg>
