<svg xmlns="http://www.w3.org/2000/svg" width="29" height="28" fill="none" viewBox="0 0 29 28"><path fill="currentColor" d="M15.707 8.6898C16.4779 8.264 17 7.443 17 6.5 17 5.1193 15.8807 4 14.5 4S12 5.1193 12 6.5c0 .943.5221 1.764 1.293 2.1898L9.965 13.349c-.1628.2279-.2441.3418-.3507.3972a.5005.5005 0 0 1-.3048.0508c-.1187-.0178-.2326-.0992-.4605-.262l-2.6314-1.8796A2.4894 2.4894 0 0 0 6.5 10.5C6.5 9.1193 5.3807 8 4 8s-2.5 1.1193-2.5 2.5c0 1.2773.9579 2.3308 2.1944 2.4815L5.2 18h18.6l1.5055-5.0185C26.5421 12.8308 27.5 11.7773 27.5 10.5 27.5 9.1193 26.3807 8 25 8s-2.5 1.1193-2.5 2.5c0 .4168.102.8098.2824 1.1554L20.151 13.535c-.2279.1628-.3418.2442-.4605.262a.5005.5005 0 0 1-.3048-.0508c-.1065-.0554-.1879-.1693-.3507-.3972l-3.328-4.6592ZM10.5713 24c-1.2814 0-1.922 0-2.4626-.2183a2.9994 2.9994 0 0 1-1.2182-.9064c-.3644-.455-.5485-1.0687-.9167-2.296L5.8 20h17.4l-.1738.5793c-.3682 1.2273-.5523 1.841-.9167 2.296a2.999 2.999 0 0 1-1.2182.9064C20.3508 24 19.7101 24 18.4287 24h-7.8574Z"/></svg>
