<svg xmlns="http://www.w3.org/2000/svg" width="28" height="28" fill="currentColor" viewBox="0 0 28 28"><path d="M15.207 8.69a2.5 2.5 0 1 0-2.414 0l-3.328 4.659c-.163.228-.244.342-.35.397a.5.5 0 0 1-.305.051c-.12-.018-.233-.1-.461-.262l-2.631-1.88a2.5 2.5 0 1 0-2.523 1.326L4.7 18h18.6l1.505-5.018a2.5 2.5 0 1 0-2.523-1.327l-2.631 1.88c-.228.163-.342.244-.46.262a.5.5 0 0 1-.305-.05c-.107-.056-.188-.17-.351-.398l-3.328-4.66ZM10.071 24c-1.281 0-1.922 0-2.462-.218a3 3 0 0 1-1.219-.907c-.364-.455-.548-1.068-.916-2.296L5.3 20h17.4l-.174.58c-.368 1.227-.552 1.84-.916 2.295a2.999 2.999 0 0 1-1.219.907c-.54.218-1.18.218-2.462.218H10.07Z"/></svg>
