<svg fill="none" height="28" viewBox="0 0 28 28" width="28" xmlns="http://www.w3.org/2000/svg"><path clip-rule="evenodd" d="m17.0431 2h-6.0863c-.6597-.00002-1.22046-.00003-1.68382.04192-.49082.04444-.95362.14114-1.39728.38193-.66005.35823-1.23989.99065-1.53962 1.67924-.26102.59964-.28949 1.23341-.24859 1.95394-.62354-.11135-1.27594-.05293-1.84813.14245-1.19411.40774-2.23936 1.47468-2.23936 3.13385 0 1.56777.93465 2.99277 2.14924 3.98327 1.0261.8368 2.34867 1.449 3.75456 1.6289.16962.4025.35116.7854.54483 1.1471.72059 1.3455 1.64547 2.4523 2.78547 3.1402-.033.5536-.1136.931-.2039 1.1952-.1116.3268-.2501.5176-.4002.6851-.0615.0688-.1143.1225-.1796.1892-.0345.0351-.0725.0738-.1172.1202-.1133.1178-.2552.2714-.38499.461-.28802.4209-.44821.9169-.44821 1.5665l.00001 1.55c.00001.5523.44772 1 .99999 1h7c.5523 0 1-.4477 1-1v-1.55c0-.6496-.1602-1.1456-.4482-1.5665-.1298-.1896-.2717-.3432-.3851-.461-.0446-.0464-.0825-.0851-.117-.1202-.0654-.0666-.1182-.1204-.1798-.1892-.15-.1675-.2885-.3583-.4001-.6851-.0903-.2642-.1709-.6416-.2039-1.1953 1.1399-.6879 2.0648-1.7947 2.7853-3.1401.1937-.3617.3752-.7446.5449-1.147 1.4059-.18 2.7285-.7921 3.7547-1.629 1.2146-.9905 2.1492-2.4155 2.1492-3.98327 0-1.65917-1.0453-2.72611-2.2394-3.13385-.5722-.19539-1.2247-.25381-1.8482-.14243.0409-.72053.0124-1.35431-.2486-1.95396-.2998-.68859-.8796-1.32101-1.5396-1.67924-.4437-.24079-.9065-.33749-1.3973-.38193-.4634-.04195-1.0241-.04194-1.6838-.04192zm-2.2195 17.9389c-.2661.0403-.5407.0611-.8237.0611-.2829 0-.5574-.0208-.8235-.061-.0555.4327-.1412.8066-.2535 1.1354-.2165.6339-.5155 1.052-.803 1.3729-.0929.1039-.1973.2104-.2758.2905-.0268.0273-.0506.0516-.0699.0717-.0917.0953-.1412.1535-.1755.2036-.0401.0586-.0987.1532-.0987.4369v.55h5v-.55c0-.2837-.0586-.3783-.0987-.4369-.0343-.0501-.0838-.1084-.1755-.2036-.0067-.007-.014-.0145-.0218-.0225-.0145-.0149-.0306-.0314-.0481-.0492-.0785-.0801-.1829-.1866-.2759-.2905-.2874-.3209-.5864-.739-.8029-1.3729-.1123-.3288-.198-.7027-.2535-1.1355zm7.7631-8.1722c-.5015.4091-1.0941.74-1.7249.9556.3775-1.3514.6573-2.8432.845-4.43213.2502-.25016.8208-.39835 1.4076-.19798.5142.17558.8856.56696.8856 1.24114 0 .76557-.482 1.67387-1.4133 2.43337zm-15.44865.9556c-.3775-1.3514-.65729-2.84314-.845-4.432-.25017-.25016-.82062-.39848-1.40741-.19811-.51423.17558-.88564.56696-.88564 1.24114 0 .76557.48202 1.67387 1.41326 2.43337.50155.409 1.09402.7399 1.72479.9556zm1.69166-8.54065c.11417-.06196.27852-.11663.62362-.14788.36249-.03282.83207-.03377 1.54657-.03377h6c.7145 0 1.1841.00095 1.5466.03377.3451.03125.5095.08592.6236.14788.268.14544.5382.44011.6599.71968.1287.29559.1276.63019.0078 2.00796-.2982 3.43091-1.0008 6.28051-2.0497 8.23901-1.0444 1.9502-2.325 2.8517-3.7882 2.8517-1.4631 0-2.7438-.9015-3.7882-2.8517-1.04888-1.9585-1.75148-4.8081-2.04965-8.23901-.11974-1.37777-.12085-1.71237.00782-2.00796.1217-.27957.39186-.57424.65984-.71968z" fill="currentColor" fill-rule="evenodd"/></svg>
