<?xml version="1.0" encoding="UTF-8"?>
<svg width="28px" height="28px" viewBox="0 0 28 28" version="1.1" xmlns="http://www.w3.org/2000/svg" xmlns:xlink="http://www.w3.org/1999/xlink">
    <!-- Generator: Sketch 63.1 (92452) - https://sketch.com -->
    <title>delete_outline_28</title>
    <desc>Created with Sketch.</desc>
    <g id="Page-1" stroke="none" stroke-width="1" fill="none" fill-rule="evenodd">
        <g id="delete_outline_28" fill-rule="nonzero">
            <rect x="0" y="0" width="28" height="28"></rect>
            <path d="M14,1.5 C16.3763544,1.5 17.9251831,2.73357979 18.4217432,4.99952861 L24.5,5 C25.0522847,5 25.5,5.44771525 25.5,6 C25.5,6.55228475 25.0522847,7 24.5,7 L23.395,7 L21.7827311,22.3140544 C21.6220111,23.8408945 20.3344906,25 18.7992148,25 L9.20078524,25 C7.66550944,25 6.3779889,23.8408945 6.21726888,22.3140544 L4.605,7 L3.5,7 C2.94771525,7 2.5,6.55228475 2.5,6 C2.5,5.44771525 2.94771525,5 3.5,5 L9.57825683,4.99952861 C10.0748169,2.73357979 11.6236456,1.5 14,1.5 Z M21.383,7 L6.616,7 L8.20627979,22.1046848 C8.25985312,22.6136315 8.68902664,23 9.20078524,23 L18.7992148,23 C19.3109734,23 19.7401469,22.6136315 19.7937202,22.1046848 L21.383,7 Z M14,9 C14.5522847,9 15,9.44771525 15,10 L15,20 C15,20.5522847 14.5522847,21 14,21 C13.4477153,21 13,20.5522847 13,20 L13,10 C13,9.44771525 13.4477153,9 14,9 Z M18.0499376,9.00124766 C18.6015333,9.02882745 19.0263321,9.49834193 18.9987523,10.0499376 L18.4987523,20.0499376 C18.4711726,20.6015333 18.0016581,21.0263321 17.4500624,20.9987523 C16.8984667,20.9711726 16.4736679,20.5016581 16.5012477,19.9500624 L17.0012477,9.95006238 C17.0288274,9.3984667 17.4983419,8.97366788 18.0499376,9.00124766 Z M9.95006238,9.00124766 C10.5016581,8.97366788 10.9711726,9.3984667 10.9987523,9.95006238 L11.4987523,19.9500624 C11.5263321,20.5016581 11.1015333,20.9711726 10.5499376,20.9987523 C9.99834193,21.0263321 9.52882745,20.6015333 9.50124766,20.0499376 L9.00124766,10.0499376 C8.97366788,9.49834193 9.3984667,9.02882745 9.95006238,9.00124766 Z M14,3.5 C12.7332933,3.5 12.0003262,3.9541117 11.6478259,4.99955927 L16.3521741,4.99955927 C15.9996738,3.9541117 15.2667067,3.5 14,3.5 Z" id="↳-Icon-Color" fill="currentColor"></path>
        </g>
    </g>
</svg>
