<svg xmlns="http://www.w3.org/2000/svg" width="28" height="28" fill="currentColor" viewBox="0 0 28 28"><path fill-rule="evenodd" d="M11.708 5a2.5 2.5 0 0 1 4.584 0h-4.584ZM9.612 5H3.5a1 1 0 0 0 0 2h1.096l1.298 12.823c.073.73.135 1.334.224 1.826.092.513.227.98.488 1.414a4 4 0 0 0 1.72 1.554c.502.238 1.032.32 1.614.355.17.01.35.017.539.02a1 1 0 0 0 .042-1.999c-.172-.004-.324-.01-.46-.017-.48-.03-.715-.089-.881-.167a2 2 0 0 1-.86-.778c-.086-.142-.163-.344-.234-.738-.074-.406-.128-.932-.206-1.71L6.606 7h14.788l-.243 2.4a1 1 0 0 0 1.99.2l.263-2.6H24.5a1 1 0 1 0 0-2h-6.112a4.502 4.502 0 0 0-8.776 0ZM19 24a5 5 0 1 0 0-10 5 5 0 0 0 0 10Zm0 2a7 7 0 1 0 0-14 7 7 0 0 0 0 14Zm1-9a1 1 0 1 0-2 0v2.929a1 1 0 0 0 .725.961l1.5.429a1 1 0 0 0 .55-1.923L20 19.174V17Z" clip-rule="evenodd"/></svg>
