<?xml version="1.0" encoding="UTF-8"?>
<svg width="28px" height="28px" viewBox="0 0 28 28" version="1.1" xmlns="http://www.w3.org/2000/svg" xmlns:xlink="http://www.w3.org/1999/xlink">
    <!-- Generator: Sketch 59 (86127) - https://sketch.com -->
    <title>Icons 28/delete_outline_28 Android</title>
    <desc>Created with Sketch.</desc>
    <g id="Icons-28/delete_outline_28-Android" stroke="none" stroke-width="1" fill="none" fill-rule="evenodd">
        <g id="delete_outline_28">
            <polygon points="0 0 28 0 28 28 0 28"></polygon>
            <path d="M22,10 L22,20.5 C22,22.9852814 19.9852814,25 17.5,25 L10.5,25 C8.01471863,25 6,22.9852814 6,20.5 L6,10 L5.29019375,10 C4.57763942,10 4,9.42236058 4,8.70980625 L4,7.25 C4,5.73121694 5.23121694,4.5 6.75,4.5 L8.40116029,4.5 C8.92485854,3.59341771 9.90308988,3 11,3 L17,3 C18.0969101,3 19.0751415,3.59341771 19.5988397,4.5 L21.25,4.5 C22.7687831,4.5 24,5.73121694 24,7.25 L24,8.70980625 C24,9.42236058 23.4223606,10 22.7098062,10 L22,10 Z M21,8 L22,8 L22,7.25 C22,6.83578644 21.6642136,6.5 21.25,6.5 L18.9369913,6.5 C18.4807078,6.5 18.0822868,6.1911402 17.9685543,5.74925846 C17.8560364,5.31209612 17.4588624,5 17,5 L11,5 C10.5411376,5 10.1439636,5.31209612 10.0314457,5.74925846 C9.91771324,6.1911402 9.51929216,6.5 9.06300874,6.5 L6.75,6.5 C6.33578644,6.5 6,6.83578644 6,7.25 L6,8 L7,8 L21,8 Z M8,10 L8,20.5 C8,21.8807119 9.11928813,23 10.5,23 L17.5,23 C18.8807119,23 20,21.8807119 20,20.5 L20,10 L8,10 Z" id="↳-Icon-Color" fill="currentColor" fill-rule="nonzero"></path>
        </g>
    </g>
</svg>
