<svg height="28" viewBox="0 0 28 28" width="28" xmlns="http://www.w3.org/2000/svg"><g fill="none" fill-rule="evenodd"><path d="m0 0h28v28h-28z"/><path d="m8.8458278 9 2.573552.00181725c1.1974031.01712394 1.8452236.15753789 2.5174876.51706861.6631574.35466044 1.1895863.88108934 1.5442467 1.54424674.3852115.7202828.5188859 1.4125056.5188859 2.7826952v7.3083444c0 1.3701896-.1336744 2.0624124-.5188859 2.7826952-.3546604.6631574-.8810893 1.1895863-1.5442467 1.5442467-.7202828.3852115-1.4125056.5188859-2.7826952.5188859h-2.3083444c-1.37018965 0-2.06241236-.1336744-2.78269521-.5188859-.66315737-.3546604-1.18958629-.8810893-1.54424673-1.5442467-.38521149-.7202828-.51888586-1.4125056-.51888586-2.7826952l.00181725-7.573552c.01712394-1.1974031.15753789-1.8452236.51706861-2.5174876.35466044-.6631574.88108936-1.1895863 1.54424673-1.54424674.72028285-.38521149 1.41250556-.51888586 2.78269521-.51888586zm9.0264018-7c1.776598 0 2.6475757.16819357 3.5530607.65245221.8261203.44181398 1.4804435 1.0961372 1.9222575 1.92225752.4557728.85222112.6315711 1.67387534.6506761 3.24875293l.0017761.30430774v11.7444592c0 1.776598-.1681936 2.6475757-.6524522 3.5530607-.441814.8261203-1.0961372 1.4804435-1.9222575 1.9222575-.88413.4728379-1.7317817.6430423-3.4159609.6521042-.5522768.002952-1.0023906-.4423518-1.0053573-.9946286s.4423371-1.0023906.9946139-1.0053573c1.3844471-.007437 1.9217825-.1153314 2.4835065-.4157447.4775834-.2554144.8464145-.6242455 1.1018289-1.1018289.2718694-.5083515.3879059-1.0034139.4114457-2.1258912l.0046329-.4839717v-11.7444592l-.0046329-.48397172c-.0235398-1.12247723-.1395763-1.6175397-.4114457-2.12589123-.2554144-.47758338-.6242455-.84641446-1.1018289-1.10182884-.5083515-.27186938-1.0034139-.3879059-2.1255406-.4114458l-.483812-.00463281-3.0055364.0014712c-1.289525.01507234-1.8035325.12272986-2.349296.41460741-.4775834.25541438-.8464145.62424546-1.1018289 1.10182884-.0998115.18663136-.1690646.34671838-.2228703.52565636l-.0492161.18690294c-.1237413.53824394-.6603864.87426472-1.19863032.75052341-.53824393-.1237413-.87426471-.66038637-.75052341-1.1986303.10218345-.4444726.24492409-.80995505.45761374-1.20765013.44181399-.82612032 1.09613719-1.48044354 1.92225749-1.92225752.8066083-.43137883 1.5794601-.6096529 2.9895769-.64559014l.2907191-.00532244zm-6.7180574 9-2.526982.0011468c-.90400648.0100367-1.25785379.0872277-1.6208599.2813655-.31462041.1682608-.55555721.4091976-.72381805.723818-.20907146.3909297-.28251225.7712373-.28251225 1.8394975v7.3083444c0 1.0682602.07344079 1.4485678.28251225 1.8394975.16826084.3146204.40919764.5555572.72381805.723818.33508256.1792042.66236118.2587612 1.42175457.2778346l.41774293.0046777h2.3083444c1.0682602 0 1.4485678-.0734408 1.8394975-.2825123.3146204-.1682608.5555572-.4091976.723818-.723818.1792042-.3350826.2587612-.6623612.2778346-1.4217546l.0046777-.4177429v-7.3083444c0-1.0682602-.0734408-1.4485678-.2825123-1.8394975-.1682608-.3146204-.4091976-.5555572-.723818-.723818-.3909297-.2090715-.7712373-.2825123-1.8394975-.2825123z" fill="currentColor" fill-rule="nonzero"/></g></svg>
