<svg fill="none" height="28" viewBox="0 0 28 28" width="28" xmlns="http://www.w3.org/2000/svg"><path clip-rule="evenodd" d="m10.0625 4c-.15315 0-.30426.03518-.44167.10283l-4.0498 1.99375c-.1596.07561-.30083.19419-.40457.35097-.00928.01401-.01821.02825-.02678.04271l-2.98501 4.97504c-.00504.008-.00998.016-.01481.0242-.04015.0675-.07165.1387-.09452.2121-.02336.0746-.03756.1507-.04296.2268-.00795.1093.00233.2171.02879.3199.02667.1045.07048.2055.13141.2986.04086.0627.08911.1213.14438.1743l10.98044 10.9804c.0128.013.026.0257.0395.038.1715.1563.3843.2423.6012.2578l.0239.0015.0023.0001c.0152.0007.0305.001.0457.001.0285 0 .057-.0012.0855-.0036.2121-.0181.4196-.1037.5876-.2568.0135-.0123.0267-.025.0395-.038l10.9803-10.9803c.0049-.0047.0097-.0094.0144-.0142.0649-.0647.1194-.137.1632-.2144.0422-.0745.0742-.1534.0958-.2345.0296-.1104.0405-.2268.0301-.3447-.0081-.0948-.0299-.1893-.0658-.2802-.0179-.0455-.0393-.09-.0641-.133-.0185-.0321-.0386-.0628-.0602-.0923l-3.487-4.98146c-.0935-.1335-.2136-.23718-.3482-.30889l-3.5441-1.98963c-.1495-.08394-.318-.12802-.4895-.12802zm11.0583 4.20197-3.3898 1.23264 1.2054 3.21429c.001.0027.002.0053.0029.008l4.4321-1.2397zm-4.1888 4.79803-1.125-3h-3.614l-1.125 3zm-7.87128-.3431c.00098-.0027.00197-.0053.00298-.008l1.1912-3.17652-3.8101-1.27002-1.91269 3.18784zm-.43401-5.83543 1.66859-.82147h7.3807l1.434.80504-3.2862 1.19496h-3.6615zm2.27219 11.66313-4.49384-4.4938 2.85099.7975zm3.1011 2.0532-2.4612-5.5378h4.9224zm3.1011-2.0532 1.6428-3.6963 2.851-.7974z" fill="currentColor" fill-rule="evenodd"/>
</svg>