<svg width="28" height="28" viewBox="0 0 28 28" fill="none" xmlns="http://www.w3.org/2000/svg">
<path fill-rule="evenodd" clip-rule="evenodd" d="M15.3999 5H12.5999C10.8867 5 9.72213 5.00156 8.82195 5.0751C7.94512 5.14674 7.49672 5.27659 7.18392 5.43597C6.43127 5.81947 5.81935 6.43139 5.43585 7.18404C5.27647 7.49684 5.14662 7.94525 5.07498 8.82208C5.00143 9.72226 4.99988 10.8868 4.99988 12.6V15.4C4.99988 17.1132 5.00143 18.2777 5.07498 19.1779C5.14662 20.0548 5.27647 20.5032 5.43585 20.816C5.81935 21.5686 6.43127 22.1805 7.18392 22.564C7.49672 22.7234 7.94512 22.8533 8.82195 22.9249C9.72213 22.9984 10.8867 23 12.5999 23H15.3999C17.113 23 18.2776 22.9984 19.1778 22.9249C20.0546 22.8533 20.503 22.7234 20.8158 22.564C21.5685 22.1805 22.1804 21.5686 22.5639 20.816C22.7233 20.5032 22.8531 20.0548 22.9248 19.1779C22.9983 18.2777 22.9999 17.1132 22.9999 15.4V12.6C22.9999 10.8868 22.9983 9.72226 22.9248 8.82208C22.8531 7.94525 22.7233 7.49684 22.5639 7.18404C22.1804 6.43139 21.5685 5.81947 20.8158 5.43597C20.503 5.27659 20.0546 5.14674 19.1778 5.0751C18.2776 5.00156 17.113 5 15.3999 5ZM3.65384 6.27606C2.99988 7.55953 2.99988 9.23969 2.99988 12.6V15.4C2.99988 18.7603 2.99988 20.4405 3.65384 21.7239C4.22908 22.8529 5.14696 23.7708 6.27594 24.346C7.55941 25 9.23956 25 12.5999 25H15.3999C18.7602 25 20.4403 25 21.7238 24.346C22.8528 23.7708 23.7707 22.8529 24.3459 21.7239C24.9999 20.4405 24.9999 18.7603 24.9999 15.4V12.6C24.9999 9.23969 24.9999 7.55953 24.3459 6.27606C23.7707 5.14708 22.8528 4.2292 21.7238 3.65396C20.4403 3 18.7602 3 15.3999 3H12.5999C9.23956 3 7.55941 3 6.27594 3.65396C5.14696 4.2292 4.22908 5.14708 3.65384 6.27606Z" fill="currentColor"/>
<path d="M15.7499 14C15.7499 14.9665 14.9664 15.75 13.9999 15.75C13.0334 15.75 12.2499 14.9665 12.2499 14C12.2499 13.0335 13.0334 12.25 13.9999 12.25C14.9664 12.25 15.7499 13.0335 15.7499 14Z" fill="currentColor"/>
</svg>
