<svg width="28" height="28" fill="none" xmlns="http://www.w3.org/2000/svg"><path fill-rule="evenodd" clip-rule="evenodd" d="M16.359 3.002a3.28 3.28 0 00-4.718 0l-.76.787a1.28 1.28 0 01-1.054.384l-1.09-.114A3.28 3.28 0 005.125 7.09l-.077 1.092a1.28 1.28 0 01-.56.972l-.908.612a3.28 3.28 0 00-.82 4.646l.644.886c.231.319.303.726.195 1.105l-.302 1.052a3.28 3.28 0 002.359 4.086l1.062.265c.382.095.7.361.86.72l.445 1a3.28 3.28 0 004.433 1.614l.984-.48a1.28 1.28 0 011.122 0l.984.48a3.28 3.28 0 004.433-1.613l.446-1c.16-.36.477-.626.859-.721l1.062-.265a3.28 3.28 0 002.359-4.086l-.302-1.052a1.28 1.28 0 01.195-1.105l.643-.886a3.28 3.28 0 00-.819-4.646l-.907-.612a1.28 1.28 0 01-.561-.972l-.077-1.092a3.28 3.28 0 00-3.614-3.032l-1.088.114a1.28 1.28 0 01-1.054-.384l-.761-.787zm-3.28 1.39a1.28 1.28 0 011.842 0l.76.787a3.28 3.28 0 002.701.983l1.089-.114a1.28 1.28 0 011.41 1.183l.077 1.093a3.28 3.28 0 001.437 2.489l.907.612c.6.405.746 1.227.32 1.813l-.643.886a3.28 3.28 0 00-.5 2.83l.302 1.053a1.28 1.28 0 01-.92 1.594l-1.063.265a3.28 3.28 0 00-2.201 1.848l-.446 1a1.28 1.28 0 01-1.73.63l-.984-.48a3.28 3.28 0 00-2.874 0l-.984.48a1.28 1.28 0 01-1.73-.63l-.446-1a3.28 3.28 0 00-2.201-1.848l-1.063-.265a1.28 1.28 0 01-.92-1.594l.301-1.053a3.28 3.28 0 00-.499-2.83l-.643-.886a1.28 1.28 0 01.32-1.813l.907-.613a3.28 3.28 0 001.437-2.488L7.12 7.23a1.28 1.28 0 011.41-1.183l1.09.114a3.28 3.28 0 002.7-.983l.76-.787zM11 11v1a.5.5 0 01-1 0v-1a.5.5 0 011 0zm-2.5 0a2 2 0 114 0v1a2 2 0 11-4 0v-1zm9.5 6v-1a.5.5 0 00-1 0v1a.5.5 0 001 0zm-.5-3a2 2 0 00-2 2v1a2 2 0 104 0v-1a2 2 0 00-2-2zm-.354-3.87a.75.75 0 10-1.293-.76l-5 8.5a.75.75 0 001.293.76l5-8.5z" fill="currentColor"/></svg>
