<svg fill="none" height="28" viewBox="0 0 28 28" width="28" xmlns="http://www.w3.org/2000/svg"><g fill="currentColor"><path d="m17.1497 10.1353c.2131-.3552.0979-.8159-.2573-1.02901s-.8158-.09793-1.029.25726l-5.117 8.52855c-.2131.3551-.0979.8158.2573 1.0289.3552.2132.8159.098 1.029-.2572z"/><g clip-rule="evenodd" fill-rule="evenodd"><path d="m9 11c0-1.10457.89543-2 2-2 1.1046 0 2 .89543 2 2v.5c0 1.1046-.8954 2-2 2-1.10457 0-2-.8954-2-2zm2.67 0v.5c0 .37-.3.67-.67.67s-.67-.3-.67-.67v-.5c0-.37.3-.67.67-.67s.67.3.67.67z"/><path d="m17 14.5c-1.1046 0-2 .8954-2 2v.5c0 1.1046.8954 2 2 2s2-.8954 2-2v-.5c0-1.1046-.8954-2-2-2zm.67 2.5v-.5c0-.37-.3-.67-.67-.67s-.67.3-.67.67v.5c0 .37.3.67.67.67s.67-.3.67-.67z"/><path d="m16.3765 3.00206c-1.2894-1.33445-3.4281-1.33445-4.7175 0l-.7608.78737c-.2736.28317-.6623.42465-1.05394.3836l-1.08891-.11413c-1.84552-.19344-3.48389 1.18132-3.61386 3.03239l-.07669 1.09219c-.02758.39279-.23441.75102-.56078.9713l-.90752.61251c-1.53809 1.03811-1.90948 3.14431-.8192 4.64591l.6433.8859c.23135.3187.30318.726.19476 1.1046l-.30149 1.0525c-.51096 1.7839.5584 3.6361 2.35878 4.0855l1.06228.2652c.38203.0954.69891.3613.85917.721l.44562 1c.75523 1.695 2.76498 2.4265 4.43308 1.6135l.9842-.4796c.3539-.1725.7676-.1725 1.1215 0l.9843.4796c1.668.813 3.6778.0815 4.433-1.6135l.4456-1c.1603-.3597.4772-.6256.8592-.721l1.0623-.2652c1.8003-.4494 2.8697-2.3016 2.3588-4.0855l-.3015-1.0525c-.1085-.3786-.0366-.7859.1947-1.1046l.6433-.8859c1.0903-1.5016.7189-3.6078-.8192-4.64591l-.9075-.61251c-.3264-.22028-.5332-.57851-.5608-.9713l-.0767-1.09219c-.1299-1.85107-1.7683-3.22583-3.6138-3.03239l-1.0889.11413c-.3916.04105-.7804-.10043-1.054-.3836zm-3.2792 1.38973c.5031-.52076 1.3378-.52076 1.841 0l.7608.78737c.7011.72562 1.6971 1.08816 2.7006.98298l1.089-.11414c.7202-.07548 1.3595.46101 1.4102 1.18337l.0767 1.0922c.0707 1.00652.6007 1.92453 1.437 2.48893l.9076.6125c.6002.4052.7451 1.2271.3197 1.8131l-.6433.8859c-.5929.8165-.777 1.8604-.4991 2.8304l.3015 1.0525c.1994.6962-.2179 1.419-.9205 1.5944l-1.0623.2652c-.979.2444-1.791.9257-2.2016 1.8474l-.4456 1.0001c-.2948.6614-1.0791.9469-1.73.6296l-.9842-.4797c-.907-.442-1.967-.442-2.874 0l-.9843.4797c-.6509.3173-1.4352.0318-1.72993-.6297l-.44561-1c-.41066-.9217-1.22267-1.603-2.20163-1.8474l-1.06228-.2652c-.70258-.1754-1.1199-.8982-.9205-1.5944l.30149-1.0525c.27784-.97.09377-2.0139-.49907-2.8304l-.6433-.8859c-.42547-.586-.28054-1.4079.31969-1.8131l.90752-.6125c.83634-.5644 1.36633-1.48241 1.43701-2.48894l.07669-1.09219c.05072-.72236.69008-1.25885 1.41028-1.18337l1.08892.11414c1.00352.10518 1.99962-.25736 2.70072-.98298z"/></g></g></svg>
