<svg width="28" height="28" viewBox="0 0 28 28" fill="none" xmlns="http://www.w3.org/2000/svg">
<path fill-rule="evenodd" clip-rule="evenodd" d="M11.6406 3.00205C12.93 1.6676 15.0687 1.6676 16.3581 3.00206L17.1189 3.78943C17.3925 4.07259 17.7812 4.21407 18.1728 4.17302L19.2617 4.05889C21.1073 3.86546 22.7456 5.24021 22.8756 7.09128L22.9523 8.18347C22.9799 8.57626 23.1867 8.9345 23.5131 9.15478L24.4206 9.76728C25.9587 10.8054 26.3301 12.9116 25.2398 14.4132L24.5965 15.2991C24.3651 15.6178 24.2933 16.0251 24.4017 16.4037L24.7032 17.4562C25.2142 19.2401 24.1448 21.0923 22.3444 21.5417L21.2822 21.8069C20.9001 21.9023 20.5832 22.1682 20.423 22.5278L19.9774 23.5279C19.2221 25.2229 17.2124 25.9544 15.5443 25.1414L14.5601 24.6618C14.2062 24.4893 13.7925 24.4893 13.4385 24.6618L12.4543 25.1414C10.7863 25.9544 8.77652 25.2229 8.02128 23.5279L7.57567 22.5278C7.41541 22.1682 7.09853 21.9023 6.7165 21.8069L5.65422 21.5417C3.85384 21.0923 2.78447 19.2401 3.29544 17.4562L3.59693 16.4037C3.70535 16.0251 3.63352 15.6178 3.40217 15.2991L2.75887 14.4132C1.66859 12.9116 2.03998 10.8054 3.57806 9.76728L4.48558 9.15478C4.81196 8.9345 5.01879 8.57626 5.04637 8.18347L5.12306 7.09128C5.25303 5.24021 6.8914 3.86546 8.73692 4.05889L9.82583 4.17302C10.2174 4.21407 10.6062 4.07259 10.8798 3.78943L11.6406 3.00205ZM14.9198 4.39179C14.4166 3.87102 13.582 3.87102 13.0788 4.39178L12.318 5.17916C11.6169 5.90477 10.6208 6.26731 9.61734 6.16213L8.52843 6.048C7.80823 5.97251 7.16887 6.509 7.11814 7.23137L7.04146 8.32356C6.97078 9.33008 6.44078 10.2481 5.60445 10.8125L4.69693 11.425C4.0967 11.8301 3.95177 12.6521 4.37724 13.2381L5.02054 14.124C5.61338 14.9405 5.79745 15.9844 5.51961 16.9544L5.21812 18.0069C5.01872 18.7031 5.43603 19.4259 6.13862 19.6013L7.2009 19.8665C8.17986 20.1108 8.99186 20.7922 9.40253 21.7139L9.84814 22.7139C10.1429 23.3754 10.9272 23.6609 11.5781 23.3436L12.5623 22.8639C13.4693 22.4219 14.5293 22.4219 15.4363 22.8639L16.4205 23.3436C17.0715 23.6609 17.8558 23.3754 18.1505 22.7139L18.5961 21.7139C19.0068 20.7922 19.8188 20.1108 20.7978 19.8665L21.86 19.6013C22.5626 19.4259 22.9799 18.7031 22.7805 18.0069L22.4791 16.9544C22.2012 15.9844 22.3853 14.9405 22.9781 14.124L23.6214 13.2381C24.0469 12.6521 23.902 11.8301 23.3017 11.425L22.3942 10.8125C21.5579 10.2481 21.0279 9.33008 20.9572 8.32356L20.8805 7.23137C20.8298 6.509 20.1904 5.97251 19.4702 6.048L18.3813 6.16213C17.3778 6.26731 16.3817 5.90477 15.6806 5.17916L14.9198 4.39179Z" fill="currentColor"/>
<path fill-rule="evenodd" clip-rule="evenodd" d="M11.67 11.5V11C11.67 10.63 11.37 10.33 11 10.33C10.63 10.33 10.33 10.63 10.33 11V11.5C10.33 11.87 10.63 12.17 11 12.17C11.37 12.17 11.67 11.87 11.67 11.5ZM11 9C9.89543 9 9 9.89543 9 11V11.5C9 12.6046 9.89543 13.5 11 13.5C12.1046 13.5 13 12.6046 13 11.5V11C13 9.89543 12.1046 9 11 9Z" fill="currentColor"/>
<path fill-rule="evenodd" clip-rule="evenodd" d="M17.67 17V16.5C17.67 16.13 17.37 15.83 17 15.83C16.63 15.83 16.33 16.13 16.33 16.5V17C16.33 17.37 16.63 17.67 17 17.67C17.37 17.67 17.67 17.37 17.67 17ZM17 14.5C15.8954 14.5 15 15.3954 15 16.5V17C15 18.1046 15.8954 19 17 19C18.1046 19 19 18.1046 19 17V16.5C19 15.3954 18.1046 14.5 17 14.5Z" fill="currentColor"/>
<path fill-rule="evenodd" clip-rule="evenodd" d="M17.1113 9.19169C17.4196 9.39121 17.5078 9.80292 17.3083 10.1113L11.8083 18.6113C11.6088 18.9196 11.1971 19.0078 10.8887 18.8083C10.5804 18.6088 10.4922 18.1971 10.6917 17.8887L16.1917 9.38874C16.3912 9.08039 16.8029 8.99217 17.1113 9.19169Z" fill="currentColor"/>
</svg>
