<?xml version="1.0" encoding="UTF-8"?>
<svg width="28px" height="28px" viewBox="0 0 28 28" version="1.1" xmlns="http://www.w3.org/2000/svg" xmlns:xlink="http://www.w3.org/1999/xlink">
    <!-- Generator: Sketch 63.1 (92452) - https://sketch.com -->
    <title>document_outline_28</title>
    <desc>Created with Sketch.</desc>
    <g id="Page-1" stroke="none" stroke-width="1" fill="none" fill-rule="evenodd">
        <g id="document_outline_28">
            <rect x="0" y="0" width="28" height="28"></rect>
            <path d="M15.2053422,2.12204227 C15.6105351,2.21542921 15.9766152,2.36706454 16.3291644,2.58754464 C16.6850567,2.81011549 16.9581427,3.04392915 17.5214867,3.60727312 L22.3927269,8.47851332 C22.9560708,9.04185729 23.1898845,9.31494333 23.4124554,9.67083563 C23.6329355,10.0233848 23.7845708,10.3894649 23.8779577,10.7946578 C23.9722302,11.203693 24,11.5621252 24,12.3588139 L24,19.2312583 C24,21.2110604 23.8145468,22.1714157 23.2807646,23.1695017 C22.7953739,24.0771035 22.0771035,24.7953739 21.1695017,25.2807646 C20.1714157,25.8145468 19.2110604,26 17.2312583,26 L10.7687417,26 C8.78893958,26 7.82858429,25.8145468 6.83049831,25.2807646 C5.9228965,24.7953739 5.20462614,24.0771035 4.71923539,23.1695017 C4.18545316,22.1714157 4,21.2110604 4,19.2312583 L4,8.06595144 C4,6.78109442 4.23169538,5.74211886 4.71923539,4.83049831 C5.20462614,3.9228965 5.9228965,3.20462614 6.83049831,2.71923539 C7.74211886,2.23169538 8.78109442,2 10.0659514,2 L13.6411861,2 C14.4378748,2 14.796307,2.02776977 15.2053422,2.12204227 Z M13.8261403,4.00053934 L10.0659514,4 C9.09428446,4 8.37781528,4.15977527 7.77369603,4.48286178 C7.21463117,4.78185294 6.78185294,5.21463117 6.48286178,5.77369603 C6.15977527,6.37781528 6,7.09428446 6,8.06595144 L6,19.2312583 C6,20.909131 6.12521958,21.5575712 6.48286178,22.226304 C6.78185294,22.7853688 7.21463117,23.2181471 7.77369603,23.5171382 C8.4424288,23.8747804 9.090869,24 10.7687417,24 L17.2312583,24 C18.909131,24 19.5575712,23.8747804 20.226304,23.5171382 C20.7853688,23.2181471 21.2181471,22.7853688 21.5171382,22.226304 C21.8747804,21.5575712 22,20.909131 22,19.2312583 L22,12.3588139 C22,12.2215107 21.9992458,12.1031017 21.9975659,11.9995687 L16.5,12 C15.1192881,12 14,10.8807119 14,9.5 L14,9.5 L14.0014872,4.00245125 C13.9473086,4.00156803 13.8890522,4.00093894 13.8261403,4.00053934 Z M16.1072731,5.02148668 L16,4.915 L16,9.5 C16,9.74545989 16.1768752,9.94960837 16.4101244,9.99194433 L16.5,10 L21.0873279,10.0020567 C21.0531163,9.96749662 21.0169008,9.93111438 20.9785133,9.89272688 L16.1072731,5.02148668 Z" id="↳-Icon-Color" fill="currentColor" fill-rule="nonzero"></path>
        </g>
    </g>
</svg>
