<svg xmlns="http://www.w3.org/2000/svg" width="28" height="28" fill="currentColor" viewBox="0 0 28 28"><path fill-rule="evenodd" d="M7.07 2.801C8.164 2.216 9.243 2 11.691 2H14c.03 0 .06.001.09.004.501.01.792.044 1.115.118.405.093.772.245 1.124.466.356.222.63.456 1.192 1.02l4.872 4.87c.563.564.797.837 1.02 1.193.22.352.372.719.465 1.124.074.323.107.614.118 1.114A.91.91 0 0 1 24 12v.533a1 1 0 0 1-2 0V12h-5.5A2.5 2.5 0 0 1 14 9.5l.002-5.498-.176-.001L11.692 4c-2.335 0-3.019.212-3.68.565a3.466 3.466 0 0 0-1.447 1.448C6.212 6.673 6 7.357 6 9.692v8.616c0 2.335.212 3.019.565 3.68a3.466 3.466 0 0 0 1.448 1.447c.66.353 1.344.565 3.679.565h4.616c.24 0 .463-.002.67-.007a1 1 0 1 1 .043 2c-.224.005-.46.007-.713.007h-4.616c-2.448 0-3.527-.216-4.623-.801a5.465 5.465 0 0 1-2.268-2.269C4.216 21.835 4 20.756 4 18.308V9.692c0-2.448.216-3.527.801-4.623A5.466 5.466 0 0 1 7.07 2.801Zm9.037 2.22L16 4.915V9.5a.5.5 0 0 0 .41.492l.09.008 4.587.002a25.43 25.43 0 0 0-.108-.11l-4.872-4.87Z M20.997 27a1 1 0 0 1-1-1v-7.586l-2.29 2.29a1 1 0 1 1-1.414-1.414l3.997-3.997a1 1 0 0 1 1.415 0l4.002 4.002a1 1 0 0 1-1.414 1.414l-2.296-2.295V26a1 1 0 0 1-1 1Z"/></svg>
