<svg xmlns="http://www.w3.org/2000/svg" width="28" height="28" fill="currentColor" viewBox="0 0 28 28"><path fill-rule="evenodd" d="M15 3.002a1 1 0 1 0-2 0v1c-1.757.133-3.327.616-4.537 1.369C7.036 6.258 6 7.605 6 9.245c0 .947.153 2.298 1.38 3.47 1.066 1.018 2.822 1.78 5.62 2.172V22c-2.863-.23-4.44-1.448-5.165-2.548a1 1 0 1 0-1.67 1.101c1.13 1.714 3.353 3.212 6.835 3.452v.996a1 1 0 0 0 2 0v-1c1.756-.134 3.324-.617 4.533-1.37 1.427-.887 2.463-2.233 2.463-3.873 0-.947-.153-2.298-1.38-3.47-1.065-1.018-2.82-1.78-5.616-2.172V6.003c2.86.232 4.436 1.448 5.161 2.547a1 1 0 1 0 1.67-1.1C20.7 5.737 18.48 4.24 15 3.998v-.996Zm-2 3.006c-1.422.128-2.618.524-3.481 1.061C8.452 7.733 8 8.527 8 9.245c0 .71.107 1.4.76 2.023.617.588 1.832 1.227 4.24 1.598V6.008Zm2 9.13v6.856c1.421-.128 2.615-.524 3.477-1.06 1.067-.664 1.52-1.458 1.52-2.176 0-.71-.108-1.4-.762-2.023-.615-.588-1.83-1.226-4.235-1.597Z" clip-rule="evenodd"/></svg>
