<svg fill="none" height="28" viewBox="0 0 28 28" width="28" xmlns="http://www.w3.org/2000/svg" xmlns:xlink="http://www.w3.org/1999/xlink"><linearGradient id="a" gradientUnits="userSpaceOnUse" x1="-14" x2="14" y1="14" y2="42"><stop offset="0" stop-color="#ffb73d"/><stop offset="1" stop-color="#ffa000"/></linearGradient><path d="m0 14c0-7.73199 6.26801-14 14-14 7.732 0 14 6.26801 14 14 0 7.732-6.268 14-14 14-7.73199 0-14-6.268-14-14z" fill="url(#a)"/><path clip-rule="evenodd" d="m14 6c4.4183 0 8 3.58172 8 8 0 4.4183-3.5817 8-8 8-4.41828 0-8-3.5817-8-8 0-4.41828 3.58172-8 8-8zm.1475 3.45427c-.1651-.08147-.3649-.01369-.4464.15139l-1.2685 2.57034-2.83651.4121c-.07255.0106-.1396.0447-.19077.0972-.1285.1318-.1258.3429.00603.4714l2.05245 2.0007-.4845 2.825c-.0124.0723-.0006.1466.0335.2115.0857.1629.2872.2256.4502.1399l2.537-1.3338 2.537 1.3338c.0649.0341.1392.0459.2115.0335.1814-.0311.3033-.2034.2722-.3849l-.4846-2.825 2.0526-2.0007c.0524-.0512.0866-.1182.0972-.1908.0264-.1822-.0998-.3513-.282-.3778l-2.8365-.4121-1.2685-2.57034c-.0324-.06574-.0856-.11894-.1514-.15139z" fill="#fff" fill-rule="evenodd"/></svg>
