<svg fill="none" height="28" viewBox="0 0 28 28" width="28" xmlns="http://www.w3.org/2000/svg"><g fill="currentColor"><path clip-rule="evenodd" d="m14 11c.5523 0 1 .4477 1 1v10.5858l2.2929-2.2929c.3905-.3905 1.0237-.3905 1.4142 0s.3905 1.0237 0 1.4142l-4 4c-.3905.3905-1.0237.3905-1.4142 0l-4.00001-4c-.39052-.3905-.39052-1.0237 0-1.4142.39053-.3905 1.02371-.3905 1.41421 0l2.2929 2.2929v-10.5858c0-.5523.4477-1 1-1z" fill-rule="evenodd"/><path d="m16.0833 3c-1.7125 0-3.3203.66239-4.5068 1.81076-1.4733-.41166-2.99103-.03959-4.12283.78034-1.12441.81457-1.93823 2.12502-1.95409 3.65106-1.50267.79294-2.49958 2.34574-2.49958 4.10154 0 2.6098 2.21266 4.583 4.70551 4.6559l2.29449.0004c.5523 0 1-.4477 1-1s-.4477-1-1-1h-2.24965c-1.53327-.0517-2.75035-1.2563-2.75035-2.6563 0-1.1321.74499-2.1474 1.86287-2.5152.47057-.1548.75688-.6308.67308-1.11907-.1707-.99464.28548-1.91509 1.09107-2.49868.81039-.58708 1.87738-.7589 2.81088-.32601.4133.19163.9039.07973 1.1932-.27216.8288-1.00818 2.0848-1.61258 3.4522-1.61258 2.621 0 4.6753 2.30896 4.3885 4.76861-.0549.47049.2278.91489.6772 1.06459 1.1114.3703 1.851 1.3825 1.851 2.5105 0 1.3978-1.1348 2.5863-2.6193 2.6534h-2.3807c-.5523 0-1 .4477-1 1 0 .5522.4477 1 1 1 .8214 0 2.4717-.0021 2.4717-.0021 2.5079-.1133 4.5283-2.1397 4.5283-4.6513 0-1.7557-.997-3.3095-2.5011-4.10188-.0322-3.37783-2.9071-6.24182-6.4156-6.24182z"/></g></svg>
