<?xml version="1.0" encoding="UTF-8"?>
<svg width="28px" height="28px" viewBox="0 0 28 28" version="1.1" xmlns="http://www.w3.org/2000/svg" xmlns:xlink="http://www.w3.org/1999/xlink">
    <!-- Generator: Sketch 63.1 (92452) - https://sketch.com -->
    <title>download_cloud_outline_28</title>
    <desc>Created with Sketch.</desc>
    <g id="Page-1" stroke="none" stroke-width="1" fill="none" fill-rule="evenodd">
        <g id="download_cloud_outline_28">
            <rect id="Bounds" x="0" y="0" width="28" height="28"></rect>
            <path d="M14,11.125 C14.4460761,11.125 14.8141892,11.4587995 14.8681825,11.8902419 L14.875,12 L14.875,23.071 L17.4398387,20.8278064 C17.8110809,20.5184378 18.362825,20.5685964 18.6721936,20.9398387 C18.9557815,21.2801441 18.9372667,21.7721212 18.6462604,22.0900467 L18.5601613,22.1721936 L14.5601613,25.6721936 L14.5280317,25.6979602 C14.5132231,25.7091839 14.4981208,25.7198827 14.4827518,25.7300541 L14.5601613,25.6721936 C14.5180023,25.7073262 14.4735154,25.7378221 14.4273201,25.7637378 C14.4136646,25.7714559 14.4002546,25.7784896 14.3866989,25.7851565 C14.363686,25.7965078 14.3399671,25.8069213 14.315948,25.8162218 C14.3053567,25.8202272 14.2946695,25.8241153 14.2839207,25.8277905 C14.2616862,25.8355237 14.2392975,25.8421927 14.2167435,25.847941 C14.2014634,25.8516965 14.1857132,25.8552563 14.1698856,25.8583789 C14.1493758,25.862551 14.1290228,25.8658074 14.1086109,25.8683409 C14.0911958,25.8704101 14.0737636,25.87206 14.0562951,25.8731891 C14.038029,25.8744187 14.0193435,25.8750177 14.0006682,25.8750219 C13.9813238,25.8750389 13.9623043,25.8744401 13.9433062,25.8732222 C13.9262364,25.87206 13.9088042,25.8704101 13.8914334,25.8682417 C13.8709772,25.8658074 13.8506242,25.862551 13.8303707,25.8585683 C13.8142868,25.8552563 13.7985366,25.8516965 13.7828835,25.8477012 C13.7607025,25.8421927 13.7383138,25.8355237 13.7161477,25.827929 C13.7053305,25.8241153 13.6946433,25.8202272 13.6840246,25.8161271 C13.6600329,25.8069213 13.636314,25.7965078 13.6129705,25.7849745 C13.5997454,25.7784896 13.5863354,25.7714559 13.5730867,25.7640569 C13.5264846,25.7378221 13.4819977,25.7073262 13.4398387,25.6721936 L13.5172482,25.7300541 C13.5018792,25.7198827 13.4867769,25.7091839 13.4719683,25.6979602 L13.4398387,25.6721936 L9.43983865,22.1721936 L9.35373957,22.0900467 C9.06273332,21.7721212 9.04421852,21.2801441 9.32780638,20.9398387 C9.63717495,20.5685964 10.1889191,20.5184378 10.5601613,20.8278064 L10.5601613,20.8278064 L13.125,23.071 L13.125,12 C13.125,11.5167508 13.5167508,11.125 14,11.125 Z M16.0833333,3 C19.5501208,3 22.3747768,5.74929113 22.4959496,9.18652143 L22.5,9.4 L22.5663333,9.43563654 C23.9790979,10.2243513 24.9191499,11.6996511 24.9950349,13.3650677 L25,13.5833333 C25,16.0509603 23.1141922,18.0913391 20.6460899,18.3143279 L20.4268381,18.3292516 L18.0003084,18.33 C17.4480237,18.3301703 17.0001704,17.8825931 17,17.3303084 C16.9998419,16.8174726 17.3857517,16.3946822 17.8830726,16.3367637 L17.9996916,16.33 L20.3802383,16.3303237 C21.8428113,16.2625464 23,15.0537715 23,13.5833333 C23,12.3985335 22.2438067,11.3581958 21.1417084,10.9816034 C20.6972613,10.8297337 20.4183988,10.3890248 20.4714584,9.92235331 C20.4904294,9.7554991 20.5,9.58677944 20.5,9.41666667 C20.5,6.97740902 18.522591,5 16.0833333,5 C14.7255645,5 13.4712244,5.61525195 12.638874,6.65366818 C12.3487985,7.01555798 11.8479601,7.1305004 11.4291162,6.93130764 C11.0643517,6.75783387 10.6646473,6.66666667 10.25,6.66666667 C8.73121694,6.66666667 7.5,7.8978836 7.5,9.41666667 C7.5,9.56935898 7.51234743,9.71904824 7.53664984,9.8642881 C7.61766805,10.3484818 7.33523207,10.8198802 6.87007315,10.9768347 C5.76170105,11.3508229 5,12.3942581 5,13.5833333 C5,15.0458652 6.1417046,16.2417376 7.58194851,16.3283147 L7.74940741,16.3333335 L9.99940741,16.3320002 C10.5516921,16.3316729 10.9996725,16.7791228 11,17.3314074 C11.0003037,17.8442432 10.6145141,18.2671432 10.1172097,18.325203 L10.0005926,18.3319998 L7.75,18.3333333 C5.12664744,18.3333333 3,16.2066859 3,13.5833333 C3,11.8230606 3.96620105,10.2480184 5.44854798,9.42690267 L5.5,9.399 L5.50488786,9.19923867 C5.61528341,6.74887741 7.58221074,4.78195008 10.032572,4.67155453 L10.25,4.66666667 C10.6066977,4.66666667 10.9582853,4.70618012 11.2996648,4.78324814 L11.572,4.854 L11.6058124,4.82105445 C12.7249249,3.72868676 14.2144532,3.0716594 15.8155034,3.00552457 L16.0833333,3 Z" id="↳-Icon-Color" fill="currentColor" fill-rule="nonzero"></path>
        </g>
    </g>
</svg>
