<?xml version="1.0" encoding="UTF-8"?>
<svg width="28px" height="28px" viewBox="0 0 28 28" version="1.1" xmlns="http://www.w3.org/2000/svg" xmlns:xlink="http://www.w3.org/1999/xlink">
    <!-- Generator: Sketch 63.1 (92452) - https://sketch.com -->
    <title>download_outline_28</title>
    <desc>Created with Sketch.</desc>
    <g id="Page-1" stroke="none" stroke-width="1" fill="none" fill-rule="evenodd">
        <g id="download_outline_28">
            <polygon points="0 0 28 0 28 28 0 28"></polygon>
            <path d="M21,22 C21.5522847,22 22,22.4477152 22,23 C22,23.5522847 21.5522847,24 21,24 L7,24 C6.44771525,24 6,23.5522847 6,23 C6,22.4477152 6.44771525,22 7,22 L21,22 Z M14,2 C14.5522847,2 15,2.44771525 15,3 L15,16.585 L20.2928932,11.2928932 C20.6834175,10.9023689 21.3165825,10.9023689 21.7071068,11.2928932 C22.0976311,11.6834175 22.0976311,12.3165825 21.7071068,12.7071068 L14.7071068,19.7071068 C14.3165825,20.0976311 13.6834175,20.0976311 13.2928932,19.7071068 L6.29289322,12.7071068 C5.90236893,12.3165825 5.90236893,11.6834175 6.29289322,11.2928932 C6.68341751,10.9023689 7.31658249,10.9023689 7.70710678,11.2928932 L13,16.585 L13,3 C13,2.44771525 13.4477153,2 14,2 Z" id="↳-Icon-Color" fill="currentColor" fill-rule="nonzero"></path>
        </g>
    </g>
</svg>
