<svg fill="none" height="28" viewBox="0 0 28 28" width="28" xmlns="http://www.w3.org/2000/svg" xmlns:xlink="http://www.w3.org/1999/xlink"><linearGradient id="a" gradientUnits="userSpaceOnUse" x1="-14" x2="14" y1="14" y2="42"><stop offset="0" stop-color="#70b2ff"/><stop offset="1" stop-color="#5c9ce6"/></linearGradient><path d="m0 14c0-7.73199 6.26801-14 14-14 7.732 0 14 6.26801 14 14 0 7.732-6.268 14-14 14-7.73199 0-14-6.268-14-14z" fill="url(#a)"/><path clip-rule="evenodd" d="m14.987 9.976 3.035 3.035-5.5389 5.5396c-.6629.6629-1.4786 1.1527-2.3752 1.4264l-2.48828.7596c-.15112.0461-.31102-.039-.35716-.1901-.01661-.0545-.01661-.1127 0-.1671l.75949-2.488c.27376-.8968.76373-1.7126 1.42679-2.3756zm4.1705-2.34946 1.216 1.21602c.4687.46866.5 1.20914.0938 1.71414l-.0939.1044-1.5164 1.5159-3.035-3.035 1.5169-1.51551c.5022-.50209 1.3164-.50207 1.8186.00005z" fill="#fff" fill-rule="evenodd"/></svg>