<svg width="28" height="28" viewBox="0 0 28 28" fill="none" xmlns="http://www.w3.org/2000/svg">
<path fill-rule="evenodd" clip-rule="evenodd" d="M21.782 3.33539C20.9264 2.89941 19.9137 2.89941 19.0581 3.33539C18.6302 3.55338 18.2582 3.92633 17.8279 4.3578L4.67698 17.5088C4.32287 17.8628 4.06847 18.117 3.85947 18.4047C3.44206 18.9792 3.16654 19.6444 3.05545 20.3458C2.99983 20.697 2.99991 21.0567 3.00003 21.5573L3.00005 22.6L2.99985 22.681C2.99882 22.9628 2.99756 23.3091 3.09793 23.618C3.29577 24.2269 3.77314 24.7043 4.38201 24.9021C4.69094 25.0025 5.0373 25.0012 5.31907 25.0002L5.40005 25L6.44273 25C6.94338 25.0001 7.30306 25.0002 7.65425 24.9446C8.35566 24.8335 9.02081 24.558 9.59533 24.1406C9.883 23.9316 10.1373 23.6772 10.4912 23.3231L23.6422 10.1722C24.0737 9.74179 24.4466 9.36979 24.6646 8.94196C25.1006 8.08631 25.1006 7.07366 24.6646 6.21802C24.4467 5.79019 24.0737 5.4182 23.6423 4.98783L23.0122 4.35781C22.5819 3.92633 22.2099 3.55339 21.782 3.33539ZM19.9661 5.1174C20.2513 4.97208 20.5888 4.97208 20.874 5.1174C20.9796 5.17118 21.1114 5.2855 21.6928 5.86699L22.133 6.3072C22.7145 6.88868 22.8288 7.02045 22.8826 7.126C23.028 7.41121 23.028 7.74876 22.8826 8.03398C22.8288 8.13952 22.7145 8.27129 22.133 8.85278L21.275 9.7108L18.2892 6.72501L19.1473 5.86699C19.7287 5.2855 19.8605 5.17118 19.9661 5.1174ZM16.875 8.13922L6.14233 18.8719C5.71687 19.2974 5.58239 19.4359 5.4775 19.5803C5.24561 19.8994 5.09254 20.269 5.03083 20.6586C5.00291 20.8349 5.00005 21.0279 5.00005 21.6296V22.6C5.00005 22.797 5.00039 22.9048 5.00467 22.983L5.00536 22.9947L5.01702 22.9954C5.09529 22.9997 5.20302 23 5.40005 23H6.3704C6.97209 23 7.16513 22.9971 7.34138 22.9692C7.73105 22.9075 8.10058 22.7544 8.41976 22.5225C8.56413 22.4177 8.70266 22.2832 9.12812 21.8577L19.8608 11.125L16.875 8.13922Z" fill="currentColor"/>
</svg>
