<svg width="28" height="28" viewBox="0 0 28 28" fill="none" xmlns="http://www.w3.org/2000/svg">
<path fill-rule="evenodd" clip-rule="evenodd" d="M11.4275 6.04347C13.0109 5.09342 14.9891 5.09342 16.5725 6.04346L23.2541 10.0524C23.5849 10.2509 23.5758 10.7333 23.2378 10.9192L16.4098 14.6748C14.9094 15.5001 13.091 15.5001 11.5905 14.6748L4.76228 10.9192C4.42426 10.7333 4.4152 10.2509 4.746 10.0524L11.4275 6.04347ZM17.6015 4.32847L24.2831 8.33741C25.9371 9.32979 25.8918 11.7421 24.2017 12.6717L17.3737 16.4272C15.2731 17.5826 12.7273 17.5826 10.6267 16.4272L3.79844 12.6717C2.10834 11.7421 2.06301 9.3298 3.717 8.3374L10.3985 4.32848C12.6153 2.99842 15.3847 2.99841 17.6015 4.32847Z" fill="currentColor"/>
<path d="M23.4999 10.5001C23.4999 9.94784 23.9476 9.50013 24.4999 9.50013C25.0521 9.50013 25.4999 9.94784 25.4999 10.5001V15.5001C25.4999 16.0524 25.0521 16.5001 24.4999 16.5001C23.9476 16.5001 23.4999 16.0524 23.4999 15.5001V10.5001Z" fill="currentColor"/>
<path fill-rule="evenodd" clip-rule="evenodd" d="M7.99985 13.0001V18.0001C7.99985 20.7616 10.2384 23.0001 12.9998 23.0001H14.9998C17.7613 23.0001 19.9998 20.7616 19.9998 18.0001V13.0001H21.9998V18.0001C21.9998 21.8661 18.8658 25.0001 14.9998 25.0001H12.9998C9.13386 25.0001 5.99985 21.8661 5.99985 18.0001V13.0001H7.99985Z" fill="currentColor"/>
</svg>
