<svg fill="none" height="28" viewBox="0 0 28 28" width="28" xmlns="http://www.w3.org/2000/svg"><path clip-rule="evenodd" d="m4 2h1 18 1v1 11 .0438.0001c0 1.363 0 2.447-.0714 3.3215-.0732.8956-.2263 1.6593-.5826 2.3585-.5752 1.129-1.4931 2.0469-2.6221 2.6221-.6992.3563-1.4629.5094-2.3585.5826-.0571.0046-.1151.009-.174.0131-.0619.012-.1259.0183-.1914.0183-.9688 0-1.764.3945-2.3417.8231-.2867.2127-.5084.4256-.6561.5828-.0734.0782-.1273.1413-.1607.1818-.0166.0202-.028.0347-.0341.0425l-.0048.0062c-.1886.2538-.4862.4036-.8026.4036s-.614-.1498-.8026-.4036l-.0048-.0062c-.0061-.0078-.0175-.0223-.0341-.0425-.0334-.0405-.0873-.1036-.1607-.1818-.1477-.1572-.3694-.3701-.6561-.5828-.5777-.4286-1.3729-.8231-2.3417-.8231-.06546 0-.12946-.0063-.19142-.0183-.0589-.0041-.1169-.0085-.174-.0131-.8956-.0732-1.65927-.2263-2.35852-.5826-1.12897-.5752-2.04686-1.4931-2.6221-2.6221-.35628-.6992-.50934-1.4629-.58252-2.3585-.07145-.8746-.07145-1.9586-.07144-3.3216v-.0438-11zm6.5 18.9824c1.2949.1166 2.3249.669 3.0333 1.1944.1727.1281.3284.2562.4667.3784.1383-.1222.294-.2503.4667-.3784.7084-.5254 1.7384-1.0778 3.0333-1.1944v-.0073c.2536-.0094.4864-.0222.7026-.0399.7719-.0631 1.2431-.1825 1.6134-.3712.7526-.3835 1.3645-.9954 1.748-1.748.1887-.3703.3081-.8415.3712-1.6134.064-.7836.0648-1.786.0648-3.2026v-10h-16v10c0 1.4166.00078 2.419.0648 3.2026.06307.7719.18249 1.2431.37117 1.6134.3835.7526.99542 1.3645 1.74807 1.748.37031.1887.84148.3081 1.6134.3712.21616.0177.44896.0305.70256.0399z" fill="currentColor" fill-rule="evenodd"/>
</svg>