<svg xmlns="http://www.w3.org/2000/svg" width="28" height="28" fill="currentColor" viewBox="0 0 28 28"><path fill-rule="evenodd" d="M2.196 18.232c.296.912 1.088 1.704 2.67 3.287l.603.602c1.583 1.583 2.374 2.374 3.287 2.67.35.115.713.179 1.077.193.057.01.117.016.177.016H24a1 1 0 1 0 0-1.999H13.629c.267-.261.56-.554.886-.88l7.607-7.608c1.583-1.583 2.375-2.374 2.671-3.287a3.994 3.994 0 0 0 0-2.47c-.296-.913-1.088-1.704-2.67-3.287l-.603-.602c-1.583-1.583-2.374-2.375-3.287-2.671a3.997 3.997 0 0 0-2.47 0c-.913.296-1.705 1.088-3.288 2.67l-7.607 7.608c-1.583 1.583-2.375 2.375-2.671 3.287a3.997 3.997 0 0 0 0 2.47Zm6.176-6.437L6.28 13.887c-.815.815-1.34 1.342-1.708 1.775-.352.416-.441.611-.476.717-.13.401-.13.834 0 1.235.035.106.124.301.476.716.368.434.893.96 1.708 1.776l.602.602c.815.814 1.342 1.34 1.775 1.707.415.353.611.442.717.476.401.13.833.13 1.235 0 .105-.034.3-.123.716-.476.433-.368.96-.893 1.775-1.707l2.092-2.092-6.82-6.82Zm1.413-1.413 6.82 6.82 4.103-4.102c.815-.815 1.34-1.342 1.708-1.775.352-.415.441-.61.476-.716.13-.402.13-.834 0-1.236-.035-.105-.124-.3-.476-.716-.368-.433-.893-.96-1.708-1.775l-.602-.602c-.815-.815-1.342-1.34-1.775-1.708-.415-.352-.611-.441-.717-.476a1.999 1.999 0 0 0-1.235 0c-.105.035-.3.124-.716.476-.433.368-.96.893-1.775 1.708l-4.103 4.102Z" clip-rule="evenodd"/></svg>
