<svg fill="none" height="28" viewBox="0 0 28 28" width="28" xmlns="http://www.w3.org/2000/svg"><g fill="currentColor"><path d="m18 8h-8v12h8v-2h-6v-3h5v-2h-5v-3h6z"/><path clip-rule="evenodd" d="m17.6428 3h-7.2856c-1.08379-.00001-1.95795-.00002-2.66582.05782-.72885.05955-1.36904.18536-1.96133.48715-.94081.47937-1.70571 1.24427-2.18508 2.18508-.30179.59229-.4276 1.23248-.48715 1.96133-.05784.70787-.05783 1.58202-.05782 2.66582v7.2856c-.00001 1.0838-.00002 1.9579.05782 2.6658.05955.7289.18536 1.3691.48715 1.9614.47937.9408 1.24427 1.7057 2.18508 2.185.59229.3018 1.23248.4276 1.96133.4872.70785.0578 1.58196.0578 2.66572.0578h7.2857c1.0838 0 1.958 0 2.6658-.0578.7289-.0596 1.3691-.1854 1.9614-.4872.9408-.4793 1.7057-1.2442 2.185-2.185.3018-.5923.4276-1.2325.4872-1.9614.0578-.7078.0578-1.5819.0578-2.6657v-7.2857c0-1.08376 0-1.95797-.0578-2.66582-.0596-.72885-.1854-1.36904-.4872-1.96133-.4793-.94081-1.2442-1.70571-2.185-2.18508-.5923-.30179-1.2325-.4276-1.9614-.48715-.7079-.05784-1.582-.05783-2.6658-.05782zm-11.00477 2.32698c.26335-.13418.61104-.22636 1.21621-.2758.61684-.0504 1.40915-.05118 2.54576-.05118h7.2c1.1366 0 1.9289.00078 2.5458.05118.6051.04944.9528.14162 1.2162.2758.5645.28762 1.0234.74656 1.311 1.31105.1342.26335.2264.61104.2758 1.21621.0504.61684.0512 1.40915.0512 2.54576v7.2c0 1.1366-.0008 1.9289-.0512 2.5458-.0494.6051-.1416.9528-.2758 1.2162-.2876.5645-.7465 1.0234-1.311 1.311-.2634.1342-.6111.2264-1.2162.2758-.6169.0504-1.4092.0512-2.5458.0512h-7.2c-1.13661 0-1.92892-.0008-2.54576-.0512-.60517-.0494-.95286-.1416-1.21621-.2758-.56449-.2876-1.02343-.7465-1.31105-1.311-.13418-.2634-.22636-.6111-.2758-1.2162-.0504-.6169-.05118-1.4092-.05118-2.5458v-7.2c0-1.13661.00078-1.92892.05118-2.54576.04944-.60517.14162-.95286.2758-1.21621.28762-.56449.74656-1.02343 1.31105-1.31105z" fill-rule="evenodd"/></g></svg>
