<svg fill="none" height="28" viewBox="0 0 28 28" width="28" xmlns="http://www.w3.org/2000/svg"><path clip-rule="evenodd" d="m24 14c0 5.5228-4.4772 10-10 10-5.52285 0-10-4.4772-10-10 0-5.52285 4.47715-10 10-10 5.5228 0 10 4.47715 10 10zm2 0c0 6.6274-5.3726 12-12 12-6.62742 0-12-5.3726-12-12 0-6.62742 5.37258-12 12-12 6.6274 0 12 5.37258 12 12zm-16.5-1c.8284 0 1.5-.6716 1.5-1.5s-.6716-1.5-1.5-1.5c-.82843 0-1.5.6716-1.5 1.5s.67157 1.5 1.5 1.5zm10.5-1.5c0 .8284-.6716 1.5-1.5 1.5s-1.5-.6716-1.5-1.5.6716-1.5 1.5-1.5 1.5.6716 1.5 1.5zm-6 2v1.5h-1v2h3v-3.5zm-1.6547 5.6217c-.2244-.3311-.3444-.7218-.3444-1.1217h-.0009-1.9991-.0009c0 .7038.1857 1.3934.5359 2 .048.0831.099.1646.1531.2444.449.6624 1.0863 1.1748 1.8296 1.4712.7434.2963 1.5585.3629 2.34.1912.0271-.006.0541-.0122.0811-.0187.7497-.1812 1.4316-.5755 1.9631-1.1361l-1.7748-1.1004-.0009-.0006c-.2101.1435-.4469.2463-.698.3015-.3906.0858-.798.0525-1.1694-.0956-.3715-.1481-.69-.4042-.9144-.7352z" fill="currentColor" fill-rule="evenodd"/>
</svg>