<svg fill="none" height="28" viewBox="0 0 28 28" width="28" xmlns="http://www.w3.org/2000/svg" xmlns:xlink="http://www.w3.org/1999/xlink"><linearGradient id="a" gradientUnits="userSpaceOnUse" x1="-14" x2="14" y1="14" y2="42"><stop offset="0" stop-color="#ffb73d"/><stop offset="1" stop-color="#ffa000"/></linearGradient><path d="m0 14c0-7.73199 6.26801-14 14-14 7.732 0 14 6.26801 14 14 0 7.732-6.268 14-14 14-7.73199 0-14-6.268-14-14z" fill="url(#a)"/><path d="m16.3463 10.9861 3.1066.3049c1.081.1061 1.4125 1.1865.5778 1.8963l-2.4321 2.0681.9029 3.3692c.2965 1.1065-.6235 1.7763-1.5448 1.1104l-2.9553-2.1358-2.9552 2.1358c-.9177.6632-1.84137-.0038-1.54481-1.1104l.90291-3.3692-2.43216-2.0681c-.83822-.7128-.508-1.7897.5776-1.8963l3.10606-.3049 1.3685-3.22812c.4285-1.01091 1.526-1.0104 1.9542.00011z" fill="#fff"/></svg>
