<svg xmlns="http://www.w3.org/2000/svg" width="28" height="28" fill="none" viewBox="0 0 28 28"><rect width="28" height="28" fill="url(#a)" rx="14"/><g clip-path="url(#b)"><path fill="#fff" fill-rule="evenodd" d="M8 11c0-1.4 0-2.1.272-2.635a2.5 2.5 0 0 1 1.093-1.093C9.9 7 10.6 7 12 7h4c1.4 0 2.1 0 2.635.272a2.5 2.5 0 0 1 1.092 1.093C20 8.9 20 9.6 20 11v6c0 1.4 0 2.1-.273 2.635a2.5 2.5 0 0 1-1.092 1.092C18.1 21 17.4 21 16 21h-4c-1.4 0-2.1 0-2.635-.273a2.5 2.5 0 0 1-1.093-1.092C8 19.1 8 18.4 8 17v-6Zm2-1.2c0-.28 0-.42.055-.527a.5.5 0 0 1 .218-.218C10.38 9 10.52 9 10.8 9h.4c.28 0 .42 0 .527.055a.5.5 0 0 1 .218.218C12 9.38 12 9.52 12 9.8v.4c0 .28 0 .42-.055.527a.5.5 0 0 1-.218.218C11.62 11 11.48 11 11.2 11h-.4c-.28 0-.42 0-.527-.055a.5.5 0 0 1-.218-.218C10 10.62 10 10.48 10 10.2v-.4Zm.055 7.473C10 17.38 10 17.52 10 17.8v.4c0 .28 0 .42.055.527a.5.5 0 0 0 .218.218c.107.055.247.055.527.055h.4c.28 0 .42 0 .527-.055a.5.5 0 0 0 .218-.218C12 18.62 12 18.48 12 18.2v-.4c0-.28 0-.42-.055-.527a.5.5 0 0 0-.218-.218C11.62 17 11.48 17 11.2 17h-.4c-.28 0-.42 0-.527.055a.5.5 0 0 0-.218.218ZM10 13.8c0-.28 0-.42.055-.527a.5.5 0 0 1 .218-.218C10.38 13 10.52 13 10.8 13h.4c.28 0 .42 0 .527.055a.5.5 0 0 1 .218.218c.055.107.055.247.055.527v.4c0 .28 0 .42-.055.527a.5.5 0 0 1-.218.218C11.62 15 11.48 15 11.2 15h-.4c-.28 0-.42 0-.527-.055a.5.5 0 0 1-.218-.218C10 14.62 10 14.48 10 14.2v-.4Zm6.055-4.527C16 9.38 16 9.52 16 9.8v.4c0 .28 0 .42.055.527a.5.5 0 0 0 .218.218c.107.055.247.055.527.055h.4c.28 0 .42 0 .527-.055a.5.5 0 0 0 .218-.218C18 10.62 18 10.48 18 10.2v-.4c0-.28 0-.42-.055-.527a.5.5 0 0 0-.218-.218C17.62 9 17.48 9 17.2 9h-.4c-.28 0-.42 0-.527.055a.5.5 0 0 0-.218.218ZM16 17.8c0-.28 0-.42.055-.527a.5.5 0 0 1 .218-.218C16.38 17 16.52 17 16.8 17h.4c.28 0 .42 0 .527.055a.5.5 0 0 1 .218.218c.055.107.055.247.055.527v.4c0 .28 0 .42-.055.527a.5.5 0 0 1-.218.218C17.62 19 17.48 19 17.2 19h-.4c-.28 0-.42 0-.527-.055a.5.5 0 0 1-.218-.218C16 18.62 16 18.48 16 18.2v-.4Zm.055-4.527C16 13.38 16 13.52 16 13.8v.4c0 .28 0 .42.055.527a.5.5 0 0 0 .218.218c.107.055.247.055.527.055h.4c.28 0 .42 0 .527-.055a.5.5 0 0 0 .218-.218C18 14.62 18 14.48 18 14.2v-.4c0-.28 0-.42-.055-.527a.5.5 0 0 0-.218-.218C17.62 13 17.48 13 17.2 13h-.4c-.28 0-.42 0-.527.055a.5.5 0 0 0-.218.218Z" clip-rule="evenodd"/></g><defs><linearGradient id="a" x1="-14" x2="14" y1="14" y2="42" gradientUnits="userSpaceOnUse"><stop stop-color="#FF5263"/><stop offset="1" stop-color="#FF3347"/></linearGradient><clipPath id="b"><path fill="#fff" d="M0 0h12v14H0z" transform="translate(8 7)"/></clipPath></defs></svg>
