<svg fill="none" height="28" viewBox="0 0 28 28" width="28" xmlns="http://www.w3.org/2000/svg"><g fill="currentColor"><path d="m4 12.6c0-3.36031 0-5.04047.65396-6.32394.57524-1.12898 1.49313-2.04686 2.6221-2.6221 1.28347-.65396 2.96364-.65396 6.32394-.65396h.8c3.3603 0 5.0405 0 6.3239.65396 1.0029.51098 2.0219 1.43445 2.5761 2.5221.4949.97131.6767 1.98022.6963 4.32244.0047.5522-.444 1.0015-.9963 1.0015-.5529 0-1.0008-.4472-1.0075-1-.004-.3363-.0097-.63689-.0175-.80916-.011-.24677-.027-.49333-.0501-.84923-.0716-.87683-.2015-1.34477-.3609-1.65757-.3835-.75265-.9954-1.36457-1.748-1.74807-.3128-.15938-.7612-.28923-1.6381-.36087-.9002-.07354-2.0647-.0751-3.7779-.0751h-.8c-1.7132 0-2.8777.00156-3.77792.0751-.87683.07164-1.32524.20149-1.63804.36087-.75265.3835-1.36457.99542-1.74807 1.74807-.15937.3128-.28923.76121-.36087 1.63804-.07354.90018-.0751 2.06472-.0751 3.77792v2.8c0 1.7132.00156 2.8777.0751 3.7779.07164.8769.2015 1.3253.36087 1.6381.3835.7526.99542 1.3645 1.74807 1.748.3128.1594.76121.2893 1.63804.3609.58722.048 1.78682.0653 2.67792.0716v.0035c.5523 0 1 .4477 1 1s-.4477 1-1 1c-.028 0-.0557-.0012-.0832-.0034-2.9168 0-4.0878-.1141-5.14074-.6506-1.12897-.5752-2.04686-1.4931-2.6221-2.6221-.65396-1.2834-.65396-2.7239-.65396-5.3239z"/><path d="m8.6001 8.99998c0-.37226 0-.55839.04894-.70902.09892-.30444.3376-.54312.64204-.64204.15063-.04894.33676-.04894.70902-.04894.3723 0 .5584 0 .709.04894.3045.09892.5431.3376.6421.64204.0489.15063.0489.33676.0489.70902 0 .37225 0 .55838-.0489.70901-.099.30441-.3376.54311-.6421.64201-.1506.049-.3367.049-.709.049-.37226 0-.55839 0-.70902-.049-.30444-.0989-.54312-.3376-.64204-.64201-.04894-.15063-.04894-.33676-.04894-.70901z"/><path d="m16.649 8.29096c-.0489.15063-.0489.33676-.0489.70902 0 .37225 0 .55838.0489.70901.099.30441.3376.54311.6421.64201.1506.049.3367.049.709.049s.5584 0 .709-.049c.3045-.0989.5431-.3376.6421-.64201.0489-.15063.0489-.33676.0489-.70901 0-.37226 0-.55839-.0489-.70902-.099-.30444-.3376-.54312-.6421-.64204-.1506-.04894-.3367-.04894-.709-.04894s-.5584 0-.709.04894c-.3045.09892-.5431.3376-.6421.64204z"/><path d="m8.6001 14c0-.3723 0-.5584.04894-.709.09892-.3045.3376-.5432.64204-.6421.15063-.0489.33676-.0489.70902-.0489.3723 0 .5584 0 .709.0489.3045.0989.5431.3376.6421.6421.0489.1506.0489.3367.0489.709 0 .3722 0 .5584-.0489.709-.099.3044-.3376.5431-.6421.642-.1506.049-.3367.049-.709.049-.37226 0-.55839 0-.70902-.049-.30444-.0989-.54312-.3376-.64204-.642-.04894-.1506-.04894-.3368-.04894-.709z"/><path d="m8.64904 18.291c-.04894.1506-.04894.3367-.04894.709 0 .3722 0 .5584.04894.709.09892.3044.3376.5431.64204.642.15063.049.33676.049.70902.049.3723 0 .5584 0 .709-.049.3045-.0989.5431-.3376.6421-.642.0489-.1506.0489-.3368.0489-.709 0-.3723 0-.5584-.0489-.709-.099-.3045-.3376-.5432-.6421-.6421-.1506-.0489-.3367-.0489-.709-.0489-.37226 0-.55839 0-.70902.0489-.30444.0989-.54312.3376-.64204.6421z"/><path clip-rule="evenodd" d="m26 19c0 3.3137-2.6863 6-6 6s-6-2.6863-6-6 2.6863-6 6-6 6 2.6863 6 6zm-6-4c.5523 0 1 .4477 1 1v2h2c.5523 0 1 .4477 1 1s-.4477 1-1 1h-2v2c0 .5523-.4477 1-1 1s-1-.4477-1-1v-2h-2c-.5523 0-1-.4477-1-1s.4477-1 1-1h2v-2c0-.5523.4477-1 1-1z" fill-rule="evenodd"/></g></svg>
