<svg fill="none" height="28" viewBox="0 0 28 28" width="28" xmlns="http://www.w3.org/2000/svg" xmlns:xlink="http://www.w3.org/1999/xlink"><linearGradient id="a" gradientUnits="userSpaceOnUse" x1="-14" x2="14" y1="14" y2="42"><stop offset="0" stop-color="#b1b6bd"/><stop offset="1" stop-color="#99a2ad"/></linearGradient><path d="m0 14c0-7.73199 6.26801-14 14-14 7.732 0 14 6.26801 14 14 0 7.732-6.268 14-14 14-7.73199 0-14-6.268-14-14z" fill="url(#a)"/><path d="m12.0862 20.3623c-.4009 1.8023.1886 2.1722 1.3165.8339l4.9565-5.8932c1.1229-1.3338.7329-2.6519-.8793-2.9344l-2.2695-.3978c-.1376-.0247-.223-.1682-.1867-.3251l.8901-4.00804c.4009-1.80228-.1886-2.17215-1.3165-.83389l-4.95648 5.89323c-1.12296 1.3338-.73292 2.6519.87928 2.9344l2.2695.3978c.1376.0247.223.1682.1867.3251z" fill="#fff"/></svg>
