<svg xmlns="http://www.w3.org/2000/svg" width="28" height="28" fill="currentColor" viewBox="0 0 28 28"><path fill-rule="evenodd" d="M8.675 5c.536 0 .642.006.73.028a1 1 0 0 1 .29.12c.077.047.156.117.535.496l1.126 1.126.059.059c.287.288.54.542.846.729a3 3 0 0 0 .867.36c.348.083.707.082 1.114.082H19.4c.997 0 1.684 0 2.217.044.522.043.808.122 1.018.228a2.5 2.5 0 0 1 1.092 1.093c.18.351.27.796.27 2.687a1 1 0 0 0 2 0c0-1.802-.054-2.745-.488-3.595a4.5 4.5 0 0 0-1.966-1.967c-.539-.274-1.117-.386-1.763-.439C21.156 6 20.386 6 19.442 6h-5.117c-.536 0-.642-.006-.73-.028a1 1 0 0 1-.29-.12c-.076-.047-.156-.117-.535-.496L11.644 4.23l-.059-.059c-.287-.288-.54-.542-.846-.729a3 3 0 0 0-.867-.36C9.523 3 9.165 3 8.758 3h-.2c-.944 0-1.714 0-2.338.051-.646.053-1.224.165-1.763.44A4.5 4.5 0 0 0 2.49 5.456c-.274.539-.386 1.117-.439 1.763C2 7.844 2 8.614 2 9.558v7.884c0 .945 0 1.714.051 2.338.053.646.165 1.224.44 1.763a4.5 4.5 0 0 0 1.966 1.966c.539.275 1.117.387 1.763.44C6.844 24 7.614 24 8.558 24H15a1 1 0 1 0 0-2H8.6c-.997 0-1.684 0-2.217-.044-.522-.043-.808-.122-1.018-.229a2.5 2.5 0 0 1-1.093-1.092c-.106-.21-.185-.496-.228-1.018C4.001 19.084 4 18.397 4 17.4V9.6c0-.997 0-1.684.044-2.217.043-.522.122-.808.228-1.018a2.5 2.5 0 0 1 1.093-1.093c.21-.106.496-.185 1.018-.228C6.916 5.001 7.603 5 8.6 5h.075ZM25.5 17.492a2.994 2.994 0 0 0-3-2.992l-.176.005a3.003 3.003 0 0 0-2.824 2.996V19l-.748.001a.76.76 0 0 0-.752.76v4.48c0 .42.337.76.752.76h7.496a.76.76 0 0 0 .752-.76v-4.48c0-.42-.337-.76-.752-.76L25.5 19v-1.507Zm-3.145-1.485L22.5 16c.828 0 1.5.666 1.5 1.5V19h-3v-1.5c0-.78.59-1.42 1.355-1.493Z" clip-rule="evenodd"/></svg>
