<svg xmlns="http://www.w3.org/2000/svg" width="28" height="28" fill="currentColor" viewBox="0 0 28 28"><path fill-rule="evenodd" d="M8.675 5c.536 0 .642.006.73.028a1 1 0 0 1 .29.12c.077.047.156.117.535.496l1.126 1.126.059.059c.287.288.54.542.846.729a3 3 0 0 0 .867.36c.348.083.707.082 1.114.082H19.4c.997 0 1.684 0 2.217.044.522.043.808.122 1.018.228a2.5 2.5 0 0 1 1.092 1.093c.15.295.235.714.261 1.662a1 1 0 1 0 2-.054c-.027-.975-.109-1.79-.479-2.516a4.5 4.5 0 0 0-1.966-1.967c-.539-.274-1.117-.386-1.763-.439C21.156 6 20.386 6 19.442 6h-5.117c-.536 0-.642-.006-.73-.028a1 1 0 0 1-.29-.12c-.076-.047-.156-.117-.535-.496L11.644 4.23l-.059-.059c-.287-.288-.54-.542-.846-.729a3 3 0 0 0-.867-.36C9.523 3 9.165 3 8.758 3h-.2c-.944 0-1.714 0-2.338.051-.646.053-1.224.165-1.763.44A4.5 4.5 0 0 0 2.49 5.456c-.274.539-.386 1.117-.439 1.763C2 7.844 2 8.614 2 9.558v7.884c0 .944 0 1.714.051 2.338.053.646.165 1.224.44 1.763a4.5 4.5 0 0 0 1.966 1.966c.539.275 1.117.387 1.763.44C6.844 24 7.614 24 8.558 24H18a1 1 0 1 0 0-2H8.6c-.997 0-1.684 0-2.217-.044-.522-.043-.808-.122-1.018-.229a2.5 2.5 0 0 1-1.093-1.092c-.106-.21-.185-.496-.228-1.018C4.001 19.084 4 18.397 4 17.4V9.6c0-.997 0-1.684.044-2.217.043-.522.122-.808.228-1.018a2.5 2.5 0 0 1 1.093-1.093c.21-.106.496-.185 1.018-.228C6.916 5.001 7.603 5 8.6 5h.075ZM21 24a1 1 0 1 0 2 0v-7.586l2.295 2.295a1 1 0 1 0 1.414-1.414l-4.002-4.002a1 1 0 0 0-1.414 0l-3.997 3.997a1 1 0 1 0 1.414 1.415l2.29-2.29V24Z" clip-rule="evenodd"/></svg>
