<svg xmlns="http://www.w3.org/2000/svg" width="28" height="28" fill="currentColor" viewBox="0 0 28 28"><path fill-rule="evenodd" d="M8.675 5c.536 0 .642.006.73.028a1 1 0 0 1 .29.12c.077.047.156.117.535.496l1.126 1.126.059.059c.287.288.54.542.846.729a3 3 0 0 0 .867.36c.348.083.707.082 1.114.082H19.4c.997 0 1.684 0 2.217.044.522.043.808.122 1.018.228a2.5 2.5 0 0 1 1.092 1.093c.107.21.186.496.229 1.018.043.533.044 1.22.044 2.217v4.8c0 .997 0 1.684-.044 2.217-.043.522-.122.808-.229 1.018a2.5 2.5 0 0 1-1.092 1.092c-.21.107-.496.186-1.018.229-.533.043-1.22.044-2.217.044h-2.9a1 1 0 1 0 0 2h2.942c.945 0 1.714 0 2.338-.051.646-.053 1.224-.165 1.763-.44a4.5 4.5 0 0 0 1.966-1.966c.275-.539.387-1.117.44-1.763.051-.624.051-1.394.051-2.338v-4.884c0-.944 0-1.714-.051-2.338-.053-.646-.165-1.224-.44-1.763a4.5 4.5 0 0 0-1.966-1.967c-.539-.274-1.117-.386-1.763-.439C21.156 6 20.386 6 19.442 6h-5.117c-.536 0-.642-.006-.73-.028a1 1 0 0 1-.29-.12c-.076-.047-.156-.117-.535-.496L11.644 4.23l-.059-.059c-.287-.288-.54-.542-.846-.729a3 3 0 0 0-.867-.36C9.523 3 9.165 3 8.758 3h-.2c-.944 0-1.714 0-2.338.051-.646.053-1.224.165-1.763.44A4.5 4.5 0 0 0 2.49 5.456c-.274.539-.386 1.117-.439 1.763C2 7.844 2 8.614 2 9.558V17a1 1 0 1 0 2 0V9.6c0-.997 0-1.684.044-2.217.043-.522.122-.808.228-1.018a2.5 2.5 0 0 1 1.093-1.093c.21-.106.496-.185 1.018-.228C6.916 5.001 7.603 5 8.6 5h.075ZM3 20a1 1 0 1 0 0 2h7.586l-2.291 2.291a1 1 0 1 0 1.414 1.414l3.998-3.998a1 1 0 0 0 0-1.414L9.71 16.295a1 1 0 0 0-1.414 1.414L10.585 20H3Z" clip-rule="evenodd"/></svg>
