<svg fill="none" height="28" viewBox="0 0 28 28" width="28" xmlns="http://www.w3.org/2000/svg"><path clip-rule="evenodd" d="m10.5527 4.05545c-.2354-.0565-.4745-.05586-.6644-.05535l-.05104.00009h-2.07856c-.80497-.00001-1.46933-.00002-2.01052.04419-.5621.04593-1.07881.14449-1.56414.39179-.75265.38349-1.36457.99541-1.74806 1.74806-.2473.48533-.34586 1.00204-.39179 1.56413-.04421.5412-.0442 1.20555-.04419 2.01052v8.48262c-.00001.805-.00002 1.4693.04419 2.0105.04593.5621.14449 1.0788.39179 1.5642.38349.7526.99541 1.3645 1.74806 1.748.48533.2473 1.00204.3459 1.56414.3918.54118.0442 1.20554.0442 2.0105.0442h12.48262c.805 0 1.4693 0 2.0105-.0442.5621-.0459 1.0788-.1445 1.5642-.3918.7526-.3835 1.3645-.9954 1.748-1.748.2473-.4854.3459-1.0021.3918-1.5642.0442-.5412.0442-1.2055.0442-2.0105v-5.9826c0-.805 0-1.4693-.0442-2.0105-.0459-.56213-.1445-1.07884-.3918-1.56417-.3835-.75265-.9954-1.36457-1.748-1.74807-.4854-.24729-1.0021-.34585-1.5642-.39178-.5412-.04421-1.2055-.0442-2.0105-.04419h-6.5786c-.131 0-.1963-.00024-.2438-.00241l-.0036-.00017-.0027-.00241c-.0351-.03205-.0815-.07811-.1741-.17074l-1.5628-1.56275-.036-.03615c-.1339-.13465-.3026-.3042-.5089-.43065-.179-.10966-.374-.19047-.5781-.23946zm-.71544 1.94474c.131 0 .19634.00024.24384.00241l.0036.00017.0027.00242c.0351.03204.0815.07811.1741.17074l1.5628 1.56274.036.03615c.1339.13465.3026.3042.5089.43065.179.10966.3741.19047.5781.23946.2354.0565.4745.05586.6644.05535l.051-.00009h6.5373c.8566 0 1.4389.00078 1.889.03755.4384.03582.6626.10075.819.18044.3763.19174.6823.49771.874.87403.0797.1564.1446.3806.1804.81899.0143.1739.0231.3675.0286.589h-19.991v-1.20001c0-.85658.00078-1.43887.03755-1.88896.03582-.43842.10075-.66262.18044-.81902.19174-.37632.49771-.68229.87403-.87403.1564-.07969.3806-.14462.81902-.18044.45009-.03677 1.03238-.03755 1.88896-.03755zm-5.83726 7.00001v5.2c0 .8566.00078 1.4389.03755 1.889.03582.4384.10075.6626.18044.819.19174.3763.49771.6823.87403.874.1564.0797.3806.1446.81902.1804.45009.0368 1.03238.0376 1.88896.0376h12.4c.8566 0 1.4389-.0008 1.889-.0376.4384-.0358.6626-.1007.819-.1804.3763-.1917.6823-.4977.874-.874.0797-.1564.1446-.3806.1804-.819.0368-.4501.0376-1.0324.0376-1.889v-5.2z" fill="currentColor" fill-rule="evenodd"/></svg>
