<svg xmlns="http://www.w3.org/2000/svg" width="28" height="28" fill="currentColor" viewBox="0 0 28 28"><path fill-rule="evenodd" d="M9.872 3.083C9.523 2.999 9.165 3 8.758 3h-.2c-.944 0-1.714 0-2.338.051-.646.053-1.224.165-1.763.44A4.5 4.5 0 0 0 2.49 5.456c-.274.539-.386 1.117-.439 1.763C2 7.844 2 8.614 2 9.558v7.884c0 .945 0 1.714.051 2.338.053.646.165 1.224.44 1.763a4.5 4.5 0 0 0 1.966 1.966c.539.275 1.117.387 1.763.44C6.844 24 7.614 24 8.558 24h10.884c.945 0 1.714 0 2.338-.051.646-.053 1.224-.165 1.763-.44a4.5 4.5 0 0 0 1.966-1.966c.275-.539.387-1.117.44-1.763.051-.624.051-1.393.051-2.338v-4.884c0-.944 0-1.714-.051-2.338-.053-.646-.165-1.224-.44-1.763a4.5 4.5 0 0 0-1.966-1.967c-.539-.274-1.117-.386-1.763-.439C21.156 6 20.386 6 19.442 6h-5.117c-.536 0-.642-.006-.73-.028a1 1 0 0 1-.29-.12c-.076-.047-.156-.117-.535-.496L11.644 4.23l-.059-.059c-.287-.288-.54-.542-.846-.729a3 3 0 0 0-.867-.36Z" clip-rule="evenodd"/></svg>
