<svg xmlns="http://www.w3.org/2000/svg" width="28" height="28" fill="currentColor" viewBox="0 0 28 28"><path fill-rule="evenodd" d="M14 24c5.523 0 10-4.477 10-10S19.523 4 14 4 4 8.477 4 14s4.477 10 10 10Zm0 2c6.627 0 12-5.373 12-12S20.627 2 14 2 2 7.373 2 14s5.373 12 12 12Z" clip-rule="evenodd"/><path fill-rule="evenodd" d="m16.16 13.642-.32-.108.033-.095a46.412 46.412 0 0 0-.083-.057l-1.714-1.187-.076-.052-.076.052-1.714 1.187-.083.057.032.095.632 1.874.03.091h2.357l.031-.09.632-1.875.319.108Zm.082.064v-.001Zm-.232-.701v.001Zm-.978 2.902Zm-3.042-2.902v.001Zm-.231.7h-.001Zm2.561-3.669c.238.06.457.21.895.514l1.714 1.187c.474.328.71.492.853.71.127.194.2.417.215.647.016.26-.076.534-.26 1.08l-.632 1.873c-.176.523-.264.784-.426.977a1.34 1.34 0 0 1-.535.384c-.234.092-.51.092-1.061.092h-2.166c-.55 0-.827 0-1.061-.092a1.333 1.333 0 0 1-.535-.384c-.162-.193-.25-.454-.426-.977l-.632-1.873c-.184-.546-.276-.82-.26-1.08.015-.23.088-.453.215-.646.143-.22.38-.383.853-.711l1.714-1.187c.438-.303.657-.455.895-.514.21-.052.43-.052.64 0Zm4.34-5.341-3.136 2.733a2.334 2.334 0 0 1-3.073-.005l-3.112-2.73 1.319-1.504 3.112 2.73c.126.11.314.11.44 0l3.135-2.732 1.314 1.508ZM9.646 20.652a.333.333 0 0 0-.411-.282l-3.876.969-.485-1.941 3.875-.97a2.334 2.334 0 0 1 2.883 1.976l.48 3.842-1.985.248-.48-3.842Zm8.677 0a.333.333 0 0 1 .412-.282l3.875.969.486-1.941-3.876-.97a2.334 2.334 0 0 0-2.882 1.976l-.48 3.842 1.985.248.48-3.842ZM6.507 6.815l1.794 3.824a2.334 2.334 0 0 1-.988 3.037l-3.23 1.777-.965-1.753 3.23-1.777a.333.333 0 0 0 .142-.434L4.696 7.665l1.811-.85Zm14.986 0-1.794 3.824a2.334 2.334 0 0 0 .988 3.037l3.23 1.777.965-1.753-3.23-1.777a.334.334 0 0 1-.142-.434l1.794-3.824-1.811-.85Z" clip-rule="evenodd"/></svg>
