<svg fill="none" height="28" viewBox="0 0 28 28" width="28" xmlns="http://www.w3.org/2000/svg"><g fill="currentColor"><path d="m13.7084 6.11809v-2.2097c0-.07549.0209-.14951.0604-.21382.1181-.19213.3696-.25214.5617-.13405l5.0186 3.0847c.0545.03355.1005.07947.134.13405.1181.19212.0581.4436-.134.56169l-5.0186 3.08474c-.0643.0395-.1383.0604-.2138.0604-.2255 0-.4083-.1828-.4083-.4083v-2.20971c-4.02712 0-7.29171 3.26461-7.29171 7.29171 0 4.027 3.26459 7.2916 7.29171 7.2916 3.5211 0 6.5218-2.5144 7.1655-5.9333.0894-.4749.5469-.7874 1.0218-.698.4749.0895.7874.5469.698 1.0218-.7987 4.2423-4.5188 7.3595-8.8853 7.3595-4.99362 0-9.04171-4.0481-9.04171-9.0416 0-4.9936 4.04809-9.04171 9.04171-9.04171z"/><path d="m10.9422 18.5431c-.2256 0-.4084-.1828-.4084-.4083v-4.1745l-1.01222.3976c-.21429.0842-.4461-.0738-.4461-.304v-.5677c0-.164.09818-.3121.24928-.376l2.15254-.9104c.2692-.1139.5674.0837.5674.376v5.559c0 .2255-.1828.4083-.4083.4083z"/><path d="m13.5642 16.7408c-.1114.1295-.1671.2879-.1671.4751 0 .2496.0976.4859.293.709.1953.2231.4623.4025.8011.5382.3387.1357.7125.2036 1.1215.2036.4974 0 .9346-.096 1.3115-.2879.3769-.1918.6676-.4625.8721-.8119.2044-.3495.3067-.7551.3067-1.2169 0-.4149-.0847-.78-.2541-1.0951s-.4067-.56-.7118-.7347c-.3052-.1748-.6577-.2621-1.0575-.2621-.2685 0-.5173.0444-.7462.1334-.2288.0889-.3982.2067-.5081.3533h-.0778l.1007-1.3853h2.298c.2228 0 .3929-.0523.5104-.1568s.1763-.2535.1763-.4469c0-.1966-.0595-.3495-.1786-.4587-.119-.1092-.2883-.1638-.5081-.1638h-2.6001c-.5707 0-.8728.2512-.9064.7535l-.1511 2.2745c-.0091.1529.0176.2902.0801.4119.0626.1216.1526.216.2701.2831s.251.1006.4006.1006c.0946 0 .1861-.0179.2746-.0538s.1877-.0975.2976-.1849c.1373-.0998.28-.177.428-.2316s.2922-.0819.4326-.0819c.1892 0 .3593.0413.5104.124s.2686.1989.3525.3487c.0839.1497.1259.3213.1259.5148 0 .2028-.0443.3822-.1328.5382s-.2113.2777-.3685.365c-.1571.0874-.3349.1311-.5333.1311-.2075 0-.3967-.0476-.5676-.1428-.1709-.0951-.3357-.2426-.4944-.4422-.0855-.103-.1732-.1779-.2632-.2247-.0901-.0468-.19-.0702-.2999-.0702-.18 0-.3257.0648-.4371.1942z"/></g></svg>
