<svg width="28" height="28" viewBox="0 0 28 28" fill="none" xmlns="http://www.w3.org/2000/svg">
<path d="M0 14C0 6.26801 6.26801 0 14 0C21.732 0 28 6.26801 28 14C28 21.732 21.732 28 14 28C6.26801 28 0 21.732 0 14Z" fill="url(#paint0_linear)"/>
<path d="M17 10C20.5 10 21 14.5 21 16.5C21 18 20.5 19 19.5 19C18 19 18.25 16.5 16 16.5H12C9.75 16.5 9.99155 19 8.5 19C7.5 19 7 18 7 16.5C7 14.5 7.5 10 11 10H17ZM10.5307 11.75H10.4693C10.3324 11.75 10.2373 11.7732 10.1558 11.8168C10.0743 11.8604 10.0104 11.9243 9.96678 12.0058C9.92321 12.0873 9.9 12.1824 9.9 12.3193V12.9H9.31933C9.21665 12.9 9.13745 12.9131 9.0699 12.938L9.00579 12.9668C8.92431 13.0104 8.86036 13.0743 8.81678 13.1558C8.77321 13.2373 8.75 13.3324 8.75 13.4693V13.5307C8.75 13.6676 8.77321 13.7627 8.81678 13.8442C8.86036 13.9257 8.92431 13.9896 9.00579 14.0332C9.08727 14.0768 9.18242 14.1 9.31933 14.1H9.9V14.6807C9.9 14.7834 9.91305 14.8625 9.93796 14.9301L9.96678 14.9942C10.0104 15.0757 10.0743 15.1396 10.1558 15.1832C10.2373 15.2268 10.3324 15.25 10.4693 15.25H10.5307C10.6676 15.25 10.7627 15.2268 10.8442 15.1832C10.9257 15.1396 10.9896 15.0757 11.0332 14.9942C11.0768 14.9127 11.1 14.8176 11.1 14.6807V14.1H11.6807C11.7834 14.1 11.8625 14.0869 11.9301 14.062L11.9942 14.0332C12.0757 13.9896 12.1396 13.9257 12.1832 13.8442C12.2268 13.7627 12.25 13.6676 12.25 13.5307V13.4693C12.25 13.3324 12.2268 13.2373 12.1832 13.1558C12.1396 13.0743 12.0757 13.0104 11.9942 12.9668C11.9127 12.9232 11.8176 12.9 11.6807 12.9H11.1V12.3193C11.1 12.2166 11.0869 12.1375 11.062 12.0699L11.0332 12.0058C10.9896 11.9243 10.9257 11.8604 10.8442 11.8168C10.7627 11.7732 10.6676 11.75 10.5307 11.75ZM17.9307 12.9H16.5693C16.4324 12.9 16.3373 12.9232 16.2558 12.9668C16.1743 13.0104 16.1104 13.0743 16.0668 13.1558C16.0232 13.2373 16 13.3324 16 13.4693V13.5307C16 13.6676 16.0232 13.7627 16.0668 13.8442C16.1104 13.9257 16.1743 13.9896 16.2558 14.0332C16.3373 14.0768 16.4324 14.1 16.5693 14.1H17.9307C18.0676 14.1 18.1627 14.0768 18.2442 14.0332C18.3257 13.9896 18.3896 13.9257 18.4332 13.8442C18.4768 13.7627 18.5 13.6676 18.5 13.5307V13.4693C18.5 13.3324 18.4768 13.2373 18.4332 13.1558C18.3896 13.0743 18.3257 13.0104 18.2442 12.9668C18.1627 12.9232 18.0676 12.9 17.9307 12.9Z" fill="white"/>
<defs>
<linearGradient id="paint0_linear" x1="-14" y1="14" x2="14" y2="42" gradientUnits="userSpaceOnUse">
<stop stop-color="#70B2FF"/>
<stop offset="1" stop-color="#5C9CE6"/>
</linearGradient>
</defs>
</svg>
