<svg fill="none" height="28" viewBox="0 0 28 28" width="28" xmlns="http://www.w3.org/2000/svg" xmlns:xlink="http://www.w3.org/1999/xlink"><linearGradient id="a" gradientUnits="userSpaceOnUse" x1="-14" x2="14" y1="14" y2="42"><stop offset="0" stop-color="#b1b6bd"/><stop offset="1" stop-color="#99a2ad"/></linearGradient><path d="m0 14c0-7.73199 6.26801-14 14-14 7.732 0 14 6.26801 14 14 0 7.732-6.268 14-14 14-7.73199 0-14-6.268-14-14z" fill="url(#a)"/><path d="m15 6.66667c.1802.60067.3063 1.20134 1.3047 1.77763 1.1182.30325 1.665.00225 2.1736-.33686.5304-.35354.6878-.25135.8996-.04298l.5147.51439c.2357.2357.3299.32999 0 .94281-.2974.55234-.6331 1.06634-.3342 2.18044.5763 1.0043 1.1756 1.178 1.7749 1.2979.625.125.6641.3086.6665.6057l.0002.7276c0 .3334 0 .4667-.6667.6667-.6006.1802-1.2013.3063-1.7776 1.3047-.3032 1.1182-.0022 1.665.3369 2.1736.3535.5304.2513.6878.0429.8996l-.5143.5147c-.2358.2357-.33.3299-.9429 0-.5523-.2974-1.0663-.6331-2.1804-.3342-1.0043.5763-1.178 1.1756-1.2979 1.7749-.125.625-.3086.6641-.6057.6665-.2426.0001-.4851.0002-.7276.0002-.3334 0-.4667 0-.6667-.6667-.1802-.6006-.3063-1.2013-1.3047-1.7776-1.1182-.3032-1.665-.0022-2.17364.3369-.53034.3535-.68778.2513-.8996.0429l-.51462-.5143c-.2357-.2358-.32999-.33 0-.9429.2974-.5523.63309-1.0663.33415-2.1804-.57632-1.0043-1.17562-1.178-1.77492-1.2979-.625-.125-.66407-.3086-.66651-.6057l-.00016-.7276c0-.3334 0-.4667.66667-.6667.60067-.1802 1.20134-.3063 1.77763-1.3047.30325-1.1182.00225-1.665-.33686-2.17364-.35354-.53034-.25135-.68778-.04298-.8996l.51439-.51462c.2357-.2357.32999-.32999.94281 0 .55234.2974 1.06634.63309 2.18044.33415 1.0043-.57632 1.178-1.17562 1.2979-1.77492.125-.625.3086-.66407.6057-.66651l.7276-.00016c.3334 0 .4667 0 .6667.66667zm-1 3.53333c-2.0987 0-3.8 1.7013-3.8 3.8s1.7013 3.8 3.8 3.8 3.8-1.7013 3.8-3.8-1.7013-3.8-3.8-3.8z" fill="#fff"/></svg>
