<svg xmlns="http://www.w3.org/2000/svg" width="28" height="28" fill="currentColor" viewBox="0 0 28 28"><path fill-rule="evenodd" d="M6.5 17.512c0 3.585 2.91 6.49 6.5 6.49h1V26h-1c-4.694 0-8.5-3.8-8.5-8.488h2ZM16.639 4.031a1.395 1.395 0 0 0-1.667 1.068l-.994 4.632a1 1 0 0 1-1.956-.419l.995-4.632A3.395 3.395 0 0 1 19.7 5.84l-.71 5.314a1 1 0 0 1-1.982-.264l.71-5.314a1.393 1.393 0 0 0-1.08-1.544Z" clip-rule="evenodd"/><path d="M8.223 6.055a1.403 1.403 0 0 1 2.762-.462l1.045 4.173a1 1 0 0 0 1.94-.484l-1.045-4.173a3.404 3.404 0 0 0-3.302-2.575A3.402 3.402 0 0 0 6.23 6.228l.74 8.494 1.904-1.188-.652-7.479Z"/><path fill-rule="evenodd" d="M12.473 14.752a1.409 1.409 0 0 0-1.47-1.099l-1.236.082A3.497 3.497 0 0 0 6.5 17.223v.289a1 1 0 0 1-2 0v-.29a5.495 5.495 0 0 1 5.134-5.48l1.236-.082a3.405 3.405 0 0 1 .787 6.755l-.493.082a1 1 0 1 1-.328-1.97l.492-.082a1.408 1.408 0 0 0 1.145-1.693ZM22 16.014a3.997 3.997 0 0 0-4-3.994v-1.997c3.314 0 6 2.682 6 5.991v.158C24 21.6 19.593 26 14.158 26H13.5v-1.997h.658c4.331 0 7.842-3.506 7.842-7.831v-.158Z" clip-rule="evenodd"/></svg>
