<svg fill="none" height="28" viewBox="0 0 28 28" width="28" xmlns="http://www.w3.org/2000/svg"><g fill="currentColor"><path d="m18.5 13c.8284 0 1.5-.6716 1.5-1.5s-.6716-1.5-1.5-1.5-1.5.6716-1.5 1.5.6716 1.5 1.5 1.5z"/><path d="m12.5 13c.8284 0 1.5-.6716 1.5-1.5s-.6716-1.5-1.5-1.5-1.5.6716-1.5 1.5.6716 1.5 1.5 1.5z"/><path d="m14 2c2.9354 0 5.3569 1.00761 7.5953 3.08629 2.1754 2.0202 3.4047 4.78393 3.4047 7.67581l-.0188 8.6012c-.152 2.0618-1.6285 3.5783-3.6444 3.5783-.7678 0-1.298-.1729-2.0142-.5507-.1405-.0746-.2038-.1081-.261-.1375l-.1333-.0654c-.2481-.1152-.3944-.1376-.6088-.1016-.1468.0247-.3032.107-.555.3016-.0969.075-.4761.3869-.532.4316l-.1965.1527c-.9132.6874-1.7847 1.0277-3.036 1.0277-1.3371 0-2.2545-.3926-3.2431-1.1769l-.5968-.4803c-.21889-.1648-.35823-.2359-.47959-.2564-.25017-.042-.40755-.0045-.74211.167l-.4934.2559c-.60458.2957-1.09934.4323-1.78179.4323-2.01092 0-3.547-1.5113-3.64714-3.65l-.01607-8.5314c0-2.88998 1.22925-5.65371 3.4047-7.67391 2.18636-2.03035 4.6959-3.08629 7.5953-3.08629zm0 2c-2.3763 0-4.40614.85408-6.23435 2.55182-1.77176 1.64533-2.76565 3.87988-2.76565 6.20648l.01495 8.4842c.0492 1.04.71905 1.6991 1.64826 1.6991.38138 0 .62675-.08 1.08124-.3197l.28143-.1481c.68356-.3505 1.24478-.4844 1.98632-.3597.4919.0828.8988.2905 1.3512.6312.1479.1114.6167.4953.6366.511l.1775.136c.5811.4283 1.0689.6077 1.8225.6077.8287 0 1.3215-.2128 1.983-.742.0348-.0279.4326-.3551.5583-.4523l.1807-.1346c.4165-.2973.8011-.4788 1.2658-.557.7415-.1247 1.3028.0092 1.9863.3597l.4428.2306c.3566.1759.5862.2372.9199.2372.9221 0 1.5718-.6673 1.6471-1.6537l.0161-8.5277c0-2.3285-.9939-4.56305-2.7657-6.20838-1.8784-1.74438-3.8188-2.55182-6.2343-2.55182z"/><path clip-rule="evenodd" d="m21.5953 5.08629c-2.2384-2.07868-4.6599-3.08629-7.5953-3.08629-2.8994 0-5.40894 1.05594-7.5953 3.08629-2.17545 2.0202-3.4047 4.78393-3.4047 7.67391l.01607 8.5314c.10014 2.1387 1.63622 3.65 3.64714 3.65.68245 0 1.17721-.1366 1.78179-.4323l.4934-.2559c.33455-.1715.49194-.209.74211-.167.12136.0205.2607.0916.47959.2564l.5968.4803c.9886.7843 1.906 1.1769 3.2431 1.1769 1.2513 0 2.1228-.3403 3.036-1.0277l.1965-.1527c.018-.0144.0693-.0563.1339-.1092.1366-.1115.3323-.2715.3981-.3224.2518-.1946.4082-.2769.555-.3016.2144-.036.3607-.0136.6088.1016l.1333.0654c.0572.0294.1205.0629.261.1375.7162.3778 1.2464.5507 2.0142.5507 2.0159 0 3.4924-1.5165 3.6444-3.5783l.0188-8.6012c0-2.89188-1.2293-5.65561-3.4047-7.67581zm-13.82965 1.46553c1.82821-1.69774 3.85805-2.55182 6.23435-2.55182 2.4155 0 4.3559.80744 6.2343 2.55182 1.7718 1.64533 2.7657 3.87988 2.7657 6.20838l-.0161 8.5277c-.0753.9864-.725 1.6537-1.6471 1.6537-.3337 0-.5633-.0613-.9199-.2372l-.4428-.2306c-.6835-.3505-1.2448-.4844-1.9863-.3597-.4647.0782-.8493.2597-1.2658.557l-.1807.1346c-.0944.073-.3423.2757-.4746.384-.0439.0358-.075.0613-.0837.0683-.6615.5292-1.1543.742-1.983.742-.7536 0-1.2414-.1794-1.8225-.6077l-.1775-.136c-.0035-.0028-.0211-.017-.0484-.0393-.1272-.1037-.4665-.38-.5882-.4717-.4524-.3407-.8593-.5484-1.3512-.6312-.74154-.1247-1.30276.0092-1.98632.3597l-.28143.1481c-.45449.2397-.69986.3197-1.08124.3197-.92921 0-1.59906-.6591-1.64826-1.6991l-.01495-8.4842c0-2.3266.99389-4.56115 2.76565-6.20648zm4.73435 6.44818c.8284 0 1.5-.6716 1.5-1.5s-.6716-1.5-1.5-1.5-1.5.6716-1.5 1.5.6716 1.5 1.5 1.5zm6 0c.8284 0 1.5-.6716 1.5-1.5s-.6716-1.5-1.5-1.5-1.5.6716-1.5 1.5.6716 1.5 1.5 1.5z" fill-rule="evenodd"/></g></svg>
