<?xml version="1.0" encoding="UTF-8"?>
<svg width="28px" height="28px" viewBox="0 0 28 28" version="1.1" xmlns="http://www.w3.org/2000/svg" xmlns:xlink="http://www.w3.org/1999/xlink">
    <!-- Generator: Sketch 63.1 (92452) - https://sketch.com -->
    <title>ghost_outline_28</title>
    <desc>Created with Sketch.</desc>
    <g id="Page-1" stroke="none" stroke-width="1" fill="none" fill-rule="evenodd">
        <g id="ghost_outline_28" fill-rule="nonzero">
            <rect x="0" y="0" width="28" height="28"></rect>
            <path d="M9.75,11 C10.7164983,11 11.5,11.7835017 11.5,12.75 C11.5,13.7164983 10.7164983,14.5 9.75,14.5 C8.78350169,14.5 8,13.7164983 8,12.75 C8,11.7835017 8.78350169,11 9.75,11 Z M15.8310353,17.0067059 C16.2415453,16.6372468 16.8738351,16.6705252 17.2432941,17.0810353 C17.6127532,17.4915453 17.5794748,18.1238351 17.1689647,18.4932941 C15.4250693,20.0628001 13.4931746,20.0628001 11.7655918,19.1299054 C11.3415403,18.9009176 11.0247947,18.6676776 10.8310353,18.4932941 C10.4205252,18.1238351 10.3872468,17.4915453 10.7567059,17.0810353 C11.0977449,16.7021029 11.6627346,16.6445987 12.0705153,16.9285837 L12.1689647,17.0067059 C12.2529831,17.0823224 12.4454967,17.2240824 12.7158897,17.3700946 C13.7660847,17.9371999 14.797153,17.9371999 15.8310353,17.0067059 Z M14,2 C16.9353754,2 19.3568999,3.00761379 21.595304,5.0862872 C23.7707454,7.10649096 25,9.87021822 25,12.7620985 L25,12.7620985 L24.9812273,21.3632915 C24.8292098,23.4250796 23.3526561,24.9415813 21.3367909,24.9415813 C20.5690308,24.9415813 20.038823,24.7686698 19.3225596,24.3909143 C19.1820816,24.3162972 19.1187808,24.2827648 19.0615992,24.2534456 L19.0615992,24.2534456 L18.9282789,24.187975 C18.6801839,24.0728088 18.5339191,24.0503882 18.3194895,24.0864473 C18.1727231,24.111128 18.0162646,24.1934146 17.7645315,24.3880178 C17.6675619,24.4629806 17.2884182,24.7748714 17.2324769,24.8196293 L17.2324769,24.8196293 L17.0360013,24.9722635 C16.1228109,25.659743 15.2513222,26 14,26 C12.6628524,26 11.7454592,25.6074282 10.756908,24.8230816 L10.756908,24.8230816 L10.1600502,24.3428269 C9.94120544,24.1779823 9.80187225,24.1068559 9.68051054,24.0864473 C9.43034258,24.0443783 9.27295469,24.0819068 8.93840078,24.2534456 L8.93840078,24.2534456 L8.44499581,24.5092898 C7.84042029,24.8049598 7.34566255,24.9415813 6.66320913,24.9415813 C4.65228827,24.9415813 3.11620502,23.430291 3.01606743,21.2916437 L3.01606743,21.2916437 L3,12.760215 C3,9.87021822 4.22925456,7.10649096 6.40469603,5.0862872 C8.59105834,3.05594191 11.1006013,2 14,2 Z M13.9999982,4 C11.6236524,4 9.5938574,4.85407808 7.76565284,6.55182347 C5.9938946,8.19715051 4.99999823,10.4317191 4.99999823,12.7583314 L4.99999823,12.7583314 L5.01494865,21.2425081 C5.06414718,22.2825382 5.73400202,22.9415813 6.66320913,22.9415813 C7.04459477,22.9415813 7.28996483,22.8615612 7.7444496,22.6218671 L7.7444496,22.6218671 L8.02588255,22.4737516 C8.70944329,22.1232635 9.2706596,21.9894439 10.0121796,22.1141401 C10.5040825,22.19686 10.9110299,22.4045973 11.3633697,22.7453219 C11.5112977,22.8567486 11.9801492,23.240576 12.000012,23.2563357 L12.000012,23.2563357 L12.1774927,23.3923412 C12.7585697,23.8205797 13.2463658,24 13.9999982,24 C14.8286509,24 15.3215309,23.7871935 15.9830047,23.2579574 C16.0177813,23.2301331 16.4155802,22.9028961 16.5413129,22.8056979 L16.5413129,22.8056979 L16.7220438,22.6711396 C17.1384501,22.3738018 17.5230898,22.1922906 17.9878204,22.1141401 C18.7293404,21.9894439 19.2905567,22.1232635 19.9741174,22.4737516 L19.9741174,22.4737516 L20.416854,22.7044232 C20.7735029,22.8803159 21.0030784,22.9415813 21.3367909,22.9415813 C22.2589238,22.9415813 22.908629,22.2742983 22.9839361,21.2878766 L22.9839361,21.2878766 L22.9999982,12.760215 C22.9999982,10.4317191 22.0061054,8.19715051 20.2343472,6.55182347 C18.3559231,4.80744216 16.4154564,4 13.9999982,4 Z M16.8952214,11.8780906 C17.9283597,11.3222948 19.1195136,11.3222948 20.1689647,12.2632473 C20.5794747,12.6313163 20.6127532,13.2612273 20.2432942,13.670193 C19.8738352,14.0791586 19.2415453,14.1123118 18.8310353,13.7442428 L18.8310353,13.7442428 L18.7305627,13.6619567 C18.4328776,13.4418118 18.1656948,13.4590363 17.8455193,13.6312806 C17.7487375,13.6833461 17.6835387,13.7311755 17.6689648,13.7442427 L17.6689648,13.7442427 L17.5705153,13.822071 C17.1627346,14.1049876 16.597745,14.0476997 16.2567059,13.670193 C15.8872468,13.2612274 15.9205252,12.6313164 16.3310352,12.2632473 C16.4553502,12.1517848 16.644781,12.0128196 16.8952214,11.8780906 Z" id="↳-Icon-Color" fill="currentColor"></path>
        </g>
    </g>
</svg>
