<svg width="28" height="28" viewBox="0 0 28 28" fill="none" xmlns="http://www.w3.org/2000/svg">
<path d="M14 3.00103C16.7454 3.00103 18.9132 3.96133 20.9148 5.82009C22.8866 7.65117 24 10.1496 24 12.7612L23.9839 21.2908C23.8716 22.8145 22.8384 23.9426 21.3368 23.9426C19.8352 23.9426 19.4379 22.8854 18.1537 23.1013C16.8694 23.3173 16.3873 25.001 14 25.001C11.6127 25.001 11.0831 23.3093 9.84634 23.1013C8.56207 22.8854 8.1648 23.9426 6.66321 23.9426C5.21724 23.9426 4.09135 22.8823 4.01607 21.2908L4 12.7612C4 10.1496 5.11338 7.65117 7.08517 5.82009C9.00336 4.03878 11.2546 3.00103 14 3.00103ZM17.2433 17.081C16.8738 16.6705 16.2415 16.6372 15.831 17.0067C14.7972 17.9372 13.7661 17.9372 12.7159 17.3701C12.4455 17.2241 12.253 17.0823 12.169 17.0067L12.0705 16.9286C11.6627 16.6446 11.0977 16.7021 10.7567 17.081C10.3872 17.4915 10.4205 18.1238 10.831 18.4933C11.0248 18.6677 11.3415 18.9009 11.7656 19.1299C13.4932 20.0628 15.4251 20.0628 17.169 18.4933C17.5795 18.1238 17.6128 17.4915 17.2433 17.081ZM9.75 11C8.7835 11 8 11.7835 8 12.75C8 13.7165 8.7835 14.5 9.75 14.5C10.7165 14.5 11.5 13.7165 11.5 12.75C11.5 11.7835 10.7165 11 9.75 11ZM16.8952 11.8781C16.6448 12.0128 16.4554 12.1518 16.331 12.2632C15.9205 12.6313 15.8872 13.2612 16.2567 13.6702C16.5977 14.0477 17.1627 14.105 17.5705 13.8221L17.669 13.7442C17.6835 13.7312 17.7487 13.6833 17.8455 13.6313C18.1657 13.459 18.4329 13.4418 18.7306 13.662L18.831 13.7442C19.2415 14.1123 19.8738 14.0792 20.2433 13.6702C20.6128 13.2612 20.5795 12.6313 20.169 12.2632C19.1195 11.3223 17.9284 11.3223 16.8952 11.8781Z" fill="currentColor"/>
</svg>
