<svg fill="none" height="28" viewBox="0 0 28 28" width="28" xmlns="http://www.w3.org/2000/svg"><path clip-rule="evenodd" d="m21.5953 5.08629c-2.2384-2.07868-4.6599-3.08629-7.5953-3.08629-2.8994 0-5.40894 1.05594-7.5953 3.08629-2.17545 2.0202-3.4047 4.78393-3.4047 7.67391l.01607 8.5314c.10014 2.1387 1.63622 3.65 3.64714 3.65.68245 0 1.17721-.1366 1.78179-.4323l.4934-.2559c.33455-.1715.49194-.209.74211-.167.12136.0205.2607.0916.47959.2564l.5968.4803c.9886.7843 1.906 1.1769 3.2431 1.1769 1.2513 0 2.1228-.3403 3.036-1.0277l.1965-.1527c.018-.0144.0693-.0563.1339-.1092.1366-.1115.3323-.2715.3981-.3224.2518-.1946.4082-.2769.555-.3016.2144-.036.3607-.0136.6088.1016l.1333.0654c.0572.0294.1205.0629.261.1375.7162.3778 1.2464.5507 2.0142.5507 2.0159 0 3.4924-1.5165 3.6444-3.5783l.0188-8.6012c0-2.89188-1.2293-5.65561-3.4047-7.67581zm-13.82965 1.46553c1.82821-1.69774 3.85805-2.55182 6.23435-2.55182 2.4155 0 4.3559.80744 6.2343 2.55182 1.7718 1.64533 2.7657 3.87988 2.7657 6.20838l-.0161 8.5277c-.0753.9864-.725 1.6537-1.6471 1.6537-.3337 0-.5633-.0613-.9199-.2372l-.4428-.2306c-.6835-.3505-1.2448-.4844-1.9863-.3597-.4647.0782-.8493.2597-1.2658.557l-.1807.1346c-.0944.073-.3423.2757-.4746.384-.0439.0358-.075.0613-.0837.0683-.6615.5292-1.1543.742-1.983.742-.7536 0-1.2414-.1794-1.8225-.6077l-.1775-.136c-.0035-.0028-.0211-.017-.0484-.0393-.1272-.1037-.4665-.38-.5882-.4717-.4524-.3407-.8593-.5484-1.3512-.6312-.74154-.1247-1.30276.0092-1.98632.3597l-.28143.1481c-.45449.2397-.69986.3197-1.08124.3197-.92921 0-1.59906-.6591-1.64826-1.6991l-.01495-8.4842c0-2.3266.99389-4.56115 2.76565-6.20648zm4.73435 6.44818c.8284 0 1.5-.6716 1.5-1.5s-.6716-1.5-1.5-1.5-1.5.6716-1.5 1.5.6716 1.5 1.5 1.5zm6 0c.8284 0 1.5-.6716 1.5-1.5s-.6716-1.5-1.5-1.5-1.5.6716-1.5 1.5.6716 1.5 1.5 1.5z" fill="currentColor" fill-rule="evenodd"/></svg>
