<?xml version="1.0" encoding="UTF-8"?>
<svg width="28px" height="28px" viewBox="0 0 28 28" version="1.1" xmlns="http://www.w3.org/2000/svg" xmlns:xlink="http://www.w3.org/1999/xlink">
    <!-- Generator: Sketch 63.1 (92452) - https://sketch.com -->
    <title>gift_outline_28</title>
    <desc>Created with Sketch.</desc>
    <g id="Page-1" stroke="none" stroke-width="1" fill="none" fill-rule="evenodd">
        <g id="gift_outline_28">
            <polygon points="0 0 28 0 28 28 0 28"></polygon>
            <path d="M12.4355367,3.69292291 C13.065008,4.11933896 13.5920306,4.70983597 14.0013868,5.44929159 C14.4089391,4.70983597 14.9359618,4.11933896 15.5654331,3.69292291 C17.0556967,2.68338946 18.9408069,2.79067215 20.0753098,3.92517507 C21.2098127,5.05967799 21.3170954,6.94478813 20.307562,8.43505179 C20.172916,8.63381492 20.0219102,8.82236334 19.8550207,9.00021795 L21,8.99951513 C21.7986893,8.99951513 22.5093635,9.17772982 23.1019561,9.50409265 C23.6945487,9.83045549 24.1690596,10.3049665 24.4954225,10.8975591 C24.8217853,11.4901517 25,12.2008259 25,12.9995151 L25,13.4289618 C25,14.4359106 24.8607616,14.9758948 24.5993009,15.4647837 C24.3378403,15.9536726 23.9541574,16.3373554 23.4652686,16.5988161 C23.3190122,16.6770348 23.168183,16.744315 23.0016464,16.8002011 L23,19.8717447 C23,21.6547822 22.8143488,22.3013547 22.4657346,22.9532065 C22.1171204,23.6050584 21.6055433,24.1166355 20.9536914,24.4652497 C20.3018396,24.8138639 19.6552671,24.9995151 17.8722296,24.9995151 L10.1277704,24.9995151 C8.34473292,24.9995151 7.69816044,24.8138639 7.04630859,24.4652497 C6.39445674,24.1166355 5.88287959,23.6050584 5.53426541,22.9532065 C5.18565122,22.3013547 5,21.6547822 5,19.8717447 L4.99935499,16.8005369 C4.83242153,16.7445846 4.68128087,16.6771916 4.53473144,16.5988161 C4.04584256,16.3373554 3.66215969,15.9536726 3.40069906,15.4647837 C3.1610268,15.0166355 3.02405517,14.5255531 3.00289095,13.6712112 L3,12.9995151 C3,12.2008259 3.17821469,11.4901517 3.50457752,10.8975591 C3.83094036,10.3049665 4.30545134,9.83045549 4.89804394,9.50409265 C5.49063653,9.17772982 6.20131073,8.99951513 7,8.99951513 L8.14594904,9.00021795 C7.97905956,8.82236334 7.82805377,8.63381492 7.69340778,8.43505179 C6.68387433,6.94478813 6.79115702,5.05967799 7.92565994,3.92517507 C9.06016286,2.79067215 10.945273,2.68338946 12.4355367,3.69292291 Z M13,16.999 L7,16.9995151 L7,19.8717447 C7,21.1954486 7.07784319,21.5985537 7.2978918,22.0100088 C7.46010639,22.3133237 7.68619141,22.5394087 7.98950631,22.7016233 C8.40096145,22.9216719 8.80406657,22.9995151 10.1277704,22.9995151 L13,22.999 L13,16.999 Z M15,16.999 L15,22.999 L17.8722296,22.9995151 C19.1959334,22.9995151 19.5990386,22.9216719 20.0104937,22.7016233 C20.3138086,22.5394087 20.5398936,22.3133237 20.7021082,22.0100088 C20.9221568,21.5985537 21,21.1954486 21,19.8717447 L21,16.9995151 L15,16.999 Z M13,10.999 L7,10.9995151 C6.54161795,10.9995151 6.16059544,11.0920119 5.86287294,11.2559788 C5.60182206,11.3997492 5.4002341,11.6013372 5.25646365,11.8623881 C5.09249676,12.1601106 5,12.5411331 5,12.9995151 L5.00153978,13.6087657 C5.01081296,14.114848 5.06228106,14.3307795 5.16432545,14.521586 C5.23938649,14.6619379 5.33757722,14.7601286 5.47792916,14.8351897 C5.68793401,14.9475015 5.92837442,14.9985473 6.55259354,14.9995015 L13,14.999 L13,10.999 Z M21,10.9995151 L15,10.999 L15,14.999 L21.446,14.999 L21.6092506,14.9979753 C22.1153328,14.9887022 22.3312644,14.9372341 22.5220708,14.8351897 C22.6624228,14.7601286 22.7606135,14.6619379 22.8356745,14.521586 C22.9377189,14.3307795 22.989187,14.114848 22.9984602,13.6087657 L23,12.9995151 C23,12.5411331 22.9075032,12.1601106 22.7435364,11.8623881 C22.5997659,11.6013372 22.3981779,11.3997492 22.1371271,11.2559788 C21.8394046,11.0920119 21.4583821,10.9995151 21,10.9995151 Z M15,8.99951513 C18.65,8.64973725 19.6954578,6.29497294 18.7,5.29951513 C17.7045422,4.30405732 15.3497779,5.34951513 15,8.99951513 Z M9.30096974,5.29951513 C8.30551193,6.29497294 9.35096974,8.64973725 13.0009697,8.99951513 C12.6511919,5.34951513 10.2964275,4.30405732 9.30096974,5.29951513 Z" id="↳-Icon-Color" fill="currentColor" fill-rule="nonzero"></path>
        </g>
    </g>
</svg>
