<svg fill="none" height="28" viewBox="0 0 28 28" width="28" xmlns="http://www.w3.org/2000/svg" xmlns:xlink="http://www.w3.org/1999/xlink"><linearGradient id="a" gradientUnits="userSpaceOnUse" x1="-14" x2="14" y1="14" y2="42"><stop offset="0" stop-color="#ffb73d"/><stop offset="1" stop-color="#ffa000"/></linearGradient><path d="m0 14c0-7.73198 6.26801-14 14-14 7.732 0 14 6.26802 14 14 0 7.732-6.268 14-14 14-7.73199 0-14-6.268-14-14z" fill="url(#a)"/><g fill="#fff"><path clip-rule="evenodd" d="m11.5363 11.4982c-.107.8072-.1613 1.6508-.1613 2.4992 0 .8485.0543 1.692.1613 2.4992h4.9274c.107-.8072.1613-1.6507.1613-2.4992 0-.8484-.0544-1.692-.1613-2.4992z" fill-rule="evenodd"/><path clip-rule="evenodd" d="m21.6016 16.4966c.2585-.7863.3984-1.6264.3984-2.4992s-.1399-1.7129-.3984-2.4992h-3.6259c.1.8193.1493 1.6614.1493 2.4992s-.0493 1.6799-.1493 2.4992zm-.6719 1.4995h-3.2003c-.1305.623-.2939 1.2208-.4907 1.7797-.235.6674-.5267 1.3038-.8827 1.8666 1.9448-.5983 3.5735-1.9178 4.5737-3.6463zm-9.2856 3.6463c-.356-.5628-.6478-1.1992-.8828-1.8666-.1968-.5589-.3601-1.1567-.4907-1.7797h-3.20034c1.0002 1.7285 2.62896 3.048 4.57384 3.6463zm-5.24572-5.1458c-.25853-.7863-.39838-1.6264-.39838-2.4992s.13985-1.7129.39838-2.4992h3.62582c-.09989.8193-.1492 1.6614-.1492 2.4992s.04932 1.6799.1493 2.4992zm.67188-6.4979h3.20034c.1305-.623.2939-1.2208.4907-1.77971.235-.66738.5267-1.30378.8827-1.86656-1.94481.59826-3.57355 1.91779-4.57374 3.64627zm9.28564-3.64628c.356.56279.6478 1.19918.8828 1.86658.1968.5589.3601 1.1567.4907 1.7797h3.2003c-1.0002-1.72849-2.6289-3.04803-4.5738-3.64628zm-4.8196 5.14578c-.107.8072-.1613 1.6508-.1613 2.4992 0 .8485.0543 1.692.1613 2.4992h4.9274c.107-.8072.1613-1.6507.1613-2.4992 0-.8484-.0544-1.692-.1613-2.4992z" fill-rule="evenodd"/><path d="m16.1934 9.9987c-.1047-.45-.228-.87955-.3696-1.2818 0 0-.8238-2.7169-1.8238-2.7169s-1.8238 2.7169-1.8238 2.7169c-.1417.40225-.265.8318-.3696 1.2818z"/><path d="m11.8066 17.9961h4.3868c-.1046.45-.228.8796-.3696 1.2818 0 0-.8238 2.7221-1.8238 2.7221s-1.8238-2.7221-1.8238-2.7221c-.1416-.4022-.2649-.8318-.3696-1.2818z"/></g>
</svg>