<?xml version="1.0" encoding="UTF-8"?>
<svg width="28px" height="28px" viewBox="0 0 28 28" version="1.1" xmlns="http://www.w3.org/2000/svg" xmlns:xlink="http://www.w3.org/1999/xlink">
    <!-- Generator: Sketch 63.1 (92452) - https://sketch.com -->
    <title>globe_outline_28</title>
    <desc>Created with Sketch.</desc>
    <g id="Page-1" stroke="none" stroke-width="1" fill="none" fill-rule="evenodd">
        <g id="globe_outline_28">
            <polygon points="0 0 28 0 28 28 0 28"></polygon>
            <path d="M20.4118619,3.8546324 L20.5340348,3.93321511 C20.5687444,3.95579016 20.6033298,3.97853986 20.63779,4.00146296 L20.5344347,3.93331692 C20.6164071,3.98664263 20.6976876,4.04094222 20.7782598,4.09619929 L20.63779,4.00146296 C20.7253463,4.05970584 20.8120939,4.11906813 20.8980122,4.17952939 L20.7782598,4.09619929 C20.8618561,4.15353021 20.9446899,4.21189183 21.026743,4.27126584 L21.0266538,4.27132403 C21.1510135,4.36118857 21.2734933,4.45343347 21.3941186,4.54793689 C21.5417828,4.66370843 21.6868781,4.78294713 21.829069,4.90546369 C22.0631803,5.10711105 22.289604,5.31790297 22.5076165,5.53706912 L22.4178662,5.44783153 C22.4826371,5.51159163 22.5466872,5.57608196 22.6100029,5.64128917 L22.5076165,5.53706912 C22.5864609,5.61633077 22.6642052,5.6966877 22.7408245,5.77811509 L22.6100029,5.64128917 C22.6831559,5.71662743 22.7553286,5.79292265 22.8265007,5.87015423 L22.7408245,5.77811509 C22.8059037,5.84727818 22.8701713,5.91721356 22.9336121,5.98790603 L22.8265007,5.87015423 C22.8962472,5.94583889 22.9650326,6.02242278 23.0328377,6.09988654 L22.9336121,5.98790603 C23.0014346,6.06348111 23.0683121,6.13992146 23.1342261,6.21720851 L23.0328377,6.09988654 C23.1008906,6.17763347 23.1679559,6.25626672 23.234014,6.33576671 L23.1342261,6.21720851 C23.2014287,6.2960065 23.2676297,6.37568462 23.3328093,6.45622318 L23.3326024,6.45598434 C23.6123675,6.80165635 23.8731375,7.16291792 24.1135645,7.53845427 L24.0263374,7.40419255 C24.0941421,7.50705503 24.1604065,7.61102273 24.2250976,7.7160628 L24.1135645,7.53845427 C24.1656026,7.61973536 24.2166876,7.70168518 24.2668039,7.78428796 L24.2250976,7.7160628 C24.2681314,7.78593755 24.310469,7.85628684 24.3521007,7.92710101 L24.2668039,7.78428796 C24.3242496,7.87897131 24.3804225,7.97451259 24.4352989,8.07088806 L24.4354166,8.07109588 C24.519621,8.21897723 24.6008819,8.36903603 24.6789952,8.52097838 C24.7078272,8.57706592 24.7360458,8.6330367 24.763837,8.6892565 C24.8391102,8.8415263 24.9112912,8.99572169 24.9802478,9.1516617 C25.2095475,9.67013316 25.4033742,10.2085005 25.55836,10.7630803 L25.6217076,10.9990678 L25.708239,11.3581093 C25.7182552,11.4026906 25.7280233,11.4473658 25.7375418,11.4921332 L25.8046992,11.8321884 L25.8046992,11.8321884 L25.8659041,12.2000302 C25.8874631,12.3433553 25.9064873,12.4875106 25.9229295,12.6324488 L25.8867021,12.3442514 C25.9042074,12.4710902 25.9197303,12.5985619 25.9332386,12.7266342 L25.9332264,12.726518 C25.9639991,13.0182747 25.9843129,13.3130298 25.9937989,13.6105182 L25.993785,13.6100837 L26,14 L26,14 L25.9947925,14.3569565 C25.9930413,14.4169037 25.9908503,14.4767406 25.9882229,14.536464 C25.9760548,14.8130974 25.9545104,15.0873899 25.9239034,15.3589383 L25.932803,15.2774894 C25.9190344,15.4076 25.9031864,15.5370903 25.885293,15.6659263 L25.9239034,15.3589383 C25.9085338,15.4952988 25.890879,15.6309674 25.8709781,15.7659047 L25.8709634,15.7660041 C25.8278974,16.0580121 25.7742913,16.3466931 25.7105574,16.6315501 L25.7104773,16.6319082 L25.621966,16.9999282 L25.621966,16.9999282 L25.55836,17.2369197 C25.3761331,17.8889753 25.1402116,18.5186183 24.855663,19.1207816 C24.7091331,19.4309093 24.5494046,19.7342641 24.377429,20.0296096 L24.4337006,19.9319169 C24.38647,20.0148125 24.33828,20.0970905 24.2891457,20.1787358 L24.377429,20.0296096 C24.3229244,20.123214 24.2671896,20.2160139 24.2102468,20.3079872 L24.2891457,20.1787358 C24.2357013,20.2675431 24.1811397,20.3556019 24.1254802,20.4428927 L24.2102468,20.3079872 C24.1508785,20.4038782 24.0901969,20.4988706 24.0282274,20.5929394 L24.1254802,20.4428927 C24.087254,20.5028429 24.04851,20.5624309 24.0092545,20.6216503 L24.0282274,20.5929394 C23.9833361,20.6610836 23.9377689,20.728743 23.8915354,20.7959082 L24.0092545,20.6216503 C23.9277017,20.7446779 23.8439413,20.8661147 23.7580299,20.9859043 L23.8915354,20.7959082 C23.8316832,20.8828577 23.7707142,20.9689789 23.7086491,21.0542511 L23.708534,21.0544092 C23.4465649,21.4143327 23.1649361,21.7592747 22.8653218,22.0875179 L22.9282804,22.018003 C22.8579709,22.096243 22.7866479,22.1735537 22.7143319,22.2499146 L22.8653218,22.0875179 C22.7899583,22.1700825 22.7134569,22.2515907 22.6358423,22.3320175 L22.7143319,22.2499146 C22.6500966,22.3177428 22.5850779,22.3848216 22.5192903,22.4511365 L22.6358423,22.3320175 C22.5631269,22.4073676 22.4894345,22.4817686 22.4147854,22.5552001 L22.5192903,22.4511365 C22.4695072,22.5013185 22.4192839,22.551063 22.3686265,22.6003638 L22.3690156,22.5999851 C22.2504047,22.7154197 22.129819,22.8280589 22.0069492,22.9382015 C21.7413054,23.1763304 21.4649609,23.402808 21.1787444,23.6168079 L21.2544976,23.5597019 C21.1681963,23.625294 21.0809798,23.6897442 20.9928706,23.75303 L21.1787444,23.6168079 C21.1024068,23.6738844 21.025367,23.7300733 20.9476403,23.7853593 L20.9928706,23.75303 C20.9163327,23.8080046 20.8391211,23.8621005 20.7612507,23.915303 L20.9476403,23.7853593 C20.8474656,23.8566122 20.7461498,23.9263654 20.6437258,23.994586 L20.7612507,23.915303 C20.6966019,23.9594722 20.631499,24.0030257 20.5659504,24.0459549 L20.6437258,23.994586 C20.56232,24.0488072 20.4802141,24.1020604 20.3974245,24.1543291 L20.3976146,24.1542091 C20.0179642,24.3938989 19.6241418,24.6127862 19.2175406,24.8094076 L19.3445581,24.7470549 C19.2464979,24.795915 19.1476746,24.8434725 19.0481112,24.8897048 L19.2175406,24.8094076 C19.1317302,24.8509033 19.0453507,24.8914072 18.9584169,24.9309045 L19.0481112,24.8897048 C18.9567263,24.9321393 18.8647177,24.9734574 18.7721031,25.0136415 L18.9584169,24.9309045 C18.8540261,24.9783332 18.748836,25.0243104 18.6428726,25.0688105 L18.7721031,25.0136415 C18.6670789,25.0592099 18.5612753,25.10332 18.4547178,25.1459464 L18.6428726,25.0688105 C18.560401,25.1034449 18.4774609,25.1371845 18.3940645,25.1700172 L18.4547178,25.1459464 C18.3603155,25.1837103 18.2653216,25.2203096 18.1697537,25.2557265 L18.3940645,25.1700172 C18.2859594,25.2125775 18.1770875,25.2536138 18.0674752,25.2930996 L18.1697537,25.2557265 C18.0428177,25.3027683 17.9148691,25.3477243 17.7859497,25.3905527 L17.7856887,25.3906394 C17.5918066,25.4550492 17.3954617,25.5147209 17.197057,25.5694257 L17.3229491,25.5339692 C17.2337548,25.5596196 17.1441343,25.5842634 17.0541008,25.6078875 L17.197057,25.5694257 C17.0935867,25.5979549 16.9895561,25.6251332 16.8849855,25.6509405 L17.0541008,25.6078875 C16.9471412,25.6359529 16.8395986,25.6625791 16.731495,25.6877441 L16.8849855,25.6509405 C16.7917287,25.6739556 16.6980423,25.6958804 16.6039407,25.7167004 L16.731495,25.6877441 C16.6319288,25.7109218 16.5318866,25.7328601 16.4313857,25.7535417 L16.6039407,25.7167004 C16.4881324,25.742323 16.3716953,25.7662725 16.2546561,25.7885222 L16.4313857,25.7535417 C16.3329347,25.7738015 16.2340434,25.7928554 16.134728,25.8106874 L16.2546561,25.7885222 C16.1627656,25.8059909 16.0705038,25.8224119 15.9778838,25.8377722 L15.9781572,25.8377269 C15.8577784,25.8576907 15.7370705,25.8758256 15.6157882,25.8921487 L15.4962884,25.9076216 L15.4962884,25.9076216 L15.2083074,25.939922 C14.8109301,25.9796541 14.407841,26 14,26 C13.2718631,26 12.5588731,25.9351484 11.8664909,25.8109062 L12.0102432,25.836496 C11.9003681,25.8181429 11.7909984,25.7982972 11.6821554,25.7769805 L11.8664909,25.8109062 C11.778853,25.7951802 11.6915452,25.7785028 11.6045786,25.760885 L11.6043451,25.7614729 C11.4001387,25.7194692 11.1975845,25.6728564 10.9970598,25.6211904 L11.0693803,25.6401385 C10.9760176,25.6166925 10.883089,25.592153 10.7906089,25.5665343 L10.9970598,25.6211904 C10.8951622,25.5949361 10.7937887,25.5673769 10.6929582,25.5385318 L10.6933968,25.5391605 C10.4358185,25.4649706 10.1822101,25.383046 9.93244592,25.2930711 L10.2142292,25.391052 C10.0628711,25.3407525 9.91285123,25.2875213 9.76423685,25.2314256 L9.93244592,25.2930711 C9.83732311,25.2588042 9.74275789,25.2233695 9.64876757,25.1867845 L9.76423685,25.2314256 C9.65202272,25.1890695 9.54060991,25.1450803 9.43002744,25.099487 L9.64876757,25.1867845 C9.5550187,25.1502935 9.46184178,25.112658 9.36925396,25.0738952 L9.43002744,25.099487 C9.3509208,25.0668712 9.27223908,25.0334345 9.19399289,24.9991876 L9.36925396,25.0738952 C9.27352032,25.0338154 9.1784165,24.9925303 9.08396147,24.950059 L9.19399289,24.9991876 C9.09745283,24.9569337 9.00157576,24.9134464 8.90638163,24.8687455 L9.08396147,24.950059 C8.99103317,24.9082743 8.89873287,24.8653413 8.80707862,24.8212781 L8.90638163,24.8687455 C8.82218795,24.8292102 8.7385285,24.7887256 8.65541705,24.7473055 L8.65544187,24.7470549 C8.50983813,24.6747536 8.3659406,24.5993315 8.22379859,24.5211133 C8.16168961,24.4867214 8.09966561,24.4518741 8.03798579,24.4164946 C7.83266513,24.2989047 7.63137076,24.1753542 7.43411216,24.0461518 L7.60238542,24.1542091 C7.51962232,24.101955 7.43754248,24.0487169 7.35616231,23.9945115 L7.43411216,24.0461518 C7.36357395,23.99995 7.29355179,23.9530255 7.22405623,23.9053887 L7.35616231,23.9945115 C7.26691594,23.9350665 7.17851106,23.874458 7.09096931,23.8127076 L7.22405623,23.9053887 C7.135856,23.8449306 7.04850397,23.7833253 6.96202166,23.7205944 L7.09096931,23.8127076 C7.00257429,23.7503554 6.91505932,23.6868389 6.82844671,23.6221804 L6.96202166,23.7205944 C6.8891854,23.6677618 6.81696604,23.6141307 6.74537645,23.559714 L6.74550235,23.5597019 C6.48648714,23.3629271 6.23583365,23.1558663 5.99402397,22.9391393 C5.85478672,22.8142872 5.71845081,22.6862646 5.58516473,22.555151 L5.63097624,22.6000261 C5.58055689,22.5509503 5.53056755,22.501435 5.48101441,22.4514863 L5.58516473,22.555151 C5.51048837,22.4816919 5.43676937,22.4072625 5.36402815,22.3318833 L5.48101441,22.4514863 C5.41511447,22.3850604 5.34998599,22.3178682 5.28564352,22.249924 L5.36402815,22.3318833 C5.28662652,22.2516746 5.21033197,22.1703905 5.13516911,22.0880557 L5.28564352,22.249924 C5.2132223,22.173449 5.14179685,22.0960214 5.07138796,22.0176621 L5.07171962,22.018003 C4.77658533,21.689571 4.49960377,21.3451455 4.24196714,20.9859084 L4.291466,21.0544092 C4.22942644,20.969175 4.16848198,20.8830925 4.10865331,20.7961823 L4.24196714,20.9859084 C4.15616096,20.866264 4.07250059,20.7449768 3.99104232,20.6221028 L4.10865331,20.7961823 C4.06232907,20.7288894 4.01667376,20.6611003 3.97169697,20.5928245 L3.99104232,20.6221028 C3.95168204,20.5627306 3.91283591,20.502988 3.87451026,20.4428812 L3.97169697,20.5928245 C3.90973135,20.4987594 3.84905366,20.4037707 3.78968899,20.3078835 L3.87451026,20.4428812 C3.81889476,20.3556585 3.76437531,20.2676691 3.7109713,20.1789323 L3.78968899,20.3078835 C3.73285431,20.2160828 3.67722312,20.1234585 3.62281744,20.0300327 L3.7109713,20.1789323 C3.66168861,20.0970435 3.61335585,20.0145183 3.56598827,19.9313719 L3.56629938,19.9319169 C3.3914231,19.6249499 3.22996668,19.3100908 3.08238243,18.9875576 L3.14433698,19.1207816 C3.09994296,19.0268347 3.05673256,18.932219 3.01472504,18.8369536 L3.01443242,18.8362899 C2.78748049,18.3216045 2.59543667,17.7872444 2.44163995,17.2369197 L2.37803399,16.9999282 L2.28952271,16.6319082 C2.28103296,16.5939689 2.27272286,16.5559618 2.26459335,16.5178878 C2.20468015,16.2372479 2.15462753,15.9533231 2.11473771,15.6661477 L2.12903657,15.7660041 C2.109111,15.6309072 2.0914368,15.4950774 2.07605331,15.358554 L2.11473771,15.6661477 C2.09684689,15.5373479 2.0810004,15.4078941 2.06723206,15.2778203 L2.06719703,15.2774894 C2.03592345,14.9820383 2.01536069,14.6830499 2.00594152,14.3812531 L2.0059626,14.3819281 L2,14 L2,14 L2.00621498,13.6100837 C2.00777675,13.5611599 2.00963137,13.5123101 2.01177714,13.463536 C2.02408202,13.18389 2.04594747,12.9068212 2.07705837,12.6325561 L2.06677364,12.726518 C2.08028459,12.5984325 2.09581058,12.4709477 2.11331931,12.3440961 L2.11329788,12.3442514 L2.13409594,12.2000302 L2.13409594,12.2000302 L2.19530079,11.8321884 C2.22431325,11.6731759 2.25645961,11.5152572 2.29167352,11.3584987 L2.291761,11.3581093 L2.37829244,10.9990678 L2.37829244,10.9990678 L2.44163995,10.7630803 C2.59662582,10.2085005 2.79045252,9.67013316 3.02000249,9.15109585 L2.99896849,9.19893898 C3.07416816,9.0268708 3.1532865,8.85690689 3.2362107,8.68916008 C3.26395418,8.6330367 3.29217281,8.57706592 3.32081468,8.52134841 C3.42457851,8.31951216 3.53368588,8.12135741 3.64812615,7.92671509 L3.56458342,8.07109588 C3.61953145,7.9745903 3.67577956,7.87892121 3.73330392,7.78411242 L3.64812615,7.92671509 C3.68963184,7.85612138 3.73183902,7.78598969 3.77473811,7.71632961 L3.73330392,7.78411242 C3.78347336,7.70142565 3.83461355,7.61939325 3.88670869,7.53803105 L3.77473811,7.71632961 C3.83945954,7.61123412 3.90575587,7.50721207 3.97359419,7.40429634 L3.97366261,7.40419255 C4.21817232,7.03325335 4.48279372,6.67659069 4.76591695,6.33584983 L4.66984369,6.45296309 C4.73416942,6.37353801 4.79948881,6.29495064 4.86578293,6.21721988 L4.76591695,6.33584983 C4.83201825,6.25629643 4.89912808,6.17761091 4.9672268,6.09981289 L4.86578293,6.21721988 C4.93166756,6.13996927 4.99851491,6.06356473 5.06630643,5.98802481 L4.9672268,6.09981289 C5.03508909,6.02228498 5.10393343,5.94563842 5.1737404,5.86989261 L5.06630643,5.98802481 C5.12974487,5.91733553 5.19401011,5.8474034 5.25908694,5.77824364 L5.1737404,5.86989261 C5.24484713,5.79273647 5.31695268,5.71651494 5.39003653,5.64124855 L5.25908694,5.77824364 C5.33583653,5.69667877 5.41371497,5.61618821 5.4926973,5.53679689 L5.39003653,5.64124855 C5.45320676,5.57619182 5.51710789,5.51184868 5.58172665,5.44823238 L5.58213383,5.44783153 C5.77239815,5.26051886 5.96931794,5.0791337 6.17214562,4.9044173 C6.31380495,4.78238582 6.45856533,4.66343576 6.60609979,4.54786491 C6.7648574,4.423497 6.92703686,4.30289426 7.09229111,4.18636014 L6.97334617,4.27132403 C7.0756267,4.19732172 7.17912033,4.12489278 7.28379157,4.05407272 L7.09229111,4.18636014 C7.16849959,4.13261939 7.24536197,4.0797439 7.32286397,4.02774797 L7.28379157,4.05407272 C7.36219977,4.00102211 7.44126876,3.94887429 7.52098364,3.8976442 L7.32286397,4.02774797 C7.40983777,3.96939742 7.49761708,3.91215456 7.58618171,3.85603957 L7.58627083,3.8559831 C7.73466389,3.76196051 7.88535344,3.67105166 8.03815517,3.5834082 C8.09966561,3.54812593 8.16168961,3.51327858 8.22405152,3.47896955 C8.40041773,3.38194273 8.57935479,3.28928564 8.76084927,3.20106924 L8.67632026,3.24256753 C8.76096987,3.20059539 8.84618556,3.15959298 8.9319528,3.11957483 L8.76084927,3.20106924 C8.86208648,3.15186233 8.9641194,3.10403709 9.06692352,3.05761803 L8.9319528,3.11957483 C9.0266056,3.07541075 9.12193016,3.03244544 9.21790695,2.99069842 L9.06692352,3.05761803 C9.16170623,3.01482088 9.25714448,2.97321903 9.35321905,2.93283171 L9.35316684,2.93285366 C9.51451388,2.86502745 9.67760221,2.80064638 9.84239309,2.73977945 C9.96524572,2.69440096 10.0891927,2.65092634 10.2140503,2.60944726 L10.0602391,2.66171282 C10.1440758,2.63258537 10.2283353,2.60436153 10.3130059,2.57705294 L10.2140503,2.60944726 C10.3090223,2.57789654 10.4045211,2.54750039 10.5005303,2.51827546 L10.3130059,2.57705294 C10.4264933,2.54045009 10.5407193,2.50549153 10.6556557,2.47220531 L10.5005303,2.51827546 C10.6014421,2.48755817 10.7029176,2.45813476 10.8049376,2.43002456 L10.6556557,2.47220531 C10.7562436,2.44307451 10.8573756,2.41522457 10.9590329,2.38867431 L10.8049376,2.43002456 C10.9077502,2.40169593 11.0111158,2.37470099 11.1150145,2.34905953 L10.9590329,2.38867431 C11.0599651,2.36231342 11.1614151,2.33723374 11.2633645,2.31345368 L11.1150145,2.34905953 C11.2132229,2.32482238 11.3119076,2.30179451 11.411052,2.27999262 L11.2633645,2.31345368 C11.3614212,2.29058163 11.4599398,2.26891186 11.5589041,2.24846074 L11.411052,2.27999262 C11.5242243,2.25510596 11.6379956,2.23181677 11.7523408,2.21014987 L11.5589041,2.24846074 C11.6605807,2.2274491 11.7627277,2.20772383 11.8653273,2.1893027 L11.7523408,2.21014987 C11.8419176,2.19317626 11.9318467,2.17719826 12.0221162,2.16222779 L12.0218847,2.16226619 C12.1422216,2.14230928 12.2629295,2.1241744 12.3842118,2.1078513 L12.5037116,2.09237839 L12.5037116,2.09237839 L12.7916926,2.06007801 C13.1890699,2.02034588 13.592159,2 14,2 C14.7281369,2 15.4411269,2.06485159 16.1335091,2.18909384 L15.9897139,2.1634968 C16.0995795,2.18184796 16.2089399,2.20169141 16.3177735,2.22300559 L16.1335091,2.18909384 C16.221147,2.20481975 16.3084548,2.22149716 16.3954214,2.23911501 L16.3955772,2.23851131 C16.6060025,2.28177489 16.8145828,2.3299487 17.0210052,2.38347921 L16.9268228,2.35890865 C17.0173028,2.38159912 17.1073753,2.40531658 17.1970274,2.43004793 L17.0210052,2.38347921 C17.1222101,2.40972419 17.2228963,2.4372568 17.3230453,2.46605849 L17.3228882,2.4655124 C17.5311036,2.52589367 17.7368432,2.59120619 17.940098,2.66182992 L17.9398392,2.6613197 C18.0827482,2.71139578 18.2241746,2.76357775 18.3643195,2.81831841 L18.2008939,2.75547499 C18.3100937,2.79630379 18.4185398,2.83867741 18.5262054,2.88256926 L18.3643195,2.81831841 C18.4553504,2.85387511 18.5458407,2.89051134 18.6357745,2.92821138 L18.5262054,2.88256926 C18.611967,2.9175315 18.6972333,2.95345705 18.7819911,2.99033247 L18.6357745,2.92821138 C18.735574,2.97004702 18.8346882,3.01319266 18.9330959,3.05762679 L18.7819911,2.99033247 C18.8780669,3.03213202 18.9734892,3.07515205 19.0682384,3.11937301 L18.9330959,3.05762679 C19.0358213,3.10401054 19.1377767,3.15179832 19.2389377,3.20096569 L19.0682384,3.11937301 C19.154056,3.15942545 19.2393215,3.20046308 19.3240202,3.24247134 L19.3236797,3.24256753 C19.4764986,3.31809651 19.6271404,3.3968674 19.7758605,3.47869914 C19.9920141,3.59784019 20.2040233,3.72317303 20.4117158,3.85470772 L20.4118619,3.8546324 Z M16.414983,18.7992827 L11.5852177,18.800077 C12.1016887,20.8442906 12.9371856,22.6686722 13.9995999,24.1637117 C15.0627513,22.6689168 15.8984658,20.8440634 16.414983,18.7992827 Z M4.99772133,18.7999996 C6.37065882,21.3695375 8.81156156,23.2824714 11.7275658,23.9459376 C10.8493267,22.4243739 10.168299,20.6859653 9.73554309,18.8001922 L4.99772133,18.7999996 Z M23.0022787,18.7999996 L18.2647077,18.7990993 C17.8320475,20.68493 17.1511055,22.4234096 16.2734557,23.944913 C19.1884384,23.2824714 21.6293412,21.3695375 23.0022787,18.7999996 Z M9.40543797,10.9994268 L4.2484564,10.9995492 C3.95691665,11.9481872 3.8,12.9557687 3.8,14 C3.8,15.0438617 3.95680558,16.0510994 4.24814685,16.9994434 L9.40539194,17.0002414 C9.27052846,16.0279733 9.2,15.0251058 9.2,14 C9.2,12.9747776 9.27054451,11.9717985 9.40543797,10.9994268 Z M16.7765034,10.9988198 L11.2234966,10.9988198 C11.0772424,11.9647749 11,12.9684302 11,14 C11,15.0311411 11.0771782,16.0343908 11.2233143,16.9999758 L16.7766546,17.0001816 C16.9228108,16.0345334 17,15.0312144 17,14 C17,12.9684302 16.9227576,11.9647749 16.7765034,10.9988198 Z M23.7515436,10.9995492 L18.594562,10.9994268 C18.7294555,11.9717985 18.8,12.9747776 18.8,14 C18.8,15.0248716 18.7295038,16.027515 18.5947005,16.9995749 L23.7518531,16.9994434 C24.0431944,16.0510994 24.2,15.0438617 24.2,14 C24.2,12.9557687 24.0430833,11.9481872 23.7515436,10.9995492 Z M11.7265443,4.05508696 L11.5488219,4.09643916 C8.71230176,4.79614817 6.3431396,6.68264189 4.99825617,9.19899956 L9.73552303,9.19989514 C10.1681946,7.31445199 10.8490505,5.57631997 11.7265443,4.05508696 Z M14.0000174,3.83574973 L13.9559494,3.89808086 C12.9143301,5.38143546 12.0946523,7.18366126 11.5852715,9.19970992 L16.4147285,9.19970992 C15.8981913,7.15533721 15.0625768,5.33083768 14.0000174,3.83574973 Z M16.2724342,4.05406244 L16.3371499,4.16649864 C17.1839309,5.66097915 17.8423317,7.36032183 18.264477,9.19989514 L23.0017438,9.19899956 C21.6287073,6.6299658 19.1880598,4.71744247 16.2724342,4.05406244 Z" id="↳-Icon-Color" fill="currentColor" fill-rule="nonzero"></path>
        </g>
    </g>
</svg>
