<svg fill="none" height="28" width="28" xmlns="http://www.w3.org/2000/svg"><path clip-rule="evenodd" d="M18.6 3H21.446c.238 0 .523 0 .774.02.29.024.706.085 1.142.307a3 3 0 011.311 1.311c.222.436.283.852.307 1.142.02.251.02.535.02.774V7.446c0 .239 0 .523-.02.774-.024.29-.085.706-.307 1.142a3 3 0 01-1.311 1.311 3.015 3.015 0 01-1.142.307c-.251.02-.535.02-.774.02H18.554c-.238 0-.523 0-.774-.02a3.014 3.014 0 01-1.142-.307 3 3 0 01-1.311-1.311 3.015 3.015 0 01-.307-1.142C15 7.969 15 7.685 15 7.446V6.554c0-.239 0-.523.02-.774.024-.29.085-.706.307-1.142a3 3 0 011.311-1.311 3.015 3.015 0 011.142-.307c.251-.02.536-.02.774-.02zm-1.491 2.546C17 5.76 17 6.04 17 6.6v.8c0 .56 0 .84.109 1.054a1 1 0 00.437.437C17.76 9 18.04 9 18.6 9h2.8c.56 0 .84 0 1.054-.109a1 1 0 00.437-.437C23 8.24 23 7.96 23 7.4v-.8c0-.56 0-.84-.109-1.054a1 1 0 00-.437-.437C22.24 5 21.96 5 21.4 5h-2.8c-.56 0-.84 0-1.054.109a1 1 0 00-.437.437zM9.4 17H6.554c-.238 0-.523 0-.774.02-.29.024-.706.085-1.142.307a3 3 0 00-1.311 1.311 3.016 3.016 0 00-.307 1.142c-.02.251-.02.535-.02.774V21.446c0 .238 0 .523.02.774.024.29.085.706.307 1.142a3 3 0 001.311 1.311c.436.222.852.283 1.142.307.251.02.535.02.774.02H9.446c.239 0 .523 0 .774-.02.29-.024.706-.085 1.142-.307a3 3 0 001.311-1.311c.222-.436.283-.852.307-1.142.02-.251.02-.536.02-.774V20.554c0-.239 0-.523-.02-.774a3.017 3.017 0 00-.307-1.142 3 3 0 00-1.311-1.311 3.015 3.015 0 00-1.142-.307C9.97 17 9.685 17 9.446 17zM5 20.6c0-.56 0-.84.109-1.054a1 1 0 01.437-.437C5.76 19 6.04 19 6.6 19h2.8c.56 0 .84 0 1.054.109a1 1 0 01.437.437C11 19.76 11 20.04 11 20.6v.8c0 .56 0 .84-.109 1.054a1 1 0 01-.437.437C10.24 23 9.96 23 9.4 23H6.6c-.56 0-.84 0-1.054-.109a1 1 0 01-.437-.437C5 22.24 5 21.96 5 21.4zM21.4 13H18.554c-.238 0-.523 0-.774.02-.29.024-.706.085-1.142.307a3 3 0 00-1.311 1.311 3.015 3.015 0 00-.307 1.142c-.02.251-.02.536-.02.774v4.892c0 .238 0 .523.02.774.024.29.085.706.307 1.142a3 3 0 001.311 1.311c.436.222.852.283 1.142.307.251.02.535.02.774.02H21.446c.238 0 .523 0 .774-.02.29-.024.706-.085 1.142-.307a3 3 0 001.311-1.311c.222-.436.283-.852.307-1.142.02-.251.02-.535.02-.774v-4.892c0-.238 0-.523-.02-.774a3.017 3.017 0 00-.307-1.142 3 3 0 00-1.311-1.311 3.015 3.015 0 00-1.142-.307c-.251-.02-.536-.02-.774-.02zM17 16.6c0-.56 0-.84.109-1.054a1 1 0 01.437-.437C17.76 15 18.04 15 18.6 15h2.8c.56 0 .84 0 1.054.109a1 1 0 01.437.437C23 15.76 23 16.04 23 16.6v4.8c0 .56 0 .84-.109 1.054a1 1 0 01-.437.437C22.24 23 21.96 23 21.4 23h-2.8c-.56 0-.84 0-1.054-.109a1 1 0 01-.437-.437C17 22.24 17 21.96 17 21.4zM9.4 3H6.554c-.238 0-.523 0-.774.02-.29.024-.706.085-1.142.307a3 3 0 00-1.311 1.311A3.016 3.016 0 003.02 5.78C3 6.031 3 6.315 3 6.554v4.892c0 .239 0 .523.02.774.024.29.085.706.307 1.142a3 3 0 001.311 1.311c.436.222.852.283 1.142.307.251.02.536.02.774.02H9.446c.239 0 .523 0 .774-.02.29-.024.706-.085 1.142-.307a3 3 0 001.311-1.311c.222-.436.283-.852.307-1.142.02-.251.02-.535.02-.774V6.554c0-.239 0-.523-.02-.774a3.017 3.017 0 00-.307-1.142 3 3 0 00-1.311-1.311 3.016 3.016 0 00-1.142-.307C9.969 3 9.685 3 9.446 3zM5 6.6c0-.56 0-.84.109-1.054a1 1 0 01.437-.437C5.76 5 6.04 5 6.6 5h2.8c.56 0 .84 0 1.054.109a1 1 0 01.437.437C11 5.76 11 6.04 11 6.6v4.8c0 .56 0 .84-.109 1.054a1 1 0 01-.437.437C10.24 13 9.96 13 9.4 13H6.6c-.56 0-.84 0-1.054-.109a1 1 0 01-.437-.437C5 12.24 5 11.96 5 11.4z" fill="currentColor" fill-rule="evenodd"/></svg>
