<svg fill="none" height="28" viewBox="0 0 28 28" width="28" xmlns="http://www.w3.org/2000/svg"><path clip-rule="evenodd" d="m14 5c1.8075 0 3.2727 1.49728 3.2727 3.34426 0 1.14785-.7433 2.23414-2.1818 3.35394v.1992l9.0749 4.1249c1.117.5078 1.8342 1.6216 1.8342 2.8486 0 1.7282-1.4009 3.1291-3.1291 3.1291h-17.74183c-1.72814 0-3.12907-1.4009-3.12907-3.1291 0-1.227.71719-2.3408 1.83425-2.8486l9.07485-4.1249v-.1993c0-.6959.318-1.3518.8597-1.7735.891-.69354 1.3221-1.27075 1.3221-1.58034 0-.61566-.4884-1.11475-1.0909-1.11475s-1.0909.49909-1.0909 1.11475-.4884 1.11476-1.0909 1.11476-1.0909-.4991-1.0909-1.11476c0-1.84698 1.4652-3.34426 3.2727-3.34426zm-9.33814 12.8431 9.33814-4.2446 9.3381 4.2446c.4031.1832.6619.5851.6619 1.0278 0 .6236-.5055 1.1291-1.1291 1.1291h-17.74183c-.62357 0-1.12907-.5055-1.12907-1.1291 0-.4427.25879-.8446.66186-1.0278z" fill="currentColor" fill-rule="evenodd"/></svg>
