<svg xmlns="http://www.w3.org/2000/svg" width="28" height="28" fill="currentColor" viewBox="0 0 28 28"><path fill-rule="evenodd" d="M14 4C8.477 4 4 8.477 4 14s4.477 10 10 10 10-4.477 10-10S19.523 4 14 4ZM2 14C2 7.373 7.373 2 14 2s12 5.373 12 12-5.373 12-12 12S2 20.627 2 14Z M12.25 11.625a1.625 1.625 0 1 1-3.25 0 1.625 1.625 0 0 1 3.25 0Zm6.75 0a1.625 1.625 0 1 1-3.25 0 1.625 1.625 0 0 1 3.25 0ZM16 16c.552 0 1 .45.921.997-.037.259-.087.5-.15.651a2.999 2.999 0 0 1-5.543 0 3.004 3.004 0 0 1-.15-.651c-.077-.547.37-.997.922-.997h4Z"/></svg>
