<svg xmlns="http://www.w3.org/2000/svg" width="28" height="28" fill="currentColor" viewBox="0 0 28 28"><path d="M13.079 3c-2.61 0-4.732 1.993-5.04 4.528a1 1 0 0 0 1.985.242C10.216 6.19 11.527 5 13.079 5c.867 0 1.801.564 2.767 1.95.438.629 1.37.629 1.808 0C18.62 5.564 19.554 5 20.421 5 22.1 5 23.5 6.398 23.5 8.169c0 .733-.12 1.296-.378 1.828-.265.547-.704 1.12-1.43 1.83a1 1 0 0 0 1.397 1.43c.812-.793 1.428-1.552 1.833-2.388.412-.851.578-1.723.578-2.7C25.5 5.335 23.246 3 20.42 3c-1.454 0-2.672.759-3.67 1.87C15.752 3.76 14.534 3 13.079 3 M7.579 10.5c-2.825 0-5.079 2.335-5.079 5.169 0 1.509.397 2.702 1.354 3.926.903 1.155 2.312 2.342 4.27 3.899l2.05 1.63c.631.501 1.52.501 2.151 0l2.052-1.63c1.957-1.557 3.365-2.744 4.268-3.899C19.603 18.371 20 17.178 20 15.67c0-2.834-2.253-5.169-5.079-5.169-1.467 0-2.684.813-3.671 1.932-.987-1.119-2.204-1.932-3.671-1.932ZM4.5 15.669c0-1.771 1.399-3.169 3.079-3.169.846 0 1.78.602 2.766 2.02.439.63 1.371.63 1.81 0 .985-1.418 1.92-2.02 2.766-2.02 1.68 0 3.079 1.398 3.079 3.169 0 1.068-.252 1.827-.93 2.694-.733.938-1.947 1.983-3.938 3.565l-1.882 1.496-1.882-1.496c-1.99-1.582-3.205-2.627-3.938-3.565-.678-.867-.93-1.626-.93-2.694Z" clip-rule="evenodd"/></svg>
