<svg width="28" height="28" fill="none" xmlns="http://www.w3.org/2000/svg"><path fill-rule="evenodd" clip-rule="evenodd" d="M14 2a11.966 11.966 0 00-8.485 3.515A11.966 11.966 0 002 14c0 3.313 1.344 6.315 3.515 8.485A11.966 11.966 0 0014 26c3.313 0 6.315-1.344 8.485-3.515A11.966 11.966 0 0026 14c0-3.313-1.344-6.315-3.515-8.485A11.966 11.966 0 0014 2zM6.929 6.929A9.966 9.966 0 0114 4a9.966 9.966 0 017.071 2.929A9.966 9.966 0 0124 14a9.966 9.966 0 01-2.929 7.071A9.966 9.966 0 0114 24a9.966 9.966 0 01-7.071-2.929A9.966 9.966 0 014 14a9.966 9.966 0 012.929-7.071zM11.422 9C9.275 9 7.5 10.733 7.5 12.9c0 1.127.306 2.018 1.031 2.916.665.824 1.694 1.662 3.075 2.743l.004.002 1.429 1.11a1.567 1.567 0 001.922 0l1.43-1.11.003-.002c1.38-1.081 2.41-1.92 3.075-2.743.725-.898 1.031-1.789 1.031-2.916 0-2.167-1.775-3.9-3.922-3.9-.98 0-1.845.334-2.583.937-.74-.6-1.6-.937-2.573-.937zM9.5 12.9c0-1.043.86-1.9 1.922-1.9.62 0 1.214.267 1.806.987a1 1 0 001.55-.008c.572-.71 1.162-.979 1.8-.979 1.062 0 1.922.857 1.922 1.9 0 .675-.152 1.122-.587 1.66-.494.612-1.327 1.308-2.75 2.423l-.002.001-1.161.901-1.16-.901-.002-.001c-1.424-1.115-2.256-1.811-2.751-2.423-.434-.538-.587-.985-.587-1.66z" fill="currentColor"/></svg>
