<svg fill="none" height="28" width="28" viewBox="0 0 28 28" xmlns="http://www.w3.org/2000/svg"><linearGradient id="a" gradientUnits="userSpaceOnUse" x1="0" x2="28" y1="0" y2="28"><stop offset="0" stop-color="#ff4d87"/><stop offset=".521" stop-color="#9f40ff"/><stop offset="1" stop-color="#39f"/></linearGradient><path d="M0 14C0 6.268 6.268 0 14 0s14 6.268 14 14-6.268 14-14 14S0 21.732 0 14z" fill="url(#a)"/><g fill="#fff"><path clip-rule="evenodd" d="M6 12.19C6 10.152 7.626 8.5 9.63 8.5c1.082 0 2.042.521 2.87 1.53.826-1.009 1.787-1.53 2.868-1.53 2.005 0 3.63 1.652 3.63 3.69 0 .116-.002.229-.008.338a4.206 4.206 0 0 0-1.49.464 4.211 4.211 0 0 0-1.986-.492 4.515 4.515 0 0 0-4.513 4.516c0 .636.086 1.237.312 1.827l-1.042-.825C6.813 15.285 6 14.251 6 12.19z" fill-rule="evenodd"/><path d="M15.514 14.5a2.515 2.515 0 0 0-2.513 2.516c0 1.405.562 2.11 2.956 3.974l1.104.86c.259.2.62.2.879 0l1.104-.86C21.438 19.126 22 18.42 22 17.016a2.515 2.515 0 0 0-2.514-2.516c-.749 0-1.414.355-1.986 1.044-.573-.689-1.238-1.044-1.987-1.044z"/></g></svg>
