<svg xmlns="http://www.w3.org/2000/svg" width="28" height="28" fill="none" viewBox="0 0 28 28"><path fill="currentColor" fill-rule="evenodd" d="M7.2801 4.3661c-.4881-.4881-1.2796-.4881-1.7677 0-.4882.4882-.4882 1.2796 0 1.7678l1.677 1.677c-2.3166 1.3213-4.1752 3.2997-5.0804 5.7137-.0566.151-.0849.2265-.1003.333a1.1697 1.1697 0 0 0 0 .2848c.0154.1065.0437.182.1003.333C3.8072 19.0045 8.8614 22 14 22c2.0855 0 4.157-.4934 5.996-1.3825l2.0164 2.0164c.4881.4881 1.2796.4881 1.7677 0 .4882-.4882.4882-1.2796 0-1.7678l-16.5-16.5Zm10.6392 14.1747-2.1328-2.1328a2.987 2.987 0 0 1-1.7863.5896c-1.6569 0-3-1.3432-3-3a2.987 2.987 0 0 1 .5895-1.7864l-2.1328-2.1328c-.9078 1.0514-1.4567 2.4212-1.4567 3.9192 0 3.3137 2.6863 6 6 6 1.498 0 2.8678-.549 3.9191-1.4568Z M14.4618 8.015c2.9457.2242 5.2967 2.5753 5.5209 5.5209l4.0423 4.0423c.7996-.9218 1.4389-1.9638 1.866-3.1028.0566-.151.0849-.2265.1003-.333a1.1697 1.1697 0 0 0 0-.2848c-.0154-.1065-.0437-.182-.1003-.333C24.1928 8.9956 19.1386 6 14 6c-.4924 0-.984.0275-1.472.0812l1.9338 1.9339Z"/></svg>
