<svg fill="none" height="28" viewBox="0 0 28 28" width="28" xmlns="http://www.w3.org/2000/svg" xmlns:xlink="http://www.w3.org/1999/xlink"><linearGradient id="a" gradientUnits="userSpaceOnUse" x1="-14" x2="14" y1="14" y2="42"><stop offset="0" stop-color="#626466"/><stop offset="1" stop-color="#444647"/></linearGradient><path d="m0 14c0-7.73199 6.26801-14 14-14 7.732 0 14 6.26801 14 14 0 7.732-6.268 14-14 14-7.73199 0-14-6.268-14-14z" fill="url(#a)"/><path clip-rule="evenodd" d="m9.63637 8.36358c-.35147-.35147-.92132-.35147-1.27279 0s-.35147.92132 0 1.27279l1.06135 1.06133c-1.53267 1.2173-2.42493 2.7378-2.42493 3.3023 0 1 2.8 5 7 5 1.1121 0 2.126-.2804 3.0158-.7114l1.3478 1.3478c.3515.3514.9213.3514 1.2728 0 .3514-.3515.3514-.9213 0-1.2728zm6.11933 8.66492-1.5434-1.5434c-.0694.0098-.1402.0149-.2123.0149-.8284 0-1.5-.6716-1.5-1.5 0-.0721.0051-.1429.0149-.2123l-1.5434-1.5434c-.2998.5161-.4715 1.1159-.4715 1.7557 0 1.933 1.567 3.5 3.5 3.5.6398 0 1.2396-.1717 1.7557-.4715zm5.2443-3.0285c0-1-2.8-5-7-5-.5391 0-1.0551.0659-1.5451.18289l1.3248 1.32391c.0729-.0045.1463-.0068.2203-.0068 1.933 0 3.5 1.567 3.5 3.5 0 .0736-.0023.1467-.0068.2193l2.1194 2.1198c.89-.9632 1.3874-1.9176 1.3874-2.3391z" fill="#fff" fill-rule="evenodd"/></svg>
