<svg xmlns="http://www.w3.org/2000/svg" fill="none" viewBox="0 0 28 28"><path fill="currentColor" fill-rule="evenodd" d="M3.004 7c0-.5523.4476-1 1-1h12.999c.5523 0 1 .4477 1 1s-.4477 1-1 1H4.004c-.5524 0-1-.4477-1-1Z" clip-rule="evenodd"/><path fill="currentColor" fill-rule="evenodd" d="M11 3.0032c.5523 0 1 .4477 1 1v2.4c0 .5523-.4477 1-1 1s-1-.4477-1-1v-2.4c0-.5523.4477-1 1-1Zm-4.6247 7.2159c.4313-.345 1.0606-.275 1.4056.1562l4 5c.345.4312.2751 1.0605-.1562 1.4055-.4312.3451-1.0605.2751-1.4055-.1561l-4-5c-.345-.4313-.2751-1.0606.1561-1.4056ZM17.5 10a1 1 0 0 1 .8944.5528l6.5 13c.247.494.0468 1.0946-.4472 1.3416-.494.247-1.0947.0468-1.3417-.4472L17.5 13.2361l-5.6056 11.2111c-.247.494-.8477.6942-1.3416.4472-.494-.247-.6942-.8476-.4473-1.3416l6.5-13A1 1 0 0 1 17.5 10Z" clip-rule="evenodd"/><path fill="currentColor" fill-rule="evenodd" d="M13 19c0-.5523.4477-1 1-1h7c.5523 0 1 .4477 1 1s-.4477 1-1 1h-7c-.5523 0-1-.4477-1-1Zm.0025-12.5c.5523 0 1 .4477 1 1v.9002c0 .1307 0 .2162-.0024.302a6 6 0 0 1-.5051 2.2438 10.4532 10.4532 0 0 1-.1271.2738l-.0128.027a10.7671 10.7671 0 0 1-.1431.2952 6.0006 6.0006 0 0 1-1.5747 1.9348 10.7029 10.7029 0 0 1-.26.2001l-6.7742 5.1208c-.4406.3331-1.0677.2459-1.4008-.1947-.333-.4406-.2458-1.0677.1947-1.4007l6.7619-5.1115c.1298-.0981.1781-.1347.2236-.1714a4 4 0 0 0 1.0497-1.2898c.0267-.052.0527-.1067.1225-.2538a9.739 9.739 0 0 0 .1095-.2348 4.0002 4.0002 0 0 0 .3367-1.4959 9.869 9.869 0 0 0 .0016-.259V7.5c0-.5523.4477-1 1-1Z" clip-rule="evenodd"/></svg>
