<svg width="28" height="28" xmlns="http://www.w3.org/2000/svg"><g fill="none" fill-rule="evenodd"><path d="M0 0H28V28H0z"/><path d="M15.5 2c3.25 0 6.283 1.303 8.5 3.529V4l.007-.117A1 1 0 0 1 26 4v4l-.007.117A1 1 0 0 1 25 9h-4l-.117-.007A1 1 0 0 1 21 7h1.643A9.974 9.974 0 0 0 15.5 4c-5.523 0-10 4.477-10 10s4.477 10 10 10a9.964 9.964 0 0 0 7.072-2.93 1 1 0 1 1 1.415 1.414A11.963 11.963 0 0 1 15.5 26c-6.627 0-12-5.373-12-12s5.373-12 12-12zM14 8a1 1 0 0 1 1 1v4.586l2.707 2.707a1 1 0 0 1-1.414 1.414l-3-3A1 1 0 0 1 13 14V9a1 1 0 0 1 1-1z" fill="currentColor" fill-rule="nonzero"/></g></svg>
