<?xml version="1.0" encoding="UTF-8"?>
<svg width="28px" height="28px" viewBox="0 0 28 28" version="1.1" xmlns="http://www.w3.org/2000/svg" xmlns:xlink="http://www.w3.org/1999/xlink">
    <!-- Generator: Sketch 63.1 (92452) - https://sketch.com -->
    <title>history_forward_outline_28</title>
    <desc>Created with Sketch.</desc>
    <g id="Page-1" stroke="none" stroke-width="1" fill="none" fill-rule="evenodd">
        <g id="history_forward_outline_28">
            <rect x="0" y="0" width="28" height="28"></rect>
            <path d="M14.5,2 C17.7505172,2 20.7832466,3.30256797 23.0002687,5.52875247 L23.0002687,5.52875247 L23,4 L23.0067277,3.88337887 C23.0644928,3.38604019 23.4871642,3 24,3 C24.5522847,3 25,3.44771525 25,4 L25,4 L25,8 L24.9932723,8.11662113 C24.9355072,8.61395981 24.5128358,9 24,9 L24,9 L20,9 L19.8833789,8.99327227 C19.3860402,8.93550716 19,8.51283584 19,8 C19,7.44771525 19.4477153,7 20,7 L20,7 L21.6427163,7.00037181 C19.7897373,5.10802948 17.2385688,4 14.5,4 C8.9771525,4 4.5,8.4771525 4.5,14 C4.5,19.5228475 8.9771525,24 14.5,24 C17.1897335,24 19.7082215,22.934521 21.5722268,21.0699086 C21.9626876,20.6793207 22.5958525,20.6792176 22.9864404,21.0696783 C23.3770283,21.4601391 23.3771313,22.093304 22.9866706,22.4838919 C20.7512926,24.7199979 17.7257333,26 14.5,26 C7.872583,26 2.5,20.627417 2.5,14 C2.5,7.372583 7.872583,2 14.5,2 Z M14,8 C14.5522847,8 15,8.44771525 15,9 L15,9 L15,13.5857864 L17.7071068,16.2928932 C18.0976311,16.6834175 18.0976311,17.3165825 17.7071068,17.7071068 C17.3165825,18.0976311 16.6834175,18.0976311 16.2928932,17.7071068 L16.2928932,17.7071068 L13.2928932,14.7071068 C13.1053568,14.5195704 13,14.2652165 13,14 L13,14 L13,9 C13,8.44771525 13.4477153,8 14,8 Z" id="↳-Icon-Color" fill="currentColor" fill-rule="nonzero"></path>
        </g>
    </g>
</svg>
