<?xml version="1.0" encoding="UTF-8"?>
<svg width="28px" height="28px" viewBox="0 0 28 28" version="1.1" xmlns="http://www.w3.org/2000/svg" xmlns:xlink="http://www.w3.org/1999/xlink">
    <!-- Generator: Sketch 63.1 (92452) - https://sketch.com -->
    <title>history_backward_outline_28</title>
    <desc>Created with Sketch.</desc>
    <g id="Page-1" stroke="none" stroke-width="1" fill="none" fill-rule="evenodd">
        <g id="history_backward_outline_28">
            <rect x="0" y="0" width="28" height="28"></rect>
            <path d="M14,2 C20.627417,2 26,7.372583 26,14 C26,20.627417 20.627417,26 14,26 C10.7742667,26 7.74870739,24.7199979 5.51332937,22.4838919 C5.12286866,22.093304 5.12297174,21.4601391 5.51355961,21.0696783 C5.90414747,20.6792176 6.53731244,20.6793207 6.92777315,21.0699086 C8.79177853,22.934521 11.3102665,24 14,24 C19.5228475,24 24,19.5228475 24,14 C24,8.4771525 19.5228475,4 14,4 C11.2614312,4 8.71026275,5.10802948 6.85728368,7.00037181 L8.5,7 C9.05228475,7 9.5,7.44771525 9.5,8 C9.5,8.51283584 9.11395981,8.93550716 8.61662113,8.99327227 L8.5,9 L4.5,9 C3.98716416,9 3.56449284,8.61395981 3.50672773,8.11662113 L3.5,8 L3.5,4 C3.5,3.44771525 3.94771525,3 4.5,3 C5.01283584,3 5.43550716,3.38604019 5.49327227,3.88337887 L5.5,4 L5.49973128,5.52875247 C7.71675336,3.30256797 10.7494828,2 14,2 Z M14,8 C14.5128358,8 14.9355072,8.38604019 14.9932723,8.88337887 L15,9 L15,13.5857864 L17.7071068,16.2928932 C18.0976311,16.6834175 18.0976311,17.3165825 17.7071068,17.7071068 C17.3466228,18.0675907 16.7793918,18.0953203 16.3871006,17.7902954 L16.2928932,17.7071068 L13.2928932,14.7071068 C13.1366129,14.5508265 13.0374017,14.3481451 13.0086724,14.131444 L13,14 L13,9 C13,8.44771525 13.4477153,8 14,8 Z" id="↳-Icon-Color" fill="currentColor" fill-rule="nonzero"></path>
        </g>
    </g>
</svg>
