<svg xmlns="http://www.w3.org/2000/svg" width="28" height="28" fill="currentColor" viewBox="0 0 28 28"><path fill-rule="evenodd" d="M22.067 2.002a2.37 2.37 0 0 1 1.73.672c1.043.996 1.399 2.436 1.102 3.58l-3.43 13.964v.005c-.621 2.48-2.565 3.69-4.524 4.256-1.941.561-4.078.553-5.49.495l-.328-.012a26.628 26.628 0 0 1-1.823-.112c-.718-.077-1.474-.22-2.15-.533-.698-.323-1.32-.833-1.717-1.622-.387-.77-.508-1.71-.399-2.813.08-.816.382-1.507.931-2.013.534-.491 1.202-.717 1.853-.81 1.26-.182 2.807.087 4.17.357.26.051.513.103.76.153 1.142.233 2.153.439 2.974.47.495.018.79-.036.948-.106.098-.043.126-.075.15-.18l.004-.014L20.49 3.154a.898.898 0 0 1 .021-.074c.262-.782 1.018-1.053 1.556-1.078Zm.082 1.999h.003Zm.177.05c.03.018.06.04.09.07.532.507.658 1.208.547 1.633l-.004.015-3.43 13.968v.002c-.38 1.515-1.544 2.358-3.139 2.819-1.613.466-3.477.474-4.854.418l-.351-.014a24.42 24.42 0 0 1-1.667-.1c-.628-.068-1.136-.18-1.525-.36-.367-.17-.612-.392-.768-.704-.165-.329-.281-.857-.196-1.72.042-.429.175-.627.295-.738.136-.125.372-.243.784-.302.866-.125 2.078.059 3.495.34.224.044.454.091.687.139 1.142.233 2.36.483 3.361.52.608.023 1.265-.023 1.837-.277a2.195 2.195 0 0 0 1.281-1.54l3.557-14.168Z M14 9.5c0 2-2.015 3-4.5 3s-4.5-1-4.5-3 2.015-3 4.5-3 4.5 1 4.5 3Z"/></svg>
