<svg fill="none" height="28" viewBox="0 0 28 28" width="28" xmlns="http://www.w3.org/2000/svg"><path clip-rule="evenodd" d="m7.5177 14.4117c.28045-1.4023 1.5117-2.4117 2.9417-2.4117h2.9406c.56 0 .84 0 1.0539-.109.1882-.0958.3411-.2488.437-.437.109-.2139.109-.4939.1091-1.0539v-.9001c0-3.03276 2.4673-5.5 5.5-5.5 1.1844 0 2.2826.3763 3.1812 1.01564.0348.02471.0692.04981.1033.0753.0353.02634.0702.05309.1048.08025.2952.23159.5661.49266.8085.77873.5413.63914.3087.98916-.6978 1.05008v4.25c0 .4142-.3358.75-.75.75h-.1319c-.3393 0-.5666 0-.9696-.3592-.0469-.0419-.0963-.0886-.1485-.1408l-1.4296-1.1939c-.0242-.0182-.046-.0349-.0659-.0502-.134-.1033-.1814-.1398-.3045-.0906-.1264.0506-.2056.5277-.2055.7527 0 .029.0013.0538.0041.0729.0004.0032.0009.0062.0014.0091l1.6301 9.0049c.0499.2759.0749.4138.1474.5092.0816.1075.2147.1819.349.1952.1193.0117.2439-.0369.4932-.1343.0051-.0019.0102-.0039.0152-.0059.257-.1006.5305-.0876.7648.0147.2347.1025.4302.2946.531.5518.2013.5143-.0523 1.0943-.5666 1.2957-.0054.0021-.0108.0042-.0162.0063-.3036.1186-.6129.2303-.9279.3353-.5287.1762-1.0735.3334-1.6344.4716-.1906.0469-.383.0917-.5773.1342-.2919.064-.5879.1229-.8881.177-1.6478.2966-3.4214.4443-5.3204.4443-1.8989 0-3.6723-.1477-5.31987-.4442-.3094-.0557-.61437-.1166-.91489-.1828-.1852-.0408-.36871-.0836-.55054-.1284-.55628-.137-1.09676-.2927-1.62143-.4672-.31969-.1063-.6335-.2195-.94144-.3398-.00538-.0021-.01077-.0042-.01615-.0063-.51425-.2013-.76797-.7814-.56662-1.2957.10749-.2745.32295-.4748.5787-.5712.22328-.0841.47727-.0892.71696.0047.00506.002.01019.004.01526.0059.27083.1058.40625.1586.53574.1405.11694-.0164.23317-.08.31006-.1696.08513-.0993.11494-.2483.17456-.5464zm-2.86116 4.1077.9-4.5c.46742-2.3371 2.5195-4.0194 4.90286-4.0194h2.5406v-.5c.0001-4.13727 3.3627-7.5 7.5-7.5 2.2955 0 4.3517 1.03732 5.7239 2.65727.2145.25326.4914.63327.6439 1.12183.1722.55173.1959 1.31438-.2727 2.01954-.176.26493-.3853.46499-.5951.6164v2.83496c0 1.5188-1.2312 2.75-2.75 2.75h-.1319c-.0097 0-.0208.0001-.0334.0002-.0979.0006-.2828.0019-.5141-.0277l.8242 4.5534c1.0458.1399 1.9862.8284 2.3982 1.8805.6041 1.5429-.157 3.2832-1.6998 3.8872-2.9596 1.1588-6.3392 1.7064-10.0934 1.7064s-7.1339-.5476-10.09353-1.7064c-1.54276-.604-2.30385-2.3443-1.69974-3.8872.41877-1.0695 1.38355-1.7632 2.45001-1.887zm4.35188 2.7727c.00568.0985.00851.1477.03136.1936.01906.0383.05294.076.08895.0991.04316.0277.09468.0362.19773.0534 1.44454.241 3.00214.362 4.67334.362 1.7847 0 3.4399-.138 4.9661-.4127.0225-.1927.0341-.3888.0341-.5875 0-2.7614-2.2385-5-5-5-2.7614 0-4.99997 2.2386-4.99997 5 0 .098.00282.1954.00839.2921zm7.77178-1.4215c-.4461-1.0971-1.5228-1.8706-2.7802-1.8706-1.2573 0-2.334.7735-2.7801 1.8707.8778.0857 1.804.1295 2.7799.1295.976 0 1.9024-.0438 2.7804-.1296z" fill="currentColor" fill-rule="evenodd"/></svg>
