<svg xmlns="http://www.w3.org/2000/svg" width="28" height="28" fill="currentColor" viewBox="0 0 28 28"><path d="M11.75 17.74c1.455-.986 3.045-.986 4.5 0 1.306.884 1.75 2.047 1.75 3.463 0 .44-.358.798-.798.798h-6.404a.798.798 0 0 1-.798-.798c0-1.416.444-2.579 1.75-3.463Z M10.886 2c-.355 0-.634 0-.884.036a3.5 3.5 0 0 0-2.966 2.966C7 5.252 7 5.532 7 5.886v.116c0 .487 0 .793.025 1.087a7 7 0 0 0 2.318 4.637c.221.197.466.38.856.673l.359.27-1.953 2.343A11.24 11.24 0 0 0 6 22.207 3.793 3.793 0 0 0 9.793 26h8.414A3.793 3.793 0 0 0 22 22.207c0-2.63-.922-5.175-2.605-7.195l-1.953-2.344.36-.27c.39-.291.634-.475.855-.672a7 7 0 0 0 2.318-4.637C21 6.795 21 6.49 21 6.002v-.116c0-.355 0-.634-.036-.884a3.5 3.5 0 0 0-2.966-2.966C17.748 2 17.468 2 17.114 2h-6.228Zm-.6 2.015c.089-.012.212-.015.668-.015h6.091c.457 0 .58.003.668.015a1.5 1.5 0 0 1 1.272 1.272c.012.088.015.21.015.668 0 .55 0 .766-.018.966a5 5 0 0 1-1.656 3.312c-.15.134-.323.264-.762.594L15.4 11.7a1 1 0 0 0-.168 1.44l2.626 3.152A9.24 9.24 0 0 1 20 22.207c0 .99-.803 1.793-1.793 1.793H9.793C8.803 24 8 23.197 8 22.207a9.24 9.24 0 0 1 2.142-5.915l2.626-3.152a1 1 0 0 0-.168-1.44l-1.164-.873c-.44-.33-.612-.46-.762-.594a5 5 0 0 1-1.656-3.312C9 6.721 9 6.504 9 5.955c0-.457.003-.58.015-.668a1.5 1.5 0 0 1 1.271-1.272Z" clip-rule="evenodd"/></svg>
