<svg xmlns="http://www.w3.org/2000/svg" width="28" height="28" fill="none" viewBox="0 0 28 28"><path fill="currentColor" fill-rule="evenodd" d="M10 5c-4.9706 0-9 4.0294-9 9s4.0294 9 9 9c1.4369 0 2.7952-.3368 4.0003-.9356C15.206 22.6634 16.5648 23 18 23c4.9706 0 9-4.0294 9-9s-4.0294-9-9-9c-1.4352 0-2.794.3366-3.9997.9356C12.7952 5.3369 11.4369 5 10 5Zm-7 9c0-3.866 3.134-7 7-7s7 3.134 7 7-3.134 7-7 7-7-3.134-7-7Zm12.9983-6.7099C17.8405 8.9381 19 11.3337 19 14c0 2.6663-1.1595 5.0619-3.0017 6.7099A7.0026 7.0026 0 0 0 18 21c3.866 0 7-3.134 7-7s-3.134-7-7-7a7.002 7.002 0 0 0-2.0017.2901Z" clip-rule="evenodd"/><path fill="currentColor" d="M10.4991 18.9754C9.5519 17.5502 9 15.8395 9 14c0-1.8395.5519-3.5502 1.4991-4.9754C13.0262 9.2751 15 11.407 15 14c0 2.593-1.9738 4.7249-4.5009 4.9754Z"/></svg>
