<?xml version="1.0" encoding="UTF-8"?>
<svg width="28px" height="28px" viewBox="0 0 28 28" version="1.1" xmlns="http://www.w3.org/2000/svg" xmlns:xlink="http://www.w3.org/1999/xlink">
    <g id="Icons-28/info_outline_28-@-about" stroke="none" stroke-width="1" fill="none" fill-rule="evenodd">
        <g id="info_outline_28">
            <polygon points="0 0 28 0 28 28 0 28"></polygon>
            <path d="M14,2 C20.627417,2 26,7.372583 26,14 C26,20.627417 20.627417,26 14,26 C7.372583,26 2,20.627417 2,14 C2,7.372583 7.372583,2 14,2 Z M14,4 C8.4771525,4 4,8.4771525 4,14 C4,19.5228475 8.4771525,24 14,24 C19.5228475,24 24,19.5228475 24,14 C24,8.4771525 19.5228475,4 14,4 Z M14.0736194,12 C14.3112187,12 14.4603679,12.0371302 14.5907383,12.1068531 C14.7211087,12.1765759 14.8234241,12.2788913 14.8931469,12.4092617 C14.9628698,12.5396321 15,12.6887813 15,12.9263806 L15,19.0736194 C15,19.3112187 14.9628698,19.4603679 14.8931469,19.5907383 C14.8234241,19.7211087 14.7211087,19.8234241 14.5907383,19.8931469 C14.4603679,19.9628698 14.3112187,20 14.0736194,20 L13.9263806,20 C13.6887813,20 13.5396321,19.9628698 13.4092617,19.8931469 C13.2788913,19.8234241 13.1765759,19.7211087 13.1068531,19.5907383 C13.0371302,19.4603679 13,19.3112187 13,19.0736194 L13,12.9263806 C13,12.6887813 13.0371302,12.5396321 13.1068531,12.4092617 C13.1765759,12.2788913 13.2788913,12.1765759 13.4092617,12.1068531 C13.5396321,12.0371302 13.6887813,12 13.9263806,12 L14.0736194,12 Z M14,7.6 C14.7731986,7.6 15.4,8.22680135 15.4,9 C15.4,9.77319865 14.7731986,10.4 14,10.4 C13.2268014,10.4 12.6,9.77319865 12.6,9 C12.6,8.22680135 13.2268014,7.6 14,7.6 Z" id="↳-Icon-Color" fill="currentColor" fill-rule="nonzero"></path>
        </g>
    </g>
</svg>
