<svg fill="none" height="28" viewBox="0 0 28 28" width="28" xmlns="http://www.w3.org/2000/svg" xmlns:xlink="http://www.w3.org/1999/xlink"><linearGradient id="a" gradientUnits="userSpaceOnUse" x1="-14" x2="14" y1="14" y2="42"><stop offset="0" stop-color="#70b2ff"/><stop offset="1" stop-color="#5c9ce6"/></linearGradient><path d="m0 14c0-7.73199 6.26801-14 14-14 7.732 0 14 6.26801 14 14 0 7.732-6.268 14-14 14-7.73199 0-14-6.268-14-14z" fill="url(#a)"/><path d="m20 12.29v4.3384c0 .8247-.0859 1.1237-.2471 1.4252s-.3978.5381-.6993.6993-.6005.2471-1.4252.2471h-7.2568c-.82466 0-1.1237-.0859-1.42518-.2471s-.53809-.3978-.69932-.6993c-.16124-.3015-.2471-.6005-.2471-1.4252v-4.3384l6 2.7869zm-2.3716-3.29c.8247 0 1.1237.08586 1.4252.2471.3015.16123.5381.39784.6993.69932.1023.19118.1742.38148.2132.70548l-5.9661 2.7712-5.96593-2.7723c.03897-.3233.11087-.5134.21303-.70438.16123-.30148.39784-.53809.69932-.69932.30148-.16124.60052-.2471 1.42518-.2471z" fill="#fff"/></svg>