<svg height="28" viewBox="0 0 28 28" width="28" xmlns="http://www.w3.org/2000/svg"><g fill="none" fill-rule="evenodd"><path d="m0 0h28v28h-28z"/><path d="m17.590287 3.00000006c2.1830063 0 3.2327391.20271276 4.3234261.78601855.9890833.52896753 1.7713008 1.31118502 2.3002683 2.3002683.5526055 1.03328243.7636261 2.02980819.784308 3.98798749l.0017107 7.5160126c0 2.1830063-.2027129 3.2327391-.7860187 4.3234261-.5289675.9890833-1.311185 1.7713008-2.3002683 2.3002683-1.0332824.5526055-2.0298082.7636261-3.9879875.784308l-1.9257255.0017107c-.5522848 0-1-.4477154-1-1 0-.5128359.3860401-.9355072.8833788-.9932723l.1166212-.0067277h1.5902869l.5573821-.0048787c1.4792854-.0280498 2.1416529-.1804601 2.8228463-.5447663.6405464-.3425679 1.1372718-.8392933 1.4798397-1.4798397.3643062-.6811934.5167165-1.3435609.5447663-2.8228463l.0048787-.5573821v-7.180574l-.0048787-.55738207c-.0280498-1.47928541-.1804601-2.14165293-.5447663-2.82284636-.3425679-.64054635-.8392933-1.13727173-1.4798397-1.47983967-.6811934-.36430623-1.3435609-.51671653-2.8228463-.54476627l-.5573821-.00487857h-7.180574l-.55738207.00487857c-1.47928541.02804974-2.14165293.18046004-2.82284636.54476627-.64054635.34256794-1.13727173.83929332-1.47983967 1.47983967-.36430623.68119343-.51671653 1.34356095-.54476627 2.82284636l-.00487857.55738207v1.5936099c0 .5522848-.44771534 1-1 1-.51283587 0-.93550716-.3860402-.99327227-.8833788l-.00672773-.1166212v-1.5936099c0-2.18300626.20271276-3.23273908.78601855-4.32342609.52896753-.98908328 1.31118502-1.77130077 2.3002683-2.3002683 1.03328243-.55260549 2.02980819-.76362609 3.98798749-.78430802zm1.409713 4.99999994c.5522847 0 1 .44771525 1 1v6c0 .5522847-.4477153 1-1 1h-1.501l.001 1.5c0 .5128552-.3860683.9355354-.8834277.993278l-.1166258.006722-2.5939465-.001.0288604.1528347c.0287796.1856754.0481373.3735108.0578447.5629272l.0072949.2852381c0 3.0375661-2.4624339 5.5-5.5 5.5-3.03756612 0-5.5-2.4624339-5.5-5.5s2.46243388-5.5 5.5-5.5c.32783392 0 .65221207.0287975.97027924.0854819l.02472076.0045181 5.7978997-5.79711321c.1562798-.15627704.3589592-.25548595.5756579-.28421456l.1314424-.00867223zm-1.001 2h-1.585l-5.8997891 5.89989c-.2318633.231859-.56045228.3335145-.87855504.2780973l-.1185876-.0281967c-.32639673-.0989211-.66775382-.1497906-1.01706826-.1497906-1.93299662 0-3.5 1.5670034-3.5 3.5s1.56700338 3.5 3.5 3.5c1.9329966 0 3.5-1.5670034 3.5-3.5 0-.5482187-.1254323-1.076435-.3633561-1.5551322-.3304114-.6647801.1531803-1.4451197.8955443-1.44508l2.9668118.0002122.001-1.5c0-.5128358.3860402-.9355072.8833789-.9932723l.1166211-.0067277h1.499zm-9.999 9c.55228475 0 1 .4477153 1 1s-.44771525 1-1 1-1-.4477153-1-1 .44771525-1 1-1z" fill="currentColor" fill-rule="nonzero"/></g></svg>
