<svg height="28" viewBox="0 0 28 28" width="28" xmlns="http://www.w3.org/2000/svg"><g fill="none" fill-rule="evenodd"><path d="m0 0h28v28h-28z"/><path d="m25 2c.5522847 0 1 .44771525 1 1v4c0 .55228475-.4477153 1-1 1h-2v2c0 .5128358-.3860402.9355072-.8833789.9932723l-.1166211.0067277h-2v2c0 .5128358-.3860402.9355072-.8833789.9932723l-.1166211.0067277h-2.556l.1808751.29929c.580003 1.0205558.9160429 2.1712042.9680218 3.3720285l.0071031.3286815c0 4.1421356-3.3578644 7.5-7.5 7.5-4.14213562 0-7.5-3.3578644-7.5-7.5s3.35786438-7.5 7.5-7.5c.5849319 0 1.1614131.0671638 1.7208294.1985739l.0531706.0134261 8.4188563-8.41906984c.1562828-.15629915.3589756-.25552344.5756909-.28425656l.1314528-.0086736zm-1 2h-2.586l-8.541074 8.5422107c-.2384011.238426-.5784683.338712-.9037063.2734432l-.1210415-.0322897c-.5580331-.1869112-1.1459057-.2833642-1.7481782-.2833642-3.03756612 0-5.5 2.4624339-5.5 5.5s2.46243388 5.5 5.5 5.5c3.0375661 0 5.5-2.4624339 5.5-5.5 0-1.2915573-.4453487-2.5120577-1.2479823-3.4889006-.326533-.397406-.2983466-.9776979.0651647-1.3415865l.8753441-.8762528c.1875661-.1877608.4420773-.2932601.7074735-.2932601h2v-2c0-.51283584.3860402-.93550716.8833789-.99327227l.1166211-.00672773h2v-2c0-.51283584.3860402-.93550716.8833789-.99327227l.1166211-.00672773h2zm-15.5 14.2c.71797017 0 1.3.5820298 1.3 1.3s-.58202983 1.3-1.3 1.3-1.3-.5820298-1.3-1.3.58202983-1.3 1.3-1.3z" fill="currentColor" fill-rule="nonzero"/></g></svg>
