<?xml version="1.0" encoding="UTF-8"?>
<svg width="28px" height="28px" viewBox="0 0 28 28" version="1.1" xmlns="http://www.w3.org/2000/svg" xmlns:xlink="http://www.w3.org/1999/xlink">
    <!-- Generator: Sketch 50.2 (55047) - http://www.bohemiancoding.com/sketch -->
    <title>keyboard_bots_outline_28</title>
    <desc>Created with Sketch.</desc>
    <defs></defs>
    <g id="Page-2" stroke="none" stroke-width="1" fill="none" fill-rule="evenodd">
        <g id="keyboard_bots_outline_28">
            <rect id="Body" x="0" y="0" width="28" height="28"></rect>
            <path d="M10.8916554,3.19999981 L17.1083446,3.19999981 C19.7829008,3.19999981 20.7527595,3.47847664 21.7305373,4.00139792 C22.7083151,4.5243192 23.4756808,5.29168492 23.9986021,6.2694627 C24.5215234,7.24724048 24.8000002,8.21709919 24.8000002,10.8916554 L24.8000002,17.1083446 C24.8000002,19.7829008 24.5215234,20.7527595 23.9986021,21.7305373 C23.4756808,22.7083151 22.7083151,23.4756808 21.7305373,23.9986021 C20.7527595,24.5215234 19.7829008,24.8000002 17.1083446,24.8000002 L10.8916554,24.8000002 C8.21709919,24.8000002 7.24724048,24.5215234 6.2694627,23.9986021 C5.29168492,23.4756808 4.5243192,22.7083151 4.00139792,21.7305373 C3.47847664,20.7527595 3.19999981,19.7829008 3.19999981,17.1083446 L3.19999981,10.8916554 C3.19999981,8.21709919 3.47847664,7.24724048 4.00139792,6.2694627 C4.5243192,5.29168492 5.29168492,4.5243192 6.2694627,4.00139792 C7.24724048,3.47847664 8.21709919,3.19999981 10.8916554,3.19999981 Z M10.3841587,5 C8.51196941,5 7.83306834,5.19493377 7.14862392,5.56097865 C6.46417951,5.92702353 5.92702353,6.46417951 5.56097865,7.14862392 C5.19493377,7.83306834 5,8.51196941 5,10.3841587 L5,17.6158413 C5,19.4880306 5.19493377,20.1669317 5.56097865,20.8513761 C5.92702353,21.5358205 6.46417951,22.0729765 7.14862392,22.4390213 C7.83306834,22.8050662 8.51196941,23 10.3841587,23 L17.6158413,23 C19.4880306,23 20.1669317,22.8050662 20.8513761,22.4390213 C21.5358205,22.0729765 22.0729765,21.5358205 22.4390213,20.8513761 C22.8050662,20.1669317 23,19.4880306 23,17.6158413 L23,10.3841587 C23,8.51196941 22.8050662,7.83306834 22.4390213,7.14862392 C22.0729765,6.46417951 21.5358205,5.92702353 20.8513761,5.56097865 C20.1669317,5.19493377 19.4880306,5 17.6158413,5 L10.3841587,5 Z M11,9 C12.1045695,9 13,9.8954305 13,11 C13,12.1045695 12.1045695,13 11,13 C9.8954305,13 9,12.1045695 9,11 C9,9.8954305 9.8954305,9 11,9 Z M17,9 C18.1045695,9 19,9.8954305 19,11 C19,12.1045695 18.1045695,13 17,13 C15.8954305,13 15,12.1045695 15,11 C15,9.8954305 15.8954305,9 17,9 Z M11,15 C12.1045695,15 13,15.8954305 13,17 C13,18.1045695 12.1045695,19 11,19 C9.8954305,19 9,18.1045695 9,17 C9,15.8954305 9.8954305,15 11,15 Z M17,15 C18.1045695,15 19,15.8954305 19,17 C19,18.1045695 18.1045695,19 17,19 C15.8954305,19 15,18.1045695 15,17 C15,15.8954305 15.8954305,15 17,15 Z" id="Mask" fill="currentColor"></path>
        </g>
    </g>
</svg>
