<?xml version="1.0" encoding="UTF-8"?>
<svg width="28px" height="28px" viewBox="0 0 28 28" version="1.1" xmlns="http://www.w3.org/2000/svg" xmlns:xlink="http://www.w3.org/1999/xlink">
    <!-- Generator: Sketch 63.1 (92452) - https://sketch.com -->
    <title>keyboard_bots_outline_28</title>
    <desc>Created with Sketch.</desc>
    <g id="Page-1" stroke="none" stroke-width="1" fill="none" fill-rule="evenodd">
        <g id="keyboard_bots_outline_28">
            <rect x="0" y="0" width="28" height="28"></rect>
            <path d="M16.3083444,3.00000006 C18.897759,3.00000006 20.1262468,3.23723201 21.4021359,3.91958497 C22.5541822,4.53570604 23.464294,5.44581782 24.080415,6.59786406 C24.762768,7.87375315 25.0000001,9.10224102 25.0000001,11.6916556 L25.0000001,16.3083444 C25.0000001,18.897759 24.762768,20.1262468 24.080415,21.4021359 C23.464294,22.5541822 22.5541822,23.464294 21.4021359,24.080415 C20.1262468,24.762768 18.897759,25.0000001 16.3083444,25.0000001 L11.6916556,25.0000001 C9.10224102,25.0000001 7.87375315,24.762768 6.59786406,24.080415 C5.44581782,23.464294 4.53570604,22.5541822 3.91958497,21.4021359 C3.23723201,20.1262468 3.00000006,18.897759 3.00000006,16.3083444 L3.00000006,11.6916556 C3.00000006,9.10224102 3.23723201,7.87375315 3.91958497,6.59786406 C4.53570604,5.44581782 5.44581782,4.53570604 6.59786406,3.91958497 C7.87375315,3.23723201 9.10224102,3.00000006 11.6916556,3.00000006 L16.3083444,3.00000006 Z M16.3083444,4.99999994 L11.6916556,4.99999994 C9.40417042,4.99999994 8.48759763,5.17699831 7.54106172,5.68321126 C6.73755241,6.11293274 6.11293274,6.73755241 5.68321126,7.54106172 C5.17699831,8.48759763 4.99999994,9.40417042 4.99999994,11.6916556 L4.99999994,16.3083444 C4.99999994,18.5958296 5.17699831,19.5124024 5.68321126,20.4589383 C6.11293274,21.2624476 6.73755241,21.8870673 7.54106172,22.3167887 C8.48759763,22.8230017 9.40417042,22.9999999 11.6916556,22.9999999 L16.3083444,22.9999999 C18.5958296,22.9999999 19.5124024,22.8230017 20.4589383,22.3167887 C21.2624476,21.8870673 21.8870673,21.2624476 22.3167887,20.4589383 C22.8230017,19.5124024 22.9999999,18.5958296 22.9999999,16.3083444 L22.9999999,11.6916556 C22.9999999,9.40417042 22.8230017,8.48759763 22.3167887,7.54106172 C21.8870673,6.73755241 21.2624476,6.11293274 20.4589383,5.68321126 C19.5124024,5.17699831 18.5958296,4.99999994 16.3083444,4.99999994 Z M11,15 C12.1045695,15 13,15.8954305 13,17 C13,18.1045695 12.1045695,19 11,19 C9.8954305,19 9,18.1045695 9,17 C9,15.8954305 9.8954305,15 11,15 Z M17,15 C18.1045695,15 19,15.8954305 19,17 C19,18.1045695 18.1045695,19 17,19 C15.8954305,19 15,18.1045695 15,17 C15,15.8954305 15.8954305,15 17,15 Z M11,9 C12.1045695,9 13,9.8954305 13,11 C13,12.1045695 12.1045695,13 11,13 C9.8954305,13 9,12.1045695 9,11 C9,9.8954305 9.8954305,9 11,9 Z M17,9 C18.1045695,9 19,9.8954305 19,11 C19,12.1045695 18.1045695,13 17,13 C15.8954305,13 15,12.1045695 15,11 C15,9.8954305 15.8954305,9 17,9 Z" id="↳-Icon-Color" fill="currentColor" fill-rule="nonzero"></path>
        </g>
    </g>
</svg>
