<?xml version="1.0" encoding="UTF-8"?>
<svg width="28px" height="28px" viewBox="0 0 28 28" version="1.1" xmlns="http://www.w3.org/2000/svg" xmlns:xlink="http://www.w3.org/1999/xlink">
    <!-- Generator: Sketch 63.1 (92452) - https://sketch.com -->
    <title>keyboard_outline_28</title>
    <desc>Created with Sketch.</desc>
    <g id="Page-1" stroke="none" stroke-width="1" fill="none" fill-rule="evenodd">
        <g id="keyboard_outline_28" fill-rule="nonzero">
            <rect x="0" y="0" width="28" height="28"></rect>
            <path d="M9.6916556,4 L18.3083444,4 C20.9829006,4 21.9527593,4.27847683 22.9305371,4.80139811 C23.9083149,5.32431939 24.6756806,6.09168511 25.1986019,7.06946289 C25.7215232,8.04724067 26,9.01709938 26,11.6916556 L26,16.3083444 C26,18.9829006 25.7215232,19.9527593 25.1986019,20.9305371 C24.6756806,21.9083149 23.9083149,22.6756806 22.9305371,23.1986019 C21.9527593,23.7215232 20.9829006,24 18.3083444,24 L9.6916556,24 C7.01709938,24 6.04724067,23.7215232 5.06946289,23.1986019 C4.09168511,22.6756806 3.32431939,21.9083149 2.80139811,20.9305371 C2.27847683,19.9527593 2,18.9829006 2,16.3083444 L2,11.6916556 C2,9.01709938 2.27847683,8.04724067 2.80139811,7.06946289 C3.32431939,6.09168511 4.09168511,5.32431939 5.06946289,4.80139811 C6.04724067,4.27847683 7.01709938,4 9.6916556,4 Z M9.6916556,6 C7.55513514,6 6.79451991,6.14688158 6.01266061,6.56502451 C5.38341978,6.90154619 4.90154619,7.38341978 4.56502451,8.01266061 C4.14688158,8.79451991 4,9.55513514 4,11.6916556 L4,16.3083444 C4,18.4448649 4.14688158,19.2054801 4.56502451,19.9873394 C4.90154619,20.6165802 5.38341978,21.0984538 6.01266061,21.4349755 C6.79451991,21.8531184 7.55513514,22 9.6916556,22 L18.3083444,22 C20.4448649,22 21.2054801,21.8531184 21.9873394,21.4349755 C22.6165802,21.0984538 23.0984538,20.6165802 23.4349755,19.9873394 C23.8531184,19.2054801 24,18.4448649 24,16.3083444 L24,11.6916556 C24,9.55513514 23.8531184,8.79451991 23.4349755,8.01266061 C23.0984538,7.38341978 22.6165802,6.90154619 21.9873394,6.56502451 C21.2054801,6.14688158 20.4448649,6 18.3083444,6 L9.6916556,6 Z M8,11.5 C7.17157288,11.5 6.5,10.8284271 6.5,10 C6.5,9.17157288 7.17157288,8.5 8,8.5 C8.82842712,8.5 9.5,9.17157288 9.5,10 C9.5,10.8284271 8.82842712,11.5 8,11.5 Z M12,11.5 C11.1715729,11.5 10.5,10.8284271 10.5,10 C10.5,9.17157288 11.1715729,8.5 12,8.5 C12.8284271,8.5 13.5,9.17157288 13.5,10 C13.5,10.8284271 12.8284271,11.5 12,11.5 Z M16,11.5 C15.1715729,11.5 14.5,10.8284271 14.5,10 C14.5,9.17157288 15.1715729,8.5 16,8.5 C16.8284271,8.5 17.5,9.17157288 17.5,10 C17.5,10.8284271 16.8284271,11.5 16,11.5 Z M20,11.5 C19.1715729,11.5 18.5,10.8284271 18.5,10 C18.5,9.17157288 19.1715729,8.5 20,8.5 C20.8284271,8.5 21.5,9.17157288 21.5,10 C21.5,10.8284271 20.8284271,11.5 20,11.5 Z M20,16 C19.1715729,16 18.5,15.3284271 18.5,14.5 C18.5,13.6715729 19.1715729,13 20,13 C20.8284271,13 21.5,13.6715729 21.5,14.5 C21.5,15.3284271 20.8284271,16 20,16 Z M16,16 C15.1715729,16 14.5,15.3284271 14.5,14.5 C14.5,13.6715729 15.1715729,13 16,13 C16.8284271,13 17.5,13.6715729 17.5,14.5 C17.5,15.3284271 16.8284271,16 16,16 Z M12,16 C11.1715729,16 10.5,15.3284271 10.5,14.5 C10.5,13.6715729 11.1715729,13 12,13 C12.8284271,13 13.5,13.6715729 13.5,14.5 C13.5,15.3284271 12.8284271,16 12,16 Z M8,16 C7.17157288,16 6.5,15.3284271 6.5,14.5 C6.5,13.6715729 7.17157288,13 8,13 C8.82842712,13 9.5,13.6715729 9.5,14.5 C9.5,15.3284271 8.82842712,16 8,16 Z M9,18 L19,18 C19.5522847,18 20,18.4477153 20,19 C20,19.5522847 19.5522847,20 19,20 L9,20 C8.44771525,20 8,19.5522847 8,19 C8,18.4477153 8.44771525,18 9,18 Z" id="↳-Icon-Color" fill="currentColor"></path>
        </g>
    </g>
</svg>
