<svg xmlns="http://www.w3.org/2000/svg" width="28" height="28" fill="currentColor" viewBox="0 0 28 28"><path fill-rule="evenodd" d="M14 2C8.446 2 4 6.48 4 12c0 2.85.986 4.693 2.165 6.128.45.55.94 1.05 1.379 1.499l.322.33c.492.51.897.962 1.202 1.437l.507 2.03.032.128c.128.518.257 1.037.563 1.446a2.5 2.5 0 0 0 1.033.807c.471.198 1.006.197 1.54.195h2.514c.534.002 1.069.003 1.54-.195a2.5 2.5 0 0 0 1.033-.807c.307-.409.435-.928.563-1.446l.032-.127.507-2.031c.305-.475.71-.927 1.202-1.436.103-.107.21-.218.322-.331.44-.45.928-.95 1.38-1.499C23.013 16.693 24 14.85 24 12c0-5.552-4.448-10-10-10ZM6 12c0-4.42 3.554-8 8-8 4.448 0 8 3.552 8 8 0 2.3-.764 3.707-1.71 4.86-.39.474-.802.895-1.234 1.337-.119.122-.24.245-.361.372-.42.435-.855.905-1.233 1.431H15v-2.5l1.6-1.2a1 1 0 0 0-1.2-1.6L14 15.75l-1.4-1.05a1 1 0 0 0-1.2 1.6l1.6 1.2V20h-2.463c-.377-.526-.811-.996-1.231-1.431l-.362-.372a20.744 20.744 0 0 1-1.234-1.338C6.764 15.707 6 14.3 6 12Zm5.28 10 .236.94c.185.74.224.818.255.86a.5.5 0 0 0 .206.161c.048.02.134.039.897.039h2.252c.763 0 .849-.02.897-.039a.5.5 0 0 0 .206-.161c.031-.042.07-.12.255-.86l.235-.94h-5.438Z" clip-rule="evenodd"/></svg>
