<svg height="28" viewBox="0 0 28 28" width="28" xmlns="http://www.w3.org/2000/svg"><g fill="none" fill-rule="evenodd"><path d="m0 0h28v28h-28z"/><path d="m9.02631579 4.88c-3.60438468 0-6.52631579 2.92193111-6.52631579 6.5263158 0 3.6127903 1.44497846 5.4210506 7.49322968 10.125246l2.77888912 2.1613582c.7222209.5617274 1.7335415.5617274 2.4557624 0l2.7788891-2.1613582c6.0482512-4.7041954 7.4932297-6.5124557 7.4932297-10.125246 0-3.60438469-2.9219311-6.5263158-6.5263158-6.5263158-1.8715099 0-3.5377685.85037017-4.9736842 2.48654489-1.4359157-1.63617472-3.1021743-2.48654489-4.97368421-2.48654489zm0 2c1.51918241 0 2.88856221.85751701 4.15119681 2.68334572l.2056219.29733881c.2355978.34068547.7027676.42587577 1.043453.19027797.0743787-.05143587.1388421-.11589925.190278-.19027797l.2056219-.29733881c1.2626346-1.82582871 2.6320144-2.68334572 4.1511968-2.68334572 2.4998152 0 4.5263158 2.02650061 4.5263158 4.5263158 0 2.7802753-1.1374559 4.2036988-6.7211109 8.5465416l-2.7788891 2.1613582-2.7788891-2.1613582c-5.58365502-4.3428428-6.7211109-5.7662663-6.7211109-8.5465416 0-2.49981519 2.02650061-4.5263158 4.52631579-4.5263158z" fill="currentColor" fill-rule="nonzero"/></g></svg>
