<svg xmlns="http://www.w3.org/2000/svg" width="28" height="28" fill="currentColor" viewBox="0 0 28 28"><path d="M9.078 5C5.483 5 2.5 7.875 2.5 11.478c0 1.93.516 3.418 1.77 4.954 1.193 1.461 3.068 2.98 5.725 5.038l3.394 2.621a1 1 0 1 0 1.222-1.582l-3.392-2.62c-2.7-2.091-4.378-3.47-5.4-4.722-.96-1.176-1.319-2.216-1.319-3.689C4.5 9.018 6.548 7 9.078 7c1.394 0 2.776.982 4.153 2.64a1 1 0 0 0 1.544-.009C16.116 7.985 17.498 7 18.922 7c2.53 0 4.578 2.019 4.578 4.478 0 .49-.04.92-.122 1.315l-.022.103-.014.062a1 1 0 1 0 1.944.47 6.285 6.285 0 0 0 .05-.226 8.472 8.472 0 0 0 .164-1.724C25.5 7.875 22.517 5 18.922 5c-1.966 0-3.608 1.11-4.928 2.493C12.662 6.114 11.022 5 9.078 5Z"/><path fill-rule="evenodd" d="M24.5 18.492a2.994 2.994 0 0 0-3-2.992l-.176.005a3.003 3.003 0 0 0-2.824 2.996V20l-.748.001a.76.76 0 0 0-.752.76v4.48c0 .42.337.76.752.76h7.496a.76.76 0 0 0 .752-.76v-4.48c0-.42-.337-.76-.752-.76L24.5 20v-1.507Zm-3.145-1.485L21.5 17c.828 0 1.5.666 1.5 1.5V20h-3v-1.5c0-.78.59-1.42 1.355-1.493Z" clip-rule="evenodd"/></svg>
