<?xml version="1.0" encoding="UTF-8"?>
<svg width="28px" height="28px" viewBox="0 0 28 28" version="1.1" xmlns="http://www.w3.org/2000/svg" xmlns:xlink="http://www.w3.org/1999/xlink">
    <!-- Generator: Sketch 63.1 (92452) - https://sketch.com -->
    <title>link_outline_28</title>
    <desc>Created with Sketch.</desc>
    <g id="Page-1" stroke="none" stroke-width="1" fill="none" fill-rule="evenodd">
        <g id="link_outline_28">
            <rect x="0" y="0" width="28" height="28"></rect>
            <path d="M20.7083333,6.29166667 C21.2606181,6.29166667 21.7083333,6.73938192 21.7083333,7.29166667 L21.7083333,7.29166667 L21.7083333,17.7916667 C21.7083333,18.3439514 21.2606181,18.7916667 20.7083333,18.7916667 C20.1560486,18.7916667 19.7083333,18.3439514 19.7083333,17.7916667 L19.7083333,17.7916667 L19.708,9.70466667 L7.70710678,21.7071068 C7.34662282,22.0675907 6.77939176,22.0953203 6.38710056,21.7902954 L6.29289322,21.7071068 C5.90236893,21.3165825 5.90236893,20.6834175 6.29289322,20.2928932 L6.29289322,20.2928932 L18.293,8.29166667 L10.2083333,8.29166667 C9.69549749,8.29166667 9.27282617,7.90562648 9.21506106,7.40828779 L9.20833333,7.29166667 C9.20833333,6.73938192 9.65604858,6.29166667 10.2083333,6.29166667 L10.2083333,6.29166667 Z" id="↳-Icon-Color" fill="currentColor" fill-rule="nonzero"></path>
        </g>
    </g>
</svg>
