<?xml version="1.0" encoding="UTF-8"?>
<svg width="28px" height="28px" viewBox="0 0 28 28" version="1.1" xmlns="http://www.w3.org/2000/svg" xmlns:xlink="http://www.w3.org/1999/xlink">
    <!-- Generator: Sketch 63.1 (92452) - https://sketch.com -->
    <title>link_circle_outline_28</title>
    <desc>Created with Sketch.</desc>
    <g id="Page-1" stroke="none" stroke-width="1" fill="none" fill-rule="evenodd">
        <g id="link_circle_outline_28">
            <rect x="0" y="0" width="28" height="28"></rect>
            <path d="M14,2 C20.627417,2 26,7.372583 26,14 C26,20.627417 20.627417,26 14,26 C7.372583,26 2,20.627417 2,14 C2,7.372583 7.372583,2 14,2 Z M14,4 C8.4771525,4 4,8.4771525 4,14 C4,19.5228475 8.4771525,24 14,24 C19.5228475,24 24,19.5228475 24,14 C24,8.4771525 19.5228475,4 14,4 Z M18,9 C18.5522847,9 19,9.44771525 19,10 L19,10 L19,16 C19,16.5522847 18.5522847,17 18,17 C17.4477153,17 17,16.5522847 17,16 L17,16 L17,12.414 L10.7071068,18.7071068 C10.3466228,19.0675907 9.77939176,19.0953203 9.38710056,18.7902954 L9.29289322,18.7071068 C8.90236893,18.3165825 8.90236893,17.6834175 9.29289322,17.2928932 L9.29289322,17.2928932 L15.584,11 L12,11 C11.4871642,11 11.0644928,10.6139598 11.0067277,10.1166211 L11,10 C11,9.44771525 11.4477153,9 12,9 L12,9 Z" id="↳-Icon-Color" fill="currentColor" fill-rule="nonzero"></path>
        </g>
    </g>
</svg>
