<svg fill="none" height="28" viewBox="0 0 28 28" width="28" xmlns="http://www.w3.org/2000/svg"><path d="m20 13c.5523 0 1 .4477 1 1v4h4c.5523 0 1 .4477 1 1s-.4477 1-1 1h-4v4c0 .5523-.4477 1-1 1s-1-.4477-1-1v-4h-4c-.5523 0-1-.4477-1-1s.4477-1 1-1h4v-4c0-.5523.4477-1 1-1zm-10 5c.5523 0 1 .4477 1 1s-.4477 1-1 1h-6c-.55228 0-1-.4477-1-1s.44772-1 1-1zm5-6c.5523 0 1 .4477 1 1s-.4477 1-1 1h-11c-.55228 0-1-.4477-1-1s.44772-1 1-1zm7-6c.5523 0 1 .44772 1 1s-.4477 1-1 1h-18c-.55228 0-1-.44772-1-1s.44772-1 1-1z" fill="currentColor"/></svg>
