<?xml version="1.0" encoding="UTF-8"?>
<svg width="28px" height="28px" viewBox="0 0 28 28" version="1.1" xmlns="http://www.w3.org/2000/svg" xmlns:xlink="http://www.w3.org/1999/xlink">
    <!-- Generator: Sketch 63.1 (92452) - https://sketch.com -->
    <title>list_play_outline_28</title>
    <desc>Created with Sketch.</desc>
    <g id="Page-1" stroke="none" stroke-width="1" fill="none" fill-rule="evenodd">
        <g id="list_play_outline_28">
            <rect x="0" y="0" width="28" height="28"></rect>
            <path d="M12.5,17 C13.0522847,17 13.5,17.4477153 13.5,18 C13.5,18.5522847 13.0522847,19 12.5,19 L4.5,19 C3.94771525,19 3.5,18.5522847 3.5,18 C3.5,17.4477153 3.94771525,17 4.5,17 L12.5,17 Z M12.5,11 C13.0522847,11 13.5,11.4477153 13.5,12 C13.5,12.5522847 13.0522847,13 12.5,13 L4.5,13 C3.94771525,13 3.5,12.5522847 3.5,12 C3.5,11.4477153 3.94771525,11 4.5,11 L12.5,11 Z M21.5,5 C22.0522847,5 22.5,5.44771525 22.5,6 C22.5,6.55228475 22.0522847,7 21.5,7 L4.5,7 C3.94771525,7 3.5,6.55228475 3.5,6 C3.5,5.44771525 3.94771525,5 4.5,5 L21.5,5 Z M18.0178027,13.16867 L24.5865651,17.1444999 C25.0590447,17.4304744 25.210237,18.045323 24.9242625,18.5178027 C24.8406226,18.6559903 24.7247527,18.7718602 24.5865651,18.8555001 L18.0178027,22.83133 C17.545323,23.1173045 16.9304744,22.9661122 16.6444999,22.4936326 C16.5499725,22.3374568 16.5,22.1583848 16.5,21.9758299 L16.5,14.0241701 C16.5,13.4718854 16.9477153,13.0241701 17.5,13.0241701 C17.6825549,13.0241701 17.861627,13.0741426 18.0178027,13.16867 Z" id="↳-Icon-Color" fill="currentColor" fill-rule="nonzero"></path>
        </g>
    </g>
</svg>
