<?xml version="1.0" encoding="UTF-8"?>
<svg width="28px" height="28px" viewBox="0 0 28 28" version="1.1" xmlns="http://www.w3.org/2000/svg" xmlns:xlink="http://www.w3.org/1999/xlink">
    <!-- Generator: Sketch 63.1 (92452) - https://sketch.com -->
    <title>list_like_outline_28</title>
    <desc>Created with Sketch.</desc>
    <g id="Icons" stroke="none" stroke-width="1" fill="none" fill-rule="evenodd">
        <g id="Icons-28/list_like_outline_28">
            <g id="list_like_outline_28">
                <rect x="0" y="0" width="28" height="28"></rect>
                <path d="M21.4605263,12 C23.9608945,12 26,13.9901008 26,16.4604194 C26,18.782815 25.086961,19.9607093 21.5741103,22.6517746 L20.1102774,23.7639559 C19.2112389,24.4464033 17.9868208,24.4843171 17.051629,23.8776971 L16.8897226,23.7639559 L15.3802962,22.61682 L14.8094187,22.1738232 C11.8046425,19.8121607 11,18.6406029 11,16.4604194 C11,13.9901008 13.0391055,12 15.5394737,12 C16.4689006,12 17.3240333,12.2923202 18.0901247,12.8492499 L18.29684,13.0076796 L18.49875,13.18 L18.7159343,12.9973571 C19.3831752,12.4628786 20.122088,12.135349 20.9199909,12.033916 L21.188126,12.0085053 L21.4605263,12 Z M21.5229428,13.9990258 L21.299,14.006 L21.1126602,14.0263216 C20.7812939,14.0775403 20.4675113,14.2033805 20.1756383,14.4009316 L20.0031782,14.5280442 L18.8135443,15.5284766 C18.6264111,15.6858478 18.352914,15.684798 18.1669943,15.525995 L17.0411463,14.5643534 C16.5635786,14.1791226 16.076929,14 15.5394737,14 C14.1302226,14 13,15.1082216 13,16.4604194 C13,17.868334 13.4473961,18.5719653 16.0723287,20.6235182 L16.590444,21.0244813 L18.0989658,22.1709302 C18.3064049,22.3283943 18.5834,22.3480773 18.8082281,22.2299793 L18.9010342,22.1709302 L20.593014,20.8837417 C23.5243439,18.6247381 24,17.9111445 24,16.4604194 C24,15.1623095 22.9583869,14.0890481 21.6834647,14.0044022 L21.5229428,13.9990258 Z M8,18 C8.55228475,18 9,18.4477153 9,19 C9,19.5522847 8.55228475,20 8,20 L4.5,20 C3.94771525,20 3.5,19.5522847 3.5,19 C3.5,18.4477153 3.94771525,18 4.5,18 L8,18 Z M8.5,12 C9.05228475,12 9.5,12.4477153 9.5,13 C9.5,13.5522847 9.05228475,14 8.5,14 L4.5,14 C3.94771525,14 3.5,13.5522847 3.5,13 C3.5,12.4477153 3.94771525,12 4.5,12 L8.5,12 Z M21.5,6 C22.0522847,6 22.5,6.44771525 22.5,7 C22.5,7.55228475 22.0522847,8 21.5,8 L4.5,8 C3.94771525,8 3.5,7.55228475 3.5,7 C3.5,6.44771525 3.94771525,6 4.5,6 L21.5,6 Z" id="↳-Icon-Color" fill="currentColor" fill-rule="nonzero"></path>
            </g>
        </g>
    </g>
</svg>
