<svg fill="none" height="28" viewBox="0 0 28 28" width="28" xmlns="http://www.w3.org/2000/svg"><g fill="currentColor"><path d="m12.9975 18c.5521 0 .9997.4477.9997 1s-.4476 1-.9997 1h-8.99776c-.55214 0-.99974-.4477-.99974-1s.4476-1 .99974-1zm0-6c.5521 0 .9997.4477.9997 1s-.4476 1-.9997 1h-8.99776c-.55214 0-.99974-.4477-.99974-1s.4476-1 .99974-1zm9.0028-6c.5521 0 .9997.44772.9997 1s-.4476 1-.9997 1h-18.00056c-.55214 0-.99974-.44772-.99974-1s.4476-1 .99974-1z"/><path d="m24.9944 18.1311c.6741.3862.6741 1.3516 0 1.7378l-6.481 3.9952c-.6742.3862-1.5169-.0966-1.5169-.8689v-7.9904c0-.7723.8427-1.2551 1.5169-.8689z"/></g></svg>
