<?xml version="1.0" encoding="UTF-8"?>
<svg width="28px" height="28px" viewBox="0 0 28 28" version="1.1" xmlns="http://www.w3.org/2000/svg" xmlns:xlink="http://www.w3.org/1999/xlink">
    <!-- Generator: Sketch 63.1 (92452) - https://sketch.com -->
    <title>list_add_outline_28</title>
    <desc>Created with Sketch.</desc>
    <g id="Page-1" stroke="none" stroke-width="1" fill="none" fill-rule="evenodd">
        <g id="list_add_outline_28">
            <rect x="0" y="0" width="28" height="28"></rect>
            <path d="M20,12 C20.5522847,12 21,12.4477153 21,13 L21,17 L25,17 C25.5522847,17 26,17.4477153 26,18 C26,18.5522847 25.5522847,19 25,19 L21,19 L21,23 C21,23.5522847 20.5522847,24 20,24 C19.4477153,24 19,23.5522847 19,23 L19,19 L15,19 C14.4477153,19 14,18.5522847 14,18 C14,17.4477153 14.4477153,17 15,17 L19,17 L19,13 C19,12.4477153 19.4477153,12 20,12 Z M9.5,17 C10.0522847,17 10.5,17.4477153 10.5,18 C10.5,18.5522847 10.0522847,19 9.5,19 L4.5,19 C3.94771525,19 3.5,18.5522847 3.5,18 C3.5,17.4477153 3.94771525,17 4.5,17 L9.5,17 Z M14.5,11 C15.0522847,11 15.5,11.4477153 15.5,12 C15.5,12.5522847 15.0522847,13 14.5,13 L4.5,13 C3.94771525,13 3.5,12.5522847 3.5,12 C3.5,11.4477153 3.94771525,11 4.5,11 L14.5,11 Z M21.5,5 C22.0522847,5 22.5,5.44771525 22.5,6 C22.5,6.55228475 22.0522847,7 21.5,7 L4.5,7 C3.94771525,7 3.5,6.55228475 3.5,6 C3.5,5.44771525 3.94771525,5 4.5,5 L21.5,5 Z" id="↳-Icon-Color" fill="currentColor" fill-rule="nonzero"></path>
        </g>
    </g>
</svg>
