<svg fill="none" height="28" viewBox="0 0 28 28" width="28" xmlns="http://www.w3.org/2000/svg"><path clip-rule="evenodd" d="m26.701 15.2868c.3635.3573.3962.9243.0946 1.3192l-6.945 7.095c-.3611.3673-.9352.3963-1.3299.0864l-4.2321-4.2724c-.3881-.3929-.3843-1.026.0086-1.4142.3626-.3582.93-.3825 1.3205-.0751l3.5173 3.5493 6.1518-6.276c.3871-.3938 1.0203-.3993 1.4142-.0122zm-16.701 2.7132c.5523 0 1 .4477 1 1s-.4477 1-1 1h-6c-.55228 0-1-.4477-1-1s.44772-1 1-1zm12-6c.5523 0 1 .4477 1 1s-.4477 1-1 1h-18c-.55228 0-1-.4477-1-1s.44772-1 1-1zm0-6c.5523 0 1 .44772 1 1s-.4477 1-1 1h-18c-.55228 0-1-.44772-1-1s.44772-1 1-1z" fill="currentColor" fill-rule="evenodd"/></svg>
