<svg fill="none" height="28" viewBox="0 0 28 28" width="28" xmlns="http://www.w3.org/2000/svg"><path clip-rule="evenodd" d="m4.25 6c-.69036 0-1.25.55964-1.25 1.25s.55964 1.25 1.25 1.25h17.5c.6904 0 1.25-.55964 1.25-1.25s-.5596-1.25-1.25-1.25zm0 6c-.69036 0-1.25.5596-1.25 1.25s.55964 1.25 1.25 1.25h4.5c.69036 0 1.25-.5596 1.25-1.25s-.55964-1.25-1.25-1.25zm-1.25 7.25c0-.6904.55964-1.25 1.25-1.25h4.5c.69036 0 1.25.5596 1.25 1.25s-.55964 1.25-1.25 1.25h-4.5c-.69036 0-1.25-.5596-1.25-1.25zm11-6c0-.4142-.3358-.75-.75-.75s-.75.3358-.75.75v6.694c0 1.0256.2004 4.056 4.7009 4.056 1.3793 0 3.2124-.5 4.4641-2.002.7653-.9184 2.0795-2.4935 2.8087-3.3674.2983-.3574.2737-.8827-.0559-1.2116-.3645-.3637-.9594-.3476-1.3036.0354l-1.6142 1.7956v-7.25c0-.4142-.3358-.75-.75-.75s-.75.3358-.75.75v4.25c0 .2761-.2239.5-.5.5s-.5-.2239-.5-.5v-5.5c0-.4142-.3358-.75-.75-.75s-.75.3358-.75.75v5.5c0 .2761-.2239.5-.5.5s-.5-.2239-.5-.5v-4.75c0-.4142-.3358-.75-.75-.75s-.75.3358-.75.75v5.5c0 .2761-.2239.5-.5.5s-.5-.2239-.5-.5z" fill="currentColor" fill-rule="evenodd"/></svg>
