<svg height="28" viewBox="0 0 28 28" width="28" xmlns="http://www.w3.org/2000/svg"><g fill="none" fill-rule="evenodd"><path d="m0 0h28v28h-28z"/><path d="m26.7009571 14.2867965c.363592.3573488.3962325.9243185.0946161 1.3192364l-.0823697.0949242-6.8626318 7c-.3610728.367381-.9352122.3963525-1.3298786.0864034l-.0947004-.0845484-4.1373682-4.1877797c-.3881524-.3928819-.3843185-1.0260353.0085634-1.4141877.3626601-.3582945.9300487-.3825888 1.3204857-.0751941l.0937019.0837575 3.4236245 3.4655919 6.1517965-6.2759571c.3871279-.3938914 1.0202691-.3993743 1.4141606-.0122464zm-17.2009571 2.7132035c.5522847 0 1 .4477153 1 1s-.4477153 1-1 1h-5c-.55228475 0-1-.4477153-1-1s.44771525-1 1-1zm12-6c.5522847 0 1 .4477153 1 1s-.4477153 1-1 1h-17c-.55228475 0-1-.4477153-1-1s.44771525-1 1-1zm0-6c.5522847 0 1 .44771525 1 1s-.4477153 1-1 1h-17c-.55228475 0-1-.44771525-1-1s.44771525-1 1-1z" fill="currentColor"/></g></svg>
