<svg fill="none" height="28" viewBox="0 0 28 28" width="28" xmlns="http://www.w3.org/2000/svg"><path clip-rule="evenodd" d="m5.70711 3.29289c-.39053-.39052-1.02369-.39052-1.41422 0-.39052.39053-.39052 1.02369 0 1.41422l1.2929 1.29289h-1.58579c-.55228 0-1 .44772-1 1s.44772 1 1 1h3.58579l5.01421 5.0142c-.9293.7797-1.521 1.9363-1.5982 3.2088-.0009.0146-.0014.0294-.0017.0441-.0109.6646.0394 1.2436.2043 1.7876.1682.5547.4371 1.0124.783 1.4583.718.9254 1.903 1.9816 3.8135 3.4082l1.1426.85c.9157.6835 2.1876.6857 3.1052.0059l1.9269-1.3873 2.3173 2.3173c.3905.3905 1.0237.3905 1.4142 0 .342-.342.3845-.87.1276-1.2582l-18.54181-18.54178c-.04856-.04856-.09108-.10088-.12757-.15601zm6.94289 3.70711c0-.55228.3977-1 .95-1h8.4c.5523 0 1 .44772 1 1s-.4477 1-1 1h-8.4c-.5449 0-.95-.47337-.95-1zm1.3755 7.4397c-.5852.4169-.9722 1.0954-1.026 1.8834-.0074.5386.0378.8838.1189 1.1512.079.2605.2088.5028.4493.8127.5431.7002 1.5442 1.6236 3.4299 3.0318l1.1425.85c.2087.1558.5111.1558.7198 0l.014-.0104 1.6689-1.2014zm-6.0255 3.5603c.55228 0 1 .4477 1 1s-.44772 1-1 1h-4c-.55228 0-1-.4477-1-1s.44772-1 1-1zm0-6c.55228 0 1 .4477 1 1s-.44772 1-1 1h-4c-.55228 0-1-.4477-1-1s.44772-1 1-1zm13.5735 1.98c-.2636.0004-.4751.0289-.6596.0897-.1424.047-.2184.0744-.284.1068-.4951.2447-1.0948.0417-1.3395-.4535-.2447-.4951-.0417-1.0948.4534-1.3395.2061-.1018.4053-.1675.5423-.2127l.0015-.0005c.448-.1477.8868-.1903 1.2913-.1903h.0106c1.2473.0132 2.3446.5788 3.1197 1.362.7674.7755 1.2908 1.8382 1.2908 2.9415 0 .6307-.0271 1.2621-.2588 1.9081-.1865.5198-.7591.79-1.279.6035-.5198-.1865-.79-.7591-.6035-1.2789.1082-.3017.1413-.6394.1413-1.2327 0-.4802-.2419-1.0592-.7124-1.5346-.4616-.4665-1.0728-.7606-1.7141-.7689z" fill="currentColor" fill-rule="evenodd"/></svg>
