<svg fill="none" height="28" viewBox="0 0 28 28" width="28" xmlns="http://www.w3.org/2000/svg"><g fill="currentColor"><path d="m4 6c-.55228 0-1 .44772-1 1s.44772 1 1 1h18c.5523 0 1-.44772 1-1s-.4477-1-1-1z"/><path d="m4 12c-.55228 0-1 .4477-1 1s.44772 1 1 1h18c.5523 0 1-.4477 1-1s-.4477-1-1-1z"/><path d="m3 19c0-.5523.44772-1 1-1h10c.5523 0 1 .4477 1 1s-.4477 1-1 1h-10c-.55228 0-1-.4477-1-1z"/><path d="m25.7071 16.2929c-.3905-.3905-1.0237-.3905-1.4142 0l-4.2929 4.2929v-2.5858c0-.5523-.4477-1-1-1s-1 .4477-1 1v5c0 .5523.4477 1 1 1h5c.5523 0 1-.4477 1-1s-.4477-1-1-1h-2.5858l4.2929-4.2929c.3905-.3905.3905-1.0237 0-1.4142z"/></g></svg>
