<svg fill="none" height="28" viewBox="0 0 28 28" width="28" xmlns="http://www.w3.org/2000/svg"><path d="m21.4605 11.9981c2.5004 0 4.5395 1.9894 4.5395 4.4589 0 2.3217-.913 3.4992-4.4259 6.1894l-1.4638 1.1118c-.8991.6823-2.1235.7202-3.0587.1137l-.1619-.1137-1.5094-1.1467-.5709-.4429c-3.0048-2.3609-3.8094-3.5321-3.8094-5.7116 0-2.4695 2.0391-4.4589 4.5395-4.4589.9294 0 1.7845.2922 2.5506.8489l.2067.1584.202.1723.2171-.1826c.6673-.5343 1.4062-.8617 2.2041-.9631l.2681-.0254zm.0624 1.9983-.2239.007-.1863.0203c-.3314.0512-.6452.177-.9371.3745l-.1724.1271-1.1897 1.0001c-.1871.1573-.4606.1563-.6465-.0025l-1.1259-.9613c-.4775-.3851-.9642-.5642-1.5016-.5642-1.4093 0-2.5395 1.1079-2.5395 2.4596 0 1.4075.4474 2.1109 3.0723 4.1618l.5181.4008 1.5086 1.1461c.2074.1574.4844.1771.7092.059l.0928-.059 1.692-1.2868c2.9313-2.2582 3.407-2.9716 3.407-4.4219 0-1.2976-1.0416-2.3706-2.3165-2.4552zm-13.5229 3.9997c.55228 0 1 .4476 1 .9997s-.44772.9997-1 .9997h-4c-.55228 0-1-.4476-1-.9997s.44772-.9997 1-.9997zm0-5.998c.55228 0 1 .4475 1 .9996 0 .5522-.44772.9997-1 .9997h-4c-.55228 0-1-.4475-1-.9997 0-.5521.44772-.9996 1-.9996zm14-5.9981c.5523 0 1 .44757 1 .99968 0 .5521-.4477.99968-1 .99968h-18c-.55228 0-1-.44758-1-.99968 0-.55211.44772-.99968 1-.99968z" fill="currentColor"/></svg>
