<?xml version="1.0" encoding="UTF-8"?>
<svg width="28px" height="28px" viewBox="0 0 28 28" version="1.1" xmlns="http://www.w3.org/2000/svg" xmlns:xlink="http://www.w3.org/1999/xlink">
    <!-- Generator: Sketch 63.1 (92452) - https://sketch.com -->
    <title>list_outline_28</title>
    <desc>Created with Sketch.</desc>
    <g id="Page-1" stroke="none" stroke-width="1" fill="none" fill-rule="evenodd">
        <g id="list_outline_28">
            <polygon points="0 0 28 0 28 28 0 28"></polygon>
            <path d="M4.5,14 C4.5,14.83 5.17,15.5 6,15.5 C6.83,15.5 7.5,14.83 7.5,14 C7.5,13.17 6.83,12.5 6,12.5 C5.17,12.5 4.5,13.17 4.5,14 Z M4.5,8 C4.5,8.83 5.17,9.5 6,9.5 C6.83,9.5 7.5,8.83 7.5,8 C7.5,7.17 6.83,6.5 6,6.5 C5.17,6.5 4.5,7.17 4.5,8 Z M4.5,20 C4.5,20.8233083 5.17669173,21.5 6,21.5 C6.82330827,21.5 7.5,20.8233083 7.5,20 C7.5,19.1766917 6.83458647,18.5 6,18.5 C5.16541353,18.5 4.5,19.1766917 4.5,20 Z M25,20 C25,19.4477153 24.5522847,19 24,19 L10,19 C9.44771525,19 9,19.4477153 9,20 C9,20.5522847 9.44771525,21 10,21 L24,21 C24.5522847,21 25,20.5522847 25,20 Z M25,14 C25,13.4477153 24.5522847,13 24,13 L10,13 C9.44771525,13 9,13.4477153 9,14 C9,14.5522847 9.44771525,15 10,15 L24,15 C24.5522847,15 25,14.5522847 25,14 Z M10,9 L24,9 C24.5522847,9 25,8.55228475 25,8 C25,7.44771525 24.5522847,7 24,7 L10,7 C9.44771525,7 9,7.44771525 9,8 C9,8.55228475 9.44771525,9 10,9 Z" id="↳-Icon-Color" fill="currentColor" fill-rule="nonzero"></path>
        </g>
    </g>
</svg>
