<?xml version="1.0" encoding="UTF-8"?>
<svg width="28px" height="28px" viewBox="0 0 28 28" version="1.1" xmlns="http://www.w3.org/2000/svg" xmlns:xlink="http://www.w3.org/1999/xlink">
    <!-- Generator: Sketch 63.1 (92452) - https://sketch.com -->
    <title>location_outline_28</title>
    <desc>Created with Sketch.</desc>
    <g id="Page-1" stroke="none" stroke-width="1" fill="none" fill-rule="evenodd">
        <g id="location_outline_28">
            <rect x="0" y="0" width="28" height="28"></rect>
            <path d="M12.3255827,16.0801715 L5.24166555,15.3422635 C4.28815772,15.2429398 3.47542032,14.6071062 3.14954748,13.7055247 C2.68021192,12.4070296 3.35237849,10.9739197 4.65087355,10.5045842 L19.3859856,5.17864006 C20.044969,4.94045331 20.7665396,4.94045331 21.4255229,5.17864006 C22.983717,5.74184274 23.7903169,7.46157458 23.2271142,9.01976865 L17.9011701,23.7548807 C17.5752972,24.6564623 16.7625598,25.2922958 15.809052,25.3916195 C14.4357706,25.5346697 13.2065409,24.5373702 13.0634908,23.1640887 L12.3255827,16.0801715 Z M5.24893379,12.4236176 C5.04396476,12.5427193 4.94701667,12.7948353 5.0304541,13.0256789 C5.09562867,13.2059952 5.25817615,13.3331619 5.44887772,13.3530267 L13.3397495,14.1749925 C13.8100588,14.223983 14.1817712,14.5956955 14.2307618,15.0660048 L15.0527276,22.9568766 C15.0813376,23.2315328 15.3271836,23.4309928 15.6018399,23.4023827 C15.7925414,23.382518 15.9550889,23.2553513 16.0202635,23.075035 L21.3462076,8.33992288 C21.5339418,7.82052486 21.2650752,7.24728091 20.7456772,7.05954669 C20.526016,6.9801511 20.2854925,6.9801511 20.0658314,7.05954669 L5.33071932,12.3854908 L5.24893379,12.4236176 Z" id="↳-Icon-Color" fill="currentColor" fill-rule="nonzero"></path>
        </g>
    </g>
</svg>
