<svg fill="none" height="28" viewBox="0 0 28 28" width="28" xmlns="http://www.w3.org/2000/svg"><g clip-rule="evenodd" fill="currentColor" fill-rule="evenodd"><path d="m14 2c-2.7614 0-5 2.23858-5 5v4c0 .0123.00022.0245.00066.0367-.10648.006-.20953.013-.30928.0211-.72885.0596-1.36904.1854-1.96133.4872-.94081.4793-1.70572 1.2442-2.18508 2.185-.30179.5923-.4276 1.2325-.48715 1.9614-.05784.7079-.05783 1.582-.05782 2.6658v.0428.2.0428c-.00001 1.0838-.00002 1.9579.05782 2.6658.05955.7289.18536 1.3691.48715 1.9614.47936.9408 1.24427 1.7057 2.18508 2.185.59229.3018 1.23248.4276 1.96133.4872.70788.0578 1.58202.0578 2.66582.0578h.0428 5.2.0428c1.0838 0 1.9579 0 2.6658-.0578.7289-.0596 1.3691-.1854 1.9614-.4872.9408-.4793 1.7057-1.2442 2.185-2.185.3018-.5923.4276-1.2325.4872-1.9614.0578-.7078.0578-1.5819.0578-2.6657v-.0001-.0428-.2-.0428-.0001c0-1.0838 0-1.9579-.0578-2.6657-.0596-.7289-.1854-1.3691-.4872-1.9614-.4793-.9408-1.2442-1.7057-2.185-2.185-.5923-.3018-1.2325-.4276-1.9614-.4872-.7079-.0578-1.582-.0578-2.6658-.0578h-.0428-5.2-.0428c-.1217 0-.2407 0-.3572.0001v-.0001-4c0-1.65685 1.3431-3 3-3s3 1.34315 3 3v1c0 .55228.4477 1 1 1s1-.44772 1-1v-1c0-2.76142-2.2386-5-5-5zm-6.36197 11.327c.26335-.1342.61104-.2264 1.21621-.2758.61684-.0504 1.40916-.0512 2.54576-.0512h5.2c1.1366 0 1.9289.0008 2.5458.0512.6051.0494.9528.1416 1.2162.2758.5645.2876 1.0234.7465 1.311 1.311.1342.2634.2264.6111.2758 1.2162.0504.6169.0512 1.4092.0512 2.5458v.2c0 1.1366-.0008 1.9289-.0512 2.5458-.0494.6051-.1416.9528-.2758 1.2162-.2876.5645-.7465 1.0234-1.311 1.311-.2634.1342-.6111.2264-1.2162.2758-.6169.0504-1.4092.0512-2.5458.0512h-5.2c-1.1366 0-1.92892-.0008-2.54576-.0512-.60517-.0494-.95286-.1416-1.21621-.2758-.56449-.2876-1.02343-.7465-1.31105-1.311-.13419-.2634-.22636-.6111-.2758-1.2162-.0504-.6169-.05118-1.4092-.05118-2.5458v-.2c0-1.1366.00078-1.9289.05118-2.5458.04944-.6051.14161-.9528.2758-1.2162.28762-.5645.74656-1.0234 1.31105-1.311z"/><path d="m14 2c-2.7614 0-5 2.23858-5 5v4c0 .0123.00022.0245.00066.0367-.10648.006-.20953.013-.30928.0211-.72885.0596-1.36904.1854-1.96133.4872-.94081.4793-1.70572 1.2442-2.18508 2.185-.30179.5923-.4276 1.2325-.48715 1.9614-.05784.7079-.05783 1.582-.05782 2.6658v.2856c-.00001 1.0838-.00002 1.9579.05782 2.6658.05955.7289.18536 1.3691.48715 1.9614.47936.9408 1.24427 1.7057 2.18508 2.185.59229.3018 1.23248.4276 1.96133.4872.70788.0578 1.58202.0578 2.66582.0578h5.2856c1.0838 0 1.9579 0 2.6658-.0578.7289-.0596 1.3691-.1854 1.9614-.4872.9408-.4793 1.7057-1.2442 2.185-2.185.3018-.5923.4276-1.2325.4872-1.9614.0578-.7078.0578-1.5819.0578-2.6657v-.2857c0-1.0838 0-1.958-.0578-2.6658-.0596-.7289-.1854-1.3691-.4872-1.9614-.4793-.9408-1.2442-1.7057-2.185-2.185-.5923-.3018-1.2325-.4276-1.9614-.4872-.7079-.0578-1.582-.0578-2.6658-.0578h-5.2856c-.1217 0-.2407 0-.3572.0001v-4.0001c0-1.65685 1.3431-3 3-3s3 1.34315 3 3v1c0 .55228.4477 1 1 1s1-.44772 1-1v-1c0-2.76142-2.2386-5-5-5zm-6.36197 11.327c.26335-.1342.61104-.2264 1.21621-.2758.61684-.0504 1.40916-.0512 2.54576-.0512h5.2c1.1366 0 1.9289.0008 2.5458.0512.6051.0494.9528.1416 1.2162.2758.5645.2876 1.0234.7465 1.311 1.311.1342.2634.2264.6111.2758 1.2162.0504.6169.0512 1.4092.0512 2.5458v.2c0 1.1366-.0008 1.9289-.0512 2.5458-.0494.6051-.1416.9528-.2758 1.2162-.2876.5645-.7465 1.0234-1.311 1.311-.2634.1342-.6111.2264-1.2162.2758-.6169.0504-1.4092.0512-2.5458.0512h-5.2c-1.1366 0-1.92892-.0008-2.54576-.0512-.60517-.0494-.95286-.1416-1.21621-.2758-.56449-.2876-1.02343-.7465-1.31105-1.311-.13419-.2634-.22636-.6111-.2758-1.2162-.0504-.6169-.05118-1.4092-.05118-2.5458v-.2c0-1.1366.00078-1.9289.05118-2.5458.04944-.6051.14161-.9528.2758-1.2162.28762-.5645.74656-1.0234 1.31105-1.311z"/></g></svg>
