<?xml version="1.0" encoding="UTF-8"?>
<svg width="28px" height="28px" viewBox="0 0 28 28" version="1.1" xmlns="http://www.w3.org/2000/svg" xmlns:xlink="http://www.w3.org/1999/xlink">
    <!-- Generator: Sketch 63.1 (92452) - https://sketch.com -->
    <title>logo_vk_outline_28</title>
    <desc>Created with Sketch.</desc>
    <g id="Page-1" stroke="none" stroke-width="1" fill="none" fill-rule="evenodd">
        <g id="logo_vk_outline_28">
            <rect x="0" y="0" width="28" height="28"></rect>
            <path d="M17.590287,3 C19.7732933,3 20.8230261,3.20271276 21.9137131,3.78601856 C22.9027964,4.31498609 23.6850139,5.09720359 24.2139814,6.08628688 C24.7972872,7.1769739 25,8.22670673 25,10.409713 L25,17.590287 C25,19.7732933 24.7972872,20.8230261 24.2139814,21.9137131 C23.6850139,22.9027964 22.9027964,23.6850139 21.9137131,24.2139814 C20.8230261,24.7972872 19.7732933,25 17.590287,25 L10.409713,25 C8.22670673,25 7.1769739,24.7972872 6.08628688,24.2139814 C5.09720359,23.6850139 4.31498609,22.9027964 3.78601856,21.9137131 C3.20271276,20.8230261 3,19.7732933 3,17.590287 L3,10.409713 C3,8.22670673 3.20271276,7.1769739 3.78601856,6.08628688 C4.31498609,5.09720359 5.09720359,4.31498609 6.08628688,3.78601856 C7.1769739,3.20271276 8.22670673,3 10.409713,3 L17.590287,3 Z M17.590287,5 L10.409713,5 C8.52863614,5 7.79081842,5.14247918 7.0294846,5.54964496 C6.38893826,5.89221289 5.89221289,6.38893826 5.54964496,7.0294846 C5.14247918,7.79081842 5,8.52863614 5,10.409713 L5,17.590287 C5,19.4713639 5.14247918,20.2091816 5.54964496,20.9705154 C5.89221289,21.6110617 6.38893826,22.1077871 7.0294846,22.450355 C7.79081842,22.8575208 8.52863614,23 10.409713,23 L17.590287,23 C19.4713639,23 20.2091816,22.8575208 20.9705154,22.450355 C21.6110617,22.1077871 22.1077871,21.6110617 22.450355,20.9705154 C22.8575208,20.2091816 23,19.4713639 23,17.590287 L23,10.409713 C23,8.52863614 22.8575208,7.79081842 22.450355,7.0294846 C22.1077871,6.38893826 21.6110617,5.89221289 20.9705154,5.54964496 C20.2091816,5.14247918 19.4713639,5 17.590287,5 Z M9.531387,10.575 C9.88088309,10.575 10.0123469,10.727964 10.14342,11.106641 C10.8122425,13.0549153 11.9399298,14.757563 12.403521,14.757563 C12.5599912,14.757563 12.6402237,14.6927237 12.6547056,14.3578889 L12.657112,14.235996 L12.657112,12.222197 C12.6063401,11.2949664 12.113785,11.2189521 12.113785,10.889328 C12.113785,10.7554996 12.2138365,10.6152135 12.3844163,10.5822331 L12.461754,10.575 L14.610691,10.575 C14.8682765,10.575 14.9766271,10.6974419 14.997525,10.9688601 L15.001383,11.077677 L15.001383,13.786875 C15.001383,14.0766104 15.1272122,14.17802 15.214128,14.17802 C15.3879837,14.17802 15.5328755,14.0766105 15.851599,13.757887 C16.8367574,12.6568248 17.532181,10.961749 17.532181,10.961749 C17.6094609,10.7814649 17.7447041,10.6161064 18.0180129,10.5815858 L18.127132,10.575 L19.494637,10.575 C19.9081851,10.575 19.9950767,10.7879174 19.908185,11.077677 C19.7477028,11.8131927 18.3157129,13.8695954 18.0963564,14.1816129 L18.068218,14.221502 C17.9233503,14.4532855 17.8653984,14.5692136 18.068218,14.829961 C18.2131098,15.0328289 18.6911944,15.4384686 19.009942,15.815144 C19.5973516,16.4759925 20.0400426,17.0334723 20.163369,17.417712 C20.2666763,17.7711125 20.1111309,17.9647177 19.7835387,17.994531 L19.689995,17.998598 L18.32249,17.998598 C17.8009469,17.998598 17.6480845,17.5826405 16.720878,16.655434 C15.9095512,15.8730952 15.5618396,15.771686 15.35902,15.771686 C15.111281,15.771686 15.0198049,15.834846 15.003987,16.1323097 L15.001406,16.240377 L15.001406,17.466737 C15.001406,17.8032402 14.8938716,17.998598 14.024617,17.998598 C12.5758433,17.998598 10.9837111,17.1190253 9.853685,15.49642 C8.15863378,13.1204398 7.695018,11.3239545 7.695018,10.961749 C7.695018,10.7792113 7.75831813,10.6119748 8.0558099,10.5803528 L8.163882,10.575 L9.531387,10.575 Z" id="↳-Icon-Color" fill="currentColor" fill-rule="nonzero"></path>
        </g>
    </g>
</svg>
