<svg width="28" height="28" viewBox="0 0 28 28" fill="none" xmlns="http://www.w3.org/2000/svg">
<path fill-rule="evenodd" clip-rule="evenodd" d="M4.54648 4.54648C3 6.09295 3 8.58197 3 13.56V14.44C3 19.418 3 21.907 4.54648 23.4535C6.09295 25 8.58197 25 13.56 25H14.44C19.418 25 21.907 25 23.4535 23.4535C25 21.907 25 19.418 25 14.44V13.56C25 8.58197 25 6.09295 23.4535 4.54648C21.907 3 19.418 3 14.44 3H13.56C8.58197 3 6.09295 3 4.54648 4.54648ZM6.70001 9.70001C6.81938 15.4466 9.68405 18.9 14.7065 18.9H14.9912V15.6123C16.8367 15.7965 18.2322 17.1503 18.7923 18.9H21.4C20.6838 16.2846 18.8015 14.8387 17.6262 14.2862C18.8015 13.6047 20.4542 11.9471 20.849 9.70001H18.4801C17.9659 11.5234 16.4419 13.1811 14.9912 13.3376V9.70001H12.6222V16.0728C11.1531 15.7044 9.29844 13.9178 9.21581 9.70001H6.70001Z" fill="currentColor"/>
</svg>
