<?xml version="1.0" encoding="UTF-8"?>
<svg width="28px" height="28px" viewBox="0 0 28 28" version="1.1" xmlns="http://www.w3.org/2000/svg" xmlns:xlink="http://www.w3.org/1999/xlink">
    <!-- Generator: Sketch 62 (91390) - https://sketch.com -->
    <title>logo_instagram_28</title>
    <desc>Created with Sketch.</desc>
    <g id="Page-1" stroke="none" stroke-width="1" fill="none" fill-rule="evenodd">
        <g id="logo_instagram_28">
            <rect x="0" y="0" width="28" height="28"></rect>
            <path d="M15.0960137,3.00079674 C17.1059528,3.00427072 17.5238489,3.02004655 18.5352859,3.06619549 C19.7061077,3.11959725 20.5057369,3.30556465 21.205418,3.57750759 C21.9287652,3.85857642 22.5422088,4.23470301 23.1537747,4.8462253 C23.765297,5.45779125 24.1414236,6.07123477 24.4225361,6.79458202 C24.6944353,7.49426307 24.8804027,8.29389232 24.9338045,9.46471407 C24.9799534,10.4761511 24.9957293,10.8940472 24.9992033,12.9040143 L24.9992033,15.0960137 C24.9957293,17.1059528 24.9799534,17.5238489 24.9338045,18.5352859 C24.8804027,19.7061077 24.6944353,20.5057369 24.4225361,21.205418 C24.1414236,21.9287652 23.765297,22.5422088 23.1537747,23.1537747 C22.5422088,23.765297 21.9287652,24.1414236 21.205418,24.4225361 C20.5057369,24.6944353 19.7061077,24.8804027 18.5352859,24.9338045 C17.5238489,24.9799534 17.1059528,24.9957293 15.0960137,24.9992033 L12.9040143,24.9992033 C10.8940472,24.9957293 10.4761511,24.9799534 9.46471407,24.9338045 C8.29389232,24.8804027 7.49426307,24.6944353 6.79458202,24.4225361 C6.07123477,24.1414236 5.45779125,23.765297 4.8462253,23.1537747 C4.23470301,22.5422088 3.85857642,21.9287652 3.57750759,21.205418 C3.30556465,20.5057369 3.11959725,19.7061077 3.06619549,18.5352859 C3.02004655,17.5238489 3.00427072,17.1059528 3.00079674,15.0960137 L3.00079674,12.9040143 C3.00427072,10.8940472 3.02004655,10.4761511 3.06619549,9.46471407 C3.11959725,8.29389232 3.30556465,7.49426307 3.57750759,6.79458202 C3.85857642,6.07123477 4.23470301,5.45779125 4.8462253,4.8462253 C5.45779125,4.23470301 6.07123477,3.85857642 6.79458202,3.57750759 C7.49426307,3.30556465 8.29389232,3.11959725 9.46471407,3.06619549 C10.4761511,3.02004655 10.8940472,3.00427072 12.9040143,3.00079674 Z M14.5718685,4.98214856 L13.4281668,4.98214856 C11.0110301,4.98372461 10.6349682,4.99684999 9.55505606,5.04612169 C8.48256692,5.09502601 7.90012524,5.2742254 7.51251486,5.42486816 C6.9990632,5.62441524 6.63263014,5.86278012 6.24772696,6.24772696 C5.86278012,6.63263014 5.62441524,6.9990632 5.42486816,7.51251486 C5.2742254,7.90012524 5.09502601,8.48256692 5.04612169,9.55505606 C4.99684999,10.6349682 4.98372461,11.0110301 4.98214856,13.4281668 L4.98214856,14.5718685 C4.98372461,16.9889699 4.99684999,17.3650318 5.04612169,18.4449439 C5.09502601,19.5174331 5.2742254,20.0998748 5.42486816,20.4874851 C5.62441524,21.0009368 5.86282379,21.3673699 6.24772696,21.752273 C6.63263014,22.1372199 6.9990632,22.3755848 7.51251486,22.5751318 C7.90012524,22.7257746 8.48256692,22.904974 9.55505606,22.9538783 C10.5548618,22.9995003 10.9512618,23.0141326 12.923434,23.0173011 L15.0765961,23.0173011 C17.0487486,23.0141326 17.4451759,22.9995003 18.4449439,22.9538783 C19.5174331,22.904974 20.0998748,22.7257746 20.4874851,22.5751318 C21.0009368,22.3755848 21.3673699,22.1372199 21.752273,21.752273 C22.1372199,21.3673699 22.3755848,21.0009368 22.5751318,20.4874851 C22.7257746,20.0998748 22.904974,19.5174331 22.9538783,18.4449439 C22.9995003,17.4450253 23.0141326,17.0485448 23.0173011,15.0765204 L23.0173011,12.9235076 C23.0141326,10.9514552 22.9995003,10.5549747 22.9538783,9.55505606 C22.904974,8.48256692 22.7257746,7.90012524 22.5751318,7.51251486 C22.3755848,6.9990632 22.1372199,6.63263014 21.752273,6.24772696 C21.3673699,5.86278012 21.0009368,5.62441524 20.4874851,5.42486816 C20.0998748,5.2742254 19.5174331,5.09502601 18.4449439,5.04612169 C17.3650318,4.99684999 16.9889699,4.98372461 14.5718685,4.98214856 Z M13.9965516,8.35660714 C17.1152262,8.35660714 19.6433929,10.8847738 19.6433929,14.0034921 C19.6433929,17.1221667 17.1152262,19.6503333 13.9965516,19.6503333 C10.8778333,19.6503333 8.34966667,17.1221667 8.34966667,14.0034921 C8.34966667,10.8847738 10.8778333,8.35660714 13.9965516,8.35660714 Z M13.9965516,10.3379603 C11.9721151,10.3379603 10.3310198,11.9790556 10.3310198,14.0034921 C10.3310198,16.0278849 11.9721151,17.6689802 13.9965516,17.6689802 C16.0209444,17.6689802 17.6620397,16.0278849 17.6620397,14.0034921 C17.6620397,11.9790556 16.0209444,10.3379603 13.9965516,10.3379603 Z M19.8664921,6.81390079 C20.5952857,6.81390079 21.1860992,7.40471429 21.1860992,8.13350794 C21.1860992,8.86230159 20.5952857,9.45307143 19.8664921,9.45307143 C19.1377421,9.45307143 18.5469286,8.86230159 18.5469286,8.13350794 C18.5469286,7.40471429 19.1377421,6.81390079 19.8664921,6.81390079 Z" id="↳-Icon-Color" fill="currentColor" fill-rule="nonzero"></path>
        </g>
    </g>
</svg>
