<svg xmlns="http://www.w3.org/2000/svg" width="28" height="28" fill="currentColor" viewBox="0 0 28 28"><path fill-rule="evenodd" d="M6.068 3.805C7.159 3.221 8.193 3 10.648 3h6.617c2.44 0 3.556.208 4.655.796a5.465 5.465 0 0 1 2.268 2.268C24.772 7.156 25 8.247 25 10.7v6.616c0 2.448-.215 3.521-.8 4.617a5.466 5.466 0 0 1-2.27 2.267c-1.098.587-2.225.799-4.666.799h-6.617c-2.458 0-3.501-.228-4.591-.811a5.465 5.465 0 0 1-2.268-2.268C3.201 20.822 3 19.753 3 17.313v-6.617c0-2.447.214-3.527.8-4.623a5.466 5.466 0 0 1 2.268-2.268Zm2.031 1.368-.023.208a18.77 18.77 0 0 0-.077 1.442c0 2.672.843 5.13 2.231 7.224.228.343.327.784.235 1.223-.244 1.161-.665 2.396-1.212 3.643 1.028-.222 1.627-.48 2.684-.95l.494-.218c.624-.335 1.236-.32 1.76 0 1.962 1.2 4.382 1.755 6.957 1.755.598 0 1.185-.04 1.76-.116.06-.504.092-1.157.092-2.068V10.7c0-2.33-.22-3.03-.576-3.693a3.466 3.466 0 0 0-1.447-1.448C20.32 5.208 19.607 5 17.265 5h-6.61c-1.248 0-2.013.061-2.556.173Zm5.194 2.338c.537-.063 1.027.376 1.285.892l.289.578a1.416 1.416 0 0 1-.547 1.853c-.102.06-.211.217-.144.317.417.626.878 1.17 1.43 1.722.55.552 1.188 1.033 1.813 1.45.1.067.337-.068.398-.17.377-.642 1.137-.808 1.802-.476l.578.29c.515.258.854.807.791 1.344-.034.289-.104.473-.323.692-.554.554-1.528.643-2.663.298-1.132-.344-2.45-1.11-3.581-2.243-1.131-1.132-1.877-2.357-2.221-3.49-.345-1.137-.256-2.112.298-2.666.219-.22.507-.357.795-.391Zm7.855 13.994c.328 0 .654-.01.978-.031-.303.398-.684.72-1.138.963-.657.352-1.382.563-3.723.563h-6.617c-2.324 0-2.982-.219-3.648-.575a3.466 3.466 0 0 1-1.447-1.447C5.2 20.32 5 19.654 5 17.312v-6.616c0-2.336.21-3.02.563-3.68a3.59 3.59 0 0 1 .436-.64 15.43 15.43 0 0 0-.007.447c0 3.047.946 5.836 2.476 8.195-.254 1.131-.705 2.39-1.316 3.682-.498 1.053.261 2.405 1.563 2.3 1.677-.134 3.105-.782 4.293-1.32l.002-.002.288-.13c2.315 1.368 5.066 1.957 7.85 1.957Z" clip-rule="evenodd"/></svg>
