<svg height="28" viewBox="0 0 28 28" width="28" xmlns="http://www.w3.org/2000/svg"><path fill="currentColor" d="m15.458051 7.7521978-1.5305138 3.7907692h3.5323532c2.8668518 0 5.0398741.399703 6.5191321 1.1991209 1.4792581.7994179 1.9247496 1.9276118 1.3364879 3.3846154-.5882616 1.4570036-1.9435492 2.5948677-4.0659033 3.4136264-2.1223542.8187586-4.6169197 1.2281318-7.4837714 1.2281318h-10.71992416c-.22525263 0-.39896297-.0515745-.52113623-.1547252s-.15462719-.2256404-.09736278-.3674726l3.74038837-9.2641758h-2.85659869c-.22525264 0-.39896298-.0515746-.52113624-.1547253-.12217325-.1031507-.15462719-.2256403-.09736278-.3674725l1.09322416-2.7076923c.05726441-.14183221.18862811-.26432183.39409506-.36747253.20546694-.10315069.4208235-.15472527.64607613-.15472527h10.01345346c.2252527 0 .398963.05157458.5211362.15472527.1221733.1031507.1546272.22564032.0973628.36747253zm-3.20069 7.9393407-.6832651 1.6923077h3.4622185c.6422698 0 1.1656326-.0783468 1.570104-.2350428.4044715-.1566959.6615335-.3708438.7711939-.6424501.2193208-.5432126-.3333513-.8148148-1.6580328-.8148148z"/></svg>
