<svg width="28" height="28" viewBox="0 0 28 28" fill="none" xmlns="http://www.w3.org/2000/svg">
<path d="m12.6405 8.29377c.3515-.35059.8363-.5682 1.3696-.5682.5454 0 1.0181.21761 1.3696.5682.3514.3506.5696.83417.5696 1.36611 0 .54402-.2182 1.01552-.5696 1.36612-.3515.3506-.8363.5682-1.3696.5682-.5454 0-1.0181-.2176-1.3696-.5682-.3514-.3506-.5696-.8342-.5696-1.36612 0-.53194.2303-1.01551.5696-1.36611z" fill="currentColor"/>
<path fill-rule="evenodd" clip-rule="evenodd" d="m3.67554 3.67638c-1.67554 1.68844-1.67554 4.41407-1.67554 9.84122v.9648c0 5.4392 0 8.1528 1.68759 9.8412 1.6876 1.6764 4.41185 1.6764 9.83621 1.6764h.9644c5.4244 0 8.1607 0 9.8363-1.6764 1.6755-1.6884 1.6755-4.4141 1.6755-9.8412v-.9648c0-5.42715 0-8.16484-1.6755-9.84122-1.6876-1.67638-4.4119-1.67638-9.8363-1.67638h-.9643c-5.43651 0-8.14871 0-9.84836 1.67638zm10.32246 10.23902c1.1756 0 2.2422-.4836 3.0057-1.2452.7636-.7617 1.2484-1.8256 1.2484-2.99823 0-1.17268-.4848-2.23655-1.2484-2.99818-.7635-.76164-1.8301-1.24522-3.0057-1.24522-1.1757 0-2.2422.48358-3.0058 1.24522-.7636.74954-1.24836 1.81341-1.24836 2.99818 0 1.18473.48476 2.23653 1.24836 2.99823.7636.7616 1.8423 1.2452 3.0058 1.2452zm5.7449 1.7167-1.2484-1.7046c-.0727-.0967-.2181-.1088-.303-.0242-1.1756 1.0034-2.63 1.6563-4.1935 1.6563s-3.0058-.6529-4.19355-1.6563c-.08484-.0725-.23028-.0604-.303.0242l-1.24836 1.7046c-.0606.0846-.04848.1934.02424.266 1.05444.8462 2.27857 1.4265 3.55117 1.7288l-2.64217 4.6423c-.07272.133.02424.3022.16968.3022h2.58159c.0848 0 .1575-.0483.1818-.1329l1.8422-4.1105 1.8423 4.1105c.0242.0725.0969.1329.1818.1329h2.5815c.1576 0 .2424-.1571.1697-.3022l-2.6421-4.6423c1.2726-.3023 2.4967-.8584 3.5511-1.7288.1576-.0726.1697-.1814.097-.266z" fill="currentColor"/>
</svg>