<svg xmlns="http://www.w3.org/2000/svg" width="28" height="28" fill="currentColor" viewBox="0 0 28 28"><path fill-rule="evenodd" d="M10.692 3c-2.448 0-3.527.216-4.623.801A5.466 5.466 0 0 0 3.801 6.07C3.216 7.165 3 8.244 3 10.692v6.616c0 2.448.216 3.527.801 4.622A5.465 5.465 0 0 0 6.07 24.2c1.096.585 2.175.801 4.623.801h6.616c2.448 0 3.527-.216 4.622-.801a5.465 5.465 0 0 0 2.269-2.27c.585-1.095.801-2.174.801-4.622v-6.616c0-2.448-.216-3.527-.801-4.623a5.465 5.465 0 0 0-2.269-2.268C20.835 3.216 19.756 3 17.308 3h-6.616Zm-3.68 2.565C7.674 5.212 8.358 5 10.693 5h6.616c2.335 0 3.019.212 3.68.565a3.466 3.466 0 0 1 1.447 1.448c.353.66.565 1.344.565 3.679v.172L20.5 12.816C20.454 10.688 18.697 9 16.578 9c-.98 0-1.845.334-2.583.937-.74-.6-1.6-.937-2.573-.937-2.119 0-3.876 1.688-3.921 3.816L5 10.864v-.172c0-2.335.212-3.019.565-3.68a3.466 3.466 0 0 1 1.448-1.447ZM5 13.401v3.907c0 2.335.212 3.019.565 3.68a3.466 3.466 0 0 0 1.448 1.447c.66.353 1.344.565 3.679.565h6.616c2.335 0 3.019-.212 3.68-.565a3.467 3.467 0 0 0 1.447-1.448c.353-.66.565-1.344.565-3.679v-3.907l-6.607 5.158-.003.002-1.429 1.11a1.569 1.569 0 0 1-1.923 0l-1.428-1.11-.003-.001L5 13.4Zm9 4.484-1.16-.901-.002-.001c-1.424-1.115-2.256-1.811-2.751-2.423-.435-.538-.587-.985-.587-1.66 0-1.043.86-1.9 1.922-1.9.62 0 1.214.267 1.805.987a1 1 0 0 0 1.552-.008c.57-.71 1.16-.979 1.799-.979 1.062 0 1.922.857 1.922 1.9 0 .675-.153 1.122-.587 1.66-.495.612-1.328 1.309-2.751 2.423l-.001.001-1.161.901Z" clip-rule="evenodd"/></svg>
