<?xml version="1.0" encoding="UTF-8"?>
<svg width="28px" height="28px" viewBox="0 0 28 28" version="1.1" xmlns="http://www.w3.org/2000/svg" xmlns:xlink="http://www.w3.org/1999/xlink">
    <!-- Generator: Sketch 62 (91390) - https://sketch.com -->
    <title>logo_skype_28</title>
    <desc>Created with Sketch.</desc>
    <g id="Page-1" stroke="none" stroke-width="1" fill="none" fill-rule="evenodd">
        <g id="logo_skype_28">
            <rect x="0" y="0" width="28" height="28"></rect>
            <path d="M8.85593333,2.33356667 C9.92343333,2.33356667 10.9775167,2.60015 11.9149333,3.10006667 L11.9141,3.09956667 C12.46665,2.9939 13.0254367,2.93071333 13.58609,2.90963867 L14.0067667,2.90173333 C15.4936833,2.90173333 16.93685,3.1934 18.29485,3.76915 C19.6061833,4.32565 20.7851,5.1219 21.7966,6.13631667 C22.8092667,7.15015 23.6031833,8.3314 24.1579333,9.64681667 C24.7331,11.0083167 25.0241833,12.4549833 25.0241833,13.9459833 C25.0241833,14.6179833 24.9611833,15.2905667 24.8410167,15.9474 C25.3800167,16.9169 25.6664333,18.0135667 25.6664333,19.1289 C25.6664333,20.8754 24.9886,22.5174833 23.7560167,23.7518167 C22.5246,24.9873167 20.8871833,25.6669 19.1447667,25.6669 C18.0166,25.6669 16.9117667,25.3723167 15.93585,24.8193167 C15.3029333,24.9319 14.6536833,24.9908167 14.0067667,24.9908167 C12.5192667,24.9908167 11.0755167,24.69915 9.71751667,24.12165 C8.40501667,23.5669 7.22726667,22.7694833 6.2146,21.75565 C5.2031,20.7412333 4.4086,19.5605667 3.85443333,18.24515 C3.27926667,16.8830667 2.98818333,15.4369833 2.98818333,13.9459833 C2.98818333,13.3072333 3.04535,12.6679 3.15385,12.0419833 C2.61835,11.0765667 2.3331,9.98398333 2.3331,8.87215 C2.3331,7.12565 3.0121,5.48356667 4.24351667,4.24865 C5.47551667,3.01315 7.11351667,2.33356667 8.85593333,2.33356667 Z M13.8236,6.72956667 C11.2079333,6.72956667 8.42193333,7.84256667 8.42193333,10.8082333 C8.42193333,12.2368167 8.93118333,13.7564 11.7346833,14.4610667 L11.7346833,14.4610667 L15.2166,15.3319833 C16.2701,15.5927333 16.5337667,16.1865667 16.5337667,16.72265 C16.5337667,17.6139833 15.6500167,18.4849 14.0505167,18.4849 C10.9250167,18.4849 11.3590167,16.0734 9.68368333,16.0734 C8.93118333,16.0734 8.38518333,16.59315 8.38518333,17.3345667 C8.38518333,18.78065 10.1357667,20.7097333 14.0505167,20.7097333 C17.7751,20.7097333 19.6201833,18.91015 19.6201833,16.5004 C19.6201833,14.9440667 18.9044333,13.2920667 16.0816833,12.6620667 L16.0816833,12.6620667 L13.5045167,12.08865 C12.5251,11.86465 11.3957667,11.5689 11.3957667,10.6425667 C11.3957667,9.7139 12.1879333,9.06523333 13.6165167,9.06523333 C16.4964333,9.06523333 16.2327667,11.04915 17.6625167,11.04915 C18.4150167,11.04915 19.0736,10.6058167 19.0736,9.8434 C19.0736,8.06423333 16.2327667,6.72956667 13.8236,6.72956667 Z" id="↳-Icon-Color" fill="currentColor" fill-rule="nonzero"></path>
        </g>
    </g>
</svg>
