<svg xmlns="http://www.w3.org/2000/svg" width="28" height="28" fill="none" viewBox="0 0 28 28"><path fill="currentColor" fill-rule="evenodd" d="M10.0244 2.0023c.6061-.0418 1.1313.4156 1.173 1.0217l.4 5.8c.0417.606-.4157 1.1313-1.0218 1.173-.606.0418-1.1312-.4156-1.173-1.0217l-.4-5.8c-.0417-.606.4157-1.1312 1.0218-1.173Zm8.1739.4387c.5847.1646.9253.7722.7606 1.357l-1.8023 6.3999c-.1647.5847-.7722.9253-1.357.7606-.5847-.1647-.9253-.7722-.7606-1.357l1.8023-6.4c.1646-.5847.7722-.9252 1.357-.7606Zm1.0424 9.908c.3595-.4193.9908-.4679 1.4101-.1085 2.0876 1.7895 2.3493 4.1661 2.3493 5.7593 0 3.7112-3.1503 7.9999-9 7.9999-4.3567 0-9-3.1013-8.9999-7.9999 0-.9333.286-2.1576 1.0607-3.1734.807-1.0581 2.1007-1.8266 3.9393-1.8266a.9741.9741 0 0 1 .0707.0025 4.1036 4.1036 0 0 1 1.5723.3291c.7927.339 1.6414 1.0014 2.2512 2.2211.247.494.0468 1.0947-.4472 1.3417-.4939.2469-1.0946.0467-1.3416-.4472-.3902-.7803-.8749-1.1168-1.2488-1.2766-.3937-.1684-.7292-.1684-.8564-.1684a1.021 1.021 0 0 1-.0608-.0018c-1.1756.0156-1.8655.4847-2.2884 1.0392-.4625.6062-.651 1.3819-.651 1.9604 0 3.4396 3.3564 5.9999 6.9999 5.9999 4.7246 0 7-3.3726 7-5.9999 0-1.4068-.2385-3.0302-1.6509-4.2407-.4193-.3595-.4679-.9908-.1085-1.4101Z" clip-rule="evenodd"/></svg>
