<svg width="28" height="28" fill="none" xmlns="http://www.w3.org/2000/svg"><path d="M18.1 14.01c0 5.525-3.583 10.004-4.152 10.004S9.797 19.535 9.797 14.01c0-5.524 3.557-10.003 4.151-10.003.594 0 4.151 4.479 4.151 10.003z" stroke="currentColor" stroke-width="2"/><path d="M10.077 11.032C8.014 8.563 5.01 8.175 4.825 8.36c-.425.427-.003 3.926.82 5.575m11.794-2.903c2.063-2.469 5.066-2.857 5.252-2.671.425.427.003 3.926-.82 5.575" stroke="currentColor" stroke-width="2"/><path d="M10.209 14.944c-3.86-1.727-8.15-.916-8.463-.62-.366.347.556 3.913 5.15 6.764C9.379 22.538 13.529 24 13.96 24m3.843-9.054c3.856-1.73 8.141-.92 8.454-.623.364.346-.558 3.917-5.148 6.773-2.48 1.452-6.47 2.918-7.057 2.918" stroke="currentColor" stroke-width="2"/><path fill-rule="evenodd" clip-rule="evenodd" d="M13.3 3.194c.102-.059.34-.187.648-.187s.546.128.648.187c.13.076.251.17.355.26.211.182.438.424.668.703.464.563 1 1.353 1.51 2.31.387.726.764 1.561 1.084 2.48a9.154 9.154 0 012.21-1.186 7.568 7.568 0 011.517-.4c.204-.03.403-.046.579-.042.085.002.193.01.306.033h.003c.067.014.34.07.568.3.278.28.361.64.395.81.043.22.06.463.065.7.008.482-.036 1.066-.118 1.665a15.784 15.784 0 01-.417 2.045h.054c.848.013 1.587.093 2.148.193.28.05.528.108.73.17.101.03.205.067.302.11.072.031.24.108.389.25.208.198.293.43.33.571.041.153.052.3.053.424.001.247-.04.513-.107.778-.134.537-.4 1.194-.819 1.908-.843 1.436-2.337 3.16-4.767 4.671l-.01.007-.012.007c-1.301.762-2.97 1.513-4.375 2.07-.705.28-1.357.516-1.878.685-.26.083-.496.153-.694.203a2.66 2.66 0 01-.614.096v-.006a1.103 1.103 0 01-.486-.061 4.706 4.706 0 01-.188-.047c-.184-.05-.41-.118-.663-.201a36.946 36.946 0 01-1.879-.68c-1.42-.554-3.134-1.304-4.441-2.068l-.012-.006-.011-.007c-2.432-1.51-3.927-3.23-4.77-4.665-.42-.713-.686-1.369-.82-1.905a3.196 3.196 0 01-.106-.777c0-.123.012-.27.053-.424.037-.141.122-.372.33-.57.15-.142.318-.219.39-.25.097-.043.201-.08.302-.11.203-.062.452-.12.731-.17a13.047 13.047 0 011.72-.18 15.782 15.782 0 01-.422-2.06c-.082-.6-.127-1.184-.118-1.665.004-.238.022-.481.065-.702.033-.168.117-.53.394-.808.23-.23.502-.287.569-.3l.003-.001c.113-.024.22-.03.306-.033a3.59 3.59 0 01.579.042c.414.059.94.186 1.517.4a9.125 9.125 0 012.512 1.417c.335-1.01.743-1.925 1.161-2.711.51-.957 1.046-1.747 1.51-2.31.23-.28.458-.521.668-.703.104-.09.225-.184.356-.26zm-.767 4.213c-.91 1.71-1.736 4.049-1.736 6.603 0 2.553.83 4.892 1.744 6.603.456.853.921 1.53 1.291 1.98.04.05.08.095.116.137.037-.042.076-.088.116-.137.37-.45.836-1.127 1.291-1.98.914-1.711 1.744-4.05 1.744-6.603 0-2.554-.825-4.893-1.735-6.603a12.231 12.231 0 00-1.288-1.978 6.101 6.101 0 00-.128-.15l-.127.15a12.22 12.22 0 00-1.288 1.978zm4.325 14.619c1.265-.516 2.661-1.16 3.737-1.788 2.154-1.343 3.413-2.83 4.086-3.977a5.95 5.95 0 00.556-1.21 11.596 11.596 0 00-1.894-.174c-1.27-.02-2.815.135-4.327.663-.255 2.351-1.055 4.44-1.897 6.015a16.9 16.9 0 01-.26.471zm2.229-8.607a14.2 14.2 0 012.1-.426c.25-.677.456-1.58.573-2.44.06-.43.092-.822.1-1.139-.216.05-.468.124-.745.227a7.071 7.071 0 00-2.32 1.415c.153.755.257 1.546.292 2.363zm-8.31 8.136c.068.126.136.25.204.37-1.23-.5-2.557-1.105-3.57-1.695-2.155-1.34-3.414-2.824-4.088-3.97-.285-.485-.46-.9-.556-1.21l.067-.012c.451-.08 1.083-.15 1.829-.162 1.238-.019 2.738.127 4.213.621.25 2.369 1.055 4.473 1.901 6.058zM9.042 11.37a14.84 14.84 0 00-.23 2.016 14.503 14.503 0 00-2.502-.448c-.24-.671-.44-1.55-.554-2.386-.058-.43-.091-.822-.098-1.139a7.014 7.014 0 013.384 1.956zM5.036 9.323zm.651-.488a.091.091 0 01.007-.023l-.007.023zm16.142 0a.095.095 0 00-.006-.023.1.1 0 00.006.023z" fill="currentColor"/></svg>
