<svg xmlns="http://www.w3.org/2000/svg" width="28" height="28" fill="currentColor" viewBox="0 0 28 28"><path fill-rule="evenodd" d="M10.5 2a1 1 0 1 0 0 2 1 1 0 0 0 0-2Zm4.363 1.262a.383.383 0 0 0-.726 0l-.291.873a1.914 1.914 0 0 1-1.21 1.21l-.874.292a.383.383 0 0 0 0 .726l.873.291c.572.19 1.02.64 1.21 1.21l.292.874c.116.35.61.35.726 0l.291-.873c.19-.572.64-1.02 1.21-1.21l.874-.292a.383.383 0 0 0 0-.726l-.873-.291a1.914 1.914 0 0 1-1.21-1.21l-.292-.874ZM8.195 7.93a.95.95 0 0 0-.39-1.86c-1.35.283-2.473.676-3.283 1.186-.79.497-1.472 1.235-1.472 2.232 0 .8.445 1.44 1.018 1.908.497.407 1.155.74 1.923 1.013A62.617 62.617 0 0 1 6 13.5c0 3.838-.338 7.302-.97 9.76a.963.963 0 0 0-.03.24c0 1.38 3.28 2.5 9 2.5 5.72 0 9-1.12 9-2.5a.964.964 0 0 0-.03-.24c-.632-2.458-.97-5.922-.97-9.76a62.82 62.82 0 0 1 .01-1.09c.767-.273 1.425-.607 1.922-1.014.573-.467 1.018-1.108 1.018-1.908 0-.997-.682-1.735-1.472-2.232-.81-.51-1.933-.903-3.284-1.186a.95.95 0 0 0-.389 1.86c1.242.26 2.12.593 2.661.934.562.353.584.588.584.624 0 .033-.01.184-.32.437-.313.256-.843.535-1.636.788-1.577.504-3.969.837-7.094.837-3.125 0-5.517-.333-7.094-.837-.793-.253-1.323-.532-1.636-.788-.31-.253-.32-.404-.32-.437 0-.036.022-.27.584-.624.542-.34 1.42-.674 2.66-.934Zm11.907 4.996c-1.65.336-3.704.524-6.102.524s-4.453-.188-6.102-.524l.002.574c0 3.628-.293 7.015-.881 9.618.194.096.477.21.873.327 1.294.382 3.345.655 6.108.655 2.763 0 4.814-.273 6.108-.655a5.46 5.46 0 0 0 .873-.327c-.588-2.603-.881-5.99-.881-9.618 0-.192 0-.384.002-.574Z" clip-rule="evenodd"/></svg>
