<svg fill="none" height="28" viewBox="0 0 28 28" width="28" xmlns="http://www.w3.org/2000/svg"><g fill="currentColor"><path d="m10 12h2 2 2c.5523 0 1 .4477 1 1s-.4477 1-1 1h-2-2-2c-.55228 0-1-.4477-1-1s.44772-1 1-1z"/><path clip-rule="evenodd" d="m13 4c-4.97056 0-9 4.02944-9 9 0 4.9706 4.02944 9 9 9 2.125 0 4.078-.7365 5.6177-1.9681l4.6752 4.6752c.3905.3905 1.0237.3905 1.4142 0s.3905-1.0237 0-1.4142l-4.6752-4.6752c1.2316-1.5397 1.9681-3.4927 1.9681-5.6177 0-4.97056-4.0294-9-9-9zm0 2c-3.86599 0-7 3.13401-7 7 0 3.866 3.13401 7 7 7 3.866 0 7-3.134 7-7 0-3.86599-3.134-7-7-7z" fill-rule="evenodd"/></g></svg>
