<svg fill="none" height="28" viewBox="0 0 28 28" width="28" xmlns="http://www.w3.org/2000/svg"><g fill="currentColor"><path clip-rule="evenodd" d="m21.5 13c0-4.69442-3.8056-8.5-8.5-8.5-4.69442 0-8.5 3.80558-8.5 8.5 0 4.6944 3.80558 8.5 8.5 8.5 1.987 0 3.8147-.6818 5.2621-1.8242l4.5308 4.5313c.3905.3905 1.0237.3905 1.4142 0s.3905-1.0237 0-1.4142l-4.5313-4.5308c1.1424-1.4474 1.8242-3.2751 1.8242-5.2621zm-15 0c0-3.58985 2.91015-6.5 6.5-6.5 3.5899 0 6.5 2.91015 6.5 6.5 0 3.5899-2.9101 6.5-6.5 6.5-3.58985 0-6.5-2.9101-6.5-6.5z" fill-rule="evenodd"/><path d="m10 12h2 2 2c.5523 0 1 .4477 1 1s-.4477 1-1 1h-2-2-2c-.55228 0-1-.4477-1-1s.44772-1 1-1z"/></g></svg>
