<svg width="28" height="28" viewBox="0 0 28 28" fill="none" xmlns="http://www.w3.org/2000/svg">
<path d="M0 14C0 6.26801 6.26801 0 14 0C21.732 0 28 6.26801 28 14C28 21.732 21.732 28 14 28C6.26801 28 0 21.732 0 14Z" fill="url(#paint0_linear)"/>
<path d="M20 12.29V16.6284C20 17.4531 19.9141 17.7521 19.7529 18.0536C19.5917 18.3551 19.3551 18.5917 19.0536 18.7529C18.7521 18.9141 18.4531 19 17.6284 19H10.3716C9.54694 19 9.2479 18.9141 8.94642 18.7529C8.64494 18.5917 8.40833 18.3551 8.2471 18.0536C8.08586 17.7521 8 17.4531 8 16.6284V12.29L14 15.0769L20 12.29ZM17.6284 9C18.4531 9 18.7521 9.08586 19.0536 9.2471C19.3551 9.40833 19.5917 9.64494 19.7529 9.94642C19.8552 10.1376 19.9271 10.3279 19.9661 10.6519L14 13.4231L8.03407 10.6508C8.07304 10.3275 8.14494 10.1374 8.2471 9.94642C8.40833 9.64494 8.64494 9.40833 8.94642 9.2471C9.2479 9.08586 9.54694 9 10.3716 9H17.6284Z" fill="white"/>
<defs>
<linearGradient id="paint0_linear" x1="-14" y1="14" x2="14" y2="42" gradientUnits="userSpaceOnUse">
<stop stop-color="#70B2FF"/>
<stop offset="1" stop-color="#5C9CE6"/>
</linearGradient>
</defs>
</svg>
