<svg width="28" height="28" xmlns="http://www.w3.org/2000/svg"><g fill="none" fill-rule="evenodd"><path d="M0 0H28V28H0z"/><g><path opacity=".1" d="M0 0L28 0 28 28 0 28z"/><path d="M8.128 5h11.744c1.783 0 2.43.186 3.082.534.652.349 1.163.86 1.512 1.512.348.652.534 1.299.534 3.082v7.744c0 1.783-.186 2.43-.534 3.082a3.635 3.635 0 0 1-1.512 1.512c-.652.348-1.299.534-3.082.534H8.128c-1.783 0-2.43-.186-3.082-.534a3.635 3.635 0 0 1-1.512-1.512C3.186 20.302 3 19.655 3 17.872v-7.744c0-1.783.186-2.43.534-3.082a3.635 3.635 0 0 1 1.512-1.512C5.698 5.186 6.345 5 8.128 5z" stroke="currentColor" stroke-width="2" stroke-linecap="round" stroke-linejoin="round"/><path d="M22.324 6.263a1 1 0 0 1 1.439 1.384l-.087.09-7.649 6.761a3 3 0 0 1-3.908.126l-.146-.126-7.649-6.76a1 1 0 0 1 1.254-1.554l.098.079 7.648 6.761a1 1 0 0 0 1.252.08l.1-.08 7.648-6.761z" fill="currentColor" fill-rule="nonzero"/></g></g></svg>
