<svg xmlns="http://www.w3.org/2000/svg" width="28" height="28" fill="currentColor" viewBox="0 0 28 28"><path d="M18.99 3.267C18.665 3.093 18.34 3 17.447 3h-6.892c-.894 0-1.218.093-1.545.267a1.82 1.82 0 0 0-.758.756C8.12 4.27 8.034 4.513 8 5h12c-.034-.486-.12-.73-.251-.976a1.82 1.82 0 0 0-.758-.756Z"/><path fill-rule="evenodd" d="M19.177 7.002 9.127 7c-1.776 0-2.647.168-3.552.652a4.635 4.635 0 0 0-1.923 1.923c-.455.852-.631 1.674-.65 3.248L3 17.873c0 1.776.168 2.647.652 3.552a4.634 4.634 0 0 0 1.923 1.922c.905.485 1.776.653 3.553.653h9.744c1.777 0 2.648-.168 3.553-.652a4.634 4.634 0 0 0 1.922-1.923c.485-.905.653-1.776.653-3.553v-4.744c0-1.777-.168-2.648-.652-3.553a4.634 4.634 0 0 0-1.923-1.923c-.852-.455-1.674-.631-3.248-.65Zm-2.349 9.584 5.86-5.858c.229.515.312 1.104.312 2.4v4.744l-.005.484c-.023 1.123-.14 1.618-.411 2.126a2.634 2.634 0 0 1-1.102 1.102c-.576.308-1.135.416-2.61.416H9.128l-.484-.005c-1.123-.023-1.618-.14-2.126-.411a2.635 2.635 0 0 1-1.102-1.102C5.108 19.906 5 19.347 5 17.872v-4.744c0-1.296.083-1.885.313-2.4l5.859 5.858.159.15a4 4 0 0 0 5.497-.15ZM9.128 9h9.744c1.296 0 1.885.083 2.4.313l-5.858 5.859-.127.116a2 2 0 0 1-2.701-.116l-5.858-5.86C7.243 9.084 7.832 9 9.128 9Z" clip-rule="evenodd"/></svg>
