<?xml version="1.0" encoding="UTF-8"?>
<svg width="28px" height="28px" viewBox="0 0 28 28" version="1.1" xmlns="http://www.w3.org/2000/svg" xmlns:xlink="http://www.w3.org/1999/xlink">
    <!-- Generator: Sketch 63.1 (92452) - https://sketch.com -->
    <title>mail_outline_28</title>
    <desc>Created with Sketch.</desc>
    <g id="Page-1" stroke="none" stroke-width="1" fill="none" fill-rule="evenodd">
        <g id="mail_outline_28">
            <polygon opacity="0.100000001" points="0 0 28 0 28 28 0 28"></polygon>
            <path d="M8.1277704,4 L20.1765373,4.00177605 C21.7514149,4.02088113 22.5730691,4.19667937 23.4252903,4.65245221 C24.2514106,5.09426619 24.9057338,5.74858941 25.3475478,6.57470973 C25.8318064,7.48019467 26,8.35117244 26,10.1277704 L26,10.1277704 L26,17.8722296 C26,19.6488276 25.8318064,20.5198053 25.3475478,21.4252903 C24.9057338,22.2514106 24.2514106,22.9057338 23.4252903,23.3475478 C22.5198053,23.8318064 21.6488276,24 19.8722296,24 L19.8722296,24 L8.1277704,24 C6.35117244,24 5.48019467,23.8318064 4.57470973,23.3475478 C3.74858941,22.9057338 3.09426619,22.2514106 2.65245221,21.4252903 C2.16819357,20.5198053 2,19.6488276 2,17.8722296 L2,17.8722296 L2.00177605,9.82346266 C2.02088113,8.24858507 2.19667937,7.42693085 2.65245221,6.57470973 C3.09426619,5.74858941 3.74858941,5.09426619 4.57470973,4.65245221 C5.48019467,4.16819357 6.35117244,4 8.1277704,4 L8.1277704,4 Z M23.6871721,7.72801739 L16.8284271,14.5857864 C15.3183999,16.0958137 12.9014356,16.1461479 11.3309459,14.7367892 L11.1715729,14.5857864 L4.31282789,7.72801739 C4.08340658,8.2427923 4,8.83159681 4,10.1277704 L4,10.1277704 L4,17.8722296 C4,19.3468981 4.10795998,19.9059608 4.41607861,20.4820925 C4.67149299,20.9596759 5.04032407,21.328507 5.51790745,21.5839214 C6.02625898,21.8557908 6.52132145,21.9718273 7.64379868,21.9953671 L7.64379868,21.9953671 L8.1277704,22 L19.8722296,22 C21.3468981,22 21.9059608,21.89204 22.4820925,21.5839214 C22.9596759,21.328507 23.328507,20.9596759 23.5839214,20.4820925 C23.8557908,19.973741 23.9718273,19.4786786 23.9953671,18.3562013 L23.9953671,18.3562013 L24,17.8722296 L24,10.1277704 C24,8.83159681 23.9165934,8.2427923 23.6871721,7.72801739 Z M19.8722296,6 L8.1277704,6 C6.83159681,6 6.2427923,6.08340658 5.72801739,6.31282789 L12.5857864,13.1715729 C13.3257272,13.9115136 14.5012114,13.9504579 15.2869988,13.2884056 L15.4142136,13.1715729 L22.2719826,6.31282789 C21.7572077,6.08340658 21.1684032,6 19.8722296,6 L19.8722296,6 Z" id="↳-Icon-Color" fill="currentColor" fill-rule="nonzero"></path>
        </g>
    </g>
</svg>
