<svg width="28" height="28" viewBox="0 0 28 28" fill="none" xmlns="http://www.w3.org/2000/svg">
<path d="M21.1542 8C22.4915 8 22.9764 8.13924 23.4653 8.4007C23.9542 8.66216 24.3378 9.04584 24.5993 9.53473L24.6916 9.71955C24.8934 10.1582 25 10.6757 25 11.8458V18.9493L24.9947 19.5306C24.9559 21.5492 24.7048 22.3647 24.2654 23.1863C23.786 24.0826 23.0826 24.786 22.1863 25.2654C21.29 25.7447 20.401 26 17.9493 26H10.0507L9.46941 25.9947C7.45078 25.9559 6.63528 25.7048 5.81367 25.2654C4.91738 24.786 4.21396 24.0826 3.73461 23.1863C3.27524 22.3274 3.02166 21.4751 3.00133 19.2477L3 11.8458C3 10.5085 3.13924 10.0236 3.4007 9.53473C3.66216 9.04584 4.04584 8.66216 4.53473 8.4007L4.71955 8.30841C5.12684 8.12102 5.60218 8.01572 6.60487 8.00163L21.1542 8ZM21.1542 10H6.84583L6.4931 10.0028C5.86439 10.014 5.67186 10.0606 5.47793 10.1643C5.33758 10.2394 5.23939 10.3376 5.16433 10.4779C5.05197 10.688 5.00659 10.8965 5.00068 11.6596L5 18.9493C5 20.8826 5.12962 21.5539 5.49824 22.2431C5.79119 22.7909 6.20911 23.2088 6.75687 23.5018C7.44613 23.8704 8.11737 24 10.0507 24H17.9493C19.8826 24 20.5539 23.8704 21.2431 23.5018C21.7909 23.2088 22.2088 22.7909 22.5018 22.2431C22.8704 21.5539 23 20.8826 23 18.9493V11.8458C23 10.9285 22.9567 10.7042 22.8357 10.4779C22.7606 10.3376 22.6624 10.2394 22.5221 10.1643C22.3281 10.0606 22.1356 10.014 21.5069 10.0028L21.1542 10ZM19 12C19.5523 12 20 12.4477 20 13C20 13.5523 19.5523 14 19 14C18.4477 14 18 13.5523 18 13C18 12.4477 18.4477 12 19 12ZM9 12C9.55228 12 10 12.4477 10 13C10 13.5523 9.55228 14 9 14C8.44772 14 8 13.5523 8 13C8 12.4477 8.44772 12 9 12ZM14 2C17.3137 2 20 4.68629 20 8H18C18 5.79086 16.2091 4 14 4C11.7909 4 10 5.79086 10 8H8C8 4.68629 10.6863 2 14 2Z" fill="currentColor"/>
</svg>
