<svg xmlns="http://www.w3.org/2000/svg" width="28" height="28" fill="none" viewBox="0 0 28 28"><rect width="28" height="28" fill="url(#a)" rx="14"/><path fill="#fff" d="M14 6a4 4 0 0 1 4 4h1.398c.557 0 .759.058.962.167.204.109.364.269.473.473.109.203.167.405.167.962v5.232c0 1.448-.15 1.974-.434 2.503-.283.53-.699.946-1.229 1.229-.53.283-1.055.434-2.503.434h-5.668c-1.448 0-1.974-.15-2.503-.434a2.953 2.953 0 0 1-1.229-1.229C7.151 18.807 7 18.282 7 16.834v-5.232c0-.557.058-.759.167-.963.109-.203.269-.363.472-.472.204-.109.406-.167.963-.167H10a4 4 0 0 1 4-4Zm-3.229 5.5h-.043c-.163 0-.29.03-.396.087a.591.591 0 0 0-.245.245.817.817 0 0 0-.087.396v.043c0 .164.03.29.087.396.056.106.14.19.245.246a.817.817 0 0 0 .396.087h.043c.164 0 .29-.03.396-.087a.591.591 0 0 0 .246-.245.817.817 0 0 0 .087-.396v-.043c0-.164-.03-.29-.087-.396a.591.591 0 0 0-.245-.246.817.817 0 0 0-.396-.087Zm6.5 0h-.043c-.164 0-.29.03-.396.087a.591.591 0 0 0-.245.245.817.817 0 0 0-.087.396v.043c0 .164.03.29.087.396.056.106.14.19.245.246a.817.817 0 0 0 .396.087h.043a.81.81 0 0 0 .396-.087.591.591 0 0 0 .246-.245.817.817 0 0 0 .087-.396v-.043c0-.164-.03-.29-.087-.396a.591.591 0 0 0-.245-.246.817.817 0 0 0-.396-.087ZM14 7.5a2.5 2.5 0 0 0-2.5 2.5h5A2.5 2.5 0 0 0 14 7.5Z"/><defs><linearGradient id="a" x1="0" x2="28.733" y1="0" y2=".773" gradientUnits="userSpaceOnUse"><stop stop-color="#70B2FF"/><stop offset="1" stop-color="#5C9CE6"/></linearGradient></defs></svg>
