<svg height="28" viewBox="0 0 28 28" width="28" xmlns="http://www.w3.org/2000/svg"><g fill="none" fill-rule="evenodd"><path d="m0 0h28v28h-28z"/><path d="m21.8421053 15c2.296328 0 4.1578947 1.8614521 4.1578947 4.1577004 0 2.2427546-.8916073 3.3584521-4.4473231 6.1238386l-1.6464184 1.2804688c-.5330543.4145723-1.2794627.4145723-1.812517 0l-1.6464184-1.2804688c-3.5557158-2.7653865-4.4473231-3.881084-4.4473231-6.1238386 0-2.2962483 1.8615667-4.1577004 4.1578947-4.1577004.9865248 0 1.8947041.2791845 2.70492.8238376l.1371853.0961624.1371853-.0961624c.7365599-.4951392 1.5540813-.7708828 2.4378249-.816926zm-.6879331-7c1.3372781 0 1.8222075.13923842 2.3110964.40069906.4888888.26146063.8725717.6451435 1.1340323 1.13403238l.0922854.18482021c.2018093.43861895.3084137.95615785.3084137 2.12627615v.1541722c0 .5522847-.4477153 1-1 1s-1-.4477153-1-1v-.1541722c0-.9172955-.043324-1.1416456-.1643255-1.3678986-.075061-.140352-.1732517-.2385427-.3136037-.3136037-.1939311-.1037156-.3864642-.150362-1.0151714-.1615729l-.3527272-.0027526h-14.3083444l-.35272722.0027526c-.62870716.0112109-.82124023.0578573-1.01517142.1615729-.14035194.075061-.23854267.1732517-.31360371.3136037-.11235849.2100921-.15773999.4185434-.16364981 1.1816884l-.00067564 7.2896981c0 1.9333163.12962198 2.604554.49824133 3.2938123.29294491.5477593.71087135.9656858 1.2586307 1.2586307.68925826.3686193 1.36049597.4982413 3.29381227.4982413h.9493157c.5522847 0 1 .4477153 1 1s-.4477153 1-1 1h-.9493157l-.58127265-.0053001c-2.01862715-.038801-2.8341324-.2899157-3.65573733-.7293148-.8962963-.4793445-1.59971488-1.1827631-2.07905938-2.0790594-.45937182-.8589506-.71295339-1.7112344-.73328766-3.9385756l-.00132728-7.4019223c0-1.3372781.13923842-1.8222075.40069906-2.31109636.26146063-.48888888.6451435-.87257175 1.13403238-1.13403238l.18482021-.09228534c.40728905-.18739436.88262634-.29269878 1.88531591-.30678617zm.6879331 9c-.803187 0-1.4983466.3008463-2.1352234.9373182l-.3532161.3529915c-.1954613.1948872-.5118703.1948872-.7073316 0l-.3532161-.3529915c-.6368768-.6364719-1.3320364-.9373182-2.1352234-.9373182-1.1917861 0-2.1578947.9660491-2.1578947 2.1577004 0 1.4102008.5840695 2.1410662 3.6751572 4.5450976l1.3248428 1.030202 1.8446958-1.4375532c2.5554925-2.0198583 3.1208973-2.7638282 3.1537395-4.0150201l.0015647-.1227263c0-1.1916513-.9661086-2.1577004-2.1578947-2.1577004zm-12.8421053-5c.55228475 0 1 .4477153 1 1s-.44771525 1-1 1-1-.4477153-1-1 .44771525-1 1-1zm5-10c3.3137085 0 6 2.6862915 6 6h-2c0-2.209139-1.790861-4-4-4s-4 1.790861-4 4h-2c0-3.3137085 2.6862915-6 6-6z" fill="currentColor" fill-rule="nonzero"/></g></svg>
