<?xml version="1.0" encoding="UTF-8"?>
<svg width="28px" height="28px" viewBox="0 0 28 28" version="1.1" xmlns="http://www.w3.org/2000/svg" xmlns:xlink="http://www.w3.org/1999/xlink">
    <!-- Generator: Sketch 63.1 (92452) - https://sketch.com -->
    <title>market_outline_28</title>
    <desc>Created with Sketch.</desc>
    <g id="Page-1" stroke="none" stroke-width="1" fill="none" fill-rule="evenodd">
        <g id="market_outline_28" fill-rule="nonzero">
            <rect x="0" y="0" width="28" height="28"></rect>
            <path d="M21.1541722,8 C22.4914503,8 22.9763797,8.13923842 23.4652686,8.40069906 C23.9541574,8.66215969 24.3378403,9.04584256 24.5993009,9.53473144 L24.6915863,9.71955165 C24.8933956,10.1581706 25,10.6757095 25,11.8458278 L25,18.9493157 L24.9946999,19.5305884 C24.9558989,21.5492155 24.7047842,22.3647207 24.2653851,23.1863257 C23.7860406,24.082622 23.082622,24.7860406 22.1863257,25.2653851 C21.2900294,25.7447296 20.4009922,26 17.9493157,26 L10.0506843,26 L9.46941165,25.9946999 C7.4507845,25.9558989 6.63527925,25.7047842 5.81367432,25.2653851 C4.91737802,24.7860406 4.21395944,24.082622 3.73461494,23.1863257 C3.27524312,22.3273751 3.02166155,21.4750913 3.00132728,19.2477501 L3,11.8458278 C3,10.5085497 3.13923842,10.0236203 3.40069906,9.53473144 C3.66215969,9.04584256 4.04584256,8.66215969 4.53473144,8.40069906 L4.71955165,8.30841372 C5.1268407,8.12101936 5.60217799,8.01571494 6.60486756,8.00162755 L21.1541722,8 Z M21.1541722,10 L6.8458278,10 L6.49310058,10.0027526 C5.86439342,10.0139635 5.67186035,10.0606099 5.47792916,10.1643255 C5.33757722,10.2393865 5.23938649,10.3375772 5.16432545,10.4779292 C5.05196696,10.6880213 5.00658546,10.8964726 5.00067564,11.6596176 L5,18.9493157 C5,20.882632 5.12962198,21.5538697 5.49824133,22.243128 C5.79118624,22.7908873 6.20911268,23.2088138 6.75687203,23.5017587 C7.44613029,23.870378 8.117368,24 10.0506843,24 L17.9493157,24 C19.882632,24 20.5538697,23.870378 21.243128,23.5017587 C21.7908873,23.2088138 22.2088138,22.7908873 22.5017587,22.243128 C22.870378,21.5538697 23,20.882632 23,18.9493157 L23,11.8458278 C23,10.9285323 22.956676,10.7041822 22.8356745,10.4779292 C22.7606135,10.3375772 22.6624228,10.2393865 22.5220708,10.1643255 C22.3281397,10.0606099 22.1356066,10.0139635 21.5068994,10.0027526 L21.1541722,10 Z M19,12 C19.5522847,12 20,12.4477153 20,13 C20,13.5522847 19.5522847,14 19,14 C18.4477153,14 18,13.5522847 18,13 C18,12.4477153 18.4477153,12 19,12 Z M9,12 C9.55228475,12 10,12.4477153 10,13 C10,13.5522847 9.55228475,14 9,14 C8.44771525,14 8,13.5522847 8,13 C8,12.4477153 8.44771525,12 9,12 Z M14,2 C17.3137085,2 20,4.6862915 20,8 L18,8 C18,5.790861 16.209139,4 14,4 C11.790861,4 10,5.790861 10,8 L8,8 C8,4.6862915 10.6862915,2 14,2 Z" id="↳-Icon-Color" fill="currentColor"></path>
        </g>
    </g>
</svg>
