<?xml version="1.0" encoding="UTF-8"?>
<svg width="28px" height="28px" viewBox="0 0 28 28" version="1.1" xmlns="http://www.w3.org/2000/svg" xmlns:xlink="http://www.w3.org/1999/xlink">
    <!-- Generator: Sketch 57.1 (83088) - https://sketch.com -->
    <title>market_outline_28</title>
    <desc>Created with Sketch.</desc>
    <g id="Page-1" stroke="none" stroke-width="1" fill="none" fill-rule="evenodd">
        <g id="market_outline_28">
            <polygon id="Bounds" points="0 0 28 0 28 28 0 28"></polygon>
            <path d="M14,2 C16.9828258,2 19.4572774,4.17660845 19.9216983,7.02816873 C20.9484931,7.09248023 21.4495131,7.26462789 21.9536914,7.53426541 C22.6055433,7.88287959 23.1171204,8.39445674 23.4657346,9.04630859 C23.8143488,9.69816044 24,10.3447329 24,12.1277704 L24,19.8722296 C24,21.6552671 23.8143488,22.3018396 23.4657346,22.9536914 C23.1171204,23.6055433 22.6055433,24.1171204 21.9536914,24.4657346 C21.3018396,24.8143488 20.6552671,25 18.8722296,25 L9.1277704,25 C7.34473292,25 6.69816044,24.8143488 6.04630859,24.4657346 C5.39445674,24.1171204 4.88287959,23.6055433 4.53426541,22.9536914 C4.18565122,22.3018396 4,21.6552671 4,19.8722296 L4,12.1277704 C4,10.3447329 4.18565122,9.69816044 4.53426541,9.04630859 C4.88287959,8.39445674 5.39445674,7.88287959 6.04630859,7.53426541 C6.55048691,7.26462789 7.05150693,7.09248023 8.07766144,7.02832044 C8.54272258,4.17660845 11.0171742,2 14,2 Z M19.4361148,9 L8.5638852,9 C7.67236646,9 7.34908022,9.09282561 7.0231543,9.2671327 C6.69722837,9.4414398 6.4414398,9.69722837 6.2671327,10.0231543 C6.10623385,10.324009 6.014763,10.6226145 6.00164263,11.3679772 L6,11.5638852 L6,20.4361148 C6,21.3276335 6.09282561,21.6509198 6.2671327,21.9768457 C6.4414398,22.3027716 6.69722837,22.5585602 7.0231543,22.7328673 C7.324009,22.8937662 7.6226145,22.985237 8.36797723,22.9983574 L8.5638852,23 L19.4361148,23 C20.3276335,23 20.6509198,22.9071744 20.9768457,22.7328673 C21.3027716,22.5585602 21.5585602,22.3027716 21.7328673,21.9768457 C21.8937662,21.675991 21.985237,21.3773855 21.9983574,20.6320228 L22,20.4361148 L22,11.5638852 C22,10.6723665 21.9071744,10.3490802 21.7328673,10.0231543 C21.5585602,9.69722837 21.3027716,9.4414398 20.9768457,9.2671327 C20.6509198,9.09282561 20.3276335,9 19.4361148,9 Z M14,4 C12.1360729,4 10.5699129,5.27489272 10.1259548,7.00024347 L17.8740452,7.00024347 C17.4300871,5.27489272 15.8639271,4 14,4 Z" id="↳-Icon-Color" fill="currentColor" fill-rule="nonzero"></path>
        </g>
    </g>
</svg>
