<?xml version="1.0" encoding="UTF-8"?>
<svg width="28px" height="28px" viewBox="0 0 28 28" version="1.1" xmlns="http://www.w3.org/2000/svg" xmlns:xlink="http://www.w3.org/1999/xlink">
    <!-- Generator: Sketch 58 (84663) - https://sketch.com -->
    <g id="Icons-28/market_outline_28" stroke="none" stroke-width="1" fill="none" fill-rule="evenodd">
        <g id="market_outline_28" fill-rule="nonzero">
            <rect x="0" y="0" width="28" height="28"></rect>
            <path d="M14,2 C17.3137085,2 20,4.6862915 20,8 L20.1541722,8 C21.4914503,8 21.9763797,8.13923842 22.4652686,8.40069906 C22.9541574,8.66215969 23.3378403,9.04584256 23.5993009,9.53473144 C23.8607616,10.0236203 24,10.5085497 24,11.8458278 L24,18.0030633 C24,20.3902427 23.7447296,21.2900294 23.2653851,22.1863257 C22.7860406,23.082622 22.082622,23.7860406 21.1863257,24.2653851 C20.2900294,24.7447296 19.3902427,25 17.0030633,25 L10.9969367,25 C8.60975728,25 7.70997061,24.7447296 6.81367432,24.2653851 C5.91737802,23.7860406 5.21395944,23.082622 4.73461494,22.1863257 C4.25527043,21.2900294 4,20.3902427 4,18.0030633 L4,11.8458278 C4,10.5085497 4.13923842,10.0236203 4.40069906,9.53473144 C4.66215969,9.04584256 5.04584256,8.66215969 5.53473144,8.40069906 C6.02362033,8.13923842 6.50854969,8 7.8458278,8 L8,8 C8,4.6862915 10.6862915,2 14,2 Z M20.3403824,10.0006756 L7.8458278,10 C6.92853228,10 6.70418221,10.043324 6.47792916,10.1643255 C6.33757722,10.2393865 6.23938649,10.3375772 6.16432545,10.4779292 C6.05196696,10.6880213 6.00658546,10.8964726 6.00067564,11.6596176 L6,18.0030633 C6,19.8823942 6.13141923,20.5572303 6.49824133,21.243128 C6.79118624,21.7908873 7.20911268,22.2088138 7.75687203,22.5017587 C8.44276973,22.8685808 9.11760584,23 10.9969367,23 L17.0030633,23 C18.8823942,23 19.5572303,22.8685808 20.243128,22.5017587 C20.7908873,22.2088138 21.2088138,21.7908873 21.5017587,21.243128 C21.8685808,20.5572303 22,19.8823942 22,18.0030633 L22,11.8458278 C22,10.9285323 21.956676,10.7041822 21.8356745,10.4779292 C21.7606135,10.3375772 21.6624228,10.2393865 21.5220708,10.1643255 C21.3119787,10.051967 21.1035274,10.0065855 20.3403824,10.0006756 Z M19.0736194,12 C19.3112187,12 19.4603679,12.0371302 19.5907383,12.1068531 C19.7211087,12.1765759 19.8234241,12.2788913 19.8931469,12.4092617 C19.9628698,12.5396321 20,12.6887813 20,12.9263806 L20,13.0736194 C20,13.3112187 19.9628698,13.4603679 19.8931469,13.5907383 C19.8234241,13.7211087 19.7211087,13.8234241 19.5907383,13.8931469 C19.4603679,13.9628698 19.3112187,14 19.0736194,14 L18.9263806,14 C18.6887813,14 18.5396321,13.9628698 18.4092617,13.8931469 C18.2788913,13.8234241 18.1765759,13.7211087 18.1068531,13.5907383 C18.0371302,13.4603679 18,13.3112187 18,13.0736194 L18,12.9263806 C18,12.6887813 18.0371302,12.5396321 18.1068531,12.4092617 C18.1765759,12.2788913 18.2788913,12.1765759 18.4092617,12.1068531 C18.5396321,12.0371302 18.6887813,12 18.9263806,12 L19.0736194,12 Z M9.07361943,12 C9.31121871,12 9.46036791,12.0371302 9.59073828,12.1068531 C9.72110865,12.1765759 9.82342408,12.2788913 9.89314692,12.4092617 C9.96286976,12.5396321 10,12.6887813 10,12.9263806 L10,13.0736194 C10,13.3112187 9.96286976,13.4603679 9.89314692,13.5907383 C9.82342408,13.7211087 9.72110865,13.8234241 9.59073828,13.8931469 C9.46036791,13.9628698 9.31121871,14 9.07361943,14 L8.92638057,14 C8.68878129,14 8.53963209,13.9628698 8.40926172,13.8931469 C8.27889135,13.8234241 8.17657592,13.7211087 8.10685308,13.5907383 C8.03713024,13.4603679 8,13.3112187 8,13.0736194 L8,12.9263806 C8,12.6887813 8.03713024,12.5396321 8.10685308,12.4092617 C8.17657592,12.2788913 8.27889135,12.1765759 8.40926172,12.1068531 C8.53963209,12.0371302 8.68878129,12 8.92638057,12 L9.07361943,12 Z M14,4 C11.790861,4 10,5.790861 10,8 L18,8 C18,5.790861 16.209139,4 14,4 Z" id="↳-Icon-Color" fill="currentColor"></path>
        </g>
    </g>
</svg>
