<svg fill="none" height="28" viewBox="0 0 28 28" width="28" xmlns="http://www.w3.org/2000/svg"><path d="m14.0072 25c-2.2207 0-4.15905-.4303-5.81497-1.2909-1.65592-.8605-2.93526-2.082-3.83805-3.6643-.90279-1.5824-1.35418-3.4284-1.35418-5.5382v-.7634c0-2.1005.4707-3.96507 1.41211-5.59368.94142-1.62861 2.2642-2.894 3.9684-3.79622 1.70419-.90221 3.65219-1.35331 5.84399-1.35331h.1159c2.0469 0 3.879.40484 5.4963 1.21451 1.6173.80968 2.8822 1.92933 3.7946 3.35899.9125 1.42966 1.3687 3.05131 1.3687 4.86501v.694c0 1.2399-.2124 2.3365-.6373 3.2896-.4248.9531-1.0186 1.6957-1.7814 2.2277-.7628.5321-1.6414.7981-2.6359.7981-.898 0-1.6704-.1804-2.3174-.5413-.6469-.3609-1.0331-.8328-1.1586-1.4158h-.1448c-.1063.3609-.3187.6917-.6373.9925-.3186.3007-.7073.5367-1.1659.7079-.4586.1711-.939.2567-1.4411.2567-.7917 0-1.4821-.185-2.0711-.5552-.589-.3701-1.04277-.8975-1.36141-1.5823-.31863-.6848-.47794-1.4944-.47794-2.429v-1.388c0-.9069.16173-1.698.48519-2.3735s.78696-1.19372 1.39036-1.55461c.6035-.36088 1.3108-.54132 2.1218-.54132.7145 0 1.3421.16887 1.8828.50662s.898.77961 1.0718 1.32551h.1159v-.3608c0-.3702.1062-.66397.3186-.88143.2124-.21745.5021-.32618.869-.32618.3572 0 .6421.10873.8545.32618.2124.21746.3186.51123.3186.88143v5.552c0 .4719.1497.849.449 1.1312.2993.2823.6904.4234 1.1731.4234.5118 0 .9608-.1897 1.347-.5691s.6831-.9184.8907-1.617c.2076-.6987.3114-1.5153.3114-2.4499v-.458c0-1.4528-.3597-2.75291-1.079-3.90034-.7194-1.14743-1.7187-2.045-2.998-2.69274-1.2794-.64774-2.7301-.97161-4.3522-.97161h-.1159c-1.7573 0-3.3118.37013-4.66361 1.11041-1.35177.74028-2.40179 1.78359-3.15009 3.12997-.74831 1.34641-1.12245 2.89401-1.12245 4.64291v.5968c0 1.7397.36207 3.2642 1.08624 4.5735.72416 1.3094 1.75005 2.318 3.07768 3.0259s2.87493 1.0618 4.64183 1.0618h.1159c.6566 0 1.4725-.0694 2.4477-.2082.5117-.0647.8448-.0971.9993-.0971.28 0 .5118.0809.6952.2429.1835.1619.2752.3678.2752.6176 0 .2499-.0773.4627-.2317.6385-.1545.1758-.3766.3008-.6663.3748-.9366.2313-2.1338.347-3.5918.347zm-2.3173-10.4379c0 .9346.1859 1.6448.5576 2.1306.3718.4858.9197.7287 1.6439.7287.7145 0 1.26-.2336 1.6366-.7009.3765-.4673.5648-1.1451.5648-2.0334v-1.1243c0-.8143-.2003-1.4574-.601-1.9294-.4007-.4719-.9438-.7079-1.6294-.7079-.6855 0-1.219.2476-1.6004.7426-.3814.4951-.5721 1.1868-.5721 2.0751z" fill="currentColor"/></svg>
