<?xml version="1.0" encoding="UTF-8"?>
<svg width="28px" height="28px" viewBox="0 0 28 28" version="1.1" xmlns="http://www.w3.org/2000/svg" xmlns:xlink="http://www.w3.org/1999/xlink">
    <!-- Generator: Sketch 63.1 (92452) - https://sketch.com -->
    <title>menu_outline_28</title>
    <desc>Created with Sketch.</desc>
    <g id="Page-1" stroke="none" stroke-width="1" fill="none" fill-rule="evenodd">
        <g id="menu_outline_28">
            <rect x="0" y="0" width="28" height="28"></rect>
            <path d="M22.5,20 C23.0522847,20 23.5,20.4477153 23.5,21 C23.5,21.5522847 23.0522847,22 22.5,22 L22.5,22 L5.5,22 C4.94771525,22 4.5,21.5522847 4.5,21 C4.5,20.4477153 4.94771525,20 5.5,20 L5.5,20 Z M22.5,13 C23.0522847,13 23.5,13.4477153 23.5,14 C23.5,14.5522847 23.0522847,15 22.5,15 L22.5,15 L5.5,15 C4.94771525,15 4.5,14.5522847 4.5,14 C4.5,13.4477153 4.94771525,13 5.5,13 L5.5,13 Z M22.5,6 C23.0522847,6 23.5,6.44771525 23.5,7 C23.5,7.55228475 23.0522847,8 22.5,8 L22.5,8 L5.5,8 C4.94771525,8 4.5,7.55228475 4.5,7 C4.5,6.44771525 4.94771525,6 5.5,6 L5.5,6 Z" id="↳-Icon-Color" fill="currentColor" fill-rule="nonzero"></path>
        </g>
    </g>
</svg>
