<svg fill="none" height="28" width="28" xmlns="http://www.w3.org/2000/svg"><g clip-rule="evenodd" fill="currentColor" fill-rule="evenodd"><path d="m2.537 13.499c0-5.66 5.289-9.999 11.481-9.999 6.193 0 11.482 4.339 11.482 9.999s-5.289 9.999-11.482 9.999c-1.373 0-2.693-.21-3.918-.597-1.444 1.349-3.544 1.997-6.112 2.099-1.046.041-1.8-1.047-1.363-2.021.622-1.391 1.424-2.987 1.52-4.378-1.017-1.48-1.608-3.228-1.608-5.101zm11.481-7.999c-5.385 0-9.481 3.719-9.481 7.999 0 1.537.514 2.979 1.422 4.2a1 1 0 0 1 .197.597c0 1.634-.651 3.175-1.315 4.638 2.056-.219 3.405-.877 4.219-1.834a1 1 0 0 1 1.113-.289c1.172.44 2.473.687 3.845.687 5.386 0 9.482-3.719 9.482-8 0-4.28-4.096-7.998-9.482-7.998z"/><path d="m18.207 10.293a1 1 0 0 1 0 1.414l-5 5a1 1 0 0 1 -1.414 0l-2-2a1 1 0 0 1 1.414-1.414l1.293 1.293 4.293-4.293a1 1 0 0 1 1.414 0z"/></g></svg>
