<svg fill="none" height="28" viewBox="0 0 28 28" width="28" xmlns="http://www.w3.org/2000/svg" xmlns:xlink="http://www.w3.org/1999/xlink"><linearGradient id="a" gradientUnits="userSpaceOnUse" x1="-14" x2="14" y1="14" y2="42"><stop offset="0" stop-color="#b1b6bd"/><stop offset="1" stop-color="#99a2ad"/></linearGradient><path d="m0 14c0-7.73199 6.26801-14 14-14 7.732 0 14 6.26801 14 14 0 7.732-6.268 14-14 14-7.73199 0-14-6.268-14-14z" fill="url(#a)"/><g fill="#fff"><path d="m19.8693 12.17c-.4105.2109-.876.33-1.3693.33-1.6569 0-3-1.3431-3-3 0-.45183.0999-.88032.2788-1.26461-.5621-.15299-1.1595-.23539-1.7788-.23539-3.3137 0-6 2.3589-6 5.2687 0 1.4067.62781 2.6847 1.65342 3.6302-.09282.5777-.22857 1.1415-.40394 1.688-.05567.1735-.13056.3757-.22468.6065-.06256.1535-.05638.3257.01704.4744.14432.2925.50315.4148.80147.2734l.15839-.0765c.1522-.0749.2861-.1451.4015-.2106.6765-.3837 1.3113-.8304 1.8952-1.3316.5394.1399 1.1105.2149 1.7016.2149 3.3137 0 6-2.3589 6-5.2687 0-.3768-.045-.7443-.1307-1.0987z"/><path d="m20 9.5c0 .8284-.6716 1.5-1.5 1.5s-1.5-.6716-1.5-1.5c0-.82843.6716-1.5 1.5-1.5s1.5.67157 1.5 1.5z"/></g></svg>
