<svg fill="none" height="28" viewBox="0 0 28 28" width="28" xmlns="http://www.w3.org/2000/svg"><g clip-rule="evenodd" fill="currentColor" fill-rule="evenodd"><path d="m14.0187 5.5c-5.38506 0-9.48158 3.71891-9.48158 7.9989 0 1.537.51464 2.9789 1.42186 4.2007.12802.1724.19714.3814.19714.5961 0 1.0419-.27362 2.052-.61016 2.963-.21197.5738-.4638 1.1447-.70427 1.6752 2.05607-.2184 3.40491-.8768 4.21826-1.8339.27317-.3214.71869-.4369 1.11365-.2886.5795.2177 1.1904.3879 1.8259.5044.5432.0996.9028.6207.8033 1.164-.0996.5432-.6208.9028-1.164.8032-.5265-.0965-1.0401-.2245-1.5381-.3817-1.44484 1.3485-3.54414 1.9967-6.11217 2.0976-1.0461.0411-1.80115-1.047-1.36313-2.0209.08975-.2009.18028-.3996.27028-.597.27571-.6048.54643-1.1988.77419-1.8153.25611-.6933.43053-1.3484.47504-1.9655-1.01683-1.4807-1.60779-3.2281-1.60779-5.1013 0-5.65988 5.28902-9.9989 11.48158-9.9989 4.247 0 8.0123 2.01254 10.0041 5.08509.3004.46343.1683 1.08265-.2952 1.38306-.4634.30045-1.0826.16825-1.383-.29516-1.588-2.44961-4.6896-4.17299-8.3259-4.17299z"/><path d="m19.1372 12.8238c.7365-.4951 1.5541-.7708 2.4378-.8169l.2671-.0069c2.2963 0 4.1579 1.8615 4.1579 4.1577 0 2.2428-.8916 3.3585-4.4473 6.1238l-1.6464 1.2805c-.5331.4146-1.2795.4146-1.8126 0l-1.6464-1.2805c-3.5557-2.7653-4.4473-3.881-4.4473-6.1238 0-2.2962 1.8616-4.1577 4.1579-4.1577.9865 0 1.8947.2792 2.7049.8238l.1372.0962zm4.8628 3.3339c0-1.1917-.9661-2.1577-2.1579-2.1577-.8032 0-1.4983.3008-2.1352.9373l-.3535.3532c-.1952.1951-.5116.1951-.7068 0l-.3535-.3532c-.6369-.6365-1.332-.9373-2.1352-.9373-1.1918 0-2.1579.966-2.1579 2.1577 0 1.4102.5841 2.1411 3.6752 4.5451l1.3248 1.0302 1.8447-1.4376c2.5555-2.0198 3.1209-2.7638 3.1537-4.015z"/></g></svg>
