<svg fill="none" height="28" viewBox="0 0 28 28" width="28" xmlns="http://www.w3.org/2000/svg"><path clip-rule="evenodd" d="m14.0184 5.5c-3.7996 0-7.01106 1.88026-8.52776 4.5023-.27653.4781-.88825.6415-1.36632.3649-.47807-.2765-.64145-.88821-.36492-1.36628 1.9126-3.30651 5.82562-5.50092 10.259-5.50092 6.1925 0 11.4815 4.33902 11.4815 9.9989 0 5.66-5.289 9.999-11.4815 9.999-1.3732 0-2.6931-.2099-3.918-.5966-1.44489 1.3485-3.54419 1.9967-6.11221 2.0976-1.04611.0411-1.80116-1.047-1.36313-2.0209.62775-1.4056 1.40677-2.8148 1.51951-4.3778-.13346-.1943-.25962-.3933-.37811-.5966-.27806-.4772-.11664-1.0894.36054-1.3675.47717-.278 1.08942-.1166 1.36748.3606.14056.2412.29553.4758.46415.7029.12802.1724.19714.3814.19714.5961 0 1.6338-.65126 3.1753-1.31442 4.6382 2.05607-.2184 3.40491-.8768 4.21825-1.8339.27317-.3214.71869-.4369 1.1136-.2886 1.1722.4402 2.4725.6865 3.8452.6865 5.385 0 9.4815-3.7189 9.4815-7.999 0-4.27999-4.0965-7.9989-9.4815-7.9989zm-1.7256 4.29289c.3906-.39052 1.0237-.39052 1.4142 0l3 3.00001c.3906.3905.3906 1.0237 0 1.4142l-3 3c-.3905.3905-1.0236.3905-1.4142 0-.3905-.3905-.3905-1.0237 0-1.4142l1.2929-1.2929h-10.58576c-.55229 0-1-.4477-1-1s.44771-1 1-1h10.58576l-1.2929-1.2929c-.3905-.3905-.3905-1.0237 0-1.41421z" fill="currentColor" fill-rule="evenodd"/></svg>
