<svg fill="none" height="28" viewBox="0 0 28 28" width="28" xmlns="http://www.w3.org/2000/svg"><path clip-rule="evenodd" d="m14 4c6.0054 0 10.8867 4.15617 10.9981 9.3196-.6-.272-1.2662-.4235-1.9678-.4235h-.0233l-.2376.0062-.0236.0012c-.6111.0318-1.1965.1664-1.7456.3971-.6359-.2672-1.3184-.4045-2.0301-.4045-2.6342 0-4.7699 2.1354-4.7699 4.7698 0 1.1175.245 2.109.9872 3.1154.4546.6164 1.0799 1.2119 1.8496 1.852-.9646.2388-1.9835.3667-3.037.3667-1.2456 0-2.4428-.1788-3.5591-.5083-1.24737.9702-3.1821 1.7847-5.8035 2.4422-.12411.0312-.25543.0138-.36716-.0486-.24237-.1352-.3292-.4413-.19396-.6837l.1876-.3405c.87056-1.6018 1.41372-2.9155 1.62948-3.9411-1.79716-1.6905-2.89336-3.9447-2.89336-6.42 0-5.24671 4.92487-9.5 11-9.5zm9.0303 10.6961c.6658 0 1.2805.2191 1.7758.5892.7247.5415 1.1939 1.4064 1.1939 2.3807 0 1.6019-.6369 2.3988-3.1767 4.3741l-1.176.9146c-.3807.2962-.9139.2962-1.2946 0l-1.176-.9146c-2.5398-1.9753-3.1767-2.7722-3.1767-4.3741 0-1.5094 1.1261-2.7558 2.5839-2.945-.041.0053-.0818.0115-.1223.0185.1652-.0285.3351-.0434.5085-.0434.7047 0 1.3534.1994 1.9321.5885l.0979.0686.0979-.0686c.4041-.2716.8423-.4508 1.3099-.5343.0522-.0093.1048-.0174.1577-.0243.0902-.0118.1816-.0201.2739-.0249z" fill="currentColor" fill-rule="evenodd"/></svg>
