<svg xmlns="http://www.w3.org/2000/svg" width="28" height="28" fill="none" viewBox="0 0 28 28"><path fill="currentColor" fill-rule="evenodd" d="M14.4678 4.4679c.0244.5517-.403 1.0188-.9547 1.0433-5.1404.228-8.9763 3.8423-8.9763 7.9878 0 1.5369.5146 2.9789 1.4219 4.2006a1 1 0 0 1 .1971.5962c0 1.0419-.2736 2.0519-.6101 2.963-.212.5738-.4638 1.1447-.7043 1.6752 2.056-.2184 3.4049-.8768 4.2182-1.8339a.9997.9997 0 0 1 1.1136-.2886c1.1723.4402 2.4726.6864 3.8452.6864 4.4894 0 8.1277-2.6127 9.1719-5.9657.1642-.5273.7248-.8217 1.2521-.6575.5273.1643.8217.7249.6574 1.2522-1.3476 4.3274-5.8707 7.371-11.0814 7.371-1.3731 0-2.693-.2098-3.918-.5965-1.4448 1.3485-3.5442 1.9967-6.1122 2.0975-1.046.0411-1.8011-1.0469-1.3631-2.0209.0897-.2009.1803-.3995.2703-.5969.2757-.6049.5464-1.1988.7742-1.8154.256-.6933.4305-1.3483.475-1.9654-1.0168-1.4807-1.6078-3.2282-1.6078-5.1013 0-5.478 4.9614-9.723 10.8876-9.9858.5518-.0245 1.0189.403 1.0434.9547ZM4.4488 23.799l.0017-.0037-.0016.0037Z" clip-rule="evenodd"/><path fill="currentColor" d="m22.2348 3.106 3.6568 3.6633c.225.2255.064.633-.2624.633h-.5233a.8956.8956 0 0 0-.6333.2624l-1.7142 1.715a.8959.8959 0 0 0-.2623.6335v2.9958c0 .5543-.6992.8577-1.1007.4561l-2.3007-2.3008-3.5703 3.5712a.8927.8927 0 0 1-1.2628-.0001.8939.8939 0 0 1-.0002-1.2635l3.5679-3.5736-2.2898-2.2907c-.3915-.3916-.1096-1.1012.4559-1.1012h2.9947a.8953.8953 0 0 0 .6332-.2623l1.7149-1.715a.896.896 0 0 0 .2623-.6337v-.5267c0-.3195.4031-.4942.6343-.2626Z"/></svg>
