<svg xmlns="http://www.w3.org/2000/svg" width="28" height="28" fill="none" viewBox="0 0 28 28"><path fill="currentColor" d="M14 3.5c5.6255 0 10.2647 3.6557 10.9206 8.3725a4.9512 4.9512 0 0 0-1.8905-.3725h-.026l-.2429.0063-.0262.0014a5.3803 5.3803 0 0 0-1.735.3811c-.638-.2568-1.3203-.3888-2.0301-.3888C16.2209 11.5 14 13.7323 14 16.4766c0 1.1535.2541 2.1893 1.025 3.237.5757.7824 1.4125 1.5259 2.4444 2.3484-1.0906.3135-2.2571.4833-3.4694.4833-1.2456 0-2.4428-.1792-3.5591-.5095-1.2474.9725-3.1821 1.7889-5.8035 2.448a.5015.5015 0 0 1-.3672-.0487.5043.5043 0 0 1-.194-.6853l.1877-.3413c.8705-1.6057 1.4137-2.9225 1.6295-3.9506C4.0962 17.7635 3 15.5039 3 13.0226 3 7.7634 7.9249 3.5 14 3.5Z M23.0301 13.5a2.954 2.954 0 0 1 1.8895.68C25.5794 14.7259 26 15.552 26 16.4766c0 1.6056-.6369 2.4043-3.1767 4.3841l-1.176.9167a1.0524 1.0524 0 0 1-1.2946 0l-1.176-.9167C16.6369 18.8809 16 18.0822 16 16.4766c0-1.644 1.3297-2.9766 2.9699-2.9766.7047 0 1.3534.1999 1.9321.5898l.098.0688.098-.0688c.5261-.3545 1.11-.5519 1.7413-.5849l.1908-.0049Z"/></svg>
