<svg width="28" height="28" fill="none" xmlns="http://www.w3.org/2000/svg"><path d="M11 3c4.97 0 9 3.452 9 7.71 0 4.257-4.03 7.29-9 7.29-1.02 0-1.999-.145-2.912-.413-1.02.788-2.443 1.867-4.588 2.4a.414.414 0 01-.3-.039.406.406 0 01-.16-.555l.154-.276c.713-1.3.997-2.366 1.173-3.198C2.897 14.547 2 12.718 2 10.709 2 6.452 6.03 3 11 3z" fill="currentColor"/><path fill-rule="evenodd" clip-rule="evenodd" d="M11.001 20c1.592 1.259 3.77 1.997 6.173 1.997 1 0 1.96-.145 2.855-.413l.01.007c1 .788 2.366 1.864 4.463 2.397.1.025.205.01.294-.04a.411.411 0 00.156-.556l-.15-.276c-.7-1.302-.95-2.37-1.124-3.203C25.12 18.539 26 16.707 26 14.695c0-2.861-1.78-5.36-4.423-6.693A8.77 8.77 0 0122 10.709C22 16.48 16.617 20 11.001 20z" fill="currentColor"/></svg>
