<svg width="28" height="28" viewBox="0 0 28 28" fill="none" xmlns="http://www.w3.org/2000/svg">
<path d="M14.0229 3C14.9487 3 15.851 3.08982 16.7181 3.26002C17.2658 3.36753 17.4841 4.01487 17.2794 4.53411C17.1081 4.96859 16.6556 5.28075 16.1963 5.19625C15.4976 5.06771 14.7704 5 14.0229 5C8.47775 5 4.04536 8.72674 4.04536 13.2297C4.04536 14.7782 4.56597 16.2635 5.53776 17.5452C5.66958 17.719 5.74093 17.9313 5.74093 18.1495C5.74093 19.1371 5.348 20.5332 4.56785 22.3981L4.41704 22.7532L4.33449 22.94L4.74214 22.8942C6.43992 22.6745 7.70746 22.1534 8.56742 21.3517L8.73398 21.1876L8.87383 21.0345C9.14611 20.7209 9.58386 20.6083 9.97361 20.7516C11.2366 21.216 12.6081 21.4594 14.0229 21.4594C19.5681 21.4594 24.0005 17.7326 24.0005 13.2297C24.0005 12.1797 23.7595 11.1719 23.3196 10.2438C23.1248 9.8328 23.2628 9.32987 23.6077 9.03344C24.0434 8.65903 24.7599 8.64938 25.0196 9.16175C25.65 10.4054 26 11.7801 26 13.2297C26 18.9216 20.603 23.4594 14.0229 23.4594C12.8418 23.4594 11.6836 23.3134 10.5762 23.0302L10.1048 22.9004L9.90308 22.837L9.82366 22.9129C8.50372 24.0901 6.63884 24.7619 4.25937 24.9548L3.85803 24.9825L3.48673 25C3.26166 25.0083 3.0378 24.9635 2.83329 24.8691C2.25342 24.6015 1.92843 23.9887 2.01338 23.3721C2.57948 21.831 3.38889 20.3542 3.6818 18.7252L3.70893 18.5575L3.72165 18.448L3.53391 18.1696C2.69535 16.8797 2.19261 15.4369 2.07345 13.9296L2.05278 13.5807L2.04586 13.2297C2.04586 7.5378 7.4429 3 14.0229 3ZM21.0013 4C22.1056 4 23.0008 4.89543 23.0008 6C23.0008 7.10457 22.1056 8 21.0013 8C19.897 8 19.0018 7.10457 19.0018 6C19.0018 4.89543 19.897 4 21.0013 4Z" fill="currentColor"/>
</svg>
