<svg fill="none" height="28" width="28" xmlns="http://www.w3.org/2000/svg"><g clip-rule="evenodd" fill="currentColor" fill-rule="evenodd"><path d="m14.018 5.5c-5.385 0-9.481 3.719-9.481 7.999 0 1.537.515 2.979 1.422 4.2a1 1 0 0 1 .197.597c0 1.042-.274 2.052-.61 2.963a25.566 25.566 0 0 1 -.705 1.675c2.057-.219 3.405-.877 4.219-1.834a1 1 0 0 1 1.113-.289c1.172.44 2.473.687 3.845.687 5.386 0 9.482-3.719 9.482-8 0-4.28-4.096-7.998-9.482-7.998zm-11.481 7.999c0-5.66 5.289-9.999 11.482-9.999 6.191 0 11.481 4.339 11.481 9.999s-5.289 9.999-11.482 9.999c-1.373 0-2.693-.21-3.918-.597-1.443 1.349-3.544 1.997-6.111 2.099-1.046.041-1.8-1.047-1.363-2.021l.27-.597c.276-.605.547-1.199.775-1.815.256-.694.43-1.349.475-1.966-1.017-1.48-1.608-3.228-1.608-5.101z"/><path d="m9 13.5a1 1 0 0 1 1-1h8a1 1 0 1 1 0 2h-8a1 1 0 0 1 -1-1z"/><path d="m14.293 9.793a1 1 0 0 1 1.414 0l3 3a1 1 0 0 1 0 1.414l-3 3a1 1 0 0 1 -1.414-1.414l2.293-2.293-2.293-2.293a1 1 0 0 1 0-1.414z"/></g></svg>
