<svg width="28" height="28" viewBox="0 0 28 28" fill="none" xmlns="http://www.w3.org/2000/svg">
<path d="M17.4571 10.0429C17.8476 10.4334 17.8476 11.0666 17.4571 11.4571L15.4142 13.5L17.4571 15.5429C17.8476 15.9334 17.8476 16.5666 17.4571 16.9571C17.0666 17.3476 16.4334 17.3476 16.0429 16.9571L14 14.9142L11.9571 16.9571C11.5666 17.3476 10.9334 17.3476 10.5429 16.9571C10.1524 16.5666 10.1524 15.9334 10.5429 15.5429L12.5858 13.5L10.5429 11.4571C10.1524 11.0666 10.1524 10.4334 10.5429 10.0429C10.9334 9.65237 11.5666 9.65237 11.9571 10.0429L14 12.0858L16.0429 10.0429C16.4334 9.65237 17.0666 9.65237 17.4571 10.0429Z" fill="currentColor"/>
<path fill-rule="evenodd" clip-rule="evenodd" d="M14.0185 3.5C7.82589 3.5 2.53688 7.83902 2.53688 13.4989C2.53688 15.3721 3.12784 17.1195 4.14467 18.6002C4.10016 19.2173 3.92574 19.8724 3.66963 20.5657C3.44187 21.1822 3.17115 21.7761 2.89544 22.381C2.80549 22.5783 2.71485 22.7772 2.62516 22.978C2.18713 23.9519 2.94219 25.04 3.98829 24.9989C6.55631 24.898 8.65562 24.2498 10.1005 22.9013C11.3254 23.288 12.6453 23.4979 14.0185 23.4979C20.211 23.4979 25.5 19.1589 25.5 13.4989C25.5 7.83902 20.211 3.5 14.0185 3.5ZM4.53688 13.4989C4.53688 9.21891 8.63339 5.5 14.0185 5.5C19.4035 5.5 23.5 9.21891 23.5 13.4989C23.5 17.779 19.4035 21.4979 14.0185 21.4979C12.6458 21.4979 11.3455 21.2516 10.1733 20.8114C9.77839 20.6631 9.33288 20.7786 9.05971 21.1C8.24636 22.0571 6.89752 22.7155 4.84145 22.9339C5.08192 22.4034 5.33375 21.8325 5.54571 21.2587C5.88226 20.3477 6.15588 19.3376 6.15588 18.2957C6.15588 18.081 6.08676 17.872 5.95874 17.6996C5.05151 16.4778 4.53688 15.0359 4.53688 13.4989Z" fill="currentColor"/>
</svg>
