<svg fill="none" height="28" viewBox="0 0 28 28" width="28" xmlns="http://www.w3.org/2000/svg"><g clip-rule="evenodd" fill="currentColor" fill-rule="evenodd"><path d="m9.55883 3.96559c1.09617-1.2061 2.68067-1.96559 4.44117-1.96559 3.3137 0 6 2.68629 6 6v5c0 .1334-.0044.266-.013.3975-.0361.5511-.5122.9686-1.0633.9324-.5511-.0361-.9685-.5121-.9324-1.0632.0058-.088.0087-.177.0087-.2667v-5c0-2.20914-1.7909-4-4-4-1.1736 0-2.228.50413-2.9611 1.31075-.3715.4087-1.0039.4389-1.41262.06744-.40871-.37145-.4389-1.0039-.06745-1.4126z"/><path d="m23 12c.5523 0 1 .4477 1 1 0 1.4191-.2962 2.7716-.8311 3.997-.2209.5062-.8103.7374-1.3165.5165s-.7374-.8104-.5165-1.3165c.4269-.9779.6641-2.0584.6641-3.197 0-.5523.4477-1 1-1z"/><path d="m4.29289 4.29289c.39053-.39052 1.02369-.39052 1.41422 0l17.99969 17.99971c.3906.3906.3906 1.0237 0 1.4142-.3905.3906-1.0236.3906-1.4142 0l-2.5318-2.5318c-1.372.9686-2.9986 1.6005-4.7597 1.7755l-.0011 2.0495c0 .5523-.4477 1-1 1s-1-.4477-1-1l-.0001-2.0494c-5.05328-.5018-8.9999-4.7653-8.9999-9.9506 0-.5523.44772-1 1-1s1 .4477 1 1c0 4.4183 3.58172 8 8 8 1.5913 0 3.0741-.4646 4.3202-1.2656l-1.4592-1.4592c-.8504.4622-1.825.7248-2.861.7248-3.3137 0-6-2.6863-6-6v-3.58579l-3.70711-3.7071c-.39052-.39053-.39052-1.02369 0-1.41422zm9.70711 12.70711c-2.2091 0-4-1.7909-4-4v-1.5858l5.3517 5.3517c-.4223.1515-.8773.2341-1.3517.2341z"/></g></svg>
