<svg width="28" height="28" fill="none" xmlns="http://www.w3.org/2000/svg"><path fill-rule="evenodd" clip-rule="evenodd" d="M9.552 3.973A6 6 0 0120 8v5.344a1 1 0 11-2 0V8a4 4 0 00-6.966-2.684 1 1 0 01-1.482-1.343z" fill="currentColor"/><path fill-rule="evenodd" clip-rule="evenodd" d="M8 13a6 6 0 008.86 5.275l1.46 1.459a8 8 0 01-11.42-3.05 1 1 0 10-1.777.921A10 10 0 0013 22.95V26a1 1 0 102 0v-3.05a10.04 10.04 0 004.76-1.776l2.533 2.533a1 1 0 001.414-1.414l-2.432-2.432a10 10 0 001.611-2.274 1 1 0 10-1.777-.918 7.996 7.996 0 01-1.249 1.777L5.707 4.293a1 1 0 10-1.414 1.414L8 9.414V13zm2 0a4 4 0 005.352 3.766L10 11.414V13z" fill="currentColor"/></svg>
