<svg xmlns="http://www.w3.org/2000/svg" width="28" height="28" fill="currentColor" viewBox="0 0 28 28"><path fill-rule="evenodd" d="M5 9.5a4.5 4.5 0 0 1 9 0v4a4.5 4.5 0 1 1-9 0v-4ZM9.5 7A2.5 2.5 0 0 0 7 9.5v4a2.5 2.5 0 0 0 5 0v-4A2.5 2.5 0 0 0 9.5 7Z" clip-rule="evenodd"/><path d="M10.5 21.942a8.504 8.504 0 0 0 6.366-4.198 1 1 0 0 0-1.732-1A6.497 6.497 0 0 1 9.5 20a6.497 6.497 0 0 1-5.634-3.256 1 1 0 0 0-1.732 1A8.503 8.503 0 0 0 8.5 21.942V23a1 1 0 1 0 2 0v-1.058Z"/><path fill-rule="evenodd" d="M17 12a1 1 0 1 1 0-2c1.686.009 2.317.194 2.953.534.652.349 1.164.86 1.512 1.512.188.35.328.699.418 1.223l1.057-.66c1.332-.833 3.06.124 3.06 1.695v4.392c0 1.57-1.728 2.528-3.06 1.696l-1.057-.66c-.09.523-.23.872-.418 1.222a3.636 3.636 0 0 1-1.512 1.512c-.632.337-1.259.522-2.92.534H17a1 1 0 1 1 0-2c1.221-.005 1.611-.085 2.01-.298a1.63 1.63 0 0 0 .691-.692c.22-.411.298-.814.298-2.138V14.89c-.01-1.136-.091-1.515-.298-1.9a1.636 1.636 0 0 0-.692-.692c-.398-.213-.788-.293-2.009-.298Zm5 5.446 2 1.25v-4.392l-2 1.25v1.892Z" clip-rule="evenodd"/></svg>
