<svg xmlns="http://www.w3.org/2000/svg" width="28" height="28" fill="currentColor" viewBox="0 0 28 28"><path d="M4.792 4.308a1.05 1.05 0 1 0-1.484 1.484l18.9 18.9a1.05 1.05 0 0 0 1.484-1.485l-18.9-18.9Z"/><path d="M6.663 14.787a1 1 0 0 0-1.955.422A9.253 9.253 0 0 0 13 22.469V25.5a1 1 0 1 0 2 0v-3.03a9.24 9.24 0 0 0 5.544-2.44l-1.415-1.416A7.242 7.242 0 0 1 14.25 20.5h-.5a7.253 7.253 0 0 1-7.087-5.713Zm14.171 1.506c-.193.416-.138.918.187 1.243l.038.038c.445.445 1.187.374 1.468-.188.34-.68.599-1.408.765-2.176a1 1 0 0 0-1.955-.422 7.213 7.213 0 0 1-.503 1.505Zm-1.881-2.605c-.095.691-.926.854-1.42.36l-7.95-7.95c-.253-.253-.359-.626-.225-.958A5.002 5.002 0 0 1 19 7v6c0 .233-.016.463-.047.688Z"/><path d="m9 8.485 8.285 8.285A5 5 0 0 1 9 13V8.485Z"/></svg>
