<svg fill="none" height="28" viewBox="0 0 28 28" width="28" xmlns="http://www.w3.org/2000/svg"><g fill="currentColor"><path d="m9.00009 11.7679v1.2321c0 2.7614 2.23861 5 5.00001 5 .381 0 .7521-.0426 1.1088-.1234l2.1547 2.1547c-.9921.4612-2.0979.7187-3.2636.7187-3.6867 0-6.77483-2.5755-7.55793-6.0266-.15277-.6732-.82238-1.0952-1.49562-.9424s-1.09517.8224-.9424 1.4956c.94598 4.169 4.4315 7.3735 8.74595 7.898v2.8254c0 .6904.5597 1.25 1.25 1.25.6904 0 1.25-.5596 1.25-1.25v-2.8254c1.3946-.1695 2.7026-.6191 3.8662-1.2907l2.4999 2.5c.4882.4881 1.2796.4881 1.7678 0 .4881-.4882.4881-1.2796 0-1.7678l-18.00002-17.99998c-.48815-.48816-1.27961-.48816-1.76776 0-.48816.48815-.48816 1.27961 0 1.76776z"/><path d="m22 17 .4088-.145c.0912.145.8656.5555 1.0912 0 .206-.5072.3726-1.0346.496-1.5784.1528-.6732-.2691-1.3428-.9424-1.4956-.6732-.1528-1.3428.2692-1.4956.9424-.0906.3994-.2121.7872-.3619 1.1605-.1004.2504.9289.8794.8039 1.1161z"/><path d="m9.654 4.52612c-.19907.34898-.10466.78052.17942 1.06461l7.83778 7.83777c.4988.4988 1.3289.2769 1.3289-.4285v-6c0-2.76142-2.2386-5-5-5-1.8615 0-3.4854 1.01723-4.3461 2.52612z"/><path d="m23.6101 16.35c0 .6904-.5596 1.25-1.25 1.25-.6903 0-1.25-.5596-1.25-1.25s.5597-1.25 1.25-1.25c.6904 0 1.25.5596 1.25 1.25z"/></g></svg>
