<svg fill="none" height="28" viewBox="0 0 28 28" width="28" xmlns="http://www.w3.org/2000/svg" xmlns:xlink="http://www.w3.org/1999/xlink"><linearGradient id="a" gradientUnits="userSpaceOnUse" x1="-14" x2="14" y1="14" y2="42"><stop offset="0" stop-color="#70b2ff"/><stop offset="1" stop-color="#5c9ce6"/></linearGradient><path d="m0 14c0-7.73199 6.26801-14 14-14 7.732 0 14 6.26801 14 14 0 7.732-6.268 14-14 14-7.73199 0-14-6.268-14-14z" fill="url(#a)"/><path d="m17.5132 7c1.5602 0 2.1259.16244 2.6963.46748s1.018.75267 1.323 1.32304c.3051.57037.4675 1.13612.4675 2.69628v2.5132c0 .5523-.4477 1-1 1s-1-.4477-1-1v-1h-12l.00082 2.7268c.00775.9488.07113 1.2419.23029 1.5395.11864.2218.28077.384.50261.5026.31885.1705.63258.2311 1.75308.2311h6.5132v-1.5052c0-.4418.3582-.8.8-.8.1579 0 .3123.0468.4438.1344l3.7577 2.5052c.3677.245.467.7417.2219 1.1094-.0586.0878-.134.1633-.2219.2218l-3.7577 2.5052c-.3677.2451-.8644.1458-1.1094-.2219-.0877-.1314-.1344-.2858-.1344-.4437v-1.5052h-6.5132c-1.56016 0-2.12591-.1624-2.69628-.4675-.57037-.305-1.018-.7526-1.32304-1.323s-.46748-1.1361-.46748-2.6963v-4.0264c0-1.56016.16244-2.12591.46748-2.69628s.75267-1.018 1.32304-1.32304 1.13612-.46748 2.69628-.46748zm.2136 2.00082-7.24-.00082c-1.1205 0-1.43423.06058-1.75308.23111-.22184.11864-.38397.28077-.50261.50261-.14266.26678-.20837.52988-.22604 1.26478h11.98983c-.0176-.7349-.0834-.998-.226-1.26478-.1186-.22184-.2808-.38397-.5026-.50261-.2976-.15916-.5907-.22254-1.5395-.23029z" fill="#fff"/></svg>
