<?xml version="1.0" encoding="UTF-8"?>
<svg width="28px" height="28px" viewBox="0 0 28 28" version="1.1" xmlns="http://www.w3.org/2000/svg" xmlns:xlink="http://www.w3.org/1999/xlink">
    <!-- Generator: Sketch 63.1 (92452) - https://sketch.com -->
    <title>money_history_backward_outline_28</title>
    <desc>Created with Sketch.</desc>
    <g id="Page-1" stroke="none" stroke-width="1" fill="none" fill-rule="evenodd">
        <g id="money_history_backward_outline_28">
            <rect id="history_outline_28" x="0" y="0" width="28" height="28"></rect>
            <path d="M14,2 C20.627417,2 26,7.372583 26,14 C26,20.627417 20.627417,26 14,26 C10.7742667,26 7.74870739,24.7199979 5.51332937,22.4838919 C5.12286866,22.093304 5.12297174,21.4601391 5.51355961,21.0696783 C5.90414747,20.6792176 6.53731244,20.6793207 6.92777315,21.0699086 C8.79177853,22.934521 11.3102665,24 14,24 C19.5228475,24 24,19.5228475 24,14 C24,8.4771525 19.5228475,4 14,4 C11.2614312,4 8.71026275,5.10802948 6.85728368,7.00037181 L8.5,7 C9.05228475,7 9.5,7.44771525 9.5,8 C9.5,8.51283584 9.11395981,8.93550716 8.61662113,8.99327227 L8.5,9 L4.5,9 C3.98716416,9 3.56449284,8.61395981 3.50672773,8.11662113 L3.5,8 L3.5,4 C3.5,3.44771525 3.94771525,3 4.5,3 C5.01283584,3 5.43550716,3.38604019 5.49327227,3.88337887 L5.5,4 L5.49973128,5.52875247 C7.71675336,3.30256797 10.7494828,2 14,2 Z M15.1765137,8.66943359 C17.6584473,8.66943359 19.0612793,10.0556641 19.0612793,12.2304688 C19.0612793,14.3139648 17.7663574,15.75 15.1516113,15.75 L15.1516113,15.75 L13.5578613,15.75 L13.5578613,16.9453125 L15.3508301,16.9453125 C15.8737793,16.9453125 16.1975098,17.2275391 16.1975098,17.684082 C16.1975098,18.140625 15.8654785,18.4145508 15.3508301,18.4145508 L15.3508301,18.4145508 L13.5163574,18.4145508 L13.5163574,19.1948242 C13.4001465,19.7758789 12.9685059,20.0830078 12.4372559,20.0830078 C11.9143066,20.0830078 11.4743652,19.7758789 11.3581543,19.1948242 L11.3581543,19.1948242 L11.3581543,18.4145508 L10.5778809,18.4145508 C10.0466309,18.4145508 9.73120117,18.140625 9.73120117,17.684082 C9.73120117,17.2275391 10.0466309,16.9453125 10.5778809,16.9453125 L10.5778809,16.9453125 L11.3166504,16.9453125 L11.3166504,15.75 L10.7023926,15.75 C10.0964355,15.7416992 9.73120117,15.4179688 9.73120117,14.878418 C9.73120117,14.347168 10.0964355,14.0151367 10.7023926,13.9985352 L10.7023926,13.9985352 L11.3166504,13.9985352 L11.3166504,10.3959961 C11.3166504,9.20898438 11.864502,8.66943359 13.0266113,8.66943359 L13.0266113,8.66943359 Z M14.7946777,10.4541016 L13.5495605,10.4541016 L13.5495605,13.9985352 L14.6037598,13.9985352 C16.0812988,13.9985352 16.7785645,13.5253906 16.7785645,12.2387695 C16.7785645,10.9604492 16.072998,10.4541016 14.7946777,10.4541016 L14.7946777,10.4541016 Z" id="↳-Icon-Color" fill="currentColor" fill-rule="nonzero"></path>
        </g>
    </g>
</svg>
