<?xml version="1.0" encoding="UTF-8"?>
<svg width="28px" height="28px" viewBox="0 0 28 28" version="1.1" xmlns="http://www.w3.org/2000/svg" xmlns:xlink="http://www.w3.org/1999/xlink">
    <!-- Generator: Sketch 63.1 (92452) - https://sketch.com -->
    <title>money_transfer_outline_28</title>
    <desc>Created with Sketch.</desc>
    <g id="Page-1" stroke="none" stroke-width="1" fill="none" fill-rule="evenodd">
        <g id="money_transfer_outline_28">
            <rect x="0" y="0" width="28" height="28"></rect>
            <path d="M20.8722296,4 C22.6552671,4 23.3018396,4.18565122 23.9536914,4.53426541 C24.6055433,4.88287959 25.1171204,5.39445674 25.4657346,6.04630859 C25.8143488,6.69816044 26,7.34473292 26,9.1277704 L26,18.1541722 L25.999,18.245 L25.999,15.017 L25.9932723,15.1166211 C25.9355072,15.6139598 25.5128358,16 25,16 C24.4477153,16 24,15.5522847 24,15 L24,12 L4,12 L4,17.4361148 C4,18.3276335 4.09282561,18.6509198 4.2671327,18.9768457 C4.4414398,19.3027716 4.69722837,19.5585602 5.0231543,19.7328673 C5.324009,19.8937662 5.6226145,19.985237 6.36797723,19.9983574 L6.5638852,20 L22.586,20 L20.2928932,17.7071068 C19.9023689,17.3165825 19.9023689,16.6834175 20.2928932,16.2928932 C20.6834175,15.9023689 21.3165825,15.9023689 21.7071068,16.2928932 L25.7071068,20.2928932 C26.0976311,20.6834175 26.0976311,21.3165825 25.7071068,21.7071068 L21.7071068,25.7071068 C21.3165825,26.0976311 20.6834175,26.0976311 20.2928932,25.7071068 C19.9023689,25.3165825 19.9023689,24.6834175 20.2928932,24.2928932 L22.5912993,21.9942704 C22.456414,21.998081 22.3111668,22 22.1541722,22 L7.1277704,22 C5.34473292,22 4.69816044,21.8143488 4.04630859,21.4657346 C3.39445674,21.1171204 2.88287959,20.6055433 2.53426541,19.9536914 C2.18565122,19.3018396 2,18.6552671 2,16.8722296 L2,9.1277704 C2,7.34473292 2.18565122,6.69816044 2.53426541,6.04630859 C2.88287959,5.39445674 3.39445674,4.88287959 4.04630859,4.53426541 C4.69816044,4.18565122 5.34473292,4 7.1277704,4 L20.8722296,4 Z M21.4361148,6 L6.5638852,6 C5.67236646,6 5.34908022,6.09282561 5.0231543,6.2671327 C4.69722837,6.4414398 4.4414398,6.69722837 4.2671327,7.0231543 C4.10623385,7.324009 4.014763,7.6226145 4.00164263,8.36797723 L4,8.5638852 L4,10 L24,10 L24,8.5638852 C24,7.67236646 23.9071744,7.34908022 23.7328673,7.0231543 C23.5585602,6.69722837 23.3027716,6.4414398 22.9768457,6.2671327 C22.6509198,6.09282561 22.3276335,6 21.4361148,6 Z" id="↳-Icon-Color" fill="currentColor" fill-rule="nonzero"></path>
        </g>
    </g>
</svg>
