<?xml version="1.0" encoding="UTF-8"?>
<svg width="28px" height="28px" viewBox="0 0 28 28" version="1.1" xmlns="http://www.w3.org/2000/svg" xmlns:xlink="http://www.w3.org/1999/xlink">
    <!-- Generator: Sketch 63.1 (92452) - https://sketch.com -->
    <title>moon_outline_28</title>
    <desc>Created with Sketch.</desc>
    <g id="Page-1" stroke="none" stroke-width="1" fill="none" fill-rule="evenodd">
        <g id="moon_outline_28" fill-rule="nonzero">
            <rect x="0" y="0" width="28" height="28"></rect>
            <path d="M24.1661847,15.6852492 C24.9585635,15.4046408 25.7225739,16.1675281 25.4431316,16.9603188 C24.8743694,18.5739232 23.9977596,20.0062292 22.8111658,21.1885803 C18.3930124,25.6067823 11.2319252,25.6060952 6.81446728,21.1887904 C2.3952134,16.7721139 2.3952134,9.60928122 6.81425233,5.19059759 C7.99870859,4.0061123 9.43138116,3.12886979 11.0416827,2.55922541 C11.8345887,2.27873479 12.5985113,3.04280551 12.3178669,3.83565717 C11.1240914,7.20820592 11.9240854,10.9693482 14.4782313,13.5252379 C17.0321893,16.0786975 20.7953081,16.8789916 24.1661847,15.6852492 Z M13.0639855,14.9394193 C10.4878617,12.3616459 9.37917634,8.7769983 9.9012065,5.29578995 C9.29147414,5.6652747 8.73162674,6.10163797 8.22844613,6.60483092 C4.59055378,10.2424308 4.59055378,16.1385715 8.2284623,19.7743583 C11.8651267,23.4108966 17.7598968,23.4114622 21.3982152,19.773106 C21.9024894,19.2706339 22.3390418,18.7113783 22.7082991,18.1016248 C19.2269778,18.6242067 15.6403374,17.5153778 13.0639855,14.9394193 Z" id="↳-Icon-Color" fill="currentColor"></path>
        </g>
    </g>
</svg>
