<svg fill="none" height="28" viewBox="0 0 28 28" width="28" xmlns="http://www.w3.org/2000/svg"><path clip-rule="evenodd" d="m8.40489 2.97204.01171-.00547.01166-.00543c1.49201-.69153 3.26264-.05301 3.96994 1.4316l1.5009 3.1696.2189.43767h6.7574c.4194-.00001.7794-.00001 1.0762.01847.3104.01933.6226.06176.9311.17989.8846.33872 1.5572 1.07531 1.8145 1.98693.0897.318.1037.6327.0948.9436-.0084.2972-.041.6557-.079 1.0733l-.0027.0295-.019.21c-.1864 2.0543-.3026 3.3358-.7688 4.3898-.6084 1.3754-1.6378 2.5067-2.9225 3.2426v.7258c0 .5449 0 1.0149-.0326 1.4017-.0345.4084-.1106.8141-.3161 1.2022-.2814.5315-.716.9661-1.2475 1.2475-.3881.2055-.7938.2816-1.2022.3161-.3868.0327-.8568.0326-1.4017.0326h-5.5998c-.5449 0-1.0149.0001-1.40167-.0326-.40842-.0345-.81413-.1106-1.20222-.3161-.53147-.2814-.9661-.716-1.24751-1.2475-.20548-.3881-.28163-.7938-.3161-1.2022-.03263-.3868-.03262-.8568-.0326-1.4017v-.0399-.6858c-1.28476-.736-2.31415-1.8673-2.92248-3.2427-.46621-1.054-.58245-2.3355-.7688-4.3898l-.01906-.21-.00268-.0294c-.03798-.4177-.07057-.7761-.07904-1.0734-.00886-.3109.00514-.6256.09486-.9436.25723-.91162.9299-1.64821 1.8145-1.98693.30852-.11813.62066-.16056.9311-.17989.29683-.01848.65674-.01848 1.07614-.01847h.32252l-.48985-1.0505c-.69442-1.49829-.04736-3.27608 1.44768-3.97747zm3.48861 5.02797h-1.9709-.27051l-.02958-.06713-.85072-1.82438c-.23147-.49943-.01579-1.09202.48256-1.32582l.01494-.00697c.49734-.23051 1.08751-.01767 1.32331.4772zm-1.93009 1.99999h-2.8093c-.45717 0-.75425.0005-.98143.0146-.22053.0137-.30337.0374-.34021.0515-.29487.1129-.51909.3585-.60483.6623-.01072.038-.0268.1227-.02051.3435.00648.2276.03292.5235.07431.9787.21221 2.3343.30932 3.2579.62515 3.9719.56674 1.2814 1.64509 2.2661 2.97248 2.7145.73972.2499 1.66833.263 4.01213.263h2.2176c2.3438 0 3.2724-.0131 4.0121-.263 1.3274-.4484 2.4058-1.4331 2.9725-2.7145.3158-.714.4129-1.6376.6251-3.9719.0414-.4552.0679-.7511.0744-.9787.0062-.2208-.0098-.3055-.0206-.3435-.0857-.3038-.3099-.5494-.6048-.6623-.0368-.0141-.1197-.0378-.3402-.0515-.2272-.0141-.5243-.0146-.9814-.0146h-5.728v.0001zm2.31949 11h-3.28278c.00059.4628.00419.7821.0254 1.0334.02365.2803.06373.3836.09072.4345.0938.1772.23867.3221.41583.4159.05098.027.15426.067.43454.0907.29259.0247.67739.0255 1.27339.0255h5.52c.596 0 .9809-.0008 1.2734-.0255.2803-.0237.3836-.0637.4345-.0907.1772-.0938.3221-.2387.4159-.4159.027-.0509.067-.1542.0907-.4345.0212-.2513.0248-.5706.0254-1.0334h-3.2828c-.1293.0001-.2617.0001-.3975 0h-.2108-2.2176-.2108c-.1358.0001-.2683.0001-.3975 0z" fill="currentColor" fill-rule="evenodd"/></svg>
