<svg fill="none" height="28" viewBox="0 0 28 28" width="28" xmlns="http://www.w3.org/2000/svg"><path clip-rule="evenodd" d="m12 6c0-.55228.4477-1 1-1h4c.4249 0 .8035.26856.9439.66965l.4656 1.33035h2.0073l.041.00009c1.2834.00991 2.4184.83517 2.8235 2.05303l.0127.03901.0013.00402.0002.00045c.006.01846.0111.0343.0156.04863.5062 1.61677-.4259 3.33167-2.0579 3.78637-.0146.004-.0307.0084-.0496.0134l-.6522.1747.6612 1.8893c.0951-.006.1909-.009.2874-.009 2.4853 0 4.5 2.0147 4.5 4.5s-2.0147 4.5-4.5 4.5c-2.3163 0-4.2238-1.75-4.4725-4h-3.0275-2.0275c-.2487 2.25-2.15621 4-4.4725 4s-4.22383-1.75-4.47254-4h-.02746c-.55228 0-1-.4477-1-1v-1.325c-.00001-.7663-.00002-1.3987.04016-1.9147.0417-.5356.13114-1.029.35597-1.4958.39317-.8165 1.05191-1.4752 1.86834-1.8684.46686-.2248.96018-.3142 1.49581-.3559.51598-.0402 1.14844-.0402 1.91472-.0402h.00001.36051.00002c.90175 0 1.62915 0 2.22116.0404.6087.0415 1.147.1291 1.6567.3402 1.2252.5075 2.1985 1.4808 2.706 2.706.2111.5097.2987 1.048.3402 1.6567.0249.3645.0344.7804.0381 1.2567h2.2584c.3648-1.0323 1.0957-1.8917 2.0366-2.4224l-3.0022-8.5776h-3.2905c-.5523 0-1-.44772-1-1zm-6.95 14c.23163 1.1411 1.24051 2 2.45 2s2.21837-.8589 2.45-2zm7.9143-3.1206c.0212.3111.0298.6741.0333 1.1206h-1.9976-7v-.2857c0-.8154.00071-1.3696.03412-1.7988.03257-.4182.09168-.6332.16394-.7833.19659-.4082.52596-.7376.93417-.9341.15006-.0723.36504-.1314.78331-.164.42913-.0334.98338-.0341 1.79875-.0341h.28571c.94557 0 1.60466.0005 2.1206.0357.5069.0346.8021.0993 1.0275.1927.735.3044 1.3191.8885 1.6235 1.6236.0934.2253.1581.5205.1927 1.0274zm6.9245-5.6527-.7793-2.2267h1.3073l.0256.00003c.4278.0033.8061.27839.9411.68434l.0079.02433.011.03411c.1688.53889-.1419 1.11059-.6859 1.26209l-.0346.0093zm4.1112 8.2733c0 1.3807-1.1193 2.5-2.5 2.5s-2.5-1.1193-2.5-2.5 1.1193-2.5 2.5-2.5 2.5 1.1193 2.5 2.5z" fill="currentColor" fill-rule="evenodd"/></svg>
