<svg width="28" height="28" viewBox="0 0 28 28" fill="none" xmlns="http://www.w3.org/2000/svg">
<path fill-rule="evenodd" clip-rule="evenodd" d="M12.5273 7.93164C11.2468 6.67353 9.18856 6.69201 7.93152 7.97278C6.67357 9.25377 6.69269 11.3107 7.97273 12.5684C9.25363 13.8269 11.3107 13.8076 12.5685 12.5272C13.8269 11.2463 13.8075 9.1895 12.5273 7.93164ZM9.3587 9.37391C9.84144 8.88185 10.6329 8.87424 11.1256 9.35825C11.6186 9.84268 11.6255 10.6332 11.1418 11.1256C10.6575 11.6186 9.86678 11.6255 9.37444 11.1417C8.8814 10.6573 8.875 9.86626 9.3587 9.37391Z" fill="currentColor"/>
<path fill-rule="evenodd" clip-rule="evenodd" d="M20.0273 7.93164C18.7468 6.67353 16.6886 6.69201 15.4315 7.97278C14.1736 9.25377 14.1927 11.3107 15.4727 12.5684C16.7536 13.8269 18.8107 13.8076 20.0685 12.5272C21.3269 11.2463 21.3075 9.1895 20.0273 7.93164ZM16.8587 9.37391C17.3414 8.88185 18.1329 8.87424 18.6256 9.35825C19.1186 9.84268 19.1255 10.6332 18.6418 11.1256C18.1575 11.6186 17.3668 11.6255 16.8744 11.1417C16.3814 10.6573 16.375 9.86626 16.8587 9.37391Z" fill="currentColor"/>
<path fill-rule="evenodd" clip-rule="evenodd" d="M15.4315 15.4728C16.6886 14.192 18.7468 14.1735 20.0273 15.4316C21.3075 16.6895 21.3269 18.7463 20.0685 20.0272C18.8107 21.3076 16.7536 21.3269 15.4727 20.0684C14.1927 18.8107 14.1736 16.7538 15.4315 15.4728ZM18.6256 16.8583C18.1329 16.3742 17.3414 16.3819 16.8587 16.8739C16.375 17.3663 16.3814 18.1573 16.8744 18.6417C17.3668 19.1255 18.1575 19.1186 18.6418 18.6256C19.1255 18.1332 19.1186 17.3427 18.6256 16.8583Z" fill="currentColor"/>
<path fill-rule="evenodd" clip-rule="evenodd" d="M12.5273 15.4316C11.2468 14.1735 9.18856 14.192 7.93152 15.4728C6.67357 16.7538 6.69269 18.8107 7.97273 20.0684C9.25363 21.3269 11.3107 21.3076 12.5685 20.0272C13.8269 18.7463 13.8075 16.6895 12.5273 15.4316ZM9.3587 16.8739C9.84144 16.3819 10.6329 16.3742 11.1256 16.8583C11.6186 17.3427 11.6255 18.1332 11.1418 18.6256C10.6575 19.1186 9.86678 19.1255 9.37444 18.6417C8.8814 18.1573 8.875 17.3663 9.3587 16.8739Z" fill="currentColor"/>
<path fill-rule="evenodd" clip-rule="evenodd" d="M26 14C26 7.37258 20.6274 2 14 2C7.37258 2 2 7.37258 2 14C2 20.6274 7.37258 26 14 26H25C25.5523 26 26 25.5523 26 25C26 24.4477 25.5523 24 25 24H20.6356C23.869 21.8502 26 18.1739 26 14ZM14 24C19.5228 24 24 19.5228 24 14C24 8.47715 19.5228 4 14 4C8.47715 4 4 8.47715 4 14C4 19.5228 8.47715 24 14 24Z" fill="currentColor"/>
</svg>
