<svg fill="none" height="28" viewBox="0 0 28 28" width="28" xmlns="http://www.w3.org/2000/svg"><g clip-rule="evenodd" fill="currentColor" fill-rule="evenodd"><path d="m4 14c0-5.52285 4.47715-10 10-10 5.5228 0 10 4.47715 10 10 0 5.5228-4.4772 10-10 10-5.52285 0-10-4.4772-10-10zm16.6356 10c3.2334-2.1498 5.3644-5.8261 5.3644-10 0-6.62742-5.3726-12-12-12-6.62742 0-12 5.37258-12 12 0 6.6274 5.37258 12 12 12h11c.5523 0 1-.4477 1-1s-.4477-1-1-1z"/><path d="m7.5 10.25c0-1.51878 1.23122-2.75 2.75-2.75 1.5188 0 2.75 1.23122 2.75 2.75 0 1.5188-1.2312 2.75-2.75 2.75-1.51878 0-2.75-1.2312-2.75-2.75zm2.75-.75c-.41421 0-.75.33579-.75.75 0 .4142.33579.75.75.75.4142 0 .75-.3358.75-.75 0-.41421-.3358-.75-.75-.75z"/><path d="m10.25 15c-1.51878 0-2.75 1.2312-2.75 2.75s1.23122 2.75 2.75 2.75c1.5188 0 2.75-1.2312 2.75-2.75s-1.2312-2.75-2.75-2.75zm-.75 2.75c0-.4142.33579-.75.75-.75.4142 0 .75.3358.75.75s-.3358.75-.75.75c-.41421 0-.75-.3358-.75-.75z"/><path d="m15 10.25c0-1.51878 1.2312-2.75 2.75-2.75s2.75 1.23122 2.75 2.75c0 1.5188-1.2312 2.75-2.75 2.75s-2.75-1.2312-2.75-2.75zm2.75-.75c-.4142 0-.75.33579-.75.75 0 .4142.3358.75.75.75s.75-.3358.75-.75c0-.41421-.3358-.75-.75-.75z"/><path d="m17.75 15c-1.5188 0-2.75 1.2312-2.75 2.75s1.2312 2.75 2.75 2.75 2.75-1.2312 2.75-2.75-1.2312-2.75-2.75-2.75zm-.75 2.75c0-.4142.3358-.75.75-.75s.75.3358.75.75-.3358.75-.75.75-.75-.3358-.75-.75z"/></g></svg>
