<svg fill="none" height="28" viewBox="0 0 28 28" width="28" xmlns="http://www.w3.org/2000/svg"><g fill="currentColor"><path d="m22.1813 5.26796c-.4043-.37625-1.0371-.35351-1.4133.05079-.3763.4043-.3536 1.03705.0507 1.4133 1.9621 1.82595 3.1813 4.40735 3.1813 7.26795 0 2.8605-1.2192 5.4419-3.1813 7.2679-.4043.3762-.427 1.009-.0507 1.4133.3762.4043 1.009.427 1.4133.0508 2.348-2.1852 3.8187-5.2885 3.8187-8.732s-1.4707-6.54692-3.8187-8.73204z"/><path d="m8.99994 17.8042c0 4.2839-3.99994 6.326-6.02511 4.3009-1.974845-2.105-.97473-6.105 4.02257-6.5016 0 0 .0248-4.3455-.00012-6.10202-.02492-1.75654.98796-2.99994 2.61988-3.54035.27623-.08514.52874-.16493.76854-.24067.8334-.2633 1.5118-.47765 2.4917-.69755.5273-.11836 1.0311.23693 1.1114.74829l.0111 2.02887c0 1.40278-.8863 2.73903-2.2 3.20003l-2.79996.8021z"/><path d="m17.3001 8.38678c.3945-.38655 1.0276-.38013 1.4141.01434 1.413 1.44187 2.2858 3.41948 2.2858 5.59888s-.8728 4.157-2.2858 5.5989c-.3865.3944-1.0196.4009-1.4141.0143-.3945-.3865-.4009-1.0197-.0143-1.4141 1.0614-1.0832 1.7142-2.5639 1.7142-4.1991s-.6528-3.1159-1.7142-4.19908c-.3866-.39447-.3802-1.0276.0143-1.41414z"/></g></svg>
