<?xml version="1.0" encoding="UTF-8"?>
<svg width="28px" height="28px" viewBox="0 0 28 28" version="1.1" xmlns="http://www.w3.org/2000/svg" xmlns:xlink="http://www.w3.org/1999/xlink">
    <!-- Generator: Sketch 63.1 (92452) - https://sketch.com -->
    <title>music_mic_outline_28</title>
    <desc>Created with Sketch.</desc>
    <g id="Page-1" stroke="none" stroke-width="1" fill="none" fill-rule="evenodd">
        <g id="music_mic_outline_28">
            <polygon points="0 0 28 0 28 28 0 28"></polygon>
            <path d="M14.3446878,16.7714705 C14.7572363,16.4074766 15.3867642,16.4468199 15.7507775,16.8593464 C16.1147909,17.2718728 16.0754455,17.9013669 15.6628969,18.2653608 L9.17928075,24.2202786 C7.94506816,25.3092314 6.07683427,25.2509091 4.91295586,24.087093 C3.74907745,22.923277 3.69075205,21.0551431 4.77976315,19.8209966 L9.73937146,13.337085 C10.1033849,12.9245586 10.7329127,12.8852152 11.1454612,13.2492091 C11.5580097,13.613203 11.5973552,14.2426971 11.2333418,14.6552235 L6.27373349,21.1391352 C5.88082022,21.584413 5.90186392,22.2584324 6.32178918,22.6783352 C6.74171445,23.0982379 7.41576991,23.1192805 7.86107162,22.7263883 L14.3446878,16.7714705 Z M14.2573593,13.7426407 C11.9142136,11.3994949 11.9142136,7.60050506 14.2573593,5.25735931 C16.6005051,2.91421356 20.3994949,2.91421356 22.7426407,5.25735931 C25.0857864,7.60050506 25.0857864,11.3994949 22.7426407,13.7426407 C20.3994949,16.0857864 16.6005051,16.0857864 14.2573593,13.7426407 Z M15.6715729,12.4284271 C17.23367,13.9905243 19.76633,13.9905243 21.3284271,12.4284271 C22.8905243,10.86633 22.8905243,8.33367004 21.3284271,6.77157288 C19.76633,5.20947571 17.23367,5.20947571 15.6715729,6.77157288 C14.1094757,8.33367004 14.1094757,10.86633 15.6715729,12.4284271 Z" id="↳-Icon-Color" fill="currentColor" fill-rule="nonzero"></path>
        </g>
    </g>
</svg>
