<svg xmlns="http://www.w3.org/2000/svg" width="28" height="28" fill="none" viewBox="0 0 28 28"><path fill="currentColor" fill-rule="evenodd" d="M13.9252 4h-.0321c-.0636 0-.1194 0-.1752.002a3 3 0 0 0-1.9312.8 4.6076 4.6076 0 0 0-.1253.1224L6.5858 10H5.3639c-.389 0-.7392 0-1.0305.0238-.312.0255-.6435.0832-.9684.2487a2.5 2.5 0 0 0-1.0925 1.0925c-.1656.3249-.2233.6564-.2487.9684C2 12.6247 2 12.9748 2 13.3639v1.2722c0 .3891 0 .7393.0238 1.0306.0254.3119.0831.6434.2487.9683a2.4995 2.4995 0 0 0 1.0925 1.0925c.325.1656.6564.2233.9684.2488.2913.0238.6414.0237 1.0305.0237h1.2219l5.0755 5.0756c.045.0449.0845.0845.1254.1225a3.0002 3.0002 0 0 0 1.9312.7999c.0557.002.1116.002.1751.002h.0322c.0661.0001.1467.0002.2221-.0054.9884-.073 1.7743-.8589 1.8473-1.8473a3.0577 3.0577 0 0 0 .0054-.222V6.0748a3.0582 3.0582 0 0 0-.0054-.222c-.073-.9885-.8589-1.7744-1.8473-1.8474C14.0719 4 13.9913 4 13.9252 4Zm-.019 2c.0461 0 .0713 0 .0897.0003h.0038v.0038C14 6.0226 14 6.0477 14 6.0939v15.8123c0 .0461 0 .0713-.0003.0897v.0038l-.0038.0001C13.9775 22 13.9523 22 13.9062 22a3.3805 3.3805 0 0 1-.1146-.0007.9994.9994 0 0 1-.6437-.2666 3.4837 3.4837 0 0 1-.0815-.0805L7.754 16.3398l-.001-.0009a1.5845 1.5845 0 0 0-.0528-.0509 1.0988 1.0988 0 0 0-.1669-.1259 1.1018 1.1018 0 0 0-.318-.1317 1.104 1.104 0 0 0-.207-.029C6.9754 15.9999 6.9424 16 6.935 16H5.4c-.4365 0-.7038-.0008-.9038-.0171-.0931-.0076-.1495-.0172-.1837-.0252a.3263.3263 0 0 1-.0317-.009c-.0052-.0019-.0074-.003-.0078-.0032a.4997.4997 0 0 1-.2185-.2185.0757.0757 0 0 1-.0032-.0078.297.297 0 0 1-.009-.0317c-.008-.0342-.0176-.0906-.0252-.1837C4.0008 15.3038 4 15.0366 4 14.6v-1.2c0-.4365.0008-.7038.0171-.9037.0076-.0932.0172-.1496.0252-.1838a.297.297 0 0 1 .009-.0317c.0019-.0052.003-.0074.0032-.0078a.5002.5002 0 0 1 .2185-.2185.0757.0757 0 0 1 .0078-.0032.307.307 0 0 1 .0317-.0089c.0342-.0081.0906-.0177.1837-.0253.2-.0163.4673-.0171.9038-.0171h1.535c.0075 0 .0404.0001.0734-.0014a1.099 1.099 0 0 0 .6919-.2865c.0243-.0223.0476-.0457.0528-.0509l.0009-.0009 5.3124-5.3124a3.5835 3.5835 0 0 1 .0815-.0805.9997.9997 0 0 1 .6437-.2667A3.7141 3.7141 0 0 1 13.9062 6Z M25.7071 10.2929c.3905.3905.3905 1.0237 0 1.4142L23.4142 14l2.2929 2.2929c.3905.3905.3905 1.0237 0 1.4142-.3905.3905-1.0237.3905-1.4142 0L22 15.4142l-2.2929 2.2929c-.3905.3905-1.0237.3905-1.4142 0-.3905-.3905-.3905-1.0237 0-1.4142L20.5858 14l-2.2929-2.2929c-.3905-.3905-.3905-1.0237 0-1.4142.3905-.3905 1.0237-.3905 1.4142 0L22 12.5858l2.2929-2.2929c.3905-.3905 1.0237-.3905 1.4142 0Z"/></svg>
