<?xml version="1.0" encoding="UTF-8"?>
<svg width="28px" height="28px" viewBox="0 0 28 28" version="1.1" xmlns="http://www.w3.org/2000/svg" xmlns:xlink="http://www.w3.org/1999/xlink">
    <!-- Generator: Sketch 63.1 (92452) - https://sketch.com -->
    <title>mute_outline_28</title>
    <desc>Created with Sketch.</desc>
    <g id="Page-1" stroke="none" stroke-width="1" fill="none" fill-rule="evenodd">
        <g id="mute_outline_28">
            <rect x="0" y="0" width="28" height="28"></rect>
            <path d="M7.61289944,4.20970461 L7.70710678,4.29289322 L23.7071068,20.2928932 C24.0976311,20.6834175 24.0976311,21.3165825 23.7071068,21.7071068 C23.3466228,22.0675907 22.7793918,22.0953203 22.3871006,21.7902954 L22.2928932,21.7071068 L18,17.415 L18,22 C18,23.1045695 17.1045695,24 16,24 C15.1699531,24 14.3710697,23.697743 13.7505009,23.1541811 L13.5857864,23 L8.58578644,18 L6.45833333,18 C5.15494132,18 4.08846197,16.9856563 4.00522905,15.7033028 L4,15.5416667 L4,12.4583333 C4,11.1549413 5.01434367,10.088462 6.29669724,10.0052291 L6.45833333,10 L8.58578644,10 L9.585,9 L6.29289322,5.70710678 C5.93240926,5.34662282 5.90467972,4.77939176 6.20970461,4.38710056 L6.29289322,4.29289322 C6.65337718,3.93240926 7.22060824,3.90467972 7.61289944,4.20970461 Z M11,10.415 L9.70710678,11.7071068 C9.55082647,11.8633871 9.34814508,11.9625983 9.13144398,11.9913276 L9,12 L6.45833333,12 C6.23332844,12 6.04619233,12.1621356 6.00738436,12.3759473 L6,12.4583333 L6,15.5416667 C6,15.7666716 6.16213556,15.9538077 6.37594734,15.9926156 L6.45833333,16 L9,16 C9.22101374,16 9.43448403,16.0731645 9.60802951,16.2060806 L9.70710678,16.2928932 L15,21.5857864 C15.2320644,21.8178509 15.536476,21.9609348 15.8602224,21.9930798 L16,22 L16,15.415 L11,10.415 Z M16,4 C17.0543618,4 17.9181651,4.81587779 17.9945143,5.85073766 L18,6 L18,10 L18,10 C18,10.5522847 17.5522847,11 17,11 C16.4477153,11 16,10.5522847 16,10 L16,6 C15.6718113,6 15.3553842,6.11407588 15.103731,6.32026918 L15,6.41421356 L14.208,7.208 C14.0297522,7.3577867 13.8006449,7.45 13.55,7.45 C12.9977153,7.45 12.55,7.00228475 12.55,6.45 C12.55,6.19935509 12.6422133,5.97024775 12.7945649,5.79475295 L12.793,5.793 L12.8260737,5.76012009 C12.8368415,5.74882423 12.847871,5.73778006 12.8591525,5.72699728 L13.5857864,5 C14.2260757,4.35971075 15.0944943,4 16,4 Z" id="↳-Icon-Color" fill="currentColor" fill-rule="nonzero"></path>
        </g>
    </g>
</svg>
