<?xml version="1.0" encoding="UTF-8"?>
<svg width="28px" height="28px" viewBox="0 0 28 28" version="1.1" xmlns="http://www.w3.org/2000/svg" xmlns:xlink="http://www.w3.org/1999/xlink">
    <!-- Generator: Sketch 63.1 (92452) - https://sketch.com -->
    <title>name_tag_outline_28</title>
    <desc>Created with Sketch.</desc>
    <g id="Page-1" stroke="none" stroke-width="1" fill="none" fill-rule="evenodd">
        <g id="name_tag_outline_28" fill-rule="nonzero">
            <rect opacity="0.527120536" x="0" y="0" width="28" height="28"></rect>
            <path d="M10.409713,5 C11.7430463,5 11.7430463,7 10.409713,7 L9.85233093,7.00487869 C8.37304553,7.03292843 7.71067802,7.18533873 7.0294846,7.54964496 C6.38893826,7.89221289 5.89221289,8.38893826 5.54964496,9.0294846 C5.18533873,9.71067802 5.03292843,10.3730455 5.00487869,11.8523309 L5,12.409713 L5,17.590287 C5,19.4713639 5.14247918,20.2091816 5.54964496,20.9705154 C5.89221289,21.6110617 6.38893826,22.1077871 7.0294846,22.450355 C7.71067802,22.8146613 8.37304553,22.9670716 9.85233093,22.9951213 L10.409713,23 L17.590287,23 C19.4713639,23 20.2091816,22.8575208 20.9705154,22.450355 C21.6110617,22.1077871 22.1077871,21.6110617 22.450355,20.9705154 C22.8146613,20.289322 22.9670716,19.6269545 22.9951213,18.1476691 L23,17.590287 L23,12.409713 L22.9951213,11.8523309 C22.9670716,10.3730455 22.8146613,9.71067802 22.450355,9.0294846 C22.1077871,8.38893826 21.6110617,7.89221289 20.9705154,7.54964496 C20.289322,7.18533873 19.6269545,7.03292843 18.1476691,7.00487869 L17.590287,7 L17.4571122,6.99302964 C16.3013453,6.86903932 16.3013453,5.13096068 17.4571122,5.00697036 L17.590287,5 L18,5 L18.071,5.003 L18.2433558,5.00694585 C19.8917206,5.04454361 20.8240864,5.23917149 21.7416685,5.69705453 L21.9137131,5.78601856 C22.9027964,6.31498609 23.6850139,7.09720359 24.2139814,8.08628688 C24.7665869,9.11956932 24.9776075,10.1160951 24.9982895,12.0742744 L25,12.409713 L25,17.590287 C25,19.7732933 24.7972872,20.8230261 24.2139814,21.9137131 C23.6850139,22.9027964 22.9027964,23.6850139 21.9137131,24.2139814 C20.8804307,24.7665869 19.8839049,24.9776075 17.9257256,24.9982895 L10.409713,25 C8.22670673,25 7.1769739,24.7972872 6.08628688,24.2139814 C5.09720359,23.6850139 4.31498609,22.9027964 3.78601856,21.9137131 C3.23341307,20.8804307 3.02239246,19.8839049 3.00171053,17.9257256 L3,12.409713 C3,10.2267067 3.20271276,9.1769739 3.78601856,8.08628688 C4.31498609,7.09720359 5.09720359,6.31498609 6.08628688,5.78601856 C7.06216474,5.26411337 8.00525656,5.04689347 9.75664418,5.00694585 L9.928,5.003 L10,5 L10.409713,5 Z M15,17 C15.5522847,17 16,17.4477153 16,18 C16,18.5522847 15.5522847,19 15,19 L9,19 C8.44771525,19 8,18.5522847 8,18 C8,17.4477153 8.44771525,17 9,17 L15,17 Z M19,12 C19.5522847,12 20,12.4477153 20,13 C20,13.5522847 19.5522847,14 19,14 L9,14 C8.44771525,14 8,13.5522847 8,13 C8,12.4477153 8.44771525,12 9,12 L19,12 Z M14,3 C14.5522847,3 15,3.44771525 15,4 L15,8 C15,8.55228475 14.5522847,9 14,9 C13.4477153,9 13,8.55228475 13,8 L13,4 C13,3.44771525 13.4477153,3 14,3 Z" id="Combined-Shape" fill="currentColor"></path>
        </g>
    </g>
</svg>
