<svg height="28" viewBox="0 0 28 28" width="28" xmlns="http://www.w3.org/2000/svg"><g fill="none" fill-rule="evenodd"><path d="m0 0h28v28h-28z"/><path d="m15.2977177 2.43478216c.7323537.17093792 1.3770949.54317938 1.8913083 1.09194733.5212747.55630376.8245725 1.1457085 1.1510237 2.29787913l.8447018 3.14544884c.1429418.5334661-.1736407 1.08180304-.7071068 1.22474484s-1.081803-.1736406-1.2247448-.70710675l-.7743058-2.88974834-.1126381-.40229801c-.2149689-.72858114-.3765211-1.02411712-.6363448-1.30140058-.2439572-.26035087-.5390433-.43071891-.8864924-.51181665-.3700463-.08637213-.7067641-.07851244-1.4452183.09960958l-.4047194.10360153-5.12746694 1.37390062c-.85398602.22882487-1.25374718.39461491-1.50882163.58319221l-.06093343.04766873-.13394352.11812193c-.26035088.24395725-.43071892.53904335-.51181666.88649245-.09356981.40088352-.0765481.76265226.14773122 1.63845318l3.24111383 12.1004322c.2764861 1.0318602.4458553 1.3802013.74898287 1.7036986.24395726.2603509.53904336.4307189.88649246.5118167.3389547.079115.6261614.0786812 1.2087829-.0466624l.2056247-.0464697.4490955-.1136121c.5354174-.1354499 1.0792627.1887879 1.2147126.7242053.1257748.4971733-.1448136 1.0016135-.6127959 1.1795885l-.1114094.0351241-.4649674.1174897c-1.0233403.2411659-1.6427813.2615735-2.343642.0979864-.73235365-.1709379-1.37709478-.5431794-1.89130821-1.0919473-.52127473-.5563038-.82457247-1.1457085-1.15102368-2.2978792l-3.25603003-12.1446482c-.35463118-1.32350157-.40467207-2.02673484-.21900927-2.82217472.15194482-.65098106.46294429-1.23273738.93013067-1.72836995l.18251055-.18179216.1788381-.15773343c.49569478-.4116395 1.07724685-.68435734 2.09131834-.97241045l.2627293-.07242204 5.12746693-1.37390063c1.3235016-.35463117 2.0267349-.40467207 2.8221747-.21900926zm5.5443876 9.56521784c2.296328 0 4.1578947 1.8614521 4.1578947 4.1577004 0 2.2427546-.8916073 3.3584521-4.4473231 6.1238386l-1.6464184 1.2804688c-.5330543.4145723-1.2794627.4145723-1.812517 0l-1.6464184-1.2804688c-3.5557158-2.7653865-4.4473231-3.881084-4.4473231-6.1238386 0-2.2962483 1.8615667-4.1577004 4.1578947-4.1577004.9865248 0 1.8947041.2791845 2.70492.8238376l.1371853.0961624.1371853-.0961624c.7365599-.4951392 1.5540813-.7708828 2.4378249-.816926zm0 2c-.803187 0-1.4983466.3008463-2.1352234.9373182l-.3532161.3529915c-.1954613.1948872-.5118703.1948872-.7073316 0l-.3532161-.3529915c-.6368768-.6364719-1.3320364-.9373182-2.1352234-.9373182-1.1917861 0-2.1578947.9660491-2.1578947 2.1577004 0 1.4102008.5840695 2.1410662 3.6751572 4.5450976l1.3248428 1.030202 1.8446958-1.4375532c2.5554925-2.0198583 3.1208973-2.7638282 3.1537395-4.0150201l.0015647-.1227263c0-1.1916513-.9661086-2.1577004-2.1578947-2.1577004z" fill="currentColor" fill-rule="nonzero"/></g></svg>
