<?xml version="1.0" encoding="UTF-8"?>
<svg width="28px" height="28px" viewBox="0 0 28 28" version="1.1" xmlns="http://www.w3.org/2000/svg" xmlns:xlink="http://www.w3.org/1999/xlink">
    <!-- Generator: Sketch 62 (91390) - https://sketch.com -->
    <title>Icons 28/narrative_outline_28</title>
    <desc>Created with Sketch.</desc>
    <g id="Icons-28/narrative_outline_28" stroke="none" stroke-width="1" fill="none" fill-rule="evenodd">
        <g id="narrative_outline_28">
            <rect x="0" y="0" width="28" height="28"></rect>
            <path d="M10.409713,3.00000006 L17.9257256,3.00171059 C19.8839049,3.02239252 20.8804307,3.23341312 21.9137131,3.78601861 C22.9027964,4.31498614 23.6850139,5.09720363 24.2139814,6.08628691 C24.7972872,7.17697392 25.0000001,8.22670674 25.0000001,10.409713 L25.0000001,10.409713 L24.9982894,17.9257256 C24.9776075,19.8839049 24.7665869,20.8804307 24.2139814,21.9137131 C23.6850139,22.9027964 22.9027964,23.6850139 21.9137131,24.2139814 C20.8230261,24.7972872 19.7732933,25.0000001 17.590287,25.0000001 L17.590287,25.0000001 L10.0742744,24.9982894 C8.1160951,24.9776075 7.11956934,24.7665869 6.08628691,24.2139814 C5.09720363,23.6850139 4.31498614,22.9027964 3.78601861,21.9137131 C3.20271282,20.8230261 3.00000006,19.7732933 3.00000006,17.590287 L3.00000006,17.590287 L3.00171059,10.0742744 C3.02239252,8.1160951 3.23341312,7.11956934 3.78601861,6.08628691 C4.31498614,5.09720363 5.09720363,4.31498614 6.08628691,3.78601861 C7.17697392,3.20271282 8.22670674,3.00000006 10.409713,3.00000006 L10.409713,3.00000006 Z M17.590287,4.99999994 L10.409713,4.99999994 C8.52863614,4.99999994 7.7908184,5.14247912 7.02948457,5.5496449 C6.38893822,5.89221284 5.89221284,6.38893822 5.5496449,7.02948457 C5.18533867,7.710678 5.03292837,8.37304552 5.00487863,9.85233093 L5.00487863,9.85233093 L4.99999994,10.409713 L4.99999994,17.590287 C4.99999994,19.4713639 5.14247912,20.2091816 5.5496449,20.9705154 C5.89221284,21.6110618 6.38893822,22.1077872 7.02948457,22.4503551 C7.710678,22.8146613 8.37304552,22.9670716 9.85233093,22.9951214 L9.85233093,22.9951214 L10.409713,22.9999999 L17.590287,22.9999999 C19.4713639,22.9999999 20.2091816,22.8575209 20.9705154,22.4503551 C21.6110618,22.1077872 22.1077872,21.6110618 22.4503551,20.9705154 C22.8146613,20.289322 22.9670716,19.6269545 22.9951214,18.1476691 L22.9951214,18.1476691 L22.9999999,17.590287 L22.9999999,10.409713 C22.9999999,8.52863614 22.8575209,7.7908184 22.4503551,7.02948457 C22.1077872,6.38893822 21.6110618,5.89221284 20.9705154,5.5496449 C20.289322,5.18533867 19.6269545,5.03292837 18.1476691,5.00487863 L18.1476691,5.00487863 L17.590287,4.99999994 Z M18,19 C18.5522847,19 19,19.4477153 19,20 C19,20.5128358 18.6139598,20.9355072 18.1166211,20.9932723 L18,21 L10,21 C9.44771525,21 9,20.5522847 9,20 C9,19.4871642 9.38604019,19.0644928 9.88337887,19.0067277 L10,19 L18,19 Z M14,7 C16.7614237,7 19,9.23857625 19,12 C19,14.7614237 16.7614237,17 14,17 C11.2385763,17 9,14.7614237 9,12 C9,9.23857625 11.2385763,7 14,7 Z M14,9 C12.3431458,9 11,10.3431458 11,12 C11,13.6568542 12.3431458,15 14,15 C15.6568542,15 17,13.6568542 17,12 C17,10.3431458 15.6568542,9 14,9 Z" id="↳-Icon-Color" fill="currentColor" fill-rule="nonzero"></path>
        </g>
    </g>
</svg>
