<svg width="28" height="28" fill="none" xmlns="http://www.w3.org/2000/svg"><path d="M15.298 2.435c.732.17 1.377.543 1.891 1.092.521.556.825 1.145 1.151 2.298l.845 3.145a1 1 0 1 1-1.932.518l-.774-2.89-.113-.402c-.215-.729-.377-1.024-.636-1.302a1.726 1.726 0 0 0-.887-.512c-.37-.086-.707-.078-1.445.1l-.405.104L7.866 5.96c-.854.228-1.254.394-1.51.583l-.06.047-.134.119c-.26.243-.43.539-.512.886-.093.4-.076.763.148 1.638l3.241 12.1c.277 1.033.446 1.381.749 1.705.244.26.54.43.886.511.34.08.627.08 1.21-.046l.205-.047.449-.113a1 1 0 0 1 .602 1.904l-.112.035-.464.117c-1.024.241-1.643.262-2.344.098a3.726 3.726 0 0 1-1.891-1.092c-.522-.556-.825-1.146-1.151-2.298L3.922 9.963c-.355-1.324-.405-2.027-.22-2.823a3.722 3.722 0 0 1 .93-1.728l.183-.182.179-.157c.496-.412 1.077-.685 2.091-.973l.263-.072 5.128-1.374c1.323-.355 2.026-.405 2.822-.22zM20.842 12A4.158 4.158 0 0 1 25 16.158c0 2.242-.892 3.358-4.447 6.123l-1.647 1.281a1.476 1.476 0 0 1-1.812 0l-1.647-1.28C11.892 19.516 11 18.4 11 16.158A4.158 4.158 0 0 1 15.158 12c.986 0 1.895.28 2.705.824l.137.096.137-.096a4.752 4.752 0 0 1 2.438-.817l.267-.007z" fill="currentColor"/></svg>
