<svg xmlns="http://www.w3.org/2000/svg" width="28" height="28" fill="none" viewBox="0 0 28 28"><path fill="currentColor" fill-rule="evenodd" d="M11.9562 3c-1.363 0-2.447 0-3.3216.0714-.8956.0732-1.6593.2263-2.3585.5826A6 6 0 0 0 3.654 6.276c-.5116 1.004-.6134 2.1696-.6428 3.7049C3 10.5675 3 11.2349 3 11.9924v4.0514c0 1.363 0 2.447.0714 3.3216.0732.8956.2263 1.6593.5826 2.3585a5.9997 5.9997 0 0 0 2.622 2.6221c.6993.3563 1.463.5094 2.3586.5826C9.509 25 10.593 25 11.956 25h3.0486c.5523 0 1-.4477 1-1s-.4477-1-1-1H12c-1.4166 0-2.419-.0008-3.2026-.0648-.7719-.0631-1.243-.1825-1.6134-.3712a4.0002 4.0002 0 0 1-1.748-1.748c-.1887-.3703-.3081-.8415-.3712-1.6134C5.0008 18.419 5 17.4166 5 16v-4c0-.3578 0-.69.0011-1h18.9955a1 1 0 0 0 1-1.0092c-.0118-1.2846-.0588-2.2323-.3685-3.0704a6 6 0 0 0-3.5485-3.5485c-.5495-.203-1.1309-.2897-1.806-.3313C18.6134 3 17.8009 3 16.7794 3h-4.8232Zm11.0149 6H5.0504c.0579-.8834.175-1.4025.3856-1.816a4 4 0 0 1 1.748-1.748c.3704-.1887.8415-.3081 1.6134-.3712C9.581 5.0008 10.5834 5 12 5h4.7468c1.0614 0 1.8124.0004 2.404.0369.5837.0359.9463.1041 1.2356.211a4 4 0 0 1 2.3657 2.3657c.1207.3268.1864.7246.219 1.3864Z" clip-rule="evenodd"/><path fill="currentColor" d="M9 14c-.5523 0-1 .4477-1 1s.4477 1 1 1h9c.5523 0 1-.4477 1-1s-.4477-1-1-1H9Zm0 4c-.5523 0-1 .4477-1 1s.4477 1 1 1h7c.5523 0 1-.4477 1-1s-.4477-1-1-1H9Zm9.584 6.3932c1.4127 1.5158 4.0123.0477 4.0123-2.8057v-4.0414l1.8877-.5401.1548-.0514C25.449 16.6475 26 15.823 26 14.8887v-1.2798l-.0068-.0953c-.0496-.3406-.3603-.5772-.6855-.4984-1.0092.2446-1.7137.4296-2.1269.5595l-.1966.0655c-1.0064.3599-1.5378 1.1914-1.5224 2.3614l-.0011 4.094c-2.9377.157-4.3382 2.7295-2.8767 4.2976Z"/></svg>
