<?xml version="1.0" encoding="UTF-8"?>
<svg width="28px" height="28px" viewBox="0 0 28 28" version="1.1" xmlns="http://www.w3.org/2000/svg" xmlns:xlink="http://www.w3.org/1999/xlink">
    <!-- Generator: Sketch 50.2 (55047) - http://www.bohemiancoding.com/sketch -->
    <title>newsfeed_28</title>
    <desc>Created with Sketch.</desc>
    <defs></defs>
    <g id="Page-2" stroke="none" stroke-width="1" fill="none" fill-rule="evenodd">
        <g id="newsfeed_28">
            <rect id="Bounds" x="0" y="0" width="28" height="28"></rect>
            <path d="M22.5000001,9.00000006 L22.5000001,8.3458278 C22.5000001,7.27756756 22.4265593,6.89725994 22.2174878,6.50633028 C22.049227,6.19170985 21.8082902,5.95077305 21.4936697,5.7825122 C21.1027401,5.57344073 20.7224324,5.49999994 19.6541722,5.49999994 L8.3458278,5.49999994 C7.27756756,5.49999994 6.89725994,5.57344073 6.50633028,5.7825122 C6.19170985,5.95077305 5.95077305,6.19170985 5.7825122,6.50633028 C5.57344073,6.89725994 5.49999994,7.27756756 5.49999994,8.3458278 L5.49999994,9.00000006 L22.5000001,9.00000006 Z M22.5000001,10.9999999 L5.49999994,10.9999999 L5.49999994,19.6541722 C5.49999994,20.7224324 5.57344073,21.1027401 5.7825122,21.4936697 C5.95077305,21.8082902 6.19170985,22.049227 6.50633028,22.2174878 C6.89725994,22.4265593 7.27756756,22.5000001 8.3458278,22.5000001 L19.6541722,22.5000001 C20.7224324,22.5000001 21.1027401,22.4265593 21.4936697,22.2174878 C21.8082902,22.049227 22.049227,21.8082902 22.2174878,21.4936697 C22.4265593,21.1027401 22.5000001,20.7224324 22.5000001,19.6541722 L22.5000001,10.9999999 Z M8.3458278,3.50000006 L19.6541722,3.50000006 C21.0243618,3.50000006 21.7165845,3.63367443 22.4368674,4.01888591 C23.1000247,4.37354634 23.6264537,4.89997526 23.9811141,5.56313261 C24.3663256,6.28341546 24.4999999,6.97563816 24.4999999,8.3458278 L24.4999999,19.6541722 C24.4999999,21.0243618 24.3663256,21.7165845 23.9811141,22.4368674 C23.6264537,23.1000247 23.1000247,23.6264537 22.4368674,23.9811141 C21.7165845,24.3663256 21.0243618,24.4999999 19.6541722,24.4999999 L8.3458278,24.4999999 C6.97563816,24.4999999 6.28341546,24.3663256 5.56313261,23.9811141 C4.89997526,23.6264537 4.37354634,23.1000247 4.01888591,22.4368674 C3.63367443,21.7165845 3.50000006,21.0243618 3.50000006,19.6541722 L3.50000006,8.3458278 C3.50000006,6.97563816 3.63367443,6.28341546 4.01888591,5.56313261 C4.37354634,4.89997526 4.89997526,4.37354634 5.56313261,4.01888591 C6.28341546,3.63367443 6.97563816,3.50000006 8.3458278,3.50000006 Z" id="Mask" fill="currentColor" fill-rule="nonzero"></path>
        </g>
    </g>
</svg>
