<svg xmlns="http://www.w3.org/2000/svg" width="28" height="28" fill="currentColor" viewBox="0 0 28 28"><path d="M18.707 12.207a1 1 0 1 0-1.414-1.414L12.5 15.586l-1.793-1.793a1 1 0 0 0-1.414 1.414l2.5 2.5a1 1 0 0 0 1.414 0l5.5-5.5Z M11.827 2.07a2.708 2.708 0 0 0-2.524.723l-6.51 6.51a2.708 2.708 0 0 0-.724 2.524l2.264 9.81a2.708 2.708 0 0 0 2.03 2.03l9.81 2.264c.91.21 1.864-.064 2.524-.724l6.51-6.51c.66-.66.934-1.614.724-2.523l-2.264-9.811a2.708 2.708 0 0 0-2.03-2.03l-9.81-2.264Zm-1.11 2.137a.707.707 0 0 1 .66-.189l9.81 2.264c.264.061.47.267.53.53l2.265 9.811a.708.708 0 0 1-.19.66l-6.51 6.51a.708.708 0 0 1-.659.189l-9.81-2.264a.708.708 0 0 1-.53-.53l-2.265-9.811a.707.707 0 0 1 .19-.66l6.51-6.51Z" clip-rule="evenodd"/></svg>
