<svg xmlns="http://www.w3.org/2000/svg" width="28" height="29" fill="currentColor" viewBox="0 0 28 29"><path fill-rule="evenodd" d="m21.267 6.457-6.031-2.964c-.88-.432-.982-.463-1.054-.476a1 1 0 0 0-.364 0c-.072.013-.174.044-1.054.476L6.733 6.457c-.858.422-.943.482-.997.53a1 1 0 0 0-.22.279c-.034.063-.072.16-.281 1.093l-1.525 6.82c-.206.92-.212 1.023-.21 1.093a1 1 0 0 0 .078.343c.028.066.077.155.658.899l4.23 5.412c.598.766.677.838.735.881a1 1 0 0 0 .325.159c.07.02.174.037 1.147.037h6.654c.973 0 1.077-.018 1.147-.037a1 1 0 0 0 .325-.159c.059-.043.137-.115.735-.88l4.23-5.413c.581-.744.63-.833.658-.899a1 1 0 0 0 .077-.343c.003-.07-.003-.173-.209-1.093l-1.525-6.82c-.209-.933-.248-1.03-.281-1.093a1 1 0 0 0-.22-.28c-.054-.047-.139-.107-.997-.529ZM13.455 1.05c-.407.075-.796.266-1.573.648L5.85 4.662c-.758.373-1.138.56-1.44.828a3 3 0 0 0-.66.838c-.19.357-.283.77-.467 1.594l-1.526 6.82c-.182.814-.273 1.22-.255 1.62a3 3 0 0 0 .232 1.029c.155.368.412.697.925 1.354l4.23 5.413c.53.677.794 1.015 1.125 1.26.293.215.623.376.974.474.396.11.825.11 1.685.11h6.654c.86 0 1.29 0 1.685-.11.351-.098.681-.259.974-.475.331-.244.596-.582 1.125-1.26l4.23-5.412c.513-.657.77-.986.925-1.354.137-.327.216-.675.232-1.029.018-.4-.073-.806-.255-1.62l-1.526-6.82c-.184-.824-.276-1.237-.466-1.594a3 3 0 0 0-.66-.838c-.303-.269-.683-.455-1.441-.828l-6.032-2.964c-.777-.382-1.166-.573-1.573-.648a3.002 3.002 0 0 0-1.09 0Z M18.286 10.293a1.006 1.006 0 0 1 1.42 0c.39.39.39 1.029 0 1.42l-7.003 6.997a1 1 0 0 1-1.414 0l-3.5-3.5a1 1 0 1 1 1.414-1.415l2.793 2.793 6.29-6.296Z"/></svg>
