<svg xmlns="http://www.w3.org/2000/svg" width="28" height="28" fill="currentColor" viewBox="0 0 28 28"><path d="M18 13a1 1 0 1 0 0 2h1.5a1 1 0 1 0 0-2H18Z"/><path fill-rule="evenodd" d="M2 14C2 7.373 7.373 2 14 2s12 5.373 12 12-5.373 12-12 12S2 20.627 2 14Zm3.929-5.905A9.955 9.955 0 0 0 4 14c0 5.523 4.477 10 10 10 2.209 0 4.25-.716 5.905-1.929L12.833 15H8.5a1 1 0 1 1 0-2h2.333L5.93 8.095Zm1.338-1.49 14.127 14.128A9.964 9.964 0 0 0 24 14c0-5.523-4.477-10-10-10a9.964 9.964 0 0 0-6.732 2.606Z" clip-rule="evenodd"/></svg>
