<svg fill="none" height="28" viewBox="0 0 28 28" width="28" xmlns="http://www.w3.org/2000/svg"><g fill="currentColor"><path d="m18.9071 10.2929c.3905.3905.3905 1.0237 0 1.4142l-5.6 5.6c-.3876.3876-1.015.3909-1.4067.0075l-2.59997-2.5455c-.39464-.3864-.40135-1.0195-.01499-1.4141.38636-.3947 1.01946-.4014 1.41416-.015l1.8929 1.8532 4.9004-4.9003c.3905-.39053 1.0237-.39053 1.4142 0z"/><path clip-rule="evenodd" d="m10 2.5c0-.55228-.44771-1-1-1-.55228 0-1 .44772-1 1v.6419c-.45313.07718-.87233.20047-1.26995.40307-.94081.47936-1.70571 1.24427-2.18508 2.18508-.30179.59229-.4276 1.23248-.48715 1.96133-.05784.70788-.05783 1.58203-.05782 2.66582v7.2856c-.00001 1.0838-.00002 1.958.05782 2.6658.05955.7289.18536 1.3691.48715 1.9614.47937.9408 1.24427 1.7057 2.18508 2.185.59229.3018 1.23248.4276 1.96133.4872.70785.0578 1.58192.0578 2.66572.0578h5.2857c1.0838 0 1.958 0 2.6658-.0578.7289-.0596 1.3691-.1854 1.9614-.4872.9408-.4793 1.7057-1.2442 2.185-2.185.3018-.5923.4276-1.2325.4872-1.9614.0578-.7078.0578-1.5819.0578-2.6657v-7.2857c0-1.08376 0-1.95797-.0578-2.66582-.0596-.72885-.1854-1.36904-.4872-1.96133-.4793-.94081-1.2442-1.70572-2.185-2.18508-.3977-.2026-.8169-.32589-1.27-.40307v-.6419c0-.55228-.4477-1-1-1s-1 .44772-1 1v.50549c-.4115-.0055-.8625-.00549-1.3572-.00549h-1.6428v-.5c0-.55228-.4477-1-1-1s-1 .44772-1 1v.5h-1.6428c-.4947 0-.9457-.00001-1.3572.00549zm8 2.5057c-.4015-.00553-.8622-.0057-1.4-.0057h-1.6v.5c0 .55228-.4477 1-1 1s-1-.44772-1-1v-.5h-1.6c-.5378 0-.9985.00017-1.4.0057v.4943c0 .55228-.44771 1-1 1-.55228 0-1-.44772-1-1v-.31225c-.1409.03983-.25801.08626-.36197.13923-.56449.28762-1.02343.74656-1.31105 1.31105-.13419.26335-.22636.61104-.2758 1.21621-.0504.61684-.05118 1.40916-.05118 2.54576v7.2c0 1.1366.00078 1.9289.05118 2.5458.04944.6051.14161.9528.2758 1.2162.28762.5645.74656 1.0234 1.31105 1.311.26335.1342.61104.2264 1.21621.2758.61684.0504 1.40916.0512 2.54576.0512h5.2c1.1366 0 1.9289-.0008 2.5458-.0512.6051-.0494.9528-.1416 1.2162-.2758.5645-.2876 1.0234-.7465 1.311-1.311.1342-.2634.2264-.6111.2758-1.2162.0504-.6169.0512-1.4092.0512-2.5458v-7.2c0-1.13661-.0008-1.92892-.0512-2.54576-.0494-.60517-.1416-.95286-.2758-1.21621-.2876-.56449-.7465-1.02343-1.311-1.31105-.104-.05297-.2211-.0994-.362-.13923v.31225c0 .55228-.4477 1-1 1s-1-.44772-1-1z" fill-rule="evenodd"/></g></svg>
