<svg xmlns="http://www.w3.org/2000/svg" width="28" height="28" fill="currentColor" viewBox="0 0 28 28"><path d="m14.005 3.5.112.007A1 1 0 0 1 14 5.5l.003-.001-.223.005C10.503 5.628 8 8.445 8 12.08v1.828c0 .928-.384 1.617-1.212 2.592l-.28.328c-.76.88-1.008 1.298-1.008 1.761 0 .226.016.347.068.457.124.264.488.455 1.432.455h14c.914 0 1.286-.192 1.423-.46.059-.117.077-.241.077-.452V18.5l.007-.117a1 1 0 0 1 1.993.117v.088c0 .501-.057.89-.294 1.358C23.7 20.94 22.618 21.5 21 21.5h-2.601C17.73 23.766 16.212 25 14 25s-3.731-1.235-4.399-3.5H7c-1.665 0-2.758-.574-3.242-1.604-.21-.446-.258-.809-.258-1.308 0-1.113.425-1.83 1.493-3.068.139-.16.203-.235.27-.314.539-.635.737-.99.737-1.299V12.08C6 7.296 9.472 3.5 14.005 3.5Zm2.274 18h-4.558C12.17 22.544 12.899 23 14 23s1.829-.457 2.28-1.5Z"/><path fill-rule="evenodd" d="M22 3a6 6 0 1 0 0 12 6 6 0 0 0 0-12Zm2.78 4.22a.75.75 0 0 0-1.06 0l-2.47 2.47-.97-.97a.75.75 0 1 0-1.06 1.06l1.5 1.5a.75.75 0 0 0 1.06 0l3-3a.75.75 0 0 0 0-1.06Z" clip-rule="evenodd"/></svg>
