<svg fill="none" height="28" viewBox="0 0 28 28" width="28" xmlns="http://www.w3.org/2000/svg" xmlns:xlink="http://www.w3.org/1999/xlink"><linearGradient id="a" gradientUnits="userSpaceOnUse" x1="-14" x2="14" y1="14" y2="42"><stop offset="0" stop-color="#b1b6bd"/><stop offset="1" stop-color="#99a2ad"/></linearGradient><path d="m0 14c0-7.73199 6.26801-14 14-14 7.732 0 14 6.26801 14 14 0 7.732-6.268 14-14 14-7.73199 0-14-6.268-14-14z" fill="url(#a)"/><path d="m15.8169 19.5c-.1636.8544-.9149 1.5-1.8169 1.5s-1.6533-.6456-1.8169-1.5zm-6.3169-1.5c-1 0-1.5-.3334-1.5-1 0-1 1.5-1 1.5-2.5v-3c0-2.21244 1.5966-4.05193 3.7004-4.42922l-.0004-.07083c0-.44183.3582-.8.8-.8s.8.35817.8.8l.0006.07101c2.1033.37769 3.6994 2.21695 3.6994 4.42904v3c0 1.5 1.5 1.5 1.5 2.5 0 .6666-.5 1-1.5 1z" fill="#fff"/></svg>
