<svg fill="none" height="28" viewBox="0 0 28 28" width="28" xmlns="http://www.w3.org/2000/svg"><path d="m13.9546 3.34998c.78 0 1.5426.11556 2.2707.3414.4747.14725.7402.65147.593 1.12622-.1473.47474-.6515.74023-1.1262.59298-.5555-.17228-1.1383-.2606-1.7375-.2606-3.3474 0-5.98762 2.75973-6.10083 6.43272l-.00378.2462v1.8282c0 .5193-.14838.9946-.41251 1.4617-.15411.2726-.3509.5493-.61138.8688l-.23258.2775-.35908.4179-.25164.3037-.20047.2587c-.3534.4781-.43234.7382-.43234 1.0928l.00418.202c.00769.1351.02766.2007.07324.2977.1329.2827.49987.4838 1.33631.5093l.18651.0028h13.99947c.9368 0 1.3565-.2093 1.5122-.5154.0719-.1415.0881-.2219.0881-.4964 0-.3839-.0928-.6569-.5275-1.2166l-.2259-.2802-.2798-.3295c-.3251-.3761-.2837-.9444.0924-1.2694.376-.3251.9444-.2837 1.2694.0924 1.1306 1.3081 1.4714 1.9792 1.4714 3.0033 0 .5395-.0716.8951-.2836 1.3121-.4665.9177-1.4373 1.4396-2.8606 1.4948l-.2559.0049h-2.6765l-.0205.0723c-.3281 1.1124-.8635 1.9702-1.5869 2.549-.7262.5809-1.6389.8787-2.716.8787s-1.9899-.2978-2.7161-.8788c-.663-.5304-1.1681-1.2953-1.50047-2.276l-.10805-.3452h-2.67539c-1.61187 0-2.68021-.5438-3.15153-1.5463-.18801-.3999-.24847-.7298-.24847-1.2655 0-.9667.3034-1.6191 1.28781-2.7906l.45154-.5272c.27701-.3267.46227-.5771.58123-.7875.09785-.1731.15397-.3247.1725-.4689l.00692-.1069v-1.8282c0-4.76141 3.45855-8.47892 7.90461-8.47892zm2.4213 17.80172h-4.8518c.2172.5469.5003.9468.8343 1.214.3954.3163.9102.4843 1.5916.4843s1.1961-.1679 1.5915-.4843c.3341-.2673.6172-.6672.8344-1.214zm3.5741-16.40172c.5128 0 .9355.38604.9933.88338l.0067.11662v2.5h2.5c.5523 0 1 .44772 1 1 0 .51285-.3861.93552-.8834.99322l-.1166.0068h-2.5v2.5c0 .5523-.4477 1-1 1-.5129 0-.9355-.3861-.9933-.8834l-.0067-.1166v-2.5h-2.5c-.5523 0-1-.44772-1-1.00002 0-.51284.386-.93551.8834-.99328l.1166-.00672h2.5v-2.5c0-.55228.4477-1 1-1z" fill="currentColor"/></svg>
