<?xml version="1.0" encoding="UTF-8"?>
<svg width="28px" height="28px" viewBox="0 0 28 28" version="1.1" xmlns="http://www.w3.org/2000/svg" xmlns:xlink="http://www.w3.org/1999/xlink">
    <!-- Generator: Sketch 63.1 (92452) - https://sketch.com -->
    <title>notification_disable_outline_28</title>
    <desc>Created with Sketch.</desc>
    <g id="Page-1" stroke="none" stroke-width="1" fill="none" fill-rule="evenodd">
        <g id="notification_disable_outline_28">
            <rect x="0" y="0" width="28" height="28"></rect>
            <path d="M4.29289322,4.29289322 C4.68341751,3.90236893 5.31658249,3.90236893 5.70710678,4.29289322 L5.70710678,4.29289322 L24.0918831,22.6776695 C24.4824074,23.0681938 24.4824074,23.7013588 24.0918831,24.0918831 C23.7013588,24.4824074 23.0681938,24.4824074 22.6776695,24.0918831 L22.6776695,24.0918831 L20.0818157,21.4967012 C20.0548323,21.4988862 20.0275462,21.5 20,21.5 L18.3988532,21.5006982 C17.7309515,23.7645264 16.2123212,24.9999999 14,24.9999999 C11.7876788,24.9999999 10.2690485,23.7645264 9.6011468,21.5006982 L7,21.5 C5.33483077,21.5 4.24202957,20.9258124 3.75797492,19.8962478 C3.54802005,19.4496823 3.5,19.0874607 3.5,18.5882353 C3.5,17.4749766 3.92475347,16.7581996 4.9928315,15.520155 C5.13190601,15.3592125 5.19551502,15.285356 5.26308201,15.205685 C5.80170622,14.5705706 6,14.215121 6,13.9071207 L6,12.0789474 C6,10.7185687 6.28259935,9.4095819 6.81846161,8.23409397 L4.29289322,5.70710678 C3.90236893,5.31658249 3.90236893,4.68341751 4.29289322,4.29289322 Z M16.2794024,21.5008013 L11.7205976,21.5008013 C12.1713889,22.5431725 12.8986588,23.0000001 14,23.0000001 C15.1013412,23.0000001 15.8286111,22.5431725 16.2794024,21.5008013 Z M14.0046028,3.5 C18.5358601,3.5 22,7.29406785 21.9999968,12.0814651 L21.9953972,13.9071207 C21.9953972,14.2146342 22.1940102,14.5700017 22.7335216,15.2049931 C22.8012144,15.2846658 22.8649419,15.3585239 23.0042724,15.5194663 C23.8083681,16.4498073 24.1667405,16.9696046 24.3798237,17.7274431 C24.4589197,18.0087509 24.5,18.2955297 24.5,18.5882353 C24.5,19.14052 24.0522847,19.5882353 23.5,19.5882353 C22.9477153,19.5882353 22.5,19.14052 22.5,18.5882353 C22.5,18.4821958 22.4849559,18.3771742 22.4544829,18.2687958 C22.3480667,17.8903225 22.1042135,17.5366283 21.4911248,16.8272829 C21.3521661,16.6667875 21.2828259,16.5864244 21.2093691,16.4999676 C20.3805492,15.5244674 19.9953972,14.8353358 19.9954004,13.9046031 L20,12.0789474 C20,8.36007608 17.388633,5.5 14.0046028,5.5 C12.9499008,5.5 11.9579208,5.77343853 11.0852647,6.29010234 C10.6100276,6.57147069 9.99667773,6.41430902 9.71530938,5.93907193 C9.43394103,5.46383483 9.5911027,4.85048493 10.0663398,4.56911658 C11.2464932,3.87039624 12.5902163,3.5 14.0046028,3.5 Z M18.086,19.5 L8.36064774,9.77566958 C8.12386309,10.4985445 8,11.2750416 8,12.0789474 L8,13.9071207 C8,14.8348489 7.61560159,15.5238985 6.78840913,16.4992758 C6.71508593,16.5857342 6.64587176,16.6660989 6.5071685,16.8265942 C5.74712153,17.7075898 5.5,18.1246106 5.5,18.5882353 C5.5,18.8143528 5.51596919,18.9348106 5.56791451,19.0452961 C5.69184037,19.3088814 6.05557968,19.5 7,19.5 L18.086,19.5 Z" id="↳-Icon-Color" fill="currentColor" fill-rule="nonzero"></path>
        </g>
    </g>
</svg>
