<svg fill="none" height="28" viewBox="0 0 28 28" width="28" xmlns="http://www.w3.org/2000/svg"><path clip-rule="evenodd" d="m7.96802 2h9.06398c.4387-.00001.8171-.00002 1.1304.02135.3298.02251.6597.07201.9857.20701.735.30449 1.3191.88851 1.6235 1.62359.135.32593.1845.65584.2071.98567.0038.05599.0069.11407.0095.1742.0601.00258.1182.00571.1742.00953.3298.02251.6597.07201.9857.20701.735.30449 1.3191.88851 1.6235 1.62359.135.32593.1845.65584.2071.98567.0213.31326.0213.69174.0213 1.13039v.58056c0 .66073.0001 1.23053-.0473 1.69573-.0501.4932-.1617.9785-.4583 1.4224-.2189.3276-.5001.6088-.8277.8277-.4439.2966-.9292.4082-1.4224.4583-.4652.0474-1.035.0473-1.6957.0473h-4.5486c-.4796 0-.7893.0005-1.0262.0167-.228.0156-.3149.0422-.3565.0594-.245.1015-.4397.2962-.5412.5412-.0172.0416-.0438.1285-.0594.3565-.0162.2369-.0167.5466-.0167 1.0262v.0082c.0476.0023.0938.0051.1382.0088.2286.0186.4984.0627.7698.201.3763.1917.6823.4977.874.874.1383.2714.1824.5412.2011.7698.017.2081.0169.4539.0169.7063v.0319 4.8.0319c0 .2524.0001.4982-.0169.7063-.0187.2286-.0628.4984-.2011.7698-.1917.3763-.4977.6823-.874.874-.2714.1383-.5412.1824-.7698.2011-.2081.017-.4539.0169-.7063.0169h-.8638c-.2524 0-.4982.0001-.7063-.0169-.2286-.0187-.4984-.0628-.7698-.2011-.3763-.1917-.68226-.4977-.87401-.874-.13829-.2714-.18236-.5412-.20104-.7698-.01701-.2081-.01698-.4539-.01695-.7063l.00001-.0319v-4.8l-.00001-.0319c-.00003-.2524-.00006-.4982.01695-.7063.01868-.2286.06275-.4984.20104-.7698.19175-.3763.49771-.6823.87401-.874.2714-.1383.5412-.1824.7698-.201.0444-.0037.0906-.0065.1382-.0088v-.0402c0-.4386 0-.8171.0214-1.1304.0225-.3298.072-.6597.207-.9856.3044-.7351.8885-1.3192 1.6236-1.6236.3259-.135.6558-.1845.9856-.207.3133-.0214.6917-.0214 1.1303-.0214h.0001 4.532c.723 0 1.1901-.0012 1.5419-.037.3351-.0341.4531-.0911.5137-.1315.1092-.073.2029-.1667.2759-.2759.0404-.0606.0974-.1786.1315-.5137.0358-.3518.037-.8189.037-1.5419v-.5c0-.47962-.0005-.78926-.0167-1.02624-.0156-.228-.0422-.31483-.0594-.35644-.1015-.24503-.2962-.4397-.5412-.5412-.0416-.01723-.1285-.04385-.3565-.05941l-.0392-.00249c-.0023.0509-.0051.10029-.0083.14816-.0226.32983-.0721.65974-.2071.98567-.3044.73509-.8885 1.31911-1.6235 1.62359-.326.135-.6559.18451-.9857.20701-.3133.02135-.6917.02135-1.1304.02135h-9.06399-.00004c-.43863 0-.8171 0-1.13035-.02135-.32983-.0225-.65974-.07201-.98567-.20701-.73508-.30448-1.3191-.8885-1.62359-1.62359-.135-.32593-.1845-.65584-.20701-.98567-.02137-.31324-.02136-.69171-.02135-1.13034v-.00006-.06396-.00005c-.00001-.43863-.00002-.8171.02135-1.13035.02251-.32983.07201-.65974.20701-.98567.30449-.73508.88851-1.3191 1.62359-1.62359.32593-.135.65584-.1845.98567-.20701.31325-.02137.69172-.02136 1.13035-.02135zm-.99426 2.01671c-.228.01556-.31483.04218-.35644.05941-.24503.1015-.4397.29617-.5412.5412-.01723.04161-.04385.12844-.05941.35644-.01617.23698-.01671.54662-.01671 1.02624 0 .47963.00054.78926.01671 1.02624.01556.228.04218.31483.05941.35645.1015.24502.29617.4397.5412.54119.04161.01724.12844.04386.35644.05941.23698.01617.54662.01671 1.02624.01671h9c.4796 0 .7893-.00054 1.0262-.01671.228-.01555.3149-.04217.3565-.05941.245-.10149.4397-.29617.5412-.54119.0172-.04162.0438-.12845.0594-.35645.0162-.23698.0167-.54661.0167-1.02624 0-.47962-.0005-.78926-.0167-1.02624-.0156-.228-.0422-.31483-.0594-.35644-.1015-.24503-.2962-.4397-.5412-.5412-.0416-.01723-.1285-.04385-.3565-.05941-.2369-.01617-.5466-.01671-1.0262-.01671h-9c-.47962 0-.78926.00054-1.02624.01671zm4.03654 14.00789.0012-.0131.0131-.0012c.1166-.0095.2789-.0103.5754-.0103h.8c.2965 0 .4588.0008.5754.0103l.0132.0012.0011.0131c.0095.1166.0103.2789.0103.5754v4.8c0 .2965-.0008.4588-.0103.5754l-.0011.0132-.0132.0011c-.1166.0095-.2789.0103-.5754.0103h-.8c-.2965 0-.4588-.0008-.5754-.0103l-.0131-.0011-.0012-.0132c-.0095-.1166-.0103-.2789-.0103-.5754v-4.8c0-.2965.0008-.4588.0103-.5754z" fill="currentColor" fill-rule="evenodd"/></svg>
