<?xml version="1.0" encoding="UTF-8"?>
<svg width="28px" height="28px" viewBox="0 0 28 28" version="1.1" xmlns="http://www.w3.org/2000/svg" xmlns:xlink="http://www.w3.org/1999/xlink">
    <!-- Generator: Sketch 63.1 (92452) - https://sketch.com -->
    <title>palette_outline_28</title>
    <desc>Created with Sketch.</desc>
    <g id="Page-1" stroke="none" stroke-width="1" fill="none" fill-rule="evenodd">
        <g id="palette_outline_28">
            <polygon points="0 0 28 0 28 28 0 28"></polygon>
            <path d="M14,2.33333333 C20.4283333,2.33333333 25.6666667,7.04666667 25.6666667,12.8333333 C25.6666667,16.695 22.5283333,19.8333333 18.6666667,19.8333333 L16.6016667,19.8333333 C16.275,19.8333333 16.0183333,20.09 16.0183333,20.4166667 C16.0183333,20.5566667 16.0766667,20.685 16.17,20.8016667 C16.6483333,21.35 16.9166667,22.0383333 16.9166667,22.75 C16.9166667,24.36 15.61,25.6666667 14,25.6666667 C7.57166667,25.6666667 2.33333333,20.4283333 2.33333333,14 C2.33333333,7.57166667 7.57166667,2.33333333 14,2.33333333 Z M13.995,4.33 C8.66716875,4.33 4.33,8.66716875 4.33,13.995 C4.33,19.3228312 8.66716875,23.66 13.995,23.66 C14.333275,23.66 14.5990625,23.3942125 14.5990625,23.0559375 C14.5990625,22.8626375 14.5024125,22.7176625 14.429925,22.6330937 C13.9345937,22.0773562 13.6688062,21.3645625 13.6688062,20.6396875 C13.6688062,18.972475 15.0219062,17.619375 16.6891187,17.619375 L18.8275,17.619375 C21.4974562,17.619375 23.66,15.4568312 23.66,12.786875 C23.66,8.1235125 19.3228312,4.33 13.995,4.33 Z M7.58333333,11.6666667 C8.54983165,11.6666667 9.33333333,12.4501684 9.33333333,13.4166667 C9.33333333,14.383165 8.54983165,15.1666667 7.58333333,15.1666667 C6.61683502,15.1666667 5.83333333,14.383165 5.83333333,13.4166667 C5.83333333,12.4501684 6.61683502,11.6666667 7.58333333,11.6666667 Z M20.4166667,11.6666667 C21.383165,11.6666667 22.1666667,12.4501684 22.1666667,13.4166667 C22.1666667,14.383165 21.383165,15.1666667 20.4166667,15.1666667 C19.4501684,15.1666667 18.6666667,14.383165 18.6666667,13.4166667 C18.6666667,12.4501684 19.4501684,11.6666667 20.4166667,11.6666667 Z M11.0833333,7 C12.0498316,7 12.8333333,7.78350169 12.8333333,8.75 C12.8333333,9.71649831 12.0498316,10.5 11.0833333,10.5 C10.116835,10.5 9.33333333,9.71649831 9.33333333,8.75 C9.33333333,7.78350169 10.116835,7 11.0833333,7 Z M16.9166667,7 C17.883165,7 18.6666667,7.78350169 18.6666667,8.75 C18.6666667,9.71649831 17.883165,10.5 16.9166667,10.5 C15.9501684,10.5 15.1666667,9.71649831 15.1666667,8.75 C15.1666667,7.78350169 15.9501684,7 16.9166667,7 Z" id="↳-Icon-Color" fill="currentColor" fill-rule="nonzero"></path>
        </g>
    </g>
</svg>
