<svg fill="none" height="28" viewBox="0 0 28 28" width="28" xmlns="http://www.w3.org/2000/svg" xmlns:xlink="http://www.w3.org/1999/xlink"><linearGradient id="a" gradientUnits="userSpaceOnUse" x1="-14" x2="14" y1="14" y2="42"><stop offset="0" stop-color="#70b2ff"/><stop offset="1" stop-color="#5c9ce6"/></linearGradient><path d="m0 14c0-7.73199 6.26801-14 14-14 7.732 0 14 6.26801 14 14 0 7.732-6.268 14-14 14-7.73199 0-14-6.268-14-14z" fill="url(#a)"/><path clip-rule="evenodd" d="m14.6288 17.7021c-.1741.375-.1042.7675.0797 1.0804.5034.8688.7774 2.2175-.6787 2.2175-3.724 0-7.0298-3.2175-7.0298-7 0-3.866 3.1474-7 7.0298-7 3.4558 0 6.3858 2.5001 6.942 5.894.2841 2.391-1.6247 4.0913-3.6676 4.0913-.8395.0006-2.2314-.2392-2.6754.7168zm-4.8788-2.7021c.6904 0 1.25-.5596 1.25-1.25s-.5596-1.25-1.25-1.25c-.69036 0-1.25.5596-1.25 1.25s.55964 1.25 1.25 1.25zm6-3.5c.6904 0 1.25-.5596 1.25-1.25 0-.69036-.5596-1.25-1.25-1.25s-1.25.55964-1.25 1.25c0 .6904.5596 1.25 1.25 1.25zm-4 0c.6904 0 1.25-.5596 1.25-1.25 0-.69036-.5596-1.25-1.25-1.25s-1.25.55964-1.25 1.25c0 .6904.5596 1.25 1.25 1.25zm6.5 3.5c.6904 0 1.25-.5596 1.25-1.25s-.5596-1.25-1.25-1.25-1.25.5596-1.25 1.25.5596 1.25 1.25 1.25z" fill="#fff" fill-rule="evenodd"/></svg>
