<svg width="28" height="28" xmlns="http://www.w3.org/2000/svg"><g fill="none"><path opacity=".527" d="M0 0H28V28H0z"/><path d="M20.154 5c1.37 0 2.063.134 2.783.519.663.355 1.19.881 1.544 1.544.36.672.5 1.32.517 2.518l.002.265v10.308c0 1.37-.134 2.063-.519 2.783a3.726 3.726 0 0 1-1.544 1.544c-.672.36-1.32.5-2.518.517l-.265.002H7.846c-1.37 0-2.063-.134-2.783-.519a3.726 3.726 0 0 1-1.544-1.544c-.36-.672-.5-1.32-.517-2.518L3 20.154V9.846c0-1.37.134-2.063.519-2.783A3.726 3.726 0 0 1 5.063 5.52c.672-.36 1.32-.5 2.518-.517L10 5a1 1 0 0 1 .117 1.993L10 7H7.846c-1.068 0-1.449.073-1.84.283-.314.168-.555.409-.723.723-.18.335-.26.663-.278 1.422L5 9.846v10.308c0 1.068.073 1.449.283 1.84.168.314.409.555.723.723.335.18.663.26 1.422.278l.418.005h12.308l.418-.005c.76-.019 1.087-.098 1.422-.278.314-.168.555-.409.723-.723.18-.335.26-.663.278-1.422l.005-.418V9.846l-.005-.418c-.019-.76-.098-1.087-.278-1.422a1.726 1.726 0 0 0-.723-.723c-.335-.18-.663-.26-1.422-.278L20.154 7H18a1 1 0 0 1-.117-1.993L18 5h2.154zM15 17a1 1 0 0 1 0 2H9a1 1 0 0 1 0-2h6zm4-5a1 1 0 0 1 0 2H9a1 1 0 0 1 0-2h10zm-5-9a1 1 0 0 1 1 1v4a1 1 0 0 1-2 0V4a1 1 0 0 1 1-1z" fill="currentColor"/></g></svg>
