<svg fill="none" height="28" viewBox="0 0 28 28" width="28" xmlns="http://www.w3.org/2000/svg"><g clip-rule="evenodd" fill="currentColor" fill-rule="evenodd"><path d="m16.4128 3.97346c.6517-.65424 1.5687-1.1083 2.5809-.93792 1.0177.17128 1.7278.90541 2.1117 1.74566.3849.84278.4937 1.87784.3019 2.91639-.1919 1.03895-.664 1.9702-1.3202 2.62901-.6517.6542-1.5688 1.1083-2.581.9379-1.0176-.1713-1.7277-.9054-2.1116-1.74562-.3849-.84279-.4937-1.87785-.3019-2.91639.1919-1.03895.6639-1.9702 1.3202-2.62903zm1.417 1.41148c-.3397.34098-.6432.892-.7705 1.58081-.1273.6892-.0383 1.30024.1544 1.72214.1939.42444.4414.57358.6244.60439.1885.03172.4878-.03157.832-.37715.3397-.34098.6432-.892.7704-1.58081.1273-.6892.0384-1.30024-.1543-1.72214-.1939-.42444-.4414-.57358-.6244-.60439-.1885-.03172-.4878.03158-.832.37715z"/><path d="m10.8077 13.6269c.7379-.9084 1.7486-1.6269 3.1923-1.6269 1.4462 0 2.4568.7248 3.1931 1.6335.6105.7534 1.0936 1.7131 1.5219 2.5641.0598.1187.1184.2353.1763.3489.3488.6855.6848 1.2199.9994 1.7201.1162.1848.2297.3653.3396.5466.375.6188.7699 1.3399.7697 2.1834-.0001.6844-.1675 1.2829-.5138 1.7691-.3439.4827-.8051.7718-1.2511.944-.7711.2978-1.6489.2932-2.1242.2907-.0399-.0002-.077-.0004-.1109-.0004-.5403 0-.9709-.0753-1.3518-.1418l-.1297-.0226c-.4073-.0698-.8463-.1356-1.5185-.1356-.6723 0-1.1112.0658-1.5186.1356l-.1296.0226c-.3809.0665-.8115.1418-1.3518.1418h-.0028l-.2124-.0006h-.0052c-.5214-.0042-1.41883-.0299-2.20296-.3982-.41311-.1941-.82329-.4953-1.12506-.9568-.30329-.4639-.45158-1.0202-.45158-1.648 0-.8116.40164-1.5356.7671-2.1458.1045-.1745.21273-.3495.32406-.5295.31823-.5146.66179-1.0701 1.01621-1.7719.05343-.1058.10757-.214.16259-.3239.43272-.8648.91924-1.8371 1.53774-2.5984zm.2466 3.5026c-.0528.1052-.1066.2123-.1617.3213-.3973.7868-.8062 1.4476-1.13171 1.9737-.10174.1645-.19542.3158-.27799.4537-.38455.6421-.4829.9262-.4829 1.1182 0 .3073.06949.4678.12553.5535.05757.088.14828.1691.30139.241.34776.1634.84308.2042 1.36608.2085h.0025l.2045.0006h.0013c.3589-.0001.6254-.0462 1.0146-.1136l.1276-.022c.4677-.0802 1.0287-.1644 1.8565-.1644.8277 0 1.3887.0842 1.8564.1644l.1277.022c.3897.0674.6563.1136 1.0159.1136h.0395c.5476.0001 1.0707.0002 1.4751-.156.1789-.0691.2802-.1511.3426-.2387.06-.0842.1427-.2553.1428-.6091 0-.233-.1051-.5275-.4802-1.1465-.084-.1387-.1803-.2918-.2855-.459-.3236-.5144-.7315-1.1629-1.1255-1.9372-.0625-.1227-.1234-.2431-.183-.3612-.4445-.8794-.822-1.6264-1.2866-2.1997-.4862-.6-.9756-.8926-1.6392-.8926-.6661 0-1.1554.2915-1.64.888-.4706.5792-.853 1.3404-1.3057 2.2415z"/><path d="m12.9073 6.60249c-.1919-1.03895-.664-1.9702-1.3202-2.62903-.6517-.65424-1.5688-1.1083-2.58096-.93792-1.01763.17128-1.72778.90541-2.1116 1.74566-.38497.84278-.49375 1.87784-.30193 2.91639.1919 1.03895.66394 1.9702 1.32022 2.62901.65171.6543 1.56871 1.1083 2.58097.9379 1.0176-.1712 1.7277-.9054 2.1115-1.74562.385-.84279.4938-1.87785.302-2.91639zm-3.56919-1.5947c.18844-.03172.48777.03158.83199.37715.3397.34098.6432.89201.7704 1.58081.1273.68921.0384 1.30024-.1543 1.72214-.1939.42444-.4414.57358-.6244.60439-.18846.03172-.48779-.03157-.83203-.37714-.33966-.34099-.6432-.89201-.77042-1.58082-.1273-.6892-.03833-1.30024.15439-1.72214.19387-.42444.44135-.57358.62437-.60439z"/><path d="m5.63493 10.4409c.7555.4283 1.41653 1.1382 1.85292 2.0104.43578.8711.60358 1.8175.46435 2.6666-.13966.8517-.61421 1.6857-1.51412 2.0769-.88319.3839-1.82611.1879-2.57311-.2356-.7555-.4283-1.41654-1.1381-1.85293-2.0104-.43578-.8711-.60357-1.8175-.46434-2.6666.13966-.8517.61421-1.6857 1.51411-2.0769.88319-.38383 1.82612-.1879 2.57312.2356zm-.9864 1.7398c-.38695-.2193-.65448-.1998-.78948-.1411-.11827.0514-.27684.195-.33771.5662-.06131.3739.00295.8957.27936 1.4482.27578.5512.6722.9508 1.05066 1.1654.38695.2194.65449.1998.78948.1411.11827-.0514.27684-.195.33772-.5662.0613-.3739-.00296-.8956-.27936-1.4481-.27579-.5513-.67221-.9509-1.05067-1.1655z"/><path d="m24.9744 10.2354c-.9183-.4435-1.8973-.21-2.6491.2636-.7583.4777-1.4069 1.2588-1.8307 2.2-.4241.942-.5809 1.9503-.4493 2.8425.1296.8782.572 1.7842 1.4803 2.2229.9184.4435 1.8973.21 2.6492-.2637.7583-.4776 1.4069-1.2587 1.8307-2.1999.4241-.942.5809-1.9503.4493-2.8425-.1297-.8783-.572-1.7842-1.4804-2.2229zm-2.6561 3.2847c.2884-.6405.6973-1.0922 1.073-1.3288.382-.2407.6135-.2032.7134-.1549.1098.053.3006.2333.3715.7139.0689.4666-.0064 1.0896-.2944 1.7294-.2884.6405-.6973 1.0921-1.073 1.3288-.3821.2407-.6135.2031-.7134.1549-.1099-.0531-.3006-.2334-.3715-.7139-.0689-.4667.0064-1.0897.2944-1.7294z"/></g></svg>
