<svg fill="none" height="28" width="28" xmlns="http://www.w3.org/2000/svg"><path d="M5 10c0-1.417 0-2.419.065-3.203.063-.771.182-1.243.371-1.613a4 4 0 011.748-1.748c.37-.189.842-.308 1.613-.371C9.581 3 10.583 3 12 3h4c1.417 0 2.419 0 3.203.065.772.063 1.243.182 1.613.371a4 4 0 011.748 1.748c.189.37.308.842.371 1.613C23 7.581 23 8.583 23 10v8c0 1.417 0 2.419-.065 3.203-.063.772-.182 1.243-.371 1.613a4 4 0 01-1.748 1.748c-.37.189-.842.308-1.613.371C18.419 25 17.417 25 16 25h-4c-1.417 0-2.419 0-3.203-.065-.771-.063-1.243-.182-1.613-.371a4 4 0 01-1.748-1.748c-.189-.37-.308-.842-.371-1.613C5 20.419 5 19.417 5 18z" stroke="#3f8ae0" stroke-width="2"/><path d="M19.866 21.488c.088-.163.134-.33.134-.743v-.49c0-.413-.046-.58-.134-.743a.908.908 0 00-.378-.378c-.163-.088-.33-.134-.743-.134h-.49c-.413 0-.58.046-.743.134a.908.908 0 00-.378.378c-.088.163-.134.33-.134.743v.49c0 .413.046.58.134.743.087.163.215.291.378.378.163.088.33.134.743.134h.49c.413 0 .58-.046.743-.134a.908.908 0 00.378-.378z" fill="#3f8ae0"/><path d="M11 25V3" stroke="#3f8ae0" stroke-width="2"/><path clip-rule="evenodd" d="M16 4h-4v20h4c1.433 0 2.388-.002 3.121-.061.71-.058 1.035-.161 1.241-.266a3 3 0 001.311-1.311c.105-.206.207-.53.266-1.24.06-.734.061-1.689.061-3.122v-8c0-1.433-.002-2.388-.062-3.121-.058-.71-.16-1.035-.265-1.241a3 3 0 00-1.311-1.311c-.206-.105-.53-.208-1.24-.266C18.387 4.001 17.432 4 16 4zm-6 19.989V4.01c-.431.009-.798.024-1.121.05-.71.058-1.035.161-1.241.266a3 3 0 00-1.311 1.311c-.105.206-.208.53-.266 1.24C6.001 7.613 6 8.568 6 10v8c0 1.433.002 2.388.061 3.121.058.71.161 1.035.266 1.241a3 3 0 001.311 1.311c.206.105.53.208 1.24.266.324.026.69.041 1.122.05zM4.545 4.73C4 5.8 4 7.2 4 10v8c0 2.8 0 4.2.545 5.27a5 5 0 002.185 2.185C7.8 26 9.2 26 12 26h4c2.8 0 4.2 0 5.27-.545a5 5 0 002.185-2.185C24 22.2 24 20.8 24 18v-8c0-2.8 0-4.2-.545-5.27a5 5 0 00-2.185-2.185C20.2 2 18.8 2 16 2h-4c-2.8 0-4.2 0-5.27.545A5 5 0 004.545 4.73zm15.321 16.758c.088-.162.134-.33.134-.743v-.49c0-.413-.046-.58-.134-.743a.908.908 0 00-.378-.378c-.163-.088-.33-.134-.743-.134h-.49c-.413 0-.58.046-.743.134a.908.908 0 00-.378.378c-.088.163-.134.33-.134.743v.49c0 .413.046.58.134.743.087.163.215.291.378.378.163.088.33.134.743.134h.49c.413 0 .58-.046.743-.134a.908.908 0 00.378-.378z" fill="currentColor" fill-rule="evenodd"/></svg>
