<svg xmlns="http://www.w3.org/2000/svg" width="28" height="28" fill="currentColor" viewBox="0 0 28 28"><path d="M19.994 4.85A2 2 0 0 0 18 3h-8a2 2 0 0 0-2 2h12l-.006-.15Zm-4.307 10.513a1.096 1.096 0 1 0-1.55-1.55l-2.881 2.88a7.105 7.105 0 0 0-1.548 2.324l-.178.433a.399.399 0 0 0 .52.52l.433-.178a7.107 7.107 0 0 0 2.323-1.548l2.881-2.88ZM17.304 11a1.196 1.196 0 1 1 0 2.392 1.196 1.196 0 0 1 0-2.392Z"/><path d="M8.759 7H19.24c.805 0 1.47 0 2.01.044.563.046 1.08.145 1.565.392a4 4 0 0 1 1.748 1.748c.247.485.346 1.002.392 1.564.044.541.044 1.206.044 2.01V13a1 1 0 1 1-2 0v-.2c0-.857 0-1.439-.038-1.889-.035-.438-.1-.663-.18-.819a2 2 0 0 0-.874-.874c-.156-.08-.38-.145-.819-.18C20.639 9 20.057 9 19.2 9H8.8c-.857 0-1.439 0-1.889.038-.438.035-.663.1-.819.18a2 2 0 0 0-.874.874c-.08.156-.145.38-.18.819C5 11.361 5 11.943 5 12.8v5.4c0 .857 0 1.439.038 1.889.035.438.1.663.18.819a2 2 0 0 0 .874.874c.156.08.38.145.819.18C7.361 22 7.943 22 8.8 22H14a1 1 0 1 1 0 2H8.759c-.805 0-1.47 0-2.01-.044-.563-.046-1.08-.145-1.565-.392a4 4 0 0 1-1.748-1.748c-.247-.485-.346-1.002-.392-1.564C3 19.71 3 19.046 3 18.242v-5.483c0-.805 0-1.47.044-2.01.046-.563.145-1.08.392-1.565a4 4 0 0 1 1.748-1.748c.485-.247 1.002-.346 1.564-.392C7.29 7 7.954 7 8.758 7Z"/><path fill-rule="evenodd" d="M24.5 18.492a2.994 2.994 0 0 0-3-2.992l-.176.005a3.003 3.003 0 0 0-2.824 2.996V20l-.748.001a.76.76 0 0 0-.752.76v4.48c0 .42.337.76.752.76h7.496a.76.76 0 0 0 .752-.76v-4.48c0-.42-.337-.76-.752-.76L24.5 20v-1.507Zm-3.145-1.485L21.5 17c.828 0 1.5.666 1.5 1.5V20h-3v-1.5c0-.78.59-1.42 1.355-1.493Z" clip-rule="evenodd"/></svg>
