<svg width="28" height="28" viewBox="0 0 28 28" fill="none" xmlns="http://www.w3.org/2000/svg">
<path fill-rule="evenodd" clip-rule="evenodd" d="M19.0581 2.32698C19.9137 1.89101 20.9264 1.89101 21.782 2.32698C22.2099 2.54498 22.5819 2.91792 23.0122 3.3494L23.6422 3.97939C24.0737 4.40977 24.4466 4.78177 24.6646 5.20961C25.1006 6.06525 25.1006 7.0779 24.6646 7.93355C24.4466 8.36139 24.0737 8.73338 23.6422 9.16376L21.0065 11.7994C20.616 12.1899 19.9828 12.1899 19.5923 11.7994C19.2018 11.4088 19.2018 10.7757 19.5923 10.3851L19.8607 10.1167L16.8749 7.13092L6.14233 17.8635C5.71687 18.289 5.58239 18.4275 5.4775 18.5719C5.24561 18.891 5.09254 19.2606 5.03083 19.6502C5.00291 19.8265 5.00005 20.0195 5.00005 20.6212V21.5916C5.00005 21.7886 5.00039 21.8964 5.00467 21.9746L5.00536 21.9863L5.01702 21.987C5.09529 21.9912 5.20302 21.9916 5.40005 21.9916H6.3704C6.97209 21.9916 7.16514 21.9887 7.34139 21.9608C7.73105 21.8991 8.10058 21.746 8.41976 21.5141C8.56413 21.4092 8.70266 21.2748 9.12812 20.8493L9.38671 20.5907C9.77723 20.2002 10.4104 20.2002 10.8009 20.5907C11.1914 20.9812 11.1914 21.6144 10.8009 22.0049L10.4912 22.3146C10.1373 22.6687 9.883 22.9232 9.59533 23.1322C9.02081 23.5496 8.35566 23.8251 7.65425 23.9362C7.30306 23.9918 6.94338 23.9917 6.44273 23.9916L5.40005 23.9916L5.31907 23.9918C5.0373 23.9928 4.69094 23.9941 4.38201 23.8937C3.77314 23.6959 3.29577 23.2185 3.09793 22.6096C2.99756 22.3007 2.99882 21.9543 2.99985 21.6726L3.00005 21.5916L3.00003 20.5489C2.99991 20.0483 2.99982 19.6886 3.05545 19.3374C3.16654 18.636 3.44206 17.9708 3.85947 17.3963C4.06847 17.1086 4.32287 16.8543 4.67698 16.5004L17.8279 3.34939C18.2582 2.91792 18.6302 2.54497 19.0581 2.32698ZM22.133 7.84437L21.2749 8.7025L18.2891 5.71671L19.1473 4.85858C19.7287 4.27709 19.8605 4.16277 19.9661 4.10899C20.2513 3.96367 20.5888 3.96367 20.874 4.10899C20.9796 4.16277 21.1114 4.27709 21.6928 4.85858L22.133 5.29879C22.7145 5.88027 22.8288 6.01204 22.8826 6.11759C23.028 6.4028 23.028 6.74035 22.8826 7.02557C22.8288 7.13112 22.7145 7.26288 22.133 7.84437Z" fill="currentColor"/>
<path fill-rule="evenodd" clip-rule="evenodd" d="M19 26C22.3137 26 25 23.3137 25 20C25 16.6863 22.3137 14 19 14C15.6863 14 13 16.6863 13 20C13 23.3137 15.6863 26 19 26ZM21 19C21 19.7403 20.5978 20.3866 20 20.7324V22.5C20 23.0523 19.5523 23.5 19 23.5C18.4477 23.5 18 23.0523 18 22.5V20.7324C17.4022 20.3866 17 19.7403 17 19C17 17.8954 17.8954 17 19 17C20.1046 17 21 17.8954 21 19Z" fill="currentColor"/>
</svg>
