<svg xmlns="http://www.w3.org/2000/svg" width="28" height="28" fill="none" viewBox="0 0 28 28"><rect width="28" height="28" fill="url(#a)" rx="14"/><path fill="#fff" d="M15.408 16.173c.903-.903 2.324-.986 3.269-.192l.683.575c.779.656.858 1.838.175 2.64a2.21 2.21 0 0 1-1.463.756c-2.182.294-4.471-.758-6.868-3.155-2.398-2.398-3.45-4.688-3.156-6.87a2.213 2.213 0 0 1 .756-1.464c.802-.68 1.983-.602 2.64.178l.574.683c.796.943.713 2.365-.19 3.268l-.49.49a.475.475 0 0 0-.11.499c.179.487.634 1.096 1.364 1.827.731.731 1.34 1.185 1.827 1.364.174.064.369.02.5-.11l.489-.49Z"/><defs><linearGradient id="a" x1="-14" x2="14" y1="14" y2="42" gradientUnits="userSpaceOnUse"><stop stop-color="#70B2FF"/><stop offset="1" stop-color="#5C9CE6"/></linearGradient></defs></svg>
