<svg xmlns="http://www.w3.org/2000/svg" width="28" height="28" fill="currentColor" viewBox="0 0 28 28"><path fill-rule="evenodd" d="M14 9c5.803 0 9.846 1.684 12.13 4.56.725.912.922 1.722.858 2.578C26.843 17.862 25.52 19 23.58 19c-3.73 0-5.169-1.938-5.244-3.975l-.003-1.307a.779.779 0 0 0-.47-.708c-.75-.357-2.094-.508-3.864-.509-1.769 0-3.056.152-3.862.51a.779.779 0 0 0-.47.707v1.137C9.667 16.953 8.255 19 4.42 19c-1.941 0-3.263-1.138-3.407-2.862-.065-.856.132-1.667.856-2.578C4.154 10.684 8.197 9 14 9Z" clip-rule="evenodd"/></svg>
