<svg fill="none" height="28" viewBox="0 0 28 28" width="28" xmlns="http://www.w3.org/2000/svg"><g fill="currentColor"><path d="m16.1117 17.259-.7341.7341c-.1961.1963-.4883.2609-.7489.1654-.7301-.2684-1.6434-.95-2.74-2.0468-1.0957-1.0957-1.7782-2.0091-2.04566-2.7402-.0957-.2604-.03153-.5527.16446-.749l.735-.7341c1.3542-1.3543 1.478-3.48727.2843-4.90299l-.8618-1.02438c-.9837-1.17002-2.75592-1.28791-3.95952-.26452-.44763.38578-.78414.88409-.97477 1.44345-.08239.2435-.13559.49591-.1585.75195-.44083 3.27229 1.13723 6.70699 4.73318 10.30329 3.59591 3.5962 7.02941 5.1734 10.30241 4.7326.8504-.0812 1.6366-.4871 2.1953-1.1334 1.0243-1.2027.9054-2.9761-.2635-3.9598l-1.0243-.8629c-1.4176-1.1918-3.5494-1.067-4.9036.2873zm-2.8088-2.5614c.5239.5239.9807.9212 1.3499 1.1918 2.1233-2.1234 5.4272-2.317 7.651-.4473l1.0236.8623c2.0292 1.7078 2.2322 4.7509.4887 6.7979-.8952 1.0357-2.1554 1.6863-3.4413 1.8076-3.9821.5363-7.9867-1.3032-11.98368-5.3006-3.99709-3.9974-5.83734-8.0031-5.31095-11.89562.037-.41361.12295-.82137.25745-1.21887.3055-.89643.8448-1.69504 1.57232-2.32197 2.03726-1.73223 5.07881-1.52931 6.78546.50062l.8604 1.02272c1.8722 2.22034 1.6804 5.52682-.4 7.60732.226.4134.6231.87 1.1471 1.3941z"/><path d="m21.0068 2.88338c.0578-.49734.4805-.88338.9933-.88338.5523 0 1 .44772 1 1v2h2l.1166.00673c.4974.05776.8834.48043.8834.99327 0 .55228-.4477 1-1 1h-2v2l-.0067.11662c-.0578.49734-.4804.88338-.9933.88338-.5523 0-1-.44772-1-1v-2h-2l-.1166-.00673c-.4973-.05776-.8834-.48043-.8834-.99327 0-.55228.4477-1 1-1h2v-2z"/></g></svg>
