<svg xmlns="http://www.w3.org/2000/svg" width="28" height="28" fill="none" viewBox="0 0 28 28"><path fill="currentColor" fill-rule="evenodd" d="M16 7c0-2.7614 2.2386-5 5-5s5 2.2386 5 5-2.2386 5-5 5-5-2.2386-5-5Zm2 0c0-.5523.4477-1 1-1h4c.5523 0 1 .4477 1 1s-.4477 1-1 1h-4c-.5523 0-1-.4477-1-1Z" clip-rule="evenodd"/><path fill="currentColor" fill-rule="evenodd" d="M14.6574 15.8894c-.3691-.2706-.8258-.668-1.3495-1.1918-.5239-.5241-.9209-.9807-1.1468-1.3941 2.0798-2.0805 2.2715-5.387.3999-7.6073l-.8602-1.0228C9.9947 2.6435 6.954 2.4406 4.9173 4.1728c-.7273.627-1.2664 1.4256-1.5718 2.322a5.2594 5.2594 0 0 0-.2574 1.2189c-.5263 3.8924 1.3135 7.8982 5.3094 11.8956 3.9959 3.9974 7.9993 5.8369 11.9803 5.3006 1.2855-.1213 2.5453-.7719 3.4403-1.8076 1.7429-2.047 1.54-5.0902-.4886-6.7979l-1.0233-.8623c-2.2232-1.8697-5.5261-1.6762-7.6488.4473Zm.7246 2.1037.7339-.7341c1.3537-1.3543 3.4849-1.4792 4.9021-.2873l1.024.8629c1.1686.9837 1.2875 2.7571.2635 3.9598a3.318 3.318 0 0 1-2.1946 1.1334c-3.2721.4408-6.7046-1.1364-10.2995-4.7326-3.595-3.5963-5.1726-7.031-4.7319-10.3033.023-.256.0761-.5085.1585-.752a3.3188 3.3188 0 0 1 .9745-1.4434c1.2032-1.0234 2.975-.9055 3.9584.2645l.8616 1.0244c1.1933 1.4157 1.0695 3.5487-.2843 4.903l-.7348.7341a.7126.7126 0 0 0-.1644.749c.2674.7311.9497 1.6445 2.045 2.7402 1.0963 1.0967 2.0094 1.7783 2.7393 2.0468a.7118.7118 0 0 0 .7487-.1654Z" clip-rule="evenodd"/></svg>
