<svg fill="none" height="28" viewBox="0 0 28 28" width="28" xmlns="http://www.w3.org/2000/svg"><g fill="currentColor"><path d="m10.9562 4h4.0876c1.363-.00001 2.447-.00001 3.3216.07144.8956.07318 1.6593.22624 2.3585.58252 1.129.57524 2.0469 1.49312 2.6221 2.6221.3563.69925.5094 1.46296.5826 2.35861.0714.87463.0714 1.95873.0714 3.32183v1.0435c0 .5523-.4477 1-1 1s-1-.4477-1-1v-.9997c0-1.4167-.0008-2.4191-.0648-3.20278-.0631-.77198-.1825-1.24318-.3712-1.61348-.3835-.75265-.9954-1.36457-1.748-1.74807-.3703-.18868-.8415-.3081-1.6134-.37117-.7836-.06402-1.786-.0648-3.2026-.0648h-4c-1.41663 0-2.41896.00078-3.20256.0648-.77192.06307-1.24309.18249-1.6134.37117-.75265.3835-1.36457.99542-1.74807 1.74807-.18868.37031-.3081.84148-.37117 1.6134-.06402.78356-.0648 1.78596-.0648 3.20256s.00078 2.419.0648 3.2026c.06307.7719.18249 1.2431.37117 1.6134.3835.7526.99542 1.3645 1.74807 1.748.37031.1887.84148.3081 1.6134.3712.7836.064 1.78593.0648 3.20256.0648h1c.5523 0 1 .4477 1 1s-.4477 1-1 1h-1.0438c-1.36298 0-2.44706 0-3.32162-.0714-.8956-.0732-1.65928-.2263-2.35852-.5826-1.12898-.5752-2.04686-1.4931-2.6221-2.6221-.35628-.6992-.50934-1.4629-.58252-2.3585-.07145-.8746-.07145-1.9586-.07144-3.3216v-.0876c-.00001-1.363-.00001-2.447.07144-3.32162.07318-.8956.22624-1.65928.58252-2.35852.57524-1.12897 1.49313-2.04686 2.6221-2.6221.69924-.35628 1.46292-.50934 2.35852-.58252.87459-.07145 1.95862-.07145 3.32162-.07144z"/><path d="m7.29289 9.29289c.39053-.39052 1.02369-.39052 1.41422 0l3.29289 3.29291v-1.5858c0-.5523.4477-1 1-1s1 .4477 1 1v3.68.0111c.0001.0436.0002.1252-.006.2017-.0078.0952-.0301.2661-.1248.452-.115.2258-.2986.4094-.5244.5244-.1859.0947-.3568.117-.452.1248-.0765.0062-.1581.0061-.2017.006h-.0111-3.68c-.55228 0-1-.4477-1-1s.44772-1 1-1h1.5858l-3.29291-3.2929c-.39052-.3905-.39052-1.02368 0-1.41421z"/><path d="m15 20.2c0-1.1201 0-1.6802.218-2.108.1917-.3763.4977-.6823.874-.874.4278-.218.9879-.218 2.108-.218h4.6c1.1201 0 1.6802 0 2.108.218.3763.1917.6823.4977.874.874.218.4278.218.9879.218 2.108v.6c0 1.1201 0 1.6802-.218 2.108-.1917.3763-.4977.6823-.874.874-.4278.218-.9879.218-2.108.218h-4.6c-1.1201 0-1.6802 0-2.108-.218-.3763-.1917-.6823-.4977-.874-.874-.218-.4278-.218-.9879-.218-2.108z"/></g></svg>
