<?xml version="1.0" encoding="UTF-8"?>
<svg width="28px" height="28px" viewBox="0 0 28 28" version="1.1" xmlns="http://www.w3.org/2000/svg" xmlns:xlink="http://www.w3.org/1999/xlink">
    <!-- Generator: Sketch 63.1 (92452) - https://sketch.com -->
    <title>picture_stack_outline_28</title>
    <desc>Created with Sketch.</desc>
    <g id="Page-1" stroke="none" stroke-width="1" fill="none" fill-rule="evenodd">
        <g id="picture_stack_outline_28">
            <rect x="0" y="0" width="28" height="28"></rect>
            <path d="M19.8722296,7 C21.6552671,7 22.3018396,7.18565122 22.9536914,7.53426541 C23.6055433,7.88287959 24.1171204,8.39445674 24.4657346,9.04630859 C24.8143488,9.69816044 25,10.3447329 25,12.1277704 L25,18.8722296 C25,20.6552671 24.8143488,21.3018396 24.4657346,21.9536914 C24.1171204,22.6055433 23.6055433,23.1171204 22.9536914,23.4657346 C22.3018396,23.8143488 21.6552671,24 19.8722296,24 L8.1277704,24 C6.34473292,24 5.69816044,23.8143488 5.04630859,23.4657346 C4.39445674,23.1171204 3.88287959,22.6055433 3.53426541,21.9536914 C3.20399934,21.3361475 3.01999365,20.723342 3.0015395,19.144484 L3,12.1277704 C3,10.3447329 3.18565122,9.69816044 3.53426541,9.04630859 C3.88287959,8.39445674 4.39445674,7.88287959 5.04630859,7.53426541 C5.66385245,7.20399934 6.27665804,7.01999365 7.85551601,7.0015395 L19.8722296,7 Z M19.999,14.414 L15.0606602,19.3535534 C14.5114854,19.9027282 13.642423,19.9370516 13.0532622,19.4565237 L12.9393398,19.3535534 L11,17.414 L6.51714098,21.897387 C6.81669401,21.9632621 7.22267409,21.9935761 7.8901374,21.9990721 L19.8722296,22 C21.1959334,22 21.5990386,21.9221568 22.0104937,21.7021082 C22.3138086,21.5398936 22.5398936,21.3138086 22.7021082,21.0104937 L22.7780863,20.8547751 C22.9288074,20.5103706 22.9909618,20.094822 22.9990721,19.1098626 L22.999,17.414 L19.999,14.414 Z M20.1098626,9.00092794 L7.8901374,9.00092794 L7.47415795,9.00863429 C6.65260859,9.03419061 6.32381361,9.1191023 5.98950631,9.2978918 C5.68619141,9.46010639 5.46010639,9.68619141 5.2978918,9.98950631 L5.22191375,10.1452249 C5.07119262,10.4896294 5.00903816,10.905178 5.00092794,11.8901374 L5.00092794,19.1098626 L5.00863429,19.5258421 C5.02203768,19.9567158 5.05176756,20.2520509 5.10280417,20.4837277 L9.93933983,15.6464466 C10.4885146,15.0972718 11.357577,15.0629484 11.9467378,15.5434763 L12.0606602,15.6464466 L14,17.586 L18.9393398,12.6464466 C19.4885146,12.0972718 20.357577,12.0629484 20.9467378,12.5434763 L21.0606602,12.6464466 L23,14.585 L23,12.1277704 C23,10.8040666 22.9221568,10.4009614 22.7021082,9.98950631 C22.5398936,9.68619141 22.3138086,9.46010639 22.0104937,9.2978918 L21.8547751,9.22191375 C21.5103706,9.07119262 21.094822,9.00903816 20.1098626,9.00092794 Z M8.5,11 C9.32842712,11 10,11.6715729 10,12.5 C10,13.3284271 9.32842712,14 8.5,14 C7.67157288,14 7,13.3284271 7,12.5 C7,11.6715729 7.67157288,11 8.5,11 Z M17.4361148,3 C18.3276335,3 18.6509198,3.09282561 18.9768457,3.2671327 C19.3027716,3.4414398 19.5585602,3.69722837 19.7328673,4.0231543 C19.8641756,4.2686794 19.9492443,4.51270652 19.9832241,4.99928062 L8.01677591,4.99928062 C8.05075566,4.51270652 8.13582444,4.2686794 8.2671327,4.0231543 C8.4414398,3.69722837 8.69722837,3.4414398 9.0231543,3.2671327 C9.34908022,3.09282561 9.67236646,3 10.5638852,3 L17.4361148,3 Z" id="↳-Icon-Color" fill="currentColor" fill-rule="nonzero"></path>
        </g>
    </g>
</svg>
