<svg xmlns="http://www.w3.org/2000/svg" width="28" height="28" fill="none" viewBox="0 0 28 28"><path fill="currentColor" d="M12 10.5c0 .8284-.6716 1.5-1.5 1.5S9 11.3284 9 10.5 9.6716 9 10.5 9s1.5.6716 1.5 1.5Z"/><path fill="currentColor" fill-rule="evenodd" d="M6.0695 3.8014C7.1648 3.2156 8.2439 3 10.6917 3h6.6166c2.4478 0 3.5269.2156 4.6222.8014.9752.5215 1.7466 1.2929 2.2681 2.268C24.7844 7.1649 25 8.244 25 10.6918v6.6166c0 2.4478-.2156 3.5269-.8014 4.6222-.5215.9752-1.2929 1.7466-2.2681 2.2681-1.0953.5858-2.1744.8014-4.6222.8014h-6.6166c-2.4478 0-3.527-.2156-4.6222-.8014-.9752-.5215-1.7466-1.2929-2.2681-2.2681C3.2156 20.8352 3 19.7561 3 17.3083v-6.6166c0-2.4478.2156-3.527.8014-4.6222.5215-.9752 1.2929-1.7466 2.268-2.2681ZM10.6917 5c-2.335 0-3.0183.2117-3.679.565-.6267.3352-1.1125.821-1.4477 1.4477-.3533.6607-.565 1.344-.565 3.679v6.6166c0 1.9748.1514 2.7682.4119 3.3657l3.881-3.8811a1 1 0 0 1 1.3474-.0611l2.2317 1.8598 4.3599-5.2318a1.0001 1.0001 0 0 1 1.4439-.097L23 17.2267v-6.535c0-2.335-.2117-3.0183-.565-3.679-.3352-.6267-.821-1.1125-1.4477-1.4477-.6607-.3533-1.344-.565-3.679-.565h-6.6166Zm12.1542 14.7986-4.7487-4.353-4.3289 5.1946c-.3536.4243-.9841.4816-1.4084.128l-2.2985-1.9154-3.3812 3.3813c.106.0721.2168.139.3325.2009.6607.3533 1.344.565 3.679.565h6.6166c2.335 0 3.0183-.2117 3.679-.565.6267-.3352 1.1125-.821 1.4477-1.4477.1742-.3257.3139-.6569.4109-1.1887Z" clip-rule="evenodd"/></svg>
