<svg fill="none" height="28" viewBox="0 0 28 28" width="28" xmlns="http://www.w3.org/2000/svg" xmlns:xlink="http://www.w3.org/1999/xlink"><linearGradient id="a" gradientUnits="userSpaceOnUse" x1="-14" x2="14" y1="14" y2="42"><stop offset="0" stop-color="#70b2ff"/><stop offset="1" stop-color="#5c9ce6"/></linearGradient><path d="m0 14c0-7.73199 6.26801-14 14-14 7.732 0 14 6.26801 14 14 0 7.732-6.268 14-14 14-7.73199 0-14-6.268-14-14z" fill="url(#a)"/><path d="m16.2348 8.10902 3.6568 3.66318c.2251.2255.064.633-.2624.633h-.5233c-.2375 0-.4653.0944-.6332.2625l-1.7143 1.7149c-.1679.168-.2623.3959-.2623.6335v2.9958c0 .5543-.6992.8578-1.1007.4562l-2.3007-2.3009-3.57026 3.5713c-.34877.3487-.91412.3487-1.26283-.0002-.34872-.3488-.34883-.9144-.00023-1.2634l3.56792-3.5736-2.28977-2.2908c-.39152-.3916-.10957-1.1012.4559-1.1012h2.99477c.2374 0 .4652-.0943.6331-.2623l1.7149-1.71504c.168-.16803.2624-.39595.2624-.63361v-.52675c0-.31943.403-.49419.6342-.26258z" fill="#fff"/></svg>
