<svg fill="none" height="28" viewBox="0 0 28 28" width="28" xmlns="http://www.w3.org/2000/svg"><path clip-rule="evenodd" d="m7.8 7h-.0413-.00002c-.80496-.00001-1.46931-.00002-2.0105.04419-.5621.04593-1.07881.14449-1.56414.39179-.75265.38349-1.36457.99541-1.74806 1.74806-.2473.48533-.34586 1.00206-.39179 1.56416-.04421.5412-.0442 1.2055-.04419 2.0105v.0413 2.4.0413c-.00001.805-.00002 1.4693.04419 2.0105.04593.5621.14449 1.0788.39179 1.5642.38349.7526.99541 1.3645 1.74806 1.748.48533.2473 1.00204.3459 1.56414.3918.5412.0442 1.20556.0442 2.01054.0442h.04128 12.4.0413c.805 0 1.4693 0 2.0105-.0442.5621-.0459 1.0788-.1445 1.5642-.3918.7526-.3835 1.3645-.9954 1.748-1.748.2473-.4854.3459-1.0021.3918-1.5642.0442-.5412.0442-1.2055.0442-2.0105v-.0413-2.4-.0413c0-.805 0-1.4693-.0442-2.0105-.0459-.5621-.1445-1.07883-.3918-1.56416-.3835-.75265-.9954-1.36457-1.748-1.74806-.4854-.2473-1.0021-.34586-1.5642-.39179-.5412-.04421-1.2055-.0442-2.0105-.04419h-.0413zm-2.70798 2.21799c.1564-.07969.3806-.14462.81902-.18044.45009-.03677 1.03238-.03755 1.88896-.03755h12.4c.8566 0 1.4389.00078 1.889.03755.4384.03582.6626.10075.819.18044.3763.19175.6823.49771.874.87401.0797.1564.1446.3806.1804.819.0368.4501.0376 1.0324.0376 1.889v2.4c0 .8566-.0008 1.4389-.0376 1.889-.0358.4384-.1007.6626-.1804.819-.1917.3763-.4977.6823-.874.874-.1564.0797-.3806.1446-.819.1804-.4501.0368-1.0324.0376-1.889.0376h-12.4c-.85658 0-1.43887-.0008-1.88896-.0376-.43842-.0358-.66262-.1007-.81902-.1804-.37632-.1917-.68228-.4977-.87403-.874-.07969-.1564-.14462-.3806-.18044-.819-.03677-.4501-.03755-1.0324-.03755-1.889v-2.4c0-.8566.00078-1.4389.03755-1.889.03582-.4384.10075-.6626.18044-.819.19175-.3763.49771-.68226.87403-.87401zm4.65798 5.78201c.6904 0 1.25-.5596 1.25-1.25s-.5596-1.25-1.25-1.25c-.69035 0-1.25.5596-1.25 1.25s.55965 1.25 1.25 1.25zm5.75-1.25c0 .6904-.5596 1.25-1.25 1.25s-1.25-.5596-1.25-1.25.5596-1.25 1.25-1.25 1.25.5596 1.25 1.25zm3.25 1.25c.6904 0 1.25-.5596 1.25-1.25s-.5596-1.25-1.25-1.25-1.25.5596-1.25 1.25.5596 1.25 1.25 1.25z" fill="currentColor" fill-rule="evenodd"/>
</svg>