<svg fill="none" height="28" viewBox="0 0 28 28" width="28" xmlns="http://www.w3.org/2000/svg"><path clip-rule="evenodd" d="m20.5 7c-1.6569 0-3 1.34315-3 3v1.0647c-.292.043-.5811.1192-.862.2623-.5645.2876-1.0234.7465-1.311 1.311-.1928.3784-.2641.7716-.2964 1.167-.0306.3745-.0306.8293-.0306 1.3565v.0385 2.6.0385c0 .5272 0 .982.0306 1.3565.0323.3954.1036.7886.2964 1.167.2876.5645.7465 1.0234 1.311 1.311.3784.1928.7716.2641 1.167.2964.3745.0306.8293.0306 1.3564.0306h.0001.0385 2.6.0385.0001c.5271 0 .9819 0 1.3564-.0306.3954-.0323.7886-.1036 1.167-.2964.5645-.2876 1.0234-.7465 1.311-1.311.1928-.3784.2641-.7716.2964-1.167.0306-.3745.0306-.8293.0306-1.3565v-.0385-2.6-.0385c0-.5272 0-.982-.0306-1.3565-.0323-.3954-.1036-.7886-.2964-1.167-.2876-.5645-.7465-1.0234-1.311-1.311-.2809-.1431-.57-.2193-.862-.2623v-1.0647c0-1.65685-1.3431-3-3-3zm-1.3 6c-.5766 0-.9488.0008-1.2322.0239-.2716.0222-.3723.0599-.4218.0851-.1882.0959-.3411.2488-.437.437-.0252.0495-.0629.1502-.0851.4218-.0231.2834-.0239.6556-.0239 1.2322v2.6c0 .5766.0008.9488.0239 1.2322.0222.2716.0599.3723.0851.4218.0959.1882.2488.3411.437.437.0495.0252.1502.0629.4218.0851.2834.0231.6556.0239 1.2322.0239h2.6c.5766 0 .9488-.0008 1.2322-.0239.2716-.0222.3723-.0599.4218-.0851.1882-.0959.3411-.2488.437-.437.0252-.0495.0629-.1502.0851-.4218.0231-.2834.0239-.6556.0239-1.2322v-2.6c0-.5766-.0008-.9488-.0239-1.2322-.0222-.2716-.0599-.3723-.0851-.4218-.0959-.1882-.2488-.3411-.437-.437-.0495-.0252-.1502-.0629-.4218-.0851-.2834-.0231-.6556-.0239-1.2322-.0239zm2.3-2v-1c0-.55228-.4477-1-1-1s-1 .44772-1 1v1zm-13.7413-3h.0413 6.7c.5523 0 1 .44772 1 1s-.4477 1-1 1h-6.7c-.85658 0-1.43887.0008-1.88896.0376-.43842.0358-.66262.1007-.81902.1804-.37632.1917-.68228.4977-.87403.874-.07969.1564-.14462.3806-.18044.819-.03677.4501-.03755 1.0324-.03755 1.889v.4c0 .8566.00078 1.4389.03755 1.889.03582.4384.10075.6626.18044.819.19175.3763.49771.6823.87403.874.1564.0797.3806.1446.81902.1804.45009.0368 1.03238.0376 1.88896.0376h4.2c.5523 0 1 .4477 1 1s-.4477 1-1 1h-4.2-.04127c-.80499 0-1.46935 0-2.01055-.0442-.5621-.0459-1.07881-.1445-1.56414-.3918-.75265-.3835-1.36457-.9954-1.74806-1.748-.2473-.4854-.34586-1.0021-.39179-1.5642-.04421-.5412-.0442-1.2055-.04419-2.0105v-.0413-.4-.0413c-.00001-.805-.00002-1.4693.04419-2.0105.04593-.5621.14449-1.0788.39179-1.5642.38349-.75261.99541-1.36453 1.74806-1.74803.48533-.24729 1.00204-.34585 1.56414-.39178.54119-.04421 1.20555-.0442 2.01052-.04419zm4.2413 6c0 .5523-.4477 1-1 1s-1-.4477-1-1 .4477-1 1-1 1 .4477 1 1zm-5 1c.55229 0 1-.4477 1-1s-.44771-1-1-1c-.55228 0-1 .4477-1 1s.44772 1 1 1zm14 1.8662v.6338c0 .2761-.2239.5-.5.5s-.5-.2239-.5-.5v-.6338c-.2989-.1729-.5-.4961-.5-.8662 0-.5523.4477-1 1-1s1 .4477 1 1c0 .3701-.2011.6933-.5.8662z" fill="currentColor" fill-rule="evenodd"/>
</svg>