<?xml version="1.0" encoding="UTF-8"?>
<svg width="28px" height="28px" viewBox="0 0 28 28" version="1.1" xmlns="http://www.w3.org/2000/svg" xmlns:xlink="http://www.w3.org/1999/xlink">
    <!-- Generator: Sketch 63.1 (92452) - https://sketch.com -->
    <title>place_outline_28</title>
    <desc>Created with Sketch.</desc>
    <g id="Page-1" stroke="none" stroke-width="1" fill="none" fill-rule="evenodd">
        <g id="place_outline_28">
            <polygon points="0 0 28 0 28 28 0 28"></polygon>
            <path d="M23,12.0148468 C23,7.03649902 18.9709782,3 14,3 C9.02902177,3 5,7.03649902 5,12.0148468 C5,15.5625644 7.17917902,19.8447889 11.4803533,24.9302424 C12.6572932,26.3218115 14.739494,26.4957888 16.1310601,25.3188301 C16.271165,25.2003322 16.4011422,25.070355 16.5196401,24.9302502 C20.8208188,19.8447933 23,15.5625661 23,12.0148468 Z M14.8395085,23.791776 C14.2913144,24.2554275 13.471056,24.1868912 13.0074132,23.6386976 C8.98340791,18.8809523 7,14.9834303 7,12.0148468 C7,8.14023925 10.1344222,5 14,5 C17.8655778,5 21,8.14023925 21,12.0148468 C21,14.9834319 19.01659,18.8809564 14.9925862,23.6386982 C14.945905,23.6938914 14.8947016,23.7450948 14.8395085,23.791776 Z M10,12 C10,9.7914305 11.7914305,8 14,8 C16.2085695,8 18,9.7914305 18,12 C18,14.2085695 16.2085695,16 14,16 C11.7914305,16 10,14.2085695 10,12 Z M12,12 C12,13.104 12.896,14 14,14 C15.104,14 16,13.104 16,12 C16,10.896 15.104,10 14,10 C12.896,10 12,10.896 12,12 Z" id="↳-Icon-Color" fill="currentColor" fill-rule="nonzero"></path>
        </g>
    </g>
</svg>
