<svg fill="none" height="28" viewBox="0 0 28 28" width="28" xmlns="http://www.w3.org/2000/svg" xmlns:xlink="http://www.w3.org/1999/xlink"><clipPath id="a"><path d="m0 0h28v28h-28z"/></clipPath><g clip-path="url(#a)"><path clip-rule="evenodd" d="m7.52759 17.4462c.38758.0554.58137.0831.74747.0505.15658-.0306.27748-.0842.40541-.1796.13571-.1011.25617-.2791.49708-.6352.27237-.4025.58363-.8284.92945-1.2707.0432-.0553.0869-.1108.1312-.1666.4058-.5113.6087-.7669.6538-1.0124.041-.2232.0106-.432-.0923-.6342-.1133-.2225-.3677-.4007-.87669-.7569l-3.30606-2.3143c-.39475-.2763-.52748-.8001-.31196-1.23107.19605-.39203.63022-.60436 1.06002-.5184l6.26199 1.25237c.4605.0921.6908.1381.9124.1165.1963-.0192.3869-.0769.5608-.16982.1965-.10494.3625-.27097.6946-.60303l1.4488-1.4488c1.9526-1.95262 4.1687-2.90237 4.9497-2.12132.7811.78105-.1687 2.99712-2.1213 4.94977l-1.4488 1.4487c-.3321.3321-.4981.4981-.603.6946-.0929.174-.1506.3645-.1698.5608-.0217.2217.0244.4519.1165.9124l1.2524 6.262c.086.4299-.1264.8641-.5185 1.0602-.431.2154-.9548.0827-1.2311-.3121l-2.3142-3.3061c-.3563-.5089-.5344-.7634-.7569-.8766-.2023-.103-.411-.1334-.6342-.0924-.2456.0451-.5012.248-1.0125.6539-.0557.0442-.1113.088-.1665.1312-.4424.3457-.8683.657-1.2708.9294-.356.2409-.534.3613-.6352.497-.0954.128-.1489.2489-.1796.4055-.0325.1661-.0048.3598.0505.7474l.2473 1.7309c.0475.3324-.1495.6512-.4681.7573-.3005.1002-.63083-.0156-.80295-.2816l-1.4659-2.2655c-.06953-.1075-.10429-.1612-.14519-.2097-.03633-.043-.07623-.0829-.11927-.1192-.04846-.0409-.10219-.0757-.20965-.1452l-2.26548-1.4659c-.266-.1721-.38186-.5024-.28167-.803.10618-.3185.42496-.5155.75735-.4681zm-1.44801-2.2272c-1.28923-.1841-2.52572.58-2.93756 1.8155-.38862 1.1659.06077 2.447 1.09253 3.1146l2.19353 1.4194 1.41933 2.1935c.66761 1.0317 1.94871 1.4811 3.11459 1.0925 1.2355-.4118 1.9997-1.6483 1.8155-2.9375l-.218-1.5262c.3806-.2615.7734-.5496 1.1743-.8606l2.0975 2.9964c.8448 1.2068 2.4462 1.6127 3.7639.9539 1.1988-.5993 1.8481-1.9269 1.5853-3.2412l-1.2944-6.472 1.6001-1.6001c1.1102-1.1102 2.0029-2.35779 2.5099-3.5406.2511-.58591.4499-1.25421.4691-1.93927.0192-.69087-.1483-1.58889-.8577-2.29832-.7094-.70942-1.6074-.87692-2.2983-.85764-.6851.01912-1.3534.218-1.9393.4691-1.1828.50692-2.4304 1.3997-3.5406 2.50986l-1.6001 1.60018-6.47197-1.29434c-1.31413-.26282-2.6416.38637-3.24103 1.585-.65897 1.31769-.25313 2.91923.95383 3.76413l2.99634 2.0974c-.31104.4009-.59912.7938-.86063 1.1744z" fill="currentColor" fill-rule="evenodd"/></g>
</svg>