<?xml version="1.0" encoding="UTF-8"?>
<svg width="28px" height="28px" viewBox="0 0 28 28" version="1.1" xmlns="http://www.w3.org/2000/svg" xmlns:xlink="http://www.w3.org/1999/xlink">
    <!-- Generator: Sketch 63.1 (92452) - https://sketch.com -->
    <title>playlist_outline_28</title>
    <desc>Created with Sketch.</desc>
    <g id="Page-1" stroke="none" stroke-width="1" fill="none" fill-rule="evenodd">
        <g id="playlist_outline_28">
            <polygon points="0 0 28 0 28 28 0 28"></polygon>
            <path d="M24.7796503,4.02457907 C25.405076,3.88329402 26,4.35881453 26,5 L26,5 L26,7.10247646 C26,8.73345893 24.9034979,10.1606789 23.3275856,10.5809221 L23.3275856,10.5809221 L20,11.4682783 L20,18 C20,18.0057319 19.9999518,18.0114525 19.9998557,18.0171615 L20,19.393633 C20,24.0814866 15.4174681,26.4933454 12.9271912,24.0030685 C10.3505737,21.426451 12.8204934,17.1992434 18.0005553,16.942525 L18.0000133,10.7221148 C17.9996639,10.7068738 17.9996666,10.6916722 18.0000155,10.6765186 L18.0000155,10.6765186 L18.0000993,8.93085656 C17.9730104,7.00870733 18.9096836,5.64267959 20.6837722,5.0513167 C21.3249725,4.83758329 22.6771656,4.499535 24.7796503,4.02457907 Z M18,18.9438657 C14.4620936,19.1397648 13.1553808,21.402831 14.3414048,22.588855 C15.4843305,23.7317806 18,22.4077441 18,19.393633 L18,19.393633 Z M8.5,17 C9.05228475,17 9.5,17.4477153 9.5,18 C9.5,18.5522847 9.05228475,19 8.5,19 L4.5,19 C3.94771525,19 3.5,18.5522847 3.5,18 C3.5,17.4477153 3.94771525,17 4.5,17 L8.5,17 Z M13.5,11 C14.0522847,11 14.5,11.4477153 14.5,12 C14.5,12.5522847 14.0522847,13 13.5,13 L4.5,13 C3.94771525,13 3.5,12.5522847 3.5,12 C3.5,11.4477153 3.94771525,11 4.5,11 L13.5,11 Z M24,6.2555216 C22.6519878,6.57065419 21.7510992,6.80372615 21.3162278,6.9486833 C20.3815665,7.26023704 19.9849064,7.83871926 20,8.91676494 L20,8.91676494 L20,9.39838835 L22.8122603,8.64845227 C23.5126657,8.46167749 24,7.82735753 24,7.10247646 L24,7.10247646 Z M15,5 C15.5522847,5 16,5.44771525 16,6 C16,6.55228475 15.5522847,7 15,7 L4.5,7 C3.94771525,7 3.5,6.55228475 3.5,6 C3.5,5.44771525 3.94771525,5 4.5,5 L15,5 Z" id="↳-Icon-Color" fill="currentColor" fill-rule="nonzero"></path>
        </g>
    </g>
</svg>
