<?xml version="1.0" encoding="UTF-8"?>
<svg width="28px" height="28px" viewBox="0 0 28 28" version="1.1" xmlns="http://www.w3.org/2000/svg" xmlns:xlink="http://www.w3.org/1999/xlink">
    <!-- Generator: Sketch 63.1 (92452) - https://sketch.com -->
    <title>play_speed_outline_28</title>
    <desc>Created with Sketch.</desc>
    <g id="Page-1" stroke="none" stroke-width="1" fill="none" fill-rule="evenodd">
        <g id="play_speed_outline_28">
            <rect x="0" y="0" width="28" height="28"></rect>
            <path d="M16.1787462,2.1974471 C21.8344046,3.23526889 26.0001751,8.1844653 26.0001751,14 C26.0001751,19.8159683 21.8337933,24.7654197 16.1775869,25.8027656 C15.6343624,25.9023927 15.1132282,25.542786 15.013601,24.9995615 C14.9139739,24.456337 15.2735806,23.9352027 15.8168051,23.8355756 C20.5275427,22.9716283 24.0001751,18.8463161 24.0001751,14 C24.0001751,9.15404498 20.5280521,5.02894526 15.8177704,4.16460151 C15.2745557,4.0649208 14.9150004,3.54375111 15.0146811,3.00053642 C15.1143618,2.45732172 15.6355315,2.09776639 16.1787462,2.1974471 Z M6.37502525,20.4704649 C7.65855454,21.9813368 9.362877,23.0841714 11.2740802,23.6242756 C11.5709121,23.7081599 11.8720283,23.7782967 12.176699,23.8343821 C12.7198573,23.9343696 13.0791181,24.4557424 12.9791306,24.9989007 C12.879143,25.542059 12.3577703,25.9013198 11.814612,25.8013323 C11.44864,25.7339622 11.0868564,25.6496946 10.7301835,25.5488993 C8.43469097,24.9001954 6.38987379,23.577033 4.85079232,21.7653448 C4.4932211,21.3444395 4.54456353,20.7133596 4.96546883,20.3557884 C5.38637413,19.9982172 6.01745404,20.0495596 6.37502525,20.4704649 Z M3.99194279,9.31951968 C4.51133187,9.50727865 4.7801712,10.0805354 4.59241223,10.5999245 C4.20195285,11.6800345 3.99982432,12.8254453 3.99982432,14 C3.99982432,15.1274627 4.1860597,16.2281804 4.54652945,17.2703437 C4.7270628,17.7922882 4.45029431,18.3617591 3.92834972,18.5422925 C3.40640514,18.7228258 2.83693425,18.4460574 2.65640089,17.9241128 C2.22343599,16.6723569 1.99982432,15.350732 1.99982432,14 C1.99982432,12.5927716 2.24254236,11.2173504 2.71153799,9.91998912 C2.89929696,9.40060004 3.47255371,9.13176072 3.99194279,9.31951968 Z M12.2,10.0785438 C12.3392216,10.0785438 12.476033,10.114876 12.5969112,10.1839492 L18.0594596,13.3054055 C18.4430735,13.5246135 18.5763509,14.0132972 18.357143,14.3969112 C18.2862715,14.5209362 18.1834846,14.6237231 18.0594596,14.6945945 L12.5969112,17.8160508 C12.2132972,18.0352587 11.7246135,17.9019814 11.5054055,17.5183674 C11.4363323,17.3974892 11.4,17.2606778 11.4,17.1214562 L11.4,10.8785438 C11.4,10.436716 11.7581722,10.0785438 12.2,10.0785438 Z M12.9811511,3.00091514 C13.0810385,3.54409187 12.7216814,4.06539831 12.1785047,4.16528567 C9.93655548,4.57756838 7.9150345,5.74783934 6.43203619,7.46301535 C6.0708134,7.88079106 5.43931035,7.92663625 5.02153464,7.56541346 C4.60375893,7.20419067 4.55791374,6.57268762 4.91913653,6.15491191 C6.69750638,4.09812109 9.12387852,2.6934793 11.8167806,2.19826872 C12.3599573,2.09838137 12.8812638,2.45773841 12.9811511,3.00091514 Z" id="↳-Icon-Color" fill="currentColor" fill-rule="nonzero"></path>
        </g>
    </g>
</svg>
