<svg fill="none" height="28" viewBox="0 0 28 28" width="28" xmlns="http://www.w3.org/2000/svg"><circle cx="14" cy="14" fill="#2787f5" r="14"/><path d="m10 17.9164v-7.8345c0-.94214 0-1.4132.1972-1.67871.1719-.23143.4353-.37743.7227-.40055.3296-.02651.7291.22313 1.528.7224l6.2649 3.91496c.7196.4497 1.0794.6746 1.2029.9625.1078.2515.1079.5362.0002.7877-.1233.288-.483.513-1.2024.9631l-6.2649 3.9195c-.7991.4999-1.1987.7499-1.5284.7235-.2875-.023-.551-.169-.7229-.4005-.1973-.2655-.1973-.7368-.1973-1.6794z" fill="#fff"/></svg>
