<svg fill="none" height="28" viewBox="0 0 28 28" width="28" xmlns="http://www.w3.org/2000/svg"><path clip-rule="evenodd" d="m20.3251 8.19779c.0984.54493.6251.90784 1.1765.81059.5515-.09725.9188-.61784.8204-1.16277-.3124-1.72975-.5507-2.9682-1.2553-3.89227-.6445-.8452-1.5433-1.46707-2.5674-1.77649-.6448-.19479-1.3063-.20755-2.0448-.13948-.7172.06611-1.5902.21826-2.6727.40689l-5.27943.91993c-1.08251.18862-1.95563.34075-2.65249.52104-.71749.18563-1.33476.42124-1.8732.8222-.85527.6369-1.48455 1.52502-1.79766 2.53708-.19127.61827-.20902 1.2517-.14715 1.95485.06084.69147.2072 1.52604.39034 2.55354.09716.5451.62313.9092 1.17478.8132s.92007-.6158.82291-1.161c-.18786-1.0539-.31569-1.79373-.36721-2.37938-.05051-.57399-.01881-.92054.06614-1.19514.18787-.60723.56544-1.1401 1.0786-1.52224.23941-.17829.57045-.32978 1.16619-.48391.60723-.1571 1.39847-.29577 2.53373-.49359l5.19385-.90502c1.1353-.19782 1.9268-.33495 2.5518-.39256.6131-.05652.9765-.02606 1.2632.06056.6145.18565 1.1537.55877 1.5404 1.06589.3525.46229.539 1.15816.8785 3.03808zm5.1749 11.37641.0504-.2819c.1909-1.0698.3449-1.9326.4118-2.6414.0689-.7298.0558-1.3836-.1413-2.0207-.3131-1.0121-.9424-1.9002-1.7976-2.5371-.5385-.4009-1.1556-.6366-1.8731-.8222-.6969-.1803-1.57-.3324-2.6525-.521l-5.2794-.91998c-1.0824-.18863-1.9556-.34078-2.6728-.4069-.7385-.06807-1.4001-.05531-2.04484.13949-1.02411.30942-1.92282.93129-2.56731 1.77649-.40574.5321-.64416 1.1421-.832 1.8512-.18243.6886-.33636 1.5513-.5272 2.621l-.05035.2821c-.19087 1.0696-.34485 1.9326-.41175 2.6414-.06888.7297-.05597 1.3835.14115 2.0207.31311 1.012.94239 1.9002 1.79766 2.5371.53843.4009 1.1557.6365 1.8732.8222.69686.1803 1.57004.3324 2.65254.521l5.2793.9199c1.0825.1887 1.9555.3408 2.6728.4069.7384.0681 1.4001.0553 2.0449-.1395 1.0241-.3094 1.9228-.9312 2.5673-1.7764.4057-.5321.6441-1.1421.832-1.8512.1824-.6886.3363-1.5515.5271-2.6212zm-1.6188-4.3579c.0877.2833.1184.6425.0612 1.2484-.0583.6177-.1971 1.3998-.3972 2.5217l-.0352.1974c-.2001 1.1219-.3406 1.9038-.4995 2.5039-.156.5888-.3092.9159-.4896 1.1525-.3867.5071-.926.8802-1.5405 1.0659-.2867.0866-.6502.1171-1.2633.0605-.625-.0576-1.4164-.1947-2.5518-.3925l-5.1938-.9051c-1.1353-.1978-1.9264-.3364-2.5337-.4935-.59575-.1542-.92679-.3057-1.1662-.4839-.51316-.3822-.89073-.9151-1.07859-1.5223-.08764-.2833-.11848-.6425-.06128-1.2485.0583-.6176.19706-1.3998.39724-2.5217l.03522-.1974c.20018-1.1219.3405-1.9038.49947-2.5038.15597-.5888.30926-.9159.48967-1.1525.3867-.5071.92592-.8802 1.54047-1.0659.2867-.0866.6501-.1171 1.2632-.0606.625.0577 1.4166.1948 2.5519.3926l5.1937.905c1.1353.1978 1.9266.3365 2.5338.4936.5958.1541.9268.3056 1.1662.4839.5132.3822.8907.915 1.0786 1.5223zm-9.0195-.6464c-.0713-.0663-.1604-.1103-.2564-.1267-.2723-.0463-.5305.1368-.5769.409l-.869 5.1048c-.0155.0915-.0053.1854.0294.2714.1036.256.3951.3796.651.2761l4.4324-1.7929c.0679-.0275.1288-.0695.1786-.1231.188-.2023.1766-.5187-.0257-.7067z" fill="currentColor" fill-rule="evenodd"/></svg>
