<svg fill="none" height="32" viewBox="0 0 32 32" width="32" xmlns="http://www.w3.org/2000/svg"><g fill="currentColor"><path clip-rule="evenodd" d="m9.2 8.5h13.6c.0243 0 .0487 0 .0731-.00001.4961-.00009 1.0067-.00018 1.4441.03556.4881.03988 1.1007.13643 1.7258.45492.8467.43143 1.5351 1.11983 1.9665 1.96653.3185.6251.4151 1.2377.455 1.7258.0357.4374.0356.948.0355 1.4441v7.7462c.0001.4961.0002 1.0067-.0355 1.4441-.0399.4881-.1365 1.1007-.455 1.7258-.4314.8467-1.1198 1.5351-1.9665 1.9665-.6251.3185-1.2377.4151-1.7258.4549-.4374.0358-.948.0357-1.4441.0356-.0244 0-.0488 0-.0731 0h-13.6c-.02433 0-.04871 0-.07312 0-.4961.0001-1.00666.0002-1.44405-.0356-.48811-.0398-1.1007-.1364-1.72579-.4549-.84672-.4314-1.53514-1.1198-1.96657-1.9665-.31849-.6251-.41504-1.2377-.45492-1.7258-.03573-.4374-.03564-.948-.03556-1.4441.00001-.0244.00001-.0488.00001-.0731v-7.6c0-.0243 0-.0487-.00001-.0731-.00008-.4961-.00017-1.0067.03556-1.4441.03988-.4881.13643-1.1007.45492-1.7258.43143-.8467 1.11985-1.5351 1.96657-1.96653.62509-.31849 1.23768-.41504 1.72579-.45492.43739-.03574.94793-.03565 1.44403-.03556.02442.00001.0488.00001.07314.00001zm-2.98201 3.592c-.21799.4278-.21799.9879-.21799 2.108v7.6c0 1.1201 0 1.6802.21799 2.108.19175.3763.49771.6823.87403.874.42782.218.98788.218 2.10798.218h13.6c1.1201 0 1.6802 0 2.108-.218.3763-.1917.6823-.4977.874-.874.218-.4278.218-.9879.218-2.108v-7.6c0-1.1201 0-1.6802-.218-2.108-.1917-.3763-.4977-.6823-.874-.874-.4278-.218-.9879-.218-2.108-.218h-13.6c-1.1201 0-1.68016 0-2.10798.218-.37632.1917-.68228.4977-.87403.874z" fill-rule="evenodd"/><path d="m9 6c0-1.10457.89543-2 2-2h10c1.1046 0 2 .89543 2 2v.5h-14z"/><path d="m14.599 14.174c-.0931-.0611-.202-.0936-.3133-.0936-.3156 0-.5714.2559-.5714.5715v5.9179c0 .106.0295.2099.0852.3002.1657.2685.5178.3518.7863.1861l4.6499-2.8701c.0712-.0439.1319-.103.1777-.1729.1731-.264.0993-.6182-.1646-.7912z"/></g></svg>
