<?xml version="1.0" encoding="UTF-8"?>
<svg width="28px" height="28px" viewBox="0 0 28 28" version="1.1" xmlns="http://www.w3.org/2000/svg" xmlns:xlink="http://www.w3.org/1999/xlink">
    <!-- Generator: Sketch 63.1 (92452) - https://sketch.com -->
    <title>play_rectangle_stack_outline_28</title>
    <desc>Created with Sketch.</desc>
    <g id="Page-1" stroke="none" stroke-width="1" fill="none" fill-rule="evenodd">
        <g id="play_rectangle_stack_outline_28">
            <rect x="0" y="0" width="28" height="28"></rect>
            <path d="M21,7 C23.209139,7 25,8.790861 25,11 L25,20 C25,22.209139 23.209139,24 21,24 L7,24 C4.790861,24 3,22.209139 3,20 L3,11 C3,8.790861 4.790861,7 7,7 L21,7 Z M21,9 L7,9 C5.8954305,9 5,9.8954305 5,11 L5,20 C5,21.1045695 5.8954305,22 7,22 L21,22 C22.1045695,22 23,21.1045695 23,20 L23,11 C23,9.8954305 22.1045695,9 21,9 Z M12.5,12.320377 C12.5973886,12.320377 12.6926573,12.3488182 12.7741071,12.402208 L16.8427061,15.0691481 C17.0736545,15.2205333 17.1381532,15.5304758 16.986768,15.7614242 C16.9466271,15.8226619 16.8935262,15.8743361 16.8312182,15.9127947 L12.7626191,18.4240715 C12.5276344,18.5691121 12.219563,18.4961979 12.0745224,18.2612131 C12.0258026,18.1822806 12,18.0913515 12,17.9985939 L12,12.820377 C12,12.5442346 12.2238576,12.320377 12.5,12.320377 Z M18,3 C19.0543618,3 19.9181651,3.81587779 19.9945143,4.85073766 L20,5 L8,5 C8,3.8954305 8.8954305,3 10,3 L18,3 Z" id="↳-Icon-Color" fill="currentColor" fill-rule="nonzero"></path>
        </g>
    </g>
</svg>
