<?xml version="1.0" encoding="UTF-8"?>
<svg width="28px" height="28px" viewBox="0 0 28 28" version="1.1" xmlns="http://www.w3.org/2000/svg" xmlns:xlink="http://www.w3.org/1999/xlink">
    <!-- Generator: Sketch 63.1 (92452) - https://sketch.com -->
    <title>podcast_outline_28</title>
    <desc>Created with Sketch.</desc>
    <g id="Page-1" stroke="none" stroke-width="1" fill="none" fill-rule="evenodd">
        <g id="podcast_outline_28" fill-rule="nonzero">
            <rect x="0" y="0" width="28" height="28"></rect>
            <path d="M14,6 C17.3137085,6 20,8.6862915 20,12 L20,18 C20,20.9727145 17.8381232,23.4404956 15.0008069,23.9169061 L15,25.5 C15,26.0522847 14.5522847,26.5 14,26.5 C13.4477153,26.5 13,26.0522847 13,25.5 L13.0001915,23.9170737 C10.1623839,23.4410745 8,20.9730632 8,18 L8,12 C8,8.6862915 10.6862915,6 14,6 Z M14,8 C11.790861,8 10,9.790861 10,12 L12.5,12 C13.0522847,12 13.5,12.4477153 13.5,13 C13.5,13.5522847 13.0522847,14 12.5,14 L10,14 L10,16 L12.5,16 C13.0522847,16 13.5,16.4477153 13.5,17 C13.5,17.5522847 13.0522847,18 12.5,18 L10,18 C10,20.209139 11.790861,22 14,22 C16.209139,22 18,20.209139 18,18 L17,18 C16.4477153,18 16,17.5522847 16,17 C16,16.4871642 16.3860402,16.0644928 16.8833789,16.0067277 L17,16 L18,16 L18,14 L17,14 C16.4477153,14 16,13.5522847 16,13 C16,12.4871642 16.3860402,12.0644928 16.8833789,12.0067277 L17,12 L18,12 C18,9.790861 16.209139,8 14,8 Z M14,2 C19.1894132,2 23.4555846,5.95286777 23.9517978,11.0118868 C24.8228698,11.1111557 25.5,11.8515017 25.5,12.75 L25.5,17.25 C25.5,18.2164983 24.7164983,19 23.75,19 C22.7835017,19 22,18.2164983 22,17.25 L22,12 C22,7.581722 18.418278,4 14,4 C9.581722,4 6,7.581722 6,12 L6,17.25 C6,18.2164983 5.21649831,19 4.25,19 C3.28350169,19 2.5,18.2164983 2.5,17.25 L2.5,12.75 C2.5,11.8515017 3.17713024,11.1111557 4.04892653,11.0114262 C4.54441537,5.95286777 8.81058682,2 14,2 Z" id="↳-Icon-Color" fill="currentColor"></path>
        </g>
    </g>
</svg>
