<svg fill="none" height="28" viewBox="0 0 28 28" width="28" xmlns="http://www.w3.org/2000/svg" xmlns:xlink="http://www.w3.org/1999/xlink"><linearGradient id="a" gradientUnits="userSpaceOnUse" x1="0" x2="28" y1="0" y2="28"><stop offset="0" stop-color="#f060c0"/><stop offset="1" stop-color="#e03fab"/></linearGradient><circle cx="14" cy="14" fill="url(#a)" r="14"/><g fill="#fff"><path clip-rule="evenodd" d="m11 11.8c0-1.6802 0-2.52024.327-3.16197.2876-.56449.7465-1.02343 1.311-1.31105.6418-.32698 1.4818-.32698 3.162-.32698h.4c1.6802 0 2.5202 0 3.162.32698.5645.28762 1.0234.74656 1.311 1.31105.327.64173.327 1.48177.327 3.16197v.4c0 1.6802 0 2.5202-.327 3.162-.2876.5645-.7465 1.0234-1.311 1.311-.6418.327-1.4818.327-3.162.327h-.4c-1.6802 0-2.5202 0-3.162-.327-.5645-.2876-1.0234-.7465-1.311-1.311-.327-.6418-.327-1.4818-.327-3.162zm3-.3c.5523 0 1-.4477 1-1 0-.55228-.4477-1-1-1s-1 .44772-1 1c0 .5523.4477 1 1 1zm4 0c.5523 0 1-.4477 1-1 0-.55228-.4477-1-1-1s-1 .44772-1 1c0 .5523.4477 1 1 1zm-4.4487 2.1838c.1747-.5239.741-.8071 1.265-.6325l.235.0784c.6158.2053 1.2816.2053 1.8974 0l.2351-.0784c.5239-.1746 1.0903.1086 1.2649.6325.1747.5239-.1085 1.0903-.6324 1.2649l-.2351.0784c-1.0264.3421-2.136.3421-3.1623 0l-.2351-.0784c-.5239-.1746-.8071-.741-.6325-1.2649z" fill-rule="evenodd"/><path d="m9.00201 13.019c-.39327.0239-.67208.0777-.90999.199-.37633.1917-.68229.4977-.87403.874-.21799.4278-.21799.9879-.21799 2.108v1.6c0 1.1201 0 1.6801.21799 2.108.19174.3763.4977.6822.87403.874.42782.218.98788.218 2.10798.218h1.6c1.1201 0 1.6802 0 2.108-.218.3763-.1918.6823-.4977.874-.874.1212-.238.175-.5168.1989-.91-1.2105-.008-1.9248-.0474-2.526-.2427-1.5222-.4946-2.71559-1.6881-3.21018-3.2102-.19535-.6013-.23476-1.3156-.24271-2.5261z"/></g></svg>
