<svg xmlns="http://www.w3.org/2000/svg" width="28" height="28" fill="none" viewBox="0 0 28 28"><path fill="url(#a)" fill-rule="evenodd" d="M14 26c6.6274 0 12-5.3726 12-12S20.6274 2 14 2 2 7.3726 2 14s5.3726 12 12 12Z" clip-rule="evenodd"/><path stroke="currentColor" stroke-opacity=".08" stroke-width=".75" d="M25.625 14c0 6.4203-5.2047 11.625-11.625 11.625S2.375 20.4203 2.375 14 7.5797 2.375 14 2.375 25.625 7.5797 25.625 14Z"/><g filter="url(#b)"><path fill="#fff" fill-rule="evenodd" d="M9.592 18.9312c.2214.198.5065.2969.8555.2969.3438 0 .6159-.0963.8164-.289.2005-.1928.3659-.5157.4961-.9688l.4141-1.2734H15.76l.4063 1.2734c.1302.4427.3007.763.5117.9609.2109.198.4883.2969.832.2969.3698 0 .6667-.1015.8906-.3047.224-.2031.336-.4739.336-.8125 0-.2448-.0703-.5859-.211-1.0234l-2.3515-6.9141c-.2136-.6406-.4844-1.0963-.8125-1.3672-.3282-.2708-.7735-.4062-1.336-.4062-.5625 0-1.0091.1367-1.3398.4101-.3307.2735-.6029.728-.8164 1.3633L9.51 17.0875c-.0885.2656-.1523.4792-.1914.6406-.039.1615-.0586.3073-.0586.4375 0 .3125.1107.5677.332.7656Zm4.3243-8.1406h.125l1.1953 4.0391h-2.5313l1.211-4.0391Z" clip-rule="evenodd"/></g><defs><filter id="b" width="13.4766" height="14.8281" x="7.26" y="7.4" color-interpolation-filters="sRGB" filterUnits="userSpaceOnUse"><feFlood flood-opacity="0" result="BackgroundImageFix"/><feColorMatrix in="SourceAlpha" result="hardAlpha" values="0 0 0 0 0 0 0 0 0 0 0 0 0 0 0 0 0 0 127 0"/><feOffset dy="1"/><feGaussianBlur stdDeviation="1"/><feColorMatrix values="0 0 0 0 0 0 0 0 0 0 0 0 0 0 0 0 0 0 0.237121 0"/><feBlend in2="BackgroundImageFix" result="effect1_dropShadow_43482_11017"/><feBlend in="SourceGraphic" in2="effect1_dropShadow_43482_11017" result="shape"/></filter><radialGradient id="a" cx="0" cy="0" r="1" gradientTransform="matrix(12 0 0 12 14 14)" gradientUnits="userSpaceOnUse"><stop offset=".0865" stop-color="#FD5C5C"/><stop offset=".2011" stop-color="#FE77C4"/><stop offset=".3324" stop-color="#C47EFF"/><stop offset=".4459" stop-color="#508DFA"/><stop offset=".5729" stop-color="#5FE3FF"/><stop offset=".6915" stop-color="#50E98E"/><stop offset=".8166" stop-color="#FFED63"/><stop offset=".9477" stop-color="#FFB063"/></radialGradient></defs></svg>
