<svg height="28" viewBox="0 0 28 28" width="28" xmlns="http://www.w3.org/2000/svg"><path fill="currentColor" d="m14 26c-6.627417 0-12-5.372583-12-12s5.372583-12 12-12 12 5.372583 12 12-5.372583 12-12 12zm0-2c5.5228475 0 10-4.4771525 10-10s-4.4771525-10-10-10-10 4.4771525-10 10 4.4771525 10 10 10zm2.75-11.75c0-1.5195903-1.2304097-2.75-2.75-2.75s-2.75 1.2304097-2.75 2.75 1.2304097 2.75 2.75 2.75 2.75-1.2304097 2.75-2.75zm2 0c0 2.6241597-2.1258403 4.75-4.75 4.75s-4.75-2.1258403-4.75-4.75c0-2.62415975 2.1258403-4.75 4.75-4.75s4.75 2.12584025 4.75 4.75zm-12.11190517 8.5178244c.47131577.5124214.99544245.9755053 1.56374863 1.3806202.68761616-1.3676123 3.04914134-2.1700601 5.79815654-2.1700601s5.1105404.8024478 5.7981565 2.1700601c.5683062-.4051149 1.0924329-.8681988 1.5637487-1.3806202-1.2422601-1.9084022-4.1470327-2.7894399-7.3619052-2.7894399s-6.11964509.8810377-7.36190517 2.7894399z"/></svg>
