<svg fill="none" height="28" viewBox="0 0 28 28" width="28" xmlns="http://www.w3.org/2000/svg"><path clip-rule="evenodd" d="m14.0185 5.5c-5.38511 0-9.48162 3.71891-9.48162 7.9989 0 1.537.51463 2.9789 1.42186 4.2007.12802.1724.19714.3814.19714.5961 0 1.0419-.27362 2.052-.61017 2.963-.21196.5738-.46379 1.1447-.70426 1.6752 2.05607-.2184 3.40491-.8768 4.21826-1.8339.27317-.3214.71868-.4369 1.11359-.2886 1.1722.4402 2.4725.6865 3.8452.6865 5.385 0 9.4815-3.7189 9.4815-7.999 0-4.27999-4.0965-7.9989-9.4815-7.9989zm-11.48162 7.9989c0-5.65988 5.28901-9.9989 11.48162-9.9989 6.1925 0 11.4815 4.33902 11.4815 9.9989 0 5.66-5.289 9.999-11.4815 9.999-1.3732 0-2.6931-.2099-3.918-.5966-1.44488 1.3485-3.54419 1.9967-6.11221 2.0976-1.0461.0411-1.80116-1.047-1.36313-2.0209.08969-.2008.18017-.3993.27011-.5966l.00016-.0004h.00001c.27571-.6049.54643-1.1988.77419-1.8153.25611-.6933.43053-1.3484.47504-1.9655-1.01683-1.4807-1.60779-3.2281-1.60779-5.1013zm11.45092-3.497c-.4289 0-.7917.2933-.8943.6918-.1377.5348-.6828.8568-1.2177.7192-.5349-.1377-.8568-.6829-.7192-1.2177.3245-1.26068 1.4677-2.19329 2.8312-2.19329 1.6145 0 2.9234 1.30883 2.9234 2.92339 0 1.2896-.7093 1.966-1.1892 2.414-.4695.4382-.6796.6413-.7442 1.0933-.0781.5467-.5846.9266-1.1314.8485-.5467-.0781-.9266-.5846-.8485-1.1314.1668-1.1679.8519-1.8023 1.2907-2.2087l.0687-.0638c.4217-.3936.5539-.5587.5539-.9519 0-.51-.4134-.9234-.9234-.9234zm.0114 8.9981c.6903 0 1.25-.5596 1.25-1.25s-.5597-1.25-1.25-1.25c-.6904 0-1.25.5596-1.25 1.25s.5596 1.25 1.25 1.25z" fill="currentColor" fill-rule="evenodd"/></svg>
