<svg fill="none" height="28" viewBox="0 0 28 28" width="28" xmlns="http://www.w3.org/2000/svg"><path clip-rule="evenodd" d="m14.0184 5.5c-5.38507 0-9.48158 3.71891-9.48158 7.9989 0 1.537.51463 2.9789 1.42186 4.2007.12801.1724.19714.3814.19714.5961 0 1.0419-.27363 2.052-.61017 2.963-.21197.5738-.46379 1.1447-.70426 1.6752 2.05607-.2184 3.40491-.8768 4.21826-1.8339.27317-.3214.71868-.4369 1.11355-.2886 1.1723.4402 2.4726.6865 3.8452.6865 5.3851 0 9.4816-3.7189 9.4816-7.999 0-4.27999-4.0965-7.9989-9.4816-7.9989zm-11.48158 7.9989c0-5.65988 5.28901-9.9989 11.48158-9.9989 6.1926 0 11.4816 4.33902 11.4816 9.9989 0 5.66-5.289 9.999-11.4816 9.999-1.3731 0-2.693-.2099-3.918-.5966-1.44484 1.3485-3.54415 1.9967-6.11217 2.0976-1.0461.0411-1.80116-1.047-1.36313-2.0209.08969-.2008.18017-.3993.27011-.5966l.00016-.0004h.00001c.27571-.6049.54643-1.1988.77419-1.8153.2561-.6933.43053-1.3484.47504-1.9655-1.01683-1.4807-1.60779-3.2281-1.60779-5.1013zm11.45098-3.497c-.4289 0-.7918.2933-.8944.6918-.1376.5348-.6828.8568-1.2177.7192-.5348-.1377-.8568-.6829-.7191-1.2177.3244-1.26068 1.4676-2.19329 2.8312-2.19329 1.6145 0 2.9233 1.30883 2.9233 2.92339 0 1.2896-.7093 1.966-1.1892 2.414-.4695.4382-.6796.6413-.7442 1.0933-.0781.5467-.5846.9266-1.1313.8485-.5468-.0781-.9267-.5846-.8486-1.1314.1669-1.1679.852-1.8023 1.2907-2.2087l.0688-.0638c.4217-.3936.5538-.5587.5538-.9519 0-.51-.4134-.9234-.9233-.9234zm.0113 8.9981c.6904 0 1.25-.5596 1.25-1.25s-.5596-1.25-1.25-1.25c-.6903 0-1.25.5596-1.25 1.25s.5597 1.25 1.25 1.25z" fill="currentColor" fill-rule="evenodd"/></svg>
