<svg fill="none" height="28" viewBox="0 0 28 28" width="28" xmlns="http://www.w3.org/2000/svg" xmlns:xlink="http://www.w3.org/1999/xlink"><linearGradient id="a" gradientUnits="userSpaceOnUse" x1="-14" x2="14" y1="14" y2="42"><stop offset="0" stop-color="#ff5263"/><stop offset="1" stop-color="#ff3347"/></linearGradient><path d="m14 28c7.732 0 14-6.268 14-14 0-7.73199-6.268-14-14-14-7.73199 0-14 6.26801-14 14 0 7.732 6.26801 14 14 14z" fill="url(#a)"/><g fill="#fff"><path d="m16 14c0 1.1046-.8954 2-2 2s-2-.8954-2-2 .8954-2 2-2 2 .8954 2 2z"/><path clip-rule="evenodd" d="m17.2289 10.0542c.4266-.35081 1.0568-.28933 1.4076.1373.8515 1.0356 1.3635 2.3636 1.3635 3.8085s-.512 2.7729-1.3635 3.8085c-.3508.4266-.981.4881-1.4076.1373-.4266-.3507-.488-.9809-.1373-1.4075.5681-.6909.9084-1.5735.9084-2.5383s-.3403-1.8474-.9084-2.5383c-.3507-.4266-.2893-1.0568.1373-1.4075zm-6.4578 0c.4266.3507.488.9809.1373 1.4075-.5681.6909-.9084 1.5735-.9084 2.5383s.3403 1.8474.9084 2.5383c.3507.4266.2893 1.0568-.1373 1.4075-.4266.3508-1.05681.2893-1.40757-.1373-.85151-1.0356-1.36353-2.3636-1.36353-3.8085s.51202-2.7729 1.36353-3.8085c.35076-.42663.98097-.48811 1.40757-.1373z" fill-rule="evenodd"/><path clip-rule="evenodd" d="m7.95859 7.25487c.41153.36833.44655 1.00053.07823 1.41205-1.26737 1.41598-2.03682 3.28348-2.03682 5.33308s.76945 3.9171 2.03682 5.3331c.36832.4115.3333 1.0437-.07823 1.412-.41152.3684-1.04372.3334-1.41204-.0782-1.58288-1.7685-2.54655-4.1063-2.54655-6.6669 0-2.5605.96367-4.89838 2.54655-6.6669.36832-.41153 1.00052-.44655 1.41204-.07823zm12.08281 0c.4115-.36832 1.0437-.3333 1.4121.07823 1.5828 1.76852 2.5465 4.1064 2.5465 6.6669 0 2.5606-.9637 4.8984-2.5465 6.6669-.3684.4116-1.0006.4466-1.4121.0782-.4115-.3683-.4465-1.0005-.0782-1.412 1.2674-1.416 2.0368-3.2835 2.0368-5.3331s-.7694-3.9171-2.0368-5.33308c-.3683-.41152-.3333-1.04372.0782-1.41205z" fill-rule="evenodd"/></g></svg>
