<?xml version="1.0" encoding="UTF-8"?>
<svg width="28px" height="28px" viewBox="0 0 28 28" version="1.1" xmlns="http://www.w3.org/2000/svg" xmlns:xlink="http://www.w3.org/1999/xlink">
    <!-- Generator: Sketch 63.1 (92452) - https://sketch.com -->
    <title>radiowaves_left_and_right_outline_28</title>
    <desc>Created with Sketch.</desc>
    <g id="Page-1" stroke="none" stroke-width="1" fill="none" fill-rule="evenodd">
        <g id="radiowaves_left_and_right_outline_28">
            <rect x="0" y="0" width="28" height="28"></rect>
            <path d="M7.49096615,5.69783974 C7.872205,6.09743376 7.85732519,6.73042388 7.45773116,7.11166273 C7.44960212,7.11941841 7.44960212,7.11941841 7.42505983,7.14289202 C7.41290805,7.15453746 7.41290805,7.15453746 7.40428363,7.16284056 C5.55983883,8.94259169 4.49999827,11.3856632 4.49999827,14 C4.49999827,16.6291092 5.57193926,19.0847935 7.43478551,20.8664615 C7.83390938,21.2481926 7.84800905,21.8812005 7.46627801,22.2803244 C7.08454697,22.6794483 6.451539,22.6935479 6.05241513,22.3118169 C3.79904105,20.1566392 2.49999827,17.1806928 2.49999827,14 C2.49999827,10.8371985 3.78439495,7.87649564 6.01553571,5.72361187 C6.02807167,5.7115428 6.02807167,5.7115428 6.04155354,5.6986239 C6.06825778,5.67308194 6.06825778,5.67308194 6.07714316,5.66460475 C6.47673719,5.28336591 7.1097273,5.29824571 7.49096615,5.69783974 Z M20.5090321,5.69783974 C20.890271,5.29824571 21.5232611,5.28336591 21.9228551,5.66460475 C21.9317405,5.67308194 21.9317405,5.67308194 21.9584447,5.6986239 C21.9719266,5.7115428 21.9719266,5.7115428 21.9844626,5.72361187 C24.2156033,7.87649564 25.5,10.8371985 25.5,14 C25.5,17.1806928 24.2009572,20.1566392 21.9475831,22.3118169 C21.5484593,22.6935479 20.9154513,22.6794483 20.5337203,22.2803244 C20.1519892,21.8812005 20.1660889,21.2481926 20.5652128,20.8664615 C22.428059,19.0847935 23.5,16.6291092 23.5,14 C23.5,11.3856632 22.4401594,8.94259169 20.5957146,7.16284056 C20.5870902,7.15453746 20.5870902,7.15453746 20.5749384,7.14289202 C20.5503961,7.11941841 20.5503961,7.11941841 20.5422671,7.11166273 C20.1426731,6.73042388 20.1277933,6.09743376 20.5090321,5.69783974 Z M10.8377554,9.09429265 C11.2121913,9.50026821 11.1866234,10.1329168 10.7806479,10.5073527 C9.81082194,11.4018344 9.24999491,12.6547309 9.24999491,14 C9.24999491,15.3449306 9.81053722,16.5975396 10.7799358,17.4919904 C11.1858356,17.8665086 11.2112754,18.4991623 10.8367572,18.905062 C10.4622391,19.3109618 9.82958539,19.3364016 9.42368564,18.9618834 C8.04810767,17.6926564 7.24999491,15.9091636 7.24999491,14 C7.24999491,12.0903549 8.04851207,10.3064549 9.42469532,9.03718514 C9.83067088,8.66274919 10.4633194,8.68831709 10.8377554,9.09429265 Z M17.1622395,9.09429265 C17.5366755,8.68831709 18.169324,8.66274919 18.5752996,9.03718514 C19.9514828,10.3064549 20.75,12.0903549 20.75,14 C20.75,15.9091636 19.9518872,17.6926564 18.5763093,18.9618834 C18.1704095,19.3364016 17.5377558,19.3109618 17.1632377,18.905062 C16.7887195,18.4991623 16.8141593,17.8665086 17.2200591,17.4919904 C18.1894577,16.5975396 18.75,15.3449306 18.75,14 C18.75,12.6547309 18.189173,11.4018344 17.219347,10.5073527 C16.8133715,10.1329168 16.7878036,9.50026821 17.1622395,9.09429265 Z M14,11.75 C15.2426407,11.75 16.25,12.7573593 16.25,14 C16.25,15.2426407 15.2426407,16.25 14,16.25 C12.7573593,16.25 11.75,15.2426407 11.75,14 C11.75,12.7573593 12.7573593,11.75 14,11.75 Z" id="↳-Icon-Color" fill="currentColor" fill-rule="nonzero"></path>
        </g>
    </g>
</svg>
