<?xml version="1.0" encoding="UTF-8"?>
<svg width="28px" height="28px" viewBox="0 0 28 28" version="1.1" xmlns="http://www.w3.org/2000/svg" xmlns:xlink="http://www.w3.org/1999/xlink">
    <!-- Generator: Sketch 63.1 (92452) - https://sketch.com -->
    <title>recent_outline_28</title>
    <desc>Created with Sketch.</desc>
    <g id="Menu-Icons" stroke="none" stroke-width="1" fill="none" fill-rule="evenodd">
        <g id="recent_outline_28">
            <rect id="clock_outline_28" x="0" y="0" width="28" height="28"></rect>
            <path d="M14,2 C20.6258462,2 26,7.37230769 26,14 C26,20.6276923 20.6258462,26 14,26 C7.37230769,26 2,20.6276923 2,14 C2,7.37230769 7.37230769,2 14,2 Z M14,4 C8.47687719,4 4,8.47687719 4,14 C4,19.5231228 8.47687719,24 14,24 C19.5219618,24 24,19.5224377 24,14 C24,8.47756232 19.5219618,4 14,4 Z M13.5,8.00008462 C14.0522847,8.00008462 14.5,8.44779987 14.5,9.00008462 L14.5,9.00008462 L14.5,14.1036813 L19.3745658,16.0728843 C19.8866444,16.2797513 20.1340673,16.8625718 19.9272003,17.3746504 C19.7203334,17.886729 19.1375128,18.1341519 18.6254342,17.9272849 L18.6254342,17.9272849 L13.1254342,15.7054222 C12.7474545,15.5527278 12.5,15.1858788 12.5,14.7782218 L12.5,14.7782218 L12.5,9.00008462 C12.5,8.44779987 12.9477153,8.00008462 13.5,8.00008462 Z" id="↳-Icon-Color" fill="currentColor" fill-rule="nonzero"></path>
        </g>
    </g>
</svg>
