<svg xmlns="http://www.w3.org/2000/svg" width="28" height="28" fill="currentColor" viewBox="0 0 28 28"><path fill-rule="evenodd" d="M21.354 11.021a3 3 0 0 0-2.916 1.419 1 1 0 1 1-1.709-1.04 4.998 4.998 0 0 1 4.861-2.365 5 5 0 0 1 2.008 9.237 1 1 0 0 1-1.04-1.709 3 3 0 0 0-1.204-5.542ZM7.59 9.035A5 5 0 1 0 7.014 19h10.572l2.707 2.707a1 1 0 0 0 1.414-1.414l-15-15a1 1 0 0 0-1.414 1.414L7.625 9.04l-.035-.004Zm-.236 1.986a3 3 0 1 0-.708 5.957 3 3 0 0 0 .708-5.957Zm4.611 3.57A5 5 0 0 1 11 17h4.586l-3.625-3.625a5 5 0 0 1 .004 1.215Z" clip-rule="evenodd"/></svg>
