<svg fill="none" height="28" viewBox="0 0 28 28" width="28" xmlns="http://www.w3.org/2000/svg"><g clip-rule="evenodd" fill="currentColor" fill-rule="evenodd"><path d="m8.04016 3h-.08032c-.66585-.00001-1.2254-.00003-1.68327.03738-.47872.03912-.93368.12406-1.36554.3441-.65856.33556-1.19399.87099-1.52955 1.52955-.22004.43186-.30498.88682-.3441 1.36554-.03741.45787-.03739 1.01738-.03738 1.68324v.08035c-.00001.66586-.00003 1.2254.03738 1.68327.03912.47867.12406.93367.3441 1.36557.33556.6585.87099 1.194 1.52955 1.5295.43186.2201.88682.305 1.36554.3441.45788.0374 1.01741.0374 1.6833.0374h.08027c.66588 0 13.22546 0 13.68326-.0374.4787-.0391.9337-.124 1.3656-.3441.6585-.3355 1.194-.871 1.5295-1.5295.2201-.4319.305-.8869.3441-1.36557.0374-.45787.0374-1.01739.0374-1.68326v-.0803c0-.66587 0-1.22542-.0374-1.6833-.0391-.47872-.124-.93368-.3441-1.36554-.3355-.65856-.871-1.19399-1.5295-1.52955-.4319-.22004-.8869-.30498-1.3656-.3441-.4578-.03741-13.01737-.03739-13.68324-.03738zm-2.22114 2.16349c.10292-.05244.26538-.10374.62042-.13275.36671-.02996.84399-.03074 1.56056-.03074s13.1938.00078 13.5606.03074c.355.02901.5175.08031.6204.13275.2822.14381.5117.37328.6555.65553.0525.10292.1038.26538.1328.62042.0299.36671.0307.84399.0307 1.56056s-.0008 1.19385-.0307 1.56056c-.029.35504-.0803.51754-.1328.62044-.1438.2822-.3733.5117-.6555.6555-.1029.0525-.2654.1038-.6204.1328-.3668.0299-12.84403.0307-13.5606.0307s-1.19385-.0008-1.56056-.0307c-.35504-.029-.5175-.0803-.62042-.1328-.28225-.1438-.51172-.3733-.65553-.6555-.05244-.1029-.10374-.2654-.13275-.62044-.02996-.36671-.03074-.84399-.03074-1.56056s.00078-1.19385.03074-1.56056c.02901-.35504.08031-.5175.13275-.62042.14381-.28225.37328-.51172.65553-.65553z"/><path d="m21.7234 15.0374c-.4578-.0374-13.01737-.0374-13.68324-.0374h-.08032c-.66587 0-1.22539 0-1.68327.0374-.47872.0391-.93368.124-1.36554.3441-.65856.3355-1.19399.871-1.52955 1.5295-.22004.4319-.30498.8869-.3441 1.3656-.03741.4578-.03739 1.0174-.03738 1.6832v.0804c-.00001.6658-.00003 1.2254.03738 1.6832.03912.4787.12406.9337.3441 1.3656.33556.6585.87099 1.194 1.52955 1.5295.43186.2201.88682.305 1.36554.3441.45788.0374 1.0174.0374 1.68327.0374h.0803c.66588 0 13.22546 0 13.68326-.0374.4787-.0391.9337-.124 1.3656-.3441.6585-.3355 1.194-.871 1.5295-1.5295.2201-.4319.305-.8869.3441-1.3656.0374-.4578.0374-1.0174.0374-1.6832v-.0803c0-.6659 0-1.2255-.0374-1.6833-.0391-.4787-.124-.9337-.3441-1.3656-.3355-.6585-.871-1.194-1.5295-1.5295-.4319-.2201-.8869-.305-1.3656-.3441zm-15.90438 2.1261c.10292-.0524.26538-.1038.62042-.1328.36671-.0299.84399-.0307 1.56056-.0307s13.1938.0008 13.5606.0307c.355.029.5175.0804.6204.1328.2822.1438.5117.3733.6555.6555.0525.1029.1038.2654.1328.6204.0299.3668.0307.844.0307 1.5606s-.0008 1.1939-.0307 1.5606c-.029.355-.0803.5175-.1328.6204-.1438.2822-.3733.5117-.6555.6555-.1029.0525-.2654.1038-.6204.1328-.3668.0299-12.84403.0307-13.5606.0307s-1.19385-.0008-1.56056-.0307c-.35504-.029-.5175-.0803-.62042-.1328-.28225-.1438-.51172-.3733-.65553-.6555-.05244-.1029-.10374-.2654-.13275-.6204-.02996-.3667-.03074-.844-.03074-1.5606s.00078-1.1938.03074-1.5606c.02901-.355.08031-.5175.13275-.6204.14381-.2822.37328-.5117.65553-.6555z"/></g></svg>
