<?xml version="1.0" encoding="UTF-8"?>
<svg width="28px" height="28px" viewBox="0 0 28 28" version="1.1" xmlns="http://www.w3.org/2000/svg" xmlns:xlink="http://www.w3.org/1999/xlink">
    <!-- Generator: Sketch 63.1 (92452) - https://sketch.com -->
    <title>refresh_outline_28</title>
    <desc>Created with Sketch.</desc>
    <g id="Page-1" stroke="none" stroke-width="1" fill="none" fill-rule="evenodd">
        <g id="refresh_outline_28">
            <rect x="0" y="0" width="28" height="28"></rect>
            <path d="M12.2928932,1.29289322 C12.6834175,0.902368927 13.3165825,0.902368927 13.7071068,1.29289322 L13.7071068,1.29289322 L16.7071068,4.29289322 C17.0976311,4.68341751 17.0976311,5.31658249 16.7071068,5.70710678 L16.7071068,5.70710678 L13.7071068,8.70710678 C13.3165825,9.09763107 12.6834175,9.09763107 12.2928932,8.70710678 C11.9023689,8.31658249 11.9023689,7.68341751 12.2928932,7.29289322 L12.2928932,7.29289322 L13.5734196,6.01117868 C9.35346494,6.23289195 6,9.72482412 6,14 C6,18.418278 9.581722,22 14,22 C18.418278,22 22,18.418278 22,14 C22,12.0051716 21.2684306,10.126786 19.9659968,8.67005741 C19.5978861,8.25833791 19.633238,7.62616062 20.0449575,7.2580499 C20.4566769,6.88993918 21.0888542,6.92529108 21.456965,7.33701058 C23.0841213,9.15693036 24,11.5085507 24,14 C24,19.5228475 19.5228475,24 14,24 C8.4771525,24 4,19.5228475 4,14 C4,8.61352326 8.25878153,4.22173825 13.5928521,4.0081375 L12.2928932,2.70710678 C11.9023689,2.31658249 11.9023689,1.68341751 12.2928932,1.29289322 Z" id="↳-Icon-Color" fill="currentColor" fill-rule="nonzero"></path>
        </g>
    </g>
</svg>
