<svg height="28" viewBox="0 0 28 28" width="28" xmlns="http://www.w3.org/2000/svg"><g fill="none"><path d="m0 0h28v28h-28z"/><path d="m14.1383523 4.00651799c1.3373123.09506021 2.3929026 1.21806514 2.3929026 2.58943579l.0011986 2.55619714.0244821.00591559c5.4322892 1.13374869 9.4430644 5.98293539 9.4430644 11.70407579 0 .4156855-.0211032.8299166-.062845 1.2407647-.0995096.979434-1.337209 1.3313803-1.9304085.5489219l-.2239013-.2855302c-1.7491012-2.156992-4.2393793-3.5719306-6.9945074-3.9426248l-.2558843-.0311349-.0011986 3.0117098c0 .5802813-.1932078 1.1441191-.5487435 1.6010811-.8779478 1.1284065-2.4977183 1.3261912-3.6178586.4417644l-9.37726917-7.4039898c-.16329681-.1289339-.31053894-.2772627-.43852832-.4417645-.87794783-1.1284066-.68161201-2.7601304.43852832-3.6445571l9.37726917-7.4039899c.4536144-.35815938 1.0133218-.552793 1.5896651-.552793zm-.1840344 2.16683866c-.0938233 0-.1849384.03168455-.2587827.08998956l-9.37726912 7.40398989c-.18234842.1439765-.21431007.4096059-.07138833.5933.02083548.0267794.04480513.0509259.07138833.0719151l9.37726912 7.4039899c.1823485.1439765.446032.111779.5889538-.0719151.0578779-.0743892.0893303-.1661767.0893303-.2606924l.0011986-4.1623815c.0001748-.6070198.4939565-1.0961936 1.0964482-1.0862163l.2794451.0046277.4101753.0199527c2.7256744.1752502 5.2698219 1.1919143 7.3335354 2.8565593l.2089078.173487-.028525-.1634349c-.7704653-4.1238826-4.1170192-7.3717347-8.3521014-7.8920131-.5411359-.0664784-.9479862-.529221-.9481359-1.0783888l-.0009481-3.47987367c0-.2336922-.1878172-.42289538-.4195014-.42289538z" fill="currentColor"/></g></svg>
