<svg fill="none" height="28" viewBox="0 0 28 28" width="28" xmlns="http://www.w3.org/2000/svg"><g fill="currentColor"><path d="m13.5673 3.90841c0-.31935-.3501-.5151-.6222-.34787l-5.01854 3.0847c-.25935.15941-.25935.53633 0 .69574l5.01854 3.08472c.2721.1672.6222-.0285.6222-.3479v-2.20969c4.027 0 7.2916 3.26459 7.2916 7.29169s-3.2646 7.2916-7.2916 7.2916c-3.5212 0-6.5219-2.5144-7.16556-5.9332-.08941-.4749-.54688-.7874-1.02179-.698-.4749.0894-.78741.5468-.698 1.0217.79869 4.2423 4.51872 7.3595 8.88535 7.3595 4.9935 0 9.0416-4.048 9.0416-9.0416s-4.0481-9.04169-9.0416-9.04169z"/><path d="m10.5 18.5431c-.2255 0-.4083-.1828-.4083-.4083v-4.1745l-1.01224.3976c-.2143.0842-.44611-.0738-.44611-.304v-.5676c0-.1641.09818-.3122.24928-.3761l2.15257-.9104c.2692-.1139.5674.0837.5674.3761v5.5589c0 .2255-.1828.4083-.4084.4083z"/><path d="m13.122 16.7409c-.1114.1294-.167.2878-.167.475 0 .2496.0976.4859.2929.709s.4624.4025.8011.5382c.3388.1357.7126.2036 1.1216.2036.4974 0 .9346-.096 1.3115-.2878.3769-.1919.6676-.4626.872-.812.2045-.3495.3067-.7551.3067-1.2168 0-.415-.0847-.78-.254-1.0952-.1694-.3151-.4067-.56-.7119-.7347-.3051-.1748-.6576-.2621-1.0574-.2621-.2686 0-.5173.0444-.7462.1334-.2289.0889-.3982.2067-.5081.3533h-.0778l.1007-1.3853h2.298c.2228 0 .3929-.0522.5104-.1568.1175-.1045.1762-.2535.1762-.4469 0-.1966-.0595-.3494-.1785-.4586s-.2884-.1638-.5081-.1638h-2.6001c-.5707 0-.8729.2511-.9064.7534l-.1511 2.2745c-.0092.1529.0176.2902.0801.4119.0626.1217.1526.216.2701.2831s.251.1006.4005.1006c.0947 0 .1862-.0179.2747-.0538s.1877-.0975.2976-.1848c.1373-.0999.28-.1771.428-.2317s.2922-.0819.4326-.0819c.1892 0 .3593.0413.5104.124s.2685.1989.3525.3487c.0839.1497.1259.3213.1259.5148 0 .2028-.0443.3822-.1328.5382s-.2113.2777-.3685.365c-.1572.0874-.3349.1311-.5333.1311-.2075 0-.3967-.0476-.5676-.1428-.1709-.0951-.3357-.2425-.4944-.4422-.0855-.103-.1732-.1779-.2633-.2247-.09-.0468-.1899-.0702-.2998-.0702-.18 0-.3258.0648-.4372.1943z"/></g></svg>
