<svg fill="none" height="28" viewBox="0 0 28 28" width="28" xmlns="http://www.w3.org/2000/svg"><path d="m13.5671 3.90849c0-.31935-.3501-.5151-.6222-.34787l-5.01852 3.0847c-.25935.15941-.25935.53633 0 .69574l5.01852 3.08474c.2721.1672.6222-.0286.6222-.3479v-2.20971c4.0271 0 7.2916 3.26461 7.2916 7.29171 0 4.027-3.2645 7.2916-7.2916 7.2916-3.5212 0-6.52188-2.5145-7.16555-5.9333-.08941-.4749-.54688-.7874-1.02178-.698-.47491.0895-.78741.5469-.698 1.0218.79869 4.2423 4.51872 7.3595 8.88533 7.3595 4.9936 0 9.0416-4.0481 9.0416-9.0416 0-4.9936-4.048-9.04171-9.0416-9.04171z" fill="currentColor"/></svg>
