<svg fill="none" height="28" viewBox="0 0 28 28" width="28" xmlns="http://www.w3.org/2000/svg"><g fill="currentColor"><path d="m13.5671 3.90849c0-.31935-.3501-.5151-.6222-.34787l-5.01852 3.0847c-.25935.15941-.25935.53633 0 .69574l5.01852 3.08474c.2721.1672.6222-.0286.6222-.3479v-2.20971c4.0271 0 7.2916 3.26461 7.2916 7.29171 0 4.027-3.2645 7.2916-7.2916 7.2916-3.5212 0-6.52188-2.5145-7.16555-5.9333-.08941-.4749-.54688-.7874-1.02178-.698-.47491.0895-.78741.5469-.698 1.0218.79869 4.2423 4.51872 7.3595 8.88533 7.3595 4.9936 0 9.0416-4.0481 9.0416-9.0416 0-4.9936-4.048-9.04171-9.0416-9.04171z"/><path clip-rule="evenodd" d="m15.2783 12.1001c1.4239 0 2.5816.8184 2.5781 3.3-.0034 2.4816-1.1542 3.3-2.5781 3.3-1.4238 0-2.5806-.8184-2.5781-3.3s1.1543-3.3 2.5781-3.3zm.003 1.4418c-.7121 0-1.1079.4774-1.1079 1.92s.3894 1.92 1.1079 1.92 1.1078-.4768 1.1078-1.92-.3957-1.92-1.1078-1.92z" fill-rule="evenodd"/><path d="m10.0916 18.1348c0 .2255.1829.4083.4084.4083h.6942c.2255 0 .4083-.1828.4083-.4083v-5.5589c0-.2923-.2982-.49-.5674-.3761l-2.15253.9104c-.15109.0639-.24927.212-.24927.3761v.5676c0 .2302.2318.3882.4461.304l1.0122-.3976z"/></g></svg>
