<svg fill="none" height="28" viewBox="0 0 28 28" width="28" xmlns="http://www.w3.org/2000/svg"><g fill="currentColor"><path d="m13.2929 2.29289c.3905-.39052 1.0237-.39052 1.4142 0 .3905.39053.3905 1.02369 0 1.41422l-1.3 1.30103c.1899-.01075.4005-.00814.5929-.00814 2.7611 0 5.2625 1.12038 7.0711 2.92893 1.8085 1.80855 2.9289 4.30997 2.9289 7.07107s-1.1204 5.2625-2.9289 7.0711c-1.8086 1.8085-4.31 2.9289-7.0711 2.9289s-5.26252-1.1204-7.07107-2.9289c-1.80855-1.8086-2.92893-4.31-2.92893-7.0711 0-.5523.44772-1 1-1s1 .4477 1 1c0 2.2094.89434 4.208 2.34315 5.6569 1.44881 1.4488 3.44745 2.3431 5.65685 2.3431s4.208-.8943 5.6569-2.3431c1.4488-1.4489 2.3431-3.4475 2.3431-5.6569s-.8943-4.208-2.3431-5.65685c-1.4489-1.44881-3.4475-2.34315-5.6569-2.34315-.1901 0-.3785.00661-.565.0196l1.2721 1.27329c.3905.39053.3905 1.02369 0 1.41422-.3905.39049-1.0237.39049-1.4142 0l-3-3c-.39053-.39053-.39053-1.02369 0-1.41422z"/><path clip-rule="evenodd" d="m19 15.5c.0037-2.632-1.2062-3.5-2.75-3.5s-2.7473.868-2.75 3.5 1.2062 3.5 2.75 3.5 2.7463-.868 2.75-3.5zm-3.9027.0656c0-1.53.3806-2.0364 1.1527-2.0364s1.1591.5057 1.1591 2.0364c0 1.5306-.3801 2.0363-1.1591 2.0363s-1.1527-.5063-1.1527-2.0363z" fill-rule="evenodd"/><path d="m10.8046 19c-.2445 0-.4427-.1939-.4427-.4331v-4.5939l-.87822.4217c-.23235.0893-.48368-.0783-.48368-.3225v-.602c0-.174.10645-.3311.27027-.3989l2.11453-.9656c.2919-.1207.6152.0889.6152.3989v6.0623c0 .2392-.1982.4331-.4427.4331z"/></g></svg>
