<svg fill="none" height="28" viewBox="0 0 28 28" width="28" xmlns="http://www.w3.org/2000/svg"><path clip-rule="evenodd" d="m14 6v2.54261c0 .61003-.6895.96487-1.1859.6103l-4.95968-3.54261c-.41876-.29911-.41876-.92148 0-1.2206l4.95968-3.542608c.4964-.354572 1.1859.000271 1.1859.610298v2.54261c1.9778 0 3.9112.58649 5.5557 1.6853 1.6445 1.09882 2.9262 2.66061 3.6831 4.4879.7569 1.8272.9549 3.8379.5691 5.7777-.3859 1.9398-1.3383 3.7216-2.7368 5.1202-1.3986 1.3985-3.1804 2.3509-5.1202 2.7368-1.9398.3858-3.9505.1878-5.7777-.5691-1.8273-.7569-3.38908-2.0386-4.4879-3.6831-1.09881-1.6445-1.6853-3.5779-1.6853-5.5557 0-.5523.44772-1 1-1s1 .4477 1 1c0 1.5823.46919 3.129 1.34824 4.4446s2.12848 2.3409 3.59026 2.9464c1.4618.6055 3.0704.764 4.6222.4553 1.5519-.3087 2.9773-1.0706 4.0962-2.1894 1.1188-1.1189 1.8807-2.5443 2.1894-4.0962.3087-1.5518.1502-3.1604-.4553-4.6222-.6055-1.46178-1.6308-2.7112-2.9464-3.59026-1.3156-.87905-2.8623-1.34824-4.4446-1.34824z" fill="currentColor" fill-rule="evenodd"/></svg>
