<?xml version="1.0" encoding="UTF-8"?>
<svg width="28px" height="28px" viewBox="0 0 28 28" version="1.1" xmlns="http://www.w3.org/2000/svg" xmlns:xlink="http://www.w3.org/1999/xlink">
    <!-- Generator: Sketch 63.1 (92452) - https://sketch.com -->
    <title>reply_outline_28</title>
    <desc>Created with Sketch.</desc>
    <g id="Page-1" stroke="none" stroke-width="1" fill="none" fill-rule="evenodd">
        <g id="reply_outline_28" fill-rule="nonzero">
            <rect x="0" y="0" width="28" height="28"></rect>
            <path d="M14.0061914,5.42097492 C14.0061914,4.64777627 13.3793901,4.02097492 12.6061914,4.02097492 C12.2714553,4.02097492 11.9477976,4.14091013 11.6938915,4.35903853 L1.70772476,12.9380636 C1.12123349,13.4419129 1.05423895,14.3258086 1.55808827,14.9122999 C1.62913138,14.9908933 1.62913138,14.9908933 1.70772476,15.0619364 L11.6938915,23.6409615 C12.2803828,24.1448108 13.1642785,24.0778163 13.6681278,23.491325 C13.8862562,23.2374189 14.0061914,22.9137612 14.0061914,22.5790251 L14.0061914,18.5125931 C19.24947,18.6471572 22.8366265,19.8586089 24.8058794,22.0731952 C24.8147848,22.0832101 24.8238462,22.0930037 24.8330569,22.1025758 C25.2952249,22.5905264 26.0646866,22.6263468 26.5705103,22.1765587 C26.9126963,21.8722802 27.0610937,21.4052388 26.9572959,20.9592537 C25.2755091,13.7331697 20.8949383,9.86079402 14.0061914,9.52403674 L14.0061914,5.42097492 Z M25.2415067,20.6819853 C25.5470568,20.4102843 26.0128861,20.43381 26.2896618,20.732078 C25.9190577,20.3305724 25.2967477,20.2985312 24.888782,20.6613021 L25.0831713,20.8801458 C25.1236845,20.806701 25.176828,20.7394989 25.2415067,20.6819853 Z M13.0061914,16.5 C12.4539067,16.5 12.0061914,16.9477153 12.0061914,17.5 L12.0061914,21.2725627 L3.54077452,14 L12.0061914,6.72743729 L12.0061914,10.5 C12.0061914,11.0522847 12.4539067,11.5 13.0061914,11.5 C18.7022646,11.5 22.4199146,13.9679889 24.3051869,19.0433479 C21.6721537,17.3340131 17.8986865,16.5 13.0061914,16.5 Z" id="↳-Icon-Color" fill="currentColor"></path>
        </g>
    </g>
</svg>
