<svg fill="none" height="28" viewBox="0 0 28 28" width="28" xmlns="http://www.w3.org/2000/svg" xmlns:xlink="http://www.w3.org/1999/xlink"><linearGradient id="a" gradientUnits="userSpaceOnUse" x1="-14" x2="14" y1="14" y2="42"><stop offset="0" stop-color="#50c750"/><stop offset="1" stop-color="#32b332"/></linearGradient><path d="m0 14c0-7.73199 6.26801-14 14-14 7.732 0 14 6.26801 14 14 0 7.732-6.268 14-14 14-7.73199 0-14-6.268-14-14z" fill="url(#a)"/><path d="m16.75 7.65137c.1481 0 .2928.04383.416.12596l3.8979 2.59857c.3447.2298.4378.6955.2081 1.0401-.055.0824-.1257.1531-.2081.208l-3.8979 2.5986c-.3446.2298-.8103.1367-1.04-.208-.0822-.1232-.126-.2679-.126-.416v-1.5986h-4.7181c-.4457 0-.6074.0464-.7703.1335-.163.0872-.2909.2151-.378.3781-.0763.1425-.1214.2841-.1314.6159l-.0022.1544v3.4361c0 .4458.0464.6074.1336.7704.0871.163.215.2909.378.378.1426.0763.2842.1213.6159.1314l.1544.0022h3.7181c.5523 0 1 .4477 1 1s-.4477 1-1 1h-3.1542c-1.3373 0-1.8222-.1393-2.31107-.4007-.48889-.2615-.87257-.6452-1.13403-1.1341-.26146-.4888-.4007-.9738-.4007-2.311v-2.3084c0-1.3373.13924-1.8222.4007-2.3111s.64514-.8726 1.13403-1.134c.48887-.2615.97377-.40072 2.31107-.40072h4.1542v-1.59861c0-.41422.3358-.75.75-.75z" fill="#fff"/></svg>
