<svg xmlns="http://www.w3.org/2000/svg" width="28" height="28" fill="currentColor" viewBox="0 0 28 28"><path fill-rule="evenodd" d="M10.636 2a2.5 2.5 0 0 0-1.768.732L2.732 8.868A2.5 2.5 0 0 0 2 10.636v6.729a2.5 2.5 0 0 0 .732 1.767l6.136 6.136a2.5 2.5 0 0 0 1.768.732h6.729a2.5 2.5 0 0 0 1.767-.732l6.136-6.136A2.5 2.5 0 0 0 26 17.364v-6.729a2.5 2.5 0 0 0-.732-1.767l-6.136-6.136A2.5 2.5 0 0 0 17.364 2h-6.729ZM14 8a1 1 0 0 1 1 1v5a1 1 0 1 1-2 0V9a1 1 0 0 1 1-1Zm0 8.8.123.006A1.2 1.2 0 0 1 14 19.2l-.123-.006A1.2 1.2 0 0 1 14 16.8Z" clip-rule="evenodd"/></svg>
