<?xml version="1.0" encoding="UTF-8"?>
<svg width="28px" height="28px" viewBox="0 0 28 28" version="1.1" xmlns="http://www.w3.org/2000/svg" xmlns:xlink="http://www.w3.org/1999/xlink">
    <g id="Icons-28/report_outline_28" stroke="none" stroke-width="1" fill="none" fill-rule="evenodd">
        <g id="report_outline_28">
            <rect x="0" y="0" width="28" height="28"></rect>
            <path d="M17.3786797,2 C18.0417209,2 18.6776057,2.2633921 19.1464466,2.73223305 L25.267767,8.85355339 C25.7366079,9.32239434 26,9.95827912 26,10.6213203 L26,17.3786797 C26,18.0417209 25.7366079,18.6776057 25.267767,19.1464466 L19.1464466,25.267767 C18.6776057,25.7366079 18.0417209,26 17.3786797,26 L10.6213203,26 C9.95827912,26 9.32239434,25.7366079 8.85355339,25.267767 L2.73223305,19.1464466 C2.2633921,18.6776057 2,18.0417209 2,17.3786797 L2,10.6213203 C2,9.95827912 2.2633921,9.32239434 2.73223305,8.85355339 L8.85355339,2.73223305 C9.32239434,2.2633921 9.95827912,2 10.6213203,2 L17.3786797,2 Z M17.3786797,4 L10.6213203,4 C10.4887121,4 10.3615351,4.05267842 10.267767,4.14644661 L4.14644661,10.267767 C4.05267842,10.3615351 4,10.4887121 4,10.6213203 L4,17.3786797 C4,17.5112879 4.05267842,17.6384649 4.14644661,17.732233 L10.267767,23.8535534 C10.3615351,23.9473216 10.4887121,24 10.6213203,24 L17.3786797,24 C17.5112879,24 17.6384649,23.9473216 17.732233,23.8535534 L23.8535534,17.732233 C23.9473216,17.6384649 24,17.5112879 24,17.3786797 L24,10.6213203 C24,10.4887121 23.9473216,10.3615351 23.8535534,10.267767 L17.732233,4.14644661 C17.6384649,4.05267842 17.5112879,4 17.3786797,4 Z M14.0000001,16.8001043 L14.1227868,16.8062993 C14.7278415,16.8677459 15.2000001,17.3787337 15.2000001,18 C15.2000001,18.6626841 14.6627885,19.1998957 14.0001044,19.1998957 L14.0001044,19.1998957 L13.8773177,19.1937008 C13.272263,19.1322542 12.8001044,18.6212664 12.8001044,18 C12.8001044,17.337316 13.337316,16.8001043 14.0000001,16.8001043 L14.0000001,16.8001043 Z M14,8 C14.5128358,8 14.9355072,8.38604019 14.9932723,8.88337887 L15,9 L15,14 C15,14.5522847 14.5522847,15 14,15 C13.4871642,15 13.0644928,14.6139598 13.0067277,14.1166211 L13,14 L13,9 C13,8.44771525 13.4477153,8 14,8 Z" fill="currentColor" fill-rule="nonzero"></path>
        </g>
    </g>
</svg>
