<svg xmlns="http://www.w3.org/2000/svg" width="28" height="28" fill="currentColor" viewBox="0 0 28 28"><path fill-rule="evenodd" d="M9.95 11h3.1c1.127 0 2.045 0 2.784.072.767.074 1.447.233 2.06.618a4.5 4.5 0 0 1 1.416 1.416c.385.613.544 1.293.618 2.06.072.74.072 1.657.072 2.784v.1c0 1.127 0 2.045-.072 2.784-.074.767-.233 1.447-.618 2.06a4.5 4.5 0 0 1-1.416 1.416c-.613.385-1.293.544-2.06.618-.74.072-1.657.072-2.784.072h-3.1c-1.127 0-2.045 0-2.784-.072-.767-.074-1.447-.233-2.06-.618a4.5 4.5 0 0 1-1.416-1.416c-.385-.613-.544-1.293-.618-2.06C3 20.095 3 19.177 3 18.05v-.1c0-1.127 0-2.045.072-2.784.074-.767.233-1.447.618-2.06a4.5 4.5 0 0 1 1.416-1.416c.613-.385 1.293-.544 2.06-.618C7.905 11 8.822 11 9.95 11Zm-2.591 2.062c-.617.06-.948.17-1.19.321a2.5 2.5 0 0 0-.786.787c-.151.24-.26.572-.32 1.189C5 15.99 5 16.81 5 18s.001 2.01.062 2.641c.06.617.17.948.321 1.19.2.317.469.586.787.786.24.151.572.26 1.189.32C7.99 23 8.81 23 10 23h3c1.19 0 2.01-.001 2.641-.062.617-.06.948-.17 1.19-.321a2.5 2.5 0 0 0 .786-.787c.151-.24.26-.572.32-1.189C18 20.01 18 19.19 18 18s-.001-2.01-.062-2.641c-.06-.617-.17-.948-.321-1.19a2.5 2.5 0 0 0-.787-.786c-.24-.151-.572-.26-1.189-.32C15.01 13 14.19 13 13 13h-3c-1.19 0-2.01.001-2.641.062ZM19.507 2.493a1 1 0 0 1 0 1.414L18.414 5h.986a6.6 6.6 0 0 1 6.6 6.6V15a1 1 0 0 1-2 0v-3.4A4.6 4.6 0 0 0 19.4 7h-.986l1.093 1.093a1 1 0 0 1-1.414 1.414l-2.8-2.8a1 1 0 0 1 0-1.414l2.8-2.8a1 1 0 0 1 1.414 0Z" clip-rule="evenodd"/></svg>
