<svg fill="none" height="28" viewBox="0 0 28 28" width="28" xmlns="http://www.w3.org/2000/svg" xmlns:xlink="http://www.w3.org/1999/xlink"><linearGradient id="a" gradientUnits="userSpaceOnUse" x1="-14" x2="14" y1="14" y2="42"><stop offset="0" stop-color="#ffb73d"/><stop offset="1" stop-color="#ffa000"/></linearGradient><path d="m0 14c0-7.73199 6.26801-14 14-14 7.732 0 14 6.26801 14 14 0 7.732-6.268 14-14 14-7.73199 0-14-6.268-14-14z" fill="url(#a)"/><path d="m8.6813 8.00124c.21321.01028.38891.02232.5271.03611 5.6403.56279 10.1328 5.02305 10.7445 10.64825.0177.1627.033.3734.0458.6322.0178.3586-.2584.6637-.617.6815-.0107.0005-.0215.0008-.0322.0008h-1.1065c-.345 0-.6299-.2696-.649-.6141-.0122-.2203-.0266-.4001-.0433-.5394-.534-4.468-4.1315-7.9951-8.63221-8.4214-.08316-.0079-.18413-.015-.30291-.0213-.34511-.0183-.61558-.3034-.61558-.64904v-1.10438c.00001-.35898.29102-.64999.65-.64999.01044 0 .02088.00025.0313.00075zm.01529 4.03236c.29818.0215.46299.0345.49446.0392 3.39375.5055 6.09305 3.138 6.69785 6.498.0331.1837.0615.4265.0851.7283.0282.358-.2392.6709-.5971.699-.0169.0013-.0339.002-.0509.002h-.9879c-.3373 0-.6186-.258-.6476-.5941-.0109-.1254-.0231-.231-.0368-.3167-.3887-2.4312-2.3083-4.3516-4.7393-4.7417-.00559-.0009-.1108-.0095-.31564-.0257-.33805-.0267-.59876-.3088-.59876-.6479v-.992c-.00003-.359.291-.65.65-.65.01555 0 .03109.0005.04659.0016zm2.59491 7.9665h-2.6415c-.35899 0-.65-.2911-.65-.65v-2.6448c-.00001-.359.29101-.65.65-.65.03985 0 .07961.0037.11879.011.00958.0018.0189.0036.02796.0054 1.52205.3069 2.73175 1.4761 3.09735 2.9759.014.0574.0271.1238.0392.1993.0569.3545-.1842.6879-.5386.7449-.0341.0055-.0686.0083-.1032.0083z" fill="#fff"/></svg>
