<svg height="28" viewBox="0 0 28 28" width="28" xmlns="http://www.w3.org/2000/svg"><g fill="none" fill-rule="evenodd" transform=""><path d="m0 0h28v28h-28z"/><path d="m24 19.1541722c.5522847 0 1 .4477153 1 1 0 1.3701896-.1336744 2.0624124-.5188859 2.7826952-.3546604.6631574-.8810893 1.1895863-1.5442467 1.5442467-.7202828.3852115-1.4125056.5188859-2.7826952.5188859-.5522847 0-1-.4477153-1-1s.4477153-1 1-1l.4177429-.0046777c.7593934-.0190734 1.086672-.0986304 1.4217546-.2778346.3146204-.1682608.5555572-.4091976.723818-.723818.2090715-.3909297.2825123-.7712373.2825123-1.8394975 0-.5522847.4477153-1 1-1zm-20 0c.55228475 0 1 .4477153 1 1l.00467769.4177429c.01907337.7593934.09863045 1.086672.27783456 1.4217546.16826084.3146204.40919764.5555572.72381805.723818.39092965.2090715.77123727.2825123 1.8394975.2825123.55228475 0 1 .4477153 1 1s-.44771525 1-1 1c-1.37018965 0-2.06241236-.1336744-2.78269521-.5188859-.66315737-.3546604-1.18958629-.8810893-1.54424673-1.5442467-.38521149-.7202828-.51888586-1.4125056-.51888586-2.7826952 0-.5522847.44771525-1 1-1zm16-4.1541722c.5128358 0 .9355072.3860402.9932723.8833789l.0067277.1166211v1.4361148c0 .9637813-.0991552 1.477249-.3853195 2.0123298-.2675069.5001944-.6660415.898729-1.1662359 1.1662359-.4904907.2623173-.9628204.367495-1.7804929.3832029l-.2318369.0021166h-6.8722296c-.96378133 0-1.47724899-.0991552-2.01232976-.3853195-.5001944-.2675069-.89872904-.6660415-1.16623593-1.1662359-.2623173-.4904907-.36749497-.9628204-.38320294-1.7804929l-.00211657-.2318369v-1.4361148c0-.5522847.44771525-1 1-1 .51283584 0 .93550716.3860402.99327227.8833789l.00672773.1166211.00098918 1.6055565c.00593342.4703028.03919281.6676053.11675925.8369978l.03119747.0626925c.0811073.1516575.1941498.2647.34580726.3458073.18702506.1000221.3705997.1412816.89969034.1479567l.1694417.0009892 7.0416713-.0009892c.5290906-.0066751.7126653-.0479346.8996903-.1479567.1516575-.0811073.2647-.1941498.3458073-.3458073.1000221-.187025.1412816-.3705997.1479567-.8996903l.0009892-.1694417v-1.4361148c0-.5522847.4477153-1 1-1zm-2.5638852-8c.9637813 0 1.477249.09915518 2.0123298.38531951.5001944.26750689.898729.66604153 1.1662359 1.16623593.2623173.4904907.367495.96282039.3832029 1.78049286l.0021166.2318369v.4361148h2c.5522847 0 1 .4477153 1 1s-.4477153 1-1 1h-18c-.55228475 0-1-.4477153-1-1s.44771525-1 1-1h2v-.4361148c0-.88346622.08331789-1.38854387.31762361-1.87873674l.0676959-.13359302c.26750689-.5001944.66604153-.89872904 1.16623593-1.16623593.4904907-.2623173.96282039-.36749497 1.78049286-.38320294l.2318369-.00211657zm.1694417 2.00098918h-7.211113c-.52909064.0066751-.71266528.04793462-.89969034.14795672-.15165746.0811073-.26469996.1941498-.34580726.34580726-.1000221.18702506-.14128162.3705997-.14795672.89969034l-.00098918.6055565h9.999l.0000108-.6055565c-.0059334-.47030279-.0391928-.66760529-.1167592-.83699776l-.0311975-.06269258c-.0811073-.15165746-.1941498-.26469996-.3458073-.34580726-.187025-.1000221-.3705997-.14128162-.8996903-.14795672zm-9.7597287-6.00098918c.55228475 0 1 .44771525 1 1s-.44771525 1-1 1l-.41774293.00467769c-.75939339.01907337-1.08667201.09863045-1.42175457.27783456-.31462041.16826084-.55555721.40919764-.72381805.72381805-.20907146.39092965-.28251225.77123727-.28251225 1.8394975 0 .55228475-.44771525 1-1 1s-1-.44771525-1-1c0-1.37018965.13367437-2.06241236.51888586-2.78269521.35466044-.66315737.88108936-1.18958629 1.54424673-1.54424673.72028285-.38521149 1.41250556-.51888586 2.78269521-.51888586zm12.3083444 0c1.3701896 0 2.0624124.13367437 2.7826952.51888586.6631574.35466044 1.1895863.88108936 1.5442467 1.54424673.3852115.72028285.5188859 1.41250556.5188859 2.78269521 0 .55228475-.4477153 1-1 1s-1-.44771525-1-1l-.0046777-.41774293c-.0190734-.75939339-.0986304-1.08667201-.2778346-1.42175457-.1682608-.31462041-.4091976-.55555721-.723818-.72381805-.3909297-.20907146-.7712373-.28251225-1.8394975-.28251225-.5522847 0-1-.44771525-1-1s.4477153-1 1-1z" fill="currentColor" fill-rule="nonzero"/></g></svg>
