<?xml version="1.0" encoding="UTF-8"?>
<svg width="28px" height="28px" viewBox="0 0 28 28" version="1.1" xmlns="http://www.w3.org/2000/svg" xmlns:xlink="http://www.w3.org/1999/xlink">
    <!-- Generator: Sketch 63.1 (92452) - https://sketch.com -->
    <title>scan_viewfinder_outline_28</title>
    <desc>Created with Sketch.</desc>
    <g id="Page-1" stroke="none" stroke-width="1" fill="none" fill-rule="evenodd">
        <g id="scan_viewfinder_outline_28">
            <polygon points="0 0 28 0 28 28 0 28"></polygon>
            <path d="M24,18 C24.5522847,18 25,18.4477153 25,19 L25,20.1541722 C25,21.5243618 24.8663256,22.2165846 24.4811141,22.9368674 C24.1264537,23.6000248 23.6000248,24.1264537 22.9368674,24.4811141 C22.2165846,24.8663256 21.5243618,25 20.1541722,25 L19,25 C18.4477153,25 18,24.5522847 18,24 C18,23.4477153 18.4477153,23 19,23 L20.1541722,23 C21.2224324,23 21.60274,22.9265592 21.9936697,22.7174877 C22.3082901,22.5492269 22.5492269,22.3082901 22.7174877,21.9936697 C22.9265592,21.60274 23,21.2224324 23,20.1541722 L23,19 C23,18.4477153 23.4477153,18 24,18 Z M4,17.995206 C4.55228475,17.995206 5,18.4429212 5,18.995206 L5,20.1541722 C5,21.2224324 5.07344079,21.60274 5.28251225,21.9936697 C5.45077309,22.3082901 5.69170989,22.5492269 6.0063303,22.7174877 C6.39725995,22.9265592 6.77756757,23 7.8458278,23 L9,23 C9.55228475,23 10,23.4477153 10,24 C10,24.5522847 9.55228475,25 9,25 L7.8458278,25 C6.47563815,25 5.78341544,24.8663256 5.06313259,24.4811141 C4.39997522,24.1264537 3.8735463,23.6000248 3.51888586,22.9368674 C3.13367437,22.2165846 3,21.5243618 3,20.1541722 L3,18.995206 C3,18.4429212 3.44771525,17.995206 4,17.995206 Z M21,13 C21.5522847,13 22,13.4477153 22,14 C22,14.5522847 21.5522847,15 21,15 L7,15 C6.44771525,15 6,14.5522847 6,14 C6,13.4477153 6.44771525,13 7,13 L21,13 Z M9,3 C9.55228475,3 10,3.44771525 10,4 C10,4.55228475 9.55228475,5 9,5 L7.8458278,5 C6.77756757,5 6.39725995,5.07344079 6.0063303,5.28251225 C5.69170989,5.45077309 5.45077309,5.69170989 5.28251225,6.0063303 C5.07344079,6.39725995 5,6.77756757 5,7.8458278 L5,9 C5,9.55228475 4.55228475,10 4,10 C3.44771525,10 3,9.55228475 3,9 L3,7.8458278 C3,6.47563815 3.13367437,5.78341544 3.51888586,5.06313259 C3.8735463,4.39997522 4.39997522,3.8735463 5.06313259,3.51888586 C5.78341544,3.13367437 6.47563815,3 7.8458278,3 L9,3 Z M20.1541722,3 C21.5243618,3 22.2165846,3.13367437 22.9368674,3.51888586 C23.6000248,3.8735463 24.1264537,4.39997522 24.4811141,5.06313259 C24.8663256,5.78341544 25,6.47563815 25,7.8458278 L25,9 C25,9.55228475 24.5522847,10 24,10 C23.4477153,10 23,9.55228475 23,9 L23,7.8458278 C23,6.77756757 22.9265592,6.39725995 22.7174877,6.0063303 C22.5492269,5.69170989 22.3082901,5.45077309 21.9936697,5.28251225 C21.60274,5.07344079 21.2224324,5 20.1541722,5 C19.6018875,5 19.1541722,4.55228475 19.1541722,4 C19.1541722,3.44771525 19.6018875,3 20.1541722,3 Z" id="↳-Icon-Color" fill="currentColor" fill-rule="nonzero"></path>
        </g>
    </g>
</svg>
