<svg xmlns="http://www.w3.org/2000/svg" width="28" height="28" fill="none" viewBox="0 0 28 28"><path fill="currentColor" d="M25 20c0-.5523-.4477-1-1-1s-1 .4477-1 1c0 1.0683-.0734 1.6027-.2825 1.9937-.1683.3146-.4092.5555-.7238.7238-.3351.1792-.6624.2587-1.4218.2778H20c-.5523 0-1 .4477-1 1s.4477 1 1 1c1.3702 0 2.2166-.129 2.9369-.5142.6631-.3546 1.1896-.8811 1.5442-1.5442C24.8663 22.2166 25 21.3702 25 20ZM5.0047 20c0-.5523-.4477-1-1-1s-1 .4477-1 1c0 1.3702.129 2.2166.5142 2.9369.3546.6631.881 1.1896 1.5442 1.5442C5.7834 24.8663 6.6298 25 8 25c.5523 0 1-.4477 1-1s-.4477-1-1-1c-1.0683 0-1.6027-.0734-1.9937-.2825-.3146-.1683-.5555-.4092-.7238-.7238-.1792-.3351-.2588-.6624-.2778-1.4218V20ZM9 4c0-.5523-.4477-1-1-1-1.3702 0-2.2166.1337-2.9369.5189-.6631.3546-1.1896.881-1.5442 1.5442C3.1337 5.7834 3 6.6298 3 8c0 .5523.4477 1 1 1s1-.4477 1-1c0-1.0683.0734-1.6027.2825-1.9937.1683-.3146.4092-.5555.7238-.7238.3351-.1792.6624-.2588 1.4218-.2778L8 5c.5523 0 1-.4477 1-1Zm13.9369-.4811C22.2166 3.1337 21.3702 3 20 3c-.5523 0-1 .4477-1 1s.4477 1 1 1c1.0683 0 1.6027.0734 1.9937.2825.3146.1683.5555.4092.7238.7238.1792.3351.2587.6624.2778 1.4218L23 8c0 .5523.4477 1 1 1s1-.4477 1-1c0-1.3702-.1337-2.2166-.5189-2.9369C24.1265 4.4 23.6 3.8735 22.9369 3.519Zm-1.9436 12.3645C20.9355 15.386 20.5128 15 20 15c-.5523 0-1 .4477-1 1v1.4361l-.001.1695c-.0067.529-.0479.7126-.1479.8996a.8187.8187 0 0 1-.3459.3459c-.187.1-.3706.1412-.8996.1479L10.5639 19l-.1695-.001c-.529-.0067-.7126-.0479-.8996-.1479a.8182.8182 0 0 1-.3459-.3459l-.0312-.0626c-.0775-.1694-.1108-.3667-.1167-.837L9 16l-.0067-.1166C8.9355 15.386 8.5128 15 8 15c-.5523 0-1 .4477-1 1v1.4361l.0021.2319c.0157.8176.1209 1.29.3832 1.7804.2675.5002.666.8988 1.1663 1.1663.535.2861 1.0485.3853 2.0123.3853h6.8722l.2319-.0021c.8176-.0157 1.29-.1209 1.7804-.3832a2.8173 2.8173 0 0 0 1.1663-1.1663c.2861-.535.3853-1.0485.3853-2.0123V16l-.0067-.1166Z"/><path fill="currentColor" fill-rule="evenodd" d="M19.4484 7.3853C18.9134 7.0992 18.3999 7 17.4361 7h-6.8722l-.2319.0021c-.8176.0157-1.29.1209-1.7804.3832a2.8171 2.8171 0 0 0-1.1663 1.1663l-.0677.1335C7.0833 9.1753 7 9.6805 7 10.564V11H5c-.5523 0-1 .4477-1 1s.4477 1 1 1h18c.5523 0 1-.4477 1-1s-.4477-1-1-1h-2v-.4361l-.0021-.2319c-.0157-.8176-.1209-1.29-.3832-1.7804a2.8172 2.8172 0 0 0-1.1663-1.1663Zm-9.054 1.6157h7.2112c.529.0067.7126.048.8996.148a.8182.8182 0 0 1 .3459.3458l.0312.0626c.0775.1694.1108.3667.1167.837V11H9l.001-.6056c.0067-.529.048-.7126.148-.8996a.8177.8177 0 0 1 .3458-.3459c.187-.1.3705-.1412.8996-.148Z" clip-rule="evenodd"/></svg>
