<svg fill="none" height="28" viewBox="0 0 28 28" width="28" xmlns="http://www.w3.org/2000/svg"><path clip-rule="evenodd" d="m14.6366 6.10401c-.4131-.13868-.8601-.13868-1.2732 0-.1705.05725-.3805.17731-.7246.48318-.3524.31332-.7735.7542-1.3905 1.40211l-3.52416 3.7003c-.18874.1982-.45046.3104-.72414.3104h-3v7c0 .7166.00078 1.1938.03074 1.5606.02901.355.08031.5175.13275.6204.14381.2822.37328.5117.65553.6555.10292.0524.26538.1037.62042.1328.36671.0299.844.0307 1.56056.0307h3.5v-3.5c0-1.933 1.567-3.5 3.5-3.5s3.5 1.567 3.5 3.5v3.5h3.5c.7166 0 1.1939-.0008 1.5606-.0307.355-.0291.5175-.0804.6204-.1328.2822-.1438.5117-.3733.6555-.6555.0525-.1029.1038-.2654.1328-.6204.0299-.3668.0307-.844.0307-1.5606v-7h-3c-.2737 0-.5354-.1122-.7241-.3104l-3.5242-3.7003c-.617-.64791-1.038-1.0888-1.3905-1.40211-.3441-.30587-.5541-.42593-.7246-.48318zm.8634 12.39599v3.5h-3v-3.5c0-.8284.6716-1.5 1.5-1.5s1.5.6716 1.5 1.5zm-8.5 5.5h4.5 5 4.5.0402c.6659 0 1.2254 0 1.6832-.0374.4788-.0391.9337-.124 1.3656-.3441.6585-.3355 1.194-.871 1.5295-1.5295.2201-.4319.305-.8869.3441-1.3656.0374-.4578.0374-1.0173.0374-1.6832v-.0402-8-.0402-.0001c0-.6658 0-1.22529-.0374-1.68314-.0391-.47872-.124-.93368-.3441-1.36553-.3355-.65857-.871-1.19401-1.5295-1.52957-.4319-.22004-.8868-.30498-1.3656-.34409-.4578-.03741-1.0174-.0374-1.6832-.03739h-.0402-3.3834c-.3425-.35447-.6469-.65886-.9266-.90754-.4375-.38896-.8826-.70505-1.4169-.88443-.8261-.27735-1.7201-.27735-2.5462 0-.5343.17938-.9794.49547-1.4169.88443-.2797.24868-.5841.55307-.9266.90755h-3.38341-.04016c-.66586-.00001-1.22538-.00003-1.68325.03738-.47872.03911-.93368.12405-1.36553.34409-.65858.33556-1.19402.871-1.52958 1.52958-.22004.43185-.30497.88681-.34409 1.36553-.0374.45785-.03739 1.01733-.03738 1.68313v.0001.0402 8 .0401.0001c-.00001.6659-.00002 1.2254.03738 1.6832.03912.4787.12406.9337.3441 1.3656.33556.6585.87099 1.194 1.52956 1.5295.43185.2201.88681.305 1.36554.3441.45785.0374 1.01735.0374 1.68318.0374h.00003.00003zm16.9943-14.00002c-.0043-.2157-.0118-.39887-.025-.56056-.029-.35503-.0803-.51749-.1328-.62041-.1438-.28225-.3733-.51172-.6555-.65553-.1029-.05244-.2654-.10375-.6204-.13275-.3667-.02997-.844-.03074-1.5606-.03075h-1.4762l1.9048 2zm-15.51811-1.99999h-1.4762c-.71656 0-1.19384.00078-1.56055.03074-.35504.02901-.5175.08031-.62042.13275-.28224.14381-.51172.37328-.65553.65553-.05244.10292-.10374.26538-.13275.62042-.01321.16168-.02074.34485-.02504.56055h2.56573zm5.52381 1c-.8284 0-1.5.67158-1.5 1.50001 0 .8284.6716 1.5 1.5 1.5s1.5-.6716 1.5-1.5c0-.82843-.6716-1.50001-1.5-1.50001z" fill="currentColor" fill-rule="evenodd"/></svg>
