<svg xmlns="http://www.w3.org/2000/svg" width="28" height="28" fill="none" viewBox="0 0 28 28"><path fill="currentColor" fill-rule="evenodd" d="M21 4c-2.2091 0-4 1.7909-4 4 0 1.0363.3941 1.9805 1.0406 2.6911L14.5001 12 5.5417 7.6348c-.8446-.4557-1.895-.2319-2.4806.5284-.1084.1408-.055.368.099.4568l1.938 1.16 7.402 4.22-7.406 4.22-1.9382 1.16c-.1538.0888-.2073.316-.099.4568.5857.7603 1.636.9841 2.4807.5284L14.5001 16l3.5405 1.3089C17.3941 18.0195 17 18.9637 17 20c0 2.2091 1.7909 4 4 4 2.2092 0 4-1.7909 4-4 0-2.2091-1.7908-4-4-4-.3487 0-.687.0446-1.0095.1285L16.5001 14l3.4904-2.1285A4.0048 4.0048 0 0 0 21 12c2.2092 0 4-1.7909 4-4 0-2.2091-1.7908-4-4-4Zm-2 4c0-1.1046.8955-2 2-2 1.1046 0 2 .8954 2 2s-.8954 2-2 2c-1.1045 0-2-.8954-2-2Zm2 10c-1.1045 0-2 .8954-2 2s.8955 2 2 2c1.1046 0 2-.8954 2-2s-.8954-2-2-2Z" clip-rule="evenodd"/></svg>
