<svg fill="none" height="28" viewBox="0 0 28 28" width="28" xmlns="http://www.w3.org/2000/svg"><g clip-rule="evenodd" fill="currentColor" fill-rule="evenodd"><path d="m3.85715 18c-.23638 0-.46739.0197-.69169.0573-.54467.0914-1.06029-.2761-1.15167-.8207-.09138-.5447.27609-1.0603.82076-1.1517.3332-.0559.6749-.0849 1.0226-.0849 3.3926 0 6.14285 2.7503 6.14285 6.1429 0 .3477-.02898.6894-.08489 1.0226-.09137.5446-.607.9121-1.15167.8207s-.91214-.607-.82076-1.1517c.03763-.2243.05732-.4553.05732-.6916 0-2.2881-1.85482-4.1429-4.14285-4.1429z"/><path d="m4 24c1.10457 0 2-.8954 2-2s-.89543-2-2-2c-1.10456 0-2 .8954-2 2s.89544 2 2 2z"/><path d="m3.83334 14c-.25091 0-.49892.0113-.74358.0333-.55006.0496-1.03615-.3561-1.08572-.9062-.04957-.55.35616-1.0361.90621-1.0857.30427-.0274.61218-.0414.92309-.0414 5.61489 0 10.16666 4.5518 10.16666 10.1667 0 .3109-.014.6188-.0414.9231-.0496.55-.5357.9557-1.0857.9062-.5501-.0496-.9558-.5357-.9062-1.0858.022-.2446.0333-.4926.0333-.7435 0-4.5104-3.65634-8.1667-8.16666-8.1667z"/><path d="m10.9562 4h6.0875c1.3631-.00001 2.4471-.00001 3.3217.07144.8956.07318 1.6593.22624 2.3585.58252 1.129.57524 2.0469 1.49313 2.6221 2.6221.3563.69924.5094 1.46292.5825 2.35852.0715.87462.0715 1.95862.0715 3.32162v2.0876c0 1.363 0 2.447-.0715 3.3216-.0731.8956-.2262 1.6593-.5825 2.3585-.5752 1.129-1.4931 2.0469-2.6221 2.6221-.6992.3563-1.4629.5094-2.3585.5826-.8746.0714-1.9586.0714-3.3216.0714h-.0438c-.5523 0-1-.4477-1-1s.4477-1 1-1c1.4166 0 2.4189-.0008 3.2025-.0648.772-.0631 1.2431-.1825 1.6134-.3712.7527-.3835 1.3646-.9954 1.7481-1.748.1887-.3703.3081-.8415.3712-1.6134.064-.7836.0648-1.786.0648-3.2026v-2c0-1.4166-.0008-2.419-.0648-3.20256-.0631-.77192-.1825-1.24309-.3712-1.6134-.3835-.75265-.9954-1.36457-1.7481-1.74807-.3703-.18868-.8414-.3081-1.6134-.37117-.7836-.06402-1.7859-.0648-3.2025-.0648h-6c-1.41665 0-2.41898.00078-3.20258.0648-1.77506.14503-3.35039 1.22268-3.65763 3.09697-.08934.54501-.60358.91443-1.1486.82506-.54501-.08934-.9144-.60358-.82506-1.14859.29596-1.80549 1.47879-3.35318 3.10991-4.18428.69925-.35628 1.46292-.50934 2.35852-.58252.87459-.07145 1.95862-.07145 3.32164-.07144z"/></g></svg>
