<svg xmlns="http://www.w3.org/2000/svg" fill="none" viewBox="0 0 28 28"><path stroke="currentColor" stroke-width="2" d="M5 22c0 .5523-.4477 1-1 1s-1-.4477-1-1 .4477-1 1-1 1 .4477 1 1Z"/><path fill="currentColor" d="M17.043 4c1.363 0 2.4471 0 3.3216.0714.8956.0732 1.6593.2263 2.3586.5826a6.0007 6.0007 0 0 1 2.6221 2.622c.3562.6993.5093 1.463.5825 2.3586.0714.8745.0714 1.9585.0714 3.3215v2.0878c0 1.363 0 2.447-.0714 3.3215-.0732.8956-.2263 1.6593-.5825 2.3585a6.0004 6.0004 0 0 1-2.6221 2.6221c-.6846.3489-1.4306.5028-2.3015.5778-.8593.074-1.919.0761-3.2464.0762-.0145 0-.0841.0007-.1509-.0045a1.1021 1.1021 0 0 1-.4284-.1217 1.097 1.097 0 0 1-.4827-.5031 1.1045 1.1045 0 0 1-.1038-.4359c-.0021-.0605-.0103-1.1015-.0103-1.1015C15.9992 15.3623 10.4572 10 4.1659 10l-.9413-.0129c-.0742-.0036-.2723-.017-.4847-.1346a1.0989 1.0989 0 0 1-.5028-.5907 1.1021 1.1021 0 0 1-.0563-.4933 1.8517 1.8517 0 0 1 .0262-.161l.001-.0053c.0943-.4754.2342-.912.4452-1.3261a6 6 0 0 1 2.622-2.6221c.6993-.3563 1.463-.5094 2.3586-.5826C8.5084 4 9.5924 4 10.9555 4h6.0875Z"/><path stroke="currentColor" stroke-linecap="round" stroke-width="2" d="M8.9 23a5.0143 5.0143 0 0 0 .1001-1c0-2.7614-2.2386-5-5-5A5.023 5.023 0 0 0 3 17.1m9.945 5.9a9.0975 9.0975 0 0 0 .0549-1c0-4.9706-4.0294-9-9-9A9.096 9.096 0 0 0 3 13.0549"/></svg>
