<svg xmlns="http://www.w3.org/2000/svg" fill="none" viewBox="0 0 28 28"><path fill="currentColor" d="M17.044 4h-6.0875c-1.363 0-2.447 0-3.3217.0714-.8956.0732-1.6593.2263-2.3585.5826a6 6 0 0 0-2.622 2.622c-.246.4827-.395.9954-.4879 1.5622-.0893.545.28 1.0593.825 1.1486.545.0894 1.0593-.28 1.1487-.825.0683-.4173.1658-.722.2961-.9778a4 4 0 0 1 1.748-1.748c.3704-.1887.8416-.3081 1.6135-.3712C8.5813 6.0008 9.5837 6 11.0002 6h6c1.4167 0 2.419.0008 3.2026.0648.7719.063 1.2431.1825 1.6134.3712a3.9999 3.9999 0 0 1 1.7481 1.748c.1887.3704.3081.8415.3711 1.6134.0641.7836.0648 1.786.0648 3.2026v2c0 1.4166-.0007 2.419-.0648 3.2026-.063.7719-.1824 1.2431-.3711 1.6134a4 4 0 0 1-1.7481 1.748c-.3703.1887-.8415.3081-1.6134.3712-.7836.064-1.7859.0648-3.2026.0648-.5522 0-1 .4477-1 1s.4478 1 1 1h.0438c1.363 0 2.4471 0 3.3217-.0714.8956-.0732 1.6592-.2263 2.3585-.5826a5.9998 5.9998 0 0 0 2.6221-2.6221c.3563-.6992.5093-1.4629.5825-2.3585.0715-.8745.0715-1.9585.0714-3.3215v-2.0877c.0001-1.363.0001-2.4471-.0714-3.3216-.0732-.8956-.2262-1.6593-.5825-2.3585a6.0002 6.0002 0 0 0-2.6221-2.6221c-.6993-.3563-1.4629-.5094-2.3585-.5826C19.4911 4 18.407 4 17.044 4ZM6.0002 22c0 1.1046-.8954 2-2 2-1.1045 0-2-.8954-2-2s.8955-2 2-2c1.1046 0 2 .8954 2 2Z"/><path fill="currentColor" d="M4.0003 18a4.029 4.029 0 0 0-.8012.08c-.5412.1099-1.069-.2398-1.179-.781-.1098-.5413.2399-1.0691.7811-1.179A6.0245 6.0245 0 0 1 4.0003 16c3.3137 0 6 2.6863 6 6 0 .4097-.0412.8107-.12 1.1989-.1099.5413-.6377.891-1.179.7811-.5412-.1099-.8909-.6377-.781-1.1789.0523-.258.08-.5258.08-.8011 0-2.2091-1.7909-4-4-4Z"/><path fill="currentColor" d="M3.11 14.0489A8.09 8.09 0 0 1 4 14c4.4183 0 8 3.5817 8 8 0 .3012-.0166.5982-.0489.8901-.0607.549.3351 1.0432.8841 1.1038.5489.0607 1.0431-.3351 1.1038-.884A10.105 10.105 0 0 0 14 22c0-5.5228-4.4772-10-10-10-.3748 0-.745.0207-1.1098.061-.549.0606-.9447.5548-.884 1.1038.0606.5489.5548.9447 1.1037.8841Z"/></svg>
