<svg xmlns="http://www.w3.org/2000/svg" width="28" height="28" fill="currentColor" viewBox="0 0 28 28"><path fill-rule="evenodd" d="M12.357 2h3.286c1.084 0 1.958 0 2.666.058.729.06 1.369.185 1.961.487a5 5 0 0 1 2.185 2.185c.302.592.428 1.233.487 1.961C23 7.4 23 8.273 23 9.357v9.286c0 1.084 0 1.958-.058 2.666-.06.729-.185 1.369-.487 1.961a5 5 0 0 1-2.185 2.185c-.592.302-1.232.428-1.961.487C17.6 26 16.727 26 15.643 26h-3.286c-1.084 0-1.958 0-2.666-.058-.728-.06-1.369-.185-1.961-.487a5 5 0 0 1-2.185-2.185c-.302-.592-.428-1.232-.487-1.961C5 20.6 5 19.727 5 18.643V9.357c0-1.084 0-1.958.058-2.666.06-.728.185-1.369.487-1.96A5 5 0 0 1 7.73 2.544c.592-.302 1.233-.428 1.961-.487C10.4 2 11.273 2 12.357 2ZM9.854 4.051c-.605.05-.953.142-1.216.276a3 3 0 0 0-1.311 1.311c-.134.263-.226.611-.276 1.216C7.001 7.471 7 8.264 7 9.4V13h6V4h-.6c-1.137 0-1.929 0-2.546.051ZM15 4v9h6V9.4c0-1.137 0-1.929-.051-2.546-.05-.605-.142-.953-.276-1.216a3 3 0 0 0-1.311-1.311c-.263-.134-.611-.226-1.216-.276C17.529 4.001 16.736 4 15.6 4H15Zm-2 11H7v3.6c0 1.137 0 1.929.051 2.546.05.605.142.953.276 1.216a3 3 0 0 0 1.311 1.311c.263.134.611.226 1.216.276.617.05 1.41.051 2.546.051h.6v-9Zm2 9v-9h6v3.6c0 1.137 0 1.929-.051 2.546-.05.605-.142.953-.276 1.216a3 3 0 0 1-1.311 1.311c-.263.134-.611.226-1.216.276-.617.05-1.41.051-2.546.051H15Z" clip-rule="evenodd"/></svg>
