<svg fill="none" height="28" viewBox="0 0 28 28" width="28" xmlns="http://www.w3.org/2000/svg"><path clip-rule="evenodd" d="m21.2875 5.00442.1691-.0043c.8866.01068 1.5433.71135 1.5433 1.50171 0 .58508-.0915.85196-.3627 1.21332-.3839.51152-1.1213 1.17674-2.6637 2.35545l-.9736.744-.9736-.744c-1.5423-1.17871-2.2798-1.84393-2.6637-2.35545-.2712-.36136-.3627-.62824-.3627-1.21332 0-.79645.6669-1.50183 1.5639-1.50183.4492 0 .8399.11763 1.2024.3536l.0992.06836c.6832.47055 1.5859.47055 2.269 0l.0993-.06836c.3257-.21201.6704-.32603 1.0538-.34918zm-2.2876-1.22955-.1175-.08099c-.6945-.45874-1.473-.69388-2.3186-.69388-1.9682 0-3.5639 1.56781-3.5639 3.50183 0 1.88896.7643 2.82866 3.812 5.15777l1.4112 1.0785c.4569.3492 1.0967.3492 1.5536 0l1.4112-1.0785c3.0478-2.32911 3.812-3.26881 3.812-5.15777 0-1.93402-1.5956-3.50183-3.5639-3.50183l-.2289.00582c-.7575.03878-1.4582.27103-2.0896.68806zm-14.11673 11.76973c-1.24933-3.9867.58801-8.20289 4.165-10.07207.30668-.16132.62441-.30446.95178-.42797v.00275c.14845-.05571.29925-.10764.45245-.15564.527-.16516 1.0881.12819 1.2533.6552.1651.52701-.1282 1.08812-.6552 1.25328-.37.11593-.7222.26188-1.05488.43432-2.07753 1.08479-3.49567 3.25953-3.49567 5.76553 0 .5165.06024 1.0189.17407 1.5006.49769 2.0833 2.01375 3.8772 4.18668 4.6339 3.3902 1.1806 7.0955-.6107 8.2761-4.0008.1816-.5216.7517-.7972 1.2732-.6155.5216.1816.7972.7516.6155 1.2732-.01.0288-.0192.0574-.0284.086-.0132.041-.0264.0819-.0417.1226-.3103.8224-.7444 1.584-1.2796 2.2621l4.5313 4.5308c.3905.3905.3905 1.0237 0 1.4142-.3906.3905-1.0237.3905-1.4143 0l-4.5308-4.5313c-.9808.7742-2.1362 1.3368-3.3975 1.6191-4.2752.9692-8.64748-1.494-9.98133-5.7503z" fill="currentColor" fill-rule="evenodd"/></svg>
