<?xml version="1.0" encoding="UTF-8"?>
<svg width="28px" height="28px" viewBox="0 0 28 28" version="1.1" xmlns="http://www.w3.org/2000/svg" xmlns:xlink="http://www.w3.org/1999/xlink">
    <!-- Generator: Sketch 50.2 (55047) - http://www.bohemiancoding.com/sketch -->
    <title>search_28</title>
    <desc>Created with Sketch.</desc>
    <defs></defs>
    <g id="Page-2" stroke="none" stroke-width="1" fill="none" fill-rule="evenodd">
        <g id="search_28">
            <rect id="Mask" x="0" y="0" width="28" height="28"></rect>
            <path d="M20.5216013,18.9659665 L24.2778174,22.7221826 C24.7073941,23.1517593 24.7073941,23.8482407 24.2778174,24.2778174 C23.8482407,24.7073941 23.1517593,24.7073941 22.7221826,24.2778174 L18.9659665,20.5216013 C17.3277266,21.8227597 15.2546304,22.5999999 13,22.5999999 C7.69806645,22.5999999 3.4000001,18.3019335 3.4000001,13 C3.4000001,7.69806645 7.69806645,3.4000001 13,3.4000001 C18.3019335,3.4000001 22.5999999,7.69806645 22.5999999,13 C22.5999999,15.2546304 21.8227597,17.3277266 20.5216013,18.9659665 Z M13,20.4000001 C17.0869072,20.4000001 20.4000001,17.0869072 20.4000001,13 C20.4000001,8.9130928 17.0869072,5.5999999 13,5.5999999 C8.9130928,5.5999999 5.5999999,8.9130928 5.5999999,13 C5.5999999,17.0869072 8.9130928,20.4000001 13,20.4000001 Z" id="Mask" fill="currentColor" fill-rule="nonzero"></path>
        </g>
    </g>
</svg>
