<?xml version="1.0" encoding="UTF-8"?>
<svg width="28px" height="28px" viewBox="0 0 28 28" version="1.1" xmlns="http://www.w3.org/2000/svg" xmlns:xlink="http://www.w3.org/1999/xlink">
    <!-- Generator: Sketch 63.1 (92452) - https://sketch.com -->
    <title>search_outline_28</title>
    <desc>Created with Sketch.</desc>
    <g id="Page-1" stroke="none" stroke-width="1" fill="none" fill-rule="evenodd">
        <g id="search_outline_28">
            <polygon points="0 0 28 0 28 28 0 28"></polygon>
            <path d="M13,4.5 C17.6944204,4.5 21.5,8.30557963 21.5,13 C21.5,14.9869834 20.8182183,16.8147282 19.675829,18.2620601 L24.2071068,22.7928932 C24.5976311,23.1834175 24.5976311,23.8165825 24.2071068,24.2071068 C23.8165825,24.5976311 23.1834175,24.5976311 22.7928932,24.2071068 L22.7928932,24.2071068 L18.2620601,19.675829 C16.8147282,20.8182183 14.9869834,21.5 13,21.5 C8.30557963,21.5 4.5,17.6944204 4.5,13 C4.5,8.30557963 8.30557963,4.5 13,4.5 Z M13,6.5 C9.41014913,6.5 6.5,9.41014913 6.5,13 C6.5,16.5898509 9.41014913,19.5 13,19.5 C16.5898509,19.5 19.5,16.5898509 19.5,13 C19.5,9.41014913 16.5898509,6.5 13,6.5 Z" id="↳-Icon-Color" fill="currentColor" fill-rule="nonzero"></path>
        </g>
    </g>
</svg>
