<svg xmlns="http://www.w3.org/2000/svg" width="28" height="28" fill="currentColor" viewBox="0 0 28 28"><path fill-rule="evenodd" d="M6.8 11.363c-.657-1.679-1.117-2.977-1.32-3.807-.252-1.023-.675-2.156-.253-3.188a2.184 2.184 0 0 1 1.521-1.306c.95-.226 1.848.223 2.663.66 1.778.952 11.076 5.815 13.32 6.996 1.311.69 3.198 1.428 3.267 3.162.067 1.677-1.556 2.432-2.816 3.094-4.603 2.422-9.178 4.898-13.795 7.293-.839.436-1.763.91-2.735.664a2.166 2.166 0 0 1-1.539-1.45c-.187-.582-.107-1.18.032-1.762.415-1.727.993-3.415 1.635-5.07a5.615 5.615 0 0 1 2.15-2.654 5.615 5.615 0 0 1-2.13-2.632Zm6.416 1.89c1.025.206 1.542.317 1.65.495a.5.5 0 0 1-.001.523c-.115.187-.68.296-1.807.515-.778.151-1.416.274-1.612.31-1.283.237-2.345 1.1-2.802 2.277a40.232 40.232 0 0 0-1.416 4.276c-.389 1.474-.454 1.72 1.238.843 4.674-2.424 9.308-4.927 13.965-7.382 1.036-.547 1.566-.84 1.569-1.138.003-.295-.512-.594-1.564-1.15-4.652-2.455-9.334-4.854-13.97-7.338-1.665-.892-1.588-.582-1.146 1.187.339 1.356.833 2.662 1.342 3.964.458 1.172 1.518 2.031 2.796 2.268.588.108 1.172.231 1.758.35Z" clip-rule="evenodd"/></svg>
