<svg fill="none" height="28" viewBox="0 0 28 28" width="28" xmlns="http://www.w3.org/2000/svg"><path clip-rule="evenodd" d="m5.79931 11.3629c-.65622-1.67872-1.11619-2.97685-1.32016-3.80659-.25156-1.02336-.67432-2.15645-.25207-3.18827.25659-.62701.79664-1.13251 1.52148-1.30557.95002-.22683 1.84716.22221 2.6625.65905 1.77804.95263 11.07604 5.81596 13.32064 6.99688 1.3108.6896 3.1972 1.428 3.2665 3.1617.0671 1.6775-1.5561 2.4317-2.8159 3.0944-4.6031 2.4214-9.1778 4.8979-13.79487 7.2928-.83933.4354-1.76368.9094-2.73562.6637-.79551-.2012-1.32773-.7918-1.53866-1.4492-.18684-.5823-.10708-1.1817.03227-1.7627.41418-1.7269.9925-3.4152 1.63428-5.0694.42953-1.1071 1.19217-2.0221 2.15081-2.6548-.94797-.6298-1.70285-1.5363-2.1312-2.632zm6.41709 1.8896c1.0246.2064 1.5418.3177 1.6503.496.0978.1606.0971.363-.0017.5229-.1151.1863-.6791.2958-1.8069.5148-.7777.151-1.416.2742-1.6123.3104-1.28274.236-2.34464 1.0989-2.80152 2.2765-.5464 1.4084-1.03106 2.8161-1.41621 4.2759-.38896 1.4744-.45398 1.7208 1.23846.8429 4.67377-2.4243 9.30717-4.9267 13.96447-7.3823 1.0362-.5465 1.5663-.8395 1.569-1.1373.0027-.295-.5121-.5947-1.5644-1.1501-4.6514-2.4551-9.333-4.85388-13.96907-7.33777-1.66548-.89232-1.58819-.58274-1.14657 1.18621.33875 1.35688.83328 2.6625 1.34209 3.96406.45846 1.1728 1.51751 2.0318 2.79605 2.2678.5877.1085 1.1725.2319 1.7583.35z" fill="currentColor" fill-rule="evenodd"/>
</svg>