<svg width="28" height="28" viewBox="0 0 28 28" fill="none" xmlns="http://www.w3.org/2000/svg">
<path d="M10.7566 15C11.5367 15 11.8196 15.0812 12.1047 15.2337C12.3899 15.3863 12.6137 15.6101 12.7663 15.8953C12.9188 16.1804 13 16.4633 13 17.2434V21.7566C13 22.5367 12.9188 22.8196 12.7663 23.1047C12.6137 23.3899 12.3899 23.6137 12.1047 23.7663C11.8196 23.9188 11.5367 24 10.7566 24H6.2434C5.46332 24 5.18045 23.9188 4.89526 23.7663C4.61007 23.6137 4.38626 23.3899 4.23374 23.1047C4.08122 22.8196 4 22.5367 4 21.7566V17.2434C4 16.4633 4.08122 16.1804 4.23374 15.8953C4.38626 15.6101 4.61007 15.3863 4.89526 15.2337C5.18045 15.0812 5.46332 15 6.2434 15H10.7566ZM21.7566 15C22.5367 15 22.8196 15.0812 23.1047 15.2337C23.3899 15.3863 23.6137 15.6101 23.7663 15.8953C23.9188 16.1804 24 16.4633 24 17.2434V21.7566C24 22.5367 23.9188 22.8196 23.7663 23.1047C23.6137 23.3899 23.3899 23.6137 23.1047 23.7663C22.8196 23.9188 22.5367 24 21.7566 24H17.2434C16.4633 24 16.1804 23.9188 15.8953 23.7663C15.6101 23.6137 15.3863 23.3899 15.2337 23.1047C15.0812 22.8196 15 22.5367 15 21.7566V17.2434C15 16.4633 15.0812 16.1804 15.2337 15.8953C15.3863 15.6101 15.6101 15.3863 15.8953 15.2337C16.1804 15.0812 16.4633 15 17.2434 15H21.7566ZM19.9678 2.93436C20.2773 3.02817 20.5347 3.17076 21.0863 3.72236L24.2776 6.91368C24.8292 7.46528 24.9718 7.72273 25.0656 8.03223C25.1594 8.34174 25.1594 8.65826 25.0656 8.96776C24.9718 9.27727 24.8292 9.53472 24.2776 10.0863L21.0863 13.2776C20.5347 13.8292 20.2773 13.9718 19.9678 14.0656C19.6583 14.1594 19.3417 14.1594 19.0322 14.0656C18.7227 13.9718 18.4653 13.8292 17.9137 13.2776L14.7224 10.0863C14.1708 9.53472 14.0282 9.27727 13.9344 8.96776C13.8406 8.65826 13.8406 8.34174 13.9344 8.03223C14.0282 7.72273 14.1708 7.46528 14.7224 6.91368L17.9137 3.72236C18.4653 3.17076 18.7227 3.02817 19.0322 2.93436C19.3417 2.84055 19.6583 2.84055 19.9678 2.93436ZM10.7566 4C11.5367 4 11.8196 4.08122 12.1047 4.23374C12.3899 4.38626 12.6137 4.61007 12.7663 4.89526C12.9188 5.18044 13 5.46332 13 6.2434V10.7566C13 11.5367 12.9188 11.8196 12.7663 12.1047C12.6137 12.3899 12.3899 12.6137 12.1047 12.7663C11.8196 12.9188 11.5367 13 10.7566 13H6.2434C5.46332 13 5.18045 12.9188 4.89526 12.7663C4.61007 12.6137 4.38626 12.3899 4.23374 12.1047C4.08122 11.8196 4 11.5367 4 10.7566V6.2434C4 5.46332 4.08122 5.18044 4.23374 4.89526C4.38626 4.61007 4.61007 4.38626 4.89526 4.23374C5.18045 4.08122 5.46332 4 6.2434 4H10.7566Z" fill="currentColor"/>
</svg>
