<svg height="28" viewBox="0 0 28 28" width="28" xmlns="http://www.w3.org/2000/svg"><g fill="none" fill-rule="nonzero" transform=""><path d="m0 0h28v28h-28z"/><path d="m13.9974818 5.42097492c0-.77319865.6268014-1.4 1.4-1.4.3347362 0 .6583938.11993521.9122999.33806361l9.9861668 8.57902507c.5864912.5038493.6534858 1.387745.1496365 1.9742363l-.0719869.0776496c-.0187046.0187046-.0383529.0364653-.0776496.0719869l-9.9861668 8.5790251c-.5864913.5038493-1.470387.4368548-1.9742363-.1496365-.2181284-.2539061-.3380636-.5775638-.3380636-.9122999v-4.066432c-5.08439133.1304864-8.61151087 1.2735834-10.61620686 3.3620416l-.21065861.2279411c-.462168.4879506-1.23162971.523771-1.73745336.0739829-.34218604-.3042785-.49058348-.7713199-.38678566-1.217305 1.68178679-7.226084 6.06235757-11.09845968 12.95110449-11.43521696zm-11.23531531 15.26101038c-.30555005-.271701-.77137936-.2481753-1.04815507.0500927.37060413-.4015056.99291415-.4335468 1.40087976-.0707759l-.19438925.2188437c-.04051323-.0734448-.09365667-.1406469-.15833544-.1981605zm12.23531531-4.1819853c.5522848 0 1 .4477153 1 1v3.7725627l8.4654169-7.2725627-8.4654169-7.27256271v3.77256271c0 .5522847-.4477152 1-1 1-5.6960732 0-9.41372314 2.4679889-11.29899548 7.5433479 2.63303323-1.7093348 6.40650038-2.5433479 11.29899548-2.5433479z" fill="currentColor"/></g></svg>
