<svg fill="none" height="28" viewBox="0 0 28 28" width="28" xmlns="http://www.w3.org/2000/svg"><path d="m19 12.5c-.3127-.1929-.7123-.4016-1.2124-.6756l-7.0463-3.86147c-1.22857-.67329-1.84287-1.00994-2.3466-.95764-.4394.04562-.83813.26752-1.09743.61077-.29727.39349-.29727 1.07202-.29727 2.42904l.00002 7.9098c0 1.357 0 2.0356.29727 2.429.25931.3433.65803.5652 1.09743.6108.50373.0523 1.11804-.2843 2.34668-.9576l7.0463-3.8615c.5-.274.8996-.4827 1.2123-.6756v4c0 .5523.4477 1 1 1s1-.4477 1-1v-11c0-.55228-.4477-1-1-1s-1 .44772-1 1z" fill="currentColor"/></svg>
