<svg fill="none" height="28" viewBox="0 0 28 28" width="28" xmlns="http://www.w3.org/2000/svg"><g fill="currentColor"><path d="m6 4c0-.55228-.44772-1-1-1s-1 .44772-1 1v1h-1c-.55228 0-1 .44772-1 1s.44772 1 1 1h1v17c0 .5523.44772 1 1 1s1-.4477 1-1v-17h1c.55228 0 1-.44771 1-1 0-.55228-.44772-1-1-1h-1z"/><path d="m15 4c0-.55228-.4477-1-1-1s-1 .44772-1 1v12h-1c-.5523 0-1 .4477-1 1s.4477 1 1 1h1v6c0 .5523.4477 1 1 1s1-.4477 1-1v-6h1c.5523 0 1-.4477 1-1s-.4477-1-1-1h-1z"/><path d="m23 3c.5523 0 1 .44772 1 1v7h1c.5523 0 1 .4477 1 1s-.4477 1-1 1h-1v11c0 .5523-.4477 1-1 1s-1-.4477-1-1v-11h-1c-.5523 0-1-.4477-1-1s.4477-1 1-1h1v-7c0-.55228.4477-1 1-1z"/></g></svg>
