<svg width="28" height="28" fill="none" xmlns="http://www.w3.org/2000/svg"><path fill-rule="evenodd" clip-rule="evenodd" d="M15.364 1.262a.383.383 0 00-.727 0l-.29.873a1.914 1.914 0 01-1.211 1.21l-.874.292a.383.383 0 000 .726l.874.291c.571.19 1.02.64 1.21 1.21l.291.874c.117.35.61.35.727 0l.29-.873c.191-.572.64-1.02 1.211-1.21l.874-.292a.383.383 0 000-.726l-.874-.291a1.914 1.914 0 01-1.21-1.21l-.291-.874zm-6.21 2.463l-1 .268c-.872.233-1.574.421-2.135.614-.578.197-1.075.421-1.513.757a5 5 0 00-1.913 3.314c-.072.547-.017 1.09.1 1.689.114.582.303 1.284.536 2.155l1.835 6.848c.351 1.313.635 2.371.949 3.197.324.853.717 1.562 1.346 2.114a5 5 0 001.69.976c.793.269 1.603.254 2.504.108.872-.14 1.93-.424 3.243-.776l2.65-.71c.277-.074.465-.125.628-.18a5 5 0 003.285-5.69 10.023 10.023 0 00-.157-.63v-.003l-.27-1.005a1 1 0 00-1.932.518l.259.965c.088.33.119.447.137.54a3 3 0 01-1.97 3.413 9.54 9.54 0 01-.536.15l-2.56.686c-1.377.37-2.337.625-3.097.748-.743.12-1.185.093-1.541-.028a3.002 3.002 0 01-1.014-.586c-.283-.247-.528-.616-.796-1.32-.273-.72-.531-1.68-.9-3.056L5.17 12.039c-.245-.913-.415-1.55-.514-2.057-.098-.499-.112-.8-.08-1.043a3 3 0 011.148-1.988c.193-.149.462-.288.942-.452.49-.168 1.126-.339 2.04-.584l.965-.258a1 1 0 00-.517-1.932zM7.533 8.3a1.25 1.25 0 10.647 2.415A1.25 1.25 0 007.533 8.3zm3.014 2.557a1.25 1.25 0 112.415-.647 1.25 1.25 0 01-2.415.647zm-1.979 1.307a1.25 1.25 0 10.647 2.415 1.25 1.25 0 00-.647-2.415zm11.827-7.728c.194-.581 1.017-.581 1.21 0l.486 1.456a3.19 3.19 0 002.017 2.017l1.456.486c.582.194.582 1.016 0 1.21l-1.456.486a3.19 3.19 0 00-2.017 2.017l-.485 1.456c-.194.581-1.017.581-1.21 0l-.486-1.456a3.19 3.19 0 00-2.017-2.018l-1.456-.485c-.582-.194-.582-1.016 0-1.21l1.456-.486a3.19 3.19 0 002.017-2.017l.485-1.456z" fill="currentColor"/></svg>
