<svg xmlns="http://www.w3.org/2000/svg" width="28" height="28" fill="currentColor" viewBox="0 0 28 28"><path d="M16.241 2H11.76c-.805 0-1.47 0-2.01.044-.563.046-1.08.145-1.565.393a4.002 4.002 0 0 0-1.748 1.75c-.247.486-.346 1.003-.392 1.566C6 6.295 6 6.96 6 7.766v12.497c0 .806 0 1.471.044 2.013.046.563.145 1.08.392 1.566a4.002 4.002 0 0 0 1.748 1.75c.538.274 1.117.367 1.755.406A1 1 0 0 0 10.061 24c-.538-.032-.794-.102-.969-.19a2.001 2.001 0 0 1-.874-.876c-.08-.157-.145-.381-.18-.82C8 21.663 8 21.08 8 20.222V7.807c0-.858 0-1.44.038-1.891.035-.44.1-.664.18-.82.192-.377.498-.683.874-.875.156-.08.38-.145.819-.181.45-.037 1.032-.038 1.889-.038h4.4c.857 0 1.439.001 1.889.038.438.036.663.1.819.18.376.193.682.499.874.876.08.156.145.38.18.82.037.45.038 1.033.038 1.891v6.708a1 1 0 1 0 2 0v-6.75c0-.805 0-1.47-.044-2.012-.046-.563-.145-1.08-.392-1.566a4.003 4.003 0 0 0-1.748-1.75c-.485-.248-1.002-.347-1.564-.393C17.71 2 17.046 2 16.242 2Z"/><path d="m23.361 22.581-3.558 2.958c-.253.21-.38.316-.473.363a.915.915 0 0 1-1.304-.618c-.023-.102-.023-.268-.023-.599v-1.094c-1.462 0-2.66.502-3.538 1.058-.338.214-.507.32-.584.347a.667.667 0 0 1-.883-.672c.003-.083.037-.199.105-.43.498-1.709 1.753-3.86 4.9-4.362v-1.217c0-.331 0-.497.023-.599a.915.915 0 0 1 1.304-.618c.093.047.22.152.474.363l3.558 2.958c.197.164.295.246.362.324a1.174 1.174 0 0 1 0 1.514 3.23 3.23 0 0 1-.363.324Z"/></svg>
