<svg fill="none" height="28" viewBox="0 0 28 28" width="28" xmlns="http://www.w3.org/2000/svg"><g fill="currentColor"><path d="m13 20c-.5523 0-1 .4477-1 1s.4477 1 1 1h2c.5523 0 1-.4477 1-1s-.4477-1-1-1z"/><path clip-rule="evenodd" d="m6 8.4c0-2.24021 0-3.36031.43597-4.21596.3835-.75265.99542-1.36457 1.74807-1.74807.85565-.43597 1.97576-.43597 4.21596-.43597h3.2c2.2402 0 3.3603 0 4.216.43597.7526.3835 1.3645.99542 1.748 1.74807.436.85565.436 1.97575.436 4.21596v11.2c0 2.2402 0 3.3603-.436 4.216-.3835.7526-.9954 1.3645-1.748 1.748-.8557.436-1.9758.436-4.216.436h-3.2c-2.2402 0-3.36031 0-4.21596-.436-.75265-.3835-1.36457-.9954-1.74807-1.748-.43597-.8557-.43597-1.9758-.43597-4.216zm6.4-4.4h3.2c1.1531 0 1.8977.00156 2.4643.04785.5434.0444.7448.11975.8437.17014.3763.19174.6823.4977.874.87403.0504.09889.1258.30033.1701.84365.0463.56668.0479 1.31122.0479 2.46433v11.2c0 1.1531-.0016 1.8977-.0479 2.4643-.0443.5434-.1197.7448-.1701.8437-.1917.3763-.4977.6823-.874.874-.0989.0504-.3003.1258-.8437.1701-.5666.0463-1.3112.0479-2.4643.0479h-3.2c-1.1531 0-1.8977-.0016-2.46433-.0479-.54332-.0443-.74476-.1197-.84365-.1701-.37633-.1917-.68229-.4977-.87403-.874-.05039-.0989-.12574-.3003-.17014-.8437-.04629-.5666-.04785-1.3112-.04785-2.4643v-11.2c0-1.15311.00156-1.89765.04785-2.46433.0444-.54332.11975-.74476.17014-.84365.19174-.37633.4977-.68229.87403-.87403.09889-.05039.30033-.12574.84365-.17014.56663-.04629 1.31123-.04785 2.46433-.04785z" fill-rule="evenodd"/></g></svg>
