<svg xmlns="http://www.w3.org/2000/svg" width="28" height="28" fill="currentColor" viewBox="0 0 28 28"><path fill-rule="evenodd" d="m8.153 3.993 1-.268a1 1 0 0 1 .518 1.932l-.966.258c-.913.245-1.55.416-2.039.584-.48.164-.75.303-.943.452a3 3 0 0 0-1.148 1.988c-.032.242-.018.544.08 1.043.1.507.27 1.144.515 2.057l1.811 6.762c.37 1.376.627 2.336.901 3.056.268.704.513 1.073.795 1.32.297.26.641.46 1.014.586.356.12.798.148 1.542.028.76-.123 1.72-.379 3.097-.748l2.56-.686c.33-.088.445-.12.535-.15a3 3 0 0 0 1.97-3.414 9.522 9.522 0 0 0-.137-.538L19 17.288a1 1 0 0 1 1.932-.518l.27 1.005c.074.276.124.464.157.634a5 5 0 0 1-3.284 5.688 9.64 9.64 0 0 1-.628.18l-2.65.711c-1.313.352-2.371.635-3.244.776-.9.146-1.71.16-2.504-.108a5 5 0 0 1-1.69-.976c-.629-.552-1.022-1.261-1.346-2.114-.313-.826-.597-1.884-.949-3.197l-1.835-6.848c-.233-.87-.421-1.573-.535-2.155-.118-.6-.173-1.142-.1-1.689a5 5 0 0 1 1.913-3.314c.438-.336.935-.56 1.512-.757.561-.193 1.264-.38 2.135-.614Z" clip-rule="evenodd"/><path d="M6.648 9.831a1.25 1.25 0 1 1 2.415-.647 1.25 1.25 0 0 1-2.415.647Zm3.899 1.026a1.25 1.25 0 1 1 2.415-.647 1.25 1.25 0 0 1-2.415.647Zm-2.863 2.838a1.25 1.25 0 1 1 2.415-.647 1.25 1.25 0 0 1-2.415.647Zm7.679-12.433a.383.383 0 0 0-.726 0l-.291.873a1.914 1.914 0 0 1-1.21 1.21l-.874.292a.383.383 0 0 0 0 .726l.873.291c.572.19 1.02.64 1.21 1.21l.292.874c.116.35.61.35.726 0l.291-.873c.19-.572.64-1.02 1.21-1.21l.874-.292a.383.383 0 0 0 0-.726l-.873-.291a1.914 1.914 0 0 1-1.21-1.21l-.292-.874Zm6.242 3.174c-.194-.581-1.016-.581-1.21 0l-.485 1.456a3.19 3.19 0 0 1-2.018 2.017l-1.456.486c-.581.194-.581 1.016 0 1.21l1.456.486a3.19 3.19 0 0 1 2.018 2.017l.485 1.456c.194.581 1.016.581 1.21 0l.485-1.456a3.19 3.19 0 0 1 2.018-2.018l1.456-.485c.581-.194.581-1.016 0-1.21l-1.456-.486a3.19 3.19 0 0 1-2.018-2.017l-.485-1.456Z"/></svg>
