<svg xmlns="http://www.w3.org/2000/svg" width="28" height="28" fill="currentColor" viewBox="0 0 28 28"><path d="M14 4c5.523 0 10 4.477 10 10v1.375a1 1 0 1 0 2 0V14c0-6.627-5.373-12-12-12S2 7.373 2 14s5.373 12 12 12h1.375a1 1 0 1 0 0-2H14C8.477 24 4 19.523 4 14S8.477 4 14 4Z M10.625 13.25a1.625 1.625 0 1 0 0-3.25 1.625 1.625 0 0 0 0 3.25Zm.45 3.478a1 1 0 0 0-1.462 1.365A5.986 5.986 0 0 0 14 20a5.986 5.986 0 0 0 4.387-1.907 1 1 0 1 0-1.462-1.365A3.986 3.986 0 0 1 14 18a3.986 3.986 0 0 1-2.925-1.272ZM19 11.625a1.625 1.625 0 1 1-3.25 0 1.625 1.625 0 0 1 3.25 0ZM23 18a1 1 0 1 0-2 0v3h-3a1 1 0 1 0 0 2h3v3a1 1 0 1 0 2 0v-3h3a1 1 0 1 0 0-2h-3v-3Z"/></svg>
