<svg fill="none" height="28" viewBox="0 0 28 28" width="28" xmlns="http://www.w3.org/2000/svg"><path clip-rule="evenodd" d="m14 2c6.6274 0 12 5.37258 12 12 0 6.6274-5.3726 12-12 12-6.62742 0-12-5.3726-12-12 0-6.62742 5.37258-12 12-12zm3.4671 14.4655c-.1364.1909-.2892.3714-.458.5402-1.662 1.662-4.3568 1.6618-6.019-.0004-.1686-.1686-.3213-.3489-.4576-.5395-.3855-.5394-1.13527-.6641-1.67461-.2787-.53934.3855-.66401 1.1353-.27846 1.6747.21292.2978.45111.579.71315.841 2.59982 2.5999 6.81472 2.6001 9.41422.0006.2624-.2623.5008-.5438.7139-.8421.3853-.5394.2604-1.2891-.2791-1.6746-.5394-.3854-1.2891-.2606-1.6745.2788zm-7.6671-6.6655c-.99411 0-1.8.8059-1.8 1.8s.80589 1.8 1.8 1.8c.9941 0 1.8-.8059 1.8-1.8s-.8059-1.8-1.8-1.8zm8.4 0c-.9941 0-1.8.8059-1.8 1.8s.8059 1.8 1.8 1.8 1.8-.8059 1.8-1.8-.8059-1.8-1.8-1.8z" fill="currentColor" fill-rule="evenodd"/></svg>
