<svg width="28" height="28" fill="none" xmlns="http://www.w3.org/2000/svg"><path fill-rule="evenodd" clip-rule="evenodd" d="M10 7a7 7 0 100 14 7 7 0 000-14zm7.5 11.975a4.99 4.99 0 004.249-1.668 1 1 0 10-1.499-1.323 2.993 2.993 0 01-1.747.974A8.987 8.987 0 0019 14a8.978 8.978 0 00-3.002-6.71 7 7 0 110 13.42 9.05 9.05 0 001.503-1.735zm-3.5 3.09A9 9 0 1110 5c1.437-.001 2.795.336 4 .935a9 9 0 110 16.129zm-7.662-6.169a1 1 0 011.412.088A2.99 2.99 0 0010 17c.896 0 1.7-.391 2.25-1.016a1 1 0 111.5 1.324A4.99 4.99 0 0110 19a4.99 4.99 0 01-3.75-1.692 1 1 0 01.088-1.412zM6.75 11a1.25 1.25 0 100 2.5 1.25 1.25 0 000-2.5zM12 12.25a1.25 1.25 0 112.5 0 1.25 1.25 0 01-2.5 0zm8 0a1.25 1.25 0 112.5 0 1.25 1.25 0 01-2.5 0z" fill="currentColor"/></svg>
