<?xml version="1.0" encoding="UTF-8"?>
<svg width="28px" height="28px" viewBox="0 0 28 28" version="1.1" xmlns="http://www.w3.org/2000/svg" xmlns:xlink="http://www.w3.org/1999/xlink">
    <!-- Generator: Sketch 63.1 (92452) - https://sketch.com -->
    <title>smile_outline_28</title>
    <desc>Created with Sketch.</desc>
    <g id="Page-1" stroke="none" stroke-width="1" fill="none" fill-rule="evenodd">
        <g id="smile_outline_28">
            <rect x="0" y="0" width="28" height="28"></rect>
            <path d="M14,26 C7.372583,26 2,20.627417 2,14 C2,7.372583 7.372583,2 14,2 C20.627417,2 26,7.372583 26,14 C26,20.627417 20.627417,26 14,26 Z M14,24 C19.5228475,24 24,19.5228475 24,14 C24,8.4771525 19.5228475,4 14,4 C8.4771525,4 4,8.4771525 4,14 C4,19.5228475 8.4771525,24 14,24 Z M9.61199867,18.0914941 C9.23534137,17.6875786 9.25743851,17.0547993 9.66135401,16.678142 C10.0652695,16.3014847 10.6980488,16.3235819 11.0747061,16.7274974 C12.5813352,18.3431594 15.1124523,18.4315479 16.7281143,16.9249187 C16.7962446,16.8613862 16.8618762,16.7958528 16.9249654,16.7284046 C17.3022386,16.3250643 17.9350508,16.3039327 18.3383911,16.6812059 C18.7417314,17.0584791 18.7628629,17.6912914 18.3855898,18.0946317 C18.2914055,18.1953235 18.1935463,18.2930362 18.092111,18.3876261 C15.6686181,20.6475699 11.8719424,20.5149871 9.61199867,18.0914941 Z M17.375,13.25 C16.4775373,13.25 15.75,12.5224627 15.75,11.625 C15.75,10.7275373 16.4775373,10 17.375,10 C18.2724627,10 19,10.7275373 19,11.625 C19,12.5224627 18.2724627,13.25 17.375,13.25 Z M10.625,13.25 C9.72753728,13.25 9,12.5224627 9,11.625 C9,10.7275373 9.72753728,10 10.625,10 C11.5224627,10 12.25,10.7275373 12.25,11.625 C12.25,12.5224627 11.5224627,13.25 10.625,13.25 Z" id="↳-Icon-Color" fill="currentColor" fill-rule="nonzero"></path>
        </g>
    </g>
</svg>
