<svg xmlns="http://www.w3.org/2000/svg" width="28" height="28" fill="currentColor" viewBox="0 0 28 28"><path fill-rule="evenodd" d="M10 7a7 7 0 1 0 0 14 7 7 0 0 0 0-14Zm7.5 11.975a4.99 4.99 0 0 0 4.249-1.668 1 1 0 1 0-1.499-1.323 2.993 2.993 0 0 1-1.747.974A8.987 8.987 0 0 0 19 14a8.978 8.978 0 0 0-3.002-6.71 7 7 0 1 1 0 13.42 9.05 9.05 0 0 0 1.503-1.735Zm-3.5 3.09A9 9 0 1 1 10 5a8.946 8.946 0 0 1 4 .935 9 9 0 1 1 0 16.129Zm-7.662-6.169a1 1 0 0 1 1.412.088A2.99 2.99 0 0 0 10 17c.896 0 1.7-.391 2.25-1.016a1 1 0 1 1 1.5 1.324A4.99 4.99 0 0 1 10 19a4.99 4.99 0 0 1-3.75-1.692 1 1 0 0 1 .088-1.412ZM6.75 11a1.25 1.25 0 1 0 0 2.5 1.25 1.25 0 0 0 0-2.5ZM12 12.25a1.25 1.25 0 1 1 2.5 0 1.25 1.25 0 0 1-2.5 0Zm8 0a1.25 1.25 0 1 1 2.5 0 1.25 1.25 0 0 1-2.5 0Z" clip-rule="evenodd"/></svg>
