<svg xmlns="http://www.w3.org/2000/svg" width="28" height="28" fill="currentColor" viewBox="0 0 28 28"><path fill-rule="evenodd" d="M26.49 20.96C26.153 23.22 24.157 25 21 25h-5.493a7 7 0 0 1-4.98-2.08L3.29 15.592A4.5 4.5 0 0 1 3.2 9.36l4.837-5.187c1.239-1.326 3.463-.45 3.463 1.365V6a1 1 0 0 0 1 1h2.565l-.422-1.774a1 1 0 0 1 1.946-.463l1.997 8.382a2 2 0 0 0 1.313 1.434l2.917.972c2.672.891 4 3.202 3.673 5.408ZM15.542 9l.275 1.155-3.093.884a1 1 0 1 0 .55 1.922l3.007-.859.358 1.507c.047.194.107.382.18.564l-1.136.378a1 1 0 1 0 .632 1.898l1.78-.594c.349.267.743.479 1.17.621l2.918.973c1.828.609 2.5 2.048 2.327 3.217C24.346 21.781 23.342 23 21 23h-5.493a5 5 0 0 1-3.557-1.486l-7.238-7.327a2.5 2.5 0 0 1-.05-3.462L9.5 5.538V6a3 3 0 0 0 3 3h3.043Z" clip-rule="evenodd"/></svg>
