<svg fill="none" height="28" viewBox="0 0 28 28" width="28" xmlns="http://www.w3.org/2000/svg" xmlns:xlink="http://www.w3.org/1999/xlink"><linearGradient id="a" gradientUnits="userSpaceOnUse" x1="-14" x2="14" y1="14" y2="42"><stop offset="0" stop-color="#c48aff"/><stop offset="1" stop-color="#aa65f0"/></linearGradient><path d="m0 14c0-7.73199 6.26801-14 14-14 7.732 0 14 6.26801 14 14 0 7.732-6.268 14-14 14-7.73199 0-14-6.268-14-14z" fill="url(#a)"/><path d="m14.9953 17.2344c0 3.5667-3.7995 5.4018-5.56533 3.5071-1.82681-1.9601-.10202-5.1757 3.57003-5.372v-5.1175c-.0192-1.46249.9722-2.50184 2.2302-2.95178l.2458-.08181c.5165-.16242 1.3971-.39361 2.6586-.69939.4066-.09854.7949.19726.8568.62302l.0086.11913v1.59968c0 1.16795-.6888 2.19855-1.7015 2.58235l-.1935.0643-2.1097.6751z" fill="#fff"/></svg>
