<svg height="28" viewBox="0 0 28 28" width="28" xmlns="http://www.w3.org/2000/svg"><g fill="none" fill-rule="evenodd"><path d="m0 0h28v28h-28z"/><path d="m16.6128994 14.2097046.0942074.0831886 4 4c.3604839.360484.3882135.927715.0831886 1.3200062l-.0831886.0942074-4 4c-.3905243.3905243-1.0236893.3905243-1.4142136 0-.3604839-.360484-.3882135-.927715-.0831886-1.3200062l.0831886-.0942074 2.2921068-2.2928932h-9.585c-.55228475 0-1-.4477153-1-1 0-.5128358.38604019-.9355072.88337887-.9932723l.11662113-.0067277h9.585l-2.2921068-2.2928932c-.3604839-.360484-.3882135-.927715-.0831886-1.3200062l.0831886-.0942074c.360484-.3604839.927715-.3882135 1.3200062-.0831886zm-3.9057926-9.91681138c.3604839.36048396.3882135.92771502.0831886 1.32000622l-.0831886.09420734-2.2931068 2.29289322h9.586c.5522847 0 1 .44771525 1 1 0 .51283584-.3860402.93550716-.8833789.99327227l-.1166211.00672773h-9.586l2.2931068 2.2928932c.3604839.360484.3882135.927715.0831886 1.3200062l-.0831886.0942074c-.360484.3604839-.927715.3882135-1.3200062.0831886l-.0942074-.0831886-3.99999998-4.00000002c-.36048396-.36048396-.3882135-.92771502-.08318861-1.32000622l.08318861-.09420734 3.99999998-4c.3905243-.39052429 1.0236893-.39052429 1.4142136 0z" fill="currentColor" fill-rule="nonzero"/></g></svg>
