<svg xmlns="http://www.w3.org/2000/svg" width="28" height="28" fill="currentColor" viewBox="0 0 28 28"><path fill-rule="evenodd" d="M3.25 9c.69 0 1.25.56 1.25 1.25v2.7c0 .86.001 1.431.037 1.869.034.423.095.61.154.725.168.33.435.598.765.765.115.059.302.12.725.154.438.036 1.008.037 1.869.037h11.9c.86 0 1.431-.001 1.869-.037.423-.034.61-.095.726-.154a1.75 1.75 0 0 0 .764-.765c.059-.115.12-.302.154-.725.036-.438.037-1.008.037-1.869v-2.7a1.25 1.25 0 1 1 2.5 0V13c0 .797 0 1.47-.045 2.022-.047.578-.15 1.131-.418 1.658a4.25 4.25 0 0 1-1.857 1.857c-.527.268-1.08.37-1.658.418C21.471 19 20.798 19 20 19H8c-.797 0-1.47 0-2.022-.045-.578-.047-1.131-.15-1.657-.418a4.25 4.25 0 0 1-1.858-1.857c-.268-.527-.37-1.08-.418-1.658C2 14.471 2 13.797 2 13v-2.75C2 9.56 2.56 9 3.25 9Z" clip-rule="evenodd"/></svg>
