<svg xmlns="http://www.w3.org/2000/svg" width="28" height="28" fill="currentColor" viewBox="0 0 28 28"><path fill-rule="evenodd" d="M12.991 2.96a1 1 0 0 1 1-.96h.019a1 1 0 0 1 .999.96c.236 5.985 4.046 9.796 10.03 10.031a1 1 0 0 1 .961 1v.019a1 1 0 0 1-.96.999c-5.985.236-9.795 4.046-10.031 10.03a1 1 0 0 1-1 .961h-.019a1 1 0 0 1-.999-.96c-.236-5.985-4.046-9.795-10.03-10.031a1 1 0 0 1-.961-1v-.019a1 1 0 0 1 .96-.999c5.985-.236 9.796-4.046 10.031-10.03ZM14 7.609c-1.37 3.348-3.044 5.023-6.392 6.392 3.348 1.37 5.023 3.044 6.392 6.392 1.37-3.348 3.044-5.023 6.392-6.392-3.348-1.37-5.023-3.044-6.392-6.392Z" clip-rule="evenodd"/></svg>
