<svg xmlns="http://www.w3.org/2000/svg" width="28" height="28" fill="currentColor" viewBox="0 0 28 28"><path fill-rule="evenodd" d="M10.119 10.118c1.258-1.259 2.204-3.562 2.847-5.619l.009-.03a33.18 33.18 0 0 0 .208-.692c.319-1.09.484-1.637.623-1.716a.38.38 0 0 1 .403 0c.14.078.306.625.629 1.714l.033.114.005.018c.055.184.112.37.172.56l.009.029c.65 2.057 1.602 4.363 2.86 5.622 1.26 1.258 3.553 2.202 5.599 2.844l.027.009c.19.06.379.116.564.17l.122.036c1.09.32 1.638.486 1.717.625a.38.38 0 0 1 0 .403c-.078.14-.625.307-1.713.631l-.123.037a34.148 34.148 0 0 0-.59.181c-2.047.651-4.343 1.604-5.602 2.863-1.26 1.26-2.212 3.555-2.863 5.602l-.009.028c-.06.19-.118.378-.173.563l-.036.122c-.325 1.088-.492 1.635-.632 1.714a.38.38 0 0 1-.402-.001c-.14-.08-.305-.627-.625-1.716l-.002-.009-.034-.114a35.075 35.075 0 0 0-.17-.563l-.009-.028c-.642-2.046-1.586-4.34-2.844-5.598-1.26-1.26-3.565-2.211-5.621-2.861l-.03-.01a34.262 34.262 0 0 0-.56-.17l-.131-.04c-1.089-.322-1.636-.488-1.715-.628a.38.38 0 0 1 0-.403c.08-.14.628-.304 1.717-.623l.132-.039c.184-.054.371-.11.56-.17l.03-.008c2.056-.643 4.36-1.588 5.618-2.847Z" clip-rule="evenodd"/></svg>
