<svg width="28" height="28" fill="none" xmlns="http://www.w3.org/2000/svg"><path fill-rule="evenodd" clip-rule="evenodd" d="M16.944 13.302L15.121 1.966c-.205-1.273-2.037-1.273-2.242 0l-1.823 11.336a3.19 3.19 0 00-.036.347 3 3 0 105.96.001 3.048 3.048 0 00-.036-.348zM15 14a1 1 0 11-2 0 1 1 0 012 0z" fill="currentColor"/><path d="M17.431 3.498a1 1 0 011.314-.523 12.02 12.02 0 013.74 2.54A11.966 11.966 0 0126 14c0 2.413-.713 4.663-1.941 6.546a1 1 0 11-1.676-1.092A9.948 9.948 0 0024 14a9.965 9.965 0 00-2.929-7.071 10.017 10.017 0 00-3.117-2.117 1 1 0 01-.523-1.314zm-6.868.002a1 1 0 01-.522 1.314A10.022 10.022 0 006.93 6.929 9.966 9.966 0 004 14c0 2.014.594 3.886 1.617 5.454a1 1 0 11-1.676 1.092A11.948 11.948 0 012 14c0-3.313 1.344-6.315 3.515-8.485a12.022 12.022 0 013.734-2.537 1 1 0 011.314.521z" fill="currentColor"/></svg>
