<svg width="28" height="28" fill="none" xmlns="http://www.w3.org/2000/svg"><path d="M14 2c-1.687 0-3.293.348-4.751.978l-.328.147a11.968 11.968 0 00-3.406 2.39A11.966 11.966 0 002 14c0 .425.022.845.065 1.26a1 1 0 001.99-.208A10.128 10.128 0 014 14a9.966 9.966 0 012.929-7.071 10.047 10.047 0 013.112-2.115l.005-.002A9.964 9.964 0 0114 4a9.959 9.959 0 014.7 1.17l.066.036c.85.462 1.626 1.044 2.305 1.723A9.966 9.966 0 0124 14a9.948 9.948 0 01-1.617 5.454 1 1 0 101.676 1.092A11.949 11.949 0 0026 14c0-3.313-1.344-6.315-3.515-8.485a12.04 12.04 0 00-3.74-2.54l-.006-.002A11.963 11.963 0 0014 2z" fill="currentColor"/><path fill-rule="evenodd" clip-rule="evenodd" d="M11.923 11.8l-8.905 7.247c-1 .813-.084 2.4 1.12 1.94l10.73-4.088c.11-.042.216-.09.318-.143a3 3 0 10-2.979-5.162c-.097.062-.192.13-.284.205zm1.577 1.334a1 1 0 111 1.732 1 1 0 01-1-1.732z" fill="currentColor"/></svg>
