<svg xmlns="http://www.w3.org/2000/svg" width="28" height="28" fill="currentColor" viewBox="0 0 28 28"><path fill-rule="evenodd" d="M16.944 13.302 15.121 1.966c-.205-1.273-2.037-1.273-2.242 0l-1.823 11.336a3.19 3.19 0 0 0-.036.347 3 3 0 1 0 5.96.001 3.048 3.048 0 0 0-.036-.348ZM15 14a1 1 0 1 1-2 0 1 1 0 0 1 2 0Z" clip-rule="evenodd"/><path d="M17.431 3.498a1 1 0 0 1 1.314-.523 12.02 12.02 0 0 1 3.74 2.54A11.966 11.966 0 0 1 26 14c0 2.413-.713 4.663-1.941 6.546a1 1 0 1 1-1.676-1.092A9.948 9.948 0 0 0 24 14a9.965 9.965 0 0 0-2.929-7.071 10.017 10.017 0 0 0-3.117-2.117 1 1 0 0 1-.523-1.314Zm-6.868.002a1 1 0 0 1-.522 1.314A10.022 10.022 0 0 0 6.93 6.929 9.966 9.966 0 0 0 4 14c0 2.014.594 3.886 1.617 5.454a1 1 0 1 1-1.676 1.092A11.948 11.948 0 0 1 2 14c0-3.313 1.344-6.315 3.515-8.485a12.022 12.022 0 0 1 3.734-2.537 1 1 0 0 1 1.314.521Z"/></svg>
