<svg width="28" height="28" viewBox="0 0 28 28" fill="none" xmlns="http://www.w3.org/2000/svg">
<path d="M14 2C15.6866 2 17.2935 2.34849 18.7512 2.97761L19.0791 3.125C19.4069 3.27837 19.7267 3.44613 20.0377 3.62747C20.0949 3.66085 20.1518 3.69469 20.2085 3.72899C21.0388 4.2319 21.803 4.83249 22.4853 5.51474C24.6558 7.68521 26 10.6866 26 14C26 14.4251 25.9779 14.8453 25.9346 15.2595C25.8773 15.8088 25.3855 16.2076 24.8362 16.1503C24.2869 16.0929 23.8881 15.6012 23.9454 15.0519C23.9815 14.7065 24 14.3556 24 14C24 11.2383 22.8818 8.73969 21.0711 6.92895C20.5018 6.35967 19.8644 5.85882 19.1724 5.43969C19.0781 5.38259 18.9828 5.32701 18.8865 5.27297C18.5864 5.10454 18.2768 4.95118 17.9587 4.81389L17.9542 4.81195C16.7421 4.28952 15.4057 4 14 4C12.4886 4 11.0576 4.33468 9.77508 4.93344C9.61455 5.00838 9.45635 5.08747 9.30061 5.17055L9.23409 5.20636C8.38407 5.66811 7.60805 6.24981 6.92893 6.92893C5.11819 8.73967 4 11.2383 4 14C4 16.0138 4.59424 17.8858 5.61662 19.4538C5.91827 19.9164 5.78776 20.536 5.32513 20.8376C4.86249 21.1393 4.24293 21.0088 3.94128 20.5462C2.71349 18.6631 2 16.4134 2 14C2 10.6866 3.34424 7.6852 5.51472 5.51472C6.32856 4.70088 7.25907 4.0032 8.2794 3.44893C8.38574 3.39116 8.49305 3.33495 8.60131 3.28033C8.81553 3.17224 9.03348 3.07036 9.25489 2.97495L9.26055 2.97253C10.7153 2.34654 12.3182 2 14 2Z" fill="currentColor"/>
<path fill-rule="evenodd" clip-rule="evenodd" d="M16.0766 11.7993L24.982 19.0465C25.982 19.8604 25.0662 21.4466 23.8614 20.9875L13.1324 16.8987C13.022 16.8566 12.9157 16.8089 12.8137 16.7559C12.7074 16.7099 12.6027 16.6574 12.4999 16.5981C11.0651 15.7697 10.5734 13.9349 11.4019 12.5C12.2303 11.0651 14.0651 10.5735 15.4999 11.4019C15.6023 11.461 15.6998 11.5252 15.7925 11.5941C15.8897 11.6561 15.9846 11.7245 16.0766 11.7993ZM14.4999 13.1342C14.0216 12.858 13.41 13.0219 13.1338 13.5002C12.8577 13.9785 13.0216 14.5901 13.4999 14.8662C13.9782 15.1424 14.5897 14.9785 14.8659 14.5002C15.142 14.0219 14.9782 13.4103 14.4999 13.1342Z" fill="currentColor"/>
</svg>
