<svg fill="none" height="28" viewBox="0 0 28 28" width="28" xmlns="http://www.w3.org/2000/svg" xmlns:xlink="http://www.w3.org/1999/xlink"><linearGradient id="a" gradientUnits="userSpaceOnUse" x1="-14" x2="14" y1="14" y2="42"><stop offset="0" stop-color="#c48aff"/><stop offset="1" stop-color="#aa65f0"/></linearGradient><path d="m0 14c0-7.73199 6.26801-14 14-14 7.732 0 14 6.26801 14 14 0 7.732-6.268 14-14 14-7.73199 0-14-6.268-14-14z" fill="url(#a)"/><g fill="#fff"><path clip-rule="evenodd" d="m14.711 10.5675c-.357 1.0435-.8365 2.098-1.441 2.7026-.6046.6045-1.6591 1.084-2.7026 1.441-.0657.0225-.1314.0445-.1969.066-.2029.0666-.40438.1286-.60089.186-.09323.0272-.18534.0534-.27597.0785-.37935.1052-.37935.8118 0 .917.09063.0251.18274.0512.27597.0785.19651.0573.39799.1193.60089.186.0655.0215.1312.0435.1969.0659 1.0435.3571 2.098.8365 2.7026 1.4411.6045.6045 1.084 1.659 1.441 2.7026.0225.0657.0445.1313.066.1968.0666.203.1286.4044.186.6009.0272.0933.0534.1854.0785.276.1052.3794.8118.3794.917 0 .0251-.0906.0513-.1827.0785-.276.0573-.1965.1193-.3979.186-.6009.0215-.0655.0435-.1311.0659-.1968.3571-1.0436.8365-2.0981 1.4411-2.7026.6045-.6046 1.659-1.084 2.7026-1.4411.0657-.0224.1313-.0444.1968-.0659.203-.0667.4044-.1287.6009-.186.0933-.0273.1854-.0534.276-.0785.3794-.1052.3794-.8118 0-.917-.0906-.0251-.1827-.0513-.276-.0785-.1965-.0574-.3979-.1194-.6009-.186-.0655-.0215-.1311-.0435-.1968-.066-1.0436-.357-2.0981-.8365-2.7026-1.441-.6046-.6046-1.084-1.6591-1.4411-2.7026-.0224-.0657-.0444-.1314-.0659-.1969-.0667-.2029-.1287-.40439-.186-.6009-.0272-.09322-.0534-.18534-.0785-.27597-.1052-.37935-.8118-.37935-.917 0-.0251.09063-.0513.18275-.0785.27597-.0574.19651-.1194.398-.186.6009-.0215.0655-.0435.1312-.066.1969z" fill-rule="evenodd"/><path d="m9.37943 6.1385c-.12156-.36468-.63739-.36468-.75895 0l-.3043.9129c-.19907.59721-.6677 1.06584-1.26491 1.26491l-.91289.3043c-.36468.12156-.36468.63738 0 .75894l.91289.3043c.59721.19907 1.06584.66775 1.26491 1.26495l.3043.9129c.12156.3646.63739.3646.75895 0l.3043-.9129c.19907-.5972.66767-1.06588 1.26487-1.26495l.9129-.3043c.3647-.12156.3647-.63738 0-.75894l-.9129-.3043c-.5972-.19907-1.0658-.6677-1.26487-1.26491z"/></g></svg>
