<svg xmlns="http://www.w3.org/2000/svg" width="28" height="28" fill="currentColor" viewBox="0 0 28 28"><path d="M12.494 11.5a1.507 1.507 0 0 1-1.506 1.5 1.493 1.493 0 0 1-1.494-1.5c.003-.828.678-1.5 1.506-1.5s1.497.672 1.494 1.5Zm7-1.5a1.507 1.507 0 0 1-1.506 1.5 1.493 1.493 0 0 1-1.494-1.5c.003-.828.678-1.5 1.506-1.5s1.497.672 1.494 1.5Z"/><path fill-rule="evenodd" d="M23.834 13.997a3.41 3.41 0 0 0 .165-.098c.05 3.901-2.411 7.44-6.08 8.717a3.39 3.39 0 0 0 .05-.297c.068-.54-.047-1.133-.19-1.872l-.028-.147c-.31-1.614-.409-2.19-.352-2.654a3.213 3.213 0 0 1 1.671-2.439c.412-.22.985-.337 2.602-.63l.112-.02.153-.028c.775-.14 1.397-.252 1.897-.532Zm-6.962 10.951-1.856.328c-.206.04-.425.078-.658.118l-.148.026-.242.041-.405.072c-1.126.199-2.03.358-2.773.428-.763.071-1.442.057-2.102-.145a5.21 5.21 0 0 1-2.638-1.85c-.415-.552-.66-1.186-.855-1.929-.188-.722-.348-1.628-.546-2.756l-1.183-6.717c-.198-1.128-.358-2.034-.427-2.777-.071-.765-.057-1.444.144-2.105A5.219 5.219 0 0 1 5.03 5.04c.551-.416 1.185-.662 1.926-.856.722-.19 1.626-.35 2.751-.548l6.618-1.169c1.125-.199 2.03-.358 2.772-.428.763-.071 1.443-.057 2.103.145a5.211 5.211 0 0 1 2.638 1.85c.415.552.66 1.186.854 1.929.19.722.349 1.628.547 2.756l.591 3.359c1.059 6.014-2.94 11.807-8.958 12.87ZM19.283 4.03c-.651.061-1.475.206-2.652.414l-6.533 1.154c-1.178.208-2.002.354-2.634.52-.622.163-.973.325-1.229.518-.542.41-.94.98-1.139 1.63-.094.308-.125.694-.066 1.335.061.653.206 1.478.413 2.658l1.168 6.633c.208 1.18.354 2.005.52 2.64.162.622.324.974.517 1.231a3.21 3.21 0 0 0 1.625 1.14c.307.095.692.126 1.331.067a18.608 18.608 0 0 0 1.313-.185l1.707-.294.928-.164c.422-.08.578-.125.693-.185.407-.215.683-.614.74-1.07.023-.182-.013-.432-.198-1.395l-.035-.185c-.15-.774-.271-1.404-.33-1.955-1.159.184-2.242.075-3.068-.091a9.282 9.282 0 0 1-1.765-.534 1 1 0 0 1 .819-1.825c.427.184.886.307 1.34.398.815.164 1.849.24 2.874-.03a5.213 5.213 0 0 1 2.503-3.01c.727-.39 1.643-.556 3.004-.802l.185-.034.113-.02c1.007-.183 1.262-.243 1.43-.337.378-.211.637-.583.704-1.01.03-.19-.002-.45-.18-1.46l-.448-2.543a13.945 13.945 0 0 0-.176-.77c-.163-.623-.324-.975-.517-1.232a3.21 3.21 0 0 0-1.626-1.14c-.306-.095-.691-.126-1.33-.067Zm-6.789 7.47a1.507 1.507 0 0 1-1.506 1.5 1.493 1.493 0 0 1-1.494-1.5c.003-.828.678-1.5 1.506-1.5s1.497.672 1.494 1.5Zm7-1.5a1.507 1.507 0 0 1-1.506 1.5 1.493 1.493 0 0 1-1.494-1.5c.003-.828.678-1.5 1.506-1.5s1.497.672 1.494 1.5Z" clip-rule="evenodd"/></svg>
