<?xml version="1.0" encoding="UTF-8"?>
<svg width="28px" height="28px" viewBox="0 0 28 28" version="1.1" xmlns="http://www.w3.org/2000/svg" xmlns:xlink="http://www.w3.org/1999/xlink">
    <!-- Generator: Sketch 63.1 (92452) - https://sketch.com -->
    <title>sticker_outline_28</title>
    <desc>Created with Sketch.</desc>
    <g id="Page-1" stroke="none" stroke-width="1" fill="none" fill-rule="evenodd">
        <g id="sticker_outline_28">
            <rect x="0" y="0" width="28" height="28"></rect>
            <path d="M14.555616,2.51633908 L14.6926769,2.64224251 L25.3311665,13.2807321 C25.7714196,13.7209852 26.0037577,14.3276392 25.9702175,14.949347 C25.9655574,15.0357279 25.9617966,15.0938452 25.958935,15.1236988 C25.3754677,21.2108347 20.2471824,25.9709226 14.007119,25.9709226 C7.37577029,25.9709226 2,20.5951523 2,13.9638036 C2,7.75291571 6.71568028,2.64343394 12.7619298,2.02046933 C12.8022842,2.0163115 12.8890508,2.01058429 13.0222297,2.00328772 C13.5823167,1.97260181 14.1303395,2.1577302 14.555616,2.51633908 Z M20.2727273,16.6981953 C15.3021645,16.6981953 11.2727273,12.6687581 11.2727273,7.69819535 C11.2727273,6.44192988 11.5301199,5.24578168 11.9950456,4.15961035 C7.40549512,5.09332607 4,9.15746279 4,13.9638036 C4,19.4905828 8.48033979,23.9709226 14.007119,23.9709226 C18.804608,23.9709226 22.8593988,20.5788992 23.805892,16.0076883 L23.8128412,15.9738305 C22.7270374,16.4403945 21.5299886,16.6981953 20.2727273,16.6981953 Z M13.69,4.468 L13.9373766,4.71601129 C13.5021635,5.63829658 13.2727273,6.64988015 13.2727273,7.69819535 C13.2727273,11.5641886 16.406734,14.6981953 20.2727273,14.6981953 C21.321016,14.6981953 22.3325799,14.4687743 23.2548847,14.0335575 L23.605,14.383 L13.69,4.468 Z" id="↳-Icon-Color" fill="currentColor" fill-rule="nonzero"></path>
        </g>
    </g>
</svg>
