<?xml version="1.0" encoding="UTF-8"?>
<svg width="28px" height="28px" viewBox="0 0 28 28" version="1.1" xmlns="http://www.w3.org/2000/svg" xmlns:xlink="http://www.w3.org/1999/xlink">
    <!-- Generator: Sketch 50.2 (55047) - http://www.bohemiancoding.com/sketch -->
    <title>sticker_outline_28</title>
    <desc>Created with Sketch.</desc>
    <defs></defs>
    <g id="Page-2" stroke="none" stroke-width="1" fill="none" fill-rule="evenodd">
        <g id="sticker_outline_28">
            <rect id="Rectangle" x="0" y="0" width="28" height="28"></rect>
            <path d="M23.0320798,15.8213322 C22.0262486,16.2579469 20.9163916,16.5 19.75,16.5 C15.1936508,16.5 11.5,12.8063492 11.5,8.25 C11.5,7.08360869 11.742053,5.97375188 12.1786675,4.9679209 C7.94471691,5.81873595 4.8,9.56341045 4.8,13.9934742 C4.8,19.078098 8.92190198,23.2 14.0065258,23.2 C18.4385494,23.2 22.1815858,20.0533708 23.0320798,15.8213322 Z M13.9329892,5.45899631 C13.5186423,6.32038599 13.3,7.26773006 13.3,8.25 C13.3,11.8122366 16.1877634,14.7 19.75,14.7 C20.7322538,14.7 21.6795877,14.4813683 22.5410031,14.0670102 L13.9329892,5.45899631 Z M14.0065258,25 C7.92778943,25 3,20.0722106 3,13.9934742 C3,8.30016033 7.32270693,3.61646871 12.8651024,3.04541782 C12.9025798,3.0415564 12.983727,3.03621835 13.108544,3.02940366 C13.6760369,2.99841999 14.2299118,3.21033917 14.6317876,3.61221491 L24.3900634,13.3704861 C24.7914751,13.7718978 25.0033919,14.3249816 24.972981,14.8918483 C24.9685733,14.9738143 24.9650355,15.0287689 24.9623571,15.0567115 C24.427512,20.6365861 19.7265839,25 14.0065258,25 Z" id="Mask" fill="currentColor" fill-rule="nonzero"></path>
        </g>
    </g>
</svg>
