<svg fill="none" height="28" viewBox="0 0 28 28" width="28" xmlns="http://www.w3.org/2000/svg"><path clip-rule="evenodd" d="m11.8441 4.18881c-1.89019.41968-3.58045 1.37366-4.90411 2.69733-1.8148 1.8148-2.9355 4.31906-2.9355 7.08696s1.1207 5.2721 2.9355 7.0869c1.81481 1.8148 4.31901 2.9355 7.08691 2.9355s5.2722-1.1207 7.087-2.9355c1.3236-1.3237 2.2776-3.0139 2.6973-4.9041-1.1477.5288-2.4253.8239-3.7708.8239-4.9817 0-9.0202-4.0385-9.0202-9.02019 0-1.34549.2951-2.62315.8239-3.7708zm1.5555-2.16295c.338.04548.7584.18476 1.0567.3501.3724.20639.6435.47813.9449.78009 3.1444 3.15073 6.292 6.29839 9.4428 9.44275.3019.3014.5736.5726.78.9449.1654.2983.3047.7187.3501 1.0567.0591.4388.0058.7639-.0479 1.1307-.3839 2.6191-1.6114 4.9627-3.3949 6.7463-2.1754 2.1753-5.1835 3.5226-8.5044 3.5226-3.3208 0-6.32894-1.3473-8.50429-3.5226-2.17535-2.1754-3.52261-5.1835-3.52261-8.5043 0-3.3209 1.34726-6.329 3.52261-8.50435 1.78358-1.78358 4.12719-3.01102 6.74629-3.39491.3668-.05376.6919-.10702 1.1307-.04798zm.5266 2.49041c-.5742 1.01696-.9015 2.19114-.9015 3.44334 0 3.87469 3.141 7.01569 7.0157 7.01569 1.2522 0 2.4264-.3273 3.4433-.9015-3.1724-3.1989-6.3587-6.38508-9.5575-9.55753z" fill="currentColor" fill-rule="evenodd"/></svg>
