<svg width="28" height="28" fill="none" xmlns="http://www.w3.org/2000/svg"><path d="M18.287 11.707a1 1 0 00-1.414 0l-2.829 2.829a1 1 0 001.415 1.414l2.828-2.829a1 1 0 000-1.414z" fill="currentColor"/><path fill-rule="evenodd" clip-rule="evenodd" d="M11.588 2a1 1 0 100 2H13v2.05C7.947 6.55 4 10.814 4 16c0 5.523 4.477 10 10 10s10-4.477 10-10a9.959 9.959 0 00-2.269-6.343l1.406-1.406a1 1 0 00-1.414-1.414l-1.409 1.408A9.953 9.953 0 0015 6.05V4h1.413a1 1 0 100-2h-4.825zM6 16a8 8 0 1116 0 8 8 0 01-16 0z" fill="currentColor"/></svg>
