<svg xmlns="http://www.w3.org/2000/svg" width="28" height="28" fill="currentColor" viewBox="0 0 28 28"><path d="M10.174 10.874c-.174.342-.174.79-.174 1.686v2.88c0 .896 0 1.344.174 1.686a1.6 1.6 0 0 0 .7.7c.342.174.79.174 1.686.174h2.88c.896 0 1.344 0 1.686-.174a1.6 1.6 0 0 0 .7-.7c.174-.342.174-.79.174-1.686v-2.88c0-.896 0-1.344-.174-1.686a1.6 1.6 0 0 0-.7-.7C16.784 10 16.336 10 15.44 10h-2.88c-.896 0-1.344 0-1.686.174a1.6 1.6 0 0 0-.7.7Z"/><path fill-rule="evenodd" d="M26 14c0 6.627-5.373 12-12 12S2 20.627 2 14 7.373 2 14 2s12 5.373 12 12Zm-2 0c0 5.523-4.477 10-10 10S4 19.523 4 14 8.477 4 14 4s10 4.477 10 10Z" clip-rule="evenodd"/></svg>
