<svg fill="none" height="28" viewBox="0 0 28 28" width="28" xmlns="http://www.w3.org/2000/svg"><g fill="currentColor"><path d="m13.1 4c.5523 0 1 .44772 1 1 0 .51284-.386.93551-.8834.99327l-.1166.00673h-1.8368c-1.82777 0-2.53785.14434-3.27322.55832-.62283.35063-1.10883.8622-1.44588 1.52561-.38156.75101-.5285 1.482-.54291 3.21127l-.00119 5.112c0 1.9457.14134 2.7161.5441 3.5089.33705.6634.82305 1.175 1.44588 1.5256.61684.3472 1.21589.5048 2.47172.5465l.2601.0069.5414.0049h5.4736l.5414-.0049c1.4361-.0285 2.0739-.183 2.7318-.5534.6229-.3506 1.1088-.8622 1.4459-1.5256.3378-.665.4917-1.3142.5326-2.6547l.0067-.2775.0048-.5767v-2.4072c0-.5523.4477-1 1-1 .5128 0 .9355.386.9933.8834l.0067.1166v2.4072c0 2.2344-.196 3.3026-.761 4.4148-.5146 1.0128-1.2783 1.8167-2.2479 2.3625-1.0177.573-2.0017.7922-3.9249.8137l-.3294.0018h-5.4736c-2.14341 0-3.18002-.2107-4.25434-.8155-.96955-.5458-1.73327-1.3497-2.24783-2.3625-.53681-1.0566-.74051-2.0735-.75954-4.0883l-.00149-5.1409c0-2.23439.19596-3.30259.76103-4.41479.51456-1.01278 1.27828-1.81669 2.24783-2.3625 1.01777-.57296 2.00171-.79224 3.92494-.81373z"/><path clip-rule="evenodd" d="m14 9.7c2.4853 0 4.5 2.0147 4.5 4.5s-2.0147 4.5-4.5 4.5-4.5-2.0147-4.5-4.5 2.0147-4.5 4.5-4.5zm0 2c-1.3807 0-2.5 1.1193-2.5 2.5s1.1193 2.5 2.5 2.5 2.5-1.1193 2.5-2.5-1.1193-2.5-2.5-2.5z" fill-rule="evenodd"/><path d="m21 1c.5128 0 .9355.38604.9933.88338l.0067.11662v3h3c.5128 0 .9355.38604.9933.88338l.0067.11662c0 .51284-.386.93551-.8834.99327l-.1166.00673h-3v3c0 .5523-.4477 1-1 1-.5128 0-.9355-.386-.9933-.8834l-.0067-.1166v-3h-3c-.5128 0-.9355-.38604-.9933-.88338l-.0067-.11662c0-.51284.386-.93551.8834-.99327l.1166-.00673h3v-3c0-.55228.4477-1 1-1z"/></g></svg>
