<svg fill="none" height="28" viewBox="0 0 28 28" width="28" xmlns="http://www.w3.org/2000/svg" xmlns:xlink="http://www.w3.org/1999/xlink"><linearGradient id="a" gradientUnits="userSpaceOnUse" x1="-14" x2="14" y1="14" y2="42"><stop offset="0" stop-color="#ff5263"/><stop offset="1" stop-color="#ff3347"/></linearGradient><path d="m14 28c7.732 0 14-6.268 14-14 0-7.73199-6.268-14-14-14-7.73199 0-14 6.26801-14 14 0 7.732 6.26801 14 14 14z" fill="url(#a)"/><path clip-rule="evenodd" d="m7 11.9778c0-1.7424 0-2.6136.33909-3.2791.29827-.5854.77421-1.06134 1.35961-1.35961.6655-.33909 1.5367-.33909 3.2791-.33909h4.0444c1.7424 0 2.6136 0 3.2791.33909.5854.29827 1.0613.77421 1.3596 1.35961.3391.6655.3391 1.5367.3391 3.2791v4.0444c0 1.7424 0 2.6136-.3391 3.2791-.2983.5854-.7742 1.0613-1.3596 1.3596-.6655.3391-1.5367.3391-3.2791.3391h-4.0444c-1.7424 0-2.6136 0-3.2791-.3391-.5854-.2983-1.06134-.7742-1.35961-1.3596-.33909-.6655-.33909-1.5367-.33909-3.2791zm3 2.0222c0 2.208 1.792 4 4 4s4-1.792 4-4-1.792-4-4-4-4 1.792-4 4zm4-2.5c-1.3809 0-2.5 1.1191-2.5 2.5s1.1191 2.5 2.5 2.5 2.5-1.1191 2.5-2.5-1.1191-2.5-2.5-2.5z" fill="#fff" fill-rule="evenodd"/></svg>