<?xml version="1.0" encoding="UTF-8"?>
<svg width="28px" height="28px" viewBox="0 0 28 28" version="1.1" xmlns="http://www.w3.org/2000/svg" xmlns:xlink="http://www.w3.org/1999/xlink">
    <!-- Generator: Sketch 50.2 (55047) - http://www.bohemiancoding.com/sketch -->
    <title>story_28</title>
    <desc>Created with Sketch.</desc>
    <defs></defs>
    <g id="Page-2" stroke="none" stroke-width="1" fill="none" fill-rule="evenodd">
        <g id="story_28">
            <rect id="Bounds" x="0" y="0" width="28" height="28"></rect>
            <path d="M8.29659091,3.5 L19.7034091,3.5 C22.3524931,3.5 24.5,5.6475069 24.5,8.29659091 L24.5,19.7034091 C24.5,22.3524931 22.3524931,24.5 19.7034091,24.5 L8.29659091,24.5 C5.6475069,24.5 3.5,22.3524931 3.5,19.7034091 L3.5,8.29659091 C3.5,5.6475069 5.6475069,3.5 8.29659091,3.5 Z M8.25,14 C8.25,17.174 10.826,19.75 14,19.75 C17.174,19.75 19.75,17.174 19.75,14 C19.75,10.826 17.174,8.25 14,8.25 C10.826,8.25 8.25,10.826 8.25,14 Z M10.2481821,14.0000002 C10.2481821,11.9287112 11.9268931,10.2500002 13.9981821,10.2500002 C16.0694712,10.2500002 17.7481821,11.9287112 17.7481821,14.0000002 C17.7481821,16.0712893 16.0694712,17.7500002 13.9981821,17.7500002 C11.9268931,17.7500002 10.2481821,16.0712893 10.2481821,14.0000002 Z" id="Mask" fill="currentColor"></path>
        </g>
    </g>
</svg>
