<svg xmlns="http://www.w3.org/2000/svg" width="28" height="28" fill="currentColor" viewBox="0 0 28 28"><path fill-rule="evenodd" d="M10.222 4h7.556c.554 0 1.042-.001 1.497.146a3 3 0 0 1 1.077.618c.356.319.601.74.88 1.22l2.272 3.894c.087.15.164.282.228.424.134.295.22.61.252.932.016.155.016.307.016.48v.036a3.25 3.25 0 0 1-5.5 2.345 3.239 3.239 0 0 1-2.25.905 3.24 3.24 0 0 1-2.25-.905 3.239 3.239 0 0 1-2.25.905 3.24 3.24 0 0 1-2.25-.905A3.25 3.25 0 0 1 4 11.75v-.035c0-.174 0-.326.016-.48a3 3 0 0 1 .252-.933 4.47 4.47 0 0 1 .229-.424l2.271-3.894c.28-.48.524-.901.88-1.22a3 3 0 0 1 1.078-.618c.454-.147.942-.147 1.496-.146Zm11.773 7.439a3.6 3.6 0 0 1 .005.311 1.25 1.25 0 0 1-2.5 0 1 1 0 1 0-2 0 1.25 1.25 0 0 1-2.5 0 1 1 0 1 0-2 0 1.25 1.25 0 0 1-2.5 0 1 1 0 1 0-2 0 1.25 1.25 0 0 1-2.5 0c0-.227.001-.272.005-.311a1 1 0 0 1 .084-.311c.017-.036.038-.076.153-.272L8.438 7.09c.371-.636.454-.756.544-.836a1 1 0 0 1 .359-.207c.114-.037.26-.048.997-.048h7.324c.737 0 .883.011.997.048a1 1 0 0 1 .36.207c.089.08.172.2.543.836l2.196 3.765c.115.196.136.236.153.272a.997.997 0 0 1 .084.31Z" clip-rule="evenodd"/><path d="M9 18a1 1 0 1 0-2 0v4H5a1 1 0 1 0 0 2h18a1 1 0 0 0 0-2h-2v-4a1 1 0 1 0-2 0v4H9v-4Z"/></svg>
