<svg fill="none" height="28" viewBox="0 0 28 28" width="28" xmlns="http://www.w3.org/2000/svg" xmlns:xlink="http://www.w3.org/1999/xlink"><linearGradient id="a" gradientUnits="userSpaceOnUse" x1="-14" x2="14" y1="14" y2="42"><stop offset="0" stop-color="#c48aff"/><stop offset="1" stop-color="#aa65f0"/></linearGradient><path d="m0 14c0-7.73199 6.26801-14 14-14 7.732 0 14 6.26801 14 14 0 7.732-6.268 14-14 14-7.73199 0-14-6.268-14-14z" fill="url(#a)"/><path clip-rule="evenodd" d="m11.9049 9.49433c.4174.3617.4625.99327.1008 1.41057l-1.8157 2.0951h3.81c2.721 0 5.1243 1.3593 6.568 3.4314.3157.4532.2043 1.0765-.2489 1.3922-.4531.3157-1.0764.2043-1.3921-.2489-1.0858-1.5583-2.8878-2.5747-4.927-2.5747h-3.8101l1.8158 2.0951c.3617.4173.3166 1.0489-.1008 1.4106-.4173.3617-1.0489.3166-1.4106-.1008l-3.24999-3.75c-.32575-.3758-.32575-.934 0-1.3098l3.24999-3.75001c.3617-.41736.9933-.46247 1.4106-.10076z" fill="#fff" fill-rule="evenodd"/></svg>
