<svg fill="none" height="28" viewBox="0 0 28 28" width="28" xmlns="http://www.w3.org/2000/svg"><g fill="currentColor"><path d="m9 11c0-1.10457.89543-2 2-2 1.1046 0 2 .89543 2 2 0 1.1046-.8954 2-2 2-1.10457 0-2-.8954-2-2z"/><path d="m15 11c0-1.10457.8954-2 2-2s2 .89543 2 2c0 1.1046-.8954 2-2 2s-2-.8954-2-2z"/><path d="m17 15c-1.1046 0-2 .8954-2 2s.8954 2 2 2 2-.8954 2-2-.8954-2-2-2z"/><path d="m9 17c0-1.1046.89543-2 2-2 1.1046 0 2 .8954 2 2s-.8954 2-2 2c-1.10457 0-2-.8954-2-2z"/><path clip-rule="evenodd" d="m26 14c0 6.6274-5.3726 12-12 12-6.62742 0-12-5.3726-12-12 0-6.62742 5.37258-12 12-12 6.6274 0 12 5.37258 12 12zm-2 0c0 5.5228-4.4772 10-10 10-5.52285 0-10-4.4772-10-10 0-5.52285 4.47715-10 10-10 5.5228 0 10 4.47715 10 10z" fill-rule="evenodd"/></g></svg>
