<svg xmlns="http://www.w3.org/2000/svg" width="28" height="28" fill="none" viewBox="0 0 28 28"><path fill="url(#a)" d="M0 14C0 6.268 6.268 0 14 0s14 6.268 14 14-6.268 14-14 14S0 21.732 0 14Z"/><path fill="#fff" d="M5.84 15.44c-.186-1.213-.23-1.357-.555-1.816-.409-.577-.467-1.238.428-1.412 2.296-.446 4.782-.113 7.047.302a6.239 6.239 0 0 0 2.48 0c2.265-.415 4.75-.748 7.047-.302.895.174.837.835.428 1.412-.325.46-.369.603-.555 1.816-.278 1.82-1.807 2.56-3.7 2.56-2.08 0-2.773-1.187-3.418-2.805-.628-1.573-1.454-1.573-2.082 0C12.315 16.813 11.622 18 9.541 18c-1.894 0-3.423-.741-3.701-2.56Z"/><defs><linearGradient id="a" x1="-14" x2="14" y1="14" y2="42" gradientUnits="userSpaceOnUse"><stop stop-color="#B1B6BD"/><stop offset="1" stop-color="#99A2AD"/></linearGradient></defs></svg>
