<svg fill="none" height="28" viewBox="0 0 28 28" width="28" xmlns="http://www.w3.org/2000/svg"><path clip-rule="evenodd" d="m9.50072 6.20343c1.32278-.76518 2.85828-1.20343 4.49928-1.20343 4.6325 0 8.4476 3.50005 8.9451 8h-1.7865c-.4539 0-.7176.512-.4533.88l2.7914 3.8877c.2224.3097.6842.3097.9066 0l2.7914-3.8877c.2643-.368.0006-.88-.4533-.88h-1.7862c-.5053-5.6065-5.2172-10-10.9552-10-2.0019 0-3.8818.53569-5.50073 1.47222-.47806.27654-.64143.88827-.36488 1.36633.27654.47806.88827.64142 1.36633.36488zm-6.45588 8.79657h-1.7863c-.453846 0-.717566-.512-.453297-.88l2.791447-3.8877c.22242-.30974.68417-.30974.90659 0l2.79144 3.8877c.26427.368.00055.88-.45329.88h-1.78651c.49745 4.5 4.31252 8 8.94508 8 1.6574 0 3.2074-.4471 4.5392-1.2267.4766-.279 1.0892-.1187 1.3682.3579s.1188 1.0892-.3579 1.3682c-1.6299.9541-3.5274 1.5006-5.5495 1.5006-5.73805 0-10.44993-4.3935-10.95516-10z" fill="currentColor" fill-rule="evenodd"/></svg>
