<svg xmlns="http://www.w3.org/2000/svg" width="28" height="28" fill="currentColor" viewBox="0 0 28 28"><path fill-rule="evenodd" d="M9.692 4c-2.448 0-3.527.216-4.623.801A5.466 5.466 0 0 0 2.801 7.07C2.216 8.165 2 9.244 2 11.692v4.616c0 2.448.216 3.527.801 4.622A5.465 5.465 0 0 0 5.07 23.2c1.096.585 2.175.801 4.623.801h8.616c2.448 0 3.527-.216 4.622-.801a5.465 5.465 0 0 0 2.269-2.27c.585-1.095.801-2.174.801-4.622v-4.616c0-2.448-.216-3.527-.801-4.623a5.465 5.465 0 0 0-2.269-2.268C21.835 4.216 20.756 4 18.308 4H9.692Zm-3.68 2.565C6.674 6.212 7.358 6 9.693 6H13v4H4.055c.084-1.049.262-1.524.51-1.987a3.466 3.466 0 0 1 1.448-1.448ZM13 12H4v4h9v-4Zm2 4v-4h9v4h-9Zm-2 2H4.055c.084 1.049.262 1.524.51 1.987a3.466 3.466 0 0 0 1.448 1.448c.66.353 1.344.565 3.679.565H13v-4Zm2 4v-4h8.945c-.084 1.049-.262 1.524-.51 1.987a3.467 3.467 0 0 1-1.448 1.448c-.66.353-1.344.565-3.679.565H15Zm0-12V6h3.308c2.335 0 3.019.212 3.68.565a3.466 3.466 0 0 1 1.447 1.448c.248.463.426.938.51 1.987H15Z" clip-rule="evenodd"/></svg>
