<svg xmlns="http://www.w3.org/2000/svg" width="28" height="28" fill="currentColor" viewBox="0 0 28 28"><path d="M10 12a2 2 0 1 0 0-4 2 2 0 0 0 0 4Z"/><path fill-rule="evenodd" d="M5.821 17.861c-1.04-1.04-1.562-1.561-1.934-2.168a6.02 6.02 0 0 1-.72-1.74C3 13.26 3 12.523 3 11.05v-.828c0-2.529 0-3.793.492-4.758a4.514 4.514 0 0 1 1.973-1.973C6.43 3 7.695 3 10.223 3h.826c1.473 0 2.209 0 2.902.166a6.044 6.044 0 0 1 1.74.721c.607.372 1.128.893 2.169 1.934l3.543 3.545c1.987 1.986 2.98 2.98 3.352 4.125a5.015 5.015 0 0 1 0 3.1c-.373 1.145-1.366 2.138-3.353 4.124l-.689.689c-1.986 1.986-2.98 2.979-4.124 3.35a5.017 5.017 0 0 1-3.1 0c-1.145-.372-2.138-1.364-4.125-3.35L5.821 17.86ZM16.445 7.235l3.544 3.545c1.017 1.016 1.693 1.695 2.17 2.258.463.545.622.849.694 1.07a3.016 3.016 0 0 1 0 1.864c-.073.222-.231.526-.694 1.07-.478.564-1.154 1.242-2.17 2.258l-.69.69c-1.016 1.016-1.695 1.692-2.258 2.17-.545.462-.849.62-1.07.692a3.016 3.016 0 0 1-1.864 0c-.222-.072-.526-.23-1.07-.692-.564-.478-1.242-1.154-2.259-2.17l-3.543-3.543c-1.108-1.108-1.423-1.441-1.643-1.8a4.018 4.018 0 0 1-.48-1.161c-.1-.41-.112-.867-.112-2.435v-.828c0-1.297.002-2.15.055-2.802.051-.63.14-.894.219-1.048a2.514 2.514 0 0 1 1.099-1.099c.154-.078.419-.168 1.048-.22C8.073 5.003 8.926 5 10.223 5h.826c1.568 0 2.026.013 2.435.111.41.099.802.261 1.162.481.358.22.691.535 1.8 1.643Z" clip-rule="evenodd"/></svg>
