<?xml version="1.0" encoding="UTF-8"?>
<svg width="28px" height="28px" viewBox="0 0 28 28" version="1.1" xmlns="http://www.w3.org/2000/svg" xmlns:xlink="http://www.w3.org/1999/xlink">
    <!-- Generator: Sketch 63.1 (92452) - https://sketch.com -->
    <title>tag_outline_28</title>
    <desc>Created with Sketch.</desc>
    <g id="Page-1" stroke="none" stroke-width="1" fill="none" fill-rule="evenodd">
        <g id="tag_outline_28">
            <rect x="0" y="0" width="28" height="28"></rect>
            <path d="M23.3533879,19.0099555 L18.6919953,23.6108759 C16.800943,25.4773956 13.7608773,25.4773956 11.8698251,23.6108759 L4.95452734,16.7852903 C3.70394793,15.5509346 2.99999973,13.8670221 2.99999973,12.1098702 L2.99999973,7.85580846 C2.99999973,5.1740195 5.17401923,3 7.85580819,3 L12.263375,3 C13.9908027,3 15.6487164,3.68039829 16.8781409,4.89387345 L23.3533879,11.2851172 C25.4865431,13.390599 25.5089768,16.8266932 23.403495,18.9598484 C23.3785505,18.985011 23.3785505,18.985011 23.3533879,19.0099555 Z M21.9484375,17.5865391 L21.9800786,17.554898 C23.3096277,16.2078739 23.2954615,14.0380827 21.9484375,12.7085336 L15.4731904,6.31728985 C14.6180603,5.47325325 13.4648929,5 12.263375,5 L7.85580819,5 C6.27858873,5 4.99999973,6.278589 4.99999973,7.85580846 L4.99999973,12.1098702 C4.99999973,13.3320629 5.48963319,14.5033138 6.35947778,15.3618739 L13.2747755,22.1874595 C14.3869452,23.2852011 16.1748752,23.2852011 17.2870449,22.1874595 L21.9484375,17.5865391 Z M9.99999973,12 C8.89543023,12 7.99999973,11.1045695 7.99999973,10 C7.99999973,8.8954305 8.89543023,8 9.99999973,8 C11.1045692,8 11.9999997,8.8954305 11.9999997,10 C11.9999997,11.1045695 11.1045692,12 9.99999973,12 Z" id="↳-Icon-Color" fill="currentColor" fill-rule="nonzero"></path>
        </g>
    </g>
</svg>
