<svg height="28" viewBox="0 0 28 28" width="28" xmlns="http://www.w3.org/2000/svg"><g fill="none" fill-rule="evenodd" transform=""><path d="m0 0h28v28h-28z"/><path d="m14 2c.5522847 0 1 .44771525 1 1l.0010997 1.04948449c4.7238661.46953909 8.4804393 4.22641213 8.949515 8.95041461l1.0493853.0001009c.5522847 0 1 .4477153 1 1s-.4477153 1-1 1l-1.0494845.0010997c-.469506 4.7235332-4.2258826 8.4799098-8.9494158 8.9494158l-.0010997 1.0494845c0 .5522847-.4477153 1-1 1s-1-.4477153-1-1l-.0001009-1.0493853c-4.72400248-.4690757-8.48087552-4.2256489-8.95041461-8.949515l-1.04948449-.0010997c-.55228475 0-1-.4477153-1-1s.44771525-1 1-1l1.04938526-.0001009c.46910878-4.72433542 4.22617842-8.48140506 8.95051384-8.95051384l.0001009-1.04938526c0-.55228475.4477153-1 1-1zm1.0009551 4.06201291-.0009551.93798709c0 .55228475-.4477153 1-1 1s-1-.44771525-1-1l.0000487-.93811232c-3.61875653.45123002-6.486931 3.31940449-6.93816102 6.93816102l.93811232-.0000487c.55228475 0 1 .4477153 1 1s-.44771525 1-1 1l-.93798709.0009551c.4516352 3.6182831 3.31961386 6.4859689 6.93803579 6.9371572l-.0000487-.9381123c0-.5522847.4477153-1 1-1s1 .4477153 1 1l.0009551.9379871c3.6179485-.4515934 6.4854386-3.3190835 6.937032-6.937032l-.9379871-.0009551c-.5522847 0-1-.4477153-1-1s.4477153-1 1-1l.9381123.0000487c-.4511883-3.61842193-3.3188741-6.48640059-6.9371572-6.93803579zm-1.0009551 5.93798709c1.1045695 0 2 .8954305 2 2s-.8954305 2-2 2-2-.8954305-2-2 .8954305-2 2-2z" fill="currentColor" fill-rule="nonzero"/></g></svg>
