<svg xmlns="http://www.w3.org/2000/svg" width="28" height="28" fill="none" viewBox="0 0 28 28"><rect width="28" height="28" fill="url(#a)" rx="14"/><path fill="#fff" fill-rule="evenodd" d="M11.227 7c-1.517 0-2.077.132-2.634.43A2.795 2.795 0 0 0 7.43 8.593C7.132 9.15 7 9.71 7 11.227v5.546c0 1.517.132 2.077.43 2.634.268.501.662.895 1.163 1.163.557.298 1.117.43 2.634.43h.023v-2.25a.75.75 0 0 1 1.5 0V21h2.5v-2.25a.75.75 0 0 1 1.5 0V21h.023c1.517 0 2.077-.132 2.634-.43a2.795 2.795 0 0 0 1.163-1.163c.298-.557.43-1.117.43-2.634v-5.546c0-1.517-.132-2.077-.43-2.634a2.795 2.795 0 0 0-1.163-1.163C18.85 7.132 18.29 7 16.773 7h-5.546ZM10 14.25a.75.75 0 0 1 .75-.75h5.533a.75.75 0 1 1 0 1.5H10.75a.75.75 0 0 1-.75-.75Zm.75-4a.75.75 0 1 0 0 1.5h6.5a.75.75 0 0 0 0-1.5h-6.5Z" clip-rule="evenodd"/><defs><linearGradient id="a" x1="-14" x2="14" y1="14" y2="42" gradientUnits="userSpaceOnUse"><stop stop-color="#70B2FF"/><stop offset="1" stop-color="#5C9CE6"/></linearGradient></defs></svg>
