<svg fill="none" height="28" viewBox="0 0 28 28" width="28" xmlns="http://www.w3.org/2000/svg"><g fill="currentColor"><path d="m8.5 9c-.55228 0-1 .44772-1 1 0 .5523.44772 1 1 1h11c.5523 0 1-.4477 1-1 0-.55228-.4477-1-1-1z"/><path d="m7.5 15c0-.5523.44772-1 1-1h11c.5523 0 1 .4477 1 1s-.4477 1-1 1h-11c-.55228 0-1-.4477-1-1z"/><path clip-rule="evenodd" d="m15.9945 3h-3.989c-1.386-.00001-2.48829-.00001-3.37711.0738-.91028.07559-1.68586.23375-2.39424.60172-1.09585.56925-1.98938 1.46278-2.55863 2.55863-.36797.70838-.52613 1.48396-.60172 2.39424-.07381.88882-.07381 1.99111-.0738 3.37711v3.989c-.00001 1.386-.00001 2.4883.0738 3.3771.07559.9103.23375 1.6859.60172 2.3942.56925 1.0959 1.46278 1.9894 2.55863 2.5587.70838.368 1.48396.5261 2.39424.6017.88881.0738 1.99111.0738 3.37701.0738h3.9891c1.386 0 2.4883 0 3.3771-.0738.9103-.0756 1.6859-.2337 2.3942-.6017 1.0959-.5693 1.9894-1.4628 2.5587-2.5587.368-.7083.5261-1.4839.6017-2.3942.0738-.8888.0738-1.9911.0738-3.377v-3.9891c0-1.386 0-2.4883-.0738-3.37711-.0756-.91028-.2337-1.68586-.6017-2.39424-.5693-1.09585-1.4628-1.98938-2.5587-2.55863-.7083-.36797-1.4839-.52613-2.3942-.60172-.8888-.07381-1.9911-.07381-3.3771-.0738zm-8.8384 2.45035c.37532-.19496.85345-.31827 1.63781-.38341.79634-.06614 1.81559-.06694 3.25609-.06694h3.9c1.4405 0 2.4597.0008 3.2561.06694.7844.06514 1.2625.18845 1.6378.38341.7306.3795 1.3263.97518 1.7058 1.70575.1949.37532.3182.85345.3834 1.63781.0661.79634.0669 1.81559.0669 3.25609v3.9c0 1.4405-.0008 2.4597-.0669 3.2561-.0652.7844-.1885 1.2625-.3834 1.6378-.3795.7306-.9752 1.3263-1.7058 1.7058-.3753.1949-.8534.3182-1.6378.3834-.3526.0292-.7489.0457-1.2061.055v-2.9881c0-.5523-.4477-1-1-1s-1 .4477-1 1v3c-.0166 0-.0333 0-.05 0h-3.9c-.0167 0-.0334 0-.05 0v-3c0-.5523-.4477-1-1-1s-1 .4477-1 1v2.9881c-.4572-.0093-.85349-.0258-1.20609-.055-.78436-.0652-1.26249-.1885-1.63781-.3834-.73057-.3795-1.32625-.9752-1.70575-1.7058-.19496-.3753-.31827-.8534-.38341-1.6378-.06614-.7964-.06694-1.8156-.06694-3.2561v-3.9c0-1.4405.0008-2.45975.06694-3.25609.06514-.78436.18845-1.26249.38341-1.63781.3795-.73057.97518-1.32625 1.70575-1.70575z" fill-rule="evenodd"/></g></svg>
