<svg fill="none" height="28" width="28" xmlns="http://www.w3.org/2000/svg"><linearGradient id="a" gradientUnits="userSpaceOnUse" x1="-14" x2="14" y1="14" y2="42"><stop offset="0" stop-color="#70b2ff"/><stop offset="1" stop-color="#5c9ce6"/></linearGradient><path d="M0 14C0 6.268 6.268 0 14 0s14 6.268 14 14-6.268 14-14 14S0 21.732 0 14z" fill="url(#a)"/><g clip-rule="evenodd" fill="#fff" fill-rule="evenodd"><path d="M11.227 7c-1.517 0-2.077.132-2.634.43A2.795 2.795 0 007.43 8.593C7.132 9.15 7 9.71 7 11.227v5.546c0 1.517.132 2.077.43 2.634.268.501.662.895 1.163 1.163.557.298 1.117.43 2.634.43h.023v-2.25a.75.75 0 011.5 0V21h2.5v-2.25a.75.75 0 011.5 0V21h.023c1.517 0 2.077-.132 2.634-.43a2.795 2.795 0 001.163-1.163c.298-.557.43-1.117.43-2.634v-5.546c0-1.517-.132-2.077-.43-2.634a2.795 2.795 0 00-1.163-1.163C18.85 7.132 18.29 7 16.773 7zM10 14.25a.75.75 0 01.75-.75h5.533a.75.75 0 110 1.5H10.75a.75.75 0 01-.75-.75zm.75-4a.75.75 0 100 1.5h6.5a.75.75 0 000-1.5z"/><path d="M11.227 7c-1.517 0-2.077.132-2.634.43A2.795 2.795 0 007.43 8.593C7.132 9.15 7 9.71 7 11.227v5.546c0 1.517.132 2.077.43 2.634.268.501.662.895 1.163 1.163.557.298 1.117.43 2.634.43h.023v-2.25a.75.75 0 011.5 0V21h2.5v-2.25a.75.75 0 011.5 0V21h.023c1.517 0 2.077-.132 2.634-.43a2.795 2.795 0 001.163-1.163c.298-.557.43-1.117.43-2.634v-5.546c0-1.517-.132-2.077-.43-2.634a2.795 2.795 0 00-1.163-1.163C18.85 7.132 18.29 7 16.773 7zM10 14.25a.75.75 0 01.75-.75h5.533a.75.75 0 110 1.5H10.75a.75.75 0 01-.75-.75zm.75-4a.75.75 0 100 1.5h6.5a.75.75 0 000-1.5z"/></g></svg>
