<svg xmlns="http://www.w3.org/2000/svg" width="28" height="28" fill="currentColor" viewBox="0 0 28 28"><path fill-rule="evenodd" d="m8.416 13.986-3.421 9.29c-.122.337-.16.546-.16.713 0 .566.46 1.011 1.182 1.011.318 0 .541-.073.713-.21.176-.14.326-.366.452-.725l2.081-5.887h9.442l2.097 5.886c.126.36.276.587.453.726.171.137.395.21.712.21.722 0 1.183-.445 1.183-1.011 0-.167-.038-.376-.16-.713l-3.427-9.29H23c.552 0 1-.449 1-1.003 0-.555-.448-1.004-1-1.004h-4.177l-3.235-8.768c-.164-.443-.371-.74-.619-.928-.244-.187-.55-.283-.945-.283-.429 0-.755.101-1.011.292-.258.192-.47.494-.633.935l-3.224 8.752H5c-.552 0-1 .45-1 1.004s.448 1.003 1 1.003h3.416Zm2.313 0-.814 2.25h8.155l-.811-2.25h-6.53Zm5.805-2.007-2.498-6.926h-.072l-2.508 6.926h5.078Z" clip-rule="evenodd"/></svg>
