<svg xmlns="http://www.w3.org/2000/svg" width="28" height="28" fill="currentColor" viewBox="0 0 28 28"><path d="M15.2 14.634h-2.444l1.187-3.752h.044l1.213 3.752Z"/><path fill-rule="evenodd" d="M10.692 3c-2.448 0-3.527.216-4.623.801A5.466 5.466 0 0 0 3.801 6.07C3.216 7.165 3 8.244 3 10.692v6.616c0 2.448.216 3.527.801 4.622A5.465 5.465 0 0 0 6.07 24.2c1.096.585 2.175.801 4.623.801h6.616c2.448 0 3.527-.216 4.622-.801a5.465 5.465 0 0 0 2.269-2.27c.585-1.095.801-2.174.801-4.622v-6.616c0-2.448-.216-3.527-.801-4.623a5.465 5.465 0 0 0-2.269-2.268C20.835 3.216 19.756 3 17.308 3h-6.616Zm-.78 14.51c0 .551.375.9.971.9.508 0 .794-.253.972-.863l.482-1.428h3.307l.482 1.447c.172.597.457.845.997.845.559 0 .958-.375.958-.902 0-.19-.031-.361-.12-.61l-2.514-6.817c-.273-.748-.717-1.079-1.466-1.079-.724 0-1.174.343-1.441 1.086l-2.5 6.81a1.973 1.973 0 0 0-.128.61Z" clip-rule="evenodd"/></svg>
