<svg fill="none" height="28" viewBox="0 0 28 28" width="28" xmlns="http://www.w3.org/2000/svg"><g fill="currentColor"><path d="m6.23535 6.20833c.3912-.38985.39229-1.02302.00244-1.41422-.38985-.39119-1.02302-.39229-1.41421-.00244-2.36081 2.35268-3.82358 5.61063-3.82358 9.20833s1.46277 6.8556 3.82358 9.2083c.39119.3899 1.02436.3888 1.41421-.0024s.38876-1.0244-.00244-1.4142c-1.99966-1.9928-3.23535-4.747-3.23535-7.7917s1.23569-5.7989 3.23535-7.79167z"/><path d="m23.1764 4.79167c-.3912-.38985-1.0243-.38875-1.4142.00244-.3898.3912-.3887 1.02437.0025 1.41422 1.9996 1.99277 3.2353 4.74697 3.2353 7.79167s-1.2357 5.7989-3.2353 7.7917c-.3912.3898-.3923 1.023-.0025 1.4142.3899.3912 1.023.3923 1.4142.0024 2.3608-2.3527 3.8236-5.6106 3.8236-9.2083s-1.4628-6.85565-3.8236-9.20833z"/><path d="m9.62547 8.53486c.43093-.34544.50023-.9748.15478-1.40572-.34544-.43092-.9748-.50021-1.40572-.15477-2.0555 1.64775-3.37453 4.18303-3.37453 7.02563s1.31903 5.3779 3.37453 7.0256c.43092.3454 1.06028.2761 1.40572-.1548.34545-.4309.27615-1.0603-.15478-1.4057-1.60235-1.2845-2.62547-3.255-2.62547-5.4651 0-2.2102 1.02312-4.18065 2.62547-5.46514z"/><path d="m19.6255 6.97437c-.4309-.34544-1.0603-.27615-1.4057.15477-.3455.43092-.2762 1.06028.1547 1.40572 1.6024 1.28449 2.6255 3.25494 2.6255 5.46514 0 2.2101-1.0231 4.1806-2.6255 5.4651-.4309.3454-.5002.9748-.1547 1.4057.3454.4309.9748.5002 1.4057.1548 2.0555-1.6477 3.3745-4.183 3.3745-7.0256s-1.319-5.37788-3.3745-7.02563z"/><path d="m13 12v6c0 .5523.4477 1 1 1s1-.4477 1-1v-6h2c.5523 0 1-.4477 1-1s-.4477-1-1-1h-6c-.5523 0-1 .4477-1 1s.4477 1 1 1z"/></g></svg>
