<svg xmlns="http://www.w3.org/2000/svg" width="28" height="28" fill="currentColor" viewBox="0 0 28 28"><path fill-rule="evenodd" d="M6.07 3.801C7.164 3.216 8.243 3 10.691 3h6.616c2.448 0 3.527.216 4.622.801A5.465 5.465 0 0 1 24.2 6.07c.585 1.096.801 2.175.801 4.623v6.616c0 2.448-.216 3.527-.801 4.622a5.465 5.465 0 0 1-2.27 2.269c-1.095.585-2.174.801-4.622.801h-6.616c-2.448 0-3.527-.216-4.623-.801a5.465 5.465 0 0 1-2.268-2.269C3.216 20.835 3 19.756 3 17.308v-6.616c0-2.448.216-3.527.801-4.623A5.466 5.466 0 0 1 6.07 3.801Z" clip-rule="evenodd" opacity=".4"/><path d="M10.883 18.41c-.596 0-.97-.349-.97-.9 0-.16.044-.375.126-.61l2.501-6.811c.267-.743.717-1.086 1.441-1.086.749 0 1.193.33 1.466 1.08l2.514 6.817c.089.248.12.419.12.61 0 .526-.4.9-.958.9-.54 0-.825-.247-.997-.844l-.482-1.447h-3.307l-.482 1.428c-.178.61-.464.864-.972.864Zm1.873-3.776H15.2l-1.213-3.752h-.044l-1.187 3.752Z"/></svg>
