<svg fill="none" height="28" viewBox="0 0 28 28" width="28" xmlns="http://www.w3.org/2000/svg" xmlns:xlink="http://www.w3.org/1999/xlink"><linearGradient id="a" gradientUnits="userSpaceOnUse" x1="-14" x2="14" y1="14" y2="42"><stop offset="0" stop-color="#50c750"/><stop offset="1" stop-color="#32b332"/></linearGradient><path d="m0 14c0-7.73199 6.26801-14 14-14 7.732 0 14 6.26801 14 14 0 7.732-6.268 14-14 14-7.73199 0-14-6.268-14-14z" fill="url(#a)"/><path clip-rule="evenodd" d="m8 9c0-.55228.44772-1 1-1h10c.5523 0 1 .44772 1 1s-.4477 1-1 1h-4v10c0 .5523-.4477 1-1 1s-1-.4477-1-1v-10h-4c-.55228 0-1-.44772-1-1z" fill="#fff" fill-rule="evenodd"/></svg>
