<svg xmlns="http://www.w3.org/2000/svg" width="28" height="28" fill="none" viewBox="0 0 28 28"><path fill="currentColor" d="M13.7169 20.9696c.7177 0 1.2344-.4966 1.2344-1.2061 0-.2331-.0479-.4662-.1627-.8007l-4.0188-11.554C10.4253 6.4257 9.8703 6 8.9613 6c-.8995 0-1.4545.446-1.7894 1.419L3.1627 18.9627c-.1149.3142-.1627.598-.1627.8007 0 .7399.488 1.2061 1.244 1.2061.641 0 1.0046-.3345 1.2343-1.125l.909-2.777h5.1575l.909 2.7973c.2201.7804.5933 1.1047 1.2631 1.1047ZM10.942 15H6.971l1.9424-6.2432h.067L10.942 15Zm12.9002 6C24.512 21 25 20.5439 25 19.7331v-6.3345c0-2.1587-1.6362-3.5675-4.1528-3.5675-1.9424 0-3.5117.7905-4.0284 2.0371-.1053.2332-.1627.4561-.1627.6892 0 .6081.421 1.0135 1.0047 1.0135.4019 0 .7177-.1621.9665-.5067.5932-.9223 1.1961-1.2568 2.1242-1.2568 1.177 0 1.8946.6487 1.8946 1.7737v.7703l-2.6888.1621c-2.4687.1622-3.8562 1.3074-3.8562 3.2129 0 1.9358 1.4258 3.2432 3.3873 3.2432 1.311 0 2.5836-.7196 3.1673-1.8851h.0478v.75c.0383.75.488 1.1655 1.1387 1.1655Zm-3.6265-1.9358c-1.0335 0-1.732-.5574-1.732-1.4392 0-.8514.6603-1.3986 1.8085-1.4797l2.3539-.1521v.821c0 1.2973-1.0908 2.25-2.4304 2.25Z"/></svg>
