<svg xmlns="http://www.w3.org/2000/svg" width="28" height="28" fill="none" viewBox="0 0 28 28"><path fill="url(#a)" d="M0 14C0 6.268 6.268 0 14 0s14 6.268 14 14-6.268 14-14 14S0 21.732 0 14Z"/><path fill="#fff" d="M18.4195 18.9695c.9964 0 2.0897-.5103 2.5359-1.3785H21v.4189c.0446.655.3567.9901.9441.9901C22.5613 19 23 18.6192 23 17.8804v-4.6537c0-1.6452-1.331-2.7267-3.3759-2.7267-1.6508 0-2.9297.6017-3.3015 1.5766-.0744.1676-.1116.3275-.1116.5027 0 .5027.3793.853.9072.853.3495 0 .6246-.137.8626-.4112.4833-.6398.8848-1.0211 1.5466-1.0211.818 0 1.4726.6022 1.4726 1.3638v.5408l-2.1418.1218c-1.9928.1219-3.1082.9884-3.1082 2.4736 0 1.47 1.1526 2.4695 2.6695 2.4695Zm.7138-1.607c-.7287 0-1.1525-.3809-1.1525-.9902 0-.5788.3941-.952 1.2046-1.013L21 15.2527v.5941c0 .8835-.9149 1.5157-1.8667 1.5157Z"/><path fill="#fff" fill-rule="evenodd" d="M6.1888 19c.6216 0 .9713-.2969 1.1888-1.0094l.5905-1.6701L8.0628 16h3.8531l.1004.3205.5905 1.6923c.2098.6977.5595.9872 1.2199.9872C14.5105 19 15 18.5621 15 17.946c0-.2227-.0389-.4231-.1476-.7125l-3.077-7.9717C11.4413 8.386 10.8974 8 9.9806 8c-.8858 0-1.4375.4008-1.7638 1.2692l-3.0614 7.9643c-.101.2746-.1554.527-.1554.7125C5 18.5918 5.4584 19 6.1888 19Zm3.7451-8.803h.0544l1.4558 4.303H8.5087l1.4253-4.303Z" clip-rule="evenodd"/><defs><linearGradient id="a" x1="-14" x2="14" y1="14" y2="42" gradientUnits="userSpaceOnUse"><stop stop-color="#B1B6BD"/><stop offset="1" stop-color="#99A2AD"/></linearGradient></defs></svg>
