<svg xmlns="http://www.w3.org/2000/svg" width="28" height="28" fill="none" viewBox="0 0 28 28"><path fill="currentColor" fill-rule="evenodd" d="m19.1999 16.026-1.1536.9232a.5153.5153 0 0 0-.1817.2941l-1.3149 6.1366c-.4289 2.0015-2.5516 3.1388-4.4547 2.3868A3.3128 3.3128 0 0 1 10 22.6855v-3.6791h-.5c-2.1828 0-4.0864-.6165-5.447-1.94C2.6873 15.7383 2 13.8264 2 11.5036v-1.0004c0-2.3228.6874-4.2348 2.053-5.5628 1.3606-1.3235 3.2642-1.94 5.447-1.94h9.682a2.8496 2.8496 0 0 1 1.1054-.7948c.3049-.1226.6109-.1667.9115-.1867.2846-.019.6273-.019 1.0204-.0189h.0613c.3931 0 .7359 0 1.0205.0189.3006.02.6066.0641.9115.1867a2.8505 2.8505 0 0 1 1.5819 1.5824c.1225.305.1667.6112.1866.912C26 4.9845 26 5.3274 26 5.7206v7.5642c0 .3932 0 .7362-.0189 1.0208-.0199.3008-.0641.6069-.1866.9119A2.8508 2.8508 0 0 1 24.2126 16.8c-.3049.1225-.6109.1667-.9115.1867-.2846.0189-.6274.0189-1.0205.0189h-.0612c-.3931 0-.7359 0-1.0205-.0189-.3006-.02-.6066-.0642-.9115-.1867a2.8496 2.8496 0 0 1-1.0875-.7741Zm-4.6058 6.9345c-.1699.7927-1.0106 1.2432-1.7643.9453A1.312 1.312 0 0 1 12 22.6855v-4.6794c0-.5525-.4477-1.0004-1-1.0004H9.5c-1.8172 0-3.1636-.5089-4.053-1.3738C4.5627 14.7716 4 13.4324 4 11.5036v-1.0004c0-1.9288.5626-3.268 1.447-4.1283.8894-.865 2.2358-1.3738 4.053-1.3738h9.0056c-.0056.2158-.0056.4565-.0056.7197v7.5641c0 .2691 0 .5147.006.7342l-1.709 1.3677a2.516 2.516 0 0 0-.888 1.4372l-1.3149 6.1365Zm8.8728-8.0169c-.0271.0109-.0967.0334-.2983.0468-.2103.014-.486.0145-.9186.0145s-.7083-.0005-.9186-.0145c-.2017-.0134-.2713-.0359-.2983-.0468a.8501.8501 0 0 1-.4718-.472c-.0109-.027-.0334-.0967-.0468-.2984-.014-.2104-.0145-.4862-.0145-.9189V5.7514c0-.4327.0005-.7085.0145-.919.0134-.2017.0359-.2713.0468-.2984a.8502.8502 0 0 1 .4718-.472c.027-.0108.0966-.0334.2983-.0468.2103-.014.486-.0144.9186-.0144s.7083.0005.9186.0144c.2016.0134.2712.036.2983.0469a.8502.8502 0 0 1 .4718.472c.0109.027.0334.0966.0468.2984.014.2104.0145.4862.0145.919v7.5028c0 .4327-.0005.7085-.0145.9189-.0134.2017-.0359.2714-.0468.2984a.8501.8501 0 0 1-.4718.472Z" clip-rule="evenodd"/></svg>
