<svg fill="none" height="28" viewBox="0 0 28 28" width="28" xmlns="http://www.w3.org/2000/svg"><path clip-rule="evenodd" d="m14.4934 5.00085h-.9012c-4.03782 0-8.64005 3.83941-8.64005 9.05495v6.7422c0 .5522-.44772 1-1 1-.55229 0-1-.4478-1-1v-6.7422c0-6.07515 5.15122-11.05495 10.64005-11.05495.3705 0 .7371.01836 1.0988.05427.5496.05457.9508.54433.8963 1.09391-.0546.54958-.5478.88832-1.0939.85182zm3.48.91348c-.5061-.22112-.7371-.81064-.516-1.31672.2211-.50609.8169-.751 1.3167-.51599 3.4566 1.62542 6.2761 5.39494 6.223 9.94078v1.9723c0 .5523-.4477 1-1 1-.5522 0-1-.4477-1-1v-1.9723c-.017-3.476-2.1218-6.78463-5.0237-8.10807zm5.0238 14.10687c0-.5523.4477-1 1-1 .5522 0 1 .4477 1 1v1.9844c0 .5523-.4478 1-1 1-.5523 0-1-.4477-1-1zm-8.9972-11.02122c-2.7614 0-5 2.48862-5 5.25002 0 .5523-.44772 1-1 1-.55229 0-.99206-.4478-1-1-.06197-4.30716 3.2663-7.25002 7-7.25002.6027 0 1.1891.07641 1.7493.22059.5348.13766.8568.68284.7191 1.21769-.1376.53486-.6828.85684-1.2177.71918-.3986-.10261-.8175-.15746-1.2507-.15746zm4.069.54187c.4116-.36832 1.0438-.3333 1.4121.07823 1.1229 1.25462 1.5189 2.82602 1.5189 4.62992v6.5c0 .5523-.4477 1-1 1s-1-.4477-1-1v-6.5c0-1.2812-.2169-2.4108-1.0092-3.2961-.3683-.4115-.3333-1.04372.0782-1.41205zm-10.069 7.66955c.55228 0 1 .4478 1 1v3.9688c0 .5523-.44772 1-1 1-.55229 0-1-.4477-1-1v-3.9688c0-.5522.44771-1 1-1zm6-4.2036c-.5523 0-1 .4477-1 1v8.9844c0 .5523-.4477 1-1 1s-1-.4477-1-1v-8.9844c0-1.6568 1.3431-3 3-3s3 1.3432 3 3v1.9844c0 .5522-.4477 1-1 1s-1-.4478-1-1v-1.9844c0-.5523-.4477-1-1-1zm2 6.0078c.5523 0 1 .4477 1 1v3.9609c0 .5523-.4477 1-1 1s-1-.4477-1-1v-3.9609c0-.5523.4477-1 1-1z" fill="currentColor" fill-rule="evenodd"/>
</svg>