<svg fill="none" height="28" viewBox="0 0 28 28" width="28" xmlns="http://www.w3.org/2000/svg"><path clip-rule="evenodd" d="m13 2h-.0438c-1.363-.00001-2.447-.00001-3.32162.07144-.8956.07318-1.65927.22624-2.35852.58252-1.12897.57524-2.04686 1.49312-2.6221 2.6221-.35628.69924-.50934 1.46292-.58252 2.35852-.07145.87458-.07145 1.9586-.07144 3.32162v.0438 5.6.0428c-.00001 1.0838-.00002 1.958.05782 2.6658.05955.7289.18536 1.3691.48715 1.9614.47937.9408 1.24427 1.7057 2.18508 2.185.14222.0725.2872.1348.4355.1885l-.59404 1.4851c-.20511.5128.04431 1.0948.55709 1.2999s1.09475-.0443 1.29987-.5571l.74855-1.8714h2.06018.1199.0001.0428 5.2.0428.0001.1199 2.0602l.7485 1.8714c.2051.5128.7871.7622 1.2999.5571s.7622-.7871.5571-1.2999l-.5941-1.4851c.1483-.0537.2933-.116.4356-.1885.9408-.4793 1.7057-1.2442 2.185-2.185.3018-.5923.4276-1.2325.4872-1.9614.0578-.7078.0578-1.582.0578-2.6658v-.0428-5.6-.0438-.0001c0-1.36297 0-2.44696-.0714-3.32152-.0732-.8956-.2263-1.65928-.5826-2.35852-.5752-1.12898-1.4931-2.04686-2.6221-2.6221-.6992-.35628-1.4629-.50934-2.3585-.58252-.8746-.07145-1.9586-.07145-3.3216-.07144h-.0438zm3.6793 20c1.0943-.0001 1.8641-.002 2.4665-.0512.6051-.0494.9528-.1416 1.2162-.2758.5645-.2876 1.0234-.7465 1.311-1.311.1342-.2634.2264-.6111.2758-1.2162.0504-.6169.0512-1.4092.0512-2.5458v-.6h-16v.6c0 1.1366.00078 1.9289.05118 2.5458.04944.6051.14162.9528.2758 1.2162.28762.5645.74656 1.0234 1.31105 1.311.26336.1342.61104.2264 1.21621.2758.6024.0492 1.37216.0511 2.46646.0512h.0793 5.2zm-10.6793-8h16v-3c0-1.41663-.0008-2.41896-.0648-3.20256-.0631-.77192-.1825-1.24309-.3712-1.6134-.3835-.75265-.9954-1.36457-1.748-1.74807-.3703-.18868-.8415-.3081-1.6134-.37117-.3511-.02868-.7461-.04467-1.2026-.05358-.0061 1.65168-1.3469 2.98875-3 2.98875s-2.9939-1.33707-3-2.98875c-.4565.00891-.8515.0249-1.20256.05358-.77192.06307-1.24309.18249-1.6134.37117-.75265.3835-1.36457.99542-1.74806 1.74807-.18869.37031-.30811.84148-.37118 1.6134-.06402.7836-.0648 1.78593-.0648 3.20256zm7-10c0 .55227.4477.99997 1 .99997s1-.4477 1-.99997zm-4 14c-.55229 0-1 .4477-1 1s.44771 1 1 1h1c.5523 0 1-.4477 1-1s-.4477-1-1-1zm8 1c0-.5523.4477-1 1-1h1c.5523 0 1 .4477 1 1s-.4477 1-1 1h-1c-.5523 0-1-.4477-1-1z" fill="currentColor" fill-rule="evenodd"/>
</svg>