<svg xmlns="http://www.w3.org/2000/svg" width="28" height="28" fill="none" viewBox="0 0 28 28"><rect width="28" height="28" fill="url(#a)" rx="14"/><path fill="#fff" d="M13.47 8v2.286c0 2.612 2.105 4.728 4.702 4.728h1.986c-.832 1.797-3.026 3.515-5.655 3.515a6.746 6.746 0 0 1-1.703-.216 12.07 12.07 0 0 1-1.896 1.34 7.9 7.9 0 0 1-.401.21l-.159.078a.604.604 0 0 1-.802-.275.584.584 0 0 1-.017-.477 8.66 8.66 0 0 0 .225-.61c.176-.55.311-1.117.404-1.699-1.026-.95-1.654-2.236-1.654-3.65 0-2.63 2.132-4.813 4.97-5.229Z M14.87 8.318v1.968a3.31 3.31 0 0 0 3.302 3.32H20.5l-5.63-5.288Z"/><defs><linearGradient id="a" x1="-14" x2="14" y1="14" y2="42" gradientUnits="userSpaceOnUse"><stop stop-color="#70B2FF"/><stop offset="1" stop-color="#5C9CE6"/></linearGradient></defs></svg>
