<?xml version="1.0" encoding="UTF-8"?>
<svg width="28px" height="28px" viewBox="0 0 28 28" version="1.1" xmlns="http://www.w3.org/2000/svg" xmlns:xlink="http://www.w3.org/1999/xlink">
    <!-- Generator: Sketch 63.1 (92452) - https://sketch.com -->
    <title>upload_outline_28</title>
    <desc>Created with Sketch.</desc>
    <g id="Page-1" stroke="none" stroke-width="1" fill="none" fill-rule="evenodd">
        <g id="upload_outline_28">
            <polygon points="0 0 28 0 28 28 0 28"></polygon>
            <path d="M21,22 C21.5522847,22 22,22.4477152 22,23 C22,23.5522847 21.5522847,24 21,24 L7,24 C6.44771525,24 6,23.5522847 6,23 C6,22.4477152 6.44771525,22 7,22 L21,22 Z M14,3 L14.0193545,3.00018615 C14.042681,3.00063489 14.0659949,3.00189498 14.0892501,3.00396641 L14,3 C14.0506203,3 14.1003621,3.00376119 14.1489612,3.01101934 C14.165949,3.01362808 14.1833753,3.01670217 14.2007258,3.02024007 C14.2227461,3.0246398 14.2444365,3.02983363 14.2658396,3.03572097 C14.2814633,3.04009773 14.2968513,3.04472872 14.3121425,3.04973809 C14.3317977,3.05612249 14.3515792,3.06331574 14.3710585,3.07110396 C14.3887956,3.07819642 14.4060985,3.08567905 14.4232215,3.09367336 C14.4438914,3.10337664 14.4642939,3.11379392 14.484277,3.12487577 C14.4963944,3.13149883 14.5086131,3.13860692 14.5207088,3.14599545 C14.546275,3.1617187 14.5711307,3.17849009 14.5951593,3.19631351 C14.6343256,3.22531295 14.6717127,3.25749917 14.7071068,3.29289322 L14.6167501,3.21278596 C14.6196628,3.21507113 14.6225624,3.2173721 14.625449,3.21968877 L14.7071068,3.29289322 L21.7071068,10.2928932 C22.0976311,10.6834175 22.0976311,11.3165825 21.7071068,11.7071068 C21.3165825,12.0976311 20.6834175,12.0976311 20.2928932,11.7071068 L20.2928932,11.7071068 L15,6.414 L15,19 C15,19.5522847 14.5522847,20 14,20 C13.4477153,20 13,19.5522847 13,19 L13,6.414 L7.70710678,11.7071068 C7.34662282,12.0675907 6.77939176,12.0953203 6.38710056,11.7902954 L6.29289322,11.7071068 C5.90236893,11.3165825 5.90236893,10.6834175 6.29289322,10.2928932 L6.29289322,10.2928932 L13.2928932,3.29289322 L13.2928932,3.29289322 L13.374551,3.21968877 C13.3774376,3.2173721 13.3803372,3.21507113 13.3832499,3.21278596 C13.3901576,3.20728448 13.397397,3.20175344 13.4046934,3.19633458 C13.4288693,3.17849009 13.453725,3.1617187 13.4793398,3.14606743 C13.4913869,3.13860692 13.5036056,3.13149883 13.5159379,3.12467117 C13.5357061,3.11379392 13.5561086,3.10337664 13.5769009,3.09365378 C13.5939015,3.08567905 13.6112044,3.07819642 13.628664,3.07122549 C13.6484208,3.06331574 13.6682023,3.05612249 13.6882636,3.04954668 C13.7031487,3.04472872 13.7185367,3.04009773 13.734007,3.03584514 C13.7555635,3.02983363 13.7772539,3.0246398 13.7992059,3.02016515 C13.8166247,3.01670217 13.834051,3.01362808 13.8515331,3.0110178 C13.8705042,3.00811223 13.890153,3.00576612 13.909968,3.00399798 C13.9343349,3.0018656 13.9579802,3.00059932 13.9816379,3.00016755 C13.9872016,3.00006024 13.9935938,3 14,3 Z" id="↳-Icon-Color" fill="currentColor" fill-rule="nonzero"></path>
        </g>
    </g>
</svg>
