<?xml version="1.0" encoding="UTF-8"?>
<svg width="28px" height="28px" viewBox="0 0 28 28" version="1.1" xmlns="http://www.w3.org/2000/svg" xmlns:xlink="http://www.w3.org/1999/xlink">
    <!-- Generator: Sketch 63.1 (92452) - https://sketch.com -->
    <title>user_outgoing_outline_28</title>
    <desc>Created with Sketch.</desc>
    <g id="Page-1" stroke="none" stroke-width="1" fill="none" fill-rule="evenodd">
        <g id="user_outgoing_outline_28">
            <polygon points="0 0 28 0 28 28 0 28"></polygon>
            <path d="M10.25,15 C15.2010806,15 19.5,16.7626367 19.5,20.6428571 C19.5,22.6592938 18.7188914,23.5 17.0441176,23.5 L3.45588235,23.5 C1.7811086,23.5 1,22.6592938 1,20.6428571 C1,16.7626367 5.29891944,15 10.25,15 Z M10.25,17 C6.30402173,17 3,18.3547102 3,20.6428571 C3,21.5338316 2.92852762,21.5064046 3.37213286,21.5006072 L17.0441176,21.5 C17.5801282,21.5 17.5,21.5862419 17.5,20.6428571 C17.5,18.3547102 14.1959783,17 10.25,17 Z M22.2928932,7.29289322 C22.6834175,6.90236893 23.3165825,6.90236893 23.7071068,7.29289322 L23.7071068,7.29289322 L27.7071068,11.2928932 C28.0976311,11.6834175 28.0976311,12.3165825 27.7071068,12.7071068 L27.7071068,12.7071068 L23.7071068,16.7071068 C23.3165825,17.0976311 22.6834175,17.0976311 22.2928932,16.7071068 C21.9023689,16.3165825 21.9023689,15.6834175 22.2928932,15.2928932 L22.2928932,15.2928932 L24.585,13 L18.5,13 C17.9871642,13 17.5644928,12.6139598 17.5067277,12.1166211 L17.5,12 C17.5,11.4477153 17.9477153,11 18.5,11 L18.5,11 L24.585,11 L22.2928932,8.70710678 C21.9324093,8.34662282 21.9046797,7.77939176 22.2097046,7.38710056 Z M10,3 C13.0385347,3 15.5,5.46146525 15.5,8.5 C15.5,11.5385347 13.0385347,14 10,14 C6.96146525,14 4.5,11.5385347 4.5,8.5 C4.5,5.46146525 6.96146525,3 10,3 Z M10,5 C8.06603475,5 6.5,6.56603475 6.5,8.5 C6.5,10.4339653 8.06603475,12 10,12 C11.9339653,12 13.5,10.4339653 13.5,8.5 C13.5,6.56603475 11.9339653,5 10,5 Z" id="↳-Icon-Color" fill="currentColor" fill-rule="nonzero"></path>
        </g>
    </g>
</svg>
