<?xml version="1.0" encoding="UTF-8"?>
<svg width="28px" height="28px" viewBox="0 0 28 28" version="1.1" xmlns="http://www.w3.org/2000/svg" xmlns:xlink="http://www.w3.org/1999/xlink">
    <!-- Generator: Sketch 63.1 (92452) - https://sketch.com -->
    <title>users_outline_28</title>
    <desc>Created with Sketch.</desc>
    <g id="Page-1" stroke="none" stroke-width="1" fill="none" fill-rule="evenodd">
        <g id="users_outline_28">
            <rect x="0" y="0" width="28" height="28"></rect>
            <path d="M9,15 C12.9972912,15 16.5,16.5424016 16.5,19.9285714 C16.5,21.7034954 15.8109265,22.5 14.3529412,22.5 L3.64705882,22.5 C2.18907351,22.5 1.5,21.7034954 1.5,19.9285714 C1.5,16.5424016 5.0027088,15 9,15 Z M19.5,15 C23.4972912,15 27,16.5424016 27,19.9285714 C27,21.7034954 26.3109265,22.5 24.8529412,22.5 L24.8529412,22.5 L19,22.5 C18.4477153,22.5 18,22.0522847 18,21.5 C18,20.9477153 18.4477153,20.5 19,20.5 L19,20.5 L24.9127761,20.5002554 C24.9297648,20.5004793 24.9438917,20.5008956 24.95544,20.5016652 L24.968,20.503 L24.9704149,20.4882303 C24.9809399,20.4070055 24.9944685,20.2672007 24.9986856,20.0606076 L25,19.9285714 C25,18.0953535 22.5125127,17 19.5,17 C19.0723091,17 18.6017534,17.0300184 18.130226,17.09085 C17.5824806,17.1615145 17.0811604,16.774764 17.0104959,16.2270186 C16.9398315,15.6792733 17.326582,15.1779531 17.8743273,15.1072886 C18.4310105,15.0354711 18.9870398,15 19.5,15 Z M9,17 C5.98748728,17 3.5,18.0953535 3.5,19.9285714 C3.5,20.2089335 3.51695478,20.3907577 3.52958485,20.4882286 L3.531,20.503 L3.54456253,20.5016651 L3.5638541,20.5007556 L14.4288214,20.5005494 C14.4388962,20.5007961 14.4477411,20.5011522 14.45544,20.5016652 L14.468,20.503 L14.4704149,20.4882303 C14.483045,20.3907605 14.5,20.2089356 14.5,19.9285714 C14.5,18.0953535 12.0125127,17 9,17 Z M19.5,5 C21.8479097,5 23.75,6.90209025 23.75,9.25 C23.75,11.5979097 21.8479097,13.5 19.5,13.5 C17.1520903,13.5 15.25,11.5979097 15.25,9.25 C15.25,6.90209025 17.1520903,5 19.5,5 Z M9,5 C11.3479097,5 13.25,6.90209025 13.25,9.25 C13.25,11.5979097 11.3479097,13.5 9,13.5 C6.65209025,13.5 4.75,11.5979097 4.75,9.25 C4.75,6.90209025 6.65209025,5 9,5 Z M19.5,7 C18.2566597,7 17.25,8.00665975 17.25,9.25 C17.25,10.4933403 18.2566597,11.5 19.5,11.5 C20.7433403,11.5 21.75,10.4933403 21.75,9.25 C21.75,8.00665975 20.7433403,7 19.5,7 Z M9,7 C7.75665975,7 6.75,8.00665975 6.75,9.25 C6.75,10.4933403 7.75665975,11.5 9,11.5 C10.2433403,11.5 11.25,10.4933403 11.25,9.25 C11.25,8.00665975 10.2433403,7 9,7 Z" id="↳-Icon-Color" fill="currentColor" fill-rule="nonzero"></path>
        </g>
    </g>
</svg>
