<svg width="28" height="28" viewBox="0 0 28 28" fill="none" xmlns="http://www.w3.org/2000/svg">
<path d="M22.5 10C22.5 8.06625 20.9338 6.5 19 6.5C17.0662 6.5 15.5 8.06625 15.5 10C15.5 11.9338 17.0662 13.5 19 13.5C20.9338 13.5 22.5 11.9338 22.5 10ZM19 15C21.4706 15 26 15.8571 26 19.2857C26 20.7857 25.5882 21 24.7647 21L17.7546 21.0011C17.9174 20.5134 18 19.9402 18 19.2857C18 17.5963 17.3723 16.2767 16.3292 15.2922C17.2862 15.081 18.2404 15 19 15ZM9 15C11.4706 15 16 15.8571 16 19.2857C16 20.7857 15.5882 21 14.7647 21H3.23529C2.41176 21 2 20.7857 2 19.2857C2 15.8571 6.52941 15 9 15ZM9 6.5C10.9338 6.5 12.5 8.06625 12.5 10C12.5 11.9338 10.9338 13.5 9 13.5C7.06625 13.5 5.5 11.9338 5.5 10C5.5 8.06625 7.06625 6.5 9 6.5Z" fill="currentColor"/>
</svg>
