<?xml version="1.0" encoding="UTF-8"?>
<svg width="28px" height="28px" viewBox="0 0 28 28" version="1.1" xmlns="http://www.w3.org/2000/svg" xmlns:xlink="http://www.w3.org/1999/xlink">
    <!-- Generator: Sketch 63.1 (92452) - https://sketch.com -->
    <title>user_outline_28</title>
    <desc>Created with Sketch.</desc>
    <g id="Page-1" stroke="none" stroke-width="1" fill="none" fill-rule="evenodd">
        <g id="user_outline_28">
            <polygon points="0 0 28 0 28 28 0 28"></polygon>
            <path d="M17.5,8.5 C17.5,6.56603475 15.9339653,5 14,5 C12.0660347,5 10.5,6.56603475 10.5,8.5 C10.5,10.4339653 12.0660347,12 14,12 C15.9339653,12 17.5,10.4339653 17.5,8.5 Z M19.5,8.5 C19.5,11.5385347 17.0385347,14 14,14 C10.9614653,14 8.5,11.5385347 8.5,8.5 C8.5,5.46146525 10.9614653,3 14,3 C17.0385347,3 19.5,5.46146525 19.5,8.5 Z M7,20.6428571 C7,21.5862419 6.91987179,21.5 7.45588235,21.5 L21.0441176,21.5 C21.5801282,21.5 21.5,21.5862419 21.5,20.6428571 C21.5,18.3547102 18.1959783,17 14.25,17 C10.3040217,17 7,18.3547102 7,20.6428571 Z M5,20.6428571 C5,16.7626367 9.29891944,15 14.25,15 C19.2010806,15 23.5,16.7626367 23.5,20.6428571 C23.5,22.6592938 22.7188914,23.5 21.0441176,23.5 L7.45588235,23.5 C5.7811086,23.5 5,22.6592938 5,20.6428571 Z" id="↳-Icon-Color" fill="currentColor" fill-rule="nonzero"></path>
        </g>
    </g>
</svg>
