<svg xmlns="http://www.w3.org/2000/svg" width="28" height="28" fill="currentColor" viewBox="0 0 28 28"><path fill-rule="evenodd" d="M19.838 4h-8.677c-.527 0-.981 0-1.356.03-.395.033-.789.104-1.167.297a3 3 0 0 0-1.311 1.311c-.193.378-.264.772-.296 1.167C7 7.18 7 7.635 7 8.161v8.678c0 .527 0 .982.03 1.356.033.395.104.789.297 1.167a3 3 0 0 0 1.311 1.311c.378.193.772.264 1.167.296.375.031.83.031 1.356.031h8.678c.527 0 .982 0 1.356-.03.395-.033.789-.104 1.167-.297a3 3 0 0 0 1.311-1.311c.193-.378.264-.772.296-1.167.031-.375.031-.83.031-1.356V8.16c0-.527 0-.981-.03-1.356-.033-.395-.104-.789-.297-1.167a3 3 0 0 0-1.311-1.311c-.378-.193-.772-.264-1.167-.296A17.9 17.9 0 0 0 19.838 4Zm-2.088 6.25a2.25 2.25 0 1 0-4.5 0 2.25 2.25 0 1 0 4.5 0ZM11 15.875l-.001.56c0 .312.253.565.565.565h7.87a.565.565 0 0 0 .566-.564v-.56c0-1.968-2.998-2.531-4.5-2.531-1.502 0-4.5.562-4.5 2.53Z M5 16V9a2 2 0 0 0-2 2v5.044c0 1.363 0 2.447.071 3.321.074.896.227 1.66.583 2.359a6 6 0 0 0 2.622 2.622c.7.356 1.463.51 2.359.582.874.072 1.958.072 3.321.072H18a2 2 0 0 0 2-2h-8c-1.417 0-2.419 0-3.203-.065-.771-.063-1.243-.182-1.613-.371a4 4 0 0 1-1.748-1.748c-.189-.37-.308-.842-.371-1.613C5 18.419 5 17.416 5 16Z"/></svg>
