<svg fill="none" height="28" viewBox="0 0 28 28" width="28" xmlns="http://www.w3.org/2000/svg" xmlns:xlink="http://www.w3.org/1999/xlink"><mask id="a" height="18" maskUnits="userSpaceOnUse" width="18" x="5" y="5"><path d="m9.85233 5.00488c-1.47928.02805-2.14165.18046-2.82284.54477-.64055.34257-1.13727.83929-1.47984 1.47984-.36431.68119-.51672 1.34356-.54477 2.82284v8.29537c.02805 1.4793.18046 2.1416.54477 2.8228.34257.6406.83929 1.1373 1.47984 1.4799.68119.3643 1.34356.5167 2.82284.5447h8.29537c1.4793-.028 2.1416-.1804 2.8228-.5447.6406-.3426 1.1373-.8393 1.4799-1.4799.3643-.6812.5167-1.3435.5447-2.8228v-8.29537c-.028-1.47928-.1804-2.14165-.5447-2.82284-.3426-.64055-.8393-1.13727-1.4799-1.47984-.6812-.36431-1.3435-.51672-2.8228-.54477z" fill="currentColor"/></mask><path d="m17.9257 3.00171c1.9582.02068 2.9547.2317 3.988.78431.9891.52896 1.7713 1.31118 2.3003 2.30027.5526 1.03328.7636 2.0298.7843 3.98801v7.8514c-.0207 1.9582-.2317 2.9547-.7843 3.988-.529.9891-1.3112 1.7713-2.3003 2.3003-1.0333.5526-2.0298.7636-3.988.7843h-7.8514c-1.95821-.0207-2.95473-.2317-3.98801-.7843-.98909-.529-1.77131-1.3112-2.30027-2.3003-.55261-1.0333-.76363-2.0298-.78431-3.988v-7.8514c.02068-1.95821.2317-2.95473.78431-3.98801.52896-.98909 1.31118-1.77131 2.30027-2.30027 1.03328-.55261 2.0298-.76363 3.98801-.78431zm-8.07337 2.00317c-1.47929.02805-2.14165.18046-2.82285.54476-.64054.34257-1.13727.8393-1.47984 1.47984-.3643.6812-.51671 1.34356-.54476 2.82285v8.29537c.02805 1.4793.18046 2.1416.54476 2.8228.34257.6406.8393 1.1373 1.47984 1.4799.6812.3643 1.34356.5167 2.82285.5447h8.29537c1.4793-.028 2.1416-.1804 2.8228-.5447.6406-.3426 1.1373-.8393 1.4799-1.4799.3643-.6812.5167-1.3435.5447-2.8228v-8.29537c-.028-1.47929-.1804-2.14165-.5447-2.82285-.3426-.64054-.8393-1.13727-1.4799-1.47984-.6812-.3643-1.3435-.51671-2.8228-.54476z" fill="currentColor"/><g mask="url(#a)"><circle cx="14" cy="31.5" r="12" stroke="currentColor" stroke-width="2"/><path d="m14 7.5c2.6242 0 4.75 2.12584 4.75 4.75 0 2.6242-2.1258 4.75-4.75 4.75s-4.75-2.1258-4.75-4.75c0-2.62416 2.1258-4.75 4.75-4.75zm0 2c-1.5196 0-2.75 1.2304-2.75 2.75s1.2304 2.75 2.75 2.75 2.75-1.2304 2.75-2.75-1.2304-2.75-2.75-2.75z" fill="currentColor"/></g><g fill="currentColor"><path d="m14 7.5c2.6242 0 4.75 2.12584 4.75 4.75 0 2.6242-2.1258 4.75-4.75 4.75s-4.75-2.1258-4.75-4.75c0-2.62416 2.1258-4.75 4.75-4.75zm0 2c-1.5196 0-2.75 1.2304-2.75 2.75s1.2304 2.75 2.75 2.75 2.75-1.2304 2.75-2.75-1.2304-2.75-2.75-2.75z"/><path clip-rule="evenodd" d="m21.9137 3.78602c-1.0333-.55261-2.0298-.76363-3.988-.78431h-7.8514c-1.95821.02068-2.95473.2317-3.98801.78431-.98909.52896-1.77131 1.31118-2.30027 2.30027-.55261 1.03328-.76363 2.0298-.78431 3.98801v7.8514c.02068 1.9582.2317 2.9547.78431 3.988.52896.9891 1.31118 1.7713 2.30027 2.3003 1.03328.5526 2.0298.7636 3.98801.7843h7.8514c1.9582-.0207 2.9547-.2317 3.988-.7843.9891-.529 1.7713-1.3112 2.3003-2.3003.5526-1.0333.7636-2.0298.7843-3.988v-7.8514c-.0207-1.95821-.2317-2.95473-.7843-3.98801-.529-.98909-1.3112-1.77131-2.3003-2.30027zm-14.88422 1.76362c.6812-.3643 1.34356-.51671 2.82285-.54476h8.29537c1.4793.02805 2.1416.18046 2.8228.54476.6406.34257 1.1373.8393 1.4799 1.47984.3643.6812.5167 1.34356.5447 2.82285v8.29537c-.028 1.4793-.1804 2.1416-.5447 2.8228-.0806.1506-.1696.2932-.2671.4278-2.2344-1.8124-5.0821-2.8983-8.1833-2.8983s-5.94886 1.0859-8.18332 2.8983c-.09744-.1346-.1865-.2772-.26704-.4278-.3643-.6812-.51671-1.3435-.54476-2.8228v-8.29537c.02805-1.47929.18046-2.14165.54476-2.82285.34257-.64054.8393-1.13727 1.47984-1.47984zm6.97052 1.95036c2.6242 0 4.75 2.12584 4.75 4.75 0 2.6242-2.1258 4.75-4.75 4.75s-4.75-2.1258-4.75-4.75c0-2.62416 2.1258-4.75 4.75-4.75zm-4.14767 15.4951h8.29537c1.1693-.0222 1.8281-.122 2.3894-.3428-1.8276-1.3525-4.0889-2.1523-6.5371-2.1523s-4.70951.7998-6.53706 2.1523c.56121.2208 1.2201.3206 2.38939.3428zm1.39767-10.7451c0-1.5196 1.2304-2.75 2.75-2.75s2.75 1.2304 2.75 2.75-1.2304 2.75-2.75 2.75-2.75-1.2304-2.75-2.75z" fill-rule="evenodd"/></g></svg>
