<svg xmlns="http://www.w3.org/2000/svg" width="28" height="28" viewBox="0 0 28 28"><path fill="url(#a)" d="M0 14C0 6.268 6.268 0 14 0s14 6.268 14 14-6.268 14-14 14S0 21.732 0 14Z"/><path fill="#fff" d="M14 15c2.25 0 4.5.9 4.5 2.846v.134c0 .295-.04.447-.113.585a.773.773 0 0 1-.322.322c-.138.073-.29.113-.585.113h-6.96c-.295 0-.447-.04-.585-.113a.773.773 0 0 1-.321-.322c-.075-.138-.114-.29-.114-.585v-.134C9.5 15.9 11.75 15 14 15Zm0-6a2.25 2.25 0 1 1 0 4.5A2.25 2.25 0 0 1 14 9Zm5.994 9.2h2.213c.23 0 .347-.032.455-.09a.61.61 0 0 0 .25-.258c.057-.11.088-.232.088-.468v-.107C23 15.72 21.25 15 19.5 15c-.252 0-.504.015-.751.045.729.669 1.251 1.599 1.251 2.801v.134c0 .075-.002.148-.006.22Zm1.256-6.4c0-.994-.784-1.8-1.75-1.8-.967 0-1.75.806-1.75 1.8s.783 1.8 1.75 1.8c.966 0 1.75-.806 1.75-1.8ZM8.006 18.2A4.102 4.102 0 0 1 8 17.98v-.134c0-1.202.522-2.132 1.251-2.8A6.183 6.183 0 0 0 8.5 15c-1.75 0-3.5.72-3.5 2.277v.107c0 .236.03.357.088.468a.61.61 0 0 0 .25.257c.108.06.226.091.455.091h2.213Zm2.244-6.4c0-.994-.784-1.8-1.75-1.8s-1.75.806-1.75 1.8.784 1.8 1.75 1.8 1.75-.806 1.75-1.8Z"/><defs><linearGradient id="a" x1="-14" x2="14" y1="14" y2="42" gradientUnits="userSpaceOnUse"><stop stop-color="#70B2FF"/><stop offset="1" stop-color="#5C9CE6"/></linearGradient></defs></svg>
