<?xml version="1.0" encoding="UTF-8"?>
<svg width="28px" height="28px" viewBox="0 0 28 28" version="1.1" xmlns="http://www.w3.org/2000/svg" xmlns:xlink="http://www.w3.org/1999/xlink">
    <!-- Generator: Sketch 62 (91390) - https://sketch.com -->
    <title>users_3_outline_28</title>
    <desc>Created with Sketch.</desc>
    <g id="Page-1" stroke="none" stroke-width="1" fill="none" fill-rule="evenodd">
        <g id="users_3_outline_28">
            <rect id="communities_outline_28" x="0" y="0" width="28" height="28"></rect>
            <path d="M14.5,15 C18.3620342,15 21,16.8758868 21,19.8 C21,21.8587258 19.7160666,23 18,23 L11,23 C9.28393342,23 8,21.8587258 8,19.8 C8,16.8758868 10.6379658,15 14.5,15 Z M22.0909091,15 C25.0863176,15 27,16.7841954 27,19.0384615 C27,20.8610945 25.5899265,22 24,22 L24,22 L23.1818182,22 C22.5793257,22 22.0909091,21.5178451 22.0909091,20.9230769 C22.0909091,20.3283087 22.5793257,19.8461538 23.1818182,19.8461538 L23.1818182,19.8461538 L24,19.8461538 C24.4706795,19.8461538 24.8181818,19.5654789 24.8181818,19.0384615 C24.8181818,18.0021294 23.9083348,17.1538462 22.0909091,17.1538462 C21.4884166,17.1538462 21,16.6716913 21,16.0769231 C21,15.4821549 21.4884166,15 22.0909091,15 Z M6.90909091,15 C7.51158336,15 8,15.4821549 8,16.0769231 C8,16.6716913 7.51158336,17.1538462 6.90909091,17.1538462 C5.09166518,17.1538462 4.18181818,18.0021294 4.18181818,19.0384615 C4.18181818,19.5654789 4.52932047,19.8461538 5,19.8461538 L5.81818182,19.8461538 C6.42067427,19.8461538 6.90909091,20.3283087 6.90909091,20.9230769 C6.90909091,21.5178451 6.42067427,22 5.81818182,22 L5,22 C3.41007347,22 2,20.8610945 2,19.0384615 C2,16.7841954 3.91368241,15 6.90909091,15 Z M14.5,17 C11.6120342,17 10,18.2282165 10,19.8571429 C10,20.6989842 10.3160666,21 11,21 L18,21 C18.6839334,21 19,20.6989842 19,19.8571429 C19,18.2282165 17.3879658,17 14.5,17 Z M20.1111111,6 C22.2588851,6 24,7.56700338 24,9.5 C24,11.4329966 22.2588851,13 20.1111111,13 C19.4974614,13 19,12.5522847 19,12 C19,11.4477153 19.4974614,11 20.1111111,11 L20.1111111,11 L20.2716222,10.9931334 C21.116791,10.9204487 21.7777778,10.2796961 21.7777778,9.5 C21.7777778,8.67157288 21.0315857,8 20.1111111,8 L20.1111111,8 L19.9815321,7.99327227 C19.4289335,7.93550716 19,7.51283584 19,7 C19,6.44771525 19.4974614,6 20.1111111,6 Z M8.88888889,6 C9.50253861,6 10,6.44771525 10,7 C10,7.51283584 9.57106646,7.93550716 9.01846792,7.99327227 L8.88888889,8 C7.96841431,8 7.22222222,8.67157288 7.22222222,9.5 C7.22222222,10.2796961 7.88320898,10.9204487 8.72837777,10.9931334 L8.88888889,11 C9.50253861,11 10,11.4477153 10,12 C10,12.5522847 9.50253861,13 8.88888889,13 C6.74111486,13 5,11.4329966 5,9.5 C5,7.56700338 6.74111486,6 8.88888889,6 Z M14,5 C16.209139,5 18,6.790861 18,9 C18,11.209139 16.209139,13 14,13 C11.790861,13 10,11.209139 10,9 C10,6.790861 11.790861,5 14,5 Z M14,7 C12.8954305,7 12,7.8954305 12,9 C12,10.1045695 12.8954305,11 14,11 C15.1045695,11 16,10.1045695 16,9 C16,7.8954305 15.1045695,7 14,7 Z" id="↳-Icon-Color" fill="currentColor" fill-rule="nonzero"></path>
        </g>
    </g>
</svg>
