<svg xmlns="http://www.w3.org/2000/svg" width="28" height="28" fill="currentColor" viewBox="0 0 28 28"><path d="M6.707 3.293a1 1 0 0 1 0 1.414l-2 2a1 1 0 0 1-1.414-1.414l2-2a1 1 0 0 1 1.414 0Z M14 17.5c3.997 0 7.5 1.542 7.5 4.929 0 1.774-.69 2.571-2.147 2.571H8.647C7.19 25 6.5 24.203 6.5 22.429c0-3.387 3.503-4.929 7.5-4.929Zm0 2c-3.012 0-5.5 1.095-5.5 2.929 0 .28.017.462.03.56l.001.014.014-.001.019-.001h10.891l.013.002.002-.015c.013-.097.03-.28.03-.56 0-1.833-2.488-2.928-5.5-2.928Zm0-12a4.25 4.25 0 0 1 4.25 4.25A4.25 4.25 0 0 1 14 16a4.25 4.25 0 0 1-4.25-4.25A4.25 4.25 0 0 1 14 7.5Zm0 2a2.25 2.25 0 1 0 0 4.5 2.25 2.25 0 1 0 0-4.5Z M12.707 4.707a1 1 0 0 0-1.414-1.414l-1.5 1.5a1 1 0 0 0 1.414 1.414l1.5-1.5Zm-4.5 4.5a1 1 0 0 0-1.414-1.414l-3.5 3.5a1 1 0 1 0 1.414 1.414l3.5-3.5Zm16.5 7.5-1.5 1.5a1 1 0 0 1-1.414-1.414l1.5-1.5a1 1 0 0 1 1.414 1.414Zm-6-12a1 1 0 0 0-1.414-1.414l-1 1a1 1 0 0 0 1.414 1.414l1-1Zm-10.5 10.5a1 1 0 1 0-1.414-1.414l-3.5 3.5a1 1 0 1 0 1.414 1.414l3.5-3.5Zm16.5-5.914a1 1 0 0 1 0 1.414l-3 3a1 1 0 0 1-1.414-1.414l3-3a1 1 0 0 1 1.414 0Zm-1-3.586a1 1 0 0 0-1.414-1.414l-3 3a1 1 0 0 0 1.414 1.414l3-3Z"/></svg>
