<?xml version="1.0" encoding="UTF-8"?>
<svg width="28px" height="28px" viewBox="0 0 28 28" version="1.1" xmlns="http://www.w3.org/2000/svg" xmlns:xlink="http://www.w3.org/1999/xlink">
    <!-- Generator: Sketch 63.1 (92452) - https://sketch.com -->
    <title>user_add_outline_28</title>
    <desc>Created with Sketch.</desc>
    <g id="Page-1" stroke="none" stroke-width="1" fill="none" fill-rule="evenodd">
        <g id="user_add_outline_28">
            <polygon points="0 0 28 0 28 28 0 28"></polygon>
            <path d="M17.75,15 C22.7010806,15 27,16.7626367 27,20.6428571 C27,22.6592938 26.2188914,23.5 24.5441176,23.5 L10.9558824,23.5 C9.2811086,23.5 8.5,22.6592938 8.5,20.6428571 C8.5,16.7626367 12.7989194,15 17.75,15 Z M17.75,17 C13.8040217,17 10.5,18.3547102 10.5,20.6428571 C10.5,21.5338316 10.4285276,21.5064046 10.8721329,21.5006072 L24.5441176,21.5 C25.0801282,21.5 25,21.5862419 25,20.6428571 C25,18.3547102 21.6959783,17 17.75,17 Z M5,7 C5.55228475,7 6,7.44771525 6,8 L6,11 L9,11 C9.55228475,11 10,11.4477153 10,12 C10,12.5522847 9.55228475,13 9,13 L6,13 L6,16 C6,16.5522847 5.55228475,17 5,17 C4.44771525,17 4,16.5522847 4,16 L4,13 L1,13 C0.44771525,13 6.76353751e-17,12.5522847 0,12 C-6.76353751e-17,11.4477153 0.44771525,11 1,11 L4,11 L4,8 C4,7.44771525 4.44771525,7 5,7 Z M17.5,3 C20.5385347,3 23,5.46146525 23,8.5 C23,11.5385347 20.5385347,14 17.5,14 C14.4614653,14 12,11.5385347 12,8.5 C12,5.46146525 14.4614653,3 17.5,3 Z M17.5,5 C15.5660347,5 14,6.56603475 14,8.5 C14,10.4339653 15.5660347,12 17.5,12 C19.4339653,12 21,10.4339653 21,8.5 C21,6.56603475 19.4339653,5 17.5,5 Z" id="↳-Icon-Color" fill="currentColor" fill-rule="nonzero"></path>
        </g>
    </g>
</svg>
