<svg xmlns="http://www.w3.org/2000/svg" width="28" height="28" fill="currentColor" viewBox="0 0 28 28"><path d="M14 13a4 4 0 1 0 0-8 4 4 0 0 0 0 8Zm0 2c2.47 0 7 1 7 5a2 2 0 0 1-2 2H9a2 2 0 0 1-2-2c0-4 4.53-5 7-5ZM8.445 6.727c.115-.28-.012-.615-.31-.67a3.5 3.5 0 1 0 .52 6.748c.286-.1.36-.45.204-.71A5.972 5.972 0 0 1 8 9c0-.804.158-1.572.445-2.273Zm10.695 5.368c-.156.26-.081.61.205.71a3.5 3.5 0 1 0 .52-6.748c-.298.055-.425.39-.31.67C19.842 7.428 20 8.196 20 9a5.973 5.973 0 0 1-.86 3.095Zm2.455 2.455a2.196 2.196 0 0 0-.081-.007.495.495 0 0 0-.395.836l.13.13c1.06 1.056 1.823 2.527 1.823 4.49 0 .116-.005.23-.014.343v.002l-.01.131c-.016.31.171.514.482.525h1.646C26.184 21 27 20.169 27 19.143c0-2.981-2.788-4.329-5.405-4.593Zm-15.109-.007c-.012 0-.035.003-.08.007C3.787 14.814 1 16.162 1 19.143 1 20.169 1.816 21 2.824 21H4.47c.31-.01.498-.214.483-.525l-.011-.133A4.124 4.124 0 0 1 4.928 20c0-1.964.762-3.434 1.822-4.49l.131-.131a.495.495 0 0 0-.395-.836Z"/></svg>
