<svg fill="none" height="28" viewBox="0 0 28 28" width="28" xmlns="http://www.w3.org/2000/svg" xmlns:xlink="http://www.w3.org/1999/xlink"><linearGradient id="a" gradientUnits="userSpaceOnUse" x1="-14" x2="14" y1="14" y2="42"><stop offset="0" stop-color="#ffb73d"/><stop offset="1" stop-color="#ffa000"/></linearGradient><path d="m0 14c0-7.73199 6.26801-14 14-14 7.732 0 14 6.26801 14 14 0 7.732-6.268 14-14 14-7.73199 0-14-6.268-14-14z" fill="url(#a)"/><path d="m10.5 15c2.25 0 4.5.9 4.5 2.8462v.1342c0 .2948-.0395.4462-.1135.5848-.0741.1385-.1828.2472-.3213.3213-.1386.074-.29.1135-.5848.1135h-6.96081c-.29482 0-.44623-.0395-.58475-.1135-.13852-.0741-.24723-.1828-.32131-.3213-.07408-.1386-.11353-.29-.11353-.5848v-.1342c0-1.9462 2.25-2.8462 4.5-2.8462zm7 0c2.25 0 4.5.9 4.5 2.8462v.1342c0 .2948-.0395.4462-.1135.5848-.0741.1385-.1828.2472-.3213.3213-.1386.074-.29.1135-.5848.1135l-4.3807.0006c.0845-.2483.13-.5083.1448-.7975l.0055-.2227v-.1342c0-1.0688-.3577-1.9574-.9711-2.6591.5466-.1258 1.1338-.1871 1.7211-.1871zm-7-6c1.2426 0 2.25 1.0074 2.25 2.25s-1.0074 2.25-2.25 2.25c-1.24264 0-2.25-1.0074-2.25-2.25s1.00736-2.25 2.25-2.25zm7 0c1.2426 0 2.25 1.0074 2.25 2.25s-1.0074 2.25-2.25 2.25-2.25-1.0074-2.25-2.25 1.0074-2.25 2.25-2.25z" fill="#fff"/></svg>
