<?xml version="1.0" encoding="UTF-8"?>
<svg width="28px" height="28px" viewBox="0 0 28 28" version="1.1" xmlns="http://www.w3.org/2000/svg" xmlns:xlink="http://www.w3.org/1999/xlink">
    <g id="Icons-28/video_outline_28" stroke="none" stroke-width="1" fill="none" fill-rule="evenodd">
        <g id="video_outline_28" fill-rule="nonzero">
            <rect x="0" y="0" width="28" height="28"></rect>
            <path d="M14,2 C20.627417,2 26,7.372583 26,14 C26,20.627417 20.627417,26 14,26 C7.372583,26 2,20.627417 2,14 C2,7.372583 7.372583,2 14,2 Z M14,4 C8.4771525,4 4,8.4771525 4,14 C4,19.5228475 8.4771525,24 14,24 C19.5228475,24 24,19.5228475 24,14 C24,8.4771525 19.5228475,4 14,4 Z M12.45475,9.12118728 C12.7970885,9.12118728 13.133424,9.21109284 13.4301021,9.38190783 L18.508663,12.3059332 C19.4442496,12.8446054 19.7660124,14.0397282 19.2273403,14.9753148 C19.05534,15.2740516 18.8073998,15.5219918 18.508663,15.6939922 L13.4301021,18.6180176 C12.4945155,19.1566897 11.2993927,18.8349269 10.7607205,17.8993403 C10.5899056,17.6026622 10.5,17.2663266 10.5,16.9239881 L10.5,11.0759373 C10.5,9.99635866 11.3751714,9.12118728 12.45475,9.12118728 Z M12.5,11.1542046 L12.5,16.8457208 L17.4426232,13.9999627 L12.5,11.1542046 Z" id="↳-Icon-Color" fill="currentColor"></path>
        </g>
    </g>
</svg>
