<svg xmlns="http://www.w3.org/2000/svg" width="28" height="28" fill="currentColor" viewBox="0 0 28 28"><path fill-rule="evenodd" d="M13.6 7c1.137 0 1.929 0 2.546.051.605.05.953.142 1.216.276a3 3 0 0 1 1.311 1.311c.134.263.226.611.276 1.216.05.617.051 1.41.051 2.546v4.095a2 2 0 0 0 .912 1.678l.76.493c.52.336 1.038.673 1.556 1.01.239.154.52.337.773.47.255.134.794.395 1.482.348a2.7 2.7 0 0 0 1.975-1.07c.415-.552.49-1.148.516-1.434.026-.285.026-.62.026-.904v-6.172c0-.284 0-.619-.026-.904-.026-.286-.1-.882-.516-1.434a2.7 2.7 0 0 0-1.975-1.07c-.688-.047-1.227.214-1.482.348-.253.133-.534.316-.773.47l-.904.587-.436.283c-.074-.528-.202-1.01-.433-1.464a5 5 0 0 0-2.185-2.185c-.592-.302-1.233-.428-1.961-.487C15.6 5 14.727 5 13.643 5H8.656a1 1 0 0 0 0 2H13.6Zm7.4 9.495 2.27 1.472c.563.365.844.548 1.077.532a.7.7 0 0 0 .513-.277c.14-.187.14-.522.14-1.192v-6.06c0-.67 0-1.005-.14-1.192a.7.7 0 0 0-.513-.277c-.233-.016-.514.167-1.077.532L21 11.505v4.99ZM13.643 23H9.357c-1.084 0-1.958 0-2.666-.058-.728-.06-1.369-.185-1.961-.487a5 5 0 0 1-2.185-2.185c-.302-.592-.428-1.232-.487-1.961C2 17.6 2 16.727 2 15.643v-3.286c0-1.084 0-1.958.058-2.666.06-.728.185-1.369.487-1.961a5 5 0 0 1 .284-.487L1.293 5.707a1 1 0 0 1 1.414-1.414l19 19a1 1 0 0 1-1.414 1.414l-2.178-2.178c-.549.25-1.14.359-1.806.413C15.6 23 14.727 23 13.643 23ZM4.05 9.854c-.049.617-.05 1.41-.05 2.546v3.2c0 1.137 0 1.929.051 2.546.05.605.142.953.276 1.216a3 3 0 0 0 1.311 1.311c.263.134.611.226 1.216.276.617.05 1.41.051 2.546.051h4.2c1.137 0 1.929 0 2.546-.051.128-.01.245-.023.351-.037L12.5 16.914V17a1 1 0 1 1-2 0v-2.086l-.75-.75-.543.543a1 1 0 0 1-1.414-1.414l.543-.543-4.043-4.042c-.116.255-.197.593-.242 1.146Z" clip-rule="evenodd"/></svg>
