<svg fill="none" height="28" viewBox="0 0 28 28" width="28" xmlns="http://www.w3.org/2000/svg"><g clip-rule="evenodd" fill="currentColor" fill-rule="evenodd"><path d="m14.8722 22h-7.74443c-1.78304 0-2.42961-.1857-3.08146-.5343s-1.16343-.8602-1.51204-1.512c-.34862-.6519-.53427-1.2984-.53427-3.0815v-5.7444c0-1.78307.18565-2.42964.53427-3.08149.12672-.23695.27497-.45537.44367-.65416l-1.68505-1.68504c-.390521-.39053-.390521-1.02369 0-1.41422.39053-.39052 1.02369-.39052 1.41422 0l17.99999 18.00001c.3905.3905.3905 1.0237 0 1.4142s-1.0237.3905-1.4142 0l-1.7071-1.7071zm-10.87127-11.1099c.00936-1.13645.09067-1.51485.29696-1.90059.03238-.06055.06731-.11802.10489-.17252l11.18302 11.18301h-.7136-7.74443c-1.3237 0-1.72681-.0778-2.13826-.2979-.30332-.1622-.5294-.3883-.69162-.6916-.22005-.4115-.29789-.8146-.29789-2.1383z"/><path d="m14.8722 6c1.7831 0 2.4296.18565 3.0815.53427.6518.34861 1.1634.86019 1.512 1.51204.2322.43419.3921.86603.473 1.63294l2.0068-1.25368c1.2411-.77569 2.876-.3984 3.6517.84269.2632.42117.4028.90784.4028 1.40454v6.6544c0 1.4636-1.1864 2.65-2.65 2.65-.4967 0-.9833-.1395-1.4045-.4028l-2.7711-1.728c-.2139-.1312-.4831-.2963-.6886-.5345-.1778-.2061-.3117-.4462-.3934-.7058-.0945-.3001-.0934-.6159-.0926-.8669l.0002-4.6114c0-1.32373-.0778-1.72684-.2979-2.13829-.1622-.30332-.3883-.5294-.6916-.69162-.3857-.20629-.7641-.2876-1.9006-.29696l-5.47015-.00093c-.55229 0-1-.44772-1-1s.44771-1 1-1zm5.1278 6 3.0055-1.8784c.3044-.1903.7054-.0978.8957.2067.0646.1033.0988.2226.0988.3445v6.6544c0 .359-.291.65-.65.65-.1218 0-.2412-.0342-.3445-.0988l-3.0055-1.8784z"/></g></svg>
