<svg xmlns="http://www.w3.org/2000/svg" width="28" height="28" fill="currentColor" viewBox="0 0 28 28"><path fill-rule="evenodd" d="M12.246 11.024a.354.354 0 0 0-.479.25 13.693 13.693 0 0 0-.267 2.7c0 .944.096 1.864.278 2.752.039.19.244.333.48.25a13.992 13.992 0 0 0 4.625-2.728.317.317 0 0 0 0-.492 13.99 13.99 0 0 0-4.637-2.732Zm.665-1.886c-1.362-.48-2.823.34-3.105 1.743a15.765 15.765 0 0 0 .013 6.247c.287 1.4 1.746 2.214 3.105 1.733a15.993 15.993 0 0 0 5.287-3.118 2.316 2.316 0 0 0 0-3.483 15.993 15.993 0 0 0-5.3-3.122Z M6.07 3.801C7.164 3.216 8.243 3 10.691 3h6.616c2.448 0 3.527.216 4.622.801A5.465 5.465 0 0 1 24.2 6.07c.585 1.096.801 2.175.801 4.623v6.616c0 2.448-.216 3.527-.801 4.622a5.465 5.465 0 0 1-2.27 2.269c-1.095.585-2.174.801-4.622.801h-6.616c-2.448 0-3.527-.216-4.623-.801a5.465 5.465 0 0 1-2.268-2.269C3.216 20.835 3 19.756 3 17.308v-6.616c0-2.448.216-3.527.801-4.623A5.466 5.466 0 0 1 6.07 3.801ZM10.691 5c-2.335 0-3.019.212-3.68.565a3.466 3.466 0 0 0-1.447 1.448C5.212 7.673 5 8.357 5 10.692v6.616c0 2.335.212 3.019.565 3.68a3.466 3.466 0 0 0 1.448 1.447c.66.353 1.344.565 3.679.565h6.616c2.335 0 3.019-.212 3.68-.565a3.467 3.467 0 0 0 1.447-1.448c.353-.66.565-1.344.565-3.679v-6.616c0-2.335-.212-3.019-.565-3.68a3.466 3.466 0 0 0-1.448-1.447C20.327 5.212 19.643 5 17.308 5h-6.616Z" clip-rule="evenodd"/></svg>
