<?xml version="1.0" encoding="UTF-8"?>
<svg width="28px" height="28px" viewBox="0 0 28 28" version="1.1" xmlns="http://www.w3.org/2000/svg" xmlns:xlink="http://www.w3.org/1999/xlink">
    <!-- Generator: Sketch 63.1 (92452) - https://sketch.com -->
    <title>videocam_outline_28</title>
    <desc>Created with Sketch.</desc>
    <g id="Page-1" stroke="none" stroke-width="1" fill="none" fill-rule="evenodd">
        <g id="videocam_outline_28" fill-rule="nonzero">
            <rect x="0" y="0" width="28" height="28"></rect>
            <path d="M14.8722296,6 C16.6552671,6 17.3018396,6.18565122 17.9536914,6.53426541 C18.6055433,6.88287959 19.1171204,7.39445674 19.4657346,8.04630859 C19.6979402,8.48049529 19.8578448,8.91233972 19.9387437,9.67924704 L21.9455028,8.42556546 C23.1865946,7.64988308 24.8215131,8.02717197 25.5971955,9.26826378 C25.860426,9.68943252 26,10.1760987 26,10.672761 L26,17.327239 C26,18.7907936 24.8135546,19.977239 23.35,19.977239 C22.8533378,19.977239 22.3666716,19.837665 21.9455028,19.5744345 L19.9387437,18.320753 C19.8578448,19.0876603 19.6979402,19.5195047 19.4657346,19.9536914 C19.1171204,20.6055433 18.6055433,21.1171204 17.9536914,21.4657346 C17.3018396,21.8143488 16.6552671,22 14.8722296,22 L7.1277704,22 C5.34473292,22 4.69816044,21.8143488 4.04630859,21.4657346 C3.39445674,21.1171204 2.88287959,20.6055433 2.53426541,19.9536914 C2.18565122,19.3018396 2,18.6552671 2,16.8722296 L2,11.1277704 C2,9.34473292 2.18565122,8.69816044 2.53426541,8.04630859 C2.88287959,7.39445674 3.39445674,6.88287959 4.04630859,6.53426541 C4.69816044,6.18565122 5.34473292,6 7.1277704,6 L14.8722296,6 Z M15.1098626,8.00092794 L7.1277704,8 C5.80406657,8 5.40096145,8.07784319 4.98950631,8.2978918 C4.68619141,8.46010639 4.46010639,8.68619141 4.2978918,8.98950631 C4.09159623,9.3752455 4.01028589,9.75364581 4.00092794,10.8901374 L4,16.8722296 C4,18.1959334 4.07784319,18.5990386 4.2978918,19.0104937 C4.46010639,19.3138086 4.68619141,19.5398936 4.98950631,19.7021082 C5.40096145,19.9221568 5.80406657,20 7.1277704,20 L14.8722296,20 C16.1959334,20 16.5990386,19.9221568 17.0104937,19.7021082 C17.3138086,19.5398936 17.5398936,19.3138086 17.7021082,19.0104937 C17.9221568,18.5990386 18,18.1959334 18,16.8722296 L18,11.1277704 C18,9.80406657 17.9221568,9.40096145 17.7021082,8.98950631 C17.5398936,8.68619141 17.3138086,8.46010639 17.0104937,8.2978918 C16.6247545,8.09159623 16.2463542,8.01028589 15.1098626,8.00092794 Z M23.0055007,10.1215621 L20,12 L20,16 L23.0055007,17.8784379 C23.1088062,17.9430039 23.2281772,17.977239 23.35,17.977239 C23.7089851,17.977239 24,17.6862241 24,17.327239 L24,10.672761 C24,10.5509382 23.9657649,10.4315672 23.9011989,10.3282617 C23.7109372,10.0238429 23.3099194,9.93130035 23.0055007,10.1215621 Z" id="↳-Icon-Color" fill="currentColor"></path>
        </g>
    </g>
</svg>
