<svg xmlns="http://www.w3.org/2000/svg" xmlns:xlink="http://www.w3.org/1999/xlink" width="28" height="28" fill="none" viewBox="0 0 28 28"><defs><path id="a" fill-rule="evenodd" d="M5.0695 4.8014C6.1648 4.2156 7.2439 4 9.6917 4h8.6166c2.4478 0 3.5269.2156 4.6222.8014.9752.5215 1.7466 1.2929 2.2681 2.268C25.7844 8.1649 26 9.244 26 11.6918v4.6166c0 2.4478-.2156 3.5269-.8014 4.6222-.5215.9752-1.2929 1.7466-2.2681 2.2681-1.0953.5858-2.1744.8014-4.6222.8014H9.6917c-2.4478 0-3.527-.2156-4.6222-.8014-.9752-.5215-1.7466-1.2929-2.2681-2.2681C2.2156 19.8352 2 18.7561 2 16.3083v-4.6166c0-2.4478.2156-3.527.8014-4.6222.5215-.9752 1.2929-1.7466 2.268-2.2681zM9.6917 6c-2.335 0-3.0183.2117-3.679.565-.6267.3352-1.1125.821-1.4477 1.4477-.3533.6607-.565 1.344-.565 3.679v4.6166c0 2.335.2117 3.0183.565 3.679.3352.6267.821 1.1125 1.4477 1.4477.6607.3533 1.344.565 3.679.565h8.6166c2.335 0 3.0183-.2117 3.679-.565.6267-.3352 1.1125-.821 1.4477-1.4477.3533-.6607.565-1.344.565-3.679v-4.6166c0-2.335-.2117-3.0183-.565-3.679-.3352-.6267-.821-1.1125-1.4477-1.4477-.6607-.3533-1.344-.565-3.679-.565z" clip-rule="evenodd"/></defs><g fill="currentColor"><use xlink:href="#a" fill-rule="evenodd" clip-rule="evenodd"/><path d="M13.5913 8.2155c.1981-.2874.621-.2874.8192 0l2.4999 3.9987c.229.3321-.0075.7858-.4096.7858h-5.0016c-.4021 0-.6386-.4537-.4096-.7858zm-.001 11.5728c.1982.287.621.287.8192 0l2.5-4.0036c.2289-.3316-.0076-.7847-.4096-.7847h-5.0017c-.4021 0-.6386.4531-.4096.7847z"/><path d="M13.5913 8.2155c.1981-.2873.621-.2873.8192 0l2.4999 3.9987c.229.3321-.0075.7858-.4096.7858h-5.0016c-.4021 0-.6386-.4537-.4096-.7858zm.8182 11.5728c-.1982.287-.621.287-.8192 0l-2.5017-4.0036c-.229-.3316.0075-.7847.4096-.7847h5.0017c.402 0 .6385.4531.4096.7847z"/><use xlink:href="#a" fill-rule="evenodd" clip-rule="evenodd"/></g></svg>
