<svg height="28" viewBox="0 0 28 28" width="28" xmlns="http://www.w3.org/2000/svg"><g fill="none" fill-rule="evenodd" transform=""><path d="m0 0h28v28h-28z"/><path d="m14 6c5.9940589 0 11.5 4.5566409 11.5 8s-5.5059411 8-11.5 8c-5.99405891 0-11.5-4.5566409-11.5-8s5.50594109-8 11.5-8zm0 2c-4.96427442 0-9.5 3.7537039-9.5 6s4.53572558 6 9.5 6c4.9642744 0 9.5-3.7537039 9.5-6s-4.5357256-6-9.5-6zm0 2c2.209139 0 4 1.790861 4 4s-1.790861 4-4 4-4-1.790861-4-4 1.790861-4 4-4zm0 2c-1.1045695 0-2 .8954305-2 2s.8954305 2 2 2 2-.8954305 2-2-.8954305-2-2-2z" fill="currentColor" fill-rule="nonzero"/></g></svg>
