<svg xmlns="http://www.w3.org/2000/svg" width="28" height="28" fill="none" viewBox="0 0 28 28">
  <rect width="28" height="28" y=".004" fill="url(#a)" rx="14"/>
  <path fill="#fff" fill-rule="evenodd" d="M18.96 18.03c.04-.544.04-1.202.04-1.973v-4.105c0-.771 0-1.43-.04-1.973-.042-.57-.133-1.13-.379-1.674a4.75 4.75 0 0 0-.838-1.27c.64.039 1.095.126 1.483.323a3.25 3.25 0 0 1 1.42 1.42c.354.696.354 1.606.354 3.426v3.6c0 1.82 0 2.73-.354 3.426a3.25 3.25 0 0 1-1.42 1.42c-.388.197-.842.285-1.483.324.343-.373.627-.8.838-1.27.246-.545.337-1.105.38-1.675Z" clip-rule="evenodd"/>
  <path fill="#fff" d="M11.159 12.349a.055.055 0 0 1 .009-.024.052.052 0 0 1 .016-.014.051.051 0 0 1 .02-.007c.004 0 .012 0 .028.005a8.29 8.29 0 0 1 2.748 1.656.08.08 0 0 1 .016.021.05.05 0 0 1 0 .039.062.062 0 0 1-.016.021 8.29 8.29 0 0 1-2.741 1.653.063.063 0 0 1-.028.005.052.052 0 0 1-.02-.007.051.051 0 0 1-.017-.013.056.056 0 0 1-.01-.024 8.502 8.502 0 0 1-.005-3.311Z"/>
  <path fill="#fff" fill-rule="evenodd" d="M7.354 8.779C7 9.474 7 10.384 7 12.204v3.6c0 1.82 0 2.73.354 3.426a3.25 3.25 0 0 0 1.42 1.42c.696.354 1.623.354 3.476.354 1.854 0 2.78 0 3.476-.354a3.25 3.25 0 0 0 1.42-1.42c.354-.695.354-1.606.354-3.426v-3.6c0-1.82 0-2.73-.354-3.425a3.25 3.25 0 0 0-1.42-1.42c-.696-.355-1.623-.355-3.476-.355-1.854 0-2.78 0-3.475.354a3.25 3.25 0 0 0-1.42 1.42Zm2.333 3.28a1.55 1.55 0 0 1 2.055-1.16 9.787 9.787 0 0 1 3.245 1.954 1.55 1.55 0 0 1 0 2.305 9.79 9.79 0 0 1-3.237 1.951 1.55 1.55 0 0 1-2.056-1.155 10.006 10.006 0 0 1-.007-3.894Z" clip-rule="evenodd"/>
  <defs>
    <linearGradient id="a" x1="-14" x2="14" y1="14.004" y2="42.004" gradientUnits="userSpaceOnUse">
      <stop stop-color="#FF5263"/>
      <stop offset="1" stop-color="#FF3347"/>
    </linearGradient>
  </defs>
</svg>

