<svg xmlns="http://www.w3.org/2000/svg" width="28" height="28" fill="none" viewBox="0 0 28 28">
  <circle cx="14" cy="14" r="14" fill="url(#a)"/>
  <path fill="#fff" fill-rule="evenodd" d="M18.96 18.025c.04-.543.04-1.201.04-1.972v-4.106c0-.77 0-1.43-.04-1.972-.042-.57-.133-1.13-.379-1.674a4.75 4.75 0 0 0-.838-1.27c.64.038 1.095.126 1.483.323a3.25 3.25 0 0 1 1.42 1.42C21 9.47 21 10.38 21 12.2v3.6c0 1.82 0 2.73-.354 3.425a3.25 3.25 0 0 1-1.42 1.42c-.388.198-.842.286-1.483.324.343-.372.627-.8.838-1.27.246-.544.337-1.104.38-1.674Z M11.159 12.345a.055.055 0 0 1 .009-.025.052.052 0 0 1 .016-.013.051.051 0 0 1 .02-.007c.004 0 .012 0 .028.005a8.29 8.29 0 0 1 2.748 1.656c.01.01.014.017.016.02a.05.05 0 0 1 0 .04.062.062 0 0 1-.016.02 8.292 8.292 0 0 1-2.741 1.654.063.063 0 0 1-.028.005.052.052 0 0 1-.02-.007.051.051 0 0 1-.017-.013.057.057 0 0 1-.01-.024 8.502 8.502 0 0 1-.005-3.312Z M7.354 8.775C7 9.47 7 10.38 7 12.2v3.6c0 1.82 0 2.73.354 3.425a3.25 3.25 0 0 0 1.42 1.42C9.47 21 10.398 21 12.25 21c1.854 0 2.78 0 3.476-.354a3.25 3.25 0 0 0 1.42-1.42c.354-.696.354-1.606.354-3.426v-3.6c0-1.82 0-2.73-.354-3.425a3.25 3.25 0 0 0-1.42-1.42C15.03 7 14.103 7 12.25 7c-1.854 0-2.78 0-3.475.354a3.25 3.25 0 0 0-1.42 1.42Zm2.333 3.28a1.551 1.551 0 0 1 2.055-1.16 9.79 9.79 0 0 1 3.245 1.954 1.55 1.55 0 0 1 0 2.304 9.79 9.79 0 0 1-3.237 1.952c-.9.326-1.869-.22-2.056-1.155a10.005 10.005 0 0 1-.007-3.894Z" clip-rule="evenodd"/>
  <defs>
    <linearGradient id="a" x1="0" x2="28.733" y1="0" y2=".773" gradientUnits="userSpaceOnUse">
      <stop stop-color="#FF5263"/>
      <stop offset="1" stop-color="#FF3347"/>
    </linearGradient>
  </defs>
</svg>
