<svg fill="none" height="28" viewBox="0 0 28 28" width="28" xmlns="http://www.w3.org/2000/svg"><g fill="currentColor"><path d="m12 3c0 .55228-.4477 1-1 1-3.86599 0-7 3.13401-7 7 0 .5523-.44772 1-1 1-.55229 0-1-.4477-1-1 0-4.97056 4.02944-9 9-9 .5523 0 1 .44771 1 1z"/><path d="m12 25c0-.5523-.4477-1-1-1-3.86599 0-7-3.134-7-7 0-.5523-.44772-1-1-1s-1 .4477-1 1c0 4.9706 4.02944 9 9 9 .5523 0 1-.4477 1-1z"/><path d="m9.75 11c.9665 0 1.75.7835 1.75 1.75s-.7835 1.75-1.75 1.75-1.75-.7835-1.75-1.75.7835-1.75 1.75-1.75zm7.1452.8781c1.0332-.5558 2.2243-.5558 3.2738.3851.4105.3681.4438.998.0743 1.407s-1.0018.4421-1.4123.074l-.1004-.0822c-.2977-.2202-.5649-.203-.8851-.0307-.0968.052-.162.0999-.1765.1129l-.0985.0779c-.4078.2829-.9728.2256-1.3138-.1519-.3695-.409-.3362-1.0389.0743-1.407.1244-.1114.3138-.2504.5642-.3851z"/><path d="m16 16.5c.5523 0 .9994.4495.9212.9963-.037.2591-.087.5007-.1496.6518-.1507.3639-.3717.6946-.6503.9732s-.6093.4996-.9732.6503c-.364.1508-.7541.2284-1.1481.2284s-.7841-.0776-1.1481-.2284c-.3639-.1507-.6946-.3717-.9732-.6503s-.4996-.6093-.6503-.9732c-.0626-.1511-.1126-.3927-.1496-.6518-.0782-.5468.3689-.9963.9212-.9963z"/><path d="m16 3c0 .55228.4477 1 1 1 3.866 0 7 3.13401 7 7 0 .5523.4477 1 1 1s1-.4477 1-1c0-4.97056-4.0294-9-9-9-.5523 0-1 .44771-1 1z"/><path d="m16 25c0-.5523.4477-1 1-1 3.866 0 7-3.134 7-7 0-.5523.4477-1 1-1s1 .4477 1 1c0 4.9706-4.0294 9-9 9-.5523 0-1-.4477-1-1z"/></g></svg>
