<?xml version="1.0" encoding="UTF-8"?>
<svg width="28px" height="28px" viewBox="0 0 28 28" version="1.1" xmlns="http://www.w3.org/2000/svg" xmlns:xlink="http://www.w3.org/1999/xlink">
    <!-- Generator: Sketch 63.1 (92452) - https://sketch.com -->
    <title>voice_outline_28</title>
    <desc>Created with Sketch.</desc>
    <g id="Page-1" stroke="none" stroke-width="1" fill="none" fill-rule="evenodd">
        <g id="voice_outline_28">
            <polygon points="0 0 28 0 28 28 0 28"></polygon>
            <path d="M23,12 C23.5522847,12 24,12.4477153 24,13 C24,18.1849719 20.0538953,22.4482817 15.0010997,22.9505155 L15,25 C15,25.5522847 14.5522847,26 14,26 C13.4477153,26 13,25.5522847 13,25 L12.9998991,22.9506147 C7.94662476,22.4488436 4,18.1853136 4,13 C4,12.4477153 4.44771525,12 5,12 C5.55228475,12 6,12.4477153 6,13 C6,17.418278 9.581722,21 14,21 C18.418278,21 22,17.418278 22,13 C22,12.4477153 22.4477153,12 23,12 Z M14,2 C17.3137085,2 20,4.6862915 20,8 L20,13 C20,16.3137085 17.3137085,19 14,19 C10.6862915,19 8,16.3137085 8,13 L8,8 C8,4.6862915 10.6862915,2 14,2 Z M14,4 C11.790861,4 10,5.790861 10,8 L10,8 L10,13 C10,15.209139 11.790861,17 14,17 C16.209139,17 18,15.209139 18,13 L18,13 L18,8 C18,5.790861 16.209139,4 14,4 Z" id="↳-Icon-Color" fill="currentColor" fill-rule="nonzero"></path>
        </g>
    </g>
</svg>
