<?xml version="1.0" encoding="UTF-8"?>
<svg width="28px" height="28px" viewBox="0 0 28 28" version="1.1" xmlns="http://www.w3.org/2000/svg" xmlns:xlink="http://www.w3.org/1999/xlink">
    <!-- Generator: Sketch 63.1 (92452) - https://sketch.com -->
    <title>volume_outline_28</title>
    <desc>Created with Sketch.</desc>
    <g id="Page-1" stroke="none" stroke-width="1" fill="none" fill-rule="evenodd">
        <g id="volume_outline_28">
            <rect x="0" y="0" width="28" height="28"></rect>
            <path d="M16,4 C17.1045695,4 18,4.8954305 18,6 L18,6 L18,22 C18,23.1045695 17.1045695,24 16,24 C15.0944943,24 14.2260757,23.6402892 13.5857864,23 L13.5857864,23 L8.58578644,18 L6.45833333,18 C5.10063332,18 4,16.8993667 4,15.5416667 L4,15.5416667 L4,12.4583333 C4,11.1006333 5.10063332,10 6.45833333,10 L6.45833333,10 L8.58578644,10 L13.5857864,5 C14.2260757,4.35971075 15.0944943,4 16,4 Z M16,6 C15.6249272,6 15.2652165,6.14899707 15,6.41421356 L15,6.41421356 L9.70710678,11.7071068 C9.5195704,11.8946432 9.26521649,12 9,12 L9,12 L6.45833333,12 C6.20520282,12 6,12.2052028 6,12.4583333 L6,12.4583333 L6,15.5416667 C6,15.7947972 6.20520282,16 6.45833333,16 L6.45833333,16 L9,16 C9.26521649,16 9.5195704,16.1053568 9.70710678,16.2928932 L9.70710678,16.2928932 L15,21.5857864 C15.2652165,21.8510029 15.6249272,22 16,22 L16,22 Z M23.8644066,7.4356938 C24.2549309,7.0451695 24.8880959,7.0451695 25.2786202,7.4356938 C28.9039873,11.0610609 28.9039873,16.9389424 25.2786202,20.5643095 C24.8880959,20.9548338 24.2549309,20.9548338 23.8644066,20.5643095 C23.4738823,20.1737853 23.4738823,19.5406203 23.8644066,19.150096 C26.7087252,16.3057774 26.7087252,11.6942259 23.8644066,8.84990736 C23.4738823,8.45938307 23.4738823,7.82621809 23.8644066,7.4356938 Z M20.8945599,10.4055372 C21.2850842,10.0150129 21.9182492,10.0150129 22.3087734,10.4055372 C24.2939386,12.3907023 24.2939386,15.609291 22.3087734,17.5944561 C21.9182492,17.9849804 21.2850842,17.9849804 20.8945599,17.5944561 C20.5040356,17.2039318 20.5040356,16.5707669 20.8945599,16.1802426 C22.0986765,14.976126 22.0986765,13.0238673 20.8945599,11.8197508 C20.5040356,11.4292265 20.5040356,10.7960615 20.8945599,10.4055372 Z" id="↳-Icon-Color" fill="currentColor" fill-rule="nonzero"></path>
        </g>
    </g>
</svg>
