<svg fill="none" height="28" viewBox="0 0 28 28" width="28" xmlns="http://www.w3.org/2000/svg" xmlns:xlink="http://www.w3.org/1999/xlink"><linearGradient id="a" gradientUnits="userSpaceOnUse" x1="-14" x2="14" y1="14" y2="42"><stop offset="0" stop-color="#b1b6bd"/><stop offset="1" stop-color="#99a2ad"/></linearGradient><path d="m0 14c0-7.73199 6.26801-14 14-14 7.732 0 14 6.26801 14 14 0 7.732-6.268 14-14 14-7.73199 0-14-6.268-14-14z" fill="url(#a)"/><path clip-rule="evenodd" d="m6.92291 11.5h2.07709l3.2929-3.29292c.3905-.39053 1.0237-.39053 1.4142 0 .1875.18753.2929.44189.2929.7071v10.17162c0 .5522-.4477 1-1 1-.2652 0-.5196-.1054-.7071-.2929l-3.2929-3.2929h-2.07709c-.66864 0-.9111-.0696-1.15554-.2004-.24445-.1307-.43629-.3226-.56702-.567s-.20035-.4869-.20035-1.1555v-1.1542c0-.6687.06962-.9111.20035-1.1556.13073-.2444.32257-.4362.56702-.567.24444-.1307.4869-.2003 1.15554-.2003zm9.52629-.7876c.3771-.3239.9453-.2807 1.2692.0963.7359.8569 1.1816 1.9732 1.1816 3.1913 0 1.2157-.4439 2.3301-1.1774 3.1863-.3233.3775-.8915.4214-1.269.098-.3775-.3233-.4214-.8915-.098-1.269.4646-.5424.7444-1.245.7444-2.0153 0-.7718-.2809-1.4756-.7471-2.0185-.3239-.377-.2807-.9453.0963-1.2691zm4.0441-2.3898c-.3571-.34567-.9269-.33633-1.2726.02085s-.3363.92695.0209 1.27262c1.147 1.11003 1.8584 2.66313 1.8584 4.38393 0 1.721-.7116 3.2743-1.8589 4.3844-.3572.3456-.3666.9154-.021 1.2726s.9154.3666 1.2726.021c1.4833-1.4352 2.4073-3.4495 2.4073-5.678 0-2.2282-.9237-4.24225-2.4067-5.6774z" fill="#fff" fill-rule="evenodd"/></svg>
