<?xml version="1.0" encoding="UTF-8"?>
<svg width="28px" height="28px" viewBox="0 0 28 28" version="1.1" xmlns="http://www.w3.org/2000/svg" xmlns:xlink="http://www.w3.org/1999/xlink">
    <!-- Generator: Sketch 63.1 (92452) - https://sketch.com -->
    <title>wallet_outline_28</title>
    <desc>Created with Sketch.</desc>
    <g id="Page-1" stroke="none" stroke-width="1" fill="none" fill-rule="evenodd">
        <g id="wallet_outline_28">
            <polygon points="0 0 28 0 28 28 0 28"></polygon>
            <path d="M17.7951435,4 C18.962129,4 19.5649742,4.11641478 20.192656,4.45210268 C20.7743319,4.76318635 21.2368137,5.22566813 21.5478973,5.80734401 C21.8654399,6.40109708 21.9867739,6.97262599 21.9989633,8.02046757 C22.8440347,8.0747324 23.382129,8.22220852 23.9368674,8.51888586 C24.6000248,8.8735463 25.1264537,9.39997522 25.4811141,10.0631326 C25.8663256,10.7834154 26,11.4756382 26,12.8458278 L26,19.1541722 C26,20.5243618 25.8663256,21.2165846 25.4811141,21.9368674 C25.1264537,22.6000248 24.6000248,23.1264537 23.9368674,23.4811141 C23.2165846,23.8663256 22.5243618,24 21.1541722,24 L6.8458278,24 C5.47563815,24 4.78341544,23.8663256 4.06313259,23.4811141 C3.39997522,23.1264537 2.8735463,22.6000248 2.51888586,21.9368674 C2.13367437,21.2165846 2,20.5243618 2,19.1541722 L2,8 L2.002,8 L2.00211335,7.9452984 C2.01920744,6.94497863 2.14223692,6.38674261 2.45210268,5.80734401 C2.76318635,5.22566813 3.22566813,4.76318635 3.80734401,4.45210268 C4.43502582,4.11641478 5.03787101,4 6.2048565,4 L17.7951435,4 Z M21.1541722,10 L4,10 L4,19.1541722 C4,20.2224324 4.07344079,20.60274 4.28251225,20.9936697 C4.45077309,21.3082901 4.69170989,21.5492269 5.0063303,21.7174877 C5.39725995,21.9265592 5.77756757,22 6.8458278,22 L21.1541722,22 C22.2224324,22 22.60274,21.9265592 22.9936697,21.7174877 C23.3082901,21.5492269 23.5492269,21.3082901 23.7174877,20.9936697 C23.9265592,20.60274 24,20.2224324 24,19.1541722 L24,12.8458278 C24,11.7775676 23.9265592,11.39726 23.7174877,11.0063303 C23.5492269,10.6917099 23.3082901,10.4507731 22.9936697,10.2825123 C22.60274,10.0734408 22.2224324,10 21.1541722,10 Z M20,15 C20.5522847,15 21,15.4477153 21,16 C21,16.5522847 20.5522847,17 20,17 L18,17 C17.4477153,17 17,16.5522847 17,16 C17,15.4477153 17.4477153,15 18,15 L20,15 Z M17.7951435,6 L6.2048565,6 C5.33980043,6 5.04887034,6.05618119 4.75054173,6.21572908 C4.5174028,6.34041314 4.34041314,6.5174028 4.21572908,6.75054173 C4.06949177,7.02398173 4.01009347,7.29120619 4.00120047,8 L19.9987995,8 C19.9899065,7.29120619 19.9305082,7.02398173 19.7842709,6.75054173 C19.6595869,6.5174028 19.4825972,6.34041314 19.2494583,6.21572908 C18.9511297,6.05618119 18.6601996,6 17.7951435,6 Z" id="↳-Icon-Color" fill="currentColor" fill-rule="nonzero"></path>
        </g>
    </g>
</svg>
