<svg xmlns="http://www.w3.org/2000/svg" width="28" height="28" fill="currentColor" viewBox="0 0 28 28"><path fill-rule="evenodd" d="M20.423 3.421a1 1 0 1 0-1.776.92 21 21 0 0 1-.001 19.32 1 1 0 0 0 1.776.92 23.001 23.001 0 0 0 0-21.16Zm-5.66 2.09a1 1 0 0 1 1.34.448 18 18 0 0 1 0 16.084 1 1 0 1 1-1.79-.894 16 16 0 0 0 .002-14.297 1 1 0 0 1 .447-1.341Zm-2.98 2.995a1 1 0 0 0-1.813.846 11 11 0 0 1 0 9.294 1 1 0 1 0 1.813.845 13 13 0 0 0 0-10.985ZM7.46 11.11a1 1 0 0 0-1.865.722 6 6 0 0 1-.004 4.346 1 1 0 1 0 1.864.725 8 8 0 0 0 .005-5.793Z" clip-rule="evenodd"/></svg>
