<svg fill="none" height="28" viewBox="0 0 28 28" width="28" xmlns="http://www.w3.org/2000/svg"><path clip-rule="evenodd" d="m13.4598 3h1.0804c.6658-.00001 1.2254-.00003 1.6832.03738.4787.03912.9337.12406 1.3656.3441.6585.33556 1.194.87099 1.5295 1.52955.2201.43186.305.88682.3441 1.36554.0468.57257.0374 1.14949.0374 1.72343h1.5402c.6658-.00001 1.2254-.00003 1.6832.03738.4787.03912.9337.12406 1.3656.3441.6585.33556 1.194.87099 1.5295 1.52955.2201.43187.305.88687.3441 1.36557.0374.4578.0374 1.0173.0374 1.6832v1.6763c0 .3891 0 .7392-.0238 1.0305-.09 1.1024-.8499 2.0678-1.9762 2.2678 0 .7719.0187 1.5475-.0442 2.3174-.0459.5621-.1445 1.0788-.3918 1.5642-.3835.7526-.9954 1.3645-1.748 1.748-.4854.2473-1.0021.3459-1.5642.3918-.5412.0442-1.2055.0442-2.0105.0442h-8.4826c-.80496 0-1.46934 0-2.01053-.0442-.5621-.0459-1.0788-.1445-1.56414-.3918-.75264-.3835-1.36457-.9954-1.74806-1.748-.24729-.4854-.34585-1.0021-.39178-1.5642-.0629-.7699-.04419-1.5455-.04419-2.3174-1.12629-.2-1.88618-1.1654-1.97625-2.2678-.0238-.2913-.02378-.6414-.02376-1.0304l.00001-1.6764c-.00002-.6658-.00003-1.2254.03738-1.6832.03911-.4787.12405-.9337.34409-1.36557.33556-.65856.87099-1.19399 1.52956-1.52955.43186-.22004.88682-.30498 1.36554-.3441.45787-.03741 1.01738-.03739 1.68324-.03738h1.54019c-.00001-.57394-.0094-1.15086.03738-1.72343.03911-.47872.12405-.93368.34409-1.36554.33556-.65856.87099-1.19399 1.52953-1.52955.4319-.22004.8868-.30498 1.3656-.3441.4578-.03741 1.0174-.03739 1.6832-.03738zm-8.0598 13h17.2c.4365 0 .7038-.0008.9038-.0171.3056-.025.4557-.1936.4791-.4791.0163-.2.0171-.4673.0171-.9038v-1.6c0-.7166-.0008-1.1938-.0307-1.5606-.0291-.355-.0804-.5175-.1328-.6204-.1438-.2822-.3733-.5117-.6555-.6555-.1029-.0524-.2654-.1038-.6204-.1328-.3668-.0299-.844-.0307-1.5606-.0307h-14c-.71657 0-1.19385.0008-1.56057.0307-.35504.029-.5175.0804-.62042.1328-.28224.1438-.51171.3733-.65552.6555-.05244.1029-.10375.2654-.13275.6204-.02997.3668-.03074.844-.03074 1.5606v1.6c0 .4365.00077.7038.01711.9038.02542.3111.18678.4552.47912.4791.19996.0163.46723.0171.90377.0171zm.6 2c0 .6954-.01913 1.3953.03755 2.089.03582.4384.10074.6626.18043.819.19175.3763.49771.6823.87404.874.1564.0797.3806.1446.81901.1805.45009.0367 1.03239.0375 1.88897.0375h8.4c.8566 0 1.4389-.0008 1.889-.0375.4384-.0359.6626-.1008.819-.1805.3763-.1917.6823-.4977.874-.874.0797-.1564.1446-.3806.1804-.819.0567-.6937.0376-1.3936.0376-2.089zm11.4693-11.56056c.0299.36671.0307.844.0307 1.56056h-7c0-.71656.0008-1.19385.0307-1.56056.029-.35504.0803-.5175.1328-.62042.1438-.28225.3733-.51172.6555-.65553.1029-.05244.2654-.10374.6204-.13275.3667-.02996.844-.03074 1.5606-.03074h1c.7166 0 1.1938.00078 1.5606.03074.355.02901.5175.08031.6204.13275.2822.14381.5117.37328.6555.65553.0524.10292.1037.26538.1328.62042z" fill="currentColor" fill-rule="evenodd"/></svg>
