<svg xmlns="http://www.w3.org/2000/svg" width="28" height="28" fill="currentColor" viewBox="0 0 28 28"><path fill-rule="evenodd" d="M16.49 19c4.15 0 7.51-3.36 7.51-7.5 0-.219-.008-.435-.027-.648l-2.273 2.27a3 3 0 0 1-2.12.878h-2.59a3 3 0 0 1-3-3V8.415a3 3 0 0 1 .88-2.123l2.267-2.265A7.65 7.65 0 0 0 16.49 4c-4.15 0-7.51 3.36-7.51 7.5 0 .593.068 1.167.197 1.717.226.963-.003 2.075-.803 2.873l-2.788 2.786a1.994 1.994 0 0 0 0 2.823l.711.71a2.005 2.005 0 0 0 2.833 0l2.802-2.798a3.069 3.069 0 0 1 2.86-.803A7.551 7.551 0 0 0 16.49 19Zm0 2c5.253 0 9.51-4.253 9.51-9.5 0-1.113-.19-2.18-.542-3.173-.225-.635-1.027-.759-1.504-.283l-3.667 3.663a1 1 0 0 1-.707.293h-2.59a1 1 0 0 1-1-1V8.415a1 1 0 0 1 .293-.708l3.665-3.66c.477-.477.353-1.28-.283-1.505A9.505 9.505 0 0 0 16.49 2c-5.252 0-9.51 4.253-9.51 9.5 0 .748.086 1.475.25 2.173.084.36-.008.742-.27 1.002L4.173 17.46a3.995 3.995 0 0 0 0 5.654l.712.71a4.005 4.005 0 0 0 5.66 0l2.802-2.798c.26-.26.64-.352.997-.27.69.16 1.409.244 2.147.244Z" clip-rule="evenodd"/></svg>
