<svg fill="none" height="28" viewBox="0 0 28 28" width="28" xmlns="http://www.w3.org/2000/svg"><g stroke="#000" stroke-width="2"><path d="m18 7-.4784-2.39223c-.187-.93485-1.0078-1.60777-1.9612-1.60777h-3.1208c-.9534 0-1.7742.67292-1.9612 1.60777l-.4784 2.39223"/><path d="m10 21 .4784 2.3922c.187.9349 1.0078 1.6078 1.9612 1.6078h3.1208c.9534 0 1.7742-.6729 1.9612-1.6078l.4784-2.3922"/><path d="m22 14c0 4.4183-3.5817 8-8 8-4.41828 0-8-3.5817-8-8 0-4.41828 3.58172-8 8-8 4.4183 0 8 3.58172 8 8z"/></g><path d="m22 13c0-.5523.4477-1 1-1s1 .4477 1 1v2c0 .5523-.4477 1-1 1s-1-.4477-1-1z" fill="currentColor"/><path d="m14 10v4l3.5 1.5" stroke="#000" stroke-linecap="round" stroke-linejoin="round" stroke-width="2"/><path clip-rule="evenodd" d="m9.49786 4.41165c.28045-1.40227 1.51174-2.41165 2.94174-2.41165h3.1208c1.43 0 2.6613 1.00938 2.9417 2.41165l.4091 2.04519c1.9738 1.28772 3.411 3.32919 3.9032 5.71596.6987.3118 1.1856 1.0127 1.1856 1.8272s-.4869 1.5154-1.1856 1.8272c-.4922 2.3868-1.9294 4.4282-3.9032 5.7159l-.4091 2.0452c-.2804 1.4023-1.5117 2.4117-2.9417 2.4117h-3.1208c-1.43 0-2.66127-1.0094-2.94172-2.4117l-.40904-2.0451c-2.46174-1.6061-4.08884-4.3846-4.08884-7.5432s1.62709-5.93709 4.08882-7.54315zm1.84204.98795c.8407-.25974 1.7341-.3996 2.6601-.3996s1.8194.13985 2.6601.39959l-.1191-.59571c-.0935-.46742-.5039-.80388-.9806-.80388h-3.1208c-.4767 0-.8871.33646-.9806.80388zm0 17.2008.1191.5957c.0935.4674.5039.8039.9806.8039h3.1208c.4767 0 .8871-.3365.9806-.8039l.1191-.5957c-.8407.2597-1.7341.3996-2.6601.3996s-1.8194-.1399-2.6601-.3996zm9.6601-8.6004c0 3.866-3.134 7-7 7s-7-3.134-7-7 3.134-7 7-7 7 3.134 7 7zm-6-4c0-.55228-.4477-1-1-1s-1 .44772-1 1v4c0 .4.2384.7616.6061.9191l3.5 1.5c.5076.2176 1.0955-.0176 1.313-.5252.2176-.5076-.0176-1.0955-.5252-1.313l-2.8939-1.2403z" fill="currentColor" fill-rule="evenodd"/></svg>
