<svg width="28" height="28" viewBox="0 0 28 28" fill="none" xmlns="http://www.w3.org/2000/svg">
<path fill-rule="evenodd" clip-rule="evenodd" d="M21.782 3.3354C20.9264 2.89943 19.9137 2.89943 19.0581 3.3354C18.6302 3.5534 18.2582 3.92634 17.8279 4.35782L4.67698 17.5088C4.32287 17.8628 4.06847 18.117 3.85947 18.4047C3.44206 18.9792 3.16654 19.6444 3.05545 20.3458C2.99983 20.697 2.99991 21.0567 3.00003 21.5573L3.00005 22.6L2.99985 22.681C2.99882 22.9628 2.99756 23.3091 3.09793 23.618C3.29577 24.2269 3.77314 24.7043 4.38201 24.9021C4.69094 25.0025 5.0373 25.0012 5.31907 25.0002L5.40005 25L6.44273 25C6.94338 25.0001 7.30306 25.0002 7.65425 24.9446C8.35566 24.8335 9.02081 24.558 9.59533 24.1406C9.883 23.9316 10.1373 23.6772 10.4912 23.3231L23.6422 10.1722C24.0737 9.74181 24.4466 9.36981 24.6646 8.94197C25.1006 8.08632 25.1006 7.07368 24.6646 6.21803C24.4467 5.7902 24.0737 5.41821 23.6423 4.98784L23.0122 4.35782C22.5819 3.92635 22.2099 3.5534 21.782 3.3354ZM19.9661 5.11742C20.2513 4.97209 20.5888 4.97209 20.874 5.11742C20.9796 5.1712 21.1114 5.28552 21.6928 5.867L22.133 6.30721C22.7145 6.88869 22.8288 7.02046 22.8826 7.12601C23.028 7.41123 23.028 7.74877 22.8826 8.03399C22.8288 8.13954 22.7145 8.27131 22.133 8.85279L21.275 9.71081L18.2892 6.72502L19.1473 5.867C19.7287 5.28552 19.8605 5.1712 19.9661 5.11742ZM16.875 8.13924L6.14233 18.8719C5.71687 19.2974 5.58239 19.4359 5.4775 19.5803C5.24561 19.8995 5.09254 20.269 5.03083 20.6587C5.00291 20.8349 5.00005 21.028 5.00005 21.6296V22.6C5.00005 22.797 5.00039 22.9048 5.00467 22.983L5.00536 22.9947L5.01702 22.9954C5.09529 22.9997 5.20302 23 5.40005 23H6.3704C6.97209 23 7.16513 22.9971 7.34138 22.9692C7.73105 22.9075 8.10058 22.7545 8.41976 22.5226C8.56413 22.4177 8.70266 22.2832 9.12812 21.8577L19.8608 11.125L16.875 8.13924Z" fill="currentColor"/>
</svg>
