<svg fill="none" height="28" viewBox="0 0 28 28" width="28" xmlns="http://www.w3.org/2000/svg"><path clip-rule="evenodd" d="m14 4h1.2c1.5731 0 2.6327.00156 3.4495.06829.7935.06483 1.1801.18106 1.4395.31319.6585.33555 1.194.87099 1.5295 1.52955.1322.25932.2484.64599.3132 1.43944.0667.81681.0683 1.87638.0683 3.44953v6.4c0 1.5731-.0016 2.6327-.0683 3.4495-.0648.7935-.181 1.1801-.3132 1.4395-.3355.6585-.871 1.194-1.5295 1.5295-.2594.1322-.646.2484-1.4395.3132-.8168.0667-1.8764.0683-3.4495.0683h-2.4c-1.5731 0-2.6327-.0016-3.44953-.0683-.79345-.0648-1.18012-.181-1.43944-.3132-.65856-.3355-1.194-.871-1.52955-1.5295-.13213-.2594-.24836-.646-.31319-1.4395-.06673-.8168-.06829-1.8764-.06829-3.4495v-6.4c0-1.57315.00156-2.63272.06829-3.44953.06483-.79345.18106-1.18012.31319-1.43944.33555-.65856.87099-1.194 1.52955-1.52955.25932-.13213.64599-.24836 1.43944-.31319.67003-.05474 1.50333-.06563 2.64953-.06777v1.19948c0 .28003 0 .42004.0545.527.0479.09408.1244.17057.2185.2185.107.0545.247.0545.527.0545h1.2v2h-1.2c-.28 0-.42 0-.527.0545-.0941.04793-.1706.12442-.2185.2185-.0545.10696-.0545.24697-.0545.527v.4c0 .28003 0 .42004.0545.527.0479.09408.1244.17057.2185.2185.107.0545.247.0545.527.0545h1.2v1.2c0 .28 0 .42.0545.527.0479.0941.1244.1706.2185.2185.107.0545.247.0545.527.0545h.4c.28 0 .42 0 .527-.0545.0941-.0479.1706-.1244.2185-.2185.0545-.107.0545-.247.0545-.527v-.4c0-.28 0-.42-.0545-.527-.0479-.0941-.1244-.1706-.2185-.2185-.107-.0545-.247-.0545-.527-.0545h-1.2v-2h1.2c.28 0 .42 0 .527-.0545.0941-.04793.1706-.12442.2185-.2185.0545-.10696.0545-.24697.0545-.527v-.4c0-.28003 0-.42004-.0545-.527-.0479-.09408-.1244-.17057-.2185-.2185-.107-.0545-.247-.0545-.527-.0545h-1.2zm-10 6.8c0-3.08029 0-4.62043.59946-5.79695.52731-1.03489 1.3687-1.87628 2.40359-2.40359 1.17652-.59946 2.71666-.59946 5.79695-.59946h2.4c3.0803 0 4.6204 0 5.7969.59946 1.0349.52731 1.8763 1.3687 2.4036 2.40359.5995 1.17652.5995 2.71666.5995 5.79695v6.4c0 3.0803 0 4.6204-.5995 5.7969-.5273 1.0349-1.3687 1.8763-2.4036 2.4036-1.1765.5995-2.7166.5995-5.7969.5995h-2.4c-3.08029 0-4.62043 0-5.79695-.5995-1.03489-.5273-1.87628-1.3687-2.40359-2.4036-.59946-1.1765-.59946-2.7166-.59946-5.7969zm12 5.2v-1.2c0-.28 0-.42-.0545-.527-.0479-.0941-.1244-.1706-.2185-.2185-.107-.0545-.247-.0545-.527-.0545h-2.4c-.28 0-.42 0-.527.0545-.0941.0479-.1706.1244-.2185.2185-.0545.107-.0545.247-.0545.527v1.2c0 1.1046.8954 2 2 2s2-.8954 2-2z" fill="currentColor" fill-rule="evenodd"/></svg>
