<svg fill="none" height="96" viewBox="0 0 96 96" width="96" xmlns="http://www.w3.org/2000/svg"><g fill="currentColor"><path d="m36 45c0 1.6569-1.3431 3-3 3s-3-1.3431-3-3 1.3431-3 3-3 3 1.3431 3 3z"/><path d="m66 45c0 1.6569-1.3431 3-3 3s-3-1.3431-3-3 1.3431-3 3-3 3 1.3431 3 3z"/><g clip-rule="evenodd" fill-rule="evenodd"><path d="m36 45c0 1.6569-1.3431 3-3 3s-3-1.3431-3-3 1.3431-3 3-3 3 1.3431 3 3zm30 0c0 1.6569-1.3431 3-3 3s-3-1.3431-3-3 1.3431-3 3-3 3 1.3431 3 3z"/><path d="m72.1012 30.1037c-1.2697-.1038-2.8257-.1037-4.699-.1037h-1.4022c0-9.9411-7.9589-18-17.9-18-9.9412 0-18.1 8.0589-18.1 18h-1.4022c-1.8733 0-3.4293-.0001-4.699.1037-1.3218.108-2.5518.3408-3.7117.9317-1.7875.9108-3.2409 2.3642-4.1517 4.1517-.5909 1.1599-.8237 2.3899-.9317 3.7117-.1038 1.2697-.1037 2.8257-.1037 4.699v15.6126c0 3.8269 0 6.8518.199 9.2884.2034 2.4891.6269 4.5835 1.5994 6.492 1.5819 3.1047 4.1061 5.6289 7.2108 7.2108 1.9085.9725 4.0029 1.396 6.4921 1.5994 2.4365.199 5.4614.199 9.2882.199h16.421c3.8268 0 6.8517 0 9.2883-.199 2.4891-.2034 4.5835-.6269 6.492-1.5994 3.1047-1.5819 5.6289-4.1061 7.2108-7.2108.9725-1.9085 1.396-4.0029 1.5994-6.492.199-2.4366.199-5.4615.199-9.2883v-15.6128c0-1.8732.0001-3.4292-.1037-4.6989-.108-1.3218-.3408-2.5518-.9317-3.7117-.9108-1.7875-2.3641-3.2409-4.1517-4.1517-1.1598-.5909-2.3899-.8237-3.7117-.9317zm-47.7952 4.9834c-1.0127.0827-1.5114.2314-1.849.4034-.8467.4314-1.5351 1.1198-1.9665 1.9665-.172.3376-.3207.8363-.4034 1.849-.0852 1.0418-.0871 2.3926-.0871 4.394v15.4c0 3.9616.002 6.7825.1824 8.9916.1782 2.1799.5176 3.5431 1.071 4.6293 1.1026 2.1639 2.8619 3.9231 5.0257 5.0257 1.0862.5534 2.4494.8929 4.6293 1.071 2.2091.1805 5.03.1824 8.9916.1824h16.2c3.9616 0 6.7825-.0019 8.9916-.1824 2.1799-.1781 3.5431-.5176 4.6293-1.071 2.1639-1.1026 3.9231-2.8618 5.0257-5.0257.5534-1.0862.8929-2.4494 1.071-4.6293.1805-2.2091.1824-5.03.1824-8.9916v-15.4c0-2.0014-.0019-3.3522-.0871-4.394-.0827-1.0127-.2314-1.5114-.4034-1.849-.4314-.8467-1.1198-1.5351-1.9665-1.9665-.3376-.172-.8363-.3207-1.849-.4034-1.0418-.0852-2.3926-.0871-4.394-.0871h-38.6c-2.0014 0-3.3522.0019-4.394.0871zm23.794-18.0871c-7.1797 0-13.1 5.8203-13.1 13h26c0-7.1797-5.7203-13-12.9-13z"/></g></g></svg>
