<svg fill="none" height="96" viewBox="0 0 96 96" width="96" xmlns="http://www.w3.org/2000/svg"><g clip-rule="evenodd" fill="currentColor" fill-rule="evenodd"><path d="m27.1943 14h30.6054c2.1515 0 3.9171-.0001 5.3532.1173 1.4885.1216 2.8419.3817 4.1086 1.0271 1.9755 1.0067 3.5816 2.613 4.5882 4.5887 1.0174 1.9969 1.115 4.3352 1.1393 7.246l.0001.5237c0 1.3807-1.1192 2.5-2.4997 2.5-1.3806 0-2.4998-1.1193-2.4998-2.5v-.4923c-.0262-3.0888-.1963-4.2258-.5945-5.0074-.5273-1.0349-1.3686-1.8763-2.4034-2.4036-.4444-.2265-1.0666-.4024-2.2459-.4988-1.2085-.0988-2.769-.1007-5.0503-.1007h-30.397c-2.2812 0-3.8418.0019-5.0503.1007-1.1793.0964-1.8015.2723-2.2459.4988-1.0348.5273-1.8761 1.3687-2.4034 2.4036-.2264.4444-.4024 1.0667-.4987 2.2461-.0987 1.2086-.1007 2.7693-.1007 5.0508v38.4c0 2.2815.002 3.8422.1007 5.0508.0963 1.1794.2723 1.8017.4987 2.2462.5273 1.0348 1.3686 1.8762 2.4034 2.4035.4444.2265 1.0666.4025 2.2459.4988 1.2085.0988 2.7691.1007 5.0503.1007h30.397c2.2813 0 3.8418-.0019 5.0503-.1007 1.1793-.0963 1.8015-.2723 2.2459-.4988 1.0348-.5273 1.8761-1.3687 2.4034-2.4036.3985-.7821.5679-1.9201.5937-5.0177l.0059-.5061c.016-1.3806 1.1481-2.4868 2.5286-2.4708 1.3805.0161 2.4866 1.1483 2.4705 2.5289l-.0057.4944c-.0243 2.9077-.1214 5.2452-1.1384 7.2413-1.0066 1.9757-2.6127 3.582-4.5882 4.5887-1.2667.6454-2.6201.9055-4.1086 1.0271-1.4361.1174-3.2017.1173-5.3532.1173h-30.6054c-2.1515 0-3.9171.0001-5.3532-.1173-1.4885-.1216-2.8419-.3817-4.1086-1.0271-1.9755-1.0067-3.5816-2.613-4.5882-4.5887-.6454-1.2668-.9054-2.6203-1.027-4.1089-.1174-1.4364-.1173-3.2021-.1173-5.3538v-38.6084c0-2.1517-.0001-3.9174.1173-5.3538.1216-1.4886.3816-2.8421 1.027-4.1089 1.0066-1.9757 2.6127-3.582 4.5882-4.5887 1.2667-.6454 2.6201-.9055 4.1086-1.0271 1.4362-.1174 3.2018-.1173 5.3532-.1173z"/><path d="m23.9988 34.5c0-1.3807 1.1192-2.5 2.4998-2.5h31.9968c1.3806 0 2.4998 1.1193 2.4998 2.5s-1.1192 2.5-2.4998 2.5h-31.9968c-1.3806 0-2.4998-1.1193-2.4998-2.5z"/><path d="m23.9988 48.5c0-1.3807 1.1192-2.5 2.4998-2.5h19.998c1.3806 0 2.4998 1.1193 2.4998 2.5s-1.1192 2.5-2.4998 2.5h-19.998c-1.3806 0-2.4998-1.1193-2.4998-2.5z"/><path d="m23.9988 62.5c0-1.3807 1.1192-2.5 2.4998-2.5h11.9988c1.3806 0 2.4998 1.1193 2.4998 2.5s-1.1192 2.5-2.4998 2.5h-11.9988c-1.3806 0-2.4998-1.1193-2.4998-2.5z"/><path d="m80.4404 32.2618c-1.1046-.3589-2.2944-.3589-3.3989 0-.7813.2539-1.3892.6869-1.8901 1.1121-.4615.3919-.9696.9001-1.5119 1.4426l-20.0996 20.1014-.1623.1623c-.8795.8783-1.5996 1.5974-2.1289 2.4613-.466.7605-.8094 1.5897-1.0176 2.457-.2365.9852-.2358 2.0029-.2349 3.2459l.0001.2295v3.0261c0 1.3807 1.1192 2.5 2.4997 2.5h3.0258l.2295.0001c1.2429.0009 2.2605.0016 3.2456-.235.8672-.2082 1.6963-.5516 2.4567-1.0177.8638-.5294 1.5829-1.2495 2.4611-2.129l.1622-.1624 20.0996-20.1016c.5424-.5423 1.0506-1.0504 1.4424-1.512.4252-.5009.8581-1.1089 1.1119-1.8903.3589-1.1046.3589-2.2946 0-3.3992-.2538-.7814-.6867-1.3894-1.1119-1.8903-.3918-.4616-.9-.9697-1.4424-1.512l-.3341-.3342c-.5423-.5424-1.0504-1.0506-1.5119-1.4425-.5009-.4252-1.1088-.8582-1.8901-1.1121zm-1.8225 4.7462c-.0315.02-.1046.0703-.2309.1776-.2867.2434-.6491.6031-1.2722 1.2263l-1.5868 1.5868 3.4667 3.467 1.5867-1.5869c.6231-.6231.9828-.9856 1.2262-1.2723.1072-.1263.1576-.1995.1775-.2309.0205-.0808.0205-.1654 0-.2462-.0199-.0314-.0703-.1046-.1775-.2309l-2.7127-2.7129c-.1263-.1073-.1994-.1576-.2309-.1776-.0807-.0205-.1654-.0205-.2461 0zm-21.5428 21.4455c-1.1217 1.1218-1.3831 1.406-1.5636 1.7005-.1919.3132-.3333.6546-.419 1.0117-.0807.3359-.0967.7217-.0967 2.3082 0 .2905.2355.5261.526.5261 1.5864 0 1.9721-.0161 2.308-.0967.3571-.0857.6984-.2272 1.0116-.4191.2945-.1804.5786-.4419 1.7003-1.5637l14.9178-14.9192-3.4666-3.467z"/></g></svg>
