<svg width="12" height="12" fill="none" xmlns="http://www.w3.org/2000/svg"><path d="M7.84 1.49a.6.6 0 10-1.18.22l.15.8a.6.6 0 001.18-.22l-.15-.8zM10.224 1.777a.6.6 0 01.002.848l-.6.602a.6.6 0 01-.85-.847l.6-.602a.6.6 0 01.848-.001z" fill="currentColor"/><path fill-rule="evenodd" clip-rule="evenodd" d="M7.823 4.174a.6.6 0 01.003.849l-.462.465a3.5 3.5 0 11-.848-.85l.458-.46a.6.6 0 01.849-.004zM6.8 7.5a2.3 2.3 0 11-4.6 0 2.3 2.3 0 014.6 0z" fill="currentColor"/><path d="M10.99 4.86a.6.6 0 01-.7.48l-.8-.15a.6.6 0 01.22-1.18l.8.15a.6.6 0 01.48.7z" fill="currentColor"/></svg>
