<svg width="12" height="14" fill="none" xmlns="http://www.w3.org/2000/svg"><path d="M10 9.38V11a1 1 0 01-1 1H3a1 1 0 01-1-1V9.38c.346.087.688.12 1 .12.568 0 1.072-.102 1.5-.296.428.194.932.296 1.5.296s1.072-.102 1.5-.296c.428.194.932.296 1.5.296.312 0 .654-.033 1-.12zM1 6a1 1 0 011-1h8a1 1 0 011 1c0 1.5-1 2-2 2-1.5 0-1.5-1-1.5-1s0 1-1.5 1-1.5-1-1.5-1 0 1-1.5 1c-1 0-2-.5-2-2zM5.907 1.05a.107.107 0 01.186 0C6.56 1.903 7 2.274 7 3a1 1 0 11-2 0c0-.726.44-1.097.907-1.95z" fill="currentColor"/></svg>
