<svg xmlns="http://www.w3.org/2000/svg" width="12" height="12" fill="currentColor" viewBox="0 0 12 12"><path d="M10 8.385v1.62a1 1 0 0 1-1 1H3a1 1 0 0 1-1-1v-1.62c.346.086.688.12 1 .12.568 0 1.072-.103 1.5-.297.428.194.932.296 1.5.296s1.072-.102 1.5-.296c.428.194.932.296 1.5.296.312 0 .654-.033 1-.12ZM1 5.004a1 1 0 0 1 1-1h8a1 1 0 0 1 1 1c0 1.5-1 2-2 2-1.5 0-1.5-1-1.5-1s0 1-1.5 1-1.5-1-1.5-1 0 1-1.5 1c-1 0-2-.5-2-2ZM5.907.054a.107.107 0 0 1 .186 0C6.56.907 7 1.278 7 2.004a1 1 0 1 1-2 0c0-.726.44-1.097.907-1.95Z"/></svg>
