<svg fill="none" height="12" viewBox="0 0 12 12" width="12" xmlns="http://www.w3.org/2000/svg"><path clip-rule="evenodd" d="m9.03033 2.96967c.29289.29289.29289.76777 0 1.06066l-1.96967 1.96967 1.96967 1.96967c.29289.29289.29289.76777 0 1.06066s-.76777.29289-1.06066 0l-1.96967-1.96967-1.96967 1.96967c-.29289.29289-.76777.29289-1.06066 0s-.29289-.76777 0-1.06066l1.96967-1.96967-1.96967-1.96967c-.29289-.29289-.29289-.76777 0-1.06066s.76777-.29289 1.06066 0l1.96967 1.96967 1.96967-1.96967c.29289-.29289.76777-.29289 1.06066 0z" fill="currentColor" fill-rule="evenodd"/></svg>
