<svg fill="none" height="12" viewBox="0 0 12 12" width="12" xmlns="http://www.w3.org/2000/svg"><g clip-rule="evenodd" fill="currentColor" fill-rule="evenodd"><path d="m9.70711 2.29289c.39049.39053.39049 1.02369 0 1.41422l-6 6c-.39053.39049-1.02369.39049-1.41422 0-.39052-.39053-.39052-1.02369 0-1.41422l6-6c.39053-.39052 1.02369-.39052 1.41422 0z"/><path d="m2.29289 2.29289c.39053-.39052 1.02369-.39052 1.41422 0l6 6c.39049.39053.39049 1.02369 0 1.41422-.39053.39049-1.02369.39049-1.41422 0l-6-6c-.39052-.39053-.39052-1.02369 0-1.41422z"/></g></svg>
