<svg width="12" height="12" viewBox="0 0 12 12" fill="none" xmlns="http://www.w3.org/2000/svg">
<path d="M3.52513 2.46445C3.23223 2.17156 2.75736 2.17156 2.46447 2.46445C2.17157 2.75734 2.17157 3.23222 2.46447 3.52511L4.93934 5.99999L2.46447 8.47486C2.17157 8.76775 2.17157 9.24263 2.46447 9.53552C2.75736 9.82841 3.23223 9.82841 3.52513 9.53552L6 7.06065L8.47487 9.53552C8.76777 9.82841 9.24264 9.82841 9.53553 9.53552C9.82843 9.24263 9.82843 8.76775 9.53553 8.47486L7.06066 5.99999L9.53553 3.52511C9.82843 3.23222 9.82843 2.75734 9.53553 2.46445C9.24264 2.17156 8.76777 2.17156 8.47487 2.46445L6 4.93933L3.52513 2.46445Z" fill="black"/>
</svg>
