<svg fill="none" height="12" viewBox="0 0 12 12" width="12" xmlns="http://www.w3.org/2000/svg"><g clip-rule="evenodd" fill="currentColor" fill-rule="evenodd"><path d="m6.87975.878253c1.17131-1.169367 3.06985-1.169356 4.24115.000033 1.1718 1.169934 1.172 3.067184.0004 4.237294l-.6653.66531c-.2929.29289-.76774.29289-1.06063 0-.2929-.29289-.2929-.76776 0-1.06066l.66533-.66531c.585-.58409.5855-1.53102.0004-2.11511-.58571-.58477-1.53587-.58477-2.12159 0l-2.29634 2.29231c-.45919.45846-.55882 1.14152-.29534 1.69724.17745.37428.01789.82155-.35638.999-.37428.17745-.82155.01789-.999-.35638-.52692-1.11137-.33111-2.48086.59092-3.40138z"/><path d="m6.97097 5.07819c.37309-.17994.8214-.02336 1.00134.34973.53814 1.11581.34577 2.49719-.58133 3.42428l-2.26853 2.2686c-1.17141 1.1714-3.07065 1.1714-4.24206 0-1.171412-1.17145-1.171412-3.07068 0-4.24209l.6582-.65821c.2929-.29289.76777-.29289 1.06066 0 .2929.2929.2929.76777 0 1.06066l-.6582.65821c-.58563.58562-.58563 1.5351 0 2.12073.58562.5856 1.53511.5856 2.12073 0l2.26854-2.26856c.46224-.46224.56062-1.15278.29091-1.71201-.17993-.37309-.02335-.8214.34974-1.00134z"/></g></svg>
