<svg fill="none" height="12" viewBox="0 0 12 12" width="12" xmlns="http://www.w3.org/2000/svg"><path d="m6 12c3.31371 0 6-2.68629 6-6s-2.68629-6-6-6-6 2.68629-6 6 2.68629 6 6 6z" fill="#99a2ad"/><path clip-rule="evenodd" d="m8.78033 3.96967c.29289.29289.29289.76777 0 1.06066l-3.25 3.25c-.29289.29289-.76777.29289-1.06066 0l-1.25-1.25c-.29289-.29289-.29289-.76777 0-1.06066s.76777-.29289 1.06066 0l.71967.71967 2.71967-2.71967c.29289-.29289.76777-.29289 1.06066 0z" fill="#fff" fill-rule="evenodd"/></svg>
