<svg xmlns="http://www.w3.org/2000/svg" width="12" height="12" fill="none" viewBox="0 0 12 12"><path fill="currentColor" fill-rule="evenodd" d="M6.549 3.1381a1.1391 1.1391 0 0 0 .5904-.9987C7.1394 1.5101 6.6293 1 6 1s-1.1394.5101-1.1394 1.1394c0 .4303.2385.8048.5905.9987L3.8437 5.5413a.2.2 0 0 1-.2834.0509L2.1665 4.5846a1.135 1.135 0 0 0 .1124-.494c0-.6292-.5102-1.1394-1.1395-1.1394C.5102 2.9512 0 3.4615 0 4.0907S.5102 5.23 1.1394 5.23l.5718 1.772h8.5953l.5541-1.772C11.4899 5.2301 12 4.72 12 4.0907s-.5101-1.1395-1.1394-1.1395-1.1394.5102-1.1394 1.1395c0 .1807.042.3516.117.5034L8.4455 5.6009a.2.2 0 0 1-.2834-.051L6.5489 3.1382Zm-4.5486 5.064h7.9992l-.128.6221A1.723 1.723 0 0 1 8.1839 10.2h-4.367a1.723 1.723 0 0 1-1.6873-1.3739l-.1292-.624Z" clip-rule="evenodd"/></svg>
