<svg xmlns="http://www.w3.org/2000/svg" width="12" height="12" fill="none" viewBox="0 0 12 12"><path fill="currentColor" d="M2.0205 4.8623c-.0234-.2995-.0351-.4492.016-.5647a.5.5 0 0 1 .2198-.2377C2.3674 4 2.5176 4 2.818 4h6.3666c.3006 0 .4508 0 .562.06a.5.5 0 0 1 .2198.2378c.0511.1155.0393.2653.0158.5649l-.2505 3.188c-.0817 1.04-.1226 1.56-.3512 1.9537a2.0003 2.0003 0 0 1-.8637.7985C8.1063 11 7.5848 11 6.5415 11H5.4597c-1.0436 0-1.5654 0-1.976-.1972a2.0003 2.0003 0 0 1-.8637-.799c-.2286-.394-.2693-.9141-.3506-1.9546l-.249-3.1869ZM10.25 3h-8.5a.75.75 0 0 1 0-1.5h2.313C4.285.6374 5.068 0 6 0c.932 0 1.715.6374 1.937 1.5h2.313a.75.75 0 0 1 0 1.5Z"/></svg>
