<svg fill="none" height="12" viewBox="0 0 12 12" width="12" xmlns="http://www.w3.org/2000/svg"><path clip-rule="evenodd" d="m6.75 1.75c0-.41421-.33579-.75-.75-.75s-.75.33579-.75.75v3.68934l-.96967-.96967c-.29289-.29289-.76777-.29289-1.06066 0s-.29289.76777 0 1.06066l2.25 2.25c.29289.29289.76777.29289 1.06066 0l2.25-2.25c.29289-.29289.29289-.76777 0-1.06066s-.76777-.29289-1.06066 0l-.96967.96967zm-4 7.75c-.41421 0-.75.33579-.75.75 0 .4142.33579.75.75.75h6.5c.41421 0 .75-.3358.75-.75 0-.41421-.33579-.75-.75-.75z" fill="currentColor" fill-rule="evenodd"/></svg>
