<svg width="12" height="12" viewBox="0 0 12 12" fill="none" xmlns="http://www.w3.org/2000/svg">
<path d="M8 9H5V4H8V5H6V6H8V7H6V8H8V9Z" fill="currentColor"/>
<path fill-rule="evenodd" clip-rule="evenodd" d="M1 3.5C1 2.11929 2.11929 1 3.5 1H9.5C10.8807 1 12 2.11929 12 3.5V9.5C12 10.8807 10.8807 12 9.5 12H3.5C2.11929 12 1 10.8807 1 9.5V3.5ZM3.5 2H9.5C10.3284 2 11 2.67157 11 3.5V9.5C11 10.3284 10.3284 11 9.5 11H3.5C2.67157 11 2 10.3284 2 9.5V3.5C2 2.67157 2.67157 2 3.5 2Z" fill="currentColor"/>
</svg>
