<svg width="12" height="12" viewBox="0 0 12 12" fill="none" xmlns="http://www.w3.org/2000/svg">
<path fill-rule="evenodd" clip-rule="evenodd" d="M2.53033 1.46967C2.23744 1.17678 1.76256 1.17678 1.46967 1.46967C1.17678 1.76256 1.17678 2.23744 1.46967 2.53033L9.46967 10.5303C9.76256 10.8232 10.2374 10.8232 10.5303 10.5303C10.8232 10.2374 10.8232 9.76256 10.5303 9.46967L2.53033 1.46967ZM0 6C0.352988 5.12417 0.899842 4.34387 1.58888 3.71018L3.3305 5.4518C3.29263 5.62874 3.27273 5.81211 3.27273 6C3.27273 7.472 4.49455 8.66667 6 8.66667C6.17095 8.66667 6.33824 8.65126 6.5005 8.6218L7.66583 9.78713C7.13453 9.92598 6.57615 10 6 10C3.27273 10 0.943636 8.34133 0 6ZM8.72727 6C8.72727 6.18788 8.70737 6.37124 8.66951 6.54817L10.4111 8.2898C11.1002 7.65611 11.647 6.87582 12 6C11.0564 3.65867 8.72727 2 6 2C5.42386 2 4.86549 2.07402 4.3342 2.21286L5.49954 3.3782C5.66179 3.34874 5.82906 3.33333 6 3.33333C7.50545 3.33333 8.72727 4.528 8.72727 6Z" fill="currentColor"/>
</svg>
