<svg fill="none" height="12" width="12" xmlns="http://www.w3.org/2000/svg"><path d="M8.67 6.548c.037-.177.057-.36.057-.548 0-1.472-1.222-2.667-2.727-2.667a2.8 2.8 0 0 0-.5.045L4.334 2.213A6.581 6.581 0 0 1 6 2c2.727 0 5.056 1.659 6 4a6.33 6.33 0 0 1-1.589 2.29zM1.589 3.71A6.33 6.33 0 0 0 0 6a6.32 6.32 0 0 0 1.575 2.277 6.473 6.473 0 0 0 2.76 1.51 6.582 6.582 0 0 0 4.128-.264L9.47 10.53a.75.75 0 1 0 1.06-1.06l-8-8a.75.75 0 0 0-1.06 1.06l.703.703a6.456 6.456 0 0 0-.584.477zM6 8.667a2.8 2.8 0 0 0 1.29-.317L3.625 4.687a2.613 2.613 0 0 0-.296 1.861c.227 1.058 1.095 1.886 2.187 2.077A2.8 2.8 0 0 0 6 8.667z" clip-rule="evenodd" fill="currentColor" fill-rule="evenodd"/></svg>
