<?xml version="1.0" encoding="UTF-8"?>
<svg width="12px" height="12px" viewBox="0 0 12 12" version="1.1" xmlns="http://www.w3.org/2000/svg" xmlns:xlink="http://www.w3.org/1999/xlink">
    <!-- Generator: Sketch 50.2 (55047) - http://www.bohemiancoding.com/sketch -->
    <title>fire_12</title>
    <desc>Created with Sketch.</desc>
    <defs></defs>
    <g id="Page-2" stroke="none" stroke-width="1" fill="none" fill-rule="evenodd">
        <g id="fire_12">
            <rect id="Rectangle-5" x="0" y="0" width="12" height="12"></rect>
            <path d="M6.09221645,0.78689859 C6.13604397,0.754399556 6.19185197,0.742598797 6.24508377,0.754574361 C6.34613389,0.777307617 6.40962225,0.87765387 6.38688899,0.97870399 L6.38684957,0.97869512 C6.36029512,1.09673057 6.32704912,1.18658257 6.28711158,1.24825111 C4.87133279,3.43438983 5.49313172,4.74846434 6.44780946,4.88967608 C7.43523533,5.03573178 8.15755272,4.37415586 8.00300033,2.94618513 C7.97637859,2.70021632 7.95412398,2.49293788 7.93623651,2.32434982 C7.93202492,2.28465587 7.94172901,2.24473129 7.96369041,2.21139896 C8.01603348,2.13195429 8.12286855,2.10998411 8.20231322,2.16232718 L8.20244376,2.16212904 C8.52339837,2.37359382 8.90750384,2.75824104 9.35476019,3.3160707 C10.9460732,5.30079732 11.008312,6.9620482 10.9993553,7.67656026 C10.967243,10.2382863 9.07092203,12 6.49967766,12 C3.92843328,12 2,10.2385986 2,7.67656026 C2.01138889,5.73688224 2.99117045,3.00655573 5.69606343,1.07641903 C5.79709086,1.00432865 5.92914187,0.907821838 6.09221645,0.78689859 Z" id="Mask" fill="currentColor" fill-rule="nonzero"></path>
        </g>
    </g>
</svg>
