<svg xmlns="http://www.w3.org/2000/svg" width="12" height="12" fill="none" viewBox="0 0 12 12"><path fill="currentColor" d="M6.0922.5369a.1875.1875 0 0 1 .2947.1918c-.0266.118-.0598.2079-.0998.2696-1.4158 2.186-.794 3.5002.1607 3.6414.9874.146 1.7098-.5155 1.5552-1.9435a300.494 300.494 0 0 1-.0668-.6219.1722.1722 0 0 1 .2661-.162l.0001-.0002c.321.2115.7051.5961 1.1524 1.154 1.5913 1.9847 1.6535 3.646 1.6446 4.3605-.0322 2.5617-1.9285 4.3234-4.4997 4.3234C3.9284 11.75 2 9.9886 2 7.4266c.0114-1.9397.9912-4.67 3.696-6.6002.101-.072.2331-.1686.3962-.2895Z"/></svg>
