<svg xmlns="http://www.w3.org/2000/svg" width="12" height="12" fill="none" viewBox="0 0 12 12"><path fill="currentColor" d="m6.1918.5004.0536.0042a.1875.1875 0 0 1 .1418.2241l-.0288.1087c-.0207.0661-.0443.1198-.071.1609-1.4159 2.1861-.794 3.5002.1607 3.6414.9875.146 1.7099-.5155 1.5553-1.9435a327.07 327.07 0 0 1-.0667-.6218.1723.1723 0 0 1 .266-.162l.1235.0872c.2947.2229.6377.5784 1.029 1.0665 1.4736 1.8377 1.6361 3.3981 1.645 4.1864L11 7.4266c-.0321 2.5617-1.9286 4.3235-4.5 4.3235-2.5714 0-4.5-1.7614-4.5-4.3235.0114-1.9397.9912-4.67 3.6963-6.6002.101-.072.2331-.1686.3962-.2895a.1875.1875 0 0 1 .1529-.0323L6.1918.5004Zm2.187 4.8784L5.75 8.0076 4.6212 6.8788a.525.525 0 1 0-.7424.7425l1.5 1.5a.525.525 0 0 0 .7424 0l3-3a.525.525 0 1 0-.7424-.7425Z"/></svg>
