<svg xmlns="http://www.w3.org/2000/svg" width="12" height="12" fill="none" viewBox="0 0 12 12"><path fill="currentColor" fill-rule="evenodd" d="M1.75 0A.75.75 0 0 0 1 .75v9.5a.75.75 0 0 0 1.5 0V6.8053c.2612.1119.5334.184.808.1918.7893.0219 1.5252-.227 2.2572-.5003.1673-.0618.3338-.126.5003-.19.6254-.241 1.2502-.4816 1.915-.596.7324-.1486 1.4914-.258 2.1424.1237.0743.0463.1506.0954.2325.1483a.0937.0937 0 0 0 .1446-.0786v-4.434c0-.2506 0-.3759-.0628-.5537-.0404-.1143-.1787-.3318-.265-.4169-.1343-.1324-.1944-.1606-.3147-.217-.3025-.1419-.6388-.2412-.9508-.269-.6798-.0615-1.3297.093-1.9677.3118a71.6941 71.6941 0 0 0-.8659.307c-.5606.2014-1.121.4027-1.6889.5761A2.9347 2.9347 0 0 1 2.5 1.2V.75A.75.75 0 0 0 1.75 0Z" clip-rule="evenodd"/></svg>
