<svg xmlns="http://www.w3.org/2000/svg" width="12" height="12" fill="currentColor" viewBox="0 0 12 12"><path d="M5.958 2.362 3.895 4.658c-.574.64-.86.96-.887 1.258a.9.9 0 0 0 .249.705c.208.215.632.284 1.48.421l.355.057c.12.02.18.03.22.06a.2.2 0 0 1 .072.11c.012.05-.003.108-.033.226l-.4 1.553c-.192.743-.288 1.114-.2 1.258a.4.4 0 0 0 .358.192c.169-.006.425-.292.938-.862l2.062-2.297c.574-.64.861-.959.888-1.257a.9.9 0 0 0-.25-.705c-.207-.216-.631-.285-1.48-.422l-.355-.057c-.12-.02-.18-.03-.22-.06a.2.2 0 0 1-.072-.11c-.012-.05.003-.108.034-.226l.4-1.553c.191-.743.287-1.114.2-1.258a.4.4 0 0 0-.359-.192c-.168.007-.425.292-.937.863Z"/></svg>
