<svg width="12" height="12" viewBox="0 0 12 12" fill="none" xmlns="http://www.w3.org/2000/svg">
<path d="M6.03426 1C7.2266 1 8.19906 1.40947 9.12056 2.24674C9.98057 3.02814 10.4743 4.08292 10.499 5.189L10.5 5.27642L10.4952 9.33131C10.481 9.83773 10.1091 10.2394 9.57722 10.2394L9.51777 10.2386C9.39588 10.2348 9.31143 10.2154 9.11661 10.1392L9.01831 10.0998L8.72364 9.97749C8.44673 9.8646 8.26994 9.81673 8.09498 9.81673C8.00408 9.81673 7.93419 9.84171 7.72299 9.98137L7.62137 10.0499L7.30389 10.2707C6.8499 10.5824 6.51119 10.7351 6.09698 10.749L6.03426 10.75L5.99665 10.7484L5.96744 10.75C5.58481 10.75 5.27247 10.6347 4.88095 10.3874L4.70462 10.271L4.37617 10.0434L4.25085 9.96009C4.10338 9.86492 4.02891 9.83046 3.96111 9.82034L3.93454 9.81752L3.90885 9.81673C3.73339 9.81673 3.55616 9.86463 3.27863 9.97756L3.02449 10.083L2.88506 10.1392C2.72062 10.2034 2.6347 10.2273 2.53872 10.2354L2.48948 10.2383L2.4239 10.2394C1.91135 10.2394 1.5444 9.86625 1.5073 9.37568L1.50484 9.33077L1.5 5.27611C1.5 4.13851 1.99775 3.04851 2.882 2.24655C3.78149 1.43077 4.72216 1.02237 5.8712 1.00089L6.03426 1ZM4.78247 7.06283C4.55154 6.93981 4.25751 7.00106 4.09981 7.21487C3.92897 7.44651 3.98283 7.76948 4.22011 7.93626C4.33086 8.0141 4.51287 8.11877 4.75521 8.22097C5.72792 8.63119 6.79119 8.63119 7.77989 7.93626C8.01717 7.76948 8.07103 7.44651 7.90019 7.21487C7.72935 6.98324 7.3985 6.93066 7.16123 7.09744C6.51597 7.55098 5.83636 7.55098 5.17511 7.27211C5.00896 7.20204 4.89142 7.13444 4.83877 7.09744L4.78247 7.06283ZM4.25 4.5C3.83579 4.5 3.5 4.83579 3.5 5.25C3.5 5.66421 3.83579 6 4.25 6C4.66421 6 5 5.66421 5 5.25C5 4.83579 4.66421 4.5 4.25 4.5ZM7.75 4.5C7.33579 4.5 7 4.83579 7 5.25C7 5.66421 7.33579 6 7.75 6C8.16421 6 8.5 5.66421 8.5 5.25C8.5 4.83579 8.16421 4.5 7.75 4.5Z" fill="currentColor"/>
</svg>
