<svg width="12" height="12" viewBox="0 0 12 12" fill="none" xmlns="http://www.w3.org/2000/svg">
<path d="M5.5 1C7.98528 1 10 3.01472 10 5.5C10 6.01885 9.91219 6.51719 9.75062 6.98096C9.90506 7.2458 10 7.58071 10 8C10 9.66667 8.5 10 7.75 10C7 10 7 9.10457 7 8C7 6.89543 7 6 7.75 6C8.06351 6 8.50808 6.05825 8.91935 6.24778C8.97229 6.00759 9 5.75703 9 5.5C9 3.567 7.433 2 5.5 2C3.567 2 2 3.567 2 5.5C2 5.75703 2.02771 6.00759 2.08029 6.24885C2.49192 6.05825 2.93649 6 3.25 6C4 6 4 6.89543 4 8C4 9.10457 4 10 3.25 10C2.5 10 1 9.66667 1 8C1 7.58071 1.09494 7.2458 1.24898 6.97936C1.08781 6.51719 1 6.01885 1 5.5C1 3.01472 3.01472 1 5.5 1Z" fill="currentColor"/>
</svg>
