<svg width="12" height="12" viewBox="0 0 12 12" fill="none" xmlns="http://www.w3.org/2000/svg"><path fill-rule="evenodd" clip-rule="evenodd" d="M6 12A6 6 0 1 0 6 0a6 6 0 0 0 0 12zm.644-5.005c-.08.36-.286.57-.662.57-.45 0-.715-.312-.715-.753v-.075c0-.633.323-1.052.948-1.423.684-.414.89-.682.89-1.176 0-.527-.402-.892-.985-.892-.52 0-.869.258-1.038.736-.133.344-.371.494-.694.494-.419 0-.678-.263-.678-.671 0-.231.053-.435.159-.64C4.208 2.458 5.055 2 6.194 2c1.504 0 2.516.838 2.516 2.09 0 .81-.387 1.364-1.134 1.81-.704.413-.863.644-.932 1.095zm.217 2.162a.85.85 0 0 1-.868.843.85.85 0 0 1-.864-.843.85.85 0 0 1 .864-.844.85.85 0 0 1 .868.844z" fill="currentColor"/></svg>
