<svg xmlns="http://www.w3.org/2000/svg" fill="none" viewBox="0 0 12 12"><g fill="currentColor" fill-rule="evenodd" clip-path="url(#a)" clip-rule="evenodd"><path d="M.0015 2.45a.55.55 0 0 1 .55-.55h6.9a.55.55 0 0 1 0 1.1h-6.9a.55.55 0 0 1-.55-.55Z"/><path d="M3.55.0045a.55.55 0 0 1 .55.55v1.95H3v-1.95a.55.55 0 0 1 .55-.55ZM1.645 4.1299a.55.55 0 0 1 .7751.0652l2.45 2.9a.55.55 0 0 1-.8402.7099l-2.45-2.9a.55.55 0 0 1 .0651-.7751ZM8.0026 4a.55.55 0 0 1 .4918.3042l3.4477 6.9028a.55.55 0 0 1-.9841.4915L8.0018 5.7798l-2.96 5.9131a.55.55 0 0 1-.9836-.4924l3.4523-6.8967A.55.55 0 0 1 8.0025 4Z"/><path d="M5.45 8.9H10a.55.55 0 1 1 0 1.1H5.45V8.9Zm.45-6.95v1.2984a3.2796 3.2796 0 0 1-1.2106 2.5447L.897 8.8767a.55.55 0 0 1-.694-.8534l3.7924-3.0837A2.1797 2.1797 0 0 0 4.8 3.2484V1.95h1.1Z"/></g><defs><clipPath id="a"><path fill="#fff" d="M0 0h12v12H0z"/></clipPath></defs></svg>
