<svg xmlns="http://www.w3.org/2000/svg" width="12" height="12" fill="none" viewBox="0 0 12 12"><path fill="currentColor" fill-rule="evenodd" d="M3.55.0045a.55.55 0 0 1 .55.55V1.9h3.3516a.55.55 0 0 1 0 1.1H5.9v.2485A3.2797 3.2797 0 0 1 4.6894 5.793l-.5449.443.7257.859a.55.55 0 0 1-.8403.7099l-.739-.8747L.897 8.8768a.55.55 0 0 1-.694-.8535L2.581 6.09 1.58 4.905a.55.55 0 0 1 .8402-.7098l1.0144 1.2007.561-.4561A2.1797 2.1797 0 0 0 4.8 3.2485V3H.5516a.55.55 0 1 1 0-1.1H3V.5545a.55.55 0 0 1 .55-.55ZM8.0026 4a.55.55 0 0 1 .4918.3043l3.4477 6.9027a.55.55 0 0 1-.9841.4915l-.8533-1.7084A.554.554 0 0 1 10 10H5.8893l-.8475 1.6929a.55.55 0 0 1-.9836-.4924l3.4524-6.8967A.55.55 0 0 1 8.0025 4ZM6.44 8.9h3.1204L8.0018 5.7798 6.44 8.9Z" clip-rule="evenodd"/></svg>
