<?xml version="1.0" encoding="UTF-8"?>
<svg width="12px" height="12px" viewBox="0 0 12 12" version="1.1" xmlns="http://www.w3.org/2000/svg" xmlns:xlink="http://www.w3.org/1999/xlink">
<!-- Generator: Sketch 50.2 (55047) - http://www.bohemiancoding.com/sketch -->
<title>lock_12</title>
<desc>Created with Sketch.</desc>
<defs></defs>
<g id="Page-2" stroke="none" stroke-width="1" fill="none" fill-rule="evenodd">
    <g id="fire_12">
        <rect id="Rectangle-5" x="0" y="0" width="12" height="12"></rect>
        <path fill="currentColor" d="M3 5V3.497a3 3 0 0 1 6-.002V5h.539c.334 0 .455.035.577.1a.681.681 0 0 1 .284.284c.065.122.1.243.1.577v4.078c0 .334-.035.455-.1.577a.681.681 0 0 1-.284.284c-.122.065-.243.1-.577.1H2.46c-.334 0-.455-.035-.577-.1a.681.681 0 0 1-.284-.284c-.065-.122-.1-.243-.1-.577V5.96c0-.334.035-.455.1-.577a.681.681 0 0 1 .284-.284c.122-.065.243-.1.577-.1H3zm3-3a1.5 1.5 0 0 0-1.5 1.5V5h3V3.5A1.5 1.5 0 0 0 6 2z"></path>
    </g>
</g>
</svg>
