<svg width="12" height="12" viewBox="0 0 12 12" fill="none" xmlns="http://www.w3.org/2000/svg">
<path d="M6 0C7.65685 0 9 1.34315 9 3H9.71806C10.1638 3 10.3255 3.04641 10.4884 3.13357C10.6514 3.22072 10.7793 3.34861 10.8664 3.51158C10.9536 3.67454 11 3.83618 11 4.28194V7.79514C11 8.90954 10.884 9.31365 10.6661 9.72106C10.4482 10.1285 10.1285 10.4482 9.72106 10.6661C9.31365 10.884 8.90954 11 7.79514 11H4.20486C3.09046 11 2.68635 10.884 2.27894 10.6661C1.87154 10.4482 1.5518 10.1285 1.33392 9.72106C1.11603 9.31365 1 8.90954 1 7.79514V4.28194C1 3.83618 1.04641 3.67454 1.13357 3.51158C1.22072 3.34861 1.34861 3.22072 1.51158 3.13357C1.67454 3.04641 1.83618 3 2.28194 3H3C3 1.34315 4.34315 0 6 0ZM3.53681 4H3.46319C3.34439 4 3.26982 4.01857 3.20463 4.05343C3.13945 4.08829 3.08829 4.13945 3.05343 4.20463C3.01857 4.26982 3 4.34439 3 4.46319V4.53681C3 4.65561 3.01857 4.73018 3.05343 4.79537C3.08829 4.86055 3.13945 4.91171 3.20463 4.94657C3.26982 4.98143 3.34439 5 3.46319 5H3.53681C3.65561 5 3.73018 4.98143 3.79537 4.94657C3.86055 4.91171 3.91171 4.86055 3.94657 4.79537C3.98143 4.73018 4 4.65561 4 4.53681V4.46319C4 4.34439 3.98143 4.26982 3.94657 4.20463C3.91171 4.13945 3.86055 4.08829 3.79537 4.05343C3.73018 4.01857 3.65561 4 3.53681 4ZM8.53681 4H8.46319C8.34439 4 8.26982 4.01857 8.20463 4.05343C8.13945 4.08829 8.08829 4.13945 8.05343 4.20463C8.01857 4.26982 8 4.34439 8 4.46319V4.53681C8 4.65561 8.01857 4.73018 8.05343 4.79537C8.08829 4.86055 8.13945 4.91171 8.20463 4.94657C8.26982 4.98143 8.34439 5 8.46319 5H8.53681C8.65561 5 8.73018 4.98143 8.79537 4.94657C8.86055 4.91171 8.91171 4.86055 8.94657 4.79537C8.98143 4.73018 9 4.65561 9 4.53681V4.46319C9 4.34439 8.98143 4.26982 8.94657 4.20463C8.91171 4.13945 8.86055 4.08829 8.79537 4.05343C8.73018 4.01857 8.65561 4 8.53681 4ZM6 1C4.89543 1 4 1.89543 4 3H8C8 1.89543 7.10457 1 6 1Z" fill="currentColor"/>
</svg>
