<svg height="12" viewBox="0 0 12 12" width="12" xmlns="http://www.w3.org/2000/svg"><g fill="none" fill-rule="evenodd" transform="translate(-5 -2)"><path d="m5 2h12v12h-12z"/><path d="m11.1650367 13c.7640587 0 1.4425428-.0958084 1.8948655-.245509.3667482-.1197605.49511-.2814371.49511-.4910179 0-.2095809-.1405868-.3413174-.391198-.3413174-.0611247 0-.1405868.005988-.2383863.0239521-.5501223.1317365-.9718827.2155688-1.5709047.2155688-2.62836183 0-4.40097797-1.4970059-4.40097797-4.08982031 0-2.50898204 1.64425428-4.23952096 4.14425427-4.23952096 2.1821516 0 3.9486553 1.31137724 3.9486553 3.7245509 0 1.25748503-.4645477 2.13772455-1.1430318 2.13772455-.4400978 0-.6784841-.23353294-.6784841-.64071856v-2.97005988c0-.33532935-.195599-.53892216-.5256724-.53892216-.3239609 0-.5256724.20359281-.5256724.53892216v.29940119h-.0611247c-.2506112-.53293413-.8190709-.83832335-1.4914425-.83832335-1.21638142 0-2.07823961 1.00598802-2.07823961 2.48502994 0 1.50299401.86185819 2.53293418 2.12102691 2.53293418.7090464 0 1.2591687-.3473054 1.5281173-.95808388h.0611247c.1100245.60479038.6845966.95808388 1.4425428.95808388 1.4242054 0 2.304401-1.2874252 2.304401-3.07784436 0-2.73053892-2.0476773-4.48502994-4.8899756-4.48502994-3.01955985 0-5.1100244 1.98203593-5.1100244 5.03592814 0 3.11377246 2.16381418 4.96407186 5.1650367 4.96407186zm-.2872861-3.37125749c-.7579462 0-1.20415647-.59880239-1.20415647-1.59281437 0-.98802395.45232277-1.5748503 1.20415647-1.5748503.7701712 0 1.2591687.61077845 1.2591687 1.56886228 0 .98203593-.49511 1.59880239-1.2591687 1.59880239z" fill="currentColor" fill-rule="nonzero"/></g></svg>
