<svg fill="none" height="12" viewBox="0 0 12 12" width="12" xmlns="http://www.w3.org/2000/svg"><g fill="currentColor"><path d="m10.4552 7.00049c.7424 0 1.3442.60236 1.3442 1.34541 0 .7504-.3004 1.12664-1.5744 2.1185l-.57975.4513c-.14442.1124-.34666.1124-.49109 0l-.57971-.4513c-1.27407-.99186-1.57445-1.3681-1.57445-2.1185 0-.74305.60182-1.34541 1.3442-1.34541.39774 0 .75116.18741 1.05551.55001.30434-.3626.65779-.55001 1.05549-.55001z"/><path clip-rule="evenodd" d="m11 5.41176c0-2.32163-2.10419-4.41176-5-4.41176-2.59175 0-5 1.84102-5 4.41176 0 1.06632.45186 2.06464.94444 2.5862 0 .69831-.4083 1.58042-.73687 2.29024-.06813.1472-.13284.287-.18976.4162-.062317.1399.04748.3014.19599.2954 1.29984-.0517 2.22188-.8525 2.7862-1.52554.59191.22532 1.24518.27274 1.93045.2756-.24332-.45661-.33038-.91815-.33038-1.40386 0-1.51505 1.22742-2.74541 2.74419-2.74541.38595 0 .73862.08184 1.05551.22281.3169-.14097.66953-.22281 1.05553-.22281.1839 0 .3636.01809.5374.05259.0048-.07983.0073-.16032.0073-.24142z" fill-rule="evenodd"/></g></svg>
