<svg xmlns="http://www.w3.org/2000/svg" width="12" height="12" fill="currentColor" viewBox="0 0 12 12"><path fill-rule="evenodd" d="M6.32.026a1.75 1.75 0 0 0-.641 0c-.243.046-.465.157-.673.26l-.052.026-2.717 1.35-.05.025c-.2.099-.415.205-.593.364a1.75 1.75 0 0 0-.383.49c-.111.211-.163.445-.21.664l-.012.054-.69 3.114-.011.053c-.048.215-.1.444-.089.678.01.205.055.407.133.596.09.216.235.402.37.575l.033.043 1.908 2.47.035.044c.14.182.29.377.486.523.172.127.365.222.57.28.236.066.482.066.711.065h3.11c.229 0 .475.001.71-.065.206-.058.4-.153.57-.28.197-.146.347-.34.487-.523l.035-.045 1.908-2.469.034-.043c.134-.173.278-.359.369-.575.078-.19.123-.39.133-.596.01-.234-.04-.463-.089-.678l-.011-.053-.72-3.25a2.312 2.312 0 0 0-.192-.583 1.75 1.75 0 0 0-.383-.489c-.178-.16-.393-.265-.594-.364l-.05-.025L7.047.312 6.994.286c-.208-.103-.43-.214-.673-.26ZM8.78 5.28a.75.75 0 1 0-1.06-1.06L5.25 6.69l-.97-.97a.75.75 0 0 0-1.06 1.06l1.5 1.5a.75.75 0 0 0 1.06 0l3-3Z" clip-rule="evenodd"/></svg>
