<svg xmlns="http://www.w3.org/2000/svg" width="12" height="12" fill="currentColor" viewBox="0 0 12 12"><path fill-rule="evenodd" d="M5.024.04a1.565 1.565 0 0 0-1.459.418L.458 3.565c-.381.382-.54.933-.418 1.459l1.08 4.682c.135.584.59 1.039 1.174 1.173l4.682 1.08a1.565 1.565 0 0 0 1.459-.417l3.107-3.107c.381-.382.54-.933.418-1.459l-1.08-4.682A1.565 1.565 0 0 0 9.705 1.12L5.024.04ZM8.78 5.03a.75.75 0 0 0-1.06-1.06L5 6.69l-.72-.72a.75.75 0 0 0-1.06 1.06l1.25 1.25a.75.75 0 0 0 1.06 0l3.25-3.25Z" clip-rule="evenodd"/></svg>
