<svg xmlns="http://www.w3.org/2000/svg" width="12" height="12" fill="none" viewBox="0 0 12 12"><path fill="currentColor" d="M4.3503.6756a.675.675 0 1 0-1.35 0v.873c-.1847.0303-.338.0765-.4765.147a1.875 1.875 0 0 0-.8194.8195C1.5 2.916 1.5 3.441 1.5 4.4913V8.5c0 1.0501 0 1.5752.2044 1.9762.1797.3528.4666.6397.8194.8194.401.2044.9261.2044 1.9762.2044h3c1.0501 0 1.5752 0 1.9762-.2044a1.8743 1.8743 0 0 0 .8194-.8194c.2044-.401.2044-.9261.2044-1.9762V4.4913c0-1.0501 0-1.5752-.2044-1.9762a1.8746 1.8746 0 0 0-.8194-.8194c-.1385-.0706-.2918-.1168-.4765-.147V.6755a.675.675 0 0 0-1.35 0v.8157H6.675V.6756a.675.675 0 0 0-1.35 0v.8157h-.9747V.6756ZM8.528 4.219a.75.75 0 0 1 0 1.0607l-3 3a.75.75 0 0 1-1.0607 0l-.9977-.9977a.75.75 0 0 1 1.0606-1.0607l.4674.4674L7.4673 4.219a.75.75 0 0 1 1.0607 0Z"/></svg>
