<svg xmlns="http://www.w3.org/2000/svg" width="12" height="12" fill="currentColor" viewBox="0 0 12 12"><path fill-rule="evenodd" d="M3.04 2.469C3 2.58 3 2.72 3 3v6c0 .28 0 .419.04.531a.7.7 0 0 0 .429.43C3.58 10 3.72 10 4 10s.419 0 .531-.04a.7.7 0 0 0 .43-.429C5 9.42 5 9.28 5 9V3c0-.28 0-.419-.04-.531a.7.7 0 0 0-.429-.43C4.42 2 4.28 2 4 2s-.419 0-.531.04a.7.7 0 0 0-.43.429Zm4 0C7 2.58 7 2.72 7 3v6c0 .28 0 .419.04.531a.7.7 0 0 0 .429.43C7.58 10 7.72 10 8 10s.419 0 .531-.04a.7.7 0 0 0 .43-.429C9 9.42 9 9.28 9 9V3c0-.28 0-.419-.04-.531a.7.7 0 0 0-.429-.43C8.42 2 8.28 2 8 2s-.419 0-.531.04a.7.7 0 0 0-.43.429Z" clip-rule="evenodd"/></svg>
