<svg xmlns="http://www.w3.org/2000/svg" width="12" height="12" fill="currentColor" viewBox="0 0 12 12"><path fill-rule="evenodd" d="M7.8 3H4.2c-.577 0-.949 0-1.232.024-.272.022-.373.06-.422.085a1 1 0 0 0-.437.437c-.025.05-.063.15-.085.422C2 4.25 2 4.623 2 5.2v1.6c0 .577 0 .949.024 1.232.022.272.06.373.085.422a1 1 0 0 0 .437.437c.05.025.15.063.422.085C3.25 9 3.623 9 4.2 9h3.6c.577 0 .949 0 1.232-.024.272-.022.373-.06.422-.085a1 1 0 0 0 .437-.437c.025-.05.063-.15.085-.422C10 7.75 10 7.377 10 6.8V5.2c0-.577 0-.949-.024-1.232-.022-.272-.06-.373-.085-.422a1 1 0 0 0-.437-.437c-.05-.025-.15-.063-.422-.085C8.75 3 8.377 3 7.8 3Zm-6.582.092C1 3.52 1 4.08 1 5.2v1.6c0 1.12 0 1.68.218 2.108a2 2 0 0 0 .874.874C2.52 10 3.08 10 4.2 10h3.6c1.12 0 1.68 0 2.108-.218a2 2 0 0 0 .874-.874C11 8.48 11 7.92 11 6.8V5.2c0-1.12 0-1.68-.218-2.108a2 2 0 0 0-.874-.874C9.48 2 8.92 2 7.8 2H4.2c-1.12 0-1.68 0-2.108.218a2 2 0 0 0-.874.874Z" clip-rule="evenodd"/><path d="M1 4.37h10v1.25H1V4.37Zm2 2.94c0-.196 0-.294.038-.369a.35.35 0 0 1 .153-.153c.075-.038.173-.038.369-.038h.13c.196 0 .294 0 .369.038a.35.35 0 0 1 .153.153c.038.075.038.173.038.369v.13c0 .196 0 .294-.038.369a.35.35 0 0 1-.153.153C3.984 8 3.886 8 3.69 8h-.13c-.196 0-.294 0-.369-.038a.35.35 0 0 1-.153-.153C3 7.734 3 7.636 3 7.44v-.13Z"/></svg>
