<svg xmlns="http://www.w3.org/2000/svg" width="12" height="12" fill="currentColor" viewBox="0 0 12 12"><path d="m4.082 1.98.431.513c.597.708.535 1.774-.142 2.451l-.367.367a.356.356 0 0 0-.082.375c.133.365.475.822 1.022 1.37.549.548 1.005.889 1.37 1.023.13.048.277.016.375-.082l.367-.368c.677-.677 1.743-.74 2.452-.143l.512.431c.584.492.644 1.379.132 1.98a1.66 1.66 0 0 1-1.098.567c-1.637.22-3.353-.568-5.151-2.366-1.798-1.799-2.587-3.516-2.367-5.152a1.66 1.66 0 0 1 .567-1.098c.602-.511 1.488-.452 1.98.133Z"/></svg>
