<svg xmlns="http://www.w3.org/2000/svg" width="12" height="12" fill="currentColor" viewBox="0 0 12 12"><path d="M4 5a1 1 0 1 0 0-2 1 1 0 0 0 0 2Z"/><path fill-rule="evenodd" d="M.218 1.092C0 1.52 0 2.08 0 3.2v5.6c0 1.12 0 1.68.218 2.108a2 2 0 0 0 .874.874C1.52 12 2.08 12 3.2 12h5.6c1.12 0 1.68 0 2.108-.218a2 2 0 0 0 .874-.874C12 10.48 12 9.92 12 8.8V3.2c0-1.12 0-1.68-.218-2.108a2 2 0 0 0-.874-.874C10.48 0 9.92 0 8.8 0H3.2C2.08 0 1.52 0 1.092.218a2 2 0 0 0-.874.874ZM8.8 1.5H3.2c-.585 0-.933.001-1.191.022-.158.013-.224.03-.242.036a.5.5 0 0 0-.21.209 1.254 1.254 0 0 0-.035.242c-.02.258-.022.606-.022 1.191v5.322l1.066-1.325a.576.576 0 0 1 .868 0l1.023 1.271 2.602-3.26a.57.57 0 0 1 .882 0L10.5 8.415V3.2c0-.585-.001-.933-.022-1.191a1.252 1.252 0 0 0-.036-.242.5.5 0 0 0-.209-.21 1.255 1.255 0 0 0-.242-.035C9.733 1.502 9.385 1.5 8.8 1.5Zm1.438.06-.003-.002.003.001Zm.203.202v.003-.003Zm-8.882 0v.003-.003Zm.203-.203h.003-.003Z" clip-rule="evenodd"/></svg>
