<svg fill="none" height="12" viewBox="0 0 12 12" width="12" xmlns="http://www.w3.org/2000/svg" xmlns:xlink="http://www.w3.org/1999/xlink"><linearGradient id="a" gradientUnits="userSpaceOnUse" x1="0" x2="12" y1="0" y2="12"><stop offset="0" stop-color="#ff80d5"/><stop offset="1" stop-color="#e645b1"/></linearGradient><circle cx="6" cy="6" fill="url(#a)" r="6"/><g fill="#fff"><path d="m5.10899 3.54601c-.10899.21391-.10899.49394-.10899 1.05399v.8c0 .56005 0 .84008.10899 1.05399.09588.18816.24886.34114.43702.43702.21391.10899.49394.10899 1.05399.10899h.8c.56005 0 .84008 0 1.05399-.10899.18816-.09588.34114-.24886.43702-.43702.10899-.21391.10899-.49394.10899-1.05399v-.8c0-.56005 0-.84008-.10899-1.05399-.09588-.18816-.24886-.34114-.43702-.43702-.21391-.10899-.49394-.10899-1.05399-.10899h-.8c-.56005 0-.84008 0-1.05399.10899-.18816.09588-.34114.24886-.43702.43702z"/><path d="m4 5.43195v-.42231c-.1961.01198-.33524.03889-.45399.0994-.18816.09588-.34114.24886-.43702.43702-.10899.21391-.10899.49394-.10899 1.05399v.8c0 .56005 0 .84008.10899 1.05399.09588.18816.24886.34114.43702.43702.21391.10899.49394.10899 1.05399.10899h.8c.56005 0 .84008 0 1.05399-.10899.18816-.09588.34114-.24886.43702-.43702.0605-.11875.08742-.25788.09939-.45398h-.42229c-.25239.00003-.49818.00006-.70633-.01695-.2286-.01868-.49833-.06275-.76976-.20104-.37632-.19175-.68228-.49771-.87403-.87403-.1383-.27143-.18236-.54116-.20104-.76976-.01701-.20815-.01698-.45395-.01695-.70633z"/></g></svg>
