<svg fill="none" height="12" viewBox="0 0 12 12" width="12" xmlns="http://www.w3.org/2000/svg"><path clip-rule="evenodd" d="m12 5.53781c0-3.05845-2.68158-5.53781-5.98948-5.53781-3.30789 0-5.9894724 2.47936-5.9894724 5.53781 0 1.08757.3390764 2.10191.9251434 2.95188 0 .94665-.408775 1.91221-.777989 2.78421-.050042.1182-.0993568.2347-.1468286.3492-.0747815.1784.056979.3842.2351926.3767 1.559804-.066 2.743434-.5277 3.355824-1.3859.73428.297 1.5454.4617 2.39813.4617 3.3079 0 5.98948-2.47933 5.98948-5.53779zm-6.00001-2.28781c-.2308 0-.43067.15359-.48648.38644-.09656.4028-.50137.65107-.90417.55451s-.65107-.50137-.55451-.90417c.21847-.91139 1.02467-1.53678 1.94516-1.53678 1.13672 0 1.96606.93782 1.96606 2.04324 0 .41593-.09824.76098-.27447 1.05592-.16384.27422-.37713.47014-.51694.59856l-.00135.00124c-.28342.26033-.39141.361-.42985.64995-.05463.4106-.43177.69917-.84237.64454-.41059-.05463-.69916-.43177-.64453-.84236.11101-.8344.57391-1.25711.86416-1.52218l.03786-.03464c.14493-.13312.20585-.19835.24536-.26448.02766-.04628.06213-.12216.06213-.28656 0-.35978-.2382-.54323-.46606-.54323zm.90013 5.25747c0 .49705-.40295.9-.9.9-.49706 0-.9-.40295-.9-.9 0-.49706.40294-.9.9-.9.49705 0 .9.40294.9.9z" fill="currentColor" fill-rule="evenodd"/></svg>
