<svg width="12" height="12" fill="none" xmlns="http://www.w3.org/2000/svg"><path fill-rule="evenodd" clip-rule="evenodd" d="M6 12A6 6 0 106 0a6 6 0 000 12zM4 4a.85.85 0 100 1.7A.85.85 0 004 4zm.436 3.476a.6.6 0 10-.872.823A3.342 3.342 0 006 9.35c.96 0 1.826-.405 2.436-1.05a.6.6 0 10-.872-.824A2.142 2.142 0 016 8.15a2.142 2.142 0 01-1.564-.674zM7.15 4.85a.85.85 0 111.7 0 .85.85 0 01-1.7 0z" fill="currentColor"/><path fill-rule="evenodd" clip-rule="evenodd" d="M6 12A6 6 0 106 0a6 6 0 000 12zM4 4a.85.85 0 100 1.7A.85.85 0 004 4zm.436 3.476a.6.6 0 10-.872.823A3.342 3.342 0 006 9.35c.96 0 1.826-.405 2.436-1.05a.6.6 0 10-.872-.824A2.142 2.142 0 016 8.15a2.142 2.142 0 01-1.564-.674zM7.15 4.85a.85.85 0 111.7 0 .85.85 0 01-1.7 0z" fill="currentColor"/></svg>
