<svg xmlns="http://www.w3.org/2000/svg" width="12" height="12" fill="currentColor" viewBox="0 0 12 12"><path fill-rule="evenodd" d="M3.328 1H8.68c.258 0 .494 0 .692.016.213.018.446.057.676.175.33.168.597.435.765.765.117.23.157.463.175.676.016.198.016.434.016.692v5.348c0 .258 0 .494-.016.692a1.775 1.775 0 0 1-.175.677 1.75 1.75 0 0 1-.765.764c-.23.118-.463.158-.676.175-.198.016-.434.016-.692.016H3.328c-.258 0-.494 0-.692-.016a1.775 1.775 0 0 1-.677-.175 1.75 1.75 0 0 1-.764-.764 1.774 1.774 0 0 1-.175-.677c-.016-.198-.016-.434-.016-.692V3.324c0-.258 0-.494.016-.692.017-.213.057-.446.175-.676a1.75 1.75 0 0 1 .764-.765c.23-.118.464-.157.677-.175C2.834 1 3.07 1 3.328 1Z" clip-rule="evenodd"/></svg>
