<svg fill="none" height="12" viewBox="0 0 12 12" width="12" xmlns="http://www.w3.org/2000/svg"><path d="m5.28358 1.49879c.2461-.665055 1.18674-.665055 1.43284 0l.90034 2.43313c.07737.2091.24222.37395.45132.45132l2.43312.90034c.6651.2461.6651 1.18674 0 1.43284l-2.43312.90034c-.2091.07737-.37395.24222-.45132.45132l-.90034 2.43312c-.2461.6651-1.18674.6651-1.43284 0l-.90034-2.43312c-.07737-.2091-.24222-.37395-.45132-.45132l-2.43313-.90034c-.665055-.2461-.665055-1.18674 0-1.43284l2.43313-.90034c.2091-.07737.37395-.24222.45132-.45132z" fill="currentColor"/></svg>
