<svg xmlns="http://www.w3.org/2000/svg" width="12" height="12" fill="currentColor" viewBox="0 0 12 12"><path d="M6.54 1.864c-.202-.82-.303-1.231-.35-1.28-.11-.112-.252-.112-.361 0-.048.05-.148.46-.349 1.282-.257 1.054-.61 2.096-1.061 2.548-.452.452-1.495.805-2.552 1.062-.822.2-1.234.3-1.283.348-.112.11-.112.252 0 .361.049.048.46.15 1.282.351 1.057.26 2.1.615 2.553 1.067.451.452.805 1.49 1.062 2.54.2.815.3 1.223.348 1.273.11.112.251.112.36 0 .049-.05.15-.457.351-1.273.26-1.05.615-2.088 1.067-2.54.453-.452 1.491-.81 2.54-1.074.814-.204 1.221-.306 1.27-.355.111-.11.11-.251-.002-.36-.049-.048-.457-.147-1.272-.344-1.048-.254-2.084-.604-2.536-1.056-.452-.452-.807-1.494-1.067-2.55Z"/></svg>
