<svg width="12" height="12" fill="none" xmlns="http://www.w3.org/2000/svg"><path d="M2.803.218a.319.319 0 00-.606 0l-.242.728c-.159.476-.533.85-1.009 1.009l-.728.242a.319.319 0 000 .606l.728.242c.476.159.85.533 1.009 1.009l.242.728c.097.29.509.29.606 0l.242-.728c.159-.476.533-.85 1.009-1.009l.728-.242a.319.319 0 000-.606l-.728-.242A1.595 1.595 0 013.045.946L2.803.218z" fill="currentColor"/><path fill-rule="evenodd" clip-rule="evenodd" d="M6.436 3.472c-.256.746-.599 1.5-1.031 1.933-.433.432-1.187.775-1.933 1.03a12.312 12.312 0 01-.768.237c-.272.075-.272.58 0 .656a15.19 15.19 0 01.768.236c.746.256 1.5.599 1.933 1.031.432.433.775 1.187 1.03 1.933a12.445 12.445 0 01.237.768c.075.272.58.272.656 0a14.925 14.925 0 01.236-.768c.256-.746.599-1.5 1.031-1.933.433-.432 1.187-.775 1.933-1.03a12.445 12.445 0 01.768-.237c.272-.075.272-.58 0-.656a15.08 15.08 0 01-.768-.236c-.746-.256-1.5-.599-1.933-1.031-.432-.433-.775-1.187-1.03-1.933a12.12 12.12 0 01-.237-.768c-.075-.272-.58-.272-.656 0a15.19 15.19 0 01-.236.768z" fill="currentColor"/></svg>
