<svg fill="none" height="12" viewBox="0 0 12 12" width="12" xmlns="http://www.w3.org/2000/svg" xmlns:xlink="http://www.w3.org/1999/xlink"><linearGradient id="a" gradientUnits="userSpaceOnUse" x1="-6" x2="6" y1="6" y2="18"><stop offset="0" stop-color="#ffb73d"/><stop offset="1" stop-color="#ffa000"/></linearGradient><g clip-rule="evenodd" fill-rule="evenodd"><path d="m6 0c3.31371 0 6 2.68629 6 6s-2.68629 6-6 6-6-2.68629-6-6 2.68629-6 6-6zm.11064 2.5907c-.12381-.0611-.27372-.01027-.33482.11355l-.95139 1.92772-2.12737.30912c-.0544.00791-.10469.03353-.14307.0729-.09637.09887-.09435.25715.00452.35352l1.53938 1.50052-.3634 2.11877c-.00929.05419-.00047.10993.02512.1586.06425.12221.21541.1692.33762.10495l1.90277-1.00035 1.90277 1.00035c.04867.02558.10441.03441.1586.02512.13608-.02334.22748-.15258.20414-.28867l-.3634-2.11877 1.53938-1.50052c.03937-.03837.06499-.08866.0729-.14307.01985-.13663-.07482-.2635-.21145-.28335l-2.12737-.30912-.95139-1.92772c-.02433-.04931-.06424-.08921-.11354-.11355z" fill="url(#a)"/><path d="m6.11064 2.59071c-.12381-.06111-.27372-.01027-.33482.11354l-.95139 1.92772-2.12736.30912c-.05441.00791-.1047.03353-.14307.0729-.09638.09887-.09436.25715.00451.35353l1.53938 1.50052-.3634 2.11877c-.00929.05418-.00046.10993.02512.15859.06425.12221.21541.1692.33762.10495l1.90277-1.00035 1.90278 1.00035c.04866.02558.1044.03441.15859.02512.13609-.02334.22748-.15258.20414-.28866l-.36339-2.11877 1.53937-1.50052c.03937-.03838.06499-.08867.0729-.14308.01985-.13663-.07482-.26349-.21145-.28335l-2.12737-.30912-.95138-1.92772c-.02434-.0493-.06424-.08921-.11355-.11354z" fill="#fff"/></g></svg>
