<svg fill="none" height="12" viewBox="0 0 12 12" width="12" xmlns="http://www.w3.org/2000/svg"><g fill="currentColor"><path d="m6 8c1.10457 0 2-.89543 2-2s-.89543-2-2-2-2 .89543-2 2 .89543 2 2 2z"/><path clip-rule="evenodd" d="m0 4.8c0-1.68016 0-2.52024.32698-3.16197.287621-.56449.74656-1.023429 1.31105-1.31105.64173-.32698 1.48181-.32698 3.16197-.32698h2.4c1.68016 0 2.52024 0 3.162.32698.5645.287621 1.0234.74656 1.311 1.31105.327.64173.327 1.48181.327 3.16197v2.4c0 1.68016 0 2.52024-.327 3.162-.2876.5645-.7465 1.0234-1.311 1.311-.64176.327-1.48184.327-3.162.327h-2.4c-1.68016 0-2.52024 0-3.16197-.327-.56449-.2876-1.023429-.7465-1.31105-1.311-.32698-.64176-.32698-1.48184-.32698-3.162zm9.5 1.2c0 1.933-1.567 3.5-3.5 3.5s-3.5-1.567-3.5-3.5 1.567-3.5 3.5-3.5 3.5 1.567 3.5 3.5z" fill-rule="evenodd"/></g></svg>
