<svg xmlns="http://www.w3.org/2000/svg" width="12" height="12" fill="none" viewBox="0 0 12 12"><path fill="currentColor" d="M11.25 4.75A.75.75 0 0 0 12 4V.75a.75.75 0 0 0-1.5 0v1.2814C9.4012.7865 7.7928.0001 6 .0001 3.179 0 .8144 1.9462.1721 4.5682a.75.75 0 0 0 1.457.357C2.1108 2.9584 3.886 1.5 6 1.5c1.4488 0 2.7385.6844 3.5623 1.75H8.25a.75.75 0 0 0 0 1.5h3Zm.0283 1.7712a.75.75 0 0 1 .5507.9065C11.1882 10.0518 8.8226 12 6 12c-1.7927 0-3.4012-.7865-4.5-2.0315V11.25a.75.75 0 0 1-1.5 0V8a.75.75 0 0 1 .75-.75h3a.75.75 0 0 1 0 1.5H2.4377C3.2614 9.8155 4.5512 10.5 6 10.5c2.1152 0 3.8912-1.46 4.3718-3.4282a.75.75 0 0 1 .9065-.5507Z"/></svg>
