<svg width="12" height="12" viewBox="0 0 12 12" fill="none" xmlns="http://www.w3.org/2000/svg">
<path d="M6 2C3.27273 2 0.943636 3.65867 0 6C0.943636 8.34133 3.27273 10 6 10C8.72727 10 11.0564 8.34133 12 6C11.0564 3.65867 8.72727 2 6 2ZM6 8.66667C4.49455 8.66667 3.27273 7.472 3.27273 6C3.27273 4.528 4.49455 3.33333 6 3.33333C7.50545 3.33333 8.72727 4.528 8.72727 6C8.72727 7.472 7.50545 8.66667 6 8.66667ZM6 4.4C5.09455 4.4 4.36364 5.11467 4.36364 6C4.36364 6.88533 5.09455 7.6 6 7.6C6.90545 7.6 7.63636 6.88533 7.63636 6C7.63636 5.11467 6.90545 4.4 6 4.4Z" fill="currentColor"/>
</svg>
