<svg width="48" height="48" fill="none" xmlns="http://www.w3.org/2000/svg"><path fill-rule="evenodd" clip-rule="evenodd" d="M20.385 4.496a5.11 5.11 0 017.23 0l1.857 1.86a2.11 2.11 0 001.678.61l2.617-.23a5.11 5.11 0 015.539 4.647l.228 2.618a2.11 2.11 0 00.892 1.546l2.154 1.506a5.11 5.11 0 011.255 7.12l-1.508 2.152a2.11 2.11 0 00-.31 1.758l.681 2.538a5.11 5.11 0 01-3.615 6.262l-2.538.678a2.11 2.11 0 00-1.368 1.148l-1.11 2.382a5.11 5.11 0 01-6.793 2.473l-2.381-1.112a2.11 2.11 0 00-1.786 0l-2.38 1.112a5.11 5.11 0 01-6.795-2.473l-1.11-2.382a2.11 2.11 0 00-1.367-1.148l-2.538-.678a5.11 5.11 0 01-3.615-6.262l.681-2.538a2.11 2.11 0 00-.31-1.758l-1.508-2.152a5.11 5.11 0 011.255-7.12l2.154-1.506A2.11 2.11 0 008.466 14l.228-2.618a5.11 5.11 0 015.539-4.647l2.617.23a2.11 2.11 0 001.678-.61l1.857-1.86zm5.108 2.12a2.11 2.11 0 00-2.986 0l-1.857 1.86a5.11 5.11 0 01-4.063 1.478l-2.617-.23a2.11 2.11 0 00-2.287 1.919l-.228 2.618a5.11 5.11 0 01-2.162 3.744L7.14 19.511a2.11 2.11 0 00-.519 2.94l1.509 2.152a5.11 5.11 0 01.75 4.258L8.2 31.4a2.11 2.11 0 001.492 2.585l2.538.68a5.11 5.11 0 013.313 2.779l1.109 2.382a2.11 2.11 0 002.805 1.02l2.381-1.111a5.11 5.11 0 014.324 0l2.38 1.112a2.11 2.11 0 002.806-1.021l1.11-2.383a5.11 5.11 0 013.312-2.779l2.538-.679a2.11 2.11 0 001.493-2.585l-.681-2.538a5.11 5.11 0 01.75-4.258l1.509-2.152a2.11 2.11 0 00-.519-2.94l-2.153-1.506a5.11 5.11 0 01-2.162-3.744l-.228-2.618a2.11 2.11 0 00-2.287-1.919l-2.617.23a5.11 5.11 0 01-4.063-1.478l-1.857-1.86zM24 16a1.5 1.5 0 011.5 1.5v5h5a1.5 1.5 0 010 3h-5v5a1.5 1.5 0 01-3 0v-5h-5a1.5 1.5 0 010-3h5v-5A1.5 1.5 0 0124 16z" fill="currentColor"/></svg>
