<?xml version="1.0" encoding="UTF-8"?>
<svg width="48px" height="48px" viewBox="0 0 48 48" version="1.1" xmlns="http://www.w3.org/2000/svg" xmlns:xlink="http://www.w3.org/1999/xlink">
    <!-- Generator: Sketch 50.2 (55047) - http://www.bohemiancoding.com/sketch -->
    <title>camera_48</title>
    <desc>Created with Sketch.</desc>
    <defs></defs>
    <g id="Page-2" stroke="none" stroke-width="1" fill="none" fill-rule="evenodd">
        <g id="camera_48">
            <rect id="bounds" x="0" y="0" width="48" height="48"></rect>
            <path d="M10.3636364,12 C10.4621175,12 10.7651478,12 11.2727273,12 C12.6325351,12 14.1138106,11.0066854 14.8411935,10.1088499 C15.5685764,9.2110144 16.2366383,8.38027969 16.2773149,8.33249002 C17.0696636,7.40158328 17.8782152,7 19.2578388,7 C20.3609699,7 21.1802721,7 21.7157452,7 C22.3931401,7 23.1545584,7 24,7 L24,40 L11.2727273,40 C7.25611091,40 4,36.8162471 4,32.8888889 L4,19.1111111 C4,14.6666667 6,12 10.3636364,12 Z M37.6363636,12 C37.5378825,12 37.2348522,12 36.7272727,12 C35.3674649,12 33.8861894,11.0066854 33.1588065,10.1088499 C32.4314236,9.2110144 31.7633617,8.38027969 31.7226851,8.33249002 C30.9303364,7.40158328 30.1217848,7 28.7421612,7 C27.6390301,7 26.8197279,7 26.2842548,7 C25.6068599,7 24.8454416,7 24,7 L24,40 L36.7272727,40 C40.7438891,40 44,36.8162471 44,32.8888889 L44,19.1111111 C44,14.6666667 42,12 37.6363636,12 Z M15,25 C15,29.968 19.032,34 24,34 C28.968,34 33,29.968 33,25 C33,20.032 28.968,16 24,16 C19.032,16 15,20.032 15,25 Z M17.25,25 C17.25,21.2716797 20.2716797,18.25 24,18.25 C27.7283203,18.25 30.75,21.2716797 30.75,25 C30.75,28.7283203 27.7283203,31.75 24,31.75 C20.2716797,31.75 17.25,28.7283203 17.25,25 Z" id="Mask" fill="currentColor"></path>
        </g>
    </g>
</svg>
