<svg fill="none" height="48" viewBox="0 0 48 48" width="48" xmlns="http://www.w3.org/2000/svg"><path d="m28.3283 5h-8.9423c-1.6128 0-2.7668.48953-3.7779 1.59214l-.177.20096c-.031.03666-1.0245 1.27367-1.3772 1.71117-.3502.43445-1.2868.80264-2.1968.80264h-.3571c-4.40929 0-7.5 3.41659-7.5 8.39109v14.9081c0 4.4982 3.81992 8.391 8.7143 8.391h22.2857c4.9242 0 9.0043-3.933 9.0043-8.391v-14.9081c0-4.9745-3.0907-8.39109-7.5-8.39109h-.6472c-.9099 0-1.8465-.36819-2.1967-.80264l-1.3773-1.71117c-1.0538-1.24428-2.2471-1.7931-3.9548-1.7931zm0 3c.7652 0 1.1265.13908 1.5564.60785l.1092.12417c.0015.00179.9183 1.14327 1.3309 1.65508.9759 1.2106 2.78 1.9198 4.5323 1.9198h.6472c2.6816 0 4.5 2.0101 4.5 5.3911v14.9081c0 2.776-2.7128 5.391-6.0043 5.391h-22.2857c-3.22469 0-5.7143-2.5371-5.7143-5.391v-14.9081c0-3.381 1.81838-5.3911 4.5-5.3911h.3571c1.7524 0 3.5565-.7092 4.5324-1.9198l1.3309-1.65508c.4817-.56879.8366-.73202 1.6656-.73202zm-4.3283 7.5c-4.6944 0-8.5 3.8056-8.5 8.5s3.8056 8.5 8.5 8.5 8.5-3.8056 8.5-8.5-3.8056-8.5-8.5-8.5zm0 3c3.0376 0 5.5 2.4624 5.5 5.5s-2.4624 5.5-5.5 5.5-5.5-2.4624-5.5-5.5 2.4624-5.5 5.5-5.5z" fill="currentColor"/></svg>
