<svg xmlns="http://www.w3.org/2000/svg" width="48" height="48" fill="currentColor" viewBox="0 0 48 48"><path fill-rule="evenodd" d="M44 24c0 11.046-8.954 20-20 20S4 35.046 4 24 12.954 4 24 4s20 8.954 20 20Zm-11.98-8.979L19.392 17.89a2 2 0 0 0-1.507 1.508L15.02 32.022a.8.8 0 0 0 .957.958l12.61-2.859a2 2 0 0 0 1.508-1.506l2.881-12.635a.8.8 0 0 0-.957-.959ZM24 27a3 3 0 1 0 0-6 3 3 0 0 0 0 6Z" clip-rule="evenodd"/><path d="M24 27a3 3 0 1 0 0-6 3 3 0 0 0 0 6Z M44 24c0 11.046-8.954 20-20 20S4 35.046 4 24 12.954 4 24 4s20 8.954 20 20Zm-11.98-8.979L19.392 17.89a2 2 0 0 0-1.507 1.508L15.02 32.022a.8.8 0 0 0 .957.958l12.61-2.859a2 2 0 0 0 1.508-1.506l2.881-12.635a.8.8 0 0 0-.957-.959Z" clip-rule="evenodd"/></svg>
