<svg fill="none" height="48" viewBox="0 0 48 48" width="48" xmlns="http://www.w3.org/2000/svg"><g clip-rule="evenodd" fill="currentColor" fill-rule="evenodd"><path d="m24 45c11.598 0 21-9.402 21-21s-9.402-21-21-21-21 9.402-21 21 9.402 21 21 21zm0-3c9.9411 0 18-8.0589 18-18s-8.0589-18-18-18-18 8.0589-18 18 8.0589 18 18 18z"/><path d="m24 15.4059-2.4054 5.7833-6.2436.5006 4.757 4.0748-1.4534 6.0927 5.3454-3.265 5.3454 3.265-1.4534-6.0927 4.757-4.0748-6.2436-.5006zm-2.4976-1.8069c.5737-1.3794 2.157-2.0325 3.5364-1.4588.6599.2744 1.1843.7989 1.4588 1.4588l1.9741 4.7463 5.124.4108c1.4892.1193 2.5996 1.4233 2.4802 2.9125-.0571.7124-.3938 1.3732-.9366 1.8381l-3.904 3.3442 1.1927 5.0002c.3467 1.4531-.5503 2.9122-2.0035 3.2588-.6952.1658-1.4277.0498-2.0376-.3227l-4.3869-2.6795-4.3869 2.6795c-1.2749.7787-2.9397.3764-3.7184-.8985-.3726-.6099-.4886-1.3424-.3228-2.0376l1.1928-5.0002-3.904-3.3442c-1.1346-.9718-1.2665-2.6795-.2946-3.8141.465-.5427 1.1258-.8794 1.8382-.9365l5.124-.4108z"/></g></svg>
