<svg fill="none" height="48" viewBox="0 0 48 48" width="48" xmlns="http://www.w3.org/2000/svg"><path d="m34.4915 12c9.625 0 10.5 15.75 10.5 21s-.875 7-4.375 7c-3.6165 0-6.9915-9-9.6165-9h-14.0085c-2.625 0-5.9915 9-9.62504 9-3.5 0-4.375-1.75-4.375-7s.875-21 10.50004-21zm-19.4915 4.5h-.5c-.5523 0-1 .4477-1 1l-.0005 2.5h-2.4995c-.4909 0-.8992.3538-.9839.8202l-.01612.1798v.5c0 .5523.44772 1 1.00002 1h2.4995l.0005 2.5c0 .4909.3537.8992.8202.9839l.1798.0161h.5c.5523 0 1-.4477 1-1l-.0005-2.5h2.5005c.4909 0 .8992-.3538.9839-.8202l.0161-.1798v-.5c0-.5523-.4477-1-1-1h-2.5005l.0005-2.5c0-.4909-.3538-.8992-.8203-.9839zm18.5 7h-.5c-.5523 0-1 .4477-1 1v.5c0 .5523.4477 1 1 1h.5c.5523 0 1-.4477 1-1v-.5c0-.5523-.4477-1-1-1zm-3.5-3.5h-.5c-.5523 0-1 .4477-1 1v.5c0 .5523.4477 1 1 1h.5c.5523 0 1-.4477 1-1v-.5c0-.5523-.4477-1-1-1zm7 0h-.5c-.5523 0-1 .4477-1 1v.5c0 .5523.4477 1 1 1h.5c.5523 0 1-.4477 1-1v-.5c0-.5523-.4477-1-1-1zm-3.5-3.5h-.5c-.5523 0-1 .4477-1 1v.5c0 .5523.4477 1 1 1h.5c.5523 0 1-.4477 1-1v-.5c0-.5523-.4477-1-1-1z" fill="currentColor"/></svg>
