<svg xmlns="http://www.w3.org/2000/svg" width="48" height="48" fill="none" viewBox="0 0 48 48">
  <circle cx="24" cy="24" r="24" fill="url(#a)"/>
  <path fill="#fff" d="m18.213 15.797 1.977 1.977 1.695 1.694 2.032 2.034h.002l2.58 2.579v.004l2.032 2.032a.04.04 0 0 0 .001-.003l2.284 2.285-.002.001 1.386 1.387a1 1 0 0 1-1.32 1.498l-.095-.084-1.639-1.638C27.689 30.409 25.95 31 24 31c-6 0-10-5.6-10-7 0-.89 1.618-3.48 4.34-5.247L16.8 17.21a1 1 0 0 1 1.414-1.414ZM19 24a5 5 0 0 0 8.322 3.737l-1.774-1.773a2.5 2.5 0 0 1-3.51-3.512l-1.775-1.774A4.981 4.981 0 0 0 19 24Zm5-7c6 0 10 5.6 10 7 0 .552-.621 1.756-1.74 3.012l-3.266-3.265a5 5 0 0 0-4.741-4.74l-1.87-1.87A9.634 9.634 0 0 1 24 17Z"/>
  <defs>
    <linearGradient id="a" x1="0" x2="48" y1="0" y2="48" gradientUnits="userSpaceOnUse">
      <stop stop-color="#A393F5"/>
      <stop offset="1" stop-color="#735CE6"/>
    </linearGradient>
  </defs>
</svg>
