<svg fill="none" height="48" viewBox="0 0 48 48" width="48" xmlns="http://www.w3.org/2000/svg"><path d="m29.7117 18.2883c3.7622 3.7621 3.7622 9.8618 0 13.6239l-7.2661 7.2662c-3.7621 3.7621-9.8618 3.7621-13.62398 0-3.76216-3.7622-3.76216-9.8619 0-13.624l.30035-.3004c.75243-.7524 1.97233-.7524 2.72483 0 .7524.7525.7524 1.9724 0 2.7248l-.3004.3004c-2.25728 2.2573-2.25728 5.9171 0 8.1744 2.2573 2.2573 5.9171 2.2573 8.1744 0l7.2661-7.2662c2.2573-2.2572 2.2573-5.9171 0-8.1743-.7524-.7525-.7524-1.9724 0-2.7248.7525-.7525 1.9724-.7525 2.7248 0zm9.4667-9.46668c3.7621 3.76218 3.7621 9.86188 0 13.62398l-.4351.435c-.7524.7525-1.9723.7525-2.7248 0-.7524-.7524-.7524-1.9723 0-2.7248l.4351-.435c2.2573-2.2573 2.2573-5.9171 0-8.1744-2.2573-2.25728-5.9171-2.25728-8.1744 0l-7.2661 7.2662c-2.2573 2.2572-2.2573 5.9171 0 8.1743.7524.7525.7524 1.9724 0 2.7248-.7525.7525-1.9724.7525-2.7248 0-3.7622-3.7621-3.7622-9.8618 0-13.6239l7.2661-7.26618c3.7621-3.76216 9.8618-3.76216 13.624 0z" fill="currentColor"/></svg>
