<svg fill="none" height="48" viewBox="0 0 48 48" width="48" xmlns="http://www.w3.org/2000/svg"><path d="m29.7829 5.14286c10.56 0 13.0742 2.51429 13.0742 13.07424v11.5658c0 10.56-2.5142 13.0742-13.0742 13.0742h-11.5658c-10.55996 0-13.07425-2.5142-13.07425-13.0742v-11.5658c0-10.55995 2.51429-13.07424 13.07425-13.07424zm-14.8186 11.78574h-2.75c-.7857 0-.9428.3699-.9428.7777 0 .7284.9323 4.3411 4.341 9.1191 2.2724 3.263 5.4741 5.0317 8.3875 5.0317 1.7481 0 1.9643-.3928 1.9643-1.0695v-2.4662c0-.7857.1656-.9425.7192-.9425.4078 0 1.1071.2039 2.7386 1.7772 1.8646 1.8646 2.172 2.701 3.2208 2.701h2.75c.7857 0 1.1786-.3928.9519-1.1681-.248-.7727-1.1382-1.8938-2.3195-3.2227-.6409-.7575-1.6024-1.5732-1.8937-1.9812-.4079-.5243-.2914-.7574 0-1.2235l.0489-.0694c.4144-.589 3.3265-4.7649 3.6512-6.2528.1747-.5827 0-1.0108-.8317-1.0108h-2.75c-.6992 0-1.0215.3699-1.1964.7777 0 0-1.3985 3.4087-3.3796 5.6229-.6409.641-.9323.8449-1.2819.8449-.1748 0-.4278-.2039-.4278-.7866v-5.4481c0-.6992-.2029-1.0108-.7857-1.0108h-4.3214c-.437 0-.6998.3245-.6998.6321 0 .6628.9905.8157 1.0926 2.6803v4.0497c0 .8879-.1603 1.0488-.5099 1.0488-.9323 0-3.2-3.4239-4.545-7.3418-.2636-.7615-.5279-1.0691-1.2308-1.0691z" fill="currentColor"/></svg>
