<svg fill="none" height="48" viewBox="0 0 48 48" width="48" xmlns="http://www.w3.org/2000/svg"><path clip-rule="evenodd" d="m5 23.9408c0 12.206 8.3095 19.4592 19.8347 19.4592 2.9342 0 5.5397-.3756 7.2767-.9624 1.4084-.4695 1.9013-1.1033 1.9013-1.9248 0-.8216-.5399-1.338-1.5023-1.338-.2347 0-.5399.0235-.9154.0939-2.1126.5164-3.7322.845-6.0326.845-10.0934 0-16.9006-5.8682-16.9006-16.032 0-9.8353 6.3142-16.61897 15.9147-16.61897 8.3799 0 15.1636 5.14057 15.1636 14.60027 0 4.9293-1.7839 8.3798-4.3894 8.3798-1.6901 0-2.6056-.9154-2.6056-2.5116v-11.6426c0-1.3145-.7511-2.1126-2.0186-2.1126-1.2441 0-2.0187.7981-2.0187 2.1126v1.1736h-.2347c-.9624-2.0891-3.1454-3.2862-5.7275-3.2862-4.6711 0-7.9808 3.9435-7.9808 9.7413 0 5.8918 3.3097 9.9291 8.1451 9.9291 2.7229 0 4.8355-1.3614 5.8683-3.7556h.2347c.4225 2.3707 2.629 3.7556 5.5397 3.7556 5.4692 0 8.8493-5.0467 8.8493-12.0651 0-10.7037-7.8635-17.58133-18.7784-17.58133-11.5957 0-19.6235 7.76963-19.6235 19.74083zm18.7315 6.2438c-2.9107 0-4.6242-2.3473-4.6242-6.2438 0-3.873 1.737-6.1734 4.6242-6.1734 2.9576 0 4.8354 2.3943 4.8354 6.1499 0 3.8496-1.9013 6.2673-4.8354 6.2673z" fill="currentColor" fill-rule="evenodd"/></svg>
