<svg width="48" height="48" viewBox="0 0 48 48" fill="none" xmlns="http://www.w3.org/2000/svg">
<circle cx="24" cy="24" r="24" fill="url(#paint0_linear)"/>
<path d="M28.9071 20.2929C29.2976 20.6834 29.2976 21.3166 28.9071 21.7071L23.3071 27.3071C22.9195 27.6947 22.2921 27.698 21.9004 27.3146L19.3004 24.7691C18.9058 24.3827 18.8991 23.7496 19.2854 23.355C19.6718 22.9603 20.3049 22.9536 20.6996 23.34L22.5925 25.1932L27.4929 20.2929C27.8834 19.9024 28.5166 19.9024 28.9071 20.2929Z" fill="white"/>
<path fill-rule="evenodd" clip-rule="evenodd" d="M20 12.5C20 11.9477 19.5523 11.5 19 11.5C18.4477 11.5 18 11.9477 18 12.5V13.1419C17.5469 13.2191 17.1277 13.3424 16.73 13.545C15.7892 14.0243 15.0243 14.7892 14.545 15.73C14.2432 16.3223 14.1174 16.9625 14.0578 17.6914C14 18.3993 14 19.2734 14 20.3572V27.6428C14 28.7266 14 29.6008 14.0578 30.3086C14.1174 31.0375 14.2432 31.6777 14.545 32.27C15.0243 33.2108 15.7892 33.9757 16.73 34.455C17.3223 34.7568 17.9625 34.8826 18.6914 34.9422C19.3992 35 20.2733 35 21.3571 35H26.6428C27.7266 35 28.6008 35 29.3086 34.9422C30.0375 34.8826 30.6777 34.7568 31.27 34.455C32.2108 33.9757 32.9757 33.2108 33.455 32.27C33.7568 31.6777 33.8826 31.0375 33.9422 30.3086C34 29.6008 34 28.7267 34 27.6429V20.3572C34 19.2734 34 18.3992 33.9422 17.6914C33.8826 16.9625 33.7568 16.3223 33.455 15.73C32.9757 14.7892 32.2108 14.0243 31.27 13.545C30.8723 13.3424 30.4531 13.2191 30 13.1419V12.5C30 11.9477 29.5523 11.5 29 11.5C28.4477 11.5 28 11.9477 28 12.5V13.0055C27.5885 13 27.1375 13 26.6428 13L25 13V12.5C25 11.9477 24.5523 11.5 24 11.5C23.4477 11.5 23 11.9477 23 12.5V13L21.3572 13C20.8625 13 20.4115 13 20 13.0055V12.5ZM28 15.0057C27.5985 15.0002 27.1378 15 26.6 15H25V15.5C25 16.0523 24.5523 16.5 24 16.5C23.4477 16.5 23 16.0523 23 15.5V15H21.4C20.8622 15 20.4015 15.0002 20 15.0057V15.5C20 16.0523 19.5523 16.5 19 16.5C18.4477 16.5 18 16.0523 18 15.5V15.1877C17.8591 15.2276 17.742 15.274 17.638 15.327C17.0735 15.6146 16.6146 16.0735 16.327 16.638C16.1928 16.9014 16.1006 17.2491 16.0512 17.8542C16.0008 18.4711 16 19.2634 16 20.4V27.6C16 28.7366 16.0008 29.5289 16.0512 30.1458C16.1006 30.7509 16.1928 31.0986 16.327 31.362C16.6146 31.9265 17.0735 32.3854 17.638 32.673C17.9014 32.8072 18.2491 32.8994 18.8542 32.9488C19.4711 32.9992 20.2634 33 21.4 33H26.6C27.7366 33 28.5289 32.9992 29.1458 32.9488C29.7509 32.8994 30.0986 32.8072 30.362 32.673C30.9265 32.3854 31.3854 31.9265 31.673 31.362C31.8072 31.0986 31.8994 30.7509 31.9488 30.1458C31.9992 29.5289 32 28.7366 32 27.6V20.4C32 19.2634 31.9992 18.4711 31.9488 17.8542C31.8994 17.2491 31.8072 16.9014 31.673 16.638C31.3854 16.0735 30.9265 15.6146 30.362 15.327C30.258 15.274 30.1409 15.2276 30 15.1877V15.5C30 16.0523 29.5523 16.5 29 16.5C28.4477 16.5 28 16.0523 28 15.5V15.0057Z" fill="white"/>
<defs>
<linearGradient id="paint0_linear" x1="0" y1="0" x2="49.2563" y2="1.32581" gradientUnits="userSpaceOnUse">
<stop stop-color="#70B2FF"/>
<stop offset="1" stop-color="#5C9CE6"/>
</linearGradient>
</defs>
</svg>
