<svg fill="none" height="48" viewBox="0 0 48 48" width="48" xmlns="http://www.w3.org/2000/svg"><path d="m24 6c-9.94 0-18 8.06-18 18s8.06 18 18 18c1.66 0 3-1.34 3-3 0-.78-.3-1.48-.78-2.02-.46-.52-.76-1.22-.76-1.98 0-1.66 1.34-3 3-3h3.54c5.52 0 10-4.48 10-10 0-8.84-8.06-16-18-16zm-11 18c-1.66 0-3-1.34-3-3s1.34-3 3-3 3 1.34 3 3-1.34 3-3 3zm6-8c-1.66 0-3-1.34-3-3s1.34-3 3-3 3 1.34 3 3-1.34 3-3 3zm10 0c-1.66 0-3-1.34-3-3s1.34-3 3-3 3 1.34 3 3-1.34 3-3 3zm6 8c-1.66 0-3-1.34-3-3s1.34-3 3-3 3 1.34 3 3-1.34 3-3 3z" fill="currentColor"/></svg>
