<svg width="48" height="48" fill="none" xmlns="http://www.w3.org/2000/svg"><path fill-rule="evenodd" clip-rule="evenodd" d="M8.827 5.64c1.598-.855 3.178-1.14 6.685-1.14h16.975c3.508 0 5.088.285 6.686 1.14a7.68 7.68 0 013.187 3.187c.855 1.598 1.14 3.178 1.14 6.685v16.975c0 3.508-.285 5.088-1.14 6.686a7.681 7.681 0 01-3.187 3.187c-1.598.855-3.178 1.14-6.686 1.14H15.512c-3.507 0-5.087-.285-6.685-1.14a7.681 7.681 0 01-3.187-3.187c-.855-1.598-1.14-3.178-1.14-6.686V15.512c0-3.507.285-5.087 1.14-6.685A7.68 7.68 0 018.827 5.64zm6.685 1.86c-3.369 0-4.34.287-5.27.785a4.681 4.681 0 00-1.957 1.957c-.498.93-.785 1.901-.785 5.27v16.975c0 3.37.287 4.34.785 5.271a4.682 4.682 0 001.957 1.956c.93.498 1.901.786 5.27.786h16.975c3.37 0 4.34-.288 5.271-.785a4.681 4.681 0 001.956-1.957c.498-.93.786-1.901.786-5.27V15.511c0-3.369-.288-4.34-.785-5.27a4.68 4.68 0 00-1.957-1.957c-.93-.498-1.901-.785-5.27-.785H15.511z" fill="#99A2AD"/><path opacity=".5" d="M29.665 24.406l1.156.955-1.156-.955zm-8.55 9.567l-.938 1.17.939-1.17zm-4.708-3.777l-.939 1.17.939-1.17zM8.184 39.91l8.617-8.617-2.121-2.121-8.617 8.616 2.121 2.122zm7.284-8.544l4.71 3.778 1.876-2.34-4.708-3.778-1.878 2.34zm7.502 3.492l7.85-9.497-2.311-1.911-7.851 9.496 2.312 1.912zm6.404-9.397l11.612 10.645 2.028-2.212L31.4 23.25l-2.027 2.211zm1.447-.1a1 1 0 01-1.447.1l2.027-2.211a2 2 0 00-2.892.2l2.312 1.911zm-10.644 9.783a2 2 0 002.793-.286l-2.312-1.912a1 1 0 011.396-.143l-1.877 2.34zm-3.376-3.85a1 1 0 01-1.333.072l1.878-2.34a2 2 0 00-2.666.146l2.121 2.121z" fill="currentColor"/><circle cx="17" cy="17" r="3" fill="#C4C4C4"/><path fill-rule="evenodd" clip-rule="evenodd" d="M8.827 5.64c1.598-.855 3.178-1.14 6.685-1.14h16.975c3.508 0 5.088.285 6.686 1.14a7.68 7.68 0 013.187 3.187c.855 1.598 1.14 3.178 1.14 6.685v16.975c0 3.508-.285 5.088-1.14 6.686a7.681 7.681 0 01-3.187 3.187c-1.598.855-3.178 1.14-6.686 1.14H15.512c-3.507 0-5.087-.285-6.685-1.14a7.681 7.681 0 01-3.187-3.187c-.855-1.598-1.14-3.178-1.14-6.686V15.512c0-3.507.285-5.087 1.14-6.685A7.68 7.68 0 018.827 5.64zm6.685 1.86c-3.369 0-4.34.287-5.27.785a4.681 4.681 0 00-1.957 1.957c-.498.93-.785 1.901-.785 5.27v16.975c0 3.37.287 4.34.785 5.271a4.682 4.682 0 001.957 1.956c.93.498 1.901.786 5.27.786h16.975c3.37 0 4.34-.288 5.271-.785a4.681 4.681 0 001.956-1.957c.498-.93.786-1.901.786-5.27V15.511c0-3.369-.288-4.34-.785-5.27a4.68 4.68 0 00-1.957-1.957c-.93-.498-1.901-.785-5.27-.785H15.511z" fill="currentColor"/><path fill-rule="evenodd" clip-rule="evenodd" d="M16.167 31.927L8.184 39.91l-2.12-2.121 8.616-8.617a2 2 0 012.666-.146l3.94 3.16 7.223-8.736a2 2 0 012.892-.2l11.613 10.644-2.028 2.212-10.836-9.934-7.18 8.686a2 2 0 01-2.793.286l-4.01-3.217z" fill="currentColor"/><path d="M20 17a3 3 0 11-6 0 3 3 0 016 0z" fill="currentColor"/></svg>
