<svg xmlns="http://www.w3.org/2000/svg" width="48" height="48" fill="currentColor" viewBox="0 0 48 48"><path fill-rule="evenodd" d="M8.827 5.64c1.598-.855 3.178-1.14 6.685-1.14h16.975c3.508 0 5.088.285 6.686 1.14a7.68 7.68 0 0 1 3.187 3.187c.855 1.598 1.14 3.178 1.14 6.685v16.975c0 3.508-.285 5.088-1.14 6.686a7.681 7.681 0 0 1-3.187 3.187c-1.598.855-3.178 1.14-6.686 1.14H15.512c-3.507 0-5.087-.285-6.685-1.14a7.68 7.68 0 0 1-3.187-3.187c-.855-1.598-1.14-3.178-1.14-6.686V15.512c0-3.507.285-5.087 1.14-6.685A7.68 7.68 0 0 1 8.827 5.64Zm6.685 1.86c-3.369 0-4.34.287-5.27.785a4.681 4.681 0 0 0-1.957 1.957c-.498.93-.785 1.901-.785 5.27v16.975c0 3.37.287 4.34.785 5.271a4.68 4.68 0 0 0 1.957 1.956c.93.498 1.901.786 5.27.786h16.975c3.37 0 4.34-.288 5.271-.785a4.68 4.68 0 0 0 1.956-1.957c.498-.93.786-1.901.786-5.27V15.511c0-3.369-.288-4.34-.785-5.27a4.68 4.68 0 0 0-1.957-1.957c-.93-.498-1.901-.785-5.27-.785H15.511Z" clip-rule="evenodd"/><path fill-rule="evenodd" d="M16.167 31.927 8.184 39.91l-2.12-2.121 8.616-8.617a2 2 0 0 1 2.666-.146l3.94 3.16 7.223-8.736a2 2 0 0 1 2.892-.2l11.613 10.644-2.028 2.212-10.836-9.933-7.18 8.685a2 2 0 0 1-2.793.286l-4.01-3.217Z" clip-rule="evenodd"/><path d="M20 17a3 3 0 1 1-6 0 3 3 0 0 1 6 0Z"/></svg>
