<svg fill="none" height="48" viewBox="0 0 48 48" width="48" xmlns="http://www.w3.org/2000/svg"><path d="m29 42h10c1.6569 0 3-1.3431 3-3v-10c0-1.6569-1.3431-3-3-3h-10c-1.6569 0-3 1.3431-3 3v10c0 1.6569 1.3431 3 3 3zm-7-3v-10c0-1.6569-1.3431-3-3-3h-10c-1.65685 0-3 1.3431-3 3v10c0 1.6569 1.34315 3 3 3h10c1.6569 0 3-1.3431 3-3zm-13-17h10c1.6569 0 3-1.3431 3-3v-10c0-1.65685-1.3431-3-3-3h-10c-1.65685 0-3 1.34315-3 3v10c0 1.6569 1.34315 3 3 3zm15.1213-5.1987 7.0774 7.0774c1.1716 1.1716 3.071 1.1716 4.2426 0l7.0774-7.0774c1.1734-1.1697 1.1734-3.0692.0019-4.2407-.0007-.0007-.0013-.0013-.0038 0l-7.0774-7.0649c-1.1711-1.16907-3.0677-1.16907-4.2388 0l-7.0774 7.0649c-1.1745 1.1686-1.1762 3.0681-.0056 4.2407.0006.0006.0012.0013.0037 0z" fill="currentColor"/></svg>
