<svg xmlns="http://www.w3.org/2000/svg" width="48" height="48" fill="none" viewBox="0 0 48 48"><circle cx="24" cy="24" r="24" fill="url(#a)"/><path fill="#fff" d="M32 20c0-2.21-1.79-4-4-4s-4 1.79-4 4 1.79 4 4 4 4-1.79 4-4Zm-15-1.5c-.5523 0-1 .4477-1 1V22h-2.5c-.5523 0-1 .4477-1 1s.4477 1 1 1H16v2.5c0 .5523.4477 1 1 1s1-.4477 1-1V24h2.5c.5523 0 1-.4477 1-1s-.4477-1-1-1H18v-2.5c0-.5523-.4477-1-1-1ZM20 30v1c0 .5523.4477 1 1 1h14c.5523 0 1-.4477 1-1v-1c0-3.5-5.33-4.5-8-4.5s-8 1-8 4.5Z"/><defs><linearGradient id="a" x1="0" x2="48" y1="0" y2="48" gradientUnits="userSpaceOnUse"><stop stop-color="#6CF"/><stop offset="1" stop-color="#3F8AE0"/></linearGradient></defs></svg>
