<svg xmlns="http://www.w3.org/2000/svg" width="48" height="48" fill="currentColor" viewBox="0 0 48 48"><path fill-rule="evenodd" d="M31 21a7 7 0 1 1-14 0 7 7 0 0 1 14 0Zm-3 0a4 4 0 1 1-8 0 4 4 0 0 1 8 0Z M19.833 7h8.334c2.463 0 4.404 0 5.966.128 1.594.13 2.925.4 4.134 1.016a10.5 10.5 0 0 1 4.589 4.59c.616 1.208.886 2.54 1.016 4.133.128 1.562.128 3.502.128 5.966v2.334c0 2.463 0 4.404-.128 5.966-.13 1.594-.4 2.925-1.016 4.134a10.5 10.5 0 0 1-4.59 4.589c-1.208.616-2.54.886-4.133 1.016C32.571 41 30.63 41 28.167 41h-8.334c-2.463 0-4.404 0-5.966-.128-1.594-.13-2.925-.4-4.134-1.016a10.5 10.5 0 0 1-4.589-4.59c-.616-1.208-.886-2.54-1.016-4.133C4 29.571 4 27.63 4 25.167v-2.334c0-2.463 0-4.404.128-5.966.13-1.594.4-2.925 1.016-4.134a10.5 10.5 0 0 1 4.59-4.589c1.208-.616 2.54-.886 4.133-1.016C15.429 7 17.37 7 19.833 7Zm-5.722 3.118c-1.408.115-2.3.335-3.016.7a7.5 7.5 0 0 0-3.278 3.277c-.364.716-.584 1.608-.7 3.016C7.002 18.536 7 20.355 7 22.9v2.2c0 2.545.001 4.363.118 5.789.115 1.408.335 2.3.7 3.016a7.5 7.5 0 0 0 3.277 3.277c.271.139.567.256.907.355A9.484 9.484 0 0 1 12 37.32C12 32.287 17.577 30 24 30s12 2.287 12 7.32c0 .075 0 .147-.002.217.34-.099.636-.216.907-.355a7.5 7.5 0 0 0 3.277-3.277c.365-.716.585-1.608.7-3.016C41 29.464 41 27.645 41 25.1v-2.2c0-2.545-.001-4.363-.118-5.789-.115-1.408-.335-2.3-.7-3.016a7.5 7.5 0 0 0-3.277-3.277c-.716-.365-1.608-.585-3.016-.7C32.464 10 30.645 10 28.1 10h-8.2c-2.545 0-4.363.001-5.789.118ZM28.1 38c2.026 0 3.592 0 4.865-.06.02-.152.035-.355.035-.62 0-1.16-.543-2.102-2.03-2.915C29.37 33.531 26.923 33 24 33s-5.37.53-6.97 1.405c-1.487.813-2.03 1.756-2.03 2.916 0 .264.015.467.034.62 1.274.058 2.84.059 4.866.059h8.2Z" clip-rule="evenodd"/></svg>
