<svg fill="none" height="48" viewBox="0 0 48 48" width="48" xmlns="http://www.w3.org/2000/svg"><path clip-rule="evenodd" d="m33.3083 5.5c2.6746 0 3.6445.27848 4.6222.8014.9778.52292 1.7452 1.29029 2.2681 2.26806.5229.97778.8014 1.94764.8014 4.62224v21.6166c0 2.6746-.2785 3.6445-.8014 4.6222-.5229.9778-1.2903 1.7452-2.2681 2.2681-.9777.5229-1.9476.8014-4.6222.8014h-18.6166c-2.6746 0-3.6445-.2785-4.6222-.8014-.97781-.5229-1.74518-1.2903-2.2681-2.2681-.52292-.9777-.8014-1.9476-.8014-4.6222v-21.6166c0-2.6746.27848-3.64446.8014-4.62224.52292-.97777 1.29029-1.74514 2.2681-2.26806.9777-.52292 1.9476-.8014 4.6222-.8014zm-20.3083 8.6c0-.5601 0-.8401.109-1.054.0959-.1882.2488-.3411.437-.437.2139-.109.4939-.109 1.054-.109h1.8c.5601 0 .8401 0 1.054.109.1882.0959.3411.2488.437.437.109.2139.109.4939.109 1.054v1.8c0 .5601 0 .8401-.109 1.054-.0959.1882-.2488.3411-.437.437-.2139.109-.4939.109-1.054.109h-1.8c-.5601 0-.8401 0-1.054-.109-.1882-.0959-.3411-.2488-.437-.437-.109-.2139-.109-.4939-.109-1.054zm17.109-1.054c-.109.2139-.109.4939-.109 1.054v1.8c0 .5601 0 .8401.109 1.054.0959.1882.2488.3411.437.437.2139.109.4939.109 1.054.109h1.8c.5601 0 .8401 0 1.054-.109.1882-.0959.3411-.2488.437-.437.109-.2139.109-.4939.109-1.054v-1.8c0-.5601 0-.8401-.109-1.054-.0959-.1882-.2488-.3411-.437-.437-.2139-.109-.4939-.109-1.054-.109h-1.8c-.5601 0-.8401 0-1.054.109-.1882.0959-.3411.2488-.437.437zm-17.109 10.054c0-.5601 0-.8401.109-1.054.0959-.1882.2488-.3411.437-.437.2139-.109.4939-.109 1.054-.109h1.8c.5601 0 .8401 0 1.054.109.1882.0959.3411.2488.437.437.109.2139.109.4939.109 1.054v1.8c0 .5601 0 .8401-.109 1.054-.0959.1882-.2488.3411-.437.437-.2139.109-.4939.109-1.054.109h-1.8c-.5601 0-.8401 0-1.054-.109-.1882-.0959-.3411-.2488-.437-.437-.109-.2139-.109-.4939-.109-1.054zm17.109-1.054c-.109.2139-.109.4939-.109 1.054v1.8c0 .5601 0 .8401.109 1.054.0959.1882.2488.3411.437.437.2139.109.4939.109 1.054.109h1.8c.5601 0 .8401 0 1.054-.109.1882-.0959.3411-.2488.437-.437.109-.2139.109-.4939.109-1.054v-1.8c0-.5601 0-.8401-.109-1.054-.0959-.1882-.2488-.3411-.437-.437-.2139-.109-.4939-.109-1.054-.109h-1.8c-.5601 0-.8401 0-1.054.109-.1882.0959-.3411.2488-.437.437zm-17.109 10.054c0-.5601 0-.8401.109-1.054.0959-.1882.2488-.3411.437-.437.2139-.109.4939-.109 1.054-.109h1.8c.5601 0 .8401 0 1.054.109.1882.0959.3411.2488.437.437.109.2139.109.4939.109 1.054v1.8c0 .5601 0 .8401-.109 1.054-.0959.1882-.2488.3411-.437.437-.2139.109-.4939.109-1.054.109h-1.8c-.5601 0-.8401 0-1.054-.109-.1882-.0959-.3411-.2488-.437-.437-.109-.2139-.109-.4939-.109-1.054zm17.109-1.054c-.109.2139-.109.4939-.109 1.054v1.8c0 .5601 0 .8401.109 1.054.0959.1882.2488.3411.437.437.2139.109.4939.109 1.054.109h1.8c.5601 0 .8401 0 1.054-.109.1882-.0959.3411-.2488.437-.437.109-.2139.109-.4939.109-1.054v-1.8c0-.5601 0-.8401-.109-1.054-.0959-.1882-.2488-.3411-.437-.437-.2139-.109-.4939-.109-1.054-.109h-1.8c-.5601 0-.8401 0-1.054.109-.1882.0959-.3411.2488-.437.437z" fill="currentColor" fill-rule="evenodd"/></svg>
