<svg xmlns="http://www.w3.org/2000/svg" width="126" height="40" fill="currentColor" viewBox="0 0 126 40"><path fill-rule="evenodd" d="M69.806 9.84c-.065.452-.065.904-.065 1.29v2.84h.967V8.486H69.42l-2.513 4.066c.064-.452.064-.84.064-1.097v-2.97H65.94v5.487h1.289l2.578-4.131Zm-2.642-2.26c.064.195.257.324.45.453.194.129.452.193.903.193.322 0 .58-.064.773-.193.194-.13.322-.258.451-.452.13-.194.194-.387.194-.581h-.774c-.064.387-.322.58-.709.58-.386 0-.644-.193-.709-.58h-.773c0 .13.057.258.115.387.028.065.057.13.079.194Zm5.993 1.808h-1.676l.065-.903h4.382l-.064.903h-1.611v4.583h-1.096V9.388Zm6.832-.903h-3.287v5.486h3.222l.064-.903h-2.19v-1.485h1.997v-.84h-1.998V9.389h2.127l.064-.903Zm7.218 3.227a1.508 1.508 0 0 0-.452-.452c-.156-.104-.354-.166-.526-.22l-.118-.038a1.23 1.23 0 0 0 .709-.452c.193-.258.258-.516.258-.839 0-.387-.13-.71-.452-.904-.322-.193-.773-.322-1.353-.322H83.47v5.486h1.869c.45 0 .773-.064 1.095-.194.322-.129.516-.258.709-.516.193-.258.258-.516.258-.839 0-.258-.065-.516-.194-.71Zm-2.127-1.033h-.516L84.5 9.324h.58c.258 0 .45.064.644.129.194.064.258.258.258.452 0 .129-.064.322-.129.387a1.366 1.366 0 0 1-.322.258c-.129.065-.258.13-.451.13Zm1.16 1.678c0 .259-.065.452-.258.581-.193.194-.451.259-.838.259H84.5v-1.679h.58c.322 0 .644.065.838.194.193.13.322.387.322.646Zm-25.586 1.356c-.387-.258-.709-.581-.902-.968a3.29 3.29 0 0 1-.322-1.42c0-.581.129-1.098.322-1.485s.58-.774.967-1.033c.386-.258.966-.322 1.546-.322.58 0 1.032.129 1.418.322.387.259.71.581.902.969.194.387.323.903.323 1.42 0 .58-.13 1.097-.323 1.549-.193.452-.58.774-.966 1.033-.451.258-.902.322-1.483.322-.58-.064-1.095-.193-1.482-.387Zm2.385-.775c.258-.193.45-.387.58-.71a2.68 2.68 0 0 0 .193-1.032c0-.388-.064-.71-.193-.969-.13-.258-.258-.516-.516-.71-.258-.193-.515-.258-.902-.258s-.645.065-.902.258c-.258.194-.452.388-.58.71a2.68 2.68 0 0 0 0 2c.128.324.322.518.515.711.194.194.516.259.902.259.387 0 .645-.065.903-.259Zm-6.38-4.453h-1.547l-.064 5.486h1.095v-2.065c.258.064.516.064.71.064.386 0 .708 0 1.03-.193a2.3 2.3 0 0 0 .71-.646c.193-.258.257-.58.257-.968 0-.516-.258-.904-.58-1.226-.322-.323-.902-.452-1.611-.452Zm1.03 1.678c0 .323-.063.516-.257.71-.129.194-.387.258-.773.323-.194 0-.322 0-.516-.065V9.324h.451c.387 0 .645.064.838.193.194.13.258.323.258.646Zm-3.388 3.808h-1.224l-1.547-2.323h-.645v2.323H49.79V8.485h1.095v2.259h.516l1.031-1.55c.129-.193.322-.417.322-.387 0 0 .097-.112.387-.258.129-.064.322-.064.516-.064.193 0 .386.064.58.129l-.258.839c-.129-.065-.194-.065-.322-.065-.13 0-.194 0-.258.065l-.258.258-.902 1.356L54.3 13.97Zm-9.565-4.583h1.675v4.583h1.096V9.388h1.611l.064-.903H44.8l-.064.903Zm-4.511 4.325c-.387-.258-.71-.581-.903-.968a3.29 3.29 0 0 1-.322-1.42c0-.581.129-1.098.322-1.485.194-.387.58-.774.967-1.033.387-.258.967-.322 1.547-.322s1.03.129 1.418.322c.386.194.709.581.902.969.193.387.322.903.322 1.42 0 .58-.129 1.097-.322 1.549-.194.452-.58.774-.967 1.033-.387.258-.902.322-1.482.322-.58-.064-1.096-.193-1.483-.387Zm2.384-.775c.258-.193.451-.387.58-.71a2.68 2.68 0 0 0 .193-1.032c0-.388-.064-.71-.193-.969-.129-.258-.258-.516-.516-.71-.257-.193-.515-.258-.902-.258-.386 0-.644.065-.902.258-.258.194-.451.388-.58.71a2.681 2.681 0 0 0 0 2c.129.324.322.518.516.711.193.194.515.259.902.259.386 0 .644-.065.902-.259Zm44.312 5.292v9.912c0 1.425.712 2.138 2.006 2.202.194 0 .453 0 .712-.064.097-.033.21-.065.323-.098a8.2 8.2 0 0 0 .324-.097l-.194-1.36c-.097 0-.178.016-.26.032-.08.016-.161.033-.258.033-.194.064-.453-.065-.582-.195a1.726 1.726 0 0 1-.195-.777V18.1l-1.876.13Zm4.789 9.912V18.23l1.876-.13v9.718c0 .259.065.518.195.777.129.13.388.26.582.195.097 0 .178-.017.259-.033.08-.016.162-.032.259-.032l.194 1.295c-.097.033-.21.065-.324.098a8.23 8.23 0 0 0-.323.097c-.26.065-.518.065-.712.065-1.36 0-2.006-.713-2.006-2.138Zm5.889-1.944h5.435l.065-.453a5.53 5.53 0 0 0-.388-2.009 3.744 3.744 0 0 0-1.165-1.49 3.631 3.631 0 0 0-2.006-.583c-.712 0-1.424.13-2.006.518a3.958 3.958 0 0 0-1.36 1.555c-.387.778-.517 1.555-.517 2.397 0 .778.13 1.555.453 2.268.259.583.777 1.101 1.36 1.425.71.389 1.487.518 2.264.518 1.1 0 2.2-.259 3.171-.712l-.388-1.296a4.124 4.124 0 0 1-1.165.389c-.389.064-.841.13-1.23.13-1.618 0-2.459-.908-2.523-2.657Zm3.041-2.72c.323.388.518.97.518 1.49h-3.624c.064-.52.259-1.102.647-1.49a1.767 1.767 0 0 1 1.23-.52c.452 0 .905.195 1.229.52Zm3.947.388c0-.454 0-1.166-.064-2.073h1.811c0 .122.015.244.03.374.017.144.035.297.035.468 0 .182.021.344.039.486.014.11.026.207.026.291.194-.324.388-.647.647-.907a1.77 1.77 0 0 1 .777-.583c.323-.13.647-.259.97-.259.259 0 .518 0 .777.065l-.259 1.684c-.194-.064-.388-.064-.647-.064-.388 0-.841.13-1.165.324a6.31 6.31 0 0 0-1.1 1.166v5.377h-1.877v-6.35Zm6.147 9.653a3.511 3.511 0 0 0-.225-.047 1.664 1.664 0 0 1-.486-.147l.323-1.426c.07.035.159.052.257.07.083.014.172.03.261.06.194.065.388.065.582.065.841 0 1.489-.519 1.877-1.62l.129-.324-3.106-8.422h2.071l1.553 4.73c.194.583.388 1.23.518 1.878.129-.583.323-1.23.517-1.814l1.553-4.73h1.942l-3.042 8.488c-.259.712-.517 1.36-.906 1.943-.323.454-.712.843-1.164 1.102a3.776 3.776 0 0 1-1.683.388c-.259-.043-.46-.086-.661-.13l-.31-.064Zm-27.177-3.37c-.065-.388-.13-.777-.13-1.165-.323.388-.712.648-1.165.907a3.505 3.505 0 0 1-1.617.389c-.453 0-.906-.065-1.295-.26a2.42 2.42 0 0 1-.97-.842c-.26-.453-.388-.907-.324-1.36 0-.778.324-1.49.906-1.944.582-.453 1.553-.712 2.912-.712.518 0 1.035.064 1.488.13v-.13c.065-.584-.129-1.102-.453-1.555-.388-.324-.84-.519-1.359-.454a4.17 4.17 0 0 0-1.294.195l-.235.076c-.328.106-.682.22-.994.377l-.324-1.555c.453-.194.906-.324 1.36-.453a8.022 8.022 0 0 1 1.746-.195c.648 0 1.23.065 1.812.324.518.26.906.648 1.165 1.102.324.647.453 1.425.453 2.137v3.304c0 .324 0 .843.065 1.555l-1.747.13Zm-1.165-1.554c.388-.194.712-.389.97-.712v-1.555c-.453-.065-.84-.065-1.294-.065-.582-.065-1.165.065-1.617.388-.324.26-.453.648-.453 1.037 0 .324.064.648.323.907.259.194.582.324.906.324a6.12 6.12 0 0 0 1.165-.324Zm-14.625-.971c.388.842 1.035 1.49 1.876 1.943.841.518 1.877.713 2.977.777.647 0 1.359-.13 2.07-.259.712-.194 1.36-.388 2.007-.712v-4.73h-4.465v1.49h2.588v2.268c-.323.13-.647.194-1.035.26-.324.064-.712.064-1.1.064a3.208 3.208 0 0 1-2.071-.518 3.745 3.745 0 0 1-1.165-1.49 6.227 6.227 0 0 1-.388-2.138c0-.778.194-1.62.517-2.333.26-.647.777-1.166 1.36-1.49.647-.388 1.358-.518 2.07-.518 1.035 0 2.006.26 2.912.713l.518-1.49a6.879 6.879 0 0 0-1.618-.583 9.228 9.228 0 0 0-1.877-.195c-1.035 0-2.07.195-2.976.648-.841.454-1.618 1.166-2.071 2.008-.518 1.037-.841 2.138-.776 3.24-.065 1.036.194 2.137.647 3.044ZM58.448 23.8c0-.648 0-1.296-.065-2.073h1.812c.065.324.13.712.13 1.036.647-.777 1.553-1.23 2.523-1.23 1.165 0 2.265.647 2.718 1.749.324.712.453 1.49.453 2.332 0 .842-.13 1.75-.517 2.527-.324.647-.777 1.23-1.424 1.554-.647.39-1.359.519-2.07.519-.583 0-1.166-.13-1.683-.26v3.434l-1.942.194.065-9.782Zm5.048 4.276c.453-.713.647-1.49.582-2.268.065-.712-.13-1.425-.453-2.008-.324-.389-.776-.648-1.294-.648-.389 0-.712.065-1.036.26a4.883 4.883 0 0 0-.906.712v4.47c.195.13.453.194.648.194.258.065.517.065.776.065.647.065 1.23-.259 1.683-.777Zm-14.132-6.35c.065.778.065 1.426.065 2.074l-.065 9.783 1.942-.195v-3.434c.517.13 1.1.26 1.682.26.712 0 1.424-.13 2.07-.519.648-.324 1.1-.907 1.424-1.554.389-.778.518-1.685.518-2.527 0-.842-.13-1.62-.453-2.332-.453-1.102-1.553-1.75-2.718-1.75-.97 0-1.876.454-2.523 1.231 0-.323-.065-.712-.13-1.036h-1.812Zm5.695 4.082c.064.778-.13 1.555-.583 2.268-.388.518-1.035.842-1.682.777-.259 0-.518 0-.777-.065-.194 0-.453-.064-.647-.194v-4.47c.259-.26.583-.518.906-.713.324-.194.647-.259 1.035-.259.518 0 .971.26 1.295.648.323.583.517 1.296.453 2.008Zm-9.488 1.296h-4.465l-1.1 2.98H38l4.4-11.208h1.877l4.465 11.208h-2.07l-1.1-2.98Zm-3.947-1.49h3.365l-1.23-3.24c-.143-.334-.251-.669-.376-1.056a48.14 48.14 0 0 0-.141-.433c-.065.227-.146.47-.227.712-.08.243-.162.486-.226.713l-1.165 3.304ZM8 14.733C8 9.803 9.803 8 14.734 8h10.532C30.196 8 32 9.803 32 14.733v10.534C32 30.197 30.193 32 25.263 32H14.734C9.804 32 8 30.197 8 25.267V14.733Zm11.434 7.019h-.96l.479-1.105.481 1.105Zm-1.48 1.2.284-.643h1.433l.28.643h.667l-1.374-3.087h-.56l-1.38 3.087h.65ZM29.3 22.95h-.627v-3.085h.627v3.085Zm-1.966-1.325H26.18v.764h1.737v.563h-2.364v-3.085h2.304v.563H26.18v.632h1.155v.563Zm-4.356-1.76.71 2.124.693-2.122h.66l-1.09 3.087h-.53l-.711-2.028-.712 2.028h-.526l-1.091-3.087h.676l.692 2.122.71-2.124h.519Zm-7.342 2.539c.459 0 .712-.269.712-.77v-1.769h.635v1.742c0 .885-.494 1.393-1.356 1.393-.852 0-1.342-.498-1.342-1.367v-1.766h.636v1.745c0 .516.254.792.715.792Zm-2.231-2.539h-.635v1.246h-1.435v-1.246H10.7v3.089h.635v-1.255h1.435v1.255h.635v-3.089ZM16.015 12c0 2.168 1.787 3.932 3.985 3.932s3.986-1.764 3.986-3.932h-.563c0 1.862-1.536 3.377-3.423 3.377S16.578 13.862 16.578 12h-.563Z" clip-rule="evenodd"/></svg>
