<svg xmlns="http://www.w3.org/2000/svg" width="126" height="40" fill="currentColor" viewBox="0 0 126 40"><path d="M18.474 21.752h.96l-.481-1.105-.479 1.105Z"/><path fill-rule="evenodd" d="M14.734 8C9.804 8 8 9.803 8 14.733v10.534C8 30.197 9.803 32 14.734 32h10.529C30.193 32 32 30.197 32 25.267V14.733C32 9.803 30.197 8 25.266 8H14.734Zm3.504 14.309-.285.643h-.648l1.379-3.087h.56l1.374 3.087h-.666l-.281-.643h-1.433Zm10.435.64h.627v-3.084h-.627v3.085Zm-2.494-1.324h1.155v-.563H26.18v-.632h1.677v-.563h-2.304v3.085h2.364v-.563H26.18v-.764Zm-2.49.364-.711-2.124h-.519l-.71 2.124-.692-2.122h-.676l1.091 3.087h.526l.712-2.028.711 2.028h.53l1.09-3.087h-.66l-.693 2.122Zm-7.341-.356c0 .502-.253.77-.712.77-.461 0-.715-.275-.715-.791v-1.745h-.636v1.766c0 .869.49 1.367 1.342 1.367.862 0 1.356-.508 1.356-1.393v-1.742h-.635v1.768Zm-3.578-1.768h.635v3.089h-.635v-1.255h-1.435v1.255H10.7v-3.089h.635v1.246h1.435v-1.246ZM20 15.933c-2.198 0-3.985-1.765-3.985-3.933h.563c0 1.862 1.535 3.377 3.422 3.377 1.887 0 3.423-1.515 3.423-3.377h.563c0 2.168-1.788 3.932-3.986 3.932Zm38.486-2.276c-.439-.232-.748-.594-.98-1.033-.233-.44-.336-.956-.336-1.55 0-.62.129-1.162.361-1.627a2.409 2.409 0 0 1 1.032-1.06c.465-.258.981-.387 1.6-.387.594 0 1.085.13 1.523.362.413.232.749.594.981 1.033.232.44.336.956.336 1.524a3.6 3.6 0 0 1-.362 1.628 2.41 2.41 0 0 1-1.032 1.059c-.439.258-.98.387-1.574.387-.62.026-1.136-.103-1.549-.336Zm2.607-.723c.284-.18.49-.44.645-.775.129-.336.206-.723.206-1.136 0-.414-.051-.801-.18-1.111-.13-.336-.31-.595-.594-.775-.284-.207-.62-.285-1.058-.285-.413 0-.748.104-1.032.285-.284.206-.49.465-.646.8-.154.336-.206.698-.206 1.111 0 .414.077.801.206 1.137.13.336.336.594.62.8.284.207.62.285 1.032.285.387-.052.723-.13 1.007-.336Z" clip-rule="evenodd"/><path d="m43 8.103 1.807 2.868-1.987 2.97h1.11l1.42-2.299 1.393 2.3h1.161l-1.935-3.023 1.806-2.816h-1.11l-1.29 2.093-1.239-2.093H43Zm-.567 0H39v5.813h3.381l.077-.827h-2.451v-1.782H42.2v-.775h-2.193V8.93h2.322l.104-.827Z M48.653 8.103h1.574c.749 0 1.316.155 1.704.465.387.31.593.75.593 1.318 0 .387-.077.723-.258 1.007-.18.284-.413.517-.748.672-.31.155-.671.232-1.084.232-.233 0-.49-.025-.775-.077v2.222h-1.006V8.103Zm2.53 2.61c.206-.207.309-.465.309-.827 0-.362-.103-.62-.336-.775-.206-.155-.542-.233-.955-.233h-.542v2.067c.258.052.44.052.568.052.439 0 .749-.104.955-.284Z M54.537 8.103h-.98v5.839h3.33l.077-.853h-2.427V8.103Z M65.945 8.103h-1.832v5.839h1.006v-2.325h.749l1.522 2.325h1.188l-1.807-2.584c.206-.077.387-.18.568-.335.18-.13.335-.336.464-.569.13-.232.18-.517.18-.827 0-.49-.154-.878-.515-1.136-.362-.259-.852-.388-1.523-.388Zm.387 2.61c-.18.103-.413.155-.645.155v-.026h-.568v-1.99h.723c.335 0 .62.078.8.207.18.13.284.362.284.646 0 .207-.052.413-.155.594-.103.181-.258.31-.439.414Z M69.352 8.103h3.432l-.103.827h-2.323v1.602h2.194v.775h-2.194v1.782h2.452l-.077.827h-3.381V8.103Zm8.182 0h-1.007v5.839h1.007V8.103Zm2.658.827h-1.78l.076-.853h4.543l-.103.853h-1.73v5.011h-1.006V8.93Z M86.437 12.624c.233.44.542.8.981 1.033.413.233.93.362 1.549.336.593 0 1.135-.129 1.574-.387a2.41 2.41 0 0 0 1.032-1.06 3.6 3.6 0 0 0 .362-1.627c0-.568-.103-1.085-.336-1.524-.232-.44-.568-.8-.98-1.033A3.159 3.159 0 0 0 89.096 8c-.62 0-1.136.13-1.6.387a2.41 2.41 0 0 0-1.033 1.06 3.6 3.6 0 0 0-.361 1.627c0 .594.103 1.11.335 1.55Zm4.233-.465c-.155.336-.361.594-.645.775-.284.207-.645.284-1.007.336-.413 0-.748-.078-1.032-.284a1.733 1.733 0 0 1-.62-.801 3.18 3.18 0 0 1-.206-1.137c0-.413.052-.775.207-1.11.154-.336.36-.595.645-.801.284-.181.62-.285 1.032-.285.439 0 .775.078 1.058.285.284.18.465.439.594.775.129.31.18.697.18 1.11 0 .414-.077.801-.206 1.137Z M93.07 8.103h1.136l2.89 4.521c-.025-.44-.025-.827-.025-1.188V8.103H98v5.839h-1.11l-2.942-4.599.008.155c.023.455.044.869.044 1.24v3.204h-.93V8.103Zm-6.15 20.039V18.23l1.877-.13v9.718c0 .259.065.518.195.777.129.13.388.26.582.195.097 0 .178-.017.259-.033.08-.016.162-.032.259-.032l.194 1.36a8.2 8.2 0 0 1-.324.098 7.999 7.999 0 0 0-.323.097c-.26.064-.518.064-.712.064-1.294-.064-2.006-.777-2.006-2.202Zm4.79-9.912v9.912c0 1.425.647 2.138 2.006 2.138.194 0 .453 0 .712-.065a8.23 8.23 0 0 1 .323-.097c.113-.033.227-.065.324-.098l-.194-1.295c-.097 0-.178.016-.26.032-.08.016-.161.033-.258.033-.194.064-.453-.065-.582-.195a1.727 1.727 0 0 1-.195-.777V18.1l-1.876.13Z M103.034 26.198h-5.436c.065 1.75.906 2.656 2.524 2.656.389 0 .841-.064 1.23-.13a4.124 4.124 0 0 0 1.165-.388l.388 1.296a7.568 7.568 0 0 1-3.171.712c-.776 0-1.553-.13-2.265-.518-.582-.324-1.1-.842-1.359-1.425-.323-.713-.453-1.49-.453-2.268 0-.842.13-1.62.518-2.397a3.958 3.958 0 0 1 1.359-1.555c.582-.388 1.294-.518 2.006-.518.712 0 1.423.195 2.006.583.518.389.906.907 1.165 1.49a5.53 5.53 0 0 1 .388 2.009l-.065.453Zm-1.876-1.23c0-.52-.195-1.102-.518-1.49a1.768 1.768 0 0 0-1.23-.52c-.453 0-.906.195-1.23.52-.387.388-.582.97-.646 1.49h3.624Z M104.523 21.793c.064.907.064 1.62.064 2.073v6.349h1.877v-5.377a6.31 6.31 0 0 1 1.1-1.166 2.422 2.422 0 0 1 1.165-.324c.259 0 .453 0 .647.064l.259-1.684c-.259-.065-.518-.065-.777-.065-.323 0-.647.13-.97.26a1.76 1.76 0 0 0-.777.582c-.259.26-.453.583-.647.907 0-.084-.012-.182-.026-.291-.018-.142-.039-.304-.039-.486a3.88 3.88 0 0 0-.035-.468c-.015-.13-.03-.252-.03-.374h-1.811Zm5.986 11.679c.071.013.145.027.225.047l.31.065c.201.043.402.086.661.13.582 0 1.165-.13 1.683-.39.452-.258.841-.647 1.164-1.1.389-.584.647-1.232.906-1.944l3.042-8.487h-1.942l-1.553 4.73c-.194.582-.388 1.23-.517 1.813a16.058 16.058 0 0 0-.518-1.879l-1.553-4.729h-2.071l3.106 8.422-.129.324c-.388 1.101-1.036 1.62-1.877 1.62-.194 0-.388 0-.582-.065a1.834 1.834 0 0 0-.261-.06.986.986 0 0 1-.257-.07l-.323 1.426c.178.09.326.117.486.147Z"/><path fill-rule="evenodd" d="m83.557 30.15 1.747-.13c-.065-.712-.065-1.23-.065-1.555v-3.303c0-.713-.13-1.49-.453-2.138a2.743 2.743 0 0 0-1.165-1.102c-.582-.259-1.164-.324-1.812-.324-.582 0-1.164.065-1.747.195-.453.13-.906.259-1.359.453l.324 1.555c.312-.156.666-.27.994-.377l.235-.076a4.17 4.17 0 0 1 1.294-.195c.518-.065.971.13 1.36.454.323.453.517.971.452 1.555v.13c-.453-.066-.97-.13-1.488-.13-1.359 0-2.33.259-2.912.712-.582.454-.906 1.166-.906 1.944-.064.453.065.907.324 1.36.259.389.582.648.97.842.389.195.842.26 1.295.26.582 0 1.1-.13 1.617-.39.453-.258.842-.518 1.165-.906 0 .388.065.777.13 1.166Zm-.195-2.267c-.258.323-.582.518-.97.712a6.12 6.12 0 0 1-1.165.324c-.324 0-.647-.13-.906-.324-.259-.26-.323-.583-.323-.907 0-.389.129-.777.453-1.037.452-.323 1.035-.453 1.617-.388.453 0 .841 0 1.294.065v1.555Z M69.643 29.567c-.841-.453-1.488-1.101-1.876-1.944-.453-.907-.712-2.008-.647-3.044-.065-1.102.258-2.203.776-3.24.453-.842 1.23-1.554 2.07-2.008.907-.453 1.942-.648 2.977-.648.648 0 1.23.065 1.877.195.582.13 1.1.323 1.618.583l-.518 1.49c-.906-.454-1.877-.713-2.912-.713-.712 0-1.423.13-2.07.518-.583.324-1.1.843-1.36 1.49a5.827 5.827 0 0 0-.517 2.333c0 .712.13 1.425.388 2.137a3.745 3.745 0 0 0 1.165 1.49 3.208 3.208 0 0 0 2.07.519c.389 0 .777 0 1.1-.065.389-.065.712-.13 1.036-.26v-2.267h-2.588v-1.49h4.465v4.73c-.648.324-1.295.518-2.006.712-.712.13-1.424.26-2.071.26-1.1-.065-2.136-.26-2.977-.778Z M58.383 21.728c.065.777.065 1.425.065 2.073l-.065 9.783 1.942-.195v-3.434c.517.13 1.1.26 1.682.26.712 0 1.424-.13 2.07-.519.648-.324 1.101-.907 1.425-1.554.388-.778.517-1.685.517-2.527 0-.842-.13-1.62-.453-2.332-.453-1.102-1.553-1.75-2.718-1.75-.97 0-1.876.454-2.523 1.231 0-.323-.065-.712-.13-1.036h-1.812Zm5.695 4.081c.065.778-.13 1.555-.582 2.268-.453.518-1.036.842-1.683.777-.259 0-.518 0-.776-.065-.195 0-.453-.064-.648-.194v-4.47c.26-.26.583-.518.906-.713.324-.194.648-.259 1.036-.259.517 0 .97.26 1.294.648.324.583.518 1.296.453 2.008Zm-14.649-2.008c0-.648 0-1.296-.065-2.073h1.812c.065.324.13.712.13 1.036.647-.777 1.553-1.23 2.523-1.23 1.165 0 2.265.647 2.718 1.749.324.712.453 1.49.453 2.332 0 .842-.13 1.75-.518 2.527-.323.647-.776 1.23-1.423 1.554-.647.39-1.36.519-2.071.519-.582 0-1.165-.13-1.682-.26v3.434l-1.942.194.065-9.782Zm5.047 4.276c.453-.713.647-1.49.583-2.268.064-.712-.13-1.425-.453-2.008-.324-.389-.777-.648-1.294-.648-.389 0-.712.065-1.036.26a4.887 4.887 0 0 0-.906.712v4.47c.194.13.453.194.647.194.26.065.518.065.777.065.647.065 1.294-.259 1.682-.777Zm-13.37-.972h4.465l1.1 2.98h2.07l-4.464-11.208H42.4L38 30.085h2.006l1.1-2.98Zm3.883-1.49h-3.365l1.165-3.304c.064-.227.145-.47.226-.713.081-.242.162-.485.227-.712.05.152.097.296.14.433.126.387.234.722.377 1.057l1.23 3.24Z" clip-rule="evenodd"/></svg>
