<svg xmlns="http://www.w3.org/2000/svg" width="40" height="40" fill="currentColor" viewBox="0 0 40 40"><path fill-rule="evenodd" d="M20 0c11.046 0 20 8.954 20 20s-8.954 20-20 20S0 31.046 0 20 8.954 0 20 0Zm6.043 18.425a1.189 1.189 0 0 0-1.626-.006l-.088.09a1.262 1.262 0 0 0 .081 1.746l.167.168c.759.808 1.189 1.974 1.246 3.112l.007.244a4.842 4.842 0 0 1-1.187 3.177l-.166.179c-.844.866-2.16 1.545-4.084 1.627L20 28.77c-3.15 0-5.668-1.871-5.822-4.72l-.008-.279c0-.576.126-1.283.453-1.804l.117-.167c.126-.162.282-.305.48-.417.266-.15.625-.253 1.123-.253.122 0 .353-.001.638.126l.104.05c.253.138.583.412.871 1.005l.06.112c.327.53 1.003.737 1.568.445l.107-.063c.484-.316.682-.937.482-1.482l-.049-.115c-.512-1.056-1.199-1.704-1.886-2.082l-.294-.146a3.884 3.884 0 0 0-1.396-.325l-.205-.005c-1.701 0-2.884.733-3.616 1.765l-.14.211c-.666 1.063-.837 2.296-.837 3.145l.012.45c.25 4.573 4.307 7.029 8.238 7.029l.498-.01c2.455-.106 4.368-.994 5.691-2.352l.24-.26a7.388 7.388 0 0 0 1.813-4.509l.008-.356c-.002-1.746-.658-3.708-1.941-5.073l-.266-.265Zm-1.961-9.626a1.31 1.31 0 0 0-1.578.817l-.041.131-1.6 6.05c-.189.712.216 1.457.922 1.655l.133.03a1.317 1.317 0 0 0 1.486-.978l1.6-6.05.028-.134a1.356 1.356 0 0 0-.822-1.478l-.128-.043Zm-7.947-.042c-.73.075-1.25.743-1.179 1.477l.533 5.5.02.135c.132.666.737 1.145 1.423 1.074.684-.07 1.183-.66 1.184-1.34l-.006-.136-.533-5.5c-.067-.69-.633-1.216-1.307-1.217l-.135.007Z" clip-rule="evenodd"/></svg>
