<svg xmlns="http://www.w3.org/2000/svg" width="40" height="40" fill="currentColor" viewBox="0 0 40 40"><path d="M21.5 12.224a.3.3 0 0 1 .512-.212l3.976 3.976a.3.3 0 0 1-.212.512H22a.5.5 0 0 1-.5-.5v-3.776Z"/><path fill-rule="evenodd" d="M20 40c11.046 0 20-8.954 20-20S31.046 0 20 0 0 8.954 0 20s8.954 20 20 20Zm3.299-29.565a2.611 2.611 0 0 0-.818-.338c-.297-.069-.565-.097-1.34-.097h-5.295c-1.338 0-1.822.14-2.311.4a2.726 2.726 0 0 0-1.134 1.135c-.262.489-.401.973-.401 2.31v11.31c0 1.336.14 1.821.4 2.31.262.49.646.873 1.135 1.134.489.262.973.401 2.31.401h9.31c1.336 0 1.821-.14 2.31-.4a2.726 2.726 0 0 0 1.134-1.135c.262-.489.401-.974.401-2.31v-7.296c0-.775-.028-1.043-.096-1.34a2.611 2.611 0 0 0-.34-.818c-.161-.258-.33-.468-.878-1.015l-3.372-3.372c-.547-.547-.757-.717-1.015-.879Z" clip-rule="evenodd"/></svg>
