<svg xmlns="http://www.w3.org/2000/svg" width="136" height="40" fill="currentColor" viewBox="0 0 136 40"><path fill-rule="evenodd" d="M8.255 15.076C8 16.138 8 17.426 8 20c0 2.575 0 3.862.255 4.924a9.231 9.231 0 0 0 6.82 6.821C16.139 32 17.426 32 20 32c2.575 0 3.862 0 4.924-.255a9.231 9.231 0 0 0 6.821-6.82C32 23.861 32 22.574 32 20c0-2.575 0-3.862-.255-4.924a9.231 9.231 0 0 0-6.82-6.82C23.861 8 22.574 8 20 8c-2.575 0-3.862 0-4.924.255a9.23 9.23 0 0 0-6.82 6.82Zm15.196 1.54.05.217h2.833l-.764 7.12a2.846 2.846 0 0 1-2.83 2.547h-5.48a2.846 2.846 0 0 1-2.83-2.547l-.764-7.12H16.5l.05-.217a3.454 3.454 0 0 1 3.45-3.45 3.454 3.454 0 0 1 3.451 3.45Zm-5.395 0-.056.217h4l-.055-.217A1.946 1.946 0 0 0 20 14.672a1.946 1.946 0 0 0-1.944 1.944Zm81.965 4.76h-1.36v1.645h1.36v2.991c0 2.529.748 3.317 3.208 3.317h.259v-1.726c-1.428 0-1.618-.218-1.618-1.605v-2.977h1.618v-1.645h-1.618V18.9l-1.849 1.265v1.21Zm-39.132-2.11H59.04v10.062h1.85V19.266Zm-17.15.002c-2.936 0-5.07 2.271-5.07 5.099 0 2.746 2.053 5.098 5.152 5.098 2.964 0 4.854-2.298 4.854-4.976v-.734h-5.152v1.767h3.167c-.353 1.306-1.387 2.149-2.869 2.149-1.93 0-3.317-1.469-3.317-3.304 0-1.809 1.4-3.304 3.25-3.304 1.305 0 2.257.598 2.868 1.727l1.632-.98c-.843-1.495-2.461-2.542-4.514-2.542Zm5.78 6.091c0-2.637 1.931-4.146 3.944-4.146 1.046 0 1.984.435 2.556 1.115v-.952h1.835v7.953h-1.835v-1.033c-.585.734-1.537 1.197-2.584 1.197-1.917 0-3.915-1.537-3.915-4.133Zm6.595-.027c0-1.346-1.02-2.447-2.38-2.447-1.359 0-2.406 1.074-2.406 2.447 0 1.387 1.047 2.474 2.406 2.474 1.36 0 2.38-1.1 2.38-2.474Zm9.654-4.119c-2.012 0-3.943 1.509-3.943 4.146 0 2.597 1.999 4.134 3.916 4.134 1.047 0 1.999-.463 2.583-1.197v1.034h1.835v-7.954h-1.835v.952c-.571-.68-1.51-1.115-2.556-1.115Zm.272 1.672c1.36 0 2.38 1.101 2.38 2.447 0 1.373-1.02 2.474-2.38 2.474-1.36 0-2.406-1.087-2.406-2.474 0-1.373 1.047-2.447 2.406-2.447Zm7.697 2.393-2.882-3.902h2.243l1.808 2.529 1.795-2.529h2.175l-2.856 3.93 3.046 4.023h-2.243l-1.944-2.65-1.89 2.65h-2.243l2.99-4.051Zm5.507-3.902 3.263 7.559L80.835 33h1.862l4.745-11.624h-1.93l-2.094 5.357-2.216-5.357h-1.958Zm11.966 6.308 1.686-1.332c.503.857 1.278 1.346 2.175 1.346.979 0 1.51-.639 1.51-1.332 0-.797-.9-1.072-1.895-1.375l-.173-.053C93.181 24.517 91.7 24 91.7 22.11c0-1.59 1.387-2.841 3.29-2.841 1.605 0 2.53.612 3.331 1.441l-1.522 1.155c-.422-.625-1.007-.951-1.795-.951-.897 0-1.387.49-1.387 1.128 0 .74.838 1.013 1.83 1.336l.005.002.191.063c1.346.434 2.869 1.033 2.869 2.936 0 1.563-1.251 3.087-3.426 3.087-1.795 0-2.978-.762-3.875-1.782Zm12.768-2.325c0-2.31 1.822-4.146 4.119-4.146 2.284 0 4.119 1.835 4.119 4.146a4.11 4.11 0 0 1-4.119 4.134 4.103 4.103 0 0 1-4.119-4.133Zm6.43 0c0-1.332-1.02-2.42-2.311-2.42-1.319 0-2.311 1.088-2.311 2.42 0 1.32.992 2.407 2.311 2.407 1.291 0 2.311-1.088 2.311-2.406Zm4.57-2.8v-1.183h-1.822v7.953h1.835v-4.242c0-1.373.571-1.944 1.631-1.944.517 0 .83.136 1.102.313l.693-1.74c-.354-.204-.829-.34-1.4-.34-1.006 0-1.672.394-2.039 1.183Zm3.644 2.814c0-2.325 1.808-4.16 4.133-4.16 2.366 0 4.092 1.74 4.092 4.092v.693h-6.471c.245 1.115 1.142 1.877 2.447 1.877 1.02 0 1.822-.558 2.203-1.4l1.509.87c-.693 1.278-1.944 2.147-3.712 2.147-2.501 0-4.201-1.822-4.201-4.119Zm1.849-.91h4.514c-.272-1.061-1.088-1.632-2.23-1.632a2.357 2.357 0 0 0-2.284 1.631ZM39 13.82v2.604h.98v-1.698h4.772v1.698h.979V13.82h-.98V8h-4.22l-.276 3.55c-.05.642-.124 1.129-.219 1.46-.089.324-.2.54-.333.648-.133.109-.31.163-.532.163H39Zm4.772-4.915v4.915h-3.127c.316-.407.513-1.149.59-2.224l.199-2.69h2.338Zm3.73 5.592c.394.216.84.325 1.341.325s.948-.109 1.34-.325c.394-.216.701-.518.923-.906.222-.389.333-.83.333-1.327 0-.496-.111-.938-.333-1.326a2.344 2.344 0 0 0-.922-.907 2.672 2.672 0 0 0-1.34-.334 2.68 2.68 0 0 0-1.341.334c-.393.217-.7.519-.922.907-.222.388-.333.83-.333 1.326 0 .496.111.938.333 1.327.222.388.53.69.922.906Zm2.51-1.002c-.297.312-.687.468-1.169.468-.481 0-.871-.156-1.169-.468-.298-.318-.447-.728-.447-1.23 0-.51.15-.92.447-1.232.298-.318.688-.477 1.17-.477.481 0 .87.16 1.169.477.304.312.456.722.456 1.231 0 .51-.152.92-.456 1.231Zm3.367 1.002c.393.216.833.325 1.321.325a2.67 2.67 0 0 0 1.426-.392 2.16 2.16 0 0 0 .913-1.126l-.875-.143a1.315 1.315 0 0 1-.551.582 1.64 1.64 0 0 1-.855.22c-.482 0-.875-.156-1.18-.468-.297-.318-.446-.728-.446-1.23 0-.503.149-.914.447-1.232.304-.318.697-.477 1.178-.477.311 0 .587.07.828.21.247.14.427.325.541.554l.875-.143a2.101 2.101 0 0 0-.894-1.098 2.622 2.622 0 0 0-1.407-.382 2.6 2.6 0 0 0-1.321.334 2.297 2.297 0 0 0-.903.907 2.68 2.68 0 0 0-.323 1.326c0 .49.107.929.323 1.317.215.388.516.693.903.916Zm5.605.23h.931v-4.075h1.702v-.86h-4.335v.86h1.702v4.074Zm7.995-4.934h-.96L64.688 13.6h-.133l-1.56-3.807h-.998l2.187 5.21-.105.286c-.07.197-.155.334-.256.41-.102.083-.244.125-.428.125h-.875l.086.858h.732c.412 0 .741-.095.988-.286.248-.19.447-.5.6-.926l2.053-5.677Zm.842 4.933h.932v-4.074h2.32v4.074h.931V9.794h-4.183v4.933Zm8.767-4.933v2.013h-2.367V9.794h-.932v4.933h.932v-2.061h2.367v2.061h.932V9.794h-.932Zm3.186 4.704c.393.216.84.325 1.34.325.5 0 .947-.109 1.34-.325.394-.216.7-.518.923-.906.221-.389.333-.83.333-1.327 0-.496-.112-.938-.333-1.326a2.344 2.344 0 0 0-.922-.907 2.672 2.672 0 0 0-1.34-.334c-.502 0-.948.112-1.341.334-.393.217-.7.519-.922.907-.222.388-.333.83-.333 1.326 0 .496.11.938.333 1.327.221.388.529.69.922.906Zm2.51-1.002c-.299.312-.688.468-1.17.468s-.871-.156-1.17-.468c-.297-.318-.446-.728-.446-1.23 0-.51.149-.92.447-1.232.298-.318.687-.477 1.17-.477.48 0 .87.16 1.168.477.305.312.457.722.457 1.231 0 .51-.152.92-.457 1.231Zm8.578-.887a1.274 1.274 0 0 0-.609-.468c.216-.095.38-.229.495-.4.12-.179.18-.389.18-.63 0-.255-.073-.48-.218-.678a1.414 1.414 0 0 0-.59-.467 2.08 2.08 0 0 0-.865-.172h-2.263v4.933h2.348c.343 0 .647-.057.913-.172a1.47 1.47 0 0 0 .618-.496c.152-.21.228-.445.228-.706a1.2 1.2 0 0 0-.237-.744Zm-2.938-.811v-1.212h1.33c.216 0 .394.057.533.172.14.114.21.26.21.439 0 .178-.07.324-.21.439a.843.843 0 0 1-.532.162h-1.331Zm2.015 1.946c-.152.127-.351.191-.599.191h-1.416V12.56h1.416c.248 0 .447.064.6.19a.617.617 0 0 1 .228.497.617.617 0 0 1-.229.496Z" clip-rule="evenodd"/></svg>
