<svg xmlns="http://www.w3.org/2000/svg" width="136" height="40" fill="currentColor" viewBox="0 0 136 40"><path fill-rule="evenodd" d="M8.255 15.076C8 16.138 8 17.426 8 20c0 2.575 0 3.862.255 4.924a9.231 9.231 0 0 0 6.82 6.821C16.139 32 17.426 32 20 32c2.575 0 3.862 0 4.924-.255a9.231 9.231 0 0 0 6.821-6.82C32 23.861 32 22.574 32 20c0-2.575 0-3.862-.255-4.924a9.231 9.231 0 0 0-6.82-6.82C23.861 8 22.574 8 20 8c-2.575 0-3.862 0-4.924.255a9.23 9.23 0 0 0-6.82 6.82Zm15.196 1.54.05.217h2.833l-.764 7.12a2.846 2.846 0 0 1-2.83 2.547h-5.48a2.846 2.846 0 0 1-2.83-2.547l-.764-7.12H16.5l.05-.217a3.454 3.454 0 0 1 3.45-3.45 3.454 3.454 0 0 1 3.451 3.45Zm-5.395 0-.056.217h4l-.055-.217A1.946 1.946 0 0 0 20 14.672a1.946 1.946 0 0 0-1.944 1.944Zm36.511-7.442a.504.504 0 0 0 .371.151c.14 0 .258-.05.354-.151a.504.504 0 0 0 .151-.371.5.5 0 0 0-.151-.37.467.467 0 0 0-.354-.152.5.5 0 0 0-.37.151.504.504 0 0 0-.152.371c0 .146.05.27.152.37Zm.742 5.516v-4.615h-.767v4.615h.767Zm-15.828 0 .472-1.305h2.56l.472 1.305h.809L41.68 8.853h-.885l-2.122 5.837h.808Zm1.752-4.893 1.062 2.965h-2.123l1.061-2.965Zm6.13.278-1.431 3.908-1.44-3.908h-.826l1.81 4.615h.894l1.81-4.615h-.816Zm1.37 2.29c0-.471.095-.884.286-1.237.19-.36.452-.638.783-.834.337-.197.71-.295 1.12-.295.405 0 .756.087 1.053.261.298.174.52.393.666.657v-.842h.774v4.615h-.774v-.859c-.152.27-.38.494-.683.674a2.03 2.03 0 0 1-1.044.261c-.41 0-.78-.101-1.112-.303a2.126 2.126 0 0 1-.783-.85 2.65 2.65 0 0 1-.286-1.247Zm3.908.01c0-.349-.07-.652-.211-.91a1.45 1.45 0 0 0-.573-.59 1.503 1.503 0 0 0-.783-.21 1.55 1.55 0 0 0-.783.202 1.466 1.466 0 0 0-.565.59c-.14.257-.21.56-.21.909 0 .353.07.662.21.926.14.258.329.458.565.598.236.135.497.202.783.202.286 0 .547-.067.783-.202.242-.14.433-.34.573-.598.14-.264.21-.57.21-.918Zm4.572-3.917v6.232h-.767V8.458h.767Zm1.306 2.67c-.19.353-.286.766-.286 1.238 0 .466.095.881.286 1.246.191.365.452.649.784.85.33.203.701.304 1.111.304a2.03 2.03 0 0 0 1.045-.261c.303-.18.53-.404.682-.674v.86h.775v-4.616h-.775v.842a1.74 1.74 0 0 0-.666-.657c-.297-.174-.648-.261-1.052-.261-.41 0-.784.098-1.12.295a2.081 2.081 0 0 0-.784.834Zm3.411.336c.14.259.21.562.21.91s-.07.654-.21.918c-.14.258-.33.458-.572.598a1.551 1.551 0 0 1-.784.202c-.286 0-.547-.067-.783-.202a1.527 1.527 0 0 1-.564-.598 1.946 1.946 0 0 1-.21-.926c0-.348.07-.652.21-.91.14-.258.328-.455.564-.59a1.55 1.55 0 0 1 .783-.202c.287 0 .548.07.784.21.241.136.432.332.572.59Zm3.132-.53c.157-.275.387-.5.69-.674a2.043 2.043 0 0 1 1.036-.26 2.08 2.08 0 0 1 1.903 1.129c.192.353.287.766.287 1.238 0 .466-.095.881-.286 1.246a2.107 2.107 0 0 1-1.904 1.154c-.398 0-.75-.087-1.052-.261a1.783 1.783 0 0 1-.674-.665v.85h-.767V8.458h.767v2.476Zm3.133 1.432c0-.348-.07-.652-.21-.91a1.449 1.449 0 0 0-.573-.59 1.55 1.55 0 0 0-.784-.202 1.531 1.531 0 0 0-1.356.809c-.14.258-.21.559-.21.901 0 .348.07.654.21.918.146.258.337.458.573.598.241.135.502.202.783.202.287 0 .548-.067.784-.202.241-.14.432-.34.572-.598.14-.264.21-.573.21-.926Zm2.559 2.324V8.458h-.767v6.232h.767Zm5.601-2.484c0 .146-.008.3-.025.463h-3.69c.029.455.183.811.464 1.07.287.252.632.379 1.036.379.331 0 .607-.076.826-.228a1.24 1.24 0 0 0 .471-.623h.826a2 2 0 0 1-.742 1.086c-.37.276-.83.413-1.38.413-.439 0-.832-.098-1.18-.295a2.102 2.102 0 0 1-.809-.834c-.196-.364-.294-.786-.294-1.263 0-.477.095-.896.286-1.255.19-.36.458-.634.8-.825a2.39 2.39 0 0 1 1.196-.295c.438 0 .826.095 1.162.286.337.191.596.455.775.792.186.331.278.707.278 1.129Zm-.791-.16c0-.292-.065-.542-.194-.75a1.22 1.22 0 0 0-.53-.48 1.582 1.582 0 0 0-.734-.168c-.387 0-.718.123-.993.37-.27.247-.424.59-.464 1.028h2.915Zm5.05 2.425a2.39 2.39 0 0 0 1.18.295 2.45 2.45 0 0 0 1.196-.295 2.15 2.15 0 0 0 .85-.834c.214-.364.32-.786.32-1.263 0-.477-.103-.896-.311-1.255a2.07 2.07 0 0 0-.834-.825 2.404 2.404 0 0 0-1.187-.295 2.4 2.4 0 0 0-1.188.295 2.11 2.11 0 0 0-.842.834 2.5 2.5 0 0 0-.303 1.246c0 .477.098.899.294 1.263.202.36.478.638.826.834Zm1.955-.572c-.242.129-.5.193-.775.193s-.528-.062-.758-.185a1.426 1.426 0 0 1-.556-.581c-.135-.258-.202-.576-.202-.952 0-.37.07-.685.21-.943.14-.258.326-.45.556-.573.236-.13.494-.194.775-.194.275 0 .53.065.767.194.235.124.426.314.572.573.146.258.22.573.22.943s-.076.685-.228.943c-.146.259-.34.452-.581.582Zm5.017-3.908c.561 0 1.016.17 1.364.513.348.337.522.826.522 1.466v2.72h-.758v-2.61c0-.461-.115-.812-.345-1.053-.23-.248-.545-.371-.943-.371-.405 0-.728.126-.969.379-.236.253-.354.62-.354 1.103v2.552h-.766v-4.615h.766v.657c.152-.236.357-.419.615-.548.264-.129.553-.193.868-.193ZM98.66 21.376h1.36v-1.21l1.849-1.265v2.475h1.618v1.645h-1.618v2.977c0 1.387.19 1.605 1.618 1.605v1.726h-.259c-2.46 0-3.208-.788-3.208-3.317v-2.991h-1.36v-1.645Zm-39.62-2.11h1.848v10.062H59.04V19.266Zm-20.372 5.1c0-2.827 2.134-5.098 5.07-5.098 2.054 0 3.672 1.047 4.515 2.543l-1.632.979c-.611-1.129-1.563-1.727-2.868-1.727-1.85 0-3.25 1.495-3.25 3.304 0 1.835 1.387 3.303 3.317 3.303 1.482 0 2.516-.843 2.87-2.148h-3.168v-1.767h5.152v.734c0 2.678-1.89 4.976-4.854 4.976-3.1 0-5.152-2.352-5.152-5.098Zm14.794-3.153c-2.013 0-3.943 1.509-3.943 4.146 0 2.597 1.998 4.134 3.915 4.134 1.047 0 1.999-.463 2.584-1.197v1.034h1.835v-7.954h-1.835v.952c-.572-.68-1.51-1.115-2.556-1.115Zm.271 1.672c1.36 0 2.38 1.101 2.38 2.447 0 1.373-1.02 2.474-2.38 2.474-1.359 0-2.406-1.087-2.406-2.474 0-1.373 1.047-2.447 2.406-2.447Zm8.091 2.474c0-2.637 1.93-4.146 3.943-4.146 1.047 0 1.985.435 2.556 1.115v-.952h1.835v7.953h-1.835v-1.033c-.584.734-1.536 1.197-2.583 1.197-1.917 0-3.916-1.537-3.916-4.133Zm6.594-.027c0-1.346-1.02-2.447-2.379-2.447-1.36 0-2.406 1.074-2.406 2.447 0 1.387 1.047 2.474 2.406 2.474 1.36 0 2.38-1.1 2.38-2.474Zm2.436-3.956 2.882 3.902-2.991 4.052h2.243l1.89-2.652 1.944 2.651h2.243l-3.046-4.024 2.856-3.929H76.7l-1.795 2.529-1.808-2.529h-2.243Zm11.652 7.559-3.263-7.56h1.958l2.216 5.358 2.093-5.357h1.931L82.697 33h-1.862l1.672-4.065Zm10.388-2.583-1.685 1.332c.897 1.02 2.08 1.781 3.875 1.782 2.175 0 3.426-1.524 3.426-3.087 0-1.903-1.523-2.502-2.869-2.936l-.19-.063-.006-.002c-.991-.323-1.83-.596-1.83-1.336 0-.639.49-1.128 1.387-1.128.788 0 1.373.326 1.795.951l1.522-1.155c-.802-.83-1.726-1.441-3.331-1.441-1.903 0-3.29 1.25-3.29 2.841 0 1.89 1.482 2.407 2.814 2.828l.173.053c.995.303 1.894.578 1.894 1.375 0 .693-.53 1.332-1.51 1.332-.896 0-1.671-.49-2.174-1.346Zm15.202-5.14c-2.297 0-4.119 1.836-4.119 4.148a4.103 4.103 0 0 0 4.119 4.133 4.11 4.11 0 0 0 4.119-4.133c0-2.312-1.835-4.147-4.119-4.147Zm0 1.727c1.291 0 2.311 1.088 2.311 2.42 0 1.32-1.02 2.407-2.311 2.407-1.319 0-2.311-1.088-2.311-2.406 0-1.333.992-2.42 2.311-2.42Zm6.881-1.563v1.183c.367-.789 1.033-1.183 2.039-1.183.571 0 1.046.136 1.4.34l-.693 1.74c-.272-.177-.585-.313-1.102-.313-1.06 0-1.631.571-1.631 1.944v4.242h-1.835v-7.953h1.822Zm7.777-.163c-2.325 0-4.133 1.835-4.133 4.16 0 2.297 1.7 4.12 4.201 4.12 1.768 0 3.019-.87 3.712-2.149l-1.509-.87c-.381.843-1.183 1.4-2.203 1.4-1.305 0-2.202-.76-2.447-1.876h6.471v-.693c0-2.352-1.726-4.092-4.092-4.092Zm2.23 3.25h-4.514a2.357 2.357 0 0 1 2.284-1.632c1.142 0 1.958.57 2.23 1.631Z" clip-rule="evenodd"/></svg>
