<svg xmlns="http://www.w3.org/2000/svg" width="40" height="40" fill="none" viewBox="0 0 40 40"><path fill="url(#a)" fill-rule="evenodd" d="M20 40c11.046 0 20-8.954 20-20S31.046 0 20 0 0 8.954 0 20s8.954 20 20 20" clip-rule="evenodd"/><path fill="#fff" d="M24.5 20.5c2.294 0 6.5.857 6.5 4.286 0 1.5-.382 1.714-1.147 1.714h-6.09c.158-.488.237-1.062.237-1.714 0-1.723-.631-3.067-1.672-4.062.783-.16 1.548-.224 2.172-.224m-9 0c2.294 0 6.5.857 6.5 4.286 0 1.5-.382 1.714-1.147 1.714H10.147C9.382 26.5 9 26.286 9 24.786c0-3.429 4.206-4.286 6.5-4.286m0-7.5a3 3 0 1 1 0 6 3 3 0 1 1 0-6m9 0a3 3 0 1 1 0 6 3 3 0 1 1 0-6"/><defs><linearGradient id="a" x1="0" x2="40" y1="0" y2="40" gradientUnits="userSpaceOnUse"><stop stop-color="#6cf"/><stop offset="1" stop-color="#3f8ae0"/></linearGradient></defs></svg>