<svg xmlns="http://www.w3.org/2000/svg" width="48" height="48" fill="none" viewBox="0 0 48 48"><path fill="currentColor" fill-rule="evenodd" d="M10.4393 10.4393c.5858-.5857 1.5356-.5857 2.1214 0L24 21.8787l11.4393-11.4394c.5858-.5857 1.5356-.5857 2.1214 0 .5857.5858.5857 1.5356 0 2.1214L26.1213 24l11.4394 11.4393c.5857.5858.5857 1.5356 0 2.1214-.5858.5857-1.5356.5857-2.1214 0L24 26.1213 12.5607 37.5607c-.5858.5857-1.5356.5857-2.1214 0-.5857-.5858-.5857-1.5356 0-2.1214L21.8787 24 10.4393 12.5607c-.5857-.5858-.5857-1.5356 0-2.1214Z" clip-rule="evenodd"/></svg>
