<svg xmlns="http://www.w3.org/2000/svg" width="48" height="48" fill="currentColor" viewBox="0 0 48 48"><path fill-rule="evenodd" d="M22.833 4.006h1.165c1.69 0 3.305.703 4.456 1.942l5.126 5.513 5.916 5.92c.96.96 1.5 2.263 1.5 3.62v.313a1.5 1.5 0 0 1-3 0v-.312H27.5a4.5 4.5 0 0 1-4.5-4.5V7.006h-.1c-2.545 0-4.363.001-5.789.117-1.408.115-2.3.335-3.016.7a7.5 7.5 0 0 0-3.277 3.278c-.365.716-.585 1.608-.7 3.016C10 15.542 10 17.36 10 19.906v8.2c0 2.545.001 4.364.118 5.79.115 1.408.335 2.3.7 3.015a7.5 7.5 0 0 0 3.277 3.278c.716.365 1.608.585 3.016.7 1.425.116 3.244.117 5.789.117h7.607a1.5 1.5 0 0 1 0 3h-7.674c-2.463 0-4.404 0-5.966-.127-1.594-.13-2.925-.4-4.134-1.017a10.5 10.5 0 0 1-4.589-4.589c-.616-1.209-.886-2.54-1.016-4.133C7 32.578 7 30.637 7 28.173V19.84c0-2.464 0-4.405.128-5.966.13-1.594.4-2.925 1.016-4.134a10.5 10.5 0 0 1 4.59-4.589c1.208-.616 2.54-.886 4.133-1.017 1.562-.127 3.503-.127 5.966-.127Zm13.043 13.996H27.5a1.5 1.5 0 0 1-1.5-1.5V7.744c.09.076.176.159.257.246l5.162 5.553 4.457 4.459Z M37.555 25.441a1.5 1.5 0 0 0-2.122 0l-5.993 5.993a1.5 1.5 0 1 0 2.122 2.123l3.431-3.431V43.5a1.5 1.5 0 0 0 3.002 0V30.126l3.443 3.442a1.5 1.5 0 0 0 2.122-2.122l-6.005-6.005Z"/></svg>
