<svg xmlns="http://www.w3.org/2000/svg" width="48" height="48" fill="none" viewBox="0 0 48 48"><circle cx="24" cy="24" r="24" fill="url(#a)"/><path stroke="#fff" stroke-width="2.057" d="m32.111 33.986-4.092 2.29c-3.964 2.217-10.418-.27-14.053-6.372-3.631-6.095-2.63-12.756 1.335-14.974l4.094-2.288"/><path stroke="#fff" stroke-width="2.057" d="M32.8 33.64c-4.123 2.307-10.134-.446-13.78-6.566-3.642-6.112-3.099-12.535 1.026-14.842 4.13-2.31 10.138.447 13.78 6.559 3.646 6.12 3.105 12.539-1.025 14.85Z"/><path stroke="#fff" stroke-linecap="round" stroke-width="2.057" d="M30.779 30.275c2.056-1.15 2.066-5.394-.424-9.573-2.487-4.175-6.248-6.261-8.305-5.11"/><path stroke="#fff" stroke-width="2.057" d="m17.248 23.514-4.725 2.7m8.777 4.051-4.725 2.702"/><defs><linearGradient id="a" x1="-24" x2="24" y1="24" y2="72" gradientUnits="userSpaceOnUse"><stop stop-color="#ffc460"/><stop offset="1" stop-color="#fd9f00"/></linearGradient></defs></svg>