<svg xmlns="http://www.w3.org/2000/svg" width="48" height="48" fill="currentColor" viewBox="0 0 48 48"><path fill-rule="evenodd" d="M4.872 11.368C4 13.08 4 15.32 4 19.8v8.4c0 4.48 0 6.72.872 8.432a8 8 0 0 0 3.496 3.496C10.08 41 12.32 41 16.8 41h14.4c4.48 0 6.72 0 8.432-.872a8 8 0 0 0 3.496-3.496C44 34.92 44 32.68 44 28.2v-8.4c0-4.48 0-6.72-.872-8.432a8 8 0 0 0-3.496-3.496C37.92 7 35.68 7 31.2 7H16.8c-4.48 0-6.72 0-8.432.872a8 8 0 0 0-3.496 3.496Zm3.237 3.178C8 14.76 8 15.04 8 15.6v.8c0 .56 0 .84.109 1.054a1 1 0 0 0 .437.437C8.76 18 9.04 18 9.6 18h.8c.56 0 .84 0 1.054-.109a1 1 0 0 0 .437-.437C12 17.24 12 16.96 12 16.4v-.8c0-.56 0-.84-.109-1.054a1 1 0 0 0-.437-.437C11.24 14 10.96 14 10.4 14h-.8c-.56 0-.84 0-1.054.109a1 1 0 0 0-.437.437Zm28 0C36 14.76 36 15.04 36 15.6v.8c0 .56 0 .84.109 1.054a1 1 0 0 0 .437.437C36.76 18 37.04 18 37.6 18h.8c.56 0 .84 0 1.054-.109a1 1 0 0 0 .437-.437C40 17.24 40 16.96 40 16.4v-.8c0-.56 0-.84-.109-1.054a1 1 0 0 0-.437-.437C39.24 14 38.96 14 38.4 14h-.8c-.56 0-.84 0-1.054.109a1 1 0 0 0-.437.437ZM8 23.6c0-.56 0-.84.109-1.054a1 1 0 0 1 .437-.437C8.76 22 9.04 22 9.6 22h.8c.56 0 .84 0 1.054.109a1 1 0 0 1 .437.437C12 22.76 12 23.04 12 23.6v.8c0 .56 0 .84-.109 1.054a1 1 0 0 1-.437.437C11.24 26 10.96 26 10.4 26h-.8c-.56 0-.84 0-1.054-.109a1 1 0 0 1-.437-.437C8 25.24 8 24.96 8 24.4v-.8Zm28.109-1.054C36 22.76 36 23.04 36 23.6v.8c0 .56 0 .84.109 1.054a1 1 0 0 0 .437.437C36.76 26 37.04 26 37.6 26h.8c.56 0 .84 0 1.054-.109a1 1 0 0 0 .437-.437C40 25.24 40 24.96 40 24.4v-.8c0-.56 0-.84-.109-1.054a1 1 0 0 0-.437-.437C39.24 22 38.96 22 38.4 22h-.8c-.56 0-.84 0-1.054.109a1 1 0 0 0-.437.437ZM8 31.6c0-.56 0-.84.109-1.054a1 1 0 0 1 .437-.437C8.76 30 9.04 30 9.6 30h.8c.56 0 .84 0 1.054.109a1 1 0 0 1 .437.437C12 30.76 12 31.04 12 31.6v.8c0 .56 0 .84-.109 1.054a1 1 0 0 1-.437.437C11.24 34 10.96 34 10.4 34h-.8c-.56 0-.84 0-1.054-.109a1 1 0 0 1-.437-.437C8 33.24 8 32.96 8 32.4v-.8Zm28.109-1.054C36 30.76 36 31.04 36 31.6v.8c0 .56 0 .84.109 1.054a1 1 0 0 0 .437.437C36.76 34 37.04 34 37.6 34h.8c.56 0 .84 0 1.054-.109a1 1 0 0 0 .437-.437C40 33.24 40 32.96 40 32.4v-.8c0-.56 0-.84-.109-1.054a1 1 0 0 0-.437-.437C39.24 30 38.96 30 38.4 30h-.8c-.56 0-.84 0-1.054.109a1 1 0 0 0-.437.437ZM19 27.372v-6.744c0-1.168 0-1.751.245-2.091.215-.297.544-.49.908-.532.418-.047.927.238 1.946.809l6.022 3.372c1.058.593 1.588.89 1.764 1.28.153.34.153.729 0 1.069-.176.39-.706.686-1.764 1.279l-6.022 3.372c-1.019.571-1.528.856-1.946.809a1.301 1.301 0 0 1-.907-.532C19 29.123 19 28.54 19 27.373Z" clip-rule="evenodd"/></svg>
