<svg xmlns="http://www.w3.org/2000/svg" width="48" height="48" fill="currentColor" viewBox="0 0 48 48"><path d="M23 3.664c0-.918 1.022-1.473 1.802-.98l7.657 4.849a1.158 1.158 0 0 1-.002 1.96L24.8 14.318c-.78.49-1.799-.065-1.799-.981v-3.301c-7.265.513-13 6.57-13 13.965 0 7.732 6.268 14 14 14 5.794 0 10.768-3.52 12.897-8.542l.197-.49.061-.141a1.5 1.5 0 0 1 2.79 1.06l-.046.145-.24.596C37.077 36.72 31.04 41 24 41c-9.389 0-17-7.611-17-17 0-9.053 7.077-16.452 16-16.97V3.664Z M30.52 18.241c.43 0 .762.106.996.32.233.212.35.511.35.895 0 .377-.115.668-.345.872-.23.204-.565.306-1.001.306h-4.503l-.197 2.704h.152c.215-.287.547-.517.996-.69a4.02 4.02 0 0 1 1.462-.26c.783 0 1.474.17 2.072.511a3.567 3.567 0 0 1 1.396 1.434c.331.615.497 1.327.497 2.137 0 .9-.2 1.693-.6 2.375a4.08 4.08 0 0 1-1.71 1.585c-.739.374-1.595.561-2.57.561-.802 0-1.535-.133-2.198-.397-.664-.265-1.187-.616-1.57-1.051-.382-.435-.574-.896-.574-1.383 0-.365.109-.675.327-.928a1.08 1.08 0 0 1 .857-.379c.215 0 .411.046.588.137.176.091.348.238.515.439.311.39.634.677.969.863.335.185.707.278 1.113.278a2.12 2.12 0 0 0 1.045-.255 1.84 1.84 0 0 0 .722-.713c.173-.304.26-.654.26-1.05 0-.377-.082-.712-.247-1.004a1.724 1.724 0 0 0-.69-.681 2.058 2.058 0 0 0-1.001-.242c-.275 0-.558.053-.848.16-.29.107-.57.257-.838.452-.216.17-.41.29-.584.36a1.56 1.56 0 0 1-1.323-.09 1.317 1.317 0 0 1-.53-.553 1.522 1.522 0 0 1-.156-.804l.297-4.438c.065-.98.657-1.471 1.776-1.471h5.095Zm-10.004.058a.545.545 0 0 1 .758.502v11.482c0 .3-.245.544-.545.544H18.88a.544.544 0 0 1-.544-.544v-8.4l-2.226.878a.446.446 0 0 1-.61-.415v-1.557c0-.219.131-.416.332-.501l4.684-1.99Z"/></svg>
