<svg xmlns="http://www.w3.org/2000/svg" width="48" height="48" fill="currentColor" viewBox="0 0 48 48"><path fill-rule="evenodd" d="M12.56 8.44a1.5 1.5 0 0 0-2.12 2.12l2.491 2.492a25.29 25.29 0 0 0-2.696 1.731c-1.88 1.386-3.442 2.955-4.533 4.55C4.61 20.928 4 22.535 4 24s.61 3.071 1.702 4.668c1.09 1.594 2.653 3.163 4.533 4.549C13.998 35.989 19.007 38 24 38c3.827 0 7.654-1.182 10.913-2.966l2.526 2.527a1.5 1.5 0 0 0 2.122-2.122l-27-27Zm20.13 24.37-3.845-3.845A6.988 6.988 0 0 1 23.89 31C20.145 31 17 28.075 17 24.334c0-1.976.886-3.734 2.268-4.944l-4.13-4.131a1.513 1.513 0 0 1-.175.106 22.432 22.432 0 0 0-2.949 1.834c-1.662 1.224-2.97 2.56-3.836 3.827C7.292 22.322 7 23.343 7 24s.292 1.678 1.178 2.974c.867 1.266 2.174 2.603 3.836 3.827C15.367 33.271 19.767 35 24 35c2.944 0 5.976-.836 8.69-2.189ZM21.398 21.52c-.868.683-1.398 1.7-1.398 2.815C20 26.299 21.681 28 23.89 28c1.127 0 2.13-.45 2.834-1.155l-5.326-5.326Z M24 13c-.279 0-.492.003-.797.02-.4.023-.698.046-1.013.086a1.5 1.5 0 1 1-.38-2.976c.416-.053.792-.08 1.223-.105.383-.022.658-.025.967-.025 4.993 0 10.002 2.011 13.765 4.783 1.88 1.386 3.443 2.955 4.533 4.55C43.39 20.928 44 22.535 44 24c0 1.456-.655 3.21-1.722 4.695a73.43 73.43 0 0 1-1.288 1.718 1.5 1.5 0 1 1-2.38-1.826c.352-.46.853-1.114 1.231-1.641C40.651 25.819 41 24.665 41 24c0-.657-.292-1.678-1.178-2.974-.867-1.266-2.174-2.603-3.836-3.827C32.633 14.729 28.233 13 24 13Z"/></svg>
