<svg fill="none" height="48" viewBox="0 0 48 48" width="48" xmlns="http://www.w3.org/2000/svg"><path clip-rule="evenodd" d="m7.67115 7.67119c-2.67118 2.67121-2.67118 6.97041-2.67118 15.56881v1.52c0 8.5984 0 12.8976 2.67118 15.5688 2.67115 2.6712 6.97045 2.6712 15.56885 2.6712h1.52c8.5984 0 12.8976 0 15.5688-2.6712s2.6712-6.9704 2.6712-15.5688v-1.52c0-8.5984 0-12.8976-2.6712-15.56881-2.6712-2.67119-6.9704-2.67119-15.5688-2.67119h-1.52c-8.5984 0-12.8977 0-15.56885 2.67119zm3.72885 8.92881c.2054 9.8691 5.1358 15.8 13.7798 15.8h.49v-5.6463c3.1763.3164 5.5782 2.6413 6.5421 5.6463h4.4881c-1.2326-4.4917-4.4723-6.9748-6.4951-7.9237 2.0228-1.1704 4.8673-4.0172 5.5468-7.8763h-4.0772c-.885 3.1315-3.5079 5.9784-6.0047 6.2472v-6.2472h-4.0772v10.9445c-2.5284-.6326-5.7205-3.7008-5.8627-10.9445z" fill="currentColor" fill-rule="evenodd"/></svg>
