<svg xmlns="http://www.w3.org/2000/svg" width="48" height="48" fill="none" viewBox="0 0 48 48"><rect width="48" height="48" fill="url(#a)" rx="24"/><path fill="#fff" fill-rule="evenodd" d="M17 17c0-2.378.983-4.165 2.387-5.335C20.757 10.523 22.485 10 24 10c1.515 0 3.243.523 4.613 1.665C30.017 12.835 31 14.622 31 17h2.253c.955 0 1.302.1 1.65.286.35.187.624.461.81.81.188.35.287.696.287 1.651v9.11c0 2.484-.259 3.385-.744 4.293a5.062 5.062 0 0 1-2.106 2.106c-.908.485-1.809.744-4.292.744h-9.716c-2.483 0-3.384-.259-4.292-.744a5.062 5.062 0 0 1-2.106-2.106c-.484-.908-.744-1.81-.744-4.292v-9.111c0-.955.1-1.302.286-1.65a1.94 1.94 0 0 1 .81-.81c.35-.188.696-.287 1.651-.287H17Zm2.5 0c0-1.622.642-2.71 1.488-3.415A4.84 4.84 0 0 1 24 12.5a4.84 4.84 0 0 1 3.012 1.085c.846.705 1.488 1.793 1.488 3.415h-9Zm-1.177 2.429h-.074c-.281 0-.497.051-.679.148-.181.097-.324.24-.421.422a1.398 1.398 0 0 0-.149.678v.074c0 .281.052.497.149.679.097.181.24.324.421.421.182.097.398.149.679.149h.074c.28 0 .497-.052.678-.149.182-.097.325-.24.422-.421.097-.182.148-.398.148-.679v-.074c0-.28-.051-.497-.148-.678a1.012 1.012 0 0 0-.422-.422 1.398 1.398 0 0 0-.678-.148ZM31 20.677c0-.28-.052-.497-.149-.678a1.013 1.013 0 0 0-.421-.422 1.399 1.399 0 0 0-.679-.148h-.074c-.28 0-.497.051-.678.148a1.01 1.01 0 0 0-.422.422 1.398 1.398 0 0 0-.148.678v.074c0 .281.051.497.148.679.097.181.24.324.422.421.181.097.397.149.678.149h.074c.281 0 .497-.052.679-.149.181-.097.324-.24.421-.421.097-.182.149-.398.149-.679v-.074Z" clip-rule="evenodd"/><defs><linearGradient id="a" x1="0" x2="49.256" y1="0" y2="1.326" gradientUnits="userSpaceOnUse"><stop stop-color="#70B2FF"/><stop offset="1" stop-color="#5C9CE6"/></linearGradient></defs></svg>
