<svg xmlns="http://www.w3.org/2000/svg" width="48" height="48" fill="currentColor" viewBox="0 0 48 48"><path d="M4 24.471v-.942c0-1.96 0-2.94.381-3.69a3.5 3.5 0 0 1 1.53-1.529c.749-.381 1.729-.381 3.689-.381h2.733c.025 0 .037 0 .049-.003a.1.1 0 0 0 .029-.012.227.227 0 0 0 .036-.033L21.9 8.315A4.426 4.426 0 0 1 25.05 7 2.951 2.951 0 0 1 28 9.951V38.05A2.951 2.951 0 0 1 25.049 41a4.426 4.426 0 0 1-3.149-1.315l-9.453-9.566a.227.227 0 0 0-.036-.033.1.1 0 0 0-.03-.012c-.01-.003-.023-.003-.048-.003H9.6c-1.96 0-2.94 0-3.689-.381a3.5 3.5 0 0 1-1.53-1.53C4 27.412 4 26.432 4 24.471Zm28.44-6.031a1.5 1.5 0 0 1 2.12 0L38 21.878l3.44-3.44a1.5 1.5 0 0 1 2.12 2.122L40.122 24l3.44 3.44a1.5 1.5 0 0 1-2.122 2.12L38 26.122l-3.44 3.44a1.5 1.5 0 0 1-2.12-2.122L35.878 24l-3.44-3.44a1.5 1.5 0 0 1 0-2.12Z"/></svg>
