<svg xmlns="http://www.w3.org/2000/svg" width="48" height="48" fill="currentColor" viewBox="0 0 48 48"><path d="M17.154 6c1.337 0 1.822.14 2.311.4.49.262.873.646 1.134 1.135.262.489.401.974.401 2.31v28.31c0 1.336-.14 1.821-.4 2.31a2.726 2.726 0 0 1-1.135 1.134c-.489.262-.974.401-2.31.401h-5.31c-1.337 0-1.821-.14-2.31-.4A2.726 2.726 0 0 1 8.4 40.464c-.262-.489-.401-.974-.401-2.31V9.844c0-1.336.14-1.821.4-2.31A2.726 2.726 0 0 1 9.536 6.4c.489-.262.973-.401 2.31-.401h5.31Zm19 0c1.337 0 1.822.14 2.311.4.49.262.873.646 1.134 1.135.262.489.401.974.401 2.31v28.31c0 1.336-.14 1.821-.4 2.31a2.726 2.726 0 0 1-1.135 1.134c-.489.262-.974.401-2.31.401h-5.31c-1.336 0-1.821-.14-2.31-.4a2.726 2.726 0 0 1-1.134-1.135c-.262-.489-.401-.974-.401-2.31V9.844c0-1.336.14-1.821.4-2.31A2.726 2.726 0 0 1 28.536 6.4c.489-.262.974-.401 2.31-.401h5.31Z"/></svg>
