<?xml version="1.0" encoding="UTF-8"?>
<svg width="48px" height="48px" viewBox="0 0 48 48" version="1.1" xmlns="http://www.w3.org/2000/svg" xmlns:xlink="http://www.w3.org/1999/xlink">
    <!-- Generator: Sketch 50.2 (55047) - http://www.bohemiancoding.com/sketch -->
    <title>playlist_48</title>
    <desc>Created with Sketch.</desc>
    <defs></defs>
    <g id="Page-2" stroke="none" stroke-width="1" fill="none" fill-rule="evenodd">
        <g id="playlist_48">
            <polygon id="Shape" points="0 0 48 0 48 48 0 48"></polygon>
            <path d="M27.66,13 C28.4000616,13 29,13.5999384 29,14.34 L29,15.66 C29,16.4000616 28.4000616,17 27.66,17 L6.34,17 C5.59993844,17 5,16.4000616 5,15.66 L5,14.34 C5,13.5999384 5.59993844,13 6.34,13 L27.66,13 Z M27.66,21 C28.4000616,21 29,21.5999384 29,22.34 L29,23.66 C29,24.4000616 28.4000616,25 27.66,25 L6.34,25 C5.59993844,25 5,24.4000616 5,23.66 L5,22.34 C5,21.5999384 5.59993844,21 6.34,21 L27.66,21 Z M35.9767253,18.4467882 L35.9767253,30.8443845 C35.9767253,36.8609161 34.8104275,38.0223087 30.1441881,38.6339758 C27.9198869,38.925545 25.3100586,37.9160334 25.3100586,34.4183631 C25.3100586,32.7098248 26.3791426,31.0873457 28.5915824,30.6633639 C30.2812229,30.339569 28.1614901,30.740024 31.9839614,30.0303799 C32.9119284,29.8581022 33.0170832,29.5260732 33.0170832,28.8186586 C33.0170832,28.4634334 33.0153254,25.358246 33.0140942,23.2269013 L33.0042352,23.2266137 L33.0042352,17.4695281 C33.0042352,17.4695281 32.9969739,14.7251654 33.0042352,13.352998 C33.01292,11.7118449 34.2194803,11.0563047 36.8650087,10.5219615 C36.8650087,10.5219615 40.8959571,9.75667104 43.1119756,9.35473493 C43.602353,9.26579145 43.9767253,9.44830898 43.9767253,10.0107693 C43.9767253,10.0107693 43.9624887,13.5069041 43.9767253,15.416554 C43.9808594,15.9710928 43.75216,16.2221554 43.1900971,16.3219171 C40.9478322,16.7199011 36.7035268,17.4690662 36.7035268,17.4690662 C36.2050211,17.5915029 35.9767253,17.9423989 35.9767253,18.4467882 Z M6.34,33 C5.59993844,33 5,32.4000616 5,31.66 L5,30.34 C5,29.5999384 5.59993844,29 6.34,29 L21.66,29 C22.4000616,29 23,29.5999384 23,30.34 L23,31.66 C23,32.4000616 22.4000616,33 21.66,33 L6.34,33 Z" id="Mask" fill="currentColor"></path>
        </g>
    </g>
</svg>
