<svg fill="none" height="48" viewBox="0 0 48 48" width="48" xmlns="http://www.w3.org/2000/svg"><path d="m24 10c1.8409 0 3.5657.4975 5.0472 1.3653s2.7197 2.106 3.5875 3.5875 1.3653 3.2063 1.3653 5.0472v12c0 1.8409-.4975 3.5657-1.3653 5.0472s-2.106 2.7197-3.5875 3.5875c-.9301.5449-1.9562.9437-3.0466 1.1651l-.0006 2.4002c0 .9941-.8059 1.8-1.8 1.8h-.4c-.9941 0-1.8-.8059-1.8-1.8l-.0026-2.4006c-1.0897-.2215-2.115-.6202-3.0446-1.1647-1.4815-.8678-2.7197-2.106-3.5875-3.5875s-1.3653-3.2063-1.3653-5.0472v-12c0-1.8409.4975-3.5657 1.3653-5.0472s2.106-2.7197 3.5875-3.5875 3.2063-1.3653 5.0472-1.3653zm0 3.5c-1.173 0-2.2926.308-3.2781.8853-.9643.5648-1.7718 1.3723-2.3366 2.3366-.5773.9855-.8853 2.1051-.8853 3.2781h3.5123c.4186 0 .7735.0835 1.0669.2404.2933.1569.5235.3871.6804.6804.1569.2934.2404.6483.2404 1.0669v.0246c0 .4186-.0835.7735-.2404 1.0669-.1569.2933-.3871.5235-.6804.6804-.2934.1569-.6483.2404-1.0669.2404h-3.5123v4h3.5123c.4186 0 .7735.0835 1.0669.2404.2933.1569.5235.3871.6804.6804.1569.2934.2404.6483.2404 1.0669v.0246c0 .4186-.0835.7735-.2404 1.0669-.1569.2933-.3871.5235-.6804.6804-.2934.1569-.6483.2404-1.0669.2404h-3.5123l.0144.4372c.0668 1.0136.3657 1.9786.8709 2.8409.5648.9643 1.3723 1.7718 2.3366 2.3366.9855.5773 2.1051.8853 3.2781.8853s2.2926-.308 3.2781-.8853c.9643-.5648 1.7718-1.3723 2.3366-2.3366.577-.985.8849-2.1039.8853-3.2761l-1.0123-.002c-.4186 0-.7735-.0835-1.0669-.2404-.2933-.1569-.5235-.3871-.6804-.6804-.1569-.2934-.2404-.6483-.2404-1.0669v-.0246c0-.4186.0835-.7735.2404-1.0669.1569-.2933.3871-.5235.6804-.6804.2934-.1569.6483-.2404 1.0669-.2404h1.0123v-4.002l-1.0123.002c-.4186 0-.7735-.0835-1.0669-.2404-.2933-.1569-.5235-.3871-.6804-.6804-.1569-.2934-.2404-.6483-.2404-1.0669v-.0246c0-.4186.0835-.7735.2404-1.0669.1569-.2933.3871-.5235.6804-.6804.2934-.1569.6483-.2404 1.0669-.2404l1.0123-.002-.0144-.4352c-.0668-1.0136-.3657-1.9786-.8709-2.8409-.5648-.9643-1.3723-1.7718-2.3366-2.3366-.9855-.5773-2.1051-.8853-3.2781-.8853zm0-12.5c10.0574 0 18.2897 7.81441 18.9564 17.7028.5385.4066.9613.9682 1.196 1.6348.5651 1.605.8476 3.4924.8476 5.6624s-.2825 4.0574-.8476 5.6623c-.4931 1.4007-1.8164 2.3377-3.3013 2.3377h-.8511c-1.6569 0-3-1.3431-3-3v-10c0-1.4448 1.0212-2.651 2.3812-2.9361-.9516-7.6447-7.4752-13.5639-15.3812-13.5639s-14.42957 5.9192-15.38072 13.5677c1.35948.2814 2.38072 1.4876 2.38072 2.9323v10c0 1.6569-1.34315 3-3 3h-.85103c-1.48494.0001-2.80824-.937-3.30138-2.3376-.56506-1.605-.84759-3.4924-.84759-5.6624s.28253-4.0574.84758-5.6623c.23471-.6667.65747-1.2283 1.19619-1.6338.66652-9.88949 8.89883-17.7039 18.95623-17.7039z" fill="currentColor"/></svg>
