<svg xmlns="http://www.w3.org/2000/svg" width="48" height="48" fill="currentColor" viewBox="0 0 48 48"><path d="M23.195 2.68c.78-.493 1.8.062 1.8.98v3.366c8.924.518 16.001 7.917 16.001 16.97 0 9.389-7.611 17-17 17-7.04 0-13.076-4.279-15.659-10.372l-.239-.596-.047-.145a1.5 1.5 0 0 1 2.79-1.06l.062.14.197.49c2.128 5.023 7.103 8.543 12.897 8.543 7.731 0 14-6.268 14-14 0-7.396-5.736-13.452-13.002-13.965v3.3c0 .917-1.019 1.473-1.798.982L15.54 9.49a1.158 1.158 0 0 1-.003-1.96l7.658-4.85Z M30.598 18.237c.43 0 .763.106.996.32.233.213.35.511.35.895 0 .377-.116.668-.346.872-.23.204-.563.306-1 .306h-4.504l-.197 2.703h.152c.216-.286.548-.516.996-.69.449-.173.936-.26 1.462-.26.784 0 1.475.17 2.073.511.599.341 1.063.82 1.395 1.435.332.615.498 1.327.498 2.137 0 .9-.2 1.693-.601 2.375a4.074 4.074 0 0 1-1.71 1.585c-.738.374-1.595.561-2.57.561a5.895 5.895 0 0 1-2.197-.397c-.664-.265-1.188-.616-1.57-1.051-.383-.435-.575-.897-.575-1.384 0-.365.11-.674.328-.927.219-.252.504-.379.857-.379.215 0 .412.046.588.137.176.091.348.238.515.439.311.39.634.677.97.863.334.186.705.278 1.111.278.39 0 .737-.085 1.046-.256.308-.17.549-.407.722-.712.174-.304.26-.655.26-1.05 0-.377-.082-.712-.246-1.004a1.725 1.725 0 0 0-.692-.68 2.055 2.055 0 0 0-1-.243 2.45 2.45 0 0 0-.847.16c-.29.107-.57.257-.84.452-.214.17-.409.29-.582.36a1.562 1.562 0 0 1-1.323-.09 1.318 1.318 0 0 1-.53-.553 1.521 1.521 0 0 1-.157-.804l.296-4.44c.066-.98.658-1.469 1.776-1.469h5.096Zm-10.005.058a.545.545 0 0 1 .758.502v11.482c0 .3-.244.544-.545.544h-1.848a.545.545 0 0 1-.544-.544v-8.401l-2.227.878a.445.445 0 0 1-.609-.414v-1.557c0-.218.13-.416.332-.501l4.683-1.99Z"/></svg>
