<svg fill="none" height="48" viewBox="0 0 48 48" width="48" xmlns="http://www.w3.org/2000/svg"><path d="m15.5374 7.53347c-.7226.45756-.7213 1.50514.0024 1.96092l7.6579 4.82281c.7796.491 1.7985-.0648 1.7985-.9812v-3.3008c7.2653.5127 13.0001 6.569 13.0001 13.9648 0 7.732-6.268 14-14 14-5.9803 0-11.0883-3.7502-13.0935-9.0324-.2941-.7745-1.16027-1.164-1.93476-.8699-.7745.294-1.164 1.1602-.86998 1.9347 2.43294 6.4086 8.63124 10.9676 15.89824 10.9676 9.3888 0 17-7.6112 17-17 0-9.0532-7.0767-16.45347-16.0001-16.97108v-3.36488c0-.91769-1.0214-1.47333-1.801-.97969z" fill="currentColor"/></svg>
