<?xml version="1.0" encoding="UTF-8"?>
<svg width="48px" height="48px" viewBox="0 0 48 48" version="1.1" xmlns="http://www.w3.org/2000/svg" xmlns:xlink="http://www.w3.org/1999/xlink">
    <!-- Generator: Sketch 50.2 (55047) - http://www.bohemiancoding.com/sketch -->
    <title>skip_next_48</title>
    <desc>Created with Sketch.</desc>
    <defs></defs>
    <g id="Page-2" stroke="none" stroke-width="1" fill="none" fill-rule="evenodd">
        <g id="skip_next_48" transform="translate(24.000000, 24.000000) scale(-1, 1) translate(-24.000000, -24.000000) ">
            <rect id="Rectangle-738" x="0" y="0" width="48" height="48"></rect>
            <path d="M24.0465082,23.1619941 L36.201354,16.1654823 C36.3834548,16.0606624 36.589886,16.0054934 36.8,16.0054934 C37.4627417,16.0054934 38,16.5427517 38,17.2054934 L38,31.7932268 C38,32.0033408 37.944831,32.209772 37.8400111,32.3918727 C37.509388,32.966255 36.7757363,33.1638609 36.201354,32.8332378 L24.0465082,25.836726 L24.0465082,31.7942944 C24.0465082,32.0044085 23.9913392,32.2108397 23.8865193,32.3929404 C23.5558962,32.9673227 22.8222445,33.1649285 22.2478622,32.8343055 L9.57643002,25.5404388 C9.3929512,25.4348256 9.24067811,25.2825525 9.13506495,25.0990737 C8.8044419,24.5246915 9.00204777,23.7910397 9.57643002,23.4604167 L22.2478622,16.16655 C22.429963,16.0617301 22.6363942,16.006561 22.8465082,16.006561 C23.5092499,16.006561 24.0465082,16.5438193 24.0465082,17.206561 L24.0465082,23.1619941 Z" id="Mask" fill="currentColor"></path>
        </g>
    </g>
</svg>
