<svg xmlns="http://www.w3.org/2000/svg" width="48" height="48" viewBox="0 0 48 48" fill="currentColor"><path d="M34.5 12.5c.828 0 1.5.74 1.5 1.651v16.113l3.44-3.515a1.476 1.476 0 0 1 1.98-.127l.14.127c.586.599.586 1.57 0 2.169l-6 6.133a1.477 1.477 0 0 1-2.12 0l-6-6.133a1.56 1.56 0 0 1 0-2.169 1.477 1.477 0 0 1 2.12 0L33 30.264V14.15c0-.85.585-1.552 1.337-1.641zm-7.925 2c.787 0 1.425.672 1.425 1.5s-.638 1.5-1.425 1.5H7.425C6.638 17.5 6 16.828 6 16s.638-1.5 1.425-1.5zm-4.981 8c.776 0 1.406.672 1.406 1.5s-.63 1.5-1.406 1.5H7.406C6.63 25.5 6 24.828 6 24s.63-1.5 1.406-1.5zm-4.969 8c.76 0 1.375.672 1.375 1.5s-.616 1.5-1.375 1.5h-9.25C6.615 33.5 6 32.828 6 32s.616-1.5 1.375-1.5z"/></svg>