<svg xmlns="http://www.w3.org/2000/svg" width="48" height="48" fill="currentColor" viewBox="0 0 48 48"><path d="M34.5 12.5c.828 0 1.5.74 1.5 1.651v16.113l3.44-3.515a1.476 1.476 0 0 1 1.98-.127l.14.127c.586.599.586 1.57 0 2.169l-6 6.133a1.477 1.477 0 0 1-2.12 0l-6-6.133a1.558 1.558 0 0 1 0-2.169 1.477 1.477 0 0 1 2.12 0L33 30.264V14.15c0-.85.585-1.552 1.337-1.641l.163-.01Zm-10.925 0c.787 0 1.425.672 1.425 1.5s-.638 1.5-1.425 1.5H7.425C6.638 15.5 6 14.828 6 14s.638-1.5 1.425-1.5h16.15Zm-3.981 10c.776 0 1.406.672 1.406 1.5s-.63 1.5-1.406 1.5H7.406C6.63 25.5 6 24.828 6 24s.63-1.5 1.406-1.5h12.188Zm-3.969 10c.76 0 1.375.672 1.375 1.5s-.616 1.5-1.375 1.5h-8.25C6.615 35.5 6 34.828 6 34s.616-1.5 1.375-1.5h8.25Z"/></svg>