<svg xmlns="http://www.w3.org/2000/svg" width="48" height="48" fill="none" viewBox="0 0 48 48"><path fill="url(#a)" fill-rule="evenodd" d="M24 48c13.255 0 24-10.745 24-24S37.255 0 24 0 0 10.745 0 24s10.745 24 24 24Z" clip-rule="evenodd"/><path fill="#fff" fill-rule="evenodd" d="M25.138 18.508c-.572 1.67-1.339 3.357-2.306 4.324-.967.967-2.655 1.734-4.324 2.306a28.399 28.399 0 0 1-1.718.528c-.607.169-.607 1.3 0 1.468a34.222 34.222 0 0 1 1.403.423l.315.105c1.67.572 3.357 1.339 4.324 2.306.967.967 1.734 2.655 2.306 4.324a27.705 27.705 0 0 1 .403 1.277c.043.149.085.296.125.441.169.607 1.3.607 1.468 0a32.699 32.699 0 0 1 .528-1.718c.572-1.67 1.339-3.357 2.306-4.324.967-.967 2.655-1.734 4.324-2.306a26.472 26.472 0 0 1 1.277-.403c.149-.043.296-.085.441-.125.607-.169.607-1.3 0-1.468a32.699 32.699 0 0 1-1.718-.528c-1.67-.572-3.357-1.339-4.324-2.306-.967-.967-1.734-2.654-2.306-4.324a27.72 27.72 0 0 1-.403-1.277 32.69 32.69 0 0 1-.125-.441c-.169-.607-1.3-.607-1.468 0a32.69 32.69 0 0 1-.528 1.718Z" clip-rule="evenodd"/><path fill="#fff" d="M16.607 11.421c-.194-.583-1.02-.583-1.214 0l-.487 1.461a3.2 3.2 0 0 1-2.024 2.024l-1.46.487c-.584.194-.584 1.02 0 1.214l1.46.487a3.2 3.2 0 0 1 2.024 2.024l.487 1.46c.194.584 1.02.584 1.214 0l.487-1.46a3.2 3.2 0 0 1 2.024-2.024l1.46-.487c.584-.194.584-1.02 0-1.214l-1.46-.487a3.2 3.2 0 0 1-2.024-2.024l-.487-1.46Z"/><defs><linearGradient id="a" x1="-24" x2="24" y1="24" y2="72" gradientUnits="userSpaceOnUse"><stop stop-color="#C48AFF"/><stop offset="1" stop-color="#AA65F0"/></linearGradient></defs></svg>
