<svg xmlns="http://www.w3.org/2000/svg" width="48" height="48" fill="currentColor" viewBox="0 0 48 48"><path fill-rule="evenodd" d="M5 21.8c0-5.88 0-8.82 1.144-11.067a10.5 10.5 0 0 1 4.59-4.589C12.978 5 15.918 5 21.8 5h4.4c5.88 0 8.82 0 11.067 1.144a10.5 10.5 0 0 1 4.589 4.59C43 12.978 43 15.918 43 21.8v4.4c0 5.88 0 8.82-1.144 11.067a10.5 10.5 0 0 1-4.59 4.589C35.022 43 32.082 43 26.2 43h-4.4c-5.88 0-8.82 0-11.067-1.144a10.5 10.5 0 0 1-4.589-4.59C5 35.022 5 32.082 5 26.2v-4.4ZM34 24c0 5.523-4.477 10-10 10s-10-4.477-10-10 4.477-10 10-10 10 4.477 10 10Zm-10 7a7 7 0 1 0 0-14 7 7 0 0 0 0 14Z" clip-rule="evenodd"/><path d="M24 31a7 7 0 1 0 0-14 7 7 0 0 0 0 14Z"/><path fill-rule="evenodd" d="M5 21.8c0-5.88 0-8.82 1.144-11.067a10.5 10.5 0 0 1 4.59-4.589C12.978 5 15.918 5 21.8 5h4.4c5.88 0 8.82 0 11.067 1.144a10.5 10.5 0 0 1 4.589 4.59C43 12.978 43 15.918 43 21.8v4.4c0 5.88 0 8.82-1.144 11.067a10.5 10.5 0 0 1-4.59 4.589C35.022 43 32.082 43 26.2 43h-4.4c-5.88 0-8.82 0-11.067-1.144a10.5 10.5 0 0 1-4.589-4.59C5 35.022 5 32.082 5 26.2v-4.4ZM34 24c0 5.523-4.477 10-10 10s-10-4.477-10-10 4.477-10 10-10 10 4.477 10 10Z" clip-rule="evenodd"/></svg>
