<svg xmlns="http://www.w3.org/2000/svg" width="48" height="48" fill="currentColor" viewBox="0 0 48 48"><path fill-rule="evenodd" d="M28.167 7h-8.334c-2.463 0-4.404 0-5.966.128-1.594.13-2.925.4-4.134 1.016a10.5 10.5 0 0 0-4.589 4.59c-.616 1.208-.886 2.54-1.016 4.133C4 18.429 4 20.37 4 22.833v2.334c0 2.463 0 4.404.128 5.966.13 1.594.4 2.925 1.016 4.134a10.5 10.5 0 0 0 4.59 4.589c1.208.616 2.54.886 4.133 1.016 1.562.128 3.502.128 5.966.128h8.334c2.463 0 4.404 0 5.966-.128 1.594-.13 2.925-.4 4.134-1.016a10.5 10.5 0 0 0 4.589-4.59c.616-1.208.886-2.54 1.016-4.133.128-1.562.128-3.502.128-5.966v-2.334c0-2.463 0-4.404-.128-5.966-.13-1.594-.4-2.925-1.016-4.134a10.5 10.5 0 0 0-4.59-4.589c-1.208-.616-2.54-.886-4.133-1.016C32.571 7 30.63 7 28.167 7ZM13.5 28a1.5 1.5 0 0 0 0 3h11a1.5 1.5 0 0 0 0-3h-11ZM12 22.5a1.5 1.5 0 0 1 1.5-1.5h4a1.5 1.5 0 0 1 0 3h-4a1.5 1.5 0 0 1-1.5-1.5ZM30.5 28a1.5 1.5 0 0 0 0 3h4a1.5 1.5 0 0 0 0-3h-4ZM22 22.5a1.5 1.5 0 0 1 1.5-1.5h11a1.5 1.5 0 0 1 0 3h-11a1.5 1.5 0 0 1-1.5-1.5Z" clip-rule="evenodd"/></svg>
