<svg xmlns="http://www.w3.org/2000/svg" width="48" height="48" fill="currentColor" viewBox="0 0 48 48"><path fill-rule="evenodd" d="M6.56 4.44a1.5 1.5 0 1 0-2.12 2.12l3.088 3.09a10.499 10.499 0 0 0-2.384 3.083c-.616 1.21-.886 2.54-1.016 4.134C4 18.429 4 20.369 4 22.833v2.334c0 2.463 0 4.404.128 5.966.13 1.594.4 2.925 1.016 4.134a10.5 10.5 0 0 0 4.59 4.589c1.208.616 2.54.886 4.133 1.016 1.562.128 3.502.128 5.966.128h8.334c2.463 0 4.404 0 5.966-.128 1.437-.117 2.66-.348 3.773-.844l3.533 3.533a1.5 1.5 0 0 0 2.122-2.122l-37-37ZM13.5 28a1.5 1.5 0 0 0 0 3h11a1.5 1.5 0 0 0 0-3h-11ZM12 22.5a1.5 1.5 0 0 1 1.5-1.5h4a1.5 1.5 0 0 1 0 3h-4a1.5 1.5 0 0 1-1.5-1.5Z M34.5 24h-4.139l12.052 12.051c.158-.254.306-.516.443-.784.616-1.21.886-2.54 1.016-4.134.128-1.562.128-3.502.128-5.966v-2.334c0-2.463 0-4.404-.128-5.966-.13-1.594-.4-2.925-1.016-4.134a10.5 10.5 0 0 0-4.59-4.589c-1.208-.616-2.54-.886-4.133-1.016C32.571 7 30.63 7 28.167 7h-8.334c-2.463 0-4.404 0-5.966.128l-.347.03L27.36 21h7.14a1.5 1.5 0 0 1 0 3Z"/></svg>
