<svg xmlns="http://www.w3.org/2000/svg" width="48" height="48" fill="none" viewBox="0 0 48 48"><path fill="currentColor" d="m39.4717 34.0011.2315.0048v1.1693c0 1.0702.6295 1.7248 1.6375 1.7248C42.3749 36.9 43 36.3687 43 35.1964v-12.009C43 19.032 40.1352 17 35.5 17c-1.8871 0-3.2457.4023-4.3632 1.0487C29.75 18.95 29 19.95 29 21.35c0 .95.8 1.65 1.5 1.65s1.1-.2 1.5-.8c.9-1.4 2.022-2.2 3.5-2.2 2.522 0 4.1076 1 4.1076 3.2059V25H34.5c-4.3223 0-6.5 2.173-6.5 5.815C28 34.4569 30.3482 37 34.1406 37c2.4367 0 4.1769-1.1151 5.3311-2.9989Zm-8.2217-3.26C31.25 28.9 32.6 28 34.8002 28h4.8074v1.8546c0 2.3579-2.0164 4.1466-4.6059 4.1466-2.2838 0-3.7517-1.3228-3.7517-3.2601ZM6.696 36.9969c1.045 0 1.5546-.6304 1.9143-1.7385L10.6841 29h9.6114l2.0781 6.2584C22.7334 36.348 23.2481 37 24.2858 37 25.4056 37 26 36.3372 26 35.4692c0-.3509-.0812-.8388-.2327-1.2451l-8.1589-22.2204C17.1351 10.7109 16.8718 10 15.5003 10c-1.338 0-1.6558.6973-2.1291 1.9901L5.2447 34.2106c-.1515.4432-.2447.9077-.2447 1.277 0 .8496.6034 1.5093 1.696 1.5093ZM11.6658 26l3.7587-11.4854h.1325L19.3137 26h-7.6478Z"/></svg>
