<svg xmlns="http://www.w3.org/2000/svg" width="48" height="48" fill="none" viewBox="0 0 48 48"><rect width="48" height="48" fill="url(#a)" rx="24"/><path fill="#fff" d="M23.042 12.136v3.853c0 4.972 4.042 9.003 9.03 9.003h4.678c-1.266 4.635-6.028 8.082-11.71 8.082-1.186 0-2.332-.15-3.415-.43a24.087 24.087 0 0 1-3.803 2.664c-.231.131-.5.271-.805.421l-.318.153a1.217 1.217 0 0 1-1.609-.546 1.153 1.153 0 0 1-.034-.95c.19-.462.34-.866.451-1.213a22.92 22.92 0 0 0 .81-3.377C14.26 27.904 13 25.347 13 22.533c0-5.226 4.343-9.564 10.042-10.397Z M25.048 12v3.989c0 3.867 3.145 7.002 7.023 7.002H37L25.048 12Z"/><defs><linearGradient id="a" x1="0" x2="49.256" y1="0" y2="1.326" gradientUnits="userSpaceOnUse"><stop stop-color="#70B2FF"/><stop offset="1" stop-color="#5C9CE6"/></linearGradient></defs></svg>
