<svg xmlns="http://www.w3.org/2000/svg" width="48" height="48" fill="none" viewBox="0 0 48 48"><path fill="url(#a)" fill-rule="evenodd" d="M24 48c13.255 0 24-10.745 24-24S37.255 0 24 0 0 10.745 0 24s10.745 24 24 24" clip-rule="evenodd"/><path fill="#fff" d="M32.5 20.5c0-1.934-1.566-3.5-3.5-3.5a3.5 3.5 0 0 0-3.5 3.5c0 1.934 1.566 3.5 3.5 3.5s3.5-1.566 3.5-3.5m-3.5 5c2.47 0 7 .857 7 4.286 0 1.5-.412 1.714-1.235 1.714l-7.01.001q.244-.732.245-1.715c0-1.69-.628-3.01-1.67-3.994A12.8 12.8 0 0 1 29 25.5m-10 0c2.47 0 7 .857 7 4.286 0 1.5-.412 1.714-1.235 1.714h-11.53c-.823 0-1.235-.214-1.235-1.714 0-3.429 4.53-4.286 7-4.286m0-8.5c1.934 0 3.5 1.566 3.5 3.5S20.934 24 19 24a3.5 3.5 0 0 1-3.5-3.5c0-1.934 1.566-3.5 3.5-3.5"/><defs><linearGradient id="a" x1="0" x2="48" y1="0" y2="48" gradientUnits="userSpaceOnUse"><stop stop-color="#6cf"/><stop offset="1" stop-color="#3f8ae0"/></linearGradient></defs></svg>