<svg xmlns="http://www.w3.org/2000/svg" width="48" height="48" fill="none" viewBox="0 0 48 48">
  <path fill="url(#a)" fill-rule="evenodd" d="M24 48c13.255 0 24-10.745 24-24S37.255 0 24 0 0 10.745 0 24s10.745 24 24 24Z" clip-rule="evenodd"/>
  <path fill="#fff" d="M32.5 20c0-1.934-1.566-3.5-3.5-3.5a3.499 3.499 0 0 0-3.5 3.5c0 1.934 1.566 3.5 3.5 3.5s3.5-1.566 3.5-3.5ZM29 25c2.47 0 7 .857 7 4.286 0 1.5-.412 1.714-1.235 1.714l-7.01.001c.162-.488.245-1.06.245-1.715 0-1.69-.628-3.01-1.67-3.994A12.754 12.754 0 0 1 29 25Zm-10 0c2.47 0 7 .857 7 4.286 0 1.5-.412 1.714-1.235 1.714h-11.53C12.412 31 12 30.786 12 29.286 12 25.857 16.53 25 19 25Zm0-8.5c1.934 0 3.5 1.566 3.5 3.5s-1.566 3.5-3.5 3.5a3.499 3.499 0 0 1-3.5-3.5c0-1.934 1.566-3.5 3.5-3.5Z"/>
  <defs>
    <linearGradient id="a" x1="-24" x2="24" y1="24" y2="72" gradientUnits="userSpaceOnUse">
      <stop stop-color="#C48AFF"/>
      <stop offset="1" stop-color="#AA65F0"/>
    </linearGradient>
  </defs>
</svg>
