<svg xmlns="http://www.w3.org/2000/svg" width="48" height="48" fill="currentColor" viewBox="0 0 48 48"><path d="M4 24.471v-.942c0-1.96 0-2.94.381-3.69a3.5 3.5 0 0 1 1.53-1.529c.749-.381 1.729-.381 3.689-.381h2.733c.025 0 .037 0 .049-.003a.1.1 0 0 0 .029-.012.227.227 0 0 0 .036-.033L21.9 8.315A4.426 4.426 0 0 1 25.05 7 2.951 2.951 0 0 1 28 9.951V38.05A2.951 2.951 0 0 1 25.049 41a4.426 4.426 0 0 1-3.149-1.315l-9.453-9.566a.227.227 0 0 0-.036-.033.1.1 0 0 0-.03-.012c-.01-.003-.023-.003-.048-.003H9.6c-1.96 0-2.94 0-3.689-.381a3.5 3.5 0 0 1-1.53-1.53C4 27.412 4 26.432 4 24.471Zm32.372-11.96a1.5 1.5 0 0 1 2.117-.139C41.818 15.29 44 19.111 44 24s-2.182 8.71-5.511 11.628a1.5 1.5 0 1 1-1.978-2.256C39.315 30.915 41 27.872 41 24s-1.685-6.915-4.489-9.372a1.5 1.5 0 0 1-.139-2.117Z M33.365 17.275a1.5 1.5 0 1 0-1.73 2.45C33.123 20.776 34 22.33 34 24c0 1.671-.877 3.224-2.365 4.275a1.5 1.5 0 1 0 1.73 2.45C35.535 29.194 37 26.78 37 24c0-2.779-1.465-5.194-3.635-6.725Z"/></svg>
