<svg xmlns="http://www.w3.org/2000/svg" width="20" height="20" fill="currentColor" viewBox="0 0 20 20"><path fill-rule="evenodd" d="M2 6.667c0-1.555 0-2.332.281-2.935a3 3 0 0 1 1.451-1.45C4.335 2 5.112 2 6.667 2h6.666c1.555 0 2.332 0 2.935.281a3 3 0 0 1 1.45 1.451C18 4.335 18 5.112 18 6.667c0 .777 0 1.166-.14 1.467a1.5 1.5 0 0 1-.726.725C16.832 9 16.444 9 15.667 9H4.333c-.777 0-1.166 0-1.467-.14a1.5 1.5 0 0 1-.725-.726C2 7.833 2 7.444 2 6.667Zm0 6.666c0-.777 0-1.165.14-1.467a1.5 1.5 0 0 1 .726-.726c.301-.14.69-.14 1.467-.14H6.6c.84 0 1.26 0 1.581.164a1.5 1.5 0 0 1 .656.655c.163.32.163.74.163 1.581v2.267c0 .777 0 1.165-.14 1.467a1.5 1.5 0 0 1-.726.726c-.301.14-.69.14-1.467.14-1.555 0-2.332 0-2.935-.281a3 3 0 0 1-1.45-1.451C2 15.665 2 14.888 2 13.333Zm9.164-1.514c-.164.32-.164.74-.164 1.581v2.267c0 .777 0 1.165.14 1.467.15.32.406.576.726.726.302.14.69.14 1.467.14 1.555 0 2.332 0 2.935-.281a3 3 0 0 0 1.45-1.451c.282-.603.282-1.38.282-2.935 0-.777 0-1.165-.14-1.467a1.5 1.5 0 0 0-.726-.726c-.302-.14-.69-.14-1.467-.14H13.4c-.84 0-1.26 0-1.581.164a1.5 1.5 0 0 0-.655.655Z" clip-rule="evenodd"/><path d="M2 6.667c0-1.555 0-2.332.281-2.935a3 3 0 0 1 1.451-1.45C4.335 2 5.112 2 6.667 2h6.666c1.555 0 2.332 0 2.935.281a3 3 0 0 1 1.45 1.451C18 4.335 18 5.112 18 6.667c0 .777 0 1.166-.14 1.467a1.5 1.5 0 0 1-.726.725C16.832 9 16.444 9 15.667 9H4.333c-.777 0-1.166 0-1.467-.14a1.5 1.5 0 0 1-.725-.726C2 7.833 2 7.444 2 6.667Zm0 6.666c0-.777 0-1.165.14-1.467a1.5 1.5 0 0 1 .726-.726c.301-.14.69-.14 1.467-.14H6.6c.84 0 1.26 0 1.581.164a1.5 1.5 0 0 1 .656.655c.163.32.163.74.163 1.581v2.267c0 .777 0 1.165-.14 1.467a1.5 1.5 0 0 1-.726.726c-.301.14-.69.14-1.467.14-1.555 0-2.332 0-2.935-.281a3 3 0 0 1-1.45-1.451C2 15.665 2 14.888 2 13.333Zm9.164-1.514c-.164.32-.164.74-.164 1.581v2.267c0 .777 0 1.165.14 1.467.15.32.406.576.726.726.302.14.69.14 1.467.14 1.555 0 2.332 0 2.935-.281a3 3 0 0 0 1.45-1.451c.282-.603.282-1.38.282-2.935 0-.777 0-1.165-.14-1.467a1.5 1.5 0 0 0-.726-.726c-.302-.14-.69-.14-1.467-.14H13.4c-.84 0-1.26 0-1.581.164a1.5 1.5 0 0 0-.655.655Z"/></svg>
