<svg xmlns="http://www.w3.org/2000/svg" width="20" height="20" fill="currentColor" viewBox="0 0 20 20"><path fill-rule="evenodd" d="M2.281 3.732C2 4.335 2 5.112 2 6.667c0 .777 0 1.166.14 1.467a1.5 1.5 0 0 0 .726.725C3.167 9 3.556 9 4.333 9H6.6c.84 0 1.26 0 1.581-.163a1.5 1.5 0 0 0 .656-.656C9 7.861 9 7.441 9 6.6V4.333c0-.777 0-1.166-.14-1.467a1.5 1.5 0 0 0-.726-.725C7.833 2 7.444 2 6.667 2c-1.555 0-2.332 0-2.935.281a3 3 0 0 0-1.45 1.451Zm-.14 8.134C2 12.168 2 12.556 2 13.333c0 1.555 0 2.332.281 2.935a3 3 0 0 0 1.451 1.45C4.335 18 5.112 18 6.667 18c.777 0 1.166 0 1.467-.14a1.5 1.5 0 0 0 .725-.726C9 16.832 9 16.444 9 15.667V13.4c0-.84 0-1.26-.163-1.581a1.5 1.5 0 0 0-.656-.655C7.861 11 7.441 11 6.6 11H4.333c-.777 0-1.166 0-1.467.14a1.5 1.5 0 0 0-.725.726ZM11 4.333c0-.777 0-1.166.14-1.467a1.5 1.5 0 0 1 .726-.725C12.168 2 12.556 2 13.333 2c1.555 0 2.332 0 2.935.281a3 3 0 0 1 1.45 1.451C18 4.335 18 5.112 18 6.667c0 .777 0 1.166-.14 1.467a1.5 1.5 0 0 1-.726.725C16.832 9 16.444 9 15.667 9H13.4c-.84 0-1.26 0-1.581-.163a1.5 1.5 0 0 1-.655-.656C11 7.861 11 7.441 11 6.6V4.333Zm.164 7.486c-.164.32-.164.74-.164 1.581v2.267c0 .777 0 1.165.14 1.467.15.32.406.576.726.726.302.14.69.14 1.467.14 1.555 0 2.332 0 2.935-.281a3 3 0 0 0 1.45-1.451c.282-.603.282-1.38.282-2.935 0-.777 0-1.165-.14-1.467a1.5 1.5 0 0 0-.726-.726c-.302-.14-.69-.14-1.467-.14H13.4c-.84 0-1.26 0-1.581.164a1.5 1.5 0 0 0-.655.655Z" clip-rule="evenodd"/><path d="M2.281 3.732C2 4.335 2 5.112 2 6.667c0 .777 0 1.166.14 1.467a1.5 1.5 0 0 0 .726.725C3.167 9 3.556 9 4.333 9H6.6c.84 0 1.26 0 1.581-.163a1.5 1.5 0 0 0 .656-.656C9 7.861 9 7.441 9 6.6V4.333c0-.777 0-1.166-.14-1.467a1.5 1.5 0 0 0-.726-.725C7.833 2 7.444 2 6.667 2c-1.555 0-2.332 0-2.935.281a3 3 0 0 0-1.45 1.451Zm-.141 8.134c-.14.302-.14.69-.14 1.467 0 1.555 0 2.332.281 2.935a3 3 0 0 0 1.451 1.45C4.335 18 5.112 18 6.667 18c.777 0 1.166 0 1.467-.14a1.5 1.5 0 0 0 .725-.726C9 16.832 9 16.444 9 15.667V13.4c0-.84 0-1.26-.163-1.581a1.5 1.5 0 0 0-.656-.655C7.861 11 7.441 11 6.6 11H4.333c-.777 0-1.166 0-1.467.14a1.5 1.5 0 0 0-.725.726ZM11 4.333c0-.777 0-1.166.14-1.467a1.5 1.5 0 0 1 .726-.725C12.168 2 12.556 2 13.333 2c1.555 0 2.332 0 2.935.281a3 3 0 0 1 1.45 1.451C18 4.335 18 5.112 18 6.667c0 .777 0 1.166-.14 1.467a1.5 1.5 0 0 1-.726.725C16.832 9 16.444 9 15.667 9H13.4c-.84 0-1.26 0-1.581-.163a1.5 1.5 0 0 1-.655-.656C11 7.861 11 7.441 11 6.6V4.333Zm.164 7.486c-.164.32-.164.74-.164 1.581v2.267c0 .777 0 1.165.14 1.467.15.32.406.576.726.726.302.14.69.14 1.467.14 1.555 0 2.332 0 2.935-.281a3 3 0 0 0 1.45-1.451c.282-.603.282-1.38.282-2.935 0-.777 0-1.165-.14-1.467a1.5 1.5 0 0 0-.726-.726c-.302-.14-.69-.14-1.467-.14H13.4c-.84 0-1.26 0-1.581.164a1.5 1.5 0 0 0-.655.655Z"/></svg>
