<svg fill="none" height="20" viewBox="0 0 20 20" width="20" xmlns="http://www.w3.org/2000/svg"><g fill="currentColor"><path d="m10 7.5c.8284 0 1.5-.67157 1.5-1.5s-.6716-1.5-1.5-1.5c-.82843 0-1.5.67157-1.5 1.5s.67157 1.5 1.5 1.5z"/><path d="m9.0014 9.94666c-.98995-.10636-1.93403-.36904-2.80636-.76318-.37748-.17056-.54522-.61482-.37467-.99229s.61481-.54521.99229-.37466c.97124.43883 2.04971.68347 3.18734.68347 1.1376 0 2.2161-.24464 3.1873-.68347.3775-.17055.8218-.00281.9923.37466.1706.37747.0028.82173-.3746.99229-.8724.39414-1.8164.65682-2.8064.76318.0009.01766.0014.03545.0014.05334 0 .5758.099 1.1473.2926 1.6895l.9137 2.5582c.1393.3901-.064.8193-.454.9586-.3901.1393-.8193-.064-.9586-.454l-.6995-1.9587c-.0316-.0885-.15677-.0885-.18837 0l-.69952 1.9587c-.13931.39-.56847.5933-.95856.454-.39008-.1393-.59337-.5685-.45405-.9586l.91366-2.5582c.19281-.5399.29178-1.1087.29264-1.6819v-.0076c0-.01789.00047-.03568.0014-.05334z"/><path clip-rule="evenodd" d="m18.5 10c0 4.6944-3.8056 8.5-8.5 8.5-4.69442 0-8.5-3.8056-8.5-8.5 0-4.69442 3.80558-8.5 8.5-8.5 4.6944 0 8.5 3.80558 8.5 8.5zm-1.5 0c0 3.866-3.134 7-7 7-3.86599 0-7-3.134-7-7 0-3.86599 3.13401-7 7-7 3.866 0 7 3.13401 7 7z" fill-rule="evenodd"/></g></svg>
