<svg fill="none" height="20" viewBox="0 0 20 20" width="20" xmlns="http://www.w3.org/2000/svg" xmlns:xlink="http://www.w3.org/1999/xlink"><linearGradient id="a" gradientUnits="userSpaceOnUse" x1="-10" x2="10" y1="10" y2="30"><stop offset="0" stop-color="#70b2ff"/><stop offset="1" stop-color="#5c9ce6"/></linearGradient><path d="m0 10c0-5.52285 4.47715-10 10-10 5.5228 0 10 4.47715 10 10 0 5.5228-4.4772 10-10 10-5.52285 0-10-4.4772-10-10z" fill="url(#a)"/><path clip-rule="evenodd" d="m9.191 11.695.46017-.2418c.21839-.1147.47923-.1147.69763 0l.4602.2418c.021.011.0425.0211.0644.0301.3833.157.8213-.0264.9784-.4096l.1971-.481c.0936-.2283.2934-.396.5344-.4485l.508-.1106c.0231-.005.046-.0112.0686-.0184.3946-.126.6123-.54807.4862-.94264l-.1582-.49516c-.075-.235-.0297-.4919.1212-.68705l.318-.4112c.0145-.01876.0281-.03819.0408-.05824.2212-.35018.1167-.81341-.2335-1.03464l-.4395-.27764c-.2085-.13176-.339-.35767-.3488-.60418l-.0207-.5194c-.001-.0237-.003-.04733-.0062-.07083-.0556-.41047-.4335-.69812-.8439-.6425l-.5151.0698c-.2445.03312-.4896-.0561-.6556-.23862l-.3497-.38457c-.016-.01754-.0328-.03432-.0503-.05027-.3065-.27869-.7808-.25618-1.05948.05027l-.34973.38457c-.16598.18252-.41111.27174-.65558.23862l-.51511-.0698c-.02349-.00319-.04713-.00526-.07082-.0062-.41389-.0165-.76279.30564-.77929.71953l-.02071.5194c-.00983.24651-.14025.47242-.34882.60418l-.43946.27764c-.02005.01266-.03949.02627-.05825.04078-.32766.2534-.38786.72444-.13446 1.0521l.318.4112c.15093.19515.19622.45205.12115.68705l-.15819.49516c-.00721.02259-.01335.04551-.0184.06868-.08812.40473.16854.80426.57327.89236l.50792.1106c.24106.0525.44089.2202.53443.4485l.19711.481c.00899.0219.01902.0434.03005.0644.19265.3667.64608.5078 1.01277.3151zm-1.82484.8306c.2628.2597.58685.4417.93539.5347.05618.015.13578.0306.2388.0469.05383.0086.09881.0456.11746.0969l.54512 1.4977c.01206.0331.01206.0694 0 .1026l-.50171 1.3784c-.04722.1297-.19068.1966-.32043.1494-.04638-.0169-.08672-.0471-.11595-.0869l-.65634-.8931c-.05162-.0703-.07508-.0921-.10508-.1118s-.06232-.0314-.09795-.0356c-.03562-.0043-.06763-.0026-.15233.018l-1.07691.2623c-.13415.0327-.26938-.0495-.30206-.1837-.01168-.0479-.00891-.0983.00797-.1447l.95921-2.6354.0694-.1906c.0281-.0781.11435-.1184.19236-.09.0279.0102.05218.0284.06975.0523.0742.1011.13863.1786.1933.2326zm5.73034-.1751 1.0213 2.8062c.0473.1298-.0196.2732-.1494.3205-.0463.0169-.0967.0196-.1446.0079l-1.077-.2623c-.0846-.0206-.1167-.0223-.1523-.018-.0356.0042-.0679.0159-.0979.0356s-.0535.0415-.1051.1118l-.6563.8931c-.0818.1113-.2383.1352-.3495.0535-.0398-.0293-.07-.0696-.0869-.116l-1.0937-3.0049c-.0283-.0778.0119-.1638.0897-.1921.0367-.0134.0773-.0119.113.0042.0218.0099.0355.0158.041.0178.8563.3079 1.793.024 2.3424-.656.0118-.0146.0246-.0314.0384-.0504.0487-.0672.1427-.0819.2098-.033.0241.0175.0424.0419.0527.07z" fill="#fff" fill-rule="evenodd"/></svg>
