<svg xmlns="http://www.w3.org/2000/svg" width="20" height="20" fill="none" viewBox="0 0 20 20"><path fill="url(#a)" d="M0 10C0 4.4771 4.4771 0 10 0c5.5228 0 10 4.4771 10 10 0 5.5228-4.4772 10-10 10-5.5229 0-10-4.4772-10-10Z"/><path fill="#fff" d="M10 4.5c.5523 0 1 .4477 1 1V9h3.5c.5523 0 1 .4477 1 1s-.4477 1-1 1H11v3.5c0 .5523-.4477 1-1 1s-1-.4477-1-1V11H5.5c-.5523 0-1-.4477-1-1s.4477-1 1-1H9V5.5c0-.5523.4477-1 1-1Z"/><defs><linearGradient id="a" x1="-10" x2="10" y1="10" y2="30" gradientUnits="userSpaceOnUse"><stop stop-color="#50C750"/><stop offset="1" stop-color="#32B332"/></linearGradient></defs></svg>
