<svg width="20" height="20" fill="none" xmlns="http://www.w3.org/2000/svg"><g clip-path="url(#clip0)"><path fill-rule="evenodd" clip-rule="evenodd" d="M17.071 2.929C13.166-.976 6.834-.976 2.93 2.929c-3.905 3.905-3.905 10.237 0 14.142 3.905 3.905 10.237 3.905 14.142 0 3.905-3.905 3.905-10.237 0-14.142zM5.757 9a1 1 0 100 2H9v3.243a1 1 0 102 0V11h3.243a1 1 0 100-2H11V5.757a1 1 0 10-2 0V9H5.757z" fill="currentColor"/></g><defs><clipPath id="clip0"><path fill="#fff" d="M0 0h20v20H0z"/></clipPath></defs></svg>
