<svg fill="none" height="20" viewBox="0 0 20 20" width="20" xmlns="http://www.w3.org/2000/svg"><path clip-rule="evenodd" d="m18 5.20636c0-1.76723-1.9439-2.84463-3.4425-1.908l-3.5226 2.20162h-5.0349c-2.20914 0-4 1.79086-4 4 0 2.06062 1.55809 3.75722 3.5604 3.97612l.28018 1.9613c.14859 1.04 1.03934 1.8126 2.08997 1.8126 1.28475 0 2.27165-1.1379 2.08995-2.4098l-.19146-1.3402h1.20586l3.5226 2.2016c1.4986.9367 3.4425-.1407 3.4425-1.908zm-9.68619 8.29364h-1.23477l.24647 1.7252c.04301.3011.30088.5248.60504.5248.37193 0 .65763-.3294.60503-.6976zm-2.31381-6.50002h4.5v5.00002h-4.5c-1.38071 0-2.5-1.1193-2.5-2.50002 0-1.38071 1.11929-2.5 2.5-2.5zm9.3525 7.42962-3.3525-2.0953v-5.66863l3.3525-2.09531c.4995-.31221 1.1475.04692 1.1475.636v8.58724c0 .5891-.648.9482-1.1475.636z" fill="currentColor" fill-rule="evenodd"/></svg>
