<svg width="20" height="20" viewBox="0 0 20 20" fill="none" xmlns="http://www.w3.org/2000/svg"><path fill-rule="evenodd" clip-rule="evenodd" d="M16.806 3.965a.87.87 0 0 0-.67.12l-.006.005-3.632 2.307V12.6l3.638 2.306a.878.878 0 0 0 1.11-.125.942.942 0 0 0 .268-.664V4.875c0-.18-.05-.356-.144-.506a.896.896 0 0 0-.564-.404zm-5.808 8.563V6.463H5.477c-.814 0-1.552.335-2.09.884a3.057 3.057 0 0 0-.872 2.149c0 .842.334 1.6.872 2.15a2.921 2.921 0 0 0 2.09.882h5.521zm.96-7.565 3.365-2.138a2.37 2.37 0 0 1 1.814-.323 2.395 2.395 0 0 1 1.505 1.072c.243.39.372.841.372 1.3v9.243c0 .667-.266 1.274-.698 1.714a2.38 2.38 0 0 1-2.993.336l-3.373-2.139h-2.3l.187 1.043a2.434 2.434 0 0 1-.417 1.85 2.518 2.518 0 0 1-3.469.603 2.456 2.456 0 0 1-1.032-1.592l-.36-2a4.436 4.436 0 0 1-2.242-1.236 4.557 4.557 0 0 1-1.302-3.2c0-1.247.496-2.38 1.302-3.2a4.417 4.417 0 0 1 3.16-1.333h6.481zm-5.857 9.065.294 1.639a.956.956 0 0 0 .405.62A1.018 1.018 0 0 0 8.2 16.05a.933.933 0 0 0 .161-.712l-.235-1.309H6.101z" fill="currentColor"/></svg>
