<svg xmlns="http://www.w3.org/2000/svg" width="20" height="20" fill="currentColor" viewBox="0 0 20 20"><path d="M10 6.5a.75.75 0 0 1 .75.75v2.423l2.27.877a.75.75 0 1 1-.54 1.4l-2.75-1.063a.75.75 0 0 1-.48-.7V7.25A.75.75 0 0 1 10 6.5Z"/><path fill-rule="evenodd" d="M9.871 1c-.395 0-.736 0-1.017.023a2.29 2.29 0 0 0-.875.222 2.25 2.25 0 0 0-.984.984 2.29 2.29 0 0 0-.222.875c-.022.268-.023.591-.023.964a2.99 2.99 0 0 0-.975.286 3.25 3.25 0 0 0-1.42 1.42c-.2.391-.28.81-.318 1.273C4 7.494 4 8.045 4 8.719v2.562c0 .674 0 1.224.037 1.672.037.463.118.882.317 1.273a3.25 3.25 0 0 0 1.42 1.42c.306.155.628.239.976.286 0 .373.001.696.023.964.024.297.078.592.222.875.216.424.56.768.984.984.283.144.578.198.875.222.28.023.622.023 1.017.023h.258c.395 0 .736 0 1.017-.023a2.29 2.29 0 0 0 .875-.222 2.25 2.25 0 0 0 .984-.983c.144-.284.198-.58.222-.876.022-.268.023-.591.023-.964.348-.047.67-.13.976-.286a3.25 3.25 0 0 0 1.42-1.42c.199-.391.28-.81.317-1.273.037-.447.037-.998.037-1.671V9c.291-.002.458-.014.59-.082a.75.75 0 0 0 .328-.328C17 8.43 17 8.22 17 7.8v-.1c0-.42 0-.63-.082-.79a.75.75 0 0 0-.328-.328c-.148-.076-.339-.082-.7-.082a2.77 2.77 0 0 0-.244-.725 3.25 3.25 0 0 0-1.42-1.42 2.99 2.99 0 0 0-.976-.287c0-.373-.001-.696-.023-.964a2.29 2.29 0 0 0-.222-.875 2.25 2.25 0 0 0-.984-.984 2.29 2.29 0 0 0-.875-.222C10.866 1 10.524 1 10.13 1h-.26ZM8.268 16.774A10.441 10.441 0 0 1 8.25 16l.468.001h3.032c0 .349-.003.587-.018.774-.017.204-.045.28-.064.316a.75.75 0 0 1-.327.328c-.038.02-.113.047-.317.064-.212.017-.492.018-.924.018h-.2c-.432 0-.712 0-.924-.018-.204-.017-.28-.045-.316-.064a.75.75 0 0 1-.328-.328c-.02-.037-.047-.112-.064-.316ZM11.75 4.001c0-.35-.003-.588-.018-.775-.017-.204-.045-.28-.064-.316a.75.75 0 0 0-.327-.328c-.038-.02-.113-.047-.317-.064A12.753 12.753 0 0 0 10.1 2.5h-.2c-.432 0-.712 0-.924.018-.204.017-.28.045-.316.064a.75.75 0 0 0-.328.328c-.02.037-.047.112-.064.316-.015.187-.018.425-.018.775L8.719 4h3.031ZM7.17 5.53c-.371.03-.57.086-.714.16a1.75 1.75 0 0 0-.765.765c-.074.144-.13.343-.16.713-.03.38-.031.869-.031 1.581v2.5c0 .712 0 1.202.032 1.58.03.371.085.57.159.714.168.33.435.598.765.765.144.074.343.13.713.16.38.03.869.031 1.581.031h2.5c.712 0 1.202 0 1.58-.032.371-.03.57-.085.714-.159a1.75 1.75 0 0 0 .765-.764c.074-.145.13-.344.16-.714.03-.38.031-.869.031-1.581v-2.5c0-.712 0-1.202-.032-1.58-.03-.371-.085-.57-.159-.714a1.75 1.75 0 0 0-.764-.765c-.145-.074-.344-.13-.714-.16-.38-.03-.869-.031-1.581-.031h-2.5c-.712 0-1.202 0-1.58.032Z" clip-rule="evenodd"/></svg>
