<svg xmlns="http://www.w3.org/2000/svg" width="20" height="20" fill="currentColor" viewBox="0 0 20 20"><path d="M10.75 12.44V9.75a.75.75 0 0 0-1.5 0v2.69l-.97-.97a.75.75 0 0 0-1.06 1.06l2.25 2.25a.75.75 0 0 0 1.06 0l2.25-2.25a.75.75 0 1 0-1.06-1.06l-.97.97Z"/><path fill-rule="evenodd" d="M5.42 2c-.535 0-.98 0-1.345.03-.38.03-.736.098-1.073.27A2.75 2.75 0 0 0 1.8 3.502c-.172.337-.24.693-.27 1.073-.03.365-.03.81-.03 1.345v.05c0 .122 0 .255.01.37.01.13.036.3.126.477.12.236.311.427.547.547.176.09.348.116.478.127.105.008.225.009.339.009v4.982c0 .813 0 1.469.043 2 .045.546.14 1.026.366 1.47a3.75 3.75 0 0 0 1.639 1.64c.444.226.924.32 1.47.365.531.043 1.187.043 2 .043h2.964c.813 0 1.469 0 2-.043.546-.045 1.026-.14 1.47-.366a3.75 3.75 0 0 0 1.64-1.639c.226-.444.32-.924.365-1.47.043-.531.043-1.187.043-2V7.5c.114 0 .234 0 .34-.01.13-.01.3-.036.477-.126a1.25 1.25 0 0 0 .547-.547c.09-.176.116-.348.127-.478.01-.114.009-.247.009-.369v-.05c0-.535 0-.98-.03-1.345-.03-.38-.098-.736-.27-1.073A2.75 2.75 0 0 0 17 2.3c-.338-.172-.694-.24-1.074-.27C15.56 2 15.115 2 14.58 2H5.42ZM15.5 7.5h-11v4.95c0 .853 0 1.447.038 1.91.037.453.107.714.207.912.216.423.56.767.984.983.197.1.458.17.912.207.462.037 1.057.038 1.909.038h2.9c.853 0 1.447 0 1.91-.038.453-.038.714-.107.912-.207a2.25 2.25 0 0 0 .983-.983c.1-.198.17-.459.207-.913.037-.462.038-1.056.038-1.909V7.5ZM17 6v-.05c0-.572 0-.957-.025-1.253-.023-.287-.065-.424-.111-.514a1.25 1.25 0 0 0-.547-.547c-.09-.046-.227-.088-.514-.111-.296-.024-.68-.025-1.253-.025h-9.1c-.572 0-.957 0-1.253.025-.287.023-.424.065-.514.111a1.25 1.25 0 0 0-.547.547c-.046.09-.088.227-.111.514C3 4.993 3 5.377 3 5.95V6h14Z" clip-rule="evenodd"/></svg>
