<svg xmlns="http://www.w3.org/2000/svg" width="20" height="20" fill="none" viewBox="0 0 20 20"><path fill="currentColor" fill-rule="evenodd" d="M16.2229 3.5005c-.1612.004-.3783.0277-.7328.0676l-6.1716.6946c-.6709.0756-1.1242.1273-1.4446.1917-.2119.0425-.2976.0795-.3212.0899a.2499.2499 0 0 0-.045.1783c.0159.0203.074.0935.2403.2312.2517.2084.6264.4684 1.1816.8525l1.1612.8033a.7498.7498 0 0 1 .1601 1.0837L3.5756 16.075c-.0658.0826-.0684.1385-.065.1721.0048.0458.0297.106.0837.1601.054.0541.1142.0791.16.084.0335.0035.0896.001.1724-.0645l8.4018-6.6476a.7512.7512 0 0 1 1.083.161l.7776 1.1223c.3841.5545.6443.9288.8527 1.1802.1378.1662.2109.2242.2312.24a.2504.2504 0 0 0 .1785-.0449c.0104-.0236.0474-.1092.0901-.3208.0645-.32.1163-.7728.1921-1.4429l.6968-6.1658c.04-.3543.0639-.5713.0679-.7323.0024-.0985-.0044-.141-.0069-.1526a.2498.2498 0 0 0-.1159-.116c-.0117-.0023-.0542-.0092-.1527-.0068Zm.1562.0077c.0005.0002 0 0 0 0Zm.1116.1116c-.0001-.0006 0 0 0 0Zm-.3044-1.6188c.2487-.006.5286.0128.8045.138.3859.1752.6951.4843.8703.8699.1252.2757.144.5555.1379.804-.0058.2351-.0379.5187-.0735.834l-.7043 6.2314c-.0706.625-.1292 1.1432-.2081 1.5348-.0738.3663-.1971.8185-.5381 1.1242a1.7522 1.7522 0 0 1-1.5827.398c-.4451-.108-.7679-.448-1.0065-.7358-.255-.3075-.552-.7363-.9103-1.2534l-.3426-.4946-7.7744 6.1512c-1.6323 1.2914-3.754-.8339-2.4574-2.4618l6.1756-7.7543-.5315-.3677c-.5176-.3581-.9469-.655-1.2548-.91-.288-.2384-.6284-.561-.7364-1.006a1.749 1.749 0 0 1 .3985-1.5816c.306-.3408.7588-.4638 1.1255-.5375.392-.0788.9108-.1372 1.5364-.2076l6.2373-.702c.3155-.0355.5993-.0675.8346-.0732Z" clip-rule="evenodd"/></svg>
