<svg xmlns="http://www.w3.org/2000/svg" width="20" height="20" fill="none" viewBox="0 0 20 20"><path fill="currentColor" d="M7.21 4.3424a.75.75 0 0 0-.92-1.1849l-4.7469 3.685c-2.0577 1.6016-2.057 4.713.001 6.3143L6.29 16.8423a.75.75 0 1 0 .92-1.1847l-4.7458-3.6855c-1.2855-1.0009-1.2851-2.945.0003-3.9459L7.21 4.3424Z"/><path fill="currentColor" fill-rule="evenodd" d="M11.7399 4.7526c0-.2088-.2392-.3245-.4024-.1975l-6.741 5.2467a.2503.2503 0 0 0 0 .3949l6.7462 5.2493c.1632.127.4024.0113.4024-.1975v-3.1356a.75.75 0 0 1 .75-.75c2.4561 0 4.3419.9132 5.8321 2.197-.2661-1.4542-.8245-2.5771-1.5706-3.426-1.0654-1.212-2.5805-1.9414-4.3845-2.2284a.75.75 0 0 1-.6322-.7406V4.7526Zm-1.3237-1.3812c1.1498-.8949 2.8237-.0743 2.8237 1.3812v1.7903c1.8099.3936 3.4344 1.2254 4.6433 2.6007C19.2348 10.6812 20 12.8223 20 15.588a.75.75 0 0 1-1.3291.4766c-1.3618-1.6549-3.0585-2.9416-5.4258-3.1667v2.3506c0 1.4554-1.6737 2.276-2.8235 1.3813l-6.7462-5.2492c-.9004-.7006-.9005-2.0619-.0002-2.7625l6.741-5.2467Z" clip-rule="evenodd"/></svg>
