<svg xmlns="http://www.w3.org/2000/svg" width="20" height="20" fill="none" viewBox="0 0 20 20"><path fill="currentColor" fill-rule="evenodd" d="M3.3215 7.198a1.8341 1.8341 0 0 0-1.561 1.2325 4.8565 4.8565 0 0 0 .0007 3.1406 1.835 1.835 0 0 0 1.5424 1.2314l5.7039.6054v1.4522c-.0001.2477-.0002.5245.0204.7549.0183.2043.071.7173.4418 1.1634a1.9995 1.9995 0 0 0 1.6363.7192c.5805-.0287.9944-.3381 1.1569-.4629.1835-.1409.387-.3285.5688-.4961l.0335-.0309 3.9832-3.669c.3012-.2775.5919-.5452.8175-.7912.2458-.2679.514-.6132.6716-1.0727a3.0046 3.0046 0 0 0 0-1.9496c-.1576-.4595-.4258-.8048-.6716-1.0727-.2256-.246-.5163-.5137-.8176-.7912l-3.9831-3.669-.0335-.0309c-.1818-.1676-.3853-.3552-.5688-.496-.1625-.125-.5764-.4343-1.1569-.463a1.9996 1.9996 0 0 0-1.6363.7192c-.3708.446-.4235.9591-.4418 1.1634-.0206.2304-.0205.5072-.0204.755v1.5143l-5.686.5435Zm7.186-2.0126c0-.5772 0-.8657.1157-1.005a.4998.4998 0 0 1 .4089-.1798c.1807.009.3927.2043.8169.595l3.9459 3.6348c.6668.6142 1.0002.9213 1.1237 1.2814a1.505 1.505 0 0 1 0 .9764c-.1235.3601-.4569.6672-1.1237 1.2814l-3.9459 3.6348c-.4242.3907-.6362.5861-.8169.595a.4998.4998 0 0 1-.4089-.1798c-.1157-.1392-.1157-.4278-.1157-1.005v-2.0349c0-.2549 0-.3823-.0475-.4835a.5008.5008 0 0 0-.1932-.2151c-.0955-.0581-.222-.0715-.475-.0983l-6.3299-.6719a.3352.3352 0 0 1-.2814-.225 3.3568 3.3568 0 0 1-.0006-2.17.3342.3342 0 0 1 .2843-.2248l6.3193-.604c.2557-.0245.3835-.0367.4801-.0944a.501.501 0 0 0 .1957-.2156c.0482-.1018.0482-.2305.0482-.4878V5.1854Z" clip-rule="evenodd"/></svg>
