<svg xmlns="http://www.w3.org/2000/svg" width="20" height="20" fill="none" viewBox="0 0 20 20"><path fill="currentColor" fill-rule="evenodd" d="M11.546 2.6637c0-.9786 1.1469-1.5177 1.9119-.8994l3.4753 2.8096c.3564.2881.5668.7278.5668 1.186a1.5189 1.5189 0 0 1-.5664 1.1678L13.458 9.7374c-.765.6183-1.912.0793-1.912-.8993v-1.001l-3.5192-.4598a.933.933 0 0 1-.1984-.0483c-.2733-.0913-.4414-.2824-.5136-.38-.111-.1503-.1724-.309-.208-.4229C7.032 6.2874 7 6.0135 7 5.751c0-.2625.032-.5363.1066-.775.0356-.1139.097-.2726.208-.423.0724-.098.2414-.29.5164-.381a.933.933 0 0 1 .1958-.0474l3.5192-.4598v-1.001Zm-5.0004 7.5997c.7657-.6183 1.9135-.0792 1.9135.8994v1.1315c1.8229.286 4.3587 1.4103 5.4783 4.27.1513.3864.0217.8252-.316 1.0701a.9331.9331 0 0 1-1.126-.0242c-.9854-.7819-2.0668-1.1608-4.0363-1.2476v.9745c0 .9786-1.1478 1.5177-1.9135.8994L3.0673 15.427c-.3564-.2882-.5673-.7279-.5673-1.1863a1.518 1.518 0 0 1 .5673-1.1677l3.4783-2.8096Z" clip-rule="evenodd"/></svg>
