<svg xmlns="http://www.w3.org/2000/svg" width="20" height="20" fill="currentColor" viewBox="0 0 20 20"><path fill-rule="evenodd" d="M2.463 4.32C2 5.23 2 6.42 2 8.8v2.4c0 2.38 0 3.57.463 4.48a4.25 4.25 0 0 0 1.858 1.857C5.23 18 6.42 18 8.8 18h2.4c2.38 0 3.57 0 4.48-.463a4.251 4.251 0 0 0 1.857-1.857c.463-.91.463-2.1.463-4.48V8.8c0-2.38 0-3.57-.463-4.48a4.25 4.25 0 0 0-1.857-1.857C14.77 2 13.58 2 11.2 2H8.8c-2.38 0-3.57 0-4.48.463a4.25 4.25 0 0 0-1.857 1.858Zm1.535 1.428a.75.75 0 0 1 .75-.75h4a.75.75 0 1 1 0 1.5H7.502v3.752a.75.75 0 0 1-1.5 0V6.498H4.748a.75.75 0 0 1-.75-.75Zm7.75.252a.75.75 0 0 0 0 1.5h2.497a.75.75 0 0 0 0-1.5h-2.497ZM9.5 10.25a.75.75 0 0 1 .751-.75l4.001.003a.75.75 0 1 1 0 1.5l-4.002-.002a.75.75 0 0 1-.75-.751Zm-2.75 2.752a.75.75 0 0 0 0 1.5h7.5a.75.75 0 0 0 0-1.5h-7.5Z" clip-rule="evenodd"/></svg>
