<svg xmlns="http://www.w3.org/2000/svg" width="20" height="20" fill="currentColor" viewBox="0 0 20 20"><path fill-rule="evenodd" d="m6.47 3.953 4.205 4.204 1.123-1.123A8.472 8.472 0 0 1 9.882 3a6.961 6.961 0 0 0-3.411.952Zm4.975-.804a6.975 6.975 0 0 0 1.417 2.82l1.47-1.469a6.968 6.968 0 0 0-2.887-1.35Zm3.958 2.4-1.465 1.466a6.968 6.968 0 0 0 2.867 1.336 6.976 6.976 0 0 0-1.402-2.801ZM17 9.91a8.466 8.466 0 0 1-4.128-1.827l-1.136 1.136 4.312 4.311A6.966 6.966 0 0 0 17 9.91Zm-1.855 4.839-4.47-4.47-1.206 1.207a8.468 8.468 0 0 1 2.03 5.354 6.99 6.99 0 0 0 3.646-2.091ZM10 17c0-1.69-.599-3.24-1.597-4.45L5.55 15.402A6.969 6.969 0 0 0 10 17Zm-5.5-2.669 2.831-2.83A6.967 6.967 0 0 0 3.001 10H3c0 1.636.56 3.14 1.5 4.331Zm-1.34-5.83a8.466 8.466 0 0 1 5.238 1.933l1.216-1.216-4.362-4.362a6.991 6.991 0 0 0-2.091 3.645Zm1.681-5.257A8.466 8.466 0 0 1 10.59 1.52a8.474 8.474 0 0 1 5.362 2.41A8.477 8.477 0 0 1 18.5 10c0 1.939-.65 3.728-1.744 5.159A8.49 8.49 0 0 1 10 18.5a8.477 8.477 0 0 1-6.07-2.549 8.475 8.475 0 0 1-2.394-6.737 8.49 8.49 0 0 1 3.305-5.97Z" clip-rule="evenodd"/></svg>
