<svg xmlns="http://www.w3.org/2000/svg" width="20" height="20" fill="none" viewBox="0 0 20 20"><path fill="currentColor" fill-rule="evenodd" d="M13.252 11.504c2.0722 0 3.752-1.6798 3.752-3.752C17.004 5.6798 15.3242 4 13.252 4 11.1798 4 9.5 5.6798 9.5 7.752c0 2.0722 1.6798 3.752 3.752 3.752Zm5.252-3.752c0 2.6467-1.9577 4.8361-4.504 5.1992V16h1.75a.75.75 0 0 1 0 1.5h-5a.75.75 0 0 1 0-1.5h1.75v-3.0494C9.9556 12.5858 8 10.3973 8 7.752 8 4.8514 10.3514 2.5 13.252 2.5s5.252 2.3514 5.252 5.252ZM5.8944 2.6123a.75.75 0 0 1 .3557.638V8a.75.75 0 0 1 .75.75v6c0 1.5188-1.2313 2.75-2.75 2.75-1.5188 0-2.75-1.2312-2.75-2.75v-6A.75.75 0 0 1 2.25 8V4.5a.75.75 0 0 1 .4146-.6708l2.5-1.2498a.75.75 0 0 1 .7297.0329Zm-2.8943 7.142V14.75c0 .6904.5596 1.25 1.25 1.25.6903 0 1.25-.5596 1.25-1.25V9.7543H3Zm1.75-5.2906V8h-1V4.9636l1-.5Z" clip-rule="evenodd"/></svg>
