<svg fill="none" height="20" viewBox="0 0 20 20" width="20" xmlns="http://www.w3.org/2000/svg"><path d="m12.5371 6.40516 1.1821-1.1847c.2927-.29314.7675-.29354 1.0607-.0009.2687.26826.2914.68964.0679.9838l-.067.07686-1.1833 1.1859c2.0244 2.55148 1.8573 6.27168-.5013 8.63028-2.5384 2.5384-6.65399 2.5384-9.19239 0-2.53841-2.5384-2.53841-6.65397 0-9.19238 2.35951-2.35952 6.08173-2.5258 8.63329-.49886zm-7.57263 1.55952c-1.95263 1.95262-1.95263 5.11842 0 7.07102 1.95262 1.9527 5.11843 1.9527 7.07103 0 1.9527-1.9526 1.9527-5.1184 0-7.07102-1.9526-1.95262-5.11841-1.95262-7.07103 0zm11.92403-2.95167.0987.02569 1.5.5c.3929.13099.6053.55573.4743.94868-.1201.36022-.487.56868-.85.50003l-.0987-.02568-1.5-.5c-.3929-.13099-.6053-.55573-.4743-.94869.1201-.36021.487-.56868.85-.50003zm.8762-2.80593c.275.26185.3077.68257.0912.98192l-.0653.07843-1.0475 1.1c-.2856.29996-.7604.31156-1.0603.02591-.275-.26184-.3076-.68257-.0912-.98192l.0653-.07842 1.0475-1.1c.2856-.29996.7604-.31157 1.0603-.02592zm-3.3419-.78842.0387.09438.5 1.5c.131.39296-.0814.8177-.4743.94871-.3602.12005-.7472-.0484-.91-.37998l-.0387-.09439-.5-1.5c-.131-.39295.0814-.81769.4743-.9487.3602-.120049.7472.04839.91.37998z" fill="currentColor"/></svg>
