<svg xmlns="http://www.w3.org/2000/svg" width="20" height="20" fill="currentColor" viewBox="0 0 20 20"><path fill-rule="evenodd" d="M3.28 1.22a.75.75 0 0 0-1.06 1.06l1.348 1.348a4.252 4.252 0 0 0-.105.193c-.253.497-.361 1.04-.413 1.67C3 6.103 3 6.864 3 7.816v6.57c0 .777 0 1.41.044 1.9.044.484.14.981.452 1.37a2.25 2.25 0 0 0 1.773.84c.498-.004.943-.245 1.345-.516.408-.276.899-.677 1.5-1.169l.842-.688c.279-.228.457-.373.602-.474a.824.824 0 0 1 .239-.133.75.75 0 0 1 .406 0 .843.843 0 0 1 .239.133c.145.101.323.246.602.474l.842.688c.601.491 1.092.893 1.5 1.169.402.271.847.512 1.345.516a2.25 2.25 0 0 0 1.773-.84c.18-.225.285-.48.351-.741l.865.864a.75.75 0 1 0 1.06-1.06L3.28 1.22Zm12.212 14.333L4.695 4.756c-.07.214-.12.483-.15.856-.044.546-.045 1.246-.045 2.238v6.5c0 .823 0 1.388.038 1.802.04.429.109.541.127.565a.75.75 0 0 0 .591.28c.03 0 .161-.018.518-.259.344-.233.782-.59 1.42-1.111l.832-.68c.254-.208.475-.389.671-.526a2.27 2.27 0 0 1 .694-.348 2.27 2.27 0 0 1 1.218 0c.264.075.485.202.694.348.196.137.417.318.67.526l.833.68c.638.52 1.076.878 1.42 1.111.356.241.488.259.518.259a.75.75 0 0 0 .59-.28c.01-.012.053-.073.09-.278a6.04 6.04 0 0 0 .068-.886Z" clip-rule="evenodd"/><path d="M10.65 3c.992 0 1.692 0 2.238.045.537.044.86.127 1.11.255A2.75 2.75 0 0 1 15.2 4.502c.128.25.21.573.255 1.11.044.546.045 1.246.045 2.238V11a.75.75 0 0 0 1.5 0V7.817c0-.952 0-1.713-.05-2.327-.052-.63-.16-1.172-.413-1.67a4.25 4.25 0 0 0-1.857-1.857c-.498-.253-1.04-.361-1.67-.413-.614-.05-1.375-.05-2.327-.05H7.5a.75.75 0 0 0 0 1.5h3.15Z"/></svg>
