<svg fill="none" height="20" viewBox="0 0 20 20" width="20" xmlns="http://www.w3.org/2000/svg"><path clip-rule="evenodd" d="m9.617 1.5h.766c1.0921-.00001 1.9576-.00001 2.6553.05699.7134.05828 1.317.17989 1.8682.46073.8937.4554 1.6204 1.18206 2.0758 2.07583.2808.55117.4024 1.15479.4607 1.86818.057.69762.057 1.56311.057 2.65525v6.22192c0 .7945 0 1.4426-.0451 1.9417-.0443.4905-.1412.9966-.4593 1.3877-.4384.5391-1.1013.8453-1.7959.8298-.504-.0113-.9522-.2655-1.3545-.5497-.4093-.2891-.9028-.7091-1.5079-1.2242l-1.2679-1.0791c-.2848-.2424-.4671-.3969-.6156-.5051-.1408-.1026-.207-.1296-.245-.1406-.1364-.0395-.28119-.0395-.41755 0-.03809.011-.10422.038-.2451.1406-.14849.1082-.33076.2627-.61559.5051l-1.26789 1.0791c-.60509.5151-1.0986.9351-1.50788 1.2242-.4023.2842-.85046.5384-1.35448.5497-.69464.0155-1.3575-.2907-1.7959-.8298-.3181-.3911-.415-.8972-.45933-1.3877-.0451-.4991-.04509-1.1471-.04508-1.9417v-6.2219c-.00001-1.09214-.00001-1.95764.05699-2.65527.05828-.71338.17989-1.31701.46073-1.86818.4554-.89377 1.18206-1.62043 2.07583-2.07583.55117-.28084 1.1548-.40245 1.86819-.46073.69762-.057 1.56312-.057 2.65526-.05699zm-2.53312 1.55201c-.62063.0507-1.00487.14708-1.30935.30222-.61152.31159-1.10871.80877-1.4203 1.4203-.15514.30447-.25152.68872-.30222 1.30935-.05143.62939-.05201 1.43364-.05201 2.56612v6.1508c0 .8419.00074 1.4215.03899 1.8448.03974.4397.11097.5539.12915.5763.14613.1796.36708.2817.59863.2766.0288-.0007.16192-.0204.52255-.2752.34714-.2452.78901-.6203 1.43012-1.166l1.25878-1.0714c.25924-.2206.48487-.4127.68485-.5584.21268-.1549.43937-.2902.71068-.3688.40909-.1186.84345-.1186 1.25255 0 .2713.0786.4979.2139.7106.3688.2.1457.4256.3377.6849.5584l1.2588 1.0714c.6411.5457 1.0829.9208 1.4301 1.166.3606.2548.4937.2745.5225.2752.2316.0051.4525-.097.5987-.2766.0181-.0224.0894-.1366.1291-.5763.0383-.4233.039-1.0029.039-1.8448v-6.1508c0-1.13248-.0006-1.93673-.052-2.56612-.0507-.62063-.1471-1.00488-.3022-1.30935-.3116-.61153-.8088-1.10871-1.4203-1.4203-.3045-.15514-.6888-.25152-1.3094-.30222-.6294-.05143-1.4336-.05201-2.5661-.05201h-.7c-1.13248 0-1.93673.00058-2.56612.05201z" fill="currentColor" fill-rule="evenodd"/></svg>
