<svg xmlns="http://www.w3.org/2000/svg" width="20" height="20" fill="currentColor" viewBox="0 0 20 20"><path fill-rule="evenodd" d="M9.317 1.5h1.366c.952 0 1.713 0 2.327.05.63.052 1.172.16 1.67.413a4.25 4.25 0 0 1 1.857 1.858c.253.497.361 1.04.413 1.67.05.613.05 1.374.05 2.326v6.57c0 .776 0 1.41-.044 1.9-.044.484-.14.981-.452 1.37a2.25 2.25 0 0 1-1.773.84c-.498-.004-.944-.245-1.345-.516-.408-.276-.899-.677-1.5-1.169l-.842-.688a11.217 11.217 0 0 0-.602-.474.824.824 0 0 0-.239-.133.75.75 0 0 0-.406 0 .824.824 0 0 0-.239.133c-.145.101-.323.246-.602.474l-.842.688c-.601.492-1.092.893-1.5 1.169-.402.271-.847.512-1.345.516a2.25 2.25 0 0 1-1.773-.84c-.312-.389-.408-.886-.452-1.37C3 15.798 3 15.165 3 14.388v-6.57c0-.952 0-1.713.05-2.327.052-.63.16-1.172.413-1.67a4.25 4.25 0 0 1 1.858-1.857c.497-.253 1.04-.361 1.67-.413.613-.05 1.374-.05 2.326-.05Z" clip-rule="evenodd"/></svg>
