<svg fill="none" height="20" viewBox="0 0 20 20" width="20" xmlns="http://www.w3.org/2000/svg" xmlns:xlink="http://www.w3.org/1999/xlink"><linearGradient id="a" gradientUnits="userSpaceOnUse" x1="-10" x2="10" y1="10" y2="30"><stop offset="0" stop-color="#70b2ff"/><stop offset="1" stop-color="#5c9ce6"/></linearGradient><path d="m0 10c0-5.52285 4.47715-10 10-10 5.5228 0 10 4.47715 10 10 0 5.5228-4.4772 10-10 10-5.52285 0-10-4.4772-10-10z" fill="url(#a)"/><path d="m5.2 8.59542c.02544 0 .05065.00485.07428.0143l4.57716 1.83088c.09537.0381.20176.0381.29716 0l4.5771-1.83088c.1026-.04102.219.00886.26.11142.0094.02362.0143.04883.0143.07428v4.43378c0 .1636-.0996.3106-.2514.3714l-4.6 1.84c-.0954.0381-.20179.0381-.29716 0l-4.6-1.84c-.15186-.0608-.25144-.2078-.25144-.3714v-4.43378c0-.11046.08954-.2.2-.2zm4.65144-4.03599c.09537-.03814.20176-.03814.29716 0l4.3872 1.75488c.0508.02033.0911.0606.1114.11142.041.10256-.0089.21895-.1114.25997l-4.3872 1.75489c-.0954.03814-.20179.03814-.29716 0l-4.3872-1.75489c-.05082-.02032-.09109-.06059-.11142-.11141-.04102-.10256.00886-.21895.11142-.25998z" fill="#fff"/></svg>
