<svg xmlns="http://www.w3.org/2000/svg" width="20" height="20" fill="none" viewBox="0 0 20 20"><path fill="currentColor" fill-rule="evenodd" d="M19 7.8712C19 4.9048 16.5952 2.5 13.6288 2.5c-1.2556 0-2.4032.4605-3.4142 1.3464L10 4.0428l-.2146-.1964C8.7744 2.9604 7.6268 2.5 6.3712 2.5 3.4048 2.5 1 4.9048 1 7.8712c0 2.8368 1.0815 4.2746 5.7024 7.8686l1.993 1.5501a2.125 2.125 0 0 0 2.6092 0l1.993-1.5501C17.9185 12.1458 19 10.708 19 7.8712Zm-8.2907-1.9864c.1702-.3989.2552-.5983.4395-.8213.1843-.223.2946-.2974.5151-.446C12.2787 4.2033 12.9324 4 13.6288 4 15.7668 4 17.5 5.7332 17.5 7.8712l-.0054.2985c-.0779 2.045-1.0272 3.2044-5.1179 6.3861l-1.8936 1.4728 1.1434-2.6664c.1196-.2788.2323-.5414.3025-.7727.0782-.2578.1262-.5436.0628-.8606-.0633-.3171-.2174-.5625-.3888-.7704-.1537-.1866-.3586-.3857-.5761-.5971l-.9595-.9326c-.25-.2431-.3932-.3837-.4874-.498-.0425-.0516-.0613-.082-.0696-.0974a.1083.1083 0 0 1-.0055-.0117l-.0004-.0013-.0002-.0013s-.0002-.005.0006-.013c.0017-.0174.0074-.0527.0266-.1166.0428-.1418.1206-.3268.2574-.6476l.9204-2.1571ZM9.268 5.4404C8.3927 4.4711 7.4313 4 6.3712 4 4.2332 4 2.5 5.7332 2.5 7.8712c0 2.2376.8378 3.3514 5.1233 6.6846l1.3942 1.0844 1.217-2.8379c.1378-.3212.216-.5064.2591-.6484.0194-.064.0252-.0993.0269-.1168.0007-.0081.0006-.013.0006-.013l-.0002-.0013-.0004-.0013s-.0017-.0046-.0055-.0118c-.0083-.0154-.0272-.0458-.0697-.0974-.0944-.1146-.2378-.2555-.4883-.499l-.9595-.9326c-.2171-.211-.4216-.4098-.575-.596-.1712-.2076-.3251-.4525-.3887-.769-.0635-.3165-.016-.6018.0616-.8594.0697-.231.1817-.4933.3005-.7718l.8721-2.044Z" clip-rule="evenodd"/></svg>
