<svg fill="none" height="20" viewBox="0 0 20 20" width="20" xmlns="http://www.w3.org/2000/svg"><path clip-rule="evenodd" d="m5.21967 2.21967c.29289-.29289.76777-.29289 1.06066 0l.99918.99918c.80227-.45748 1.73086-.71885 2.72049-.71885.9239 0 1.7946.22781 2.559.63033l.9107-.91066c.2929-.29289.7677-.29289 1.0606 0s.2929.76777 0 1.06066l-.737.73706c.578.55068 1.0362 1.2259 1.3318 1.98261h1.6249c.4142 0 .75.33579.75.75s-.3358.75-.75.75h-1.2724c.0148.16468.0224.33146.0224.5v1.5h2.25c.4142 0 .75.33579.75.75 0 .4142-.3358.75-.75.75h-2.25v1.25c0 .2544-.0173.5048-.0507.75h1.3007c.4142 0 .75.3358.75.75s-.3358.75-.75.75h-1.7298c-.8599 1.9158-2.7843 3.25-5.0202 3.25-2.23595 0-4.16027-1.3342-5.02021-3.25h-1.72979c-.41421 0-.75-.3358-.75-.75s.33579-.75.75-.75h1.30071c-.03344-.2452-.05071-.4956-.05071-.75v-1.25h-2.25c-.41421 0-.75-.3358-.75-.75 0-.41421.33579-.75.75-.75h2.25v-1.5c0-.16854.00758-.33532.02242-.5h-1.27242c-.41421 0-.75-.33579-.75-.75s.33579-.75.75-.75h1.62494c.2737-.70085.68702-1.3318 1.20576-1.85864l-.86103-.86103c-.29289-.29289-.29289-.76777 0-1.06066zm8.78033 10.03033v-4.25c0-2.20914-1.7909-4-4-4-2.20914 0-4 1.79086-4 4v4.25c0 2.2091 1.79086 4 4 4 2.2091 0 4-1.7909 4-4zm-5.5-4c0-.41421.33579-.75.75-.75h1.5c.4142 0 .75.33579.75.75s-.3358.75-.75.75h-1.5c-.41421 0-.75-.33579-.75-.75zm.75 3.25c-.41421 0-.75.3358-.75.75s.33579.75.75.75h1.5c.4142 0 .75-.3358.75-.75s-.3358-.75-.75-.75z" fill="currentColor" fill-rule="evenodd"/></svg>
