<svg fill="none" height="20" viewBox="0 0 20 20" width="20" xmlns="http://www.w3.org/2000/svg" xmlns:xlink="http://www.w3.org/1999/xlink"><linearGradient id="a" gradientUnits="userSpaceOnUse" x1="-10" x2="10" y1="10" y2="30"><stop offset="0" stop-color="#ff5263"/><stop offset="1" stop-color="#ff3347"/></linearGradient><path d="m0 10c0-5.52285 4.47715-10 10-10 5.5228 0 10 4.47715 10 10 0 5.5228-4.4772 10-10 10-5.52285 0-10-4.4772-10-10z" fill="url(#a)"/><path clip-rule="evenodd" d="m7.16747 4.08682c-.10592-.05665-.23194-.08682-.396-.08682h-.04294c-.16406 0-.29008.03017-.396.08682-.10593.05665-.18906.13978-.24571.24571-.05665.10592-.08682.23194-.08682.396l-.00064.35245c-.30343.05625-.51149.1412-.72042.25294-.4074.21788-.72714.53762-.94502.94502-.21789.40741-.33392.81152-.33392 1.92592v4.09024c0 1.1144.11603 1.5185.33392 1.926.21788.4074.53762.7271.94502.945.40741.2179.81152.3339 1.92592.3339h5.59024c1.1144 0 1.5185-.116 1.926-.3339.4074-.2179.7271-.5376.945-.945.2179-.4075.3339-.8116.3339-1.926v-4.09024c0-1.1144-.116-1.51851-.3339-1.92592-.2179-.4074-.5376-.72714-.945-.94502-.2087-.11162-.4166-.1965-.7194-.25275l-.0017-.35264c0-.16406-.0302-.29008-.0868-.396-.0567-.10593-.1398-.18906-.2457-.24571-.106-.05665-.232-.08682-.396-.08682h-.043c-.164 0-.29.03017-.396.08682-.1059.05665-.189.13978-.2457.24571-.0566.10592-.0868.23194-.0868.396v.27147l-5-.001v-.27047c0-.16406-.03017-.29008-.08682-.396-.05665-.10593-.13978-.18906-.24571-.24571zm-.83421 3.91318h7.33344c.2898 0 .3948.03017.5008.08682.1059.05665.189.13978.2457.24571.0566.10592.0868.21099.0868.50073v3.88484l-.0022.1544c-.01.3317-.0551.4733-.1314.6159-.0871.163-.215.2909-.378.378-.1629.0872-.3246.1336-.7703.1336h-6.43616l-.1544-.0022c-.33179-.01-.47337-.0551-.61596-.1314-.16297-.0871-.29086-.215-.37801-.378-.08716-.1629-.13357-.3246-.13357-.7703v-3.88484l.00184-.11341c.00732-.20637.03642-.29653.08498-.38732.05665-.10593.13978-.18906.24571-.24571.10592-.05665.21099-.08682.50073-.08682zm5.77414 1.5h-.2148c-.2517 0-.3867.03481-.5089.10017-.1222.06537-.2182.16129-.2835.28351-.0654.12222-.1002.25722-.1002.50892v.2148c0 .2517.0348.3867.1002.5089.0653.1222.1613.2182.2835.2835.1222.0654.2572.1002.5089.1002h.2148c.2517 0 .3867-.0348.5089-.1002.1222-.0653.2182-.1613.2835-.2835.0654-.1222.1002-.2572.1002-.5089v-.2148c0-.2517-.0348-.3867-.1002-.50892-.0653-.12222-.1613-.21814-.2835-.28351-.1222-.06536-.2572-.10017-.5089-.10017z" fill="#fff" fill-rule="evenodd"/></svg>
