<?xml version="1.0" encoding="UTF-8"?>
<svg width="20px" height="20px" viewBox="0 0 20 20" version="1.1" xmlns="http://www.w3.org/2000/svg" xmlns:xlink="http://www.w3.org/1999/xlink">
    <!-- Generator: Sketch 56 (81588) - https://sketch.com -->
    <title>calendar_outline_20</title>
    <desc>Created with Sketch.</desc>
    <g id="Page-2" stroke="none" stroke-width="1" fill="none" fill-rule="evenodd">
        <g id="calendar_outline_20" fill-rule="nonzero">
            <rect id="Shape" opacity="0.527120536" x="0" y="0" width="20" height="20"></rect>
            <g id="Source" transform="translate(2.000000, 1.500000)" fill="currentColor">
                <path d="M11,3 L5,3 L5,3.27147233 C5,3.4355339 4.96983168,3.56154893 4.91318187,3.66747485 C4.85653207,3.77340078 4.77340078,3.85653207 4.66747485,3.91318187 C4.56154893,3.96983168 4.4355339,4 4.27147233,4 L4.22852767,4 C4.0644661,4 3.93845107,3.96983168 3.83252515,3.91318187 C3.72659922,3.85653207 3.64346793,3.77340078 3.58681813,3.66747485 C3.53016832,3.56154893 3.5,3.4355339 3.5,3.27147233 L3.5,3.00720875 C2.9268732,3.02832725 2.65790596,3.09806301 2.38264201,3.24527578 C2.10593596,3.39325979 1.89325979,3.60593596 1.74527578,3.88264201 C1.56371039,4.22213977 1.5,4.55205925 1.5,5.4548565 L1.5,6 L14.5,6 L14.5,5.4548565 C14.5,4.55205925 14.4362896,4.22213977 14.2547242,3.88264201 C14.1067402,3.60593596 13.894064,3.39325979 13.617358,3.24527578 C13.342094,3.09806301 13.0731268,3.02832725 12.5,3.00720875 L12.5,3.27147233 C12.5,3.4355339 12.4698317,3.56154893 12.4131819,3.66747485 C12.3565321,3.77340078 12.2734008,3.85653207 12.1674749,3.91318187 C12.0615489,3.96983168 11.9355339,4 11.7714723,4 L11.7285277,4 C11.5644661,4 11.4384511,3.96983168 11.3325251,3.91318187 C11.2265992,3.85653207 11.1434679,3.77340078 11.0868181,3.66747485 C11.0301683,3.56154893 11,3.4355339 11,3.27147233 L11,3 Z M11,1.5 L11,1.22852767 C11,1.0644661 11.0301683,0.938451072 11.0868181,0.832525146 C11.1434679,0.72659922 11.2265992,0.643467934 11.3325251,0.586818129 C11.4384511,0.530168324 11.5644661,0.5 11.7285277,0.5 L11.7714723,0.5 C11.9355339,0.5 12.0615489,0.530168324 12.1674749,0.586818129 C12.2734008,0.643467934 12.3565321,0.72659922 12.4131819,0.832525146 C12.4698317,0.938451072 12.5,1.0644661 12.5,1.22852767 L12.5,1.50707487 C13.3374176,1.53564683 13.8227891,1.654101 14.3247563,1.92255598 C14.862865,2.2103397 15.2896603,2.63713496 15.577444,3.17524373 C15.8911144,3.76175639 16,4.32561219 16,5.4548565 L16,11.5451435 C16,12.6743878 15.8911144,13.2382436 15.577444,13.8247563 C15.2896603,14.362865 14.862865,14.7896603 14.3247563,15.077444 C13.7382436,15.3911144 13.1743878,15.5 12.0451435,15.5 L3.9548565,15.5 C2.82561219,15.5 2.26175639,15.3911144 1.67524373,15.077444 C1.13713496,14.7896603 0.710339696,14.362865 0.422555981,13.8247563 C0.108885578,13.2382436 -4.40647518e-13,12.6743878 -4.40647518e-13,11.5451435 L-4.40647518e-13,5.4548565 C-4.40647518e-13,4.32561219 0.108885578,3.76175639 0.422555981,3.17524373 C0.710339696,2.63713496 1.13713496,2.2103397 1.67524373,1.92255598 C2.1772109,1.654101 2.66258238,1.53564683 3.5,1.50707487 L3.5,1.22852767 C3.5,1.0644661 3.53016832,0.938451072 3.58681813,0.832525146 C3.64346793,0.72659922 3.72659922,0.643467934 3.83252515,0.586818129 C3.93845107,0.530168324 4.0644661,0.5 4.22852767,0.5 L4.27147233,0.5 C4.4355339,0.5 4.56154893,0.530168324 4.66747485,0.586818129 C4.77340078,0.643467934 4.85653207,0.72659922 4.91318187,0.832525146 C4.96983168,0.938451072 5,1.0644661 5,1.22852767 L5,1.5 L11,1.5 Z M14.5,7.5 L1.5,7.5 L1.5,11.5451435 C1.5,12.4479408 1.56371039,12.7778602 1.74527578,13.117358 C1.89325979,13.394064 2.10593596,13.6067402 2.38264201,13.7547242 C2.72213977,13.9362896 3.05205925,14 3.9548565,14 L12.0451435,14 C12.9479408,14 13.2778602,13.9362896 13.617358,13.7547242 C13.894064,13.6067402 14.1067402,13.394064 14.2547242,13.117358 C14.4362896,12.7778602 14.5,12.4479408 14.5,11.5451435 L14.5,7.5 Z" id="↳-Icon-Color"></path>
            </g>
        </g>
    </g>
</svg>
