<svg fill="none" height="20" viewBox="0 0 20 20" width="20" xmlns="http://www.w3.org/2000/svg"><path clip-rule="evenodd" d="m14 1c.4142 0 .75.33579.75.75v.35583c.3838.06128.7348.16139 1.066.33014.7526.3835 1.3645.99542 1.748 1.74807.24.47096.3412.98197.3892 1.57029.0468.57257.0468 1.28061.0468 2.16319v.00002.00002.00002.00002 4.1648.0001c0 .8826 0 1.5906-.0468 2.1632-.048.5883-.1492 1.0993-.3892 1.5703-.3835.7526-.9954 1.3645-1.748 1.748-.471.24-.982.3412-1.5703.3892-.5726.0468-1.2807.0468-2.1634.0468h-4.16464c-.88265 0-1.59073 0-2.16333-.0468-.58832-.048-1.09933-.1492-1.57029-.3892-.75265-.3835-1.36457-.9954-1.74807-1.748-.23996-.471-.34113-.982-.3892-1.5703-.04678-.5726-.04678-1.2807-.04677-2.1633v-4.16478c-.00001-.88262-.00001-1.5907.04677-2.16329.04807-.58832.14924-1.09933.3892-1.57029.3835-.75265.99542-1.36457 1.74807-1.74807.33119-.16875.68219-.26886 1.06596-.33014v-.35583c0-.41421.33579-.75.75-.75s.75.33579.75.75v.25536c.35097-.00537.73868-.00536 1.16761-.00536h.00001 4.16478c.4289 0 .8166-.00001 1.1676.00536v-.25536c0-.41421.3358-.75.75-.75zm-8.75 2.63402v.11598c0 .41421.33579.75.75.75s.75-.33579.75-.75v-.24446c.34152-.00539.73586-.00554 1.2-.00554h4.1c.4641 0 .8585.00015 1.2.00554v.24446c0 .41421.3358.75.75.75s.75-.33579.75-.75v-.11598c.154.03753.2772.08357.385.13846.4704.23969.8528.62214 1.0925 1.09254.1143.22426.1902.5159.2307 1.01146.0299.3659.0384.80677.0408 1.37352h-12.99804c.00242-.56675.01093-1.00762.04083-1.37352.04049-.49556.11643-.7872.23069-1.01146.23969-.4704.62214-.85285 1.09254-1.09254.10773-.05489.23101-.10093.38498-.13846zm-1.75 5.11598h13v3.3c0 .9225-.0006 1.5692-.0418 2.0735-.0405.4956-.1164.7872-.2307 1.0115-.2397.4704-.6221.8528-1.0925 1.0925-.2243.1143-.5159.1902-1.0115.2307-.5043.0412-1.151.0418-2.0735.0418h-4.1c-.92246 0-1.5692-.0006-2.07352-.0418-.49556-.0405-.7872-.1164-1.01146-.2307-.4704-.2397-.85285-.6221-1.09254-1.0925-.11426-.2243-.1902-.5159-.23069-1.0115-.04121-.5043-.04179-1.151-.04179-2.0735zm10.25 6.25c.6904 0 1.25-.5596 1.25-1.25s-.5596-1.25-1.25-1.25-1.25.5596-1.25 1.25.5596 1.25 1.25 1.25z" fill="currentColor" fill-rule="evenodd"/></svg>
