<svg fill="none" height="20" viewBox="0 0 20 20" width="20" xmlns="http://www.w3.org/2000/svg" xmlns:xlink="http://www.w3.org/1999/xlink"><linearGradient id="a" gradientUnits="userSpaceOnUse" x1="-10" x2="10" y1="10" y2="30"><stop offset="0" stop-color="#ff5263"/><stop offset="1" stop-color="#ff3347"/></linearGradient><path d="m0 10c0-5.52285 4.47715-10 10-10 5.5228 0 10 4.47715 10 10 0 5.5228-4.4772 10-10 10-5.52285 0-10-4.4772-10-10z" fill="url(#a)"/><path d="m5.79289 5.79289c.39053-.39052 1.02369-.39052 1.41422 0l2.79289 2.79211 2.7929-2.79211c.3905-.39052 1.0237-.39052 1.4142 0 .3905.39053.3905 1.02369 0 1.41422l-2.7921 2.79289 2.7921 2.7929c.3605.3605.3882.9277.0832 1.32l-.0832.0942c-.3905.3905-1.0237.3905-1.4142 0l-2.7929-2.7921-2.79289 2.7921c-.39053.3905-1.02369.3905-1.41422 0-.39052-.3905-.39052-1.0237 0-1.4142l2.79211-2.7929-2.79211-2.79289c-.36048-.36049-.38821-.92772-.08319-1.32001z" fill="#fff"/></svg>
