<svg xmlns="http://www.w3.org/2000/svg" width="20" height="20" fill="currentColor" viewBox="0 0 20 20"><path fill-rule="evenodd" d="M4.893 1.5h-.024c-.18 0-.356 0-.506.012a1.48 1.48 0 0 0-.563.148c-.276.14-.5.364-.64.64a1.48 1.48 0 0 0-.148.563C3 3.013 3 3.19 3 3.369v8.411c0 2.352 0 3.528.458 4.427a4.2 4.2 0 0 0 1.835 1.835c.899.458 2.075.458 4.427.458h.56c2.352 0 3.528 0 4.427-.458a4.2 4.2 0 0 0 1.835-1.835C17 15.308 17 14.132 17 11.78V9.228c0-3.32 0-4.98-.7-6.001a4 4 0 0 0-2.623-1.683c-1.22-.21-2.66.45-5.677 1.835 0-.18 0-.366-.012-.516A1.48 1.48 0 0 0 7.84 2.3c-.14-.276-.364-.5-.64-.64a1.48 1.48 0 0 0-.563-.148C6.487 1.5 6.31 1.5 6.131 1.5H4.893ZM4.5 6.635v5.145c0 1.2.001 2.011.052 2.636.05.608.14.907.242 1.11a2.7 2.7 0 0 0 1.18 1.18c.203.103.502.192 1.11.242.625.05 1.435.052 2.636.052h.56c1.2 0 2.011-.001 2.636-.052.608-.05.907-.14 1.11-.242a2.7 2.7 0 0 0 1.18-1.18c.103-.203.192-.502.242-1.11.05-.625.052-1.435.052-2.636V9.228c0-1.69-.002-2.853-.081-3.726-.08-.873-.224-1.235-.356-1.428a2.5 2.5 0 0 0-1.64-1.052c-.23-.04-.62-.02-1.446.272-.827.292-1.885.776-3.42 1.48L4.5 6.635ZM7.53 7.97a.75.75 0 0 0-1.06 1.06l.53.53v3.88l-.53.53a.75.75 0 1 0 1.06 1.06l.53-.53h3.88l.53.53a.75.75 0 1 0 1.06-1.06l-.53-.53V9.56l.53-.53a.75.75 0 0 0-1.06-1.06l-.53.53H8.06l-.53-.53ZM6.494 3.006c.006.08.006.192.006.387v.674l-2 .918V3.393c0-.195 0-.307.006-.387C4.586 3 4.698 3 4.893 3h1.214c.195 0 .307 0 .387.006ZM8.5 10v3h3v-3h-3Z" clip-rule="evenodd"/></svg>
