<svg xmlns="http://www.w3.org/2000/svg" width="20" height="20" fill="currentColor" viewBox="0 0 20 20"><path d="M16.218 2c-.673 0-1.223 0-1.671.037-.463.037-.882.118-1.273.317a3.25 3.25 0 0 0-1.42 1.42c-.199.391-.28.81-.317 1.273-.037.447-.037.998-.037 1.672v6.562c0 .674 0 1.224.037 1.672.037.463.118.882.317 1.273a3.25 3.25 0 0 0 1.42 1.42c.391.199.81.28 1.273.317.447.037.998.037 1.671.037h1.532a.75.75 0 0 0 0-1.5h-1.5c-.713 0-1.202 0-1.581-.032-.37-.03-.57-.085-.713-.159a1.75 1.75 0 0 1-.765-.765c-.074-.144-.13-.343-.16-.713-.03-.38-.031-.869-.031-1.581v-6.5c0-.712 0-1.202.031-1.58.03-.371.086-.57.16-.714a1.75 1.75 0 0 1 .764-.765c.145-.074.344-.13.714-.16.38-.03.868-.031 1.581-.031h1.5a.75.75 0 0 0 0-1.5h-1.532ZM3.781 18c.674 0 1.224 0 1.672-.037.463-.037.882-.118 1.272-.317a3.25 3.25 0 0 0 1.42-1.42c.2-.391.28-.81.318-1.273.037-.447.037-.998.037-1.672V6.72c0-.674 0-1.224-.037-1.672-.037-.463-.118-.882-.317-1.272a3.25 3.25 0 0 0-1.42-1.42c-.391-.2-.81-.28-1.273-.318C5.006 2 4.455 2 3.782 2H2.25a.75.75 0 0 0 0 1.5h1.5c.712 0 1.202 0 1.58.032.371.03.57.085.714.159.33.168.597.435.765.765.074.144.13.343.16.713.03.38.031.869.031 1.581v6.5c0 .712 0 1.202-.032 1.58-.03.371-.085.57-.159.714a1.75 1.75 0 0 1-.765.765c-.144.074-.343.13-.713.16-.38.03-.869.031-1.581.031h-1.5a.75.75 0 0 0 0 1.5h1.531Z"/></svg>
