<svg xmlns="http://www.w3.org/2000/svg" width="20" height="20" fill="none" viewBox="0 0 20 20"><path fill="currentColor" fill-rule="evenodd" d="M5.5 4h9C15.8807 4 17 5.1193 17 6.5c0 .818-.3928 1.5441-1.0001 2.0002-.0007-.9885-.0133-1.5066-.2179-1.9082a1.9997 1.9997 0 0 0-.874-.874c-.4278-.218-.9879-.218-2.1081-.218H7.2001c-1.1202 0-1.6803 0-2.108.218a1.9999 1.9999 0 0 0-.8741.874c-.2046.4016-.2172.9197-.218 1.9082C3.3929 8.0442 3 7.318 3 6.5 3 5.1193 4.1193 4 5.5 4Zm13 2.5c0 1.6787-1.0341 3.1159-2.5 3.7092V14.3c0 1.1201 0 1.6802-.218 2.108a1.9996 1.9996 0 0 1-.874.874c-.4278.218-.9879.218-2.108.218H7.2c-1.1201 0-1.6802 0-2.108-.218a1.9997 1.9997 0 0 1-.874-.874C4 15.9802 4 15.4201 4 14.3v-4.0908C2.534 9.6159 1.5 8.1787 1.5 6.5c0-2.2091 1.7909-4 4-4h9c2.2091 0 4 1.7909 4 4ZM7.2115 7H7.2c-.5849 0-.9333.0012-1.1915.0223-.1577.0128-.224.0298-.2417.0353a.5.5 0 0 0-.2092.2093c-.0056.0178-.0226.084-.0354.2416C5.5012 7.7668 5.5 8.1152 5.5 8.7v5.6c0 .5848.0012.9332.0223 1.1914.0128.1577.0298.2239.0353.2417a.5.5 0 0 0 .2093.2093c.0178.0055.084.0225.2416.0353.2583.0211.6067.0223 1.1915.0223h5.6c.5848 0 .9332-.0012 1.1914-.0223.1577-.0128.2239-.0298.2417-.0353a.5005.5005 0 0 0 .2093-.2093c.0055-.0178.0225-.084.0353-.2417.0211-.2582.0223-.6066.0223-1.1914V8.7c0-.5848-.0012-.9332-.0223-1.1914-.0128-.1577-.0298-.224-.0353-.2417a.5003.5003 0 0 0-.2093-.2092c-.0178-.0056-.084-.0225-.2417-.0354C13.7332 7.0012 13.3848 7 12.7999 7H10.75v4.5972l.7561-.6616a.75.75 0 1 1 .9878 1.1288l-2 1.75a.7499.7499 0 0 1-.9878 0l-2-1.75a.75.75 0 1 1 .9878-1.1288l.7561.6616V7H7.2115Zm7.0268.0595-.0031-.0012a.0259.0259 0 0 1 .0031.0011Zm.2022.2023c.0001-.0001.0005.0008.0012.003l-.0012-.003Zm0 8.4765.0012-.0031a.0117.0117 0 0 1-.0012.0031Zm-.2022.2022a.0117.0117 0 0 1-.0031.0012l.0031-.0012Zm-8.4765 0 .003.0012-.0026-.0009c-.0003-.0002-.0005-.0002-.0004-.0003Zm-.2024-.2022s-.0004-.0009-.001-.0031l.001.0031Zm0-8.4765-.0007.002a.0362.0362 0 0 1 .0008-.002Zm.2024-.2023a.0118.0118 0 0 1 .003-.0012l-.003.0012Z" clip-rule="evenodd"/></svg>
