<svg fill="none" height="20" viewBox="0 0 20 20" width="20" xmlns="http://www.w3.org/2000/svg"><g fill="currentColor"><path d="m12.5165 4.17572c.9113-.90096 2.3923-.90096 3.3036 0 .9065.89627.9065 2.34583 0 3.2421l-.6867.67889c-.2945.29122-.2973.76609-.006 1.06064.2912.29456.7661.29727 1.0606.00605l.6867-.67889c1.5004-1.48341 1.5004-3.89207 0-5.37547-1.4957-1.47872-3.9171-1.47872-5.4128 0l-3.33661 3.29883c-1.5004 1.48341-1.5004 3.89203 0 5.37543.29456.2913.76942.2886 1.06065-.006.29122-.2946.28851-.7694-.00605-1.0606-.90653-.89631-.90653-2.34587 0-3.24214z"/><path d="m7.48346 15.8243c-.91129.9009-2.39227.9009-3.30356 0-.90653-.8963-.90653-2.3459 0-3.2421l.68667-.6789c.29456-.2912.29726-.7661.00604-1.0607-.29122-.2945-.76608-.2972-1.06064-.006l-.68667.6789c-1.5004 1.4834-1.5004 3.8921 0 5.3755 1.49566 1.4787 3.9171 1.4787 5.41276 0l3.33664-3.2989c1.5004-1.4834 1.5004-3.89204 0-5.37544-.2946-.29122-.7694-.28852-1.0607.00604-.2912.29456-.2885.76942.0061 1.06064.9065.89626.9065 2.34586 0 3.24206z"/></g></svg>
