<svg fill="none" height="20" viewBox="0 0 20 20" width="20" xmlns="http://www.w3.org/2000/svg"><path clip-rule="evenodd" d="m6.42598 18.8858c-.56051-.2321-.92597-.7791-.92597-1.3858v-2c-.37002-.0004-.71881-.0036-1.01871-.0281-.37624-.0308-.80554-.1023-1.23406-.3207-.60212-.3068-1.09166-.7963-1.39846-1.3984-.21834-.4286-.28989-.8578-.32063-1.2341-.02823-.3455-.02819-.7558-.02815-1.1888.00015-1.55329.00015-3.11251 0-4.65985-.00004-.43294-.00008-.84328.02815-1.18875.03074-.37624.10229-.80554.32063-1.23406.3068-.60212.79634-1.09166 1.39846-1.39845.42852-.21835.85782-.2899 1.23406-.32064.34548-.02823.75584-.02819 1.18879-.02815 1.75674.00017 2.28672.00013 3.08311.00008l1.9066-.00008s.7972-.0017.7972.75c0 .75171-.7972.75001-.7972.75001h-4.93979c-.95209 0-1.42814 0-1.79179.18529-.31987.16298-.57994.42305-.74293.74292-.18528.36365-.18528.8397-.18528 1.79179v4.55999c0 .9521 0 1.4281.18528 1.7918.16299.3199.42306.5799.74293.7429.36365.1853.8397.1853 1.79179.1853h.16c.39203 0 .58805 0 .73779.0763.13171.0671.2388.1742.30591.3059.0763.1498.0763.3458.0763.7378v2.38l3.03139-3.0314c.1729-.1729.2594-.2594.3603-.3212.0895-.0549.187-.0953.2891-.1198.1151-.0276.2374-.0276.4819-.0276h3.1173c.9521 0 1.4281 0 1.7918-.1853.3199-.163.5799-.423.7429-.7429.1853-.3637.1853-.8397.1853-1.7918v-3.85288s-.0018-.68526.75-.68526.75.68526.75.68526v3.90288c0 .4329.0001.8433-.0281 1.1887-.0308.3763-.1023.8055-.3207 1.2341-.3068.6021-.7963 1.0916-1.3984 1.3984-.4286.2184-.8579.2899-1.2341.3207-.3455.0282-.7558.0282-1.1888.0281h-3.1672c-.0293 0-.0499.0085-.0707.0293l-3.03133 3.0314c-.429.429-1.07418.5573-1.63469.3251zm11.85532-15.11677c.2929-.28852.2929-.7563 0-1.04483-.2929-.28852-.7678-.28852-1.0607 0l-2.5378 2.49998-1.0178-1.00432c-.2929-.28852-.7677-.28852-1.0606 0s-.2929.75631 0 1.04483l1.5481 1.52673c.2929.28852.7677.28852 1.0606 0z" fill="currentColor" fill-rule="evenodd"/></svg>
