<svg xmlns="http://www.w3.org/2000/svg" width="20" height="20" fill="currentColor" viewBox="0 0 20 20"><path fill-rule="evenodd" d="M8.717 2h2.566c1.022 0 1.835 0 2.491.054.672.054 1.245.17 1.769.436a4.5 4.5 0 0 1 1.966 1.967c.268.524.383 1.097.437 1.769C18 6.882 18 7.695 18 8.717V10.5a.75.75 0 0 1-1.5 0V8h-13v3.25c0 1.063 0 1.814.049 2.402.047.579.136.932.278 1.21a3 3 0 0 0 1.311 1.311c.278.142.631.231 1.21.278.588.048 1.34.049 2.402.049h1.85a.75.75 0 0 1 0 1.5H8.717c-1.022 0-1.835 0-2.491-.054-.672-.055-1.245-.17-1.769-.437a4.5 4.5 0 0 1-1.967-1.966c-.267-.524-.382-1.097-.436-1.769C2 13.118 2 12.305 2 11.283V8.717c0-1.022 0-1.835.054-2.491.054-.672.17-1.245.436-1.769A4.5 4.5 0 0 1 4.457 2.49c.524-.267 1.097-.382 1.769-.436C6.882 2 7.695 2 8.717 2Zm7.734 4.348.011.152H3.537l.012-.152c.047-.579.136-.932.278-1.21a3 3 0 0 1 1.311-1.311c.278-.142.631-.231 1.21-.278C6.936 3.5 7.688 3.5 8.75 3.5h2.5c1.063 0 1.814 0 2.402.049.579.047.932.136 1.21.278a3 3 0 0 1 1.311 1.311c.142.278.231.631.278 1.21Zm1.33 7.682a.75.75 0 1 0-1.061-1.06l-2.538 2.537-.902-.901a.75.75 0 1 0-1.06 1.06l1.43 1.434a.75.75 0 0 0 1.061 0l3.068-3.069Z" clip-rule="evenodd"/></svg>
