<svg width="20" height="20" fill="none" xmlns="http://www.w3.org/2000/svg"><path fill-rule="evenodd" clip-rule="evenodd" d="M10.154 2.508a1.25 1.25 0 00-.308 0c-.099.013-.203.043-.589.166L4.592 4.158c-.21.067-.33.106-.42.141a.534.534 0 00-.081.038.25.25 0 00-.073.099.535.535 0 00-.01.09A7.253 7.253 0 004 4.967v5.69c0 1.857.993 3.354 2.262 4.513 1.27 1.159 2.74 1.907 3.506 2.25.09.04.126.056.154.066a.236.236 0 00.156 0c.028-.01.065-.026.154-.066.766-.343 2.237-1.091 3.506-2.25C15.008 14.012 16 12.515 16 10.658v-5.69c0-.22 0-.348-.007-.443a.526.526 0 00-.011-.09.25.25 0 00-.072-.098.53.53 0 00-.082-.038 7.25 7.25 0 00-.42-.14l-4.665-1.485c-.386-.123-.49-.153-.59-.166zm5.757 1.83l-.002-.001zm.07.096v.002zm-11.962 0v.002zm.07-.096l.002-.001zM9.662 1.02a2.75 2.75 0 01.676 0c.269.033.526.118.86.224l4.665 1.485.08.025c.316.1.653.206.917.422.229.188.406.431.516.706.126.317.125.67.124 1.002v5.774c0 2.44-1.314 4.309-2.75 5.62-1.438 1.313-3.072 2.14-3.906 2.512-.152.069-.318.146-.55.186-.177.03-.411.03-.587 0-.233-.04-.399-.117-.551-.186-.833-.372-2.468-1.199-3.905-2.511-1.437-1.312-2.751-3.181-2.751-5.62v-5.69-.085c-.001-.332-.002-.685.124-1.002a1.75 1.75 0 01.516-.706c.264-.216.6-.322.917-.422l.08-.025 4.665-1.485c.335-.106.591-.191.86-.224z" fill="currentColor"/><path fill-rule="evenodd" clip-rule="evenodd" d="M13.76 7.2a.75.75 0 01.04 1.06l-4.179 4.5a.75.75 0 01-1.1 0l-2.32-2.5A.75.75 0 017.3 9.24l1.771 1.908 3.63-3.908a.75.75 0 011.06-.04z" fill="currentColor"/></svg>
