<svg xmlns="http://www.w3.org/2000/svg" width="20" height="20" fill="currentColor" viewBox="0 0 20 20"><path fill-rule="evenodd" d="M8.865 2.154c.461.367.87.872 1.187 1.49.232-.387.505-.721.808-.985.405-.355.902-.615 1.45-.65.573-.038 1.113.176 1.546.61.432.431.647.97.644 1.533-.003.549-.21 1.072-.528 1.518-.08.114-.17.224-.267.33h1.04c.46 0 .852 0 1.17.028.334.028.667.092.977.27.456.26.806.673.99 1.165.124.334.133.673.108 1.007a14.77 14.77 0 0 1-.163 1.16l-.725 4.418a20.648 20.648 0 0 1-.264 1.422c-.096.397-.22.75-.436 1.075a3.25 3.25 0 0 1-1.377 1.17c-.355.159-.724.225-1.13.255-.392.03-.868.03-1.447.03H7.544c-.58 0-1.057 0-1.448-.03-.407-.03-.777-.096-1.132-.256a3.25 3.25 0 0 1-1.377-1.171c-.215-.325-.34-.679-.436-1.076a20.663 20.663 0 0 1-.262-1.425l-.72-4.416a14.57 14.57 0 0 1-.161-1.159c-.025-.333-.016-.672.11-1.006a2.25 2.25 0 0 1 .989-1.164c.31-.177.642-.24.975-.27C4.401 6 4.792 6 5.252 6h.788a4.022 4.022 0 0 1-.5-.62c-.646-.992-.81-2.34.083-3.233a2.138 2.138 0 0 1 1.627-.642c.582.025 1.14.272 1.615.65Zm-1.678.85a.64.64 0 0 0-.503.204c-.198.198-.32.69.112 1.353.388.595 1.179 1.194 2.403 1.38-.167-1.293-.717-2.175-1.267-2.612-.286-.227-.548-.317-.745-.325Zm5.608.675c-.152-.152-.278-.18-.387-.173-.131.008-.328.078-.562.282-.442.387-.877 1.14-1.04 2.135.93-.18 1.607-.65 1.945-1.124.18-.253.248-.48.249-.654a.629.629 0 0 0-.205-.466Zm-8.943 3.92c.037-.021.12-.056.36-.077.246-.021.572-.022 1.07-.022h3.141l-.538.77a.75.75 0 1 0 1.23.86l.97-1.391 1.579 1.979a.75.75 0 0 0 1.172-.936L11.814 7.5h2.9c.5 0 .826 0 1.073.022.24.02.322.056.36.077a.75.75 0 0 1 .33.389c.014.04.035.127.017.367-.019.247-.071.57-.152 1.062l-.18 1.095-1.13-.457a.75.75 0 1 0-.563 1.39l1.444.584-.255 1.551L3.755 9.294a.754.754 0 0 0-.125-.033 11.359 11.359 0 0 1-.125-.907c-.018-.24.003-.327.018-.367a.75.75 0 0 1 .33-.388Zm.051 3.343.27 1.659 4.314 1.438a.75.75 0 1 1-.474 1.422l-3.566-1.188c.059.349.108.618.162.841.075.311.148.479.229.601.182.277.44.495.741.63.134.061.311.106.63.13.328.024.748.025 1.364.025h4.846c.615 0 1.034 0 1.362-.025.319-.024.495-.069.63-.129a1.75 1.75 0 0 0 .74-.63c.082-.122.154-.29.23-.6l.009-.038-11.487-4.136Z" clip-rule="evenodd"/></svg>
