<svg fill="none" height="20" viewBox="0 0 20 20" width="20" xmlns="http://www.w3.org/2000/svg"><path clip-rule="evenodd" d="m20 10c0-5.52285-4.4772-10-10-10-5.52285 0-10 4.47715-10 10 0 5.5228 4.47715 10 10 10 5.5228 0 10-4.4772 10-10zm-12.29289-3.70711c-.39053-.39052-1.02369-.39052-1.41422 0-.39052.39053-.39052 1.02369 0 1.41422l2.2929 2.29289-2.2929 2.2929c-.39052.3905-.39052 1.0237 0 1.4142.39053.3905 1.02369.3905 1.41422 0l2.29289-2.2929 2.2929 2.2929c.3905.3905 1.0237.3905 1.4142 0s.3905-1.0237 0-1.4142l-2.2929-2.2929 2.2929-2.29289c.3905-.39053.3905-1.02369 0-1.41422-.3905-.39052-1.0237-.39052-1.4142 0l-2.2929 2.2929z" fill="currentColor" fill-rule="evenodd"/></svg>
