<svg fill="none" height="20" viewBox="0 0 20 20" width="20" xmlns="http://www.w3.org/2000/svg" xmlns:xlink="http://www.w3.org/1999/xlink"><linearGradient id="a" gradientUnits="userSpaceOnUse" x1="-10" x2="10" y1="10" y2="30"><stop offset="0" stop-color="#c48aff"/><stop offset="1" stop-color="#aa65f0"/></linearGradient><path d="m10 20c5.5228 0 10-4.4772 10-10 0-5.52285-4.4772-10-10-10-5.52285 0-10 4.47715-10 10 0 5.5228 4.47715 10 10 10z" fill="url(#a)"/><path clip-rule="evenodd" d="m8.97418 6.57806-.47788-2.031c-.14435-.61348-.69178-1.04706-1.32202-1.04706-.77544 0-1.39348.64817-1.3566 1.42273l.14007 2.94147c.30119-.07461.6162-.1142.94045-.1142h.52315c1.28054 0 2.35807.95912 2.50646 2.23104.13849 1.18706-.5747 2.30846-1.70847 2.68636l-.13223.0441c-.39296.131-.8177-.0814-.94868-.4743-.13099-.393.08138-.8177.47434-.9487l.13222-.0441c.45984-.1533.7491-.6081.69293-1.0895-.06019-.5159-.49721-.9049-1.01657-.9049h-.52315c-1.30361 0-2.36429 1.0401-2.39747 2.3357.04569 2.4457 2.04256 4.4143 4.4992 4.4143h1.20517c.1574 0 .313-.0076.4666-.0224-.1101-.2675-.1718-.5637-.1718-.8807v-2.7938c0-1.7656 1.9133-2.88643 3.4539-1.9904l1.0458.6082c-.0199-1.47216-.9235-2.7904-2.2935-3.3384-.1218-.04875-.1962-.17283-.1817-.30327l.3121-2.80897c.0872-.78432-.5268-1.47026-1.3159-1.47026-.6015 0-1.1274.40541-1.2805.98708l-.68377 2.59861c-.07954.30227-.51056.29662-.58215-.00763zm6.62732 7.81574c.5312-.309.5312-1.0786 0-1.3876l-2.4018-1.3969c-.5327-.3098-1.1998.0759-1.1998.6938v2.7938c0 .6179.6671 1.0036 1.1998.6938z" fill="#fff" fill-rule="evenodd"/></svg>
