<svg width="20" height="20" fill="none" xmlns="http://www.w3.org/2000/svg"><path d="M0 10C0 4.477 4.477 0 10 0s10 4.477 10 10-4.477 10-10 10S0 15.523 0 10z" fill="url(#paint0_linear)"/><path fill-rule="evenodd" clip-rule="evenodd" d="M8.975 6.578l-.478-2.03a1.358 1.358 0 00-2.679.375l.14 2.941c.301-.074.616-.114.94-.114h.524a2.523 2.523 0 01.798 4.917l-.133.044a.75.75 0 11-.474-1.422l.132-.045a1.023 1.023 0 00-.323-1.994h-.523A2.398 2.398 0 004.5 11.586 4.5 4.5 0 009.001 16h1.5v-3.697c0-1.766 1.913-2.886 3.453-1.99L15 10.92a3.65 3.65 0 00-2.293-3.338.292.292 0 01-.182-.304l.312-2.809a1.324 1.324 0 00-2.596-.483l-.684 2.599c-.08.302-.51.296-.582-.008zm6.626 7.816a.803.803 0 000-1.388l-2.402-1.397a.8.8 0 00-1.2.694v2.794a.8.8 0 001.2.694l2.402-1.397z" fill="#fff"/><defs><linearGradient id="paint0_linear" x1="-10" y1="10" x2="10" y2="30" gradientUnits="userSpaceOnUse"><stop stop-color="#C48AFF"/><stop offset="1" stop-color="#AA65F0"/></linearGradient></defs></svg>
