<svg fill="none" height="20" viewBox="0 0 20 20" width="20" xmlns="http://www.w3.org/2000/svg"><path clip-rule="evenodd" d="m9 4c-2.07107 0-3.75 1.67893-3.75 3.75 0 .22348.01947.4418.05662.65352.06077.34631-.12718.68835-.4521.82271-1.08991.45072-1.85452 1.52387-1.85452 2.77377 0 1.6569 1.34315 3 3 3h7.25c2.0711 0 3.75-1.6789 3.75-3.75 0-2.03219-1.6167-3.68706-3.6338-3.74824-.3417-.01037-.6332-.25057-.7087-.58404-.3783-1.67076-1.8732-2.91772-3.6575-2.91772zm-5.25 3.75c0-2.8995 2.3505-5.25 5.25-5.25 2.3047 0 4.2611 1.48441 4.968 3.54873 2.56.35022 4.532 2.54533 4.532 5.20127 0 2.8995-2.3505 5.25-5.25 5.25h-7.25c-2.48528 0-4.5-2.0147-4.5-4.5 0-1.6712.91089-3.12833 2.26123-3.90426-.00745-.11436-.01123-.22965-.01123-.34574z" fill="currentColor" fill-rule="evenodd"/></svg>
