<svg xmlns="http://www.w3.org/2000/svg" width="20" height="20" fill="none" viewBox="0 0 20 20"><path fill="currentColor" fill-rule="evenodd" d="M9 4C6.929 4 5.25 5.679 5.25 7.75c0 .2235.0195.4418.0566.6535a.75.75 0 0 1-.452.8227C3.7645 9.677 3 10.7501 3 12c0 1.6569 1.3431 3 3 3h1a.75.75 0 0 1 0 1.5H6c-2.4853 0-4.5-2.0147-4.5-4.5 0-1.6712.9109-3.1283 2.2612-3.9043A5.318 5.318 0 0 1 3.75 7.75C3.75 4.8505 6.1005 2.5 9 2.5c2.3047 0 4.2611 1.4844 4.968 3.5487 2.56.3502 4.532 2.5454 4.532 5.2013 0 2.8995-2.3505 5.25-5.25 5.25H13a.75.75 0 0 1 0-1.5h.25c2.0711 0 3.75-1.6789 3.75-3.75 0-2.0322-1.6167-3.687-3.6338-3.7482a.75.75 0 0 1-.7087-.584C12.2792 5.247 10.7843 4 9 4Z" clip-rule="evenodd"/><path fill="currentColor" fill-rule="evenodd" d="M10 18a.75.75 0 0 1-.75-.75v-6.6893l-1.7197 1.7196a.75.75 0 0 1-1.0606-1.0606l3-3a.75.75 0 0 1 1.0606 0l3 3a.75.75 0 0 1 0 1.0606.75.75 0 0 1-1.0606 0L10.75 10.5607V17.25A.75.75 0 0 1 10 18Z" clip-rule="evenodd"/></svg>
