<svg xmlns="http://www.w3.org/2000/svg" width="20" height="20" fill="none" viewBox="0 0 20 20"><path fill="currentColor" fill-rule="evenodd" d="M13.003 2.8594c1.1426-1.1426 2.9951-1.1426 4.1376 0 1.1426 1.1425 1.1426 2.995 0 4.1375l-3.5415 3.5416 1.1812 1.1812a.75.75 0 0 1-1.0606 1.0607l-1.1813-1.1813-4.1504 4.1505c-1.1777 1.1777-2.7375 1.9996-4.3933 2.2314-1.1513.1611-2.1368-.8244-1.9756-1.9757.2315-1.6543 1.0518-3.2138 2.2287-4.3906l4.153-4.1531-1.1811-1.1812a.75.75 0 0 1 1.0606-1.0607l1.1812 1.1812 3.5415-3.5415ZM9.4615 8.5222l-4.1504 4.1505c-.9217.9217-1.5543 2.0957-1.7801 3.383-.0576.328.1136.4659.4133.4134 1.2873-.2259 2.4614-.8585 3.383-1.7801l4.1505-4.1505-2.0163-2.0163Z" clip-rule="evenodd"/></svg>
