<svg fill="none" height="20" viewBox="0 0 20 20" width="20" xmlns="http://www.w3.org/2000/svg"><g fill="currentColor"><path d="m6 7c0-.55228.44772-1 1-1h1c.55229 0 1 .44772 1 1v4c0 .5523-.44772 1-1 1h-1c-.55228 0-1-.4477-1-1z"/><path d="m12 6c-.5523 0-1 .44772-1 1v7c0 .5523.4477 1 1 1h1c.5523 0 1-.4477 1-1v-7c0-.55228-.4477-1-1-1z"/><path clip-rule="evenodd" d="m7.08218 3.5c-1.66006 0-2.02334.16876-2.36309.35046-.37834.20234-.66629.49029-.86863.86863-.1817.33975-.35046.70303-.35046 2.36309v5.83562c0 1.6601.16876 2.0234.35046 2.3631.20234.3784.49029.6663.86863.8686.33975.1817.70303.3505 2.36309.3505h5.83562c1.6601 0 2.0234-.1688 2.3631-.3505.3784-.2023.6663-.4902.8686-.8686.1817-.3397.3505-.703.3505-2.3631v-5.83562c0-1.66006-.1688-2.02334-.3505-2.36309-.2023-.37834-.4902-.66629-.8686-.86863-.3397-.1817-.703-.35046-2.3631-.35046zm-3.07049-.97226c.64953-.34737 1.29511-.52774 3.07049-.52774h5.83562c1.7754 0 2.421.18037 3.0705.52774.6398.34214 1.1418.84421 1.484 1.48395.3473.64953.5277 1.29511.5277 3.07049v5.83562c0 1.7754-.1804 2.421-.5277 3.0705-.3422.6398-.8442 1.1418-1.484 1.484-.6495.3473-1.2951.5277-3.0705.5277h-5.83562c-1.77538 0-2.42096-.1804-3.07049-.5277-.63974-.3422-1.14181-.8442-1.48395-1.484-.34737-.6495-.52774-1.2951-.52774-3.0705v-5.83562c0-1.77538.18037-2.42096.52774-3.07049.34214-.63974.84421-1.14181 1.48395-1.48395z" fill-rule="evenodd"/></g></svg>
