<svg width="20" height="20" viewBox="0 0 20 20" fill="none" xmlns="http://www.w3.org/2000/svg"><path fill-rule="evenodd" clip-rule="evenodd" d="M7.082 3.5c-1.66 0-2.023.169-2.363.35-.378.203-.666.49-.869.87-.181.339-.35.702-.35 2.362v5.836c0 1.66.169 2.023.35 2.363.203.378.49.666.87.868.339.182.702.351 2.362.351h5.836c1.66 0 2.023-.169 2.363-.35.378-.203.666-.49.868-.87.182-.339.351-.702.351-2.362V7.082c0-1.66-.169-2.023-.35-2.363a2.067 2.067 0 0 0-.87-.869c-.339-.181-.702-.35-2.362-.35H7.082zm-3.07-.972C4.662 2.18 5.307 2 7.082 2h5.836c1.775 0 2.42.18 3.07.528.64.342 1.142.844 1.484 1.484.348.65.528 1.295.528 3.07v5.836c0 1.775-.18 2.42-.528 3.07a3.567 3.567 0 0 1-1.484 1.484c-.65.348-1.295.528-3.07.528H7.082c-1.775 0-2.42-.18-3.07-.528a3.567 3.567 0 0 1-1.484-1.484C2.18 15.338 2 14.693 2 12.918V7.082c0-1.775.18-2.42.528-3.07a3.567 3.567 0 0 1 1.484-1.484z" fill="currentColor"/><path d="M6 7.5c0-.466 0-.699.076-.883a1 1 0 0 1 .541-.54C6.801 6 7.034 6 7.5 6s.699 0 .883.076a1 1 0 0 1 .54.541C9 6.801 9 7.034 9 7.5v3c0 .466 0 .699-.076.883a1 1 0 0 1-.541.54C8.199 12 7.966 12 7.5 12s-.699 0-.883-.076a1 1 0 0 1-.54-.541C6 11.199 6 10.966 6 10.5v-3zM11 7.5c0-.466 0-.699.076-.883a1 1 0 0 1 .541-.54C11.801 6 12.034 6 12.5 6s.699 0 .883.076a1 1 0 0 1 .54.541c.077.184.077.417.077.883v5c0 .466 0 .699-.076.883a1 1 0 0 1-.541.54c-.184.077-.417.077-.883.077s-.699 0-.883-.076a1 1 0 0 1-.54-.541C11 13.199 11 12.966 11 12.5v-5z" fill="currentColor"/></svg>
