<?xml version="1.0" encoding="UTF-8"?>
<svg width="20px" height="20px" viewBox="0 0 20 20" version="1.1" xmlns="http://www.w3.org/2000/svg" xmlns:xlink="http://www.w3.org/1999/xlink">
    <!-- Generator: Sketch 63.1 (92452) - https://sketch.com -->
    <title>comment_outline_20</title>
    <desc>Created with Sketch.</desc>
    <g id="Icons" stroke="none" stroke-width="1" fill="none" fill-rule="evenodd">
        <g id="Icons-20/comment_outline_20">
            <g id="comment_outline_20">
                <rect opacity="0.4" x="0" y="0" width="20" height="20"></rect>
                <path d="M6.25,15.75 L5,15.75 C3.34598675,15.75 2.25,14.659909 2.25,13 L2.25,6 C2.25,4.34009103 3.34598675,3.25 5,3.25 L15,3.25 C16.6540133,3.25 17.75,4.34009103 17.75,6 L17.75,13 C17.75,14.659909 16.6540133,15.75 15,15.75 L11.3224726,15.75 L8.76878801,18.4438694 C8.1578698,19.0621428 7.43503064,19.2145474 6.85537861,18.7745743 C6.46598409,18.4790123 6.25,17.9598743 6.25,17.5 L6.25,15.75 Z M10.3077773,14.6400741 C10.5438257,14.3910466 10.8718627,14.25 11.2149859,14.25 L15,14.25 C15.8273919,14.25 16.25,13.8296653 16.25,13 L16.25,6 C16.25,5.17033473 15.8273919,4.75 15,4.75 L5,4.75 C4.1726081,4.75 3.75,5.17033473 3.75,6 L3.75,13 C3.75,13.8296653 4.1726081,14.25 5,14.25 L6.999,14.25 C7.19791237,14.25 7.3886778,14.3290176 7.52933009,14.4696699 L7.60718623,14.5607391 C7.69942872,14.6879542 7.75,14.8418701 7.75,15.001 L7.75,17.3384898 L10.3077773,14.6400741 Z" id="↳-Icon-Color" fill="currentColor" fill-rule="nonzero"></path>
            </g>
        </g>
    </g>
</svg>
