<?xml version="1.0" encoding="UTF-8"?>
<svg width="20px" height="20px" viewBox="0 0 20 20" version="1.1" xmlns="http://www.w3.org/2000/svg" xmlns:xlink="http://www.w3.org/1999/xlink">
    <!-- Generator: Sketch 56 (81588) - https://sketch.com -->
    <title>community_name_20</title>
    <desc>Created with Sketch.</desc>
    <g id="Page-2" stroke="none" stroke-width="1" fill="none" fill-rule="evenodd">
        <g id="community_name_20" fill-rule="nonzero">
            <rect id="Rectangle-2" x="0" y="0" width="20" height="20"></rect>
            <path d="M13,5.5 C12.5857864,5.5 12.25,5.16421356 12.25,4.75 C12.25,4.33578644 12.5857864,4 13,4 L14.0451435,4 C15.1743878,4 15.7382436,4.10888558 16.3247563,4.42255598 C16.862865,4.7103397 17.2896603,5.13713496 17.577444,5.67524373 C17.8911144,6.26175639 18,6.82561219 18,7.9548565 L18,13.0451435 C18,14.1743878 17.8911144,14.7382436 17.577444,15.3247563 C17.2896603,15.862865 16.862865,16.2896603 16.3247563,16.577444 C15.7382436,16.8911144 15.1743878,17 14.0451435,17 L5.9548565,17 C4.82561219,17 4.26175639,16.8911144 3.67524373,16.577444 C3.13713496,16.2896603 2.7103397,15.862865 2.42255598,15.3247563 C2.10888558,14.7382436 2,14.1743878 2,13.0451435 L2,7.9548565 C2,6.82561219 2.10888558,6.26175639 2.42255598,5.67524373 C2.7103397,5.13713496 3.13713496,4.7103397 3.67524373,4.42255598 C4.26175639,4.10888558 4.82561219,4 5.9548565,4 L7,4 C7.41421356,4 7.75,4.33578644 7.75,4.75 C7.75,5.16421356 7.41421356,5.5 7,5.5 L5.9548565,5.5 C5.05205925,5.5 4.72213977,5.56371039 4.38264201,5.74527578 C4.10593596,5.89325979 3.89325979,6.10593596 3.74527578,6.38264201 C3.56371039,6.72213977 3.5,7.05205925 3.5,7.9548565 L3.5,13.0451435 C3.5,13.9479408 3.56371039,14.2778602 3.74527578,14.617358 C3.89325979,14.894064 4.10593596,15.1067402 4.38264201,15.2547242 C4.72213977,15.4362896 5.05205925,15.5 5.9548565,15.5 L14.0451435,15.5 C14.9479408,15.5 15.2778602,15.4362896 15.617358,15.2547242 C15.894064,15.1067402 16.1067402,14.894064 16.2547242,14.617358 C16.4362896,14.2778602 16.5,13.9479408 16.5,13.0451435 L16.5,7.9548565 C16.5,7.05205925 16.4362896,6.72213977 16.2547242,6.38264201 C16.1067402,6.10593596 15.894064,5.89325979 15.617358,5.74527578 C15.2778602,5.56371039 14.9479408,5.5 14.0451435,5.5 L13,5.5 Z M10.75,5.25 C10.75,5.66421356 10.4142136,6 10,6 C9.58578644,6 9.25,5.66421356 9.25,5.25 L9.25,2.75 C9.25,2.33578644 9.58578644,2 10,2 C10.4142136,2 10.75,2.33578644 10.75,2.75 L10.75,5.25 Z M6.75,8.25 L13.25,8.25 C13.6642136,8.25 14,8.58578644 14,9 C14,9.41421356 13.6642136,9.75 13.25,9.75 L6.75,9.75 C6.33578644,9.75 6,9.41421356 6,9 C6,8.58578644 6.33578644,8.25 6.75,8.25 Z M6.75,11.5 L11.25,11.5 C11.6642136,11.5 12,11.8357864 12,12.25 C12,12.6642136 11.6642136,13 11.25,13 L6.75,13 C6.33578644,13 6,12.6642136 6,12.25 C6,11.8357864 6.33578644,11.5 6.75,11.5 Z" id="↳-Icon-Color" fill="currentColor"></path>
        </g>
    </g>
</svg>
