<svg fill="none" height="21" viewBox="0 0 21 21" width="21" xmlns="http://www.w3.org/2000/svg"><path d="m6.5 16.4486h-1.25c-1.65401 0-2.75-1.0905-2.75-2.751v-7.00271c0-1.66054 1.09599-2.75104 2.75-2.75104h10.5c1.654 0 2.75 1.0905 2.75 2.75104v7.00271c0 1.6605-1.096 2.751-2.75 2.751h-4.1775l-2.55371 2.9123c-.61092.6185-1.33376.771-1.91341.3309-.3894-.2957-.60538-.815-.60538-1.2751zm4.0578-1.1104c.236-.2491.5641-.3902.9072-.3902h4.285c.8274 0 1.25-.4205 1.25-1.2504v-7.00271c0-.82998-.4226-1.25047-1.25-1.25047h-10.5c-.82739 0-1.25.42049-1.25 1.25047v7.00271c0 .8299.42261 1.2504 1.25 1.2504h1.999c.19891 0 .38968.0791.53033.2198l.07786.0911c.09224.1272.14281.2812.14281.4404v2.5558z" fill="currentColor"/></svg>
