<svg fill="none" height="20" viewBox="0 0 20 20" width="20" xmlns="http://www.w3.org/2000/svg"><path d="m6.25 15.75h-1.25c-1.65401 0-2.75-1.0901-2.75-2.75v-7c0-1.65991 1.09599-2.75 2.75-2.75h10c1.654 0 2.75 1.09009 2.75 2.75v7c0 1.6599-1.096 2.75-2.75 2.75h-3.6775l-2.55371 2.6939c-.61092.6182-1.33376.7706-1.91341.3307-.3894-.2956-.60538-.8147-.60538-1.2746zm4.0578-1.1099c.236-.2491.5641-.3901.9072-.3901h3.785c.8274 0 1.25-.4203 1.25-1.25v-7c0-.82967-.4226-1.25-1.25-1.25h-10c-.82739 0-1.25.42033-1.25 1.25v7c0 .8297.42261 1.25 1.25 1.25h1.999c.19891 0 .38968.079.53033.2197l.07786.091c.09224.1273.14281.2812.14281.4403v2.3375z" fill="currentColor"/></svg>
