<svg fill="none" height="21" viewBox="0 0 21 21" width="21" xmlns="http://www.w3.org/2000/svg"><g fill="currentColor"><path clip-rule="evenodd" d="m1.96491 2.1634c.29296-.29283.76783-.29272 1.06066.00024l15.50093 15.50786c.2928.293.2927.7678-.0003 1.0607-.2929.2928-.7678.2927-1.0606-.0003l-2.2862-2.2872h-3.6067l-2.55373 2.9123c-.61092.6185-1.33376.771-1.91341.3309-.38939-.2957-.60538-.815-.60538-1.2751v-1.9681h-1.25c-1.65401 0-2.75-1.0905-2.75-2.7511v-7.00261c0-.8815.30885-1.60236.84608-2.08472l-1.38159-1.38221c-.29283-.29296-.29272-.76783.00024-1.06066zm2.44594 3.50794 9.26865 9.27276h-2.2143c-.3432 0-.6712.1411-.9072.3902l-2.55782 2.9169v-2.5558c0-.1592-.05057-.3132-.14281-.4404l-.07786-.0911c-.14065-.1407-.33141-.2198-.53033-.2198h-1.999c-.82739 0-1.25-.4205-1.25-1.2505v-7.00261c0-.47428.138-.81485.41067-1.01965z" fill-rule="evenodd"/><path d="m15.7502 3.93994c1.654 0 2.75 1.09051 2.75 2.75105l-.0004 6.50711c0 .4142-.3358.75-.75.75s-.75-.3358-.75-.75v-5.83238c0-.00791.0001-.0158.0004-.02366v-.65107c0-.82998-.4226-1.25048-1.25-1.25048l-7.50026-.00057c-.41421 0-.75-.33578-.75-.75 0-.41421.33579-.75.75-.75z"/></g></svg>
