<svg xmlns="http://www.w3.org/2000/svg" width="21" height="21" fill="none" viewBox="0 0 21 21"><path fill="currentColor" fill-rule="evenodd" d="M5.9196 2.5h8.1608c.5342 0 .98 0 1.3443.0297.3799.031.7365.0982 1.0738.27a2.7505 2.7505 0 0 1 1.2018 1.2018c.1718.3373.2389.694.27 1.0738C18 5.4396 18 5.8854 18 6.4195v4.161c0 .5341 0 .9799-.0297 1.3442-.0311.3799-.0982.7365-.27 1.0738a2.751 2.751 0 0 1-1.2018 1.2018c-.3373.1718-.6939.2389-1.0738.27-.3643.0297-.8101.0297-1.3442.0297h-1.5364l.1668 2H15a.75.75 0 0 1 0 1.5H5a.75.75 0 0 1 0-1.5h2.289l.1667-2H5.9195c-.5341 0-.98 0-1.3442-.0297-.3799-.0311-.7365-.0982-1.0738-.27a2.7505 2.7505 0 0 1-1.2018-1.2018c-.1718-.3373-.239-.6939-.27-1.0738C2 11.5604 2 11.1146 2 10.5804V6.4196c0-.5342 0-.98.0297-1.3443.031-.3799.0982-.7365.27-1.0738a2.75 2.75 0 0 1 1.2018-1.2018c.3373-.1718.694-.239 1.0738-.27C4.9396 2.5 5.3854 2.5 5.9196 2.5Zm3.0413 12-.1666 2h2.4114l-.1668-2h-2.078ZM4.6975 4.0248c-.2871.0234-.4244.0653-.515.1114a1.25 1.25 0 0 0-.5463.5463c-.0461.0906-.088.2279-.1114.515-.0242.2959-.0248.68-.0248 1.2525v4.1c0 .5724.0006.9566.0248 1.2525.0234.2871.0653.4244.1114.515.1199.2352.3111.4264.5463.5463.0906.0461.2279.088.515.1114.2959.0242.68.0248 1.2525.0248h8.1c.5724 0 .9566-.0006 1.2525-.0248.2871-.0234.4244-.0653.515-.1114a1.2508 1.2508 0 0 0 .5463-.5463c.0461-.0906.088-.2279.1114-.515.0242-.2959.0248-.6801.0248-1.2525v-4.1c0-.5724-.0006-.9566-.0248-1.2525-.0234-.2871-.0653-.4244-.1114-.515a1.2504 1.2504 0 0 0-.5463-.5463c-.0906-.0461-.2279-.088-.515-.1114C15.0066 4.0006 14.6224 4 14.05 4h-8.1c-.5724 0-.9566.0006-1.2525.0248Z" clip-rule="evenodd"/></svg>
