<svg fill="none" height="20" viewBox="0 0 20 20" width="20" xmlns="http://www.w3.org/2000/svg"><g clip-rule="evenodd" fill="currentColor" fill-rule="evenodd"><path d="m13.6799 7.33202c.2085-.62541-.3865-1.2204-1.0119-1.01193l-4.38146 1.46047c-.23888.07963-.42633.26708-.50596.50596l-1.46047 4.38138c-.20847.6254.38651 1.2204 1.01193 1.012l4.38146-1.4605c.2388-.0796.4263-.2671.5059-.506zm-4.58697 1.76088 2.72117-.90707-.907 2.72117-2.72125.9071z"/><path d="m10 1.5c-4.69442 0-8.5 3.80558-8.5 8.5 0 4.6944 3.80558 8.5 8.5 8.5 4.6944 0 8.5-3.8056 8.5-8.5 0-4.69442-3.8056-8.5-8.5-8.5zm-7 8.5c0-3.86599 3.13401-7 7-7 3.866 0 7 3.13401 7 7 0 3.866-3.134 7-7 7-3.86599 0-7-3.134-7-7z"/></g></svg>
