<svg fill="none" height="20" viewBox="0 0 20 20" width="20" xmlns="http://www.w3.org/2000/svg"><path clip-rule="evenodd" d="m9.40707 1.54722c.3929-.06296.79333-.06296 1.18623 0 .4446.07125.8654.24793 1.4734.50319.0263.01102.0529.02218.0798.03349l4.4219 1.85501c.0311.01305.062.02595.0926.03874.4394.18364.8256.34499 1.1215.62036.2591.241.4576.53971.5796.87187.1394.37952.1388.79815.1382 1.2746-.0001.03318-.0001.06665-.0001.1004v5.77802c0 .0394 0 .0783.0001.1167.0005.6545.001 1.1681-.1688 1.6304-.1492.406-.3918.7711-.7084 1.0656-.3606.3355-.8342.5337-1.4377.7862-.0354.0149-.0713.0299-.1076.0451l-3.9313 1.6492c-.0269.0113-.0535.0225-.0798.0335-.6079.2552-1.0288.4319-1.4734.5032-.3929.0629-.79333.0629-1.18623 0-.44463-.0713-.86545-.248-1.47343-.5032-.02624-.011-.05283-.0222-.07979-.0335l-3.93124-1.6492c-.03633-.0152-.07221-.0302-.10765-.0451-.60352-.2525-1.07713-.4507-1.43766-.7862-.31658-.2945-.55928-.6596-.70839-1.0656-.16981-.4623-.16937-.9759-.16879-1.6304.00003-.0384.00006-.0773.00006-.1167v-5.77802c0-.03375-.00004-.06722-.00009-.10041-.00067-.47644-.00125-.89507.13814-1.27459.122-.33216.32057-.63087.57959-.87187.29596-.27537.68211-.43672 1.12157-.62036.03062-.01279.06149-.02569.09261-.03874l4.42185-1.85501c.02696-.01131.05355-.02247.0798-.03349.60797-.25526 1.02879-.43194 1.47342-.50319zm1.34313 15.31498c.1859-.067.4345-.1698.8162-.3299l3.9313-1.6492c.7635-.3203.9644-.4166 1.1038-.5462.1439-.1339.2542-.2999.322-.4844.0656-.1787.0767-.4013.0767-1.2296v-5.75077l-4.8537 2.03615c-.0269.01131-.0535.02248-.0798.0335-.5383.22599-.9298.3904-1.3211.47457.003.0274.0046.05525.0046.08347zm-1.49543-7.44585c-.00303.0274-.00459.05525-.00459.08347v7.36238c-.18596-.067-.43454-.1698-.81624-.3299l-3.93123-1.6492c-.76355-.3203-.96448-.4166-1.10384-.5462-.1439-.1339-.25421-.2999-.32199-.4844-.06564-.1787-.0767-.4013-.0767-1.2296v-5.75077l4.85367 2.03615c.02696.01131.05355.02248.07979.03349.53828.226.92985.39041 1.32113.47458zm-5.65176-3.91848 4.83093 2.02662c.71818.30128.96509.39951 1.21037.43881.23575.03778.47599.03778.71179 0 .2452-.0393.4922-.13753 1.2103-.43881l.7256-.30438-6.03187-2.53041c-.10816-.04537-.2001-.11314-.27271-.19566l-1.97533.82866c-.17454.07322-.30706.12988-.40908.17517zm4.22691-1.77678 6.40138 2.68545 2.1661-.90867c-.1021-.04529-.2346-.10195-.4091-.17517l-4.4219-1.855c-.7181-.30128-.9651-.39951-1.2103-.43882-.2358-.03777-.47604-.03777-.71179 0-.24528.03931-.49219.13754-1.21037.43882z" fill="currentColor" fill-rule="evenodd"/></svg>
