<svg fill="none" height="20" viewBox="0 0 20 20" width="20" xmlns="http://www.w3.org/2000/svg"><path clip-rule="evenodd" d="m5.72852 3c.36526-.75681 1.13552-1.25 1.99225-1.25h4.55853c.8567 0 1.627.49319 1.9922 1.25h.0708c.374-.00001.6966-.00002.9628.02057.2806.02172.5604.06961.832.19946.4639.22175.8378.59568 1.0596 1.05954.1298.27164.1777.55136.1994.83206.0206.26617.0206.58879.0206.96273v.39587c0 .12215 0 .2546-.0093.36924-.0106.12976-.0369.30119-.127.47802-.1198.2352-.311.42643-.5462.54627-.1769.0901-.3483.11634-.478.12694-.1147.00936-.2471.00933-.3693.0093h-.1369v4.7321c0 .8129 0 1.4685-.0433 1.9994-.0447.5466-.1391 1.0267-.3654 1.471-.3595.7056-.9332 1.2792-1.6388 1.6388-.4442.2263-.9244.3207-1.471.3653-.5309.0434-1.1865.0434-1.9994.0434h-.46421c-.81283 0-1.46844 0-1.99934-.0434-.54664-.0446-1.02678-.139-1.471-.3653-.70561-.3596-1.27928-.9332-1.63881-1.6388-.22634-.4443-.3207-.9244-.36536-1.471-.04338-.5309-.04337-1.1866-.04336-1.9994v-4.7321h-.11667c-.0067 0-.01344 0-.02021 0-.12216.00003-.25462.00006-.36926-.0093-.12976-.0106-.30119-.03684-.47802-.12694-.2352-.11984-.42643-.31107-.54627-.54627-.0901-.17683-.11634-.34826-.12694-.47802-.00936-.11464-.00933-.24709-.0093-.36925 0-.00678 0-.01352 0-.02022v-.37564c-.00001-.37395-.00002-.69657.02057-.96273.02172-.2807.06961-.56042.19946-.83206.22175-.46386.59568-.83779 1.05954-1.05954.27164-.12985.55136-.17774.83206-.19946.26616-.02059.58878-.02058.96272-.02057zm.0215 5v4.7c0 .8525.00058 1.4467.03838 1.9093.03708.4539.10621.7147.20685.9122.21572.4233.55992.7676.98329.9833.19751.1006.45828.1697.91216.2068.46263.0378 1.05686.0384 1.90932.0384h.39998c.8525 0 1.4467-.0006 1.9093-.0384.4539-.0371.7147-.1062.9122-.2068.4234-.2157.7676-.56.9833-.9833.1006-.1975.1698-.4583.2068-.9122.0378-.4626.0384-1.0568.0384-1.9093v-4.7zm1.97075-4.75c-.30667 0-.57893.19624-.67591.48717-.15185.45555-.57817.76283-1.05837.76283h-.30147c-.40895 0-.67299.00052-.87433.0161-.19328.01496-.2656.04041-.30082.05724-.15462.07392-.27926.19856-.35318.35318-.01683.03522-.04228.10754-.05724.30082-.01558.20134-.0161.46538-.0161.87433v.34833c0 .01764 0 .03425.00001.04999.01574.00001.03235.00001.04999.00001h11.73335c.0176 0 .0342 0 .05-.00001 0-.01574 0-.03235 0-.04999v-.34833c0-.40895-.0005-.67299-.0161-.87433-.015-.19328-.0404-.2656-.0573-.30081-.0739-.15463-.1985-.27927-.3531-.35319-.0353-.01683-.1076-.04228-.3009-.05724-.2013-.01558-.4653-.0161-.8743-.0161h-.3015c-.4802 0-.9065-.30728-1.0583-.76283-.097-.29093-.3693-.48717-.6759-.48717z" fill="currentColor" fill-rule="evenodd"/></svg>
