<svg width="20" height="20" fill="none" xmlns="http://www.w3.org/2000/svg"><path fill-rule="evenodd" clip-rule="evenodd" d="M7.697 6.502a.75.75 0 00-.695.801l.5 7a.75.75 0 001.496-.106l-.5-7a.75.75 0 00-.801-.695zm4.606 0a.75.75 0 01.695.801l-.5 7a.75.75 0 01-1.496-.106l.5-7a.75.75 0 01.801-.695z" fill="currentColor"/><path fill-rule="evenodd" clip-rule="evenodd" d="M2.25 3a.75.75 0 000 1.5h1.066l.958 10.44c.045.489.083.898.14 1.233.06.35.15.675.331.98.279.47.691.846 1.185 1.08.32.153.652.213 1.006.24.338.027.75.027 1.24.027h3.647c.491 0 .903 0 1.24-.026.355-.028.687-.088 1.007-.24a2.75 2.75 0 001.185-1.081c.18-.305.27-.63.33-.98.058-.335.096-.744.14-1.233l.96-10.44h1.065a.75.75 0 000-1.5h-4.587a3.251 3.251 0 00-6.326 0H2.25zm3.516 11.774c.048.525.08.876.127 1.145.044.26.093.385.142.469.127.213.314.384.539.49.087.043.216.08.48.1.272.021.624.022 1.151.022h3.59c.527 0 .879 0 1.152-.022.263-.02.392-.057.48-.1a1.25 1.25 0 00.538-.49c.05-.084.098-.209.142-.469.046-.27.08-.62.127-1.145L15.178 4.5H4.822l.944 10.274zM10 2c-.698 0-1.3.409-1.582 1h3.164A1.75 1.75 0 0010 2z" fill="currentColor"/></svg>
