<svg fill="none" height="20" viewBox="0 0 20 20" width="20" xmlns="http://www.w3.org/2000/svg"><path clip-rule="evenodd" d="m7.983 2.25002h-1.983c-.81992 0-1.65487.36799-2.18614 1.03209l-2.882162 3.60269c-.26386.32983-.391153.7305-.383123 1.12854.000046.00228.000097.00457.000152.00686.009439.39193.1501.7809.420793 1.0967l7.70178 8.9854c.69842.8148 1.959.8148 2.6574 0l7.7018-8.9854c.2706-.31574.4113-.70462.4208-1.09648 0-.00276.0001-.00553.0001-.00829.0078-.39764-.1195-.79783-.3831-1.12733l-2.8822-3.60269c-.5312-.66409-1.3662-1.03209-2.1861-1.03209h-2.0175c.0115-.00027-.0115-.00027 0 0h-3.9995c.01147-.00027-.01151-.00027 0 0zm3.5092 1.5h-2.98442l-1.4 3.5h5.78442zm1.6155 0 1.4 3.5h2.9318l-2.4247-3.03087c-.2278-.28477-.6196-.46913-1.0148-.46913zm4.2616 5h-2.8819l-3.1036 6.98318zm-7.3693 6.40328 2.8459-6.40328h-5.69182zm-4.4874-6.40328 3.10362 6.98318-5.98556-6.98318zm-.02037-1.5 1.4-3.5h-.89223c-.39521 0-.78702.18436-1.01484.46913l-2.4247 3.03087z" fill="currentColor" fill-rule="evenodd"/></svg>
