<svg fill="none" height="20" viewBox="0 0 20 20" width="20" xmlns="http://www.w3.org/2000/svg" xmlns:xlink="http://www.w3.org/1999/xlink"><linearGradient id="a" gradientUnits="userSpaceOnUse" x1="-10" x2="10" y1="10" y2="30"><stop offset="0" stop-color="#70b2ff"/><stop offset="1" stop-color="#5c9ce6"/></linearGradient><path d="m0 10c0-5.52285 4.47715-10 10-10 5.5228 0 10 4.47715 10 10 0 5.5228-4.4772 10-10 10-5.52285 0-10-4.4772-10-10z" fill="url(#a)"/><path d="m12.7295 12.6518c.1574-.1645.2923-.3512.4032-.5586.2397-.4482.3673-.8927.3673-2.11854v-2.97466h.8976c.5572 0 .7592.05802.9629.16696s.3636.26881.4725.47251c.109.20371.167.40576.167.96296v6.04497c0 .0926-.0367.1814-.102.247-.1364.137-.358.1374-.495.001l-1.903-1.8954h-.7607c-.0828-.0001-.1499-.0672-.1499-.15 0-.0426.0181-.0831.0498-.1116.0351-.0315.0652-.0604.0903-.0866zm-6.2295-.6518-1.90301 1.8954c-.13696.1364-.35856.136-.49497-.001-.06534-.0656-.10202-.1544-.10202-.247v-6.04497c0-.5572.05802-.75925.16696-.96296.10894-.2037.26881-.36357.47251-.47251.20371-.10894.40576-.16696.96296-.16696h4.79517c.5572 0 .7592.05802.9629.16696s.3636.26881.4725.47251c.109.20371.167.40576.167.96296v2.79517c0 .5572-.058.7592-.167.9629-.1089.2037-.2688.3636-.4725.4725-.2037.109-.4057.167-.9629.167z" fill="#fff"/></svg>