<svg fill="none" height="20" viewBox="0 0 20 20" width="20" xmlns="http://www.w3.org/2000/svg"><g fill="currentColor"><path d="m12.8702 7.17649c.2358-.34056.1509-.80778-.1897-1.04356-.3406-.23577-.8078-.15083-1.0435.18973l-4.5001 6.49994c-.23578.3406-.15084.8078.18972 1.0436s.80778.1508 1.04356-.1897z"/><path d="m11 12.5c0-.5523.4477-1 1-1s1 .4477 1 1v.5c0 .5523-.4477 1-1 1s-1-.4477-1-1z"/><path d="m8 6c-.55228 0-1 .44772-1 1v.5c0 .55228.44772 1 1 1s1-.44772 1-1v-.5c0-.55228-.44772-1-1-1z"/><path clip-rule="evenodd" d="m7.37019 2.86923.0187.00049.01401-.0124c.04447-.03946.09558-.08581.16325-.14721l.03752-.03405c.24779-.22491.50557-.45889.74577-.63819.27255-.20344.63398-.42466 1.10645-.51722.34281-.06716.69541-.06716 1.03821 0 .4725.09256.8339.31378 1.1065.51722.2401.17929.4979.41327.7457.63819l.0375.03405c.0677.0614.1188.10775.1633.14721l.014.0124.0187-.00049c.0594-.00165.1284-.0043.2197-.00783l.0506-.00197c.3344-.01302.6823-.02656.9815-.00951.3396.01934.7586.0822 1.1801.31499.3058.16891.5759.39555.7953.66735.3024.37461.4371.77639.5151 1.10744.0688.29173.1158.63665.1611.96822l.0068.05022c.0124.09054.0218.15889.0305.21771l.0027.0185.0147.01165c.0466.03694.1011.07922.1733.13521l.04.03102c.2646.20497.5398.41821.758.62363.2477.23308.5283.55061.7016.99983.1256.32594.1868.67317.1802 1.02244-.0091.48136-.1642.87571-.3172 1.17947-.1349.2677-.3205.5622-.499.8452l-.027.0429c-.0487.0773-.0855.1357-.1166.1863l-.0098.016.0037.0183c.012.0583.0265.1257.0459.215l.0107.0496c.0709.327.1446.6672.1798.9649.0399.3377.0508.7613-.1053 1.2168-.1132.3305-.2895.6358-.5191.8991-.3164.3629-.6887.5653-1.0011.6996-.2754.1184-.6069.2246-.9256.3268l-.0483.0154c-.087.028-.1527.049-.2091.0678l-.0177.006-.0089.0164c-.0283.0523-.0605.1133-.1031.1942l-.0236.0448c-.1559.2961-.3181.6041-.4825.8548-.1866.2844-.4505.6158-.8629.8644-.2991.1804-.6304.301-.9756.3551-.4756.0746-.8909-.0096-1.2166-.1076-.287-.0863-.6093-.218-.919-.3446l-.0469-.0192c-.0846-.0345-.1485-.0606-.2038-.0825l-.0174-.0068-.01741.0068c-.05529.0219-.11916.048-.20376.0825l-.04692.0192c-.30977.1266-.63202.2583-.91904.3446-.3257.098-.74099.1822-1.21663.1076-.34511-.0541-.67643-.1747-.9756-.3551-.41232-.2486-.67629-.58-.86282-.8644-.16439-.2507-.3266-.5587-.48252-.8548l-.02361-.0448c-.04259-.0809-.07477-.1419-.10306-.1942l-.00892-.0164-.01774-.006c-.05642-.0188-.12211-.0398-.20912-.0678l-.04824-.0154c-.31868-.1022-.65021-.2084-.92557-.3268-.31247-.1343-.68476-.3367-1.00116-.6996-.22957-.2633-.40587-.5686-.51911-.8991-.15607-.4555-.14521-.8791-.10529-1.2168.03517-.2977.10891-.6379.1798-.965l.01073-.0495c.01934-.0893.03392-.1567.04586-.215l.00373-.0183-.00977-.016c-.03115-.0506-.06791-.109-.11663-.1863l-.02702-.0429c-.17847-.283-.36413-.5775-.49899-.8452-.15303-.30376-.30812-.69811-.31723-1.17947-.00662-.34927.05461-.6965.18028-1.02244.1732-.44922.45382-.76675.7015-.99983.21828-.20541.49346-.41864.75799-.62361l.04005-.03104c.07222-.05599.12674-.09827.17333-.13521l.01464-.01165.00276-.0185c.0087-.05882.01806-.12717.03043-.21771l.00686-.0502c.04524-.33157.09231-.67651.16107-.96824.07801-.33105.21269-.73283.51512-1.10744.21944-.2718.48954-.49844.79532-.66735.42143-.23279.8405-.29565 1.18006-.31499.29924-.01705.64712-.00351.98151.00951l.05062.00197c.09132.00353.16025.00618.21969.00783zm1.20388.95179c.56145-.50939.84217-.76409 1.17021-.82836.15236-.02985.30902-.02985.46142 0 .3281.06427.6088.31897 1.1702.82836.2638.23929.3956.35894.5511.43421.0734.03552.1502.06348.2292.08343.1675.04228.3455.03539.7013.02161.7575-.02932 1.1363-.04398 1.4289.11765.1359.07507.256.17579.3535.2966.21.26009.2613.63565.364 1.38676.0482.35283.0723.52925.143.68686.0334.07437.0743.14516.122.21125.1011.14004.2418.24914.5233.46732.5991.46447.8987.6967 1.019 1.0086.0558.14486.083.29919.0801.45442-.0063.33422-.2084.6549-.6126 1.29627-.1898.3013-.2847.4519-.3319.6181-.0222.0785-.0364.159-.0423.2403-.0126.1722.0251.3463.1005.6943.1604.741.2406 1.1114.1322 1.4276-.0503.1469-.1287.2826-.2307.3997-.2197.2519-.5806.3677-1.3025.5992-.3391.1088-.5086.1632-.6516.2602-.0674.0458-.13.0983-.1868.1568-.1204.1239-.2034.2814-.3694.5965-.3533.6707-.53 1.006-.8163 1.1786-.133.0802-.2802.1338-.4336.1578-.3303.0518-.6812-.0915-1.383-.3781-.3297-.1347-.4945-.202-.6663-.2196-.0811-.0083-.16287-.0083-.24397 0-.17185.0176-.33669.0849-.66637.2196-.70181.2866-1.05272.4299-1.38296.3781-.15338-.024-.30064-.0776-.4336-.1578-.28628-.1726-.46296-.5079-.81633-1.1786-.166-.3151-.249-.4726-.36936-.5965-.05679-.0585-.1194-.111-.18685-.1568-.14294-.097-.31249-.1514-.65159-.2602-.72187-.2315-1.08281-.3473-1.30249-.5992-.10203-.1171-.18038-.2528-.23071-.3997-.10836-.3162-.02815-.6866.13227-1.4276.07536-.348.11304-.5221.10049-.6943-.00593-.0813-.02012-.1618-.04236-.2403-.04713-.1662-.14206-.3168-.33192-.6181-.40415-.64137-.60623-.96205-.61256-1.29627-.00294-.15523.02427-.30956.08012-.45442.12026-.3119.41983-.54413 1.01898-1.0086.28146-.21818.42218-.32728.52331-.46732.04773-.06609.08859-.13688.12196-.21125.07072-.15761.09484-.33402.14307-.68686.10266-.75111.15399-1.12667.36398-1.38676.09753-.12081.21757-.22153.35347-.2966.29261-.16163.67137-.14697 1.4289-.11765.35585.01378.53378.02067.70127-.02161.07904-.01995.15584-.04791.22921-.08343.15549-.07528.28736-.19492.55111-.43421z" fill-rule="evenodd"/></g></svg>
