<svg fill="none" height="20" viewBox="0 0 20 20" width="20" xmlns="http://www.w3.org/2000/svg"><path clip-rule="evenodd" d="m17.2053 6.78343c.1096.17894.1904.37403.2394.57811.0553.23017.0553.47476.0553.96394v2.97452c0 2.5202 0 3.7804-.4905 4.743-.4314.8467-1.1198 1.5351-1.9665 1.9665-.9626.4905-2.2228.4905-4.743.4905h-.6c-2.52024 0-3.78035 0-4.74296-.4905-.84673-.4314-1.53514-1.1198-1.96657-1.9665-.49047-.9626-.49047-2.2228-.49047-4.743v-2.6c0-2.52024 0-3.78035.49047-4.74296.43143-.84673 1.11984-1.53514 1.96657-1.96657.96261-.49047 2.22272-.49047 4.74296-.49047h.9745c.4892 0 .7338 0 .964.05526.204.04899.3991.1298.5781.23946.2018.12368.3748.29663.7207.64254l3.6254 3.62548c.3459.3459.5189.51886.6426.72069zm-6.9053 10.21657h-.6c-1.28487 0-2.15831-.0012-2.83344-.0563-.65763-.0538-.99393-.1511-1.22853-.2707-.56449-.2876-1.02343-.7465-1.31105-1.311-.11953-.2346-.21692-.5709-.27065-1.2286-.05516-.6751-.05633-1.5485-.05633-2.8334v-2.6c0-1.28487.00117-2.15831.05633-2.83344.05373-.65763.15112-.99393.27065-1.22853.28762-.56449.74656-1.02343 1.31105-1.31105.2346-.11953.5709-.21692 1.22853-.27065.67513-.05516 1.54857-.05633 2.83344-.05633h.3v1.25.03142c-.00001.67338-.00002 1.22408.0366 1.67165.0378.46326.1185.88166.3176 1.2724.3116.61153.8088 1.10871 1.4203 1.4203.3908.19909.8092.27983 1.2724.31768.4476.03657.9983.03656 1.6717.03655h.0314 1.25v2.3c0 1.2849-.0012 2.1583-.0563 2.8334-.0538.6577-.1511.994-.2707 1.2286-.2876.5645-.7465 1.0234-1.311 1.311-.2346.1196-.5709.2169-1.2286.2707-.6751.0551-1.5485.0563-2.8334.0563zm5.57-9.5h-1.12c-.7124 0-1.2017-.00058-1.5809-.03157-.3705-.03027-.5695-.08578-.7136-.15917-.3293-.16778-.597-.43549-.7648-.76478-.0734-.14404-.1289-.34306-.1591-.71356-.031-.37925-.0316-.86848-.0316-1.58092v-1.12002c.0037.00337.0077.00693.0118.01068.0806.07355.1826.17507.3648.35726l3.6255 3.62548c.1822.18219.2837.28422.3572.36482.0038.00411.0073.00803.0107.01178z" fill="currentColor" fill-rule="evenodd"/></svg>
