<svg xmlns="http://www.w3.org/2000/svg" width="32" height="32" fill="currentColor" viewBox="0 0 32 32"><path fill-rule="evenodd" d="M18.243 9.097a2.5 2.5 0 0 0-4.486 0l-1.12 2.276-2.5.364a2.5 2.5 0 0 0-1.387 4.261l1.814 1.775-.429 2.507a2.5 2.5 0 0 0 3.631 2.633L16 21.734l2.234 1.178a2.5 2.5 0 0 0 3.63-2.632l-.428-2.507 1.814-1.775a2.5 2.5 0 0 0-1.387-4.26l-2.5-.365-1.12-2.276ZM16 10.2l-1.7 3.457-3.802.554 2.751 2.69-.65 3.8L16 18.907l3.4 1.794-.649-3.8 2.751-2.69-3.802-.554L16 10.2Z M16 2a13.96 13.96 0 0 0-9.9 4.1A13.96 13.96 0 0 0 2 16a13.96 13.96 0 0 0 4.1 9.9A13.96 13.96 0 0 0 16 30a13.96 13.96 0 0 0 9.9-4.1A13.96 13.96 0 0 0 30 16a13.96 13.96 0 0 0-4.1-9.9A13.96 13.96 0 0 0 16 2ZM7.868 7.868A11.46 11.46 0 0 1 16 4.5a11.46 11.46 0 0 1 8.132 3.368A11.46 11.46 0 0 1 27.5 16a11.46 11.46 0 0 1-3.368 8.132A11.46 11.46 0 0 1 16 27.5a11.46 11.46 0 0 1-8.132-3.368A11.46 11.46 0 0 1 4.5 16a11.46 11.46 0 0 1 3.368-8.132Z" clip-rule="evenodd"/></svg>
