<svg fill="none" height="20" viewBox="0 0 20 20" width="20" xmlns="http://www.w3.org/2000/svg" xmlns:xlink="http://www.w3.org/1999/xlink"><linearGradient id="a" gradientUnits="userSpaceOnUse" x1="-10" x2="10" y1="10" y2="30"><stop offset="0" stop-color="#ffb73d"/><stop offset="1" stop-color="#ffa000"/></linearGradient><path d="m0 10c0-5.52285 4.47715-10 10-10 5.5228 0 10 4.47715 10 10 0 5.5228-4.4772 10-10 10-5.52285 0-10-4.4772-10-10z" fill="url(#a)"/><path clip-rule="evenodd" d="m10 4c3.3137 0 6 2.68629 6 6 0 3.3137-2.6863 6-6 6-3.31371 0-6-2.6863-6-6 0-3.31371 2.68629-6 6-6zm.1106 2.5907c-.12377-.0611-.27368-.01027-.33478.11355l-.95139 1.92772-2.12737.30912c-.0544.00791-.10469.03353-.14307.0729-.09637.09887-.09435.25715.00452.35352l1.53938 1.50049-.3634 2.1188c-.00929.0542-.00047.1099.02512.1586.06425.1222.21541.1692.33762.1049l1.90277-1.0003 1.9028 1.0003c.0486.0256.1044.0345.1586.0252.1361-.0234.2275-.1526.2041-.2887l-.3634-2.1188 1.5394-1.50049c.0394-.03837.065-.08866.0729-.14307.0198-.13663-.0748-.2635-.2115-.28335l-2.1273-.30912-.9514-1.92772c-.0243-.04931-.0643-.08921-.1136-.11355z" fill="#fff" fill-rule="evenodd"/></svg>