<svg xmlns="http://www.w3.org/2000/svg" width="20" height="20" fill="currentColor" viewBox="0 0 20 20"><path fill-rule="evenodd" d="M10 1.5a8.476 8.476 0 0 0-6.01 2.49A8.476 8.476 0 0 0 1.5 10c0 2.347.952 4.473 2.49 6.01A8.476 8.476 0 0 0 10 18.5a8.476 8.476 0 0 0 6.01-2.49A8.476 8.476 0 0 0 18.5 10a8.476 8.476 0 0 0-2.49-6.01A8.476 8.476 0 0 0 10 1.5ZM5.05 5.05A6.976 6.976 0 0 1 10 3a6.98 6.98 0 0 1 4.95 2.05A6.976 6.976 0 0 1 17 10a6.975 6.975 0 0 1-2.05 4.95A6.975 6.975 0 0 1 10 17a6.976 6.976 0 0 1-4.95-2.05A6.976 6.976 0 0 1 3 10a6.98 6.98 0 0 1 2.05-4.95Zm5.96.551a1.15 1.15 0 0 0-2.02 0l-.936 1.716-1.921.36a1.15 1.15 0 0 0-.624 1.92l1.343 1.421-.252 1.939a1.15 1.15 0 0 0 1.634 1.187L10 13.306l1.766.838a1.15 1.15 0 0 0 1.634-1.187l-.252-1.939 1.343-1.42a1.15 1.15 0 0 0-.624-1.92l-1.921-.36L11.01 5.6Zm-1.98 3.06L10 6.883l.97 1.778 1.99.373-1.391 1.471.26 2.008L10 11.646l-1.83.869.261-2.009L7.04 9.034l1.99-.373Z" clip-rule="evenodd"/></svg>
