<svg fill="none" height="20" viewBox="0 0 20 20" width="20" xmlns="http://www.w3.org/2000/svg"><path clip-rule="evenodd" d="m9.25283 2.10712h.03288c.41422 0 .74999.33578.74999.75 0 .41421-.33577.75-.74999.75-1.14194 0-1.95357.00057-2.58797.05204-.62615.05079-1.01224.14738-1.31607.30219-.61152.31158-1.10871.80877-1.4203 1.4203-.15513.30447-.25151.68872-.30222 1.30935-.05142.62938-.05201 1.43364-.05201 2.56612v1.48568c0 1.1325.00059 1.9368.05201 2.5661.05071.6207.14709 1.0049.30222 1.3094.31159.6115.80878 1.1087 1.4203 1.4203.30383.1548.68992.2514 1.31607.3022.6344.0515 1.44603.052 2.58797.052.41422 0 .74999.3358.74999.75s-.33577.75-.74999.75h-.0329c-1.10176 0-1.9742 0-2.67636-.0569-.71739-.0582-1.32394-.1796-1.87576-.4608-.89377-.4554-1.62043-1.182-2.07583-2.0758-.28083-.5512-.40244-1.1548-.46073-1.8682-.057-.6976-.05699-1.5631-.05699-2.6553v-1.55168c0-1.09215-.00001-1.95765.05699-2.65527.05829-.71339.1799-1.31701.46073-1.86819.4554-.89377 1.18206-1.62043 2.07583-2.07582.55182-.28117 1.15837-.40257 1.87576-.46077.70217-.05696 1.57461-.05696 2.67638-.05695zm4.50257 4.50538c.2929-.29289.7678-.29289 1.0606 0l2.8572 2.85714c.2929.2929.2929.76776 0 1.06066l-2.8572 2.8571c-.2928.2929-.7677.2929-1.0606 0-.2929-.2928-.2929-.7677 0-1.0606l1.5768-1.5768h-6.76077c-.41422 0-.75-.3358-.75-.75003 0-.41421.33578-.75.75-.75h6.76077l-1.5768-1.57681c-.2929-.29289-.2929-.76777 0-1.06066z" fill="currentColor" fill-rule="evenodd"/></svg>
