<svg fill="none" height="20" viewBox="0 0 20 20" width="20" xmlns="http://www.w3.org/2000/svg" xmlns:xlink="http://www.w3.org/1999/xlink"><linearGradient id="a" gradientUnits="userSpaceOnUse" x1="-10" x2="10" y1="10" y2="30"><stop offset="0" stop-color="#70b2ff"/><stop offset="1" stop-color="#5c9ce6"/></linearGradient><path d="m0 10c0-5.52285 4.47715-10 10-10 5.5228 0 10 4.47715 10 10 0 5.5228-4.4772 10-10 10-5.52285 0-10-4.4772-10-10z" fill="url(#a)"/><path clip-rule="evenodd" d="m12.9878 9.51904-4.46986 4.46976c-.27789.2779-.37173.3627-.4855.4491-.11378.0864-.22481.1517-.35559.2092s-.25046.0984-.62834.2063l-2.22896.6369c-.13312.038-.27187-.0391-.3099-.1722-.01287-.045-.01287-.0927 0-.1377l.63684-2.229c.10797-.3778.14882-.4975.20632-.6283s.12283-.2418.20923-.3556.17118-.2076.44907-.4855l4.46979-4.46978c.0781-.0781.2048-.0781.2829 0l2.224 2.22398c.0781.0781.0781.20473 0 .28284zm-.4865-4.52721c.3161-.31606.4636-.39776.641-.45152.1773-.05375.3587-.05375.536 0 .1774.05376.3249.13546.6409.45152l.689.68893c.316.31606.3977.46358.4515.64092.0537.17734.0537.3587 0 .53605-.0538.17734-.1355.32486-.4515.64092l-.674.67399c-.0781.07811-.2048.07811-.2829 0l-2.224-2.22397c-.0781-.07811-.0781-.20474 0-.28285z" fill="#fff" fill-rule="evenodd"/></svg>