<svg fill="none" height="20" viewBox="0 0 20 20" width="20" xmlns="http://www.w3.org/2000/svg"><path clip-rule="evenodd" d="m3 10c0 3.866 3.13401 7 7 7 3.866 0 7-3.134 7-7 0-3.86599-3.134-7-7-7-3.86599 0-7 3.13401-7 7zm7-8.5c-4.69442 0-8.5 3.80558-8.5 8.5 0 4.6944 3.80558 8.5 8.5 8.5 4.6944 0 8.5-3.8056 8.5-8.5 0-4.69442-3.8056-8.5-8.5-8.5zm-.75 4.75c0-.41421.33579-.75.75-.75.4142 0 .75.33579.75.75v4.5c0 .4142-.3358.75-.75.75-.41421 0-.75-.3358-.75-.75zm.74998 6.75c-.49706 0-.9.4029-.9.9s.40294.9.9.9c.49702 0 .90002-.4029.90002-.9s-.403-.9-.90002-.9z" fill="currentColor" fill-rule="evenodd"/></svg>
