<svg fill="none" height="20" viewBox="0 0 20 20" width="20" xmlns="http://www.w3.org/2000/svg" xmlns:xlink="http://www.w3.org/1999/xlink"><clipPath id="a"><path d="m0 0h20v20h-20z"/></clipPath><g clip-path="url(#a)"><path clip-rule="evenodd" d="m10.8272 3.08414c-.3117-.7273-1.34274-.7273-1.65444 0l-1.42806 3.33215c-.13748.32078-.43224.54668-.77773.59603l-3.11514.44502c-.77795.11114-1.04979 1.09602-.439 1.59048l2.19316 1.77538c.2856.2312.42139.6004.35368.9616l-.6221 3.3178c-.15579.8309.81618 1.3987 1.46345.855l2.55578-2.1468c.3719-.3124.9145-.3124 1.2864 0l2.5558 2.1468c.6472.5437 1.6192-.0241 1.4634-.855l-.6221-3.3178c-.0677-.3612.0681-.7304.3537-.9616l2.1932-1.77538c.6108-.49446.3389-1.47934-.439-1.59048l-3.1152-.44502c-.3455-.04935-.6402-.27526-.7777-.59603zm-3.03315-.59088c.83119-1.939454 3.58065-1.939463 4.41185 0l1.3174 3.07387 2.837.40529c2.0745.29636 2.7994 2.92272 1.1707 4.24128l-1.9614 1.5878.5671 3.0247c.4155 2.2156-2.1765 3.7299-3.9025 2.28l-2.23421-1.8767-2.23418 1.8767c-1.72606 1.4499-4.31798-.0644-3.90255-2.28l.56714-3.0247-1.96136-1.5878c-1.628793-1.31856-.90388-3.94492 1.17066-4.24128l2.83697-.40529z" fill="currentColor" fill-rule="evenodd"/></g></svg>
