<svg xmlns="http://www.w3.org/2000/svg" width="20" height="20" fill="none" viewBox="0 0 20 20"><path fill="currentColor" d="m7.281 4.9855-.5246 1.2126c-.0366.0846-.0549.127-.0834.1598a.2812.2812 0 0 1-.0907.0693c-.0392.0188-.0847.0252-.1757.038l-.7497.1062c-2.1495.3041-3.2243.4562-3.676.9598a1.8649 1.8649 0 0 0-.4397 1.6112c.133.664.9808 1.3438 2.6763 2.7033l.2736.2194c.0769.0616.1153.0925.1403.1314a.2821.2821 0 0 1 .042.1138c.0063.0458-.003.0943-.0213.1913l-.0844.4459c-.4737 2.5026-.7106 3.754-.3384 4.3659a1.8548 1.8548 0 0 0 1.505.8903c.7141.0307 1.6915-.7826 3.6463-2.409l.337-.2804c.1023-.0851.1534-.1276.2104-.1438a.2792.2792 0 0 1 .1538 0c.057.0162.1081.0587.2103.1438l.337.2804c1.9548 1.6264 2.9323 2.4397 3.6464 2.409a1.8548 1.8548 0 0 0 1.505-.8903c.3722-.6119.1353-1.8633-.3384-4.3659l-.0844-.4459c-.0184-.097-.0276-.1455-.0213-.1913a.2816.2816 0 0 1 .042-.1138c.0249-.0389.0634-.0698.1403-.1314l.2736-.2194c1.6954-1.3595 2.5432-2.0392 2.6762-2.7033a1.8647 1.8647 0 0 0-.4397-1.6112c-.4517-.5036-1.5264-.6557-3.6759-.9598l-.7497-.1061c-.091-.0129-.1366-.0193-.1757-.0381a.2808.2808 0 0 1-.0908-.0693c-.0284-.0329-.0467-.0752-.0833-.1598l-.5247-1.2126c-.8598-1.9872-1.2898-2.9808-1.8924-3.2837a1.851 1.851 0 0 0-1.6628 0c-.6027.3029-1.0326 1.2965-1.8924 3.2837Z"/></svg>
