<svg xmlns="http://www.w3.org/2000/svg" width="20" height="20" fill="none" viewBox="0 0 20 20"><path fill="currentColor" fill-rule="evenodd" d="M10.8272 3.0841c-.3117-.7273-1.3427-.7273-1.6544 0l-1.428 3.3322a1 1 0 0 1-.7778.596l-3.1152.445c-.778.1112-1.0497 1.096-.439 1.5905l2.1932 1.7754a1 1 0 0 1 .3537.9616l-.6221 3.3178c-.1558.8309.8162 1.3987 1.4634.855l2.5558-2.1468a1 1 0 0 1 1.2864 0l2.5558 2.1468c.6472.5437 1.6192-.0241 1.4634-.855l-.6221-3.3178a1.0001 1.0001 0 0 1 .3537-.9616l2.1932-1.7754c.6108-.4944.3389-1.4793-.439-1.5905l-3.1152-.445a1 1 0 0 1-.7777-.596L10.8272 3.084Zm-3.0331-.5908c.8311-1.9395 3.5807-1.9395 4.4119 0l1.3173 3.0738 2.837.4053c2.0745.2964 2.7995 2.9227 1.1707 4.2413l-1.9614 1.5878.5671 3.0247c.4155 2.2156-2.1764 3.7299-3.9025 2.28L10 15.2295l-2.2342 1.8767c-1.726 1.4499-4.318-.0644-3.9025-2.28l.5671-3.0247-1.9613-1.5878c-1.6288-1.3186-.904-3.945 1.1706-4.2413l2.837-.4053L7.794 2.4933Z" clip-rule="evenodd"/></svg>
