<svg fill="none" height="20" viewBox="0 0 20 20" width="20" xmlns="http://www.w3.org/2000/svg"><path clip-rule="evenodd" d="m7.5 7.75c-.55228 0-1-.44772-1-1s.44772-1 1-1 1 .44772 1 1-.44772 1-1 1zm-2.38555-1.75c.31857-1.01428 1.26614-1.75 2.38555-1.75s2.06698.73572 2.38555 1.75h6.36445c.4142 0 .75.33579.75.75s-.3358.75-.75.75h-6.36445c-.31857 1.01428-1.26614 1.75-2.38555 1.75s-2.06698-.73572-2.38555-1.75h-1.36445c-.41421 0-.75-.33579-.75-.75s.33579-.75.75-.75zm7.38555 8.25c.5523 0 1-.4477 1-1s-.4477-1-1-1-1 .4477-1 1 .4477 1 1 1zm2.3855-1.75c-.3185-1.0143-1.2661-1.75-2.3855-1.75s-2.067.7357-2.3855 1.75h-6.3645c-.41421 0-.75.3358-.75.75s.33579.75.75.75h6.3645c.3185 1.0143 1.2661 1.75 2.3855 1.75s2.067-.7357 2.3855-1.75h1.3645c.4142 0 .75-.3358.75-.75s-.3358-.75-.75-.75z" fill="currentColor" fill-rule="evenodd"/></svg>
