<svg fill="none" height="20" viewBox="0 0 20 20" width="20" xmlns="http://www.w3.org/2000/svg" xmlns:xlink="http://www.w3.org/1999/xlink"><linearGradient id="a" gradientUnits="userSpaceOnUse" x1="-10" x2="10" y1="10" y2="30"><stop offset="0" stop-color="#ff5263"/><stop offset="1" stop-color="#ff3347"/></linearGradient><path d="m0 10c0-5.52285 4.47715-10 10-10 5.5228 0 10 4.47715 10 10 0 5.5228-4.4772 10-10 10-5.52285 0-10-4.4772-10-10z" fill="url(#a)"/><path d="m7.5 6.84001c1.12702-.69 1.89995-1.90675 1.99098-3.3109 1.63622.82172 2.75902 2.51519 2.75902 4.4709 0 .57582-.0973 1.1289-.2765 1.64369.8492-.25634 1.5078-.9522 1.7111-1.82307.8128.81414 1.3154 1.93806 1.3154 3.17937 0 1.9593-1.2522 3.6262-3 4.2439-1.7478-.6177-3-2.2846-3-4.2439 0-.0497.00081-.0992.00241-.1485-.6238.7054-1.00241 1.6328-1.00241 2.6485 0 .4852.08637.9501.24457 1.3804-1.86194-.4517-3.24457-2.1296-3.24457-4.1304 0-1.59393.87746-2.98292 2.1757-3.71028z" fill="#fff"/></svg>