<svg xmlns="http://www.w3.org/2000/svg" width="20" height="20" fill="none" viewBox="0 0 20 20"><path fill="currentColor" d="M7.8667 16.722c-.4913 1.9497.2463 2.3536 1.566.9302l5.543-6.2759c1.2825-1.5425.9613-2.7818-.8856-3.0916l-2.6726-.4877c-.1561-.0285-.2592-.1763-.2303-.3301a.262.262 0 0 1 .0033-.0152l1.0284-4.1812c.4927-1.9621-.3284-2.3175-1.5602-.927-1.7699 1.9663-3.1148 3.4518-4.035 4.4562-.3207.3502-.837.8969-1.549 1.64-1.5603 1.7059-.739 2.9432 1.0656 3.253l2.5541.4512c.1563.0276.2603.1748.2323.3288a.2942.2942 0 0 1-.0038.0177L7.8667 16.722Z"/></svg>
