<svg width="20" height="20" fill="none" xmlns="http://www.w3.org/2000/svg"><path fill-rule="evenodd" clip-rule="evenodd" d="M3.394 2.34a.75.75 0 01.767.033l8 5.25A.75.75 0 0111.75 9h-8A.75.75 0 013 8.25V3a.75.75 0 01.394-.66zM4.5 4.39V7.5h4.74L4.5 4.39zM3 11.75a.75.75 0 01.75-.75h8a.75.75 0 01.412 1.377l-8 5.25A.75.75 0 013 17v-5.25zm1.5.75v3.11l4.74-3.11H4.5zM15.47 3.47a.75.75 0 011.06 0l2 2a.75.75 0 01-1.06 1.06l-.72-.72v8.38l.72-.72a.75.75 0 111.06 1.06l-2 2a.75.75 0 01-1.06 0l-2-2a.75.75 0 111.06-1.06l.72.72V5.81l-.72.72a.75.75 0 11-1.06-1.06l2-2z" fill="currentColor"/></svg>
