<svg width="20" height="20" fill="none" xmlns="http://www.w3.org/2000/svg"><path fill-rule="evenodd" clip-rule="evenodd" d="M8.465 7.531A.75.75 0 019 8.25v8a.75.75 0 01-.75.75H3a.75.75 0 01-.627-1.162l5.25-8a.75.75 0 01.842-.307zM4.389 15.5H7.5v-4.74L4.39 15.5zM6.53 1.47a.75.75 0 010 1.06l-.72.72h8.38l-.72-.72a.75.75 0 011.06-1.06l2 2a.75.75 0 010 1.06l-2 2a.75.75 0 11-1.06-1.06l.72-.72H5.81l.72.72a.75.75 0 01-1.06 1.06l-2-2a.75.75 0 010-1.06l2-2a.75.75 0 011.06 0zM11.535 7.531a.75.75 0 01.842.308l5.25 8A.75.75 0 0117 17h-5.25a.75.75 0 01-.75-.75v-8a.75.75 0 01.535-.719zm.965 3.229v4.74h3.11l-3.11-4.74z" fill="currentColor"/></svg>
