<svg xmlns="http://www.w3.org/2000/svg" width="20" height="20" fill="currentColor" viewBox="0 0 20 20"><path fill-rule="evenodd" d="M6.195 3.539c.39 0 .467.004.531.02a.75.75 0 0 1 .23.095c.056.035.113.086.388.363l.715.721.044.045c.216.218.406.41.636.552.202.125.423.217.653.273.263.063.534.063.84.063h3.518c.712 0 1.202 0 1.58.031.371.03.57.086.714.16.33.167.598.435.765.764.13.254.182.684.19 1.688a.75.75 0 0 0 1.5-.01c-.007-.922-.034-1.732-.353-2.359a3.25 3.25 0 0 0-1.42-1.42c-.391-.2-.81-.28-1.273-.318-.447-.037-.998-.037-1.672-.037h-3.486c-.404 0-.484-.004-.55-.02a.75.75 0 0 1-.218-.091c-.059-.036-.118-.09-.403-.377l-.715-.72-.043-.044c-.208-.21-.391-.395-.611-.534a2.25 2.25 0 0 0-.69-.287c-.253-.059-.513-.058-.809-.058h-.09c-.65 0-1.18 0-1.612.034-.446.035-.85.11-1.23.295A3.25 3.25 0 0 0 1.83 3.863c-.185.38-.26.784-.295 1.23-.034.432-.034.962-.034 1.611v5.616c0 .674 0 1.224.037 1.672.037.463.118.882.317 1.272a3.25 3.25 0 0 0 1.42 1.42c.391.2.81.28 1.273.318.447.037.998.037 1.672.037h6.783a.75.75 0 1 0 0-1.5H6.25c-.712 0-1.202 0-1.58-.032-.371-.03-.57-.085-.714-.159a1.75 1.75 0 0 1-.765-.765c-.074-.144-.13-.343-.16-.713C3.002 13.49 3 13 3 12.289V6.734c0-.686 0-1.157.03-1.523.028-.357.08-.55.147-.69a1.75 1.75 0 0 1 .805-.805c.14-.068.333-.12.69-.148.366-.029.837-.03 1.523-.03Zm9.058 13.711a.75.75 0 0 0 1.5 0v-4.692l.968.968a.75.75 0 1 0 1.06-1.061l-2.247-2.248a.75.75 0 0 0-1.061 0l-2.248 2.248a.75.75 0 1 0 1.06 1.06l.968-.967v4.692Z" clip-rule="evenodd"/></svg>
