<svg xmlns="http://www.w3.org/2000/svg" width="20" height="20" fill="none" viewBox="0 0 20 20"><path fill="currentColor" fill-rule="evenodd" d="M4.249 4c-.6903 0-1.25.5596-1.25 1.25V8h8.151a.75.75 0 0 1 0 1.5H2.999v5.25c0 .6904.5597 1.25 1.25 1.25H8.75a.75.75 0 0 1 0 1.5H4.249c-1.5188 0-2.75-1.2312-2.75-2.75v-9.5c0-1.5188 1.2312-2.75 2.75-2.75h2.8335a1.75 1.75 0 0 1 1.2444.5196l1.4129 1.429a.25.25 0 0 0 .1777.0743h5.8334c1.5187 0 2.75 1.2312 2.75 2.75V7.5a.75.75 0 0 1-1.5 0v-.227c0-.6903-.5597-1.25-1.25-1.25H9.9176a1.75 1.75 0 0 1-1.2445-.5196l-1.4129-1.429A.25.25 0 0 0 7.0824 4H4.249Z" clip-rule="evenodd"/><path fill="currentColor" fill-rule="evenodd" d="M19 13.5999v2.8c0 .5601 0 .8401-.109 1.054a.9993.9993 0 0 1-.437.437c-.2139.109-.4939.109-1.054.109h-4.8c-.5601 0-.8401 0-1.054-.109a.9993.9993 0 0 1-.437-.437C11 17.24 11 16.96 11 16.3999v-2.8c0-.56 0-.84.109-1.054a1.0003 1.0003 0 0 1 .437-.437c.2008-.1023.4598-.1086.954-.1089v-.5001c0-1.3807 1.1193-2.5 2.5-2.5s2.5 1.1193 2.5 2.5V12c.4942.0003.7532.0066.954.1089.1882.0959.3411.2489.437.437.109.214.109.494.109 1.054Zm-4-3.1c-.5523 0-1 .4478-1 1v.5h2v-.5c0-.5522-.4477-1-1-1Z" clip-rule="evenodd"/></svg>
