<svg xmlns="http://www.w3.org/2000/svg" width="20" height="20" fill="currentColor" viewBox="0 0 20 20"><path fill-rule="evenodd" d="M7.066 2.058C6.812 2 6.552 2 6.256 2h-.09c-.65 0-1.18 0-1.612.034-.446.035-.85.11-1.23.295A3.25 3.25 0 0 0 1.83 3.824c-.185.38-.26.784-.295 1.23-.034.432-.034.962-.034 1.611v5.616c0 .674 0 1.224.037 1.672.037.463.118.882.317 1.272a3.25 3.25 0 0 0 1.42 1.42c.391.2.81.28 1.273.318.447.037.998.037 1.671.037h7.563c.674 0 1.224 0 1.672-.037.463-.038.882-.118 1.272-.317a3.25 3.25 0 0 0 1.42-1.42c.2-.391.28-.81.318-1.273.037-.448.037-.998.037-1.672V8.85c0-.673 0-1.224-.037-1.672-.037-.463-.118-.881-.317-1.272a3.25 3.25 0 0 0-1.42-1.42c-.391-.2-.81-.28-1.273-.318-.447-.037-.998-.037-1.672-.037h-3.486c-.404 0-.484-.004-.55-.02a.75.75 0 0 1-.218-.091c-.059-.036-.118-.09-.403-.377l-.758-.764c-.208-.21-.391-.395-.611-.534a2.25 2.25 0 0 0-.69-.287ZM6.196 3.5c.39 0 .466.004.53.02a.75.75 0 0 1 .23.095c.056.035.113.086.388.363l.759.766c.216.218.406.41.636.552.202.125.423.217.653.273.263.063.534.063.84.063h3.518c.712 0 1.202 0 1.58.031.371.03.57.086.714.16.33.167.598.435.765.764.074.144.13.343.16.714.005.063.009.129.012.199H3v-.805c0-.686 0-1.157.03-1.523.027-.357.08-.55.147-.69a1.75 1.75 0 0 1 .805-.805c.14-.068.333-.12.69-.148.366-.029.837-.03 1.523-.03ZM3 9v3.25c0 .712 0 1.202.032 1.58.03.371.085.57.159.714.167.33.435.597.764.765.145.074.344.129.714.16.38.03.869.03 1.581.03h7.5c.712 0 1.202 0 1.58-.03.371-.031.57-.086.714-.16a1.75 1.75 0 0 0 .765-.765c.074-.144.13-.343.16-.713.03-.38.031-.869.031-1.581V9H3Z" clip-rule="evenodd"/></svg>
