<svg xmlns="http://www.w3.org/2000/svg" width="20" height="20" fill="currentColor" viewBox="0 0 20 20"><path fill-rule="evenodd" d="M3 11.746V9h14v3.25c0 .712 0 1.202-.032 1.58-.03.371-.085.57-.159.714a1.75 1.75 0 0 1-.765.765c-.144.074-.343.129-.713.16-.38.03-.869.03-1.581.03h-1.902a.75.75 0 1 0 0 1.5h1.933c.674 0 1.224 0 1.672-.036.463-.038.882-.118 1.273-.317a3.25 3.25 0 0 0 1.42-1.42c.199-.391.28-.81.317-1.273.037-.448.037-.998.037-1.672V8.85c0-.673 0-1.224-.037-1.672-.037-.463-.118-.881-.317-1.272a3.25 3.25 0 0 0-1.42-1.42c-.391-.2-.81-.28-1.273-.318-.447-.037-.998-.037-1.672-.037h-3.486c-.404 0-.484-.004-.55-.02a.75.75 0 0 1-.218-.091c-.059-.036-.118-.09-.403-.377l-.758-.764c-.208-.21-.391-.395-.611-.534a2.25 2.25 0 0 0-.69-.287C6.813 2 6.553 2 6.257 2h-.09c-.65 0-1.18 0-1.612.034-.446.035-.85.11-1.23.295A3.25 3.25 0 0 0 1.83 3.824c-.185.38-.26.784-.295 1.23-.034.432-.034.962-.034 1.611v5.081a.75.75 0 0 0 1.5 0Zm3.726-8.227c-.064-.015-.14-.02-.53-.02-.687 0-1.158.001-1.524.03-.357.028-.55.08-.69.148a1.75 1.75 0 0 0-.805.805c-.068.14-.12.333-.148.69C3.001 5.538 3 6.01 3 6.695V7.5h13.982a6.543 6.543 0 0 0-.014-.2c-.03-.37-.085-.569-.159-.713a1.75 1.75 0 0 0-.765-.765c-.144-.073-.343-.129-.713-.159-.38-.031-.869-.032-1.581-.032h-3.517c-.307 0-.578.001-.84-.062a2.25 2.25 0 0 1-.654-.273c-.23-.141-.42-.334-.636-.552l-.76-.766c-.274-.277-.331-.328-.387-.363a.75.75 0 0 0-.23-.096Z M2.25 14a.75.75 0 0 0 0 1.5h5.19l-1.72 1.72a.75.75 0 1 0 1.06 1.06l3-3a.75.75 0 0 0 0-1.06l-3-3a.75.75 0 0 0-1.06 1.06L7.44 14H2.25Z"/></svg>
