<svg xmlns="http://www.w3.org/2000/svg" width="20" height="20" fill="currentColor" viewBox="0 0 20 20"><path fill-rule="evenodd" d="M7.066 2.058C6.812 2 6.552 2 6.256 2h-.09c-.65 0-1.18 0-1.612.034-.446.035-.85.11-1.23.295A3.25 3.25 0 0 0 1.83 3.824c-.185.38-.26.784-.295 1.23-.034.432-.034.963-.034 1.611v5.616c0 .674 0 1.224.037 1.672.037.463.118.882.317 1.273a3.25 3.25 0 0 0 1.42 1.42c.391.199.81.28 1.273.317.447.037.998.037 1.672.037h7.562c.674 0 1.224 0 1.672-.037.463-.037.882-.118 1.273-.317a3.25 3.25 0 0 0 1.42-1.42c.199-.391.28-.81.317-1.273.037-.447.037-.998.037-1.672v-3.43c0-.674 0-1.225-.037-1.672-.037-.464-.118-.882-.317-1.273a3.25 3.25 0 0 0-1.42-1.42c-.391-.2-.81-.28-1.273-.318-.447-.036-.998-.036-1.672-.036h-3.486c-.404 0-.484-.005-.55-.021a.75.75 0 0 1-.218-.091c-.059-.036-.118-.09-.403-.377l-.758-.764c-.208-.21-.391-.395-.611-.534a2.25 2.25 0 0 0-.69-.287Z" clip-rule="evenodd"/></svg>
