<svg xmlns="http://www.w3.org/2000/svg" width="20" height="20" fill="none" viewBox="0 0 20 20"><path fill="#99A2AD" fill-rule="evenodd" d="M5.7197 11.2197a.75.75 0 0 1 1.0606 0l3 3a.75.75 0 0 1 0 1.0607l-3 3a.75.75 0 1 1-1.0606-1.0607l1.7197-1.7196H2.25a.75.75 0 0 1 0-1.5h5.1893l-1.7196-1.7197a.75.75 0 0 1 0-1.0607Z" clip-rule="evenodd"/><path fill="currentColor" fill-rule="evenodd" d="M2.249 12.5001a.75.75 0 0 0 .75-.75v-2.25h14.002v4.05c0 .5724-.0006.9567-.0248 1.2525-.0235.2872-.0653.4244-.1115.515a1.2502 1.2502 0 0 1-.5463.5463c-.0905.0461-.2278.088-.5149.1115-.2959.0241-.6801.0247-1.2525.0247H11.5a.75.75 0 0 0 0 1.5h3.0813c.5342 0 .98 0 1.3442-.0297.3799-.0311.7366-.0982 1.0738-.27a2.75 2.75 0 0 0 1.2018-1.2018c.1719-.3373.239-.6939.27-1.0738.0298-.3643.0298-.8101.0298-1.3443V8.4427c0-.5342 0-.98-.0298-1.3443-.031-.38-.0981-.7366-.27-1.0738a2.7494 2.7494 0 0 0-1.2018-1.2018c-.3372-.1719-.6939-.239-1.0738-.27-.3642-.0298-.8101-.0298-1.3442-.0298h-4.4132c-.1298 0-.2024-.0001-.2573-.0027a.2423.2423 0 0 1-.1643-.0686c-.0404-.0373-.0916-.0887-.1829-.181L8.469 3.1633c-.1381-.1403-.286-.2903-.4662-.4018a1.7502 1.7502 0 0 0-.509-.2124c-.206-.0499-.4165-.0495-.6134-.0491H5.4186c-.5342 0-.98 0-1.3442.0297-.38.031-.7366.0982-1.0738.27a2.75 2.75 0 0 0-1.2018 1.2018c-.1719.3373-.239.694-.27 1.0739-.0298.3642-.0298.81-.0298 1.3442V11.75a.75.75 0 0 0 .75.75Zm4.8402-8.4973c-.055-.0025-.1275-.0027-.2573-.0027H5.449c-.5724 0-.9566.0006-1.2525.0248-.2871.0234-.4244.0653-.515.1115a1.25 1.25 0 0 0-.5462.5462c-.0462.0906-.088.2279-.1115.515-.0242.2959-.0248.68-.0248 1.2525v1.55H17c-.0017-.325-.0071-.5737-.0239-.7796-.0235-.2871-.0653-.4244-.1115-.515a1.2499 1.2499 0 0 0-.5463-.5462c-.0905-.0462-.2278-.088-.5149-.1115-.2959-.0242-.6801-.0248-1.2525-.0248h-4.4313c-.1968.0004-.4075.0008-.6135-.049a1.75 1.75 0 0 1-.5089-.2125C8.817 5.65 8.6692 5.5 8.531 5.3598l-.034-.0346-1.0606-1.0727c-.0913-.0923-.1424-.1438-.1829-.181a.2431.2431 0 0 0-.1643-.0687Z" clip-rule="evenodd"/></svg>
