<svg xmlns="http://www.w3.org/2000/svg" width="20" height="20" fill="currentColor" viewBox="0 0 20 20"><path fill-rule="evenodd" d="M6.726 3.52c-.064-.015-.14-.02-.53-.02-.687 0-1.158 0-1.524.03-.357.028-.55.08-.69.147a1.75 1.75 0 0 0-.805.805c-.068.14-.12.333-.148.69C3.001 5.538 3 6.01 3 6.695v5.555c0 .713 0 1.202.032 1.58.03.371.085.57.159.714.168.33.435.598.765.765.144.074.343.13.713.16.38.03.869.031 1.581.031h7.5c.712 0 1.202 0 1.58-.032.371-.03.57-.085.714-.159a1.75 1.75 0 0 0 .765-.764c.074-.145.13-.344.16-.714.03-.38.031-.869.031-1.581V8.882c0-.713 0-1.202-.032-1.581-.03-.37-.085-.57-.159-.714a1.75 1.75 0 0 0-.765-.765c-.144-.073-.343-.129-.713-.159-.38-.03-.869-.031-1.581-.031h-3.517c-.307 0-.578 0-.84-.063a2.25 2.25 0 0 1-.654-.272c-.23-.142-.42-.335-.636-.553L8.059 4.7l-.715-.721c-.275-.277-.332-.329-.388-.364a.75.75 0 0 0-.23-.096ZM6.256 2c.296 0 .556 0 .81.058.244.057.477.154.689.287.22.139.403.324.611.534l.043.043.715.721c.285.288.344.341.403.377a.75.75 0 0 0 .217.09c.067.017.147.022.552.022h3.485c.674 0 1.224 0 1.672.036.463.038.882.119 1.273.318a3.25 3.25 0 0 1 1.42 1.42c.199.39.28.81.317 1.273.037.447.037.998.037 1.671v3.431c0 .674 0 1.224-.037 1.672-.037.463-.118.882-.317 1.273a3.25 3.25 0 0 1-1.42 1.42c-.391.199-.81.28-1.273.317-.447.037-.998.037-1.672.037H6.22c-.674 0-1.225 0-1.672-.037-.463-.037-.882-.118-1.272-.317a3.25 3.25 0 0 1-1.42-1.42c-.2-.391-.28-.81-.318-1.273-.037-.447-.037-.998-.037-1.672V6.665c0-.648 0-1.179.034-1.61.035-.447.11-.851.295-1.23a3.25 3.25 0 0 1 1.495-1.496c.38-.185.784-.26 1.23-.295C4.986 2 5.517 2 6.165 2h.091Z" clip-rule="evenodd"/></svg>
