<svg xmlns="http://www.w3.org/2000/svg" width="20" height="20" fill="none" viewBox="0 0 20 20"><path fill="currentColor" fill-rule="evenodd" d="M7.494 2.5492c-.206-.0499-.4167-.0495-.6136-.0491H5.4186c-.5341 0-.98 0-1.3442.0297-.38.031-.7366.0982-1.0738.27a2.75 2.75 0 0 0-1.2018 1.2018c-.1719.3373-.239.694-.27 1.0739-.032.3908-.031.7842-.03 1.1765l.0003.1981v7.1305c0 .5341 0 .98.0297 1.3442.031.3799.0981.7365.27 1.0738a2.7505 2.7505 0 0 0 1.2018 1.2018c.3372.1718.6939.2389 1.0738.27.3642.0297.81.0297 1.3442.0297h9.1627c.5342 0 .98 0 1.3443-.0297.3798-.0311.7365-.0982 1.0738-.27a2.7503 2.7503 0 0 0 1.2017-1.2018c.1719-.3373.239-.6939.27-1.0738.0298-.3643.0298-.8101.0298-1.3443V8.4427c0-.5342 0-.98-.0298-1.3443-.031-.38-.0981-.7366-.27-1.0738a2.7497 2.7497 0 0 0-1.2017-1.2018c-.3373-.1719-.694-.239-1.0738-.27-.3643-.0298-.8101-.0298-1.3443-.0298h-4.4132c-.1298 0-.2024-.0001-.2573-.0027-.0655-.003-.1136-.025-.1643-.0686-.0404-.0373-.0916-.0887-.1828-.181L8.469 3.1633c-.1381-.1402-.286-.2903-.4662-.4018a1.7502 1.7502 0 0 0-.5089-.2124Zm-.662 1.451c.1298 0 .2023.0001.2572.0026.0687.0032.1162.0242.1644.0686.0404.0373.0915.0888.1828.1811L8.531 5.3598c.1382.1402.286.2902.4663.4017a1.75 1.75 0 0 0 .5088.2125c.206.0498.4167.0494.6135.049h4.4313c.5724 0 .9566.0006 1.2525.0248.2871.0235.4244.0653.515.1115.2352.1198.4264.311.5462.5462.0462.0906.0881.2279.1115.515.0168.2059.0222.4545.024.7796H2.9991v-1.55c0-.5724.0005-.9566.0247-1.2525.0235-.2871.0654-.4244.1115-.515a1.25 1.25 0 0 1 .5463-.5462c.0905-.0462.2278-.088.515-.1115C4.4923 4.0007 4.8765 4 5.449 4h1.383ZM2.999 13.55c0 .5724.0006.9567.0248 1.2525.0235.2872.0654.4244.1115.515.1198.2352.311.4264.5463.5463.0905.0461.2278.088.515.1115.2958.0241.68.0247 1.2524.0247h9.1019c.5724 0 .9566-.0006 1.2525-.0247.2871-.0235.4244-.0654.515-.1115a1.25 1.25 0 0 0 .5462-.5463c.0462-.0906.0881-.2278.1115-.515.0242-.2958.0248-.6801.0248-1.2525V9.5H3l-.001 4.05Z" clip-rule="evenodd"/></svg>
