<svg xmlns="http://www.w3.org/2000/svg" width="20" height="20" fill="currentColor" viewBox="0 0 20 20"><path fill-rule="evenodd" d="M6.629 2.195A8.474 8.474 0 0 1 10 1.5a8.475 8.475 0 0 1 6.551 3.084 8.468 8.468 0 0 1 1.94 5.802 8.459 8.459 0 0 1-2.48 5.624 8.492 8.492 0 0 1-12.021 0A8.46 8.46 0 0 1 1.5 10a8.468 8.468 0 0 1 2.49-6.01 8.514 8.514 0 0 1 2.639-1.795Zm1.756.992 1.448 1.302a.25.25 0 0 0 .334 0l1.448-1.302a7.022 7.022 0 0 0-3.23 0Zm4.82.588-2.035 1.83a1.75 1.75 0 0 1-2.34 0l-2.034-1.83a7.024 7.024 0 0 0-1.893 1.427l.935 2.183a1.75 1.75 0 0 1-.74 2.209l-2.056 1.175a6.951 6.951 0 0 0 .955 2.834l2.226-.557a1.75 1.75 0 0 1 2.161 1.48l.294 2.35a7.042 7.042 0 0 0 2.644 0l.294-2.35a1.75 1.75 0 0 1 2.16-1.48l2.227.557a6.95 6.95 0 0 0 .955-2.834l-2.056-1.175a1.75 1.75 0 0 1-.74-2.21l.935-2.182a7.023 7.023 0 0 0-1.893-1.428Zm2.921 2.835-.585 1.366a.25.25 0 0 0 .105.315l1.287.735a6.95 6.95 0 0 0-.807-2.416Zm-1.125 8.288-1.588-.397a.25.25 0 0 0-.309.212l-.207 1.662A7.015 7.015 0 0 0 15 14.898Zm-7.897 1.477-.208-1.662a.25.25 0 0 0-.309-.212L5 14.898l.051.052a7.015 7.015 0 0 0 2.054 1.425ZM3.067 9.026l1.287-.735a.25.25 0 0 0 .105-.315L3.874 6.61a6.948 6.948 0 0 0-.807 2.416Zm4.735-1.082L9.1 7.166a1.75 1.75 0 0 1 1.8 0l1.298.778a1.75 1.75 0 0 1 .76 2.054l-.519 1.555a1.75 1.75 0 0 1-1.66 1.197H9.221a1.75 1.75 0 0 1-1.66-1.197l-.519-1.555a1.75 1.75 0 0 1 .76-2.054Zm2.327.508a.25.25 0 0 0-.258 0l-1.297.778a.25.25 0 0 0-.109.294l.519 1.555a.25.25 0 0 0 .237.171h1.558a.25.25 0 0 0 .237-.17l.519-1.556a.25.25 0 0 0-.109-.294l-1.297-.778Z" clip-rule="evenodd"/></svg>
