<svg width="20" height="20" viewBox="0 0 20 20" fill="none" xmlns="http://www.w3.org/2000/svg">
<path fill-rule="evenodd" clip-rule="evenodd" d="M7.73663 8.31695C7.38282 8.56189 7.20592 8.68437 7.09893 8.84797C7.00448 8.99239 6.94902 9.15878 6.93792 9.33098C6.92535 9.52606 6.99339 9.73018 7.12947 10.1384L7.63532 11.656C7.76646 12.0494 7.83203 12.2461 7.95364 12.3915C8.06104 12.5199 8.19896 12.6193 8.35475 12.6806C8.53118 12.75 8.73852 12.75 9.15321 12.75H10.8468C11.2615 12.75 11.4688 12.75 11.6452 12.6806C11.801 12.6193 11.939 12.5199 12.0464 12.3915C12.168 12.2461 12.2335 12.0494 12.3647 11.656L12.8705 10.1384C13.0066 9.73018 13.0746 9.52606 13.0621 9.33098C13.051 9.15878 12.9955 8.99239 12.9011 8.84797C12.7941 8.68437 12.6172 8.56189 12.2634 8.31695L10.9107 7.38051C10.5824 7.15319 10.4182 7.03951 10.2399 6.99545C10.0823 6.95653 9.91768 6.95653 9.76014 6.99545C9.58182 7.03951 9.41763 7.15318 9.08926 7.38051L7.73663 8.31695ZM8.5288 9.59294L9.08115 11.25L10.9188 11.25L11.4712 9.59294L10 8.57441L8.5288 9.59294Z" fill="currentColor"/>
<path fill-rule="evenodd" clip-rule="evenodd" d="M10 1.5C5.30558 1.5 1.5 5.30558 1.5 10C1.5 14.6944 5.30558 18.5 10 18.5C14.6944 18.5 18.5 14.6944 18.5 10C18.5 5.30558 14.6944 1.5 10 1.5ZM8.35811 3.19363C8.88473 3.06705 9.43454 3 10 3C10.5639 3 11.1123 3.06669 11.6376 3.1926L10.1569 4.48328C10.0625 4.56554 9.92189 4.56532 9.82779 4.48277L8.35811 3.19363ZM6.76445 3.79103C6.07248 4.15236 5.44844 4.62597 4.9165 5.1877L6.02394 7.54814C6.4159 8.38359 6.09176 9.37983 5.28323 9.82469L3.07655 11.0388C3.21435 11.9651 3.53362 12.8321 3.99704 13.6027L6.22326 13.0461C7.24191 12.7914 8.25395 13.4849 8.38418 14.5268L8.67775 16.8753C9.10593 16.9572 9.54796 17 10 17C10.452 17 10.8941 16.9572 11.3222 16.8753L11.6158 14.5268C11.746 13.4849 12.7581 12.7914 13.7767 13.0461L16.003 13.6027C16.4664 12.8321 16.7856 11.9651 16.9234 11.0388L14.7168 9.82469C13.9082 9.37983 13.5841 8.38359 13.9761 7.54814L15.0835 5.1877C14.5513 4.6257 13.9269 4.15189 13.2345 3.7905L11.1425 5.61402C10.482 6.18979 9.49741 6.18826 8.83865 5.61043L6.76445 3.79103ZM16.0971 6.55875L15.334 8.18525C15.278 8.3046 15.3243 8.44692 15.4398 8.51047L16.9705 9.35262C16.878 8.34418 16.5716 7.39764 16.0971 6.55875ZM15.0007 14.8983L13.4129 14.5013C13.2674 14.4649 13.1228 14.564 13.1042 14.7128L12.8965 16.3745C13.6877 16.0144 14.4001 15.5113 15.0007 14.8983ZM7.10347 16.3745L6.89577 14.7128C6.87716 14.564 6.73259 14.4649 6.58706 14.5013L4.99929 14.8983C5.59986 15.5113 6.31226 16.0144 7.10347 16.3745ZM3.02954 9.35262L4.56015 8.51047C4.67565 8.44692 4.72196 8.3046 4.66597 8.18525L3.90287 6.55875C3.42838 7.39764 3.12201 8.34418 3.02954 9.35262Z" fill="currentColor"/>
</svg>
