<svg fill="none" height="20" viewBox="0 0 20 20" width="20" xmlns="http://www.w3.org/2000/svg"><path clip-rule="evenodd" d="m7.46967 1.96967c.2929-.29289.76777-.29289 1.06066 0l1.46967 1.46967 1.4697-1.46967c.2929-.29289.7677-.29289 1.0606 0s.2929.76777 0 1.06066l-1.7803 1.78033v3.89028l3.3691-1.94515.6516-2.43198c.1073-.4001.5185-.63753.9186-.53033.4001.10721.6375.51846.5303.91856l-.5379 2.00761 2.0076.53793c.4001.10721.6375.51846.5303.91856s-.5184.63754-.9185.53033l-2.432-.65164-3.3691 1.94517 3.3691 1.9452 2.432-.6517c.4001-.1072.8113.1303.9185.5304s-.1302.8113-.5303.9185l-2.0076.538.5379 2.0076c.1072.4001-.1302.8113-.5303.9185s-.8113-.1302-.9185-.5303l-.6517-2.432-3.3691-1.9451v3.8902l1.7803 1.7804c.2929.2929.2929.7677 0 1.0606s-.7677.2929-1.0606 0l-1.4697-1.4696-1.46967 1.4696c-.29289.2929-.76776.2929-1.06066 0-.29289-.2929-.29289-.7677 0-1.0606l1.78033-1.7804v-3.8903l-3.3691 1.9452-.65165 2.4319c-.1072.4001-.51846.6376-.91856.5304-.40009-.1072-.63753-.5185-.53033-.9186l.53794-2.0076-2.0076-.5379c-.4001-.1072-.63754-.5185-.53034-.9186.10721-.4001.51847-.6375.91856-.5303l2.43198.6516 3.36907-1.9451-3.36906-1.94513-2.43198.65165c-.4001.1072-.81135-.13023-.91856-.53033-.1072-.4001.13023-.81136.53033-.91856l2.00761-.53794-.53794-2.0076c-.1072-.4001.13023-.81136.53033-.91856.4001-.10721.81135.13023.91856.53033l.65165 2.43197 3.36909 1.94515v-3.89032l-1.78033-1.78033c-.29289-.29289-.29289-.76777 0-1.06066z" fill="currentColor" fill-rule="evenodd"/></svg>
