<svg xmlns="http://www.w3.org/2000/svg" width="20" height="20" fill="none" viewBox="0 0 20 20"><path fill="currentColor" fill-rule="evenodd" d="M11.75 3.75A.75.75 0 0 1 12.5 3h3.7501a.75.75 0 0 1 .75.75V7.5a.75.75 0 0 1-1.5 0V5.5605l-3.2236 3.2232a.75.75 0 0 1-1.0606-1.0607L14.4392 4.5H12.5a.75.75 0 0 1-.75-.75Zm-2.9666 7.4663a.75.75 0 0 1 0 1.0606L5.5606 15.5H7.5a.75.75 0 0 1 0 1.5H3.75a.75.75 0 0 1-.75-.75V12.5a.75.75 0 0 1 1.5 0v1.9393l3.2227-3.223a.75.75 0 0 1 1.0607 0Z" clip-rule="evenodd"/></svg>
