<svg xmlns="http://www.w3.org/2000/svg" width="20" height="20" fill="currentColor" viewBox="0 0 20 20"><path fill-rule="evenodd" d="m7.222 3.378.01-.033a4.147 4.147 0 0 1 .17-.476c.358-.821.944-1.285 1.854-1.36l.166-.009h1.208c1.051.033 1.735.608 2.095 1.692l.057.186.044.166c.016.064.037.132.06.203l.05.137.03.015.06-.02.116-.044.135-.059a5.36 5.36 0 0 1 .168-.074l.036-.015a4.23 4.23 0 0 1 .424-.15c.932-.27 1.685-.075 2.32.618l.108.125.714.88c.636.833.617 1.723-.004 2.683l-.109.161-.102.139c-.04.054-.082.113-.123.177l-.062.1-.029.05.004.017.08.052.11.066.133.072c1.209.614 1.707 1.42 1.515 2.541l-.032.162-.213.916c-.137.593-.245.873-.67 1.258a2.135 2.135 0 0 1-1.059.518l-.01.003a3.917 3.917 0 0 1-.438.059l-.191.012-.173.006-.052.001h-.006c-.05.002-.102.006-.156.01l-.158.02.012.123.011.083.029.154c.068.322.101.618.098.89v.012c-.015.84-.38 1.45-1.132 1.87l-.147.076-1.023.494c-.901.403-1.722.234-2.484-.467a3.934 3.934 0 0 1-.144-.14l-.133-.142-.113-.13a2.938 2.938 0 0 0-.147-.161l-.085-.083-.043-.04-.08.076-.091.093-.103.115c-.828.981-1.703 1.334-2.763.923l-.153-.063-.915-.443-.271-.138c-.415-.225-.647-.44-.874-.918a2.153 2.153 0 0 1-.209-1.01v-.016c.006-.19.03-.388.07-.603l.038-.195.001-.004c.014-.064.025-.133.035-.206l.016-.148-.003-.003-.09-.012-.128-.012-.151-.006a4.145 4.145 0 0 1-.862-.098l-.012-.003c-.837-.198-1.363-.69-1.608-1.524l-.043-.16-.254-1.102c-.204-1.026.205-1.818 1.186-2.41l.17-.098.152-.08c.06-.03.123-.065.188-.105l.134-.087.004-.017-.055-.093-.07-.108-.089-.124a5.194 5.194 0 0 1-.286-.423c-.54-.905-.534-1.72.046-2.523l.1-.132.717-.877c.687-.792 1.566-.958 2.64-.554l.18.072.158.07a2.9 2.9 0 0 0 .193.08l.118.042.032-.014.029-.077.04-.12.04-.143c.013-.056.028-.112.044-.166Zm4.24.841.013.038.05.138a1.5 1.5 0 0 0 .743.833l.03.014a1.5 1.5 0 0 0 1.136.082l.06-.02a1.47 1.47 0 0 0 .065-.023l.117-.044.062-.025.135-.059.035-.015a2.698 2.698 0 0 1 .415-.16c.268-.078.407-.06.47-.043.057.015.16.056.314.22l.077.09.682.84c.138.185.15.295.15.359 0 .084-.03.267-.225.573l-.082.122-.08.108a4.406 4.406 0 0 0-.18.26l-.014.022-.062.099-.008.013-.01.018-.03.05a1.5 1.5 0 0 0-.178 1.056l.004.017a1.5 1.5 0 0 0 .648.959l.08.052.05.032.11.066.06.034.133.072.034.018c.456.231.62.421.676.516.036.06.084.162.042.417l-.023.117-.207.892c-.066.285-.095.35-.105.369 0 0 0 .003-.01.013a.974.974 0 0 1-.101.103c-.082.074-.166.124-.354.161a2.357 2.357 0 0 1-.257.035l-.153.01-.138.004-.071.002a4.554 4.554 0 0 0-.28.02l-.158.019a1.5 1.5 0 0 0-1.318 1.628l.011.123.008.07.012.083.01.06.028.154.008.045c.05.236.068.419.066.557-.003.206-.046.301-.073.348-.028.046-.094.131-.276.235l-.105.056-.977.471c-.204.088-.317.082-.382.07-.076-.015-.228-.068-.456-.279a2.382 2.382 0 0 1-.08-.076l-.1-.107-.088-.102a4.389 4.389 0 0 0-.217-.236l-.018-.018-.084-.082a1.433 1.433 0 0 0-.036-.034l-.043-.04a1.5 1.5 0 0 0-2.047.014l-.08.075a1.43 1.43 0 0 0-.042.041l-.09.094a1.534 1.534 0 0 0-.048.05l-.103.116-.025.03c-.315.371-.532.495-.646.535-.073.025-.183.05-.415-.038l-.094-.039-.864-.418-.238-.12a1.186 1.186 0 0 1-.13-.083l-.004-.003-.003-.003a1.077 1.077 0 0 1-.083-.147.666.666 0 0 1-.063-.34c.003-.09.015-.207.043-.365l.035-.174a4.384 4.384 0 0 0 .058-.35l.016-.149a1.5 1.5 0 0 0-.434-1.224l-.004-.003a1.5 1.5 0 0 0-.86-.423l-.09-.012a1.405 1.405 0 0 0-.064-.008l-.128-.01a1.539 1.539 0 0 0-.068-.005l-.15-.007-.04-.001a2.663 2.663 0 0 1-.549-.06c-.215-.05-.305-.115-.346-.154-.04-.038-.109-.12-.17-.319l-.03-.114-.242-1.052c-.042-.224-.006-.329.023-.387.038-.076.146-.23.459-.42l.128-.074.119-.063a4.431 4.431 0 0 0 .316-.179l.134-.087a1.5 1.5 0 0 0 .65-.947l.004-.017a1.5 1.5 0 0 0-.171-1.066l-.055-.093a1.49 1.49 0 0 0-.037-.062l-.07-.108a1.496 1.496 0 0 0-.04-.057l-.088-.124a1.516 1.516 0 0 0-.024-.031c-.307-.406-.369-.647-.378-.754-.006-.067-.004-.18.148-.395l.072-.094.684-.838c.154-.173.262-.211.33-.225.09-.018.28-.027.623.1l.138.055.123.055a4.42 4.42 0 0 0 .316.13l.118.042a1.5 1.5 0 0 0 1.134-.058l.031-.015a1.5 1.5 0 0 0 .764-.823l.03-.077.023-.066.04-.12.02-.065.04-.143.01-.037.03-.119c.037-.128.076-.235.114-.323.1-.23.192-.319.243-.357.044-.033.134-.086.343-.105l.1-.006h1.14c.234.01.333.071.386.114.067.056.192.195.308.538l.043.14.034.129c.026.1.056.2.088.298Z M10 11.5a1.5 1.5 0 1 0 0-3 1.5 1.5 0 0 0 0 3Zm0 1.5a3 3 0 1 0 0-6 3 3 0 0 0 0 6Z" clip-rule="evenodd"/></svg>
