<svg fill="none" height="20" viewBox="0 0 20 20" width="20" xmlns="http://www.w3.org/2000/svg"><path d="m10.5934 2.00071c.9891.03079 1.6323.575 1.9715 1.6009l.0537.17543.0415.15707c.0152.06049.034.1249.0561.19179l.0469.1305.0279.01393.0565-.01868.1094-.04191.1276-.05555c1.1578-.539 2.0485-.43897 2.7737.35802l.1025.1186.6717.83243c.5985.78807.5804 1.63041-.0035 2.53959l-.1025.15215-.0959.13114c-.0383.05089-.0773.10731-.1162.16793l-.0581.09394-.0274.04701.0032.01637.0751.04953.1036.06258.1256.06824c1.1376.58052 1.6071 1.34398 1.4259 2.40448l-.0303.1535-.1999.8666c-.1294.5608-.2311.8263-.6312 1.1906-.3886.3539-.832.5-1.418.5485l-.1801.0117-.1624.0051c-.063.0012-.1307.0051-.2016.0117l-.1481.0175.0107.1167.011.0784.0264.1464c.2647 1.2494-.0331 2.0947-.9728 2.622l-.1386.0732-.9622.4672c-.9025.406-1.7192.1988-2.4737-.5746l-.1252-.1341-.1062-.123c-.0414-.0493-.0881-.1005-.139-.1525l-.0794-.0785-.0407-.0376-.07503.0714-.08599.0884-.09636.1088c-.78.9284-1.60324 1.2616-2.60105.8735l-.14375-.0603-.86101-.4185-.25577-.1309c-.38985-.2129-.60862-.4168-.82241-.8682-.22507-.4753-.24019-.9421-.13108-1.5422l.03637-.1841c.01303-.0615.02442-.1282.03394-.1986l.015-.1404-.00327-.0033-.0849-.0113-.11997-.0108-.1424-.0063c-1.27692-.0231-2.03357-.5034-2.33604-1.5376l-.04013-.1516-.23878-1.0426c-.19251-.9707.19306-1.71984 1.11638-2.28106l.15886-.0918.14369-.07582c.05632-.02874.11567-.06207.17672-.09921l.12673-.08277.00328-.01556-.05122-.08835-.06618-.10251-.08351-.1172c-.76795-1.02045-.85528-1.91242-.2265-2.78752l.0947-.12492.67459-.83006c.64641-.74932 1.47412-.90671 2.48481-.52464l.17015.06866.14821.06655c.05576.02596.11678.05153.18171.07618l.11103.03914.02948-.01392.02754-.0726.03692-.11296.03769-.13592c.29409-1.17634.88792-1.83676 1.95667-1.92535l.15593-.00876zm-.0458 1.47333h-1.09165l-.11416.00836c-.23426.03051-.38728.15695-.5345.68107l-.03391.12815-.04624.1685c-.08595.28868-.21588.61353-.3832.92892-.33127.11871-.64609.27199-.93959.45704-.34535-.07001-.67465-.1727-.94945-.28628l-.28662-.12687c-.20384-.08731-.35651-.13185-.47749-.14269l-.06895-.00253c-.14545.00304-.24148.06278-.33426.15772l-.05564.06103-.64623.79617-.07756.10267c-.15019.21645-.17265.40947.15958.88065l.18687.25863c.17353.25364.34753.56627.48961.90197-.10599.31469-.18098.64363-.22116.98385-.27341.23667-.56475.43947-.83009.5902l-.28028.15c-.50517.2778-.56959.4611-.52949.7215l.01096.0616.22953.9994.03316.1243c.0781.2516.21637.3881.79221.4164l.3172.0119c.30377.0191.65346.0736 1.0016.167.18407.2858.39697.5513.6356.7922.01359.4313-.02628.8516-.09661 1.1835-.16468.7772-.01138.9024.31405 1.0641l.92216.4485c.09772.044.18504.0736.27579.0725l.05497-.0046c.14827-.0227.31239-.1325.54892-.397l.21111-.2415c.21023-.2282.47875-.4704.77675-.6854l.244.0182.24721.0061.2471-.0062.2442-.0187c.2978.2155.5663.4577.7766.686l.2111.2415c.2661.2975.4405.3994.6039.4016l.0541-.003c.048-.0056.0957-.019.1454-.0377l.0762-.0318.9222-.4485.1137-.0602c.2451-.1429.3445-.3238.2004-1.0039-.0704-.3319-.1102-.7522-.0956-1.1834.2376-.241.4505-.5065.6348-.7937.3484-.0923.6979-.1465 1.0015-.1656l.3171-.0119c.6644-.0326.7462-.2094.8253-.5407l.2158-.9347c.0742-.3325.0781-.5272-.5048-.8478l-.2803-.15c-.2653-.15077-.5567-.35368-.8299-.59085-.0403-.33957-.1153-.66851-.2217-.98388.1424-.33514.3165-.64767.49-.90129l.1869-.25863c.3322-.47118.3097-.6642.1595-.88065l-.0368-.05051-.6444-.79764c-.1154-.14036-.2122-.24084-.3702-.26432l-.0622-.00512c-.1309-.00274-.3019.04045-.5465.14522l-.2865.12682c-.2746.11349-.6036.21596-.9486.28505-.2946-.18392-.6101-.3375-.9422-.45502-.1593-.30337-.2852-.61498-.371-.89484l-.093-.3395c-.1571-.55472-.3212-.65873-.5839-.67823zm-.5458 3.4299c1.7186 0 3.1118 1.39323 3.1118 3.11186 0 1.7186-1.3932 3.1119-3.1118 3.1119-1.71868 0-3.11191-1.3933-3.11191-3.1119 0-1.71863 1.39323-3.11186 3.11191-3.11186zm0 1.47404c-.90459 0-1.63787.73328-1.63787 1.63782 0 .9046.73328 1.6378 1.63787 1.6378.9045 0 1.6378-.7332 1.6378-1.6378 0-.90454-.7333-1.63782-1.6378-1.63782z" fill="currentColor"/></svg>
