<svg fill="none" height="20" viewBox="0 0 20 20" width="20" xmlns="http://www.w3.org/2000/svg"><path clip-rule="evenodd" d="m11.8314 2.50209c-.5173-.07957-.9993.28031-1.07.79883l-.381 2.79404c-.001.00709-.002.01421-.0029.02135-.0174.12789-.0357.26161-.0578.36681-.0118.0562-.0315.13886-.0669.22477-.0314.07631-.1088.24076-.28394.36901-.26561.19448-.61622.22843-.91421.0885-.19651-.09226-.30402-.2388-.34948-.30767-.05118-.07754-.08637-.15488-.10876-.20777-.0419-.099-.08543-.22674-.12705-.34891-.00232-.00682-.00464-.01363-.00695-.02041l-.71846-2.10746c-.1483-.43502-.58331-.70464-1.03889-.6439-.50674.06757-.8722.51885-.83301 1.02823l.29155 3.79023c1.16614-.38487 2.16836-.1707 2.46535-.09115.07745.02075.14599.04532.19138.06182 1.22637.44597 1.83677 1.56055 1.81147 2.62609-.0256 1.0778-.70785 2.1485-2.01843 2.4322-.30706.0665-.62402.1233-.86336.1233-.41421 0-.75-.3358-.75-.75s.33579-.75.75-.75c.06062 0 .2348-.022.54599-.0893.55548-.1203.82509-.5335.83621-1.0018.01142-.4806-.25658-.97428-.8245-1.1808-.03993-.01452-.05665-.01985-.06689-.02259-.22075-.05913-1.27399-.28199-2.32478.41849-.37047.247-1.561 1.327-1.18058 3.2289.38437 1.9216 2.31909 3.861 5.71774 3.6485 3.4029-.2126 5.2579-2.437 5.0494-4.9391-.1028-1.2334-.7642-2.0612-1.4399-2.60166-.3387-.27098-.6728-.46211-.9217-.58488-.1238-.06104-.2245-.1042-.2915-.13116-.0335-.01346-.0584-.02281-.0733-.02827l-.0147-.00527.0003.00007.0005.00017c-.3279-.10957-.5384-.42906-.5097-.7736l.3694-4.43253c.0408-.49013-.3045-.92829-.7906-1.00308zm1.9608 5.02239.3246-3.89474c.1063-1.2754-.7924-2.4156-2.0573-2.61021-1.346-.207068-2.60037.72941-2.78437 2.07873l-.08939.65551-.02202-.0646c-.37928-1.11254-1.4918-1.80208-2.6569-1.64673-1.29536.17271-2.23061 1.3268-2.13035 2.63011l.34508 4.48616c-.7536.666-1.92009 2.17289-1.45696 4.48839.54473 2.7234 3.20364 5.1063 7.28221 4.8514 4.0744-.2546 6.7421-3.0629 6.4506-6.5608-.1472-1.7666-1.1107-2.93887-1.9976-3.64837-.4425-.35402-.874-.6004-1.1954-.75887-.0041-.00201-.0081-.004-.0122-.00598zm-1.0321 1.1861.0008.00028.0006.0002c-.0007-.00026-.0012-.00042-.0014-.00048zm0-.00001c-.0001-.00002-.0001-.00002 0 .00001z" fill="currentColor" fill-rule="evenodd"/></svg>
