<svg width="20" height="20" viewBox="0 0 20 20" fill="none" xmlns="http://www.w3.org/2000/svg">
<path d="M10 1C12.1963 1 13.9306 1.74205 15.5319 3.17836C17.1093 4.59329 18 6.5239 18 8.54198L17.9871 15.133C17.8973 16.3104 17.0707 17.1821 15.8694 17.1821C14.6682 17.1821 14.3503 16.3652 13.3229 16.532C12.2955 16.6989 11.9098 18 10 18C8.0902 18 7.66645 16.6927 6.67708 16.532C5.64965 16.3652 5.33184 17.1821 4.13057 17.1821C2.97379 17.1821 2.07308 16.3628 2.01285 15.133L2 8.54198C2 6.5239 2.89071 4.59329 4.46814 3.17836C6.00269 1.8019 7.80367 1 10 1ZM12.8503 11.8581C12.594 11.4721 12.0978 11.3844 11.7418 11.6624C10.774 12.4183 9.75454 12.4183 8.76267 11.9535C8.51345 11.8367 8.33713 11.7241 8.25816 11.6624L8.17371 11.6047C7.82732 11.3997 7.38627 11.5018 7.14972 11.8581C6.89346 12.2442 6.97425 12.7825 7.33016 13.0604C7.49629 13.1902 7.76931 13.3646 8.13282 13.535C9.59188 14.2186 11.1868 14.2186 12.6698 13.0604C13.0258 12.7825 13.1065 12.2442 12.8503 11.8581ZM6.75 7C6.05964 7 5.5 7.55964 5.5 8.25C5.5 8.94036 6.05964 9.5 6.75 9.5C7.44036 9.5 8 8.94036 8 8.25C8 7.55964 7.44036 7 6.75 7ZM12.3565 7.95711C12.1728 8.04872 12.0339 8.14322 11.9428 8.21901C11.6417 8.4693 11.6173 8.89764 11.8883 9.17574C12.1384 9.43244 12.5527 9.4714 12.8517 9.27901L12.9239 9.22609C12.9346 9.21721 12.9824 9.18468 13.0534 9.14928C13.2882 9.03215 13.4841 9.02044 13.7024 9.17014L13.7761 9.22609C14.0771 9.47638 14.5408 9.45383 14.8117 9.17574C15.0827 8.89764 15.0583 8.4693 14.7572 8.21901C13.9876 7.57917 13.1141 7.57917 12.3565 7.95711Z" fill="currentColor"/>
</svg>
