<svg xmlns="http://www.w3.org/2000/svg" width="20" height="20" fill="currentColor" viewBox="0 0 20 20"><path fill-rule="evenodd" d="M10 1a8 8 0 0 0-8 8v6.276c0 .476.11.946.324 1.372a2.79 2.79 0 0 0 3.593 1.316l.552-.236a.942.942 0 0 1 .975.142l.444.37a3.3 3.3 0 0 0 4.224 0l.43-.358a.973.973 0 0 1 1.006-.147l.555.238a2.766 2.766 0 0 0 3.563-1.306c.22-.439.334-.923.334-1.413V9a8 8 0 0 0-8-8Zm-3 9.25a1.25 1.25 0 1 0 0-2.5 1.25 1.25 0 0 0 0 2.5ZM14.25 9a1.25 1.25 0 1 1-2.5 0 1.25 1.25 0 0 1 2.5 0Zm-1.985 4.338a.75.75 0 1 0-.93-1.176c-.506.4-.947.552-1.336.552-.388 0-.828-.15-1.332-.551a.75.75 0 1 0-.934 1.174c.696.553 1.456.878 2.268.877.81 0 1.57-.326 2.264-.876Z" clip-rule="evenodd"/></svg>
