<svg fill="none" height="20" viewBox="0 0 20 20" width="20" xmlns="http://www.w3.org/2000/svg" xmlns:xlink="http://www.w3.org/1999/xlink"><linearGradient id="a" gradientUnits="userSpaceOnUse" x1="-10" x2="10" y1="10" y2="30"><stop offset="0" stop-color="#ffb73d"/><stop offset="1" stop-color="#ffa000"/></linearGradient><path d="m0 10c0-5.52285 4.47715-10 10-10 5.5228 0 10 4.47715 10 10 0 5.5228-4.4772 10-10 10-5.52285 0-10-4.4772-10-10z" fill="url(#a)"/><path d="m8.70903 12.3c.22288 0 .3037.0232.38518.0668s.14543.1075.18901.189c.04357.0815.06678.1623.06678.3852v2.4181c0 .2228-.02321.3037-.06678.3851-.04358.0815-.10753.1455-.18901.189-.08148.0436-.1623.0668-.38518.0668h-1.42709c-.44576 0-.6074-.0464-.77036-.1335-.16297-.0872-.29086-.2151-.37801-.378-.08716-.163-.13357-.3247-.13357-.7704v-1.7771c0-.2229.02321-.3037.06678-.3852.04358-.0815.10753-.1454.18901-.189s.1623-.0668.38518-.0668zm4.64997 0c.2229 0 .3037.0232.3852.0668s.1454.1075.189.189.0668.1623.0668.3852v1.7771c0 .4457-.0464.6074-.1336.7704-.0871.1629-.215.2908-.378.378-.1629.0871-.3246.1335-.7703.1335h-1.4271c-.2229 0-.3037-.0232-.3852-.0668-.0815-.0435-.1454-.1075-.189-.189-.0436-.0814-.0668-.1623-.0668-.3851v-2.4181c0-.2229.0232-.3037.0668-.3852s.1075-.1454.189-.189.1623-.0668.3852-.0668zm-4.64997-4.29997c.22288 0 .3037.0232.38518.06678s.14543.10753.18901.18901c.04357.08148.06678.1623.06678.38518v1.7181c0 .2228-.02321.3037-.06678.3851-.04358.0815-.10753.1455-.18901.189-.08148.0436-.1623.0668-.38518.0668h-3.06806c-.22288 0-.3037-.0232-.38518-.0668-.08148-.0435-.14543-.1075-.18901-.189-.04357-.0814-.06678-.1623-.06678-.3851v-1.10447c0-.41295.04641-.58006.13357-.74302.08715-.16297.21504-.29086.37801-.37802.16296-.08715.33007-.13356.74302-.13356zm5.03637 0c.4129 0 .5801.04641.743.13356.163.08716.2909.21505.378.37802.0872.16296.1336.33007.1336.74302v1.10447c0 .2228-.0232.3037-.0668.3851-.0436.0815-.1075.1455-.189.189-.0815.0436-.1623.0668-.3852.0668h-3.068c-.2229 0-.3037-.0232-.3852-.0668-.0815-.0435-.1454-.1075-.189-.189-.0436-.0814-.0668-.1623-.0668-.3851v-1.7181c0-.22288.0232-.3037.0668-.38518s.1075-.14543.189-.18901.1623-.06678.3852-.06678zm-3.7454-1c-3.5 0-3.8-2.2-3-3s3-.5 3 3zm3-3.00265c.8.8.5 3.00265-3 3.00265 0-3.5 2.2-3.80265 3-3.00265z" fill="#fff"/></svg>