<?xml version="1.0" encoding="UTF-8"?>
<svg width="20px" height="20px" viewBox="0 0 20 20" version="1.1" xmlns="http://www.w3.org/2000/svg" xmlns:xlink="http://www.w3.org/1999/xlink">
    <!-- Generator: Sketch 63.1 (92452) - https://sketch.com -->
    <title>gift_outline_20</title>
    <desc>Created with Sketch.</desc>
    <g id="Icons" stroke="none" stroke-width="1" fill="none" fill-rule="evenodd">
        <g id="Icons-20/gift_outline_20">
            <g id="gift_outline_20">
                <rect x="0" y="0" width="20" height="20"></rect>
                <path d="M14.8462366,2.31376343 C15.8724246,3.33995144 16.0755243,5.18922774 14.5890424,6.49995994 L15.5,6.5 C17.1568542,6.5 18.5,7.84314575 18.5,9.5 L18.5,9.99079617 C18.5,10.8166973 18.4071744,11.1509198 18.2328673,11.4768457 C18.0585602,11.8027716 17.8027716,12.0585602 17.4768457,12.2328673 C17.3333187,12.3096264 17.1881828,12.3705843 17.0001584,12.4147724 L17,14.033201 C17,15.5933588 16.8375552,16.1591096 16.5325178,16.72948 C16.2274804,17.2998504 15.7798504,17.7474806 15.20948,18.052518 L15.0067379,18.154225 C14.526529,18.3775756 13.9697424,18.502636 12.7784036,18.518318 L7.4867991,18.52 C5.92664131,18.52 5.36089039,18.3575554 4.79052002,18.052518 C4.22014965,17.7474806 3.77251964,17.2998504 3.46748223,16.72948 L3.36577509,16.526738 C3.14242449,16.0465291 3.01736427,15.4897427 3.00168224,14.298404 L2.99984156,12.4147724 C2.81181722,12.3705843 2.66668131,12.3096264 2.5231543,12.2328673 C2.19722837,12.0585602 1.9414398,11.8027716 1.7671327,11.4768457 C1.6073512,11.1780803 1.51603678,10.8723434 1.5019273,10.1873079 L1.5,9.5 C1.5,7.84314575 2.84314575,6.5 4.5,6.5 L5.41095765,6.49995994 C3.92447572,5.18922774 4.12757543,3.33995144 5.15376343,2.31376343 C6.36877902,1.09874784 8.73766296,1.0376006 10.000331,3.56855712 C11.262337,1.0376006 13.631221,1.09874784 14.8462366,2.31376343 Z M9.249,12.499 L4.5,12.5 L4.50102731,14.261915 L4.50958325,14.660787 C4.53144181,15.2653352 4.59254357,15.5847622 4.71163699,15.860182 L4.79020203,16.022082 C4.95543974,16.3310497 5.18895065,16.5645603 5.49791831,16.729798 L5.65981826,16.808363 C5.99032199,16.9512751 6.38419566,17.0106795 7.25808525,17.018973 L9.249,17.018 L9.249,12.499 Z M15.5,12.5 L10.749,12.499 L10.749,17.018 L12.7419147,17.018973 L13.1407871,17.010417 C13.7453353,16.9885584 14.064762,16.9274564 14.3401817,16.808363 L14.5020817,16.729798 C14.8110494,16.5645603 15.0445603,16.3310497 15.209798,16.022082 C15.39575,15.6743819 15.4773591,15.3338067 15.4958158,14.470628 L15.5,14.033201 L15.5,12.5 Z M9.159,7.999 L4.5,8 C3.67157288,8 3,8.67157288 3,9.5 L3.00076507,10.1383429 L3.00715255,10.3702131 C3.01859014,10.5971442 3.04446144,10.6845735 3.0898525,10.7694474 C3.12435989,10.8339706 3.16602937,10.8756401 3.23055258,10.9101475 C3.33967618,10.9685074 3.45302398,10.9946 3.86165705,10.9992349 L9.249,10.999 L9.25072549,7.99976407 C9.2206073,7.99992117 9.19036558,8 9.16,8 L9.159,7.999 Z M15.5,8 L10.839,7.999 C10.809538,8 10.7792007,7.99992067 10.7489877,7.99976257 L10.749,10.999 L16.1383429,10.9992349 C16.546976,10.9946 16.6603238,10.9685074 16.7694474,10.9101475 C16.8339706,10.8756401 16.8756401,10.8339706 16.9101475,10.7694474 C16.9749919,10.648199 17,10.5217355 17,9.99079617 L17,9.5 C17,8.67157288 16.3284271,8 15.5,8 Z M9.22317725,6.15901499 C8.79241299,3.05780047 7.26367693,2.32517028 6.21442361,3.37442361 C5.16517028,4.42367693 5.89780047,5.95241299 8.99901499,6.38317725 L8.99901499,6.38317725 L9.25566687,6.41566687 Z M10.7768227,6.15901499 L10.7528336,6.35043301 C10.7551515,6.37102258 10.7574257,6.39168763 10.7596556,6.41242835 L11.000985,6.38317725 C14.1021995,5.95241299 14.8348297,4.42367693 13.7855764,3.37442361 C12.7363231,2.32517028 11.207587,3.05780047 10.7768227,6.15901499 Z" id="↳-Icon-Color" fill="currentColor" fill-rule="nonzero"></path>
            </g>
        </g>
    </g>
</svg>
