<?xml version="1.0" encoding="UTF-8"?>
<svg width="20px" height="20px" viewBox="0 0 20 20" version="1.1" xmlns="http://www.w3.org/2000/svg" xmlns:xlink="http://www.w3.org/1999/xlink">
    <!-- Generator: Sketch 56 (81588) - https://sketch.com -->
    <title>gift_outline_20</title>
    <desc>Created with Sketch.</desc>
    <g id="Page-2" stroke="none" stroke-width="1" fill="none" fill-rule="evenodd">
        <g id="gift_outline_20">
            <rect id="Rectangle" x="0" y="0" width="20" height="20"></rect>
            <path d="M10.75,7.9962843 L10.75,10.5 L14.9598679,10.5 C15.3177965,10.5 15.479124,10.4661978 15.6247978,10.3882906 C15.7385409,10.3274601 15.8233228,10.2426782 15.8841533,10.1289351 C15.9620605,9.98326128 15.9958627,9.82193382 15.9958627,9.46400526 L15.9958627,9.24814215 C15.9958627,9.02149677 15.9366176,8.80572354 15.8255701,8.61598502 C15.7169769,8.4304401 15.5617069,8.27517005 15.376162,8.16657691 C15.1864235,8.05552941 14.9706502,7.9962843 14.7440048,7.9962843 L10.75,7.9962843 Z M9.25,7.9962843 L5.25676237,7.9962843 C5.03011699,7.9962843 4.81434375,8.05552941 4.62460524,8.16657691 C4.43906031,8.27517005 4.28379026,8.4304401 4.17519713,8.61598502 C4.06414963,8.80572354 4.00490452,9.02149677 4.00490452,9.24814215 L4.00490452,9.46400526 C4.00490452,9.82193382 4.03870671,9.98326128 4.11661394,10.1289351 C4.17744441,10.2426782 4.26222629,10.3274601 4.37596938,10.3882906 C4.52164324,10.4661978 4.68297069,10.5 5.04089926,10.5 L9.25,10.5 L9.25,7.9962843 Z M9.25,12 L5.5,12 L5.5,13.7951435 C5.5,14.6979408 5.56371039,15.0278602 5.74527578,15.367358 C5.89325979,15.644064 6.10593596,15.8567402 6.38264201,16.0047242 C6.72213977,16.1862896 7.05205925,16.25 7.9548565,16.25 L9.25,16.25 L9.25,12 Z M10.75,12 L10.75,16.25 L12.0451435,16.25 C12.9479408,16.25 13.2778602,16.1862896 13.617358,16.0047242 C13.894064,15.8567402 14.1067402,15.644064 14.2547242,15.367358 C14.4362896,15.0278602 14.5,14.6979408 14.5,13.7951435 L14.5,12 L10.75,12 Z M4,11.8561279 C3.88563496,11.8167874 3.77642416,11.7686908 3.66857109,11.7110104 C3.29342529,11.5103802 2.99452431,11.2114792 2.79389414,10.8363334 C2.5888369,10.4529097 2.50490452,10.0523263 2.50490452,9.46400526 L2.50490452,9.24814215 C2.50490452,8.75350036 2.63588118,8.27647773 2.88061907,7.85831251 C3.1191724,7.45071436 3.45933458,7.11055218 3.86693272,6.87199885 C4.10571511,6.73224764 4.36368905,6.62959037 4.63317626,6.56723243 C4.21184919,6.19632053 4,5.7223787 4,5.09069232 C4,3.53017086 5.49326089,2.25 7.23387884,2.25 C8.43615768,2.25 9.41470267,3.23818432 10,4.46759533 C10.5852973,3.23818432 11.5638423,2.25 12.7661212,2.25 C14.5067391,2.25 16,3.53017086 16,5.09069232 C16,5.72229893 15.7882043,6.19620083 15.3669833,6.56709191 C15.6366904,6.62943609 15.8948726,6.73214261 16.1338345,6.87199885 C16.5414326,7.11055218 16.8815948,7.45071436 17.1201481,7.85831251 C17.364886,8.27647773 17.4958627,8.75350036 17.4958627,9.24814215 L17.4958627,9.46400526 C17.4958627,10.0523263 17.4119303,10.4529097 17.2068731,10.8363334 C17.0062429,11.2114792 16.7073419,11.5103802 16.3321961,11.7110104 C16.2241019,11.7688198 16.1146439,11.8170024 16,11.8563917 L16,13.7951435 C16,14.9243878 15.8911144,15.4882436 15.577444,16.0747563 C15.2896603,16.612865 14.862865,17.0396603 14.3247563,17.327444 C13.7382436,17.6411144 13.1743878,17.75 12.0451435,17.75 L7.9548565,17.75 C6.82561219,17.75 6.26175639,17.6411144 5.67524373,17.327444 C5.13713496,17.0396603 4.7103397,16.612865 4.42255598,16.0747563 C4.10888558,15.4882436 4,14.9243878 4,13.7951435 L4,11.8561279 Z M11.0127528,6.09090765 C10.9711384,6.26987089 11.1963222,6.37255046 12.2489162,6.16550422 C13.8388248,5.85276769 14.5,5.50403627 14.5,5.09069232 C14.5,4.41425647 13.7251751,3.75 12.7661212,3.75 C12.1052749,3.75 11.2758806,4.95932378 11.0127528,6.09090765 Z M8.98724721,6.09090765 C8.72411941,4.95932378 7.89472514,3.75 7.23387884,3.75 C6.27482486,3.75 5.5,4.41425647 5.5,5.09069232 C5.5,5.50403627 6.16117517,5.85276769 7.75108381,6.16550422 C8.8036778,6.37255046 9.02886163,6.26987089 8.98724721,6.09090765 Z" id="↳-Icon-Color" fill="currentColor" fill-rule="nonzero"></path>
        </g>
    </g>
</svg>
