<?xml version="1.0" encoding="UTF-8"?>
<svg width="20px" height="20px" viewBox="0 0 20 20" version="1.1" xmlns="http://www.w3.org/2000/svg" xmlns:xlink="http://www.w3.org/1999/xlink">
    <!-- Generator: Sketch 56 (81588) - https://sketch.com -->
    <title>globe_outline_20</title>
    <desc>Created with Sketch.</desc>
    <g id="Page-2" stroke="none" stroke-width="1" fill="none" fill-rule="evenodd">
        <g id="globe_outline_20">
            <polygon id="Shape" points="0 0 20 0 20 20 0 20"></polygon>
            <path d="M16.7101213,8 L13.3362234,8 C13.4453279,8.66110836 13.5,9.32784701 13.5,10 C13.5,10.672153 13.4453279,11.3388916 13.3362234,12 L16.7101213,12 C16.8987225,11.3662906 17,10.6949726 17,10 C17,9.30502739 16.8987225,8.63370941 16.7101213,8 Z M16.0635246,6.5 C15.095112,4.82590328 13.4532988,3.59008909 11.5084728,3.16294511 C12.1651011,4.25716126 12.6601946,5.36988701 12.9925078,6.5 L16.0635246,6.5 Z M3.28987868,8 C3.10127754,8.63370941 3,9.30502739 3,10 C3,10.6949726 3.10127754,11.3662906 3.28987868,12 L6.66377658,12 C6.55467206,11.3388916 6.5,10.672153 6.5,10 C6.5,9.32784701 6.55467206,8.66110836 6.66377658,8 L3.28987868,8 Z M3.93647537,6.5 L7.00749215,6.5 C7.33980537,5.36988701 7.83489886,4.25716126 8.49152725,3.16294511 C6.54670121,3.59008909 4.90488803,4.82590328 3.93647537,6.5 Z M11.8129426,8 L8.18705742,8 C8.06223655,8.66184278 8,9.32840497 8,10 C8,10.671595 8.06223655,11.3381572 8.18705742,12 L11.8129426,12 C11.9377634,11.3381572 12,10.671595 12,10 C12,9.32840497 11.9377634,8.66184278 11.8129426,8 Z M11.4200754,6.5 C11.0891768,5.51543892 10.6162123,4.54100779 10,3.57564149 C9.38378767,4.54100779 8.91082318,5.51543892 8.57992463,6.5 L11.4200754,6.5 Z M16.0635246,13.5 L12.9925078,13.5 C12.6601946,14.630113 12.1651011,15.7428387 11.5084728,16.8370549 C13.4532988,16.4099109 15.095112,15.1740967 16.0635246,13.5 Z M3.93647537,13.5 C4.90488803,15.1740967 6.54670121,16.4099109 8.49152725,16.8370549 C7.83489886,15.7428387 7.33980537,14.630113 7.00749215,13.5 L3.93647537,13.5 Z M11.4200754,13.5 L8.57992463,13.5 C8.91082318,14.4845611 9.38378767,15.4589922 10,16.4243585 C10.6162123,15.4589922 11.0891768,14.4845611 11.4200754,13.5 Z M10,1.5 C14.6944204,1.5 18.5,5.30557963 18.5,10 C18.5,14.6944204 14.6944204,18.5 10,18.5 C5.30557963,18.5 1.5,14.6944204 1.5,10 C1.5,5.30557963 5.30557963,1.5 10,1.5 Z" id="↳-Icon-Color" fill="currentColor" fill-rule="nonzero"></path>
        </g>
    </g>
</svg>
