<svg fill="none" height="20" viewBox="0 0 20 20" width="20" xmlns="http://www.w3.org/2000/svg"><g fill="currentColor"><path clip-rule="evenodd" d="m2.43958 3.0887c.0471-.12272.2594-.5887.81039-.5887.24479 0 .48866.08189.67386.15847.20558.08499.42923.20237.65792.34184.45808.27939.97792.67285 1.46946 1.14788.95409.92204 1.94579 2.29413 1.94579 3.85181 0 .41421-.33579.75-.75.75-.41422 0-.75-.33579-.75-.75 0-.94232-.63144-1.94523-1.48818-2.77319-.39735-.38401-.81187-.69917-1.16446-.91896.02086.32677.06197.69362.09558.95636.01447.11309.02747.20715.03679.27253.02896.19783.01603.37301-.05944.56192-.01482.0371-.03709.09494-.06377.17075-.05348.15204-.12386.37407-.18744.64446-.12871.54735-.22147 1.25869-.11573 1.97689.10391.70579.39703 1.41114 1.04337 2.00024.65322.5955 1.73012 1.1294 3.50307 1.3656.34615.0461.61468.325.64764.6726.03295.3477-.17839.6721-.50971.7824-.42765.1424-.7075.3156-.90142.5123-.19072.1935-.33805.45-.43846.8239-.09704.3613.18951.8931.8707 1.0207l2.23666.4189 2.2366-.4189c.6812-.1276.9678-.6594.8707-1.0207-.1004-.3739-.2477-.6304-.4384-.8239-.1939-.1967-.4738-.3699-.9014-.5123-.3314-.1103-.5427-.4347-.5097-.7824.0329-.3476.3014-.6265.6476-.6726 1.7729-.2362 2.8498-.7701 3.5031-1.3656.6463-.5891.9394-1.29445 1.0433-2.00024.1058-.7182.013-1.42954-.1157-1.97689-.0636-.27039-.134-.49242-.1874-.64446-.0267-.07581-.049-.13365-.0638-.17075-.0746-.18661-.0884-.36231-.0594-.56192.0093-.06538.0223-.15944.0367-.27253.0337-.26274.0748-.62958.0956-.95636-.3526.21979-.7671.53495-1.1644.91896-.8568.82796-1.4882 1.83087-1.4882 2.77319 0 .41421-.3358.75-.75.75s-.75-.33579-.75-.75c0-1.55768.9917-2.92977 1.9458-3.85181.4915-.47503 1.0114-.86849 1.4694-1.14788.2287-.13947.4524-.25685.658-.34184.1852-.07658.429-.15847.6738-.15847.551 0 .7633.46598.8104.5887.0658.17157.0887.35637.0993.49453.0226.2939.0067.6533-.018.97417-.0334.43515-.0877.86073-.121 1.10178.0721.19333.179.50994.2734.91132.1542.65578.2822 1.56944.1395 2.53874-.1445.98166-.5691 2.02636-1.5168 2.89036-.6244.5692-1.4482 1.0347-2.5107 1.3606.309.3727.5162.8088.6477 1.2985.4023 1.498-.8322 2.6573-2.0432 2.8841l-2.3725.4444c-.0471.0088-.0941.013-.1403.0129-.04626.0001-.09318-.0041-.1403-.0129l-2.3725-.4444c-1.21106-.2268-2.44551-1.3861-2.04323-2.8841.13151-.4897.33874-.9258.64772-1.2985-1.06253-.3259-1.88629-.7914-2.51068-1.3606-.94776-.864-1.37233-1.9087-1.51686-2.89036-.14271-.9693-.01465-1.88296.13956-2.53874.09439-.40138.20127-.71799.27333-.91132-.03321-.24105-.08758-.66663-.12098-1.10178-.02463-.32087-.04055-.68027-.01799-.97417.0106-.13816.03347-.32296.09931-.49453z" fill-rule="evenodd"/><path clip-rule="evenodd" d="m7.09435 3.38577c.20116-.36209.65776-.49255 1.01985-.29139l.70693.39274c.46893.26052.86771.61311 1.17884 1.02805.31113-.41494.70993-.76753 1.17883-1.02805l.7069-.39274c.3621-.20116.8187-.0707 1.0199.29139.2011.36209.0707.81869-.2914 1.01985l-.7069.39274c-.7143.39683-1.1573 1.14972-1.1573 1.96685v.48479c0 .41421-.3358.75-.75003.75-.41421 0-.75-.33579-.75-.75v-.48479c0-.81713-.44301-1.57002-1.1573-1.96685l-.70693-.39274c-.36209-.20116-.49255-.65776-.29139-1.01985z" fill-rule="evenodd"/><path d="m11 2c0 .55228-.4477 1-1.00003 1-.55228 0-1-.44772-1-1s.44772-1 1-1c.55233 0 1.00003.44772 1.00003 1z"/></g></svg>
