<svg fill="none" height="20" viewBox="0 0 20 20" width="20" xmlns="http://www.w3.org/2000/svg"><g fill="currentColor"><path clip-rule="evenodd" d="m10 5.75c.4142 0 .75.33579.75.75v2.83659c0 .12895.0002.20099.0027.25554.0031.06839.0237.11521.0678.16347.0368.04031.0877.09134.1789.18246l1.5334 1.53124c.2931.2927.2935.7675.0008 1.0607-.2927.2931-.7676.2934-1.0607.0007-.5225-.5217-1.0441-1.0444-1.56751-1.5652-.13861-.1379-.28692-.2855-.39704-.465-.09611-.1567-.16695-.3275-.2099-.50624-.0492-.20476-.04883-.41398-.04849-.60951.00168-.96158.00005-1.92317.00005-2.88475 0-.41421.33579-.75.74999-.75z" fill-rule="evenodd"/><path d="m8.10581 3.26116c1.38696-.38986 2.86039-.34226 4.21929.13628 1.3589.47855 2.5371 1.36474 3.3737 2.53764s1.291 2.57538 1.301 4.01605c.0101 1.44067-.4246 2.84937-1.2448 4.03387-.8201 1.1844-1.9858 2.087-3.3379 2.5845-1.3521.4974-2.82475.5656-4.21702.1951-1.10085-.2929-2.10906-.8487-2.94067-1.6142-.30477-.2805-.77924-.2608-1.05975.0439-.28052.3048-.26086.7793.0439 1.0598 1.00981.9294 2.23405 1.6044 3.57083 1.9601 1.6906.4498 3.47881.3671 5.12061-.237 1.6419-.6041 3.0573-1.7 4.0532-3.1383.996-1.4383 1.5238-3.1489 1.5116-4.89824-.0122-1.74939-.5639-3.4524-1.5798-4.87664-1.0159-1.42423-2.4465-2.50032-4.0966-3.08141s-3.43933-.63889-5.12349-.16549c-1.40232.39418-2.67493 1.14064-3.6999 2.16207v-.97614c0-.41421-.33578-.75-.75-.75-.41421 0-.75.33579-.75.75 0 .78672.00056 1.57345 0 2.36017-.00004.05738-.0001.13858.0059.21205.0072.08807.02662.22863.1031.37872.09587.18816.24885.34114.43701.43702.15009.07647.29065.0959.37872.10309.07347.00601.15468.00595.21205.00591.78774-.00058 1.57548-.00001 2.36322-.00001.41422 0 .75-.33579.75-.75s-.33578-.75-.75-.75h-.89898c.83671-.81981 1.86909-1.41961 3.00478-1.73884z"/></g></svg>
