<svg xmlns="http://www.w3.org/2000/svg" width="20" height="20" fill="none" viewBox="0 0 20 20"><path fill="currentColor" fill-rule="evenodd" d="M10.3096 3.5366a1.2497 1.2497 0 0 0-.6192 0c-.1967.0503-.3995.1813-1.1255.706l-4.05 2.9268c-.5216.377-.6571.4836-.7512.6045a1.2501 1.2501 0 0 0-.2138.4182c-.0429.1471-.0499.3194-.0499.963v4.895c0 .5724.0006.9566.0248 1.2525.0234.2871.0653.4244.1115.515.1198.2352.311.4264.5462.5462.0906.0462.2279.088.515.1115.2959.0242.68.0248 1.2525.0248h8.1c.5724 0 .9566-.0006 1.2525-.0248.2872-.0235.4244-.0653.515-.1115a1.25 1.25 0 0 0 .5463-.5462c.0461-.0906.088-.2279.1114-.515.0242-.2959.0248-.6801.0248-1.2525v-4.895c0-.6436-.007-.8159-.0499-.963a1.2493 1.2493 0 0 0-.2138-.4182c-.0941-.1209-.2295-.2275-.7512-.6045l-4.05-2.9269c-.7259-.5246-.9288-.6556-1.1255-.7059Zm-.9908-1.4532a2.7499 2.7499 0 0 1 1.3624 0c.5095.1302.9578.4549 1.5297.869l.1028.0744 4.05 2.9269.0726.0524c.4148.2993.7411.5348.9836.8464.2135.2742.3731.5864.4703.92.1105.3792.1102.7815.1098 1.2931v5.0149c0 .5342 0 .98-.0297 1.3442-.0311.3799-.0982.7366-.27 1.0738a2.75 2.75 0 0 1-1.2018 1.2018c-.3373.1719-.6939.239-1.0738.27-.3643.0298-.8101.0298-1.3442.0298h-8.161c-.534 0-.98 0-1.3442-.0298-.3799-.031-.7365-.0981-1.0738-.27a2.7495 2.7495 0 0 1-1.2018-1.2018c-.1718-.3372-.239-.6939-.27-1.0738C2 15.0605 2 14.6147 2 14.0805V9.0656c-.0004-.5116-.0007-.9139.1098-1.293a2.75 2.75 0 0 1 .4703-.9201c.2425-.3116.5688-.547.9837-.8464l.0725-.0524 4.05-2.927c.0348-.025.069-.0498.1028-.0743.572-.4141 1.0202-.7388 1.5297-.869Z" clip-rule="evenodd"/><path fill="currentColor" fill-rule="evenodd" d="M10 7a.75.75 0 0 1 .75.75v4.6894l1.2197-1.2197a.75.75 0 0 1 1.0606 1.0607l-2.5 2.5a.75.75 0 0 1-1.0606 0l-2.5-2.5a.75.75 0 0 1 1.0606-1.0607L9.25 12.4394V7.7501A.75.75 0 0 1 10 7Z" clip-rule="evenodd"/></svg>
