<?xml version="1.0" encoding="UTF-8"?>
<svg width="20px" height="20px" viewBox="0 0 20 20" version="1.1" xmlns="http://www.w3.org/2000/svg" xmlns:xlink="http://www.w3.org/1999/xlink">
    <!-- Generator: Sketch 56 (81588) - https://sketch.com -->
    <title>home_outline_20</title>
    <desc>Created with Sketch.</desc>
    <g id="Page-2" stroke="none" stroke-width="1" fill="none" fill-rule="evenodd">
        <g id="home_outline_20">
            <rect id="icon-bounds" opacity="0.4" x="0" y="0" width="20" height="20"></rect>
            <path d="M17.74127,11.0035221 C18.2659405,11.0035221 18.69127,10.5781926 18.69127,10.0535221 C18.69127,9.79139931 18.5829661,9.54092472 18.3919908,9.36137869 L10.7876588,2.21214221 C10.3450417,1.79601443 9.65510177,1.79594422 9.21240006,2.2119819 L1.60493639,9.36124626 C1.22260301,9.72055161 1.2039351,10.3217686 1.56324045,10.704102 C1.74279364,10.8951628 1.99332629,11.0035221 2.25551627,11.0035221 L3.49513947,11.0035221 L3.49513947,14.4993624 C3.49513947,15.7420031 4.50249878,16.7493624 5.74513947,16.7493624 L9.49947367,16.7493624 L9.49947367,12.7539693 C9.49947367,12.4768764 9.7241018,12.2522483 10.0011946,12.2522483 C10.2782875,12.2522483 10.5029156,12.4768764 10.5029156,12.7539693 L10.5029156,16.7493624 L14.2453403,16.7493624 C15.487981,16.7493624 16.4953403,15.7420031 16.4953403,14.4993624 L16.4953403,11.0035221 L17.74127,11.0035221 Z M7.99947367,15.2493624 L5.74513947,15.2493624 C5.3309259,15.2493624 4.99513947,14.913576 4.99513947,14.4993624 L4.99513947,9.50352208 L3.64389566,9.50352208 L9.99989525,3.53034583 L16.3533032,9.50352208 L14.9953403,9.50352208 L14.9953403,14.4993624 C14.9953403,14.913576 14.6595539,15.2493624 14.2453403,15.2493624 L12.0029156,15.2493624 L12.0029156,12.7539693 C12.0029156,11.6484493 11.1067146,10.7522483 10.0011946,10.7522483 C8.89567467,10.7522483 7.99947367,11.6484493 7.99947367,12.7539693 L7.99947367,15.2493624 Z" id="↳-Icon-Color" fill="currentColor" fill-rule="nonzero"></path>
        </g>
    </g>
</svg>
