<svg xmlns="http://www.w3.org/2000/svg" width="20" height="20" fill="none" viewBox="0 0 20 20"><path fill="currentColor" fill-rule="evenodd" d="M5.0148 10.2367c.2005-.9747 1.0145-2.0039 2.338-2.0039h2.5769s.2223.0131.375-.143c.1364-.1394.1364-.3476.1364-.3476V6.946c0-2.1446 1.6725-3.946 3.8824-3.946.9144 0 1.5889.221 2.1468.6018a3.6588 3.6588 0 0 1 .2517.1886c.204.1668.3932.3563.575.5649.387.4442.2207.6875-.4988.7298v2.954c0 .2878-.2401.5212-.5362.5212h-.0943c-.2178 0-.3711 0-.6088-.1809a2.1077 2.1077 0 0 1-.1905-.1666l-1.022-.8298c-.0174-.0126-.0329-.0243-.0472-.035-.0958-.0717-.1297-.097-.2176-.0629-.0957.0373-.1536.4071-.1463.549a.235.235 0 0 0 .0033.0312l.0349.1899 1.1353 6.1402s.0327.1787.1842.2929.3835.1007.4824.0619l.0022-.0008a.7086.7086 0 0 1 .5289.0037.7114.7114 0 0 1 .3943.4009c.1432.3666-.0366.78-.4015.9246l-.0022.0009a14.0058 14.0058 0 0 1-.6279.229 14.7472 14.7472 0 0 1-.8192.2502 16.0589 16.0589 0 0 1-.829.2036 17.302 17.302 0 0 1-.4008.0822C12.3888 16.8818 11.057 17 9.625 17c-1.3898 0-2.6854-.1113-3.8863-.3349a17.1897 17.1897 0 0 1-.4196-.0835 16.1801 16.1801 0 0 1-.819-.1958 14.895 14.895 0 0 1-.8088-.2405 13.8439 13.8439 0 0 1-.7384-.2658l-.0022-.0009c-.365-.1446-.5446-.558-.4015-.9246a.7115.7115 0 0 1 .3856-.3973.7083.7083 0 0 1 .5376-.0073s-.1867-.0868.0023.0008c.1889.0877.4205.0992.6019-.0517.1355-.1128.1661-.2639.1661-.2639l.7721-3.9979Zm1.0711 4.8805c.0856.1205.2235.2003.3633.2226.9954.1591 2.0312.2317 3.1758.2317 1.1777 0 2.2763-.0845 3.296-.2529.1446-.0238.2436-.0943.3329-.2092.0839-.108.0944-.2425.0909-.3085-.1001-1.913-1.6328-3.5109-3.5948-3.5509-2.0072-.041-3.6467 1.6419-3.7453 3.5668-.0031.0609.007.1958.0812.3004Zm5.5257-1.1391c-.3566-.7179-1.0747-1.2117-1.8922-1.2284-.827-.0169-1.5915.5033-1.9703 1.239.5938.0548 1.2189.0828 1.876.0828.6979 0 1.3598-.0316 1.9865-.0934Zm-8.6601-.9629.5922-3.0717.0019-.009c.299-1.454 1.5706-3.2017 3.8072-3.2017h1.5924C9.0536 3.9001 11.3126 1.5 14.3235 1.5c.901 0 1.6969.1702 2.4093.5218.7063.3486 1.2479.8348 1.6952 1.3481.1564.1796.3667.458.4837.8223.1338.4167.1512.9956-.2107 1.525a1.765 1.765 0 0 1-.4028.4193V8.039c0 1.156-.9517 2.0213-2.0362 2.0213h-.0943l-.0239.0001c-.0561.0004-.1531.0011-.2759-.0094l.5514 2.982c.7358.1299 1.3875.6297 1.6787 1.3753.4436 1.1357-.1138 2.4204-1.2528 2.8675-2.1197.832-4.5378 1.2242-7.2202 1.2242-2.6824 0-5.1005-.3922-7.2201-1.2242-1.139-.4471-1.6964-1.7318-1.2529-2.8675.307-.7861 1.0149-1.2991 1.7995-1.3931Z" clip-rule="evenodd"/></svg>
