<svg xmlns="http://www.w3.org/2000/svg" width="20" height="20" fill="currentColor" viewBox="0 0 20 20"><path fill-rule="evenodd" d="M8.414 2h3.172c.455 0 .838 0 1.154.024.332.025.644.079.948.215.471.21.874.549 1.162.977.186.276.293.575.374.897.078.308.143.685.221 1.133L15.925 8h1.825a.75.75 0 0 1 0 1.5H2.25a.75.75 0 0 1 0-1.5h1.826l.479-2.754c.078-.448.143-.825.22-1.133.082-.322.189-.62.375-.897a2.75 2.75 0 0 1 1.162-.977c.304-.136.616-.19.948-.215C7.576 2 7.96 2 8.414 2ZM5.598 8h8.804l-.43-2.47a15.81 15.81 0 0 0-.202-1.05c-.06-.236-.113-.35-.165-.427a1.25 1.25 0 0 0-.528-.445c-.085-.037-.206-.07-.45-.088-.253-.02-.579-.02-1.069-.02H8.443c-.49 0-.816 0-1.07.02-.243.018-.364.05-.449.088a1.25 1.25 0 0 0-.528.445c-.052.077-.105.19-.165.428-.062.246-.118.567-.202 1.05L5.598 8ZM5.5 12.5a2 2 0 1 0 0 4 2 2 0 0 0 0-4Zm-3.5 2a3.5 3.5 0 0 1 6.74-1.325A5.09 5.09 0 0 1 10 13c.45 0 .877.077 1.26.175a3.501 3.501 0 1 1-.256 1.483A3.84 3.84 0 0 0 10 14.5a3.84 3.84 0 0 0-1.004.159A3.5 3.5 0 0 1 2 14.5Zm12.5-2a2 2 0 1 0 0 4 2 2 0 0 0 0-4Z" clip-rule="evenodd"/></svg>
