<svg xmlns="http://www.w3.org/2000/svg" width="20" height="20" fill="currentColor" viewBox="0 0 20 20"><path fill-rule="evenodd" d="M3.251 4.5a.75.75 0 1 0 0 1.5h13.498a.75.75 0 1 0 0-1.5H3.251Zm.556 3.26a.752.752 0 0 0-1.041 1.08l1.46 1.403-1.48 1.537a.752.752 0 0 0 1.082 1.04l1.863-1.933a.95.95 0 0 0-.026-1.343L3.807 7.759ZM3.25 14.5a.75.75 0 1 0 0 1.5h13.498a.75.75 0 1 0 0-1.5H3.251Zm4.255-4.25a.75.75 0 0 1 .751-.75h8.492a.75.75 0 1 1 0 1.5H8.257a.75.75 0 0 1-.75-.75Z" clip-rule="evenodd"/></svg>
