<svg width="20" height="20" viewBox="0 0 20 20" fill="none" xmlns="http://www.w3.org/2000/svg"><path fill-rule="evenodd" clip-rule="evenodd" d="M10 9.25a.75.75 0 01.75.75v4a.75.75 0 01-1.5 0v-4a.75.75 0 01.75-.75z" fill="currentColor"/><path d="M11 7a1 1 0 11-2 0 1 1 0 012 0z" fill="currentColor"/><path fill-rule="evenodd" clip-rule="evenodd" d="M3.99 3.99A8.476 8.476 0 0110 1.5c2.347 0 4.473.952 6.01 2.49A8.476 8.476 0 0118.5 10a8.476 8.476 0 01-2.49 6.01A8.476 8.476 0 0110 18.5a8.476 8.476 0 01-6.01-2.49A8.476 8.476 0 011.5 10c0-2.347.952-4.473 2.49-6.01zM10 3a6.976 6.976 0 00-4.95 2.05A6.976 6.976 0 003 10c0 1.933.783 3.682 2.05 4.95A6.976 6.976 0 0010 17a6.975 6.975 0 004.95-2.05A6.975 6.975 0 0017 10a6.976 6.976 0 00-2.05-4.95A6.976 6.976 0 0010 3z" fill="currentColor"/></svg>
