<svg xmlns="http://www.w3.org/2000/svg" width="20" height="20" fill="none" viewBox="0 0 20 20"><path fill="currentColor" fill-rule="evenodd" d="M15.4103 1c.8945.0108 1.79.0024 2.6847 0a1.508 1.508 0 0 1 .1218.0039.851.851 0 0 1 .3191.0888.8504.8504 0 0 1 .3715.3714.849.849 0 0 1 .0887.3192A1.467 1.467 0 0 1 19 1.905c-.0024.8116 0 1.6233 0 2.435 0 .0156.0006.0724-.0039.1267a.849.849 0 0 1-.0887.3191.8504.8504 0 0 1-.3715.3715.8512.8512 0 0 1-.3191.0888c-.0543.0044-.1112.0038-.1268.0038h-1.34v1.3366c0 .0156.0006.0724-.0039.1267a.849.849 0 0 1-.0887.3192.8504.8504 0 0 1-.3715.3715.851.851 0 0 1-.3191.0887c-.0543.0045-.1112.0039-.1268.0039h-1.09c0 .4494-.0011.899 0 1.3484a1.467 1.467 0 0 1-.0039.1218.8491.8491 0 0 1-.0887.3191.8504.8504 0 0 1-.3715.3715.8512.8512 0 0 1-.3191.0888 1.503 1.503 0 0 1-.1218.0038c-.527-.0013-1.054 0-1.581 0 .468.8093.736 1.7491.736 2.75 0 3.0376-2.4624 5.5-5.5 5.5S2 15.5376 2 12.5C2 9.4625 4.4624 7 7.5 7c.4961 0 .978.0659 1.4366.1897L14.5934 1.35c.0181-.0186.1104-.1212.2305-.1966a.9996.9996 0 0 1 .2939-.1245c.1259-.0309.2519-.0294.2925-.0289Zm.1574 1.5L9.8725 8.3795c-.0249.0257-.1578.1772-.3338.2668a.9878.9878 0 0 1-.4232.1084 1.01 1.01 0 0 1-.2773-.032c-.0545-.0136-.1142-.0324-.1548-.045A3.9987 3.9987 0 0 0 7.5 8.5c-2.2091 0-4 1.7909-4 4 0 2.2092 1.7909 4 4 4 2.2091 0 4-1.7908 4-4 0-.8566-.2781-1.7026-.7914-2.389a1.489 1.489 0 0 1-.0621-.0884.8521.8521 0 0 1-.1149-.2715.8482.8482 0 0 1 .026-.4661.8498.8498 0 0 1 .143-.2555 1.4668 1.4668 0 0 1 .0714-.081c.104-.1108.2075-.2222.3112-.3333.0181-.0194.1107-.1262.2326-.205a.9996.9996 0 0 1 .2994-.1301c.1287-.0323.2577-.0307.2992-.0302.4451.0055.8905.0001 1.3356.0001 0-.4494.0011-.899 0-1.3484a1.467 1.467 0 0 1 .0039-.1218.8491.8491 0 0 1 .0887-.3191.8503.8503 0 0 1 .3715-.3715.8512.8512 0 0 1 .3191-.0888 1.503 1.503 0 0 1 .1218-.0038c.365.001.73 0 1.095 0 0-.4472.0011-.8944 0-1.3415a1.4668 1.4668 0 0 1 .0039-.1218.849.849 0 0 1 .0887-.3192.8504.8504 0 0 1 .3715-.3714.851.851 0 0 1 .3191-.0888c.0543-.0045.1112-.0039.1268-.0039h1.34V2.5h-1.9323Z" clip-rule="evenodd"/><path fill="currentColor" d="M7.5 13.5c0 .5523-.4477 1-1 1s-1-.4477-1-1 .4477-1 1-1 1 .4477 1 1Z"/></svg>
