<svg fill="none" height="20" viewBox="0 0 20 20" width="20" xmlns="http://www.w3.org/2000/svg"><path clip-rule="evenodd" d="m7 4h6c1.4001 0 2.1002 0 2.635.27248.4704.23969.8528.62214 1.0925 1.09254.2725.53478.2725 1.23485.2725 2.63498v5.5h1.1056c.4939 0 .8944.4005.8944.8944 0 .3658-.2227.6947-.5623.8305l-1.19.476c-.2105.0842-.3157.1263-.4229.1601-.2202.0695-.4477.1133-.678.1306-.1121.0084-.2254.0084-.4521.0084h-11.38944c-.22664 0-.33996 0-.45208-.0084-.23027-.0173-.45777-.0611-.67799-.1306-.10722-.0338-.21242-.0759-.42281-.16l-.00006-.0001-1.19007-.476c-.33958-.1358-.56225-.4647-.56225-.8305 0-.4939.40045-.8944.89444-.8944h1.10556v-5.5c0-1.40013 0-2.1002.27248-2.63498.23969-.4704.62214-.85285 1.09254-1.09254.53478-.27248 1.23485-.27248 2.63498-.27248zm-2.5 9.5h11v-5.5c0-.72482-.0012-1.17822-.0291-1.51985-.0265-.32412-.0694-.41345-.0799-.43414-.0959-.18816-.2488-.34114-.437-.43702-.0207-.01054-.11-.05343-.4342-.07991-.3416-.02791-.795-.02908-1.5198-.02908h-6c-.72482 0-1.17822.00117-1.51985.02908-.32412.02648-.41345.06937-.43414.07991-.18816.09588-.34114.24886-.43702.43702-.01054.02069-.05343.11002-.07991.43414-.02791.34163-.02908.79503-.02908 1.51985z" fill="currentColor" fill-rule="evenodd"/></svg>
