<svg width="20" height="20" viewBox="0 0 20 20" fill="none" xmlns="http://www.w3.org/2000/svg"><path fill-rule="evenodd" clip-rule="evenodd" d="M4.012 2.528C4.662 2.18 5.307 2 7.082 2h5.836c1.775 0 2.42.18 3.07.528.64.342 1.142.844 1.484 1.484.348.65.528 1.295.528 3.07v5.836c0 1.775-.18 2.42-.528 3.07a3.567 3.567 0 01-1.484 1.484c-.65.348-1.295.528-3.07.528H7.082c-1.775 0-2.42-.18-3.07-.528a3.567 3.567 0 01-1.484-1.484C2.18 15.338 2 14.693 2 12.918V7.082c0-1.775.18-2.42.528-3.07a3.567 3.567 0 011.484-1.484zM15.28 16.15c-.34.181-.703.35-2.363.35H9v-13h3.918c1.66 0 2.023.169 2.363.35.378.203.666.49.868.87.182.339.351.702.351 2.362v5.836c0 1.66-.169 2.023-.35 2.363-.203.378-.49.666-.87.868zM7.082 3.5c-1.66 0-2.023.169-2.363.35-.378.203-.666.49-.869.87-.181.339-.35.702-.35 2.362v5.836c0 1.66.169 2.023.35 2.363.203.378.49.666.87.868.339.182.702.351 2.362.351H7.5v-13h-.418z" fill="currentColor"/></svg>
