<svg fill="none" height="20" viewBox="0 0 20 20" width="20" xmlns="http://www.w3.org/2000/svg"><path clip-rule="evenodd" d="m4.25 8.75c0-3.17564 2.57436-5.75 5.75-5.75.9586 0 1.8603.23398 2.6534.6473.3673.19144.8202.04887 1.0117-.31845.1914-.36732.0489-.82028-.3185-1.01173-1.002-.52223-2.1409-.81712-3.3466-.81712-4.00406 0-7.25 3.24594-7.25 7.25 0 2.0559.9431 3.4791 1.91585 4.5405.34717.3787.71731.7307 1.04114 1.0387.11657.1108.22714.216.32848.3146.37157.3617.61534.6325.75113.8635l.09709.4854c.06445.3224.12066.6034.18499.8345.06853.246.159.4857.31607.7107.23732.34.56399.6078.94392.7738.25143.1099.50415.1516.7589.1705.23917.0178.52578.0178.85448.0178h.00008.11577.0001c.3286 0 .6153 0 .8544-.0178.2548-.0189.5075-.0606.7589-.1705.38-.166.7066-.4338.944-.7738.157-.225.2475-.4647.316-.7107.0644-.2311.1206-.5121.185-.8345l.0971-.4852c.0967-.1642.2532-.3569.484-.5963.1813-.1882.3781-.3753.598-.5844.1089-.1036.2235-.2125.3447-.3297.7011-.6776 1.524-1.5361 2.0537-2.6825.1738-.376.0098-.8217-.3662-.9954-.376-.1738-.8217-.0098-.9954.3662-.4063.8793-1.0554 1.5768-1.7346 2.2332-.0994.0961-.2023.194-.3058.2925-.2338.2223-.4702.4472-.6745.6591-.1874.1945-.3743.4041-.5355.6298h-1.3318v-1.6395l.9685-.7748c.3235-.2588.3759-.7308.1172-1.0542-.2588-.3235-.7308-.3759-1.0542-.1172l-.7815.6252-.78148-.6252c-.32345-.2587-.79541-.2063-1.05417.1172-.25876.3234-.20632.7954.11713 1.0542l.96852.7748v1.6395h-1.33199c-.24141-.3377-.54553-.648-.83629-.9311-.12534-.122-.25076-.2412-.37614-.3605h-.00002c-.31223-.2969-.62418-.5935-.93391-.9315-.83975-.9162-1.52165-1.993-1.52165-3.5269zm4.2637 7.6748c-.03102-.1115-.06123-.2462-.09815-.4248h1.58485 1.584c-.0369.1786-.0671.3133-.0981.4248-.0451.1618-.0787.2225-.101.2545-.0791.1133-.188.2026-.3147.2579-.0358.0157-.1019.0367-.2694.0492-.1769.0131-.4073.0136-.7687.0136h-.06497c-.36148 0-.59187-.0005-.76878-.0136-.16748-.0125-.23359-.0335-.26939-.0492-.12664-.0553-.23553-.1446-.31464-.2579-.02236-.032-.05596-.0927-.10102-.2545zm6.6232-13.16308c.1163-.34896.6099-.34896.7262 0l.3921 1.17617c.127.38098.4259.67994.8069.80693l1.1762.39206c.3489.11632.3489.60992 0 .72624l-1.1762.39206c-.381.12699-.6799.42595-.8069.80693l-.3921 1.17617c-.1163.34896-.6099.34896-.7262 0l-.3921-1.17617c-.127-.38098-.4259-.67994-.8069-.80693l-1.1762-.39206c-.3489-.11632-.3489-.60992 0-.72624l1.1762-.39206c.381-.12699.6799-.42595.8069-.80693z" fill="currentColor" fill-rule="evenodd"/></svg>
