<svg fill="none" height="20" viewBox="0 0 20 20" width="20" xmlns="http://www.w3.org/2000/svg"><path clip-rule="evenodd" d="m10 3c-3.17564 0-5.75 2.57436-5.75 5.75 0 1.5339.6819 2.6107 1.52165 3.5269.30973.338.62168.6346.93391.9315h.00002c.12538.1193.2508.2385.37614.3605.29076.2831.59488.5934.83629.9311h.0049.00696.00696.00696.00696.00696.00695.00696.00695.00696.00695.00695.00695.00695.00695.00695.00694.00695.00694.00694.00694.00693.00694.00693.00693.00693.00693.00692.00692.00692.00692.00692.00691.00691.00691.0069.0069.0069.0069.00689.00689.00689.00688.00688.00688.00688.00687.00686.00687.00686.00685.00685.00685.00685.00684.00683.00684.00682.00683.00682.00681.00681.00681.0068.0068.00679.00679.00678.00678.00677.00677.00676.00676.00675.00675.00674.00674.00673.00672.00672.00672.0067.00671.00669.00669.00669.00668.00667.00666.00666.00666.00664.00664.00664.00662.00662.00662.0066.0066.0066.00658.00658.00657.00657.00655.00655.00654.00654.00653.00652.00651.0065.0065.00649.00648.00647.00646.00646.00645.00643.00644.00642.00641.00641.0064.00638.00638.00637.00637.00635.00634.00634.00632.00632.00631.00629.00629.00628.00627.00626.00625.00624.00623.00622.00621.0062.00619.00618.00617.00616.00615.00614.00613.00612.0061.0061.00609.00607.00607.00605.00604.00603.00602.00601.006.00598.00598.00596.00595.00594.00593.00592.0059.0059.00588.00587.00585.00585.00583.00582.00581.00579.00579.00577.00575.00575.00573.00572.00571.00569.00568.00567.00566.00564.00562.00562.0056.00559.00557.00556.00555.00553.00552.00551.00549.00548.00526v-1.6395l-.96852-.7748c-.32345-.2588-.37589-.7308-.11713-1.0542.25876-.3235.73072-.3759 1.05417-.1172l.78148.6252.7815-.6252c.3234-.2587.7954-.2063 1.0542.1172.2587.3234.2063.7954-.1172 1.0542l-.9685.7748v1.6395h.0053.0054.0055.0055.0056.0055.0055.0056.0056.0056.0056.0056.0056.0056.0057.0057.0056.0057.0057.0058.0057.0057.0058.0058.0058.0058.0058.0058.0058.0059.0058.0059.0059.0059.0059.0059.0059.0059.006.006.0059.006.006.006.006.0061.006.0061.006.0061.0061.0061.0061.0061.0062.0061.0061.0062.0062.0061.0062.0062.0062.0063.0062.0062.0063.0063.0062.0063.0063.0063.0063.0063.0063.0064.0063.0064.0063.0064.0064.0064.0064.0064.0064.0064.0064.0065.0064.0065.0064.0065.0065.0065.0065.0065.0065.0065.0065.0066.0065.0066.0065.0066.0066.0065.0066.0066.0066.0066.0066.0067.0066.0066.0067.0066.0067.0066.0067.0067.0066.0067.0067.0067.0067.0067.0067.0067.0068.0067.0067.0068.0067.0068.0067.0068.0068.0067.0068.0068.0068.0068.0068.0068.0068.0068.0068.0068.0069.0068.0068.0069.0068.0068.0069.0068.0069.0069.0068.0069.0069.0068.0069.0069.0069.0069.0068.0069.0069.0069.0069.0069.007.0069.0069.0069.0069.0069.0069.007.0069.0069.007.0069.0069.007.0069.0069.007.0069.007.0069.007.0069.007.0069.007.0069.007.0069.007.007.0069.007.0069.007.0049c.2414-.3377.5455-.648.8363-.9311.1253-.122.2507-.2412.3761-.3605.3123-.2969.6242-.5935.934-.9315.8397-.9162 1.5216-1.993 1.5216-3.5269 0-3.17564-2.5744-5.75-5.75-5.75zm0 13h-.00002-.00004-.00008-.0001-.00014-.00017-.00019-.00023-.00025-.00029-.00031-.00035-.00037-.00041-.00043-.00047-.00049-.00052-.00055-.00058-.00061-.00064-.00067-.00069-.00073-.00075-.00078-.00082-.00084-.00086-.0009-.00092-.00096-.00098-.00101-.00104-.00106-.0011-.00112-.00115-.00117-.00121-.00123-.00126-.00129-.00131-.00134-.00137-.0014-.00142-.00145-.00148-.00151-.00153-.00156-.00158-.00161-.00164-.00167-.00169-.00172-.00174-.00177-.0018-.00182-.00185-.00188-.0019-.00192-.00196-.00198-.002-.00203-.00206-.00208-.0021-.00213-.00216-.00218-.00221-.00223-.00226-.00228-.00231-.00233-.00236-.00238-.00241-.00243-.00245-.00248-.00251-.00253-.00255-.00258-.0026-.00262-.00265-.00267-.0027-.00272-.00274-.00277-.00279-.00282-.00284-.00286-.00288-.00291-.00293-.00296-.00297-.003-.00303-.00304-.00307-.0031-.00311-.00314-.00316-.00318-.0032-.00323-.00325-.00327-.00329-.00332-.00333-.00336-.00338-.0034-.00343-.00344-.00347-.00349-.00351-.00353-.00356-.00357-.0036-.00361-.00364-.00366-.00368-.0037-.00372-.00374-.00376-.00379-.0038-.00383-.00384-.00386-.00389-.0039-.00393-.00394-.00397-.00399-.004-.00403-.00404-.00406-.00409-.0041-.00412-.00415-.00416-.00418-.0042-.00422-.00424-.00425-.00428-.00429-.00432-.00433-.00435-.00437-.00439-.0044-.00443-.00444-.00446-.00448-.0045-.00452-.00453-.00455-.00457-.00459-.0046-.00463-.00464-.00466-.00467-.00469-.00471-.00473-.00475-.00476-.00478-.00479-.00481-.00483-.00485-.00486-.00488-.0049-.00491-.00493-.00495-.00496-.00498-.00499-.00501-.00503-.00504-.00506-.00507-.00509-.00511-.00512-.00514-.00515-.00517-.00518-.0052-.00522-.00523-.00524-.00526-.00528-.00529-.0053-.00532-.00533-.00535-.00537-.00537-.0054-.0054-.00542-.00544-.00545-.00546-.00548-.00549-.00551-.00552-.00553-.00555-.00556-.00557-.00559-.0056-.00562-.00562-.00564-.00566-.00567-.00568-.00569-.00571-.00572-.00573-.00575-.00575-.00577-.00579-.00579-.00581-.00582-.00583-.00585-.00585-.00587-.00588-.0059-.0059-.00592-.00593-.00594-.00595-.00596-.00598-.00598-.006-.00601-.00602-.00603-.00604-.00605-.00607-.00607-.00609-.0061-.0061-.00612-.00613-.00614-.00615-.00616-.00617-.00618-.00619-.0062-.00621-.00622-.00623-.00624-.00625-.00626-.00627-.00628-.00629-.00629-.00631-.00632-.00632-.00634-.00634-.00635-.00637-.00637-.00638-.00638-.0064-.00641-.00641-.00642-.00644-.00643-.00645-.00646-.00646-.00647-.00648-.00649-.0065-.0065-.00651-.00652-.00653-.00654-.00654-.00655-.00655-.00657-.00657-.00658-.00658-.0066-.0066-.0066-.00662-.00662-.00662-.00664-.00664-.00664-.00666-.00666-.00666-.00667-.00668-.00669-.00669-.00669-.00671-.0067-.00672-.00672-.00672-.00673-.00674-.00674-.00675-.00675-.00317c.03692.1786.06713.3133.09815.4248.04506.1618.07866.2225.10102.2545.07911.1133.188.2026.31464.2579.0358.0157.10191.0367.26939.0492.17691.0131.4073.0136.76878.0136h.03247.0325c.3614 0 .5918-.0005.7687-.0136.1675-.0125.2336-.0335.2694-.0492.1267-.0553.2356-.1446.3147-.2579.0223-.032.0559-.0927.101-.2545.031-.1115.0612-.2462.0981-.4248h-.0031-.0068-.0067-.0068-.0067-.0067-.0068-.0067-.0067-.0067-.0067-.0067-.0067-.0067-.0066-.0067-.0067-.0066-.0067-.0066-.0067-.0066-.0066-.0067-.0066-.0066-.0066-.0066-.0066-.0065-.0066-.0066-.0065-.0066-.0065-.0066-.0065-.0065-.0065-.0065-.0065-.0065-.0065-.0065-.0064-.0065-.0064-.0065-.0064-.0064-.0064-.0064-.0064-.0064-.0064-.0064-.0063-.0064-.0063-.0064-.0063-.0063-.0063-.0063-.0063-.0063-.0062-.0063-.0063-.0062-.0062-.0063-.0062-.0062-.0062-.0061-.0062-.0062-.0061-.0061-.0062-.0061-.0061-.0061-.0061-.0061-.006-.0061-.006-.0061-.006-.006-.006-.006-.0059-.006-.006-.0059-.0059-.0059-.0059-.0059-.0059-.0059-.0058-.0059-.0058-.0058-.0058-.0058-.0058-.0058-.0058-.0057-.0057-.0058-.0057-.0057-.0056-.0057-.0057-.0056-.0056-.0056-.0056-.0056-.0056-.0056-.0055-.0055-.0056-.0055-.0055-.0054-.0055-.0055-.0054-.0054-.0054-.0054-.0054-.0053-.0054-.0053-.0053-.0054-.0052-.0053-.0053-.0052-.0053-.0052-.0052-.0051-.0052-.0052-.0051-.0051-.0051-.0051-.0051-.0051-.005-.005-.005-.005-.005-.005-.0049-.0049-.005-.0049-.0048-.0049-.0048-.0049-.0048-.0048-.0048-.0047-.0048-.0047-.0047-.0047-.0047-.0046-.0047-.0046-.0046-.0046-.0046-.0045-.0045-.0046-.0045-.0044-.0045-.0044-.0045-.0044-.0044-.0043-.0044-.0043-.0043-.0043-.0043-.0043-.0042-.0042-.0042-.0042-.0042-.0041-.0041-.0041-.0041-.0041-.004-.004-.004-.004-.004-.0039-.004-.0039-.0039-.0038-.0039-.0038-.0038-.0038-.0037-.0038-.0037-.0037-.0037-.0036-.0037-.0036-.0036-.0036-.0035-.0035-.0036-.0034-.0035-.0035-.0034-.0034-.0034-.0033-.0034-.0033-.0033-.0032-.0033-.0032-.0032-.0032-.0032-.0031-.0031-.0031-.0031-.003-.003-.003-.003-.003-.0029-.0029-.0029-.0029-.0028-.0028-.0028-.0028-.0027-.0027-.0027-.0027-.0027-.0026-.0026-.0026-.0025-.0025-.0025-.0025-.0025-.0024-.0024-.0024-.0024-.0023-.0023-.0023-.0022-.0023-.0022-.0022-.0021-.0021-.0022-.002-.0021-.002-.002-.002-.002-.0019-.0019-.0019-.0018-.0018-.0018-.0018-.0017-.0018-.0017-.0016-.0017-.0016-.0016-.0015-.0015-.0015-.0015-.0015-.0014-.0014-.0014-.0013-.0013-.0013-.0013-.0012-.0012-.0012-.0011-.0012-.001-.0011-.0011-.001-.0009-.001-.0009-.0009-.0009-.0008-.0008-.0008-.0008-.0007-.0007-.0007-.0006-.0006-.0006-.0005-.0006-.0005-.0004-.0005-.0004-.0003-.0004-.0003-.0003-.0002-.0003-.0002-.0001-.0002-.0001zm-.03247 2.5h.03247.0325.0254.0001c.3286 0 .6153 0 .8544-.0178.2548-.0189.5075-.0606.7589-.1705.38-.166.7066-.4338.944-.7738.157-.225.2475-.4647.316-.7107.0644-.2311.1206-.5121.185-.8344v-.0001l.005-.0249.0921-.4605c.1358-.231.3796-.5018.7511-.8635.1013-.0986.2118-.2037.3284-.3145l.0001-.0001c.3238-.308.694-.66 1.0411-1.0387.9728-1.0614 1.9159-2.4846 1.9159-4.5405 0-4.00406-3.2459-7.25-7.25-7.25-4.00406 0-7.25 3.24594-7.25 7.25 0 2.0559.9431 3.4791 1.91585 4.5405.34717.3787.71731.7307 1.04114 1.0387.11657.1108.22714.216.32848.3146.37157.3617.61534.6325.75113.8635l.0921.4605.00499.0249c.06445.3223.12065.6034.18499.8345.06853.246.159.4857.31607.7107.23732.34.56399.6078.94392.7738.25143.1099.50415.1516.7589.1705.23917.0178.52578.0178.85448.0178h.00008z" fill="currentColor" fill-rule="evenodd"/></svg>
