<?xml version="1.0" encoding="UTF-8"?>
<svg width="20px" height="20px" viewBox="0 0 20 20" version="1.1" xmlns="http://www.w3.org/2000/svg" xmlns:xlink="http://www.w3.org/1999/xlink">
    <!-- Generator: Sketch 56 (81588) - https://sketch.com -->
    <title>like_outline_20</title>
    <desc>Created with Sketch.</desc>
    <g id="Page-2" stroke="none" stroke-width="1" fill="none" fill-rule="evenodd">
        <g id="like_outline_20">
            <polygon id="Bounds" opacity="0.4" points="0 0 20 0 20 20 0 20"></polygon>
            <path d="M13.4088346,3 C16.2206076,3 18.5,5.2793924 18.5,8.09116541 C18.5,10.7741736 17.4766777,12.1346081 13.1256732,15.5187227 L11.2534621,16.9748869 C10.5161948,17.548317 9.48380515,17.548317 8.74653791,16.9748869 L6.87432678,15.5187227 C2.52332231,12.1346081 1.5,10.7741736 1.5,8.09116541 C1.5,5.2793924 3.7793924,3 6.59116541,3 C7.8539596,3 9.00130906,3.49103188 10,4.43210395 C10.9986909,3.49103188 12.1460404,3 13.4088346,3 Z M13.4088346,4.5 C12.3670606,4.5 11.4277389,4.99118621 10.5742458,6.0071089 L10,6.69064032 L9.42575421,6.0071089 C8.57226113,4.99118621 7.63293944,4.5 6.59116541,4.5 C4.60781952,4.5 3,6.10781952 3,8.09116541 C3,10.1749704 3.77964943,11.2114591 7.7952377,14.3346944 L9.66744883,15.7908586 C9.86305035,15.9429931 10.1369497,15.9429931 10.3325512,15.7908586 L12.2047623,14.3346944 C16.2203506,11.2114591 17,10.1749704 17,8.09116541 C17,6.10781952 15.3921805,4.5 13.4088346,4.5 Z" id="↳-Icon-Color" fill="currentColor" fill-rule="nonzero"></path>
        </g>
    </g>
</svg>
