<svg fill="none" height="20" viewBox="0 0 20 20" width="20" xmlns="http://www.w3.org/2000/svg" xmlns:xlink="http://www.w3.org/1999/xlink"><linearGradient id="a" gradientUnits="userSpaceOnUse" x1="-10" x2="10" y1="10" y2="30"><stop offset="0" stop-color="#ff5263"/><stop offset="1" stop-color="#ff3347"/></linearGradient><path d="m0 10c0-5.52285 4.47715-10 10-10 5.5228 0 10 4.47715 10 10 0 5.5228-4.4772 10-10 10-5.52285 0-10-4.4772-10-10z" fill="url(#a)"/><path d="m12.1992 6.5c1.5469 0 2.8008 1.20487 2.8008 2.69116 0 1.50094-.6259 2.25354-3.2805 4.23744l-1.2079.9027c-.3009.2249-.72229.2249-1.02322 0l-1.20788-.9027c-2.65464-1.9839-3.2805-2.7365-3.2805-4.23744 0-1.48629 1.25394-2.69116 2.80075-2.69116.82874 0 1.54925.4 2.19925 1.15.65-.75 1.3705-1.15 2.1992-1.15z" fill="#fff"/></svg>
