<svg fill="none" height="20" viewBox="0 0 20 20" width="20" xmlns="http://www.w3.org/2000/svg"><g fill="currentColor"><path d="m2 4.75c0-.41421.33579-.75.75-.75h14.5c.4142 0 .75.33579.75.75s-.3358.75-.75.75h-14.5c-.41421 0-.75-.33579-.75-.75z"/><path d="m2 9.75c0-.41421.33579-.75.75-.75h12.5c.4142 0 .75.33579.75.75 0 .4142-.3358.75-.75.75h-12.5c-.41421 0-.75-.3358-.75-.75z"/><path d="m2 14.75c0-.4142.33579-.75.75-.75h4.5c.41421 0 .75.3358.75.75s-.33579.75-.75.75h-4.5c-.41421 0-.75-.3358-.75-.75z"/><path clip-rule="evenodd" d="m19.2803 12.2197c.2929.2929.2929.7677 0 1.0606l-4.4951 4.4952c-.2926.2926-.7669.293-1.0599.0008l-2.5029-2.4952c-.2933-.2924-.294-.7673-.0016-1.0606.2925-.2934.7673-.2941 1.0607-.0016l1.9725 1.9664 3.9657-3.9656c.2928-.2929.7677-.2929 1.0606 0z" fill-rule="evenodd"/></g></svg>
