<svg xmlns="http://www.w3.org/2000/svg" width="20" height="20" fill="currentColor" viewBox="0 0 20 20"><path d="M6.667 4.917a.75.75 0 0 1 .75-.75h9.333a.75.75 0 0 1 0 1.5H7.417a.75.75 0 0 1-.75-.75Zm0 5.083a.75.75 0 0 1 .75-.75h9.333a.75.75 0 0 1 0 1.5H7.417a.75.75 0 0 1-.75-.75Zm0 5.083a.75.75 0 0 1 .75-.75h9.333a.75.75 0 0 1 0 1.5H7.417a.75.75 0 0 1-.75-.75ZM5 10a1.25 1.25 0 1 1-2.5 0A1.25 1.25 0 0 1 5 10Zm0 5a1.25 1.25 0 1 1-2.5 0A1.25 1.25 0 0 1 5 15ZM5 5a1.25 1.25 0 1 1-2.5 0A1.25 1.25 0 0 1 5 5Z"/></svg>
