<svg xmlns="http://www.w3.org/2000/svg" width="20" height="20" fill="currentColor" viewBox="0 0 20 20"><path fill-rule="evenodd" d="m8.84 11.348-.016-.173-.17-.015c-.97-.086-2.629-.242-3.868-.406-.596-.08-1.157-.168-1.475-.264-1.677-.507-1.689-2.583-.388-3.277.24-.128 1.016-.435 1.974-.801.99-.38 2.25-.85 3.521-1.316 2.516-.923 5.146-1.86 5.754-2.02 1.735-.458 3.166 1.11 2.75 2.846-.161.677-1.045 3.147-1.91 5.51a329.144 329.144 0 0 1-1.994 5.321c-.684 1.712-3.006 1.61-3.51-.064-.094-.311-.181-.87-.26-1.463a105.82 105.82 0 0 1-.409-3.878ZM3.744 9.054c.18.055.618.13 1.238.213a71.05 71.05 0 0 0 1.99.227 145.242 145.242 0 0 0 2.603.24.75.75 0 0 1 .687.685 161.74 161.74 0 0 0 .244 2.619c.07.685.149 1.396.228 1.992.082.62.156 1.053.208 1.226.045.15.164.23.303.235.186.007.315-.133.38-.294a329.38 329.38 0 0 0 1.978-5.282c.887-2.421 1.725-4.776 1.86-5.343.18-.752-.387-1.183-.91-1.045-.52.137-3.06 1.038-5.62 1.978-1.266.465-2.52.932-3.501 1.308-1.015.388-1.67.652-1.805.724a.267.267 0 0 0-.133.261c.011.14.125.219.25.256Z" clip-rule="evenodd"/></svg>
