<svg xmlns="http://www.w3.org/2000/svg" width="20" height="20" fill="none" viewBox="0 0 20 20"><path fill="currentColor" d="M10 10.75a.75.75 0 0 1 .75.75v2a.75.75 0 0 1-1.5 0v-2a.75.75 0 0 1 .75-.75Z"/><path fill="currentColor" fill-rule="evenodd" d="M6 7.0288V5c0-2.2091 1.7909-4 4-4 2.2091 0 4 1.7909 4 4v2.0288c.5883.036 1.0057.1167 1.362.2982a2.9997 2.9997 0 0 1 1.311 1.311C17 9.2798 17 10.1198 17 11.8v1.4c0 1.6802 0 2.5202-.327 3.162a2.9994 2.9994 0 0 1-1.311 1.311C14.7202 18 13.8802 18 12.2 18H7.8c-1.6802 0-2.5202 0-3.162-.327a2.9997 2.9997 0 0 1-1.311-1.311C3 15.7202 3 14.8802 3 13.2v-1.4c0-1.6802 0-2.5202.327-3.162a3 3 0 0 1 1.311-1.311c.3563-.1815.7737-.2623 1.362-.2982ZM10 2.5c1.3807 0 2.5 1.1193 2.5 2.5v2h-5V5c0-1.3807 1.1193-2.5 2.5-2.5Zm-2.2 6c-.8648 0-1.4232.0012-1.8483.0359-.4074.0333-.5585.0898-.6327.1276a1.5 1.5 0 0 0-.6555.6555c-.0378.0742-.0943.2253-.1276.6327-.0347.4251-.0359.9835-.0359 1.8483v1.4c0 .8648.0012 1.4232.0359 1.8482.0333.4075.0898.5586.1276.6328.1438.2822.3733.5117.6555.6555.0742.0378.2253.0943.6327.1276.425.0347.9835.0359 1.8483.0359h4.4c.8648 0 1.4232-.0012 1.8482-.0359.4075-.0333.5586-.0898.6328-.1276a1.5002 1.5002 0 0 0 .6555-.6555c.0378-.0742.0943-.2253.1276-.6328.0347-.425.0359-.9834.0359-1.8482v-1.4c0-.8648-.0012-1.4232-.0359-1.8483-.0333-.4074-.0898-.5585-.1276-.6327a1.5 1.5 0 0 0-.6555-.6555c-.0742-.0378-.2253-.0943-.6328-.1276-.425-.0347-.9834-.0359-1.8482-.0359H7.8Z" clip-rule="evenodd"/></svg>
