<svg width="20" height="20" fill="none" xmlns="http://www.w3.org/2000/svg"><path d="M10 10.75a.75.75 0 01.75.75v2a.75.75 0 01-1.5 0v-2a.75.75 0 01.75-.75z" fill="currentColor"/><path fill-rule="evenodd" clip-rule="evenodd" d="M6 7.029V5a4 4 0 118 0v2.029c.588.036 1.006.116 1.362.298a3 3 0 011.311 1.311C17 9.28 17 10.12 17 11.8v1.4c0 1.68 0 2.52-.327 3.162a3 3 0 01-1.311 1.311C14.72 18 13.88 18 12.2 18H7.8c-1.68 0-2.52 0-3.162-.327a3 3 0 01-1.311-1.311C3 15.72 3 14.88 3 13.2v-1.4c0-1.68 0-2.52.327-3.162a3 3 0 011.311-1.311c.356-.182.774-.262 1.362-.298zM10 2.5A2.5 2.5 0 0112.5 5v2h-5V5A2.5 2.5 0 0110 2.5zm-2.2 6c-.865 0-1.423.001-1.848.036-.408.033-.559.09-.633.127a1.5 1.5 0 00-.656.656c-.037.074-.094.225-.127.633-.035.425-.036.983-.036 1.848v1.4c0 .865.001 1.423.036 1.848.033.408.09.559.127.633a1.5 1.5 0 00.656.656c.074.037.225.094.633.127.425.035.983.036 1.848.036h4.4c.865 0 1.423-.001 1.848-.036.408-.033.559-.09.633-.127a1.5 1.5 0 00.655-.656c.038-.074.095-.225.128-.633.035-.425.036-.983.036-1.848v-1.4c0-.865-.001-1.423-.036-1.848-.033-.408-.09-.559-.128-.633a1.5 1.5 0 00-.655-.656c-.074-.037-.225-.094-.633-.127-.425-.035-.983-.036-1.848-.036H7.8z" fill="currentColor"/></svg>
