<svg xmlns="http://www.w3.org/2000/svg" width="20" height="20" fill="none" viewBox="0 0 20 20"><rect width="20" height="20" fill="url(#a)" rx="10"/><path fill="#fff" fill-rule="evenodd" d="M6.5 8.014c-.294.018-.503.059-.681.15a1.5 1.5 0 0 0-.656.655C5 9.139 5 9.559 5 10.4v2.2c0 .84 0 1.26.163 1.581a1.5 1.5 0 0 0 .656.655c.32.164.74.164 1.581.164h5.2c.84 0 1.26 0 1.581-.164a1.5 1.5 0 0 0 .655-.655c.164-.32.164-.74.164-1.581v-2.2c0-.84 0-1.26-.164-1.581a1.5 1.5 0 0 0-.655-.656c-.178-.09-.387-.13-.681-.149V7a3.5 3.5 0 1 0-7 0v1.014ZM12 8H8V7a2 2 0 1 1 4 0v1Z" clip-rule="evenodd"/><defs><linearGradient id="a" x1="-10" x2="10" y1="10" y2="30" gradientUnits="userSpaceOnUse"><stop stop-color="#626466"/><stop offset="1" stop-color="#444647"/></linearGradient></defs></svg>
