<svg xmlns="http://www.w3.org/2000/svg" width="20" height="20" fill="currentColor" viewBox="0 0 20 20"><path fill-rule="evenodd" d="M6.958 3.932C7.774 3.3 8.838 3 9.892 3c1.78 0 3.499.809 4.078 2.406a.745.745 0 0 1-.473.956.778.778 0 0 1-.984-.458C12.225 5.11 11.27 4.5 9.893 4.5c-.773 0-1.477.22-1.971.604-.476.37-.792.912-.792 1.672 0 .792.316 1.225.813 1.553.568.374 1.356.6 2.312.865l.05.013c.878.244 1.91.53 2.71 1.066.884.592 1.485 1.483 1.485 2.822 0 1.34-.634 2.348-1.562 2.997-.9.63-2.051.908-3.137.908-1.783 0-3.32-.663-4.18-1.978a.737.737 0 0 1 .237-1.035.786.786 0 0 1 1.066.23c.51.777 1.481 1.283 2.877 1.283.84 0 1.654-.219 2.234-.625.555-.388.92-.957.92-1.78 0-.81-.32-1.254-.817-1.587-.567-.379-1.354-.607-2.308-.872l-.078-.022c-.87-.241-1.886-.523-2.677-1.044-.885-.584-1.49-1.464-1.49-2.794 0-1.226.538-2.196 1.373-2.844Z" clip-rule="evenodd"/></svg>
