<svg xmlns="http://www.w3.org/2000/svg" width="20" height="20" fill="currentColor" viewBox="0 0 20 20"><path fill-rule="evenodd" d="M8.35 2h-.033c-.952 0-1.713 0-2.327.05-.63.052-1.172.16-1.67.413a4.25 4.25 0 0 0-1.857 1.858c-.253.497-.361 1.04-.413 1.67C2 6.603 2 7.364 2 8.316v3.367c0 .952 0 1.713.05 2.327.052.63.16 1.172.413 1.67a4.25 4.25 0 0 0 1.858 1.857c.497.253 1.04.361 1.67.413.613.05 1.374.05 2.326.05h3.366c.952 0 1.713 0 2.327-.05.63-.052 1.172-.16 1.67-.413a4.251 4.251 0 0 0 1.857-1.857c.253-.498.361-1.04.413-1.67.05-.614.05-1.375.05-2.327V8.317c0-.952 0-1.713-.05-2.327-.052-.63-.16-1.172-.413-1.67a4.25 4.25 0 0 0-1.857-1.857c-.498-.253-1.04-.361-1.67-.413C13.396 2 12.635 2 11.683 2H8.35ZM5.002 3.8c.25-.128.573-.21 1.11-.255.546-.044 1.246-.045 2.238-.045h3.3c.992 0 1.692 0 2.238.045.537.044.86.127 1.11.255A2.75 2.75 0 0 1 16.2 5.002c.128.25.21.573.255 1.11.044.546.045 1.246.045 2.238v3.3c0 .992 0 1.692-.045 2.238-.044.537-.127.86-.255 1.11A2.751 2.751 0 0 1 15 16.2c-.252.128-.574.21-1.111.255-.546.044-1.245.045-2.238.045h-3.3c-.992 0-1.692 0-2.238-.045-.537-.044-.86-.127-1.11-.255A2.75 2.75 0 0 1 3.8 15c-.128-.252-.21-.574-.255-1.111-.044-.546-.045-1.245-.045-2.238v-3.3c0-.992 0-1.692.045-2.238.044-.537.127-.86.255-1.11A2.75 2.75 0 0 1 5.002 3.8Zm7.459 8.07.814.214c.368.097.725-.195.725-.592v-4.12a.757.757 0 0 0-.552-.74l-2.332-.613c-.369-.097-.726.194-.726.592v.742l-1.47-.386c-.368-.096-.725.195-.725.592v.743l-1.47-.386C6.357 7.82 6 8.111 6 8.508v4.12c0 .35.227.656.552.74l2.332.613c.369.097.726-.194.726-.592V9.274a.787.787 0 0 0-.285-.61.038.038 0 0 1-.008-.05.04.04 0 0 1 .046-.017c.307.097.601.428.63.845l.102 3.147a.248.248 0 0 0 .159.227l.825.217c.369.096.726-.195.726-.592V8.326a.788.788 0 0 0-.284-.61.038.038 0 0 1-.008-.05.04.04 0 0 1 .046-.018c.307.098.6.43.63.846l.102 3.146c.003.108.072.2.17.23Z" clip-rule="evenodd"/></svg>
