<svg xmlns="http://www.w3.org/2000/svg" width="20" height="20" fill="currentColor" viewBox="0 0 20 20"><path fill-rule="evenodd" d="m13.373 4.378 1.764-1.664a.072.072 0 0 1 .016-.012.021.021 0 0 1 .006-.002c.006 0 .017 0 .032.006a.063.063 0 0 1 .026.02.024.024 0 0 1 .003.006.049.049 0 0 1 .003.02v1.252c0 .414.336.75.75.75h1.234c.013 0 .019.002.021.002a.02.02 0 0 1 .006.003c.004.003.012.01.018.024a.056.056 0 0 1 .005.028v.003l-.002.002s-.003.007-.012.016l-.002.002L15.55 6.6l-.004.004-.01.007a.051.051 0 0 1-.02.004h-1.6a.75.75 0 0 0-.549.24l-1.656 1.784a.75.75 0 0 0-.143.798 1.644 1.644 0 1 1-1.063-.94.75.75 0 0 0 .75-.213l1.902-2.047a.75.75 0 0 0 .2-.51V4.412a.05.05 0 0 1 .015-.035Zm3.35-1.626c0-1.353-1.622-2.062-2.613-1.131l-.65.613a8.5 8.5 0 1 0 4.28 4.248l.583-.608v-.002c.95-.985.244-2.618-1.116-2.618h-.484v-.502Zm-.12 4.917c-.293.29-.687.446-1.087.446h-1.272l-1.135 1.222a3.144 3.144 0 1 1-2.67-2.378l1.418-1.527v-1.02c0-.387.147-.758.402-1.04a7 7 0 1 0 4.343 4.296Z" clip-rule="evenodd"/></svg>
