<svg xmlns="http://www.w3.org/2000/svg" width="20" height="20" fill="currentColor" viewBox="0 0 20 20"><path fill-rule="evenodd" d="M14.255 17.926c.527-.059.992-.17 1.425-.39a4.25 4.25 0 0 0 1.857-1.857c.253-.497.361-1.04.413-1.67.05-.613.05-1.374.05-2.326V8.317c0-.952 0-1.713-.05-2.327-.052-.63-.16-1.172-.413-1.67a4.25 4.25 0 0 0-1.857-1.857c-.433-.22-.898-.33-1.425-.39a5.75 5.75 0 0 1 1.263 1.823c.258.59.372 1.23.428 2.003C16 6.657 16 7.597 16 8.796v2.409c0 1.198 0 2.138-.054 2.896-.056.772-.17 1.413-.428 2.003a5.75 5.75 0 0 1-1.264 1.822ZM10.437 18h-2.12c-.952 0-1.713 0-2.327-.05-.63-.052-1.172-.16-1.67-.413a4.25 4.25 0 0 1-1.857-1.858c-.253-.497-.361-1.04-.413-1.67C2 13.397 2 12.636 2 11.684V8.317c0-.952 0-1.713.05-2.327.052-.63.16-1.172.413-1.67a4.25 4.25 0 0 1 1.858-1.857c.497-.253 1.04-.361 1.67-.413C6.603 2 7.364 2 8.316 2h2.127c.692.05 1.141.145 1.51.306a4.25 4.25 0 0 1 2.19 2.19c.16.369.256.818.306 1.51.05.698.05 1.585.05 2.819v2.35c0 1.234 0 2.12-.05 2.82-.05.69-.145 1.14-.306 1.508a4.25 4.25 0 0 1-2.19 2.19c-.369.162-.818.257-1.51.306l-.007.001ZM7.007 7.765c-.13-.047-.278.024-.31.186a10.475 10.475 0 0 0 .008 4.099c.033.162.18.231.31.185a10.24 10.24 0 0 0 3.398-2.04.258.258 0 0 0 0-.387 10.24 10.24 0 0 0-3.406-2.043Zm.506-1.412a1.731 1.731 0 0 0-2.287 1.308 11.975 11.975 0 0 0 .009 4.685 1.732 1.732 0 0 0 2.288 1.3 11.741 11.741 0 0 0 3.896-2.338c.775-.7.775-1.912 0-2.613a11.741 11.741 0 0 0-3.906-2.342Z" clip-rule="evenodd"/></svg>
