<svg xmlns="http://www.w3.org/2000/svg" width="20" height="20" fill="currentColor" viewBox="0 0 20 20"><path fill-rule="evenodd" d="M6.236 3.97a1.602 1.602 0 1 0-2.267 2.266l1.6 1.599a1.602 1.602 0 1 0 2.266-2.267l-1.6-1.599ZM2.909 2.908a3.102 3.102 0 0 1 4.387 0l1.6 1.599a3.102 3.102 0 1 1-4.388 4.387l-1.6-1.599a3.102 3.102 0 0 1 0-4.387Zm13.122 1.06a1.603 1.603 0 0 0-2.267 0l-1.598 1.6a1.602 1.602 0 1 0 2.266 2.266l1.599-1.6a1.602 1.602 0 0 0 0-2.266Zm-3.327-1.06a3.102 3.102 0 1 1 4.387 4.387l-1.599 1.6a3.102 3.102 0 1 1-4.387-4.388l1.599-1.6Zm-4.87 9.256a1.602 1.602 0 0 0-2.266 0l-1.599 1.6a1.602 1.602 0 1 0 2.267 2.266l1.599-1.6a1.602 1.602 0 0 0 0-2.266Zm-3.326-1.06a3.102 3.102 0 0 1 4.387 4.387l-1.599 1.6a3.103 3.103 0 0 1-4.387-4.388l1.599-1.6Zm6.597 0a3.102 3.102 0 0 1 4.387 0l1.6 1.599a3.102 3.102 0 1 1-4.388 4.387l-1.6-1.599a3.102 3.102 0 0 1 0-4.387Zm3.327 1.06a1.602 1.602 0 1 0-2.267 2.267l1.6 1.599a1.603 1.603 0 0 0 2.266-2.267l-1.6-1.599Z" clip-rule="evenodd"/></svg>
