<svg xmlns="http://www.w3.org/2000/svg" width="20" height="20" fill="currentColor" viewBox="0 0 20 20"><path fill-rule="evenodd" d="M3.114 3.114C2 4.228 2 6.021 2 9.607v.786c0 3.586 0 5.38 1.114 6.493C4.228 18 6.021 18 9.607 18h.786c3.586 0 5.38 0 6.493-1.114C18 15.772 18 13.979 18 10.393v-.786c0-3.586 0-5.38-1.114-6.493C15.772 2 13.979 2 10.393 2h-.786C6.02 2 4.227 2 3.114 3.114Zm7.28.386h-.787c-1.836 0-3.061.003-3.974.126-.87.117-1.227.317-1.458.549-.232.231-.432.589-.55 1.458a9.3 9.3 0 0 0-.04.367h.99a2.85 2.85 0 0 1 2.51 1.5H11c.932 0 1.398 0 1.765.152a2 2 0 0 1 1.083 1.083c.117.282.144.623.15 1.188.392.136.746.34 1.053.648.527.528.749 1.189.851 1.95.098.73.098 1.652.098 2.781v.309c.156-.24.288-.602.374-1.244.123-.913.126-2.138.126-3.974v-.786c0-1.836-.003-3.061-.126-3.974-.117-.87-.317-1.227-.549-1.458-.231-.232-.589-.432-1.458-.55-.913-.122-2.138-.125-3.974-.125ZM14.5 16.355v-.999c0-1.196-.002-2.018-.085-2.635-.08-.595-.223-.887-.425-1.09-.202-.202-.493-.345-1.088-.425-.616-.083-1.436-.085-2.631-.085H8.654a2.372 2.372 0 0 1-2.139-1.346l-.723-1.508A1.35 1.35 0 0 0 4.575 7.5H3.512c-.011.6-.012 1.293-.012 2.107v.786c0 1.836.003 3.061.126 3.974.117.87.317 1.227.549 1.458.231.232.589.432 1.458.55.913.122 2.138.125 3.974.125h.786c1.836 0 3.061-.003 3.974-.126l.133-.019Z" clip-rule="evenodd"/></svg>
