<svg width="20" height="20" fill="none" xmlns="http://www.w3.org/2000/svg"><path fill-rule="evenodd" clip-rule="evenodd" d="M18 7.547C18 3.067 16.933 2 12.453 2H7.547C3.067 2 2 3.067 2 7.547v4.906C2 16.933 3.067 18 7.547 18h4.906C16.933 18 18 16.933 18 12.453V7.547zM6.028 7H4.862c-.334 0-.4.157-.4.33 0 .309.395 1.842 1.841 3.869.964 1.384 2.323 2.134 3.559 2.134.741 0 .833-.166.833-.453v-1.047c0-.333.07-.4.305-.4.173 0 .47.087 1.162.754.235.236.412.433.556.593.34.378.498.553.81.553h1.167c.333 0 .5-.166.404-.495-.106-.328-.483-.804-.984-1.367a7.449 7.449 0 00-.464-.482c-.149-.146-.279-.274-.34-.359-.173-.222-.123-.321 0-.519l.021-.03c.176-.25 1.411-2.02 1.549-2.652.074-.247 0-.429-.353-.429h-1.167a.504.504 0 00-.507.33s-.593 1.446-1.434 2.385c-.272.272-.395.359-.544.359-.074 0-.181-.087-.181-.334V7.43c0-.297-.086-.429-.334-.429H8.528c-.185 0-.297.138-.297.268 0 .108.062.183.14.28.126.157.297.368.324.857v1.718c0 .377-.068.445-.216.445-.396 0-1.358-1.452-1.929-3.114C6.44 7.13 6.326 7 6.028 7z" fill="currentColor"/></svg>
