<svg fill="none" height="20" viewBox="0 0 20 20" width="20" xmlns="http://www.w3.org/2000/svg"><path clip-rule="evenodd" d="m18 7.54667c0-4.48-1.0667-5.54667-5.5467-5.54667h-4.90663c-4.48 0-5.54667 1.06667-5.54667 5.54667v4.90663c0 4.48 1.06667 5.5467 5.54667 5.5467h4.90663c4.48 0 5.5467-1.0667 5.5467-5.5467zm-11.97179-.54667h-1.16667c-.33333 0-.4.15692-.4.32995 0 .30901.39553 1.84165 1.84164 3.86865.96406 1.3843 2.32237 2.1347 3.55837 2.1347.74155 0 .83335-.1666.83335-.4537v-1.0463c0-.3333.0702-.3998.3051-.3998.173 0 .4696.0865 1.1618.7539.2355.2355.4124.4323.5566.5927.34.3782.4973.5532.8098.5532h1.1667c.3333 0 .5-.1666.4038-.4955-.1052-.3278-.4829-.8035-.984-1.3672-.1379-.163-.3107-.3323-.4637-.4821-.1487-.1457-.2788-.2731-.3397-.3584-.173-.2225-.1236-.3214 0-.5191l.0208-.0295c.1757-.24984 1.4112-2.02142 1.5489-2.65265.0742-.2472 0-.42885-.3528-.42885h-1.1667c-.2966 0-.4334.15692-.5075.32995 0 0-.5933 1.44613-1.4338 2.38548-.2719.27192-.3955.35847-.5438.35847-.0742 0-.1815-.08655-.1815-.33374v-2.31131c0-.29664-.0861-.42885-.3334-.42885h-1.83329c-.18538 0-.29686.13768-.29686.26816 0 .10736.06124.18319.13938.27993.12654.15665.29737.36814.32415.85719v1.71802c0 .3767-.06803.445-.21635.445-.39551 0-1.35758-1.4526-1.92817-3.11474-.11182-.32306-.22398-.45356-.52215-.45356z" fill="currentColor" fill-rule="evenodd"/></svg>
