<svg xmlns="http://www.w3.org/2000/svg" width="20" height="20" fill="none" viewBox="0 0 20 20"><path fill="currentColor" fill-rule="evenodd" d="M7.1943 1.502a.85.85 0 0 1 .9038.7924l.2496 3.8a.85.85 0 0 1-1.6963.1114l-.2496-3.8a.85.85 0 0 1 .7925-.9038Zm5.8926.1812a.85.85 0 0 1 .5794 1.0533l-1.35 4.6507a.85.85 0 0 1-1.6326-.474l1.35-4.6506a.85.85 0 0 1 1.0532-.5794Zm.5888 7.0789a.75.75 0 0 1 1.0575-.0813C16.2129 9.949 16.5 11.5616 16.5 12.7516c0 2.6769-2.3087 5.7499-6.5005 5.7499-3.1177 0-6.504-2.2191-6.5039-5.7499 0-.6774.218-1.5886.7766-2.3494.582-.7928 1.5237-1.4019 2.8702-1.4019.3869 0 1.8914.1297 2.7837 1.9142a.75.75 0 1 1-1.3416.6708c-.5363-1.0726-1.3527-1.085-1.442-1.085-.833 0-1.3397.3517-1.6612.7896-.345.4698-.4857 1.0592-.4857 1.4617 0 2.4251 2.4071 4.2499 5.004 4.2499 3.3611 0 5.0004-2.3993 5.0004-4.2499 0-.9528-.2227-2.0574-1.243-2.932a.75.75 0 0 1-.0813-1.0575Z" clip-rule="evenodd"/></svg>
