<svg xmlns="http://www.w3.org/2000/svg" width="20" height="20" fill="currentColor" viewBox="0 0 20 20"><path d="M9.41 5.405a.84.84 0 0 1 .603.182c.172.129.314.312.412.507l.205.411c.26.52.073 1.153-.427 1.448a.178.178 0 0 0-.06.064.065.065 0 0 0-.008.024c.292.437.614.818 1.002 1.206.384.385.83.721 1.269 1.015h.006a.187.187 0 0 0 .053-.018.314.314 0 0 0 .06-.037.134.134 0 0 0 .029-.03c.298-.507.9-.633 1.412-.376l.41.206c.399.199.668.626.618 1.057a.973.973 0 0 1-.074.293.857.857 0 0 1-.184.257c-.434.434-1.174.486-1.994.237-.822-.25-1.773-.804-2.588-1.62-.814-.814-1.355-1.7-1.605-2.524-.249-.82-.197-1.561.237-1.995.171-.172.396-.28.624-.307Z M8.317 2h3.366c.952 0 1.713 0 2.327.05.63.052 1.172.16 1.67.413a4.25 4.25 0 0 1 1.857 1.858c.253.497.361 1.04.413 1.67.05.613.05 1.374.05 2.326v3.366c0 .952 0 1.713-.05 2.327-.052.63-.16 1.172-.413 1.67a4.251 4.251 0 0 1-1.857 1.857c-.498.253-1.04.361-1.67.413-.614.05-1.375.05-2.327.05H8.317c-.952 0-1.713 0-2.327-.05-.63-.052-1.172-.16-1.67-.413a4.25 4.25 0 0 1-1.857-1.857c-.253-.498-.361-1.04-.413-1.67C2 13.396 2 12.635 2 11.683V8.317c0-.952 0-1.713.05-2.327.052-.63.16-1.172.413-1.67a4.25 4.25 0 0 1 1.858-1.857c.497-.253 1.04-.361 1.67-.413C6.603 2 7.364 2 8.316 2ZM5.84 3.573c-.292 3.453.932 5.597 1.617 6.539a.75.75 0 0 1 .132.573 12.745 12.745 0 0 1-.834 2.704 8.079 8.079 0 0 0 1.182-.316c.37-.134.664-.282 1.07-.486l.208-.105a.75.75 0 0 1 .702.017c1.115.624 2.464 1.052 3.721 1.246 1.197.184 2.208.14 2.831-.063.03-.515.031-1.16.031-2.032v-3.3c0-.992 0-1.692-.045-2.238-.044-.537-.127-.86-.255-1.11A2.75 2.75 0 0 0 15 3.8c-.252-.128-.574-.21-1.111-.255-.546-.044-1.245-.045-2.238-.045h-3.3c-.992 0-1.692 0-2.238.045a6.342 6.342 0 0 0-.272.028Zm10.178 11.733c-.793.1-1.702.06-2.608-.079-1.281-.197-2.658-.61-3.87-1.23-.348.176-.689.34-1.093.486-.543.197-1.184.356-2.147.511a1.167 1.167 0 0 1-1.163-1.703c.469-.885.77-1.914.915-2.571C5.28 9.57 4.23 7.448 4.3 4.312a2.75 2.75 0 0 0-.5.69c-.127.25-.21.573-.254 1.11-.044.546-.045 1.246-.045 2.238v3.3c0 .992 0 1.692.045 2.238.044.537.127.86.255 1.11A2.75 2.75 0 0 0 5.002 16.2c.25.128.573.21 1.11.255.546.044 1.246.045 2.238.045h3.3c.992 0 1.692 0 2.238-.045.537-.044.86-.127 1.11-.255a2.75 2.75 0 0 0 1.02-.894Z" clip-rule="evenodd"/></svg>
