<svg xmlns="http://www.w3.org/2000/svg" width="20" height="20" fill="none" viewBox="0 0 20 20"><path fill="currentColor" fill-rule="evenodd" d="M9.5 4.5c-2.7614 0-5 2.2386-5 5s2.2386 5 5 5 5-2.2386 5-5-2.2386-5-5-5ZM3 9.5C3 5.9101 5.9101 3 9.5 3S16 5.9101 16 9.5a6.4727 6.4727 0 0 1-1.404 4.0354l3.1843 3.1843a.75.75 0 0 1-1.0607 1.0606l-3.1843-3.1843C12.4268 15.475 11.0247 16 9.5 16 5.9101 16 3 13.0899 3 9.5Zm2.996-.0013a.75.75 0 0 1 .75-.75h5.5a.75.75 0 0 1 0 1.5h-5.5a.75.75 0 0 1-.75-.75Z" clip-rule="evenodd"/></svg>
