<svg fill="none" height="20" viewBox="0 0 20 20" width="20" xmlns="http://www.w3.org/2000/svg" xmlns:xlink="http://www.w3.org/1999/xlink"><linearGradient id="a" gradientUnits="userSpaceOnUse" x1="-10" x2="10" y1="10" y2="30"><stop offset="0" stop-color="#70b2ff"/><stop offset="1" stop-color="#5c9ce6"/></linearGradient><path d="m0 10c0-5.52285 4.47715-10 10-10 5.5228 0 10 4.47715 10 10 0 5.5228-4.4772 10-10 10-5.52285 0-10-4.4772-10-10z" fill="url(#a)"/><path d="m15 8.126v3.9511c0 .6686-.0696.9111-.2003 1.1555-.1308.2445-.3226.4363-.5671.5671-.2444.1307-.4869.2003-1.1555.2003h-6.15419c-.66864 0-.9111-.0696-1.15554-.2003-.24445-.1308-.43629-.3226-.56702-.5671-.13073-.2444-.20035-.4869-.20035-1.1555v-3.9511l5 1.875zm-1.9229-3.126c.6686 0 .9111.06962 1.1555.20035.2445.13073.4363.32257.5671.56702.1007.18847.1652.37577.1895.75816l-4.9892 1.87347-4.98915-1.87347c.02423-.38239.0887-.56969.1895-.75816.13073-.24445.32257-.43629.56702-.56702.24444-.13073.4869-.20035 1.15554-.20035z" fill="#fff"/></svg>
