<svg fill="none" height="20" viewBox="0 0 20 20" width="20" xmlns="http://www.w3.org/2000/svg"><g fill="currentColor"><path d="m8.42945 11.2176c-.27806-.1541-.44633-.2473-.66658-.0481-.46638.4223.37348 2.2528 2.23983 2.2528 1.8663 0 2.7062-1.8305 2.2398-2.2528-.2202-.1992-.3885-.106-.6665.0481-.3113.1725-.7601.4212-1.5733.4212-.81322 0-1.26201-.2487-1.57325-.4212z"/><path d="m8.86881 8.22516c.04335-.48349-.45705-.92116-1.11768-.97756s-1.23132.28982-1.27466.77332c-.04335.48349.45705.92116 1.11768.97756s1.23131-.28982 1.27466-.77332z"/><path d="m12.2483 7.2476c.6606-.0564 1.2313.28982 1.2746.77332.0434.48349-.457.92116-1.1177.97756-.6606.0564-1.2313-.28982-1.2746-.77332-.0434-.48349.457-.92116 1.1177-.97756z"/><path clip-rule="evenodd" d="m2.59909 4.7699c.21877-1.62435 1.68904-2.78065 3.3192-2.61039.31266.03265.62225.10232.93262.15121 2.08677.32871 4.21219.32869 6.29889-.00006.3101-.04886.6192-.1184.9315-.15106 1.6304-.1705 3.101.98603 3.3197 2.61069.6688 4.97016-1.0462 13.05241-7.401 13.05241-6.35465 0-8.07034-8.08252-7.40091-13.0528zm1.48657.20022c.11053-.8206.85328-1.40474 1.67681-1.31873.28637.02991.57068.09627.85504.14106 2.24143.35307 4.52429.35305 6.76579-.00007.2841-.04477.5678-.11099.854-.14092.8237-.08613 1.5666.49813 1.6771 1.31889.5401 4.01421-.5613 11.35235-5.9144 11.35235-5.35292 0-6.455-7.33832-5.91434-11.35258z" fill-rule="evenodd"/></g></svg>
