<?xml version="1.0" encoding="UTF-8"?>
<svg width="20px" height="20px" viewBox="0 0 20 20" version="1.1" xmlns="http://www.w3.org/2000/svg" xmlns:xlink="http://www.w3.org/1999/xlink">
    <!-- Generator: Sketch 56 (81588) - https://sketch.com -->
    <title>mention_outline_20</title>
    <desc>Created with Sketch.</desc>
    <defs>
        <rect id="path-1" x="0" y="0" width="20" height="20"></rect>
    </defs>
    <g id="Page-2" stroke="none" stroke-width="1" fill="none" fill-rule="evenodd">
        <g id="mention_outline_20">
            <mask id="mask-2" fill="white">
                <use xlink:href="#path-1"></use>
            </mask>
            <g id="Shape" opacity="0.4"></g>
            <path d="M11.7,7.3 L11.7,7 C11.7,6.58578644 12.0357864,6.25 12.45,6.25 C12.8642136,6.25 13.2,6.58578644 13.2,7 L13.2,7.3 L13.2,11 C13.2,11.653945 13.4323118,11.938327 13.65,12.15 C13.8676882,12.361673 14.172919,12.4514196 14.524029,12.4514196 C14.8962055,12.4514196 15.2327808,12.4009598 15.55,12.1 C15.8672192,11.7990402 16.0990227,11.4239774 16.25,10.9 C16.4009773,10.3760226 16.5,9.67539783 16.5,8.97444795 L16.5,8.63091483 C16.5,7.54131947 16.1731538,6.51057213 15.65,5.65 C15.1268462,4.78942787 14.3304413,4.18580685 13.4,3.7 C12.4695587,3.21419315 11.4272607,3 10.2475313,3 L10.1632653,3 C8.88522512,3 7.73310783,3.24479218 6.75,3.8 C5.76689217,4.35520782 5.04422041,5.09021577 4.5,6.1 C3.95577959,7.10978423 3.6,8.30819533 3.6,9.61987382 L3.6,10.0675079 C3.6,11.3722463 3.9275813,12.5679762 4.45424621,13.55 C4.98091113,14.5320238 5.73444766,15.2190825 6.7,15.75 C7.66555234,16.2809175 8.78340371,16.5634069 10.0684661,16.5634069 L10.1527321,16.5634069 C10.6302416,16.5634069 11.2407579,16.5141015 11.95,16.41 C12.3221765,16.3614193 12.5376448,16.3343849 12.65,16.3343849 C12.8536438,16.3343849 13.0318185,16.3951098 13.1652403,16.5165615 C13.2986621,16.6380132 13.365372,16.8126174 13.365372,17 C13.365372,17.1873826 13.3091952,17.3268132 13.19684,17.4586751 C13.0844848,17.5905369 12.9229767,17.6842269 12.7123107,17.7397476 C12.0311574,17.9132501 11.1604179,18 10.1000658,18 L10.0052666,18 C8.3901609,18 7.0043071,17.6954291 5.8,17.05 C4.5956929,16.4045709 3.65657559,15.4867567 3,14.3 C2.34342441,13.1132433 2,11.7123108 2,10.1299685 L2,9.55741325 C2,7.98201105 2.34232706,6.58360232 3.02699144,5.36214511 C3.71165583,4.1406879 4.67368263,3.19164376 5.91310072,2.51498423 C7.15251882,1.83832469 8.56922618,1.5 10.1632653,1.5 L10.2475313,1.5 C11.7362374,1.5 13.0686797,1.80362472 14.244898,2.41088328 C15.4211163,3.01814184 16.3410105,3.85788107 17.0046083,4.93012618 C17.6682061,6.00237129 18,7.21860519 18,8.57886435 L18,9.09936909 C18,9.8 17.8455139,10.8517314 17.5365372,11.5665615 C17.2275604,12.2813916 16.9047537,12.8509444 16.35,13.25 C15.7952463,13.6490556 15.1732865,13.9 14.45,13.9 C13.7969355,13.9 13.3428551,13.7372788 12.85,13.4 C12.3571449,13.0627212 12.0591175,12.5525367 11.995918,12.3 C11.8858517,12.542701 11.5817326,12.8744468 11.35,13.1 C11.1182674,13.3255532 10.8127514,13.5149836 10.479197,13.6433754 C10.1456426,13.7717672 9.74515434,13.8359621 9.38,13.8359621 C8.8041797,13.8359621 8.25323892,13.6971623 7.82488479,13.4195584 C7.39653066,13.1419544 7.06649227,12.7463748 6.83475971,12.2328076 C6.60302715,11.7192403 6.5,11.1009499 6.5,10.4 L6.5,9.37003155 C6.5,8.68990196 6.60478267,8.0965325 6.84002633,7.58990536 C7.07526999,7.08327822 7.41233048,6.69463858 7.85121791,6.42397476 C8.29010533,6.15331095 8.80447368,6 9.39433838,6 C9.91398109,6 10.4567569,6.14463596 10.85,6.39794953 C11.2432431,6.6512631 11.5323609,6.98281521 11.7,7.39211356 L11.7,7.3 Z M9.875,7.5 C8.97753728,7.5 8.25,8.22753728 8.25,9.125 L8.25,10.675 C8.25,11.5724627 8.97753728,12.3 9.875,12.3 C10.7724627,12.3 11.5,11.5724627 11.5,10.675 L11.5,9.125 C11.5,8.22753728 10.7724627,7.5 9.875,7.5 Z" id="↳-Icon-Color" fill="currentColor" fill-rule="nonzero" mask="url(#mask-2)"></path>
        </g>
    </g>
</svg>
