<svg fill="none" height="20" viewBox="0 0 20 20" width="20" xmlns="http://www.w3.org/2000/svg"><g fill="currentColor"><path d="m16.3195 10.4c.9281 0 1.6805.753 1.6805 1.682 0 .9381-.3755 1.4084-1.9683 2.6484l-.7247.5642c-.1806.1405-.4334.1405-.614 0l-.7247-.5642c-1.5928-1.24-1.9683-1.7103-1.9683-2.6484 0-.929.7524-1.682 1.6805-1.682.4972 0 .939.2343 1.3195.6876.3805-.4533.8223-.6876 1.3195-.6876z"/><path clip-rule="evenodd" d="m16.995 8.9719c-.1409-3.31932-3.2188-5.9719-6.995-5.9719-3.86599 0-7 2.78016-7 6.20966 0 1.67334.74613 3.19214 1.96029 4.30734-.11794.6964-.47495 1.6086-1.07103 2.7366l-.13492.2517c-.08729.1604-.0313.363.12506.4525.07209.0413.15681.0528.23689.0322 1.85613-.4772 3.18193-1.0787 3.97613-1.8041.60643.1521 1.2463.2334 1.90758.2334.7294 0 1.4327-.0989 2.0938-.2825-.3598-.3158-.6668-.6242-.9061-.9426-.5174-.6885-.6877-1.3702-.6877-2.1122 0-1.7561 1.4227-3.18198 3.1805-3.18198.4854 0 .9264.11217 1.3195.30448.3931-.19231.8341-.30448 1.3195-.30448.2318 0 .4578.0248.6755.07188z" fill-rule="evenodd"/></g></svg>
