<svg fill="none" height="20" viewBox="0 0 20 20" width="20" xmlns="http://www.w3.org/2000/svg"><g fill="currentColor"><path d="m13.7803 7.71967c.2929.29289.2929.76777 0 1.06066l-3.99997 3.99997c-.29289.2929-.76777.2929-1.06066 0l-2-2c-.29289-.2929-.29289-.7677 0-1.06063.29289-.29289.76777-.29289 1.06066 0l1.46967 1.46963 3.4697-3.46963c.2929-.29289.7677-.29289 1.0606 0z"/><path clip-rule="evenodd" d="m3.24205 18.5003c-.20879.0064-.41564-.0417-.60025-.1395-.58789-.3112-.81212-1.0402-.50085-1.628.6439-1.2162 1.01604-2.14 1.12122-2.7294-.81883-1.1846-1.26217-2.5635-1.26217-4.0034 0-4.17011 3.681-7.5 8.25-7.5s8.25 3.32989 8.25 7.5c0 4.1701-3.681 7.5-8.25 7.5-.91801 0-1.81315-.1339-2.65971-.3932-.99677.8816-2.45591 1.3359-4.34824 1.3935zm3.5864-2.7488c.20481-.2316.53074-.3137.82087-.207.81314.2993 1.69151.4555 2.60068.4555 3.7722 0 6.75-2.6937 6.75-6 0-3.30628-2.9778-6-6.75-6-3.77224 0-6.75 2.69372-6.75 6 0 1.2108.39926 2.3669 1.13941 3.349.10607.1408.15919.3144.15003.4904-.0393.7557-.40247 1.7849-1.08427 3.1344 1.48321-.1154 2.51409-.5335 3.12328-1.2223z" fill-rule="evenodd"/></g></svg>
