<svg width="20" height="20" fill="none" xmlns="http://www.w3.org/2000/svg"><path fill-rule="evenodd" clip-rule="evenodd" d="M10.25 2.5C5.679 2.5 2 5.832 2 10c0 1.44.443 2.819 1.262 4.003-.105.59-.477 1.514-1.121 2.73A1.204 1.204 0 003.242 18.5c1.893-.057 3.352-.512 4.348-1.393.847.26 1.742.393 2.66.393 4.571 0 8.25-3.332 8.25-7.5s-3.679-7.5-8.25-7.5zm0 1.5C6.372 4 3.5 6.79 3.5 10a5.51 5.51 0 00.996 3.15l.176.255a.75.75 0 01.121.558l-.054.304c-.13.729-.505 1.66-1.034 2.707 1.41-.11 2.322-.488 2.892-.99l.314-.28a.75.75 0 01.717-.154l.401.123A7.579 7.579 0 0010.25 16c3.878 0 6.75-2.79 6.75-6s-2.872-6-6.75-6z" fill="currentColor"/><path d="M11 7a.75.75 0 00-1.5 0v2.25H7.25a.75.75 0 000 1.5H9.5V13a.75.75 0 001.5 0v-2.25h2.25a.75.75 0 000-1.5H11V7z" fill="currentColor"/></svg>
