<svg fill="none" height="20" viewBox="0 0 20 20" width="20" xmlns="http://www.w3.org/2000/svg"><path d="m15 3c.8284 0 1.5.67157 1.5 1.5s-.6716 1.5-1.5 1.5-1.5-.67157-1.5-1.5.6716-1.5 1.5-1.5zm-4.75 1c-4.7944 0-8.75131 5.18154-5.61059 9.349.10606.1408.15918.3144.15003.4904-.0393.7557-.40248 1.7849-1.08427 3.1344 1.4832-.1154 2.51409-.5335 3.12327-1.2223.20481-.2316.53074-.3137.82087-.207 3.95319 1.4551 9.35069-.8698 9.35069-5.5445 0-.79851-.1753-1.56023-.4947-2.25787-.1725-.37661-.007-.82171.3697-.99415.3766-.17244.8217-.00693.9941.36968.406.88672.6309 1.86087.6309 2.88234 0 5.5012-6.0752 8.5873-10.90972 7.1068-.99677.8816-2.4559 1.3359-4.34823 1.3935-.2088.0064-.41565-.0417-.60026-.1395-.58789-.3112-.81212-1.0402-.50084-1.628.64389-1.2162 1.01604-2.14 1.12121-2.7294-3.55912-5.14927 1.10587-11.5034 6.98784-11.5034.5505 0 1.0891.04906 1.6107.14287.4077.07332.6787.46325.6054.87092-.0734.40767-.4633.67871-.8709.60539-.4341-.07808-.8839-.11918-1.3452-.11918z" fill="#000"/></svg>
