<svg fill="none" height="20" viewBox="0 0 20 20" width="20" xmlns="http://www.w3.org/2000/svg" xmlns:xlink="http://www.w3.org/1999/xlink"><linearGradient id="a" gradientUnits="userSpaceOnUse" x1="-10" x2="10" y1="10" y2="30"><stop offset="0" stop-color="#ff5263"/><stop offset="1" stop-color="#ff3347"/></linearGradient><path d="m0 10c0-5.52285 4.47715-10 10-10 5.5228 0 10 4.47715 10 10 0 5.5228-4.4772 10-10 10-5.52285 0-10-4.4772-10-10z" fill="url(#a)"/><path d="m12.52 11.497c.1093 0 .2158.0344.3045.0984l2.8785 2.079c.3179.2296.3895.6734.1599.9913-.0444.0615-.0984.1155-.1599.1599l-2.8785 2.079c-.2329.1681-.5579.1157-.7261-.1171-.064-.0887-.0984-.1952-.0984-.3045v-4.466c0-.2872.2328-.52.52-.52zm.2751-6.497c1.1144 0 1.5185.11603 1.926.33392.4074.21788.7271.53762.945.94502.2179.40741.3339.81152.3339 1.92592l-.0002 2.02994c.0001.0051.0002.0101.0002.0152 0 .4142-.3358.75-.75.75s-.75-.3358-.75-.75v-.001.001l-.001-.75h-9l.001 2.7181c0 .4457.04641.6074.13357.7703.08715.163.21504.2909.37801.378.14259.0763.28417.1214.61596.1314l.1544.0022h5.21806v1.5h-4.79514c-1.1144 0-1.51851-.116-1.92592-.3339-.4074-.2179-.72714-.5376-.94502-.945-.21789-.4075-.33392-.8116-.33392-1.926v-3.59024c0-1.1144.11603-1.51851.33392-1.92592.21788-.4074.53762-.72714.94502-.94502.40741-.21789.81152-.33392 1.92592-.33392zm.423 1.5h-6.43616c-.44576 0-.6074.04641-.77036.13357-.16297.08715-.29086.21504-.37801.37801-.07626.14259-.12133.28417-.13141.61596l-.00216.1544-.001.21806h9l.001-.21806c0-.44576-.0464-.6074-.1336-.77036-.0871-.16297-.215-.29086-.378-.37801-.1426-.07626-.2842-.12133-.6159-.13141z" fill="#fff"/></svg>
