<svg fill="none" height="20" viewBox="0 0 20 20" width="20" xmlns="http://www.w3.org/2000/svg"><path clip-rule="evenodd" d="m10 17c-3.86599 0-7-3.134-7-7 0-3.86599 3.13401-7 7-7 3.866 0 7 3.13401 7 7 0 3.866-3.134 7-7 7zm-8.5-7c0-4.69442 3.80558-8.5 8.5-8.5 4.6944 0 8.5 3.80558 8.5 8.5 0 4.6944-3.8056 8.5-8.5 8.5-4.69442 0-8.5-3.8056-8.5-8.5zm7.25-4c-.41421 0-.75.33579-.75.75v3h-.25c-.41421 0-.75.3358-.75.75s.33579.75.75.75h.25v.75h-.25c-.41421 0-.75.3358-.75.75s.33579.75.75.75h.25v.5c0 .4142.33579.75.75.75s.75-.3358.75-.75v-.5h1.5c.4142 0 .75-.3358.75-.75s-.3358-.75-.75-.75h-1.5v-.75h1.625c1.4497 0 2.625-1.1753 2.625-2.625 0-1.44975-1.1753-2.625-2.625-2.625zm2.375 3.75h-1.625v-2.25h1.625c.6213 0 1.125.50368 1.125 1.125s-.5037 1.125-1.125 1.125z" fill="currentColor" fill-rule="evenodd"/></svg>
