<svg height="20" viewBox="0 0 20 20" width="20" xmlns="http://www.w3.org/2000/svg"><g fill="none" fill-rule="evenodd"><path d="m0 0h20v20h-20z" fill="none"/><path d="m10.5349881 1.50786751c.6842406.1597079 1.2852749.50671519 1.7657063 1.019431.526586.56197195.8175021 1.16029811 1.1623651 2.4473445l.3032588 1.13177725c.1072064.40009957-.1302305.81135229-.53033.91855865-.4000996.10720636-.8113523-.13023051-.9185587-.53033009l-.3032588-1.13177724c-.2862542-1.06831532-.4729873-1.45236855-.8080375-1.80993372-.2777393-.29640301-.6165322-.49200523-1.0120944-.58433298-.44310093-.10342373-.84203834-.0846756-1.75212172.14772154l-.2193456.05746433-2.22968947.59744349c-.88330845.23668179-1.31149416.41468435-1.60111507.63042494l-.06970166.05477715-.13911699.12283539c-.29640301.27773927-.49200523.61653225-.58433299 1.01209443-.09546806.40901624-.08683701.78040202.09784238 1.55092331l.1073435.420544 1.89153872 7.05931864.11730981.4178735c.22532359.7596307.40354178 1.0855758.69072767 1.3920602.27773926.296403.61653225.4920052 1.01209442.584333.47718561.1113794.90315199.0810683 1.97100485-.2050618l.56724385-.1523808c.400031-.1074617.8114352.1297125.918897.5297436.1074618.400031-.1297125.8114353-.5297435.918897l-.56770632.1525048c-1.28704639.3448631-1.9506701.3920854-2.70064508.2170345-.68424063-.1597079-1.28527488-.5067152-1.76570629-1.019431-.49148027-.5245071-.77766588-1.0806828-1.09402603-2.1989248l-.06833912-.2484197-1.89153872-7.05931857c-.34486304-1.28704639-.39208539-1.9506701-.2170345-2.70064509.14196258-.60821388.43191479-1.15068446.86559318-1.61107825l.16935823-.16876842.17278793-.15254402c.46566401-.38670106 1.01873706-.64589242 2.00362006-.92531745l.2554161-.0703633 2.22968947-.59744349c1.28704639-.34486304 1.95067011-.39208538 2.70064509-.2170345zm5.5965908 6.74213249c1.7334514 0 3.1184211 1.47721013 3.1184211 3.2761603 0 1.7583443-.6625183 2.642644-3.3170721 4.844805l-1.150033.9540427c-.4539888.3766193-1.111801.3766193-1.5657898 0l-1.4088975-1.1699471c-2.43912104-2.046181-3.0582076-2.9291677-3.0582076-4.6289006 0-1.79895017 1.3849697-3.2761603 3.1184211-3.2761603.7283554 0 1.3986379.21335407 1.9966146.62779468l.1349643.09920532.1349643-.09920532c.538179-.37299654 1.1349257-.583113 1.7798644-.62140633zm0 1.5c-.5916383 0-1.1068164.23781887-1.5845888.7471188l-.1823301.1943617c-.0072823.0077629-.0148107.0152913-.0225737.0225737-.2013962.188929-.5178173.1788224-.7067463-.0225737l-.1823301-.1943617c-.4777724-.50929993-.9929505-.7471188-1.5845888-.7471188-.8826344 0-1.6184211.7847909-1.6184211 1.7761603 0 1.16402.4442393 1.7569706 2.7747881 3.690344l.9752119.8084957.9752119-.8084957c2.2528639-1.8689276 2.7430763-2.4853046 2.7732539-3.5757748l.0015342-.1145692c0-.9913694-.7357867-1.7761603-1.6184211-1.7761603z" fill="currentColor" fill-rule="nonzero"/></g></svg>
