<svg xmlns="http://www.w3.org/2000/svg" width="20" height="20" fill="currentColor" viewBox="0 0 20 20"><path d="M7.5 12.53c0 .632.324.97.92.97h1.637C11.974 13.5 13 12.28 13 9.997 13 7.721 11.974 6.5 10.057 6.5H8.42c-.597 0-.921.338-.921.97v5.06Zm1.579-.379V7.844h.735c1.082 0 1.574.671 1.574 2.153 0 1.488-.492 2.154-1.574 2.154h-.735Zm5.173 1.349c.435 0 .668-.227.83-.813l.263-.823h2.27l.258.823c.163.57.415.813.85.813.47 0 .777-.283.777-.722 0-.177-.044-.379-.134-.662l-1.488-4.47c-.273-.823-.648-1.146-1.36-1.146-.713 0-1.099.328-1.366 1.146l-1.494 4.47c-.114.338-.158.53-.158.697 0 .404.307.687.752.687Zm1.43-2.843.766-2.612h.08l.756 2.612h-1.603ZM2.496 12.63V9.326h.064l2.268 3.513c.332.505.552.662.914.662.494 0 .758-.323.758-.93v-5.2c0-.547-.284-.87-.758-.87-.47 0-.743.323-.743.87v3.264h-.063l-2.25-3.467c-.322-.485-.527-.667-.884-.667-.533 0-.802.334-.802.98v5.15c0 .541.279.87.753.87s.743-.323.743-.87Z"/></svg>
