<?xml version="1.0" encoding="UTF-8"?>
<svg width="20px" height="20px" viewBox="0 0 20 20" version="1.1" xmlns="http://www.w3.org/2000/svg" xmlns:xlink="http://www.w3.org/1999/xlink">
    <!-- Generator: Sketch 63.1 (92452) - https://sketch.com -->
    <title>newsfeed_outline_20</title>
    <desc>Created with Sketch.</desc>
    <g id="Icons" stroke="none" stroke-width="1" fill="none" fill-rule="evenodd">
        <g id="Icons-20/newsfeed_outline_20">
            <g id="newsfeed_outline_20">
                <rect opacity="0.0399999991" x="0" y="0" width="20" height="20"></rect>
                <path d="M13.0836866,2 C14.5177371,2 15.2156592,2.13477497 15.9410734,2.52273075 C16.6014044,2.87587962 17.1241204,3.3985956 17.4772693,4.05892659 C17.865225,4.78434081 18,5.4822629 18,6.91631345 L18,13.0836866 C18,14.5177371 17.865225,15.2156592 17.4772693,15.9410734 C17.1241204,16.6014044 16.6014044,17.1241204 15.9410734,17.4772693 C15.2156592,17.865225 14.5177371,18 13.0836866,18 L6.91631345,18 C5.4822629,18 4.78434081,17.865225 4.05892659,17.4772693 C3.3985956,17.1241204 2.87587962,16.6014044 2.52273075,15.9410734 C2.13477497,15.2156592 2,14.5177371 2,13.0836866 L2,6.91631345 C2,5.4822629 2.13477497,4.78434081 2.52273075,4.05892659 C2.87587962,3.3985956 3.3985956,2.87587962 4.05892659,2.52273075 C4.78434081,2.13477497 5.4822629,2 6.91631345,2 L13.0836866,2 Z M16.5,8 L3.5,8 L3.5,13.0836866 C3.5,14.29129 3.58959978,14.7552758 3.84545054,15.2336751 C4.05879972,15.6326034 4.3673966,15.9412003 4.76632488,16.1545495 C5.2447242,16.4104002 5.70870997,16.5 6.91631345,16.5 L13.0836866,16.5 C14.29129,16.5 14.7552758,16.4104002 15.2336751,16.1545495 C15.6326034,15.9412003 15.9412003,15.6326034 16.1545495,15.2336751 C16.4104002,14.7552758 16.5,14.29129 16.5,13.0836866 L16.5,8 Z M13.0836866,3.5 L6.91631345,3.5 C5.70870997,3.5 5.2447242,3.58959978 4.76632488,3.84545054 C4.3673966,4.05879972 4.05879972,4.3673966 3.84545054,4.76632488 C3.62139094,5.1852799 3.52483361,5.59318079 3.50429724,6.49914462 L16.4957028,6.49914462 C16.4751664,5.59318079 16.3786091,5.1852799 16.1545495,4.76632488 C15.9412003,4.3673966 15.6326034,4.05879972 15.2336751,3.84545054 C14.7552758,3.58959978 14.29129,3.5 13.0836866,3.5 Z" id="↳-Icon-Color" fill="currentColor" fill-rule="nonzero"></path>
            </g>
        </g>
    </g>
</svg>
