<svg fill="none" height="20" viewBox="0 0 20 20" width="20" xmlns="http://www.w3.org/2000/svg"><path clip-rule="evenodd" d="m11.8425 2h-3.68502c-.92451-.00001-1.66408-.00001-2.26167.04881-.61333.05012-1.14287.15537-1.62987.40351-.78087.39788-1.41574 1.03275-1.81362 1.81362-.24814.487-.35339 1.01654-.40351 1.62987-.04882.59759-.04882 1.33715-.04881 2.26167v3.68502c-.00001.9245-.00001 1.6641.04881 2.2617.05012.6133.15537 1.1429.40351 1.6299.39788.7808 1.03275 1.4157 1.81362 1.8136.487.2481 1.01654.3534 1.62987.4035.59759.0488 1.33714.0488 2.26165.0488h3.68504c.9245 0 1.6641 0 2.2617-.0488.6133-.0501 1.1429-.1554 1.6299-.4035.7808-.3979 1.4157-1.0328 1.8136-1.8136.2481-.487.3534-1.0166.4035-1.6299.0488-.5976.0488-1.3372.0488-2.2617v-3.68504c0-.92451 0-1.66406-.0488-2.26165-.0501-.61333-.1554-1.14287-.4035-1.62987-.3979-.78087-1.0328-1.41574-1.8136-1.81362-.487-.24814-1.0166-.35339-1.6299-.40351-.5976-.04882-1.3372-.04882-2.2617-.04881zm-6.89557 1.78883c.24029-.12244.55045-.20247 1.07103-.245.52933-.04325 1.20758-.04383 2.17204-.04383h3.62c.9645 0 1.6427.00058 2.172.04383.5206.04253.8308.12256 1.0711.245.4986.25407.904.65947 1.1581 1.1581.1224.24029.2024.55045.245 1.07103.0121.14803.0208.30771.0272.48204h-12.96676c.00634-.17433.0151-.33401.02719-.48204.04253-.52058.12256-.83074.245-1.07103.25407-.49863.65947-.90403 1.1581-1.1581zm-1.44691 4.21117c-.00002.06208-.00002.1254-.00002.19v3.62c0 .9645.00058 1.6427.04383 2.172.04253.5206.12256.8308.245 1.0711.25407.4986.65947.904 1.1581 1.1581.24029.1224.55045.2024 1.07103.245.52933.0432 1.20758.0438 2.17204.0438h3.62c.9645 0 1.6427-.0006 2.172-.0438.5206-.0426.8308-.1226 1.0711-.245.4986-.2541.904-.6595 1.1581-1.1581.1224-.2403.2024-.5505.245-1.0711.0432-.5293.0438-1.2075.0438-2.172v-3.62c0-.0646 0-.12792 0-.19z" fill="currentColor" fill-rule="evenodd"/></svg>
