<svg xmlns="http://www.w3.org/2000/svg" width="20" height="20" fill="currentColor" viewBox="0 0 20 20"><path d="M13.784 8.53a.75.75 0 0 0-1.06-1.06l-4.19 4.19-1.456-1.443a.75.75 0 0 0-1.056 1.066l1.986 1.968a.75.75 0 0 0 1.058-.003l4.718-4.718Z M10.39 1.036a2.148 2.148 0 0 0-.78 0c-.295.054-.567.188-.865.336l-4.68 2.303c-.292.143-.557.273-.776.467-.192.17-.352.374-.472.6-.137.259-.201.547-.271.863l-1.173 5.25c-.07.312-.134.596-.12.884.01.254.067.503.165.736.112.267.291.496.488.748l3.265 4.184c.203.26.387.497.627.673.21.155.446.27.697.34.287.08.587.08.917.08h5.176c.33 0 .63 0 .917-.08.251-.07.487-.185.697-.34.24-.176.424-.413.627-.673l3.265-4.184c.197-.252.376-.481.488-.748a2.16 2.16 0 0 0 .166-.736c.013-.288-.051-.572-.121-.884l-1.173-5.25c-.07-.316-.134-.604-.271-.863-.12-.226-.28-.43-.472-.6-.22-.194-.484-.324-.775-.467l-4.681-2.303c-.299-.148-.57-.282-.864-.336ZM9.883 2.51a.648.648 0 0 1 .236 0c.064.012.138.04.539.238L15.21 4.99c.39.192.457.232.504.274a.649.649 0 0 1 .143.181c.03.057.053.13.148.555l1.142 5.115c.093.419.104.494.101.557a.65.65 0 0 1-.05.222c-.024.058-.066.122-.33.46l-3.18 4.074c-.272.35-.325.407-.377.445a.649.649 0 0 1-.21.103c-.063.018-.141.024-.585.024H7.482c-.443 0-.521-.006-.583-.024a.647.647 0 0 1-.21-.103c-.053-.038-.106-.096-.379-.445l-3.179-4.074c-.264-.338-.306-.402-.33-.46a.649.649 0 0 1-.05-.222c-.003-.063.008-.138.101-.557L3.995 6c.094-.425.117-.498.147-.555a.648.648 0 0 1 .143-.18c.047-.043.114-.083.504-.275l4.554-2.24c.401-.197.475-.226.54-.238Z" clip-rule="evenodd"/></svg>
