<svg xmlns="http://www.w3.org/2000/svg" width="20" height="20" fill="currentColor" viewBox="0 0 20 20"><path d="M13.53 8.78a.75.75 0 0 0-1.06-1.06L9 11.19 7.78 9.97a.75.75 0 0 0-1.06 1.06l1.75 1.75a.75.75 0 0 0 1.06 0l4-4Z M8.479 1.55a1.953 1.953 0 0 0-1.82.522L2.072 6.66a1.953 1.953 0 0 0-.522 1.82l1.595 6.912a1.953 1.953 0 0 0 1.464 1.464l6.912 1.595a1.953 1.953 0 0 0 1.82-.522l4.587-4.587a1.953 1.953 0 0 0 .522-1.82L16.855 4.61a1.953 1.953 0 0 0-1.464-1.464L8.479 1.55Zm-.76 1.583c.11-.11.27-.156.423-.121l6.912 1.595c.168.039.3.17.34.34l1.594 6.911a.453.453 0 0 1-.12.423l-4.587 4.586a.453.453 0 0 1-.423.121l-6.912-1.595a.453.453 0 0 1-.34-.34l-1.593-6.91a.453.453 0 0 1 .12-.423L7.72 3.133Z" clip-rule="evenodd"/></svg>
