<svg xmlns="http://www.w3.org/2000/svg" width="20" height="20" fill="currentColor" viewBox="0 0 20 20"><path d="M13.53 9.28a.75.75 0 0 0-1.06-1.06L9 11.69l-1.47-1.47a.75.75 0 1 0-1.06 1.06l2 2a.75.75 0 0 0 1.06 0l4-4Z"/><path fill-rule="evenodd" d="M6.25 1a.75.75 0 0 1 .75.75v.27C7.513 2 8.113 2 8.817 2h.433v-.25a.75.75 0 0 1 1.5 0V2h.433c.704 0 1.304 0 1.817.02v-.27a.75.75 0 0 1 1.5 0v.457c.237.063.463.146.68.256a4.25 4.25 0 0 1 1.857 1.858c.253.497.361 1.04.413 1.67.05.613.05 1.374.05 2.326v3.866c0 .952 0 1.713-.05 2.327-.052.63-.16 1.172-.413 1.67a4.251 4.251 0 0 1-1.857 1.857c-.498.253-1.04.361-1.67.413-.614.05-1.375.05-2.327.05H8.817c-.952 0-1.713 0-2.327-.05-.63-.052-1.172-.16-1.67-.413a4.25 4.25 0 0 1-1.857-1.857c-.253-.498-.361-1.04-.413-1.67-.05-.614-.05-1.375-.05-2.327V8.317c0-.952 0-1.713.05-2.327.052-.63.16-1.172.413-1.67a4.25 4.25 0 0 1 1.858-1.857c.216-.11.442-.193.679-.256V1.75A.75.75 0 0 1 6.25 1Zm4.9 2.5c.772 0 1.367 0 1.85.022v.228a.75.75 0 0 0 1.498.05A2.75 2.75 0 0 1 15.7 5.002c.128.25.21.573.255 1.11.044.546.045 1.246.045 2.238v3.8c0 .992 0 1.692-.045 2.238-.044.537-.127.86-.255 1.11a2.751 2.751 0 0 1-1.2 1.202c-.252.128-.574.21-1.111.255-.546.044-1.245.045-2.238.045h-2.3c-.992 0-1.692 0-2.238-.045-.537-.044-.86-.127-1.11-.255A2.75 2.75 0 0 1 4.3 15.5c-.128-.252-.21-.574-.255-1.111C4.001 13.842 4 13.143 4 12.15v-3.8c0-.992 0-1.692.045-2.238.044-.537.127-.86.255-1.11A2.75 2.75 0 0 1 5.502 3.8.75.75 0 0 0 7 3.75v-.228A45.879 45.879 0 0 1 8.85 3.5h.4v.25a.75.75 0 0 0 1.5 0V3.5h.4Z" clip-rule="evenodd"/></svg>
