<svg fill="none" height="20" viewBox="0 0 20 20" width="20" xmlns="http://www.w3.org/2000/svg"><g fill="currentColor"><path d="m10.8 6.04999c0-.69036.5596-1.25 1.25-1.25.6903 0 1.25.55964 1.25 1.25 0 .69035-.5597 1.25-1.25 1.25-.6904 0-1.25-.55965-1.25-1.25z"/><path d="m14.45 8.20001c-.6903 0-1.25.55965-1.25 1.25 0 .69039.5597 1.24999 1.25 1.24999.6904 0 1.25-.5596 1.25-1.24999 0-.69035-.5596-1.25-1.25-1.25z"/><path d="m4.29999 9.45001c0-.69035.55964-1.25 1.25-1.25.69035 0 1.25.55965 1.25 1.25 0 .69039-.55965 1.24999-1.25 1.24999-.69036 0-1.25-.5596-1.25-1.24999z"/><path d="m7.84998 4.79999c-.69036 0-1.25.55964-1.25 1.25 0 .69035.55964 1.25 1.25 1.25.69035 0 1.25-.55965 1.25-1.25 0-.69036-.55965-1.25-1.25-1.25z"/><path clip-rule="evenodd" d="m14.1773 14.0372c2.1412.2296 4.3227-.743 4.3227-4.0372 0-2.34721-.9514-4.47221-2.4896-6.01041s-3.6632-2.48959-6.0104-2.48959c-2.34721 0-4.47221.95139-6.01041 2.48959s-2.48959 3.6632-2.48959 6.01041c0 2.3472.95139 4.4722 2.48959 6.0104s3.6632 2.4896 6.01041 2.4896c1.1294 0 2.2549-1.0066 1.977-2.4253-.0471-.2406-.1095-.4715-.1678-.6873-.254-.9402-.4298-1.5912 1.0761-1.4874.0358.0025.4546.0474 1.292.1372zm.1598-1.4915-.2457-.0263c-.6533-.0701-1.0372-.1113-1.103-.1159-.5258-.0362-1.1721-.0247-1.7401.2634-.3204.1625-.6111.4106-.8168.7533-.1985.3307-.2676.6656-.2859.9338-.0325.4759.0889.9439.1547 1.1967.0259.0996.0498.1881.072.2703.0532.1969.0964.3569.1327.5421.0253.1291.0139.2175-.003.2765-.0176.0617-.0498.12-.0985.1738-.1086.1201-.2705.1866-.4035.1866-1.93341 0-3.68135-.7819-4.94975-2.0503-1.26839-1.2683-2.05025-3.0163-2.05025-4.9497 0-1.93341.78186-3.68135 2.05025-4.94975 1.2684-1.26839 3.01634-2.05025 4.94975-2.05025 1.9334 0 3.6814.78186 4.9497 2.05025 1.2684 1.2684 2.0503 3.01634 2.0503 4.94975 0 1.2974-.4122 1.8732-.7737 2.1517-.4125.3177-1.065.4824-1.8892.394z" fill-rule="evenodd"/></g></svg>
