<svg xmlns="http://www.w3.org/2000/svg" width="20" height="20" fill="none" viewBox="0 0 20 20"><path fill="currentColor" fill-rule="evenodd" d="M7.7079 4.8763c-.0904-.4841-.306-.8706-.5461-1.109-.2433-.2415-.4524-.2834-.581-.262-.1235.0206-.2945.1202-.4302.414-.1352.2927-.1989.7199-.1084 1.2044.0904.4841.306.8706.5461 1.109.2433.2415.4524.2834.5809.262.1236-.0205.2946-.1202.4303-.414.1352-.2926.1989-.7199.1084-1.2044ZM6.3346 2.0256c.7386-.123 1.408.2047 1.884.6773.4792.4758.8237 1.1481.9638 1.898.14.7496.0609 1.4982-.2212 2.1088-.2815.6096-.8021 1.1409-1.5457 1.2647-.7386.123-1.408-.2047-1.884-.6773-.4792-.4757-.8237-1.148-.9638-1.898-.14-.7496-.0609-1.4982.2212-2.1088.2815-.6096.8021-1.1409 1.5457-1.2647Zm6.5038 1.7418c-.2401.2383-.4557.6248-.5461 1.109-.0905.4844-.0268.9117.1084 1.2044.1356.2937.3066.3934.4302.414.1285.0213.3376-.0206.5809-.2621.2401-.2384.4557-.6249.5461-1.109.0905-.4845.0268-.9117-.1084-1.2045-.1357-.2937-.3067-.3933-.4303-.414-.1284-.0213-.3375.0206-.5808.2622Zm-1.0569-1.0645c.476-.4726 1.1454-.8002 1.8841-.6773.7435.1238 1.2641.655 1.5457 1.2647.282.6106.3611 1.3592.2211 2.1088-.14.75-.4846 1.4223-.9638 1.898-.476.4726-1.1453.8002-1.884.6773-.7435-.1238-1.2642-.655-1.5457-1.2647-.282-.6106-.3611-1.3592-.2212-2.1087.1401-.75.4846-1.4223.9638-1.8981ZM10.0001 10.5c-.4705 0-.7853.1957-1.1016.6137-.2838.375-.5103.8478-.7882 1.428a58.9688 58.9688 0 0 1-.2297.4754c-.286.5837-.5817 1.0741-.8173 1.4649-.077.1278-.1477.245-.2095.3513-.2742.4717-.3538.6989-.3537.876 0 .269.06.407.1067.478.0469.0711.118.1316.2351.1828.2738.1195.6443.1299 1.0332.1299.2463 0 .4084-.0305.6629-.0784l.1035-.0194c.3286-.0609.7267-.1228 1.3586-.1228s1.0299.0619 1.3585.1228l.1036.0194c.2544.0479.4165.0784.6629.0784.3888 0 .7594-.0104 1.0331-.1299.1172-.0512.1883-.1117.2351-.1828.0468-.071.1067-.209.1068-.478 0-.1771-.0796-.4043-.3538-.876a26.1389 26.1389 0 0 0-.2095-.3513c-.2356-.3908-.5312-.8812-.8173-1.4649a58.8494 58.8494 0 0 1-.2296-.4754c-.278-.5802-.5045-1.053-.7883-1.428-.3162-.418-.6311-.6137-1.1015-.6137Zm0-1.5c1.0666 0 1.7839.5296 2.2977 1.2086.3848.5085.6957 1.1604.979 1.7543.0644.1351.1274.2672.1896.3939.2547.5197.5005.9275.7298 1.3079v.0001l.0001.0001.0001.0002c.0846.1405.167.2772.2468.4144.2723.4686.557 1.0094.5569 1.6301-.0001.5013-.1156.9409-.3544 1.3032-.2387.3622-.5634.5905-.8871.7319-.5869.2563-1.2519.2556-1.5974.2553h-.0361c-.3938 0-.6883-.0561-.9434-.1047a35.3465 35.3465 0 0 0-.0965-.0182c-.2663-.0494-.5695-.0977-1.0851-.0977s-.8188.0483-1.0852.0977l-.0965.0182c-.255.0486-.5496.1047-.9433.1047h-.0362c-.3455.0003-1.0104.001-1.5973-.2553-.3238-.1414-.6485-.3697-.8872-.7319-.2388-.3623-.3542-.8019-.3543-1.3032-.0001-.6207.2845-1.1615.5568-1.6301.0798-.1372.1622-.2739.2468-.4143l.0001-.0002.0001-.0002v-.0001c.2293-.3804.4752-.7882.7299-1.3079.062-.1265.125-.2584.1893-.3934l.0002-.0003v-.0002c.2833-.5939.5943-1.2458.979-1.7543C8.2161 9.5296 8.9333 9 10.0001 9Zm6.7362-.1174c-.2662.1645-.5564.4787-.7611.9246-.2046.4457-.2565.8763-.2085 1.1947.0491.3265.1791.4413.2481.4739.0657.0312.2277.0592.499-.1084.2662-.1645.5564-.4788.7611-.9247.2046-.4456.2564-.8763.2085-1.1947-.0491-.3265-.1791-.4412-.2481-.4739-.0657-.0311-.2277-.0591-.499.1085Zm-.7884-1.276c.5476-.3384 1.2599-.5053 1.9295-.1881.6664.3156.9936.9703 1.0893 1.6063.0969.6441-.0188 1.369-.3286 2.0437-.3096.6745-.7831 1.2334-1.3359 1.575-.5476.3383-1.2599.5051-1.9295.188-.6664-.3157-.9936-.9704-1.0893-1.6064-.097-.6441.0188-1.369.3286-2.0437.3096-.6745.7831-1.2334 1.3359-1.5749ZM4.0249 9.8071c-.2046-.4459-.4948-.7601-.761-.9246-.2714-.1676-.4333-.1396-.499-.1085-.069.0327-.199.1474-.2482.474-.0479.3183.004.749.2085 1.1946.2047.4459.495.7602.7611.9247.2714.1676.4333.1396.499.1084.069-.0326.199-.1474.2482-.4739.0479-.3184-.004-.749-.2085-1.1947ZM2.1228 7.4185c.6696-.3172 1.382-.1503 1.9295.188.5528.3415 1.0263.9004 1.336 1.575.3097.6747.4255 1.3995.3286 2.0436-.0957.636-.423 1.2907-1.0893 1.6064-.6697.3171-1.382.1503-1.9296-.188-.5527-.3416-1.0262-.9005-1.3359-1.575-.3098-.6747-.4255-1.3996-.3286-2.0437.0957-.636.423-1.2907 1.0893-1.6063Z" clip-rule="evenodd"/></svg>
