<svg fill="none" height="20" width="20" xmlns="http://www.w3.org/2000/svg"><path d="m11.76 12.716c1.128-1.129 2.905-1.233 4.086-.24l.854.72c.974.82 1.073 2.297.22 3.3a2.765 2.765 0 0 1 -1.83.944c-2.728.367-5.589-.947-8.586-3.944-2.996-2.997-4.311-5.86-3.944-8.586.02-.213.064-.424.132-.627.16-.466.44-.881.813-1.203 1.003-.852 2.48-.754 3.3.22l.717.855c.995 1.18.892 2.957-.237 4.085l-.612.612a.594.594 0 0 0 -.137.624c.223.61.792 1.37 1.705 2.284s1.675 1.482 2.283 1.705c.217.08.46.026.624-.137z" fill="currentColor"/></svg>
