<?xml version="1.0" encoding="UTF-8"?>
<svg width="20px" height="20px" viewBox="0 0 20 20" version="1.1" xmlns="http://www.w3.org/2000/svg" xmlns:xlink="http://www.w3.org/1999/xlink">
    <!-- Generator: Sketch 63.1 (92452) - https://sketch.com -->
    <title>phone_outline_20</title>
    <desc>Created with Sketch.</desc>
    <g id="Icons" stroke="none" stroke-width="1" fill="none" fill-rule="evenodd">
        <g id="Icons-20/phone_outline_20">
            <g id="phone_outline_20">
                <polygon opacity="0.100000001" points="0 0 20 0 20 20 0 20"></polygon>
                <path d="M7.78004128,2.70080559 L8.48032809,3.53321496 C9.85250071,5.16068521 9.70870148,7.58671158 8.18098317,9.11463698 L7.88396475,9.41129407 C8.10958723,9.79033017 8.51728088,10.2892181 9.11429946,10.8863178 C9.64427784,11.4163682 10.0975184,11.7976696 10.4580687,12.0347789 L10.588899,12.1169447 L10.885952,11.8198514 C12.4124972,10.2930989 14.8367195,10.1478691 16.4667165,11.5183471 L17.2993682,12.2198352 C18.7592448,13.4485255 18.9010416,15.6390489 17.6448907,17.11401 C17.0435658,17.80968 16.2144156,18.2670468 15.3546925,18.4026431 L14.8485554,18.4634558 C11.8439314,18.7550502 8.81165793,17.3033792 5.75463253,14.2459385 C2.69919285,11.1900837 1.24527912,8.1569198 1.52907391,5.22063019 L1.58959184,4.70570823 C1.62358825,4.47723694 1.67685407,4.25605188 1.75077649,4.03756909 C1.97329872,3.3845901 2.36650153,2.80243818 2.88935095,2.35180865 L3.05677871,2.21700042 C4.51870723,1.1101109 6.59664323,1.29316902 7.78004128,2.70080559 Z M3.86863231,3.48803398 C3.54798071,3.76439478 3.30692416,4.12137355 3.1705977,4.52141587 C3.11175189,4.69534545 3.07374938,4.87564435 3.05578031,5.07287481 C2.71253124,7.62097756 3.95408021,10.3236771 6.81536475,13.1853504 C9.67652608,16.0469004 12.3780397,17.2879417 14.9391316,16.9431979 C15.548233,16.8850523 16.111463,16.5942479 16.5100751,16.1330954 C17.2286353,15.2893327 17.1460734,14.0513785 16.3334772,13.3674651 L15.5002651,12.6655052 L15.3575659,12.5540495 C14.3374548,11.8150499 12.8867264,11.9402697 11.9466842,12.8804396 L11.3495267,13.4776781 L11.2623965,13.554385 C11.0191955,13.7421804 10.6938966,13.794874 10.4000573,13.6872216 C9.7521418,13.4489462 8.97529922,12.8687631 8.05356724,11.9469059 C7.13092813,11.0241414 6.55118121,10.2476719 6.31428468,9.60006569 C6.19301971,9.27008811 6.27433365,8.89971645 6.52303084,8.65054453 L7.12096645,8.05333374 L7.24970016,7.91565188 C8.11192521,6.92895662 8.15624166,5.47587363 7.33354176,4.50010747 L6.63220695,3.66645373 L6.51983966,3.54418139 C5.81969265,2.84708541 4.66748185,2.80876415 3.86863231,3.48803398 Z" id="↳-Icon-Color" fill="currentColor" fill-rule="nonzero"></path>
            </g>
        </g>
    </g>
</svg>
