<?xml version="1.0" encoding="UTF-8"?>
<svg width="20px" height="20px" viewBox="0 0 20 20" version="1.1" xmlns="http://www.w3.org/2000/svg" xmlns:xlink="http://www.w3.org/1999/xlink">
    <!-- Generator: Sketch 56 (81588) - https://sketch.com -->
    <title>phone_outline_20</title>
    <desc>Created with Sketch.</desc>
    <g id="Page-2" stroke="none" stroke-width="1" fill="none" fill-rule="evenodd">
        <g id="phone_outline_20">
            <polygon id="Shape" opacity="0.100000001" points="0 0 20 0 20 20 0 20"></polygon>
            <path d="M11.8076236,12.6744765 L11.2531253,13.2290195 C11.0223635,13.460055 10.6784375,13.5360342 10.3714832,13.423583 C9.76985282,13.2023415 9.04850557,12.6636347 8.19261939,11.8076795 C7.33589089,10.9508818 6.79755937,10.2299207 6.57758603,9.62861074 C6.46498386,9.32222268 6.54048898,8.97832824 6.77141998,8.74696919 L7.32664084,8.19245194 C8.24106376,7.27795522 8.32433661,5.84239327 7.5240304,4.89323956 L6.87279686,4.11918226 C6.2382167,3.36439912 5.08963602,3.28776795 4.30664381,3.95351743 C4.0088986,4.21012167 3.78506242,4.54158066 3.65847473,4.91302466 C3.60383269,5.07452032 3.56854496,5.24192997 3.55185955,5.42506078 C3.23313117,7.79100415 4.38598756,10.3004924 7.04287042,12.9575897 C9.69963886,15.6145726 12.2081643,16.766894 14.5862995,16.4467954 C15.1518885,16.3928065 15.6748829,16.1227912 16.0450194,15.6946056 C16.7122478,14.9111621 16.6355839,13.761707 15.8810371,13.1266854 L15.1073472,12.4749074 C14.1569745,11.6758923 12.7220781,11.7599482 11.8076236,12.6744765 Z M9.25332237,10.7470621 C9.76554589,11.259327 10.1978085,11.6186261 10.5308132,11.829984 L10.7469207,11.613859 C12.2031862,10.157476 14.5169787,10.0188695 16.0737674,11.327723 L16.846897,11.9790293 C18.2486699,13.1587521 18.3847472,15.2608033 17.1798082,16.6755513 C16.5568607,17.3961966 15.6782973,17.8493759 14.786396,17.9333893 C11.8700629,18.3259297 8.93384013,16.970118 5.98216745,14.0182071 C3.03200127,11.0678028 1.673805,8.13080449 2.0580471,5.28895655 C2.08517991,4.99116022 2.14433092,4.7079391 2.23866165,4.42915397 C2.45144959,3.80477415 2.82743809,3.24813937 3.33499656,2.81075689 C4.7414243,1.61492313 6.84225761,1.75195139 8.02060497,3.15350294 L8.67079045,3.92631589 C9.9813659,5.48064287 9.84410773,7.79618781 8.3866283,9.2537844 L8.17066844,9.46946957 C8.38152327,9.80221684 8.74053414,10.2342325 9.25332237,10.7470621 Z" id="↳-Icon-Color" fill="currentColor" fill-rule="nonzero"></path>
        </g>
    </g>
</svg>
