<svg xmlns="http://www.w3.org/2000/svg" width="20" height="20" fill="currentColor" viewBox="0 0 20 20"><path d="M.5 11.502c-.02.95.516 1.96 2.22 1.998.28 0 1.23-.072 2.044-.206 1.145-.19 1.816-1.164 1.978-1.79.15-.457.098-1.219.098-1.617.027-.484.398-.582.733-.692l.016-.005c.376-.098.973-.253 2.535-.253 1.21 0 2.048.172 2.302.258.66.172.71.44.733.71 0 .453-.058 1.073.094 1.605.351 1.078 1.191 1.575 1.66 1.707.66.187 2.107.278 2.293.278 2 0 2.319-1.286 2.293-1.993-.017-.8-.327-1.4-.76-1.9-.457-.595-1.12-1.089-1.197-1.15-1.653-1.262-3.862-1.616-3.862-1.616-1.75-.359-3.556-.332-3.556-.332-1.906-.044-3.54.28-3.54.28s-2.533.39-4.18 1.716a7.59 7.59 0 0 0-1.15 1.102c-.472.578-.765 1.206-.754 1.9Z"/></svg>
