<svg fill="none" height="36" viewBox="0 0 36 36" width="36" xmlns="http://www.w3.org/2000/svg"><path clip-rule="evenodd" d="m28.6094 27.9595c-.7137.8258-1.7184 1.3445-2.805 1.4482-4.1821.5633-8.5694-1.452-13.1642-6.0472-4.59483-4.5952-6.61124-8.984-6.04796-13.1653.02927-.32715.09725-.64968.20253-.96081.24358-.71474.67357-1.35147 1.24554-1.84441 1.53793-1.30767 3.80239-1.15703 5.05939.338l1.1012 1.30893c1.5253 1.80899 1.3671 4.53439-.3633 6.26489l-.9392.9381c-.2504.2508-.3324.6243-.2101.957.3418.9342 1.2139 2.1014 2.6139 3.5014 1.4012 1.4014 2.5683 2.2723 3.5011 2.6154.333.1219.7064.0394.957-.2114l.9379-.9381c1.7304-1.7304 4.4544-1.8899 6.2657-.3671l1.3088 1.1026c1.4937 1.2571 1.6456 3.523.3367 5.0598zm1.274-6.9717c2.612 2.199 2.7866 6.0597.6293 8.5927l-.0059.007c-1.1183 1.2935-2.7119 2.1283-4.4136 2.3038-5.284.693-10.3927-1.9345-15.2208-6.7631-4.82586-4.8262-7.4545-9.9342-6.76465-15.21497.04962-.50383.15659-1.00041.3189-1.48009.38415-1.13485 1.0808-2.16056 1.98788-2.94235l.00635-.0054c2.53236-2.1532 6.39182-1.98291 8.59182.63312l1.1004 1.30794c2.4062 2.85495 2.0904 7.04475-.5076 9.64305l-.0012.0012-.0891.089c.3215.4458.8172 1.0332 1.5548 1.7709.7371.7372 1.3247 1.233 1.7712 1.5551l.0892-.0892c2.5981-2.5983 6.7854-2.9149 9.6423-.5129z" fill="currentColor" fill-rule="evenodd"/></svg>
