<svg xmlns="http://www.w3.org/2000/svg" width="20" height="20" fill="currentColor" viewBox="0 0 20 20"><path fill-rule="evenodd" d="M7.082 3.5c-1.66 0-2.023.169-2.363.35-.378.203-.666.49-.869.87-.181.339-.35.702-.35 2.362v5.836c0 .74.034 1.222.087 1.56l2.206-2.207c.28-.28.52-.52.736-.703a2.3 2.3 0 0 1 .776-.462 2.25 2.25 0 0 1 1.39 0c.303.099.55.27.776.462.16.136.335.304.529.497l1.985-1.986c.198-.198.368-.368.518-.5a.75.75 0 0 1 .994 1.123c-.111.098-.25.236-.467.453l-2.5 2.5a.75.75 0 0 1-1.06 0l-.303-.303a12.75 12.75 0 0 0-.666-.64c-.156-.133-.23-.166-.27-.179a.75.75 0 0 0-.463 0c-.04.013-.113.046-.269.179-.162.138-.36.335-.666.64L4.53 15.655a.748.748 0 0 1-.264.172c.133.125.284.232.453.322.34.182.703.351 2.363.351h3.168a.75.75 0 0 1 0 1.5H7.082c-1.775 0-2.42-.18-3.07-.528a3.567 3.567 0 0 1-1.484-1.484C2.18 15.338 2 14.693 2 12.918V7.082c0-1.775.18-2.42.528-3.07a3.567 3.567 0 0 1 1.484-1.484C4.662 2.18 5.307 2 7.082 2h5.836c1.775 0 2.42.18 3.07.528.64.342 1.142.844 1.484 1.484.348.65.528 1.295.528 3.07v3.168a.75.75 0 0 1-1.5 0V7.082c0-1.66-.169-2.023-.35-2.363a2.067 2.067 0 0 0-.87-.869c-.339-.181-.702-.35-2.362-.35H7.082ZM6 7.25a1.25 1.25 0 1 1 2.5 0 1.25 1.25 0 0 1-2.5 0Zm9.501 4.748a.75.75 0 0 1 .75.75v2.002h1.998a.75.75 0 1 1 0 1.5H16.25v2.002a.75.75 0 1 1-1.5 0V16.25h-1.997a.75.75 0 1 1 0-1.5h1.997v-2.002a.75.75 0 0 1 .75-.75Z" clip-rule="evenodd"/></svg>
