<svg fill="none" height="20" viewBox="0 0 20 20" width="20" xmlns="http://www.w3.org/2000/svg"><path clip-rule="evenodd" d="m6.83816 16.4369c.75851.0619 1.73696.0631 3.16184.0631 1.4249 0 2.4033-.0012 3.1618-.0631.741-.0606 1.1391-.1716 1.4272-.3184.6585-.3355 1.194-.871 1.5295-1.5295.1468-.2881.2578-.6862.3184-1.4272.0158-.1936.0276-.4016.0365-.6277l-.0037-.0038-1.303-1.3029c-.3057-.3058-.5036-.5028-.6661-.6408-.1559-.1323-.2293-.1657-.2688-.1786-.1507-.0489-.3129-.0489-.4636 0-.0395.0129-.1129.0463-.2688.1786-.1625.138-.3604.335-.6661.6408l-2.303 2.3029c-.1406.1407-.3314.2197-.5303.2197-.19891 0-.38968-.079-.53033-.2197l-.30294-.3029c-.30577-.3058-.50361-.5028-.66615-.6408-.15584-.1323-.22924-.1657-.26882-.1786-.15063-.0489-.31289-.0489-.46352 0-.03959.0129-.11298.0463-.26882.1786-.16254.138-.36038.335-.66615.6408l-2.27763 2.2776c.25104.245.53901.4523.85539.6135.28808.1468.68613.2578 1.42713.3184zm9.38924-6.2702.2725.2725.0001-.4392c0-1.42488-.0012-2.40333-.0631-3.16184-.0606-.741-.1716-1.13905-.3184-1.42713-.3355-.65856-.871-1.194-1.5295-1.52955-.2881-.14679-.6862-.2578-1.4272-.31834-.7585-.06197-1.7369-.06314-3.1618-.06314-1.42488 0-2.40333.00117-3.16184.06314-.741.06054-1.13905.17155-1.42713.31834-.65856.33555-1.194.87099-1.52955 1.52955-.14679.28808-.2578.68613-.31834 1.42713-.06197.75851-.06314 1.73696-.06314 3.16184 0 1.4249.00117 2.4033.06314 3.1618.03787.4636.0955.793.16928 1.0451l2.04019-2.0402.02045-.0204c.27955-.2796.52072-.5208.73559-.7032.22679-.1925.47315-.3632.77606-.4617.4519-.1468.93868-.1468 1.39058 0 .30291.0985.54927.2692.77606.4617.15991.1358.33437.3041.52839.4965l1.77286-1.7729.0204-.0204c.2796-.27958.5208-.52077.7357-.70319.2267-.19253.4731-.36325.776-.46167.4519-.14683.9387-.14683 1.3906 0 .3029.09842.5493.26914.776.46167.2149.18241.4561.42357.7356.70309v.0001h.0001zm-13.68243-5.43665c-.54497 1.06956-.54497 2.46969-.54497 5.26995 0 2.8003 0 4.2004.54497 5.27.47936.9408 1.24427 1.7057 2.18508 2.185 1.06956.545 2.46969.545 5.26995.545 2.8003 0 4.2004 0 5.27-.545.9408-.4793 1.7057-1.2442 2.185-2.185.545-1.0696.545-2.4697.545-5.27 0-2.80026 0-4.20039-.545-5.26995-.4793-.94081-1.2442-1.70572-2.185-2.18508-1.0696-.54497-2.4697-.54497-5.27-.54497-2.80026 0-4.20039 0-5.26995.54497-.94081.47936-1.70572 1.24427-2.18508 2.18508zm4.70503 1.26995c-.69036 0-1.25.55964-1.25 1.25s.55964 1.25 1.25 1.25 1.25-.55964 1.25-1.25-.55964-1.25-1.25-1.25z" fill="currentColor" fill-rule="evenodd"/></svg>
