<svg xmlns="http://www.w3.org/2000/svg" width="20" height="20" fill="currentColor" viewBox="0 0 20 20"><path fill-rule="evenodd" d="M11.38 3.5H5.878a4 4 0 0 1 1.306-1.064C8.04 2 9.16 2 11.4 2h.2c2.24 0 3.36 0 4.216.436a4 4 0 0 1 1.748 1.748C18 5.039 18 6.159 18 8.4v.2c0 2.24 0 3.36-.436 4.216a4 4 0 0 1-1.064 1.306V8.62c0-1.793 0-2.689-.349-3.373a3.2 3.2 0 0 0-1.398-1.399c-.685-.348-1.58-.348-3.373-.348Zm-1.5 3H7.12c-.921 0-1.521.001-1.98.039-.44.036-.616.098-.712.146a1.7 1.7 0 0 0-.743.743c-.049.096-.11.272-.147.712-.037.46-.038 1.06-.038 1.98v2.76c0 .92 0 1.521.038 1.98.036.44.098.616.147.712.163.32.423.58.743.743.096.048.271.11.712.146.459.038 1.059.039 1.98.039h2.76c.92 0 1.521-.001 1.98-.039.44-.036.616-.098.712-.146a1.7 1.7 0 0 0 .743-.743c.048-.096.11-.271.146-.712.038-.459.039-1.06.039-1.98v-2.76c0-.92-.001-1.521-.039-1.98-.036-.44-.098-.616-.146-.712a1.7 1.7 0 0 0-.743-.743c-.096-.048-.272-.11-.713-.146-.458-.038-1.058-.039-1.98-.039Zm-7.531.247c-.35.685-.35 1.58-.35 3.373v2.76c0 1.792 0 2.688.35 3.373a3.2 3.2 0 0 0 1.398 1.398C4.431 18 5.327 18 7.12 18h2.76c1.792 0 2.688 0 3.372-.349a3.2 3.2 0 0 0 1.399-1.398c.349-.685.349-1.58.349-3.373v-2.76c0-1.792 0-2.688-.349-3.373a3.2 3.2 0 0 0-1.399-1.398C12.569 5 11.672 5 9.88 5H7.12c-1.792 0-2.689 0-3.373.349a3.2 3.2 0 0 0-1.398 1.398ZM6.6 12.631l1.353 1.583L9.847 11.5l2.097 3.06a.272.272 0 0 1-.215.438H5.272a.272.272 0 0 1-.212-.442l1.54-1.925Z" clip-rule="evenodd"/></svg>
