<svg fill="none" height="20" viewBox="0 0 20 20" width="20" xmlns="http://www.w3.org/2000/svg"><path d="m12.1217 3.20429c.1621-.16186.4247-.16169.5865.00039l4.0833 4.08875c.0776.07763.1211.18285.1211.29256 0 .22866-.1854.41402-.414.41402h-.5844c-.2652 0-.5196.10536-.7071.2929l-1.9142 1.91419c-.1875.1876-.2929.4419-.2929.7071v3.3438c0 .191-.0758.3741-.2108.5091-.2812.2812-.7371.2812-1.0183.0001l-2.56902-2.5682-3.98674 3.9862c-.38946.3893-1.02075.3892-1.41014-.0002-.3894-.3894-.38951-1.0207-.00025-1.4102l3.98413-3.9888-2.5569-2.55683c-.10804-.10803-.1782-.24685-.20195-.39584l-.00897-.11332c0-.39764.32236-.72.72-.72h3.34405c.26517 0 .51947-.10531.707-.29278l1.91489-1.91431c.1876-.18754.293-.44194.293-.70721v-.58795c0-.11009.0438-.21567.1217-.29347z" fill="currentColor"/></svg>
