<svg xmlns="http://www.w3.org/2000/svg" width="20" height="20" fill="none" viewBox="0 0 20 20"><path fill="currentColor" fill-rule="evenodd" d="M13.0597 3.0645c.9646-.7124 2.1543-1.3167 3.3391-.958.3581.1085.6775.3365.9172.5764.2399.2401.4666.559.5755.9146.3625 1.1832-.2416 2.3724-.9537 3.3364-.6634.8981-1.57 1.7978-2.432 2.6154l.995 5.0784c.0906.4623-.0449.9872-.2792 1.3862a2.1797 2.1797 0 0 1-2.3484 1.0252c-.4529-.0997-.939-.3597-1.2126-.7459l-1.6883-2.3833-.9273.6772.1647 1.1729a1.9601 1.9601 0 0 1-.6549 1.7461 1.9616 1.9616 0 0 1-2.959-.4195L4.543 15.4578l-1.5717-1.0015a1.9597 1.9597 0 0 1-.8924-2.2434 1.9606 1.9606 0 0 1 .4172-.7526 1.9616 1.9616 0 0 1 1.7447-.6543c.3887.0536.7777.1047 1.1665.157l.6865-.9455-2.4046-1.6751c-.4189-.2502-.6942-.7852-.7953-1.2446A2.1788 2.1788 0 0 1 3.9194 4.75c.3993-.2343.9258-.3705 1.3883-.2787l5.141 1.0202c.815-.859 1.7132-1.7638 2.611-2.4269Zm-8.526 4.0469 3.0381 2.1165a.7463.7463 0 0 1 .1774 1.0507l-1.3954 1.922a.7463.7463 0 0 1-.7037.3012l-1.6094-.2166c-.2296-.0313-.464.1259-.5289.3472-.0695.2372.056.4339.2485.5566l1.7226 1.0977a.7456.7456 0 0 1 .2257.2242l1.1488 1.7774c.1085.1728.3362.2581.5316.199.194-.0587.3366-.2467.3453-.4456.002-.0457-.0053-.0905-.0117-.1356l-.2183-1.5542a.7461.7461 0 0 1 .299-.7064l1.9001-1.3877a.7465.7465 0 0 1 1.0495.1713l2.0981 2.9619c.1943.1986.51.2606.7656.149.2569-.1121.4263-.388.4109-.6669l-1.0659-5.4405a.7461.7461 0 0 1 .2211-.6871c.9587-.9017 1.9051-1.8197 2.5542-2.6983.4136-.56 1.1732-1.6584.5228-2.3094-.6498-.6504-1.7552.1154-2.3129.5274-.879.6491-1.7959 1.5944-2.6948 2.5499a.7466.7466 0 0 1-.6891.2207l-5.5032-1.092c-.2787-.015-.5543.1542-.6663.4108-.11.2518-.0517.562.1403.7568Z" clip-rule="evenodd"/></svg>
