<svg xmlns="http://www.w3.org/2000/svg" width="20" height="20" fill="currentColor" viewBox="0 0 20 20"><path d="M10.75 6.413a.75.75 0 0 0-1.5 0v7.175a.75.75 0 0 0 1.5 0V6.413ZM6.5 8.288a.75.75 0 0 1 .75.75v4.55a.75.75 0 0 1-1.5 0v-4.55a.75.75 0 0 1 .75-.75Zm7.75 2.5a.75.75 0 0 0-1.5 0v2.8a.75.75 0 0 0 1.5 0v-2.8Z M3.752 1.983c.794-.425 1.57-.608 3.376-.608h5.744c1.806 0 2.582.183 3.376.608a4.261 4.261 0 0 1 1.769 1.769c.425.794.608 1.57.608 3.376v5.744c0 1.806-.183 2.582-.608 3.376a4.261 4.261 0 0 1-1.769 1.769c-.794.425-1.57.608-3.376.608H7.128c-1.806 0-2.582-.183-3.376-.608a4.261 4.261 0 0 1-1.769-1.769c-.425-.794-.608-1.57-.608-3.376V7.128c0-1.806.183-2.582.608-3.376a4.261 4.261 0 0 1 1.769-1.769Zm3.376.892c-1.69 0-2.185.172-2.669.43-.5.268-.886.655-1.153 1.154-.26.484-.431.979-.431 2.669v5.744c0 1.69.172 2.185.43 2.669.268.5.655.886 1.154 1.153.484.26.979.431 2.669.431h5.744c1.69 0 2.185-.172 2.669-.43a2.76 2.76 0 0 0 1.153-1.154c.26-.484.431-.979.431-2.669V7.128c0-1.69-.172-2.185-.43-2.669a2.76 2.76 0 0 0-1.154-1.153c-.484-.26-.979-.431-2.669-.431H7.128Z" clip-rule="evenodd"/></svg>
