<svg xmlns="http://www.w3.org/2000/svg" width="20" height="20" fill="none" viewBox="0 0 20 20"><path fill="url(#a)" d="M0 10C0 4.4771 4.4771 0 10 0c5.5228 0 10 4.4771 10 10 0 5.5228-4.4772 10-10 10-5.5229 0-10-4.4772-10-10Z"/><path fill="#fff" d="M9.547 4.0394a.2152.2152 0 0 1 .1698-.0345c.1122.0242.1828.1313.1575.239-.0295.126-.0665.2218-.1108.2876-1.5731 2.3318-.8822 3.7335.1785 3.8841 1.0972.1559 1.8997-.5498 1.728-2.073a314.4677 314.4677 0 0 1-.0742-.6631.179.179 0 0 1 .0306-.1207c.0582-.0848.1771-.1082.2655-.0523.3565.2256.7832.6358 1.2801 1.2306 1.7681 2.117 1.8372 3.8891 1.8273 4.6512C14.9636 14.1208 12.8566 16 9.9996 16 7.1427 16 5 14.1212 5 11.3883c.0126-2.069 1.1013-4.9813 4.1067-7.0401a31.313 31.313 0 0 0 .4402-.3088Z"/><defs><linearGradient id="a" x1="-10" x2="10" y1="10" y2="30" gradientUnits="userSpaceOnUse"><stop stop-color="#FF5263"/><stop offset="1" stop-color="#FF3347"/></linearGradient></defs></svg>
