<svg fill="none" height="20" viewBox="0 0 20 20" width="20" xmlns="http://www.w3.org/2000/svg"><path clip-rule="evenodd" d="m7.64932 15.5445c-.29013-.1067-.61606-.0246-.82087.207-.60919.6888-1.64007 1.1069-3.12328 1.2223.6818-1.3495 1.04497-2.3787 1.08427-3.1344.00916-.176-.04396-.3496-.15003-.4904-.74015-.9821-1.13941-2.1382-1.13941-3.349 0-3.30628 2.97776-6 6.75-6 3.7722 0 6.75 2.69372 6.75 6 0 3.3063-2.9778 6-6.75 6-.90917 0-1.78754-.1562-2.60068-.4555zm-5.00752 2.8163c.18461.0978.39146.1459.60025.1395 1.89233-.0576 3.35147-.5119 4.34824-1.3935.84656.2593 1.7417.3932 2.65971.3932 4.569 0 8.25-3.3299 8.25-7.5 0-4.17011-3.681-7.5-8.25-7.5s-8.25 3.32989-8.25 7.5c0 1.4399.44334 2.8188 1.26217 4.0034-.10518.5894-.47732 1.5132-1.12122 2.7294-.31127.5878-.08704 1.3168.50085 1.628zm7.6082-3.9604c.4971 0 .9-.4029.9-.9 0-.497-.4029-.9-.9-.9-.49705 0-.89999.403-.89999.9 0 .4971.40294.9.89999.9zm-.8485-6.41299c.0944-.36677.42822-.63695.8233-.63695.4694 0 .85.38056.85.85 0 .36385-.1336.5221-.4868.85172l-.0562.0522c-.3642.3375-.91488.8478-1.04948 1.79002-.05858.41.22634.7899.63638.8485.4101.0586.79-.2263.8485-.6364.0583-.4079.2553-.5946.6443-.9577.3968-.37043.9633-.91218.9633-1.94833 0-1.29788-1.0522-2.35001-2.35-2.35001-1.09607 0-2.01513.74965-2.27596 1.76306-.10325.40114.13825.81003.53938.91327.40114.10325.81003-.13824.91328-.53938z" fill="currentColor" fill-rule="evenodd"/></svg>
