<svg xmlns="http://www.w3.org/2000/svg" width="20" height="20" fill="none" viewBox="0 0 20 20"><path fill="url(#a)" d="M0 10C0 4.4771 4.4771 0 10 0c5.5228 0 10 4.4771 10 10 0 5.5228-4.4772 10-10 10-5.5229 0-10-4.4772-10-10Z"/><path fill="#fff" fill-rule="evenodd" d="M15 9.6149C15 7.066 12.7654 5 10.0088 5S5.0175 7.0661 5.0175 9.6149c0 .9062.2826 1.7515.771 2.4598 0 .7889-.3407 1.5935-.6483 2.3203-.0417.0985-.0828.1955-.1224.2909-.0623.1487.0475.3202.196.3139 1.2998-.055 2.2862-.4397 2.7965-1.1549.612.2475 1.2879.3848 1.9985.3848 2.7566 0 4.9912-2.0661 4.9912-4.6148Zm-5-1.9066c-.1923 0-.3589.128-.4054.322A.625.625 0 1 1 8.379 7.739 1.6637 1.6637 0 0 1 10 6.4583c.9473 0 1.6384.7815 1.6384 1.7027 0 .3466-.0819.6342-.2287.88-.1366.2285-.3143.3918-.4308.4988l-.0012.001c-.2361.217-.3261.3008-.3582.5416a.625.625 0 1 1-1.239-.1648c.0925-.6954.4782-1.0476.7201-1.2685l.0315-.0289c.1208-.111.1716-.1653.2045-.2204.023-.0385.0518-.1018.0518-.2388 0-.2998-.1985-.4527-.3884-.4527Zm.7501 4.3813a.75.75 0 1 1-1.5 0 .75.75 0 0 1 1.5 0Z" clip-rule="evenodd"/><defs><linearGradient id="a" x1="-10" x2="10" y1="10" y2="30" gradientUnits="userSpaceOnUse"><stop stop-color="#C48AFF"/><stop offset="1" stop-color="#AA65F0"/></linearGradient></defs></svg>
