<svg xmlns="http://www.w3.org/2000/svg" width="20" height="20" fill="none" viewBox="0 0 20 20"><path fill="url(#a)" d="M0 10C0 4.4771 4.4771 0 10 0c5.5228 0 10 4.4771 10 10 0 5.5228-4.4772 10-10 10-5.5229 0-10-4.4772-10-10Z"/><path fill="#fff" fill-rule="evenodd" d="M4.6813 14.7023a.3246.3246 0 0 0 .2967.4764c1.2841-.039 2.1846-.3459 2.7673-.8611l.2248-.1989.287.0879c.5529.1693 1.1393.2574 1.7429.2574 3.0177 0 5.3571-2.1863 5.3571-4.8215 0-2.6351-2.3394-4.8214-5.3571-4.8214S4.6429 7.0074 4.6429 9.6425c0 .9164.2816 1.7956.8065 2.555l.1254.1815-.0387.2172c-.0908.5085-.3914 1.2308-.8548 2.1061ZM9.982 7.75a.6076.6076 0 0 0-.588.455.5357.5357 0 1 1-1.0377-.2671c.1863-.7239.8428-1.2593 1.6257-1.2593.927 0 1.6786.7515 1.6786 1.6785 0 .7401-.4046 1.1271-.6881 1.3917-.2779.2593-.4185.3927-.4602.6841a.5357.5357 0 1 1-1.0606-.1515c.0961-.673.4895-1.0375.7496-1.2786l.0402-.0373c.2522-.2355.3476-.3485.3476-.6084A.6071.6071 0 0 0 9.982 7.75ZM10 12.7857a.643.643 0 1 0 0-1.2858.643.643 0 0 0 0 1.2858Z" clip-rule="evenodd"/><defs><linearGradient id="a" x1="-10" x2="10" y1="10" y2="30" gradientUnits="userSpaceOnUse"><stop stop-color="#C48AFF"/><stop offset="1" stop-color="#AA65F0"/></linearGradient></defs></svg>
