<svg fill="none" height="20" viewBox="0 0 20 20" width="20" xmlns="http://www.w3.org/2000/svg"><g clip-rule="evenodd" fill="currentColor" fill-rule="evenodd"><path d="m18.5 10c0 4.6944-3.8056 8.5-8.5 8.5-4.69442 0-8.5-3.8056-8.5-8.5 0-4.69442 3.80558-8.5 8.5-8.5 4.6944 0 8.5 3.80558 8.5 8.5zm-1.5 0c0 3.866-3.134 7-7 7-3.86599 0-7-3.134-7-7 0-3.86599 3.13401-7 7-7 3.866 0 7 3.13401 7 7zm-7 5.5c3.0376 0 5.5-2.4624 5.5-5.5 0-3.03757-2.4624-5.5-5.5-5.5-3.03757 0-5.5 2.46243-5.5 5.5 0 3.0376 2.46243 5.5 5.5 5.5z"/></g></svg>
