<svg fill="none" height="20" viewBox="0 0 20 20" width="20" xmlns="http://www.w3.org/2000/svg" xmlns:xlink="http://www.w3.org/1999/xlink"><linearGradient id="a" gradientUnits="userSpaceOnUse" x1="-10" x2="10" y1="10" y2="30"><stop offset="0" stop-color="#ffb73d"/><stop offset="1" stop-color="#ffa000"/></linearGradient><path d="m0 10c0-5.52285 4.47715-10 10-10 5.5228 0 10 4.47715 10 10 0 5.5228-4.4772 10-10 10-5.52285 0-10-4.4772-10-10z" fill="url(#a)"/><path clip-rule="evenodd" d="m10 4c.5523 0 1 .44772 1 1v4.58579l2.7071 2.70711c.3905.3905.3905 1.0237 0 1.4142s-1.0237.3905-1.4142 0l-3.00001-3c-.18753-.1875-.29289-.4419-.29289-.7071v-5c0-.55228.44772-1 1-1z" fill="#fff" fill-rule="evenodd"/></svg>
