<svg fill="none" height="20" viewBox="0 0 20 20" width="20" xmlns="http://www.w3.org/2000/svg"><g fill="currentColor"><path clip-rule="evenodd" d="m11.1 3h-2.2c-1.14486 0-1.91329.00117-2.50504.04952-.57425.04691-.84881.13068-1.02994.22296-.4704.23969-.85285.62214-1.09254 1.09254-.09228.18113-.17605.45569-.22296 1.02994-.04835.59175-.04952 1.36018-.04952 2.50504v4.2c0 1.1449.00117 1.9133.04952 2.505.04691.5743.13068.8489.22296 1.03.23969.4704.62214.8528 1.09254 1.0925.18113.0923.45569.1761 1.02994.223.59175.0483 1.36018.0495 2.50504.0495h2.2c1.1449 0 1.9133-.0012 2.505-.0495.5743-.0469.8489-.1307 1.03-.223.4704-.2397.8528-.6221 1.0925-1.0925.0923-.1811.1761-.4557.223-1.03.0483-.5917.0495-1.3601.0495-2.505v-4.2c0-1.14486-.0012-1.91329-.0495-2.50504-.0469-.57425-.1307-.84881-.223-1.02994-.2397-.4704-.6221-.85285-1.0925-1.09254-.1811-.09228-.4557-.17605-1.03-.22296-.5917-.04835-1.3601-.04952-2.505-.04952zm-8.16403.68404c-.43597.85565-.43597 1.97575-.43597 4.21596v4.2c0 2.2402 0 3.3603.43597 4.216.3835.7526.99542 1.3645 1.74807 1.748.85565.436 1.97575.436 4.21596.436h2.2c2.2402 0 3.3603 0 4.216-.436.7526-.3835 1.3645-.9954 1.748-1.748.436-.8557.436-1.9758.436-4.216v-4.2c0-2.24021 0-3.36031-.436-4.21596-.3835-.75265-.9954-1.36457-1.748-1.74807-.8557-.43597-1.9758-.43597-4.216-.43597h-2.2c-2.24021 0-3.36031 0-4.21596.43597-.75265.3835-1.36457.99542-1.74807 1.74807z" fill-rule="evenodd"/><path d="m12 7c0 1.10457-.8954 2-2 2-1.10457 0-2-.89543-2-2s.89543-2 2-2c1.1046 0 2 .89543 2 2z"/><path d="m6 11.25c0-.4142.33579-.75.75-.75h6.5c.4142 0 .75.3358.75.75s-.3358.75-.75.75h-6.5c-.41421 0-.75-.3358-.75-.75z"/><path d="m6 14.25c0-.4142.33579-.75.75-.75h6.5c.4142 0 .75.3358.75.75s-.3358.75-.75.75h-6.5c-.41421 0-.75-.3358-.75-.75z"/></g></svg>
