<svg fill="none" height="20" viewBox="0 0 20 20" width="20" xmlns="http://www.w3.org/2000/svg"><path clip-rule="evenodd" d="m6.57744 4h6.84516c1.6581 0 2.0203.16887 2.3591.35043.3775.20232.6654.49049.8678.86969.1818.34077.3505.70519.3505 2.36744v4.82484c0 1.6623-.1687 2.0267-.3505 2.3675-.2024.3792-.4903.6674-.8678.8697-.3388.1815-.701.3504-2.3591.3504h-2.4219v-.9124c0-1.7773-.1802-2.4236-.5272-3.0738-.3418-.6404-.84344-1.143-1.48258-1.4855-.64893-.3477-1.2939-.5283-3.06763-.5283h-2.92329v-2.41244c0-1.66225.16867-2.02667.35055-2.36743.2024-.37922.49021-.66738.86776-.8697.33881-.18156.70104-.35043 2.35913-.35043zm-3.57744 7.5v.9124c0 1.6623.16867 2.0267.35055 2.3675.2024.3792.49021.6674.86776.8697.33881.1815.70103.3504 2.35913.3504h2.92329v-.9124c0-1.6623-.16867-2.0267-.35055-2.3675-.2024-.3792-.4902-.6674-.86776-.8697-.33881-.1815-.70103-.3504-2.35913-.3504zm10.4226-9h-6.84516c-1.77372 0-2.4187.18056-3.06763.5283-.63914.3425-1.14075.8451-1.48256 1.48552-.34705.65022-.52725 1.29648-.52725 3.07374v4.82484c0 1.7773.1802 2.4236.52725 3.0738.34181.6404.84342 1.143 1.48256 1.4855.64893.3477 1.29391.5283 3.06763.5283h6.84516c1.7737 0 2.4187-.1806 3.0676-.5283.6391-.3425 1.1407-.8451 1.4826-1.4855.347-.6502.5272-1.2965.5272-3.0738v-4.82484c0-1.77726-.1802-2.42352-.5272-3.07374-.3419-.64042-.8435-1.14302-1.4826-1.48552-.6489-.34774-1.2939-.5283-3.0676-.5283z" fill="currentColor" fill-rule="evenodd"/></svg>
