<svg xmlns="http://www.w3.org/2000/svg" width="20" height="20" fill="currentColor" viewBox="0 0 20 20"><path fill-rule="evenodd" d="M11.683 2H8.317c-.952 0-1.713 0-2.327.05-.63.052-1.172.16-1.67.413a4.25 4.25 0 0 0-1.857 1.858c-.253.497-.361 1.04-.413 1.67C2 6.603 2 7.364 2 8.316v3.366c0 .952 0 1.713.05 2.327.052.63.16 1.172.413 1.67a4.25 4.25 0 0 0 1.858 1.857c.497.253 1.04.361 1.67.413.613.05 1.374.05 2.326.05h3.366c.952 0 1.713 0 2.327-.05.63-.052 1.172-.16 1.67-.413a4.251 4.251 0 0 0 1.857-1.857c.253-.498.361-1.04.413-1.67.05-.614.05-1.375.05-2.327V8.317c0-.952 0-1.713-.05-2.327-.052-.63-.16-1.172-.413-1.67a4.25 4.25 0 0 0-1.857-1.857c-.498-.253-1.04-.361-1.67-.413C13.396 2 12.635 2 11.683 2ZM5.002 3.8c.25-.128.573-.21 1.11-.255.546-.044 1.246-.045 2.238-.045h.9v8H3.5V8.35c0-.992 0-1.692.045-2.238.044-.537.127-.86.255-1.11A2.75 2.75 0 0 1 5.002 3.8ZM3.507 13H9.25v3.5h-.9c-.992 0-1.692 0-2.238-.045-.537-.044-.86-.127-1.11-.255A2.75 2.75 0 0 1 3.8 15c-.128-.252-.21-.574-.255-1.111A14.143 14.143 0 0 1 3.507 13Zm7.243 3.5h.9c.992 0 1.692 0 2.238-.045.537-.044.86-.127 1.11-.255A2.751 2.751 0 0 0 16.2 15c.128-.252.21-.574.255-1.111.044-.546.045-1.245.045-2.238V8.496h-5.75V16.5Zm0-9.504V3.5h.9c.992 0 1.692 0 2.238.045.537.044.86.127 1.11.255A2.75 2.75 0 0 1 16.2 5.002c.128.25.21.573.255 1.11.02.256.032.546.038.884H10.75Z" clip-rule="evenodd"/></svg>
