<svg width="20" height="20" viewBox="0 0 20 20" fill="none" xmlns="http://www.w3.org/2000/svg">
<path d="M10.2084 3.42263C11.1292 3.49737 11.8531 4.26832 11.8531 5.20835L11.8535 6.97302L11.9538 6.99426C15.6886 7.80818 18.4365 11.1348 18.4365 15.0545C18.4365 15.3411 18.4218 15.6269 18.3929 15.9107C18.324 16.5869 17.4633 16.8301 17.0507 16.2899L16.8757 16.0692C15.6245 14.5498 13.8342 13.5688 11.8535 13.349L11.8531 15.4286C11.8531 15.8292 11.7188 16.2183 11.4716 16.5337C10.8612 17.3125 9.73503 17.449 8.95623 16.8386L2.4365 11.7286C2.32296 11.6396 2.22059 11.5372 2.1316 11.4237C1.52119 10.6449 1.6577 9.51868 2.4365 8.90827L8.95623 3.79821C9.27162 3.55102 9.66076 3.41669 10.0615 3.41669L10.2084 3.42263ZM10.0615 4.91669C9.99625 4.91669 9.9329 4.93856 9.88155 4.9788L3.36182 10.0889C3.23504 10.1882 3.21282 10.3716 3.31219 10.4983C3.32667 10.5168 3.34334 10.5335 3.36182 10.548L9.88155 15.658C10.0083 15.7574 10.1917 15.7352 10.291 15.6084C10.3313 15.5571 10.3531 15.4937 10.3531 15.4285L10.3535 12.5549C10.3535 12.1343 10.6995 11.7959 11.1201 11.8052L11.3354 11.81L11.6405 11.8258C13.5656 11.9577 15.3594 12.6901 16.8022 13.882L16.8395 13.914L16.8355 13.8867C16.3306 11 13.9867 8.71706 11.0127 8.35453C10.6364 8.30866 10.3535 7.98921 10.3534 7.61013L10.3531 5.20845C10.3531 5.04727 10.2226 4.91669 10.0615 4.91669Z" fill="currentColor"/>
</svg>
