<svg fill="none" height="20" viewBox="0 0 20 20" width="20" xmlns="http://www.w3.org/2000/svg"><path d="m10.2084 3.42263c.9208.07474 1.6447.84569 1.6447 1.78572l.0004 1.76467.1003.02124c3.7348.81392 6.4827 4.14054 6.4827 8.06024 0 .2866-.0147.5724-.0436.8562-.0689.6762-.9296.9194-1.3422.3792l-.175-.2207c-1.2512-1.5194-3.0415-2.5004-5.0222-2.7202l-.0004 2.0796c0 .4006-.1343.7897-.3815 1.1051-.6104.7788-1.73657.9153-2.51537.3049l-6.51973-5.11c-.11354-.089-.21591-.1914-.3049-.3049-.61041-.7788-.4739-1.90502.3049-2.51543l6.51973-5.11006c.31539-.24719.70453-.38152 1.10527-.38152zm-.1469 1.49406c-.06525 0-.1286.02187-.17995.06211l-6.51973 5.1101c-.12678.0993-.149.2827-.04963.4094.01448.0185.03115.0352.04963.0497l6.51973 5.11c.12675.0994.31015.0772.40945-.0496.0403-.0513.0621-.1147.0621-.1799l.0004-2.8736c0-.4206.346-.759.7666-.7497l.2153.0048.3051.0158c1.9251.1319 3.7189.8643 5.1617 2.0562l.0373.032-.004-.0273c-.5049-2.8867-2.8488-5.16964-5.8228-5.53217-.3763-.04587-.6592-.36532-.6593-.7444l-.0003-2.40168c0-.16118-.1305-.29176-.2916-.29176z" fill="currentColor"/></svg>
