<svg fill="none" height="20" viewBox="0 0 20 20" width="20" xmlns="http://www.w3.org/2000/svg"><path clip-rule="evenodd" d="m10.2438 4.75265c0-.2088-.2392-.32447-.40235-.19746l-6.74108 5.24664c-.12861.1001-.12859.29487.00003.39497l6.74623 5.2492c.16317.127.40237.0113.40237-.1974v-3.1356c0-.4143.3358-.75.75-.75 2.4561 0 4.3419.9132 5.8321 2.197-.2661-1.4542-.8245-2.5772-1.5706-3.426-1.0654-1.21206-2.5805-1.94147-4.3845-2.2284-.3642-.05792-.6322-.37195-.6322-.74069zm-1.32366-1.38119c1.14976-.89486 2.82366-.07435 2.82366 1.38119v1.79029c1.8099.39366 3.4344 1.22545 4.6433 2.60072 1.3516 1.53764 2.1168 3.67874 2.1168 6.44444 0 .3166-.1988.5991-.4968.706-.2981.1068-.6311.015-.8323-.2295-1.3618-1.6549-3.0586-2.9416-5.4258-3.1666v2.3506c0 1.4554-1.6737 2.2759-2.82352 1.3813l-6.74624-5.2493c-.90035-.7005-.90044-2.0618-.00017-2.76249z" fill="currentColor" fill-rule="evenodd"/></svg>
