<svg fill="none" height="20" viewBox="0 0 20 20" width="20" xmlns="http://www.w3.org/2000/svg" xmlns:xlink="http://www.w3.org/1999/xlink"><linearGradient id="a" gradientUnits="userSpaceOnUse" x1="-10" x2="10" y1="10" y2="30"><stop offset="0" stop-color="#50c750"/><stop offset="1" stop-color="#32b332"/></linearGradient><path d="m0 10c0-5.52285 4.47715-10 10-10 5.5228 0 10 4.47715 10 10 0 5.5228-4.4772 10-10 10-5.52285 0-10-4.4772-10-10z" fill="url(#a)"/><path clip-rule="evenodd" d="m10 13.6122c0 .1521-.05331.2993-.15065.4162-.22982.2757-.63969.313-.91547.0832l-4.15029-3.4586c-.0395-.0329-.07592-.0693-.10883-.1088-.30053-.3607-.25181-.89664.10883-1.19717l4.15029-3.45858c.11682-.09735.26406-.15066.41612-.15066.35899 0 .65.29102.65.65v1.86223c3.0376 0 5.5 2.46238 5.5 5.49998v.0191c-1.4824-1.2593-3.4025-2.0191-5.5-2.0191z" fill="#fff" fill-rule="evenodd"/></svg>
