<svg width="20" height="20" viewBox="0 0 20 20" fill="none" xmlns="http://www.w3.org/2000/svg">
<path d="M9.97806 3.42257C9.05728 3.49731 8.33333 4.26826 8.33333 5.20829L8.333 6.97296L8.23269 6.9942C4.49791 7.80812 1.75 11.1348 1.75 15.0545C1.75 15.341 1.76464 15.6268 1.79355 15.9106C1.86245 16.5868 2.72322 16.83 3.13575 16.2898L3.31079 16.0691C4.56202 14.5498 6.35233 13.5687 8.333 13.349L8.33333 15.4285C8.33333 15.8291 8.46766 16.2183 8.71486 16.5337C9.32527 17.3125 10.4514 17.449 11.2302 16.8386L17.75 11.7285C17.8635 11.6395 17.9659 11.5371 18.0549 11.4236C18.6653 10.6448 18.5288 9.51862 17.75 8.90821L11.2302 3.79815C10.9149 3.55096 10.5257 3.41663 10.125 3.41663L9.97806 3.42257ZM10.125 4.91663C10.1902 4.91663 10.2536 4.93849 10.3049 4.97873L16.8247 10.0888C16.9514 10.1882 16.9737 10.3715 16.8743 10.4983C16.8598 10.5168 16.8431 10.5334 16.8247 10.5479L10.3049 15.658C10.1781 15.7573 9.99481 15.7351 9.89544 15.6083C9.8552 15.557 9.83333 15.4936 9.83333 15.4284L9.833 12.5549C9.83295 12.1342 9.48697 11.7958 9.06639 11.8052L8.85105 11.8099L8.54602 11.8257C6.62089 11.9577 4.82704 12.6901 3.38429 13.882L3.347 13.914L3.35102 13.8866C3.8559 10.9999 6.19979 8.717 9.17379 8.35446C9.55009 8.30859 9.83299 7.98915 9.83304 7.61007L9.83333 5.20838C9.83333 5.04721 9.96392 4.91663 10.125 4.91663Z" fill="currentColor"/>
</svg>
