<svg fill="none" height="20" viewBox="0 0 20 20" width="20" xmlns="http://www.w3.org/2000/svg" xmlns:xlink="http://www.w3.org/1999/xlink"><linearGradient id="a" gradientUnits="userSpaceOnUse" x1="-10" x2="10" y1="10" y2="30"><stop offset="0" stop-color="#50c750"/><stop offset="1" stop-color="#32b332"/></linearGradient><path d="m0 10c0-5.52285 4.47715-10 10-10 5.5228 0 10 4.47715 10 10 0 5.5228-4.4772 10-10 10-5.52285 0-10-4.4772-10-10z" fill="url(#a)"/><path d="m12.52 4.24695c.1093 0 .2158.03445.3045.09845l2.8785 2.07897c.3179.22959.3895.6734.1599.99128-.0444.0615-.0984.11548-.1599.15989l-2.8785 2.07898c-.2329.16814-.5579.11571-.7261-.1171-.064-.08862-.0984-.19515-.0984-.30446v-1.23301l-3.91035.00001c-.37889 0-.51629.03945-.65481.11353s-.24723.18279-.32131.32131c-.06482.1212-.10313.24154-.11169.52357l-.00184.13124v2.82069c0 .3789.03945.5163.11353.6548s.18279.2472.32131.3213c.1212.0648.24155.1032.52357.1117l.13124.0019h3.91035c.5523 0 1 .4477 1 1 0 .5465-.4384.9906-.9827.9998l.9827.0002h-4.47466c-1.22584 0-1.67035-.1277-2.1185-.3674-.44815-.2396-.79986-.5913-1.03953-1.0395-.23967-.4481-.36731-.8926-.36731-2.1185v-1.9493c0-1.22584.12764-1.67036.36731-2.11851s.59138-.79985 1.03953-1.03953c.44815-.23967.89266-.3673 2.1185-.3673l3.47466-.00001v-1.233c0-.28719.2328-.52.52-.52z" fill="#fff"/></svg>
