<svg xmlns="http://www.w3.org/2000/svg" width="20" height="20" fill="currentColor" viewBox="0 0 20 20"><path fill-rule="evenodd" d="M9.2 9.5H6.8c-.865 0-1.423.001-1.848.036-.408.033-.559.09-.633.127a1.5 1.5 0 0 0-.656.656c-.037.074-.094.225-.127.633-.035.425-.036.983-.036 1.848v.4c0 .865.001 1.423.036 1.848.033.408.09.559.127.633a1.5 1.5 0 0 0 .656.656c.074.037.225.094.633.127.425.035.983.036 1.848.036h2.4c.865 0 1.423-.001 1.848-.036.408-.033.559-.09.633-.127a1.5 1.5 0 0 0 .655-.656c.038-.074.095-.225.128-.633.035-.425.036-.983.036-1.848v-.4c0-.865-.001-1.423-.036-1.848-.033-.408-.09-.559-.128-.633a1.5 1.5 0 0 0-.655-.656c-.074-.037-.225-.094-.633-.127C10.623 9.5 10.065 9.5 9.2 9.5Zm-6.873.138C2 10.28 2 11.12 2 12.8v.4c0 1.68 0 2.52.327 3.162a3 3 0 0 0 1.311 1.311C4.28 18 5.12 18 6.8 18h2.4c1.68 0 2.52 0 3.162-.327a3 3 0 0 0 1.311-1.311C14 15.72 14 14.88 14 13.2v-.4c0-1.68 0-2.52-.327-3.162a3 3 0 0 0-1.311-1.311C11.72 8 10.88 8 9.2 8H6.8c-1.68 0-2.52 0-3.162.327a3 3 0 0 0-1.311 1.311ZM13.53 1.97a.75.75 0 0 1 0 1.06l-.72.72H13a4.75 4.75 0 0 1 4.75 4.75V11a.75.75 0 0 1-1.5 0V8.5A3.25 3.25 0 0 0 13 5.25h-.19l.72.72a.75.75 0 0 1-1.06 1.06l-2-2a.75.75 0 0 1 0-1.06l2-2a.75.75 0 0 1 1.06 0Z" clip-rule="evenodd"/></svg>
