<svg fill="none" height="20" viewBox="0 0 20 20" width="20" xmlns="http://www.w3.org/2000/svg" xmlns:xlink="http://www.w3.org/1999/xlink"><linearGradient id="a" gradientUnits="userSpaceOnUse" x1="-10" x2="10" y1="10" y2="30"><stop offset="0" stop-color="#ffb73d"/><stop offset="1" stop-color="#ffa000"/></linearGradient><path d="m0 10c0-5.52285 4.47715-10 10-10 5.5228 0 10 4.47715 10 10 0 5.5228-4.4772 10-10 10-5.52285 0-10-4.4772-10-10z" fill="url(#a)"/><path d="m5.5768 5.00139c.1736.00847.317.01835.4302.02964 4.7003.469 8.444 4.18585 8.9538 8.87347.0145.1338.0271.3064.0377.518.0151.3034-.2185.5616-.5218.5768-.0092.0004-.0184.0007-.0275.0007h-.9055c-.2918-.0001-.5328-.228-.5491-.5194-.0101-.18-.022-.3273-.0357-.4419-.445-3.7233-3.44289-6.66255-7.19349-7.01779-.06753-.0064-.14915-.01217-.24486-.0173-.2919-.01564-.52055-.2569-.52055-.54921v-.90362c-.00005-.30378.24622-.55005.55-.55005.00894 0 .01788.00022.0268.00066zm.01268 3.36053c.2428.01748.37716.02814.40306.032 2.82817.42123 5.07756 2.61498 5.58156 5.41498.0272.1512.0506.3504.0702.5976.024.3028-.202.5677-.5048.5917-.0145.0012-.029.0018-.0435.0018h-.8067c-.2851-.0001-.52297-.218-.54785-.5021-.00889-.1014-.01891-.1871-.03007-.2569-.32389-2.026-1.92352-3.6263-3.94938-3.9514-.00459-.0008-.0897-.0077-.25534-.0208-.28606-.0226-.50666-.2613-.50666-.54828v-.81002c0-.30375.24624-.54999.55-.54999.01317 0 .02634.00047.03948.00141zm2.14365 6.63808h-2.18313c-.30376 0-.55-.2463-.55-.55v-2.1856c.00004-.3038.24626-.55.55-.55.03546 0 .07084.0034.10564.0103.0028.0005.00558.0011.00832.0016 1.26837.2558 2.27643 1.2301 2.58113 2.4799.01092.0448.02116.0962.03072.1542.04948.2998-.15347.5828-.45322.6322-.02957.0049-.05949.0074-.08946.0074z" fill="#fff"/></svg>
