<svg xmlns="http://www.w3.org/2000/svg" width="20" height="20" fill="currentColor" viewBox="0 0 20 20"><path fill-rule="evenodd" d="M12.107 5.714a2.893 2.893 0 1 1 2.177 2.804L11.846 10l2.438 1.482a2.896 2.896 0 0 1 3.609 2.804 2.893 2.893 0 1 1-5.063-1.914l-2.468-.894-6.4 3.1c-.358.209-1.082.32-1.7-.183-.26-.212-.34-.399.219-.758L8.879 10 2.48 6.363c-.56-.36-.48-.546-.22-.758.62-.502 1.343-.392 1.7-.184l6.401 3.101 2.468-.894a2.882 2.882 0 0 1-.723-1.914ZM15 4.321a1.393 1.393 0 1 0 0 2.786 1.393 1.393 0 0 0 0-2.786Zm0 11.358a1.393 1.393 0 1 1 0-2.786 1.393 1.393 0 0 1 0 2.786Z" clip-rule="evenodd"/></svg>
