<svg fill="none" height="20" viewBox="0 0 20 20" width="20" xmlns="http://www.w3.org/2000/svg"><path clip-rule="evenodd" d="m9.5 4.5c-2.76142 0-5 2.23858-5 5 0 2.7614 2.23858 5 5 5 2.7614 0 5-2.2386 5-5 0-2.76142-2.2386-5-5-5zm-6.5 5c0-3.58985 2.91015-6.5 6.5-6.5 3.5899 0 6.5 2.91015 6.5 6.5 0 1.5247-.525 2.9268-1.404 4.0353l3.1843 3.1844c.2929.2929.2929.7677 0 1.0606s-.7677.2929-1.0606 0l-3.1844-3.1843c-1.1085.879-2.5106 1.404-4.0353 1.404-3.58985 0-6.5-2.9101-6.5-6.5z" fill="currentColor" fill-rule="evenodd"/></svg>
