<svg fill="none" height="20" viewBox="0 0 20 20" width="20" xmlns="http://www.w3.org/2000/svg"><path clip-rule="evenodd" d="m8.5 2c3.5899 0 6.5 2.91015 6.5 6.5 0 1.5246-.5248 2.9265-1.4037 4.035l3.3911 3.3918c.2929.2929.2929.7677 0 1.0606s-.7677.2929-1.0606 0l-3.3918-3.3911c-1.1085.8789-2.5104 1.4037-4.035 1.4037-3.58985 0-6.5-2.9101-6.5-6.5 0-3.58985 2.91015-6.5 6.5-6.5zm0 1.5c-2.76142 0-5 2.23858-5 5 0 2.7614 2.23858 5 5 5 2.7614 0 5-2.2386 5-5 0-2.76142-2.2386-5-5-5z" fill="currentColor" fill-rule="evenodd"/></svg>
