<svg xmlns="http://www.w3.org/2000/svg" width="20" height="20" fill="currentColor" viewBox="0 0 20 20"><path fill-rule="evenodd" d="M5.47 6.781a.75.75 0 0 0 1.061 0L9.25 4.063v8.192a.75.75 0 1 0 1.5 0V4.062l2.719 2.719a.75.75 0 1 0 1.06-1.06l-3.998-4a.75.75 0 0 0-1.061 0l-4 4a.75.75 0 0 0 0 1.06Zm-.969 4.969a.75.75 0 0 0-1.5 0v1.055c0 .757 0 1.37.041 1.868.042.513.13.968.346 1.391a3.55 3.55 0 0 0 1.552 1.552c.422.215.878.304 1.391.346.498.04 1.111.04 1.868.04h3.604c.757 0 1.371 0 1.869-.04.513-.042.968-.13 1.391-.346a3.55 3.55 0 0 0 1.551-1.552c.216-.423.305-.878.347-1.391.04-.498.04-1.111.04-1.868V11.75a.75.75 0 0 0-1.5 0v1.023c0 .796 0 1.348-.035 1.778-.035.42-.098.656-.188.832-.197.386-.51.7-.896.896-.176.09-.412.154-.833.188-.429.035-.981.036-1.777.036h-3.54c-.797 0-1.35-.001-1.779-.036-.42-.034-.656-.098-.832-.188a2.05 2.05 0 0 1-.896-.896c-.09-.176-.154-.412-.188-.832-.035-.43-.036-.982-.036-1.778V11.75Z" clip-rule="evenodd"/></svg>
