<svg fill="none" height="20" viewBox="0 0 20 20" width="20" xmlns="http://www.w3.org/2000/svg"><path d="m9.97806 3.4226c-.92078.07474-1.64473.84569-1.64473 1.78572l-.00033 1.76467-.10031.02124c-3.73478.81392-6.48269 4.14057-6.48269 8.06027 0 .2866.01464.5723.04355.8562.0689.6761.92967.9193 1.3422.3791l.17504-.2207c1.25123-1.5193 3.04154-2.5004 5.02221-2.7201l.00033 2.0795c0 .4007.13433.7898.38153 1.1052.61041.7788 1.73654.9153 2.51534.3049l6.5198-5.1101c.1135-.089.2159-.1913.3049-.3049.6104-.7788.4739-1.90495-.3049-2.51536l-6.5198-5.11006c-.3153-.24719-.7045-.38152-1.1052-.38152zm.14694 1.49406c.0652 0 .1286.02186.1799.06211l6.5198 5.11003c.1267.0994.149.2827.0496.4095-.0145.0185-.0312.0352-.0496.0496l-6.5198 5.1101c-.1268.0994-.31009.0772-.40946-.0496-.04024-.0514-.06211-.1147-.06211-.18l-.00033-2.8735c-.00005-.4207-.34603-.759-.76661-.7497l-.21534.0048-.30503.0158c-1.92513.1319-3.71898.8643-5.16173 2.0562l-.03729.032.00402-.0273c.50488-2.8868 2.84877-5.16967 5.82277-5.5322.3763-.04588.6592-.36532.65925-.7444l.00029-2.40169c0-.16117.13059-.29175.29167-.29175z" fill="currentColor"/></svg>
