<svg xmlns="http://www.w3.org/2000/svg" width="20" height="20" fill="currentColor" viewBox="0 0 20 20"><path d="M14.53 6.78a.75.75 0 0 0 0-1.06l-4-4a.757.757 0 0 0-.555-.22.748.748 0 0 0-.511.225L5.47 5.72a.75.75 0 1 0 1.06 1.06l2.72-2.72v8.19a.75.75 0 0 0 1.5 0V4.06l2.72 2.72a.75.75 0 0 0 1.06 0Z M4.5 11.75a.75.75 0 0 0-1.5 0v1.031c0 .674 0 1.224.037 1.672.037.463.118.882.317 1.273a3.25 3.25 0 0 0 1.42 1.42c.391.199.81.28 1.273.317.448.037.998.037 1.672.037h4.562c.674 0 1.224 0 1.672-.037.463-.037.882-.118 1.273-.317a3.25 3.25 0 0 0 1.42-1.42c.199-.391.28-.81.317-1.273.037-.447.037-.998.037-1.671V11.75a.75.75 0 0 0-1.5 0v1c0 .713 0 1.202-.032 1.58-.03.371-.085.57-.159.714a1.75 1.75 0 0 1-.764.765c-.145.074-.344.13-.714.16-.38.03-.869.031-1.581.031h-4.5c-.712 0-1.202 0-1.58-.032-.371-.03-.57-.085-.714-.159a1.75 1.75 0 0 1-.765-.764c-.074-.145-.13-.344-.16-.714-.03-.38-.031-.868-.031-1.581v-1Z"/></svg>
