<svg width="20" height="20" fill="none" xmlns="http://www.w3.org/2000/svg"><path fill-rule="evenodd" clip-rule="evenodd" d="M16.5 11.317V10c0-1.183 0-2.001-.04-2.643-.04-.629-.112-.987-.212-1.255a4 4 0 00-2.35-2.35c-.268-.1-.626-.172-1.255-.212C12 3.5 11.183 3.5 10 3.5c-1.183 0-2.001 0-2.643.04-.629.04-.987.112-1.255.212a4 4 0 00-2.35 2.35c-.1.268-.172.626-.212 1.255C3.5 8 3.5 8.817 3.5 10v1.317c0 .219 0 .278.003.329a2.5 2.5 0 001.275 2.063c.044.024.097.052.293.15l.01.004c.033.017.088.044.141.074A2.5 2.5 0 016.236 15h7.528a2.5 2.5 0 011.155-1.137l.01-.005a8.1 8.1 0 00.293-.15 2.5 2.5 0 001.275-2.062c.003-.05.003-.11.003-.33zM15 16.17l.001-.1a1 1 0 01.599-.871c.182-.091.274-.137.356-.183a4 4 0 002.04-3.3c.004-.095.004-.197.004-.4V10c0-2.328 0-3.492-.347-4.422a5.5 5.5 0 00-3.23-3.231C13.492 2 12.327 2 10 2s-3.492 0-4.422.347a5.5 5.5 0 00-3.231 3.231C2 6.508 2 7.672 2 10v1.317c0 .204 0 .305.004.4a4 4 0 002.04 3.3c.083.046.174.092.356.183.046.023.068.034.089.046A1 1 0 015 16.17v1.579a.75.75 0 001.5 0V16.5h2.75v1.25a.75.75 0 001.5 0V16.5h2.75v1.25a.75.75 0 001.5 0v-1.58zM10 11.5a.75.75 0 00-.75.75v.5a.75.75 0 001.5 0v-.5a.75.75 0 00-.75-.75zm2.25-2.75a.75.75 0 101.5 0 .75.75 0 00-1.5 0zM13 6.5a2.25 2.25 0 100 4.5 2.25 2.25 0 000-4.5zm-6 3A.75.75 0 117 8a.75.75 0 010 1.5zm-2.25-.75a2.25 2.25 0 114.5 0 2.25 2.25 0 01-4.5 0z" fill="currentColor"/></svg>
