<svg xmlns="http://www.w3.org/2000/svg" width="20" height="20" fill="none" viewBox="0 0 20 20"><path fill="currentColor" d="M9.35 14a.75.75 0 0 0 0 1.5h1.3a.75.75 0 0 0 0-1.5h-1.3Z"/><path fill="currentColor" fill-rule="evenodd" d="M4 6.7166c0-1.826 0-2.739.3554-3.4364a3.2604 3.2604 0 0 1 1.4248-1.4248C6.4776 1.5 7.3906 1.5 9.2166 1.5h1.5668c1.826 0 2.739 0 3.4364.3554a3.2598 3.2598 0 0 1 1.4248 1.4248C16 3.9776 16 4.8906 16 6.7166v6.5668c0 1.826 0 2.739-.3554 3.4364a3.2591 3.2591 0 0 1-1.4248 1.4248c-.6974.3554-1.6104.3554-3.4364.3554H9.2166c-1.826 0-2.739 0-3.4364-.3554a3.2598 3.2598 0 0 1-1.4248-1.4248C4 16.0224 4 15.1094 4 13.2834V6.7166ZM9.2166 3h1.5668c.9377 0 1.5508.0012 2.0193.0394.4509.0369.6341.1005.7361.1525a1.759 1.759 0 0 1 .7693.7693c.052.102.1156.2852.1525.7361.0382.4685.0394 1.0816.0394 2.0193v6.5668c0 .9377-.0012 1.5508-.0394 2.0193-.0369.4509-.1005.6341-.1525.7361a1.759 1.759 0 0 1-.7693.7693c-.102.052-.2852.1156-.7361.1525-.4685.0382-1.0816.0394-2.0193.0394H9.2166c-.9377 0-1.5508-.0012-2.0193-.0394-.4509-.0369-.6341-.1005-.7361-.1525a1.7597 1.7597 0 0 1-.7693-.7693c-.052-.102-.1156-.2852-.1525-.7361-.0382-.4685-.0394-1.0816-.0394-2.0193V6.7166c0-.9377.0012-1.5508.0394-2.0193.0369-.4509.1005-.6341.1525-.7361a1.7604 1.7604 0 0 1 .7693-.7693c.102-.052.2852-.1156.7361-.1525C7.6658 3.0012 8.279 3 9.2166 3Z" clip-rule="evenodd"/></svg>
