<svg xmlns="http://www.w3.org/2000/svg" width="20" height="20" fill="currentColor" viewBox="0 0 20 20"><path fill-rule="evenodd" d="M10 1.5a8.476 8.476 0 0 0-6.01 2.49A8.476 8.476 0 0 0 1.5 10c0 2.347.952 4.473 2.49 6.01A8.476 8.476 0 0 0 10 18.5a.75.75 0 0 0 0-1.5 6.976 6.976 0 0 1-4.95-2.05A6.976 6.976 0 0 1 3 10a6.98 6.98 0 0 1 2.05-4.95A6.976 6.976 0 0 1 10 3a6.98 6.98 0 0 1 4.95 2.05A6.976 6.976 0 0 1 17 10a.75.75 0 0 0 1.5 0 8.476 8.476 0 0 0-2.49-6.01A8.476 8.476 0 0 0 10 1.5ZM8.75 8.373a1.125 1.125 0 1 1-2.25 0 1.125 1.125 0 0 1 2.25 0Zm3.625 1.125a1.125 1.125 0 1 0 0-2.25 1.125 1.125 0 0 0 0 2.25Zm5.875 6.752a.75.75 0 0 0 0-1.5h-2v-2a.75.75 0 0 0-1.5 0v2h-1.995a.75.75 0 0 0 0 1.5h1.995v2.003a.75.75 0 0 0 1.5 0V16.25h2Zm-9.935-4.497a.75.75 0 0 0-1.123.994A3.732 3.732 0 0 0 10 14c1.11 0 2.117-.473 2.808-1.253a.75.75 0 0 0-1.123-.994A2.232 2.232 0 0 1 10 12.5a2.232 2.232 0 0 1-1.685-.747Z" clip-rule="evenodd"/></svg>
