<svg xmlns="http://www.w3.org/2000/svg" width="20" height="20" fill="currentColor" viewBox="0 0 20 20"><path fill-rule="evenodd" d="M15.235 1.678a.75.75 0 0 0-.606-.168 25.527 25.527 0 0 0-1.367.269c-.758.168-1.736.419-2.5.734-1.295.535-1.513 1.898-1.514 2.834l-.001 1.152a3094.12 3094.12 0 0 0-.001 6.026c-1.979.132-3.363.793-4.121 1.743-.87 1.09-.83 2.499.087 3.416.877.876 2.3 1.071 3.474.466 1.22-.629 2.064-2.035 2.064-4.15l-.003-1-.001-.526-.001-1.681c0-1.14 0-2.504.002-3.715l2.559-.676c.99-.262 1.913-1.027 2.067-2.2a16.6 16.6 0 0 0 .127-1.905.787.787 0 0 0-.265-.619Zm-4.487 3.848 2.175-.575c.562-.148.908-.524.963-.943.038-.29.063-.583.08-.846-.119.024-.246.052-.378.081-.742.165-1.615.393-2.253.656-.367.152-.586.587-.587 1.449v.178ZM9.25 14.028c-1.65.128-2.551.672-2.953 1.176-.44.551-.35 1.093-.025 1.419.382.381 1.088.523 1.727.193.591-.304 1.244-1.096 1.25-2.788Z" clip-rule="evenodd"/></svg>
