<svg xmlns="http://www.w3.org/2000/svg" width="20" height="20" fill="none" viewBox="0 0 20 20">
  <rect width="20" height="20" fill="url(#a)" rx="10"/>
  <path fill="#fff" fill-rule="evenodd" d="M10.508 7.548c-.255.746-.598 1.499-1.03 1.93-.431.432-1.184.775-1.93 1.03a11.836 11.836 0 0 1-.767.236c-.27.075-.27.58 0 .655a16.61 16.61 0 0 1 .627.189c.046.015.093.03.14.047.746.255 1.499.598 1.93 1.03.432.431.775 1.184 1.03 1.93a13.644 13.644 0 0 1 .236.767c.075.27.58.27.655 0a14.735 14.735 0 0 1 .236-.767c.255-.746.598-1.499 1.03-1.93.431-.432 1.184-.775 1.93-1.03l.14-.047a13.692 13.692 0 0 1 .627-.19c.27-.074.27-.579 0-.654a16.405 16.405 0 0 1-.627-.189 11.597 11.597 0 0 1-.14-.047c-.746-.255-1.499-.598-1.93-1.03-.432-.431-.775-1.184-1.03-1.93a11.905 11.905 0 0 1-.236-.767c-.075-.27-.58-.27-.655 0a14.933 14.933 0 0 1-.236.767Z" clip-rule="evenodd"/>
  <path fill="#fff" d="M6.7 4.385a.286.286 0 0 0-.543 0l-.217.652a1.429 1.429 0 0 1-.903.903l-.652.218a.286.286 0 0 0 0 .542l.652.217c.426.142.76.477.903.904l.217.652c.087.26.456.26.543 0l.217-.652c.142-.427.477-.762.903-.904l.653-.217a.286.286 0 0 0 0-.542L7.82 5.94a1.429 1.429 0 0 1-.903-.903L6.7 4.385Z"/>
  <defs>
    <linearGradient id="a" x1="-10" x2="10" y1="10" y2="30" gradientUnits="userSpaceOnUse">
      <stop stop-color="#C48AFF"/>
      <stop offset="1" stop-color="#AA65F0"/>
    </linearGradient>
  </defs>
</svg>
