<svg width="20" height="20" fill="none" xmlns="http://www.w3.org/2000/svg"><path d="M5.363 2.262a.383.383 0 00-.726 0l-.291.873a1.914 1.914 0 01-1.21 1.21l-.874.292a.383.383 0 000 .726l.873.291c.572.19 1.02.64 1.21 1.21l.292.874c.116.35.61.35.726 0l.291-.873c.19-.572.64-1.02 1.21-1.21l.874-.292a.383.383 0 000-.726l-.873-.291a1.914 1.914 0 01-1.21-1.21l-.292-.874z" fill="currentColor"/><path fill-rule="evenodd" clip-rule="evenodd" d="M10.685 6.403c-.37 1.079-.864 2.168-1.49 2.793-.624.625-1.713 1.12-2.792 1.489a17.405 17.405 0 01-.824.26l-.285.081c-.392.109-.392.84 0 .948a22.766 22.766 0 01.906.273l.203.068c1.079.37 2.168.865 2.793 1.49.625.624 1.12 1.713 1.489 2.792a17.343 17.343 0 01.26.824l.081.285c.109.392.84.392.948 0a22.859 22.859 0 01.273-.906l.068-.203c.37-1.079.865-2.168 1.49-2.793.624-.624 1.713-1.12 2.792-1.489a17.343 17.343 0 01.824-.26l.285-.081c.392-.109.392-.84 0-.948a22.859 22.859 0 01-.906-.273 17.343 17.343 0 01-.203-.068c-1.079-.37-2.168-.864-2.793-1.49-.624-.624-1.12-1.713-1.489-2.792a17.405 17.405 0 01-.26-.824 22.766 22.766 0 01-.081-.285c-.109-.392-.84-.392-.948 0a22.766 22.766 0 01-.273.906l-.068.203z" fill="currentColor"/></svg>
