<svg xmlns="http://www.w3.org/2000/svg" width="20" height="20" fill="currentColor" viewBox="0 0 20 20"><path d="M8.502 8.371A1.133 1.133 0 0 1 7.372 9.5 1.118 1.118 0 0 1 6.25 8.377 1.133 1.133 0 0 1 7.38 7.25c.621-.002 1.124.5 1.122 1.122Zm4.758-.75a1.133 1.133 0 0 1-1.13 1.128 1.118 1.118 0 0 1-1.122-1.122 1.134 1.134 0 0 1 1.13-1.128c.621-.002 1.124.5 1.122 1.122Z"/><path fill-rule="evenodd" d="M12.578 1.534c.63-.059 1.183-.046 1.717.117.859.262 1.613.79 2.153 1.507.337.446.537.961.697 1.573.05.188.097.392.143.612.1.477.198 1.03.311 1.672l.283 1.602c.763 4.326-2.154 8.45-6.474 9.21l-1.133.2-.23.041-.608.107c-.78.137-1.422.245-1.96.295-.63.058-1.182.046-1.717-.117a4.253 4.253 0 0 1-2.153-1.507c-.336-.447-.537-.962-.697-1.573-.156-.597-.289-1.346-.454-2.284L1.89 9.784c-.165-.939-.297-1.688-.354-2.302-.06-.63-.047-1.182.116-1.716A4.251 4.251 0 0 1 3.16 3.613c.447-.336.962-.536 1.574-.696.596-.157 1.346-.289 2.285-.454l3.257-.574c.938-.166 1.688-.298 2.302-.355Zm-3.15 15.123-.243.039c-.788.138-1.372.235-1.847.28-.537.05-.87.024-1.139-.058a2.752 2.752 0 0 1-1.393-.975c-.17-.225-.308-.529-.444-1.05-.139-.53-.261-1.22-.434-2.197l-.554-3.14c-.172-.978-.293-1.667-.344-2.213-.05-.537-.024-.869.058-1.138a2.75 2.75 0 0 1 .976-1.393c.225-.17.528-.307 1.05-.444.53-.139 1.22-.26 2.197-.433l3.193-.563c.978-.172 1.667-.293 2.213-.344.537-.05.87-.025 1.14.058a2.75 2.75 0 0 1 1.392.975c.17.225.308.528.444 1.05.042.158.082.33.122.52l.263 1.432c.073.397.091.51.093.593a1.25 1.25 0 0 1-.835 1.21c-.079.027-.196.05-.606.125l-.075.014-.101.019c-.496.09-.83.153-1.106.247a4.253 4.253 0 0 0-2.825 3.27 4.098 4.098 0 0 1-1.605-.108 4.79 4.79 0 0 1-.67-.228 2.706 2.706 0 0 1-.223-.105.756.756 0 0 0-1.021.292.746.746 0 0 0 .284 1.02c.116.064.237.12.359.172.213.091.515.205.881.3.537.14 1.234.245 1.999.167.03.18.07.387.118.632l.013.067c.073.372.091.477.095.556a1.25 1.25 0 0 1-.89 1.253 5.867 5.867 0 0 1-.535.098Zm5.567-6.189.062-.01c.322-.06.57-.104.777-.177.241-.085.465-.201.668-.343.024 2.714-1.686 5.171-4.234 6.11.067-.26.097-.531.084-.81-.009-.204-.053-.428-.11-.72l-.01-.055c-.12-.62-.164-.85-.172-1.037a2.751 2.751 0 0 1 1.868-2.734c.177-.06.419-.106 1.067-.224ZM8.502 8.371A1.133 1.133 0 0 1 7.372 9.5 1.118 1.118 0 0 1 6.25 8.377 1.133 1.133 0 0 1 7.38 7.25c.621-.002 1.124.5 1.122 1.122Zm4.758-.75a1.133 1.133 0 0 1-1.13 1.128 1.118 1.118 0 0 1-1.122-1.122 1.134 1.134 0 0 1 1.13-1.128c.621-.002 1.124.5 1.122 1.122Z" clip-rule="evenodd"/></svg>
