<svg xmlns="http://www.w3.org/2000/svg" width="20" height="20" fill="currentColor" viewBox="0 0 20 20"><path d="M8.998 8.371A1.133 1.133 0 0 1 7.87 9.5a1.118 1.118 0 0 1-1.122-1.123A1.133 1.133 0 0 1 7.876 7.25c.622-.002 1.124.5 1.122 1.122Zm4.759-.75a1.134 1.134 0 0 1-1.13 1.128 1.118 1.118 0 0 1-1.122-1.122 1.133 1.133 0 0 1 1.13-1.128c.621-.002 1.123.5 1.122 1.122Z"/><path fill-rule="evenodd" d="M13.075 1.534c.63-.059 1.182-.046 1.717.117.859.262 1.612.79 2.153 1.507.336.446.537.961.697 1.573.05.188.096.392.143.612.1.477.198 1.03.311 1.672l.283 1.602c.763 4.326-2.154 8.45-6.474 9.21l-1.134.2-.23.041-.607.107c-.781.137-1.422.245-1.96.295-.63.058-1.183.046-1.717-.117a4.253 4.253 0 0 1-2.153-1.507c-.337-.447-.537-.962-.698-1.573-.156-.597-.288-1.346-.454-2.284l-.565-3.205c-.165-.939-.298-1.688-.355-2.302-.059-.63-.046-1.182.117-1.716a4.251 4.251 0 0 1 1.508-2.153c.446-.336.961-.536 1.573-.696.597-.157 1.347-.289 2.285-.454l3.257-.574c.939-.166 1.688-.298 2.303-.355Zm-3.15 15.123-.244.039c-.788.138-1.371.235-1.846.28-.538.05-.87.024-1.14-.058a2.752 2.752 0 0 1-1.393-.975c-.17-.225-.307-.529-.443-1.05-.14-.53-.261-1.22-.434-2.197l-.554-3.14c-.172-.978-.293-1.667-.344-2.213-.05-.537-.025-.869.058-1.138a2.75 2.75 0 0 1 .975-1.393c.225-.17.529-.307 1.05-.444.53-.139 1.22-.26 2.198-.433l3.193-.563c.978-.172 1.667-.293 2.213-.344.537-.05.87-.025 1.139.058.556.17 1.043.511 1.393.975.17.225.307.528.444 1.05.041.158.081.33.121.52l.264 1.432c.073.397.091.51.093.593a1.25 1.25 0 0 1-.835 1.21c-.08.027-.196.05-.606.125l-.075.014-.101.019c-.496.09-.83.153-1.107.247a4.253 4.253 0 0 0-2.824 3.27 4.098 4.098 0 0 1-1.605-.108 4.79 4.79 0 0 1-.67-.228 2.708 2.708 0 0 1-.223-.105.756.756 0 0 0-1.021.292.746.746 0 0 0 .283 1.02c.116.064.238.12.36.172.213.091.515.205.881.3a5.68 5.68 0 0 0 1.998.167c.031.18.071.387.119.632l.013.067c.072.372.09.477.094.556a1.25 1.25 0 0 1-.89 1.253 5.866 5.866 0 0 1-.534.098Zm5.567-6.189.061-.01c.323-.06.57-.104.778-.177.241-.085.465-.201.667-.343.025 2.714-1.685 5.171-4.233 6.11.066-.26.096-.531.084-.81a5.164 5.164 0 0 0-.11-.72l-.01-.055c-.121-.62-.164-.85-.173-1.037a2.75 2.75 0 0 1 1.869-2.734c.176-.06.419-.106 1.067-.224ZM8.998 8.371A1.133 1.133 0 0 1 7.87 9.5a1.118 1.118 0 0 1-1.122-1.123A1.133 1.133 0 0 1 7.876 7.25c.622-.002 1.124.5 1.122 1.122Zm4.759-.75a1.134 1.134 0 0 1-1.13 1.128 1.118 1.118 0 0 1-1.122-1.122 1.133 1.133 0 0 1 1.13-1.128c.621-.002 1.123.5 1.122 1.122Z" clip-rule="evenodd"/></svg>
