<svg fill="none" height="20" viewBox="0 0 20 20" width="20" xmlns="http://www.w3.org/2000/svg"><g clip-rule="evenodd" fill="currentColor" fill-rule="evenodd"><path d="m10 6.25c-2.07107 0-3.75 1.67893-3.75 3.75 0 2.0711 1.67893 3.75 3.75 3.75 2.0711 0 3.75-1.6789 3.75-3.75 0-2.07107-1.6789-3.75-3.75-3.75zm-2.25 3.75c0-1.24264 1.00736-2.25 2.25-2.25 1.2426 0 2.25 1.00736 2.25 2.25 0 1.2426-1.0074 2.25-2.25 2.25-1.24264 0-2.25-1.0074-2.25-2.25z"/><path d="m2 8.4c0-2.24021 0-3.36031.43597-4.21596.3835-.75265.99542-1.36457 1.74807-1.74807.85565-.43597 1.97575-.43597 4.21596-.43597h3.2c2.2402 0 3.3603 0 4.216.43597.7526.3835 1.3645.99542 1.748 1.74807.436.85565.436 1.97575.436 4.21596v3.2c0 2.2402 0 3.3603-.436 4.216-.3835.7526-.9954 1.3645-1.748 1.748-.8557.436-1.9758.436-4.216.436h-3.2c-2.24021 0-3.36031 0-4.21596-.436-.75265-.3835-1.36457-.9954-1.74807-1.748-.43597-.8557-.43597-1.9758-.43597-4.216zm6.4-4.9h3.2c1.1449 0 1.9133.00117 2.505.04952.5743.04691.8489.13068 1.03.22296.4704.23969.8528.62214 1.0925 1.09254.0923.18113.1761.45569.223 1.02994.0483.59175.0495 1.36018.0495 2.50504v3.2c0 1.1449-.0012 1.9133-.0495 2.505-.0469.5743-.1307.8489-.223 1.03-.2397.4704-.6221.8528-1.0925 1.0925-.1811.0923-.4557.1761-1.03.223-.5917.0483-1.3601.0495-2.505.0495h-3.2c-1.14486 0-1.91329-.0012-2.50504-.0495-.57425-.0469-.84881-.1307-1.02994-.223-.4704-.2397-.85285-.6221-1.09254-1.0925-.09228-.1811-.17605-.4557-.22296-1.03-.04835-.5917-.04952-1.3601-.04952-2.505v-3.2c0-1.14486.00117-1.91329.04952-2.50504.04691-.57425.13068-.84881.22296-1.02994.23969-.4704.62214-.85285 1.09254-1.09254.18113-.09228.45569-.17605 1.02994-.22296.59175-.04835 1.36018-.04952 2.50504-.04952z"/></g></svg>
