<svg fill="none" height="20" viewBox="0 0 20 20" width="20" xmlns="http://www.w3.org/2000/svg" xmlns:xlink="http://www.w3.org/1999/xlink"><linearGradient id="a" gradientUnits="userSpaceOnUse" x1="-10" x2="10" y1="10" y2="30"><stop offset="0" stop-color="#c48aff"/><stop offset="1" stop-color="#aa65f0"/></linearGradient><path d="m0 10c0-5.52285 4.47715-10 10-10 5.5228 0 10 4.47715 10 10 0 5.5228-4.4772 10-10 10-5.52285 0-10-4.4772-10-10z" fill="url(#a)"/><path clip-rule="evenodd" d="m8.92572 6.26285c.40712.37319.43463 1.00576.06143 1.41288l-1.21391 1.32427h2.22676c1.9654 0 3.7101.94605 4.8029 2.4034.3313.4418.2417 1.0686-.2001 1.4-.4419.3313-1.0687.2417-1.4-.2002-.7314-.9753-1.8936-1.6032-3.2028-1.6032h-2.22677l1.21392 1.3243c.3732.4071.34569 1.0397-.06143 1.4129-.40711.3732-1.03968.3456-1.41287-.0615l-2.75-3c-.35047-.3823-.35047-.9691 0-1.35142l2.75-3c.37319-.40712 1.00576-.43462 1.41287-.06143z" fill="#fff" fill-rule="evenodd"/></svg>
