<svg xmlns="http://www.w3.org/2000/svg" width="20" height="20" fill="currentColor" viewBox="0 0 20 20"><path fill-rule="evenodd" d="M1.22 1.22a.75.75 0 0 1 1.06 0l16.5 16.5a.75.75 0 1 1-1.06 1.06l-1.542-1.542c-.159.11-.325.21-.498.299-.498.253-1.04.361-1.67.413-.614.05-1.375.05-2.327.05H8.317c-.952 0-1.713 0-2.327-.05-.63-.052-1.172-.16-1.67-.413a4.25 4.25 0 0 1-1.857-1.857c-.253-.498-.361-1.04-.413-1.67C2 13.396 2 12.635 2 11.683V8.317c0-.952 0-1.713.05-2.327.052-.63.16-1.172.413-1.67a4.25 4.25 0 0 1 .299-.498L1.22 2.28a.75.75 0 0 1 0-1.06Zm2.629 3.69-.05.092c-.127.25-.21.573-.254 1.11-.044.546-.045 1.246-.045 2.238v3.3c0 .992 0 1.692.045 2.238.044.537.127.86.255 1.11A2.75 2.75 0 0 0 5.002 16.2c.25.128.573.21 1.11.255.546.044 1.246.045 2.238.045h3.3c.992 0 1.692 0 2.238-.045.537-.044.86-.127 1.11-.255.032-.015.062-.032.093-.049l-2.843-2.842a4 4 0 0 1-5.557-5.557L3.85 4.91Zm3.934 3.933a2.5 2.5 0 0 0 3.374 3.374L7.782 8.843Zm6.105-5.298c-.546-.044-1.245-.045-2.238-.045H7A.75.75 0 0 1 7 2h4.683c.952 0 1.713 0 2.327.05.63.052 1.172.16 1.67.413a4.25 4.25 0 0 1 1.857 1.858c.253.497.361 1.04.413 1.67.05.613.05 1.374.05 2.326V13a.75.75 0 0 1-1.5 0V8.35c0-.992 0-1.692-.045-2.238-.044-.537-.127-.86-.255-1.11A2.75 2.75 0 0 0 15 3.8c-.252-.128-.574-.21-1.111-.255ZM10.56 6.711a.75.75 0 0 1 .981-.403 4.011 4.011 0 0 1 2.151 2.15.75.75 0 1 1-1.384.579 2.511 2.511 0 0 0-1.345-1.345.75.75 0 0 1-.403-.981Z" clip-rule="evenodd"/></svg>
