<svg xmlns="http://www.w3.org/2000/svg" width="20" height="20" fill="none" viewBox="0 0 20 20"><path fill="url(#a)" d="M0 10C0 4.4771 4.4771 0 10 0c5.5228 0 10 4.4771 10 10 0 5.5228-4.4772 10-10 10-5.5229 0-10-4.4772-10-10Z"/><path fill="#fff" d="M10 8.2143c-.9863 0-1.7857.7994-1.7857 1.7857 0 .9863.7994 1.7857 1.7857 1.7857.9863 0 1.7857-.7994 1.7857-1.7857 0-.9863-.7994-1.7857-1.7857-1.7857Z"/><path fill="#fff" fill-rule="evenodd" d="M5 10c0-1.7572 0-2.6358.339-3.3013a3.111 3.111 0 0 1 1.3597-1.3596C7.3642 5 8.2428 5 10 5c1.7572 0 2.6358 0 3.3013.339a3.1112 3.1112 0 0 1 1.3596 1.3597C15 7.3642 15 8.2428 15 10c0 1.7572 0 2.6358-.3391 3.3013a3.1113 3.1113 0 0 1-1.3596 1.3596C12.6358 15 11.7572 15 10 15c-1.7572 0-2.6358 0-3.3013-.3391a3.1112 3.1112 0 0 1-1.3596-1.3596C5 12.6358 5 11.7572 5 10Zm2.1429 0c0 1.5771 1.28 2.8571 2.8571 2.8571s2.8571-1.28 2.8571-2.8571S11.5771 7.1429 10 7.1429 7.1429 8.4229 7.1429 10Z" clip-rule="evenodd"/><defs><linearGradient id="a" x1="-10" x2="10" y1="10" y2="30" gradientUnits="userSpaceOnUse"><stop stop-color="#FFB73D"/><stop offset="1" stop-color="#FFA000"/></linearGradient></defs></svg>
