<svg fill="none" height="20" viewBox="0 0 20 20" width="20" xmlns="http://www.w3.org/2000/svg"><g fill="currentColor"><path clip-rule="evenodd" d="m2.28033 1.21967c-.29289-.292893-.76777-.292893-1.06066 0-.292893.29289-.292893.76777 0 1.06066l1.51382 1.51382c-.10361.15027-.19762.30781-.28117.47179-.24814.487-.3534 1.01654-.40351 1.62987-.04882.59759-.04882 1.33715-.04881 2.26167v3.68502c-.00001.9245-.00001 1.6641.04881 2.2617.05011.6133.15537 1.1429.40351 1.6299.39788.7808 1.03275 1.4157 1.81362 1.8136.487.2481 1.01654.3534 1.62987.4035.59759.0488 1.33714.0488 2.26165.0488h3.68504c.9245 0 1.6641 0 2.2617-.0488.6133-.0501 1.1429-.1554 1.6299-.4035.1639-.0836.3215-.1776.4717-.2812l1.5139 1.5138c.2929.2929.7677.2929 1.0606 0s.2929-.7677 0-1.0606zm12.83657 14.95793-3.0489-3.0489c-.5929.3924-1.3044.6213-2.068.6213-2.07107 0-3.75-1.6789-3.75-3.75 0-.76374.22896-1.47517.62138-2.06796l-3.04893-3.04893c-.01148.0211-.02269.04237-.03362.06382-.12244.24029-.20247.55045-.245 1.07103-.04325.52933-.04383 1.20758-.04383 2.17204v3.62c0 .9645.00058 1.6427.04383 2.172.04253.5206.12256.8308.245 1.0711.25407.4986.65947.904 1.1581 1.1581.24029.1224.55045.2024 1.07103.245.52933.0432 1.20758.0438 2.17204.0438h3.62c.9645 0 1.6427-.0006 2.172-.0438.5206-.0426.8308-.1226 1.0711-.245.0214-.011.0427-.0222.0638-.0336zm-7.14776-7.14779c-.14059.29363-.21914.62243-.21914.97019 0 1.2427 1.00736 2.25 2.25 2.25.3479 0 .6766-.0785.9702-.2191z" fill-rule="evenodd"/><path d="m13.982 3.54383c-.5293-.04325-1.2075-.04383-2.172-.04383h-3.62c-.44716 0-.83523.00001-1.17984.00468-.41417.00562-.75448-.32559-.76009-.73976-.00561-.41418.32559-.75449.73977-.7601.3558-.00482.75358-.00482 1.19634-.00482h3.65632c.9245-.00001 1.6641-.00001 2.2617.04881.6133.05011 1.1429.15537 1.6299.40351.7808.39788 1.4157 1.03275 1.8136 1.81362.2481.487.3534 1.01654.4035 1.62987.0488.59759.0488 1.33714.0488 2.26165v3.65624c0 .4428 0 .8406-.0048 1.1965-.0056.4141-.3459.7453-.7601.7397s-.7454-.3459-.7398-.7601c.0047-.3446.0047-.7326.0047-1.1798v-3.62c0-.96446-.0006-1.64271-.0438-2.17204-.0426-.52058-.1226-.83074-.245-1.07103-.2541-.49863-.6595-.90403-1.1581-1.1581-.2403-.12244-.5505-.20247-1.0711-.245z"/><path d="m10.2929 6.9208c.138-.39054.5665-.59523.957-.45719 1.0661.37679 1.9097 1.22044 2.2865 2.28649.1381.39053-.0666.81903-.4572.95706-.3905.13804-.819-.06666-.957-.45719-.2258-.63878-.7334-1.14633-1.3721-1.3721-.3906-.13804-.5953-.56653-.4572-.95707z"/></g></svg>
