<svg xmlns="http://www.w3.org/2000/svg" width="20" height="20" fill="currentColor" viewBox="0 0 20 20"><path d="M7.75 6a.75.75 0 0 0 0 1.5h5a.75.75 0 0 0 0-1.5h-5ZM7 9.75A.75.75 0 0 1 7.75 9h3a.75.75 0 0 1 0 1.5h-3A.75.75 0 0 1 7 9.75Z"/><path fill-rule="evenodd" d="M11.482 1.5H9.518c-.813 0-1.469 0-2 .043-.546.045-1.026.14-1.47.366a3.75 3.75 0 0 0-1.64 1.639c-.226.444-.32.924-.365 1.47C4 5.55 4 6.206 4 7.019V10c-.408.005-.747.026-1.048.117a2.75 2.75 0 0 0-1.834 1.834C1 12.345 1 12.8 1 13.39v1.19c0 .535 0 .98.03 1.345.03.38.098.736.27 1.073A2.75 2.75 0 0 0 2.502 18.2c.337.172.693.24 1.073.27.365.03.81.03 1.344.03h6.563c.813 0 1.469 0 2-.043.546-.045 1.026-.14 1.47-.366a3.75 3.75 0 0 0 1.64-1.639c.226-.444.32-.924.365-1.47.043-.531.043-1.187.043-2V7.018c0-.813 0-1.469-.043-2-.045-.546-.14-1.026-.366-1.47a3.75 3.75 0 0 0-1.639-1.64c-.444-.226-.924-.32-1.47-.365-.531-.043-1.187-.043-2-.043ZM9.502 17h1.948c.852 0 1.447 0 1.91-.038.453-.038.714-.107.912-.207a2.25 2.25 0 0 0 .983-.983c.1-.198.17-.459.207-.913.037-.462.038-1.056.038-1.909v-5.9c0-.852 0-1.447-.038-1.91-.037-.453-.107-.714-.207-.911a2.25 2.25 0 0 0-.984-.984c-.197-.1-.458-.17-.912-.207C12.897 3.001 12.302 3 11.45 3h-1.9c-.852 0-1.447 0-1.91.038-.453.037-.714.107-.911.207a2.25 2.25 0 0 0-.984.984c-.1.197-.17.458-.207.912-.037.462-.038 1.057-.038 1.909V17h4.001ZM4 16.992v-5.49c-.361.005-.503.018-.613.052a1.25 1.25 0 0 0-.833.833c-.046.15-.054.36-.054 1.113v1.05c0 .572 0 .957.025 1.252.023.288.065.425.111.515.12.236.311.427.546.547.091.046.228.088.515.111.092.008.192.013.303.017Z" clip-rule="evenodd"/></svg>
