<svg fill="none" height="20" viewBox="0 0 20 20" width="20" xmlns="http://www.w3.org/2000/svg" xmlns:xlink="http://www.w3.org/1999/xlink"><clipPath id="a"><path d="m0 0h20v20h-20z"/></clipPath><g clip-path="url(#a)" fill="currentColor"><path d="m16.25 1.5c.4142 0 .75.33579.75.75v3c0 .41421-.3358.75-.75.75h-3c-.4142 0-.75-.33579-.75-.75s.3358-.75.75-.75h1.0814c-1.2665-1.00009-2.798-1.5-4.3313-1.5-1.79266 0-3.5828.68327-4.94979 2.05025-1.36698 1.36699-2.05025 3.15714-2.05025 4.94975 0 .3498.02602.6996.07807 1.0461.07248.4826-.27786.9539-.76585.9539-.33713 0-.6337-.2305-.69044-.5628-.08118-.4754-.12178-.9564-.12178-1.4372 0-2.17418.83001-4.35082 2.48959-6.01041 1.65958-1.65958 3.83623-2.48959 6.01045-2.48959 1.9577 0 3.9175.67299 5.4999 2.01865v-1.26865c0-.41421.3358-.75.75-.75z"/><path d="m3 14.75c0-.4142.33579-.75.75-.75h3c.41421 0 .75.3358.75.75s-.33579.75-.75.75h-1.08124c1.26644 1.0001 2.79797 1.5 4.33134 1.5 1.7926 0 3.5827-.6833 4.9497-2.0503 1.367-1.3669 2.0503-3.1571 2.0503-4.9497 0-.34983-.0261-.69957-.0781-1.0461-.0725-.48257.2779-.9539.7658-.9539.3372 0 .6337.23048.6905.56279.0812.47545.1218.95639.1218 1.43721 0 2.1742-.8301 4.3508-2.4896 6.0104-1.6596 1.6596-3.8363 2.4896-6.0104 2.4896-1.95784 0-3.91764-.673-5.5001-2.0187v1.2687c0 .4142-.33579.75-.75.75s-.75-.3358-.75-.75z"/></g></svg>
