<svg fill="none" height="20" viewBox="0 0 20 20" width="20" xmlns="http://www.w3.org/2000/svg"><g fill="currentColor"><path clip-rule="evenodd" d="m9.37074 3.54497c-.14004-.03858-.30224-.0449-.90874-.0449h-2.512c-.57243 0-.95664.00059-1.25252.02476-.28712.02346-.42441.06534-.51497.11148-.2352.11985-.42643.31107-.54627.54627-.04614.09057-.08802.22785-.11148.51497-.02418.29588-.02476.6801-.02476 1.25253v8.10432c0 .5724.00058.9567.02476 1.2525.02346.2872.06534.4244.11148.515.11984.2352.31107.4264.54627.5463.09056.0461.22785.088.51497.1115.29588.0241.68009.0247 1.25252.0247h8.1c.5724 0 .9566-.0006 1.2525-.0247.2871-.0235.4244-.0654.515-.1115.2352-.1199.4264-.3111.5463-.5463.0461-.0906.088-.2278.1114-.515.0242-.2958.0248-.6801.0248-1.2525v-5.60433c0-.57243-.0006-.95664-.0248-1.25252-.0234-.28712-.0653-.4244-.1114-.51497-.1199-.2352-.3111-.42642-.5463-.54627-.0906-.04614-.2279-.08802-.515-.11148-.2959-.02417-.6801-.02476-1.2525-.02476-.4456 0-.8912-.00081-1.3368.00008-.225.00045-.4656.00093-.6974-.06293-.2021-.05568-.3925-.14722-.5623-.27026-.1946-.14111-.3446-.32929-.4848-.50526-.1974-.24775-.3957-.49477-.5936-.74213-.37885-.4736-.48511-.59631-.60271-.68156-.12124-.08789-.25728-.15327-.40165-.19304zm-.82458-1.54493c.48259-.00032.86224-.00058 1.22297.0988.31757.08749.61687.23134.88367.42469.3029.2196.5399.51622.8411.89326.2036.25489.4076.50952.6114.76427.0928.11606.1452.18115.1872.22841.0531.05978.1057.08321.1812.08711.0631.00326.1467.00349.2953.00349h1.3114c.5342-.00001.98-.00002 1.3443.02974.3799.03104.7365.09815 1.0738.26999.5174.26366.9381.68435 1.2018 1.2018.1718.33726.2389.69392.27 1.0738.0297.36423.0297.81007.0297 1.34422v5.66528c0 .5341 0 .98-.0297 1.3442-.0311.3799-.0982.7365-.27 1.0738-.2637.5174-.6844.9381-1.2018 1.2018-.3373.1718-.6939.2389-1.0738.27-.3643.0297-.8101.0297-1.3442.0297h-8.16095c-.53415 0-.97999 0-1.34422-.0297-.37988-.0311-.73654-.0982-1.0738-.27-.51745-.2637-.93815-.6844-1.2018-1.2018-.17184-.3373-.23895-.6939-.26999-1.0738-.02976-.3642-.02975-.8101-.02974-1.3442v-8.16526c-.00001-.53415-.00002-.98.02974-1.34424.03104-.37988.09815-.73654.26999-1.0738.26365-.51745.68435-.93814 1.2018-1.2018.33726-.17184.69392-.23895 1.0738-.26999.36423-.02976.81008-.02975 1.34424-.02974h2.54243c.0284 0 .05645-.00002.08416-.00003z" fill-rule="evenodd"/><path d="m5.75 5.00007h3c.41421 0 .75.33579.75.75 0 .41422-.33579.75-.75.75h-3c-.41421 0-.75-.33578-.75-.75 0-.41421.33579-.75.75-.75z"/><path d="m9.24561 8.49714c0-.41421.33578-.75.75-.75.41419 0 .74999.33579.74999.75v1.99996h2.0044c.4142 0 .75.3358.75.75 0 .4143-.3358.75-.75.75h-2.0044v2c0 .4143-.3358.75-.74999.75-.41422 0-.75-.3357-.75-.75v-2h-1.99561c-.41421 0-.75-.3357-.75-.75 0-.4142.33579-.75.75-.75h1.99561z"/></g></svg>
