<svg xmlns="http://www.w3.org/2000/svg" width="20" height="20" fill="currentColor" viewBox="0 0 20 20"><path fill-rule="evenodd" d="M8.3 3c-2.38 0-3.57 0-4.48.463A4.25 4.25 0 0 0 3.012 4H3v.01a4.25 4.25 0 0 0-1.037 1.31C1.5 6.23 1.5 7.42 1.5 9.8v.4c0 2.38 0 3.57.463 4.48a4.25 4.25 0 0 0 1.858 1.857C4.73 17 5.92 17 8.3 17h3.4c2.38 0 3.57 0 4.48-.463a4.251 4.251 0 0 0 1.857-1.857c.463-.91.463-2.1.463-4.48v-.4c0-2.38 0-3.57-.463-4.48A4.25 4.25 0 0 0 17 4.01V4h-.011a4.249 4.249 0 0 0-.81-.537C15.27 3 14.08 3 11.7 3H8.3Zm.95 4H3.065a8.084 8.084 0 0 0-.012.13C3 7.765 3 8.586 3 9.8v.7h6.25V7Zm1.5 0v3.5H17v-.7c0-1.215-.001-2.036-.053-2.67a8.325 8.325 0 0 0-.012-.13H10.75Zm-1.5 5H3.012c.007.33.02.614.04.87.051.615.142.92.248 1.129A2.75 2.75 0 0 0 4.502 15.2c.207.106.513.197 1.129.247.633.052 1.454.053 2.669.053h.95V12Zm1.5 3.5V12h6.238c-.008.33-.02.614-.04.87-.051.615-.142.92-.248 1.129a2.751 2.751 0 0 1-1.2 1.201c-.208.106-.514.197-1.13.247-.633.052-1.454.053-2.669.053h-.95Z" clip-rule="evenodd"/></svg>
