<svg xmlns="http://www.w3.org/2000/svg" width="20" height="20" fill="none" viewBox="0 0 20 20"><path fill="currentColor" fill-rule="evenodd" d="M10.7545 1.75a.7503.7503 0 1 0-1.5006 0v1.034c-3.4097.3485-6.1199 3.0598-6.4667 6.47H1.75a.7503.7503 0 1 0 0 1.5006h1.0388c.3536 3.4028 3.0607 6.1063 6.4652 6.4542v1.037a.7503.7503 0 1 0 1.5006 0v-1.0379c3.4004-.3516 6.1032-3.0534 6.4565-6.4534H18.25a.7503.7503 0 1 0 0-1.5006h-1.0373c-.3466-3.4073-3.0525-6.1168-6.4582-6.469v-1.035ZM5.25 10.7546h-.9502c.339 2.5731 2.3794 4.61 4.9542 4.9435v-.9523a.7503.7503 0 1 1 1.5006 0v.9512c2.5707-.337 4.6069-2.3722 4.9455-4.9425H14.75a.7503.7503 0 1 1 0-1.5006h.9521c-.3323-2.5776-2.3716-4.6204-4.9476-4.958v.954a.7503.7503 0 1 1-1.5006 0v-.9552c-2.58.3343-4.6235 2.3788-4.9561 4.9593H5.25a.7503.7503 0 1 1 0 1.5006ZM10 11.5c.8284 0 1.4999-.6716 1.4999-1.5s-.6715-1.5-1.5-1.5c-.8284 0-1.5.6716-1.5 1.5s.6716 1.5 1.5 1.5Z" clip-rule="evenodd"/></svg>
