<svg fill="none" height="20" viewBox="0 0 20 20" width="20" xmlns="http://www.w3.org/2000/svg"><g clip-rule="evenodd" fill="currentColor" fill-rule="evenodd"><path d="m5 6.75c0-.41421.33579-.75.75-.75h8.5c.4142 0 .75.33579.75.75s-.3358.75-.75.75h-8.5c-.41421 0-.75-.33579-.75-.75z"/><path d="m5 10.25c0-.41421.33579-.75.75-.75h8.5c.4142 0 .75.33579.75.75 0 .4142-.3358.75-.75.75h-8.5c-.41421 0-.75-.3358-.75-.75z"/><path d="m7.12777 2c-1.61028 0-2.34014.1378-3.08146.53427-.64992.34758-1.16446.86212-1.51204 1.51204-.39647.74132-.53427 1.47118-.53427 3.08146v5.74443c0 1.6103.1378 2.3402.53427 3.0815.34758.6499.86212 1.1645 1.51204 1.512.74132.3965 1.47118.5343 3.08146.5343h5.74443c1.6103 0 2.3402-.1378 3.0815-.5343.6499-.3475 1.1645-.8621 1.512-1.512.3965-.7413.5343-1.4712.5343-3.0815v-5.74443c0-1.61028-.1378-2.34014-.5343-3.08146-.3475-.64992-.8621-1.16446-1.512-1.51204-.7413-.39647-1.4712-.53427-3.0815-.53427zm-2.37406 1.85699c.41274-.22074.84306-.35699 2.37406-.35699h5.74443c1.531 0 1.9614.13625 2.3741.35699.3885.20778.6889.5082.8967.89672.2207.41273.357.84306.357 2.37406v5.74443c0 1.531-.1363 1.9614-.357 2.3741-.2078.3885-.5082.6889-.8967.8967-.3498.1871-.7122.3135-1.7463.3477v-2.7407c0-.4142-.3358-.75-.75-.75s-.75.3358-.75.75v2.75h-4v-2.75c0-.4142-.33579-.75-.75-.75s-.75.3358-.75.75v2.7407c-1.03414-.0342-1.39653-.1606-1.74629-.3477-.38852-.2078-.68894-.5082-.89672-.8967-.22074-.4127-.35699-.8431-.35699-2.3741v-5.74443c0-1.531.13625-1.96133.35699-2.37406.20778-.38852.5082-.68894.89672-.89672zm.99629 2.14301c-.41421 0-.75.33579-.75.75s.33579.75.75.75h8.5c.4142 0 .75-.33579.75-.75s-.3358-.75-.75-.75zm0 3.5c-.41421 0-.75.33579-.75.75 0 .4142.33579.75.75.75h8.5c.4142 0 .75-.3358.75-.75 0-.41421-.3358-.75-.75-.75z"/></g></svg>
