<svg fill="none" height="20" viewBox="0 0 20 20" width="20" xmlns="http://www.w3.org/2000/svg"><g clip-rule="evenodd" fill="currentColor" fill-rule="evenodd"><path d="m4.04631 2.53427c.74132-.39647 1.47118-.53427 3.08146-.53427h5.74443c1.6103 0 2.3402.1378 3.0815.53427.6499.34758 1.1645.86212 1.512 1.51204.3965.74132.5343 1.47118.5343 3.08146v5.74443c0 1.6103-.1378 2.3402-.5343 3.0815-.3475.6499-.8621 1.1645-1.512 1.512-.7413.3965-1.4712.5343-3.0815.5343h-5.74443c-1.61028 0-2.34014-.1378-3.08146-.5343-.64992-.3475-1.16446-.8621-1.51204-1.512-.39647-.7413-.53427-1.4712-.53427-3.0815v-5.74443c0-1.61028.1378-2.34014.53427-3.08146.34758-.64992.86212-1.16446 1.51204-1.51204zm3.08146.96573c-1.531 0-1.96133.13625-2.37406.35699-.38852.20778-.68894.5082-.89672.89672-.22074.41273-.35699.84306-.35699 2.37406v5.74443c0 1.531.13625 1.9614.35699 2.3741.20778.3885.5082.6889.89672.8967.41273.2207.84306.357 2.37406.357h5.74443c1.531 0 1.9614-.1363 2.3741-.357.3885-.2078.6889-.5082.8967-.8967.2207-.4127.357-.8431.357-2.3741v-5.74443c0-1.531-.1363-1.96133-.357-2.37406-.2078-.38852-.5082-.68894-.8967-.89672-.4127-.22074-.8431-.35699-2.3741-.35699z"/><path d="m7.5 13.3125c.41421 0 .75.3358.75.75v3.125c0 .4142-.33579.75-.75.75s-.75-.3358-.75-.75v-3.125c0-.4142.33579-.75.75-.75z"/><path d="m12.5 13.3125c.4142 0 .75.3358.75.75v3.125c0 .4142-.3358.75-.75.75s-.75-.3358-.75-.75v-3.125c0-.4142.3358-.75.75-.75z"/><path d="m5 6.875c0-.41421.33579-.75.75-.75h8.125c.4142 0 .75.33579.75.75s-.3358.75-.75.75h-8.125c-.41421 0-.75-.33579-.75-.75z"/><path d="m5 10c0-.41421.33579-.75.75-.75h8.125c.4142 0 .75.33579.75.75 0 .4142-.3358.75-.75.75h-8.125c-.41421 0-.75-.3358-.75-.75z"/></g></svg>
