<svg xmlns="http://www.w3.org/2000/svg" width="20" height="20" fill="currentColor" viewBox="0 0 20 20"><path d="M9.794 15.478c.522 0 .898-.364.898-.885 0-.17-.035-.342-.119-.587L7.651 5.533C7.4 4.813 6.997 4.5 6.335 4.5c-.654 0-1.057.327-1.3 1.04l-2.917 8.466c-.083.23-.118.439-.118.587 0 .543.355.885.905.885.466 0 .73-.246.897-.825l.661-2.037h3.751l.662 2.052c.16.572.431.81.918.81Zm-2.048-4.466H4.918l1.383-4.49h.048l1.397 4.49Zm9.412 4.488c.487 0 .842-.335.842-.93V9.638c0-1.583-1.19-2.616-3.02-2.616-1.413 0-2.486.58-2.862 1.494a1.229 1.229 0 0 0-.118.506c0 .445.306.743.73.743.293 0 .523-.12.704-.372.431-.676.801-.921 1.476-.921.856 0 1.378.475 1.378 1.3v.853l-1.955.12c-1.796.118-2.805.958-2.805 2.355 0 1.42 1.037 2.379 2.464 2.379.953 0 1.878-.528 2.303-1.383h.035v.55c.028.55.355.855.828.855Zm-2.638-1.42c-.751 0-1.26-.408-1.26-1.055 0-.624.481-1.026 1.316-1.085l1.712-.112v.602c0 .952-.793 1.65-1.768 1.65Z"/></svg>
