<svg xmlns="http://www.w3.org/2000/svg" width="20" height="20" fill="currentColor" viewBox="0 0 20 20"><path d="M9.992 16c.92 0 1.495-.614 1.495-1.589V10.78h.05l3.751 4.606c.313.395.684.614 1.242.614.828 0 1.47-.63 1.47-1.454 0-.362-.076-.723-.38-1.085L14.182 9.41l3.353-3.766c.237-.27.313-.538.313-.833 0-.765-.591-1.311-1.394-1.311-.422 0-.735.135-1.03.496l-3.878 4.59h-.06V5.089c0-.975-.574-1.589-1.494-1.589-.921 0-1.496.614-1.496 1.589v3.497h-.059l-3.86-4.59c-.288-.353-.609-.496-1.04-.496-.802 0-1.393.546-1.393 1.303 0 .303.076.605.312.874L5.793 9.46l-3.421 4.01c-.296.37-.372.723-.372 1.084C2 15.378 2.625 16 3.461 16c.55 0 .93-.219 1.242-.614l3.743-4.606h.05v3.631c0 .975.575 1.589 1.496 1.589Z"/></svg>
