<svg xmlns="http://www.w3.org/2000/svg" width="20" height="20" fill="currentColor" viewBox="0 0 20 20"><path d="M5.105 4.318a.75.75 0 1 0-.98-1.136l-.055.047A8.974 8.974 0 0 0 1 10a8.974 8.974 0 0 0 3.125 6.82.75.75 0 0 0 .98-1.136A7.474 7.474 0 0 1 2.5 10a7.474 7.474 0 0 1 2.559-5.643l.046-.04Zm10.77-1.136a.75.75 0 1 0-.98 1.136A7.474 7.474 0 0 1 17.5 10a7.474 7.474 0 0 1-2.605 5.682.75.75 0 1 0 .98 1.136A8.975 8.975 0 0 0 19 10a8.974 8.974 0 0 0-3.125-6.817ZM6.788 6.848a.75.75 0 1 0-1.07-1.05A5.983 5.983 0 0 0 4 10c0 1.636.656 3.12 1.717 4.202a.75.75 0 1 0 1.071-1.05A4.483 4.483 0 0 1 5.5 10c0-1.228.49-2.34 1.288-3.152Zm7.495-1.05a.75.75 0 0 0-1.071 1.05A4.483 4.483 0 0 1 14.5 10a4.48 4.48 0 0 1-1.288 3.152.75.75 0 0 0 1.07 1.05A5.983 5.983 0 0 0 16 10c0-1.636-.656-3.12-1.717-4.202ZM7.5 8.25a.75.75 0 0 1 .75-.75h3.5a.75.75 0 0 1 0 1.5h-1v3.25a.75.75 0 0 1-1.5 0V9h-1a.75.75 0 0 1-.75-.75Z"/></svg>
