<svg xmlns="http://www.w3.org/2000/svg" width="20" height="20" fill="currentColor" viewBox="0 0 20 20"><path fill-rule="evenodd" d="M18.006 12.713c0 2.662-1.85 4.287-5.024 4.287H8.99c-.52 0-.78 0-.978-.102a.929.929 0 0 1-.405-.406c-.101-.2-.101-.46-.101-.981V8.794c0-.23 0-.346.008-.46.008-.102.021-.204.04-.304.02-.113.049-.225.107-.448l1.134-4.348c.209-.957 1.295-1.547 2.29-1.058.528.258.913.91.913 1.558v3.267h1.004c3.457 0 5.004 1.439 5.004 4.706v1.006ZM2.03 9.288C2 9.442 2 9.628 2 10v6c0 .372 0 .558.03.712a1.6 1.6 0 0 0 1.258 1.257C3.442 18 3.628 18 4 18c.372 0 .558 0 .712-.03a1.6 1.6 0 0 0 1.257-1.258C6 16.558 6 16.372 6 16v-6c0-.372 0-.558-.03-.712A1.6 1.6 0 0 0 4.711 8.03C4.558 8 4.372 8 4 8c-.372 0-.558 0-.712.03A1.6 1.6 0 0 0 2.03 9.289Z" clip-rule="evenodd"/></svg>
