<svg xmlns="http://www.w3.org/2000/svg" width="20" height="20" fill="none" viewBox="0 0 20 20"><path fill="currentColor" fill-rule="evenodd" d="M2 10c0-4.4183 3.5817-8 8-8 .0939 0 .1876.0016.2808.0048a.75.75 0 0 1-.0518 1.4992A6.6196 6.6196 0 0 0 10 3.5c-3.5899 0-6.5 2.9101-6.5 6.5v5.25a.75.75 0 0 1-1.5 0V10Zm10.5227-6.8405a.75.75 0 0 1 1.004-.342C16.1749 4.12 18 6.8462 18 10v1.25a.75.75 0 0 1-1.5 0V10c0-2.5605-1.4804-4.7766-3.6353-5.8365a.75.75 0 0 1-.342-1.004ZM17.25 13.5a.75.75 0 0 1 .75.75v1.5a.75.75 0 0 1-1.5 0v-1.5a.75.75 0 0 1 .75-.75Z" clip-rule="evenodd"/><path fill="currentColor" fill-rule="evenodd" d="M5.004 10c0-2.7614 2.2385-5 4.9999-5 .3456 0 .6837.0352 1.0108.1024a.75.75 0 0 1-.3019 1.4693 3.5187 3.5187 0 0 0-.7089-.0717c-1.933 0-3.5 1.567-3.5 3.5v.25a.75.75 0 0 1-1.5 0V10Zm8.0474-3.0553a.75.75 0 0 1 1.0449.182A4.9803 4.9803 0 0 1 15.0039 10v5.25a.75.75 0 0 1-1.5 0V10a3.4806 3.4806 0 0 0-.6346-2.0104.75.75 0 0 1 .1821-1.045ZM5.7539 12.5a.75.75 0 0 1 .75.75v3a.75.75 0 0 1-1.5 0v-3a.75.75 0 0 1 .75-.75Z" clip-rule="evenodd"/><path fill="currentColor" fill-rule="evenodd" d="M7.9985 10c0-1.1046.8955-2 2-2 1.1046 0 2 .8954 2 2v1.25a.75.75 0 0 1-1.5 0V10a.5.5 0 1 0-1 0v6.25a.75.75 0 0 1-1.5 0V10Zm3.25 3.5a.75.75 0 0 1 .75.75v3a.75.75 0 0 1-1.5 0v-3a.75.75 0 0 1 .75-.75Z" clip-rule="evenodd"/></svg>
