<svg xmlns="http://www.w3.org/2000/svg" width="20" height="20" fill="currentColor" viewBox="0 0 20 20"><path fill-rule="evenodd" d="M9.25 1.25h-.068c-.322 0-.605 0-.874.066a2.25 2.25 0 0 0-1.053.597 3.056 3.056 0 0 0-.43.587H4.75A2.25 2.25 0 0 0 3.5 6.621v6.76c0 .744 0 1.347.04 1.836.041.505.129.955.341 1.372a3.5 3.5 0 0 0 1.53 1.53c.418.212.867.3 1.372.341.489.04 1.092.04 1.835.04h2.764c.743 0 1.346 0 1.835-.04.505-.041.954-.129 1.372-.341a3.5 3.5 0 0 0 1.53-1.53c.212-.417.3-.867.341-1.372.04-.489.04-1.092.04-1.835V6.62a2.25 2.25 0 0 0-1.25-4.12h-2.075a3.059 3.059 0 0 0-.43-.587 2.25 2.25 0 0 0-1.053-.597c-.27-.067-.552-.066-.874-.066H9.249Zm-.581 1.522c.068-.017.153-.022.58-.022h1.502c.427 0 .512.005.58.022a.75.75 0 0 1 .351.199c.05.05.098.12.318.486l.005.008a1 1 0 0 0 .944.535h2.301a.75.75 0 0 1 0 1.5H4.75a.75.75 0 1 1 0-1.5h2.302c.04 0 .17.002.297-.03a1 1 0 0 0 .647-.505L8 3.457c.22-.366.269-.437.318-.486a.75.75 0 0 1 .351-.199ZM6 7h9v6.35c0 .783 0 1.324-.035 1.745-.034.412-.096.642-.183.813a2 2 0 0 1-.874.874c-.17.087-.4.15-.813.183-.42.035-.963.035-1.745.035h-2.7c-.782 0-1.324 0-1.745-.035-.412-.034-.642-.096-.813-.183a2 2 0 0 1-.874-.874c-.087-.17-.15-.4-.183-.813-.034-.42-.035-.963-.035-1.745V7h1Zm2 2a1 1 0 1 0 0 2 1 1 0 0 0 0-2Zm0 3.5a.75.75 0 0 1 .75.75c0 .138.112.25.25.25h2.25a.75.75 0 0 1 0 1.5H9a1.75 1.75 0 0 1-1.75-1.75.75.75 0 0 1 .75-.75ZM12 9a1 1 0 1 0 0 2 1 1 0 0 0 0-2Z" clip-rule="evenodd"/></svg>
