<svg xmlns="http://www.w3.org/2000/svg" width="20" height="20" fill="none" viewBox="0 0 20 20"><path fill="currentColor" fill-rule="evenodd" d="M3.6153 6.4886c-.5606.131-1.1149.321-1.4898.738a2.4588 2.4588 0 0 0-.5822 2.128c.1105.55.4908.996.9066 1.3941.4258.4079 1.0264.8883 1.7718 1.4845l.1114.0891-.044.2317c-.2093 1.1033-.376 1.9815-.4448 2.6518-.0657.6399-.0722 1.2998.243 1.8169A2.4571 2.4571 0 0 0 6.08 18.1986c.6048.0258 1.179-.2991 1.707-.6662.553-.3845 1.2407-.9553 2.1047-1.6724L10 15.7701l.1083.0899c.864.7171 1.5517 1.2879 2.1048 1.6724.528.3671 1.1021.692 1.7069.6662a2.4572 2.4572 0 0 0 1.9927-1.1759c.1494-.2452.2241-.5167.2569-.7919l1.5501 1.5507a.7496.7496 0 0 0 1.0606 0 .7505.7505 0 0 0 0-1.0611l-14.5-14.5062a.7498.7498 0 0 0-1.0606 0 .7506.7506 0 0 0 0 1.061L6.037 6.0939c-.8085.114-1.6258.209-2.4217.3948Zm2.5342 1.1408c-.9933.1402-1.6862.2388-2.1852.3553-.5206.1215-.661.2291-.6971.2693a.922.922 0 0 0-.2183.798c.0106.053.0767.2172.4628.587.3702.3545.9163.7923 1.6999 1.419l.259.207c.045.0347.1864.144.2842.2962.0803.125.1324.266.1528.4132.0248.1792-.0115.3544-.023.4099l-.0794.4174c-.2184 1.1508-.372 1.9642-.4333 2.5611-.0652.6352.003.8214.0264.8599a.9214.9214 0 0 0 .7473.441c.0451.0019.2409-.0285.765-.3929.4926-.3424 1.1298-.8704 2.031-1.6183l.3067-.2546.1566-.1237c.0664-.0472.1722-.1139.3151-.1546.183-.0521.377-.0521.56 0 .143.0407.2487.1074.3151.1546l.1566.1237.3068.2546c.9011.7479 1.5383 1.2759 2.0309 1.6183.5241.3644.7199.3948.765.3929a.9215.9215 0 0 0 .7473-.441c.009-.0147.0564-.1101.0542-.4143-.0017-.23-.0305-.5253-.087-.9103-.0304-.2071-.1291-.3979-.2772-.546L7.3962 7.4536l-1.2467.1758Z M9.5872 3.134a.921.921 0 0 1 .8256 0c.0485.0243.189.1309.4431.5979.2439.448.5217 1.0866.9191 2.0028.1607.3705.3273.739.4822 1.112.0204.0493.0846.204.1962.3323a1.023 1.023 0 0 0 .3304.2517c.1534.0735.3195.0942.3724.1009.2318.029.4629.0652.6943.0978.9933.1402 1.6862.2388 2.1852.3553.5206.1215.661.2291.6971.2693a.9219.9219 0 0 1 .2183.798c-.0066.0329-.0431.1437-.2548.3755-.2088.2287-.525.5088-.9891.8899a.7683.7683 0 0 0-.1063 1.0811.7676.7676 0 0 0 1.0806.1064c.4672-.3837.8589-.724 1.1486-1.0412.2867-.314.5394-.6747.6266-1.109a2.4588 2.4588 0 0 0-.5822-2.128c-.3749-.4171-.9292-.6072-1.4898-.738-.574-.134-1.3355-.2416-2.2805-.375l-.5229-.0737-.4134-.9532c-.3779-.8714-.6826-1.5738-.9633-2.0896-.2743-.504-.6038-.986-1.1038-1.2367a2.456 2.456 0 0 0-2.2016 0c-.4619.2316-.7742.6577-1.03 1.1045a.7683.7683 0 0 0 .2846 1.0483.7676.7676 0 0 0 1.0479-.2847c.2204-.385.3447-.4742.3855-.4946Z"/></svg>
