<?xml version="1.0" encoding="UTF-8"?>
<svg width="20px" height="20px" viewBox="0 0 20 20" version="1.1" xmlns="http://www.w3.org/2000/svg" xmlns:xlink="http://www.w3.org/1999/xlink">
    <!-- Generator: Sketch 63.1 (92452) - https://sketch.com -->
    <title>user_outline_20</title>
    <desc>Created with Sketch.</desc>
    <g id="Icons" stroke="none" stroke-width="1" fill="none" fill-rule="evenodd">
        <g id="Icons-20/user_outline_20">
            <g id="user_outline_20">
                <polygon opacity="0.100000001" points="0 0 20 0 20 20 0 20"></polygon>
                <path d="M12.5,5 C12.5,3.61858856 11.3814114,2.5 10,2.5 C8.61858856,2.5 7.5,3.61858856 7.5,5 C7.5,6.38141144 8.61858856,7.5 10,7.5 C11.3814114,7.5 12.5,6.38141144 12.5,5 Z M14,5 C14,7.20983856 12.2098386,9 10,9 C7.79016144,9 6,7.20983856 6,5 C6,2.79016144 7.79016144,1 10,1 C12.2098386,1 14,2.79016144 14,5 Z M4,15.5 C4,16.2152041 4.35765068,16.5 5,16.5 L15,16.5 C15.6423493,16.5 16,16.2152041 16,15.5 C16,13.1666405 13.4333908,12 10,12 C6.56660919,12 4,13.1666405 4,15.5 Z M2.5,15.5 C2.5,12.0151776 5.83339081,10.5 10,10.5 C14.1666092,10.5 17.5,12.0151776 17.5,15.5 C17.5,17.1283144 16.4053251,18 15,18 L5,18 C3.5946749,18 2.5,17.1283144 2.5,15.5 Z" id="↳-Icon-Color" fill="currentColor" fill-rule="nonzero"></path>
            </g>
        </g>
    </g>
</svg>
