<svg fill="none" height="20" viewBox="0 0 20 20" width="20" xmlns="http://www.w3.org/2000/svg"><g fill="currentColor"><g clip-rule="evenodd" fill-rule="evenodd"><path d="m6.25 3.5c-1.65685 0-3 1.34315-3 3s1.34315 3 3 3 3-1.34315 3-3-1.34315-3-3-3zm-1.5 3c0 .82843.67157 1.5 1.5 1.5s1.5-.67157 1.5-1.5-.67157-1.5-1.5-1.5-1.5.67157-1.5 1.5z"/><path d="m2.68771 11.5691c.96015-.5539 2.22601-.8191 3.56229-.8191s2.60214.2652 3.56229.8191c.97691.5636 1.68771 1.4679 1.68771 2.6809 0 .7072-.2755 1.3059-.7815 1.7107-.4834.3867-1.10411.5393-1.7185.5393h-5.5c-.61439 0-1.23511-.1526-1.71852-.5393-.50594-.4048-.78148-1.0035-.78148-1.7107 0-1.213.71083-2.1173 1.68771-2.6809zm.74958 1.2993c-.64812.3739-.93729.8446-.93729 1.3816 0 .2928.09946.4441.21852.5393.14159.1133.39587.2107.78148.2107h5.5c.38561 0 .63989-.0974.78148-.2107.11906-.0952.21852-.2465.21852-.5393 0-.537-.28917-1.0077-.93729-1.3816-.66485-.3836-1.64899-.6184-2.81271-.6184s-2.14786.2348-2.81271.6184z"/><path d="m13.75 3.5c-1.6569 0-3 1.34315-3 3s1.3431 3 3 3 3-1.34315 3-3-1.3431-3-3-3zm-1.5 3c0 .82843.6716 1.5 1.5 1.5s1.5-.67157 1.5-1.5-.6716-1.5-1.5-1.5-1.5.67157-1.5 1.5z"/></g><path d="m13.75 12.25c-.227 0-.4535.0111-.6768.033-.4122.0405-.7792-.2609-.8196-.6732-.0405-.4122.2609-.7792.6732-.8196.272-.0267.5474-.0402.8232-.0402 1.3363 0 2.6021.2652 3.5623.8191.9769.5636 1.6877 1.4679 1.6877 2.6809 0 .7072-.2755 1.3059-.7815 1.7107-.4834.3867-1.1041.5393-1.7185.5393h-3c-.4142 0-.75-.3358-.75-.75s.3358-.75.75-.75h3c.3856 0 .6399-.0974.7815-.2107.119-.0952.2185-.2465.2185-.5393 0-.537-.2892-1.0077-.9373-1.3816-.6648-.3836-1.649-.6184-2.8127-.6184z"/></g></svg>
