<svg xmlns="http://www.w3.org/2000/svg" width="20" height="20" fill="currentColor" viewBox="0 0 20 20"><path d="M12.5 7.5a1.5 1.5 0 1 0-3 0 1.5 1.5 0 0 0 3 0ZM8 11.25v.373c0 .208.169.377.377.377h5.246a.377.377 0 0 0 .377-.377v-.373c0-1.313-1.999-1.688-3-1.688s-3 .376-3 1.688Z"/><path fill-rule="evenodd" d="M7.324 3h7.352c.258 0 .494 0 .692.016.213.018.446.057.676.175.33.168.598.435.765.765.118.23.157.463.175.676.016.198.016.434.016.692v7.352c0 .258 0 .494-.016.692a1.775 1.775 0 0 1-.175.676 1.75 1.75 0 0 1-.765.765c-.23.118-.463.158-.676.175-.198.016-.434.016-.692.016H7.324c-.258 0-.494 0-.692-.016a1.775 1.775 0 0 1-.676-.175 1.75 1.75 0 0 1-.765-.764 1.774 1.774 0 0 1-.175-.677C5 13.17 5 12.934 5 12.676V5.324c0-.258 0-.494.016-.692a1.77 1.77 0 0 1 .175-.676 1.75 1.75 0 0 1 .765-.765 1.77 1.77 0 0 1 .676-.175C6.83 3 7.066 3 7.324 3ZM6.63 4.53h.001Zm.002-.001a.626.626 0 0 1 .121-.018c.13-.01.304-.011.596-.011h7.3c.292 0 .467 0 .596.011a.625.625 0 0 1 .12.018.25.25 0 0 1 .105.104.638.638 0 0 1 .018.121c.01.13.011.304.011.596v7.3c0 .292 0 .467-.011.596a.636.636 0 0 1-.018.12.25.25 0 0 1-.104.105.636.636 0 0 1-.121.018c-.13.01-.304.011-.596.011h-7.3c-.292 0-.467 0-.596-.011a.638.638 0 0 1-.12-.018.25.25 0 0 1-.105-.104.626.626 0 0 1-.018-.121 8.337 8.337 0 0 1-.011-.596v-7.3c0-.292 0-.467.011-.596a.628.628 0 0 1 .018-.12.25.25 0 0 1 .104-.105Zm-.103.102v.001Zm0 8.738v-.001Zm.1.101h.002Zm8.74 0h-.002Zm.1-.1v-.002Zm0-8.74v.002Zm-.102-.1h.001Z M3.5 6.25v5.4c0 .992 0 1.692.045 2.238.044.537.127.86.255 1.11A2.75 2.75 0 0 0 5.002 16.2c.25.128.573.21 1.11.255.546.044 1.246.045 2.238.045h5.4a1.5 1.5 0 0 1-1.5 1.5H8.317c-.952 0-1.713 0-2.327-.05-.63-.052-1.172-.16-1.67-.413a4.25 4.25 0 0 1-1.857-1.857c-.253-.498-.361-1.04-.413-1.67C2 13.396 2 12.635 2 11.683V7.75a1.5 1.5 0 0 1 1.5-1.5Z" clip-rule="evenodd"/></svg>
