<svg xmlns="http://www.w3.org/2000/svg" width="20" height="20" viewBox="0 0 20 20"><path fill="url(#a)" d="M0 10C0 4.477 4.477 0 10 0s10 4.477 10 10-4.477 10-10 10S0 15.523 0 10Z"/><path fill="#fff" d="M10 10.338c1.73 0 3.75.687 3.75 2.67 0 .868-.22.992-.662.992H6.912c-.441 0-.662-.124-.662-.992 0-1.983 2.092-2.67 3.75-2.67ZM10 6c.956 0 1.73.777 1.73 1.735 0 .96-.774 1.736-1.73 1.736s-1.73-.777-1.73-1.736C8.27 6.777 9.043 6 10 6Zm5.226 7.246h1.789c.323 0 .485-.093.485-.744 0-1.487-1.48-2.002-2.75-2.002a4.19 4.19 0 0 0-.415.02c.54.63.895 1.459.895 2.488 0 .073 0 .153-.004.238Zm.794-4.944c0-.72-.569-1.302-1.27-1.302-.701 0-1.27.582-1.27 1.302 0 .719.569 1.301 1.27 1.301.701 0 1.27-.582 1.27-1.301ZM4.754 13.246a6.078 6.078 0 0 1-.004-.238c0-1.037.366-1.863.912-2.49a4.66 4.66 0 0 0-.412-.018c-1.216 0-2.75.515-2.75 2.002 0 .651.162.744.485.744h1.77ZM6.52 8.302C6.52 7.582 5.95 7 5.25 7c-.701 0-1.27.582-1.27 1.302 0 .719.569 1.301 1.27 1.301.701 0 1.27-.582 1.27-1.301Z"/><defs><linearGradient id="a" x1="-10" x2="10" y1="10" y2="30" gradientUnits="userSpaceOnUse"><stop stop-color="#70B2FF"/><stop offset="1" stop-color="#5C9CE6"/></linearGradient></defs></svg>
