<svg xmlns="http://www.w3.org/2000/svg" width="20" height="20" fill="none" viewBox="0 0 20 20"><path fill="currentColor" d="M16.5828 9.2933c.391-.391 1.025-.391 1.416 0l.7079.708c.3911.391.3911 1.025 0 1.416l-.7079.7081-2.1239-2.1241.7079-.708Zm-1.6886 1.6881 2.1239 2.124-4.3377 4.338a4.0045 4.0045 0 0 1-1.5655.9676l-1.719.5731c-.2348.0782-.4582-.1452-.38-.38l.573-1.7192a4.0049 4.0049 0 0 1 .9675-1.5655l4.3378-4.338Z"/><path fill="currentColor" fill-rule="evenodd" d="M10 2.5C8.6364 2.5 7.557 3.6018 7.557 5S8.6365 7.5 10 7.5c1.3977 0 2.557-1.1361 2.557-2.5S11.3977 2.5 10 2.5ZM6.057 5c0-2.1917 1.7166-4 3.943-4 2.192 0 4.057 1.774 4.057 4S12.192 9 10 9C7.7735 9 6.057 7.1917 6.057 5Zm-.2742 7.8335c-1.0404.5393-1.6303 1.2822-1.7603 2.1932-.0496.3477-.0232.7578.1206 1.0445.0656.1308.1506.2273.2619.295.1118.0681.294.1338.595.1338h2A.75.75 0 0 1 7 18H5c-.5276 0-.9899-.1181-1.375-.3526-.3857-.2348-.6502-.5596-.8228-.9038-.3325-.6632-.3376-1.4177-.2646-1.9289.2162-1.5146 1.209-2.6152 2.5548-3.3129 1.0294-.5337 2.2921-.8504 3.6691-.9668a14.7349 14.7349 0 0 1 1.2437-.0513l1.2492.0463c.4683 0 .7917.3617.75.8064-.0416.4447-.3361.7335-.75.7036l-1.2492-.0563c-.4307 0-.8462.0194-1.2437.0573-1.1743.1117-2.1915.3844-2.9787.7925Z" clip-rule="evenodd"/></svg>
