<svg fill="none" height="20" viewBox="0 0 20 20" width="20" xmlns="http://www.w3.org/2000/svg" xmlns:xlink="http://www.w3.org/1999/xlink"><linearGradient id="a" gradientUnits="userSpaceOnUse" x1="-10" x2="10" y1="10" y2="30"><stop offset="0" stop-color="#70b2ff"/><stop offset="1" stop-color="#5c9ce6"/></linearGradient><path d="m0 10c0-5.52285 4.47715-10 10-10 5.5228 0 10 4.47715 10 10 0 5.5228-4.4772 10-10 10-5.52285 0-10-4.4772-10-10z" fill="url(#a)"/><path d="m10 11c2.5 0 4.5 1 4.5 2.75v.2885c0 .3344-.0348.4556-.1002.5778-.0653.1222-.1613.2182-.2835.2835-.1222.0654-.2434.1002-.5778.1002h-7.07704c-.33432 0-.45556-.0348-.57778-.1002-.12222-.0653-.21814-.1613-.28351-.2835-.06536-.1222-.10017-.2434-.10017-.5778v-.2885c0-1.75 2-2.75 4.5-2.75zm0-6.5c1.3807 0 2.5 1.11929 2.5 2.5s-1.1193 2.5-2.5 2.5c-1.38071 0-2.5-1.11929-2.5-2.5s1.11929-2.5 2.5-2.5z" fill="#fff"/></svg>
