<svg width="20" height="20" fill="none" xmlns="http://www.w3.org/2000/svg"><path fill-rule="evenodd" clip-rule="evenodd" d="M4.897 3.822a3 3 0 014.031 4.031.75.75 0 01-1.338-.677A1.5 1.5 0 005.575 5.16a.75.75 0 11-.678-1.34zM10.75 6.5a3 3 0 116 0 3 3 0 01-6 0zm3-1.5a1.5 1.5 0 100 3 1.5 1.5 0 000-3zM13.75 12.25c-.45 0-.876.035-1.27.102a.75.75 0 01-.25-1.48 9.13 9.13 0 011.52-.122c1.336 0 2.602.265 3.562.82.977.563 1.688 1.467 1.688 2.68 0 .707-.276 1.306-.782 1.71-.483.387-1.104.54-1.718.54h-.152a.75.75 0 110-1.5h.152c.386 0 .64-.097.782-.21.119-.096.218-.247.218-.54 0-.537-.29-1.008-.937-1.382-.665-.383-1.65-.618-2.813-.618zM9 16.5c.614 0 1.235-.153 1.719-.54.127-.102.24-.216.338-.342l3.163 3.162a.75.75 0 101.06-1.06L1.78 4.22A.75.75 0 00.72 5.28l5.47 5.47c-1.314.008-2.557.274-3.502.82C1.71 12.132 1 13.036 1 14.25c0 .707.276 1.306.781 1.71.484.387 1.105.54 1.719.54H9zm-5.563-3.632c-.648.374-.937.845-.937 1.382 0 .293.1.444.219.54.141.113.395.21.781.21H9c.386 0 .64-.097.781-.21a.535.535 0 00.182-.267L7.858 12.42a7.308 7.308 0 00-1.608-.169c-1.164 0-2.148.235-2.813.618z" fill="currentColor"/></svg>
