<svg xmlns="http://www.w3.org/2000/svg" width="20" height="20" fill="currentColor" viewBox="0 0 20 20"><path d="M10 10.5c1.941 0 5.5.714 5.5 3.571 0 1.25-.323 1.429-.97 1.429H5.47c-.646 0-.97-.179-.97-1.429 0-2.857 3.559-3.571 5.5-3.571ZM10 4a2.5 2.5 0 1 1 .001 4.999A2.5 2.5 0 0 1 10 4Zm-5.762 7.005A6.55 6.55 0 0 0 4 11c-1.412 0-4 .5-4 2.5 0 .875.235 1 .706 1H3.01a7.22 7.22 0 0 1-.01-.429c0-1.325.516-2.329 1.238-3.066ZM16.989 14.5h2.305c.47 0 .706-.125.706-1 0-2-2.588-2.5-4-2.5-.076 0-.156.002-.238.005.722.737 1.238 1.74 1.238 3.066 0 .135-.003.28-.011.429ZM6 8a2 2 0 1 1-4 0 2 2 0 0 1 4 0Zm10 2a2 2 0 1 0 0-4 2 2 0 0 0 0 4Z"/></svg>
