<svg fill="none" height="20" viewBox="0 0 20 20" width="20" xmlns="http://www.w3.org/2000/svg"><path clip-rule="evenodd" d="m5.83516 15.6268c1.16385.8628 2.60474 1.3732 4.16484 1.3732s3.001-.5104 4.1648-1.3732c-1.222-.7162-2.6445-1.1268-4.1648-1.1268-1.52026 0-2.94281.4106-4.16484 1.1268zm-1.13951-1.0589c-1.05673-1.226-1.69565-2.8223-1.69565-4.5679 0-3.86599 3.13401-7 7-7 3.866 0 7 3.13401 7 7 0 1.7456-.6389 3.3419-1.6957 4.5679-1.5269-.9918-3.3494-1.5679-5.3043-1.5679-1.95487 0-3.77736.5761-5.30435 1.5679zm5.30435-13.0679c-4.69442 0-8.5 3.80558-8.5 8.5 0 4.6944 3.80558 8.5 8.5 8.5 4.6944 0 8.5-3.8056 8.5-8.5 0-4.69442-3.8056-8.5-8.5-8.5zm-1.5 7c0 .82843.67157 1.5 1.5 1.5.8284 0 1.5-.67157 1.5-1.5s-.6716-1.5-1.5-1.5c-.82843 0-1.5.67157-1.5 1.5zm1.5-3c-1.65685 0-3 1.34315-3 3 0 1.6569 1.34315 3 3 3 1.6569 0 3-1.3431 3-3 0-1.65685-1.3431-3-3-3z" fill="currentColor" fill-rule="evenodd"/></svg>
