<svg xmlns="http://www.w3.org/2000/svg" width="20" height="20" fill="none" viewBox="0 0 20 20"><path fill="url(#a)" d="M0 10C0 4.4771 4.4771 0 10 0c5.5228 0 10 4.4771 10 10 0 5.5228-4.4772 10-10 10-5.5229 0-10-4.4772-10-10Z"/><path fill="#fff" fill-rule="evenodd" d="M11.1818 12.5827c0-2.0313-2.4853-2.5391-3.8409-2.5391S3.5 10.5514 3.5 12.5827c0 .8888.226 1.0157.6778 1.0157h6.3262c.4519 0 .6778-.1269.6778-1.0157ZM9.1136 7.3774c0-.982-.7933-1.7774-1.7727-1.7774-.9794 0-1.7727.7954-1.7727 1.7774 0 .982.7933 1.7774 1.7727 1.7774.9794 0 1.7727-.7953 1.7727-1.7774Zm6.7086 6.221-3.2577.0015c.1063-.3781.1173-.7475.1173-1.0172 0-1.0666-.4111-1.8745-.9768-2.4657a6.539 6.539 0 0 1 .9541-.0734c1.3556 0 3.8409.5078 3.8409 2.5391 0 .8888-.2259 1.0157-.6778 1.0157ZM12.6591 5.6c.9794 0 1.7727.7954 1.7727 1.7774 0 .982-.7933 1.7774-1.7727 1.7774-.9795 0-1.7727-.7953-1.7727-1.7774 0-.982.7932-1.7774 1.7727-1.7774Z" clip-rule="evenodd"/><defs><linearGradient id="a" x1="-10" x2="10" y1="10" y2="30" gradientUnits="userSpaceOnUse"><stop stop-color="#70B2FF"/><stop offset="1" stop-color="#5C9CE6"/></linearGradient></defs></svg>
