<svg fill="none" height="20" viewBox="0 0 20 20" width="20" xmlns="http://www.w3.org/2000/svg" xmlns:xlink="http://www.w3.org/1999/xlink"><linearGradient id="a" gradientUnits="userSpaceOnUse" x1="-10" x2="10" y1="10" y2="30"><stop offset="0" stop-color="#ff5263"/><stop offset="1" stop-color="#ff3347"/></linearGradient><path d="m0 10c0-5.52285 4.47715-10 10-10 5.5228 0 10 4.47715 10 10 0 5.5228-4.4772 10-10 10-5.52285 0-10-4.4772-10-10z" fill="url(#a)"/><path d="m13 12.0771c0 .6686-.0696.9111-.2003 1.1555-.1308.2445-.3226.4363-.5671.5671-.2444.1307-.4869.2003-1.1555.2003h-4.15419c-.66864 0-.9111-.0696-1.15554-.2003-.24445-.1308-.43629-.3226-.56702-.5671-.13073-.2444-.20035-.4869-.20035-1.1555v-4.15419c0-.66864.06962-.9111.20035-1.15554.13073-.24445.32257-.43629.56702-.56702.24444-.13073.4869-.20035 1.15554-.20035h4.15419c.6686 0 .9111.06962 1.1555.20035.2445.13073.4363.32257.5671.56702.1307.24444.2003.4869.2003 1.15554v.57709l2.204-1.10202c.2717-.13584.6021-.02572.7379.24597.0382.07637.0581.16058.0581.24597v4.22018c0 .3037-.2462.55-.55.55-.0854 0-.1696-.0199-.246-.0581l-2.204-1.102z" fill="#fff"/></svg>
