<svg width="20" height="20" viewBox="0 0 20 20" fill="none" xmlns="http://www.w3.org/2000/svg">
<path fill-rule="evenodd" clip-rule="evenodd" d="M13.9605 13.705C13.9247 14.0903 13.8568 14.3812 13.7275 14.635C13.4878 15.1054 13.1054 15.4878 12.635 15.7275C12.1002 16 11.4001 16 10 16H5C3.59987 16 2.8998 16 2.36502 15.7275C1.89462 15.4878 1.51217 15.1054 1.27248 14.635C1 14.1002 1 13.4001 1 12V8C1 6.59987 1 5.8998 1.27248 5.36502C1.51217 4.89462 1.89462 4.51217 2.36502 4.27248C2.8998 4 3.59987 4 5 4H10C11.4001 4 12.1002 4 12.635 4.27248C13.1054 4.51217 13.4878 4.89462 13.7275 5.36502C13.8568 5.61875 13.9247 5.90969 13.9604 6.29495L15.2597 5.55255C16.9263 4.60018 19 5.8036 19 7.72316V12.2768C19 14.1964 16.9263 15.3998 15.2597 14.4474L13.9605 13.705ZM5 5.5H10C10.7248 5.5 11.1782 5.50117 11.5198 5.52908C11.844 5.55556 11.9333 5.59845 11.954 5.60899C12.1422 5.70487 12.2951 5.85785 12.391 6.04601C12.4015 6.0667 12.4444 6.15603 12.4709 6.48015C12.4988 6.82178 12.5 7.27518 12.5 8V12C12.5 12.7248 12.4988 13.1782 12.4709 13.5198C12.4444 13.844 12.4015 13.9333 12.391 13.954C12.2951 14.1422 12.1422 14.2951 11.954 14.391C11.9333 14.4015 11.844 14.4444 11.5198 14.4709C11.1782 14.4988 10.7248 14.5 10 14.5H5C4.27518 14.5 3.82178 14.4988 3.48015 14.4709C3.15603 14.4444 3.0667 14.4015 3.04601 14.391C2.85785 14.2951 2.70487 14.1422 2.60899 13.954C2.59845 13.9333 2.55556 13.844 2.52908 13.5198C2.50117 13.1782 2.5 12.7248 2.5 12V8C2.5 7.27518 2.50117 6.82178 2.52908 6.48015C2.55556 6.15603 2.59845 6.0667 2.60899 6.04601C2.70487 5.85785 2.85785 5.70487 3.04601 5.60899C3.0667 5.59845 3.15603 5.55556 3.48015 5.52908C3.82178 5.50117 4.27518 5.5 5 5.5ZM14 12L16.0039 13.145C16.6705 13.526 17.5 13.0446 17.5 12.2768V7.72316C17.5 6.95533 16.6705 6.47397 16.0039 6.85491L14 7.99998M14 7.99998V12V7.99998Z" fill="currentColor"/>
</svg>
