<svg fill="none" height="20" viewBox="0 0 20 20" width="20" xmlns="http://www.w3.org/2000/svg"><path clip-rule="evenodd" d="m10 17c-3.86599 0-7-3.134-7-7 0-3.86599 3.13401-7 7-7 3.866 0 7 3.13401 7 7 0 3.866-3.134 7-7 7zm-8.5-7c0-4.69442 3.80558-8.5 8.5-8.5 4.6944 0 8.5 3.80558 8.5 8.5 0 4.6944-3.8056 8.5-8.5 8.5-4.69442 0-8.5-3.8056-8.5-8.5zm8.65 3.3775 2.7-1.5588c1.4-.8083 1.4-2.82906 0-3.63735l-2.7-1.55885c-1.4-.80829-3.15.20207-3.15 1.81865v3.11765c0 1.6166 1.75 2.627 3.15 1.8187zm1.95-3.89711c.4.23093.4.80831 0 1.03921l-2.7 1.5589c-.4.2309-.9-.0578-.9-.5197v-3.11765c0-.46188.5-.75055.9-.51961z" fill="currentColor" fill-rule="evenodd"/></svg>
