<svg xmlns="http://www.w3.org/2000/svg" width="20" height="20" fill="currentColor" viewBox="0 0 20 20"><path fill-rule="evenodd" d="M7.817 3c-.952 0-1.713 0-2.327.05-.63.052-1.172.16-1.67.413a4.25 4.25 0 0 0-1.857 1.858c-.253.497-.361 1.04-.413 1.67-.05.613-.05 1.374-.05 2.326v1.366c0 .952 0 1.713.05 2.327.052.63.16 1.172.413 1.67a4.25 4.25 0 0 0 1.858 1.857c.497.253 1.04.361 1.67.413.613.05 1.374.05 2.326.05h1.366c.952 0 1.713 0 2.327-.05.63-.052 1.172-.16 1.67-.413a4.251 4.251 0 0 0 1.857-1.857c.155-.304.255-.625.322-.971l1.532 1.02c1.329.887 3.109-.066 3.109-1.663V6.934c0-1.597-1.78-2.55-3.11-1.664l-1.53 1.021a3.605 3.605 0 0 0-.322-.97 4.25 4.25 0 0 0-1.857-1.858c-.498-.253-1.04-.361-1.67-.413C10.896 3 10.135 3 9.183 3H7.817ZM15.5 9.26V12l2.223 1.482a.5.5 0 0 0 .777-.416V6.934a.5.5 0 0 0-.777-.416L15.5 8v1.26Zm-1.5.09c0-.992 0-1.692-.045-2.238-.044-.537-.127-.86-.255-1.11A2.75 2.75 0 0 0 12.5 4.8c-.252-.128-.574-.21-1.111-.255-.546-.044-1.245-.045-2.238-.045h-1.3c-.992 0-1.692 0-2.238.045-.537.044-.86.127-1.11.255A2.75 2.75 0 0 0 3.3 6.002c-.128.25-.21.573-.255 1.11C3.001 7.658 3 8.358 3 9.35v1.3c0 .992 0 1.692.045 2.238.044.537.127.86.255 1.11A2.75 2.75 0 0 0 4.502 15.2c.25.128.573.21 1.11.255.546.044 1.246.045 2.238.045h1.3c.992 0 1.692 0 2.238-.045.537-.044.86-.127 1.11-.255A2.751 2.751 0 0 0 13.7 14c.128-.252.21-.574.255-1.111.044-.546.045-1.245.045-2.238v-1.3Z" clip-rule="evenodd"/></svg>
