<svg xmlns="http://www.w3.org/2000/svg" width="20" height="20" fill="none" viewBox="0 0 20 20"><path fill="currentColor" fill-rule="evenodd" d="M6.8174 3c-.9525 0-1.713 0-2.3273.0502-.63.0514-1.1719.1594-1.6696.413A4.25 4.25 0 0 0 .9632 5.3205c-.2536.4977-.3615 1.0396-.413 1.6696C.5 7.6044.5 8.365.5 9.3174v1.3652c0 .9525 0 1.713.0502 2.3273.0515.63.1594 1.1719.413 1.6696a4.2506 4.2506 0 0 0 1.8573 1.8573c.4977.2536 1.0396.3616 1.6696.413C5.1044 17 5.865 17 6.8174 17h2.3652c.9525 0 1.713 0 2.3273-.0502.63-.0514 1.1719-.1594 1.6696-.413a4.2512 4.2512 0 0 0 1.8573-1.8573c.1548-.3039.2553-.6242.3219-.9709l1.5319 1.0212C18.2197 15.6159 20 14.6631 20 13.0657V6.9343c0-1.5974-1.7803-2.5502-3.1094-1.6641l-1.5319 1.0212c-.0666-.3467-.1671-.667-.3219-.9709a4.2506 4.2506 0 0 0-1.8573-1.8573c-.4977-.2536-1.0396-.3616-1.6696-.413C10.8956 3 10.1351 3 9.1826 3H6.8174ZM15.5 9.2607V12l2.2227 1.4818c.3322.2215.7773-.0167.7773-.4161V6.9343c0-.3994-.4451-.6376-.7773-.416L15.5 8v1.2607ZM14 9.35c0-.9925-.0006-1.6917-.0452-2.2377-.0439-.5373-.1266-.8598-.2545-1.1108a2.7505 2.7505 0 0 0-1.2018-1.2018c-.251-.1279-.5735-.2106-1.1108-.2545C10.8417 4.5006 10.1425 4.5 9.15 4.5h-2.3c-.9925 0-1.6917.0006-2.2377.0452-.5373.0439-.8598.1266-1.1108.2545a2.75 2.75 0 0 0-1.2018 1.2018c-.1279.251-.2106.5735-.2545 1.1108C2.0006 7.6583 2 8.3575 2 9.35v1.3c0 .9925.0006 1.6917.0452 2.2377.0439.5373.1266.8598.2545 1.1108a2.7505 2.7505 0 0 0 1.2018 1.2018c.251.1279.5735.2106 1.1108.2545.546.0446 1.2452.0452 2.2377.0452h2.3c.9925 0 1.6917-.0006 2.2377-.0452.5373-.0439.8598-.1266 1.1108-.2545a2.751 2.751 0 0 0 1.2018-1.2018c.1279-.251.2106-.5735.2545-1.1108.0446-.546.0452-1.2452.0452-2.2377v-1.3Z" clip-rule="evenodd"/></svg>
