<svg fill="none" height="20" viewBox="0 0 20 20" width="20" xmlns="http://www.w3.org/2000/svg" xmlns:xlink="http://www.w3.org/1999/xlink"><linearGradient id="a" gradientUnits="userSpaceOnUse" x1="-10" x2="10" y1="10" y2="30"><stop offset="0" stop-color="#ff5263"/><stop offset="1" stop-color="#ff3347"/></linearGradient><path d="m0 10c0-5.52285 4.47715-10 10-10 5.5228 0 10 4.47715 10 10 0 5.5228-4.4772 10-10 10-5.52285 0-10-4.4772-10-10z" fill="url(#a)"/><path d="m10 6c-2.75 0-5 1.65-6 4 1 2.35 3.25 4 6 4s5-1.65 6-4c-1-2.35-3.25-4-6-4zm0 6.75c-1.518 0-2.75-1.232-2.75-2.75s1.232-2.75 2.75-2.75 2.75 1.232 2.75 2.75-1.232 2.75-2.75 2.75zm0-4.25c-.83 0-1.5.67-1.5 1.5s.67 1.5 1.5 1.5 1.5-.67 1.5-1.5-.67-1.5-1.5-1.5z" fill="#fff"/></svg>
