<svg xmlns="http://www.w3.org/2000/svg" width="20" height="20" fill="none" viewBox="0 0 20 20"><path fill="currentColor" fill-rule="evenodd" d="M15.6916 12.4799a.75.75 0 0 1 .1623 1.0481c-1.179 1.6108-3.0092 2.7183-5.1039 2.9337V18.25a.75.75 0 0 1-1.5 0v-1.7887c-2.0902-.2171-3.921-1.3299-5.1004-2.9315a.75.75 0 0 1 1.2078-.8895C6.4085 14.0675 8.1026 15 10 15c1.9063 0 3.5961-.9269 4.6434-2.3579a.75.75 0 0 1 1.0482-.1622Z M5.75 5.75C5.75 3.4028 7.6528 1.5 10 1.5s4.25 1.9028 4.25 4.25v3.5c0 2.3472-1.9028 4.25-4.25 4.25s-4.25-1.9028-4.25-4.25v-3.5ZM10 3C8.4812 3 7.25 4.2312 7.25 5.75v3.5C7.25 10.7688 8.4812 12 10 12s2.75-1.2312 2.75-2.75v-3.5C12.75 4.2312 11.5188 3 10 3Z" clip-rule="evenodd"/></svg>
