<svg fill="none" height="20" viewBox="0 0 20 20" width="20" xmlns="http://www.w3.org/2000/svg"><path d="m11.5417 3.33337c.7517 0 1.4583.5784 1.4583 1.40741v10.51852c0 .829-.7066 1.4074-1.4583 1.4074-.6352 0-1.2545-.2337-1.71945-.6652l-3.53332-3.2792h-1.50595c-.93103 0-1.78298-.7133-1.78298-1.7088v-2.02696c0-.99542.85195-1.70872 1.78298-1.70872h1.50595l3.53332-3.27931c.46495-.43149 1.08425-.66514 1.71945-.66514zm-.0417 1.5008c-.2558.0097-.4899.10839-.6573.26379l-3.74917 3.47958c-.13871.12875-.32095.20025-.5102.20025h-1.80035c-.11622 0-.28298.07092-.28298.20875v2.02696c0 .1379.16676.2088.28298.2088h1.80035c.18925 0 .37149.0715.5102.2002l3.74917 3.4796c.1674.1554.4015.2541.6573.2639zm6.115.38685c1.2661 1.2724 2.0517 2.93876 2.0517 4.77898 0 1.8403-.7856 3.5066-2.0517 4.779-.2922.2937-.7671.2949-1.0607.0027s-.2948-.7671-.0026-1.0607c1.0225-1.0276 1.615-2.3257 1.615-3.721 0-1.39521-.5925-2.69328-1.615-3.72094-.2922-.29362-.291-.76849.0026-1.06066s.7685-.29099 1.0607.00262zm-2.126 2.54429c.5217.61598.8443 1.38715.8443 2.23469 0 .8476-.3226 1.6188-.8443 2.2348-.2678.3161-.741.3552-1.0571.0876-.3161-.2678-.3552-.741-.0876-1.0571.3188-.3763.489-.8117.489-1.2653 0-.45354-.1702-.88888-.489-1.26521-.2676-.31608-.2285-.78934.0876-1.05706.3161-.26771.7893-.2285 1.0571.08758z" fill="currentColor"/></svg>
