<svg fill="none" height="20" viewBox="0 0 20 20" width="20" xmlns="http://www.w3.org/2000/svg" xmlns:xlink="http://www.w3.org/1999/xlink"><linearGradient id="a" gradientUnits="userSpaceOnUse" x1="30" x2="10" y1="10" y2="-10"><stop offset="0" stop-color="#65c2c2"/><stop offset="1" stop-color="#86d1d1"/></linearGradient><path d="m0 10c0-5.52285 4.47715-10 10-10 5.5228 0 10 4.47715 10 10 0 5.5228-4.4772 10-10 10-5.52285 0-10-4.4772-10-10z" fill="url(#a)"/><path d="m14.9786 12.7204c.0142.0921.0214.1853.0214.2796 0 1.6569-2.2386 3-5 3-2.76142 0-5-1.3431-5-3 0-.0943.00725-.1875.02142-.2796 1.14203 1.0818 2.94712 1.7796 4.97858 1.7796 2.0206 0 3.8172-.6904 4.9597-1.7613zm0-2.99884c.0142.09204.0214.18529.0214.27954 0 1.6569-2.2386 3-5 3-2.76142 0-5-1.3431-5-3 0-.09425.00725-.1875.02142-.27954 1.14203 1.08174 2.94712 1.77954 4.97858 1.77954 2.0206 0 3.8172-.6903 4.9597-1.7613zm-4.9786-5.72156c2.7614 0 5 1.34315 5 3s-2.2386 3-5 3c-2.76142 0-5-1.34315-5-3s2.23858-3 5-3z" fill="#fff"/></svg>
