<svg xmlns="http://www.w3.org/2000/svg" width="20" height="20" fill="currentColor" viewBox="0 0 20 20"><path fill-rule="evenodd" d="M13.29 4.086C13.057 4.009 12.74 4 11.75 4h-5.5c-.712 0-1.202 0-1.58.032-.371.03-.57.085-.714.159a1.75 1.75 0 0 0-.765.764c-.062.12-.11.28-.143.545H13.7l.771.001a1.387 1.387 0 0 0-.057-.292 1.75 1.75 0 0 0-1.123-1.123ZM3 12.7V7h10.7c.865 0 1.423.001 1.848.036.408.033.559.09.633.127a1.5 1.5 0 0 1 .655.656c.038.074.095.225.128.633.035.425.036.983.036 1.848v2.4c0 .865-.001 1.423-.036 1.848-.033.408-.09.559-.127.633a1.5 1.5 0 0 1-.656.655c-.074.038-.225.095-.633.128-.425.035-.983.036-1.848.036H6.3c-.865 0-1.423-.001-1.848-.036-.408-.033-.559-.09-.633-.128a1.5 1.5 0 0 1-.656-.655c-.037-.074-.094-.225-.127-.633C3 14.123 3 13.565 3 12.7ZM1.5 7.219V12.7c0 1.68 0 2.52.327 3.162a3 3 0 0 0 1.311 1.311c.642.327 1.482.327 3.162.327h7.4c1.68 0 2.52 0 3.162-.327a3 3 0 0 0 1.311-1.311c.327-.642.327-1.482.327-3.162v-2.4c0-1.68 0-2.52-.327-3.162a3 3 0 0 0-1.311-1.311 2.692 2.692 0 0 0-.88-.253 3.34 3.34 0 0 0-.141-.828 3.25 3.25 0 0 0-2.087-2.087c-.492-.16-1.07-.16-1.874-.16l-.13.001H6.219c-.674 0-1.224 0-1.672.037-.463.037-.882.118-1.272.317a3.25 3.25 0 0 0-1.42 1.42c-.2.391-.28.81-.318 1.273-.037.447-.037.998-.037 1.672ZM13.25 10.5a.75.75 0 0 0 0 1.5h1a.75.75 0 0 0 0-1.5h-1Z" clip-rule="evenodd"/></svg>
