<?xml version="1.0" encoding="UTF-8"?>
<svg width="20px" height="20px" viewBox="0 0 20 20" version="1.1" xmlns="http://www.w3.org/2000/svg" xmlns:xlink="http://www.w3.org/1999/xlink">
    <!-- Generator: Sketch 63.1 (92452) - https://sketch.com -->
    <title>work_outline_20</title>
    <desc>Created with Sketch.</desc>
    <g id="Icons" stroke="none" stroke-width="1" fill="none" fill-rule="evenodd">
        <g id="Icons-20/work_outline_20">
            <g id="work_outline_20">
                <polygon opacity="0.4" points="0 0 20 0 20 20 0 20"></polygon>
                <path d="M10.7951435,2 C11.9095419,2 12.3136497,2.11603201 12.7210571,2.33391588 C13.1284645,2.55179975 13.4482003,2.87153546 13.6660841,3.27894287 C13.8694424,3.65918978 13.9840764,4.03656237 13.9984571,4.99123592 L14,5.5 L15.3634952,5.5 C16.3958716,5.5 16.8136497,5.61603201 17.2210571,5.83391588 C17.6284645,6.05179975 17.9482003,6.37153546 18.1660841,6.77894287 C18.383968,7.18635028 18.5,7.60412842 18.5,8.63650479 L18.5,10.4361148 C18.5,11.3276335 18.4071744,11.6509198 18.2328673,11.9768457 C18.0630011,12.2944678 17.8157526,12.5454809 17.5016205,12.719386 L17.5,14.25 C17.5,15.9830315 16.1435452,17.3992459 14.4344239,17.4948552 L14.25,17.5 L5.75,17.5 C4.01696854,17.5 2.60075407,16.1435452 2.50514479,14.4344239 L2.5,14.25 L2.5,12.718 L2.36608863,12.6389761 C2.11422889,12.4713491 1.91238861,12.2484506 1.7671327,11.9768457 C1.60623385,11.675991 1.514763,11.3773855 1.50164263,10.6320228 L1.5,8.63650479 C1.5,7.60412842 1.61603201,7.18635028 1.83391588,6.77894287 C2.05179975,6.37153546 2.37153546,6.05179975 2.77894287,5.83391588 C3.15724975,5.63159515 3.54449874,5.51709565 4.4244682,5.50177083 L6,5.501 L6,5.2048565 C6,4.09045808 6.11603201,3.68635028 6.33391588,3.27894287 C6.55179975,2.87153546 6.87153546,2.55179975 7.27894287,2.33391588 C7.65918978,2.1305576 8.03656237,2.01592361 8.99123592,2.00154289 L10.7951435,2 Z M16.0022272,12.9998245 L4,12.999 L4,14.25 C4,15.1681734 4.70711027,15.9211923 5.60647279,15.9941988 L5.75,16 L14.25,16 C15.1681734,16 15.9211923,15.2928897 15.9941988,14.3935272 L16,14.25 L16.0022272,12.9998245 Z M15.5334233,7.00091015 L4.46657673,7.00091015 L4.15804249,7.00968367 C3.80056349,7.02792203 3.6422802,7.07323857 3.48634116,7.15663568 C3.34033646,7.23471984 3.23471984,7.34033646 3.15663568,7.48634116 C3.05238929,7.68126496 3.0076438,7.87985165 3.00091015,8.46657673 L3.00060537,10.5849071 L3.00569532,10.8219875 C3.01353606,11.0229028 3.02995848,11.1236639 3.05792636,11.1993453 L3.0898525,11.2694474 C3.12435989,11.3339706 3.16602937,11.3756401 3.23055258,11.4101475 L3.30065465,11.4420736 C3.41417681,11.4840255 3.58412829,11.5 4.0638852,11.5 L15.9361148,11.5 C16.4158717,11.5 16.5858232,11.4840255 16.6993453,11.4420736 L16.7694474,11.4101475 C16.8339706,11.3756401 16.8756401,11.3339706 16.9101475,11.2694474 L16.9420736,11.1993453 C16.9840255,11.0858232 17,10.9158717 17,10.4361148 L17,8.63650479 C17,7.91598859 16.9570877,7.69898531 16.8433643,7.48634116 C16.7652802,7.34033646 16.6596635,7.23471984 16.5136588,7.15663568 C16.318735,7.05238929 16.1201483,7.0076438 15.5334233,7.00091015 Z M10.9673808,3.50074513 L9.03261924,3.50074513 L8.71518708,3.50808587 C8.39250568,3.52150521 8.22479789,3.55259611 8.08792395,3.60848304 L7.98634116,3.65663568 C7.84033646,3.73471984 7.73471984,3.84033646 7.65663568,3.98634116 L7.60848304,4.08792395 C7.53662841,4.26390474 7.50576316,4.49085576 7.50074513,5.03261924 L7.5,5.5 L12.5,5.5 L12.4992549,5.03261924 L12.4919141,4.71518708 C12.4784948,4.39250568 12.4474039,4.22479789 12.391517,4.08792395 L12.3433643,3.98634116 C12.2652802,3.84033646 12.1596635,3.73471984 12.0136588,3.65663568 L11.9120761,3.60848304 C11.7360953,3.53662841 11.5091442,3.50576316 10.9673808,3.50074513 Z" id="↳-Icon-Color" fill="currentColor" fill-rule="nonzero"></path>
            </g>
        </g>
    </g>
</svg>
