<?xml version="1.0" encoding="UTF-8"?>
<svg width="20px" height="20px" viewBox="0 0 20 20" version="1.1" xmlns="http://www.w3.org/2000/svg" xmlns:xlink="http://www.w3.org/1999/xlink">
    <!-- Generator: Sketch 56 (81588) - https://sketch.com -->
    <title>work_outline_20</title>
    <desc>Created with Sketch.</desc>
    <g id="Page-2" stroke="none" stroke-width="1" fill="none" fill-rule="evenodd">
        <g id="work_outline_20">
            <polygon id="Bounds" opacity="0.4" points="0 0 20 0 20 20 0 20"></polygon>
            <path d="M13.5,6.49970703 L14.625,6.49970703 C15.9366763,6.49970703 17,7.56303075 17,8.87470703 L17,14.625 C17,15.9366763 15.9366763,17 14.625,17 L4.875,17 C3.56332372,17 2.5,15.9366763 2.5,14.625 L2.5,8.87470703 C2.5,7.56303075 3.56332372,6.49970703 4.875,6.49970703 L6,6.49970703 L6,5.75 C6,4.23121694 7.23121694,3 8.75,3 L10.75,3 C12.2687831,3 13.5,4.23121694 13.5,5.75 L13.5,6.49970703 Z M4,8.87470703 L4,14.625 C4,15.1082492 4.39175084,15.5 4.875,15.5 L14.625,15.5 C15.1082492,15.5 15.5,15.1082492 15.5,14.625 L15.5,8.87470703 C15.5,8.39145788 15.1082492,7.99970703 14.625,7.99970703 L4.875,7.99970703 C4.39175084,7.99970703 4,8.39145788 4,8.87470703 Z M12,6.5 L12,5.75 C12,5.05964406 11.4403559,4.5 10.75,4.5 L8.75,4.5 C8.05964406,4.5 7.5,5.05964406 7.5,5.75 L7.5,6.5 L12,6.5 Z" id="↳-Icon-Color" fill="currentColor" fill-rule="nonzero"></path>
        </g>
    </g>
</svg>
