<svg width="20" height="20" viewBox="0 0 20 20" fill="none" xmlns="http://www.w3.org/2000/svg"><path fill-rule="evenodd" clip-rule="evenodd" d="M13.076 2.649A2.215 2.215 0 0114.645 2c.566 0 1.135.216 1.568.649l1.137 1.136a2.21 2.21 0 010 3.133l-.941.94-9.17 9.179a3.296 3.296 0 01-2.33.963H3a1 1 0 01-1-1v-1.893a3.288 3.288 0 01.965-2.34l8.123-8.132 1.988-1.986zm2.286 4.135l.927-.926a.711.711 0 000-1.013l-1.137-1.136a.713.713 0 00-.507-.21.713.713 0 00-.507.21l-.927.926 2.15 2.149zM12.135 5.71l-8.109 8.118a1.79 1.79 0 00-.525 1.266V16.2a.3.3 0 00.3.3H4.91c.475 0 .931-.189 1.267-.525l8.11-8.118-2.152-2.148z" fill="currentColor"/></svg>
