<svg fill="none" height="20" viewBox="0 0 20 20" width="20" xmlns="http://www.w3.org/2000/svg"><path clip-rule="evenodd" d="m12.7659 3.02644c.4327-.43268 1.0013-.64924 1.5674-.64924.5662 0 1.1348.21656 1.5674.64924l1.1365 1.13648c.4327.43269.6493 1.00129.6493 1.56742 0 .56614-.2166 1.13474-.6493 1.56742l-8.88516 8.88524c-.6173.6172-1.45452.964-2.32748.964h-2.83438l-.07346-2.8864-.00004-.008c-.00357-.8779.34364-1.7206.96416-2.3411zm2.2841 4.13724.9266-.92658c.14-.14008.2099-.32218.2099-.50676 0-.18457-.0699-.36667-.2099-.50676l-1.1365-1.13648c-.1401-.14008-.3222-.2099-.5068-.2099-.1845 0-.3667.06982-.5067.2099l-.9266.92658zm-3.225-1.07453-6.88354 6.88305c-.33602.336-.5248.7918-.5248 1.267l.03583 1.4078h1.37207c.47516 0 .93086-.1887 1.26686-.5247l6.88358-6.88315z" fill="currentColor" fill-rule="evenodd"/></svg>
