<svg fill="none" height="20" viewBox="0 0 20 20" width="20" xmlns="http://www.w3.org/2000/svg"><g fill="currentColor"><path clip-rule="evenodd" d="m4.04631 2.53427c.74132-.39647 1.47118-.53427 3.08146-.53427h5.74443c.4142 0 .75.33579.75.75s-.3358.75-.75.75h-5.74443c-1.531 0-1.96133.13625-2.37406.35699-.38852.20778-.68894.5082-.89672.89672-.22074.41273-.35699.84306-.35699 2.37406v5.74443c0 1.531.13625 1.9614.35699 2.3741.20778.3885.5082.6889.89672.8967.41273.2207.84306.357 2.37406.357h5.74443c1.531 0 1.9614-.1363 2.3741-.357.3885-.2078.6889-.5082.8967-.8967.2207-.4127.357-.8431.357-2.3741v-5.74443c0-.41421.3358-.75.75-.75s.75.33579.75.75v5.74443c0 1.6103-.1378 2.3402-.5343 3.0815-.3475.6499-.8621 1.1645-1.512 1.512-.7413.3965-1.4712.5343-3.0815.5343h-5.74443c-1.61028 0-2.34014-.1378-3.08146-.5343-.64992-.3475-1.16446-.8621-1.51204-1.512-.39647-.7413-.53427-1.4712-.53427-3.0815v-5.74443c0-1.61028.1378-2.34014.53427-3.08146.34758-.64992.86212-1.16446 1.51204-1.51204z" fill-rule="evenodd"/><path clip-rule="evenodd" d="m16.5266 3.47335c.2979.2978.2979.78063 0 1.07844l-6.3562 6.35631c-.28214.2821-1.11921.736-1.74947 1.0567-.25466.1296-.51536-.1311-.38577-.3857.32072-.6303.77467-1.4673 1.05676-1.74943l6.35628-6.35632c.2978-.2978.7806-.2978 1.0784 0z" fill-rule="evenodd"/><path d="m18.5 2.25c0 .41421-.3358.75-.75.75s-.75-.33579-.75-.75.3358-.75.75-.75.75.33579.75.75z"/></g></svg>
