<svg xmlns="http://www.w3.org/2000/svg" width="20" height="20" fill="currentColor" viewBox="0 0 20 20"><path fill-rule="evenodd" d="M9.25 7.505V17.75a.75.75 0 0 0 1.5 0V7.483c.004-1.222.44-2.075 1.044-2.627.619-.566 1.46-.86 2.325-.856.865.004 1.71.305 2.331.875.609.558 1.045 1.413 1.045 2.624 0 2.275-1.333 3.776-3.055 4.567a.75.75 0 0 0 .626 1.363c2.126-.976 3.93-2.94 3.93-5.93 0-1.605-.595-2.87-1.532-3.73-.925-.848-2.141-1.264-3.338-1.269-1.197-.005-2.416.4-3.344 1.249a4.493 4.493 0 0 0-.782.94 4.493 4.493 0 0 0-.782-.94C8.29 2.9 7.07 2.495 5.874 2.5c-1.197.005-2.413.42-3.338 1.27-.937.86-1.531 2.124-1.531 3.729 0 2.99 1.803 4.954 3.929 5.93a.75.75 0 0 0 .626-1.363c-1.722-.79-3.055-2.292-3.055-4.567 0-1.21.436-2.066 1.045-2.624.62-.57 1.466-.871 2.33-.875.865-.004 1.707.29 2.325.856.607.554 1.045 1.412 1.045 2.643v.006Z" clip-rule="evenodd"/></svg>
