<svg xmlns="http://www.w3.org/2000/svg" width="20" height="20" fill="currentColor" viewBox="0 0 20 20"><path fill-rule="evenodd" d="M11.114 2.531c1.818-.28 3.777 1.537 3.32 4.112-.176.992-.51 1.773-.902 2.547-.1.196-.205.397-.314.604-.312.59-.648 1.227-.92 1.927-.37.956-.761 2.471-.61 3.882.078.714.3 1.447.78 2.06.491.626 1.206 1.067 2.154 1.262.852.174 1.868.056 2.727-.617.86-.673 1.455-1.815 1.646-3.472a.75.75 0 1 0-1.49-.172c-.16 1.393-.628 2.11-1.08 2.463-.452.354-1 .431-1.502.328-.638-.13-1.025-.4-1.274-.717-.258-.33-.412-.768-.469-1.296-.116-1.076.19-2.335.518-3.179.237-.612.513-1.137.811-1.702.118-.222.238-.45.361-.693.424-.838.828-1.767 1.04-2.962.605-3.406-2.014-6.32-5.024-5.857-2.204.339-3.355 1.998-3.756 3.717a7.118 7.118 0 0 0-.12 2.494A4.5 4.5 0 1 0 10 11.5c0-1.03-.29-1.816-.936-2.77-.644-.954-.791-2.258-.473-3.623C8.9 3.78 9.699 2.749 11.114 2.53ZM2.5 11.5a3 3 0 1 0 6 0 3 3 0 0 0-6 0Z" clip-rule="evenodd"/></svg>
