<svg xmlns="http://www.w3.org/2000/svg" width="20" height="20" fill="currentColor" viewBox="0 0 20 20"><path fill-rule="evenodd" d="M8.76 3.5c-.26 0-.513.012-.76.035a4 4 0 1 1-5.99 3.177c.016-1.417.882-2.608 2.091-3.414C5.326 2.48 6.976 2 8.76 2c1.75 0 3.196.33 4.388 1.003 1.195.675 2.08 1.662 2.758 2.883a.75.75 0 1 1-1.312.728c-.572-1.03-1.275-1.792-2.184-2.305-.912-.515-2.087-.809-3.65-.809ZM3.51 6.783A2.538 2.538 0 0 0 3.5 7a2.5 2.5 0 1 0 .01-.217Zm7.73 9.717a8.3 8.3 0 0 0 .76-.035 4 4 0 1 1 5.99-3.177c-.015 1.417-.882 2.608-2.091 3.415C14.674 17.518 13.024 18 11.24 18c-1.75 0-3.196-.33-4.387-1.003-1.196-.675-2.08-1.662-2.758-2.883a.75.75 0 1 1 1.31-.728c.573 1.03 1.276 1.792 2.185 2.305.912.515 2.087.809 3.65.809Zm5.25-3.283.005-.05a2.5 2.5 0 1 0-.004.05Z" clip-rule="evenodd"/></svg>
