<svg xmlns="http://www.w3.org/2000/svg" width="20" height="20" fill="currentColor" viewBox="0 0 20 20"><path fill-rule="evenodd" d="M4.428 2.414a.75.75 0 0 0-1.342.672c.668 1.334 1.905 2.26 3.372 2.806C4.39 7.022 3 9.11 3 11.5c0 3.59 3.134 6.5 7 6.5s7-2.91 7-6.5c0-2.388-1.388-4.476-3.455-5.606 1.468-.545 2.706-1.468 3.374-2.803a.75.75 0 0 0-1.342-.67C14.781 4.012 12.59 5 10 5c-2.588 0-4.775-.992-5.572-2.586ZM15.5 11.5c0 2.659-2.356 5-5.5 5s-5.5-2.341-5.5-5c0-2.658 2.356-5 5.5-5s5.5 2.342 5.5 5Z" clip-rule="evenodd"/></svg>
