<svg xmlns="http://www.w3.org/2000/svg" width="20" height="20" fill="currentColor" viewBox="0 0 20 20"><path fill-rule="evenodd" d="M6.095 4.459c-.602.59-1.049 1.49-1.095 2.755v5.036a.75.75 0 0 1-1.5 0V7.523a.758.758 0 0 1-.004-.075c0-.088.001-.174.004-.26V5.25c0-1.237-.75-1.707-.983-1.785a.75.75 0 1 1 .474-1.423c.538.18 1.31.72 1.723 1.705a4.79 4.79 0 0 1 .33-.358 4.911 4.911 0 0 1 3.45-1.39 4.92 4.92 0 0 1 3.45 1.39c.958.938 1.556 2.312 1.556 4.057v2.18a3.5 3.5 0 1 1-.245 5.563c-.23.75-.612 1.328-1.083 1.763-.767.709-1.686.956-2.314 1.044a.75.75 0 0 1-.209-1.485c.47-.066 1.049-.24 1.505-.66.434-.401.846-1.109.846-2.435v-.764a3.624 3.624 0 0 1 0-.303V7.446c0-1.386-.466-2.36-1.106-2.987a3.42 3.42 0 0 0-2.4-.96c-.884 0-1.753.326-2.4.96Zm7.405 8.155a2 2 0 1 0 0-.229v.23Z" clip-rule="evenodd"/></svg>
