<svg fill="none" height="20" viewBox="0 0 20 20" width="20" xmlns="http://www.w3.org/2000/svg" xmlns:xlink="http://www.w3.org/1999/xlink"><radialGradient id="a" cx="0" cy="0" gradientTransform="matrix(0 19.6755 -19.6755 0 10 .324458)" gradientUnits="userSpaceOnUse" r="1"><stop offset="0" stop-color="#b0bec5"/><stop offset="1" stop-color="#90a4ae"/></radialGradient><path d="m0 10c0-5.52285 4.47715-10 10-10 5.5228 0 10 4.47715 10 10 0 5.5228-4.4772 10-10 10-5.52285 0-10-4.4772-10-10z" fill="url(#a)"/><path d="m6.52734 8.05469h1.6543c0-1.03907.68359-1.75 1.75684-1.75 1.03222 0 1.64742.69043 1.64742 1.58593 0 .75196-.3007 1.22364-1.5449 2.48148l-3.41795 3.4384v1.1895h6.84965v-1.4629h-4.45708v-.1162l2.11918-2.085c1.6953-1.6611 2.1943-2.4609 2.1943-3.60934 0-1.64062-1.333-2.83691-3.2949-2.83691-2.05764 0-3.50686 1.29883-3.50686 3.16504z" fill="#fff"/></svg>
