<svg fill="none" height="20" viewBox="0 0 20 20" width="20" xmlns="http://www.w3.org/2000/svg" xmlns:xlink="http://www.w3.org/1999/xlink"><radialGradient id="a" cx="0" cy="0" gradientTransform="matrix(0 18.9947 -18.9947 0 10 .623406)" gradientUnits="userSpaceOnUse" r="1"><stop offset="0" stop-color="#ffa726"/><stop offset="1" stop-color="#e68000"/></radialGradient><path d="m0 10c0-5.52285 4.47715-10 10-10 5.5228 0 10 4.47715 10 10 0 5.5228-4.4772 10-10 10-5.52285 0-10-4.4772-10-10z" fill="url(#a)"/><path d="m8.72168 10.5977h1.2373c1.21682 0 1.95512.6084 1.95512 1.5996 0 .957-.7998 1.5996-1.93461 1.5996-1.1416 0-1.91406-.5879-1.98926-1.5039h-1.68847c.08203 1.7841 1.55176 2.9531 3.69824 2.9531 2.1328 0 3.7188-1.2305 3.7188-2.9258 0-1.3467-.8409-2.2148-2.1807-2.41991v-.11621c1.0459-.28027 1.791-1.06641 1.7978-2.25586.0069-1.41504-1.1757-2.63867-3.2744-2.63867-2.13962 0-3.47947 1.20996-3.56834 2.93945h1.6543c.0752-.98437.74512-1.53125 1.81836-1.53125 1.04588 0 1.66798.64258 1.66798 1.45606 0 .8955-.6973 1.52441-1.709 1.52441h-1.20312z" fill="#fff"/></svg>
