<svg xmlns="http://www.w3.org/2000/svg" width="20" height="20" fill="none" viewBox="0 0 20 20"><path fill="currentColor" fill-rule="evenodd" d="M11.6 3.5H8.4c-1.1449 0-1.9133.0012-2.505.0495-.5743.047-.8488.1307-1.03.223A2.5001 2.5001 0 0 0 3.7725 4.865c-.0923.1811-.176.4557-.223 1.03C3.5012 6.4867 3.5 7.255 3.5 8.4v3.2c0 1.1449.0012 1.9133.0495 2.505.047.5743.1307.8489.223 1.03a2.5 2.5 0 0 0 1.0925 1.0925c.1811.0923.4557.1761 1.03.223.5917.0483 1.3601.0495 2.505.0495h3.2c1.1449 0 1.9133-.0012 2.505-.0495.5743-.0469.8489-.1307 1.03-.223a2.5 2.5 0 0 0 1.0925-1.0925c.0923-.1811.1761-.4557.223-1.03.0483-.5917.0495-1.3601.0495-2.505V8.4c0-1.1449-.0012-1.9133-.0495-2.505-.0469-.5743-.1307-.8488-.223-1.03a2.5 2.5 0 0 0-1.0925-1.0925c-.1811-.0923-.4557-.176-1.03-.223C13.5133 3.5012 12.7449 3.5 11.6 3.5Zm-9.164.684C2 5.0397 2 6.1598 2 8.4v3.2c0 2.2402 0 3.3603.436 4.216a4.0002 4.0002 0 0 0 1.748 1.748C5.0397 18 6.1598 18 8.4 18h3.2c2.2402 0 3.3603 0 4.216-.436a4.0003 4.0003 0 0 0 1.748-1.748C18 14.9603 18 13.8402 18 11.6V8.4c0-2.2402 0-3.3603-.436-4.216a4.0002 4.0002 0 0 0-1.748-1.748C14.9603 2 13.8402 2 11.6 2H8.4c-2.2402 0-3.3603 0-4.216.436a4 4 0 0 0-1.748 1.748ZM10 6.0033a.75.75 0 0 1 .75.75V9.25h2.4961a.75.75 0 0 1 0 1.5H10.75v2.5a.75.75 0 0 1-1.5 0v-2.5H6.754a.75.75 0 0 1 0-1.5H9.25V6.7533a.75.75 0 0 1 .75-.75Z" clip-rule="evenodd"/></svg>
