<svg fill="none" height="20" viewBox="0 0 20 20" width="20" xmlns="http://www.w3.org/2000/svg" xmlns:xlink="http://www.w3.org/1999/xlink"><linearGradient id="a" gradientUnits="userSpaceOnUse" x1="-10" x2="10" y1="10" y2="30"><stop offset="0" stop-color="#70b2ff"/><stop offset="1" stop-color="#5c9ce6"/></linearGradient><path d="m0 10c0-5.52285 4.47715-10 10-10 5.5228 0 10 4.47715 10 10 0 5.5228-4.4772 10-10 10-5.52285 0-10-4.4772-10-10z" fill="url(#a)"/><path d="m10 4.5c.5523 0 1 .44772 1 1v3.5h3.5c.5523 0 1 .44772 1 1 0 .5523-.4477 1-1 1h-3.5v3.5c0 .5523-.4477 1-1 1-.55228 0-1-.4477-1-1v-3.5h-3.5c-.55228 0-1-.4477-1-1 0-.55228.44772-1 1-1h3.5v-3.5c0-.55228.44772-1 1-1z" fill="#fff"/></svg>
