<svg xmlns="http://www.w3.org/2000/svg" width="20" height="20" fill="none" viewBox="0 0 20 20"><path fill="url(#a)" d="M10 20c5.523 0 10-4.477 10-10S15.523 0 10 0 0 4.477 0 10s4.477 10 10 10z"/><path fill="#fff" d="M14.871 14a.754.754 0 0 1-.415-.124l-2.274-1.793s-.096-.09-.119-.121a.296.296 0 0 1-.049-.102.456.456 0 0 1-.014-.12V7.306a.6.6 0 0 1 .015-.171.297.297 0 0 1 .049-.102c.022-.03.119-.124.119-.124l2.273-1.779A.8.8 0 0 1 14.87 5c.348 0 .629.298.629.667v7.666c0 .368-.281.667-.629.667zm-4.607-7c.13 0 .236.112.236.25v4.5c0 .138-.105.25-.236.25l-1.55.002c0 .505.256 1.227.459 1.498.327.438.295.958-.073 1.3-.368.342-1.108.235-1.433-.2-.463-.62-.917-1.64-.917-2.598L6.357 12C5.055 12 4 10.88 4 9.5S5.055 7 6.357 7h3.907z"/><defs><linearGradient id="a" x1="-10" x2="10" y1="10" y2="30" gradientUnits="userSpaceOnUse"><stop stop-color="#FF5263"/><stop offset="1" stop-color="#FF3347"/></linearGradient></defs></svg>
