<svg xmlns="http://www.w3.org/2000/svg" width="20" height="20" fill="currentColor" viewBox="0 0 20 20"><path fill-rule="evenodd" d="M18.985 6a5 5 0 1 1-10 0 5 5 0 0 1 10 0Zm-1.73-2.28a.816.816 0 0 0-1.114 0l-3.118 2.97-1.193-1.137a.816.816 0 0 0-1.114 0 .725.725 0 0 0 0 1.06l1.75 1.667a.816.816 0 0 0 1.114 0l3.675-3.5a.725.725 0 0 0 0-1.06Z M3.373 7.347a2.917 2.917 0 0 1 2.09-.884h.792a.75.75 0 0 0 0-1.5h-.793a4.417 4.417 0 0 0-3.16 1.333A4.557 4.557 0 0 0 1 9.496c0 1.247.497 2.38 1.302 3.2a4.438 4.438 0 0 0 2.204 1.228l.485 2.254c.117.636.52 1.133 1.029 1.433a2.612 2.612 0 0 0 1.777.305 2.612 2.612 0 0 0 1.567-.895c.378-.46.587-1.07.474-1.713l-.007-.037-.35-1.243h1.801c.427 0 .844.122 1.205.35l2.822 1.789a2.378 2.378 0 0 0 2.992-.336 2.44 2.44 0 0 0 .698-1.714V12.73a.75.75 0 0 0-1.5 0v1.387a.942.942 0 0 1-.268.664.88.88 0 0 1-1.11.125l-.006-.004-2.825-1.79a3.75 3.75 0 0 0-2.008-.584h-3.09a2.467 2.467 0 0 0-.242 0H5.462a2.916 2.916 0 0 1-2.09-.883 3.057 3.057 0 0 1-.872-2.15c0-.841.334-1.6.873-2.148Zm2.7 6.733.39 1.809.002.014c.027.152.127.304.316.416.191.113.46.172.756.12.297-.053.528-.2.669-.371a.624.624 0 0 0 .159-.47l-.442-1.565-.032.003c-.075.006-.18.014-.28.016l-1.537.028Z" clip-rule="evenodd"/></svg>
