<svg xmlns="http://www.w3.org/2000/svg" width="20" height="20" fill="currentColor" viewBox="0 0 20 20"><path d="M4.825 3.781a.75.75 0 1 0-1.067-1.055l-2.04 2.061a.75.75 0 0 0 1.067 1.055l2.04-2.06Zm5.925 4.624a.75.75 0 0 0-1.5 0v2.884c0 .235.11.456.297.598l1.631 1.236a.75.75 0 1 0 .906-1.196l-1.334-1.01V8.404Z"/><path fill-rule="evenodd" d="M17.34 11.083c0 4.096-3.286 7.417-7.34 7.417s-7.34-3.32-7.34-7.417c0-4.097 3.286-7.417 7.34-7.417s7.34 3.32 7.34 7.417Zm-1.5 0C15.84 14.365 13.21 17 10 17s-5.84-2.635-5.84-5.917C4.16 7.8 6.79 5.166 10 5.166s5.84 2.634 5.84 5.917Z" clip-rule="evenodd"/><path d="M15.181 2.72a.75.75 0 0 0-.005 1.061l2.039 2.061a.75.75 0 0 0 1.066-1.055l-2.04-2.06a.75.75 0 0 0-1.06-.006Z"/></svg>
