<svg xmlns="http://www.w3.org/2000/svg" width="20" height="20" fill="currentColor" viewBox="0 0 20 20"><path d="M10.115 14.5c.555 0 .878-.334.878-.902v-2.053h1.672c1.89 0 3.085-1.032 3.085-2.776C15.75 7.1 14.569 6 12.736 6h-2.227c-.91 0-1.259.34-1.259 1.218v6.38c0 .568.316.902.865.902Zm.878-4.253V7.335h1.523c.955 0 1.498.532 1.498 1.46 0 1.075-.549 1.452-1.904 1.452h-1.117ZM1.553 14.5c.463 0 .72-.227.9-.802l.489-1.421H6.02l.495 1.42c.173.57.443.803.912.803.495 0 .823-.282.823-.723 0-.171-.045-.373-.135-.636l-2.21-6.039C5.627 6.318 5.241 6 4.515 6c-.733 0-1.125.325-1.401 1.102L.905 13.14c-.11.313-.155.503-.155.668 0 .416.328.692.803.692Zm1.774-3.454 1.118-3.38h.084l1.112 3.38H3.327ZM17.631 14.5c.551 0 .869-.331.869-.896V6.896c0-.565-.324-.896-.875-.896-.557 0-.875.331-.875.896v6.708c0 .565.324.896.881.896Z"/></svg>
