<svg xmlns="http://www.w3.org/2000/svg" width="20" height="20" fill="currentColor" viewBox="0 0 20 20"><path d="M12.8 7.088a.75.75 0 0 0 0 1.5c.457 0 .802.15 1.03.37.223.218.387.558.387 1.046a.75.75 0 1 0 1.5 0c0-.845-.295-1.588-.842-2.12-.544-.53-1.282-.796-2.075-.796Z"/><path fill-rule="evenodd" d="m12.71 1.49-.109.741.11-.742h-.005l-.007-.002-.02-.002a4.418 4.418 0 0 0-.29-.025 4.996 4.996 0 0 0-.732.014c-.552.052-1.356.228-1.947.827-.59.597-.761 1.406-.813 1.96a4.9 4.9 0 0 0-.014.198A5.694 5.694 0 0 0 7.5 4.291c-3.291 0-6 2.407-6 5.814 0 1.64.636 3.675 1.644 5.302.986 1.591 2.494 3.045 4.356 3.045a5.65 5.65 0 0 0 2.5-.577 5.65 5.65 0 0 0 2.5.577c1.862 0 3.37-1.454 4.356-3.045 1.008-1.627 1.644-3.661 1.644-5.302 0-3.201-2.392-5.52-5.411-5.788.169-.403.24-.81.27-1.132a5.163 5.163 0 0 0-.011-1.028l-.003-.021-.001-.007v-.004l-.743.106.742-.106-.08-.554-.553-.082Zm-1.932 1.865c.222-.225.597-.348 1.02-.388l.073-.006a3.917 3.917 0 0 1-.006.086c-.04.433-.163.817-.387 1.045-.222.225-.597.347-1.02.387a3.26 3.26 0 0 1-.074.006l.007-.085c.04-.433.162-.818.387-1.045ZM3 10.105c0-2.501 1.958-4.314 4.5-4.314.709 0 1.36.171 1.942.475.35.183.768.183 1.118 0a4.169 4.169 0 0 1 1.94-.475c2.542 0 4.5 1.813 4.5 4.314 0 1.314-.53 3.078-1.419 4.512-.91 1.468-2.026 2.335-3.081 2.335-.709 0-1.36-.17-1.941-.475a1.207 1.207 0 0 0-1.118 0 4.152 4.152 0 0 1-1.941.475c-1.055 0-2.171-.867-3.081-2.335C3.53 13.183 3 11.419 3 10.105Z" clip-rule="evenodd"/></svg>
