<svg xmlns="http://www.w3.org/2000/svg" width="20" height="20" fill="currentColor" viewBox="0 0 20 20"><path fill-rule="evenodd" d="M7.928 2.509h4.144c.55 0 .915 0 1.234.05A4.083 4.083 0 0 1 16.7 5.954c.041.26.049.55.05.949.89.188 1.58.907 1.723 1.814.027.174.027.367.027.588v2.312c0 .442 0 .818-.025 1.126-.027.325-.085.64-.238.942a2.417 2.417 0 0 1-1.056 1.056 2.045 2.045 0 0 1-.431.16v.603c0 .233 0 .349-.015.446a1.25 1.25 0 0 1-1.04 1.039c-.097.015-.213.015-.445.015s-.348 0-.445-.015a1.25 1.25 0 0 1-1.04-1.04c-.015-.096-.015-.212-.015-.445v-.5h-7.5v.5c0 .233 0 .349-.015.446a1.25 1.25 0 0 1-1.04 1.039c-.097.015-.213.015-.445.015s-.348 0-.446-.015a1.25 1.25 0 0 1-1.039-1.04c-.015-.096-.015-.212-.015-.445V14.9a2.016 2.016 0 0 1-.43-.159 2.417 2.417 0 0 1-1.057-1.056c-.153-.302-.211-.617-.238-.942-.025-.308-.025-.684-.025-1.126V9.305c0-.221 0-.414.027-.588A2.208 2.208 0 0 1 3.25 6.903c.002-.398.01-.69.05-.95A4.083 4.083 0 0 1 6.695 2.56c.318-.05.683-.05 1.233-.05ZM4.751 6.903a2.21 2.21 0 0 1 1.722 1.814c.027.174.027.367.027.588v.698h7v-.698c0-.221 0-.414.027-.588a2.208 2.208 0 0 1 1.723-1.814c-.002-.389-.008-.568-.032-.715a2.583 2.583 0 0 0-2.147-2.147c-.186-.03-.423-.032-1.071-.032H8c-.648 0-.885.002-1.07.032a2.583 2.583 0 0 0-2.148 2.147c-.023.147-.03.326-.031.715Zm-1.153 1.46c.04-.006.102-.008.402-.008.3 0 .362.002.402.008a.71.71 0 0 1 .59.59c.006.04.008.102.008.402v1.076c0 .047 0 .12.005.187a.96.96 0 0 0 .1.362c.091.18.238.327.418.419a.96.96 0 0 0 .362.099c.067.005.14.005.187.005h7.856c.047 0 .12 0 .187-.005a.96.96 0 0 0 .362-.1.959.959 0 0 0 .419-.418.96.96 0 0 0 .099-.362c.005-.067.005-.14.005-.187V9.355c0-.3.002-.363.009-.403a.708.708 0 0 1 .588-.589c.04-.006.103-.008.403-.008.3 0 .362.002.402.008a.71.71 0 0 1 .59.59c.006.04.008.102.008.402v2.233c0 .479 0 .793-.02 1.033-.02.232-.052.328-.08.383a.917.917 0 0 1-.4.4c-.055.028-.151.061-.383.08-.24.02-.555.02-1.034.02H4.917c-.48 0-.794 0-1.034-.02-.231-.019-.328-.052-.382-.08a.917.917 0 0 1-.401-.4c-.028-.055-.06-.151-.08-.383-.02-.24-.02-.554-.02-1.033V9.355c0-.3.002-.363.009-.403a.708.708 0 0 1 .589-.589Z" clip-rule="evenodd"/></svg>
