<svg xmlns="http://www.w3.org/2000/svg" width="20" height="20" fill="currentColor" viewBox="0 0 20 20"><path d="M10.53 6.22a.75.75 0 0 0-1.06 0l-2.5 2.5a.75.75 0 0 0 1.06 1.06l1.22-1.22v4.69a.75.75 0 0 0 1.5 0V8.56l1.22 1.22a.75.75 0 1 0 1.06-1.06l-2.5-2.5Z"/><path fill-rule="evenodd" d="M12.183 3H7.817c-.952 0-1.713 0-2.327.05-.63.052-1.172.16-1.67.413a4.25 4.25 0 0 0-1.857 1.858c-.253.497-.361 1.04-.413 1.67-.05.613-.05 1.374-.05 2.326v1.366c0 .952 0 1.713.05 2.327.052.63.16 1.172.413 1.67a4.25 4.25 0 0 0 1.858 1.857c.497.253 1.04.361 1.67.413.613.05 1.374.05 2.326.05h4.366c.952 0 1.713 0 2.327-.05.63-.052 1.172-.16 1.67-.413a4.251 4.251 0 0 0 1.857-1.857c.253-.498.361-1.04.413-1.67.05-.614.05-1.375.05-2.327V9.317c0-.952 0-1.713-.05-2.327-.052-.63-.16-1.172-.413-1.67a4.25 4.25 0 0 0-1.857-1.857c-.498-.253-1.04-.361-1.67-.413C13.896 3 13.135 3 12.183 3ZM4.502 4.8c.25-.128.573-.21 1.11-.255.546-.044 1.246-.045 2.238-.045h4.3c.992 0 1.692 0 2.238.045.537.044.86.127 1.11.255A2.75 2.75 0 0 1 16.7 6.002c.128.25.21.573.255 1.11.044.546.045 1.246.045 2.238v1.3c0 .992 0 1.692-.045 2.238-.044.537-.127.86-.255 1.11a2.751 2.751 0 0 1-1.2 1.202c-.252.128-.574.21-1.111.255-.546.044-1.245.045-2.238.045h-4.3c-.992 0-1.692 0-2.238-.045-.537-.044-.86-.127-1.11-.255A2.75 2.75 0 0 1 3.3 14c-.128-.252-.21-.574-.255-1.111C3.001 12.342 3 11.643 3 10.65v-1.3c0-.992 0-1.692.045-2.238.044-.537.127-.86.255-1.11A2.75 2.75 0 0 1 4.502 4.8Z" clip-rule="evenodd"/></svg>
