<svg xmlns="http://www.w3.org/2000/svg" width="20" height="20" viewBox="0 0 20 20" fill="currentColor"><path d="M10.025 5.751a.8.8 0 0 1 .232.047q.019.004.038.012.027.013.055.03.036.017.07.039a1 1 0 0 1 .11.09l3 3a.75.75 0 1 1-1.06 1.061l-1.72-1.72v5.19a.75.75 0 0 1-1.5 0V8.31l-1.72 1.72a.75.75 0 1 1-1.06-1.06l3-3 .056-.052q.016-.012.033-.022a.8.8 0 0 1 .26-.122l.06-.014.034-.005L10 5.75z"/><path fill-rule="evenodd" d="M10 1.5a8.5 8.5 0 1 1 0 17 8.5 8.5 0 0 1 0-17M10 3a7 7 0 1 0 0 14 7 7 0 0 0 0-14" clip-rule="evenodd"/></svg>