<svg xmlns="http://www.w3.org/2000/svg" width="20" height="20" fill="currentColor" viewBox="0 0 20 20"><path fill-rule="evenodd" d="M5.75 3.5a.75.75 0 0 0 0-1.5h-1.5A2.25 2.25 0 0 0 2 4.25v1.5a.75.75 0 0 0 1.5 0v-1.5a.75.75 0 0 1 .75-.75h1.5ZM16.5 5.75a.75.75 0 0 0 1.5 0v-1.5A2.25 2.25 0 0 0 15.75 2h-1.5a.75.75 0 0 0 0 1.5h1.5a.75.75 0 0 1 .75.75v1.5Zm-3 11.5a.75.75 0 0 1 .75-.75h1.5a.75.75 0 0 0 .75-.75v-1.5a.75.75 0 0 1 1.5 0v1.5A2.25 2.25 0 0 1 15.75 18h-1.5a.75.75 0 0 1-.75-.75Zm-10-3a.75.75 0 0 0-1.5 0v1.5A2.25 2.25 0 0 0 4.25 18h1.5a.75.75 0 0 0 0-1.5h-1.5a.75.75 0 0 1-.75-.75v-1.5Zm1.97-6.78a.75.75 0 0 1 1.06 0l2 2a.75.75 0 0 1 0 1.06l-2 2a.75.75 0 0 1-1.06-1.06l.72-.72H3.5a.75.75 0 0 1 0-1.5h2.69l-.72-.72a.75.75 0 0 1 0-1.06Zm9.06 5.06a.75.75 0 0 1-1.06 0l-2-2a.75.75 0 0 1 0-1.06l2-2a.75.75 0 1 1 1.06 1.06l-.72.72h2.69a.75.75 0 0 1 0 1.5h-2.69l.72.72a.75.75 0 0 1 0 1.06Z" clip-rule="evenodd"/></svg>
