<svg xmlns="http://www.w3.org/2000/svg" width="20" height="20" viewBox="0 0 20 20" fill="currentColor"><path fill-rule="evenodd" d="M15 11a4 4 0 1 1 0 8 4 4 0 0 1 0-8m0 1.5a.5.5 0 0 0-.5.5v2l.001.016a.5.5 0 0 0 .015.104l.002.01.021.065.007.013.022.04.025.041q.015.02.031.037l.036.04.027.021.051.038.013.009 1.226.705a.5.5 0 0 0 .499-.867l-.976-.562V13a.5.5 0 0 0-.5-.5" clip-rule="evenodd"/><path d="M8.163 1.7a8.503 8.503 0 0 1 10.314 7.654.75.75 0 1 1-1.495.113 7.002 7.002 0 1 0-7.47 7.518.75.75 0 0 1-.106 1.496A8.504 8.504 0 0 1 1.688 8.216 8.5 8.5 0 0 1 8.163 1.7"/><path d="M10.076 5.754a.7.7 0 0 1 .18.043l.032.011q.044.02.085.045.023.011.044.024.061.042.113.093l2.738 2.737a.75.75 0 0 1-1.06 1.06L10.75 8.312v3.19a.75.75 0 0 1-1.5 0V8.31l-1.72 1.72a.75.75 0 0 1-1.06-1.06l3-3a.8.8 0 0 1 .225-.156l.04-.015.085-.026.056-.014A1 1 0 0 1 10 5.75z"/></svg>