<svg width="20" height="20" viewBox="0 0 20 20" fill="none" xmlns="http://www.w3.org/2000/svg"><path fill-rule="evenodd" clip-rule="evenodd" d="M3.753 3a.75.75 0 0 1 .75.75v1.593c0 1.411 0 2.425.066 3.22.064.787.188 1.294.397 1.705a4.248 4.248 0 0 0 1.858 1.856c.411.21.919.333 1.706.397.796.065 1.81.065 3.223.065h2.616L12.65 10.96a.749.749 0 1 1 1.032-1.088l3.085 2.921a.749.749 0 0 1-.001 1.088l-3.085 2.915a.75.75 0 0 1-1.03-1.089l1.715-1.62H11.72c-1.372 0-2.448 0-3.312-.072-.88-.071-1.607-.22-2.265-.555a5.748 5.748 0 0 1-2.513-2.51c-.336-.658-.484-1.384-.556-2.264-.071-.863-.07-1.938-.07-3.308V3.749A.75.75 0 0 1 3.752 3z" fill="currentColor"/></svg>
