<svg xmlns="http://www.w3.org/2000/svg" width="20" height="20" fill="currentColor" viewBox="0 0 20 20"><path d="M9.97 6.47a.75.75 0 0 1 1.06 0l3 3 .016.018.015.016a.749.749 0 0 1 .12.188c.004.01.01.018.014.027.01.028.017.057.025.086a.748.748 0 0 1-.003.4c-.007.024-.012.049-.021.072l-.02.038a.759.759 0 0 1-.115.18l-.015.015-.016.02-3 3a.75.75 0 1 1-1.06-1.06l1.719-1.72h-5.19a.75.75 0 0 1 0-1.5h5.19l-1.72-1.72a.75.75 0 0 1 0-1.06Z"/><path fill-rule="evenodd" d="M3.99 3.99a8.5 8.5 0 1 1 12.02 12.02A8.5 8.5 0 0 1 3.99 3.99Zm10.96 1.06a7 7 0 1 0-9.9 9.9 7 7 0 0 0 9.9-9.9Z" clip-rule="evenodd"/></svg>