<svg xmlns="http://www.w3.org/2000/svg" width="20" height="20" fill="currentColor" viewBox="0 0 20 20"><path d="M10.525 6.965a.747.747 0 0 0-.238-.158Z M10.525 6.965a.747.747 0 0 0-1.055.005L7.22 9.22a.75.75 0 1 0 1.06 1.06l.97-.97v3.19a.75.75 0 0 0 1.5 0V9.31l.97.97a.75.75 0 1 0 1.06-1.06l-2.255-2.255Z"/><path fill-rule="evenodd" d="M14.51 3.05C13.896 3 13.135 3 12.183 3H7.817c-.952 0-1.713 0-2.327.05-.63.052-1.172.16-1.67.413a4.25 4.25 0 0 0-1.857 1.858c-.253.497-.361 1.04-.413 1.67-.05.613-.05 1.374-.05 2.326v1.366c0 .952 0 1.713.05 2.327.052.63.16 1.172.413 1.67a4.25 4.25 0 0 0 1.858 1.857c.497.253 1.04.361 1.67.413.613.05 1.374.05 2.326.05h4.366c.952 0 1.713 0 2.327-.05.63-.052 1.172-.16 1.67-.413a4.251 4.251 0 0 0 1.857-1.857c.253-.498.361-1.04.413-1.67.05-.614.05-1.375.05-2.327V9.317c0-.952 0-1.713-.05-2.327-.052-.63-.16-1.172-.413-1.67a4.25 4.25 0 0 0-1.857-1.857c-.498-.253-1.04-.361-1.67-.413ZM5.612 4.545c-.537.044-.86.127-1.11.255A2.75 2.75 0 0 0 3.3 6.002c-.128.25-.21.573-.255 1.11C3.001 7.658 3 8.358 3 9.35v1.3c0 .992 0 1.692.045 2.238.044.537.127.86.255 1.11A2.75 2.75 0 0 0 4.502 15.2c.25.128.573.21 1.11.255.546.044 1.246.045 2.238.045h4.3c.992 0 1.692 0 2.238-.045.537-.044.86-.127 1.11-.255A2.751 2.751 0 0 0 16.7 14c.128-.252.21-.574.255-1.111.044-.546.045-1.245.045-2.238v-1.3c0-.992 0-1.692-.045-2.238-.044-.537-.127-.86-.255-1.11A2.75 2.75 0 0 0 15.5 4.8c-.252-.128-.574-.21-1.111-.255-.546-.044-1.245-.045-2.238-.045h-4.3c-.992 0-1.692 0-2.238.045Z" clip-rule="evenodd"/></svg>
