<svg xmlns="http://www.w3.org/2000/svg" width="20" height="20" fill="currentColor" viewBox="0 0 20 20"><path fill-rule="evenodd" d="M8.317 2h3.366c.952 0 1.713 0 2.327.05.63.052 1.172.16 1.67.413a4.25 4.25 0 0 1 1.857 1.858c.253.497.361 1.04.413 1.67.05.613.05 1.374.05 2.326v3.366c0 .952 0 1.713-.05 2.327-.052.63-.16 1.172-.413 1.67a4.251 4.251 0 0 1-1.857 1.857c-.498.253-1.04.361-1.67.413-.614.05-1.375.05-2.327.05H8.317c-.952 0-1.713 0-2.327-.05-.63-.052-1.172-.16-1.67-.413a4.25 4.25 0 0 1-1.857-1.857c-.253-.498-.361-1.04-.413-1.67C2 13.396 2 12.635 2 11.683V8.317c0-.952 0-1.713.05-2.327.052-.63.16-1.172.413-1.67a4.25 4.25 0 0 1 1.858-1.857c.497-.253 1.04-.361 1.67-.413C6.603 2 7.364 2 8.316 2ZM6.112 3.545c-.537.044-.86.127-1.11.255A2.75 2.75 0 0 0 3.8 5.002c-.128.25-.21.573-.255 1.11-.044.546-.045 1.246-.045 2.238v3.3c0 .992 0 1.692.045 2.238.044.537.127.86.255 1.11A2.75 2.75 0 0 0 5.002 16.2c.25.128.573.21 1.11.255.546.044 1.246.045 2.238.045h3.3c.992 0 1.692 0 2.238-.045.537-.044.86-.127 1.11-.255A2.751 2.751 0 0 0 16.2 15c.128-.252.21-.574.255-1.111.044-.546.045-1.245.045-2.238v-3.3c0-.992 0-1.692-.045-2.238-.044-.537-.127-.86-.255-1.11A2.75 2.75 0 0 0 15 3.8c-.252-.128-.574-.21-1.111-.255-.546-.044-1.245-.045-2.238-.045h-3.3c-.992 0-1.692 0-2.238.045ZM10.22 6.97a.75.75 0 0 1 1.06 0l2.5 2.5a.75.75 0 0 1 0 1.06l-2.5 2.5a.75.75 0 1 1-1.06-1.06l1.22-1.22H6.75a.75.75 0 0 1 0-1.5h4.69l-1.22-1.22a.75.75 0 0 1 0-1.06Z" clip-rule="evenodd"/></svg>
