<svg width="20" height="20" viewBox="0 0 20 20" fill="none" xmlns="http://www.w3.org/2000/svg">
<path d="M17.2473 14.5C17.6677 14.5 18 14.8358 18 15.25L17.9931 15.3524C17.9433 15.7203 17.6284 16 17.2473 16H4.7527C4.33226 16 4 15.6642 4 15.25C4 14.8329 4.337 14.5 4.7527 14.5H17.2473ZM17.2484 9.5C17.6673 9.5 18 9.83579 18 10.25C18 10.6671 17.6635 11 17.2484 11H8.75163C8.33272 11 8 10.6642 8 10.25L8.00686 10.1476C8.05663 9.77973 8.37111 9.5 8.75163 9.5H17.2484ZM8.24738 3C8.65625 3 9 3.33579 9 3.75L8.99313 3.85238C8.94329 4.22027 8.6284 4.5 8.24738 4.5H5.75V10.25C5.75 10.6642 5.41421 11 5 11C4.58579 11 4.25 10.6642 4.25 10.25V4.5H1.75262C1.37782 4.5 1.05774 4.21785 1.007 3.85177L1 3.75C1 3.3329 1.33696 3 1.75262 3H8.24738ZM17.2509 4.5C17.6624 4.5 18 4.83579 18 5.25C18 5.6671 17.6646 6 17.2509 6H11.7491C11.3376 6 11 5.66421 11 5.25L11.0068 5.14762C11.0564 4.77973 11.3699 4.5 11.7491 4.5H17.2509Z" fill="currentColor"/>
</svg>
