<svg xmlns="http://www.w3.org/2000/svg" width="20" height="20" fill="currentColor" viewBox="0 0 20 20"><path d="M6.75 6a.75.75 0 0 0 0 1.5h6.5a.75.75 0 0 0 0-1.5h-6.5ZM6 10a.75.75 0 0 1 .75-.75h4.5a.75.75 0 0 1 0 1.5h-4.5A.75.75 0 0 1 6 10Z"/><path fill-rule="evenodd" d="M10.683 1.5H9.317c-.952 0-1.713 0-2.327.05-.63.052-1.172.16-1.67.413a4.25 4.25 0 0 0-1.857 1.858c-.253.497-.361 1.04-.413 1.67C3 6.103 3 6.864 3 7.816v4.366c0 .952 0 1.713.05 2.327.052.63.16 1.172.413 1.67a4.25 4.25 0 0 0 1.858 1.857c.497.253 1.04.361 1.67.413.613.05 1.374.05 2.326.05h1.366c.952 0 1.713 0 2.327-.05.63-.052 1.172-.16 1.67-.413a4.251 4.251 0 0 0 1.857-1.857c.253-.498.361-1.04.413-1.67.05-.614.05-1.375.05-2.327V7.817c0-.952 0-1.713-.05-2.327-.052-.63-.16-1.172-.413-1.67a4.25 4.25 0 0 0-1.857-1.857c-.498-.253-1.04-.361-1.67-.413-.614-.05-1.375-.05-2.327-.05ZM6.002 3.3c.25-.128.573-.21 1.11-.255C7.658 3.001 8.358 3 9.35 3h1.3c.992 0 1.692 0 2.238.045.537.044.86.127 1.11.255A2.75 2.75 0 0 1 15.2 4.502c.128.25.21.573.255 1.11.044.546.045 1.246.045 2.238v4.3c0 .992 0 1.692-.045 2.238-.044.537-.127.86-.255 1.11A2.751 2.751 0 0 1 14 16.7c-.252.128-.574.21-1.111.255-.546.044-1.245.045-2.238.045h-1.3c-.992 0-1.692 0-2.238-.045-.537-.044-.86-.127-1.11-.255A2.75 2.75 0 0 1 4.8 15.5c-.128-.252-.21-.574-.255-1.111-.044-.546-.045-1.245-.045-2.238v-4.3c0-.992 0-1.692.045-2.238.044-.537.127-.86.255-1.11A2.75 2.75 0 0 1 6.002 3.3Z" clip-rule="evenodd"/></svg>
