<svg xmlns="http://www.w3.org/2000/svg" width="20" height="20" fill="currentColor" viewBox="0 0 20 20"><path fill-rule="evenodd" d="M10.75 5.642v10.335a8.197 8.197 0 0 1 .753-.303.75.75 0 0 1 .49 1.417 7.386 7.386 0 0 0-1.585.788.75.75 0 0 1-.816 0c-1.205-.783-2.348-1.12-3.856-1.192l-.027-.001c-.67-.032-1.21-.057-1.632-.104-.42-.047-.817-.123-1.156-.31a2.579 2.579 0 0 1-1.139-1.194c-.165-.335-.226-.698-.254-1.082a20.65 20.65 0 0 1-.028-1.404V6.028c0-.36 0-.677.023-.943.025-.285.079-.565.218-.841.205-.405.567-.772.97-.982.478-.25 1.002-.255 1.587-.262l.116-.001c2.253-.03 3.91.355 5.583 1.346 1.676-.993 3.334-1.377 5.59-1.346l.116.001c.584.007 1.108.013 1.587.263.403.21.764.576.969.982.14.276.194.556.218.841.023.265.023.582.023.943v5.121a.75.75 0 0 1-1.5 0V6.058c0-.398 0-.65-.017-.843a.814.814 0 0 0-.063-.295.838.838 0 0 0-.323-.327c-.123-.064-.261-.084-1.03-.094-2.026-.028-3.408.306-4.817 1.143Zm-1.5.003C7.84 4.807 6.458 4.472 4.433 4.5c-.769.01-.907.03-1.03.093a.838.838 0 0 0-.323.328c-.021.042-.047.114-.063.295-.016.193-.017.444-.017.843v6.506c0 .6 0 1.008.024 1.32.022.31.064.45.104.532.13.265.26.4.518.543.07.038.222.09.597.132.368.041.86.065 1.563.098 1.279.06 2.376.295 3.444.788V5.645Zm-5 2.257a.75.75 0 0 1 .775-.724c.833.028 1.688.134 2.441.366a.75.75 0 0 1-.441 1.433c-.585-.18-1.298-.275-2.05-.3a.75.75 0 0 1-.725-.775Zm0 3.815a.75.75 0 0 1 .775-.724c.833.027 1.688.134 2.441.366a.75.75 0 1 1-.441 1.433c-.585-.18-1.298-.275-2.05-.3a.75.75 0 0 1-.725-.775Z M19.684 14.931a.67.67 0 0 1 0 1.138l-4.737 2.842c-.42.253-.947-.063-.947-.568v-5.686c0-.505.526-.82.947-.568l4.737 2.842Z"/></svg>
