<svg xmlns="http://www.w3.org/2000/svg" width="20" height="20" fill="currentColor" viewBox="0 0 20 20"><path fill-rule="evenodd" d="M8.386 2.087a2.252 2.252 0 0 1 3.238 0l.66.683a.75.75 0 0 0 .619.225l.946-.1a2.25 2.25 0 0 1 2.48 2.081l.067.948a.75.75 0 0 0 .328.57l.789.531a2.25 2.25 0 0 1 .562 3.187l-.559.77a.75.75 0 0 0-.114.647l.262.913a2.25 2.25 0 0 1-1.62 2.803l-.922.23a.75.75 0 0 0-.504.423l-.387.868a2.252 2.252 0 0 1-3.042 1.107l-.855-.417a.75.75 0 0 0-.658 0l-.855.417a2.252 2.252 0 0 1-3.043-1.107l-.387-.868a.75.75 0 0 0-.503-.423l-.923-.23a2.25 2.25 0 0 1-1.62-2.803l.263-.913a.75.75 0 0 0-.115-.648l-.558-.769a2.25 2.25 0 0 1 .562-3.187l.788-.532a.75.75 0 0 0 .329-.569l.067-.948a2.25 2.25 0 0 1 2.48-2.08l.946.099a.75.75 0 0 0 .618-.225l.66-.683Zm2.159 1.042a.75.75 0 0 0-1.08 0l-.66.683a2.252 2.252 0 0 1-1.854.675l-.946-.1a.75.75 0 0 0-.827.694l-.067.948a2.25 2.25 0 0 1-.986 1.708l-.788.532a.75.75 0 0 0-.188 1.062l.559.77c.407.56.533 1.275.342 1.94l-.261.915a.75.75 0 0 0 .54.934l.922.23a2.25 2.25 0 0 1 1.511 1.267l.387.869a.75.75 0 0 0 1.015.368l.855-.416a2.253 2.253 0 0 1 1.972 0l.855.416a.75.75 0 0 0 1.014-.368l.388-.869a2.25 2.25 0 0 1 1.51-1.267l.923-.23a.75.75 0 0 0 .54-.934l-.262-.914a2.249 2.249 0 0 1 .343-1.942l.559-.77a.75.75 0 0 0-.188-1.061l-.788-.532a2.25 2.25 0 0 1-.986-1.708l-.067-.948a.75.75 0 0 0-.827-.693l-.946.099a2.252 2.252 0 0 1-1.854-.675l-.66-.683Z M13.007 9.991a.75.75 0 0 1-.75.75H7.753a.75.75 0 1 1 0-1.5h4.502a.75.75 0 0 1 .75.75Z" clip-rule="evenodd"/><path fill-rule="evenodd" d="M10.005 12.991a.75.75 0 0 1-.75-.75v-4.5a.75.75 0 0 1 1.5 0v4.5a.75.75 0 0 1-.75.75Z" clip-rule="evenodd"/></svg>
