<svg xmlns="http://www.w3.org/2000/svg" width="20" height="20" fill="currentColor" viewBox="0 0 20 20"><path fill-rule="evenodd" d="M7.975 2.325A2.066 2.066 0 0 1 9.904 1h.192c.855 0 1.622.527 1.928 1.325.035.088.065.176.092.253l.009.025.067.19c.049.133.091.225.136.295l.007.011c.144.227.415.652.415 1.251v.134l.021.011c.424.216.768.56.984.984.144.283.198.578.222.875.023.28.023.622.023 1.017v.008c.319.213.58.505.755.85.144.283.198.578.222.875.023.28.023.622.023 1.017v5.258c0 .395 0 .736-.023 1.017a2.29 2.29 0 0 1-.222.875 2.25 2.25 0 0 1-.984.984 2.29 2.29 0 0 1-.875.222c-.28.023-.622.023-1.017.023H8.12c-.395 0-.736 0-1.017-.023a2.29 2.29 0 0 1-.875-.222 2.25 2.25 0 0 1-.984-.983 2.304 2.304 0 0 1-.222-.876C5 16.116 5 15.774 5 15.38v-5.26c0-.395 0-.736.023-1.017a2.29 2.29 0 0 1 .222-.875A2.25 2.25 0 0 1 6 7.379v-.008c0-.395 0-.736.023-1.017a2.29 2.29 0 0 1 .222-.875 2.25 2.25 0 0 1 .984-.984l.021-.01V4.35c0-.6.27-1.024.415-1.25l.007-.012c.045-.07.087-.162.136-.295l.067-.19.01-.025c.026-.077.056-.165.09-.253ZM12.5 7a7.294 7.294 0 0 0-.017-.524c-.017-.204-.045-.28-.064-.316a.75.75 0 0 0-.327-.328c-.038-.02-.113-.047-.317-.064a12.747 12.747 0 0 0-.924-.018h-1.7c-.432 0-.712 0-.924.018-.204.017-.28.045-.316.064a.75.75 0 0 0-.328.328c-.02.037-.047.112-.064.316A7.313 7.313 0 0 0 7.5 7h4.998ZM8.15 8.5c-.432 0-.712 0-.924.018-.204.017-.28.045-.316.064a.75.75 0 0 0-.328.328c-.02.037-.047.112-.064.316-.017.212-.018.492-.018.924v.35h1.25a.75.75 0 0 1 0 1.5H6.5v1.5h2.75a.75.75 0 0 1 0 1.5H6.5v.35c0 .432 0 .712.018.924.017.204.045.28.064.316a.75.75 0 0 0 .328.328c.037.02.112.047.316.064.212.017.492.018.924.018h3.7c.432 0 .712 0 .924-.018.204-.017.28-.045.317-.064a.75.75 0 0 0 .327-.328c.02-.037.047-.112.064-.316.017-.212.018-.492.018-.924v-5.2c0-.432 0-.712-.018-.924-.017-.204-.045-.28-.064-.316a.75.75 0 0 0-.327-.328c-.038-.02-.113-.047-.317-.064a12.747 12.747 0 0 0-.924-.018h-3.7Zm1.754-6a.566.566 0 0 0-.529.363 6.5 6.5 0 0 0-.073.205l-.009.025c-.023.068-.05.145-.078.22a3.02 3.02 0 0 1-.278.58c-.102.162-.156.26-.177.357h2.48c-.02-.096-.075-.195-.177-.356a3.018 3.018 0 0 1-.278-.58l-.078-.22-.009-.026a6.308 6.308 0 0 0-.074-.205.566.566 0 0 0-.528-.363h-.192Z" clip-rule="evenodd"/></svg>
