<svg xmlns="http://www.w3.org/2000/svg" width="20" height="20" fill="currentColor" viewBox="0 0 20 20"><path d="M8.055 11.883c0 .357.205.617.677.617h2.741c.362 0 .567-.22.567-.54 0-.327-.205-.539-.567-.539H9.908v-.027l.899-.765c.765-.654 1.107-.995 1.107-1.649 0-.883-.766-1.48-1.965-1.48-.862 0-1.555.36-1.815.94a.774.774 0 0 0-.065.318c0 .343.225.556.595.556.276 0 .45-.101.642-.378.185-.263.362-.38.622-.38.352 0 .591.212.591.519 0 .29-.157.502-.71.97l-1.357 1.147c-.274.226-.397.428-.397.691Z"/><path fill-rule="evenodd" d="M10 1.5a8.5 8.5 0 1 0 0 17 8.5 8.5 0 0 0 0-17ZM3 10c0-.87.159-1.703.449-2.471.241.196.444.42.604.678.269.433.447 1.006.447 1.793 0 .787-.178 1.36-.447 1.793-.16.257-.363.482-.604.678A6.984 6.984 0 0 1 3 10Zm2.327-2.585a4.305 4.305 0 0 0-1.188-1.244 7.038 7.038 0 0 1 2.032-2.032c.325.46.732.87 1.244 1.188C8.12 5.765 8.976 6 10 6s1.88-.235 2.585-.673a4.306 4.306 0 0 0 1.244-1.188 7.037 7.037 0 0 1 2.032 2.032c-.46.325-.87.732-1.188 1.244C14.235 8.12 14 8.976 14 10s.236 1.88.673 2.585c.318.512.728.919 1.188 1.244a7.037 7.037 0 0 1-2.032 2.032 4.304 4.304 0 0 0-1.244-1.188C11.88 14.235 11.024 14 10 14s-1.88.236-2.585.673a4.304 4.304 0 0 0-1.244 1.188 7.037 7.037 0 0 1-2.032-2.032c.46-.325.87-.732 1.188-1.244C5.765 11.88 6 11.024 6 10s-.235-1.88-.673-2.585Zm11.224 5.056c.29-.768.449-1.601.449-2.471 0-.87-.159-1.703-.449-2.471a2.72 2.72 0 0 0-.604.678C15.678 8.64 15.5 9.213 15.5 10c0 .787.178 1.36.447 1.793.16.257.363.482.604.678Zm-9.022 4.08C8.297 16.841 9.13 17 10 17c.87 0 1.703-.159 2.471-.449a2.725 2.725 0 0 0-.678-.604c-.433-.269-1.006-.447-1.793-.447-.787 0-1.36.178-1.793.447-.257.16-.482.363-.678.604Zm.678-12.498a2.726 2.726 0 0 1-.678-.604A6.984 6.984 0 0 1 10 3c.87 0 1.703.159 2.471.449a2.72 2.72 0 0 1-.678.604c-.433.269-1.006.447-1.793.447-.786 0-1.36-.178-1.793-.447Z" clip-rule="evenodd"/></svg>
