<svg xmlns="http://www.w3.org/2000/svg" width="20" height="20" viewBox="0 0 20 20" fill="currentColor"><path fill-rule="evenodd" d="M13.111 11.001a1.44 1.44 0 0 1 1.556 0 1.44 1.44 0 0 0 1.556 0l.13-.085.053-.03a.42.42 0 0 1 .594.384v4.033c0 1.12 0 1.68-.218 2.108a2 2 0 0 1-.874.874c-.32.164-.716.205-1.366.215l-.742.003H6.2c-1.12 0-1.68 0-2.108-.218a2 2 0 0 1-.874-.874C3 16.983 3 16.423 3 15.303v-3.478l.005-.074a.6.6 0 0 1 .266-.424l.506-.326.091-.054a1.44 1.44 0 0 1 1.465.054 1.44 1.44 0 0 0 1.556 0 1.44 1.44 0 0 1 1.555 0 1.44 1.44 0 0 0 1.466.054l.18-.108a1.44 1.44 0 0 1 1.466.054 1.44 1.44 0 0 0 1.555 0m.778 1.282a2.94 2.94 0 0 1-3.11 0 2.94 2.94 0 0 1-3.112 0 2.93 2.93 0 0 1-3.11 0l-.057.037v2.983c0 .584.001.933.022 1.191.02.24.05.268.033.236a.5.5 0 0 0 .218.218c-.032-.016-.005.013.236.032.258.022.607.023 1.191.023h7.6c.584 0 .933-.002 1.191-.023.24-.02.268-.048.236-.032a.5.5 0 0 0 .218-.218c-.017.032.013.005.032-.236.021-.258.023-.607.023-1.191v-2.575a2.93 2.93 0 0 1-1.61-.445M13.797 1.5c1.119 0 1.679.001 2.106.219a2 2 0 0 1 .874.873c.218.427.219.987.22 2.106L17 8.176c0 .202-.103.39-.273.5L16.223 9l-.091.054A1.44 1.44 0 0 1 14.667 9a1.44 1.44 0 0 0-1.556 0 1.44 1.44 0 0 1-1.555 0A1.44 1.44 0 0 0 10 9a1.44 1.44 0 0 1-1.556 0A1.44 1.44 0 0 0 6.89 9a1.44 1.44 0 0 1-1.556 0 1.44 1.44 0 0 0-1.555 0l-.132.085-.052.028a.42.42 0 0 1-.59-.321L3 8.732l-.004-4.029c0-1.12 0-1.681.217-2.11.191-.376.497-.682.874-.874.428-.218.988-.219 2.11-.219zm-7.6 1.501c-.586 0-.935.001-1.193.022-.24.02-.268.05-.236.033a.5.5 0 0 0-.218.218c.016-.032-.013-.005-.033.236-.02.258-.021.607-.021 1.192l.002 2.571a2.94 2.94 0 0 1 1.613.445 2.94 2.94 0 0 1 3.112 0 2.94 2.94 0 0 1 3.11 0 2.94 2.94 0 0 1 3.11 0l.056-.037-.002-2.982c0-.584-.002-.932-.024-1.19-.02-.24-.048-.268-.032-.236a.5.5 0 0 0-.218-.217c.032.016.004-.013-.236-.033-.258-.02-.606-.022-1.19-.022z" clip-rule="evenodd"/></svg>