<svg width="20" height="20" viewBox="0 0 20 20" fill="none" xmlns="http://www.w3.org/2000/svg">
<path fill-rule="evenodd" clip-rule="evenodd" d="M10 18.5C14.6944 18.5 18.5 14.6944 18.5 10C18.5 5.30558 14.6944 1.5 10 1.5C5.30558 1.5 1.5 5.30558 1.5 10C1.5 14.6944 5.30558 18.5 10 18.5ZM14.3911 15.4518C13.1902 16.4202 11.6628 17 10 17C6.13401 17 3 13.866 3 10C3 8.33717 3.57979 6.80976 4.54824 5.6089L14.3911 15.4518ZM15.4518 14.3911L5.6089 4.54824C6.80976 3.57979 8.33717 3 10 3C13.866 3 17 6.13401 17 10C17 11.6628 16.4202 13.1902 15.4518 14.3911Z" fill="currentColor"/>
</svg>
