<svg xmlns="http://www.w3.org/2000/svg" width="20" height="20" fill="currentColor" viewBox="0 0 20 20"><path fill-rule="evenodd" d="M7.388 1.62c-.16-.046-.336-.044-.426-.043h-.046c-.498 0-.967.21-1.35.446a7.04 7.04 0 0 0-1.128.899c-.695.663-1.31 1.432-1.652 1.881l-.019.025a1.412 1.412 0 0 0-.28.527c-.047.202-.037.419.028.616.08.237.25.42.33.506l.023.024 1.48 1.627a5.14 5.14 0 0 1 .143.162c.003.004.004.009.006.014l.001.023c.002.039.002.092.002.193v4.269c0 .386 0 .707.059.964.024.105.051.215.098.331.046.117.101.216.156.31.086.146.21.293.332.43.13.145.303.328.519.558l.008.008c.593.63 1.214 1.428 1.653 2.018l.044.06c.18.243.354.479.572.645.194.148.4.252.635.32.262.075.546.074.836.074h1.177c.29 0 .573 0 .836-.075.234-.067.44-.17.634-.319.217-.165.392-.401.572-.644l.044-.06c.439-.59 1.062-1.39 1.656-2.019l.008-.008c.216-.23.389-.413.518-.557.123-.138.247-.284.333-.431.055-.094.11-.193.156-.31a2.23 2.23 0 0 0 .098-.331c.06-.257.06-.578.059-.964v-4.27a5.078 5.078 0 0 1 .003-.216.077.077 0 0 1 .005-.013 4.933 4.933 0 0 1 .143-.162l1.48-1.628.022-.024c.081-.087.251-.27.33-.507.066-.196.075-.414.027-.615-.057-.243-.208-.435-.279-.527l-.02-.025a16.572 16.572 0 0 0-1.65-1.881 7.043 7.043 0 0 0-1.129-.899c-.383-.236-.852-.446-1.35-.446h-.049c-.089-.001-.264-.003-.423.042a1.084 1.084 0 0 0-.57.376 5.191 5.191 0 0 0-.123.156l-.006.008c-.335.436-1.007 1.095-1.913 1.095-.915 0-1.58-.656-1.911-1.09l-.007-.008a5.206 5.206 0 0 0-.122-.157 1.083 1.083 0 0 0-.572-.38Zm-.49 1.457c-.097.006-.276.057-.545.223a5.573 5.573 0 0 0-.88.707A14.805 14.805 0 0 0 4.07 5.594l1.387 1.524.027.029c.1.11.22.241.31.397.076.136.133.283.167.435.04.175.04.352.039.502V12.7c0 .525.005.652.02.716.02.09.028.11.03.116a.637.637 0 0 0 .09.15l.124.144c.115.128.274.297.5.537.653.693 1.316 1.547 1.765 2.152.256.345.297.387.323.407a.378.378 0 0 0 .138.07c.031.009.084.016.491.016h1.039c.407 0 .46-.007.49-.017a.377.377 0 0 0 .139-.069c.025-.02.066-.062.322-.406.45-.605 1.114-1.46 1.768-2.154.226-.24.385-.408.5-.536a3.426 3.426 0 0 0 .156-.19c.047-.08.054-.097.057-.104a.878.878 0 0 0 .03-.115c.016-.066.02-.191.02-.717V8.481c0-.15 0-.327.04-.502.034-.152.09-.299.167-.434.089-.156.208-.287.31-.398l.025-.028 1.386-1.525a14.8 14.8 0 0 0-1.404-1.587 5.575 5.575 0 0 0-.88-.707c-.27-.167-.45-.218-.547-.223-.405.526-1.464 1.677-3.099 1.677-1.643 0-2.697-1.147-3.101-1.677Z" clip-rule="evenodd"/></svg>
