<svg xmlns="http://www.w3.org/2000/svg" width="20" height="20" fill="currentColor" viewBox="0 0 20 20"><path d="M9.317 1.5h1.366c.952 0 1.713 0 2.327.05.63.052 1.172.16 1.67.413a4.25 4.25 0 0 1 1.857 1.858c.253.497.361 1.04.413 1.67.05.613.05 1.374.05 2.326V8.87a.75.75 0 0 1-1.5 0V7.85c0-.992 0-1.692-.045-2.238-.044-.537-.127-.86-.255-1.11A2.75 2.75 0 0 0 14 3.3c-.252-.128-.574-.21-1.111-.255C12.342 3.001 11.643 3 10.65 3h-1.3c-.992 0-1.692 0-2.238.045-.537.044-.86.127-1.11.255A2.75 2.75 0 0 0 4.8 4.502c-.128.25-.21.573-.255 1.11-.044.546-.045 1.246-.045 2.238v6.5c0 .823 0 1.388.038 1.802.04.429.109.541.127.565a.75.75 0 0 0 .591.28c.03 0 .161-.018.518-.259.344-.233.782-.59 1.42-1.111l.832-.68a58.8 58.8 0 0 1 .225-.183l1.021-.834a.75.75 0 0 1 .949 1.161l-2.29 1.872-.015.01c-.512.419-.94.763-1.302 1.008-.402.271-.847.512-1.345.516a2.25 2.25 0 0 1-1.773-.84c-.312-.389-.408-.886-.452-1.37C3 15.798 3 15.165 3 14.388v-6.57c0-.952 0-1.713.05-2.327.052-.63.16-1.172.413-1.67a4.25 4.25 0 0 1 1.858-1.857c.497-.253 1.04-.361 1.67-.413.613-.05 1.374-.05 2.326-.05Z M12 15.315c0-.46 0-.69.09-.866a.82.82 0 0 1 .359-.36c.13-.066.29-.083.551-.087v-.752a2.25 2.25 0 0 1 4.5 0v.752c.261.004.421.021.551.088a.82.82 0 0 1 .36.359c.089.175.089.405.089.866v1.87c0 .46 0 .69-.09.866a.82.82 0 0 1-.359.36c-.175.089-.405.089-.866.089h-3.87c-.46 0-.69 0-.866-.09a.82.82 0 0 1-.36-.359C12 17.876 12 17.646 12 17.185v-1.87ZM16.5 14v-.75a1.25 1.25 0 1 0-2.5 0V14h2.5Z" clip-rule="evenodd"/></svg>
