<svg xmlns="http://www.w3.org/2000/svg" width="20" height="20" fill="currentColor" viewBox="0 0 20 20"><path fill-rule="evenodd" d="M10 4.346C8.326 3.355 6.668 2.97 4.414 3h-.116c-.585.007-1.109.013-1.588.262a2.34 2.34 0 0 0-.969.982 2.255 2.255 0 0 0-.218.842c-.023.265-.023.582-.023.943v6.564c0 .564 0 1.028.028 1.403.028.384.09.747.254 1.082.266.54.612.903 1.14 1.194.338.187.736.263 1.155.31.422.047.961.073 1.632.104l.027.001c1.506.071 2.649.41 3.853 1.19a.748.748 0 0 0 .769.032l.02-.011a.669.669 0 0 0 .033-.02c1.206-.782 2.349-1.124 3.855-1.198h.026c.672-.034 1.213-.06 1.635-.108.419-.048.817-.124 1.155-.311a2.576 2.576 0 0 0 1.136-1.194c.165-.335.226-.698.254-1.082.028-.374.028-.838.028-1.403v-6.55c0-.36 0-.678-.023-.943a2.245 2.245 0 0 0-.218-.842 2.331 2.331 0 0 0-.969-.981c-.479-.25-1.003-.256-1.587-.263l-.116-.001c-2.255-.03-3.912.353-5.587 1.344Zm.75 1.3v10.33c1.067-.493 2.164-.731 3.442-.794a27.68 27.68 0 0 0 1.566-.1c.376-.043.529-.096.597-.134a1.09 1.09 0 0 0 .517-.542c.04-.083.082-.223.104-.531.024-.313.024-.722.024-1.321V6.06c0-.398 0-.65-.017-.843a.814.814 0 0 0-.063-.295.838.838 0 0 0-.323-.327c-.123-.064-.261-.084-1.03-.094-2.026-.028-3.408.306-4.817 1.143Zm-1.5 0c-1.41-.839-2.792-1.174-4.817-1.147-.769.01-.907.03-1.03.094a.838.838 0 0 0-.323.327.814.814 0 0 0-.063.295A10.98 10.98 0 0 0 3 6.058v6.506c0 .6 0 1.009.024 1.321.022.309.064.449.104.531.13.265.26.4.518.543.07.038.222.09.597.132.368.041.86.065 1.563.098 1.279.06 2.376.295 3.444.788V5.646Z" clip-rule="evenodd"/></svg>
