<svg fill="none" height="20" viewBox="0 0 20 20" width="20" xmlns="http://www.w3.org/2000/svg"><path clip-rule="evenodd" d="m6.91957 1.5h.03043 6.1.0304c.5342-.00001.98-.00002 1.3443.02974.3799.03104.7365.09815 1.0738.26999.5174.26366.9381.68435 1.2018 1.2018.1718.33726.2389.69392.27 1.0738.0297.36422.0297.81005.0297 1.34418v.03049 9.3c0 .4142-.3358.75-.75.75h-.1885c-.0335.1873-.0615.4371-.0615.75s.028.5627.0615.75h.1885c.4142 0 .75.3358.75.75s-.3358.75-.75.75h-10.99999c-1.24265 0-2.25001-1.0073-2.25001-2.25v-10.8-.03043c-.00001-.53415-.00002-.98001.02974-1.34424.03104-.37988.09815-.73654.26999-1.0738.26366-.51745.68435-.93814 1.2018-1.2018.33726-.17184.69392-.23895 1.0738-.26999.36423-.02976.81009-.02975 1.34424-.02974zm7.62533 15.5c-.0272-.218-.0449-.4681-.0449-.75s.0177-.532.0449-.75h-9.29489c-.41422 0-.75001.3358-.75001.75s.33579.75.75001.75zm.9551-11.55v8.55h-10.24999c-.26298 0-.51542.0451-.75001.128v-8.678c0-.57243.00058-.95664.02476-1.25252.02346-.28712.06534-.42441.11148-.51497.11984-.2352.31107-.42642.54627-.54627.09056-.04614.22785-.08802.51497-.11148.29588-.02417.68009-.02476 1.25252-.02476h6.1c.5724 0 .9566.00059 1.2525.02476.2871.02346.4244.06534.515.11148.2352.11985.4264.31107.5463.54627.0461.09056.088.22785.1114.51497.0242.29588.0248.68009.0248 1.25252z" fill="currentColor" fill-rule="evenodd"/></svg>
