<svg xmlns="http://www.w3.org/2000/svg" width="20" height="20" fill="none" viewBox="0 0 20 20"><path fill="currentColor" fill-rule="evenodd" d="M9.3174 1.5h1.3652c.9525 0 1.713 0 2.3273.0502.63.0514 1.1719.1594 1.6696.413a4.2506 4.2506 0 0 1 1.8573 1.8573c.2536.4977.3616 1.0396.413 1.6696C17 6.1044 17 6.865 17 7.8174v6.5697c0 .7763 0 1.4108-.0444 1.9005-.0438.4831-.1397.9804-.4515 1.3685a2.2497 2.2497 0 0 1-1.7729.8408c-.4979-.0042-.9437-.2446-1.3454-.5163-.4074-.2756-.8986-.677-1.4997-1.1683l-.842-.6881c-.2791-.2281-.4572-.373-.6021-.4745-.1371-.0961-.2015-.1216-.239-.1322a.7504.7504 0 0 0-.406 0c-.0375.0106-.1019.0361-.239.1322-.1449.1015-.323.2464-.6021.4745l-.842.6881c-.6011.4913-1.0923.8927-1.4997 1.1683-.4017.2717-.8475.5121-1.3454.5163a2.2498 2.2498 0 0 1-1.7729-.8408c-.3118-.3881-.4077-.8854-.4515-1.3685C3 15.7979 3 15.1635 3 14.3871V7.8174c0-.9525 0-1.713.0502-2.3273.0514-.63.1594-1.1719.413-1.6696a4.25 4.25 0 0 1 1.8573-1.8573c.4977-.2536 1.0396-.3616 1.6696-.413C7.6044 1.5 8.365 1.5 9.3174 1.5ZM7.1123 3.0452c-.5373.0439-.8598.1266-1.1108.2545a2.75 2.75 0 0 0-1.2018 1.2018c-.1279.251-.2106.5735-.2545 1.1108C4.5006 6.1583 4.5 6.8575 4.5 7.85v6.4992c0 .8235.0008 1.3892.0383 1.803.0388.4284.1082.5411.127.5645a.7501.7501 0 0 0 .591.2803c.03-.0003.1612-.0179.5175-.2589.3441-.2328.7826-.5902 1.4203-1.1113l.8322-.6801c.2538-.2074.4751-.3883.671-.5256.2088-.1462.4302-.2735.6937-.3476a2.2514 2.2514 0 0 1 1.218 0c.2635.0741.4849.2014.6936.3476.196.1373.4173.3182.6711.5256l.8322.6801c.6377.5211 1.0762.8785 1.4203 1.1113.3563.241.4876.2586.5175.2589a.7502.7502 0 0 0 .591-.2803c.0188-.0234.0882-.1361.127-.5645.0376-.4138.0383-.9795.0383-1.803V7.85c0-.9925-.0006-1.6917-.0452-2.2377-.0439-.5373-.1266-.8598-.2545-1.1108a2.7505 2.7505 0 0 0-1.2018-1.2018c-.251-.1279-.5735-.2106-1.1108-.2545C12.3417 3.0006 11.6425 3 10.65 3h-1.3c-.9925 0-1.6917.0006-2.2377.0452Z" clip-rule="evenodd"/></svg>
