<svg xmlns="http://www.w3.org/2000/svg" width="20" height="20" viewBox="0 0 20 20" fill="currentColor"><path d="M10.393 5.517a.75.75 0 0 1 .681.812l-.654 7.472a.75.75 0 1 1-1.494-.131L9.58 6.2a.75.75 0 0 1 .813-.683M6.72 7.97a.75.75 0 0 1 1.06 1.06l-.97.97.97.97a.75.75 0 0 1-1.06 1.06l-1.5-1.5a.75.75 0 0 1 0-1.06zm5.5 0a.75.75 0 0 1 1.06 0l1.5 1.5a.75.75 0 0 1 0 1.06l-1.5 1.5a.75.75 0 0 1-1.06-1.06l.97-.97-.97-.97a.75.75 0 0 1 0-1.06"/><path fill-rule="evenodd" d="M11.65 2c.968 0 1.739 0 2.36.05.63.051 1.172.16 1.67.413a4.25 4.25 0 0 1 1.857 1.857c.254.498.362 1.04.413 1.67.05.621.05 1.392.05 2.36v3.3c0 .968 0 1.739-.05 2.36-.051.63-.16 1.172-.413 1.67a4.25 4.25 0 0 1-1.857 1.857c-.498.254-1.04.362-1.67.413-.621.05-1.392.05-2.36.05h-3.3c-.968 0-1.739 0-2.36-.05-.63-.051-1.172-.16-1.67-.413a4.25 4.25 0 0 1-1.857-1.857c-.254-.498-.362-1.04-.413-1.67C2 13.389 2 12.618 2 11.65v-3.3c0-.968 0-1.739.05-2.36.051-.63.16-1.172.413-1.67A4.25 4.25 0 0 1 4.32 2.463c.498-.254 1.04-.362 1.67-.413C6.611 2 7.382 2 8.35 2zm-3.3 1.5c-.993 0-1.692 0-2.238.045-.537.044-.86.127-1.11.255A2.75 2.75 0 0 0 3.8 5.002c-.128.25-.211.573-.255 1.11C3.5 6.658 3.5 7.357 3.5 8.35v3.3c0 .993 0 1.692.045 2.238.044.537.127.86.255 1.11.263.518.685.939 1.202 1.202.25.128.573.211 1.11.255.546.045 1.245.045 2.238.045h3.3c.993 0 1.692 0 2.238-.045.537-.044.86-.127 1.11-.255a2.75 2.75 0 0 0 1.202-1.202c.128-.25.211-.573.255-1.11.045-.546.045-1.245.045-2.238v-3.3c0-.993 0-1.692-.045-2.238-.044-.537-.127-.86-.255-1.11A2.75 2.75 0 0 0 14.998 3.8c-.25-.128-.573-.211-1.11-.255-.546-.045-1.245-.045-2.238-.045z" clip-rule="evenodd"/></svg>