<svg xmlns="http://www.w3.org/2000/svg" width="20" height="20" fill="currentColor" viewBox="0 0 20 20"><path fill-rule="evenodd" d="M6.029 5.221a.75.75 0 0 1 0 1.061L2.31 10.001l3.718 3.718a.75.75 0 0 1-1.06 1.06l-4.25-4.248a.75.75 0 0 1 0-1.06l4.25-4.25a.75.75 0 0 1 1.06 0Zm7.942 0a.75.75 0 0 0 0 1.061l3.718 3.719-3.718 3.718a.75.75 0 0 0 1.06 1.06l4.25-4.248a.75.75 0 0 0 0-1.06l-4.25-4.25a.75.75 0 0 0-1.06 0Zm-1.499-3.187a.75.75 0 0 1 .494.938l-4.5 14.5a.75.75 0 1 1-1.432-.444l4.5-14.5a.75.75 0 0 1 .938-.494Z" clip-rule="evenodd"/></svg>
