<svg xmlns="http://www.w3.org/2000/svg" width="20" height="20" fill="currentColor" viewBox="0 0 20 20"><path fill-rule="evenodd" d="M6.667 12.493c-1.006 0-1.77.77-1.814 1.726-.064 1.352-.707 2.16-1.285 2.65.528.155 1.268.213 2.226-.072 1.903-.567 2.687-1.724 2.687-2.613 0-.897-.775-1.69-1.814-1.69ZM3.36 14.148a3.295 3.295 0 0 1 3.308-3.156c1.791 0 3.31 1.392 3.31 3.192 0 1.806-1.499 3.38-3.758 4.052-2.157.642-3.64-.025-4.348-.548a.921.921 0 0 1-.293-.353.839.839 0 0 1-.036-.614c.15-.46.637-.658.987-.938.382-.305.789-.761.83-1.635ZM15.702 2.001a1.608 1.608 0 0 1 2.261-.07 1.69 1.69 0 0 1 .17 2.287l-6.08 7.498a.746.746 0 0 1-1.052.108.753.753 0 0 1-.108-1.056l6.074-7.491a.185.185 0 0 0-.017-.242c-.067-.061-.133-.026-.202.04L9.745 9.783a.746.746 0 0 1-1.057-.025.753.753 0 0 1 .025-1.061L15.702 2Z" clip-rule="evenodd"/></svg>
