<svg xmlns="http://www.w3.org/2000/svg" width="20" height="20" fill="currentColor" viewBox="0 0 20 20"><path d="M5.06 11.506c-.414 0-.65-.246-.65-.682V7.681c0-.435.236-.681.65-.681.415 0 .651.246.651.681v2.787h1.225c.343 0 .574.187.574.519 0 .331-.224.519-.574.519H5.06Z M10 11.582c-1.372 0-2.231-.874-2.231-2.29C7.769 7.879 8.63 7 10 7c1.369 0 2.231.878 2.231 2.293s-.862 2.29-2.231 2.29Zm0-1.037c.546 0 .905-.488.905-1.252 0-.767-.362-1.255-.905-1.255s-.905.488-.905 1.255c0 .764.359 1.252.905 1.252Z M13 10.824c0 .436.236.682.65.682h1.876c.35 0 .574-.188.574-.52 0-.33-.23-.518-.574-.518h-1.225V7.681c0-.435-.236-.681-.65-.681-.415 0-.651.246-.651.681v3.143Z M12.281 3H7.719c-.907 0-1.63 0-2.216.046-.6.046-1.118.144-1.597.375a4.25 4.25 0 0 0-1.985 1.985c-.23.479-.329.996-.375 1.597-.046.585-.046 1.31-.046 2.216v.062c0 .907 0 1.63.046 2.216.046.6.144 1.118.375 1.597a4.25 4.25 0 0 0 1.985 1.985c.479.23.996.329 1.597.375.585.046 1.31.046 2.216.046h.756l3.748 3.171c.903.765 2.288.123 2.288-1.06v-2.12c2.202-.148 3.989-1.977 3.989-4.232V9.22c0-.907 0-1.63-.046-2.216-.046-.6-.144-1.118-.375-1.597a4.25 4.25 0 0 0-1.985-1.985c-.479-.23-.996-.329-1.597-.375C13.912 3 13.187 3 12.281 3ZM4.557 4.772c.24-.116.55-.191 1.062-.23C6.14 4.5 6.805 4.5 7.75 4.5h4.5c.945 0 1.61 0 2.13.041.513.04.822.115 1.063.231a2.75 2.75 0 0 1 1.285 1.285c.116.24.191.55.23 1.062C17 7.64 17 8.305 17 9.25v2.01c0 1.503-1.252 2.74-2.776 2.74-.76 0-1.213.634-1.213 1.249v2.124l-3.553-3.006-.017-.015a1.632 1.632 0 0 0-.284-.204 1.254 1.254 0 0 0-.329-.12C8.694 13.999 8.561 14 8.48 14h-.73c-.945 0-1.61 0-2.13-.041-.513-.04-.822-.115-1.063-.231a2.75 2.75 0 0 1-1.285-1.285c-.116-.24-.191-.55-.23-1.062C3 10.86 3 10.195 3 9.25c0-.945 0-1.61.041-2.13.04-.513.115-.822.231-1.063a2.75 2.75 0 0 1 1.285-1.285Z" clip-rule="evenodd"/></svg>
