<svg xmlns="http://www.w3.org/2000/svg" width="20" height="20" fill="currentColor" viewBox="0 0 20 20"><path fill-rule="evenodd" d="M11.086 1.5h1.994c.535 0 .98 0 1.345.03.38.03.736.098 1.073.27A2.75 2.75 0 0 1 16.7 3.002c.172.337.24.693.27 1.073.03.365.03.81.03 1.345v9.16c0 .535 0 .98-.03 1.345-.03.38-.098.736-.27 1.073a2.751 2.751 0 0 1-1.2 1.202c-.338.172-.694.24-1.074.27-.365.03-.81.03-1.345.03H6.92c-.535 0-.98 0-1.345-.03-.38-.03-.736-.098-1.073-.27A2.75 2.75 0 0 1 3.3 17c-.172-.338-.24-.694-.27-1.074C3 15.56 3 15.115 3 14.58v-1.484c0-.445 0-.795.085-1.13.075-.297.2-.578.367-.833.19-.29.449-.525.778-.825l.057-.052.293-.268c.363-.331.667-.609.935-.817.28-.219.566-.399.905-.502a2.75 2.75 0 0 1 .747-.12V5.42c0-.534 0-.98.03-1.344.03-.38.098-.736.27-1.073a2.75 2.75 0 0 1 1.2-1.203c.337-.172.694-.24 1.074-.27.364-.03.81-.03 1.344-.03Zm-2.42 7.48c.09.06.177.123.264.19.268.209.572.487.934.818l.294.268.057.052c.328.3.587.535.777.825.168.255.292.536.367.832.086.336.086.686.085 1.13V17h1.606c.572 0 .957 0 1.252-.025.288-.023.425-.065.516-.111a1.25 1.25 0 0 0 .546-.547c.046-.09.088-.227.111-.514.024-.296.025-.68.025-1.253v-9.1c0-.572 0-.957-.025-1.253-.023-.287-.065-.424-.111-.514a1.25 1.25 0 0 0-.546-.547c-.091-.046-.228-.088-.515-.111C14.007 3 13.623 3 13.05 3h-1.933c-.573 0-.957 0-1.253.025-.287.023-.424.065-.515.111a1.25 1.25 0 0 0-.546.547c-.046.09-.088.227-.112.514-.024.296-.024.68-.024 1.253v3.53ZM9.945 17v-3.827c0-.558-.005-.707-.038-.838a1.25 1.25 0 0 0-.167-.378c-.074-.113-.18-.217-.593-.594l-.272-.248c-.39-.356-.65-.593-.866-.761-.208-.162-.328-.222-.421-.25a1.25 1.25 0 0 0-.73 0c-.092.028-.212.088-.42.25-.217.168-.477.405-.867.761l-.272.248c-.412.377-.519.481-.593.594a1.25 1.25 0 0 0-.166.378c-.034.13-.039.28-.039.838v1.377c0 .572 0 .957.025 1.252.023.288.065.425.111.515.12.236.311.427.547.547.09.046.227.088.514.111.296.024.68.025 1.253.025h2.994Z" clip-rule="evenodd"/></svg>
