<svg fill="none" height="20" viewBox="0 0 20 20" width="20" xmlns="http://www.w3.org/2000/svg" xmlns:xlink="http://www.w3.org/1999/xlink"><linearGradient id="a" gradientUnits="userSpaceOnUse" x1="-10" x2="10" y1="10" y2="30"><stop offset="0" stop-color="#937ff5"/><stop offset="1" stop-color="#735ce6"/></linearGradient><path d="m0 10c0-5.52285 4.47715-10 10-10 5.5228 0 10 4.47715 10 10 0 5.5228-4.4772 10-10 10-5.52285 0-10-4.4772-10-10z" fill="url(#a)"/><g fill="#fff"><path d="m15 12.8806c-.9926.2476-2.1045.1241-3-.3743-1.2008.6683-2.79915.6683-4 0-.89551.4984-2.00736.6219-3 .3743v1.1195c0 .5522.44772 1 1 1h8c.5523 0 1-.4478 1-1z"/><path d="m4 9.50006c0-.55229.44772-1 1-1h10c.5523 0 1 .44771 1 1 0 1.50004-1 2.00004-2 2.00004-1.5 0-2-1-2-1s-.5 1-2 1-2-1-2-1-.5 1-2 1c-1 0-2-.5-2-2.00004z"/><path d="m13.4072 4.05005c.0396-.07227.146-.07227.1856 0 .4672.85291.9072 1.22409.9072 1.95001 0 .55228-.4477 1-1 1s-1-.44772-1-1c0-.72592.44-1.0971.9072-1.95001z"/><path d="m6.40722 4.05005c.03959-.07227.14597-.07227.18556 0 .46723.85291.90722 1.22409.90722 1.95001 0 .55228-.44772 1-1 1s-1-.44772-1-1c0-.72592.43999-1.0971.90722-1.95001z"/><path d="m9.90722 4.05005c.03959-.07227.14598-.07227.18558 0 .4672.85291.9072 1.22409.9072 1.95001 0 .55228-.4477 1-1 1-.55228 0-1-.44772-1-1 0-.72592.43999-1.0971.90722-1.95001z"/></g></svg>
