<svg fill="none" height="20" viewBox="0 0 20 20" width="20" xmlns="http://www.w3.org/2000/svg" xmlns:xlink="http://www.w3.org/1999/xlink"><linearGradient id="a" gradientUnits="userSpaceOnUse" x1="0" x2="20" y1="0" y2="20"><stop offset="0" stop-color="#f060c0"/><stop offset="1" stop-color="#e03fab"/></linearGradient><path d="m0 10c0-5.52285 4.47715-10 10-10 5.5228 0 10 4.47715 10 10 0 5.5228-4.4772 10-10 10-5.52285 0-10-4.4772-10-10z" fill="url(#a)"/><g fill="#fff"><path d="m15 12.8805c-.9926.2476-2.1045.1241-3-.3742-1.2008.6682-2.79915.6682-4 0-.89551.4983-2.00736.6218-3 .3742v1.1195c0 .5523.44772 1 1 1h8c.5523 0 1-.4477 1-1z"/><path d="m4 9.49999c0-.55228.44772-1 1-1h10c.5523 0 1 .44772 1 1 0 1.50001-1 2.00001-2 2.00001-1.5 0-2-1-2-1s-.5 1-2 1-2-1-2-1-.5 1-2 1c-1 0-2-.5-2-2.00001z"/><path d="m13.4072 4.04999c.0396-.07227.146-.07227.1856 0 .4672.85291.9072 1.22409.9072 1.95 0 .55229-.4477 1-1 1s-1-.44771-1-1c0-.72591.44-1.09709.9072-1.95z"/><path d="m6.40722 4.04999c.03959-.07227.14597-.07227.18556 0 .46723.85291.90722 1.22409.90722 1.95 0 .55229-.44772 1-1 1s-1-.44771-1-1c0-.72591.43999-1.09709.90722-1.95z"/><path d="m9.90722 4.04999c.03959-.07227.14598-.07227.18558 0 .4672.85291.9072 1.22409.9072 1.95 0 .55229-.4477 1-1 1-.55228 0-1-.44771-1-1 0-.72591.43999-1.09709.90722-1.95z"/></g></svg>
