<svg fill="none" height="20" viewBox="0 0 20 20" width="20" xmlns="http://www.w3.org/2000/svg"><g fill="currentColor"><path d="m10.0998 1.7833c-.0335-.09007-.16606-.09007-.19956 0-.19942.5362-.39351.88742-.55009 1.17078-.20823.37682-.35015.63365-.35015 1.04592 0 .55228.44772 1 1 1 .5523 0 1-.44772 1-1 0-.41227-.1419-.6691-.3501-1.04591-.1566-.28337-.3507-.63459-.5501-1.17079z"/><path clip-rule="evenodd" d="m17.2875 11.7c-.2221.2961-.4877.5251-.7875.6925v.688c0 .5341 0 .98-.0297 1.3442-.0311.3799-.0982.7365-.27 1.0738-.2637.5174-.6844.9381-1.2018 1.2018-.3373.1718-.6939.2389-1.0738.27-.3643.0297-.8101.0297-1.3443.0297h-5.16083c-.53415 0-.98 0-1.34424-.0297-.37988-.0311-.73654-.0982-1.0738-.27-.51745-.2637-.93815-.6844-1.2018-1.2018-.17184-.3373-.23895-.6939-.26999-1.0738-.02976-.3643-.02975-.8101-.02974-1.3443v-.6879c-.29982-.1674-.56544-.3964-.7875-.6925-.51529-.687-.7125-1.6288-.7125-2.70096 0 .00048 0 .00096.75.00096l-.75-.00096v-.00101l.00001-.00214.00004-.00481.00018-.01165c.00018-.00865.00049-.01909.00101-.0312.00103-.02418.00291-.05517.0063-.09201.00674-.07343.0196-.17171.04426-.2868.04885-.22797.14722-.53679.34857-.84999.43216-.67225 1.24426-1.21943 2.59963-1.21943h10c1.3554 0 2.1675.54718 2.5996 1.21943.2014.3132.2997.62202.3486.84999.0247.11509.0375.21337.0443.2868.0033.03684.0052.06783.0063.09201.0005.01211.0008.02255.001.0312l.0001.01165.0001.00481v.00214.00101c0 1.07216-.1972 2.01396-.7125 2.70096zm-13.78749-2.69036c.00122.92212.17859 1.47846.41249 1.79036.20428.2724.52049.45 1.0875.45.46086 0 .78014-.2158 1.09467-.5303.08017-.0802.1557-.1624.2357-.2502l.01924-.0211c.07067-.0777.15106-.166.22943-.2444.08407-.084.19579-.1876.32885-.27229.13476-.08576.33744-.18171.59211-.18171s.45735.09595.59211.18171c.13306.08469.24478.18829.32884.27229.07836.0784.15873.1667.22939.2443l.01929.0212c.08.0878.15553.17.2357.2502.31453.3145.63381.5303 1.09467.5303.4609 0 .7801-.2158 1.0947-.5303.0801-.0802.1557-.1624.2357-.2502l.0192-.0211c.0707-.0776.1511-.166.2294-.2444.0841-.084.1958-.1876.3289-.27229.1347-.08576.3374-.18171.5921-.18171s.4574.09595.5921.18171c.1331.08469.2448.18829.3289.27229.0783.0784.1587.1667.2293.2443l.0193.0212c.08.0878.1556.17.2357.2502.3146.3145.6338.5303 1.0947.5303.567 0 .8832-.1776 1.0875-.45.2339-.3119.4113-.86824.4125-1.79036l-.0004-.00638-.0009-.00987c-.002-.02227-.0067-.06071-.0172-.10968-.0215-.10016-.0637-.22884-.1436-.35314-.1304-.20275-.4433-.53057-1.3379-.53057h-10c-.89463 0-1.20753.32782-1.33787.53057-.07991.1243-.12216.25298-.14362.35314-.0105.04897-.01521.08741-.01726.10968-.0007.00759-.00106.01309-.00124.01625zm13.74999-.00964c.75 0 .75-.00048.75-.00096zm-4.4053 2.7803c.4354.4355 1.1162.9697 2.1553.9697v.3c0 .5724-.0006.9566-.0248 1.2525-.0234.2871-.0653.4244-.1114.515-.1199.2352-.3111.4264-.5463.5463-.0906.0461-.2279.088-.515.1114-.2959.0242-.6801.0248-1.2525.0248h-5.1c-.57243 0-.95664-.0006-1.25252-.0248-.28712-.0234-.42441-.0653-.51497-.1114-.2352-.1199-.42643-.3111-.54627-.5463-.04614-.0906-.08802-.2279-.11148-.515-.02418-.2959-.02476-.6801-.02476-1.2525v-.3c1.03914 0 1.71986-.5342 2.15533-.9697.10733-.1073.20367-.2126.28383-.3006l.06084-.0667.06084.0667c.08016.088.1765.1933.28383.3006.43547.4355 1.11619.9697 2.15533.9697 1.0391 0 1.7199-.5342 2.1553-.9697.1074-.1073.2037-.2126.2839-.3006l.0608-.0667.0608.0667c.0802.088.1765.1933.2839.3006z" fill-rule="evenodd"/><path d="m6.40024 1.7833c.0335-.09007.16602-.09007.19952 0 .19942.5362.39351.88742.55009 1.17078.20823.37682.35015.63365.35015 1.04592 0 .55228-.44772 1-1 1s-1-.44772-1-1c0-.41227.14192-.6691.35015-1.04592.15658-.28336.35067-.63458.55009-1.17078z"/><path d="m13.5998 1.7833c-.0335-.09007-.1661-.09007-.1996 0-.1994.5362-.3935.88742-.5501 1.17079-.2082.37681-.3501.63364-.3501 1.04591 0 .55228.4477 1 1 1s1-.44772 1-1c0-.41227-.1419-.6691-.3501-1.04591-.1566-.28337-.3507-.63459-.5501-1.17079z"/></g></svg>
