<svg xmlns="http://www.w3.org/2000/svg" width="20" height="20" fill="currentColor" viewBox="0 0 20 20"><path fill-rule="evenodd" d="M4 .75a.75.75 0 0 1 1.5 0v1.251L6.4 2h7.2l.9.001V.75a.75.75 0 0 1 1.5 0v1.288c.784.048 1.34.156 1.816.398a4 4 0 0 1 1.748 1.748C20 5.04 20 6.16 20 8.4v5.2c0 2.24 0 3.36-.436 4.216a4 4 0 0 1-1.748 1.748C16.96 20 15.84 20 13.6 20H6.4c-2.24 0-3.36 0-4.216-.436a4 4 0 0 1-1.748-1.748C0 16.96 0 15.84 0 13.6V8.4c0-2.24 0-3.36.436-4.216a4 4 0 0 1 1.748-1.748c.475-.242 1.032-.35 1.816-.398V.75Zm10.5 2.751V5.25a.75.75 0 0 0 1.5 0V3.542l.105.008c.574.046.849.13 1.03.222a2.5 2.5 0 0 1 1.092 1.093c.093.181.177.456.224 1.03.048.592.049 1.36.049 2.505v5.2c0 1.145-.001 1.913-.05 2.505-.046.574-.13.849-.223 1.03a2.5 2.5 0 0 1-1.092 1.092c-.181.093-.456.177-1.03.224-.592.048-1.36.049-2.505.049H6.4c-1.145 0-1.913-.001-2.505-.05-.574-.046-.849-.13-1.03-.223a2.5 2.5 0 0 1-1.093-1.092c-.092-.181-.176-.456-.222-1.03-.049-.592-.05-1.36-.05-2.505V8.4c0-1.145.001-1.913.05-2.505.046-.574.13-.849.222-1.03a2.5 2.5 0 0 1 1.093-1.093c.181-.092.456-.176 1.03-.222L4 3.542V5.25a.75.75 0 0 0 1.5 0V3.501l.9-.001h7.2l.9.001Z" clip-rule="evenodd"/></svg>
