<svg xmlns="http://www.w3.org/2000/svg" width="20" height="20" fill="currentColor" viewBox="0 0 20 20"><path fill-rule="evenodd" d="M6.25 1a.75.75 0 0 1 .75.75v.257C7.393 2 7.83 2 8.317 2h3.366c.487 0 .924 0 1.317.007V1.75a.75.75 0 0 1 1.5 0v.356c.428.064.816.172 1.18.357a4.25 4.25 0 0 1 1.857 1.858c.253.497.361 1.04.413 1.67.05.613.05 1.374.05 2.326v3.366c0 .952 0 1.713-.05 2.327-.052.63-.16 1.172-.413 1.67a4.251 4.251 0 0 1-1.857 1.857c-.498.253-1.04.361-1.67.413-.614.05-1.375.05-2.327.05H8.317c-.952 0-1.713 0-2.327-.05-.63-.052-1.172-.16-1.67-.413a4.25 4.25 0 0 1-1.857-1.857c-.253-.498-.361-1.04-.413-1.67C2 13.396 2 12.635 2 11.683V8.317c0-.952 0-1.713.05-2.327.052-.63.16-1.172.413-1.67a4.25 4.25 0 0 1 1.858-1.857A3.795 3.795 0 0 1 5.5 2.106V1.75A.75.75 0 0 1 6.25 1ZM5.5 3.63c-.203.044-.361.1-.498.17A2.75 2.75 0 0 0 3.8 5.002c-.128.25-.21.573-.255 1.11-.02.255-.032.543-.038.878h12.986a14.082 14.082 0 0 0-.038-.878c-.044-.537-.127-.86-.255-1.11A2.75 2.75 0 0 0 15 3.8a2.017 2.017 0 0 0-.499-.17v.12a.75.75 0 0 1-1.5 0v-.243a80.419 80.419 0 0 0-1.35-.007h-3.3c-.525 0-.968 0-1.35.007v.243a.75.75 0 0 1-1.5 0v-.12Zm11 4.86h-13v3.16c0 .992 0 1.692.045 2.238.044.537.127.86.255 1.11A2.75 2.75 0 0 0 5.002 16.2c.25.128.573.21 1.11.255.546.044 1.246.045 2.238.045h3.3c.992 0 1.692 0 2.238-.045.537-.044.86-.127 1.11-.255A2.751 2.751 0 0 0 16.2 15c.128-.252.21-.574.255-1.111.044-.546.045-1.245.045-2.238V8.49Z" clip-rule="evenodd"/></svg>
