<svg xmlns="http://www.w3.org/2000/svg" width="20" height="20" fill="currentColor" viewBox="0 0 20 20"><path fill-rule="evenodd" d="M14.5 1.75a.75.75 0 0 0-1.5 0v.257C12.607 2 12.17 2 11.683 2H8.317c-.488 0-.926 0-1.32.007V1.75a.75.75 0 0 0-1.5 0v.356a3.792 3.792 0 0 0-1.176.357 4.25 4.25 0 0 0-1.858 1.858c-.253.497-.361 1.04-.413 1.67C2 6.603 2 7.364 2 8.316v3.366c0 .952 0 1.713.05 2.327.052.63.16 1.172.413 1.67a4.25 4.25 0 0 0 1.858 1.857c.497.253 1.04.361 1.67.413.613.05 1.374.05 2.326.05h3.366c.952 0 1.713 0 2.327-.05.63-.052 1.172-.16 1.67-.413a4.251 4.251 0 0 0 1.857-1.857c.253-.498.361-1.04.413-1.67.05-.614.05-1.375.05-2.327V8.317c0-.952 0-1.713-.05-2.327-.052-.63-.16-1.172-.413-1.67a4.25 4.25 0 0 0-1.857-1.857 3.795 3.795 0 0 0-1.18-.357V1.75Zm-9.003 2v-.12c-.201.044-.359.1-.495.17A2.75 2.75 0 0 0 3.8 5.002c-.128.25-.21.573-.255 1.11-.044.546-.045 1.246-.045 2.238v3.3c0 .992 0 1.692.045 2.238.044.537.127.86.255 1.11A2.75 2.75 0 0 0 5.002 16.2c.25.128.573.21 1.11.255.546.044 1.246.045 2.238.045h3.3c.992 0 1.692 0 2.238-.045.537-.044.86-.127 1.11-.255A2.751 2.751 0 0 0 16.2 15c.128-.252.21-.574.255-1.111.044-.546.045-1.245.045-2.238v-3.3c0-.992 0-1.692-.045-2.238-.044-.537-.127-.86-.255-1.11A2.75 2.75 0 0 0 15 3.8a2.016 2.016 0 0 0-.499-.17v.12a.75.75 0 0 1-1.5 0v-.243a80.438 80.438 0 0 0-1.35-.007h-3.3c-.526 0-.97 0-1.353.007v.243a.75.75 0 0 1-1.5 0Zm8.033 4.78a.75.75 0 0 0-1.06-1.06L9 10.94 7.53 9.47a.75.75 0 0 0-1.06 1.06l2 2a.75.75 0 0 0 1.06 0l4-4Z" clip-rule="evenodd"/></svg>
