<svg xmlns="http://www.w3.org/2000/svg" width="20" height="20" fill="none" viewBox="0 0 20 20"><path fill="currentColor" fill-rule="evenodd" d="M6.25 1a.75.75 0 0 1 .75.75v.2567C7.393 2 7.83 2 8.3174 2h3.3652c.4873 0 .9244 0 1.3174.0067V1.75a.75.75 0 0 1 1.5 0v.3557c.4282.0646.8156.1721 1.1795.3575a4.2506 4.2506 0 0 1 1.8573 1.8573c.2536.4977.3616 1.0396.413 1.6696C18 6.6044 18 7.365 18 8.3174v3.3652c0 .9525 0 1.713-.0502 2.3273-.0514.63-.1594 1.1719-.413 1.6696a4.2512 4.2512 0 0 1-1.8573 1.8573c-.4977.2536-1.0396.3615-1.6696.413C13.3956 18 12.6351 18 11.6826 18H8.3174c-.9525 0-1.713 0-2.3273-.0502-.63-.0515-1.1719-.1594-1.6696-.413a4.2506 4.2506 0 0 1-1.8573-1.8573c-.2536-.4977-.3616-1.0396-.413-1.6696C2 13.3956 2 12.6351 2 11.6826V8.3174c0-.9525 0-1.713.0502-2.3273.0514-.63.1594-1.1719.413-1.6696a4.25 4.25 0 0 1 1.8573-1.8573c.3639-.1854.7513-.293 1.1795-.3575V1.75A.75.75 0 0 1 6.25 1ZM5.5 3.6296c-.203.044-.3614.1003-.4985.1701a2.75 2.75 0 0 0-1.2018 1.2018c-.1279.251-.2106.5735-.2545 1.1108-.0208.2545-.032.5424-.038.8777h12.9857c-.0061-.3353-.0173-.6232-.0381-.8777-.0439-.5373-.1266-.8598-.2545-1.1108a2.7505 2.7505 0 0 0-1.2018-1.2018c-.1371-.0698-.2955-.1262-.4985-.1701V3.75a.75.75 0 0 1-1.5 0v-.243c-.3817-.0068-.8248-.007-1.35-.007h-3.3c-.5252 0-.9683.0002-1.35.007v.243a.75.75 0 0 1-1.5 0v-.1204Zm11 4.8604h-13v3.16c0 .9925.0006 1.6917.0452 2.2377.0439.5373.1266.8598.2545 1.1108a2.7505 2.7505 0 0 0 1.2018 1.2018c.251.1279.5735.2106 1.1108.2545.546.0446 1.2452.0452 2.2377.0452h3.3c.9925 0 1.6917-.0006 2.2377-.0452.5373-.0439.8598-.1266 1.1108-.2545a2.751 2.751 0 0 0 1.2018-1.2018c.1279-.251.2106-.5735.2545-1.1108.0446-.546.0452-1.2452.0452-2.2377V8.49Z M15 13.5c0 .8284-.6716 1.5-1.5 1.5s-1.5-.6716-1.5-1.5.6716-1.5 1.5-1.5 1.5.6716 1.5 1.5Z"/></svg>
