<svg xmlns="http://www.w3.org/2000/svg" width="20" height="20" viewBox="0 0 20 20" fill="currentColor"><path d="M13.69 1.33c.407 0 .738.33.738.738v1.094a3.94 3.94 0 0 1 2.822 3.776v1.4l-2.284-.669c-.116-.034-.283-.085-.469-.121l-.19-.03-.155-.014a3 3 0 0 0-.462.014c-.261.03-.505.106-.66.15l-2.812.825c-.094.028-.451.113-.78.318l-.14.094c-.24.183-.441.42-.582.699l-.057.122c-.19.445-.161.935-.161 1.023v3.11c0 1.458.691 2.585 1.464 3.39H6.686a3.936 3.936 0 0 1-3.936-3.935V6.937a3.94 3.94 0 0 1 2.822-3.776V2.068a.739.739 0 0 1 1.476 0v.934h5.904v-.934c0-.407.33-.738.738-.738"/><path d="M14.136 9.007c.104.012.206.043.408.102l2.813.823c.23.068.345.101.43.166a.54.54 0 0 1 .17.217c.041.096.041.208.041.434v3.11c0 2.356-2.764 3.686-3.697 4.067a1 1 0 0 1-.209.068.7.7 0 0 1-.187 0 1 1 0 0 1-.21-.068c-.932-.381-3.696-1.711-3.697-4.066v-3.111c0-.226 0-.338.042-.434a.54.54 0 0 1 .168-.217c.086-.065.202-.098.432-.166l2.813-.823c.202-.06.303-.09.407-.102q.137-.015.276 0m2.47 2.613a.75.75 0 0 0-1.06 0l-1.966 1.966-.752-.686a.75.75 0 0 0-1.059 1.063l1.282 1.213a.75.75 0 0 0 1.06 0l2.495-2.496a.75.75 0 0 0 0-1.06"/></svg>