<svg fill="none" height="20" viewBox="0 0 20 20" width="20" xmlns="http://www.w3.org/2000/svg"><path clip-rule="evenodd" d="m5.49994 5.5c.57454 0 1.00906-.20404 1.33971-.52146.24347-.23373.42786-.53553.55414-.74221l.00007-.00013c.01959-.03206.03778-.06183.05458-.0887.15023-.24037.25849-.38203.39106-.47845.11277-.08201.29675-.16905.66044-.16905h2.99996c.3637 0 .5477.08704.6605.16905.1325.09642.2408.23808.391.47845.0169.0269.0351.05671.0547.08882.1263.20669.3107.50849.5541.74222.3307.31742.7652.52146 1.3397.52146.733 0 .9899.00363 1.189.04323.8925.17754 1.5903.87526 1.7678 1.76782.0396.19908.0432.45602.0432 1.18895v3.45c0 .8525-.0005 1.4467-.0383 1.9093-.0371.4539-.1063.7147-.2069.9122-.2157.4233-.5599.7675-.9833.9833-.1975.1006-.4583.1697-.9121.2068-.4627.0378-1.0569.0384-1.9094.0384h-6.90134c-.85245 0-1.44669-.0006-1.90932-.0384-.45387-.0371-.71464-.1062-.91216-.2068-.42336-.2158-.76757-.56-.98328-.9833-.10064-.1975-.16977-.4583-.20686-.9122-.03779-.4626-.03838-1.0568-.03838-1.9093v-3.44863c0-.73427.00365-.99168.04339-1.19112.17775-.89191.87495-1.58911 1.76687-1.76686.19943-.03974.45684-.04339 1.19112-.04339zm3-3.5c-.63632 0-1.13984.16296-1.54269.45595-.38306.27858-.61854.63692-.78081.89655-.02728.04365-.05226.08389-.07537.12111-.13566.21856-.2068.33317-.30022.42285-.05998.05758-.12546.10354-.30091.10354l-.08698-.00001c-.61433-.00016-1.03306-.00026-1.39731.07233-1.48652.29624-2.64853 1.45825-2.94477 2.94477-.072588.36425-.072484.78298-.072331 1.39731l.000014.08697v3.44863.0321c-.000007.8128-.000014 1.4685.043367 1.9994.04466.5466.13902 1.0267.36536 1.471.35952.7056.9332 1.2792 1.63881 1.6388.44422.2263.92436.3207 1.471.3653.5309.0434 1.18651.0434 1.99934.0434h.03212 6.90134.0322c.8128 0 1.4684 0 1.9993-.0434.5466-.0446 1.0268-.139 1.471-.3653.7056-.3596 1.2793-.9332 1.6388-1.6388.2264-.4443.3207-.9244.3654-1.471.0433-.5309.0433-1.1865.0433-1.9994v-.0321-3.45l.0001-.08683c.0001-.6132.0002-1.03116-.0721-1.39476-.2959-1.48759-1.4588-2.65045-2.9464-2.94635-.3636-.07233-.7815-.07223-1.3947-.07207l-.0869.00001c-.1754 0-.2409-.04596-.3009-.10354-.0934-.08968-.1645-.20429-.3002-.42284-.0231-.03722-.0481-.07747-.0754-.12112-.1622-.25963-.3977-.61797-.7808-.89655-.4028-.29299-.9064-.45595-1.5427-.45595zm3.74996 8.25c0 1.2426-1.0073 2.25-2.24996 2.25-1.24264 0-2.25-1.0074-2.25-2.25 0-1.24264 1.00736-2.25 2.25-2.25 1.24266 0 2.24996 1.00736 2.24996 2.25zm1.5 0c0 2.0711-1.6789 3.75-3.74996 3.75-2.07107 0-3.75-1.6789-3.75-3.75 0-2.07107 1.67893-3.75 3.75-3.75 2.07106 0 3.74996 1.67893 3.74996 3.75z" fill="currentColor" fill-rule="evenodd"/></svg>
