<svg xmlns="http://www.w3.org/2000/svg" width="20" height="20" fill="currentColor" viewBox="0 0 20 20"><path fill-rule="evenodd" d="M13.197 3.881c.142.128.254.296.478.632.206.309.309.463.426.576.17.163.29.24.51.322.153.058.407.095.916.17.328.047.595.124.835.246a3 3 0 0 1 1.311 1.311C18 7.78 18 8.62 18 10.3v1.4c0 1.68 0 2.52-.327 3.162a3 3 0 0 1-1.311 1.311c-.642.327-1.482.327-3.162.327H6.8c-1.68 0-2.52 0-3.162-.327a3 3 0 0 1-1.311-1.311C2 14.22 2 13.38 2 11.7v-1.4c0-1.68 0-2.52.327-3.162a3 3 0 0 1 1.311-1.311c.24-.122.507-.199.835-.247.509-.074.763-.111.916-.169.22-.083.34-.16.51-.322.117-.113.22-.268.426-.576.224-.336.336-.504.478-.632a1.5 1.5 0 0 1 .623-.333c.185-.048.387-.048.791-.048h3.566c.404 0 .606 0 .79.048a1.5 1.5 0 0 1 .623.333ZM10 14.75a4.25 4.25 0 1 0 0-8.5 4.25 4.25 0 0 0 0 8.5Zm2.75-4.25a2.75 2.75 0 1 1-5.5 0 2.75 2.75 0 0 1 5.5 0Z" clip-rule="evenodd"/></svg>
