<svg fill="none" height="20" viewBox="0 0 20 20" width="20" xmlns="http://www.w3.org/2000/svg" xmlns:xlink="http://www.w3.org/1999/xlink"><linearGradient id="a" gradientUnits="userSpaceOnUse" x1="-10" x2="10" y1="10" y2="30"><stop offset="0" stop-color="#50c750"/><stop offset="1" stop-color="#32b332"/></linearGradient><path d="m0 10c0-5.52285 4.47715-10 10-10 5.5228 0 10 4.47715 10 10 0 5.5228-4.4772 10-10 10-5.52285 0-10-4.4772-10-10z" fill="url(#a)"/><path d="m7 6.5c.75 0 .75-1 1.5-1h3c.75 0 .75 1 1.5 1h-.2434c.7801 0 1.063.08122 1.3481.23374.2852.15252.509.37633.6616.66152.1525.28519.2337.56806.2337 1.34814v3.0132c0 .7801-.0812 1.063-.2337 1.3481-.1526.2852-.3764.509-.6616.6616-.2851.1525-.568.2337-1.3481.2337h-5.5132c-.78008 0-1.06295-.0812-1.34814-.2337-.28519-.1526-.509-.3764-.66152-.6616-.15252-.2851-.23374-.568-.23374-1.3481v-3.0132c0-.78008.08122-1.06295.23374-1.34814s.37633-.509.66152-.66152.56806-.23374 1.34814-.23374zm3 .75c-1.51878 0-2.75 1.23122-2.75 2.75 0 1.5188 1.23122 2.75 2.75 2.75 1.5188 0 2.75-1.2312 2.75-2.75 0-1.51878-1.2312-2.75-2.75-2.75zm0 1.25c.8284 0 1.5.67157 1.5 1.5 0 .8284-.6716 1.5-1.5 1.5-.82843 0-1.5-.6716-1.5-1.5 0-.82843.67157-1.5 1.5-1.5z" fill="#fff"/></svg>
