<svg fill="none" height="20" viewBox="0 0 20 20" width="20" xmlns="http://www.w3.org/2000/svg"><path clip-rule="evenodd" d="m4.71967 4.71967c.29289-.29289.76777-.29289 1.06066 0l4.21967 4.21967 4.2197-4.21967c.2929-.29289.7677-.29289 1.0606 0s.2929.76777 0 1.06066l-4.2196 4.21967 4.2196 4.2197c.2929.2929.2929.7677 0 1.0606s-.7677.2929-1.0606 0l-4.2197-4.2196-4.21967 4.2196c-.29289.2929-.76777.2929-1.06066 0s-.29289-.7677 0-1.0606l4.21967-4.2197-4.21967-4.21967c-.29289-.29289-.29289-.76777 0-1.06066z" fill="currentColor" fill-rule="evenodd"/></svg>
