<svg xmlns="http://www.w3.org/2000/svg" width="20" height="20" fill="none" viewBox="0 0 20 20"><path fill="currentColor" fill-rule="evenodd" d="M.5 7.709A.709.709 0 0 1 1.209 7h.7533l.9624-1.6622c.337-.5823.617-1.0658.8873-1.4422.2848-.3964.5917-.7223 1.006-.9611.4144-.239.8502-.3413 1.336-.3891C6.615 2.5 7.1739 2.5 7.8466 2.5h4.3087c.6732 0 1.2324 0 1.6938.0454.4861.048.9221.1504 1.3367.3896.4145.2391.7214.5654 1.0062.9622.2703.3767.5501.8608.8871 1.4437L18.0382 7h.7539a.709.709 0 0 1 .709.709c0 .6629-.3088 1.2739-1.0011 1.4458v6.9494c.0001.2611-.0057.5228-.1272.7612-.187.367-.5488.5957-.9547.6288-.1009.0083-.2161.0082-.3163.0082-.1471 0-.2946.0027-.4413-.0093-.4357-.0356-.8233-.2787-1.0243-.6732-.1671-.3281-.1362-.7122-.1362-1.0699h-11c0 .3577.031.7418-.1362 1.0699-.201.3945-.5886.6376-1.0243.6732-.1147.0094-.2471.0093-.3693.0093-.1294 0-.2592.0024-.3883-.0082-.4059-.0331-.7677-.2618-.9547-.6288-.1215-.2384-.1273-.5001-.1272-.7613V9.1545c-.6918-.1724-1-.783-1-1.4456Zm3.25 6.5402.75.0008 11.75-.0008c.4143 0 .75-.336.75-.7492V9.5116a18.4677 18.4677 0 0 1-.3679.0583c-.3249.0485-.8008.1124-1.414.176C13.9919 9.8735 12.2159 10 10 10c-2.216 0-3.992-.1266-5.2181-.254-.6132-.0637-1.089-.1276-1.414-.176A18.5257 18.5257 0 0 1 3 9.5115V13.5c0 .4132.3357.7492.75.7492Zm13.1385-6.2409-1.09-1.8854c-.3596-.622-.6031-1.0416-.8253-1.3512-.2125-.2963-.3717-.442-.5371-.5375-.1653-.0954-.3712-.1602-.7341-.196C13.3227 4.0008 12.8377 4 12.1191 4H7.8828c-.718 0-1.2028.0008-1.5818.0382-.3627.0357-.5684.1004-.7337.1957-.1653.0953-.3244.241-.537.5369-.2223.3093-.4658.7284-.8256 1.3498l-1.093 1.8878c.1594.024.318.0541.4774.078.304.0452.7578.1063 1.3478.1676 1.18.1226 2.904.246 5.063.246 2.1592 0 3.8832-.1234 5.0632-.246.59-.0613 1.0438-.1224 1.3478-.1677.1596-.0238.3181-.0539.4776-.078Z" clip-rule="evenodd"/><path fill="currentColor" d="M15.4319 12.4776a.75.75 0 0 0-.3638-1.4552l-2 .5a.75.75 0 0 0 .3638 1.4552l2-.5Zm-10.5-1.4552a.75.75 0 0 0-.3638 1.4552l2 .5a.75.75 0 0 0 .3638-1.4552l-2-.5Z"/></svg>
