<svg xmlns="http://www.w3.org/2000/svg" width="20" height="20" fill="currentColor" viewBox="0 0 20 20"><path fill-rule="evenodd" d="M13.504 1.785c-.663-.12-1.205-.216-1.652-.26-.463-.044-.888-.038-1.307.09a3.22 3.22 0 0 0-1.641 1.148c-.263.35-.414.748-.53 1.198-.113.435-.207.977-.322 1.64l-.777 4.474c-.115.664-.21 1.207-.25 1.654-.042.463-.034.89.095 1.31a3.276 3.276 0 0 0 1.155 1.65c.351.264.75.418 1.199.537.434.115.976.212 1.639.33l.888.16c.663.118 1.205.215 1.652.258.462.045.888.039 1.306-.088.656-.2 1.23-.602 1.641-1.15.263-.35.414-.747.53-1.197.113-.435.207-.977.323-1.64l.776-4.474c.115-.664.21-1.206.25-1.654.042-.463.034-.89-.095-1.31a3.275 3.275 0 0 0-1.155-1.65c-.35-.264-.749-.418-1.198-.537-.434-.115-.977-.212-1.64-.33l-.887-.16ZM10.987 3.05c.154-.047.36-.066.73-.03.378.036.86.121 1.56.247l.827.148c.701.126 1.183.212 1.55.31.36.095.547.185.676.282.296.224.513.535.622.889.048.155.068.36.035.73-.035.38-.118.862-.24 1.564l-.765 4.412c-.122.702-.207 1.184-.302 1.552-.093.36-.182.546-.279.675-.221.295-.53.511-.883.619-.155.047-.36.066-.73.03-.379-.036-.86-.121-1.561-.247l-.827-.148c-.701-.125-1.182-.212-1.55-.31-.36-.095-.546-.185-.676-.282a1.764 1.764 0 0 1-.622-.889c-.047-.155-.068-.36-.034-.73.034-.38.117-.862.239-1.564l.766-4.412c.122-.702.206-1.184.301-1.552.094-.36.182-.546.28-.675.22-.295.53-.511.883-.619Z M5.98 5.901a.75.75 0 0 0-.265-1.476l-.108.02c-.663.118-1.205.215-1.64.33-.45.119-.847.272-1.197.537a3.27 3.27 0 0 0-1.153 1.647c-.129.419-.137.845-.095 1.308.04.448.135.99.25 1.654l.777 4.473c.115.664.21 1.206.322 1.641.116.45.267.848.53 1.199a3.23 3.23 0 0 0 1.644 1.15c.42.128.846.134 1.308.09.447-.043.99-.14 1.652-.26l.787-.14a.75.75 0 1 0-.265-1.477l-.755.136c-.702.125-1.183.211-1.562.247-.37.036-.575.016-.728-.03a1.73 1.73 0 0 1-.881-.617c-.096-.128-.185-.314-.278-.674-.096-.368-.18-.85-.302-1.552l-.765-4.412c-.122-.702-.205-1.184-.24-1.563-.033-.37-.013-.577.035-.733a1.77 1.77 0 0 1 .624-.89c.13-.099.317-.189.676-.284.368-.097.85-.184 1.551-.31l.078-.014Z"/></svg>
