<svg xmlns="http://www.w3.org/2000/svg" width="20" height="20" fill="currentColor" viewBox="0 0 20 20"><path fill-rule="evenodd" d="M11.25 2A2.75 2.75 0 0 1 14 4.75v.255c1.257.013 1.995.074 2.589.377a3.5 3.5 0 0 1 1.53 1.53c.38.748.381 1.728.381 3.688v1.8c0 1.96 0 2.94-.382 3.689a3.5 3.5 0 0 1-1.53 1.53c-.748.38-1.728.381-3.688.381H7.1c-1.96 0-2.94 0-3.689-.382a3.5 3.5 0 0 1-1.53-1.53C1.502 15.34 1.5 14.36 1.5 12.4v-1.8c0-1.96 0-2.94.382-3.689a3.5 3.5 0 0 1 1.53-1.53c.592-.301 1.33-.362 2.588-.375V4.75A2.75 2.75 0 0 1 8.75 2h2.5Zm2.809 6.41a.812.812 0 0 0-1.149.031l-4.147 4.377-2.173-2.294-.06-.057a.813.813 0 0 0-1.174 1.112l.054.064 2.763 2.916a.814.814 0 0 0 1.18 0l4.737-5a.812.812 0 0 0-.031-1.149ZM8.75 3.5c-.69 0-1.25.56-1.25 1.25V5h5v-.25c0-.69-.56-1.25-1.25-1.25h-2.5Z" clip-rule="evenodd"/></svg>