<svg xmlns="http://www.w3.org/2000/svg" width="20" height="20" fill="none" viewBox="0 0 20 20"><rect width="20" height="20" fill="url(#a)" rx="10"/><path fill="#fff" fill-rule="evenodd" d="M10 5a1 1 0 0 1 1 1v8a1 1 0 1 1-2 0V6a1 1 0 0 1 1-1m4 5a1 1 0 0 1 1 1v3a1 1 0 1 1-2 0v-3a1 1 0 0 1 1-1M6 7.5a1 1 0 0 1 1 1V14a1 1 0 1 1-2 0V8.5a1 1 0 0 1 1-1" clip-rule="evenodd"/><defs><linearGradient id="a" x1="-10" x2="10" y1="10" y2="30" gradientUnits="userSpaceOnUse"><stop stop-color="#50c750"/><stop offset="1" stop-color="#32b332"/></linearGradient></defs></svg>