<svg xmlns="http://www.w3.org/2000/svg" width="20" height="20" fill="none" viewBox="0 0 20 20">
  <path fill="#4BB34B" fill-rule="evenodd" d="M3 4.866c0-.423 0-.634.071-.813a1 1 0 0 1 .298-.404c.149-.121.35-.184.753-.31l4.923-1.54c.355-.111.532-.167.713-.189a2 2 0 0 1 .484 0c.181.022.358.078.713.189l4.923 1.54c.403.126.604.189.753.31a1 1 0 0 1 .298.404c.071.179.071.39.071.813v5.815c0 4.403-4.838 6.89-6.47 7.603a1.432 1.432 0 0 1-.366.126 1.194 1.194 0 0 1-.328 0 1.43 1.43 0 0 1-.366-.127C7.838 17.57 3 15.085 3 10.681V4.866Z" clip-rule="evenodd"/>
  <path fill="#fff" fill-rule="evenodd" d="M13.76 7.2a.75.75 0 0 1 .04 1.06l-4.179 4.5a.75.75 0 0 1-1.1 0l-2.32-2.5A.75.75 0 1 1 7.3 9.24l1.771 1.908 3.63-3.908a.75.75 0 0 1 1.06-.04Z" clip-rule="evenodd"/>
</svg>
