<svg width="20" height="20" viewBox="0 0 20 20" fill="none" xmlns="http://www.w3.org/2000/svg">
<path fill-rule="evenodd" clip-rule="evenodd" d="M2.43597 4.18404C2 5.03969 2 6.15979 2 8.4V11.6C2 13.8402 2 14.9603 2.43597 15.816C2.81947 16.5686 3.43139 17.1805 4.18404 17.564C5.03969 18 6.15979 18 8.4 18H11.6C13.8402 18 14.9603 18 15.816 17.564C16.5686 17.1805 17.1805 16.5686 17.564 15.816C18 14.9603 18 13.8402 18 11.6V8.4C18 6.15979 18 5.03969 17.564 4.18404C17.1805 3.43139 16.5686 2.81947 15.816 2.43597C14.9603 2 13.8402 2 11.6 2H8.4C6.15979 2 5.03969 2 4.18404 2.43597C3.43139 2.81947 2.81947 3.43139 2.43597 4.18404ZM14.6358 7.98694C14.9876 7.63576 14.9881 7.06591 14.6369 6.71414C14.2857 6.36238 13.7159 6.36191 13.3641 6.71309L8.69116 11.3783L6.63584 9.32637C6.28408 8.97519 5.71423 8.97566 5.36305 9.32743C5.01187 9.67919 5.01234 10.249 5.36411 10.6002L8.0553 13.2869C8.40665 13.6377 8.97568 13.6377 9.32703 13.2869L14.6358 7.98694Z" fill="currentColor"/>
</svg>
