<svg fill="none" height="20" viewBox="0 0 20 20" width="20" xmlns="http://www.w3.org/2000/svg"><path clip-rule="evenodd" d="m2 8.4c0-2.24021 0-3.36031.43597-4.21596.3835-.75265.99542-1.36457 1.74807-1.74807.85565-.43597 1.97575-.43597 4.21596-.43597h3.2c2.2402 0 3.3603 0 4.216.43597.7526.3835 1.3645.99542 1.748 1.74807.436.85565.436 1.97575.436 4.21596v3.2c0 2.2402 0 3.3603-.436 4.216-.3835.7526-.9954 1.3645-1.748 1.748-.8557.436-1.9758.436-4.216.436h-3.2c-2.24021 0-3.36031 0-4.21596-.436-.75265-.3835-1.36457-.9954-1.74807-1.748-.43597-.8557-.43597-1.9758-.43597-4.216zm4.4.7c-.49706 0-.9.40294-.9.9 0 .4971.40294.9.9.9h7.2c.4971 0 .9-.4029.9-.9 0-.49706-.4029-.9-.9-.9z" fill="currentColor" fill-rule="evenodd"/></svg>
