<svg fill="none" height="20" viewBox="0 0 20 20" width="20" xmlns="http://www.w3.org/2000/svg"><path clip-rule="evenodd" d="m17 10c0 3.866-3.134 7-7 7-3.86599 0-7-3.134-7-7 0-3.86599 3.13401-7 7-7 3.866 0 7 3.13401 7 7zm1.5 0c0 4.6944-3.8056 8.5-8.5 8.5-4.69442 0-8.5-3.8056-8.5-8.5 0-4.69442 3.80558-8.5 8.5-8.5 4.6944 0 8.5 3.80558 8.5 8.5zm-5.2197-1.21967c.2929-.29289.2929-.76777 0-1.06066s-.7677-.29289-1.0606 0l-3.2197 3.21963-1.21967-1.21963c-.29289-.29289-.76777-.29289-1.06066 0-.29289.29293-.29289.76773 0 1.06063l1.75 1.75c.29289.2929.76777.2929 1.06066 0z" fill="currentColor" fill-rule="evenodd"/></svg>
