<svg xmlns="http://www.w3.org/2000/svg" width="20" height="20" fill="none" viewBox="0 0 20 20"><path fill="#2688eb" fill-rule="evenodd" d="M3 4.63c0-.338 0-.506.057-.65a.8.8 0 0 1 .238-.323c.12-.097.28-.147.603-.248l5.338-1.67c.284-.089.426-.133.57-.15a1.6 1.6 0 0 1 .388 0c.144.017.286.061.57.15l5.338 1.67c.323.1.484.151.603.248a.8.8 0 0 1 .238.324c.057.143.057.311.057.65v6.05c0 4.502-5.057 7-6.575 7.648-.133.057-.2.086-.296.101a1 1 0 0 1-.258 0 1.2 1.2 0 0 1-.296-.101C8.057 17.68 3 15.183 3 10.68z" clip-rule="evenodd"/><path fill="#fff" fill-rule="evenodd" d="M13.76 7.2a.75.75 0 0 1 .04 1.06l-4.179 4.5a.75.75 0 0 1-1.1 0l-2.32-2.5A.75.75 0 1 1 7.3 9.24l1.771 1.908 3.63-3.908a.75.75 0 0 1 1.06-.04" clip-rule="evenodd"/></svg>