<svg xmlns="http://www.w3.org/2000/svg" width="20" height="20" fill="none" viewBox="0 0 20 20"><path fill="url(#a)" d="M0 10C0 4.4771 4.4771 0 10 0c5.5228 0 10 4.4771 10 10 0 5.5228-4.4772 10-10 10-5.5229 0-10-4.4772-10-10Z"/><path fill="#fff" d="M6.7071 9.2929c-.3905-.3905-1.0237-.3905-1.4142 0-.3905.3905-.3905 1.0237 0 1.4142l3 3c.3905.3905 1.0237.3905 1.4142 0l5.5-5.5c.3905-.3905.3905-1.0237 0-1.4142-.3905-.3905-1.0237-.3905-1.4142 0L9 11.5858l-2.2929-2.293Z"/><defs><linearGradient id="a" x1="30" x2="10" y1="10" y2="-10" gradientUnits="userSpaceOnUse"><stop stop-color="#65C2C2"/><stop offset="1" stop-color="#86D1D1"/></linearGradient></defs></svg>
