<svg xmlns="http://www.w3.org/2000/svg" width="20" height="20" fill="currentColor" viewBox="0 0 20 20"><path fill-rule="evenodd" d="M15.783 10.152a.75.75 0 0 1-1.061 0L10 5.438l-4.722 4.716a.75.75 0 0 1-1.06-1.061L9.47 3.846a.75.75 0 0 1 1.06 0l5.253 5.246a.75.75 0 0 1 0 1.06Z" clip-rule="evenodd"/><path fill-rule="evenodd" d="M15.783 16.152a.75.75 0 0 1-1.061 0L10 11.438l-4.722 4.716a.75.75 0 0 1-1.06-1.061L9.47 9.846a.75.75 0 0 1 1.06 0l5.253 5.246a.75.75 0 0 1 0 1.06Z" clip-rule="evenodd"/></svg>