<svg xmlns="http://www.w3.org/2000/svg" width="20" height="20" viewBox="0 0 20 20" fill="currentColor"><path fill-rule="evenodd" d="m6.969 4.24 1.688-1.688a1.9 1.9 0 0 1 2.686 0l1.688 1.687c.381.382.662 1.204.274 1.91l1.727 1.727c.508.508.672 1.418.14 2.094l1.875 1.919c.552.565.665 1.573-.022 2.247-.598.586-2.227 1.678-6.025 1.843v1.02a1 1 0 1 1-2 0v-1.02c-3.795-.165-5.424-1.256-6.024-1.842-.694-.68-.573-1.697-.009-2.26l1.881-1.882c-.556-.679-.394-1.605.12-2.119L6.694 6.15c-.388-.706-.107-1.528.274-1.91m.93 2.827-1.87 1.87c-.037.036-.04.092-.002.127l.007.005c.103.097.993.931 3.966.931s3.863-.834 3.966-.93l.006-.006c.038-.035.036-.091 0-.127l-1.87-1.87c-.516.184-1.203.298-2.102.298-.9 0-1.586-.114-2.102-.298M11.97 5.3l-1.687-1.687a.4.4 0 0 0-.566 0L8.03 5.3c-.037.037-.038.094.003.126.326.253.95.439 1.967.439 1.016 0 1.641-.186 1.967-.44.04-.03.04-.088.003-.125m-7.942 7.637 2.085-2.086c.817.353 2.052.65 3.887.65 1.861 0 3.105-.305 3.921-.665l2.053 2.101a.09.09 0 0 1 .001.127l-.01.01c-.141.147-1.374 1.426-5.965 1.426s-5.825-1.28-5.965-1.425l-.01-.01a.09.09 0 0 1 .003-.128" clip-rule="evenodd"/></svg>