<svg xmlns="http://www.w3.org/2000/svg" width="20" height="20" fill="currentColor" viewBox="0 0 20 20"><path fill-rule="evenodd" d="M2.134 3.336a.75.75 0 0 1 1.042-.197c.788.537 1.27 1.12 1.507 1.769.233.64.19 1.247.115 1.745-.03.197-.06.374-.088.535-.128.739-.197 1.141.153 1.62a.75.75 0 0 1-1.21.886c-.763-1.043-.546-2.167-.4-2.92.024-.126.046-.241.061-.344.062-.412.064-.722-.04-1.01-.102-.277-.339-.63-.943-1.042a.75.75 0 0 1-.197-1.042Zm2.81 10.604a1.5 1.5 0 0 0 2.12 2.12l.315-.315-2.12-2.12-.315.314Zm1.376-1.376 2.12 2.12 8.624-8.623a1.5 1.5 0 1 0-2.12-2.12L6.32 12.564ZM3.884 17.12a3 3 0 0 1 0-4.241l9.998-10a3 3 0 1 1 4.242 4.243L8.125 17.12a3 3 0 0 1-4.241 0Z" clip-rule="evenodd"/></svg>
