<svg xmlns="http://www.w3.org/2000/svg" width="20" height="20" viewBox="0 0 20 20" fill="currentColor"><path fill-rule="evenodd" d="M13.568 1.536c.36-.047.705-.058 1.055.027a2.75 2.75 0 0 1 1.524.989c.22.285.35.606.453.954.1.34.19.765.3 1.275.038.183.076.363.097.517a1.5 1.5 0 0 1-.019.569 1.5 1.5 0 0 1-.54.832 1.5 1.5 0 0 1-.511.248c-.15.044-.33.082-.513.12L8.673 8.5h6.874c.197 0 .39 0 .553.013.172.014.374.047.577.15.247.126.454.318.598.553l.059.104.065.151c.054.15.075.297.085.426.013.162.013.356.013.553v2.399c0 .757 0 1.371-.04 1.867-.041.505-.13.955-.342 1.372a3.5 3.5 0 0 1-1.53 1.53c-.417.212-.867.3-1.371.341-.497.04-1.11.04-1.868.04H7.897c-.757 0-1.371 0-1.867-.04-.505-.041-.955-.129-1.372-.341a3.5 3.5 0 0 1-1.53-1.53c-.212-.417-.3-.867-.341-1.372-.04-.496-.04-1.11-.04-1.867V8.5h.005l-.133-.626c-.114-.535-.21-.981-.257-1.35-.049-.378-.057-.741.041-1.107.15-.56.475-1.06.926-1.425.294-.238.63-.38.994-.489.357-.107.803-.2 1.339-.314l6.62-1.407c.51-.109.934-.199 1.286-.246M4.247 12.85c0 .782 0 1.324.035 1.745.034.412.096.642.183.813a2 2 0 0 0 .874.874c.17.087.401.15.813.183.42.035.963.035 1.745.035h4.45c.781 0 1.324 0 1.745-.035.411-.034.642-.096.813-.183.376-.192.682-.498.874-.874.087-.171.149-.401.183-.813.034-.42.035-.963.035-1.745v-2.4c0-.222 0-.344-.008-.431l-.002-.01h-.009a6 6 0 0 0-.431-.009h-11.3zm1.726-8.192c-.56.119-.936.199-1.22.284-.276.082-.4.153-.48.217a1.25 1.25 0 0 0-.42.647c-.027.098-.04.241-.004.526.038.295.119.672.238 1.232l.077.362 1.72-.365L6.891 4.46zM8.585 4.1 7.578 7.2l2.956-.628 1.007-3.099zm5.682-1.081c-.093-.023-.23-.033-.502.003-.15.02-.323.05-.533.093L12.227 6.21l2.874-.61c.207-.044.321-.07.402-.093l.006-.003v-.01a6 6 0 0 0-.078-.403c-.113-.533-.19-.89-.27-1.162-.077-.263-.141-.384-.2-.46a1.25 1.25 0 0 0-.694-.45" clip-rule="evenodd"/></svg>