<svg xmlns="http://www.w3.org/2000/svg" width="20" height="20" fill="none" viewBox="0 0 20 20"><path fill="url(#a)" d="M0 10C0 4.4771 4.4771 0 10 0c5.5228 0 10 4.4771 10 10 0 5.5228-4.4772 10-10 10-5.5229 0-10-4.4772-10-10Z"/><path fill="#fff" fill-rule="evenodd" d="M7.8114 3.0009a.85.85 0 0 1 .8877.8105l.15 3.3a.85.85 0 1 1-1.6982.0772l-.15-3.3a.85.85 0 0 1 .8105-.8877Zm4.5389.5231a.85.85 0 0 1 .6258 1.0263l-.8 3.3a.85.85 0 0 1-1.6522-.4006l.8-3.3a.85.85 0 0 1 1.0264-.6257Z M14.2675 9.2072a.75.75 0 1 0-1.035 1.0857c.35.3337.5304.641.6309.9327.1037.301.1366.6266.1366 1.0244 0 1.393-1.3179 3.25-3.9996 3.25-.9994 0-2.0236-.3442-2.7845-.9357-.7525-.585-1.216-1.3809-1.2159-2.3142 0-.2832.1173-.7487.4024-1.1286.2635-.3512.6598-.6215 1.2792-.6215.1537 0 .623.0729.907.6038a.75.75 0 1 0 1.3226-.7075C9.2755 9.2074 8.1647 9 7.6817 9c-1.1495 0-1.969.5415-2.479 1.2212-.4885.651-.7026 1.4356-.7026 2.0288 0 1.4837.7522 2.6877 1.7953 3.4985C7.3298 16.5527 8.6809 17 10.0004 17 13.449 17 15.5 14.5317 15.5 12.25c0-.4717-.037-.9862-.2183-1.5128-.1846-.5358-.5041-1.0437-1.0142-1.53Z"/><defs><linearGradient id="a" x1="-10" x2="10" y1="10" y2="30" gradientUnits="userSpaceOnUse"><stop stop-color="#C48AFF"/><stop offset="1" stop-color="#AA65F0"/></linearGradient></defs></svg>
