<svg xmlns="http://www.w3.org/2000/svg" width="20" height="20" viewBox="0 0 20 20" fill="currentColor"><path d="M7.143 9c.387 0 1.892.13 2.784 1.914a.75.75 0 0 1-1.342.671c-.535-1.07-1.35-1.085-1.442-1.085-.833 0-1.34.352-1.662.79a2.63 2.63 0 0 0-.485 1.461c0 2.425 2.407 4.25 5.004 4.25q.112 0 .222-.004a.75.75 0 0 1 .048 1.5 8 8 0 0 1-.27.004c-3.118 0-6.505-2.219-6.505-5.75 0-.677.219-1.588.777-2.35.582-.792 1.524-1.4 2.87-1.4m5.358 3.157c0-.506.526-.821.947-.569l4.738 2.842a.67.67 0 0 1 0 1.138l-4.738 2.842c-.42.253-.947-.064-.947-.569zm1.176-3.396a.75.75 0 0 1 1.057-.082q.318.274.57.57a.75.75 0 0 1-1.14.973 4 4 0 0 0-.405-.403.75.75 0 0 1-.082-1.058M12.13 2.29a.751.751 0 0 1 1.44.418l-1.35 4.65a.751.751 0 0 1-1.44-.417zm-4.929-.688a.75.75 0 0 1 .798.7L8.248 6.1a.75.75 0 0 1-1.496.099l-.25-3.801a.75.75 0 0 1 .7-.797"/></svg>