<svg fill="none" height="20" viewBox="0 0 20 20" width="20" xmlns="http://www.w3.org/2000/svg"><g fill="currentColor"><path d="m10.25 6.5c0-.41421-.33579-.75-.75-.75s-.75.33579-.75.75v4c0 .324.20807.6114.51589.7125l3.50001 1.15c.3935.1293.8173-.0849.9466-.4784s-.0849-.8173-.4784-.9466l-2.9841-.98052z"/><path clip-rule="evenodd" d="m18.5 10c0-4.69442-3.8056-8.5-8.5-8.5-4.69442 0-8.5 3.80558-8.5 8.5 0 4.6944 3.80558 8.5 8.5 8.5 4.6944 0 8.5-3.8056 8.5-8.5zm-15.5 0c0-3.86599 3.13401-7 7-7 3.866 0 7 3.13401 7 7 0 3.866-3.134 7-7 7-3.86599 0-7-3.134-7-7z" fill-rule="evenodd"/></g></svg>
