<svg xmlns="http://www.w3.org/2000/svg" width="20" height="20" fill="currentColor" viewBox="0 0 20 20"><path fill-rule="evenodd" d="M4.278 3.218a.75.75 0 1 0-1.06 1.06l1.276 1.277a5.228 5.228 0 0 0-.733 3.041A4.5 4.5 0 0 0 6 17h7.25a5.23 5.23 0 0 0 2.205-.484l1.263 1.263a.75.75 0 1 0 1.06-1.06L4.279 3.217Zm10.015 12.135-8.691-8.69a3.733 3.733 0 0 0-.295 2.241.75.75 0 0 1-.453.823A3 3 0 0 0 6 15.5h7.25a3.74 3.74 0 0 0 1.043-.147ZM8.206 4.585a3.752 3.752 0 0 1 4.451 2.833.75.75 0 0 0 .71.585A3.75 3.75 0 0 1 17 11.75c0 .427-.082.863-.22 1.257a.75.75 0 0 0 1.416.494 5.374 5.374 0 0 0 .304-1.75 5.25 5.25 0 0 0-4.532-5.201 5.252 5.252 0 0 0-6.077-3.431.75.75 0 0 0 .315 1.466Z" clip-rule="evenodd"/></svg>
