<svg xmlns="http://www.w3.org/2000/svg" width="20" height="20" fill="currentColor" viewBox="0 0 20 20"><path fill-rule="evenodd" d="M5.25 8.25a3.75 3.75 0 0 1 7.408-.831.75.75 0 0 0 .708.584 3.743 3.743 0 0 1 2.862 1.469.75.75 0 0 0 1.19-.913 5.247 5.247 0 0 0-3.45-2.01A5.252 5.252 0 0 0 3.761 8.597 4.5 4.5 0 0 0 6 17h4.25a.75.75 0 0 0 0-1.5H6a3 3 0 0 1-1.146-5.773.75.75 0 0 0 .453-.823 3.777 3.777 0 0 1-.057-.653Zm10.252 2.756a.75.75 0 0 1 .75.75v2h2a.75.75 0 0 1 0 1.5h-2v2a.75.75 0 0 1-1.5 0v-2h-2a.75.75 0 0 1 0-1.5h2v-2a.75.75 0 0 1 .75-.75Z" clip-rule="evenodd"/></svg>
