<svg xmlns="http://www.w3.org/2000/svg" width="20" height="20" fill="currentColor" viewBox="0 0 20 20"><path fill-rule="evenodd" d="M17 9.995v3.023c-.018 2.2-3.145 3.981-7 3.981-3.866 0-7-1.79-7-4V7c0-2.209 3.135-4 7-4 3.854 0 6.98 1.78 7 3.979v3.016Zm-1.5-.002v-.518C14.218 10.404 12.231 11 10 11c-2.23 0-4.218-.596-5.5-1.525v.546c.014.339.279.918 1.294 1.498 1.002.572 2.486.974 4.206.974 1.72 0 3.204-.402 4.206-.974 1.042-.595 1.293-1.19 1.294-1.524v-.002Zm-11-2.971c.011.337.273.92 1.294 1.504C6.796 9.098 8.28 9.5 10 9.5c1.72 0 3.204-.402 4.206-.974 1.042-.596 1.293-1.19 1.294-1.524V7c0-.334-.252-.93-1.294-1.526C13.204 4.902 11.72 4.5 10 4.5c-1.72 0-3.204.402-4.206.974C4.773 6.058 4.511 6.64 4.5 6.979v.043Zm0 5.996v-.55c1.283.929 3.27 1.525 5.5 1.525 2.231 0 4.218-.596 5.5-1.525v.531c0 .334-.25.93-1.294 1.526-1.002.572-2.486.974-4.206.974-1.72 0-3.204-.402-4.206-.974-1.024-.586-1.284-1.17-1.293-1.507Z" clip-rule="evenodd"/></svg>
