<svg fill="none" height="20" viewBox="0 0 20 20" width="20" xmlns="http://www.w3.org/2000/svg"><g clip-rule="evenodd" fill="currentColor" fill-rule="evenodd"><path d="m15.3309 4.03157c-.3792-.03099-.8685-.03157-1.5809-.03157h-6c-.41421 0-.75-.33579-.75-.75s.33579-.75.75-.75h6.0314c.6734-.00001 1.2241-.00002 1.6717.03655.4632.03785.8816.11859 1.2724.31768.6115.31159 1.1087.80877 1.4203 1.4203.1991.39074.2798.80914.3176 1.2724.0366.44756.0366.99826.0366 1.67163v6.03144c0 .4142-.3358.75-.75.75s-.75-.3358-.75-.75v-6c0-.71244-.0006-1.20167-.0316-1.58092-.0302-.3705-.0857-.56952-.1591-.71356-.1678-.32929-.4355-.597-.7648-.76478-.1441-.07339-.3431-.1289-.7136-.15917z"/><path d="m5.50001 17.5c0 .6067.36546 1.1537.92597 1.3859.56051.2321 1.20569.1038 1.63469-.3252l3.03133-3.0314c.0208-.0207.0414-.0293.0707-.0293 1.0923 0 2.1845.0004 3.2767 0l2.2803 2.2803c.2929.2929.7677.2929 1.0606 0s.2929-.7677 0-1.0606l-15.49997-15.50003c-.29289-.292893-.76777-.292893-1.06066 0-.292893.29289-.292893.76777 0 1.06066l1.18748 1.18748c-.22285.22891-.41153.49129-.55836.77946-.21835.42852-.2899.85782-.32064 1.23406-.02823.34547-.02819.75582-.02815 1.18875.00015 1.54734.00015 3.10656 0 4.65992-.00004.4329-.00008.8433.02815 1.1887.03074.3763.10229.8056.32064 1.2341.30679.6021.79633 1.0917 1.39845 1.3985.42852.2183.85782.2899 1.23406.3206.2999.0245.64869.0277 1.01871.0281zm1.4237-3.1178c.0763.1498.0763.3458.0763.7378v2.38l3.03139-3.0313c.1729-.173.2594-.2595.3603-.3213.0895-.0548.187-.0952.2891-.1197.1151-.0277.2374-.0277.4819-.0277h1.7767l-9.47141-9.47135c-.11233.11815-.20777.25256-.28269.3996-.18529.36365-.18529.8397-.18529 1.79179v4.55996c0 .9521 0 1.4282.18529 1.7918.16298.3199.42305.58.74292.7429.36365.1853.8397.1853 1.79179.1853h.16c.39203 0 .58805 0 .73779.0763.13171.0671.2388.1742.30591.3059z"/></g></svg>
