<svg fill="none" height="20" viewBox="0 0 20 20" width="20" xmlns="http://www.w3.org/2000/svg"><path clip-rule="evenodd" d="m6.42598 18.8858c-.56051-.2321-.92597-.7791-.92597-1.3858v-2c-.37002-.0004-.71881-.0036-1.01871-.0281-.37624-.0308-.80554-.1023-1.23406-.3207-.60212-.3068-1.09166-.7963-1.39846-1.3984-.21834-.4286-.28989-.8578-.32063-1.2341-.02823-.3455-.02819-.7558-.02815-1.1888.00015-1.55329.00015-3.11248 0-4.65981-.00004-.43295-.00008-.84331.02815-1.18879.03074-.37624.10229-.80554.32063-1.23406.3068-.60212.79634-1.09166 1.39846-1.39845.42852-.21835.85782-.2899 1.23406-.32064.34548-.02823.75584-.02819 1.18879-.02815 2.88661.00027 5.77321 0 8.65981 0 .433-.00004.8433-.00008 1.1888.02815.3762.03074.8055.10229 1.2341.32064.6021.30679 1.0916.79633 1.3984 1.39845.2184.42852.2899.85782.3207 1.23406.0282.34548.0282.75584.0281 1.1888v4.6598c.0001.433.0001.8433-.0281 1.1888-.0308.3763-.1023.8055-.3207 1.2341-.3068.6021-.7963 1.0916-1.3984 1.3984-.4286.2184-.8579.2899-1.2341.3207-.3455.0282-.7558.0282-1.1888.0281h-3.1672c-.0293 0-.0499.0085-.0707.0293l-3.03133 3.0314c-.429.429-1.07418.5573-1.63469.3251zm.57403-3.7658c0-.392 0-.588-.0763-.7378-.06711-.1317-.1742-.2388-.30591-.3059-.14974-.0763-.34576-.0763-.73779-.0763h-.16c-.95209 0-1.42814 0-1.79179-.1853-.31987-.163-.57994-.423-.74293-.7429-.18528-.3637-.18528-.8397-.18528-1.7918v-4.55999c0-.95209 0-1.42814.18528-1.79179.16299-.31987.42306-.57994.74293-.74292.36365-.18529.8397-.18529 1.79179-.18529h8.55999c.9521 0 1.4281 0 1.7918.18529.3199.16298.5799.42305.7429.74292.1853.36365.1853.8397.1853 1.79179v4.55999c0 .9521 0 1.4281-.1853 1.7918-.163.3199-.423.5799-.7429.7429-.3637.1853-.8397.1853-1.7918.1853h-3.1173c-.2445 0-.3668 0-.4819.0276-.1021.0245-.1996.0649-.2891.1198-.1009.0618-.1874.1483-.3603.3212l-3.03139 3.0314z" fill="currentColor" fill-rule="evenodd"/></svg>
