<svg xmlns="http://www.w3.org/2000/svg" width="20" height="20" fill="currentColor" viewBox="0 0 20 20"><path fill-rule="evenodd" d="M5.42 2h7.66c.535 0 .98 0 1.345.03.38.03.736.098 1.073.27A2.75 2.75 0 0 1 16.7 3.502c.172.337.24.693.27 1.073.03.365.03.81.03 1.345V8a.754.754 0 0 1-.011.13c.095.03.19.068.282.115.424.216.768.56.984.984.144.283.198.578.222.875.023.28.023.622.023 1.017v3.758c0 .395 0 .736-.023 1.017a2.29 2.29 0 0 1-.222.875 2.25 2.25 0 0 1-.983.984c-.284.144-.58.198-.876.222-.28.023-.622.023-1.017.023h-.758c-.395 0-.736 0-1.017-.023a2.29 2.29 0 0 1-.875-.222 2.25 2.25 0 0 1-.85-.755H4.15a.75.75 0 0 1 0-1.5H8.5v-2H5.42c-.535 0-.98 0-1.345-.03-.38-.03-.736-.098-1.073-.27A2.75 2.75 0 0 1 1.8 12c-.172-.338-.24-.694-.27-1.074-.03-.365-.03-.81-.03-1.345V5.92c0-.535 0-.98.03-1.345.03-.38.098-.736.27-1.073A2.75 2.75 0 0 1 3.002 2.3c.337-.172.693-.24 1.073-.27C4.44 2 4.885 2 5.42 2Zm6.084 13.5c-.004-.189-.004-.396-.004-.621V13.5H10v2h1.504ZM11.5 12v-.879c0-.395 0-.736.023-1.017a2.29 2.29 0 0 1 .222-.875 2.25 2.25 0 0 1 .984-.984 2.29 2.29 0 0 1 .875-.222C13.884 8 14.226 8 14.62 8h.879V5.95c0-.572 0-.957-.025-1.253-.023-.287-.065-.424-.111-.514a1.25 1.25 0 0 0-.546-.547c-.091-.046-.228-.088-.515-.111-.296-.024-.68-.025-1.253-.025h-7.6c-.572 0-.957 0-1.253.025-.287.023-.424.065-.514.111a1.25 1.25 0 0 0-.547.547c-.046.09-.088.227-.111.514C3 4.993 3 5.377 3 5.95v3.6c0 .572 0 .957.025 1.252.023.288.065.425.111.516.12.235.311.426.547.546.09.046.227.088.514.111.296.024.68.025 1.253.025h6.05Zm4.25 3a.75.75 0 1 1-1.5 0 .75.75 0 0 1 1.5 0Zm-2.34-5.418c.037-.02.112-.047.316-.064.212-.017.492-.018.924-.018h.7c.432 0 .712 0 .924.018.204.017.28.045.316.064a.75.75 0 0 1 .328.328c.02.037.047.112.064.316.017.212.018.492.018.924v3.7c0 .432 0 .712-.018.924-.017.204-.045.28-.064.316a.75.75 0 0 1-.328.328c-.037.02-.112.047-.316.064-.212.017-.492.018-.924.018h-.7c-.432 0-.712 0-.924-.018-.204-.017-.28-.045-.317-.064a.75.75 0 0 1-.327-.328c-.02-.037-.047-.112-.064-.316A12.796 12.796 0 0 1 13 14.85v-3.7c0-.432 0-.712.018-.924.017-.204.045-.28.064-.316a.75.75 0 0 1 .327-.328Z" clip-rule="evenodd"/></svg>
