<svg xmlns="http://www.w3.org/2000/svg" width="20" height="20" fill="currentColor" viewBox="0 0 20 20"><path fill-rule="evenodd" d="M4.444 3.026h.004l.006.002.018.005a3.877 3.877 0 0 1 .268.085 10.047 10.047 0 0 1 2.849 1.558C8.487 5.384 9.39 6.364 10 7.682c.61-1.318 1.513-2.298 2.411-3.004a10.049 10.049 0 0 1 2.849-1.559 6.094 6.094 0 0 1 .268-.085l.018-.005.006-.001h.002l-.086.024.088-.025a.75.75 0 0 1 .73.2C17.824 4.795 18.5 7.337 18.5 9.5c0 4.662-3.657 8.5-8.5 8.5s-8.5-3.838-8.5-8.5c0-2.162.676-4.704 2.214-6.275a.75.75 0 0 1 .73-.2ZM15.518 4.62a8.544 8.544 0 0 0-2.18 1.235c-1.301 1.025-2.588 2.7-2.588 5.395a.75.75 0 0 1-1.5 0c0-2.696-1.286-4.37-2.589-5.394A8.546 8.546 0 0 0 4.482 4.62C3.512 5.845 3 7.74 3 9.5c0 3.854 3.006 7 7 7s7-3.146 7-7c0-1.76-.512-3.655-1.482-4.88Z" clip-rule="evenodd"/></svg>
