<svg fill="none" height="20" viewBox="0 0 20 20" width="20" xmlns="http://www.w3.org/2000/svg"><path clip-rule="evenodd" d="m17 10c0 3.866-3.134 7-7 7-3.86599 0-7-3.134-7-7 0-3.86599 3.13401-7 7-7 3.866 0 7 3.13401 7 7zm1.5 0c0 4.6944-3.8056 8.5-8.5 8.5-4.69442 0-8.5-3.8056-8.5-8.5 0-4.69442 3.80558-8.5 8.5-8.5 4.6944 0 8.5 3.80558 8.5 8.5zm-11 0c0-1.38071 1.11929-2.5 2.5-2.5.581 0 1.1138.19726 1.5381.52895.3263.25511.7977.19738 1.0528-.12895.2551-.32632.1974-.79768-.129-1.05279-.6787-.53058-1.5344-.84721-2.4619-.84721-2.20914 0-4 1.79086-4 4 0 2.2091 1.79086 4 4 4 .9275 0 1.7832-.3166 2.4619-.8472.3264-.2551.3841-.7265.129-1.0528s-.7265-.3841-1.0528-.1289c-.4243.3316-.9571.5289-1.5381.5289-1.38071 0-2.5-1.1193-2.5-2.5z" fill="currentColor" fill-rule="evenodd"/></svg>
