<svg xmlns="http://www.w3.org/2000/svg" width="20" height="20" fill="currentColor" viewBox="0 0 20 20"><path fill-rule="evenodd" d="M1.47 3.283a.75.75 0 0 1 1.06 0l13.5 13.5.052.057a.75.75 0 0 1-1.056 1.056l-.056-.052-.902-.902-.02.002h-7.77c-.377 0-.706 0-.978-.021h-.02c-.009 0-.018-.003-.027-.004a2.977 2.977 0 0 1-.317-.046 1.908 1.908 0 0 1-.502-.166 2.181 2.181 0 0 1-.952-.952 2.221 2.221 0 0 1-.216-.847c-.023-.275-.022-.611-.022-.999v-1.09L2.036 8.232c-.264-1.005.193-1.914.932-2.39L1.47 4.344a.75.75 0 0 1 0-1.06Zm3.274 10.19v.436c0 .412 0 .677.017.877.015.192.042.259.057.288.065.128.17.231.296.296.03.015.097.042.288.058.201.016.466.016.878.016h6.29l-1.97-1.971H4.744Zm-.62-6.475a.68.68 0 0 0-.638.852l1.085 4.123H9.1L4.124 6.998Z" clip-rule="evenodd"/><path d="M8 4.433c.76-1.748 3.238-1.748 3.997 0l1.024 2.358 1.748-1.003c1.676-.964 3.684.573 3.192 2.444l-1.48 5.628a.75.75 0 1 1-1.45-.382L16.51 7.85a.678.678 0 0 0-.994-.761L13.04 8.511a.75.75 0 0 1-1.061-.352L10.62 5.03a.679.679 0 0 0-1.245 0l-.024.056-.5 1.133-.034.068a.75.75 0 0 1-1.341-.666l.499-1.133L8 4.433Z"/></svg>