<svg xmlns="http://www.w3.org/2000/svg" width="20" height="20" fill="currentColor" viewBox="0 0 20 20"><path fill-rule="evenodd" d="M8 4.433c.759-1.748 3.238-1.748 3.997 0L13.02 6.79l1.748-1.003c1.677-.964 3.685.573 3.192 2.443l-1.207 4.59v1.088c0 .388 0 .723-.022 1-.023.284-.075.57-.216.846a2.18 2.18 0 0 1-.952.952 2.22 2.22 0 0 1-.847.216c-.275.022-.611.021-.999.021H6.28c-.387 0-.724.001-1-.021a2.22 2.22 0 0 1-.847-.216 2.181 2.181 0 0 1-.952-.952 2.22 2.22 0 0 1-.216-.847c-.022-.275-.021-.611-.021-.999v-1.09L2.036 8.231c-.492-1.87 1.515-3.406 3.192-2.443l1.747 1.003L8 4.433Zm-3.257 9.476c0 .412 0 .677.016.877.016.191.043.259.058.288a.68.68 0 0 0 .296.296c.03.015.097.042.288.058.2.016.466.016.878.016h7.438c.412 0 .677 0 .877-.016.19-.016.259-.043.288-.058a.68.68 0 0 0 .297-.296c.015-.03.041-.096.057-.288.016-.2.016-.465.016-.877v-.436H4.742v.436ZM10.62 5.03a.679.679 0 0 0-1.245 0L8.017 8.16a.751.751 0 0 1-1.061.35L4.48 7.09a.68.68 0 0 0-.995.76l1.085 4.124h10.853L16.51 7.85a.678.678 0 0 0-.994-.761L13.041 8.51a.751.751 0 0 1-1.062-.352L10.621 5.03Z" clip-rule="evenodd"/></svg>