<svg xmlns="http://www.w3.org/2000/svg" width="20" height="20" fill="currentColor" viewBox="0 0 20 20"><path d="M10.667 3.516v-.001s-.175-.5-.674-.5c-.5 0-.677.5-.677.5v.001l-.004.009-.011.037-.05.149a16.508 16.508 0 0 1-.91 2.19c-.305.6-.651 1.16-1.014 1.56-.376.413-.674.553-.888.553-.76 0-1.62-.482-2.363-1.073a9.774 9.774 0 0 1-1.17-1.106l-.013-.016-.003-.003s-.363-.453-.854-.204c-.492.248-.37.856-.37.856l1.097 5.514H17.22l1.098-5.514s.15-.588-.334-.849c-.484-.26-.891.197-.891.197l-.002.003-.014.016a8.476 8.476 0 0 1-.302.323c-.212.215-.512.5-.868.783-.742.59-1.603 1.073-2.363 1.073-.213 0-.512-.14-.887-.553-.363-.4-.71-.96-1.014-1.56a16.496 16.496 0 0 1-.91-2.19 11.54 11.54 0 0 1-.05-.15l-.012-.036-.003-.009Zm6.254 9.963H3.061l.249 1.25.01.04c.123.485.326.926.676 1.295.793.836 1.94.914 3.369.932h5.253c1.428-.018 2.576-.096 3.368-.932.35-.37.553-.81.677-1.294l.01-.042.248-1.249Z"/></svg>
