<svg xmlns="http://www.w3.org/2000/svg" width="20" height="20" fill="none" viewBox="0 0 20 20"><rect width="20" height="20" fill="url(#a)" rx="10"/><path fill="#fff" fill-rule="evenodd" d="M10.5489 7.1382a1.1392 1.1392 0 0 0 .5905-.9988C11.1394 5.5101 10.6293 5 10 5s-1.1394.5101-1.1394 1.1394c0 .4303.2385.8049.5905.9987L7.8437 9.5413a.2.2 0 0 1-.2834.0509L6.1665 8.5846a1.135 1.135 0 0 0 .1124-.494c0-.6292-.5102-1.1394-1.1395-1.1394S4 7.4615 4 8.0907 4.5101 9.23 5.1394 9.23l.5718 1.772h8.5953l.5541-1.772C15.4899 9.2301 16 8.72 16 8.0907s-.5101-1.1395-1.1394-1.1395-1.1394.5102-1.1394 1.1395c0 .1807.042.3516.1169.5034l-1.3926 1.0068a.2.2 0 0 1-.2834-.051l-1.6132-2.4117ZM6.0004 12.202h7.9992l-.128.6221A1.7231 1.7231 0 0 1 12.1838 14.2H7.8169a1.723 1.723 0 0 1-1.6873-1.3739l-.1292-.624Z" clip-rule="evenodd"/><defs><linearGradient id="a" x1="17" x2="3" y1="3" y2="17" gradientUnits="userSpaceOnUse"><stop stop-color="#FF22A6"/><stop offset=".0667" stop-color="#FD23A7"/><stop offset=".1333" stop-color="#F625A9"/><stop offset=".2" stop-color="#EA29AD"/><stop offset=".2667" stop-color="#D92FB3"/><stop offset=".3333" stop-color="#C436BB"/><stop offset=".4" stop-color="#AA3EC4"/><stop offset=".4667" stop-color="#8E48CD"/><stop offset=".5333" stop-color="#7151D8"/><stop offset=".6" stop-color="#555BE1"/><stop offset=".6667" stop-color="#3B63EA"/><stop offset=".7333" stop-color="#266AF2"/><stop offset=".8" stop-color="#1570F8"/><stop offset=".8667" stop-color="#0974FC"/><stop offset=".9333" stop-color="#0276FE"/><stop offset="1" stop-color="#07F"/></linearGradient></defs></svg>
