<svg xmlns="http://www.w3.org/2000/svg" width="20" height="20" fill="currentColor" viewBox="0 0 20 20"><path d="M17.204 5.73c.23-.24.59-.3.89-.15v.01c.3.15.46.48.39.81l-1.12 5.6H2.632l-1.12-5.6a.765.765 0 0 1 1.3-.67l.1.1c.07.07.18.18.31.3.27.25.65.58 1.069.89.42.32.88.6 1.31.79.44.19.779.24 1.009.19.18-.04.46-.22.82-.67.34-.42.67-.98.949-1.56a18.747 18.747 0 0 0 .85-2.08 3 3 0 0 1 .033-.093l.016-.047c.01-.01.01-.03.01-.03.1-.31.39-.52.72-.52.33 0 .62.21.72.52.01 0 .01.01.01.03l.017.047.033.093a17.445 17.445 0 0 0 .85 2.08c.29.58.609 1.14.949 1.56.36.45.64.63.82.67.23.05.569 0 1.009-.19.43-.19.88-.47 1.31-.79a11.414 11.414 0 0 0 1.378-1.19l.1-.1ZM2.932 13.5l.12.6A3.606 3.606 0 0 0 6.59 17h6.816c1.72 0 3.199-1.21 3.539-2.9l.12-.6H2.931Z"/></svg>
