<svg xmlns="http://www.w3.org/2000/svg" width="20" height="20" fill="currentColor" viewBox="0 0 20 20"><path fill-rule="evenodd" d="M13.589 3.05c-.116-.04-.266-.05-.922-.05H7.333c-.656 0-.805.01-.921.05a.997.997 0 0 0-.591.639c-.031.12-.03.247.016.834.189 2.397.682 4.452 1.436 5.882.753 1.429 1.68 2.097 2.733 2.097 1.052 0 1.977-.668 2.728-2.096.752-1.43 1.242-3.485 1.43-5.883.046-.587.047-.714.016-.834a.997.997 0 0 0-.591-.64Zm-.822-1.55c.502 0 .924-.001 1.307.13a2.492 2.492 0 0 1 1.558 1.685c.08.312.077.623.054.968a2.56 2.56 0 0 1 1.256.12c.853.308 1.555 1.095 1.555 2.272 0 1.17-.73 2.087-1.58 2.724-.76.567-1.704.985-2.626 1.239-.074.16-.15.315-.229.466-.524.998-1.208 1.832-2.061 2.345.017 1.118.275 1.519.473 1.778.034.044.074.092.119.145.26.309.663.786.663 1.628v.75a.75.75 0 0 1-.75.75h-5a.75.75 0 0 1-.75-.75V17c0-.84.397-1.316.656-1.625.044-.053.084-.101.118-.145.196-.26.454-.663.47-1.787-.85-.514-1.53-1.345-2.054-2.339a9.612 9.612 0 0 1-.23-.465c-.923-.253-1.87-.671-2.631-1.24-.85-.637-1.58-1.554-1.58-2.724 0-1.177.702-1.964 1.555-2.272.39-.141.83-.187 1.254-.12-.023-.344-.026-.655.054-.967A2.492 2.492 0 0 1 5.926 1.63c.383-.131.805-.13 1.307-.13h5.534Zm-8.29 4.44-.007.007c-.173-.172-.536-.265-.9-.133-.312.112-.566.37-.566.86 0 .497.31 1.023.98 1.524.311.233.676.44 1.068.616a19.814 19.814 0 0 1-.576-2.873Zm5 8.027c-.086 1.09-.395 1.697-.75 2.167-.09.117-.161.207-.22.281-.205.255-.251.313-.251.585h3.5c0-.27-.046-.327-.252-.581-.06-.074-.133-.165-.222-.282-.36-.47-.671-1.078-.758-2.168a3.985 3.985 0 0 1-1.048-.002Zm5.475-5.155a5.64 5.64 0 0 0 1.066-.614c.669-.5.98-1.027.98-1.523 0-.49-.254-.749-.566-.861-.364-.132-.728-.04-.9.133l-.007-.007a19.872 19.872 0 0 1-.573 2.872Z" clip-rule="evenodd"/></svg>
