<svg xmlns="http://www.w3.org/2000/svg" width="20" height="20" fill="currentColor" viewBox="0 0 20 20"><path fill-rule="evenodd" d="M8.418 4a1.75 1.75 0 0 1 3.164 0H8.418Zm-1.58 0a3.25 3.25 0 0 1 6.325 0h4.087a.75.75 0 0 1 0 1.5h-.545l-.155 1.573a.75.75 0 0 1-1.493-.146l.14-1.427H4.803l.896 9.14c.051.527.087.882.134 1.156.046.265.095.4.147.492a1.4 1.4 0 0 0 .654.593c.177.078.431.113 1.172.118a.75.75 0 0 1-.01 1.5c-.69-.005-1.261-.022-1.768-.246a2.9 2.9 0 0 1-1.354-1.228c-.17-.302-.259-.624-.319-.973a18.061 18.061 0 0 1-.146-1.238L3.295 5.5H2.75a.75.75 0 0 1 0-1.5h4.087ZM14 19c-2.76 0-5-2.24-5-5s2.24-5 5-5 5 2.24 5 5-2.24 5-5 5Zm0-8a.75.75 0 0 1 .75.75v1.849l.913.608a.75.75 0 1 1-.832 1.248l-1.247-.831A.75.75 0 0 1 13.25 14v-2.25A.75.75 0 0 1 14 11Z" clip-rule="evenodd"/></svg>
