<svg xmlns="http://www.w3.org/2000/svg" width="20" height="20" viewBox="0 0 20 20" fill="currentColor"><path fill-rule="evenodd" d="M10.223 1.5c.331 0 .62-.005.898.062.23.055.45.146.65.27.245.15.446.357.68.59l3.627 3.627c.233.234.44.435.59.68.123.2.215.42.27.65.067.278.062.567.062.898v3.873c0 .967.001 1.738-.05 2.36-.05.63-.16 1.172-.413 1.67a4.25 4.25 0 0 1-1.857 1.857c-.498.253-1.04.361-1.67.413-.621.05-1.392.05-2.36.05h-1.3c-.967 0-1.738 0-2.36-.05-.63-.052-1.172-.16-1.67-.413a4.25 4.25 0 0 1-1.857-1.858c-.253-.497-.361-1.04-.413-1.67C3 13.89 3 13.117 3 12.15v-1.465a.75.75 0 0 1 1.5 0v1.465c0 .992 0 1.691.045 2.237.044.537.127.86.255 1.11.264.518.685.94 1.202 1.203.251.128.574.21 1.11.255.547.044 1.246.045 2.238.045h1.3c.993 0 1.692 0 2.238-.045.537-.044.86-.127 1.11-.255a2.75 2.75 0 0 0 1.203-1.202c.127-.251.21-.574.254-1.11.045-.546.045-1.246.045-2.238V8.5h-2.32c-.421 0-.784 0-1.081-.025-.306-.026-.61-.083-.901-.237a2.25 2.25 0 0 1-.936-.936c-.154-.29-.211-.595-.237-.901C10 6.104 10 5.741 10 5.32V3H6.757a.75.75 0 0 1 0-1.5zM11.5 5.32c0 .446.001.736.02.955.018.209.047.287.067.325.07.133.18.242.313.313.038.02.116.05.325.067.22.019.508.02.955.02h1.727L11.5 3.593z" clip-rule="evenodd"/><path d="M7.698 7.217a.32.32 0 0 1 .605 0l.242.729c.159.476.533.85 1.009 1.009l.728.242a.32.32 0 0 1 0 .605l-.728.243c-.476.158-.85.532-1.009 1.008l-.242.729a.32.32 0 0 1-.605 0l-.244-.729a1.6 1.6 0 0 0-1.008-1.008l-.728-.243a.32.32 0 0 1 0-.605l.728-.242c.476-.159.85-.533 1.008-1.01zM3.326 1.805a.447.447 0 0 1 .847 0l.34 1.019c.222.666.746 1.19 1.412 1.412l1.019.34a.447.447 0 0 1 0 .847l-1.019.34a2.23 2.23 0 0 0-1.412 1.412l-.34 1.019a.447.447 0 0 1-.847 0l-.34-1.019a2.23 2.23 0 0 0-1.412-1.412l-1.019-.34a.447.447 0 0 1 0-.847l1.019-.34a2.23 2.23 0 0 0 1.412-1.412z"/></svg>