<svg xmlns="http://www.w3.org/2000/svg" width="20" height="20" fill="currentColor" viewBox="0 0 20 20"><path fill-rule="evenodd" d="M10 1.55a.75.75 0 0 1 .75.75v.717c1.173.054 2.074.244 2.792.588.893.426 1.428 1.054 1.851 1.76a.75.75 0 1 1-1.286.77c-.327-.543-.667-.916-1.212-1.177-.467-.223-1.131-.387-2.145-.44v4.82c1.996.295 3.212.914 3.923 1.72.8.907.827 1.905.827 2.442 0 1.096-.688 1.993-1.66 2.58-.81.49-1.87.802-3.09.893v.727a.75.75 0 1 1-1.5 0v-.723c-2.57-.161-4.054-1.158-4.67-2.392a.75.75 0 1 1 1.34-.67c.294.587 1.168 1.405 3.33 1.56v-4.81c-1.962-.273-3.173-.784-3.89-1.498-.84-.835-.86-1.807-.86-2.417 0-1.128.601-2.095 1.584-2.75.814-.543 1.893-.879 3.166-.973V2.3a.75.75 0 0 1 .75-.75Zm-.75 2.982c-1.023.09-1.802.362-2.334.716C6.274 5.676 6 6.208 6 6.75c0 .564.04.977.418 1.354.367.365 1.148.787 2.832 1.045V4.532Zm1.5 6.324v4.612c.982-.087 1.766-.34 2.315-.672.686-.414.935-.892.935-1.296 0-.463-.034-.976-.452-1.45-.373-.422-1.149-.919-2.798-1.194Z" clip-rule="evenodd"/></svg>
