<svg xmlns="http://www.w3.org/2000/svg" width="20" height="20" viewBox="0 0 20 20" fill="currentColor"><path d="M8.48 4.142c.932-.527 2.1-.248 3.108.359 1.037.625 2.073 1.686 2.884 3.062.813 1.379 1.235 2.795 1.27 3.994.035 1.162-.3 2.302-1.234 2.83a.644.644 0 0 1-.865-.235.616.616 0 0 1 .226-.851c.335-.19.638-.733.61-1.725-.03-.955-.373-2.167-1.098-3.395-.723-1.228-1.618-2.12-2.442-2.618-.854-.514-1.482-.527-1.82-.336a.643.643 0 0 1-.865-.234.616.616 0 0 1 .226-.851"/><path fill-rule="evenodd" d="M7.18 1.937c1.543-.872 3.381-.75 5.072.054 1.688.804 3.285 2.305 4.473 4.32 1.19 2.016 1.719 4.121 1.585 5.956-.134 1.836-.945 3.455-2.488 4.328a5 5 0 0 1-.379.188l-2.572 1.455c-1.49.842-3.363.75-5.097-.008-1.743-.76-3.421-2.218-4.618-4.248C1.96 11.955 1.512 9.805 1.71 7.947 1.908 6.1 2.762 4.463 4.25 3.621l1.774-1.002.55-.31.204-.115.012-.008q.186-.132.388-.249m-.613 13.796a7.7 7.7 0 0 0 1.806 1.128c1.373.6 2.665.613 3.613.134a7 7 0 0 1-1.235-.455c-.872-.415-1.72-1.018-2.5-1.78zM11.608 3.34c-1.363-.648-2.655-.666-3.66-.098-1.003.568-1.634 1.671-1.742 3.152s.32 3.287 1.38 5.084c1.06 1.8 2.444 3.066 3.81 3.715 1.362.649 2.654.667 3.657.1 1.006-.569 1.636-1.672 1.744-3.152.107-1.483-.32-3.289-1.382-5.09-1.06-1.797-2.442-3.062-3.807-3.711m-7.874 8.373a9.8 9.8 0 0 0 1.72 2.918l1.767-1.022q-.505-.646-.945-1.39a13 13 0 0 1-.77-1.529zm1.172-6.719c-.897.565-1.53 1.669-1.686 3.132a7.3 7.3 0 0 0 .092 2.085l1.693-.978C4.73 8.205 4.624 7.2 4.692 6.265q.048-.66.214-1.272" clip-rule="evenodd"/></svg>