<svg xmlns="http://www.w3.org/2000/svg" width="20" height="20" fill="none" viewBox="0 0 20 20"><path fill="url(#a)" d="M0 10C0 4.4771 4.4771 0 10 0c5.5228 0 10 4.4771 10 10 0 5.5228-4.4772 10-10 10-5.5229 0-10-4.4772-10-10Z"/><path fill="#fff" d="m11.8049 7.5662 2.3897.2346c.8315.0816 1.0865.9127.4444 1.4586l-1.8709 1.5909.6946 2.5917c.2281.8511-.4796 1.3664-1.1884.8541l-2.2732-1.6428-2.2732 1.6428c-.706.5102-1.4165-.0029-1.1884-.8541l.6946-2.5917-1.871-1.5909c-.6447-.5482-.3907-1.3766.4444-1.4586l2.3893-.2346 1.0526-2.4831c.3297-.7777 1.1739-.7773 1.5033 0l1.0522 2.4831Z"/><defs><linearGradient id="a" x1="-10" x2="10" y1="10" y2="30" gradientUnits="userSpaceOnUse"><stop stop-color="#FFB73D"/><stop offset="1" stop-color="#FFA000"/></linearGradient></defs></svg>
