<svg xmlns="http://www.w3.org/2000/svg" width="20" height="20" fill="none" viewBox="0 0 20 20"><circle cx="10" cy="10" r="10" fill="url(#a)"/><path fill="#fff" fill-rule="evenodd" d="M7.927 4.03c1.135-.64 2.486-.552 3.728.039 1.242.59 2.416 1.693 3.29 3.172.873 1.482 1.262 3.029 1.164 4.376-.098 1.349-.694 2.538-1.829 3.179q-.136.075-.274.136l-1.898 1.074c-1.094.619-2.472.55-3.746-.006-1.28-.559-2.513-1.628-3.393-3.12-.878-1.49-1.207-3.069-1.061-4.434.145-1.358.773-2.56 1.867-3.18l1.304-.735.404-.228.15-.085.005-.003q.138-.1.289-.185m-.453 10.135c.43.356.88.635 1.328.83 1.01.441 1.962.45 2.66.096a5 5 0 0 1-.91-.335 6.9 6.9 0 0 1-1.836-1.307zm-2.08-2.954a7.2 7.2 0 0 0 1.263 2.143l1.301-.752a9.5 9.5 0 0 1-1.26-2.143zm5.774-5.298c-.74-.446-1.6-.652-2.285-.265a.45.45 0 0 0-.166.626c.13.22.415.296.636.171.249-.14.71-.13 1.338.248.605.365 1.262 1.02 1.794 1.923.533.902.786 1.792.807 2.494.021.728-.201 1.127-.448 1.267a.45.45 0 0 0-.166.625c.13.22.415.297.636.172.686-.388.932-1.225.907-2.079-.026-.88-.336-1.92-.933-2.933-.597-1.01-1.357-1.79-2.12-2.25m-4.912.362c-.66.416-1.124 1.226-1.24 2.3-.05.476-.03.993.068 1.531l1.244-.718a6.6 6.6 0 0 1-.23-2.18q.036-.484.158-.933" clip-rule="evenodd"/><defs><linearGradient id="a" x1="-10" x2="10" y1="10" y2="30" gradientUnits="userSpaceOnUse"><stop stop-color="#ffc460"/><stop offset="1" stop-color="#fd9f00"/></linearGradient></defs></svg>