<svg xmlns="http://www.w3.org/2000/svg" width="20" height="20" fill="currentColor" viewBox="0 0 20 20"><path d="M17.25 7.5a.75.75 0 0 0 .75-.75v-.052c0-.415 0-.686-.027-.924a4.25 4.25 0 0 0-3.747-3.747C13.988 2 13.716 2 13.302 2H12.25a.75.75 0 0 0 0 1.5h1c.485 0 .665.001.808.017a2.75 2.75 0 0 1 2.425 2.425c.016.143.017.323.017.808 0 .414.336.75.75.75ZM2 13.25a.75.75 0 0 1 1.5 0c0 .485.001.665.017.808a2.75 2.75 0 0 0 2.425 2.425c.143.016.323.017.808.017h1a.75.75 0 0 1 0 1.5H6.698c-.415 0-.686 0-.924-.027a4.25 4.25 0 0 1-3.747-3.747C2 13.988 2 13.716 2 13.302v-.052Zm16 0a.75.75 0 0 0-1.5 0c0 .485-.001.665-.017.808a2.75 2.75 0 0 1-2.425 2.425c-.143.016-.323.017-.808.017h-1a.75.75 0 0 0 0 1.5h1.052c.415 0 .686 0 .924-.027a4.25 4.25 0 0 0 3.747-3.747c.027-.238.027-.51.027-.924v-.052ZM2 6.75a.75.75 0 1 0 1.5 0c0-.485.001-.665.017-.808a2.75 2.75 0 0 1 2.425-2.425c.143-.016.323-.017.808-.017h1a.75.75 0 0 0 0-1.5H6.698c-.415 0-.686 0-.924.027a4.25 4.25 0 0 0-3.747 3.747C2 6.012 2 6.284 2 6.698v.052ZM13.5 10a3.5 3.5 0 1 1-7 0 3.5 3.5 0 0 1 7 0Z"/></svg>
