<svg xmlns="http://www.w3.org/2000/svg" width="20" height="20" fill="currentColor" viewBox="0 0 20 20"><path fill-rule="evenodd" d="M10.75 2.726A.738.738 0 0 0 10 2a.738.738 0 0 0-.75.726v9.722l-3.97-3.97a.75.75 0 0 0-1.06 1.06l5.245 5.245a.75.75 0 0 0 1.06 0l2.256-2.255a.75.75 0 1 0-1.06-1.061l-.972.971V2.726ZM4.75 17a.75.75 0 0 0 0 1.5h10.5a.75.75 0 0 0 0-1.5H4.75ZM20 7a4 4 0 1 1-8 0 4 4 0 0 1 8 0Zm-1.45-1.804a.625.625 0 0 1-.016.884l-2.85 2.745a.625.625 0 0 1-.864.004l-1.45-1.375a.625.625 0 1 1 .86-.907l1.017.964 2.42-2.331a.625.625 0 0 1 .883.016Z" clip-rule="evenodd"/></svg>
