<svg xmlns="http://www.w3.org/2000/svg" width="20" height="20" fill="currentColor" viewBox="0 0 20 20"><path fill-rule="evenodd" d="M6.205 6.074C6.205 4.352 7.546 3 9.146 3c1.372 0 2.55.989 2.862 2.359a.75.75 0 0 0 .754.583l.076-.001c1.444 0 2.658 1.219 2.658 2.779 0 1.479-1.095 2.654-2.438 2.769a.75.75 0 1 0 .128 1.495c2.155-.185 3.81-2.044 3.81-4.264 0-2.18-1.595-4.012-3.69-4.253-.627-1.721-2.24-2.967-4.16-2.967-2.477 0-4.441 2.072-4.441 4.573v.093A3.712 3.712 0 0 0 3.002 9.31c0 2.013 1.583 3.69 3.59 3.69h.284a.75.75 0 0 0 0-1.5H6.59c-1.13 0-2.09-.956-2.09-2.19 0-.923.541-1.698 1.288-2.024a.75.75 0 0 0 .444-.786 3.242 3.242 0 0 1-.028-.425ZM10.75 8.75a.75.75 0 0 0-1.5 0v7.19l-1.717-1.718a.75.75 0 0 0-1.061 1.06L9.47 18.28a.75.75 0 0 0 1.06 0l3.002-3a.75.75 0 1 0-1.061-1.061l-1.721 1.72V8.75Z" clip-rule="evenodd"/></svg>
