<svg xmlns="http://www.w3.org/2000/svg" width="20" height="20" fill="currentColor" viewBox="0 0 20 20"><path fill-rule="evenodd" d="M5.824 4h.352c.258 0 .494 0 .692.016.213.018.446.057.676.175.33.168.597.435.765.765.118.23.157.463.175.676.016.198.016.434.016.692V7.5h3V6.324c0-.258 0-.494.016-.692a1.77 1.77 0 0 1 .175-.676 1.75 1.75 0 0 1 .764-.765c.23-.118.464-.157.677-.175C13.33 4 13.566 4 13.824 4h.352c.258 0 .494 0 .692.016.213.018.446.057.676.175.33.168.598.435.765.765.118.23.157.463.175.676.016.198.016.434.016.692v.426h.176c.258 0 .494 0 .692.016.213.018.446.057.677.175.329.168.596.435.764.765.118.23.157.463.175.676.016.198.016.434.016.692v1.852c0 .258 0 .494-.016.692a1.775 1.775 0 0 1-.175.676 1.75 1.75 0 0 1-.765.765c-.23.118-.463.158-.676.175-.198.016-.434.016-.692.016H16.5v.426c0 .258 0 .494-.016.692a1.775 1.775 0 0 1-.175.676 1.75 1.75 0 0 1-.765.765c-.23.118-.463.158-.676.175-.198.016-.434.016-.692.016h-.352c-.258 0-.494 0-.692-.016a1.775 1.775 0 0 1-.676-.175 1.75 1.75 0 0 1-.765-.764 1.775 1.775 0 0 1-.175-.677c-.016-.198-.016-.434-.016-.692V12.5h-3v1.176c0 .258 0 .494-.016.692a1.774 1.774 0 0 1-.175.676 1.75 1.75 0 0 1-.765.765c-.23.118-.463.158-.676.175C6.67 16 6.434 16 6.176 16h-.352c-.258 0-.494 0-.692-.016a1.775 1.775 0 0 1-.676-.175 1.75 1.75 0 0 1-.765-.764 1.774 1.774 0 0 1-.175-.677 9.053 9.053 0 0 1-.016-.692v-.426h-.176c-.258 0-.494 0-.692-.016a1.775 1.775 0 0 1-.676-.175 1.75 1.75 0 0 1-.765-.764 1.774 1.774 0 0 1-.175-.677C1 11.42 1 11.184 1 10.926V9.074c0-.258 0-.494.016-.692a1.77 1.77 0 0 1 .175-.676 1.75 1.75 0 0 1 .765-.765 1.77 1.77 0 0 1 .676-.175c.198-.016.434-.016.692-.016H3.5v-.426c0-.258 0-.494.016-.692a1.77 1.77 0 0 1 .175-.676 1.75 1.75 0 0 1 .765-.765 1.77 1.77 0 0 1 .676-.175C5.33 4 5.566 4 5.824 4ZM5 13.65c0 .292 0 .467.011.596a.625.625 0 0 0 .018.12.25.25 0 0 0 .104.105.638.638 0 0 0 .121.018c.13.01.304.011.596.011h.3c.292 0 .467 0 .596-.011a.638.638 0 0 0 .12-.018.25.25 0 0 0 .105-.104.625.625 0 0 0 .018-.121c.01-.13.011-.304.011-.596v-7.3c0-.292 0-.467-.011-.596a.628.628 0 0 0-.018-.12.25.25 0 0 0-.104-.105.627.627 0 0 0-.121-.018A8.337 8.337 0 0 0 6.15 5.5h-.3c-.292 0-.467 0-.596.011a.626.626 0 0 0-.12.018.25.25 0 0 0-.105.104.627.627 0 0 0-.018.121c-.01.13-.011.304-.011.596v7.3Zm.03-8.02v.002-.001Zm.1-.1h.002-.001Zm1.74 0h-.002.001Zm.1.1v.002-.001Zm0 8.74v-.002.001Zm-.1.1h-.002.001Zm-1.74 0h.002-.001Zm-.1-.102v.001-.001ZM3.5 8.25h-.15c-.292 0-.467 0-.596.011a.627.627 0 0 0-.12.018.25.25 0 0 0-.105.104.627.627 0 0 0-.018.121c-.01.13-.011.304-.011.596v1.8c0 .292 0 .467.011.596a.625.625 0 0 0 .018.12.25.25 0 0 0 .104.105.638.638 0 0 0 .121.018c.13.01.304.011.596.011h.15v-3.5Zm-.87 3.47h.002-.001Zm-.1-.1v-.002.001Zm0-3.24v.002-.001Zm.102-.1h-.001.001ZM8.5 11h3V9h-3v2Zm4.5 2.65c0 .292 0 .467.011.596a.636.636 0 0 0 .018.12.25.25 0 0 0 .104.105.636.636 0 0 0 .121.018c.13.01.304.011.596.011h.3c.292 0 .467 0 .596-.011a.636.636 0 0 0 .12-.018.25.25 0 0 0 .105-.104.636.636 0 0 0 .018-.121c.01-.13.011-.304.011-.596v-7.3c0-.292 0-.467-.011-.596a.638.638 0 0 0-.018-.12.25.25 0 0 0-.104-.105.625.625 0 0 0-.121-.018 8.336 8.336 0 0 0-.596-.011h-.3c-.292 0-.467 0-.596.011a.625.625 0 0 0-.12.018.25.25 0 0 0-.105.104.638.638 0 0 0-.018.121c-.01.13-.011.304-.011.596v7.3Zm.03-8.02v.002-.001Zm.1-.1h.002-.001Zm1.74 0h-.002.001Zm.1.1v.002-.001Zm0 8.74v-.002.001Zm-.1.1h-.002.001Zm-1.74 0h.002-.001Zm-.1-.102v.001-.001Zm3.47-2.618h.15c.292 0 .467 0 .596-.011a.636.636 0 0 0 .12-.018.25.25 0 0 0 .105-.104.636.636 0 0 0 .018-.121c.01-.13.011-.304.011-.596V9.1c0-.292 0-.467-.011-.596a.638.638 0 0 0-.018-.12.25.25 0 0 0-.105-.105.625.625 0 0 0-.12-.018 8.336 8.336 0 0 0-.596-.011h-.15v3.5Zm.87-3.47h-.002.001Zm.1.1v.002-.001Zm0 3.24v-.002.001Zm-.1.1h-.002.001Z" clip-rule="evenodd"/></svg>
