<svg xmlns="http://www.w3.org/2000/svg" width="20" height="20" fill="currentColor" viewBox="0 0 20 20"><path d="M14.349 4.502a8.346 8.346 0 0 0-.26-.002h-.339a.75.75 0 0 1 0-1.5h.357c.132 0 .22 0 .296.003a4.25 4.25 0 0 1 4.094 4.094c.003.077.003.164.003.296v5.214c0 .132 0 .22-.003.296a4.25 4.25 0 0 1-4.094 4.094c-.077.003-.164.003-.296.003h-.357a.75.75 0 0 1 0-1.5h.34c.155 0 .213 0 .259-.002a2.75 2.75 0 0 0 2.65-2.65L17 12.59V7.41c0-.155 0-.213-.002-.259a2.75 2.75 0 0 0-2.65-2.65ZM7.714 3h.036a.75.75 0 0 1 0 1.5c-.994 0-1.666 0-2.185.045-.504.043-.806.124-1.063.255A2.75 2.75 0 0 0 3.3 6.002c-.128.25-.21.573-.255 1.11C3.001 7.658 3 8.358 3 9.35v1.3c0 .992 0 1.692.045 2.238.044.537.127.86.255 1.11A2.75 2.75 0 0 0 4.502 15.2c.257.131.56.212 1.063.255.52.044 1.191.045 2.185.045a.75.75 0 0 1 0 1.5h-.036c-.95 0-1.686 0-2.277-.05-.613-.053-1.125-.163-1.616-.413a4.25 4.25 0 0 1-1.858-1.857c-.253-.498-.361-1.04-.413-1.67-.05-.614-.05-1.375-.05-2.327V9.317c0-.952 0-1.713.05-2.327.052-.63.16-1.172.413-1.67a4.25 4.25 0 0 1 1.858-1.857c.49-.25 1.003-.36 1.616-.413C6.028 3 6.765 3 7.714 3Zm3.036-1a.75.75 0 0 0-.75.75V4.5a.75.75 0 0 0 1.5 0V2.75a.75.75 0 0 0-.75-.75Zm0 4.25A.75.75 0 0 0 10 7v1.75a.75.75 0 0 0 1.5 0V7a.75.75 0 0 0-.75-.75Zm-.75 5a.75.75 0 0 1 1.5 0V13a.75.75 0 0 1-1.5 0v-1.75Zm.75 3.5a.75.75 0 0 0-.75.75v1.75a.75.75 0 0 0 1.5 0V15.5a.75.75 0 0 0-.75-.75Z"/></svg>
