<?xml version="1.0" encoding="UTF-8"?>
<svg width="20px" height="20px" viewBox="0 0 20 20" version="1.1" xmlns="http://www.w3.org/2000/svg" xmlns:xlink="http://www.w3.org/1999/xlink">
    <!-- Generator: Sketch 56 (81588) - https://sketch.com -->
    <title>education_outline_20</title>
    <desc>Created with Sketch.</desc>
    <g id="Page-2" stroke="none" stroke-width="1" fill="none" fill-rule="evenodd">
        <g id="education_outline_20">
            <rect id="Bounds" x="0" y="0" width="20" height="20"></rect>
            <path d="M17.5,9.06272989 L16,9.88525548 L16,13 C16,15.8004727 13.2829368,18 10,18 C6.71706317,18 4,15.8004727 4,13 L4,9.88525548 L1.64890658,8.59603247 C1.04358456,8.2641039 0.82195538,7.50431218 1.15388395,6.89899016 C1.26837355,6.69020103 1.44011745,6.51845713 1.64890658,6.40396753 L9.39899016,2.15420611 C9.77336764,1.94891607 10.2266324,1.94891607 10.6010098,2.15420611 L18.3510934,6.40396753 C18.774513,6.63614982 19.0101944,7.0776825 19,7.52925761 L19,12.75 C19,13.1642136 18.6642136,13.5 18.25,13.5 C17.8357864,13.5 17.5,13.1642136 17.5,12.75 L17.5,9.06272989 Z M14.5,10.7077811 L10.6010098,12.8457939 C10.2266324,13.0510839 9.77336764,13.0510839 9.39899016,12.8457939 L5.5,10.7077811 L5.5,13 C5.5,14.8939477 7.48394696,16.5 10,16.5 C12.516053,16.5 14.5,14.8939477 14.5,13 L14.5,10.7077811 Z M10,3.53535787 L2.76987463,7.5 L10,11.4646421 L17.2301254,7.5 L10,3.53535787 Z" id="↳-Icon-Color" fill="currentColor" fill-rule="nonzero"></path>
        </g>
    </g>
</svg>
