<svg xmlns="http://www.w3.org/2000/svg" width="20" height="20" fill="currentColor" viewBox="0 0 20 20"><path fill-rule="evenodd" d="m6.123 8.583-1.559 1.559c-.571.571-.935.937-1.189 1.236-.242.285-.295.41-.314.467-.084.26-.084.541 0 .802.019.056.072.182.314.467.254.3.618.665 1.189 1.236l.586.586c.571.571.937.935 1.236 1.189.285.242.41.296.467.314.26.084.541.084.802 0 .056-.018.182-.072.467-.314.3-.254.665-.618 1.236-1.189l1.559-1.559-4.794-4.794Zm1.059-1.059 4.794 4.794 2.96-2.96c.571-.571.935-.936 1.189-1.236.242-.285.296-.41.314-.467.084-.26.084-.541 0-.802-.018-.056-.072-.182-.314-.467-.254-.3-.618-.665-1.189-1.236l-.586-.586c-.571-.571-.936-.935-1.236-1.189-.285-.242-.41-.295-.467-.314a1.298 1.298 0 0 0-.802 0c-.056.019-.182.072-.467.314-.3.254-.665.618-1.236 1.189l-2.96 2.96ZM1.637 13.11c.207.638.76 1.192 1.868 2.299l.586.586c1.107 1.107 1.66 1.66 2.3 1.868a2.8 2.8 0 0 0 .958.136h9.885a.749.749 0 0 0 0-1.497H9.908l.509-.507 5.578-5.578c1.107-1.107 1.66-1.66 1.868-2.299a2.796 2.796 0 0 0 0-1.728c-.207-.638-.76-1.192-1.868-2.299l-.586-.586c-1.107-1.107-1.66-1.66-2.3-1.868a2.796 2.796 0 0 0-1.727 0c-.638.207-1.192.76-2.299 1.868L3.505 9.083c-1.107 1.107-1.66 1.66-1.868 2.299a2.796 2.796 0 0 0 0 1.728Z" clip-rule="evenodd"/></svg>
