<svg xmlns="http://www.w3.org/2000/svg" width="20" height="20" fill="none" viewBox="0 0 20 20"><path fill="currentColor" fill-rule="evenodd" d="M10.4077 3.134a.92.92 0 0 0-.8251 0c-.0486.0243-.1889.1309-.443.5979-.2437.448-.5213 1.0866-.9184 2.0028-.1607.3705-.3272.739-.482 1.112-.0204.0493-.0846.204-.196.3323a1.0233 1.0233 0 0 1-.3303.2517c-.1678.0804-.3509.0977-.384.1024l-.682.0963c-.9929.1402-1.6853.2388-2.1841.3553-.5202.1215-.6606.2291-.6967.2693a.9224.9224 0 0 0-.2182.798c.0107.053.0767.2172.4626.587.37.3545.9158.7923 1.699 1.419l.2488.1992c.0277.0222.187.1374.294.304.0803.125.1324.266.1527.4132.0248.1792-.0115.3544-.023.4099-.0287.1386-.053.2783-.0793.4174-.2182 1.1508-.3718 1.9642-.433 2.5611-.0652.6352.0029.8214.0264.8599a.9208.9208 0 0 0 .7468.441c.045.0019.2407-.0285.7646-.3929.4923-.3424 1.1292-.8704 2.0298-1.6183l.3154-.262c.038-.0315.0935-.0778.1477-.1163.0664-.0472.172-.1139.3149-.1546a1.0213 1.0213 0 0 1 .5596 0c.1429.0407.2486.1074.315.1546.0541.0385.1097.0848.1476.1163l.3155.262c.9006.7479 1.5374 1.2759 2.0297 1.6183.5239.3644.7196.3948.7647.3929a.9208.9208 0 0 0 .7468-.441c.0235-.0385.0916-.2247.0264-.8599-.0613-.5969-.2148-1.4103-.4331-2.5611-.0264-.1391-.0506-.2788-.0793-.4174-.0115-.0555-.0478-.2307-.023-.4099a1.026 1.026 0 0 1 .1527-.4132c.107-.1666.2663-.2818.294-.304l.2489-.1992c.7831-.6267 1.3289-1.0645 1.6989-1.419.3859-.3698.452-.534.4626-.587a.9224.9224 0 0 0-.2182-.798c-.0361-.0402-.1764-.1478-.6967-.2693-.4988-.1165-1.1912-.215-2.184-.3553-.2312-.0326-.4622-.0688-.6939-.0978-.0528-.0067-.2189-.0274-.3722-.1009a1.0248 1.0248 0 0 1-.3302-.2517c-.122-.1405-.1874-.3125-.2007-.3433l-.4773-1.101c-.3972-.9162-.6748-1.5548-.9185-2.0028-.2541-.467-.3944-.5736-.4429-.598ZM8.8949 1.7605a2.4535 2.4535 0 0 1 2.2004 0c.4997.2507.829.7327 1.1032 1.2367.2805.5158.585 1.2182.9627 2.0896l.4132.9531.5226.0738c.9445.1334 1.7055.241 2.2792.375.5602.1308 1.1142.3209 1.489.738a2.4599 2.4599 0 0 1 .5818 2.128c-.1104.5499-.4905.9959-.906 1.394-.4256.4078-1.0259.8882-1.7708 1.4844l-.1114.0892.0439.2317c.2093 1.1033.3758 1.9815.4446 2.6518.0657.6399.0722 1.2998-.2429 1.8169a2.4554 2.4554 0 0 1-1.9915 1.1759c-.6045.0258-1.1782-.2991-1.706-.6662-.5528-.3845-1.2401-.9553-2.1035-1.6724l-.1083-.0899-.1082.0899c-.8635.7171-1.5508 1.2879-2.1036 1.6724-.5277.3671-1.1015.692-1.706.6662a2.4555 2.4555 0 0 1-1.9915-1.1759c-.315-.5171-.3085-1.177-.2429-1.8169.0688-.6703.2354-1.5485.4446-2.6518l.044-.2317-.1114-.0891c-.745-.5962-1.3453-1.0767-1.7709-1.4845-.4155-.3981-.7956-.8441-.906-1.394a2.4598 2.4598 0 0 1 .5818-2.128c.3748-.4171.9288-.6072 1.489-.738.5737-.134 1.3348-.2416 2.2792-.375l.5226-.0737.4132-.9532c.3777-.8714.6822-1.5738.9628-2.0896.2741-.504.6034-.986 1.1031-1.2367Z" clip-rule="evenodd"/></svg>
