<svg fill="none" height="20" viewBox="0 0 20 20" width="20" xmlns="http://www.w3.org/2000/svg" xmlns:xlink="http://www.w3.org/1999/xlink"><linearGradient id="a" gradientUnits="userSpaceOnUse" x1="-10" x2="10" y1="10" y2="30"><stop offset="0" stop-color="#50c750"/><stop offset="1" stop-color="#32b332"/></linearGradient><path d="m0 10c0-5.52285 4.47715-10 10-10 5.5228 0 10 4.47715 10 10 0 5.5228-4.4772 10-10 10-5.52285 0-10-4.4772-10-10z" fill="url(#a)"/><path d="m11.8049 7.56621 2.3897.23458c.8315.08162 1.0865.91267.4444 1.45865l-1.8709 1.59086.6946 2.5917c.2281.8511-.4796 1.3664-1.1884.8541l-2.2732-1.6428-2.27325 1.6428c-.70591.5102-1.41644-.0029-1.18832-.8541l.69453-2.5917-1.87088-1.59086c-.64478-.54828-.39077-1.37666.44431-1.45865l2.38928-.23458 1.05266-2.48315c.32965-.77762 1.17387-.77723 1.50327.00008z" fill="#fff"/></svg>
