<svg xmlns="http://www.w3.org/2000/svg" width="20" height="20" fill="currentColor" viewBox="0 0 20 20"><path fill-rule="evenodd" d="M6.654 16.387C5.23 15.753 3.5 14.56 3.5 12.5c0-2 1-3 2.998-4.5 1.253-.94 2.34-2.192 2.785-3.844A6.343 6.343 0 0 0 9.497 2.5s.71.356 1.42 1.142c.722.8 1.443 2.045 1.414 3.815a7.548 7.548 0 0 1-.336 2.043s.902-.451 1.797-1.353c.083-.084.165-.17.247-.262a6.23 6.23 0 0 0 .955-1.385s.397.634.783 1.606c.943 2.374 1.822 6.766-3.282 8.894 0 0-2.102-.3-3.047-2.3-.274-.579-.451-1.3-.451-2.2 0 0-1.109.832-1.055 2.496.003.095.01.194.02.295.056.502.217 1.072.535 1.709 0 0-.846-.17-1.843-.613ZM8.497 17l-.294 1.47a1.5 1.5 0 0 0 1.71-.972 6.075 6.075 0 0 0 2.103.936 4.134 4.134 0 0 0 .23.045l.021.004h.009l.003.001h.002c.001 0 .002 0 .214-1.484l-.212 1.485a1.5 1.5 0 0 0 .79-.1c2.072-.865 3.427-2.12 4.186-3.612.746-1.468.834-3.01.673-4.33-.161-1.318-.58-2.496-.942-3.325a13.272 13.272 0 0 0-.651-1.292 7.419 7.419 0 0 0-.05-.083l-.015-.025-.006-.008-.002-.004v-.001s-.001-.001-1.272.795l1.271-.796a1.5 1.5 0 0 0-2.598.096 6.845 6.845 0 0 0-1.143-2.553 7.363 7.363 0 0 0-2.081-1.934 4.881 4.881 0 0 0-.239-.136l-.021-.01-.008-.005-.004-.002h-.002c0-.001-.001-.001-.672 1.34l.67-1.341A1.5 1.5 0 0 0 7.998 2.5c0 1.87-.988 3.241-2.399 4.3-.998.749-1.915 1.491-2.562 2.38C2.338 10.143 2 11.206 2 12.5c0 2.584 1.866 4.101 3.275 4.877a11.186 11.186 0 0 0 2.839 1.075l.059.013.018.003.007.002h.003c.001 0 .002 0 .296-1.47Z" clip-rule="evenodd"/></svg>
