<svg xmlns="http://www.w3.org/2000/svg" width="20" height="20" fill="none" viewBox="0 0 20 20"><path fill="currentColor" fill-rule="evenodd" d="m12.7534 4.0438-.8128 3.3004 1.9233.3505c.9542.161 1.815.616 2.0687 1.5253.2564.9189-.2493 1.8353-.8203 2.5211l-5.0806 5.7449c-.3284.3538-.662.641-.9917.8167-.3037.1619-.7968.3245-1.2684.0516-.461-.2666-.5783-.7655-.6027-1.1082-.027-.3761.0343-.8192.1559-1.3012 0-.0003 0 .0003 0 0L8.1607 12.6l-1.8115-.3195c-.9194-.1576-1.8395-.5897-2.2032-1.4542-.3845-.914.0135-1.895.8039-2.758.4633-.506.9508-.9901 1.4147-1.496.8375-.9131 2.0631-2.265 3.6778-4.0567.3107-.3499.6347-.6365.962-.8139.3059-.1657.787-.322 1.255-.0704.4667.251.6053.739.6387 1.0943.0357.381-.0219.8295-.1447 1.3182Zm-1.3737-.7577a3.9507 3.9507 0 0 0-.2172.2272c-1.2157 1.3706-2.454 2.7227-3.6924 4.073-.298.3249-.7723.8263-1.4196 1.5011-.6283.6886-.5679 1.0478-.5219 1.1572.1567.3723.7338.4992 1.0776.558l2.332.4115c.5623.0992.9497.6615.806 1.2364l-.9648 3.8604a4.7148 4.7148 0 0 0-.0826.3914 4.421 4.421 0 0 0 .2295-.2304l5.0473-5.7074c.5301-.6398.5502-1.0125.5142-1.1414-.0213-.0763-.1474-.3277-.8773-.45l-2.4507-.4465c-.5639-.1028-.9382-.6752-.8011-1.232l.9399-3.8165a4.2863 4.2863 0 0 0 .0811-.392Z" clip-rule="evenodd"/></svg>
