<svg xmlns="http://www.w3.org/2000/svg" width="20" height="20" viewBox="0 0 20 20" fill="currentColor"><path fill-rule="evenodd" d="M9.998 6.75a3.5 3.5 0 1 1 0 7 3.5 3.5 0 0 1 0-7m0 1.5a2 2 0 1 0 0 4.001 2 2 0 0 0 0-4.001" clip-rule="evenodd"/><path fill-rule="evenodd" d="M10.205 1.505A4 4 0 0 1 13.97 5.02a4 4 0 0 1 4.583 2.682 3.99 3.99 0 0 1-2.126 4.857 3.99 3.99 0 0 1-1.141 5.177l-.157.109a4.006 4.006 0 0 1-5.13-.626 4.01 4.01 0 0 1-5.128.626l-.157-.109a3.99 3.99 0 0 1-1.142-5.177 3.99 3.99 0 0 1-2.18-4.674l.054-.183A4 4 0 0 1 6.027 5.02 4 4 0 0 1 10 1.5zM9.986 3a2.5 2.5 0 0 0-2.469 2.196 1.5 1.5 0 0 1-1.782 1.295 2.5 2.5 0 0 0-2.778 1.455l-.084.221a2.49 2.49 0 0 0 1.326 3.03 1.5 1.5 0 0 1 .682 2.097 2.49 2.49 0 0 0 .713 3.229 2.505 2.505 0 0 0 3.304-.322l.112-.108a1.5 1.5 0 0 1 2.09.108 2.506 2.506 0 0 0 3.305.322 2.49 2.49 0 0 0 .713-3.23 1.5 1.5 0 0 1 .681-2.096 2.49 2.49 0 0 0 1.328-3.03 2.5 2.5 0 0 0-2.864-1.676 1.5 1.5 0 0 1-1.782-1.295 2.5 2.5 0 0 0-2.338-2.192z" clip-rule="evenodd"/></svg>