<svg xmlns="http://www.w3.org/2000/svg" width="20" height="20" fill="currentColor" viewBox="0 0 20 20"><path d="M6.726 3.52c-.064-.016-.14-.02-.53-.02-.687 0-1.158 0-1.524.03-.357.027-.55.08-.69.147a1.75 1.75 0 0 0-.805.805c-.068.14-.12.333-.148.69C3.001 5.538 3 6.01 3 6.695V7.5h8.25a.75.75 0 0 1 0 1.5H3v3.25c0 .712 0 1.202.032 1.58.03.371.085.57.159.714.168.33.435.597.765.765.144.074.343.13.713.16.38.03.869.03 1.581.03h2.503a.75.75 0 0 1 0 1.5H6.22c-.674.001-1.225.001-1.672-.036-.463-.038-.882-.118-1.272-.317a3.25 3.25 0 0 1-1.42-1.42c-.2-.391-.28-.81-.318-1.273-.037-.447-.037-.998-.037-1.672V6.665c0-.649 0-1.179.034-1.61.035-.447.11-.851.295-1.23a3.25 3.25 0 0 1 1.495-1.496c.38-.185.784-.26 1.23-.295C4.986 2 5.517 2 6.165 2h.091c.296 0 .556 0 .81.058.244.057.477.154.689.287.22.139.403.324.611.534l.758.764c.285.288.344.34.403.377a.75.75 0 0 0 .217.09c.067.017.147.022.552.022h3.485c.674 0 1.224 0 1.672.036.463.038.882.119 1.273.318a3.25 3.25 0 0 1 1.42 1.42c.252.496.317 1.045.34 1.682a.75.75 0 1 1-1.498.055c-.022-.597-.083-.868-.179-1.056a1.75 1.75 0 0 0-.765-.765c-.144-.073-.343-.129-.713-.159-.38-.03-.869-.031-1.581-.031h-3.517c-.307 0-.578 0-.84-.063a2.25 2.25 0 0 1-.654-.273c-.23-.141-.42-.334-.636-.552l-.76-.766c-.274-.277-.331-.328-.387-.363a.75.75 0 0 0-.23-.096Z"/><path fill-rule="evenodd" d="M12.5 11.5v.5c-.494 0-.753.007-.954.109a1 1 0 0 0-.437.437C11 12.76 11 13.04 11 13.6v2.8c0 .56 0 .84.109 1.054a1 1 0 0 0 .437.437C11.76 18 12.04 18 12.6 18h4.8c.56 0 .84 0 1.054-.109a1 1 0 0 0 .437-.437C19 17.24 19 16.96 19 16.4v-2.8c0-.56 0-.84-.109-1.054a1 1 0 0 0-.437-.437c-.2-.102-.46-.109-.954-.109v-.5a2.5 2.5 0 0 0-5 0Zm2.5-1a1 1 0 0 0-1 1v.5h2v-.5a1 1 0 0 0-1-1Z" clip-rule="evenodd"/></svg>
