<svg xmlns="http://www.w3.org/2000/svg" width="20" height="20" fill="currentColor" viewBox="0 0 20 20"><path fill-rule="evenodd" d="M6.195 3.5c.39 0 .467.005.531.02a.75.75 0 0 1 .23.095c.056.035.113.087.388.364l.715.72.044.045c.216.218.406.41.636.553.202.124.423.216.653.272.263.063.534.063.84.063h3.518c.712 0 1.202 0 1.58.031.371.03.57.086.714.16.33.167.598.435.765.764.12.233.176.57.188 1.423.003.254.003.425.003.756a.75.75 0 0 0 1.5 0v-.002c0-.329 0-.51-.004-.774-.011-.827-.053-1.5-.35-2.084a3.25 3.25 0 0 0-1.42-1.42c-.391-.2-.81-.28-1.273-.318-.447-.036-.998-.036-1.672-.036h-3.486c-.404 0-.484-.005-.55-.021a.75.75 0 0 1-.218-.091c-.059-.036-.118-.09-.403-.377l-.715-.72-.043-.044c-.208-.21-.391-.395-.611-.534a2.25 2.25 0 0 0-.69-.287C6.813 2 6.553 2 6.257 2h-.09c-.65 0-1.18 0-1.612.034-.446.035-.85.11-1.23.295A3.25 3.25 0 0 0 1.83 3.824c-.185.38-.26.784-.295 1.23-.034.432-.034.963-.034 1.611v5.616c0 .674 0 1.224.037 1.672.037.463.118.882.317 1.273a3.25 3.25 0 0 0 1.42 1.42c.391.199.81.28 1.273.317.447.037.998.037 1.672.037h2.607a.75.75 0 0 0 0-1.5H6.25c-.712 0-1.202 0-1.58-.032-.371-.03-.57-.085-.714-.159a1.75 1.75 0 0 1-.765-.764c-.074-.145-.13-.344-.16-.714-.03-.38-.031-.868-.031-1.581V6.695c0-.686 0-1.157.03-1.523.028-.357.08-.55.147-.69a1.75 1.75 0 0 1 .805-.805c.14-.068.333-.12.69-.148.366-.028.837-.029 1.523-.029ZM15 10a2 2 0 1 1 .001 3.999A2 2 0 0 1 15 10Zm-4 7.497V17c0-1.75 2.665-2.25 4-2.25s4 .5 4 2.25v.497a.503.503 0 0 1-.503.503h-6.995a.503.503 0 0 1-.502-.503Z" clip-rule="evenodd"/></svg>
