<svg xmlns="http://www.w3.org/2000/svg" width="20" height="20" fill="currentColor" viewBox="0 0 20 20"><path d="M6.195 3.5c.39 0 .467.005.531.02a.75.75 0 0 1 .23.095c.056.035.113.087.388.364l.759.765c.216.218.406.41.636.553.202.124.423.216.653.272.263.063.534.063.84.063h3.518c.712 0 1.202 0 1.58.031.371.03.57.086.714.16.33.167.598.435.765.764.074.144.13.343.16.714.03.379.031.868.031 1.58v3.369c0 .712 0 1.202-.032 1.58-.03.371-.085.57-.159.714a1.75 1.75 0 0 1-.765.765c-.144.074-.343.13-.713.16-.38.03-.869.031-1.581.031h-2a.75.75 0 0 0 0 1.5h2.031c.674 0 1.224 0 1.672-.037.463-.037.882-.118 1.273-.317a3.25 3.25 0 0 0 1.42-1.42c.199-.391.28-.81.317-1.273.037-.447.037-.998.037-1.672v-3.43c0-.674 0-1.225-.037-1.672-.037-.464-.118-.882-.317-1.273a3.25 3.25 0 0 0-1.42-1.42c-.391-.2-.81-.28-1.273-.318-.447-.036-.998-.036-1.672-.036h-3.486c-.404 0-.484-.005-.55-.021a.75.75 0 0 1-.218-.091c-.059-.036-.118-.09-.403-.377l-.758-.764c-.208-.21-.391-.395-.611-.534a2.25 2.25 0 0 0-.69-.287C6.813 2 6.553 2 6.257 2h-.09c-.65 0-1.18 0-1.612.034-.446.035-.85.11-1.23.295A3.25 3.25 0 0 0 1.83 3.824c-.185.38-.26.784-.295 1.23-.034.432-.034.963-.034 1.611v5.085a.75.75 0 0 0 1.5 0V6.695c0-.686 0-1.157.03-1.523.028-.357.08-.55.147-.69a1.75 1.75 0 0 1 .805-.805c.14-.068.333-.12.69-.148.366-.028.837-.029 1.523-.029Z"/><path d="M2.25 14a.75.75 0 0 0 0 1.5h5.19l-1.72 1.72a.75.75 0 1 0 1.06 1.06l3-3a.75.75 0 0 0 0-1.06l-3-3a.75.75 0 0 0-1.06 1.06L7.44 14H2.25Z"/></svg>
