<?xml version="1.0" encoding="UTF-8"?>
<svg width="20px" height="20px" viewBox="0 0 20 20" version="1.1" xmlns="http://www.w3.org/2000/svg" xmlns:xlink="http://www.w3.org/1999/xlink">
    <!-- Generator: Sketch 56 (81588) - https://sketch.com -->
    <title>followers_outline_20</title>
    <desc>Created with Sketch.</desc>
    <g id="Page-2" stroke="none" stroke-width="1" fill="none" fill-rule="evenodd">
        <g id="followers_outline_20">
            <g id="followers_20">
                <polygon id="Shape" opacity="0.4" points="0 0 20 0 20 20 0 20"></polygon>
                <path d="M5.5,16 C4.67157288,16 4,15.3284271 4,14.5 C4,13.6715729 4.67157288,13 5.5,13 C6.32842712,13 7,13.6715729 7,14.5 C7,15.3284271 6.32842712,16 5.5,16 Z M12.5,15.25 C12.5,15.6642136 12.1642136,16 11.75,16 C11.3357864,16 11,15.6642136 11,15.25 C11,11.7142055 8.28579138,9 4.75,9 C4.33578644,9 4,8.66421356 4,8.25 C4,7.83578644 4.33578644,7.5 4.75,7.5 C9.11421812,7.5 12.5,10.885778 12.5,15.25 Z M17.5,15.25 C17.5,15.6642136 17.1642136,16 16.75,16 C16.3357864,16 16,15.6642136 16,15.25 C16,8.91421356 11.0857864,4 4.75,4 C4.33578644,4 4,3.66421356 4,3.25 C4,2.83578644 4.33578644,2.5 4.75,2.5 C11.9142136,2.5 17.5,8.08578644 17.5,15.25 Z" id="↳-Icon-Color" fill="currentColor" fill-rule="nonzero"></path>
            </g>
        </g>
    </g>
</svg>
