<svg xmlns="http://www.w3.org/2000/svg" width="20" height="20" fill="none" viewBox="0 0 20 20"><path fill="currentColor" fill-rule="evenodd" d="M4.3014 2c3.799.0004 7.5981 0 11.3971 0 .2558 0 .4956 0 .6984.0184.2236.0204.4625.067.6991.1959.3342.182.6231.4988.773.8478.1792.4173.1353.8595.0951 1.2639-.1802 1.8126-.6775 3.5529-1.7768 5.0297-.8584 1.1531-1.9711 2.0683-3.1739 3.0175v1.1783c0 2.1119-1.4709 3.9405-3.5385 4.3991-1.2752.2828-2.485-.6846-2.485-1.987v-3.59c-1.2055-.9498-2.3185-1.8672-3.177-3.0217-1.0977-1.476-1.596-3.2144-1.7768-5.0256-.0403-.4042-.0845-.8463.0947-1.2638.1499-.349.4388-.6661.773-.8481.2367-.1289.4756-.1756.6992-.196C3.8058 2 4.0456 2 4.3014 2Zm-.6765 1.5324c.0087-.003.0397-.012.1152-.0188.1259-.0115.2958-.0122.5894-.0122h11.3409c.2936 0 .4636.0007.5895.0122.0757.0069.1066.0157.1151.0188.0003.0002-.0002 0 0 0 .0454.0248.1043.082.1136.1357a.5602.5602 0 0 1 .0054.0873c.0003.1105-.013.258-.0386.5255-.1812 1.8916-.7113 3.151-1.4774 4.18-.7866 1.0568-1.8438 1.9055-3.1838 2.9591a.7498.7498 0 0 0-.2867.5894v1.5421c0 1.4083-.9808 2.6277-2.3596 2.9335-.3346.0742-.6522-.1796-.6522-.5214v-3.9542a.7499.7499 0 0 0-.2872-.5899c-1.341-1.0522-2.3992-1.9038-3.186-2.9618C4.256 7.4269 3.7261 6.167 3.5447 4.2805c-.0257-.2673-.039-.4146-.0387-.5251a.5401.5401 0 0 1 .0054-.0872c.0093-.0538.0684-.1107.1135-.1358Z" clip-rule="evenodd"/></svg>
