<svg fill="none" height="20" viewBox="0 0 20 20" width="20" xmlns="http://www.w3.org/2000/svg"><path clip-rule="evenodd" d="m11.5001 4h-1.5-1.50001c-2.31691 0-4.24509.43099-5.57746 1.76108-1.32909 1.32684-1.90212 3.38546-1.92252 6.23352-.005729.7998.05436 1.9827.45512 2.9907.20355.512.51073 1.0196.9804 1.4013.48184.3917 1.08947.6134 1.81446.6134.79894 0 1.37319-.3268 1.81084-.7697.31089-.3147.57902-.7227.8049-1.0664l.00001-.0001c.05633-.0857.11003-.1674.16111-.2427.28399-.4185.55557-.759.91564-1.0049.34419-.235.81868-.4162 1.5575-.4162h.50001.5c.7388 0 1.2133.1812 1.5575.4162.3601.2459.6316.5864.9156 1.0049.0511.0753.1048.157.1611.2427v.0001h.0001c.2259.3437.494.7517.8049 1.0664.4376.4429 1.0119.7697 1.8108.7697.725 0 1.3326-.2217 1.8145-.6134.4696-.3817.7768-.8893.9804-1.4013.4007-1.008.4608-2.1909.4551-2.9907-.0204-2.84806-.5935-4.90668-1.9226-6.23352-1.3323-1.33009-3.2605-1.76108-5.5774-1.76108zm-1 8h-.5-.50001c-1.01118 0-1.78669.2563-2.40344.6775-.60086.4104-1.00116.9449-1.31092 1.4014-.08276.1219-.15688.2342-.22546.338l-.00002.0001c-.21135.32-.37.5603-.56631.759-.21079.2133-.41779.324-.74385.324-.40001 0-.66877-.1151-.86836-.2774-.21175-.1721-.39104-.4353-.53263-.7915-.28953-.7282-.35444-1.6702-.34903-2.4257.01939-2.70697.57136-4.27334 1.48232-5.18275.90769-.90615 2.33461-1.32265 4.5177-1.32265h1.50001 1.5c2.1831 0 3.61.4165 4.5177 1.32265.911.90941 1.4629 2.47578 1.4823 5.18275.0054.7555-.0595 1.6975-.349 2.4257-.1416.3562-.3209.6194-.5327.7915-.1995.1623-.4683.2774-.8683.2774-.3261 0-.5331-.1107-.7439-.324-.1963-.1987-.3549-.439-.5663-.759v-.0001l-.0001-.0001c-.0685-.1038-.1426-.216-.2254-.3379-.3097-.4565-.71-.991-1.3109-1.4014-.6167-.4212-1.3922-.6775-2.4034-.6775zm-3.2501-4.5c0-.41421-.33579-.75-.75-.75s-.75.33579-.75.75v.75h-.75c-.41421 0-.75.33579-.75.75s.33579.75.75.75h.75v.75c0 .4142.33579.75.75.75s.75-.3358.75-.75v-.75h.75c.41421 0 .75-.33579.75-.75s-.33579-.75-.75-.75h-.75zm5.25.75c-.4142 0-.75.33579-.75.75s.3358.75.75.75h2c.4142 0 .75-.33579.75-.75s-.3358-.75-.75-.75z" fill="currentColor" fill-rule="evenodd"/></svg>
