<svg fill="none" height="20" viewBox="0 0 20 20" width="20" xmlns="http://www.w3.org/2000/svg" xmlns:xlink="http://www.w3.org/1999/xlink"><linearGradient id="a" gradientUnits="userSpaceOnUse" x1="-10" x2="10" y1="10" y2="30"><stop offset="0" stop-color="#70b2ff"/><stop offset="1" stop-color="#5c9ce6"/></linearGradient><path d="m0 10c0-5.52285 4.47715-10 10-10 5.5228 0 10 4.47715 10 10 0 5.5228-4.4772 10-10 10-5.52285 0-10-4.4772-10-10z" fill="url(#a)"/><path d="m12.5 6c3 0 3.5 4 3.5 5.7 0 1.3-.5 2.3-1.3 2.3-1.2 0-1.2-2.5-3.2-2.5h-3c-2 0-2 2.5-3.2 2.5-.8 0-1.3-1-1.3-2.3 0-1.7.5-5.7 3.5-5.7zm-5.00307 1.5c-.10466 0-.19339.02089-.26672.0601-.07333.03922-.13089.09678-.17011.17011-.03921.07333-.0601.16206-.0601.26672v.50307h-.50307c-.06977 0-.13246.00928-.18824.02709l-.07848.03302c-.07333.03921-.13089.09677-.17011.1701-.03921.07333-.0601.16206-.0601.27286 0 .10466.02089.19339.0601.26672.03922.07333.09678.13089.17011.1701.07333.03922.16206.06011.26672.06011h.50307v.5031c0 .0697.00928.1324.02709.1882l.03301.0785c.03922.0733.09678.1309.17011.1701s.16206.0601.27286.0601c.10466 0 .19339-.0209.26672-.0601s.13089-.0968.17011-.1701c.03921-.0733.0601-.1621.0601-.2667v-.5031h.50307c.06977 0 .13246-.00928.18824-.02709l.07848-.03302c.07333-.03921.13089-.09677.1701-.1701.03922-.07333.06011-.16206.06011-.27286 0-.10466-.02089-.19339-.06011-.26672-.03921-.07333-.09677-.13089-.1701-.1701-.07333-.03922-.16206-.06011-.26672-.06011h-.50307v-.50307c0-.06977-.00928-.13246-.02709-.18824l-.03301-.07848c-.03922-.07333-.09678-.13089-.17011-.17011-.07333-.03921-.16206-.0601-.27286-.0601zm6.00617 1h-1.0062c-.1046 0-.1934.02089-.2667.06011-.0733.03921-.1309.09677-.1701.1701s-.0601.16206-.0601.27286c0 .10466.0209.19339.0601.26672s.0968.13089.1701.1701c.0733.03922.1621.06011.2667.06011h1.0062c.1046 0 .1934-.02089.2667-.06011.0733-.03921.1309-.09677.1701-.1701s.0601-.16206.0601-.27286c0-.10466-.0209-.19339-.0601-.26672s-.0968-.13089-.1701-.1701c-.0733-.03922-.1621-.06011-.2667-.06011z" fill="#fff"/></svg>