<svg xmlns="http://www.w3.org/2000/svg" width="20" height="20" fill="currentColor" viewBox="0 0 20 20"><path fill-rule="evenodd" d="M13.974 6.352a.2.2 0 0 1 0 .283l-.487.487a.2.2 0 0 1-.283 0l-.305-.304a.2.2 0 0 0-.282 0l-5.81 5.811a.2.2 0 0 0 0 .283l.301.3a.2.2 0 0 1 0 .284l-.485.485a.2.2 0 0 1-.283 0l-2.992-2.993a.2.2 0 0 1 0-.283l.485-.486a.2.2 0 0 1 .283 0l.265.265a.2.2 0 0 0 .282 0l5.81-5.812a.2.2 0 0 0 0-.282l-.269-.27a.2.2 0 0 1 0-.282l.487-.487a.2.2 0 0 1 .283 0l3 3.001Zm-1.206 2.435a1 1 0 0 0 1.284-.11l1.477-1.476a1 1 0 0 0 0-1.415l-3.99-3.99a1 1 0 0 0-1.413 0L8.649 3.271a1 1 0 0 0-.138 1.242L4.504 8.522a1 1 0 0 0-1.236.142l-1.475 1.475a1 1 0 0 0 0 1.414l3.982 3.984a1 1 0 0 0 1.413 0l1.475-1.476a1 1 0 0 0 .113-1.28l.648-.648 4.975 4.977a1.35 1.35 0 0 0 1.908 0l.798-.798a1.35 1.35 0 0 0 0-1.909L12.13 9.426l.638-.639Zm2.585 7.156-4.869-4.87.586-.586 4.868 4.87-.585.586ZM3.748 16.998a.75.75 0 0 0 0 1.5h5.498a.75.75 0 0 0 0-1.5H3.748Z" clip-rule="evenodd"/></svg>
