<svg xmlns="http://www.w3.org/2000/svg" width="20" height="20" fill="currentColor" viewBox="0 0 20 20"><path fill-rule="evenodd" d="m10.064 3.982 3.282 3.284.77-.77-3.283-3.284-.77.77Zm3.99 4.698a1 1 0 0 1-1.285.11l-.638.638 4.975 4.977a1.35 1.35 0 0 1 0 1.91l-.798.797a1.35 1.35 0 0 1-1.908 0l-4.975-4.977-.648.649a1 1 0 0 1-.113 1.28L7.19 15.539a1 1 0 0 1-1.413 0l-3.982-3.983a1 1 0 0 1 0-1.415L3.27 8.666a1 1 0 0 1 1.236-.141l4.007-4.009a1 1 0 0 1 .138-1.241l1.477-1.477a1 1 0 0 1 1.413 0l3.99 3.99a1 1 0 0 1 0 1.415L14.053 8.68Zm-3.569 2.395 4.87 4.87.585-.585-4.87-4.87-.585.585ZM5.583 9.567l3.972-3.973 2.144 2.145-3.972 3.973-2.144-2.145Zm-2.376 1.281 3.276 3.277.768-.768-3.276-3.277-.768.768ZM3 17.75a.75.75 0 0 1 .75-.75h5.498a.75.75 0 0 1 0 1.5H3.749a.75.75 0 0 1-.75-.75Z" clip-rule="evenodd"/></svg>
