<svg xmlns="http://www.w3.org/2000/svg" width="20" height="20" fill="none" viewBox="0 0 20 20">
  <rect width="20" height="20" fill="url(#a)" rx="10"/>
  <path fill="#fff" d="M10.75 4.5c.135.45.23.901.979 1.333.838.228 1.248.002 1.63-.252.398-.266.516-.189.675-.033l.385.386c.177.177.248.248 0 .707-.223.414-.474.8-.25 1.636.432.753.881.883 1.331.973.469.094.498.231.5.454v.546c0 .25 0 .35-.5.5-.45.135-.901.23-1.333.979-.228.838-.002 1.248.252 1.63.266.398.189.516.033.675l-.386.385c-.177.177-.248.248-.707 0-.415-.223-.8-.474-1.636-.25-.753.432-.883.881-.973 1.331-.094.469-.231.498-.454.5H9.75c-.25 0-.35 0-.5-.5-.135-.45-.23-.901-.979-1.333-.838-.228-1.248-.002-1.63.252-.398.266-.516.189-.674.033l-.386-.386c-.177-.177-.248-.248 0-.707.223-.415.474-.8.25-1.636-.432-.753-.882-.883-1.331-.973-.469-.094-.498-.231-.5-.454V9.75c0-.25 0-.35.5-.5.45-.135.901-.23 1.333-.979.228-.838.002-1.248-.252-1.63-.266-.398-.189-.516-.033-.674l.386-.386c.177-.177.248-.248.707 0 .414.223.8.474 1.636.25.753-.432.883-.882.973-1.331.094-.469.231-.498.454-.5h.546c.25 0 .35 0 .5.5ZM10 7.15a2.85 2.85 0 1 0 0 5.7 2.85 2.85 0 0 0 0-5.7Z"/>
  <defs>
    <linearGradient id="a" x1="-10" x2="10" y1="10" y2="30" gradientUnits="userSpaceOnUse">
      <stop stop-color="#B1B6BD"/>
      <stop offset="1" stop-color="#99A2AD"/>
    </linearGradient>
  </defs>
</svg>
