<svg fill="none" height="20" viewBox="0 0 20 20" width="20" xmlns="http://www.w3.org/2000/svg"><path clip-rule="evenodd" d="m10.7614 3.30095c.0707-.51853.5527-.8784 1.0699-.79883.4862.07479.8315.51295.7907 1.00308l-.3694 4.43253c-.0287.34385.181.66275.5077.77294l.0019.00064.0202.00732c.0196.00728.0517.01952.0941.03704.0852.03512.2112.09099.3628.16999.3055.15913.7027.40569 1.0791.75532.3035.28189.7781.26437 1.06-.03913s.2644-.77805-.0391-1.05994c-.4999-.46429-1.0171-.78345-1.407-.98656-.0486-.0253-.0953-.0489-.1401-.07084l.3246-3.89474c.1063-1.2754-.7924-2.4156-2.0574-2.61021-1.3459-.207067-2.60029.72941-2.78428 2.07873l-.08939.65551-.02203-.0646c-.37927-1.11254-1.49179-1.80208-2.6569-1.64673-1.29535.17271-2.2306 1.32679-2.13035 2.63011l.34509 4.48616c-.7536.666-1.92009 2.17296-1.45696 4.48836.54214 2.7105 3.17919 5.0849 7.22692 4.8548l.0345-.0021.0139-.0008.0042-.0003.0012-.0001c.4135-.0252.7286-.3809.7033-.7943-.0253-.4135-.3809-.7282-.7943-.7029l-.0014.0001-.004.0002-.0132.0008-.0293.0018c-3.36924.1916-5.28824-1.738-5.67096-3.6514-.38041-1.9019.81011-2.9819 1.18058-3.2288 1.0508-.70055 2.10404-.47769 2.32478-.41856.01024.00274.02696.00807.0669.02259.56792.20652.83592.70017.8245 1.18077-.01113.4683-.28074.8816-.83622 1.0018-.31118.0674-.48536.0893-.54598.0893-.41422 0-.75.3358-.75.75s.33578.75.75.75c.23933 0 .55629-.0568.86335-.1232 1.31059-.2838 1.99285-1.3545 2.01845-2.4323.0253-1.06551-.5851-2.18009-1.81149-2.62606-.04539-.0165-.11392-.04107-.19138-.06182-.29699-.07955-1.2992-.29372-2.46534.09115l-.29156-3.79023c-.03918-.50938.32627-.96066.83302-1.02823.45557-.06074.89059.20888 1.03889.6439l.71845 2.10746.00696.02041c.04162.12217.08514.24991.12705.34891.02238.05289.05758.13023.10876.20777.04546.06887.15297.21541.34947.30767.29799.13993.6486.10598.91422-.0885.17515-.12825.25255-.2927.28395-.36901.0354-.08591.0551-.16857.0669-.22477.0221-.1052.0403-.23891.0577-.36679l.003-.02137zm5.5486 14.69355 1.38-.7967.0396-.0229c.2206-.1272.4662-.2689.6626-.4077.2019-.1426.5609-.4207.7719-.8946.2479-.5567.2479-1.1924 0-1.749-.211-.474-.57-.752-.7719-.8946-.1964-.1388-.442-.2805-.6626-.4078l-.0396-.0228-1.38-.7968-.0396-.0228c-.2205-.1274-.466-.2693-.6844-.37-.2245-.1035-.6448-.2754-1.1607-.2212-.606.0637-1.1565.3815-1.5147.8745-.3049.4197-.3662.8697-.3888 1.1158-.022.2395-.0219.5231-.0218.7777v.0457 1.5935.0458c-.0001.2546-.0002.5381.0218.7776.0226.2462.0839.6961.3888 1.1159.3582.4929.9087.8108 1.5147.8744.5159.0543.9362-.1176 1.1607-.2211.2184-.1007.4639-.2426.6844-.37zm.63-3.8971c.5119.2956.7679.4434.8538.6363.0749.1683.0749.3605 0 .5288-.0859.1929-.3419.3407-.8538.6362l-1.38.7968c-.5119.2956-.7679.4433-.9779.4213-.1833-.0193-.3497-.1154-.458-.2644-.1241-.1709-.1241-.4664-.1241-1.0576v-1.5935c0-.5911 0-.8867.1241-1.0575.1083-.1491.2747-.2451.458-.2644.21-.0221.466.1257.9779.4213z" fill="currentColor" fill-rule="evenodd"/></svg>
