<svg xmlns="http://www.w3.org/2000/svg" width="20" height="20" fill="currentColor" viewBox="0 0 20 20"><path fill-rule="evenodd" d="m13.548 17.735.555.238a2.766 2.766 0 0 0 3.563-1.306c.22-.439.334-.923.334-1.413V9A8 8 0 1 0 2 9v6.276c0 .476.11.946.324 1.372a2.79 2.79 0 0 0 3.593 1.316l.552-.236a.942.942 0 0 1 .975.142l.444.37a3.3 3.3 0 0 0 4.224 0l.43-.358a.973.973 0 0 1 1.006-.147ZM10 2.5A6.5 6.5 0 0 0 3.5 9v6.276c0 .243.057.483.166.701.305.61 1.033.877 1.66.608l.552-.236a2.442 2.442 0 0 1 2.526.368l.444.37a1.8 1.8 0 0 0 2.304 0l.43-.357a2.473 2.473 0 0 1 2.557-.374l.555.238a1.266 1.266 0 0 0 1.63-.597 1.66 1.66 0 0 0 .176-.743V9A6.5 6.5 0 0 0 10 2.5Z M7.871 12.341a.75.75 0 0 1 1.038-.22c.414.27.776.376 1.1.377.323 0 .676-.104 1.073-.37a.75.75 0 1 1 .836 1.245c-.596.4-1.236.626-1.91.625-.674-.001-1.316-.228-1.917-.62a.75.75 0 0 1-.22-1.037ZM14.25 9a1.25 1.25 0 1 1-2.5 0 1.25 1.25 0 0 1 2.5 0ZM7 10.25a1.25 1.25 0 1 0 0-2.5 1.25 1.25 0 0 0 0 2.5Z" clip-rule="evenodd"/></svg>
