<svg xmlns="http://www.w3.org/2000/svg" width="20" height="20" fill="currentColor" viewBox="0 0 20 20"><path fill-rule="evenodd" d="M14.478 3.024c1.328 1.325.21 4.441-4.231 4.472l-.245-.001c-4.646.084-5.829-3.122-4.477-4.471 1.319-1.318 4.41-.224 4.477 4.146.067-4.37 3.157-5.464 4.476-4.146ZM2.57 8.979c-.068.254-.068.564-.068 1.184 0 .31 0 .464.034.591a1 1 0 0 0 .707.708c.127.034.282.034.592.034H9.5V7.498h1v3.998h5.58c.39 0 .584 0 .74-.054a1 1 0 0 0 .625-.624c.053-.156.053-.351.053-.74 0-.709 0-1.063-.097-1.349a1.82 1.82 0 0 0-1.136-1.135c-.285-.098-.64-.098-1.348-.098H5.168c-.62 0-.93 0-1.183.069A2 2 0 0 0 2.57 8.979Zm6.93 3.519h-5v1.8c0 1.12 0 1.68.218 2.108a2 2 0 0 0 .875.874c.427.218.987.218 2.107.218h1.8v-5Zm6 0h-5v5h1.8c1.12 0 1.68 0 2.108-.218a2 2 0 0 0 .875-.874c.218-.428.218-.988.218-2.108v-1.8Z" clip-rule="evenodd"/></svg>
