<svg fill="none" height="20" viewBox="0 0 20 20" width="20" xmlns="http://www.w3.org/2000/svg"><g clip-rule="evenodd" fill="currentColor" fill-rule="evenodd"><path d="m8.21865 7.99852h4.19155c.4142 0 .75-.33579.75-.75 0-.09482-.0176-.18554-.0497-.26905-.3962-1.32078-1.008-2.69757-1.654-3.82773 2.3344.49405 4.2403 2.15159 5.0805 4.33902l.0093.02414c.1471.38722.5802.58188.9674.43479s.5819-.58023.4348-.96745l-.0112-.02934c-1.2246-3.18803-4.3155-5.4529-7.9373-5.4529-4.69442 0-8.5 3.80558-8.5 8.5 0 3.6295 2.27446 6.7258 5.47319 7.9451.38705.1475.82041-.0467.96795-.4337.14753-.3871-.04664-.8204-.43369-.968-1.51074-.5758-2.77013-1.6595-3.57018-3.042h2.9221c.41422 0 .75-.3357.75-.75 0-.4142-.33578-.75-.75-.75h-3.56905c-.1889-.6342-.29032-1.306-.29032-2.0014 0-.69552.10144-1.36734.29032-2.00148h3.40106c-.0937.52347-.15692 1.06551-.18257 1.62364l-.00254.05836c-.00116.02812-.0009.05386.00018.07731.00051.01116.0012.02135.00178.02895.01359.40232.34398.72422.74957.72422.41421 0 .75-.3358.75-.75 0-.01886-.00052-.0362-.00135-.05216l.00078-.01782c.02684-.58418.10083-1.1497.21142-1.6925zm.3618-4.8545c-1.98309.40847-3.65986 1.6557-4.64312 3.3545h3.11572c.38911-1.28055.94205-2.41401 1.5274-3.3545zm1.44285.52752c.4814.80882.9657 1.80709 1.3439 2.82698h-2.73716c.37466-1.08385.87592-2.04032 1.39326-2.82698z"/><path d="m14.0021 18.9999c2.7614 0 5-2.2385 5-5 0-2.7614-2.2386-4.99996-5-4.99996s-5.00002 2.23856-5.00002 4.99996c0 2.7615 2.23862 5 5.00002 5zm2.5242-6.4699c.2927-.293.2925-.7679-.0006-1.0606-.293-.2928-.7679-.2925-1.0607.0006l-1.4664 1.468-1.4683-1.4683c-.2929-.2929-.7677-.2929-1.0606 0s-.2929.7677 0 1.0606l1.4688 1.4689-1.4691 1.4708c-.2928.293-.2925.7679.0006 1.0606.293.2928.7679.2925 1.0606-.0006l1.4686-1.4701 1.4705 1.4704c.2929.2929.7677.2929 1.0606 0s.2929-.7677 0-1.0606l-1.471-1.4711z"/></g></svg>
