<svg xmlns="http://www.w3.org/2000/svg" width="20" height="20" fill="none" viewBox="0 0 20 20"><path fill="currentColor" fill-rule="evenodd" d="M2.75 18a.75.75 0 0 0 .75-.75v-12a.75.75 0 0 0-1.5 0v12a.75.75 0 0 0 .75.75Zm3.5 0a.75.75 0 0 0 .75-.75v-9a.75.75 0 0 0-1.5 0v9a.75.75 0 0 0 .75.75ZM10 18a.75.75 0 0 0 .75-.75v-3a.75.75 0 0 0-1.5 0v3A.75.75 0 0 0 10 18Zm3.75 0a.75.75 0 0 1-.75-.75V3.748a.75.75 0 0 1 1.5 0V17.25a.75.75 0 0 1-.75.75Zm3.5 0a.75.75 0 0 1-.75-.75v-5.5a.75.75 0 0 1 1.5 0v5.5a.75.75 0 0 1-.75.75Z" clip-rule="evenodd"/></svg>
