<svg xmlns="http://www.w3.org/2000/svg" width="20" height="20" fill="currentColor" viewBox="0 0 20 20"><path fill-rule="evenodd" d="M14.121 8c-.395 0-.736 0-1.017-.023a2.29 2.29 0 0 1-.875-.222 2.25 2.25 0 0 1-.984-.984 2.29 2.29 0 0 1-.222-.875 8.193 8.193 0 0 1-.021-.546H11V4.5h.003c.003-.136.009-.259.02-.396a2.29 2.29 0 0 1 .222-.875 2.25 2.25 0 0 1 .984-.984 2.29 2.29 0 0 1 .875-.222C13.384 2 13.726 2 14.12 2h.758c.395 0 .736 0 1.017.023.297.024.592.078.875.222.424.216.768.56.984.984.144.283.198.578.222.875.011.137.017.26.02.396H18v.85h-.002a8.193 8.193 0 0 1-.02.546c-.025.297-.079.592-.223.875a2.25 2.25 0 0 1-.983.984c-.284.144-.58.198-.876.222C15.616 8 15.274 8 14.88 8h-.758Zm2.361-3.774c.016.2.018.326.018.699 0 .39-.002.65-.018.85-.017.203-.045.278-.064.315a.75.75 0 0 1-.328.328c-.037.02-.112.047-.316.064-.212.017-.492.018-.924.018h-.7c-.432 0-.712 0-.924-.018-.204-.017-.28-.045-.317-.064a.75.75 0 0 1-.327-.328c-.02-.037-.047-.112-.064-.316-.016-.2-.018-.458-.018-.847 0-.375.002-.501.018-.701.017-.204.045-.28.064-.316a.75.75 0 0 1 .327-.328c.038-.02.113-.047.317-.064.212-.017.492-.018.924-.018h.7c.432 0 .712 0 .924.018.204.017.28.045.316.064a.75.75 0 0 1 .328.328c.02.037.047.112.064.316ZM11 13.12c0-.395 0-.736.023-1.017a2.29 2.29 0 0 1 .222-.875 2.25 2.25 0 0 1 .984-.984 2.29 2.29 0 0 1 .875-.222c.28-.023.65-.023 1.046-.023h.7c.395 0 .765 0 1.046.023.297.024.592.078.875.222.424.216.768.56.984.984.144.283.198.578.222.875.023.28.023.622.023 1.017v1.758c0 .395 0 .736-.023 1.017a2.29 2.29 0 0 1-.222.875 2.25 2.25 0 0 1-.983.984c-.284.144-.58.198-.876.222-.28.023-.65.023-1.046.023h-.7c-.395 0-.765 0-1.046-.023a2.29 2.29 0 0 1-.875-.222 2.251 2.251 0 0 1-.984-.983 2.304 2.304 0 0 1-.222-.876C11 15.616 11 15.274 11 14.88v-1.76Zm3.85 3.379h-.7c-.432 0-.712 0-.924-.018-.204-.017-.28-.045-.317-.064a.75.75 0 0 1-.327-.328c-.02-.037-.047-.112-.064-.316a12.796 12.796 0 0 1-.018-.924v-1.7c0-.432 0-.712.018-.924.017-.204.045-.28.064-.317a.75.75 0 0 1 .327-.327c.038-.02.113-.047.317-.064.212-.017.492-.018.924-.018h.7c.432 0 .712 0 .924.018.204.017.28.045.316.064a.75.75 0 0 1 .328.327c.02.038.047.113.064.317.017.212.018.492.018.924v1.7c0 .432 0 .712-.018.924-.017.204-.045.28-.064.316a.75.75 0 0 1-.328.328c-.037.02-.112.047-.316.064-.212.017-.492.018-.924.018ZM2 5.121V6.88c0 .395 0 .736.023 1.017.024.297.078.592.222.875.216.424.56.768.984.984.283.144.578.198.875.222.28.023.65.023 1.046.023h.7c.395 0 .765 0 1.046-.023a2.29 2.29 0 0 0 .875-.222 2.25 2.25 0 0 0 .984-.984 2.29 2.29 0 0 0 .222-.875C9 7.616 9 7.274 9 6.88V5.12c0-.395 0-.736-.023-1.017a2.29 2.29 0 0 0-.222-.875 2.25 2.25 0 0 0-.984-.984 2.29 2.29 0 0 0-.875-.222C6.616 2 6.246 2 5.85 2h-.7c-.395 0-.765 0-1.046.023a2.29 2.29 0 0 0-.875.222 2.25 2.25 0 0 0-.984.984 2.29 2.29 0 0 0-.222.875C2 4.384 2 4.726 2 5.12ZM5.5 8.5h.35c.432 0 .712 0 .924-.018.204-.017.28-.045.316-.064a.75.75 0 0 0 .328-.327c.02-.038.047-.113.064-.317.017-.212.018-.492.018-.924v-1.7c0-.432 0-.712-.018-.924-.017-.204-.045-.28-.064-.316a.75.75 0 0 0-.328-.328c-.037-.02-.112-.047-.316-.064A12.755 12.755 0 0 0 5.85 3.5h-.7c-.432 0-.712 0-.924.018-.204.017-.28.045-.316.064a.75.75 0 0 0-.328.328c-.02.037-.047.112-.064.316-.017.212-.018.492-.018.924v1.7c0 .432 0 .712.018.924.017.204.045.28.064.317a.75.75 0 0 0 .328.327c.037.02.112.047.316.064.212.017.492.018.924.018h.35ZM2 15.121V14.5h.004c.003-.143.009-.275.019-.396a2.29 2.29 0 0 1 .222-.875 2.25 2.25 0 0 1 .984-.984 2.29 2.29 0 0 1 .875-.222C4.384 12 4.754 12 5.15 12h.7c.395 0 .765 0 1.046.023.297.024.592.078.875.222.424.216.768.56.984.984.144.283.198.578.222.875.01.12.016.253.019.396H9v1h-.004a6.79 6.79 0 0 1-.019.396 2.29 2.29 0 0 1-.222.875 2.25 2.25 0 0 1-.984.984 2.29 2.29 0 0 1-.875.222C6.616 18 6.246 18 5.85 18h-.7c-.395 0-.765 0-1.046-.023a2.29 2.29 0 0 1-.875-.222 2.25 2.25 0 0 1-.984-.983 2.304 2.304 0 0 1-.222-.876 6.79 6.79 0 0 1-.019-.396H2v-.379Zm5.482-.895c.015.187.018.425.018.774 0 .349-.003.587-.018.774-.017.204-.045.28-.064.316a.75.75 0 0 1-.328.328c-.037.02-.112.047-.316.064-.212.017-.492.018-.924.018h-.7c-.432 0-.712 0-.924-.018-.204-.017-.28-.045-.316-.064a.75.75 0 0 1-.328-.328c-.02-.037-.047-.112-.064-.316A10.448 10.448 0 0 1 3.5 15c0-.349.003-.587.018-.774.017-.204.045-.28.064-.317a.75.75 0 0 1 .328-.327c.037-.02.112-.047.316-.064.212-.017.492-.018.924-.018h.7c.432 0 .712 0 .924.018.204.017.28.045.316.064a.75.75 0 0 1 .328.327c.02.038.047.113.064.317Z" clip-rule="evenodd"/></svg>
