<svg xmlns="http://www.w3.org/2000/svg" width="20" height="20" fill="none" viewBox="0 0 20 20">
  <rect width="20" height="20" fill="url(#a)" rx="10"/>
  <path fill="#fff" d="M8.141 10.714c.398 0 .542.042.688.12.145.077.26.191.337.337.078.146.12.29.12.688v1.996c0 .398-.042.543-.12.688a.811.811 0 0 1-.337.338c-.146.078-.29.119-.688.119H6.145c-.398 0-.543-.041-.688-.12a.811.811 0 0 1-.338-.337c-.078-.145-.119-.29-.119-.688V11.86c0-.398.041-.542.12-.688a.811.811 0 0 1 .337-.337c.145-.078.29-.12.688-.12H8.14Zm5.714 0c.398 0 .543.042.688.12.146.077.26.191.338.337.078.146.119.29.119.688v1.996c0 .398-.041.543-.12.688a.811.811 0 0 1-.337.338c-.145.078-.29.119-.688.119H11.86c-.398 0-.542-.041-.688-.12a.811.811 0 0 1-.337-.337c-.078-.145-.12-.29-.12-.688V11.86c0-.398.042-.542.12-.688a.812.812 0 0 1 .337-.337c.146-.078.29-.12.688-.12h1.996ZM8.141 5c.398 0 .542.041.688.12.145.077.26.191.337.337.078.145.12.29.12.688V8.14c0 .398-.042.542-.12.688a.811.811 0 0 1-.337.337c-.146.078-.29.12-.688.12H6.145c-.398 0-.543-.042-.688-.12a.811.811 0 0 1-.338-.337C5.041 8.683 5 8.539 5 8.14V6.145c0-.398.041-.543.12-.688a.811.811 0 0 1 .337-.338c.145-.078.29-.119.688-.119H8.14ZM14.543 5.12c-.145-.079-.29-.12-.688-.12H11.86c-.398 0-.542.041-.688.12a.811.811 0 0 0-.337.337c-.078.145-.12.29-.12.688V8.14c0 .398.042.542.12.688.077.145.191.26.337.337.146.078.29.12.688.12h1.996c.398 0 .543-.042.688-.12a.811.811 0 0 0 .338-.337c.078-.146.119-.29.119-.688V6.145c0-.398-.041-.543-.12-.688a.811.811 0 0 0-.337-.338Z"/>
  <defs>
    <linearGradient id="a" x1="0" x2="20" y1="0" y2="20" gradientUnits="userSpaceOnUse">
      <stop stop-color="#A393F5"/>
      <stop offset="1" stop-color="#735CE6"/>
    </linearGradient>
  </defs>
</svg>
