<svg xmlns="http://www.w3.org/2000/svg" width="20" height="20" fill="currentColor" viewBox="0 0 20 20"><path d="M10.293 1.503a.802.802 0 0 0-.802.802v6.362a.578.578 0 0 1-1.155-.026l-.001-5.334a.802.802 0 1 0-1.604 0v6.052a.58.58 0 0 1-1.128-.109V5.304a.802.802 0 0 0-1.604 0v6.516c-.004 2.08-.006 3.086.396 4.212.402.873 1.1 1.509 1.864 1.896.724.368 2.045.663 3.353.551a5.687 5.687 0 0 0 .609-.083l.056-.014c.568-.118 1.003-.29 1.003-.29 1.406-.477 2.58-1.502 2.714-1.66v-.02c.783-.68 2.625-3.807 3.394-5.145a.838.838 0 0 0-.191-1.06.846.846 0 0 0-1.226.146L14 13.033V8.126h-.002V3.8a.802.802 0 1 0-1.604 0v4.81a.648.648 0 0 1-1.294-.038v-.445h-.004V2.305a.802.802 0 0 0-.802-.802Z"/></svg>
