<svg xmlns="http://www.w3.org/2000/svg" width="20" height="20" fill="currentColor" viewBox="0 0 20 20"><path fill-rule="evenodd" d="M7.87 2.627C7.573 1.357 6.222.63 5.024 1.192c-.91.426-1.378 1.454-1.153 2.43v.003l1.258 5.56a1.934 1.934 0 0 0-2.757.466 2.096 2.096 0 0 0 .03 2.423l3.346 4.559a2.366 2.366 0 0 0 .115.155c.076.095.186.222.33.368.291.292.726.66 1.324.99 1.21.67 3.032 1.158 5.556.631 2.075-.433 3.53-1.62 4.299-3.227.755-1.579.813-3.487.268-5.352l-.805-3.547c-.29-1.272-1.609-2.032-2.83-1.536a2.111 2.111 0 0 0-.732.497 1.98 1.98 0 0 0-1.663-.37c-.368.083-.67.256-.906.485a2.02 2.02 0 0 0-1.712-.28.756.756 0 0 0-.083.03 2.24 2.24 0 0 0-.293.146l-.744-2.996Zm-1.482.36c-.087-.375-.448-.525-.725-.395a.601.601 0 0 0-.308.682v.003l1.912 8.45a.774.774 0 0 1-.396.86.756.756 0 0 1-.92-.18l-1.672-1.93a.42.42 0 0 0-.661.061.538.538 0 0 0 .007.616l3.354 4.57a.749.749 0 0 1 .018.026l.007.01c.008.01.022.03.045.058.044.056.116.14.218.243.205.206.528.481.981.732.893.495 2.346.926 4.516.473 1.64-.342 2.685-1.24 3.235-2.388.559-1.17.639-2.679.172-4.263a.852.852 0 0 1-.012-.048l-.811-3.57c-.09-.4-.471-.574-.777-.45-.284.115-.462.465-.353.812l.086.274v.003a.773.773 0 0 1-.495.968.76.76 0 0 1-.957-.5l-.001-.002-.312-.986c-.092-.288-.358-.424-.594-.37a.39.39 0 0 0-.269.213.71.71 0 0 0-.043.493l.184.742v.002a.772.772 0 0 1-.552.936.762.762 0 0 1-.926-.559v-.001l-.166-.662-.166-.663c-.055-.22-.28-.385-.563-.325-.101.048-.15.096-.188.191-.061.156-.129.548.078 1.405.1.413-.15.83-.557.932a.762.762 0 0 1-.922-.56L6.388 2.986Z" clip-rule="evenodd"/></svg>
