<svg xmlns="http://www.w3.org/2000/svg" width="20" height="20" fill="currentColor" viewBox="0 0 20 20"><path fill-rule="evenodd" d="M11.669 3.275a1.922 1.922 0 0 1 1.813.496c.382.377.597.909.597 1.529v2.725c.21-.198.456-.342.725-.427a2.034 2.034 0 0 1 1.43.09c.851.374 1.54 1.356 1.162 2.54-.5 1.563-1.243 3.113-1.98 4.396-.824 1.433-2.41 2.516-3.417 3.04-2.133 1.114-4.308 1.114-6.44 0C3.247 16.46 3 14.062 3 13V7.5c0-.62.215-1.15.596-1.528a1.927 1.927 0 0 1 1.799-.504v-.471c0-.621.214-1.153.598-1.53a1.919 1.919 0 0 1 1.863-.477 1.93 1.93 0 0 1 .54-.946 1.941 1.941 0 0 1 1.34-.528c.475 0 .965.17 1.341.528.328.312.536.736.592 1.231ZM6.895 4.997c0-.265.084-.397.15-.461a.418.418 0 0 1 .296-.116c.117 0 .224.044.298.117.066.066.15.197.15.46V9.75a.75.75 0 1 0 1.5 0v-6.2c0-.242.08-.36.142-.42a.442.442 0 0 1 .306-.114c.124 0 .233.045.306.114.062.06.141.178.141.42V9.5a.75.75 0 1 0 1.5 0V5.3c0-.268.085-.4.15-.465a.415.415 0 0 1 .296-.115.42.42 0 0 1 .297.118c.067.066.152.198.152.462v5.247a.9.9 0 0 0 .065.347.771.771 0 0 0 .718.48.81.81 0 0 0 .504-.182c.07-.056.123-.116.156-.155.122-.147.25-.366.352-.55.221-.4.47-.914.589-1.163.097-.202.21-.27.295-.297a.537.537 0 0 1 .373.035c.287.126.437.394.336.71-.459 1.436-1.152 2.887-1.852 4.104-.613 1.067-1.9 1.984-2.81 2.46-1.698.886-3.354.886-5.053 0C4.732 15.54 4.5 13.938 4.5 13V7.5c0-.262.084-.395.152-.463a.428.428 0 0 1 .3-.12c.116 0 .22.042.292.113.064.064.15.198.15.47V10a.75.75 0 1 0 1.5 0V4.997Zm7.184 5.55v-.008.008Z" clip-rule="evenodd"/></svg>
