<svg xmlns="http://www.w3.org/2000/svg" width="20" height="20" fill="currentColor" viewBox="0 0 20 20"><path fill-rule="evenodd" d="M9.472 2.91a.75.75 0 0 0-1.466-.32l-.85 3.91H3.763A.757.757 0 0 0 3 7.25c0 .414.342.75.763.75H6.83l-.87 4H2.764a.757.757 0 0 0-.763.75c0 .414.342.75.763.75h2.872l-.78 3.59a.75.75 0 0 0 1.465.32l.85-3.91h4.139l-.781 3.59a.75.75 0 0 0 1.466.32l.85-3.91h3.393a.757.757 0 0 0 .763-.75.757.757 0 0 0-.763-.75H13.17l.87-4h3.197A.757.757 0 0 0 18 7.25a.757.757 0 0 0-.763-.75h-2.872l.78-3.59a.75.75 0 1 0-1.465-.32l-.85 3.91H8.691l.781-3.59ZM11.635 12l.87-4h-4.14l-.87 4h4.14Z" clip-rule="evenodd"/></svg>
