<svg xmlns="http://www.w3.org/2000/svg" width="20" height="20" fill="currentColor" viewBox="0 0 20 20"><path fill-rule="evenodd" d="M17 10.5a7 7 0 1 0-14 0v3.75a1.25 1.25 0 1 1-2.5 0v-3.5a1.25 1.25 0 0 1 1.056-1.235 8.501 8.501 0 0 1 16.887 0A1.25 1.25 0 0 1 19.5 10.75v3.5a1.25 1.25 0 1 1-2.5 0V10.5Zm-12.25.25a.75.75 0 0 1 1.5 0v3.5a.75.75 0 0 1-1.5 0v-3.5Zm3-1.5a.75.75 0 0 1 1.5 0v6.5a.75.75 0 0 1-1.5 0v-6.5Zm3-1.5a.75.75 0 0 1 1.5 0v9.5a.75.75 0 0 1-1.5 0v-9.5Zm3 3a.75.75 0 0 1 1.5 0v3.5a.75.75 0 0 1-1.5 0v-3.5Z" clip-rule="evenodd"/></svg>
