<svg xmlns="http://www.w3.org/2000/svg" width="20" height="20" fill="none" viewBox="0 0 20 20">
  <rect width="20" height="20" fill="url(#a)" rx="10"/>
  <path fill="#fff" d="M10.003 4.5a5.5 5.5 0 0 0-5.5 5.5L4.5 13a1 1 0 1 1-2 0v-2.95a1 1 0 0 1 .553-.895 7.001 7.001 0 0 1 13.9.003 1 1 0 0 1 .547.892V13a1 1 0 1 1-2 0l.003-3.026a5.5 5.5 0 0 0-5.5-5.474Z"/>
  <path fill="#fff" d="M6.25 9.5a.75.75 0 0 0-.75.75v2.5a.75.75 0 0 0 1.5 0v-2.5a.75.75 0 0 0-.75-.75ZM8 9a.75.75 0 0 1 1.5 0v5A.75.75 0 0 1 8 14V9ZM11.25 7a.75.75 0 0 0-.75.75v7.5a.75.75 0 0 0 1.5 0v-7.5a.75.75 0 0 0-.75-.75ZM13 10.25a.75.75 0 0 1 1.5 0v2.5a.75.75 0 0 1-1.5 0v-2.5Z"/>
  <defs>
    <linearGradient id="a" x1="-10" x2="10" y1="10" y2="30" gradientUnits="userSpaceOnUse">
      <stop stop-color="#B1B6BD"/>
      <stop offset="1" stop-color="#99A2AD"/>
    </linearGradient>
  </defs>
</svg>
