<svg xmlns="http://www.w3.org/2000/svg" width="20" height="20" fill="currentColor" viewBox="0 0 20 20"><path fill-rule="evenodd" d="M2 10a8 8 0 1 1 16 0v3.75a2.75 2.75 0 1 1-5.5 0v-2.5a2.75 2.75 0 0 1 3.878-2.509 6.502 6.502 0 0 0-12.756 0A2.75 2.75 0 0 1 7.5 11.25v2.5a2.75 2.75 0 1 1-5.5 0V10Zm1.5 1.25v2.5a1.25 1.25 0 1 0 2.5 0v-2.5a1.25 1.25 0 1 0-2.5 0Zm13 0a1.25 1.25 0 1 0-2.5 0v2.5a1.25 1.25 0 1 0 2.5 0v-2.5Z" clip-rule="evenodd"/><path fill-rule="evenodd" d="m3.8 15.786-.024-.09 1.448-.392.024.09c.276 1.019.37 1.314.53 1.521.16.208.372.37.615.471.242.1.552.114 1.606.114h.286l.072-.143.016-.034c.059-.119.155-.314.31-.466a1.25 1.25 0 0 1 .467-.289c.205-.07.423-.07.555-.068h1.045a1.25 1.25 0 0 1 0 2.5H7.858c-.847 0-1.484.001-2.038-.227a3 3 0 0 1-1.23-.943c-.366-.474-.532-1.09-.753-1.907l-.037-.137Z" clip-rule="evenodd"/></svg>
