<svg xmlns="http://www.w3.org/2000/svg" width="20" height="20" fill="currentColor" viewBox="0 0 20 20"><path fill-rule="evenodd" d="M10.032 3.5a6.538 6.538 0 0 0-6.536 6.54v.762a2.75 2.75 0 0 1 3.999 2.45v2a2.75 2.75 0 1 1-5.499 0V10.04A8.038 8.038 0 0 1 10.032 2a7.967 7.967 0 0 1 7.964 7.968V13c0 .127 0-.127 0 0v2.252a2.75 2.75 0 1 1-5.498 0v-2a2.75 2.75 0 0 1 3.999-2.45v-.834A6.467 6.467 0 0 0 10.032 3.5Zm-5.287 8.502c-.69 0-1.25.56-1.25 1.25v2a1.25 1.25 0 1 0 2.5 0v-2c0-.69-.56-1.25-1.25-1.25Zm9.253 1.25a1.25 1.25 0 1 1 2.499 0v2a1.25 1.25 0 1 1-2.5 0v-2Z" clip-rule="evenodd"/></svg>
