<svg xmlns="http://www.w3.org/2000/svg" width="20" height="20" fill="none" viewBox="0 0 20 20"><path fill="currentColor" fill-rule="evenodd" d="M13.6288 2.25C16.5952 2.25 19 4.6548 19 7.6212c0 2.8368-1.0815 4.2746-5.7024 7.8686l-1.993 1.5501a2.125 2.125 0 0 1-2.6092 0l-1.993-1.5501C2.0814 11.8958 1 10.458 1 7.6212 1 4.6548 3.4048 2.25 6.3712 2.25c1.2556 0 2.4032.4605 3.4142 1.3464L10 3.7928l.2146-.1964c1.011-.886 2.1586-1.3464 3.4142-1.3464Zm0 1.5c-1.1242 0-2.1373.5297-3.0546 1.6216-.2997.3568-.8487.3568-1.1484 0C8.5084 4.2798 7.4954 3.75 6.3712 3.75 4.2332 3.75 2.5 5.4832 2.5 7.6212c0 2.2376.8378 3.3514 5.1233 6.6846l1.993 1.5501a.625.625 0 0 0 .7674 0l1.993-1.5501c4.0907-3.1817 5.04-4.3411 5.1179-6.386l.0054-.2986c0-2.138-1.7332-3.8712-3.8712-3.8712ZM11 7.75a.75.75 0 0 1 .75-.75h.75v-.75a.75.75 0 0 1 1.5 0V7h.75a.75.75 0 0 1 0 1.5H14v.75a.75.75 0 0 1-1.5 0V8.5h-.75a.75.75 0 0 1-.75-.75Z" clip-rule="evenodd"/></svg>
