<svg xmlns="http://www.w3.org/2000/svg" width="20" height="20" fill="none" viewBox="0 0 20 20">
  <rect width="20" height="20" fill="url(#a)" rx="10"/>
  <path fill="#fff" fill-rule="evenodd" d="M4 8.636C4 7.18 5.161 6 6.593 6c.772 0 1.458.372 2.049 1.093C9.232 6.373 9.919 6 10.691 6c1.432 0 2.593 1.18 2.593 2.636 0 .113-.003.223-.011.329a3.201 3.201 0 0 0-.66.26 3.169 3.169 0 0 0-1.495-.37 3.397 3.397 0 0 0-3.396 3.398c0 .423.051.826.18 1.22L7.05 12.8C4.58 10.847 4 10.109 4 8.636Z" clip-rule="evenodd"/>
  <path fill="#fff" d="M11.118 10.36a1.892 1.892 0 0 0-1.89 1.893c0 1.057.423 1.588 2.224 2.99l.83.646a.538.538 0 0 0 .662 0l.83-.646c1.801-1.402 2.225-1.933 2.225-2.99a1.892 1.892 0 0 0-1.892-1.893c-.563 0-1.063.267-1.494.785-.43-.518-.931-.785-1.495-.785Z"/>
  <defs>
    <linearGradient id="a" x1="0" x2="20" y1="0" y2="20" gradientUnits="userSpaceOnUse">
      <stop stop-color="#F060C0"/>
      <stop offset="1" stop-color="#E03FAB"/>
    </linearGradient>
  </defs>
</svg>
