<svg xmlns="http://www.w3.org/2000/svg" width="20" height="20" fill="currentColor" viewBox="0 0 20 20"><path fill-rule="evenodd" d="M9.342 2C7.46 2 5.93 3.438 5.706 5.266a.75.75 0 1 0 1.49.181C7.33 4.337 8.251 3.5 9.341 3.5c.596 0 1.245.383 1.925 1.346a.853.853 0 0 0 1.394 0c.68-.963 1.33-1.346 1.925-1.346 1.18 0 2.164.982 2.164 2.228 0 .503-.08.891-.25 1.254-.172.372-.46.761-.937 1.24a.75.75 0 0 0 1.063 1.058c.545-.547.96-1.077 1.235-1.665.278-.597.389-1.208.389-1.887C18.25 3.684 16.625 2 14.586 2c-1.04 0-1.91.536-2.622 1.319C11.252 2.536 10.382 2 9.342 2ZM5.395 7.5c-2.03 0-3.645 1.681-3.645 3.716 0 1.082.284 1.94.97 2.817.643.826 1.646 1.674 3.035 2.78l1.456 1.16a1.264 1.264 0 0 0 1.578 0l1.456-1.16c1.389-1.106 2.392-1.954 3.036-2.78.684-.878.969-1.735.969-2.817 0-2.035-1.615-3.716-3.645-3.716C9.563 7.5 8.7 8.071 8 8.853 7.301 8.071 6.437 7.5 5.395 7.5ZM3.25 11.216C3.25 9.975 4.227 9 5.395 9c.572 0 1.217.404 1.907 1.387a.853.853 0 0 0 1.396 0C9.388 9.404 10.033 9 10.605 9c1.168 0 2.145.975 2.145 2.216 0 .753-.176 1.284-.652 1.895-.517.662-1.375 1.403-2.788 2.53L8 16.683 6.69 15.64c-1.413-1.126-2.271-1.867-2.788-2.53-.476-.61-.652-1.141-.652-1.894Z" clip-rule="evenodd"/></svg>
