<svg xmlns="http://www.w3.org/2000/svg" width="20" height="20" fill="currentColor" viewBox="0 0 20 20"><path d="M6.371 2.5A5.371 5.371 0 0 0 1 7.871c0 1.39.285 2.563 1.263 3.843.88 1.151 2.314 2.373 4.44 4.026l1.418 1.103a.75.75 0 0 0 .92-1.184l-1.418-1.103c-2.142-1.667-3.423-2.778-4.168-3.753C2.71 9.828 2.5 8.99 2.5 7.87A3.871 3.871 0 0 1 6.371 4c1.124 0 2.137.53 3.055 1.622a.75.75 0 0 0 1.148 0C11.492 4.529 12.505 4 13.63 4a3.871 3.871 0 0 1 3.87 3.865l-.002.123a.75.75 0 1 0 1.5.024L19 7.884V7.87a5.371 5.371 0 0 0-5.371-5.37c-1.4 0-2.611.571-3.629 1.543C8.982 3.07 7.771 2.5 6.371 2.5Z"/><path fill-rule="evenodd" d="m15.063 9.375.017.058c.094.319.187.636.716.942.63.17.937 0 1.223-.19.298-.199.387-.141.506-.024l.29.29c.132.132.185.185 0 .53l-.03.053c-.158.292-.317.583-.158 1.173.324.565.66.663.998.73.352.07.373.174.375.341v.41c0 .187 0 .262-.375.374l-.059.018c-.318.094-.636.187-.94.716-.172.63-.002.937.189 1.223.198.298.14.387.024.506l-.29.29c-.132.132-.185.185-.53 0l-.054-.03c-.291-.159-.582-.317-1.172-.159-.565.325-.663.662-.73.999-.07.351-.174.373-.341.375h-.41c-.187 0-.262 0-.374-.375l-.018-.059c-.094-.318-.187-.636-.716-.941-.63-.17-.937-.001-1.223.19-.298.198-.387.14-.506.023l-.29-.289c-.132-.132-.185-.186 0-.53l.03-.054c.158-.291.317-.582.158-1.173-.324-.565-.66-.662-.998-.73-.352-.07-.373-.173-.375-.34v-.41c0-.187 0-.262.375-.375l.059-.017c.318-.094.636-.188.94-.717.171-.629.002-.936-.189-1.222-.198-.299-.14-.387-.024-.506l.29-.29c.132-.132.185-.185.53 0l.054.03c.291.158.582.317 1.172.158.565-.324.663-.661.73-.998.07-.352.174-.374.341-.375h.41c.187 0 .262 0 .374.375Zm1.406 4.125a1.969 1.969 0 1 1-3.938 0 1.969 1.969 0 0 1 3.938 0Z" clip-rule="evenodd"/></svg>
