<svg fill="none" height="20" viewBox="0 0 20 20" width="20" xmlns="http://www.w3.org/2000/svg"><g fill="currentColor"><path d="m9.99998 6.25c-.58142 0-1.07186.39765-1.21067.93694-.10324.40114-.51213.64263-.91327.53939-.40114-.10325-.64263-.51213-.53938-.91327.30524-1.18594 1.3809-2.06306 2.66332-2.06306 1.51882 0 2.75002 1.23121 2.75002 2.75 0 1.21116-.6539 1.84041-1.1445 2.29829l-.0082.00764c-.478.44607-.772.72057-.8548 1.30017-.0586.41-.4385.6949-.84857.6364-.41005-.0586-.69497-.4385-.63639-.8486.15867-1.11068.80306-1.70843 1.25686-2.12939l.0676-.0628c.4469-.41712.668-.66287.668-1.20171 0-.69035-.5597-1.25-1.25002-1.25z"/><path d="m10 15c.5523 0 1-.4477 1-1s-.4477-1-1-1c-.55228 0-1 .4477-1 1s.44772 1 1 1z"/><path clip-rule="evenodd" d="m10 1.5c-4.69442 0-8.5 3.80558-8.5 8.5 0 4.6944 3.80558 8.5 8.5 8.5 4.6944 0 8.5-3.8056 8.5-8.5 0-4.69442-3.8056-8.5-8.5-8.5zm-7 8.5c0 3.866 3.13401 7 7 7 3.866 0 7-3.134 7-7 0-3.86599-3.134-7-7-7-3.86599 0-7 3.13401-7 7z" fill-rule="evenodd"/></g></svg>