<svg width="20" height="20" viewBox="0 0 20 20" fill="none" xmlns="http://www.w3.org/2000/svg">
<path d="M8.25 2.75C8.25 2.33579 7.91421 2 7.5 2C7.08578 2 6.75 2.33579 6.75 2.75V4H2.75C2.33578 4 2 4.33579 2 4.75C2 5.16421 2.33578 5.5 2.75 5.5H8.49911C8.49551 6.24501 8.47787 6.58916 8.39574 6.90558C8.29105 7.30887 8.10979 7.68826 7.86184 8.0231C7.65268 8.30554 7.37175 8.55014 6.69774 9.09698L5.34999 7.29998C5.10147 6.96861 4.63137 6.90145 4.29999 7.14998C3.96862 7.39851 3.90147 7.86861 4.14999 8.19998L5.53025 10.0403L2.27874 12.6665C1.95651 12.9268 1.90627 13.399 2.16654 13.7213C2.4268 14.0435 2.89901 14.0937 3.22125 13.8335L6.43083 11.2411L7.14999 12.2C7.39852 12.5314 7.86862 12.5985 8.19999 12.35C8.53137 12.1015 8.59852 11.6314 8.34999 11.3L7.5985 10.298C8.27764 9.74903 8.7271 9.37518 9.0673 8.91577C9.4297 8.42639 9.69461 7.87188 9.84762 7.28246C9.97834 6.77888 9.99706 6.24942 9.99963 5.5H12.25C12.6642 5.5 13 5.16421 13 4.75C13 4.33579 12.6642 4 12.25 4H8.25V2.75Z" fill="currentColor"/>
<path fill-rule="evenodd" clip-rule="evenodd" d="M13.1708 7.41459C13.0438 7.1605 12.7841 7 12.5 7C12.2159 7 11.9562 7.1605 11.8292 7.41459L7.07918 16.9146C6.89393 17.2851 7.0441 17.7356 7.41459 17.9208C7.78507 18.1061 8.23557 17.9559 8.42082 17.5854L9.96352 14.5H15.0365L16.5792 17.5854C16.7644 17.9559 17.2149 18.1061 17.5854 17.9208C17.9559 17.7356 18.1061 17.2851 17.9208 16.9146L13.1708 7.41459ZM12.5 9.42705L14.2865 13H10.7135L12.5 9.42705Z" fill="currentColor"/>
</svg>
