<svg xmlns="http://www.w3.org/2000/svg" width="20" height="20" fill="currentColor" viewBox="0 0 20 20"><path d="M10 6.5C10 8.167 8.433 9 6.5 9S3 8.167 3 6.5 4.567 4 6.5 4s3.5.833 3.5 2.5Z M15.758 1c.42-.018.882.128 1.254.463.384.347.662.79.822 1.234.156.43.227.933.101 1.395l-2.698 10.621c-.405 1.837-2.039 2.638-3.6 2.986-1.591.356-3.406.319-4.668.27-1.275-.049-2.418-.252-3.16-.95-.798-.75-.925-1.854-.726-3.134v-.003c.093-.58.357-1.051.79-1.379.41-.312.906-.442 1.38-.487.927-.09 2.056.122 3.057.332l.52.11c.85.181 1.602.342 2.21.375.362.02.578-.014.691-.06.062-.024.064-.033.07-.06l.002-.008.001-.005 2.788-10.866a.759.759 0 0 1 .02-.065c.204-.576.776-.753 1.146-.769Zm.201 1.541-2.701 10.53a1.56 1.56 0 0 1-.967 1.095c-.417.167-.894.189-1.333.165-.736-.04-1.633-.232-2.479-.414l-.476-.101c-1.037-.217-1.943-.371-2.606-.307-.322.03-.51.107-.618.189-.087.066-.175.174-.214.419-.173 1.117.022 1.575.272 1.81.306.288.936.495 2.19.544 1.267.048 2.903.073 4.283-.236 1.405-.314 2.257-.898 2.464-1.853a.75.75 0 0 1 .006-.026l2.703-10.64.004-.017c.02-.071.026-.247-.063-.492a1.597 1.597 0 0 0-.417-.63.335.335 0 0 0-.048-.036Z" clip-rule="evenodd"/></svg>
