<svg xmlns="http://www.w3.org/2000/svg" width="20" height="20" fill="none" viewBox="0 0 20 20"><path fill="currentColor" fill-rule="evenodd" d="M10.3101 3.5361a1.2523 1.2523 0 0 0-.6202 0c-.1969.0504-.4.1816-1.1268.7068L4.6454 7.0744c-.5692.4114-.7287.5354-.84.6784a1.4462 1.4462 0 0 0-.2476.4839c-.0507.174-.0577.3755-.0577 1.077v4.4245c0 .6272.0005 1.0526.0274 1.3812.0262.3199.0736.4815.1306.5933a1.448 1.448 0 0 0 .6337.6324c.112.057.2739.1042.5944.1303.3292.0269.7554.0275 1.3838.0275h7.46c.6284 0 1.0546-.0006 1.3838-.0275.3205-.0261.4825-.0733.5944-.1303a1.448 1.448 0 0 0 .6337-.6324c.057-.1118.1044-.2734.1306-.5933.0269-.3286.0274-.754.0274-1.3812V9.3137c0-.7015-.007-.903-.0577-1.077a1.448 1.448 0 0 0-.2475-.4839c-.1114-.143-.2709-.267-.8401-.6784L11.4369 4.243c-.7267-.5252-.9299-.6564-1.1268-.7068Zm-.9923-1.4503a2.755 2.755 0 0 1 1.3644 0c.5102.1304.959.4554 1.5315.87l.103.0745 3.9176 2.8315.0757.0547c.4597.3318.8094.5842 1.0689.9174a2.943 2.943 0 0 1 .5035.9844c.1182.4052.1179.836.1176 1.4022l-.0001.0932v4.4553c0 .5887 0 1.0755-.0324 1.4723-.0338.4125-.1064.7931-.2891 1.1511a2.947 2.947 0 0 1-1.2892 1.2867c-.3586.1824-.74.2548-1.1532.2885C14.8384 18 14.3507 18 13.7609 18H6.2391c-.5897 0-1.0775 0-1.475-.0324-.4133-.0337-.7947-.1061-1.1533-.2885a2.9472 2.9472 0 0 1-1.2892-1.2867c-.1827-.358-.2553-.7386-.289-1.1511C2 14.8445 2 14.3577 2 13.769V9.2205c-.0004-.5663-.0007-.997.1175-1.4022.104-.357.275-.691.5035-.9844.2595-.3332.6092-.5856 1.0689-.9174l.0757-.0547 3.9176-2.8315c.0348-.025.069-.05.103-.0745.5725-.4146 1.0213-.7396 1.5315-.87Zm4.4425 6.1334a.7476.7476 0 0 1 .0393 1.0579L9.621 13.7685a.7508.7508 0 0 1-1.0991 0l-2.3215-2.4953a.7476.7476 0 0 1 .0393-1.0579.751.751 0 0 1 1.06.0392l1.7717 1.9045 3.629-3.9007a.751.751 0 0 1 1.0599-.0391Z" clip-rule="evenodd"/></svg>
