<?xml version="1.0" encoding="UTF-8"?>
<svg width="20px" height="20px" viewBox="0 0 20 20" version="1.1" xmlns="http://www.w3.org/2000/svg" xmlns:xlink="http://www.w3.org/1999/xlink">
    <!-- Generator: Sketch 63.1 (92452) - https://sketch.com -->
    <title>home_outline_20</title>
    <desc>Created with Sketch.</desc>
    <g id="Icons" stroke="none" stroke-width="1" fill="none" fill-rule="evenodd">
        <g id="Icons-20/home_outline_20">
            <g id="home_outline_20">
                <rect opacity="0.4" x="0" y="0" width="20" height="20"></rect>
                <path d="M3,10.9989567 L2.95923449,10.9988913 L2.77788628,10.9879074 C2.2621041,10.9315634 1.78613727,10.6810123 1.44752201,10.2859612 C0.71259922,9.42855124 0.811894659,8.13771053 1.66930458,7.40278774 L8.21032372,1.7961999 C9.24017048,0.913474111 10.7598295,0.913474111 11.7896763,1.7961999 L18.3306954,7.40278774 C18.7839024,7.79125085 19.0447343,8.35835691 19.0447343,8.95526573 C19.0447343,10.0845413 18.1292756,11 17,11 L17,15.25 C17,16.4926407 15.9926407,17.5 14.75,17.5 L11.95,17.5 C11.4253295,17.5 11,17.0746705 11,16.55 L11,13.5 C11,12.9477153 10.5522847,12.5 10,12.5 C9.44771525,12.5 9,12.9477153 9,13.5 L9,16.55 C9,17.0746705 8.5746705,17.5 8.04999998,17.5 L5.25,17.5 C4.00735931,17.5 3,16.4926407 3,15.25 L3,10.9989567 Z M14.75,16 C15.1642136,16 15.5,15.6642136 15.5,15.25 L15.5,10.35 C15.5,9.88055796 15.880558,9.5 16.35,9.5 L17,9.5 C17.3008484,9.5 17.5447343,9.25611416 17.5447343,8.95526573 C17.5447343,8.79624424 17.4752465,8.64516246 17.3545084,8.54167264 L10.8134892,2.93508481 C10.3453771,2.53384581 9.65462295,2.53384581 9.18651078,2.93508481 L2.64549164,8.54167264 C2.41707048,8.73746221 2.39061735,9.08135294 2.58640691,9.30977409 C2.67661178,9.41501311 2.80343851,9.48177528 2.90009724,9.4934515 L3,9.5 L3.65,9.5 C4.11944204,9.5 4.5,9.88055796 4.5,10.35 L4.5,15.25 C4.5,15.6642136 4.83578644,16 5.25,16 L7.5,16 L7.5,13.5 C7.5,12.1192881 8.61928813,11 10,11 C11.3807119,11 12.5,12.1192881 12.5,13.5 L12.5,16 L14.75,16 Z" id="↳-Icon-Color" fill="currentColor" fill-rule="nonzero"></path>
            </g>
        </g>
    </g>
</svg>
