<svg xmlns="http://www.w3.org/2000/svg" width="20" height="20" fill="currentColor" viewBox="0 0 20 20"><path fill-rule="evenodd" d="M11.7 4.5H8.3c-1.215 0-2.036.001-2.67.053-.615.05-.92.14-1.128.247A2.75 2.75 0 0 0 3.3 6.002c-.106.207-.197.513-.247 1.129C3 7.764 3 8.585 3 9.8v.4c0 1.215.001 2.036.053 2.67.05.615.14.92.247 1.129A2.75 2.75 0 0 0 4.502 15.2c.207.106.513.197 1.129.247.633.052 1.454.053 2.669.053h3.4c1.215 0 2.036-.001 2.67-.053.615-.05.92-.14 1.129-.247A2.751 2.751 0 0 0 16.7 14c.106-.208.197-.514.247-1.13.053-.634.053-1.455.053-2.67v-.4c0-1.215-.001-2.036-.053-2.67-.05-.615-.14-.92-.247-1.128A2.75 2.75 0 0 0 15.5 4.8c-.208-.106-.514-.197-1.13-.247-.634-.053-1.455-.053-2.67-.053Zm-9.737.82C1.5 6.23 1.5 7.42 1.5 9.8v.4c0 2.38 0 3.57.463 4.48a4.25 4.25 0 0 0 1.858 1.857C4.73 17 5.92 17 8.3 17h3.4c2.38 0 3.57 0 4.48-.463a4.251 4.251 0 0 0 1.857-1.857c.463-.91.463-2.1.463-4.48v-.4c0-2.38 0-3.57-.463-4.48a4.25 4.25 0 0 0-1.857-1.857C15.27 3 14.08 3 11.7 3H8.3c-2.38 0-3.57 0-4.48.463a4.25 4.25 0 0 0-1.857 1.858Z" clip-rule="evenodd"/></svg>
