<svg xmlns="http://www.w3.org/2000/svg" width="20" height="20" fill="currentColor" viewBox="0 0 20 20"><path fill-rule="evenodd" d="M13 5.5H7c-1.075 0-1.79.001-2.34.046-.533.044-.777.12-.931.2a2.25 2.25 0 0 0-.984.983c-.078.154-.155.398-.199.93C2.501 8.21 2.5 8.925 2.5 10c0 1.075.001 1.79.046 2.34.044.533.12.777.2.931.215.424.56.768.983.984.154.078.398.155.93.199.55.045 1.266.046 2.341.046h6c1.075 0 1.79-.001 2.34-.046.533-.044.777-.12.931-.2a2.25 2.25 0 0 0 .984-.982c.078-.155.155-.399.199-.931.045-.55.046-1.266.046-2.341 0-1.075-.001-1.79-.046-2.34-.044-.533-.12-.777-.2-.931a2.25 2.25 0 0 0-.983-.984c-.154-.078-.398-.155-.93-.199C14.79 5.501 14.075 5.5 13 5.5Zm-11.591.548C1 6.85 1 7.9 1 10c0 2.1 0 3.15.409 3.953a3.75 3.75 0 0 0 1.639 1.638C3.85 16 4.9 16 7 16h6c2.1 0 3.15 0 3.953-.409a3.75 3.75 0 0 0 1.638-1.638C19 13.15 19 12.1 19 10c0-2.1 0-3.15-.409-3.952a3.75 3.75 0 0 0-1.639-1.64C16.15 4 15.1 4 13 4H7c-2.1 0-3.15 0-3.952.409a3.75 3.75 0 0 0-1.64 1.639Z" clip-rule="evenodd"/></svg>
