<svg xmlns="http://www.w3.org/2000/svg" width="20" height="20" fill="currentColor" viewBox="0 0 20 20"><path fill-rule="evenodd" d="M7.817 3h4.366c.952 0 1.713 0 2.327.05.63.052 1.172.16 1.67.413a4.25 4.25 0 0 1 1.857 1.858c.253.497.361 1.04.413 1.67.05.613.05 1.374.05 2.326v1.366c0 .952 0 1.713-.05 2.327-.052.63-.16 1.172-.413 1.67a4.251 4.251 0 0 1-1.857 1.857c-.498.253-1.04.361-1.67.413-.614.05-1.375.05-2.327.05H7.817c-.952 0-1.713 0-2.327-.05-.63-.052-1.172-.16-1.67-.413a4.25 4.25 0 0 1-1.857-1.857c-.253-.498-.361-1.04-.413-1.67-.05-.614-.05-1.375-.05-2.327V9.317c0-.952 0-1.713.05-2.327.052-.63.16-1.172.413-1.67a4.25 4.25 0 0 1 1.858-1.857c.497-.253 1.04-.361 1.67-.413C6.103 3 6.864 3 7.816 3ZM5.612 4.545c-.537.044-.86.127-1.11.255A2.75 2.75 0 0 0 3.3 6.002c-.128.25-.21.573-.255 1.11-.01.121-.017.25-.023.388h8.728a2.75 2.75 0 0 1 2.75 2.75v5.195c.47-.046.765-.126.998-.245A2.751 2.751 0 0 0 16.7 14c.128-.252.21-.574.255-1.111.044-.546.045-1.245.045-2.238v-1.3c0-.992 0-1.692-.045-2.238-.044-.537-.127-.86-.255-1.11A2.75 2.75 0 0 0 15.5 4.8c-.252-.128-.574-.21-1.111-.255-.546-.044-1.245-.045-2.238-.045h-4.3c-.992 0-1.692 0-2.238.045ZM3 9.35V9h6.5v6.5H7.85c-.992 0-1.692 0-2.238-.045-.537-.044-.86-.127-1.11-.255A2.75 2.75 0 0 1 3.3 14c-.128-.252-.21-.574-.255-1.111C3.001 12.342 3 11.643 3 10.65v-1.3Zm8 6.15h1.15c.31 0 .592 0 .85-.002V10.25C13 9.56 12.44 9 11.75 9H11v6.5Z" clip-rule="evenodd"/></svg>
