<svg xmlns="http://www.w3.org/2000/svg" width="20" height="20" viewBox="0 0 20 20" fill="currentColor"><path d="M12.253 17.254a.667.667 0 1 1 0 1.334.667.667 0 0 1 0-1.334M9.257 1.996a.75.75 0 0 1 0 1.5h-.693c-1.092 0-1.862.001-2.461.055-.59.053-.94.152-1.21.306a2.75 2.75 0 0 0-1.027 1.027c-.154.27-.254.62-.306 1.21-.054.599-.055 1.369-.055 2.462v2.888c0 1.093 0 1.863.055 2.462q.021.243.054.437l2.577-2.914a1.75 1.75 0 0 1 2.55-.08l.723.724.983-1.008a.75.75 0 0 1 1.076 1.045l-1.443 1.483a.85.85 0 0 1-1.21.008l-1.19-1.19a.25.25 0 0 0-.365.01L4.37 15.755q.238.224.523.389c.27.154.62.253 1.21.306.599.054 1.369.055 2.461.055h.697a.75.75 0 0 1 0 1.5h-.697c-1.065 0-1.914 0-2.595-.06-.692-.063-1.284-.193-1.82-.499a4.25 4.25 0 0 1-1.586-1.586c-.305-.535-.435-1.127-.498-1.819-.06-.682-.06-1.53-.06-2.596V8.556c0-1.066 0-1.914.06-2.596.063-.692.193-1.284.498-1.82A4.25 4.25 0 0 1 4.15 2.556c.536-.306 1.128-.436 1.82-.498.681-.061 1.53-.06 2.595-.06zm2.996 12.407a1 1 0 1 1 0 2 1 1 0 0 1 0-2m3.134.362a.667.667 0 1 1 0 1.334.667.667 0 0 1 0-1.334m-.029-3.88a1 1 0 1 1 0 2 1 1 0 0 1 0-2m2.772.333a.668.668 0 1 1 0 1.335.668.668 0 0 1 0-1.335m-5.877-4.213a1 1 0 1 1 0 2 1 1 0 0 1 0-2m3.105 0a1 1 0 1 1 0 2 1 1 0 0 1 0-2m2.772.361a.668.668 0 1 1 0 1.336.668.668 0 0 1 0-1.336M12.253 3.5a1 1 0 1 1 0 2 1 1 0 0 1 0-2m3.134.396a.667.667 0 1 1 0 1.334.667.667 0 0 1 0-1.334M12.253 1.5a.667.667 0 1 1 0 1.334.667.667 0 0 1 0-1.334"/></svg>