<svg xmlns="http://www.w3.org/2000/svg" width="20" height="20" fill="currentColor" viewBox="0 0 20 20"><path fill-rule="evenodd" d="M3.251 4.5a.75.75 0 1 0 0 1.5h13.498a.75.75 0 1 0 0-1.5H3.251Zm1.517 3.26A.752.752 0 0 1 5.81 8.84l-1.46 1.403 1.48 1.537a.75.75 0 1 1-1.081 1.04l-1.864-1.933a.95.95 0 0 1 .026-1.343l1.858-1.785ZM3.251 14.5a.75.75 0 1 0 0 1.5h13.498a.75.75 0 1 0 0-1.5H3.251Zm4.255-4.25a.75.75 0 0 1 .751-.75h8.492a.75.75 0 1 1 0 1.5H8.257a.75.75 0 0 1-.75-.75Z" clip-rule="evenodd"/></svg>
