<svg xmlns="http://www.w3.org/2000/svg" width="20" height="20" fill="currentColor" viewBox="0 0 20 20"><path fill-rule="evenodd" d="M5.751 7.25C3.884 7.25 3 8.782 3 9.997c0 1.214.884 2.746 2.751 2.746.822 0 1.289-.259 1.848-.735a.75.75 0 1 1 .972 1.141c-.736.628-1.535 1.094-2.82 1.094-2.933 0-4.251-2.463-4.251-4.246 0-1.783 1.318-4.247 4.251-4.247 1.322 0 2.306.546 3.078 1.311.73.724 1.291 1.67 1.793 2.514l.025.042c.532.894 1.004 1.68 1.585 2.257.551.547 1.172.876 2.02.876 1.864 0 2.748-1.536 2.748-2.753 0-1.207-.93-2.747-2.749-2.747-.725 0-1.254.229-1.853.742a.75.75 0 0 1-.976-1.14c.815-.698 1.679-1.102 2.829-1.102 2.872 0 4.249 2.456 4.249 4.247 0 1.78-1.314 4.253-4.249 4.253-1.321 0-2.304-.546-3.076-1.312-.729-.723-1.29-1.667-1.791-2.511l-.026-.044c-.532-.894-1.005-1.68-1.586-2.257-.551-.547-1.173-.876-2.02-.876Z" clip-rule="evenodd"/></svg>
