<svg xmlns="http://www.w3.org/2000/svg" width="20" height="20" fill="currentColor" viewBox="0 0 20 20"><path d="M7.5 13.5a1 1 0 1 0 0-2 1 1 0 0 0 0 2Z"/><path fill-rule="evenodd" d="M14.92 1.5h-.01c-.04 0-.166-.002-.292.029a.999.999 0 0 0-.295.125c-.11.069-.196.16-.224.19l-.006.007L8.936 7.19A5.506 5.506 0 0 0 2 12.5a5.5 5.5 0 1 0 10.797-1.486L14.2 9.611l.007-.007a1.2 1.2 0 0 0 .207-.26 1 1 0 0 0 .118-.339c.023-.145.004-.286-.002-.332l-.002-.01-.077-.652.373.044c.069.008.162.02.245.022a.99.99 0 0 0 .442-.08 1 1 0 0 0 .5-.483c.084-.177.093-.343.094-.439 0-.084-.008-.177-.014-.246l-.037-.427.586.094.01.002a1 1 0 0 0 .978-.316l.008-.008.597-.597.002-.001.042-.044a.844.844 0 0 0 .222-.535l.001-.061V2.405c0-.02 0-.072-.004-.122a.852.852 0 0 0-.46-.69.85.85 0 0 0-.32-.09c-.049-.003-.1-.003-.121-.003H14.92ZM9.873 8.378 15.068 3H17v1.69l-.298.297-.867-.14a2.975 2.975 0 0 0-.252-.033 1.009 1.009 0 0 0-.457.065 1 1 0 0 0-.52.483c-.09.182-.1.353-.1.45 0 .087.008.183.014.255l.038.446-.387-.045a2.917 2.917 0 0 0-.251-.023 1.004 1.004 0 0 0-.451.084 1 1 0 0 0-.5.5 1.008 1.008 0 0 0-.083.45c.002.086.014.18.022.252l.111.94-1.426 1.425-.01.01a1.24 1.24 0 0 0-.25.326.988.988 0 0 0-.068.697c.013.05.03.104.043.144l.003.01a4 4 0 1 1-2.628-2.605l.01.002c.04.013.094.03.145.043a.988.988 0 0 0 .701-.077c.161-.082.286-.216.325-.258l.01-.01Z" clip-rule="evenodd"/></svg>
