<svg xmlns="http://www.w3.org/2000/svg" width="20" height="20" fill="currentColor" viewBox="0 0 20 20"><path d="M6.75 12.5a.75.75 0 0 0 0 1.5h6.5a.75.75 0 0 0 0-1.5h-6.5Zm8.75-5.375a1.125 1.125 0 1 1-2.25 0 1.125 1.125 0 0 1 2.25 0ZM11.453 8.25a1.125 1.125 0 1 0 0-2.25 1.125 1.125 0 0 0 0 2.25ZM9.672 7.125a1.125 1.125 0 1 1-2.25 0 1.125 1.125 0 0 1 2.25 0ZM5.625 8.25a1.125 1.125 0 1 0 0-2.25 1.125 1.125 0 0 0 0 2.25Zm9.875 1.875a1.125 1.125 0 1 1-2.25 0 1.125 1.125 0 0 1 2.25 0Zm-4.047 1.125a1.125 1.125 0 1 0 0-2.25 1.125 1.125 0 0 0 0 2.25Zm-1.781-1.125a1.125 1.125 0 1 1-2.25 0 1.125 1.125 0 0 1 2.25 0ZM5.625 11.25a1.125 1.125 0 1 0 0-2.25 1.125 1.125 0 0 0 0 2.25Z"/><path fill-rule="evenodd" d="M1.5 9.8c0-2.38 0-3.57.463-4.48a4.25 4.25 0 0 1 1.858-1.857C4.73 3 5.92 3 8.3 3h3.4c2.38 0 3.57 0 4.48.463a4.25 4.25 0 0 1 1.857 1.858c.463.909.463 2.099.463 4.479v.4c0 2.38 0 3.57-.463 4.48a4.251 4.251 0 0 1-1.857 1.857c-.91.463-2.1.463-4.48.463H8.3c-2.38 0-3.57 0-4.48-.463a4.25 4.25 0 0 1-1.857-1.857c-.463-.91-.463-2.1-.463-4.48v-.4Zm6.8-5.3h3.4c1.215 0 2.036.001 2.67.053.615.05.92.14 1.129.247A2.75 2.75 0 0 1 16.7 6.002c.106.207.197.513.247 1.129C17 7.764 17 8.585 17 9.8v.4c0 1.215-.001 2.036-.053 2.67-.05.615-.14.92-.247 1.129a2.751 2.751 0 0 1-1.2 1.201c-.208.106-.514.197-1.13.247-.633.052-1.454.053-2.669.053H8.3c-1.215 0-2.036-.001-2.67-.053-.615-.05-.92-.14-1.128-.247A2.75 2.75 0 0 1 3.3 14c-.106-.208-.197-.514-.247-1.13C3 12.236 3 11.415 3 10.2v-.4c0-1.215.001-2.036.053-2.67.05-.615.14-.92.247-1.128A2.75 2.75 0 0 1 4.502 4.8c.207-.106.513-.197 1.129-.247C6.264 4.5 7.085 4.5 8.3 4.5Z" clip-rule="evenodd"/></svg>
