<svg xmlns="http://www.w3.org/2000/svg" width="20" height="20" viewBox="0 0 20 20" fill="currentColor"><path fill-rule="evenodd" d="M13.55 4.25c.547 0 1.003-.001 1.374.03.38.03.737.098 1.074.27.517.263.938.685 1.202 1.202.171.337.24.693.27 1.073.03.371.03.828.03 1.375V14h.739c.947 0 1.107 1.357.186 1.578l-1.472.353q-.286.068-.582.069H3.627q-.295 0-.583-.07l-1.47-.352C.653 15.357.814 14 1.76 14h.74V8.2c0-.547 0-1.004.03-1.375.03-.38.099-.736.27-1.073A2.75 2.75 0 0 1 4.001 4.55c.337-.172.694-.24 1.074-.27.37-.031.827-.03 1.375-.03zm-7.1 1.5c-.572 0-.958 0-1.253.024-.287.024-.424.067-.515.113a1.25 1.25 0 0 0-.546.546c-.046.09-.089.228-.112.514-.024.296-.025.68-.025 1.253V14h12V8.2c0-.572 0-.957-.024-1.253-.023-.287-.066-.424-.112-.514a1.25 1.25 0 0 0-.546-.546c-.09-.046-.228-.09-.515-.113-.296-.024-.68-.024-1.253-.024z" clip-rule="evenodd"/></svg>