<svg fill="none" height="20" viewBox="0 0 20 20" width="20" xmlns="http://www.w3.org/2000/svg"><path clip-rule="evenodd" d="m16.0356 13.5479c.6128-1.0404.9644-2.2531.9644-3.5479 0-1.29481-.3516-2.5075-.9644-3.54785l-1.5846 1.26768c.351.6837.549 1.45881.549 2.28017 0 .8214-.198 1.5965-.549 2.2802zm1.1813.945c.8132-1.3035 1.2831-2.8433 1.2831-4.4929 0-4.69442-3.8056-8.5-8.5-8.5-4.69442 0-8.5 3.80558-8.5 8.5 0 1.6496.46989 3.1894 1.28311 4.4929h-.00001c.35489.5688.77516 1.0927 1.25029 1.561h.00001c1.53461 1.5126 3.64159 2.4461 5.9666 2.4461 2.325 0 4.432-.9335 5.9666-2.4461.4751-.4683.8954-.9922 1.2503-1.561zm-2.4316.616-1.5844-1.2676c.0546-.0456.1083-.0923.161-.1402-.8879.807-2.0675 1.2989-3.3619 1.2989-2.76142 0-4.99999-2.2386-4.99999-5 0-.82136.19805-1.59647.549-2.28017l-1.5846-1.26768c-.61286 1.04035-.96441 2.25304-.96441 3.54785 0 1.2948.35155 2.5075.96441 3.5478l1.58459-1.2676c.30867.6013.73562 1.1319 1.25013 1.5611l-1.58447 1.2676c1.25169 1.1729 2.93464 1.8911 4.78534 1.8911s3.5336-.7182 4.7853-1.8911zm-9.57064-10.2178 1.58448 1.26759c.86723-.72342 1.98322-1.15869 3.20086-1.15869 1.2177 0 2.3336.43526 3.2009 1.15868l1.5844-1.26758c-1.2517-1.1729-2.9346-1.8911-4.7853-1.8911s-3.53365.7182-4.78534 1.8911zm4.78534 8.6089c1.933 0 3.5-1.567 3.5-3.5 0-1.93299-1.567-3.5-3.5-3.5-1.93299 0-3.49999 1.56701-3.49999 3.5 0 1.933 1.567 3.5 3.49999 3.5z" fill="currentColor" fill-rule="evenodd"/></svg>
