<svg fill="none" height="20" viewBox="0 0 20 20" width="20" xmlns="http://www.w3.org/2000/svg" xmlns:xlink="http://www.w3.org/1999/xlink"><linearGradient id="a" gradientUnits="userSpaceOnUse" x1="-10" x2="10" y1="10" y2="30"><stop offset="0" stop-color="#ffb73d"/><stop offset="1" stop-color="#ffa000"/></linearGradient><path d="m0 10c0-5.52285 4.47715-10 10-10 5.5228 0 10 4.47715 10 10 0 5.5228-4.4772 10-10 10-5.52285 0-10-4.4772-10-10z" fill="url(#a)"/><g fill="#fff"><path d="m10 14.5013c.5523 0 1 .4474 1 .9994 0 .5519-.4477.9993-1 .9993-.55228 0-1-.4474-1-.9993 0-.552.44772-.9994 1-.9994z"/><path d="m6 7.99738c0-2.20769 1.79086-3.99738 4-3.99738 2.2091 0 4 1.78969 4 3.99738 0 2.20772-1.7909 3.99742-4 3.99742-2.20914 0-4-1.7897-4-3.99742z"/><path d="m8.5 10.4957h3v1.9987c0 .552-.4477.9994-1 .9994h-1c-.55228 0-1-.4474-1-.9994z"/></g></svg>