<svg fill="none" height="20" viewBox="0 0 20 20" width="20" xmlns="http://www.w3.org/2000/svg"><path d="m13.6288 2.5c2.9664 0 5.3712 2.40479 5.3712 5.37124 0 2.83676-1.0815 4.27456-5.7024 7.86856l-1.993 1.5501c-.7673.5968-1.84186.5968-2.60922 0l-1.993-1.5501c-4.6209-3.594-5.70238-5.0318-5.70238-7.86856 0-2.96645 2.40479-5.37124 5.37124-5.37124 1.25556 0 2.40312.46046 3.4142 1.34644l.21456.19635.2146-.19635c1.011-.88598 2.1586-1.34644 3.4142-1.34644zm0 1.5c-1.1242 0-2.1373.52975-3.0546 1.6216-.2997.35676-.84873.35676-1.14845 0-.91728-1.09185-1.93035-1.6216-3.05451-1.6216-2.13803 0-3.87124 1.73321-3.87124 3.87124 0 2.23756.83781 3.35136 5.12329 6.68456l1.993 1.5501c.22569.1755.54171.1755.76741 0l1.993-1.5501c4.0907-3.1817 5.04-4.3411 5.1179-6.38609l.0054-.29847c0-2.13803-1.7332-3.87124-3.8712-3.87124z" fill="currentColor"/></svg>
