<svg xmlns="http://www.w3.org/2000/svg" width="20" height="20" fill="currentColor" viewBox="0 0 20 20"><path d="M6.371 2.5A5.371 5.371 0 0 0 1 7.871c0 1.39.285 2.563 1.263 3.843.88 1.151 2.314 2.373 4.44 4.026l1.992 1.55.025.02.007.005.005.004a.75.75 0 0 0 1.036-1.084 1.595 1.595 0 0 0-.14-.12l-.012-.01-1.993-1.55C5.481 12.89 4.2 11.779 3.455 10.804 2.71 9.828 2.5 8.99 2.5 7.87A3.871 3.871 0 0 1 6.371 4c1.124 0 2.137.53 3.055 1.622a.75.75 0 0 0 1.148 0C11.492 4.529 12.505 4 13.63 4a3.871 3.871 0 0 1 3.87 3.871v.007l-.005.292c-.023.58-.115 1.073-.31 1.546l-.011.028a.75.75 0 1 0 1.383.58l.017-.04c.274-.669.392-1.34.42-2.057v-.022L19 7.899V7.87a5.371 5.371 0 0 0-5.371-5.37c-1.4 0-2.611.571-3.629 1.543C8.982 3.07 7.771 2.5 6.371 2.5Z"/><path fill-rule="evenodd" d="M11.949 14.09c.13-.067.29-.084.551-.088v-.752a2.25 2.25 0 1 1 4.5 0v.752c.261.004.421.021.551.088.155.078.28.204.36.359.089.175.089.405.089.866v1.87c0 .46 0 .69-.09.866a.821.821 0 0 1-.359.36c-.175.089-.405.089-.866.089h-3.87c-.46 0-.69 0-.866-.09a.821.821 0 0 1-.36-.359c-.089-.175-.089-.405-.089-.866v-1.87c0-.46 0-.69.09-.866a.821.821 0 0 1 .359-.36ZM16 13.25V14h-2.5v-.75a1.25 1.25 0 1 1 2.5 0Z" clip-rule="evenodd"/></svg>
