<svg fill="none" height="20" viewBox="0 0 20 20" width="20" xmlns="http://www.w3.org/2000/svg"><g fill="currentColor"><path d="m7 7.75c0 .41421.33579.75.75.75h2.6893l-3.21963 3.2197c-.29289.2929-.29289.7677 0 1.0606s.76777.2929 1.06066 0l3.21967-3.21964v2.68934c0 .4142.3358.75.75.75s.75-.3358.75-.75v-4.5c0-.41421-.3358-.75-.75-.75h-4.5c-.41421 0-.75.33579-.75.75z"/><path clip-rule="evenodd" d="m10 18.5c4.6944 0 8.5-3.8056 8.5-8.5 0-4.69442-3.8056-8.5-8.5-8.5-4.69442 0-8.5 3.80558-8.5 8.5 0 4.6944 3.80558 8.5 8.5 8.5zm7-8.5c0 3.866-3.134 7-7 7-3.86599 0-7-3.134-7-7 0-3.86599 3.13401-7 7-7 3.866 0 7 3.13401 7 7z" fill-rule="evenodd"/></g></svg>
