<svg xmlns="http://www.w3.org/2000/svg" width="20" height="20" viewBox="0 0 20 20" fill="currentColor"><g clip-path="url(#a)"><path d="M19.684 11.432a.67.67 0 0 1 0 1.136l-4.737 2.843c-.42.253-.947-.063-.947-.568V9.157c0-.505.526-.82.947-.568zM2 4.75A.75.75 0 0 1 2.75 4h14.5a.75.75 0 0 1 0 1.5H2.75A.75.75 0 0 1 2 4.75m0 5A.75.75 0 0 1 2.75 9h7.5a.75.75 0 0 1 0 1.5h-7.5A.75.75 0 0 1 2 9.75m0 5a.75.75 0 0 1 .75-.75h7.5a.75.75 0 0 1 0 1.5h-7.5a.75.75 0 0 1-.75-.75"/></g><defs><clipPath id="a"><path d="M0 0h20v20H0z"/></clipPath></defs></svg>