<svg fill="none" height="20" viewBox="0 0 20 20" width="20" xmlns="http://www.w3.org/2000/svg" xmlns:xlink="http://www.w3.org/1999/xlink"><clipPath id="a"><path d="m0 0h20v20h-20z"/></clipPath><g clip-path="url(#a)" fill="currentColor"><path d="m19.6842 11.4315c.4211.2527.4211.8843 0 1.137l-4.7368 2.8426c-.4211.2526-.9474-.0632-.9474-.5685v-5.68516c0-.50534.5263-.82118.9474-.56851z"/><path d="m2 4.75c0-.41421.33579-.75.75-.75h14.5c.4142 0 .75.33579.75.75s-.3358.75-.75.75h-14.5c-.41421 0-.75-.33579-.75-.75z"/><path d="m2 9.75c0-.41421.33579-.75.75-.75h7.5c.4142 0 .75.33579.75.75 0 .4142-.3358.75-.75.75h-7.5c-.41421 0-.75-.3358-.75-.75z"/><path d="m2 14.75c0-.4142.33579-.75.75-.75h7.5c.4142 0 .75.3358.75.75s-.3358.75-.75.75h-7.5c-.41421 0-.75-.3358-.75-.75z"/></g></svg>
