<svg xmlns="http://www.w3.org/2000/svg" width="20" height="20" fill="currentColor" viewBox="0 0 20 20"><path d="M17.723 13.235a.75.75 0 0 1 1.06 1.06l-3.22 3.223h1.687a.75.75 0 0 1 0 1.5h-3.49l-.026-.001a.754.754 0 0 1-.118-.012l-.014-.002c-.014-.003-.028-.009-.042-.013a.717.717 0 0 1-.1-.03c-.011-.005-.022-.013-.033-.019a.743.743 0 0 1-.206-.141.748.748 0 0 1-.117-.156.745.745 0 0 1-.104-.376V14.75a.75.75 0 0 1 1.5 0v1.708l3.223-3.223Zm-8.396.769a.75.75 0 0 1 0 1.492l-.077.004h-6.5a.75.75 0 0 1 0-1.5h6.5l.077.004Zm8-5a.75.75 0 0 1 0 1.492l-.077.004H2.75a.75.75 0 0 1 0-1.5h14.5l.077.004Zm0-5a.75.75 0 0 1 0 1.492l-.077.004H2.75a.75.75 0 0 1 0-1.5h14.5l.077.004Z"/></svg>
