<svg xmlns="http://www.w3.org/2000/svg" width="20" height="20" fill="currentColor" viewBox="0 0 20 20"><path d="M6.667 4.917a.75.75 0 0 1 .75-.75h9.333a.75.75 0 1 1 0 1.5H7.417a.75.75 0 0 1-.75-.75Zm0 5.083a.75.75 0 0 1 .75-.75h9.333a.75.75 0 1 1 0 1.5H7.417a.75.75 0 0 1-.75-.75Zm0 5.083a.75.75 0 0 1 .75-.75h9.333a.75.75 0 1 1 0 1.5H7.417a.75.75 0 0 1-.75-.75ZM3.284 5.941c0 .358.175.559.486.559.31 0 .482-.199.482-.559V3.629c0-.382-.223-.629-.568-.629-.193 0-.407.07-.607.201l-.328.214c-.163.106-.247.24-.247.393 0 .207.135.353.326.353.093 0 .167-.03.321-.129l.13-.083h.005v1.992Zm-.777 5.393c0 .247.187.416.46.416h1.737c.294 0 .468-.151.468-.406s-.18-.411-.468-.411h-.835v-.04l.588-.53c.396-.355.59-.709.59-1.08 0-.592-.54-1.033-1.265-1.033-.695 0-1.28.434-1.28.925 0 .225.17.386.409.386.166 0 .276-.065.428-.257.132-.166.24-.227.388-.227.195 0 .33.126.33.313 0 .166-.115.328-.374.575l-.762.726c-.307.29-.414.456-.414.643ZM2.5 16.188c0 .45.568.812 1.273.812.816 0 1.397-.43 1.397-1.034 0-.432-.287-.763-.68-.785v-.07c.333-.031.595-.337.595-.693 0-.543-.532-.918-1.302-.918-.69 0-1.27.353-1.27.773 0 .214.17.372.4.372a.529.529 0 0 0 .377-.155c.177-.17.313-.237.478-.237.214 0 .367.12.367.289 0 .167-.156.29-.367.29h-.133c-.202 0-.345.166-.345.376 0 .222.143.38.345.38h.133c.258 0 .428.133.428.33 0 .198-.17.33-.428.33-.18 0-.338-.077-.498-.248-.136-.143-.257-.207-.393-.207-.22 0-.377.165-.377.395Z"/></svg>
