<svg xmlns="http://www.w3.org/2000/svg" width="20" height="20" fill="currentColor" viewBox="0 0 20 20"><path d="M14.172 17.29a.75.75 0 0 1-1.06-.019l-1.81-1.87a.95.95 0 0 1-.024-1.294l1.814-2.026a.75.75 0 1 1 1.117 1l-.82.917 1.619-.01a1.25 1.25 0 0 0 1.242-1.25V9.75a.75.75 0 0 1 1.5 0v2.988a2.75 2.75 0 0 1-2.733 2.75l-1.535.009.708.732a.75.75 0 0 1-.018 1.06ZM9 15.5A.75.75 0 0 0 9 14H3a.75.75 0 0 0 0 1.5h6Zm4.75-5.75a.75.75 0 0 1-.75.75H3A.75.75 0 0 1 3 9h10a.75.75 0 0 1 .75.75Zm4-5a.75.75 0 0 1-.75.75H3A.75.75 0 0 1 3 4h14a.75.75 0 0 1 .75.75Z"/></svg>
