<svg fill="none" height="20" viewBox="0 0 20 20" width="20" xmlns="http://www.w3.org/2000/svg" xmlns:xlink="http://www.w3.org/1999/xlink"><linearGradient id="a" gradientUnits="userSpaceOnUse" x1="-10" x2="10" y1="10" y2="30"><stop offset="0" stop-color="#70b2ff"/><stop offset="1" stop-color="#5c9ce6"/></linearGradient><path d="m0 10c0-5.52285 4.47715-10 10-10 5.5228 0 10 4.47715 10 10 0 5.5228-4.4772 10-10 10-5.52285 0-10-4.4772-10-10z" fill="url(#a)"/><path d="m14.5794 9c1.1988 0 2.1706.94659 2.1706 2.1143 0 1.1792-.485 1.7704-2.5424 3.3291l-.9361.7091c-.2332.1767-.5598.1767-.793 0l-.9361-.7091c-2.05736-1.5587-2.5424-2.1499-2.5424-3.3291 0-1.16771.9718-2.1143 2.1706-2.1143.6423 0 1.2129.29451 1.7044.86431.4915-.5698 1.0621-.86431 1.7044-.86431zm-6.8294 4.5c.41421 0 .75.3358.75.75s-.33579.75-.75.75h-2.5c-.41421 0-.75-.3358-.75-.75s.33579-.75.75-.75zm-1-4c.41421 0 .75.33579.75.75 0 .4142-.33579.75-.75.75h-1.5c-.41421 0-.75-.3358-.75-.75 0-.41421.33579-.75.75-.75zm8-4c.4142 0 .75.33579.75.75s-.3358.75-.75.75h-9.5c-.41421 0-.75-.33579-.75-.75s.33579-.75.75-.75z" fill="#fff"/></svg>
