<svg fill="none" height="20" viewBox="0 0 20 20" width="20" xmlns="http://www.w3.org/2000/svg"><g fill="currentColor"><path d="m16.5826 8.29327c.391-.39103 1.0249-.39103 1.4159 0l.708.70803c.391.39103.391 1.025 0 1.416l-.708.7081-2.1239-2.1241z"/><path d="m14.8939 9.98136 2.1239 2.12404-4.3377 4.338c-.4396.4397-.9756.771-1.5654.9676l-1.71907.5731c-.23482.0782-.45821-.1452-.37994-.38l.57302-1.7192c.19661-.5899.52789-1.1259.96749-1.5655z"/><path d="m17.5 4.75c0-.41421-.3415-.75-.7438-.75h-14.01235c-.41082 0-.74385.3329-.74385.75 0 .41421.34148.75.74385.75h14.01235c.4108 0 .7438-.3329.7438-.75zm-5.5 5c0-.41421-.3415-.75-.7438-.75h-8.51235c-.41082 0-.74385.3329-.74385.75 0 .4142.34148.75.74385.75h8.51235c.4108 0 .7438-.3329.7438-.75zm-10 5c0 .4142.33746.75.75513.75h3.48975c.41705 0 .75514-.3329.75514-.75 0-.4142-.33746-.75-.75514-.75h-3.48975c-.41704 0-.75513.3329-.75513.75z"/></g></svg>
