<svg xmlns="http://www.w3.org/2000/svg" width="20" height="20" fill="currentColor" viewBox="0 0 20 20"><path d="M17.247 14.5c.42 0 .753.336.753.75l-.007.102a.75.75 0 0 1-.746.648H2.753a.75.75 0 1 1 0-1.5h14.494Zm.001-5a.749.749 0 1 1 0 1.5H8.752A.748.748 0 0 1 8 10.25l.007-.102a.75.75 0 0 1 .745-.648h8.496Zm.003-5a.751.751 0 0 1 0 1.5h-5.502A.751.751 0 0 1 11 5.25l.007-.102a.748.748 0 0 1 .742-.648h5.502ZM6.639 2.729A.75.75 0 0 0 5.56 3.77l.707.732-1.535.01A2.75 2.75 0 0 0 2 7.263v2.987a.75.75 0 0 0 1.5 0V7.262a1.25 1.25 0 0 1 1.242-1.25l1.619-.01-.82.916a.75.75 0 1 0 1.117 1l1.814-2.025A.95.95 0 0 0 8.448 4.6l-1.81-1.87Z"/></svg>
