<svg xmlns="http://www.w3.org/2000/svg" width="20" height="20" fill="currentColor" viewBox="0 0 20 20"><path d="M6.667 4.917a.75.75 0 0 1 .75-.75h9.333a.75.75 0 0 1 0 1.5H7.417a.75.75 0 0 1-.75-.75Zm0 5.083a.75.75 0 0 1 .75-.75h9.333a.75.75 0 0 1 0 1.5H7.417a.75.75 0 0 1-.75-.75Zm0 5.083a.75.75 0 0 1 .75-.75h9.333a.75.75 0 1 1 0 1.5H7.417a.75.75 0 0 1-.75-.75ZM2.698 6.33c.26 0 .398-.14.494-.495l.04-.15h1.006l.04.15c.093.346.245.495.506.495.28 0 .466-.173.466-.438a1.42 1.42 0 0 0-.082-.408l-.56-1.763C4.44 3.2 4.208 3 3.762 3c-.446 0-.685.202-.851.721l-.563 1.763c-.072.22-.098.339-.098.435 0 .24.185.411.448.411Zm.722-1.354.295-1.118h.051l.289 1.118H3.42Zm.606 6.354c.743 0 1.229-.437 1.229-1.103 0-.646-.486-1.058-1.243-1.058H3.53V8.8h1.028c.215 0 .374-.168.374-.4s-.16-.4-.374-.4h-1.54c-.318 0-.513.198-.513.52v2.293c0 .322.195.517.513.517h1.008Zm-.495-.756V9.88h.266c.261 0 .422.132.422.346 0 .217-.156.347-.422.347H3.53Zm-1.026 5.239c0 .322.19.517.498.517h1.129c.66 0 1.122-.39 1.122-.951 0-.444-.32-.784-.75-.796v-.046c.368-.046.612-.334.612-.72 0-.502-.403-.817-1.048-.817H3.003c-.308 0-.498.198-.498.52v2.293Zm.984-1.505v-.625h.304c.23 0 .36.13.36.31 0 .16-.104.315-.355.315h-.309Zm0 1.339v-.734h.335c.289 0 .422.15.422.36 0 .203-.124.374-.418.374H3.49Z"/></svg>
