<svg fill="none" height="20" viewBox="0 0 20 20" width="20" xmlns="http://www.w3.org/2000/svg"><g fill="currentColor"><path clip-rule="evenodd" d="m2.28033 1.21967c-.29289-.292893-.76777-.292893-1.06066 0-.292893.29289-.292893.76777 0 1.06066l2.26291 2.26291c-1.23694 1.47604-1.98258 3.3799-1.98258 5.45676 0 4.6944 3.80558 8.5 8.5 8.5 2.0769 0 3.9807-.7456 5.4568-1.9826l2.2629 2.2629c.2929.2929.7677.2929 1.0606 0s.2929-.7677 0-1.0606zm12.11077 14.23213-1.4257-1.4258c-.8294.6118-1.8556.974-2.9654.974-2.76142 0-5-2.2386-5-5 0-1.10981.36222-2.13595.97396-2.96538l-1.42575-1.42575c-.96893 1.20121-1.54821 2.72798-1.54821 4.39113 0 3.866 3.13401 7 7 7 1.6631 0 3.1899-.5793 4.3911-1.5482zm-7.33922-7.33926c-.3496.54468-.55188 1.19207-.55188 1.88746 0 1.933 1.567 3.5 3.5 3.5.6954 0 1.3428-.2023 1.8875-.5519l-1.499-1.4989c-.1239.0331-.2541.0508-.3885.0508-.82843 0-1.5-.6716-1.5-1.50001 0-.13437.01767-.26461.0508-.38852z" fill-rule="evenodd"/><path d="m10 3c-.94628 0-1.84691.18735-2.66824.52629-.3829.158-.82138-.0243-.97939-.4072-.158-.38289.0243-.82137.4072-.97938.99963-.41251 2.09444-.63971 3.24043-.63971 4.6944 0 8.5 3.80558 8.5 8.5 0 1.1451-.2268 2.2391-.6387 3.2381-.1579.3829-.5963.5653-.9793.4074-.3829-.1578-.5654-.5963-.4075-.9792.3384-.8208.5255-1.7208.5255-2.6663 0-3.86599-3.134-7-7-7z"/><path d="m10 5c-.41421 0-.75.33579-.75.75s.33579.75.75.75c1.933 0 3.5 1.567 3.5 3.5 0 .4142.3358.75.75.75s.75-.3358.75-.75c0-2.76142-2.2386-5-5-5z"/></g></svg>
