<svg xmlns="http://www.w3.org/2000/svg" width="20" height="20" fill="currentColor" viewBox="0 0 20 20"><path d="M11.5 6.502a1.502 1.502 0 1 1-3.003 0 1.502 1.502 0 0 1 3.004 0Z M6.523 2.989C7.427 2.1 8.672 1.5 10.003 1.5s2.575.601 3.48 1.49c.903.888 1.519 2.117 1.519 3.435 0 2.716-1.785 5.143-3.042 6.532l-.046.05c-.326.362-.627.695-1.173.884-.238.083-.51.11-.738.11-.227 0-.5-.027-.738-.11-.546-.19-.847-.522-1.173-.883l-.046-.051C6.79 11.567 5.002 9.14 5.002 6.424c0-1.32.617-2.547 1.52-3.435Zm1.051 1.07c-.669.657-1.072 1.516-1.072 2.365 0 2.118 1.437 4.179 2.656 5.526.384.424.445.471.599.524a.928.928 0 0 0 .246.027.928.928 0 0 0 .246-.027c.153-.053.215-.1.598-.524 1.22-1.347 2.655-3.407 2.655-5.525 0-.849-.403-1.708-1.071-2.366C11.763 3.403 10.882 3 10.003 3c-.88 0-1.76.402-2.429 1.059Z M5.201 12.905a.75.75 0 1 0-.95-1.161c-.795.651-1.253 1.747-1.253 2.604 0 1.396 1.009 2.448 2.253 3.109 1.267.673 2.947 1.048 4.715 1.048 1.768 0 3.467-.374 4.753-1.07C15.993 16.747 17 15.653 17 14.193c0-.912-.47-1.81-1.253-2.438a.75.75 0 0 0-.939 1.17c.48.385.692.873.692 1.268 0 .678-.462 1.365-1.494 1.923-1.02.55-2.461.889-4.04.889-1.577 0-3.005-.338-4.011-.873-1.029-.546-1.457-1.197-1.457-1.784 0-.428.272-1.09.703-1.443Z"/></svg>
