<svg xmlns="http://www.w3.org/2000/svg" width="20" height="20" fill="currentColor" viewBox="0 0 20 20"><path fill-rule="evenodd" d="M5.78 2.218a.75.75 0 1 0-1.06 1.06l2.325 2.328c-.913.339-1.768.661-2.459.928-.8.308-1.444.565-1.662.681-1.302.694-1.29 2.77.388 3.278.318.097.88.185 1.475.264.62.082 1.346.163 2.035.233.691.07 1.35.13 1.835.174l.17.015.015.173c.044.489.106 1.15.177 1.843.07.692.15 1.419.232 2.037.079.593.166 1.152.26 1.463.504 1.674 2.827 1.777 3.511.064.172-.43.754-1.969 1.416-3.755l2.28 2.282a.75.75 0 1 0 1.061-1.061L5.78 2.218Zm7.494 9.621L8.207 6.77a.759.759 0 0 1-.088.04c-1.115.411-2.173.809-2.994 1.125-.85.328-1.38.544-1.496.606a.267.267 0 0 0-.134.261c.005.053.023.1.053.137a.382.382 0 0 0 .198.12c.18.054.618.13 1.238.212.598.079 1.307.157 1.99.227a145.141 145.141 0 0 0 2.392.222l.16.013.054.005c.365.03.656.32.687.686l.005.055.013.16a162.306 162.306 0 0 0 .226 2.404c.07.686.149 1.397.227 1.993.082.621.157 1.053.209 1.226a.315.315 0 0 0 .303.236.34.34 0 0 0 .199-.054.488.488 0 0 0 .18-.24 284.9 284.9 0 0 0 1.614-4.29c.009-.026.02-.05.031-.074Zm-2.026-7.766a.75.75 0 0 0 .504 1.414c1.418-.507 2.498-.878 2.808-.96.522-.137 1.09.295.91 1.047-.081.34-.435 1.383-.922 2.75a.75.75 0 0 0 1.413.504c.473-1.328.863-2.466.968-2.905.416-1.736-1.016-3.305-2.752-2.846-.387.102-1.544.502-2.93.996Z" clip-rule="evenodd"/></svg>
