<svg xmlns="http://www.w3.org/2000/svg" width="20" height="20" fill="currentColor" viewBox="0 0 20 20"><path fill-rule="evenodd" d="M6 5v2.029c-.588.036-1.006.116-1.362.298a3 3 0 0 0-1.311 1.311c-.258.506-.312 1.136-.324 2.204A4.068 4.068 0 0 0 3 11v3l.003.159c.012 1.067.066 1.697.324 2.203a3 3 0 0 0 1.311 1.311c.506.258 1.135.312 2.202.324.053.002.107.003.16.003h6c.053 0 .107-.001.16-.003 1.067-.012 1.696-.066 2.202-.324a3 3 0 0 0 1.311-1.311c.258-.506.312-1.136.324-2.203L17 14v-3l-.003-.159c-.012-1.067-.066-1.697-.324-2.203a3 3 0 0 0-1.311-1.311c-.356-.182-.774-.262-1.362-.298V5a4 4 0 0 0-8 0Zm6.5 0a2.5 2.5 0 0 0-5 0v2h5V5ZM10 10.75a.75.75 0 0 1 .75.75v2a.75.75 0 0 1-1.5 0v-2a.75.75 0 0 1 .75-.75Z" clip-rule="evenodd"/></svg>
