<svg xmlns="http://www.w3.org/2000/svg" width="20" height="20" fill="currentColor" viewBox="0 0 20 20"><path fill-rule="evenodd" d="M10 7a3 3 0 1 0 0 6 3 3 0 0 0 0-6Zm-1.5 3a1.5 1.5 0 1 1 3 0 1.5 1.5 0 0 1-3 0Z" clip-rule="evenodd"/><path fill-rule="evenodd" d="M3.587 5.703a.911.911 0 0 1-.024.061l-.002.004a1.53 1.53 0 0 0-.058.16 5.673 5.673 0 0 0-.266 1.097C3.088 7.854 3 8.887 3 10c0 1.112.088 2.147.244 2.978a5.676 5.676 0 0 0 .279 1.136l.001.005a6.685 6.685 0 0 0 .063.18c.957 2.448 3.456 4.201 6.388 4.201 3.21 0 5.908-2.096 6.612-4.923a.58.58 0 0 0 .014-.049c.245-.874.399-2.131.399-3.528 0-1.398-.154-2.653-.391-3.53a.63.63 0 0 0-.016-.054c-.71-2.82-3.408-4.916-6.618-4.916-2.93 0-5.438 1.752-6.388 4.203Zm1.359.642c.002-.006.024-.057.043-.11C5.71 4.39 7.642 3 9.975 3c2.566 0 4.631 1.67 5.164 3.782l.014.058.009.026c.193.715.338 1.83.338 3.134 0 1.307-.146 2.42-.343 3.123l-.001.004-.01.029-.015.059C14.605 15.33 12.541 17 9.975 17c-2.32 0-4.24-1.375-4.975-3.21l-.004-.013-.02-.055a3.695 3.695 0 0 1-.026-.07l-.006-.024-.02-.056a4.166 4.166 0 0 1-.188-.746l-.003-.046-.015-.078C4.583 11.98 4.5 11.042 4.5 10c0-1.041.083-1.984.213-2.71l.014-.077.003-.042c.04-.258.103-.505.187-.743l.02-.056.006-.02.001-.004.002-.003Z" clip-rule="evenodd"/></svg>
