<svg xmlns="http://www.w3.org/2000/svg" width="20" height="20" fill="currentColor" viewBox="0 0 20 20"><path fill-rule="evenodd" d="M8.35 2h-.033c-.952 0-1.713 0-2.327.05-.63.052-1.172.16-1.67.413a4.25 4.25 0 0 0-1.857 1.858c-.253.497-.361 1.04-.413 1.67C2 6.603 2 7.364 2 8.316v3.367c0 .952 0 1.713.05 2.327.052.63.16 1.172.413 1.67a4.25 4.25 0 0 0 1.858 1.857c.497.253 1.04.361 1.67.413.613.05 1.374.05 2.326.05h3.366c.952 0 1.713 0 2.327-.05.63-.052 1.172-.16 1.67-.413a4.251 4.251 0 0 0 1.857-1.857c.253-.498.361-1.04.413-1.67.05-.614.05-1.375.05-2.327V8.317c0-.952 0-1.713-.05-2.327-.052-.63-.16-1.172-.413-1.67a4.25 4.25 0 0 0-1.857-1.857c-.498-.253-1.04-.361-1.67-.413C13.396 2 12.635 2 11.683 2H8.35ZM5.002 3.8c.25-.128.573-.21 1.11-.255.546-.044 1.246-.045 2.238-.045h3.3c.992 0 1.692 0 2.238.045.537.044.86.127 1.11.255A2.75 2.75 0 0 1 16.2 5.002c.128.25.21.573.255 1.11.033.41.042.906.044 1.547l-1.823 1.424a2.833 2.833 0 0 0-2.835-2.69c-.7 0-1.317.235-1.844.66a2.889 2.889 0 0 0-1.839-.66 2.834 2.834 0 0 0-2.834 2.69L3.501 7.66c.002-.641.01-1.137.044-1.547.044-.537.127-.86.255-1.11A2.75 2.75 0 0 1 5.002 3.8ZM3.5 9.562v2.088c0 .992 0 1.692.045 2.238.044.537.127.86.255 1.11A2.75 2.75 0 0 0 5.002 16.2c.25.128.573.21 1.11.255.546.044 1.246.045 2.238.045h3.3c.992 0 1.692 0 2.238-.045.537-.044.86-.127 1.11-.255A2.751 2.751 0 0 0 16.2 15c.128-.252.21-.574.255-1.111.044-.546.045-1.245.045-2.238V9.562l-4.768 3.723h-.001l-.002.001-1.02.793c-.417.323-1 .323-1.418 0l-1.02-.793h-.002v-.002L3.5 9.563ZM10 12.73l-.807-.627h-.001c-1.018-.797-1.609-1.292-1.96-1.726-.304-.377-.41-.688-.41-1.163 0-.724.597-1.321 1.336-1.321.43 0 .845.184 1.263.692a.75.75 0 0 0 1.163-.006c.402-.5.814-.686 1.258-.686.739 0 1.337.597 1.337 1.321 0 .475-.107.786-.412 1.163-.35.434-.941.929-1.959 1.725v.001L10 12.73Z" clip-rule="evenodd"/></svg>
