<svg xmlns="http://www.w3.org/2000/svg" width="20" height="20" fill="currentColor" viewBox="0 0 20 20"><path fill-rule="evenodd" d="M8.317 2h3.366c.952 0 1.713 0 2.327.05.63.052 1.172.16 1.67.413a4.25 4.25 0 0 1 1.857 1.858c.253.497.361 1.04.413 1.67.05.613.05 1.374.05 2.326v2.264c.001.264.002.52 0 .761v.341c0 .952 0 1.713-.05 2.327-.052.63-.16 1.172-.413 1.67a4.251 4.251 0 0 1-1.857 1.857c-.498.253-1.04.361-1.67.413-.614.05-1.375.05-2.327.05H8.317c-.952 0-1.713 0-2.327-.05-.63-.052-1.172-.16-1.67-.413a4.25 4.25 0 0 1-1.857-1.857c-.253-.498-.361-1.04-.413-1.67C2 13.396 2 12.635 2 11.683V8.317c0-.952 0-1.713.05-2.327.052-.63.16-1.172.413-1.67a4.25 4.25 0 0 1 1.858-1.857c.497-.253 1.04-.361 1.67-.413C6.603 2 7.364 2 8.316 2ZM16.5 8.35v2.74a8.489 8.489 0 0 1-4.471 3.005V12.29l-.671-.071A6.32 6.32 0 0 1 6.182 3.54C6.718 3.5 7.4 3.5 8.35 3.5h3.3c.992 0 1.692 0 2.238.045.537.044.86.127 1.11.255A2.75 2.75 0 0 1 16.2 5.002c.128.25.21.573.255 1.11.044.546.045 1.246.045 2.238Zm-5.1 7.415a9.93 9.93 0 0 0 5.086-2.457c-.007.212-.017.404-.031.58-.044.537-.127.86-.255 1.11A2.751 2.751 0 0 1 15 16.2c-.252.128-.574.21-1.111.255-.546.044-1.245.045-2.238.045h-3.3c-.992 0-1.692 0-2.238-.045-.537-.044-.86-.127-1.11-.255A2.75 2.75 0 0 1 3.8 15c-.128-.252-.21-.574-.255-1.111-.044-.546-.045-1.245-.045-2.238v-3.3c0-.992 0-1.692.045-2.238.044-.537.127-.86.255-1.11.152-.3.357-.567.603-.79a7.82 7.82 0 0 0 6.126 9.396v2.299l.87-.142ZM8.005 8.01a1.005 1.005 0 1 0 0-2.01 1.005 1.005 0 0 0 0 2.01Zm4.005-1.005a1.005 1.005 0 1 1-2.01 0 1.005 1.005 0 0 1 2.01 0Zm1.995 1.005a1.005 1.005 0 1 0 0-2.01 1.005 1.005 0 0 0 0 2.01Z" clip-rule="evenodd"/></svg>
