<svg width="20" height="20" viewBox="0 0 20 20" fill="none" xmlns="http://www.w3.org/2000/svg"><path fill-rule="evenodd" clip-rule="evenodd" d="M7.082 3.5c-1.66 0-2.023.169-2.363.35-.378.203-.666.49-.869.87-.181.339-.35.702-.35 2.362v5.836c0 1.66.169 2.023.35 2.363.203.378.49.666.87.868.339.182.702.351 2.362.351h5.836c1.66 0 2.023-.169 2.363-.35.378-.203.666-.49.868-.87.182-.339.351-.702.351-2.362V7.082c0-1.66-.169-2.023-.35-2.363a2.067 2.067 0 00-.87-.869c-.339-.181-.702-.35-2.362-.35H7.082zm-3.07-.972C4.662 2.18 5.307 2 7.082 2h5.836c1.775 0 2.42.18 3.07.528.64.342 1.142.844 1.484 1.484.348.65.528 1.295.528 3.07v5.836c0 1.775-.18 2.42-.528 3.07a3.567 3.567 0 01-1.484 1.484c-.65.348-1.295.528-3.07.528H7.082c-1.775 0-2.42-.18-3.07-.528a3.567 3.567 0 01-1.484-1.484C2.18 15.338 2 14.693 2 12.918V7.082c0-1.775.18-2.42.528-3.07a3.567 3.567 0 011.484-1.484z" fill="currentColor"/><path d="M13.5 11.55c0 .398-.076.747-.23 1.048-.152.3-.358.55-.616.746a2.872 2.872 0 01-1.01.506c-.363.1-.827.15-1.391.15H7V6h2.87c.597 0 1.049.023 1.354.07.31.043.599.136.868.28.291.153.508.36.65.617.145.258.218.555.218.892 0 .39-.1.738-.3 1.042-.197.305-.47.529-.82.672v.043c.503.104.905.317 1.207.64.302.318.453.75.453 1.294zm-2.614-3.288a.876.876 0 00-.104-.398.593.593 0 00-.311-.295 1.286 1.286 0 00-.48-.091c-.182-.008-.455-.011-.819-.011H9.03v1.692h.257c.349 0 .593-.003.731-.01.142-.008.287-.045.437-.113a.653.653 0 00.338-.312c.062-.133.093-.287.093-.462zm.513 3.25c0-.247-.051-.44-.153-.58a.927.927 0 00-.458-.317 1.575 1.575 0 00-.513-.075c-.215-.007-.504-.01-.868-.01H9.03v2.003h.11c.53 0 .898-.003 1.102-.01.204-.008.411-.056.622-.146a.799.799 0 00.404-.343c.087-.154.13-.328.13-.522z" fill="currentColor"/></svg>
