<svg xmlns="http://www.w3.org/2000/svg" width="20" height="20" fill="currentColor" viewBox="0 0 20 20"><path fill-rule="evenodd" d="M2.003 8.214c.018-2.678.152-4.14 1.11-5.1C4.229 2 6.022 2 9.608 2h.786c3.586 0 5.38 0 6.493 1.114.944.944 1.088 2.375 1.11 4.972v.033c.004.41.004.85.004 1.32v.955c0 .897 0 1.681-.017 2.371-.053 2.07-.262 3.287-1.097 4.122C15.772 18 13.979 18 10.393 18h-.786c-3.586 0-5.38 0-6.493-1.114C2 15.772 2 13.979 2 10.393V9.114c0-.315.001-.614.003-.9Zm8.39-4.714h-.786c-1.836 0-3.061.003-3.974.126-.87.117-1.227.317-1.458.549-.232.231-.432.589-.55 1.458-.115.863-.124 2.005-.125 3.677l1.5.866v-1.47c0-.434 0-.83.043-1.153.048-.356.16-.731.47-1.04.309-.31.684-.422 1.04-.47C6.876 6 7.273 6 7.705 6h4.59c.433 0 .83 0 1.152.043.356.048.731.16 1.04.47.31.309.422.684.47 1.04.043.323.043.72.043 1.152v1.425l1.5-.866c0-1.647-.011-2.776-.126-3.63-.117-.87-.317-1.228-.549-1.46-.231-.231-.589-.431-1.458-.548-.913-.123-2.138-.126-3.974-.126Zm6.107 7.496-3.92 2.263c-.425.246-.833.481-1.2.647-.41.187-.875.337-1.42.337-.545 0-1.01-.15-1.42-.337a14.418 14.418 0 0 1-1.2-.647L3.5 11.042v.012c.002.971.01 1.753.045 2.401.018.337.044.639.08.912.118.869.318 1.226.55 1.458.231.232.589.432 1.458.549.913.123 2.138.126 3.974.126h.786c1.836 0 3.061-.003 3.974-.126.87-.117 1.227-.317 1.458-.549.232-.232.432-.589.55-1.458.034-.257.059-.538.077-.851.039-.673.046-1.49.048-2.52Zm-3 0V8.75c0-.493-.002-.787-.03-.997a.703.703 0 0 0-.042-.177l-.001-.003-.003-.001-.004-.002-.006-.003a.704.704 0 0 0-.167-.037c-.21-.028-.504-.03-.997-.03h-4.5c-.493 0-.787.002-.997.03a.706.706 0 0 0-.177.042l-.003.001-.001.003a.706.706 0 0 0-.042.177c-.028.21-.03.504-.03.997v2.292l1.54.89c.937.54 1.406.81 1.92.81s.983-.27 1.92-.81l1.62-.936Z" clip-rule="evenodd"/></svg>
