<svg xmlns="http://www.w3.org/2000/svg" width="20" height="20" fill="currentColor" viewBox="0 0 20 20"><path fill-rule="evenodd" d="m3.324 3.328.006-.006c.786-.774 1.75-1.079 2.768-1.215.953-.127 2.144-.127 3.536-.127h.722c1.389 0 2.58 0 3.532.127 1.017.136 1.985.44 2.77 1.219l.003.004c.783.783 1.088 1.754 1.223 2.77.127.953.127 2.145.127 3.534v.721c0 1.39 0 2.58-.127 3.532-.136 1.017-.44 1.985-1.219 2.769l-.004.004c-.783.783-1.755 1.087-2.77 1.222-.954.127-2.146.127-3.535.127h-.722c-1.389 0-2.58 0-3.532-.127-1.017-.136-1.985-.44-2.77-1.219l-.003-.003c-.783-.784-1.091-1.75-1.228-2.769-.128-.952-.128-2.144-.128-3.535v-.722c0-1.389 0-2.58.127-3.532.135-1.016.44-1.984 1.219-2.768l.005-.006ZM4.383 4.39c-.91.916-.91 2.396-.91 5.342v.524c0 2.952 0 4.425.916 5.342.917.91 2.397.91 5.344.91h.524c2.947 0 4.433 0 5.344-.91.91-.917.91-2.396.91-5.342v-.524c0-2.946 0-4.432-.91-5.343-.917-.91-2.397-.91-5.344-.91h-.524c-2.953 0-4.427 0-5.35.91ZM10 10.006a2.409 2.409 0 0 1-2.4-2.402c0-.67.274-1.273.705-1.698a2.396 2.396 0 0 1 3.39.001 2.4 2.4 0 0 1 .706 1.696c0 .665-.275 1.267-.705 1.698a2.396 2.396 0 0 1-1.696.705Zm-.713-3.13c-.179.185-.3.44-.3.721a1.019 1.019 0 0 0 1.74.722 1.019 1.019 0 0 0 0-1.442 1.016 1.016 0 0 0-1.44 0Zm3.861 4.37.003-.002c.056-.028.083-.065.093-.1a.134.134 0 0 0-.03-.123l-.689-.956a.163.163 0 0 0-.242-.022c-.641.556-1.434.917-2.285.917-.852 0-1.639-.362-2.286-.918a.176.176 0 0 0-.239.02l-.003.003-.69.957a.167.167 0 0 0 .019.216l.004.003c.57.466 1.23.79 1.917.965l-1.427 2.547c-.059.108.022.246.139.246H8.86a.15.15 0 0 0 .148-.11l.97-2.197.972 2.2a.16.16 0 0 0 .148.107h1.427c.126 0 .198-.127.14-.244l-.002-.003-1.428-2.546a4.81 4.81 0 0 0 1.915-.96Z" clip-rule="evenodd"/></svg>
