<svg xmlns="http://www.w3.org/2000/svg" width="20" height="20" fill="currentColor" viewBox="0 0 20 20"><path fill-rule="evenodd" d="M8.35 2h-.033c-.952 0-1.713 0-2.327.05-.63.052-1.172.16-1.67.413a4.25 4.25 0 0 0-1.857 1.858c-.253.497-.361 1.04-.413 1.67C2 6.603 2 7.364 2 8.316v3.367c0 .952 0 1.713.05 2.327.052.63.16 1.172.413 1.67a4.25 4.25 0 0 0 1.858 1.857c.497.253 1.04.361 1.67.413.613.05 1.374.05 2.326.05h3.366c.952 0 1.713 0 2.327-.05.63-.052 1.172-.16 1.67-.413a4.251 4.251 0 0 0 1.857-1.857c.253-.498.361-1.04.413-1.67.05-.614.05-1.375.05-2.327V8.317c0-.952 0-1.713-.05-2.327-.052-.63-.16-1.172-.413-1.67a4.25 4.25 0 0 0-1.857-1.857c-.498-.253-1.04-.361-1.67-.413C13.396 2 12.635 2 11.683 2H8.35ZM5.002 3.8c.25-.128.573-.21 1.11-.255l.251-.017a.382.382 0 0 0-.017.114c0 .355.492.641 1.475 1.213l.093.055c.983.572 1.475.858 2.086.858.61 0 1.102-.286 2.086-.858l.093-.055c.983-.572 1.475-.858 1.475-1.213a.382.382 0 0 0-.017-.114c.087.005.17.01.25.017.538.044.86.127 1.111.255A2.75 2.75 0 0 1 16.2 5.002c.128.25.21.573.255 1.11.044.546.045 1.246.045 2.238v3.3c0 .992 0 1.692-.045 2.238-.044.537-.127.86-.255 1.11A2.751 2.751 0 0 1 15 16.2c-.252.128-.574.21-1.111.255-.546.044-1.245.045-2.238.045h-3.3c-.992 0-1.692 0-2.238-.045-.537-.044-.86-.127-1.11-.255A2.75 2.75 0 0 1 3.8 15c-.128-.252-.21-.574-.255-1.111-.044-.546-.045-1.245-.045-2.238v-3.3c0-.992 0-1.692.045-2.238.044-.537.127-.86.255-1.11A2.75 2.75 0 0 1 5.002 3.8Zm2.202 2.12c.994.575 1.492.862 1.8 1.397.31.535.31 1.109.31 2.257v.11c0 1.148 0 1.722-.31 1.9-.308.178-.806-.109-1.8-.683l-.094-.054c-.995-.574-1.492-.862-1.801-1.397C5 8.916 5 8.342 5 7.194v-.11c0-1.147 0-1.722.309-1.9.309-.178.806.109 1.8.683l.095.054Zm5.592 0 .094-.054c.995-.574 1.492-.861 1.801-.683.309.178.309.753.309 1.9v.11c0 1.148 0 1.722-.309 2.257-.309.536-.806.823-1.8 1.397l-.095.054c-.994.574-1.492.861-1.8.683-.31-.178-.31-.752-.31-1.9v-.11c0-1.148 0-1.722.31-2.257.308-.535.806-.822 1.8-1.397Z" clip-rule="evenodd"/></svg>
