<svg xmlns="http://www.w3.org/2000/svg" width="20" height="20" fill="currentColor" viewBox="0 0 20 20"><path fill-rule="evenodd" d="M5.367 7.27a1.437 1.437 0 0 1-.664.384c-.192.04-.375.017-.577-.184-.15-.15-.227-.365-.146-.73.085-.387.341-.872.774-1.377.868-1.013 2.267-1.904 3.663-2.122a.75.75 0 1 0-.232-1.482c-1.808.282-3.513 1.391-4.572 2.628-.53.62-.944 1.323-1.1 2.03-.098.445-.095.91.06 1.343a.749.749 0 0 0-.504.324c-1.035 1.551-.424 3.197 0 3.832a.748.748 0 0 0 .42.305 2.69 2.69 0 0 0-.01 1.478c.19.723.632 1.397 1.15 1.963a7.837 7.837 0 0 0 1.812 1.451c.64.372 1.339.65 1.984.714 1.205.12 2.06-.243 2.62-.804.531-.53.728-1.163.794-1.495a7.61 7.61 0 0 0 .115-2.217c-.055-.567-.169-1.019-.265-1.236-.019-.041-.038-.089-.06-.14-.153-.374-.402-.983-1.19-1.545a.749.749 0 0 0-.453-.14 1.25 1.25 0 1 0-.712.935.747.747 0 0 0 .291.425c.267.19.403.361.491.508.073.12.111.213.164.34.026.064.057.137.097.228v.003c.006.017.028.081.055.201.031.14.065.333.087.566a6.116 6.116 0 0 1-.092 1.777 1.486 1.486 0 0 1-.383.73c-.215.214-.612.451-1.41.371-.355-.035-.845-.208-1.378-.517a6.336 6.336 0 0 1-1.458-1.168c-.42-.459-.699-.922-.806-1.33-.1-.383-.052-.7.164-.988.003-.003.019-.022.054-.05a.924.924 0 0 1 .281-.145.305.305 0 0 1 .025-.006.594.594 0 0 1 .317.107c.083.058.144.12.255.233l.139.14a.748.748 0 0 0 .495.22 1.25 1.25 0 1 0 .77-.59.749.749 0 0 0-.203-.69 7.28 7.28 0 0 1-.091-.093c-.289-.3-.73-.759-1.584-.824-.36-.028-.71.102-.95.225a2.454 2.454 0 0 0-.308.19c-.24-.39-.526-1.31.023-2.132a.753.753 0 0 0 .064-.118 2.054 2.054 0 0 0 1.632.323c.591-.125 1.09-.468 1.414-.79a.747.747 0 0 0 .22-.535 1.25 1.25 0 1 0-1.024-.695.748.748 0 0 0-.258.169Zm5.266-2.504c.034-.168.138-.484.383-.729.215-.214.612-.451 1.41-.371.355.035.845.208 1.378.517a6.335 6.335 0 0 1 1.458 1.168c.42.459.699.922.806 1.33.1.383.052.7-.164.988a.414.414 0 0 1-.054.05.921.921 0 0 1-.281.145.291.291 0 0 1-.025.006.594.594 0 0 1-.318-.107 1.82 1.82 0 0 1-.254-.234l-.139-.14a.748.748 0 0 0-.495-.219 1.25 1.25 0 1 0-.77.59.749.749 0 0 0 .203.69c.029.028.06.06.091.093.288.3.73.759 1.584.824.36.028.71-.102.95-.225.1-.052.206-.116.308-.19.24.39.526 1.31-.023 2.132a.748.748 0 0 0-.064.117 2.054 2.054 0 0 0-1.632-.322c-.591.125-1.09.468-1.414.79a.747.747 0 0 0-.22.535 1.25 1.25 0 1 0 1.024.695.75.75 0 0 0 .258-.169c.177-.177.429-.334.664-.384.192-.04.375-.017.577.184.15.15.227.365.146.73-.085.387-.341.872-.774 1.377-.868 1.013-2.267 1.904-3.663 2.122a.75.75 0 1 0 .232 1.482c1.808-.282 3.513-1.391 4.572-2.628.53-.62.944-1.323 1.1-2.03a2.43 2.43 0 0 0-.06-1.343.749.749 0 0 0 .503-.324c1.036-1.551.425-3.197 0-3.832a.748.748 0 0 0-.419-.305c.15-.49.136-.996.01-1.478-.19-.723-.632-1.397-1.15-1.963a7.836 7.836 0 0 0-1.812-1.451c-.64-.372-1.339-.65-1.984-.714-1.205-.12-2.06.243-2.62.804a2.985 2.985 0 0 0-.794 1.495 7.614 7.614 0 0 0-.115 2.217c.055.567.169 1.019.265 1.235.019.042.038.09.06.142.153.373.402.982 1.19 1.544a.748.748 0 0 0 .453.14 1.25 1.25 0 1 0 .712-.935.747.747 0 0 0-.291-.425 1.675 1.675 0 0 1-.655-.848 8.342 8.342 0 0 0-.098-.23c-.005-.018-.027-.082-.054-.202a4.696 4.696 0 0 1-.088-.566 6.117 6.117 0 0 1 .093-1.778Zm5.271 2.903Z" clip-rule="evenodd"/></svg>
