<svg xmlns="http://www.w3.org/2000/svg" width="20" height="20" fill="currentColor" viewBox="0 0 20 20"><path fill-rule="evenodd" d="M10.37 2h1.312c.952 0 1.713 0 2.327.05.63.052 1.172.16 1.67.413a4.25 4.25 0 0 1 1.857 1.858c.253.497.361 1.04.413 1.67.05.613.05 1.374.05 2.326v3.366c0 .952 0 1.713-.05 2.327-.052.63-.16 1.172-.413 1.67a4.25 4.25 0 0 1-1.857 1.857c-.498.253-1.04.361-1.67.413-.614.05-1.375.05-2.327.05H8.317c-.952 0-1.713 0-2.327-.05-.63-.052-1.172-.16-1.67-.413a4.25 4.25 0 0 1-1.857-1.857c-.253-.498-.361-1.04-.413-1.67C2 13.396 2 12.635 2 11.683V8.317c0-.952 0-1.713.05-2.327.052-.63.16-1.172.413-1.67a4.25 4.25 0 0 1 1.858-1.857c.497-.253 1.04-.361 1.67-.413C6.603 2 7.364 2 8.316 2h2.052ZM5.001 3.8c.226-.116.51-.194.958-.24a4.237 4.237 0 0 0-.794 1.513C5 5.652 5 6.333 5 7.37v5.708c0 .622 0 1.03.06 1.384a4.25 4.25 0 0 0 .9 1.979c-.448-.047-.732-.125-.958-.24A2.75 2.75 0 0 1 3.8 14.997c-.128-.25-.21-.573-.255-1.11-.044-.546-.045-1.245-.045-2.238v-3.3c0-.992 0-1.692.045-2.238.044-.537.127-.86.255-1.11A2.75 2.75 0 0 1 5.002 3.8Zm3.788 12.66c.213.036.483.039 1.211.039h1.65c.992 0 1.692 0 2.238-.045.537-.044.86-.127 1.11-.255A2.751 2.751 0 0 0 16.2 15c.128-.252.21-.574.255-1.111.044-.546.045-1.245.045-2.238v-3.3c0-.992 0-1.692-.045-2.238-.044-.537-.127-.86-.255-1.11A2.75 2.75 0 0 0 15 3.8c-.252-.128-.574-.21-1.111-.255-.546-.044-1.245-.045-2.238-.045H10.5c-1.215 0-1.664.007-2.011.107A2.75 2.75 0 0 0 6.607 5.49c-.1.347-.107.796-.107 2.011V13c0 .728.003.998.039 1.21a2.75 2.75 0 0 0 2.25 2.251Zm2.75-9.327.027.016 1.847 1.087.027.016c.303.178.572.336.776.483.21.15.442.352.572.65.171.391.171.837 0 1.229-.13.297-.363.498-.572.649-.204.147-.473.305-.776.483l-.027.016-1.847 1.087-.027.016c-.303.178-.572.337-.799.444-.23.107-.528.22-.865.183a1.54 1.54 0 0 1-1.09-.637c-.188-.263-.24-.564-.262-.817-.023-.25-.023-.564-.023-.922V8.883c0-.358 0-.672.023-.922.022-.253.075-.554.262-.817a1.54 1.54 0 0 1 1.09-.637c.337-.036.636.076.865.183.227.107.496.266.799.444Zm-1.533.756a.117.117 0 0 0-.043.03.928.928 0 0 0-.025.162c-.017.182-.017.434-.017.831v2.174c0 .397 0 .649.017.831a.86.86 0 0 0 .025.162.113.113 0 0 0 .043.03.895.895 0 0 0 .117-.048c.16-.075.37-.198.71-.397l1.846-1.087c.338-.2.55-.324.693-.428a.904.904 0 0 0 .116-.094.185.185 0 0 0 0-.112.9.9 0 0 0-.116-.094 10.204 10.204 0 0 0-.693-.428l-1.847-1.087c-.339-.199-.55-.322-.709-.397a1.039 1.039 0 0 0-.117-.048Z" clip-rule="evenodd"/></svg>
