<svg xmlns="http://www.w3.org/2000/svg" width="20" height="20" fill="none" viewBox="0 0 20 20"><path fill="currentColor" d="M10.5405 13.2c-3.2768 0-5.2648-2.2903-5.3427-6.1h1.6596c.0517 2.7985 1.3143 3.9814 2.2821 4.2253V7.1H10.73v2.4166c.9335-.1043 1.9107-1.2043 2.2391-2.4166h1.5654c-.2505 1.4907-1.3143 2.5859-2.0659 3.0391.7522.3662 1.9625 1.3263 2.4292 3.0609h-1.7206c-.3633-1.1595-1.2533-2.0529-2.4467-2.1748V13.2h-.19Z"/><path fill="currentColor" fill-rule="evenodd" d="M7.0822 2c-1.7754 0-2.421.1804-3.0705.5277-.6398.3422-1.1418.8443-1.484 1.484C2.1804 4.6612 2 5.3068 2 7.0822v5.8356c0 1.7754.1804 2.421.5277 3.0705.3422.6398.8443 1.1418 1.484 1.484.6495.3473 1.2951.5277 3.0705.5277h5.8356c1.7754 0 2.421-.1804 3.0705-.5277.6398-.3422 1.1418-.8442 1.484-1.484.3473-.6495.5277-1.2951.5277-3.0705V7.0822c0-1.7754-.1804-2.421-.5277-3.0705-.3422-.6398-.8442-1.1418-1.484-1.484C15.3388 2.1804 14.6932 2 12.9178 2H7.0822ZM4.719 3.8505c.3397-.1817.703-.3505 2.363-.3505h5.8357c1.6601 0 2.0234.1688 2.3631.3505.3784.2023.6663.4903.8686.8686.1817.3397.3505.703.3505 2.363v5.8357c0 1.6601-.1688 2.0234-.3505 2.3631-.2023.3784-.4902.6663-.8686.8686-.3397.1817-.703.3505-2.3631.3505H7.0822c-1.66 0-2.0234-.1688-2.3631-.3505-.3784-.2023-.6663-.4902-.8686-.8686-.1817-.3397-.3505-.703-.3505-2.3631V7.0822c0-1.66.1688-2.0234.3505-2.3631.2023-.3784.4903-.6663.8686-.8686Z" clip-rule="evenodd"/></svg>
