<svg xmlns="http://www.w3.org/2000/svg" width="20" height="20" fill="currentColor" viewBox="0 0 20 20"><path fill-rule="evenodd" d="M8.519 2h-.022c-.189 0-.314 0-.439.007a4.284 4.284 0 0 0-1.935.593 6.276 6.276 0 0 0-.369.24l-.018.012a.75.75 0 0 0-.203 1.04.748.748 0 0 0 1.039.204c.18-.122.247-.167.313-.205.384-.228.816-.36 1.26-.386.076-.005.156-.005.374-.005h3.03c1.01 0 1.723 0 2.28.047.547.045.877.13 1.134.263.53.272.961.708 1.232 1.246.132.262.217.598.262 1.153.045.564.046 1.285.046 2.307v5.006c0 .284-.044.565-.131.833a.748.748 0 1 0 1.424.462c.135-.417.204-.854.204-1.295V8.483c0-.981 0-1.763-.05-2.395-.053-.646-.163-1.2-.419-1.708a4.334 4.334 0 0 0-1.883-1.904c-.505-.26-1.056-.371-1.697-.424C13.326 2 12.551 2 11.581 2H8.52Zm-5.739.844a.747.747 0 0 0-1.058-.005.751.751 0 0 0-.005 1.06l.729.738c-.324.705-.447 1.49-.447 3.047v4.747c0 1.756.157 2.53.582 3.315.378.7.938 1.253 1.646 1.627.795.42 1.578.575 3.355.575h4.803c1.425 0 2.21-.1 2.876-.355l.678.685a.748.748 0 0 0 1.058.005.751.751 0 0 0 .005-1.06L2.78 2.842ZM14.1 16.419l-3.185-3.22a6.63 6.63 0 0 1-.466.25c-.233.11-.537.225-.88.188a1.565 1.565 0 0 1-1.11-.653c-.191-.27-.244-.578-.267-.837a11.551 11.551 0 0 1-.023-.946v-.779L6.354 8.588v3.843c0 1.675.154 2.165.41 2.639a2.5 2.5 0 0 0 1.051 1.038c.48.254.976.406 2.67.406h1.9c.794 0 1.325-.034 1.715-.095ZM4.909 7.126 3.584 5.788c-.086.4-.133.964-.133 1.896v4.747c0 1.675.153 2.165.41 2.639.243.45.596.798 1.05 1.038.271.143.547.254 1.04.323a3.996 3.996 0 0 1-.467-.685c-.425-.785-.582-1.56-.582-3.316V7.684c0-.198.002-.383.007-.558Zm6.03-1.28c-.981-.484-2.132.137-2.294 1.208a.75.75 0 1 0 1.48.224.106.106 0 0 1 .145-.089l.032.021c.04.026.091.063.174.12l2.25 1.576c.28.196.447.315.561.41.045.039.07.063.08.076a.122.122 0 0 1 .001.055.859.859 0 0 1-.08.076c-.111.099-.277.22-.553.422a.751.751 0 0 0-.164 1.048.748.748 0 0 0 1.045.165l.025-.018c.243-.178.465-.34.634-.488.178-.156.373-.36.484-.646.15-.386.145-.816-.012-1.2-.115-.283-.314-.483-.495-.636a9.525 9.525 0 0 0-.644-.476l-.025-.017-2.25-1.576-.036-.026a3.006 3.006 0 0 0-.359-.228Z" clip-rule="evenodd"/></svg>
