<svg xmlns="http://www.w3.org/2000/svg" width="20" height="20" fill="currentColor" viewBox="0 0 20 20"><path fill-rule="evenodd" d="M8.317 2h3.366c.952 0 1.713 0 2.327.05.63.052 1.172.16 1.67.413a4.25 4.25 0 0 1 1.857 1.858c.253.497.361 1.04.413 1.67.05.613.05 1.374.05 2.326v3.366c0 .952 0 1.713-.05 2.327-.052.63-.16 1.172-.413 1.67a4.251 4.251 0 0 1-1.857 1.857c-.498.253-1.04.361-1.67.413-.614.05-1.375.05-2.327.05H8.317c-.952 0-1.713 0-2.327-.05-.63-.052-1.172-.16-1.67-.413a4.25 4.25 0 0 1-1.857-1.857c-.253-.498-.361-1.04-.413-1.67C2 13.396 2 12.635 2 11.683V8.317c0-.952 0-1.713.05-2.327.052-.63.16-1.172.413-1.67a4.25 4.25 0 0 1 1.858-1.857c.497-.253 1.04-.361 1.67-.413C6.603 2 7.364 2 8.316 2ZM6.112 3.545c-.537.044-.86.127-1.11.255A2.75 2.75 0 0 0 3.8 5.002c-.128.25-.21.573-.255 1.11-.044.546-.045 1.246-.045 2.238v3.3c0 .992 0 1.692.045 2.238.044.537.127.86.255 1.11A2.75 2.75 0 0 0 5.002 16.2c.25.128.573.21 1.11.255.546.044 1.246.045 2.238.045h3.3c.992 0 1.692 0 2.238-.045.537-.044.86-.127 1.11-.255a2.75 2.75 0 0 0 1.2-1.197h-3.23c-.949 0-1.745 0-2.352-.09-.632-.094-1.256-.311-1.636-.916A1.784 1.784 0 0 1 8.71 13a6.931 6.931 0 0 1-.96-.096c-.506-.094-1.004-.29-1.347-.75a2.152 2.152 0 0 1-.253-.437c-.26-.605-.117-1.213.11-1.764.223-.539.6-1.192 1.052-1.976l.028-.047.027-.048c.452-.783.83-1.437 1.185-1.899.364-.472.819-.9 1.473-.977.168-.02.338-.02.505 0 .47.056.84.294 1.145.599.051.051.102.106.152.163l.98-2.034.004-.01.105-.217A89.198 89.198 0 0 0 11.65 3.5h-3.3c-.992 0-1.692 0-2.238.045Zm4.979 3.75a3.989 3.989 0 0 0-.479-.632c-.15-.15-.225-.165-.259-.168a.65.65 0 0 0-.153 0c-.043.005-.174.03-.46.402-.287.373-.615.939-1.102 1.782-.487.843-.812 1.41-.992 1.845-.179.434-.136.56-.119.6a.65.65 0 0 0 .077.132c.022.03.091.111.42.173.26.048.6.07 1.068.081.187-.453.434-.966.711-1.542l.027-.055 1.26-2.619ZM16.5 11.65c0 .774 0 1.37-.022 1.853h-3.45c-1.025 0-1.709-.002-2.192-.073-.472-.07-.554-.18-.586-.23-.031-.051-.095-.173.047-.628.145-.467.44-1.084.884-2.008l2.976-6.18c.13-.272.25-.522.363-.75.193.043.346.098.479.166A2.75 2.75 0 0 1 16.2 5.002c.128.25.21.573.255 1.11.044.546.045 1.246.045 2.238v3.3Z" clip-rule="evenodd"/></svg>
