<svg fill="none" height="20" viewBox="0 0 20 20" width="20" xmlns="http://www.w3.org/2000/svg"><path clip-rule="evenodd" d="m3.12471 3.12471c-1.12471 1.12471-1.12471 2.9349-1.12471 6.55529v.64c0 3.6204 0 5.4306 1.12471 6.5553s2.9349 1.1247 6.55529 1.1247h.64c3.6204 0 5.4306 0 6.5553-1.1247s1.1247-2.9349 1.1247-6.5553v-.64c0-3.62039 0-5.43058-1.1247-6.55529s-2.9349-1.12471-6.5553-1.12471h-.64c-3.62039 0-5.43058 0-6.55529 1.12471zm1.57532 3.87529c.08688 4.185 2.17206 6.7 5.82787 6.7h.2072v-2.3943c1.3433.1341 2.3591 1.12 2.7668 2.3943h1.8981c-.5213-1.9047-1.8914-2.9577-2.7469-3.3601.8555-.49627 2.0585-1.70346 2.3459-3.3399h-1.7244c-.3743 1.32793-1.4836 2.53513-2.5395 2.64914v-2.64914h-1.72437v4.641c-1.06933-.2682-2.41933-1.5693-2.47948-4.641z" fill="currentColor" fill-rule="evenodd"/></svg>
