<svg xmlns="http://www.w3.org/2000/svg" width="20" height="20" fill="currentColor" viewBox="0 0 20 20"><path fill-rule="evenodd" d="M8.317 2h3.366c.952 0 1.713 0 2.327.05.63.052 1.172.16 1.67.413a4.25 4.25 0 0 1 1.857 1.858c.253.497.361 1.04.413 1.67.05.613.05 1.374.05 2.326v3.366c0 .952 0 1.713-.05 2.327-.052.63-.16 1.172-.413 1.67a4.25 4.25 0 0 1-1.857 1.857c-.498.253-1.04.361-1.67.413-.614.05-1.375.05-2.327.05H8.317c-.952 0-1.713 0-2.327-.05-.63-.052-1.172-.16-1.67-.413a4.25 4.25 0 0 1-1.857-1.858c-.253-.497-.361-1.04-.413-1.67C2 13.397 2 12.636 2 11.684V8.317c0-.952 0-1.713.05-2.327.052-.63.16-1.172.413-1.67a4.25 4.25 0 0 1 1.858-1.857c.497-.253 1.04-.361 1.67-.413C6.603 2 7.364 2 8.316 2ZM10 5.5A1.5 1.5 0 0 1 11.5 7h-3A1.5 1.5 0 0 1 10 5.5ZM6.6 7H7a3 3 0 0 1 6 0h.4c.56 0 .84 0 1.054.109a1 1 0 0 1 .437.437C15 7.76 15 8.04 15 8.6V11c0 1.4 0 2.1-.273 2.635a2.5 2.5 0 0 1-1.092 1.092C13.1 15 12.4 15 11 15H9c-1.4 0-2.1 0-2.635-.273a2.5 2.5 0 0 1-1.093-1.092C5 13.1 5 12.4 5 11V8.6c0-.56 0-.84.109-1.054a1 1 0 0 1 .437-.437C5.76 7 6.04 7 6.6 7ZM7 9.25a.75.75 0 1 1 1.5 0 .75.75 0 0 1-1.5 0Zm5.25-.75a.75.75 0 1 0 0 1.5.75.75 0 0 0 0-1.5Z" clip-rule="evenodd"/></svg>
