<svg xmlns="http://www.w3.org/2000/svg" width="20" height="20" fill="currentColor" viewBox="0 0 20 20"><path fill-rule="evenodd" d="M9.503 2.155A.934.934 0 0 1 10.002 2c.245 0 .428.11.5.155.094.06.178.133.248.2.143.137.293.315.443.519.303.41.65.983.98 1.676.32.675.628 1.478.86 2.372a6.67 6.67 0 0 1 2.958-1.31 2.81 2.81 0 0 1 .419-.037c.06 0 .139.003.221.017.041.007.1.02.166.045a.797.797 0 0 1 .285.183c.204.204.264.468.287.583.03.155.042.323.045.486.006.33-.025.726-.08 1.132-.065.474-.17 1.006-.315 1.498.273.02.517.05.725.085.181.03.345.068.481.11.068.02.14.045.209.076a1 1 0 0 1 .276.18.89.89 0 0 1 .244.42c.03.112.038.218.038.305a2.25 2.25 0 0 1-.074.543c-.092.37-.274.82-.56 1.305-.573.977-1.588 2.146-3.233 3.17l-.008.005-.009.005a33.878 33.878 0 0 1-2.918 1.488c-.473.214-.912.4-1.263.535a7.238 7.238 0 0 1-.475.166c-.103.031-.274.08-.44.085h-.025a1.758 1.758 0 0 1-.44-.085 7.37 7.37 0 0 1-.474-.166c-.352-.134-.79-.32-1.263-.535a33.872 33.872 0 0 1-2.918-1.488l-.01-.005-.008-.005c-1.645-1.024-2.66-2.193-3.233-3.17a5.089 5.089 0 0 1-.56-1.305 2.235 2.235 0 0 1-.074-.543c0-.087.009-.193.038-.304a.891.891 0 0 1 .521-.601c.07-.031.141-.056.209-.077.137-.042.301-.079.483-.11.208-.036.452-.067.725-.086A10.562 10.562 0 0 1 2.67 8.02a7.669 7.669 0 0 1-.08-1.132 2.88 2.88 0 0 1 .045-.486c.023-.115.083-.379.287-.583a.794.794 0 0 1 .473-.23c.085-.012.165-.012.226-.01.127.005.27.025.418.054.299.058.68.166 1.095.332a7.13 7.13 0 0 1 1.802 1.04c.237-.928.557-1.76.89-2.458.33-.693.68-1.266.984-1.676a4.12 4.12 0 0 1 .444-.518c.07-.067.155-.139.25-.2Zm-.325 3.04c-.59 1.237-1.127 2.937-1.127 4.8s.54 3.56 1.132 4.796c.287.6.58 1.076.816 1.398.235-.322.526-.798.811-1.397.59-1.236 1.127-2.934 1.127-4.796 0-1.865-.533-3.566-1.12-4.803A8.945 8.945 0 0 0 10 3.783a8.944 8.944 0 0 0-.823 1.411Zm-4.61 4.338c-.18-.455-.331-1.101-.416-1.718a7.495 7.495 0 0 1-.06-.622c.145.043.31.099.487.17.668.266 1.448.72 2.037 1.414-.04.371-.062.752-.065 1.14a9.813 9.813 0 0 0-1.982-.384Zm2.088 2.008a8.331 8.331 0 0 0-3-.546c-.428 0-.792.034-1.063.076.067.19.175.432.338.71.447.761 1.284 1.753 2.723 2.65.656.383 1.481.806 2.257 1.173a13.209 13.209 0 0 1-1.255-4.063Zm9.195-3.726c-.085.62-.239 1.27-.42 1.726a9.817 9.817 0 0 0-1.994.396c-.002-.43-.028-.85-.075-1.259.582-.688 1.36-1.117 2.03-1.36.19-.068.367-.12.521-.158-.008.19-.03.413-.062.655Zm-3.687 7.623a13.253 13.253 0 0 0 1.166-3.872A8.333 8.333 0 0 1 16.357 11c.422 0 .781.031 1.049.072-.067.19-.174.432-.337.71-.447.76-1.285 1.752-2.723 2.648a30.68 30.68 0 0 1-2.264 1.177l.082-.17ZM15.9 6.69a.076.076 0 0 0-.004-.018s0 .007.004.018Zm-12.344.39h.002-.002Zm.549-.39a.072.072 0 0 1 .004-.018s0 .007-.004.018Z" clip-rule="evenodd"/></svg>
