<svg fill="none" height="20" viewBox="0 0 20 20" width="20" xmlns="http://www.w3.org/2000/svg"><g fill="currentColor"><path d="m6 3.5c0-.82843.67157-1.5 1.5-1.5h5c.8284 0 1.5.67157 1.5 1.5z"/><path clip-rule="evenodd" d="m4.01169 5.46883c.64953-.3086 1.29511-.46883 3.07049-.46883h5.83562c1.7754 0 2.421.16023 3.0705.46883.6398.30394 1.1418.74997 1.484 1.3183.3473.57703.5277 1.15055.5277 2.72774v2.97023c0 1.5772-.1804 2.1507-.5277 2.7278-.3422.5683-.8442 1.0143-1.484 1.3183-.6495.3086-1.2951.4688-3.0705.4688h-5.83562c-1.77538 0-2.42096-.1602-3.07049-.4688-.63974-.304-1.14181-.75-1.48395-1.3183-.34737-.5771-.52774-1.1506-.52774-2.7278v-2.97023c0-1.57719.18037-2.15071.52774-2.72774.34214-.56833.84421-1.01436 1.48395-1.3183zm9.32481 5.00527 2.874-2.87394c.0899.15437.145.28417.1893.49037.0563.26247.1002.67948.1002 1.42434v2.97023c0 .7449-.0439 1.1619-.1002 1.4244-.048.2234-.1088.3572-.2126.5297-.1797.2984-.4502.5507-.8426.7371-.3603.1712-.75.3237-2.4268.3237h-5.83562c-1.6768 0-2.06648-.1525-2.42678-.3237-.3924-.1864-.66292-.4387-.84256-.7371-.10387-.1725-.16466-.3063-.2126-.5297-.05629-.2625-.10024-.6795-.10024-1.4244v-2.97023c0-.74486.04395-1.16187.10024-1.42434.04423-.20619.09941-.336.18926-.49037l2.87396 2.87394c.47614.4762.86555.8656 1.20788 1.1562.35434.3008.70728.5396 1.12435.6751.65275.2121 1.35591.2121 2.00861 0 .4171-.1355.77-.3743 1.1244-.6751.3423-.2906.7317-.68 1.2078-1.1562zm-5.6346-1.08286c.50377.50377.85012.84926 1.14021 1.09556.28338.2406.46336.3421.61711.392.35148.1142.73008.1142 1.08158 0 .1537-.0499.3337-.1514.6171-.392.2901-.2463.6364-.59179 1.1402-1.09556l2.7053-2.70529c-.3425-.10751-.883-.18595-2.0856-.18595h-5.83562c-1.20256 0-1.7431.07844-2.08557.18595z" fill-rule="evenodd"/></g></svg>
