<svg xmlns="http://www.w3.org/2000/svg" width="20" height="20" fill="none" viewBox="0 0 20 20"><path fill="currentColor" fill-rule="evenodd" d="M6.5774 2.5h6.8452c1.7737 0 2.4187.1806 3.0676.5283.6391.3425 1.1407.8451 1.4826 1.4855.347.6502.5272 1.2965.5272 3.0738v4.8248c0 1.7773-.1802 2.4236-.5272 3.0738-.3419.6404-.8435 1.143-1.4826 1.4855-.6489.3477-1.2939.5283-3.0676.5283H6.5774c-1.7737 0-2.4187-.1806-3.0676-.5283-.6391-.3425-1.1407-.8451-1.4825-1.4855-.3471-.6502-.5273-1.2965-.5273-3.0738V7.5876c0-1.7773.1802-2.4236.5272-3.0738.3419-.6404.8435-1.143 1.4826-1.4855.649-.3477 1.294-.5283 3.0676-.5283ZM3 12.4124V7.5876c0-1.5976.1558-1.9964.3294-2.3275L7.793 9.7237c.2796.2796.5208.5208.7356.7032.2268.1925.4732.3632.776.4616a2.249 2.249 0 0 0 1.3907 0c.3029-.0984.5492-.2691.776-.4616.2149-.1824.4561-.4236.7356-.7032L16.6706 5.26c.1736.331.3294.7298.3294 2.3275v4.8248c0 1.6623-.1687 2.0267-.3505 2.3675-.2024.3792-.4903.6674-.8678.8697-.3388.1815-.701.3504-2.3591.3504H6.5774c-1.658 0-2.0203-.1689-2.359-.3504-.3776-.2023-.6654-.4905-.8678-.8697C3.1686 14.4391 3 14.0747 3 12.4124ZM13.4226 4H6.5774c-1.3261 0-1.8233.108-2.1426.2442l4.3984 4.3984c.3058.3058.5037.5028.6662.6408.1558.1323.2292.1657.2688.1786a.75.75 0 0 0 .4635 0c.0396-.0129.113-.0463.2689-.1786.1625-.138.3603-.335.6661-.6408l4.3985-4.3984C15.2459 4.108 14.7487 4 13.4226 4Z" clip-rule="evenodd"/></svg>
