<svg xmlns="http://www.w3.org/2000/svg" width="20" height="20" fill="currentColor" viewBox="0 0 20 20"><path fill-rule="evenodd" d="m15.246 5.189-.73-.658c-.462-.416-.743-.668-.968-.84a1.82 1.82 0 0 0-.252-.165l-.006-.002-.002-.001a.7.7 0 0 0-.423.015h-.002l-.006.003a1.83 1.83 0 0 0-.24.182c-.212.188-.475.458-.907.906l-4.914 5.09 3.686 3.394 4.863-5.017c.46-.476.741-.767.933-1.001.15-.184.184-.259.188-.271a.7.7 0 0 0-.015-.442c-.005-.012-.043-.085-.205-.258-.208-.22-.508-.492-1-.935ZM9.437 14.19 5.754 10.8c-.618.641-.788.834-.909 1.036a2.5 2.5 0 0 0-.286.709c-.057.242-.066.516-.066 1.54v.863a.5.5 0 0 0 .208.387c-.002 0 0 .001.013.01l.067.044.038.026.006.004h.002c.078.05.167.077.26.079-.001 0-.002 0 0 0h.008l1.02-.004c1.068-.004 1.353-.015 1.604-.077.258-.064.505-.169.73-.31.2-.127.389-.303.987-.917Zm2.925-12.065c-.487.173-.902.603-1.73 1.462L4.787 9.64c-.663.687-.994 1.03-1.231 1.428a4 4 0 0 0-.458 1.134c-.106.45-.106.928-.106 1.883v.766l.001.15a2 2 0 0 0 .028.27L1.66 16.634c-.429.429-.643.643-.657.827a.5.5 0 0 0 .173.42c.14.119.443.119 1.05.119h1.437c.122 0 .183 0 .24-.014a.502.502 0 0 0 .145-.06c.05-.03.094-.074.18-.16l.77-.77a2.103 2.103 0 0 0 .15.002l.975-.004c.994-.003 1.492-.005 1.958-.12a4.034 4.034 0 0 0 1.17-.498c.406-.256.752-.613 1.444-1.327l5.728-5.91c.886-.914 1.33-1.37 1.483-1.89a2.2 2.2 0 0 0-.047-1.389c-.189-.507-.662-.933-1.608-1.786l-.73-.658c-.888-.8-1.331-1.199-1.829-1.338a2.2 2.2 0 0 0-1.33.047Z" clip-rule="evenodd"/></svg>
