<svg fill="none" height="20" viewBox="0 0 20 20" width="20" xmlns="http://www.w3.org/2000/svg"><path clip-rule="evenodd" d="m7.25 5.75c0-1.51878 1.23122-2.75 2.75-2.75 1.5188 0 2.75 1.23122 2.75 2.75v.25h-5.5zm-1.5.25419v-.25419c0-2.34721 1.90279-4.25 4.25-4.25 2.3472 0 4.25 1.90279 4.25 4.25v.25419c1.0126.01373 1.6205.07235 2.112.32279.5645.28762 1.0234.74656 1.311 1.31105.327.64173.327 1.48181.327 3.16197v.5c0 2.5202 0 3.7804-.4905 4.743-.4314.8467-1.1198 1.5351-1.9665 1.9665-.9626.4905-2.2228.4905-4.743.4905h-1.6c-2.52024 0-3.78035 0-4.74296-.4905-.84673-.4314-1.53514-1.1198-1.96657-1.9665-.49047-.9626-.49047-2.2228-.49047-4.743v-.5c0-1.68016 0-2.52024.32698-3.16197.28762-.56449.74656-1.02343 1.31105-1.31105.49152-.25044 1.09939-.30906 2.11197-.32279zm-.79825 1.5317c.42501-.03472.98342-.03589 1.84825-.03589h6.4c.8648 0 1.4232.00117 1.8482.03589.4075.03329.5586.08981.6328.1276.2822.14381.5117.37328.6555.65553.0378.07416.0943.22524.1276.63273.0347.42501.0359.98342.0359 1.84825v.5c0 1.2849-.0012 2.1583-.0563 2.8334-.0538.6577-.1511.994-.2707 1.2286-.2876.5645-.7465 1.0234-1.311 1.311-.2346.1196-.5709.2169-1.2286.2707-.6751.0551-1.5485.0563-2.8334.0563h-1.6c-1.28487 0-2.15831-.0012-2.83344-.0563-.65763-.0538-.99393-.1511-1.22853-.2707-.56449-.2876-1.02343-.7465-1.31105-1.311-.11953-.2346-.21692-.5709-.27065-1.2286-.05516-.6751-.05633-1.5485-.05633-2.8334v-.5c0-.86483.00117-1.42324.03589-1.84825.03329-.40749.08981-.55857.1276-.63273.14381-.28225.37328-.51172.65552-.65553.07417-.03779.22525-.09431.63274-.1276zm.79825 2.33911c0-.48325.39175-.875.875-.875s.875.39175.875.875c0 .4832-.39175.875-.875.875s-.875-.3918-.875-.875zm7.625-.875c-.4832 0-.875.39175-.875.875 0 .4832.3918.875.875.875s.875-.3918.875-.875c0-.48325-.3918-.875-.875-.875z" fill="currentColor" fill-rule="evenodd"/></svg>
