<svg xmlns="http://www.w3.org/2000/svg" width="20" height="20" viewBox="0 0 20 20" fill="currentColor"><path d="M10 1a4.43 4.43 0 0 1 4.429 4.429h1.547c.617 0 .84.064 1.066.184.225.121.402.298.523.524.12.225.185.449.185 1.066v5.851c0 1.604-.167 2.186-.48 2.772a3.27 3.27 0 0 1-1.36 1.36c-.587.314-1.169.481-2.773.481H6.863c-1.604 0-2.186-.167-2.772-.48a3.27 3.27 0 0 1-1.36-1.36c-.314-.587-.481-1.169-.481-2.773V7.203c0-.617.064-.84.185-1.066.12-.226.297-.403.523-.524.226-.12.45-.184 1.066-.184h1.547A4.43 4.43 0 0 1 10 1M6.426 7.09h-.048a.9.9 0 0 0-.438.095.65.65 0 0 0-.272.272.9.9 0 0 0-.097.439v.047a.9.9 0 0 0 .097.439q.094.177.272.272a.9.9 0 0 0 .438.096h.048a.9.9 0 0 0 .438-.096.65.65 0 0 0 .272-.272.9.9 0 0 0 .096-.439v-.047a.9.9 0 0 0-.096-.439.65.65 0 0 0-.272-.272.9.9 0 0 0-.438-.096m7.196 0h-.048a.9.9 0 0 0-.438.095.65.65 0 0 0-.272.272.9.9 0 0 0-.096.439v.047a.9.9 0 0 0 .096.439q.096.177.272.272a.9.9 0 0 0 .438.096h.048a.9.9 0 0 0 .438-.096.65.65 0 0 0 .272-.272.9.9 0 0 0 .097-.439v-.047a.9.9 0 0 0-.097-.439.65.65 0 0 0-.272-.272.9.9 0 0 0-.438-.096M10 2.66a2.77 2.77 0 0 0-2.768 2.77h5.536A2.77 2.77 0 0 0 10 2.66"/></svg>