<svg fill="none" height="20" viewBox="0 0 20 20" width="20" xmlns="http://www.w3.org/2000/svg" xmlns:xlink="http://www.w3.org/1999/xlink"><linearGradient id="a" gradientUnits="userSpaceOnUse" x1="-10" x2="10" y1="10" y2="30"><stop offset="0" stop-color="#ffb73d"/><stop offset="1" stop-color="#ffa000"/></linearGradient><path d="m0 10c0-5.52285 4.47715-10 10-10 5.5228 0 10 4.47715 10 10 0 5.5228-4.4772 10-10 10-5.52285 0-10-4.4772-10-10z" fill="url(#a)"/><path d="m10 3.5c1.933 0 3.5 1.567 3.5 3.5h.2181c.4457 0 .6074.04641.7703.13357.163.08715.2909.21504.378.37801.0872.16296.1336.3246.1336.77036v3.51316c0 1.1144-.116 1.5185-.3339 1.926-.2179.4074-.5376.7271-.945.945-.4075.2179-.8116.3339-1.926.3339h-3.59024c-1.1144 0-1.51851-.116-1.92592-.3339-.4074-.2179-.72714-.5376-.94502-.945-.21789-.4075-.33392-.8116-.33392-1.926v-3.51316c0-.44576.04641-.6074.13357-.77036.08715-.16297.21504-.29086.37801-.37801.16296-.08716.3246-.13357.77036-.13357h.21806c0-1.933 1.567-3.5 3.5-3.5zm-2.75 4.5c-.41421 0-.75.33579-.75.75s.33579.75.75.75.75-.33579.75-.75-.33579-.75-.75-.75zm5.5 0c-.4142 0-.75.33579-.75.75s.3358.75.75.75.75-.33579.75-.75-.3358-.75-.75-.75zm-2.75-3c-1.10457 0-2 .89543-2 2h4c0-1.10457-.8954-2-2-2z" fill="#fff"/></svg>
