<svg xmlns="http://www.w3.org/2000/svg" width="20" height="20" fill="currentColor" viewBox="0 0 20 20"><path fill-rule="evenodd" d="M13.021.512a.75.75 0 0 0-.869.607l-.342 1.937a.75.75 0 0 0 1.476.261l.343-1.936a.75.75 0 0 0-.608-.87Zm5.222 2.573a.75.75 0 1 0-.986-1.13l-3.319 2.891a.75.75 0 1 0 .986 1.131l3.319-2.892ZM6.816 9.222l-3.112 2.624a1.98 1.98 0 0 0-.7 1.337 1.94 1.94 0 0 0 .442 1.424c.343.41.82.642 1.319.684a1.96 1.96 0 0 0 1.432-.46l3.113-2.624-2.494-2.985Zm3.802 2.21 2.726-.372a.464.464 0 0 0 .4-.417.442.442 0 0 0-.101-.327l-4.22-5.054a.451.451 0 0 0-.553-.105.463.463 0 0 0-.229.271l-.839 2.634 2.816 3.37Zm-3.28 4.399 1.101 1.01a.613.613 0 0 0 .466.155.768.768 0 0 0 .51-.255.775.775 0 0 0 .208-.534.618.618 0 0 0-.197-.452l-.956-.878-1.132.954Zm-1.346.801c-.44.143-.9.194-1.352.157a3.41 3.41 0 0 1-2.34-1.216 3.442 3.442 0 0 1-.785-2.527 3.487 3.487 0 0 1 1.227-2.351l3.624-3.056.85-2.668c.164-.514.52-.915.96-1.146a1.942 1.942 0 0 1 2.393.47l4.22 5.055c.347.414.49.932.445 1.43a1.968 1.968 0 0 1-1.689 1.77l-2.763.378-1.156.974.809.743c.449.411.673.973.684 1.535.01.56-.192 1.128-.598 1.575-.406.447-.95.7-1.507.74a2.105 2.105 0 0 1-1.584-.544l-1.438-1.319Zm12.259-8.245a.75.75 0 1 0-.002-1.5l-1.966.001a.75.75 0 1 0 .001 1.5h1.967Z" clip-rule="evenodd"/></svg>
