<svg fill="none" height="20" viewBox="0 0 20 20" width="20" xmlns="http://www.w3.org/2000/svg" xmlns:xlink="http://www.w3.org/1999/xlink"><linearGradient id="a" gradientUnits="userSpaceOnUse" x1="-10" x2="10" y1="10" y2="30"><stop offset="0" stop-color="#70b2ff"/><stop offset="1" stop-color="#5c9ce6"/></linearGradient><path d="m0 10c0-5.52285 4.47715-10 10-10 5.5228 0 10 4.47715 10 10 0 5.5228-4.4772 10-10 10-5.52285 0-10-4.4772-10-10z" fill="url(#a)"/><path d="m9.89258 16c-1.1867 0-2.22378-.2349-3.11125-.7046s-1.57289-1.1392-2.05627-2.0087c-.48337-.8695-.72506-1.8838-.72506-3.0431v-.35978c0-1.15928.25575-2.18363.76726-3.07308s1.23018-1.58026 2.15601-2.07245c.92584-.4922 1.99232-.73829 3.19953-.73829h.0613c1.1203 0 2.1215.22111 3.0039.66334.8823.44222 1.5716 1.05808 2.0678 1.84759.4961.78951.7442 1.68394.7442 2.68332v.36727c0 .68958-.1138 1.29668-.3414 1.82138-.2277.5247-.5512.9307-.9706 1.218-.4195.2873-.9028.431-1.4501.431-.5013 0-.9348-.1012-1.3006-.3036-.3657-.2024-.5971-.471-.6943-.8058h-.0691c-.0972.3348-.3082.6022-.633.802-.3248.1999-.7097.2999-1.15471.2999-.45013 0-.84143-.0987-1.17391-.2961-.33249-.1974-.58824-.481-.76727-.8507-.17903-.3698-.26854-.807-.26854-1.3117v-.91443c0-.4847.09079-.90693.27238-1.26671s.43862-.63835.7711-.83573.72122-.29606 1.16624-.29606c.41944 0 .77881.09744 1.07801.29231.2992.19488.4974.45722.5946.78701h.0537v-.14241c0-.23985.0755-.43473.2264-.58463.1509-.14991.3465-.22486.5869-.22486.2353 0 .4259.07495.5716.22486.1458.1499.2187.34478.2187.58463v2.93072c0 .2098.064.3822.1918.5171.1279.1349.2941.2024.4987.2024.2302 0 .431-.0987.6024-.2961.1713-.1973.3043-.4759.3989-.8357.0947-.3598.142-.777.142-1.25171v-.20237c0-.76453-.1867-1.45034-.5601-2.05747-.3734-.60712-.8913-1.08057-1.5537-1.42036s-1.4105-.50968-2.2443-.50968h-.069c-.92587 0-1.73789.19238-2.4361.57714s-1.23913.93066-1.62276 1.63772c-.38364.70707-.57545 1.5253-.57545 2.45472v.26231c0 .9195.18414 1.7214.55243 2.406s.8913 1.213 1.56905 1.5853c.67776.3723 1.47187.5584 2.38236.5584h.07677c.3427 0 .7468-.035 1.2122-.105.2353-.0299.3811-.0449.4374-.0449.179 0 .3273.0549.445.1649.1176.1099.1765.2498.1765.4197 0 .2948-.1663.4947-.4988.5996-.445.1449-1.069.2174-1.87209.2174zm-.93606-5.6889c0 .9094.29412 1.3641.97443 1.3641.32225 0 .56645-.1062.73275-.3185.1662-.2124.2754-.5285.2754-.9482v-.62961c0-.37977-.1143-.67708-.2908-.89194-.1764-.21487-.4207-.3223-.7327-.3223-.32737 0-.57672.11617-.74808.34853s-.211.56839-.211 1.00812z" fill="#fff"/></svg>
