<?xml version="1.0" encoding="UTF-8"?>
<svg width="20px" height="20px" viewBox="0 0 20 20" version="1.1" xmlns="http://www.w3.org/2000/svg" xmlns:xlink="http://www.w3.org/1999/xlink">
    <!-- Generator: Sketch 56 (81588) - https://sketch.com -->
    <title>message_outline_20</title>
    <desc>Created with Sketch.</desc>
    <g id="Page-2" stroke="none" stroke-width="1" fill="none" fill-rule="evenodd">
        <g id="message_outline_20">
            <rect id="Shape" opacity="0.4" x="0" y="0" width="20" height="20"></rect>
            <path d="M6.82844751,15.7515125 C7.03325999,15.5199309 7.35918752,15.4377522 7.64931587,15.5445404 C8.46246122,15.8438368 9.34083215,16 10.25,16 C14.0222432,16 17,13.3062794 17,10 C17,6.69372055 14.0222432,4 10.25,4 C6.47775679,4 3.5,6.69372055 3.5,10 C3.5,11.2107827 3.89926485,12.3669212 4.63941241,13.3490413 C4.74547827,13.4897828 4.79859508,13.66338 4.78944348,13.8393754 C4.75014492,14.5951299 4.38696989,15.624349 3.70517379,16.9738289 C5.18837989,16.8583533 6.21926267,16.4403181 6.82844751,15.7515125 Z M3.24205307,18.5003028 C3.03326041,18.5066533 2.8264054,18.4585944 2.64179846,18.3608448 C2.05390909,18.0495567 1.82967944,17.3206294 2.14095442,16.7327648 C2.78484912,15.5166147 3.1569922,14.5928218 3.26216977,14.0034412 C2.44333729,12.8187612 2,11.4399017 2,10 C2,5.82988832 5.68100453,2.5 10.25,2.5 C14.8189955,2.5 18.5,5.82988832 18.5,10 C18.5,14.1701117 14.8189955,17.5 10.25,17.5 C9.3319938,17.5 8.43684758,17.366072 7.59028509,17.1068383 C6.59351854,17.9883539 5.13438254,18.4427472 3.24205307,18.5003028 Z" id="↳-Icon-Color" fill="currentColor" fill-rule="nonzero"></path>
        </g>
    </g>
</svg>
