<svg xmlns="http://www.w3.org/2000/svg" width="20" height="20" fill="currentColor" viewBox="0 0 20 20"><path fill-rule="evenodd" d="M2 9.993C2 5.706 5.815 2.5 10.25 2.5c4.435 0 8.25 3.206 8.25 7.493 0 4.287-3.815 7.493-8.25 7.493-.915 0-1.81-.133-2.66-.392-.964.851-2.296 1.246-3.768 1.36l-.532.042a1.2 1.2 0 0 1-1.164-1.736l.24-.475c.558-1.103.814-1.835.896-2.292a6.999 6.999 0 0 1-1.262-4ZM10.25 4C6.475 4 3.5 6.693 3.5 9.994c0 1.21.4 2.365 1.14 3.346.105.14.159.314.15.49-.04.755-.403 1.784-1.085 3.132 1.484-.116 2.514-.534 3.123-1.221a.75.75 0 0 1 .821-.207 7.528 7.528 0 0 0 2.601.455c3.775 0 6.75-2.694 6.75-5.995S14.025 4 10.25 4Z M6 9.032a.75.75 0 0 1 .75-.75h7a.75.75 0 1 1 0 1.499h-7A.75.75 0 0 1 6 9.03Zm0 2.997a.75.75 0 0 1 .75-.75h3.75a.75.75 0 1 1 0 1.5H6.75a.75.75 0 0 1-.75-.75Z" clip-rule="evenodd"/></svg>
