<svg fill="none" height="20" viewBox="0 0 20 20" width="20" xmlns="http://www.w3.org/2000/svg" xmlns:xlink="http://www.w3.org/1999/xlink"><linearGradient id="a" gradientUnits="userSpaceOnUse" x1="-10" x2="10" y1="10" y2="30"><stop offset="0" stop-color="#70b2ff"/><stop offset="1" stop-color="#5c9ce6"/></linearGradient><path d="m0 10c0-5.52285 4.47715-10 10-10 5.5228 0 10 4.47715 10 10 0 5.5228-4.4772 10-10 10-5.52285 0-10-4.4772-10-10z" fill="url(#a)"/><path clip-rule="evenodd" d="m10 5c2.7614 0 5 2.01472 5 4.5 0 2.4853-2.2386 4.5-5 4.5-.50538 0-.99325-.0675-1.45309-.193-.47597.415-.9935.7848-1.54426 1.1036-.0855.0495-.18312.1022-.29287.158l-.17367.0862c-.2486.1203-.54766.0163-.66796-.2323-.06121-.1265-.06638-.2729-.01425-.4034.07848-.1964.14092-.3684.18733-.516.14328-.4557.25482-.9254.33203-1.4067-.85201-.8075-1.37326-1.8971-1.37326-3.0964 0-2.48528 2.23858-4.5 5-4.5z" fill="#fff" fill-rule="evenodd"/></svg>
