<svg xmlns="http://www.w3.org/2000/svg" width="20" height="20" fill="none" viewBox="0 0 20 20">
  <rect width="20" height="20" fill="url(#a)" rx="10"/>
  <path fill="#fff" d="M14.932 8.754a2.571 2.571 0 0 1-3.524-3.573A5.52 5.52 0 0 0 10 5C7.239 5 5 7.015 5 9.5c0 1.2.521 2.289 1.373 3.096a9.935 9.935 0 0 1-.332 1.407c-.046.148-.109.32-.187.516a.5.5 0 0 0 .682.636l.174-.086c.11-.056.207-.109.293-.158a9.886 9.886 0 0 0 1.544-1.104c.46.125.948.193 1.453.193 2.761 0 5-2.015 5-4.5 0-.254-.023-.503-.068-.746Z"/>
  <path fill="#fff" d="M14.857 6.571a1.286 1.286 0 1 1-2.571 0 1.286 1.286 0 0 1 2.571 0Z"/>
  <defs>
    <linearGradient id="a" x1="-10" x2="10" y1="10" y2="30" gradientUnits="userSpaceOnUse">
      <stop stop-color="#B1B6BD"/>
      <stop offset="1" stop-color="#99A2AD"/>
    </linearGradient>
  </defs>
</svg>
