<svg xmlns="http://www.w3.org/2000/svg" width="20" height="20" fill="currentColor" viewBox="0 0 20 20"><path fill-rule="evenodd" d="M6.5 3.5h7A3.5 3.5 0 0 1 17 7v3.562a3.5 3.5 0 0 1-3.5 3.5H7.298c-.553 0-1.088.203-1.502.57L3.831 16.37A.5.5 0 0 1 3 15.996V7a3.5 3.5 0 0 1 3.5-3.5ZM4.825 17.494l1.965-1.74a.766.766 0 0 1 .508-.192H13.5a5 5 0 0 0 5-5V7a5 5 0 0 0-5-5h-7a5 5 0 0 0-5 5v8.996c0 1.723 2.035 2.64 3.325 1.498ZM7.45 8.775a1.05 1.05 0 1 1-2.1 0 1.05 1.05 0 0 1 2.1 0Zm3.6 0a1.05 1.05 0 1 1-2.1 0 1.05 1.05 0 0 1 2.1 0Zm2.55 1.05a1.05 1.05 0 1 0 0-2.1 1.05 1.05 0 0 0 0 2.1Z" clip-rule="evenodd"/></svg>
