<svg xmlns="http://www.w3.org/2000/svg" width="20" height="20" viewBox="0 0 20 20" fill="currentColor"><path d="M14.5 11.25a.75.75 0 0 1 .75.75v1.572l.68.212a.75.75 0 1 1-.444 1.432l-1.209-.375a.75.75 0 0 1-.527-.716V12a.75.75 0 0 1 .75-.75"/><path fill-rule="evenodd" d="M14.708 8.5a5 5 0 1 1 0 10 5 5 0 0 1 0-10m0 1.5a3.5 3.5 0 1 0 0 7 3.5 3.5 0 0 0 0-7" clip-rule="evenodd"/><path d="M9.5 2.25c3.129 0 5.819 1.549 7.223 3.861a.75.75 0 1 1-1.283.778C14.324 5.049 12.134 3.75 9.5 3.75c-3.878 0-6.75 2.79-6.75 6 0 1.126.345 2.209.996 3.15l.176.254a.75.75 0 0 1 .121.559l-.054.304c-.13.728-.505 1.659-1.034 2.706 1.41-.11 2.323-.486 2.892-.99l.314-.278.077-.06a.75.75 0 0 1 .64-.095l.401.123q.417.128.854.206a.75.75 0 0 1-.266 1.476 9 9 0 0 1-1.027-.249c-.997.882-2.455 1.336-4.348 1.394a1.205 1.205 0 0 1-1.101-1.768l.23-.441c.503-1 .799-1.771.89-2.287A7 7 0 0 1 1.25 9.75c0-4.168 3.679-7.5 8.25-7.5"/></svg>