<svg xmlns="http://www.w3.org/2000/svg" width="20" height="20" fill="currentColor" viewBox="0 0 20 20"><path fill-rule="evenodd" d="M8 2C4.44 2 1.5 4.518 1.5 7.754c0 1.084.336 2.12.954 3.014-.094.407-.361 1.038-.82 1.877a1.08 1.08 0 0 0 .46 1.483c.167.086.352.127.538.121 1.426-.041 2.563-.365 3.366-1.015.64.18 1.313.274 2.002.274 3.56 0 6.5-2.518 6.5-5.754C14.5 4.518 11.56 2 8 2Zm0 1.5c-2.917 0-5 2.02-5 4.254 0 .788.25 1.55.726 2.216l.134.188a.75.75 0 0 1 .128.572l-.042.226c-.09.49-.324 1.087-.648 1.742.873-.107 1.438-.357 1.795-.662l.24-.206a.75.75 0 0 1 .701-.15l.308.092c.523.155 1.08.236 1.658.236 2.917 0 5-2.02 5-4.254C13 5.52 10.917 3.5 8 3.5Z M16.157 8.575a.75.75 0 1 1 1.187-.916 5.455 5.455 0 0 1 1.156 3.345 5.42 5.42 0 0 1-.914 3.008c.088.411.346 1.049.789 1.895a1.089 1.089 0 0 1-.992 1.593c-1.363-.042-2.456-.363-3.231-1.01a6.808 6.808 0 0 1-1.902.268 6.733 6.733 0 0 1-2.57-.5.75.75 0 0 1 .572-1.388 5.22 5.22 0 0 0 1.998.388c.546 0 1.073-.08 1.568-.233l.294-.092a.75.75 0 0 1 .722.158l.23.206c.33.294.85.538 1.652.646-.311-.657-.535-1.253-.622-1.743l-.04-.225a.75.75 0 0 1 .12-.554l.129-.188a3.925 3.925 0 0 0 .697-2.23c0-.894-.306-1.733-.843-2.429Z"/></svg>
