<svg xmlns="http://www.w3.org/2000/svg" width="20" height="20" fill="currentColor" viewBox="0 0 20 20"><path fill-rule="evenodd" d="M10.25 2.5C5.815 2.5 2 5.706 2 9.993c0 1.445.447 2.822 1.262 4-.082.457-.338 1.189-.896 2.292l-.24.475a1.2 1.2 0 0 0 1.164 1.736l.532-.041c1.472-.115 2.804-.51 3.768-1.361.85.26 1.745.392 2.66.392 4.435 0 8.25-3.206 8.25-7.493 0-4.287-3.815-7.493-8.25-7.493ZM3.5 9.993C3.5 6.693 6.475 4 10.25 4S17 6.692 17 9.993s-2.975 5.995-6.75 5.995c-.91 0-1.788-.156-2.6-.455a.75.75 0 0 0-.822.207c-.609.687-1.64 1.105-3.123 1.22.682-1.347 1.045-2.376 1.084-3.13a.749.749 0 0 0-.15-.49A5.524 5.524 0 0 1 3.5 9.992Zm9.525-2.778a.75.75 0 0 1 0 1.06l-1.717 1.72 1.718 1.721a.75.75 0 0 1-1.062 1.06l-1.716-1.719-1.717 1.72a.75.75 0 1 1-1.062-1.06l1.719-1.721-1.719-1.72a.75.75 0 0 1 1.062-1.06l1.717 1.719 1.716-1.72a.75.75 0 0 1 1.061 0Z" clip-rule="evenodd"/></svg>
