<svg xmlns="http://www.w3.org/2000/svg" width="20" height="20" fill="currentColor" viewBox="0 0 20 20"><path d="M16.311 7.195c-.052-.454.442-.798.777-.487.973.9 1.648 2.08 1.848 3.43l.008.053a5.678 5.678 0 0 1 .04.385l.006.083a5.428 5.428 0 0 1-.005.701l-.01.12c-.01.1-.022.2-.036.3l-.01.073c-.022.14-.047.28-.08.416l-.113.41-.031.084-.004.005c-.16.475-.378.925-.65 1.34.147.73.355 1.391.533 1.877l.185.479c.292.71-.21 1.648-1.087 1.525-.674-.095-2.12-.381-3.402-1.183a7.444 7.444 0 0 1-.385.095.811.811 0 0 1-.098.029 7.11 7.11 0 0 1-.485.082l-.067.01a7.406 7.406 0 0 1-.973.064l-.305-.007h-.029l-.085-.006a7.637 7.637 0 0 1-.226-.016l-.044-.005a7.405 7.405 0 0 1-.512-.063c-.013-.002-.026-.006-.039-.01a7.24 7.24 0 0 1-.875-.206c-.465-.14-.372-.774.094-.91 3.334-.967 6.112-3.809 6.112-7.752 0-.312-.017-.618-.052-.916Z"/><path d="M8.062 2.009c3.44.156 6.392 2.709 6.392 6.102 0 3.394-2.951 5.948-6.392 6.104l-.334.008c-.699 0-1.373-.1-2.007-.28-1.283.801-2.729 1.088-3.403 1.183-.871.123-1.381-.809-1.088-1.524.192-.466.514-1.345.718-2.359A5.68 5.68 0 0 1 1 8.111C1 4.608 4.146 2 7.728 2l.334.009Z"/></svg>