<svg xmlns="http://www.w3.org/2000/svg" width="20" height="20" fill="currentColor" viewBox="0 0 20 20"><path fill-rule="evenodd" d="M8.4 3.5h3.2c1.145 0 1.913.001 2.505.05.574.046.849.13 1.03.222a2.5 2.5 0 0 1 1.092 1.093c.093.181.177.456.224 1.03.048.592.049 1.36.049 2.505v3.2c0 1.145-.001 1.913-.05 2.505-.046.574-.13.849-.223 1.03a2.5 2.5 0 0 1-1.092 1.092c-.181.093-.456.177-1.03.224-.592.048-1.36.049-2.505.049H8.4c-1.145 0-1.913-.001-2.505-.05-.574-.046-.849-.13-1.03-.223a2.5 2.5 0 0 1-1.093-1.092c-.092-.181-.176-.456-.222-1.03-.049-.592-.05-1.36-.05-2.505V8.4c0-1.145.001-1.913.05-2.505.046-.574.13-.849.222-1.03a2.5 2.5 0 0 1 1.093-1.093c.181-.092.456-.176 1.03-.222.592-.049 1.36-.05 2.505-.05ZM2 8.4c0-2.24 0-3.36.436-4.216a4 4 0 0 1 1.748-1.748C5.04 2 6.16 2 8.4 2h3.2c2.24 0 3.36 0 4.216.436a4 4 0 0 1 1.748 1.748C18 5.04 18 6.16 18 8.4v3.2c0 2.24 0 3.36-.436 4.216a4 4 0 0 1-1.748 1.748C14.96 18 13.84 18 11.6 18H8.4c-2.24 0-3.36 0-4.216-.436a4 4 0 0 1-1.748-1.748C2 14.96 2 13.84 2 11.6V8.4Zm4.75.85a.75.75 0 0 0 0 1.5h6.5a.75.75 0 0 0 0-1.5h-6.5Z" clip-rule="evenodd"/></svg>
