<svg fill="none" height="20" viewBox="0 0 20 20" width="20" xmlns="http://www.w3.org/2000/svg"><path clip-rule="evenodd" d="m13.2908 4.08562c-.2351-.0764-.5518-.08565-1.5408-.08565h-5.5c-.71244 0-1.20167.00058-1.58092.03157-.3705.03027-.56952.08578-.71356.15917-.32929.16778-.597.43549-.76478.76478-.06136.12042-.11022.27929-.14228.54467.06624-.00022.13661-.00022.21154-.00022h10.44c.2794 0 .5355 0 .7714.0015-.0128-.12249-.031-.2121-.0571-.29225-.1731-.53277-.5908-.95046-1.1235-1.12357zm-10.2908 8.61428v-2.69993-2.75-.01334c.00001-.08914.00005-.16669.00044-.23625.07555-.00043.16054-.00044.25956-.00044h10.44c.8648 0 1.4232.00117 1.8482.03589.4075.03329.5586.08981.6328.1276.2822.14381.5117.37328.6555.65552.0378.07417.0943.22525.1276.63274.0347.42501.0359.98342.0359 1.84821v2.4c0 .8649-.0012 1.4233-.0359 1.8483-.0333.4075-.0898.5586-.1276.6327-.1438.2823-.3733.5117-.6555.6555-.0742.0378-.2253.0944-.6328.1276-.425.0348-.9834.0359-1.8482.0359h-7.4c-.86483 0-1.42324-.0011-1.84825-.0359-.40749-.0332-.55857-.0898-.63274-.1276-.28224-.1438-.51171-.3732-.65552-.6555-.03779-.0741-.09431-.2252-.1276-.6327-.03472-.425-.03589-.9834-.03589-1.8483zm-1.5-5.48135v.04139 2.74003 2.69993c0 1.6802 0 2.5203.32698 3.162.28762.5645.74656 1.0234 1.31105 1.3111.64173.3269 1.48181.3269 3.16197.3269h7.4c1.6802 0 2.5202 0 3.162-.3269.5645-.2877 1.0234-.7466 1.311-1.3111.327-.6417.327-1.4818.327-3.162v-2.4c0-1.68012 0-2.5202-.327-3.16193-.2876-.56449-.7465-1.02343-1.311-1.31105-.2507-.1277-.5315-.20553-.8809-.25296-.0197-.31001-.0595-.58016-.1402-.8283-.3214-.98942-1.0972-1.76514-2.0866-2.08662-.492-.15987-1.0706-.15955-1.8747-.15912l-.1296.00005h-5.53142c-.67338-.00001-1.22408-.00002-1.67165.03655-.46326.03785-.88166.11859-1.2724.31768-.61153.31159-1.10871.80877-1.4203 1.4203-.19909.39074-.27983.80914-.31768 1.2724-.03657.44756-.03656.99827-.03655 1.67164zm11.75 3.28145c-.4142 0-.75.3358-.75.75s.3358.75.75.75h1c.4142 0 .75-.3358.75-.75s-.3358-.75-.75-.75z" fill="currentColor" fill-rule="evenodd"/></svg>
