<svg xmlns="http://www.w3.org/2000/svg" width="20" height="20" fill="currentColor" viewBox="0 0 20 20"><path fill-rule="evenodd" d="M15 11a4 4 0 1 1 0 8 4 4 0 0 1 0-8Zm2.136 2.161a.75.75 0 0 0-1.004.03l-.053.055-1.624 1.91-.57-.582a.75.75 0 0 0-1.07 1.05l1.144 1.168.059.053a.75.75 0 0 0 1.048-.092l2.156-2.534.046-.062a.75.75 0 0 0-.132-.996Z" clip-rule="evenodd"/><path d="M8.651 1.607a8.502 8.502 0 0 1 4.602.54l.288.125a8.502 8.502 0 0 1 3.526 3.005l.262.417c.58.988.954 2.082 1.1 3.214a.75.75 0 0 1-1.487.192 7.003 7.003 0 0 0-.907-2.646l-.215-.343a7.002 7.002 0 0 0-2.904-2.474l-.237-.104a7 7 0 0 0-3.79-.444l-.254.046A7.002 7.002 0 0 0 5.237 4.87l-.187.18a7.002 7.002 0 0 0-1.86 3.33l-.055.255a7 7 0 0 0 .398 4.044l.104.237A7.001 7.001 0 0 0 6.11 15.82l.343.215a7 7 0 0 0 2.246.843l.397.063.076.014a.751.751 0 0 1-.193 1.48l-.077-.006-.481-.077a8.5 8.5 0 0 1-2.728-1.024l-.417-.26a8.501 8.501 0 0 1-3.005-3.527l-.125-.288a8.502 8.502 0 0 1-.484-4.911l.067-.308A8.502 8.502 0 0 1 3.99 3.99l.226-.218a8.502 8.502 0 0 1 4.126-2.108l.31-.056Z"/><path fill-rule="evenodd" d="M10.629 5.25a2.625 2.625 0 0 1 0 5.25H9.004v.75h1.5a.75.75 0 0 1 0 1.5h-1.5v.5a.75.75 0 0 1-1.5 0v-.5h-.25a.75.75 0 0 1 0-1.5h.25v-.75h-.25a.75.75 0 0 1 0-1.5h.25V6c.03-.413.365-.75.75-.75h2.375ZM9.004 9h1.625a1.125 1.125 0 0 0 0-2.25H9.004V9Z" clip-rule="evenodd"/></svg>
