<svg xmlns="http://www.w3.org/2000/svg" width="20" height="20" viewBox="0 0 20 20" fill="currentColor"><path d="M16.488 11.503c.597 0 .951.262 1.168.86l2 5.436c.061.154.094.319.097.485 0 .42-.319.719-.763.719-.43 0-.656-.2-.793-.674l-.384-1.154H15.18l-.385 1.14c-.141.485-.369.687-.773.687-.474 0-.773-.279-.773-.719q.012-.25.1-.485l1.992-5.43c.212-.592.57-.865 1.146-.865M9.895 1.5a.75.75 0 0 1 .494 1.322 5.798 5.798 0 0 0 2.223 10.015.75.75 0 0 1-.393 1.447 7.3 7.3 0 0 1-5.38-7.04 7.26 7.26 0 0 1 1.167-3.955 7 7 0 0 0 2.785 13.667.75.75 0 0 1 .168 1.49A8.5 8.5 0 1 1 9.895 1.5m5.619 14.492h1.946l-.966-2.991h-.035V13z"/></svg>