<svg xmlns="http://www.w3.org/2000/svg" width="20" height="20" viewBox="0 0 20 20" fill="currentColor"><path d="M16.238 11.503c.597 0 .95.263 1.167.86l2.001 5.436c.061.154.094.319.096.485 0 .42-.319.719-.763.719-.43 0-.657-.2-.793-.674l-.385-1.154H14.93l-.385 1.14c-.142.485-.369.687-.772.687-.475 0-.774-.279-.774-.719a1.6 1.6 0 0 1 .102-.485l1.99-5.43c.212-.592.571-.865 1.147-.865M9.895 1.5a.75.75 0 0 1 .494 1.322 5.798 5.798 0 0 0 2.223 10.015.75.75 0 0 1-.393 1.447 7.3 7.3 0 0 1-5.38-7.04 7.26 7.26 0 0 1 1.167-3.955 7 7 0 0 0 2.785 13.667.75.75 0 0 1 .168 1.49A8.5 8.5 0 1 1 9.895 1.5m5.368 14.492h1.946l-.966-2.991h-.035z"/><path d="M16.238 11.503c.597 0 .95.263 1.167.86l2.001 5.436c.06.154.094.319.096.485 0 .42-.319.719-.763.719-.43 0-.657-.2-.793-.674l-.385-1.154H14.93l-.385 1.14c-.142.484-.369.687-.772.687-.475 0-.774-.279-.774-.719a1.6 1.6 0 0 1 .102-.485l1.99-5.43c.212-.592.571-.865 1.147-.865M9.895 1.5a.75.75 0 0 1 .494 1.322 5.798 5.798 0 0 0 2.223 10.015.75.75 0 0 1-.393 1.447A7.298 7.298 0 0 1 8.006 3.289a7 7 0 0 0 2.785 13.667.75.75 0 0 1 .168 1.49A8.5 8.5 0 1 1 9.895 1.5m5.368 14.492h1.946L16.243 13h-.035z"/></svg>