<?xml version="1.0" encoding="UTF-8"?>
<svg width="20px" height="20px" viewBox="0 0 20 20" version="1.1" xmlns="http://www.w3.org/2000/svg" xmlns:xlink="http://www.w3.org/1999/xlink">
    <!-- Generator: Sketch 63.1 (92452) - https://sketch.com -->
    <title>music_outline_20</title>
    <desc>Created with Sketch.</desc>
    <g id="Icons" stroke="none" stroke-width="1" fill="none" fill-rule="evenodd">
        <g id="Icons-20/music_outline_20">
            <g id="music_outline_20">
                <polygon points="0 0 20 0 20 20 0 20"></polygon>
                <path d="M14.7331422,2.04839631 C15.9662143,1.79150627 17.1740678,2.58285905 17.4309578,3.81593129 C17.4628318,3.96892621 17.4788954,4.1247919 17.4788954,4.28107162 L17.4788954,4.28107162 L17.4788954,12.266381 C17.4788954,15.8412148 13.9876738,17.6786993 12.092161,15.7831864 C10.1966482,13.8876736 12.0341337,10.3964521 15.6089675,10.3964521 L15.6089675,10.3964521 L15.9787427,10.396 L15.9787427,6.765 L8.00374274,8.434 L8.00386508,14.2488508 C8.00386508,17.7535898 4.64821192,19.5884429 2.73043361,17.8728664 L2.61713071,17.7656562 C0.721617902,15.8701434 2.55910345,12.3789218 6.13393722,12.3789218 L6.13393722,12.3789218 L6.50374274,12.378 L6.50386508,6.23075247 C6.50386508,5.59093098 6.55115177,5.22704774 6.68704454,4.87392952 L6.74223844,4.74149689 C6.91101215,4.36439576 7.16749983,4.04896545 7.50225188,3.80682824 C7.85634691,3.55069961 8.20691606,3.41653286 8.91055915,3.2699413 L8.91055915,3.2699413 Z M6.50386508,13.8789218 L6.13393722,13.8789218 C3.81441024,13.8789218 2.79279159,15.8199967 3.67779088,16.704996 C4.56279037,17.5899955 6.50386508,16.5683776 6.50386508,14.2488508 L6.50386508,14.2488508 L6.50386508,13.8789218 Z M15.9788954,11.8964521 L15.6089675,11.8964521 C13.2894405,11.8964521 12.2678219,13.837527 13.1528212,14.7225263 C14.0378207,15.6075258 15.9788954,14.5859078 15.9788954,12.266381 L15.9788954,12.266381 L15.9788954,11.8964521 Z M15.9624872,4.12186267 C15.8745583,3.69980416 15.4611316,3.42893818 15.0401013,3.51665207 L15.0401013,3.51665207 L9.05832148,4.77244737 C8.66608467,4.8600368 8.52196095,4.92051531 8.38137471,5.02220598 C8.26003389,5.1099758 8.17254793,5.21756664 8.11137029,5.35425947 C8.03162944,5.53242918 8.00386508,5.70434188 8.00386508,6.23075247 L8.00386508,6.23075247 L8.00374274,6.901 L15.9787427,5.233 L15.9788954,4.28107162 C15.9788954,4.25432585 15.9775208,4.2276155 15.9747825,4.20104565 Z" id="↳-Icon-Color" fill="currentColor" fill-rule="nonzero"></path>
            </g>
        </g>
    </g>
</svg>
