<svg xmlns="http://www.w3.org/2000/svg" width="20" height="20" fill="currentColor" viewBox="0 0 20 20"><path fill-rule="evenodd" d="M15.254 4.192a.75.75 0 0 1 1.059.057l.025.028a8.58 8.58 0 0 1 2.162 5.72c0 2.218-.83 4.24-2.192 5.755a.75.75 0 1 1-1.116-1.004A7.08 7.08 0 0 0 17 9.998a7.08 7.08 0 0 0-1.783-4.724l-.02-.023a.75.75 0 0 1 .057-1.059Z" clip-rule="evenodd"/><path fill-rule="evenodd" d="M12.192 6.25a.75.75 0 0 1 1.059-.058C14.319 7.15 15 8.496 15 10s-.681 2.85-1.75 3.808a.75.75 0 0 1-1.001-1.116c.786-.705 1.251-1.658 1.251-2.692 0-1.034-.465-1.987-1.251-2.692a.75.75 0 0 1-.057-1.059Z" clip-rule="evenodd"/><path d="M6.822 12.557c0 2.855-3.048 4.359-4.63 2.842-1.638-1.569-.265-4.13 3.026-4.287l.001-4.096C5.202 5.845 5.994 5 7.121 4.64l.22-.066c.464-.13 1.253-.315 2.383-.56.365-.079.713.158.768.499l.008.095v1.28c0 .936-.617 1.76-1.525 2.068l-.173.051-1.98.506v4.043Z"/></svg>
