<svg xmlns="http://www.w3.org/2000/svg" width="20" height="20" fill="currentColor" viewBox="0 0 20 20"><path fill-rule="evenodd" d="M16.5 6.5a3 3 0 1 1-6 0 3 3 0 0 1 6 0Zm1.5 0a4.5 4.5 0 1 1-9 0 4.5 4.5 0 0 1 9 0Zm-7.276 6.852a.769.769 0 0 0 .115-1.066.732.732 0 0 0-1.043-.118L4.75 16.294a.803.803 0 0 1-1.053-.009.613.613 0 0 1-.08-.834l4.218-5.208a.769.769 0 0 0-.1-1.067.732.732 0 0 0-1.044.101l-4.217 5.209c-.723.892-.584 2.183.235 2.93.85.775 2.107.765 2.968.06l5.048-4.124Z" clip-rule="evenodd"/></svg>
