<svg xmlns="http://www.w3.org/2000/svg" width="20" height="20" fill="currentColor" viewBox="0 0 20 20"><path d="M1.5 10.1v-.2c0-.84 0-1.26.163-1.581a1.5 1.5 0 0 1 .656-.656c.32-.163.74-.163 1.581-.163h1.034c.024 0 .036 0 .048-.003a.1.1 0 0 0 .029-.012.209.209 0 0 0 .036-.032l3.95-3.95A1.718 1.718 0 0 1 10.212 3c.711 0 1.288.577 1.288 1.288v11.424c0 .711-.577 1.288-1.288 1.288-.456 0-.893-.181-1.215-.503l-3.95-3.95c-.017-.017-.026-.026-.036-.032a.1.1 0 0 0-.03-.012c-.01-.003-.023-.003-.047-.003H3.9c-.84 0-1.26 0-1.581-.164a1.5 1.5 0 0 1-.656-.655c-.163-.32-.163-.74-.163-1.581Zm12.777-2.634a.75.75 0 0 0-1.061 1.06l1.47 1.47-1.47 1.47a.75.75 0 0 0 1.06 1.06l1.47-1.47 1.47 1.47a.75.75 0 1 0 1.06-1.06l-1.47-1.47 1.47-1.47a.75.75 0 0 0-1.06-1.06l-1.47 1.47-1.47-1.47Z"/></svg>
