<svg fill="none" height="20" viewBox="0 0 20 20" width="20" xmlns="http://www.w3.org/2000/svg"><path d="m4.88633 3.55304c.2929-.29289.76777-.29289 1.06067 0l10.1667 10.16666c.2929.2929.2929.7678 0 1.0607-.293.2929-.7678.2929-1.0607 0l-2.053-2.053v2.5319c0 .829-.7066 1.4074-1.4583 1.4074-.6352 0-1.2545-.2337-1.71943-.6652l-3.53335-3.2792h-1.50594c-.93103 0-1.78298-.7133-1.78298-1.7088v-2.02696c0-.99542.85195-1.70872 1.78298-1.70872h1.50594l.65429-.60725-2.05688-2.05686c-.29289-.2929-.29289-.76777 0-1.06067zm3.1264 4.18706c-.30723.27907-.61616.55619-.9192.83744-.13871.12873-.32096.20028-.5102.20028h-1.80035c-.096 0-.172.03576-.22022.08052-.04729.04388-.06276.08949-.06276.1282v2.02696c0 .0387.01547.0844.06276.1282.04822.0448.12422.0806.22022.0806h1.80035c.18924 0 .37149.0715.5102.2002l3.74917 3.4796c.1674.1554.4015.2541.6573.2639v-3.9386zm3.52897-4.40673c.7517 0 1.4583.57841 1.4583 1.40741v1.93494c0 .41421-.3358.75-.75.75-.4143 0-.75-.33579-.75-.75v-1.84155c-.2558.0097-.4899.10839-.6573.26379l-.1089.10106c-.3036.28177-.77817.26408-1.05995-.03953-.28178-.3036-.26408-.77814.03952-1.05992l.1089-.10106c.46493-.43149 1.08423-.66514 1.71943-.66514z" fill="currentColor"/></svg>
