<svg fill="none" height="20" viewBox="0 0 20 20" width="20" xmlns="http://www.w3.org/2000/svg"><g fill="currentColor"><path clip-rule="evenodd" d="m2.28033 1.21967c-.29289-.292893-.76777-.292893-1.06066 0-.292893.29289-.292893.76777 0 1.06066l1.51382 1.51382c-.10361.15027-.19761.30781-.28117.47179-.24814.487-.3534 1.01654-.40351 1.62987-.04882.59759-.04882 1.33715-.04881 2.26167v3.68502c-.00001.9245-.00001 1.6641.04881 2.2617.05011.6133.15537 1.1429.40351 1.6299.39788.7808 1.03275 1.4157 1.81362 1.8136.487.2481 1.01654.3534 1.62987.4035.59759.0488 1.33714.0488 2.26165.0488h3.68504c.9245 0 1.6641 0 2.2617-.0488.6133-.0501 1.1429-.1554 1.6299-.4035.1639-.0836.3215-.1776.4717-.2812l1.5139 1.5138c.2929.2929.7677.2929 1.0606 0s.2929-.7677 0-1.0606zm12.83657 14.95793-8.17756-8.1776h-3.43932l-.00002 3.81c0 .9645.00058 1.6427.04383 2.172.04253.5206.12256.8308.245 1.0711.25407.4986.65947.904 1.1581 1.1581.24029.1224.55045.2024 1.07103.245.52933.0432 1.20758.0438 2.17204.0438h3.62c.9645 0 1.6427-.0006 2.172-.0438.5206-.0426.8308-.1226 1.0711-.245.0214-.011.0427-.0222.0638-.0336zm-9.67756-9.6776-1.61689-1.61689c-.01148.0211-.02269.04237-.03362.06382-.12244.24029-.20247.55045-.245 1.07103-.01209.14803-.02085.30771-.02719.48204z" fill-rule="evenodd"/><path d="m13.982 3.54383c-.5293-.04325-1.2075-.04383-2.172-.04383h-3.62c-.44716 0-.83523.00001-1.17984.00468-.41417.00562-.75448-.32559-.76009-.73976-.00561-.41418.32559-.75449.73977-.7601.3558-.00482.75358-.00482 1.19634-.00482h3.65632c.9245-.00001 1.6641-.00001 2.2617.04881.6133.05011 1.1429.15537 1.6299.40351.7808.39788 1.4157 1.03275 1.8136 1.81362.2481.487.3534 1.01654.4035 1.62987.0488.59759.0488 1.33714.0488 2.26165v3.65624c0 .4428 0 .8406-.0048 1.1965-.0056.4141-.3459.7453-.7601.7397s-.7454-.3459-.7398-.7601c.0047-.3446.0047-.7326.0047-1.1798v-3.81h-5c-.4142 0-.75-.33579-.75-.75s.3358-.75.75-.75h4.9834c-.0064-.17433-.0151-.33401-.0272-.48204-.0426-.52058-.1226-.83074-.245-1.07103-.2541-.49863-.6595-.90403-1.1581-1.1581-.2403-.12244-.5505-.20247-1.0711-.245z"/></g></svg>
