<svg xmlns="http://www.w3.org/2000/svg" width="20" height="20" fill="currentColor" viewBox="0 0 20 20"><path fill-rule="evenodd" d="M5.006 2.246a.75.75 0 0 1-.052 1.06c-.89.807-1.506 1.953-1.706 3.304a.75.75 0 1 1-1.484-.22c.248-1.672 1.02-3.141 2.182-4.196a.75.75 0 0 1 1.06.052Zm10.5 6.212c0-3.365-2.299-5.958-5.503-5.958S4.495 5.095 4.495 8.458v1.266c0 .18-.155.42-.575.85-.054.056-.105.107-.216.218-.863.868-1.204 1.368-1.204 2.172 0 .35.035.605.187.92.349.718 1.129 1.115 2.316 1.115h1.525l6.944.001h1.525c1.154 0 1.925-.388 2.29-1.082.172-.328.213-.602.213-.954 0-.804-.341-1.304-1.204-2.172l-.216-.217c-.42-.43-.575-.67-.575-.851V8.458ZM13 15.801c-.434 1.295-1.469 1.999-3 1.999-1.547 0-2.575-.678-3-2h6Zm2.046-12.495a.75.75 0 0 1 1.008-1.112c1.163 1.055 1.934 2.524 2.182 4.196a.75.75 0 1 1-1.484.22c-.2-1.35-.815-2.497-1.706-3.304Z" clip-rule="evenodd"/></svg>
