<svg xmlns="http://www.w3.org/2000/svg" width="20" height="20" fill="currentColor" viewBox="0 0 20 20"><path d="M1.5 10c0-2.347.952-4.473 2.49-6.01l.297-.283A8.497 8.497 0 0 1 6.71 2.16a.75.75 0 0 1 .58 1.383A7.015 7.015 0 0 0 5.05 5.05 6.976 6.976 0 0 0 3 10c0 1.933.782 3.682 2.05 4.95A6.977 6.977 0 0 0 10 17a6.977 6.977 0 0 0 4.95-2.05A6.977 6.977 0 0 0 17 10a6.976 6.976 0 0 0-2.05-4.95 7.032 7.032 0 0 0-1.93-1.367l-.31-.14-.07-.033a.75.75 0 0 1 .578-1.375l.072.026.378.169a8.532 8.532 0 0 1 2.343 1.66l.281.295A8.472 8.472 0 0 1 18.5 10a8.477 8.477 0 0 1-2.49 6.01A8.476 8.476 0 0 1 10 18.5a8.476 8.476 0 0 1-6.01-2.49A8.477 8.477 0 0 1 1.5 10Z M9.25 9.25v-8a.75.75 0 0 1 1.5 0v8a.75.75 0 0 1-1.5 0Z"/></svg>
