<svg width="20" height="20" viewBox="0 0 20 20" fill="none" xmlns="http://www.w3.org/2000/svg">
<path fill-rule="evenodd" clip-rule="evenodd" d="M10 3C6.13401 3 3 6.13401 3 10C3 13.866 6.13401 17 10 17C11.6631 17 13.1899 16.4207 14.3911 15.4518L9.46967 10.5303C9.32902 10.3897 9.25 10.1989 9.25 10C9.25 9.80109 9.32902 9.61032 9.46967 9.46967L14.3911 4.54821C13.1899 3.57927 11.6631 3 10 3ZM1.5 10C1.5 5.30558 5.30558 1.5 10 1.5C12.347 1.5 14.473 2.45222 16.0104 3.98959C16.1511 4.13024 16.2301 4.32101 16.2301 4.51992C16.2301 4.71883 16.1511 4.9096 16.0104 5.05025L11.0607 10L16.0104 14.9497C16.3033 15.2426 16.3033 15.7175 16.0104 16.0104C14.473 17.5478 12.347 18.5 10 18.5C5.30558 18.5 1.5 14.6944 1.5 10Z" fill="currentColor"/>
</svg>
