<svg xmlns="http://www.w3.org/2000/svg" width="20" height="20" fill="currentColor" viewBox="0 0 20 20"><path fill-rule="evenodd" d="M5.914 1.498h6.21c.454 0 .83-.001 1.157.092.804.23 1.433.858 1.662 1.662.027.094.046.192.06.294l.22.01c.263.018.521.056.775.158a2.42 2.42 0 0 1 1.341 1.341c.102.254.14.512.158.776.017.25.017.555.017.913v.311c0 .472 0 .873-.03 1.202-.03.346-.095.681-.27.998a2.4 2.4 0 0 1-.953.953c-.316.175-.652.24-.998.27-.329.03-.73.03-1.201.03h-3.828a.917.917 0 0 0-.913.912v.563l.028.002c.13.011.302.037.478.127.236.12.427.311.547.547.09.176.116.348.127.478.01.114.009.247.009.369v3.467c0 .122 0 .255-.01.37a1.26 1.26 0 0 1-.126.477 1.25 1.25 0 0 1-.547.546 1.26 1.26 0 0 1-.478.127c-.114.01-.247.01-.369.01h-.94c-.122 0-.255 0-.37-.01a1.26 1.26 0 0 1-.477-.127 1.25 1.25 0 0 1-.547-.546 1.26 1.26 0 0 1-.127-.478 4.749 4.749 0 0 1-.009-.37v-3.466c0-.122 0-.255.01-.37.01-.13.036-.3.126-.477a1.25 1.25 0 0 1 .547-.547c.176-.09.348-.116.478-.127.047-.003.098-.006.15-.007v-.565a2.417 2.417 0 0 1 2.407-2.406h3.802c.511 0 .847 0 1.103-.023.246-.021.348-.058.406-.09a.916.916 0 0 0 .361-.362c.032-.058.07-.159.09-.405.023-.256.024-.592.024-1.103v-.256c0-.388 0-.642-.014-.838a1.042 1.042 0 0 0-.053-.315.917.917 0 0 0-.508-.509 1.039 1.039 0 0 0-.315-.053 4.128 4.128 0 0 0-.092-.005 2.872 2.872 0 0 1-.089.706 2.417 2.417 0 0 1-1.662 1.662c-.327.094-.703.093-1.157.093h-6.21c-.454 0-.83 0-1.157-.093a2.417 2.417 0 0 1-1.662-1.662c-.093-.327-.093-.703-.093-1.156v-.189c0-.454 0-.83.093-1.157A2.417 2.417 0 0 1 4.757 1.59c.328-.093.703-.093 1.157-.092Zm.094 1.5c-.599 0-.742.007-.84.035a.917.917 0 0 0-.63.63c-.028.098-.036.241-.036.84 0 .6.008.743.036.84a.917.917 0 0 0 .63.63c.098.029.241.036.84.036h6.022c.6 0 .742-.007.84-.035a.917.917 0 0 0 .63-.63c.028-.098.036-.242.036-.84 0-.6-.008-.743-.035-.84a.917.917 0 0 0-.63-.631c-.099-.028-.242-.035-.84-.035H6.007ZM9.01 13.476v3.527h-1v-3.527h1Z" clip-rule="evenodd"/></svg>
