<svg fill="none" height="20" viewBox="0 0 20 20" width="20" xmlns="http://www.w3.org/2000/svg"><path clip-rule="evenodd" d="m20 10c0 5.5228-4.4772 10-10 10-5.52285 0-10-4.4772-10-10 0-5.52285 4.47715-10 10-10 5.5228 0 10 4.47715 10 10zm-14-2.5c0-.46594 0-.69891.07612-.88268.10149-.24503.29617-.43971.5412-.5412.18377-.07612.41674-.07612.88268-.07612s.69891 0 .88268.07612c.24503.10149.43971.29617.5412.5412.07612.18377.07612.41674.07612.88268v5c0 .4659 0 .6989-.07612.8827-.10149.245-.29617.4397-.5412.5412-.18377.0761-.41674.0761-.88268.0761s-.69891 0-.88268-.0761c-.24503-.1015-.43971-.2962-.5412-.5412-.07612-.1838-.07612-.4168-.07612-.8827zm5.0761-.88268c-.0761.18377-.0761.41674-.0761.88268v5c0 .4659 0 .6989.0761.8827.1015.245.2962.4397.5412.5412.1838.0761.4168.0761.8827.0761s.6989 0 .8827-.0761c.245-.1015.4397-.2962.5412-.5412.0761-.1838.0761-.4168.0761-.8827v-5c0-.46594 0-.69891-.0761-.88268-.1015-.24503-.2962-.43971-.5412-.5412-.1838-.07612-.4168-.07612-.8827-.07612s-.6989 0-.8827.07612c-.245.10149-.4397.29617-.5412.5412z" fill="currentColor" fill-rule="evenodd"/></svg>
