<svg fill="none" height="20" viewBox="0 0 20 20" width="20" xmlns="http://www.w3.org/2000/svg"><g fill="currentColor"><path d="m5 5.6c0-.56005 0-.84008.10899-1.05399.09588-.18816.24886-.34114.43702-.43702.21391-.10899.49394-.10899 1.05399-.10899h.8c.56005 0 .84008 0 1.05399.10899.18816.09588.34114.24886.43702.43702.10899.21391.10899.49394.10899 1.05399v8.8c0 .5601 0 .8401-.10899 1.054-.09588.1882-.24886.3411-.43702.437-.21391.109-.49394.109-1.05399.109h-.8c-.56005 0-.84008 0-1.05399-.109-.18816-.0959-.34114-.2488-.43702-.437-.10899-.2139-.10899-.4939-.10899-1.054z"/><path d="m11 5.6c0-.56005 0-.84008.109-1.05399.0959-.18816.2488-.34114.437-.43702.2139-.10899.4939-.10899 1.054-.10899h.8c.5601 0 .8401 0 1.054.10899.1882.09588.3411.24886.437.43702.109.21391.109.49394.109 1.05399v8.8c0 .5601 0 .8401-.109 1.054-.0959.1882-.2488.3411-.437.437-.2139.109-.4939.109-1.054.109h-.8c-.5601 0-.8401 0-1.054-.109-.1882-.0959-.3411-.2488-.437-.437-.109-.2139-.109-.4939-.109-1.054z"/></g></svg>
