<svg xmlns="http://www.w3.org/2000/svg" width="20" height="20" fill="currentColor" viewBox="0 0 20 20"><path d="M5 12a.5.5 0 0 1 .5-.5h1a.5.5 0 0 1 .5.5v1a.5.5 0 0 1-.5.5h-1A.5.5 0 0 1 5 13v-1Z"/><path fill-rule="evenodd" d="M7.817 3h4.366c.952 0 1.713 0 2.327.05.63.052 1.172.16 1.67.413a4.25 4.25 0 0 1 1.857 1.858c.253.497.361 1.04.413 1.67.05.613.05 1.374.05 2.326v1.366c0 .952 0 1.713-.05 2.327-.052.63-.16 1.172-.413 1.67a4.251 4.251 0 0 1-1.857 1.857c-.498.253-1.04.361-1.67.413-.614.05-1.375.05-2.327.05H7.817c-.952 0-1.713 0-2.327-.05-.63-.052-1.172-.16-1.67-.413a4.25 4.25 0 0 1-1.857-1.857c-.253-.498-.361-1.04-.413-1.67-.05-.614-.05-1.375-.05-2.327V9.317c0-.952 0-1.713.05-2.327.052-.63.16-1.172.413-1.67a4.25 4.25 0 0 1 1.858-1.857c.497-.253 1.04-.361 1.67-.413C6.103 3 6.864 3 7.816 3ZM4.502 4.8c.25-.128.573-.21 1.11-.255.546-.044 1.246-.045 2.238-.045h4.3c.992 0 1.692 0 2.238.045.537.044.86.127 1.11.255A2.75 2.75 0 0 1 16.7 6.002c.128.25.21.573.255 1.11l.024.388H3.021l.023-.388c.044-.537.127-.86.255-1.11A2.75 2.75 0 0 1 4.502 4.8ZM3 9.35v1.3c0 .992 0 1.692.045 2.238.044.537.127.86.255 1.11A2.75 2.75 0 0 0 4.502 15.2c.25.128.573.21 1.11.255.546.044 1.246.045 2.238.045h4.3c.992 0 1.692 0 2.238-.045.537-.044.86-.127 1.11-.255A2.751 2.751 0 0 0 16.7 14c.128-.252.21-.574.255-1.111.044-.546.045-1.245.045-2.238V9H3v.35Zm2.5 2.15h1a.5.5 0 0 1 .5.5v1a.5.5 0 0 1-.5.5h-1A.5.5 0 0 1 5 13v-1a.5.5 0 0 1 .5-.5Z" clip-rule="evenodd"/></svg>
