<svg xmlns="http://www.w3.org/2000/svg" width="20" height="20" fill="currentColor" viewBox="0 0 20 20"><path d="M7.5 2A1.5 1.5 0 0 0 6 3.5h8A1.5 1.5 0 0 0 12.5 2h-5Zm5.7 4.5H6.8c-.865 0-1.423 0-1.848.035-.408.034-.559.09-.633.128a1.5 1.5 0 0 0-.656.656c-.037.074-.094.225-.127.632C3.5 8.376 3.5 8.935 3.5 9.8v2.396c0 .864.001 1.423.036 1.848.033.407.09.558.127.633a1.5 1.5 0 0 0 .656.655c.074.038.225.094.633.128.425.034.983.036 1.848.036h2.95a.75.75 0 0 1 0 1.5H6.8c-1.68 0-2.52 0-3.162-.327a3 3 0 0 1-1.311-1.311C2 14.716 2 13.876 2 12.196V9.8c0-1.68 0-2.52.327-3.162a3 3 0 0 1 1.311-1.312C4.28 5 5.12 5 6.8 5h6.4c1.68 0 2.52 0 3.162.326a3 3 0 0 1 1.311 1.312c.259.507.313 1.138.324 2.211a.745.745 0 0 1-.747.751.755.755 0 0 1-.753-.75 13.025 13.025 0 0 0-.033-.899c-.033-.407-.09-.558-.127-.632a1.5 1.5 0 0 0-.656-.656c-.074-.038-.225-.094-.633-.128-.425-.034-.983-.035-1.848-.035Z M6.496 14.403a.327.327 0 0 1-.053-.393l.494-.865c.216-.377.48-.724.788-1.032l2.392-2.392a.75.75 0 0 1 1.061 1.06l-2.392 2.393a4.892 4.892 0 0 1-1.032.788l-.864.494a.327.327 0 0 1-.394-.053ZM12.375 9.5a.875.875 0 1 0 0-1.75.875.875 0 0 0 0 1.75Z M12 15.315c0-.46 0-.69.09-.866a.82.82 0 0 1 .359-.36c.13-.066.29-.083.551-.087v-.752a2.25 2.25 0 0 1 4.5 0v.752c.261.004.421.021.551.088a.82.82 0 0 1 .36.359c.089.175.089.405.089.866v1.87c0 .46 0 .69-.09.866a.82.82 0 0 1-.359.36c-.175.089-.405.089-.866.089h-3.87c-.46 0-.69 0-.866-.09a.82.82 0 0 1-.36-.359C12 17.876 12 17.646 12 17.185v-1.87ZM16.5 14v-.75a1.25 1.25 0 1 0-2.5 0V14h2.5Z" clip-rule="evenodd"/></svg>
