<svg xmlns="http://www.w3.org/2000/svg" width="20" height="20" fill="currentColor" viewBox="0 0 20 20"><path d="M7.5 2A1.5 1.5 0 0 0 6 3.5h8A1.5 1.5 0 0 0 12.5 2h-5ZM6.496 14.403a.327.327 0 0 1-.053-.393l.494-.865c.216-.377.48-.724.788-1.032l2.392-2.392a.75.75 0 0 1 1.061 1.06l-2.392 2.393a4.892 4.892 0 0 1-1.032.788l-.864.494a.327.327 0 0 1-.394-.053ZM12.375 9.5a.875.875 0 1 0 0-1.75.875.875 0 0 0 0 1.75Z"/><path fill-rule="evenodd" d="M2 9.8c0-1.68 0-2.52.327-3.162a3 3 0 0 1 1.311-1.312C4.28 5 5.12 5 6.8 5h6.4c1.68 0 2.52 0 3.162.326a3 3 0 0 1 1.311 1.312C18 7.279 18 8.119 18 9.8v2.396c0 1.68 0 2.52-.327 3.162a3 3 0 0 1-1.311 1.31c-.642.328-1.482.328-3.162.328H6.8c-1.68 0-2.52 0-3.162-.327a3 3 0 0 1-1.311-1.311C2 14.716 2 13.876 2 12.196V9.8Zm4.8-3.3h6.4c.865 0 1.423 0 1.848.035.408.034.559.09.633.128a1.5 1.5 0 0 1 .656.656c.037.074.094.225.127.632.035.425.036.984.036 1.849v2.396c0 .864-.001 1.423-.036 1.848-.033.407-.09.558-.127.633a1.5 1.5 0 0 1-.656.655c-.074.038-.225.094-.633.128-.425.034-.983.036-1.848.036H6.8c-.865 0-1.423-.002-1.848-.036-.408-.034-.559-.09-.633-.128a1.5 1.5 0 0 1-.656-.655c-.037-.075-.094-.226-.127-.633-.035-.425-.036-.984-.036-1.848V9.8c0-.865.001-1.424.036-1.849.033-.407.09-.558.127-.632a1.5 1.5 0 0 1 .656-.656c.074-.038.225-.094.633-.128.425-.034.983-.035 1.848-.035Z" clip-rule="evenodd"/></svg>
