<svg fill="none" height="20" viewBox="0 0 20 20" width="20" xmlns="http://www.w3.org/2000/svg" xmlns:xlink="http://www.w3.org/1999/xlink"><linearGradient id="a" gradientUnits="userSpaceOnUse" x1="-10" x2="10" y1="10" y2="30"><stop offset="0" stop-color="#50c750"/><stop offset="1" stop-color="#32b332"/></linearGradient><path d="m0 10c0-5.52285 4.47715-10 10-10 5.5228 0 10 4.47715 10 10 0 5.5228-4.4772 10-10 10-5.52285 0-10-4.4772-10-10z" fill="url(#a)"/><path d="m11.1731 11.8105c.7524-.7523 1.9367-.8217 2.7243-.1596l.569.4794c.6494.5466.7155 1.5318.1464 2.1999-.3103.3591-.7472.5846-1.2196.6297-1.8183.2449-3.72579-.6313-5.72355-2.6292-1.99775-1.998-2.87445-3.90615-2.62954-5.72409.01272-.14224.04228-.28247.08805-.41774.10591-.31076.29286-.5876.54154-.80192.66867-.56855 1.65324-.50305 2.19973.14696l.4788.5691c.66317.7865.59437 1.97149-.15795 2.72387l-.40836.40784c-.10887.10908-.14452.27144-.09135.4161.14859.40618.52778.91368 1.13646 1.52238.60923.6093 1.11665.9879 1.52227 1.1371.1447.053.3071.0172.416-.0919z" fill="#fff"/></svg>
