<svg xmlns="http://www.w3.org/2000/svg" width="20" height="20" fill="currentColor" viewBox="0 0 20 20"><path fill-rule="evenodd" d="M19.501 10.82v.04c0 .985-.362 1.897-1.15 2.5-.74.565-1.641.691-2.424.62-.256-.024-.44-.034-.62-.045a26.455 26.455 0 0 1-.22-.013 4.804 4.804 0 0 1-.873-.124l-.054-.013-.053-.017c-.77-.251-1.377-.617-1.826-1.093a3.183 3.183 0 0 1-.776-1.412c-.12-.465-.136-.883-.134-1.301a7.86 7.86 0 0 0-1.34-.13h-.005a8 8 0 0 0-1.404.128l.002.093c.002.275-.007.61-.086 1.006-.375 1.875-2.009 2.506-2.645 2.703-.326.1-.614.13-.888.152l-.342.022-.12.008c-.176.011-.382.025-.633.045l-.04.003-.04.001c-1.094.028-2.035-.325-2.655-1.09-.565-.696-.676-1.506-.676-2.037 0-.61.204-1.49.578-2.146.432-.76 1.052-1.331 1.664-1.819l.009-.007.01-.007c.825-.636 1.78-1.016 2.467-1.234a10.635 10.635 0 0 1 1.24-.312l.015-.002A19.774 19.774 0 0 1 10.075 5c.866.015 1.58.075 2.082.132a15.36 15.36 0 0 1 .757.105l.015.003a6.093 6.093 0 0 1 .38.058c.252.043.6.113 1.001.22.778.21 1.855.586 2.789 1.262.161.116 1.062.791 1.631 1.637.37.55.709 1.279.769 2.36l.002.041Zm-6.794-4.095s-1.034-.196-2.659-.224a18.335 18.335 0 0 0-3.302.314s-1.815.292-3.071 1.26c-.562.448-1.004.877-1.295 1.388a3.298 3.298 0 0 0-.381 1.403c0 .704.31 1.666 1.793 1.628.327-.026.58-.042.784-.055.446-.028.652-.041.874-.11.543-.168 1.417-.56 1.617-1.564.065-.322.06-.592.053-.896a8.924 8.924 0 0 1 .002-.56c.133-.563.588-.683 1.115-.8.798-.178 1.706-.176 1.79-.176h.004c.603 0 1.393.095 1.717.177l.109.026c.408.099.9.218 1.022.787 0 .181-.002.336-.004.473-.006.482-.009.737.083 1.095.117.459.45 1.071 1.614 1.45.261.065.48.077.801.096.187.01.407.023.69.049 1.087.1 1.938-.406 1.938-1.625-.043-.772-.272-1.245-.515-1.605-.412-.612-1.127-1.16-1.266-1.26-1.446-1.045-3.512-1.27-3.512-1.27Z" clip-rule="evenodd"/></svg>
