<svg xmlns="http://www.w3.org/2000/svg" width="20" height="20" fill="currentColor" viewBox="0 0 20 20"><path d="M7.5 2A1.5 1.5 0 0 0 6 3.5h8A1.5 1.5 0 0 0 12.5 2h-5ZM5.75 8a1.25 1.25 0 1 0 0 2.5 1.25 1.25 0 0 0 0-2.5Z"/><path fill-rule="evenodd" d="M1.827 6.638C1.5 7.28 1.5 8.12 1.5 9.8v2.9c0 1.68 0 2.52.327 3.162a3 3 0 0 0 1.311 1.311c.642.327 1.482.327 3.162.327h7.4c1.68 0 2.52 0 3.162-.327a3 3 0 0 0 1.311-1.311c.327-.642.327-1.482.327-3.162V9.8c0-1.68 0-2.52-.327-3.162a3 3 0 0 0-1.311-1.311C16.22 5 15.38 5 13.7 5H6.3c-1.68 0-2.52 0-3.162.327a3 3 0 0 0-1.311 1.311ZM13.7 6.5H6.3c-.865 0-1.423.001-1.848.036-.408.033-.559.09-.633.127a1.5 1.5 0 0 0-.656.656c-.037.074-.094.225-.127.633C3 8.377 3 8.935 3 9.8v2.9c0 .865.001 1.423.036 1.848.033.408.09.559.127.633a1.5 1.5 0 0 0 .408.496.759.759 0 0 1 .083-.097l3.08-3.035c.084-.083.176-.174.262-.246a1.24 1.24 0 0 1 .418-.241c.245-.08.51-.083.756-.008.185.057.324.154.423.234.087.07.18.159.267.24l.93.882 3.38-3.352c.087-.086.18-.179.268-.253.1-.083.24-.185.428-.245.25-.081.52-.08.77.001.188.062.328.164.427.248.087.074.18.168.266.254L17 11.729V9.8c0-.865-.001-1.423-.036-1.848-.033-.408-.09-.559-.127-.633a1.5 1.5 0 0 0-.656-.656c-.074-.037-.225-.094-.633-.127-.425-.035-.983-.036-1.848-.036Zm3.294 7.345-2.746-2.747-3.382 3.353c-.085.083-.176.174-.262.247a1.26 1.26 0 0 1-.419.243 1.25 1.25 0 0 1-.757.008 1.259 1.259 0 0 1-.424-.233 4.686 4.686 0 0 1-.268-.242l-.93-.88-2.438 2.403C5.634 16 5.94 16 6.3 16h7.4c.865 0 1.423-.001 1.848-.036.408-.033.559-.09.633-.128a1.5 1.5 0 0 0 .655-.655c.038-.074.095-.225.128-.633.016-.199.025-.428.03-.703Z" clip-rule="evenodd"/></svg>
