<svg xmlns="http://www.w3.org/2000/svg" width="20" height="20" fill="currentColor" viewBox="0 0 20 20"><path fill-rule="evenodd" d="M11.38 3.5H5.878a4 4 0 0 1 1.306-1.064C8.04 2 9.16 2 11.4 2h.2c2.24 0 3.36 0 4.216.436a4 4 0 0 1 1.748 1.748C18 5.039 18 6.159 18 8.4v.2c0 2.24 0 3.36-.436 4.216-.26.508-.623.953-1.064 1.306V8.62c0-1.793 0-2.689-.349-3.373a3.2 3.2 0 0 0-1.398-1.399c-.685-.348-1.58-.348-3.373-.348ZM6.13 5c-1.443 0-1.968.146-2.496.428-.52.278-.927.686-1.205 1.206-.283.528-.43 1.052-.43 2.495v4.742c0 1.442.147 1.966.43 2.494.278.52.685.928 1.205 1.206.528.282 1.053.429 2.495.429h4.742c1.442 0 1.967-.147 2.495-.429.52-.278.927-.686 1.205-1.206.283-.527.429-1.052.429-2.494V9.128c0-1.443-.146-1.967-.429-2.495a2.898 2.898 0 0 0-1.205-1.206C12.838 5.146 12.313 5 10.87 5H6.129Zm-.071 7.996 1.74 1.994L10.232 12l2.696 3.435a.35.35 0 0 1-.277.563h-8.3a.35.35 0 0 1-.273-.568l1.98-2.434Z" clip-rule="evenodd"/></svg>
