<svg xmlns="http://www.w3.org/2000/svg" width="20" height="20" fill="currentColor" viewBox="0 0 20 20"><path fill-rule="evenodd" d="M8.793 9.827Zm0 0a107.066 107.066 0 0 1 1.234 1.247l.001.001.475.483-.003.003-2.717-2.718c.352.335.686.661 1.01.984Z" clip-rule="evenodd"/><path fill-rule="evenodd" d="M8.793 9.827a107.066 107.066 0 0 1 1.234 1.247l.001.001.475.483-.003.003-2.717-2.718c.352.335.686.661 1.01.984Z" clip-rule="evenodd"/><path fill-rule="evenodd" d="M1.22 1.22a.75.75 0 0 1 1.06 0L7.06 6l.013.012 1.415 1.415L11.56 10.5l1.07 1.07 6.15 6.15a.75.75 0 1 1-1.061 1.06l-1.542-1.41-.07.037-.118.063c-.65.35-1.3.53-3.07.53H7.08c-1.77 0-2.42-.18-3.07-.53-.64-.34-1.14-.84-1.48-1.48-.35-.65-.53-1.3-.53-3.07V8.317l-.002-.635c-.004-.664-.006-1.22.032-1.692.051-.63.11-.99.3-1.57 0 0 .14-.3.31-.598L1.22 2.28a.75.75 0 0 1 0-1.06Zm4.892 15.235c-.537-.044-.86-.127-1.11-.255a2.748 2.748 0 0 1-.599-.412L6.83 13.35l.67-.64s.15-.137.27-.18a.601.601 0 0 1 .46 0c.12.043.27.18.27.18l.67.645.3.305c.14.14.33.21.53.21s.39-.07.53-.21l1.052-1.02.666.669 2.843 2.842-.092.05c-.252.127-.574.21-1.111.254-.546.044-1.245.045-2.238.045h-3.3c-.992 0-1.692 0-2.238-.045ZM3.8 5.002l.049-.092 2.163 2.163v.002a1.25 1.25 0 0 0 1.415 1.412l.356.356 2.717 2.718-.5.499s-.306-.319-.53-.49l-.055-.042a7.268 7.268 0 0 1-.04-.032c-.225-.173-.392-.301-.675-.386-.46-.15-.94-.15-1.4 0-.3.09-.54.27-.77.46-.22.18-.74.7-.74.7l-2.181 2.126a5.201 5.201 0 0 1-.064-.508c-.044-.546-.045-1.245-.045-2.238v-3.3c0-.992 0-1.692.045-2.238.044-.537.127-.86.255-1.11Z" clip-rule="evenodd"/><path d="M6.25 2.76c0 .414.346.74.76.74h5.91c1.66 0 2.02.17 2.36.35.38.2.63.453.87.87.277.482.26.855.305 1.392.044.546.045 1.246.045 2.238v2.21l-.29-.29-.74-.7s-.439-.347-.77-.46a2.035 2.035 0 0 0-.7-.112c-.5.002-.9.331-.9.802 0 .449.4.7.9.7 0 0 .08-.02.23.03.04.02.11.05.27.18.16.13.41.388.67.64.527.511 1.33 1.33 1.33 1.33v.31a.75.75 0 0 0 1.5.02V7.08c0-1.77-.086-2.376-.463-3.07-.4-.735-1.05-1.226-1.547-1.48-.65-.35-1.3-.53-3.07-.53H6.99a.75.75 0 0 0-.74.76Z"/></svg>
