<svg xmlns="http://www.w3.org/2000/svg" width="20" height="20" fill="none" viewBox="0 0 20 20"><path fill="currentColor" d="M12.5981 2.2203c-.4236-.4236-1.1483-.2041-1.2658.3832l-.3079 1.54a.2968.2968 0 0 1-.0813.1518L8.4799 6.7585a.297.297 0 0 1-.1872.0861l-3.8585.2968c-.8834.093-1.2386 1.1234-.6378 1.7242l2.962 2.9618-4.4655 4.4655c-.3905.3905-.3905 1.0237 0 1.4142.3905.3905 1.0237.3905 1.4142 0l4.4655-4.4655 2.9624 2.9627c.6194.6194 1.6587.2142 1.7242-.6378l.2968-3.8585a.2973.2973 0 0 1 .0861-.1872l2.4633-2.4633a.2973.2973 0 0 1 .1517-.0812l1.54-.308c.5874-.1175.8068-.8422.3832-1.2658l-5.1822-5.1822Z"/></svg>
