<?xml version="1.0" encoding="UTF-8"?>
<svg width="20px" height="20px" viewBox="0 0 20 20" version="1.1" xmlns="http://www.w3.org/2000/svg" xmlns:xlink="http://www.w3.org/1999/xlink">
    <!-- Generator: Sketch 63.1 (92452) - https://sketch.com -->
    <title>place_outline_20</title>
    <desc>Created with Sketch.</desc>
    <g id="Icons" stroke="none" stroke-width="1" fill="none" fill-rule="evenodd">
        <g id="Icons-20/place_outline_20">
            <g id="place_outline_20">
                <rect opacity="0.4" x="0" y="0" width="20" height="20"></rect>
                <path d="M10,1 C14.1479521,1 17.5,4.43255973 17.5,8.5 C17.5,11.3504127 15.6565654,14.6715416 12.0653768,18.5947928 C12.0097071,18.6556101 11.9513783,18.7139388 11.890561,18.7696085 C10.7498578,19.8137617 8.97867153,19.7354778 7.93460338,18.5947712 C4.34342792,14.6715295 2.5,11.3504076 2.5,8.5 C2.5,4.43255973 5.8520479,1 10,1 Z M10,2.5 C6.61818182,2.5 4,5.32517933 4,8.5 C4,10.8831887 5.68035163,13.9105122 9.04105489,17.5819706 C9.52581763,18.1116027 10.3481487,18.147942 10.8777604,17.6631569 C10.9059974,17.63731 10.9330789,17.6102285 10.9589259,17.5819915 C14.319642,13.9105238 16,10.8831933 16,8.5 C16,5.32517933 13.3818182,2.5 10,2.5 Z M10,5 C11.9324271,5 13.5,6.56757288 13.5,8.5 C13.5,10.4324271 11.9324271,12 10,12 C8.06757288,12 6.5,10.4324271 6.5,8.5 C6.5,6.56757288 8.06757288,5 10,5 Z M10,6.5 C8.896,6.5 8,7.396 8,8.5 C8,9.604 8.896,10.5 10,10.5 C11.104,10.5 12,9.604 12,8.5 C12,7.396 11.104,6.5 10,6.5 Z" id="↳-Icon-Color" fill="currentColor" fill-rule="nonzero"></path>
            </g>
        </g>
    </g>
</svg>
