<svg xmlns="http://www.w3.org/2000/svg" width="20" height="20" fill="currentColor" viewBox="0 0 20 20"><path fill-rule="evenodd" d="M16.453 4.108a.8.8 0 0 0-.561-.561 1.318 1.318 0 0 0-1.23.292l-2.325 2.096a1.725 1.725 0 0 1-1.697.356L6.113 4.792a1.25 1.25 0 0 0-1.277.303l-.261.261a.25.25 0 0 0 .066.401L8.325 7.57c.77.378.938 1.4.333 2.006L6.823 11.41a1.75 1.75 0 0 1-1.363.508l-2.687-.194c-.099-.007-.147.02-.174.042a.274.274 0 0 0-.088.152.273.273 0 0 0 .013.174c.015.032.047.078.138.114l2.972 1.182c.447.177.802.531.98.978L7.8 17.342c.036.091.081.123.114.138a.27.27 0 0 0 .174.013.273.273 0 0 0 .151-.088c.023-.028.05-.076.042-.174l-.197-2.689a1.75 1.75 0 0 1 .507-1.366l1.834-1.834a1.25 1.25 0 0 1 2.006.333l1.812 3.684a.25.25 0 0 0 .4.066l.262-.26a1.25 1.25 0 0 0 .303-1.278l-1.5-4.527a1.725 1.725 0 0 1 .357-1.697l2.096-2.326c.3-.333.41-.796.292-1.229ZM16.286 2.1a2.3 2.3 0 0 1 1.615 1.615 2.818 2.818 0 0 1-.626 2.628L15.18 8.667a.225.225 0 0 0-.046.221l1.499 4.528a2.75 2.75 0 0 1-.666 2.809l-.261.261a1.75 1.75 0 0 1-2.808-.465l-1.658-3.37-1.587 1.586a.25.25 0 0 0-.072.195l.197 2.689c.147 1.996-2.63 2.635-3.37.776L5.22 14.92a.25.25 0 0 0-.14-.14L2.108 13.6c-1.859-.74-1.223-3.516.773-3.372l2.687.194a.25.25 0 0 0 .194-.072L7.35 8.76 3.98 7.103a1.75 1.75 0 0 1-.466-2.807l.261-.262a2.75 2.75 0 0 1 2.81-.666l4.527 1.5a.225.225 0 0 0 .221-.047l2.325-2.096a2.818 2.818 0 0 1 2.628-.626Z" clip-rule="evenodd"/></svg>
