<svg xmlns="http://www.w3.org/2000/svg" width="20" height="20" fill="currentColor" viewBox="0 0 20 20"><path d="M6 3.5A1.5 1.5 0 0 1 7.5 2h5A1.5 1.5 0 0 1 14 3.5H6Zm5.828 8.082a.4.4 0 0 0 0-.66L9.126 9.07a.4.4 0 0 0-.626.33v3.702a.4.4 0 0 0 .626.33l2.702-1.851Z"/><path fill-rule="evenodd" d="M2.327 6.638C2 7.28 2 8.12 2 9.8v2.396c0 1.68 0 2.52.327 3.162a3 3 0 0 0 1.311 1.311c.642.327 1.482.327 3.162.327h6.4c1.68 0 2.52 0 3.162-.327a3 3 0 0 0 1.311-1.31c.327-.643.327-1.483.327-3.163V9.8c0-1.68 0-2.52-.327-3.162a3 3 0 0 0-1.311-1.311C15.72 5 14.88 5 13.2 5H6.8c-1.68 0-2.52 0-3.162.327a3 3 0 0 0-1.311 1.311ZM13.2 6.5H6.8c-.865 0-1.423.001-1.848.036-.408.033-.559.09-.633.127a1.5 1.5 0 0 0-.656.656c-.037.074-.094.225-.127.633C3.5 8.377 3.5 8.935 3.5 9.8v2.396c0 .865.001 1.423.036 1.848.033.408.09.559.127.633a1.5 1.5 0 0 0 .656.656c.074.037.225.094.633.127.425.035.983.036 1.848.036h6.4c.865 0 1.423-.001 1.848-.036.408-.033.559-.09.633-.127a1.5 1.5 0 0 0 .656-.656c.037-.074.094-.225.127-.633.035-.425.036-.983.036-1.848V9.8c0-.865-.001-1.423-.036-1.848-.033-.408-.09-.559-.127-.633a1.5 1.5 0 0 0-.656-.656c-.074-.037-.225-.094-.633-.127-.425-.035-.983-.036-1.848-.036Z" clip-rule="evenodd"/></svg>
