<svg width="20" height="20" viewBox="0 0 20 20" fill="none" xmlns="http://www.w3.org/2000/svg">
<path d="M20 10C20 15.5228 15.5228 20 10 20C4.47715 20 0 15.5228 0 10C0 4.47715 4.47715 0 10 0C15.5228 0 20 4.47715 20 10Z" fill="#818C99"/>
<path d="M7.79909 5.69379L14.7332 9.55417C14.9882 9.69612 15.0757 10.0108 14.9287 10.257C14.8818 10.3354 14.8144 10.4005 14.7332 10.4457L7.79909 14.3061C7.54411 14.4481 7.21824 14.3636 7.07124 14.1174C7.02457 14.0392 7 13.9506 7 13.8603V6.13958C7 5.85538 7.23859 5.625 7.53291 5.625C7.62635 5.625 7.71814 5.64872 7.79909 5.69379Z" fill="white"/>
</svg>
