<svg fill="none" height="20" viewBox="0 0 20 20" width="20" xmlns="http://www.w3.org/2000/svg"><path clip-rule="evenodd" d="m10 20c5.5228 0 10-4.4772 10-10 0-5.52285-4.4772-10-10-10-5.52285 0-10 4.47715-10 10 0 5.5228 4.47715 10 10 10zm4.7332-10.44583-6.93411-3.86038c-.08095-.04507-.17274-.06879-.26618-.06879-.29432 0-.53291.23038-.53291.51458v7.72072c0 .0903.02457.1789.07124.2571.147.2462.47287.3307.72785.1887l6.93411-3.8604c.0812-.0452.1486-.1103.1955-.1887.147-.2462.0595-.56088-.1955-.70283z" fill="currentColor" fill-rule="evenodd"/></svg>
