<svg xmlns="http://www.w3.org/2000/svg" width="20" height="20" fill="currentColor" viewBox="0 0 20 20"><path d="M2 4.75A.75.75 0 0 1 2.75 4h8a.75.75 0 0 1 0 1.5h-8A.75.75 0 0 1 2 4.75Zm0 5A.75.75 0 0 1 2.75 9h6.5a.75.75 0 1 1 0 1.5h-6.5A.75.75 0 0 1 2 9.75Zm0 5a.75.75 0 0 1 .75-.75h3.5a.75.75 0 0 1 0 1.5h-3.5a.75.75 0 0 1-.75-.75Z"/><path fill-rule="evenodd" d="M18.23 3.171a.75.75 0 0 0-.622-.157l-.007.002-.017.003-.064.013-.23.05c-.195.043-.467.107-.778.188-.611.16-1.41.4-2.065.703C13.185 4.556 13 5.928 13 6.847v1.911c-.002 1.427-.003 2.566-.002 3.267-1.966.133-3.312.795-4.015 1.772-.81 1.124-.64 2.51.237 3.387a2.82 2.82 0 0 0 3.367.455c1.16-.642 1.916-2.055 1.916-4.139l-.001-.751v-.02a545.94 545.94 0 0 1-.003-4.056v-.125l1.934-.617c.925-.295 1.777-1.04 1.93-2.151a15.693 15.693 0 0 0 .137-1.847c.002-.056.002-.1.002-.131V3.75a.75.75 0 0 0-.272-.58ZM14.5 6.973l1.476-.471c.526-.168.846-.53.901-.927.041-.297.07-.6.088-.872l-.072.018c-.587.154-1.284.367-1.817.613-.37.172-.575.634-.575 1.514v.125Zm-1.497 6.555c-1.635.128-2.46.67-2.803 1.146-.373.518-.284 1.084.08 1.449a1.32 1.32 0 0 0 1.58.204c.524-.29 1.136-1.076 1.143-2.799Z" clip-rule="evenodd"/></svg>