<svg fill="none" height="20" viewBox="0 0 20 20" width="20" xmlns="http://www.w3.org/2000/svg" xmlns:xlink="http://www.w3.org/1999/xlink"><linearGradient id="a" gradientUnits="userSpaceOnUse" x1="-10" x2="10" y1="10" y2="30"><stop offset="0" stop-color="#ff5263"/><stop offset="1" stop-color="#ff3347"/></linearGradient><path d="m0 10c0-5.52285 4.47715-10 10-10 5.5228 0 10 4.47715 10 10 0 5.5228-4.4772 10-10 10-5.52285 0-10-4.4772-10-10z" fill="url(#a)"/><path clip-rule="evenodd" d="m16 9c0-3.31371-2.6863-6-6-6-3.31371 0-6 2.68629-6 6l.00013.00835c-.24361.01697-.36571.05952-.48855.12522-.16297.08715-.29086.21504-.37801.37801-.08716.16296-.13357.3246-.13357.77032v1.5601c0 .297.04641.4835.13357.6464.08715.163.21504.2909.37801.378.16296.0872.3494.1336.6464.1336h.18404c.297 0 .48344-.0464.6464-.1336.16297-.0871.29086-.215.37801-.378.08716-.1629.13357-.3494.13357-.6464v-2.842l.0049-.21184c.11061-2.38692 2.08083-4.28816 4.4951-4.28816 2.4853 0 4.5 2.01472 4.5 4.5v2.842c0 .297.0464.4835.1336.6464.0871.163.215.2909.378.378.1629.0872.3494.1336.6464.1336h.184c.297 0 .4835-.0464.6464-.1336.163-.0871.2909-.215.378-.378.0872-.1629.1336-.3494.1336-.6464v-1.5601c0-.44572-.0464-.60736-.1336-.77032-.0871-.16297-.215-.29086-.378-.37801-.1227-.06562-.2446-.10814-.4884-.13357zm-6-3c-.82822 0-1.57925.33661-2.12132.87868s-.87868 1.2931-.87868 2.12132v1 1.4.6c0 .8282.33661 1.5792.87868 2.1213.37263.3727.84401.6482 1.37132.784v.8662c0 .164.03017.29.08682.396.05665.1059.13978.189.24571.2457.10592.0566.23194.0868.396.0868h.04297c.164 0 .29-.0302.396-.0868.1059-.0567.189-.1398.2457-.2457.0566-.106.0868-.232.0868-.396v-.8662c.5273-.1358.9987-.4113 1.3713-.784.5421-.5421.8787-1.2931.8787-2.1213v-3c0-.82822-.3366-1.57925-.8787-2.12132s-1.2931-.87868-2.1213-.87868zm-.60798 5.4h-.89202v.6c0 .4144.16707.7884.43934 1.0607.27227.2722.64624.4393 1.06066.4393.4144 0 .7884-.1671 1.0607-.4393.2722-.2723.4393-.6463.4393-1.0607v-3c0-.41442-.1671-.78839-.4393-1.06066-.2723-.27227-.6463-.43934-1.0607-.43934-.41442 0-.78839.16707-1.06066.43934s-.43934.64624-.43934 1.06066v1h.89202c.18329 0 .27071.0232.35219.0668s.14543.1075.18901.189c.04357.0815.06678.1689.06678.3522v.184c0 .1833-.02321.2707-.06678.3522-.04358.0815-.10753.1454-.18901.189s-.1689.0668-.35219.0668z" fill="#fff" fill-rule="evenodd"/></svg>
