<?xml version="1.0" encoding="UTF-8"?>
<svg width="20px" height="20px" viewBox="0 0 20 20" version="1.1" xmlns="http://www.w3.org/2000/svg" xmlns:xlink="http://www.w3.org/1999/xlink">
    <!-- Generator: Sketch 63.1 (92452) - https://sketch.com -->
    <title>podcast_outline_20</title>
    <desc>Created with Sketch.</desc>
    <g id="Icons" stroke="none" stroke-width="1" fill="none" fill-rule="evenodd">
        <g id="Icons-20/podcast_outline_20">
            <g id="podcast_outline_20">
                <rect id="Shape" opacity="0.4" x="0" y="0" width="20" height="20"></rect>
                <path d="M10,5 C12.209139,5 14,6.790861 14,9 L14,12 C14,13.9525803 12.6009489,15.5783946 10.7506018,15.9296879 L10.75,17.25 C10.75,17.6642136 10.4142136,18 10,18 C9.58578644,18 9.25,17.6642136 9.25,17.25 L9.25039462,15.9298769 C7.39955342,15.5789783 6,13.9529307 6,12 L6,9 C6,6.790861 7.790861,5 10,5 Z M10,6.5 C8.61928813,6.5 7.5,7.61928813 7.5,9 L7.5,12 C7.5,13.3807119 8.61928813,14.5 10,14.5 C10.818842,14.5 11.5457367,14.1063267 12.0017431,13.4979209 C11.9657048,13.4994755 11.9229036,13.5 11.8717396,13.5 L10.45,13.5 C10.0357864,13.5 9.7,13.1642136 9.7,12.75 C9.7,12.3357864 10.0357864,12 10.45,12 L12.5,12 L12.5,12 L12.5,10.5 L10.45,10.5 C10.0357864,10.5 9.7,10.1642136 9.7,9.75 C9.7,9.33578644 10.0357864,9 10.45,9 L12.5,9 C12.5,7.61928813 11.3807119,6.5 10,6.5 Z M10,2 C13.5489901,2 16.4811147,4.641115 16.9381084,8.0650796 C17.5529433,8.25259521 18,8.82408977 18,9.5 L18,12.5 C18,13.3284271 17.3284271,14 16.5,14 C15.6715729,14 15,13.3284271 15,12.5 L15,9.5 C15,9.07157323 15.179613,8.68509731 15.467646,8.41176518 C15.1833268,5.7231383 12.9596033,3.61268374 10.2212071,3.5043672 L10,3.5 C7.16102814,3.5 4.8244433,5.65097455 4.53104934,8.41211979 C4.82038701,8.68509731 5,9.07157323 5,9.5 L5,12.5 C5,13.3284271 4.32842712,14 3.5,14 C2.67157288,14 2,13.3284271 2,12.5 L2,9.5 C2,8.82408977 2.44705666,8.25259521 3.06161063,8.06507568 C3.51888533,4.641115 6.45100994,2 10,2 Z" id="↳-Icon-Color" fill="currentColor" fill-rule="nonzero"></path>
            </g>
        </g>
    </g>
</svg>
