<svg xmlns="http://www.w3.org/2000/svg" width="20" height="20" fill="none" viewBox="0 0 20 20"><path fill="currentColor" fill-rule="evenodd" d="M10.8999 2H9.1001c-.4786 0-.8825 0-1.2134.027-.3465.0283-.6785.09-.9944.251A2.55 2.55 0 0 0 5.778 3.3922c-.161.3159-.2226.6479-.2509.9944-.0251.3076-.0269.6782-.027 1.1133-.435.0001-.8057.0019-1.1133.027-.3465.0283-.6785.09-.9944.251A2.55 2.55 0 0 0 2.278 6.8922c-.161.3159-.2226.6479-.2509.9944C2 8.2176 2 8.6215 2 9.1v1.7998c0 .4786 0 .8825.027 1.2134.0283.3465.09.6785.251.9944a2.5502 2.5502 0 0 0 1.1143 1.1144c.3159.1609.6479.2226.9944.2509.3076.0251.6782.0269 1.1133.027.0001.4351.0019.8057.027 1.1133.0283.3465.09.6785.251.9944a2.5502 2.5502 0 0 0 1.1143 1.1144c.3159.1609.6479.2226.9944.2509C8.2176 18 8.6215 18 9.1 18h1.7998c.4786 0 .8825 0 1.2134-.027.3465-.0283.6785-.09.9944-.2509a2.5504 2.5504 0 0 0 1.1144-1.1144c.1609-.3159.2226-.6479.2509-.9944.0251-.3076.0269-.6782.027-1.1133.4351-.0001.8057-.0019 1.1133-.027.3465-.0283.6785-.09.9944-.2509a2.5504 2.5504 0 0 0 1.1144-1.1144c.1609-.3159.2226-.6479.2509-.9944C18 11.7824 18 11.3785 18 10.9V9.1c0-.4785 0-.8824-.027-1.2133-.0283-.3465-.09-.6785-.2509-.9944a2.5502 2.5502 0 0 0-1.1144-1.1144c-.3159-.161-.6479-.2226-.9944-.2509-.3076-.0251-.6782-.0269-1.1133-.027-.0001-.435-.0019-.8057-.027-1.1133-.0283-.3465-.09-.6785-.2509-.9944a2.5502 2.5502 0 0 0-1.1144-1.1144c-.3159-.161-.6479-.2226-.9944-.2509C11.7824 2 11.3785 2 10.8999 2ZM7 13.75v.62c0 .5164.0006.8586.022 1.1212.0208.2537.0572.3663.0924.4355.1007.1976.2613.3582.459.4589.069.0352.1817.0716.4354.0924.2626.0214.6048.022 1.1212.022h1.74c.5164 0 .8586-.0006 1.1212-.022.2537-.0208.3663-.0572.4355-.0924a1.0502 1.0502 0 0 0 .4589-.4589c.0352-.0692.0716-.1818.0924-.4355.0214-.2626.022-.6048.022-1.1212V12.5H7v1.25Zm-2.4912-.772c.2399.0196.5462.0217.9912.022v-1.25a.7499.7499 0 0 1 .75-.75h7.5a.75.75 0 0 1 .75.75V13c.445-.0003.7513-.0024.9912-.022.2537-.0208.3663-.0572.4355-.0924a1.0502 1.0502 0 0 0 .4589-.4589c.0352-.0692.0716-.1818.0924-.4355.0214-.2626.022-.6048.022-1.1212V9.13c0-.5164-.0006-.8586-.022-1.1212-.0208-.2537-.0572-.3663-.0924-.4355a1.0501 1.0501 0 0 0-.4589-.4589c-.0692-.0352-.1818-.0716-.4355-.0924C15.2286 7.0006 14.8864 7 14.37 7H5.63c-.5164 0-.8586.0006-1.1212.022-.2537.0208-.3663.0572-.4355.0924a1.05 1.05 0 0 0-.4589.459c-.0352.069-.0716.1817-.0924.4354-.0214.2626-.022.6048-.022 1.1212v1.74c0 .5164.0006.8586.022 1.1212.0208.2537.0572.3663.0924.4355.1007.1976.2613.3582.459.4589.069.0352.1817.0716.4354.0924ZM13 5.5c-.0003-.445-.0024-.7513-.022-.9912-.0208-.2537-.0572-.3663-.0924-.4355a1.0501 1.0501 0 0 0-.4589-.4589c-.0692-.0352-.1818-.0716-.4355-.0924-.2626-.0214-.6048-.022-1.1212-.022H9.13c-.5164 0-.8586.0006-1.1212.022-.2537.0208-.3663.0572-.4355.0924a1.05 1.05 0 0 0-.4589.459c-.0352.069-.0716.1817-.0924.4354-.0196.2399-.0217.5462-.022.9912h6Z" clip-rule="evenodd"/><path fill="currentColor" fill-rule="evenodd" d="M14.2463 9.75a.75.75 0 0 0 .75-.75.75.75 0 1 0-.75.75Z" clip-rule="evenodd"/></svg>
