<svg fill="none" height="20" viewBox="0 0 20 20" width="20" xmlns="http://www.w3.org/2000/svg" xmlns:xlink="http://www.w3.org/1999/xlink"><linearGradient id="a" gradientUnits="userSpaceOnUse" x1="-10" x2="10" y1="10" y2="30"><stop offset="0" stop-color="#70b2ff"/><stop offset="1" stop-color="#5c9ce6"/></linearGradient><path d="m0 10c0-5.52285 4.47715-10 10-10 5.5228 0 10 4.47715 10 10 0 5.5228-4.4772 10-10 10-5.52285 0-10-4.4772-10-10z" fill="url(#a)"/><path d="m6.20001 6.5c.33137 0 .6.26863.6.6v2.2498c0 .24853.20147.45.45.45.24852 0 .45-.20147.45-.45v-3.7498c0-.33137.26862-.6.6-.6.33137 0 .6.26863.6.6v3.2498c0 .24853.20147.45.45.45.24852 0 .45-.20147.45-.45v-3.94999c0-.33138.26859-.60001.59999-.60001.3314 0 .6.26863.6.6v3.95c0 .24853.2015.45.45.45.2485 0 .45-.20147.45-.45v-2.95c0-.33137.2686-.6.6-.6.3314 0 .6.26863.6.6v5.47l1.4154-1.56951c.2896-.32113.7891-.33428 1.0952-.02883.277.27654.2977.71804.047 1.01864-.6127.7341-1.7162 2.0568-2.359 2.8281-1.0514 1.2617-2.5913 1.6817-3.74983 1.6817-3.78043 0-3.94876-2.5455-3.94876-3.4071v-4.7928c0-.33137.26863-.6.6-.6z" fill="#fff"/></svg>
