<svg xmlns="http://www.w3.org/2000/svg" width="20" height="20" viewBox="0 0 20 20" fill="currentColor"><path d="M4.805 5.023c-.055.107-.055.247-.055.527v.15c0 .28 0 .42.054.527a.5.5 0 0 0 .219.218c.107.055.247.055.527.055h.15c.28 0 .42 0 .527-.054a.5.5 0 0 0 .218-.219C6.5 6.12 6.5 5.98 6.5 5.7v-.15c0-.28 0-.42-.054-.527a.5.5 0 0 0-.219-.218C6.12 4.75 5.98 4.75 5.7 4.75h-.15c-.28 0-.42 0-.527.054a.5.5 0 0 0-.218.219"/><path fill-rule="evenodd" d="M2.218 3.092C2 3.52 2 4.08 2 5.2v.85c0 1.12 0 1.68.218 2.108a2 2 0 0 0 .874.874c.428.218.988.218 2.108.218h.85c1.12 0 1.68 0 2.108-.218a2 2 0 0 0 .874-.874c.218-.428.218-.988.218-2.108V5.2c0-1.12 0-1.68-.218-2.108a2 2 0 0 0-.874-.874C7.73 2 7.17 2 6.05 2H5.2c-1.12 0-1.68 0-2.108.218a2 2 0 0 0-.874.874M6.05 3.5H5.2c-.585 0-.933.001-1.191.022-.158.013-.224.03-.242.036a.5.5 0 0 0-.21.209 1.3 1.3 0 0 0-.035.242c-.02.258-.022.606-.022 1.191v.85c0 .585.001.933.022 1.191.013.158.03.224.036.242a.5.5 0 0 0 .209.21c.018.005.084.022.242.035.258.02.606.022 1.191.022h.85c.585 0 .933-.001 1.191-.022.158-.013.224-.03.242-.036a.5.5 0 0 0 .21-.209c.005-.018.022-.084.035-.242.02-.258.022-.606.022-1.191V5.2c0-.585-.001-.933-.022-1.191a1.3 1.3 0 0 0-.036-.242.5.5 0 0 0-.209-.21 1.3 1.3 0 0 0-.242-.035c-.258-.02-.606-.022-1.191-.022" clip-rule="evenodd"/><path d="M4.75 14.3c0-.28 0-.42.054-.527a.5.5 0 0 1 .219-.218c.107-.055.247-.055.527-.055h.15c.28 0 .42 0 .527.055a.5.5 0 0 1 .218.218c.055.107.055.247.055.527v.15c0 .28 0 .42-.054.527a.5.5 0 0 1-.219.218c-.107.055-.247.055-.527.055h-.15c-.28 0-.42 0-.527-.055a.5.5 0 0 1-.218-.218c-.055-.107-.055-.247-.055-.527z"/><path fill-rule="evenodd" d="M2.218 11.842C2 12.27 2 12.83 2 13.95v.85c0 1.12 0 1.68.218 2.108a2 2 0 0 0 .874.874C3.52 18 4.08 18 5.2 18h.85c1.12 0 1.68 0 2.108-.218a2 2 0 0 0 .874-.874c.218-.428.218-.988.218-2.108v-.85c0-1.12 0-1.68-.218-2.108a2 2 0 0 0-.874-.874c-.428-.218-.988-.218-2.108-.218H5.2c-1.12 0-1.68 0-2.108.218a2 2 0 0 0-.874.874m3.832.408H5.2c-.585 0-.933.001-1.191.022-.158.013-.224.03-.242.036a.5.5 0 0 0-.21.209 1.3 1.3 0 0 0-.035.242c-.02.258-.022.606-.022 1.191v.85c0 .585.001.933.022 1.191.013.158.03.224.036.242a.5.5 0 0 0 .209.21c.018.005.084.022.242.035.258.02.606.022 1.191.022h.85c.585 0 .933-.001 1.191-.022.158-.013.224-.03.242-.036a.5.5 0 0 0 .21-.209c.005-.018.022-.084.035-.242.02-.258.022-.606.022-1.191v-.85c0-.585-.001-.933-.022-1.191a1.3 1.3 0 0 0-.036-.242.5.5 0 0 0-.209-.21 1.3 1.3 0 0 0-.242-.035c-.258-.02-.606-.022-1.191-.022" clip-rule="evenodd"/><path d="M13.555 5.023c-.055.107-.055.247-.055.527v.15c0 .28 0 .42.055.527a.5.5 0 0 0 .218.218c.107.055.247.055.527.055h.15c.28 0 .42 0 .527-.054a.5.5 0 0 0 .218-.219c.055-.107.055-.247.055-.527v-.15c0-.28 0-.42-.055-.527a.5.5 0 0 0-.218-.218c-.107-.055-.247-.055-.527-.055h-.15c-.28 0-.42 0-.527.054a.5.5 0 0 0-.218.219"/><path fill-rule="evenodd" d="M10.75 5.2c0-1.12 0-1.68.218-2.108a2 2 0 0 1 .874-.874C12.27 2 12.83 2 13.95 2h.85c1.12 0 1.68 0 2.108.218a2 2 0 0 1 .874.874C18 3.52 18 4.08 18 5.2v.85c0 1.12 0 1.68-.218 2.108a2 2 0 0 1-.874.874c-.428.218-.988.218-2.108.218h-.85c-1.12 0-1.68 0-2.108-.218a2 2 0 0 1-.874-.874c-.218-.428-.218-.988-.218-2.108zm3.2-1.7h.85c.585 0 .933.001 1.191.022.158.013.224.03.242.036a.5.5 0 0 1 .21.209c.005.018.022.084.035.242.02.258.022.606.022 1.191v.85c0 .585-.001.933-.022 1.191-.013.158-.03.224-.036.242a.5.5 0 0 1-.209.21 1.3 1.3 0 0 1-.242.035c-.258.02-.606.022-1.191.022h-.85c-.585 0-.933-.001-1.191-.022a1.3 1.3 0 0 1-.242-.036.5.5 0 0 1-.21-.209 1.3 1.3 0 0 1-.035-.242c-.02-.258-.022-.606-.022-1.191V5.2c0-.585.001-.933.022-1.191.013-.158.03-.224.036-.242a.5.5 0 0 1 .209-.21c.018-.005.084-.022.242-.035.258-.02.606-.022 1.191-.022" clip-rule="evenodd"/><path d="M11.215 11.478c-.065.128-.065.296-.065.632v.68c0 .336 0 .504.065.632a.6.6 0 0 0 .263.263c.128.065.296.065.632.065h.68c.336 0 .504 0 .632-.065a.6.6 0 0 0 .263-.263c.065-.128.065-.296.065-.632v-.68c0-.336 0-.504-.065-.632a.6.6 0 0 0-.263-.263c-.128-.065-.296-.065-.632-.065h-.68c-.336 0-.504 0-.632.065a.6.6 0 0 0-.263.263m-.065 4.482c0-.336 0-.504.065-.632a.6.6 0 0 1 .263-.263c.128-.065.296-.065.632-.065h.68c.336 0 .504 0 .632.065a.6.6 0 0 1 .263.263c.065.128.065.296.065.632v.68c0 .336 0 .504-.065.632a.6.6 0 0 1-.263.263c-.128.065-.296.065-.632.065h-.68c-.336 0-.504 0-.632-.065a.6.6 0 0 1-.263-.263c-.065-.128-.065-.296-.065-.632zm3.915-.632c-.065.128-.065.296-.065.632v.68c0 .336 0 .504.065.632a.6.6 0 0 0 .263.263c.128.065.296.065.632.065h.68c.336 0 .504 0 .632-.065a.6.6 0 0 0 .263-.263c.065-.128.065-.296.065-.632v-.68c0-.336 0-.504-.065-.632a.6.6 0 0 0-.263-.263C17.144 15 16.976 15 16.64 15h-.68c-.336 0-.504 0-.632.065a.6.6 0 0 0-.263.263M15 12.11c0-.336 0-.504.065-.632a.6.6 0 0 1 .263-.263c.128-.065.296-.065.632-.065h.68c.336 0 .504 0 .632.065a.6.6 0 0 1 .263.263c.065.128.065.296.065.632v.68c0 .336 0 .504-.065.632a.6.6 0 0 1-.263.263c-.128.065-.296.065-.632.065h-.68c-.336 0-.504 0-.632-.065a.6.6 0 0 1-.263-.263C15 13.294 15 13.126 15 12.79z"/></svg>