<svg xmlns="http://www.w3.org/2000/svg" width="20" height="20" fill="none" viewBox="0 0 20 20"><path fill="currentColor" d="M4.8045 5.023C4.75 5.13 4.75 5.27 4.75 5.55v.15c0 .28 0 .42.0545.527a.5.5 0 0 0 .2185.2185C5.13 6.5 5.27 6.5 5.55 6.5h.15c.28 0 .42 0 .527-.0545a.5.5 0 0 0 .2185-.2185C6.5 6.12 6.5 5.98 6.5 5.7v-.15c0-.28 0-.42-.0545-.527a.5.5 0 0 0-.2185-.2185C6.12 4.75 5.98 4.75 5.7 4.75h-.15c-.28 0-.42 0-.527.0545a.5.5 0 0 0-.2185.2185Z"/><path fill="currentColor" fill-rule="evenodd" d="M2.218 3.092C2 3.5198 2 4.08 2 5.2v.85c0 1.1201 0 1.6802.218 2.108.1917.3763.4977.6823.874.874.4278.218.9879.218 2.108.218h.85c1.1201 0 1.6802 0 2.108-.218a1.9999 1.9999 0 0 0 .874-.874c.218-.4278.218-.9879.218-2.108V5.2c0-1.1201 0-1.6802-.218-2.108a1.9999 1.9999 0 0 0-.874-.874C7.7302 2 7.17 2 6.05 2H5.2c-1.1201 0-1.6802 0-2.108.218a1.9999 1.9999 0 0 0-.874.874ZM6.05 3.5H5.2c-.5848 0-.9332.0012-1.1915.0223-.1576.0128-.2238.0298-.2416.0354a.5.5 0 0 0-.2092.2092c-.0056.0178-.0226.084-.0354.2416C3.5012 4.2668 3.5 4.6152 3.5 5.2v.85c0 .5848.0012.9332.0223 1.1915.0128.1576.0298.2238.0354.2416a.5.5 0 0 0 .2092.2092c.0178.0056.084.0226.2416.0354.2583.0211.6067.0223 1.1915.0223h.85c.5848 0 .9332-.0012 1.1915-.0223.1576-.0128.2238-.0298.2416-.0353a.5.5 0 0 0 .2092-.2093c.0056-.0178.0226-.084.0354-.2416.0211-.2583.0223-.6067.0223-1.1915V5.2c0-.5848-.0012-.9332-.0223-1.1915-.0128-.1576-.0298-.2238-.0353-.2416a.5.5 0 0 0-.2093-.2092c-.0178-.0056-.084-.0226-.2416-.0354C6.9832 3.5012 6.6348 3.5 6.05 3.5Z" clip-rule="evenodd"/><path fill="currentColor" d="M4.75 14.3c0-.28 0-.42.0545-.527a.4996.4996 0 0 1 .2185-.2185C5.13 13.5 5.27 13.5 5.55 13.5h.15c.28 0 .42 0 .527.0545a.4996.4996 0 0 1 .2185.2185c.0545.107.0545.247.0545.527v.15c0 .28 0 .42-.0545.527a.4996.4996 0 0 1-.2185.2185c-.107.0545-.247.0545-.527.0545h-.15c-.28 0-.42 0-.527-.0545a.4996.4996 0 0 1-.2185-.2185C4.75 14.87 4.75 14.73 4.75 14.45v-.15Z"/><path fill="currentColor" fill-rule="evenodd" d="M2.218 11.842C2 12.2698 2 12.8299 2 13.95v.85c0 1.1201 0 1.6802.218 2.108.1917.3763.4977.6823.874.874C3.5198 18 4.08 18 5.2 18h.85c1.1201 0 1.6802 0 2.108-.218a1.9997 1.9997 0 0 0 .874-.874c.218-.4278.218-.9879.218-2.108v-.85c0-1.1201 0-1.6802-.218-2.108a1.9997 1.9997 0 0 0-.874-.874c-.4278-.218-.9879-.218-2.108-.218H5.2c-1.1201 0-1.6802 0-2.108.218a1.9997 1.9997 0 0 0-.874.874Zm3.832.408H5.2c-.5848 0-.9332.0012-1.1915.0223-.1576.0128-.2238.0298-.2416.0353a.5003.5003 0 0 0-.2092.2093c-.0056.0178-.0226.084-.0354.2417-.0211.2582-.0223.6066-.0223 1.1914v.85c0 .5848.0012.9332.0223 1.1914.0128.1577.0298.2239.0354.2417.047.0893.12.1622.2092.2093.0178.0055.084.0225.2416.0353.2583.0211.6067.0223 1.1915.0223h.85c.5848 0 .9332-.0012 1.1915-.0223.1576-.0128.2238-.0298.2416-.0353a.5003.5003 0 0 0 .2092-.2093c.0056-.0178.0226-.084.0354-.2417.0211-.2582.0223-.6066.0223-1.1914v-.85c0-.5848-.0012-.9332-.0223-1.1914-.0128-.1577-.0298-.2239-.0353-.2417a.5003.5003 0 0 0-.2093-.2093c-.0178-.0055-.084-.0225-.2416-.0353-.2583-.0211-.6067-.0223-1.1915-.0223Z" clip-rule="evenodd"/><path fill="currentColor" d="M13.5545 5.023C13.5 5.13 13.5 5.27 13.5 5.55v.15c0 .28 0 .42.0545.527a.4996.4996 0 0 0 .2185.2185c.107.0545.247.0545.527.0545h.15c.28 0 .42 0 .527-.0545a.4996.4996 0 0 0 .2185-.2185c.0545-.107.0545-.247.0545-.527v-.15c0-.28 0-.42-.0545-.527a.4996.4996 0 0 0-.2185-.2185C14.87 4.75 14.73 4.75 14.45 4.75h-.15c-.28 0-.42 0-.527.0545a.4996.4996 0 0 0-.2185.2185Z"/><path fill="currentColor" fill-rule="evenodd" d="M10.75 5.2c0-1.1201 0-1.6802.218-2.108a1.9997 1.9997 0 0 1 .874-.874C12.2698 2 12.8299 2 13.95 2h.85c1.1201 0 1.6802 0 2.108.218.3763.1917.6823.4977.874.874C18 3.5198 18 4.08 18 5.2v.85c0 1.1201 0 1.6802-.218 2.108a1.9997 1.9997 0 0 1-.874.874c-.4278.218-.9879.218-2.108.218h-.85c-1.1201 0-1.6802 0-2.108-.218a1.9997 1.9997 0 0 1-.874-.874c-.218-.4278-.218-.9879-.218-2.108V5.2Zm3.2-1.7h.85c.5848 0 .9332.0012 1.1914.0223.1577.0128.2239.0298.2417.0354.0893.047.1622.12.2093.2092.0055.0178.0225.084.0353.2416.0211.2583.0223.6067.0223 1.1915v.85c0 .5848-.0012.9332-.0223 1.1915-.0128.1576-.0298.2238-.0353.2416a.5003.5003 0 0 1-.2093.2092c-.0178.0056-.084.0226-.2417.0354-.2582.0211-.6066.0223-1.1914.0223h-.85c-.5848 0-.9332-.0012-1.1914-.0223-.1577-.0128-.2239-.0298-.2417-.0353a.5003.5003 0 0 1-.2093-.2093c-.0055-.0178-.0225-.084-.0353-.2416-.0211-.2583-.0223-.6067-.0223-1.1915V5.2c0-.5848.0012-.9332.0223-1.1915.0128-.1576.0298-.2238.0353-.2416a.5003.5003 0 0 1 .2093-.2092c.0178-.0056.084-.0226.2417-.0354.2582-.0211.6066-.0223 1.1914-.0223Z" clip-rule="evenodd"/><path fill="currentColor" d="M11.2154 11.4776c-.0654.1284-.0654.2964-.0654.6324v.68c0 .3361 0 .5041.0654.6324a.5997.5997 0 0 0 .2622.2622c.1284.0654.2964.0654.6324.0654h.68c.3361 0 .5041 0 .6324-.0654a.5997.5997 0 0 0 .2622-.2622c.0654-.1283.0654-.2963.0654-.6324v-.68c0-.336 0-.504-.0654-.6324a.5997.5997 0 0 0-.2622-.2622c-.1283-.0654-.2963-.0654-.6324-.0654h-.68c-.336 0-.504 0-.6324.0654a.5997.5997 0 0 0-.2622.2622ZM11.15 15.96c0-.336 0-.504.0654-.6324a.5997.5997 0 0 1 .2622-.2622C11.606 15 11.774 15 12.11 15h.68c.3361 0 .5041 0 .6324.0654a.5997.5997 0 0 1 .2622.2622c.0654.1284.0654.2964.0654.6324v.68c0 .336 0 .504-.0654.6324a.5997.5997 0 0 1-.2622.2622c-.1283.0654-.2963.0654-.6324.0654h-.68c-.336 0-.504 0-.6324-.0654a.5997.5997 0 0 1-.2622-.2622c-.0654-.1284-.0654-.2964-.0654-.6324v-.68Zm3.9154-.6324C15 15.456 15 15.624 15 15.96v.68c0 .336 0 .504.0654.6324a.5997.5997 0 0 0 .2622.2622c.1284.0654.2964.0654.6324.0654h.68c.336 0 .504 0 .6324-.0654a.5997.5997 0 0 0 .2622-.2622c.0654-.1284.0654-.2964.0654-.6324v-.68c0-.336 0-.504-.0654-.6324a.5997.5997 0 0 0-.2622-.2622C17.144 15 16.976 15 16.64 15h-.68c-.336 0-.504 0-.6324.0654a.5997.5997 0 0 0-.2622.2622ZM15 12.11c0-.336 0-.504.0654-.6324a.5997.5997 0 0 1 .2622-.2622c.1284-.0654.2964-.0654.6324-.0654h.68c.336 0 .504 0 .6324.0654a.5997.5997 0 0 1 .2622.2622c.0654.1284.0654.2964.0654.6324v.68c0 .3361 0 .5041-.0654.6324a.5997.5997 0 0 1-.2622.2622c-.1284.0654-.2964.0654-.6324.0654h-.68c-.336 0-.504 0-.6324-.0654a.5997.5997 0 0 1-.2622-.2622C15 13.2941 15 13.1261 15 12.79v-.68Z"/></svg>
