<svg fill="none" height="20" viewBox="0 0 20 20" width="20" xmlns="http://www.w3.org/2000/svg" xmlns:xlink="http://www.w3.org/1999/xlink"><linearGradient id="a" gradientUnits="userSpaceOnUse" x1="-10" x2="10" y1="10" y2="30"><stop offset="0" stop-color="#50c750"/><stop offset="1" stop-color="#32b332"/></linearGradient><path d="m0 10c0-5.52285 4.47715-10 10-10 5.5228 0 10 4.47715 10 10 0 5.5228-4.4772 10-10 10-5.52285 0-10-4.4772-10-10z" fill="url(#a)"/><path d="m8.8551 11.6858c0-.4057.09633-.7632.28897-1.0727.19265-.3094.51729-.654.97393-1.03367.2759-.22884.4804-.40827.6136-.5383.1332-.13002.2426-.27564.3282-.43687s.1285-.34327.1285-.5461c0-.22885-.0583-.42778-.1749-.59681-.1165-.16903-.2735-.29906-.4709-.39007-.1974-.09102-.4102-.13653-.63855-.13653-.55178 0-.99176.23404-1.31998.70213-.13318.15083-.25448.25875-.36388.32376-.10941.06501-.24259.09752-.39956.09752-.26162 0-.46378-.08582-.60648-.25745s-.21405-.38227-.21405-.63192c0-.23924.05708-.47588.17124-.70992.11416-.23405.27113-.44729.47091-.63972.27113-.26005.61718-.46158 1.03815-.60461.42096-.14303.90257-.21454 1.4448-.21454.6612 0 1.2475.11572 1.7588.34716.5114.23145.9085.5656 1.1916 1.00249.283.43688.4245.95697.4245 1.56028 0 .42128-.069.78794-.2069 1.1-.138.31206-.3175.5812-.5387.80745-.2212.22622-.5054.47202-.8526.73722-.314.2497-.5471.4629-.6993.6397-.1522.1769-.2806.3953-.3853.6553-.1046.1977-.1938.3511-.2675.4603-.0738.1092-.1713.1977-.2926.2653s-.27466.1014-.46017.1014c-.30443 0-.53751-.0923-.69924-.277-.16172-.1846-.24259-.4225-.24259-.7138zm-.32107 3.0816c0-.2445.05589-.4603.16767-.6475.11178-.1873.26281-.3316.45307-.433.19027-.1014.39956-.1521.62789-.1521.22834 0 .43764.0507.62784.1521.1903.1014.3401.2457.4495.433.1094.1872.1641.403.1641.6475 0 .2444-.0547.4603-.1641.6475s-.2592.3316-.4495.433c-.1902.1014-.3995.1521-.62784.1521-.22833 0-.43762-.0507-.62789-.1521-.19026-.1014-.34129-.2458-.45307-.433s-.16767-.4031-.16767-.6475z" fill="#fff"/></svg>
