<svg xmlns="http://www.w3.org/2000/svg" width="20" height="20" fill="currentColor" viewBox="0 0 20 20"><path d="M3.928 14.09A8.878 8.878 0 0 1 2 14.9V16a7.697 7.697 0 0 0 2.699-.656 7.437 7.437 0 0 0 2.255-1.543c.656-.637 1.157-1.39 1.542-2.258a7.226 7.226 0 0 0 .56-2.836c0-.656-.097-1.273-.309-1.832a4.937 4.937 0 0 0-.867-1.486 4.026 4.026 0 0 0-1.273-1.022C6.145 4.116 5.624 4 5.065 4c-.867 0-1.58.27-2.178.791A2.48 2.48 0 0 0 2 6.74c0 .733.212 1.35.655 1.832.425.483.945.714 1.543.714.289 0 .52-.038.694-.116.173-.077.327-.154.462-.25a4.61 4.61 0 0 1 .405-.251.938.938 0 0 1 .482-.116c.193 0 .347.116.482.367.135.25.193.54.193.868 0 .54-.135 1.08-.386 1.62a5.375 5.375 0 0 1-1.04 1.467 8.408 8.408 0 0 1-1.562 1.215Zm8.944 0a8.879 8.879 0 0 1-1.927.81V16a7.697 7.697 0 0 0 2.698-.656 7.437 7.437 0 0 0 2.256-1.543c.655-.637 1.156-1.39 1.542-2.258A7.227 7.227 0 0 0 18 8.707c0-.656-.096-1.273-.308-1.832a4.938 4.938 0 0 0-.868-1.486 4.027 4.027 0 0 0-1.272-1.022C15.089 4.116 14.569 4 14.01 4c-.868 0-1.581.27-2.179.791a2.48 2.48 0 0 0-.886 1.949c0 .733.212 1.35.655 1.832.424.483.945.714 1.542.714.29 0 .52-.038.694-.116.174-.077.328-.154.463-.25.135-.097.27-.174.405-.251a.938.938 0 0 1 .481-.116c.193 0 .348.116.482.367.135.25.193.54.193.868 0 .54-.135 1.08-.385 1.62a5.374 5.374 0 0 1-1.041 1.467 8.405 8.405 0 0 1-1.562 1.215Z"/></svg>
