<svg fill="none" height="20" viewBox="0 0 20 20" width="20" xmlns="http://www.w3.org/2000/svg" xmlns:xlink="http://www.w3.org/1999/xlink"><linearGradient id="a" gradientUnits="userSpaceOnUse" x1="-10" x2="10" y1="10" y2="30"><stop offset="0" stop-color="#ff5263"/><stop offset="1" stop-color="#ff3347"/></linearGradient><path d="m0 10c0-5.52285 4.47715-10 10-10 5.5228 0 10 4.47715 10 10 0 5.5228-4.4772 10-10 10-5.52285 0-10-4.4772-10-10z" fill="url(#a)"/><circle cx="10" cy="10" fill="#fff" r="1.5"/><g stroke="#fff" stroke-linecap="round" stroke-linejoin="round" stroke-width="1.5"><path d="m7 7.35419c-.62236.70513-1 1.63137-1 2.64581 0 1.0145.37764 1.9407 1 2.6458m6-5.29161c.6224.70513 1 1.63137 1 2.64581 0 1.0145-.3776 1.9407-1 2.6458"/><path d="m15 5.10101c1.2372 1.26254 2 2.99168 2 4.89899 0 1.9073-.7628 3.6364-2 4.899m-10-9.79799c-1.23719 1.26254-2 2.99168-2 4.89899 0 1.9073.76281 3.6364 2 4.899"/></g></svg>
