<svg xmlns="http://www.w3.org/2000/svg" width="20" height="20" fill="currentColor" viewBox="0 0 20 20"><path d="M7.75 8.25a.75.75 0 1 0 0 1.5h3.5a.75.75 0 0 0 0-1.5h-3.5Z"/><path fill-rule="evenodd" d="M3.421 2.076a.75.75 0 0 1 .791.083l1.455 1.139L7.12 2.159a.75.75 0 0 1 .925 0L9.5 3.298l1.454-1.139a.75.75 0 0 1 .925 0l1.454 1.139 1.455-1.139A.75.75 0 0 1 16 2.75V13h.542c.19 0 .354 0 .502.02a2.25 2.25 0 0 1 1.937 1.936c.02.148.02.312.019.502v.084c0 .19 0 .354-.02.502a2.25 2.25 0 0 1-1.936 1.937c-.148.02-.312.02-.502.019H6.25v-.017a8.601 8.601 0 0 1-.794-.063c-.628-.084-1.195-.27-1.65-.726-.456-.455-.642-1.022-.726-1.65C3 14.95 3 14.2 3 13.302V2.75a.75.75 0 0 1 .421-.674ZM14.5 4.289V13h-3.542c-.19 0-.354 0-.502.02a2.25 2.25 0 0 0-1.937 1.936c-.02.148-.02.312-.019.502v.042c0 .256-.002.311-.006.348a.75.75 0 0 1-.646.646 2.747 2.747 0 0 1-.285.006c-.862 0-1.456-.006-1.908-.067-.461-.062-.659-.169-.789-.3-.13-.13-.237-.327-.3-.788-.064-.483-.066-1.131-.066-2.095V4.29l.704.55a.75.75 0 0 0 .925 0l1.454-1.138 1.455 1.139a.75.75 0 0 0 .924 0l1.455-1.139 1.454 1.139a.75.75 0 0 0 .925 0l.704-.552Zm2 12.211H9.872c.051-.146.088-.298.109-.456.02-.148.02-.312.019-.502V15.5c0-.256.002-.311.006-.348a.75.75 0 0 1 .646-.646A4.04 4.04 0 0 1 11 14.5h5.5c.256 0 .311.002.348.006a.75.75 0 0 1 .646.646c.004.037.006.092.006.348s-.002.311-.006.348a.75.75 0 0 1-.646.646 3.547 3.547 0 0 1-.348.006Z" clip-rule="evenodd"/></svg>
