<svg xmlns="http://www.w3.org/2000/svg" width="20" height="20" fill="currentColor" viewBox="0 0 20 20"><path fill-rule="evenodd" d="M7.817 3h4.366c.952 0 1.713 0 2.327.05.63.052 1.172.16 1.67.413a4.25 4.25 0 0 1 1.857 1.858c.253.497.361 1.04.413 1.67.05.613.05 1.374.05 2.326v1.366c0 .952 0 1.713-.05 2.327-.052.63-.16 1.172-.413 1.67a4.251 4.251 0 0 1-1.857 1.857c-.498.253-1.04.361-1.67.413-.614.05-1.375.05-2.327.05H7.817c-.952 0-1.713 0-2.327-.05-.63-.052-1.172-.16-1.67-.413a4.25 4.25 0 0 1-1.857-1.857c-.25-.49-.358-1.021-.41-1.638-.052-.607-.053-1.356-.053-2.292V9.317c0-.952 0-1.713.05-2.327.052-.63.16-1.172.413-1.67a4.25 4.25 0 0 1 1.858-1.857c.497-.253 1.04-.361 1.67-.413C6.103 3 6.864 3 7.816 3ZM5.612 4.545c-.537.044-.86.127-1.11.255A2.75 2.75 0 0 0 3.3 6.002c-.128.25-.21.573-.255 1.11C3.001 7.658 3 8.358 3 9.35V10h3.281c.674 0 1.224 0 1.672.037.463.037.882.118 1.272.317a3.25 3.25 0 0 1 1.42 1.42c.2.391.28.81.318 1.273.037.447.037.998.037 1.672v.781h1.15c.992 0 1.692 0 2.238-.045.537-.044.86-.127 1.11-.255A2.751 2.751 0 0 0 16.7 14c.128-.252.21-.574.255-1.111.044-.546.045-1.245.045-2.238v-1.3c0-.992 0-1.692-.045-2.238-.044-.537-.127-.86-.255-1.11A2.75 2.75 0 0 0 15.5 4.8c-.252-.128-.574-.21-1.111-.255-.546-.044-1.245-.045-2.238-.045h-4.3c-.992 0-1.692 0-2.238.045ZM9.5 15.5v-.75c0-.712 0-1.202-.032-1.58-.03-.371-.085-.57-.159-.714a1.75 1.75 0 0 0-.765-.765c-.144-.074-.343-.13-.713-.16-.38-.03-.869-.031-1.581-.031H3.002a18.7 18.7 0 0 0 .045 1.415c.045.521.127.837.253 1.084A2.75 2.75 0 0 0 4.502 15.2c.25.128.573.21 1.11.255.546.044 1.246.045 2.238.045H9.5Z" clip-rule="evenodd"/></svg>
