<svg xmlns="http://www.w3.org/2000/svg" width="20" height="20" fill="currentColor" viewBox="0 0 20 20"><path fill-rule="evenodd" d="M18 5.121c0-.395 0-.736-.023-1.017a2.29 2.29 0 0 0-.222-.875 2.25 2.25 0 0 0-.983-.984 2.304 2.304 0 0 0-.876-.222C15.616 2 15.246 2 14.85 2h-9.7c-.395 0-.765 0-1.046.023a2.29 2.29 0 0 0-.875.222 2.25 2.25 0 0 0-.984.984 2.29 2.29 0 0 0-.222.875C2 4.384 2 4.726 2 5.12v.758c0 .395 0 .736.023 1.017.024.297.078.592.222.875.216.424.56.768.984.984.283.144.578.198.875.222C4.384 9 4.754 9 5.15 9h9.7c.395 0 .765 0 1.046-.023a2.29 2.29 0 0 0 .875-.222 2.25 2.25 0 0 0 .984-.984 2.29 2.29 0 0 0 .222-.875C18 6.616 18 6.274 18 5.88v-.76ZM5.15 3.5h9.7c.432 0 .712 0 .924.018.204.017.28.045.316.064a.75.75 0 0 1 .328.328c.02.037.047.112.064.316.017.212.018.492.018.924v.7c0 .432 0 .712-.018.924-.017.204-.045.28-.064.316a.75.75 0 0 1-.328.328c-.037.02-.112.047-.316.064-.212.017-.492.018-.924.018h-9.7c-.432 0-.712 0-.924-.018-.204-.017-.28-.045-.316-.064a.75.75 0 0 1-.328-.328c-.02-.037-.047-.112-.064-.316A12.754 12.754 0 0 1 3.5 5.85v-.7c0-.432 0-.712.018-.924.017-.204.045-.28.064-.316a.75.75 0 0 1 .328-.328c.037-.02.112-.047.316-.064.212-.017.492-.018.924-.018ZM18 14.121c0-.395 0-.736-.023-1.017a2.29 2.29 0 0 0-.222-.875 2.251 2.251 0 0 0-.983-.984 2.304 2.304 0 0 0-.876-.222C15.616 11 15.246 11 14.85 11h-9.7c-.395 0-.765 0-1.046.023a2.29 2.29 0 0 0-.875.222 2.25 2.25 0 0 0-.984.984 2.29 2.29 0 0 0-.222.875C2 13.384 2 13.726 2 14.12v.758c0 .395 0 .736.023 1.017.024.297.078.592.222.875.216.424.56.768.984.984.283.144.578.198.875.222.28.023.65.023 1.046.023h9.7c.395 0 .765 0 1.046-.023a2.29 2.29 0 0 0 .875-.222 2.25 2.25 0 0 0 .984-.983c.144-.284.198-.58.222-.876.023-.28.023-.622.023-1.017v-.758ZM5.15 12.5h9.7c.432 0 .712 0 .924.018.204.017.28.045.316.064a.75.75 0 0 1 .328.327c.02.038.047.113.064.317.017.212.018.492.018.924v.7c0 .432 0 .712-.018.924-.017.204-.045.28-.064.316a.75.75 0 0 1-.328.328c-.037.02-.112.047-.316.064-.212.017-.492.018-.924.018h-9.7c-.432 0-.712 0-.924-.018-.204-.017-.28-.045-.316-.064a.75.75 0 0 1-.328-.328c-.02-.037-.047-.112-.064-.316a12.753 12.753 0 0 1-.018-.924v-.7c0-.432 0-.712.018-.924.017-.204.045-.28.064-.317a.75.75 0 0 1 .328-.327c.037-.02.112-.047.316-.064.212-.017.492-.018.924-.018Z" clip-rule="evenodd"/></svg>
