<svg xmlns="http://www.w3.org/2000/svg" width="20" height="20" fill="currentColor" viewBox="0 0 20 20"><path d="M15.63 10.889c.812 0 1.218 0 1.53.153a1.5 1.5 0 0 1 .687.687c.153.312.153.718.153 1.53 0 1.624 0 2.437-.307 3.061a3 3 0 0 1-1.373 1.373c-.624.307-1.437.307-3.06.307H6.74c-1.624 0-2.437 0-3.061-.307a3 3 0 0 1-1.373-1.373C2 15.696 2 14.883 2 13.26c0-.812 0-1.218.153-1.53a1.5 1.5 0 0 1 .687-.687c.312-.153.718-.153 1.53-.153h11.26ZM13.259 2c1.624 0 2.437 0 3.061.307a3 3 0 0 1 1.373 1.373C18 4.304 18 5.117 18 6.74c0 .812 0 1.218-.153 1.53a1.5 1.5 0 0 1-.687.687c-.312.153-.718.153-1.53.153H4.37c-.812 0-1.218 0-1.53-.153a1.5 1.5 0 0 1-.687-.687C2 7.96 2 7.553 2 6.741c0-1.624 0-2.437.307-3.061A3 3 0 0 1 3.68 2.307C4.304 2 5.117 2 6.74 2h6.518Z"/></svg>