<svg xmlns="http://www.w3.org/2000/svg" width="20" height="20" fill="currentColor" viewBox="0 0 20 20"><path fill-rule="evenodd" d="M3 8.82c0-1.512 0-2.268.294-2.846a2.7 2.7 0 0 1 1.18-1.18C5.052 4.5 5.808 4.5 7.32 4.5h5.36c1.512 0 2.268 0 2.846.294a2.7 2.7 0 0 1 1.18 1.18C17 6.552 17 7.308 17 8.82V9h1.25a1 1 0 1 1 0 2H17v.18c0 1.512 0 2.268-.294 2.846a2.7 2.7 0 0 1-1.18 1.18c-.578.294-1.334.294-2.846.294H7.32c-1.512 0-2.268 0-2.846-.294a2.7 2.7 0 0 1-1.18-1.18C3 13.448 3 12.692 3 11.18V11H1.75a1 1 0 1 1 0-2H3v-.18Z" clip-rule="evenodd"/></svg>
