<svg xmlns="http://www.w3.org/2000/svg" width="20" height="20" fill="currentColor" viewBox="0 0 20 20"><path fill-rule="evenodd" d="M8.356 6.71a.75.75 0 0 0 1.061 1.06l2.139-2.14.01-.01c.052-.052.119-.118.173-.182a1.054 1.054 0 0 0 .208-1.02 1.068 1.068 0 0 0-.208-.362 3.077 3.077 0 0 0-.172-.182l-.011-.011-2.139-2.14a.75.75 0 1 0-1.06 1.061L9.58 4.01a6.997 6.997 0 0 0-6.125 4.504 7.007 7.007 0 0 0 2.876 8.452 6.997 6.997 0 0 0 8.837-1.243 7.005 7.005 0 0 0 .548-8.764.75.75 0 1 0-1.225.866 5.505 5.505 0 0 1-3.727 8.625 5.498 5.498 0 0 1-5.972-3.676A5.505 5.505 0 0 1 9.55 5.516L8.356 6.709Z" clip-rule="evenodd"/></svg>
