<svg xmlns="http://www.w3.org/2000/svg" width="20" height="20" fill="currentColor" viewBox="0 0 20 20"><path fill-rule="evenodd" d="M2.5 4.748A.75.75 0 0 1 3.253 4h13.494a.75.75 0 0 1 .753.748.75.75 0 0 1-.753.748H3.253a.75.75 0 0 1-.753-.748Zm0 3.479a.75.75 0 0 1 .755-.747l13.493.021a.75.75 0 0 1 .752.75.75.75 0 0 1-.755.746L3.252 8.976a.75.75 0 0 1-.752-.749Zm0 3.501a.75.75 0 0 1 .755-.746l13.493.02a.75.75 0 0 1 .752.75.75.75 0 0 1-.755.746l-13.493-.02a.75.75 0 0 1-.752-.75Zm0 3.502a.75.75 0 0 1 .755-.747l13.493.021a.75.75 0 0 1 .752.75.75.75 0 0 1-.755.746l-13.493-.021a.75.75 0 0 1-.752-.75Z" clip-rule="evenodd"/></svg>
