<svg xmlns="http://www.w3.org/2000/svg" width="20" height="20" fill="currentColor" viewBox="0 0 20 20"><path d="M10.001 5.5a.75.75 0 0 0-.75.75v4.5a.75.75 0 0 0 1.5 0v-4.5a.75.75 0 0 0-.75-.75Zm-.9 8.4a.9.9 0 1 1 1.8 0 .9.9 0 0 1-1.8 0Z"/><path fill-rule="evenodd" d="m17.326 14.814-2.514 2.514c-.432.433-.648.649-.9.803a2.502 2.502 0 0 1-.723.3c-.288.069-.594.069-1.205.069h-3.97c-.612 0-.918 0-1.206-.07a2.502 2.502 0 0 1-.723-.299c-.252-.154-.468-.37-.9-.803L2.67 14.814c-.432-.432-.648-.648-.802-.9a2.5 2.5 0 0 1-.3-.723c-.068-.288-.068-.593-.069-1.204V8.014c0-.611 0-.917.069-1.205a2.5 2.5 0 0 1 .3-.723c.154-.252.37-.468.803-.9L5.186 2.67c.432-.432.649-.648.9-.803a2.5 2.5 0 0 1 .723-.299c.288-.069.594-.069 1.205-.069h3.97c.611 0 .917 0 1.205.07a2.5 2.5 0 0 1 .723.298c.252.155.468.371.9.804l2.514 2.514c.432.432.648.648.803.9.137.224.238.468.3.723.068.288.068.593.068 1.205v3.972c0 .611 0 .917-.069 1.205a2.497 2.497 0 0 1-.299.723c-.155.252-.37.468-.803.9Zm-.474-1.706c-.062.101-.149.188-.321.36l-3.063 3.063c-.173.173-.26.26-.36.322a.998.998 0 0 1-.29.12c-.115.027-.237.027-.482.027H7.662c-.245 0-.367 0-.482-.028a1.001 1.001 0 0 1-.29-.12c-.1-.061-.186-.148-.36-.32l-3.06-3.065c-.173-.172-.26-.259-.321-.36a1 1 0 0 1-.12-.289C3 12.704 3 12.582 3 12.338V7.663c0-.245 0-.367.027-.482a1 1 0 0 1 .12-.29c.062-.1.148-.187.321-.36l3.064-3.063c.173-.172.26-.259.36-.32a1 1 0 0 1 .29-.12C7.295 3 7.418 3 7.662 3h4.673c.245 0 .367 0 .482.028a1 1 0 0 1 .29.12c.1.061.187.148.36.32l3.063 3.063c.172.173.259.26.32.36.056.09.096.188.12.29.028.115.028.237.028.482v4.674c0 .245 0 .367-.027.482a.998.998 0 0 1-.12.29Z" clip-rule="evenodd"/></svg>
