<svg xmlns="http://www.w3.org/2000/svg" width="20" height="20" viewBox="0 0 20 20" fill="currentColor"><path d="M10 .5a1.667 1.667 0 0 1 .75 3.152V5h.85c2.24 0 3.36 0 4.216.436a4 4 0 0 1 1.748 1.748C18 8.039 18 9.16 18 11.4v.2c0 2.24 0 3.36-.436 4.216l-.154.276a4 4 0 0 1-1.594 1.473l-.164.076C14.816 18 13.7 18 11.6 18H8.4l-1.484-.007c-1.192-.019-1.955-.089-2.568-.352l-.164-.076a4 4 0 0 1-1.594-1.473l-.154-.276C2 14.961 2 13.84 2 11.6v-.2c0-2.24 0-3.36.436-4.216a4 4 0 0 1 1.748-1.748c.641-.327 1.432-.409 2.732-.43L8.4 5h.85V3.653A1.665 1.665 0 0 1 10 .5m-1.6 6c-1.144 0-1.914.001-2.505.05-.574.047-.849.13-1.03.222a2.5 2.5 0 0 0-1.093 1.093c-.092.181-.175.456-.222 1.03-.049.591-.05 1.36-.05 2.505v.2c0 1.145.001 1.914.05 2.505.047.574.13.849.222 1.03a2.5 2.5 0 0 0 1.093 1.092c.181.093.456.176 1.03.223.591.049 1.36.05 2.505.05h3.2c1.145 0 1.914-.002 2.505-.05.574-.047.849-.13 1.03-.223a2.5 2.5 0 0 0 1.092-1.092c.093-.181.176-.456.223-1.03.049-.591.05-1.36.05-2.505v-.2c0-1.145-.002-1.914-.05-2.505-.047-.574-.13-.849-.223-1.03a2.5 2.5 0 0 0-1.092-1.093c-.181-.092-.456-.175-1.03-.222-.591-.049-1.36-.05-2.505-.05zm2.487 6.496a.75.75 0 0 1 .863 1.227q-.11.077-.229.146a3.03 3.03 0 0 1-3.27-.146.75.75 0 0 1 .863-1.227 1.55 1.55 0 0 0 .887.28 1.53 1.53 0 0 0 .886-.28M7.083 8.724a1.25 1.25 0 1 1 0 2.5 1.25 1.25 0 0 1 0-2.5m5.542.516a2 2 0 0 1 1.334.51.75.75 0 0 1-1.001 1.117.5.5 0 0 0-.666 0 .75.75 0 1 1-1-1.117q.154-.137.333-.242c.295-.17.637-.268 1-.268"/></svg>