<svg xmlns="http://www.w3.org/2000/svg" width="20" height="20" fill="currentColor" viewBox="0 0 20 20"><path fill-rule="evenodd" d="M13.2 9.5h-2.4c-.865 0-1.423.001-1.848.036-.408.033-.559.09-.633.127a1.5 1.5 0 0 0-.656.656c-.037.074-.094.225-.127.633-.035.425-.036.983-.036 1.848v.4c0 .865.001 1.423.036 1.848.033.408.09.559.127.633a1.5 1.5 0 0 0 .656.656c.074.037.225.094.633.127.425.035.983.036 1.848.036h2.4c.865 0 1.423-.001 1.848-.036.408-.033.559-.09.633-.127a1.5 1.5 0 0 0 .656-.656c.037-.074.094-.225.127-.633.035-.425.036-.983.036-1.848v-.4c0-.865-.001-1.423-.036-1.848-.033-.408-.09-.559-.127-.633a1.5 1.5 0 0 0-.656-.656c-.074-.037-.225-.094-.633-.127-.425-.035-.983-.036-1.848-.036Zm-6.873.138C6 10.28 6 11.12 6 12.8v.4c0 1.68 0 2.52.327 3.162a3 3 0 0 0 1.311 1.311C8.28 18 9.12 18 10.8 18h2.4c1.68 0 2.52 0 3.162-.327a3 3 0 0 0 1.311-1.311C18 15.72 18 14.88 18 13.2v-.4c0-1.68 0-2.52-.327-3.162a3 3 0 0 0-1.311-1.311C15.72 8 14.88 8 13.2 8h-2.4c-1.68 0-2.52 0-3.162.327a3 3 0 0 0-1.311 1.311ZM6.47 1.97a.75.75 0 0 1 1.06 0l2 2a.75.75 0 0 1 0 1.06l-2 2a.75.75 0 0 1-1.06-1.06l.72-.72H7A3.25 3.25 0 0 0 3.75 8.5V11a.75.75 0 0 1-1.5 0V8.5A4.75 4.75 0 0 1 7 3.75h.19l-.72-.72a.75.75 0 0 1 0-1.06Z" clip-rule="evenodd"/></svg>
