<svg fill="none" height="20" viewBox="0 0 20 20" width="20" xmlns="http://www.w3.org/2000/svg" xmlns:xlink="http://www.w3.org/1999/xlink"><linearGradient id="a" gradientUnits="userSpaceOnUse" x1="-10" x2="10" y1="10" y2="30"><stop offset="0" stop-color="#70b2ff"/><stop offset="1" stop-color="#5c9ce6"/></linearGradient><path d="m0 10c0-5.52285 4.47715-10 10-10 5.5228 0 10 4.47715 10 10 0 5.5228-4.4772 10-10 10-5.52285 0-10-4.4772-10-10z" fill="url(#a)"/><path clip-rule="evenodd" d="m8.26716 5.00058c-.00567-.00038-.01139-.00058-.01716-.00058h-.6c-.35899 0-.65.29101-.65.65v.60058 4.24942h-.27147c-.16406 0-.29008.0302-.396.0868-.10593.0567-.18906.1398-.24571.2457-.05665.106-.08682.232-.08682.396v.043c0 .164.03017.29.08682.396.05665.1059.13978.189.24571.2457.10592.0566.23194.0868.396.0868h.27147v1.5h-.27147c-.16406 0-.29008.0302-.396.0868-.10593.0567-.18906.1398-.24571.2457-.05665.106-.08682.232-.08682.396v.043c0 .164.03017.29.08682.396.05665.1059.13978.189.24571.2457.10592.0566.23194.0868.396.0868h.27147v.35c0 .359.29101.65.65.65h.2c.35899 0 .65-.291.65-.65v-.35h2.2715c.164 0 .29-.0302.396-.0868.1059-.0567.189-.1398.2457-.2457.0566-.106.0868-.232.0868-.396v-.043c0-.164-.0302-.29-.0868-.396-.0567-.1059-.1398-.189-.2457-.2457-.106-.0566-.232-.0868-.396-.0868h-2.2715v-1.5h2.5c.9663 0 1.8423-.3926 2.4749-1.0251.6325-.6326 1.0251-1.5086 1.0251-2.47489s-.3926-1.84232-1.0251-2.47487c-.6167-.61663-1.4647-1.00533-2.4027-1.02439l-.0076-.00016zm.23284 1.5v3.99942h2.5c.5525 0 1.0515-.223 1.4142-.58577.3628-.36275.5858-.86173.5858-1.41422s-.223-1.05146-.5858-1.41421c-.3522-.35218-.8327-.57255-1.3654-.58521z" fill="#fff" fill-rule="evenodd"/></svg>
