<svg xmlns="http://www.w3.org/2000/svg" width="20" height="20" fill="none" viewBox="0 0 20 20"><path fill="currentColor" fill-rule="evenodd" d="M2 4.7455c0-1.5188 1.2312-2.75 2.75-2.75h.5a.75.75 0 0 1 0 1.5h-.5c-.6904 0-1.25.5596-1.25 1.25v.5a.75.75 0 1 1-1.5 0v-.5ZM14 2.75a.75.75 0 0 1 .75-.75h.5C16.7688 2 18 3.2312 18 4.75v.5a.75.75 0 0 1-1.5 0v-.5c0-.6904-.5596-1.25-1.25-1.25h-.5a.75.75 0 0 1-.75-.75ZM8.1211 5h3.7578c.3954 0 .7365 0 1.0174.023.2965.0242.5914.0776.8752.2222.4234.2158.7676.56.9833.9833.1446.2838.1981.5787.2223.8752.0206.2519.0227.552.0229.8963h1.25a.75.75 0 0 1 0 1.5H3.75a.75.75 0 0 1 0-1.5H5c.0003-.3443.0024-.6444.023-.8963.0242-.2965.0777-.5914.2223-.8752a2.25 2.25 0 0 1 .9832-.9833c.2838-.1446.5787-.198.8752-.2223C7.3847 5 7.7257 5 8.1212 5Zm-1.621 3H13.5c-.0004-.3488-.0027-.5873-.0179-.7741-.0167-.2038-.0449-.2793-.0638-.3164a.7501.7501 0 0 0-.3278-.3277c-.0371-.019-.1126-.0472-.3164-.0639-.2125-.0173-.4917-.0179-.9241-.0179h-3.7c-.4324 0-.7116.0006-.9241.018-.2038.0166-.2793.0449-.3164.0638a.75.75 0 0 0-.3277.3277c-.019.037-.0472.1126-.0638.3164-.0153.1868-.0176.4253-.018.7741Zm-.75 3a.75.75 0 0 1 .75.75v.1c0 .4324.0005.7116.0179.9241.0166.2038.0449.2793.0638.3164a.7507.7507 0 0 0 .3277.3278c.0371.0189.1126.0471.3164.0638.2125.0173.4917.0179.9241.0179h3.7c.4324 0 .7116-.0006.9241-.0179.2038-.0167.2793-.0449.3164-.0638a.7509.7509 0 0 0 .3278-.3278c.0189-.0371.0471-.1126.0638-.3164.0173-.2125.0179-.4917.0179-.9241v-.1a.75.75 0 0 1 1.5 0v.1289c0 .3954.0001.7364-.0229 1.0174-.0242.2965-.0777.5914-.2223.8752a2.2506 2.2506 0 0 1-.9833.9833c-.2838.1446-.5787.198-.8752.2223-.2809.0229-.622.0229-1.0174.0229H8.1211c-.3954 0-.7364 0-1.0174-.0229-.2965-.0243-.5914-.0777-.8751-.2223a2.2508 2.2508 0 0 1-.9833-.9833c-.1446-.2838-.1981-.5787-.2224-.8752C5 12.6153 5 12.2743 5 11.8789V11.75a.75.75 0 0 1 .75-.75ZM2.75 14a.75.75 0 0 1 .75.75v.5c0 .6904.5596 1.25 1.25 1.25h.5a.75.75 0 0 1 0 1.5h-.5C3.2312 18 2 16.7688 2 15.25v-.5a.75.75 0 0 1 .75-.75Zm14.5 0a.75.75 0 0 1 .75.75v.5c0 1.5188-1.2312 2.75-2.75 2.75h-.5a.75.75 0 0 1 0-1.5h.5c.6904 0 1.25-.5596 1.25-1.25v-.5a.75.75 0 0 1 .75-.75Z" clip-rule="evenodd"/></svg>
