<svg xmlns="http://www.w3.org/2000/svg" width="20" height="20" viewBox="0 0 20 20" fill="currentColor"><path d="M17.515 12.588 13.9 16.203a3.34 3.34 0 0 1-1.304.806l-1.433.477a.25.25 0 0 1-.316-.316l.477-1.433a3.34 3.34 0 0 1 .807-1.304l3.614-3.615zM14.5 3a4 4 0 0 1 4 4A.75.75 0 0 1 17 7a2.5 2.5 0 0 0-2.5-2.5H7.85c-.993 0-1.692 0-2.238.045-.537.044-.86.127-1.11.255A2.75 2.75 0 0 0 3.3 6.002c-.128.25-.211.573-.255 1.11-.032.385-.04.846-.042 1.432l3.484-1.523c1.587-.694 3.329.588 3.138 2.31L9.551 10c-.078.704.775 1.114 1.276.613l1.976-1.976a.75.75 0 0 1 1.06 1.06l-1.975 1.977c-1.504 1.504-4.062.274-3.827-1.84l.074-.669a.75.75 0 0 0-1.046-.77L3 10.183v.467c0 .993 0 1.692.045 2.238.044.537.127.86.255 1.11.263.518.685.939 1.202 1.202.25.128.573.211 1.11.255.546.045 1.245.045 2.238.045H9A.75.75 0 0 1 9 17H7.85c-.968 0-1.739 0-2.36-.05-.63-.051-1.172-.16-1.67-.413a4.25 4.25 0 0 1-1.857-1.857c-.254-.498-.362-1.04-.413-1.67-.05-.621-.05-1.392-.05-2.36v-1.3c0-.968 0-1.739.05-2.36.051-.63.16-1.172.413-1.67A4.25 4.25 0 0 1 3.82 3.463c.498-.254 1.04-.362 1.67-.413C6.111 3 6.882 3 7.85 3zm2.652 6.411a.834.834 0 0 1 1.18 0l.59.59a.835.835 0 0 1 0 1.18l-.59.59-1.77-1.77z"/></svg>