<svg xmlns="http://www.w3.org/2000/svg" width="20" height="20" viewBox="0 0 20 20" fill="currentColor"><path d="M5.947 4.057a.75.75 0 0 1 .82 1.256A5 5 0 1 0 13.83 12a.75.75 0 0 1 1.299.75c-.159.275-.34.536-.535.783l3.186 3.187a.75.75 0 0 1-1.06 1.06l-3.187-3.186q-.187.15-.384.286a6.5 6.5 0 0 1-8.118-.66 6.5 6.5 0 0 1 .916-10.163m9.129-.251a.447.447 0 0 1 .848 0l.34 1.018a2.23 2.23 0 0 0 1.412 1.412l1.019.34a.447.447 0 0 1 0 .848l-1.02.34a2.23 2.23 0 0 0-1.411 1.412l-.34 1.018a.447.447 0 0 1-.848 0l-.34-1.018a2.23 2.23 0 0 0-1.412-1.412l-1.018-.34a.447.447 0 0 1 0-.848l1.018-.34a2.23 2.23 0 0 0 1.412-1.412zm-4.879-2.588a.32.32 0 0 1 .606 0l.242.728c.159.476.533.85 1.009 1.009l.728.242a.32.32 0 0 1 0 .606l-.728.242c-.476.159-.85.532-1.009 1.009l-.242.728a.32.32 0 0 1-.606 0l-.242-.728a1.6 1.6 0 0 0-1.009-1.01l-.728-.241a.32.32 0 0 1 0-.606l.728-.242a1.6 1.6 0 0 0 1.01-1.009z"/></svg>