<svg xmlns="http://www.w3.org/2000/svg" width="20" height="20" viewBox="0 0 20 20" fill="currentColor"><path fill-rule="evenodd" d="M15 11.667A4.167 4.167 0 1 1 14.999 20a4.167 4.167 0 0 1 0-8.334m0 1.667a.75.75 0 0 0-.75.75v1.75a.75.75 0 0 0 .471.696c.26.104.506.193.729.273l.035.013c.212.077.867.336 1.04.405a.75.75 0 0 0 .558-1.392 64 64 0 0 0-1.08-.42l-.042-.016-.212-.076v-1.233a.75.75 0 0 0-.75-.75" clip-rule="evenodd"/><path d="M3.705 3.613c-.462-1.968-.796-2.411.922-1.476 1.72.936 10.037 5.568 11.895 6.599 1.715.951 2.23 1.176 1.467 1.733-.274.2-.64.196-.956.075a5.67 5.67 0 0 0-7.596 4.204 1.11 1.11 0 0 1-.537.774 844 844 0 0 0-4.273 2.362c-1.576.887-1.384.492-.922-1.476q.223-.952 1.092-3.287a3.33 3.33 0 0 1 2.49-2.109l4.804-.93a.084.084 0 0 0 .066-.099.08.08 0 0 0-.066-.065l-4.814-.93a3.34 3.34 0 0 1-2.495-2.116q-.857-2.32-1.077-3.26"/></svg>