<svg xmlns="http://www.w3.org/2000/svg" width="20" height="20" fill="currentColor" viewBox="0 0 20 20"><path d="M3.833 2.043a1.93 1.93 0 0 1 .91.028c.348.09.73.275 1.056.44.837.424 5.006 2.487 7.826 3.883l.197.098a.749.749 0 1 1-.666 1.344l-.361-.18A3355.61 3355.61 0 0 1 5.639 4.11l-.148-.073-.369-.187c-1.274-.644-1.215-.42-.877.858l.076.289.001.006.04.145c.149.51.452 1.317.91 2.422.35.847 1.16 1.468 2.137 1.639l.162.029.08.015.269.05.462.087c.757.146 1.148.24 1.236.381a.448.448 0 0 1 0 .47c-.09.142-.482.233-1.24.374l-.462.085-.269.049-.08.014-.168.03c-.98.17-1.792.794-2.141 1.644-.45 1.094-.748 1.893-.895 2.398a5.508 5.508 0 0 0-.04.147l-.008.028c-.05.19-.098.362-.14.515-.298 1.065-.347 1.243.947.609l.327-.162.184-.09c.703-.349.79-.388 1.613-.798a.751.751 0 1 1 .67 1.342c-1.36.68-1.553.77-2.135 1.055-.351.172-.744.357-1.088.447a1.917 1.917 0 0 1-.932.026 1.624 1.624 0 0 1-1.167-1.064 1.933 1.933 0 0 1-.076-.863c.023-.177.063-.35.097-.483.033-.131.074-.277.113-.416l.008-.029c.043-.154.089-.317.135-.495.156-.6.505-1.535.999-2.737a4.128 4.128 0 0 1 1.55-1.87 4.128 4.128 0 0 1-1.535-1.853C3.383 6.932 3.029 5.988 2.87 5.38l-.067-.256c-.07-.262-.14-.524-.184-.73a3.59 3.59 0 0 1-.077-.516 1.92 1.92 0 0 1 .14-.884c.21-.485.634-.835 1.15-.951Z"/><path fill-rule="evenodd" d="M14 10a4 4 0 1 1 0 8 4 4 0 0 1 0-8Zm0 1.5a.5.5 0 0 0-.5.5v2.015a.473.473 0 0 0 .015.104l.002.01.022.065.007.014.021.039c.008.014.016.028.026.042.009.013.02.025.03.037.013.013.024.027.037.039.008.008.018.014.026.021a.496.496 0 0 0 .052.039l.013.008 1.226.705a.5.5 0 0 0 .498-.867l-.975-.561V12a.5.5 0 0 0-.5-.5Z" clip-rule="evenodd"/></svg>