<svg xmlns="http://www.w3.org/2000/svg" width="20" height="20" fill="currentColor" viewBox="0 0 20 20"><path fill-rule="evenodd" d="M3.885 8.143c-.502-1.212-.856-2.156-1.014-2.764l-.068-.256a17.3 17.3 0 0 1-.183-.73 3.577 3.577 0 0 1-.078-.515c-.01-.16-.02-.51.141-.884a1.64 1.64 0 0 1 1.15-.952c.399-.09.744-.014.91.029.348.09.73.275 1.056.44.928.47 4.532 2.254 7.274 3.611l2.912 1.443.203.1c.446.221.854.423 1.15.598.168.1.393.243.59.433.184.176.544.582.57 1.212.028.656-.32 1.1-.521 1.304a2.946 2.946 0 0 1-.595.45c-.274.165-.652.353-1.051.55l-.23.115-2.156 1.079c-2.779 1.39-7.052 3.53-8.164 4.074-.351.172-.744.357-1.088.448a1.916 1.916 0 0 1-.933.025 1.624 1.624 0 0 1-1.167-1.064 1.93 1.93 0 0 1-.075-.863c.023-.177.063-.35.097-.483.033-.131.074-.277.113-.416l.008-.029c.043-.154.088-.317.135-.494.156-.6.505-1.535.999-2.738a4.128 4.128 0 0 1 1.551-1.87 4.127 4.127 0 0 1-1.536-1.853Zm3.687 1.094a61.576 61.576 0 0 1 .348.065l.462.088c.758.146 1.15.239 1.236.38a.447.447 0 0 1-.001.47c-.088.142-.48.233-1.239.374l-.463.085-.267.049-.08.014-.168.03c-.981.17-1.793.794-2.143 1.644-.45 1.094-.747 1.894-.894 2.398a5.4 5.4 0 0 0-.048.175c-.05.19-.098.362-.14.515-.298 1.065-.348 1.243.946.609l.328-.161.183-.09a3001.74 3001.74 0 0 0 7.63-3.811l2.169-1.086.334-.166.032-.016c.795-.396 1.201-.608 1.203-.823.002-.213-.393-.43-1.199-.832l-.034-.017-.449-.223-2.892-1.432C10.052 6.3 7.019 4.799 5.639 4.109a247.427 247.427 0 0 1-.518-.26c-1.273-.644-1.214-.42-.876.858l.076.289.001.005.04.146c.149.51.452 1.318.909 2.423.35.847 1.16 1.467 2.138 1.637l.163.03Z" clip-rule="evenodd"/></svg>
