<svg xmlns="http://www.w3.org/2000/svg" width="20" height="20" fill="currentColor" viewBox="0 0 20 20"><path fill-rule="evenodd" d="M11.747 7.718c-.28-.28-.52-.52-.703-.735-.192-.226-.363-.472-.46-.775a2.247 2.247 0 0 1 0-1.39c.097-.302.268-.548.46-.774.182-.215.444-.476.723-.756l.247-.247.248-.247c.279-.28.54-.54.755-.723.226-.192.472-.363.775-.461a2.248 2.248 0 0 1 1.39 0c.302.098.548.269.774.461.215.182.456.423.735.702l.268.268.267.268c.28.28.52.52.703.735.192.226.363.472.461.775.147.451.147.938 0 1.389-.098.303-.269.549-.461.775-.182.215-.444.476-.723.755l-.247.248-.247.247c-.28.28-.541.54-.756.723-.226.192-.472.363-.775.46a2.248 2.248 0 0 1-1.389 0c-.303-.097-.549-.268-.775-.46a12.884 12.884 0 0 1-.735-.703l-.268-.267-.267-.268Zm-.757 6.407c0-.395 0-.735.023-1.016.024-.296.078-.59.222-.874.216-.423.56-.767.982-.982.284-.145.579-.198.875-.223.28-.022.65-.022 1.045-.022h.7c.394 0 .764 0 1.044.022.296.025.591.078.875.223.422.215.766.559.982.982.144.283.198.578.222.874.023.28.023.621.023 1.016v.757c0 .395 0 .736-.023 1.017-.024.296-.078.59-.222.874-.216.423-.56.767-.982.982-.284.145-.579.198-.875.222-.28.023-.65.023-1.045.023h-.7c-.394 0-.764 0-1.044-.023a2.3 2.3 0 0 1-.875-.222 2.248 2.248 0 0 1-.982-.982 2.295 2.295 0 0 1-.222-.874c-.023-.281-.023-.622-.023-1.017v-.757ZM2 5.135v.757c0 .395 0 .736.023 1.016.024.296.078.591.222.874.215.423.56.767.982.983.284.144.578.198.874.222.281.023.65.023 1.046.023h.699c.395 0 .764 0 1.045-.023.296-.024.59-.078.874-.222.423-.216.767-.56.982-.983.145-.283.198-.578.223-.874.022-.28.022-.621.022-1.016v-.757c0-.395 0-.736-.022-1.016-.025-.297-.078-.591-.223-.875a2.248 2.248 0 0 0-.982-.982 2.29 2.29 0 0 0-.874-.222c-.28-.023-.65-.023-1.045-.023h-.7c-.394 0-.764 0-1.045.023-.296.024-.59.078-.874.222-.423.216-.767.56-.982.982a2.295 2.295 0 0 0-.222.875C2 4.399 2 4.74 2 5.135Zm0 8.99c0-.395 0-.735.023-1.016.024-.296.078-.59.222-.874.215-.423.56-.767.982-.982.284-.145.578-.198.874-.223.281-.022.65-.022 1.046-.022h.699c.395 0 .764 0 1.045.022.296.025.59.078.874.223.423.215.767.559.982.982.145.283.198.578.223.874.022.28.022.621.022 1.016v.757c0 .395 0 .736-.022 1.017-.025.296-.078.59-.223.874a2.24 2.24 0 0 1-.982.982c-.283.145-.578.198-.874.222-.28.023-.65.023-1.045.023h-.7c-.394 0-.764 0-1.045-.023a2.295 2.295 0 0 1-.874-.222 2.248 2.248 0 0 1-.982-.982 2.295 2.295 0 0 1-.222-.874C2 15.617 2 15.277 2 14.882v-.757Z" clip-rule="evenodd"/></svg>
