<svg fill="none" height="20" viewBox="0 0 20 20" width="20" xmlns="http://www.w3.org/2000/svg" xmlns:xlink="http://www.w3.org/1999/xlink"><linearGradient id="a" gradientUnits="userSpaceOnUse" x1="-10" x2="10" y1="10" y2="30"><stop offset="0" stop-color="#70b2ff"/><stop offset="1" stop-color="#5c9ce6"/></linearGradient><path d="m0 10c0-5.52285 4.47715-10 10-10 5.5228 0 10 4.47715 10 10 0 5.5228-4.4772 10-10 10-5.52285 0-10-4.4772-10-10z" fill="url(#a)"/><path d="m7.64757 10.75c.5572 0 .75926.058.96296.167.2037.1089.36357.2688.47251.4725s.16696.4057.16696.9629v1.0452c0 .5572-.05802.7592-.16696.9629s-.26881.3636-.47251.4725c-.2037.109-.40576.167-.96296.167h-1.04514c-.5572 0-.75925-.058-.96296-.167-.2037-.1089-.36357-.2688-.47251-.4725s-.16696-.4057-.16696-.9629v-1.0452c0-.5572.05802-.7592.16696-.9629s.26881-.3636.47251-.4725c.20371-.109.40576-.167.96296-.167zm5.75003 0c.5572 0 .7592.058.9629.167.2037.1089.3636.2688.4725.4725.109.2037.167.4057.167.9629v1.0452c0 .5572-.058.7592-.167.9629-.1089.2037-.2688.3636-.4725.4725-.2037.109-.4057.167-.9629.167h-1.0452c-.5572 0-.7592-.058-.9629-.167-.2037-.1089-.3636-.2688-.4725-.4725-.109-.2037-.167-.4057-.167-.9629v-1.0452c0-.5572.058-.7592.167-.9629.1089-.2037.2688-.3636.4725-.4725.2037-.109.4057-.167.9629-.167zm-.1885-6.05997c.2211.067.405.16885.799.56285l.739.73903c.394.394.4959.5779.5629.79897s.067.44716 0 .66824c-.067.22107-.1689.40497-.5629.79897l-.739.73902c-.394.394-.5779.49585-.799.56286s-.4471.06701-.6682 0-.405-.16886-.799-.56286l-.739-.73902c-.394-.394-.4959-.5779-.5629-.79897-.067-.22108-.067-.44717 0-.66824s.1689-.40497.5629-.79897l.739-.73903c.394-.394.5779-.49585.799-.56285.2211-.06701.4471-.06701.6682 0zm-5.56153.30997c.5572 0 .75926.05801.96296.16696.2037.10894.36357.26881.47251.47251s.16696.40576.16696.96296v1.04514c0 .5572-.05802.75925-.16696.96296-.10894.2037-.26881.36357-.47251.47251s-.40576.16696-.96296.16696h-1.04514c-.5572 0-.75925-.05802-.96296-.16696-.2037-.10894-.36357-.26881-.47251-.47251-.10894-.20371-.16696-.40576-.16696-.96296v-1.04514c0-.5572.05802-.75926.16696-.96296s.26881-.36357.47251-.47251c.20371-.10895.40576-.16696.96296-.16696z" fill="#fff"/></svg>
