<svg fill="none" height="20" viewBox="0 0 20 20" width="20" xmlns="http://www.w3.org/2000/svg"><path clip-rule="evenodd" d="m11.7572 7.70693v-.00002-.00001l-.0001-.00001c-.2795-.27953-.5207-.52068-.7031-.73554-.1925-.22679-.3632-.47315-.4616-.77606-.1469-.4519-.1469-.93868 0-1.39057.0984-.30292.2691-.54927.4616-.77607.1825-.21487.4441-.47647.7236-.75602v-.00001h.0001l.2474-.24749.2475-.24749c.2796-.27957.5412-.54119.7561-.72361.2268-.19253.4731-.36325.776-.46167.4519-.14683.9387-.14683 1.3906 0 .3029.09842.5493.26914.7761.46167.2148.18239.4559.42352.7354.70303l.0001.00005v.00006.00001l.0001.00002.2679.26793.2679.26793v.00002.00001l.0001.00003v.00003c.2795.27951.5207.52065.7031.7355.1925.2268.3632.47315.4617.77607.1468.45189.1468.93867 0 1.39057-.0985.30291-.2692.54927-.4617.77606-.1824.21488-.4441.47649-.7236.75604l-.2475.24749-.2475.24748c-.2796.27958-.5412.5412-.756.72362-.2268.19253-.4732.36324-.7761.46167-.4519.14683-.9387.14683-1.3906 0-.3029-.09843-.5492-.26914-.776-.46167-.2149-.18241-.4561-.42358-.7356-.70314v-.00001-.00002l-.268-.26793-.2679-.26793zm4.4045-1.0402-.2475.24749-.2475.24748c-.3057.30577-.5036.50278-.6661.64077-.1558.1323-.2292.16573-.2688.17859-.1507.04894-.3129.04894-.4636 0-.0395-.01286-.1129-.04629-.2688-.17859-.1625-.13799-.3604-.335-.6661-.64077l-.2475-.24748-.2475-.24749c-.3058-.30576-.5028-.5036-.6408-.66614-.1323-.15585-.1657-.22924-.1785-.26882-.049-.15064-.049-.3129 0-.46353.0128-.03958.0462-.11298.1785-.26882.138-.16254.335-.36038.6408-.66614l.2475-.24749.2475-.24749c.3057-.30576.5036-.50277.6661-.64076.1559-.1323.2293-.16573.2688-.17859.1507-.04895.3129-.04895.4636 0 .0396.01286.113.04629.2688.17859.1625.13799.3604.335.6661.64076l.2475.24749.2475.24749c.3058.30576.5028.5036.6408.66614.1323.15584.1657.22924.1786.26882.0489.15063.0489.31289 0 .46353-.0129.03958-.0463.11297-.1786.26882-.138.16254-.335.36038-.6408.66614zm-5.1617 7.45437v-.0001c0-.3953 0-.7363.0229-1.0173.0243-.2965.0777-.5914.2223-.8752.2158-.4233.56-.7675.9833-.9833.2838-.1446.5787-.198.8752-.2223.281-.0229.6509-.0229 1.0463-.0229h.35.35c.3954 0 .7653 0 1.0463.0229.2965.0243.5914.0777.8752.2223.4233.2158.7676.56.9833.9833.1446.2838.198.5787.2223.8752.0229.2809.0229.622.0229 1.0173v.0001.3789.3789.0001c0 .3953 0 .7364-.0229 1.0173-.0243.2965-.0777.5914-.2223.8752-.2157.4233-.56.7676-.9833.9833-.2838.1446-.5787.1981-.8752.2223-.2809.0229-.6509.0229-1.0462.0229h-.0001-.35-.35-.0001c-.3953 0-.7653 0-1.0462-.0229-.2965-.0242-.5914-.0777-.8752-.2223-.4233-.2157-.7675-.56-.9833-.9833-.1446-.2838-.198-.5787-.2223-.8752-.0229-.2809-.0229-.622-.0229-1.0173v-.0001-.3789zm3.85 2.3789h-.35-.35c-.4324 0-.7116-.0006-.9241-.0179-.2038-.0167-.2793-.0449-.3164-.0638-.1411-.0719-.2558-.1867-.3278-.3278-.0188-.0371-.0471-.1126-.0638-.3164-.0173-.2125-.0179-.4917-.0179-.9241v-.35-.35c0-.4324.0006-.7116.0179-.9241.0167-.2038.045-.2793.0638-.3164.072-.1411.1867-.2558.3278-.3277.0371-.0189.1126-.0472.3164-.0638.2125-.0174.4917-.018.9241-.018h.35.35c.4324 0 .7116.0006.9241.018.2038.0166.2793.0449.3164.0638.1411.0719.2559.1866.3278.3277.0189.0371.0471.1126.0638.3164.0173.2125.0179.4917.0179.9241v.35.35c0 .4324-.0006.7116-.0179.9241-.0167.2038-.0449.2793-.0638.3164-.0719.1411-.1867.2559-.3278.3278-.0371.0189-.1126.0471-.3164.0638-.2125.0173-.4917.0179-.9241.0179zm-12.85-11.37896v.00003.00003.3789.37891.00003.00003.00002c-.00001.39533-.00002.73638.02293 1.01728.02423.29651.07771.59143.22231.87521.21571.42337.55992.76757.98328.98329.28379.14459.5787.19808.87521.22231.28093.02295.65091.02294 1.04627.02292h.35.35c.39536.00002.76534.00003 1.04627-.02292.29651-.02423.59142-.07772.87521-.22231.42336-.21572.76757-.55992.98328-.98329.1446-.28378.19809-.5787.22231-.87521.02296-.28092.02294-.62198.02293-1.01733v-.00003-.37891-.3789-.00003c.00001-.39535.00003-.73641-.02293-1.01734-.02422-.2965-.07771-.59142-.22231-.8752-.21571-.42337-.55992-.76757-.98328-.98329-.28379-.14459-.5787-.19808-.87521-.22231-.28092-.02295-.6509-.02294-1.04626-.02293h-.00001-.35-.35-.00001c-.39536-.00001-.76533-.00002-1.04626.02293-.29651.02423-.59142.07772-.87521.22231-.42336.21572-.76757.55992-.98328.98329-.1446.28378-.19808.5787-.22231.8752-.02295.28091-.02294.62196-.02293 1.01728zm3.5 2.37896h.35c.43242 0 .71162-.00058.92412-.01794.20375-.01665.27929-.04491.31637-.0638.14112-.07191.25586-.18664.32776-.32776.0189-.03709.04716-.11263.0638-.31637.01737-.21251.01795-.49171.01795-.92413v-.35-.34999c0-.43242-.00058-.71162-.01795-.92413-.01664-.20374-.0449-.27928-.0638-.31637-.0719-.14112-.18664-.25585-.32776-.32776-.03708-.01889-.11262-.04715-.31637-.0638-.2125-.01736-.4917-.01794-.92412-.01794l-.35-.00001-.35.00001c-.43241 0-.71162.00058-.92412.01794-.20375.01665-.27929.04491-.31637.0638-.14112.07191-.25586.18664-.32776.32776-.0189.03709-.04715.11263-.0638.31637-.01736.21251-.01795.49171-.01795.92413v.34999.35c0 .43242.00059.71162.01795.92413.01665.20374.0449.27928.0638.31637.0719.14112.18664.25585.32776.32776.03708.01889.11262.04715.31637.0638.2125.01736.49171.01794.92412.01794zm-3.5 6.6211v-.0001c-.00001-.3953-.00002-.7364.02293-1.0173.02423-.2965.07771-.5914.22231-.8752.21571-.4233.55992-.7675.98328-.9833.28379-.1446.5787-.198.87521-.2223.28093-.0229.65091-.0229 1.04626-.0229h.00001.35.35.00001c.39536 0 .76533 0 1.04626.0229.29651.0243.59142.0777.87521.2223.42336.2158.76757.56.98328.9833.1446.2838.19809.5787.22231.8752.02296.281.02294.622.02293 1.0174v.3789.3789c.00001.3954.00003.7365-.02293 1.0174-.02422.2965-.07771.5914-.22231.8752-.21571.4233-.55992.7676-.98328.9833-.28379.1446-.5787.1981-.87521.2223-.28092.0229-.65088.0229-1.04623.0229h-.00004-.35-.35-.00003c-.39535 0-.76532 0-1.04624-.0229-.29651-.0242-.59142-.0777-.87521-.2223-.42336-.2157-.76757-.56-.98328-.9833-.1446-.2838-.19808-.5787-.22231-.8752-.02295-.2809-.02294-.622-.02293-1.0173v-.0001-.3789zm3.85 2.3789h-.35-.35c-.43241 0-.71162-.0006-.92412-.0179-.20375-.0167-.27929-.0449-.31637-.0638-.14112-.0719-.25586-.1867-.32776-.3278-.0189-.0371-.04715-.1126-.0638-.3164-.01736-.2125-.01795-.4917-.01795-.9241v-.35-.35c0-.4324.00059-.7116.01795-.9241.01665-.2038.0449-.2793.0638-.3164.0719-.1411.18664-.2558.32776-.3277.03708-.0189.11262-.0472.31637-.0638.2125-.0174.49171-.018.92412-.018h.35.35c.43242 0 .71162.0006.92412.018.20375.0166.27929.0449.31637.0638.14112.0719.25586.1866.32776.3277.0189.0371.04716.1126.0638.3164.01737.2125.01795.4917.01795.9241v.35.35c0 .4324-.00058.7116-.01795.9241-.01664.2038-.0449.2793-.0638.3164-.0719.1411-.18664.2559-.32776.3278-.03708.0189-.11262.0471-.31637.0638-.2125.0173-.4917.0179-.92412.0179z" fill="currentColor" fill-rule="evenodd"/></svg>
