<svg xmlns="http://www.w3.org/2000/svg" width="20" height="20" fill="none" viewBox="0 0 20 20"><path fill="url(#a)" d="M0 10C0 4.4771 4.4771 0 10 0c5.5228 0 10 4.4771 10 10 0 5.5228-4.4772 10-10 10-5.5229 0-10-4.4772-10-10Z"/><path fill="#fff" d="M7.6476 10.75c.5572 0 .7592.058.963.167.2036.1089.3635.2688.4724.4725.109.2037.167.4057.167.9629v1.0452c0 .5572-.058.7592-.167.9629a1.1356 1.1356 0 0 1-.4725.4725c-.2037.109-.4057.167-.963.167h-1.045c-.5573 0-.7593-.058-.963-.167a1.1356 1.1356 0 0 1-.4725-.4725c-.109-.2037-.167-.4057-.167-.9629v-1.0452c0-.5572.058-.7592.167-.9629a1.1356 1.1356 0 0 1 .4725-.4725c.2037-.109.4057-.167.963-.167h1.045Zm5.75 0c.5572 0 .7592.058.9629.167.2037.1089.3636.2688.4725.4725.109.2037.167.4057.167.9629v1.0452c0 .5572-.058.7592-.167.9629a1.1353 1.1353 0 0 1-.4725.4725c-.2037.109-.4057.167-.9629.167h-1.0452c-.5572 0-.7592-.058-.9629-.167a1.1353 1.1353 0 0 1-.4725-.4725c-.109-.2037-.167-.4057-.167-.9629v-1.0452c0-.5572.058-.7592.167-.9629a1.1353 1.1353 0 0 1 .4725-.4725c.2037-.109.4057-.167.9629-.167h1.0452Zm-.1885-6.06c.2211.067.405.1689.799.5629l.739.739c.394.394.4959.578.5629.799.067.221.067.4471 0 .6682-.067.221-.1689.405-.5629.799l-.739.739c-.394.394-.5779.4959-.799.5629a1.1356 1.1356 0 0 1-.6682 0c-.2211-.067-.405-.1689-.799-.5629l-.739-.739c-.394-.394-.4959-.578-.5629-.799a1.136 1.136 0 0 1 0-.6682c.067-.221.1689-.405.5629-.799l.739-.739c.394-.394.5779-.4959.799-.5629.2211-.067.4471-.067.6682 0ZM7.6476 5c.5572 0 .7592.058.963.167.2036.1089.3635.2688.4724.4725.109.2037.167.4057.167.963v1.045c0 .5573-.058.7593-.167.963a1.1358 1.1358 0 0 1-.4725.4725c-.2037.109-.4057.167-.963.167h-1.045c-.5573 0-.7593-.058-.963-.167a1.1358 1.1358 0 0 1-.4725-.4725C5.058 8.4068 5 8.2048 5 7.6475v-1.045c0-.5573.058-.7593.167-.963a1.1358 1.1358 0 0 1 .4725-.4725c.2037-.109.4057-.167.963-.167h1.045Z"/><defs><linearGradient id="a" x1="-10" x2="10" y1="10" y2="30" gradientUnits="userSpaceOnUse"><stop stop-color="#FFB73D"/><stop offset="1" stop-color="#FFA000"/></linearGradient></defs></svg>
