<svg fill="none" height="20" viewBox="0 0 20 20" width="20" xmlns="http://www.w3.org/2000/svg"><path clip-rule="evenodd" d="m9.76401 4.75271c0-.2088.23919-.32447.40239-.19746l6.7411 5.24664c.1286.1001.1286.29491-.0001.39491l-6.7462 5.2493c-.16318.127-.40234.0113-.40234-.1975v-3.1356c0-.4142-.33579-.75-.75-.75-2.45618 0-4.34197.9132-5.83214 2.197.26607-1.4542.82447-2.5771 1.57064-3.426 1.06538-1.212 2.5805-1.94141 4.38446-2.22834.36416-.05792.63219-.37195.63219-.74069zm1.32369-1.38119c-1.14976-.89486-2.82369-.07435-2.82369 1.38119v1.79029c-1.80988.39366-3.4344 1.22545-4.64327 2.60072-1.35158 1.53758-2.11683 3.67868-2.11683 6.44438 0 .3166.19882.5992.49686.706.29804.1069.63108.0151.83226-.2294 1.36181-1.6549 3.05855-2.9416 5.42583-3.1667v2.3506c0 1.4554 1.67371 2.276 2.82354 1.3813l6.7462-5.2492c.9003-.7006.9004-2.06184.0002-2.76253z" fill="currentColor" fill-rule="evenodd"/></svg>
