<svg xmlns="http://www.w3.org/2000/svg" width="20" height="20" fill="currentColor" viewBox="0 0 20 20"><path fill-rule="evenodd" d="M10.75 2.676v14.5c.81-.403 1.965-1.071 2.988-2.005C15.008 14.012 16 12.515 16 10.658v-5.69c0-.22 0-.348-.007-.443a.526.526 0 0 0-.011-.09.25.25 0 0 0-.072-.098.535.535 0 0 0-.082-.038 7.24 7.24 0 0 0-.42-.14L10.75 2.675Zm5.161 1.662h-.001Zm.07.096v.002ZM9.25 17.176c-.81-.403-1.965-1.071-2.988-2.005C4.992 14.012 4 12.515 4 10.658v-5.69c0-.22 0-.348.007-.443a.534.534 0 0 1 .011-.09.25.25 0 0 1 .073-.098.533.533 0 0 1 .081-.038 7.24 7.24 0 0 1 .42-.14L9.25 2.675v14.5ZM4.089 4.338h.001Zm-.07.096v.002ZM9.662 1.02a2.75 2.75 0 0 1 .676 0c.255.031.498.109.807.207l.053.017 4.665 1.485.08.025c.316.1.653.206.917.422.229.188.406.431.516.706.126.317.125.67.124 1.002v5.774c0 2.44-1.314 4.309-2.75 5.62-1.438 1.313-3.072 2.14-3.906 2.512l-.025.012a2.043 2.043 0 0 1-.526.174c-.176.03-.41.03-.586 0-.22-.037-.38-.11-.526-.174l-.025-.012c-.833-.372-2.468-1.199-3.905-2.511-1.437-1.312-2.751-3.181-2.751-5.62V4.883c-.001-.332-.002-.685.124-1.002a1.75 1.75 0 0 1 .516-.706c.264-.216.6-.322.917-.422l.08-.025 4.665-1.485.053-.017c.309-.098.552-.176.807-.207Z" clip-rule="evenodd"/></svg>
