<svg xmlns="http://www.w3.org/2000/svg" width="20" height="20" fill="currentColor" viewBox="0 0 20 20"><path fill-rule="evenodd" d="M3.175 3.548c-.098-.037-.238-.05-.926-.05a.75.75 0 0 1 0-1.5h.11c.513 0 .96-.001 1.354.15a2.25 2.25 0 0 1 1.104.912c.084.135.148.281.2.439l10.167.566c.527.029.971.054 1.327.105.367.054.733.148 1.053.376.465.332.786.828.899 1.388.078.385.013.758-.088 1.115-.098.345-.257.761-.446 1.254l-.678 1.77c-.376.983-.635 1.661-1.092 2.175a3.75 3.75 0 0 1-1.475 1.014c-.643.244-1.37.243-2.422.243H8.027c-.331 0-.62 0-.86-.018a2.272 2.272 0 0 1-.764-.172 2.25 2.25 0 0 1-.946-.782 2.272 2.272 0 0 1-.313-.717 12.365 12.365 0 0 1-.18-.841L3.767 4.753c-.13-.677-.168-.812-.224-.9a.75.75 0 0 0-.368-.305ZM5.346 5.02l1.086 5.647c.069.358.113.586.16.758a.825.825 0 0 0 .1.257.75.75 0 0 0 .315.26.823.823 0 0 0 .271.05c.178.013.41.014.774.014h4.067c1.252 0 1.68-.012 2.034-.146a2.25 2.25 0 0 0 .885-.608c.252-.283.416-.679.864-1.848l.614-1.605c.204-.533.339-.885.416-1.158.076-.27.069-.37.06-.41a.75.75 0 0 0-.3-.463c-.033-.024-.121-.072-.398-.112-.28-.041-.658-.063-1.227-.095l-9.72-.54Z M8.25 16.5a1.5 1.5 0 1 1-3 0 1.5 1.5 0 0 1 3 0ZM14 18a1.5 1.5 0 1 0 0-3 1.5 1.5 0 0 0 0 3Z"/></svg>
