<svg xmlns="http://www.w3.org/2000/svg" width="20" height="20" fill="none" viewBox="0 0 20 20"><path fill="currentColor" fill-rule="evenodd" d="M3.545 4.0392C3.4342 4.0072 3.2843 4 2.6745 4H2.25a.75.75 0 1 1 0-1.5h.5174c.4683-.0005.851-.0008 1.1937.0981.7131.206 1.306.7132 1.5971 1.4019h10.6932c.2199 0 .4169 0 .5798.0097.1701.0101.3622.0331.555.1075a1.7499 1.7499 0 0 1 1.1119 1.4603c.0204.2056-.0086.397-.0441.5636-.0339.1595-.0863.3494-.1448.5613-.3938 1.4266-.7889 2.8528-1.1812 4.2798-.0951.346-.178.6478-.3283.9045a2.2502 2.2502 0 0 1-1.3627 1.0376c-.2874.0765-.6004.0762-.9593.0758a3027.875 3027.875 0 0 0-6.534 0c-.3949.0005-.7383.0009-1.0473-.0884a2.2498 2.2498 0 0 1-1.4053-1.1905c-.1389-.2901-.195-.6289-.2594-1.0185-.2915-1.761-.5868-3.5215-.8803-5.2822-.1002-.6014-.132-.7481-.1818-.8521a1 1 0 0 0-.6246-.5292ZM5.8853 5.5l.812 4.872c.0871.5225.1123.6297.1468.7018a.7496.7496 0 0 0 .4685.3968c.0768.0222.1867.0295.7164.0295h6.3721c.4796 0 .5781-.0062.6498-.0253a.7503.7503 0 0 0 .4543-.3458c.0375-.0641.0696-.1574.1972-.6198l1.1554-4.1863c.0656-.2374.1056-.3836.1291-.494.0149-.0699.0174-.1011.0179-.1091a.25.25 0 0 0-.153-.201c-.0079-.0017-.0387-.0075-.1099-.0118-.1127-.0067-.2643-.007-.5106-.007H5.8853Z" clip-rule="evenodd"/><path fill="currentColor" d="M6.5 16.25c0-.6904.5596-1.25 1.25-1.25S9 15.5596 9 16.25c0 .6903-.5596 1.25-1.25 1.25s-1.25-.5597-1.25-1.25Zm6.5 0c0-.6904.5596-1.25 1.25-1.25s1.25.5596 1.25 1.25c0 .6903-.5596 1.25-1.25 1.25S13 16.9403 13 16.25Z"/></svg>
