<svg xmlns="http://www.w3.org/2000/svg" width="20" height="20" fill="currentColor" viewBox="0 0 20 20"><path d="M15.963 3.807a.75.75 0 0 1 .817.163l1.5 1.5a.75.75 0 0 1 0 1.06l-1.5 1.5a.75.75 0 0 1-1.28-.53v-.75h-.041c-1.437 0-2.585.667-3.731 1.709a.75.75 0 1 1-1.009-1.11c1.273-1.157 2.768-2.099 4.74-2.099h.041V4.5a.75.75 0 0 1 .463-.693Z M2.25 14.75a.75.75 0 0 1 0-1.5c2.527 0 4.216-1.45 5.915-3.25-1.697-1.795-3.38-3.25-5.915-3.25a.75.75 0 0 1 0-1.5c3.5 0 5.663 2.261 7.491 4.241l.203.22c.862.935 1.65 1.79 2.515 2.439.912.683 1.863 1.1 3 1.1h.041v-.75a.75.75 0 0 1 1.28-.53l1.5 1.5a.75.75 0 0 1 0 1.06l-1.5 1.5a.75.75 0 0 1-1.28-.53v-.75h-.041c-1.55 0-2.81-.583-3.9-1.4-.854-.64-1.632-1.448-2.372-2.247C7.474 12.909 5.41 14.75 2.25 14.75Z"/></svg>
