<svg xmlns="http://www.w3.org/2000/svg" width="20" height="20" fill="currentColor" viewBox="0 0 20 20"><path fill-rule="evenodd" d="M5.232 7.443C6.063 5.187 7.83 3 10.326 3c.58 0 1.1.156 1.505.502.402.344.617.813.71 1.305.178.955-.078 2.145-.554 3.304-.86 2.098-2.594 4.462-4.73 5.816l.105.123c.177.2.314.317.45.386.226.116.648.2 1.722-.224.39-.154.757-.311 1.103-.47-.057-1.01.316-2.175.91-3.116.714-1.13 1.896-2.167 3.4-2.167.617 0 1.243.248 1.495.895.224.572.046 1.213-.26 1.764-.573 1.032-1.849 2.225-3.866 3.316a.985.985 0 0 0 .3.19c.31.126.817.164 1.546-.153.374-.162.667-.323.922-.466l.084-.048a5.11 5.11 0 0 1 .66-.333c.279-.106.606-.163.97-.047.33.105.607.327.861.581a.685.685 0 0 1-.968.969c-.193-.192-.284-.236-.306-.244a.367.367 0 0 0-.07.02 4.183 4.183 0 0 0-.488.255l-.071.04a11 11 0 0 1-1.047.53c-.981.426-1.881.462-2.612.163a2.321 2.321 0 0 1-1.042-.835c-.323.146-.662.29-1.018.43-1.198.473-2.094.557-2.85.169-.357-.183-.627-.444-.852-.7a9.89 9.89 0 0 1-.27-.324c-.045.028-.089.058-.134.088a29.5 29.5 0 0 1-.35.228c-.337.217-.736.454-1.15.58-.437.13-.952.155-1.447-.138-.467-.277-.801-.77-1.055-1.405a.685.685 0 0 1 1.271-.509c.203.507.387.679.482.735.066.04.157.064.353.005.217-.066.477-.21.807-.42.088-.057.185-.12.285-.187l.13-.085c-.398-.736-.588-1.606-.623-2.491-.047-1.17.17-2.43.598-3.589Zm1.205 5.381c1.875-1.152 3.488-3.294 4.283-5.233.438-1.066.581-1.96.474-2.532-.05-.27-.149-.426-.254-.516-.101-.087-.28-.173-.614-.173-1.613 0-3.042 1.465-3.809 3.547-.371 1.009-.553 2.089-.514 3.06.029.725.178 1.354.434 1.847Zm5.613.19c1.644-.95 2.562-1.891 2.935-2.561.201-.363.192-.546.184-.59a.533.533 0 0 0-.221-.035c-.838 0-1.652.594-2.242 1.529a4.697 4.697 0 0 0-.656 1.656Z" clip-rule="evenodd"/></svg>
