<svg xmlns="http://www.w3.org/2000/svg" width="20" height="20" fill="currentColor" viewBox="0 0 20 20"><path fill-rule="evenodd" d="M6.87 1.504c-.18 0-.357 0-.507.013a1.48 1.48 0 0 0-.563.147c-.276.14-.5.364-.64.64a1.48 1.48 0 0 0-.148.563C5 3.017 5 3.194 5 3.374v1.63l-3.04 9.428-.01.033a1.7 1.7 0 0 0-.108.611c.003.122.028.242.05.328a1.43 1.43 0 0 0 .473.753l.012.012c.925.853 3.185 2.335 7.623 2.335 4.438 0 6.697-1.482 7.623-2.335l.012-.011c.105-.097.237-.219.355-.443a1.522 1.522 0 0 0 .168-.639 1.703 1.703 0 0 0-.109-.612l-.01-.033-3.04-9.404.001-.023v-1.63c0-.18 0-.357-.012-.507a1.479 1.479 0 0 0-.148-.563c-.14-.276-.364-.5-.64-.64a1.48 1.48 0 0 0-.563-.147 6.575 6.575 0 0 0-.506-.013H6.869Zm-.536 4.25H7.78L6.064 16.482c-1.463-.444-2.288-1.063-2.67-1.416a5.393 5.393 0 0 1-.047-.043l.007-.024.034-.107 2.946-9.138ZM7.53 16.817 9.3 5.754h1.4l1.77 11.063c-.716.116-1.536.187-2.47.187-.934 0-1.754-.07-2.47-.187Zm6.406-.335c1.462-.444 2.288-1.063 2.67-1.415l.046-.044-.006-.023a5.859 5.859 0 0 0-.035-.107l-2.953-9.139H12.22l1.716 10.728ZM13.5 4.254v-.857c0-.195 0-.307-.006-.387a6.876 6.876 0 0 0-.387-.006H6.893c-.195 0-.307 0-.387.006-.006.08-.006.192-.006.387v.857h7Z" clip-rule="evenodd"/></svg>
