<svg xmlns="http://www.w3.org/2000/svg" width="20" height="20" fill="currentColor" viewBox="0 0 20 20"><path d="M10 1.5a8.5 8.5 0 1 1 0 17 8.5 8.5 0 0 1 0-17ZM10 3a7 7 0 1 0 0 14 7 7 0 0 0 0-14Zm3.067 9.056c.3.286.312.76.027 1.06a4.06 4.06 0 0 1-.855.654A4.356 4.356 0 0 1 10 14.4a4.355 4.355 0 0 1-2.239-.63 4.06 4.06 0 0 1-.854-.653.75.75 0 0 1 1.004-1.109l.197.18c.098.083.239.186.417.292.446.263.942.42 1.475.42.533 0 1.029-.157 1.475-.42.178-.106.32-.21.417-.292l.115-.105a.75.75 0 0 1 1.06-.027ZM7.625 7.25a1.125 1.125 0 1 1 0 2.25 1.125 1.125 0 0 1 0-2.25Zm4.75 0a1.125 1.125 0 1 1 0 2.25 1.125 1.125 0 0 1 0-2.25Z"/></svg>
