<svg fill="none" height="20" viewBox="0 0 20 20" width="20" xmlns="http://www.w3.org/2000/svg" xmlns:xlink="http://www.w3.org/1999/xlink"><linearGradient id="a" gradientUnits="userSpaceOnUse" x1="-10" x2="10" y1="10" y2="30"><stop offset="0" stop-color="#c48aff"/><stop offset="1" stop-color="#aa65f0"/></linearGradient><path d="m0 10c0-5.52285 4.47715-10 10-10 5.5228 0 10 4.47715 10 10 0 5.5228-4.4772 10-10 10-5.52285 0-10-4.4772-10-10z" fill="url(#a)"/><path d="m10.5963 12.5875c0 2.8534-2.59961 4.3215-4.01231 2.8057-1.46145-1.5681-.06096-4.1406 2.87666-4.2976l.00113-4.09401c-.01537-1.16998.51599-2.00146 1.52242-2.36142l.1966-.06544c.4132-.12994 1.1177-.31489 2.1269-.55952.3252-.07883.6359.15782.6855.49842l.0068.09531v1.27974c0 .93436-.551 1.75885-1.3612 2.06588l-.1548.0514-1.8877.54012z" fill="#fff"/></svg>
