<svg xmlns="http://www.w3.org/2000/svg" width="20" height="20" fill="none" viewBox="0 0 20 20"><path fill="currentColor" fill-rule="evenodd" d="M13.75 4c.1989 0 .3897.079.5303.2197l2.5 2.5a.75.75 0 0 1-1.0606 1.0606L14.5 6.5607V15.25a.75.75 0 0 1-1.5 0V6.5607l-1.2197 1.2196c-.2929.293-.7677.293-1.0606 0s-.2929-.7677 0-1.0606l2.5-2.5A.7499.7499 0 0 1 13.75 4zm-7.5 0a.75.75 0 0 1 .75.75v8.6893l1.2197-1.2196a.75.75 0 0 1 1.0606 1.0606l-2.5 2.5a.7498.7498 0 0 1-1.0606 0l-2.5-2.5c-.293-.2929-.293-.7677 0-1.0606s.7677-.2929 1.0606 0L5.5 13.4393V4.75A.75.75 0 0 1 6.25 4z" clip-rule="evenodd"/></svg>
