<svg xmlns="http://www.w3.org/2000/svg" width="20" height="20" fill="currentColor" viewBox="0 0 20 20"><path fill-rule="evenodd" d="M9.218 3.011C8.746 4.55 8.06 6.248 7.154 7.154c-.906.906-2.605 1.592-4.143 2.064a25.248 25.248 0 0 1-1.223.343c-.382.097-.382.78 0 .878a30.038 30.038 0 0 1 1.223.343c1.538.472 3.237 1.158 4.143 2.064.906.906 1.592 2.605 2.064 4.143a24.927 24.927 0 0 1 .343 1.223c.097.382.78.382.878 0a29.655 29.655 0 0 1 .343-1.223c.472-1.538 1.158-3.237 2.064-4.143.906-.906 2.605-1.592 4.143-2.064a26.969 26.969 0 0 1 1.223-.343c.382-.097.382-.78 0-.878a29.266 29.266 0 0 1-1.223-.343c-1.538-.472-3.237-1.158-4.143-2.064-.906-.906-1.592-2.605-2.064-4.143a24.812 24.812 0 0 1-.343-1.223c-.097-.382-.78-.382-.878 0a29.286 29.286 0 0 1-.343 1.223ZM10 5.291c-.422 1.024-1 2.137-1.785 2.924C7.428 9 6.315 9.578 5.29 10c1.025.422 2.138 1 2.925 1.785.786.787 1.363 1.9 1.785 2.925.422-1.025 1-2.138 1.785-2.925.787-.786 1.9-1.363 2.925-1.785-1.025-.422-2.138-.999-2.925-1.785C11 7.428 10.422 6.315 10 5.29Z" clip-rule="evenodd"/></svg>
