<svg xmlns="http://www.w3.org/2000/svg" width="20" height="20" fill="currentColor" viewBox="0 0 20 20"><path fill-rule="evenodd" d="M11.2 3.5H8.8c-1.215 0-2.036.001-2.67.053-.615.05-.92.14-1.128.247A2.75 2.75 0 0 0 3.8 5.002c-.106.207-.197.513-.247 1.129C3.5 6.764 3.5 7.585 3.5 8.8v2.4c0 1.215.001 2.036.053 2.67.05.615.14.92.247 1.129A2.75 2.75 0 0 0 5.002 16.2c.207.106.513.197 1.129.247.633.052 1.454.053 2.669.053h2.4c1.215 0 2.036-.001 2.67-.053.615-.05.92-.14 1.129-.247A2.751 2.751 0 0 0 16.2 15c.106-.208.197-.514.247-1.13.052-.633.053-1.454.053-2.669V8.8c0-1.215-.001-2.036-.053-2.67-.05-.615-.14-.92-.247-1.128A2.75 2.75 0 0 0 15 3.8c-.208-.106-.514-.197-1.13-.247-.634-.053-1.455-.053-2.67-.053Zm-8.737.82C2 5.23 2 6.42 2 8.8v2.4c0 2.38 0 3.57.463 4.48a4.25 4.25 0 0 0 1.858 1.857C5.23 18 6.42 18 8.8 18h2.4c2.38 0 3.57 0 4.48-.463a4.251 4.251 0 0 0 1.857-1.857c.463-.91.463-2.1.463-4.48V8.8c0-2.38 0-3.57-.463-4.48a4.25 4.25 0 0 0-1.857-1.857C14.77 2 13.58 2 11.2 2H8.8c-2.38 0-3.57 0-4.48.463a4.25 4.25 0 0 0-1.857 1.858Z" clip-rule="evenodd"/></svg>
