<svg xmlns="http://www.w3.org/2000/svg" width="20" height="20" fill="currentColor" viewBox="0 0 20 20"><path fill-rule="evenodd" d="M9.46 2.126a1.25 1.25 0 0 1 1.087 0l6.746 3.252c.943.454.943 1.798 0 2.252l-6.755 3.25a1.25 1.25 0 0 1-1.084 0L2.711 7.636c-.943-.454-.944-1.797-.001-2.252l6.75-3.257Zm.544 1.403L3.83 6.509l6.167 2.968 6.178-2.974-6.17-2.974ZM2.075 9.995a.75.75 0 0 1 1.001-.35l6.92 3.33 6.93-3.327A.75.75 0 0 1 17.574 11l-7.037 3.38a1.25 1.25 0 0 1-1.084 0l-7.028-3.384a.75.75 0 0 1-.35-1.001Zm1.001 3.15a.75.75 0 1 0-.65 1.35l7.028 3.385c.343.164.741.164 1.084 0l7.037-3.38a.75.75 0 0 0-.65-1.352l-6.928 3.328-6.92-3.332Z" clip-rule="evenodd"/></svg>
