<svg xmlns="http://www.w3.org/2000/svg" width="20" height="20" fill="currentColor" viewBox="0 0 20 20"><path d="M13.743 17.25a.75.75 0 0 0 1.5 0v-2.007l2.008-.002a.75.75 0 1 0-.002-1.5l-2.006.003v-2a.75.75 0 0 0-1.5 0v2.001l-2.007.002a.75.75 0 1 0 .001 1.5l2.006-.003v2.006Z"/><path fill-rule="evenodd" d="M13.245 7.474c.278.021.65.022 1.255.022.606 0 .977 0 1.255-.022a1.94 1.94 0 0 0 .302-.044l.01-.004a.75.75 0 0 0 .366-.373 1.933 1.933 0 0 0 .044-.302c.022-.277.023-.648.023-1.253 0-.606-.001-.976-.022-1.254a1.933 1.933 0 0 0-.045-.302.75.75 0 0 0-.366-.373l-.01-.004a1.94 1.94 0 0 0-.302-.044c-.278-.021-.65-.022-1.255-.022-.606 0-.977.001-1.255.022a1.94 1.94 0 0 0-.302.044l-.01.004a.75.75 0 0 0-.367.373 1.933 1.933 0 0 0-.044.302c-.021.278-.022.648-.022 1.254 0 .605.001.976.022 1.254a1.933 1.933 0 0 0 .044.301l.004.01a.75.75 0 0 0 .363.363l.01.004a1.94 1.94 0 0 0 .302.044Zm-2.034-4.176C11 3.75 11 4.333 11 5.498c0 1.165 0 1.747.21 2.199.224.479.61.864 1.09 1.087.451.211 1.034.211 2.2.211 1.166 0 1.749 0 2.2-.21a2.25 2.25 0 0 0 1.09-1.088c.21-.452.21-1.034.21-2.2 0-1.164 0-1.747-.21-2.199a2.25 2.25 0 0 0-1.09-1.087C16.25 2 15.667 2 14.5 2c-1.166 0-1.749 0-2.2.21a2.25 2.25 0 0 0-1.09 1.088ZM4.245 7.474c.278.021.65.022 1.255.022.606 0 .977 0 1.255-.022a1.936 1.936 0 0 0 .302-.044l.01-.004a.75.75 0 0 0 .367-.373 1.933 1.933 0 0 0 .044-.302c.021-.277.022-.648.022-1.253 0-.606-.001-.976-.022-1.254a1.933 1.933 0 0 0-.044-.302.75.75 0 0 0-.377-.377 1.936 1.936 0 0 0-.302-.044c-.278-.021-.65-.022-1.255-.022-.606 0-.977.001-1.255.022a1.936 1.936 0 0 0-.302.044l-.01.004a.75.75 0 0 0-.367.373 1.933 1.933 0 0 0-.044.302c-.021.278-.022.648-.022 1.254 0 .605.001.976.022 1.254a1.933 1.933 0 0 0 .044.301l.004.01a.75.75 0 0 0 .373.367 1.936 1.936 0 0 0 .302.044ZM2.211 3.298C2 3.75 2 4.333 2 5.498c0 1.165 0 1.747.21 2.199.224.479.61.864 1.09 1.087.451.211 1.034.211 2.2.211 1.166 0 1.749 0 2.2-.21a2.25 2.25 0 0 0 1.09-1.088C9 7.245 9 6.663 9 5.497c0-1.164 0-1.747-.21-2.199A2.25 2.25 0 0 0 7.7 2.211C7.25 2 6.667 2 5.5 2c-1.166 0-1.749 0-2.2.21a2.25 2.25 0 0 0-1.09 1.088Zm2.034 13.17c.278.021.65.022 1.255.022.606 0 .977-.001 1.255-.022a1.953 1.953 0 0 0 .302-.044.75.75 0 0 0 .377-.377 1.93 1.93 0 0 0 .044-.302c.021-.278.022-.648.022-1.254a18.8 18.8 0 0 0-.022-1.254 1.934 1.934 0 0 0-.044-.301.75.75 0 0 0-.367-.373l-.01-.004a1.935 1.935 0 0 0-.302-.044c-.278-.021-.65-.022-1.255-.022-.606 0-.977 0-1.255.022a1.935 1.935 0 0 0-.302.044l-.01.004a.75.75 0 0 0-.367.373 1.934 1.934 0 0 0-.044.302A18.8 18.8 0 0 0 3.5 14.49c0 .606.001.976.022 1.254a1.93 1.93 0 0 0 .044.302l.004.01a.75.75 0 0 0 .373.367 1.953 1.953 0 0 0 .302.044Zm-2.034-4.176C2 12.744 2 13.326 2 14.492c0 1.164 0 1.747.21 2.199.224.479.61.864 1.09 1.087.451.21 1.034.21 2.2.21 1.166 0 1.749 0 2.2-.21a2.25 2.25 0 0 0 1.09-1.087c.21-.452.21-1.035.21-2.2 0-1.165 0-1.747-.21-2.199a2.25 2.25 0 0 0-1.09-1.088c-.451-.21-1.034-.21-2.2-.21-1.166 0-1.749 0-2.2.21a2.25 2.25 0 0 0-1.09 1.088Z" clip-rule="evenodd"/></svg>
