<svg xmlns="http://www.w3.org/2000/svg" width="20" height="20" viewBox="0 0 20 20" fill="currentColor"><path fill-rule="evenodd" d="M2.469 4.348C2 5.268 2 6.472 2 8.88v2.24c0 2.408 0 3.612.469 4.532a4.3 4.3 0 0 0 1.879 1.88C5.268 18 6.472 18 8.88 18h2.24c2.408 0 3.612 0 4.532-.469a4.3 4.3 0 0 0 1.88-1.879c.468-.92.468-2.124.468-4.532V8.88c0-2.408 0-3.612-.469-4.532a4.3 4.3 0 0 0-1.879-1.88C14.732 2 13.528 2 11.12 2H8.88c-2.408 0-3.612 0-4.532.469a4.3 4.3 0 0 0-1.88 1.879M11.12 3.5H8.88c-1.229 0-2.06.001-2.702.054-.624.05-.936.143-1.15.251A2.8 2.8 0 0 0 3.806 5.03c-.108.213-.2.525-.251 1.149a13 13 0 0 0-.033.572H16.48a13 13 0 0 0-.033-.572c-.05-.624-.143-.936-.251-1.15a2.8 2.8 0 0 0-1.224-1.223c-.213-.108-.525-.2-1.149-.251C13.18 3.5 12.35 3.5 11.12 3.5M3.5 8.88v-.63h13v3.5h-13zm.021 4.37q.011.31.033.572c.05.624.143.936.251 1.15a2.8 2.8 0 0 0 1.224 1.223c.213.108.525.2 1.149.251.642.053 1.473.054 2.702.054h2.24c1.229 0 2.06-.001 2.702-.054.624-.05.936-.143 1.15-.251a2.8 2.8 0 0 0 1.223-1.224c.108-.213.2-.525.251-1.149q.022-.261.033-.572z" clip-rule="evenodd"/></svg>