<svg xmlns="http://www.w3.org/2000/svg" width="20" height="20" fill="currentColor" viewBox="0 0 20 20"><path fill-rule="evenodd" d="M2.039 1.766A.9.9 0 1 0 .766 3.039L2 4.273V5.5c0 1.166 0 1.749.21 2.2.224.48.61.866 1.09 1.09C3.75 9 4.333 9 5.5 9h1.227L11 13.273V14.5c0 1.166 0 1.749.21 2.2.224.48.61.866 1.09 1.09.451.21 1.034.21 2.2.21h1.227l1.234 1.233a.9.9 0 1 0 1.273-1.272L2.039 1.766Zm10.483 13.989a14.307 14.307 0 0 1-.022-.982l1.727 1.727c-.449 0-.748-.004-.982-.022a1.939 1.939 0 0 1-.302-.045l-.01-.003a.75.75 0 0 1-.363-.363l-.004-.01a1.939 1.939 0 0 1-.044-.302Zm-9-9a14.342 14.342 0 0 1-.022-.982L5.227 7.5c-.449 0-.748-.004-.982-.022a1.935 1.935 0 0 1-.302-.044l-.01-.004a.75.75 0 0 1-.363-.363l-.004-.01a1.935 1.935 0 0 1-.044-.302ZM14.494 9h-.378c-.396 0-.736 0-1.017-.023-.297-.024-.591-.077-.875-.222a2.25 2.25 0 0 1-.983-.983c-.145-.284-.198-.579-.222-.875-.023-.281-.023-.651-.023-1.047v-.7c0-.395 0-.765.023-1.046.024-.297.077-.591.222-.875a2.25 2.25 0 0 1 .983-.984c.284-.144.578-.198.875-.222C13.379 2 13.72 2 14.116 2h.758c.394 0 .735 0 1.016.023a2.3 2.3 0 0 1 .875.222c.423.216.767.56.983.984.144.284.198.578.222.875.023.28.023.65.023 1.046v.7c0 .396 0 .766-.023 1.047-.024.296-.078.59-.222.875a2.25 2.25 0 0 1-.983.983c-.284.145-.579.198-.875.222C15.61 9 15.268 9 14.873 9h-.379Zm2-3.85v.7c0 .433-.001.712-.018.924-.017.204-.045.28-.064.317a.75.75 0 0 1-.328.327c-.037.02-.112.048-.316.064-.212.018-.492.018-.924.018h-.7c-.432 0-.71 0-.923-.018-.204-.016-.28-.045-.316-.064a.75.75 0 0 1-.328-.327c-.019-.037-.047-.113-.064-.317a12.724 12.724 0 0 1-.018-.924v-.7c0-.432 0-.711.018-.924.017-.204.045-.28.064-.316a.75.75 0 0 1 .328-.328c.037-.019.112-.047.316-.064.212-.017.491-.018.924-.018h.7c.431 0 .71 0 .923.018.204.017.28.045.316.064a.75.75 0 0 1 .328.328c.019.037.047.112.064.316.017.213.018.492.018.924ZM2 14.5v-.379c0-.395 0-.736.023-1.017a2.29 2.29 0 0 1 .222-.875 2.25 2.25 0 0 1 .983-.984c.284-.144.578-.198.875-.222.28-.023.65-.023 1.046-.023h.7c.395 0 .764 0 1.045.023.297.024.591.078.875.222.423.216.767.56.983.984.145.283.198.578.222.875.023.28.023.622.023 1.017v.758c0 .395 0 .737-.023 1.017-.024.297-.077.592-.222.876a2.25 2.25 0 0 1-.983.983c-.284.145-.578.198-.875.222-.28.023-.65.023-1.046.023h-.7c-.394 0-.764 0-1.045-.023a2.295 2.295 0 0 1-.875-.222 2.25 2.25 0 0 1-.983-.983 2.304 2.304 0 0 1-.222-.876C2 15.616 2 15.274 2 14.88v-.38Zm3.848 2h-.7c-.432 0-.71 0-.923-.018-.204-.017-.28-.045-.316-.064a.75.75 0 0 1-.328-.327c-.019-.038-.047-.113-.064-.317a12.755 12.755 0 0 1-.018-.924v-.7c0-.432.001-.712.018-.924.017-.204.045-.28.064-.316a.75.75 0 0 1 .328-.328c.037-.019.112-.047.316-.064.212-.017.491-.018.924-.018h.7c.432 0 .71 0 .923.018.204.017.28.045.316.064a.75.75 0 0 1 .328.328c.019.037.047.112.064.316.017.212.018.492.018.924v.7c0 .433 0 .712-.018.924-.017.204-.045.28-.064.317a.75.75 0 0 1-.328.327c-.037.02-.112.047-.316.064-.212.018-.491.018-.924.018ZM7.474 4.244c.013.158.02.327.023.547.006.415.339.75.753.75a.745.745 0 0 0 .747-.75c-.01-.761-.052-1.19-.242-1.562a2.25 2.25 0 0 0-.984-.984c-.373-.19-.806-.233-1.57-.242a.745.745 0 0 0-.75.747c0 .414.336.747.75.753.224.003.396.01.555.023.14.011.224.025.275.038a.45.45 0 0 1 .048.013l.011.005a.75.75 0 0 1 .333.34.45.45 0 0 1 .013.047c.013.051.027.136.038.275Zm9 9c.013.158.02.327.023.547.006.415.339.75.753.75a.745.745 0 0 0 .747-.75c-.01-.761-.052-1.189-.242-1.563a2.252 2.252 0 0 0-.983-.983c-.374-.19-.807-.233-1.571-.242a.745.745 0 0 0-.75.747c0 .414.336.747.75.753.224.003.396.01.555.023.14.011.224.025.275.037a.458.458 0 0 1 .06.019.751.751 0 0 1 .332.34.458.458 0 0 1 .014.047c.012.051.026.136.037.275Z" clip-rule="evenodd"/></svg>
