<svg xmlns="http://www.w3.org/2000/svg" width="20" height="20" viewBox="0 0 20 20" fill="currentColor"><path fill-rule="evenodd" d="M14.121 9c-.395 0-.736 0-1.017-.023a2.3 2.3 0 0 1-.875-.222 2.25 2.25 0 0 1-.984-.984 2.3 2.3 0 0 1-.222-.875C11 6.616 11 6.246 11 5.85v-.7c0-.395 0-.765.023-1.046a2.3 2.3 0 0 1 .222-.875 2.25 2.25 0 0 1 .984-.984 2.3 2.3 0 0 1 .875-.222C13.384 2 13.726 2 14.12 2h.758c.395 0 .736 0 1.017.023.297.024.592.078.875.222.424.216.768.56.984.984.144.283.198.578.222.875.023.28.023.65.023 1.046v.7c0 .395 0 .765-.023 1.046a2.3 2.3 0 0 1-.222.875 2.25 2.25 0 0 1-.983.984c-.284.144-.58.198-.876.222C15.616 9 15.274 9 14.88 9zM16.5 5.15v.7c0 .432 0 .712-.018.924-.017.204-.045.28-.064.316a.75.75 0 0 1-.328.328c-.037.02-.112.047-.316.064-.212.017-.492.018-.924.018h-.7c-.432 0-.712 0-.924-.018-.204-.017-.28-.045-.317-.064a.75.75 0 0 1-.327-.328c-.02-.037-.047-.112-.064-.316a13 13 0 0 1-.018-.924v-.7c0-.432 0-.712.018-.924.017-.204.045-.28.064-.316a.75.75 0 0 1 .327-.328c.038-.02.113-.047.317-.064.212-.017.492-.018.924-.018h.7c.432 0 .712 0 .924.018.204.017.28.045.316.064a.75.75 0 0 1 .328.328c.02.037.047.112.064.316.017.212.018.492.018.924M11 14.121c0-.395 0-.736.023-1.017a2.3 2.3 0 0 1 .222-.875 2.25 2.25 0 0 1 .984-.984 2.3 2.3 0 0 1 .875-.222c.28-.023.65-.023 1.046-.023h.7c.395 0 .765 0 1.046.023.297.024.592.078.875.222.424.216.768.56.984.984.144.283.198.578.222.875.023.28.023.622.023 1.017v.758c0 .395 0 .736-.023 1.017a2.3 2.3 0 0 1-.222.875 2.25 2.25 0 0 1-.983.984c-.284.144-.58.198-.876.222-.28.023-.65.023-1.046.023h-.7c-.395 0-.765 0-1.046-.023a2.3 2.3 0 0 1-.875-.222 2.25 2.25 0 0 1-.984-.983 2.3 2.3 0 0 1-.222-.876C11 15.616 11 15.274 11 14.88zm3.85 2.379h-.7c-.432 0-.712 0-.924-.018-.204-.017-.28-.045-.317-.064a.75.75 0 0 1-.327-.328c-.02-.037-.047-.112-.064-.316a13 13 0 0 1-.018-.924v-.7c0-.432 0-.712.018-.924.017-.204.045-.28.064-.317a.75.75 0 0 1 .327-.327c.038-.02.113-.047.317-.064.212-.017.492-.018.924-.018h.7c.432 0 .712 0 .924.018.204.017.28.045.316.064a.75.75 0 0 1 .328.327c.02.038.047.113.064.317.017.212.018.492.018.924v.7c0 .432 0 .712-.018.924-.017.204-.045.28-.064.316a.75.75 0 0 1-.328.328c-.037.02-.112.047-.316.064-.212.017-.492.018-.924.018M2 5.121v.758c0 .395 0 .736.023 1.017.024.297.078.592.222.875.216.424.56.768.984.984.283.144.578.198.875.222C4.384 9 4.754 9 5.15 9h.7c.395 0 .765 0 1.046-.023a2.3 2.3 0 0 0 .875-.222 2.25 2.25 0 0 0 .984-.984 2.3 2.3 0 0 0 .222-.875C9 6.616 9 6.274 9 5.88v-.76c0-.395 0-.736-.023-1.017a2.3 2.3 0 0 0-.222-.875 2.25 2.25 0 0 0-.984-.984 2.3 2.3 0 0 0-.875-.222C6.616 2 6.246 2 5.85 2h-.7c-.395 0-.765 0-1.046.023a2.3 2.3 0 0 0-.875.222 2.25 2.25 0 0 0-.984.984 2.3 2.3 0 0 0-.222.875C2 4.384 2 4.726 2 5.12M5.5 7.5h.35c.432 0 .712 0 .924-.018.204-.017.28-.045.316-.064a.75.75 0 0 0 .328-.328c.02-.037.047-.112.064-.316.017-.212.018-.492.018-.924v-.7c0-.432 0-.712-.018-.924-.017-.204-.045-.28-.064-.316a.75.75 0 0 0-.328-.328c-.037-.02-.112-.047-.316-.064A13 13 0 0 0 5.85 3.5h-.7c-.432 0-.712 0-.924.018-.204.017-.28.045-.316.064a.75.75 0 0 0-.328.328c-.02.037-.047.112-.064.316-.017.212-.018.492-.018.924v.7c0 .432 0 .712.018.924.017.204.045.28.064.316a.75.75 0 0 0 .328.328c.037.02.112.047.316.064.212.017.492.018.924.018zM2 14.121c0-.395 0-.736.023-1.017a2.3 2.3 0 0 1 .222-.875 2.25 2.25 0 0 1 .984-.984 2.3 2.3 0 0 1 .875-.222C4.384 11 4.754 11 5.15 11h.7c.395 0 .765 0 1.046.023.297.024.592.078.875.222.424.216.768.56.984.984.144.283.198.578.222.875.023.28.023.622.023 1.017v.758c0 .395 0 .736-.023 1.017a2.3 2.3 0 0 1-.222.875 2.25 2.25 0 0 1-.984.984 2.3 2.3 0 0 1-.875.222C6.616 18 6.246 18 5.85 18h-.7c-.395 0-.765 0-1.046-.023a2.3 2.3 0 0 1-.875-.222 2.25 2.25 0 0 1-.984-.983 2.3 2.3 0 0 1-.222-.876C2 15.616 2 15.274 2 14.88zM5.85 16.5h-.7c-.432 0-.712 0-.924-.018-.204-.017-.28-.045-.316-.064a.75.75 0 0 1-.328-.328c-.02-.037-.047-.112-.064-.316a13 13 0 0 1-.018-.924v-.7c0-.432 0-.712.018-.924.017-.204.045-.28.064-.317a.75.75 0 0 1 .328-.327c.037-.02.112-.047.316-.064.212-.017.492-.018.924-.018h.7c.432 0 .712 0 .924.018.204.017.28.045.316.064a.75.75 0 0 1 .328.327c.02.038.047.113.064.317.017.212.018.492.018.924v.7c0 .432 0 .712-.018.924-.017.204-.045.28-.064.316a.75.75 0 0 1-.328.328c-.037.02-.112.047-.316.064-.212.017-.492.018-.924.018" clip-rule="evenodd"/></svg>