<svg fill="none" height="20" viewBox="0 0 20 20" width="20" xmlns="http://www.w3.org/2000/svg" xmlns:xlink="http://www.w3.org/1999/xlink"><linearGradient id="a" gradientUnits="userSpaceOnUse" x1="-10" x2="10" y1="10" y2="30"><stop offset="0" stop-color="#70b2ff"/><stop offset="1" stop-color="#5c9ce6"/></linearGradient><path d="m0 10c0-5.52285 4.47715-10 10-10 5.5228 0 10 4.47715 10 10 0 5.5228-4.4772 10-10 10-5.52285 0-10-4.4772-10-10z" fill="url(#a)"/><path d="m11.9853 7.37283 2.6287.25804c.9147.08978 1.1952 1.00393.4889 1.60452l-2.058 1.75001.764 2.8508c.2509.9362-.5275 1.503-1.3071.9395l-2.5006-1.8071-2.50057 1.8071c-.77649.5612-1.55808-.0031-1.30715-.9395l.76399-2.8508-2.05797-1.75001c-.70926-.60311-.42985-1.51433.48874-1.60452l2.62821-.25804 1.15792-2.73146c.36261-.85539 1.29123-.85496 1.65363.00009z" fill="#fff"/></svg>
