<svg xmlns="http://www.w3.org/2000/svg" width="20" height="20" fill="currentColor" viewBox="0 0 20 20"><path fill-rule="evenodd" d="M7.244 4.986a1.189 1.189 0 0 0-.017.006c-.252.087-.555.09-.742-.1L5.209 3.595c-.182-.185-.18-.479-.095-.725a1.43 1.43 0 0 0 .003-.01l.381-1.144a.314.314 0 0 1 .597 0l.38 1.142c.12.362.405.645.766.765l1.16.382a.315.315 0 0 1 0 .6l-1.157.38ZM2.771 3.213a.737.737 0 0 0-1.053.001.766.766 0 0 0 0 1.07l4.938 5.009-2.535 1.016a.75.75 0 0 0-.036 1.375l2.156.997a6.402 6.402 0 0 1 3.14 3.156l1.009 2.216a.753.753 0 0 0 1.386-.037l.992-2.523 2.747 2.786a.737.737 0 0 0 1.054-.001.766.766 0 0 0-.001-1.071L2.77 3.213Zm3.524 7.84 1.503-.602 3.815 3.87-.589 1.496-.273-.6a7.904 7.904 0 0 0-3.876-3.896l-.58-.268Zm5.486-6.996a.752.752 0 0 0-1.395-.044L8.982 7.18a.749.749 0 0 0 .384.989.754.754 0 0 0 .993-.383l.652-1.472.022.06a7.905 7.905 0 0 0 4.67 4.67l.059.022-1.482.66a.749.749 0 0 0-.38.991c.17.378.615.547.994.378l3.16-1.408a.75.75 0 0 0-.044-1.387l-1.782-.66a6.402 6.402 0 0 1-3.782-3.783l-.665-1.801Z" clip-rule="evenodd"/></svg>
