<svg xmlns="http://www.w3.org/2000/svg" width="20" height="20" fill="none" viewBox="0 0 20 20"><g clip-path="url(#a)"><circle cx="10" cy="10" r="10" fill="#ffa000"/><path fill="#fff" d="M10.192 4.212a.434.434 0 0 0-.582.197L7.957 7.76l-3.696.537a.434.434 0 0 0-.241.74l2.675 2.608-.632 3.681a.434.434 0 0 0 .63.458L10 14.045l3.306 1.738a.434.434 0 0 0 .63-.458l-.631-3.681 2.674-2.607a.435.435 0 0 0-.24-.741l-3.697-.537-1.653-3.35a.43.43 0 0 0-.197-.197"/></g><defs><clipPath id="a"><path fill="#fff" d="M0 0h20v20H0z"/></clipPath></defs></svg>