<svg xmlns="http://www.w3.org/2000/svg" width="20" height="20" fill="none" viewBox="0 0 20 20"><path fill="url(#a)" fill-rule="evenodd" d="M12.004 8.13c-.368.835-.857 1.717-1.507 2.367s-1.532 1.14-2.367 1.507c.835.367 1.717.857 2.367 1.507s1.14 1.532 1.507 2.367c.367-.835.857-1.717 1.507-2.367s1.532-1.14 2.367-1.507c-.835-.368-1.717-.857-2.367-1.507s-1.14-1.532-1.507-2.367m-.785-2.178c-.421 1.317-1.014 2.716-1.782 3.485-.769.768-2.168 1.36-3.485 1.782a21 21 0 0 1-1.162.338c-.38.1-.38.793 0 .894a27 27 0 0 1 .912.26q.124.037.25.078c1.317.421 2.716 1.014 3.485 1.782s1.36 2.168 1.782 3.485a21 21 0 0 1 .27.907l.068.255c.1.38.793.38.894 0a28 28 0 0 1 .26-.912q.037-.124.078-.25c.421-1.317 1.014-2.717 1.782-3.485s2.168-1.36 3.485-1.782a21 21 0 0 1 .907-.27l.255-.068c.38-.1.38-.793 0-.894a28 28 0 0 1-.912-.26l-.25-.078c-1.317-.421-2.717-1.014-3.485-1.782-.768-.769-1.36-2.168-1.782-3.485a21 21 0 0 1-.338-1.162c-.1-.38-.793-.38-.894 0a27 27 0 0 1-.26.912z" clip-rule="evenodd"/><path fill="url(#b)" d="M4.365.763a.385.385 0 0 0-.73 0l-.414 1.24a1.93 1.93 0 0 1-1.218 1.218l-1.24.414a.385.385 0 0 0 0 .73l1.24.414a1.93 1.93 0 0 1 1.218 1.218l.414 1.24a.385.385 0 0 0 .73 0l.414-1.24a1.93 1.93 0 0 1 1.218-1.218l1.24-.414a.385.385 0 0 0 0-.73l-1.24-.414a1.93 1.93 0 0 1-1.218-1.218z"/><defs><linearGradient id="a" x1="1" x2="20" y1="0" y2="20" gradientUnits="userSpaceOnUse"><stop stop-color="#4eafff"/><stop offset=".499" stop-color="#b984ed"/><stop offset="1" stop-color="#ff4b9c"/></linearGradient><linearGradient id="b" x1="1" x2="20" y1="0" y2="20" gradientUnits="userSpaceOnUse"><stop stop-color="#4eafff"/><stop offset=".499" stop-color="#b984ed"/><stop offset="1" stop-color="#ff4b9c"/></linearGradient></defs></svg>