<svg xmlns="http://www.w3.org/2000/svg" width="20" height="20" fill="currentColor" viewBox="0 0 20 20"><path fill-rule="evenodd" d="M12.004 8.13c-.368.835-.857 1.717-1.507 2.367-.65.65-1.532 1.14-2.367 1.507.835.367 1.717.857 2.367 1.507.65.65 1.14 1.532 1.507 2.367.367-.835.857-1.717 1.507-2.367.65-.65 1.532-1.14 2.367-1.507-.835-.368-1.717-.857-2.367-1.507-.65-.65-1.14-1.532-1.507-2.367Zm-.785-2.178c-.421 1.317-1.014 2.716-1.782 3.485-.769.768-2.168 1.36-3.485 1.782a21.073 21.073 0 0 1-1.162.338c-.38.1-.38.793 0 .894a27.146 27.146 0 0 1 .912.26c.083.025.166.05.25.078 1.317.421 2.716 1.014 3.485 1.782.768.768 1.36 2.168 1.782 3.485a20.843 20.843 0 0 1 .27.907l.068.255c.1.38.793.38.894 0a27.487 27.487 0 0 1 .26-.912c.025-.083.05-.166.078-.25.421-1.317 1.014-2.717 1.782-3.485.768-.768 2.168-1.36 3.485-1.782a20.843 20.843 0 0 1 .907-.27l.255-.068c.38-.1.38-.793 0-.894a27.487 27.487 0 0 1-.912-.26 20.843 20.843 0 0 1-.25-.078c-1.317-.421-2.717-1.014-3.485-1.782-.768-.769-1.36-2.168-1.782-3.485a21.13 21.13 0 0 1-.338-1.162c-.1-.38-.793-.38-.894 0a27.146 27.146 0 0 1-.26.912 21.13 21.13 0 0 1-.078.25Z M4.365.763a.385.385 0 0 0-.73 0l-.414 1.24a1.926 1.926 0 0 1-1.218 1.218l-1.24.414a.385.385 0 0 0 0 .73l1.24.414a1.926 1.926 0 0 1 1.218 1.218l.414 1.24a.385.385 0 0 0 .73 0l.414-1.24a1.926 1.926 0 0 1 1.218-1.218l1.24-.414a.385.385 0 0 0 0-.73l-1.24-.414a1.926 1.926 0 0 1-1.218-1.218L4.365.763Z"/></svg>
