<svg fill="none" height="20" viewBox="0 0 20 20" width="20" xmlns="http://www.w3.org/2000/svg" xmlns:xlink="http://www.w3.org/1999/xlink"><linearGradient id="a" gradientUnits="userSpaceOnUse" x1="-10" x2="10" y1="10" y2="30"><stop offset="0" stop-color="#70b2ff"/><stop offset="1" stop-color="#5c9ce6"/></linearGradient><path d="m0 10c0-5.52285 4.47715-10 10-10 5.5228 0 10 4.47715 10 10 0 5.5228-4.4772 10-10 10-5.52285 0-10-4.4772-10-10z" fill="url(#a)"/><path clip-rule="evenodd" d="m14 5c.5523 0 1 .44772 1 1v8c0 .5523-.4477 1-1 1s-1-.4477-1-1v-8c0-.55228.4477-1 1-1zm-8 5c.55228 0 1 .4477 1 1v3c0 .5523-.44772 1-1 1s-1-.4477-1-1v-3c0-.5523.44772-1 1-1zm4-2.5c.5523 0 1 .44772 1 1v5.5c0 .5523-.4477 1-1 1-.55228 0-1-.4477-1-1v-5.5c0-.55228.44772-1 1-1z" fill="#fff" fill-rule="evenodd"/></svg>
