<svg fill="none" height="20" viewBox="0 0 20 20" width="20" xmlns="http://www.w3.org/2000/svg"><path clip-rule="evenodd" d="m17 3.74994c0-.19891-.079-.38968-.2197-.53033-.1406-.14065-.3314-.21967-.5303-.21967l-3.5.00002c-.4142 0-.75.33579-.75.75s.3358.75.75.75l1.6894-.00001-3.9394 3.9394-1.46967-1.46967c-.29289-.29289-.76777-.29289-1.06066 0l-4.75 4.75002c-.29289.2929-.29289.7677 0 1.0606s.76777.2929 1.06066 0l4.21967-4.21963 1.46967 1.46963c.14063.1407.33143.2197.53033.2197s.3897-.079.5303-.2197l4.4697-4.46968v1.68933c0 .41422.3358.75.75.75s.75-.33578.75-.75zm-15 12.50006c0-.4142.33579-.75.75-.75h14.5c.4142 0 .75.3358.75.75s-.3358.75-.75.75h-14.5c-.41421 0-.75-.3358-.75-.75z" fill="currentColor" fill-rule="evenodd"/></svg>
