<svg xmlns="http://www.w3.org/2000/svg" width="20" height="20" fill="currentColor" viewBox="0 0 20 20"><path fill-rule="evenodd" d="M9.692 1.5a.75.75 0 0 1 .557.22l8.031 8.03a.75.75 0 0 1 .22.558 8.477 8.477 0 0 1-2.485 5.702 8.478 8.478 0 0 1-6.013 2.49 8.478 8.478 0 0 1-6.012-2.49A8.478 8.478 0 0 1 1.5 9.997c0-2.347.953-4.474 2.49-6.012A8.477 8.477 0 0 1 9.692 1.5ZM8.605 3.134A6.986 6.986 0 0 0 5.05 5.046 6.978 6.978 0 0 0 3 9.997a6.98 6.98 0 0 0 2.051 4.952A6.978 6.978 0 0 0 10.002 17a6.978 6.978 0 0 0 4.952-2.051 6.986 6.986 0 0 0 1.912-3.554 6.77 6.77 0 0 1-1.695.214 6.76 6.76 0 0 1-4.794-1.986A6.76 6.76 0 0 1 8.39 4.83c0-.585.074-1.153.214-1.695Zm1.425.487a5.3 5.3 0 0 0-.14 1.209 5.26 5.26 0 0 0 1.547 3.733 5.297 5.297 0 0 0 4.941 1.408l-6.35-6.349Z" clip-rule="evenodd"/></svg>
