<svg xmlns="http://www.w3.org/2000/svg" width="20" height="20" fill="currentColor" viewBox="0 0 20 20"><path d="M7.887 9.405c.607 0 1.101-.493 1.104-1.1a1.094 1.094 0 0 0-1.095-1.102c-.607 0-1.101.493-1.104 1.101-.003.608.487 1.1 1.095 1.1Zm5.901-1.801a1.106 1.106 0 0 1-1.104 1.1 1.094 1.094 0 0 1-1.095-1.1 1.106 1.106 0 0 1 1.105-1.101c.607 0 1.097.493 1.094 1.1Z"/><path fill-rule="evenodd" d="M2.042 7.416a4.256 4.256 0 0 1 3.616-4.805l7.545-1.064A4.244 4.244 0 0 1 18 5.164l.415 2.97c.667 4.764-2.63 9.172-7.373 9.881-.274.049-.552.08-.827.117l-2.337.33a4.244 4.244 0 0 1-4.796-3.618l-1.04-7.428Zm14.472-2.042.337 2.406a1.252 1.252 0 0 1-1.055 1.357l-1.07.164a3.755 3.755 0 0 0-3.148 3.2 4.733 4.733 0 0 1-1.622.06c-.555-.076-.978-.239-1.213-.41a.749.749 0 1 0-.884 1.212c.505.37 1.196.59 1.894.685.6.082 1.257.08 1.895-.031l.156 1.114a1.252 1.252 0 0 1-1.005 1.403l-3.13.442a2.746 2.746 0 0 1-3.103-2.341l-1.04-7.428a2.754 2.754 0 0 1 2.34-3.11l7.545-1.064a2.746 2.746 0 0 1 3.103 2.341Zm.424 4.934a7.28 7.28 0 0 1-3.65 5.38 2.758 2.758 0 0 0 0-.767l-.223-1.597a2.253 2.253 0 0 1 1.888-2.54l1.069-.163c.33-.051.64-.16.916-.313Z" clip-rule="evenodd"/></svg>
