<svg xmlns="http://www.w3.org/2000/svg" width="20" height="20" fill="currentColor" viewBox="0 0 20 20"><path fill-rule="evenodd" d="M7.925 3h4.149c.574 0 1.024 0 1.441.134.366.12.704.314.99.571.325.293.55.683.837 1.18l.05.087 1.233 2.13.014.024c.068.118.13.224.179.337.087.2.144.411.168.627.014.124.014.246.014.382V8.5c0 1.299-.958 2.5-2.313 2.5a2.185 2.185 0 0 1-1.562-.655c-.4.401-.94.655-1.563.655A2.185 2.185 0 0 1 10 10.345c-.4.401-.94.655-1.562.655a2.185 2.185 0 0 1-1.563-.655c-.4.401-.94.655-1.562.655C3.958 11 3 9.799 3 8.5v-.028c0-.136 0-.258.014-.382.024-.216.081-.427.168-.627.05-.113.111-.22.18-.337l.013-.024 1.232-2.13.05-.087c.287-.497.513-.887.838-1.18a2.75 2.75 0 0 1 .99-.57c.417-.136.867-.136 1.44-.135Zm7.57 5.259c.004.028.005.061.005.241 0 .634-.441 1-.813 1-.37 0-.812-.366-.812-1a.75.75 0 0 0-1.5 0c0 .634-.441 1-.813 1-.37 0-.812-.366-.812-1a.75.75 0 0 0-1.5 0c0 .634-.441 1-.812 1-.372 0-.813-.366-.813-1a.75.75 0 0 0-1.5 0c0 .634-.441 1-.812 1-.372 0-.813-.366-.813-1 0-.18.001-.213.004-.241a.679.679 0 0 1 .053-.195c.011-.027.027-.055.117-.211l1.232-2.13c.362-.626.466-.789.592-.902a1.25 1.25 0 0 1 .45-.26c.162-.052.355-.061 1.078-.061h3.948c.723 0 .916.009 1.078.061.166.054.32.143.45.26.126.113.23.276.592.902l1.232 2.13c.09.156.106.184.117.21a.679.679 0 0 1 .053.196ZM6.584 13a.75.75 0 0 0-1.5 0v2.5H3.75a.75.75 0 0 0 0 1.5h12.5a.75.75 0 0 0 0-1.5h-1.333V13a.75.75 0 0 0-1.5 0v2.5H6.583V13Z" clip-rule="evenodd"/></svg>
