<svg fill="none" height="20" viewBox="0 0 20 20" width="20" xmlns="http://www.w3.org/2000/svg" xmlns:xlink="http://www.w3.org/1999/xlink"><linearGradient id="a" gradientUnits="userSpaceOnUse" x1="-10" x2="10" y1="10" y2="30"><stop offset="0" stop-color="#ff5263"/><stop offset="1" stop-color="#ff3347"/></linearGradient><path d="m10 20c5.5228 0 10-4.4772 10-10 0-5.52285-4.4772-10-10-10-5.52285 0-10 4.47715-10 10 0 5.5228 4.47715 10 10 10z" fill="url(#a)"/><g clip-rule="evenodd" fill="#fff" fill-rule="evenodd"><path d="m5 10c0-1.7572 0-2.6358.33909-3.3013.29827-.5854.77421-1.06134 1.35961-1.35961.6655-.33909 1.5441-.33909 3.3013-.33909s2.6358 0 3.3013.33909c.5854.29827 1.0613.77421 1.3596 1.35961.3391.6655.3391 1.5441.3391 3.3013s0 2.6358-.3391 3.3013c-.2983.5854-.7742 1.0613-1.3596 1.3596-.6655.3391-1.5441.3391-3.3013.3391s-2.6358 0-3.3013-.3391c-.5854-.2983-1.06134-.7742-1.35961-1.3596-.33909-.6655-.33909-1.5441-.33909-3.3013zm2.14286 0c0 1.5771 1.28 2.8571 2.85714 2.8571 1.5771 0 2.8571-1.28 2.8571-2.8571 0-1.57714-1.28-2.85714-2.8571-2.85714-1.57714 0-2.85714 1.28-2.85714 2.85714zm2.85714-1.78571c-.98633 0-1.78571.79938-1.78571 1.78571 0 .9863.79938 1.7857 1.78571 1.7857.9863 0 1.7857-.7994 1.7857-1.7857 0-.98633-.7994-1.78571-1.7857-1.78571z"/></g></svg>
