<svg xmlns="http://www.w3.org/2000/svg" width="20" height="20" viewBox="0 0 20 20" fill="currentColor"><path d="M7.286 8.09a.62.62 0 0 1 1.18 0l.474 1.432a3.13 3.13 0 0 0 1.967 1.985l1.42.478c.566.19.566 1 0 1.191l-1.42.477A3.13 3.13 0 0 0 8.94 15.64l-.473 1.432a.62.62 0 0 1-1.181 0l-.473-1.432a3.13 3.13 0 0 0-1.968-1.986l-1.419-.477c-.567-.19-.567-1 0-1.191l1.42-.478a3.13 3.13 0 0 0 1.967-1.985z"/><path d="M7.846 4.014a2.417 2.417 0 0 1 2.797-1.976l5.361.953a2.435 2.435 0 0 1 1.959 2.823l-1.596 9.131a2.417 2.417 0 0 1-2.797 1.978l-2.495-.445a.222.222 0 0 1-.169-.289 1.28 1.28 0 0 1 .803-.81l1.406-.474c2.213-.745 2.213-3.903 0-4.647l-1.406-.475a1.28 1.28 0 0 1-.803-.81l-.47-1.419-.076-.203c-.453-1.072-1.494-1.559-2.48-1.459-.177.018-.34-.134-.309-.312zm-4.086.688a.255.255 0 0 1 .484 0l.194.587c.127.385.427.687.808.815l.583.196a.26.26 0 0 1 0 .49l-.583.196c-.381.128-.681.43-.808.815l-.194.587a.255.255 0 0 1-.484 0l-.195-.587a1.28 1.28 0 0 0-.807-.815l-.584-.196c-.232-.079-.232-.411 0-.49l.584-.196c.38-.128.68-.43.807-.815z"/></svg>