<svg xmlns="http://www.w3.org/2000/svg" width="20" height="20" fill="none" viewBox="0 0 20 20"><rect width="20" height="20" fill="currentColor" rx="10"/><path fill="#fff" d="M6.122 5.955A3 3 0 0 1 9.598 3.52l3.482.614a3 3 0 0 1 2.433 3.475l-1.1 6.245a3 3 0 0 1-3.476 2.434l-1.933-.346a.2.2 0 0 1-.155-.26l.338-1.033a.734.734 0 0 1 .464-.464l1.018-.34c1.774-.591 1.774-3.101 0-3.693l-1.018-.34a.734.734 0 0 1-.464-.464l-.34-1.018c-.386-1.159-1.59-1.56-2.545-1.207-.167.062-.373-.076-.342-.251l.162-.918Z"/><path fill="#fff" d="M6.576 8.805a.447.447 0 0 1 .848 0l.34 1.02c.222.666.745 1.19 1.412 1.412l1.019.34a.447.447 0 0 1 0 .847l-1.02.34a2.234 2.234 0 0 0-1.412 1.412l-.34 1.019a.447.447 0 0 1-.847 0l-.34-1.02a2.234 2.234 0 0 0-1.412-1.412l-1.019-.34a.447.447 0 0 1 0-.847l1.02-.34a2.234 2.234 0 0 0 1.412-1.412l.34-1.019Z"/></svg>