<svg xmlns="http://www.w3.org/2000/svg" width="20" height="20" fill="none" viewBox="0 0 20 20"><path fill="url(#a)" d="M0 10C0 4.4771 4.4771 0 10 0c5.5228 0 10 4.4771 10 10 0 5.5228-4.4772 10-10 10-5.5229 0-10-4.4772-10-10Z"/><path fill="#fff" fill-rule="evenodd" d="M5.5 8.2c0-1.1201 0-1.6802.218-2.108a1.9999 1.9999 0 0 1 .874-.874C7.0198 5 7.58 5 8.7 5h2.6c1.1201 0 1.6802 0 2.108.218.3763.1917.6823.4977.874.874.218.4278.218.9879.218 2.108v3.6c0 1.1201 0 1.6802-.218 2.108a1.9996 1.9996 0 0 1-.874.874C12.9802 15 12.4201 15 11.3 15H8.7c-1.1201 0-1.6802 0-2.108-.218a1.9997 1.9997 0 0 1-.874-.874C5.5 13.4802 5.5 12.9201 5.5 11.8V8.2ZM7 7.25c0-.233 0-.3495.038-.4413a.5.5 0 0 1 .2707-.2706C7.4005 6.5 7.517 6.5 7.75 6.5s.3495 0 .4413.038a.5.5 0 0 1 .2706.2707C8.5 6.9005 8.5 7.017 8.5 7.25s0 .3495-.038.4413a.5.5 0 0 1-.2707.2706C8.0995 8 7.983 8 7.75 8s-.3495 0-.4413-.038a.5.5 0 0 1-.2706-.2707C7 7.5995 7 7.483 7 7.25Zm.038 5.0587C7 12.4005 7 12.517 7 12.75s0 .3495.038.4413a.4996.4996 0 0 0 .2707.2706c.0918.0381.2083.0381.4413.0381s.3495 0 .4413-.0381a.4996.4996 0 0 0 .2706-.2706C8.5 13.0995 8.5 12.983 8.5 12.75s0-.3495-.038-.4413a.4996.4996 0 0 0-.2707-.2706C8.0995 12 7.983 12 7.75 12s-.3495 0-.4413.0381a.4996.4996 0 0 0-.2706.2706ZM7 10c0-.233 0-.3495.038-.4413a.5.5 0 0 1 .2707-.2706C7.4005 9.25 7.517 9.25 7.75 9.25s.3495 0 .4413.038a.5.5 0 0 1 .2706.2707C8.5 9.6505 8.5 9.767 8.5 10s0 .3495-.038.4413a.4996.4996 0 0 1-.2707.2706c-.0918.0381-.2083.0381-.4413.0381s-.3495 0-.4413-.0381a.4996.4996 0 0 1-.2706-.2706C7 10.3495 7 10.233 7 10Zm4.5381-3.1913C11.5 6.9005 11.5 7.017 11.5 7.25s0 .3495.0381.4413a.4996.4996 0 0 0 .2706.2706C11.9005 8 12.017 8 12.25 8s.3495 0 .4413-.038a.4996.4996 0 0 0 .2706-.2707C13 7.5995 13 7.483 13 7.25s0-.3495-.0381-.4413a.4996.4996 0 0 0-.2706-.2706C12.5995 6.5 12.483 6.5 12.25 6.5s-.3495 0-.4413.038a.4996.4996 0 0 0-.2706.2707ZM11.5 12.75c0-.233 0-.3495.0381-.4413a.4992.4992 0 0 1 .2706-.2706C11.9005 12 12.017 12 12.25 12s.3495 0 .4413.0381a.4992.4992 0 0 1 .2706.2706C13 12.4005 13 12.517 13 12.75s0 .3495-.0381.4413a.4992.4992 0 0 1-.2706.2706c-.0918.0381-.2083.0381-.4413.0381s-.3495 0-.4413-.0381a.4992.4992 0 0 1-.2706-.2706C11.5 13.0995 11.5 12.983 11.5 12.75Zm.0381-3.1913C11.5 9.6505 11.5 9.767 11.5 10s0 .3495.0381.4413a.4992.4992 0 0 0 .2706.2706c.0918.0381.2083.0381.4413.0381s.3495 0 .4413-.0381a.4992.4992 0 0 0 .2706-.2706C13 10.3495 13 10.233 13 10s0-.3495-.0381-.4413a.4996.4996 0 0 0-.2706-.2706C12.5995 9.25 12.483 9.25 12.25 9.25s-.3495 0-.4413.038a.4996.4996 0 0 0-.2706.2707Z" clip-rule="evenodd"/><defs><linearGradient id="a" x1="-10" x2="10" y1="10" y2="30" gradientUnits="userSpaceOnUse"><stop stop-color="#FF5263"/><stop offset="1" stop-color="#FF3347"/></linearGradient></defs></svg>
