<svg xmlns="http://www.w3.org/2000/svg" width="20" height="20" viewBox="0 0 20 20" fill="currentColor"><path d="M9.998 15.67a.75.75 0 0 1 .75.75v1.833a.75.75 0 0 1-1.5 0V16.42a.75.75 0 0 1 .75-.75m6.24-4.167c.597 0 .95.263 1.167.86l2.001 5.435c.061.154.093.32.096.485 0 .42-.319.72-.763.72-.43 0-.657-.199-.793-.674l-.385-1.154H14.93l-.385 1.14c-.142.485-.369.687-.772.687-.475 0-.774-.279-.774-.719q.012-.25.102-.485l1.99-5.43c.212-.592.571-.865 1.147-.865m-.975 4.49h1.946L16.243 13h-.035zM4.225 12.591a.75.75 0 1 1 .717 1.316l-1.833 1a.75.75 0 0 1-.718-1.316zM10 6c1.105 0 2.104.448 2.828 1.172A4 4 0 0 1 14 10a4 4 0 0 1-1.172 2.828A4 4 0 0 1 10 14a4 4 0 0 1-2.828-1.172A4 4 0 0 1 6 10c0-1.105.448-2.104 1.172-2.828A4 4 0 0 1 10 6m0 1.5a2.5 2.5 0 0 0-1.768.732A2.5 2.5 0 0 0 7.5 10c0 .69.278 1.313.732 1.768A2.5 2.5 0 0 0 10 12.5c.69 0 1.313-.278 1.768-.732A2.5 2.5 0 0 0 12.5 10a2.5 2.5 0 0 0-.732-1.768A2.5 2.5 0 0 0 10 7.5M2.092 5.39a.75.75 0 0 1 1.017-.298l1.833 1a.75.75 0 1 1-.717 1.316l-1.834-1a.75.75 0 0 1-.3-1.017m14.799-.298a.75.75 0 0 1 .718 1.316l-1.834 1a.75.75 0 1 1-.717-1.316zM10.002 1a.75.75 0 0 1 .75.75v1.833a.75.75 0 0 1-1.5 0V1.75a.75.75 0 0 1 .75-.75"/></svg>