<svg xmlns="http://www.w3.org/2000/svg" width="20" height="20" viewBox="0 0 20 20" fill="currentColor"><path d="M9.998 15.67a.75.75 0 0 1 .75.75v1.833a.75.75 0 0 1-1.5 0V16.42a.75.75 0 0 1 .75-.75m6.49-4.167c.597 0 .95.263 1.168.86l2 5.435c.061.154.094.32.097.485 0 .42-.319.72-.763.72-.43 0-.656-.199-.793-.674l-.384-1.154H15.18l-.385 1.14c-.142.485-.37.687-.773.687-.474 0-.773-.279-.773-.719q.011-.25.1-.485l1.992-5.43c.212-.592.57-.865 1.146-.865m-.974 4.49h1.946L16.494 13h-.035zm-11.29-3.401a.75.75 0 1 1 .718 1.316l-1.833 1a.75.75 0 0 1-.718-1.316zM10 6c1.104 0 2.104.448 2.828 1.172A4 4 0 0 1 14 10a4 4 0 0 1-1.172 2.828A4 4 0 0 1 10 14a4 4 0 0 1-2.828-1.172A4 4 0 0 1 6 10c0-1.105.448-2.104 1.172-2.828A4 4 0 0 1 10 6m0 1.5a2.5 2.5 0 0 0-1.768.732A2.5 2.5 0 0 0 7.5 10c0 .69.278 1.313.732 1.768A2.5 2.5 0 0 0 10 12.5c.69 0 1.313-.278 1.768-.732A2.5 2.5 0 0 0 12.5 10a2.5 2.5 0 0 0-.732-1.768A2.5 2.5 0 0 0 10 7.5M2.092 5.39a.75.75 0 0 1 1.017-.298l1.833 1a.75.75 0 1 1-.717 1.316l-1.834-1a.75.75 0 0 1-.3-1.017m14.799-.298a.75.75 0 0 1 .718 1.316l-1.834 1a.75.75 0 1 1-.717-1.316zM10 1a.75.75 0 0 1 .75.75v1.833a.75.75 0 0 1-1.5 0V1.75A.75.75 0 0 1 10 1"/></svg>