<svg xmlns="http://www.w3.org/2000/svg" width="20" height="20" viewBox="0 0 20 20" fill="currentColor"><path d="M16.25 1.5a.75.75 0 0 1 .75.75v3a.75.75 0 0 1-.75.75h-3a.75.75 0 0 1 0-1.5h1.081a6.98 6.98 0 0 0-4.33-1.5 6.98 6.98 0 0 0-4.95 2.05 6.98 6.98 0 0 0-1.973 5.996c.073.483-.278.954-.766.954a.69.69 0 0 1-.69-.563A8.5 8.5 0 0 1 1.5 10c0-2.174.83-4.35 2.49-6.01A8.48 8.48 0 0 1 10 1.5c1.958 0 3.918.673 5.5 2.019V2.25a.75.75 0 0 1 .75-.75M3 14.75a.75.75 0 0 1 .75-.75h3a.75.75 0 0 1 0 1.5H5.669C6.935 16.5 8.467 17 10 17a6.98 6.98 0 0 0 4.95-2.05 6.98 6.98 0 0 0 1.972-5.996C16.849 8.47 17.2 8 17.688 8a.69.69 0 0 1 .69.563q.122.714.122 1.437c0 2.174-.83 4.35-2.49 6.01A8.48 8.48 0 0 1 10 18.5a8.48 8.48 0 0 1-5.5-2.019v1.269a.75.75 0 0 1-1.5 0z"/></svg>