<svg xmlns="http://www.w3.org/2000/svg" width="20" height="20" viewBox="0 0 20 20" fill="currentColor"><path d="M8.466 7.03a1.437 1.437 0 1 1-2.873 0 1.437 1.437 0 0 1 2.873 0"/><path d="M8.622 2.002c.57.005.931.025 1.276.108a4 4 0 0 1 1.154.479c.403.247.749.592 1.44 1.283l3.36 3.361c1.186 1.187 1.78 1.78 2.001 2.463.196.602.196 1.25 0 1.851l-.046.127c-.253.633-.843 1.224-1.955 2.336l-1.844 1.843-.788.782c-.7.677-1.162 1.052-1.674 1.218l-.228.065a3 3 0 0 1-1.624-.065c-.683-.222-1.277-.815-2.463-2l-3.36-3.36c-.604-.604-.944-.944-1.185-1.29l-.097-.149a4 4 0 0 1-.393-.852L2.11 9.9c-.083-.345-.103-.706-.108-1.277L2 7.975V5.993c0-1.223 0-1.91.182-2.421l.09-.21c.21-.41.528-.754.918-.994l.173-.096C3.897 2 4.596 2 5.993 2h1.98zM3.498 7.975c0 1.048.01 1.328.069 1.575.06.254.161.498.298.721.133.217.324.422 1.066 1.163l3.36 3.36c.61.61 1.006 1.004 1.33 1.28.31.263.457.33.536.355.301.098.625.098.925 0 .08-.026.227-.092.538-.356.324-.275.72-.669 1.33-1.279l1.843-1.843c.61-.61 1.004-1.006 1.28-1.33.263-.311.33-.458.356-.537.098-.3.098-.624 0-.925-.026-.079-.093-.226-.357-.537-.275-.325-.669-.72-1.279-1.33l-3.36-3.361c-.741-.741-.946-.933-1.163-1.066a2.5 2.5 0 0 0-.721-.298c-.247-.06-.528-.07-1.576-.07h-1.98c-.723 0-1.176.002-1.517.03-.323.026-.413.07-.434.08a1 1 0 0 0-.435.435c-.01.021-.054.11-.08.434-.028.341-.03.794-.03 1.517z"/></svg>