<svg xmlns="http://www.w3.org/2000/svg" width="20" height="20" fill="currentColor" viewBox="0 0 20 20"><path d="M7.51 9.002a1.5 1.5 0 1 0 0-3 1.5 1.5 0 0 0 0 3Z"/><path fill-rule="evenodd" d="M4.875 12.995c-.692-.692-1.038-1.038-1.285-1.442a4 4 0 0 1-.479-1.156c-.11-.46-.11-.95-.11-1.928v-1.47c0-1.4 0-2.1.272-2.634a2.5 2.5 0 0 1 1.093-1.093C4.9 3 5.6 3 7 3h1.467c.979 0 1.468 0 1.928.11a4 4 0 0 1 1.157.48c.403.247.75.593 1.441 1.285l2.85 2.85c1.189 1.189 1.783 1.783 2.005 2.468a3 3 0 0 1 0 1.854c-.223.685-.817 1.279-2.005 2.467l-1.33 1.33c-1.189 1.188-1.783 1.782-2.468 2.005a2.999 2.999 0 0 1-1.853 0c-.685-.223-1.28-.817-2.467-2.005l-2.85-2.85Zm9.909.458-1.331 1.33c-.612.612-1.007 1.006-1.332 1.282-.312.265-.459.331-.538.357a1.5 1.5 0 0 1-.927 0c-.08-.026-.226-.092-.538-.357-.325-.276-.72-.67-1.332-1.281l-2.85-2.85c-.742-.742-.934-.947-1.067-1.164a2.5 2.5 0 0 1-.3-.723c-.059-.248-.068-.528-.068-1.578v-1.47c0-.724 0-1.178.029-1.52.026-.323.069-.413.08-.433a1 1 0 0 1 .437-.437c.02-.01.11-.054.434-.08.341-.028.795-.03 1.52-.03h1.467c1.05 0 1.33.01 1.578.07a2.5 2.5 0 0 1 .723.3c.217.132.422.324 1.164 1.066l2.85 2.851c.612.612 1.006 1.008 1.282 1.333.265.312.332.458.357.537a1.5 1.5 0 0 1 0 .928c-.025.079-.092.225-.357.537-.276.325-.67.72-1.282 1.332Z" clip-rule="evenodd"/></svg>
