<svg xmlns="http://www.w3.org/2000/svg" width="20" height="20" fill="currentColor" viewBox="0 0 20 20"><path fill-rule="evenodd" d="M5 17.25a.75.75 0 0 1 .75-.75h8.5a.75.75 0 0 1 0 1.5h-8.5a.75.75 0 0 1-.75-.75Zm7.104-7.271c-.629.476-1.608.826-2.715.826C6.52 10.805 5 9.005 5 6.658V4.404c0-.553.342-.904.892-.904.542 0 .892.35.892.904v2.191c0 1.645.972 2.651 2.756 2.651 1.155 0 2.11-.405 2.676-.959V4.404c0-.553.35-.904.892-.904.55 0 .892.35.892.904v9.692c0 .553-.342.904-.892.904-.542 0-.892-.35-.892-.904V9.979h-.112Z" clip-rule="evenodd"/></svg>
