<svg xmlns="http://www.w3.org/2000/svg" width="20" height="20" viewBox="0 0 20 20" fill="currentColor"><path d="M17 15.25a.75.75 0 0 1 .75.75v1A1.75 1.75 0 0 1 16 18.75H4A1.75 1.75 0 0 1 2.25 17v-1a.75.75 0 0 1 1.5 0v1c0 .138.112.25.25.25h12a.25.25 0 0 0 .25-.25v-1a.75.75 0 0 1 .75-.75M14.5 2a1 1 0 0 1 1 1v1.925a.783.783 0 1 1-1.565 0V3.699a.2.2 0 0 0-.2-.2h-2.668a.2.2 0 0 0-.2.2v8.602c0 .11.09.2.2.2h1.377a.75.75 0 1 1 0 1.499h-4.91a.75.75 0 0 1 0-1.499h1.377a.2.2 0 0 0 .2-.2V3.699a.2.2 0 0 0-.2-.2H6.266a.2.2 0 0 0-.2.2v1.226a.784.784 0 0 1-1.566 0V3a1 1 0 0 1 1-1z"/></svg>