<svg xmlns="http://www.w3.org/2000/svg" width="20" height="20" fill="currentColor" viewBox="0 0 20 20"><path fill-rule="evenodd" d="m5.136 17.314 1.516-4.32h6.71l1.498 4.32c.093.26.203.428.335.532.13.103.297.157.53.157.531 0 .879-.328.879-.753 0-.124-.028-.277-.117-.52l-2.495-6.734h2.26a.75.75 0 1 0 0-1.5h-2.816l-2.264-6.109c-.119-.32-.27-.538-.454-.677-.182-.137-.408-.207-.697-.207-.312 0-.553.073-.743.214-.192.142-.346.363-.465.681L6.556 8.497H3.753a.75.75 0 1 0 0 1.5h2.249L3.51 16.73c-.089.243-.117.396-.117.52 0 .425.348.753.879.753.232 0 .4-.054.53-.157.132-.104.242-.272.334-.532Zm2.576-7.318-.56 1.6h5.702l-.561-1.6H7.712Zm4.054-1.5-1.627-4.632h-.281L8.236 8.497h3.53Z" clip-rule="evenodd"/></svg>
