<svg xmlns="http://www.w3.org/2000/svg" width="20" height="20" fill="currentColor" viewBox="0 0 20 20"><path fill-rule="evenodd" d="M16.499 4.754c0-.69-.56-1.25-1.25-1.25h-1a.75.75 0 0 1 0-1.5h1a2.75 2.75 0 0 1 2.75 2.75v1a.75.75 0 1 1-1.5 0v-1ZM4.754 16.497c-.69 0-1.25-.56-1.25-1.25v-1a.75.75 0 0 0-1.5 0v1a2.75 2.75 0 0 0 2.75 2.75h1a.75.75 0 0 0 0-1.5h-1Zm10.5.003c.69 0 1.25-.56 1.25-1.25v-1a.75.75 0 0 1 1.5 0v1a2.75 2.75 0 0 1-2.75 2.75h-1a.75.75 0 0 1 0-1.5h1ZM4.753 3.506c-.69 0-1.25.56-1.25 1.25v1a.75.75 0 1 1-1.5 0v-1a2.75 2.75 0 0 1 2.75-2.75h1a.75.75 0 0 1 0 1.5h-1ZM6.75 6.004a.75.75 0 1 0 0 1.5h6.5a.75.75 0 0 0 0-1.5h-6.5ZM6 10a.75.75 0 0 1 .75-.75h6.5a.75.75 0 0 1 0 1.5h-6.5A.75.75 0 0 1 6 10Zm.75 2.5a.75.75 0 0 0 0 1.5h3.5a.75.75 0 0 0 0-1.5h-3.5Z" clip-rule="evenodd"/></svg>
