<svg xmlns="http://www.w3.org/2000/svg" width="20" height="20" fill="currentColor" viewBox="0 0 20 20"><path d="M15.497 16.042c0 .613.218.958.753.958.53 0 .75-.341.75-.958v-3.963c0-.656-.3-1.079-.75-1.079-.331 0-.764.12-1.108.345l-.562.367c-.28.181-.423.41-.423.674 0 .354.231.604.559.604.16 0 .287-.052.55-.22l.223-.143h.008v3.415Z M3.75 3a.75.75 0 0 1 .75.75v5.245h5.998V3.75a.75.75 0 0 1 1.5 0v12.5a.75.75 0 1 1-1.5 0v-5.755H4.5v5.755a.75.75 0 0 1-1.5 0V3.75A.75.75 0 0 1 3.75 3Z" clip-rule="evenodd"/></svg>
