<svg xmlns="http://www.w3.org/2000/svg" width="20" height="20" fill="currentColor" viewBox="0 0 20 20"><path fill-rule="evenodd" d="m9.436 10.694 3.245-.195V9.69c0-.732-.236-1.305-.663-1.696-.429-.392-1.061-.613-1.876-.613-.68 0-1.245.135-1.702.42-.457.284-.814.722-1.07 1.344l-.003.008a.775.775 0 0 1-.272.312.73.73 0 0 1-.4.107.716.716 0 0 1-.513-.197.701.701 0 0 1-.198-.51c0-.22.078-.477.194-.715C6.756 6.858 8.293 6 10.173 6c1.244 0 2.264.34 2.975.96.712.623 1.102 1.52 1.102 2.61v6.654a.787.787 0 0 1-.21.558.742.742 0 0 1-.543.218.742.742 0 0 1-.544-.218.787.787 0 0 1-.21-.558V15.1c-.696 1.156-2.092 1.9-3.588 1.9-1.075 0-1.99-.315-2.636-.872-.647-.559-1.019-1.354-1.019-2.296 0-.918.352-1.667 1.028-2.205.672-.534 1.656-.852 2.908-.933Zm.179 1.26c-.832.055-1.465.26-1.888.579a1.534 1.534 0 0 0-.638 1.279c0 .55.238 1.006.645 1.326.41.322.997.51 1.699.51 1.825 0 3.248-1.26 3.248-2.851V11.75l-3.066.204Z M10.576 1.416a.75.75 0 0 1 1.01-.336c.37.187.52.64.334 1.012l-.996 1.992a.75.75 0 0 1-1.01.336.755.755 0 0 1-.334-1.012l.996-1.992Z"/></svg>
