<svg xmlns="http://www.w3.org/2000/svg" width="20" height="20" fill="currentColor" viewBox="0 0 20 20"><path fill-rule="evenodd" d="M11.496 10.8a.75.75 0 0 0 .496.706l.008.003c.953.44 1.498 1.379 1.498 2.556 0 1.548-1.295 2.935-3.473 2.935h-.052C7.794 17 6.5 15.613 6.5 14.065c0-1.177.545-2.117 1.498-2.556l.012-.005.003-.001h2.234a.75.75 0 0 0 0-1.5H8.5V8.5h1.746a.75.75 0 0 0 0-1.5H8.5V5.5h1.746a.75.75 0 0 0 0-1.5H8.534c.125-.542.59-.952 1.158-.997.043-.003.102-.004.306-.004.204 0 .263 0 .306.004.634.05 1.138.554 1.188 1.188a4.8 4.8 0 0 1 .004.306V10.8ZM7.01 4.074c-.01.11-.01.233-.01.394v5.872c-1.328.783-2 2.201-2 3.725C5 16.587 7.12 18.5 9.972 18.5a1.094 1.094 0 0 0 .051 0c2.854 0 4.974-1.913 4.974-4.435 0-1.524-.673-2.943-2.002-3.726V4.468c0-.16 0-.284-.008-.394a2.793 2.793 0 0 0-2.566-2.565 5.229 5.229 0 0 0-.394-.009h-.06c-.16 0-.284 0-.394.009A2.793 2.793 0 0 0 7.01 4.074Z" clip-rule="evenodd"/></svg>
