<svg xmlns="http://www.w3.org/2000/svg" width="20" height="20" fill="currentColor" viewBox="0 0 20 20"><path fill-rule="evenodd" d="M9.238 1.497c-.898 0-1.711.532-2.07 1.356l-1.77 4.056a7.133 7.133 0 0 0-.132.317c-.152.401-.24.823-.261 1.251C5 8.577 5 8.675 5 8.822v4.46c0 .673 0 1.223.037 1.671.037.463.118.882.317 1.273a3.25 3.25 0 0 0 1.42 1.42c.391.199.81.28 1.273.317.447.037.998.037 1.671.037h2.47c.829 0 1.433 0 1.974-.197a3.251 3.251 0 0 0 1.254-.826c.395-.42.633-.974.96-1.736l.994-2.319c.387-.902.698-1.626.89-2.218.196-.6.306-1.166.2-1.726a3.25 3.25 0 0 0-1.378-2.09c-.473-.319-1.036-.44-1.665-.498-.62-.057-1.408-.057-2.389-.057h-1.531V3.755a2.259 2.259 0 0 0-2.26-2.258Zm-.695 1.955a.759.759 0 0 1 1.454.303V6.8c0 .571.463 1.034 1.034 1.034h1.96c1.027 0 1.747.001 2.29.05.543.05.803.141.963.249.388.261.655.666.742 1.125.036.19.017.465-.152.983-.169.52-.452 1.18-.857 2.125l-.93 2.167c-.399.93-.534 1.215-.724 1.417a1.751 1.751 0 0 1-.675.445c-.26.095-.576.106-1.588.106H9.75c-.712 0-1.202 0-1.581-.032-.37-.03-.57-.085-.714-.159a1.75 1.75 0 0 1-.764-.765c-.074-.144-.13-.343-.16-.713-.03-.38-.031-.868-.031-1.581V8.84c0-.171 0-.232.003-.29.013-.27.069-.538.165-.791.02-.055.045-.11.113-.267l1.762-4.04Z M3.25 18a.75.75 0 0 0 .75-.75v-8.5a.75.75 0 0 0-1.5 0v8.5c0 .414.336.75.75.75Z"/></svg>
