<svg xmlns="http://www.w3.org/2000/svg" width="20" height="20" fill="currentColor" viewBox="0 0 20 20"><path fill-rule="evenodd" d="M10.762 18.503c.898 0 1.711-.532 2.07-1.355l1.77-4.057c.058-.134.097-.224.132-.317.152-.4.24-.823.261-1.251.005-.1.005-.198.005-.345v-4.46c0-.673 0-1.223-.037-1.671-.037-.463-.118-.882-.317-1.272a3.25 3.25 0 0 0-1.42-1.42c-.391-.2-.81-.28-1.273-.318C11.506 2 10.955 2 10.282 2h-2.47c-.829 0-1.433 0-1.974.197a3.25 3.25 0 0 0-1.254.826c-.395.42-.633.975-.96 1.736l-.994 2.32c-.387.902-.698 1.626-.89 2.218-.196.6-.306 1.166-.2 1.726a3.25 3.25 0 0 0 1.378 2.09c.473.319 1.036.441 1.665.498.62.057 1.408.057 2.389.057h1.531v2.578a2.259 2.259 0 0 0 2.26 2.258Zm.695-1.955a.759.759 0 0 1-1.454-.303V13.2c0-.571-.463-1.034-1.034-1.034h-1.96c-1.027 0-1.747-.001-2.29-.05-.543-.05-.803-.141-.963-.249a1.75 1.75 0 0 1-.742-1.125c-.036-.19-.017-.465.152-.983.169-.52.452-1.18.857-2.125l.93-2.167c.399-.93.534-1.215.724-1.417a1.75 1.75 0 0 1 .675-.445c.26-.095.576-.106 1.587-.106h2.311c.713 0 1.202 0 1.581.032.37.03.57.085.713.159.33.168.598.435.765.765.074.144.13.343.16.713.03.38.031.869.031 1.581v4.411c0 .17 0 .23-.003.29-.013.27-.069.537-.165.79-.02.055-.045.11-.113.267l-1.761 4.04Z M16.75 2a.75.75 0 0 0-.75.75v8.5a.75.75 0 0 0 1.5 0v-8.5a.75.75 0 0 0-.75-.75Z"/></svg>
