<svg xmlns="http://www.w3.org/2000/svg" width="20" height="20" fill="none" viewBox="0 0 20 20"><path fill="url(#a)" fill-rule="evenodd" d="M10 20c5.5228 0 10-4.4772 10-10 0-5.5229-4.4772-10-10-10C4.4771 0 0 4.4771 0 10c0 5.5228 4.4771 10 10 10Z" clip-rule="evenodd"/><path fill="#fff" fill-rule="evenodd" d="M8.5058 8.074C8.5 8.1274 8.5 8.1816 8.5 8.29v4.51c0 .42 0 .6301.0817.7905a.7507.7507 0 0 0 .3278.3278C9.07 14 9.28 14 9.7 14h3.05c.9312 0 1.3967 0 1.7695-.1357a2.2501 2.2501 0 0 0 1.3448-1.3448C16 12.1467 16 11.6812 16 10.75s0-1.3967-.1357-1.7696a2.25 2.25 0 0 0-1.3448-1.3447C14.1467 7.5 13.6812 7.5 12.75 7.5h-1l.1634-2.2875C11.9602 4.5573 11.4413 4 10.7844 4a1.132 1.132 0 0 0-1.0598.7344l-1.1227 2.994c-.0381.1015-.0571.1523-.0705.2044a1 1 0 0 0-.0256.1411Zm-3.9053-.199C4.5 8.049 4.5 8.2827 4.5 8.75v4c0 .4673 0 .701.1005.875a.75.75 0 0 0 .2745.2745C5.049 14 5.2827 14 5.75 14s.701 0 .875-.1005a.75.75 0 0 0 .2745-.2745C7 13.451 7 13.2173 7 12.75v-4c0-.4673 0-.701-.1005-.875a.7501.7501 0 0 0-.2745-.2745C6.451 7.5 6.2173 7.5 5.75 7.5s-.701 0-.875.1005a.7501.7501 0 0 0-.2745.2745Z" clip-rule="evenodd"/><defs><linearGradient id="a" x1="-10" x2="10" y1="10" y2="30" gradientUnits="userSpaceOnUse"><stop stop-color="#50C750"/><stop offset="1" stop-color="#32B332"/></linearGradient></defs></svg>
