<svg fill="none" height="20" viewBox="0 0 20 20" width="20" xmlns="http://www.w3.org/2000/svg"><path clip-rule="evenodd" d="m9.60724 3.82306c.11285-.55971.68806-.89628 1.23126-.72046.3944.12764.6615.49488.6615.90936v3.23821c0 .41422.3358.75.75.75h1c1.4168 0 2.3089.29839 2.8561.82274.5407.51817.8939 1.40169.8939 2.92729v.5c0 1.5256-.3532 2.4091-.8939 2.9272-.5472.5244-1.4393.8228-2.8561.8228h-2.4904-3.75985c.00025-.0769.00025-.1609.00025-.2533v-5.4967c0-.2732 0-.47337-.00645-.63299l.95495-.66651c.4668-.32579.79006-.81898.90256-1.377zm-3.2004 4.37443.68317-.47682c.15032-.10491.25441-.26373.29064-.44342l.75618-3.75064c.28994-1.43811 1.76783-2.30287 3.16357-1.85112 1.0132.32794 1.6996 1.27152 1.6996 2.33647v2.48821h.25c1.5832 0 2.9411.32662 3.8939 1.23976.9593.91934 1.3561 2.28587 1.3561 4.01027v.5c0 1.7244-.3968 3.0909-1.3561 4.0102-.9528.9131-2.3107 1.2398-3.8939 1.2398h-2.4904-4.1177c-.31745.4857-.82134.8368-1.4127.9545-.21252.0422-.46808.0422-.9792.0422s-.76668 0-.9792-.0422c-.87272-.1736-1.55493-.8558-1.72853-1.7286-.04227-.2125-.04227-.468-.04227-.9792v-5.4967c0-.51114 0-.7667.04227-.97922.1736-.87272.85581-1.55493 1.72853-1.72853.21252-.04227.46808-.04227.9792-.04227s.76668 0 .9792.04227c.4615.0918.86972.32582 1.17764.65504zm-.90684 2.05271v5.4967c0 .2658-.0002.4276-.00441.5503-.00334.0977-.00838.1322-.00914.1368-.05535.2773-.27211.494-.54941.5494-.00461.0008-.03906.0058-.13679.0091-.12273.0042-.28452.0044-.55025.0044s-.42752-.0002-.55025-.0044c-.09772-.0033-.13218-.0083-.13679-.0091-.2773-.0554-.49406-.2721-.54941-.5494-.00076-.0046-.0058-.0391-.00914-.1368-.00421-.1227-.00441-.2845-.00441-.5503v-5.4967c0-.26575.0002-.42754.00441-.55027.00334-.09767.00837-.13214.00913-.13679.05536-.2773.27212-.49406.54942-.54942.00465-.00076.03913-.00579.13679-.00914.12273-.0042.28452-.0044.55025-.0044s.42752.0002.55025.0044c.09765.00335.13213.00838.13679.00914.2773.05536.49406.27213.54942.54942.00076.00466.00579.03914.00913.13679.00421.12273.00441.28452.00441.55027z" fill="currentColor" fill-rule="evenodd"/></svg>
