<svg xmlns="http://www.w3.org/2000/svg" width="20" height="20" viewBox="0 0 20 20" fill="currentColor"><path fill-rule="evenodd" d="M17.408 5.377a.75.75 0 0 0-.954-.093 1.252 1.252 0 0 1-1.738-1.738.75.75 0 0 0-.093-.954c-.695-.688-1.25-1.21-1.933-1.433a3.25 3.25 0 0 0-2.01 0c-.418.136-.771.375-1.126.676-.343.29-.733.68-1.21 1.157L2.993 8.345c-.476.476-.866.866-1.157 1.209-.301.355-.54.708-.676 1.125a3.25 3.25 0 0 0 0 2.01c.222.684.745 1.239 1.433 1.934a.75.75 0 0 0 .954.093 1.252 1.252 0 0 1 1.738 1.738.75.75 0 0 0 .093.954c.695.688 1.25 1.21 1.933 1.433a3.25 3.25 0 0 0 2.01 0c.418-.136.771-.375 1.126-.676.343-.29.732-.68 1.21-1.157l5.352-5.353c.476-.476.866-.866 1.157-1.209.301-.354.54-.708.676-1.125a3.25 3.25 0 0 0 0-2.01c-.222-.684-.745-1.239-1.433-1.934m-3.6.815a2.75 2.75 0 0 0 2.911.632c.451.478.62.721.694.95.114.352.114.731 0 1.083-.05.154-.152.334-.393.617-.246.29-.592.637-1.096 1.142l-.85.849-.792-.793a.75.75 0 1 0-1.062 1.062l.793.793-3.397 3.397c-.505.504-.851.85-1.142 1.096-.283.241-.463.343-.617.393a1.76 1.76 0 0 1-1.083 0c-.229-.075-.472-.243-.95-.694a2.752 2.752 0 0 0-3.543-3.543c-.451-.478-.62-.721-.694-.95a1.75 1.75 0 0 1 0-1.083c.05-.154.152-.334.392-.618.247-.29.593-.637 1.097-1.14l3.397-3.398.793.793a.75.75 0 0 0 1.062-1.062l-.793-.793.85-.849c.503-.504.85-.85 1.14-1.097.284-.24.464-.342.618-.392.352-.114.73-.114 1.083 0 .229.075.472.243.95.694a2.75 2.75 0 0 0 .632 2.911m-2.357 1.65a.75.75 0 1 0-1.062 1.061l.708.708a.75.75 0 0 0 1.062-1.062z" clip-rule="evenodd"/></svg>