<svg xmlns="http://www.w3.org/2000/svg" width="20" height="20" fill="currentColor" viewBox="0 0 20 20"><path fill-rule="evenodd" d="M8 13c.553 0 1.086-.09 1.583-.256l-2.327-2.327a4.995 4.995 0 0 0-.172 2.5c.297.054.603.083.916.083Zm-.017-3.978 2.995 2.995a5.032 5.032 0 0 0 1.039-1.04L9.022 7.984a5.03 5.03 0 0 0-1.04 1.04Zm2.433-1.766 2.328 2.327a4.995 4.995 0 0 0 .172-2.5 5.027 5.027 0 0 0-2.5.173ZM14.14 5.86a6.5 6.5 0 1 0-8.28 8.28 6.5 6.5 0 1 0 8.28-8.28Zm.351 1.804a5 5 0 1 1-6.828 6.828 6.5 6.5 0 0 0 6.828-6.828Z" clip-rule="evenodd"/></svg>
