<svg xmlns="http://www.w3.org/2000/svg" width="20" height="20" fill="currentColor" viewBox="0 0 20 20"><path fill-rule="evenodd" d="M6.837 4a3.25 3.25 0 0 1 6.326 0h4.087a.75.75 0 0 1 0 1.5h-.545l-.907 9.248c-.051.523-.094.96-.157 1.314-.066.37-.163.711-.353 1.028a2.9 2.9 0 0 1-1.247 1.131c-.334.158-.682.221-1.058.25-.36.029-.797.029-1.323.029H8.34c-.526 0-.964 0-1.323-.028-.376-.03-.724-.093-1.058-.25a2.9 2.9 0 0 1-1.247-1.132c-.19-.317-.287-.657-.353-1.028a18.29 18.29 0 0 1-.157-1.314L3.295 5.5H2.75a.75.75 0 0 1 0-1.5h4.087Zm1.581 0a1.75 1.75 0 0 1 3.164 0H8.418ZM4.803 5.5h10.394l-.889 9.072c-.055.56-.092.938-.144 1.228-.05.281-.104.422-.162.52a1.4 1.4 0 0 1-.603.546c-.102.048-.248.088-.533.11a17.64 17.64 0 0 1-1.235.024H8.369c-.562 0-.941 0-1.235-.023-.285-.023-.43-.063-.533-.111a1.4 1.4 0 0 1-.602-.547c-.059-.097-.113-.238-.163-.52-.051-.29-.089-.667-.144-1.226L4.802 5.5Z" clip-rule="evenodd"/></svg>
