<svg xmlns="http://www.w3.org/2000/svg" width="20" height="20" fill="currentColor" viewBox="0 0 20 20"><path fill-rule="evenodd" d="M2.58 15.473a1.733 1.733 0 0 1-.626-.17 1.75 1.75 0 0 1-.765-.765 1.774 1.774 0 0 1-.175-.677c-.016-.198-.016-.434-.016-.692V7.715c0-.674 0-1.224.037-1.672.038-.463.118-.882.317-1.272a3.25 3.25 0 0 1 1.42-1.42c.391-.2.81-.28 1.273-.318.448-.037.998-.037 1.672-.037h3.662c.396 0 .737 0 1.018.023a2.3 2.3 0 0 1 .875.222c.423.216.768.56.983.984.145.283.198.578.223.875.02.252.022.552.023.897h.944c.304 0 .573 0 .834.062.23.055.449.145.65.269.229.14.419.33.634.545l2.567 2.562c.216.216.407.406.548.635.123.202.214.421.27.651.062.262.062.531.062.837v1.919c0 .202 0 .397-.014.562a1.56 1.56 0 0 1-.155.597 1.55 1.55 0 0 1-.678.677 1.348 1.348 0 0 1-.245.096 2.938 2.938 0 0 1-5.825.084H8.915a3.251 3.251 0 0 1-6.334-.02ZM9.35 4.495c.433 0 .712 0 .925.018.203.017.279.045.316.064a.75.75 0 0 1 .328.328c.019.037.047.112.064.316.017.212.018.492.018.924v7.847H8.91a3.251 3.251 0 0 0-6.31-.048.25.25 0 0 1-.074-.085.625.625 0 0 1-.018-.121 8.336 8.336 0 0 1-.01-.596V7.746c0-.712 0-1.202.03-1.58.031-.371.087-.57.16-.714a1.75 1.75 0 0 1 .765-.765c.144-.074.343-.13.713-.16.38-.03.869-.03 1.581-.03H9.35Zm4.032 3c.402 0 .481.005.547.021.077.019.15.049.217.09.058.035.117.088.402.372l2.478 2.474c.285.284.337.344.373.402a.75.75 0 0 1 .09.217c.016.066.02.145.02.548v1.92a2.936 2.936 0 0 0-4.99-.046V7.496h.863ZM4 14.75a1.75 1.75 0 1 1 3.5 0 1.75 1.75 0 0 1-3.5 0Zm9.563.318a1.438 1.438 0 1 1 2.875 0 1.438 1.438 0 0 1-2.875 0Z" clip-rule="evenodd"/></svg>
