<svg xmlns="http://www.w3.org/2000/svg" width="20" height="20" fill="currentColor" viewBox="0 0 20 20"><path fill-rule="evenodd" d="M5.98 2.478c.785-.414 1.626-.066 2.055.528a2.424 2.424 0 0 0 3.93 0c.43-.594 1.27-.942 2.055-.528.601.318 1.458.895 2.343 1.901 1.081 1.23 1.555 2.377 1.75 3.005l.008.022c.03.097.09.282.074.508-.014.186-.08.388-.181.545a1.391 1.391 0 0 1-.383.377 1.865 1.865 0 0 0-.022.017L15.5 10.386v4.524c0 .343 0 .641-.114 1-.05.156-.131.321-.205.452a2.531 2.531 0 0 1-.28.408c-.249.283-.443.4-.677.541l-.01.006A8.186 8.186 0 0 1 10 18.5a8.187 8.187 0 0 1-4.215-1.183l-.009-.006c-.234-.14-.428-.258-.676-.54a2.53 2.53 0 0 1-.28-.409 2.53 2.53 0 0 1-.206-.451c-.114-.36-.114-.658-.114-1.001v-4.524L2.391 8.853l-.023-.017a1.4 1.4 0 0 1-.382-.377 1.214 1.214 0 0 1-.18-.545c-.017-.226.042-.41.073-.507l.007-.023c.196-.628.67-1.776 1.75-3.006.886-1.007 1.743-1.583 2.344-1.9Zm.715 1.321c-.002 0-.006 0-.015.005-.456.24-1.163.708-1.917 1.565-.84.955-1.232 1.834-1.403 2.334l2.331 1.695a.75.75 0 0 1 .309.607v4.857c0 .402.006.476.043.593l.002.005.005.012.017.04a1.611 1.611 0 0 0 .15.255l.008.011a.064.064 0 0 0 .002.003c.091.104.12.123.333.251.739.445 1.93.968 3.44.968s2.701-.523 3.44-.968c.213-.128.242-.147.333-.25l.002-.004.008-.01a1.612 1.612 0 0 0 .167-.296l.005-.012a.083.083 0 0 0 .002-.005c.037-.117.043-.19.043-.593v-4.857a.75.75 0 0 1 .309-.607l2.33-1.695c-.17-.5-.562-1.378-1.402-2.333-.753-.857-1.461-1.325-1.917-1.565a.037.037 0 0 0-.015-.005c-.003 0-.01 0-.02.003a.214.214 0 0 0-.105.083c-1.566 2.166-4.794 2.166-6.36 0a.214.214 0 0 0-.105-.084.056.056 0 0 0-.02-.003Z" clip-rule="evenodd"/></svg>
