<svg xmlns="http://www.w3.org/2000/svg" width="20" height="20" fill="currentColor" viewBox="0 0 20 20"><path fill-rule="evenodd" d="M4.95 2.5h-.03c-.535 0-.98 0-1.345.03-.38.03-.736.098-1.073.27A2.75 2.75 0 0 0 1.3 4.002c-.172.337-.24.693-.27 1.073C1 5.44 1 5.885 1 6.42v4.66c0 .535 0 .98.03 1.345.03.38.098.736.27 1.073A2.75 2.75 0 0 0 2.502 14.7c.337.172.693.24 1.073.27.365.03.81.03 1.345.03H7l-1.09 1.363a.7.7 0 0 0 .546 1.137h7.088a.7.7 0 0 0 .546-1.137L13 15h2.08c.535 0 .98 0 1.345-.03.38-.03.736-.098 1.073-.27a2.751 2.751 0 0 0 1.202-1.2c.172-.338.24-.694.27-1.074.03-.365.03-.81.03-1.345V6.42c0-.535 0-.98-.03-1.345-.03-.38-.098-.736-.27-1.073A2.75 2.75 0 0 0 17.5 2.8c-.338-.172-.694-.24-1.074-.27-.365-.03-.81-.03-1.345-.03H4.95ZM3.183 4.136c.09-.046.227-.088.514-.111C3.993 4 4.377 4 4.95 4h10.1c.572 0 .957 0 1.252.025.288.023.425.065.515.111.236.12.427.311.547.547.046.09.088.227.111.514.024.296.025.68.025 1.253v4.6c0 .572 0 .957-.025 1.252-.023.288-.065.425-.111.516a1.25 1.25 0 0 1-.547.546c-.09.046-.227.088-.515.111-.295.024-.68.025-1.252.025H4.95c-.572 0-.957 0-1.253-.025-.287-.023-.424-.065-.514-.111a1.25 1.25 0 0 1-.547-.546c-.046-.091-.088-.228-.111-.515-.024-.296-.025-.68-.025-1.253v-4.6c0-.572 0-.957.025-1.253.023-.287.065-.424.111-.514a1.25 1.25 0 0 1 .547-.547Z" clip-rule="evenodd"/></svg>
