<svg xmlns="http://www.w3.org/2000/svg" width="20" height="20" fill="currentColor" viewBox="0 0 20 20"><path d="M14.578 12.745h-.101l-2.324-6.78c-.218-.662-.56-.965-1.104-.965-.606 0-1.049.36-1.049.879 0 .202.062.483.171.778l2.62 6.989c.341.943.846 1.354 1.724 1.354.863 0 1.353-.403 1.695-1.354l2.627-6.989c.093-.267.163-.59.163-.785C19 5.353 18.565 5 17.966 5c-.56 0-.878.281-1.096.965l-2.292 6.78Zm-9.582 2.257c.615 0 1-.4 1-1.047V6.653h2.146c.503 0 .858-.342.858-.822 0-.487-.355-.83-.858-.83H1.858c-.495 0-.858.35-.858.83 0 .473.363.822.858.822h2.14v7.302c0 .654.377 1.047.998 1.047Z"/></svg>
