<svg xmlns="http://www.w3.org/2000/svg" width="20" height="20" fill="currentColor" viewBox="0 0 20 20"><path fill-rule="evenodd" d="M2.5 7.244a.748.748 0 0 0-.75-.747.748.748 0 0 0-.75.747v3.74a2.52 2.52 0 0 0 2.525 2.513 2.52 2.52 0 0 0 2.525-2.514v-3.74a.748.748 0 0 0-.75-.746.748.748 0 0 0-.75.747v3.74c0 .563-.459 1.02-1.025 1.02a1.023 1.023 0 0 1-1.025-1.02v-3.74Zm13.396-.242a.75.75 0 0 1 1.451.149l1.882 5.325a.748.748 0 0 1-.46.953.749.749 0 0 1-.955-.454l-.238-.672H15.63l-.234.67a.749.749 0 0 1-.955.457.748.748 0 0 1-.462-.952l1.917-5.476Zm.703 2.535.555 1.572H16.05l.55-1.572Zm-8.097.938.945 2.514a.746.746 0 0 0 .473.45.75.75 0 0 0 .965-.438l.945-2.518v2.257c0 .412.336.746.75.746.415 0 .75-.334.75-.746V7.453c0-1.054-1.47-1.318-1.84-.331l-1.322 3.524-1.326-3.527c-.371-.986-1.84-.722-1.84.331v5.277c0 .412.336.746.75.746s.75-.334.75-.746v-2.252Z" clip-rule="evenodd"/></svg>
