<svg xmlns="http://www.w3.org/2000/svg" width="20" height="20" fill="currentColor" viewBox="0 0 20 20"><path fill-rule="evenodd" d="M4.498 8.518c-.471 0-.974.136-1.39.286a7.024 7.024 0 0 1 4.479-5.382 7.44 7.44 0 0 0-.195.381c-.574 1.203-1.01 2.896-1.12 5.105a10.21 10.21 0 0 0-.192-.067c-.479-.163-1.071-.323-1.582-.323Zm-2.996 1.505c0-4.64 3.725-8.523 8.48-8.523 4.838 0 8.517 3.937 8.517 8.523a.75.75 0 0 1-1.173.62c-.314-.215-1.133-.626-1.84-.626-.343 0-.76.097-1.172.242-.405.142-.75.311-.931.415a.75.75 0 0 1-.74.004c-.288-.162-1.026-.474-1.893-.603v.18c0 .405.002.965.004 1.586.003 1.245.01 2.728.026 3.698v.024c-.017.945-.234 1.692-.677 2.211-.46.54-1.07.726-1.627.726a2.23 2.23 0 0 1-1.506-.572c-.439-.401-.699-.982-.699-1.678a.75.75 0 0 1 1.5 0c0 .304.104.473.212.572a.73.73 0 0 0 .493.178c.22 0 .37-.064.486-.2.132-.154.303-.504.318-1.251a330.06 330.06 0 0 1-.026-3.703l-.004-1.59v-.181c-.867.128-1.602.44-1.887.602a.75.75 0 0 1-.7.02A9.624 9.624 0 0 0 5.6 10.26c-.45-.152-.848-.243-1.1-.243-.244 0-.595.086-.98.234a6.446 6.446 0 0 0-.889.419.75.75 0 0 1-1.128-.648ZM9.555 3.26c.258-.24.41-.259.428-.259.046 0 .215.031.481.288.258.248.548.656.821 1.25.458.996.834 2.448.943 4.35a7.4 7.4 0 0 0-2.231-.37c-.821 0-1.6.168-2.223.369.11-2.006.508-3.466.972-4.438.274-.575.562-.96.809-1.19Zm3.093.653c.557 1.212.97 2.877 1.082 4.963l.087-.032c.485-.17 1.085-.325 1.668-.325.49 0 .974.109 1.403.257a7.032 7.032 0 0 0-4.485-5.351c.085.155.167.318.245.488Z" clip-rule="evenodd"/></svg>
