<svg fill="none" height="20" viewBox="0 0 20 20" width="20" xmlns="http://www.w3.org/2000/svg"><g fill="currentColor"><path d="m10.75 11.5c0-.4142-.3358-.75-.75-.75s-.74998.3358-.74998.75v2c0 .4142.33578.75.74998.75s.75-.3358.75-.75z"/><path clip-rule="evenodd" d="m6.00002 4.95c0-2.19244 1.80187-3.95 3.99998-3.95 1.9035 0 3.499 1.30163 3.8961 3.08289.0901.40428-.1645.80509-.5688.89523s-.8051-.16453-.8952-.56882c-.2432-1.09077-1.2264-1.9093-2.4321-1.9093-1.3917 0-2.49998 1.10782-2.49998 2.45v2.05h5.26088c.5898-.00001 1.0776-.00002 1.4751.03246.4133.03377.7946.10633 1.1533.28907.5551.28283 1.0064.73412 1.2892 1.2892.1827.35865.2553.74001.2891 1.15324.0324.39753.0324.88533.0324 1.47513v2.5218c0 .5898 0 1.0776-.0324 1.4751-.0338.4133-.1064.7946-.2891 1.1533-.2828.5551-.7341 1.0063-1.2892 1.2892-.3587.1827-.74.2553-1.1533.289-.3975.0325-.8853.0325-1.4751.0325h-5.52178c-.58979 0-1.07757 0-1.47513-.0325-.41324-.0337-.79459-.1063-1.15325-.289-.55507-.2829-1.00637-.7341-1.28919-1.2892-.18275-.3587-.25531-.74-.28907-1.1533-.03248-.3975-.03247-.8853-.03246-1.4751v-2.5218c-.00001-.5898-.00002-1.0776.03246-1.47513.03376-.41323.10632-.79459.28907-1.15324.28282-.55508.73412-1.00637 1.28919-1.2892.35866-.18274.74001-.2553 1.15325-.28907.0754-.00616.15405-.01115.23603-.01519zm-.11388 3.57748c-.32048.02619-.48246.07352-.59441.13056-.27284.13902-.49466.36084-.63367.63367-.05705.11196-.10438.27394-.13056.59441-.0269.32918-.02748.75548-.02748 1.38388v2.46c0 .6284.00058 1.0547.02748 1.3839.02618.3205.07351.4824.13056.5944.13901.2728.36083.4946.63367.6337.11195.057.27393.1043.59441.1305.32922.0269.75544.0275 1.38388.0275h5.45998c.6284 0 1.0547-.0006 1.3839-.0275.3205-.0262.4824-.0735.5944-.1305.2728-.1391.4947-.3609.6337-.6337.057-.112.1044-.2739.1305-.5944.0269-.3292.0275-.7555.0275-1.3839v-2.46c0-.6284-.0006-1.0547-.0275-1.38388-.0261-.32047-.0735-.48245-.1305-.59441-.139-.27283-.3609-.49465-.6337-.63367-.112-.05704-.2739-.10437-.5944-.13056-.3292-.0269-.7555-.02748-1.3839-.02748h-5.45998c-.62844 0-1.05466.00058-1.38388.02748z" fill-rule="evenodd"/></g></svg>
