<svg xmlns="http://www.w3.org/2000/svg" width="20" height="20" fill="none" viewBox="0 0 20 20"><path fill="currentColor" d="m13.6738 18.0508-3.1224-2.4559c-.1715-.1348-.2572-.2022-.3141-.2667a.9501.9501 0 0 1 0-1.2564c.0569-.0645.1426-.1319.3141-.2667l3.1224-2.4559c.2045-.1609.3068-.2413.3824-.2772.4308-.2041.9391.0443 1.0447.5106.0186.0819.0186.2123.0186.4731v1.0486c2.5098.3968 3.4489 2.0662 3.792 3.4334.0586.2335.0879.3502.0885.4157.0035.3959-.3457.6507-.7197.5252-.062-.0208-.233-.1286-.575-.3441-.6367-.4011-1.4964-.7391-2.5858-.7391v.9489c0 .2608 0 .3912-.0186.4731-.1056.4663-.6139.7147-1.0447.5106-.0756-.0359-.1779-.1163-.3824-.2772Z"/><path fill="currentColor" fill-rule="evenodd" d="M10 12c-1.9373 0-3.5073.3579-4.5394.9786C4.51 13.5502 4 14.3369 4 15.5c0 .4603.1437.6676.2492.7666.121.1134.3542.2334.7508.2334h4A.75.75 0 0 1 9 18H5c-.7035 0-1.3282-.2184-1.777-.6394C2.7742 16.9397 2.5 16.315 2.5 15.5c0-1.7418.8328-2.9921 2.1875-3.8068C6.0417 10.8788 7.9167 10.5 10 10.5c.0546 0 .1091.0003.1634.0008a.7499.7499 0 0 1 .7427.7571.7499.7499 0 0 1-.7571.7428A14.7458 14.7458 0 0 0 10 12ZM6 5c0-2.2091 1.7909-4 4-4 2.2091 0 4 1.7909 4 4 0 2.2091-1.7909 4-4 4-2.2091 0-4-1.7909-4-4Zm4-2.5C8.6193 2.5 7.5 3.6193 7.5 5S8.6193 7.5 10 7.5s2.5-1.1193 2.5-2.5-1.1193-2.5-2.5-2.5Z" clip-rule="evenodd"/></svg>
