<svg xmlns="http://www.w3.org/2000/svg" width="20" height="20" fill="currentColor" viewBox="0 0 20 20"><path fill-rule="evenodd" d="M10.422 3.099a.93.93 0 0 0-.834 0c-.052.026-.194.136-.447.602-.243.447-.52 1.084-.915 1.998l-.491 1.135-.005.012c-.02.05-.084.202-.193.328a.985.985 0 0 1-.325.247 1.223 1.223 0 0 1-.38.101l-.686.097c-.995.14-1.691.238-2.193.355-.522.122-.668.23-.708.275a.94.94 0 0 0-.222.814c.012.059.082.226.47.596.373.356.922.794 1.709 1.42l.224.18a.767.767 0 0 0 .011.008c.05.039.206.158.307.326.082.138.13.294.14.455.013.195-.047.381-.067.442l-.004.014-.451 1.477c-.185.605-.308 1.01-.374 1.325-.065.309-.052.437-.034.504a.94.94 0 0 0 .408.55c.058.037.177.086.492.115.32.028.743.029 1.375.029h5.503c.618 0 1.031 0 1.343-.029.307-.027.424-.075.482-.11a.94.94 0 0 0 .41-.54c.019-.065.034-.19-.022-.494-.057-.308-.167-.707-.332-1.302l-.43-1.55-.004-.013c-.017-.06-.071-.242-.056-.433.012-.157.062-.309.143-.443.1-.164.251-.28.3-.318l.011-.008.232-.185c.785-.627 1.333-1.065 1.705-1.42.387-.37.457-.538.469-.597a.94.94 0 0 0-.223-.813c-.04-.044-.185-.153-.707-.275-.5-.116-1.195-.215-2.19-.355l-.685-.097-.013-.001a1.223 1.223 0 0 1-.367-.1 1.006 1.006 0 0 1-.325-.247 1.22 1.22 0 0 1-.193-.328l-.005-.012-.491-1.135c-.396-.914-.672-1.55-.915-1.998-.253-.466-.395-.576-.447-.602Zm-1.507-1.34a2.43 2.43 0 0 1 2.18 0c.493.247.82.724 1.092 1.226.279.513.582 1.213.958 2.082l.431.996.535.076c.947.133 1.709.24 2.283.374.56.131 1.11.32 1.482.733a2.44 2.44 0 0 1 .577 2.113c-.11.544-.487.987-.903 1.384-.426.407-1.027.887-1.775 1.484l-.086.069.379 1.365c.153.554.282 1.017.352 1.399.073.394.102.789-.012 1.183a2.438 2.438 0 0 1-1.063 1.398c-.35.215-.738.293-1.137.329-.386.034-.867.034-1.442.034h-5.57c-.59 0-1.082 0-1.476-.035-.406-.037-.802-.116-1.155-.338a2.44 2.44 0 0 1-1.06-1.43c-.108-.402-.068-.804.015-1.203.082-.388.225-.858.397-1.421l.393-1.29-.073-.058c-.75-.597-1.352-1.077-1.779-1.484-.417-.398-.795-.84-.905-1.385a2.44 2.44 0 0 1 .577-2.114c.371-.413.922-.602 1.483-.733.575-.134 1.337-.24 2.286-.374l.535-.076.431-.996c.376-.869.68-1.569.958-2.082.273-.502.599-.98 1.092-1.227Z M6.5 14.577v.461c0 .247.202.462.438.462h6.125c.235 0 .437-.215.437-.462v-.461c0-1.616-2.332-2.077-3.5-2.077-1.168 0-3.5.461-3.5 2.077Zm5.25-4.827a1.75 1.75 0 1 1-3.5 0 1.75 1.75 0 0 1 3.5 0Z"/></svg>
