<svg xmlns="http://www.w3.org/2000/svg" width="20" height="20" fill="currentColor" viewBox="0 0 20 20"><path fill-rule="evenodd" d="M6 5a4 4 0 1 1 8 0 4 4 0 0 1-8 0Zm4-2.5a2.5 2.5 0 1 0 0 5 2.5 2.5 0 0 0 0-5Z" clip-rule="evenodd"/><path d="M9.578 11.232a.75.75 0 0 1-.69.806c-1.363.105-2.572.426-3.427.94C4.51 13.55 4 14.338 4 15.5c0 .46.144.668.25.767.12.113.353.233.75.233h3.81a.75.75 0 0 1 0 1.5H5c-.704 0-1.328-.218-1.777-.64-.449-.42-.723-1.045-.723-1.86 0-1.742.833-2.992 2.188-3.807 1.124-.676 2.587-1.036 4.084-1.15a.75.75 0 0 1 .806.69Z"/><path fill-rule="evenodd" d="m15.063 10.375.017.059c.094.318.187.636.716.94.63.171.937.002 1.223-.189.298-.198.387-.14.506-.024l.29.29c.132.132.185.185 0 .53l-.03.054c-.158.291-.317.582-.158 1.172.324.565.66.663.998.73.352.07.373.174.375.341v.41c0 .187 0 .262-.375.374l-.059.018c-.318.094-.636.187-.94.716-.172.63-.002.937.189 1.223.198.298.14.387.024.506l-.29.29c-.132.132-.185.185-.53 0l-.054-.03c-.291-.158-.582-.317-1.172-.158-.565.324-.663.66-.73.998-.07.352-.174.373-.341.375h-.41c-.187 0-.262 0-.374-.375l-.018-.059c-.094-.318-.187-.636-.716-.94-.63-.172-.937-.002-1.223.189-.298.198-.387.14-.506.024l-.29-.29c-.132-.132-.185-.185 0-.53l.03-.054c.158-.291.317-.582.158-1.172-.324-.565-.66-.663-.998-.73-.352-.07-.373-.174-.375-.341v-.41c0-.187 0-.262.375-.374l.059-.018c.318-.094.636-.187.94-.716.171-.63.002-.937-.189-1.223-.198-.298-.14-.387-.024-.506l.29-.29c.132-.132.185-.185.53 0l.054.03c.291.158.582.317 1.172.158.565-.324.663-.66.73-.998.07-.352.174-.373.341-.375h.41c.187 0 .262 0 .374.375Zm1.406 4.125a1.969 1.969 0 1 1-3.938 0 1.969 1.969 0 0 1 3.938 0Z" clip-rule="evenodd"/></svg>
