<svg xmlns="http://www.w3.org/2000/svg" width="20" height="20" fill="currentColor" viewBox="0 0 20 20"><path fill-rule="evenodd" d="M2.327 3.638C2 4.28 2 5.12 2 6.8v6.4c0 1.68 0 2.52.327 3.162a3 3 0 0 0 1.311 1.311C4.28 18 5.12 18 6.8 18h6.4c1.68 0 2.52 0 3.162-.327a3 3 0 0 0 1.311-1.311C18 15.72 18 14.88 18 13.2V6.8c0-1.68 0-2.52-.327-3.162a3 3 0 0 0-1.311-1.311C15.72 2 14.88 2 13.2 2H6.8c-1.68 0-2.52 0-3.162.327a3 3 0 0 0-1.311 1.311ZM10 6a2 2 0 1 1 .001 3.999A2 2 0 0 1 10 6Zm-4 7.498V13c0-1.75 2.665-2.25 4-2.25s4 .5 4 2.25v.498a.503.503 0 0 1-.502.502H6.503A.503.503 0 0 1 6 13.498Z" clip-rule="evenodd"/></svg>
