<svg fill="none" height="20" viewBox="0 0 20 20" width="20" xmlns="http://www.w3.org/2000/svg"><g stroke="currentColor" stroke-width="1.5"><path clip-rule="evenodd" d="m7.12777 2.75c-1.57064 0-2.15073.13703-2.72776.44563-.51922.27768-.9267.68516-1.20438 1.20438-.3086.57703-.44563 1.15712-.44563 2.72776v5.74443c0 1.5707.13703 2.1508.44563 2.7278.27768.5192.68516.9267 1.20438 1.2044.57703.3086 1.15712.4456 2.72776.4456h5.74443c1.5707 0 2.1508-.137 2.7278-.4456.5192-.2777.9267-.6852 1.2044-1.2044.3086-.577.4456-1.1571.4456-2.7278v-5.74443c0-1.57064-.137-2.15073-.4456-2.72776-.2777-.51922-.6852-.9267-1.2044-1.20438-.577-.3086-1.1571-.44563-2.7278-.44563z" fill-rule="evenodd"/><circle cx="10" cy="9" r="2.25"/><path d="m15.7547 16.75c-1.266-1.8135-3.3693-3-5.75-3-2.38069 0-4.48402 1.1865-5.75 3"/></g><path clip-rule="evenodd" d="m10 7.5c-.82843 0-1.5.67157-1.5 1.5s.67157 1.5 1.5 1.5c.8284 0 1.5-.67157 1.5-1.5s-.6716-1.5-1.5-1.5zm-3 1.5c0-1.65685 1.34315-3 3-3 1.6569 0 3 1.34315 3 3 0 1.6569-1.3431 3-3 3-1.65685 0-3-1.3431-3-3z" fill="currentColor" fill-rule="evenodd"/><path clip-rule="evenodd" d="m7.12777 2c-1.61028 0-2.34014.1378-3.08146.53427-.64992.34758-1.16446.86212-1.51204 1.51204-.39647.74132-.53427 1.47118-.53427 3.08146v5.74443c0 1.6103.1378 2.3402.53427 3.0815.34758.6499.86212 1.1645 1.51204 1.512.74132.3965 1.47118.5343 3.08146.5343h5.74443c1.6103 0 2.3402-.1378 3.0815-.5343.6499-.3475 1.1645-.8621 1.512-1.512.3965-.7413.5343-1.4712.5343-3.0815v-5.74443c0-1.61028-.1378-2.34014-.5343-3.08146-.3475-.64992-.8621-1.16446-1.512-1.51204-.7413-.39647-1.4712-.53427-3.0815-.53427zm5.74443 14.5c.7794 0 1.2735-.0353 1.6253-.0991-1.1377-1.173-2.7301-1.9009-4.4928-1.9009-1.76339 0-3.35642.7285-4.49422 1.9023.35127.0629.84381.0977 1.61729.0977zm-8.11849-12.64301c.41273-.22074.84306-.35699 2.37406-.35699h5.74443c1.531 0 1.9614.13625 2.3741.35699.3885.20778.6889.5082.8967.89672.2207.41273.357.84306.357 2.37406v5.74443c0 1.531-.1363 1.9614-.357 2.3741-.0816.1525-.1774.2915-.2872.4165-1.4211-1.6306-3.5155-2.6628-5.8511-2.6628-2.33814 0-4.43456 1.0345-5.85573 2.6682-.11183-.1265-.20925-.2672-.29198-.4219-.22074-.4127-.35699-.8431-.35699-2.3741v-5.74443c0-1.531.13625-1.96133.35699-2.37406.20778-.38852.5082-.68894.89672-.89672zm2.24629 5.14301c0-1.65685 1.34315-3 3-3 1.6569 0 3 1.34315 3 3 0 1.6569-1.3431 3-3 3-1.65685 0-3-1.3431-3-3zm3-1.5c-.82843 0-1.5.67157-1.5 1.5s.67157 1.5 1.5 1.5c.8284 0 1.5-.67157 1.5-1.5s-.6716-1.5-1.5-1.5z" fill="currentColor" fill-rule="evenodd"/></svg>
