<svg xmlns="http://www.w3.org/2000/svg" width="20" height="20" fill="currentColor" viewBox="0 0 20 20"><path fill-rule="evenodd" d="M10.016 5a3.555 3.555 0 0 1 3.555 3.553l-.005.184a3.555 3.555 0 0 1-3.55 3.371l-.182-.005A3.555 3.555 0 0 1 10.016 5Zm0 1.5a2.054 2.054 0 1 0 .002 4.109 2.054 2.054 0 0 0-.002-4.11Z" clip-rule="evenodd"/><path fill-rule="evenodd" d="M9.662 1.02c.224-.029.452-.029.677 0 .268.033.525.117.86.224l4.664 1.484.08.026c.316.1.653.205.917.421.23.188.406.431.516.706.126.317.126.67.125 1.001l-.001.085v5.69c0 2.44-1.313 4.309-2.75 5.621-1.437 1.312-3.072 2.139-3.905 2.512-.153.068-.318.146-.551.185-.176.03-.411.03-.587 0-.233-.04-.399-.117-.55-.185-.834-.373-2.469-1.2-3.906-2.512-1.437-1.312-2.751-3.18-2.751-5.62V4.882c-.001-.33-.001-.684.125-1a1.75 1.75 0 0 1 .515-.707c.264-.216.601-.322.917-.421l.08-.026 4.666-1.484c.334-.107.59-.191.859-.225Zm.36 13.171c-1.46 0-2.627.239-3.379.637a2.542 2.542 0 0 0-.437.289l.057.054c1.268 1.158 2.74 1.907 3.505 2.25.09.04.126.055.155.066a.238.238 0 0 0 .155 0 2.93 2.93 0 0 0 .154-.066c.766-.343 2.237-1.092 3.506-2.25l.075-.073a2.587 2.587 0 0 0-.415-.27c-.751-.398-1.917-.637-3.377-.637ZM9.846 2.507c-.1.013-.204.043-.59.165L4.594 4.159a7.35 7.35 0 0 0-.42.14.524.524 0 0 0-.082.039.25.25 0 0 0-.073.098.562.562 0 0 0-.01.09 7.091 7.091 0 0 0-.009.44v5.69c0 1.288.478 2.403 1.194 3.351.225-.194.477-.363.747-.506 1.055-.559 2.497-.81 4.08-.81 1.583 0 3.025.252 4.08.81.26.137.502.3.721.485.707-.944 1.178-2.051 1.178-3.33v-5.69c0-.22 0-.348-.007-.443a.57.57 0 0 0-.01-.089.25.25 0 0 0-.073-.098.525.525 0 0 0-.082-.039 7.356 7.356 0 0 0-.42-.14l-4.665-1.486c-.386-.122-.49-.152-.589-.165a1.252 1.252 0 0 0-.307 0Z" clip-rule="evenodd"/></svg>