<svg xmlns="http://www.w3.org/2000/svg" width="20" height="20" fill="currentColor" viewBox="0 0 20 20"><path d="M13.5 10.5c1.941 0 5.5.714 5.5 3.571 0 1.25-.323 1.429-.97 1.429l-4.738.001c.139-.4.208-.878.208-1.43 0-1.483-.592-2.62-1.555-3.436A9.413 9.413 0 0 1 13.5 10.5Zm-7 0c1.941 0 5.5.714 5.5 3.571 0 1.25-.323 1.429-.97 1.429H1.97c-.646 0-.97-.179-.97-1.429C1 11.214 4.559 10.5 6.5 10.5Zm0-6.5a2.5 2.5 0 1 1 .001 4.999A2.5 2.5 0 0 1 6.5 4Zm7 0a2.5 2.5 0 1 1 .001 4.999A2.5 2.5 0 0 1 13.5 4Z"/></svg>
