<svg xmlns="http://www.w3.org/2000/svg" width="20" height="20" fill="currentColor" viewBox="0 0 20 20"><path fill-rule="evenodd" d="M14.252 8.5a3.5 3.5 0 1 1-7 0 3.5 3.5 0 0 1 7 0Zm-1.5 0a2 2 0 1 1-4 0 2 2 0 0 1 4 0Z M2.998 6.58h.006v1.28h-.756a.75.75 0 1 0 0 1.5h.756v1.28h-.756a.75.75 0 0 0 0 1.5h.756v1.28h-.756a.75.75 0 0 0 0 1.5h.75a.742.742 0 0 0 .107-.008C3.505 16.682 5.042 18 6.878 18h7.748c2.14 0 3.874-1.79 3.874-4V6c0-2.21-1.735-4-3.874-4H6.878C5.042 2 3.505 3.318 3.105 5.088a.755.755 0 0 0-.107-.008h-.75a.75.75 0 1 0 0 1.5h.75ZM4.504 14c0 .388.082.75.227 1.071a10.185 10.185 0 0 1 12.039.008c.147-.323.23-.688.23-1.079V6c0-1.426-1.108-2.5-2.374-2.5H6.878C5.612 3.5 4.504 4.574 4.504 6v8Zm6.24.608a8.68 8.68 0 0 1 5.01 1.59c-.34.194-.726.302-1.128.302H6.878c-.406 0-.795-.11-1.137-.307a8.679 8.679 0 0 1 5.003-1.585Z" clip-rule="evenodd"/></svg>
