<svg fill="none" height="20" viewBox="0 0 20 20" width="20" xmlns="http://www.w3.org/2000/svg"><path clip-rule="evenodd" d="m10 7.75c-.69035 0-1.25-.55964-1.25-1.25s.55965-1.25 1.25-1.25c.6904 0 1.25.55964 1.25 1.25s-.5596 1.25-1.25 1.25zm-2.75-1.25c0-1.51878 1.23122-2.75 2.75-2.75 1.5188 0 2.75 1.23122 2.75 2.75s-1.2312 2.75-2.75 2.75c-1.51878 0-2.75-1.23122-2.75-2.75zm-.5 7.25c0-.416.23146-.8281.79622-1.1719.57279-.3486 1.42871-.5781 2.45378-.5781 1.0251 0 1.881.2295 2.4538.5781.5648.3438.7962.7559.7962 1.1719 0 .2928-.0995.4441-.2185.5393-.1416.1133-.3959.2107-.7815.2107h-4.5c-.3856 0-.63988-.0974-.78147-.2107-.11907-.0952-.21853-.2465-.21853-.5393zm3.25-3.25c-1.22492 0-2.369.2705-3.23371.7969-.87274.5312-1.51629 1.3691-1.51629 2.4531 0 .7072.27555 1.3059.78148 1.7107.48341.3867 1.10413.5393 1.71852.5393h4.5c.6144 0 1.2351-.1526 1.7185-.5393.506-.4048.7815-1.0035.7815-1.7107 0-1.084-.6435-1.9219-1.5163-2.4531-.8647-.5264-2.0088-.7969-3.2337-.7969zm4.0059-5.58802c.0583-.41009.438-.69529.8481-.637 1.2133.17245 2.146 1.21418 2.146 2.47503 0 1.38072-1.1193 2.5-2.5 2.5-.4142 0-.75-.33578-.75-.75 0-.41421.3358-.75.75-.75.5523 0 1-.44771 1-1 0-.50344-.3727-.92112-.8571-.98996-.4101-.05828-.6953-.43798-.637-.84807zm1.7429 5.08802c-.4142 0-.75.3358-.75.75s.3358.75.75.75c1.1585 0 1.7511.6726 1.7511 1.25 0 .2164-.0737.415-.1855.5474-.1.1184-.243.2026-.4644.2026-.4142 0-.75.3358-.75.75s.3358.75.75.75c1.4281 0 2.1499-1.2097 2.1499-2.25 0-1.7116-1.6072-2.75-3.2511-2.75zm-10.7488.75c0-.4142-.33578-.75-.75-.75-1.64389 0-3.251099 1.0384-3.251099 2.75 0 1.0403.721739 2.25 2.149879 2.25.41422 0 .75-.3358.75-.75s-.33578-.75-.75-.75c-.22142 0-.36439-.0842-.46438-.2026-.11184-.1324-.1855-.331-.1855-.5474 0-.5774.59256-1.25 1.7511-1.25.41422 0 .75-.3358.75-.75zm.14232-6.4745c.41-.05889.79012.22573.84902.63574.0589.41-.22573.79012-.63573.84902-.48363.06948-.85561.48682-.85561.98975 0 .55229.44772 1 1 1 .41422 0 .75.33579.75.75 0 .41422-.33578.75-.75.75-1.38071 0-2.5-1.11929-2.5-2.5 0-1.25958.93081-2.30047 2.14232-2.47451z" fill="currentColor" fill-rule="evenodd"/></svg>
