<svg xmlns="http://www.w3.org/2000/svg" width="20" height="20" fill="currentColor" viewBox="0 0 20 20"><path fill-rule="evenodd" d="M3.327 3.138C3 3.78 3 4.62 3 6.3v7.4c0 1.68 0 2.52.327 3.162a3 3 0 0 0 1.311 1.311c.642.327 1.482.327 3.162.327h4.4c1.68 0 2.52 0 3.162-.327a3 3 0 0 0 1.311-1.311C17 16.22 17 15.38 17 13.7V6.3c0-1.68 0-2.52-.327-3.162a3 3 0 0 0-1.311-1.311C14.72 1.5 13.88 1.5 12.2 1.5H7.8c-1.68 0-2.52 0-3.162.327a3 3 0 0 0-1.311 1.311ZM10 6a2 2 0 1 1 .001 3.999A2 2 0 0 1 10 6Zm-4 7.498V13c0-1.75 2.665-2.25 4-2.25s4 .5 4 2.25v.498a.503.503 0 0 1-.502.502H6.503A.503.503 0 0 1 6 13.498Z" clip-rule="evenodd"/></svg>
