<svg xmlns="http://www.w3.org/2000/svg" width="20" height="20" fill="currentColor" viewBox="0 0 20 20"><path fill-rule="evenodd" d="M12.732 11.483a.75.75 0 0 1 .935-.501 7.257 7.257 0 0 1 1.646.711c1.178.709 1.979 1.757 2.152 3.205a.75.75 0 0 1-1.49.178c-.11-.919-.59-1.589-1.436-2.097a5.762 5.762 0 0 0-1.305-.561.75.75 0 0 1-.502-.935ZM6 5a4 4 0 1 1 4 4 .75.75 0 0 1 0-1.5A2.5 2.5 0 1 0 7.5 5 .75.75 0 0 1 6 5ZM3.223 17.36c.449.422 1.073.64 1.777.64h9.44l.78.78a.75.75 0 1 0 1.06-1.06L3.78 5.22a.75.75 0 0 0-1.06 1.06l4.482 4.483c-.948.195-1.802.502-2.514.93C3.333 12.508 2.5 13.758 2.5 15.5c0 .815.274 1.44.723 1.86Zm2.238-4.381C4.51 13.55 4 14.337 4 15.5c0 .46.144.668.25.767.12.113.353.233.75.233h7.94l-4.424-4.424c-1.269.137-2.306.452-3.055.903Z" clip-rule="evenodd"/></svg>
