<svg xmlns="http://www.w3.org/2000/svg" width="20" height="20" fill="currentColor" viewBox="0 0 20 20"><path fill-rule="evenodd" d="M10.2 3h-.4c-1.215 0-2.036.001-2.67.053-.615.05-.92.14-1.128.247A2.75 2.75 0 0 0 4.8 4.502c-.106.207-.197.513-.247 1.129C4.5 6.264 4.5 7.085 4.5 8.3v3.4c0 1.215.001 2.036.053 2.67.05.615.14.92.247 1.129A2.75 2.75 0 0 0 6.002 16.7c.207.106.513.197 1.129.247C7.764 17 8.585 17 9.8 17h.4c1.215 0 2.036-.001 2.67-.053.615-.05.92-.14 1.129-.247a2.751 2.751 0 0 0 1.201-1.2c.106-.208.197-.514.247-1.13.052-.633.053-1.454.053-2.669V8.3c0-1.215-.001-2.036-.053-2.67-.05-.615-.14-.92-.247-1.128A2.75 2.75 0 0 0 14 3.3c-.208-.106-.514-.197-1.13-.247C12.236 3 11.415 3 10.2 3Zm-6.737.82C3 4.73 3 5.92 3 8.3v3.4c0 2.38 0 3.57.463 4.48a4.25 4.25 0 0 0 1.858 1.857c.909.463 2.099.463 4.479.463h.4c2.38 0 3.57 0 4.48-.463a4.251 4.251 0 0 0 1.857-1.857c.463-.91.463-2.1.463-4.48V8.3c0-2.38 0-3.57-.463-4.48a4.25 4.25 0 0 0-1.857-1.857c-.91-.463-2.1-.463-4.48-.463h-.4c-2.38 0-3.57 0-4.48.463a4.25 4.25 0 0 0-1.857 1.858Z" clip-rule="evenodd"/></svg>
