<svg width="20" height="20" viewBox="0 0 20 20" fill="none" xmlns="http://www.w3.org/2000/svg"><path d="M1.5 8.8c0-1.68 0-2.52.327-3.162a3 3 0 011.311-1.311C3.78 4 4.62 4 6.3 4h3.9c1.68 0 2.52 0 3.162.327a3 3 0 011.311 1.311C15 6.28 15 7.12 15 8.8v2.4c0 1.68 0 2.52-.327 3.162a3 3 0 01-1.311 1.311C12.72 16 11.88 16 10.2 16H6.3c-1.68 0-2.52 0-3.162-.327a3 3 0 01-1.311-1.311C1.5 13.72 1.5 12.88 1.5 11.2V8.8zM19.132 6.576l-2.38 1.329a.487.487 0 00-.252.424v3.342c0 .175.096.337.252.424l2.38 1.33c.387.215.868-.057.868-.493V7.068c0-.436-.481-.708-.868-.492z" fill="currentColor"/></svg>
