<svg xmlns="http://www.w3.org/2000/svg" width="20" height="20" fill="currentColor" viewBox="0 0 20 20"><path fill-rule="evenodd" d="M8.317 2h2.931a.75.75 0 0 1 0 1.5H8.35c-.992 0-1.692 0-2.238.045-.537.044-.86.127-1.11.255A2.75 2.75 0 0 0 3.8 5.002c-.128.25-.21.573-.255 1.11-.044.546-.045 1.246-.045 2.238v3.3c0 .992 0 1.692.045 2.238.044.537.127.86.255 1.11A2.75 2.75 0 0 0 5.002 16.2c.25.128.573.21 1.11.255.546.044 1.246.045 2.238.045h3.3c.992 0 1.692 0 2.238-.045.537-.044.86-.127 1.11-.255A2.751 2.751 0 0 0 16.2 15c.128-.252.21-.574.255-1.111.044-.546.045-1.245.045-2.238V8.749a.75.75 0 0 1 1.5 0v2.934c0 .952 0 1.713-.05 2.327-.052.63-.16 1.172-.413 1.67a4.251 4.251 0 0 1-1.857 1.857c-.498.253-1.04.361-1.67.413-.614.05-1.375.05-2.327.05H8.317c-.952 0-1.713 0-2.327-.05-.63-.052-1.172-.16-1.67-.413a4.25 4.25 0 0 1-1.857-1.857c-.253-.498-.361-1.04-.413-1.67C2 13.396 2 12.635 2 11.683V8.317c0-.952 0-1.713.05-2.327.052-.63.16-1.172.413-1.67a4.25 4.25 0 0 1 1.858-1.857c.497-.253 1.04-.361 1.67-.413C6.603 2 7.364 2 8.316 2Z M16.1 1a.75.75 0 0 1 .75.75v1.4h1.4a.75.75 0 0 1 0 1.5h-1.4v1.6a.75.75 0 0 1-1.5 0v-1.6h-1.6a.75.75 0 0 1 0-1.5h1.6v-1.4A.75.75 0 0 1 16.1 1ZM8.706 8.045a.149.149 0 0 0-.025.06 9.732 9.732 0 0 0 .008 3.79c.006.03.016.048.025.06.01.014.022.024.035.032a.094.094 0 0 0 .038.013.1.1 0 0 0 .046-.008 9.392 9.392 0 0 0 3.119-1.882.146.146 0 0 0 0-.217 9.39 9.39 0 0 0-3.127-1.885A.102.102 0 0 0 8.78 8a.094.094 0 0 0-.037.013.114.114 0 0 0-.036.032Zm.628-1.449a1.607 1.607 0 0 0-2.124 1.22 11.232 11.232 0 0 0 .008 4.374 1.607 1.607 0 0 0 2.125 1.213 10.892 10.892 0 0 0 3.617-2.183c.72-.653.72-1.784 0-2.438a10.892 10.892 0 0 0-3.626-2.186Z" clip-rule="evenodd"/></svg>
