<svg xmlns="http://www.w3.org/2000/svg" width="20" height="20" fill="currentColor" viewBox="0 0 20 20"><path fill-rule="evenodd" d="M1.5 9.6c0-1.96 0-2.94.381-3.689a3.5 3.5 0 0 1 1.53-1.53C4.16 4 5.14 4 7.1 4h1.8c1.96 0 2.94 0 3.689.381a3.5 3.5 0 0 1 1.53 1.53c.169.332.263.71.315 1.197L15.76 6.06C17.071 5.024 19 5.958 19 7.63v4.74c0 1.672-1.929 2.606-3.24 1.57l-1.326-1.048c-.052.488-.146.865-.316 1.197a3.5 3.5 0 0 1-1.529 1.53C11.84 16 10.86 16 8.9 16H7.1c-1.96 0-2.94 0-3.689-.382a3.5 3.5 0 0 1-1.53-1.529C1.5 13.34 1.5 12.36 1.5 10.4v-.8Zm5.6-4.1h1.8c1.005 0 1.668.001 2.177.043.49.04.703.11.831.175a2 2 0 0 1 .874.874c.065.128.135.34.175.831C13 7.932 13 8.595 13 9.6v.8c0 1.005-.001 1.668-.043 2.177-.04.49-.11.703-.175.831a2 2 0 0 1-.874.874c-.128.065-.34.135-.831.175-.509.042-1.172.043-2.177.043H7.1c-1.005 0-1.668-.001-2.177-.043-.49-.04-.703-.11-.831-.175a2 2 0 0 1-.874-.874c-.065-.128-.135-.34-.175-.831C3 12.068 3 11.405 3 10.4v-.8c0-1.005.001-1.668.043-2.177.04-.49.11-.703.175-.831a2 2 0 0 1 .874-.874c.128-.065.34-.135.831-.175C5.432 5.5 6.095 5.5 7.1 5.5Zm7.59 3.318 2-1.58a.5.5 0 0 1 .81.392v4.74a.5.5 0 0 1-.81.393l-2-1.58a.5.5 0 0 1-.19-.393V9.21a.5.5 0 0 1 .19-.392Z" clip-rule="evenodd"/></svg>
