<svg fill="none" height="20" viewBox="0 0 20 20" width="20" xmlns="http://www.w3.org/2000/svg"><path clip-rule="evenodd" d="m12.0556 1.5c.6524-.00003 1.23-.00005 1.7085.03905.5097.04164 1.0378.13499 1.5519.39693.7526.38349 1.3645.99541 1.748 1.74806.262.51409.3553 1.04218.397 1.55182.0391.4786.039 1.05608.039 1.7086v6.11114c0 .6525.0001 1.23-.039 1.7085-.0417.5097-.135 1.0378-.397 1.5519-.3835.7526-.9954 1.3645-1.748 1.748-.5141.262-1.0422.3553-1.5519.397-.4785.0391-1.056.039-1.7085.039h-4.11114c-.65252 0-1.23.0001-1.7086-.039-.50964-.0417-1.03773-.135-1.55182-.397-.75265-.3835-1.36457-.9954-1.74806-1.748-.26194-.5141-.35529-1.0422-.39693-1.5519-.0391-.4785-.03908-1.056-.03905-1.7085v-6.11115c-.00003-.65248-.00005-1.23001.03905-1.70859.04164-.50964.13499-1.03773.39693-1.55182.38349-.75265.99541-1.36457 1.74806-1.74806.51409-.26194 1.04218-.35529 1.55182-.39693.47858-.0391 1.05603-.03908 1.70851-.03905zm-7.78311 2.86503c-.27248.53478-.27248 1.23484-.27248 2.63497v6c0 1.4001 0 2.1002.27248 2.635.23968.4704.62213.8528 1.09254 1.0925.53478.2725 1.23484.2725 2.63497.2725h4c1.4001 0 2.1002 0 2.635-.2725.4704-.2397.8528-.6221 1.0925-1.0925.2725-.5348.2725-1.2349.2725-2.635v-6c0-1.40013 0-2.10019-.2725-2.63497-.2397-.47041-.6221-.85286-1.0925-1.09254-.5348-.27248-1.2349-.27248-2.635-.27248h-4c-1.40013 0-2.10019 0-2.63497.27248-.47041.23968-.85286.62213-1.09254 1.09254zm1.72751 9.63497c0-.3264 0-.4895.05727-.6168.06518-.1448.18113-.2608.32596-.3259.12724-.0573.29042-.0573.61677-.0573s.48953 0 .61677.0573c.14483.0651.26078.1811.32597.3259.05726.1273.05726.2904.05726.6168s0 .4895-.05726.6168c-.06519.1448-.18114.2608-.32597.3259-.12724.0573-.29042.0573-.61677.0573s-.48953 0-.61677-.0573c-.14483-.0651-.26078-.1811-.32596-.3259-.05727-.1273-.05727-.2904-.05727-.6168zm.05727-4.61677c-.05727.12724-.05727.29042-.05727.61677 0 .3264 0 .4895.05727.6168.06518.1448.18113.2608.32596.3259.12724.0573.29042.0573.61677.0573s.48953 0 .61677-.0573c.14483-.0651.26078-.1811.32597-.3259.05726-.1273.05726-.2904.05726-.6168 0-.32635 0-.48953-.05726-.61677-.06519-.14483-.18114-.26078-.32597-.32596-.12724-.05727-.29042-.05727-.61677-.05727s-.48953 0-.61677.05727c-.14483.06518-.26078.18113-.32596.32596zm5.94273-3.38323c0-.32635 0-.48953.0573-.61677.0651-.14483.1811-.26078.3259-.32596.1273-.05727.2904-.05727.6168-.05727s.4895 0 .6168.05727c.1448.06518.2608.18113.3259.32596.0573.12724.0573.29042.0573.61677s0 .48953-.0573.61677c-.0651.14483-.1811.26078-.3259.32597-.1273.05726-.2904.05726-.6168.05726s-.4895 0-.6168-.05726c-.1448-.06519-.2608-.18114-.3259-.32597-.0573-.12724-.0573-.29042-.0573-.61677zm.0573 7.3832c-.0573.1273-.0573.2904-.0573.6168s0 .4895.0573.6168c.0651.1448.1811.2608.3259.3259.1273.0573.2904.0573.6168.0573s.4895 0 .6168-.0573c.1448-.0651.2608-.1811.3259-.3259.0573-.1273.0573-.2904.0573-.6168s0-.4895-.0573-.6168c-.0651-.1448-.1811-.2608-.3259-.3259-.1273-.0573-.2904-.0573-.6168-.0573s-.4895 0-.6168.0573c-.1448.0651-.2608.1811-.3259.3259zm-.0573-3.3832c0-.32635 0-.48953.0573-.61677.0651-.14483.1811-.26078.3259-.32596.1273-.05727.2904-.05727.6168-.05727s.4895 0 .6168.05727c.1448.06518.2608.18113.3259.32596.0573.12724.0573.29042.0573.61677 0 .3264 0 .4895-.0573.6168-.0651.1448-.1811.2608-.3259.3259-.1273.0573-.2904.0573-.6168.0573s-.4895 0-.6168-.0573c-.1448-.0651-.2608-.1811-.3259-.3259-.0573-.1273-.0573-.2904-.0573-.6168zm-5.94273-4.61677c-.05727.12724-.05727.29042-.05727.61677s0 .48953.05727.61677c.06518.14483.18113.26078.32596.32597.12724.05726.29042.05726.61677.05726s.48953 0 .61677-.05726c.14483-.06519.26078-.18114.32597-.32597.05726-.12724.05726-.29042.05726-.61677s0-.48953-.05726-.61677c-.06519-.14483-.18114-.26078-.32597-.32596-.12724-.05727-.29042-.05727-.61677-.05727s-.48953 0-.61677.05727c-.14483.06518-.26078.18113-.32596.32596z" fill="currentColor" fill-rule="evenodd"/></svg>
