<svg xmlns="http://www.w3.org/2000/svg" width="20" height="20" fill="currentColor" viewBox="0 0 20 20"><path fill-rule="evenodd" d="M1.22 3.22a.75.75 0 0 1 1.06 0l13.5 13.5a.75.75 0 1 1-1.06 1.06l-2.152-2.151C11.822 16 10.842 16 8.9 16H7.1c-1.96 0-2.94 0-3.689-.382a3.5 3.5 0 0 1-1.53-1.529C1.5 13.34 1.5 12.36 1.5 10.4v-.8c0-1.96 0-2.94.381-3.689a3.5 3.5 0 0 1 .38-.59L1.22 4.281a.75.75 0 0 1 0-1.061Zm1.998 3.372c.035-.068.073-.134.116-.198l8.032 8.032a5.29 5.29 0 0 1-.29.031c-.508.042-1.171.043-2.176.043H7.1c-1.005 0-1.668-.001-2.177-.043-.49-.04-.703-.11-.831-.175a2 2 0 0 1-.874-.874c-.065-.128-.135-.34-.175-.831C3 12.068 3 11.405 3 10.4v-.8c0-1.005.001-1.668.043-2.177.04-.49.11-.703.175-.831Zm7.877-1.057c-.42-.034-.963-.035-1.745-.035H7A.75.75 0 0 1 7 4h2.382c.743 0 1.346 0 1.835.04.505.041.954.129 1.372.341a3.5 3.5 0 0 1 1.53 1.53c.186.367.277.758.324 1.19l1.317-1.04C17.071 5.023 19 5.957 19 7.63v4.74c0 1.672-1.929 2.606-3.24 1.57l-2-1.58a2 2 0 0 1-.76-1.51v-1.7c0-.782 0-1.324-.035-1.745-.034-.412-.096-.642-.183-.813a2 2 0 0 0-.874-.874c-.17-.087-.4-.15-.813-.183Zm3.595 3.283 2-1.58a.5.5 0 0 1 .81.392v4.74a.5.5 0 0 1-.81.393l-2-1.58a.5.5 0 0 1-.19-.393V9.21a.5.5 0 0 1 .19-.392Z" clip-rule="evenodd"/></svg>
