<svg xmlns="http://www.w3.org/2000/svg" width="20" height="20" fill="none" viewBox="0 0 20 20"><path fill="currentColor" fill-rule="evenodd" d="M10 7.5a2.4922 2.4922 0 0 0-1.7678.7322A2.4922 2.4922 0 0 0 7.5 10c0 .6904.2798 1.3154.7322 1.7678A2.4922 2.4922 0 0 0 10 12.5a2.4922 2.4922 0 0 0 1.7678-.7322A2.4922 2.4922 0 0 0 12.5 10a2.4922 2.4922 0 0 0-.7322-1.7678A2.4922 2.4922 0 0 0 10 7.5Zm-.7071 1.7929A.9922.9922 0 0 1 10 9a.9921.9921 0 0 1 .7071.2929A.9923.9923 0 0 1 11 10a.9921.9921 0 0 1-.2929.7071A.9921.9921 0 0 1 10 11a.9923.9923 0 0 1-.7071-.2929A.9921.9921 0 0 1 9 10a.9922.9922 0 0 1 .2929-.7071Z" clip-rule="evenodd"/><path fill="currentColor" d="M10.2093 6.0055a3.9999 3.9999 0 0 0-4.204 4.1997.75.75 0 0 1-.7106.7874.7499.7499 0 0 1-.7875-.7105 5.5 5.5 0 0 1 5.7806-5.7746.75.75 0 0 1-.0785 1.498Zm5.2835 3.7124a.75.75 0 0 0-1.498.077 4 4 0 0 1-4.2041 4.1996.75.75 0 0 0-.0785 1.498 5.4995 5.4995 0 0 0 4.1749-1.6014 5.5 5.5 0 0 0 1.6057-4.1732Z"/><path fill="currentColor" fill-rule="evenodd" d="M10 1.5c-2.3472 0-4.4722.9514-6.0104 2.4896C2.4514 5.5278 1.5 7.6528 1.5 10s.9514 4.4722 2.4896 6.0104C5.5278 17.5486 7.6528 18.5 10 18.5s4.4722-.9514 6.0104-2.4896C17.5486 14.4722 18.5 12.3472 18.5 10s-.9514-4.4722-2.4896-6.0104C14.4722 2.4514 12.3472 1.5 10 1.5ZM5.0503 5.0503C6.3186 3.7819 8.0665 3 10 3c1.9334 0 3.6814.7819 4.9497 2.0503C16.2181 6.3186 17 8.0665 17 10c0 1.9334-.7819 3.6814-2.0503 4.9497C13.6814 16.2181 11.9334 17 10 17c-1.9334 0-3.6814-.7819-4.9497-2.0503C3.7819 13.6814 3 11.9334 3 10c0-1.9334.7819-3.6814 2.0503-4.9497Z" clip-rule="evenodd"/></svg>
