<svg fill="none" height="20" viewBox="0 0 20 20" width="20" xmlns="http://www.w3.org/2000/svg"><path clip-rule="evenodd" d="m11.15 17.35c0-.3486-.1551-.6609-.4-.8718v-1.0289c.4139-.0564.8132-.1589 1.1924-.3021l.4908.9034c-.1146.3022-.1018.6507.0646.957.3032.5581 1.0014.7648 1.5595.4616s.7647-1.0013.4616-1.5595c-.1664-.3062-.4518-.5067-.7676-.5751l-.4913-.9044c.4079-.3007.7729-.6564 1.0839-1.0562l.8914.5147c.0602.3175.2531.608.555.7823.55.3175 1.2533.1291 1.5709-.421.3176-.55.1291-1.2533-.4209-1.5709-.3019-.1743-.6499-.1961-.955-.0895l-.8904-.514c.1707-.4186.2913-.863.3544-1.3256h1.0289c.2109.2449.5232.4.8718.4.6351 0 1.15-.5149 1.15-1.15 0-.63512-.5149-1.14999-1.15-1.14999-.3486 0-.6609.15507-.8718.4h-1.0289c-.0631-.46262-.1837-.90694-.3544-1.3255l.8904-.51405c.3051.10666.6531.08479.955-.08949.55-.31757.7385-1.0209.4209-1.57093-.3176-.55004-1.0209-.7385-1.5709-.42093-.3019.17428-.4948.46475-.555.78231l-.8914.51465c-.2817-.36218-.6078-.6882-.9699-.96992l.5146-.89139c.3176-.06018.608-.25314.7823-.55501.3176-.55004.1291-1.25336-.4209-1.57093-.55-.31756-1.2534-.12911-1.5709.42093-.1743.30187-.1962.6499-.0895.95501l-.5141.89034c-.4185-.1707-.8629-.2913-1.3255-.35438v-1.02892c.2449-.21089.4-.52324.4-.8718 0-.63513-.5149-1.15-1.15-1.15-.63513 0-1.15.51487-1.15 1.15 0 .34856.15507.66091.4.8718v1.02892c-.41392.05643-.81318.15892-1.19246.30213l-.49071-.90337c.11456-.30222.10174-.65071-.06464-.957-.30317-.55811-1.00136-.76478-1.55946-.46161-.55811.30316-.76478 1.00135-.46161 1.55946.16638.30629.45174.50673.76762.57514l.49126.90437c-.40798.30072-.77292.65644-1.08388 1.05623l-.8914-.51465c-.06018-.31756-.25314-.60803-.55501-.78231-.55003-.31757-1.25336-.12911-1.57093.42093-.31756.55003-.1291 1.25336.42093 1.57093.30187.17428.64991.19615.95501.08949l.89035.51405c-.17068.41856-.29128.86288-.35436 1.3255h-1.0289c-.2109-.24493-.52324-.4-.87181-.4-.63513 0-1.15.51487-1.15 1.14999 0 .6351.51487 1.15 1.15 1.15.34857 0 .66091-.1551.87181-.4h1.0289c.06308.4626.18369.907.35438 1.3256l-.89037.514c-.3051-.1066-.65314-.0848-.95501.0895-.55003.3176-.73849 1.0209-.42093 1.5709.31757.5501 1.0209.7385 1.57093.421.30187-.1743.49483-.4648.55501-.7823l.89143-.5147c.28171.3622.60773.6882.9699.9699l-.51467.8914c-.31755.0602-.60803.2532-.78231.555-.31756.5501-.12911 1.2534.42093 1.571.55004.3175 1.25336.1291 1.57093-.421.17428-.3018.19615-.6499.08949-.955l.51407-.8904c.41857.1707.86289.2913 1.32551.3544v1.0289c-.24493.2109-.4.5232-.4.8718 0 .6351.51487 1.15 1.15 1.15.6351 0 1.15-.5149 1.15-1.15zm-1.1407-3.35h-.01856c-.69832-.0016-1.3546-.1821-1.92543-.4982l-.12419-.0717c-.56145-.3377-1.03318-.8094-1.37098-1.3707l-.07224-.1252c-.31728-.5732-.4979-1.2326-.4979-1.9342 0-.70099.18032-1.35987.49711-1.93278l.07388-.12796c.35425-.5882.85557-1.07781 1.45306-1.41792l.13953-.0758c.54995-.28471 1.1744-.44553 1.83642-.44553.7008 0 1.3595.18022 1.9323.49685l.1289.07441c.56.33734 1.0305.80798 1.3678 1.36799l.0739.12796c.3168.57291.4971 1.23179.4971 1.93278 0 .7016-.1806 1.361-.4979 1.9342l-.0722.1252c-.3548.5896-.8573 1.0802-1.4564 1.4207l-.1346.0731c-.548.2842-1.1701.4453-1.8296.4468z" fill="currentColor" fill-rule="evenodd"/></svg>
