<svg xmlns="http://www.w3.org/2000/svg" width="20" height="20" fill="none" viewBox="0 0 20 20">
  <rect width="20" height="20" fill="url(#a)" rx="10"/>
  <path fill="#fff" fill-rule="evenodd" d="M7.308 8.692c0-1.292 0-1.938.251-2.432a2.308 2.308 0 0 1 1.009-1.008C9.06 5 9.708 5 11 5c1.4 0 2.1 0 2.635.272a2.5 2.5 0 0 1 1.092 1.093C15 6.9 15 7.6 15 9v2c0 1.4 0 2.1-.273 2.635a2.5 2.5 0 0 1-1.092 1.092C13.1 15 12.4 15 11 15c-1.292 0-1.939 0-2.432-.252a2.308 2.308 0 0 1-1.009-1.008c-.251-.494-.251-1.14-.251-2.432V8.692Zm5.175.66c.348.208.522.313.581.448a.462.462 0 0 1 0 .37c-.059.135-.233.239-.58.448l-1.366.819c-.366.22-.549.33-.7.315a.462.462 0 0 1-.329-.186C10 11.444 10 11.23 10 10.803V9.166c0-.427 0-.64.09-.762a.462.462 0 0 1 .329-.187c.15-.014.333.096.7.316l1.364.818Zm-6.33-.737c0-1.4 0-2.1.273-2.635a2.5 2.5 0 0 1 .829-.937c-.366.037-.645.105-.89.23a2.5 2.5 0 0 0-1.093 1.092C5 6.9 5 7.6 5 9v2c0 1.4 0 2.1.272 2.635a2.5 2.5 0 0 0 1.093 1.092c.245.125.524.193.89.23a2.501 2.501 0 0 1-.829-.937c-.272-.535-.272-1.235-.272-2.635v-2.77Z" clip-rule="evenodd"/>
  <defs>
    <linearGradient id="a" x1="-10" x2="10" y1="10" y2="30" gradientUnits="userSpaceOnUse">
      <stop stop-color="#FF5263"/>
      <stop offset="1" stop-color="#FF3347"/>
    </linearGradient>
  </defs>
</svg>
