<svg xmlns="http://www.w3.org/2000/svg" width="20" height="20" fill="currentColor" viewBox="0 0 20 20"><path d="M12.037 8.557c.734-.378 1.581-.378 2.328.262.291.25.315.679.052.957a.736.736 0 0 1-1.004.05l-.071-.056c-.212-.15-.402-.138-.63-.02a.82.82 0 0 0-.125.076l-.07.053a.737.737 0 0 1-.934-.103.655.655 0 0 1 .052-.957c.089-.076.223-.17.402-.262ZM7.05 8a1.25 1.25 0 1 1 0 2.5 1.25 1.25 0 0 1 0-2.5Zm4.21 3.5c.442 0 .802.36.733.797a1.929 1.929 0 0 1-.09.38 2.14 2.14 0 0 1-.446.694 2.054 2.054 0 0 1-.669.465c-.25.107-.518.164-.788.164s-.538-.057-.788-.164a2.056 2.056 0 0 1-.669-.465 2.148 2.148 0 0 1-.446-.694 1.925 1.925 0 0 1-.09-.38c-.069-.437.291-.797.733-.797h2.52Z M1.5 7.245C1.508 4.078 4.077 1.5 7.25 1.5a.75.75 0 0 1 0 1.5A4.258 4.258 0 0 0 3 7.26a.75.75 0 0 1-1.5 0v-.015Zm0 5.51c.008 3.167 2.577 5.745 5.75 5.745a.75.75 0 0 0 0-1.5A4.258 4.258 0 0 1 3 12.74a.75.75 0 0 0-1.5 0v.015Zm17-5.51C18.492 4.078 15.922 1.5 12.75 1.5a.75.75 0 0 0 0 1.5C15.095 3 17 4.91 17 7.26a.75.75 0 0 0 1.5 0v-.015Zm0 5.51c-.008 3.167-2.578 5.745-5.75 5.745a.75.75 0 0 1 0-1.5c2.345 0 4.25-1.91 4.25-4.26a.75.75 0 0 1 1.5 0v.015Z" clip-rule="evenodd"/></svg>
