<svg xmlns="http://www.w3.org/2000/svg" width="20" height="20" fill="currentColor" viewBox="0 0 20 20"><path fill-rule="evenodd" d="M3.78 2.22a.75.75 0 0 0-1.06 1.06l3.03 3.032V9.25a4.25 4.25 0 0 0 6.525 3.59l1.08 1.08A5.723 5.723 0 0 1 10 15a5.77 5.77 0 0 1-4.643-2.359.75.75 0 0 0-1.207.89 7.283 7.283 0 0 0 5.1 2.931v1.788a.75.75 0 0 0 1.5 0v-1.787a7.215 7.215 0 0 0 3.677-1.47l1.793 1.793a.75.75 0 0 0 1.06-1.06L3.78 2.22Zm7.394 9.518L7.25 7.813V9.25a2.75 2.75 0 0 0 3.924 2.488Z M12.75 5.75v2.59a.75.75 0 0 0 1.5 0V5.75A4.25 4.25 0 0 0 7.261 2.5c-.338.285-.308.793.005 1.105.272.273.722.232 1.023-.008A2.75 2.75 0 0 1 12.75 5.75Z"/></svg>
