<svg xmlns="http://www.w3.org/2000/svg" width="20" height="20" fill="currentColor" viewBox="0 0 20 20"><path fill-rule="evenodd" d="M9.459 4.831c.198-.193.457-.309.731-.328v10.994a1.162 1.162 0 0 1-.731-.328l-3.741-3.66h-.002a.843.843 0 0 0-.573-.257c-.025-.002-.051-.002-.06-.002H4.01c-.32 0-.516 0-.661-.012a.582.582 0 0 1-.158-.026.35.35 0 0 1-.153-.153.582.582 0 0 1-.025-.158A9.22 9.22 0 0 1 3 10.24v-.48c0-.32 0-.516.013-.661a.583.583 0 0 1 .025-.158.35.35 0 0 1 .153-.153.582.582 0 0 1 .158-.026 9.86 9.86 0 0 1 .661-.012h1.073l.06-.001a.848.848 0 0 0 .573-.257l.002-.001 3.741-3.66ZM10.271 3c-.696 0-1.364.272-1.86.759L4.84 7.25h-.858c-.285 0-.542 0-.757.017-.23.02-.475.062-.716.185a1.85 1.85 0 0 0-.808.808 1.877 1.877 0 0 0-.185.716 9.921 9.921 0 0 0-.017.757v.534c0 .285 0 .542.017.757.02.23.062.475.185.716.177.348.46.631.808.808.241.123.487.166.716.184.215.018.472.018.757.018h.858l3.57 3.491a2.661 2.661 0 0 0 1.86.759c.784 0 1.419-.635 1.419-1.419V4.419c0-.784-.635-1.419-1.419-1.419Zm4.987 2.072a.75.75 0 0 1 1.06-.045A6.734 6.734 0 0 1 18.502 10c0 1.968-.843 3.74-2.186 4.973a.75.75 0 0 1-1.014-1.105 5.235 5.235 0 0 0 1.7-3.868c0-1.53-.654-2.907-1.7-3.868a.75.75 0 0 1-.045-1.06Zm-2.102 2.455a.75.75 0 0 1 1.055.11c.524.644.839 1.468.839 2.363s-.315 1.719-.839 2.364a.75.75 0 0 1-1.164-.946c.315-.387.503-.88.503-1.418 0-.538-.188-1.03-.503-1.418a.75.75 0 0 1 .11-1.055Z" clip-rule="evenodd"/></svg>
