<svg xmlns="http://www.w3.org/2000/svg" width="20" height="20" fill="currentColor" viewBox="0 0 20 20"><path d="M1.5 9.9v.2c0 .84 0 1.26.163 1.581a1.5 1.5 0 0 0 .656.655c.32.164.74.164 1.581.164h1.034a.2.2 0 0 1 .048.003.1.1 0 0 1 .029.012c.01.006.019.015.036.032l3.95 3.95c.322.322.759.503 1.215.503.711 0 1.288-.577 1.288-1.288V4.288C11.5 3.577 10.923 3 10.212 3c-.456 0-.893.181-1.215.503l-3.95 3.95a.214.214 0 0 1-.036.032.1.1 0 0 1-.03.012c-.01.003-.023.003-.047.003H3.9c-.84 0-1.26 0-1.581.163a1.5 1.5 0 0 0-.656.656c-.163.32-.163.74-.163 1.581Zm13.682-4.637a.75.75 0 0 1 1.057-.087C17.62 6.348 18.5 8.072 18.5 10s-.88 3.652-2.26 4.824a.75.75 0 0 1-.971-1.144C16.335 12.774 17 11.458 17 10c0-1.458-.664-2.774-1.732-3.68a.75.75 0 0 1-.086-1.057Z M13.184 7.26a.75.75 0 0 1 1.058-.077A3.715 3.715 0 0 1 15.504 10a3.715 3.715 0 0 1-1.262 2.817.75.75 0 0 1-.98-1.134A2.22 2.22 0 0 0 14.004 10c0-.694-.298-1.298-.743-1.683a.75.75 0 0 1-.077-1.057Z"/></svg>
