<svg xmlns="http://www.w3.org/2000/svg" width="20" height="20" fill="none" viewBox="0 0 20 20"><rect width="20" height="20" fill="url(#a)" rx="10"/><path fill="#fff" d="M8.962 8.602c.48-.125.68.037.744.135.079.12.167.458-.157 1.025-.544.952-.52 2.015.201 2.634.725.621 1.775.473 2.604-.217.637-.532 1.646-1.78 2.452-2.823.145-.187.217-.28.273-.304a.23.23 0 0 1 .29.099c.03.053.03.17.03.405v2.527c-.002.236-.016.45-.082.653a1.65 1.65 0 0 1-.347.596c-.191.21-.448.349-.74.514l-3.09 1.755c-.285.161-.53.307-.802.364a1.65 1.65 0 0 1-.676 0c-.272-.057-.517-.203-.801-.364l-3.092-1.755a3 3 0 0 1-.203-.127c-.182-.121-.273-.182-.327-.28a.5.5 0 0 1-.055-.28c.013-.11.08-.208.21-.403l.044-.064c.302-.445.718-1.041 1.175-1.646a19 19 0 0 1 1.399-1.68c.225-.233.43-.423.608-.56.187-.143.3-.192.342-.204m.7-4.567a1.65 1.65 0 0 1 .676 0c.272.057.517.203.801.365l3.092 1.755c.17.096.341.191.497.306.218.16.22.465.06.683-.27.366-.641.863-1.047 1.39-.834 1.08-1.75 2.193-2.25 2.61-.513.428-.805.28-.864.23-.06-.052-.26-.33.09-.944.476-.832.567-1.743.114-2.433-.47-.713-1.34-.924-2.208-.698-.3.078-.582.256-.823.44-.25.192-.507.433-.76.694-.503.524-1.03 1.177-1.502 1.802l-.253.34c-.214.292-.32.438-.41.454a.23.23 0 0 1-.212-.069c-.062-.066-.062-.245-.062-.604V7.918c.002-.236.015-.45.081-.653.073-.221.192-.424.348-.596.191-.21.448-.349.74-.514L8.86 4.4c.285-.161.53-.308.802-.365"/><defs><linearGradient id="a" x1="30" x2="10" y1="10" y2="-10" gradientUnits="userSpaceOnUse"><stop stop-color="#65c2c2"/><stop offset="1" stop-color="#86d1d1"/></linearGradient></defs></svg>