<svg xmlns="http://www.w3.org/2000/svg" width="20" height="20" fill="none" viewBox="0 0 20 20"><path fill="url(#a)" d="M0 10C0 4.4771 4.4771 0 10 0c5.5228 0 10 4.4771 10 10 0 5.5228-4.4772 10-10 10-5.5229 0-10-4.4772-10-10Z"/><path fill="#fff" d="M14.9786 12.7204c.0142.0921.0214.1853.0214.2796 0 1.6569-2.2386 3-5 3s-5-1.3431-5-3c0-.0943.0072-.1875.0214-.2796C6.1634 13.8022 7.9685 14.5 10 14.5c2.0206 0 3.8172-.6904 4.9597-1.7613l.0189-.0183Zm0-2.9988a1.83 1.83 0 0 1 .0214.2795c0 1.6569-2.2386 3-5 3s-5-1.3431-5-3c0-.0942.0072-.1875.0214-.2795C6.1634 10.8033 7.9685 11.501 10 11.501c2.0206 0 3.8172-.6903 4.9597-1.7613l.0189-.0182ZM10 4c2.7614 0 5 1.3431 5 3s-2.2386 3-5 3-5-1.3431-5-3 2.2386-3 5-3Z"/><defs><linearGradient id="a" x1="-10" x2="10" y1="10" y2="30" gradientUnits="userSpaceOnUse"><stop stop-color="#70B2FF"/><stop offset="1" stop-color="#5C9CE6"/></linearGradient></defs></svg>
