<svg xmlns="http://www.w3.org/2000/svg" width="20" height="20" fill="none" viewBox="0 0 20 20"><path fill="currentColor" d="M11 14c0 .5523-.4477 1-1 1s-1-.4477-1-1 .4477-1 1-1 1 .4477 1 1Z"/><path fill="currentColor" fill-rule="evenodd" d="M12.3757 3.3632c-.1576-.2709-.886-1.3622-2.3765-1.3622-1.4904 0-2.209 1.077-2.3749 1.3622L1.5231 13.852a2.759 2.759 0 0 0-.2093 2.327c.396 1.0935 1.4353 1.822 2.5994 1.822h12.1736c1.1641 0 2.2034-.7285 2.5994-1.822a2.759 2.759 0 0 0-.2093-2.327L12.3757 3.3632Zm3.7111 13.1393a1.2643 1.2643 0 0 0 1.1889-.8333 1.262 1.262 0 0 0-.0957-1.0643L11.0788 4.1161s-.3289-.6213-1.0796-.6213c-.7507 0-1.078.6213-1.078.6213L2.82 14.605a1.262 1.262 0 0 0-.0957 1.0643 1.2643 1.2643 0 0 0 1.1889.8333h12.1736Z" clip-rule="evenodd"/><path fill="currentColor" fill-rule="evenodd" d="M10 6a.75.75 0 0 1 .7499.75v4.5a.75.75 0 1 1-1.5 0v-4.5A.75.75 0 0 1 10 6Z" clip-rule="evenodd"/></svg>
