<svg xmlns="http://www.w3.org/2000/svg" width="20" height="20" fill="currentColor" viewBox="0 0 20 20"><path fill-rule="evenodd" d="M10.683 1.504H9.317c-.952 0-1.713 0-2.327.05-.63.052-1.172.16-1.67.414a4.25 4.25 0 0 0-1.857 1.857c-.253.498-.361 1.04-.413 1.67C3 6.109 3 6.869 3 7.822v4.365c0 .953 0 1.713.05 2.327.052.63.16 1.172.413 1.67a4.25 4.25 0 0 0 1.858 1.857c.497.254 1.04.362 1.67.413.613.05 1.374.05 2.326.05h1.366c.952 0 1.713 0 2.327-.05.63-.051 1.172-.16 1.67-.413a4.251 4.251 0 0 0 1.857-1.857c.253-.498.361-1.04.413-1.67.05-.614.05-1.374.05-2.327V7.822c0-.953 0-1.713-.05-2.327-.052-.63-.16-1.172-.413-1.67a4.25 4.25 0 0 0-1.857-1.857c-.498-.254-1.04-.362-1.67-.413-.614-.05-1.375-.05-2.327-.05Zm-4.681 1.8c.25-.128.573-.21 1.11-.254.546-.045 1.246-.046 2.238-.046h1.3c.992 0 1.692.001 2.238.046.537.043.86.126 1.11.254A2.75 2.75 0 0 1 15.2 4.506c.128.25.21.573.255 1.11.02.258.032.549.038.888H4.507c.006-.34.017-.63.038-.887.044-.538.127-.86.255-1.111a2.75 2.75 0 0 1 1.202-1.202ZM4.5 8.004v4.15c0 .993 0 1.692.045 2.238.044.537.127.86.255 1.11a2.75 2.75 0 0 0 1.202 1.203c.25.128.573.21 1.11.254.546.045 1.246.045 2.238.045h1.3c.992 0 1.692 0 2.238-.045.537-.044.86-.126 1.11-.254a2.751 2.751 0 0 0 1.202-1.202c.128-.251.21-.574.255-1.11.044-.547.045-1.246.045-2.239v-4.15h-11Z M10 11.004a1.5 1.5 0 1 0 0 3 1.5 1.5 0 0 0 0-3Zm-3 1.5a3 3 0 1 1 6 0 3 3 0 0 1-6 0Zm4.25-7.75a.75.75 0 0 1 .75-.75h1.25a.75.75 0 0 1 0 1.5H12a.75.75 0 0 1-.75-.75Zm-2.75.001a.75.75 0 1 1 1.5 0 .75.75 0 0 1-1.5 0Z" clip-rule="evenodd"/></svg>
