<svg fill="none" height="20" viewBox="0 0 20 20" width="20" xmlns="http://www.w3.org/2000/svg" xmlns:xlink="http://www.w3.org/1999/xlink"><clipPath id="a"><path d="m0 0h20v20h-20z"/></clipPath><g clip-path="url(#a)"><path clip-rule="evenodd" d="m17.7036 6.4077c1.984 4.2546.1433 9.3119-4.1113 11.2959-4.25462 1.9839-9.31195.1432-11.2959-4.1114-1.98395-4.25458-.14323-9.31192 4.11136-11.29586 4.25454-1.983951 9.31194-.14323 11.29584 4.11136zm-5.4418 10.2174-2.62455-5.6285-5.62844 2.6246c1.69604 2.8138 5.14512 4.0692 8.25299 3.0039zm-8.88692-4.3633 5.62844-2.62461-2.62458-5.62844c-2.81377 1.69604-4.06914 5.14512-3.00386 8.25305zm13.25022-4.52366c1.0653 3.10786-.19 6.55696-3.0038 8.25306l-2.6246-5.6285zm-.6339-1.35946-5.6284 2.62458-2.6246-5.62844c3.1079-1.06528 6.557.19008 8.253 3.00386z" fill="currentColor" fill-rule="evenodd"/></g></svg>
