<svg xmlns="http://www.w3.org/2000/svg" width="20" height="20" fill="currentColor" viewBox="0 0 20 20"><path fill-rule="evenodd" d="M9.875 2c-.544 0-.894.099-1.223.274a2.12 2.12 0 0 0-.878.878c-.07.133-.15.3-.204.56-.048.235-.07.525-.07.913 0 .544.099.894.274 1.223A2.135 2.135 0 0 0 9.212 6.93c.235.048.525.07.913.07.544 0 .894-.099 1.223-.274a2.12 2.12 0 0 0 .877-.878c.072-.133.151-.3.205-.56.048-.235.07-.525.07-.913 0-.544-.099-.894-.275-1.223a2.12 2.12 0 0 0-.877-.878 1.937 1.937 0 0 0-.56-.204A4.614 4.614 0 0 0 9.876 2ZM9.36 3.597a.66.66 0 0 1 .17-.066c.066-.016.17-.031.345-.031.343 0 .518.02.612.04a.46.46 0 0 1 .153.057.672.672 0 0 1 .329.433c.016.066.03.17.03.345 0 .343-.02.518-.039.612a.462.462 0 0 1-.057.153.621.621 0 0 1-.263.263.66.66 0 0 1-.17.066c-.066.016-.17.031-.345.031-.343 0-.518-.02-.612-.04a.46.46 0 0 1-.153-.057.62.62 0 0 1-.263-.263.66.66 0 0 1-.066-.17A1.508 1.508 0 0 1 9 4.626c0-.343.02-.518.04-.612a.46.46 0 0 1 .057-.153.62.62 0 0 1 .263-.263ZM3.152 7.774c.329-.175.68-.274 1.223-.274.388 0 .678.022.913.07a2.126 2.126 0 0 1 1.437 1.082c.176.329.275.68.275 1.223 0 .388-.022.678-.07.914a1.933 1.933 0 0 1-.205.559 2.12 2.12 0 0 1-.877.877c-.329.176-.68.275-1.223.275-.388 0-.678-.022-.914-.07a1.936 1.936 0 0 1-.559-.204 2.12 2.12 0 0 1-.878-.878C2.1 11.019 2 10.668 2 10.125c0-.388.022-.678.07-.914.053-.259.133-.426.204-.559a2.12 2.12 0 0 1 .878-.878Zm.877 1.257a.66.66 0 0 0-.17.066.62.62 0 0 0-.262.263.46.46 0 0 0-.057.153c-.02.094-.04.27-.04.612 0 .175.015.28.03.346a.69.69 0 0 0 .067.17.62.62 0 0 0 .263.262c.056.03.082.043.153.057.094.02.27.04.612.04.175 0 .28-.015.346-.03a.658.658 0 0 0 .17-.067.62.62 0 0 0 .262-.263.459.459 0 0 0 .057-.153c.02-.094.04-.27.04-.612 0-.175-.015-.28-.031-.346a.66.66 0 0 0-.066-.17.62.62 0 0 0-.263-.262.46.46 0 0 0-.153-.057c-.094-.02-.27-.04-.612-.04-.175 0-.28.015-.346.03Zm10.123-1.257c.329-.175.68-.274 1.223-.274.388 0 .678.022.913.07a2.126 2.126 0 0 1 1.437 1.082c.176.329.275.68.275 1.223 0 .388-.022.678-.07.914a1.933 1.933 0 0 1-.205.559 2.12 2.12 0 0 1-.877.877c-.329.176-.68.275-1.223.275-.388 0-.678-.022-.914-.07a1.937 1.937 0 0 1-.559-.204 2.12 2.12 0 0 1-.878-.878c-.175-.329-.274-.68-.274-1.223 0-.388.022-.678.07-.914a1.94 1.94 0 0 1 .204-.559 2.12 2.12 0 0 1 .878-.878Zm.877 1.257a.66.66 0 0 0-.17.066.62.62 0 0 0-.262.263.458.458 0 0 0-.057.153c-.02.094-.04.27-.04.612 0 .175.015.28.03.346a.69.69 0 0 0 .067.17.62.62 0 0 0 .263.262c.056.03.082.043.153.057.094.02.27.04.612.04.175 0 .28-.015.346-.03a.658.658 0 0 0 .17-.067.62.62 0 0 0 .262-.263.461.461 0 0 0 .057-.153c.02-.094.04-.27.04-.612 0-.175-.015-.28-.031-.346a.661.661 0 0 0-.066-.17.621.621 0 0 0-.263-.262.46.46 0 0 0-.153-.057c-.094-.02-.27-.04-.612-.04-.175 0-.28.015-.346.03Zm-6.377 4.243c.329-.175.68-.274 1.223-.274.388 0 .678.022.914.07a2.126 2.126 0 0 1 1.436 1.082c.176.329.275.68.275 1.223 0 .388-.022.678-.07.914a1.933 1.933 0 0 1-.205.559 2.12 2.12 0 0 1-.877.878c-.329.175-.68.274-1.223.274-.388 0-.678-.022-.914-.07a1.936 1.936 0 0 1-.559-.204 2.12 2.12 0 0 1-.878-.878c-.175-.329-.274-.68-.274-1.223 0-.388.022-.678.07-.914.053-.259.133-.426.204-.559a2.12 2.12 0 0 1 .878-.877Zm.877 1.257a.658.658 0 0 0-.17.066.62.62 0 0 0-.262.263.459.459 0 0 0-.057.153c-.02.094-.04.27-.04.612 0 .175.015.28.03.346a.69.69 0 0 0 .067.17.62.62 0 0 0 .263.262c.056.03.082.043.153.057.094.02.27.04.612.04.175 0 .28-.015.346-.03a.658.658 0 0 0 .17-.067.62.62 0 0 0 .262-.263.461.461 0 0 0 .057-.153c.02-.094.04-.27.04-.612 0-.175-.015-.28-.031-.346a.66.66 0 0 0-.066-.17.62.62 0 0 0-.263-.262.458.458 0 0 0-.153-.057c-.094-.02-.27-.04-.612-.04-.175 0-.28.015-.346.03Z M10.11 8.5h-.22c-.357 0-.58.056-.776.16a1.09 1.09 0 0 0-.454.454c-.104.195-.16.42-.16.776v.22c0 .357.056.58.16.776.105.196.258.35.454.454.195.104.42.16.776.16h.22c.357 0 .58-.056.776-.16a1.09 1.09 0 0 0 .454-.454c.104-.195.16-.42.16-.775V9.89c0-.357-.056-.58-.16-.776a1.09 1.09 0 0 0-.454-.454c-.195-.104-.42-.16-.776-.16ZM14.926 4h.148c.237 0 .386.037.517.107.13.07.232.172.302.302.07.13.107.28.107.517v.148c0 .237-.037.386-.107.517a.727.727 0 0 1-.302.302c-.13.07-.28.107-.517.107h-.148c-.237 0-.386-.037-.517-.107a.727.727 0 0 1-.302-.302c-.07-.13-.107-.28-.107-.517v-.148c0-.237.037-.386.107-.517a.727.727 0 0 1 .302-.302c.13-.07.28-.107.517-.107ZM5.074 4h-.148c-.237 0-.386.037-.517.107a.727.727 0 0 0-.302.302c-.07.13-.107.28-.107.517v.148c0 .237.037.386.107.517.07.13.172.232.302.302.13.07.28.107.517.107h.148c.237 0 .386-.037.517-.107a.727.727 0 0 0 .302-.302c.07-.13.107-.28.107-.517v-.148c0-.237-.037-.386-.107-.517a.727.727 0 0 0-.302-.302C5.46 4.037 5.31 4 5.074 4Zm-.148 10h.148c.237 0 .386.037.517.107.13.07.232.172.302.302.07.13.107.28.107.517v.148c0 .237-.037.386-.107.517a.727.727 0 0 1-.302.302c-.13.07-.28.107-.517.107h-.148c-.237 0-.386-.037-.517-.107a.727.727 0 0 1-.302-.302c-.07-.13-.107-.28-.107-.517v-.148c0-.237.037-.386.107-.517a.727.727 0 0 1 .302-.302c.13-.07.28-.107.517-.107Zm10.148 0h-.148c-.237 0-.386.037-.517.107a.726.726 0 0 0-.302.302c-.07.13-.107.28-.107.517v.148c0 .237.037.386.107.517.07.13.172.232.302.302.13.07.28.107.517.107h.148c.237 0 .386-.037.517-.107a.726.726 0 0 0 .302-.302c.07-.13.107-.28.107-.517v-.148c0-.237-.037-.386-.107-.517a.726.726 0 0 0-.302-.302c-.13-.07-.28-.107-.517-.107Z"/></svg>
