<svg xmlns="http://www.w3.org/2000/svg" width="20" height="20" fill="currentColor" viewBox="0 0 20 20"><path fill-rule="evenodd" d="M3.83 5.2a2.13 2.13 0 0 1 2.09-1.7c1.177 0 2.13.953 2.13 2.125A2.128 2.128 0 0 1 5.919 7.75H2.75a.75.75 0 0 0 0 1.5h3.17a3.628 3.628 0 0 0 3.63-3.625A3.628 3.628 0 0 0 5.919 2a3.63 3.63 0 0 0-3.558 2.9.75.75 0 1 0 1.47.3Zm8.405 3a2.148 2.148 0 0 1 2.111-1.7c1.197 0 2.154.959 2.154 2.125s-.956 2.124-2.152 2.125H2.75a.75.75 0 0 0 0 1.5h8.606c1.192.005 2.144.962 2.144 2.125 0 1.166-.957 2.125-2.154 2.125a2.148 2.148 0 0 1-2.111-1.7.75.75 0 0 0-1.47.3 3.648 3.648 0 0 0 3.581 2.9C13.356 18 15 16.384 15 14.375c0-.795-.257-1.529-.693-2.125h.193v-.003c1.94-.08 3.5-1.664 3.5-3.622C18 6.615 16.357 5 14.346 5a3.648 3.648 0 0 0-3.58 2.9.75.75 0 0 0 1.469.3Z" clip-rule="evenodd"/></svg>
