<svg xmlns="http://www.w3.org/2000/svg" width="20" height="20" fill="currentColor" viewBox="0 0 20 20"><path fill-rule="evenodd" d="M4.504 2h-.066c-.288 0-.602-.001-.914.12a1.87 1.87 0 0 0-.7.502c-.215.254-.303.516-.383.751l-.015.045A8.001 8.001 0 0 0 9.25 13.965V16.5H5.754a.75.75 0 0 0 0 1.5h8.496a.75.75 0 0 0 0-1.5h-3.5v-2.535a8 8 0 0 0 6.824-10.547l-.015-.045c-.08-.235-.168-.497-.383-.751a1.865 1.865 0 0 0-.7-.501c-.312-.122-.626-.121-.913-.12H4.503Zm-.446 1.525.014-.008h11.857l.013.008a.431.431 0 0 1 .077.055l.011.01c.009.01.015.02.029.05a6.49 6.49 0 0 1 .422 2.86H3.52a6.588 6.588 0 0 1 .327-2.598c.05-.148.073-.214.095-.262a.172.172 0 0 1 .029-.05l.01-.01a.445.445 0 0 1 .078-.055ZM3.814 8a6.503 6.503 0 0 0 12.372 0H3.814Z" clip-rule="evenodd"/></svg>
