<svg xmlns="http://www.w3.org/2000/svg" width="20" height="20" fill="currentColor" viewBox="0 0 20 20"><path fill-rule="evenodd" d="M2.88 16.766a2.997 2.997 0 0 1 0-4.24l2.138-2.137a.634.634 0 0 0 .161-.595A6.747 6.747 0 0 1 11.75 1.5c.829 0 1.622.149 2.355.422.38.14.457.623.17.91l-2.6 2.612a.6.6 0 0 0-.174.423V7.9a.6.6 0 0 0 .6.6h2.029a.6.6 0 0 0 .423-.175l2.616-2.603c.287-.286.769-.21.91.17a6.747 6.747 0 0 1-7.858 8.921.633.633 0 0 0-.592.162l-2.15 2.145a3.003 3.003 0 0 1-4.244 0l-.355-.355Zm8.87-3.278a5.247 5.247 0 0 0 5.245-5.478L15.61 9.39a2.1 2.1 0 0 1-1.48.61H12.1A2.1 2.1 0 0 1 10 7.9V5.867a2.1 2.1 0 0 1 .612-1.481l1.374-1.38A5.247 5.247 0 0 0 6.64 9.45a2.133 2.133 0 0 1-.56 2l-2.14 2.136a1.497 1.497 0 0 0 0 2.118l.356.355a1.503 1.503 0 0 0 2.124 0l2.149-2.146a2.133 2.133 0 0 1 1.99-.562c.382.089.78.136 1.192.136Z" clip-rule="evenodd"/></svg>
