<svg width="20" height="20" viewBox="0 0 20 20" fill="none" xmlns="http://www.w3.org/2000/svg">
<path d="M11.6 5.64L14.36 8.4L7.74854 15.0049C7.147 15.6064 6.4069 16.0509 5.59331 16.2993L3.33541 16.9886C3.19828 17.0305 3.05318 16.9533 3.01131 16.8161C2.99623 16.7667 2.99623 16.7139 3.01131 16.6645L3.70055 14.4067C3.94897 13.5929 4.39355 12.8526 4.99519 12.251L11.6 5.64ZM15.5549 3.34177L16.6582 4.44514C17.0854 4.87234 17.1121 5.54844 16.7383 6.00679L16.6582 6.09542L15.48 7.27L12.73 4.52L13.9047 3.34173C14.3604 2.88608 15.0992 2.88609 15.5549 3.34177Z" fill="currentColor"/>
</svg>
