<svg xmlns="http://www.w3.org/2000/svg" width="20" height="20" fill="currentColor" viewBox="0 0 20 20"><path fill-rule="evenodd" d="M9.35 1.5h-.033c-.952 0-1.713 0-2.327.05-.63.052-1.172.16-1.67.413a4.25 4.25 0 0 0-1.857 1.858c-.253.497-.361 1.04-.413 1.67C3 6.103 3 6.864 3 7.816v4.367c0 .952 0 1.713.05 2.327.052.63.16 1.172.413 1.67a4.25 4.25 0 0 0 1.858 1.857c.497.253 1.04.361 1.67.413.613.05 1.374.05 2.326.05h1.366c.952 0 1.713 0 2.327-.05.63-.052 1.172-.16 1.67-.413a4.251 4.251 0 0 0 1.857-1.857c.253-.498.361-1.04.413-1.67.05-.614.05-1.375.05-2.327V7.817c0-.952 0-1.713-.05-2.327-.052-.63-.16-1.172-.413-1.67a4.25 4.25 0 0 0-1.857-1.857c-.498-.253-1.04-.361-1.67-.413-.614-.05-1.375-.05-2.327-.05H9.35ZM6.002 3.3c.25-.128.573-.21 1.11-.255.375-.03.823-.04 1.388-.043V3.7c0 .28 0 .42.054.527a.5.5 0 0 0 .219.218c.107.055.247.055.527.055h.7V3h.65c.992 0 1.692 0 2.238.045.537.044.86.127 1.11.255A2.75 2.75 0 0 1 15.2 4.502c.128.25.21.573.255 1.11.044.546.045 1.246.045 2.238v4.3c0 .992 0 1.692-.045 2.238-.044.537-.127.86-.255 1.11A2.751 2.751 0 0 1 14 16.7c-.252.128-.574.21-1.111.255-.546.044-1.245.045-2.238.045h-1.3c-.992 0-1.692 0-2.238-.045-.537-.044-.86-.127-1.11-.255A2.75 2.75 0 0 1 4.8 15.5c-.128-.252-.21-.574-.255-1.111-.044-.546-.045-1.245-.045-2.238v-4.3c0-.992 0-1.692.045-2.238.044-.537.127-.86.255-1.11A2.75 2.75 0 0 1 6.002 3.3Zm2.536 3.009C8.5 6.4 8.5 6.517 8.5 6.75s0 .35.038.441a.5.5 0 0 0 .27.271c.093.038.209.038.442.038H10V6h-.75c-.233 0-.35 0-.441.038a.5.5 0 0 0-.271.27ZM10 4.5h.75c.233 0 .35 0 .441.038a.5.5 0 0 1 .27.27c.039.093.039.21.039.442 0 .233 0 .35-.038.441a.5.5 0 0 1-.27.271C11.1 6 10.982 6 10.75 6H10V4.5Zm.75 3H10v.75c0 .233 0 .35.038.441a.5.5 0 0 0 .27.271c.092.038.21.038.442.038s.35 0 .441-.038a.5.5 0 0 0 .27-.27c.039-.092.039-.209.039-.442s0-.35-.038-.441a.5.5 0 0 0-.27-.27c-.092-.039-.21-.039-.442-.039ZM8.5 10.75c0-.233 0-.35.038-.441a.5.5 0 0 1 .27-.27C8.902 10 9.018 10 9.25 10h1.5c.233 0 .35 0 .441.038a.5.5 0 0 1 .27.27c.039.092.039.209.039.442v.75a1.5 1.5 0 0 1-3 0v-.75Z" clip-rule="evenodd"/></svg>
