<svg xmlns="http://www.w3.org/2000/svg" width="20" height="20" fill="currentColor" viewBox="0 0 20 20"><path fill-rule="evenodd" d="M9.993 5.994c.002-1.852 1.012-2.491 1.747-2.491.735 0 1.746.64 1.746 2.497v6.277c0 .763 0 2.376.551 3.815.284.74.728 1.475 1.43 2.026.71.557 1.63.882 2.783.882a.75.75 0 0 0 0-1.5c-.855 0-1.44-.234-1.858-.562-.427-.336-.736-.814-.954-1.383-.445-1.161-.452-2.527-.452-3.305V6c0-2.473-1.485-3.997-3.246-3.997-.992 0-1.896.483-2.497 1.347-.601-.864-1.506-1.347-2.498-1.347-.915 0-1.756.41-2.353 1.152-.423-.615-.983-.973-1.4-1.113a.75.75 0 1 0-.475 1.424c.233.077.983.547.983 1.784v.532A6.031 6.031 0 0 0 3.496 6a.65.65 0 0 0 .004.077v6.173a.75.75 0 0 0 1.5 0V5.803c.069-1.705 1.034-2.3 1.745-2.3.736 0 1.746.64 1.748 2.49v6.257a.75.75 0 0 0 1.5 0V5.994Z" clip-rule="evenodd"/></svg>
