<svg xmlns="http://www.w3.org/2000/svg" width="20" height="20" fill="currentColor" viewBox="0 0 20 20"><path fill-rule="evenodd" d="M5.502 7.512a4.514 4.514 0 0 1 4.499-4.514A4.514 4.514 0 0 1 14.5 7.512c0 1.486-.84 3.178-2.948 4.013A.75.75 0 0 0 11.754 13h5.496a.75.75 0 0 0 0-1.5h-2.93A5.612 5.612 0 0 0 16 7.512a6.014 6.014 0 0 0-5.967-6.014h-.064a6.014 6.014 0 0 0-5.967 6.014c0 1.382.529 2.847 1.681 3.988H2.751a.75.75 0 0 0 0 1.5H8.25a.75.75 0 0 0 .217-1.468l-.017-.007c-2.108-.835-2.948-2.527-2.948-4.013ZM1.998 16.25a.75.75 0 0 1 .75-.75H17.25a.75.75 0 0 1 0 1.5H2.748a.75.75 0 0 1-.75-.75Z" clip-rule="evenodd"/></svg>
