<svg xmlns="http://www.w3.org/2000/svg" width="20" height="20" fill="currentColor" viewBox="0 0 20 20"><path fill-rule="evenodd" d="M4.093 1.112c-.487-.311-1.092.062-1.092.641 0 .278.148.532.38.685 2.286 1.5 3.85 3.975 4.087 6.812H3.75a.75.75 0 1 0 0 1.5h3.718c-.236 2.837-1.801 5.311-4.087 6.812a.825.825 0 0 0-.38.685c0 .579.605.952 1.092.64 2.751-1.757 4.637-4.72 4.88-8.137h2.057c.243 3.416 2.129 6.38 4.88 8.138.487.311 1.092-.062 1.092-.641a.825.825 0 0 0-.38-.685c-2.286-1.5-3.85-3.975-4.087-6.812h3.715a.75.75 0 0 0 0-1.5h-3.715c.236-2.837 1.801-5.311 4.087-6.812a.825.825 0 0 0 .38-.685c0-.578-.605-.952-1.092-.64-2.751 1.757-4.637 4.72-4.88 8.137H8.973c-.243-3.416-2.129-6.38-4.88-8.138Z" clip-rule="evenodd"/></svg>
