<svg xmlns="http://www.w3.org/2000/svg" width="20" height="20" fill="currentColor" viewBox="0 0 20 20"><path fill-rule="evenodd" d="M6.225 4.423a.75.75 0 0 0-1.183-.224l-3.8 3.503a.75.75 0 1 0 1.016 1.103l3.058-2.82 1.26 2.596a.75.75 0 0 0 1.203.204l2.826-2.809 1.492 2.646a.75.75 0 0 0 1.203.141l2.592-2.794 1.727 2.69a.75.75 0 0 0 1.262-.811l-2.25-3.503a.75.75 0 0 0-1.18-.105l-2.552 2.75-1.47-2.608a.75.75 0 0 0-1.183-.164l-2.78 2.763-1.241-2.558Zm0 6.999a.75.75 0 0 0-1.183-.224l-3.8 3.503a.75.75 0 1 0 1.016 1.103l3.058-2.819 1.26 2.595a.75.75 0 0 0 1.203.205l2.826-2.81 1.492 2.646a.75.75 0 0 0 1.203.142l2.592-2.794 1.727 2.689a.75.75 0 0 0 1.262-.81l-2.25-3.504a.75.75 0 0 0-1.18-.105l-2.552 2.75-1.47-2.608a.75.75 0 0 0-1.183-.164l-2.78 2.763-1.241-2.558Z" clip-rule="evenodd"/></svg>
