<svg xmlns="http://www.w3.org/2000/svg" width="20" height="20" fill="currentColor" viewBox="0 0 20 20"><path fill-rule="evenodd" d="M5.001 5.792c.067-1.767.97-2.288 1.499-2.288.549 0 1.502.563 1.502 2.499v6.254a.75.75 0 1 0 1.5 0V6.003c0-1.936.954-2.5 1.503-2.5.55 0 1.502.564 1.502 2.5v6.254c0 .962.115 1.912.41 2.757 0 .005.002.01.003.014-.327.03-.685.03-1.077-.012a.75.75 0 0 0-.158 1.493 6.595 6.595 0 0 0 1.992-.076c.788.999 1.98 1.57 3.576 1.57a.75.75 0 0 0 0-1.501c-.919 0-1.567-.238-2.033-.624.34-.185.64-.396.903-.619.93-.787 1.364-1.688 1.478-1.972.214-.533.464-1.61.383-2.639-.04-.52-.17-1.09-.489-1.576-.334-.51-.85-.886-1.557-1.016-.748-.137-1.405.012-1.93.388V6.003c0-2.397-1.3-4-3.003-4-.913 0-1.71.46-2.253 1.256-.543-.796-1.34-1.256-2.252-1.256-.853 0-1.604.401-2.142 1.103-.419-.585-.96-.928-1.367-1.063a.75.75 0 1 0-.474 1.423c.234.078.984.548.984 1.786v.525c-.003.074-.004.15-.004.226 0 .026 0 .051.004.077v6.177a.75.75 0 1 0 1.5 0V5.792Zm9.371 8.836a3.735 3.735 0 0 1-.029-.08c-.303-1.027-.4-2.46-.15-3.568.13-.582.337-.989.573-1.219.2-.195.465-.309.901-.228.293.053.459.186.574.362.13.2.218.493.247.87.06.765-.138 1.611-.28 1.963-.053.134-.366.803-1.054 1.386a3.835 3.835 0 0 1-.782.514Z" clip-rule="evenodd"/></svg>
