<svg width="96" height="96" fill="none" xmlns="http://www.w3.org/2000/svg"><path fill-rule="evenodd" clip-rule="evenodd" d="M41 9c-10.05 0-18.229 8.014-18.493 18-1.844.001-3.385.013-4.665.117-1.489.122-2.842.382-4.109 1.027a10.5 10.5 0 00-4.589 4.59C8.5 34 8.24 35.353 8.117 36.841 8 38.278 8 40.044 8 42.196v12.216c0 4.666 0 8.32.24 11.257.244 2.99.75 5.454 1.885 7.684a19.5 19.5 0 008.522 8.522c2.23 1.136 4.695 1.64 7.684 1.885 2.936.24 6.591.24 11.256.24h.913a2.5 2.5 0 000-5h-.8c-4.802 0-8.253-.002-10.962-.223-2.68-.22-4.414-.64-5.82-1.357a14.5 14.5 0 01-6.338-6.337c-.716-1.407-1.138-3.14-1.357-5.821-.221-2.71-.223-6.16-.223-10.962v-12c0-2.281.002-3.842.1-5.05.097-1.18.273-1.803.5-2.247a5.5 5.5 0 012.403-2.404c.445-.226 1.067-.402 2.246-.498C19.458 32 21.02 32 23.3 32h35.4c2.281 0 3.842.002 5.05.1 1.18.097 1.802.273 2.247.5a5.5 5.5 0 012.403 2.403c.254.497.44 1.206.528 2.65a2.5 2.5 0 004.99-.305c-.103-1.695-.347-3.212-1.062-4.615a10.5 10.5 0 00-4.59-4.589c-1.266-.645-2.62-.905-4.108-1.027-1.28-.104-2.822-.116-4.665-.117C59.228 17.014 51.05 9 41 9zm0 5c-7.288 0-13.228 5.776-13.49 13h26.98c-.262-7.224-6.202-13-13.49-13z" fill="currentColor"/><path d="M61.5 57.5a2.5 2.5 0 00-5 0C56.5 63.851 61.649 69 68 69s11.5-5.149 11.5-11.5a2.5 2.5 0 00-5 0 6.5 6.5 0 11-13 0z" fill="currentColor"/><path fill-rule="evenodd" clip-rule="evenodd" d="M55.404 45c-1.318 0-2.455 0-3.392.076-.988.081-1.971.26-2.917.742a7.5 7.5 0 00-3.277 3.277c-.482.946-.66 1.93-.742 2.917C45 52.95 45 54.086 45 55.404v15.4c0 2.152 0 3.918.117 5.354.122 1.489.382 2.842 1.027 4.109a10.5 10.5 0 004.59 4.589c1.266.645 2.62.905 4.108 1.027 1.436.117 3.202.117 5.354.117h15.608c2.152 0 3.918 0 5.354-.117 1.489-.122 2.842-.382 4.109-1.027a10.5 10.5 0 004.589-4.59c.645-1.266.905-2.62 1.027-4.108.117-1.436.117-3.202.117-5.353V55.404c0-1.318 0-2.455-.076-3.392-.081-.988-.26-1.971-.742-2.917a7.5 7.5 0 00-3.277-3.277c-.946-.482-1.93-.66-2.917-.742C83.05 45 81.914 45 80.597 45H55.404zm-4.039 5.273c.124-.064.375-.158 1.055-.213.708-.058 1.639-.06 3.08-.06h25c1.441 0 2.372.002 3.08.06.68.055.931.15 1.055.212a2.5 2.5 0 011.093 1.093c.063.124.157.375.212 1.055.058.708.06 1.639.06 3.08v15.2c0 2.281-.002 3.842-.1 5.05-.097 1.18-.273 1.802-.5 2.247a5.5 5.5 0 01-2.403 2.403c-.445.227-1.067.403-2.246.5-1.209.098-2.77.1-5.051.1H60.3c-2.281 0-3.842-.002-5.05-.1-1.18-.097-1.803-.273-2.247-.5a5.5 5.5 0 01-2.404-2.403c-.226-.445-.402-1.067-.498-2.246C50 74.542 50 72.98 50 70.7V55.5c0-1.441.002-2.372.06-3.08.055-.68.15-.931.212-1.055a2.5 2.5 0 011.093-1.093z" fill="currentColor"/></svg>
