<svg width="96" height="96" fill="none" xmlns="http://www.w3.org/2000/svg"><path d="M27.196 14c-2.152 0-3.918 0-5.354.117-1.489.122-2.842.382-4.109 1.027a10.5 10.5 0 00-4.589 4.59c-.645 1.266-.905 2.62-1.027 4.108C12 25.278 12 27.044 12 29.196v38.608c0 2.152 0 3.918.117 5.354.122 1.489.382 2.842 1.027 4.109a10.5 10.5 0 004.59 4.589c1.266.645 2.62.905 4.108 1.027 1.436.117 3.202.117 5.354.117h30.608c2.152 0 3.918 0 5.354-.117 1.489-.122 2.842-.382 4.109-1.027a10.5 10.5 0 004.589-4.59c1.017-1.996 1.114-4.335 1.138-7.245a2.5 2.5 0 00-5-.042c-.025 3.098-.195 4.236-.594 5.018a5.5 5.5 0 01-2.403 2.403c-.445.227-1.067.403-2.246.5-1.209.098-2.77.1-5.051.1H27.3c-2.282 0-3.842-.002-5.05-.1-1.18-.097-1.802-.273-2.247-.5a5.5 5.5 0 01-2.404-2.403c-.226-.445-.402-1.067-.498-2.246C17 71.542 17 69.98 17 67.7V29.3c0-2.282.002-3.842.1-5.05.097-1.18.273-1.802.5-2.247a5.5 5.5 0 012.403-2.404c.445-.226 1.067-.402 2.246-.498C23.458 19 25.02 19 27.3 19h30.4c2.281 0 3.842.002 5.05.1 1.18.097 1.802.273 2.247.5a5.5 5.5 0 012.403 2.403c.4.782.57 1.921.595 5.018a2.5 2.5 0 005-.042c-.024-2.91-.122-5.249-1.14-7.246a10.5 10.5 0 00-4.588-4.589c-1.267-.645-2.62-.905-4.109-1.027C61.722 14 59.956 14 57.804 14H27.196z" fill="currentColor"/><path d="M26.5 32a2.5 2.5 0 000 5h32a2.5 2.5 0 000-5h-32zM24 48.5a2.5 2.5 0 012.5-2.5h20a2.5 2.5 0 010 5h-20a2.5 2.5 0 01-2.5-2.5zM26.5 60a2.5 2.5 0 000 5h12a2.5 2.5 0 000-5h-12z" fill="currentColor"/><path fill-rule="evenodd" clip-rule="evenodd" d="M74.61 33.854a5.5 5.5 0 017.78 0l2.756 2.757a5.5 5.5 0 010 7.778L63.026 66.51A8.5 8.5 0 0157.014 69H52.5a2.5 2.5 0 01-2.5-2.5v-4.515a8.5 8.5 0 012.49-6.01l22.12-22.121zm4.244 3.535a.5.5 0 00-.708 0L75.536 40 79 43.465l2.61-2.611a.5.5 0 000-.708l-2.756-2.757zM75.464 47L72 43.535 56.025 59.51A3.5 3.5 0 0055 61.985V64h2.015a3.5 3.5 0 002.475-1.025L75.464 47z" fill="currentColor"/></svg>
