<svg xmlns="http://www.w3.org/2000/svg" width="96" height="96" fill="currentColor" viewBox="0 0 96 96"><path d="M13 48.393c0-19.573 15.694-35.396 35-35.396 19.306 0 35.001 15.823 35.001 35.396 0 10.78-3.85 19.807-11.152 26.227a2.5 2.5 0 0 0 3.302 3.754c8.501-7.475 12.85-17.931 12.85-29.98 0-22.286-17.884-40.397-40-40.397-22.117 0-40.002 18.11-40.002 40.396C8 60.442 12.345 70.9 20.846 78.376a2.5 2.5 0 0 0 3.302-3.755c-7.3-6.42-11.149-15.447-11.149-26.228Z M48.005 31c-9.37 0-17 7.664-17 17.162 0 5.335 1.669 9.412 5.144 12.461a2.5 2.5 0 1 1-3.298 3.759c-4.741-4.16-6.846-9.71-6.846-16.22 0-12.22 9.83-22.162 22-22.162s22 9.942 22 22.162c0 6.513-2.117 12.06-6.856 16.219a2.5 2.5 0 1 1-3.298-3.759c3.477-3.05 5.154-7.128 5.154-12.46 0-9.498-7.63-17.162-17-17.162Z M54 48a6 6 0 1 1-12 0 6 6 0 0 1 12 0Z"/></svg>
