<svg xmlns="http://www.w3.org/2000/svg" width="44" height="44" viewBox="0 0 44 44" fill="currentColor"><path d="M36.995 29.969C36.793 34.692 30.055 38 22 38c-8.178 0-15-3.411-15-8.25v-15l.005-.219C7.207 9.808 13.945 6.5 22 6.5c8.178 0 15 3.411 15 8.25v15zm-2.994-10.17C31.246 21.794 26.863 23 22 23s-9.245-1.206-12-3.2v2.45c0 2.617 5.266 5.25 12 5.25s12-2.633 12-5.25zM22 9.5c-6.734 0-12 2.633-12 5.25S15.266 20 22 20s12-2.633 12-5.25S28.734 9.5 22 9.5m12 17.799c-2.754 1.995-7.137 3.201-12 3.201-4.862 0-9.245-1.206-12-3.2v2.45l.005.138C10.185 32.458 15.385 35 22 35c6.734 0 12-2.633 12-5.25z"/></svg>