<svg height="44" viewBox="0 0 44 44" width="44" xmlns="http://www.w3.org/2000/svg"><g fill="none" fill-rule="evenodd" transform=""><path d="m0 0h44v44h-44z"/><path d="m36.9953207 29.9689637c-.2023599 4.7226072-6.9412494 8.0310363-14.9953207 8.0310363-8.1779801 0-15-3.41101-15-8.25v-15l.00467935-.2189637c.20235981-4.72260722 6.94124935-8.0310363 14.99532065-8.0310363 8.1779801 0 15 3.41100996 15 8.25v15zm-2.9946242-10.1700335c-2.7547475 1.9950843-7.1380176 3.2010698-12.0006965 3.2010698-4.862086 0-9.2448801-1.2056914-11.9996889-3.2003402l-.0003111 2.4503402c0 2.6168541 5.2662918 5.25 12 5.25s12-2.6331459 12-5.25zm-12.0006965-10.2989302c-6.7337082 0-12 2.6331459-12 5.25s5.2662918 5.25 12 5.25 12-2.6331459 12-5.25-5.2662918-5.25-12-5.25zm12.0006965 17.7989302c-2.7547475 1.9950843-7.1380176 3.2010698-12.0006965 3.2010698-4.862086 0-9.2448801-1.2056914-11.9996889-3.2003402l-.0003111 2.4503402.0048422.1377299c.1803916 2.5707048 5.3795849 5.1122701 11.9951578 5.1122701 6.7337082 0 12-2.6331459 12-5.25z" fill="currentColor" fill-rule="nonzero"/></g></svg>
