<svg xmlns="http://www.w3.org/2000/svg" width="44" height="44" viewBox="0 0 44 44" fill="currentColor"><path d="M31.113 6.388c1.702 1.702 1.863 4.53.348 6.765q-.303.446-.677.846H32.5c1.198 0 2.264.268 3.153.757.889.49 1.6 1.201 2.09 2.09.49.89.757 1.955.757 3.153v.644c0 1.51-.209 2.32-.601 3.054a4.1 4.1 0 0 1-1.701 1.701 4.5 4.5 0 0 1-.697.303l-.001 4.607c0 2.674-.278 3.644-.801 4.622a5.45 5.45 0 0 1-2.268 2.268c-.978.523-1.948.801-4.623.801H16.192c-2.675 0-3.645-.278-4.623-.801a5.45 5.45 0 0 1-2.268-2.268c-.523-.978-.801-1.948-.801-4.622V25.7a4.5 4.5 0 0 1-.698-.303 4.1 4.1 0 0 1-1.701-1.7c-.36-.673-.565-1.41-.597-2.691L5.5 19.999c0-1.198.267-2.264.757-3.153a5.26 5.26 0 0 1 2.09-2.09c.889-.49 1.955-.757 3.153-.757h1.718a7 7 0 0 1-.678-.846c-1.514-2.236-1.353-5.063.348-6.765s4.53-1.863 6.765-.35c.944.641 1.735 1.526 2.348 2.635.613-1.109 1.403-1.994 2.347-2.634 2.236-1.514 5.063-1.353 6.765.349M20.5 25.999h-9v4.309c0 1.985.117 2.59.447 3.207.243.455.582.794 1.037 1.037.617.33 1.222.447 3.208.447H20.5zm3 0v9h4.308c1.986 0 2.59-.116 3.208-.447a2.45 2.45 0 0 0 1.037-1.037c.33-.617.447-1.222.447-3.207v-4.309zm-3-9h-9c-.688 0-1.26.139-1.706.385a2.26 2.26 0 0 0-.91.91c-.245.446-.384 1.018-.384 1.705l.002.914c.014.76.091 1.083.244 1.37.113.21.26.357.47.47.317.169.678.245 1.619.246H20.5zm12 0h-8.999l-.001 6h9.664l.19-.001c.802-.011 1.136-.088 1.43-.245a1.1 1.1 0 0 0 .47-.47c.153-.287.23-.61.244-1.37L35.5 20c0-.687-.139-1.259-.385-1.705a2.26 2.26 0 0 0-.91-.91c-.446-.246-1.017-.386-1.705-.386M23.5 14c5.475-.524 7.043-4.057 5.55-5.55s-5.025.075-5.55 5.55m-8.549-5.55c-1.493 1.493.075 5.026 5.55 5.55-.524-5.475-4.056-7.043-5.55-5.55"/></svg>