<svg height="44" viewBox="0 0 44 44" width="44" xmlns="http://www.w3.org/2000/svg"><g fill="none" fill-rule="evenodd"><path d="m0 0h44v44h-44z"/><path d="m18.0000004 26.3953896v3.6950599c0 7.0317803-6.8737978 10.6495687-10.60921318 6.9141533-3.73541539-3.7354154-.11762707-10.6092132 6.91415328-10.6092132zm-3 3h-.6950599c-4.52116658 0-6.50722147 3.7735043-4.79283294 5.4878928 1.71438854 1.7143886 5.48789284-.2716663 5.48789284-4.7928329zm15.5822059-23.11138882c2.4330418-.50688371 4.8163223 1.05457594 5.323206 3.48761774.0628922.30188248.0945881.60942998.0945881.91779418v15.6510368c0 7.0317803-6.8737978 10.6495687-10.6092132 6.9141533s-.117627-10.6092132 6.9141533-10.6092132l.6944495-.0008823v-7.051l-15 3.125.0006104 9.2814927h-3v-13.6248526c0-1.4146745.1179421-2.1449548.4698289-2.9311965.3329482-.7439259.839045-1.3663259 1.4994277-1.84400244.6979464-.50484767 1.3888217-.76925443 2.7737604-1.05778332zm2.4177941 19.36138882h-.6950599c-4.5211666 0-6.5072215 3.7735043-4.7928329 5.4878928 1.7143885 1.7143886 5.4878928-.2716663 5.4878928-4.7928329zm-.0315294-15.2619083c-.1689612-.81101395-.963388-1.3315005-1.774402-1.16253926l-10.8391889 2.25816436c-1.0062914.209644-1.3213007.3302021-1.6273775.5515975-.2335611.1689425-.401654.3756639-.5194096.6387722-.1543161.3447977-.2080926.6777739-.2080926 1.7056713l-.0006104 1.2803599 15-3.125.0006104-1.8410946c0-.0513941-.0026413-.10272-.0079032-.1537759z" fill="currentColor" fill-rule="nonzero"/></g></svg>
