<svg xmlns="http://www.w3.org/2000/svg" width="44" height="44" viewBox="0 0 44 44" fill="currentColor"><path fill-rule="evenodd" d="M30.582 6.284A4.5 4.5 0 0 1 36 10.689v15.65c0 7.033-6.873 10.65-10.61 6.916s-.117-10.61 6.914-10.61H33v-7.051l-15 3.125v11.37c0 7.033-6.872 10.65-10.609 6.916-3.735-3.735-.117-10.61 6.915-10.61H15v-12.02c0-1.415.118-2.145.47-2.93a4.54 4.54 0 0 1 1.5-1.845c.697-.505 1.388-.77 2.773-1.058zM14.305 29.395c-4.52 0-6.507 3.774-4.793 5.488S15 34.612 15 30.09v-.695zm18-3.75c-4.52 0-6.507 3.774-4.793 5.488S33 30.862 33 26.34v-.695zm.016-16.21a1.5 1.5 0 0 0-1.127-.214l-10.84 2.258c-1.005.21-1.32.33-1.626.552a1.54 1.54 0 0 0-.52.638c-.154.345-.208.678-.208 1.706v1.28l15-3.124V10.69q0-.076-.008-.153l-.024-.153a1.5 1.5 0 0 0-.647-.949" clip-rule="evenodd"/></svg>