<svg height="44" viewBox="0 0 44 44" width="44" xmlns="http://www.w3.org/2000/svg"><g fill="none" fill-rule="evenodd" transform=""><path d="m0 0h44v44h-44z"/><path d="m22 40c-9.9411255 0-18-8.0588745-18-18s8.0588745-18 18-18 18 8.0588745 18 18-8.0588745 18-18 18zm0-3c8.2842712 0 15-6.7157288 15-15s-6.7157288-15-15-15-15 6.7157288-15 15 6.7157288 15 15 15zm-6.582002-8.8627589c-.5649859-.6058732-.5318402-1.5550421.074033-2.1200281.6058733-.5649859 1.5550422-.5318402 2.1200281.0740331 2.2599438 2.4234929 6.0566194 2.5560758 8.4801124.296132.1021954-.0952988.2006428-.1935989.2952766-.2947712.5659098-.6050105 1.5151282-.6367078 2.1201386-.070798s.6367077 1.5151282.0707979 2.1201386c-.1412764.1510377-.2880651.2976068-.440218.4394917-3.6352395 3.3899157-9.330253 3.1910414-12.7201686-.4441981zm11.644502-7.2622411c-1.3461941 0-2.4375-1.0913059-2.4375-2.4375s1.0913059-2.4375 2.4375-2.4375 2.4375 1.0913059 2.4375 2.4375-1.0913059 2.4375-2.4375 2.4375zm-10.125 0c-1.3461941 0-2.4375-1.0913059-2.4375-2.4375s1.0913059-2.4375 2.4375-2.4375 2.4375 1.0913059 2.4375 2.4375-1.0913059 2.4375-2.4375 2.4375z" fill="currentColor" fill-rule="nonzero"/></g></svg>
